<svg xmlns="http://www.w3.org/2000/svg" xmlns:xlink="http://www.w3.org/1999/xlink" version="1.1" class="marks" width="235" height="194" viewBox="0 0 235 194"><rect width="235" height="194" fill="white"/><g fill="none" stroke-miterlimit="10" transform="translate(29,22)"><g class="mark-group role-frame root" role="graphics-object" aria-roledescription="group mark container"><g transform="translate(0,0)"><path class="background" aria-hidden="true" d="M0,0h200v150h-200Z"/><g><g class="mark-group role-axis" aria-hidden="true"><g transform="translate(0.5,0.5)"><path class="background" aria-hidden="true" d="M0,0h0v0h0Z" pointer-events="none"/><g><g class="mark-rule role-axis-grid" pointer-events="none"><line transform="translate(0,150)" x2="200" y2="0" stroke="#ddd" stroke-width="1" opacity="1"/><line transform="translate(0,117)" x2="200" y2="0" stroke="#ddd" stroke-width="1" opacity="1"/><line transform="translate(0,83)" x2="200" y2="0" stroke="#ddd" stroke-width="1" opacity="1"/><line transform="translate(0,50)" x2="200" y2="0" stroke="#ddd" stroke-width="1" opacity="1"/><line transform="translate(0,17)" x2="200" y2="0" stroke="#ddd" stroke-width="1" opacity="1"/></g></g><path class="foreground" aria-hidden="true" d="" pointer-events="none" display="none"/></g></g><g class="mark-group role-axis" role="graphics-symbol" aria-roledescription="axis" aria-label="X-axis for a time scale with values from Friday, 01 January 2016, 12:00:00 AM to Monday, 01 January 2024, 12:00:00 AM"><g transform="translate(0.5,150.5)"><path class="background" aria-hidden="true" d="M0,0h0v0h0Z" pointer-events="none"/><g><g class="mark-rule role-axis-tick" pointer-events="none"><line transform="translate(0,0)" x2="0" y2="5" stroke="#888" stroke-width="1" opacity="1"/><line transform="translate(50,0)" x2="0" y2="5" stroke="#888" stroke-width="1" opacity="1"/><line transform="translate(100,0)" x2="0" y2="5" stroke="#888" stroke-width="1" opacity="1"/><line transform="translate(150,0)" x2="0" y2="5" stroke="#888" stroke-width="1" opacity="1"/><line transform="translate(200,0)" x2="0" y2="5" stroke="#888" stroke-width="1" opacity="1"/></g><g class="mark-text role-axis-label" pointer-events="none"><text text-anchor="start" transform="translate(0,15)" font-family="sans-serif" font-size="10px" fill="#000" opacity="1">2016</text><text text-anchor="middle" transform="translate(50.03422313483915,15)" font-family="sans-serif" font-size="10px" fill="#000" opacity="1">2018</text><text text-anchor="middle" transform="translate(100,15)" font-family="sans-serif" font-size="10px" fill="#000" opacity="1">2020</text><text text-anchor="middle" transform="translate(150.03422313483915,15)" font-family="sans-serif" font-size="10px" fill="#000" opacity="1">2022</text><text text-anchor="end" transform="translate(200,15)" font-family="sans-serif" font-size="10px" fill="#000" opacity="1">2024</text></g><g class="mark-rule role-axis-domain" pointer-events="none"><line transform="translate(0,0)" x2="200" y2="0" stroke="#888" stroke-width="1" opacity="1"/></g></g><path class="foreground" aria-hidden="true" d="" pointer-events="none" display="none"/></g></g><g class="mark-group role-axis" role="graphics-symbol" aria-roledescription="axis" aria-label="Y-axis for a linear scale with values from 0 to 450"><g transform="translate(0.5,0.5)"><path class="background" aria-hidden="true" d="M0,0h0v0h0Z" pointer-events="none"/><g><g class="mark-rule role-axis-tick" pointer-events="none"><line transform="translate(0,150)" x2="-5" y2="0" stroke="#888" stroke-opacity="0" stroke-width="1" opacity="1"/><line transform="translate(0,117)" x2="-5" y2="0" stroke="#888" stroke-opacity="0" stroke-width="1" opacity="1"/><line transform="translate(0,83)" x2="-5" y2="0" stroke="#888" stroke-opacity="0" stroke-width="1" opacity="1"/><line transform="translate(0,50)" x2="-5" y2="0" stroke="#888" stroke-opacity="0" stroke-width="1" opacity="1"/><line transform="translate(0,17)" x2="-5" y2="0" stroke="#888" stroke-opacity="0" stroke-width="1" opacity="1"/></g><g class="mark-text role-axis-label" pointer-events="none"><text text-anchor="end" transform="translate(-7,153)" font-family="sans-serif" font-size="10px" fill="#000" opacity="1">0</text><text text-anchor="end" transform="translate(-7,119.66666666666667)" font-family="sans-serif" font-size="10px" fill="#000" opacity="1">100</text><text text-anchor="end" transform="translate(-7,86.33333333333334)" font-family="sans-serif" font-size="10px" fill="#000" opacity="1">200</text><text text-anchor="end" transform="translate(-7,53.00000000000001)" font-family="sans-serif" font-size="10px" fill="#000" opacity="1">300</text><text text-anchor="end" transform="translate(-7,19.666666666666675)" font-family="sans-serif" font-size="10px" fill="#000" opacity="1">400</text></g></g><path class="foreground" aria-hidden="true" d="" pointer-events="none" display="none"/></g></g><g class="mark-line role-mark marks" clip-path="url(#clip123)" role="graphics-object" aria-roledescription="line mark container"><path aria-label="day: Jun 03, 2010; avg: 13.3666666667" role="graphics-symbol" aria-roledescription="line mark" d="M-139.496,145.544L-139.428,145.456L-139.359,145.633L-139.291,145.667L-139.223,145.767L-139.154,145.789L-139.086,145.733L-139.017,145.656L-138.949,145.744L-138.88,145.722L-138.812,145.722L-138.743,145.8L-138.675,145.856L-138.607,145.9L-138.538,145.9L-138.47,145.944L-138.401,145.922L-138.333,145.933L-138.264,145.889L-138.196,145.922L-138.127,145.933L-138.059,145.922L-137.991,145.933L-137.922,145.933L-137.854,145.922L-137.785,145.889L-137.717,145.856L-137.648,145.756L-137.58,145.756L-137.511,145.689L-137.443,145.767L-137.375,145.789L-137.306,145.678L-137.238,145.656L-137.169,145.589L-137.101,145.567L-137.032,145.589L-136.964,145.511L-136.895,145.467L-136.827,145.456L-136.758,145.456L-136.69,145.378L-136.622,145.289L-136.553,145.244L-136.485,145.311L-136.416,145.289L-136.348,145.3L-136.279,145.267L-136.211,145.244L-136.142,145.211L-136.074,145.244L-136.006,145.3L-135.937,145.4L-135.869,145.422L-135.8,145.456L-135.732,145.633L-135.663,145.7L-135.595,145.778L-135.526,145.733L-135.458,145.856L-135.39,145.833L-135.321,145.856L-135.253,145.956L-135.184,145.978L-135.116,146.011L-135.047,146.111L-134.979,146.089L-134.91,146.233L-134.842,146.133L-134.774,146.078L-134.705,146.111L-134.637,146.3L-134.568,146.333L-134.5,146.389L-134.431,146.333L-134.363,146.356L-134.294,146.322L-134.226,146.378L-134.158,146.356L-134.089,146.378L-134.021,146.344L-133.952,146.189L-133.884,146.156L-133.815,146.133L-133.747,146.167L-133.678,146.122L-133.61,146.033L-133.542,146.056L-133.473,146.189L-133.405,146.1L-133.336,146L-133.268,146.011L-133.199,145.978L-133.131,145.822L-133.062,145.833L-132.994,145.678L-132.926,145.711L-132.857,145.7L-132.789,145.778L-132.72,145.833L-132.652,145.744L-132.583,145.656L-132.515,145.589L-132.446,145.544L-132.378,145.533L-132.309,145.544L-132.241,145.522L-132.173,145.422L-132.104,145.544L-132.036,145.611L-131.967,145.589L-131.899,145.656L-131.83,145.678L-131.762,145.778L-131.693,145.644L-131.625,145.633L-131.557,145.556L-131.488,145.522L-131.42,145.433L-131.351,145.533L-131.283,145.556L-131.214,145.511L-131.146,145.544L-131.077,145.7L-131.009,145.778L-130.941,145.933L-130.872,145.922L-130.804,145.867L-130.735,145.867L-130.667,145.822L-130.598,145.933L-130.53,145.933L-130.461,145.967L-130.393,145.989L-130.325,146.022L-130.256,145.933L-130.188,145.978L-130.119,145.944L-130.051,145.889L-129.982,145.844L-129.914,145.756L-129.845,145.811L-129.777,145.7L-129.709,145.633L-129.64,145.722L-129.572,145.722L-129.503,145.867L-129.435,145.911L-129.366,145.967L-129.298,145.889L-129.229,145.944L-129.161,145.9L-129.093,145.889L-129.024,145.878L-128.956,145.833L-128.887,145.689L-128.819,145.678L-128.75,145.767L-128.679,145.822L-128.611,145.844L-128.542,145.822L-128.474,145.822L-128.405,145.878L-128.337,145.833L-128.268,145.789L-128.2,145.822L-128.131,145.811L-128.063,145.856L-127.995,145.922L-127.926,145.944L-127.858,146.078L-127.789,146.067L-127.721,146.122L-127.652,146.144L-127.584,146.144L-127.515,146.178L-127.447,146.211L-127.379,146.156L-127.31,145.978L-127.242,145.911L-127.173,145.8L-127.105,145.678L-127.036,145.267L-126.968,145.044L-126.899,144.989L-126.831,144.989L-126.762,144.933L-126.694,144.833L-126.626,144.8L-126.557,144.778L-126.489,144.689L-126.42,144.689L-126.352,144.589L-126.283,144.489L-126.215,144.4L-126.146,144.344L-126.078,144.322L-126.01,144.356L-125.941,144.289L-125.873,144.3L-125.804,144.244L-125.736,144.189L-125.667,144.122L-125.599,144.1L-125.53,144.011L-125.462,143.9L-125.394,143.856L-125.325,143.867L-125.257,143.933L-125.188,143.822L-125.12,143.533L-125.051,143.311L-124.983,143.267L-124.914,143.022L-124.846,142.778L-124.778,142.733L-124.709,142.467L-124.641,142.222L-124.572,142.056L-124.504,141.822L-124.435,141.767L-124.367,141.733L-124.298,141.7L-124.23,141.811L-124.162,141.878L-124.093,141.922L-124.025,141.889L-123.956,141.844L-123.888,141.878L-123.819,141.8L-123.751,141.811L-123.682,141.856L-123.614,141.911L-123.546,141.9L-123.477,142.044L-123.409,142.122L-123.34,142.078L-123.272,142.089L-123.203,142.189L-123.135,142.4L-123.066,142.822L-122.998,143.222L-122.93,143.567L-122.861,143.956L-122.793,144.167L-122.724,144.256L-122.656,144.511L-122.587,144.733L-122.519,144.933L-122.45,145.144L-122.382,145.2L-122.313,145.189L-122.245,145.322L-122.177,145.344L-122.108,145.4L-122.04,145.478L-121.971,145.556L-121.903,145.511L-121.834,145.478L-121.766,145.578L-121.697,145.656L-121.629,145.689L-121.561,145.667L-121.492,145.756L-121.424,145.756L-121.355,145.656L-121.287,145.689L-121.218,145.644L-121.15,145.622L-121.081,145.6L-121.013,145.511L-120.945,145.511L-120.876,145.544L-120.808,145.533L-120.739,145.489L-120.671,145.444L-120.602,145.511L-120.534,145.622L-120.465,145.556L-120.397,145.544L-120.329,145.644L-120.26,145.611L-120.192,145.511L-120.123,145.422L-120.058,145.333L-119.989,145.244L-119.921,145.167L-119.852,145.278L-119.784,145.333L-119.715,145.289L-119.647,145.311L-119.578,145.322L-119.51,145.411L-119.442,145.333L-119.373,145.333L-119.305,145.467L-119.236,145.522L-119.168,145.567L-119.099,145.511L-119.031,145.544L-118.962,145.544L-118.894,145.567L-118.826,145.5L-118.757,145.522L-118.689,145.567L-118.62,145.7L-118.552,145.678L-118.483,145.644L-118.415,145.611L-118.346,145.622L-118.278,145.644L-118.21,145.756L-118.141,145.833L-118.073,145.856L-118.004,145.978L-117.936,146L-117.867,146.1L-117.799,145.978L-117.73,145.967L-117.662,145.889L-117.594,145.822L-117.525,145.811L-117.457,145.756L-117.388,145.767L-117.32,145.689L-117.251,145.622L-117.183,145.556L-117.114,145.444L-117.046,145.556L-116.978,145.556L-116.909,145.589L-116.841,145.567L-116.772,145.6L-116.704,145.711L-116.635,145.667L-116.567,145.667L-116.498,145.667L-116.43,145.656L-116.362,145.778L-116.293,145.789L-116.225,145.778L-116.156,145.722L-116.088,145.789L-116.019,145.833L-115.951,145.778L-115.882,145.789L-115.814,145.678L-115.745,145.7L-115.677,145.656L-115.609,145.689L-115.54,145.656L-115.472,145.644L-115.403,145.611L-115.335,145.644L-115.266,145.567L-115.198,145.611L-115.129,145.6L-115.061,145.733L-114.993,145.622L-114.924,145.611L-114.856,145.589L-114.787,145.544L-114.719,145.556L-114.65,145.456L-114.582,145.544L-114.513,145.522L-114.445,145.589L-114.377,145.622L-114.308,145.578L-114.24,145.556L-114.171,145.511L-114.103,145.556L-114.034,145.5L-113.966,145.533L-113.897,145.578L-113.829,145.589L-113.761,145.6L-113.692,145.5L-113.624,145.544L-113.555,145.578L-113.487,145.556L-113.418,145.633L-113.35,145.644L-113.281,145.678L-113.213,145.756L-113.145,145.767L-113.076,145.744L-113.008,145.711L-112.939,145.733L-112.871,145.767L-112.802,145.789L-112.734,145.867L-112.665,145.967L-112.597,146.022L-112.529,146.033L-112.46,145.933L-112.392,145.744L-112.323,145.644L-112.255,145.611L-112.186,145.556L-112.118,145.467L-112.049,145.367L-111.981,145.244L-111.913,145.178L-111.844,145.1L-111.776,145.111L-111.707,145.211L-111.639,145.344L-111.57,145.344L-111.502,145.322L-111.433,145.344L-111.365,145.256L-111.296,145.356L-111.228,145.2L-111.16,145.222L-111.091,145.167L-111.023,145.222L-110.954,145.267L-110.886,145.333L-110.817,145.333L-110.749,145.433L-110.68,145.444L-110.612,145.5L-110.544,145.489L-110.475,145.511L-110.407,145.622L-110.338,145.778L-110.27,145.8L-110.201,145.711L-110.133,145.811L-110.064,145.844L-109.996,145.978L-109.928,146.089L-109.859,146.178L-109.791,146.3L-109.722,146.233L-109.654,146.189L-109.585,146.222L-109.517,146.167L-109.448,146.133L-109.38,146L-109.312,145.933L-109.243,145.922L-109.175,145.978L-109.106,145.978L-109.038,146.022L-108.969,145.989L-108.901,145.822L-108.832,145.778L-108.764,145.822L-108.696,145.622L-108.627,145.567L-108.559,145.378L-108.49,145.244L-108.422,145.178L-108.353,145.067L-108.285,145.011L-108.216,145.044L-108.148,145.156L-108.08,145.122L-108.011,145.144L-107.943,145.078L-107.874,144.967L-107.806,144.967L-107.737,144.922L-107.669,144.978L-107.6,145.022L-107.532,144.911L-107.463,144.978L-107.395,145L-107.327,145.089L-107.258,145.167L-107.19,145.089L-107.121,145.089L-107.053,145.089L-106.984,145L-106.916,144.878L-106.847,144.867L-106.779,144.889L-106.711,144.822L-106.642,144.922L-106.574,144.844L-106.505,144.978L-106.437,144.944L-106.368,145.011L-106.3,145.144L-106.231,145.178L-106.163,145.211L-106.095,145.144L-106.026,145.2L-105.958,145.256L-105.889,145.311L-105.821,145.389L-105.752,145.333L-105.684,145.322L-105.615,145.311L-105.547,145.267L-105.479,145.411L-105.41,145.3L-105.342,145.244L-105.273,145.289L-105.205,145.344L-105.136,145.411L-105.068,145.356L-104.999,145.322L-104.931,145.378L-104.863,145.411L-104.794,145.444L-104.726,145.467L-104.657,145.478L-104.589,145.433L-104.52,145.556L-104.452,145.489L-104.383,145.578L-104.315,145.544L-104.247,145.444L-104.178,145.389L-104.11,145.344L-104.041,145.311L-103.973,145.289L-103.904,145.133L-103.836,145.044L-103.765,145.078L-103.696,145.067L-103.628,145.1L-103.559,145L-103.491,144.833L-103.422,144.722L-103.354,144.789L-103.285,144.956L-103.217,144.944L-103.149,144.811L-103.08,144.678L-103.012,144.722L-102.943,144.756L-102.875,144.733L-102.806,144.778L-102.738,144.844L-102.669,144.789L-102.601,144.667L-102.533,144.8L-102.464,144.711L-102.396,144.667L-102.327,144.722L-102.259,144.622L-102.19,144.678L-102.122,144.689L-102.053,144.756L-101.985,144.867L-101.916,144.922L-101.848,145.089L-101.78,145.111L-101.711,145.067L-101.643,145.122L-101.574,145L-101.506,145.044L-101.437,145.222L-101.369,145.256L-101.3,145.233L-101.232,145.122L-101.164,145.222L-101.095,145.311L-101.027,145.356L-100.958,145.378L-100.89,145.422L-100.821,145.333L-100.753,145.344L-100.684,145.411L-100.616,145.433L-100.548,145.578L-100.479,145.433L-100.411,145.467L-100.342,145.544L-100.274,145.578L-100.205,145.622L-100.137,145.578L-100.068,145.589L-100,145.6L-99.932,145.556L-99.863,145.433L-99.795,145.322L-99.726,145.333L-99.658,145.322L-99.589,145.244L-99.521,145.378L-99.452,145.444L-99.384,145.4L-99.316,145.367L-99.247,145.4L-99.179,145.378L-99.11,145.167L-99.042,145.133L-98.973,145.178L-98.905,145.211L-98.836,145.156L-98.768,145.256L-98.7,145.344L-98.631,145.344L-98.563,145.333L-98.494,145.378L-98.426,145.456L-98.357,145.478L-98.289,145.511L-98.22,145.456L-98.152,145.533L-98.084,145.544L-98.015,145.589L-97.947,145.5L-97.878,145.544L-97.81,145.633L-97.741,145.656L-97.673,145.633L-97.604,145.733L-97.536,145.856L-97.467,145.889L-97.399,145.8L-97.331,145.767L-97.262,145.811L-97.194,145.667L-97.125,145.711L-97.057,145.789L-96.988,145.767L-96.92,145.744L-96.851,145.822L-96.783,145.778L-96.715,145.567L-96.646,145.522L-96.578,145.489L-96.509,145.389L-96.441,145.211L-96.372,145.178L-96.304,145.122L-96.235,145.056L-96.167,145.122L-96.099,145.067L-96.03,145.044L-95.962,144.978L-95.893,145.078L-95.825,145.067L-95.756,144.967L-95.688,145.044L-95.619,145.089L-95.551,145.033L-95.483,145.011L-95.414,144.978L-95.346,145.144L-95.277,145.278L-95.209,145.267L-95.143,145.344L-95.075,145.333L-95.006,145.378L-94.938,145.367L-94.869,145.367L-94.801,145.222L-94.732,145.211L-94.664,145.411L-94.596,145.4L-94.527,145.378L-94.459,145.456L-94.39,145.533L-94.322,145.5L-94.253,145.456L-94.185,145.467L-94.116,145.311L-94.048,145.3L-93.98,145.244L-93.911,145.233L-93.843,145.189L-93.774,145.144L-93.706,145.211L-93.637,145.133L-93.569,145.111L-93.5,145.078L-93.432,144.967L-93.364,144.867L-93.295,144.778L-93.227,144.733L-93.158,144.722L-93.09,144.733L-93.021,144.667L-92.953,144.633L-92.884,144.6L-92.816,144.622L-92.748,144.589L-92.679,144.522L-92.611,144.522L-92.542,144.467L-92.474,144.456L-92.405,144.433L-92.337,144.533L-92.268,144.544L-92.2,144.522L-92.132,144.544L-92.063,144.689L-91.995,144.711L-91.926,144.844L-91.858,144.989L-91.789,144.956L-91.721,144.933L-91.652,144.878L-91.584,144.833L-91.516,144.756L-91.447,144.678L-91.379,144.656L-91.31,144.633L-91.242,144.522L-91.173,144.433L-91.105,144.389L-91.036,144.356L-90.968,144.422L-90.899,144.433L-90.831,144.444L-90.763,144.356L-90.694,144.389L-90.626,144.489L-90.557,144.5L-90.489,144.511L-90.42,144.456L-90.352,144.5L-90.283,144.367L-90.215,144.378L-90.147,144.422L-90.078,144.433L-90.01,144.389L-89.941,144.3L-89.873,144.178L-89.804,144.011L-89.736,143.933L-89.667,143.956L-89.599,143.889L-89.531,144L-89.462,144.056L-89.394,144.222L-89.325,144.244L-89.257,144.289L-89.188,144.367L-89.12,144.333L-89.051,144.456L-88.983,144.522L-88.915,144.511L-88.846,144.556L-88.778,144.578L-88.709,144.678L-88.641,144.711L-88.572,144.711L-88.504,144.7L-88.435,144.722L-88.367,144.811L-88.299,144.778L-88.23,144.822L-88.162,144.811L-88.093,144.844L-88.025,144.811L-87.956,144.778L-87.888,144.811L-87.819,144.9L-87.751,144.967L-87.683,145.044L-87.614,144.978L-87.546,145.111L-87.477,144.978L-87.409,144.978L-87.34,145.033L-87.272,145.111L-87.203,145.156L-87.135,145.189L-87.067,145.322L-86.998,145.3L-86.93,145.378L-86.861,145.456L-86.793,145.5L-86.724,145.511L-86.656,145.489L-86.587,145.556L-86.519,145.656L-86.45,145.656L-86.382,145.711L-86.314,145.7L-86.245,145.789L-86.177,145.811L-86.108,145.933L-86.04,145.944L-85.971,146.044L-85.903,146.078L-85.834,146.089L-85.766,146.056L-85.698,146.078L-85.629,146.078L-85.561,146.178L-85.492,146.222L-85.424,146.278L-85.355,146.333L-85.287,146.144L-85.218,146.067L-85.15,145.989L-85.082,146.033L-85.013,146.011L-84.945,145.944L-84.876,145.833L-84.808,145.778L-84.739,145.744L-84.671,145.7L-84.602,145.722L-84.534,145.511L-84.466,145.422L-84.397,145.378L-84.329,145.322L-84.26,145.244L-84.192,145.178L-84.123,145.178L-84.055,145.044L-83.986,145.044L-83.918,144.922L-83.85,144.822L-83.781,144.844L-83.713,144.867L-83.644,144.822L-83.576,144.789L-83.507,144.744L-83.439,144.644L-83.37,144.689L-83.302,144.611L-83.234,144.689L-83.165,144.811L-83.097,144.922L-83.028,144.878L-82.96,144.844L-82.891,144.889L-82.823,145L-82.754,145L-82.686,145.1L-82.617,145.2L-82.549,145.222L-82.481,145.411L-82.412,145.411L-82.344,145.389L-82.275,145.411L-82.207,145.456L-82.138,145.444L-82.07,145.4L-82.001,145.456L-81.933,145.411L-81.865,145.4L-81.796,145.5L-81.728,145.522L-81.659,145.444L-81.591,145.444L-81.522,145.478L-81.454,145.544L-81.385,145.644L-81.317,145.711L-81.249,145.878L-81.18,145.989L-81.112,146.022L-81.043,146.056L-80.975,146.156L-80.906,146.267L-80.838,146.289L-80.769,146.222L-80.701,146.256L-80.633,146.111L-80.564,146.033L-80.496,145.922L-80.427,145.811L-80.359,145.733L-80.29,145.733L-80.222,145.733L-80.153,145.667L-80.085,145.611L-80.017,145.622L-79.948,145.444L-79.88,145.4L-79.811,145.456L-79.743,145.433L-79.674,145.433L-79.606,145.433L-79.537,145.433L-79.469,145.356L-79.401,145.222L-79.332,145.067L-79.264,144.878L-79.195,144.711L-79.127,144.456L-79.058,144.222L-78.99,143.956L-78.921,143.811L-78.85,143.667L-78.782,143.522L-78.713,143.3L-78.645,143.178L-78.576,143.089L-78.508,143.067L-78.439,143.144L-78.371,143.156L-78.303,143.156L-78.234,143.222L-78.166,143.144L-78.097,143.156L-78.029,143.167L-77.96,143.178L-77.892,143.367L-77.823,143.433L-77.755,143.333L-77.687,143.289L-77.618,143.267L-77.55,143.289L-77.481,143.289L-77.413,143.333L-77.344,143.356L-77.276,143.5L-77.207,143.489L-77.139,143.467L-77.07,143.511L-77.002,143.633L-76.934,143.833L-76.865,143.9L-76.797,143.911L-76.728,143.922L-76.66,144.089L-76.591,144.122L-76.523,144.122L-76.454,144.156L-76.386,144.111L-76.318,144.111L-76.249,144.1L-76.181,144L-76.112,143.922L-76.044,143.956L-75.975,144.078L-75.907,144.056L-75.838,143.933L-75.77,143.889L-75.702,143.978L-75.633,143.956L-75.565,143.933L-75.496,143.889L-75.428,143.889L-75.359,143.889L-75.291,143.978L-75.222,143.911L-75.154,144L-75.086,144.089L-75.017,144.022L-74.949,143.989L-74.88,143.989L-74.812,143.844L-74.743,143.911L-74.675,143.989L-74.606,144.044L-74.538,144.022L-74.47,144.122L-74.401,144.033L-74.333,143.967L-74.264,143.844L-74.196,143.822L-74.127,143.844L-74.059,143.889L-73.99,143.878L-73.922,143.789L-73.854,143.778L-73.785,143.878L-73.717,143.789L-73.648,143.678L-73.58,143.756L-73.511,143.744L-73.443,143.844L-73.374,143.8L-73.306,143.811L-73.238,143.767L-73.169,143.778L-73.101,143.822L-73.032,143.744L-72.964,143.878L-72.895,143.922L-72.827,143.8L-72.758,143.811L-72.69,143.878L-72.621,143.922L-72.553,143.833L-72.485,143.911L-72.416,143.878L-72.348,143.967L-72.279,144.022L-72.211,144.133L-72.142,144.222L-72.074,144.189L-72.005,144.144L-71.937,144.122L-71.869,144.111L-71.8,144.022L-71.732,143.944L-71.663,144.078L-71.595,144.167L-71.526,144.189L-71.458,144.2L-71.389,144.122L-71.321,144.089L-71.253,144.078L-71.184,144.122L-71.116,144.156L-71.047,144.133L-70.979,144.122L-70.91,144.089L-70.842,144.111L-70.773,144.189L-70.705,144.333L-70.637,144.167L-70.568,144.033L-70.5,143.967L-70.431,143.9L-70.363,143.867L-70.294,143.833L-70.229,143.833L-70.16,143.911L-70.092,143.911L-70.023,144.011L-69.955,144L-69.886,143.967L-69.818,143.9L-69.75,143.878L-69.681,143.789L-69.613,143.667L-69.544,143.656L-69.476,143.522L-69.407,143.444L-69.339,143.467L-69.27,143.533L-69.202,143.533L-69.134,143.333L-69.065,143.256L-68.997,143.189L-68.928,143.133L-68.86,143.056L-68.791,142.922L-68.723,142.789L-68.654,142.6L-68.586,142.556L-68.518,142.533L-68.449,142.544L-68.381,142.6L-68.312,142.511L-68.244,142.511L-68.175,142.556L-68.107,142.556L-68.038,142.489L-67.97,142.433L-67.902,142.6L-67.833,142.489L-67.765,142.544L-67.696,142.622L-67.628,142.711L-67.559,142.722L-67.491,142.689L-67.422,142.711L-67.354,142.667L-67.286,142.622L-67.217,142.522L-67.149,142.422L-67.08,142.567L-67.012,142.456L-66.943,142.444L-66.875,142.478L-66.806,142.5L-66.738,142.5L-66.67,142.567L-66.601,142.722L-66.533,142.589L-66.464,142.611L-66.396,142.589L-66.327,142.578L-66.259,142.622L-66.19,142.544L-66.122,142.378L-66.054,142.267L-65.985,142.311L-65.917,142.144L-65.848,141.922L-65.78,142.056L-65.711,142.078L-65.643,142L-65.574,142L-65.506,142.178L-65.437,142.111L-65.369,142.067L-65.301,142.1L-65.232,142.1L-65.164,142.111L-65.095,142.078L-65.027,142.067L-64.958,142.189L-64.89,142.2L-64.821,142.222L-64.753,142.289L-64.685,142.256L-64.616,142.244L-64.548,142.156L-64.479,142.356L-64.411,142.433L-64.342,142.611L-64.274,142.567L-64.205,142.567L-64.137,142.6L-64.069,142.756L-64,142.822L-63.932,142.878L-63.863,143.056L-63.795,143.167L-63.726,143.211L-63.658,143.078L-63.589,143.2L-63.521,143.167L-63.453,143.067L-63.384,143.156L-63.316,143.244L-63.247,143.378L-63.179,143.378L-63.11,143.422L-63.042,143.511L-62.973,143.544L-62.905,143.6L-62.837,143.633L-62.768,143.556L-62.7,143.522L-62.631,143.689L-62.563,143.822L-62.494,143.811L-62.426,143.844L-62.357,143.733L-62.289,143.611L-62.221,143.622L-62.152,143.622L-62.084,143.711L-62.015,143.678L-61.947,143.656L-61.878,143.656L-61.81,143.678L-61.741,143.6L-61.673,143.611L-61.604,143.733L-61.536,143.744L-61.468,143.8L-61.399,143.878L-61.331,143.8L-61.262,143.844L-61.194,143.8L-61.125,143.878L-61.057,143.878L-60.988,143.944L-60.92,143.911L-60.852,143.789L-60.783,143.533L-60.715,143.5L-60.646,143.556L-60.578,143.433L-60.509,143.3L-60.441,143.267L-60.372,143.244L-60.304,143.244L-60.236,143.256L-60.167,143.189L-60.099,143.144L-60.03,142.967L-59.962,142.944L-59.893,142.811L-59.825,142.678L-59.756,142.656L-59.688,142.767L-59.62,142.678L-59.551,142.567L-59.483,142.467L-59.414,142.4L-59.346,142.322L-59.277,142.389L-59.209,142.289L-59.14,142.322L-59.072,142.322L-59.004,142.267L-58.935,142.233L-58.867,142.211L-58.798,142.311L-58.73,142.556L-58.661,142.633L-58.593,142.533L-58.524,142.6L-58.456,142.567L-58.388,142.556L-58.319,142.422L-58.251,142.422L-58.182,142.344L-58.114,142.389L-58.045,142.422L-57.977,142.433L-57.908,142.4L-57.84,142.556L-57.772,142.656L-57.703,142.7L-57.635,142.667L-57.566,142.733L-57.498,142.8L-57.429,142.856L-57.361,142.967L-57.292,142.978L-57.224,142.933L-57.155,142.944L-57.087,142.911L-57.019,142.8L-56.95,142.833L-56.882,142.744L-56.813,142.811L-56.745,142.689L-56.676,142.556L-56.608,142.644L-56.539,142.7L-56.471,142.656L-56.403,142.733L-56.334,142.744L-56.266,142.856L-56.197,142.844L-56.129,142.833L-56.06,142.856L-55.992,142.822L-55.923,142.989L-55.855,143.033L-55.787,143.1L-55.718,143.022L-55.65,142.922L-55.581,143L-55.513,142.944L-55.444,142.844L-55.376,142.844L-55.307,142.833L-55.239,142.911L-55.171,142.844L-55.102,142.811L-55.034,142.778L-54.965,142.8L-54.897,142.767L-54.828,142.867L-54.76,142.933L-54.691,143.044L-54.623,143.211L-54.555,143.011L-54.486,142.944L-54.418,142.978L-54.349,143.022L-54.281,143.056L-54.212,143.1L-54.144,143.111L-54.075,143.2L-54.007,143.222L-53.936,143.156L-53.867,143.056L-53.799,142.989L-53.73,142.878L-53.662,142.944L-53.593,142.878L-53.525,142.922L-53.457,143.011L-53.388,143.144L-53.32,143.167L-53.251,143.033L-53.183,142.867L-53.114,142.944L-53.046,142.978L-52.977,143L-52.909,143.089L-52.841,143.122L-52.772,143.133L-52.704,142.967L-52.635,142.867L-52.567,142.8L-52.498,142.978L-52.43,143.078L-52.361,143L-52.293,142.967L-52.225,142.989L-52.156,142.911L-52.088,143.044L-52.019,143.033L-51.951,142.989L-51.882,142.989L-51.814,142.856L-51.745,142.822L-51.677,142.656L-51.608,142.578L-51.54,142.778L-51.472,142.689L-51.403,142.633L-51.335,142.511L-51.266,142.444L-51.198,142.5L-51.129,142.567L-51.061,142.522L-50.992,142.533L-50.924,142.456L-50.856,142.178L-50.787,142.156L-50.719,142.056L-50.65,141.978L-50.582,141.956L-50.513,141.933L-50.445,141.933L-50.376,141.856L-50.308,141.978L-50.24,141.922L-50.171,141.844L-50.103,141.911L-50.034,141.933L-49.966,141.911L-49.897,141.933L-49.829,141.978L-49.76,142.044L-49.692,142.233L-49.624,142.344L-49.555,141.978L-49.487,141.7L-49.418,141.444L-49.35,141.178L-49.281,141L-49.213,140.867L-49.144,140.722L-49.076,140.422L-49.008,140.133L-48.939,139.856L-48.871,139.556L-48.802,139.378L-48.734,139.211L-48.665,139.011L-48.597,138.867L-48.528,138.822L-48.46,138.544L-48.392,138.389L-48.323,138.311L-48.255,138.2L-48.186,138.122L-48.118,138.122L-48.049,138.011L-47.981,137.922L-47.912,137.9L-47.844,137.722L-47.775,137.744L-47.707,137.778L-47.639,137.578L-47.57,137.633L-47.502,138L-47.433,138.1L-47.365,138.233L-47.296,138.533L-47.228,138.789L-47.159,138.956L-47.091,139.033L-47.023,139.367L-46.954,139.611L-46.886,139.744L-46.817,139.956L-46.749,140.289L-46.68,140.456L-46.612,140.556L-46.543,140.711L-46.475,140.633L-46.407,140.944L-46.338,141.044L-46.27,141.167L-46.201,141.144L-46.133,141.111L-46.064,141.111L-45.996,140.978L-45.927,140.822L-45.859,140.822L-45.791,140.989L-45.722,140.944L-45.654,140.978L-45.585,141.078L-45.517,140.989L-45.448,140.878L-45.38,140.956L-45.314,141.111L-45.246,141.022L-45.177,141L-45.109,140.867L-45.04,140.789L-44.972,140.544L-44.904,140.656L-44.835,140.878L-44.767,141.022L-44.698,141.011L-44.63,141.044L-44.561,141.122L-44.493,141.067L-44.424,141.167L-44.356,141.156L-44.288,141.033L-44.219,141.011L-44.151,140.911L-44.082,140.856L-44.014,140.656L-43.945,140.922L-43.877,140.978L-43.808,140.956L-43.74,140.9L-43.672,140.9L-43.603,140.833L-43.535,140.678L-43.466,140.689L-43.398,140.744L-43.329,140.744L-43.261,140.622L-43.192,140.6L-43.124,140.567L-43.056,140.467L-42.987,140.489L-42.919,140.478L-42.85,140.311L-42.782,140.222L-42.713,140.078L-42.645,140.067L-42.576,139.878L-42.508,139.856L-42.44,140.011L-42.371,139.944L-42.303,139.867L-42.234,139.956L-42.166,139.967L-42.097,139.9L-42.029,139.944L-41.96,140.111L-41.892,139.956L-41.824,139.867L-41.755,139.9L-41.687,139.811L-41.618,139.744L-41.55,139.744L-41.481,139.8L-41.413,139.711L-41.344,139.8L-41.276,139.756L-41.208,139.644L-41.139,139.389L-41.071,139.456L-41.002,139.533L-40.934,139.522L-40.865,139.622L-40.797,139.556L-40.728,139.489L-40.66,139.444L-40.591,139.311L-40.523,139.389L-40.455,139.378L-40.386,139.267L-40.318,139.278L-40.249,139.2L-40.181,139.189L-40.112,139.111L-40.044,139.144L-39.975,139.178L-39.907,139.156L-39.839,139.178L-39.77,139.289L-39.702,139.144L-39.633,139.178L-39.565,139.167L-39.496,139.133L-39.428,139.2L-39.359,139.244L-39.291,139.244L-39.223,139.256L-39.154,139.422L-39.086,139.678L-39.017,139.633L-38.949,139.789L-38.88,139.8L-38.812,139.889L-38.743,139.978L-38.675,140.067L-38.607,140.122L-38.538,140.378L-38.47,140.4L-38.401,140.433L-38.333,140.344L-38.264,140.389L-38.196,140.467L-38.127,140.344L-38.059,140.344L-37.991,140.511L-37.922,140.522L-37.854,140.389L-37.785,140.156L-37.717,140.089L-37.648,140.211L-37.58,140.267L-37.511,140.389L-37.443,140.422L-37.375,140.489L-37.306,140.556L-37.238,140.633L-37.169,140.589L-37.101,140.633L-37.032,140.667L-36.964,140.511L-36.895,140.411L-36.827,140.489L-36.758,140.5L-36.69,140.567L-36.622,140.5L-36.553,140.556L-36.485,140.411L-36.416,140.367L-36.348,140.367L-36.279,140.556L-36.211,140.478L-36.142,140.6L-36.074,140.767L-36.006,140.844L-35.937,140.9L-35.869,140.967L-35.8,141.133L-35.732,141.289L-35.663,141.367L-35.595,141.244L-35.526,141.256L-35.458,141.278L-35.39,141.022L-35.321,140.689L-35.253,140.644L-35.184,140.411L-35.116,140.267L-35.047,140.044L-34.979,139.878L-34.91,139.778L-34.842,139.722L-34.774,139.567L-34.705,139.411L-34.637,139.3L-34.568,139.156L-34.5,139.133L-34.431,139.067L-34.363,139.022L-34.294,138.889L-34.226,138.722L-34.158,138.722L-34.089,138.567L-34.021,138.389L-33.952,138.144L-33.884,138.033L-33.815,137.844L-33.747,137.767L-33.678,137.744L-33.61,137.7L-33.542,137.678L-33.473,137.456L-33.405,137.233L-33.336,137.444L-33.268,137.467L-33.199,137.389L-33.131,137.378L-33.062,137.3L-32.994,137.322L-32.926,137.278L-32.857,137.344L-32.789,137.156L-32.72,137.211L-32.652,137.267L-32.583,137.233L-32.515,137.244L-32.446,137.278L-32.378,137.356L-32.309,137.356L-32.241,137.211L-32.173,137.2L-32.104,137.167L-32.036,137.144L-31.967,137.211L-31.899,137.3L-31.83,137.167L-31.762,137.233L-31.693,137.267L-31.625,137.3L-31.557,137.111L-31.488,137.178L-31.42,137.1L-31.351,137.222L-31.283,137.111L-31.214,137.189L-31.146,136.989L-31.077,136.967L-31.009,137.211L-30.941,137.178L-30.872,137.344L-30.804,137.544L-30.735,137.578L-30.667,137.367L-30.598,137.156L-30.53,137.144L-30.461,137.122L-30.393,136.978L-30.325,136.922L-30.256,136.956L-30.188,137.189L-30.119,136.889L-30.051,136.956L-29.982,136.878L-29.914,136.689L-29.845,136.644L-29.777,136.678L-29.709,136.544L-29.64,136.411L-29.572,136.267L-29.503,136.233L-29.435,136.256L-29.366,136.478L-29.298,136.533L-29.229,136.822L-29.161,136.622L-29.093,136.811L-29.021,136.722L-28.953,136.622L-28.884,136.667L-28.816,136.556L-28.747,136.233L-28.679,136.211L-28.611,136.456L-28.542,136.722L-28.474,136.7L-28.405,136.589L-28.337,136.611L-28.268,136.633L-28.2,136.467L-28.131,136.322L-28.063,136.622L-27.995,136.478L-27.926,136.522L-27.858,136.5L-27.789,136.444L-27.721,136.467L-27.652,136.622L-27.584,136.733L-27.515,136.789L-27.447,136.922L-27.379,136.867L-27.31,136.722L-27.242,136.633L-27.173,136.344L-27.105,136.589L-27.036,136.667L-26.968,136.689L-26.899,136.589L-26.831,136.511L-26.762,136.378L-26.694,136.544L-26.626,136.678L-26.557,136.7L-26.489,136.689L-26.42,136.633L-26.352,136.811L-26.283,136.689L-26.215,136.567L-26.146,136.667L-26.078,136.733L-26.01,136.644L-25.941,136.678L-25.873,136.711L-25.804,136.933L-25.736,137.033L-25.667,136.722L-25.599,136.611L-25.53,136.611L-25.462,136.689L-25.394,136.689L-25.325,136.567L-25.257,136.367L-25.188,136.222L-25.12,136.278L-25.051,136.278L-24.983,136.078L-24.914,136.011L-24.846,135.789L-24.778,135.833L-24.709,135.922L-24.641,135.867L-24.572,135.567L-24.504,135.511L-24.435,135.333L-24.367,135.311L-24.298,135.167L-24.23,135.144L-24.162,135.189L-24.093,135.144L-24.025,135.144L-23.956,135.178L-23.888,135.078L-23.819,135.011L-23.751,134.911L-23.682,134.922L-23.614,135.2L-23.546,135.267L-23.477,135.244L-23.409,135.033L-23.34,135.022L-23.272,134.956L-23.203,135.044L-23.135,135.067L-23.066,135.067L-22.998,134.867L-22.93,134.744L-22.861,134.789L-22.793,135.067L-22.724,134.967L-22.656,134.811L-22.587,134.633L-22.519,134.633L-22.45,134.211L-22.382,134.256L-22.313,134.3L-22.245,134.4L-22.177,134.578L-22.108,134.467L-22.04,134.567L-21.971,134.311L-21.903,134.211L-21.834,134.3L-21.766,134.3L-21.697,134.256L-21.629,134.044L-21.561,133.878L-21.492,133.722L-21.424,133.733L-21.355,134.044L-21.287,133.789L-21.218,133.856L-21.15,134.022L-21.081,134.067L-21.013,133.844L-20.945,133.944L-20.876,134.089L-20.808,134.011L-20.739,134.056L-20.671,134.156L-20.602,134.367L-20.534,134.6L-20.465,135.044L-20.4,135.522L-20.331,135.511L-20.263,135.5L-20.195,135.567L-20.126,135.467L-20.058,135.467L-19.989,135.289L-19.921,135.5L-19.852,135.5L-19.784,135.433L-19.715,135.489L-19.647,135.544L-19.578,135.422L-19.51,135.622L-19.442,135.544L-19.373,135.433L-19.305,135.2L-19.236,135.4L-19.168,135.4L-19.099,135.189L-19.031,135.133L-18.962,135.256L-18.894,135.267L-18.826,135.111L-18.757,135.133L-18.689,134.944L-18.62,134.633L-18.552,134.522L-18.483,134.344L-18.415,134L-18.346,133.8L-18.278,133.811L-18.21,133.767L-18.141,133.344L-18.073,133.289L-18.004,133.089L-17.936,133.078L-17.867,132.989L-17.799,132.822L-17.73,132.789L-17.662,132.244L-17.594,131.867L-17.525,131.889L-17.457,131.589L-17.388,131.567L-17.32,131.5L-17.251,131.522L-17.183,131.378L-17.114,131.256L-17.046,131.3L-16.978,131.256L-16.909,131.156L-16.841,130.889L-16.772,130.978L-16.704,130.722L-16.635,130.767L-16.567,130.856L-16.498,130.567L-16.43,130.411L-16.362,130.489L-16.293,130.322L-16.225,130.033L-16.156,129.944L-16.088,130.067L-16.019,129.822L-15.951,129.856L-15.882,129.867L-15.814,129.767L-15.745,129.789L-15.677,129.611L-15.609,129.722L-15.54,129.778L-15.472,129.911L-15.403,130.011L-15.335,130.089L-15.266,129.922L-15.198,129.567L-15.129,129.433L-15.061,129.356L-14.993,129.278L-14.924,129.133L-14.856,129.156L-14.787,128.989L-14.719,128.867L-14.65,129.078L-14.582,129.033L-14.513,129.189L-14.445,129.556L-14.377,129.711L-14.308,129.7L-14.24,129.967L-14.171,130.311L-14.103,130.367L-14.034,130.1L-13.966,130.333L-13.897,130.444L-13.829,130.222L-13.761,130.222L-13.692,130.322L-13.624,130.656L-13.555,131.044L-13.487,131.156L-13.418,131.267L-13.35,131.167L-13.281,131.278L-13.213,131.333L-13.145,131.644L-13.076,131.944L-13.008,132.2L-12.939,132.333L-12.871,132.556L-12.802,132.567L-12.734,132.856L-12.665,132.878L-12.597,132.967L-12.529,132.844L-12.46,132.689L-12.392,132.489L-12.323,132.378L-12.255,132.322L-12.186,132.144L-12.118,132.022L-12.049,132.089L-11.981,132.478L-11.913,132.344L-11.844,132.333L-11.776,132.767L-11.707,132.9L-11.639,132.978L-11.57,132.933L-11.502,132.856L-11.433,132.933L-11.365,132.656L-11.296,132.733L-11.228,132.756L-11.16,132.967L-11.091,132.889L-11.023,132.856L-10.954,132.733L-10.886,132.656L-10.817,132.589L-10.749,132.744L-10.68,132.878L-10.612,132.922L-10.544,132.778L-10.475,132.8L-10.407,132.789L-10.338,132.956L-10.27,132.989L-10.201,133.122L-10.133,133.067L-10.064,132.878L-9.996,132.689L-9.928,132.644L-9.859,132.733L-9.791,132.678L-9.722,132.556L-9.654,132.444L-9.585,132.256L-9.517,131.9L-9.448,131.9L-9.38,131.833L-9.312,131.956L-9.243,131.833L-9.175,131.556L-9.106,131.156L-9.038,130.833L-8.969,130.433L-8.901,130.411L-8.832,130.267L-8.764,130.178L-8.696,130.044L-8.627,129.789L-8.559,129.433L-8.49,129.444L-8.422,129.467L-8.353,129.522L-8.285,129.556L-8.216,129.722L-8.148,129.6L-8.08,129.578L-8.011,129.633L-7.943,129.922L-7.874,129.9L-7.806,129.789L-7.737,129.756L-7.669,129.711L-7.6,129.467L-7.532,129.578L-7.463,129.6L-7.395,129.478L-7.327,129.4L-7.258,129.233L-7.19,129.278L-7.121,129.322L-7.053,129.633L-6.984,129.956L-6.916,130.156L-6.847,130.078L-6.779,130.1L-6.711,130.144L-6.642,129.744L-6.574,129.833L-6.505,130.3L-6.437,130.344L-6.368,130.344L-6.3,130.267L-6.231,129.933L-6.163,129.711L-6.095,129.511L-6.026,129.433L-5.958,129.2L-5.889,128.911L-5.821,128.711L-5.752,128.633L-5.684,128.5L-5.615,128.489L-5.547,128.756L-5.479,128.633L-5.41,128.6L-5.342,128.522L-5.273,128.522L-5.205,128.3L-5.136,128.233L-5.068,128.289L-4.999,128.167L-4.931,128.133L-4.863,127.7L-4.794,127.689L-4.726,127.744L-4.657,127.856L-4.589,128.189L-4.52,128.056L-4.452,127.811L-4.383,127.822L-4.315,127.822L-4.247,127.756L-4.178,127.778L-4.107,127.944L-4.038,127.989L-3.97,128.033L-3.901,128.233L-3.833,128.056L-3.765,127.878L-3.696,127.878L-3.628,128.089L-3.559,128.156L-3.491,128.233L-3.422,128.311L-3.354,128.333L-3.285,128.211L-3.217,128.044L-3.149,128.189L-3.08,128.233L-3.012,128.256L-2.943,128.344L-2.875,128.211L-2.806,128.322L-2.738,128.311L-2.669,128.156L-2.601,128.056L-2.533,127.856L-2.464,127.833L-2.396,127.833L-2.327,127.689L-2.259,127.811L-2.19,128.022L-2.122,128.089L-2.053,128.022L-1.985,127.944L-1.916,128.033L-1.848,127.733L-1.78,127.922L-1.711,128.333L-1.643,128.367L-1.574,128.111L-1.506,127.778L-1.437,127.633L-1.369,127.544L-1.3,127.667L-1.232,127.711L-1.164,127.956L-1.095,128.167L-1.027,128.178L-0.958,127.811L-0.89,127.344L-0.821,127.511L-0.753,127.878L-0.684,127.889L-0.616,128.089L-0.548,127.633L-0.479,127.1L-0.411,126.8L-0.342,126.3L-0.274,125.944L-0.205,125.633L-0.137,125.5L-0.068,125.567L0,125.544L0.068,125.633L0.137,125.489L0.205,125.933L0.274,125.956L0.342,125.922L0.411,126.056L0.479,126.222L0.548,126.011L0.616,125.978L0.684,126L0.753,125.844L0.821,126.078L0.89,125.9L0.958,125.822L1.027,125.756L1.095,126.011L1.164,126.433L1.232,126.333L1.3,126.367L1.369,126.489L1.437,126.4L1.506,126.556L1.574,127.244L1.643,127.533L1.711,128.078L1.78,128.289L1.848,128.333L1.916,128.178L1.985,127.744L2.053,127.644L2.122,127.622L2.19,127.689L2.259,127.433L2.327,127.389L2.396,127.111L2.464,126.844L2.533,126.533L2.601,126.956L2.669,126.844L2.738,126.689L2.806,126.656L2.875,126.378L2.943,126.189L3.012,126.1L3.08,126.144L3.149,126.144L3.217,125.878L3.285,125.522L3.354,125.289L3.422,124.8L3.491,124.833L3.559,124.9L3.628,124.611L3.696,124.556L3.765,124.567L3.833,124.556L3.901,124.233L3.97,124.233L4.038,124.333L4.107,124.078L4.175,123.889L4.244,123.656L4.312,123.556L4.381,123.1L4.449,123.244L4.517,123.389L4.586,123.567L4.654,123.233L4.723,123.133L4.791,123.2L4.86,122.967L4.928,123.022L4.994,123.178L5.062,123.233L5.131,123.044L5.199,122.633L5.268,122.544L5.336,122.656L5.404,122.5L5.473,122.678L5.541,122.3L5.61,122.489L5.678,122.611L5.747,122.678L5.815,122.356L5.884,122.389L5.952,122.944L6.02,123.056L6.089,123.256L6.157,123.478L6.226,123.578L6.294,123.433L6.363,123.3L6.431,123.478L6.5,123.367L6.568,123.067L6.636,122.911L6.705,122.711L6.773,122.733L6.842,122.478L6.91,122.578L6.979,122.367L7.047,122.111L7.116,121.933L7.184,121.8L7.252,121.844L7.321,121.933L7.389,122.122L7.458,122.267L7.526,122.078L7.595,122.289L7.663,122.033L7.732,121.722L7.8,121.633L7.868,121.856L7.937,121.956L8.005,121.511L8.074,121.2L8.142,121.089L8.211,121.044L8.279,120.944L8.348,121.144L8.416,121.1L8.484,121.111L8.553,120.933L8.621,120.889L8.69,120.789L8.758,120.811L8.827,120.644L8.895,120.578L8.964,120.544L9.032,120.544L9.101,120.511L9.169,120.289L9.237,120.533L9.306,120.656L9.374,120.522L9.443,120.456L9.511,120.222L9.58,120.367L9.648,120.3L9.717,120.2L9.785,120.211L9.853,120.1L9.922,119.944L9.99,119.622L10.059,119.711L10.127,119.678L10.196,119.367L10.264,118.922L10.333,119.011L10.401,119.222L10.469,119.556L10.538,119.589L10.606,120.056L10.675,120.233L10.743,120.422L10.812,120.667L10.88,121.044L10.949,121.344L11.017,121.567L11.085,121.767L11.154,122.022L11.222,122.467L11.291,122.711L11.359,122.922L11.428,123L11.496,122.922L11.565,123.167L11.633,123.289L11.701,123.5L11.77,123.578L11.838,123.922L11.907,124.333L11.975,124.656L12.044,124.667L12.112,124.767L12.181,124.933L12.249,125.178L12.317,125.6L12.386,125.722L12.454,125.522L12.523,125.333L12.591,125.467L12.66,125.156L12.728,125.056L12.797,125.178L12.865,125.089L12.933,124.844L13.002,124.622L13.07,124.756L13.139,124.567L13.207,124.678L13.276,124.633L13.344,124.433L13.413,124.311L13.481,124.278L13.55,124.311L13.618,124.489L13.686,124.644L13.755,124.444L13.823,124.567L13.892,124.589L13.96,124.633L14.029,124.522L14.097,124.644L14.166,124.467L14.234,124.678L14.302,124.9L14.371,124.922L14.439,125.067L14.508,125.1L14.576,125.011L14.645,125.122L14.713,125.2L14.782,125.422L14.85,125.444L14.918,125.3L14.987,125.211L15.055,125.2L15.124,124.767L15.192,124.767L15.261,124.667L15.329,124.422L15.398,124L15.466,123.767L15.534,123.689L15.603,123.578L15.671,122.989L15.74,122.6L15.808,122.6L15.877,122.189L15.945,121.856L16.014,121.278L16.082,120.8L16.15,120.7L16.219,120.678L16.287,120.256L16.356,119.644L16.424,119.478L16.493,118.956L16.561,118.7L16.63,118.644L16.698,118.244L16.766,117.911L16.835,117.533L16.903,117.422L16.972,117.489L17.04,117.389L17.109,117.533L17.177,117.567L17.246,117.478L17.314,117.167L17.383,117.4L17.451,117.511L17.519,117.7L17.588,118.044L17.656,118.111L17.725,118.422L17.793,118.256L17.862,118.189L17.93,118.4L17.999,118.233L18.067,118.644L18.135,119.056L18.204,119.211L18.272,119.233L18.341,119.222L18.409,119.444L18.478,119.289L18.546,119.467L18.615,119.556L18.683,119.733L18.751,119.556L18.82,119.667L18.888,119.956L18.957,119.656L19.025,119.489L19.094,119.5L19.162,119.311L19.231,119.544L19.299,119.167L19.367,119.178L19.436,119.133L19.504,119.244L19.573,119.222L19.641,118.789L19.71,118.644L19.778,118.456L19.847,118.778L19.915,118.6L19.983,118.433L20.052,118.6L20.12,118.189L20.189,117.922L20.257,117.811L20.326,117.678L20.394,117.844L20.463,117.811L20.531,117.967L20.599,117.8L20.668,117.411L20.736,117.111L20.805,117.433L20.873,117.622L20.942,117.433L21.01,117.778L21.079,117.611L21.147,117.367L21.215,117.356L21.287,117.078L21.355,117.311L21.424,117.689L21.492,117.511L21.561,117.344L21.629,116.911L21.697,116.878L21.766,116.744L21.834,116.856L21.903,116.689L21.971,116.856L22.04,116.956L22.108,116.4L22.177,116.3L22.245,116.444L22.313,116.433L22.382,116.711L22.45,116.778L22.519,116.656L22.587,116.611L22.656,116.556L22.724,116.922L22.793,116.989L22.861,116.644L22.93,116.522L22.998,116.389L23.066,115.4L23.135,115.811L23.203,116.167L23.272,116.144L23.34,116.222L23.409,116.311L23.477,115.711L23.546,115.156L23.614,115.3L23.682,115.544L23.751,115.7L23.819,115.433L23.888,115.256L23.956,115.133L24.025,114.833L24.093,114.667L24.162,115.178L24.23,115.144L24.298,114.867L24.367,114.6L24.435,114.256L24.504,113.711L24.572,113.889L24.641,113.689L24.709,113.678L24.778,113.311L24.846,113.167L24.914,113.044L24.983,112.644L25.051,112.778L25.12,113.478L25.188,113.433L25.257,113.378L25.325,113.367L25.394,113.267L25.462,112.722L25.53,112.867L25.599,113.389L25.667,113.111L25.736,113.178L25.804,113.444L25.873,113.822L25.941,113.9L26.01,114.078L26.078,114.5L26.146,114.578L26.215,114.744L26.283,114.933L26.352,114.911L26.42,115.056L26.489,115.233L26.557,115.722L26.626,115.656L26.694,116.033L26.762,116.167L26.831,116.3L26.899,116.356L26.968,116.7L27.036,116.9L27.105,116.978L27.173,117.111L27.242,117.156L27.31,117.144L27.379,117.144L27.447,117.356L27.515,117.944L27.584,118.122L27.652,118.222L27.721,118.3L27.789,118.156L27.858,117.411L27.926,117.222L27.995,117.056L28.063,116.844L28.131,116.411L28.2,116.244L28.268,115.833L28.337,115.267L28.405,115.322L28.474,115.522L28.542,115.644L28.611,115.967L28.679,116.244L28.747,115.856L28.816,115.678L28.884,115.9L28.953,115.956L29.021,115.811L29.09,115.844L29.158,115.989L29.227,115.667L29.295,115.167L29.363,115.033L29.432,115.022L29.5,114.878L29.569,114.944L29.637,114.922L29.706,114.6L29.774,114.556L29.843,114.589L29.908,115.189L29.977,115.744L30.045,116.233L30.114,116.433L30.182,116.667L30.25,116.578L30.319,117.089L30.387,117.878L30.456,118.189L30.524,118.211L30.593,117.889L30.661,117.167L30.73,116.744L30.798,116.744L30.866,117.056L30.935,117.144L31.003,117.744L31.072,117.889L31.14,117.633L31.209,116.778L31.277,116.722L31.346,117.122L31.414,117.3L31.482,117.222L31.551,117.011L31.619,116.556L31.688,116.322L31.756,116.267L31.825,116.278L31.893,116.244L31.962,115.8L32.03,115.144L32.098,114.8L32.167,114.278L32.235,113.878L32.304,113.989L32.372,113.778L32.441,113.344L32.509,113.133L32.578,112.967L32.646,113.033L32.714,113.178L32.783,113.067L32.851,112.978L32.92,112.633L32.988,112.5L33.057,111.856L33.125,111.556L33.194,111.667L33.262,112.167L33.33,112.289L33.399,112.056L33.467,111.644L33.536,111.589L33.604,111.356L33.673,111.711L33.741,111.989L33.81,112.156L33.878,112.422L33.946,112.378L34.015,112.222L34.083,112L34.152,111.933L34.22,112.133L34.289,112.278L34.357,112.289L34.426,111.933L34.494,111.878L34.563,111.467L34.631,111.067L34.699,111.022L34.768,110.7L34.836,110.722L34.905,110.744L34.973,110.744L35.042,110.2L35.11,109.933L35.179,110.044L35.247,110.156L35.315,110.2L35.384,110.333L35.452,110.578L35.521,110.978L35.589,111.311L35.658,111.6L35.726,111.667L35.795,111.411L35.863,111.5L35.931,111.3L36,111.267L36.068,111.6L36.137,111.989L36.205,112.133L36.274,112.333L36.342,112.511L36.411,112.533L36.479,112.678L36.547,113.056L36.616,113.722L36.684,114L36.753,114.089L36.821,114.422L36.89,114.656L36.958,114.756L37.027,114.956L37.095,115.256L37.163,115.611L37.232,115.556L37.3,115.711L37.369,115.678L37.437,115.711L37.506,115.733L37.574,115.689L37.643,115.844L37.711,116.1L37.779,116.1L37.848,116.511L37.916,116.411L37.985,116.644L38.053,117.133L38.122,117.2L38.19,117.389L38.259,117.644L38.327,117.778L38.396,117.811L38.464,117.889L38.532,118.222L38.601,117.944L38.669,117.611L38.738,117.689L38.806,117.789L38.875,117.8L38.943,117.967L39.012,118.144L39.08,118.1L39.148,118.3L39.217,118.256L39.285,118.6L39.354,118.311L39.422,118.444L39.491,118.278L39.559,118.289L39.628,118.267L39.696,118.244L39.764,118.356L39.833,118.422L39.901,118.167L39.97,117.922L40.038,117.556L40.107,117.044L40.175,116.756L40.244,116.511L40.312,115.833L40.38,115.589L40.449,115.5L40.517,115.356L40.586,115.067L40.654,115L40.723,114.8L40.791,114.489L40.86,113.822L40.928,113.733L40.996,113.489L41.065,113.533L41.133,113.456L41.202,113.078L41.27,112.611L41.339,112.456L41.407,112.433L41.476,111.989L41.544,111.967L41.612,111.567L41.681,111.344L41.749,111L41.818,110.511L41.886,110.1L41.955,109.956L42.023,110.122L42.092,110.267L42.16,110.233L42.228,110.333L42.297,110.378L42.365,110.244L42.434,110.067L42.502,110.189L42.571,110.267L42.639,110.322L42.708,109.967L42.776,110.122L42.845,110.356L42.913,110.644L42.981,110.622L43.05,110.678L43.118,110.244L43.187,110.033L43.255,110.322L43.324,110.789L43.392,110.444L43.461,110.289L43.529,110.622L43.597,110.444L43.666,110.233L43.734,110.1L43.803,110.022L43.871,110.256L43.94,110.567L44.008,110.444L44.077,110.278L44.145,109.589L44.213,109.733L44.282,110.111L44.35,110.322L44.419,110.844L44.487,111.2L44.556,111.178L44.624,111.056L44.693,111.156L44.761,111.778L44.829,111.756L44.898,111.844L44.966,112.133L45.035,112.222L45.103,112.111L45.172,112.5L45.24,112.7L45.309,112.767L45.377,112.6L45.445,112.911L45.514,113.267L45.582,112.989L45.651,113.311L45.719,113.811L45.788,114.078L45.856,114.033L45.925,114.022L45.993,113.778L46.061,113.744L46.13,114L46.201,114.611L46.27,114.644L46.338,114.622L46.407,114.678L46.475,114.456L46.543,114.156L46.612,114.222L46.68,114.511L46.749,114.611L46.817,114.511L46.886,114.511L46.954,114.4L47.023,114.067L47.091,114.2L47.159,114.3L47.228,114.189L47.296,114.222L47.365,114.056L47.433,113.9L47.502,113.633L47.57,113.733L47.639,114.244L47.707,114.478L47.775,114.689L47.844,114.656L47.912,114.867L47.981,114.867L48.049,115L48.118,115.422L48.186,115.278L48.255,115.289L48.323,115.422L48.392,115.3L48.46,114.8L48.528,115.111L48.597,115.333L48.665,115.089L48.734,115.267L48.802,115.078L48.871,114.933L48.939,114.956L49.008,115.189L49.076,115.489L49.144,115.378L49.213,115.556L49.281,115.7L49.35,115.722L49.418,115.433L49.487,115.556L49.555,115.6L49.624,115.322L49.692,115.189L49.76,114.6L49.829,114.189L49.897,113.878L49.966,113.678L50.034,113.656L50.103,113.689L50.171,113.589L50.24,113.944L50.308,113.889L50.376,113.4L50.445,113.344L50.513,113.578L50.582,113.489L50.65,113.578L50.719,113.767L50.787,113.433L50.856,113.344L50.924,113.589L50.992,113.844L51.061,113.778L51.129,113.689L51.198,113.844L51.266,113.556L51.335,113.4L51.403,113.6L51.472,114.089L51.54,114.444L51.608,114.789L51.677,115.078L51.745,114.711L51.814,114.822L51.882,114.911L51.951,114.911L52.019,115.122L52.088,114.9L52.156,114.756L52.225,114.611L52.293,114.178L52.361,114.144L52.43,114.556L52.498,114.322L52.567,114.456L52.635,114.578L52.704,114.467L52.772,114.133L52.841,113.989L52.909,114.033L52.977,113.933L53.046,113.711L53.114,113.522L53.183,113.433L53.251,112.833L53.32,112.744L53.388,112.7L53.457,112.167L53.525,112.289L53.593,112.1L53.662,111.9L53.73,111.178L53.799,111.556L53.867,111.389L53.936,111.233L54.004,111.767L54.073,111.489L54.141,111.678L54.209,111.6L54.278,111.789L54.346,112.189L54.415,112.522L54.483,112.589L54.552,113L54.62,112.9L54.689,112.489L54.757,112.522L54.823,112.789L54.891,112.978L54.96,113.178L55.028,113.089L55.096,112.956L55.165,112.4L55.233,112.644L55.302,112.922L55.37,113.044L55.439,113.1L55.507,113.444L55.576,113.067L55.644,112.433L55.712,112.256L55.781,112.667L55.849,112.367L55.918,112.8L55.986,113L56.055,112.678L56.123,112.289L56.192,112.067L56.26,112.067L56.328,111.689L56.397,111.167L56.465,110.7L56.534,110.444L56.602,109.8L56.671,109.733L56.739,109.844L56.808,109.611L56.876,109.356L56.944,109.289L57.013,108.944L57.081,108.344L57.15,108.167L57.218,108.789L57.287,108.389L57.355,108.4L57.424,108.178L57.492,108.011L57.56,107.589L57.629,107.633L57.697,107.867L57.766,107.989L57.834,107.978L57.903,107.911L57.971,107.722L58.04,107.7L58.108,107.8L58.176,108.1L58.245,108.111L58.313,107.811L58.382,108.156L58.45,108.278L58.519,107.989L58.587,107.922L58.656,107.767L58.724,107.611L58.792,107.467L58.861,107.356L58.929,107.178L58.998,106.456L59.066,106.367L59.135,106.811L59.203,106.922L59.272,106.7L59.34,106.944L59.409,106.378L59.477,106.178L59.545,105.956L59.614,106L59.682,105.989L59.751,106.122L59.819,106.122L59.888,105.533L59.956,105.478L60.025,105.567L60.093,105.178L60.161,105.211L60.23,105.567L60.298,105.822L60.367,106.256L60.435,106L60.504,106.233L60.572,106.789L60.641,106.922L60.709,107.689L60.777,108.067L60.846,108.2L60.914,108.267L60.983,108.689L61.051,109.322L61.12,109.533L61.188,109.711L61.257,109.911L61.325,110.144L61.393,109.822L61.462,110.244L61.53,110.856L61.599,111.311L61.667,111.733L61.736,111.989L61.804,112.1L61.873,111.778L61.941,112.611L62.009,113.111L62.078,113.156L62.146,113.667L62.215,113.456L62.283,113.356L62.352,113.144L62.42,112.856L62.489,112.911L62.557,112.767L62.625,112.767L62.694,112.9L62.762,112.633L62.831,112.211L62.899,112.522L62.968,112.578L63.036,112.667L63.105,112.9L63.173,113.144L63.242,113.3L63.31,113.156L63.378,113.2L63.447,113.822L63.515,113.956L63.584,113.844L63.652,113.933L63.721,113.678L63.789,113.5L63.858,113.722L63.926,114.167L63.994,114.2L64.063,114.022L64.131,114.011L64.2,114.122L64.268,114.378L64.337,114.444L64.405,114.722L64.474,115.233L64.542,115.467L64.61,115.6L64.679,115.622L64.747,115.444L64.816,115.322L64.884,115.167L64.953,114.844L65.021,114.867L65.09,114.367L65.158,113.733L65.226,113.222L65.295,113.133L65.363,113.089L65.432,112.833L65.5,112.3L65.569,112.067L65.637,111.711L65.706,110.911L65.774,110.689L65.842,110.233L65.911,110.178L65.979,110.078L66.048,109.656L66.116,109.178L66.185,108.7L66.253,108.433L66.322,108.511L66.39,108.567L66.458,108.489L66.527,108.222L66.595,108.133L66.664,107.644L66.732,107.411L66.801,107.433L66.869,107.311L66.938,107.5L67.006,107.389L67.074,107.322L67.143,107.344L67.211,107.478L67.28,107.744L67.348,107.289L67.417,107.3L67.485,107.333L67.554,107.533L67.622,107.789L67.691,107.989L67.759,108.333L67.827,108.756L67.896,109.2L67.964,108.978L68.033,108.789L68.101,108.867L68.17,109.233L68.238,109.444L68.307,109.756L68.375,109.478L68.443,109.378L68.512,109.378L68.58,109.522L68.649,109.511L68.717,109.611L68.786,109.678L68.854,109.333L68.923,109.656L68.991,109.622L69.059,109.4L69.128,109.267L69.196,109.156L69.265,109.656L69.333,109.722L69.402,109.978L69.47,109.989L69.539,109.756L69.607,109.867L69.675,109.967L69.744,110.089L69.812,110.078L69.881,109.833L69.949,109.589L70.018,109.433L70.086,109.411L70.155,109.556L70.223,109.689L70.291,109.522L70.36,109.589L70.428,109.722L70.497,109.344L70.565,109.156L70.634,108.856L70.702,108.967L70.771,109.456L70.839,109.444L70.907,109.744L70.976,109.5L71.044,109.456L71.116,109.756L71.184,109.989L71.253,110.5L71.321,110.144L71.389,109.989L71.458,109.533L71.526,109.567L71.595,110.044L71.663,109.878L71.732,109.822L71.8,109.833L71.869,109.589L71.937,109.367L72.005,109.311L72.074,109.544L72.142,109.811L72.211,109.622L72.279,109.244L72.348,109.422L72.416,108.478L72.485,108.233L72.553,108.233L72.621,108.589L72.69,108.833L72.758,108.644L72.827,108.256L72.895,107.8L72.964,107.578L73.032,107.278L73.101,107.5L73.169,107.578L73.238,107.867L73.306,107.644L73.374,107.3L73.443,107.567L73.511,108.022L73.58,108.144L73.648,108.178L73.717,108.322L73.785,108.211L73.854,107.756L73.922,108.156L73.99,108.3L74.059,108.356L74.127,108.378L74.196,108.3L74.264,108.511L74.333,108.656L74.401,108.933L74.47,109.633L74.538,109.767L74.606,110.078L74.675,110.056L74.743,109.978L74.812,109.578L74.88,109.744L74.949,110.267L75.017,110.833L75.086,111.578L75.154,111.644L75.222,112L75.291,111.333L75.359,111.633L75.428,112.256L75.496,112.111L75.565,112.2L75.633,112.011L75.702,111.533L75.77,111.189L75.838,111.433L75.907,111.867L75.975,112.044L76.044,112.322L76.112,112.689L76.181,112.767L76.249,112.711L76.318,112.678L76.386,113.044L76.454,113.044L76.523,113.022L76.591,113.2L76.66,112.978L76.728,112.056L76.797,112.211L76.865,112.789L76.934,112.811L77.002,112.678L77.07,112.5L77.139,112.133L77.207,111.489L77.276,110.8L77.344,111.367L77.413,111.322L77.481,111.444L77.55,111.544L77.618,111.233L77.687,110.9L77.755,110.956L77.823,111.244L77.892,110.867L77.96,110.833L78.029,110.567L78.097,110.444L78.166,109.9L78.234,109.978L78.303,110.044L78.371,109.933L78.439,109.578L78.508,109.5L78.576,109.078L78.645,108.456L78.713,108.3L78.782,109.222L78.85,109.044L78.919,108.856L78.987,108.833L79.055,108.922L79.124,108.233L79.192,108.167L79.261,108.689L79.329,108.967L79.398,108.944L79.466,108.644L79.535,108.267L79.603,107.411L79.671,107.756L79.737,108.089L79.805,108.367L79.874,108L79.942,108.122L80.011,107.322L80.079,106.556L80.148,106.311L80.216,106.5L80.285,106.211L80.353,106.033L80.422,106.122L80.49,106.056L80.558,105.778L80.627,106.3L80.695,107.056L80.764,107.8L80.832,107.967L80.901,108.3L80.969,108.356L81.038,107.8L81.106,107.789L81.174,108.033L81.243,108.067L81.311,108.156L81.38,108.111L81.448,107.633L81.517,107.533L81.585,107.578L81.654,108.011L81.722,108.056L81.79,107.956L81.859,107.878L81.927,107.711L81.996,107.278L82.064,107.989L82.133,108.589L82.201,108.633L82.27,108.833L82.338,108.744L82.406,108.211L82.475,107.278L82.543,107L82.612,107.022L82.68,106.633L82.749,106.056L82.817,105.622L82.886,105.122L82.954,104.656L83.022,104.244L83.091,104.411L83.159,103.933L83.228,103.733L83.296,103.544L83.365,102.867L83.433,102.089L83.502,101.911L83.57,101.522L83.638,101.189L83.707,100.956L83.775,100.278L83.844,99.733L83.912,99.056L83.981,99.367L84.049,99.711L84.118,99.578L84.186,99.689L84.255,99.622L84.323,99.211L84.391,98.289L84.46,98.7L84.528,99.322L84.597,99.133L84.665,99.133L84.734,98.944L84.802,98.789L84.871,98.044L84.939,97.633L85.007,97.289L85.076,97.378L85.144,97.6L85.213,98.411L85.281,99.1L85.35,99.022L85.418,99.4L85.487,99.978L85.555,100.311L85.623,100.711L85.692,100.956L85.76,101.544L85.829,101.922L85.897,102.5L85.966,103L86.034,103.122L86.103,103.567L86.171,103.9L86.239,104.067L86.308,104.033L86.376,104.367L86.445,105.567L86.513,105.578L86.582,105.911L86.65,106.622L86.719,106.644L86.787,106.733L86.855,107.144L86.924,107.789L86.992,107.878L87.061,108.211L87.129,108.256L87.198,108.311L87.266,107.911L87.335,107.567L87.403,107.511L87.471,107.533L87.54,107.811L87.608,108.022L87.677,108.411L87.745,108L87.814,107.778L87.882,108.033L87.951,108.4L88.019,108.633L88.087,108.878L88.156,108.7L88.224,108.511L88.293,108.311L88.361,108.544L88.43,108.489L88.498,108.556L88.567,108.811L88.635,108.789L88.704,108.333L88.772,108.544L88.84,108.922L88.909,109.1L88.977,109.356L89.046,109.833L89.114,110.156L89.183,110.078L89.251,110.022L89.32,110.156L89.388,110.3L89.456,110.889L89.525,111.222L89.593,111.033L89.662,110.989L89.73,110.656L89.799,111.067L89.867,111.2L89.936,110.844L90.004,110.567L90.072,110.122L90.141,109.211L90.209,108.789L90.278,108.433L90.346,108.444L90.415,108.289L90.483,108.256L90.552,107.733L90.62,107.078L90.688,106.778L90.757,106.6L90.825,106.233L90.894,105.944L90.962,105.622L91.031,105.133L91.099,104.433L91.168,103.944L91.236,103.7L91.304,103.422L91.373,103.111L91.441,102.722L91.51,102.111L91.578,101.422L91.647,101.333L91.715,101.1L91.784,101.022L91.852,101.133L91.92,100.833L91.989,101.033L92.057,100.344L92.126,100.456L92.194,100.589L92.263,100.889L92.331,101.178L92.4,101.222L92.468,101.133L92.537,100.711L92.605,100.911L92.673,101.5L92.742,101.644L92.81,101.844L92.879,101.978L92.947,101.811L93.016,101.533L93.084,101.644L93.153,102.033L93.221,102.011L93.289,102.544L93.358,102.6L93.426,102.478L93.495,102.067L93.563,102.6L93.632,102.856L93.7,102.956L93.769,103.133L93.837,103.178L93.905,103.233L93.974,102.744L94.042,102.422L94.111,102.956L94.179,103.078L94.248,103.533L94.316,103.378L94.385,102.944L94.453,102.489L94.521,102.856L94.59,103.433L94.658,103.6L94.727,103.456L94.795,103.333L94.864,103.356L94.932,102.911L95.001,103.289L95.069,103.444L95.137,103.422L95.206,103.489L95.274,103.733L95.343,103.433L95.411,103.233L95.48,103.578L95.548,104.033L95.617,103.722L95.685,103.322L95.753,103.611L95.822,103.444L95.89,103.133L95.959,103.267L96.03,104.067L96.099,104.589L96.167,104.567L96.235,104.089L96.304,103.867L96.372,103.433L96.441,104.111L96.509,104.5L96.578,104.211L96.646,104.133L96.715,104.067L96.783,104.022L96.851,103.422L96.92,103.433L96.988,103.956L97.057,103.633L97.125,103.833L97.194,104.211L97.262,103.989L97.331,103.6L97.399,103.656L97.467,103.5L97.536,103.2L97.604,103.522L97.673,103.411L97.741,104.044L97.81,103.522L97.878,103.733L97.947,103.911L98.015,103.122L98.084,103.044L98.152,102.422L98.22,102.4L98.289,102.3L98.357,102.344L98.426,102.667L98.494,102.156L98.563,102.189L98.631,101.667L98.7,101.444L98.768,101.289L98.836,101.267L98.905,101.956L98.973,101.922L99.042,101.922L99.11,102L99.179,101.622L99.247,101.111L99.316,101.611L99.384,102.144L99.452,102.211L99.521,102.878L99.589,103.122L99.658,102.478L99.726,102.389L99.795,102.278L99.863,102.622L99.932,102.433L100,102.667L100.068,103.067L100.137,102.667L100.205,102.567L100.274,102.622L100.342,103.211L100.411,103.467L100.479,103.844L100.548,104.244L100.616,104L100.684,104.678L100.753,105.044L100.821,105.178L100.89,105.333L100.958,105.344L101.027,105.678L101.095,105.622L101.164,105.667L101.232,106.211L101.3,106.433L101.369,106.444L101.437,106.622L101.506,106.967L101.574,106.789L101.643,106.411L101.711,107.033L101.78,107.567L101.848,108.022L101.916,108.144L101.985,108.411L102.053,108.478L102.122,108.433L102.19,108.789L102.259,109.333L102.327,109.578L102.396,109.589L102.464,109.467L102.533,109.178L102.601,108.8L102.669,108.844L102.738,108.556L102.806,108.456L102.875,108.7L102.943,108.678L103.012,108.7L103.08,108.5L103.149,108.867L103.217,109.1L103.285,108.978L103.354,109.3L103.422,109.222L103.491,108.978L103.559,109.044L103.628,109.689L103.696,110.411L103.765,110.478L103.833,110.511L103.901,110.544L103.97,110.811L104.038,111L104.107,111.322L104.175,111.956L104.244,112.311L104.312,112.9L104.381,113.333L104.449,113.822L104.517,114.333L104.586,114.9L104.651,115.578L104.72,116.211L104.788,116.711L104.857,116.989L104.925,117.3L104.994,117.756L105.062,118.078L105.131,118.711L105.199,118.744L105.268,119L105.336,119.489L105.404,119.689L105.473,119.678L105.541,119.744L105.61,119.489L105.678,119.233L105.747,119.2L105.815,118.933L105.884,118.889L105.952,118.389L106.02,117.856L106.089,117.8L106.157,117.533L106.226,117.478L106.294,117.122L106.363,116.378L106.431,115.333L106.5,115.044L106.568,114.456L106.636,113.889L106.705,113.211L106.773,112.989L106.842,112.5L106.91,111.6L106.979,110.956L107.047,110.211L107.116,110L107.184,109.156L107.252,108.478L107.321,107.444L107.389,106.189L107.458,105.578L107.526,104.856L107.595,104.222L107.663,103.867L107.732,103.156L107.8,102.267L107.868,101.722L107.937,101.011L108.005,100.422L108.074,100.133L108.142,99.567L108.211,99.011L108.279,98.211L108.348,97.733L108.416,97.922L108.484,98.378L108.553,97.989L108.621,98.133L108.69,98.222L108.758,97.978L108.827,97.222L108.895,97.167L108.964,97.567L109.032,97.478L109.101,97.756L109.169,97.289L109.237,97.033L109.306,96.644L109.374,96.789L109.443,97.089L109.511,96.789L109.58,96.744L109.648,96.889L109.717,96.222L109.785,95.633L109.853,95.567L109.922,95.333L109.99,94.967L110.059,94.978L110.127,94.856L110.196,94.411L110.264,93.789L110.333,93.811L110.401,93.556L110.469,93.233L110.538,93.156L110.606,93.3L110.675,93.2L110.743,92.678L110.812,92.8L110.88,92.656L110.949,92.578L111.017,91.911L111.085,91.878L111.154,91.1L111.222,90.256L111.291,89.878L111.359,89.978L111.428,89.644L111.496,89.478L111.565,89.5L111.633,89.4L111.701,88.267L111.77,88.611L111.838,89.122L111.907,89.267L111.975,89.6L112.044,89.444L112.112,89.433L112.181,88.967L112.249,89.067L112.317,89.556L112.386,89.7L112.454,89.967L112.523,89.856L112.591,88.889L112.66,88.022L112.728,87.6L112.797,87.578L112.865,87.322L112.933,87.067L113.002,86.733L113.07,86.611L113.139,85.844L113.207,85.978L113.276,86.533L113.344,86.433L113.413,86.144L113.481,86.222L113.55,85.789L113.618,85.044L113.686,85.033L113.755,85.722L113.823,85.511L113.892,85.367L113.96,85.122L114.029,84.911L114.097,85.044L114.166,85.111L114.234,85.656L114.302,85.722L114.371,85.589L114.439,85.444L114.508,85.011L114.576,84.278L114.645,84.267L114.713,84.622L114.782,84.233L114.85,83.867L114.918,83.878L114.987,83.833L115.055,83.922L115.124,83.767L115.192,83.6L115.261,83.544L115.329,83.244L115.398,82.867L115.466,82.433L115.534,81.4L115.603,81.478L115.671,81.733L115.74,81.4L115.808,80.833L115.877,80.389L115.945,79.7L116.014,78.956L116.082,78.633L116.15,78.789L116.219,78.556L116.287,77.833L116.356,76.989L116.424,76.322L116.493,75.533L116.561,75.433L116.63,75.1L116.698,75.044L116.766,74.656L116.835,74.744L116.903,74.444L116.972,73.5L117.04,73.144L117.109,72.367L117.177,72.044L117.246,72.122L117.314,71.844L117.383,71.589L117.451,71.578L117.519,71.789L117.588,72.356L117.656,72.311L117.725,72.044L117.793,71.811L117.862,72.144L117.93,71.889L117.999,71.767L118.067,72.1L118.135,71.856L118.204,71.644L118.272,71.656L118.341,71.411L118.409,71.044L118.478,71.122L118.546,71.089L118.615,70.8L118.683,71.178L118.751,71.467L118.82,71.122L118.888,70.056L118.957,70.533L119.025,71.044L119.094,71.133L119.162,71.278L119.231,71.6L119.299,71.311L119.367,70.756L119.436,70.611L119.504,70.811L119.573,70.9L119.641,70.578L119.71,70.344L119.778,70.144L119.847,69.722L119.915,69.544L119.983,70.078L120.052,70.667L120.12,71.056L120.189,71.422L120.257,70.656L120.326,70.222L120.394,70.344L120.463,70.7L120.531,70.578L120.599,69.867L120.668,70.022L120.736,69.811L120.805,69.1L120.873,69.356L120.945,70.144L121.013,69.6L121.081,69.678L121.15,69.778L121.218,69.5L121.287,68.833L121.355,68.944L121.424,69.611L121.492,69.656L121.561,69.333L121.629,68.989L121.697,69.222L121.766,68.6L121.834,68.933L121.903,69.489L121.971,69.611L122.04,70.178L122.108,70.233L122.177,69.944L122.245,69.589L122.313,70.578L122.382,71.233L122.45,71.856L122.519,72.278L122.587,72.644L122.656,73.533L122.724,73.611L122.793,74.333L122.861,75.233L122.93,75.611L122.998,75.567L123.066,75.589L123.135,75.278L123.203,75.311L123.272,75.878L123.34,76.333L123.409,76.533L123.477,76.889L123.546,77.333L123.614,77.611L123.682,77.522L123.751,77.789L123.819,78.833L123.888,79.067L123.956,79.378L124.025,79.678L124.093,78.678L124.162,78.144L124.23,78.067L124.298,78.489L124.367,78.344L124.435,78.189L124.504,78.133L124.572,77.822L124.641,77.333L124.709,77.367L124.778,77.367L124.846,77.389L124.914,77.078L124.983,76.889L125.051,76.733L125.12,76.244L125.188,76.522L125.257,76.544L125.325,76.211L125.394,76.622L125.462,77.2L125.53,76.522L125.599,75.978L125.667,76.389L125.736,76.956L125.804,77.089L125.873,77.222L125.941,77.311L126.01,77.044L126.078,76.922L126.146,77.122L126.215,77.567L126.283,77.733L126.352,77.978L126.42,78.067L126.489,78.111L126.557,77.644L126.626,78.033L126.694,78.278L126.762,78.589L126.831,78.811L126.899,78.056L126.968,77.411L127.036,76.167L127.105,76.322L127.173,77.044L127.242,76.589L127.31,76.833L127.379,77.044L127.447,76.244L127.515,75.044L127.584,75.189L127.652,75.133L127.721,75.011L127.789,74.533L127.858,73.867L127.926,72.844L127.995,72.167L128.063,72.189L128.131,72.067L128.2,72.511L128.268,72.556L128.337,71.944L128.405,70.922L128.474,69.744L128.542,69.267L128.611,69.378L128.679,69L128.747,69.178L128.816,68.456L128.884,68.044L128.953,67.844L129.021,68.733L129.09,70L129.158,70.067L129.227,70.356L129.295,70.622L129.363,70.578L129.432,69.944L129.5,70.556L129.569,70.711L129.637,70.411L129.706,70.522L129.774,69.9L129.843,69.222L129.911,68.956L129.979,69.633L130.045,69.244L130.114,68.889L130.182,68.756L130.25,67.856L130.319,67.156L130.387,67.078L130.456,67.033L130.524,67.578L130.593,66.967L130.661,66.767L130.73,66.067L130.798,65.1L130.866,64.522L130.935,63.967L131.003,63.567L131.072,62.256L131.14,61.267L131.209,60.967L131.277,59.567L131.346,58.267L131.414,57.367L131.482,57.267L131.551,56.556L131.619,55.567L131.688,55L131.756,53.944L131.825,52.956L131.893,52.756L131.962,52.2L132.03,51.589L132.098,51.633L132.167,51.1L132.235,50.056L132.304,49.089L132.372,48.867L132.441,48.611L132.509,48.656L132.578,47.956L132.646,47.556L132.714,46.189L132.783,45.044L132.851,45.156L132.92,45.889L132.988,46.056L133.057,45.867L133.125,46.178L133.194,46.633L133.262,46.6L133.33,47L133.399,46.878L133.467,46.867L133.536,47.111L133.604,47.167L133.673,47.7L133.741,47.356L133.81,47.589L133.878,48.411L133.946,48.989L134.015,49.611L134.083,49.278L134.152,48.889L134.22,47.756L134.289,47.656L134.357,48.256L134.426,48.022L134.494,48.422L134.563,48.211L134.631,48.122L134.699,47.822L134.768,48.467L134.836,49.411L134.905,49.489L134.973,49.356L135.042,49.078L135.11,49.144L135.179,48.944L135.247,48.456L135.315,48.078L135.384,48.3L135.452,49.478L135.521,50.133L135.589,50.133L135.658,50.544L135.726,51.444L135.795,52.756L135.863,53.344L135.931,54.178L136,55.022L136.068,55.156L136.137,55.156L136.205,55.489L136.274,56.944L136.342,58.167L136.411,59.356L136.479,60.211L136.547,60.1L136.616,59.833L136.684,60.344L136.753,60.956L136.821,61.611L136.89,62.511L136.958,62.822L137.027,62.633L137.095,62.589L137.163,63.133L137.232,63.333L137.3,63.956L137.369,63.967L137.437,64.256L137.506,63.911L137.574,63.044L137.643,62.956L137.711,62.922L137.779,62.233L137.848,60.944L137.916,60.856L137.985,60.022L138.053,59.056L138.122,58.733L138.19,59.322L138.259,59.811L138.327,59.811L138.396,59.733L138.464,59.033L138.532,58.167L138.601,58.2L138.669,58.567L138.738,58.589L138.806,59.322L138.875,59.078L138.943,58.767L139.012,58.478L139.08,58.611L139.148,59.022L139.217,59.133L139.285,59.611L139.354,59.533L139.422,59.689L139.491,58.889L139.559,58.444L139.628,58.444L139.696,59.089L139.764,59.367L139.833,59.444L139.901,59.922L139.97,59.633L140.038,59.456L140.107,59.044L140.175,59.2L140.244,58.611L140.312,58.189L140.38,57.411L140.449,55.733L140.517,54.633L140.586,53.944L140.654,52.978L140.723,52.144L140.791,51.711L140.86,50L140.928,48.644L140.996,47.767L141.065,47.478L141.133,46.544L141.202,46.056L141.27,45.133L141.339,43.333L141.407,41.522L141.476,40.911L141.544,39.756L141.612,39.389L141.681,38.378L141.749,37.011L141.818,35.811L141.886,33.833L141.955,33L142.023,32.844L142.092,32.189L142.16,31.733L142.228,30.733L142.297,30.489L142.365,29.211L142.434,29.178L142.502,29.689L142.571,29.711L142.639,30.522L142.708,30.744L142.776,31.089L142.845,30.122L142.913,30.5L142.981,31.144L143.05,31.133L143.118,30.756L143.187,30.956L143.255,30.956L143.324,30.522L143.392,31.244L143.461,32.722L143.529,32.822L143.597,33.533L143.666,34.233L143.734,34.333L143.803,33.489L143.871,33.722L143.94,35.644L144.008,36.289L144.077,35.844L144.145,36.089L144.213,36.567L144.282,35.9L144.35,35.211L144.419,35.567L144.487,35.711L144.556,35.322L144.624,36L144.693,35.678L144.761,34.644L144.829,34.889L144.898,35.756L144.966,36.3L145.035,36.044L145.103,36.278L145.172,36.111L145.24,35.133L145.309,34.8L145.377,35.122L145.445,36.022L145.514,34.956L145.582,35.444L145.651,35.811L145.719,35.189L145.788,35.922L145.856,36.7L145.925,36.589L145.993,35.578L146.061,35.256L146.13,35.122L146.198,34.178L146.267,33.978L146.338,34.989L146.407,36.122L146.475,36.6L146.543,36.133L146.612,36.178L146.68,34.844L146.749,34.756L146.817,35.667L146.886,35.778L146.954,35.333L147.023,35.222L147.091,34.844L147.159,33.689L147.228,34.433L147.296,35.522L147.365,36.178L147.433,36.9L147.502,36.044L147.57,37.022L147.639,36.422L147.707,36.711L147.775,37.411L147.844,37.978L147.912,38.767L147.981,38.578L148.049,39.1L148.118,38.822L148.186,39.511L148.255,40.478L148.323,41.133L148.392,41.544L148.46,41.422L148.528,41.789L148.597,41.756L148.665,42.067L148.734,43.011L148.802,42.844L148.871,42.867L148.939,42.722L149.008,42.656L149.076,42.556L149.144,42.856L149.213,44.144L149.281,43.222L149.35,42.967L149.418,42.133L149.487,40.389L149.555,38.578L149.624,37.667L149.692,37.422L149.76,36.611L149.829,35.833L149.897,34.511L149.966,35.111L150.034,36.311L150.103,36.933L150.171,37.778L150.24,37.944L150.308,38.478L150.376,38.6L150.445,37.633L150.513,36.878L150.582,36.622L150.65,37.244L150.719,36.733L150.787,36.833L150.856,37.189L150.924,36.844L150.992,35.933L151.061,36.622L151.129,36.367L151.198,36.567L151.266,36.544L151.335,36.478L151.403,36.733L151.472,36.833L151.54,38.011L151.608,39.833L151.677,40.856L151.745,41.133L151.814,42.044L151.882,42.211L151.951,42.478L152.019,41.378L152.088,40.344L152.156,39.422L152.225,38.622L152.293,37.378L152.361,35.933L152.43,33.867L152.498,33.767L152.567,33.544L152.635,32.656L152.704,31.344L152.772,30.967L152.841,29.089L152.909,28.656L152.977,28.089L153.046,28.278L153.114,27.544L153.183,27.411L153.251,26.467L153.32,25.322L153.388,24.178L153.457,23.133L153.525,22.589L153.593,22.122L153.662,21.689L153.73,20.911L153.799,20.4L153.867,18.533L153.936,18.889L154.004,19.311L154.073,18.789L154.141,18.156L154.209,18.011L154.278,17.622L154.346,16.811L154.415,17.133L154.483,17.8L154.552,18.478L154.62,18.978L154.689,18.911L154.757,19.244L154.825,18.978L154.894,20.067L154.96,19.878L155.028,20.533L155.096,21.056L155.165,21.478L155.233,21.311L155.302,22.278L155.37,23.756L155.439,26.489L155.507,28.211L155.576,29.078L155.644,29.589L155.712,29.622L155.781,28.378L155.849,27.822L155.918,29.189L155.986,28.911L156.055,28.767L156.123,28.4L156.192,28.222L156.26,27.678L156.328,27.056L156.397,28.156L156.465,28.322L156.534,28.678L156.602,28.689L156.671,28.411L156.739,27.867L156.808,28.144L156.876,28.7L156.944,28.989L157.013,28.656L157.081,28.344L157.15,27.956L157.218,26.656L157.287,26.667L157.355,26.067L157.424,24.889L157.492,23.933L157.56,23.178L157.629,22.033L157.697,20.989L157.766,20.644L157.834,21.733L157.903,22.533L157.971,22.167L158.04,21.967L158.108,22.256L158.176,22.978L158.245,23.256L158.313,24L158.382,25.033L158.45,24.767L158.519,25.356L158.587,25.144L158.656,23.978L158.724,23.8L158.792,24.878L158.861,24.867L158.929,25.456L158.998,25.422L159.066,25.178L159.135,24.556L159.203,24.589L159.272,25.322L159.34,25.478L159.409,25.889L159.477,26.222L159.545,25.7L159.614,25.133L159.682,25.611L159.751,26.222L159.819,26.089L159.888,26.267L159.956,26.444L160.025,26.322L160.093,25.222L160.161,24.644L160.23,24.489L160.298,24.789L160.367,24.833L160.435,25.267L160.504,26.567L160.572,26.511L160.641,26.578L160.709,27.7L160.777,27.789L160.846,28L160.914,29.222L160.983,29.122L161.051,28.733L161.12,30.133L161.188,31.733L161.257,32.544L161.325,33.4L161.393,34.278L161.462,35.178L161.53,35.489L161.599,36L161.667,36.433L161.736,37.578L161.804,38.178L161.873,39.4L161.941,39.844L162.009,40.144L162.078,40.878L162.146,42.622L162.215,43.067L162.283,43.544L162.352,43.989L162.42,44.622L162.489,44.056L162.557,43.844L162.625,44.056L162.694,44.833L162.762,45.356L162.831,45.789L162.899,45.533L162.968,44.989L163.036,45.011L163.105,46.244L163.173,46.289L163.242,46.822L163.31,47.056L163.378,47.489L163.447,46.878L163.515,46.844L163.584,47.444L163.652,47.789L163.721,48.233L163.789,48.422L163.858,48.967L163.926,48.611L163.994,48.9L164.063,48.8L164.131,48.678L164.2,49.011L164.268,49.8L164.337,49.867L164.405,49.511L164.474,49.133L164.542,50.033L164.61,50.056L164.679,50.256L164.747,50.6L164.816,50.533L164.884,50.633L164.953,50.111L165.021,50.344L165.09,50.489L165.158,49.8L165.226,48.5L165.295,47.178L165.363,45.611L165.432,45.122L165.5,44.8L165.569,44.1L165.637,43.322L165.706,42.744L165.774,41.533L165.842,40.356L165.911,39.078L165.979,38.411L166.048,37.567L166.116,37.122L166.185,37.2L166.253,36.011L166.322,34.811L166.39,34.322L166.458,34.344L166.527,33.033L166.595,32.622L166.664,31.878L166.732,30.989L166.801,29.844L166.869,29.567L166.938,29.456L167.006,30.656L167.074,30.667L167.143,30.311L167.211,30.256L167.28,31.144L167.348,31.667L167.417,32.444L167.485,31.678L167.554,32.256L167.622,31.956L167.691,31.667L167.759,30.844L167.827,31.378L167.896,31.622L167.964,32.122L168.033,32.233L168.101,32.3L168.17,32.267L168.238,31.644L168.307,32.456L168.375,32.456L168.443,32.389L168.512,31.911L168.58,32.844L168.649,32.211L168.717,31.144L168.786,31.4L168.854,31.867L168.923,31.467L168.991,30.978L169.059,30.311L169.128,29.3L169.196,28.833L169.265,29.222L169.333,29.444L169.402,29.089L169.47,29.278L169.539,30.256L169.607,29.622L169.675,28.878L169.744,29.444L169.812,30.911L169.881,30.744L169.949,30.867L170.018,31L170.086,31.3L170.155,31.022L170.223,31.389L170.291,32.078L170.36,31.744L170.428,30.989L170.497,32.089L170.565,32.633L170.634,32.067L170.702,32.4L170.771,33.711L170.839,33.878L170.907,33.744L170.976,34.122L171.044,33.933L171.113,32.867L171.181,33.844L171.253,35.178L171.321,35.067L171.389,34.444L171.458,34.856L171.526,34.033L171.595,33.256L171.663,33.444L171.732,34.811L171.8,34.433L171.869,34.856L171.937,35.211L172.005,34.144L172.074,33.2L172.142,33.567L172.211,33.878L172.279,33.822L172.348,33.189L172.416,33.422L172.485,35.167L172.553,34.611L172.621,35.2L172.69,36.622L172.758,37.411L172.827,37.756L172.895,37.422L172.964,36.922L173.032,36.078L173.101,35.978L173.169,37.211L173.238,36.411L173.306,35.222L173.374,34.956L173.443,34.889L173.511,33.7L173.58,34.6L173.648,35.156L173.717,35.389L173.785,35.133L173.854,35.767L173.922,34.856L173.99,34.378L174.059,35.067L174.127,35.456L174.196,34.844L174.264,34.811L174.333,33.956L174.401,33.444L174.47,31.956L174.538,30.889L174.606,30.244L174.675,29.844L174.743,28.489L174.812,27.511L174.88,26.689L174.949,24.811L175.017,24.544L175.086,25.356L175.154,26.5L175.222,26.278L175.291,27.067L175.359,27.322L175.428,26.7L175.496,26.611L175.565,27.6L175.633,27L175.702,26.222L175.77,26.078L175.838,25.4L175.907,23.433L175.975,22.933L176.044,23.233L176.112,23.022L176.181,23.167L176.249,23.667L176.318,23.222L176.386,23.422L176.454,24.467L176.523,25.922L176.591,26.722L176.66,27.322L176.728,27.022L176.797,27.233L176.865,26.622L176.934,27.389L177.002,29.878L177.07,31.056L177.139,30.9L177.207,30.322L177.276,29.467L177.344,28.144L177.413,28.444L177.481,29.344L177.55,29.4L177.618,29.722L177.687,30.333L177.755,30.289L177.823,29.333L177.892,29.711L177.96,31.222L178.029,31.789L178.097,32.044L178.166,31.778L178.234,31.044L178.303,29.9L178.371,30.289L178.439,30.733L178.508,30.511L178.576,30.122L178.645,29.411L178.713,28.344L178.782,27.367L178.85,27.833L178.919,29.011L178.987,28.811L179.055,28.444L179.124,27.8L179.192,27.422L179.261,27.544L179.329,28.833L179.398,29.556L179.466,29.744L179.535,29.889L179.603,30.633L179.671,30.533L179.74,30.222L179.808,31.756L179.874,32.856L179.942,33.8L180.011,34.544L180.079,34.756L180.148,34.4L180.216,33.867L180.285,34.7L180.353,35.733L180.422,35.644L180.49,35.533L180.558,35.211L180.627,34.611L180.695,33.322L180.764,34.267L180.832,34.989L180.901,35.311L180.969,34.867L181.038,34.867L181.106,35.044L181.174,35.011L181.243,35.111L181.311,35L181.38,34.767L181.448,35.367L181.517,35.044L181.585,34.556L181.654,33.189L181.722,32.833L181.79,32.278L181.859,30.511L181.927,30.1L181.996,29.289L182.064,27.933L182.133,26.5L182.201,26.733L182.27,27.7L182.338,27.733L182.406,27.511L182.475,28.2L182.543,28.089L182.612,27.544L182.68,27.978L182.749,29.622L182.817,29.089L182.886,29.544L182.954,29.1L183.022,29.267L183.091,28.767L183.159,27.844L183.228,28L183.296,28.167L183.365,28.022L183.433,28.033L183.502,28.789L183.57,28.767L183.638,29.2L183.707,29.756L183.775,29.511L183.844,30.178L183.912,30.689L183.981,30.122L184.049,28.344L184.118,28.422L184.186,29.422L184.255,29.422L184.323,29.589L184.391,29.211L184.46,28.622L184.528,26.767L184.597,25.889L184.665,26.1L184.734,25.967L184.802,25.456L184.871,24.822L184.939,24.133L185.007,23.378L185.076,23.133L185.144,23.467L185.213,23.956L185.281,24.256L185.35,24.733L185.418,24.7L185.487,24.556L185.555,24.011L185.623,24.667L185.692,25.133L185.76,25.833L185.829,26.644L185.897,26.211L185.966,25.911L186.034,27.089L186.103,29.422L186.171,30.322L186.239,31.4L186.308,31.611L186.376,31.189L186.445,30.7L186.513,31.533L186.582,32.811L186.65,33.622L186.719,34.156L186.787,34.711L186.855,35.211L186.924,35.822L186.992,36.3L187.061,36.989L187.129,37.4L187.198,37.433L187.266,38.422L187.335,38.1L187.403,36.656L187.471,36.822L187.54,37.111L187.608,36.556L187.677,35.878L187.745,35.089L187.814,35.044L187.882,34.389L187.951,34.733L188.019,34.978L188.087,35L188.156,34.844L188.224,34.8L188.293,33.911L188.361,33.178L188.43,33.8L188.498,35.111L188.567,35.478L188.635,35.433L188.704,36.389L188.772,36.489L188.84,36.289L188.909,36.567L188.977,37L189.046,37.5L189.114,38.256L189.183,38.7L189.251,38.711L189.32,37.811L189.388,38.422L189.456,39.7L189.525,40.056L189.593,40.333L189.662,40.467L189.73,39.989L189.799,39.944L189.867,38.867L189.936,39.011L190.004,39.011L190.072,39.178L190.141,38.322L190.209,36.589L190.278,35.144L190.346,34.567L190.415,34.4L190.483,34.1L190.552,33.678L190.62,32.322L190.688,31.611L190.757,29.478L190.825,29.333L190.894,28.789L190.962,28.044L191.031,27.578L191.099,26.567L191.168,25.856L191.236,24.533L191.304,24.533L191.373,24.389L191.441,24.033L191.51,23.789L191.578,24.056L191.647,23.267L191.715,21.756L191.784,22.478L191.852,22.489L191.92,23.278L191.989,23.367L192.057,23.1L192.126,22.844L192.194,23.1L192.263,24.967L192.331,26.089L192.4,26.156L192.468,26.411L192.537,26.544L192.605,25.878L192.673,26.267L192.742,26.578L192.81,27.267L192.879,27.167L192.947,27.856L193.016,28.344L193.084,28.156L193.153,27.678L193.221,27.133L193.289,27L193.358,26.822L193.426,26.644L193.495,26.011L193.563,25.544L193.632,24.278L193.7,24.256L193.769,24.989L193.837,24.933L193.905,24.711L193.974,24.844L194.042,23.889L194.111,22.711L194.179,22.856L194.248,22.3L194.316,21.689L194.385,21.4L194.453,21.589L194.521,21.378L194.59,19.656L194.658,19.8L194.727,19.811L194.795,19.833L194.864,20.033L194.932,19.422L195.001,18.178L195.069,16.722L195.137,16.678L195.206,17.589L195.274,18.078L195.343,17.522L195.411,18.211L195.48,18.422L195.548,17.967L195.617,18.2L195.685,18.289L195.753,18.533L195.822,17.844L195.89,17.456L195.959,16.911L196.027,15.333L196.096,15.456L196.167,16.178L196.235,16.178L196.304,16.456L196.372,16.033L196.441,14.544L196.509,13.256L196.578,13.689L196.646,14.933L196.715,14.878L196.783,14.733L196.851,14.5L196.92,13.422L196.988,12.167L197.057,13.6L197.125,14.267L197.194,14.156L197.262,14.111L197.331,13.867L197.399,14.689L197.467,12.944L197.536,12.8L197.604,14L197.673,14.5L197.741,15.156L197.81,14.567L197.878,14.878L197.947,13.544L198.015,13.233L198.084,14.211L198.152,14.344L198.22,14.678L198.289,13.744L198.357,13.233L198.426,12.844L198.494,14.433L198.563,15.989L198.631,15.556L198.7,14.956L198.768,14.9L198.836,14.9L198.905,14.1L198.973,15.222L199.042,17.589L199.11,17.489L199.179,18.533L199.247,19.3L199.316,19.4L199.384,19.789L199.452,20.078L199.521,20.733L199.589,20.589L199.658,20.022L199.726,19.367L199.795,18.2L199.863,17.567L199.932,18.167L200,19.211L200.068,19.722L200.137,19.611L200.205,20L200.274,19.211L200.342,18.467L200.411,18.856L200.479,19.467L200.548,18.9L200.616,18.467L200.684,18.222L200.753,17.767L200.821,16.589L200.89,17L200.958,18.722L201.027,19.722L201.095,18.978L201.164,18.8L201.232,18.522L201.3,17.767L201.369,17.722L201.437,17.9L201.506,18.122L201.574,18.9L201.643,19.311L201.711,19.044L201.78,17.722L201.848,18.367L201.916,19.211L201.985,19.044L202.053,19.367L202.122,19.6L202.19,19.9L202.259,18.533L202.327,23.144" stroke="#4c78a8" stroke-width="2"/></g><g class="mark-group role-title"><g transform="translate(100,-17)"><path class="background" aria-hidden="true" d="M0,0h0v0h0Z" pointer-events="none"/><g><g class="mark-text role-title-text" role="graphics-symbol" aria-roledescription="title" aria-label="Title text 'Illegal Parking: Blocked Hydrant'" pointer-events="none"><text text-anchor="middle" transform="translate(0,10)" font-family="sans-serif" font-size="13px" font-weight="bold" fill="#000" opacity="1">Illegal Parking: Blocked Hydrant</text></g></g><path class="foreground" aria-hidden="true" d="" pointer-events="none" display="none"/></g></g></g><path class="foreground" aria-hidden="true" d="" display="none"/></g></g></g><defs><clipPath id="clip123"><rect x="0" y="0" width="200" height="150"/></clipPath></defs></svg>