<svg xmlns="http://www.w3.org/2000/svg" xmlns:xlink="http://www.w3.org/1999/xlink" version="1.1" class="marks" width="320" height="194" viewBox="0 0 320 194"><rect width="320" height="194" fill="white"/><g fill="none" stroke-miterlimit="10" transform="translate(60,22)"><g class="mark-group role-frame root" role="graphics-object" aria-roledescription="group mark container"><g transform="translate(0,0)"><path class="background" aria-hidden="true" d="M0,0h200v150h-200Z"/><g><g class="mark-group role-axis" aria-hidden="true"><g transform="translate(0.5,0.5)"><path class="background" aria-hidden="true" d="M0,0h0v0h0Z" pointer-events="none"/><g><g class="mark-rule role-axis-grid" pointer-events="none"><line transform="translate(0,150)" x2="200" y2="0" stroke="#ddd" stroke-width="1" opacity="1"/><line transform="translate(0,107)" x2="200" y2="0" stroke="#ddd" stroke-width="1" opacity="1"/><line transform="translate(0,64)" x2="200" y2="0" stroke="#ddd" stroke-width="1" opacity="1"/><line transform="translate(0,21)" x2="200" y2="0" stroke="#ddd" stroke-width="1" opacity="1"/></g></g><path class="foreground" aria-hidden="true" d="" pointer-events="none" display="none"/></g></g><g class="mark-group role-axis" role="graphics-symbol" aria-roledescription="axis" aria-label="X-axis for a time scale with values from Friday, 01 January 2016, 12:00:00 AM to Monday, 01 January 2024, 12:00:00 AM"><g transform="translate(0.5,150.5)"><path class="background" aria-hidden="true" d="M0,0h0v0h0Z" pointer-events="none"/><g><g class="mark-rule role-axis-tick" pointer-events="none"><line transform="translate(0,0)" x2="0" y2="5" stroke="#888" stroke-width="1" opacity="1"/><line transform="translate(50,0)" x2="0" y2="5" stroke="#888" stroke-width="1" opacity="1"/><line transform="translate(100,0)" x2="0" y2="5" stroke="#888" stroke-width="1" opacity="1"/><line transform="translate(150,0)" x2="0" y2="5" stroke="#888" stroke-width="1" opacity="1"/><line transform="translate(200,0)" x2="0" y2="5" stroke="#888" stroke-width="1" opacity="1"/></g><g class="mark-text role-axis-label" pointer-events="none"><text text-anchor="start" transform="translate(0,15)" font-family="sans-serif" font-size="10px" fill="#000" opacity="1">2016</text><text text-anchor="middle" transform="translate(50.03422313483915,15)" font-family="sans-serif" font-size="10px" fill="#000" opacity="1">2018</text><text text-anchor="middle" transform="translate(100,15)" font-family="sans-serif" font-size="10px" fill="#000" opacity="1">2020</text><text text-anchor="middle" transform="translate(150.03422313483915,15)" font-family="sans-serif" font-size="10px" fill="#000" opacity="1">2022</text><text text-anchor="end" transform="translate(200,15)" font-family="sans-serif" font-size="10px" fill="#000" opacity="1">2024</text></g><g class="mark-rule role-axis-domain" pointer-events="none"><line transform="translate(0,0)" x2="200" y2="0" stroke="#888" stroke-width="1" opacity="1"/></g></g><path class="foreground" aria-hidden="true" d="" pointer-events="none" display="none"/></g></g><g class="mark-group role-axis" role="graphics-symbol" aria-roledescription="axis" aria-label="Y-axis for a linear scale with values from 0 to 35"><g transform="translate(0.5,0.5)"><path class="background" aria-hidden="true" d="M0,0h0v0h0Z" pointer-events="none"/><g><g class="mark-rule role-axis-tick" pointer-events="none"><line transform="translate(0,150)" x2="-5" y2="0" stroke="#888" stroke-opacity="0" stroke-width="1" opacity="1"/><line transform="translate(0,107)" x2="-5" y2="0" stroke="#888" stroke-opacity="0" stroke-width="1" opacity="1"/><line transform="translate(0,64)" x2="-5" y2="0" stroke="#888" stroke-opacity="0" stroke-width="1" opacity="1"/><line transform="translate(0,21)" x2="-5" y2="0" stroke="#888" stroke-opacity="0" stroke-width="1" opacity="1"/></g><g class="mark-text role-axis-label" pointer-events="none"><text text-anchor="end" transform="translate(-7,153)" font-family="sans-serif" font-size="10px" fill="#000" opacity="1">0</text><text text-anchor="end" transform="translate(-7,110.14285714285714)" font-family="sans-serif" font-size="10px" fill="#000" opacity="1">10</text><text text-anchor="end" transform="translate(-7,67.28571428571429)" font-family="sans-serif" font-size="10px" fill="#000" opacity="1">20</text><text text-anchor="end" transform="translate(-7,24.428571428571434)" font-family="sans-serif" font-size="10px" fill="#000" opacity="1">30</text></g></g><path class="foreground" aria-hidden="true" d="" pointer-events="none" display="none"/></g></g><g class="mark-line role-mark marks" clip-path="url(#clip138)" role="graphics-object" aria-roledescription="line mark container"><path aria-label="day: Jan 01, 2010; avg: 10.1666666667" role="graphics-symbol" aria-roledescription="line mark" d="M-149.966,106.429L-149.897,106.429L-149.829,105.286L-149.76,103.429L-149.692,103.857L-149.624,103.429L-149.555,102.571L-149.487,103.429L-149.418,103.429L-149.35,101.286L-149.281,100.429L-149.213,101.857L-149.144,101.143L-149.076,103L-149.008,103.571L-148.939,103.286L-148.871,103L-148.802,102.143L-148.734,101.143L-148.665,101.857L-148.597,103.571L-148.528,106.571L-148.46,106.143L-148.392,104L-148.323,102.714L-148.255,98.857L-148.186,99.571L-148.118,103.143L-148.049,103L-147.981,103.143L-147.912,97.143L-147.844,93.714L-147.775,91L-147.707,88.714L-147.639,86.143L-147.57,85.857L-147.502,86.429L-147.433,82.571L-147.365,78.714L-147.296,78L-147.228,76L-147.159,74.571L-147.091,74.143L-147.023,74L-146.954,70L-146.886,66.429L-146.817,62.429L-146.749,60.571L-146.68,59.571L-146.612,59.571L-146.543,59.714L-146.475,56.429L-146.407,54.286L-146.338,54.143L-146.27,52.857L-146.201,54.571L-146.133,55.429L-146.064,54L-145.996,53.714L-145.927,50.714L-145.859,52.857L-145.791,52.429L-145.722,54.714L-145.654,59L-145.585,62.714L-145.517,60.429L-145.448,57.857L-145.38,57.857L-145.311,57.429L-145.243,57L-145.175,57.571L-145.106,58.286L-145.038,56.714L-144.972,55L-144.904,56.571L-144.835,58.714L-144.767,59.714L-144.698,61.429L-144.63,63.143L-144.561,60.714L-144.493,59.143L-144.424,59L-144.356,59L-144.288,59.857L-144.219,61.571L-144.151,64.286L-144.082,61.286L-144.014,58.429L-143.945,57.571L-143.877,56L-143.808,56.143L-143.74,59.143L-143.672,59.714L-143.603,56.143L-143.535,52.571L-143.466,52.571L-143.398,55L-143.329,54.571L-143.261,58.286L-143.192,61.286L-143.124,61.429L-143.056,59.143L-142.987,59.286L-142.919,58.857L-142.85,59.714L-142.782,61.143L-142.713,63.286L-142.645,59.143L-142.576,57.714L-142.508,57.714L-142.44,57.857L-142.371,57.857L-142.303,60.429L-142.234,61.429L-142.166,58.857L-142.097,55.857L-142.029,57.286L-141.96,58L-141.892,59.714L-141.824,64.571L-141.755,68L-141.687,68L-141.618,65.143L-141.55,66.286L-141.481,67L-141.413,68.857L-141.344,69.714L-141.276,73.286L-141.208,71.143L-141.139,68.714L-141.071,68.571L-141.002,68.429L-140.934,70L-140.865,71.286L-140.797,72.857L-140.728,70.286L-140.66,68.143L-140.591,70.857L-140.523,70.286L-140.455,72L-140.386,73.857L-140.318,76.286L-140.249,75.714L-140.181,74.857L-140.112,77.143L-140.044,78.143L-139.975,78L-139.907,81.143L-139.839,82.429L-139.77,79.571L-139.702,78.429L-139.633,77.857L-139.565,79.571L-139.496,81.143L-139.428,83.857L-139.359,85.857L-139.291,86.143L-139.223,86.143L-139.154,88.857L-139.086,88.857L-139.017,90.143L-138.949,93.286L-138.88,94.429L-138.812,93.571L-138.743,90.857L-138.675,92.714L-138.607,93.286L-138.538,94.857L-138.47,96.429L-138.401,96.571L-138.333,95.714L-138.264,92.714L-138.196,91L-138.127,91L-138.059,90.857L-137.991,92.143L-137.922,93.571L-137.854,90.857L-137.785,88.857L-137.717,88.714L-137.648,86.714L-137.58,87.143L-137.511,88.571L-137.443,89.429L-137.375,86.714L-137.306,82.286L-137.238,81.429L-137.169,79.857L-137.101,77.571L-137.032,80.286L-136.964,80.857L-136.895,78.143L-136.827,74.857L-136.758,75.714L-136.69,71.714L-136.622,72.714L-136.553,75L-136.485,75L-136.416,74.143L-136.348,72.714L-136.279,71.857L-136.211,74L-136.142,75.857L-136.074,76.429L-136.006,77.571L-135.937,75.286L-135.869,74.143L-135.8,75.714L-135.732,76L-135.663,77.571L-135.595,80L-135.526,80.286L-135.458,78.857L-135.39,77.286L-135.321,78.571L-135.253,80.429L-135.184,80.571L-135.116,81.857L-135.047,84.429L-134.979,84.714L-134.91,82.286L-134.842,82.429L-134.774,85L-134.705,85.571L-134.637,92L-134.568,92.571L-134.5,91.143L-134.431,91L-134.363,91.429L-134.294,93.571L-134.226,95L-134.158,95.286L-134.089,96.429L-134.021,95.857L-133.952,94.571L-133.884,95.857L-133.815,94.714L-133.747,93.857L-133.678,94.857L-133.61,96.286L-133.542,95L-133.473,93.714L-133.405,93.571L-133.336,94.714L-133.268,94.429L-133.199,96.429L-133.131,96.857L-133.062,95.429L-132.994,94.286L-132.926,92.571L-132.857,94.143L-132.789,96.286L-132.72,96.429L-132.652,96.571L-132.583,96.286L-132.515,93.143L-132.446,92.429L-132.378,91.714L-132.309,92L-132.241,92.286L-132.173,92.143L-132.104,90.857L-132.036,86.857L-131.967,87.143L-131.899,86.571L-131.83,87L-131.762,90.286L-131.693,91.857L-131.625,91.571L-131.557,89.143L-131.488,89.143L-131.42,90.143L-131.351,91.429L-131.283,91.429L-131.214,94L-131.146,94.143L-131.077,93.571L-131.009,95L-130.941,95.286L-130.872,95.571L-130.804,95.714L-130.735,95L-130.667,93.571L-130.598,91.857L-130.53,89.714L-130.461,91.286L-130.393,93.143L-130.325,94.571L-130.256,95.714L-130.188,94.571L-130.119,93.571L-130.051,94.714L-129.982,96.429L-129.914,96.143L-129.845,98.429L-129.777,100.286L-129.709,99.714L-129.64,100L-129.572,99.429L-129.503,102.714L-129.435,104.429L-129.366,105.857L-129.298,106.714L-129.229,106.143L-129.161,103.857L-129.093,103L-129.024,102.143L-128.956,101.286L-128.887,102.429L-128.819,104L-128.75,103.143L-128.679,103.714L-128.611,103.714L-128.542,105L-128.474,106.714L-128.405,108.286L-128.337,108.571L-128.268,107.429L-128.2,106.714L-128.131,107.143L-128.063,108.429L-127.995,109L-127.926,111.286L-127.858,112.857L-127.789,112L-127.721,111.286L-127.652,111L-127.584,111.286L-127.515,112.714L-127.447,112.714L-127.379,113.143L-127.31,113.143L-127.242,113.429L-127.173,114.286L-127.105,116.286L-127.036,117.857L-126.968,119.714L-126.899,121.571L-126.831,119.429L-126.762,118.286L-126.694,120.143L-126.626,120.714L-126.557,123.286L-126.489,124.429L-126.42,125.571L-126.352,125.571L-126.283,126L-126.215,127.714L-126.146,128.857L-126.078,130.143L-126.01,130.857L-125.941,130.857L-125.873,129.857L-125.804,129.714L-125.736,130.571L-125.667,131L-125.599,131.857L-125.53,131.429L-125.394,131.286L-125.325,130.714L-125.257,130.143L-125.188,129.571L-125.12,129.429L-125.051,129.571L-124.914,128.714L-124.846,127.857L-124.778,125.714L-124.709,122.857L-124.641,123.857L-124.572,123.857L-124.504,121.714L-124.435,118.571L-124.367,113.571L-124.298,110.714L-124.23,108.857L-124.162,107.857L-124.093,107.286L-124.025,106.714L-123.956,103L-123.888,98.571L-123.819,94.714L-123.751,92.714L-123.682,91.286L-123.614,91.143L-123.546,90L-123.477,88.571L-123.409,84.143L-123.34,82.857L-123.272,81.143L-123.203,79.143L-123.135,77.857L-123.066,76.857L-122.998,71.571L-122.93,67.857L-122.861,66.571L-122.793,65.143L-122.724,64.714L-122.656,65.571L-122.587,63.714L-122.519,61.571L-122.45,59.857L-122.382,60.714L-122.313,63.143L-122.245,63.143L-122.177,64L-122.108,63.143L-122.04,59.429L-121.971,57.857L-121.903,57.571L-121.834,58.714L-121.766,60.429L-121.697,62.143L-121.629,62.429L-121.561,59.714L-121.492,58.857L-121.424,56.714L-121.355,58.143L-121.287,56.286L-121.218,56.857L-121.15,57.143L-121.081,54.286L-121.013,50L-120.945,51.429L-120.876,52.571L-120.808,53L-120.739,53.429L-120.671,55L-120.602,52.571L-120.534,51.714L-120.465,51L-120.397,50.714L-120.329,50.143L-120.26,50L-120.192,51.429L-120.123,47.429L-120.058,45.714L-119.989,46.714L-119.921,42.714L-119.852,43.714L-119.784,44.714L-119.715,45.714L-119.647,44.429L-119.578,43.429L-119.51,42.286L-119.442,42.143L-119.373,44.286L-119.305,46L-119.236,49.286L-119.168,46.857L-119.099,44.143L-119.031,45.429L-118.962,47.429L-118.894,47.714L-118.826,49.286L-118.757,50.143L-118.689,48.143L-118.62,45L-118.552,44.857L-118.483,45.143L-118.415,44.714L-118.346,46.571L-118.278,49.429L-118.21,47.857L-118.141,45.286L-118.073,46.714L-118.004,46L-117.936,45.857L-117.867,50.143L-117.799,52.143L-117.73,52.143L-117.662,49.286L-117.594,48L-117.525,48.429L-117.457,48.714L-117.388,49.286L-117.32,49.143L-117.251,46.857L-117.183,44.143L-117.114,44.286L-117.046,44.857L-116.978,45.857L-116.909,48.714L-116.841,51.857L-116.772,52.286L-116.704,48.286L-116.635,49.429L-116.567,51.143L-116.498,51.857L-116.43,53.429L-116.362,56.571L-116.293,54.571L-116.225,52.714L-116.156,53.714L-116.088,55.857L-116.019,57.429L-115.951,60.143L-115.882,62L-115.814,59.429L-115.745,56.714L-115.677,55.714L-115.609,57.143L-115.54,58.429L-115.472,60L-115.403,64.286L-115.335,63.429L-115.266,62.571L-115.198,62.857L-115.129,62L-115.061,62.571L-114.993,65.571L-114.924,67.571L-114.856,64.286L-114.787,59.857L-114.719,58L-114.65,60.143L-114.582,61L-114.513,63.571L-114.445,67.714L-114.377,69.714L-114.308,67.714L-114.24,70.714L-114.171,70L-114.103,71.571L-114.034,72.429L-113.966,74.286L-113.897,73.429L-113.829,72.857L-113.761,74.143L-113.692,75.714L-113.624,76L-113.555,78L-113.487,79.571L-113.418,78.429L-113.35,75.143L-113.281,75L-113.213,74.286L-113.145,75.429L-113.076,78.143L-113.008,81.286L-112.939,81L-112.871,78.714L-112.802,80.143L-112.734,82L-112.665,81.714L-112.597,84.286L-112.529,84.571L-112.46,81L-112.392,78.429L-112.323,75.714L-112.255,75.429L-112.186,73.857L-112.118,75L-112.049,75.857L-111.981,74.286L-111.913,71.571L-111.844,71L-111.776,71.286L-111.707,71.857L-111.639,73.286L-111.57,75L-111.502,73.429L-111.433,71L-111.365,70.429L-111.296,71.571L-111.228,73.143L-111.16,75.429L-111.091,77.143L-111.023,75L-110.954,70.714L-110.886,69.143L-110.817,71L-110.749,72.714L-110.68,75.571L-110.612,78.714L-110.544,77.286L-110.475,77L-110.407,78.857L-110.338,80.429L-110.27,81L-110.201,83L-110.133,85.571L-110.064,85.286L-109.996,84L-109.928,84.714L-109.859,86.143L-109.791,87.143L-109.722,88.714L-109.654,90.714L-109.585,88.429L-109.517,86.857L-109.448,86.857L-109.38,89L-109.312,90L-109.243,91.143L-109.175,91.571L-109.106,90.286L-109.038,87L-108.969,89.143L-108.901,90.143L-108.832,92.571L-108.764,93L-108.696,93.429L-108.627,91.143L-108.559,90L-108.49,90L-108.422,89.429L-108.353,89.429L-108.285,89L-108.216,90.714L-108.148,90.286L-108.08,88.714L-108.011,88.143L-107.943,86.714L-107.874,86.714L-107.806,87.857L-107.737,90L-107.669,89.286L-107.6,87.714L-107.532,88.714L-107.463,90.286L-107.395,90.429L-107.327,90.429L-107.258,92.429L-107.19,92.857L-107.121,91.714L-107.053,91.714L-106.984,95L-106.916,94.714L-106.847,97L-106.779,97.286L-106.711,95.571L-106.642,93.714L-106.574,94.429L-106.505,93.714L-106.437,95.143L-106.368,97.286L-106.3,99.143L-106.231,97.286L-106.163,96.143L-106.095,96.143L-106.026,96.429L-105.958,97.857L-105.889,100.571L-105.821,102.429L-105.752,100.857L-105.684,99.857L-105.615,99L-105.547,99.429L-105.479,100.714L-105.41,102L-105.342,104.286L-105.273,103.714L-105.205,101.286L-105.136,99.857L-105.068,100.571L-104.999,102.143L-104.931,102.429L-104.863,103L-104.794,102.714L-104.726,102.143L-104.657,103.571L-104.589,106.143L-104.52,106.857L-104.452,107.714L-104.383,106.857L-104.315,105.286L-104.247,104L-104.178,105.429L-104.11,105.857L-104.041,107L-103.973,108.429L-103.904,109.286L-103.836,108.143L-103.765,106.571L-103.696,107.714L-103.628,107.429L-103.559,107.286L-103.491,107.714L-103.422,107.714L-103.354,106.429L-103.285,104.571L-103.217,104L-103.149,104.857L-103.08,105.429L-103.012,106.714L-102.943,107.286L-102.875,106.286L-102.806,105.143L-102.738,105.429L-102.669,105.429L-102.601,106.286L-102.533,105.714L-102.464,106.571L-102.396,105.429L-102.327,105.714L-102.259,107.143L-102.19,107.857L-102.122,109.286L-102.053,110.429L-101.985,111.143L-101.916,111.286L-101.848,109.857L-101.78,110.857L-101.711,111.714L-101.643,112.571L-101.574,113.571L-101.506,114.286L-101.437,114.143L-101.369,113.286L-101.3,111.143L-101.232,110.571L-101.164,112.429L-101.095,113.857L-101.027,114.143L-100.958,113.143L-100.89,111.714L-100.821,110.286L-100.753,111.429L-100.684,112.429L-100.616,113L-100.548,112.143L-100.411,110.571L-100.342,109.143L-100.274,109.857L-100.205,110.143L-100.137,109.571L-100.068,109.143L-100,108.286L-99.932,107.571L-99.863,106.714L-99.795,104.571L-99.726,105.714L-99.658,105.714L-99.589,104.857L-99.521,103.857L-99.452,102.286L-99.384,102.429L-99.316,102.857L-99.247,103.857L-99.179,107L-99.11,106.857L-99.042,106.429L-98.973,105.571L-98.905,105.143L-98.836,105L-98.768,106.429L-98.7,108.286L-98.563,108.714L-98.494,106.714L-98.426,103.857L-98.357,103.429L-98.289,104.143L-98.22,105.429L-98.152,105.143L-98.084,103.429L-98.015,102.286L-97.947,100.857L-97.878,99.571L-97.81,99.571L-97.741,99L-97.673,100.429L-97.604,98.857L-97.536,98.714L-97.467,97.571L-97.399,96.143L-97.331,97L-97.262,97.571L-97.194,98.429L-97.125,97L-97.057,94.714L-96.988,95.286L-96.92,93.714L-96.851,93.286L-96.783,94.286L-96.715,95.286L-96.646,94L-96.578,92.857L-96.509,92.571L-96.441,92.857L-96.372,93.857L-96.304,93.857L-96.235,94L-96.167,94L-96.099,92.143L-96.03,93L-95.962,92L-95.893,93.143L-95.825,94.857L-95.756,95.429L-95.688,96L-95.619,95L-95.551,95.286L-95.483,94.571L-95.414,95.714L-95.346,97.714L-95.277,98.286L-95.209,97.429L-95.143,96L-95.075,95.714L-95.006,96.571L-94.938,97.286L-94.869,98.714L-94.801,100L-94.732,98L-94.664,96.571L-94.596,96.714L-94.527,97.286L-94.459,96.714L-94.39,98.429L-94.322,100.714L-94.253,99.429L-94.185,98.571L-94.116,97.429L-94.048,98.857L-93.98,98.286L-93.911,101L-93.843,101.857L-93.774,100.714L-93.706,99.714L-93.637,99.286L-93.569,99.857L-93.5,99L-93.432,100.429L-93.364,100.714L-93.295,99.571L-93.227,92.143L-93.158,91.714L-93.09,90.714L-93.021,91.429L-92.953,91.857L-92.884,92.857L-92.816,92L-92.748,90.143L-92.679,89.286L-92.611,88.714L-92.542,88.143L-92.474,89.143L-92.405,89.714L-92.337,87.571L-92.268,85L-92.2,83.857L-92.132,84.429L-92.063,84L-91.995,85.571L-91.926,87.571L-91.858,87.857L-91.789,86.286L-91.721,86.143L-91.652,83.286L-91.584,82.714L-91.516,83.143L-91.447,85.429L-91.379,84.143L-91.31,83.714L-91.242,83.143L-91.173,87.571L-91.105,88.286L-91.036,90L-90.968,91.143L-90.899,91L-90.831,88.857L-90.763,89.429L-90.694,89.571L-90.626,90.571L-90.557,92.429L-90.489,94.286L-90.42,93.143L-90.352,91.714L-90.283,92.571L-90.215,93.571L-90.147,95.429L-90.078,95.714L-90.01,97.286L-89.941,95L-89.873,92.429L-89.804,90.429L-89.736,90.286L-89.667,90.571L-89.599,93.714L-89.531,95.143L-89.462,93.286L-89.394,91.429L-89.325,92.429L-89.257,92.714L-89.188,93L-89.12,96.571L-89.051,97.857L-88.983,96.429L-88.915,93.429L-88.846,92.714L-88.778,91L-88.709,90L-88.641,91.714L-88.572,93.429L-88.504,90.143L-88.435,86.429L-88.367,85.857L-88.299,85.857L-88.23,84.714L-88.162,85.714L-88.093,85.857L-88.025,84.857L-87.956,82L-87.888,81.571L-87.819,82L-87.751,82.143L-87.683,84.143L-87.614,85.714L-87.546,84.286L-87.477,82.143L-87.409,82.143L-87.34,81.571L-87.272,80.714L-87.203,81.429L-87.135,83.571L-87.067,81.143L-86.998,78.429L-86.93,77.857L-86.861,79.286L-86.793,80.143L-86.724,82.857L-86.656,84.714L-86.587,82.714L-86.519,81L-86.45,81.286L-86.382,84.143L-86.314,85.429L-86.245,87.286L-86.177,89.571L-86.108,88L-86.04,87.714L-85.971,87.571L-85.903,88.571L-85.834,89.714L-85.766,91.286L-85.698,92.857L-85.629,88.857L-85.561,87.286L-85.492,86.429L-85.424,86.857L-85.355,87.286L-85.287,90L-85.218,91.429L-85.15,92L-85.082,89.429L-85.013,90.143L-84.945,88.857L-84.876,89.429L-84.808,89.857L-84.739,90.857L-84.671,86.143L-84.602,84.714L-84.534,83.857L-84.466,84.571L-84.397,86.286L-84.329,86.143L-84.26,86.857L-84.192,85.429L-84.123,83.857L-84.055,83.571L-83.986,81.571L-83.918,83L-83.85,84.857L-83.781,87L-83.713,85L-83.644,83.429L-83.576,85.857L-83.507,85.857L-83.439,87.571L-83.37,89.143L-83.302,89.714L-83.234,88.571L-83.165,86.286L-83.097,83.429L-83.028,83.143L-82.96,83.429L-82.891,87.429L-82.823,88.286L-82.754,89L-82.686,88L-82.617,92.429L-82.549,92.286L-82.481,94.429L-82.412,95.714L-82.344,97.143L-82.275,96.857L-82.207,95.571L-82.138,95L-82.07,95.286L-82.001,95.571L-81.933,99.286L-81.865,99L-81.796,97.286L-81.728,96L-81.659,95.571L-81.591,96.143L-81.522,96.429L-81.454,97.571L-81.385,99.286L-81.317,99.714L-81.249,101.571L-81.18,102.143L-81.112,104.286L-81.043,107.429L-80.975,110.143L-80.906,111.571L-80.838,110.857L-80.769,111.571L-80.701,112.429L-80.633,113.571L-80.564,115L-80.496,116.429L-80.427,116.857L-80.359,116.714L-80.29,116.429L-80.222,117.571L-80.153,118.857L-80.085,121.286L-80.017,122.143L-79.948,123.714L-79.88,123.857L-79.811,124.714L-79.743,126.429L-79.674,127.286L-79.606,130.286L-79.537,131.143L-79.469,131.143L-79.401,131L-79.332,130.571L-79.195,129.857L-79.127,129.429L-79.058,130.143L-78.921,129.714L-78.85,128.429L-78.782,127.429L-78.713,127L-78.645,127.286L-78.576,127.714L-78.508,127.429L-78.439,126.286L-78.371,125.286L-78.303,124.571L-78.234,123.429L-78.166,123.286L-78.097,123.286L-78.029,123.143L-77.96,121.429L-77.892,120.143L-77.823,120.143L-77.755,119.571L-77.687,118.571L-77.618,118.714L-77.55,119L-77.481,118.714L-77.413,118.857L-77.344,118.143L-77.276,119L-77.207,118.571L-77.139,118.286L-77.07,119.286L-77.002,118.286L-76.934,117.429L-76.865,116.857L-76.797,117.571L-76.728,117.857L-76.66,118L-76.591,118.143L-76.523,116.429L-76.454,115.429L-76.386,115L-76.318,114.857L-76.249,114.857L-76.181,115.857L-76.112,116.143L-76.044,115L-75.975,113.286L-75.907,112.571L-75.838,111.857L-75.77,111.286L-75.702,111.714L-75.633,112.286L-75.565,112.143L-75.496,112L-75.428,111.714L-75.359,111L-75.291,111.857L-75.222,112.286L-75.154,113L-75.086,112.857L-75.017,111.857L-74.949,112.429L-74.88,112.143L-74.812,112.857L-74.743,113.286L-74.675,113.714L-74.606,113.571L-74.538,112.714L-74.47,113.714L-74.401,113.571L-74.333,115.143L-74.264,116.429L-74.196,118L-74.127,118.143L-74.059,117.286L-73.99,117.714L-73.922,119.571L-73.854,121L-73.785,122.571L-73.717,123.429L-73.648,123.571L-73.58,123.571L-73.511,122L-73.443,120.714L-73.374,120.429L-73.306,120.286L-73.238,120.429L-73.169,117.857L-73.101,116.714L-73.032,115.714L-72.964,114.714L-72.895,114.143L-72.827,114.714L-72.758,114.571L-72.69,113.429L-72.621,111.143L-72.553,109.857L-72.485,109L-72.416,108.571L-72.348,108.857L-72.279,107.571L-72.211,104.857L-72.142,103L-72.074,101L-72.005,101.714L-71.937,102.286L-71.869,101.571L-71.8,101.857L-71.732,100.857L-71.663,99.857L-71.595,98.714L-71.526,97.714L-71.458,98L-71.389,98.714L-71.321,98.857L-71.253,98.429L-71.184,96.143L-71.116,96.571L-71.047,95.857L-70.979,96.143L-70.91,97.143L-70.842,98.286L-70.773,96L-70.705,94.143L-70.637,93.143L-70.568,94.286L-70.5,93.429L-70.431,95.286L-70.363,96L-70.294,95.143L-70.229,95.571L-70.16,96.286L-70.092,95.571L-70.023,96.286L-69.955,95.857L-69.886,95.714L-69.818,94L-69.75,93L-69.681,92.429L-69.613,91.429L-69.544,92L-69.476,93.571L-69.407,94.143L-69.339,92.714L-69.27,91.714L-69.202,91.429L-69.134,92.143L-69.065,93.143L-68.997,95.143L-68.928,95.857L-68.86,95.143L-68.791,93.857L-68.723,94.714L-68.654,94.714L-68.586,95L-68.518,96.143L-68.449,98.286L-68.381,96.286L-68.312,95.286L-68.244,95L-68.175,93L-68.107,91.714L-68.038,92.571L-67.97,94.286L-67.902,92.857L-67.833,91.857L-67.765,91.857L-67.696,91.571L-67.628,92.714L-67.559,94.714L-67.491,95.143L-67.422,92.429L-67.354,90.714L-67.286,90.571L-67.217,91.143L-67.149,91L-67.08,92.714L-67.012,93.429L-66.943,93.286L-66.875,90.857L-66.806,90.143L-66.738,88.286L-66.67,88.714L-66.601,91L-66.533,92.143L-66.464,89.714L-66.396,87.714L-66.327,88.143L-66.259,88L-66.19,88.571L-66.122,90.429L-66.054,93.429L-65.985,91.714L-65.917,88.429L-65.848,87.143L-65.78,86.143L-65.711,86.143L-65.643,86.143L-65.574,85.714L-65.506,84.429L-65.437,83L-65.369,83L-65.301,83L-65.232,83.429L-65.164,84.143L-65.095,85.286L-65.027,82.857L-64.958,81.286L-64.89,79.714L-64.821,81.143L-64.753,81L-64.685,83.714L-64.616,85.143L-64.548,82.429L-64.479,80.143L-64.411,80.571L-64.342,82.143L-64.274,81.714L-64.205,81.857L-64.137,82.143L-64.069,77L-64,65.857L-63.932,55.571L-63.863,57L-63.795,54.571L-63.726,54.857L-63.658,53.857L-63.589,53.714L-63.521,51L-63.453,50.714L-63.384,50.857L-63.316,51.714L-63.247,54.143L-63.179,55.857L-63.11,54.571L-63.042,51.429L-62.973,51.286L-62.905,50.857L-62.837,51.571L-62.768,53L-62.7,54.714L-62.631,51L-62.563,46.857L-62.494,48.143L-62.426,49.571L-62.357,49L-62.289,48.429L-62.221,49.714L-62.152,50.429L-62.084,49.143L-62.015,53.571L-61.947,63.571L-61.878,75.857L-61.81,76.857L-61.741,82.857L-61.673,81.286L-61.604,82L-61.536,81.714L-61.468,83.857L-61.399,84L-61.331,85.571L-61.262,87.143L-61.194,85L-61.125,83.857L-61.057,83.714L-60.988,86L-60.92,86.857L-60.852,89L-60.783,89.857L-60.715,89.571L-60.646,88.143L-60.578,90.429L-60.509,93.286L-60.441,93.286L-60.372,94.143L-60.304,96.286L-60.236,96.571L-60.167,96.429L-60.099,96L-60.03,97.714L-59.962,97.714L-59.893,98.714L-59.825,100L-59.756,99.286L-59.688,97L-59.62,98L-59.551,99.286L-59.483,100.286L-59.414,102.286L-59.346,104.143L-59.277,103.143L-59.209,101.714L-59.14,102.857L-59.072,103.429L-59.004,105.143L-58.935,105.857L-58.867,106.714L-58.798,106.143L-58.73,104.571L-58.661,102L-58.593,102.429L-58.524,103L-58.456,103.286L-58.388,104.714L-58.319,103.857L-58.251,102.857L-58.182,102.571L-58.114,102L-58.045,102.286L-57.977,102.857L-57.908,104L-57.84,103.571L-57.772,102L-57.703,102.143L-57.635,103.714L-57.566,104.857L-57.498,106.143L-57.429,107.714L-57.361,106.857L-57.292,106L-57.224,106.429L-57.155,106.857L-57.087,107.143L-57.019,107.857L-56.95,108L-56.882,106L-56.813,105.857L-56.745,105.143L-56.676,105.429L-56.608,106.571L-56.539,107.857L-56.471,109.429L-56.403,108.857L-56.334,106.571L-56.266,106.286L-56.197,107L-56.129,107.286L-56.06,108.714L-55.992,109.714L-55.923,109L-55.855,109.143L-55.787,109.286L-55.718,109.857L-55.65,109.857L-55.581,110.429L-55.513,111.714L-55.444,111L-55.376,110.714L-55.307,109.571L-55.239,108.571L-55.171,108.714L-55.102,110L-55.034,109.857L-54.965,108.571L-54.897,108.286L-54.828,109.143L-54.76,108.857L-54.691,109.429L-54.623,110.857L-54.555,111.714L-54.486,111.571L-54.418,111.143L-54.349,112.429L-54.281,114.286L-54.212,115.857L-54.144,117L-54.075,116.714L-54.007,114.714L-53.936,113.286L-53.867,113L-53.799,113.143L-53.73,114L-53.662,114.857L-53.593,114.571L-53.457,114.714L-53.388,114.571L-53.32,114.571L-53.251,114.143L-53.183,115.714L-53.114,117L-53.046,117.714L-52.977,117.714L-52.909,118.429L-52.841,119L-52.772,118.714L-52.704,120.143L-52.635,121.286L-52.567,121.714L-52.498,121.429L-52.43,121.857L-52.361,122.143L-52.293,122.429L-52.225,122.857L-52.156,122.714L-52.088,122.571L-52.019,122.571L-51.951,123.286L-51.882,125.286L-51.814,127L-51.745,128.571L-51.677,128L-51.608,127.571L-51.54,127.286L-51.472,128.286L-51.403,128L-51.335,128.143L-51.266,128.571L-51.198,127.857L-51.129,125.714L-51.061,125.429L-50.992,123L-50.924,121L-50.856,120.429L-50.787,120L-50.719,120.714L-50.65,120.857L-50.582,121L-50.513,121.143L-50.376,121.571L-50.308,122.143L-50.24,122.429L-50.171,120.571L-50.103,119.714L-50.034,120.286L-49.966,119.429L-49.897,118.429L-49.829,118.857L-49.76,118L-49.692,117.429L-49.624,116.571L-49.555,116.143L-49.487,115.286L-49.418,115.286L-49.35,115.429L-49.281,115.571L-49.213,115.571L-49.144,115.286L-49.076,116.571L-49.008,118.714L-48.939,117.857L-48.871,119.857L-48.802,121.857L-48.734,121.571L-48.665,121.429L-48.597,118.571L-48.528,116L-48.46,112.429L-48.392,108.714L-48.323,106.286L-48.255,103.571L-48.186,101.143L-48.118,99.571L-48.049,97.857L-47.981,96.429L-47.912,97L-47.844,97.143L-47.775,96.714L-47.707,95.429L-47.639,93.429L-47.57,92.286L-47.502,91.857L-47.433,90.714L-47.365,89.429L-47.296,88L-47.228,86.714L-47.159,86L-47.091,84.857L-47.023,83.429L-46.954,82.571L-46.886,84L-46.817,82.286L-46.749,80.286L-46.68,80.429L-46.612,79.857L-46.543,81L-46.475,82.857L-46.407,84L-46.338,84.714L-46.27,86.143L-46.201,86.143L-46.133,87L-46.064,88L-45.996,89.143L-45.927,89.143L-45.859,85.857L-45.791,82L-45.722,78.714L-45.654,77.286L-45.585,76.714L-45.517,75.714L-45.448,76.714L-45.38,75L-45.314,73.143L-45.246,71.143L-45.177,69.143L-45.109,67.143L-45.04,68L-44.972,68.571L-44.904,66.714L-44.835,64.143L-44.767,65L-44.698,63.857L-44.63,61.429L-44.561,62.571L-44.493,62.571L-44.424,60.143L-44.356,59.143L-44.288,58.429L-44.219,55.429L-44.151,53.143L-44.082,53.571L-44.014,54.429L-43.945,50.571L-43.877,49L-43.808,49.429L-43.74,49.143L-43.672,48.571L-43.603,50.429L-43.535,52L-43.466,51.286L-43.398,47.857L-43.329,46.286L-43.261,45.571L-43.192,46.286L-43.124,48.571L-43.056,50.857L-42.987,46L-42.919,41.857L-42.85,41L-42.782,39.714L-42.713,35.714L-42.645,36.571L-42.576,38.571L-42.508,36.143L-42.44,32.714L-42.371,31.571L-42.303,32.286L-42.234,33L-42.166,35.429L-42.097,39.143L-42.029,38L-41.96,35L-41.892,35.857L-41.824,34.571L-41.755,35.429L-41.687,38.286L-41.618,42L-41.55,37.571L-41.481,34.857L-41.413,34.714L-41.344,34.429L-41.276,36.429L-41.208,38.571L-41.139,40.857L-41.071,37.857L-41.002,34.143L-40.934,36L-40.865,38.143L-40.797,40.714L-40.728,42.143L-40.66,45.714L-40.591,43.429L-40.523,38.714L-40.455,36L-40.386,37L-40.318,38.143L-40.249,40L-40.181,42L-40.112,39.857L-40.044,38L-39.975,37.714L-39.907,36.286L-39.839,39.714L-39.77,43.571L-39.702,46L-39.633,45L-39.565,41.286L-39.496,44.857L-39.428,45.857L-39.359,49.143L-39.291,53.286L-39.223,56.143L-39.154,55.286L-39.086,54.143L-39.017,55.143L-38.949,57.714L-38.88,59.286L-38.812,61.857L-38.743,63.143L-38.675,62.429L-38.607,61.143L-38.538,62.286L-38.47,65.571L-38.401,68.286L-38.333,71.571L-38.264,74.143L-38.196,72.286L-38.127,72.429L-38.059,73.857L-37.991,75.286L-37.922,74.857L-37.854,80.714L-37.785,79L-37.717,78.571L-37.648,75.571L-37.58,76.286L-37.511,78.714L-37.443,78.714L-37.375,80.857L-37.306,80.857L-37.238,78.429L-37.169,77L-37.101,77.857L-37.032,78.714L-36.964,81.286L-36.895,82.714L-36.827,84.714L-36.758,83.429L-36.69,80.714L-36.622,81L-36.553,82.286L-36.485,83.857L-36.416,85.714L-36.348,88.143L-36.279,87.286L-36.211,86.857L-36.142,88.143L-36.074,86.857L-36.006,87L-35.937,88L-35.869,89.857L-35.8,86.429L-35.732,86.429L-35.663,84.857L-35.595,86.286L-35.526,87.714L-35.458,88.857L-35.39,90.429L-35.321,90.571L-35.253,87.714L-35.184,88.286L-35.116,87.714L-35.047,87.571L-34.979,88.286L-34.91,88.429L-34.842,86.286L-34.774,84.714L-34.705,83.429L-34.637,83.714L-34.568,84.143L-34.5,85.571L-34.431,87.143L-34.363,87L-34.294,85L-34.226,84.143L-34.158,83.286L-34.089,82.571L-34.021,84.429L-33.952,86.286L-33.884,84.286L-33.815,83.286L-33.747,84.571L-33.678,86.143L-33.61,87.714L-33.542,89.286L-33.473,89.429L-33.405,86.571L-33.336,84.429L-33.268,83.714L-33.199,86L-33.131,87.286L-33.062,89.143L-32.994,91.143L-32.926,89.143L-32.857,86.286L-32.789,85.143L-32.72,84.714L-32.652,86.143L-32.583,88L-32.515,89.857L-32.446,89.143L-32.378,86.143L-32.309,85.857L-32.241,87.286L-32.173,87.143L-32.104,88.143L-32.036,90.143L-31.967,88.714L-31.899,85.714L-31.83,87L-31.762,86.857L-31.693,88.429L-31.625,88.714L-31.557,88.714L-31.488,87.286L-31.42,85.429L-31.351,86L-31.283,87.857L-31.214,88L-31.146,88.857L-31.077,88.143L-31.009,86.857L-30.941,85.286L-30.872,85.714L-30.804,86.286L-30.735,88.286L-30.667,90L-30.598,90.714L-30.53,89.143L-30.461,87.429L-30.393,86.714L-30.325,88.286L-30.256,88.286L-30.188,89.714L-30.119,92.857L-30.051,91.857L-29.982,89.714L-29.914,88.857L-29.845,90.143L-29.777,89.571L-29.709,91.429L-29.64,91.429L-29.572,89.857L-29.503,87.714L-29.435,88.143L-29.366,90.429L-29.298,92.429L-29.229,93.571L-29.161,94.857L-29.093,92.714L-29.021,92.429L-28.953,93L-28.884,92.857L-28.816,94L-28.747,96.286L-28.679,97.857L-28.611,96.143L-28.542,93.857L-28.474,94.143L-28.405,95.429L-28.337,95.571L-28.268,95.571L-28.2,96.571L-28.131,94.714L-28.063,92.143L-27.995,91.571L-27.926,90.571L-27.858,92.429L-27.789,94.143L-27.721,95.857L-27.652,95.143L-27.584,95.286L-27.515,97.286L-27.447,98.857L-27.379,99.714L-27.31,99.571L-27.242,98L-27.173,96.714L-27.105,96.286L-27.036,98.571L-26.968,99.143L-26.899,100.429L-26.831,102L-26.762,101.429L-26.694,101.429L-26.626,101.286L-26.557,103.286L-26.489,105.429L-26.42,107.143L-26.352,108.286L-26.283,108.857L-26.215,109.429L-26.146,109L-26.078,109.857L-26.01,111.286L-25.941,113.857L-25.873,117L-25.804,116L-25.736,115L-25.667,113L-25.599,112.857L-25.53,112.429L-25.394,111.857L-25.325,112.143L-25.257,112.286L-25.188,112.571L-25.12,115.143L-25.051,116L-24.983,115.714L-24.914,115.857L-24.846,117.286L-24.778,116.571L-24.709,116.714L-24.641,117.286L-24.572,116L-24.504,116.286L-24.435,116.429L-24.367,116.857L-24.298,117L-24.23,116.143L-24.162,115.571L-24.093,114.714L-24.025,115.571L-23.956,116.571L-23.888,117.429L-23.819,117L-23.751,116.286L-23.682,116.571L-23.614,117.286L-23.546,119.429L-23.477,119.429L-23.409,117.143L-23.34,115.429L-23.272,114.714L-23.203,113.429L-23.135,112.714L-23.066,112L-22.998,112.286L-22.93,112.143L-22.861,110.714L-22.793,108.286L-22.724,108.286L-22.656,106.857L-22.587,106.571L-22.519,106.571L-22.45,100.143L-22.382,94.286L-22.313,87.429L-22.245,81.714L-22.177,79L-22.108,77.286L-22.04,77.143L-21.971,70.429L-21.903,65.857L-21.834,60.286L-21.766,57.571L-21.697,55.143L-21.629,54.714L-21.561,52.714L-21.424,48.857L-21.355,44.286L-21.287,40.714L-21.218,36.714L-21.15,34.429L-21.081,36.143L-21.013,35L-20.945,32.429L-20.876,28.286L-20.808,24.286L-20.739,18.571L-20.671,17.714L-20.602,15.143L-20.534,15.571L-20.465,12.429L-20.4,9.429L-20.331,12L-20.263,14.857L-20.195,19.286L-20.126,23.286L-20.058,25.429L-19.989,23.143L-19.921,18.143L-19.852,18.286L-19.784,18.143L-19.715,22.143L-19.647,23.571L-19.578,24L-19.51,22.286L-19.442,21.429L-19.373,20.857L-19.305,21.857L-19.236,25.571L-19.168,30.286L-19.099,33.714L-19.031,29.429L-18.962,28.571L-18.894,26.857L-18.826,28.571L-18.757,30.571L-18.689,35.143L-18.62,37.714L-18.552,36.429L-18.483,32.143L-18.415,33.714L-18.346,32.714L-18.278,32.857L-18.21,36L-18.141,37.857L-18.073,32.714L-18.004,29.714L-17.936,31.714L-17.867,35.286L-17.799,37.857L-17.73,41.429L-17.662,41.714L-17.594,39L-17.525,39.143L-17.457,37.857L-17.388,37.571L-17.32,39.857L-17.251,42.857L-17.183,45L-17.114,45.429L-17.046,43.429L-16.978,44L-16.909,37.571L-16.841,37.857L-16.772,39.714L-16.704,41.857L-16.635,38.857L-16.567,37.143L-16.498,38.714L-16.43,36.429L-16.362,35.429L-16.293,39.857L-16.225,41.714L-16.156,39.857L-16.088,38L-16.019,41.286L-15.951,43.857L-15.882,44.714L-15.814,47.143L-15.745,50L-15.677,48.286L-15.609,46.571L-15.54,47.286L-15.472,46.714L-15.403,48.857L-15.335,51.143L-15.266,51.429L-15.198,48.571L-15.129,45.714L-15.061,43.429L-14.993,42L-14.924,43L-14.856,51.286L-14.787,55L-14.719,51.429L-14.65,48.571L-14.582,49.714L-14.513,49.714L-14.445,51.429L-14.377,59L-14.308,62L-14.24,60.429L-14.171,58.571L-14.103,58.571L-14.034,59.286L-13.966,60.857L-13.897,62.143L-13.829,64.714L-13.761,62L-13.692,60.857L-13.624,61.143L-13.555,60.857L-13.487,63.571L-13.418,66.571L-13.35,69.286L-13.281,68.286L-13.213,66.714L-13.145,68.429L-13.076,68.857L-13.008,69.714L-12.939,73.143L-12.871,75.429L-12.802,72.857L-12.734,72L-12.665,74.143L-12.597,76.286L-12.529,77.286L-12.46,78.286L-12.392,79.571L-12.323,78.429L-12.255,76L-12.186,76.429L-12.118,78.143L-12.049,77.429L-11.981,79L-11.913,80.429L-11.844,79.143L-11.776,77.429L-11.707,78L-11.639,77.429L-11.57,77.857L-11.502,81L-11.433,80.714L-11.365,78L-11.296,74.143L-11.228,73.571L-11.16,75.143L-11.091,76.571L-11.023,80L-10.954,82.571L-10.886,79.714L-10.817,77.714L-10.749,78.571L-10.68,76.286L-10.612,76.571L-10.544,76.857L-10.475,79.857L-10.407,78L-10.338,76.286L-10.27,73.429L-10.201,73.429L-10.133,74L-10.064,75.429L-9.996,77.857L-9.928,77.429L-9.859,75.143L-9.791,75.571L-9.722,73.143L-9.654,73.857L-9.585,76.429L-9.517,74.714L-9.448,69.714L-9.38,68.143L-9.312,68.571L-9.243,71.286L-9.175,71L-9.106,72.571L-9.038,73.714L-8.969,70.714L-8.901,68.571L-8.832,70.429L-8.764,68.571L-8.696,69.143L-8.627,72.571L-8.559,73.286L-8.49,72.429L-8.422,69.429L-8.353,68.857L-8.285,69.286L-8.216,71.857L-8.148,74.714L-8.08,75.143L-8.011,73.857L-7.943,73L-7.874,70.143L-7.806,71.286L-7.737,71.714L-7.669,74.857L-7.6,76.429L-7.532,74.571L-7.463,74.143L-7.395,76.143L-7.327,75.143L-7.258,75.286L-7.19,75.571L-7.121,78.143L-7.053,76.714L-6.984,73L-6.916,74L-6.847,73.429L-6.779,74L-6.711,78L-6.642,79.571L-6.574,77.714L-6.505,76.571L-6.437,77.143L-6.368,77.857L-6.3,76.857L-6.231,78L-6.163,77.286L-6.095,75.857L-6.026,76.714L-5.958,77.571L-5.889,78.571L-5.821,80.857L-5.752,81.714L-5.684,82.571L-5.615,82.286L-5.547,81.143L-5.479,81.714L-5.41,83.857L-5.342,86L-5.273,89.143L-5.205,90.857L-5.136,89.571L-5.068,88.143L-4.999,88.714L-4.931,92L-4.863,92.571L-4.794,93.286L-4.726,94.143L-4.657,92.857L-4.589,92L-4.52,94.143L-4.452,96.714L-4.383,96.571L-4.315,98.714L-4.247,103.143L-4.178,101.429L-4.107,103.286L-4.038,104L-3.97,103.286L-3.901,103L-3.833,102.714L-3.765,103.143L-3.696,103.857L-3.628,103L-3.559,102.286L-3.491,103.429L-3.422,102.857L-3.354,104.714L-3.285,104.857L-3.217,103.143L-3.149,101.286L-3.08,103.714L-3.012,104.429L-2.943,105L-2.875,105.143L-2.806,105.857L-2.738,106.571L-2.669,106.143L-2.601,106.857L-2.533,107.714L-2.464,108.571L-2.396,108.714L-2.327,108.286L-2.259,106.571L-2.19,105.714L-2.122,107L-2.053,107.286L-1.985,108.714L-1.916,110.143L-1.848,110.286L-1.78,109.714L-1.711,108.714L-1.643,107L-1.574,107.429L-1.506,109L-1.437,109.286L-1.369,110.571L-1.3,109L-1.232,109.143L-1.164,110.429L-1.095,112.571L-1.027,111.714L-0.958,113.143L-0.89,113.143L-0.821,112.857L-0.753,112.857L-0.684,113.571L-0.616,114.286L-0.548,115.143L-0.411,115.857L-0.342,115.714L-0.274,115.429L-0.205,117L-0.137,118.571L-0.068,119.286L0,120.286L0.068,120.286L0.137,119.571L0.205,116.857L0.274,116.857L0.342,115.714L0.411,117.429L0.479,117.571L0.548,117.857L0.616,117.143L0.684,115.429L0.753,115.286L0.821,116.286L0.89,116.143L0.958,117L1.027,117.714L1.095,117.714L1.164,115.714L1.232,113.857L1.3,112.571L1.369,111.143L1.437,111.714L1.506,109.714L1.574,107.571L1.643,105.286L1.711,102.571L1.78,97.143L1.848,96.286L1.916,95.429L1.985,93.857L2.053,89.286L2.122,86L2.19,83.714L2.259,84.571L2.327,84.286L2.396,85.571L2.464,84.714L2.533,82.857L2.601,80.571L2.669,75.286L2.738,74.143L2.806,72.571L2.875,72.429L2.943,71.857L3.012,70.143L3.08,65.571L3.149,63.429L3.217,62L3.285,62L3.354,62.429L3.422,63.571L3.491,60.857L3.559,60.714L3.628,60.143L3.696,59.286L3.765,59.429L3.833,63.429L3.901,63.429L3.97,62.429L4.038,60.143L4.107,62.429L4.175,62L4.244,59.857L4.312,60.143L4.381,60.571L4.449,58.143L4.517,53.857L4.586,54L4.654,54L4.723,58.286L4.791,60.143L4.86,61.286L4.928,58.429L4.994,55.714L5.062,51.857L5.131,52L5.199,52L5.268,53.714L5.336,54.429L5.404,53L5.473,51L5.541,50.143L5.61,49.429L5.678,48.286L5.747,49.714L5.815,50.714L5.884,48.857L5.952,46.429L6.02,47L6.089,47.571L6.157,48.429L6.226,52L6.294,56.286L6.363,54.714L6.431,52L6.5,52.571L6.568,54.857L6.636,54.714L6.705,56.571L6.773,56.857L6.842,55.286L6.91,53.429L6.979,54.143L7.047,55.714L7.116,59.429L7.184,62.857L7.252,62.571L7.321,60.857L7.389,60.143L7.458,60L7.526,58.571L7.595,60.429L7.663,61.571L7.732,64L7.8,59.857L7.868,57.714L7.937,53.143L8.005,53.714L8.074,52.286L8.142,55.286L8.211,55.429L8.279,53.857L8.348,51.571L8.416,49.571L8.484,50.286L8.553,49.857L8.621,51.571L8.69,53.143L8.758,51.143L8.827,49L8.895,48.286L8.964,48.714L9.032,48.714L9.101,49.857L9.169,51.286L9.237,48.429L9.306,49.143L9.374,49.571L9.443,48.714L9.511,50L9.58,53.429L9.648,54.857L9.717,54.429L9.785,53.286L9.853,55.857L9.922,57.143L9.99,62.286L10.059,64L10.127,66.714L10.196,66.143L10.264,64.286L10.333,62.857L10.401,62L10.469,65.286L10.538,67.571L10.606,70.714L10.675,71.714L10.743,70.571L10.812,68L10.88,70.429L10.949,72L11.017,74.286L11.085,76.714L11.154,76L11.222,73.286L11.291,74.286L11.359,73.286L11.428,74.857L11.496,77.571L11.565,78.286L11.633,76.286L11.701,74.571L11.77,74.857L11.838,75.429L11.907,76.571L11.975,78.286L12.044,80.571L12.112,79.286L12.181,77.143L12.249,75.143L12.317,76.714L12.386,78.143L12.454,81.571L12.523,83L12.591,81.286L12.66,77.714L12.728,75.571L12.797,76L12.865,78.429L12.933,79L13.002,80.429L13.07,78.143L13.139,76.143L13.207,75.714L13.276,74.429L13.344,75.143L13.413,78L13.481,78.857L13.55,77L13.618,76.429L13.686,76.429L13.755,77L13.823,77L13.892,78L13.96,76.714L14.029,74.857L14.097,72.429L14.166,73.429L14.234,73.429L14.302,75.143L14.371,76L14.439,75.857L14.508,74.143L14.576,72.286L14.645,73.714L14.713,75.571L14.782,76.429L14.85,79.143L14.918,82L14.987,81.714L15.055,81.571L15.124,83.143L15.192,82.571L15.261,82.857L15.329,86.857L15.398,87.286L15.466,84.571L15.534,82.857L15.603,83.857L15.671,84L15.74,85.143L15.808,86L15.877,87.714L15.945,86.286L16.014,87.571L16.082,87.429L16.15,89L16.219,88.429L16.287,90.429L16.356,91.857L16.424,91.286L16.493,91.143L16.561,90.429L16.63,91.429L16.698,91.857L16.766,92.571L16.835,93.286L16.903,91L16.972,89L17.04,87.571L17.109,87.429L17.177,87.429L17.246,90.286L17.314,91.571L17.383,90.857L17.451,89.286L17.519,91.429L17.588,92.429L17.656,92.286L17.725,92.714L17.793,94.429L17.862,93.714L17.93,91.571L17.999,92L18.067,90.857L18.135,90.857L18.204,91.571L18.272,93.429L18.341,93L18.409,91.714L18.478,91.429L18.546,92.571L18.615,94.571L18.683,94.857L18.751,95.857L18.82,95.571L18.888,94.571L18.957,95.429L19.025,95.429L19.094,97L19.162,97.429L19.231,98.429L19.299,97.429L19.367,97.286L19.436,97.286L19.504,98.429L19.573,98.571L19.641,98.571L19.71,100.143L19.778,101L19.847,99.571L19.915,98.714L19.983,99.857L20.052,100.286L20.12,102.857L20.189,104.857L20.257,104.286L20.326,103.857L20.394,105L20.463,106.571L20.531,107.714L20.599,108.429L20.668,108.857L20.736,108.571L20.805,106.286L20.873,105.857L20.942,105L21.01,104.571L21.079,106.571L21.147,108L21.215,107.429L21.287,106.571L21.355,105.429L21.424,104.714L21.492,105L21.561,106.714L21.629,107.286L21.697,107.857L21.766,106.143L21.834,106L21.903,106.714L21.971,107.857L22.04,108.857L22.108,110.429L22.177,110.571L22.245,111.429L22.313,111.143L22.382,111.714L22.45,111L22.519,111.143L22.587,111.429L22.656,110.571L22.724,110.143L22.793,110.714L22.861,111.714L22.93,113.429L22.998,116.571L23.066,118L23.135,117.143L23.203,115.714L23.272,116.571L23.34,116.286L23.409,118.571L23.477,120.286L23.546,120.571L23.614,119.429L23.682,119.143L23.751,119.143L23.819,120.857L23.888,120.571L23.956,119.857L24.025,119.429L24.093,118.286L24.162,115.571L24.23,115.714L24.298,113.714L24.367,113.857L24.435,112.429L24.504,110.429L24.641,109.143L24.709,106.429L24.778,107.286L24.846,107.714L24.914,106.571L24.983,106.571L25.051,105.571L25.12,104.429L25.188,103.429L25.257,104.429L25.325,104.571L25.394,104.429L25.599,103.714L25.667,102.286L25.736,102L25.804,102.857L25.873,104L25.941,105L26.01,103.286L26.078,101L26.146,100.857L26.215,100.429L26.283,100L26.352,101.143L26.42,103.571L26.489,103.429L26.557,103.286L26.626,102.429L26.694,101.857L26.762,103.286L26.831,104.286L26.899,106.429L26.968,105.429L27.036,104.429L27.105,104.857L27.173,104L27.242,104.143L27.31,105.286L27.379,106.714L27.447,105.571L27.515,106.286L27.584,104.857L27.652,106L27.721,106.857L27.789,106.857L27.858,106.714L27.926,106.286L27.995,106.286L28.063,107.714L28.131,109.429L28.2,109.714L28.268,111.286L28.337,112.714L28.405,112L28.474,105.714L28.542,104.714L28.611,106.286L28.679,107.143L28.747,108.571L28.816,109.143L28.884,106.429L28.953,103.714L29.021,101L29.09,99L29.158,98.143L29.227,98.714L29.295,97.143L29.363,93.714L29.432,90L29.5,87.714L29.569,84.857L29.637,83.429L29.706,83.286L29.774,82L29.843,78.714L29.908,76L29.977,72.714L30.045,69L30.114,68.429L30.182,68.429L30.25,68.857L30.319,66.429L30.387,64L30.456,61.857L30.524,65L30.593,63.429L30.661,61.714L30.73,61.286L30.798,58.714L30.866,56L30.935,56L31.003,56L31.072,57.429L31.14,58.143L31.209,59.429L31.277,58.143L31.346,57.143L31.414,57.429L31.482,58.143L31.551,58.857L31.619,61.143L31.688,63L31.756,61.286L31.825,60.714L31.893,61.714L31.962,61.571L32.03,62.571L32.098,65.571L32.167,66.143L32.235,62.429L32.304,60.143L32.372,59.571L32.441,59.143L32.509,61L32.578,63.143L32.646,65L32.714,64.429L32.783,63.429L32.851,63.857L32.92,64.286L32.988,65.286L33.057,66.857L33.125,69L33.194,70L33.262,67.714L33.33,68.429L33.399,69L33.467,70.286L33.536,71.429L33.604,72.429L33.673,70.286L33.741,68.429L33.81,68L33.878,68.429L33.946,69.857L34.015,71.286L34.083,73.714L34.152,72L34.22,70.429L34.289,72L34.357,72.143L34.426,73.143L34.494,75.857L34.563,76.429L34.631,75L34.699,71.286L34.768,72.571L34.836,72.143L34.905,72.714L34.973,74.857L35.042,76.857L35.11,76.286L35.179,75L35.247,73.571L35.315,73.286L35.384,73.286L35.452,75.571L35.521,77.143L35.589,76.286L35.658,77.857L35.726,78.143L35.795,79L35.863,79.714L35.931,80.714L36,81.714L36.068,78.429L36.137,76.714L36.205,75.714L36.274,77L36.342,78.714L36.411,80L36.479,81.571L36.547,80.143L36.616,79L36.684,78.857L36.753,81.429L36.821,79.143L36.89,82.286L36.958,83.714L37.027,83.286L37.095,79.429L37.163,79.143L37.232,78.714L37.3,80.429L37.369,82.571L37.437,84.714L37.506,83.143L37.574,81.714L37.643,83.143L37.711,82L37.779,82.857L37.848,84.714L37.916,86.857L37.985,85.143L38.053,83.714L38.122,85.286L38.19,85L38.259,87L38.327,87.714L38.396,88.857L38.464,88L38.532,86.286L38.601,85.571L38.669,86.286L38.738,87.429L38.806,89.571L38.875,92.857L38.943,91.714L39.012,91L39.08,89.143L39.148,91.429L39.217,92.857L39.285,94.857L39.354,95.714L39.422,95.429L39.491,93.571L39.559,94.571L39.628,93.714L39.696,94.286L39.764,94.571L39.833,96.571L39.901,96.714L39.97,96L40.038,97.714L40.107,97L40.175,98.857L40.244,101.429L40.312,102.286L40.38,100.714L40.449,99.857L40.517,100.429L40.586,101.143L40.654,102.714L40.723,103.571L40.791,105.143L40.86,102.286L40.928,100.714L40.996,99.571L41.065,100.857L41.133,102.571L41.202,103.714L41.27,103.714L41.339,102.429L41.407,100.571L41.476,99.857L41.544,100L41.612,100.429L41.681,102.429L41.749,102.714L41.818,102.429L41.886,101.286L41.955,99.143L42.023,98.429L42.092,98L42.16,99.571L42.228,100.571L42.297,99.714L42.365,98.714L42.434,98.857L42.502,98.286L42.571,98.429L42.639,99.286L42.708,99L42.776,98.143L42.845,97.286L42.913,98.571L42.981,99.429L43.05,100.571L43.118,100.429L43.187,100.714L43.255,99.857L43.324,100.429L43.392,99.857L43.461,101.286L43.529,102.429L43.597,103.714L43.666,104.429L43.734,103.143L43.803,102.429L43.871,102.143L43.94,101.143L44.008,102.286L44.077,104.143L44.145,105.429L44.213,105.286L44.282,105.143L44.35,103.429L44.419,103.143L44.487,104.714L44.556,106.286L44.624,106.571L44.693,106.714L44.761,105.571L44.829,105.714L44.898,105L44.966,104.857L45.035,105L45.103,106.286L45.172,105.143L45.24,104.571L45.309,105L45.377,105.286L45.445,106.429L45.514,106.857L45.582,107L45.651,106.143L45.719,104.286L45.788,104.286L45.856,102.714L45.925,103.571L45.993,105.571L46.061,106.571L46.13,106.143L46.201,106.143L46.27,105.571L46.338,105.857L46.407,108.143L46.475,109.571L46.543,110L46.612,109.714L46.68,110.857L46.749,111.714L46.817,114.571L46.886,115.143L46.954,116.714L47.023,117.571L47.091,116.714L47.159,116.429L47.228,117.571L47.296,118.857L47.365,119.714L47.433,119.571L47.502,120.286L47.57,119.857L47.639,120.714L47.707,121.571L47.775,123.429L47.844,125.143L47.912,127.429L47.981,128L48.049,128.286L48.118,129.143L48.186,129.714L48.255,130L48.323,131.143L48.392,130.429L48.46,129L48.528,128.714L48.597,129L48.665,128.429L48.734,127L48.802,126.857L48.871,125.714L49.008,125.429L49.076,124.857L49.144,124.286L49.213,125.143L49.281,123.714L49.35,123.429L49.418,123L49.487,122.143L49.555,122L49.624,122.143L49.692,121L49.829,119.714L49.897,118.143L49.966,116.571L50.103,114.714L50.171,115.143L50.376,114.429L50.445,112.857L50.513,111.286L50.582,109.143L50.65,107.286L50.719,106.286L50.787,107L50.856,108.143L50.924,105.286L50.992,103.143L51.061,102.286L51.129,101.286L51.198,99.143L51.266,99.286L51.335,99.143L51.403,98.714L51.472,98.286L51.54,97.429L51.608,97.571L51.677,96.857L51.745,97.143L51.814,96.571L51.882,95.143L51.951,93.143L52.019,91.286L52.088,89.571L52.156,90.429L52.225,91.286L52.293,92L52.361,88.857L52.43,87.571L52.498,88.429L52.567,87.429L52.635,87.286L52.704,88.571L52.772,89.143L52.841,87L52.909,86.143L52.977,86.714L53.046,86.429L53.114,86.286L53.183,88.143L53.251,89.143L53.32,88.571L53.388,88.714L53.457,89.286L53.525,90.143L53.593,90.286L53.662,90L53.73,90.857L53.799,87.857L53.867,86L53.936,86.571L54.004,87.429L54.073,90.571L54.141,93.286L54.209,94.143L54.278,93.429L54.346,91.571L54.415,91.143L54.483,90.429L54.552,89.429L54.62,90.429L54.689,91.571L54.757,88.857L54.823,87.143L54.891,87L54.96,86L55.028,86.143L55.096,87.857L55.165,88.714L55.233,87.429L55.302,84.857L55.37,82.429L55.439,79L55.507,78.286L55.576,78.143L55.644,78.571L55.712,75.429L55.781,73.571L55.849,73.857L55.918,73.286L55.986,70.714L56.055,70.571L56.123,70.143L56.192,67L56.26,64.571L56.328,61.714L56.397,63L56.465,64.429L56.534,66.286L56.602,66.714L56.671,65.429L56.739,63.143L56.808,63.286L56.876,61.429L56.944,60.429L57.013,61L57.081,63.286L57.15,61.286L57.218,59L57.287,58.143L57.355,59.571L57.424,61L57.492,63.857L57.56,64.857L57.629,62.571L57.697,60.429L57.766,62.286L57.834,61.286L57.903,62.714L57.971,65.571L58.04,68.143L58.108,69.714L58.176,69.429L58.245,69.571L58.313,68L58.382,70.143L58.45,71.571L58.519,72.857L58.587,71.143L58.656,70.429L58.724,70.571L58.792,71.857L58.861,72.429L58.929,75.857L58.998,78.429L59.066,77.429L59.135,75.286L59.203,74.143L59.272,75.429L59.34,75.429L59.409,76.714L59.477,79L59.545,78L59.614,75.857L59.682,76.429L59.751,77.286L59.819,79L59.888,81.857L59.956,82.857L60.025,80.714L60.093,80.429L60.161,78.857L60.23,78.857L60.298,80L60.367,83.571L60.435,86.143L60.504,86.286L60.572,85.286L60.641,87.857L60.709,88.143L60.777,90L60.846,91L60.914,93L60.983,92L61.051,90.714L61.12,90.571L61.188,91.714L61.257,93.714L61.325,95.286L61.393,97.571L61.462,96.857L61.53,94.429L61.599,93.286L61.667,93.286L61.736,94.429L61.804,95.857L61.873,96.143L61.941,94.429L62.009,93.571L62.078,94.429L62.146,92.857L62.215,92.286L62.283,92.857L62.352,93.143L62.42,91.143L62.489,87.714L62.557,86.571L62.625,85.857L62.694,84.571L62.762,84.714L62.831,84.714L62.899,84.857L62.968,84L63.036,84.286L63.105,84.714L63.173,85.714L63.242,86.571L63.31,87.571L63.378,85.571L63.447,84.143L63.515,82.714L63.584,84.143L63.652,85L63.721,87.286L63.789,88.429L63.858,87.857L63.926,87.714L63.994,88.571L64.063,88.714L64.131,89.143L64.2,92L64.268,93.286L64.337,92.571L64.405,92L64.474,92.714L64.542,95L64.61,95.143L64.679,97L64.747,98.143L64.816,98.857L64.884,97.714L64.953,95.571L65.021,95.857L65.09,96.143L65.158,97.286L65.226,98.857L65.295,98.571L65.363,96.857L65.432,97L65.5,97.571L65.569,98.714L65.637,98.857L65.706,100.714L65.774,98L65.842,97.429L65.911,97L65.979,96.286L66.048,96.429L66.116,96.857L66.185,97.857L66.253,96.714L66.322,96.143L66.39,95.429L66.458,97L66.527,97.857L66.595,98.429L66.664,99L66.732,98.571L66.801,96.286L66.869,94.571L66.938,93.429L67.006,95.286L67.074,96L67.143,96.714L67.211,95.429L67.28,93.571L67.348,92.143L67.417,92.429L67.485,93.286L67.554,93.714L67.622,95.429L67.691,94.143L67.759,93.714L67.827,94.714L67.896,93.286L67.964,93.429L68.033,95.286L68.101,96.571L68.17,96.286L68.238,95.143L68.307,94.286L68.375,94.571L68.443,93.714L68.512,93.714L68.58,94.857L68.649,93.571L68.717,92.429L68.786,91.143L68.854,90.714L68.923,91.857L68.991,94.429L69.059,95.857L69.128,95.286L69.196,94.429L69.265,94.286L69.333,95.429L69.402,96.571L69.47,98.286L69.539,98.571L69.607,97.714L69.675,95.286L69.744,96L69.812,96.571L69.881,96.429L69.949,98.571L70.018,99.571L70.086,97.857L70.155,97.429L70.223,98L70.291,98.714L70.36,101L70.428,101.286L70.497,102.429L70.565,101.429L70.634,98.714L70.702,98.571L70.771,98.857L70.839,100.571L70.907,102.571L70.976,103.286L71.044,103L71.116,102.571L71.184,102.857L71.253,103.714L71.321,105.571L71.389,106.714L71.458,107.714L71.526,106.857L71.595,107.857L71.663,109.286L71.732,111.286L71.8,112.571L71.869,112.857L71.937,114L72.005,113.286L72.074,111.286L72.142,112.714L72.211,112.857L72.348,113.143L72.416,114L72.485,113.143L72.553,114L72.621,112.286L72.69,113L72.758,114.857L72.827,116.857L72.895,118.143L72.964,118.286L73.032,119.286L73.101,119.286L73.169,118.571L73.238,117.714L73.306,117.143L73.374,117.143L73.443,114.143L73.511,112.857L73.58,111.143L73.648,110.857L73.717,110.571L73.785,110.429L73.854,110.714L73.922,109.571L73.99,108L74.059,107.857L74.127,108.857L74.196,110.714L74.264,111L74.333,111.143L74.401,111.714L74.47,111.429L74.538,111.571L74.606,109.714L74.675,111.714L74.743,112L74.812,111.857L74.88,110.286L74.949,109.714L75.017,108.571L75.086,108.714L75.154,109.143L75.222,110.429L75.291,111L75.359,111.286L75.428,111L75.496,112.429L75.565,112.143L75.633,113.286L75.702,114.429L75.77,114.857L75.838,113.429L75.907,113.286L75.975,114L76.044,115.429L76.112,115.143L76.181,114.857L76.249,115.857L76.318,114.857L76.386,114.143L76.454,113.714L76.523,111.143L76.591,110.714L76.66,111.571L76.728,113L76.797,112L76.865,111.714L76.934,111L77.002,110L77.07,110.857L77.139,110.571L77.207,109.714L77.276,107.429L77.344,107.143L77.413,107.143L77.481,107.143L77.55,107.857L77.618,108.714L77.687,108.714L77.755,107.286L77.823,105L77.892,106L77.96,104.286L78.029,103.143L78.097,102.714L78.166,103.143L78.234,101.571L78.303,99.857L78.371,98.571L78.439,98.286L78.508,97.286L78.576,99.857L78.645,99.857L78.713,96.286L78.782,94.286L78.85,94.143L78.919,93L78.987,93L79.055,93.714L79.124,94.571L79.192,92.143L79.261,90.143L79.329,89.857L79.398,87L79.466,86.429L79.535,87L79.603,88.286L79.671,85.714L79.737,79.714L79.805,77.286L79.874,77.571L79.942,75.857L80.011,77.571L80.079,78L80.148,75.714L80.216,74.571L80.285,74.857L80.353,74.286L80.422,71.143L80.49,71L80.558,72.286L80.627,70L80.695,68L80.764,70.286L80.832,70.429L80.901,70.143L80.969,70.429L81.038,71.571L81.106,70.143L81.174,65.714L81.243,65.429L81.311,66.286L81.38,65.857L81.448,68.857L81.517,69L81.585,67L81.654,61.429L81.722,58.714L81.79,51.714L81.859,52.857L81.927,49.714L81.996,48.143L82.064,46.429L82.133,42.857L82.201,43.857L82.27,42L82.338,40.286L82.406,41.857L82.475,46.571L82.543,41.714L82.612,34.286L82.68,23.286L82.749,21.286L82.817,20.143L82.886,22.143L82.954,24.429L83.022,25.429L83.091,21.571L83.159,17.429L83.228,13.857L83.296,13.143L83.365,14.143L83.433,15.286L83.502,11.571L83.57,9L83.638,8.571L83.707,9.714L83.775,12.429L83.844,25.429L83.912,28L83.981,30.429L84.049,31L84.118,31.714L84.186,33.571L84.255,32.429L84.323,33.714L84.391,36.857L84.46,35.143L84.528,33.571L84.597,38L84.665,43.571L84.734,54.571L84.802,59L84.871,59L84.939,52L85.007,48.286L85.076,47.571L85.144,50.857L85.213,55.571L85.281,62.857L85.35,66.429L85.418,65.571L85.487,66.429L85.555,69L85.623,72.714L85.692,75.429L85.76,79.143L85.829,77.571L85.897,76.143L85.966,75.286L86.034,76.714L86.103,79.143L86.171,79.571L86.239,82.571L86.308,85.571L86.376,83.714L86.445,76.857L86.513,78.429L86.582,80.143L86.65,76.286L86.719,75.429L86.787,77.714L86.855,74.857L86.924,75L86.992,79.857L87.061,81.286L87.129,80.857L87.198,81.714L87.266,82.143L87.335,80.571L87.403,78.571L87.471,76.286L87.54,73.286L87.608,69.857L87.677,69.143L87.745,67.571L87.814,64.571L87.882,68L87.951,68.286L88.019,67.286L88.087,67.286L88.156,68L88.224,67.857L88.293,67L88.361,64.857L88.43,64.286L88.498,68.571L88.567,67.571L88.635,67.429L88.704,70.571L88.772,70.714L88.84,70.571L88.909,73L88.977,74.857L89.046,77L89.114,77L89.183,77.429L89.251,76.571L89.32,76L89.388,75.429L89.456,64.571L89.525,65.571L89.593,66L89.662,69.429L89.73,70L89.799,69.857L89.867,71.714L89.936,70.286L90.004,70.429L90.072,70.571L90.141,71.429L90.209,68.714L90.278,67.571L90.346,66.429L90.415,66.714L90.483,70.714L90.552,72.286L90.62,73.286L90.688,72.571L90.757,69L90.825,69.714L90.894,67.857L90.962,67.714L91.031,68.571L91.099,68.429L91.168,69.857L91.236,70.714L91.304,71L91.373,72L91.441,71.857L91.51,83.714L91.578,86.429L91.647,89.571L91.715,89.571L91.784,88.714L91.852,90.429L91.92,91.429L91.989,94.143L92.057,95.286L92.126,96.429L92.194,93.429L92.263,95.714L92.331,97.143L92.4,99.429L92.468,100.429L92.537,101L92.605,101.429L92.673,102.143L92.742,103.143L92.81,108.571L92.879,106L92.947,108.571L93.016,109L93.084,107.429L93.153,106.143L93.221,105.857L93.289,106L93.358,107L93.426,108.143L93.495,109.571L93.563,109.857L93.632,110.429L93.7,110.286L93.769,111L93.837,111.571L93.905,111.714L94.042,110.857L94.111,109.429L94.179,109L94.248,108.857L94.316,111.714L94.385,112.429L94.453,113.143L94.521,112.714L94.59,113.714L94.658,110.143L94.727,110.857L94.795,109.857L94.864,110L94.932,110.429L95.001,113.857L95.069,112.143L95.137,111.714L95.206,113L95.274,113.857L95.343,115.143L95.411,116.143L95.48,116L95.548,109.286L95.617,102.286L95.685,102.714L95.753,102.857L95.822,103.429L95.89,104.286L95.959,104.857L96.03,104.429L96.099,105.714L96.167,107.429L96.235,108.286L96.304,109.571L96.372,109L96.441,108.429L96.509,108L96.578,108L96.646,108L96.715,111.857L96.783,111.714L96.851,111.857L96.92,109.286L96.988,109.286L97.057,110L97.125,111.857L97.194,113L97.262,113.571L97.331,114.143L97.399,113.857L97.467,110.429L97.536,111L97.604,115.143L97.741,121L97.878,121L97.947,120.143L98.015,119.857L98.084,119.857L98.152,120.286L98.22,120.143L98.289,119.857L98.357,118.714L98.426,118.143L98.494,117.571L98.563,118.286L98.631,118.429L98.7,117.714L98.768,117.286L98.836,115.857L98.905,115.571L98.973,116L99.042,117.286L99.11,120.286L99.179,120.286L99.316,120.571L99.384,119.571L99.452,119.286L99.521,119.286L99.589,119.571L99.658,119.571L99.726,122.429L99.795,121.714L99.863,122.714L99.932,125.143L100.068,124.857L100.137,125.286L100.205,124.714L100.274,124.714L100.342,123.286L100.411,123.143L100.479,123L100.548,123.857L100.616,124.429L100.684,125L100.821,125.143L100.89,125.429L100.958,126L101.027,127L101.095,128.571L101.164,129.143L101.232,128.429L101.3,128L101.369,127.429L101.437,127.429L101.506,126.857L101.574,127.143L101.643,127.571L101.711,127.143L101.78,126L101.848,125.571L101.916,125L101.985,125.571L102.053,126.286L102.122,126.714L102.19,127.286L102.259,127L102.327,127.571L102.396,127.143L102.464,127.857L102.533,128.143L102.601,128.857L102.669,128.286L102.738,127.857L102.806,127.286L102.875,126.286L102.943,124.143L103.012,125L103.08,124.857L103.149,123.571L103.217,123.429L103.285,123.857L103.354,124.286L103.422,124.857L103.491,125.286L103.559,126L103.628,126.429L103.696,126.714L103.765,123L103.833,123.714L103.901,119.286L103.97,117L104.038,116.857L104.107,117.857L104.175,118L104.244,118.143L104.312,119L104.381,118.143L104.449,118.143L104.517,118L104.586,117.714L104.651,117.714L104.72,118.429L104.788,119.286L104.857,120L104.925,121.143L104.994,123.429L105.062,123.714L105.131,123.571L105.199,125L105.268,124.143L105.336,124.429L105.404,122L105.678,120.571L105.747,119.714L105.815,118.571L105.952,115.714L106.02,115.714L106.157,120.143L106.294,120L106.363,125L106.431,126.286L106.568,126.286L106.705,124.429L106.773,122L106.842,121.286L107.184,120.714L107.389,121.857L107.595,122.286L107.663,122.714L107.732,123.143L107.8,123.143L107.868,123L107.937,122.571L108.005,122L108.074,121.714L108.142,121.286L108.211,120.857L108.279,120.714L108.348,120.286L108.416,120.857L108.484,120.571L108.553,122.286L108.621,123L108.69,123.857L108.758,125L108.827,127.429L108.895,123.429L108.964,123L109.032,123.143L109.101,123L109.169,125L109.237,124.857L109.306,125.286L109.443,125.714L109.511,125.286L109.58,125.429L109.648,125.286L109.717,124.714L109.785,123.857L109.853,123.714L109.922,123.286L109.99,122.571L110.059,122.286L110.127,122.143L110.196,122.571L110.264,121.571L110.333,120L110.401,118.714L110.469,118L110.538,117.429L110.606,117.714L110.675,118.286L110.743,118.429L110.812,117.714L110.88,117.571L110.949,117.857L111.017,121L111.085,121.429L111.154,121.571L111.222,121.143L111.359,120.143L111.428,120.143L111.496,120.857L111.565,121.429L111.633,122.571L111.701,122.286L111.77,122.571L111.838,122.857L111.907,123.429L111.975,123.143L112.044,123.571L112.112,124L112.181,123.857L112.249,124.143L112.317,123.857L112.386,125L112.454,126.286L112.523,127.714L112.591,128.857L112.66,129.286L112.728,129L112.797,128.429L112.865,128.286L112.933,128.571L113.002,128.714L113.07,129.143L113.139,129.429L113.207,127.286L113.276,127L113.344,126.286L113.413,126.571L113.481,126.714L113.55,127.429L113.618,127.714L113.755,126.286L113.823,126.429L113.892,126.429L113.96,126.714L114.029,127.429L114.097,127.429L114.166,127.571L114.234,127.857L114.302,127.429L114.371,127.857L114.439,127.429L114.508,127.429L114.576,126.714L114.645,126.571L114.713,124.857L114.782,124.286L114.85,123.571L114.918,124.143L114.987,125L115.055,124.429L115.124,123.571L115.192,122.143L115.261,121.857L115.329,123.857L115.398,124.143L115.466,125.429L115.603,126L115.671,125.571L115.74,125.143L115.808,124.714L115.877,126L115.945,126.286L116.014,125.571L116.082,125L116.15,123.857L116.219,122.857L116.287,122.286L116.356,122.143L116.424,122.286L116.493,121.714L116.561,121.143L116.63,121.143L116.698,122.143L116.766,122.571L116.835,123.857L116.903,124.714L116.972,125.857L117.04,125.143L117.177,124.429L117.246,125.143L117.314,125.571L117.383,127L117.451,127.714L117.519,127.143L117.588,126.571L117.656,126.429L117.725,126.429L117.793,126.714L117.862,127.143L117.93,128.286L118.067,127.714L118.135,127.143L118.204,127.286L118.272,127.857L118.341,128L118.409,130L118.478,130L118.546,129.714L118.615,130.429L118.683,130.857L118.751,131.857L118.82,131.714L118.888,132.143L118.957,131L119.025,131.286L119.094,131.286L119.162,131L119.231,129.714L119.299,130.429L119.367,129.714L119.436,129.857L119.504,129.143L119.573,129L119.641,129.429L119.71,130.429L119.778,130.429L119.847,130.429L119.915,130.429L119.983,130.143L120.052,129.571L120.12,130L120.189,130.571L120.257,130.714L120.326,130.714L120.394,130.571L120.463,130.286L120.531,130.429L120.599,131L120.668,131.429L120.736,130.857L120.805,130.571L120.873,130.429L120.945,129.286L121.013,130L121.081,129.429L121.15,129.714L121.218,129.857L121.287,131.429L121.424,131.286L121.492,132.143L121.561,132.429L121.629,132.714L121.697,132.714L121.766,131.571L121.834,130.286L121.903,130.714L121.971,130.714L122.04,131.143L122.108,131.429L122.177,132L122.245,132L122.382,132L122.45,132.571L122.519,133L122.587,134.143L122.656,134.429L122.724,134.714L122.793,134.714L122.861,134.571L122.93,135.286L122.998,135.714L123.066,135.857L123.135,136.429L123.203,136.857L123.272,137.429L123.34,137L123.409,136.571L123.477,137.143L123.546,136.714L123.614,136.571L123.682,136.429L123.751,136.429L123.819,135.857L123.888,136.571L123.956,137.571L124.093,137.571L124.162,137.714L124.23,137.714L124.298,137.143L124.367,137.571L124.435,137.571L124.504,136.857L124.572,136.571L124.641,136.571L124.778,136.571L124.846,136.571L124.914,136.714L124.983,136.429L125.051,136.429L125.257,136.286L125.325,136.286L125.394,136.714L125.462,136.571L125.53,136.286L125.736,136.286L125.804,136.143L125.873,136.143L125.941,134.286L126.01,134.857L126.078,135.143L126.215,135.429L126.283,135.429L126.352,135.429L126.42,135.571L126.489,134.857L126.557,134.286L126.626,134.429L126.694,134L126.762,134L126.831,133.857L126.899,133.143L126.968,132.571L127.036,130.857L127.173,130.571L127.242,130.429L127.31,129.286L127.379,126.571L127.447,125.714L127.515,123.429L127.584,120.714L127.652,119.571L127.721,119.714L127.789,119.286L127.858,117.857L128.131,114L128.2,112.857L128.268,112.429L128.337,114.143L128.405,113.714L128.542,112.143L128.611,110.286L128.679,109.286L128.747,108.714L128.816,108.286L128.884,109L128.953,108.857L129.021,107.143L129.09,107.143L129.158,106.286L129.227,105.143L129.295,105.286L129.363,106.286L129.432,107.286L129.5,106.143L129.569,104.571L129.637,104.571L129.706,104L129.774,103L129.843,104.143L129.911,105.571L129.979,105.429L130.045,103L130.114,101.429L130.182,101.714L130.25,104.286L130.319,105.286L130.387,105.429L130.456,101.429L130.524,100.714L130.593,101L130.661,101.714L130.73,102.429L130.798,103L130.866,102.143L130.935,101.429L131.003,100.714L131.072,100.714L131.14,99.571L131.209,98.286L131.277,99.143L131.346,98.857L131.414,98.286L131.482,97.571L131.551,98L131.619,97.286L131.688,97.857L131.756,100.714L131.825,102.429L131.893,102.714L131.962,102L132.03,101.571L132.098,102.857L132.167,104L132.235,104.714L132.304,106L132.372,105.286L132.441,105.143L132.509,107.714L132.578,105.857L132.646,105.714L132.714,106.571L132.783,106.857L132.851,106.571L132.92,107L132.988,106.286L133.057,107.143L133.125,108.429L133.194,109.143L133.262,111.857L133.33,110.429L133.399,110.143L133.467,109.571L133.536,109.143L133.604,108.857L133.673,111.143L133.741,111.571L133.81,110.857L133.878,106.714L133.946,105.857L134.015,106.143L134.083,106.571L134.152,107.286L134.22,108.429L134.289,106.857L134.357,106.143L134.426,107L134.494,106.571L134.563,107L134.631,109.429L134.699,110.857L134.768,109.286L134.836,108.429L134.905,108.857L134.973,109.143L135.042,110.143L135.11,109.714L135.179,108.714L135.247,108.571L135.315,106.714L135.384,107.714L135.452,108L135.521,108.429L135.589,110.143L135.658,111.286L135.726,109.857L135.795,109L135.863,109.143L135.931,113.286L136,113.714L136.068,114.429L136.137,115L136.205,113.714L136.274,112.571L136.342,112.857L136.411,112.714L136.479,112.143L136.547,113.286L136.616,114.143L136.684,113.714L136.753,112.571L136.821,112.286L136.89,112.857L136.958,112.429L137.027,112.857L137.095,113.143L137.163,113.286L137.232,113.429L137.3,113.571L137.369,114.857L137.437,115L137.506,114.286L137.574,114.714L137.643,113.714L137.711,113.571L137.779,113.714L137.848,114.286L137.916,115L137.985,115.286L138.053,115.429L138.122,115.571L138.19,115L138.259,115.857L138.327,116.429L138.396,118.143L138.464,115.286L138.532,115L138.601,114.143L138.669,113.571L138.738,113L138.806,113.571L138.875,115.571L138.943,115.143L139.012,115.143L139.148,115.143L139.217,114.429L139.285,113.857L139.354,115.143L139.422,116L139.491,116.143L139.559,115.857L139.628,117.143L139.696,116.143L139.764,116.857L139.833,116.286L139.901,117.143L139.97,117L140.038,116L140.107,115L140.175,115.143L140.244,115.143L140.312,116.143L140.38,116.571L140.517,116.143L140.586,115.571L140.654,118.429L140.723,118.714L140.791,119.286L140.86,119.714L140.928,120.857L140.996,120.857L141.065,119.714L141.133,119.143L141.202,119.571L141.27,119.857L141.339,120.714L141.407,121.857L141.476,120.571L141.544,119.429L141.612,119.429L141.681,119.429L141.749,118.429L141.818,119.714L141.886,119.714L141.955,120.143L142.023,119L142.092,117L142.16,116.286L142.228,116.857L142.297,117.714L142.365,118.143L142.434,115.429L142.502,114.714L142.571,115.571L142.639,114.143L142.708,114.714L142.776,115.571L142.845,115.429L142.913,114.429L142.981,114.429L143.05,113.714L143.118,114.571L143.187,114.571L143.255,115L143.324,114.857L143.392,113.714L143.461,112.429L143.529,112.571L143.597,112.286L143.666,111.714L143.734,112.286L143.803,113.714L143.871,113.714L143.94,113.714L144.008,113.429L144.077,114.857L144.145,116L144.213,117.429L144.282,118.143L144.35,117.857L144.419,117L144.487,119L144.556,119.143L144.624,118.714L144.693,120.429L144.761,120.714L144.829,119.714L144.898,119.571L144.966,120.429L145.035,120L145.103,121.286L145.172,121.714L145.24,123.429L145.309,123.429L145.377,123.429L145.445,124.857L145.514,126.286L145.582,127.429L145.651,128.857L145.719,129.714L145.788,130L145.856,130L145.925,129.571L145.993,130L146.061,130.286L146.13,130.286L146.198,131.286L146.267,131L146.338,130.571L146.407,131L146.475,131.857L146.543,133L146.612,133.857L146.68,134.571L146.749,134.286L146.817,134.429L146.886,135.429L146.954,136L147.023,136.571L147.091,137.286L147.159,136.857L147.228,136.857L147.296,136.857L147.365,136.714L147.433,137L147.502,136.857L147.57,137L147.707,136.286L147.775,136L147.844,135.857L147.912,135.571L147.981,135.571L148.049,136.286L148.118,136L148.186,136.143L148.255,136.429L148.323,136.714L148.392,137.571L148.46,137.857L148.528,137.286L148.597,137.571L148.665,137.571L148.734,137L148.802,137L148.871,137.429L148.939,137.286L149.008,137.143L149.076,136.714L149.144,136.143L149.213,135.857L149.281,136.286L149.35,136.143L149.418,135.429L149.487,134.857L149.624,134.571L149.692,134.286L149.76,134.286L149.829,135L149.897,135L149.966,135L150.034,135.286L150.103,134.571L150.171,134.143L150.24,134.714L150.308,134.714L150.376,133.143L150.445,131.571L150.513,130.429L150.65,127.286L150.719,127.286L150.787,127.286L150.856,127L150.924,126.857L150.992,126.286L151.061,125.571L151.129,124.857L151.198,124.857L151.266,125L151.335,124.286L151.403,124.429L151.472,123.571L151.608,123.286L151.677,123.714L151.745,123.714L151.814,123.857L151.882,123.429L152.019,122.286L152.088,121.143L152.156,120.714L152.225,121L152.293,120.571L152.361,120L152.43,118.857L152.567,117.857L152.635,117.571L152.704,117.857L152.772,119.143L152.841,119.571L152.909,122.143L153.046,122.143L153.114,121.143L153.183,120.571L153.251,120.571L153.32,121L153.388,122L153.457,121.429L153.525,120.571L153.593,119.571L153.662,119.429L153.73,116.571L153.799,115.857L153.867,115.143L153.936,114.571L154.004,114.286L154.073,113.571L154.141,113L154.209,112.429L154.278,113.286L154.346,113.857L154.415,112.571L154.483,112.143L154.552,113L154.62,113.714L154.689,113.571L154.757,113.571L154.825,114.143L154.894,112.571L154.96,112.286L155.028,110.571L155.096,110.286L155.165,110.429L155.233,111.143L155.302,112L155.37,110L155.439,107.429L155.507,107.571L155.576,107.714L155.644,108.143L155.712,109L155.781,111L155.849,110L155.918,109.714L155.986,108.429L156.055,108.286L156.123,108.286L156.192,109L156.26,109.714L156.328,107L156.397,104.429L156.465,103.571L156.534,103.429L156.602,102.857L156.671,103.714L156.739,104.429L156.808,99.429L156.876,97.286L156.944,97.571L157.013,96.857L157.081,98.571L157.15,99.286L157.218,99L157.287,96.286L157.355,94.571L157.424,95.857L157.492,96.857L157.56,96.429L157.629,97.429L157.697,98.286L157.766,97.714L157.834,95.857L157.903,96.286L157.971,95.857L158.04,96.429L158.108,97.571L158.176,98.286L158.245,98.571L158.313,98.286L158.382,97.857L158.45,98.571L158.519,100.286L158.587,100.714L158.656,101.143L158.724,100.429L158.792,99.286L158.861,104.143L158.929,104.571L158.998,105.714L159.066,107L159.135,107L159.203,105.286L159.272,104.857L159.34,106.857L159.409,107.429L159.477,106.714L159.545,108.143L159.614,109.714L159.682,109.286L159.751,108.286L159.819,107.857L159.888,110.143L159.956,111.857L160.025,113.286L160.093,114.571L160.161,113.571L160.23,113.429L160.298,111.857L160.367,111.857L160.435,114.714L160.504,116.429L160.572,115.857L160.641,116.429L160.709,116.571L160.777,115.857L160.846,115.429L160.914,115L160.983,116.286L161.051,116.429L161.12,115.714L161.188,114.857L161.257,116.143L161.325,117.286L161.393,116.857L161.462,117.714L161.53,119.143L161.599,118.143L161.667,116.857L161.736,113.714L161.804,113.714L161.873,114.571L161.941,114.429L162.009,114.857L162.078,114L162.146,111L162.215,110.286L162.283,109.143L162.352,109.857L162.42,110.429L162.489,110.857L162.557,109.857L162.625,109.429L162.694,107.857L162.762,106.857L162.831,107.714L162.899,108L162.968,108.286L163.036,108.286L163.105,108.143L163.173,108.857L163.242,108.857L163.31,109.286L163.378,109.857L163.447,110L163.515,109.429L163.584,108.571L163.652,108.143L163.721,108.143L163.789,111.714L163.858,112.286L163.926,111.286L163.994,110.286L164.063,108.429L164.131,108L164.2,110L164.268,111.286L164.337,112.857L164.405,113.143L164.474,112.714L164.542,111.571L164.61,110.857L164.679,111L164.747,112.429L164.816,113.714L164.884,113.857L165.021,114L165.09,114L165.158,114.286L165.226,114.429L165.295,114.286L165.363,115.714L165.432,115L165.5,113L165.569,112.429L165.637,112.286L165.706,112.571L165.774,114L165.842,114.714L165.911,112.857L165.979,112.286L166.048,112.857L166.116,114.429L166.185,116L166.253,116.429L166.322,117.429L166.39,117.714L166.458,116.857L166.527,116.429L166.595,117.286L166.664,117.571L166.732,118.857L166.801,119.857L166.869,119.571L166.938,118.429L167.006,118.143L167.074,116.857L167.143,115.714L167.211,116L167.28,115.714L167.348,115.857L167.417,115.429L167.485,115.286L167.554,115.429L167.622,116.857L167.691,117.857L167.759,118.143L167.827,117.143L167.896,117L167.964,118L168.033,117.857L168.101,117.143L168.17,117L168.238,116.857L168.307,117.429L168.375,117L168.443,116.286L168.512,115.714L168.58,115L168.649,115.429L168.717,115.714L168.786,115.857L168.854,115L168.923,114.714L168.991,113.714L169.059,113.714L169.128,116L169.196,117.429L169.265,116.429L169.333,116.571L169.402,116.429L169.47,116L169.539,115.714L169.607,117.714L169.675,117.286L169.744,117.143L169.812,117L169.881,116.857L169.949,117.143L170.018,116.857L170.086,118L170.155,119.857L170.223,119.714L170.291,119L170.36,119.286L170.428,119.857L170.497,121L170.565,122.571L170.634,124.429L170.702,122.429L170.771,122.571L170.839,122.857L170.907,123.286L170.976,123.714L171.044,126.143L171.113,126.286L171.181,125.571L171.253,125L171.321,126L171.389,125.714L171.458,126.143L171.526,127.143L171.595,128.143L171.663,126.571L171.732,126.714L171.8,126.857L171.869,127.143L171.937,128.286L172.005,128.143L172.074,128.857L172.142,128.714L172.211,128L172.279,128.286L172.348,128.857L172.416,129.286L172.485,129.429L172.553,129L172.621,128.857L172.69,128.571L172.758,130.143L172.827,130.571L172.895,130.143L172.964,130.429L173.032,130.143L173.169,128.857L173.238,128.857L173.306,129.429L173.374,129.286L173.443,129.286L173.511,129.429L173.58,129L173.648,128.143L173.717,127.286L173.785,128.143L173.854,128.429L173.922,128.286L173.99,128.571L174.059,128L174.127,127.286L174.196,126.857L174.264,127L174.333,127.714L174.401,126.286L174.47,126.143L174.606,125.286L174.675,123.714L174.743,122.714L174.812,122.571L174.88,122.429L174.949,121.571L175.017,121.429L175.086,121.714L175.154,120.429L175.222,120.429L175.291,121L175.359,121.714L175.428,121.143L175.496,121.857L175.565,120.286L175.633,119.714L175.702,120.143L175.77,120.714L175.838,121.429L175.907,121.714L175.975,121.143L176.044,120.714L176.112,120.571L176.181,121.429L176.249,122.571L176.318,122.857L176.386,122.429L176.523,121.429L176.591,120.857L176.66,120.857L176.728,121.714L176.797,122.857L176.865,123.571L176.934,122.857L177.002,123L177.07,123.429L177.139,123.143L177.207,123.143L177.276,124L177.413,123.143L177.481,123.571L177.55,122.857L177.618,123.714L177.687,123.143L177.755,124.286L177.823,124.714L177.892,123.143L177.96,123L178.029,122.571L178.097,121.571L178.166,120.857L178.234,120.714L178.303,121.143L178.371,120.286L178.439,120.143L178.508,119.429L178.576,119.571L178.645,119.286L178.713,121.286L178.782,121.857L178.85,121L178.919,120.429L178.987,119.429L179.055,119.143L179.124,117.857L179.192,118.571L179.261,119.143L179.329,117.714L179.398,117.429L179.466,118.286L179.535,116.714L179.603,116.571L179.671,116L179.74,116.429L179.808,116L179.874,116.286L179.942,116.286L180.011,115L180.079,114.571L180.148,115.571L180.216,116.714L180.285,115.857L180.353,113.143L180.422,111.857L180.49,110.857L180.558,111.286L180.627,111.429L180.695,112L180.764,109.857L180.832,108.143L180.901,108.429L180.969,108L181.038,108.286L181.106,109.429L181.174,109.714L181.243,108.857L181.311,108L181.38,109.143L181.448,108.857L181.517,108.571L181.585,110.143L181.654,109.857L181.722,108.571L181.79,108.143L181.859,108.571L181.927,108.143L181.996,109L182.064,109.286L182.133,109.571L182.201,109.429L182.27,108.429L182.338,109.286L182.406,110.286L182.475,112.286L182.543,112.286L182.612,112L182.68,110.286L182.749,109L182.817,109.286L182.886,110.571L182.954,110.571L183.022,112L183.159,113.143L183.228,112.143L183.296,112.571L183.365,112.571L183.433,112.714L183.502,113.143L183.57,113.286L183.638,112.857L183.707,111.857L183.775,110.143L183.844,111.571L183.912,112.143L183.981,113L184.049,112.429L184.118,111.286L184.186,111.286L184.255,110.857L184.323,110.286L184.391,110.571L184.46,111.143L184.528,112.714L184.597,111.714L184.665,112.286L184.734,113L184.802,114L184.871,114.571L184.939,116.571L185.007,117L185.076,116.143L185.144,114.571L185.213,113.714L185.281,113.857L185.35,113.286L185.418,114.143L185.487,114.286L185.555,114.143L185.623,115.143L185.692,115.571L185.76,116.286L185.829,118.857L185.897,119.143L185.966,119.429L186.034,118.857L186.103,119.429L186.171,120.286L186.239,120.286L186.308,121L186.376,121.714L186.445,121.714L186.513,120.143L186.582,119L186.65,118.571L186.719,118.429L186.787,118L186.855,118.714L186.924,120L186.992,119.143L187.061,117.857L187.129,117.857L187.198,118.857L187.266,119.143L187.335,119.429L187.403,120.143L187.471,119.143L187.54,118.571L187.608,118.286L187.677,117L187.745,117.286L187.814,117.429L187.882,117.429L187.951,116.857L188.019,116.143L188.087,115L188.156,115.286L188.224,115.286L188.293,116.286L188.361,116.857L188.43,115.143L188.498,115L188.567,114.429L188.635,114.571L188.704,114.714L188.772,115.143L188.84,114.857L188.909,114.857L188.977,113L189.046,113.429L189.114,114.286L189.183,115.143L189.251,115.143L189.32,115.286L189.388,114.429L189.456,113.714L189.525,113.286L189.593,113.714L189.662,113.714L189.73,114.714L189.799,114.857L189.867,114.571L189.936,114L190.004,113.857L190.072,113.714L190.141,114.571L190.209,114.714L190.278,114.714L190.346,114.286L190.415,112.143L190.483,112.429L190.552,113L190.62,114.857L190.688,116L190.757,115.143L190.894,114.571L190.962,114.429L191.031,113.571L191.099,114.571L191.168,114.714L191.236,115.143L191.304,114.571L191.373,113.714L191.441,113.857L191.51,114.857L191.578,116.286L191.647,117.714L191.715,113.857L191.784,109.286L191.852,108.143L191.92,106.857L191.989,106.714L192.057,107L192.126,107.714L192.194,107.429L192.263,107.143L192.331,106.286L192.4,106.143L192.468,106.143L192.537,108.143L192.605,109.857L192.673,109L192.742,108L192.81,107.286L192.879,108.286L192.947,108.857L193.016,109.571L193.084,110.286L193.153,108.714L193.289,108L193.358,107.857L193.426,107.571L193.495,107.571L193.563,107.857L193.632,107.429L193.7,106.571L193.769,105.571L193.837,109.286L193.905,113.429L193.974,114.429L194.042,115.143L194.111,115.714L194.179,114.429L194.248,113.429L194.316,113.429L194.385,113.857L194.453,114.429L194.521,115.286L194.59,115.857L194.658,115.714L194.727,114.714L194.795,115.714L194.864,116.857L194.932,117L195.001,118L195.069,117.857L195.137,118L195.206,117.857L195.274,119.857L195.343,120.714L195.411,120.429L195.48,121.857L195.548,122.857L195.617,122.571L195.685,122.286L195.753,123.143L195.822,123.429L195.89,123.286L195.959,124.429L196.027,125L196.096,125L196.167,124.714L196.235,126.429L196.304,127.286L196.372,128.571L196.441,128.571L196.509,128.143L196.578,128L196.646,128L196.715,128.429L196.783,129.429L196.851,130L196.92,130.143L196.988,130.429L197.057,130L197.125,130.143L197.194,130.571L197.262,130.857L197.331,130.857L197.399,130.143L197.467,130.143L197.536,129.714L197.604,129.714L197.673,130.143L197.741,130.714L197.81,130.857L197.878,131.143L198.015,131L198.084,130.286L198.152,130L198.22,130.571L198.289,130.571L198.357,130L198.494,130L198.563,128.857L198.631,129.571L198.7,130.143L198.768,130.286L198.836,130.143L198.905,130L198.973,129.429L199.042,129L199.11,129.143L199.179,128.857L199.247,129.286L199.316,129.714L199.452,129.429L199.521,129.286L199.589,128.857L199.658,129.143L199.726,129L199.795,128.857L199.863,128.714L199.932,127.571L200,127.571L200.068,126.286L200.137,125L200.205,125.143L200.274,125.429L200.342,125.429L200.411,126L200.479,125.857L200.548,125.714L200.616,125.143L200.684,126.143L200.753,125.857L200.821,125.857L200.89,126.143L200.958,125.857L201.027,125.143L201.095,125.857L201.164,126.429L201.232,126.429L201.3,126.429L201.369,126L201.437,126L201.506,125.857L201.574,125.714L201.643,126.286L201.711,125.571L201.78,125.571L201.848,125.143L201.916,124.429L201.985,124.857L202.053,124.714L202.122,125.714L202.19,126.714" stroke="#4c78a8" stroke-width="2"/></g><g class="mark-group role-title"><g transform="translate(100,-17)"><path class="background" aria-hidden="true" d="M0,0h0v0h0Z" pointer-events="none"/><g><g class="mark-text role-title-text" role="graphics-symbol" aria-roledescription="title" aria-label="Title text 'Street Condition: Rough, Pitted or Cracked Roads'" pointer-events="none"><text text-anchor="middle" transform="translate(0,10)" font-family="sans-serif" font-size="13px" font-weight="bold" fill="#000" opacity="1">Street Condition: Rough, Pitted or Cracked Roads</text></g></g><path class="foreground" aria-hidden="true" d="" pointer-events="none" display="none"/></g></g></g><path class="foreground" aria-hidden="true" d="" display="none"/></g></g></g><defs><clipPath id="clip138"><rect x="0" y="0" width="200" height="150"/></clipPath></defs></svg>