<svg xmlns="http://www.w3.org/2000/svg" xmlns:xlink="http://www.w3.org/1999/xlink" version="1.1" class="marks" width="292" height="194" viewBox="0 0 292 194"><rect width="292" height="194" fill="white"/><g fill="none" stroke-miterlimit="10" transform="translate(46,22)"><g class="mark-group role-frame root" role="graphics-object" aria-roledescription="group mark container"><g transform="translate(0,0)"><path class="background" aria-hidden="true" d="M0,0h200v150h-200Z"/><g><g class="mark-group role-axis" aria-hidden="true"><g transform="translate(0.5,0.5)"><path class="background" aria-hidden="true" d="M0,0h0v0h0Z" pointer-events="none"/><g><g class="mark-rule role-axis-grid" pointer-events="none"><line transform="translate(0,150)" x2="200" y2="0" stroke="#ddd" stroke-width="1" opacity="1"/><line transform="translate(0,107)" x2="200" y2="0" stroke="#ddd" stroke-width="1" opacity="1"/><line transform="translate(0,64)" x2="200" y2="0" stroke="#ddd" stroke-width="1" opacity="1"/><line transform="translate(0,21)" x2="200" y2="0" stroke="#ddd" stroke-width="1" opacity="1"/></g></g><path class="foreground" aria-hidden="true" d="" pointer-events="none" display="none"/></g></g><g class="mark-group role-axis" role="graphics-symbol" aria-roledescription="axis" aria-label="X-axis for a time scale with values from Friday, 01 January 2016, 12:00:00 AM to Monday, 01 January 2024, 12:00:00 AM"><g transform="translate(0.5,150.5)"><path class="background" aria-hidden="true" d="M0,0h0v0h0Z" pointer-events="none"/><g><g class="mark-rule role-axis-tick" pointer-events="none"><line transform="translate(0,0)" x2="0" y2="5" stroke="#888" stroke-width="1" opacity="1"/><line transform="translate(50,0)" x2="0" y2="5" stroke="#888" stroke-width="1" opacity="1"/><line transform="translate(100,0)" x2="0" y2="5" stroke="#888" stroke-width="1" opacity="1"/><line transform="translate(150,0)" x2="0" y2="5" stroke="#888" stroke-width="1" opacity="1"/><line transform="translate(200,0)" x2="0" y2="5" stroke="#888" stroke-width="1" opacity="1"/></g><g class="mark-text role-axis-label" pointer-events="none"><text text-anchor="start" transform="translate(0,15)" font-family="sans-serif" font-size="10px" fill="#000" opacity="1">2016</text><text text-anchor="middle" transform="translate(50.03422313483915,15)" font-family="sans-serif" font-size="10px" fill="#000" opacity="1">2018</text><text text-anchor="middle" transform="translate(100,15)" font-family="sans-serif" font-size="10px" fill="#000" opacity="1">2020</text><text text-anchor="middle" transform="translate(150.03422313483915,15)" font-family="sans-serif" font-size="10px" fill="#000" opacity="1">2022</text><text text-anchor="end" transform="translate(200,15)" font-family="sans-serif" font-size="10px" fill="#000" opacity="1">2024</text></g><g class="mark-rule role-axis-domain" pointer-events="none"><line transform="translate(0,0)" x2="200" y2="0" stroke="#888" stroke-width="1" opacity="1"/></g></g><path class="foreground" aria-hidden="true" d="" pointer-events="none" display="none"/></g></g><g class="mark-group role-axis" role="graphics-symbol" aria-roledescription="axis" aria-label="Y-axis for a linear scale with values from 0 to 350"><g transform="translate(0.5,0.5)"><path class="background" aria-hidden="true" d="M0,0h0v0h0Z" pointer-events="none"/><g><g class="mark-rule role-axis-tick" pointer-events="none"><line transform="translate(0,150)" x2="-5" y2="0" stroke="#888" stroke-opacity="0" stroke-width="1" opacity="1"/><line transform="translate(0,107)" x2="-5" y2="0" stroke="#888" stroke-opacity="0" stroke-width="1" opacity="1"/><line transform="translate(0,64)" x2="-5" y2="0" stroke="#888" stroke-opacity="0" stroke-width="1" opacity="1"/><line transform="translate(0,21)" x2="-5" y2="0" stroke="#888" stroke-opacity="0" stroke-width="1" opacity="1"/></g><g class="mark-text role-axis-label" pointer-events="none"><text text-anchor="end" transform="translate(-7,153)" font-family="sans-serif" font-size="10px" fill="#000" opacity="1">0</text><text text-anchor="end" transform="translate(-7,110.14285714285714)" font-family="sans-serif" font-size="10px" fill="#000" opacity="1">100</text><text text-anchor="end" transform="translate(-7,67.28571428571429)" font-family="sans-serif" font-size="10px" fill="#000" opacity="1">200</text><text text-anchor="end" transform="translate(-7,24.428571428571434)" font-family="sans-serif" font-size="10px" fill="#000" opacity="1">300</text></g></g><path class="foreground" aria-hidden="true" d="" pointer-events="none" display="none"/></g></g><g class="mark-line role-mark marks" clip-path="url(#clip124)" role="graphics-object" aria-roledescription="line mark container"><path aria-label="day: Jun 03, 2010; avg: 24" role="graphics-symbol" aria-roledescription="line mark" d="M-139.496,139.714L-139.428,139.686L-139.359,139.9L-139.291,139.8L-139.223,139.529L-139.154,139.471L-139.086,139.3L-139.017,139.3L-138.949,139.429L-138.88,139.6L-138.812,139.457L-138.743,139.129L-138.675,139.286L-138.607,139.414L-138.538,139.314L-138.47,139.357L-138.401,139.414L-138.333,139.271L-138.264,138.929L-138.196,139.057L-138.127,139.171L-138.059,139.257L-137.991,139.129L-137.922,139.243L-137.854,139.043L-137.785,138.786L-137.717,138.629L-137.648,138.871L-137.58,138.829L-137.511,138.743L-137.443,138.829L-137.375,138.386L-137.306,138.157L-137.238,138.086L-137.169,138.2L-137.101,138.2L-137.032,138.243L-136.964,138.271L-136.895,138.286L-136.827,138.014L-136.758,138.057L-136.69,138.343L-136.622,138.3L-136.553,138.043L-136.485,138.443L-136.416,138.457L-136.348,138.257L-136.279,138.271L-136.211,138.557L-136.142,138.686L-136.074,138.586L-136.006,138.686L-135.937,138.871L-135.869,138.757L-135.8,138.929L-135.732,139.029L-135.663,139.129L-135.595,139.129L-135.526,139.414L-135.458,139.386L-135.39,139.1L-135.321,139.186L-135.253,139.271L-135.184,139.357L-135.116,139.457L-135.047,139.614L-134.979,139.814L-134.91,139.857L-134.842,139.757L-134.774,140.014L-134.705,139.886L-134.637,139.686L-134.568,139.814L-134.5,139.8L-134.431,139.4L-134.363,139.357L-134.294,139.3L-134.226,139.443L-134.158,139.329L-134.089,139.271L-134.021,139.114L-133.952,138.957L-133.884,138.686L-133.815,138.786L-133.747,138.729L-133.678,138.629L-133.61,138.743L-133.542,138.586L-133.473,138.071L-133.405,138.171L-133.336,138.314L-133.268,138.543L-133.199,138.657L-133.131,138.8L-133.062,138.614L-132.994,138.343L-132.926,138.329L-132.857,138.3L-132.789,138.4L-132.72,138.443L-132.652,138.743L-132.583,138.914L-132.515,138.786L-132.446,138.914L-132.378,139.143L-132.309,139.271L-132.241,139.514L-132.173,139.5L-132.104,139.514L-132.036,139.243L-131.967,139.414L-131.899,139.543L-131.83,139.757L-131.762,139.771L-131.693,139.771L-131.625,140.014L-131.557,139.929L-131.488,139.9L-131.42,140.157L-131.351,140.1L-131.283,140.214L-131.214,140.314L-131.146,140.314L-131.077,140.086L-131.009,140.271L-130.941,140.571L-130.872,140.686L-130.804,140.857L-130.735,140.986L-130.667,140.857L-130.598,140.614L-130.53,140.357L-130.461,140.529L-130.393,140.571L-130.325,140.586L-130.256,140.757L-130.188,140.614L-130.119,140.443L-130.051,140.5L-129.982,140.814L-129.914,140.871L-129.845,140.986L-129.777,141.257L-129.709,141.114L-129.64,141.114L-129.572,140.929L-129.503,141.157L-129.435,141.343L-129.366,141.557L-129.298,141.829L-129.229,141.6L-129.161,141.371L-129.093,141.371L-129.024,141.286L-128.956,141.243L-128.887,141.314L-128.819,141.271L-128.75,141.043L-128.679,140.986L-128.611,141.014L-128.542,141.114L-128.474,141.3L-128.405,141.2L-128.337,141.357L-128.268,141.286L-128.2,141.129L-128.131,141.129L-128.063,141.143L-127.995,141.029L-127.926,141.029L-127.858,141.129L-127.789,140.929L-127.721,140.7L-127.652,140.771L-127.584,140.9L-127.515,141.057L-127.447,141.029L-127.379,141.1L-127.31,141.186L-127.242,141.1L-127.173,141.286L-127.105,141.157L-127.036,141.043L-126.968,141.329L-126.899,141.457L-126.831,141.157L-126.762,140.957L-126.694,141L-126.626,140.871L-126.557,140.814L-126.489,140.9L-126.42,141.029L-126.352,140.8L-126.283,140.643L-126.215,140.7L-126.146,140.643L-126.078,140.629L-126.01,140.871L-125.941,141.086L-125.873,140.843L-125.804,140.929L-125.736,140.786L-125.667,140.7L-125.599,140.857L-125.53,140.886L-125.462,140.957L-125.394,140.6L-125.325,140.4L-125.257,140.057L-125.188,140.071L-125.12,139.543L-125.051,139.714L-124.983,139.657L-124.914,139.143L-124.846,138.714L-124.778,138.743L-124.709,138.571L-124.641,138.257L-124.572,138.3L-124.504,138.243L-124.435,137.729L-124.367,137.429L-124.298,137.314L-124.23,136.971L-124.162,136.829L-124.093,136.943L-124.025,136.986L-123.956,136.343L-123.888,136.043L-123.819,136L-123.751,135.643L-123.682,135.629L-123.614,135.871L-123.546,135.871L-123.477,135.871L-123.409,135.843L-123.34,135.871L-123.272,135.686L-123.203,135.757L-123.135,135.729L-123.066,136.157L-122.998,136.1L-122.93,136.114L-122.861,136.443L-122.793,136.614L-122.724,136.629L-122.656,136.829L-122.587,137.186L-122.519,137.157L-122.45,137.157L-122.382,137.429L-122.313,137.471L-122.245,137.671L-122.177,138.071L-122.108,138.257L-122.04,138.143L-121.971,138.186L-121.903,138.586L-121.834,138.714L-121.766,138.843L-121.697,139.143L-121.629,139.314L-121.561,139.171L-121.492,138.9L-121.424,138.643L-121.355,138.629L-121.287,138.586L-121.218,138.929L-121.15,138.971L-121.081,138.771L-121.013,138.643L-120.945,138.686L-120.876,138.757L-120.808,138.843L-120.739,139.1L-120.671,139.3L-120.602,139.386L-120.534,139.229L-120.465,139.257L-120.397,139.386L-120.329,139.443L-120.26,139.6L-120.192,139.7L-120.123,139.629L-120.058,139.5L-119.989,139.6L-119.921,139.514L-119.852,139.486L-119.784,139.686L-119.715,139.9L-119.647,139.729L-119.578,139.786L-119.51,139.786L-119.442,139.814L-119.373,140.114L-119.305,140.129L-119.236,140.386L-119.168,140.157L-119.099,139.914L-119.031,139.843L-118.962,139.843L-118.894,139.871L-118.826,139.914L-118.757,139.971L-118.689,139.743L-118.62,139.514L-118.552,139.471L-118.483,139.471L-118.415,139.457L-118.346,139.514L-118.278,139.757L-118.21,139.571L-118.141,139.371L-118.073,139.3L-118.004,139.057L-117.936,138.929L-117.867,139.1L-117.799,139.286L-117.73,139.086L-117.662,138.743L-117.594,138.857L-117.525,138.786L-117.457,138.657L-117.388,138.671L-117.32,138.643L-117.251,138.529L-117.183,138.143L-117.114,138.2L-117.046,138.257L-116.978,138.443L-116.909,138.671L-116.841,138.743L-116.772,138.629L-116.704,138.271L-116.635,138.357L-116.567,138.343L-116.498,138.243L-116.43,138.386L-116.362,138.543L-116.293,138.286L-116.225,137.943L-116.156,138.1L-116.088,138.3L-116.019,138.371L-115.951,138.714L-115.882,138.8L-115.814,138.757L-115.745,138.629L-115.677,138.614L-115.609,138.643L-115.54,138.529L-115.472,138.643L-115.403,138.771L-115.335,138.857L-115.266,138.571L-115.198,138.4L-115.129,138.657L-115.061,138.557L-114.993,138.657L-114.924,138.771L-114.856,138.657L-114.787,138.357L-114.719,138.286L-114.65,138.414L-114.582,138.4L-114.513,138.514L-114.445,138.814L-114.377,138.929L-114.308,138.614L-114.24,138.714L-114.171,138.757L-114.103,138.729L-114.034,138.714L-113.966,138.7L-113.897,138.614L-113.829,138.386L-113.761,138.214L-113.692,138.129L-113.624,138.129L-113.555,138.386L-113.487,138.671L-113.418,138.514L-113.35,138.443L-113.281,138.343L-113.213,138.386L-113.145,138.6L-113.076,138.657L-113.008,138.971L-112.939,138.986L-112.871,138.614L-112.802,138.457L-112.734,138.6L-112.665,138.743L-112.597,138.843L-112.529,138.929L-112.46,138.971L-112.392,138.657L-112.323,138.414L-112.255,138.614L-112.186,138.543L-112.118,138.614L-112.049,138.729L-111.981,138.514L-111.913,138.486L-111.844,138.514L-111.776,138.643L-111.707,138.657L-111.639,138.757L-111.57,138.971L-111.502,138.8L-111.433,138.5L-111.365,138.643L-111.296,138.843L-111.228,138.9L-111.16,138.929L-111.091,139.014L-111.023,138.943L-110.954,138.757L-110.886,138.957L-110.817,139.343L-110.749,139.729L-110.68,140.114L-110.612,140.343L-110.544,140.486L-110.475,140.529L-110.407,140.557L-110.338,140.714L-110.27,140.886L-110.201,140.986L-110.133,141.329L-110.064,141.257L-109.996,141.186L-109.928,141.414L-109.859,141.357L-109.791,141.386L-109.722,141.686L-109.654,141.671L-109.585,141.5L-109.517,141.3L-109.448,141.214L-109.38,141.1L-109.312,141.043L-109.243,140.886L-109.175,141.043L-109.106,140.9L-109.038,140.814L-108.969,140.829L-108.901,140.8L-108.832,140.671L-108.764,140.571L-108.696,140.357L-108.559,139.943L-108.49,139.529L-108.422,139.486L-108.353,139.429L-108.285,139.5L-108.216,139.6L-108.148,139.586L-108.08,139.329L-108.011,139.143L-107.943,139.157L-107.874,139.229L-107.806,139.286L-107.737,139.586L-107.669,139.7L-107.6,139.486L-107.532,139.543L-107.463,139.871L-107.395,139.914L-107.327,140.014L-107.258,140.457L-107.19,140.543L-107.121,140.614L-107.053,140.571L-106.984,140.714L-106.916,140.657L-106.847,140.814L-106.779,141.029L-106.711,140.9L-106.642,140.957L-106.574,141.029L-106.505,141.243L-106.437,141.486L-106.368,141.686L-106.3,141.9L-106.231,141.843L-106.163,141.643L-106.095,141.571L-106.026,141.643L-105.958,141.657L-105.889,141.986L-105.821,141.986L-105.752,141.986L-105.684,141.929L-105.615,141.871L-105.547,141.843L-105.479,142.014L-105.41,142L-105.342,142.114L-105.273,142.143L-105.205,141.871L-105.136,141.686L-105.068,141.643L-104.999,141.543L-104.931,141.757L-104.863,141.814L-104.794,141.7L-104.726,141.557L-104.657,141.857L-104.589,141.871L-104.52,141.9L-104.452,142.086L-104.383,142.229L-104.315,141.886L-104.247,141.671L-104.178,141.614L-104.11,141.614L-104.041,141.6L-103.973,141.8L-103.904,141.886L-103.836,141.757L-103.765,141.557L-103.696,141.4L-103.628,141.314L-103.559,141.271L-103.491,141.471L-103.422,141.557L-103.354,141.414L-103.285,141.286L-103.217,141.343L-103.149,141.343L-103.08,141.186L-103.012,141.3L-102.943,141.571L-102.875,141.529L-102.806,141.586L-102.738,141.586L-102.669,141.557L-102.601,141.5L-102.533,141.657L-102.464,141.857L-102.396,141.8L-102.327,141.757L-102.259,141.986L-102.19,142.029L-102.122,142.129L-102.053,142.371L-101.985,142.571L-101.916,142.557L-101.848,142.543L-101.78,142.486L-101.711,142.671L-101.643,142.714L-101.574,142.914L-101.506,143.1L-101.437,143.014L-101.369,142.871L-101.3,142.914L-101.232,142.943L-101.164,143L-101.095,143.329L-101.027,143.843L-100.958,143.914L-100.89,143.614L-100.821,143.529L-100.753,143.371L-100.684,143.414L-100.616,143.643L-100.548,143.686L-100.479,143.557L-100.411,143.186L-100.342,143L-100.274,142.943L-100.205,142.757L-100.137,142.743L-100.068,142.714L-100,142.5L-99.932,142.314L-99.863,142.271L-99.795,142.186L-99.726,142.214L-99.658,142.243L-99.589,142.529L-99.521,142.329L-99.452,142.143L-99.384,142.1L-99.316,142.071L-99.247,142.086L-99.179,142.329L-99.11,142.443L-99.042,142.2L-98.973,142L-98.905,141.814L-98.836,141.857L-98.768,141.886L-98.7,142.043L-98.631,142.1L-98.563,142.086L-98.494,142L-98.426,141.971L-98.357,142.143L-98.289,142.314L-98.22,142.271L-98.152,142.429L-98.084,142.429L-98.015,142.471L-97.947,142.471L-97.878,142.4L-97.81,142.4L-97.741,142.586L-97.673,142.671L-97.604,142.486L-97.536,142.3L-97.467,142.286L-97.399,142.343L-97.331,142.386L-97.262,142.529L-97.194,142.643L-97.125,142.271L-97.057,141.929L-96.988,141.914L-96.92,141.857L-96.851,141.814L-96.783,141.957L-96.715,141.986L-96.646,141.786L-96.578,141.557L-96.509,141.329L-96.441,141.229L-96.372,141.171L-96.304,141.229L-96.235,141.171L-96.167,141.157L-96.099,140.914L-96.03,140.757L-95.962,140.686L-95.893,140.7L-95.825,140.957L-95.756,141.014L-95.688,140.771L-95.619,140.386L-95.551,140.443L-95.483,140.414L-95.414,140.5L-95.346,140.543L-95.277,140.7L-95.209,140.586L-95.143,140.329L-95.075,140.429L-95.006,140.586L-94.938,140.614L-94.869,140.8L-94.801,140.8L-94.732,140.557L-94.664,140.471L-94.596,140.514L-94.527,140.557L-94.459,140.429L-94.39,140.614L-94.322,140.657L-94.253,140.514L-94.185,140.286L-94.116,140.157L-94.048,140.2L-93.98,140.286L-93.911,140.343L-93.843,140.329L-93.774,140.071L-93.706,139.943L-93.637,139.886L-93.569,140.071L-93.5,140.1L-93.432,140.114L-93.364,140.071L-93.295,139.929L-93.227,139.629L-93.158,139.457L-93.09,139.557L-93.021,139.543L-92.953,139.686L-92.884,139.8L-92.816,139.471L-92.748,139.357L-92.679,139.357L-92.611,139.386L-92.542,139.386L-92.474,139.571L-92.405,139.786L-92.337,139.586L-92.268,139.471L-92.2,139.271L-92.132,139.229L-92.063,139.2L-91.995,139.329L-91.926,139.386L-91.858,139.286L-91.789,139.2L-91.721,139.143L-91.652,138.971L-91.584,139.171L-91.516,139.314L-91.447,139.414L-91.379,139.457L-91.31,139.371L-91.242,139.257L-91.173,139.071L-91.105,139.186L-91.036,139.271L-90.968,139.457L-90.899,139.114L-90.831,138.829L-90.763,138.957L-90.694,138.914L-90.626,138.971L-90.557,138.986L-90.489,139.071L-90.42,138.757L-90.352,138.414L-90.283,138.414L-90.215,138.414L-90.147,138.586L-90.078,138.857L-90.01,139.029L-89.941,138.843L-89.873,138.714L-89.804,138.614L-89.736,138.7L-89.667,138.757L-89.599,138.914L-89.531,138.857L-89.462,138.786L-89.394,138.543L-89.325,138.614L-89.257,138.4L-89.188,138.314L-89.12,138.657L-89.051,138.671L-88.983,138.443L-88.915,138.171L-88.846,138.214L-88.778,138.271L-88.709,138.229L-88.641,138.443L-88.572,138.671L-88.504,138.6L-88.435,138.286L-88.367,138.5L-88.299,138.629L-88.23,138.714L-88.162,138.743L-88.093,138.614L-88.025,138.457L-87.956,138.229L-87.888,138.271L-87.819,138.143L-87.751,138.043L-87.683,138.057L-87.614,138.229L-87.546,138.129L-87.477,138L-87.409,137.929L-87.34,137.971L-87.272,137.771L-87.203,138.1L-87.135,138.386L-87.067,138.114L-86.998,137.914L-86.93,138.157L-86.861,138.071L-86.793,138.371L-86.724,138.357L-86.656,138.471L-86.587,138.414L-86.519,138.286L-86.45,138.414L-86.382,138.743L-86.314,138.614L-86.245,138.814L-86.177,138.843L-86.108,138.914L-86.04,139.086L-85.971,139.257L-85.903,139.429L-85.834,139.429L-85.766,139.671L-85.698,139.871L-85.629,139.743L-85.561,139.671L-85.492,139.771L-85.424,139.757L-85.355,139.686L-85.287,139.8L-85.218,139.986L-85.15,139.886L-85.082,139.829L-85.013,139.914L-84.945,139.971L-84.876,139.871L-84.808,140.043L-84.739,139.8L-84.671,139.657L-84.602,139.529L-84.534,139.457L-84.466,139.186L-84.397,139.043L-84.329,139.014L-84.26,139.157L-84.192,139.086L-84.123,139.086L-84.055,138.957L-83.986,138.829L-83.918,138.557L-83.85,138.514L-83.781,138.543L-83.713,138.5L-83.644,138.414L-83.576,138.571L-83.507,138.529L-83.439,138.386L-83.37,138.586L-83.302,138.771L-83.234,138.729L-83.165,138.571L-83.097,138.443L-83.028,138.443L-82.96,138.286L-82.891,138.414L-82.823,138.6L-82.754,138.771L-82.686,138.857L-82.617,139.129L-82.549,139.1L-82.481,139.086L-82.412,139.414L-82.344,139.557L-82.275,139.4L-82.207,139.357L-82.138,139.186L-82.07,138.886L-82.001,138.857L-81.933,139.014L-81.865,139.243L-81.796,139.271L-81.728,139.229L-81.659,139.129L-81.591,139.186L-81.522,139.057L-81.454,139.071L-81.385,139.457L-81.317,139.629L-81.249,139.843L-81.18,140.129L-81.112,140.386L-81.043,140.757L-80.975,141.014L-80.906,141.586L-80.838,141.829L-80.769,141.829L-80.701,141.857L-80.633,141.986L-80.564,141.971L-80.496,142.157L-80.427,142.457L-80.359,142.4L-80.29,142.443L-80.222,142.571L-80.153,142.5L-80.085,142.629L-80.017,142.857L-79.948,142.986L-79.88,142.786L-79.811,142.7L-79.743,142.5L-79.674,142.786L-79.606,142.871L-79.537,143.043L-79.469,143.171L-79.401,142.829L-79.332,142.571L-79.264,142.314L-79.195,141.857L-79.127,141.529L-79.058,141.429L-78.99,141.086L-78.921,140.686L-78.85,140.271L-78.782,139.843L-78.713,139.586L-78.645,139.271L-78.576,139.2L-78.508,139.3L-78.439,139.286L-78.371,139.1L-78.303,139.057L-78.234,138.843L-78.166,138.757L-78.097,138.8L-78.029,138.929L-77.96,138.786L-77.892,138.686L-77.823,138.786L-77.755,138.629L-77.687,138.914L-77.618,138.8L-77.55,138.829L-77.481,138.714L-77.413,138.9L-77.344,139.314L-77.276,139.4L-77.207,139.371L-77.139,139.6L-77.07,139.686L-77.002,139.529L-76.934,139.886L-76.865,140.043L-76.797,140.143L-76.728,140.143L-76.66,140.414L-76.591,140.714L-76.523,140.586L-76.454,140.471L-76.386,140.386L-76.318,140.343L-76.249,140.329L-76.181,140.514L-76.112,140.686L-76.044,140.7L-75.975,140.5L-75.907,140.7L-75.838,140.657L-75.77,140.657L-75.702,140.943L-75.633,141.1L-75.565,141.1L-75.496,141.114L-75.428,141.071L-75.359,140.743L-75.291,140.557L-75.222,140.557L-75.154,140.529L-75.086,140.371L-75.017,140.286L-74.949,140.386L-74.88,140.114L-74.812,139.9L-74.743,140.086L-74.675,140.371L-74.606,140.057L-74.538,139.586L-74.47,139.514L-74.401,139.357L-74.333,139.471L-74.264,139.786L-74.196,139.9L-74.127,139.8L-74.059,139.657L-73.99,139.529L-73.922,139.643L-73.854,139.443L-73.785,139.686L-73.717,139.871L-73.648,139.771L-73.58,139.629L-73.511,139.543L-73.443,139.414L-73.374,139.343L-73.306,139.529L-73.238,139.8L-73.169,139.6L-73.101,139.414L-73.032,139.329L-72.964,139.171L-72.895,138.771L-72.827,138.757L-72.758,138.971L-72.69,138.514L-72.621,138.171L-72.553,138.057L-72.485,138.271L-72.416,138.314L-72.348,138.414L-72.279,138.329L-72.211,137.843L-72.142,137.614L-72.074,137.357L-72.005,137.214L-71.937,137.357L-71.869,137.5L-71.8,137.486L-71.732,137.2L-71.663,136.957L-71.595,136.814L-71.526,136.557L-71.458,136.429L-71.389,136.657L-71.321,136.786L-71.253,136.714L-71.184,136.543L-71.116,136.7L-71.047,136.8L-70.979,136.843L-70.91,137.229L-70.842,137.643L-70.773,137.643L-70.705,137.643L-70.637,137.743L-70.568,137.714L-70.5,137.729L-70.431,137.871L-70.363,137.957L-70.294,137.729L-70.229,137.643L-70.16,137.643L-70.092,137.429L-70.023,137.629L-69.955,137.771L-69.886,137.9L-69.818,137.5L-69.75,137.343L-69.681,137.257L-69.613,137.086L-69.544,137.043L-69.476,137.314L-69.407,137.486L-69.339,137.114L-69.27,136.929L-69.202,136.743L-69.134,136.571L-69.065,136.329L-68.997,136.314L-68.928,136.386L-68.86,136L-68.791,135.729L-68.723,135.571L-68.654,135.6L-68.586,135.771L-68.518,136L-68.449,136.071L-68.381,135.9L-68.312,135.6L-68.244,135.686L-68.175,135.7L-68.107,135.743L-68.038,136.129L-67.97,136.229L-67.902,136.271L-67.833,135.914L-67.765,135.857L-67.696,135.871L-67.628,135.829L-67.559,135.886L-67.491,136.014L-67.422,135.671L-67.354,135.214L-67.286,135.129L-67.217,135.114L-67.149,135.129L-67.08,135.314L-67.012,135.486L-66.943,135.557L-66.875,135.414L-66.806,135.271L-66.738,134.971L-66.67,135.071L-66.601,134.986L-66.533,134.829L-66.464,134.7L-66.396,134.586L-66.327,134.371L-66.259,134.471L-66.19,134.586L-66.122,134.443L-66.054,134.214L-65.985,133.829L-65.917,133.429L-65.848,133.129L-65.78,133.171L-65.711,133.229L-65.643,133.371L-65.574,133.543L-65.506,133.4L-65.437,133.057L-65.369,133.086L-65.301,133.229L-65.232,133.386L-65.164,133.414L-65.095,133.329L-65.027,132.971L-64.958,132.686L-64.89,132.471L-64.821,132.457L-64.753,132.629L-64.685,132.843L-64.616,132.929L-64.548,132.914L-64.479,132.914L-64.411,132.929L-64.342,133.2L-64.274,133.257L-64.205,133.4L-64.137,133.314L-64.069,133.171L-64,133.229L-63.932,133.371L-63.863,133.486L-63.795,133.743L-63.726,133.814L-63.658,134.029L-63.589,133.771L-63.521,133.529L-63.453,133.614L-63.384,133.614L-63.316,133.643L-63.247,133.8L-63.179,133.914L-63.11,133.671L-63.042,133.514L-62.973,133.443L-62.905,133.671L-62.837,133.657L-62.768,133.643L-62.7,133.671L-62.631,133.614L-62.563,133.314L-62.494,133.186L-62.426,133.186L-62.357,133.229L-62.289,132.986L-62.221,133.257L-62.152,133.057L-62.084,133.071L-62.015,133.314L-61.947,133.686L-61.878,133.714L-61.81,133.714L-61.741,133.829L-61.673,133.657L-61.604,133.557L-61.536,133.843L-61.468,133.929L-61.399,134.143L-61.331,134.243L-61.262,134.2L-61.194,134.129L-61.125,134.157L-61.057,134.243L-60.988,134.514L-60.92,134.614L-60.852,134.443L-60.783,134.071L-60.715,134.157L-60.646,134.1L-60.578,134.4L-60.509,134.543L-60.441,134.471L-60.372,134.557L-60.304,134.529L-60.236,134.7L-60.167,134.371L-60.099,134.386L-60.03,134.571L-59.962,134.6L-59.893,134.343L-59.825,134.4L-59.756,134.243L-59.688,133.857L-59.62,134L-59.551,133.729L-59.483,133.629L-59.414,133.686L-59.346,133.671L-59.277,133.657L-59.209,133.6L-59.14,133.571L-59.072,133.443L-59.004,133.529L-58.935,133.486L-58.867,133.543L-58.798,133.643L-58.73,134.086L-58.661,134.014L-58.593,134.043L-58.524,133.886L-58.456,133.971L-58.388,134.143L-58.319,134.014L-58.251,133.857L-58.182,133.571L-58.114,133.657L-58.045,133.586L-57.977,133.529L-57.908,133.543L-57.84,133.7L-57.772,133.771L-57.703,133.886L-57.635,133.943L-57.566,133.9L-57.498,134.243L-57.429,134.529L-57.361,134.614L-57.292,134.5L-57.224,134.586L-57.155,134.429L-57.087,134.471L-57.019,134.371L-56.95,134.471L-56.882,134.4L-56.813,134.271L-56.745,134.2L-56.676,134.229L-56.608,134.057L-56.539,134.257L-56.471,134.457L-56.403,134.129L-56.334,133.986L-56.266,134.029L-56.197,133.986L-56.129,134.171L-56.06,134.357L-55.992,134.571L-55.923,134.4L-55.855,134.371L-55.787,134.457L-55.718,134.043L-55.65,134.1L-55.581,134.243L-55.513,134.2L-55.444,134.214L-55.376,134.157L-55.307,134.257L-55.239,134.314L-55.171,134.4L-55.102,134.857L-55.034,134.914L-54.965,134.943L-54.897,134.657L-54.828,134.886L-54.76,135.014L-54.691,135.071L-54.623,135.2L-54.555,135.629L-54.486,135.429L-54.418,135.257L-54.349,135.429L-54.281,135.886L-54.212,135.9L-54.144,136.357L-54.075,136.429L-54.007,136.3L-53.936,136.271L-53.867,136.243L-53.799,135.986L-53.73,135.9L-53.662,136.286L-53.593,136.571L-53.525,136.629L-53.457,136.886L-53.388,136.7L-53.32,136.5L-53.251,136.371L-53.183,136.643L-53.114,136.671L-53.046,136.457L-52.977,136.486L-52.909,136.486L-52.841,136.557L-52.772,136.514L-52.704,136.714L-52.635,136.671L-52.567,136.629L-52.498,136.614L-52.43,137L-52.361,137.043L-52.293,137.214L-52.225,137L-52.156,137.057L-52.088,136.743L-52.019,136.8L-51.951,136.971L-51.882,137.143L-51.814,137.486L-51.745,137.786L-51.677,137.929L-51.608,137.957L-51.54,137.886L-51.472,137.771L-51.403,137.471L-51.335,137.6L-51.266,137.786L-51.198,137.8L-51.129,137.586L-51.061,137.5L-50.992,137.5L-50.924,137.314L-50.856,137.243L-50.787,137.543L-50.719,137.457L-50.65,137.543L-50.582,137.871L-50.513,138.014L-50.445,137.957L-50.376,137.786L-50.308,137.986L-50.24,138.029L-50.171,137.943L-50.103,137.757L-50.034,137.914L-49.966,137.629L-49.897,137.429L-49.829,137.371L-49.76,137.214L-49.692,137.1L-49.624,136.943L-49.555,136.714L-49.487,136.243L-49.418,136.2L-49.35,136.3L-49.281,136.343L-49.213,136.057L-49.144,135.9L-49.076,135.771L-49.008,135.771L-48.939,135.871L-48.871,136.014L-48.802,136.157L-48.734,135.743L-48.665,135.643L-48.597,135.243L-48.528,134.771L-48.46,134.543L-48.392,134.6L-48.323,134.429L-48.255,134L-48.186,133.614L-48.118,133.371L-48.049,133.457L-47.981,133.343L-47.912,133.529L-47.844,133.871L-47.775,133.771L-47.707,133.629L-47.639,133.471L-47.57,133.186L-47.502,133.129L-47.433,133.443L-47.365,133.729L-47.296,133.5L-47.228,133.229L-47.159,133.457L-47.091,133.371L-47.023,133.157L-46.954,133.057L-46.886,133.1L-46.817,132.771L-46.749,132.371L-46.68,132.386L-46.612,131.886L-46.543,131.671L-46.475,131.857L-46.407,131.957L-46.338,131.657L-46.27,131.486L-46.201,131.643L-46.133,131.729L-46.064,131.714L-45.996,131.786L-45.927,131.757L-45.859,131.629L-45.791,131.243L-45.722,131.071L-45.654,130.971L-45.585,130.829L-45.517,130.886L-45.448,131.114L-45.38,130.929L-45.314,130.757L-45.246,130.8L-45.177,130.886L-45.109,130.529L-45.04,130.829L-44.972,131.1L-44.904,131.057L-44.835,130.671L-44.767,130.943L-44.698,131.343L-44.63,131.414L-44.561,131.843L-44.493,132.343L-44.424,132.343L-44.356,132.171L-44.288,132.214L-44.219,132.271L-44.151,132.043L-44.082,132.029L-44.014,132.071L-43.945,131.886L-43.877,131.771L-43.808,131.929L-43.74,131.957L-43.672,131.914L-43.603,131.957L-43.535,132.2L-43.466,132.171L-43.398,131.843L-43.329,131.743L-43.261,131.571L-43.192,131.357L-43.124,131.314L-43.056,131.457L-42.987,131.1L-42.919,130.971L-42.85,130.786L-42.782,130.857L-42.713,130.771L-42.645,130.743L-42.576,130.686L-42.508,130.414L-42.44,130.057L-42.371,129.7L-42.303,129.3L-42.234,129.186L-42.166,129.429L-42.097,129.657L-42.029,129.614L-41.96,129.371L-41.892,129.243L-41.824,129.086L-41.755,128.614L-41.687,128.614L-41.618,128.471L-41.55,128.157L-41.481,127.871L-41.413,127.729L-41.344,127.929L-41.276,127.971L-41.208,127.971L-41.139,128.314L-41.071,128.2L-41.002,127.743L-40.934,127.729L-40.865,127.371L-40.797,127.457L-40.728,127.486L-40.66,127.657L-40.591,127.257L-40.523,127.086L-40.455,127.157L-40.386,126.929L-40.318,127.143L-40.249,127.457L-40.181,127.6L-40.112,126.886L-40.044,126.414L-39.975,126.143L-39.907,126.057L-39.839,126.043L-39.77,126.171L-39.702,126.157L-39.633,125.814L-39.565,125.857L-39.496,126.2L-39.428,126.329L-39.359,126.843L-39.291,126.829L-39.223,127.186L-39.154,126.786L-39.086,126.314L-39.017,126.086L-38.949,126.357L-38.88,126.214L-38.812,126.5L-38.743,126.614L-38.675,126.386L-38.607,125.843L-38.538,125.714L-38.47,125.557L-38.401,125.714L-38.333,125.871L-38.264,125.886L-38.196,125.543L-38.127,125.1L-38.059,125.471L-37.991,125.771L-37.922,125.957L-37.854,126.129L-37.785,126.371L-37.717,126.314L-37.648,126.643L-37.58,126.957L-37.511,127L-37.443,126.814L-37.375,126.857L-37.306,126.686L-37.238,126.686L-37.169,126.071L-37.101,126.171L-37.032,126.329L-36.964,126.514L-36.895,126.686L-36.827,126.886L-36.758,127.014L-36.69,126.843L-36.622,127.043L-36.553,127.314L-36.485,127.871L-36.416,128.014L-36.348,128.143L-36.279,128.486L-36.211,128.443L-36.142,128.7L-36.074,129.143L-36.006,129.157L-35.937,129.2L-35.869,129.529L-35.8,129.7L-35.732,129.486L-35.663,129.771L-35.595,129.6L-35.526,129.486L-35.458,129.671L-35.39,129.943L-35.321,130.014L-35.253,129.386L-35.184,129.243L-35.116,129.243L-35.047,129.029L-34.979,129.029L-34.91,129.129L-34.842,128.871L-34.774,128.471L-34.705,127.914L-34.637,127.671L-34.568,127.457L-34.5,127.429L-34.431,127.214L-34.363,126.971L-34.294,126.343L-34.226,125.886L-34.158,125.3L-34.089,125.071L-34.021,124.8L-33.952,124.7L-33.884,124.4L-33.815,123.886L-33.747,123.6L-33.678,123.8L-33.61,123.6L-33.542,123.729L-33.473,123.943L-33.405,123.414L-33.336,122.714L-33.268,122.4L-33.199,122.529L-33.131,122.343L-33.062,122.786L-32.994,123.286L-32.926,123.329L-32.857,122.971L-32.789,122.871L-32.72,123.071L-32.652,123.343L-32.583,123.957L-32.515,124.286L-32.446,124.471L-32.378,124.329L-32.309,124.471L-32.241,124.886L-32.173,124.986L-32.104,125.5L-32.036,125.957L-31.967,125.929L-31.899,125.843L-31.83,125.914L-31.762,125.929L-31.693,125.943L-31.625,125.843L-31.557,125.871L-31.488,125.557L-31.42,124.829L-31.351,124.886L-31.283,125.143L-31.214,125.243L-31.146,125.786L-31.077,126.386L-31.009,126.086L-30.941,126.014L-30.872,125.986L-30.804,126.186L-30.735,126.257L-30.667,126.629L-30.598,126.8L-30.53,126.357L-30.461,126.329L-30.393,126.029L-30.325,126.171L-30.256,126.3L-30.188,126.4L-30.119,126.543L-30.051,126.414L-29.982,125.857L-29.914,125.7L-29.845,125.4L-29.777,125.371L-29.709,125.8L-29.64,126L-29.572,125.657L-29.503,125.314L-29.435,125.557L-29.366,126.4L-29.298,126.714L-29.229,127.157L-29.161,127.314L-29.093,126.857L-29.021,126.029L-28.953,126.029L-28.884,125.771L-28.816,125.629L-28.747,125.871L-28.679,126.043L-28.611,125.929L-28.542,125.886L-28.474,125.8L-28.405,125.414L-28.337,125.329L-28.268,125.157L-28.2,125.386L-28.131,125.171L-28.063,124.7L-27.995,124.643L-27.926,124.671L-27.858,124.771L-27.789,125.257L-27.721,125.614L-27.652,125.086L-27.584,124.943L-27.515,125.357L-27.447,125.957L-27.379,126.271L-27.31,126.086L-27.242,126.257L-27.173,125.971L-27.105,125.986L-27.036,126.214L-26.968,127.057L-26.899,127.029L-26.831,127.557L-26.762,127.957L-26.694,127.543L-26.626,127.514L-26.557,127.586L-26.489,127.571L-26.42,127.971L-26.352,128.514L-26.283,128.8L-26.215,128.786L-26.146,128.629L-26.078,128.971L-26.01,129.343L-25.941,129.714L-25.873,130.229L-25.804,130.786L-25.736,130.729L-25.667,130.3L-25.599,130.314L-25.53,130.2L-25.462,130.014L-25.394,129.843L-25.325,129.557L-25.257,129.486L-25.188,129.729L-25.12,129.9L-25.051,129.843L-24.983,129.686L-24.914,129.514L-24.846,129.843L-24.778,129.686L-24.709,129.443L-24.641,129.571L-24.572,129.543L-24.504,129.443L-24.435,129.614L-24.367,129.457L-24.298,129.057L-24.23,128.857L-24.162,128.857L-24.093,128.814L-24.025,128.443L-23.956,128.771L-23.888,128.886L-23.819,128.914L-23.751,128.7L-23.682,128.629L-23.614,129.014L-23.546,129.129L-23.477,129.643L-23.409,129.829L-23.34,129.471L-23.272,129.129L-23.203,128.543L-23.135,127.614L-23.066,127.129L-22.998,127.371L-22.93,127.686L-22.861,127.214L-22.793,126.6L-22.724,126.286L-22.656,126.586L-22.587,126.629L-22.519,126.886L-22.45,127.043L-22.382,126.357L-22.313,126.071L-22.245,125.886L-22.177,125.586L-22.108,125.529L-22.04,125.786L-21.971,126.057L-21.903,125.186L-21.834,124.329L-21.766,123.871L-21.697,123.286L-21.629,123.129L-21.561,123.286L-21.492,123.457L-21.424,122.729L-21.355,122.243L-21.287,122.2L-21.218,121.914L-21.15,122.129L-21.081,122.6L-21.013,122.957L-20.945,122.229L-20.876,121.657L-20.808,121.571L-20.739,121.671L-20.671,121.757L-20.602,121.771L-20.534,122.1L-20.465,121.671L-20.4,121.4L-20.331,121.671L-20.263,121.729L-20.195,122.114L-20.126,122.429L-20.058,122.6L-19.989,122.171L-19.921,121.6L-19.852,121.971L-19.784,122.2L-19.715,122.171L-19.647,122.657L-19.578,122.671L-19.51,122.186L-19.442,121.9L-19.373,121.743L-19.305,121.686L-19.236,121.271L-19.168,121.643L-19.099,122.086L-19.031,121.714L-18.962,121.214L-18.894,121.129L-18.826,121.057L-18.757,120.843L-18.689,121.143L-18.62,121.286L-18.552,120.643L-18.483,119.714L-18.415,119.829L-18.346,119.457L-18.278,119.371L-18.21,119.629L-18.141,119.486L-18.073,119.014L-18.004,118.329L-17.936,118.243L-17.867,118.357L-17.799,118.329L-17.73,118.729L-17.662,118.786L-17.594,118.186L-17.525,117.714L-17.457,117.314L-17.388,117.343L-17.32,117.629L-17.251,118.143L-17.183,118.929L-17.114,119.329L-17.046,118.5L-16.978,118.529L-16.909,118.514L-16.841,118.457L-16.772,118.686L-16.704,119.157L-16.635,118.771L-16.567,118.086L-16.498,118.043L-16.43,118.214L-16.362,117.714L-16.293,118.257L-16.225,118.243L-16.156,117.386L-16.088,116.957L-16.019,117.014L-15.951,117.057L-15.882,116.6L-15.814,116.671L-15.745,116.7L-15.677,116.214L-15.609,115.757L-15.54,115.6L-15.472,115.786L-15.403,116.071L-15.335,116.2L-15.266,116.157L-15.198,115.457L-15.129,114.943L-15.061,114.071L-14.993,114.357L-14.924,114.014L-14.856,114.557L-14.787,115L-14.719,114.586L-14.65,114.114L-14.582,114.014L-14.513,114.3L-14.445,114.729L-14.377,115.557L-14.308,116.171L-14.24,115.543L-14.171,115.129L-14.103,115.343L-14.034,115.286L-13.966,114.986L-13.897,115.357L-13.829,115.971L-13.761,115.529L-13.692,115.1L-13.624,114.786L-13.555,114.9L-13.487,115.3L-13.418,115.414L-13.35,115.271L-13.281,114.871L-13.213,114.543L-13.145,114.857L-13.076,114.871L-13.008,115.071L-12.939,115.129L-12.871,115.629L-12.802,114.7L-12.734,113.771L-12.665,113.971L-12.597,114.129L-12.529,114.186L-12.46,114.414L-12.392,114.286L-12.323,113.486L-12.255,113.229L-12.186,112.829L-12.118,112.971L-12.049,113.014L-11.981,113.371L-11.913,114.057L-11.844,113.671L-11.776,113.429L-11.707,113.829L-11.639,114.071L-11.57,114.371L-11.502,114.714L-11.433,115.043L-11.365,115.043L-11.296,114.986L-11.228,115.271L-11.16,115.243L-11.091,115.071L-11.023,115.043L-10.954,115.7L-10.886,115.5L-10.817,115.157L-10.749,115.9L-10.68,116.529L-10.612,116.3L-10.544,116.071L-10.475,116.229L-10.407,115.929L-10.338,115.429L-10.27,115.471L-10.201,115.229L-10.133,115.7L-10.064,116.143L-9.996,116.4L-9.928,116.371L-9.859,115.529L-9.791,115.629L-9.722,115.686L-9.654,115.243L-9.585,115.214L-9.517,115.543L-9.448,115.314L-9.38,114.829L-9.312,114.371L-9.243,114.014L-9.175,113.486L-9.106,113.643L-9.038,113.629L-8.969,113.143L-8.901,112.171L-8.832,112.171L-8.764,112.214L-8.696,111.829L-8.627,112.1L-8.559,112.357L-8.49,112.343L-8.422,112.329L-8.353,112.186L-8.285,112.557L-8.216,112.514L-8.148,113.043L-8.08,113.414L-8.011,113.214L-7.943,113.229L-7.874,112.886L-7.806,113.186L-7.737,113.143L-7.669,113.414L-7.6,113.843L-7.532,114.057L-7.463,113.357L-7.395,113.271L-7.327,113.157L-7.258,113.057L-7.19,113.757L-7.121,114.114L-7.053,113.971L-6.984,113.657L-6.916,113.971L-6.847,114.029L-6.779,114.086L-6.711,114.643L-6.642,114.743L-6.574,114.229L-6.505,113.957L-6.437,114.1L-6.368,113.943L-6.3,113.8L-6.231,113.971L-6.163,114.357L-6.095,113.9L-6.026,113.486L-5.958,113.414L-5.889,113.086L-5.821,112.686L-5.752,113.171L-5.684,113.529L-5.615,112.943L-5.547,112.686L-5.479,112.486L-5.41,112.8L-5.342,112.814L-5.273,113.229L-5.205,113.886L-5.136,113.614L-5.068,113.214L-4.999,113.143L-4.931,113.286L-4.863,112.886L-4.794,113.443L-4.726,113.471L-4.657,112.714L-4.589,112.457L-4.52,112.629L-4.452,113.343L-4.383,113.5L-4.315,113.857L-4.247,114.529L-4.178,113.786L-4.107,113.4L-4.038,113.5L-3.97,113.329L-3.901,112.929L-3.833,113.243L-3.765,113.6L-3.696,112.943L-3.628,112.5L-3.559,112.586L-3.491,112.286L-3.422,112.114L-3.354,112.3L-3.285,112.429L-3.217,111.771L-3.149,111.314L-3.08,111.186L-3.012,111.171L-2.943,111.557L-2.875,111.957L-2.806,112.357L-2.738,111.857L-2.669,111.729L-2.601,112.214L-2.533,112.429L-2.464,113.357L-2.396,113.486L-2.327,113.614L-2.259,113.086L-2.19,112.829L-2.122,113.571L-2.053,113.671L-1.985,114.243L-1.916,114.857L-1.848,115.414L-1.78,115.1L-1.711,115.029L-1.643,115.414L-1.574,115.543L-1.506,115.429L-1.437,116.4L-1.369,116.986L-1.3,116.443L-1.232,116.114L-1.164,116.457L-1.095,116.357L-1.027,116.229L-0.958,117L-0.89,117.186L-0.821,117.557L-0.753,117.843L-0.684,118.014L-0.616,118.186L-0.548,117.943L-0.479,118.814L-0.411,118.543L-0.342,117.814L-0.274,117.6L-0.205,117.329L-0.137,117.271L-0.068,117.086L0,117.457L0.068,116.929L0.137,116.314L0.205,115.8L0.274,116.029L0.342,116.1L0.411,116.4L0.479,116.943L0.548,117.286L0.616,117.071L0.684,116.414L0.753,116.614L0.821,116.871L0.89,117.129L0.958,117.957L1.027,118.886L1.095,119.114L1.164,118.914L1.232,118.529L1.3,118.371L1.369,118.414L1.437,118.643L1.506,118.857L1.574,117.714L1.643,117.114L1.711,117.314L1.78,117.014L1.848,117.386L1.916,117.529L1.985,117.429L2.053,116.8L2.122,116.557L2.19,116.471L2.259,116.514L2.327,116.7L2.396,116.886L2.464,116.829L2.533,116.557L2.601,116.357L2.669,115.757L2.738,115.886L2.806,115.886L2.875,116.057L2.943,115.971L3.012,115.2L3.08,114.257L3.149,113.429L3.217,113L3.285,112.414L3.354,112.586L3.422,112.7L3.491,112.557L3.559,112.057L3.628,112.271L3.696,112.386L3.765,112.6L3.833,112.929L3.901,113.143L3.97,112.686L4.038,112.371L4.107,112.271L4.175,111.957L4.244,111.986L4.312,112.4L4.381,112.443L4.449,112.1L4.517,111.714L4.586,111.329L4.654,111.014L4.723,110.957L4.791,111.414L4.86,111.9L4.928,111.271L4.994,110.857L5.062,111.171L5.131,110.814L5.199,110.729L5.268,111.386L5.336,111.886L5.404,111.3L5.473,110.5L5.541,110.071L5.61,109.829L5.678,109.814L5.747,110.029L5.815,110.043L5.884,109.7L5.952,109.343L6.02,109.771L6.089,110.257L6.157,110.743L6.226,111.357L6.294,111.957L6.363,111.5L6.431,110.686L6.5,110.557L6.568,110.643L6.636,111.043L6.705,111.657L6.773,112.2L6.842,111.371L6.91,110.686L6.979,110.714L7.047,110.457L7.116,110.343L7.184,111.114L7.252,111.414L7.321,110.614L7.389,110.186L7.458,110.229L7.526,110.329L7.595,110.357L7.663,110.886L7.732,110.986L7.8,110.114L7.868,109.614L7.937,109.514L8.005,109.243L8.074,108.829L8.142,108.743L8.211,108.714L8.279,109.014L8.348,108.2L8.416,108.214L8.484,107.871L8.553,107.586L8.621,107.829L8.69,107.786L8.758,107.086L8.827,106.357L8.895,106.571L8.964,106.171L9.032,105.743L9.101,106.2L9.169,106.443L9.237,106.271L9.306,105.9L9.374,105.7L9.443,105.129L9.511,104.686L9.58,105.071L9.648,105.143L9.717,104.371L9.785,103.171L9.853,102.914L9.922,102.471L9.99,102L10.059,102.5L10.127,102.571L10.196,101.771L10.264,101.271L10.333,100.514L10.401,100.3L10.469,100.343L10.538,101.329L10.606,102.329L10.675,102.629L10.743,102.243L10.812,102.243L10.88,102.257L10.949,101.857L11.017,102.614L11.085,103.486L11.154,102.757L11.222,102.329L11.291,101.571L11.359,101.4L11.428,101.286L11.496,101.971L11.565,102.714L11.633,102.186L11.701,101.529L11.77,102.057L11.838,102.543L11.907,102.9L11.975,103.386L12.044,104.386L12.112,103.857L12.181,103.443L12.249,103.643L12.317,103.714L12.386,103.829L12.454,104.786L12.523,105.071L12.591,104.371L12.66,103.757L12.728,102.957L12.797,102.443L12.865,102.557L12.933,103.029L13.002,103.329L13.07,102.786L13.139,102.486L13.207,102.971L13.276,102.671L13.344,103.286L13.413,103.957L13.481,104.829L13.55,104.886L13.618,104.229L13.686,104.514L13.755,104.957L13.823,105L13.892,105.7L13.96,106.314L14.029,106.143L14.097,105.6L14.166,106.071L14.234,106.629L14.302,107.1L14.371,107.157L14.439,106.971L14.508,106.386L14.576,106.043L14.645,106.386L14.713,106.686L14.782,106.786L14.85,107.743L14.918,108.129L14.987,108.514L15.055,108.271L15.124,108.229L15.192,107.543L15.261,107L15.329,107.657L15.398,107.471L15.466,107.229L15.534,106.757L15.603,106.614L15.671,106.686L15.74,106.514L15.808,106.957L15.877,106.929L15.945,106.586L16.014,105.457L16.082,105.257L16.15,104.329L16.219,104.043L16.287,104.286L16.356,103.886L16.424,103.471L16.493,103.057L16.561,102.714L16.63,102.343L16.698,102L16.766,102.043L16.835,102.257L16.903,102.143L16.972,102.157L17.04,101.314L17.109,101.2L17.177,101.557L17.246,102.771L17.314,103.957L17.383,103.829L17.451,103.9L17.519,104.057L17.588,103.686L17.656,103.514L17.725,104.257L17.793,104.857L17.862,104.657L17.93,104.471L17.999,104.514L18.067,105.3L18.135,105.757L18.204,107.271L18.272,107.971L18.341,107.471L18.409,107.643L18.478,108.043L18.546,108.243L18.615,108.429L18.683,109.2L18.751,109.614L18.82,109.286L18.888,109.1L18.957,108.386L19.025,108.014L19.094,107.943L19.162,108.814L19.231,109.186L19.299,108.443L19.367,108.157L19.436,108.243L19.504,108.171L19.573,108.3L19.641,109.414L19.71,109.9L19.778,109.486L19.847,109.029L19.915,108.9L19.983,108.8L20.052,108.714L20.12,108.857L20.189,109.1L20.257,108.657L20.326,108.186L20.394,108.257L20.463,108.971L20.531,109.2L20.599,110.1L20.668,110.629L20.736,110.257L20.805,110.286L20.873,110.443L20.942,109.986L21.01,110.329L21.079,110.743L21.147,111.057L21.215,110.443L21.287,110.014L21.355,110.271L21.424,110.043L21.492,109.7L21.561,110.186L21.629,110.1L21.697,109.443L21.766,109.071L21.834,108.929L21.903,109.014L21.971,109.243L22.04,110.157L22.108,110.6L22.177,110.414L22.245,109.771L22.313,109.714L22.382,109.486L22.45,109.186L22.519,109.2L22.587,109.857L22.656,110.1L22.724,110.014L22.793,110.314L22.861,110.214L22.93,110.571L22.998,111.514L23.066,112.171L23.135,112.429L23.203,112.4L23.272,112.143L23.34,111.9L23.409,111.929L23.477,112.571L23.546,113.286L23.614,113.314L23.682,113.143L23.751,113.214L23.819,112.814L23.888,113L23.956,113.714L24.025,114.071L24.093,113.671L24.162,113.429L24.23,113.186L24.298,113.257L24.367,113.343L24.435,113.8L24.504,114.071L24.572,113.314L24.641,112.457L24.709,111.471L24.778,110.857L24.846,110.686L24.914,111.214L24.983,111.129L25.051,110.186L25.12,109.2L25.188,108.471L25.257,108.257L25.325,109.029L25.394,109.814L25.462,110.171L25.53,109.486L25.599,108.729L25.667,108.071L25.736,108.786L25.804,109.057L25.873,109.929L25.941,110.229L26.01,109.714L26.078,109.271L26.146,108.729L26.215,108.714L26.283,108.9L26.352,109.143L26.42,109.229L26.489,109.571L26.557,109.671L26.626,109.971L26.694,109.486L26.762,109.814L26.831,110.743L26.899,110.986L26.968,110.214L27.036,109.229L27.105,109.643L27.173,110.014L27.242,110.286L27.31,111.014L27.379,111.086L27.447,110.529L27.515,110L27.584,109.814L27.652,109.657L27.721,110.186L27.789,109.9L27.858,110.2L27.926,109.586L27.995,110.343L28.063,110.329L28.131,109.957L28.2,110.171L28.268,110.4L28.337,110.271L28.405,109.929L28.474,109.514L28.542,108.671L28.611,108.371L28.679,108.171L28.747,108.571L28.816,108.614L28.884,107.729L28.953,107.3L29.021,107.1L29.09,107.1L29.158,107.214L29.227,107.529L29.295,107.471L29.363,106.814L29.432,106.529L29.5,106.614L29.569,106.7L29.637,106.471L29.706,107.3L29.774,107.3L29.843,106.5L29.908,106L29.977,106.571L30.045,105.443L30.114,105.5L30.182,106.214L30.25,106.671L30.319,106.843L30.387,106.786L30.456,107.043L30.524,106.871L30.593,106.629L30.661,107.257L30.73,107.057L30.798,106.843L30.866,106.214L30.935,106.6L31.003,106.743L31.072,106.614L31.14,107.271L31.209,107.329L31.277,106.743L31.346,106.057L31.414,105.957L31.482,105.414L31.551,105.2L31.619,105.614L31.688,106.043L31.756,104.986L31.825,104.257L31.893,104.2L31.962,103.686L32.03,102.671L32.098,103.257L32.167,103.3L32.235,102.514L32.304,101.571L32.372,100.5L32.441,100.5L32.509,100.071L32.578,100.914L32.646,101.4L32.714,100.886L32.783,100.257L32.851,99.814L32.92,100.143L32.988,100.286L33.057,100.629L33.125,101.5L33.194,101.957L33.262,101.329L33.33,101.257L33.399,101.557L33.467,101.471L33.536,102.314L33.604,102.514L33.673,101.4L33.741,100.571L33.81,100.771L33.878,100.786L33.946,100.714L34.015,101.529L34.083,101.557L34.152,100.229L34.22,99.514L34.289,99.771L34.357,99.643L34.426,99.914L34.494,100.071L34.563,100.457L34.631,99.471L34.699,98.586L34.768,98L34.836,98.086L34.905,98.114L34.973,98.414L35.042,98.114L35.11,97.457L35.179,96.671L35.247,95.671L35.315,95.614L35.384,95.914L35.452,96.714L35.521,97.443L35.589,97.029L35.658,97.114L35.726,97.7L35.795,98.171L35.863,98.571L35.931,99.214L36,99.886L36.068,98.886L36.137,98.886L36.205,99.014L36.274,99.157L36.342,99.057L36.411,99.814L36.479,100.271L36.547,99.686L36.616,98.743L36.684,98.914L36.753,99.129L36.821,99.843L36.89,100.614L36.958,101.657L37.027,101.286L37.095,101.029L37.163,101.071L37.232,101.243L37.3,101.871L37.369,102.529L37.437,103L37.506,102.371L37.574,101.671L37.643,102.014L37.711,101.657L37.779,102.029L37.848,102.7L37.916,102.914L37.985,102.543L38.053,102.186L38.122,102.529L38.19,102.843L38.259,103.186L38.327,104.014L38.396,104.457L38.464,104.157L38.532,104.243L38.601,104.771L38.669,105.386L38.738,105.8L38.806,106.6L38.875,106.786L38.943,106.614L39.012,106.1L39.08,106.157L39.148,106.543L39.217,106.743L39.285,107.1L39.354,107.343L39.422,107.171L39.491,107.086L39.559,107.343L39.628,107.486L39.696,107.557L39.764,108.571L39.833,108.886L39.901,108.843L39.97,108.1L40.038,108L40.107,107.1L40.175,106.571L40.244,107.343L40.312,107.8L40.38,106.814L40.449,105.557L40.517,105.271L40.586,104.357L40.654,103.857L40.723,103.929L40.791,104.014L40.86,102.586L40.928,101.443L40.996,100.9L41.065,100.786L41.133,101.1L41.202,101.386L41.27,101.686L41.339,100.8L41.407,99.757L41.476,98.971L41.544,97.829L41.612,97.557L41.681,98.129L41.749,98.043L41.818,96.6L41.886,95.157L41.955,94.2L42.023,94.586L42.092,94.829L42.16,96.1L42.228,97.2L42.297,97.1L42.365,96.357L42.434,96.529L42.502,97.214L42.571,97.5L42.639,98.471L42.708,99.343L42.776,98.771L42.845,98.171L42.913,99.029L42.981,99.6L43.05,99.871L43.118,100.4L43.187,100.214L43.255,99.129L43.324,98.243L43.392,98.6L43.461,98.443L43.529,98.886L43.597,99.871L43.666,100.571L43.734,99.943L43.803,99.257L43.871,99.614L43.94,99.686L44.008,99.543L44.077,99.829L44.145,100.3L44.213,99.486L44.282,99.143L44.35,98.6L44.419,98.557L44.487,98.786L44.556,99.757L44.624,100.443L44.693,99.657L44.761,98.871L44.829,99.3L44.898,99.086L44.966,99.014L45.035,99.757L45.103,100.386L45.172,99.7L45.24,99.214L45.309,100.071L45.377,101.486L45.445,102.114L45.514,103.514L45.582,104.243L45.651,103.671L45.719,103.029L45.788,103.114L45.856,102.929L45.925,103.071L45.993,104.271L46.061,105.286L46.13,104.729L46.201,103.914L46.27,104.214L46.338,103.971L46.407,104.329L46.475,105.829L46.543,106.629L46.612,106.029L46.68,105.343L46.749,106.043L46.817,106.6L46.886,107.186L46.954,108.443L47.023,109.071L47.091,108.386L47.159,107.871L47.228,108.4L47.296,108.529L47.365,108.514L47.433,108.229L47.502,108.514L47.57,108.943L47.639,108.914L47.707,109.771L47.775,110.171L47.844,110.571L47.912,111.871L47.981,112.829L48.049,113.314L48.118,113.271L48.186,113.7L48.255,114.957L48.323,115.571L48.392,116.743L48.46,117.229L48.528,116.443L48.597,115.671L48.665,115.614L48.734,115.9L48.802,115.929L48.871,116.443L48.939,116.643L49.008,116.543L49.076,116.157L49.144,116.529L49.213,116.414L49.281,116.071L49.35,116.557L49.418,116.386L49.487,115.757L49.555,114.9L49.624,113.857L49.692,113.514L49.76,112.943L49.829,112.629L49.897,112.571L49.966,111.571L50.034,110.871L50.103,109.943L50.171,109.143L50.24,108.757L50.308,108.286L50.376,108.343L50.445,107.4L50.513,106.2L50.582,106.2L50.65,106.243L50.719,105.971L50.787,106.486L50.856,106.671L50.924,106.014L50.992,105.614L51.061,105.314L51.129,105.071L51.198,105.2L51.266,106.114L51.335,107.129L51.403,107.257L51.472,107.129L51.54,107.443L51.608,107.857L51.677,108.114L51.745,108.557L51.814,108.857L51.882,108.614L51.951,107.629L52.019,107.357L52.088,107.029L52.156,107.471L52.225,108.4L52.293,108.786L52.361,108.057L52.43,107.429L52.498,107.843L52.567,108.429L52.635,108.229L52.704,108.771L52.772,109.271L52.841,108.486L52.909,107.814L52.977,107.771L53.046,107.071L53.114,106.671L53.183,107.286L53.251,107.114L53.32,105.7L53.388,104.229L53.457,104.543L53.525,105.157L53.593,104.929L53.662,105.3L53.73,105.271L53.799,104.443L53.867,103.443L53.936,103.371L54.004,104.2L54.073,105.114L54.141,105.743L54.209,105.886L54.278,105.786L54.346,106.071L54.415,106.5L54.483,106.914L54.552,106.857L54.62,107.157L54.689,107.643L54.757,106.943L54.823,106.471L54.891,106.814L54.96,106.771L55.028,106.386L55.096,107.314L55.165,107.843L55.233,107.643L55.302,106.729L55.37,107.243L55.439,107.629L55.507,106.286L55.576,106.186L55.644,106.186L55.712,105.343L55.781,104.629L55.849,104.829L55.918,105.214L55.986,105L56.055,105.114L56.123,104.986L56.192,104.257L56.26,103.1L56.328,102.3L56.397,101.143L56.465,100.5L56.534,100.371L56.602,99.929L56.671,98.414L56.739,97.043L56.808,96.829L56.876,96.429L56.944,95.643L57.013,95.971L57.081,96.614L57.15,95.557L57.218,94.371L57.287,93.943L57.355,93.671L57.424,93.3L57.492,94.071L57.56,94.686L57.629,94.2L57.697,93.371L57.766,93.043L57.834,92.757L57.903,92.029L57.971,92.857L58.04,93.886L58.108,94.029L58.176,92.729L58.245,92.857L58.313,93.043L58.382,92.529L58.45,93.329L58.519,93.814L58.587,93.057L58.656,92.657L58.724,93.229L58.792,93.171L58.861,92.629L58.929,93.2L58.998,93.814L59.066,92.729L59.135,91.643L59.203,91.986L59.272,91.943L59.34,91.929L59.409,92.843L59.477,93.086L59.545,91.886L59.614,91.1L59.682,90L59.751,90.086L59.819,90.314L59.888,91.114L59.956,91.4L60.025,90.171L60.093,89.114L60.161,88.443L60.23,88.929L60.298,88.829L60.367,89.157L60.435,89.514L60.504,89.329L60.572,88.629L60.641,89.343L60.709,89.186L60.777,89.186L60.846,90.114L60.914,90.9L60.983,90.157L61.051,89.057L61.12,89.4L61.188,89.6L61.257,89.657L61.325,90.529L61.393,91.086L61.462,90.957L61.53,90.786L61.599,91.186L61.667,91.471L61.736,92.357L61.804,93.343L61.873,93.843L61.941,93.3L62.009,93.414L62.078,94.143L62.146,94.343L62.215,94.614L62.283,95.129L62.352,95.414L62.42,95.114L62.489,95.471L62.557,95.271L62.625,95.471L62.694,94.829L62.762,95.629L62.831,95.657L62.899,95.543L62.968,95.443L63.036,96.029L63.105,96.9L63.173,97.429L63.242,98.557L63.31,99.2L63.378,99.343L63.447,98.786L63.515,98.829L63.584,99.186L63.652,99.457L63.721,100.071L63.789,100.714L63.858,100.057L63.926,99.7L63.994,100.143L64.063,100.614L64.131,100.543L64.2,101.129L64.268,101.157L64.337,101.043L64.405,100.6L64.474,100.729L64.542,100.6L64.61,100.357L64.679,101.157L64.747,101.886L64.816,101.586L64.884,101.9L64.953,101.529L65.021,100.843L65.09,100.343L65.158,100.157L65.226,100.757L65.295,100.3L65.363,99.957L65.432,99.229L65.5,98.871L65.569,98.257L65.637,98.086L65.706,97.657L65.774,96.271L65.842,95.014L65.911,95.014L65.979,94.3L66.048,93.571L66.116,93.6L66.185,93.471L66.253,93.029L66.322,92.929L66.39,92.386L66.458,92.457L66.527,92.243L66.595,92.871L66.664,92.971L66.732,92.1L66.801,91.129L66.869,90.986L66.938,90.357L67.006,90.057L67.074,91.271L67.143,92.057L67.211,92.243L67.28,90.543L67.348,89.8L67.417,88.943L67.485,88.871L67.554,89.843L67.622,90.471L67.691,89.971L67.759,89.771L67.827,90.643L67.896,90.943L67.964,91.043L68.033,92.357L68.101,93.543L68.17,92.9L68.238,92.571L68.307,92.443L68.375,92.357L68.443,92.529L68.512,93.443L68.58,94.114L68.649,93.429L68.717,93.057L68.786,92.871L68.854,93L68.923,92.9L68.991,94.043L69.059,94.643L69.128,94.071L69.196,94.086L69.265,94.157L69.333,94.814L69.402,95.443L69.47,96.786L69.539,97.571L69.607,97.371L69.675,97.6L69.744,98.186L69.812,99.157L69.881,99.714L69.949,100.657L70.018,100.9L70.086,100.057L70.155,99.429L70.223,100.214L70.291,101.586L70.36,102.486L70.428,103.286L70.497,103.943L70.565,103.343L70.634,102.7L70.702,102.957L70.771,103.271L70.839,103.857L70.907,104.871L70.976,105.514L71.044,104.586L71.116,104.229L71.184,104.3L71.253,103.8L71.321,103.714L71.389,104.671L71.458,105.186L71.526,104.657L71.595,104.071L71.663,104.043L71.732,103.957L71.8,103.957L71.869,103.814L71.937,104.114L72.005,103.471L72.074,103.543L72.142,104.171L72.211,104.086L72.279,104.171L72.348,103.986L72.416,103.929L72.485,103.914L72.553,104.514L72.621,104.871L72.69,105.414L72.758,105.629L72.827,106.514L72.895,106.871L72.964,106.314L73.032,106.471L73.101,106.743L73.169,107.071L73.238,107.086L73.306,108L73.374,108.371L73.443,107.8L73.511,107.343L73.58,107.029L73.648,107.386L73.717,107.243L73.785,107.586L73.854,108.271L73.922,108.243L73.99,107.829L74.059,108.329L74.127,108.129L74.196,107.843L74.264,108.657L74.333,109.243L74.401,109.243L74.47,108.8L74.538,108.443L74.606,107.386L74.675,107.1L74.743,107.257L74.812,107.414L74.88,106.857L74.949,106.529L75.017,106.957L75.086,106.971L75.154,107.229L75.222,107.986L75.291,108.371L75.359,107.729L75.428,107.457L75.496,107.643L75.565,107.657L75.633,107.629L75.702,108.129L75.77,108.386L75.838,107.7L75.907,107.557L75.975,107.229L76.044,106.743L76.112,105.943L76.181,106.386L76.249,106.7L76.318,106.543L76.386,105.843L76.454,105.143L76.523,105.271L76.591,104.929L76.66,105.614L76.728,105.8L76.797,105.314L76.865,104.9L76.934,104.786L77.002,104.614L77.07,104.143L77.139,104.029L77.207,104.371L77.276,103.829L77.344,103.943L77.413,104.114L77.481,103.714L77.55,103.414L77.618,103.786L77.687,104.357L77.755,103.543L77.823,102.929L77.892,102.929L77.96,101.943L78.029,101.657L78.097,102.186L78.166,102.714L78.234,101.657L78.303,100.714L78.371,99.371L78.439,99.3L78.508,98.857L78.576,98.657L78.645,98.643L78.713,97.871L78.782,97.086L78.85,96.843L78.919,96.286L78.987,95.857L79.055,96.114L79.124,96.2L79.192,95.5L79.261,94.571L79.329,93.957L79.398,92.886L79.466,92.257L79.535,92.743L79.603,92.871L79.671,91.971L79.737,91.171L79.805,91.157L79.874,90.729L79.942,90.529L80.011,91.257L80.079,91.3L80.148,90.643L80.216,89.986L80.285,90.243L80.353,90.557L80.422,91.314L80.49,91.429L80.558,91.986L80.627,91.971L80.695,91.8L80.764,92.314L80.832,93.114L80.901,93.943L80.969,94.786L81.038,95.429L81.106,94.757L81.174,94.114L81.243,94.014L81.311,93.657L81.38,93.2L81.448,94.086L81.517,94.729L81.585,94.071L81.654,93.171L81.722,92.6L81.79,92.014L81.859,91.986L81.927,92.614L81.996,93.386L82.064,93.029L82.133,92.643L82.201,92.329L82.27,92.329L82.338,91.329L82.406,91.329L82.475,90.757L82.543,90.029L82.612,89.029L82.68,87.914L82.749,87.4L82.817,86.557L82.886,86.771L82.954,86.357L83.022,86.157L83.091,85.443L83.159,85.029L83.228,85.386L83.296,85.171L83.365,85.6L83.433,85.943L83.502,84.6L83.57,83.886L83.638,83.571L83.707,84.129L83.775,84.414L83.844,85.114L83.912,85.314L83.981,85.229L84.049,84.057L84.118,83.343L84.186,83.314L84.255,82.929L84.323,82.943L84.391,83.757L84.46,83.186L84.528,83.286L84.597,82.786L84.665,82.357L84.734,82.5L84.802,82.629L84.871,82.814L84.939,81.7L85.007,80.571L85.076,80.014L85.144,79.814L85.213,80.3L85.281,81.186L85.35,82.029L85.418,81.8L85.487,81.457L85.555,82.143L85.623,82.286L85.692,82.943L85.76,83.6L85.829,84.471L85.897,84.414L85.966,83.886L86.034,83.757L86.103,84.071L86.171,83.971L86.239,84.443L86.308,85.386L86.376,85.414L86.445,84.557L86.513,84.971L86.582,84.9L86.65,84.829L86.719,85.786L86.787,86.414L86.855,86.586L86.924,86.129L86.992,85.514L87.061,85.4L87.129,85.571L87.198,86.4L87.266,87.143L87.335,85.871L87.403,85.214L87.471,85.557L87.54,85.829L87.608,85.786L87.677,86L87.745,86.014L87.814,85.329L87.882,83.929L87.951,84.243L88.019,84.086L88.087,83.957L88.156,84.514L88.224,85.214L88.293,85.071L88.361,84.9L88.43,85.043L88.498,85.871L88.567,85.571L88.635,86.071L88.704,87.043L88.772,87.029L88.84,86.743L88.909,87.257L88.977,87.071L89.046,88.057L89.114,89.057L89.183,89.057L89.251,88.329L89.32,87.186L89.388,87.4L89.456,87.414L89.525,87.457L89.593,88.557L89.662,89.3L89.73,89.886L89.799,89.214L89.867,88.229L89.936,87.914L90.004,87.086L90.072,87.414L90.141,87.529L90.209,85.643L90.278,84.2L90.346,83.3L90.415,82.443L90.483,82.257L90.552,82.443L90.62,82.957L90.688,81.371L90.757,79.771L90.825,78.514L90.894,78.014L90.962,76.343L91.031,77.057L91.099,77.129L91.168,76.171L91.236,75.157L91.304,74.929L91.373,73.986L91.441,73.114L91.51,73.043L91.578,73.229L91.647,72.371L91.715,72.086L91.784,70.757L91.852,71.043L91.92,71.586L91.989,73.3L92.057,74.271L92.126,73.5L92.194,73.214L92.263,74.543L92.331,75.414L92.4,75.657L92.468,76.857L92.537,77.986L92.605,78.343L92.673,77.843L92.742,79.414L92.81,80.657L92.879,81.743L92.947,82.943L93.016,84.4L93.084,84.229L93.153,84.071L93.221,84.657L93.289,85.071L93.358,85.057L93.426,86.871L93.495,88.057L93.563,87.571L93.632,86.357L93.7,86.1L93.769,85.9L93.837,86.3L93.905,87.129L93.974,88.186L94.042,87.743L94.111,87.629L94.179,88.371L94.248,88.429L94.316,88.6L94.385,89.871L94.453,90.857L94.521,90.729L94.59,89.943L94.658,89.586L94.727,89.814L94.795,89.6L94.864,90.229L94.932,90.757L95.001,89.971L95.069,89.529L95.137,89.3L95.206,88.586L95.274,88.629L95.343,89.829L95.411,91.043L95.48,90.4L95.548,89.5L95.617,90.114L95.685,91.9L95.753,92.8L95.822,93.529L95.89,94.643L95.959,94.386L96.03,94.243L96.099,94.343L96.167,93.943L96.235,93.9L96.304,94.571L96.372,95.229L96.441,94.543L96.509,94.043L96.578,94.371L96.646,94.486L96.715,94.486L96.783,95.186L96.851,95.443L96.92,94.529L96.988,94.214L97.057,94.914L97.125,95.457L97.194,95.6L97.262,96.643L97.331,97.414L97.399,96.986L97.467,96.671L97.536,97.957L97.604,98.614L97.673,98.929L97.741,98.729L97.81,99L97.878,98.371L97.947,97.557L98.015,98.029L98.084,97.214L98.152,96.614L98.22,97.429L98.289,98.3L98.357,97.743L98.426,96.714L98.494,96.871L98.563,96.757L98.631,96.143L98.7,96.343L98.768,97.214L98.836,96.314L98.905,95.629L98.973,95.557L99.042,94.814L99.11,94.314L99.179,94.986L99.247,95.986L99.316,96.343L99.384,95.857L99.452,95.929L99.521,95.457L99.589,94.586L99.658,94.9L99.726,94.886L99.795,94.357L99.863,93.243L99.932,92.714L100,92.243L100.068,91.386L100.137,92.543L100.205,93.657L100.274,93.229L100.342,91.757L100.411,91.714L100.479,92L100.548,91.886L100.616,92.529L100.684,93.286L100.753,93.229L100.821,92.029L100.89,92.4L100.958,92.757L101.027,93.543L101.095,94.786L101.164,95.5L101.232,95.157L101.3,94.7L101.369,93.986L101.437,94L101.506,94.271L101.574,94.843L101.643,95.014L101.711,93.957L101.78,93.057L101.848,92.457L101.916,92.371L101.985,92.257L102.053,92.829L102.122,93.029L102.19,92.257L102.259,91.486L102.327,90.471L102.396,90.886L102.464,90.686L102.533,91.386L102.601,91.857L102.669,90.886L102.738,90.371L102.806,89.971L102.875,89.886L102.943,90.571L103.012,91.471L103.08,91.971L103.149,92.286L103.217,91.414L103.285,91.143L103.354,91.843L103.422,93.129L103.491,94.243L103.559,95.1L103.628,96.043L103.696,96.929L103.765,98.786L103.833,100.6L103.901,102.314L103.97,104.271L104.038,106.343L104.107,107.443L104.175,108.7L104.244,109.986L104.312,111.514L104.381,113.829L104.449,115.7L104.517,117.614L104.586,118.486L104.651,119.371L104.72,121.186L104.788,122.6L104.857,124.214L104.925,126.171L104.994,127.129L105.062,127.886L105.131,128.471L105.199,129.014L105.268,130.6L105.336,131.386L105.404,131.671L105.473,131.814L105.541,131.9L105.61,132.029L105.678,132.143L105.747,132.357L105.815,132.443L105.884,132.7L105.952,133.057L106.02,132.957L106.089,132.371L106.157,132.129L106.226,131.986L106.294,131.957L106.363,131.686L106.431,131.443L106.5,130.871L106.568,130.086L106.636,129.586L106.705,129.186L106.773,129.114L106.842,128.871L106.91,128.643L106.979,128.186L107.047,127.729L107.116,127.186L107.184,126.357L107.252,125.786L107.321,125.114L107.389,124.757L107.458,123.843L107.526,122.671L107.595,121.829L107.663,121.229L107.732,120.114L107.8,119.686L107.868,119.414L107.937,118.857L108.005,118.071L108.074,117.2L108.142,116.629L108.211,116.143L108.279,115.457L108.348,114.9L108.416,114.6L108.484,114.086L108.553,113.886L108.621,114.143L108.69,114.014L108.758,113.514L108.827,112.986L108.895,112.286L108.964,111.643L109.032,111.129L109.101,110.657L109.169,110.2L109.237,109.986L109.306,109.886L109.374,109.614L109.443,109.071L109.511,108.9L109.58,108.886L109.648,108.743L109.717,107.857L109.785,107.586L109.853,106.814L109.922,106.029L109.99,105.029L110.059,104.771L110.127,104.057L110.196,103.986L110.264,103.386L110.333,102.686L110.401,101.843L110.469,101.343L110.538,100.5L110.606,100.1L110.675,100.1L110.743,99.143L110.812,98.8L110.88,98.557L110.949,97.857L111.017,97.086L111.085,97.086L111.154,97.343L111.222,96.086L111.291,95.529L111.359,94.9L111.428,94.314L111.496,93.871L111.565,93.871L111.633,93.257L111.701,92L111.77,92.014L111.838,91.657L111.907,91.671L111.975,91.671L112.044,90.857L112.112,90.3L112.181,89.971L112.249,89.614L112.317,89.314L112.386,89.729L112.454,90.271L112.523,90.143L112.591,90.314L112.66,90.329L112.728,89.329L112.797,89.857L112.865,89.829L112.933,88.8L113.002,89.186L113.07,89.6L113.139,88.814L113.207,87.771L113.276,88.714L113.344,89L113.413,88.943L113.481,88.543L113.55,89.186L113.618,89.443L113.686,89.743L113.755,90.871L113.823,91.214L113.892,91.543L113.96,91.143L114.029,91.2L114.097,92.429L114.166,92.686L114.234,93.429L114.302,93.629L114.371,93.843L114.439,92.814L114.508,92.643L114.576,92.357L114.645,92.371L114.713,91.671L114.782,91.743L114.85,91.371L114.918,91.043L114.987,91.9L115.055,91.8L115.124,92.143L115.192,91.414L115.261,90.357L115.329,88.6L115.398,86.571L115.466,86.157L115.534,86.771L115.603,84.614L115.671,83.171L115.74,82L115.808,79.986L115.877,78.429L115.945,78.657L116.014,78.886L116.082,77.386L116.15,76.086L116.219,74.871L116.287,73.143L116.356,71.429L116.424,71.529L116.493,72.114L116.561,72L116.63,71.443L116.698,70.429L116.766,68.9L116.835,67.786L116.903,68.214L116.972,68.6L117.04,67.929L117.109,66.857L117.177,65.229L117.246,65.386L117.314,66.343L117.383,68.286L117.451,70.471L117.519,71.6L117.588,71.329L117.656,72.471L117.725,72.657L117.793,73.286L117.862,75.729L117.93,76.986L117.999,75.843L118.067,75.286L118.135,76.114L118.204,76.129L118.272,76.529L118.341,78.243L118.409,79.943L118.478,79.643L118.546,79.186L118.615,78.786L118.683,79.157L118.751,79.929L118.82,82.529L118.888,84.071L118.957,83.486L119.025,83.471L119.094,83.6L119.162,83.314L119.231,83.414L119.299,84.814L119.367,85.114L119.436,84.086L119.504,82.957L119.573,82.214L119.641,82.071L119.71,82.171L119.778,83.557L119.847,84.1L119.915,82.714L119.983,82.514L120.052,83.4L120.12,83.514L120.189,83.657L120.257,84.7L120.326,85.257L120.394,84.586L120.463,84.057L120.531,84.2L120.599,85.443L120.668,86.043L120.736,86.829L120.805,87.829L120.873,87.471L120.945,87L121.013,87.114L121.081,86.243L121.15,86.129L121.218,87.643L121.287,88.271L121.355,87.357L121.424,86.8L121.492,87.186L121.561,87.243L121.629,86.386L121.697,87.143L121.766,87.443L121.834,86.986L121.903,86.4L121.971,87.071L122.04,88.557L122.108,89.057L122.177,90.343L122.245,91.314L122.313,91.1L122.382,91.086L122.45,91.957L122.519,92.829L122.587,93.886L122.656,94.043L122.724,94.471L122.793,93.914L122.861,93.329L122.93,93.371L122.998,93.529L123.066,94.343L123.135,95.986L123.203,96.9L123.272,96.214L123.34,96.529L123.409,96.314L123.477,95.986L123.546,95.5L123.614,96.443L123.682,97.6L123.751,96.314L123.819,95.671L123.888,94.843L123.956,94.1L124.025,93.314L124.093,92.571L124.162,92.614L124.23,92.143L124.298,90.543L124.367,90.171L124.435,89.829L124.504,88.986L124.572,88.886L124.641,88.3L124.709,87.157L124.778,86.143L124.846,85.871L124.914,85.071L124.983,84.186L125.051,84.029L125.12,83.129L125.188,83.214L125.257,83.743L125.325,83.514L125.394,82.914L125.462,83.286L125.53,84.343L125.599,85.586L125.667,85.186L125.736,84.643L125.804,85.014L125.873,85.557L125.941,86.429L126.01,87.814L126.078,88.9L126.146,88.871L126.215,88.043L126.283,87.386L126.352,89L126.42,90.214L126.489,91.1L126.557,91.529L126.626,90.457L126.694,89.043L126.762,88.271L126.831,87.329L126.899,87.114L126.968,87.614L127.036,88.243L127.105,87.943L127.173,86.457L127.242,84.5L127.31,82.586L127.379,81.814L127.447,82.771L127.515,82.943L127.584,82.1L127.652,80.857L127.721,80.043L127.789,79.014L127.858,78.214L127.926,78.857L127.995,78.671L128.063,78.214L128.131,75.529L128.2,74L128.268,72.743L128.337,71.9L128.405,71.357L128.474,70.686L128.542,69.271L128.611,68.357L128.679,68.014L128.747,67.643L128.816,67.557L128.884,69.014L128.953,70.1L129.021,70.4L129.09,70.171L129.158,70.457L129.227,72.629L129.295,74.014L129.363,75.114L129.432,76.843L129.5,75.729L129.569,73.914L129.637,73.257L129.706,72.157L129.774,71.529L129.843,72.5L129.911,73.829L129.979,72.157L130.045,70.914L130.114,70.014L130.182,70.357L130.25,70.1L130.319,71.514L130.387,72.543L130.456,70.657L130.524,69.257L130.593,69L130.661,68.429L130.73,67.957L130.798,68.857L130.866,69.486L130.935,68.129L131.003,65.557L131.072,63.6L131.14,62.657L131.209,61.643L131.277,60.814L131.346,59.286L131.414,57.914L131.482,55.971L131.551,55.571L131.619,55.486L131.688,55.014L131.756,56.571L131.825,57.286L131.893,56.057L131.962,54.329L132.03,54.157L132.098,53.971L132.167,53.2L132.235,54.186L132.304,54.557L132.372,52.771L132.441,50.829L132.509,51.2L132.578,50.471L132.646,49.329L132.714,49.929L132.783,49.557L132.851,48.3L132.92,46.657L132.988,45.557L133.057,45.571L133.125,45.829L133.194,47.371L133.262,48.814L133.33,49.086L133.399,48.157L133.467,47.371L133.536,47.229L133.604,46.443L133.673,47.686L133.741,46.929L133.81,44.971L133.878,44.629L133.946,44.7L134.015,44.286L134.083,43.986L134.152,45.3L134.22,46.443L134.289,46.157L134.357,45.729L134.426,46.186L134.494,45.729L134.563,45.286L134.631,47.157L134.699,48.829L134.768,48.414L134.836,48.943L134.905,49.314L134.973,49.643L135.042,50L135.11,51.286L135.179,52.257L135.247,50.971L135.315,49.971L135.384,49.243L135.452,50.029L135.521,50.314L135.589,52.329L135.658,53.657L135.726,53.729L135.795,55.414L135.863,56.757L135.931,56.857L136,57.543L136.068,59.557L136.137,60.929L136.205,60.471L136.274,60.229L136.342,61L136.411,61.9L136.479,62.043L136.547,64.3L136.616,65.614L136.684,64.871L136.753,64.943L136.821,65.1L136.89,64.614L136.958,64.871L137.027,66.114L137.095,67.243L137.163,66.429L137.232,65.986L137.3,65.371L137.369,64.643L137.437,64.186L137.506,65.071L137.574,66.643L137.643,65.271L137.711,64.671L137.779,64.457L137.848,63.529L137.916,63.271L137.985,63.571L138.053,64.1L138.122,63.414L138.19,62.786L138.259,62.457L138.327,62.214L138.396,60.114L138.464,59.786L138.532,60.157L138.601,59.829L138.669,59.357L138.738,59.343L138.806,58.8L138.875,59L138.943,60.186L139.012,61.814L139.08,61.486L139.148,61.314L139.217,62.314L139.285,61.971L139.354,62.929L139.422,63.857L139.491,64.429L139.559,63.386L139.628,61.943L139.696,62.657L139.764,63.229L139.833,63.686L139.901,65.371L139.97,66.586L140.038,67.1L140.107,66.586L140.175,66.671L140.244,66.343L140.312,64.543L140.38,64.671L140.449,66.014L140.517,63.614L140.586,61.329L140.654,59.371L140.723,58.757L140.791,56.643L140.86,55.843L140.928,55.571L140.996,53.871L141.065,50.671L141.133,49.571L141.202,47.6L141.27,45.571L141.339,45.257L141.407,43.843L141.476,41.514L141.544,39.843L141.612,39.043L141.681,37.443L141.749,35.171L141.818,34.4L141.886,34.243L141.955,32.4L142.023,30.2L142.092,28.214L142.16,26.229L142.228,23.9L142.297,24.843L142.365,26.571L142.434,27.514L142.502,26.914L142.571,27.843L142.639,28.186L142.708,28.229L142.776,29.186L142.845,31.429L142.913,31.614L142.981,30.6L143.05,30.886L143.118,30.357L143.187,29.986L143.255,31.886L143.324,33.029L143.392,32.9L143.461,33.771L143.529,34.729L143.597,34.071L143.666,33.414L143.734,36.2L143.803,37.514L143.871,36.643L143.94,35.729L144.008,35.386L144.077,35.729L144.145,34.943L144.213,36.443L144.282,37.629L144.35,36.071L144.419,34.414L144.487,32.671L144.556,33.6L144.624,33.8L144.693,36.386L144.761,37.429L144.829,36.271L144.898,35.086L144.966,34.543L145.035,33.286L145.103,32.957L145.172,34.414L145.24,35.2L145.309,34.414L145.377,33.714L145.445,34.229L145.514,34.957L145.582,36.343L145.651,38.743L145.719,40.071L145.788,38.443L145.856,37.486L145.925,37.743L145.993,36.2L146.061,36.471L146.13,37.029L146.198,38.071L146.267,37.429L146.338,37.514L146.407,37.6L146.475,37.543L146.543,36.886L146.612,37.014L146.68,38.514L146.749,36.657L146.817,35.986L146.886,36.443L146.954,35.614L147.023,35.386L147.091,38.114L147.159,39.629L147.228,40.329L147.296,40.643L147.365,41.214L147.433,42.386L147.502,43.371L147.57,44.486L147.639,44.814L147.707,44.886L147.775,46.143L147.844,48L147.912,49.357L147.981,51.686L148.049,55.4L148.118,56.614L148.186,56.914L148.255,57.929L148.323,58.757L148.392,59.729L148.46,62.014L148.528,65.186L148.597,68L148.665,67.8L148.734,67.743L148.802,68.386L148.871,67.986L148.939,67.2L149.008,69.986L149.076,72.586L149.144,73.243L149.213,72.643L149.281,72L149.35,72.357L149.418,71.871L149.487,72.857L149.555,72.086L149.624,70.057L149.692,67.7L149.76,66.5L149.829,64.6L149.897,63.5L149.966,65.829L150.034,66.129L150.103,64.914L150.171,65.429L150.24,64.829L150.308,64.671L150.376,64.657L150.445,64.986L150.513,63.914L150.582,62.014L150.65,60.3L150.719,59.729L150.787,57.686L150.856,56.771L150.924,58.543L150.992,60.386L151.061,59.457L151.129,58.043L151.198,56.1L151.266,55.286L151.335,55.643L151.403,56.757L151.472,58.129L151.54,57.443L151.608,57.871L151.677,58.286L151.745,59L151.814,60.286L151.882,62.057L151.951,62.843L152.019,59.7L152.088,57.543L152.156,56.229L152.225,54.371L152.293,54.271L152.361,55.114L152.43,55.657L152.498,54.471L152.567,52.957L152.635,53.171L152.704,51.843L152.772,50.957L152.841,53.371L152.909,55.443L152.977,54.371L153.046,52.171L153.114,51.414L153.183,51.371L153.251,51.743L153.32,52.914L153.388,53.414L153.457,50.929L153.525,49.286L153.593,47.914L153.662,45.871L153.73,43.357L153.799,44.014L153.867,43.171L153.936,41.7L154.004,40.229L154.073,39.4L154.141,37.557L154.209,36.614L154.278,38.171L154.346,39.029L154.415,36.7L154.483,35.371L154.552,35.357L154.62,36.043L154.689,34.471L154.757,36.357L154.825,37.757L154.894,35.614L154.96,34.214L155.028,34.371L155.096,35.243L155.165,36.143L155.233,37.371L155.302,38.614L155.37,38.629L155.439,38.786L155.507,40.143L155.576,41.043L155.644,42.443L155.712,44.2L155.781,45.9L155.849,45.143L155.918,44.086L155.986,44.243L156.055,43.929L156.123,44.229L156.192,45.971L156.26,47.5L156.328,47.071L156.397,46.157L156.465,46.743L156.534,45.729L156.602,46.057L156.671,47.357L156.739,48.829L156.808,47.843L156.876,46.614L156.944,46.271L157.013,44.943L157.081,43.5L157.15,44.186L157.218,43.143L157.287,41.1L157.355,38.643L157.424,37.214L157.492,34.8L157.56,34.071L157.629,33.371L157.697,31.943L157.766,30.8L157.834,30.171L157.903,29.814L157.971,30.114L158.04,29.814L158.108,31.786L158.176,33.686L158.245,34.057L158.313,33.314L158.382,31.471L158.45,30.257L158.519,29.086L158.587,30.386L158.656,30.243L158.724,28.8L158.792,27.686L158.861,27.086L158.929,27.029L158.998,27.171L159.066,28.7L159.135,30.057L159.203,29.586L159.272,28.243L159.34,28.143L159.409,28.186L159.477,28.043L159.545,29.857L159.614,29.486L159.682,29.757L159.751,29.014L159.819,29.143L159.888,27.471L159.956,26.8L160.025,27.3L160.093,27.657L160.161,26.229L160.23,24.986L160.298,25.071L160.367,24.857L160.435,25.957L160.504,28.3L160.572,30.614L160.641,31.229L160.709,30.543L160.777,29.9L160.846,29.643L160.914,29.671L160.983,30.3L161.051,31.314L161.12,31.514L161.188,31L161.257,30.729L161.325,31.043L161.393,31.1L161.462,33.214L161.53,34.171L161.599,33.871L161.667,33.714L161.736,34.286L161.804,35.057L161.873,35.686L161.941,38.814L162.009,40.443L162.078,40.314L162.146,39.257L162.215,38.786L162.283,38.171L162.352,38.043L162.42,39.286L162.489,40.029L162.557,38.871L162.625,37.843L162.694,36.8L162.762,36.957L162.831,37.4L162.899,39.386L162.968,41.6L163.036,41.429L163.105,40.7L163.173,40.057L163.242,40.114L163.31,40.286L163.378,42.343L163.447,43.686L163.515,43.543L163.584,42.957L163.652,42.271L163.721,42.514L163.789,42.714L163.858,44.343L163.926,45.186L163.994,44.586L164.063,44.143L164.131,44.3L164.2,45.386L164.268,46.443L164.337,47.9L164.405,48.786L164.474,48.429L164.542,47.829L164.61,48.257L164.679,48.443L164.747,48.971L164.816,50.314L164.884,51.229L164.953,51.614L165.021,50.443L165.09,50.371L165.158,48.871L165.226,47.8L165.295,48.557L165.363,48.957L165.432,46.771L165.5,45.043L165.569,43.357L165.637,41.814L165.706,41.414L165.774,42.143L165.842,41.7L165.911,39.629L165.979,36.629L166.048,35.214L166.116,34.457L166.185,33.9L166.253,34L166.322,34.014L166.39,33.214L166.458,32.157L166.527,31.243L166.595,30.7L166.664,29.929L166.732,31.4L166.801,32.457L166.869,31.314L166.938,30.457L167.006,29.857L167.074,29.243L167.143,28.657L167.211,32.129L167.28,34.771L167.348,35.329L167.417,34.2L167.485,34.714L167.554,34.643L167.622,34.757L167.691,37.714L167.759,39.229L167.827,38.943L167.896,38.129L167.964,38.671L168.033,38.671L168.101,38.843L168.17,39.971L168.238,40.486L168.307,40.543L168.375,39.471L168.443,39.014L168.512,37.886L168.58,38.029L168.649,38.743L168.717,39.557L168.786,36.786L168.854,35.329L168.923,34.4L168.991,32.986L169.059,30.443L169.128,31.229L169.196,32.943L169.265,29.857L169.333,28.543L169.402,26.914L169.47,25.771L169.539,27.543L169.607,29.157L169.675,30.557L169.744,27.843L169.812,26.214L169.881,25.757L169.949,25.443L170.018,25.471L170.086,27.3L170.155,28.814L170.223,27.314L170.291,26.871L170.36,26.614L170.428,29.157L170.497,30.371L170.565,32.571L170.634,33.757L170.702,32.557L170.771,30.129L170.839,32.071L170.907,30.957L170.976,31.171L171.044,33.914L171.113,36.714L171.181,35.429L171.253,33.586L171.321,34.329L171.389,33.386L171.458,32.529L171.526,34.814L171.595,34.9L171.663,33.514L171.732,32.186L171.8,34.1L171.869,35.3L171.937,35.357L172.005,36.514L172.074,37.057L172.142,36.257L172.211,34.586L172.279,35.6L172.348,35.429L172.416,36.4L172.485,36.257L172.553,37.429L172.621,38.2L172.69,38.229L172.758,40.2L172.827,41.786L172.895,41.1L172.964,43.657L173.032,45.4L173.101,44.643L173.169,42.571L173.238,42.7L173.306,43.271L173.374,44.443L173.443,45.786L173.511,48.2L173.58,46.343L173.648,44.029L173.717,43.043L173.785,42.857L173.854,42.686L173.922,43.571L173.99,45.014L174.059,45.457L174.127,44.057L174.196,43.743L174.264,44.743L174.333,44.143L174.401,45.329L174.47,44.786L174.538,42.414L174.606,39.457L174.675,37.614L174.743,35.686L174.812,34.157L174.88,34.657L174.949,34.957L175.017,33.714L175.086,32.643L175.154,32.2L175.222,32.329L175.291,33.629L175.359,35.743L175.428,35.957L175.496,34.643L175.565,33.443L175.633,34.357L175.702,35.171L175.77,36.057L175.838,37.914L175.907,37.929L175.975,36.843L176.044,33.743L176.112,31.386L176.181,30.929L176.249,31.186L176.318,31.686L176.386,32.814L176.454,32.343L176.523,31.4L176.591,31.857L176.66,32.329L176.728,31.929L176.797,34.257L176.865,35.229L176.934,34.557L177.002,34.829L177.07,35.1L177.139,34.357L177.207,33.314L177.276,34.743L177.344,34.757L177.413,32.729L177.481,31.871L177.55,33L177.618,32.371L177.687,32.057L177.755,33.029L177.823,34.514L177.892,32.471L177.96,31.9L178.029,31.414L178.097,32.229L178.166,32.971L178.234,35.514L178.303,36.514L178.371,34.714L178.439,33.129L178.508,32.4L178.576,31.543L178.645,30.457L178.713,32.057L178.782,31.7L178.85,30.029L178.919,28.457L178.987,28.757L179.055,27.686L179.124,25.529L179.192,27.514L179.261,29.343L179.329,28.9L179.398,26.957L179.466,26.6L179.535,27.071L179.603,26.843L179.671,28.757L179.74,30.229L179.808,29.8L179.874,28.757L179.942,29.729L180.011,30.186L180.079,30.6L180.148,32.086L180.216,32.429L180.285,30.029L180.353,28.457L180.422,29.014L180.49,28.4L180.558,29.1L180.627,30.457L180.695,32.357L180.764,29.814L180.832,29.729L180.901,29.643L180.969,29.771L181.038,29.129L181.106,31.014L181.174,33.943L181.243,31.686L181.311,29.986L181.38,29.014L181.448,30.286L181.517,30.186L181.585,30L181.654,29.914L181.722,27.414L181.79,22.9L181.859,21.314L181.927,19.971L181.996,18.157L182.064,18.543L182.133,18.614L182.201,16.1L182.27,14.514L182.338,13.771L182.406,13.171L182.475,12.014L182.543,14.429L182.612,12.286L182.68,11.057L182.749,8.743L182.817,8.843L182.886,8.686L182.954,8.143L183.022,9.386L183.091,10.529L183.159,9.371L183.228,6.343L183.296,6.957L183.365,5.729L183.433,4.329L183.502,5.5L183.57,6.629L183.638,4.414L183.707,1.6L183.775,2.229L183.844,5.443L183.912,6.286L183.981,7.671L184.049,8.986L184.118,7.143L184.186,4.529L184.255,5.714L184.323,5.857L184.391,6.129L184.46,7.571L184.528,9.171L184.597,7.6L184.665,7.714L184.734,7.986L184.802,8.214L184.871,7.743L184.939,7.929L185.007,8.3L185.076,7.086L185.144,5.429L185.213,4.643L185.281,5.314L185.35,5.9L185.418,8.286L185.487,11.414L185.555,9.9L185.623,9.871L185.692,11.743L185.76,13.786L185.829,14.129L185.897,14.414L185.966,14.8L186.034,13.914L186.103,12.786L186.171,13.457L186.239,14.557L186.308,14.314L186.376,15.529L186.445,18.543L186.513,17.529L186.582,16.843L186.65,17.143L186.719,17.2L186.787,17.257L186.855,18.3L186.924,18.886L186.992,18.514L187.061,18.414L187.129,18.414L187.198,18.771L187.266,18.714L187.335,19.471L187.403,18.9L187.471,17.586L187.54,15.014L187.608,14.486L187.677,12.886L187.745,12.729L187.814,13.914L187.882,14.086L187.951,13.714L188.019,13.171L188.087,13.843L188.156,14.857L188.224,15.157L188.293,16.814L188.361,17.9L188.43,17.243L188.498,16.314L188.567,17.257L188.635,16.857L188.704,17.143L188.772,18.557L188.84,19.443L188.909,19.314L188.977,20.014L189.046,20.471L189.114,21.257L189.183,22.143L189.251,23.086L189.32,23.971L189.388,23.857L189.456,24.371L189.525,25.171L189.593,25.986L189.662,26.543L189.73,28.057L189.799,28.929L189.867,29.371L189.936,28.671L190.004,28.529L190.072,27.571L190.141,26.214L190.209,26.843L190.278,27.986L190.346,26.714L190.415,25.343L190.483,25.2L190.552,23.114L190.62,22.286L190.688,23.257L190.757,23.514L190.825,22.843L190.894,21.257L190.962,20.514L191.031,19.286L191.099,19.071L191.168,20.086L191.236,21.186L191.304,21.786L191.373,20.386L191.441,19.829L191.51,18.086L191.578,19.443L191.647,20.943L191.715,21.314L191.784,19.743L191.852,16.986L191.92,14.686L191.989,14.343L192.057,13.429L192.126,16.057L192.194,18.486L192.263,19.043L192.331,17.586L192.4,17.871L192.468,17.143L192.537,17.229L192.605,20.014L192.673,21.514L192.742,19.957L192.81,18.471L192.879,18.029L192.947,17.914L193.016,18.643L193.084,20.8L193.153,21.229L193.221,18.629L193.289,15.9L193.358,14.429L193.426,13.543L193.495,13.3L193.563,15.557L193.632,15L193.7,13L193.769,11.8L193.837,12.414L193.905,14.143L193.974,14.271L194.042,16.171L194.111,18.057L194.179,15.786L194.248,15.057L194.316,12.9L194.385,11.586L194.453,11.429L194.521,13.714L194.59,15.014L194.658,11.286L194.727,8.557L194.795,9.257L194.864,9.214L194.932,9.014L195.001,10.886L195.069,10.743L195.137,8.657L195.206,8.129L195.274,9.157L195.343,12.471L195.411,14.3L195.48,17.2L195.548,18.743L195.617,16.157L195.685,13.829L195.753,14.729L195.822,14.186L195.89,13.429L195.959,13.871L196.027,15.771L196.096,13.914L196.167,12.043L196.235,12.443L196.304,10.171L196.372,10.786L196.441,12.743L196.509,14.2L196.578,13.214L196.646,11.814L196.715,13.686L196.783,14.529L196.851,14.2L196.92,15.986L196.988,16.957L197.057,16.3L197.125,15.414L197.194,15.729L197.262,16.1L197.331,15.686L197.399,15.043L197.467,15.186L197.536,15.914L197.604,14.857L197.673,17.171L197.741,17.5L197.81,16.886L197.878,19.471L197.947,21.329L198.015,22.229L198.084,20.529L198.152,20.971L198.22,20.871L198.289,20.557L198.357,23.529L198.426,25.371L198.494,23.671L198.563,22.214L198.631,22L198.7,21.014L198.768,20.343L198.836,22.771L198.905,25.129L198.973,26.086L199.042,27.786L199.11,28.257L199.179,28.129L199.247,29.529L199.316,31.086L199.384,33.429L199.452,31.171L199.521,29.286L199.589,26.757L199.658,25.471L199.726,23.386L199.795,25.114L199.863,26.829L199.932,24.486L200,22.614L200.068,20.329L200.137,18.3L200.205,18.086L200.274,20.143L200.342,21.743L200.411,19.786L200.479,17.371L200.548,18.429L200.616,15.957L200.684,15.786L200.753,18L200.821,19.543L200.89,17.857L200.958,18.9L201.027,16.629L201.095,15L201.164,13.643L201.232,16.514L201.3,17.157L201.369,16.414L201.437,14.857L201.506,15.043L201.574,15.129L201.643,15.771L201.711,18.4L201.78,20.671L201.848,18.971L201.916,16.5L201.985,16.329L202.053,16.914L202.122,17.243L202.19,21.386L202.259,22.314L202.327,25.557" stroke="#4c78a8" stroke-width="2"/></g><g class="mark-group role-title"><g transform="translate(100,-17)"><path class="background" aria-hidden="true" d="M0,0h0v0h0Z" pointer-events="none"/><g><g class="mark-text role-title-text" role="graphics-symbol" aria-roledescription="title" aria-label="Title text 'Illegal Parking: Posted Parking Sign Violation'" pointer-events="none"><text text-anchor="middle" transform="translate(0,10)" font-family="sans-serif" font-size="13px" font-weight="bold" fill="#000" opacity="1">Illegal Parking: Posted Parking Sign Violation</text></g></g><path class="foreground" aria-hidden="true" d="" pointer-events="none" display="none"/></g></g></g><path class="foreground" aria-hidden="true" d="" display="none"/></g></g></g><defs><clipPath id="clip124"><rect x="0" y="0" width="200" height="150"/></clipPath></defs></svg>