<svg xmlns="http://www.w3.org/2000/svg" xmlns:xlink="http://www.w3.org/1999/xlink" version="1.1" class="marks" width="253" height="194" viewBox="0 0 253 194"><rect width="253" height="194" fill="white"/><g fill="none" stroke-miterlimit="10" transform="translate(29,22)"><g class="mark-group role-frame root" role="graphics-object" aria-roledescription="group mark container"><g transform="translate(0,0)"><path class="background" aria-hidden="true" d="M0,0h200v150h-200Z"/><g><g class="mark-group role-axis" aria-hidden="true"><g transform="translate(0.5,0.5)"><path class="background" aria-hidden="true" d="M0,0h0v0h0Z" pointer-events="none"/><g><g class="mark-rule role-axis-grid" pointer-events="none"><line transform="translate(0,150)" x2="200" y2="0" stroke="#ddd" stroke-width="1" opacity="1"/><line transform="translate(0,116)" x2="200" y2="0" stroke="#ddd" stroke-width="1" opacity="1"/><line transform="translate(0,82)" x2="200" y2="0" stroke="#ddd" stroke-width="1" opacity="1"/><line transform="translate(0,48)" x2="200" y2="0" stroke="#ddd" stroke-width="1" opacity="1"/><line transform="translate(0,14)" x2="200" y2="0" stroke="#ddd" stroke-width="1" opacity="1"/></g></g><path class="foreground" aria-hidden="true" d="" pointer-events="none" display="none"/></g></g><g class="mark-group role-axis" role="graphics-symbol" aria-roledescription="axis" aria-label="X-axis for a time scale with values from Friday, 01 January 2016, 12:00:00 AM to Monday, 01 January 2024, 12:00:00 AM"><g transform="translate(0.5,150.5)"><path class="background" aria-hidden="true" d="M0,0h0v0h0Z" pointer-events="none"/><g><g class="mark-rule role-axis-tick" pointer-events="none"><line transform="translate(0,0)" x2="0" y2="5" stroke="#888" stroke-width="1" opacity="1"/><line transform="translate(50,0)" x2="0" y2="5" stroke="#888" stroke-width="1" opacity="1"/><line transform="translate(100,0)" x2="0" y2="5" stroke="#888" stroke-width="1" opacity="1"/><line transform="translate(150,0)" x2="0" y2="5" stroke="#888" stroke-width="1" opacity="1"/><line transform="translate(200,0)" x2="0" y2="5" stroke="#888" stroke-width="1" opacity="1"/></g><g class="mark-text role-axis-label" pointer-events="none"><text text-anchor="start" transform="translate(0,15)" font-family="sans-serif" font-size="10px" fill="#000" opacity="1">2016</text><text text-anchor="middle" transform="translate(50.03422313483915,15)" font-family="sans-serif" font-size="10px" fill="#000" opacity="1">2018</text><text text-anchor="middle" transform="translate(100,15)" font-family="sans-serif" font-size="10px" fill="#000" opacity="1">2020</text><text text-anchor="middle" transform="translate(150.03422313483915,15)" font-family="sans-serif" font-size="10px" fill="#000" opacity="1">2022</text><text text-anchor="end" transform="translate(200,15)" font-family="sans-serif" font-size="10px" fill="#000" opacity="1">2024</text></g><g class="mark-rule role-axis-domain" pointer-events="none"><line transform="translate(0,0)" x2="200" y2="0" stroke="#888" stroke-width="1" opacity="1"/></g></g><path class="foreground" aria-hidden="true" d="" pointer-events="none" display="none"/></g></g><g class="mark-group role-axis" role="graphics-symbol" aria-roledescription="axis" aria-label="Y-axis for a linear scale with values from 0 to 220"><g transform="translate(0.5,0.5)"><path class="background" aria-hidden="true" d="M0,0h0v0h0Z" pointer-events="none"/><g><g class="mark-rule role-axis-tick" pointer-events="none"><line transform="translate(0,150)" x2="-5" y2="0" stroke="#888" stroke-opacity="0" stroke-width="1" opacity="1"/><line transform="translate(0,116)" x2="-5" y2="0" stroke="#888" stroke-opacity="0" stroke-width="1" opacity="1"/><line transform="translate(0,82)" x2="-5" y2="0" stroke="#888" stroke-opacity="0" stroke-width="1" opacity="1"/><line transform="translate(0,48)" x2="-5" y2="0" stroke="#888" stroke-opacity="0" stroke-width="1" opacity="1"/><line transform="translate(0,14)" x2="-5" y2="0" stroke="#888" stroke-opacity="0" stroke-width="1" opacity="1"/></g><g class="mark-text role-axis-label" pointer-events="none"><text text-anchor="end" transform="translate(-7,153)" font-family="sans-serif" font-size="10px" fill="#000" opacity="1">0</text><text text-anchor="end" transform="translate(-7,118.9090909090909)" font-family="sans-serif" font-size="10px" fill="#000" opacity="1">50</text><text text-anchor="end" transform="translate(-7,84.81818181818181)" font-family="sans-serif" font-size="10px" fill="#000" opacity="1">100</text><text text-anchor="end" transform="translate(-7,50.727272727272734)" font-family="sans-serif" font-size="10px" fill="#000" opacity="1">150</text><text text-anchor="end" transform="translate(-7,16.63636363636364)" font-family="sans-serif" font-size="10px" fill="#000" opacity="1">200</text></g></g><path class="foreground" aria-hidden="true" d="" pointer-events="none" display="none"/></g></g><g class="mark-line role-mark marks" clip-path="url(#clip125)" role="graphics-object" aria-roledescription="line mark container"><path aria-label="day: Jan 01, 2010; avg: 42.4" role="graphics-symbol" aria-roledescription="line mark" d="M-149.966,121.091L-149.897,120.682L-149.829,121.114L-149.76,120.818L-149.692,120.841L-149.624,120.091L-149.555,119.341L-149.487,118.136L-149.418,117.568L-149.35,118.523L-149.281,118.932L-149.213,119.136L-149.144,119.295L-149.076,119.159L-149.008,118.477L-148.939,118.5L-148.871,119.205L-148.802,120.273L-148.734,120.295L-148.665,119.795L-148.597,119.25L-148.528,118.091L-148.46,117.75L-148.392,119.023L-148.323,120.023L-148.255,120L-148.186,119.795L-148.118,119.955L-148.049,119.227L-147.981,118.455L-147.912,119.591L-147.844,120.432L-147.775,120.75L-147.707,120.477L-147.639,119.955L-147.57,118.523L-147.502,118.091L-147.433,119.182L-147.365,120.364L-147.296,120.227L-147.228,119.886L-147.159,118.932L-147.091,117.955L-147.023,118.182L-146.954,118.682L-146.886,119.545L-146.817,119.273L-146.749,118.568L-146.68,117.477L-146.612,115.523L-146.543,114.386L-146.475,115.818L-146.407,117.136L-146.338,116.932L-146.27,116.705L-146.201,116.455L-146.133,115.409L-146.064,115.045L-145.996,116.068L-145.927,117.409L-145.859,117.295L-145.791,116.932L-145.722,115.795L-145.654,114.886L-145.585,113.659L-145.517,115.159L-145.448,115.955L-145.38,115.636L-145.311,114.795L-145.243,114.295L-145.175,113.364L-145.106,112.455L-145.038,112.636L-144.972,112.955L-144.904,112.523L-144.835,111.864L-144.767,111.977L-144.698,111.659L-144.63,111.227L-144.561,113.205L-144.493,115.136L-144.424,114.977L-144.356,114.25L-144.288,113.136L-144.219,111.432L-144.151,110.818L-144.082,111.864L-144.014,112.273L-143.945,112.045L-143.877,110.955L-143.808,109.364L-143.74,108.227L-143.672,108.136L-143.603,109.364L-143.535,111L-143.466,110.568L-143.398,109.841L-143.329,109.409L-143.261,108.659L-143.192,108.432L-143.124,109.409L-143.056,110.932L-142.987,111.5L-142.919,110.614L-142.85,110.25L-142.782,109.773L-142.713,108.727L-142.645,109.25L-142.576,110.614L-142.508,110.341L-142.44,109.364L-142.371,108.75L-142.303,108.023L-142.234,107.682L-142.166,108.977L-142.097,109.682L-142.029,109.545L-141.96,109.318L-141.892,108.5L-141.824,107.977L-141.755,108.409L-141.687,109.341L-141.618,110.568L-141.55,110.841L-141.481,111.182L-141.413,111.727L-141.344,112.318L-141.276,112.773L-141.208,114.023L-141.139,114.977L-141.071,115.25L-141.002,114.477L-140.934,113.432L-140.865,112.977L-140.797,112.409L-140.728,113.5L-140.66,115L-140.591,115.636L-140.523,115.5L-140.455,115.25L-140.386,115.25L-140.318,115.364L-140.249,116.614L-140.181,118.318L-140.112,119.136L-140.044,119.227L-139.975,119.25L-139.907,118.614L-139.839,119.136L-139.77,120.591L-139.702,122.205L-139.633,123.114L-139.565,122.477L-139.496,121.932L-139.428,121.205L-139.359,121.227L-139.291,122.045L-139.223,122.841L-139.154,123.295L-139.086,123.227L-139.017,123.136L-138.949,123.932L-138.88,124.295L-138.812,125.705L-138.743,127.295L-138.675,127.364L-138.607,127.227L-138.538,127.205L-138.47,127.091L-138.401,127.841L-138.333,128.75L-138.264,129.659L-138.196,130.023L-138.127,129.886L-138.059,129.75L-137.991,129.614L-137.922,129.682L-137.854,130.659L-137.785,131.295L-137.717,131.364L-137.648,130.955L-137.58,130.318L-137.511,130.364L-137.443,130.045L-137.375,130.591L-137.306,130.886L-137.238,130.455L-137.169,130.159L-137.101,129.727L-137.032,129.091L-136.964,128.341L-136.895,128.659L-136.827,129.364L-136.758,129.273L-136.69,128.932L-136.622,128.364L-136.553,127.659L-136.485,127.114L-136.416,127.659L-136.348,127.795L-136.279,127.682L-136.211,127.023L-136.142,126.773L-136.074,126.182L-136.006,125.477L-135.937,125.75L-135.869,125.795L-135.8,124.977L-135.732,123.886L-135.663,122.795L-135.595,121.5L-135.526,120.886L-135.458,121.523L-135.39,122.523L-135.321,122.591L-135.253,122.545L-135.184,122.477L-135.116,121.568L-135.047,120.864L-134.979,121.068L-134.91,121.659L-134.842,121.25L-134.774,120.591L-134.705,119.523L-134.637,118.159L-134.568,117.432L-134.5,118.182L-134.431,118.705L-134.363,118.023L-134.294,117.545L-134.226,116.477L-134.158,115.159L-134.089,113.932L-134.021,114.182L-133.952,114.773L-133.884,114.477L-133.815,113.977L-133.747,113.432L-133.678,113.023L-133.61,112.409L-133.542,113.614L-133.473,114.727L-133.405,114.5L-133.336,114.023L-133.268,113.205L-133.199,111.636L-133.131,110.114L-133.062,110.909L-132.994,111.477L-132.926,111.614L-132.857,111L-132.789,109.795L-132.72,108.818L-132.652,107.023L-132.583,107.545L-132.515,108.659L-132.446,108.432L-132.378,108L-132.309,107.5L-132.241,106.318L-132.173,106.045L-132.104,107.545L-132.036,108.591L-131.967,108.636L-131.899,108.295L-131.83,107.795L-131.762,106.318L-131.693,105.591L-131.625,106.409L-131.557,107.5L-131.488,107.364L-131.42,106.591L-131.351,105.591L-131.283,104.25L-131.214,103.227L-131.146,104.795L-131.077,106.341L-131.009,106.045L-130.941,105.727L-130.872,105.455L-130.804,104.795L-130.735,104.477L-130.667,105.75L-130.598,108.5L-130.53,109.341L-130.461,109.227L-130.393,108.659L-130.325,107.386L-130.256,106.682L-130.188,107.864L-130.119,109.182L-130.051,109.227L-129.982,109.273L-129.914,109L-129.845,108.023L-129.777,107.705L-129.709,109.318L-129.64,111.136L-129.572,111.205L-129.503,111.341L-129.435,111.227L-129.366,111.023L-129.298,111.25L-129.229,112.455L-129.161,114.273L-129.093,114.068L-129.024,114.091L-128.956,113.864L-128.887,113.682L-128.819,113.045L-128.75,114.068L-128.679,115.773L-128.611,115.75L-128.542,115.386L-128.474,114.636L-128.405,113.75L-128.337,113.523L-128.268,115.045L-128.2,116.727L-128.131,116.909L-128.063,116.295L-127.995,115.977L-127.926,115.295L-127.858,114.341L-127.789,115.432L-127.721,116.591L-127.652,116.705L-127.584,116.523L-127.515,116.409L-127.447,116.432L-127.379,116.955L-127.31,118.409L-127.242,119.75L-127.173,120.364L-127.105,120.341L-127.036,120.227L-126.968,119.955L-126.899,120.023L-126.831,120.364L-126.762,121.545L-126.694,122.205L-126.626,121.727L-126.557,121.182L-126.489,121L-126.42,121.091L-126.352,122.318L-126.283,123.795L-126.215,124.136L-126.146,124.227L-126.078,124.091L-126.01,123.795L-125.941,123.341L-125.873,124.068L-125.804,125.568L-125.736,125.864L-125.667,125.432L-125.599,125.364L-125.53,124.977L-125.462,124.591L-125.394,124.886L-125.325,124.795L-125.257,124.341L-125.188,124.205L-125.12,123.659L-125.051,122.955L-124.983,122.955L-124.914,123.432L-124.846,124.114L-124.778,124.705L-124.709,124.682L-124.641,124.318L-124.572,124.295L-124.504,124.591L-124.435,124.909L-124.367,125.955L-124.298,125.909L-124.23,125.659L-124.162,125.364L-124.093,124.409L-124.025,123.841L-123.956,124.477L-123.888,125.614L-123.819,125.773L-123.751,125.455L-123.682,124.818L-123.614,124.477L-123.546,124.182L-123.477,124.432L-123.409,125.25L-123.34,125.273L-123.272,124.932L-123.203,124.523L-123.135,123.205L-123.066,122.432L-122.998,122.955L-122.93,123.5L-122.861,123.545L-122.793,123.25L-122.724,122.568L-122.656,121.386L-122.587,120.659L-122.519,121.182L-122.45,121.682L-122.382,121.864L-122.313,121.432L-122.245,121.091L-122.177,119.909L-122.108,119.568L-122.04,120.182L-121.971,121.318L-121.903,121.5L-121.834,120.409L-121.766,119.295L-121.697,118.705L-121.629,118.136L-121.561,118.818L-121.492,119.795L-121.424,120.273L-121.355,120.227L-121.287,119.614L-121.218,119.114L-121.15,118.773L-121.081,119.682L-121.013,120.705L-120.945,120.727L-120.876,120.568L-120.808,119.932L-120.739,119.091L-120.671,118.614L-120.602,119.75L-120.534,120.75L-120.465,120.886L-120.397,120.523L-120.329,120.227L-120.26,119.432L-120.192,119.159L-120.123,120.409L-120.058,120.909L-119.989,121.455L-119.921,120.795L-119.852,120.591L-119.784,121.205L-119.715,121.614L-119.647,122.341L-119.578,123.409L-119.51,123.273L-119.442,122.568L-119.373,121.864L-119.305,121.5L-119.236,121.182L-119.168,121.886L-119.099,122.386L-119.031,122.409L-118.962,121.886L-118.894,121.227L-118.826,120.341L-118.757,120L-118.689,120.818L-118.62,121.705L-118.552,121.864L-118.483,120.318L-118.415,119.477L-118.346,118.659L-118.278,117.909L-118.21,118.977L-118.141,119.182L-118.073,118.841L-118.004,118.545L-117.936,117.909L-117.867,116.705L-117.799,116.045L-117.73,116.182L-117.662,116.932L-117.594,116.955L-117.525,117.182L-117.457,116.023L-117.388,114.75L-117.32,114.705L-117.251,115.023L-117.183,115.75L-117.114,115.523L-117.046,115.455L-116.978,115.023L-116.909,114.909L-116.841,115.227L-116.772,115.659L-116.704,116.568L-116.635,116.932L-116.567,116.841L-116.498,116.318L-116.43,116.523L-116.362,115.909L-116.293,116.75L-116.225,117.909L-116.156,118L-116.088,118.614L-116.019,118.932L-115.951,119.023L-115.882,118.795L-115.814,120.25L-115.745,121.227L-115.677,121.205L-115.609,120.818L-115.54,120.614L-115.472,119.659L-115.403,120.409L-115.335,122.091L-115.266,121.955L-115.198,122.023L-115.129,122.114L-115.061,121.591L-114.993,120.682L-114.924,120.409L-114.856,120.955L-114.787,121.386L-114.719,121.841L-114.65,121.568L-114.582,121.159L-114.513,120.932L-114.445,121.023L-114.377,122.114L-114.308,123.5L-114.24,124.136L-114.171,123.955L-114.103,123.773L-114.034,123.091L-113.966,122.682L-113.897,123.25L-113.829,124.136L-113.761,124.409L-113.692,123.955L-113.624,123.955L-113.555,123.886L-113.487,124.023L-113.418,125.114L-113.35,125.886L-113.281,126.318L-113.213,127.432L-113.145,127.614L-113.076,127.705L-113.008,128.5L-112.939,129.773L-112.871,130.841L-112.802,131.295L-112.734,131.318L-112.665,131.25L-112.597,131.091L-112.529,130.955L-112.46,131.659L-112.392,132.273L-112.323,132.545L-112.255,132.477L-112.186,131.977L-112.118,131.477L-112.049,131.364L-111.981,132.045L-111.913,132.75L-111.844,132.614L-111.776,132.091L-111.707,131.818L-111.639,131.614L-111.57,131.409L-111.502,131.932L-111.433,132.091L-111.365,131.659L-111.296,131.455L-111.228,130.909L-111.16,129.864L-111.091,129.159L-111.023,129.159L-110.954,129.455L-110.886,129.136L-110.817,128.886L-110.749,128.705L-110.68,129.136L-110.612,129.727L-110.544,130.136L-110.475,130.273L-110.407,130.045L-110.338,129.386L-110.27,128.364L-110.201,127.318L-110.133,126.5L-110.064,126.773L-109.996,127.136L-109.928,127.295L-109.859,126.636L-109.791,125.909L-109.722,125.182L-109.654,124.705L-109.585,124.864L-109.517,125.455L-109.448,125.705L-109.38,125.409L-109.312,124.545L-109.243,122.932L-109.175,121.386L-109.106,121.75L-109.038,122.091L-108.969,121.659L-108.901,120.886L-108.832,120.705L-108.764,119.614L-108.696,118.25L-108.627,117.727L-108.559,117.318L-108.49,117L-108.422,116.659L-108.353,116.068L-108.285,115.5L-108.216,115.114L-108.148,115.864L-108.08,116.977L-108.011,117L-107.943,116.159L-107.874,115.182L-107.806,114.205L-107.737,112.955L-107.669,113.727L-107.6,114.068L-107.532,114.432L-107.463,114.205L-107.395,113.477L-107.327,112.227L-107.258,111.886L-107.19,113.409L-107.121,114.864L-107.053,115.023L-106.984,114.727L-106.916,114.114L-106.847,113.25L-106.779,112.136L-106.711,113.136L-106.642,114.364L-106.574,114.25L-106.505,113.977L-106.437,113.409L-106.368,112.795L-106.3,112.705L-106.231,112.977L-106.163,113.614L-106.095,113.932L-106.026,113.318L-105.958,113.205L-105.889,112.864L-105.821,112.114L-105.752,113.477L-105.684,115.182L-105.615,115.409L-105.547,115.455L-105.479,114.864L-105.41,114.114L-105.342,113.318L-105.273,114.636L-105.205,115.932L-105.136,116.068L-105.068,116.523L-104.999,116.341L-104.931,115.591L-104.863,115.205L-104.794,116.341L-104.726,118.114L-104.657,118.295L-104.589,117.818L-104.52,117.591L-104.452,116.614L-104.383,116.227L-104.315,117.182L-104.247,118.023L-104.178,118.636L-104.11,119.25L-104.041,118.705L-103.973,117.864L-103.904,117.114L-103.836,118.045L-103.765,119.636L-103.696,118.591L-103.628,118.205L-103.559,117.636L-103.491,116.455L-103.422,115.841L-103.354,116.455L-103.285,118.091L-103.217,118.636L-103.149,117.886L-103.08,116.886L-103.012,115.341L-102.943,114.568L-102.875,115.727L-102.806,117.182L-102.738,117.386L-102.669,116.523L-102.601,116L-102.533,115.795L-102.464,115.955L-102.396,117.045L-102.327,118.477L-102.259,118.841L-102.19,118.455L-102.122,118.045L-102.053,117.136L-101.985,116.932L-101.916,118.182L-101.848,119.523L-101.78,119.705L-101.711,119.864L-101.643,120.386L-101.574,119.295L-101.506,118.682L-101.437,119.727L-101.369,121L-101.3,121.114L-101.232,120.591L-101.164,119.841L-101.095,119.75L-101.027,119.5L-100.958,120.682L-100.89,121.977L-100.821,122.114L-100.753,121.75L-100.684,121.364L-100.616,120.909L-100.548,120.386L-100.479,120.864L-100.411,121.091L-100.342,121.136L-100.274,121.136L-100.205,120.136L-100.137,119.114L-100.068,118.727L-100,119.727L-99.932,120.705L-99.863,120.386L-99.795,119.909L-99.726,119.25L-99.658,117.682L-99.589,116.5L-99.521,117.773L-99.452,119.045L-99.384,119.205L-99.316,118.705L-99.247,118.409L-99.179,117.205L-99.11,116.636L-99.042,117.636L-98.973,118.795L-98.905,118.727L-98.836,118.659L-98.768,117.909L-98.7,116.955L-98.631,115.545L-98.563,116.114L-98.494,117.068L-98.426,117.023L-98.357,116.955L-98.289,116.727L-98.22,115.682L-98.152,115.545L-98.084,116.909L-98.015,117.932L-97.947,117.841L-97.878,117.341L-97.81,117.25L-97.741,116.341L-97.673,115.455L-97.604,116.591L-97.536,118.227L-97.467,118.432L-97.399,117.477L-97.331,117.023L-97.262,116.068L-97.194,115.023L-97.125,116.455L-97.057,117.432L-96.988,116.727L-96.92,116.795L-96.851,116.227L-96.783,114.864L-96.715,114.432L-96.646,115.477L-96.578,117.409L-96.509,117.364L-96.441,116.705L-96.372,115.864L-96.304,114.295L-96.235,112.955L-96.167,113.682L-96.099,114.841L-96.03,114.591L-95.962,114.136L-95.893,113.75L-95.825,112.568L-95.756,111.591L-95.688,112.886L-95.619,114.341L-95.551,114.182L-95.483,114.273L-95.414,113.795L-95.346,113.682L-95.277,113.205L-95.209,114.5L-95.143,115.864L-95.075,115.636L-95.006,115.591L-94.938,115.091L-94.869,113.25L-94.801,111.886L-94.732,112.477L-94.664,113.477L-94.596,113.5L-94.527,112.818L-94.459,112.227L-94.39,111.25L-94.322,111.023L-94.253,112.864L-94.185,114.318L-94.116,114.182L-94.048,113.523L-93.98,113.341L-93.911,112.136L-93.843,110.659L-93.774,111.818L-93.706,113.25L-93.637,113.114L-93.569,112.773L-93.5,112.477L-93.432,110.886L-93.364,110.318L-93.295,110.977L-93.227,112.091L-93.158,112.318L-93.09,111.795L-93.021,110.523L-92.953,109.091L-92.884,108.886L-92.816,110.114L-92.748,112.318L-92.679,112.977L-92.611,112.977L-92.542,111.659L-92.474,110.795L-92.405,109.977L-92.337,110.977L-92.268,112.091L-92.2,111.159L-92.132,110.773L-92.063,109.75L-91.995,109L-91.926,108.159L-91.858,109.205L-91.789,111.136L-91.721,111.568L-91.652,111.386L-91.584,111.25L-91.516,110.659L-91.447,110.227L-91.379,111.773L-91.31,112.977L-91.242,112.864L-91.173,112.386L-91.105,111.659L-91.036,111.295L-90.968,111.705L-90.899,113.114L-90.831,114.568L-90.763,114.909L-90.694,113.886L-90.626,113.25L-90.557,112.386L-90.489,112.636L-90.42,113.636L-90.352,115.25L-90.283,115.886L-90.215,115.932L-90.147,116.795L-90.078,116.545L-90.01,117.205L-89.941,118.477L-89.873,119.523L-89.804,120.068L-89.736,119.318L-89.667,119.091L-89.599,119.136L-89.531,118.864L-89.462,119.977L-89.394,121.045L-89.325,121.091L-89.257,121.227L-89.188,122L-89.12,122.364L-89.051,122.591L-88.983,123.659L-88.915,124.523L-88.846,124.818L-88.778,124.409L-88.709,124.591L-88.641,125.114L-88.572,125.386L-88.504,126.568L-88.435,128.136L-88.367,128.932L-88.299,128.955L-88.23,128.477L-88.162,127.182L-88.093,125.909L-88.025,126.932L-87.956,127.795L-87.888,127.795L-87.819,128.023L-87.751,128.068L-87.683,128.182L-87.614,126.909L-87.546,127.182L-87.477,127.955L-87.409,127.932L-87.34,127.977L-87.272,127.886L-87.203,127.318L-87.135,127.114L-87.067,127.386L-86.998,127.955L-86.93,127.977L-86.861,128.295L-86.793,128.273L-86.724,127.841L-86.656,127.205L-86.587,127.818L-86.519,128.136L-86.45,128.159L-86.382,128.091L-86.314,127.114L-86.245,126.159L-86.177,125.705L-86.108,127.068L-86.04,128.136L-85.971,127.773L-85.903,127.25L-85.834,126.841L-85.766,125.386L-85.698,123.977L-85.629,124.591L-85.561,126.227L-85.492,125.614L-85.424,125.023L-85.355,124.182L-85.287,123.477L-85.218,122.705L-85.15,122.545L-85.082,122.523L-85.013,122.545L-84.945,122.045L-84.876,121.523L-84.808,120.295L-84.739,119.205L-84.671,119.659L-84.602,120.114L-84.534,119.386L-84.466,118.523L-84.397,117.409L-84.329,115.273L-84.26,113.591L-84.192,114.591L-84.123,115.614L-84.055,115.477L-83.986,114.955L-83.918,113.727L-83.85,112L-83.781,110.136L-83.713,111.182L-83.644,112.159L-83.576,111.955L-83.507,110.909L-83.439,110.318L-83.37,107.841L-83.302,106.25L-83.234,106.568L-83.165,107.341L-83.097,107.841L-83.028,107.273L-82.96,106.455L-82.891,105.114L-82.823,104.455L-82.754,105.091L-82.686,106.364L-82.617,106.091L-82.549,106.023L-82.481,106.045L-82.412,105.75L-82.344,104.977L-82.275,107.136L-82.207,109.477L-82.138,109.227L-82.07,108.682L-82.001,107.682L-81.933,106.455L-81.865,106.818L-81.796,108.682L-81.728,110.523L-81.659,110.727L-81.591,110.273L-81.522,109.023L-81.454,107.568L-81.385,107.591L-81.317,110.773L-81.249,113.568L-81.18,114.409L-81.112,114.795L-81.043,115.136L-80.975,115.295L-80.906,115.341L-80.838,117.364L-80.769,118.682L-80.701,119.409L-80.633,119.432L-80.564,119.636L-80.496,119.023L-80.427,118.659L-80.359,119.909L-80.29,121.841L-80.222,121.477L-80.153,121.159L-80.085,121.068L-80.017,120.591L-79.948,120.795L-79.88,122.523L-79.811,123.5L-79.743,123.523L-79.674,123.5L-79.606,123.5L-79.537,123.386L-79.469,123.955L-79.401,126.205L-79.332,127.568L-79.264,127.295L-79.195,126.568L-79.127,125.568L-79.058,123.909L-78.99,122.318L-78.921,122.705L-78.85,123.5L-78.782,123.205L-78.713,122.591L-78.645,121.455L-78.576,120.114L-78.508,119.409L-78.439,120.227L-78.371,120.977L-78.303,120.682L-78.234,119.727L-78.166,119.114L-78.097,117.818L-78.029,116.886L-77.96,117.909L-77.892,118.864L-77.823,118.636L-77.755,118.432L-77.687,117.909L-77.618,117.227L-77.55,116.364L-77.481,116.705L-77.413,117.682L-77.344,117.659L-77.276,117.386L-77.207,116.864L-77.139,116.386L-77.07,115.364L-77.002,116.477L-76.934,117.227L-76.865,117.159L-76.797,116.818L-76.728,116.614L-76.66,116.114L-76.591,116.045L-76.523,117.068L-76.454,118.295L-76.386,118.273L-76.318,118.205L-76.249,117.977L-76.181,117.295L-76.112,116.25L-76.044,117.636L-75.975,119.25L-75.907,118.977L-75.838,118.455L-75.77,118.023L-75.702,116.545L-75.633,115.977L-75.565,116.636L-75.496,117.841L-75.428,118.523L-75.359,118.159L-75.291,117.75L-75.222,116.386L-75.154,115.386L-75.086,115.886L-75.017,117.295L-74.949,117.455L-74.88,117.705L-74.812,117L-74.743,115.659L-74.675,114.5L-74.606,115.182L-74.538,116.432L-74.47,116.318L-74.401,115.932L-74.333,115.886L-74.264,115.591L-74.196,114.886L-74.127,116.295L-74.059,118.205L-73.99,118.023L-73.922,117.364L-73.854,116.705L-73.785,115.568L-73.717,114.909L-73.648,116.364L-73.58,117.636L-73.511,117.955L-73.443,117.432L-73.374,116.977L-73.306,115.5L-73.238,114L-73.169,115.25L-73.101,116.5L-73.032,116.545L-72.964,116.159L-72.895,115.682L-72.827,114.841L-72.758,114.068L-72.69,115.705L-72.621,117.295L-72.553,117.545L-72.485,116.909L-72.416,116.659L-72.348,115.455L-72.279,113.636L-72.211,113.886L-72.142,115.455L-72.074,115.364L-72.005,115.227L-71.937,114.386L-71.869,113.023L-71.8,111.773L-71.732,113.227L-71.663,114.727L-71.595,114.818L-71.526,114.455L-71.458,113.795L-71.389,112.432L-71.321,111.182L-71.253,113.091L-71.184,114.932L-71.116,114.886L-71.047,114.614L-70.979,113.977L-70.91,112.773L-70.842,111.705L-70.773,112.409L-70.705,113.932L-70.637,113.477L-70.568,112.773L-70.5,112.159L-70.431,110.545L-70.363,109.659L-70.294,110.636L-70.229,112.25L-70.16,112.136L-70.092,111.568L-70.023,110.795L-69.955,108.886L-69.886,108.227L-69.818,109.386L-69.75,111.136L-69.681,110.886L-69.613,110.455L-69.544,109.5L-69.476,107.977L-69.407,106.636L-69.339,107.864L-69.27,109.455L-69.202,108.795L-69.134,108.341L-69.065,107.227L-68.997,105.136L-68.928,103.818L-68.86,105.068L-68.791,106.614L-68.723,106.386L-68.654,105.114L-68.586,104.364L-68.518,103.045L-68.449,100.455L-68.381,101.886L-68.312,102.455L-68.244,102.25L-68.175,102L-68.107,100.977L-68.038,98.477L-67.97,97.886L-67.902,99.5L-67.833,101.205L-67.765,101.795L-67.696,101.023L-67.628,99.727L-67.559,97.705L-67.491,96.591L-67.422,97.909L-67.354,99.682L-67.286,99.545L-67.217,99.182L-67.149,99.295L-67.08,98.432L-67.012,97.864L-66.943,98.455L-66.875,100.455L-66.806,100.568L-66.738,100.364L-66.67,100.432L-66.601,99.614L-66.533,99.568L-66.464,101.318L-66.396,104.386L-66.327,104.25L-66.259,104.432L-66.19,104.636L-66.122,103.682L-66.054,102.568L-65.985,105.273L-65.917,106.591L-65.848,106.682L-65.78,106.75L-65.711,105.864L-65.643,104.364L-65.574,104.023L-65.506,106.045L-65.437,108.455L-65.369,108.568L-65.301,107.818L-65.232,106.727L-65.164,105.477L-65.095,104.136L-65.027,105.318L-64.958,107.386L-64.89,109.227L-64.821,109.068L-64.753,109.091L-64.685,108.159L-64.616,107.591L-64.548,109.955L-64.479,111.318L-64.411,111.295L-64.342,111.295L-64.274,111.909L-64.205,112.273L-64.137,112.273L-64.069,114.295L-64,117.159L-63.932,117.182L-63.863,116.932L-63.795,116.409L-63.726,115.318L-63.658,115.5L-63.589,118.341L-63.521,120.659L-63.453,121.25L-63.384,120.864L-63.316,121.386L-63.247,122.114L-63.179,122.955L-63.11,124.5L-63.042,126.318L-62.973,126.682L-62.905,125.795L-62.837,125.364L-62.768,123.795L-62.7,122.818L-62.631,124.182L-62.563,125.5L-62.494,125.091L-62.426,124.75L-62.357,124.659L-62.289,123.682L-62.221,121.795L-62.152,121.409L-62.084,121.818L-62.015,121.182L-61.947,120.909L-61.878,120.682L-61.81,120.068L-61.741,119.205L-61.673,120.409L-61.604,121.477L-61.536,120.818L-61.468,119.773L-61.399,118.682L-61.331,117.318L-61.262,115.659L-61.194,115.636L-61.125,116.614L-61.057,116.568L-60.988,116.341L-60.92,115.5L-60.852,114.295L-60.783,112.864L-60.715,114.75L-60.646,116.205L-60.578,116.091L-60.509,115.477L-60.441,115.114L-60.372,114.205L-60.304,112.773L-60.236,113.205L-60.167,115.25L-60.099,115.5L-60.03,115.091L-59.962,114.364L-59.893,112.205L-59.825,110.5L-59.756,111.364L-59.688,112.841L-59.62,112.886L-59.551,112.636L-59.483,112.273L-59.414,111.295L-59.346,109.636L-59.277,110.659L-59.209,112.273L-59.14,111.977L-59.072,111.795L-59.004,110.614L-58.935,107.386L-58.867,106.227L-58.798,107.386L-58.73,109.045L-58.661,107.864L-58.593,107.068L-58.524,105.682L-58.456,103L-58.388,100.705L-58.319,101.455L-58.251,102.955L-58.182,103.386L-58.114,102.545L-58.045,101.773L-57.977,99.886L-57.908,98.227L-57.84,100.341L-57.772,102.295L-57.703,102.068L-57.635,101.477L-57.566,100.455L-57.498,98.568L-57.429,97.273L-57.361,98.5L-57.292,100.705L-57.224,100.659L-57.155,99.682L-57.087,98.841L-57.019,96.045L-56.95,94.409L-56.882,97.091L-56.813,98.318L-56.745,98.136L-56.676,97.591L-56.608,97.727L-56.539,95.568L-56.471,94.182L-56.403,96.818L-56.334,99.386L-56.266,98.705L-56.197,97.205L-56.129,95.682L-56.06,93.614L-55.992,92.159L-55.923,94.341L-55.855,96.727L-55.787,96.409L-55.718,95.977L-55.65,95.25L-55.581,94L-55.513,91.705L-55.444,92.864L-55.376,94.773L-55.307,95.273L-55.239,95.591L-55.171,95.273L-55.102,94.159L-55.034,92.909L-54.965,95.523L-54.897,98.523L-54.828,98.864L-54.76,98.818L-54.691,98.932L-54.623,97.636L-54.555,96.295L-54.486,98.818L-54.418,101.864L-54.349,102.227L-54.281,101.909L-54.212,102.364L-54.144,102.341L-54.075,102L-54.007,104.636L-53.936,107.068L-53.867,106.773L-53.799,106.477L-53.73,105.977L-53.662,104.432L-53.593,102.955L-53.525,104.977L-53.457,108.205L-53.388,108.727L-53.32,108.136L-53.251,106.955L-53.183,104.909L-53.114,104.409L-53.046,105.545L-52.977,108.045L-52.909,107.795L-52.841,107.432L-52.772,106.636L-52.704,105.091L-52.635,104.386L-52.567,106.25L-52.498,108.318L-52.43,108.318L-52.361,108.205L-52.293,107.818L-52.225,106.818L-52.156,106.114L-52.088,107.432L-52.019,109.068L-51.951,107.864L-51.882,108.25L-51.814,108.636L-51.745,108.386L-51.677,107.545L-51.608,109.25L-51.54,111.886L-51.472,111.659L-51.403,111.591L-51.335,110.864L-51.266,109.773L-51.198,108.864L-51.129,110.273L-51.061,111.636L-50.992,112.386L-50.924,112.114L-50.856,111.795L-50.787,110L-50.719,108.659L-50.65,110.136L-50.582,111.591L-50.513,112.045L-50.445,112.295L-50.376,111.818L-50.308,110.023L-50.24,108.114L-50.171,109.227L-50.103,110.455L-50.034,110.545L-49.966,110.705L-49.897,111.159L-49.829,108.909L-49.76,106.682L-49.692,107.432L-49.624,109.023L-49.555,109.273L-49.487,109.25L-49.418,108.545L-49.35,107.182L-49.281,106.205L-49.213,107.795L-49.144,109.909L-49.076,110.523L-49.008,110.636L-48.939,110.341L-48.871,109.25L-48.802,108.341L-48.734,109.818L-48.665,112.205L-48.597,112.909L-48.528,112.932L-48.46,112.023L-48.392,110.409L-48.323,108.795L-48.255,110.045L-48.186,112.477L-48.118,112.727L-48.049,112.591L-47.981,111.682L-47.912,109.705L-47.844,108.114L-47.775,109.955L-47.707,112.091L-47.639,111.955L-47.57,111.659L-47.502,110.545L-47.433,108.568L-47.365,107.205L-47.296,108.205L-47.228,109.591L-47.159,109.341L-47.091,108.818L-47.023,108.091L-46.954,105.545L-46.886,102.818L-46.817,103.568L-46.749,104.659L-46.68,104.932L-46.612,104.636L-46.543,103.795L-46.475,101.795L-46.407,99.864L-46.338,100.886L-46.27,103.182L-46.201,103.364L-46.133,102.818L-46.064,101.977L-45.996,100.136L-45.927,99.682L-45.859,101.818L-45.791,104.273L-45.722,104.068L-45.654,103.5L-45.585,102.705L-45.517,101.364L-45.448,99.5L-45.38,101.159L-45.314,102.977L-45.246,103.045L-45.177,102.727L-45.109,101.682L-45.04,99.364L-44.972,96.568L-44.904,98.5L-44.835,101.568L-44.767,102.114L-44.698,101.841L-44.63,101.227L-44.561,99.523L-44.493,97.364L-44.424,98.659L-44.356,100.523L-44.288,100.773L-44.219,100.205L-44.151,99.318L-44.082,97.159L-44.014,94.523L-43.945,95.545L-43.877,97.205L-43.808,97.364L-43.74,96.364L-43.672,94.636L-43.603,91.841L-43.535,89.455L-43.466,89.795L-43.398,92.068L-43.329,91.75L-43.261,91.591L-43.192,90.295L-43.124,88.045L-43.056,85.886L-42.987,87.75L-42.919,90.818L-42.85,90.591L-42.782,89.841L-42.713,88.591L-42.645,86.409L-42.576,83.341L-42.508,84.659L-42.44,86.886L-42.371,86.682L-42.303,86.409L-42.234,85.091L-42.166,83.432L-42.097,80.227L-42.029,80.455L-41.96,83.614L-41.892,84.318L-41.824,83.159L-41.755,81.295L-41.687,79.386L-41.618,77.114L-41.55,79.182L-41.481,81.75L-41.413,82.341L-41.344,82.25L-41.276,81.023L-41.208,78.091L-41.139,76.023L-41.071,78.364L-41.002,81.318L-40.934,81.364L-40.865,80.75L-40.797,80.364L-40.728,77.955L-40.66,76.273L-40.591,77.955L-40.523,81.568L-40.455,81.682L-40.386,82.159L-40.318,81.432L-40.249,78.227L-40.181,77.023L-40.112,78.75L-40.044,82.477L-39.975,84.977L-39.907,85.159L-39.839,84.159L-39.77,82.682L-39.702,82.136L-39.633,84.659L-39.565,88.705L-39.496,89.909L-39.428,90.341L-39.359,90.75L-39.291,90.295L-39.223,90.023L-39.154,93.455L-39.086,97.205L-39.017,98.114L-38.949,98.273L-38.88,98.5L-38.812,98.159L-38.743,97.205L-38.675,100.523L-38.607,103.591L-38.538,104.25L-38.47,103.795L-38.401,103.386L-38.333,101.386L-38.264,100.045L-38.196,103.705L-38.127,106.068L-38.059,106.773L-37.991,106.75L-37.922,105.455L-37.854,103.477L-37.785,102.227L-37.717,104.136L-37.648,105.864L-37.58,105.909L-37.511,105.568L-37.443,104.614L-37.375,102.909L-37.306,100.614L-37.238,101.636L-37.169,103.591L-37.101,103.091L-37.032,102.159L-36.964,100.705L-36.895,98.341L-36.827,96.545L-36.758,97.432L-36.69,99.5L-36.622,99.341L-36.553,98.591L-36.485,97.773L-36.416,95.227L-36.348,93.795L-36.279,95.455L-36.211,98.091L-36.142,98.568L-36.074,98.455L-36.006,97.341L-35.937,95.659L-35.869,94.114L-35.8,95.864L-35.732,98.182L-35.663,98.818L-35.595,98.727L-35.526,97.636L-35.458,95.614L-35.39,94.25L-35.321,95.409L-35.253,98.091L-35.184,98.477L-35.116,98.227L-35.047,98.295L-34.979,97.432L-34.91,96.159L-34.842,98.023L-34.774,100.5L-34.705,100.545L-34.637,100.227L-34.568,99.295L-34.5,97.727L-34.431,95.614L-34.363,97.818L-34.294,99.545L-34.226,99.295L-34.158,98.682L-34.089,97.273L-34.021,93.818L-33.952,91.091L-33.884,92.909L-33.815,95.159L-33.747,94.545L-33.678,93.864L-33.61,92.182L-33.542,89.455L-33.473,88.477L-33.405,90.886L-33.336,93.227L-33.268,93.364L-33.199,92.455L-33.131,90.545L-33.062,87.932L-32.994,85.477L-32.926,86.818L-32.857,88.955L-32.789,89.614L-32.72,89.114L-32.652,87.273L-32.583,84.5L-32.515,81.523L-32.446,83L-32.378,86.205L-32.309,86.955L-32.241,86.909L-32.173,86.432L-32.104,84.409L-32.036,83.068L-31.967,86.682L-31.899,89.864L-31.83,89.818L-31.762,89.75L-31.693,89.159L-31.625,86.568L-31.557,85.455L-31.488,88.25L-31.42,90.136L-31.351,89.409L-31.283,88.364L-31.214,87.068L-31.146,85.25L-31.077,84.159L-31.009,86.727L-30.941,89.636L-30.872,89.409L-30.804,88.864L-30.735,88.432L-30.667,86.295L-30.598,86.477L-30.53,88.909L-30.461,92.273L-30.393,92.727L-30.325,92.386L-30.256,91.568L-30.188,89.795L-30.119,87.568L-30.051,90.023L-29.982,92.523L-29.914,92.591L-29.845,92.068L-29.777,90.955L-29.709,87.977L-29.64,84.25L-29.572,86.977L-29.503,89.455L-29.435,90L-29.366,90.341L-29.298,90.477L-29.229,88.977L-29.161,88.795L-29.093,90.636L-29.021,92.864L-28.953,92.523L-28.884,91.75L-28.816,91.136L-28.747,89.364L-28.679,85.909L-28.611,87.795L-28.542,89.614L-28.474,90.068L-28.405,90.045L-28.337,88.864L-28.268,86.159L-28.2,84.523L-28.131,86.432L-28.063,89.523L-27.995,89.091L-27.926,87.068L-27.858,85.545L-27.789,83.659L-27.721,80.636L-27.652,82.5L-27.584,87.591L-27.515,87.727L-27.447,87.705L-27.379,87.182L-27.31,85.955L-27.242,84.818L-27.173,87.136L-27.105,88.932L-27.036,88.977L-26.968,86.818L-26.899,86.705L-26.831,85.182L-26.762,84.023L-26.694,86.5L-26.626,90.591L-26.557,91.386L-26.489,91.523L-26.42,90.955L-26.352,89.182L-26.283,87.864L-26.215,91.159L-26.146,93.386L-26.078,94.045L-26.01,94.273L-25.941,93.545L-25.873,93.932L-25.804,91.909L-25.736,93.75L-25.667,97.795L-25.599,99.091L-25.53,99.023L-25.462,98.864L-25.394,96.364L-25.325,93.932L-25.257,95.25L-25.188,97.386L-25.12,97.727L-25.051,97.432L-24.983,97.136L-24.914,98.091L-24.846,95.25L-24.778,97.068L-24.709,99.432L-24.641,99.386L-24.572,98.636L-24.504,97.909L-24.435,95.841L-24.367,93.659L-24.298,95.591L-24.23,98.159L-24.162,98.023L-24.093,98.114L-24.025,97.182L-23.956,95.205L-23.888,94.545L-23.819,95.977L-23.751,99.477L-23.682,100.273L-23.614,100.455L-23.546,99.909L-23.477,98.227L-23.409,96.795L-23.34,99.136L-23.272,102.023L-23.203,101.795L-23.135,100.932L-23.066,99.523L-22.998,97.773L-22.93,96.523L-22.861,98.114L-22.793,101.591L-22.724,102.159L-22.656,101.977L-22.587,101.864L-22.519,100.432L-22.45,99.114L-22.382,100.432L-22.313,103.091L-22.245,102.727L-22.177,102.386L-22.108,101.318L-22.04,99.591L-21.971,97.795L-21.903,99.205L-21.834,100.864L-21.766,101.182L-21.697,101.114L-21.629,100.25L-21.561,98.136L-21.492,96.205L-21.424,97.977L-21.355,99.841L-21.287,99.636L-21.218,99.273L-21.15,98.682L-21.081,96.636L-21.013,94.977L-20.945,96.977L-20.876,98.591L-20.808,98.432L-20.739,97.523L-20.671,95L-20.602,92.841L-20.534,90.273L-20.465,91.227L-20.4,91.932L-20.331,92.409L-20.263,91.841L-20.195,90.864L-20.126,88.682L-20.058,87.068L-19.989,88.5L-19.921,90.432L-19.852,90.227L-19.784,88.205L-19.715,85.932L-19.647,81.864L-19.578,78.841L-19.51,81.045L-19.442,83.523L-19.373,82.205L-19.305,81.25L-19.236,81.136L-19.168,77.955L-19.099,74.864L-19.031,77.023L-18.962,77.545L-18.894,77.341L-18.826,77.205L-18.757,75.705L-18.689,74.114L-18.62,73.068L-18.552,74.455L-18.483,75.091L-18.415,74.273L-18.346,73.932L-18.278,70.318L-18.21,67.477L-18.141,65.114L-18.073,67.386L-18.004,70.25L-17.936,70.614L-17.867,69.955L-17.799,68.659L-17.73,67.75L-17.662,65.795L-17.594,69.455L-17.525,73L-17.457,72.659L-17.388,72.523L-17.32,72.75L-17.251,70.614L-17.183,67.977L-17.114,70.386L-17.046,74.091L-16.978,74.045L-16.909,75.682L-16.841,74.636L-16.772,72.159L-16.704,71.568L-16.635,73.977L-16.567,76.886L-16.498,77.091L-16.43,77.955L-16.362,78.409L-16.293,75.523L-16.225,75.386L-16.156,78.182L-16.088,81.545L-16.019,81.818L-15.951,80.818L-15.882,80.205L-15.814,80.25L-15.745,79.659L-15.677,83.023L-15.609,87.386L-15.54,87.295L-15.472,86.477L-15.403,85.795L-15.335,84L-15.266,81.955L-15.198,85.182L-15.129,88.727L-15.061,89.386L-14.993,88.273L-14.924,86.795L-14.856,85.159L-14.787,83.955L-14.719,86.591L-14.65,88.773L-14.582,88.523L-14.513,88.136L-14.445,86.159L-14.377,86.023L-14.308,86.318L-14.24,90.909L-14.171,95.091L-14.103,95.818L-14.034,96.205L-13.966,95.659L-13.897,94.659L-13.829,93.25L-13.761,94.318L-13.692,97.295L-13.624,97.114L-13.555,96.045L-13.487,95.864L-13.418,95.159L-13.35,95.045L-13.281,97.455L-13.213,101L-13.145,100.636L-13.076,99.591L-13.008,99.045L-12.939,98.841L-12.871,98.659L-12.802,100.818L-12.734,103.682L-12.665,104.273L-12.597,104.341L-12.529,104.136L-12.46,103.114L-12.392,104.477L-12.323,106.295L-12.255,107.386L-12.186,106.977L-12.118,106.318L-12.049,105.545L-11.981,103.727L-11.913,102.341L-11.844,104.045L-11.776,106.591L-11.707,106.523L-11.639,105.386L-11.57,104.795L-11.502,103.591L-11.433,102.659L-11.365,104.727L-11.296,106.318L-11.228,106.136L-11.16,105.523L-11.091,104.523L-11.023,103.318L-10.954,102.386L-10.886,103.659L-10.817,105.614L-10.749,105.477L-10.68,104.591L-10.612,103.432L-10.544,100.932L-10.475,99.682L-10.407,101.591L-10.338,102.659L-10.27,102.205L-10.201,101.932L-10.133,101.409L-10.064,100.091L-9.996,98.523L-9.928,99.614L-9.859,102L-9.791,102.295L-9.722,101.977L-9.654,101.068L-9.585,99.636L-9.517,97.773L-9.448,99.045L-9.38,100.318L-9.312,99.432L-9.243,98.568L-9.175,96.932L-9.106,94.273L-9.038,92.955L-8.969,94.364L-8.901,95.318L-8.832,94.75L-8.764,93.614L-8.696,90.841L-8.627,87.182L-8.559,84.295L-8.49,86.318L-8.422,88.045L-8.353,87.25L-8.285,86.614L-8.216,86L-8.148,84.182L-8.08,81.591L-8.011,82.864L-7.943,84.523L-7.874,85L-7.806,84.023L-7.737,82.682L-7.669,79.568L-7.6,77.409L-7.532,78.909L-7.463,81.205L-7.395,81.182L-7.327,80.341L-7.258,78.841L-7.19,75.864L-7.121,75.341L-7.053,78.068L-6.984,80.227L-6.916,79.886L-6.847,79.114L-6.779,78.432L-6.711,77.023L-6.642,76.727L-6.574,80.818L-6.505,84.409L-6.437,84.545L-6.368,83.795L-6.3,83.045L-6.231,80.182L-6.163,77.545L-6.095,79.136L-6.026,82.045L-5.958,82.045L-5.889,82.091L-5.821,81.136L-5.752,78.159L-5.684,75.932L-5.615,78.386L-5.547,81.5L-5.479,81.591L-5.41,81.205L-5.342,80.318L-5.273,78.114L-5.205,77.227L-5.136,80.091L-5.068,81.841L-4.999,81.182L-4.931,80.477L-4.863,79.318L-4.794,76.909L-4.726,75.568L-4.657,78.068L-4.589,81.432L-4.52,81.227L-4.452,81.273L-4.383,81.068L-4.315,80.182L-4.247,79.159L-4.178,82.591L-4.107,85.955L-4.038,86.295L-3.97,86.182L-3.901,85.159L-3.833,82.341L-3.765,80.568L-3.696,83.75L-3.628,87.182L-3.559,87.159L-3.491,86.705L-3.422,85.795L-3.354,82.068L-3.285,79.886L-3.217,82.977L-3.149,85.523L-3.08,85.295L-3.012,84.409L-2.943,83.545L-2.875,81.386L-2.806,80.091L-2.738,83.864L-2.669,86.25L-2.601,86.091L-2.533,85.75L-2.464,85.841L-2.396,84.636L-2.327,82.909L-2.259,84.5L-2.19,86.682L-2.122,86.25L-2.053,85.045L-1.985,83.273L-1.916,81.932L-1.848,80.864L-1.78,84.045L-1.711,87.068L-1.643,87.75L-1.574,87.727L-1.506,87.977L-1.437,87.068L-1.369,87.068L-1.3,91.455L-1.232,95.727L-1.164,96.659L-1.095,97.114L-1.027,97.341L-0.958,97.136L-0.89,97.25L-0.821,100.273L-0.753,104L-0.684,104.318L-0.616,104.636L-0.548,104.5L-0.479,104.432L-0.411,105.205L-0.342,106.977L-0.274,109.75L-0.205,109.523L-0.137,109.682L-0.068,109.455L0,109.295L0.068,109.614L0.137,111.295L0.205,114.068L0.274,114.364L0.342,114.25L0.411,113.409L0.479,112.227L0.548,111.091L0.616,112.477L0.684,114.25L0.753,114.25L0.821,114.295L0.89,113.091L0.958,111.841L1.027,111.205L1.095,112.568L1.164,114.25L1.232,114.682L1.3,113.955L1.369,113.682L1.437,111.818L1.506,110.386L1.574,110.727L1.643,110.341L1.711,110.318L1.78,109.75L1.848,109.341L1.916,107.318L1.985,105.841L2.053,107.25L2.122,108.909L2.19,109.295L2.259,109.023L2.327,108.705L2.396,107.25L2.464,105.841L2.533,107.136L2.601,108.636L2.669,108L2.738,106.977L2.806,105.977L2.875,103.25L2.943,101.591L3.012,103.068L3.08,104.273L3.149,104.205L3.217,103.364L3.285,102.614L3.354,100.705L3.422,98.705L3.491,100.364L3.559,102.205L3.628,101.886L3.696,101.523L3.765,99.909L3.833,98.318L3.901,96.318L3.97,98.455L4.038,101.023L4.107,100.682L4.175,100.318L4.244,98.455L4.312,95.659L4.381,94L4.449,95.568L4.517,97.545L4.586,97.136L4.654,97.114L4.723,97.023L4.791,95.432L4.86,93.977L4.928,96.114L4.994,98.705L5.062,98.477L5.131,97.909L5.199,97L5.268,94.795L5.336,91.864L5.404,93.364L5.473,95.068L5.541,95.045L5.61,94.636L5.678,93.432L5.747,91.636L5.815,90.568L5.884,92.159L5.952,95.045L6.02,94.841L6.089,94L6.157,93.091L6.226,90.705L6.294,90.205L6.363,93.091L6.431,94.159L6.5,93.818L6.568,91.795L6.636,90L6.705,85.75L6.773,82.5L6.842,84.205L6.91,86.023L6.979,84.955L7.047,83.091L7.116,80.727L7.184,75.136L7.252,71.682L7.321,74.045L7.389,76.841L7.458,76.818L7.526,75.295L7.595,71.591L7.663,66.295L7.732,61.409L7.8,62.227L7.868,64.114L7.937,63.182L8.005,61.477L8.074,60.182L8.142,58.659L8.211,57.182L8.279,59.205L8.348,61.318L8.416,60.205L8.484,59.727L8.553,58.25L8.621,56.955L8.69,55.318L8.758,59.295L8.827,62.795L8.895,62.977L8.964,60.977L9.032,58.818L9.101,56.295L9.169,54.886L9.237,60.091L9.306,63.341L9.374,63.023L9.443,62.705L9.511,60.841L9.58,58.295L9.648,58.114L9.717,63.659L9.785,69.5L9.853,69.773L9.922,69.25L9.99,68.659L10.059,66.136L10.127,62.75L10.196,64.591L10.264,66.841L10.333,67.455L10.401,66.636L10.469,67L10.538,66.614L10.606,66.182L10.675,68.773L10.743,72.705L10.812,73.341L10.88,73.136L10.949,73.341L11.017,73.341L11.085,73.705L11.154,77.614L11.222,81.273L11.291,82.295L11.359,83.341L11.428,84.068L11.496,83.114L11.565,83.409L11.633,87.773L11.701,91.977L11.77,91.886L11.838,91.818L11.907,91.977L11.975,91.864L12.044,91.523L12.112,96L12.181,101.023L12.249,101.409L12.317,101.341L12.386,101.227L12.454,100.818L12.523,99.977L12.591,101.5L12.66,103.659L12.728,103.705L12.797,102.818L12.865,101.477L12.933,100.341L13.002,97.841L13.07,100.614L13.139,103.727L13.207,104.5L13.276,104.477L13.344,103.864L13.413,102.977L13.481,101.5L13.55,103.636L13.618,106.295L13.686,106.75L13.755,106.682L13.823,106.091L13.892,104.841L13.96,103.932L14.029,105L14.097,106.727L14.166,105.932L14.234,105.136L14.302,104.386L14.371,102.568L14.439,100.477L14.508,101.523L14.576,102.909L14.645,103.023L14.713,102.386L14.782,101.932L14.85,99.364L14.918,96.705L14.987,97.182L15.055,99.364L15.124,98.932L15.192,98.682L15.261,96.5L15.329,94.273L15.398,92.205L15.466,92.136L15.534,93.409L15.603,92.659L15.671,91.25L15.74,88.886L15.808,84.818L15.877,82.068L15.945,83.636L16.014,85.386L16.082,85L16.15,84.727L16.219,83.318L16.287,80.136L16.356,76.295L16.424,78.295L16.493,80.386L16.561,80.159L16.63,79.341L16.698,78.295L16.766,75.159L16.835,72.227L16.903,74.818L16.972,78.432L17.04,79.455L17.109,79.159L17.177,77.636L17.246,74.205L17.314,72.773L17.383,74.364L17.451,76.25L17.519,76.523L17.588,76.045L17.656,74.591L17.725,71.295L17.793,69.523L17.862,72.818L17.93,76.091L17.999,76.227L18.067,76.205L18.135,75.477L18.204,73.273L18.272,71.75L18.341,75.023L18.409,79.182L18.478,79.205L18.546,79.045L18.615,77.568L18.683,73.795L18.751,70.295L18.82,73.295L18.888,76.659L18.957,76.795L19.025,75.909L19.094,75.045L19.162,72.114L19.231,72.068L19.299,74.864L19.367,78L19.436,78.773L19.504,78.818L19.573,78.455L19.641,76.182L19.71,74.955L19.778,78.75L19.847,82.568L19.915,82.818L19.983,82.068L20.052,79.682L20.12,75.568L20.189,74.386L20.257,76.545L20.326,79.545L20.394,79.75L20.463,79.273L20.531,78.432L20.599,76.409L20.668,75.682L20.736,80.364L20.805,84.773L20.873,85.614L20.942,85.727L21.01,84.545L21.079,81.795L21.147,79.318L21.215,82.545L21.287,83.955L21.355,84.273L21.424,84.114L21.492,82.523L21.561,79.614L21.629,77.432L21.697,79.727L21.766,82.273L21.834,81.705L21.903,80.114L21.971,79.114L22.04,77.409L22.108,75.455L22.177,78.795L22.245,80.068L22.313,79.977L22.382,79.432L22.45,78.568L22.519,78.023L22.587,78.636L22.656,80.955L22.724,83.364L22.793,83.159L22.861,82.614L22.93,81.318L22.998,80.455L23.066,79.227L23.135,82.545L23.203,86.114L23.272,86.727L23.34,86.864L23.409,86.159L23.477,83.932L23.546,83.341L23.614,86.455L23.682,89.773L23.751,90.614L23.819,90.386L23.888,90L23.956,88.523L24.025,86.477L24.093,88.523L24.162,93.045L24.23,93.523L24.298,93.727L24.367,92.841L24.435,90.114L24.504,87.318L24.572,88.545L24.641,89L24.709,89.091L24.778,89.091L24.846,88.205L24.914,85.864L24.983,84.295L25.051,85.636L25.12,88.227L25.188,88.091L25.257,87.909L25.325,87.091L25.394,85.045L25.462,84L25.53,86.068L25.599,88.114L25.667,88.455L25.736,88.295L25.804,87.886L25.873,86.864L25.941,85.409L26.01,88.432L26.078,91.432L26.146,91.864L26.215,91.545L26.283,91.045L26.352,88.886L26.42,86.659L26.489,89.409L26.557,93.341L26.626,93.273L26.694,92.636L26.762,91.023L26.831,87.977L26.899,86.705L26.968,89.295L27.036,92.182L27.105,92.386L27.173,92.432L27.242,92.045L27.31,90.091L27.379,88.523L27.447,90.568L27.515,92.909L27.584,92.636L27.652,92.682L27.721,91.727L27.789,89.795L27.858,86.955L27.926,88.841L27.995,92.023L28.063,92.318L28.131,92.568L28.2,91.227L28.268,89.295L28.337,87.977L28.405,90.591L28.474,94.205L28.542,94.909L28.611,95.273L28.679,94.523L28.747,92.159L28.816,90.341L28.884,93.409L28.953,95.75L29.021,95.864L29.09,95.386L29.158,94.795L29.227,92.841L29.295,91L29.363,93.136L29.432,95.795L29.5,95.705L29.569,95.386L29.637,94.955L29.706,91.909L29.774,89.705L29.843,90.864L29.908,93.318L29.977,92.341L30.045,91.045L30.114,88.818L30.182,85.841L30.25,83.636L30.319,85.182L30.387,87L30.456,87.227L30.524,86.659L30.593,85L30.661,81.068L30.73,77.227L30.798,79.386L30.866,82.955L30.935,83.227L31.003,82.409L31.072,80.227L31.14,76.659L31.209,73.364L31.277,74.773L31.346,76.886L31.414,76.591L31.482,75.318L31.551,73.818L31.619,70.705L31.688,68.773L31.756,71.795L31.825,74.455L31.893,74.886L31.962,74.705L32.03,74.045L32.098,72.25L32.167,71.5L32.235,73.932L32.304,77.159L32.372,77L32.441,76.409L32.509,75.545L32.578,73.136L32.646,70.955L32.714,74.295L32.783,78.773L32.851,78.636L32.92,78L32.988,75.977L33.057,72.727L33.125,71.818L33.194,74.159L33.262,77.659L33.33,77.523L33.399,76.841L33.467,74.591L33.536,71.045L33.604,69.273L33.673,72.023L33.741,75.068L33.81,74.182L33.878,73.364L33.946,72.045L34.015,69.432L34.083,68.841L34.152,71.545L34.22,74.591L34.289,74.932L34.357,74.386L34.426,73.909L34.494,71.773L34.563,69.773L34.631,72.818L34.699,76.75L34.768,75.977L34.836,75.182L34.905,75.386L34.973,73.955L35.042,72.705L35.11,76.318L35.179,79.273L35.247,80.318L35.315,79.159L35.384,79.477L35.452,79.523L35.521,80.045L35.589,84.295L35.658,87.432L35.726,88L35.795,87.886L35.863,88.114L35.931,86.841L36,85.591L36.068,88.886L36.137,91.159L36.205,91.386L36.274,90.841L36.342,90.5L36.411,88.409L36.479,86.841L36.547,89.909L36.616,93.432L36.684,93.409L36.753,92.795L36.821,93.432L36.89,93.068L36.958,92.318L37.027,94.227L37.095,96.795L37.163,96L37.232,95.227L37.3,94.727L37.369,93.477L37.437,90.023L37.506,91.409L37.574,93.955L37.643,94.091L37.711,94.114L37.779,93.205L37.848,90.864L37.916,87.795L37.985,90.182L38.053,93.659L38.122,93.25L38.19,92.455L38.259,91.5L38.327,89.318L38.396,86.977L38.464,90.273L38.532,93.25L38.601,93.068L38.669,91.727L38.738,91.477L38.806,90.023L38.875,87.091L38.943,88.25L39.012,89.75L39.08,89.955L39.148,90.091L39.217,90.545L39.285,88.136L39.354,86.614L39.422,88.886L39.491,92.955L39.559,92.023L39.628,90.386L39.696,88.909L39.764,86.091L39.833,82.5L39.901,82.295L39.97,85.818L40.038,85.75L40.107,84.932L40.175,83.75L40.244,80.023L40.312,76.886L40.38,78.614L40.449,81.409L40.517,80.705L40.586,80.159L40.654,79.114L40.723,76.682L40.791,73.795L40.86,75.773L40.928,79.318L40.996,79.386L41.065,78.591L41.133,76.318L41.202,72.386L41.27,69.773L41.339,73.568L41.407,76.455L41.476,76.386L41.544,75.455L41.612,74.682L41.681,72.5L41.749,70.841L41.818,73.455L41.886,77.795L41.955,79.955L42.023,79.886L42.092,78.227L42.16,74.795L42.228,74.068L42.297,78.568L42.365,82.432L42.434,82.955L42.502,82.659L42.571,81.977L42.639,78.682L42.708,76.682L42.776,79.477L42.845,82.386L42.913,81.841L42.981,80.773L43.05,79.318L43.118,75.636L43.187,73.364L43.255,77.659L43.324,81.227L43.392,80.614L43.461,79.682L43.529,78.523L43.597,75.159L43.666,73.023L43.734,76.455L43.803,78.409L43.871,78.432L43.94,78.205L44.008,77.205L44.077,74.091L44.145,72.795L44.213,76.091L44.282,78.659L44.35,78.523L44.419,78.023L44.487,77.545L44.556,75.341L44.624,74.477L44.693,78.045L44.761,80.886L44.829,80.841L44.898,80.227L44.966,79.955L45.035,78.977L45.103,78.273L45.172,82.409L45.24,86.841L45.309,86.955L45.377,86.364L45.445,86.636L45.514,85.818L45.582,84.886L45.651,89.114L45.719,92.773L45.788,92.636L45.856,93.227L45.925,91.773L45.993,88.523L46.061,86.659L46.13,89.659L46.201,92.591L46.27,92.909L46.338,92.318L46.407,90.455L46.475,88.682L46.543,86.909L46.612,89.273L46.68,90.727L46.749,90.205L46.817,89.205L46.886,88.205L46.954,85.864L47.023,83.568L47.091,84.909L47.159,86.409L47.228,85.659L47.296,84.568L47.365,83.182L47.433,82.432L47.502,81.5L47.57,82.705L47.639,85.295L47.707,85.114L47.775,85.045L47.844,84.591L47.912,83.795L47.981,84.295L48.049,86.432L48.118,90.159L48.186,90.727L48.255,91.182L48.323,90.818L48.392,89.886L48.46,89.432L48.528,91.136L48.597,93.568L48.665,93.705L48.734,93.818L48.802,93.5L48.871,91.977L48.939,90.5L49.008,93.205L49.076,96.205L49.144,95.932L49.213,96.5L49.281,96.023L49.35,94.659L49.418,92.523L49.487,93.364L49.555,94.5L49.624,95L49.692,94.75L49.76,94.045L49.829,90.614L49.897,87.136L49.966,88.432L50.034,90.091L50.103,91.591L50.171,90.818L50.24,89.886L50.308,86.636L50.376,84.682L50.445,86.091L50.513,88.477L50.582,89.25L50.65,89.068L50.719,88.523L50.787,86.591L50.856,85.386L50.924,87.932L50.992,90.773L51.061,90.773L51.129,90.864L51.198,90.864L51.266,89.5L51.335,88.727L51.403,90.455L51.472,93.886L51.54,94.045L51.608,93.75L51.677,92.818L51.745,90.795L51.814,88.955L51.882,92.227L51.951,96.023L52.019,95.886L52.088,95.273L52.156,94.773L52.225,93.045L52.293,91.5L52.361,94.409L52.43,97L52.498,97.409L52.567,97.091L52.635,95.864L52.704,93.568L52.772,92L52.841,94.091L52.909,96.273L52.977,96.727L53.046,96.386L53.114,95.955L53.183,93.455L53.251,91.295L53.32,92.614L53.388,94.795L53.457,95.523L53.525,95.295L53.593,94.364L53.662,92.25L53.73,90.273L53.799,92.159L53.867,94.614L53.936,94.841L54.004,94.636L54.073,94.159L54.141,92.568L54.209,91.068L54.278,92.727L54.346,95.273L54.415,95.727L54.483,95.227L54.552,93.523L54.62,90.795L54.689,88.841L54.757,91.205L54.823,93.205L54.891,93.386L54.96,92.955L55.028,90.909L55.096,87.545L55.165,85.841L55.233,88.545L55.302,91.545L55.37,91.614L55.439,91.227L55.507,89.75L55.576,86.909L55.644,84.977L55.712,87.227L55.781,89.932L55.849,90.045L55.918,88.705L55.986,87.909L56.055,84.5L56.123,81.568L56.192,83.341L56.26,84.727L56.328,83.886L56.397,83.068L56.465,81.477L56.534,76.818L56.602,73.886L56.671,76.523L56.739,78.977L56.808,78.455L56.876,78.091L56.944,76.477L57.013,74.182L57.081,73.659L57.15,77.045L57.218,79.591L57.287,79.295L57.355,77.409L57.424,75.705L57.492,72.432L57.56,69.591L57.629,72.023L57.697,74.727L57.766,73.864L57.834,73L57.903,71.614L57.971,69.682L58.04,67.273L58.108,69.727L58.176,73.523L58.245,73.432L58.313,73.318L58.382,72.977L58.45,70.955L58.519,69.523L58.587,74.636L58.656,78.341L58.724,77.659L58.792,76.5L58.861,74.545L58.929,71.136L58.998,68.773L59.066,70.977L59.135,72.773L59.203,72.932L59.272,71.205L59.34,69.818L59.409,67.818L59.477,66.864L59.545,70.659L59.614,75.023L59.682,75.477L59.751,74.659L59.819,74.136L59.888,71.523L59.956,70.25L60.025,73.682L60.093,76.364L60.161,77.591L60.23,77.432L60.298,77.182L60.367,76.5L60.435,77.25L60.504,80.455L60.572,83.432L60.641,82.977L60.709,83.705L60.777,84.045L60.846,82.909L60.914,83.386L60.983,88L61.051,92.386L61.12,92.841L61.188,93.045L61.257,92.432L61.325,92.568L61.393,92.955L61.462,97.091L61.53,100.523L61.599,100.5L61.667,99.386L61.736,98.5L61.804,97.5L61.873,97.477L61.941,101.455L62.009,104.75L62.078,105.136L62.146,105.773L62.215,105.795L62.283,103.659L62.352,102.205L62.42,103.432L62.489,104.182L62.557,103.705L62.625,103.659L62.694,104.045L62.762,103.023L62.831,102.659L62.899,105.909L62.968,108.5L63.036,108.409L63.105,108.182L63.173,107.523L63.242,106.295L63.31,105.227L63.378,105.25L63.447,104.364L63.515,103.364L63.584,102.614L63.652,102.318L63.721,101.341L63.789,100.795L63.858,102.591L63.926,103.909L63.994,103.455L64.063,101.955L64.131,99.864L64.2,96.682L64.268,94.273L64.337,96.727L64.405,99.091L64.474,99.295L64.542,99.386L64.61,97.773L64.679,95.636L64.747,93.045L64.816,93.114L64.884,94.341L64.953,93.977L65.021,93.205L65.09,92.205L65.158,88.682L65.226,87.318L65.295,88.864L65.363,90.477L65.432,91.932L65.5,93.159L65.569,92.136L65.637,88.636L65.706,86.045L65.774,88.023L65.842,90L65.911,90.523L65.979,90.409L66.048,88.386L66.116,85.455L66.185,83.364L66.253,86.068L66.322,88.591L66.39,88.25L66.458,87.091L66.527,85.341L66.595,80.75L66.664,78.432L66.732,79.523L66.801,82.295L66.869,82.705L66.938,82.159L67.006,80.114L67.074,76.591L67.143,73.114L67.211,76.136L67.28,78.159L67.348,77.841L67.417,77.841L67.485,76.75L67.554,74L67.622,72.545L67.691,76.205L67.759,78.977L67.827,78.636L67.896,77.318L67.964,75.591L68.033,72.614L68.101,72.114L68.17,76.068L68.238,79.977L68.307,80.341L68.375,79.568L68.443,78.091L68.512,75.295L68.58,74L68.649,78.182L68.717,81.682L68.786,81.386L68.854,80.159L68.923,79.455L68.991,77.205L69.059,76.409L69.128,80.364L69.196,84.636L69.265,84.886L69.333,84.841L69.402,84.341L69.47,82.568L69.539,81.364L69.607,84.841L69.675,87.977L69.744,88.432L69.812,88.568L69.881,88.591L69.949,86.295L70.018,85.568L70.086,88.545L70.155,91.182L70.223,91.159L70.291,90.795L70.36,90.364L70.428,89.75L70.497,89.409L70.565,93.386L70.634,96.614L70.702,96.886L70.771,95.977L70.839,95.568L70.907,93.614L70.976,92L71.044,94.114L71.116,96.477L71.184,96.091L71.253,95.273L71.321,94.341L71.389,91.932L71.458,90.205L71.526,92.114L71.595,94.455L71.663,94.091L71.732,93.227L71.8,91.227L71.869,88.159L71.937,85.25L72.005,88.273L72.074,90.523L72.142,90.773L72.211,89.977L72.279,89.318L72.348,87.841L72.416,86.841L72.485,87.932L72.553,90.068L72.621,90.136L72.69,89.955L72.758,89.25L72.827,88.818L72.895,88.477L72.964,91.114L73.032,91.455L73.101,92.364L73.169,92.773L73.238,92.386L73.306,90.75L73.374,90.136L73.443,92.182L73.511,94.886L73.58,95.25L73.648,95.705L73.717,95.273L73.785,93.114L73.854,91.773L73.922,94.659L73.99,97.818L74.059,97.886L74.127,97.114L74.196,96.023L74.264,94.682L74.333,93.614L74.401,95.136L74.47,96.864L74.538,97.205L74.606,96.75L74.675,95.523L74.743,92.841L74.812,91.977L74.88,93.818L74.949,96.136L75.017,96.705L75.086,99.023L75.154,98.227L75.222,95.864L75.291,94.545L75.359,96.727L75.428,98.477L75.496,99.227L75.565,98.591L75.633,97.864L75.702,95.455L75.77,93.295L75.838,96.227L75.907,99.023L75.975,99.136L76.044,98.864L76.112,97.932L76.181,95.955L76.249,94.045L76.318,96.114L76.386,98.182L76.454,98.75L76.523,98.409L76.591,97.432L76.66,95.705L76.728,94.614L76.797,97.636L76.865,99.5L76.934,99.273L77.002,98.773L77.07,98.136L77.139,96L77.207,94.591L77.276,97.364L77.344,99.409L77.413,99.705L77.481,99.295L77.55,98.023L77.618,95.273L77.687,93.591L77.755,95.227L77.823,98.318L77.892,98L77.96,97.341L78.029,96.068L78.097,94.227L78.166,92.773L78.234,95.455L78.303,97.841L78.371,97.477L78.439,97.341L78.508,96.091L78.576,93.523L78.645,92.136L78.713,94.091L78.782,96.318L78.85,95.909L78.919,95.318L78.987,93.545L79.055,90.5L79.124,88.114L79.192,90.636L79.261,92.75L79.329,91.727L79.398,90.386L79.466,88.977L79.535,85.705L79.603,83.432L79.671,86.523L79.737,88.727L79.805,88.932L79.874,88.636L79.942,87.932L80.011,85.068L80.079,82.864L80.148,85.114L80.216,87.614L80.285,87.386L80.353,87.682L80.422,87.114L80.49,84.705L80.558,82.091L80.627,84.75L80.695,87.114L80.764,86.955L80.832,86.477L80.901,86.205L80.969,83.818L81.038,82.432L81.106,85.25L81.174,88.159L81.243,87.795L81.311,86.773L81.38,86.045L81.448,82.864L81.517,80.364L81.585,83.841L81.654,86.75L81.722,86.091L81.79,85.682L81.859,84.295L81.927,80.727L81.996,79.818L82.064,83.705L82.133,87.455L82.201,86.545L82.27,84.75L82.338,82.932L82.406,77.841L82.475,74.25L82.543,76.341L82.612,79.568L82.68,78.705L82.749,77.773L82.817,76.591L82.886,73.818L82.954,71.273L83.022,72.273L83.091,75.5L83.159,75.705L83.228,75.477L83.296,73.841L83.365,70.795L83.433,69.432L83.502,73.136L83.57,76.432L83.638,76.364L83.707,76.091L83.775,75.523L83.844,71.773L83.912,69.864L83.981,73.386L84.049,75.045L84.118,73.614L84.186,72.5L84.255,71.023L84.323,68.409L84.391,67.295L84.46,72.477L84.528,77.068L84.597,77.364L84.665,77.341L84.734,75.818L84.802,73L84.871,71.545L84.939,74.341L85.007,77.205L85.076,78.545L85.144,77.682L85.213,77.614L85.281,77.227L85.35,76.818L85.418,80.591L85.487,83.659L85.555,84.182L85.623,84.068L85.692,84.477L85.76,83.909L85.829,84.477L85.897,87.182L85.966,90.773L86.034,91.318L86.103,91.682L86.171,92.591L86.239,92.341L86.308,93.364L86.376,98.182L86.445,101.75L86.513,102.659L86.582,102.932L86.65,102.864L86.719,102.455L86.787,104.795L86.855,109.205L86.924,112.5L86.992,112.727L87.061,112.477L87.129,112.545L87.198,112.068L87.266,111.205L87.335,112.068L87.403,114.705L87.471,115.182L87.54,114.795L87.608,114.455L87.677,113.659L87.745,113.159L87.814,114.591L87.882,115.795L87.951,117.75L88.019,117.545L88.087,116.341L88.156,113.909L88.224,112.386L88.293,113.773L88.361,115.205L88.43,115.182L88.498,114.841L88.567,113.295L88.635,110.864L88.704,110.159L88.772,111.591L88.84,111.955L88.909,111.523L88.977,111.341L89.046,110.705L89.114,108.295L89.183,106.705L89.251,108.068L89.32,108.75L89.388,108.659L89.456,107.568L89.525,106.455L89.593,105.25L89.662,103.227L89.73,104.409L89.799,105.091L89.867,104.773L89.936,103.727L90.004,102.864L90.072,100.091L90.141,98.205L90.209,100.523L90.278,102.682L90.346,102.659L90.415,102.364L90.483,101.136L90.552,98.114L90.62,96.136L90.688,98L90.757,98.773L90.825,97.727L90.894,96.591L90.962,94.841L91.031,91.455L91.099,89.5L91.168,92.523L91.236,94.455L91.304,94.205L91.373,93.909L91.441,91.864L91.51,89.909L91.578,88.591L91.647,90L91.715,92.727L91.784,93.045L91.852,92.659L91.92,92.023L91.989,90.091L92.057,88.159L92.126,91.114L92.194,94.136L92.263,94.341L92.331,92.886L92.4,91.455L92.468,88.023L92.537,85.364L92.605,87.705L92.673,90.682L92.742,91.25L92.81,91.114L92.879,90.614L92.947,88.364L93.016,87.818L93.084,90.705L93.153,93.386L93.221,92.932L93.289,92.227L93.358,90.841L93.426,87.068L93.495,85.636L93.563,88.136L93.632,89.932L93.7,89.455L93.769,87.659L93.837,85.614L93.905,83.432L93.974,81.75L94.042,84.818L94.111,87.318L94.179,87.523L94.248,86.909L94.316,86.318L94.385,85.159L94.453,83.977L94.521,86.864L94.59,90.364L94.658,91.068L94.727,90.455L94.795,88.841L94.864,86.795L94.932,85.682L95.001,88.909L95.069,91.068L95.137,90.886L95.206,90.25L95.274,89.455L95.343,88.205L95.411,88.295L95.48,92.977L95.548,96.659L95.617,96.636L95.685,97.023L95.753,97.159L95.822,97.364L95.89,98.159L95.959,100.659L96.03,103.364L96.099,102.977L96.167,102.159L96.235,101.045L96.304,99.273L96.372,97.955L96.441,100.523L96.509,103L96.578,103.341L96.646,102.341L96.715,101.795L96.783,99.75L96.851,98.886L96.92,101.045L96.988,103.295L97.057,103.159L97.125,102.341L97.194,101.318L97.262,100.205L97.331,99.818L97.399,102.159L97.467,103.818L97.536,103.818L97.604,103.182L97.673,103.091L97.741,101.364L97.81,99.864L97.878,101.364L97.947,102.591L98.015,101.023L98.084,100.909L98.152,100.114L98.22,98.773L98.289,97.886L98.357,100.136L98.426,101.932L98.494,101.864L98.563,101.136L98.631,100.386L98.7,99.023L98.768,97.409L98.836,99.909L98.905,101.841L98.973,101.682L99.042,101.341L99.11,100.727L99.179,99.705L99.247,99.477L99.316,101.023L99.384,102.318L99.452,102.045L99.521,101.705L99.589,101L99.658,99.136L99.726,96.682L99.795,98.455L99.863,100.455L99.932,100.477L100,100.045L100.068,100.795L100.137,98.795L100.205,97.614L100.274,99.614L100.342,101.682L100.411,101.909L100.479,101.364L100.548,100.455L100.616,98.932L100.684,98.477L100.753,100.977L100.821,103.341L100.89,103.273L100.958,103.295L101.027,102.955L101.095,101.318L101.164,99.591L101.232,100.932L101.3,102.386L101.369,102.636L101.437,102.318L101.506,101.432L101.574,99.455L101.643,98.205L101.711,100.545L101.78,103.318L101.848,103.25L101.916,102.864L101.985,102.023L102.053,100.523L102.122,99.591L102.19,101.455L102.259,103.591L102.327,103.273L102.396,102.227L102.464,101.295L102.533,99.773L102.601,98.136L102.669,99.864L102.738,101.318L102.806,100.909L102.875,101.068L102.943,100.318L103.012,99.25L103.08,98.273L103.149,100.341L103.217,103.136L103.285,103.977L103.354,104.75L103.422,104.795L103.491,105.341L103.559,106.523L103.628,109.614L103.696,111.886L103.765,112.409L103.833,112.932L103.901,113.295L103.97,114L104.038,115.432L104.107,117.977L104.175,120.409L104.244,121.091L104.312,121.614L104.381,122.659L104.449,123.932L104.517,125.114L104.586,127.818L104.651,130.591L104.72,131.773L104.788,132.659L104.857,133.682L104.925,133.955L104.994,135.364L105.062,137.386L105.131,139.545L105.199,140L105.268,140.295L105.336,140.5L105.404,140.5L105.473,140.773L105.541,141.273L105.61,141.682L105.678,141.455L105.747,141.5L105.815,141.341L105.884,141.045L105.952,141.227L106.02,141.318L106.089,141.045L106.157,141.023L106.226,141L106.294,140.705L106.363,139.818L106.431,139.318L106.5,139.455L106.568,139.523L106.636,139.545L106.705,139.591L106.773,139.432L106.842,139.136L106.91,138.75L106.979,138.705L107.047,138.773L107.116,138.5L107.184,138.068L107.252,137.227L107.321,135.932L107.389,135.409L107.458,135.045L107.526,135.091L107.595,134.886L107.663,134.318L107.732,133.477L107.8,132.795L107.868,131.5L107.937,130.705L108.005,130.341L108.074,129.909L108.142,129.818L108.211,129.091L108.279,127.591L108.348,126.682L108.416,127.455L108.484,127.932L108.553,127.932L108.621,127.773L108.69,127.545L108.758,127.023L108.827,125.432L108.895,125.182L108.964,125.091L109.032,124.432L109.101,123.614L109.169,121.909L109.237,119.341L109.306,117.545L109.374,117.955L109.443,117.614L109.511,117L109.58,115.977L109.648,114.659L109.717,112.773L109.785,111.364L109.853,111.068L109.922,111.364L109.99,110.795L110.059,109.25L110.127,105.841L110.196,101.568L110.264,98L110.333,97.614L110.401,97.455L110.469,96.114L110.538,93.795L110.606,91.25L110.675,87.341L110.743,83.545L110.812,82.75L110.88,83.25L110.949,82.023L111.017,79.182L111.085,78.568L111.154,74.773L111.222,69.205L111.291,69.114L111.359,69.841L111.428,68.705L111.496,65.318L111.565,62.023L111.633,56.568L111.701,52.205L111.77,52.864L111.838,53.295L111.907,53.114L111.975,52.023L112.044,49.045L112.112,45.795L112.181,44.727L112.249,47.977L112.317,51L112.386,51.568L112.454,51.25L112.523,49.705L112.591,46.682L112.66,45.818L112.728,49.023L112.797,52.659L112.865,52.705L112.933,51.386L113.002,50.5L113.07,48.136L113.139,45.068L113.207,48.568L113.276,54.795L113.344,56.864L113.413,57.205L113.481,56.227L113.55,55L113.618,56.295L113.686,61.364L113.755,65.886L113.823,66.023L113.892,65.523L113.96,62.545L114.029,59.75L114.097,59.614L114.166,63.864L114.234,67.977L114.302,67.977L114.371,67.591L114.439,66.182L114.508,63.295L114.576,60.614L114.645,63.818L114.713,65.614L114.782,65.591L114.85,64.614L114.918,62.795L114.987,59.727L115.055,57.136L115.124,59.409L115.192,62.591L115.261,62.455L115.329,62.432L115.398,58.977L115.466,52.955L115.534,49.795L115.603,53.477L115.671,54.205L115.74,53.409L115.808,51.75L115.877,49.409L115.945,45.477L116.014,43.045L116.082,46.523L116.15,50.023L116.219,47.477L116.287,44.545L116.356,41.295L116.424,35.955L116.493,31.432L116.561,34.636L116.63,39.386L116.698,39.136L116.766,37.455L116.835,33.955L116.903,27.205L116.972,23.682L117.04,26.864L117.109,30.727L117.177,32.591L117.246,31.477L117.314,28.273L117.383,22.432L117.451,21.159L117.519,27.25L117.588,32.341L117.656,32.068L117.725,31.977L117.793,32.659L117.862,30.75L117.93,29.25L117.999,33.909L118.067,38.955L118.135,38.114L118.204,36.591L118.272,36.386L118.341,34.409L118.409,36.25L118.478,41.682L118.546,47.5L118.615,47.614L118.683,47.864L118.751,48.477L118.82,47.477L118.888,49.045L118.957,56.932L119.025,63.432L119.094,64.568L119.162,64L119.231,62.932L119.299,60.932L119.367,60.023L119.436,66.023L119.504,69.955L119.573,70.409L119.641,70L119.71,70.341L119.778,69.75L119.847,69.205L119.915,73.932L119.983,79.091L120.052,80.091L120.12,81.045L120.189,81.205L120.257,79.886L120.326,81.591L120.394,86.795L120.463,89.159L120.531,89.909L120.599,90.409L120.668,90.25L120.736,89.273L120.805,89.523L120.873,93.568L120.945,96.045L121.013,96.045L121.081,95.341L121.15,95.705L121.218,96.136L121.287,97.682L121.355,101.773L121.424,107L121.492,107.545L121.561,108.886L121.629,108.273L121.697,107.136L121.766,106.523L121.834,109.045L121.903,111.136L121.971,111.114L122.04,111.227L122.108,111.659L122.177,111.5L122.245,112.318L122.313,116.159L122.382,118.114L122.45,118.205L122.519,118.205L122.587,118.886L122.656,118.727L122.724,119.477L122.793,120.795L122.861,121.977L122.93,121.636L122.998,121.477L123.066,120.773L123.135,120.773L123.203,121.045L123.272,122.273L123.34,123.136L123.409,123.5L123.477,123.091L123.546,123.023L123.614,122.25L123.682,123.159L123.751,125.318L123.819,127.409L123.888,127.568L123.956,126.932L124.025,126.432L124.093,125.341L124.162,124.318L124.23,124.795L124.298,125.795L124.367,125.864L124.435,125.659L124.504,125.364L124.572,124.5L124.641,123.591L124.709,123.955L124.778,124.477L124.846,124.545L124.914,124.591L124.983,124.932L125.051,124.545L125.12,124.818L125.188,125.818L125.257,126.25L125.325,126.477L125.394,126.409L125.462,125.75L125.53,125.205L125.599,125.159L125.667,126.341L125.736,126.864L125.804,127.114L125.873,127.227L125.941,126.386L126.01,126.182L126.078,125.227L126.146,125.841L126.215,126.545L126.283,126.705L126.352,126.932L126.42,126.659L126.489,125.591L126.557,124.795L126.626,126L126.694,126.705L126.762,126.659L126.831,125.75L126.899,124.932L126.968,123.364L127.036,122.205L127.105,122.932L127.173,123.364L127.242,122.932L127.31,122.545L127.379,121.614L127.447,120.432L127.515,119.068L127.584,119.795L127.652,119.114L127.721,118.023L127.789,116.841L127.858,114.591L127.926,112.659L127.995,112.091L128.063,112.841L128.131,114.159L128.2,113.818L128.268,113.705L128.337,113.045L128.405,110.295L128.474,108.25L128.542,108.795L128.611,109.25L128.679,108.932L128.747,107.864L128.816,106.318L128.884,103.75L128.953,102.545L129.021,103.75L129.09,104.841L129.158,104.705L129.227,104.227L129.295,104L129.363,102.136L129.432,100.364L129.5,100.864L129.569,101.636L129.637,100.955L129.706,100.523L129.774,99.295L129.843,96.864L129.911,97.227L129.979,99.136L130.045,99.818L130.114,99.023L130.182,98.432L130.25,98.045L130.319,94.568L130.387,91.636L130.456,93.273L130.524,94.295L130.593,94.364L130.661,94.295L130.73,92.159L130.798,89.659L130.866,88.114L130.935,90.636L131.003,91.545L131.072,90.25L131.14,88.977L131.209,87L131.277,82.864L131.346,78.432L131.414,79.682L131.482,81.114L131.551,79.432L131.619,78.795L131.688,76.568L131.756,74.227L131.825,74.295L131.893,77.045L131.962,78.409L132.03,76.955L132.098,75.523L132.167,73.205L132.235,68.091L132.304,64.386L132.372,67.182L132.441,69.159L132.509,68.318L132.578,67.182L132.646,64.227L132.714,60.25L132.783,57.114L132.851,59.364L132.92,61.545L132.988,61.068L133.057,60.114L133.125,60.295L133.194,59.682L133.262,59.5L133.33,61.136L133.399,63.841L133.467,63.114L133.536,62.818L133.604,62.159L133.673,58.5L133.741,55.659L133.81,58.818L133.878,60.455L133.946,60.545L134.015,59.318L134.083,57.023L134.152,52.341L134.22,48.909L134.289,53.409L134.357,56.568L134.426,55.341L134.494,53.636L134.563,51.386L134.631,47.523L134.699,45.636L134.768,48.455L134.836,52.932L134.905,52.386L134.973,50.318L135.042,47.5L135.11,43.432L135.179,40.023L135.247,41.045L135.315,42.795L135.384,45.227L135.452,46.727L135.521,47.227L135.589,43.773L135.658,43.023L135.726,47.114L135.795,52.818L135.863,53.023L135.931,52.955L136,51.955L136.068,50.523L136.137,49.045L136.205,55.273L136.274,60.841L136.342,60.909L136.411,61.273L136.479,61.318L136.547,61.227L136.616,61.591L136.684,66.841L136.753,71.75L136.821,72.591L136.89,71.955L136.958,70.523L137.027,68.636L137.095,68.023L137.163,72.886L137.232,76.864L137.3,76.795L137.369,76.705L137.437,74.364L137.506,69.705L137.574,65.864L137.643,69.795L137.711,72.568L137.779,72.591L137.848,71L137.916,68.409L137.985,63.909L138.053,62.273L138.122,64.295L138.19,68.886L138.259,68.932L138.327,68.432L138.396,67.045L138.464,64.523L138.532,61.932L138.601,64.023L138.669,66.591L138.738,66.955L138.806,66.386L138.875,64.909L138.943,63.023L139.012,64.932L139.08,69.727L139.148,73.545L139.217,74.045L139.285,73.818L139.354,73.455L139.422,68.955L139.491,66.932L139.559,71.364L139.628,74.932L139.696,75.636L139.764,74.932L139.833,71.705L139.901,67.114L139.97,64.182L140.038,65.977L140.107,67.432L140.175,67.227L140.244,65.659L140.312,62.386L140.38,56.477L140.449,52.818L140.517,55.727L140.586,59.091L140.654,59.068L140.723,58.091L140.791,55.909L140.86,50.864L140.928,48.568L140.996,50.773L141.065,51.295L141.133,50.409L141.202,50.136L141.27,46.932L141.339,39.386L141.407,32.227L141.476,35.795L141.544,39.432L141.612,38.091L141.681,36.909L141.749,32.159L141.818,25.75L141.886,23.864L141.955,29.205L142.023,34.159L142.092,35.205L142.16,34.386L142.228,32.182L142.297,27.977L142.365,26.182L142.434,32.364L142.502,37.023L142.571,36.045L142.639,35.318L142.708,33.273L142.776,28.318L142.845,26.432L142.913,31.727L142.981,35.273L143.05,34.773L143.118,32.432L143.187,29.455L143.255,22.568L143.324,21.295L143.392,28.795L143.461,36.886L143.529,37L143.597,36.205L143.666,35.659L143.734,30.659L143.803,27.568L143.871,34.136L143.94,39.568L144.008,39.864L144.077,39.545L144.145,39.182L144.213,37.182L144.282,35.477L144.35,40.932L144.419,45.409L144.487,45.045L144.556,44.023L144.624,42.727L144.693,39.636L144.761,39.341L144.829,45.841L144.898,49.568L144.966,49.432L145.035,48.955L145.103,47.159L145.172,45.409L145.24,45.159L145.309,52.682L145.377,57.227L145.445,57.523L145.514,56.364L145.582,56.886L145.651,56.432L145.719,56.045L145.788,62.795L145.856,70.182L145.925,70.841L145.993,70.136L146.061,68.364L146.13,64.977L146.198,63.841L146.267,67.523L146.338,72.045L146.407,72.114L146.475,71.909L146.543,70.864L146.612,68L146.68,67.159L146.749,71.591L146.817,74.227L146.886,73.727L146.954,72.886L147.023,70.5L147.091,67.523L147.159,67.25L147.228,71.955L147.296,76.136L147.365,75.568L147.433,75.659L147.502,76.045L147.57,76.955L147.639,76.773L147.707,79.091L147.775,81.886L147.844,81.955L147.912,81.545L147.981,80.727L148.049,79.295L148.118,79.727L148.186,84.045L148.255,87.523L148.323,88.091L148.392,87.636L148.46,87.091L148.528,86.25L148.597,85.477L148.665,90.5L148.734,94.25L148.802,94.432L148.871,93.955L148.939,93.568L149.008,92.25L149.076,93.159L149.144,97.5L149.213,100.773L149.281,99.773L149.35,99.75L149.418,98.977L149.487,95.477L149.555,91.727L149.624,91.773L149.692,92.182L149.76,91.727L149.829,91.25L149.897,90.25L149.966,89.455L150.034,89.273L150.103,91.727L150.171,93.023L150.24,92.659L150.308,91.705L150.376,89.75L150.445,87.523L150.513,85.545L150.582,87.409L150.65,90.636L150.719,90.545L150.787,89.568L150.856,88.182L150.924,84.455L150.992,81.773L151.061,84L151.129,85.477L151.198,84.545L151.266,83.795L151.335,83.455L151.403,81.045L151.472,79.886L151.54,83.068L151.608,86.705L151.677,86.614L151.745,86.432L151.814,85.455L151.882,82.614L151.951,80.932L152.019,82L152.088,83.318L152.156,82.886L152.225,83.114L152.293,81.955L152.361,79.227L152.43,77.523L152.498,79.659L152.567,82.341L152.635,82.136L152.704,81.455L152.772,79.682L152.841,76.841L152.909,74.75L152.977,78.773L153.046,81.477L153.114,80.727L153.183,78.818L153.251,76.25L153.32,71.568L153.388,67.841L153.457,69.159L153.525,71.068L153.593,71.659L153.662,71.114L153.73,69.5L153.799,65.091L153.867,62.273L153.936,65.159L154.004,68.273L154.073,68.205L154.141,67.591L154.209,66.591L154.278,62.114L154.346,59.864L154.415,63.227L154.483,66.977L154.552,67.477L154.62,67.114L154.689,64.818L154.757,60.636L154.825,58.705L154.894,61.955L154.96,64.864L155.028,63.864L155.096,63.614L155.165,62.886L155.233,61.477L155.302,61.591L155.37,67.068L155.439,72.045L155.507,71.659L155.576,71.523L155.644,68.205L155.712,63.909L155.781,60.705L155.849,65.045L155.918,68.886L155.986,68.682L156.055,67.386L156.123,65.455L156.192,59L156.26,55.659L156.328,59.636L156.397,62.591L156.465,62.386L156.534,57.136L156.602,53.818L156.671,51.705L156.739,51.818L156.808,55.932L156.876,58.523L156.944,57.75L157.013,55.409L157.081,53.455L157.15,48.75L157.218,43.977L157.287,47.045L157.355,49L157.424,47.591L157.492,45.364L157.56,44L157.629,38.864L157.697,37.341L157.766,41.341L157.834,45.705L157.903,45.5L157.971,44.045L158.04,42.682L158.108,39.659L158.176,36.909L158.245,41.25L158.313,45.523L158.382,46.091L158.45,46.045L158.519,43.227L158.587,42.659L158.656,39.455L158.724,41.091L158.792,43L158.861,42.614L158.929,42.273L158.998,40.705L159.066,36.273L159.135,33.455L159.203,38.545L159.272,44L159.34,42.795L159.409,42.409L159.477,41.136L159.545,37.455L159.614,33.727L159.682,38.295L159.751,40.886L159.819,41.205L159.888,40.477L159.956,37.091L160.025,32.773L160.093,29.136L160.161,32.795L160.23,37.136L160.298,39.227L160.367,39.136L160.435,37.523L160.504,35.932L160.572,35.068L160.641,38.705L160.709,44.955L160.777,45.977L160.846,45.773L160.914,44.591L160.983,42.295L161.051,39.205L161.12,46.364L161.188,52.568L161.257,53.25L161.325,53.795L161.393,52.955L161.462,51.227L161.53,48.705L161.599,54.864L161.667,61.068L161.736,62.818L161.804,64.818L161.873,63.545L161.941,62.636L162.009,63.705L162.078,69.432L162.146,74.455L162.215,74.455L162.283,74.614L162.352,74.068L162.42,71.591L162.489,69.023L162.557,71.477L162.625,75.318L162.694,77.068L162.762,76.841L162.831,75L162.899,71.75L162.968,70.977L163.036,74.432L163.105,80.364L163.173,80.682L163.242,80.5L163.31,78.568L163.378,74.591L163.447,71.5L163.515,74.25L163.584,79.364L163.652,78.364L163.721,76.932L163.789,72.932L163.858,68.705L163.926,66.909L163.994,69.068L164.063,71.75L164.131,71.659L164.2,71.045L164.268,69.159L164.337,65.705L164.405,61.977L164.474,64.523L164.542,68.932L164.61,67.727L164.679,66.364L164.747,64.114L164.816,60.682L164.884,57.523L164.953,60.114L165.021,63.136L165.09,63.295L165.158,60.773L165.226,58.341L165.295,52.477L165.363,50.045L165.432,54.25L165.5,59.659L165.569,59.364L165.637,57.477L165.706,54.5L165.774,48.955L165.842,47.591L165.911,51.409L165.979,54.614L166.048,54.114L166.116,53.045L166.185,51.159L166.253,45.886L166.322,41.955L166.39,44.841L166.458,49.205L166.527,48.727L166.595,47.432L166.664,45.5L166.732,40.455L166.801,39.568L166.869,42.727L166.938,47.75L167.006,48.591L167.074,47.182L167.143,43.75L167.211,40.409L167.28,37.5L167.348,42.227L167.417,46.068L167.485,45.568L167.554,44.705L167.622,43.295L167.691,38.591L167.759,36.636L167.827,43.523L167.896,48.205L167.964,48.25L168.033,47.182L168.101,44.568L168.17,39.977L168.238,37.545L168.307,43.159L168.375,49.114L168.443,48.841L168.512,47.523L168.58,44.205L168.649,38.045L168.717,32.773L168.786,36.545L168.854,39.136L168.923,39.545L168.991,38.114L169.059,35.432L169.128,29.909L169.196,28.545L169.265,33.727L169.333,38.591L169.402,39.932L169.47,39L169.539,38.045L169.607,34.5L169.675,33.045L169.744,39.727L169.812,45.159L169.881,44.591L169.949,43.75L170.018,42.182L170.086,38.75L170.155,38.886L170.223,44.614L170.291,49.364L170.36,49L170.428,48.273L170.497,48.432L170.565,47.136L170.634,47.886L170.702,55.295L170.771,63.364L170.839,65.773L170.907,65.705L170.976,63.977L171.044,61.182L171.113,61.205L171.181,67.705L171.253,72.523L171.321,73.023L171.389,72.636L171.458,70.659L171.526,68.091L171.595,65.977L171.663,70.159L171.732,73.341L171.8,72.818L171.869,72.227L171.937,70.909L172.005,67.227L172.074,64.932L172.142,69.75L172.211,72.659L172.279,72.023L172.348,71.205L172.416,70.955L172.485,70.705L172.553,70.432L172.621,73.341L172.69,76.659L172.758,76.045L172.827,75.477L172.895,73.432L172.964,72.091L173.032,71.636L173.101,75.455L173.169,78.364L173.238,78.545L173.306,78.091L173.374,76.614L173.443,74.25L173.511,74.25L173.58,78.364L173.648,82L173.717,82.591L173.785,82.705L173.854,80.864L173.922,76.841L173.99,75.818L174.059,79.705L174.127,83.818L174.196,83.932L174.264,83.818L174.333,81.386L174.401,78.295L174.47,76.386L174.538,77.705L174.606,78.523L174.675,78.614L174.743,78.25L174.812,76.295L174.88,73.159L174.949,71.341L175.017,73.182L175.086,75.955L175.154,76L175.222,75.659L175.291,74.75L175.359,72.591L175.428,70.614L175.496,73.295L175.565,74.818L175.633,74.182L175.702,73.682L175.77,71.477L175.838,67.295L175.907,66.364L175.975,70.432L176.044,73.114L176.112,73.523L176.181,72.614L176.249,71.386L176.318,68.068L176.386,67.045L176.454,70.364L176.523,73.705L176.591,73.659L176.66,73.818L176.728,72.091L176.797,69.364L176.865,67.023L176.934,70.227L177.002,74.409L177.07,74.841L177.139,74.114L177.207,72.705L177.276,70.341L177.344,67.682L177.413,69.818L177.481,73.068L177.55,73.477L177.618,73.091L177.687,71.932L177.755,69.091L177.823,68.614L177.892,73.227L177.96,76.932L178.029,77.409L178.097,76.023L178.166,73.432L178.234,69.023L178.303,66.386L178.371,69.682L178.439,73.364L178.508,73.023L178.576,71.795L178.645,70.045L178.713,65.409L178.782,62.591L178.85,65.341L178.919,69.591L178.987,69.568L179.055,68.591L179.124,67.318L179.192,63.659L179.261,62.386L179.329,64.705L179.398,67.318L179.466,67.659L179.535,65.636L179.603,63.932L179.671,60.705L179.74,59.318L179.808,62.659L179.874,64.886L179.942,62.795L180.011,59.068L180.079,55.455L180.148,48.455L180.216,45.091L180.285,49.295L180.353,53.114L180.422,52.727L180.49,50.523L180.558,46.977L180.627,42.409L180.695,38.773L180.764,42.477L180.832,46.114L180.901,45.909L180.969,45.136L181.038,43.886L181.106,41.227L181.174,37.682L181.243,41.25L181.311,43.955L181.38,43.136L181.448,43.045L181.517,37.909L181.585,33.432L181.654,28.727L181.722,31.477L181.79,33.705L181.859,32.636L181.927,31L181.996,30.318L182.064,27.955L182.133,26.432L182.201,33.818L182.27,39.432L182.338,39.932L182.406,38.705L182.475,36.591L182.543,34.227L182.612,30.568L182.68,34.795L182.749,39.795L182.817,40.432L182.886,39.477L182.954,36.591L183.022,31L183.091,26.955L183.159,27.886L183.228,32.409L183.296,32.455L183.365,30.795L183.433,28.955L183.502,25.295L183.57,25.841L183.638,31.205L183.707,37.386L183.775,38.659L183.844,38.614L183.912,37.227L183.981,31.636L184.049,25.023L184.118,30.091L184.186,34.432L184.255,35.136L184.323,33.25L184.391,30.932L184.46,26.545L184.528,23.114L184.597,27.477L184.665,34.636L184.734,33.614L184.802,32.818L184.871,30.386L184.939,27.205L185.007,24.159L185.076,30.227L185.144,34.864L185.213,36.75L185.281,36.023L185.35,34.75L185.418,31.455L185.487,30.864L185.555,34.955L185.623,38.068L185.692,39.023L185.76,39.295L185.829,38.136L185.897,36.159L185.966,36.023L186.034,43.5L186.103,53.273L186.171,53.864L186.239,53.932L186.308,53.068L186.376,51.614L186.445,51.545L186.513,57L186.582,63.273L186.65,63.955L186.719,63.523L186.787,63.977L186.855,60.75L186.924,58.841L186.992,62.75L187.061,69.25L187.129,69.977L187.198,70.932L187.266,70.227L187.335,68.409L187.403,65.455L187.471,70.341L187.54,73.773L187.608,73.432L187.677,74.386L187.745,72.25L187.814,67.659L187.882,65.182L187.951,67.886L188.019,70.75L188.087,70.045L188.156,69.318L188.224,66.114L188.293,62L188.361,59.545L188.43,63.205L188.498,66.795L188.567,66.773L188.635,65.159L188.704,62.909L188.772,58.5L188.84,55.227L188.909,59.114L188.977,63.318L189.046,63.818L189.114,63.341L189.183,60.932L189.251,56.841L189.32,54.136L189.388,56.091L189.456,60.682L189.525,60.182L189.593,58.75L189.662,56.705L189.73,51.523L189.799,48.159L189.867,50.545L189.936,53.977L190.004,54.045L190.072,53.614L190.141,52.5L190.209,47.955L190.278,45.841L190.346,50.545L190.415,54.227L190.483,52.75L190.552,50.75L190.62,46.705L190.688,40.182L190.757,35.432L190.825,40.318L190.894,44.477L190.962,43.409L191.031,42L191.099,39.364L191.168,34.773L191.236,33.614L191.304,37.636L191.373,41.75L191.441,41.841L191.51,40.591L191.578,40.068L191.647,35.068L191.715,31.205L191.784,35.841L191.852,40.614L191.92,42.045L191.989,41.159L192.057,38.682L192.126,34.886L192.194,29.75L192.263,33.886L192.331,39.023L192.4,37.955L192.468,36.341L192.537,34.636L192.605,30.364L192.673,29.545L192.742,36.727L192.81,42.886L192.879,42.159L192.947,40.341L193.016,39.364L193.084,36.295L193.153,35.205L193.221,39.477L193.289,42.409L193.358,41.705L193.426,38.636L193.495,34.432L193.563,22.841L193.632,15L193.7,21.159L193.769,25.75L193.837,24.705L193.905,24.864L193.974,22.773L194.042,17.114L194.111,12.114L194.179,15.636L194.248,21.068L194.316,18.545L194.385,17.545L194.453,15.409L194.521,11.568L194.59,9.886L194.658,15.295L194.727,20.136L194.795,20.25L194.864,19.318L194.932,17.5L195.001,14.955L195.069,11.636L195.137,16.205L195.206,20.841L195.274,21.136L195.343,20.273L195.411,20.477L195.48,19L195.548,20.75L195.617,33.955L195.685,43.159L195.753,42.136L195.822,43.432L195.89,42.773L195.959,37.886L196.027,35.477L196.096,38.727L196.167,46.159L196.235,44.841L196.304,43.955L196.372,44.114L196.441,39.045L196.509,36.932L196.578,40.455L196.646,42.477L196.715,41.068L196.783,39.75L196.851,37.318L196.92,32.5L196.988,30.455L197.057,34.659L197.125,39.977L197.194,40.045L197.262,38.932L197.331,37.75L197.399,36.091L197.467,35.023L197.536,39.023L197.604,41.591L197.673,41.091L197.741,39.909L197.81,37.818L197.878,34.545L197.947,33.432L198.015,35.523L198.084,40.727L198.152,43.864L198.22,43.477L198.289,44.364L198.357,42.864L198.426,43.977L198.494,49.909L198.563,55.068L198.631,56.977L198.7,59.545L198.768,59.295L198.836,58.114L198.905,57.591L198.973,63.545L199.042,68.977L199.11,69.795L199.179,69L199.247,67.841L199.316,66.523L199.384,65.841L199.452,68.818L199.521,70.727L199.589,70.659L199.658,69.909L199.726,67.705L199.795,64.955L199.863,64.818L199.932,67.682L200,71.705L200.068,75.068L200.137,73.818L200.205,72.841L200.274,69.477L200.342,66.409L200.411,69.614L200.479,71.591L200.548,71.477L200.616,71.205L200.684,69.318L200.753,63.182L200.821,60.818L200.89,62.909L200.958,66.205L201.027,66.25L201.095,65.159L201.164,63.636L201.232,60.614L201.3,58.182L201.369,59.205L201.437,61.682L201.506,61.136L201.574,60.455L201.643,59.409L201.711,56.705L201.78,55.523L201.848,58.727L201.916,62.864L201.985,64.182L202.053,63.75L202.122,61.636L202.19,58.182L202.259,54.114L202.327,58.591" stroke="#4c78a8" stroke-width="2"/></g><g class="mark-group role-title"><g transform="translate(100,-17)"><path class="background" aria-hidden="true" d="M0,0h0v0h0Z" pointer-events="none"/><g><g class="mark-text role-title-text" role="graphics-symbol" aria-roledescription="title" aria-label="Title text 'Noise - Commercial: Loud Music/Party'" pointer-events="none"><text text-anchor="middle" transform="translate(0,10)" font-family="sans-serif" font-size="13px" font-weight="bold" fill="#000" opacity="1">Noise - Commercial: Loud Music/Party</text></g></g><path class="foreground" aria-hidden="true" d="" pointer-events="none" display="none"/></g></g></g><path class="foreground" aria-hidden="true" d="" display="none"/></g></g></g><defs><clipPath id="clip125"><rect x="0" y="0" width="200" height="150"/></clipPath></defs></svg>