<svg xmlns="http://www.w3.org/2000/svg" xmlns:xlink="http://www.w3.org/1999/xlink" version="1.1" class="marks" width="230" height="194" viewBox="0 0 230 194"><rect width="230" height="194" fill="white"/><g fill="none" stroke-miterlimit="10" transform="translate(24,22)"><g class="mark-group role-frame root" role="graphics-object" aria-roledescription="group mark container"><g transform="translate(0,0)"><path class="background" aria-hidden="true" d="M0,0h200v150h-200Z"/><g><g class="mark-group role-axis" aria-hidden="true"><g transform="translate(0.5,0.5)"><path class="background" aria-hidden="true" d="M0,0h0v0h0Z" pointer-events="none"/><g><g class="mark-rule role-axis-grid" pointer-events="none"><line transform="translate(0,150)" x2="200" y2="0" stroke="#ddd" stroke-width="1" opacity="1"/><line transform="translate(0,116)" x2="200" y2="0" stroke="#ddd" stroke-width="1" opacity="1"/><line transform="translate(0,82)" x2="200" y2="0" stroke="#ddd" stroke-width="1" opacity="1"/><line transform="translate(0,48)" x2="200" y2="0" stroke="#ddd" stroke-width="1" opacity="1"/><line transform="translate(0,14)" x2="200" y2="0" stroke="#ddd" stroke-width="1" opacity="1"/></g></g><path class="foreground" aria-hidden="true" d="" pointer-events="none" display="none"/></g></g><g class="mark-group role-axis" role="graphics-symbol" aria-roledescription="axis" aria-label="X-axis for a time scale with values from Friday, 01 January 2016, 12:00:00 AM to Monday, 01 January 2024, 12:00:00 AM"><g transform="translate(0.5,150.5)"><path class="background" aria-hidden="true" d="M0,0h0v0h0Z" pointer-events="none"/><g><g class="mark-rule role-axis-tick" pointer-events="none"><line transform="translate(0,0)" x2="0" y2="5" stroke="#888" stroke-width="1" opacity="1"/><line transform="translate(50,0)" x2="0" y2="5" stroke="#888" stroke-width="1" opacity="1"/><line transform="translate(100,0)" x2="0" y2="5" stroke="#888" stroke-width="1" opacity="1"/><line transform="translate(150,0)" x2="0" y2="5" stroke="#888" stroke-width="1" opacity="1"/><line transform="translate(200,0)" x2="0" y2="5" stroke="#888" stroke-width="1" opacity="1"/></g><g class="mark-text role-axis-label" pointer-events="none"><text text-anchor="start" transform="translate(0,15)" font-family="sans-serif" font-size="10px" fill="#000" opacity="1">2016</text><text text-anchor="middle" transform="translate(50.03422313483915,15)" font-family="sans-serif" font-size="10px" fill="#000" opacity="1">2018</text><text text-anchor="middle" transform="translate(100,15)" font-family="sans-serif" font-size="10px" fill="#000" opacity="1">2020</text><text text-anchor="middle" transform="translate(150.03422313483915,15)" font-family="sans-serif" font-size="10px" fill="#000" opacity="1">2022</text><text text-anchor="end" transform="translate(200,15)" font-family="sans-serif" font-size="10px" fill="#000" opacity="1">2024</text></g><g class="mark-rule role-axis-domain" pointer-events="none"><line transform="translate(0,0)" x2="200" y2="0" stroke="#888" stroke-width="1" opacity="1"/></g></g><path class="foreground" aria-hidden="true" d="" pointer-events="none" display="none"/></g></g><g class="mark-group role-axis" role="graphics-symbol" aria-roledescription="axis" aria-label="Y-axis for a linear scale with values from 0 to 22"><g transform="translate(0.5,0.5)"><path class="background" aria-hidden="true" d="M0,0h0v0h0Z" pointer-events="none"/><g><g class="mark-rule role-axis-tick" pointer-events="none"><line transform="translate(0,150)" x2="-5" y2="0" stroke="#888" stroke-opacity="0" stroke-width="1" opacity="1"/><line transform="translate(0,116)" x2="-5" y2="0" stroke="#888" stroke-opacity="0" stroke-width="1" opacity="1"/><line transform="translate(0,82)" x2="-5" y2="0" stroke="#888" stroke-opacity="0" stroke-width="1" opacity="1"/><line transform="translate(0,48)" x2="-5" y2="0" stroke="#888" stroke-opacity="0" stroke-width="1" opacity="1"/><line transform="translate(0,14)" x2="-5" y2="0" stroke="#888" stroke-opacity="0" stroke-width="1" opacity="1"/></g><g class="mark-text role-axis-label" pointer-events="none"><text text-anchor="end" transform="translate(-7,153)" font-family="sans-serif" font-size="10px" fill="#000" opacity="1">0</text><text text-anchor="end" transform="translate(-7,118.9090909090909)" font-family="sans-serif" font-size="10px" fill="#000" opacity="1">5</text><text text-anchor="end" transform="translate(-7,84.81818181818181)" font-family="sans-serif" font-size="10px" fill="#000" opacity="1">10</text><text text-anchor="end" transform="translate(-7,50.727272727272734)" font-family="sans-serif" font-size="10px" fill="#000" opacity="1">15</text><text text-anchor="end" transform="translate(-7,16.63636363636364)" font-family="sans-serif" font-size="10px" fill="#000" opacity="1">20</text></g></g><path class="foreground" aria-hidden="true" d="" pointer-events="none" display="none"/></g></g><g class="mark-line role-mark marks" clip-path="url(#clip140)" role="graphics-object" aria-roledescription="line mark container"><path aria-label="day: Jan 01, 2010; avg: 8.1" role="graphics-symbol" aria-roledescription="line mark" d="M-149.966,94.773L-149.897,92.727L-149.829,91.591L-149.76,91.591L-149.692,93.182L-149.624,94.545L-149.555,94.091L-149.487,95.455L-149.418,95.227L-149.35,94.545L-149.281,95.227L-149.213,95L-149.144,94.773L-149.076,94.545L-149.008,94.773L-148.871,96.364L-148.802,93.636L-148.734,91.136L-148.665,90.227L-148.597,87.955L-148.528,87.955L-148.46,89.773L-148.392,88.409L-148.323,87.727L-148.255,87.727L-148.186,89.773L-148.118,90.455L-148.049,92.727L-147.981,92.727L-147.912,91.136L-147.844,89.545L-147.775,89.773L-147.707,90.227L-147.639,90.227L-147.57,90.682L-147.502,91.364L-147.433,90.909L-147.365,88.864L-147.296,89.091L-147.228,89.773L-147.159,87.273L-147.091,87.727L-147.023,89.773L-146.954,88.636L-146.886,88.409L-146.817,87.727L-146.749,90.455L-146.68,92.727L-146.612,93.864L-146.543,95.455L-146.475,95.227L-146.407,93.409L-146.338,93.636L-146.27,93.864L-146.201,92.955L-146.133,92.273L-146.064,92.273L-145.996,91.136L-145.927,90.227L-145.859,90.455L-145.791,90.455L-145.722,90.455L-145.654,90.909L-145.585,91.818L-145.517,90.682L-145.448,88.864L-145.38,88.864L-145.311,90.227L-145.243,90.682L-145.175,90.227L-145.106,92.955L-145.038,93.409L-144.972,90.909L-144.904,91.591L-144.835,89.545L-144.767,90.909L-144.698,90.909L-144.63,91.364L-144.561,90.909L-144.493,90.909L-144.424,91.136L-144.356,92.5L-144.288,92.955L-144.219,93.636L-144.151,97.273L-144.082,94.773L-144.014,93.182L-143.945,92.727L-143.877,92.5L-143.808,94.091L-143.74,95L-143.672,96.364L-143.603,94.318L-143.535,92.727L-143.466,92.727L-143.398,92.955L-143.329,93.636L-143.261,93.864L-143.192,95L-143.124,94.091L-143.056,92.045L-142.987,91.364L-142.919,93.409L-142.85,92.955L-142.782,93.864L-142.713,92.045L-142.645,91.364L-142.576,90.909L-142.508,89.318L-142.44,88.409L-142.371,87.955L-142.303,87.273L-142.234,87.955L-142.166,85.227L-142.097,82.045L-142.029,83.636L-141.96,85.682L-141.892,85.227L-141.824,85.909L-141.755,86.591L-141.687,86.136L-141.618,84.091L-141.55,82.955L-141.481,83.864L-141.413,84.091L-141.344,84.773L-141.276,85.909L-141.208,85L-141.139,82.727L-141.071,82.727L-141.002,83.409L-140.934,82.955L-140.865,83.182L-140.797,84.773L-140.728,84.545L-140.66,82.273L-140.591,82.5L-140.523,81.364L-140.455,82.5L-140.386,82.5L-140.318,84.091L-140.249,81.591L-140.181,81.364L-140.112,82.5L-140.044,84.091L-139.975,83.182L-139.907,82.955L-139.839,84.091L-139.77,83.636L-139.702,82.045L-139.633,79.773L-139.565,81.136L-139.496,82.955L-139.428,81.818L-139.359,83.636L-139.291,84.545L-139.223,81.818L-139.154,81.364L-139.086,81.818L-139.017,81.364L-138.949,79.318L-138.88,80L-138.812,76.364L-138.743,74.773L-138.675,74.545L-138.607,74.773L-138.538,73.182L-138.47,74.318L-138.401,75L-138.333,72.5L-138.264,67.955L-138.196,69.773L-138.127,69.091L-138.059,68.182L-137.991,67.727L-137.922,69.773L-137.854,67.5L-137.785,65.682L-137.717,66.591L-137.648,67.045L-137.58,69.091L-137.511,70.227L-137.443,70.455L-137.375,68.864L-137.306,65.227L-137.238,63.864L-137.169,65.455L-137.101,65.227L-137.032,66.591L-136.964,68.409L-136.895,68.182L-136.827,63.636L-136.758,66.136L-136.69,65.909L-136.622,65L-136.553,67.045L-136.485,68.409L-136.416,65.909L-136.348,65.682L-136.279,67.5L-136.211,69.318L-136.142,68.636L-136.074,69.773L-136.006,71.591L-135.937,70.455L-135.869,67.273L-135.8,68.182L-135.732,68.864L-135.663,66.818L-135.595,65.455L-135.526,66.364L-135.458,61.591L-135.39,60.682L-135.321,63.182L-135.253,64.545L-135.184,63.864L-135.116,64.318L-135.047,66.136L-134.979,66.136L-134.91,63.409L-134.842,64.773L-134.774,66.818L-134.705,68.182L-134.637,70.227L-134.568,72.5L-134.5,70.909L-134.431,69.773L-134.363,70.909L-134.294,70.682L-134.226,71.364L-134.158,72.273L-134.089,74.091L-134.021,70.682L-133.952,68.864L-133.884,68.409L-133.815,70.455L-133.747,70.455L-133.678,71.364L-133.61,74.091L-133.542,73.409L-133.473,69.318L-133.405,70.455L-133.336,71.591L-133.268,70L-133.199,72.045L-133.131,73.409L-133.062,70.682L-132.994,69.091L-132.926,67.727L-132.857,67.955L-132.789,68.182L-132.72,69.773L-132.652,69.091L-132.583,67.5L-132.515,64.545L-132.446,64.091L-132.378,62.955L-132.309,63.864L-132.241,64.545L-132.173,65.682L-132.104,64.091L-132.036,60.909L-131.967,62.273L-131.899,61.818L-131.83,62.727L-131.762,62.955L-131.693,65.227L-131.625,63.864L-131.557,61.136L-131.488,63.409L-131.42,65.227L-131.351,65.227L-131.283,63.409L-131.214,65L-131.146,62.727L-131.077,61.136L-131.009,62.955L-130.941,62.5L-130.872,62.045L-130.804,63.864L-130.735,63.182L-130.667,62.5L-130.598,61.364L-130.53,61.591L-130.461,62.955L-130.393,64.318L-130.325,67.5L-130.256,67.5L-130.188,64.545L-130.119,62.955L-130.051,63.636L-129.982,65.227L-129.914,64.545L-129.845,66.591L-129.777,68.636L-129.709,66.818L-129.64,65.227L-129.572,66.364L-129.503,69.773L-129.435,70.455L-129.366,70.682L-129.298,72.5L-129.229,70.682L-129.161,68.182L-129.093,68.636L-129.024,67.5L-128.956,65.455L-128.887,66.136L-128.819,67.727L-128.75,66.591L-128.679,64.091L-128.611,63.182L-128.542,62.045L-128.474,60.682L-128.405,62.045L-128.337,63.182L-128.268,60.455L-128.2,58.864L-128.131,61.136L-128.063,61.591L-127.995,62.955L-127.926,65.455L-127.858,67.727L-127.789,66.818L-127.721,65.455L-127.652,68.182L-127.584,69.545L-127.515,70.909L-127.447,70.227L-127.379,70.909L-127.31,72.727L-127.242,72.045L-127.173,74.545L-127.105,77.045L-127.036,78.864L-126.968,82.045L-126.899,82.5L-126.831,82.955L-126.762,82.273L-126.694,82.727L-126.626,86.364L-126.557,88.864L-126.489,91.818L-126.42,92.273L-126.352,90.455L-126.283,90.455L-126.215,91.818L-126.146,93.636L-126.078,95.227L-126.01,95.909L-125.941,96.364L-125.873,94.545L-125.804,92.727L-125.736,92.955L-125.667,93.182L-125.599,92.727L-125.53,92.5L-125.394,88.409L-125.325,86.136L-125.257,83.864L-125.188,82.727L-125.12,84.091L-125.051,86.364L-124.983,85.909L-124.914,84.773L-124.846,83.864L-124.778,85.909L-124.709,83.636L-124.641,84.318L-124.572,85.227L-124.504,86.136L-124.435,83.409L-124.367,82.727L-124.298,83.409L-124.23,84.091L-124.162,83.409L-124.093,84.773L-124.025,84.545L-123.956,83.409L-123.888,83.864L-123.819,83.409L-123.751,84.091L-123.682,86.136L-123.614,86.591L-123.546,86.136L-123.477,85.455L-123.409,84.545L-123.34,86.818L-123.272,89.091L-123.203,89.545L-123.135,90L-123.066,90.909L-122.998,89.545L-122.93,87.045L-122.861,85.909L-122.793,85.682L-122.724,85L-122.656,87.955L-122.587,88.409L-122.519,87.727L-122.45,86.818L-122.382,89.773L-122.313,88.409L-122.245,88.182L-122.177,89.545L-122.108,90.227L-122.04,86.591L-121.971,85.909L-121.903,85.455L-121.834,84.091L-121.766,83.864L-121.697,84.545L-121.629,84.773L-121.561,85L-121.492,82.955L-121.424,84.318L-121.355,84.091L-121.287,85L-121.218,84.318L-121.15,84.318L-121.081,82.955L-121.013,81.364L-120.945,80.909L-120.876,84.091L-120.808,85.455L-120.739,85.227L-120.671,86.591L-120.602,85.909L-120.534,83.409L-120.465,82.727L-120.397,82.955L-120.329,81.818L-120.26,83.636L-120.192,85L-120.123,82.955L-120.058,82.273L-119.989,85L-119.921,84.091L-119.852,83.409L-119.784,84.773L-119.715,85.909L-119.647,84.318L-119.578,82.955L-119.51,82.955L-119.442,85.682L-119.373,84.091L-119.305,85.455L-119.236,85.909L-119.168,85.227L-119.099,84.773L-119.031,86.364L-118.962,85.909L-118.894,85.909L-118.826,85L-118.757,85.455L-118.689,84.545L-118.62,83.864L-118.552,83.864L-118.483,84.318L-118.415,84.318L-118.346,84.773L-118.278,85.227L-118.21,82.727L-118.141,80L-118.073,80L-118.004,81.364L-117.936,80L-117.867,82.045L-117.799,82.045L-117.73,79.545L-117.662,78.636L-117.594,78.636L-117.525,78.409L-117.457,77.955L-117.388,78.864L-117.32,80.227L-117.251,77.5L-117.183,75.227L-117.114,75L-117.046,73.864L-116.978,72.955L-116.909,74.318L-116.841,75.682L-116.772,77.045L-116.704,74.545L-116.635,74.773L-116.567,74.545L-116.498,74.318L-116.43,74.091L-116.362,75.909L-116.293,75.682L-116.225,75L-116.156,75.682L-116.088,77.955L-116.019,79.091L-115.951,78.636L-115.882,81.136L-115.814,78.182L-115.745,78.409L-115.677,78.636L-115.609,79.545L-115.54,80L-115.472,81.591L-115.403,83.182L-115.335,80.455L-115.266,77.955L-115.198,79.318L-115.129,80.227L-115.061,79.091L-114.993,81.591L-114.924,82.727L-114.856,82.045L-114.787,80.227L-114.719,79.318L-114.65,80.682L-114.582,82.727L-114.513,82.727L-114.445,84.773L-114.377,86.818L-114.308,84.773L-114.24,84.091L-114.171,83.182L-114.103,83.864L-114.034,84.318L-113.966,84.545L-113.897,84.318L-113.829,80.455L-113.761,82.727L-113.692,82.045L-113.624,82.5L-113.555,82.727L-113.487,83.636L-113.418,81.818L-113.35,79.318L-113.281,81.136L-113.213,82.5L-113.145,82.727L-113.076,83.864L-113.008,86.591L-112.939,84.545L-112.871,82.273L-112.802,82.045L-112.734,81.591L-112.665,82.045L-112.597,84.091L-112.529,84.545L-112.46,83.636L-112.392,80L-112.323,79.091L-112.255,78.864L-112.186,79.091L-112.118,79.773L-112.049,80.909L-111.981,78.864L-111.913,76.818L-111.844,75.909L-111.776,78.409L-111.707,77.273L-111.639,78.864L-111.57,80.682L-111.502,78.636L-111.433,75.227L-111.365,75.455L-111.296,76.818L-111.228,74.091L-111.16,74.318L-111.091,75.682L-111.023,73.409L-110.954,70.682L-110.886,70.682L-110.817,71.136L-110.749,72.955L-110.68,75.455L-110.612,76.136L-110.544,74.318L-110.475,72.273L-110.407,70.455L-110.338,70.909L-110.27,70.909L-110.201,73.409L-110.133,74.091L-110.064,75.909L-109.996,74.318L-109.928,74.545L-109.859,75.909L-109.791,76.364L-109.722,75.227L-109.654,76.364L-109.585,75.227L-109.517,72.045L-109.448,71.818L-109.38,73.409L-109.312,72.955L-109.243,72.273L-109.175,75.227L-109.106,72.955L-109.038,70L-108.969,71.818L-108.901,71.136L-108.832,71.591L-108.764,73.182L-108.696,71.136L-108.627,68.864L-108.559,65.909L-108.49,64.773L-108.422,65L-108.353,65.682L-108.285,66.591L-108.216,66.591L-108.148,63.409L-108.08,60L-108.011,58.182L-107.943,57.727L-107.874,59.318L-107.806,59.545L-107.737,59.091L-107.669,60L-107.6,56.818L-107.532,55L-107.463,57.273L-107.395,57.727L-107.327,59.318L-107.258,60.227L-107.19,59.545L-107.121,59.091L-107.053,58.636L-106.984,58.864L-106.916,57.955L-106.847,60.455L-106.779,61.818L-106.711,59.545L-106.642,58.636L-106.574,58.409L-106.505,58.636L-106.437,60L-106.368,61.136L-106.3,64.318L-106.231,63.864L-106.163,62.727L-106.095,63.409L-106.026,65L-105.958,65L-105.889,66.818L-105.821,66.591L-105.752,64.545L-105.684,64.091L-105.615,64.091L-105.547,68.409L-105.479,71.591L-105.41,72.045L-105.342,73.636L-105.273,71.591L-105.205,71.136L-105.136,72.727L-105.068,72.045L-104.999,74.773L-104.931,76.818L-104.863,75.909L-104.794,72.045L-104.726,71.136L-104.657,72.045L-104.589,75L-104.52,77.045L-104.452,78.864L-104.383,79.545L-104.315,76.818L-104.247,75.227L-104.178,75.455L-104.11,75L-104.041,76.818L-103.973,78.636L-103.904,78.409L-103.836,76.591L-103.765,75L-103.696,76.591L-103.628,77.727L-103.559,77.045L-103.491,75.909L-103.422,75L-103.354,74.773L-103.285,75.455L-103.217,77.273L-103.149,77.727L-103.08,75.682L-103.012,76.818L-102.943,77.273L-102.875,75.682L-102.806,77.273L-102.738,80.455L-102.669,80L-102.601,80.455L-102.533,80.227L-102.464,81.136L-102.396,81.136L-102.327,80.682L-102.259,81.364L-102.19,82.273L-102.122,82.5L-102.053,85.682L-101.985,85.682L-101.916,83.409L-101.848,82.727L-101.78,82.955L-101.711,85L-101.643,84.318L-101.574,84.091L-101.506,86.136L-101.437,85.227L-101.369,85.227L-101.3,83.182L-101.232,81.364L-101.164,80L-101.095,81.136L-101.027,84.545L-100.958,84.545L-100.89,83.409L-100.821,83.864L-100.753,82.955L-100.684,83.864L-100.616,85.227L-100.548,86.818L-100.479,84.091L-100.411,81.364L-100.342,79.545L-100.274,79.318L-100.205,80L-100.137,80L-100.068,80.682L-100,78.636L-99.932,77.727L-99.863,78.182L-99.795,78.864L-99.726,80L-99.658,79.773L-99.589,82.045L-99.521,82.273L-99.452,80.909L-99.384,80.909L-99.316,79.318L-99.247,79.091L-99.179,81.136L-99.11,81.591L-99.042,80L-98.973,77.045L-98.905,74.318L-98.836,74.545L-98.768,75.227L-98.7,76.591L-98.631,77.5L-98.563,77.955L-98.494,76.136L-98.426,77.5L-98.357,78.864L-98.289,80L-98.22,81.364L-98.152,82.955L-98.084,80.227L-98.015,77.955L-97.947,77.273L-97.878,77.727L-97.81,79.318L-97.741,80.909L-97.673,81.591L-97.604,81.136L-97.536,80.455L-97.467,79.545L-97.399,79.091L-97.331,80.909L-97.262,84.091L-97.194,86.818L-97.125,84.545L-97.057,85.909L-96.988,86.364L-96.92,86.818L-96.851,90L-96.783,90.909L-96.715,90.682L-96.646,88.864L-96.578,86.364L-96.509,84.091L-96.441,83.409L-96.372,81.136L-96.304,80.909L-96.235,80.455L-96.167,77.955L-96.099,77.727L-96.03,80L-95.962,81.591L-95.893,83.409L-95.825,83.636L-95.756,83.636L-95.688,81.591L-95.619,81.136L-95.551,80L-95.483,78.636L-95.414,80.682L-95.346,81.818L-95.277,82.273L-95.209,80.455L-95.143,79.545L-95.075,79.773L-95.006,77.727L-94.938,77.5L-94.869,78.182L-94.801,77.045L-94.732,75.909L-94.664,76.136L-94.596,78.182L-94.527,77.955L-94.459,79.318L-94.39,80.909L-94.322,83.864L-94.253,82.727L-94.185,82.955L-94.116,82.727L-94.048,81.591L-93.98,79.545L-93.911,81.136L-93.843,80.227L-93.774,79.091L-93.706,78.636L-93.637,78.409L-93.569,77.5L-93.5,77.955L-93.432,79.773L-93.364,79.773L-93.295,77.5L-93.227,76.591L-93.158,76.591L-93.09,76.591L-93.021,76.591L-92.953,77.5L-92.884,79.318L-92.816,78.409L-92.748,77.955L-92.679,80.227L-92.611,79.091L-92.542,77.727L-92.474,80.455L-92.405,80.682L-92.337,79.545L-92.268,77.955L-92.2,78.636L-92.132,78.409L-92.063,78.636L-91.995,80.227L-91.926,82.5L-91.858,82.273L-91.789,81.136L-91.721,80.227L-91.652,78.864L-91.584,79.545L-91.516,80.682L-91.447,78.182L-91.379,75.227L-91.31,72.5L-91.242,73.636L-91.173,72.273L-91.105,74.091L-91.036,75.227L-90.968,74.773L-90.899,75.455L-90.831,73.182L-90.763,71.818L-90.694,72.045L-90.626,70.682L-90.557,71.136L-90.489,70L-90.42,67.727L-90.352,66.591L-90.283,67.045L-90.215,67.955L-90.147,67.727L-90.078,69.091L-90.01,66.364L-89.941,65L-89.873,64.091L-89.804,62.5L-89.736,64.773L-89.667,66.818L-89.599,68.182L-89.531,67.727L-89.394,66.364L-89.325,71.136L-89.257,71.818L-89.188,73.636L-89.12,74.318L-89.051,76.364L-88.983,73.636L-88.915,71.818L-88.846,72.045L-88.778,72.727L-88.709,72.727L-88.641,75.455L-88.572,76.136L-88.504,74.545L-88.435,74.545L-88.367,75.455L-88.299,76.136L-88.23,77.5L-88.162,79.318L-88.093,80L-88.025,79.318L-87.956,78.636L-87.888,82.273L-87.819,83.409L-87.751,83.636L-87.683,84.773L-87.614,83.636L-87.546,82.273L-87.477,82.273L-87.409,82.955L-87.34,83.864L-87.272,82.955L-87.203,84.773L-87.135,84.545L-87.067,83.409L-86.998,81.818L-86.93,82.727L-86.861,84.318L-86.793,84.545L-86.724,83.409L-86.656,84.091L-86.587,82.955L-86.519,80.682L-86.45,81.136L-86.382,81.591L-86.314,81.818L-86.245,82.045L-86.177,82.273L-86.108,79.773L-86.04,77.5L-85.971,76.818L-85.903,76.136L-85.834,76.364L-85.766,76.364L-85.698,77.273L-85.629,74.773L-85.561,74.091L-85.492,73.864L-85.424,72.273L-85.355,72.955L-85.287,73.182L-85.218,72.955L-85.15,72.045L-85.082,70.909L-85.013,71.136L-84.945,71.818L-84.876,71.591L-84.808,71.136L-84.739,71.591L-84.671,70.682L-84.602,71.364L-84.534,72.045L-84.466,73.864L-84.397,75.455L-84.329,77.045L-84.26,78.182L-84.192,76.364L-84.123,76.818L-84.055,77.955L-83.986,78.409L-83.918,78.636L-83.85,80.682L-83.781,81.818L-83.713,81.364L-83.644,80.682L-83.576,81.818L-83.507,79.318L-83.439,80.227L-83.37,81.591L-83.302,81.364L-83.234,80L-83.165,78.182L-83.097,77.727L-83.028,77.955L-82.96,80.455L-82.891,81.364L-82.823,83.182L-82.754,82.273L-82.686,81.136L-82.617,80.909L-82.549,78.636L-82.481,78.409L-82.412,79.318L-82.344,78.182L-82.275,75.455L-82.207,76.364L-82.138,77.045L-82.07,74.773L-82.001,74.091L-81.933,75L-81.865,75.909L-81.796,73.182L-81.728,69.773L-81.659,66.818L-81.591,65L-81.522,65L-81.454,69.773L-81.385,71.136L-81.317,72.955L-81.249,73.864L-81.18,75.227L-81.112,76.364L-81.043,77.5L-80.975,77.955L-80.906,77.273L-80.838,76.818L-80.769,76.818L-80.701,75.909L-80.633,77.273L-80.564,78.409L-80.496,80.455L-80.427,80.455L-80.359,79.318L-80.29,80.227L-80.222,82.727L-80.153,81.136L-80.085,82.5L-80.017,84.091L-79.948,85.227L-79.88,85.227L-79.811,85.909L-79.743,86.591L-79.674,90L-79.606,92.045L-79.537,95L-79.469,95.682L-79.401,93.409L-79.332,90.455L-79.264,88.182L-79.195,87.273L-79.127,87.5L-79.058,87.273L-78.99,88.182L-78.921,87.5L-78.85,86.591L-78.782,86.136L-78.713,84.545L-78.645,86.591L-78.576,87.045L-78.508,86.364L-78.439,86.364L-78.371,85.909L-78.303,86.591L-78.234,86.364L-78.166,83.409L-78.097,85L-78.029,86.136L-77.96,84.773L-77.892,85L-77.823,84.545L-77.755,84.545L-77.687,84.318L-77.618,81.136L-77.55,82.5L-77.481,81.818L-77.413,83.864L-77.344,85.227L-77.276,86.364L-77.207,85.682L-77.139,85.455L-77.07,85.682L-77.002,86.591L-76.934,86.591L-76.865,86.591L-76.797,86.591L-76.728,85.682L-76.66,86.136L-76.591,85.455L-76.523,82.955L-76.454,83.636L-76.386,83.409L-76.318,81.818L-76.249,80.227L-76.181,80L-76.112,83.182L-76.044,81.136L-75.975,78.864L-75.907,77.955L-75.838,77.045L-75.77,77.045L-75.702,77.955L-75.633,78.864L-75.565,80.455L-75.496,78.409L-75.428,77.273L-75.359,75L-75.291,73.636L-75.222,73.636L-75.154,75.227L-75.086,74.318L-75.017,72.955L-74.949,72.273L-74.88,71.591L-74.812,72.045L-74.743,72.273L-74.675,73.182L-74.606,71.818L-74.538,72.045L-74.47,73.409L-74.401,73.864L-74.333,73.864L-74.264,76.591L-74.196,77.955L-74.127,76.818L-74.059,76.136L-73.99,77.5L-73.922,79.091L-73.854,80L-73.785,79.773L-73.717,81.136L-73.648,79.773L-73.58,79.318L-73.511,78.182L-73.443,78.409L-73.374,78.636L-73.306,79.773L-73.238,81.591L-73.169,81.591L-73.101,80.227L-73.032,80L-72.964,79.545L-72.895,78.636L-72.827,78.864L-72.758,80.909L-72.69,80.227L-72.621,80.227L-72.553,82.727L-72.485,82.273L-72.416,82.273L-72.348,82.5L-72.279,82.273L-72.211,80.909L-72.142,78.636L-72.074,78.864L-72.005,76.364L-71.937,75.682L-71.869,76.136L-71.8,77.5L-71.732,78.409L-71.663,77.5L-71.595,78.409L-71.526,78.182L-71.458,78.409L-71.389,80.227L-71.321,80.682L-71.253,80.682L-71.184,80L-71.116,80.682L-71.047,82.045L-70.979,83.409L-70.91,83.182L-70.842,85L-70.773,83.864L-70.705,82.045L-70.637,82.045L-70.568,82.273L-70.5,80.909L-70.431,81.818L-70.363,82.5L-70.294,80L-70.229,80.227L-70.16,80.682L-70.092,82.5L-70.023,84.318L-69.955,85.682L-69.886,86.818L-69.818,85L-69.75,82.5L-69.681,82.045L-69.613,82.727L-69.544,83.409L-69.476,84.545L-69.407,86.591L-69.339,84.773L-69.27,83.409L-69.202,83.409L-69.134,83.182L-69.065,82.727L-68.997,82.955L-68.928,83.636L-68.86,83.636L-68.791,82.273L-68.723,82.727L-68.654,82.727L-68.586,83.409L-68.518,83.409L-68.449,84.091L-68.381,83.864L-68.312,82.955L-68.244,85L-68.175,85.682L-68.107,87.5L-68.038,86.136L-67.97,85.909L-67.902,84.545L-67.833,84.318L-67.765,84.545L-67.696,86.818L-67.628,85.455L-67.559,85.909L-67.491,85.227L-67.422,84.091L-67.354,83.636L-67.286,85L-67.217,86.591L-67.149,87.045L-67.08,88.409L-67.012,90.455L-66.943,90.682L-66.875,88.409L-66.806,88.864L-66.738,90L-66.67,90L-66.601,91.136L-66.533,92.955L-66.464,91.818L-66.396,90.909L-66.327,90.455L-66.259,90.909L-66.19,90.909L-66.122,90.909L-66.054,90.909L-65.985,91.591L-65.917,90.909L-65.848,91.591L-65.78,92.273L-65.711,93.182L-65.643,93.864L-65.574,95.682L-65.506,94.091L-65.437,93.636L-65.369,95.227L-65.301,93.409L-65.232,93.409L-65.164,94.091L-65.095,94.091L-65.027,92.273L-64.958,91.136L-64.89,89.545L-64.821,92.045L-64.753,92.727L-64.685,93.409L-64.616,94.545L-64.548,94.091L-64.479,91.818L-64.411,93.182L-64.342,95.227L-64.274,95.455L-64.205,96.136L-64.137,96.591L-64.069,94.545L-64,92.273L-63.932,93.409L-63.863,92.273L-63.795,92.955L-63.726,92.5L-63.658,94.091L-63.589,92.955L-63.521,91.818L-63.453,91.364L-63.384,92.273L-63.316,92.273L-63.247,95L-63.179,94.318L-63.11,92.955L-63.042,91.136L-62.973,92.955L-62.905,93.409L-62.837,93.636L-62.768,93.182L-62.7,94.318L-62.631,90.455L-62.563,89.545L-62.494,89.545L-62.426,89.318L-62.357,89.318L-62.289,88.409L-62.221,89.091L-62.152,87.045L-62.084,85.227L-62.015,85.227L-61.947,85.455L-61.878,86.136L-61.81,88.636L-61.741,90L-61.673,88.182L-61.604,86.364L-61.536,85.455L-61.468,85L-61.399,85.909L-61.331,85.682L-61.262,85.909L-61.194,81.818L-61.125,81.364L-61.057,82.5L-60.988,83.864L-60.92,83.409L-60.852,83.864L-60.783,85.227L-60.715,82.5L-60.646,80.682L-60.578,82.273L-60.509,80.455L-60.441,80.455L-60.372,82.5L-60.304,83.864L-60.236,84.545L-60.167,82.273L-60.099,82.727L-60.03,83.636L-59.962,85.227L-59.893,86.364L-59.825,86.136L-59.756,83.409L-59.688,81.136L-59.62,79.091L-59.551,79.545L-59.483,79.545L-59.414,81.136L-59.346,82.045L-59.277,80L-59.209,79.091L-59.14,81.136L-59.072,82.273L-59.004,82.045L-58.935,81.818L-58.867,81.818L-58.798,80.909L-58.73,79.545L-58.661,81.591L-58.593,82.273L-58.524,84.318L-58.456,86.136L-58.388,86.364L-58.319,84.773L-58.251,83.409L-58.182,82.045L-58.114,82.727L-58.045,84.091L-57.977,85.227L-57.908,85.455L-57.84,84.091L-57.772,83.636L-57.703,84.773L-57.635,85.909L-57.566,87.955L-57.498,87.273L-57.429,88.636L-57.361,88.636L-57.292,88.182L-57.224,89.545L-57.155,90.227L-57.087,89.091L-57.019,89.545L-56.95,89.318L-56.882,87.5L-56.813,84.318L-56.745,82.727L-56.676,82.727L-56.608,81.591L-56.539,82.5L-56.471,82.045L-56.403,80.909L-56.334,80.227L-56.266,80.227L-56.197,79.773L-56.129,81.136L-56.06,81.818L-55.992,82.727L-55.923,81.136L-55.855,78.636L-55.787,78.409L-55.718,78.409L-55.65,77.5L-55.581,78.409L-55.513,78.409L-55.444,77.955L-55.376,74.773L-55.307,74.545L-55.239,73.409L-55.171,72.955L-55.102,72.5L-55.034,74.773L-54.965,73.182L-54.897,72.045L-54.828,72.955L-54.76,75.227L-54.691,76.818L-54.623,77.5L-54.555,79.773L-54.486,78.636L-54.418,77.273L-54.349,77.5L-54.281,78.864L-54.212,79.091L-54.144,80.227L-54.075,79.318L-54.007,78.636L-53.936,77.955L-53.867,77.955L-53.799,78.409L-53.73,79.773L-53.662,80.909L-53.593,82.727L-53.525,81.818L-53.457,81.364L-53.388,81.591L-53.32,84.091L-53.251,84.545L-53.183,87.045L-53.114,88.636L-53.046,87.955L-52.977,87.727L-52.909,89.773L-52.841,90.682L-52.772,91.364L-52.704,92.5L-52.635,93.864L-52.567,93.409L-52.498,92.955L-52.43,94.091L-52.361,94.545L-52.293,95.909L-52.225,95L-52.156,95.227L-52.088,95.227L-52.019,95.682L-51.951,97.5L-51.882,97.273L-51.814,99.318L-51.745,101.364L-51.677,100.909L-51.608,99.318L-51.54,99.545L-51.472,99.091L-51.403,99.318L-51.335,99.773L-51.266,101.136L-51.198,100L-51.129,97.5L-51.061,95L-50.992,93.864L-50.924,93.864L-50.856,93.182L-50.787,94.773L-50.719,95L-50.65,94.545L-50.582,93.864L-50.513,94.318L-50.376,94.091L-50.308,92.955L-50.24,94.318L-50.171,92.727L-50.103,92.727L-50.034,90L-49.966,89.545L-49.897,88.864L-49.829,89.091L-49.76,89.091L-49.692,87.045L-49.624,86.136L-49.555,86.364L-49.487,87.045L-49.418,87.955L-49.35,88.864L-49.281,90.455L-49.213,90.682L-49.144,89.545L-49.076,88.864L-49.008,90L-48.939,90.909L-48.871,93.864L-48.802,93.636L-48.734,91.818L-48.665,89.318L-48.597,87.045L-48.528,87.5L-48.46,86.364L-48.392,86.136L-48.323,85.682L-48.255,84.545L-48.186,82.045L-48.118,82.727L-48.049,82.273L-47.981,83.409L-47.912,83.409L-47.844,83.636L-47.775,81.591L-47.707,81.136L-47.639,82.273L-47.57,82.045L-47.502,81.591L-47.433,82.727L-47.365,82.045L-47.296,80.227L-47.228,78.409L-47.159,79.091L-47.091,79.773L-47.023,79.318L-46.954,79.091L-46.886,80L-46.817,78.864L-46.749,78.636L-46.68,79.091L-46.612,78.864L-46.543,81.591L-46.475,80.682L-46.407,81.364L-46.338,80.227L-46.27,79.545L-46.201,80.455L-46.133,81.591L-46.064,83.182L-45.996,84.091L-45.927,85.227L-45.859,82.727L-45.791,80.227L-45.722,81.591L-45.654,80.682L-45.585,80L-45.517,81.818L-45.448,81.818L-45.38,79.318L-45.314,78.409L-45.246,78.409L-45.177,78.182L-45.109,76.818L-45.04,77.273L-44.972,78.864L-44.904,77.727L-44.835,77.045L-44.767,74.318L-44.698,73.409L-44.63,74.545L-44.561,76.818L-44.493,77.045L-44.424,74.545L-44.356,73.636L-44.288,73.409L-44.219,73.182L-44.151,72.045L-44.082,71.591L-44.014,71.136L-43.945,70.227L-43.877,70L-43.808,71.818L-43.74,72.273L-43.672,71.364L-43.603,73.182L-43.535,73.864L-43.466,68.636L-43.398,68.409L-43.329,69.545L-43.261,69.318L-43.192,70.682L-43.124,72.727L-43.056,73.864L-42.987,72.5L-42.919,71.818L-42.85,71.364L-42.782,72.273L-42.713,74.545L-42.645,76.818L-42.576,76.364L-42.508,74.091L-42.44,70.909L-42.371,72.727L-42.303,70.455L-42.234,71.818L-42.166,72.5L-42.097,74.091L-42.029,76.364L-41.96,75.227L-41.892,72.727L-41.824,70.455L-41.755,70.227L-41.687,71.591L-41.618,72.273L-41.55,68.864L-41.481,66.818L-41.413,70.909L-41.344,70.682L-41.276,68.182L-41.208,69.318L-41.139,70L-41.071,68.409L-41.002,66.364L-40.934,65.227L-40.865,65.909L-40.797,66.818L-40.728,66.364L-40.66,67.273L-40.591,64.545L-40.523,64.091L-40.455,64.545L-40.386,65.227L-40.318,65.227L-40.249,69.091L-40.181,70.455L-40.112,69.318L-40.044,67.955L-39.975,66.591L-39.907,66.136L-39.839,68.182L-39.77,71.818L-39.702,72.5L-39.633,71.364L-39.565,70.682L-39.496,71.818L-39.428,72.5L-39.359,73.864L-39.291,75.909L-39.223,78.864L-39.154,76.136L-39.086,74.773L-39.017,74.091L-38.949,75L-38.88,75.909L-38.812,76.818L-38.743,78.636L-38.675,77.045L-38.607,75.455L-38.538,76.136L-38.47,76.818L-38.401,76.136L-38.333,77.955L-38.264,79.091L-38.196,76.818L-38.127,75.227L-38.059,76.818L-37.991,75.909L-37.922,73.636L-37.854,74.318L-37.785,75.227L-37.717,71.591L-37.648,71.591L-37.58,72.5L-37.511,72.045L-37.443,71.818L-37.375,73.864L-37.306,73.182L-37.238,71.364L-37.169,69.545L-37.101,70L-37.032,70.227L-36.964,70.227L-36.895,71.591L-36.827,72.045L-36.758,69.773L-36.69,68.182L-36.622,68.636L-36.553,69.091L-36.485,69.545L-36.416,70.682L-36.348,71.591L-36.279,68.409L-36.211,66.818L-36.142,65.909L-36.074,64.091L-36.006,62.727L-35.937,65.455L-35.869,68.409L-35.8,65.909L-35.732,65.682L-35.663,66.136L-35.595,65L-35.526,65.909L-35.458,67.045L-35.39,70.227L-35.321,69.318L-35.253,68.182L-35.184,68.182L-35.116,70.227L-35.047,70.909L-34.979,72.5L-34.91,75L-34.842,73.182L-34.774,73.409L-34.705,74.773L-34.637,74.773L-34.568,74.091L-34.5,74.545L-34.431,75.682L-34.363,72.727L-34.294,72.273L-34.226,75L-34.158,75.909L-34.089,77.727L-34.021,80.909L-33.952,81.818L-33.884,81.818L-33.815,78.409L-33.747,80L-33.678,79.773L-33.61,81.136L-33.542,82.273L-33.473,82.955L-33.405,81.591L-33.336,80L-33.268,79.545L-33.199,79.091L-33.131,79.091L-33.062,79.545L-32.994,80.682L-32.926,79.091L-32.857,77.045L-32.789,76.818L-32.72,77.273L-32.652,77.955L-32.583,78.409L-32.515,79.091L-32.446,76.818L-32.378,72.727L-32.309,73.182L-32.241,70.682L-32.173,69.773L-32.104,70L-32.036,69.091L-31.967,65.682L-31.899,65.455L-31.83,64.091L-31.762,65.909L-31.693,65.455L-31.625,64.545L-31.557,65.455L-31.488,61.818L-31.42,59.091L-31.351,59.545L-31.283,58.864L-31.214,59.091L-31.146,59.091L-31.077,60.455L-31.009,57.273L-30.941,54.318L-30.872,55.227L-30.804,55.682L-30.735,56.136L-30.667,55.682L-30.598,55.227L-30.53,53.409L-30.461,53.636L-30.393,55.455L-30.325,58.182L-30.256,58.182L-30.188,62.727L-30.119,63.409L-30.051,60.455L-29.982,59.318L-29.914,60.909L-29.845,62.273L-29.777,62.273L-29.709,63.409L-29.64,65.455L-29.572,66.818L-29.503,66.364L-29.435,70L-29.366,72.5L-29.298,72.273L-29.229,74.318L-29.161,75.682L-29.093,74.773L-29.021,74.091L-28.953,75.227L-28.884,77.955L-28.816,77.273L-28.747,78.636L-28.679,80.227L-28.611,77.955L-28.542,77.045L-28.474,77.5L-28.405,77.045L-28.337,77.273L-28.268,79.318L-28.2,79.318L-28.131,77.273L-28.063,77.5L-27.995,80.682L-27.926,83.409L-27.858,84.318L-27.789,84.091L-27.721,85.909L-27.652,85L-27.584,83.182L-27.515,83.182L-27.447,84.773L-27.379,84.318L-27.31,82.955L-27.242,83.409L-27.173,82.5L-27.105,80L-27.036,81.591L-26.968,82.5L-26.899,82.727L-26.831,83.182L-26.762,83.864L-26.694,82.727L-26.626,81.591L-26.557,82.955L-26.489,83.182L-26.42,85.455L-26.352,86.364L-26.283,87.045L-26.215,83.864L-26.146,83.182L-26.078,83.409L-26.01,82.5L-25.941,81.364L-25.873,80L-25.804,79.773L-25.736,78.864L-25.667,76.818L-25.599,75.682L-25.53,76.364L-25.462,75.682L-25.394,75L-25.325,75L-25.257,74.545L-25.188,75.227L-25.12,74.091L-25.051,74.091L-24.983,75.227L-24.914,75.455L-24.846,76.818L-24.778,74.773L-24.709,74.091L-24.641,73.864L-24.572,73.864L-24.504,74.318L-24.435,74.773L-24.367,73.864L-24.298,73.636L-24.23,70.682L-24.162,71.591L-24.093,73.864L-24.025,74.091L-23.956,75.455L-23.888,76.818L-23.819,77.045L-23.751,76.591L-23.682,75.909L-23.614,76.136L-23.546,77.273L-23.477,79.318L-23.409,78.864L-23.34,79.545L-23.272,79.091L-23.203,78.182L-23.135,77.727L-23.066,79.091L-22.998,80.909L-22.93,80.682L-22.861,79.773L-22.793,78.636L-22.724,79.318L-22.656,79.318L-22.587,80L-22.519,80.227L-22.45,80.909L-22.382,78.409L-22.313,78.182L-22.245,79.091L-22.177,81.591L-22.108,82.273L-22.04,81.818L-21.971,82.5L-21.903,81.818L-21.834,81.591L-21.766,83.182L-21.697,81.364L-21.629,81.818L-21.561,83.409L-21.492,83.864L-21.424,80.909L-21.355,79.773L-21.287,77.273L-21.218,76.818L-21.15,79.545L-21.081,80.227L-21.013,80L-20.945,79.091L-20.876,76.364L-20.808,75.455L-20.739,76.591L-20.671,76.818L-20.602,77.5L-20.534,77.955L-20.465,77.727L-20.4,77.5L-20.331,79.773L-20.263,77.727L-20.195,77.045L-20.126,76.818L-20.058,76.818L-19.989,75.682L-19.921,72.273L-19.852,71.364L-19.784,70.227L-19.715,67.273L-19.647,68.864L-19.578,68.864L-19.51,66.591L-19.442,67.045L-19.373,68.182L-19.305,69.318L-19.236,69.091L-19.168,70.455L-19.099,69.545L-19.031,67.273L-18.962,66.591L-18.894,66.136L-18.826,66.818L-18.757,67.5L-18.689,67.273L-18.62,67.955L-18.552,65.455L-18.483,64.545L-18.415,62.045L-18.346,62.273L-18.278,62.5L-18.21,63.182L-18.141,62.955L-18.073,61.364L-18.004,60.455L-17.936,60.909L-17.867,62.045L-17.799,64.318L-17.73,65.455L-17.662,67.955L-17.594,67.045L-17.525,67.045L-17.457,68.182L-17.388,67.045L-17.32,66.591L-17.251,68.864L-17.183,70.227L-17.114,68.182L-17.046,65.909L-16.978,66.136L-16.909,64.091L-16.841,65.455L-16.772,67.045L-16.704,67.5L-16.635,65L-16.567,63.182L-16.498,64.545L-16.43,65.227L-16.362,65L-16.293,63.182L-16.225,62.955L-16.156,60.455L-16.088,60L-16.019,60.682L-15.951,61.818L-15.882,62.273L-15.814,65L-15.745,63.864L-15.677,63.409L-15.609,61.136L-15.54,62.5L-15.472,61.591L-15.403,62.5L-15.335,62.955L-15.266,63.864L-15.198,60.455L-15.129,60.455L-15.061,61.818L-14.993,64.091L-14.924,66.364L-14.856,70L-14.787,65L-14.719,60L-14.65,58.864L-14.582,60L-14.513,61.591L-14.445,63.182L-14.377,63.636L-14.308,67.5L-14.24,67.5L-14.171,66.818L-14.103,69.318L-14.034,71.818L-13.966,72.727L-13.897,73.409L-13.829,73.409L-13.761,72.045L-13.692,70.682L-13.624,70.227L-13.555,22.955L-13.487,22.727L-13.418,23.182L-13.35,22.5L-13.281,20.455L-13.213,16.818L-13.145,19.091L-13.076,18.636L-13.008,18.636L-12.939,17.045L-12.871,15.682L-12.802,12.727L-12.734,15.455L-12.665,18.409L-12.597,17.045L-12.529,18.409L-12.46,18.409L-12.392,18.182L-12.323,17.045L-12.255,15.682L-12.186,15L-12.118,16.364L-12.049,18.636L-11.981,16.591L-11.913,16.591L-11.844,14.091L-11.776,14.545L-11.707,14.545L-11.639,13.864L-11.57,15L-11.502,64.318L-11.433,65.455L-11.365,65.227L-11.296,63.864L-11.228,65.227L-11.16,66.364L-11.091,65.455L-11.023,65.455L-10.954,65.909L-10.886,65.455L-10.817,64.545L-10.749,65.682L-10.68,64.545L-10.612,65.909L-10.544,66.591L-10.475,67.273L-10.407,66.591L-10.338,66.136L-10.27,65.227L-10.201,65L-10.133,65.455L-10.064,64.545L-9.996,64.773L-9.928,65.455L-9.859,62.955L-9.791,62.727L-9.722,62.955L-9.654,62.955L-9.585,65L-9.517,64.545L-9.448,64.091L-9.38,62.727L-9.312,62.273L-9.243,61.136L-9.175,62.273L-9.106,65.227L-9.038,66.136L-8.969,64.773L-8.901,62.5L-8.832,63.636L-8.764,63.864L-8.696,63.182L-8.627,67.727L-8.559,68.636L-8.49,69.318L-8.422,64.773L-8.353,64.091L-8.285,59.773L-8.216,60.227L-8.148,60.455L-8.08,62.273L-8.011,61.818L-7.943,60L-7.874,58.182L-7.806,59.545L-7.737,60.455L-7.669,60.682L-7.6,60.455L-7.532,58.864L-7.463,54.773L-7.395,51.818L-7.327,52.045L-7.258,52.273L-7.19,54.545L-7.121,53.409L-7.053,47.955L-6.984,45.682L-6.916,46.818L-6.847,47.727L-6.779,47.5L-6.711,47.955L-6.642,48.864L-6.574,42.045L-6.505,39.318L-6.437,37.5L-6.368,37.727L-6.3,37.045L-6.231,40.227L-6.163,41.591L-6.095,38.182L-6.026,36.136L-5.958,35L-5.889,33.636L-5.821,35.227L-5.752,36.136L-5.684,38.182L-5.615,37.273L-5.547,36.591L-5.479,38.409L-5.41,41.136L-5.342,43.636L-5.273,43.864L-5.205,45.455L-5.136,43.864L-5.068,43.636L-4.999,47.5L-4.931,49.091L-4.863,47.727L-4.794,49.773L-4.726,50.455L-4.657,50.909L-4.589,49.318L-4.52,53.409L-4.452,56.364L-4.383,58.409L-4.315,60.909L-4.247,61.818L-4.178,60.455L-4.107,58.409L-4.038,60.909L-3.97,61.136L-3.901,63.182L-3.833,65.455L-3.765,65L-3.696,61.818L-3.628,60L-3.559,59.318L-3.491,60.909L-3.422,60.909L-3.354,61.364L-3.285,61.818L-3.217,60.909L-3.149,57.955L-3.08,59.091L-3.012,59.318L-2.943,59.318L-2.875,58.636L-2.806,60.455L-2.738,60.227L-2.669,59.545L-2.601,60.455L-2.533,64.318L-2.464,66.136L-2.396,62.955L-2.327,61.591L-2.259,58.864L-2.19,57.727L-2.122,59.545L-2.053,59.773L-1.985,60.682L-1.916,60.909L-1.848,60L-1.78,59.318L-1.711,59.091L-1.643,61.818L-1.574,60.227L-1.506,59.773L-1.437,59.545L-1.369,59.545L-1.3,57.955L-1.232,57.955L-1.164,57.045L-1.095,58.636L-1.027,60.682L-0.958,60.682L-0.89,61.591L-0.821,61.591L-0.753,60.455L-0.684,59.773L-0.616,61.364L-0.548,59.773L-0.479,58.864L-0.411,57.045L-0.342,59.773L-0.274,61.818L-0.205,65L-0.137,65.909L-0.068,65.909L0,66.818L0.068,66.818L0.137,65.455L0.205,65.909L0.274,66.818L0.342,67.045L0.411,66.591L0.479,68.409L0.548,69.545L0.616,69.545L0.684,69.318L0.753,70.455L0.821,70.227L0.89,72.955L0.958,72.727L1.027,71.136L1.095,69.318L1.164,67.955L1.232,68.636L1.3,69.091L1.369,68.409L1.437,68.864L1.506,70.227L1.574,67.727L1.643,69.091L1.711,67.727L1.78,66.364L1.848,65.455L1.916,64.545L1.985,64.318L2.053,63.182L2.122,63.636L2.19,64.545L2.259,64.773L2.327,64.318L2.396,64.318L2.464,65.227L2.533,62.955L2.601,62.727L2.669,62.727L2.738,62.273L2.806,61.136L2.875,62.727L2.943,61.818L3.012,60.227L3.08,56.591L3.149,58.636L3.217,57.727L3.285,58.409L3.354,59.773L3.422,60L3.491,57.5L3.559,56.364L3.628,56.136L3.696,55.455L3.765,54.318L3.833,55.909L3.901,56.591L3.97,58.182L4.038,57.045L4.107,57.273L4.175,57.5L4.244,57.955L4.312,56.818L4.381,57.045L4.449,56.818L4.517,56.591L4.586,60L4.654,57.955L4.723,57.955L4.791,57.273L4.86,60.227L4.928,57.727L4.994,56.591L5.062,58.182L5.131,61.136L5.199,61.136L5.268,63.864L5.336,65L5.404,64.773L5.473,65.455L5.541,65.682L5.61,66.364L5.678,68.409L5.747,69.545L5.815,71.818L5.884,69.318L5.952,68.636L6.02,68.182L6.089,68.182L6.157,68.182L6.226,68.636L6.294,69.318L6.363,68.864L6.431,68.636L6.5,69.091L6.568,70.227L6.636,71.136L6.705,74.091L6.773,73.864L6.842,73.864L6.91,72.273L6.979,72.5L7.047,74.091L7.116,75.909L7.184,76.818L7.252,79.318L7.321,77.727L7.389,74.318L7.458,72.727L7.526,72.955L7.595,75.227L7.663,75.909L7.732,75.909L7.8,74.773L7.868,73.636L7.937,74.318L8.005,75L8.074,77.5L8.142,81.136L8.211,83.409L8.279,82.955L8.348,82.5L8.416,82.727L8.484,82.273L8.553,83.409L8.621,83.182L8.69,81.818L8.758,80L8.827,80.455L8.895,81.136L8.964,82.5L9.032,83.864L9.101,84.318L9.169,85L9.237,84.773L9.306,83.182L9.374,84.091L9.443,86.364L9.511,86.818L9.58,86.591L9.648,85.682L9.717,85.682L9.785,83.864L9.853,84.318L9.922,85.227L9.99,85.227L10.059,86.818L10.127,85L10.196,82.5L10.264,80.227L10.333,79.545L10.401,80L10.469,81.591L10.538,82.273L10.606,82.727L10.675,83.864L10.743,83.864L10.812,85.455L10.88,85.455L10.949,87.045L11.017,87.5L11.085,88.182L11.154,87.273L11.222,85L11.291,86.136L11.359,85.455L11.428,86.364L11.496,87.955L11.565,89.773L11.633,89.091L11.701,88.864L11.77,86.818L11.838,88.182L11.907,86.591L11.975,87.045L12.044,89.318L12.112,87.045L12.181,85.682L12.249,87.273L12.317,87.5L12.386,86.364L12.454,87.5L12.523,87.045L12.591,84.545L12.66,82.045L12.728,77.5L12.797,76.818L12.865,75.227L12.933,75L13.002,74.318L13.07,74.091L13.139,70.682L13.207,71.136L13.276,70.227L13.344,68.864L13.413,69.545L13.481,69.545L13.55,66.136L13.618,65.455L13.686,65.455L13.755,65.682L13.823,66.591L13.892,67.045L13.96,69.545L14.029,68.636L14.097,67.5L14.166,67.727L14.234,68.409L14.302,67.727L14.371,69.545L14.439,71.591L14.508,67.045L14.576,65.455L14.645,66.591L14.713,67.045L14.782,68.636L14.85,69.318L14.918,70.682L14.987,69.773L15.055,66.818L15.124,63.864L15.192,65.227L15.261,64.091L15.329,66.818L15.398,67.5L15.466,67.273L15.534,65.909L15.603,66.136L15.671,65.455L15.74,64.545L15.808,63.636L15.877,64.545L15.945,63.864L16.014,59.318L16.082,58.864L16.15,57.5L16.219,58.182L16.287,58.636L16.356,59.091L16.424,57.045L16.493,55L16.561,56.136L16.63,57.273L16.698,57.955L16.766,59.545L16.835,61.364L16.903,58.409L16.972,57.045L17.04,56.818L17.109,58.182L17.177,60.682L17.246,62.5L17.314,62.5L17.383,60.227L17.451,60.682L17.519,59.318L17.588,59.318L17.656,59.318L17.725,60.227L17.793,60.909L17.862,59.091L17.93,57.955L17.999,55.909L18.067,59.091L18.135,59.091L18.204,61.818L18.272,60.455L18.341,60.682L18.409,59.318L18.478,59.318L18.546,61.136L18.615,64.091L18.683,65.227L18.751,65.455L18.82,63.636L18.888,62.273L18.957,63.636L19.025,64.318L19.094,64.773L19.162,66.591L19.231,67.955L19.299,65.455L19.367,66.591L19.436,68.182L19.504,66.591L19.573,68.182L19.641,68.864L19.71,70.682L19.778,70L19.847,70.227L19.915,70.909L19.983,70.682L20.052,72.5L20.12,73.636L20.189,74.545L20.257,72.045L20.326,72.273L20.394,72.955L20.463,74.318L20.531,75.455L20.599,75.227L20.668,75L20.736,73.636L20.805,73.182L20.873,72.273L20.942,72.727L21.01,72.727L21.079,71.591L21.147,72.727L21.215,72.045L21.287,70.227L21.355,71.136L21.424,70.227L21.492,69.773L21.561,72.273L21.629,71.818L21.697,70.682L21.766,67.5L21.834,66.818L21.903,66.364L21.971,68.409L22.04,68.864L22.108,70.455L22.177,67.5L22.245,68.636L22.313,68.636L22.382,70.227L22.45,69.318L22.519,69.773L22.587,70.682L22.656,70.682L22.724,71.364L22.793,70L22.861,70.455L22.93,72.5L22.998,73.409L23.066,76.136L23.135,77.045L23.203,75.909L23.272,74.091L23.34,72.727L23.409,73.182L23.477,74.318L23.546,74.318L23.614,70.455L23.682,70L23.751,71.591L23.819,72.955L23.888,73.409L23.956,75L24.025,75.455L24.093,73.636L24.162,72.045L24.23,72.5L24.298,69.318L24.367,69.091L24.435,69.545L24.504,70.227L24.572,66.136L24.641,63.636L24.709,62.273L24.778,61.818L24.846,63.864L24.914,64.318L24.983,62.727L25.051,60.455L25.12,58.636L25.188,58.864L25.257,59.091L25.325,59.091L25.394,61.818L25.462,62.727L25.53,59.318L25.599,58.409L25.667,59.773L25.736,60.682L25.804,58.864L25.873,60.455L25.941,60.909L26.01,58.409L26.078,58.182L26.146,57.5L26.215,56.136L26.283,55.909L26.352,56.136L26.42,57.273L26.489,55.227L26.557,51.591L26.626,51.591L26.694,51.136L26.762,51.818L26.831,50.455L26.899,50.682L26.968,49.091L27.036,48.409L27.105,46.818L27.173,45.455L27.242,47.045L27.31,47.045L27.379,48.864L27.447,47.045L27.515,44.091L27.584,46.136L27.652,47.727L27.721,48.409L27.789,49.091L27.858,51.364L27.926,49.091L27.995,50.909L28.063,50.909L28.131,50.682L28.2,53.864L28.268,56.818L28.337,58.636L28.405,60L28.474,58.636L28.542,59.545L28.611,63.409L28.679,66.364L28.747,69.091L28.816,69.318L28.884,66.591L28.953,65.227L29.021,65L29.09,65.682L29.158,68.636L29.227,70.682L29.295,69.091L29.363,67.955L29.432,66.136L29.5,66.136L29.569,67.955L29.637,67.045L29.706,67.955L29.774,69.091L29.843,67.5L29.908,66.364L29.977,66.364L30.045,65L30.114,65.909L30.182,66.136L30.25,67.273L30.319,66.591L30.387,65.455L30.456,65.227L30.524,65.909L30.593,63.409L30.661,62.273L30.73,62.273L30.798,60L30.866,59.773L30.935,61.364L31.003,62.955L31.072,65L31.14,65L31.209,65L31.277,64.545L31.346,64.773L31.414,65.909L31.482,66.591L31.551,67.5L31.619,67.727L31.688,70L31.756,66.818L31.825,63.636L31.893,61.136L31.962,60.455L32.03,62.045L32.098,62.045L32.167,62.273L32.235,59.318L32.304,55.682L32.372,53.182L32.441,51.818L32.509,52.727L32.578,53.409L32.646,57.045L32.714,57.045L32.783,55.909L32.851,56.364L32.92,55.227L32.988,59.318L33.057,59.318L33.125,59.318L33.194,60.909L33.262,60.682L33.33,58.864L33.399,58.409L33.467,58.409L33.536,58.636L33.604,56.591L33.673,55.909L33.741,54.773L33.81,56.591L33.878,57.727L33.946,59.773L34.015,60.682L34.083,58.864L34.152,56.818L34.22,56.364L34.289,56.136L34.357,58.182L34.426,59.091L34.494,62.273L34.563,61.591L34.631,59.773L34.699,56.818L34.768,55.227L34.836,54.091L34.905,54.545L34.973,56.591L35.042,55.455L35.11,53.409L35.179,50.227L35.247,50.682L35.315,49.091L35.384,50.227L35.452,50L35.521,51.591L35.589,51.136L35.658,53.636L35.726,54.318L35.795,52.5L35.863,51.136L35.931,52.727L36,54.318L36.068,52.727L36.137,53.409L36.205,52.955L36.274,52.273L36.342,54.091L36.411,55.227L36.479,56.136L36.547,54.091L36.616,55.455L36.684,56.818L36.753,57.5L36.821,60.227L36.89,62.727L36.958,62.727L37.027,60.227L37.095,57.5L37.163,57.5L37.232,59.773L37.3,58.182L37.369,59.773L37.437,61.364L37.506,59.318L37.574,57.045L37.643,56.591L37.711,54.091L37.779,53.182L37.848,54.773L37.916,55.909L37.985,54.091L38.053,54.091L38.122,52.727L38.19,52.727L38.259,53.182L38.327,55L38.396,56.818L38.464,53.182L38.532,52.273L38.601,51.136L38.669,49.318L38.738,47.5L38.806,49.091L38.875,49.318L38.943,47.045L39.012,46.591L39.08,47.045L39.148,47.955L39.217,49.318L39.285,50.909L39.354,50.682L39.422,49.318L39.491,47.727L39.559,50.227L39.628,49.773L39.696,51.136L39.764,53.409L39.833,55L39.901,55.909L39.97,54.318L40.038,53.182L40.107,51.591L40.175,53.636L40.244,53.182L40.312,54.318L40.38,50.909L40.449,47.5L40.517,48.864L40.586,47.045L40.654,48.409L40.723,49.091L40.791,51.591L40.86,48.636L40.928,47.5L40.996,47.727L41.065,48.409L41.133,48.864L41.202,49.773L41.27,48.636L41.339,46.364L41.407,46.136L41.476,45.682L41.544,45.682L41.612,45.682L41.681,46.591L41.749,44.545L41.818,42.273L41.886,40.455L41.955,40L42.023,40.455L42.092,42.727L42.16,42.955L42.228,43.636L42.297,44.545L42.365,43.182L42.434,43.636L42.502,44.545L42.571,44.091L42.639,47.045L42.708,47.5L42.776,46.364L42.845,45.455L42.913,47.045L42.981,46.136L43.05,46.364L43.118,46.136L43.187,45L43.255,44.773L43.324,43.409L43.392,44.545L43.461,44.091L43.529,45L43.597,44.773L43.666,44.545L43.734,41.818L43.803,43.409L43.871,43.409L43.94,44.773L44.008,44.545L44.077,45.455L44.145,44.545L44.213,43.409L44.282,40.455L44.35,38.636L44.419,41.364L44.487,43.636L44.556,44.318L44.624,46.818L44.693,43.409L44.761,42.045L44.829,42.273L44.898,42.955L44.966,44.545L45.035,46.818L45.103,48.409L45.172,48.409L45.24,49.318L45.309,50L45.377,55L45.445,55.455L45.514,56.591L45.582,58.409L45.651,55.455L45.719,55.227L45.788,57.045L45.856,56.364L45.925,57.955L45.993,58.409L46.061,59.318L46.13,59.545L46.201,59.545L46.27,60L46.338,60L46.407,62.273L46.475,61.364L46.543,60.909L46.612,61.364L46.68,60.455L46.749,61.818L46.817,64.091L46.886,65.227L46.954,66.136L47.023,65.455L47.091,64.318L47.159,64.773L47.228,64.773L47.296,65.682L47.365,65.455L47.433,64.773L47.502,65.682L47.57,66.818L47.639,65.682L47.707,69.091L47.775,69.773L47.844,70.227L47.912,71.818L47.981,72.045L48.049,72.727L48.118,71.818L48.186,70L48.255,69.318L48.323,68.636L48.392,72.045L48.46,71.818L48.528,69.318L48.597,68.182L48.665,69.318L48.734,67.955L48.802,69.318L48.871,69.318L48.939,69.545L49.008,69.091L49.076,70L49.144,69.318L49.213,65.909L49.281,65.909L49.35,67.727L49.418,68.636L49.487,65.909L49.555,63.864L49.624,61.818L49.692,60.455L49.76,59.773L49.829,60.909L49.897,63.182L49.966,62.045L50.034,61.818L50.103,58.182L50.171,58.864L50.24,60.682L50.308,61.591L50.376,64.545L50.445,63.636L50.513,64.091L50.582,65.682L50.65,68.636L50.719,67.273L50.787,69.773L50.856,70.455L50.924,68.182L50.992,68.182L51.061,68.409L51.129,67.273L51.198,66.818L51.266,69.773L51.335,70.909L51.403,69.318L51.472,67.273L51.54,66.136L51.608,65.227L51.677,65.682L51.745,68.182L51.814,70L51.882,67.955L51.951,65.682L52.019,65.227L52.088,65.682L52.156,68.409L52.225,69.091L52.293,69.091L52.361,67.5L52.43,63.636L52.498,62.955L52.567,63.182L52.635,64.773L52.704,64.091L52.772,65.227L52.841,61.818L52.909,61.136L52.977,63.864L53.046,65.227L53.114,64.773L53.183,65.682L53.251,62.273L53.32,60.682L53.388,60.227L53.457,59.318L53.525,60L53.593,63.182L53.662,64.091L53.73,66.136L53.799,64.773L53.867,63.864L53.936,64.773L54.004,64.773L54.073,66.136L54.141,65.682L54.209,65.682L54.278,63.636L54.346,62.727L54.415,63.864L54.483,65.227L54.552,65.909L54.62,65.682L54.689,65L54.757,63.636L54.823,61.818L54.891,64.773L54.96,65L55.028,63.864L55.096,63.409L55.165,63.864L55.233,62.727L55.302,65.227L55.37,65.227L55.439,65.227L55.507,65.682L55.576,66.364L55.644,66.364L55.712,66.364L55.781,62.727L55.849,62.045L55.918,60.909L55.986,60L56.055,60.909L56.123,59.091L56.192,58.636L56.26,57.273L56.328,57.045L56.397,57.045L56.465,58.864L56.534,61.136L56.602,62.727L56.671,62.727L56.739,61.136L56.808,61.591L56.876,61.818L56.944,60.682L57.013,61.591L57.081,62.955L57.15,60.909L57.218,60L57.287,60.682L57.355,62.273L57.424,63.409L57.492,63.636L57.56,65L57.629,64.091L57.697,59.773L57.766,60.455L57.834,61.364L57.903,62.5L57.971,65L58.04,68.182L58.108,67.273L58.176,66.818L58.245,67.273L58.313,67.045L58.382,68.636L58.45,70.455L58.519,70.455L58.587,68.182L58.656,66.364L58.724,66.818L58.792,68.636L58.861,69.091L58.929,71.136L58.998,72.955L59.066,70.455L59.135,68.182L59.203,69.545L59.272,68.182L59.34,67.727L59.409,68.182L59.477,68.636L59.545,67.5L59.614,67.727L59.682,67.5L59.751,70.909L59.819,70.455L59.888,72.727L59.956,74.091L60.025,72.045L60.093,70.682L60.161,71.136L60.23,72.727L60.298,70.455L60.367,72.5L60.435,71.591L60.504,69.545L60.572,68.864L60.641,70.909L60.709,70.909L60.777,71.591L60.846,72.5L60.914,73.864L60.983,72.5L61.051,70.909L61.12,72.045L61.188,73.409L61.257,72.727L61.325,75.682L61.393,76.364L61.462,77.045L61.53,76.364L61.599,75L61.667,73.182L61.736,72.955L61.804,73.636L61.873,75L61.941,73.182L62.009,70.455L62.078,71.818L62.146,70.455L62.215,70L62.283,71.364L62.352,75L62.42,73.409L62.489,73.409L62.557,72.955L62.625,72.273L62.694,71.364L62.762,72.5L62.831,70.455L62.899,67.045L62.968,64.545L63.036,64.545L63.105,65.455L63.173,66.818L63.242,67.273L63.31,67.273L63.378,65.682L63.447,64.773L63.515,62.045L63.584,61.591L63.652,63.182L63.721,64.318L63.789,64.773L63.858,62.727L63.926,60.682L63.994,60L64.063,60.682L64.131,57.273L64.2,57.5L64.268,57.5L64.337,54.545L64.405,51.591L64.474,52.273L64.542,53.409L64.61,55L64.679,56.136L64.747,57.5L64.816,57.955L64.884,58.182L64.953,60.455L65.021,60.455L65.09,60L65.158,59.773L65.226,57.955L65.295,56.364L65.363,54.773L65.432,54.091L65.5,53.182L65.569,54.773L65.637,56.591L65.706,56.818L65.774,55.455L65.842,54.318L65.911,54.091L65.979,54.545L66.048,55L66.116,56.364L66.185,58.636L66.253,55.909L66.322,55.909L66.39,57.5L66.458,57.955L66.527,58.182L66.595,56.591L66.664,56.136L66.732,52.955L66.801,51.818L66.869,50.682L66.938,51.136L67.006,50L67.074,50.909L67.143,52.5L67.211,49.545L67.28,49.318L67.348,49.773L67.417,51.136L67.485,52.045L67.554,53.864L67.622,55L67.691,53.864L67.759,51.136L67.827,50.455L67.896,49.318L67.964,49.318L68.033,49.091L68.101,50L68.17,47.5L68.238,46.818L68.307,49.091L68.375,49.318L68.443,48.864L68.512,51.364L68.58,51.591L68.649,51.136L68.717,51.818L68.786,53.409L68.854,53.409L68.923,53.864L68.991,54.318L69.059,55.682L69.128,55.455L69.196,54.318L69.265,55.909L69.333,55.682L69.402,57.727L69.47,58.864L69.539,58.636L69.607,58.409L69.675,57.955L69.744,56.364L69.812,57.273L69.881,59.318L69.949,62.955L70.018,65.909L70.086,66.136L70.155,66.818L70.223,69.318L70.291,72.273L70.36,73.182L70.428,75.227L70.497,77.273L70.565,76.591L70.634,75.455L70.702,77.045L70.771,76.591L70.839,77.045L70.907,78.182L70.976,78.864L71.044,77.273L71.116,76.818L71.184,77.045L71.253,78.409L71.321,78.409L71.389,79.773L71.458,77.5L71.526,76.591L71.595,76.818L71.663,75.227L71.732,72.045L71.8,72.955L71.869,76.364L71.937,77.273L72.005,75.682L72.074,75L72.142,74.091L72.211,73.182L72.279,73.182L72.348,72.5L72.416,73.182L72.485,72.273L72.553,72.5L72.621,72.955L72.69,73.409L72.758,73.409L72.827,74.318L72.895,74.545L72.964,74.773L73.032,74.773L73.101,75.909L73.169,74.773L73.238,75L73.306,74.773L73.374,75.455L73.443,75L73.511,74.773L73.58,74.773L73.648,74.545L73.717,75.909L73.785,79.318L73.854,81.364L73.922,79.773L73.99,78.864L74.059,79.318L74.127,78.182L74.196,79.773L74.264,79.773L74.333,78.636L74.401,76.818L74.47,75L74.538,73.409L74.606,71.818L74.675,70L74.743,70.909L74.812,71.591L74.88,70.455L74.949,71.364L75.017,69.545L75.086,67.045L75.154,67.045L75.222,69.545L75.291,69.773L75.359,66.818L75.428,66.818L75.496,66.364L75.565,65.909L75.633,66.818L75.702,67.273L75.77,67.727L75.838,64.318L75.907,61.136L75.975,61.364L76.044,60.455L76.112,61.364L76.181,62.727L76.249,63.636L76.318,65.227L76.386,64.773L76.454,65.455L76.523,65.909L76.591,67.045L76.66,68.409L76.728,70.227L76.797,68.864L76.865,69.318L76.934,71.136L77.002,69.318L77.07,70L77.139,72.045L77.207,72.273L77.276,71.591L77.344,70.455L77.413,72.955L77.481,73.864L77.55,75.682L77.618,77.727L77.687,78.182L77.755,76.818L77.823,76.364L77.892,78.636L77.96,78.182L78.029,75.909L78.097,75.682L78.166,76.136L78.234,75.682L78.303,73.409L78.371,72.955L78.439,73.864L78.508,72.273L78.576,73.182L78.645,73.636L78.713,70.682L78.782,70.227L78.85,70.227L78.919,70L78.987,69.773L79.055,71.591L79.124,71.364L79.192,70.455L79.261,70.455L79.329,70L79.398,72.045L79.466,71.818L79.535,72.045L79.603,71.591L79.671,69.545L79.737,67.727L79.805,68.409L79.874,67.5L79.942,67.045L80.011,70.227L80.079,73.409L80.148,73.409L80.216,71.591L80.285,71.591L80.353,72.727L80.422,72.5L80.49,73.182L80.558,76.136L80.627,75.455L80.695,75L80.764,77.955L80.832,78.636L80.901,79.773L80.969,78.636L81.038,78.409L81.106,76.364L81.174,78.636L81.243,78.182L81.311,79.773L81.38,79.545L81.448,77.955L81.517,78.409L81.585,77.273L81.654,75.909L81.722,78.182L81.79,78.864L81.859,79.773L81.927,80.909L81.996,82.045L82.064,79.545L82.133,78.864L82.201,78.864L82.27,79.773L82.338,79.545L82.406,79.773L82.475,78.864L82.543,77.5L82.612,74.318L82.68,74.773L82.749,74.545L82.817,75L82.886,74.773L82.954,74.545L83.022,75.455L83.091,73.182L83.159,72.955L83.228,71.136L83.296,71.818L83.365,69.773L83.433,70.682L83.502,68.636L83.57,66.818L83.638,66.591L83.707,68.182L83.775,67.045L83.844,66.818L83.912,65.682L83.981,65.455L84.049,64.773L84.118,66.136L84.186,64.545L84.255,65.909L84.323,67.5L84.391,66.136L84.46,64.773L84.528,65.909L84.597,66.591L84.665,68.409L84.734,67.045L84.802,67.273L84.871,67.045L84.939,63.636L85.007,63.182L85.076,63.636L85.144,66.364L85.213,68.409L85.281,70.227L85.35,71.591L85.418,72.273L85.487,69.545L85.555,72.045L85.623,74.545L85.692,75.909L85.76,75.455L85.829,77.273L85.897,76.364L85.966,77.273L86.034,76.591L86.103,77.5L86.171,77.727L86.239,81.364L86.308,81.364L86.376,80L86.445,82.045L86.513,82.727L86.582,81.818L86.65,80.909L86.719,82.955L86.787,85.682L86.855,85.227L86.924,82.955L86.992,84.773L87.061,84.091L87.129,83.182L87.198,81.818L87.266,81.818L87.335,80.227L87.403,78.864L87.471,75.909L87.54,77.045L87.608,76.364L87.677,75.227L87.745,73.864L87.814,73.182L87.882,71.364L87.951,71.591L88.019,70.909L88.087,70.682L88.156,70.682L88.224,70.455L88.293,64.773L88.361,63.864L88.43,63.864L88.498,61.591L88.567,62.273L88.635,62.5L88.704,65L88.772,61.818L88.84,53.636L88.909,52.273L88.977,52.955L89.046,52.5L89.114,52.273L89.183,50.682L89.251,48.409L89.32,48.409L89.388,46.364L89.456,44.773L89.525,44.091L89.593,46.136L89.662,45.455L89.73,45.227L89.799,44.773L89.867,45.682L89.936,44.091L90.004,45L90.072,44.773L90.141,46.136L90.209,45.455L90.278,44.091L90.346,47.273L90.415,48.864L90.483,48.182L90.552,50L90.62,49.318L90.688,48.636L90.757,47.045L90.825,46.136L90.894,53.182L90.962,56.136L91.031,54.318L91.099,55.682L91.168,55.682L91.236,57.5L91.304,57.727L91.373,56.591L91.441,58.182L91.51,60.682L91.578,63.409L91.647,60L91.715,60.682L91.784,59.545L91.852,58.864L91.92,58.636L91.989,60L92.057,59.318L92.126,60.455L92.194,58.409L92.263,56.591L92.331,57.045L92.4,56.136L92.468,54.773L92.537,55.227L92.605,54.318L92.673,53.409L92.742,53.864L92.81,52.5L92.879,53.409L92.947,52.5L93.016,50.909L93.084,50.682L93.153,48.636L93.221,50.227L93.289,48.636L93.358,52.045L93.426,53.864L93.495,54.091L93.563,53.636L93.632,53.636L93.7,55.455L93.769,57.045L93.837,60.227L93.905,62.273L93.974,62.5L94.042,61.818L94.111,61.364L94.179,61.364L94.248,62.955L94.316,65.909L94.385,67.273L94.453,69.773L94.521,70.227L94.59,69.318L94.658,69.318L94.727,70L94.795,71.591L94.864,73.636L94.932,75.455L95.001,75.455L95.069,76.591L95.137,78.182L95.206,79.545L95.274,80L95.343,81.818L95.411,80.455L95.48,78.636L95.548,77.727L95.617,77.5L95.685,79.318L95.753,80.455L95.822,80.455L95.89,78.182L95.959,75.227L96.03,75.682L96.099,77.5L96.167,78.636L96.235,78.409L96.304,78.636L96.372,78.636L96.441,79.318L96.509,77.045L96.578,75.682L96.646,76.591L96.715,77.5L96.783,79.318L96.851,78.182L96.92,78.636L96.988,80L97.057,81.364L97.125,81.591L97.194,82.5L97.262,84.545L97.331,84.545L97.399,84.091L97.467,86.136L97.536,88.409L97.604,90L97.673,90.455L97.741,90.455L97.81,90.682L97.878,88.636L97.947,90.227L98.015,93.409L98.084,92.955L98.152,92.5L98.22,93.636L98.289,94.091L98.357,94.545L98.426,89.318L98.494,89.318L98.563,87.5L98.631,89.091L98.7,90.455L98.768,91.364L98.836,90.455L98.905,90L98.973,89.318L99.042,86.818L99.11,86.364L99.179,86.364L99.247,87.955L99.316,86.136L99.384,86.364L99.452,86.136L99.521,84.773L99.589,83.182L99.658,82.727L99.726,83.409L99.795,81.136L99.863,81.136L99.932,82.045L100,81.591L100.068,82.045L100.137,83.182L100.205,84.545L100.274,83.636L100.342,82.727L100.411,84.091L100.479,89.091L100.548,88.409L100.616,91.136L100.684,91.818L100.753,90.227L100.821,88.182L100.89,88.636L100.958,88.636L101.027,87.955L101.095,90.455L101.164,90.682L101.232,90.682L101.3,87.5L101.369,88.182L101.437,87.955L101.506,88.636L101.574,89.545L101.643,90.909L101.711,90.909L101.78,89.773L101.848,92.273L101.916,92.5L101.985,93.636L102.053,95L102.122,94.318L102.19,93.636L102.259,92.5L102.327,93.636L102.396,95.682L102.464,93.636L102.533,93.182L102.601,94.545L102.669,94.091L102.738,93.864L102.806,95.455L102.875,96.364L102.943,97.045L103.012,99.091L103.08,100.227L103.149,99.773L103.217,100.227L103.285,100.682L103.354,103.182L103.422,103.182L103.491,103.864L103.559,105L103.628,104.773L103.696,104.545L103.765,104.773L103.833,105.455L103.901,105.909L103.97,105.227L104.038,105.682L104.107,105.682L104.175,106.364L104.244,107.5L104.312,108.409L104.381,108.182L104.449,107.5L104.517,109.545L104.586,109.545L104.651,110.455L104.72,112.727L104.788,112.273L104.857,112.273L104.925,113.182L104.994,112.273L105.062,110.227L105.131,110.455L105.199,110.455L105.268,111.364L105.336,110.682L105.404,110.682L105.473,110.455L105.541,109.773L105.61,108.864L105.678,107.5L105.747,107.727L105.815,107.727L105.884,108.864L105.952,107.955L106.02,108.409L106.089,107.727L106.157,107.5L106.226,106.818L106.294,107.273L106.363,106.591L106.431,106.591L106.5,106.136L106.568,103.864L106.636,104.091L106.705,102.273L106.773,101.364L106.842,102.045L106.91,102.273L106.979,101.136L107.047,101.364L107.116,101.818L107.184,102.045L107.252,101.818L107.321,101.364L107.389,101.364L107.458,99.318L107.526,99.091L107.595,95.909L107.663,94.773L107.732,95.909L107.8,96.136L107.868,96.591L107.937,94.773L108.005,94.091L108.074,92.727L108.142,92.273L108.211,90.682L108.279,92.045L108.348,90.909L108.416,89.091L108.484,87.273L108.553,87.727L108.621,86.591L108.69,88.182L108.758,88.636L108.827,87.955L108.895,86.818L108.964,85L109.032,86.364L109.101,86.818L109.169,87.5L109.237,86.818L109.306,86.591L109.374,83.636L109.443,83.636L109.511,85.909L109.58,86.364L109.648,88.864L109.717,89.091L109.785,88.636L109.853,87.5L109.922,86.136L109.99,86.818L110.059,85L110.127,86.136L110.196,86.818L110.264,87.727L110.333,86.136L110.401,86.591L110.469,89.318L110.538,90.682L110.606,90.909L110.675,92.955L110.743,92.045L110.812,91.818L110.88,91.591L110.949,92.273L111.017,92.727L111.085,92.273L111.154,91.818L111.222,92.5L111.291,91.136L111.359,90L111.428,91.591L111.496,90.227L111.565,88.864L111.633,90.455L111.701,91.591L111.77,90.909L111.838,92.045L111.907,92.955L111.975,93.864L112.044,95L112.112,97.955L112.181,98.409L112.249,95.227L112.317,94.773L112.386,95L112.454,94.545L112.523,92.727L112.591,92.727L112.66,93.182L112.728,91.364L112.797,91.364L112.865,90.227L112.933,89.773L113.002,90L113.07,91.591L113.139,91.136L113.207,90.682L113.276,90.682L113.344,91.818L113.413,90.455L113.481,88.409L113.55,89.773L113.618,90.455L113.686,87.727L113.755,86.364L113.823,87.955L113.892,86.364L113.96,85.227L114.029,85.682L114.097,84.091L114.166,80.455L114.234,78.864L114.302,80.227L114.371,78.409L114.439,77.955L114.508,77.955L114.576,78.409L114.645,78.864L114.713,76.364L114.782,77.727L114.85,75.909L114.918,77.5L114.987,79.545L115.055,77.955L115.124,76.591L115.192,76.364L115.261,75.909L115.329,75L115.398,75.682L115.466,77.727L115.534,80.682L115.603,80.227L115.671,78.864L115.74,79.318L115.808,80L115.877,79.091L115.945,79.545L116.014,81.364L116.082,80.455L116.15,81.591L116.219,82.955L116.287,83.409L116.356,84.773L116.424,86.364L116.493,87.273L116.561,86.591L116.63,87.727L116.698,87.727L116.766,89.091L116.835,89.318L116.903,90L116.972,89.773L117.04,87.5L117.109,88.409L117.177,88.636L117.246,90.227L117.314,90L117.383,90.227L117.451,91.136L117.519,90.455L117.588,88.409L117.656,87.5L117.725,89.545L117.793,90.455L117.862,90.682L117.93,92.045L117.999,90.227L118.067,89.091L118.135,87.727L118.204,86.591L118.272,88.409L118.341,89.318L118.409,90L118.478,89.091L118.546,87.955L118.615,87.045L118.683,85.455L118.751,83.636L118.82,82.955L118.888,83.182L118.957,83.864L119.025,82.273L119.094,84.091L119.162,84.318L119.231,83.636L119.299,83.636L119.367,84.318L119.436,84.091L119.504,82.727L119.573,83.182L119.641,84.773L119.71,85.455L119.778,84.318L119.847,84.318L119.915,84.318L119.983,82.955L120.052,84.318L120.12,83.409L120.189,85L120.257,86.818L120.326,86.591L120.394,85.909L120.463,84.091L120.531,85.682L120.599,87.273L120.668,88.636L120.736,89.773L120.805,89.773L120.873,88.636L120.945,86.591L121.013,86.364L121.081,86.591L121.15,85.227L121.218,85.909L121.287,87.273L121.355,86.136L121.424,85.455L121.492,84.318L121.561,85L121.629,86.136L121.697,86.818L121.766,87.727L121.834,87.273L121.903,87.045L121.971,86.136L122.04,87.5L122.108,87.727L122.177,89.091L122.245,90L122.313,88.409L122.382,88.182L122.45,88.636L122.519,90L122.587,91.136L122.656,90.682L122.724,90.909L122.793,88.864L122.861,90L122.93,91.364L122.998,93.636L123.066,95.227L123.135,96.818L123.203,97.727L123.272,96.136L123.34,95.227L123.409,95.682L123.477,96.818L123.546,97.955L123.614,98.182L123.682,97.955L123.751,98.182L123.819,97.273L123.888,97.727L123.956,97.955L124.025,98.864L124.093,97.955L124.162,99.318L124.23,99.318L124.298,97.5L124.367,97.5L124.435,97.273L124.504,96.818L124.572,96.818L124.641,96.136L124.709,95.682L124.778,95L124.846,96.364L124.914,96.818L124.983,96.818L125.051,97.045L125.12,95.682L125.188,95.455L125.257,95.909L125.325,96.818L125.394,96.364L125.462,95.455L125.53,95L125.599,95.455L125.667,95L125.736,94.318L125.804,94.091L125.873,93.636L125.941,94.091L126.01,94.091L126.078,94.091L126.146,95L126.215,93.409L126.283,92.955L126.352,93.636L126.42,94.318L126.489,96.136L126.557,97.273L126.626,96.364L126.694,94.545L126.762,95.227L126.831,95L126.899,95.455L126.968,94.773L127.036,94.773L127.105,93.636L127.173,92.955L127.242,92.5L127.31,93.182L127.379,93.182L127.447,93.864L127.515,95L127.584,95.227L127.652,94.318L127.721,94.773L127.789,94.091L127.858,92.727L127.926,93.864L127.995,94.773L128.063,94.091L128.131,94.318L128.2,94.091L128.268,95L128.337,94.091L128.405,95.909L128.474,96.136L128.542,92.727L128.611,91.364L128.679,92.273L128.747,93.182L128.816,92.727L128.884,93.182L128.953,94.091L129.021,93.864L129.09,93.409L129.158,94.545L129.227,95.227L129.295,95.909L129.363,95L129.432,95.682L129.5,95.455L129.569,93.864L129.637,93.864L129.706,94.091L129.774,93.409L129.843,93.182L129.911,94.091L129.979,93.409L130.045,92.045L130.114,91.364L130.182,90.909L130.25,91.364L130.319,92.5L130.387,93.182L130.456,91.591L130.524,91.591L130.593,93.182L130.661,93.636L130.73,94.091L130.798,94.318L130.866,94.773L130.935,93.636L131.003,93.409L131.072,93.182L131.14,93.182L131.209,92.955L131.277,93.636L131.346,93.864L131.414,92.045L131.482,91.591L131.551,92.045L131.619,93.636L131.688,94.091L131.756,95.455L131.825,95.909L131.893,97.273L131.962,95.227L132.03,95.682L132.098,96.136L132.167,97.5L132.235,97.955L132.304,97.5L132.372,95.909L132.441,97.045L132.509,97.045L132.578,94.091L132.646,95.227L132.714,94.773L132.783,93.864L132.851,93.182L132.92,92.727L132.988,93.864L133.057,93.409L133.125,93.409L133.194,95.455L133.262,96.136L133.33,95.909L133.399,92.727L133.467,92.727L133.536,91.364L133.604,90.682L133.673,90.227L133.741,89.318L133.81,87.273L133.878,85.682L133.946,84.773L134.015,86.364L134.083,85.682L134.152,85.682L134.22,86.591L134.289,85.455L134.357,84.318L134.426,85L134.494,84.545L134.563,84.545L134.631,87.045L134.699,87.5L134.768,87.5L134.836,87.045L134.905,88.182L134.973,88.182L135.042,87.5L135.11,88.409L135.179,88.182L135.247,85.227L135.315,84.091L135.384,83.182L135.452,85.227L135.521,86.136L135.589,88.182L135.658,87.955L135.726,87.273L135.795,88.636L135.863,89.318L135.931,90.455L136,90.909L136.068,92.273L136.137,93.409L136.205,92.273L136.274,91.364L136.342,92.273L136.411,93.636L136.479,92.5L136.547,92.5L136.616,92.727L136.684,91.818L136.753,90.682L136.821,89.773L136.89,90L136.958,89.545L137.027,90.682L137.095,90.455L137.163,89.091L137.232,90L137.3,91.591L137.369,91.591L137.437,92.045L137.506,92.273L137.574,92.955L137.643,91.364L137.711,92.273L137.779,91.136L137.848,89.318L137.916,87.955L137.985,88.636L138.053,89.318L138.122,86.364L138.19,84.773L138.259,85L138.327,84.091L138.396,83.636L138.464,81.818L138.532,82.273L138.601,80.682L138.669,79.318L138.738,79.545L138.806,79.545L138.875,81.364L138.943,81.818L139.012,81.591L139.08,79.773L139.148,79.773L139.217,78.409L139.285,77.955L139.354,78.409L139.422,78.636L139.491,77.955L139.559,77.045L139.628,76.591L139.696,76.136L139.764,73.864L139.833,75.455L139.901,76.818L139.97,77.727L140.038,77.273L140.107,76.364L140.175,78.636L140.244,79.091L140.312,78.864L140.38,79.545L140.449,79.545L140.517,79.773L140.586,79.773L140.654,79.318L140.723,80.227L140.791,78.864L140.86,78.409L140.928,77.727L140.996,76.818L141.065,77.045L141.133,76.364L141.202,75.227L141.27,75.227L141.339,75.909L141.407,76.136L141.476,74.091L141.544,72.273L141.612,72.273L141.681,72.5L141.749,72.727L141.818,74.091L141.886,73.636L141.955,71.364L142.023,71.591L142.092,71.591L142.16,68.636L142.228,68.636L142.297,68.636L142.365,70L142.434,70L142.502,67.955L142.571,66.818L142.639,65.682L142.708,66.591L142.776,66.818L142.845,67.955L142.913,67.5L142.981,65.682L143.05,65.909L143.118,65.909L143.187,66.818L143.255,68.409L143.324,69.318L143.392,69.318L143.461,67.955L143.529,69.091L143.597,71.136L143.666,71.136L143.734,72.045L143.803,72.955L143.871,72.5L143.94,70.909L144.008,70.455L144.077,69.773L144.145,68.409L144.213,71.136L144.282,71.818L144.35,70L144.419,69.091L144.487,68.409L144.556,70.455L144.624,70.455L144.693,71.364L144.761,72.5L144.829,72.045L144.898,72.955L144.966,72.5L145.035,74.091L145.103,74.773L145.172,74.773L145.24,75.455L145.309,75.455L145.377,76.136L145.445,75.682L145.514,77.955L145.582,78.409L145.651,78.864L145.719,79.545L145.788,77.5L145.856,76.591L145.925,77.5L145.993,80.227L146.061,82.727L146.13,85.227L146.198,87.5L146.267,88.409L146.338,86.591L146.407,89.773L146.475,90.455L146.543,89.318L146.612,90.455L146.68,92.727L146.749,91.818L146.817,90.909L146.886,90.909L146.954,90.682L147.023,91.364L147.091,92.5L147.159,91.591L147.228,89.545L147.296,89.091L147.365,89.318L147.433,88.864L147.502,89.545L147.57,89.318L147.639,88.636L147.707,88.409L147.775,87.5L147.844,87.727L147.912,89.091L147.981,89.545L148.049,88.636L148.118,88.409L148.186,85.455L148.255,83.864L148.323,82.273L148.392,82.045L148.46,80.909L148.528,80.682L148.597,82.045L148.665,81.136L148.734,78.409L148.802,79.091L148.871,79.091L148.939,80L149.008,80.227L149.076,80.909L149.144,79.773L149.213,80.227L149.281,80.455L149.35,79.773L149.418,80.909L149.487,82.5L149.555,81.364L149.624,78.864L149.692,78.636L149.76,77.5L149.829,78.636L149.897,78.182L149.966,77.727L150.034,77.5L150.103,74.318L150.171,72.955L150.24,73.182L150.308,72.955L150.376,74.318L150.445,75.682L150.513,75.682L150.582,74.773L150.65,72.5L150.719,72.727L150.787,73.864L150.856,73.409L150.924,73.409L150.992,73.409L151.061,73.182L151.129,73.409L151.198,74.091L151.266,74.545L151.335,75.909L151.403,77.5L151.472,77.045L151.54,74.545L151.608,74.773L151.677,76.364L151.745,78.409L151.814,80.227L151.882,80.455L151.951,82.045L152.019,81.364L152.088,81.591L152.156,85.227L152.225,86.591L152.293,88.409L152.361,89.318L152.43,89.545L152.498,89.318L152.567,89.091L152.635,90L152.704,91.818L152.772,90.455L152.841,92.273L152.909,93.636L152.977,93.636L153.046,93.182L153.114,92.273L153.183,92.273L153.251,91.818L153.32,91.591L153.388,92.5L153.457,90.682L153.525,88.864L153.593,90L153.662,90L153.73,89.318L153.799,88.409L153.867,87.727L153.936,87.045L154.004,85.227L154.073,86.591L154.141,84.318L154.209,82.727L154.278,82.5L154.346,82.273L154.415,81.364L154.483,80.455L154.552,80.455L154.62,79.545L154.689,79.545L154.757,80.682L154.825,82.727L154.894,81.364L154.96,81.136L155.028,81.364L155.096,81.364L155.165,82.045L155.233,82.727L155.302,82.955L155.37,83.182L155.439,80.682L155.507,80L155.576,81.364L155.644,81.591L155.712,81.364L155.781,80.909L155.849,79.318L155.918,77.727L155.986,78.409L156.055,79.773L156.123,79.318L156.192,82.273L156.26,83.409L156.328,82.5L156.397,80L156.465,80L156.534,77.5L156.602,76.136L156.671,78.636L156.739,79.773L156.808,77.273L156.876,74.318L156.944,73.636L157.013,73.409L157.081,73.636L157.15,74.545L157.218,75.227L157.287,72.955L157.355,70.682L157.424,69.773L157.492,70.909L157.56,72.955L157.629,72.955L157.697,72.955L157.766,72.5L157.834,72.045L157.903,72.5L157.971,74.091L158.04,73.864L158.108,75L158.176,75.455L158.245,75.227L158.313,73.636L158.382,74.091L158.45,75.682L158.519,75.909L158.587,79.091L158.656,79.318L158.724,77.5L158.792,76.136L158.861,78.182L158.929,78.409L158.998,77.955L159.066,79.318L159.135,80.227L159.203,78.636L159.272,76.591L159.34,77.955L159.409,79.545L159.477,79.318L159.545,80.682L159.614,80.909L159.682,78.182L159.751,77.045L159.819,78.409L159.888,79.545L159.956,81.136L160.025,81.364L160.093,80.227L160.161,78.182L160.23,76.136L160.298,75.227L160.367,75.455L160.435,76.818L160.504,77.045L160.572,78.636L160.641,77.727L160.709,76.818L160.777,78.409L160.846,78.409L160.914,78.409L160.983,80.227L161.051,82.273L161.12,80.909L161.188,79.318L161.257,78.636L161.325,79.318L161.393,79.318L161.462,80.227L161.599,80.909L161.667,78.864L161.736,78.864L161.804,81.136L161.873,83.182L161.941,83.636L162.009,84.545L162.078,83.864L162.146,82.5L162.215,83.409L162.283,85L162.352,86.364L162.42,86.818L162.489,87.955L162.557,87.727L162.625,86.591L162.694,85.227L162.762,86.136L162.831,88.636L162.899,88.864L162.968,90L163.036,88.864L163.105,88.182L163.173,88.636L163.242,88.636L163.31,89.091L163.378,92.045L163.447,92.955L163.515,93.636L163.584,93.409L163.652,93.864L163.721,94.091L163.789,92.727L163.858,92.955L163.926,93.182L163.994,92.045L164.063,91.136L164.131,91.364L164.2,92.955L164.268,93.182L164.337,93.864L164.405,94.318L164.474,91.818L164.542,90.455L164.61,89.773L164.679,90.455L164.747,91.591L164.816,92.273L164.884,92.727L164.953,92.5L165.021,91.364L165.09,91.591L165.158,92.273L165.226,89.773L165.295,89.091L165.363,89.318L165.432,87.273L165.5,86.591L165.569,85.455L165.637,85.227L165.706,85.455L165.774,87.045L165.842,88.182L165.911,87.955L165.979,86.818L166.048,86.364L166.116,85L166.185,84.773L166.253,84.545L166.322,85L166.39,84.545L166.458,83.636L166.527,84.545L166.595,86.364L166.664,87.273L166.732,88.182L166.801,87.5L166.869,85.909L166.938,85L167.006,84.773L167.074,85.227L167.143,86.364L167.211,86.818L167.28,89.318L167.348,89.545L167.417,88.409L167.485,89.318L167.554,90.227L167.622,90.227L167.691,90.682L167.759,90.227L167.827,89.091L167.896,87.045L167.964,87.727L168.033,87.5L168.101,87.5L168.17,88.864L168.238,89.318L168.307,87.5L168.375,85.227L168.443,84.091L168.512,83.409L168.58,84.318L168.649,84.091L168.717,84.091L168.786,83.636L168.854,84.318L168.923,84.773L168.991,85.227L169.059,85L169.128,85.909L169.196,86.364L169.265,84.773L169.333,84.545L169.402,85.227L169.47,85.909L169.539,84.318L169.607,84.091L169.675,83.636L169.744,81.591L169.812,81.136L169.881,81.818L169.949,82.5L170.018,82.045L170.086,82.045L170.155,82.955L170.223,83.182L170.291,83.636L170.36,86.364L170.428,88.636L170.497,89.318L170.565,91.136L170.634,91.364L170.702,90L170.771,89.318L170.839,90.682L170.907,89.091L170.976,90.909L171.044,90.682L171.113,91.591L171.181,91.136L171.253,90.455L171.321,92.727L171.389,91.136L171.458,90.455L171.526,91.591L171.595,93.864L171.663,93.409L171.732,93.409L171.8,96.136L171.869,95.455L171.937,95L172.005,96.818L172.074,97.727L172.142,98.182L172.211,98.409L172.279,99.091L172.348,99.318L172.416,98.636L172.485,99.091L172.553,99.545L172.621,99.545L172.69,100.455L172.758,102.955L172.827,103.182L172.895,103.636L172.964,104.773L173.032,104.091L173.101,103.636L173.169,102.045L173.238,101.364L173.306,100.682L173.374,97.955L173.443,99.091L173.511,100.227L173.58,99.545L173.648,99.545L173.717,100.909L173.785,100.909L173.854,99.091L173.922,100.682L173.99,101.591L174.059,102.045L174.127,100.909L174.196,100.682L174.264,100.455L174.333,100.682L174.401,99.318L174.47,99.318L174.538,97.955L174.606,98.182L174.675,97.045L174.743,96.136L174.812,94.773L174.88,95.227L174.949,94.318L175.017,93.409L175.086,92.273L175.154,91.818L175.222,92.273L175.291,93.182L175.359,93.636L175.428,96.136L175.496,95.455L175.565,94.773L175.633,95.227L175.702,94.091L175.77,93.409L175.838,94.545L175.907,95.227L175.975,94.318L176.044,94.318L176.112,94.091L176.181,94.545L176.249,93.864L176.318,92.955L176.386,92.045L176.454,91.591L176.523,91.364L176.591,90.682L176.66,87.955L176.728,87.727L176.797,87.727L176.865,87.5L176.934,87.045L177.002,87.273L177.07,87.5L177.139,86.591L177.207,87.273L177.276,87.727L177.344,87.5L177.413,86.818L177.481,85.455L177.55,84.318L177.618,85.455L177.687,84.545L177.755,86.364L177.823,85L177.892,83.409L177.96,83.182L178.029,83.409L178.097,82.955L178.166,82.045L178.234,82.955L178.303,83.864L178.371,85.909L178.439,84.773L178.508,85.227L178.576,85.455L178.645,86.136L178.713,89.545L178.782,91.136L178.85,91.818L178.919,90.682L178.987,90L179.055,88.636L179.124,88.409L179.192,91.136L179.261,92.273L179.329,92.955L179.398,92.5L179.466,92.5L179.535,91.818L179.603,94.545L179.671,93.864L179.74,95.227L179.808,93.636L179.874,94.545L179.942,96.591L180.011,95.455L180.079,95L180.148,95.909L180.216,95.682L180.285,93.636L180.353,91.591L180.422,91.818L180.49,92.727L180.558,93.409L180.627,93.182L180.695,93.864L180.764,91.364L180.832,90.227L180.901,88.864L180.969,90L181.038,90.227L181.106,91.591L181.174,91.591L181.243,90.227L181.311,88.864L181.38,87.045L181.448,86.591L181.517,87.5L181.585,89.318L181.654,88.864L181.722,87.955L181.79,85.909L181.859,84.091L181.927,85L181.996,84.318L182.064,85.909L182.133,87.045L182.201,84.773L182.27,85.227L182.338,85.909L182.406,88.864L182.475,87.727L182.543,88.636L182.612,89.773L182.68,89.318L182.749,88.636L182.817,89.091L182.886,89.318L182.954,91.136L183.022,92.727L183.091,93.864L183.159,94.773L183.228,94.545L183.296,94.091L183.365,95L183.433,95.455L183.502,97.045L183.57,97.727L183.638,95.227L183.707,94.545L183.775,94.773L183.844,95.227L183.912,96.591L183.981,97.5L184.049,97.045L184.118,96.364L184.186,96.591L184.255,97.045L184.323,97.955L184.391,98.864L184.46,98.182L184.528,98.409L184.597,98.864L184.665,97.5L184.734,98.409L184.802,98.864L184.871,101.136L184.939,101.818L185.007,101.591L185.076,101.364L185.144,99.773L185.213,98.409L185.281,98.182L185.35,99.318L185.418,98.182L185.487,97.727L185.555,97.045L185.623,96.364L185.692,97.727L185.76,97.955L185.829,99.091L185.897,100.227L185.966,101.364L186.034,98.864L186.103,98.636L186.171,99.773L186.239,99.545L186.308,101.364L186.376,100.227L186.445,100.455L186.513,100L186.582,98.864L186.65,97.273L186.719,97.955L186.787,97.727L186.855,98.864L186.924,97.5L186.992,96.591L187.061,94.773L187.129,93.864L187.198,95L187.266,94.091L187.335,94.545L187.403,94.545L187.471,95L187.54,94.773L187.608,94.773L187.677,95.455L187.745,95.227L187.814,95.909L187.882,95.682L187.951,94.318L188.019,92.955L188.087,92.955L188.156,93.409L188.224,92.273L188.293,92.273L188.361,91.364L188.43,90.682L188.498,89.318L188.567,89.545L188.635,89.773L188.704,90.909L188.772,90.909L188.84,91.136L188.909,90L188.977,91.364L189.046,92.273L189.114,92.727L189.183,92.955L189.251,93.864L189.32,94.545L189.388,93.636L189.456,92.955L189.525,93.182L189.593,94.545L189.662,94.545L189.73,93.636L189.799,93.636L189.867,92.5L189.936,91.364L190.004,93.409L190.072,92.955L190.141,94.318L190.209,95L190.278,96.136L190.346,95L190.415,93.182L190.483,93.864L190.552,92.955L190.62,91.818L190.688,92.045L190.757,90.909L190.825,88.182L190.894,87.045L190.962,85.455L191.031,82.045L191.099,80.682L191.168,82.5L191.236,80.909L191.304,78.636L191.373,77.273L191.441,78.409L191.51,76.818L191.578,75L191.647,75L191.715,74.773L191.784,75.682L191.852,74.091L191.92,73.864L191.989,74.545L192.057,72.273L192.126,73.864L192.194,73.864L192.263,72.273L192.331,71.818L192.4,71.136L192.468,73.409L192.537,74.091L192.605,75.909L192.673,76.818L192.742,76.136L192.81,75L192.879,76.591L192.947,77.5L193.016,78.182L193.084,79.773L193.153,80.455L193.221,79.318L193.289,79.773L193.358,80.455L193.426,82.727L193.495,82.727L193.563,84.545L193.632,87.273L193.7,87.5L193.769,85.682L193.837,85.227L193.905,86.364L193.974,86.591L194.042,87.273L194.111,88.864L194.179,87.955L194.248,87.5L194.316,89.091L194.385,89.545L194.453,90.455L194.521,90.455L194.59,90.909L194.658,89.773L194.727,90.227L194.795,90.227L194.864,90.909L194.932,91.591L195.001,92.5L195.069,94.318L195.137,94.318L195.206,94.545L195.274,95L195.343,97.273L195.411,98.409L195.48,97.727L195.548,99.091L195.617,98.409L195.685,97.727L195.753,96.591L195.822,98.182L195.89,98.864L195.959,100.227L196.027,99.545L196.096,98.864L196.167,99.318L196.235,98.864L196.304,98.182L196.372,97.955L196.441,97.5L196.509,98.864L196.578,97.273L196.646,96.364L196.715,95.227L196.783,95.227L196.851,97.273L196.92,98.409L196.988,97.045L197.057,96.364L197.125,95.909L197.194,95.909L197.262,95L197.331,93.636L197.399,93.409L197.467,93.409L197.536,94.091L197.604,92.727L197.673,92.273L197.741,91.136L197.81,92.045L197.878,92.273L197.947,92.5L198.015,92.5L198.084,94.318L198.152,94.773L198.22,94.091L198.289,95.682L198.357,97.273L198.426,97.955L198.494,98.182L198.563,97.727L198.631,99.318L198.7,99.091L198.768,101.818L198.836,101.818L198.905,101.364L198.973,100L199.042,101.364L199.11,101.136L199.179,100.682L199.247,101.136L199.316,102.727L199.384,103.864L199.452,103.182L199.521,103.864L199.589,102.955L199.658,104.318L199.726,105.227L199.795,107.045L199.863,106.591L199.932,106.591L200,105.909L200.068,106.818L200.137,107.045L200.205,106.136L200.274,105.909L200.342,105.682L200.411,105.455L200.479,104.545L200.548,105L200.616,104.545L200.684,104.773L200.753,105.455L200.821,105.682L200.89,104.545L200.958,103.636L201.027,104.318L201.095,102.727L201.164,103.182L201.232,104.545L201.3,105.682L201.369,103.636L201.437,104.545L201.506,105.682L201.574,104.773L201.643,105.909L201.711,105.909L201.78,106.591L201.848,106.364L201.916,106.364L201.985,105.682L202.053,105.909L202.122,105.227L202.19,105.682L202.259,106.591" stroke="#4c78a8" stroke-width="2"/></g><g class="mark-group role-title"><g transform="translate(100,-17)"><path class="background" aria-hidden="true" d="M0,0h0v0h0Z" pointer-events="none"/><g><g class="mark-text role-title-text" role="graphics-symbol" aria-roledescription="title" aria-label="Title text 'Rodent: Mouse Sighting'" pointer-events="none"><text text-anchor="middle" transform="translate(0,10)" font-family="sans-serif" font-size="13px" font-weight="bold" fill="#000" opacity="1">Rodent: Mouse Sighting</text></g></g><path class="foreground" aria-hidden="true" d="" pointer-events="none" display="none"/></g></g></g><path class="foreground" aria-hidden="true" d="" display="none"/></g></g></g><defs><clipPath id="clip140"><rect x="0" y="0" width="200" height="150"/></clipPath></defs></svg>