<svg xmlns="http://www.w3.org/2000/svg" xmlns:xlink="http://www.w3.org/1999/xlink" version="1.1" class="marks" width="396" height="199" viewBox="0 0 396 199"><rect width="396" height="199" fill="white"/><g fill="none" stroke-miterlimit="10" transform="translate(98,27)"><g class="mark-group role-frame root" role="graphics-object" aria-roledescription="group mark container"><g transform="translate(0,0)"><path class="background" aria-hidden="true" d="M0,0h200v150h-200Z"/><g><g class="mark-group role-axis" aria-hidden="true"><g transform="translate(0.5,0.5)"><path class="background" aria-hidden="true" d="M0,0h0v0h0Z" pointer-events="none"/><g><g class="mark-rule role-axis-grid" pointer-events="none"><line transform="translate(0,150)" x2="200" y2="0" stroke="#ddd" stroke-width="1" opacity="1"/><line transform="translate(0,120)" x2="200" y2="0" stroke="#ddd" stroke-width="1" opacity="1"/><line transform="translate(0,90)" x2="200" y2="0" stroke="#ddd" stroke-width="1" opacity="1"/><line transform="translate(0,60)" x2="200" y2="0" stroke="#ddd" stroke-width="1" opacity="1"/><line transform="translate(0,30)" x2="200" y2="0" stroke="#ddd" stroke-width="1" opacity="1"/><line transform="translate(0,0)" x2="200" y2="0" stroke="#ddd" stroke-width="1" opacity="1"/></g></g><path class="foreground" aria-hidden="true" d="" pointer-events="none" display="none"/></g></g><g class="mark-group role-axis" role="graphics-symbol" aria-roledescription="axis" aria-label="X-axis for a time scale with values from Friday, 01 January 2016, 12:00:00 AM to Monday, 01 January 2024, 12:00:00 AM"><g transform="translate(0.5,150.5)"><path class="background" aria-hidden="true" d="M0,0h0v0h0Z" pointer-events="none"/><g><g class="mark-rule role-axis-tick" pointer-events="none"><line transform="translate(0,0)" x2="0" y2="5" stroke="#888" stroke-width="1" opacity="1"/><line transform="translate(50,0)" x2="0" y2="5" stroke="#888" stroke-width="1" opacity="1"/><line transform="translate(100,0)" x2="0" y2="5" stroke="#888" stroke-width="1" opacity="1"/><line transform="translate(150,0)" x2="0" y2="5" stroke="#888" stroke-width="1" opacity="1"/><line transform="translate(200,0)" x2="0" y2="5" stroke="#888" stroke-width="1" opacity="1"/></g><g class="mark-text role-axis-label" pointer-events="none"><text text-anchor="start" transform="translate(0,15)" font-family="sans-serif" font-size="10px" fill="#000" opacity="1">2016</text><text text-anchor="middle" transform="translate(50.03422313483915,15)" font-family="sans-serif" font-size="10px" fill="#000" opacity="1">2018</text><text text-anchor="middle" transform="translate(100,15)" font-family="sans-serif" font-size="10px" fill="#000" opacity="1">2020</text><text text-anchor="middle" transform="translate(150.03422313483915,15)" font-family="sans-serif" font-size="10px" fill="#000" opacity="1">2022</text><text text-anchor="end" transform="translate(200,15)" font-family="sans-serif" font-size="10px" fill="#000" opacity="1">2024</text></g><g class="mark-rule role-axis-domain" pointer-events="none"><line transform="translate(0,0)" x2="200" y2="0" stroke="#888" stroke-width="1" opacity="1"/></g></g><path class="foreground" aria-hidden="true" d="" pointer-events="none" display="none"/></g></g><g class="mark-group role-axis" role="graphics-symbol" aria-roledescription="axis" aria-label="Y-axis for a linear scale with values from 0 to 100"><g transform="translate(0.5,0.5)"><path class="background" aria-hidden="true" d="M0,0h0v0h0Z" pointer-events="none"/><g><g class="mark-rule role-axis-tick" pointer-events="none"><line transform="translate(0,150)" x2="-5" y2="0" stroke="#888" stroke-opacity="0" stroke-width="1" opacity="1"/><line transform="translate(0,120)" x2="-5" y2="0" stroke="#888" stroke-opacity="0" stroke-width="1" opacity="1"/><line transform="translate(0,90)" x2="-5" y2="0" stroke="#888" stroke-opacity="0" stroke-width="1" opacity="1"/><line transform="translate(0,60)" x2="-5" y2="0" stroke="#888" stroke-opacity="0" stroke-width="1" opacity="1"/><line transform="translate(0,30)" x2="-5" y2="0" stroke="#888" stroke-opacity="0" stroke-width="1" opacity="1"/><line transform="translate(0,0)" x2="-5" y2="0" stroke="#888" stroke-opacity="0" stroke-width="1" opacity="1"/></g><g class="mark-text role-axis-label" pointer-events="none"><text text-anchor="end" transform="translate(-7,153)" font-family="sans-serif" font-size="10px" fill="#000" opacity="1">0</text><text text-anchor="end" transform="translate(-7,123)" font-family="sans-serif" font-size="10px" fill="#000" opacity="1">20</text><text text-anchor="end" transform="translate(-7,93)" font-family="sans-serif" font-size="10px" fill="#000" opacity="1">40</text><text text-anchor="end" transform="translate(-7,63)" font-family="sans-serif" font-size="10px" fill="#000" opacity="1">60</text><text text-anchor="end" transform="translate(-7,32.99999999999999)" font-family="sans-serif" font-size="10px" fill="#000" opacity="1">80</text><text text-anchor="end" transform="translate(-7,3)" font-family="sans-serif" font-size="10px" fill="#000" opacity="1">100</text></g></g><path class="foreground" aria-hidden="true" d="" pointer-events="none" display="none"/></g></g><g class="mark-line role-mark marks" clip-path="url(#clip141)" role="graphics-object" aria-roledescription="line mark container"><path aria-label="day: Jun 29, 2019; avg: 36.6666666667" role="graphics-symbol" aria-roledescription="line mark" d="M87.266,95L87.335,93.05L87.403,90.95L87.471,88.95L87.54,86.85L87.608,86.85L87.677,92.1L87.745,92.55L87.814,91.7L87.882,91.15L87.951,90.3L88.019,90.25L88.087,89.7L88.156,90.95L88.224,92.4L88.293,91.05L88.361,90.8L88.43,90.85L88.498,92.2L88.567,92.25L88.635,93.1L88.704,96.05L88.772,95.7L88.84,94.5L88.909,93.85L88.977,92.7L89.046,94.4L89.114,95.85L89.183,97.4L89.251,97.25L89.32,96.15L89.388,96.75L89.456,97.55L89.525,98.15L89.593,100.15L89.662,101.4L89.73,101.7L89.799,102.6L89.867,101.55L89.936,100.55L90.004,101.7L90.072,102.7L90.141,103.15L90.209,101.9L90.278,99.45L90.346,99.85L90.415,101.9L90.483,103.25L90.552,104.95L90.62,106.85L90.688,100.2L90.757,98.5L90.825,98.15L90.894,97.5L90.962,96.9L91.031,98.05L91.099,81L91.168,78.3L91.236,77.2L91.304,76.75L91.373,76.25L91.441,74.5L91.51,73.75L91.578,73L91.647,72.15L91.715,70.15L91.784,67.3L91.852,66.1L91.92,66.15L91.989,66.5L92.057,66.95L92.126,65.9L92.194,64.55L92.263,64.5L92.331,65.5L92.4,64.9L92.468,63.7L92.537,63.45L92.605,62.2L92.673,60.85L92.742,67.55L92.81,67.75L92.879,68.55L92.947,69.4L93.016,70.85L93.084,69.65L93.153,84.65L93.221,84.5L93.289,84.5L93.358,85.55L93.426,85.1L93.495,87.5L93.563,87.5L93.632,88.3L93.7,87.05L93.769,88.75L93.837,88.75L93.905,88.8L93.974,75.65L94.042,69.55L94.111,52.05L94.179,47.1L94.248,37.5L94.316,27.1L94.385,4.15L94.453,4.2L94.521,3.65L94.59,3.15L94.658,3.4L94.727,3.6L94.795,2.45L94.864,3.15L94.932,3.9L95.001,4.4L95.069,4L95.137,4.15L95.206,5.85L95.274,7.85L95.343,8.75L95.411,8.25L95.48,9.65L95.548,8.95L95.617,9.65L95.685,10.3L95.753,12.8L95.822,13.05L95.89,16L95.959,17.2L96.03,32.05L96.099,38L96.167,53.75L96.235,59L96.304,70.3L96.372,81.35L96.441,106.45L96.509,106.5L96.578,106.45L96.646,106.75L96.715,106.5L96.783,107.1L96.851,107.55L96.92,108.25L96.988,107.15L97.057,106.75L97.125,106.45L97.194,107.05L97.262,107.2L97.331,107.5L97.399,108.7L97.467,110L97.536,110.75L97.604,111.55L97.673,111.8L97.741,110.85L97.81,110.1L97.878,110.5L97.947,109.9L98.015,110.45L98.084,109.4L98.152,110.25L98.22,112L98.289,112.65L98.357,112.6L98.426,112.85L98.494,111.6L98.563,111.95L98.631,111.55L98.7,110.55L98.768,110.2L98.836,109.1L98.905,109.7L98.973,108.8L99.042,107.7L99.11,106L99.179,106.7L99.247,107.2L99.316,107.8L99.384,108L99.452,107.7L99.521,106.7L99.589,103.95L99.658,102.45L99.726,102.45L99.795,103L99.863,101.05L99.932,98.25L100,96.25L100.068,94.3L100.137,94.65L100.205,94.95L100.274,93L100.342,91.35L100.411,90.95L100.479,89.75L100.548,89.55L100.616,88.95L100.684,88.25L100.753,88.3L100.821,88.15L100.89,89.25L100.958,87.8L101.027,84.25L101.095,85.75L101.164,87.25L101.232,87.5L101.3,87.15L101.369,86.35L101.437,86.4L101.506,86.1L101.574,86.65L101.643,87.65L101.711,87.45L101.78,85.9L101.848,84.15L101.916,84.4L101.985,85.2L102.053,87.3L102.122,86.95L102.19,85.9L102.259,84.25L102.327,85.1L102.396,86.2L102.464,84L102.533,84.55L102.601,85.1L102.669,85.45L102.738,86.85L102.806,86.75L102.875,86.55L102.943,86.45L103.012,88.1L103.08,93.25L103.149,94.75L103.217,96.15L103.285,95.95L103.354,96.85L103.422,97.95L103.491,98.75L103.559,99.9L103.628,100.65L103.696,102.85L103.765,105.1L103.833,107.75L103.901,110.65L103.97,113.35L104.038,115.6L104.107,116.6L104.175,119.2L104.244,121.65L104.312,124.55L104.381,126.55L104.449,128.45L104.517,132L104.586,133.1L104.651,134.35L104.72,136.15L104.788,137.7L104.857,139.6L104.925,141.75L104.994,142.9L105.062,144.05L105.131,144.3L105.199,144.35L105.268,144.4L105.336,144.9L105.404,145.25L105.473,145.4L105.541,145.6L105.61,145.5L105.747,145.5L105.815,145.55L105.884,145.3L105.952,145.25L106.157,144.9L106.226,144.7L106.294,144.6L106.431,144.65L106.5,144.55L106.568,144.3L106.705,144.25L106.773,143.8L106.842,143.9L106.91,143.6L106.979,143.85L107.047,143.7L107.116,143.7L107.184,143.45L107.321,143.25L107.389,143.2L107.458,142.85L107.595,142.9L107.663,142.65L107.732,142.75L107.8,142.85L107.868,143L107.937,142.95L108.005,142.9L108.074,142.9L108.142,143L108.211,142.8L108.279,143.05L108.348,143.5L108.416,142.9L108.484,143L108.553,143.25L108.758,143.4L108.827,143.35L108.895,143.25L108.964,143.5L109.032,143.55L109.101,143.9L109.169,143.7L109.237,143.85L109.306,143.95L109.374,143.95L109.443,143.6L109.511,143.95L109.58,144L109.648,144.05L109.717,144.5L109.785,144.35L109.853,144.6L109.922,144.75L109.99,144.7L110.059,144.55L110.127,144.6L110.196,144.25L110.264,144.15L110.333,144.15L110.401,143.9L110.469,143.65L110.538,143.65L110.606,144.2L110.675,144.4L110.743,144.25L110.812,144.15L110.88,143.8L110.949,144L111.017,143.85L111.085,143.75L111.154,143.85L111.222,143.75L111.291,143.45L111.359,143.2L111.428,143.2L111.496,143.35L111.565,143.15L111.633,142.65L111.701,141.25L111.77,140.95L111.838,140.85L111.907,140.85L111.975,140.4L112.044,140.25L112.112,140.15L112.181,139.75L112.249,140.05L112.317,140L112.386,139.55L112.454,139.3L112.523,139.5L112.591,139.5L112.728,139.3L112.797,139.3L112.865,139.55L112.933,139.4L113.002,139.65L113.07,139.5L113.139,139.4L113.207,139.1L113.276,138.85L113.344,138.5L113.413,138.5L113.481,138.45L113.55,138.5L113.618,138.6L113.686,138.3L113.755,138.55L113.823,139.65L113.892,139.6L113.96,139.4L114.029,138.6L114.097,138.75L114.166,138.65L114.234,138.85L114.302,139.2L114.371,139.1L114.439,138.65L114.508,138.7L114.576,138.9L114.645,138.6L114.713,138.4L114.782,138.55L114.85,138.45L114.918,138L114.987,138.1L115.055,137.85L115.124,137.75L115.192,137.4L115.261,137.7L115.329,137.4L115.398,137.35L115.466,137.25L115.534,137.3L115.603,136.05L115.671,135.5L115.74,135.3L115.808,134.8L115.877,134.35L115.945,133.85L116.014,134L116.082,134.55L116.15,134.3L116.219,134.15L116.287,130.85L116.356,130.45L116.424,130.5L116.493,130.85L116.561,130.65L116.63,130.6L116.698,130.65L116.766,130.35L116.835,130.2L116.903,129.85L116.972,128.9L117.04,128.65L117.109,128.3L117.177,127.95L117.246,127.85L117.314,126.15L117.383,126.45L117.451,126.05L117.519,126.35L117.588,126.4L117.656,127.4L117.725,127.7L117.793,128.35L117.862,128.8L117.93,129.3L117.999,130L118.067,129.7L118.135,129.6L118.204,129.3L118.272,129.4L118.341,132.5L118.409,132.8L118.478,132.75L118.546,132.35L118.615,132.85L118.683,133L118.751,132.9L118.82,132.85L118.888,131.4L118.957,131.35L119.025,132.2L119.094,132.15L119.162,132.15L119.231,132L119.299,132.25L119.367,133.7L119.436,133.9L119.504,133.9L119.573,133.1L119.641,133.1L119.71,133.25L119.778,133.45L119.847,133.2L119.915,133.25L119.983,133.2L120.052,132.85L120.12,132.65L120.189,132.25L120.257,132.1L120.326,131.35L120.394,130.5L120.463,130.7L120.531,130.65L120.599,131.05L120.668,131.15L120.736,130.05L120.805,130.2L120.873,130.2L120.945,131.7L121.013,131.8L121.081,131.9L121.15,132.1L121.218,132.4L121.287,131.3L121.355,130L121.424,129.3L121.492,128.65L121.561,129.2L121.629,130L121.697,129L121.766,129.1L121.834,128.55L121.903,128.35L121.971,128.8L122.04,128.7L122.108,128.55L122.177,129L122.245,129.55L122.313,129.8L122.382,129.6L122.45,130.5L122.519,130.3L122.587,130.25L122.656,130.25L122.724,130L122.793,131.15L122.861,131.4L122.93,130.7L122.998,130.85L123.066,130.75L123.135,130.85L123.203,130.45L123.272,130.4L123.34,132.1L123.409,133.5L123.477,134.3L123.546,134.85L123.614,135.15L123.751,134.2L123.819,134.95L123.888,134.35L123.956,134.75L124.025,135L124.093,134.9L124.162,135.05L124.298,135.5L124.367,135.3L124.435,135.35L124.504,135.7L124.572,136.8L124.641,136.85L124.778,136.7L124.846,136.95L124.914,137.2L124.983,137.4L125.051,137.4L125.12,137.4L125.188,138.45L125.257,138.6L125.325,138.95L125.394,139.05L125.462,139.15L125.53,139.65L125.599,138.25L125.667,138.35L125.736,138.2L125.804,138.05L125.873,138.1L125.941,138.1L126.01,138.55L126.078,138.8L126.146,138.95L126.215,138.3L126.283,138.35L126.352,138.4L126.42,137.75L126.489,138.25L126.557,137.75L126.626,137.45L126.694,137.6L126.762,137.45L126.831,137.15L126.899,136.9L126.968,135.5L127.036,135.15L127.105,134.1L127.173,133.5L127.242,133.7L127.31,132.25L127.379,130.85L127.447,130.9L127.515,131L127.584,130.65L127.721,130.95L127.789,130.1L127.858,129.25L127.926,127.75L127.995,126.5L128.063,126.1L128.131,125.25L128.2,125.35L128.268,124.6L128.337,125L128.405,124.45L128.474,122.35L128.542,122.85L128.611,120.6L128.679,118.6L128.747,118.95L128.816,118.55L128.884,116.85L128.953,116.5L129.021,116.45L129.09,117.6L129.158,117.6L129.227,116.95L129.295,116.85L129.363,116.2L129.432,116.55L129.5,117.75L129.569,116.55L129.637,115.05L129.706,114.9L129.774,115.8L129.843,116.2L129.911,116.9L129.979,118.6L130.045,119.45L130.114,120.8L130.182,121.1L130.25,121L130.319,121.1L130.387,120.1L130.456,118.6L130.524,120.35L130.593,120.45L130.661,122.5L130.73,124.65L130.798,123.85L130.866,124L130.935,125.5L131.003,125.95L131.072,125.4L131.14,124.1L131.209,123.8L131.277,123.7L131.346,124.2L131.414,124.4L131.482,125.2L131.551,125.05L131.619,125.75L131.688,125.2L131.756,124.75L131.825,124.05L131.893,124.2L131.962,124.4L132.03,123.7L132.098,123.35L132.167,122.35L132.235,120.55L132.304,119.3L132.372,119.8L132.441,120.8L132.509,120.45L132.578,120.5L132.646,120.3L132.714,120L132.783,120.05L132.851,120.65L132.92,120.45L132.988,120.05L133.057,120L133.125,120.7L133.194,120.2L133.262,120.85L133.33,122.7L133.399,122.8L133.467,122.45L133.536,122.65L133.604,122.2L133.673,122.85L133.741,124.55L133.81,124.15L133.878,122.8L133.946,122.4L134.015,121.75L134.083,122L134.152,122.05L134.22,121.15L134.289,123.2L134.357,122.6L134.426,122.65L134.494,122.5L134.563,124.25L134.631,124.2L134.699,124.05L134.768,124.1L134.836,124.05L134.905,124L134.973,122.45L135.042,122.6L135.11,122.25L135.179,121.45L135.247,123.15L135.315,122.5L135.384,121.05L135.452,120.55L135.521,121.05L135.589,120.85L135.658,121.5L135.726,121.4L135.795,121.55L135.863,121.55L135.931,123.95L136,123.65L136.068,124.3L136.137,124.25L136.205,124.8L136.274,126.5L136.342,126.1L136.411,127.85L136.479,126.8L136.547,127.1L136.616,126.3L136.684,126L136.753,126.45L136.821,126.35L136.89,125.6L136.958,124.1L137.027,125.4L137.095,125.8L137.163,126.35L137.232,127.05L137.3,126.65L137.369,127L137.437,128.55L137.506,128.85L137.574,128.85L137.643,128.8L137.711,127.95L137.779,127.7L137.848,127.95L137.916,129.2L137.985,128.7L138.053,129.7L138.122,129.8L138.19,130.4L138.259,130.45L138.327,130.25L138.396,129.7L138.464,129.8L138.532,130.7L138.601,130.3L138.669,130.65L138.738,131.2L138.806,129.3L138.875,129.7L138.943,129.75L139.012,131.85L139.08,132.2L139.148,131.9L139.217,132.2L139.285,132L139.354,132.2L139.422,132L139.491,131.6L139.559,131.05L139.628,130.4L139.696,130.05L139.764,131.1L139.833,131.1L139.901,131L139.97,130.95L140.038,131.55L140.107,131.4L140.175,130.85L140.244,130.3L140.312,130.15L140.38,129.25L140.449,127.6L140.517,127.35L140.586,126.55L140.654,126.2L140.723,126.95L140.791,126.55L140.86,128L140.928,127.7L140.996,127.25L141.065,126.2L141.133,126.55L141.202,126.15L141.27,125.7L141.339,126.1L141.407,124.9L141.476,124.5L141.544,124.15L141.612,124.25L141.681,124.9L141.749,124.25L141.818,123.6L141.886,123.1L141.955,122.6L142.023,121.75L142.092,120.6L142.16,120.35L142.228,119.9L142.297,120.1L142.365,119.5L142.434,120.5L142.502,122.25L142.571,122.45L142.639,123.05L142.708,122.8L142.776,122.45L142.845,122L142.913,122.15L142.981,122.15L143.05,122.65L143.118,122.6L143.187,121.65L143.255,121.7L143.324,121.4L143.392,120.6L143.461,121.5L143.529,121.6L143.597,121.85L143.666,121.45L143.734,120.6L143.803,121.2L143.871,120.4L143.94,120.9L144.008,120.3L144.077,120.8L144.145,120.85L144.213,120.75L144.282,121.2L144.35,120.5L144.419,121.05L144.487,119.4L144.556,119.75L144.624,119.3L144.693,119L144.761,119.8L144.829,119.4L144.898,119.7L144.966,118.65L145.035,118.15L145.103,118.55L145.172,118.75L145.24,117.8L145.309,117.75L145.377,117.35L145.445,117.05L145.514,116.75L145.582,116.8L145.651,116.5L145.719,117.05L145.788,117.5L145.856,117.1L145.925,116.55L145.993,114.85L146.061,114.95L146.13,114.25L146.198,115.1L146.267,113.5L146.338,113.4L146.407,112.65L146.475,111.4L146.543,112.65L146.612,112L146.68,112.45L146.749,112.5L146.817,112.25L146.886,112.6L146.954,112.7L147.023,111.2L147.091,111.75L147.159,111.9L147.228,112L147.296,113.2L147.365,113.25L147.433,114.2L147.502,115.3L147.57,116.5L147.639,117L147.707,117.7L147.775,117.7L147.844,118.15L147.912,118.65L147.981,120.25L148.049,121.9L148.118,122.35L148.186,122.85L148.255,122.75L148.323,124.3L148.392,124.65L148.46,126.45L148.528,128L148.597,128.6L148.665,129.85L148.734,129.75L148.802,129.6L148.871,129.5L148.939,129.25L149.008,129.9L149.076,132.15L149.144,132.15L149.213,131.45L149.281,131.3L149.35,131.1L149.418,130.95L149.487,130.65L149.555,130.45L149.624,129.45L149.692,128.35L149.76,127.9L149.829,127.7L149.897,127.2L149.966,127.8L150.034,128L150.103,127.9L150.171,128.35L150.24,127.3L150.308,126.55L150.376,126.5L150.445,124.95L150.513,123.6L150.582,121.95L150.65,117.7L150.719,116.65L150.787,116.2L150.856,115.55L150.924,114.8L150.992,115.5L151.061,114.3L151.129,113.15L151.198,112.05L151.266,111.95L151.335,112.55L151.403,113.35L151.472,113.7L151.54,113.75L151.608,113.65L151.677,113.65L151.745,114.35L151.814,114.3L151.882,114.1L151.951,113.45L152.019,110.5L152.088,109.5L152.156,108.15L152.225,107L152.293,107.1L152.361,106.45L152.43,106.35L152.498,107.1L152.567,106.35L152.635,106.35L152.704,109.25L152.772,109.35L152.841,110.15L152.909,111.45L152.977,111.65L153.046,109.2L153.114,108.7L153.183,109.15L153.251,108.45L153.32,109.05L153.388,108.6L153.457,107.25L153.525,106.25L153.593,104.65L153.662,103.7L153.73,103.25L153.799,103.15L153.867,102.45L153.936,101.85L154.004,101.65L154.073,102.5L154.141,102.15L154.209,102.6L154.278,103.2L154.346,103.9L154.415,103.3L154.483,102.15L154.552,101.75L154.62,102.15L154.689,101.55L154.757,100.75L154.825,100.4L154.894,98.85L154.96,97.8L155.028,97.35L155.096,98.75L155.165,99.4L155.233,100.3L155.302,101.95L155.37,101.05L155.439,100.35L155.507,101.1L155.576,101.3L155.644,102.1L155.712,100.05L155.781,100.55L155.849,100.6L155.918,100L155.986,99.65L156.055,99.6L156.123,98.9L156.192,99.25L156.26,99.9L156.328,99.65L156.397,98.8L156.465,99.05L156.534,97.9L156.602,96.4L156.671,97.3L156.739,99L156.808,100.55L156.876,100.45L156.944,100.5L157.013,99.65L157.081,99.8L157.15,98.8L157.218,99.05L157.287,97.75L157.355,96.75L157.424,95.1L157.492,93.75L157.56,92.15L157.629,92.35L157.697,92.45L157.766,94.55L157.834,92.9L157.903,91.9L157.971,91.25L158.04,91.15L158.108,92.05L158.176,93.65L158.245,94.3L158.313,93.95L158.382,93.3L158.45,92.9L158.519,92.5L158.587,93.6L158.656,95.35L158.724,94.05L158.792,92.95L158.861,91.95L158.929,91.35L158.998,91.2L159.066,92.7L159.135,93.95L159.203,95.6L159.272,93.45L159.34,93.4L159.409,93.05L159.477,94.65L159.545,96.6L159.614,96.15L159.682,96.95L159.751,96.4L159.819,96.5L159.888,96.65L159.956,93.55L160.025,94.65L160.093,95.9L160.161,94.5L160.23,94.25L160.298,93.45L160.367,92.2L160.435,92.75L160.504,92.7L160.572,94.35L160.641,96.35L160.709,97.1L160.777,98.3L160.846,99.55L160.914,100.35L160.983,102.4L161.051,101.85L161.12,101.6L161.188,100.6L161.257,99.9L161.325,101.7L161.393,102.7L161.462,104.2L161.53,105.7L161.599,105.5L161.667,106.8L161.736,106.35L161.804,106.05L161.873,105.25L161.941,105.45L162.009,108.2L162.078,108.5L162.146,108.35L162.215,108.8L162.283,108.6L162.352,109.2L162.42,111L162.489,111L162.557,111.35L162.625,109.9L162.694,109.7L162.762,105.35L162.831,105.3L162.899,104.75L162.968,104.9L163.036,103.95L163.105,105.9L163.173,104.15L163.242,105L163.31,105.25L163.378,105.2L163.447,104.8L163.515,103.25L163.584,102.7L163.652,102.7L163.721,102.85L163.789,102.2L163.858,102.2L163.926,103.15L163.994,104.7L164.063,104.55L164.131,102.65L164.2,102.55L164.268,102.7L164.337,103.45L164.405,103.35L164.474,103.55L164.542,104L164.61,103.5L164.679,103.35L164.747,102.85L164.816,107.25L164.884,107.05L164.953,107.35L165.021,107.65L165.09,106.5L165.158,103.95L165.226,103.45L165.295,102.5L165.363,102.5L165.432,102.05L165.5,100.15L165.569,99.45L165.637,96.8L165.706,95.1L165.774,95.55L165.842,96.3L165.911,95.7L165.979,94.45L166.048,92.8L166.116,93.3L166.185,94.65L166.253,94.25L166.322,94.7L166.39,93.35L166.458,93.1L166.527,90.55L166.595,90.05L166.664,90.25L166.732,91.15L166.801,91.05L166.869,90.05L166.938,89.55L167.006,89.4L167.074,88.3L167.143,87.7L167.211,88.55L167.28,90.65L167.348,91.1L167.417,89.75L167.485,88.45L167.554,89.35L167.622,90L167.691,91.45L167.759,93.3L167.827,92.8L167.896,91.5L167.964,91L168.033,91.4L168.101,90.25L168.17,91.1L168.238,92.1L168.307,92.8L168.375,92.4L168.443,91.9L168.512,91.2L168.58,90.15L168.649,89.9L168.717,90.7L168.786,90.7L168.854,89.35L168.923,87.1L168.991,86.3L169.059,84.5L169.128,84.5L169.196,87L169.265,86.55L169.333,85.75L169.402,84.45L169.47,84.65L169.539,86.45L169.607,87L169.675,88.1L169.744,88.65L169.812,86.7L169.881,85.95L169.949,86.65L170.018,89L170.086,87.25L170.155,88.9L170.223,87.3L170.291,84.5L170.36,83.45L170.428,83.95L170.497,86.4L170.565,87.85L170.634,89.85L170.702,89.9L170.771,87.9L170.839,87.7L170.907,88.75L170.976,92.05L171.044,90.35L171.113,92.75L171.181,90.4L171.253,88.2L171.321,88.3L171.389,86.8L171.458,86.95L171.526,87.5L171.595,87.5L171.663,86.5L171.732,85.85L171.8,84.65L171.869,86.05L171.937,86.75L172.005,87L172.074,87.4L172.142,89.9L172.211,90L172.279,91.15L172.348,92.75L172.416,93.15L172.485,94L172.553,94.25L172.621,94.65L172.69,96L172.758,96L172.827,98.5L172.895,98.8L172.964,99.45L173.032,99.7L173.101,103.3L173.169,102.7L173.238,105.65L173.306,107.55L173.374,109L173.443,111.75L173.511,112.85L173.58,111.8L173.648,111.2L173.717,112.15L173.785,111.1L173.854,113L173.922,112.6L173.99,112.9L174.059,113.25L174.127,112.3L174.196,110.55L174.264,110.8L174.333,110L174.401,110.2L174.47,110.9L174.538,109.65L174.606,106.4L174.675,104.55L174.743,102.15L174.812,102.35L174.88,101L174.949,101.35L175.017,100.85L175.086,99.7L175.154,98.85L175.222,98.25L175.291,98.2L175.359,98.05L175.428,97.95L175.496,96.9L175.565,97.15L175.633,97.55L175.702,96.45L175.77,95.75L175.838,95.75L175.907,96.05L175.975,95.15L176.044,93.4L176.112,91.85L176.181,89.85L176.249,90.4L176.318,90.15L176.386,92L176.454,93.3L176.523,92.25L176.591,91.5L176.66,93.8L176.728,94.2L176.797,95.9L176.865,93.45L176.934,94.3L177.002,91.55L177.07,89.95L177.139,86.7L177.207,86.45L177.276,85.45L177.344,85.65L177.413,84.5L177.481,83.05L177.55,82.2L177.618,80.4L177.687,81.1L177.755,83.05L177.823,84.6L177.892,85.15L177.96,84.05L178.029,84.45L178.097,86.15L178.166,83.95L178.234,84.8L178.303,85.85L178.371,86.75L178.439,84.95L178.508,82.9L178.576,81.15L178.645,78.65L178.713,78.65L178.782,78.5L178.85,77.9L178.919,78.15L178.987,76.6L179.055,77.95L179.124,75.95L179.192,79.3L179.261,80.45L179.329,81.05L179.398,80.6L179.466,80.35L179.535,81.2L179.603,81.5L179.671,82.7L179.74,84.1L179.808,83.6L179.874,83.2L179.942,83.15L180.011,83.1L180.079,83L180.148,83.05L180.216,85.9L180.285,85.1L180.353,83.55L180.422,81.55L180.49,81L180.558,81.3L180.627,83.05L180.695,85L180.764,82.55L180.832,80.45L180.901,78.6L180.969,79.95L181.038,76.85L181.106,78.15L181.174,81.75L181.243,80.35L181.311,77L181.38,75.5L181.448,73.55L181.517,71.45L181.585,71.8L181.654,71.95L181.722,70.35L181.79,66.05L181.859,63.95L181.927,61.15L181.996,58.15L182.064,58L182.133,58.4L182.201,54.45L182.27,52.4L182.338,51.7L182.406,49.95L182.475,49L182.543,50.35L182.612,48.7L182.68,45.6L182.749,44.85L182.817,44.55L182.886,46.1L182.954,48.45L183.022,50.1L183.091,54.4L183.159,54.7L183.228,52.2L183.296,49.3L183.365,49.05L183.433,49.75L183.502,51.95L183.57,52.15L183.638,50.35L183.707,48.5L183.775,47.35L183.844,49.25L183.912,48.85L183.981,51.2L184.049,55.25L184.118,50.95L184.186,47.85L184.255,49.15L184.323,48.3L184.391,48.75L184.46,51.8L184.528,54.95L184.597,55.6L184.665,56.05L184.734,58L184.802,57.6L184.871,60.75L184.939,58.5L185.007,58.3L185.076,57L185.144,57.35L185.213,56.85L185.281,59.2L185.35,62L185.418,65.6L185.487,67.5L185.555,68.1L185.623,72.2L185.692,74.65L185.76,78.05L185.829,81.65L185.897,83.35L185.966,86.85L186.034,87.05L186.103,84.65L186.171,88.05L186.239,91.35L186.308,93.6L186.376,97.7L186.445,100.85L186.513,101L186.582,100.9L186.65,99.25L186.719,99.6L186.787,100.75L186.855,103.65L186.924,101.6L186.992,104.2L187.061,105.05L187.129,105.75L187.198,105.8L187.266,104.95L187.335,105.05L187.403,106.65L187.471,105.1L187.54,105.15L187.608,104.95L187.677,102.9L187.745,102.3L187.814,102.1L187.882,102.5L187.951,102.25L188.019,101.15L188.087,101.35L188.156,103.6L188.224,104.95L188.293,105.95L188.361,106.25L188.43,105.75L188.498,104.1L188.567,104.1L188.635,102.3L188.704,104.05L188.772,106.45L188.84,107.5L188.909,106.3L188.977,107.9L189.046,107L189.114,107.1L189.183,106.5L189.251,106.65L189.32,108.45L189.388,108.45L189.456,108.5L189.525,109.6L189.593,108.15L189.662,107.1L189.73,108.15L189.799,108.15L189.867,108.7L189.936,106L190.004,103.9L190.072,102.95L190.141,102.25L190.209,102.75L190.278,102.1L190.346,101.5L190.415,99.65L190.483,97.65L190.552,95.7L190.62,94.55L190.688,95.85L190.757,93.35L190.825,91.4L190.894,90.9L190.962,90.7L191.031,86.65L191.099,88.95L191.168,87.05L191.236,88.9L191.304,88.95L191.373,87.15L191.441,84.75L191.51,81.45L191.578,77.45L191.647,74.8L191.715,70.65L191.784,64.7L191.852,61.5L191.92,58.95L191.989,56.05L192.057,55.65L192.126,55.25L192.194,54.85L192.263,54.05L192.331,52.05L192.4,49.85L192.468,50.9L192.537,52.3L192.605,55.35L192.673,57.05L192.742,55.75L192.81,54.1L192.879,52.25L192.947,49L193.016,47.95L193.084,50.2L193.153,47.2L193.221,44.7L193.289,40.2L193.358,37.2L193.426,33.15L193.495,32.2L193.563,33.95L193.632,34.6L193.7,35.05L193.769,37.1L193.837,42.1L193.905,44.2L193.974,43.25L194.042,46.15L194.111,48.7L194.179,44.65L194.248,44.8L194.316,41.1L194.385,41.95L194.453,42.65L194.521,42.55L194.59,43.8L194.658,41.1L194.727,37.85L194.795,37.2L194.864,36.6L194.932,37.85L195.001,41.3L195.069,42.65L195.137,43L195.206,42.7L195.274,45.55L195.343,48.95L195.411,51.15L195.48,53.85L195.548,57.15L195.617,55.5L195.685,54.75L195.753,55.75L195.822,57.05L195.89,54.65L195.959,54L196.027,56.25L196.096,56.5L196.167,54.15L196.235,57.2L196.304,54.6L196.372,54.2L196.441,54L196.509,55.5L196.578,53.45L196.646,51.1L196.715,51.9L196.783,53.1L196.851,53.05L196.92,55.95L196.988,57.25L197.057,55.85L197.125,56.35L197.194,56.6L197.262,58.25L197.331,57L197.399,56.3L197.467,57.45L197.536,60.45L197.604,60.05L197.673,59.2L197.741,62.85L197.81,65.2L197.878,67.05L197.947,70.5L198.015,72.9L198.084,72.45L198.152,73L198.22,73.85L198.289,75.6L198.357,78.35L198.426,81.5L198.494,82.1L198.563,81.9L198.631,82.65L198.7,81.5L198.768,81.8L198.836,83.85L198.905,86.2L198.973,87.65L199.042,88.75L199.11,88.4L199.179,85.15L199.247,84.45L199.316,84.25L199.384,81.7L199.452,81.25L199.521,78.75L199.589,75.75L199.658,73.95L199.726,75.25L199.795,75.45L199.863,73.45L199.932,71L200,67.95L200.068,64.4L200.137,61.65L200.205,59L200.274,60.4L200.342,61.7L200.411,62.35L200.479,61.15L200.548,61.7L200.616,58.4L200.684,57.15L200.753,58.15L200.821,58.75L200.89,55.9L200.958,55.7L201.027,53.35L201.095,49.85L201.164,48.05L201.232,50.45L201.3,52.65L201.369,54.3L201.437,58.7L201.506,59.15L201.574,59.35L201.643,61.85L201.711,63.85L201.78,66.55L201.848,65L201.916,66.9L201.985,68.75L202.053,70.3L202.122,71.1L202.19,73.8L202.259,77.55" stroke="#4c78a8" stroke-width="2"/></g><g class="mark-group role-title"><g transform="translate(100,-22)"><path class="background" aria-hidden="true" d="M0,0h0v0h0Z" pointer-events="none"/><g><g class="mark-text role-title-text" role="graphics-symbol" aria-roledescription="title" aria-label="Title text 'For Hire Vehicle Complaint: Driver Complaint - Non Passenger'" pointer-events="none"><text text-anchor="middle" transform="translate(0,10)" font-family="sans-serif" font-size="13px" font-weight="bold" fill="#000" opacity="1">For Hire Vehicle Complaint: Driver Complaint - Non Passenger</text></g></g><path class="foreground" aria-hidden="true" d="" pointer-events="none" display="none"/></g></g></g><path class="foreground" aria-hidden="true" d="" display="none"/></g></g></g><defs><clipPath id="clip141"><rect x="0" y="0" width="200" height="150"/></clipPath></defs></svg>