<svg xmlns="http://www.w3.org/2000/svg" xmlns:xlink="http://www.w3.org/1999/xlink" version="1.1" class="marks" width="274" height="194" viewBox="0 0 274 194"><rect width="274" height="194" fill="white"/><g fill="none" stroke-miterlimit="10" transform="translate(37,22)"><g class="mark-group role-frame root" role="graphics-object" aria-roledescription="group mark container"><g transform="translate(0,0)"><path class="background" aria-hidden="true" d="M0,0h200v150h-200Z"/><g><g class="mark-group role-axis" aria-hidden="true"><g transform="translate(0.5,0.5)"><path class="background" aria-hidden="true" d="M0,0h0v0h0Z" pointer-events="none"/><g><g class="mark-rule role-axis-grid" pointer-events="none"><line transform="translate(0,150)" x2="200" y2="0" stroke="#ddd" stroke-width="1" opacity="1"/><line transform="translate(0,116)" x2="200" y2="0" stroke="#ddd" stroke-width="1" opacity="1"/><line transform="translate(0,82)" x2="200" y2="0" stroke="#ddd" stroke-width="1" opacity="1"/><line transform="translate(0,48)" x2="200" y2="0" stroke="#ddd" stroke-width="1" opacity="1"/><line transform="translate(0,14)" x2="200" y2="0" stroke="#ddd" stroke-width="1" opacity="1"/></g></g><path class="foreground" aria-hidden="true" d="" pointer-events="none" display="none"/></g></g><g class="mark-group role-axis" role="graphics-symbol" aria-roledescription="axis" aria-label="X-axis for a time scale with values from Friday, 01 January 2016, 12:00:00 AM to Monday, 01 January 2024, 12:00:00 AM"><g transform="translate(0.5,150.5)"><path class="background" aria-hidden="true" d="M0,0h0v0h0Z" pointer-events="none"/><g><g class="mark-rule role-axis-tick" pointer-events="none"><line transform="translate(0,0)" x2="0" y2="5" stroke="#888" stroke-width="1" opacity="1"/><line transform="translate(50,0)" x2="0" y2="5" stroke="#888" stroke-width="1" opacity="1"/><line transform="translate(100,0)" x2="0" y2="5" stroke="#888" stroke-width="1" opacity="1"/><line transform="translate(150,0)" x2="0" y2="5" stroke="#888" stroke-width="1" opacity="1"/><line transform="translate(200,0)" x2="0" y2="5" stroke="#888" stroke-width="1" opacity="1"/></g><g class="mark-text role-axis-label" pointer-events="none"><text text-anchor="start" transform="translate(0,15)" font-family="sans-serif" font-size="10px" fill="#000" opacity="1">2016</text><text text-anchor="middle" transform="translate(50.03422313483915,15)" font-family="sans-serif" font-size="10px" fill="#000" opacity="1">2018</text><text text-anchor="middle" transform="translate(100,15)" font-family="sans-serif" font-size="10px" fill="#000" opacity="1">2020</text><text text-anchor="middle" transform="translate(150.03422313483915,15)" font-family="sans-serif" font-size="10px" fill="#000" opacity="1">2022</text><text text-anchor="end" transform="translate(200,15)" font-family="sans-serif" font-size="10px" fill="#000" opacity="1">2024</text></g><g class="mark-rule role-axis-domain" pointer-events="none"><line transform="translate(0,0)" x2="200" y2="0" stroke="#888" stroke-width="1" opacity="1"/></g></g><path class="foreground" aria-hidden="true" d="" pointer-events="none" display="none"/></g></g><g class="mark-group role-axis" role="graphics-symbol" aria-roledescription="axis" aria-label="Y-axis for a linear scale with values from 0 to 22"><g transform="translate(0.5,0.5)"><path class="background" aria-hidden="true" d="M0,0h0v0h0Z" pointer-events="none"/><g><g class="mark-rule role-axis-tick" pointer-events="none"><line transform="translate(0,150)" x2="-5" y2="0" stroke="#888" stroke-opacity="0" stroke-width="1" opacity="1"/><line transform="translate(0,116)" x2="-5" y2="0" stroke="#888" stroke-opacity="0" stroke-width="1" opacity="1"/><line transform="translate(0,82)" x2="-5" y2="0" stroke="#888" stroke-opacity="0" stroke-width="1" opacity="1"/><line transform="translate(0,48)" x2="-5" y2="0" stroke="#888" stroke-opacity="0" stroke-width="1" opacity="1"/><line transform="translate(0,14)" x2="-5" y2="0" stroke="#888" stroke-opacity="0" stroke-width="1" opacity="1"/></g><g class="mark-text role-axis-label" pointer-events="none"><text text-anchor="end" transform="translate(-7,153)" font-family="sans-serif" font-size="10px" fill="#000" opacity="1">0</text><text text-anchor="end" transform="translate(-7,118.9090909090909)" font-family="sans-serif" font-size="10px" fill="#000" opacity="1">5</text><text text-anchor="end" transform="translate(-7,84.81818181818181)" font-family="sans-serif" font-size="10px" fill="#000" opacity="1">10</text><text text-anchor="end" transform="translate(-7,50.727272727272734)" font-family="sans-serif" font-size="10px" fill="#000" opacity="1">15</text><text text-anchor="end" transform="translate(-7,16.63636363636364)" font-family="sans-serif" font-size="10px" fill="#000" opacity="1">20</text></g></g><path class="foreground" aria-hidden="true" d="" pointer-events="none" display="none"/></g></g><g class="mark-line role-mark marks" clip-path="url(#clip142)" role="graphics-object" aria-roledescription="line mark container"><path aria-label="day: Jan 01, 2010; avg: 10.2666666667" role="graphics-symbol" aria-roledescription="line mark" d="M-149.966,80L-149.897,77.045L-149.829,71.818L-149.76,68.409L-149.692,68.636L-149.624,70.909L-149.555,72.5L-149.487,76.818L-149.418,75.455L-149.281,74.545L-149.213,74.318L-149.144,72.5L-149.076,71.818L-149.008,71.818L-148.939,73.182L-148.871,74.091L-148.802,72.045L-148.734,68.864L-148.665,68.636L-148.597,69.318L-148.528,72.955L-148.46,74.318L-148.392,73.864L-148.323,72.273L-148.255,73.182L-148.186,75.682L-148.118,77.727L-148.049,82.045L-147.981,82.955L-147.912,77.955L-147.844,74.773L-147.775,72.5L-147.707,74.773L-147.639,74.091L-147.57,74.773L-147.502,75.682L-147.433,72.5L-147.365,70L-147.296,68.409L-147.228,67.5L-147.159,68.864L-147.091,70.909L-147.023,71.364L-146.954,67.045L-146.886,64.545L-146.817,62.5L-146.749,64.773L-146.68,66.364L-146.612,69.091L-146.543,71.364L-146.475,68.409L-146.407,66.591L-146.338,65.227L-146.27,64.091L-146.201,64.545L-146.133,65L-146.064,65.682L-145.996,63.636L-145.927,62.273L-145.859,65.455L-145.791,66.818L-145.722,71.136L-145.654,74.091L-145.585,77.955L-145.517,77.727L-145.448,74.091L-145.38,75.909L-145.311,77.727L-145.243,80.455L-145.175,82.5L-145.106,84.545L-145.038,83.636L-144.972,82.727L-144.904,85.682L-144.835,85.227L-144.767,85.909L-144.698,87.955L-144.63,89.545L-144.561,87.955L-144.493,87.045L-144.424,89.091L-144.356,90.455L-144.288,91.818L-144.219,94.091L-144.151,95.909L-144.082,94.545L-144.014,93.636L-143.945,93.636L-143.877,92.955L-143.808,92.727L-143.74,94.091L-143.672,94.545L-143.603,93.409L-143.535,90.455L-143.466,90.227L-143.398,92.727L-143.329,91.591L-143.261,91.136L-143.192,92.045L-143.124,88.409L-143.056,84.318L-142.987,83.636L-142.919,86.591L-142.85,86.136L-142.782,88.409L-142.713,89.318L-142.645,87.5L-142.576,84.773L-142.508,83.864L-142.44,84.318L-142.371,83.864L-142.303,83.864L-142.234,84.091L-142.166,84.545L-142.097,83.409L-142.029,85L-141.96,85.455L-141.892,85.909L-141.824,87.727L-141.755,89.318L-141.687,88.864L-141.618,88.409L-141.55,87.273L-141.481,88.182L-141.413,88.864L-141.344,89.545L-141.276,90.227L-141.208,90.682L-141.139,90.455L-141.071,91.591L-141.002,93.864L-140.934,96.818L-140.865,96.364L-140.797,96.591L-140.728,95L-140.66,94.091L-140.591,95.455L-140.523,96.591L-140.455,99.091L-140.386,99.773L-140.318,99.773L-140.249,99.091L-140.181,99.318L-140.112,98.182L-140.044,99.545L-139.975,99.773L-139.907,100.682L-139.839,99.318L-139.77,98.409L-139.702,95.455L-139.633,94.545L-139.565,93.864L-139.496,95.682L-139.428,97.273L-139.291,97.955L-139.223,97.727L-139.154,95.682L-139.086,93.864L-139.017,92.727L-138.949,95.455L-138.88,97.045L-138.812,94.545L-138.743,94.091L-138.675,94.545L-138.607,95.682L-138.538,95.682L-138.47,95.909L-138.401,96.136L-138.333,95.227L-138.264,93.864L-138.196,94.091L-138.127,92.955L-138.059,92.5L-137.991,93.409L-137.922,92.5L-137.854,91.364L-137.785,90.455L-137.717,91.364L-137.648,91.364L-137.58,94.545L-137.511,95.909L-137.443,96.364L-137.375,96.364L-137.306,94.545L-137.238,93.182L-137.169,92.727L-137.101,94.773L-137.032,97.045L-136.964,98.864L-136.895,96.591L-136.827,94.318L-136.758,95.682L-136.69,95L-136.622,92.955L-136.553,93.864L-136.485,95.909L-136.416,94.318L-136.348,95L-136.279,93.864L-136.211,92.5L-136.142,91.136L-136.074,93.409L-136.006,94.545L-135.937,92.955L-135.869,92.5L-135.8,92.045L-135.732,91.818L-135.663,93.182L-135.595,94.773L-135.526,95L-135.458,93.636L-135.39,93.864L-135.321,93.182L-135.253,92.045L-135.184,92.273L-135.116,93.864L-135.047,95.455L-134.979,95L-134.91,93.636L-134.842,94.773L-134.774,94.773L-134.705,93.636L-134.637,95.682L-134.568,99.091L-134.5,97.273L-134.431,93.636L-134.363,94.091L-134.294,92.5L-134.226,92.273L-134.158,93.864L-134.089,95.682L-134.021,95.227L-133.952,93.409L-133.884,93.409L-133.815,92.727L-133.747,94.091L-133.678,94.091L-133.61,93.864L-133.542,92.727L-133.473,90L-133.405,89.318L-133.336,87.727L-133.268,87.273L-133.199,90.682L-133.131,92.045L-133.062,87.273L-132.994,85L-132.926,83.864L-132.857,84.091L-132.789,81.818L-132.72,83.409L-132.652,85L-132.583,84.091L-132.515,80.682L-132.446,80.227L-132.378,82.727L-132.309,81.136L-132.241,82.955L-132.173,85.455L-132.104,83.864L-132.036,80.227L-131.967,79.091L-131.899,76.364L-131.83,77.5L-131.762,76.818L-131.693,75.909L-131.625,76.364L-131.557,73.636L-131.488,72.273L-131.42,74.318L-131.351,72.045L-131.283,74.091L-131.214,75.455L-131.146,73.182L-131.077,73.182L-131.009,76.818L-130.941,74.545L-130.872,73.636L-130.804,72.045L-130.735,75.682L-130.667,72.5L-130.598,67.955L-130.53,65.909L-130.461,67.727L-130.393,68.409L-130.325,69.091L-130.256,72.273L-130.188,69.545L-130.119,66.818L-130.051,65.455L-129.982,66.364L-129.914,65.682L-129.845,68.864L-129.777,69.773L-129.709,69.545L-129.64,69.773L-129.572,67.5L-129.503,70.455L-129.435,71.364L-129.366,72.045L-129.298,76.818L-129.229,75L-129.161,74.318L-129.093,70.909L-129.024,69.091L-128.956,65.455L-128.887,67.5L-128.819,70.227L-128.75,69.091L-128.679,64.773L-128.611,65.455L-128.542,64.773L-128.474,65L-128.405,64.773L-128.337,66.364L-128.268,62.955L-128.2,57.5L-128.131,54.091L-128.063,49.091L-127.995,51.136L-127.926,52.5L-127.858,54.318L-127.789,50L-127.721,44.091L-127.652,42.727L-127.584,40.682L-127.515,43.182L-127.447,42.727L-127.379,42.5L-127.31,39.318L-127.242,36.136L-127.173,32.5L-127.105,32.955L-127.036,37.955L-126.968,39.091L-126.899,37.727L-126.831,34.091L-126.762,30.227L-126.694,28.636L-126.626,27.727L-126.557,30.682L-126.489,35.455L-126.42,35L-126.352,33.409L-126.283,27.5L-126.215,22.5L-126.146,20.909L-126.078,25.909L-126.01,32.727L-125.941,34.318L-125.873,30.682L-125.804,28.636L-125.736,32.727L-125.667,36.591L-125.599,41.136L-125.53,44.091L-125.394,41.364L-125.325,38.864L-125.257,37.727L-125.188,39.091L-125.12,35.682L-125.051,40.227L-124.983,40.227L-124.914,34.773L-124.846,27.727L-124.778,29.545L-124.709,33.864L-124.641,34.545L-124.572,39.318L-124.504,44.318L-124.435,42.955L-124.367,38.636L-124.298,38.182L-124.23,38.864L-124.162,41.818L-124.093,50.682L-124.025,56.818L-123.956,55.909L-123.888,53.636L-123.819,50.682L-123.751,55.455L-123.682,57.273L-123.614,55.909L-123.546,56.591L-123.477,55.455L-123.409,53.409L-123.34,52.955L-123.272,54.545L-123.203,56.364L-123.135,58.182L-123.066,64.318L-122.998,64.545L-122.93,63.864L-122.861,68.864L-122.793,75L-122.724,77.727L-122.656,78.636L-122.587,79.318L-122.519,78.636L-122.45,77.727L-122.382,78.409L-122.313,81.591L-122.245,84.318L-122.177,86.591L-122.108,89.091L-122.04,88.182L-121.971,87.727L-121.903,88.636L-121.834,89.091L-121.766,91.591L-121.697,92.727L-121.629,92.5L-121.561,95L-121.492,94.773L-121.424,94.091L-121.355,96.136L-121.287,97.727L-121.218,99.773L-121.15,97.955L-121.081,95.909L-121.013,94.545L-120.945,93.409L-120.876,93.864L-120.808,94.091L-120.739,94.091L-120.671,94.773L-120.602,93.182L-120.534,95L-120.465,95.682L-120.397,95.909L-120.329,94.773L-120.26,97.045L-120.192,97.045L-120.058,96.818L-119.989,95L-119.921,95.227L-119.852,94.091L-119.784,96.136L-119.715,97.5L-119.647,97.955L-119.578,95.455L-119.51,95.227L-119.442,94.545L-119.373,95.227L-119.305,96.136L-119.236,95.909L-119.168,97.727L-119.099,96.136L-119.031,98.182L-118.962,98.636L-118.894,99.545L-118.826,101.364L-118.757,102.273L-118.689,102.273L-118.62,102.045L-118.552,101.136L-118.483,102.5L-118.415,101.364L-118.346,101.818L-118.278,102.273L-118.21,102.273L-118.141,99.773L-118.073,98.182L-118.004,96.818L-117.936,97.273L-117.867,97.955L-117.799,100L-117.73,99.091L-117.662,98.182L-117.594,97.273L-117.525,98.409L-117.457,98.182L-117.388,98.864L-117.32,99.318L-117.251,97.955L-117.183,97.5L-117.114,95.455L-117.046,95.227L-116.978,94.545L-116.909,95.455L-116.841,95.227L-116.772,95.909L-116.704,93.864L-116.635,91.818L-116.567,91.591L-116.498,90.909L-116.43,91.818L-116.362,92.955L-116.293,91.136L-116.225,89.545L-116.156,90.227L-116.088,90.455L-116.019,91.364L-115.951,92.727L-115.882,94.545L-115.814,91.818L-115.745,90L-115.677,89.545L-115.609,90.682L-115.54,90.909L-115.472,91.818L-115.403,93.182L-115.335,92.727L-115.266,92.045L-115.198,92.5L-115.129,92.273L-115.061,93.864L-114.993,95.455L-114.924,97.273L-114.856,96.364L-114.787,96.136L-114.719,92.5L-114.65,92.273L-114.582,94.091L-114.513,95.909L-114.445,98.409L-114.377,98.409L-114.308,97.955L-114.24,98.182L-114.171,99.091L-114.103,99.318L-114.034,101.591L-113.966,103.409L-113.897,101.364L-113.829,100.227L-113.761,102.045L-113.692,102.727L-113.624,102.727L-113.555,102.955L-113.487,104.091L-113.418,102.727L-113.35,101.364L-113.281,100.455L-113.213,98.864L-113.145,100.227L-113.076,100.682L-113.008,100.909L-112.939,99.318L-112.871,96.591L-112.802,96.136L-112.734,96.136L-112.665,97.955L-112.597,100.909L-112.529,102.045L-112.46,101.364L-112.392,98.636L-112.323,97.045L-112.255,97.045L-112.186,98.182L-112.118,99.545L-112.049,100.455L-111.981,98.636L-111.913,96.591L-111.844,97.727L-111.776,99.091L-111.707,98.636L-111.639,99.318L-111.57,100.455L-111.502,100.682L-111.433,100L-111.365,100L-111.296,99.773L-111.228,99.318L-111.16,101.591L-111.091,101.591L-111.023,100.909L-110.954,98.864L-110.886,98.864L-110.817,99.545L-110.749,101.591L-110.68,102.273L-110.612,100.909L-110.544,97.727L-110.475,96.818L-110.407,97.273L-110.338,98.864L-110.27,99.545L-110.201,100.227L-110.133,101.136L-110.064,100.455L-109.996,99.318L-109.928,99.091L-109.859,100L-109.791,100.455L-109.722,99.773L-109.654,100.909L-109.585,100.682L-109.517,99.545L-109.448,98.182L-109.38,96.818L-109.312,96.364L-109.243,98.182L-109.175,100L-109.106,98.409L-109.038,97.5L-108.969,97.273L-108.901,97.955L-108.832,98.182L-108.764,99.773L-108.696,99.545L-108.627,99.318L-108.559,99.545L-108.49,99.773L-108.422,97.727L-108.353,96.591L-108.285,97.727L-108.216,97.955L-108.148,96.591L-108.08,92.727L-108.011,92.273L-107.943,92.273L-107.874,91.818L-107.806,91.364L-107.737,91.818L-107.669,91.136L-107.6,89.318L-107.532,87.955L-107.463,87.045L-107.395,87.955L-107.327,89.773L-107.258,90.682L-107.19,87.955L-107.121,87.045L-107.053,87.045L-106.984,87.273L-106.916,86.136L-106.847,87.5L-106.779,85.909L-106.711,84.773L-106.642,81.818L-106.574,79.091L-106.505,80.682L-106.437,83.409L-106.368,86.591L-106.3,84.318L-106.231,81.364L-106.163,78.182L-106.095,77.955L-106.026,80L-105.958,80.682L-105.889,80.455L-105.821,80L-105.752,81.136L-105.684,81.364L-105.615,79.091L-105.547,78.636L-105.479,79.091L-105.41,80.909L-105.342,80.227L-105.273,77.727L-105.205,75.909L-105.136,76.364L-105.068,74.318L-104.999,76.364L-104.931,77.727L-104.794,77.955L-104.726,75.909L-104.657,77.5L-104.589,78.409L-104.52,79.318L-104.452,82.5L-104.383,83.182L-104.315,80.909L-104.247,77.5L-104.178,79.318L-104.11,80L-104.041,80.909L-103.973,82.045L-103.904,82.273L-103.836,81.591L-103.765,81.818L-103.696,83.864L-103.628,81.591L-103.559,79.773L-103.491,82.727L-103.422,85.455L-103.354,85L-103.285,81.818L-103.217,82.5L-103.149,84.091L-103.08,85.227L-103.012,87.273L-102.943,90.682L-102.875,88.636L-102.806,85.455L-102.738,85.682L-102.669,86.364L-102.601,85.909L-102.533,85.455L-102.464,87.5L-102.396,86.818L-102.327,85.227L-102.259,84.091L-102.19,84.545L-102.122,86.136L-102.053,87.955L-101.985,91.136L-101.916,90.909L-101.848,89.545L-101.78,87.045L-101.711,84.091L-101.643,81.136L-101.574,82.727L-101.506,84.773L-101.437,84.091L-101.369,81.136L-101.3,81.364L-101.232,81.818L-101.164,81.818L-101.095,81.818L-101.027,83.409L-100.958,83.409L-100.89,81.136L-100.821,80L-100.753,77.955L-100.684,78.864L-100.616,80L-100.548,81.591L-100.479,80L-100.411,78.636L-100.342,77.955L-100.274,76.818L-100.205,79.318L-100.137,82.045L-100.068,82.955L-100,79.545L-99.932,78.636L-99.863,77.955L-99.795,79.318L-99.726,80.909L-99.658,84.773L-99.589,88.636L-99.521,88.409L-99.452,87.045L-99.384,86.591L-99.316,85.682L-99.247,86.364L-99.179,89.318L-99.11,89.545L-99.042,90L-98.973,87.955L-98.905,85.909L-98.836,86.591L-98.768,87.5L-98.7,92.5L-98.631,93.636L-98.563,94.091L-98.494,93.182L-98.426,93.182L-98.357,93.636L-98.289,93.182L-98.22,95.909L-98.152,95.682L-98.084,94.545L-98.015,92.273L-97.947,94.545L-97.878,92.727L-97.81,94.091L-97.741,95L-97.673,96.591L-97.604,95.227L-97.536,92.5L-97.467,93.864L-97.399,92.5L-97.331,92.955L-97.262,95.682L-97.194,97.045L-97.125,95.227L-97.057,93.636L-96.988,93.409L-96.92,93.182L-96.851,95.227L-96.783,97.045L-96.715,98.636L-96.646,97.273L-96.578,96.364L-96.509,94.318L-96.441,95L-96.372,96.364L-96.304,95.682L-96.235,95L-96.167,94.773L-96.099,94.318L-96.03,94.773L-95.962,96.818L-95.893,98.636L-95.825,99.091L-95.756,98.409L-95.688,98.182L-95.619,96.364L-95.551,97.273L-95.483,98.409L-95.414,97.955L-95.346,98.409L-95.277,99.545L-95.209,98.636L-95.143,96.591L-95.075,95.909L-95.006,98.182L-94.938,98.636L-94.869,100.455L-94.801,97.955L-94.664,96.591L-94.596,94.091L-94.527,94.318L-94.459,95.455L-94.39,97.955L-94.322,96.364L-94.185,95.227L-94.116,95.682L-94.048,96.364L-93.98,96.591L-93.911,98.182L-93.843,98.409L-93.774,97.5L-93.706,96.818L-93.637,96.591L-93.569,95.909L-93.5,95.455L-93.432,97.5L-93.364,97.273L-93.295,96.591L-93.227,94.318L-93.158,95.455L-93.09,94.545L-93.021,96.136L-92.953,97.955L-92.884,100L-92.816,99.318L-92.748,98.636L-92.679,97.955L-92.611,100L-92.542,100.455L-92.474,102.955L-92.405,104.091L-92.337,102.5L-92.268,101.364L-92.2,103.182L-92.132,103.636L-92.063,102.955L-91.995,104.091L-91.926,104.545L-91.858,104.091L-91.789,103.864L-91.721,103.636L-91.652,104.318L-91.584,105.909L-91.516,107.727L-91.447,108.636L-91.379,107.5L-91.31,106.364L-91.242,105.909L-91.173,106.818L-91.105,105.682L-91.036,105.682L-90.968,105.682L-90.899,103.409L-90.831,102.5L-90.763,103.182L-90.694,102.5L-90.626,101.818L-90.557,101.818L-90.489,101.818L-90.42,100.682L-90.352,99.545L-90.283,98.864L-90.215,97.727L-90.147,97.045L-90.078,98.636L-90.01,100.682L-89.941,100.227L-89.873,99.545L-89.804,98.182L-89.736,98.409L-89.667,97.045L-89.599,96.818L-89.531,98.182L-89.462,96.818L-89.394,96.136L-89.325,95.682L-89.257,96.136L-89.188,97.727L-89.12,99.091L-89.051,101.591L-88.983,100L-88.915,98.182L-88.846,99.545L-88.778,99.773L-88.709,98.636L-88.641,99.545L-88.572,101.591L-88.504,102.045L-88.435,102.045L-88.367,101.818L-88.299,101.136L-88.23,102.5L-88.162,103.636L-88.093,104.545L-88.025,103.864L-87.956,102.273L-87.888,101.818L-87.819,101.818L-87.751,102.727L-87.683,102.955L-87.614,105.227L-87.546,103.636L-87.477,101.591L-87.409,102.045L-87.34,101.591L-87.272,100.909L-87.203,102.273L-87.135,102.5L-87.067,101.136L-86.998,100.227L-86.93,100.227L-86.861,101.364L-86.793,101.818L-86.724,101.818L-86.656,103.409L-86.587,102.727L-86.519,100.682L-86.45,99.545L-86.382,99.091L-86.314,99.545L-86.245,100.682L-86.177,101.136L-86.108,100L-86.04,98.864L-85.971,96.818L-85.903,98.182L-85.834,99.318L-85.766,100L-85.698,99.773L-85.629,98.409L-85.561,95.682L-85.492,96.591L-85.424,97.273L-85.355,97.045L-85.287,97.727L-85.218,98.864L-85.15,98.636L-85.082,98.636L-85.013,98.409L-84.945,97.5L-84.876,99.545L-84.808,100.227L-84.739,100.682L-84.671,99.773L-84.602,98.409L-84.534,99.318L-84.466,100.682L-84.397,101.364L-84.329,102.045L-84.26,102.955L-84.192,102.955L-84.123,101.591L-84.055,101.136L-83.986,100.682L-83.918,102.5L-83.85,101.591L-83.781,101.818L-83.713,99.545L-83.644,99.091L-83.576,97.727L-83.507,100L-83.439,98.636L-83.37,98.636L-83.302,98.182L-83.234,97.5L-83.165,97.045L-83.097,96.591L-83.028,95.682L-82.96,95.682L-82.891,97.5L-82.823,97.5L-82.754,97.727L-82.686,95.682L-82.617,96.364L-82.549,96.136L-82.481,95.455L-82.412,95.227L-82.344,95.455L-82.275,93.864L-82.207,90.455L-82.138,89.091L-82.07,89.545L-82.001,92.273L-81.933,94.318L-81.865,94.773L-81.796,94.773L-81.728,89.773L-81.659,89.091L-81.591,87.273L-81.522,88.409L-81.454,88.409L-81.385,90L-81.317,90L-81.249,87.273L-81.18,85.909L-81.112,83.636L-81.043,81.364L-80.975,78.409L-80.906,80L-80.838,78.864L-80.769,75.909L-80.701,72.955L-80.633,70.227L-80.564,68.182L-80.496,68.409L-80.427,68.409L-80.359,68.864L-80.29,64.545L-80.222,64.318L-80.153,63.636L-80.085,61.136L-80.017,61.591L-79.948,61.136L-79.88,56.591L-79.811,52.273L-79.743,51.364L-79.674,56.364L-79.606,56.818L-79.537,57.955L-79.469,58.409L-79.401,56.364L-79.332,52.955L-79.264,52.045L-79.195,54.318L-79.127,52.273L-79.058,28.182L-78.99,31.364L-78.921,32.727L-78.85,28.636L-78.782,26.818L-78.713,27.955L-78.645,27.727L-78.576,32.955L-78.508,35.682L-78.439,33.409L-78.371,32.273L-78.303,31.364L-78.234,35L-78.166,35.455L-78.097,39.773L-78.029,43.636L-77.96,41.818L-77.892,41.818L-77.823,42.273L-77.755,44.091L-77.687,42.273L-77.618,40.909L-77.55,41.364L-77.481,41.818L-77.413,42.955L-77.344,41.818L-77.276,42.727L-77.207,44.091L-77.139,45L-77.07,48.864L-77.002,75.227L-76.934,74.091L-76.865,75.909L-76.797,77.045L-76.728,77.045L-76.66,78.182L-76.591,81.136L-76.523,77.727L-76.454,75.455L-76.386,75.909L-76.318,75.909L-76.249,74.545L-76.181,75.455L-76.112,77.727L-76.044,77.955L-75.975,76.818L-75.907,78.182L-75.838,75.455L-75.77,76.364L-75.702,79.318L-75.633,82.727L-75.565,84.545L-75.496,83.409L-75.428,82.727L-75.359,79.318L-75.291,81.591L-75.222,84.318L-75.154,85L-75.086,82.5L-75.017,80.909L-74.949,80L-74.88,79.318L-74.812,76.364L-74.743,79.318L-74.675,82.045L-74.606,78.636L-74.538,77.045L-74.47,75.909L-74.401,76.136L-74.333,77.5L-74.264,79.773L-74.196,81.591L-74.127,79.091L-74.059,75.455L-73.99,72.045L-73.922,72.045L-73.854,71.591L-73.785,74.318L-73.717,76.364L-73.648,76.136L-73.58,72.727L-73.511,71.591L-73.443,73.864L-73.374,74.091L-73.306,77.5L-73.238,78.864L-73.169,76.136L-73.101,75.455L-73.032,78.636L-72.964,79.318L-72.895,80.227L-72.827,81.818L-72.758,86.364L-72.69,84.545L-72.621,83.182L-72.553,85L-72.485,82.727L-72.416,85.682L-72.348,88.636L-72.279,89.318L-72.211,88.864L-72.142,87.273L-72.074,89.318L-72.005,89.318L-71.937,91.136L-71.869,92.273L-71.8,93.636L-71.732,91.136L-71.663,89.091L-71.595,87.5L-71.526,89.773L-71.458,89.318L-71.389,89.545L-71.321,89.318L-71.253,87.727L-71.184,85.909L-71.116,87.727L-71.047,86.136L-70.979,86.136L-70.91,87.5L-70.842,87.5L-70.773,85.455L-70.705,83.864L-70.637,82.955L-70.568,84.091L-70.5,86.591L-70.431,90.227L-70.363,89.773L-70.294,87.955L-70.229,85.909L-70.16,85.455L-70.092,86.364L-70.023,87.273L-69.955,89.773L-69.886,89.091L-69.818,88.182L-69.75,87.5L-69.681,88.636L-69.613,89.318L-69.544,91.591L-69.476,92.955L-69.339,93.864L-69.27,92.273L-69.202,94.545L-69.134,94.545L-69.065,95.682L-68.997,96.591L-68.928,98.409L-68.86,96.364L-68.791,95.227L-68.723,94.318L-68.654,95.682L-68.586,96.364L-68.518,98.636L-68.449,99.091L-68.381,97.727L-68.312,97.045L-68.244,97.955L-68.175,99.091L-68.107,101.364L-68.038,101.591L-67.97,102.955L-67.902,102.273L-67.833,101.818L-67.765,103.182L-67.696,103.409L-67.628,101.364L-67.559,102.727L-67.491,104.773L-67.422,102.727L-67.354,102.273L-67.286,102.5L-67.217,103.636L-67.149,103.409L-67.08,105.227L-67.012,106.136L-66.943,105.227L-66.875,104.318L-66.806,106.136L-66.738,107.045L-66.67,109.773L-66.601,110L-66.533,109.773L-66.464,108.182L-66.396,106.818L-66.327,106.818L-66.259,105.455L-66.19,105.909L-66.122,105.227L-66.054,105.227L-65.985,104.091L-65.917,102.045L-65.848,100L-65.78,100.227L-65.711,100.909L-65.643,101.364L-65.574,103.636L-65.506,102.955L-65.437,102.273L-65.301,102.273L-65.232,101.591L-65.164,101.364L-65.095,101.818L-65.027,98.864L-64.958,98.409L-64.89,96.818L-64.821,96.818L-64.753,95.909L-64.685,95.682L-64.616,96.136L-64.548,95.227L-64.479,95.227L-64.411,94.091L-64.342,95.455L-64.274,95.682L-64.205,97.273L-64.137,98.864L-64.069,97.955L-64,97.727L-63.932,95.227L-63.863,96.591L-63.795,97.727L-63.726,100L-63.658,101.136L-63.589,100.227L-63.521,99.091L-63.453,98.409L-63.384,96.591L-63.316,96.136L-63.247,97.5L-63.179,98.182L-63.11,95.909L-63.042,95.227L-62.973,97.727L-62.905,96.818L-62.837,97.955L-62.768,98.182L-62.7,100.227L-62.631,99.773L-62.563,96.818L-62.494,95L-62.426,95.227L-62.357,95.909L-62.289,95.909L-62.221,96.818L-62.152,95L-62.084,95L-62.015,95.909L-61.947,97.045L-61.878,98.409L-61.81,98.864L-61.741,100.227L-61.673,98.636L-61.604,96.591L-61.536,96.591L-61.468,97.5L-61.399,97.5L-61.331,100.455L-61.262,101.591L-61.194,101.364L-61.125,100.227L-61.057,100.455L-60.988,100.909L-60.92,99.545L-60.852,100.682L-60.783,100.227L-60.715,99.091L-60.646,97.727L-60.578,96.591L-60.509,98.636L-60.441,98.409L-60.372,98.864L-60.304,100.455L-60.236,101.591L-60.167,99.318L-60.099,98.636L-60.03,97.045L-59.962,95.909L-59.893,95.682L-59.825,96.818L-59.756,94.773L-59.688,93.182L-59.62,93.864L-59.551,94.545L-59.483,94.773L-59.414,95.227L-59.346,96.364L-59.277,94.545L-59.209,93.864L-59.14,92.955L-59.072,92.5L-59.004,93.409L-58.935,93.636L-58.867,95.227L-58.798,93.182L-58.73,91.136L-58.661,91.136L-58.593,91.364L-58.524,92.5L-58.456,93.864L-58.388,96.591L-58.319,95.227L-58.251,93.409L-58.182,90.682L-58.114,90L-58.045,92.045L-57.977,94.545L-57.908,95.909L-57.84,94.545L-57.772,93.182L-57.703,93.409L-57.635,93.182L-57.566,92.955L-57.498,94.091L-57.429,94.318L-57.361,94.545L-57.292,92.5L-57.224,89.773L-57.155,87.727L-57.087,86.591L-57.019,88.409L-56.95,89.091L-56.882,88.636L-56.813,86.818L-56.745,86.136L-56.676,86.818L-56.608,88.409L-56.539,89.545L-56.471,89.545L-56.403,88.636L-56.334,86.818L-56.266,85.455L-56.197,84.318L-56.129,84.318L-56.06,87.045L-55.992,87.5L-55.923,85.682L-55.855,85.909L-55.787,85.682L-55.718,84.773L-55.65,85.682L-55.581,87.273L-55.513,87.955L-55.444,87.045L-55.376,83.864L-55.307,81.818L-55.239,82.045L-55.171,84.091L-55.102,86.136L-55.034,88.409L-54.965,88.182L-54.897,87.5L-54.828,86.136L-54.76,85.909L-54.691,86.136L-54.623,87.5L-54.555,87.045L-54.486,82.955L-54.418,81.364L-54.349,77.955L-54.281,79.318L-54.212,78.636L-54.144,80.682L-54.075,81.591L-54.007,76.364L-53.936,72.5L-53.867,70L-53.799,66.364L-53.73,65.682L-53.662,68.636L-53.593,69.773L-53.525,67.045L-53.457,64.091L-53.388,61.136L-53.32,62.955L-53.251,62.955L-53.183,65.455L-53.114,67.045L-53.046,66.364L-52.977,64.318L-52.909,60L-52.841,59.773L-52.772,60.455L-52.704,62.727L-52.635,64.773L-52.567,61.364L-52.498,60.227L-52.43,64.545L-52.361,63.636L-52.293,64.773L-52.225,64.773L-52.156,68.182L-52.088,65L-52.019,63.864L-51.951,69.545L-51.882,70.227L-51.814,72.5L-51.745,76.364L-51.677,79.091L-51.608,76.818L-51.54,73.864L-51.472,71.591L-51.403,63.864L-51.335,65L-51.266,65.455L-51.198,67.045L-51.129,64.318L-51.061,60L-50.992,58.409L-50.924,57.955L-50.856,59.091L-50.787,60.455L-50.719,61.364L-50.65,58.864L-50.582,54.091L-50.513,53.636L-50.445,50.455L-50.376,49.091L-50.308,52.955L-50.24,51.136L-50.171,49.545L-50.103,49.091L-50.034,41.136L-49.966,41.818L-49.897,41.136L-49.829,44.318L-49.76,38.864L-49.692,35.455L-49.624,31.818L-49.555,28.636L-49.487,26.364L-49.418,30.909L-49.35,40.682L-49.281,40.909L-49.213,39.318L-49.144,32.955L-49.076,32.955L-49.008,33.182L-48.939,35L-48.871,37.5L-48.802,39.545L-48.734,37.273L-48.597,36.136L-48.528,35.455L-48.46,37.727L-48.392,41.818L-48.323,47.045L-48.255,45L-48.186,42.727L-48.118,40.682L-48.049,37.727L-47.981,36.136L-47.912,45.909L-47.844,47.955L-47.775,44.773L-47.707,40.682L-47.639,45.682L-47.57,46.818L-47.502,49.091L-47.433,54.318L-47.365,59.773L-47.296,56.818L-47.228,55.682L-47.159,57.045L-47.091,55.682L-47.023,60.227L-46.954,62.5L-46.886,67.5L-46.817,66.136L-46.749,64.091L-46.68,64.545L-46.612,66.591L-46.543,67.955L-46.475,71.364L-46.407,74.091L-46.338,72.727L-46.27,69.318L-46.201,71.364L-46.133,70.909L-46.064,76.136L-45.996,81.364L-45.927,82.955L-45.859,82.727L-45.791,81.818L-45.722,81.364L-45.654,81.364L-45.585,83.409L-45.517,85L-45.448,86.364L-45.38,84.318L-45.314,82.5L-45.246,84.545L-45.177,85.455L-45.109,83.864L-45.04,88.409L-44.972,90.682L-44.904,88.864L-44.835,87.045L-44.767,88.864L-44.698,90L-44.63,89.773L-44.561,90L-44.493,90.682L-44.424,88.864L-44.356,87.955L-44.288,87.727L-44.219,90.227L-44.151,90.227L-44.082,92.273L-44.014,93.636L-43.945,92.727L-43.877,90L-43.808,90.682L-43.74,90.227L-43.672,92.955L-43.603,97.045L-43.535,95.909L-43.466,93.409L-43.398,91.136L-43.329,92.045L-43.261,91.818L-43.192,91.136L-43.124,92.727L-43.056,95.682L-42.987,93.636L-42.919,92.045L-42.85,92.045L-42.782,92.5L-42.713,92.273L-42.645,92.955L-42.576,94.773L-42.508,94.091L-42.44,93.182L-42.371,94.091L-42.303,93.636L-42.234,95L-42.166,95.227L-42.097,95.909L-42.029,95.682L-41.96,94.318L-41.892,91.591L-41.824,93.864L-41.755,94.091L-41.687,95.227L-41.618,96.364L-41.55,94.318L-41.481,95.227L-41.413,90.909L-41.344,92.045L-41.276,93.409L-41.208,95.227L-41.139,95.909L-41.071,96.136L-41.002,93.864L-40.934,93.636L-40.865,93.636L-40.797,95.909L-40.728,96.364L-40.66,95L-40.591,93.636L-40.523,92.727L-40.455,93.409L-40.386,93.864L-40.318,94.091L-40.249,95.682L-40.112,96.364L-40.044,93.636L-39.975,93.182L-39.907,91.818L-39.839,91.818L-39.77,95L-39.702,95.455L-39.633,96.364L-39.565,95.227L-39.496,93.409L-39.428,94.545L-39.359,94.773L-39.291,102.045L-39.223,102.955L-39.154,100.909L-39.086,98.636L-39.017,97.045L-38.949,94.773L-38.88,95L-38.812,97.045L-38.743,98.864L-38.675,95.682L-38.607,93.636L-38.538,94.091L-38.47,93.864L-38.401,92.045L-38.333,92.955L-38.264,93.409L-38.196,92.955L-38.127,87.5L-38.059,86.591L-37.991,88.864L-37.922,89.091L-37.854,89.545L-37.785,91.591L-37.717,90.682L-37.648,90.682L-37.58,89.091L-37.511,88.182L-37.443,88.409L-37.375,89.773L-37.306,89.091L-37.238,87.273L-37.169,85.682L-37.101,85.909L-37.032,86.818L-36.964,88.636L-36.895,91.364L-36.827,92.955L-36.758,92.5L-36.69,91.136L-36.622,91.818L-36.553,91.818L-36.485,92.727L-36.416,94.318L-36.348,96.591L-36.279,94.318L-36.211,92.955L-36.142,92.045L-36.074,93.409L-36.006,93.636L-35.937,94.091L-35.869,94.091L-35.8,94.091L-35.732,92.045L-35.663,91.591L-35.595,90.909L-35.526,90.455L-35.458,91.591L-35.39,93.409L-35.321,92.273L-35.253,91.364L-35.184,91.136L-35.116,90.909L-35.047,87.727L-34.979,89.318L-34.91,90L-34.842,87.045L-34.774,85.909L-34.705,83.182L-34.637,81.591L-34.568,82.955L-34.5,85.682L-34.431,85.227L-34.363,85L-34.294,82.955L-34.226,83.182L-34.158,81.136L-34.089,82.045L-34.021,85.909L-33.952,86.364L-33.884,84.773L-33.815,84.091L-33.747,84.773L-33.678,85L-33.61,85L-33.542,85.682L-33.473,85.682L-33.405,82.955L-33.336,77.955L-33.268,76.591L-33.199,76.818L-33.131,78.409L-33.062,79.773L-32.994,82.727L-32.926,80L-32.857,76.591L-32.789,77.045L-32.72,76.136L-32.652,79.545L-32.583,82.045L-32.515,82.045L-32.446,79.545L-32.378,78.636L-32.309,77.273L-32.241,76.591L-32.173,77.955L-32.104,80.455L-32.036,78.636L-31.967,76.591L-31.899,76.591L-31.83,76.818L-31.762,75.909L-31.693,76.136L-31.625,76.818L-31.488,77.5L-31.42,76.818L-31.351,76.818L-31.283,77.955L-31.214,80.455L-31.146,82.727L-31.077,83.636L-31.009,81.818L-30.941,81.591L-30.872,80.682L-30.804,79.318L-30.735,80.455L-30.667,81.136L-30.598,82.045L-30.53,80.682L-30.461,78.182L-30.393,77.5L-30.325,77.273L-30.256,78.864L-30.188,80.227L-30.119,82.273L-30.051,80L-29.982,77.955L-29.914,77.955L-29.845,76.591L-29.777,76.364L-29.709,77.273L-29.64,77.727L-29.572,78.182L-29.503,77.045L-29.435,77.5L-29.366,76.364L-29.298,78.864L-29.229,80.227L-29.161,79.545L-29.093,75.909L-29.021,74.773L-28.953,75L-28.884,71.818L-28.816,74.773L-28.747,78.636L-28.611,77.955L-28.542,76.136L-28.474,75L-28.405,72.045L-28.337,71.364L-28.268,72.727L-28.2,73.409L-28.131,71.591L-28.063,70L-27.995,68.182L-27.926,67.955L-27.858,69.318L-27.789,71.818L-27.721,74.773L-27.652,72.955L-27.584,71.818L-27.515,72.5L-27.447,73.182L-27.379,73.864L-27.31,74.545L-27.242,75.909L-27.173,73.636L-27.105,72.727L-27.036,74.318L-26.968,77.273L-26.899,78.409L-26.831,79.545L-26.762,81.591L-26.694,77.273L-26.626,75.227L-26.557,76.818L-26.489,78.182L-26.42,77.955L-26.352,81.818L-26.283,84.545L-26.215,83.636L-26.146,82.273L-26.078,83.409L-26.01,83.182L-25.941,82.273L-25.873,85.455L-25.804,85.909L-25.736,86.591L-25.667,85.682L-25.599,85.227L-25.53,84.773L-25.462,84.091L-25.394,83.864L-25.325,84.773L-25.257,82.727L-25.188,83.409L-25.12,81.136L-25.051,80.455L-24.983,79.091L-24.914,78.864L-24.846,77.955L-24.778,75.682L-24.709,73.636L-24.641,73.864L-24.572,70.455L-24.504,66.136L-24.435,67.5L-24.367,69.091L-24.298,67.727L-24.23,66.591L-24.162,65L-24.093,63.182L-24.025,62.955L-23.956,65.455L-23.888,68.636L-23.819,67.955L-23.751,66.136L-23.682,61.364L-23.614,61.591L-23.546,57.045L-23.477,59.318L-23.409,60.227L-23.34,58.636L-23.272,56.818L-23.203,55.227L-23.135,52.727L-23.066,54.773L-22.998,57.273L-22.93,58.864L-22.861,56.818L-22.793,55.909L-22.724,51.818L-22.656,53.636L-22.587,55L-22.519,60L-22.45,65L-22.382,64.773L-22.313,63.864L-22.245,63.864L-22.177,61.818L-22.108,62.273L-22.04,66.136L-21.971,66.364L-21.903,64.091L-21.834,61.136L-21.766,58.864L-21.697,55.682L-21.629,58.409L-21.561,59.091L-21.492,65.227L-21.424,64.091L-21.355,62.727L-21.287,62.273L-21.218,61.818L-21.15,61.818L-21.081,64.091L-21.013,65.909L-20.945,65L-20.876,62.727L-20.808,62.273L-20.739,60.909L-20.671,67.727L-20.602,69.318L-20.534,72.273L-20.465,69.773L-20.4,69.091L-20.331,67.273L-20.263,65.909L-20.195,64.773L-20.126,68.636L-20.058,70.682L-19.989,68.409L-19.921,69.545L-19.852,69.545L-19.784,69.091L-19.715,70.227L-19.647,76.818L-19.578,78.636L-19.51,75.682L-19.442,74.091L-19.373,74.091L-19.305,72.5L-19.236,72.045L-19.168,73.182L-19.099,76.136L-19.031,73.864L-18.962,72.5L-18.894,71.364L-18.826,73.864L-18.757,74.318L-18.689,77.273L-18.62,75.455L-18.552,72.955L-18.483,71.818L-18.415,73.409L-18.346,73.409L-18.278,74.545L-18.21,76.818L-18.141,80L-18.073,78.864L-18.004,76.364L-17.936,77.727L-17.867,76.591L-17.799,77.5L-17.73,80.909L-17.662,82.5L-17.594,81.364L-17.525,80.682L-17.457,82.045L-17.388,84.545L-17.32,84.318L-17.251,87.727L-17.183,90.455L-17.114,92.045L-17.046,91.591L-16.978,94.091L-16.909,94.091L-16.841,95.909L-16.772,96.591L-16.704,99.091L-16.635,98.636L-16.567,100.682L-16.498,100.909L-16.43,99.773L-16.362,99.773L-16.293,101.591L-16.225,102.5L-16.156,100.455L-16.088,98.864L-16.019,98.409L-15.951,99.545L-15.882,100.227L-15.814,100.909L-15.745,101.591L-15.677,98.864L-15.609,96.591L-15.54,96.364L-15.472,96.364L-15.403,97.727L-15.335,97.273L-15.266,97.727L-15.198,95.909L-15.129,94.091L-15.061,92.045L-14.993,92.273L-14.924,91.136L-14.856,92.045L-14.787,92.5L-14.719,91.136L-14.65,90.227L-14.582,89.773L-14.513,87.5L-14.445,89.318L-14.377,90.682L-14.308,90.909L-14.24,86.591L-14.171,85.455L-14.103,86.818L-14.034,87.727L-13.966,88.182L-13.897,90L-13.829,91.136L-13.761,90.455L-13.692,90L-13.624,90.909L-13.555,91.364L-13.487,91.364L-13.418,92.273L-13.35,92.5L-13.281,92.727L-13.213,91.591L-13.145,90.909L-13.076,90L-13.008,90.682L-12.939,91.591L-12.871,92.5L-12.802,91.591L-12.734,90.227L-12.665,90.227L-12.597,90.227L-12.529,90.682L-12.46,92.5L-12.392,92.727L-12.323,91.136L-12.255,90.909L-12.186,95L-12.118,95L-12.049,95.682L-11.981,96.136L-11.913,96.136L-11.844,94.545L-11.776,93.636L-11.707,94.773L-11.639,95L-11.57,96.364L-11.502,97.727L-11.433,97.727L-11.365,95.227L-11.296,95.909L-11.228,93.636L-11.16,95.455L-11.091,97.955L-11.023,100L-10.954,100.455L-10.886,97.727L-10.817,96.818L-10.749,98.182L-10.68,99.318L-10.612,100.227L-10.544,101.136L-10.475,101.136L-10.407,100.227L-10.338,89.545L-10.27,89.318L-10.201,89.091L-10.133,84.545L-10.064,86.136L-9.996,86.136L-9.928,85L-9.859,84.318L-9.791,83.864L-9.722,84.318L-9.654,81.818L-9.585,82.955L-9.517,82.5L-9.448,80.227L-9.38,78.409L-9.312,77.727L-9.243,75.909L-9.175,76.591L-9.106,77.273L-9.038,77.273L-8.969,75.227L-8.901,73.864L-8.832,75L-8.764,73.636L-8.696,72.727L-8.627,72.5L-8.559,72.727L-8.49,70.227L-8.422,70L-8.353,70.227L-8.285,79.318L-8.216,79.091L-8.148,79.773L-8.08,81.591L-8.011,79.773L-7.943,78.636L-7.874,78.636L-7.806,79.318L-7.737,80.909L-7.669,82.045L-7.6,84.545L-7.532,81.136L-7.463,80.227L-7.395,80L-7.327,81.136L-7.258,84.318L-7.19,85.682L-7.121,86.136L-7.053,85.909L-6.984,85.455L-6.916,85.909L-6.847,84.773L-6.779,84.318L-6.711,86.591L-6.642,86.818L-6.574,86.136L-6.505,85.455L-6.437,85.455L-6.368,84.545L-6.3,85.455L-6.231,87.5L-6.163,87.727L-6.026,87.727L-5.958,88.636L-5.889,89.091L-5.821,88.636L-5.752,89.545L-5.684,90.909L-5.615,88.636L-5.547,87.273L-5.479,87.045L-5.41,88.636L-5.342,89.773L-5.273,90.909L-5.205,91.818L-5.136,88.864L-5.068,88.864L-4.999,86.818L-4.931,85L-4.863,85.682L-4.794,87.5L-4.726,90.455L-4.657,91.364L-4.589,88.182L-4.52,86.364L-4.452,87.273L-4.383,88.182L-4.315,90.227L-4.247,92.5L-4.178,91.818L-4.107,90.227L-4.038,87.727L-3.97,86.591L-3.901,86.591L-3.833,87.5L-3.765,90L-3.696,87.045L-3.628,83.636L-3.559,85L-3.491,83.636L-3.422,83.182L-3.354,83.182L-3.285,83.864L-3.217,84.318L-3.149,83.409L-3.08,83.864L-3.012,83.409L-2.943,85.682L-2.875,86.591L-2.806,86.364L-2.738,83.182L-2.669,80.682L-2.601,80.909L-2.533,83.636L-2.464,85.455L-2.396,85L-2.327,84.773L-2.259,83.182L-2.19,82.273L-2.122,81.364L-2.053,82.273L-1.985,86.591L-1.916,88.409L-1.848,89.318L-1.78,89.545L-1.711,88.864L-1.643,89.318L-1.574,92.273L-1.506,92.273L-1.437,94.545L-1.369,93.636L-1.3,92.5L-1.232,91.364L-1.164,90L-1.095,90.682L-1.027,91.818L-0.958,93.182L-0.89,93.864L-0.821,94.318L-0.753,92.727L-0.684,94.545L-0.616,95L-0.548,93.636L-0.479,94.318L-0.411,95L-0.342,90.227L-0.274,85.455L-0.205,82.273L-0.137,80.682L-0.068,79.545L0,80L0.068,79.318L0.137,77.5L0.205,75.682L0.274,72.5L0.342,71.818L0.411,71.818L0.479,72.045L0.548,70.909L0.616,69.318L0.684,68.636L0.753,68.864L0.821,67.5L0.89,68.864L0.958,68.182L1.027,69.091L1.095,68.864L1.164,67.045L1.232,62.273L1.3,61.818L1.369,60.909L1.437,62.727L1.506,61.818L1.574,59.545L1.643,57.727L1.711,60.455L1.78,62.045L1.848,64.773L1.916,66.364L1.985,68.864L2.053,66.818L2.122,66.136L2.19,68.409L2.259,67.273L2.327,69.318L2.396,70.227L2.464,72.273L2.533,69.545L2.601,70L2.669,70L2.738,71.364L2.806,73.182L2.875,74.318L2.943,74.091L3.012,73.636L3.08,72.045L3.149,67.5L3.217,68.864L3.285,72.5L3.354,74.318L3.422,77.045L3.491,77.273L3.559,78.636L3.628,78.636L3.696,77.727L3.765,78.182L3.833,80.455L3.901,82.273L3.97,82.955L4.038,81.591L4.107,82.955L4.175,83.864L4.244,81.818L4.312,84.545L4.381,84.545L4.449,83.182L4.517,82.5L4.586,82.273L4.654,82.727L4.723,83.182L4.791,83.182L4.86,82.955L4.928,82.5L4.994,81.818L5.062,80.682L5.131,80.455L5.199,82.727L5.268,83.864L5.336,84.773L5.404,84.318L5.473,82.955L5.541,79.545L5.61,77.045L5.678,78.636L5.747,81.818L5.815,83.409L5.884,83.409L5.952,81.591L6.02,77.727L6.089,77.955L6.157,77.045L6.226,77.5L6.294,79.318L6.363,78.182L6.431,78.636L6.5,78.636L6.568,79.318L6.636,80L6.705,81.591L6.773,82.955L6.842,82.5L6.91,80.455L6.979,81.364L7.047,81.136L7.116,81.591L7.184,83.636L7.252,84.773L7.321,82.5L7.389,80.909L7.458,79.318L7.526,77.045L7.595,80L7.663,82.727L7.732,82.955L7.8,80.682L7.868,79.773L7.937,80L8.005,81.364L8.074,84.091L8.142,85L8.211,86.591L8.279,87.5L8.348,85.455L8.416,85.455L8.484,82.727L8.553,84.091L8.621,85L8.69,86.818L8.758,85.682L8.827,82.727L8.895,81.818L8.964,83.182L9.032,82.273L9.101,83.864L9.169,85.227L9.237,82.727L9.306,80.227L9.374,79.545L9.443,78.636L9.511,81.136L9.58,84.773L9.648,85L9.717,83.636L9.785,82.727L9.853,82.727L9.922,81.136L9.99,81.818L10.059,82.955L10.127,82.5L10.196,81.136L10.264,81.136L10.333,78.182L10.401,75.909L10.469,77.727L10.538,80.227L10.675,80.227L10.743,78.409L10.812,75.455L10.88,72.273L10.949,73.182L11.017,74.545L11.085,75.455L11.154,74.545L11.222,71.591L11.291,71.818L11.359,73.182L11.428,76.364L11.496,79.545L11.565,81.136L11.633,79.318L11.701,76.364L11.77,75.682L11.838,74.773L11.907,74.318L11.975,76.591L12.044,79.545L12.112,78.182L12.181,76.591L12.249,77.273L12.317,78.636L12.386,77.727L12.454,79.773L12.523,83.864L12.591,82.727L12.66,80.682L12.728,80.227L12.797,80.227L12.865,82.5L12.933,86.364L13.002,87.727L13.07,87.5L13.139,87.5L13.207,87.727L13.276,89.773L13.344,88.636L13.413,89.091L13.481,89.773L13.55,87.955L13.618,87.955L13.686,89.318L13.755,90.455L13.823,90.455L13.892,93.636L13.96,95.455L14.029,92.955L14.097,90.455L14.166,90.682L14.234,91.591L14.302,91.818L14.371,92.045L14.439,93.409L14.508,93.864L14.576,92.273L14.645,92.5L14.713,94.545L14.782,94.091L14.85,95.227L14.918,95.227L14.987,93.636L15.055,91.136L15.124,90L15.192,89.773L15.261,90.682L15.329,91.136L15.398,93.182L15.466,92.5L15.534,91.818L15.603,90.909L15.671,90L15.74,89.773L15.808,91.136L15.877,91.818L15.945,90.682L16.014,89.545L16.082,90.909L16.15,92.045L16.219,91.364L16.287,91.591L16.356,92.955L16.424,92.727L16.493,90.909L16.561,89.545L16.63,87.5L16.698,87.5L16.766,88.409L16.835,89.545L16.903,88.636L16.972,87.955L17.04,88.636L17.109,90.455L17.177,91.818L17.246,93.182L17.314,95L17.383,95.227L17.451,93.864L17.519,92.5L17.588,92.045L17.656,93.636L17.725,96.136L17.793,97.273L17.862,96.136L17.93,95.227L17.999,95.909L18.067,95L18.135,96.136L18.204,96.818L18.272,98.864L18.341,97.5L18.409,95L18.478,93.864L18.546,92.727L18.615,92.273L18.683,95.909L18.751,96.591L18.82,94.773L18.888,94.091L18.957,94.318L19.025,94.545L19.094,93.636L19.162,94.545L19.231,95.227L19.299,92.5L19.367,90.682L19.436,90L19.504,88.864L19.573,90.682L19.641,90.909L19.71,91.136L19.778,89.091L19.847,88.182L19.915,88.182L19.983,88.864L20.052,87.5L20.12,89.545L20.189,88.182L20.257,84.545L20.326,83.409L20.394,81.591L20.463,83.636L20.531,82.727L20.599,85.682L20.668,86.364L20.736,84.773L20.805,83.409L20.873,83.636L20.942,82.273L21.01,80.909L21.079,82.045L21.147,83.409L21.215,82.727L21.287,81.591L21.355,80L21.424,79.091L21.492,79.318L21.561,82.273L21.629,82.955L21.697,80.455L21.766,79.318L21.834,80.455L21.903,80L21.971,78.636L22.04,78.182L22.108,79.773L22.177,78.636L22.245,77.045L22.313,78.409L22.382,79.773L22.45,82.727L22.519,82.955L22.587,85.682L22.656,84.773L22.724,82.5L22.793,82.955L22.861,82.955L22.93,82.727L22.998,84.545L23.066,86.364L23.135,86.136L23.203,84.318L23.272,83.182L23.34,81.364L23.409,82.955L23.477,85.455L23.546,86.818L23.614,84.545L23.682,82.045L23.751,80L23.819,80.682L23.888,79.773L23.956,80L24.025,82.955L24.093,84.318L24.162,83.864L24.23,82.273L24.298,83.864L24.367,85.682L24.435,85.682L24.504,86.136L24.572,82.5L24.641,79.318L24.709,77.727L24.778,79.773L24.846,79.318L24.914,80.227L24.983,81.364L25.051,79.773L25.12,79.091L25.188,78.182L25.257,78.182L25.325,76.364L25.394,79.091L25.462,81.364L25.53,79.318L25.599,77.955L25.667,77.5L25.736,78.409L25.804,79.545L25.873,79.091L25.941,80L26.01,75.909L26.078,71.364L26.146,68.864L26.215,67.5L26.283,70.227L26.352,70.909L26.42,70.682L26.489,69.545L26.557,68.864L26.626,70L26.694,72.5L26.762,73.864L26.831,74.545L26.899,72.955L26.968,70.682L27.036,69.091L27.105,68.636L27.173,69.318L27.242,70.682L27.31,72.045L27.379,74.318L27.447,72.045L27.515,69.773L27.584,70.682L27.652,71.591L27.721,73.864L27.789,72.955L27.858,75L27.926,71.364L27.995,69.773L28.063,71.364L28.131,75L28.2,77.5L28.268,78.182L28.337,75.682L28.405,73.636L28.474,73.409L28.542,72.045L28.611,73.182L28.679,75.909L28.747,75.682L28.816,75.227L28.953,75L29.021,76.364L29.09,79.318L29.158,81.591L29.227,84.091L29.295,84.091L29.432,83.864L29.5,82.045L29.569,82.5L29.637,83.636L29.706,84.773L29.774,85.455L29.843,82.955L29.908,82.727L29.977,84.091L30.045,84.091L30.114,87.955L30.182,90.227L30.25,92.955L30.319,92.955L30.387,90.227L30.456,89.318L30.524,91.364L30.593,93.409L30.661,95L30.73,96.818L30.798,92.727L30.866,90.909L30.935,90.455L31.003,90.227L31.072,90.455L31.14,92.5L31.209,92.5L31.277,90.455L31.346,88.409L31.414,87.045L31.482,86.136L31.551,89.545L31.619,90L31.688,90L31.756,90.682L31.825,88.636L31.893,90.682L31.962,89.318L32.03,90.455L32.098,92.045L32.235,92.5L32.304,91.364L32.372,90.227L32.441,89.773L32.509,90.682L32.578,93.409L32.646,92.5L32.714,90.227L32.783,88.636L32.851,86.818L32.92,88.409L32.988,89.773L33.057,90.682L33.125,92.045L33.194,92.955L33.262,91.364L33.33,90.909L33.399,89.773L33.467,90.455L33.536,92.273L33.604,93.409L33.673,91.136L33.741,91.136L33.81,90.682L33.878,89.773L33.946,91.364L34.015,92.5L34.083,94.773L34.152,94.318L34.22,93.864L34.289,91.818L34.357,91.136L34.426,92.045L34.494,93.182L34.563,94.318L34.631,91.818L34.699,92.727L34.768,93.864L34.836,94.091L34.905,94.318L34.973,96.591L35.042,96.818L35.11,96.136L35.179,95.909L35.247,93.636L35.315,94.091L35.384,93.864L35.452,97.273L35.521,98.182L35.589,97.273L35.658,97.5L35.726,98.182L35.795,95.227L35.863,95L35.931,95.909L36,96.136L36.068,94.773L36.137,92.273L36.205,92.045L36.274,89.773L36.342,89.773L36.411,91.591L36.479,91.591L36.547,89.318L36.616,88.409L36.684,89.091L36.753,89.091L36.821,90L36.89,90.682L36.958,92.955L37.027,91.591L37.095,88.864L37.163,89.545L37.232,87.5L37.3,88.409L37.369,89.773L37.437,90.682L37.506,89.773L37.574,90L37.643,88.864L37.711,87.045L37.779,86.591L37.848,89.091L37.916,90.455L37.985,88.864L38.053,87.5L38.122,85.909L38.19,85.909L38.259,86.364L38.327,89.091L38.396,92.045L38.464,89.545L38.532,89.318L38.601,89.318L38.669,88.864L38.738,90.227L38.806,90.682L38.875,91.364L38.943,89.545L39.012,88.636L39.08,87.273L39.148,89.318L39.217,88.182L39.285,90.682L39.354,92.045L39.422,91.364L39.491,89.545L39.559,89.091L39.628,88.182L39.696,88.636L39.764,89.773L39.833,91.136L39.901,91.591L39.97,91.136L40.038,92.273L40.107,92.5L40.175,92.955L40.244,94.545L40.312,95L40.38,93.636L40.449,91.591L40.517,92.955L40.586,92.955L40.654,93.636L40.723,95.227L40.791,95.455L40.86,94.091L40.928,91.818L40.996,91.364L41.065,90L41.133,91.818L41.202,92.727L41.27,94.318L41.339,93.636L41.407,92.045L41.476,89.773L41.544,89.773L41.612,87.273L41.681,87.273L41.749,88.636L41.818,86.818L41.886,83.636L41.955,84.091L42.023,83.182L42.092,82.045L42.16,84.091L42.228,86.364L42.297,85.909L42.365,82.955L42.434,82.727L42.502,83.409L42.571,82.5L42.639,83.864L42.708,85.455L42.776,82.955L42.845,82.955L42.913,82.727L42.981,84.545L43.05,85.909L43.118,88.409L43.187,89.091L43.255,86.364L43.324,82.727L43.392,80.682L43.461,78.864L43.529,80.455L43.597,82.045L43.666,85.682L43.734,83.409L43.803,82.5L43.871,83.409L43.94,84.545L44.008,82.727L44.077,85.227L44.145,86.591L44.213,84.091L44.282,82.955L44.35,81.818L44.419,82.5L44.487,82.727L44.556,84.318L44.624,86.364L44.693,83.182L44.761,82.045L44.829,84.318L44.898,82.955L44.966,84.091L45.035,83.864L45.103,84.545L45.172,83.864L45.24,81.364L45.309,83.636L45.377,87.727L45.445,89.773L45.514,92.727L45.582,91.818L45.651,89.545L45.719,87.045L45.788,89.773L45.856,89.091L45.925,88.409L45.993,90.682L46.061,92.5L46.13,90.909L46.201,89.773L46.27,90L46.338,90L46.407,90.682L46.475,92.727L46.543,94.773L46.612,92.5L46.68,88.864L46.749,91.364L46.817,90.909L46.886,90L46.954,91.591L47.023,91.818L47.091,91.364L47.159,91.591L47.228,90.682L47.296,91.818L47.365,90.682L47.433,90.909L47.502,92.045L47.57,92.045L47.639,92.5L47.707,91.591L47.775,93.636L47.844,93.636L47.912,96.136L47.981,98.636L48.049,98.409L48.118,96.818L48.186,97.955L48.255,97.273L48.323,98.636L48.392,98.182L48.46,97.273L48.528,95L48.597,90.909L48.665,90L48.734,92.045L48.802,92.5L48.871,93.409L48.939,94.091L49.008,93.864L49.076,92.045L49.144,91.818L49.213,91.364L49.281,93.409L49.35,95.682L49.418,95.682L49.487,94.091L49.555,93.409L49.624,90.455L49.692,90.909L49.76,94.318L49.829,94.773L49.966,93.864L50.034,91.591L50.103,89.773L50.171,89.091L50.24,88.864L50.308,88.636L50.376,90L50.445,87.5L50.513,87.273L50.582,87.5L50.65,88.864L50.719,90.227L50.787,92.5L50.856,94.318L50.924,90L50.992,88.864L51.061,88.182L51.129,86.818L51.198,88.182L51.266,89.545L51.335,90.455L51.403,90.227L51.472,87.727L51.54,87.727L51.608,86.818L51.677,87.045L51.745,90.227L51.814,91.364L51.882,90.682L51.951,88.864L52.019,88.409L52.088,88.182L52.156,87.273L52.225,85.682L52.293,87.5L52.361,86.364L52.43,86.364L52.498,87.727L52.567,87.273L52.635,87.5L52.704,87.955L52.772,90L52.841,88.864L52.909,86.364L52.977,88.182L53.046,89.773L53.114,90.455L53.183,92.045L53.251,93.409L53.32,91.818L53.388,90L53.457,88.636L53.525,89.091L53.593,89.318L53.662,89.773L53.73,88.864L53.799,86.364L53.867,85.227L53.936,84.091L54.004,83.636L54.073,84.091L54.141,85.455L54.209,87.727L54.278,90.227L54.346,90L54.415,89.318L54.483,87.955L54.552,88.409L54.62,90.455L54.689,90.682L54.757,88.409L54.823,85.682L54.891,84.545L54.96,83.636L55.028,86.136L55.096,85.682L55.165,84.545L55.233,80.909L55.302,78.182L55.37,78.864L55.439,79.773L55.507,78.864L55.576,80.227L55.644,80.682L55.712,79.773L55.781,79.545L55.849,79.773L55.918,80.227L55.986,81.364L56.055,83.864L56.123,84.318L56.192,83.182L56.26,81.136L56.328,79.091L56.397,76.591L56.465,77.5L56.534,79.773L56.602,79.545L56.671,77.273L56.739,75L56.808,76.591L56.876,78.182L56.944,79.773L57.013,82.955L57.081,81.818L57.15,81.136L57.218,80.909L57.287,81.818L57.355,82.273L57.424,81.591L57.492,82.955L57.56,84.318L57.629,81.818L57.697,81.591L57.766,82.955L57.834,83.409L57.903,84.318L57.971,83.636L58.04,83.864L58.108,83.182L58.176,82.045L58.245,80.909L58.313,82.045L58.382,82.273L58.45,85L58.519,85.909L58.587,84.545L58.656,82.5L58.724,82.955L58.792,84.091L58.861,82.273L58.929,83.409L58.998,83.864L59.066,82.273L59.135,82.045L59.203,80.909L59.272,80L59.34,80.455L59.409,82.727L59.477,83.864L59.545,80.682L59.614,79.545L59.682,78.636L59.751,77.955L59.819,77.955L59.888,78.409L59.956,78.636L60.025,79.545L60.093,78.864L60.161,77.045L60.23,78.409L60.298,80.455L60.367,81.364L60.435,83.409L60.504,81.591L60.572,80.909L60.641,81.364L60.709,80.682L60.777,79.773L60.846,82.045L60.914,84.318L60.983,83.864L61.051,83.636L61.12,81.818L61.188,80L61.257,79.773L61.325,82.045L61.393,83.864L61.462,80.682L61.53,80.455L61.599,82.5L61.667,82.727L61.736,85L61.804,86.136L61.873,87.5L61.941,86.591L62.009,85.227L62.078,83.182L62.146,83.409L62.215,83.864L62.283,84.545L62.352,85.227L62.42,82.955L62.489,82.5L62.557,66.591L62.625,65.227L62.694,65L62.762,69.091L62.831,70.909L62.899,69.545L62.968,67.955L63.036,67.273L63.105,66.136L63.173,68.864L63.242,71.136L63.31,72.727L63.378,70.909L63.447,68.636L63.515,68.864L63.584,68.409L63.652,68.182L63.721,69.091L63.789,68.636L63.858,66.591L63.926,64.318L63.994,62.955L64.063,63.864L64.131,66.136L64.2,67.273L64.268,66.591L64.337,65.227L64.405,62.045L64.474,63.182L64.542,62.5L64.61,79.318L64.679,81.364L64.816,82.955L64.884,82.727L64.953,80.909L65.021,78.864L65.09,79.091L65.158,79.545L65.226,79.545L65.295,79.545L65.363,78.864L65.432,77.955L65.5,77.273L65.569,79.318L65.637,81.818L65.706,80.682L65.774,80.227L65.842,78.636L65.911,79.773L65.979,81.136L66.048,82.955L66.116,83.409L66.185,84.318L66.253,82.045L66.322,79.773L66.39,80L66.458,80.455L66.527,84.318L66.595,86.136L66.664,85.455L66.732,84.091L66.801,83.182L66.869,81.818L66.938,81.136L67.006,82.727L67.074,86.818L67.211,88.864L67.28,86.364L67.348,86.818L67.417,85.455L67.485,85L67.554,86.818L67.622,90L67.691,90.455L67.759,89.318L67.827,90.227L67.896,89.318L67.964,91.136L68.033,90.909L68.101,91.818L68.17,87.727L68.238,88.636L68.307,86.364L68.375,87.727L68.443,87.5L68.512,90L68.58,90.909L68.649,89.318L68.717,85.455L68.786,85.227L68.854,85.227L68.923,85.455L68.991,85.682L69.059,85.909L69.128,86.364L69.196,84.773L69.265,81.818L69.333,84.318L69.402,84.773L69.47,85.455L69.539,87.955L69.607,87.727L69.675,85.682L69.744,84.545L69.812,82.955L69.881,81.818L69.949,83.636L70.018,84.091L70.086,82.955L70.155,82.045L70.223,84.545L70.291,85.909L70.36,88.864L70.428,90L70.497,92.5L70.565,90.455L70.634,88.409L70.702,87.045L70.771,87.727L70.839,88.182L70.907,90.455L70.976,91.818L71.044,91.818L71.116,91.591L71.184,91.136L71.253,91.364L71.321,93.182L71.389,94.545L71.458,96.364L71.526,95.909L71.595,93.409L71.663,91.136L71.732,91.591L71.8,90.909L71.869,92.955L71.937,95.909L72.005,94.545L72.074,90.682L72.142,89.773L72.211,89.318L72.279,87.727L72.348,87.727L72.416,86.818L72.485,84.545L72.553,84.091L72.621,84.318L72.69,84.318L72.758,85.682L72.827,87.273L72.895,87.727L72.964,87.273L73.032,86.136L73.101,85L73.169,84.091L73.238,84.545L73.306,85L73.374,85.909L73.443,83.636L73.511,81.136L73.58,80.455L73.648,79.091L73.717,81.364L73.785,82.955L73.854,83.864L73.922,83.182L73.99,79.091L74.059,78.409L74.127,80L74.196,82.045L74.264,83.636L74.333,86.818L74.401,86.136L74.47,85.227L74.538,85L74.606,83.864L74.675,85L74.743,87.045L74.812,87.273L74.88,88.409L74.949,86.818L75.017,86.136L75.086,85.227L75.154,86.136L75.222,86.818L75.291,87.955L75.359,86.818L75.428,86.591L75.496,85.909L75.565,87.955L75.633,89.773L75.702,92.727L75.77,93.182L75.838,91.364L75.907,90.909L75.975,89.545L76.044,91.364L76.112,93.182L76.181,95.682L76.249,96.818L76.318,96.364L76.386,95.682L76.454,94.773L76.523,95.682L76.591,96.818L76.66,98.182L76.728,99.091L76.797,95.682L76.865,94.318L76.934,92.045L77.002,92.273L77.07,92.273L77.139,94.091L77.207,94.545L77.276,92.955L77.344,89.773L77.413,90.227L77.481,89.545L77.55,90.227L77.618,90L77.687,90L77.755,89.091L77.823,85.682L77.892,86.364L77.96,85.682L78.029,87.273L78.097,88.182L78.166,89.091L78.234,89.318L78.303,87.045L78.371,85L78.439,84.545L78.508,84.318L78.576,84.773L78.645,86.136L78.713,84.091L78.782,82.727L78.85,83.409L78.919,84.091L78.987,84.773L79.055,86.136L79.124,87.5L79.192,84.318L79.261,84.318L79.329,82.5L79.398,83.409L79.466,82.955L79.535,83.636L79.603,85L79.671,82.727L79.737,81.136L79.805,80.909L79.874,82.045L79.942,79.318L80.011,81.136L80.079,81.136L80.148,79.318L80.216,74.318L80.285,70.682L80.353,71.364L80.422,72.5L80.49,74.091L80.558,76.136L80.627,75.455L80.695,73.864L80.764,73.636L80.832,73.409L80.901,75.227L80.969,76.364L81.038,77.727L81.106,76.818L81.174,75L81.243,76.591L81.311,76.136L81.38,78.182L81.448,79.773L81.517,81.591L81.585,80.455L81.654,77.955L81.722,78.409L81.79,79.091L81.859,79.091L81.927,81.364L81.996,85.455L82.064,85L82.133,83.182L82.201,84.773L82.27,86.818L82.338,87.955L82.406,89.091L82.475,89.773L82.543,88.182L82.612,85.682L82.68,84.545L82.749,84.773L82.817,85.455L82.886,86.591L82.954,87.955L83.022,87.273L83.091,86.136L83.159,86.591L83.228,86.364L83.296,88.409L83.365,89.318L83.433,89.773L83.502,88.636L83.57,85.227L83.638,84.318L83.707,85.227L83.775,85.909L83.844,87.727L83.912,88.182L83.981,85.455L84.049,84.091L84.118,84.091L84.186,85.227L84.255,87.045L84.323,88.864L84.391,89.318L84.46,87.955L84.528,86.364L84.597,86.136L84.665,85.682L84.734,87.727L84.802,87.955L84.871,89.091L85.007,87.5L85.076,85.455L85.144,83.864L85.213,83.182L85.281,84.318L85.35,85.682L85.418,84.318L85.487,81.591L85.555,82.273L85.623,83.864L85.692,85L85.76,87.5L85.829,89.091L85.897,89.773L85.966,87.273L86.034,85.455L86.103,85.455L86.171,85.455L86.239,85L86.308,87.045L86.376,85.682L86.445,84.773L86.513,84.545L86.582,85.455L86.65,86.364L86.719,87.5L86.787,90L86.855,89.545L86.924,89.091L86.992,89.545L87.061,90.455L87.129,92.273L87.198,95L87.266,96.818L87.335,97.273L87.403,95.909L87.471,94.773L87.54,96.591L87.608,95.682L87.677,95.455L87.745,97.045L87.814,96.364L87.882,94.091L87.951,93.409L88.019,93.636L88.087,95.682L88.156,98.409L88.224,99.773L88.293,100.455L88.361,100L88.43,98.409L88.498,99.773L88.567,99.773L88.635,100.227L88.704,101.818L88.772,101.364L88.84,100.682L88.909,99.545L88.977,100L89.046,99.318L89.114,99.318L89.183,99.773L89.251,97.955L89.32,97.045L89.388,95L89.456,95.909L89.525,97.5L89.593,98.636L89.662,100.227L89.73,98.864L89.799,97.5L89.867,95.455L89.936,96.364L90.004,96.818L90.072,98.864L90.141,99.773L90.209,97.955L90.278,94.091L90.346,94.318L90.415,93.864L90.483,95L90.552,95.682L90.62,92.955L90.688,90.682L90.757,89.091L90.825,88.409L90.894,88.182L90.962,89.545L91.031,90L91.099,89.545L91.168,88.636L91.236,86.591L91.304,85.909L91.373,84.773L91.441,85.682L91.51,86.364L91.578,86.136L91.647,84.545L91.715,82.5L91.784,84.091L91.852,85L91.92,87.727L91.989,89.091L92.057,86.818L92.126,86.136L92.194,83.182L92.263,82.727L92.331,84.773L92.4,84.773L92.468,84.318L92.537,85L92.673,83.182L92.742,85.455L92.81,85.455L92.879,84.091L92.947,84.318L93.016,85.455L93.084,82.5L93.153,83.182L93.221,82.273L93.289,82.727L93.358,83.182L93.426,84.318L93.495,86.136L93.563,86.136L93.632,85.682L93.7,85.682L93.769,85.909L93.837,85L93.905,83.636L93.974,84.773L94.042,83.864L94.111,82.5L94.179,84.091L94.248,82.727L94.316,84.773L94.385,87.045L94.453,89.091L94.521,88.864L94.59,87.5L94.658,86.591L94.727,87.5L94.795,87.727L94.864,89.545L94.932,92.273L95.001,92.045L95.069,90.909L95.137,93.636L95.206,92.273L95.274,94.091L95.343,94.091L95.411,95.455L95.48,96.591L95.548,95.909L95.617,95.682L95.685,96.364L95.753,95.909L95.822,96.818L95.89,100.227L95.959,100.682L96.03,98.636L96.099,97.727L96.167,96.591L96.235,97.955L96.304,98.864L96.372,99.545L96.441,97.727L96.509,94.545L96.578,93.409L96.646,95.227L96.715,96.136L96.783,97.5L96.851,98.864L96.92,97.727L96.988,96.136L97.057,96.364L97.125,96.364L97.194,95.682L97.262,97.273L97.331,97.955L97.399,98.409L97.467,97.727L97.536,97.273L97.604,97.5L97.673,99.091L97.741,99.318L97.81,98.864L97.878,99.545L97.947,99.545L98.015,98.409L98.084,98.636L98.152,100.682L98.22,103.636L98.289,102.045L98.357,102.273L98.426,101.136L98.494,101.591L98.563,102.273L98.631,103.182L98.7,103.409L98.768,103.636L98.836,102.955L98.905,102.045L98.973,101.818L99.042,102.5L99.11,101.818L99.179,102.727L99.247,104.318L99.316,104.091L99.384,103.182L99.452,101.364L99.589,100.682L99.658,100L99.726,100.455L99.795,98.409L99.863,97.5L99.932,97.045L100,94.773L100.068,93.864L100.137,95L100.205,94.773L100.274,92.5L100.342,90.682L100.411,90.682L100.479,89.318L100.548,91.136L100.616,92.5L100.684,92.727L100.753,91.591L100.821,90L100.89,88.409L100.958,87.045L101.027,88.864L101.095,91.136L101.164,92.273L101.232,94.318L101.3,91.136L101.369,88.636L101.437,87.727L101.506,87.5L101.574,89.545L101.643,88.409L101.711,86.818L101.78,86.364L101.848,85L101.916,83.182L101.985,85L102.053,86.364L102.19,85.682L102.259,86.136L102.327,86.591L102.396,88.409L102.464,88.409L102.533,90.227L102.601,92.273L102.669,89.545L102.738,88.409L102.806,88.636L102.875,90.227L102.943,90L103.012,91.136L103.08,92.727L103.149,92.273L103.217,91.591L103.285,90L103.354,89.318L103.422,91.818L103.491,94.318L103.559,94.773L103.628,94.773L103.696,94.545L103.765,97.273L103.833,99.545L103.901,100.455L103.97,103.864L104.038,107.045L104.107,106.364L104.175,105.909L104.244,107.5L104.312,107.955L104.381,109.091L104.449,109.773L104.517,110.455L104.586,110.682L104.651,111.364L104.72,112.955L104.788,113.636L104.857,115.455L104.925,115.227L104.994,116.818L105.062,116.818L105.131,116.818L105.199,117.5L105.268,117.955L105.336,119.545L105.404,120.455L105.473,121.818L105.541,121.818L105.61,121.591L105.678,122.727L105.747,123.636L105.815,123.182L105.884,124.091L105.952,123.864L106.02,122.955L106.089,122.5L106.157,123.636L106.226,125L106.294,124.773L106.363,123.864L106.5,123.864L106.636,123.864L106.705,125.227L106.773,125L106.842,124.091L106.91,123.636L106.979,123.636L107.047,122.727L107.116,123.409L107.184,122.727L107.252,123.409L107.321,122.955L107.389,122.273L107.526,122.5L107.595,121.136L107.663,121.364L107.732,121.364L107.8,120.227L107.868,120.909L107.937,120.682L108.005,120L108.074,120.227L108.142,119.091L108.211,119.773L108.279,120.227L108.484,120.227L108.553,119.318L108.621,119.545L108.69,120.682L108.758,120.682L108.827,120.227L108.895,118.864L108.964,118.182L109.032,117.955L109.101,118.636L109.169,119.773L109.237,119.318L109.374,119.545L109.443,118.864L109.511,119.545L109.58,119.545L109.648,120L109.717,120.682L109.785,119.545L109.853,120.455L109.922,118.636L109.99,117.727L110.059,117.045L110.127,116.136L110.196,116.364L110.333,115.455L110.401,115.682L110.469,115.455L110.538,113.864L110.606,113.636L110.675,112.955L110.743,113.636L110.812,112.045L110.88,110.455L110.949,110L111.017,110.227L111.085,109.773L111.154,110L111.222,110L111.291,108.182L111.359,107.045L111.428,107.045L111.496,106.591L111.565,106.364L111.633,106.364L111.701,105.909L111.77,105.682L111.838,104.318L111.907,104.091L111.975,104.545L112.044,104.773L112.112,105.455L112.181,107.273L112.249,107.045L112.317,104.773L112.386,105.909L112.454,104.773L112.523,105L112.591,106.136L112.66,105.455L112.728,105.682L112.797,103.409L112.865,103.182L112.933,102.5L113.002,102.5L113.07,98.182L113.139,97.045L113.207,93.636L113.276,92.955L113.344,92.955L113.413,93.182L113.481,93.864L113.55,94.091L113.618,93.636L113.686,93.409L113.755,92.273L113.823,91.136L113.892,91.136L113.96,92.273L114.029,91.818L114.097,92.5L114.166,92.045L114.234,91.136L114.302,91.364L114.371,92.727L114.439,93.182L114.508,94.091L114.576,92.727L114.645,92.045L114.713,91.364L114.782,89.545L114.85,91.818L114.918,92.5L114.987,94.773L115.055,96.136L115.192,99.318L115.261,100.227L115.329,103.409L115.398,102.727L115.466,103.409L115.534,103.636L115.603,102.5L115.671,101.136L115.74,101.364L115.808,99.773L115.877,100.455L115.945,100.909L116.014,99.545L116.082,98.409L116.15,96.364L116.219,95.455L116.287,94.091L116.356,93.864L116.424,94.773L116.493,95L116.561,94.318L116.63,93.864L116.698,92.5L116.766,91.818L116.835,92.5L116.903,95L116.972,95L117.04,93.409L117.109,90.682L117.177,89.318L117.246,89.091L117.314,89.091L117.383,88.864L117.451,90.455L117.519,91.136L117.588,89.545L117.656,87.955L117.725,89.091L117.793,89.091L117.862,91.364L117.93,92.273L117.999,91.591L118.067,90.909L118.135,90.227L118.204,91.364L118.272,90.909L118.341,92.5L118.409,93.182L118.478,91.591L118.546,91.364L118.615,90.455L118.683,88.864L118.751,92.5L118.82,93.636L118.888,94.091L118.957,92.955L119.025,91.364L119.094,92.727L119.162,94.545L119.231,95.455L119.299,96.591L119.367,98.182L119.436,96.591L119.504,95.455L119.573,94.773L119.641,96.591L119.71,98.864L119.778,100.227L119.847,101.136L119.915,99.318L119.983,97.727L120.052,95.455L120.12,95L120.189,94.773L120.257,94.773L120.326,97.045L120.394,94.318L120.463,92.5L120.531,90.909L120.599,90.909L120.668,91.136L120.736,92.955L120.805,91.364L120.873,89.545L120.945,89.318L121.013,88.409L121.081,89.545L121.15,89.773L121.218,89.318L121.287,87.273L121.355,86.818L121.424,85.227L121.492,86.818L121.561,86.818L121.629,87.955L121.697,88.182L121.766,87.727L121.834,84.773L121.903,84.318L121.971,85.682L122.04,87.5L122.108,91.136L122.177,92.273L122.245,93.636L122.313,94.091L122.382,91.818L122.45,93.409L122.519,94.773L122.587,95.909L122.656,95.455L122.793,95.682L122.861,94.545L122.93,96.136L122.998,98.636L123.066,97.955L123.135,96.818L123.203,96.591L123.34,95L123.409,95.227L123.477,97.955L123.546,98.864L123.614,99.318L123.682,99.545L123.751,98.182L123.819,96.591L123.888,95.682L123.956,96.136L124.025,98.182L124.093,97.955L124.162,97.273L124.23,95L124.298,94.545L124.367,95.682L124.435,95.909L124.504,97.045L124.572,97.045L124.709,97.5L124.778,97.955L124.846,99.545L124.914,100.227L124.983,100.455L125.051,100.682L125.12,98.409L125.257,97.5L125.325,96.818L125.394,98.182L125.462,96.818L125.53,97.273L125.599,97.727L125.667,95L125.736,91.818L125.804,92.727L125.873,91.364L125.941,92.273L126.01,93.636L126.078,93.864L126.146,94.545L126.215,91.136L126.283,89.545L126.352,90L126.42,91.364L126.489,92.273L126.557,93.182L126.626,91.818L126.694,89.773L126.762,89.318L126.831,87.955L126.899,86.818L126.968,87.273L127.036,86.591L127.105,86.364L127.173,85.227L127.242,83.864L127.31,82.727L127.379,82.5L127.447,82.5L127.515,83.409L127.584,83.864L127.652,81.818L127.721,81.818L127.789,83.636L127.858,83.864L127.926,85.682L127.995,87.273L128.063,85.227L128.131,85.227L128.2,83.409L128.268,87.045L128.337,87.273L128.405,87.5L128.474,87.273L128.542,85.682L128.611,85.455L128.679,86.818L128.747,87.5L128.816,86.364L128.884,88.636L128.953,89.773L129.021,86.136L129.09,85.455L129.158,84.091L129.227,85L129.295,87.955L129.363,89.545L129.432,91.364L129.5,91.818L129.569,91.818L129.637,89.773L129.706,88.636L129.774,89.773L129.843,91.364L129.911,88.864L129.979,87.273L130.045,85.682L130.114,85.227L130.182,84.091L130.25,83.182L130.319,82.727L130.387,84.773L130.456,84.091L130.524,83.636L130.593,82.273L130.661,78.409L130.73,78.182L130.798,79.091L130.866,81.364L130.935,78.864L131.003,76.136L131.072,77.045L131.14,76.818L131.209,76.818L131.277,76.591L131.346,76.364L131.414,74.091L131.482,72.955L131.551,71.591L131.619,69.545L131.688,71.818L131.756,75.909L131.825,76.818L131.893,75.909L131.962,77.045L132.03,75.682L132.098,75.682L132.167,76.591L132.235,77.955L132.304,80L132.372,78.409L132.441,76.364L132.509,75.227L132.578,75.227L132.646,77.273L132.714,81.591L132.783,81.136L132.851,77.955L132.92,77.955L132.988,78.636L133.057,77.5L133.125,78.409L133.194,79.773L133.262,82.273L133.33,83.409L133.399,82.5L133.467,82.727L133.536,83.409L133.604,84.545L133.673,87.5L133.741,87.955L133.81,84.773L133.878,83.409L133.946,83.409L134.015,81.818L134.083,79.773L134.152,80.227L134.22,80.682L134.289,79.091L134.357,76.818L134.426,76.364L134.494,76.364L134.563,77.5L134.631,79.091L134.699,79.318L134.768,77.955L134.836,78.409L134.905,79.545L134.973,79.091L135.042,79.091L135.11,81.591L135.179,82.727L135.247,82.273L135.315,79.318L135.384,76.364L135.452,75L135.521,75.455L135.589,76.364L135.658,77.045L135.726,75.682L135.795,74.545L135.863,74.773L135.931,74.318L136,72.273L136.068,75.227L136.137,78.864L136.205,78.182L136.274,78.182L136.342,78.864L136.411,79.773L136.479,80.227L136.547,81.591L136.616,82.045L136.684,78.636L136.753,75.909L136.821,76.136L136.89,74.318L136.958,73.864L137.027,75.682L137.095,76.136L137.163,75.682L137.232,75L137.3,74.773L137.369,74.545L137.437,76.364L137.506,79.091L137.574,81.136L137.643,80.227L137.711,78.864L137.779,79.545L137.848,78.409L137.916,79.318L137.985,81.591L138.053,84.773L138.122,81.591L138.19,82.273L138.259,82.045L138.327,82.045L138.396,82.955L138.464,83.636L138.532,84.545L138.601,83.864L138.669,83.636L138.738,85.682L138.806,86.591L138.875,87.727L138.943,89.318L139.012,91.591L139.08,90.455L139.148,89.091L139.217,89.318L139.285,86.818L139.354,83.864L139.422,87.273L139.491,87.727L139.559,86.591L139.628,85.682L139.696,85L139.764,85.682L139.833,83.636L139.901,85L139.97,86.364L140.038,86.136L140.107,83.864L140.175,85.909L140.244,85.227L140.312,86.136L140.38,86.364L140.449,85.682L140.517,84.773L140.586,83.409L140.654,82.727L140.723,81.364L140.791,77.273L140.86,78.182L140.928,77.5L140.996,75L141.065,72.273L141.133,70.455L141.202,70.909L141.27,69.773L141.339,71.818L141.407,75.909L141.476,72.955L141.544,72.273L141.612,72.5L141.681,71.364L141.749,70.227L141.818,70.455L141.886,72.5L141.955,72.727L142.023,69.318L142.092,67.273L142.16,67.273L142.228,66.364L142.297,66.364L142.365,66.591L142.434,67.5L142.502,66.364L142.571,66.818L142.639,64.318L142.708,64.773L142.776,67.045L142.845,71.818L142.913,70.455L142.981,69.318L143.05,70.227L143.118,70.227L143.187,70.682L143.255,72.5L143.324,75L143.392,75.455L143.461,72.727L143.529,71.136L143.597,71.364L143.666,71.364L143.734,71.591L143.803,73.409L143.871,72.5L143.94,72.045L144.008,71.136L144.077,72.273L144.145,72.955L144.213,74.773L144.282,76.136L144.35,74.318L144.419,72.273L144.487,69.545L144.556,70.682L144.624,70.909L144.693,74.773L144.761,76.364L144.829,75L144.898,72.045L144.966,72.273L145.035,72.955L145.103,74.318L145.172,76.591L145.24,78.182L145.309,77.045L145.377,75.227L145.445,74.545L145.514,77.727L145.582,80.909L145.651,81.591L145.719,82.727L145.788,80.455L145.856,79.545L145.925,80L145.993,80.455L146.061,81.136L146.13,83.182L146.198,84.545L146.267,83.182L146.338,82.5L146.407,83.636L146.475,85.227L146.543,87.045L146.612,87.727L146.68,89.091L146.749,89.773L146.817,87.5L146.886,87.955L146.954,88.864L147.023,88.864L147.091,88.864L147.159,89.773L147.228,87.955L147.296,87.273L147.365,85.682L147.433,86.818L147.502,88.182L147.57,87.727L147.639,88.409L147.707,89.545L147.775,88.409L147.844,90.682L147.912,92.045L147.981,93.409L148.049,93.864L148.118,95.455L148.186,95.227L148.255,93.409L148.323,94.773L148.392,95.909L148.46,96.364L148.528,95.909L148.597,97.045L148.665,95.227L148.734,93.864L148.802,92.955L148.871,93.636L148.939,93.182L149.008,95.909L149.076,98.182L149.144,98.182L149.213,95.227L149.281,96.136L149.35,96.591L149.418,99.545L149.487,98.409L149.555,98.864L149.624,98.182L149.692,97.5L149.76,94.318L149.829,93.636L149.897,94.091L149.966,92.045L150.034,92.273L150.103,91.364L150.171,90.227L150.24,88.409L150.308,88.864L150.376,86.591L150.445,86.136L150.513,87.5L150.582,87.727L150.65,85.682L150.719,87.5L150.787,86.591L150.856,86.136L150.924,87.045L150.992,87.955L151.061,85.909L151.129,85.227L151.198,84.318L151.266,85.455L151.335,83.182L151.403,83.409L151.472,82.5L151.54,83.409L151.608,81.591L151.677,80.682L151.745,78.636L151.814,79.773L151.882,81.591L151.951,82.045L152.019,83.182L152.088,81.818L152.156,81.364L152.225,78.636L152.293,78.409L152.361,78.864L152.43,80.455L152.498,79.091L152.567,76.818L152.635,74.773L152.704,74.091L152.772,71.591L152.841,72.727L152.909,73.864L152.977,71.591L153.046,69.091L153.114,67.955L153.183,67.5L153.251,67.955L153.32,69.091L153.388,72.045L153.457,69.545L153.525,68.182L153.593,68.409L153.662,68.864L153.73,67.727L153.799,69.773L153.867,70.682L153.936,69.318L154.004,68.182L154.073,67.045L154.141,66.818L154.209,65.682L154.278,67.273L154.346,69.773L154.415,69.318L154.483,68.182L154.552,68.636L154.62,69.545L154.689,69.773L154.757,70.909L154.825,72.727L154.894,73.182L154.96,71.818L155.028,72.955L155.096,73.409L155.165,75.682L155.233,76.591L155.302,77.955L155.37,76.591L155.439,75.227L155.507,75L155.576,75.455L155.644,75.227L155.712,74.545L155.781,77.045L155.849,75L155.918,73.409L155.986,71.136L156.055,69.091L156.123,67.727L156.192,68.409L156.26,69.773L156.328,69.318L156.397,66.591L156.465,64.091L156.534,61.818L156.602,62.727L156.671,64.091L156.739,65.909L156.808,64.773L156.876,64.091L156.944,61.364L157.013,60.455L157.081,58.864L157.15,61.591L157.218,61.818L157.287,59.545L157.355,56.591L157.424,55.227L157.492,56.136L157.56,56.136L157.629,57.955L157.697,59.091L157.766,58.864L157.834,55.909L157.903,56.136L157.971,56.136L158.04,57.273L158.108,60.909L158.176,64.318L158.245,65.455L158.313,65.909L158.382,65L158.45,64.545L158.519,66.591L158.587,70L158.656,69.545L158.724,66.591L158.792,66.591L158.861,65.682L158.929,65L158.998,65.909L159.066,68.409L159.135,71.818L159.203,67.045L159.272,63.636L159.34,64.091L159.409,62.955L159.477,65.682L159.545,65.909L159.614,68.864L159.682,67.5L159.751,65.455L159.819,64.318L159.888,65L159.956,64.091L160.025,65.909L160.093,68.636L160.161,65.455L160.23,62.5L160.298,59.091L160.367,57.727L160.435,59.773L160.504,62.727L160.572,64.318L160.641,64.318L160.709,63.636L160.777,64.091L160.846,61.136L160.914,62.727L160.983,64.773L161.051,66.364L161.12,63.864L161.188,61.591L161.257,64.091L161.325,66.364L161.393,67.273L161.462,70.455L161.53,70.909L161.599,68.864L161.667,66.364L161.736,65.227L161.804,64.773L161.873,66.818L161.941,68.864L162.009,71.818L162.078,70.227L162.146,68.636L162.215,66.818L162.283,67.273L162.352,69.318L162.42,70.455L162.489,72.045L162.557,12.727L162.625,12.5L162.694,11.818L162.762,10.455L162.831,11.364L162.899,15.455L162.968,17.5L163.036,14.318L163.105,11.136L163.173,11.364L163.242,12.045L163.31,12.5L163.378,14.318L163.447,15.455L163.515,14.545L163.584,11.818L163.652,13.182L163.721,13.636L163.789,13.636L163.858,15.682L163.926,16.136L163.994,14.545L164.063,13.409L164.131,14.091L164.2,15.227L164.268,18.864L164.337,20.227L164.405,21.136L164.474,20.682L164.542,19.091L164.61,76.136L164.679,75.227L164.747,75L164.816,78.409L164.884,80.455L164.953,81.136L165.021,78.182L165.09,80.227L165.158,81.364L165.226,81.364L165.295,82.045L165.363,82.955L165.432,80.227L165.5,79.318L165.569,77.5L165.637,78.409L165.706,78.409L165.774,79.318L165.842,81.591L165.911,79.545L165.979,78.409L166.048,79.318L166.116,78.182L166.185,77.5L166.253,77.5L166.322,78.636L166.39,77.273L166.458,75.227L166.527,72.955L166.595,71.591L166.664,71.136L166.732,71.818L166.801,73.409L166.869,71.364L166.938,69.545L167.006,67.045L167.074,66.818L167.143,63.864L167.211,66.136L167.28,69.091L167.348,70.455L167.417,69.318L167.485,68.182L167.554,66.818L167.622,68.636L167.691,69.773L167.759,71.818L167.827,72.5L167.896,70.909L167.964,71.136L168.033,70.909L168.101,69.318L168.17,70.909L168.238,71.818L168.307,70L168.375,67.727L168.443,67.273L168.512,64.545L168.58,67.045L168.649,68.864L168.717,72.045L168.786,70.682L168.854,69.545L168.923,68.409L168.991,65.227L169.059,64.773L169.128,67.273L169.196,70.909L169.265,67.727L169.333,66.136L169.402,60.682L169.47,60.227L169.539,63.409L169.607,65L169.675,67.045L169.744,63.636L169.812,60.682L169.881,57.273L169.949,56.818L170.018,55.909L170.086,57.273L170.155,59.545L170.223,58.409L170.291,55.682L170.36,56.136L170.428,58.409L170.497,59.545L170.565,64.318L170.634,66.591L170.702,64.318L170.771,61.591L170.839,61.818L170.907,61.364L170.976,61.136L171.044,64.773L171.113,63.409L171.181,60.455L171.253,59.091L171.321,61.818L171.389,61.136L171.458,65.909L171.526,67.5L171.595,65.682L171.663,65.227L171.732,63.864L171.8,65L171.869,63.636L171.937,66.364L172.005,67.045L172.074,67.955L172.142,66.364L172.211,66.136L172.279,67.955L172.348,69.318L172.416,68.636L172.485,67.5L172.553,66.818L172.621,62.727L172.69,59.773L172.758,58.636L172.827,58.636L172.895,60.682L172.964,62.273L173.101,64.773L173.169,61.364L173.238,62.727L173.306,63.864L173.374,65.909L173.443,66.818L173.511,67.955L173.58,65.909L173.648,64.545L173.717,65.455L173.785,64.545L173.854,64.318L173.922,67.045L173.99,70.909L174.059,70L174.127,69.091L174.196,68.636L174.264,68.636L174.333,67.727L174.401,67.727L174.47,70.227L174.538,70.682L174.606,69.773L174.675,70.227L174.743,71.591L174.812,72.045L174.88,76.591L174.949,78.409L175.017,76.364L175.086,73.864L175.154,71.591L175.222,73.409L175.291,75L175.359,77.045L175.428,77.273L175.496,75.455L175.565,75L175.633,74.091L175.702,73.409L175.77,72.5L175.838,75L175.907,76.818L175.975,73.636L176.044,72.5L176.112,73.864L176.181,75.455L176.249,75.227L176.318,78.409L176.386,79.318L176.454,78.636L176.523,77.727L176.591,75.909L176.66,75.909L176.728,76.818L176.797,79.545L176.865,82.045L176.934,81.136L177.002,81.818L177.07,81.364L177.139,81.136L177.207,81.591L177.276,83.409L177.344,83.182L177.413,82.5L177.481,80L177.55,80L177.618,77.955L177.687,79.318L177.755,82.045L177.823,83.864L177.892,81.591L177.96,78.409L178.029,79.545L178.097,78.409L178.166,77.955L178.234,78.182L178.303,80.909L178.371,77.045L178.439,75.455L178.508,75L178.576,74.318L178.645,75L178.713,77.5L178.782,79.545L178.85,78.864L178.919,74.091L178.987,72.955L179.055,72.5L179.124,73.409L179.192,75.682L179.261,76.591L179.329,75.455L179.398,74.545L179.466,72.5L179.535,73.182L179.603,74.318L179.671,77.273L179.74,79.318L179.808,78.182L179.874,76.818L179.942,77.727L180.011,78.409L180.079,78.636L180.148,78.636L180.216,78.636L180.285,76.591L180.353,75L180.422,75.682L180.49,74.318L180.558,72.5L180.627,74.091L180.695,76.818L180.764,70L180.832,67.727L180.901,67.273L180.969,69.318L181.038,67.955L181.106,68.864L181.174,70L181.243,66.591L181.311,66.136L181.38,65.227L181.448,64.318L181.517,64.091L181.585,66.136L181.654,67.5L181.722,64.773L181.79,62.955L181.859,60.682L181.927,60.227L181.996,59.773L182.064,61.818L182.133,64.318L182.201,64.318L182.27,64.318L182.338,63.864L182.406,60.455L182.475,60.909L182.543,64.091L182.612,68.182L182.68,64.091L182.749,62.5L182.817,67.727L182.886,68.409L182.954,68.409L183.022,69.545L183.091,71.591L183.159,70.909L183.228,69.318L183.296,71.364L183.365,71.136L183.433,72.5L183.502,74.545L183.57,76.591L183.638,75.227L183.707,72.955L183.775,74.318L183.844,74.091L183.912,76.136L183.981,77.727L184.049,78.182L184.118,75.682L184.186,73.409L184.255,72.727L184.323,72.273L184.391,73.636L184.46,78.182L184.528,80.227L184.597,80.227L184.665,78.409L184.734,81.364L184.802,80.455L184.871,80.682L184.939,80.682L185.007,81.818L185.076,81.136L185.144,79.773L185.213,78.409L185.281,79.318L185.35,80.455L185.418,82.045L185.487,83.864L185.555,82.5L185.623,83.409L185.692,80.682L185.76,80.227L185.829,80.682L185.897,82.955L185.966,85L186.034,83.409L186.103,83.409L186.171,82.045L186.239,80.682L186.308,80.682L186.376,81.591L186.445,83.864L186.513,82.5L186.582,80.909L186.65,79.773L186.719,79.091L186.787,80L186.855,82.727L186.924,82.727L186.992,82.5L187.061,80.682L187.129,80.682L187.198,81.591L187.266,82.727L187.335,83.182L187.403,83.864L187.471,81.364L187.54,78.864L187.608,77.273L187.677,75.227L187.745,77.5L187.814,79.545L187.882,80.682L187.951,78.182L188.019,73.182L188.087,75L188.156,73.864L188.224,77.5L188.293,81.136L188.361,84.318L188.43,82.955L188.498,79.091L188.567,78.409L188.635,77.5L188.704,76.591L188.772,78.182L188.84,77.955L188.909,75.909L188.977,75.909L189.046,75.682L189.114,75.909L189.183,75.909L189.251,77.045L189.32,76.818L189.388,73.864L189.456,71.818L189.525,73.864L189.593,73.636L189.662,74.773L189.73,75.909L189.799,77.045L189.867,76.818L189.936,74.318L190.004,73.409L190.072,75.909L190.141,75.909L190.209,78.409L190.278,77.727L190.346,77.5L190.415,73.636L190.483,73.182L190.552,74.545L190.62,76.818L190.688,79.318L190.757,82.273L190.825,82.273L190.894,81.364L190.962,83.182L191.031,83.182L191.099,82.727L191.168,84.318L191.236,84.318L191.304,82.5L191.373,78.864L191.441,79.318L191.51,79.545L191.578,80.455L191.647,82.727L191.715,86.136L191.784,83.864L191.852,78.636L191.92,76.818L191.989,77.955L192.057,79.318L192.126,80.227L192.194,80L192.263,78.409L192.331,75.455L192.4,72.955L192.468,73.636L192.537,74.545L192.605,76.364L192.673,76.364L192.742,74.545L192.81,72.273L192.879,71.364L192.947,68.864L193.016,66.818L193.084,67.727L193.153,68.636L193.221,67.273L193.289,66.364L193.358,66.818L193.426,68.636L193.495,71.591L193.563,73.636L193.632,73.182L193.7,71.591L193.769,70.227L193.837,70.682L193.905,74.545L193.974,74.545L194.042,76.136L194.111,77.727L194.179,77.5L194.248,76.364L194.316,75.227L194.385,77.955L194.453,79.318L194.521,81.591L194.59,83.409L194.658,80.227L194.727,77.5L194.795,77.727L194.864,76.818L194.932,77.273L195.001,81.364L195.069,83.636L195.137,82.727L195.206,82.5L195.274,81.136L195.343,83.864L195.411,85.455L195.48,87.955L195.548,87.955L195.617,85.909L195.685,83.864L195.753,82.273L195.822,81.591L195.89,82.273L195.959,82.727L196.027,84.773L196.096,81.818L196.167,80L196.235,78.409L196.304,76.591L196.372,77.727L196.441,78.636L196.509,79.545L196.578,76.818L196.646,76.364L196.715,76.818L196.783,77.273L196.851,76.818L196.92,79.545L196.988,80L197.057,76.136L197.125,72.955L197.194,70.909L197.262,70L197.331,72.045L197.399,71.136L197.467,70.909L197.536,70.227L197.604,63.409L197.673,62.5L197.741,62.273L197.81,65.455L197.878,66.591L197.947,68.409L198.015,67.727L198.084,67.273L198.152,67.955L198.22,68.409L198.289,70.682L198.357,74.318L198.426,71.818L198.494,69.545L198.563,66.591L198.631,67.045L198.7,65.227L198.768,67.955L198.836,70L198.905,71.818L198.973,70.227L199.042,67.955L199.11,71.364L199.179,72.045L199.247,75.227L199.316,77.273L199.384,76.136L199.521,72.5L199.589,70.682L199.658,70.682L199.726,75.909L199.795,79.318L199.863,82.045L199.932,80.455L200,78.864L200.068,75.227L200.137,73.182L200.205,72.5L200.274,73.636L200.342,75L200.411,73.864L200.479,71.364L200.548,72.5L200.616,73.636L200.684,75.909L200.753,76.364L200.821,77.5L200.89,76.136L200.958,76.591L201.027,74.773L201.095,74.091L201.164,75.227L201.232,75.455L201.3,77.045L201.369,75.909L201.437,73.864L201.506,72.045L201.574,74.773L201.643,75.227L201.711,75.227L201.78,76.591L201.848,74.318L201.916,72.045L201.985,69.545L202.053,67.955L202.122,68.636L202.19,73.182L202.259,74.318" stroke="#4c78a8" stroke-width="2"/></g><g class="mark-group role-title"><g transform="translate(100,-17)"><path class="background" aria-hidden="true" d="M0,0h0v0h0Z" pointer-events="none"/><g><g class="mark-text role-title-text" role="graphics-symbol" aria-roledescription="title" aria-label="Title text 'Traffic Signal Condition: Pedestrian Signal'" pointer-events="none"><text text-anchor="middle" transform="translate(0,10)" font-family="sans-serif" font-size="13px" font-weight="bold" fill="#000" opacity="1">Traffic Signal Condition: Pedestrian Signal</text></g></g><path class="foreground" aria-hidden="true" d="" pointer-events="none" display="none"/></g></g></g><path class="foreground" aria-hidden="true" d="" display="none"/></g></g></g><defs><clipPath id="clip142"><rect x="0" y="0" width="200" height="150"/></clipPath></defs></svg>