<svg xmlns="http://www.w3.org/2000/svg" xmlns:xlink="http://www.w3.org/1999/xlink" version="1.1" class="marks" width="518" height="194" viewBox="0 0 518 194"><rect width="518" height="194" fill="white"/><g fill="none" stroke-miterlimit="10" transform="translate(159,22)"><g class="mark-group role-frame root" role="graphics-object" aria-roledescription="group mark container"><g transform="translate(0,0)"><path class="background" aria-hidden="true" d="M0,0h200v150h-200Z"/><g><g class="mark-group role-axis" aria-hidden="true"><g transform="translate(0.5,0.5)"><path class="background" aria-hidden="true" d="M0,0h0v0h0Z" pointer-events="none"/><g><g class="mark-rule role-axis-grid" pointer-events="none"><line transform="translate(0,150)" x2="200" y2="0" stroke="#ddd" stroke-width="1" opacity="1"/><line transform="translate(0,116)" x2="200" y2="0" stroke="#ddd" stroke-width="1" opacity="1"/><line transform="translate(0,82)" x2="200" y2="0" stroke="#ddd" stroke-width="1" opacity="1"/><line transform="translate(0,48)" x2="200" y2="0" stroke="#ddd" stroke-width="1" opacity="1"/><line transform="translate(0,14)" x2="200" y2="0" stroke="#ddd" stroke-width="1" opacity="1"/></g></g><path class="foreground" aria-hidden="true" d="" pointer-events="none" display="none"/></g></g><g class="mark-group role-axis" role="graphics-symbol" aria-roledescription="axis" aria-label="X-axis for a time scale with values from Friday, 01 January 2016, 12:00:00 AM to Monday, 01 January 2024, 12:00:00 AM"><g transform="translate(0.5,150.5)"><path class="background" aria-hidden="true" d="M0,0h0v0h0Z" pointer-events="none"/><g><g class="mark-rule role-axis-tick" pointer-events="none"><line transform="translate(0,0)" x2="0" y2="5" stroke="#888" stroke-width="1" opacity="1"/><line transform="translate(50,0)" x2="0" y2="5" stroke="#888" stroke-width="1" opacity="1"/><line transform="translate(100,0)" x2="0" y2="5" stroke="#888" stroke-width="1" opacity="1"/><line transform="translate(150,0)" x2="0" y2="5" stroke="#888" stroke-width="1" opacity="1"/><line transform="translate(200,0)" x2="0" y2="5" stroke="#888" stroke-width="1" opacity="1"/></g><g class="mark-text role-axis-label" pointer-events="none"><text text-anchor="start" transform="translate(0,15)" font-family="sans-serif" font-size="10px" fill="#000" opacity="1">2016</text><text text-anchor="middle" transform="translate(50.03422313483915,15)" font-family="sans-serif" font-size="10px" fill="#000" opacity="1">2018</text><text text-anchor="middle" transform="translate(100,15)" font-family="sans-serif" font-size="10px" fill="#000" opacity="1">2020</text><text text-anchor="middle" transform="translate(150.03422313483915,15)" font-family="sans-serif" font-size="10px" fill="#000" opacity="1">2022</text><text text-anchor="end" transform="translate(200,15)" font-family="sans-serif" font-size="10px" fill="#000" opacity="1">2024</text></g><g class="mark-rule role-axis-domain" pointer-events="none"><line transform="translate(0,0)" x2="200" y2="0" stroke="#888" stroke-width="1" opacity="1"/></g></g><path class="foreground" aria-hidden="true" d="" pointer-events="none" display="none"/></g></g><g class="mark-group role-axis" role="graphics-symbol" aria-roledescription="axis" aria-label="Y-axis for a linear scale with values from 0 to 22"><g transform="translate(0.5,0.5)"><path class="background" aria-hidden="true" d="M0,0h0v0h0Z" pointer-events="none"/><g><g class="mark-rule role-axis-tick" pointer-events="none"><line transform="translate(0,150)" x2="-5" y2="0" stroke="#888" stroke-opacity="0" stroke-width="1" opacity="1"/><line transform="translate(0,116)" x2="-5" y2="0" stroke="#888" stroke-opacity="0" stroke-width="1" opacity="1"/><line transform="translate(0,82)" x2="-5" y2="0" stroke="#888" stroke-opacity="0" stroke-width="1" opacity="1"/><line transform="translate(0,48)" x2="-5" y2="0" stroke="#888" stroke-opacity="0" stroke-width="1" opacity="1"/><line transform="translate(0,14)" x2="-5" y2="0" stroke="#888" stroke-opacity="0" stroke-width="1" opacity="1"/></g><g class="mark-text role-axis-label" pointer-events="none"><text text-anchor="end" transform="translate(-7,153)" font-family="sans-serif" font-size="10px" fill="#000" opacity="1">0</text><text text-anchor="end" transform="translate(-7,118.9090909090909)" font-family="sans-serif" font-size="10px" fill="#000" opacity="1">5</text><text text-anchor="end" transform="translate(-7,84.81818181818181)" font-family="sans-serif" font-size="10px" fill="#000" opacity="1">10</text><text text-anchor="end" transform="translate(-7,50.727272727272734)" font-family="sans-serif" font-size="10px" fill="#000" opacity="1">15</text><text text-anchor="end" transform="translate(-7,16.63636363636364)" font-family="sans-serif" font-size="10px" fill="#000" opacity="1">20</text></g></g><path class="foreground" aria-hidden="true" d="" pointer-events="none" display="none"/></g></g><g class="mark-line role-mark marks" clip-path="url(#clip143)" role="graphics-object" aria-roledescription="line mark container"><path aria-label="day: Jan 01, 2010; avg: 5.13333333333" role="graphics-symbol" aria-roledescription="line mark" d="M-149.966,115L-149.897,115L-149.829,115.455L-149.76,114.091L-149.692,114.773L-149.624,114.545L-149.555,115.455L-149.281,115.455L-149.213,115.909L-149.144,115.682L-149.076,116.818L-149.008,117.727L-148.802,117.5L-148.734,116.591L-148.665,116.591L-148.597,115.227L-148.528,113.864L-148.392,115L-148.323,113.864L-148.255,113.864L-148.186,113.864L-148.118,113.864L-148.049,113.864L-147.981,114.545L-147.912,114.773L-147.844,113.182L-147.775,113.182L-147.707,113.182L-147.639,112.727L-147.57,112.955L-147.433,111.818L-147.365,110.682L-147.296,109.545L-147.228,109.545L-147.159,108.636L-147.091,110.227L-146.954,109.545L-146.886,107.955L-146.817,107.045L-146.749,106.591L-146.68,106.136L-146.612,108.182L-146.407,109.318L-146.338,109.773L-146.27,109.091L-146.201,110.909L-146.133,111.136L-145.927,110.455L-145.859,110.227L-145.791,110L-145.722,110.227L-145.654,109.318L-145.585,108.864L-145.517,108.864L-145.448,107.273L-145.38,106.818L-145.311,107.727L-145.243,107.5L-145.175,107.5L-144.972,108.182L-144.904,108.409L-144.835,109.091L-144.767,110.227L-144.698,110.909L-144.63,112.045L-144.493,110.682L-144.424,110.227L-144.356,110.682L-144.288,110.682L-144.219,109.545L-144.151,110.455L-144.082,108.864L-144.014,107.5L-143.945,108.409L-143.877,107.727L-143.808,107.273L-143.74,110.227L-143.535,111.136L-143.466,111.364L-143.398,110.227L-143.329,110.455L-143.261,110.227L-143.124,111.136L-143.056,110.909L-142.987,110.455L-142.919,111.818L-142.85,110.455L-142.782,109.773L-142.576,109.318L-142.508,110.227L-142.44,110.227L-142.371,108.864L-142.303,108.864L-142.234,108.409L-142.097,106.364L-142.029,107.727L-141.96,107.955L-141.892,108.636L-141.824,107.5L-141.755,108.409L-141.618,108.636L-141.55,109.091L-141.481,108.864L-141.413,107.727L-141.344,107.727L-141.276,108.636L-141.208,108.864L-141.139,108.864L-141.071,108.636L-141.002,108.182L-140.934,108.636L-140.865,109.318L-140.797,109.318L-140.66,109.545L-140.591,109.318L-140.523,108.864L-140.455,109.545L-140.386,108.182L-140.249,108.636L-140.181,108.409L-140.112,109.545L-140.044,110.682L-139.975,109.318L-139.907,109.318L-139.702,111.364L-139.633,109.773L-139.565,109.091L-139.496,108.864L-139.428,109.318L-139.359,108.864L-139.223,108.636L-139.154,108.636L-139.086,107.955L-139.017,108.182L-138.949,108.636L-138.88,107.727L-138.812,107.5L-138.743,106.136L-138.675,107.727L-138.607,108.864L-138.538,107.955L-138.47,108.182L-138.333,108.864L-138.264,108.864L-138.196,109.773L-138.127,110.227L-138.059,110.909L-137.991,112.727L-137.922,112.955L-137.854,112.5L-137.785,110L-137.717,108.864L-137.648,109.318L-137.58,108.182L-137.511,108.409L-137.238,108.409L-137.169,109.318L-137.101,107.955L-137.032,108.636L-136.964,109.545L-136.827,108.864L-136.758,109.545L-136.69,110.455L-136.622,109.773L-136.553,110.227L-136.485,110.227L-136.348,108.636L-136.279,109.545L-136.211,108.636L-136.142,110.227L-136.074,111.591L-136.006,111.591L-135.937,110.682L-135.869,108.182L-135.8,108.182L-135.732,108.636L-135.663,109.545L-135.595,110.909L-135.39,110.682L-135.321,109.091L-135.253,110.455L-135.184,110.455L-135.116,111.818L-135.047,114.091L-134.91,112.273L-134.842,112.955L-134.774,111.591L-134.705,112.5L-134.637,112.727L-134.431,112.045L-134.363,112.955L-134.294,111.818L-134.226,112.045L-134.158,112.5L-133.952,113.409L-133.884,113.636L-133.815,115.227L-133.747,115.455L-133.678,115.909L-133.542,113.636L-133.473,112.727L-133.405,112.727L-133.336,113.409L-133.268,112.955L-133.199,112.5L-133.131,112.955L-133.062,111.136L-132.926,110.682L-132.857,111.591L-132.789,112.727L-132.72,112.955L-132.652,113.636L-132.583,112.955L-132.515,112.273L-132.446,112.955L-132.378,112.273L-132.309,112.955L-132.241,113.636L-132.173,114.091L-132.104,115.227L-132.036,113.636L-131.967,114.545L-131.899,114.091L-131.83,114.545L-131.762,114.773L-131.693,115.227L-131.625,115L-131.557,114.773L-131.488,114.318L-131.42,116.364L-131.351,116.591L-131.283,117.273L-131.077,115.909L-131.009,118.182L-130.941,117.955L-130.872,117.5L-130.804,118.409L-130.735,118.636L-130.53,117.045L-130.461,117.727L-130.393,116.364L-130.325,115.909L-130.119,115.227L-130.051,115L-129.982,115.909L-129.914,116.136L-129.845,115.455L-129.709,114.318L-129.64,114.318L-129.572,114.773L-129.503,116.136L-129.435,116.591L-129.366,117.5L-129.298,117.727L-129.229,117.5L-129.161,117.045L-129.093,117.5L-129.024,117.045L-128.956,117.273L-128.887,116.591L-128.819,115.682L-128.679,114.091L-128.611,115.682L-128.542,115.909L-128.474,116.364L-128.405,115.455L-128.337,114.773L-128.2,114.545L-128.131,115.227L-128.063,114.091L-127.995,115.682L-127.926,117.045L-127.858,117.727L-127.789,118.182L-127.721,118.182L-127.652,119.545L-127.584,121.136L-127.447,122.955L-127.379,122.273L-127.31,122.045L-127.242,120L-127.173,119.091L-127.105,118.636L-127.036,117.955L-126.968,115.909L-126.831,115.909L-126.762,114.773L-126.694,114.318L-126.626,114.318L-126.557,114.773L-126.489,115.455L-126.42,115.909L-126.283,114.545L-126.215,115L-126.146,115.455L-126.078,116.364L-126.01,117.955L-125.941,117.727L-125.804,118.409L-125.736,118.636L-125.667,118.409L-125.599,117.727L-125.53,116.364L-125.325,115.227L-125.257,115L-125.188,113.409L-125.051,112.955L-124.846,112.273L-124.778,111.364L-124.709,110.455L-124.641,112.5L-124.572,113.636L-124.504,113.636L-124.367,113.182L-124.298,114.091L-124.23,114.318L-124.162,115.227L-124.093,116.364L-123.888,117.273L-123.819,115.455L-123.751,114.773L-123.682,115.455L-123.614,115.455L-123.409,115.455L-123.34,116.591L-123.272,116.364L-123.135,115L-123.066,114.318L-122.93,113.636L-122.861,114.318L-122.793,114.318L-122.724,115L-122.656,116.136L-122.587,114.545L-122.45,112.5L-122.382,112.955L-122.313,111.591L-122.245,112.045L-122.177,112.045L-122.108,111.591L-122.04,111.364L-121.971,109.091L-121.903,108.636L-121.834,110.227L-121.766,110.909L-121.697,110.455L-121.629,110.227L-121.492,108.409L-121.424,107.5L-121.355,105.455L-121.287,106.591L-121.218,106.136L-121.15,106.364L-121.081,104.091L-121.013,102.955L-120.945,102.273L-120.876,102.727L-120.808,103.636L-120.739,102.955L-120.671,102.273L-120.602,101.364L-120.534,100.909L-120.465,100.909L-120.397,103.182L-120.329,105L-120.26,104.318L-120.192,105.909L-120.058,105.455L-119.989,105.682L-119.921,106.364L-119.852,105.682L-119.784,106.818L-119.715,107.045L-119.647,106.591L-119.578,106.818L-119.51,107.273L-119.442,105.909L-119.373,106.591L-119.305,106.591L-119.236,110.227L-119.099,109.773L-119.031,110.682L-118.962,110.682L-118.894,110.682L-118.826,110.455L-118.757,111.136L-118.62,111.136L-118.552,110.227L-118.483,111.818L-118.415,111.591L-118.346,111.818L-118.141,110.682L-118.073,111.364L-118.004,111.364L-117.936,111.818L-117.867,113.636L-117.799,114.318L-117.662,114.545L-117.594,115.682L-117.525,114.091L-117.457,112.955L-117.388,114.091L-117.32,115.455L-117.251,115.682L-117.183,113.864L-117.114,112.955L-117.046,113.636L-116.978,114.773L-116.909,115.682L-116.841,116.136L-116.772,116.136L-116.704,114.091L-116.635,113.636L-116.567,115.682L-116.498,115.455L-116.43,114.318L-116.362,114.318L-116.293,114.318L-116.225,113.182L-116.156,114.318L-116.088,115.909L-116.019,117.045L-115.951,115.227L-115.882,114.773L-115.814,113.182L-115.745,110.682L-115.677,110.909L-115.609,111.364L-115.54,111.591L-115.472,111.818L-115.403,111.591L-115.335,109.773L-115.266,109.091L-115.198,109.545L-115.129,110.909L-115.061,110.909L-114.993,110.909L-114.924,110.227L-114.719,109.091L-114.65,108.864L-114.582,109.773L-114.513,110.227L-114.445,109.091L-114.308,107.727L-114.24,107.045L-114.171,108.864L-114.103,109.091L-114.034,108.182L-113.966,106.591L-113.897,105.682L-113.829,104.318L-113.761,105L-113.692,104.773L-113.624,105.455L-113.555,105.227L-113.487,105.682L-113.418,103.409L-113.35,103.409L-113.281,103.409L-113.213,104.318L-113.145,105.909L-113.076,105.909L-113.008,103.409L-112.871,102.045L-112.802,102.955L-112.734,104.318L-112.665,105L-112.597,103.636L-112.529,102.727L-112.46,100.455L-112.323,99.318L-112.255,101.136L-112.186,101.818L-112.118,100.909L-112.049,101.591L-111.913,101.136L-111.844,98.182L-111.776,100.455L-111.707,102.5L-111.639,102.045L-111.502,101.364L-111.433,101.136L-111.365,102.5L-111.296,101.818L-111.228,102.5L-111.16,102.045L-111.091,101.818L-111.023,100.909L-110.954,100.682L-110.886,101.364L-110.817,100.682L-110.749,101.818L-110.68,104.318L-110.612,105.682L-110.544,105L-110.475,104.091L-110.407,104.318L-110.338,106.591L-110.27,107.727L-110.201,110.227L-110.064,109.773L-109.996,108.636L-109.928,109.545L-109.859,111.136L-109.791,111.591L-109.722,112.045L-109.654,115.455L-109.517,114.773L-109.448,113.864L-109.38,114.545L-109.312,114.318L-109.243,113.182L-109.038,114.318L-108.969,115L-108.901,115.909L-108.832,116.591L-108.764,118.409L-108.559,117.727L-108.49,117.955L-108.422,118.182L-108.353,119.091L-108.285,119.318L-108.216,118.864L-108.08,116.364L-108.011,116.136L-107.943,117.045L-107.874,117.273L-107.806,116.591L-107.737,114.545L-107.6,111.818L-107.532,110.455L-107.463,110.227L-107.395,111.136L-107.327,110L-107.258,109.773L-107.19,108.409L-107.121,107.727L-107.053,107.273L-106.984,108.409L-106.916,109.318L-106.847,109.773L-106.779,109.545L-106.642,107.273L-106.574,107.273L-106.505,106.818L-106.437,108.409L-106.368,108.409L-106.3,107.955L-106.231,107.5L-106.163,107.5L-106.095,105.909L-106.026,106.364L-105.958,104.545L-105.889,106.364L-105.821,105.227L-105.752,103.864L-105.684,103.182L-105.615,103.182L-105.547,106.136L-105.479,108.182L-105.41,110L-105.342,109.545L-105.205,108.636L-105.136,108.864L-105.068,110L-104.999,109.091L-104.931,108.182L-104.863,107.727L-104.794,107.273L-104.726,107.045L-104.657,108.409L-104.589,107.045L-104.52,108.636L-104.452,106.818L-104.383,106.818L-104.247,105.455L-104.178,105L-104.11,106.591L-104.041,106.364L-103.973,106.364L-103.836,108.182L-103.765,106.591L-103.696,108.182L-103.628,108.409L-103.559,110.455L-103.491,111.136L-103.422,111.136L-103.354,110.227L-103.285,108.636L-103.217,107.727L-103.149,108.636L-103.08,108.636L-103.012,108.636L-102.943,109.318L-102.806,107.955L-102.738,110.227L-102.669,112.045L-102.601,113.182L-102.533,111.818L-102.464,111.136L-102.327,111.136L-102.259,113.636L-102.19,114.318L-102.122,116.818L-102.053,117.5L-101.985,117.727L-101.916,117.955L-101.848,117.273L-101.78,116.136L-101.711,116.364L-101.643,115.455L-101.574,116.136L-101.506,117.045L-101.437,115.682L-101.369,114.318L-101.3,114.091L-101.232,114.545L-101.164,113.409L-101.095,114.091L-101.027,115.227L-100.89,114.545L-100.821,116.364L-100.753,117.5L-100.684,118.409L-100.616,118.182L-100.479,117.273L-100.411,115.227L-100.342,114.318L-100.274,116.364L-100.205,116.591L-100.137,115.455L-100.068,114.318L-100,112.955L-99.932,111.591L-99.863,111.136L-99.795,109.091L-99.726,109.091L-99.658,109.318L-99.589,110.909L-99.452,109.545L-99.384,110.909L-99.316,110.455L-99.247,109.545L-99.179,110L-99.11,109.773L-98.973,109.545L-98.905,109.773L-98.836,112.5L-98.768,113.182L-98.7,112.5L-98.631,111.591L-98.563,110.682L-98.494,109.091L-98.426,109.318L-98.357,111.136L-98.289,110.682L-98.22,112.045L-98.084,113.182L-98.015,112.5L-97.947,111.818L-97.878,112.955L-97.81,112.955L-97.741,111.591L-97.673,112.045L-97.536,111.364L-97.467,112.955L-97.399,113.864L-97.331,113.636L-97.262,111.818L-97.194,108.409L-97.057,106.364L-96.988,104.545L-96.92,105.682L-96.851,105.909L-96.783,105L-96.715,105L-96.646,102.5L-96.578,102.273L-96.509,100.227L-96.441,99.545L-96.372,100.227L-96.304,98.409L-96.235,97.727L-96.167,96.591L-96.099,96.591L-96.03,97.955L-95.962,97.045L-95.893,95L-95.825,94.545L-95.688,95.682L-95.619,95L-95.551,96.364L-95.483,99.091L-95.414,98.409L-95.346,98.182L-95.277,98.182L-95.143,97.045L-95.075,97.045L-95.006,98.864L-94.938,103.864L-94.869,104.773L-94.664,106.591L-94.596,106.136L-94.527,106.136L-94.459,107.045L-94.39,107.727L-94.322,109.091L-94.253,108.864L-94.185,110.909L-94.116,110.227L-94.048,110.455L-93.98,113.182L-93.911,114.091L-93.843,112.273L-93.774,110.682L-93.706,108.409L-93.637,108.864L-93.569,110.909L-93.5,111.364L-93.432,110.909L-93.364,110.682L-93.295,109.318L-93.227,107.5L-93.158,109.091L-93.09,110.227L-93.021,109.773L-92.953,109.545L-92.884,109.091L-92.816,108.636L-92.748,107.727L-92.679,108.636L-92.611,109.091L-92.542,109.091L-92.474,109.091L-92.405,109.773L-92.268,110.227L-92.2,111.364L-92.132,111.591L-92.063,111.364L-91.995,113.636L-91.926,113.409L-91.789,112.727L-91.721,114.091L-91.652,115.909L-91.584,116.818L-91.516,118.636L-91.447,118.409L-91.31,116.591L-91.242,117.273L-91.173,118.182L-91.105,118.864L-91.036,118.864L-90.968,119.545L-90.831,118.864L-90.763,116.364L-90.694,118.182L-90.626,117.5L-90.557,116.364L-90.489,115.909L-90.352,113.409L-90.283,112.5L-90.215,113.409L-90.147,114.091L-90.078,114.091L-90.01,114.545L-89.873,112.955L-89.804,112.273L-89.736,110.455L-89.667,110.682L-89.599,110.909L-89.531,111.136L-89.462,109.318L-89.394,108.636L-89.325,107.955L-89.257,108.636L-89.188,108.636L-89.12,108.864L-89.051,108.409L-88.983,106.818L-88.915,106.136L-88.846,105.455L-88.778,107.045L-88.709,107.045L-88.641,106.818L-88.504,108.409L-88.435,106.591L-88.367,107.955L-88.299,110.455L-88.23,110.455L-88.162,112.5L-88.093,112.727L-88.025,111.591L-87.956,109.773L-87.888,110L-87.819,109.545L-87.751,109.318L-87.683,108.409L-87.614,108.409L-87.546,107.5L-87.477,107.5L-87.409,108.409L-87.272,109.091L-87.203,108.864L-87.135,107.955L-87.067,105.909L-86.998,105L-86.93,105.909L-86.861,108.409L-86.793,107.5L-86.724,107.045L-86.587,106.818L-86.519,105L-86.45,105.909L-86.382,105.682L-86.314,107.045L-86.245,108.182L-86.177,107.955L-86.04,106.818L-85.971,105.909L-85.903,106.591L-85.834,106.818L-85.766,107.045L-85.629,106.818L-85.561,105L-85.492,103.864L-85.424,103.636L-85.355,104.773L-85.287,106.591L-85.218,107.045L-85.15,105.455L-85.082,104.773L-85.013,105.227L-84.945,105.455L-84.876,107.955L-84.808,108.864L-84.739,109.091L-84.671,107.955L-84.602,105.455L-84.534,107.727L-84.466,108.182L-84.397,109.091L-84.329,110.227L-84.26,108.636L-84.192,108.409L-84.123,106.364L-84.055,106.364L-83.986,107.273L-83.918,108.636L-83.85,109.091L-83.781,108.636L-83.713,107.5L-83.644,106.136L-83.576,107.727L-83.507,108.409L-83.439,110.227L-83.37,110.682L-83.165,109.773L-83.097,107.955L-83.028,106.136L-82.96,107.955L-82.891,108.409L-82.823,109.318L-82.754,109.318L-82.686,108.636L-82.617,108.409L-82.549,107.5L-82.481,108.182L-82.412,110.455L-82.344,110.227L-82.275,109.545L-82.207,107.5L-82.138,106.818L-82.07,107.727L-82.001,108.636L-81.933,110.682L-81.865,111.364L-81.796,110.227L-81.728,107.045L-81.659,106.591L-81.591,106.364L-81.522,107.5L-81.454,109.773L-81.385,109.545L-81.317,111.364L-81.249,111.591L-81.18,113.182L-81.112,114.545L-81.043,115L-80.975,117.5L-80.906,115.455L-80.838,115.682L-80.769,115.682L-80.701,115.455L-80.633,114.773L-80.564,114.318L-80.496,114.545L-80.427,113.182L-80.359,112.955L-80.29,112.727L-80.222,113.409L-80.153,114.318L-80.085,114.773L-80.017,114.773L-79.948,114.545L-79.88,113.636L-79.811,113.864L-79.743,113.409L-79.674,115.909L-79.606,117.727L-79.537,119.091L-79.332,119.773L-79.127,119.091L-79.058,115.909L-78.99,115.682L-78.921,114.545L-78.85,114.091L-78.782,112.045L-78.713,110.682L-78.576,109.318L-78.508,110.455L-78.439,107.955L-78.371,107.727L-78.303,108.636L-78.234,109.773L-78.166,108.864L-78.097,109.318L-78.029,109.773L-77.96,109.091L-77.892,108.864L-77.823,109.091L-77.755,110.682L-77.618,109.091L-77.55,109.545L-77.413,110.227L-77.344,110L-77.276,110L-77.207,110.909L-77.139,111.136L-77.07,111.591L-77.002,111.136L-76.934,110.227L-76.865,108.636L-76.797,112.5L-76.728,111.818L-76.591,112.5L-76.523,111.364L-76.454,112.273L-76.386,114.091L-76.318,113.864L-76.249,114.091L-76.181,116.136L-76.112,116.591L-76.044,115.455L-75.975,114.773L-75.907,117.045L-75.838,117.045L-75.77,118.182L-75.702,118.636L-75.633,118.409L-75.359,117.273L-75.291,115.909L-75.222,117.273L-75.154,115.682L-75.017,115.682L-74.88,116.136L-74.812,114.773L-74.743,114.773L-74.675,114.091L-74.606,114.091L-74.47,113.636L-74.401,113.636L-74.333,115L-74.264,113.636L-74.196,113.409L-74.059,113.182L-73.99,114.773L-73.922,114.773L-73.854,114.545L-73.785,114.318L-73.717,113.864L-73.648,112.5L-73.58,112.727L-73.511,112.727L-73.443,111.364L-73.374,110.909L-73.238,111.591L-73.169,111.136L-73.101,111.136L-73.032,112.045L-72.964,112.273L-72.895,113.182L-72.827,112.5L-72.69,113.636L-72.621,113.636L-72.553,114.091L-72.485,115.682L-72.416,115L-72.348,115.227L-72.142,114.091L-72.074,114.545L-72.005,114.091L-71.937,114.773L-71.869,114.318L-71.8,113.864L-71.732,113.409L-71.663,111.591L-71.595,111.591L-71.526,112.955L-71.458,113.864L-71.389,113.636L-71.321,113.864L-71.184,112.273L-71.116,111.136L-71.047,113.409L-70.979,114.091L-70.91,114.545L-70.842,114.545L-70.773,114.091L-70.705,111.818L-70.637,111.818L-70.568,112.5L-70.5,114.318L-70.431,111.591L-70.363,110.909L-70.294,110L-70.229,107.273L-70.16,107.045L-70.092,107.5L-70.023,107.045L-69.955,105.682L-69.886,104.773L-69.75,102.5L-69.681,101.136L-69.613,102.727L-69.544,103.409L-69.476,103.182L-69.407,102.045L-69.27,100.455L-69.202,100.227L-69.134,99.545L-69.065,100.909L-68.997,101.818L-68.928,102.045L-68.86,94.091L-68.791,92.273L-68.723,90.682L-68.654,89.318L-68.586,88.182L-68.518,90.682L-68.449,90.909L-68.381,90.455L-68.312,87.727L-68.244,90.682L-68.175,89.091L-68.107,90L-68.038,92.727L-67.902,93.409L-67.833,92.273L-67.765,91.591L-67.696,92.273L-67.628,92.273L-67.559,94.091L-67.491,95.909L-67.422,92.955L-67.354,91.364L-67.286,92.273L-67.217,94.091L-67.149,95.682L-67.08,96.818L-67.012,96.591L-66.943,95L-66.875,92.955L-66.806,93.182L-66.738,100.909L-66.67,102.955L-66.601,103.182L-66.533,103.409L-66.464,103.182L-66.396,102.273L-66.327,101.818L-66.259,102.273L-66.19,105L-66.122,103.182L-66.054,102.273L-65.985,101.591L-65.917,97.727L-65.848,98.636L-65.78,100.227L-65.711,101.136L-65.643,98.864L-65.574,97.955L-65.437,95.909L-65.369,94.318L-65.301,97.273L-65.232,99.091L-65.164,98.864L-65.095,97.045L-65.027,95.455L-64.89,92.955L-64.821,93.864L-64.753,95.227L-64.685,97.273L-64.616,97.045L-64.548,96.136L-64.479,95.909L-64.411,97.5L-64.342,98.409L-64.274,100.227L-64.205,100.682L-64.137,98.864L-64.069,97.045L-63.932,95.455L-63.863,97.5L-63.795,100.455L-63.726,100.455L-63.658,103.409L-63.589,100.909L-63.521,99.773L-63.453,98.864L-63.384,101.591L-63.316,104.545L-63.247,107.045L-63.179,106.136L-63.11,104.773L-63.042,104.318L-62.973,103.182L-62.905,104.545L-62.837,105.455L-62.768,105.909L-62.7,105.909L-62.631,103.636L-62.563,101.818L-62.494,101.818L-62.426,102.273L-62.357,102.273L-62.289,100.227L-62.084,98.636L-62.015,99.091L-61.947,97.955L-61.878,100.682L-61.81,102.273L-61.741,102.5L-61.673,102.045L-61.604,100.227L-61.536,99.545L-61.468,97.955L-61.399,99.091L-61.331,99.091L-61.262,100.682L-61.194,100.682L-61.125,100.227L-61.057,98.636L-60.988,100.455L-60.92,101.591L-60.852,101.136L-60.783,101.364L-60.715,99.545L-60.646,98.636L-60.578,98.636L-60.509,97.955L-60.441,100.682L-60.372,102.955L-60.304,104.773L-60.236,103.864L-60.167,101.818L-60.099,101.136L-60.03,101.818L-59.962,101.136L-59.893,102.727L-59.825,100.682L-59.756,99.091L-59.688,99.091L-59.62,97.727L-59.551,97.045L-59.483,98.636L-59.414,100.227L-59.346,97.727L-59.277,97.727L-59.209,95.909L-59.14,93.636L-59.072,92.727L-59.004,92.955L-58.935,94.318L-58.867,93.182L-58.73,92.273L-58.661,91.364L-58.593,92.955L-58.524,91.591L-58.456,92.727L-58.388,93.409L-58.319,90.682L-58.251,89.545L-58.182,86.364L-58.114,86.818L-58.045,88.409L-57.977,90.682L-57.908,90.909L-57.84,86.591L-57.772,84.545L-57.703,85.682L-57.635,86.591L-57.566,87.273L-57.498,88.864L-57.429,89.773L-57.361,87.955L-57.292,87.273L-57.224,89.545L-57.155,90.455L-57.087,92.955L-57.019,92.5L-56.95,91.591L-56.882,91.136L-56.813,90.909L-56.745,88.864L-56.676,90.682L-56.608,93.409L-56.539,91.364L-56.471,90L-56.334,87.5L-56.266,88.182L-56.197,87.5L-56.129,88.636L-56.06,91.818L-55.992,90.682L-55.923,89.545L-55.855,87.5L-55.787,86.591L-55.718,90.682L-55.65,92.955L-55.581,94.091L-55.513,94.091L-55.376,93.636L-55.307,92.5L-55.239,91.364L-55.171,92.727L-55.102,93.409L-55.034,94.545L-54.965,92.727L-54.897,90.455L-54.828,92.045L-54.76,92.727L-54.691,93.409L-54.623,93.864L-54.555,95.909L-54.486,94.318L-54.418,93.636L-54.349,96.364L-54.281,99.773L-54.212,102.273L-54.144,102.5L-54.075,103.864L-54.007,103.182L-53.936,102.5L-53.867,101.818L-53.799,100.909L-53.73,102.955L-53.662,104.773L-53.593,103.409L-53.525,101.364L-53.457,100L-53.388,99.773L-53.32,99.545L-53.251,101.364L-53.183,103.409L-53.114,100L-53.046,99.091L-52.977,97.273L-52.909,96.364L-52.841,95.682L-52.772,95.682L-52.704,95.227L-52.635,95.455L-52.498,93.182L-52.43,93.409L-52.361,94.545L-52.293,95.227L-52.225,93.864L-52.156,93.182L-52.088,93.864L-52.019,93.182L-51.951,93.636L-51.882,93.409L-51.814,92.273L-51.745,92.727L-51.677,93.182L-51.608,92.5L-51.54,91.818L-51.472,94.091L-51.403,96.136L-51.335,96.591L-51.266,96.136L-51.198,95.909L-51.129,92.727L-51.061,91.591L-50.992,95.227L-50.924,97.045L-50.856,97.727L-50.787,96.818L-50.719,98.636L-50.582,97.5L-50.513,97.955L-50.376,97.955L-50.308,98.636L-50.24,98.182L-50.171,97.273L-50.103,95.455L-50.034,95.909L-49.966,96.591L-49.897,96.818L-49.829,97.5L-49.76,97.045L-49.624,97.727L-49.555,97.727L-49.487,99.091L-49.418,100.455L-49.35,99.091L-49.281,99.318L-49.213,97.5L-49.144,96.591L-49.076,96.364L-49.008,97.727L-48.939,99.091L-48.871,101.364L-48.802,101.591L-48.734,100.682L-48.665,98.864L-48.597,97.727L-48.528,100.909L-48.46,101.136L-48.392,102.5L-48.323,101.591L-48.186,100.909L-48.118,101.136L-48.049,101.818L-47.981,102.727L-47.912,103.864L-47.844,103.864L-47.775,103.864L-47.707,101.364L-47.639,97.955L-47.57,98.864L-47.502,98.409L-47.433,100L-47.365,98.864L-47.228,98.182L-47.159,98.182L-47.091,95.455L-47.023,95.455L-46.954,95.909L-46.886,97.273L-46.817,95.682L-46.749,93.182L-46.68,91.591L-46.612,90.682L-46.543,90L-46.475,90.682L-46.407,93.182L-46.338,92.5L-46.27,91.364L-46.201,91.136L-46.133,91.818L-46.064,91.818L-45.996,92.955L-45.927,94.091L-45.859,92.955L-45.791,92.5L-45.722,92.045L-45.654,89.773L-45.585,90.909L-45.517,93.864L-45.448,94.545L-45.38,92.955L-45.314,90.455L-45.246,90.682L-45.177,90.455L-45.109,90.455L-45.04,93.409L-44.972,95.227L-44.904,94.318L-44.835,92.955L-44.767,91.818L-44.698,92.727L-44.63,94.091L-44.561,96.364L-44.493,97.727L-44.424,97.045L-44.356,95.455L-44.288,94.773L-44.219,93.636L-44.151,93.182L-44.082,94.773L-44.014,95.455L-43.945,95.455L-43.877,93.864L-43.808,93.864L-43.74,93.864L-43.672,95.227L-43.603,94.545L-43.535,94.318L-43.466,92.955L-43.398,92.045L-43.329,93.636L-43.261,96.364L-43.192,98.182L-43.124,94.545L-43.056,93.636L-42.987,91.591L-42.919,89.318L-42.85,88.409L-42.782,89.318L-42.713,92.045L-42.645,91.591L-42.576,90.682L-42.508,88.409L-42.44,84.318L-42.371,82.955L-42.303,84.545L-42.234,85.909L-42.166,88.636L-42.029,89.318L-41.96,88.636L-41.892,87.727L-41.824,85.682L-41.755,86.591L-41.687,88.409L-41.618,85.909L-41.481,83.182L-41.413,83.864L-41.344,83.409L-41.276,84.091L-41.208,84.545L-41.139,84.773L-41.071,82.727L-41.002,81.136L-40.934,83.864L-40.865,84.545L-40.797,84.773L-40.728,86.591L-40.66,88.864L-40.591,87.273L-40.523,86.136L-40.455,86.818L-40.386,88.182L-40.318,88.409L-40.249,92.273L-40.181,95.227L-40.112,93.409L-40.044,92.045L-39.975,88.864L-39.907,87.045L-39.839,86.818L-39.77,88.636L-39.702,91.136L-39.633,89.773L-39.565,86.818L-39.496,86.591L-39.428,87.045L-39.359,89.091L-39.291,90.909L-39.223,92.045L-39.154,90.227L-39.086,89.091L-39.017,88.636L-38.949,86.591L-38.88,87.045L-38.812,89.091L-38.743,91.818L-38.675,90.909L-38.607,89.318L-38.538,88.636L-38.47,87.727L-38.401,86.364L-38.333,85.909L-38.264,88.409L-38.196,85.682L-38.127,83.864L-38.059,84.091L-37.991,83.864L-37.922,85.227L-37.854,87.955L-37.785,85.455L-37.717,83.636L-37.648,83.182L-37.58,83.182L-37.511,83.409L-37.443,85.909L-37.375,88.636L-37.306,87.955L-37.238,86.364L-37.169,85.455L-37.101,85.909L-37.032,84.773L-36.964,86.818L-36.895,90.227L-36.827,90L-36.758,88.864L-36.69,88.409L-36.622,86.591L-36.553,85.455L-36.485,87.045L-36.416,89.091L-36.348,89.091L-36.279,87.955L-36.211,86.136L-36.142,87.5L-36.074,87.5L-36.006,88.864L-35.937,90.909L-35.869,91.591L-35.732,90.682L-35.663,92.727L-35.595,92.273L-35.526,91.818L-35.458,93.636L-35.39,95.909L-35.321,95.682L-35.253,93.864L-35.184,94.318L-35.116,92.5L-35.047,93.636L-34.979,95.909L-34.91,96.818L-34.842,95.682L-34.774,93.864L-34.705,95.227L-34.637,96.364L-34.568,94.773L-34.5,98.182L-34.431,98.636L-34.363,97.727L-34.294,94.545L-34.226,95L-34.158,95.909L-34.089,95.909L-34.021,97.273L-33.952,96.591L-33.884,93.864L-33.815,91.818L-33.747,91.591L-33.678,92.045L-33.61,93.409L-33.542,95.682L-33.473,93.864L-33.336,92.045L-33.268,90L-33.199,89.773L-33.131,90L-33.062,91.364L-32.994,94.545L-32.926,93.636L-32.857,91.364L-32.789,91.364L-32.72,91.591L-32.652,92.955L-32.583,93.409L-32.515,94.091L-32.446,95.227L-32.378,92.727L-32.309,92.955L-32.241,94.318L-32.173,95.682L-32.104,97.045L-32.036,98.409L-31.967,98.409L-31.899,95.909L-31.83,97.727L-31.762,97.955L-31.693,98.182L-31.625,99.773L-31.557,100.455L-31.488,98.182L-31.42,96.136L-31.351,96.591L-31.283,93.182L-31.214,93.864L-31.146,96.136L-31.077,96.591L-31.009,94.091L-30.941,92.5L-30.872,90L-30.804,90L-30.735,90.682L-30.667,91.591L-30.598,92.727L-30.53,91.591L-30.461,90.455L-30.393,86.364L-30.325,87.273L-30.256,87.727L-30.188,88.409L-30.119,88.182L-30.051,87.727L-29.982,82.955L-29.914,82.273L-29.845,82.5L-29.777,83.409L-29.709,86.364L-29.64,86.818L-29.572,85.227L-29.503,84.318L-29.435,86.591L-29.366,87.727L-29.298,89.545L-29.229,94.091L-29.161,93.409L-29.093,90.682L-29.021,90L-28.953,91.136L-28.884,91.364L-28.816,94.773L-28.747,96.591L-28.679,95.909L-28.611,94.773L-28.542,94.091L-28.474,92.955L-28.405,92.727L-28.337,97.5L-28.268,98.864L-28.131,98.636L-28.063,96.136L-27.995,96.364L-27.926,96.136L-27.858,99.091L-27.789,101.364L-27.721,103.409L-27.652,101.591L-27.584,101.364L-27.515,102.955L-27.447,102.955L-27.379,103.636L-27.31,101.818L-27.242,101.364L-27.173,100.455L-27.105,101.364L-27.036,102.045L-26.968,103.864L-26.899,105L-26.831,104.773L-26.762,105.682L-26.694,105.682L-26.626,105.682L-26.557,106.364L-26.489,107.955L-26.42,107.955L-26.352,109.545L-26.283,108.409L-26.215,106.136L-26.146,104.318L-26.078,106.136L-26.01,107.727L-25.941,108.636L-25.873,108.636L-25.804,108.409L-25.667,105.682L-25.599,104.091L-25.53,105.227L-25.462,104.773L-25.394,104.773L-25.325,106.136L-25.188,105.682L-25.12,107.045L-25.051,107.955L-24.983,109.318L-24.914,108.409L-24.846,108.182L-24.778,107.955L-24.709,107.955L-24.641,108.182L-24.572,107.955L-24.504,107.045L-24.435,105.909L-24.367,105.455L-24.23,104.318L-24.162,102.727L-24.093,102.5L-24.025,104.773L-23.956,107.273L-23.888,108.864L-23.819,106.818L-23.751,107.045L-23.682,106.136L-23.614,107.5L-23.546,108.864L-23.477,111.591L-23.409,113.182L-23.272,112.727L-23.203,112.273L-23.135,110.227L-23.066,108.182L-22.998,107.955L-22.93,106.818L-22.861,105.227L-22.793,102.955L-22.724,102.727L-22.656,103.182L-22.587,104.318L-22.519,103.409L-22.45,101.591L-22.382,99.773L-22.313,98.864L-22.245,97.955L-22.177,99.773L-22.108,100.682L-22.04,101.364L-21.971,101.364L-21.903,99.773L-21.834,97.955L-21.766,96.591L-21.697,98.409L-21.629,99.318L-21.561,99.545L-21.492,99.091L-21.424,96.818L-21.355,96.136L-21.287,95L-21.218,95.682L-21.15,96.364L-21.081,96.818L-21.013,96.364L-20.876,94.545L-20.808,94.318L-20.739,94.318L-20.671,95L-20.602,92.727L-20.465,92.273L-20.4,90L-20.331,88.636L-20.263,89.773L-20.195,92.5L-20.126,93.864L-20.058,95L-19.989,92.5L-19.921,90.682L-19.852,90.682L-19.784,88.409L-19.715,89.545L-19.647,91.136L-19.578,90.227L-19.51,87.955L-19.442,84.545L-19.373,83.864L-19.305,81.364L-19.236,83.409L-19.168,84.091L-19.099,83.182L-19.031,82.5L-18.962,80.909L-18.894,80.227L-18.826,80.682L-18.757,83.409L-18.689,85L-18.62,82.5L-18.483,81.818L-18.415,82.955L-18.346,83.182L-18.278,83.636L-18.21,86.136L-18.141,87.955L-18.073,85.455L-18.004,81.818L-17.936,77.273L-17.867,77.273L-17.799,77.955L-17.73,78.864L-17.662,78.864L-17.594,76.136L-17.525,73.409L-17.457,74.773L-17.388,73.409L-17.32,75.682L-17.251,77.727L-17.183,80.682L-17.114,79.091L-17.046,74.545L-16.978,74.545L-16.909,71.136L-16.841,72.5L-16.772,74.545L-16.704,74.773L-16.635,72.955L-16.567,70.455L-16.498,73.182L-16.43,74.318L-16.362,75.909L-16.293,77.5L-16.225,76.591L-16.156,72.273L-16.088,69.318L-16.019,69.545L-15.951,71.364L-15.882,76.364L-15.814,77.045L-15.745,74.318L-15.609,70.227L-15.54,71.591L-15.472,71.136L-15.403,70.909L-15.335,71.818L-15.266,75.682L-15.198,74.545L-15.129,71.136L-15.061,65.455L-14.993,65.227L-14.924,63.182L-14.856,63.409L-14.787,58.636L-14.719,55.682L-14.65,54.091L-14.582,50.455L-14.513,48.636L-14.445,49.091L-14.377,50.227L-14.308,50L-14.24,46.364L-14.171,44.545L-14.103,45.227L-14.034,47.045L-13.966,47.727L-13.897,50L-13.829,52.045L-13.761,50.682L-13.692,49.773L-13.624,50.909L-13.555,51.818L-13.487,51.136L-13.418,53.864L-13.35,56.818L-13.281,54.545L-13.213,51.136L-13.145,52.045L-13.076,54.545L-13.008,56.818L-12.939,58.636L-12.871,65.227L-12.802,62.5L-12.734,67.955L-12.665,67.5L-12.597,65.909L-12.529,69.091L-12.46,72.045L-12.392,74.318L-12.323,71.818L-12.255,70L-12.186,70.227L-12.118,68.636L-12.049,66.818L-11.981,68.182L-11.913,70.227L-11.844,66.818L-11.776,64.318L-11.707,63.864L-11.639,64.318L-11.57,65.227L-11.502,67.727L-11.433,70.682L-11.365,68.182L-11.296,66.364L-11.228,67.273L-11.16,66.591L-11.091,65.682L-11.023,66.591L-10.954,70L-10.886,67.727L-10.817,65.227L-10.749,66.364L-10.68,67.045L-10.612,67.955L-10.544,70.909L-10.475,73.182L-10.407,71.136L-10.338,67.955L-10.27,68.409L-10.201,69.545L-10.133,69.318L-10.064,72.5L-9.996,75.909L-9.928,76.364L-9.859,72.727L-9.791,73.409L-9.722,67.955L-9.654,55.682L-9.585,56.136L-9.517,56.364L-9.448,50.909L-9.38,48.182L-9.312,50.682L-9.243,49.545L-9.175,50.227L-9.106,53.409L-9.038,55L-8.969,51.591L-8.901,47.955L-8.832,46.364L-8.764,47.727L-8.696,49.545L-8.627,51.818L-8.559,54.091L-8.49,50.227L-8.422,47.5L-8.353,49.091L-8.285,47.955L-8.216,50L-8.148,51.591L-8.08,55.227L-8.011,51.136L-7.943,49.318L-7.874,44.773L-7.806,46.136L-7.737,44.773L-7.669,52.727L-7.6,67.5L-7.532,68.182L-7.463,67.955L-7.395,70.682L-7.327,71.136L-7.258,70.909L-7.19,73.636L-7.121,74.318L-7.053,72.273L-6.984,69.091L-6.916,70.682L-6.847,72.5L-6.779,73.409L-6.711,74.318L-6.642,76.818L-6.574,75.227L-6.505,73.636L-6.437,75L-6.368,73.864L-6.3,71.818L-6.231,75.682L-6.163,76.136L-6.095,74.318L-6.026,72.727L-5.958,75.227L-5.889,73.182L-5.821,75.909L-5.752,78.182L-5.684,79.545L-5.615,72.273L-5.547,65.909L-5.479,65L-5.41,65L-5.342,63.864L-5.273,65.682L-5.205,67.045L-5.136,65L-5.068,62.273L-4.999,62.273L-4.931,64.091L-4.863,57.273L-4.794,58.409L-4.726,61.818L-4.657,59.318L-4.589,57.273L-4.52,55.682L-4.452,57.045L-4.383,58.182L-4.315,61.364L-4.247,65L-4.178,63.636L-4.107,60.455L-4.038,59.773L-3.97,58.409L-3.901,57.5L-3.833,61.591L-3.765,63.864L-3.696,61.818L-3.628,62.273L-3.559,66.364L-3.491,67.045L-3.422,66.136L-3.354,67.727L-3.285,72.273L-3.217,69.545L-3.149,67.273L-3.08,66.364L-3.012,67.045L-2.943,67.955L-2.875,68.864L-2.806,76.818L-2.738,70.455L-2.669,61.136L-2.601,61.818L-2.533,61.136L-2.464,65L-2.396,66.136L-2.327,67.5L-2.259,65L-2.19,62.955L-2.122,62.727L-2.053,64.545L-1.985,66.591L-1.916,69.545L-1.848,72.5L-1.78,69.773L-1.711,68.864L-1.643,67.5L-1.574,67.5L-1.506,69.318L-1.437,74.318L-1.369,76.364L-1.3,67.273L-1.232,65L-1.164,65.682L-1.095,64.773L-1.027,65.682L-0.958,67.273L-0.89,69.091L-0.821,68.864L-0.753,66.818L-0.684,72.273L-0.616,80.227L-0.548,80.455L-0.479,83.182L-0.411,82.045L-0.342,78.182L-0.274,77.727L-0.205,78.636L-0.137,78.636L-0.068,78.636L0,79.545L0.068,80L0.137,76.818L0.205,75.682L0.274,76.364L0.342,76.136L0.411,77.045L0.479,78.864L0.548,80.455L0.616,79.773L0.684,78.864L0.753,85.682L0.821,86.136L0.89,85.682L0.958,88.409L1.027,90.909L1.095,91.591L1.164,90.227L1.232,89.091L1.3,89.773L1.369,88.864L1.437,90.682L1.506,92.045L1.574,87.955L1.643,85.455L1.711,86.136L1.78,82.5L1.848,83.409L1.916,83.636L1.985,85L2.053,82.045L2.122,80.227L2.19,82.045L2.259,80L2.327,80.909L2.396,81.364L2.464,83.864L2.533,79.773L2.601,76.136L2.669,70.909L2.738,70.682L2.806,67.5L2.875,69.091L2.943,71.818L3.012,69.091L3.08,67.5L3.149,65L3.217,63.864L3.285,62.727L3.354,64.545L3.422,67.273L3.491,64.545L3.559,62.273L3.628,63.864L3.696,65L3.765,64.545L3.833,68.409L3.901,69.318L3.97,68.182L4.038,65.227L4.107,65.227L4.175,61.136L4.244,60.227L4.312,62.5L4.381,62.955L4.449,61.591L4.517,60.909L4.586,62.955L4.654,62.727L4.723,66.591L4.791,67.045L4.86,73.182L4.928,70.682L4.994,69.091L5.062,70.682L5.131,67.273L5.199,67.273L5.268,67.727L5.336,70.682L5.404,67.727L5.473,61.136L5.541,60.909L5.61,61.136L5.678,60.682L5.747,63.182L5.815,65.909L5.884,63.864L5.952,61.136L6.02,60.682L6.089,59.318L6.157,42.273L6.226,48.636L6.294,50.682L6.363,46.136L6.431,43.864L6.5,41.818L6.568,40.455L6.636,40L6.705,42.273L6.773,45L6.842,43.409L6.91,38.182L6.979,38.409L7.047,36.364L7.116,35.227L7.184,39.545L7.252,41.818L7.321,20.909L7.389,17.955L7.458,17.273L7.526,20.455L7.595,20L7.663,20L7.732,22.5L7.8,18.864L7.868,15.682L7.937,14.773L8.005,13.864L8.074,14.773L8.142,20L8.211,40.909L8.279,39.545L8.348,36.364L8.416,37.5L8.484,36.818L8.553,37.955L8.621,40.227L8.69,42.273L8.758,41.364L8.827,36.591L8.895,35.682L8.964,38.409L9.032,38.182L9.101,40.909L9.169,43.636L9.237,40.227L9.306,37.273L9.374,57.727L9.443,56.136L9.511,55L9.58,57.5L9.648,60.227L9.717,59.318L9.785,55.455L9.853,55.909L9.922,54.773L9.99,53.409L10.059,57.045L10.127,58.864L10.196,54.773L10.264,49.773L10.333,47.273L10.401,48.636L10.469,51.136L10.538,54.545L10.606,57.727L10.675,57.955L10.743,54.545L10.812,54.773L10.88,55.227L10.949,53.182L11.017,54.318L11.085,57.045L11.154,55.682L11.222,50.909L11.291,52.045L11.359,52.273L11.428,38.864L11.496,43.182L11.565,47.727L11.633,43.864L11.701,40.455L11.77,40L11.838,40.682L11.907,42.5L11.975,46.591L12.044,50.227L12.112,48.409L12.181,44.773L12.249,45.909L12.317,45.682L12.386,47.273L12.454,49.091L12.523,50.227L12.591,47.045L12.66,44.318L12.728,39.773L12.797,40.682L12.865,38.864L12.933,42.727L13.002,47.955L13.07,44.318L13.139,41.591L13.207,40L13.276,42.045L13.344,40.682L13.413,43.864L13.481,57.5L13.55,54.318L13.618,50.455L13.686,46.591L13.755,16.591L13.823,19.773L13.892,22.5L13.96,21.364L14.029,19.318L14.097,15.682L14.166,13.182L14.234,14.545L14.302,16.364L14.371,21.364L14.439,21.136L14.508,17.727L14.576,15.455L14.645,14.545L14.713,15.682L14.782,19.318L14.85,22.5L14.918,26.364L14.987,24.318L15.055,22.045L15.124,22.955L15.192,20.909L15.261,23.182L15.329,25.227L15.466,25L15.534,21.364L15.603,19.318L15.671,20L15.74,21.818L15.808,28.864L15.877,62.273L15.945,59.773L16.014,55.455L16.082,54.773L16.15,55.227L16.219,58.636L16.287,61.818L16.356,63.409L16.424,61.591L16.493,55.227L16.561,53.864L16.63,55.455L16.698,53.636L16.766,56.364L16.835,57.727L16.903,54.545L16.972,52.955L17.04,50L17.109,48.864L17.177,50.455L17.246,53.409L17.314,58.636L17.383,58.182L17.451,55.455L17.519,58.409L17.588,57.955L17.656,57.955L17.725,60.227L17.793,62.5L17.862,56.136L17.93,52.727L17.999,54.318L18.067,58.182L18.135,60.909L18.204,63.409L18.272,61.136L18.341,59.773L18.409,58.864L18.478,57.045L18.546,59.318L18.615,62.273L18.683,61.136L18.751,64.091L18.82,61.136L18.888,59.091L18.957,61.364L19.025,62.955L19.094,66.364L19.162,67.955L19.231,67.727L19.299,66.818L19.367,64.318L19.436,66.364L19.504,68.409L19.573,70.227L19.641,70.455L19.71,73.182L19.847,71.591L19.915,67.727L19.983,73.182L20.052,76.364L20.12,77.5L20.189,75.455L20.257,73.864L20.326,70.455L20.394,73.409L20.463,75L20.531,77.273L20.599,81.818L20.668,84.091L20.805,82.5L20.873,84.545L20.942,83.636L21.01,85.455L21.079,86.364L21.147,88.182L21.215,85L21.287,78.636L21.355,77.5L21.424,76.364L21.492,76.364L21.561,78.409L21.629,78.409L21.697,77.955L21.766,75.682L21.834,75.682L21.903,75L21.971,75L22.04,79.318L22.108,82.045L22.177,80.227L22.245,76.136L22.313,75.909L22.382,76.364L22.45,78.636L22.519,79.545L22.587,81.136L22.656,80.227L22.724,78.636L22.793,77.045L22.861,77.273L22.93,75.909L22.998,77.273L23.066,80L23.135,81.364L23.203,78.409L23.272,77.273L23.34,82.273L23.409,83.864L23.477,86.364L23.546,87.955L23.614,85.682L23.682,83.182L23.751,83.409L23.819,81.818L23.888,83.636L23.956,85.227L24.025,87.727L24.093,86.136L24.162,81.136L24.23,81.818L24.298,84.773L24.367,85.455L24.435,85.455L24.504,85.682L24.572,82.955L24.641,79.773L24.709,76.818L24.778,74.545L24.846,75.227L24.914,77.273L24.983,75.909L25.051,73.864L25.12,70.909L25.188,66.136L25.257,65.455L25.325,70.227L25.394,71.364L25.462,66.818L25.53,64.545L25.599,60.455L25.667,61.591L25.736,62.273L25.804,63.182L25.873,66.591L25.941,67.273L26.01,64.545L26.078,60L26.146,57.727L26.215,57.5L26.283,58.409L26.352,59.773L26.42,62.273L26.489,59.091L26.557,54.545L26.626,52.273L26.694,50.682L26.762,53.636L26.831,57.045L26.899,58.409L27.036,54.091L27.105,55.909L27.173,55.455L27.242,56.818L27.31,61.364L27.379,64.773L27.447,60.227L27.515,56.591L27.584,60.455L27.652,59.091L27.721,60.227L27.789,61.136L27.858,62.5L27.926,60.227L27.995,59.545L28.063,56.364L28.131,57.5L28.2,59.773L28.268,63.636L28.337,68.409L28.405,67.727L28.474,64.773L28.542,60.909L28.611,63.864L28.679,65.455L28.747,68.182L28.816,72.727L28.884,71.818L28.953,69.318L29.021,68.182L29.09,68.864L29.158,69.091L29.227,72.273L29.295,73.636L29.363,70.682L29.432,66.136L29.5,68.864L29.569,70L29.637,70.455L29.706,73.864L29.774,77.045L29.843,75.227L29.908,73.182L29.977,73.182L30.045,71.818L30.114,72.955L30.182,75.455L30.25,77.5L30.319,73.864L30.387,70L30.456,67.727L30.524,67.955L30.593,69.545L30.661,70.909L30.73,74.318L30.798,71.818L30.866,68.409L30.935,68.182L31.003,68.182L31.072,69.545L31.14,72.045L31.209,74.318L31.277,70.682L31.346,68.636L31.414,68.182L31.482,68.409L31.551,66.818L31.619,68.636L31.688,69.773L31.756,67.045L31.825,64.545L31.893,64.318L31.962,63.409L32.03,63.864L32.098,65L32.167,68.409L32.235,66.136L32.304,62.273L32.372,63.864L32.441,65.227L32.509,66.136L32.578,67.955L32.646,70.455L32.714,68.864L32.783,67.5L32.851,68.409L32.92,70L32.988,71.818L33.057,75L33.125,75.909L33.194,76.591L33.262,72.955L33.33,75L33.399,74.545L33.467,76.136L33.536,79.773L33.604,81.591L33.673,78.409L33.741,77.045L33.81,78.182L33.878,78.409L33.946,77.955L34.015,78.864L34.083,80.682L34.152,80.909L34.22,77.727L34.289,78.182L34.357,78.864L34.426,78.182L34.494,79.545L34.563,82.273L34.631,80.227L34.699,76.818L34.768,76.364L34.836,72.955L34.905,72.955L34.973,74.318L35.042,73.636L35.11,70.909L35.179,63.409L35.247,61.136L35.315,60L35.384,59.773L35.452,61.591L35.521,62.955L35.589,61.591L35.658,62.955L35.726,63.182L35.795,60L35.863,59.091L35.931,61.136L36,63.636L36.068,61.364L36.137,58.409L36.205,57.5L36.274,56.364L36.342,55L36.411,57.5L36.479,59.545L36.547,57.5L36.616,55.909L36.684,55.227L36.753,55.909L36.821,54.773L36.89,58.409L36.958,61.591L37.027,57.727L37.095,53.864L37.163,52.727L37.232,54.318L37.3,54.318L37.369,58.864L37.437,60.227L37.506,56.364L37.574,54.545L37.643,54.091L37.711,47.955L37.779,47.727L37.848,52.5L37.916,55.682L37.985,54.545L38.053,51.591L38.122,52.045L38.19,51.591L38.259,51.818L38.327,55.682L38.396,58.409L38.464,55.909L38.532,53.409L38.601,51.818L38.669,51.591L38.738,50L38.806,52.045L38.875,55.227L38.943,53.409L39.012,51.364L39.08,53.864L39.148,56.364L39.217,57.955L39.285,64.091L39.354,66.591L39.422,63.636L39.491,61.591L39.559,62.955L39.628,61.364L39.696,62.5L39.764,67.955L39.833,72.045L39.901,71.818L39.97,69.545L40.038,68.182L40.107,68.409L40.175,70.909L40.244,74.545L40.312,75.909L40.38,73.409L40.449,65.455L40.517,64.773L40.586,65.455L40.654,65.227L40.723,66.136L40.791,71.364L40.86,69.545L40.928,68.409L40.996,67.273L41.065,67.273L41.133,67.045L41.202,67.273L41.27,69.545L41.339,64.545L41.407,60.455L41.476,60L41.544,60.682L41.612,61.364L41.681,65.682L41.749,66.364L41.818,62.727L41.886,56.818L41.955,54.318L42.023,53.409L42.092,53.409L42.16,56.818L42.228,58.864L42.297,57.5L42.365,53.636L42.434,53.864L42.502,58.409L42.571,59.091L42.639,61.364L42.708,66.136L42.776,63.636L42.845,60.909L42.913,58.636L42.981,53.636L43.05,53.182L43.118,54.773L43.187,56.818L43.255,55.682L43.324,51.364L43.392,52.727L43.461,53.636L43.529,54.545L43.597,56.818L43.666,57.955L43.734,54.545L43.803,51.136L43.871,51.591L43.94,54.318L44.008,54.091L44.077,56.591L44.145,59.091L44.213,56.364L44.282,55L44.35,52.273L44.419,54.773L44.487,54.091L44.556,56.136L44.624,59.545L44.693,56.364L44.761,54.091L44.829,54.545L44.898,52.727L44.966,53.864L45.035,59.318L45.103,63.864L45.172,60.682L45.24,58.864L45.309,59.773L45.377,63.864L45.445,67.5L45.514,71.136L45.582,73.409L45.651,71.591L45.719,70.455L45.788,70.455L45.856,68.864L45.925,69.318L45.993,70.455L46.061,73.182L46.13,69.545L46.201,65L46.27,65.455L46.338,64.773L46.407,66.136L46.475,65L46.543,67.955L46.612,67.5L46.68,64.318L46.749,65.682L46.817,66.364L46.886,67.045L46.954,72.045L47.023,75.227L47.091,74.545L47.159,71.818L47.228,73.182L47.296,70.909L47.365,71.818L47.433,71.364L47.502,71.591L47.57,71.818L47.639,70.227L47.707,69.545L47.775,68.409L47.844,70.455L47.912,75.682L47.981,77.955L48.049,77.5L48.118,77.727L48.186,81.364L48.255,85.682L48.323,87.727L48.392,88.864L48.46,89.545L48.528,89.773L48.597,87.955L48.665,87.045L48.734,89.318L48.802,90.909L48.871,92.273L48.939,91.364L49.008,86.364L49.076,83.409L49.144,78.636L49.213,80.909L49.281,83.182L49.35,78.182L49.418,74.545L49.487,71.364L49.555,68.182L49.624,64.545L49.692,65.455L49.76,66.136L49.829,67.273L49.897,64.773L50.103,63.636L50.171,59.773L50.24,61.364L50.308,60.909L50.376,60.909L50.445,57.5L50.513,55L50.582,52.5L50.65,49.545L50.719,49.091L50.787,50L50.856,51.818L50.924,49.773L50.992,45.455L51.061,43.182L51.129,43.409L51.198,45.227L51.266,47.955L51.335,54.545L51.403,52.727L51.472,48.864L51.54,54.091L51.608,56.136L51.677,56.364L51.745,59.091L51.814,61.591L51.882,60L51.951,59.091L52.019,59.773L52.088,61.591L52.156,60.909L52.225,65.227L52.293,65.682L52.361,63.409L52.43,59.091L52.498,61.818L52.567,63.182L52.635,64.773L52.704,69.545L52.772,72.5L52.841,71.364L52.909,70L52.977,70.682L53.046,71.364L53.114,71.364L53.183,72.727L53.251,75.455L53.32,74.091L53.388,72.5L53.457,74.091L53.525,77.727L53.593,79.545L53.662,82.5L53.73,86.364L53.799,84.318L53.867,79.773L53.936,73.864L54.004,72.5L54.073,72.727L54.141,74.545L54.209,74.545L54.278,72.045L54.346,70L54.415,70L54.483,72.273L54.552,73.636L54.62,74.773L54.689,73.182L54.757,70L54.823,66.136L54.891,65.455L54.96,65.682L55.028,67.955L55.096,72.273L55.165,73.409L55.233,70.227L55.302,67.5L55.37,66.364L55.439,66.818L55.507,67.273L55.576,67.727L55.644,65.227L55.712,57.5L55.781,54.773L55.849,51.591L55.918,54.773L55.986,63.182L56.055,63.636L56.192,61.818L56.26,57.273L56.328,55.909L56.397,57.5L56.465,58.182L56.534,60.909L56.602,60.455L56.671,57.045L56.739,53.636L56.808,54.091L56.876,54.545L56.944,58.182L57.013,61.136L57.081,59.318L57.15,57.273L57.218,54.091L57.287,53.636L57.355,55.227L57.424,57.273L57.492,59.773L57.56,58.182L57.629,57.955L57.697,54.091L57.766,55.227L57.834,59.773L57.903,62.045L57.971,67.273L58.04,69.318L58.176,65.455L58.245,65.227L58.313,64.091L58.382,65.909L58.45,68.182L58.519,68.864L58.587,66.818L58.656,63.409L58.724,62.5L58.792,62.5L58.861,64.318L58.929,66.364L58.998,68.636L59.066,63.182L59.135,58.864L59.203,60.227L59.272,59.773L59.34,61.364L59.409,62.5L59.477,65.682L59.545,65L59.614,61.364L59.682,61.818L59.751,59.773L59.819,61.818L59.888,64.773L59.956,67.045L60.025,62.955L60.093,59.318L60.161,57.045L60.23,57.5L60.298,57.955L60.367,61.364L60.435,63.864L60.504,62.727L60.572,60.227L60.641,63.636L60.709,65L60.777,65.909L60.846,68.182L60.914,70L60.983,67.273L61.051,63.409L61.12,65.909L61.188,68.409L61.257,68.864L61.325,70.455L61.393,71.591L61.462,67.955L61.53,64.545L61.599,62.727L61.667,62.727L61.736,62.045L61.804,64.091L61.873,62.955L61.941,60.682L62.009,59.545L62.078,60.227L62.146,61.364L62.215,62.5L62.283,65.682L62.352,66.591L62.42,65.227L62.489,62.5L62.557,61.818L62.625,61.364L62.694,60.227L62.762,62.5L62.831,62.273L62.899,60.909L62.968,56.136L63.036,56.364L63.105,55.909L63.173,58.182L63.242,57.273L63.31,56.364L63.378,54.773L63.447,50.227L63.515,52.045L63.584,55L63.652,57.955L63.721,58.182L63.789,57.273L63.926,56.364L63.994,55.909L64.063,56.818L64.131,57.955L64.2,60.909L64.268,59.773L64.337,58.409L64.405,53.864L64.474,54.091L64.542,52.727L64.61,55.227L64.679,58.182L64.747,61.136L64.816,60.455L64.884,57.5L64.953,56.364L65.021,57.045L65.09,60.909L65.158,63.864L65.226,67.273L65.363,65.682L65.432,64.318L65.5,65L65.569,61.818L65.637,66.364L65.706,69.545L65.774,67.955L65.842,65.455L65.911,67.273L65.979,67.955L66.048,68.182L66.116,69.545L66.185,71.136L66.253,67.727L66.322,64.773L66.39,66.364L66.458,67.273L66.527,70L66.595,71.136L66.664,75.227L66.732,73.182L66.801,70.455L66.869,70.227L66.938,69.318L67.006,68.182L67.074,72.045L67.143,73.182L67.211,73.182L67.28,70.227L67.348,66.364L67.417,66.818L67.485,68.409L67.554,70.227L67.622,75.455L67.691,71.818L67.759,69.545L67.827,66.818L67.896,66.136L67.964,66.591L68.033,69.091L68.101,69.773L68.17,69.318L68.238,67.273L68.307,68.182L68.375,69.318L68.443,70.455L68.512,71.818L68.58,74.318L68.649,72.955L68.717,70.682L68.786,71.364L68.854,73.409L68.923,70.227L68.991,71.818L69.059,75.682L69.128,73.182L69.196,71.364L69.265,69.545L69.333,67.955L69.402,70.909L69.47,71.364L69.539,73.864L69.607,72.727L69.675,70.909L69.744,72.045L69.812,71.591L69.881,75L69.949,77.045L70.018,79.091L70.086,76.364L70.155,74.545L70.223,74.545L70.291,77.045L70.36,79.545L70.428,81.136L70.497,82.273L70.565,79.318L70.634,76.364L70.702,75L70.771,72.273L70.839,72.5L70.907,73.409L70.976,76.364L71.044,75.227L71.116,72.045L71.184,72.955L71.253,73.864L71.321,73.864L71.389,78.864L71.458,80.682L71.526,81.136L71.595,78.636L71.663,78.409L71.732,78.636L71.8,79.091L71.869,81.364L71.937,82.273L72.005,81.591L72.074,78.409L72.142,80.455L72.211,79.091L72.279,79.773L72.348,78.864L72.416,78.636L72.485,77.955L72.553,75.455L72.621,77.045L72.69,79.545L72.758,83.182L72.827,85.909L72.895,87.955L72.964,85.909L73.032,84.091L73.101,85L73.169,87.727L73.238,87.273L73.306,85.909L73.374,85.227L73.443,82.045L73.511,80.455L73.58,81.364L73.648,83.864L73.717,85L73.785,85.227L73.854,84.091L73.922,81.818L73.99,79.318L74.059,80.909L74.127,82.955L74.196,84.545L74.264,87.045L74.401,86.136L74.47,86.591L74.606,83.636L74.675,84.545L74.743,86.364L74.812,85.909L74.88,81.136L74.949,78.636L75.017,78.864L75.086,77.955L75.154,79.545L75.222,81.818L75.291,81.136L75.428,78.864L75.496,77.955L75.565,77.955L75.633,80L75.702,82.273L75.77,85L75.838,83.182L75.907,82.5L75.975,80.455L76.044,80.227L76.112,82.5L76.181,84.545L76.249,87.727L76.318,87.045L76.386,86.364L76.454,83.409L76.523,82.273L76.591,82.727L76.66,82.5L76.728,85.455L76.797,82.727L76.865,81.818L76.934,82.5L77.002,85L77.07,87.5L77.139,89.091L77.207,87.955L77.276,86.591L77.344,85L77.413,86.591L77.481,87.045L77.55,89.318L77.618,91.818L77.687,90.682L77.755,89.318L77.823,85.682L77.892,85.455L77.96,82.5L78.029,84.773L78.097,86.364L78.166,84.545L78.234,80L78.303,76.591L78.371,76.136L78.439,76.364L78.508,78.636L78.576,80.909L78.645,80.909L78.782,80.682L78.85,78.636L78.919,80.455L78.987,79.091L79.055,80.455L79.124,82.727L79.192,80.455L79.261,78.636L79.329,78.636L79.398,78.182L79.466,78.864L79.535,72.955L79.603,71.818L79.671,71.136L79.737,66.818L79.805,66.591L79.874,68.182L79.942,71.364L80.011,70L80.079,70.455L80.148,66.818L80.216,65.227L80.285,65.455L80.353,68.636L80.422,72.045L80.49,69.545L80.558,65.909L80.627,61.136L80.695,57.5L80.764,57.955L80.832,57.727L80.901,60.682L80.969,59.091L81.038,57.5L81.106,54.545L81.174,50.909L81.243,49.091L81.311,50.227L81.38,51.818L81.448,50.455L81.654,48.636L81.722,51.364L81.79,51.136L81.859,50.455L81.927,54.091L81.996,56.364L82.064,55.227L82.133,52.727L82.201,52.955L82.27,52.727L82.338,55.227L82.406,56.136L82.475,58.636L82.543,57.273L82.612,55L82.68,55.909L82.749,57.273L82.817,59.318L82.886,62.273L82.954,64.318L83.022,65.227L83.091,61.591L83.159,62.955L83.228,63.409L83.296,63.409L83.365,66.818L83.433,71.364L83.502,67.045L83.57,63.409L83.638,65L83.707,66.136L83.775,65.455L83.844,69.318L83.912,72.045L83.981,71.364L84.049,68.409L84.118,66.591L84.186,66.591L84.255,66.364L84.323,69.091L84.391,70.682L84.46,70.455L84.528,67.727L84.597,67.955L84.665,66.591L84.734,66.136L84.802,69.091L84.871,71.818L84.939,70.682L85.007,66.818L85.076,64.091L85.144,65.909L85.213,66.818L85.281,70.909L85.35,73.636L85.418,70.682L85.487,69.318L85.555,73.182L85.623,77.273L85.692,77.045L85.76,78.864L85.829,83.409L85.897,80.227L85.966,77.955L86.034,78.182L86.103,80L86.171,82.045L86.239,85L86.308,87.955L86.376,85.455L86.445,81.818L86.513,81.364L86.582,82.5L86.65,83.636L86.719,87.273L86.787,90.455L86.855,88.864L86.924,87.045L86.992,87.5L87.061,89.773L87.129,90.227L87.198,91.136L87.266,92.273L87.335,88.864L87.403,86.136L87.471,88.182L87.54,87.045L87.608,87.045L87.677,86.136L87.745,88.182L87.814,86.136L87.882,84.545L87.951,85.909L88.019,84.318L88.087,83.182L88.156,84.545L88.224,85.227L88.293,83.409L88.361,81.818L88.43,82.955L88.498,85L88.567,85.455L88.635,86.136L88.704,87.727L88.772,86.136L88.84,85.682L88.909,84.091L88.977,85.682L89.046,86.364L89.114,87.727L89.183,90.227L89.251,89.091L89.32,87.5L89.388,88.864L89.456,90L89.525,89.545L89.593,92.045L89.662,92.955L89.73,93.409L89.799,91.136L89.867,92.5L89.936,92.5L90.004,92.727L90.072,95.682L90.141,98.182L90.209,97.273L90.278,96.364L90.346,97.273L90.415,97.045L90.483,97.045L90.552,98.864L90.62,99.545L90.688,97.273L90.757,95L90.825,94.318L90.894,92.727L90.962,95.455L91.031,94.091L91.099,91.591L91.168,89.773L91.236,87.273L91.304,85.455L91.373,85.909L91.441,87.727L91.51,89.545L91.578,89.318L91.647,88.409L91.715,87.955L91.784,87.5L91.852,88.409L91.92,89.773L91.989,90.909L92.057,90.455L92.126,89.318L92.194,88.182L92.263,87.5L92.331,88.182L92.4,88.864L92.468,91.591L92.537,93.864L92.605,91.136L92.673,90.682L92.742,91.818L92.81,93.182L92.879,94.545L92.947,96.818L93.016,96.364L93.153,97.5L93.221,99.545L93.289,98.409L93.358,98.636L93.426,100.682L93.495,100.909L93.563,97.955L93.632,98.409L93.7,99.091L93.769,96.818L93.837,97.045L93.905,97.273L93.974,98.409L94.042,97.5L94.111,97.045L94.179,96.591L94.248,96.136L94.316,95.455L94.385,97.5L94.453,98.864L94.521,98.864L94.59,96.364L94.658,94.773L94.727,97.045L94.795,96.591L94.864,99.091L94.932,99.545L95.001,99.318L95.069,98.636L95.137,98.864L95.206,98.636L95.274,99.318L95.343,102.727L95.411,104.545L95.48,104.545L95.548,102.045L95.617,103.636L95.685,102.5L95.753,103.864L95.822,106.591L95.89,105.227L95.959,104.318L96.03,101.818L96.099,101.136L96.167,100.227L96.235,102.5L96.304,104.318L96.372,104.545L96.441,102.955L96.509,101.591L96.578,100L96.646,100.682L96.715,101.818L96.783,102.5L96.851,102.955L96.92,100.909L96.988,100.455L97.057,101.364L97.125,102.045L97.194,103.182L97.262,103.864L97.331,101.136L97.399,100.227L97.467,99.318L97.536,100.909L97.604,103.636L97.673,105L97.741,105L97.81,104.318L97.947,104.773L98.015,104.545L98.084,104.773L98.152,107.5L98.22,108.864L98.289,108.636L98.357,107.273L98.426,106.136L98.494,105.682L98.563,105.682L98.631,105.909L98.7,107.727L98.768,107.5L98.836,106.818L98.905,105.227L98.973,106.136L99.042,107.045L99.11,108.182L99.179,108.636L99.247,108.864L99.316,106.818L99.384,105.455L99.452,106.364L99.589,105.455L99.658,106.591L99.726,106.591L99.795,104.545L99.863,103.864L99.932,104.091L100,103.409L100.068,101.591L100.137,103.864L100.205,105.227L100.274,105.227L100.342,104.545L100.411,103.864L100.479,104.545L100.548,105L100.616,106.818L100.684,108.409L100.753,108.864L100.821,106.364L100.89,106.591L100.958,105.455L101.027,105.455L101.095,105.682L101.164,106.591L101.232,105.227L101.3,102.955L101.369,100L101.437,100.909L101.506,100.682L101.574,103.409L101.643,104.318L101.711,104.091L101.78,103.182L101.848,105L101.916,104.545L101.985,104.545L102.053,105.682L102.122,106.591L102.19,106.136L102.259,102.955L102.327,102.045L102.396,99.773L102.464,100.455L102.533,101.818L102.601,102.5L102.669,101.136L102.738,99.318L102.806,99.318L102.875,99.773L102.943,100.682L103.012,102.5L103.08,103.864L103.149,102.5L103.217,101.591L103.285,101.364L103.354,101.818L103.422,104.773L103.491,105.909L103.559,107.955L103.628,106.364L103.696,105.682L103.765,105.909L103.833,105.455L103.901,104.318L103.97,105.909L104.038,106.591L104.107,102.273L104.175,101.364L104.244,100.227L104.312,102.955L104.381,103.182L104.449,105.455L104.517,107.273L104.586,107.273L104.651,107.5L104.72,109.091L104.788,110L104.857,110L104.925,111.591L104.994,112.045L105.062,112.273L105.131,112.5L105.199,112.5L105.268,113.636L105.336,114.318L105.404,115.909L105.473,116.364L105.541,116.591L105.61,116.818L105.678,118.636L105.747,119.773L105.815,120L105.884,121.818L105.952,123.636L106.02,123.182L106.089,123.409L106.157,127.727L106.226,129.091L106.294,131.136L106.363,131.364L106.568,131.136L106.636,131.818L106.705,132.273L106.773,130.909L106.842,129.773L107.047,129.545L107.184,130L107.252,128.864L107.321,128.409L107.389,127.5L107.458,127.5L107.526,126.818L107.663,127.955L107.8,127.955L107.868,128.409L107.937,126.364L108.005,125.227L108.074,124.318L108.142,123.636L108.211,123.409L108.279,123.864L108.348,122.727L108.484,122.727L108.553,121.818L108.621,121.591L108.69,121.364L108.758,121.818L108.827,122.045L108.895,121.136L108.964,119.318L109.032,119.773L109.101,119.545L109.169,117.727L109.237,118.182L109.306,119.318L109.374,118.409L109.443,117.045L109.511,117.045L109.58,116.818L109.648,115.909L109.717,115.909L109.785,115.227L109.853,114.091L109.922,110.682L109.99,109.773L110.059,111.364L110.127,111.818L110.196,112.955L110.264,111.136L110.333,109.318L110.401,107.727L110.469,108.182L110.538,107.045L110.606,108.182L110.675,107.727L110.743,105.909L110.812,104.318L110.88,101.591L110.949,101.364L111.017,101.136L111.085,101.591L111.154,101.591L111.222,101.364L111.291,99.318L111.359,96.818L111.428,95.455L111.496,96.591L111.565,97.955L111.633,98.864L111.77,100.909L111.838,98.636L111.907,96.818L111.975,95.455L112.044,96.364L112.112,96.136L112.181,96.364L112.249,95.455L112.317,93.182L112.386,93.636L112.454,93.864L112.523,94.091L112.591,95L112.66,95.682L112.728,94.091L112.797,94.318L112.865,94.773L112.933,93.636L113.002,95.909L113.07,95.909L113.139,97.955L113.207,97.273L113.276,96.364L113.344,96.591L113.413,97.273L113.481,99.091L113.55,101.364L113.618,101.818L113.686,100.909L113.755,100.227L113.823,98.182L113.892,98.864L113.96,99.091L114.029,101.364L114.097,103.182L114.166,101.591L114.234,100L114.302,99.091L114.371,99.318L114.439,100.682L114.508,102.5L114.576,102.273L114.645,100.455L114.713,98.864L114.782,97.273L114.85,96.818L114.918,97.5L114.987,99.318L115.055,98.636L115.124,97.727L115.192,96.591L115.261,96.136L115.329,95.455L115.398,96.364L115.466,98.409L115.534,94.773L115.603,91.818L115.671,90L115.74,89.091L115.808,87.727L115.877,90L115.945,90.909L116.014,91.818L116.082,89.545L116.15,87.5L116.219,90L116.287,89.773L116.356,91.818L116.424,93.409L116.493,92.5L116.63,89.318L116.698,89.773L116.766,89.318L116.835,89.545L116.903,92.727L116.972,94.091L117.04,92.5L117.109,90.682L117.177,89.545L117.246,88.636L117.314,89.318L117.383,90.909L117.451,91.591L117.519,91.136L117.588,89.091L117.656,91.591L117.725,93.636L117.793,93.636L117.862,95.227L117.93,93.636L117.999,91.591L118.067,89.318L118.135,88.636L118.204,88.409L118.272,90.909L118.341,88.636L118.409,89.318L118.478,88.409L118.546,87.045L118.615,87.955L118.683,90L118.751,90.682L118.82,92.955L118.888,92.273L118.957,91.136L119.025,90L119.094,89.318L119.162,90L119.231,91.818L119.299,94.773L119.367,90.682L119.504,88.182L119.573,88.182L119.641,87.727L119.71,90L119.778,91.591L119.847,92.955L119.915,94.091L119.983,93.409L120.052,96.591L120.12,97.273L120.189,99.318L120.257,101.364L120.326,103.864L120.394,102.955L120.463,105.227L120.531,106.591L120.599,107.727L120.668,109.545L120.736,109.545L120.805,108.864L120.873,108.182L120.945,106.818L121.013,107.273L121.081,107.727L121.15,108.864L121.218,112.045L121.287,112.5L121.355,111.818L121.424,109.318L121.492,112.5L121.561,112.955L121.629,112.045L121.697,112.273L121.766,110.682L121.834,109.773L121.903,107.273L121.971,107.273L122.04,108.409L122.108,108.409L122.177,109.773L122.245,110.682L122.382,109.545L122.45,108.409L122.519,109.545L122.587,110.455L122.656,110.455L122.724,109.091L122.793,108.182L122.861,107.045L122.93,107.727L122.998,108.636L123.066,109.545L123.135,111.136L123.203,109.545L123.272,107.955L123.34,106.136L123.409,106.136L123.477,105.227L123.546,107.045L123.614,108.182L123.682,103.636L123.751,102.727L123.819,103.409L123.888,102.5L123.956,102.727L124.025,104.773L124.093,105.455L124.162,103.409L124.23,102.5L124.298,102.5L124.367,100.455L124.435,101.136L124.504,102.955L124.572,102.5L124.641,101.591L124.778,100L124.846,100.682L124.914,99.091L124.983,99.318L125.051,99.773L125.12,99.545L125.188,99.545L125.257,99.773L125.325,100.909L125.394,100.909L125.462,101.364L125.53,102.273L125.599,104.545L125.667,104.091L125.736,103.636L125.804,107.045L125.873,109.773L125.941,109.773L126.01,112.045L126.078,112.727L126.146,112.045L126.215,110.455L126.283,111.591L126.352,112.727L126.42,112.273L126.489,113.409L126.557,113.182L126.626,110.227L126.694,108.409L126.762,107.955L126.831,109.091L126.899,109.545L126.968,109.773L127.036,110.455L127.105,109.091L127.173,107.727L127.242,106.818L127.31,106.818L127.379,107.727L127.447,107.5L127.515,106.591L127.584,105.682L127.652,104.091L127.721,102.727L127.789,103.409L127.858,106.591L127.926,104.318L127.995,102.727L128.2,100.909L128.268,100.455L128.337,101.364L128.405,102.5L128.474,103.182L128.542,101.591L128.611,99.545L128.679,98.636L128.747,97.955L128.816,98.182L128.884,100L128.953,100L129.021,98.182L129.09,95.455L129.158,96.364L129.227,95L129.295,96.818L129.363,98.182L129.432,96.364L129.5,94.773L129.569,92.273L129.637,91.818L129.706,90.909L129.774,92.273L129.843,93.864L129.911,94.091L129.979,93.636L130.045,91.364L130.114,92.5L130.182,90L130.25,91.818L130.319,92.273L130.387,90.227L130.456,87.727L130.524,85.682L130.593,83.636L130.661,84.545L130.73,85.909L130.798,87.955L130.866,88.182L131.003,86.136L131.072,84.773L131.14,84.545L131.209,87.273L131.277,87.5L131.346,88.409L131.414,84.773L131.482,81.818L131.551,82.955L131.619,80.682L131.688,80.909L131.756,82.5L131.825,85.682L131.893,81.818L131.962,77.955L132.03,76.364L132.098,72.955L132.167,72.273L132.235,73.864L132.304,78.182L132.372,76.364L132.441,68.636L132.509,66.818L132.578,65L132.646,63.864L132.714,67.273L132.783,68.409L132.851,65.909L132.92,62.045L132.988,62.5L133.057,60.682L133.125,62.5L133.194,64.545L133.262,64.318L133.33,65L133.399,62.045L133.467,58.409L133.536,58.636L133.604,58.409L133.673,61.364L133.741,63.864L133.81,60.455L133.878,58.636L133.946,59.545L134.015,61.364L134.083,62.5L134.152,65L134.22,66.818L134.289,63.182L134.357,63.182L134.426,63.636L134.494,67.955L134.563,70.682L134.631,75.455L134.699,79.091L134.768,76.591L134.836,75.227L134.905,75.909L134.973,78.636L135.042,80L135.11,84.091L135.179,84.091L135.247,82.727L135.315,81.136L135.384,77.955L135.452,79.545L135.521,84.545L135.589,87.273L135.658,89.091L135.726,89.545L135.795,88.864L135.863,90.682L135.931,90L136,92.273L136.068,94.091L136.137,95L136.205,96.136L136.274,95L136.342,97.273L136.411,95.909L136.479,96.591L136.547,100.227L136.616,99.318L136.684,94.545L136.753,92.955L136.821,92.5L136.89,91.591L136.958,93.636L137.027,94.773L137.095,93.636L137.163,91.364L137.232,89.773L137.3,90.909L137.369,90.909L137.437,94.545L137.506,97.045L137.574,96.818L137.643,95.455L137.711,94.773L137.779,93.636L137.848,92.955L137.916,94.773L137.985,96.818L138.053,95.682L138.19,94.318L138.259,93.636L138.327,92.5L138.396,92.727L138.464,94.091L138.532,95.227L138.601,93.409L138.669,91.591L138.738,92.273L138.806,94.773L138.875,94.545L138.943,97.727L139.012,100.227L139.08,100L139.148,98.182L139.217,98.864L139.285,100L139.354,100.909L139.422,101.364L139.491,103.182L139.559,101.591L139.628,97.955L139.696,97.955L139.764,97.727L139.833,96.136L139.901,97.5L139.97,98.409L140.038,98.409L140.107,98.182L140.175,98.636L140.244,98.409L140.312,100L140.38,100.227L140.449,101.818L140.517,100L140.586,96.818L140.654,96.364L140.723,98.182L140.791,98.182L140.86,100.227L140.928,101.136L140.996,99.318L141.065,97.955L141.133,97.045L141.202,95.455L141.27,94.545L141.339,95.682L141.407,96.818L141.476,89.773L141.544,88.636L141.612,88.409L141.681,90.455L141.749,92.5L141.818,92.727L141.886,94.545L141.955,93.409L142.023,91.818L142.092,88.864L142.16,88.182L142.228,88.636L142.297,89.773L142.365,90.682L142.434,91.364L142.502,88.864L142.571,87.727L142.639,89.318L142.708,89.545L142.776,89.773L142.845,88.636L142.913,87.273L142.981,87.273L143.05,87.045L143.118,87.273L143.187,87.955L143.255,91.364L143.324,91.591L143.392,90.455L143.461,88.409L143.529,93.409L143.597,91.136L143.666,92.045L143.734,93.409L143.803,92.045L143.871,92.273L143.94,91.591L144.008,90.909L144.077,90.909L144.145,93.864L144.213,95.227L144.282,93.409L144.35,92.045L144.419,90.682L144.487,88.864L144.556,90.455L144.624,93.182L144.693,94.773L144.761,94.545L144.898,92.955L144.966,93.636L145.035,94.773L145.103,94.773L145.172,97.273L145.24,97.273L145.309,96.364L145.377,93.409L145.445,95.227L145.514,95.909L145.582,97.955L145.651,100.455L145.719,102.273L145.788,102.045L145.856,101.364L145.925,99.773L145.993,99.545L146.061,99.545L146.13,101.364L146.198,100.227L146.267,99.773L146.338,98.864L146.407,99.773L146.475,100.227L146.543,100.455L146.612,102.727L146.68,102.5L146.749,100.682L146.817,98.409L146.886,99.091L146.954,93.409L147.023,95.227L147.091,95.682L147.159,92.727L147.296,90.909L147.365,88.864L147.433,88.636L147.502,90.909L147.57,90.909L147.639,91.136L147.707,89.091L147.775,88.182L147.844,89.318L147.912,89.773L147.981,90.455L148.049,94.091L148.118,94.545L148.186,93.864L148.255,92.045L148.323,92.5L148.392,92.727L148.46,93.182L148.528,95L148.597,93.636L148.665,93.409L148.734,91.136L148.802,90.227L148.871,90.909L148.939,93.864L149.008,96.364L149.076,102.5L149.144,99.773L149.213,98.182L149.281,100.682L149.35,102.273L149.418,105.455L149.487,107.045L149.555,106.136L149.624,103.636L149.692,102.045L149.76,102.955L149.829,103.864L149.897,104.318L149.966,104.318L150.034,102.727L150.171,101.818L150.24,101.591L150.308,103.409L150.376,105.682L150.445,108.182L150.513,106.364L150.582,103.864L150.65,102.727L150.719,104.545L150.787,105.455L150.856,107.5L150.924,109.091L151.061,108.182L151.129,107.273L151.198,105.227L151.266,105.455L151.335,108.182L151.403,110L151.472,110.455L151.54,108.636L151.608,107.955L151.677,107.045L151.745,106.591L151.814,108.864L151.882,110.682L152.019,111.364L152.088,109.318L152.156,107.273L152.225,106.591L152.293,105.455L152.361,105.909L152.43,107.5L152.498,106.591L152.567,105.455L152.635,103.409L152.704,103.409L152.772,104.318L152.841,105L152.909,106.136L152.977,103.636L153.046,102.5L153.114,101.136L153.183,101.818L153.251,100.682L153.32,102.045L153.388,102.955L153.457,99.773L153.525,97.045L153.593,96.136L153.662,96.136L153.73,95.455L153.799,96.591L153.867,98.182L153.936,96.591L154.004,94.545L154.073,93.409L154.141,93.409L154.209,93.409L154.278,93.864L154.346,97.045L154.415,95.682L154.483,94.773L154.552,92.727L154.62,92.955L154.689,93.636L154.757,95.227L154.825,93.636L154.894,90.455L154.96,88.636L155.028,88.864L155.096,89.773L155.165,91.818L155.233,93.409L155.302,93.636L155.37,93.864L155.439,92.955L155.507,94.318L155.576,95L155.644,96.136L155.712,97.5L155.781,95.455L155.849,92.955L155.918,90.909L155.986,91.364L156.055,91.364L156.123,93.182L156.192,95L156.26,96.591L156.328,94.773L156.397,92.727L156.465,90.909L156.534,91.591L156.602,93.409L156.671,91.364L156.739,88.636L156.876,87.5L156.944,89.091L157.013,92.045L157.081,93.636L157.15,94.091L157.218,92.5L157.287,89.091L157.355,85.682L157.424,84.318L157.492,84.545L157.56,82.727L157.629,82.045L157.697,81.818L157.766,81.364L157.834,79.091L157.903,81.591L157.971,84.091L158.04,85.227L158.108,84.318L158.176,84.091L158.245,80.682L158.313,79.091L158.382,79.318L158.45,81.364L158.519,82.045L158.724,82.5L158.792,78.864L158.861,77.5L158.929,78.182L158.998,82.045L159.066,82.273L159.135,82.273L159.203,81.364L159.272,79.318L159.34,79.773L159.409,79.773L159.477,82.5L159.545,85L159.614,85.682L159.751,82.955L159.819,82.955L159.888,83.182L159.956,84.773L160.025,85.455L160.093,88.182L160.161,87.045L160.23,83.636L160.298,82.273L160.367,81.591L160.435,80.909L160.504,83.409L160.572,84.773L160.641,85.455L160.709,85.227L160.777,85L160.846,85.227L160.914,85.227L160.983,87.5L161.051,89.545L161.12,87.955L161.188,87.727L161.257,87.5L161.325,87.5L161.393,88.409L161.462,89.545L161.53,91.136L161.599,89.773L161.667,86.818L161.736,86.364L161.804,87.5L161.873,86.818L161.941,87.5L162.009,87.727L162.078,85L162.146,81.818L162.215,82.5L162.283,83.864L162.352,84.091L162.42,86.364L162.489,88.636L162.557,86.591L162.625,85.682L162.694,84.091L162.762,82.5L162.831,83.409L162.899,85L162.968,88.864L163.036,87.045L163.105,84.318L163.173,83.636L163.242,82.5L163.31,82.045L163.378,83.864L163.447,84.545L163.515,80.909L163.584,79.545L163.652,78.409L163.721,80L163.789,80.682L163.858,81.591L163.926,84.773L163.994,84.773L164.063,83.636L164.131,84.545L164.2,84.318L164.268,85.227L164.337,86.591L164.405,88.864L164.474,87.045L164.542,85.227L164.61,85.227L164.679,82.045L164.747,80L164.816,81.136L164.884,81.136L164.953,81.136L165.021,79.545L165.09,78.864L165.158,79.318L165.226,80.682L165.295,81.818L165.363,84.091L165.432,79.091L165.5,77.045L165.569,78.636L165.637,77.273L165.706,77.727L165.774,79.318L165.842,80.909L165.911,77.955L165.979,76.818L166.048,74.773L166.116,73.864L166.185,73.864L166.253,77.273L166.322,77.045L166.39,75.909L166.458,72.727L166.527,71.591L166.595,71.818L166.664,72.727L166.732,76.136L166.801,79.091L166.869,78.409L166.938,77.5L167.006,76.364L167.074,74.773L167.143,74.773L167.211,76.364L167.28,76.591L167.348,78.182L167.417,76.136L167.485,77.5L167.554,76.818L167.622,77.5L167.691,79.773L167.759,81.591L167.827,80.909L167.896,80.227L167.964,81.364L168.033,80.682L168.101,83.636L168.17,84.545L168.238,84.318L168.307,82.955L168.375,78.636L168.443,78.182L168.512,79.545L168.58,82.955L168.649,84.318L168.717,83.182L168.786,80.455L168.854,77.273L168.923,75.682L168.991,74.773L169.059,76.364L169.128,78.636L169.196,78.409L169.265,75.682L169.333,75.227L169.402,73.864L169.47,74.091L169.539,77.045L169.607,79.318L169.675,78.182L169.744,75.682L169.812,74.545L169.881,74.318L169.949,72.727L170.018,71.364L170.086,72.955L170.155,71.818L170.291,71.136L170.36,71.364L170.428,72.727L170.497,75.909L170.565,77.727L170.634,79.318L170.702,73.864L170.771,71.136L170.839,73.182L170.907,73.636L170.976,76.364L171.044,79.545L171.113,82.045L171.181,80.909L171.253,78.409L171.321,79.545L171.389,80.909L171.458,80L171.526,81.364L171.595,80.227L171.663,79.318L171.732,76.591L171.8,77.273L171.869,78.636L171.937,80L172.005,81.364L172.074,82.955L172.142,85.682L172.211,84.091L172.279,80.682L172.348,78.409L172.416,80.455L172.485,80.682L172.553,77.955L172.621,74.773L172.69,73.409L172.758,77.955L172.827,80.227L172.895,81.591L172.964,85L173.032,84.545L173.101,82.5L173.169,80.455L173.238,80.909L173.306,82.955L173.374,84.318L173.443,85.909L173.511,85.682L173.648,84.545L173.717,86.364L173.785,85.909L173.854,88.864L173.922,89.091L173.99,87.273L174.059,83.409L174.127,81.364L174.196,81.591L174.264,81.818L174.333,83.864L174.401,86.818L174.47,89.545L174.538,84.318L174.606,82.045L174.675,84.091L174.743,86.364L174.812,87.727L174.88,86.136L174.949,84.091L175.017,82.5L175.086,79.545L175.154,79.773L175.222,82.273L175.291,83.409L175.359,81.364L175.428,81.364L175.565,78.864L175.633,78.409L175.702,79.318L175.77,79.773L175.838,80.909L175.907,82.045L176.044,81.136L176.112,82.273L176.181,84.091L176.249,85.909L176.318,87.5L176.386,87.5L176.454,84.773L176.523,84.318L176.591,85.227L176.66,85.227L176.728,87.955L176.797,89.773L176.865,92.273L176.934,91.136L177.002,89.091L177.07,90.227L177.139,91.364L177.207,90.227L177.276,92.5L177.344,92.5L177.413,90.909L177.481,90L177.55,92.5L177.618,90.909L177.687,92.045L177.755,92.955L177.823,93.864L177.892,92.727L177.96,91.591L178.029,90.909L178.097,90.682L178.166,89.318L178.234,90.909L178.303,93.182L178.371,92.045L178.439,90.909L178.508,92.727L178.576,90.682L178.645,90.682L178.713,91.364L178.782,94.091L178.85,92.5L178.919,89.545L178.987,89.318L179.055,90.227L179.124,89.773L179.192,91.591L179.261,93.864L179.329,92.5L179.398,92.273L179.466,91.364L179.535,92.045L179.603,90.682L179.671,92.727L179.74,93.409L179.808,92.5L179.874,92.727L179.942,93.864L180.011,93.864L180.079,94.545L180.148,96.364L180.216,96.818L180.285,92.955L180.353,89.545L180.422,87.955L180.49,87.727L180.558,88.864L180.627,90.682L180.695,90.909L180.764,90.227L180.832,87.273L180.901,83.864L180.969,84.773L181.038,87.273L181.106,87.5L181.174,87.5L181.243,86.364L181.311,81.591L181.38,81.591L181.448,80.455L181.517,82.045L181.585,82.5L181.654,81.818L181.79,79.318L181.859,76.364L181.927,75L181.996,72.045L182.064,71.818L182.133,72.5L182.201,70.909L182.27,65.909L182.338,65L182.406,66.136L182.475,67.727L182.543,70.227L182.612,71.818L182.68,69.318L182.749,66.364L182.817,64.773L182.886,63.864L182.954,64.773L183.022,68.864L183.091,70.909L183.159,69.773L183.228,66.818L183.296,66.364L183.365,66.364L183.433,69.545L183.502,71.136L183.57,73.182L183.638,69.545L183.707,66.136L183.775,59.318L183.844,58.182L183.912,54.318L183.981,55.455L184.049,58.864L184.118,54.773L184.186,50.682L184.255,50.682L184.323,50L184.391,50.227L184.46,53.182L184.528,55.682L184.597,55.682L184.665,53.409L184.734,50.909L184.802,50.682L184.871,50.909L184.939,52.955L185.007,54.545L185.076,54.545L185.144,53.636L185.213,52.045L185.281,53.864L185.35,54.545L185.418,55.455L185.487,56.818L185.555,55.455L185.623,55.455L185.692,58.409L185.76,60.909L185.829,67.727L185.897,72.045L185.966,80L186.034,79.091L186.103,77.273L186.171,80.909L186.239,83.182L186.308,83.182L186.376,87.955L186.445,90.227L186.513,87.727L186.582,82.727L186.65,82.273L186.719,83.182L186.787,88.182L186.855,91.591L186.924,93.636L186.992,92.045L187.061,88.864L187.129,88.182L187.198,87.955L187.266,88.409L187.335,90.682L187.403,91.136L187.471,89.318L187.54,87.727L187.608,87.273L187.677,84.773L187.745,84.773L187.814,85.682L187.882,87.5L187.951,86.136L188.019,83.636L188.087,82.045L188.156,80.455L188.224,80L188.293,82.273L188.361,84.545L188.43,82.727L188.498,80.455L188.567,80.909L188.635,83.636L188.704,82.045L188.772,83.864L188.84,84.318L188.909,82.5L188.977,78.864L189.046,79.545L189.114,79.773L189.183,80.227L189.251,80.455L189.32,83.182L189.388,79.318L189.456,76.818L189.525,77.045L189.593,75.909L189.662,75.909L189.73,77.5L189.799,78.864L189.867,77.273L189.936,76.364L190.004,74.545L190.072,74.773L190.141,74.773L190.209,78.182L190.278,80.455L190.346,76.364L190.415,73.636L190.483,73.636L190.552,73.636L190.62,72.955L190.688,74.545L190.757,77.273L190.825,75.682L190.894,72.273L190.962,71.364L191.031,71.364L191.099,70.455L191.168,73.182L191.236,72.273L191.304,71.136L191.373,69.091L191.441,70.682L191.51,71.818L191.578,73.636L191.647,77.045L191.715,75.682L191.784,75.227L191.852,73.182L191.92,71.591L191.989,70.909L192.057,73.636L192.126,75.682L192.194,77.955L192.263,75L192.331,72.5L192.4,73.636L192.468,75L192.537,76.818L192.605,78.636L192.673,78.636L192.742,75.909L192.81,72.955L192.879,74.545L192.947,76.818L193.016,79.091L193.084,82.955L193.153,81.364L193.289,79.773L193.358,79.773L193.426,79.091L193.495,78.864L193.563,80L193.632,82.5L193.7,79.318L193.769,75.909L193.837,75.682L193.905,73.636L193.974,73.636L194.042,76.136L194.111,78.182L194.179,76.364L194.248,74.091L194.316,73.409L194.385,73.864L194.453,75.455L194.521,77.955L194.59,78.864L194.658,78.182L194.727,77.273L194.795,75.909L194.864,75.909L194.932,76.591L195.001,76.364L195.069,59.773L195.137,57.727L195.206,56.591L195.274,58.636L195.343,60.909L195.411,61.136L195.48,63.636L195.548,65.682L195.617,64.318L195.685,62.273L195.753,62.273L195.822,63.636L195.89,66.364L195.959,69.318L196.027,71.364L196.096,70L196.167,67.5L196.235,67.727L196.304,69.318L196.372,69.318L196.441,71.364L196.509,72.273L196.578,70.682L196.646,67.045L196.715,67.273L196.783,66.818L196.851,69.545L196.92,72.5L196.988,75.227L197.057,73.636L197.125,89.091L197.194,90.227L197.262,89.091L197.331,88.409L197.399,87.5L197.467,89.545L197.536,90L197.604,87.273L197.673,88.864L197.741,87.955L197.81,90.909L197.878,92.045L197.947,92.5L198.015,93.182L198.084,92.273L198.152,91.591L198.22,92.045L198.289,92.273L198.357,92.273L198.426,93.409L198.494,91.818L198.563,90.455L198.631,90.227L198.7,91.364L198.768,91.818L198.836,91.818L198.905,91.591L198.973,89.773L199.042,87.727L199.11,87.955L199.179,88.409L199.247,90.227L199.316,92.727L199.384,94.318L199.452,93.409L199.521,92.955L199.589,90.682L199.658,92.727L199.726,92.5L199.795,94.773L199.863,94.318L199.932,92.955L200,90L200.068,86.591L200.137,85.682L200.205,88.182L200.274,90L200.342,88.182L200.479,86.591L200.548,83.636L200.616,83.864L200.684,83.409L200.753,83.636L200.821,86.364L200.89,85.455L200.958,86.818L201.027,86.364L201.095,86.136L201.164,85.682L201.232,87.955L201.3,88.864L201.369,87.955L201.437,85.682L201.506,84.318L201.574,84.773L201.643,84.091L201.711,85.682L201.78,86.591L201.848,84.773L201.916,83.636L201.985,82.273L202.053,81.364L202.122,83.182L202.19,86.818L202.259,88.636" stroke="#4c78a8" stroke-width="2"/></g><g class="mark-group role-title"><g transform="translate(100,-17)"><path class="background" aria-hidden="true" d="M0,0h0v0h0Z" pointer-events="none"/><g><g class="mark-text role-title-text" role="graphics-symbol" aria-roledescription="title" aria-label="Title text 'General Construction/Plumbing: Cons - Contrary/Beyond Approved Plans/Permits'" pointer-events="none"><text text-anchor="middle" transform="translate(0,10)" font-family="sans-serif" font-size="13px" font-weight="bold" fill="#000" opacity="1">General Construction/Plumbing: Cons - Contrary/Beyond Approved Plans/Permits</text></g></g><path class="foreground" aria-hidden="true" d="" pointer-events="none" display="none"/></g></g></g><path class="foreground" aria-hidden="true" d="" display="none"/></g></g></g><defs><clipPath id="clip143"><rect x="0" y="0" width="200" height="150"/></clipPath></defs></svg>