<svg xmlns="http://www.w3.org/2000/svg" xmlns:xlink="http://www.w3.org/1999/xlink" version="1.1" class="marks" width="238" height="194" viewBox="0 0 238 194"><rect width="238" height="194" fill="white"/><g fill="none" stroke-miterlimit="10" transform="translate(29,22)"><g class="mark-group role-frame root" role="graphics-object" aria-roledescription="group mark container"><g transform="translate(0,0)"><path class="background" aria-hidden="true" d="M0,0h200v150h-200Z"/><g><g class="mark-group role-axis" aria-hidden="true"><g transform="translate(0.5,0.5)"><path class="background" aria-hidden="true" d="M0,0h0v0h0Z" pointer-events="none"/><g><g class="mark-rule role-axis-grid" pointer-events="none"><line transform="translate(0,150)" x2="200" y2="0" stroke="#ddd" stroke-width="1" opacity="1"/><line transform="translate(0,103)" x2="200" y2="0" stroke="#ddd" stroke-width="1" opacity="1"/><line transform="translate(0,56)" x2="200" y2="0" stroke="#ddd" stroke-width="1" opacity="1"/><line transform="translate(0,9)" x2="200" y2="0" stroke="#ddd" stroke-width="1" opacity="1"/></g></g><path class="foreground" aria-hidden="true" d="" pointer-events="none" display="none"/></g></g><g class="mark-group role-axis" role="graphics-symbol" aria-roledescription="axis" aria-label="X-axis for a time scale with values from Friday, 01 January 2016, 12:00:00 AM to Monday, 01 January 2024, 12:00:00 AM"><g transform="translate(0.5,150.5)"><path class="background" aria-hidden="true" d="M0,0h0v0h0Z" pointer-events="none"/><g><g class="mark-rule role-axis-tick" pointer-events="none"><line transform="translate(0,0)" x2="0" y2="5" stroke="#888" stroke-width="1" opacity="1"/><line transform="translate(50,0)" x2="0" y2="5" stroke="#888" stroke-width="1" opacity="1"/><line transform="translate(100,0)" x2="0" y2="5" stroke="#888" stroke-width="1" opacity="1"/><line transform="translate(150,0)" x2="0" y2="5" stroke="#888" stroke-width="1" opacity="1"/><line transform="translate(200,0)" x2="0" y2="5" stroke="#888" stroke-width="1" opacity="1"/></g><g class="mark-text role-axis-label" pointer-events="none"><text text-anchor="start" transform="translate(0,15)" font-family="sans-serif" font-size="10px" fill="#000" opacity="1">2016</text><text text-anchor="middle" transform="translate(50.03422313483915,15)" font-family="sans-serif" font-size="10px" fill="#000" opacity="1">2018</text><text text-anchor="middle" transform="translate(100,15)" font-family="sans-serif" font-size="10px" fill="#000" opacity="1">2020</text><text text-anchor="middle" transform="translate(150.03422313483915,15)" font-family="sans-serif" font-size="10px" fill="#000" opacity="1">2022</text><text text-anchor="end" transform="translate(200,15)" font-family="sans-serif" font-size="10px" fill="#000" opacity="1">2024</text></g><g class="mark-rule role-axis-domain" pointer-events="none"><line transform="translate(0,0)" x2="200" y2="0" stroke="#888" stroke-width="1" opacity="1"/></g></g><path class="foreground" aria-hidden="true" d="" pointer-events="none" display="none"/></g></g><g class="mark-group role-axis" role="graphics-symbol" aria-roledescription="axis" aria-label="Y-axis for a linear scale with values from 0 to 160"><g transform="translate(0.5,0.5)"><path class="background" aria-hidden="true" d="M0,0h0v0h0Z" pointer-events="none"/><g><g class="mark-rule role-axis-tick" pointer-events="none"><line transform="translate(0,150)" x2="-5" y2="0" stroke="#888" stroke-opacity="0" stroke-width="1" opacity="1"/><line transform="translate(0,103)" x2="-5" y2="0" stroke="#888" stroke-opacity="0" stroke-width="1" opacity="1"/><line transform="translate(0,56)" x2="-5" y2="0" stroke="#888" stroke-opacity="0" stroke-width="1" opacity="1"/><line transform="translate(0,9)" x2="-5" y2="0" stroke="#888" stroke-opacity="0" stroke-width="1" opacity="1"/></g><g class="mark-text role-axis-label" pointer-events="none"><text text-anchor="end" transform="translate(-7,153)" font-family="sans-serif" font-size="10px" fill="#000" opacity="1">0</text><text text-anchor="end" transform="translate(-7,106.125)" font-family="sans-serif" font-size="10px" fill="#000" opacity="1">50</text><text text-anchor="end" transform="translate(-7,59.25)" font-family="sans-serif" font-size="10px" fill="#000" opacity="1">100</text><text text-anchor="end" transform="translate(-7,12.375)" font-family="sans-serif" font-size="10px" fill="#000" opacity="1">150</text></g></g><path class="foreground" aria-hidden="true" d="" pointer-events="none" display="none"/></g></g><g class="mark-line role-mark marks" clip-path="url(#clip126)" role="graphics-object" aria-roledescription="line mark container"><path aria-label="day: Jan 01, 2010; avg: 25.2333333333" role="graphics-symbol" aria-roledescription="line mark" d="M-149.966,126.344L-149.897,126L-149.829,125.656L-149.76,125.25L-149.692,125.125L-149.624,125.125L-149.555,124.719L-149.487,124.813L-149.418,124.625L-149.35,124.625L-149.281,124.594L-149.213,125L-149.144,125.219L-149.076,124.969L-149.008,125.031L-148.939,124.969L-148.871,125.125L-148.802,124.719L-148.734,124.5L-148.665,124.375L-148.597,124.438L-148.528,124.5L-148.46,124.5L-148.392,124.406L-148.323,124.375L-148.255,123.937L-148.186,123.969L-148.118,124.531L-148.049,124.156L-147.981,123.813L-147.912,124.094L-147.844,124.094L-147.775,124.25L-147.707,124.469L-147.639,124.406L-147.57,123.906L-147.502,124.656L-147.433,124.375L-147.365,124.281L-147.296,124.219L-147.228,124.469L-147.159,124.063L-147.091,123.875L-147.023,124.5L-146.954,124.313L-146.886,124.219L-146.817,124.281L-146.749,124.188L-146.68,124.469L-146.612,124.094L-146.543,123.875L-146.475,124.063L-146.407,124.219L-146.338,124.375L-146.27,124.594L-146.201,125L-146.133,124.875L-146.064,124.5L-145.996,124.813L-145.927,125.188L-145.859,124.813L-145.791,125.25L-145.722,125.188L-145.654,125.344L-145.585,125.688L-145.517,125.875L-145.448,125.906L-145.38,126.313L-145.311,126.281L-145.243,126.375L-145.175,126L-145.106,126L-145.038,126L-144.972,125.906L-144.904,126.156L-144.835,126.156L-144.767,126.125L-144.698,126.062L-144.63,125.938L-144.561,125.969L-144.493,125.969L-144.424,125.906L-144.356,125.375L-144.288,125.406L-144.219,125.219L-144.151,125.219L-144.082,124.938L-144.014,125.313L-143.945,125.125L-143.877,124.75L-143.808,124.688L-143.74,124.531L-143.672,124.031L-143.603,123.312L-143.535,122.969L-143.466,122.969L-143.398,122.438L-143.329,122.188L-143.261,121.969L-143.192,122.031L-143.124,122.094L-143.056,122.094L-142.987,122L-142.919,121.594L-142.85,121.563L-142.782,121.375L-142.713,121.531L-142.645,121.313L-142.576,121L-142.508,120.969L-142.44,121.156L-142.371,121.187L-142.303,121.156L-142.234,120.781L-142.166,120.594L-142.097,120.531L-142.029,120.375L-141.96,119.938L-141.892,119.906L-141.824,120.125L-141.755,120.438L-141.687,120.125L-141.618,120.469L-141.55,121.031L-141.481,121.094L-141.413,120.781L-141.344,121.031L-141.276,120.719L-141.208,121.031L-141.139,120.813L-141.071,121.219L-141.002,121.031L-140.934,121.125L-140.865,121.281L-140.797,121.187L-140.728,121.563L-140.66,121.281L-140.591,121.063L-140.523,121.125L-140.455,121.031L-140.386,120.875L-140.318,120.813L-140.249,121L-140.181,121.344L-140.112,121.281L-140.044,121.344L-139.975,121.719L-139.907,122.063L-139.839,122.406L-139.77,121.875L-139.702,121.938L-139.633,122.156L-139.565,122.344L-139.496,122.25L-139.428,122.438L-139.359,123.063L-139.291,123L-139.223,123.219L-139.154,123.125L-139.086,123.312L-139.017,123.125L-138.949,123.344L-138.88,123.469L-138.812,123.25L-138.743,123.375L-138.675,123.438L-138.607,123.406L-138.538,124.125L-138.47,124.719L-138.401,124.719L-138.333,124.594L-138.264,124.844L-138.196,125.063L-138.127,125.031L-138.059,125.219L-137.991,125.063L-137.922,125.031L-137.854,125.156L-137.785,124.813L-137.717,125.281L-137.648,125.281L-137.58,124.781L-137.511,124.75L-137.443,124.969L-137.375,124.594L-137.306,124.375L-137.238,124.25L-137.169,124.25L-137.101,124.156L-137.032,124.031L-136.964,124.031L-136.895,123.906L-136.827,123.063L-136.758,123.125L-136.69,123.312L-136.622,123.625L-136.553,123.875L-136.485,124L-136.416,123.531L-136.348,123.906L-136.279,124.188L-136.211,123.875L-136.142,124.156L-136.074,124.031L-136.006,124.063L-135.937,123.844L-135.869,123.563L-135.8,123.563L-135.732,123.594L-135.663,123.75L-135.595,123.688L-135.526,123.75L-135.458,123.406L-135.39,123.344L-135.321,123.5L-135.253,123.594L-135.184,123.5L-135.116,123.375L-135.047,123.813L-134.979,124.281L-134.91,123.969L-134.842,123.781L-134.774,124.375L-134.705,124.125L-134.637,123.688L-134.568,123.094L-134.5,122.969L-134.431,122.594L-134.363,122.5L-134.294,122.531L-134.226,122.563L-134.158,122.563L-134.089,122.063L-134.021,121.906L-133.952,121.219L-133.884,121.375L-133.815,121.563L-133.747,121.594L-133.678,121.625L-133.61,121.719L-133.542,121.281L-133.473,121.438L-133.405,121.563L-133.336,121.313L-133.268,120.875L-133.199,120.563L-133.131,120.281L-133.062,119.969L-132.994,119.406L-132.926,118.844L-132.857,119.063L-132.789,118.75L-132.72,118.781L-132.652,119.063L-132.583,119.313L-132.515,119.25L-132.446,119.219L-132.378,119.094L-132.309,118.938L-132.241,118.469L-132.173,118.125L-132.104,118.094L-132.036,118.188L-131.967,118.063L-131.899,118.313L-131.83,117.969L-131.762,117.906L-131.693,117.281L-131.625,117L-131.557,116.375L-131.488,116.156L-131.42,116.125L-131.351,116.25L-131.283,116.156L-131.214,116.719L-131.146,116.938L-131.077,117.438L-131.009,117.531L-130.941,117.781L-130.872,117.906L-130.804,117.813L-130.735,118.344L-130.667,118.094L-130.598,118.125L-130.53,117.594L-130.461,118L-130.393,118.031L-130.325,118.094L-130.256,118.375L-130.188,118.469L-130.119,118.563L-130.051,118.844L-129.982,118.969L-129.914,119.406L-129.845,119.531L-129.777,119.906L-129.709,119.656L-129.64,119.531L-129.572,119.844L-129.503,120.438L-129.435,121.281L-129.366,121.719L-129.298,121.906L-129.229,121.938L-129.161,121.563L-129.093,121.531L-129.024,121.187L-128.956,121.438L-128.887,121.281L-128.819,121.313L-128.75,121.594L-128.679,121.469L-128.611,121.594L-128.542,121.281L-128.474,121.469L-128.405,121.375L-128.337,121.187L-128.268,121.219L-128.2,121.281L-128.131,121.594L-128.063,121.531L-127.995,120.719L-127.926,120.719L-127.858,120.25L-127.789,120.438L-127.721,120.031L-127.652,120.469L-127.584,121.125L-127.515,121.031L-127.447,121.187L-127.379,120.969L-127.31,121.25L-127.242,121.594L-127.173,122L-127.105,122.344L-127.036,122.156L-126.968,122.094L-126.899,122L-126.831,121.812L-126.762,121.625L-126.694,121.438L-126.626,121.094L-126.557,121.375L-126.489,121.438L-126.42,121.656L-126.352,121.531L-126.283,121.094L-126.215,121.375L-126.146,121.25L-126.078,120.688L-126.01,120.719L-125.941,121.25L-125.873,121.5L-125.804,121.75L-125.736,121.75L-125.667,122.125L-125.599,122.406L-125.53,122.344L-125.462,122.469L-125.394,122.281L-125.325,122.406L-125.257,122.219L-125.188,121.781L-125.12,121.156L-125.051,120.75L-124.983,120.438L-124.914,120.031L-124.846,120.094L-124.778,120L-124.709,119.906L-124.641,119.969L-124.572,120L-124.504,119.188L-124.435,119.687L-124.367,119.469L-124.298,119.531L-124.23,120.125L-124.162,120.125L-124.093,120.469L-124.025,120.719L-123.956,120.625L-123.888,120.25L-123.819,119.969L-123.751,120.281L-123.682,120.156L-123.614,120L-123.546,119.5L-123.477,119.5L-123.409,119.281L-123.34,119.219L-123.272,119.281L-123.203,119.156L-123.135,119.031L-123.066,119.344L-122.998,119.906L-122.93,120.281L-122.861,121.156L-122.793,121.406L-122.724,122.031L-122.656,122.156L-122.587,122.375L-122.519,122.688L-122.45,123.188L-122.382,122.781L-122.313,123.031L-122.245,122.719L-122.177,122.313L-122.108,122.25L-122.04,121.812L-121.971,121.812L-121.903,122.125L-121.834,122.75L-121.766,122.438L-121.697,121.844L-121.629,122.125L-121.561,122.313L-121.492,122.313L-121.424,122.281L-121.355,122.25L-121.287,122.188L-121.218,122L-121.15,121.531L-121.081,121.344L-121.013,121.406L-120.945,121.031L-120.876,120.969L-120.808,120.625L-120.739,120.5L-120.671,120.063L-120.602,120.156L-120.534,119.813L-120.465,119.844L-120.397,119.906L-120.329,119.969L-120.26,119.719L-120.192,120.344L-120.123,120.094L-120.058,119.938L-119.989,120.281L-119.921,120.438L-119.852,120.438L-119.784,120.125L-119.715,120.563L-119.647,120.813L-119.578,120.406L-119.51,120.594L-119.442,120.781L-119.373,120.656L-119.305,121.25L-119.236,121.406L-119.168,121.375L-119.099,121.781L-119.031,122.063L-118.962,122.031L-118.894,122.375L-118.826,122.656L-118.757,122.906L-118.689,122.75L-118.62,122.688L-118.552,122.75L-118.483,122.594L-118.415,122.688L-118.346,122.563L-118.278,122.656L-118.21,122.906L-118.141,122.031L-118.073,122.531L-118.004,122.688L-117.936,122.281L-117.867,122.188L-117.799,122.219L-117.73,122.375L-117.662,122.125L-117.594,122.219L-117.525,122.188L-117.457,121.844L-117.388,122L-117.32,121.938L-117.251,121.594L-117.183,121.406L-117.114,121.25L-117.046,121.063L-116.978,120.594L-116.909,120.594L-116.841,120.594L-116.772,120.813L-116.704,120.719L-116.635,120.531L-116.567,120.938L-116.498,120.938L-116.43,121.313L-116.362,121.344L-116.293,121.438L-116.225,121.469L-116.156,121.375L-116.088,122.438L-116.019,122.469L-115.951,122.25L-115.882,122.938L-115.814,122.656L-115.745,122.375L-115.677,122.125L-115.609,122.031L-115.54,121.844L-115.472,121.781L-115.403,121.781L-115.335,121.281L-115.266,121.375L-115.198,121.219L-115.129,121.219L-115.061,121.344L-114.993,121.063L-114.924,121.375L-114.856,121.5L-114.787,121.187L-114.719,120.844L-114.65,121.063L-114.582,121.719L-114.513,121.656L-114.445,121.969L-114.377,121.906L-114.308,121.875L-114.24,121.844L-114.171,121.719L-114.103,121.75L-114.034,121.375L-113.966,121.688L-113.897,121.906L-113.829,121.75L-113.761,121.875L-113.692,122.063L-113.624,122.375L-113.555,122.281L-113.487,122.781L-113.418,123.031L-113.35,123.25L-113.281,123.625L-113.213,123.688L-113.145,123.906L-113.076,123.906L-113.008,124.094L-112.939,124.438L-112.871,124.25L-112.802,124.313L-112.734,124.25L-112.665,124.313L-112.597,123.844L-112.529,123.594L-112.46,123.344L-112.392,123.063L-112.323,123.094L-112.255,123.063L-112.186,123.219L-112.118,123.156L-112.049,123.219L-111.981,122.813L-111.913,122.656L-111.844,122.5L-111.776,122.406L-111.707,122.313L-111.639,122.438L-111.57,122.5L-111.502,122.719L-111.433,122.594L-111.365,122.469L-111.296,122.406L-111.228,122.344L-111.16,122.219L-111.091,122.063L-111.023,122.125L-110.954,122L-110.886,121.906L-110.817,122.313L-110.749,122.625L-110.68,123.344L-110.612,124.156L-110.544,124.875L-110.475,125.094L-110.407,125.531L-110.338,125.594L-110.27,125.656L-110.201,125.375L-110.133,125.094L-110.064,125.344L-109.996,125.25L-109.928,125.406L-109.859,125.406L-109.791,125.437L-109.722,125.125L-109.654,125.281L-109.585,124.75L-109.517,124.313L-109.448,124.25L-109.38,124.031L-109.312,123.937L-109.243,123.969L-109.175,123.813L-109.106,123.625L-109.038,123.344L-108.969,123.125L-108.901,122.969L-108.832,123.188L-108.764,122.75L-108.696,122.188L-108.627,121.844L-108.559,120.875L-108.49,120.094L-108.422,119.625L-108.353,119.219L-108.285,118.875L-108.216,118.688L-108.148,118.719L-108.08,118.813L-108.011,118.656L-107.943,118.75L-107.874,118.875L-107.806,119.219L-107.737,119.125L-107.669,119.469L-107.6,119.469L-107.532,119.687L-107.463,120.281L-107.395,120.219L-107.327,120.125L-107.258,120.375L-107.19,120.25L-107.121,120.312L-107.053,120.469L-106.984,120.813L-106.916,120.938L-106.847,121.156L-106.779,120.781L-106.711,120.938L-106.642,121.063L-106.574,120.813L-106.505,120.594L-106.437,120.688L-106.368,121.25L-106.3,121.5L-106.231,121.594L-106.163,121.094L-106.095,121.25L-106.026,121.406L-105.958,121.469L-105.889,121.469L-105.821,121.25L-105.752,120.594L-105.684,120.75L-105.615,120.406L-105.547,120.25L-105.479,120.781L-105.41,120.375L-105.342,120.469L-105.273,120.469L-105.205,120.469L-105.136,120.375L-105.068,120.75L-104.999,120.531L-104.931,120L-104.863,119.875L-104.794,119.563L-104.726,119.5L-104.657,119.031L-104.589,118.594L-104.52,118.563L-104.452,118.938L-104.383,119.375L-104.315,119.031L-104.247,118.438L-104.178,118.594L-104.11,119.031L-104.041,118.906L-103.973,118.219L-103.904,117.938L-103.836,117.562L-103.765,117.313L-103.696,117.656L-103.628,117.406L-103.559,117.219L-103.491,117.438L-103.422,116.875L-103.354,116.625L-103.285,116.688L-103.217,116.719L-103.149,116.781L-103.08,117.219L-103.012,117.063L-102.943,116.875L-102.875,117.406L-102.806,117.5L-102.738,117.625L-102.669,117.469L-102.601,117.75L-102.533,118.219L-102.464,117.938L-102.396,118.031L-102.327,118.094L-102.259,118.219L-102.19,118.563L-102.122,118.625L-102.053,118.469L-101.985,118.688L-101.916,119.719L-101.848,120.125L-101.78,120.531L-101.711,120.656L-101.643,120.344L-101.574,120.469L-101.506,120.438L-101.437,120.594L-101.369,120.75L-101.3,121L-101.232,121.031L-101.164,121.313L-101.095,120.969L-101.027,120.781L-100.958,120.625L-100.89,121L-100.821,121.094L-100.753,121.438L-100.684,121.25L-100.616,122.188L-100.548,122.781L-100.479,122.594L-100.411,122.938L-100.342,122.969L-100.274,122.844L-100.205,122.688L-100.137,122.813L-100.068,122.969L-100,123.375L-99.932,123.375L-99.863,123.219L-99.795,122.969L-99.726,123.188L-99.658,123.438L-99.589,123.469L-99.521,123.844L-99.452,124.344L-99.384,124.156L-99.316,124.188L-99.247,123.969L-99.179,124.188L-99.11,123.781L-99.042,123.937L-98.973,124L-98.905,124.031L-98.836,124L-98.768,123.656L-98.7,123.312L-98.631,123.625L-98.563,123.312L-98.494,123L-98.426,123.438L-98.357,123.312L-98.289,123.375L-98.22,123.094L-98.152,123.188L-98.084,123.375L-98.015,123.312L-97.947,123.125L-97.878,122.875L-97.81,122.406L-97.741,122.563L-97.673,121.969L-97.604,121.844L-97.536,121.781L-97.467,121.187L-97.399,120.719L-97.331,120.75L-97.262,120.406L-97.194,120.375L-97.125,120.125L-97.057,120.188L-96.988,120.125L-96.92,120.031L-96.851,119.969L-96.783,119.531L-96.715,119.438L-96.646,119.344L-96.578,119.125L-96.509,118.938L-96.441,118.969L-96.372,118.469L-96.304,118.5L-96.235,118.125L-96.167,118.219L-96.099,118.094L-96.03,117.938L-95.962,117.844L-95.893,117.906L-95.825,118.281L-95.756,118.531L-95.688,118.531L-95.619,118.594L-95.551,118.719L-95.483,119.156L-95.414,119.594L-95.346,119.625L-95.277,119.906L-95.209,120.281L-95.143,120.406L-95.075,120.781L-95.006,121.094L-94.938,121.313L-94.869,121.344L-94.801,121.563L-94.732,122.469L-94.664,122.375L-94.596,122.813L-94.527,122.813L-94.459,122.5L-94.39,122.125L-94.322,122.094L-94.253,121.75L-94.185,121.719L-94.116,121.344L-94.048,121.156L-93.98,120.688L-93.911,120.312L-93.843,120.344L-93.774,119.969L-93.706,119.719L-93.637,119.219L-93.569,119.375L-93.5,118.813L-93.432,118.656L-93.364,118.375L-93.295,118.375L-93.227,118L-93.158,117.75L-93.09,117.5L-93.021,117.25L-92.953,117.063L-92.884,116.875L-92.816,116.281L-92.748,116.031L-92.679,115.656L-92.611,115.938L-92.542,115.563L-92.474,115.656L-92.405,115.938L-92.337,116.375L-92.268,116.656L-92.2,116.844L-92.132,116.656L-92.063,116.781L-91.995,117.313L-91.926,118.094L-91.858,118.406L-91.789,117.906L-91.721,118.031L-91.652,118L-91.584,118.25L-91.516,118.469L-91.447,119.125L-91.379,118.719L-91.31,118.813L-91.242,119L-91.173,118.938L-91.105,119.344L-91.036,119.656L-90.968,119.313L-90.899,118.813L-90.831,118.875L-90.763,119.156L-90.694,119.313L-90.626,118.844L-90.557,119.031L-90.489,119.063L-90.42,118.313L-90.352,118.094L-90.283,118.156L-90.215,117.969L-90.147,118.063L-90.078,118.219L-90.01,118.5L-89.941,117.562L-89.873,117.031L-89.804,117.125L-89.736,117.219L-89.667,117.281L-89.599,117.156L-89.531,116.906L-89.462,116.906L-89.394,116.906L-89.325,117.344L-89.257,117.25L-89.188,117.688L-89.12,118.031L-89.051,117.75L-88.983,117.938L-88.915,118.125L-88.846,118.406L-88.778,117.969L-88.709,118L-88.641,117.875L-88.572,118.219L-88.504,117.938L-88.435,117.875L-88.367,118.5L-88.299,118.875L-88.23,118.25L-88.162,118.063L-88.093,117.781L-88.025,117.625L-87.956,117.656L-87.888,118.219L-87.819,118.156L-87.751,118.094L-87.683,117.938L-87.614,117.719L-87.546,117.938L-87.477,118.25L-87.409,118.406L-87.34,118.5L-87.272,118.25L-87.203,118.594L-87.135,118.406L-87.067,118.344L-86.998,117.906L-86.93,117.875L-86.861,117.531L-86.793,117.656L-86.724,117.969L-86.656,118.438L-86.587,118.656L-86.519,118.875L-86.45,119.094L-86.382,119.219L-86.314,119L-86.245,118.406L-86.177,118.906L-86.108,119.125L-86.04,119.719L-85.971,119.938L-85.903,119.844L-85.834,119.969L-85.766,120L-85.698,120L-85.629,120.5L-85.561,120.406L-85.492,120.344L-85.424,120.375L-85.355,120.031L-85.287,119.906L-85.218,119.781L-85.15,119.563L-85.082,119.469L-85.013,119.094L-84.945,119.094L-84.876,118.5L-84.808,118.75L-84.739,118.844L-84.671,118.563L-84.602,118.313L-84.534,118L-84.466,117.625L-84.397,117.156L-84.329,117.188L-84.26,116.938L-84.192,117.344L-84.123,117.219L-84.055,117.188L-83.986,116.813L-83.918,116.438L-83.85,116.469L-83.781,116L-83.713,116.156L-83.644,115.438L-83.576,115.594L-83.507,115.469L-83.439,115.094L-83.37,114.938L-83.302,115.094L-83.234,114.688L-83.165,114.406L-83.097,114.188L-83.028,113.844L-82.96,113.469L-82.891,113.719L-82.823,114.188L-82.754,114.406L-82.686,114.875L-82.617,115.219L-82.549,115.094L-82.481,114.938L-82.412,115.156L-82.344,115.344L-82.275,115.281L-82.207,115.344L-82.138,115.156L-82.07,115L-82.001,114.906L-81.933,115.063L-81.865,115.656L-81.796,115.219L-81.728,115.438L-81.659,115.438L-81.591,116L-81.522,115.375L-81.454,115.625L-81.385,116.625L-81.317,117.594L-81.249,118.375L-81.18,119.531L-81.112,120.875L-81.043,121.438L-80.975,122.406L-80.906,123.688L-80.838,124.5L-80.769,124.875L-80.701,125.437L-80.633,125.125L-80.564,125.313L-80.496,125.437L-80.427,125.469L-80.359,125.625L-80.29,125.938L-80.222,125.375L-80.153,125.781L-80.085,126.25L-80.017,126.375L-79.948,126.156L-79.88,126L-79.811,125.594L-79.743,125.906L-79.674,125.531L-79.606,125.563L-79.537,125.781L-79.469,126.156L-79.401,125.875L-79.332,125.031L-79.264,124L-79.195,123.031L-79.127,122.406L-79.058,121.656L-78.99,121.25L-78.921,120.25L-78.85,119.375L-78.782,118.75L-78.713,117.875L-78.645,117.313L-78.576,116.75L-78.508,116.438L-78.439,116.594L-78.371,116.688L-78.303,116.594L-78.234,116.75L-78.166,117.063L-78.097,116.906L-78.029,116.563L-77.96,116.469L-77.892,116.688L-77.823,116.688L-77.755,117L-77.687,116.688L-77.618,117.281L-77.55,117L-77.481,116.906L-77.413,117.031L-77.344,117.406L-77.276,117.938L-77.207,118.219L-77.139,118.375L-77.07,118.094L-77.002,118.125L-76.934,118.469L-76.865,118.906L-76.797,119.188L-76.728,118.938L-76.66,119.469L-76.591,119.563L-76.523,120.25L-76.454,120.438L-76.386,120.094L-76.318,120.438L-76.249,120.5L-76.181,119.969L-76.112,120.406L-76.044,120.688L-75.975,120.531L-75.907,120.5L-75.838,120.719L-75.77,120.875L-75.702,120.875L-75.633,121.219L-75.565,121.5L-75.496,121.812L-75.428,122.063L-75.359,121.938L-75.291,122.094L-75.222,122.063L-75.154,122.25L-75.086,121.719L-75.017,121.781L-74.949,121.781L-74.88,121.375L-74.812,120.906L-74.743,120.813L-74.675,120.719L-74.606,120.813L-74.538,120.531L-74.47,120.063L-74.401,120.031L-74.333,120.406L-74.264,120.531L-74.196,120.438L-74.127,120.563L-74.059,120.188L-73.99,120.375L-73.922,120.156L-73.854,120.219L-73.785,120.344L-73.717,120.25L-73.648,120.406L-73.58,120.375L-73.511,119.813L-73.443,119.375L-73.374,118.719L-73.306,118.469L-73.238,118.688L-73.169,118.656L-73.101,118.531L-73.032,119.063L-72.964,118.938L-72.895,118.688L-72.827,118.75L-72.758,119L-72.69,118.875L-72.621,118.844L-72.553,118.594L-72.485,118.531L-72.416,118.594L-72.348,118.219L-72.279,117.969L-72.211,117.063L-72.142,117.281L-72.074,117.188L-72.005,117.594L-71.937,117.281L-71.869,117.313L-71.8,116.906L-71.732,116.656L-71.663,116.625L-71.595,116.344L-71.526,116.438L-71.458,116.031L-71.389,116.094L-71.321,116.625L-71.253,116.844L-71.184,116.594L-71.116,116.563L-71.047,116.344L-70.979,116.156L-70.91,116.188L-70.842,116.594L-70.773,116.656L-70.705,116.781L-70.637,117.031L-70.568,117.219L-70.5,117.344L-70.431,117.219L-70.363,117.625L-70.294,118.094L-70.229,118.281L-70.16,119.406L-70.092,119.188L-70.023,119.25L-69.955,119L-69.886,119L-69.818,119.219L-69.75,119.813L-69.681,119.469L-69.613,119.469L-69.544,119.531L-69.476,119.594L-69.407,120L-69.339,120.281L-69.27,119.906L-69.202,119.844L-69.134,119.594L-69.065,119.594L-68.997,119.531L-68.928,119.438L-68.86,119.125L-68.791,118.469L-68.723,118.219L-68.654,117.781L-68.586,117.531L-68.518,117.688L-68.449,117.719L-68.381,117.844L-68.312,117.562L-68.244,117.688L-68.175,117.375L-68.107,116.906L-68.038,116.531L-67.97,116.281L-67.902,115.75L-67.833,115.625L-67.765,115.75L-67.696,116L-67.628,116.094L-67.559,115.719L-67.491,115.563L-67.422,115.063L-67.354,115.031L-67.286,115.156L-67.217,115.188L-67.149,115L-67.08,114.75L-67.012,114.5L-66.943,114.844L-66.875,114.594L-66.806,114.969L-66.738,115.25L-66.67,115.469L-66.601,115.5L-66.533,115.438L-66.464,115.719L-66.396,115.563L-66.327,115.438L-66.259,115.344L-66.19,114.781L-66.122,114.656L-66.054,114.5L-65.985,114.688L-65.917,114.813L-65.848,115.031L-65.78,114.906L-65.711,114.594L-65.643,114.063L-65.574,114.313L-65.506,114.313L-65.437,114.031L-65.369,114.313L-65.301,114.156L-65.232,113.75L-65.164,113.344L-65.095,113.531L-65.027,113.406L-64.958,112.938L-64.89,112.563L-64.821,112.469L-64.753,111.969L-64.685,112.156L-64.616,111.531L-64.548,111.594L-64.479,111.531L-64.411,111.344L-64.342,111.656L-64.274,111.906L-64.205,112.281L-64.137,112.625L-64.069,112.469L-64,112.313L-63.932,112.406L-63.863,112.688L-63.795,112.781L-63.726,113.063L-63.658,113.188L-63.589,113.219L-63.521,112.969L-63.453,113.656L-63.384,113.906L-63.316,114.25L-63.247,114.406L-63.179,114.5L-63.11,114.531L-63.042,114.375L-62.973,114.563L-62.905,115.031L-62.837,115.188L-62.768,115.469L-62.7,115.75L-62.631,115.75L-62.563,115.656L-62.494,115.469L-62.426,115.531L-62.357,115.531L-62.289,115.438L-62.221,115L-62.152,114.656L-62.084,114.313L-62.015,114.938L-61.947,114.781L-61.878,115L-61.81,114.813L-61.741,115L-61.673,114.563L-61.604,114.656L-61.536,114.844L-61.468,115.188L-61.399,114.656L-61.331,114.938L-61.262,114.813L-61.194,114.594L-61.125,114.531L-61.057,114.469L-60.988,114.594L-60.92,114.844L-60.852,115.313L-60.783,115.5L-60.715,115.813L-60.646,115.781L-60.578,115.406L-60.509,116.094L-60.441,116.5L-60.372,116.531L-60.304,116.188L-60.236,116.219L-60.167,116.313L-60.099,116.188L-60.03,116.688L-59.962,116.594L-59.893,116.844L-59.825,116.75L-59.756,116.75L-59.688,116.5L-59.62,116.594L-59.551,116.188L-59.483,115.813L-59.414,115.469L-59.346,115.125L-59.277,114.219L-59.209,113.906L-59.14,114.031L-59.072,114.313L-59.004,115.094L-58.935,114.844L-58.867,114.375L-58.798,113.969L-58.73,112.969L-58.661,112.688L-58.593,112.906L-58.524,112.906L-58.456,112.625L-58.388,112.531L-58.319,112.344L-58.251,112.406L-58.182,112.219L-58.114,112.25L-58.045,112.25L-57.977,112.094L-57.908,111.719L-57.84,111.344L-57.772,110.813L-57.703,110.75L-57.635,110.406L-57.566,110.625L-57.498,111.156L-57.429,111.063L-57.361,110.813L-57.292,111.094L-57.224,111.344L-57.155,111.313L-57.087,111.344L-57.019,111.063L-56.95,110.531L-56.882,110.156L-56.813,110.031L-56.745,109.594L-56.676,109.75L-56.608,109.313L-56.539,109.375L-56.471,109.688L-56.403,109.281L-56.334,109.156L-56.266,109.219L-56.197,108.688L-56.129,108.406L-56.06,108.813L-55.992,108.469L-55.923,108.063L-55.855,108.156L-55.787,108.219L-55.718,108.375L-55.65,107.938L-55.581,108.156L-55.513,107.656L-55.444,107.594L-55.376,107.531L-55.307,108.031L-55.239,108.187L-55.171,107.844L-55.102,107.594L-55.034,107.25L-54.965,107.063L-54.897,106.438L-54.828,107.219L-54.76,107.313L-54.691,107.156L-54.623,107.344L-54.555,107.906L-54.486,107.313L-54.418,106.594L-54.349,106.875L-54.281,106.875L-54.212,107.031L-54.144,107.313L-54.075,107.625L-54.007,107.25L-53.936,106.906L-53.867,107.313L-53.799,107L-53.73,106.594L-53.662,106.625L-53.593,106.719L-53.525,106.375L-53.457,106.594L-53.388,106.5L-53.32,106.75L-53.251,106.25L-53.183,106.063L-53.114,106.438L-53.046,106.281L-52.977,106.063L-52.909,106.281L-52.841,106.656L-52.772,106.094L-52.704,105.75L-52.635,106.188L-52.567,106.687L-52.498,106.25L-52.43,106.813L-52.361,107.219L-52.293,107.469L-52.225,107.188L-52.156,106.906L-52.088,107.438L-52.019,107.188L-51.951,107.063L-51.882,107.688L-51.814,107.875L-51.745,108.438L-51.677,109.594L-51.608,109.656L-51.54,110.219L-51.472,111L-51.403,111L-51.335,110.375L-51.266,110.469L-51.198,110.719L-51.129,110.719L-51.061,110.688L-50.992,110.969L-50.924,111.281L-50.856,111.031L-50.787,111.375L-50.719,111.688L-50.65,111.938L-50.582,112.188L-50.513,112.437L-50.445,113L-50.376,112.906L-50.308,113.031L-50.24,112.938L-50.171,113.469L-50.103,113.594L-50.034,113.25L-49.966,112.844L-49.897,112.469L-49.829,112.281L-49.76,111.563L-49.692,111.406L-49.624,110.563L-49.555,110.5L-49.487,109.875L-49.418,109.063L-49.35,109.094L-49.281,109L-49.213,108.313L-49.144,107.594L-49.076,107.063L-49.008,107.219L-48.939,106.969L-48.871,106.906L-48.802,106.188L-48.734,105.625L-48.665,105L-48.597,104.969L-48.528,104.656L-48.46,103.938L-48.392,103.656L-48.323,103.219L-48.255,103.313L-48.186,103.062L-48.118,102.219L-48.049,102L-47.981,101.563L-47.912,102.188L-47.844,102.406L-47.775,102.25L-47.707,102.188L-47.639,101.719L-47.57,101.313L-47.502,100.969L-47.433,100.906L-47.365,101.094L-47.296,100.906L-47.228,100.813L-47.159,100.937L-47.091,101.531L-47.023,102.219L-46.954,102.25L-46.886,101.719L-46.817,101.875L-46.749,102.625L-46.68,102.844L-46.612,103.156L-46.543,103.25L-46.475,102.563L-46.407,102.594L-46.338,102.063L-46.27,101.688L-46.201,100.469L-46.133,100.313L-46.064,100.563L-45.996,100.25L-45.927,100.281L-45.859,100.031L-45.791,100.094L-45.722,99.969L-45.654,100.594L-45.585,100.563L-45.517,101L-45.448,100.688L-45.38,100.906L-45.314,100.625L-45.246,100.875L-45.177,101.156L-45.109,101.406L-45.04,101.563L-44.972,101.438L-44.904,101.344L-44.835,102.344L-44.767,102.375L-44.698,102.625L-44.63,102.5L-44.561,102.594L-44.493,103.094L-44.424,103.813L-44.356,104.094L-44.288,104.562L-44.219,104.719L-44.151,105.219L-44.082,105.625L-44.014,105.688L-43.945,106.219L-43.877,106.156L-43.808,106.188L-43.74,106.25L-43.672,106.563L-43.603,106.031L-43.535,106.031L-43.466,105.906L-43.398,106.125L-43.329,106.25L-43.261,106.531L-43.192,106.406L-43.124,106.906L-43.056,106.938L-42.987,105.906L-42.919,105.938L-42.85,106.219L-42.782,106.125L-42.713,105.406L-42.645,105.156L-42.576,105.438L-42.508,105.188L-42.44,104.656L-42.371,104.125L-42.303,103.781L-42.234,102.938L-42.166,103.188L-42.097,103.625L-42.029,103.375L-41.96,102.969L-41.892,102.375L-41.824,102.063L-41.755,101.688L-41.687,101.75L-41.618,101.656L-41.55,101.25L-41.481,100.813L-41.413,100.656L-41.344,100.937L-41.276,100.625L-41.208,100.188L-41.139,100.188L-41.071,99.594L-41.002,98.906L-40.934,99.25L-40.865,98.75L-40.797,97.938L-40.728,97.469L-40.66,98L-40.591,97.344L-40.523,97.219L-40.455,96.563L-40.386,96.25L-40.318,96.125L-40.249,95.844L-40.181,96.5L-40.112,96.344L-40.044,95.969L-39.975,95.656L-39.907,95.906L-39.839,95.938L-39.77,96.594L-39.702,96.813L-39.633,96.406L-39.565,96.375L-39.496,96.5L-39.428,97.188L-39.359,97.969L-39.291,98.031L-39.223,98.594L-39.154,99.031L-39.086,98.531L-39.017,98.594L-38.949,99.469L-38.88,99.344L-38.812,99.531L-38.743,100.156L-38.675,100.031L-38.607,100.156L-38.538,100.875L-38.47,100.969L-38.401,101.469L-38.333,102L-38.264,102.375L-38.196,102.437L-38.127,102.188L-38.059,102.125L-37.991,101.969L-37.922,101.844L-37.854,101.469L-37.785,101.813L-37.717,101.563L-37.648,101.313L-37.58,101.906L-37.511,102.094L-37.443,102.406L-37.375,102.031L-37.306,101.938L-37.238,102.344L-37.169,101.906L-37.101,102.437L-37.032,103.188L-36.964,103.313L-36.895,102.969L-36.827,103.531L-36.758,104.031L-36.69,103.656L-36.622,103.688L-36.553,103.969L-36.485,104.031L-36.416,104.063L-36.348,104.75L-36.279,104.5L-36.211,104.406L-36.142,104.875L-36.074,105.438L-36.006,105.531L-35.937,106.031L-35.869,106.5L-35.8,106.906L-35.732,106.687L-35.663,106.281L-35.595,106.219L-35.526,105.688L-35.458,105.281L-35.39,105.438L-35.321,105.563L-35.253,104.719L-35.184,103.875L-35.116,103.188L-35.047,101.938L-34.979,100.813L-34.91,100.469L-34.842,99.781L-34.774,99.219L-34.705,98.469L-34.637,98L-34.568,97.906L-34.5,97.156L-34.431,96.906L-34.363,96.156L-34.294,95.406L-34.226,95.25L-34.158,94.563L-34.089,93.906L-34.021,93.625L-33.952,93.25L-33.884,92.906L-33.815,92.281L-33.747,92.031L-33.678,92.281L-33.61,92.906L-33.542,92.531L-33.473,92.406L-33.405,92.156L-33.336,91.813L-33.268,90.969L-33.199,91.031L-33.131,90.875L-33.062,90.875L-32.994,91.688L-32.926,92.375L-32.857,91.938L-32.789,92.5L-32.72,92.625L-32.652,93.062L-32.583,93.875L-32.515,94L-32.446,94.188L-32.378,94.063L-32.309,94.156L-32.241,94.125L-32.173,94.594L-32.104,95.094L-32.036,95.219L-31.967,94.438L-31.899,94.781L-31.83,94.969L-31.762,95.344L-31.693,94.781L-31.625,94.438L-31.557,93.625L-31.488,93.75L-31.42,93.594L-31.351,93.625L-31.283,93.375L-31.214,93.75L-31.146,93.719L-31.077,94.344L-31.009,94.531L-30.941,94.438L-30.872,94.438L-30.804,95.094L-30.735,95.156L-30.667,95.313L-30.598,94.438L-30.53,93.813L-30.461,93.781L-30.393,93.5L-30.325,92.906L-30.256,92.875L-30.188,92.844L-30.119,92.281L-30.051,92.5L-29.982,92.188L-29.914,92.094L-29.845,91.875L-29.777,91.625L-29.709,91.438L-29.64,92.469L-29.572,92.25L-29.503,91.75L-29.435,91.656L-29.366,92.063L-29.298,92.375L-29.229,92.188L-29.161,92.906L-29.093,92.906L-29.021,92.281L-28.953,92.5L-28.884,91.344L-28.816,91.063L-28.747,91.094L-28.679,90.75L-28.611,90.188L-28.542,90.531L-28.474,90.344L-28.405,89.906L-28.337,90.344L-28.268,90.406L-28.2,90.531L-28.131,90.438L-28.063,90.031L-27.995,89.375L-27.926,89.625L-27.858,89.781L-27.789,89.75L-27.721,89.813L-27.652,89.406L-27.584,88.531L-27.515,88.875L-27.447,90.031L-27.379,90.469L-27.31,90.688L-27.242,90.719L-27.173,90.719L-27.105,90.156L-27.036,90.313L-26.968,90.844L-26.899,90.719L-26.831,91.438L-26.762,91.844L-26.694,91.469L-26.626,92.125L-26.557,92.594L-26.489,92.938L-26.42,93.594L-26.352,94.094L-26.283,93.906L-26.215,94.625L-26.146,94.75L-26.078,95.406L-26.01,96.25L-25.941,97.125L-25.873,97.406L-25.804,98.219L-25.736,98.719L-25.667,99.219L-25.599,100.156L-25.53,100.875L-25.462,100.719L-25.394,100.25L-25.325,100.094L-25.257,100.063L-25.188,101.188L-25.12,102.031L-25.051,102.219L-24.983,102.281L-24.914,102.281L-24.846,102.313L-24.778,102.531L-24.709,102.594L-24.641,102.594L-24.572,102.313L-24.504,102.469L-24.435,102.25L-24.367,101.656L-24.298,102.094L-24.23,101.719L-24.162,101.344L-24.093,101.313L-24.025,101.031L-23.956,100.875L-23.888,100.969L-23.819,101.094L-23.751,100.656L-23.682,100.719L-23.614,100.031L-23.546,99.656L-23.477,100.219L-23.409,100.5L-23.34,100.563L-23.272,100.25L-23.203,99.438L-23.135,98.188L-23.066,97.5L-22.998,97.438L-22.93,97.625L-22.861,97.281L-22.793,96.719L-22.724,96.938L-22.656,97.375L-22.587,98.094L-22.519,97.906L-22.45,97.656L-22.382,97.125L-22.313,97.094L-22.245,96.531L-22.177,96.406L-22.108,96.531L-22.04,96.281L-21.971,95.906L-21.903,95.344L-21.834,94.719L-21.766,93.969L-21.697,93.438L-21.629,92.188L-21.561,92.25L-21.492,92.063L-21.424,90.906L-21.355,90.563L-21.287,90.406L-21.218,90.219L-21.15,90.875L-21.081,90.875L-21.013,90.969L-20.945,90.625L-20.876,90.188L-20.808,90.344L-20.739,91.281L-20.671,91.094L-20.602,90.219L-20.534,89.938L-20.465,89.844L-20.4,89.969L-20.331,90.531L-20.263,91.063L-20.195,91.719L-20.126,92.75L-20.058,92.75L-19.989,93.031L-19.921,92.5L-19.852,93L-19.784,93.375L-19.715,93.156L-19.647,93.625L-19.578,94.219L-19.51,94L-19.442,93.781L-19.373,93.563L-19.305,93.438L-19.236,92.781L-19.168,93.062L-19.099,92.344L-19.031,92.531L-18.962,92.469L-18.894,92.688L-18.826,92.688L-18.757,92.219L-18.689,91.656L-18.62,91.594L-18.552,91.063L-18.483,90.906L-18.415,90L-18.346,89.063L-18.278,88.281L-18.21,87.781L-18.141,87.188L-18.073,85.531L-18.004,84.594L-17.936,83.687L-17.867,84.156L-17.799,83.875L-17.73,83.406L-17.662,83.875L-17.594,83.375L-17.525,82.625L-17.457,82.5L-17.388,82.219L-17.32,82.094L-17.251,82.563L-17.183,83.719L-17.114,84.063L-17.046,83.531L-16.978,82.469L-16.909,81.906L-16.841,81.938L-16.772,81.406L-16.704,81.469L-16.635,81.094L-16.567,80.156L-16.498,79.625L-16.43,78.25L-16.362,78.844L-16.293,79.594L-16.225,80.125L-16.156,79.094L-16.088,77.875L-16.019,78.625L-15.951,78.938L-15.882,79.094L-15.814,79.281L-15.745,79.344L-15.677,78.562L-15.609,78.406L-15.54,78.344L-15.472,78.438L-15.403,78.281L-15.335,78.562L-15.266,79.094L-15.198,78.094L-15.129,77.5L-15.061,76.781L-14.993,77.25L-14.924,77.563L-14.856,77.844L-14.787,77.156L-14.719,77.094L-14.65,76.594L-14.582,76.75L-14.513,78.063L-14.445,79.5L-14.377,80.969L-14.308,81.563L-14.24,81.594L-14.171,81.563L-14.103,83.031L-14.034,84.281L-13.966,83.813L-13.897,84.906L-13.829,85.594L-13.761,85.031L-13.692,84.406L-13.624,85.25L-13.555,85.063L-13.487,85.625L-13.418,86.469L-13.35,86.875L-13.281,86.25L-13.213,86.094L-13.145,86.344L-13.076,86.625L-13.008,87.219L-12.939,87.594L-12.871,87.844L-12.802,88.156L-12.734,88.531L-12.665,89.406L-12.597,89.969L-12.529,89.906L-12.46,89.625L-12.392,88.844L-12.323,88.25L-12.255,87.281L-12.186,87.188L-12.118,87.719L-12.049,87.313L-11.981,86.844L-11.913,87.781L-11.844,86.562L-11.776,86.469L-11.707,86.813L-11.639,87.375L-11.57,87.125L-11.502,87.719L-11.433,87.344L-11.365,87.406L-11.296,87.406L-11.228,88.563L-11.16,88.5L-11.091,88.813L-11.023,89L-10.954,89.094L-10.886,89.25L-10.817,89.406L-10.749,89.344L-10.68,89.344L-10.612,88.844L-10.544,89.156L-10.475,89.875L-10.407,89.156L-10.338,89.031L-10.27,89.063L-10.201,89.625L-10.133,89.656L-10.064,89.125L-9.996,89.375L-9.928,89.875L-9.859,89.094L-9.791,89.094L-9.722,88.5L-9.654,87.969L-9.585,87.688L-9.517,87.313L-9.448,87.031L-9.38,87.25L-9.312,87.031L-9.243,85.812L-9.175,85.031L-9.106,84.969L-9.038,84.719L-8.969,83.406L-8.901,82.313L-8.832,81.688L-8.764,81.531L-8.696,81.188L-8.627,81.25L-8.559,80.938L-8.49,80.156L-8.422,79.594L-8.353,79.75L-8.285,79.75L-8.216,80L-8.148,79.25L-8.08,79.156L-8.011,78.844L-7.943,78.594L-7.874,77.938L-7.806,77.906L-7.737,77.156L-7.669,77.75L-7.6,78.438L-7.532,78.656L-7.463,78.781L-7.395,78.25L-7.327,78.469L-7.258,78.313L-7.19,78.938L-7.121,78.875L-7.053,78.969L-6.984,78.25L-6.916,79.031L-6.847,79.312L-6.779,78.844L-6.711,78.594L-6.642,78.844L-6.574,78.125L-6.505,78.219L-6.437,78.594L-6.368,78.25L-6.3,77.563L-6.231,77.156L-6.163,76.5L-6.095,76.375L-6.026,75.938L-5.958,76.625L-5.889,76.219L-5.821,76.094L-5.752,75.875L-5.684,77.031L-5.615,76.656L-5.547,76.25L-5.479,76.25L-5.41,75.656L-5.342,75.625L-5.273,75.219L-5.205,74.969L-5.136,75.281L-5.068,75.156L-4.999,74.406L-4.931,75.375L-4.863,75.031L-4.794,74.719L-4.726,75.188L-4.657,74.938L-4.589,74.625L-4.52,75.094L-4.452,74.719L-4.383,74.688L-4.315,74.875L-4.247,75.875L-4.178,75.969L-4.107,76.094L-4.038,76.375L-3.97,76.469L-3.901,75.406L-3.833,75.75L-3.765,75.719L-3.696,75.656L-3.628,75.313L-3.559,75.75L-3.491,75.562L-3.422,74.875L-3.354,75.25L-3.285,75.438L-3.217,75.469L-3.149,75.031L-3.08,74.594L-3.012,74.656L-2.943,75.188L-2.875,74.531L-2.806,74.625L-2.738,75.031L-2.669,75L-2.601,75L-2.533,74.844L-2.464,75.75L-2.396,76.563L-2.327,76.344L-2.259,76.813L-2.19,76.688L-2.122,77.094L-2.053,77.375L-1.985,78.344L-1.916,78.75L-1.848,79.188L-1.78,79.281L-1.711,78.844L-1.643,79.219L-1.574,79.5L-1.506,79.188L-1.437,79.406L-1.369,80.25L-1.3,80.469L-1.232,79.688L-1.164,79.594L-1.095,79.563L-1.027,79.438L-0.958,79.75L-0.89,80.094L-0.821,81.188L-0.753,81.031L-0.684,81.406L-0.616,81.594L-0.548,81.813L-0.479,83.969L-0.411,84.25L-0.342,83.687L-0.274,82.875L-0.205,82.594L-0.137,82.563L-0.068,82.969L0,82.875L0.068,82.781L0.137,82.656L0.205,82.438L0.274,82.156L0.342,82.531L0.411,82.469L0.479,82.594L0.548,82.031L0.616,82.406L0.684,81.563L0.753,82.219L0.821,83.469L0.89,83.5L0.958,84.625L1.027,85.688L1.095,86.188L1.164,86L1.232,85.594L1.3,86.188L1.369,85.969L1.437,85.781L1.506,85.875L1.574,84.094L1.643,82.656L1.711,83.313L1.78,83.687L1.848,83.156L1.916,82.344L1.985,81.906L2.053,81.75L2.122,80.938L2.19,80.938L2.259,80.969L2.327,81.25L2.396,81.5L2.464,81.375L2.533,80.781L2.601,81.125L2.669,80.719L2.738,81.25L2.806,80.75L2.875,80.313L2.943,79.844L3.012,78.594L3.08,77.187L3.149,76.375L3.217,75.688L3.285,75.063L3.354,75.063L3.422,74.813L3.491,74.781L3.559,74.25L3.628,74L3.696,73.719L3.765,74.063L3.833,73.969L3.901,74.406L3.97,74.656L4.038,74.656L4.107,74.25L4.175,74.844L4.244,74.031L4.312,73.531L4.381,73.406L4.449,72.969L4.517,72.813L4.586,72.906L4.654,72.813L4.723,72.656L4.791,71.938L4.86,71.938L4.928,71.156L4.994,71.125L5.062,71.594L5.131,71.969L5.199,72.531L5.268,73.031L5.336,73.156L5.404,72.594L5.473,72.156L5.541,71.781L5.61,72.375L5.678,72.375L5.747,72.438L5.815,71.75L5.884,71.938L5.952,72.969L6.02,73.281L6.089,74.094L6.157,74.75L6.226,74.375L6.294,75.156L6.363,75.375L6.431,74.594L6.5,74.875L6.568,75.344L6.636,75.469L6.705,75.75L6.773,75.562L6.842,75.531L6.91,75L6.979,75.688L7.047,75.906L7.116,75.313L7.184,75.531L7.252,75.375L7.321,74.75L7.389,74.813L7.458,74.344L7.526,74.5L7.595,74.375L7.663,73.594L7.732,72.844L7.8,73.063L7.868,72.938L7.937,73.156L8.005,71.594L8.074,71.031L8.142,70.469L8.211,70.531L8.279,70.656L8.348,70.031L8.416,69.844L8.484,69.781L8.553,69.125L8.621,68.563L8.69,68.563L8.758,68.188L8.827,68.094L8.895,68.656L8.964,68.563L9.032,67.781L9.101,67.812L9.169,68.688L9.237,68.469L9.306,67.938L9.374,67.969L9.443,66.906L9.511,67.344L9.58,66.969L9.648,67.094L9.717,66.719L9.785,66.094L9.853,65.656L9.922,65.531L9.99,64.875L10.059,65.063L10.127,65.344L10.196,64.094L10.264,63.406L10.333,62.938L10.401,62.656L10.469,63.188L10.538,64.156L10.606,64.969L10.675,66.375L10.743,66.063L10.812,65.969L10.88,66.594L10.949,66.531L11.017,67.188L11.085,67.969L11.154,67.125L11.222,66.594L11.291,66.531L11.359,66.75L11.428,67.75L11.496,68.531L11.565,69.375L11.633,69.937L11.701,70L11.77,71.094L11.838,72.625L11.907,73.469L11.975,73.469L12.044,74.25L12.112,74.125L12.181,74.094L12.249,74.781L12.317,74.875L12.386,75.031L12.454,75.688L12.523,75.594L12.591,75.188L12.66,74.625L12.728,74.063L12.797,74.25L12.865,74.875L12.933,74.594L13.002,74.938L13.07,74.188L13.139,73.813L13.207,74.312L13.276,74.875L13.344,75.188L13.413,75.688L13.481,75.5L13.55,75.406L13.618,74.906L13.686,75.125L13.755,75.781L13.823,75.875L13.892,75.75L13.96,75.938L14.029,75.906L14.097,75.219L14.166,75.313L14.234,76.375L14.302,76.781L14.371,77.344L14.439,77.781L14.508,77.219L14.576,77.375L14.645,77.25L14.713,78.375L14.782,78.219L14.85,78.469L14.918,77.781L14.987,78.406L15.055,78.219L15.124,78.063L15.192,77.156L15.261,76.5L15.329,75.469L15.398,75.188L15.466,74.344L15.534,73.906L15.603,73.844L15.671,73.094L15.74,72.188L15.808,71.656L15.877,71.063L15.945,69.906L16.014,68.844L16.082,67.969L16.15,67.188L16.219,66.219L16.287,65.313L16.356,64.688L16.424,63.469L16.493,62.469L16.561,62.406L16.63,61.094L16.698,60.531L16.766,59L16.835,58.781L16.903,58.25L16.972,58.688L17.04,57.844L17.109,56.688L17.177,57.281L17.246,58.625L17.314,59.219L17.383,59.844L17.451,59.75L17.519,60.25L17.588,60.219L17.656,60.094L17.725,60.531L17.793,61.781L17.862,60.969L17.93,60.562L17.999,61.281L18.067,61.781L18.135,61.906L18.204,62.656L18.272,63.531L18.341,63.5L18.409,63.344L18.478,63.875L18.546,64.219L18.615,63.938L18.683,64.625L18.751,64.937L18.82,64.875L18.888,64.188L18.957,63.906L19.025,62.906L19.094,62.531L19.162,63.344L19.231,63.625L19.299,60.781L19.367,60.781L19.436,60.125L19.504,59.719L19.573,59.531L19.641,59.156L19.71,59.188L19.778,59.375L19.847,58.562L19.915,58.437L19.983,58.031L20.052,58L20.12,57.438L20.189,57.969L20.257,57.813L20.326,56.656L20.394,56.437L20.463,56.25L20.531,56.25L20.599,56.5L20.668,56.656L20.736,56L20.805,55.719L20.873,55.938L20.942,55.5L21.01,55.594L21.079,56.344L21.147,56.594L21.215,55.781L21.287,54.563L21.355,56.906L21.424,57.25L21.492,56.5L21.561,57.062L21.629,56.219L21.697,55.844L21.766,55.531L21.834,54.844L21.903,54.531L21.971,55.313L22.04,56.063L22.108,55.344L22.177,55.531L22.245,55.156L22.313,55.063L22.382,55.469L22.45,55.344L22.519,55.313L22.587,55.562L22.656,55.375L22.724,55.531L22.793,56.312L22.861,56.719L22.93,57.125L22.998,57.469L23.066,57.875L23.135,57.906L23.203,57.281L23.272,57.438L23.34,57.125L23.409,57.313L23.477,57.781L23.546,59.25L23.614,59.312L23.682,60.469L23.751,61.031L23.819,60.938L23.888,61.781L23.956,62.687L24.025,63.281L24.093,63.063L24.162,63.5L24.23,63.281L24.298,63.688L24.367,63.562L24.435,64.313L24.504,63.875L24.572,64.281L24.641,63.906L24.709,63.594L24.778,63.938L24.846,64.031L24.914,64.156L24.983,64.406L25.051,64.375L25.12,63.813L25.188,63.938L25.257,64.375L25.325,64.625L25.394,65.125L25.462,64.875L25.53,63.313L25.599,62.938L25.667,62.375L25.736,63L25.804,64.094L25.873,65.25L25.941,65.063L26.01,64.469L26.078,63.781L26.146,64.313L26.215,64.219L26.283,64.188L26.352,64.313L26.42,65.063L26.489,64.937L26.557,65.563L26.626,66.156L26.694,66.375L26.762,66.063L26.831,65.969L26.899,66.281L26.968,66.094L27.036,65.594L27.105,66L27.173,66.094L27.242,65.5L27.31,65.844L27.379,66.094L27.447,66.625L27.515,66.813L27.584,67.844L27.652,67.906L27.721,67.938L27.789,66.969L27.858,65.844L27.926,64.313L27.995,65.531L28.063,65.938L28.131,65.875L28.2,64.844L28.268,64.75L28.337,65.063L28.405,63.625L28.474,63.188L28.542,63.469L28.611,63.75L28.679,62.156L28.747,61.563L28.816,62.25L28.884,61.906L28.953,61.875L29.021,61.625L29.09,61.844L29.158,61.25L29.227,61.5L29.295,61.094L29.363,60.625L29.432,60.063L29.5,60.406L29.569,60.25L29.637,60.156L29.706,60.063L29.774,60.031L29.843,59.875L29.908,60.313L29.977,60.687L30.045,59.312L30.114,58.781L30.182,59.25L30.25,60.438L30.319,61.188L30.387,61.469L30.456,62.344L30.524,62.719L30.593,61.344L30.661,61L30.73,61.969L30.798,62.313L30.866,62.156L30.935,61.875L31.003,60.969L31.072,61.219L31.14,61.031L31.209,61.531L31.277,60.844L31.346,61.125L31.414,61.375L31.482,61.625L31.551,61.094L31.619,61.031L31.688,60.906L31.756,60.344L31.825,59.812L31.893,59.031L31.962,58.375L32.03,58.531L32.098,57.531L32.167,57.531L32.235,55.906L32.304,54.5L32.372,53.594L32.441,53.312L32.509,53L32.578,52.594L32.646,53.281L32.714,52.344L32.783,51.344L32.851,50.406L32.92,50.25L32.988,51.5L33.057,51.813L33.125,51.938L33.194,53.156L33.262,52.656L33.33,53.344L33.399,53.437L33.467,51.813L33.536,52.156L33.604,51.438L33.673,50.437L33.741,49.719L33.81,49.469L33.878,49.5L33.946,50.094L34.015,49.406L34.083,49.156L34.152,48.906L34.22,47.875L34.289,48.406L34.357,48.406L34.426,48.344L34.494,47.781L34.563,47.5L34.631,47L34.699,45.531L34.768,45.406L34.836,46.031L34.905,46.375L34.973,45.719L35.042,44.844L35.11,44.844L35.179,44.031L35.247,41.844L35.315,41.875L35.384,41.125L35.452,41.313L35.521,42.969L35.589,42.656L35.658,43.937L35.726,44.344L35.795,45.031L35.863,45.594L35.931,46.25L36,46.125L36.068,46.719L36.137,47.094L36.205,48.656L36.274,49.344L36.342,50.188L36.411,51.312L36.479,51.75L36.547,51.563L36.616,53.094L36.684,52.812L36.753,54L36.821,54.687L36.89,54.906L36.958,55.469L37.027,56.031L37.095,55.625L37.163,55.719L37.232,56L37.3,56.906L37.369,57.188L37.437,57.75L37.506,57.594L37.574,57.531L37.643,57.188L37.711,56.312L37.779,57.094L37.848,57.062L37.916,57.719L37.985,57.406L38.053,57.906L38.122,58L38.19,58.437L38.259,58.344L38.327,59.094L38.396,59.031L38.464,58.5L38.532,58.531L38.601,59.25L38.669,58.188L38.738,59.438L38.806,60.469L38.875,61L38.943,61.25L39.012,61.656L39.08,62.031L39.148,62.938L39.217,63.813L39.285,64.344L39.354,64.625L39.422,64.906L39.491,65.063L39.559,65.031L39.628,64.656L39.696,65.594L39.764,65.906L39.833,66.219L39.901,66.375L39.97,65.781L40.038,65.406L40.107,63.625L40.175,63.188L40.244,62.25L40.312,61.25L40.38,60.406L40.449,59.031L40.517,58.5L40.586,57.875L40.654,56.563L40.723,56.469L40.791,55.969L40.86,55.344L40.928,54.219L40.996,53.344L41.065,52.344L41.133,52.531L41.202,51.656L41.27,50.656L41.339,48.813L41.407,47.062L41.476,47L41.544,45.906L41.612,44.5L41.681,44.938L41.749,43.813L41.818,43.156L41.886,41.656L41.955,40.5L42.023,40.875L42.092,41.688L42.16,42.656L42.228,43.406L42.297,44.25L42.365,44.156L42.434,43.313L42.502,44.5L42.571,45.125L42.639,45.031L42.708,46.25L42.776,45.906L42.845,45.594L42.913,45.094L42.981,45.125L43.05,45.375L43.118,46.031L43.187,45.781L43.255,44.938L43.324,45.063L43.392,45.875L43.461,47.094L43.529,46.156L43.597,47.125L43.666,48.125L43.734,47.75L43.803,47.188L43.871,47.875L43.94,48.938L44.008,48.875L44.077,47.563L44.145,47.344L44.213,46.594L44.282,46.187L44.35,45.688L44.419,46.281L44.487,47L44.556,47.094L44.624,47.437L44.693,48.063L44.761,47.656L44.829,47.906L44.898,47L44.966,46.531L45.035,46.125L45.103,46.281L45.172,45.469L45.24,44.313L45.309,44.906L45.377,44.969L45.445,45.781L45.514,46.156L45.582,47L45.651,46.563L45.719,46.781L45.788,46.031L45.856,46.344L45.925,45.5L45.993,45.063L46.061,45.375L46.13,46.187L46.201,45.969L46.27,46.469L46.338,46.438L46.407,46.625L46.475,46.219L46.543,46.937L46.612,46.719L46.68,45.656L46.749,44.906L46.817,45.063L46.886,45.094L46.954,45.688L47.023,46.531L47.091,47L47.159,46.75L47.228,46.719L47.296,47.062L47.365,47.188L47.433,46.937L47.502,46.969L47.57,47.344L47.639,47L47.707,47.5L47.775,47.625L47.844,48.531L47.912,50.063L47.981,51.031L48.049,52.094L48.118,52.562L48.186,52.406L48.255,54.281L48.323,55.688L48.392,57L48.46,58.156L48.528,58.625L48.597,58.406L48.665,58.719L48.734,59.063L48.802,60.125L48.871,60.5L48.939,60.562L49.008,61.937L49.076,62.219L49.144,63.906L49.213,64.531L49.281,65.594L49.35,66.406L49.418,67.188L49.487,67.563L49.555,67.594L49.624,66.938L49.692,67.406L49.76,67.406L49.829,67.5L49.897,67.594L49.966,66.344L50.034,65.438L50.103,64.563L50.171,64.906L50.24,65.281L50.308,63.813L50.376,62.625L50.445,61.563L50.513,59.781L50.582,59.031L50.65,58.219L50.719,57.75L50.787,58.094L50.856,57.844L50.924,57.844L50.992,57.469L51.061,56.969L51.129,56.719L51.198,55.844L51.266,56.156L51.335,56.219L51.403,56.219L51.472,56.219L51.54,56.719L51.608,57.281L51.677,58.125L51.745,57.875L51.814,58.219L51.882,58.781L51.951,58.625L52.019,58.937L52.088,58.75L52.156,58.937L52.225,58.719L52.293,59L52.361,58.688L52.43,58.844L52.498,59.031L52.567,60.531L52.635,60.969L52.704,61.906L52.772,62.125L52.841,61.406L52.909,61.875L52.977,61.625L53.046,61.813L53.114,61.594L53.183,61.688L53.251,61.094L53.32,60L53.388,58.688L53.457,59L53.525,59.594L53.593,59.344L53.662,58.375L53.73,57.687L53.799,57.625L53.867,57.156L53.936,56.469L54.004,56.75L54.073,56.188L54.141,57.281L54.209,57.188L54.278,57.219L54.346,56.5L54.415,56.625L54.483,56.281L54.552,56.406L54.62,54.969L54.689,55.188L54.757,54.563L54.823,53.781L54.891,54.094L54.96,53.813L55.028,53.688L55.096,53.594L55.165,53.625L55.233,53.594L55.302,53.688L55.37,53.188L55.439,53.813L55.507,53.094L55.576,51.813L55.644,51.187L55.712,51.25L55.781,50.688L55.849,50.25L55.918,50.156L55.986,49.594L56.055,49.156L56.123,49.625L56.192,48.875L56.26,48.594L56.328,47.938L56.397,47.875L56.465,47.719L56.534,47.906L56.602,47.594L56.671,47.531L56.739,46.438L56.808,46.688L56.876,47.406L56.944,47.594L57.013,47.25L57.081,47.813L57.15,48.063L57.218,47.875L57.287,46.719L57.355,45.469L57.424,46.469L57.492,47.125L57.56,46.937L57.629,46.813L57.697,46.719L57.766,46.563L57.834,47.031L57.903,47.594L57.971,48.094L58.04,49.688L58.108,50.625L58.176,50.313L58.245,50.406L58.313,50.25L58.382,50.188L58.45,50.156L58.519,49.781L58.587,49.937L58.656,48.938L58.724,48.969L58.792,49.375L58.861,48.594L58.929,48.312L58.998,48.094L59.066,47.5L59.135,46.656L59.203,46.25L59.272,45.375L59.34,46.625L59.409,47.531L59.477,47.563L59.545,46.531L59.614,45.281L59.682,45.375L59.751,44.719L59.819,43.375L59.888,42.844L59.956,41.906L60.025,40.813L60.093,39.156L60.161,38.469L60.23,38.781L60.298,38.844L60.367,39.219L60.435,40.438L60.504,40.875L60.572,41.25L60.641,41.469L60.709,42.25L60.777,42.75L60.846,43.75L60.914,45.219L60.983,45.969L61.051,45.844L61.12,46.281L61.188,46.313L61.257,46.531L61.325,47.844L61.393,47.75L61.462,47.969L61.53,48.5L61.599,48.375L61.667,49.719L61.736,49.594L61.804,51.125L61.873,53.094L61.941,54.187L62.009,54.687L62.078,55.75L62.146,56.625L62.215,56.312L62.283,56.625L62.352,57.281L62.42,56.812L62.489,56.469L62.557,56.281L62.625,56.156L62.694,55.969L62.762,56.969L62.831,57.406L62.899,56.719L62.968,55.281L63.036,54.75L63.105,54.781L63.173,54.844L63.242,55.5L63.31,56.437L63.378,56L63.447,56.094L63.515,57L63.584,56.75L63.652,57.594L63.721,57.781L63.789,59.188L63.858,58.5L63.926,57.406L63.994,57.719L64.063,58.156L64.131,58.406L64.2,58.688L64.268,59.219L64.337,58.937L64.405,58.875L64.474,60.063L64.542,59.438L64.61,59.125L64.679,59.594L64.747,60.5L64.816,59.812L64.884,59.156L64.953,58.156L65.021,58.344L65.09,57.719L65.158,58.25L65.226,58.5L65.295,58.344L65.363,58.094L65.432,58L65.5,57.625L65.569,56.031L65.637,54.813L65.706,54.344L65.774,52.75L65.842,51.719L65.911,51.844L65.979,51.656L66.048,50.469L66.116,50.656L66.185,49.875L66.253,49.125L66.322,49L66.39,48.375L66.458,47.563L66.527,46.625L66.595,47.219L66.664,47.75L66.732,47.906L66.801,46.844L66.869,46L66.938,46.281L67.006,47.5L67.074,47.844L67.143,48.25L67.211,48.438L67.28,47.563L67.348,46.813L67.417,46.438L67.485,46.125L67.554,46.844L67.622,47.875L67.691,48.125L67.759,48.125L67.827,48.844L67.896,48.844L67.964,47.875L68.033,49.094L68.101,49.594L68.17,48.406L68.238,47.188L68.307,47.469L68.375,47.25L68.443,48.156L68.512,48.469L68.58,48.906L68.649,47.594L68.717,47.219L68.786,46.875L68.854,46.406L68.923,46.469L68.991,46.156L69.059,45.938L69.128,45.969L69.196,45.844L69.265,45.5L69.333,45.719L69.402,46L69.47,45.781L69.539,46.344L69.607,45.813L69.675,45.25L69.744,45.719L69.812,46.781L69.881,47.781L69.949,47.687L70.018,48.344L70.086,47.469L70.155,47.125L70.223,47.813L70.291,49.406L70.36,49.531L70.428,49.656L70.497,49.469L70.565,49.313L70.634,48.094L70.702,48.344L70.771,48.219L70.839,47.625L70.907,47.656L70.976,47.656L71.044,47.188L71.116,46.969L71.184,46.937L71.253,46.75L71.321,46.906L71.389,47.031L71.458,47.281L71.526,47.344L71.595,46.875L71.663,47.188L71.732,47.094L71.8,46.969L71.869,45.594L71.937,44.812L72.005,44.25L72.074,44.438L72.142,44.781L72.211,44.594L72.279,44.875L72.348,44.594L72.416,44.969L72.485,44.812L72.553,45.594L72.621,46.406L72.69,47.375L72.758,48.469L72.827,49.156L72.895,49.844L72.964,50.031L73.032,50.813L73.101,51.406L73.169,51.875L73.238,51.469L73.306,52L73.374,51.625L73.443,51.719L73.511,51.656L73.58,51.719L73.648,52.625L73.717,52.562L73.785,53.688L73.854,54.063L73.922,54.906L73.99,54.531L74.059,54.594L74.127,54.594L74.196,54.594L74.264,55.375L74.333,55.781L74.401,56.375L74.47,56.437L74.538,56.594L74.606,56.25L74.675,56.125L74.743,56.188L74.812,55.906L74.88,55.562L74.949,55.625L75.017,56.219L75.086,55.531L75.154,55L75.222,55.094L75.291,55.594L75.359,55.656L75.428,56.344L75.496,56.938L75.565,56.875L75.633,56.781L75.702,55.906L75.77,56.125L75.838,55.219L75.907,56.125L75.975,56.094L76.044,56.781L76.112,57.219L76.181,56.781L76.249,57.438L76.318,57.344L76.386,56.625L76.454,56.719L76.523,56.719L76.591,56.563L76.66,56L76.728,55.469L76.797,55.562L76.865,55.531L76.934,55.406L77.002,55.219L77.07,54.937L77.139,55.562L77.207,55.969L77.276,56.281L77.344,56.219L77.413,56.563L77.481,56.469L77.55,55.781L77.618,55.781L77.687,56.156L77.755,57.531L77.823,57L77.892,56.844L77.96,56.25L78.029,56.094L78.097,56.688L78.166,56.969L78.234,57.219L78.303,56.531L78.371,56.094L78.439,56.25L78.508,55.125L78.576,54.187L78.645,54.469L78.713,54.281L78.782,54.719L78.85,54.344L78.919,53.531L78.987,53.219L79.055,53.125L79.124,53.375L79.192,52L79.261,51.563L79.329,50.938L79.398,50.531L79.466,49.969L79.535,49L79.603,49.313L79.671,49.062L79.737,49.344L79.805,48.375L79.874,48.563L79.942,48.938L80.011,48.688L80.079,49.156L80.148,48.375L80.216,47.594L80.285,48.031L80.353,48.688L80.422,48.875L80.49,49L80.558,49.562L80.627,50.594L80.695,50.969L80.764,52.406L80.832,53.25L80.901,54.219L80.969,55.594L81.038,56.281L81.106,56.781L81.174,56.406L81.243,57.094L81.311,57.75L81.38,57.188L81.448,57.844L81.517,58.031L81.585,57.969L81.654,57.531L81.722,58.25L81.79,57.219L81.859,55.688L81.927,55.375L81.996,54.719L82.064,54.531L82.133,53.688L82.201,53.437L82.27,52.438L82.338,51.594L82.406,51.563L82.475,50.75L82.543,50L82.612,48.375L82.68,47.031L82.749,46.063L82.817,44.594L82.886,43.531L82.954,43.5L83.022,42.938L83.091,42.125L83.159,40.313L83.228,39.875L83.296,39.625L83.365,39.281L83.433,39.438L83.502,39.063L83.57,38.813L83.638,38.75L83.707,39.281L83.775,38.625L83.844,38.906L83.912,40.406L83.981,41.125L84.049,41.656L84.118,41.875L84.186,42L84.255,42.344L84.323,43.906L84.391,44.531L84.46,43.187L84.528,43.313L84.597,42.781L84.665,43.813L84.734,43.719L84.802,43.437L84.871,43.094L84.939,42.406L85.007,40.594L85.076,39.969L85.144,40.813L85.213,42.875L85.281,44.031L85.35,44.563L85.418,44.5L85.487,44.875L85.555,45.625L85.623,46.719L85.692,47.531L85.76,48.188L85.829,48.75L85.897,49L85.966,48.813L86.034,48.031L86.103,47.719L86.171,46.844L86.239,47.219L86.308,47.844L86.376,48.031L86.445,47.75L86.513,48.688L86.582,48.656L86.65,50.156L86.719,50.719L86.787,51.906L86.855,53.156L86.924,53.844L86.992,54.469L87.061,55.469L87.129,56.688L87.198,56.688L87.266,56.406L87.335,55.469L87.403,55.75L87.471,55.688L87.54,56.469L87.608,56.656L87.677,56.156L87.745,56.938L87.814,56.031L87.882,55.25L87.951,55.625L88.019,55.625L88.087,55.906L88.156,56.656L88.224,57.125L88.293,56.969L88.361,56.969L88.43,56.188L88.498,56.719L88.567,56.531L88.635,57.344L88.704,57.531L88.772,57.719L88.84,57.438L88.909,56.219L88.977,56.906L89.046,57.281L89.114,57.656L89.183,57.125L89.251,57L89.32,55.781L89.388,55.875L89.456,55.406L89.525,55.875L89.593,55.031L89.662,54.875L89.73,54.75L89.799,53.813L89.867,53.375L89.936,53L90.004,51.531L90.072,51.063L90.141,50.5L90.209,48.813L90.278,48.25L90.346,46.875L90.415,44.875L90.483,44.656L90.552,43.969L90.62,44.031L90.688,42.875L90.757,41.875L90.825,39.938L90.894,39.375L90.962,39.406L91.031,38.937L91.099,38.125L91.168,36.719L91.236,36.031L91.304,35.875L91.373,36.125L91.441,36.063L91.51,36.031L91.578,35.813L91.647,36.219L91.715,36L91.784,35.125L91.852,34.438L91.92,33.844L91.989,33.969L92.057,35L92.126,35.125L92.194,35.219L92.263,36.844L92.331,37.938L92.4,39.563L92.468,41.469L92.537,42.344L92.605,42.969L92.673,42.938L92.742,43.437L92.81,43.719L92.879,45.813L92.947,46.063L93.016,46.063L93.084,45.781L93.153,46.344L93.221,47.563L93.289,48.312L93.358,48.031L93.426,48.625L93.495,48.969L93.563,48.375L93.632,48.469L93.7,47.5L93.769,46.844L93.837,47.813L93.905,48.563L93.974,49.937L94.042,51L94.111,50.5L94.179,50.094L94.248,50.375L94.316,49.719L94.385,49.469L94.453,49.281L94.521,48.688L94.59,48.156L94.658,47.719L94.727,47.219L94.795,48.188L94.864,48.5L94.932,48.094L95.001,47.531L95.069,47.344L95.137,47.437L95.206,47.062L95.274,46.906L95.343,46.5L95.411,46.969L95.48,46.656L95.548,45.562L95.617,46.5L95.685,46.688L95.753,47.687L95.822,48.969L95.89,48.75L95.959,49.031L96.03,49.375L96.099,48.781L96.167,49.031L96.235,49.187L96.304,50.031L96.372,50.656L96.441,50.625L96.509,49.906L96.578,50L96.646,50.156L96.715,50.563L96.783,51L96.851,50.25L96.92,49.688L96.988,49.219L97.057,50L97.125,50.437L97.194,50.094L97.262,50.125L97.331,49.688L97.399,49.844L97.467,49.406L97.536,50.25L97.604,52.125L97.673,52.344L97.741,52.438L97.81,52.375L97.878,51.719L97.947,51.813L98.015,51.781L98.084,51.375L98.152,51.875L98.22,52.719L98.289,53.688L98.357,53L98.426,52.406L98.494,52.719L98.563,53.344L98.631,53.344L98.7,54.125L98.768,53.875L98.836,53.563L98.905,53.563L98.973,54.25L99.042,55.531L99.11,55.781L99.179,55.719L99.247,56.031L99.316,56.875L99.384,57.281L99.452,57.344L99.521,57.844L99.589,57.313L99.658,56.375L99.726,56.25L99.795,55.813L99.863,55.844L99.932,56.188L100,56.25L100.068,56.312L100.137,56.656L100.205,56.312L100.274,55.875L100.342,55.906L100.411,56.281L100.479,56.969L100.548,56.031L100.616,56.656L100.684,56.781L100.753,56.469L100.821,56.469L100.89,57.125L100.958,57.062L101.027,58L101.095,57.281L101.164,57.188L101.232,57.844L101.3,58.094L101.369,57.906L101.437,57.625L101.506,57.844L101.574,57.813L101.643,57.844L101.711,58.031L101.78,58.063L101.848,58.313L101.916,58.031L101.985,57.75L102.053,57.313L102.122,57.406L102.19,57.469L102.259,57.469L102.327,57.156L102.396,56.594L102.464,56.531L102.533,55.875L102.601,57.25L102.669,57.156L102.738,57.906L102.806,58.688L102.875,59.344L102.943,60.188L103.012,61.063L103.08,61.031L103.149,62.375L103.217,63.469L103.285,63.906L103.354,64.969L103.422,66.219L103.491,67.938L103.559,69.531L103.628,71.281L103.696,73L103.765,75.219L103.833,77.531L103.901,79.781L103.97,82.219L104.038,84.781L104.107,87.25L104.175,89.031L104.244,91.219L104.312,93.687L104.381,96.469L104.449,99.031L104.517,101.188L104.586,103.875L104.651,105.781L104.72,107.906L104.788,109.75L104.857,111.406L104.925,113.344L104.994,114.75L105.062,116.656L105.131,118.188L105.199,119.406L105.268,120.594L105.336,122.063L105.404,122.969L105.473,123.688L105.541,124.719L105.61,125.313L105.678,125.625L105.747,126.438L105.815,126.594L105.884,126.5L105.952,126.781L106.02,126.813L106.089,126.469L106.157,126.344L106.226,126.531L106.294,125.938L106.363,125.656L106.431,125.219L106.5,125.563L106.568,125.313L106.636,125.75L106.705,125.281L106.773,125.375L106.842,124.875L106.91,124.531L106.979,124.094L107.047,123.969L107.116,123.75L107.184,122.969L107.252,122L107.321,121.406L107.389,121.406L107.458,120.906L107.526,120.688L107.595,119.906L107.663,119.281L107.732,118.531L107.8,117.594L107.868,117.031L107.937,116.625L108.005,115.875L108.074,114.938L108.142,114.719L108.211,114.5L108.279,114.219L108.348,114.188L108.416,113.781L108.484,113.438L108.553,112.844L108.621,112.406L108.69,111.469L108.758,111.031L108.827,109.844L108.895,109.688L108.964,109.188L109.032,108.531L109.101,107.594L109.169,106.563L109.237,106.219L109.306,106L109.374,105.781L109.443,105.094L109.511,104.719L109.58,104.063L109.648,104L109.717,103.344L109.785,103.281L109.853,102.844L109.922,102.344L109.99,101.594L110.059,101.063L110.127,100.313L110.196,99.313L110.264,98.625L110.333,97.875L110.401,96.906L110.469,97.031L110.538,96.781L110.606,96.031L110.675,96.094L110.743,96.031L110.812,95.406L110.88,94.906L110.949,93.781L111.017,93.125L111.085,92.813L111.154,92.781L111.222,92.469L111.291,91.906L111.359,91.781L111.428,90.875L111.496,90.25L111.565,89.906L111.633,89.406L111.701,88.75L111.77,88.406L111.838,88.156L111.907,87.813L111.975,87.375L112.044,87.125L112.112,86.719L112.181,87.531L112.249,87.094L112.317,86.719L112.386,86.375L112.454,86.562L112.523,85.656L112.591,85.094L112.66,84.719L112.728,83.563L112.797,82.75L112.865,82.125L112.933,81.313L113.002,80.906L113.07,80.406L113.139,80.531L113.207,79.094L113.276,78.656L113.344,78.094L113.413,76.906L113.481,76.688L113.55,76.813L113.618,76.781L113.686,76.719L113.755,76.25L113.823,76.188L113.892,75.688L113.96,75.031L114.029,74.594L114.097,73.906L114.166,74.156L114.234,73.437L114.302,72.75L114.371,72.594L114.439,72.219L114.508,71.875L114.576,71.5L114.645,70.688L114.713,70.688L114.782,70.406L114.85,70.438L114.918,70.156L114.987,70.594L115.055,71.125L115.124,71.281L115.192,70.25L115.261,70.313L115.329,69.469L115.398,69.125L115.466,69.688L115.534,69.375L115.603,68.094L115.671,67.25L115.74,66.875L115.808,66.563L115.877,65.75L115.945,65.969L116.014,65.438L116.082,64.937L116.15,64.344L116.219,62.656L116.287,61.344L116.356,61.594L116.424,61.156L116.493,61.719L116.561,60.75L116.63,59.906L116.698,59.625L116.766,58.594L116.835,58.156L116.903,58.219L116.972,58.188L117.04,57.687L117.109,57.094L117.177,56.844L117.246,56.344L117.314,56.75L117.383,57.844L117.451,58.688L117.519,57.719L117.588,57.563L117.656,58.031L117.725,58.688L117.793,58.562L117.862,58.937L117.93,59.312L117.999,58.594L118.067,58.813L118.135,59.156L118.204,59.5L118.272,59.969L118.341,60.625L118.409,60.906L118.478,60.75L118.546,59.781L118.615,59.875L118.683,59.875L118.751,60.656L118.82,60.719L118.888,60.75L118.957,59.25L119.025,59.969L119.094,60.25L119.162,60.25L119.231,59.719L119.299,60.969L119.367,61.188L119.436,60.469L119.504,58.562L119.573,58.844L119.641,59.031L119.71,59.063L119.778,59.031L119.847,59.094L119.915,59.094L119.983,59.406L120.052,59.375L120.12,59.594L120.189,59.719L120.257,59.719L120.326,60.438L120.394,60.719L120.463,60.094L120.531,60.719L120.599,61.094L120.668,61.688L120.736,63.625L120.805,64.313L120.873,65L120.945,65.25L121.013,66.5L121.081,65.969L121.15,66L121.218,65.531L121.287,66.75L121.355,66.156L121.424,66.563L121.492,66.344L121.561,67.719L121.629,67.438L121.697,67.844L121.766,68.094L121.834,67.969L121.903,67.906L121.971,67.781L122.04,68.75L122.108,69.531L122.177,70.156L122.245,70.875L122.313,71.719L122.382,72.531L122.45,73.219L122.519,74.188L122.587,74.594L122.656,74.688L122.724,75.531L122.793,74.531L122.861,74.125L122.93,74.531L122.998,75L123.066,75.25L123.135,75.594L123.203,76.156L123.272,77.063L123.34,76.813L123.409,77.031L123.477,76.625L123.546,77.25L123.614,77.531L123.682,78.625L123.751,78.594L123.819,78.688L123.888,78.625L123.956,78.406L124.025,77.687L124.093,76.688L124.162,76.906L124.23,76.938L124.298,76.063L124.367,75.406L124.435,73.719L124.504,73.125L124.572,72.906L124.641,73.188L124.709,73.375L124.778,72.406L124.846,72.656L124.914,72.469L124.983,72.094L125.051,72.156L125.12,71.781L125.188,73.5L125.257,74.188L125.325,74.406L125.394,74.406L125.462,74.813L125.53,74.938L125.599,75.406L125.667,75.938L125.736,75.813L125.804,75.562L125.873,75.313L125.941,76L126.01,77L126.078,78.656L126.146,79.188L126.215,78.438L126.283,78.094L126.352,79.375L126.42,80.687L126.489,81.813L126.557,82.281L126.626,82.375L126.694,81.531L126.762,80.969L126.831,81.469L126.899,81.188L126.968,81.063L127.036,80.719L127.105,80.063L127.173,79.969L127.242,78.281L127.31,77.156L127.379,76.406L127.447,76.625L127.515,76.563L127.584,76.281L127.652,75.688L127.721,74.531L127.789,74L127.858,73.5L127.926,73.688L127.995,73.125L128.063,72.125L128.131,70.875L128.2,69.781L128.268,69.781L128.337,69.594L128.405,68.031L128.474,67.281L128.542,66.656L128.611,65.906L128.679,65.156L128.747,64.75L128.816,64.313L128.884,63.5L128.953,64.156L129.021,64.563L129.09,65.281L129.158,66.031L129.227,66.563L129.295,66.875L129.363,67.219L129.432,68.25L129.5,67.656L129.569,66.875L129.637,66.813L129.706,66.656L129.774,67.469L129.843,68.031L129.911,68.656L129.979,68.219L130.045,68L130.114,67.531L130.182,67.875L130.25,68.094L130.319,67.906L130.387,68.625L130.456,68.719L130.524,67.812L130.593,67.781L130.661,67.812L130.73,67.594L130.798,68.031L130.866,68.563L130.935,68.625L131.003,67.781L131.072,67.313L131.14,66.281L131.209,65.5L131.277,64.5L131.346,63.813L131.414,63.063L131.482,61.781L131.551,60.844L131.619,60.375L131.688,59.719L131.756,59.625L131.825,59.469L131.893,58.219L131.962,58.219L132.03,57.656L132.098,56.906L132.167,56.906L132.235,56.375L132.304,56.094L132.372,55.969L132.441,54.781L132.509,54.375L132.578,53.656L132.646,53.563L132.714,53.656L132.783,54L132.851,52.844L132.92,52.688L132.988,52.031L133.057,52.156L133.125,51.906L133.194,52.344L133.262,52.812L133.33,53.344L133.399,53.031L133.467,53.375L133.536,53.625L133.604,54.063L133.673,54.875L133.741,55L133.81,54.094L133.878,52.906L133.946,53.5L134.015,52.281L134.083,52.844L134.152,53.844L134.22,54.25L134.289,53.813L134.357,53.594L134.426,54.25L134.494,54.563L134.563,54.875L134.631,55.688L134.699,56.063L134.768,55.063L134.836,54.313L134.905,55.406L134.973,55.063L135.042,55.594L135.11,54.656L135.179,55.469L135.247,54.781L135.315,54.531L135.384,53.875L135.452,53.875L135.521,53.375L135.589,54.031L135.658,55.219L135.726,55.063L135.795,55.25L135.863,56L135.931,55.781L136,56.719L136.068,58.094L136.137,58.594L136.205,58.406L136.274,58.75L136.342,59.406L136.411,60.406L136.479,60L136.547,60.969L136.616,61.656L136.684,61.719L136.753,61.437L136.821,62.281L136.89,63.406L136.958,62.781L137.027,63.5L137.095,64.094L137.163,65.188L137.232,64.594L137.3,64.313L137.369,64.375L137.437,65.094L137.506,65.25L137.574,66.156L137.643,65.344L137.711,64.25L137.779,64.344L137.848,63.906L137.916,64.344L137.985,65.031L138.053,64.625L138.122,64.469L138.19,64.25L138.259,63.656L138.327,63.031L138.396,62.938L138.464,62.75L138.532,63.063L138.601,61.125L138.669,60.813L138.738,61.437L138.806,61.406L138.875,61.531L138.943,61.281L139.012,62.25L139.08,62.063L139.148,61.688L139.217,61.594L139.285,60.5L139.354,60.938L139.422,60.844L139.491,60.281L139.559,60.25L139.628,59.125L139.696,59.188L139.764,59.781L139.833,58.875L139.901,59.875L139.97,60.094L140.038,60.656L140.107,60.656L140.175,60.375L140.244,60.031L140.312,59.656L140.38,59.906L140.449,59.812L140.517,57.813L140.586,57.25L140.654,58.375L140.723,57.781L140.791,56.219L140.86,55.219L140.928,54.656L140.996,53.5L141.065,51.594L141.133,51.031L141.202,49.937L141.27,49.094L141.339,50.188L141.407,50.313L141.476,49.594L141.544,49.844L141.612,49.094L141.681,48.312L141.749,47.281L141.818,46.344L141.886,47.25L141.955,45.656L142.023,44.375L142.092,43.313L142.16,42.281L142.228,41.219L142.297,41.125L142.365,42.469L142.434,42.25L142.502,41.781L142.571,42.906L142.639,42.469L142.708,41.156L142.776,41.438L142.845,42.469L142.913,42.938L142.981,42.594L143.05,42.438L143.118,42.75L143.187,42.031L143.255,43.25L143.324,43.531L143.392,42.719L143.461,41.875L143.529,40.906L143.597,40.75L143.666,41.469L143.734,42.031L143.803,43.375L143.871,42.938L143.94,41.812L144.008,42.375L144.077,42.969L144.145,43.063L144.213,43.219L144.282,43.688L144.35,42.781L144.419,41.188L144.487,40.375L144.556,40.813L144.624,40.469L144.693,41.406L144.761,41.906L144.829,41.281L144.898,39.969L144.966,39.594L145.035,39.75L145.103,40.344L145.172,41.156L145.24,42.156L145.309,40.813L145.377,40.844L145.445,40.688L145.514,41.719L145.582,43.688L145.651,44.156L145.719,43.875L145.788,44.062L145.856,43.344L145.925,42.813L145.993,43.281L146.061,42.281L146.13,42.156L146.198,42.125L146.267,41.844L146.338,41.031L146.407,41.438L146.475,40.906L146.543,41L146.612,40.187L146.68,40.844L146.749,38.906L146.817,38.188L146.886,37.188L146.954,37.469L147.023,37.938L147.091,38.469L147.159,38.937L147.228,38.406L147.296,38.281L147.365,39.094L147.433,38.719L147.502,39.844L147.57,40.688L147.639,40.938L147.707,40.938L147.775,41.531L147.844,42.219L147.912,43.187L147.981,45.094L148.049,46.031L148.118,48.125L148.186,48.188L148.255,48.844L148.323,49.781L148.392,51.438L148.46,53.094L148.528,55.406L148.597,57.375L148.665,59.312L148.734,59.75L148.802,61.375L148.871,62.563L148.939,63.75L149.008,65.25L149.076,66.75L149.144,67.281L149.213,68.031L149.281,68.594L149.35,69.063L149.418,69.594L149.487,70.688L149.555,70.344L149.624,68.938L149.692,68.281L149.76,67.406L149.829,66.594L149.897,65.594L149.966,67.25L150.034,67.656L150.103,67.188L150.171,66.344L150.24,66.375L150.308,66.438L150.376,65.563L150.445,65.781L150.513,64.813L150.582,63.844L150.65,61.813L150.719,60.562L150.787,59.406L150.856,58.813L150.924,59.156L150.992,59.656L151.061,59.25L151.129,57.313L151.198,56.344L151.266,55.219L151.335,54.031L151.403,53.875L151.472,54.094L151.54,52.906L151.608,52.469L151.677,53.469L151.745,53.906L151.814,55.406L151.882,55.75L151.951,57.344L152.019,54.656L152.088,53.406L152.156,52.562L152.225,52.812L152.293,51.969L152.361,52.313L152.43,53.344L152.498,52.531L152.567,52.562L152.635,52.75L152.704,53.375L152.772,53.375L152.841,54.125L152.909,54.594L152.977,54.313L153.046,54.187L153.114,53.344L153.183,53.156L153.251,53.156L153.32,53.531L153.388,54.937L153.457,54.563L153.525,53.5L153.593,53.719L153.662,53.781L153.73,52.656L153.799,51.906L153.867,50.563L153.936,50.313L154.004,49.094L154.073,48.969L154.141,49.125L154.209,49.562L154.278,48.781L154.346,50.156L154.415,49.438L154.483,48.813L154.552,48.031L154.62,48L154.689,47.719L154.757,48.312L154.825,48.469L154.894,47.687L154.96,47.437L155.028,46.844L155.096,47.406L155.165,48.156L155.233,49.813L155.302,50.813L155.37,51.094L155.439,51.031L155.507,51.187L155.576,51.25L155.644,52L155.712,51.781L155.781,52.906L155.849,53.219L155.918,53.031L155.986,53.125L156.055,52.75L156.123,53.437L156.192,53.031L156.26,53.406L156.328,53.719L156.397,52.469L156.465,53.063L156.534,52.781L156.602,53.281L156.671,53.5L156.739,53.469L156.808,53.344L156.876,53.344L156.944,53.125L157.013,52.719L157.081,52.313L157.15,52.031L157.218,52.438L157.287,50.969L157.355,49.844L157.424,49.25L157.492,47.75L157.56,47.437L157.629,47.969L157.697,47.469L157.766,47.156L157.834,46.094L157.903,45.5L157.971,45.875L158.04,46.187L158.108,46.75L158.176,47.406L158.245,48.281L158.313,47.594L158.382,47.062L158.45,47.469L158.519,46.313L158.587,46.719L158.656,46.875L158.724,45.969L158.792,45.094L158.861,43.937L158.929,43.75L158.998,44.375L159.066,44.625L159.135,45.25L159.203,44.625L159.272,42.969L159.34,43.5L159.409,43.469L159.477,43.094L159.545,43.531L159.614,44.125L159.682,43.563L159.751,43.563L159.819,42.938L159.888,42.281L159.956,42.094L160.025,41.625L160.093,41.469L160.161,40.906L160.23,40.25L160.298,39.75L160.367,40.187L160.435,41.25L160.504,42.344L160.572,44.031L160.641,44.75L160.709,44.313L160.777,44.531L160.846,45.094L160.914,45.344L160.983,46.031L161.051,46.719L161.12,46.594L161.188,47.406L161.257,47.344L161.325,48.125L161.393,47.656L161.462,48.563L161.53,48.906L161.599,49.656L161.667,49.438L161.736,50.25L161.804,50.625L161.873,52.062L161.941,53.281L162.009,54.563L162.078,54.969L162.146,54.656L162.215,55.281L162.283,54.625L162.352,55L162.42,55.313L162.489,54.969L162.557,54.469L162.625,53.344L162.694,51.969L162.762,52.5L162.831,53.563L162.899,53.625L162.968,55.094L163.036,54.906L163.105,54.187L163.173,55L163.242,54.531L163.31,55.375L163.378,56.063L163.447,57.313L163.515,57.406L163.584,58.281L163.652,58.625L163.721,58.813L163.789,57.938L163.858,57.969L163.926,57.938L163.994,57.75L164.063,56.844L164.131,57.656L164.2,58.594L164.268,59.312L164.337,60L164.405,60.469L164.474,60.219L164.542,60L164.61,59.594L164.679,59.688L164.747,60.625L164.816,61.219L164.884,61.125L164.953,61.219L165.021,60.156L165.09,59.438L165.158,58.937L165.226,57.719L165.295,58.031L165.363,57.75L165.432,56.406L165.5,54.719L165.569,53.375L165.637,51.594L165.706,51.094L165.774,50.75L165.842,51L165.911,49.344L165.979,48.719L166.048,48.063L166.116,47.719L166.185,46L166.253,45.344L166.322,44.188L166.39,43.813L166.458,43.25L166.527,42.687L166.595,42.5L166.664,42.219L166.732,42.313L166.801,42.313L166.869,41.531L166.938,40.594L167.006,40.313L167.074,40.156L167.143,40.313L167.211,41.937L167.28,43L167.348,43.125L167.417,43.063L167.485,43.125L167.554,43.875L167.622,43.937L167.691,44.906L167.759,45.344L167.827,45.188L167.896,44.812L167.964,45.156L168.033,45.594L168.101,45.906L168.17,47.25L168.238,48.563L168.307,48L168.375,47.969L168.443,47.313L168.512,46.875L168.58,46.969L168.649,47.188L168.717,47.344L168.786,47.031L168.854,46.406L168.923,46.406L168.991,46.375L169.059,46.406L169.128,46.688L169.196,46.187L169.265,44.75L169.333,44.625L169.402,44.313L169.47,44L169.539,45.469L169.607,45.094L169.675,45.5L169.744,45L169.812,43.906L169.881,44.031L169.949,44.25L170.018,44.969L170.086,45.156L170.155,45.344L170.223,44.375L170.291,43.969L170.36,44.188L170.428,44.438L170.497,45.719L170.565,46.438L170.634,47L170.702,46.875L170.771,45.938L170.839,45.781L170.907,46.125L170.976,46.094L171.044,46.156L171.113,46.438L171.181,46.313L171.253,46.5L171.321,46.937L171.389,46.844L171.458,46.75L171.526,46.25L171.595,45.406L171.663,45.531L171.732,44.875L171.8,44.906L171.869,45.844L171.937,45.75L172.005,45.688L172.074,45.781L172.142,45.188L172.211,44.438L172.279,43.844L172.348,43.563L172.416,43.469L172.485,44.313L172.553,44.406L172.621,44.313L172.69,43.813L172.758,44.719L172.827,45.844L172.895,46.563L172.964,46.25L173.032,46.281L173.101,47L173.169,46.844L173.238,46.813L173.306,46.844L173.374,47.25L173.443,47.125L173.511,47L173.58,46.688L173.648,46.5L173.717,47.094L173.785,47.781L173.854,48.594L173.922,48.438L173.99,49.094L174.059,50.094L174.127,49.906L174.196,50.688L174.264,51.531L174.333,52.188L174.401,52.906L174.47,53.969L174.538,53.437L174.606,52.344L174.675,51.5L174.743,50.094L174.812,50.063L174.88,49.531L174.949,48.906L175.017,48.375L175.086,47.687L175.154,46.906L175.222,47.219L175.291,47.188L175.359,48.063L175.428,47.5L175.496,46.937L175.565,47.219L175.633,47.594L175.702,47.906L175.77,46.844L175.838,46.563L175.907,46.469L175.975,46.187L176.044,44.844L176.112,43.906L176.181,44.375L176.249,43.656L176.318,43.406L176.386,43.937L176.454,43.656L176.523,43.031L176.591,43.219L176.66,44.594L176.728,44.812L176.797,47.188L176.865,47.563L176.934,47.906L177.002,48.813L177.07,49.281L177.139,49.844L177.207,49.531L177.276,49.937L177.344,50.063L177.413,48.594L177.481,48.906L177.55,48.75L177.618,47.719L177.687,48.063L177.755,48.531L177.823,49.219L177.892,49.156L177.96,47.844L178.029,47.469L178.097,47.375L178.166,47.375L178.234,46.719L178.303,47.656L178.371,46.813L178.439,45.375L178.508,44.438L178.576,42.969L178.645,41.812L178.713,40.281L178.782,39.719L178.85,37.687L178.919,36.531L178.987,36.594L179.055,34.531L179.124,33.469L179.192,33.344L179.261,33.469L179.329,32.719L179.398,31.438L179.466,31.875L179.535,32.406L179.603,33.094L179.671,33.625L179.74,33.406L179.808,32.5L179.874,32.875L179.942,33.438L180.011,35L180.079,35.375L180.148,36.156L180.216,36.375L180.285,36.25L180.353,34.562L180.422,35.375L180.49,35.969L180.558,36.281L180.627,37.813L180.695,39.219L180.764,38.875L180.832,39.219L180.901,39.563L180.969,39.344L181.038,38.469L181.106,39.656L181.174,40.5L181.243,40.438L181.311,40.063L181.38,39.875L181.448,40.719L181.517,40.281L181.585,39.344L181.654,39.156L181.722,38.656L181.79,38.25L181.859,38.781L181.927,38.75L181.996,38.156L182.064,37.469L182.133,37.531L182.201,36.594L182.27,36.094L182.338,35.594L182.406,35.906L182.475,35.875L182.543,35.844L182.612,35.75L182.68,34.875L182.749,33.281L182.817,32.781L182.886,32.562L182.954,33.375L183.022,33.531L183.091,35.094L183.159,35.875L183.228,35.125L183.296,35.094L183.365,34.969L183.433,34.281L183.502,35.25L183.57,36.406L183.638,36.375L183.707,35.313L183.775,35.594L183.844,36.469L183.912,35.937L183.981,35.531L184.049,35.625L184.118,35.031L184.186,34.031L184.255,33.969L184.323,33.75L184.391,33.938L184.46,34.469L184.528,34.906L184.597,34.781L184.665,34.062L184.734,33.812L184.802,33.75L184.871,35.094L184.939,35.313L185.007,35L185.076,33.812L185.144,32.25L185.213,31.125L185.281,31.344L185.35,32.219L185.418,34.062L185.487,34.781L185.555,33.844L185.623,34.375L185.692,34.156L185.76,35.406L185.829,35.219L185.897,35.281L185.966,36.156L186.034,35.281L186.103,34.813L186.171,35.188L186.239,35.688L186.308,35.906L186.376,36.25L186.445,37.719L186.513,37.5L186.582,36.5L186.65,36.406L186.719,37.938L186.787,38.156L186.855,38.937L186.924,38.5L186.992,38.219L187.061,37.5L187.129,38.094L187.198,38.781L187.266,38.906L187.335,39.781L187.403,39.281L187.471,37.781L187.54,36.75L187.608,37.406L187.677,36.563L187.745,36.5L187.814,35.781L187.882,36.156L187.951,34.969L188.019,33.75L188.087,34.969L188.156,35.813L188.224,36.219L188.293,36.187L188.361,37.156L188.43,36.469L188.498,35.031L188.567,33.938L188.635,33.75L188.704,34.625L188.772,34.438L188.84,34.844L188.909,34.875L188.977,35.031L189.046,35.813L189.114,36.688L189.183,37.188L189.251,37.344L189.32,37.125L189.388,36.844L189.456,36.688L189.525,36.344L189.593,37.219L189.662,35.813L189.73,34.406L189.799,34.219L189.867,34.219L189.936,33.031L190.004,32.719L190.072,32.594L190.141,30.437L190.209,29.813L190.278,28.781L190.346,28L190.415,26.156L190.483,25.906L190.552,25.719L190.62,25.656L190.688,26.031L190.757,25.125L190.825,23.094L190.894,21.719L190.962,20.594L191.031,19.25L191.099,18L191.168,18.406L191.236,18.844L191.304,18.812L191.373,18.313L191.441,17.844L191.51,17.656L191.578,19L191.647,19.125L191.715,19.938L191.784,19.969L191.852,19.938L191.92,19.563L191.989,19.813L192.057,20.031L192.126,20.875L192.194,23.187L192.263,22.75L192.331,23.062L192.4,23.438L192.468,24.344L192.537,24.562L192.605,25.844L192.673,27.781L192.742,26.688L192.81,25.813L192.879,26.094L192.947,26.187L193.016,26.031L193.084,27.063L193.153,27.719L193.221,25.937L193.289,25.094L193.358,23.719L193.426,23.531L193.495,22.031L193.563,21.969L193.632,20.875L193.7,19.531L193.769,18.812L193.837,19L193.905,18.531L193.974,17.875L194.042,18.188L194.111,18.25L194.179,17.437L194.248,16.5L194.316,17L194.385,15.937L194.453,16.406L194.521,16.625L194.59,17.031L194.658,15.344L194.727,14.469L194.795,14.844L194.864,14.844L194.932,15.469L195.001,16.594L195.069,17.313L195.137,15.563L195.206,14.25L195.274,13.812L195.343,13.844L195.411,15.313L195.48,16.719L195.548,18.688L195.617,17.219L195.685,16.938L195.753,17.562L195.822,17.75L195.89,18.844L195.959,18.531L196.027,19.031L196.096,18.5L196.167,18.688L196.235,18.313L196.304,16.969L196.372,16.438L196.441,17.813L196.509,17.875L196.578,17.469L196.646,16.812L196.715,15.75L196.783,15.187L196.851,15.219L196.92,14.656L196.988,14.75L197.057,13.875L197.125,12.438L197.194,13.063L197.262,13.656L197.331,14.406L197.399,14.375L197.467,14.125L197.536,14.125L197.604,13.969L197.673,15.719L197.741,16.125L197.81,16.188L197.878,16.094L197.947,15.344L198.015,16.531L198.084,17.25L198.152,17.25L198.22,16.656L198.289,16.406L198.357,17.844L198.426,18.625L198.494,18.188L198.563,18L198.631,17.844L198.7,17.531L198.768,18.625L198.836,19.063L198.905,19.406L198.973,20.469L199.042,21.469L199.11,22L199.179,22.969L199.247,23.688L199.316,25.625L199.384,26.844L199.452,26.844L199.521,26.031L199.589,25.406L199.658,24.375L199.726,24L199.795,23.656L199.863,24.062L199.932,24.062L200,22.938L200.068,22.281L200.137,21.5L200.205,21.781L200.274,21.781L200.342,23L200.411,22L200.479,21.25L200.548,21.219L200.616,20.281L200.684,20.688L200.753,22.125L200.821,22.781L200.89,21.687L200.958,23.406L201.027,24.906L201.095,24.375L201.164,24.437L201.232,25.781L201.3,26.531L201.369,25.312L201.437,25.375L201.506,25.656L201.574,26.375L201.643,25.906L201.711,27.281L201.78,27.812L201.848,27.344L201.916,26.656L201.985,26.156L202.053,27.469L202.122,28.344L202.19,29.375L202.259,30.125L202.327,34.813" stroke="#4c78a8" stroke-width="2"/></g><g class="mark-group role-title"><g transform="translate(100,-17)"><path class="background" aria-hidden="true" d="M0,0h0v0h0Z" pointer-events="none"/><g><g class="mark-text role-title-text" role="graphics-symbol" aria-roledescription="title" aria-label="Title text 'Blocked Driveway: Partial Access'" pointer-events="none"><text text-anchor="middle" transform="translate(0,10)" font-family="sans-serif" font-size="13px" font-weight="bold" fill="#000" opacity="1">Blocked Driveway: Partial Access</text></g></g><path class="foreground" aria-hidden="true" d="" pointer-events="none" display="none"/></g></g></g><path class="foreground" aria-hidden="true" d="" display="none"/></g></g></g><defs><clipPath id="clip126"><rect x="0" y="0" width="200" height="150"/></clipPath></defs></svg>