<svg xmlns="http://www.w3.org/2000/svg" xmlns:xlink="http://www.w3.org/1999/xlink" version="1.1" class="marks" width="264" height="199" viewBox="0 0 264 199"><rect width="264" height="199" fill="white"/><g fill="none" stroke-miterlimit="10" transform="translate(32,27)"><g class="mark-group role-frame root" role="graphics-object" aria-roledescription="group mark container"><g transform="translate(0,0)"><path class="background" aria-hidden="true" d="M0,0h200v150h-200Z"/><g><g class="mark-group role-axis" aria-hidden="true"><g transform="translate(0.5,0.5)"><path class="background" aria-hidden="true" d="M0,0h0v0h0Z" pointer-events="none"/><g><g class="mark-rule role-axis-grid" pointer-events="none"><line transform="translate(0,150)" x2="200" y2="0" stroke="#ddd" stroke-width="1" opacity="1"/><line transform="translate(0,113)" x2="200" y2="0" stroke="#ddd" stroke-width="1" opacity="1"/><line transform="translate(0,75)" x2="200" y2="0" stroke="#ddd" stroke-width="1" opacity="1"/><line transform="translate(0,38)" x2="200" y2="0" stroke="#ddd" stroke-width="1" opacity="1"/><line transform="translate(0,0)" x2="200" y2="0" stroke="#ddd" stroke-width="1" opacity="1"/></g></g><path class="foreground" aria-hidden="true" d="" pointer-events="none" display="none"/></g></g><g class="mark-group role-axis" role="graphics-symbol" aria-roledescription="axis" aria-label="X-axis for a time scale with values from Friday, 01 January 2016, 12:00:00 AM to Monday, 01 January 2024, 12:00:00 AM"><g transform="translate(0.5,150.5)"><path class="background" aria-hidden="true" d="M0,0h0v0h0Z" pointer-events="none"/><g><g class="mark-rule role-axis-tick" pointer-events="none"><line transform="translate(0,0)" x2="0" y2="5" stroke="#888" stroke-width="1" opacity="1"/><line transform="translate(50,0)" x2="0" y2="5" stroke="#888" stroke-width="1" opacity="1"/><line transform="translate(100,0)" x2="0" y2="5" stroke="#888" stroke-width="1" opacity="1"/><line transform="translate(150,0)" x2="0" y2="5" stroke="#888" stroke-width="1" opacity="1"/><line transform="translate(200,0)" x2="0" y2="5" stroke="#888" stroke-width="1" opacity="1"/></g><g class="mark-text role-axis-label" pointer-events="none"><text text-anchor="start" transform="translate(0,15)" font-family="sans-serif" font-size="10px" fill="#000" opacity="1">2016</text><text text-anchor="middle" transform="translate(50.03422313483915,15)" font-family="sans-serif" font-size="10px" fill="#000" opacity="1">2018</text><text text-anchor="middle" transform="translate(100,15)" font-family="sans-serif" font-size="10px" fill="#000" opacity="1">2020</text><text text-anchor="middle" transform="translate(150.03422313483915,15)" font-family="sans-serif" font-size="10px" fill="#000" opacity="1">2022</text><text text-anchor="end" transform="translate(200,15)" font-family="sans-serif" font-size="10px" fill="#000" opacity="1">2024</text></g><g class="mark-rule role-axis-domain" pointer-events="none"><line transform="translate(0,0)" x2="200" y2="0" stroke="#888" stroke-width="1" opacity="1"/></g></g><path class="foreground" aria-hidden="true" d="" pointer-events="none" display="none"/></g></g><g class="mark-group role-axis" role="graphics-symbol" aria-roledescription="axis" aria-label="Y-axis for a linear scale with values from 0 to 20"><g transform="translate(0.5,0.5)"><path class="background" aria-hidden="true" d="M0,0h0v0h0Z" pointer-events="none"/><g><g class="mark-rule role-axis-tick" pointer-events="none"><line transform="translate(0,150)" x2="-5" y2="0" stroke="#888" stroke-opacity="0" stroke-width="1" opacity="1"/><line transform="translate(0,113)" x2="-5" y2="0" stroke="#888" stroke-opacity="0" stroke-width="1" opacity="1"/><line transform="translate(0,75)" x2="-5" y2="0" stroke="#888" stroke-opacity="0" stroke-width="1" opacity="1"/><line transform="translate(0,38)" x2="-5" y2="0" stroke="#888" stroke-opacity="0" stroke-width="1" opacity="1"/><line transform="translate(0,0)" x2="-5" y2="0" stroke="#888" stroke-opacity="0" stroke-width="1" opacity="1"/></g><g class="mark-text role-axis-label" pointer-events="none"><text text-anchor="end" transform="translate(-7,153)" font-family="sans-serif" font-size="10px" fill="#000" opacity="1">0</text><text text-anchor="end" transform="translate(-7,115.5)" font-family="sans-serif" font-size="10px" fill="#000" opacity="1">5</text><text text-anchor="end" transform="translate(-7,78)" font-family="sans-serif" font-size="10px" fill="#000" opacity="1">10</text><text text-anchor="end" transform="translate(-7,40.5)" font-family="sans-serif" font-size="10px" fill="#000" opacity="1">15</text><text text-anchor="end" transform="translate(-7,3)" font-family="sans-serif" font-size="10px" fill="#000" opacity="1">20</text></g></g><path class="foreground" aria-hidden="true" d="" pointer-events="none" display="none"/></g></g><g class="mark-line role-mark marks" clip-path="url(#clip144)" role="graphics-object" aria-roledescription="line mark container"><path aria-label="day: Jan 02, 2010; avg: 4.5" role="graphics-symbol" aria-roledescription="line mark" d="M-149.897,116.25L-149.76,115.5L-149.692,116L-149.624,117.25L-149.555,116.25L-149.487,117L-149.418,115.75L-149.35,115.5L-149.281,115.25L-149.213,116.75L-149.144,117.75L-149.076,117.25L-149.008,117.75L-148.939,117.75L-148.802,117.5L-148.734,118L-148.665,117.25L-148.597,118L-148.528,117.75L-148.46,118.25L-148.392,117.75L-148.323,117.75L-148.255,118.25L-148.186,118.75L-148.118,119.75L-148.049,121L-147.844,120.25L-147.775,120.25L-147.707,120.75L-147.639,121.75L-147.57,123.75L-147.502,124.25L-147.365,122.75L-147.296,122L-147.228,123.25L-147.159,121L-147.091,121L-147.023,120.75L-146.954,119.75L-146.886,118.25L-146.817,118L-146.749,117.75L-146.68,118L-146.612,118.25L-146.543,117.75L-146.407,116.75L-146.338,118L-146.27,118.75L-146.201,119.25L-146.064,118.75L-145.996,118.75L-145.927,118.25L-145.859,118L-145.791,116.75L-145.722,117.25L-145.654,117.5L-145.585,117.75L-145.517,117.75L-145.448,118L-145.38,118.25L-145.311,117.5L-145.243,117.5L-145.175,118.5L-145.106,118.25L-144.972,117.5L-144.904,119.25L-144.835,119.5L-144.767,118L-144.698,119L-144.561,120L-144.493,117.5L-144.424,118.75L-144.356,118.75L-144.288,117L-144.219,118.25L-144.151,118.25L-144.082,117.25L-144.014,117.25L-143.877,117L-143.808,116.75L-143.74,116.25L-143.672,115.75L-143.535,113.5L-143.466,114.25L-143.398,114.5L-143.329,114L-143.261,113.75L-143.192,111.75L-143.124,109.75L-143.056,108.25L-142.987,109.5L-142.919,109.75L-142.85,109.5L-142.782,109L-142.713,108.5L-142.576,108L-142.508,107.25L-142.44,108.5L-142.371,108.75L-142.303,108.25L-142.166,110.5L-142.097,108.75L-142.029,107.25L-141.96,107L-141.892,107.25L-141.824,108.5L-141.755,108L-141.618,106.75L-141.55,106.25L-141.481,107L-141.413,108L-141.344,108.5L-141.276,108.75L-141.208,108.75L-141.139,107.75L-141.071,107L-141.002,107.25L-140.934,109L-140.865,110.75L-140.797,110.5L-140.728,109.25L-140.66,108.75L-140.591,108.5L-140.523,108.25L-140.455,109L-140.386,110L-140.318,111.25L-140.249,111.75L-140.181,110.5L-140.112,110.75L-140.044,111.25L-139.975,112.25L-139.907,115L-139.839,113.75L-139.77,112L-139.633,111.25L-139.565,111.5L-139.496,111.5L-139.428,112.25L-139.359,113L-139.291,112L-139.223,110.75L-139.154,111.75L-139.086,110.75L-139.017,111.75L-138.949,114L-138.88,114.25L-138.812,113.5L-138.743,113.25L-138.675,113.75L-138.607,112.75L-138.538,113L-138.47,113.5L-138.401,114.25L-138.333,113.75L-138.264,113L-138.196,111.5L-138.127,111.5L-138.059,112.5L-137.991,113.5L-137.922,112.75L-137.854,112L-137.785,109.5L-137.717,110.5L-137.648,110L-137.58,110.5L-137.511,111.25L-137.375,112.25L-137.306,111L-137.238,110L-137.169,110.5L-137.101,111L-137.032,111.5L-136.964,112.25L-136.895,111.5L-136.827,109.75L-136.758,109L-136.69,109.5L-136.622,110L-136.553,111L-136.485,111.5L-136.416,110.5L-136.348,109.25L-136.279,107.75L-136.211,108.75L-136.142,108.75L-136.074,110.75L-136.006,111L-135.937,111L-135.869,109.75L-135.8,110.5L-135.732,110L-135.663,111.75L-135.595,112.75L-135.526,113.75L-135.458,113.75L-135.39,114.25L-135.321,112.25L-135.253,113.5L-135.184,112.5L-135.116,112.25L-135.047,113.5L-134.91,114L-134.842,115.25L-134.774,114.25L-134.705,114.25L-134.637,115L-134.568,115.75L-134.431,115.25L-134.363,113.5L-134.294,113.75L-134.226,114.5L-134.158,114.5L-134.089,114.75L-133.952,114.5L-133.884,114.5L-133.815,112.75L-133.747,111.75L-133.678,111.25L-133.542,112L-133.473,111.75L-133.405,113.75L-133.268,113.5L-133.199,113.5L-133.131,114.25L-132.994,112.75L-132.926,111.75L-132.857,114L-132.789,113.5L-132.72,115.25L-132.652,114L-132.515,113L-132.446,113.25L-132.378,112.25L-132.309,113.25L-132.241,112L-132.173,111.5L-132.104,109.75L-132.036,109.25L-131.967,111.5L-131.899,112L-131.83,111.5L-131.762,111.75L-131.693,112L-131.557,110.75L-131.488,111L-131.42,112.75L-131.351,112.75L-131.283,113L-131.214,112L-131.146,110.25L-131.077,108.5L-131.009,109.25L-130.941,111L-130.872,110.75L-130.804,111L-130.598,110.25L-130.53,109.75L-130.461,107.75L-130.393,108L-130.325,109.75L-130.256,108.75L-130.119,107.5L-130.051,107.75L-129.982,107.25L-129.914,108.5L-129.845,109.5L-129.777,111.25L-129.709,110.75L-129.64,108.75L-129.572,109.25L-129.503,109.75L-129.435,110.75L-129.366,111.5L-129.298,111.75L-129.229,110.25L-129.161,109.25L-129.093,110.5L-129.024,110L-128.956,108.75L-128.887,109.75L-128.819,110.75L-128.75,109.5L-128.679,109.5L-128.611,110.25L-128.542,111.25L-128.474,112.5L-128.405,112L-128.337,114.75L-128.268,114.5L-128.2,114.75L-128.131,115.75L-128.063,115.75L-127.995,115.75L-127.926,117L-127.858,118.75L-127.789,117L-127.721,113L-127.652,114L-127.584,115L-127.447,115.25L-127.242,115.75L-127.173,115.25L-127.105,116.25L-127.036,117.25L-126.968,119L-126.899,120L-126.762,119.5L-126.694,120.5L-126.626,123.25L-126.557,123.25L-126.489,123.75L-126.42,125L-126.352,123.75L-126.283,123L-126.215,121.5L-126.078,121.25L-126.01,122.25L-125.941,122.25L-125.873,122L-125.804,121.5L-125.736,122.5L-125.667,123.5L-125.599,123.5L-125.53,123.5L-125.325,122.75L-125.257,124.5L-125.188,128.25L-125.12,128L-124.914,128L-124.846,126.75L-124.778,124.5L-124.709,125L-124.641,124L-124.572,123L-124.504,123.25L-124.367,123L-124.298,122.5L-124.162,122.5L-124.093,122L-124.025,121.25L-123.888,121.5L-123.819,121.25L-123.751,121.75L-123.682,122.25L-123.614,123.75L-123.546,124.25L-123.409,124L-123.34,123.25L-123.272,123.5L-123.203,122.5L-123.135,121.5L-123.066,119.75L-122.998,120L-122.93,119.5L-122.861,118L-122.793,117.25L-122.724,117L-122.656,116.75L-122.45,117.25L-122.382,117.25L-122.313,117.5L-122.245,116.5L-122.177,115.25L-122.04,115.25L-121.971,114L-121.903,113L-121.834,113.75L-121.766,113.5L-121.697,113.5L-121.629,114.75L-121.424,114.5L-121.355,113.5L-121.287,113.25L-121.218,112.5L-121.15,111.75L-121.081,109.75L-121.013,109.5L-120.945,109L-120.876,107.5L-120.808,107.75L-120.739,106.75L-120.671,106.75L-120.534,107L-120.465,107.5L-120.397,109L-120.329,108.5L-120.26,108.25L-120.192,108.5L-120.058,108.25L-119.989,108.5L-119.921,110.5L-119.852,111.25L-119.784,112.5L-119.578,112.75L-119.51,113.25L-119.442,112.25L-119.373,109.75L-119.305,108.75L-119.236,107.5L-119.168,107.75L-119.099,107.25L-119.031,107.75L-118.962,108.25L-118.894,107.5L-118.826,107.25L-118.757,109.5L-118.62,110L-118.552,110.75L-118.483,110.25L-118.415,109.5L-118.346,111L-118.278,111.25L-118.21,111.5L-118.141,111.25L-118.073,110L-118.004,110.5L-117.936,110.75L-117.867,109L-117.662,109.25L-117.594,109.75L-117.525,107.75L-117.457,107.25L-117.388,108L-117.183,108L-117.114,108.5L-117.046,110L-116.978,112L-116.909,113L-116.841,112.5L-116.704,112.75L-116.635,113.25L-116.567,111.75L-116.498,111.5L-116.43,111.5L-116.362,111.25L-116.293,110.5L-116.225,108.5L-116.156,107.75L-116.088,107.5L-116.019,109L-115.951,108.75L-115.882,110.5L-115.745,110.5L-115.677,110.25L-115.609,111L-115.54,111.5L-115.472,111.25L-115.335,112.25L-115.266,112.5L-115.198,113L-115.129,113.5L-115.061,113.25L-114.993,112.5L-114.787,112.5L-114.719,112.25L-114.65,113L-114.582,113.75L-114.513,113L-114.445,114.5L-114.308,113.5L-114.24,112.5L-114.171,113.75L-114.103,114.25L-114.034,114.75L-113.897,116L-113.829,116L-113.761,117.5L-113.692,116.5L-113.624,118.25L-113.555,118.5L-113.487,118.5L-113.418,116.25L-113.35,115.25L-113.281,114.5L-113.213,113.25L-113.145,113L-113.076,113.25L-113.008,114L-112.939,113L-112.871,111.5L-112.802,111.5L-112.734,113.25L-112.665,114.25L-112.597,114L-112.529,114L-112.392,112.75L-112.323,111.25L-112.255,111L-112.186,111.5L-112.118,112.5L-112.049,113L-111.981,114.25L-111.913,114.25L-111.844,114.25L-111.776,114.75L-111.707,115.5L-111.639,114.5L-111.57,116.25L-111.502,116L-111.433,114.75L-111.365,113.5L-111.296,115.5L-111.228,115.75L-111.16,115.5L-111.091,116.25L-110.954,116L-110.886,115L-110.817,115L-110.749,116.25L-110.68,118L-110.612,118.5L-110.544,117.75L-110.475,117.75L-110.407,118.5L-110.338,118.75L-110.27,120.25L-110.201,121.5L-110.133,122L-110.064,122.25L-109.996,120L-109.928,120.5L-109.859,120.25L-109.791,119.75L-109.722,119L-109.654,119L-109.517,117.5L-109.448,118.25L-109.38,118.75L-109.312,119.5L-109.243,119.5L-109.175,121.25L-109.038,120.5L-108.969,120.25L-108.901,120.75L-108.832,122.25L-108.764,122.75L-108.696,121.5L-108.627,121L-108.559,120L-108.49,118.5L-108.422,119.25L-108.353,120L-108.285,119L-108.216,117.75L-108.148,117.5L-108.011,114.75L-107.943,114.5L-107.874,115.25L-107.806,115.25L-107.737,117.25L-107.669,114.75L-107.6,112.25L-107.532,111.5L-107.463,113L-107.395,113L-107.327,112.75L-107.258,112.5L-107.19,111.5L-107.121,110.5L-107.053,111.5L-106.984,111.5L-106.916,112.5L-106.847,112.75L-106.779,111L-106.711,109.75L-106.642,108.5L-106.574,110.5L-106.505,111.25L-106.368,112.25L-106.3,113.75L-106.231,111.75L-106.163,111.25L-106.095,111.75L-106.026,112.75L-105.958,112.75L-105.889,115.25L-105.821,114.25L-105.684,114L-105.615,112.75L-105.547,110.5L-105.479,112.5L-105.41,115L-105.342,115.25L-105.273,114.75L-105.205,113.5L-105.136,113.5L-105.068,113.5L-104.999,114.25L-104.931,114.75L-104.863,113.75L-104.794,114L-104.726,114L-104.657,113.75L-104.589,116L-104.52,115.75L-104.452,116.5L-104.383,115.5L-104.315,115.25L-104.247,114.25L-104.178,113.5L-104.11,113.25L-104.041,113L-103.973,113.75L-103.904,113.5L-103.836,113.25L-103.765,112.25L-103.696,111.75L-103.628,111.25L-103.559,112L-103.491,114.25L-103.354,113.75L-103.285,113.5L-103.217,112.5L-103.149,113.25L-103.08,114.25L-103.012,114.75L-102.806,115.25L-102.738,115.5L-102.669,116.25L-102.533,116L-102.396,115.25L-102.327,114L-102.259,114L-102.19,113.25L-102.122,113.25L-102.053,113.25L-101.848,114.25L-101.78,114.5L-101.711,115L-101.643,114.5L-101.574,116.5L-101.437,116.75L-101.369,115.75L-101.3,115.25L-101.232,115.75L-101.164,116.75L-101.095,118L-101.027,117.25L-100.89,115.25L-100.821,114.75L-100.753,114L-100.684,113.75L-100.616,115.25L-100.342,114L-100.274,111.75L-100.205,112.5L-100.137,111L-99.932,109.25L-99.863,109L-99.795,110.25L-99.726,110.5L-99.658,110.5L-99.452,111L-99.384,110L-99.316,111.75L-99.247,112L-99.179,111.75L-99.11,111.25L-98.973,109.25L-98.905,109.5L-98.836,108.25L-98.768,108.75L-98.7,109.75L-98.631,110.25L-98.563,109.25L-98.494,109.5L-98.426,109.75L-98.357,111L-98.289,113L-98.22,113.5L-98.152,114.5L-98.084,114.25L-98.015,114.25L-97.947,115L-97.878,116.75L-97.81,116L-97.741,118L-97.604,118.75L-97.536,118.75L-97.467,118.5L-97.399,118.75L-97.331,116.5L-97.262,114L-97.194,116L-97.125,115L-97.057,114.5L-96.988,115.5L-96.92,116.5L-96.851,117L-96.783,116.5L-96.646,118L-96.578,116.5L-96.509,115.75L-96.441,116.25L-96.372,116.25L-96.304,114.5L-96.235,112.75L-96.099,112L-96.03,111.75L-95.962,111.5L-95.893,112.5L-95.825,113.5L-95.756,113L-95.619,112.5L-95.551,111.75L-95.483,111.25L-95.414,110L-95.346,111L-95.277,111.25L-95.209,111L-95.143,110.25L-95.075,112.5L-95.006,115.5L-94.938,114.5L-94.869,115.25L-94.801,114.5L-94.732,113.5L-94.664,111.5L-94.596,110.75L-94.527,112L-94.459,112.25L-94.39,112L-94.322,112L-94.253,111.75L-94.185,111.25L-94.116,112.25L-94.048,114.5L-93.98,115L-93.911,114.75L-93.843,115L-93.774,114L-93.706,113.25L-93.637,113.25L-93.569,114.25L-93.5,114.75L-93.432,115.5L-93.364,115.5L-93.295,114.5L-93.227,113L-93.158,114L-93.09,114.75L-93.021,115.25L-92.953,113.75L-92.748,113.5L-92.679,112.25L-92.611,112L-92.542,113L-92.474,114.5L-92.405,116.5L-92.337,115.75L-92.268,111.25L-92.2,110L-92.132,110.75L-92.063,111.5L-91.995,113L-91.858,112.25L-91.789,110.5L-91.721,108.5L-91.652,108.75L-91.584,108.75L-91.516,109.75L-91.447,110L-91.379,109.5L-91.31,108L-91.242,108.25L-91.173,106.75L-91.105,107.75L-91.036,108.75L-90.968,109L-90.899,108.5L-90.831,107.5L-90.763,105.5L-90.694,105.75L-90.626,107L-90.557,106L-90.489,106L-90.352,104.5L-90.283,103.5L-90.215,102.75L-90.147,102.75L-90.078,106L-90.01,108L-89.941,106L-89.873,103.5L-89.804,101.5L-89.736,102L-89.667,102.5L-89.599,104.5L-89.531,105.5L-89.462,104L-89.394,103L-89.325,103.5L-89.257,104L-89.188,104.75L-89.12,104.25L-89.051,105.25L-88.983,104.25L-88.915,104.5L-88.846,105.75L-88.778,104L-88.709,104L-88.641,105.75L-88.572,106.25L-88.435,105.5L-88.367,107.75L-88.299,108L-88.23,108.25L-88.162,107.5L-88.093,105.5L-87.956,105.75L-87.888,105.25L-87.819,105.25L-87.751,106.25L-87.683,108.25L-87.614,109L-87.477,109.5L-87.409,108.25L-87.34,108L-87.272,105.75L-87.203,106.25L-87.135,106.5L-86.998,106.25L-86.93,106.25L-86.861,104.75L-86.793,105.25L-86.724,104.5L-86.656,104.75L-86.587,104.25L-86.519,103.75L-86.45,103L-86.382,102L-86.314,102.5L-86.245,101.5L-86.108,101.5L-86.04,101.5L-85.971,103L-85.903,102.75L-85.834,104.5L-85.766,105.25L-85.561,104.75L-85.492,104L-85.424,104.5L-85.355,105.5L-85.287,105.5L-85.082,105.75L-85.013,104.75L-84.945,105.75L-84.876,106L-84.808,107.5L-84.739,106.25L-84.671,106.25L-84.602,104L-84.534,102.75L-84.466,103L-84.397,103.25L-84.329,105.25L-84.26,105.5L-84.192,105L-84.123,104.25L-84.055,106.25L-83.986,106.5L-83.918,106.75L-83.85,108.5L-83.781,108.5L-83.713,107.75L-83.644,106.75L-83.576,106L-83.507,105L-83.439,107.75L-83.37,108.25L-83.302,108.75L-83.234,106L-83.097,104.75L-83.028,103.75L-82.96,104.5L-82.891,105.75L-82.823,105.5L-82.754,105.75L-82.686,104.25L-82.617,104.25L-82.549,104.5L-82.481,106L-82.412,103.25L-82.344,104.5L-82.275,102.75L-82.207,101.25L-82.138,101.75L-82.07,102L-82.001,101L-81.933,100.75L-81.865,101.25L-81.796,101L-81.728,99.75L-81.659,100L-81.591,98.5L-81.522,98.75L-81.454,100.75L-81.317,102L-81.249,101.75L-81.18,102.25L-81.112,103.5L-81.043,106.5L-80.975,107.5L-80.906,109L-80.769,108.75L-80.701,107.5L-80.633,109.25L-80.564,108.5L-80.496,110.75L-80.427,112L-80.29,111.5L-80.222,112.25L-80.153,117.25L-80.085,118.25L-80.017,118.5L-79.948,119.5L-79.811,119.5L-79.743,120L-79.674,121.75L-79.606,123L-79.537,123L-79.469,121.5L-79.401,122L-79.332,122L-79.264,122.5L-79.195,123L-79.127,123.25L-79.058,120.25L-78.99,120L-78.921,118.75L-78.85,119L-78.782,117.25L-78.713,117.5L-78.645,115.5L-78.576,116.25L-78.508,117L-78.371,117L-78.303,116.75L-78.234,116.25L-78.166,117.5L-78.097,117.75L-78.029,117L-77.96,115.5L-77.892,115L-77.823,117L-77.755,117.5L-77.618,116.75L-77.55,116L-77.481,114L-77.413,114L-77.344,115.5L-77.276,117L-77.207,117.75L-77.139,118.25L-77.07,119.25L-77.002,119.5L-76.934,119.25L-76.865,122.5L-76.797,121.25L-76.728,122L-76.66,122.25L-76.591,122.5L-76.454,122L-76.386,124L-76.318,122.5L-76.249,122.5L-76.181,121.25L-76.112,121.25L-75.975,119.25L-75.907,119L-75.838,119.75L-75.77,120.5L-75.702,121.5L-75.633,119.5L-75.428,118.75L-75.359,117.25L-75.291,117.75L-75.222,118.5L-75.154,120.75L-75.086,119.5L-75.017,117.5L-74.949,117.5L-74.88,116.75L-74.812,116.25L-74.743,116.5L-74.675,116L-74.606,114.5L-74.538,114L-74.47,114.75L-74.401,115.5L-74.333,115.5L-74.264,116.5L-74.196,115.75L-74.059,114.25L-73.99,114.5L-73.922,115.25L-73.854,116.5L-73.785,116.5L-73.717,118.25L-73.648,118L-73.58,118L-73.511,117.75L-73.443,116.5L-73.374,117.5L-73.306,115.5L-73.238,115.75L-73.169,115.5L-73.101,115.75L-73.032,116L-72.964,116.75L-72.895,116.75L-72.827,116L-72.758,116.25L-72.621,115.5L-72.553,116.25L-72.485,115.25L-72.416,116.25L-72.348,115.25L-72.211,115.25L-72.142,114L-72.074,113.75L-72.005,113.5L-71.937,112.25L-71.869,113.75L-71.8,113.5L-71.663,113L-71.595,112.75L-71.526,114L-71.458,114.5L-71.389,114.5L-71.253,113.75L-71.184,113.5L-71.116,114.5L-71.047,116L-70.979,117.75L-70.91,117.25L-70.842,117.25L-70.773,116L-70.705,114L-70.637,114.5L-70.568,116L-70.5,116L-70.431,114.25L-70.363,114.25L-70.229,109.75L-70.16,110.5L-70.092,110.25L-70.023,111.25L-69.955,109.25L-69.886,110L-69.75,106.75L-69.681,104.75L-69.613,104.25L-69.544,103.75L-69.476,105.25L-69.407,103.25L-69.339,101.75L-69.27,100.5L-69.202,98.25L-69.134,97.25L-69.065,97.5L-68.997,98.25L-68.928,98.5L-68.791,96.25L-68.723,95.75L-68.654,94.25L-68.586,94L-68.518,95.25L-68.449,97.25L-68.381,95.5L-68.312,94.25L-68.244,94.75L-68.175,96L-68.107,96L-68.038,100.5L-67.97,98.5L-67.902,97L-67.833,96.25L-67.765,96.25L-67.696,94.5L-67.628,97.75L-67.559,100.75L-67.491,102.5L-67.422,99.5L-67.354,98.25L-67.286,99L-67.217,99.75L-67.149,100.75L-67.08,103L-67.012,104.25L-66.943,103.5L-66.875,103.25L-66.806,102.25L-66.738,102.5L-66.67,103.75L-66.601,107.25L-66.533,107L-66.464,106L-66.396,105L-66.327,104.25L-66.259,105.25L-66.19,105.75L-66.122,106.25L-66.054,106L-65.917,105L-65.848,107.25L-65.78,108.25L-65.711,109.25L-65.643,111.5L-65.574,112.75L-65.506,112L-65.437,110.5L-65.369,109.75L-65.301,109.5L-65.232,110.5L-65.164,111.5L-65.095,111.75L-65.027,110.5L-64.958,110L-64.89,108.5L-64.821,107.75L-64.753,107.25L-64.685,108.75L-64.616,109.5L-64.548,107.75L-64.479,106.75L-64.411,107.5L-64.342,108.25L-64.274,109.25L-64.205,108.5L-64.137,107.5L-64,106.5L-63.932,105.25L-63.863,105.25L-63.795,106L-63.726,106.25L-63.658,106.5L-63.589,105.5L-63.521,104.25L-63.453,104.5L-63.384,104.5L-63.316,104.75L-63.247,105L-63.179,108L-63.11,105.25L-63.042,104L-62.973,104.75L-62.905,106.25L-62.837,106.5L-62.768,106L-62.7,106.5L-62.631,106.5L-62.563,105.25L-62.494,106.5L-62.426,108L-62.289,107.75L-62.221,106.75L-62.152,106L-62.084,104.25L-62.015,105L-61.947,106.75L-61.878,108L-61.81,109L-61.741,109.25L-61.673,107.75L-61.604,106L-61.536,105.5L-61.468,106.75L-61.399,108.5L-61.331,107.5L-61.125,104.75L-61.057,103L-60.988,103.75L-60.92,103L-60.852,105.75L-60.783,107.75L-60.715,106.5L-60.646,105.25L-60.578,104.5L-60.509,104.75L-60.441,105.5L-60.372,105.75L-60.304,107.25L-60.236,107L-60.167,105.75L-60.099,105.75L-60.03,106L-59.962,105.25L-59.893,105.75L-59.825,108.25L-59.756,107.25L-59.688,106.5L-59.62,105.5L-59.551,105L-59.483,104.75L-59.414,105.5L-59.346,107.25L-59.277,105L-59.209,103.75L-59.14,102.5L-59.072,101.5L-59.004,103L-58.935,103.5L-58.867,104.5L-58.798,104.5L-58.73,102L-58.661,100L-58.593,99.25L-58.524,99.5L-58.456,101.25L-58.388,100.25L-58.319,100.25L-58.251,99L-58.182,97.5L-58.114,96.5L-58.045,96.75L-57.977,97.75L-57.908,98.5L-57.84,98.5L-57.772,97.5L-57.703,96L-57.635,96L-57.566,97.25L-57.498,98.5L-57.429,99L-57.361,99L-57.292,97.25L-57.224,97.5L-57.155,98.25L-57.087,101.25L-57.019,104.5L-56.95,104.5L-56.882,103.25L-56.813,102.5L-56.745,102.25L-56.676,104.25L-56.608,107.25L-56.539,107.75L-56.471,107.5L-56.334,107L-56.266,106.75L-56.197,107L-56.129,108.25L-56.06,109.5L-55.992,112.25L-55.923,112.25L-55.855,111.75L-55.787,111.25L-55.718,111.75L-55.65,112.5L-55.581,114L-55.513,114L-55.376,113.75L-55.307,112.75L-55.239,113.25L-55.171,114.75L-55.102,115.5L-55.034,115.5L-54.965,115.75L-54.897,115L-54.828,115.75L-54.76,116.75L-54.691,118.5L-54.623,119L-54.555,119.25L-54.486,118.75L-54.418,118.75L-54.349,118.75L-54.281,119L-54.212,117.25L-54.144,117.5L-54.075,117L-53.936,116.75L-53.867,116.75L-53.799,115L-53.73,115.5L-53.662,115.25L-53.593,115L-53.457,115.25L-53.388,115.25L-53.32,115.25L-53.251,115.5L-53.183,115.25L-53.114,115.25L-53.046,114.25L-52.977,113.5L-52.909,113.5L-52.841,113.5L-52.772,114L-52.704,114.25L-52.567,114L-52.498,114L-52.43,113.75L-52.361,114.5L-52.225,114.25L-52.088,115.25L-52.019,115L-51.951,116.5L-51.882,117L-51.814,119L-51.745,120.75L-51.677,120.25L-51.608,119.25L-51.54,119.75L-51.472,121.5L-51.403,121L-51.335,120.75L-51.266,121.25L-51.198,119L-51.061,114L-50.992,115L-50.924,115.5L-50.856,115.25L-50.787,115L-50.719,116.75L-50.582,117.5L-50.513,117.5L-50.445,119.5L-50.376,117.25L-50.308,116.75L-50.24,117.25L-50.103,116.75L-49.966,116.75L-49.897,116.5L-49.829,116.25L-49.76,114L-49.692,114.25L-49.624,111.75L-49.555,111.25L-49.487,111L-49.418,110.5L-49.35,111L-49.281,111.75L-49.213,111.75L-49.144,111L-49.076,112L-49.008,112.25L-48.939,113.25L-48.871,114.5L-48.802,118L-48.734,116.75L-48.665,116L-48.597,116L-48.528,115.5L-48.46,114.5L-48.392,113.25L-48.323,113L-48.186,112.75L-48.118,114.75L-48.049,115.5L-47.981,115.75L-47.912,115.5L-47.844,114L-47.707,112.25L-47.639,113L-47.57,115L-47.502,113L-47.433,112.75L-47.365,112.25L-47.228,111.75L-47.159,110.75L-47.091,111.5L-47.023,111.75L-46.954,110.25L-46.886,109.5L-46.749,108.75L-46.68,107.5L-46.612,106.25L-46.543,107L-46.475,108L-46.338,107.75L-46.27,107.25L-46.201,108L-46.133,108L-46.064,107.75L-45.996,108.75L-45.927,110L-45.859,109.5L-45.791,107.75L-45.722,106L-45.654,104.25L-45.585,104L-45.517,105L-45.448,107L-45.38,105.25L-45.314,103.75L-45.246,104L-45.177,105.75L-45.109,106.25L-45.04,107L-44.972,108.5L-44.904,107.5L-44.835,106L-44.767,106L-44.698,104.75L-44.63,104.25L-44.561,106.25L-44.493,107.5L-44.424,106.75L-44.356,106L-44.288,105L-44.219,102.5L-44.151,100.5L-44.082,102.25L-44.014,103.75L-43.945,101.5L-43.877,100.25L-43.808,100.5L-43.74,100.25L-43.672,101.25L-43.603,103.25L-43.535,102.5L-43.466,101.5L-43.398,100L-43.329,99L-43.261,99.5L-43.192,101.5L-43.124,102.5L-43.056,99L-42.987,96.75L-42.919,93.25L-42.85,90.5L-42.782,88.25L-42.713,88.25L-42.645,89L-42.576,89.5L-42.508,87.25L-42.44,84.25L-42.371,84.5L-42.303,85.75L-42.234,87.75L-42.166,91.5L-42.097,92.25L-42.029,91L-41.96,88.25L-41.892,89L-41.824,90L-41.755,90.5L-41.687,90.25L-41.618,88L-41.481,85.75L-41.413,86.25L-41.344,85.75L-41.276,87.25L-41.208,89.75L-41.139,90L-41.071,86L-41.002,83L-40.934,85L-40.865,86L-40.797,88.75L-40.728,92.25L-40.66,94.25L-40.523,93.25L-40.455,92.5L-40.386,91.25L-40.318,91L-40.249,93L-40.181,94L-40.112,92.25L-40.044,90.25L-39.975,88.75L-39.907,87.25L-39.839,86.25L-39.77,89L-39.702,90.5L-39.633,89.5L-39.565,87.5L-39.496,87.5L-39.428,89.5L-39.359,92L-39.291,92.25L-39.223,92.25L-39.154,90.25L-39.086,86.75L-39.017,87.75L-38.949,91.5L-38.88,94.5L-38.812,95.5L-38.743,93L-38.675,91L-38.607,89L-38.538,90.25L-38.47,92.25L-38.401,95L-38.333,94.5L-38.264,95.5L-38.196,95L-38.127,92.5L-38.059,93.25L-37.991,93.75L-37.922,93L-37.854,95.5L-37.785,96.5L-37.717,95L-37.648,94.75L-37.58,94L-37.511,95L-37.443,95.5L-37.375,95.5L-37.169,94.5L-37.101,95.5L-37.032,97L-36.964,98L-36.895,100L-36.827,99.25L-36.758,98L-36.69,96.75L-36.622,97.75L-36.553,101.25L-36.485,102.5L-36.416,103.25L-36.348,101.75L-36.279,100.75L-36.211,100.5L-36.142,102.75L-36.074,103.75L-36.006,103.75L-35.937,104.75L-35.732,104.75L-35.663,105.75L-35.595,107.25L-35.526,107.75L-35.458,109.75L-35.321,110.25L-35.253,106.25L-35.184,104.25L-35.116,102.5L-35.047,103.5L-34.979,104.75L-34.91,104L-34.842,101.5L-34.774,99L-34.705,98.5L-34.637,98L-34.568,98.75L-34.5,98.25L-34.431,97L-34.363,96.75L-34.294,96L-34.226,95.75L-34.158,95.5L-34.089,97.75L-34.021,97.75L-33.952,95L-33.884,93.25L-33.815,91.75L-33.747,93.5L-33.678,94.75L-33.61,96L-33.542,95L-33.405,94.75L-33.336,92.5L-33.268,89.75L-33.199,88L-33.131,91.75L-33.062,95.75L-32.994,97.75L-32.926,97L-32.857,93.5L-32.789,94.75L-32.72,97L-32.652,100.25L-32.583,101.25L-32.515,102.75L-32.378,99.5L-32.309,99.25L-32.241,99.5L-32.173,98.5L-32.104,98.25L-32.036,100L-31.967,100.75L-31.899,98.75L-31.83,97.75L-31.762,99.5L-31.693,97.25L-31.625,98.5L-31.557,98.25L-31.488,97.75L-31.42,94.5L-31.351,92.75L-31.283,91.75L-31.214,90.75L-31.146,93.5L-31.077,96.25L-31.009,95.75L-30.941,94.75L-30.872,90.75L-30.804,91L-30.735,92.5L-30.667,93L-30.598,93.75L-30.53,92.5L-30.461,91.75L-30.393,90.25L-30.325,91.25L-30.256,90L-30.188,90.75L-30.119,91.75L-30.051,91.75L-29.982,89.75L-29.914,90L-29.845,88L-29.777,88.25L-29.709,88.75L-29.64,92.75L-29.572,90.5L-29.503,88.75L-29.435,88L-29.366,90.75L-29.298,93.75L-29.229,95.25L-29.161,98.25L-29.093,96.5L-29.021,94.25L-28.953,91L-28.884,89.75L-28.816,92.25L-28.747,93L-28.679,94.5L-28.611,93.5L-28.542,90L-28.474,89.25L-28.405,88.5L-28.337,89.5L-28.268,91L-28.2,90.75L-28.131,90.75L-28.063,89.5L-27.995,90.75L-27.926,90.25L-27.858,90.25L-27.789,92L-27.721,94L-27.652,93.75L-27.584,92.75L-27.515,96L-27.447,98L-27.379,98.75L-27.31,97.75L-27.242,98L-27.173,98L-27.105,98.25L-27.036,99.25L-26.968,101.5L-26.899,104.5L-26.831,103.5L-26.694,103.75L-26.626,103.25L-26.557,103.75L-26.489,103.75L-26.42,107.25L-26.352,108.5L-26.283,110L-26.215,108.5L-26.146,108.25L-26.078,110.75L-26.01,112L-25.941,113.75L-25.873,114L-25.804,114.75L-25.667,113.75L-25.599,113L-25.53,111.5L-25.394,112.25L-25.325,113.25L-25.257,111.75L-25.188,109L-25.12,109.75L-25.051,111L-24.983,111.25L-24.914,109L-24.846,108.5L-24.778,107.75L-24.709,106L-24.641,104.75L-24.572,108L-24.504,110L-24.435,111.25L-24.367,110L-24.298,107.5L-24.23,106.5L-24.162,106.25L-24.093,106.75L-24.025,108.5L-23.956,109.25L-23.888,108.5L-23.819,107.5L-23.751,107.75L-23.682,108L-23.614,108.5L-23.546,109.25L-23.477,111.25L-23.409,110.5L-23.203,110.25L-23.135,110.25L-23.066,111.75L-22.998,113.75L-22.93,113.25L-22.861,111L-22.793,110.75L-22.724,111.5L-22.656,112.25L-22.587,113.25L-22.519,114.25L-22.45,115L-22.382,112.5L-22.313,111L-22.245,109.75L-22.177,111L-22.108,114.5L-22.04,112.5L-21.834,111.5L-21.766,109.25L-21.697,107.5L-21.629,106.25L-21.561,107.5L-21.492,108L-21.424,105L-21.355,102L-21.287,101L-21.218,99L-21.15,95.75L-21.081,98.25L-21.013,98.75L-20.945,97.5L-20.876,95.75L-20.808,93.25L-20.739,91.75L-20.671,92.25L-20.602,92L-20.534,93.75L-20.465,90.5L-20.4,90L-20.331,88.75L-20.263,88.5L-20.195,88.5L-20.126,89.5L-20.058,89.75L-19.989,88L-19.921,85.75L-19.852,85L-19.784,84.75L-19.715,84.75L-19.647,87.25L-19.578,88.25L-19.51,86.5L-19.442,84.25L-19.373,86L-19.305,87.5L-19.236,88L-19.168,90.75L-19.099,94.75L-19.031,92.25L-18.962,90.5L-18.894,89L-18.826,89.25L-18.757,90.25L-18.689,92.25L-18.62,94.25L-18.552,92.5L-18.483,91.25L-18.415,92L-18.346,89.25L-18.278,88.25L-18.21,89.75L-18.141,92.25L-18.073,91L-18.004,88L-17.936,85.25L-17.867,83.75L-17.799,85.5L-17.73,87.5L-17.662,89.75L-17.594,88L-17.525,84.75L-17.457,85.25L-17.388,86L-17.32,85.75L-17.251,86.75L-17.183,88.25L-17.114,84.25L-17.046,79.5L-16.978,76.5L-16.909,76.25L-16.841,78.5L-16.772,79.75L-16.704,80L-16.635,76.5L-16.567,73.5L-16.498,72.75L-16.43,71L-16.362,72.5L-16.293,76L-16.225,76.5L-16.156,74.25L-16.088,72L-16.019,71.25L-15.951,73L-15.882,75.25L-15.814,76.75L-15.745,77L-15.677,74.75L-15.609,73L-15.54,72.5L-15.472,75.5L-15.403,77.25L-15.335,77.5L-15.266,77.25L-15.129,74.25L-15.061,70.25L-14.993,70.25L-14.924,74.25L-14.856,79.75L-14.787,80.25L-14.719,79.75L-14.65,78.25L-14.582,77.75L-14.513,81.25L-14.445,84L-14.377,84.75L-14.308,84L-14.24,82L-14.171,79L-14.103,77.25L-14.034,79.75L-13.966,81.75L-13.897,80.5L-13.829,80.25L-13.692,80L-13.624,79.5L-13.555,76.25L-13.487,78.75L-13.418,80.25L-13.35,80.25L-13.281,77.5L-13.213,74.5L-13.145,73.25L-13.076,71.75L-13.008,74.25L-12.939,77.5L-12.871,79.75L-12.802,77.75L-12.734,75.25L-12.665,73.25L-12.597,70.5L-12.529,72.25L-12.46,73L-12.392,71L-12.255,69L-12.186,69.5L-12.118,70.75L-12.049,73.25L-11.981,76L-11.913,79L-11.844,77.75L-11.776,75L-11.707,74.5L-11.639,75.25L-11.57,77.5L-11.502,78.75L-11.433,83L-11.365,79.75L-11.296,77.25L-11.228,77.75L-11.16,81L-11.091,83.75L-11.023,84.75L-10.954,85.75L-10.886,85L-10.817,83.75L-10.749,82.5L-10.68,84L-10.612,86.5L-10.544,87.25L-10.407,87.25L-10.338,85.25L-10.27,83L-10.201,81.5L-10.133,83.5L-10.064,83.25L-9.996,81L-9.928,78.5L-9.859,76.25L-9.791,77.25L-9.722,78.5L-9.654,80L-9.585,80.5L-9.517,76.25L-9.38,73.25L-9.312,72.75L-9.243,72.75L-9.175,75.25L-9.106,76.25L-9.038,76.25L-8.969,72L-8.901,70L-8.832,70.5L-8.764,71.5L-8.696,72.25L-8.627,72.25L-8.559,72L-8.49,70.75L-8.422,68L-8.353,67.5L-8.285,68.5L-8.216,67.75L-8.148,67.25L-8.011,67.75L-7.874,63.75L-7.806,64.5L-7.737,69.5L-7.669,70.5L-7.6,70.5L-7.532,65.5L-7.463,63.75L-7.395,62.75L-7.327,66.5L-7.258,71.25L-7.19,71.25L-7.121,70.25L-7.053,69.5L-6.984,66.75L-6.916,65.25L-6.847,66L-6.779,67.25L-6.711,67.5L-6.642,66.5L-6.574,64.75L-6.505,63L-6.437,64L-6.368,67.25L-6.3,66.75L-6.231,67.25L-6.026,68.25L-5.958,67.5L-5.889,66L-5.821,70L-5.752,73.25L-5.684,73.25L-5.615,70.25L-5.547,68.5L-5.479,68L-5.41,68L-5.342,72.5L-5.273,74.75L-5.205,73.75L-5.136,70.25L-5.068,67.75L-4.999,66.75L-4.931,64.75L-4.863,64.5L-4.794,67.25L-4.726,66.75L-4.589,63.75L-4.52,64.5L-4.452,66.75L-4.383,68.25L-4.315,70.75L-4.247,73.25L-4.178,71.25L-4.107,66.75L-4.038,66.75L-3.97,65.25L-3.901,63.5L-3.833,67L-3.765,71L-3.696,68.5L-3.628,65.75L-3.559,67L-3.491,68.5L-3.422,68L-3.354,70.25L-3.285,72.75L-3.217,70.25L-3.149,66.5L-3.08,65.75L-3.012,64.75L-2.943,65.5L-2.875,69L-2.806,73.25L-2.738,73.75L-2.669,69.25L-2.601,71L-2.533,74.25L-2.464,76.5L-2.396,76.25L-2.327,77.5L-2.259,75.75L-2.19,74.5L-2.122,74.75L-2.053,79L-1.985,82.25L-1.916,86L-1.848,89.75L-1.78,89L-1.711,87.5L-1.643,85.5L-1.574,85.5L-1.506,86.5L-1.437,89L-1.369,90.5L-1.3,87.75L-1.232,84.75L-1.164,86.5L-1.095,87.5L-1.027,90.25L-0.958,94.25L-0.89,96.75L-0.821,94.25L-0.753,92.75L-0.684,91.25L-0.616,94.5L-0.548,96.5L-0.479,97L-0.411,96.25L-0.342,95.5L-0.274,93.75L-0.205,93.75L-0.137,92L-0.068,94.75L0,95.25L0.068,92.25L0.137,87.5L0.205,85.5L0.274,82.5L0.342,81.25L0.411,85L0.479,87.5L0.548,88L0.616,85.75L0.684,84L0.753,84.5L0.821,84.5L0.89,85.75L0.958,87.5L1.027,87.25L1.164,85.25L1.232,82L1.3,83L1.369,84.5L1.437,87.25L1.506,88.5L1.574,87.5L1.643,84.25L1.711,82.75L1.78,81L1.848,82L1.916,84.25L1.985,84.5L2.053,80.5L2.122,77.75L2.19,76L2.259,78.5L2.327,79.5L2.396,83L2.464,84L2.533,82.5L2.601,79.25L2.669,78.25L2.738,78L2.806,80.25L2.875,82.5L2.943,83.5L3.08,80.75L3.149,78.5L3.217,77.75L3.285,77L3.354,80.5L3.422,82.25L3.491,80.75L3.559,77.5L3.628,74.75L3.696,73L3.765,74.25L3.833,76.5L3.901,79.25L3.97,77.5L4.038,73.5L4.107,72.75L4.175,74.25L4.244,75.25L4.312,78.5L4.381,79.25L4.449,77L4.517,73.25L4.586,73.5L4.654,72.5L4.723,74L4.791,75.25L4.86,77.75L4.928,74.75L4.994,68.75L5.062,67.5L5.131,67.25L5.199,66.25L5.268,68.75L5.336,67L5.404,61.75L5.473,58L5.541,55.75L5.61,55.5L5.678,58L5.747,59.5L5.815,60.75L5.884,58.25L5.952,56L6.02,54.25L6.089,56L6.157,59L6.226,61.25L6.294,60L6.363,59.25L6.431,56.25L6.5,53.75L6.568,55.75L6.636,57L6.705,60.25L6.773,59.75L6.842,55.25L6.91,52.5L6.979,53.25L7.047,57.25L7.116,60.5L7.184,63.5L7.321,64L7.389,61.5L7.458,62.25L7.526,62.25L7.595,62.75L7.663,66.5L7.732,69.5L7.8,68.25L7.868,66.25L7.937,65.75L8.005,64.75L8.074,63.5L8.142,66.75L8.211,68.75L8.279,69.25L8.348,66.75L8.416,65L8.484,65.75L8.553,67.75L8.621,73L8.69,75L8.758,70.5L8.827,67.75L8.895,67.25L8.964,68.5L9.032,69.5L9.101,71.5L9.169,73.5L9.237,72L9.306,68.25L9.374,67.25L9.443,66.25L9.511,68L9.58,73.5L9.648,77L9.717,73.75L9.785,71.25L9.853,69L9.922,69.25L9.99,67.25L10.059,69.75L10.127,73.25L10.196,71.5L10.264,67.25L10.333,61.75L10.401,61L10.469,63.75L10.538,64.5L10.606,67L10.675,67.75L10.743,65.5L10.812,67.75L10.88,67L10.949,67L11.017,70.25L11.085,72.5L11.154,70.5L11.222,66.75L11.291,66.5L11.359,68.25L11.428,69.75L11.496,71.25L11.565,73.75L11.633,71L11.701,68.25L11.77,69.75L11.838,69.75L11.907,70.75L11.975,73.75L12.044,77.25L12.112,75L12.181,71.25L12.249,72.25L12.317,71L12.386,71.75L12.454,75.25L12.523,76.5L12.591,75.25L12.66,72.25L12.728,69L12.797,66.75L12.865,66.5L12.933,70L13.002,72.5L13.07,71.5L13.139,69.25L13.207,70.25L13.276,69.25L13.344,68.25L13.413,70.25L13.481,71L13.55,67.25L13.618,64L13.686,63.25L13.755,63.75L13.823,65.25L13.892,68L13.96,68.25L14.029,64.75L14.097,61.5L14.166,62.25L14.234,63L14.302,63.5L14.371,69.25L14.439,72.75L14.508,69.75L14.576,68L14.645,66.5L14.713,66.25L14.782,69.25L14.85,73.75L14.918,73L14.987,69.75L15.055,63.5L15.124,59.75L15.192,61.25L15.261,62.25L15.329,63.25L15.398,64L15.534,60.25L15.603,58L15.671,58.5L15.74,59.75L15.808,63.25L15.877,64.5L15.945,58.75L16.014,55.75L16.082,57L16.15,55.75L16.219,58L16.287,60.75L16.356,58L16.424,53.75L16.493,49L16.561,45.25L16.63,45.75L16.698,47.75L16.766,50.25L16.835,50.25L16.903,46.25L17.04,43L17.109,41.75L17.177,42.5L17.246,47.5L17.314,53.5L17.383,53.25L17.451,52.25L17.519,53L17.588,50.25L17.656,50.5L17.725,53.25L17.793,58.5L17.862,55.25L17.93,51.75L17.999,49.75L18.067,51L18.135,49.75L18.204,50.75L18.272,55L18.341,52.5L18.409,48.75L18.478,48.75L18.546,48L18.615,49L18.683,53.75L18.751,56L18.82,51L18.888,46.25L18.957,44.25L19.025,42.75L19.094,41L19.162,45.75L19.231,46.25L19.299,46.75L19.367,43L19.436,39.75L19.504,39.25L19.573,41L19.641,44.25L19.71,45L19.778,44.5L19.847,39L19.915,42.5L19.983,44L20.052,45.5L20.12,50.25L20.189,52L20.257,47.75L20.326,46.5L20.394,50.25L20.463,53L20.531,58.75L20.599,64.25L20.668,65.25L20.736,63L20.805,61L20.873,61.5L20.942,60.5L21.01,64.75L21.079,69.5L21.215,71L21.287,65.75L21.355,65L21.424,61.25L21.492,61.5L21.561,64.75L21.629,66.5L21.697,66L21.766,63.75L21.834,64.5L21.903,64.5L21.971,68L22.04,69L22.108,71L22.177,66.75L22.245,65.75L22.313,62.75L22.382,65.75L22.45,64.75L22.519,64.5L22.587,64.75L22.656,62.75L22.724,62.25L22.793,64.75L22.861,67.5L22.93,70L22.998,74.25L23.066,77.5L23.135,75.75L23.203,72.25L23.272,75.25L23.34,80L23.409,79.25L23.477,80.5L23.546,81.5L23.614,79.25L23.682,77.5L23.751,79.25L23.819,81.75L23.888,82.75L23.956,82.5L24.025,80.75L24.093,78.25L24.162,78.25L24.23,83.75L24.298,79L24.367,81L24.435,80.75L24.504,81.25L24.709,78.5L24.778,79L24.846,80.75L24.914,79.25L24.983,76.25L25.051,71.75L25.12,69.75L25.188,67.5L25.257,70.25L25.325,73L25.394,74L25.462,73L25.599,69.5L25.667,73.5L25.736,74L25.804,75.75L25.873,79L25.941,79L26.078,75.75L26.146,72.25L26.215,71L26.283,70.75L26.352,74L26.42,76.75L26.489,76.5L26.557,75.25L26.626,77.5L26.694,78.75L26.762,77L26.831,79L26.899,79L26.968,75.25L27.036,73.5L27.105,72.75L27.173,74.25L27.242,78.25L27.31,77.5L27.379,79.5L27.447,72.75L27.515,70L27.584,71.25L27.652,72.5L27.721,76.5L27.789,71.75L27.858,73.5L27.926,72.5L27.995,69.5L28.063,71L28.131,72.75L28.2,75.75L28.268,74.25L28.337,75.25L28.405,74.25L28.474,74.25L28.542,74L28.611,73.25L28.679,76.25L28.747,73.75L28.816,73L28.953,70.25L29.021,73L29.09,76.25L29.158,72.25L29.227,74L29.295,73.75L29.432,73.25L29.5,73.25L29.569,74L29.637,80.5L29.706,80.75L29.774,80.5L29.843,75.25L29.908,71.25L30.045,73.75L30.114,75L30.182,76.25L30.25,77.75L30.387,75.25L30.456,69.25L30.524,67L30.593,66.75L30.661,67L30.73,68.25L30.798,64.25L30.866,59.25L30.935,56.5L31.003,53.5L31.072,54.75L31.14,58L31.209,60.25L31.277,57.5L31.346,52.5L31.414,48.25L31.482,44.5L31.551,42.25L31.619,42.5L31.688,44L31.756,42L31.825,38.25L31.893,38.5L31.962,36.75L32.03,39.5L32.098,43.75L32.167,45.5L32.235,41.75L32.304,34.5L32.372,30.75L32.441,29.75L32.509,34.5L32.578,38L32.646,41.75L32.714,41.25L32.783,35.25L32.851,36.75L32.92,37.25L32.988,41.75L33.057,45.25L33.125,48.5L33.194,46.75L33.262,41.75L33.33,39L33.399,42.75L33.467,52L33.536,55L33.604,57L33.673,56L33.741,56L33.81,56L33.878,60.5L33.946,62.75L34.015,63.25L34.083,62.75L34.152,56.5L34.22,52L34.289,50.75L34.357,58.5L34.426,63.75L34.494,62.75L34.563,62L34.631,59L34.699,57L34.768,55.5L34.836,60L34.905,61.5L34.973,63.25L35.042,56.5L35.11,50L35.247,47L35.315,47.25L35.384,53L35.452,58.75L35.521,60.25L35.658,61.25L35.726,61.75L35.795,61.25L35.863,57.5L35.931,57.25L36,59.5L36.068,56L36.137,54L36.205,51.5L36.274,51L36.342,52.75L36.411,57L36.479,61.5L36.547,58.75L36.616,56L36.684,54.5L36.753,54L36.821,50.5L36.89,52.25L36.958,55.5L37.027,55.25L37.095,52.5L37.163,49.5L37.232,51.25L37.3,54.75L37.369,58.25L37.437,61L37.506,56.75L37.574,51.5L37.643,49.25L37.711,46.25L37.779,46.5L37.848,48.75L37.916,54.25L37.985,54.25L38.053,50.5L38.122,50L38.19,49.5L38.259,52.25L38.327,55L38.396,59.5L38.464,57.5L38.532,56.25L38.601,55.5L38.669,53.75L38.738,56.25L38.806,60.25L38.875,67L38.943,65.25L39.012,62.25L39.08,61.5L39.148,60.75L39.217,63.5L39.285,69.25L39.354,73L39.422,70L39.491,66.5L39.559,68.5L39.628,70.75L39.696,71L39.764,74L39.833,75.5L39.901,75.75L39.97,71.5L40.038,70.75L40.107,67.5L40.175,66.25L40.244,68.5L40.312,71.5L40.38,68.75L40.449,63.25L40.517,62.75L40.586,59.75L40.654,59.25L40.723,62.5L40.791,66.5L40.86,64L40.928,60L40.996,57.25L41.065,58L41.133,56.75L41.202,61.5L41.27,65L41.339,61L41.407,56.25L41.476,54.25L41.544,55.75L41.612,54.75L41.681,57.25L41.749,59.75L41.818,56L41.886,51.5L41.955,45.5L42.023,46.5L42.092,45L42.16,51L42.228,55.75L42.297,54.75L42.365,49L42.434,48L42.502,48.75L42.571,47L42.639,51.75L42.708,54.5L42.776,52.25L42.845,49L42.913,44.75L42.981,44.75L43.05,46.25L43.118,48.25L43.187,51.25L43.255,47.75L43.324,42.75L43.392,40.5L43.461,40.75L43.529,42.5L43.597,44.75L43.666,48L43.734,44.5L43.803,42L43.871,43L43.94,45L44.008,47L44.077,49.25L44.145,50.25L44.213,50.5L44.282,46.75L44.35,44L44.419,46.75L44.487,51L44.556,55.5L44.624,58.75L44.693,54.75L44.761,48.25L44.829,47L44.898,46L44.966,52.5L45.035,55.75L45.103,57L45.172,54.25L45.24,52.75L45.309,54.5L45.377,59L45.445,65.25L45.514,65.75L45.582,66L45.651,61.25L45.719,56.75L45.788,55.75L45.856,58.25L45.925,60.75L45.993,61.5L46.061,60L46.201,55.5L46.27,53.75L46.338,51.75L46.407,56.25L46.475,60L46.543,61.75L46.612,60L46.68,56.75L46.749,56.75L46.817,59L46.886,66.5L46.954,71L47.023,71.75L47.091,70.75L47.159,67.75L47.228,64.75L47.296,66L47.433,68.25L47.502,70.25L47.57,70.5L47.639,69.5L47.707,73L47.775,74.25L47.844,77.75L47.912,82L47.981,86.25L48.049,85.5L48.118,83.5L48.186,85L48.255,90.25L48.323,95.75L48.392,98.75L48.46,100L48.528,96.5L48.597,92.5L48.665,90L48.734,91.75L48.802,94.75L48.871,96L48.939,94L49.008,91.75L49.076,90.5L49.144,92.75L49.213,94.25L49.281,98.25L49.35,100.25L49.418,95.75L49.487,92.25L49.555,89.5L49.624,87L49.692,87.25L49.76,87.25L49.829,86.75L49.897,86.5L49.966,82.5L50.103,80.25L50.171,78.25L50.24,80L50.308,80.5L50.445,78.75L50.513,76.5L50.582,75.25L50.65,73.5L50.719,73.5L50.787,77.5L50.856,81.75L50.924,80L50.992,76.75L51.061,74.5L51.129,73.5L51.198,74L51.266,74.25L51.335,75.5L51.403,74L51.472,69.75L51.54,68.75L51.608,72.5L51.677,74.5L51.745,76.75L51.814,79.5L51.882,77.5L51.951,73.75L52.019,71L52.088,69.75L52.156,72.5L52.225,74.5L52.293,76.5L52.361,73.75L52.43,68.5L52.498,66.5L52.567,65.75L52.635,63L52.704,65.5L52.772,69L52.841,68.75L52.909,67.5L52.977,67.25L53.046,68L53.114,67L53.183,70.5L53.251,71L53.32,69.25L53.388,65.75L53.457,66.25L53.525,67.25L53.593,68.75L53.662,70.75L53.73,72L53.799,67.5L53.867,61.5L53.936,58.5L54.004,58.25L54.073,61.5L54.141,63.75L54.209,65L54.278,61.5L54.346,60.25L54.415,58.75L54.483,60.75L54.552,61.25L54.62,63L54.689,68.25L54.757,63.5L54.823,58.5L54.891,55.75L54.96,50.75L55.028,46.5L55.096,48.25L55.165,51.75L55.233,49.75L55.302,47.5L55.37,46.25L55.439,45L55.507,41.75L55.576,44L55.644,45.75L55.712,43.25L55.781,38.25L55.849,37.25L55.918,39.75L55.986,37.5L56.055,40L56.123,39.75L56.192,34.75L56.26,29.75L56.328,27.5L56.397,25L56.465,24L56.534,26.25L56.602,29.75L56.671,24.5L56.739,19.5L56.808,19.75L56.876,15.75L56.944,15.25L57.013,20.5L57.081,26.5L57.15,21L57.218,14L57.287,14.75L57.355,13.75L57.424,14.75L57.492,19L57.56,22.75L57.629,18.5L57.697,15.75L57.766,15L57.834,13.75L57.903,16L57.971,17.5L58.04,24.5L58.108,25.75L58.176,22L58.245,22.5L58.313,22L58.382,26L58.45,30.25L58.519,34L58.587,30.5L58.656,24.25L58.724,27L58.792,29.25L58.861,30.25L58.929,37.25L58.998,38.25L59.066,34.75L59.135,32.25L59.203,34L59.272,37.25L59.34,38.5L59.409,41.25L59.477,43.5L59.545,38.75L59.614,35.25L59.682,37.25L59.751,38.25L59.819,38L59.888,44.5L59.956,47.5L60.025,46.75L60.093,44L60.161,41.5L60.23,45.5L60.298,47.25L60.367,50.75L60.435,53L60.504,48L60.572,46L60.641,50.25L60.709,53.5L60.777,52.25L60.846,54.5L60.914,58.5L60.983,56.75L61.051,56L61.12,57.5L61.188,54.75L61.257,56L61.325,58.25L61.393,59.25L61.462,57L61.53,54.25L61.599,55.75L61.667,55.75L61.736,56.75L61.804,59L61.873,62L61.941,58.75L62.009,55L62.078,56L62.146,53.75L62.215,53.25L62.283,52.75L62.352,56L62.42,56.25L62.489,50.25L62.557,51.75L62.625,51.75L62.694,45.5L62.762,47L62.831,50.75L62.899,47.5L62.968,43.75L63.036,42.75L63.105,43L63.173,40.75L63.242,46.75L63.31,50L63.378,50.25L63.447,47.25L63.515,48.25L63.584,46.5L63.652,46L63.721,49.75L63.789,51.75L63.858,49L63.926,46.75L63.994,46L64.063,47.5L64.131,45.75L64.2,50.75L64.268,54.25L64.337,50.25L64.405,46.25L64.474,42.5L64.542,44.75L64.61,44.5L64.679,47.75L64.747,53.75L64.816,51.75L64.884,48.5L64.953,45.5L65.021,42.25L65.09,45.25L65.158,47.75L65.226,50.75L65.295,46.75L65.363,43.25L65.432,39.25L65.5,37.5L65.569,39.5L65.637,44.75L65.706,45.25L65.774,40.5L65.842,37.5L65.911,35L65.979,31.25L66.048,33.75L66.116,35.25L66.185,35.25L66.253,34L66.322,29.25L66.39,30.75L66.458,29.5L66.527,34.5L66.595,38L66.664,38L66.801,35.25L66.869,30.25L66.938,29.5L67.006,31.5L67.074,37.5L67.143,43.75L67.211,44.25L67.28,40.5L67.348,39.25L67.417,39.25L67.485,39.75L67.554,44L67.622,49.25L67.691,48L67.759,43.25L67.827,39.5L67.896,39L67.964,39L68.033,42.25L68.101,49L68.17,47.25L68.238,43.25L68.307,41.75L68.375,31.75L68.443,32.5L68.512,36.5L68.58,41.5L68.649,37.25L68.717,32.25L68.786,32.75L68.854,31L68.923,32.5L68.991,35.75L69.059,37.75L69.128,34.5L69.196,34.75L69.265,30L69.333,27.75L69.402,28.25L69.47,31.75L69.539,33.75L69.607,33.25L69.675,27L69.744,26.25L69.812,28.25L69.881,32.25L69.949,36.75L70.018,39.5L70.086,36.75L70.155,32.5L70.223,32.75L70.291,38.25L70.36,41.75L70.428,53.25L70.497,53.25L70.565,47L70.634,43.25L70.702,44L70.771,45.5L70.839,48L70.907,48.75L70.976,49L71.044,46L71.116,42.5L71.184,44.25L71.253,44.25L71.321,49.75L71.389,54.5L71.458,54L71.526,52L71.595,49.5L71.663,46.75L71.732,52.75L71.8,55.75L71.869,54.25L71.937,53.75L72.005,50.25L72.074,46.75L72.142,49.5L72.211,54.25L72.279,56.75L72.348,55.25L72.485,55.5L72.553,54L72.621,55.5L72.69,61.5L72.758,65.75L72.827,65.5L72.964,66.5L73.032,63.5L73.101,67.5L73.169,70.75L73.238,71.5L73.306,72.75L73.374,71.75L73.443,68.75L73.511,67L73.58,69L73.648,72L73.717,71.5L73.785,72.25L73.854,74L73.922,70.25L73.99,67.5L74.059,71L74.127,74.5L74.196,77.5L74.264,80.75L74.333,80.5L74.401,79.25L74.47,77.25L74.606,78L74.675,78.75L74.743,79L74.949,76L75.017,74.75L75.086,73L75.154,73.5L75.222,76.25L75.291,79.75L75.359,76.25L75.428,71.5L75.496,71.5L75.565,72.75L75.633,71.5L75.702,74.25L75.77,76.5L75.838,73.25L75.907,73L75.975,74L76.044,75.25L76.112,74.25L76.181,77.75L76.249,80.75L76.318,80L76.386,78L76.454,77.25L76.523,75L76.591,76.5L76.66,76.75L76.728,79L76.797,75.5L76.865,72.25L76.934,71L77.002,73.75L77.07,72.75L77.139,73.25L77.207,76.5L77.276,75.75L77.344,75.25L77.413,77.75L77.481,79.25L77.55,78.75L77.618,79.75L77.687,83L77.755,79.25L77.823,75.25L77.892,72.5L77.96,70L78.029,69.25L78.097,70.5L78.166,73.75L78.234,70.25L78.303,66.75L78.371,63L78.439,62.5L78.508,59.75L78.576,62L78.645,63.5L78.713,59.5L78.782,54.75L78.85,54.75L78.919,53.25L78.987,51.5L79.055,53.5L79.124,56.75L79.192,54L79.261,51.25L79.329,49.75L79.398,46.75L79.466,45.75L79.535,48.5L79.603,52L79.671,47L79.737,45.5L79.805,45L79.874,44.75L79.942,46.25L80.011,49L80.079,51.5L80.148,47L80.216,41.75L80.285,42.5L80.353,41.75L80.422,45.25L80.49,47.5L80.558,50L80.627,47.25L80.695,44L80.764,46.25L80.832,44.5L80.901,47.5L80.969,52.5L81.038,52L81.106,48.25L81.174,44.25L81.243,44.75L81.311,43.5L81.38,44.5L81.448,47.5L81.517,47L81.585,43.25L81.654,41.75L81.722,43.5L81.79,43.25L81.859,46.25L81.927,49.25L81.996,50L82.064,46.25L82.133,40.75L82.201,41L82.27,42.5L82.338,45L82.406,48.5L82.475,45L82.612,40.75L82.68,36.5L82.749,37L82.817,33.5L82.886,35.75L82.954,41L83.022,41.5L83.091,38.75L83.159,40.5L83.228,40.75L83.296,39L83.365,41.75L83.433,46L83.502,43.5L83.57,39.5L83.638,38.5L83.707,40L83.775,36.25L83.844,38.25L83.912,39.75L83.981,39L84.049,36.5L84.118,36.25L84.186,36.75L84.255,39L84.323,42.75L84.391,46L84.46,43.25L84.528,39.75L84.597,39.5L84.665,40.75L84.734,42.5L84.802,42.5L84.871,48.75L84.939,43.75L85.007,38.5L85.076,35.5L85.144,34.75L85.213,36.75L85.281,41.25L85.35,46.75L85.418,47.25L85.487,47.5L85.555,50.25L85.623,54L85.692,57.75L85.76,59.5L85.829,62.75L85.897,62.25L85.966,60.75L86.034,59.75L86.103,62.75L86.171,66.75L86.239,67.25L86.308,68.75L86.376,67.75L86.445,64.75L86.513,65.5L86.582,69L86.65,74.25L86.719,74.5L86.787,75.5L86.855,76.75L86.924,74.25L86.992,75.75L87.061,82.25L87.129,85.5L87.198,87L87.266,85L87.54,80.25L87.677,75.5L87.882,73L88.019,72.25L88.087,73.75L88.156,71.5L88.361,68.75L88.43,65.25L88.498,65.5L88.567,67.25L88.635,70L88.704,73.5L88.772,70.25L88.84,66.75L88.909,65.5L88.977,64.5L89.046,65.75L89.114,68.25L89.183,70L89.251,68.5L89.32,65.75L89.388,65.25L89.456,68.25L89.525,67L89.593,69.75L89.662,72.75L89.73,73L89.799,70.75L89.867,69.75L89.936,69.75L90.004,71.5L90.072,75.5L90.141,77.5L90.209,74.25L90.278,70.75L90.346,69L90.415,68L90.483,67.75L90.552,69.5L90.62,68.25L90.688,63L90.757,59L90.825,57.75L90.894,56.5L90.962,59.5L91.031,61.5L91.099,61.75L91.168,59.25L91.236,55.75L91.304,51.75L91.373,50.25L91.441,49.75L91.51,50L91.578,51.25L91.647,48.25L91.715,45.5L91.784,43L91.852,42.5L91.92,45.25L91.989,48.5L92.057,48L92.126,47.25L92.194,44.75L92.263,47.75L92.331,49.5L92.4,54L92.468,58L92.537,62.5L92.605,59.75L92.673,57.25L92.742,61.25L92.81,62.5L92.879,66.75L92.947,71.25L93.016,71L93.084,69.5L93.153,64.5L93.221,63.5L93.289,64.75L93.358,70L93.426,74.5L93.495,75L93.632,69L93.7,67.25L93.769,67.75L93.837,70L93.905,71.25L93.974,74.5L94.042,71.5L94.111,68.5L94.179,68L94.248,65.75L94.316,65.25L94.385,65.75L94.453,67.25L94.521,66.75L94.59,64.75L94.658,61.25L94.727,60.75L94.795,62.5L94.864,64.25L94.932,66.75L95.001,65.5L95.069,62.75L95.137,60.75L95.206,58.75L95.274,60.75L95.343,64.75L95.411,67.5L95.48,65.25L95.548,61.25L95.617,61.75L95.685,67.75L95.753,70L95.822,72.25L95.89,73.75L95.959,72.5L96.03,70L96.099,71.25L96.167,71L96.235,72.25L96.304,75.5L96.372,79.25L96.441,78.75L96.509,75.25L96.578,74.5L96.646,74.25L96.715,77.75L96.783,80.5L96.851,82.25L96.92,81L96.988,77.75L97.057,77.75L97.125,79.75L97.194,82L97.262,86.75L97.331,90.25L97.399,88L97.467,87.5L97.536,90.75L97.604,91.25L97.673,92.5L97.741,93.25L97.81,94.25L97.878,92.5L97.947,91.75L98.015,94.5L98.084,95L98.152,92.25L98.22,95L98.289,97.5L98.357,95L98.426,92.25L98.494,89.75L98.563,91.25L98.631,90.5L98.7,92L98.768,92.75L98.836,90.25L98.905,84L98.973,77.75L99.042,81L99.11,81L99.179,80.75L99.247,81.5L99.316,79.25L99.384,76.5L99.452,77L99.521,74.75L99.589,71.25L99.658,75L99.726,77L99.795,73.75L99.863,71.75L99.932,71L100,68.75L100.068,65.25L100.137,65.75L100.205,70.25L100.274,68.25L100.342,65.5L100.411,65L100.479,65L100.548,66.75L100.616,68.5L100.684,71L100.753,69.75L100.821,67L100.89,67.75L100.958,69L101.027,75.25L101.095,75.25L101.164,77L101.232,77L101.3,74.5L101.369,73.25L101.437,72.5L101.506,73L101.574,76L101.643,79L101.711,76.5L101.78,73.75L101.848,72.75L101.916,71.5L101.985,72.5L102.053,75.75L102.122,79L102.19,79L102.259,77.5L102.327,78L102.396,77.25L102.464,78.5L102.533,81L102.601,82.25L102.669,80.25L102.738,78.25L102.806,78.25L102.875,79.75L102.943,79.75L103.012,85.5L103.08,86.75L103.149,85.25L103.217,84.5L103.285,83.25L103.354,84.5L103.422,87.5L103.491,91L103.559,93.25L103.628,92.5L103.696,92.25L103.765,94.25L103.833,97L103.901,101L103.97,104.75L104.038,106.75L104.107,106.25L104.175,105.75L104.244,107L104.312,108.25L104.381,110.5L104.449,114L104.517,116L104.586,116L104.651,116.5L104.72,117L104.788,119L104.857,121L104.925,122.25L104.994,124.75L105.062,124.75L105.131,124.75L105.199,126.25L105.268,127.5L105.336,129.5L105.404,131.5L105.473,131.5L105.541,131.75L105.61,131.25L105.678,132.25L105.747,132.5L105.815,132.5L105.884,131.75L105.952,132L106.02,129.5L106.089,129.25L106.157,129L106.226,129.25L106.294,128.75L106.363,129.5L106.5,129.25L106.568,128.25L106.636,127.25L106.705,126.5L106.773,126.5L106.842,128.25L106.91,128.5L107.116,127.75L107.184,125.75L107.252,124L107.321,122.75L107.389,122.25L107.595,123L107.663,121.5L107.732,120.25L107.8,118L107.937,117.5L108.005,116.25L108.074,116.75L108.142,114.5L108.211,113L108.279,112.25L108.416,112.75L108.484,112.75L108.553,114.5L108.621,112.75L108.758,111.75L108.827,109.75L108.895,109.75L108.964,109.25L109.032,109.25L109.101,108.5L109.169,108L109.237,106.5L109.306,104.25L109.374,102.25L109.443,102L109.511,102.75L109.58,103.25L109.648,104L109.717,102.75L109.853,101.5L109.99,99.75L110.059,100.75L110.127,102.5L110.196,102L110.333,100L110.401,97.5L110.469,95L110.538,96.25L110.606,98L110.675,99.25L110.812,98.25L110.88,96.75L110.949,94.75L111.017,94.25L111.085,94.25L111.154,95L111.222,95.25L111.291,93.75L111.359,93L111.428,93.25L111.496,93.25L111.565,94.5L111.633,97L111.701,99.25L111.77,97.25L111.838,94.75L111.907,94.25L111.975,93.25L112.044,95.25L112.112,96L112.181,95.5L112.249,94.5L112.317,92.5L112.386,93.75L112.454,95.5L112.523,99L112.591,101.5L112.66,100.5L112.728,99.25L112.797,94.5L112.865,94.5L112.933,95L113.002,97.25L113.07,99.5L113.139,99.5L113.207,98.5L113.276,95.5L113.344,95.75L113.413,94.75L113.481,95.25L113.55,94L113.618,93.25L113.686,91.5L113.755,90L113.823,90.5L113.892,93L113.96,94.75L114.029,95L114.166,93L114.234,91.5L114.302,92.5L114.371,91L114.439,92.5L114.508,93.75L114.576,92.25L114.645,90.25L114.713,87.25L114.782,86.75L114.85,87.25L114.918,91.75L114.987,93.25L115.055,93.25L115.124,93.25L115.192,90.5L115.261,90.75L115.329,91.5L115.398,94L115.466,95.5L115.534,94.75L115.671,94.5L115.74,93.5L115.808,92.75L115.877,92.75L115.945,94L116.014,95.5L116.082,93.5L116.15,90L116.219,89L116.287,88.5L116.356,89.25L116.424,89.75L116.493,92.75L116.561,92L116.63,89.25L116.698,90L116.766,89L116.835,90.5L116.903,93L116.972,94L117.04,90.75L117.109,89.5L117.177,86.75L117.246,84L117.314,85.25L117.383,86.75L117.451,88.75L117.519,89.25L117.588,88L117.656,87.25L117.725,87L117.793,89L117.862,90.5L117.93,92.25L117.999,91L118.067,87.25L118.135,86L118.204,85.75L118.272,85.5L118.341,88L118.409,89.5L118.478,87.25L118.546,85.5L118.615,83.5L118.683,84L118.751,84.25L118.82,87.25L118.888,88.5L118.957,85.5L119.025,83.5L119.094,85.25L119.162,82L119.231,83L119.299,86L119.367,87L119.436,84L119.504,81.75L119.573,80.25L119.641,79.75L119.71,83L119.778,84.25L119.847,83.5L119.915,82.75L119.983,80.5L120.052,80.25L120.12,83.5L120.189,85.75L120.257,89.25L120.326,90.5L120.394,90L120.463,89L120.531,91.25L120.599,92.5L120.668,95.75L120.736,96L120.805,96.5L120.873,96L120.945,95L121.013,95L121.081,96L121.15,97.5L121.218,100.5L121.287,101.75L121.424,100.75L121.492,100L121.561,100L121.629,102L121.697,103.25L121.766,103.25L121.834,101.25L121.903,101L121.971,103L122.04,104.75L122.108,106.5L122.177,106.5L122.245,105.75L122.313,105.75L122.382,104.75L122.45,106.25L122.519,107.25L122.587,106.75L122.656,105L122.793,105L122.861,105L122.93,107.25L122.998,107L123.066,106L123.135,105.25L123.203,106.5L123.272,106.75L123.34,106.25L123.409,107.75L123.477,107.5L123.546,106.5L123.614,104.75L123.682,105.5L123.751,104.25L123.819,104.75L123.888,105.5L123.956,107.5L124.025,106.25L124.093,105.75L124.298,105L124.367,105.25L124.435,104.75L124.504,103.5L124.572,102.75L124.641,102.25L124.709,101.5L124.778,101.25L124.846,102.75L124.914,104.75L125.051,105L125.12,104L125.257,103.75L125.325,105.25L125.394,105.75L125.462,106.75L125.53,106.75L125.599,105L125.667,103.75L125.736,103.5L125.804,104.5L125.873,105.75L125.941,107.5L126.01,109.5L126.078,111L126.215,111L126.283,111.75L126.352,111.75L126.42,111.75L126.489,111.75L126.626,110.75L126.694,110.5L126.762,112.5L126.831,115L126.899,114.75L126.968,113.75L127.036,111.75L127.173,108.25L127.242,107.75L127.31,108.25L127.379,108.25L127.447,107.25L127.515,105.5L127.652,103.75L127.721,103L127.789,102.25L127.858,103.75L127.926,105.5L127.995,105L128.131,103.5L128.2,101.75L128.268,101L128.337,100.75L128.405,100.25L128.474,99.25L128.542,95.75L128.611,93.25L128.679,91L128.747,90.75L128.816,91.5L128.884,93L128.953,92.25L129.021,90.5L129.09,88.5L129.158,89.75L129.227,92.75L129.295,95.75L129.363,99.25L129.432,97.25L129.5,95L129.569,93.75L129.637,94L129.706,95L129.774,95L129.843,97L129.911,97L129.979,94L130.045,91.75L130.114,92.75L130.182,92.5L130.25,94.5L130.319,95.5L130.387,94.5L130.524,93.75L130.593,92L130.661,92.5L130.73,93.25L130.798,95.5L130.866,97.5L130.935,96L131.003,93.75L131.072,92.5L131.14,92.25L131.209,92L131.277,91.75L131.346,91.5L131.414,86.75L131.482,84.25L131.551,84.75L131.619,84.75L131.688,81.5L131.756,82.25L131.825,83.25L131.893,83L131.962,79.5L132.03,77.75L132.098,79.25L132.167,80.75L132.235,82.25L132.304,84.25L132.372,82.5L132.441,79.5L132.509,79L132.578,77.25L132.646,78L132.714,80.5L132.783,82.75L132.851,80.5L132.92,75.5L132.988,75.5L133.057,76.75L133.125,78.5L133.194,80.25L133.262,82.25L133.33,81L133.399,78.75L133.467,81L133.536,80.25L133.604,81.5L133.673,83.5L133.741,85L133.81,84L133.878,81L133.946,79.5L134.015,81L134.083,84L134.152,85L134.22,84.5L134.289,84L134.357,80.75L134.426,79L134.494,81.5L134.563,84.25L134.631,87L134.699,87.5L134.768,88L134.836,86.75L134.905,86.5L134.973,90.25L135.042,92L135.11,93.5L135.179,92L135.315,91.75L135.384,89.5L135.452,90.5L135.521,92.25L135.589,95L135.658,98.5L135.726,99.25L135.795,97.5L135.863,98.75L135.931,98.25L136,99L136.068,101.75L136.137,103.75L136.205,102L136.274,100.75L136.342,99.5L136.411,98L136.479,99.75L136.547,103L136.616,104L136.684,102.25L136.753,100.5L136.821,99.25L136.89,97.5L136.958,97L137.027,100L137.095,101.5L137.163,99.75L137.232,98.5L137.3,97.75L137.369,95.75L137.437,97.5L137.506,98.5L137.574,99L137.643,96.75L137.711,94.25L137.779,93L137.848,93.5L137.916,93.75L137.985,96.25L138.053,98.5L138.122,97.25L138.19,95L138.259,95L138.327,95.5L138.396,96.75L138.464,98.75L138.532,100L138.601,98.75L138.669,97.5L138.738,98.5L138.806,100L138.875,101.5L138.943,103L139.012,102.75L139.08,101.25L139.148,99.25L139.217,99L139.285,98.5L139.354,101.5L139.422,103.25L139.491,103.5L139.559,102.25L139.628,101.25L139.696,100.5L139.764,100.5L139.833,101.25L139.901,102.75L139.97,103.75L140.038,103L140.107,99.25L140.175,99.5L140.244,98.5L140.312,100.25L140.38,101.5L140.449,100.5L140.517,98.5L140.586,95.5L140.654,95.25L140.723,94.25L140.791,94.5L140.86,94.25L140.928,92.75L141.065,91.5L141.133,92.5L141.202,90.25L141.27,90.5L141.339,92.75L141.407,94.5L141.476,92L141.544,90.5L141.612,89L141.681,87.75L141.749,86L141.818,88.75L141.886,91L141.955,90L142.023,87.5L142.092,85.5L142.16,81L142.228,82.75L142.297,82.75L142.365,85.5L142.434,84.75L142.502,83.25L142.571,82.25L142.639,82.75L142.708,84.5L142.776,86.75L142.845,89.25L142.913,87.75L142.981,87L143.05,87.75L143.118,84.25L143.187,82.75L143.255,86L143.324,87.5L143.392,85.5L143.461,83.5L143.529,83.5L143.597,84L143.666,82.75L143.734,84.25L143.803,87L143.871,86.25L143.94,86L144.008,86.25L144.077,87.5L144.145,87L144.213,91.5L144.282,92.75L144.35,92.5L144.419,89.5L144.487,87.25L144.556,87.5L144.624,89.75L144.693,90.75L144.761,91L144.829,87.5L144.898,84.75L144.966,83L145.035,81.25L145.103,81.75L145.172,86L145.24,88L145.309,86.5L145.377,86.25L145.445,86.5L145.514,87.25L145.582,89.75L145.651,91.25L145.719,93.5L145.788,93.75L145.856,92L145.925,91.25L145.993,88.5L146.061,89.75L146.13,91L146.198,92.75L146.267,90.75L146.338,88.75L146.407,87.75L146.475,88.75L146.543,92.25L146.612,91.75L146.68,91.5L146.749,89L146.817,87.75L146.886,89.5L146.954,92.25L147.023,96.25L147.091,98.75L147.159,98.75L147.228,97.5L147.296,96.75L147.365,98.5L147.433,99L147.57,100.5L147.639,99.75L147.707,99.5L147.775,97.75L147.844,99L147.912,100L147.981,102L148.049,103.75L148.118,106.25L148.186,104.75L148.255,103.5L148.323,105L148.392,107.75L148.46,110.5L148.528,111.75L148.597,113.75L148.734,113.25L148.802,112.25L148.871,113L148.939,115.5L149.008,116.75L149.076,115.75L149.144,114.75L149.213,112.5L149.281,111.5L149.35,112.5L149.418,113L149.487,112.25L149.624,111L149.692,108.75L149.76,106.25L149.829,108.25L149.897,106.25L149.966,107.25L150.034,106L150.103,105.25L150.171,103.25L150.24,103L150.308,102.75L150.376,102.5L150.445,102L150.513,100.25L150.582,99L150.65,98.5L150.719,100L150.787,99.5L150.856,96.25L150.924,96L151.061,95.25L151.129,95.5L151.198,96L151.266,98.25L151.335,98.25L151.403,99L151.54,99.75L151.608,98.75L151.677,100.25L151.745,100.75L151.814,101.75L151.882,103L151.951,104.5L152.088,102L152.156,102L152.225,101L152.293,101.75L152.361,101.75L152.43,100L152.567,97.5L152.635,97.25L152.704,98.75L152.772,99L152.841,99.25L152.909,99.5L152.977,98.25L153.046,96.75L153.114,95.25L153.183,95.5L153.251,97.5L153.32,99L153.388,98.75L153.457,96.75L153.525,95L153.593,93.5L153.662,94L153.73,93.5L153.799,94.25L153.867,92L153.936,91L154.004,88.25L154.073,87.25L154.141,86L154.209,88L154.278,90.25L154.346,91L154.415,88.5L154.483,87.5L154.552,88L154.62,87.5L154.689,87.75L154.757,88L154.825,87L154.894,84.5L154.96,84L155.028,83.5L155.096,83.25L155.165,85.5L155.233,88.75L155.302,88.5L155.37,87.25L155.439,85.5L155.507,85L155.576,86L155.644,88.25L155.712,89.25L155.781,89.25L155.918,86.5L155.986,85.75L156.055,86L156.123,86L156.192,87L156.26,88.5L156.328,88L156.397,84.5L156.465,84.25L156.534,83.25L156.602,82.5L156.671,84.5L156.739,86L156.808,83L156.876,79.5L156.944,79.75L157.013,80.75L157.081,81.75L157.15,82.5L157.218,81L157.287,78.25L157.355,75.25L157.424,74.75L157.492,76.25L157.56,78L157.629,78.5L157.697,74.5L157.766,70.5L157.834,68L157.903,66L157.971,69.25L158.04,72.25L158.108,71.75L158.176,72.25L158.245,69.25L158.313,68.75L158.382,68.75L158.45,72.25L158.519,72.25L158.587,73.25L158.724,73.75L158.792,71.75L158.861,72L158.929,74L158.998,76.75L159.066,76L159.135,76.75L159.272,73.5L159.34,73.75L159.409,75.5L159.477,78L159.545,81.25L159.614,82.25L159.682,81.25L159.751,80.5L159.819,81L159.888,83.25L159.956,87L160.025,89.75L160.161,90L160.23,87L160.298,85.5L160.367,86L160.435,87.75L160.504,91.5L160.572,93L160.641,93.75L160.709,91L160.777,90.25L160.846,91.75L160.914,92.5L160.983,94.75L161.051,96.25L161.12,96.25L161.188,94.25L161.257,95.5L161.325,94L161.393,94.75L161.462,94.5L161.53,96L161.599,94.75L161.667,91.5L161.736,90.25L161.804,91L161.873,89.5L161.941,91L162.009,94L162.078,92.25L162.146,89.5L162.215,90L162.283,91.5L162.352,90L162.42,91.75L162.489,92.25L162.557,91.25L162.625,89.75L162.694,86.5L162.762,86.25L162.831,86.5L162.899,87.25L162.968,88.5L163.036,87.5L163.105,85.5L163.173,85L163.242,85L163.31,84.75L163.378,88L163.447,91L163.515,88.75L163.584,85L163.652,85.5L163.721,87.5L163.789,87.5L163.858,87.5L163.926,90L163.994,89.25L164.063,86.75L164.131,86.5L164.2,87L164.268,88L164.337,89L164.405,92.25L164.474,89L164.542,86.25L164.61,84L164.679,82.75L164.747,83.75L164.816,85.75L164.884,86.75L164.953,85L165.021,83.5L165.09,81.75L165.158,80.75L165.226,82.5L165.295,85.25L165.363,83.75L165.432,81.75L165.5,78.75L165.569,80.75L165.637,82.25L165.706,82.25L165.774,82.75L165.842,82.5L165.911,78.75L165.979,75.5L166.048,75L166.116,75.25L166.185,75.75L166.253,77.5L166.322,78L166.39,77.5L166.458,76.5L166.527,77.75L166.595,78.25L166.664,81.75L166.732,84.5L166.801,84.25L166.938,84L167.006,83.5L167.074,81.75L167.143,81.75L167.211,84.5L167.28,87.25L167.348,86.75L167.417,85L167.485,85L167.554,84.25L167.622,86.25L167.691,87.25L167.759,89L167.827,86.75L167.896,84.75L167.964,82.5L168.033,81L168.101,81.75L168.17,83L168.238,84.75L168.307,83.5L168.375,80.5L168.443,79L168.512,76.25L168.58,75L168.649,76.25L168.717,78.5L168.786,74.5L168.854,73.25L168.923,73.75L168.991,71.25L169.059,69.5L169.128,72.75L169.196,74L169.265,72.75L169.333,70.75L169.402,68.5L169.47,68L169.539,69.5L169.607,72L169.675,72.75L169.744,70.25L169.812,69.25L169.881,69.25L169.949,69.75L170.018,72L170.086,76.75L170.155,78.5L170.223,78L170.291,75.25L170.36,77.25L170.428,80.25L170.497,83.25L170.565,87L170.634,89L170.702,88.25L170.771,85.75L170.839,86.5L170.907,85L170.976,83.75L171.044,87L171.113,90.25L171.181,88.5L171.253,85.5L171.321,85.25L171.389,83.25L171.458,84L171.526,84.75L171.595,86.25L171.663,84.5L171.732,82.75L171.8,84L171.869,83.5L171.937,85.75L172.005,87.75L172.074,90.25L172.142,89.5L172.211,88L172.279,87.5L172.348,88.25L172.416,88L172.485,87.75L172.553,87.5L172.621,86.25L172.69,84.75L172.758,85.25L172.827,88L172.895,91.25L172.964,94.25L173.032,96.75L173.101,94.75L173.169,92.25L173.238,92.75L173.306,95L173.374,97.5L173.443,101L173.511,102.25L173.58,101.25L173.648,99.75L173.717,99.75L173.785,99.5L173.854,101L173.922,102.25L173.99,102.25L174.059,101L174.127,98.25L174.196,97.75L174.264,98.5L174.333,99.75L174.401,102L174.538,102L174.606,98.5L174.675,97L174.743,97L174.812,97L174.88,98.5L174.949,98L175.017,95.25L175.086,92.25L175.154,91.25L175.222,91.5L175.291,91.5L175.359,93.75L175.428,94L175.496,93.25L175.565,88.5L175.633,88L175.702,87.75L175.77,86.25L175.838,88.75L175.907,90.25L175.975,88.5L176.044,86.75L176.112,83.75L176.181,82.5L176.249,83L176.318,85.25L176.386,86L176.454,83.75L176.523,82.5L176.591,81.5L176.66,84.25L176.728,85.75L176.797,87L176.865,86.5L176.934,85L177.002,84L177.07,83.75L177.139,80.75L177.207,81L177.276,82.5L177.344,84.5L177.413,82.75L177.481,81.25L177.55,79.25L177.618,82.75L177.687,84.5L177.755,86.75L177.823,87.75L177.892,83.75L177.96,80.25L178.029,78.75L178.097,79.75L178.166,83.75L178.234,85.75L178.303,84.75L178.439,82.25L178.508,81.75L178.576,81L178.645,78.75L178.713,80.75L178.782,81.5L178.85,79L178.919,78L178.987,75.25L179.055,73.25L179.124,70.75L179.192,72.5L179.261,77.5L179.329,77.25L179.398,73.75L179.466,71.5L179.535,71.75L179.603,72L179.671,74.5L179.74,76L179.808,75L179.874,72.25L179.942,74L180.011,77.25L180.079,81L180.148,83.75L180.216,84.5L180.285,81.75L180.353,80L180.422,79.25L180.49,77.25L180.558,77L180.627,80.25L180.695,83.75L180.764,81.25L180.832,79.75L180.901,78.75L180.969,76.5L181.038,78L181.106,79.25L181.174,82.75L181.243,81.5L181.311,80.25L181.38,79.5L181.448,81.25L181.517,80.25L181.585,81.25L181.654,83.25L181.722,80.25L181.79,75.5L181.859,74.25L181.927,75.75L181.996,74.75L182.064,75.25L182.133,75L182.201,73.25L182.27,71.5L182.338,72.25L182.406,71.75L182.475,72.5L182.543,76L182.612,76.5L182.68,74L182.749,70L182.817,69.5L182.886,68.75L182.954,71L183.022,73.25L183.091,76.75L183.159,79L183.228,74.5L183.296,74L183.365,74.75L183.433,73L183.502,75.5L183.57,79.25L183.638,77.5L183.707,72.5L183.775,73.5L183.844,76.25L183.912,76L183.981,77L184.049,77.75L184.118,75.75L184.186,72.75L184.255,70.5L184.323,69.25L184.391,70L184.46,72.25L184.528,75.5L184.597,74.25L184.665,72.25L184.734,72.5L184.802,73.5L184.871,74L184.939,76.75L185.007,78L185.076,75.75L185.144,74.25L185.213,69.25L185.281,71.75L185.35,73.75L185.418,74.25L185.487,77L185.555,76.75L185.623,75.5L185.692,75.5L185.76,78.5L185.829,80L185.897,82L185.966,81.75L186.034,80.25L186.103,77.25L186.171,77.75L186.239,78.5L186.308,82.5L186.376,86.5L186.445,84.5L186.513,83.25L186.582,81.25L186.65,82L186.719,81.5L186.787,83L186.855,86.25L186.924,86L186.992,83L187.061,81L187.129,82L187.198,82.5L187.266,86.25L187.335,85.25L187.471,82.25L187.54,78.5L187.608,77.75L187.677,75.25L187.745,76.25L187.814,77.5L187.882,76.75L187.951,71L188.019,67L188.087,65.75L188.156,66.5L188.224,69.75L188.293,71L188.361,71.25L188.43,69.25L188.498,66.75L188.567,66.75L188.635,65.25L188.704,66.25L188.772,66.5L188.84,68.5L188.909,67.5L188.977,63.25L189.046,62.5L189.114,62.25L189.183,62.75L189.251,63.5L189.32,62.25L189.456,59.5L189.525,58.25L189.593,59.75L189.662,57.5L189.73,56.5L189.799,56L189.867,55.75L189.936,54.25L190.004,54L190.072,56.5L190.141,55.25L190.209,58.5L190.278,58.25L190.346,54.5L190.415,49.25L190.483,50L190.552,48.5L190.62,47L190.688,47.75L190.757,49.75L190.825,47.75L190.894,44L190.962,42L191.031,37.75L191.099,37.75L191.168,40L191.236,41L191.304,41.75L191.373,38.75L191.441,37.25L191.51,38.75L191.578,43.25L191.647,44.5L191.715,50.75L191.784,51.5L191.852,50.75L191.92,48L191.989,44.5L192.057,44.5L192.126,47L192.194,52L192.263,49.75L192.331,46.75L192.4,47L192.468,47.5L192.537,46.75L192.605,51L192.673,53.5L192.742,54L192.81,51L192.879,47.75L192.947,48.5L193.016,50L193.084,55.25L193.153,58L193.221,55.5L193.289,56L193.358,55.25L193.426,57.25L193.495,55L193.563,56.25L193.632,55.75L193.7,53.5L193.769,49L193.837,48.5L193.905,50L193.974,52.5L194.042,57.5L194.111,59L194.179,58L194.248,57.25L194.316,57.5L194.385,59.25L194.453,61.25L194.521,64L194.59,65.5L194.658,62.5L194.727,60.75L194.795,60L194.864,59.25L194.932,62.5L195.001,66.5L195.069,68L195.137,66L195.206,62.75L195.274,64.5L195.343,65.75L195.411,67L195.48,69.75L195.548,75.5L195.617,74.5L195.685,72.25L195.753,72.5L195.822,74.25L195.89,76.25L195.959,77.75L196.027,78.5L196.096,76.5L196.167,75.25L196.235,73.25L196.304,72.5L196.372,74L196.441,77.25L196.509,78.75L196.578,79L196.646,76.5L196.715,73.5L196.783,73.5L196.851,75.25L196.92,80L196.988,81.75L197.057,81.25L197.125,78.5L197.194,78L197.262,79.75L197.331,79.5L197.399,79.75L197.467,80L197.536,79L197.604,77L197.673,75.75L197.741,77L197.81,80L197.878,80.5L197.947,80L198.015,76.25L198.084,74.25L198.152,76.5L198.22,78.5L198.289,81.5L198.357,78L198.426,77L198.494,73.25L198.563,71L198.631,72.5L198.7,74.75L198.768,80L198.836,80.75L198.905,80L198.973,77L199.042,75.5L199.11,76.25L199.179,76.5L199.247,75.5L199.316,74.25L199.384,75.75L199.521,73L199.589,73.25L199.658,74L199.726,74.25L199.795,72.5L199.863,71.25L200.068,68L200.137,67.5L200.205,68.75L200.274,72.75L200.342,71.25L200.411,69L200.479,67.5L200.548,66.5L200.616,68.5L200.684,70.5L200.753,73.25L200.821,75.75L200.89,74L200.958,73.25L201.027,70L201.095,71.75L201.164,73.25L201.232,73.5L201.3,74L201.437,71.25L201.506,69.75L201.574,70.5L201.643,73.25L201.711,74L201.78,73L201.848,70L201.916,67L201.985,67L202.053,66.25L202.122,69.25L202.19,72.5" stroke="#4c78a8" stroke-width="2"/></g><g class="mark-group role-title"><g transform="translate(100,-22)"><path class="background" aria-hidden="true" d="M0,0h0v0h0Z" pointer-events="none"/><g><g class="mark-text role-title-text" role="graphics-symbol" aria-roledescription="title" aria-label="Title text 'Street Condition: Blocked - Construction'" pointer-events="none"><text text-anchor="middle" transform="translate(0,10)" font-family="sans-serif" font-size="13px" font-weight="bold" fill="#000" opacity="1">Street Condition: Blocked - Construction</text></g></g><path class="foreground" aria-hidden="true" d="" pointer-events="none" display="none"/></g></g></g><path class="foreground" aria-hidden="true" d="" display="none"/></g></g></g><defs><clipPath id="clip144"><rect x="0" y="0" width="200" height="150"/></clipPath></defs></svg>