<svg xmlns="http://www.w3.org/2000/svg" xmlns:xlink="http://www.w3.org/1999/xlink" version="1.1" class="marks" width="242" height="194" viewBox="0 0 242 194"><rect width="242" height="194" fill="white"/><g fill="none" stroke-miterlimit="10" transform="translate(29,22)"><g class="mark-group role-frame root" role="graphics-object" aria-roledescription="group mark container"><g transform="translate(0,0)"><path class="background" aria-hidden="true" d="M0,0h200v150h-200Z"/><g><g class="mark-group role-axis" aria-hidden="true"><g transform="translate(0.5,0.5)"><path class="background" aria-hidden="true" d="M0,0h0v0h0Z" pointer-events="none"/><g><g class="mark-rule role-axis-grid" pointer-events="none"><line transform="translate(0,150)" x2="200" y2="0" stroke="#ddd" stroke-width="1" opacity="1"/><line transform="translate(0,108)" x2="200" y2="0" stroke="#ddd" stroke-width="1" opacity="1"/><line transform="translate(0,67)" x2="200" y2="0" stroke="#ddd" stroke-width="1" opacity="1"/><line transform="translate(0,25)" x2="200" y2="0" stroke="#ddd" stroke-width="1" opacity="1"/></g></g><path class="foreground" aria-hidden="true" d="" pointer-events="none" display="none"/></g></g><g class="mark-group role-axis" role="graphics-symbol" aria-roledescription="axis" aria-label="X-axis for a time scale with values from Friday, 01 January 2016, 12:00:00 AM to Monday, 01 January 2024, 12:00:00 AM"><g transform="translate(0.5,150.5)"><path class="background" aria-hidden="true" d="M0,0h0v0h0Z" pointer-events="none"/><g><g class="mark-rule role-axis-tick" pointer-events="none"><line transform="translate(0,0)" x2="0" y2="5" stroke="#888" stroke-width="1" opacity="1"/><line transform="translate(50,0)" x2="0" y2="5" stroke="#888" stroke-width="1" opacity="1"/><line transform="translate(100,0)" x2="0" y2="5" stroke="#888" stroke-width="1" opacity="1"/><line transform="translate(150,0)" x2="0" y2="5" stroke="#888" stroke-width="1" opacity="1"/><line transform="translate(200,0)" x2="0" y2="5" stroke="#888" stroke-width="1" opacity="1"/></g><g class="mark-text role-axis-label" pointer-events="none"><text text-anchor="start" transform="translate(0,15)" font-family="sans-serif" font-size="10px" fill="#000" opacity="1">2016</text><text text-anchor="middle" transform="translate(50.03422313483915,15)" font-family="sans-serif" font-size="10px" fill="#000" opacity="1">2018</text><text text-anchor="middle" transform="translate(100,15)" font-family="sans-serif" font-size="10px" fill="#000" opacity="1">2020</text><text text-anchor="middle" transform="translate(150.03422313483915,15)" font-family="sans-serif" font-size="10px" fill="#000" opacity="1">2022</text><text text-anchor="end" transform="translate(200,15)" font-family="sans-serif" font-size="10px" fill="#000" opacity="1">2024</text></g><g class="mark-rule role-axis-domain" pointer-events="none"><line transform="translate(0,0)" x2="200" y2="0" stroke="#888" stroke-width="1" opacity="1"/></g></g><path class="foreground" aria-hidden="true" d="" pointer-events="none" display="none"/></g></g><g class="mark-group role-axis" role="graphics-symbol" aria-roledescription="axis" aria-label="Y-axis for a linear scale with values from 0 to 180"><g transform="translate(0.5,0.5)"><path class="background" aria-hidden="true" d="M0,0h0v0h0Z" pointer-events="none"/><g><g class="mark-rule role-axis-tick" pointer-events="none"><line transform="translate(0,150)" x2="-5" y2="0" stroke="#888" stroke-opacity="0" stroke-width="1" opacity="1"/><line transform="translate(0,108)" x2="-5" y2="0" stroke="#888" stroke-opacity="0" stroke-width="1" opacity="1"/><line transform="translate(0,67)" x2="-5" y2="0" stroke="#888" stroke-opacity="0" stroke-width="1" opacity="1"/><line transform="translate(0,25)" x2="-5" y2="0" stroke="#888" stroke-opacity="0" stroke-width="1" opacity="1"/></g><g class="mark-text role-axis-label" pointer-events="none"><text text-anchor="end" transform="translate(-7,153)" font-family="sans-serif" font-size="10px" fill="#000" opacity="1">0</text><text text-anchor="end" transform="translate(-7,111.33333333333333)" font-family="sans-serif" font-size="10px" fill="#000" opacity="1">50</text><text text-anchor="end" transform="translate(-7,69.66666666666666)" font-family="sans-serif" font-size="10px" fill="#000" opacity="1">100</text><text text-anchor="end" transform="translate(-7,27.999999999999993)" font-family="sans-serif" font-size="10px" fill="#000" opacity="1">150</text></g></g><path class="foreground" aria-hidden="true" d="" pointer-events="none" display="none"/></g></g><g class="mark-line role-mark marks" clip-path="url(#clip127)" role="graphics-object" aria-roledescription="line mark container"><path aria-label="day: Jan 01, 2010; avg: 31.4333333333" role="graphics-symbol" aria-roledescription="line mark" d="M-149.966,123.806L-149.897,123.667L-149.829,123.028L-149.76,121.444L-149.692,121.611L-149.624,121.583L-149.555,121.639L-149.487,122.778L-149.418,123.833L-149.35,123.306L-149.281,122.278L-149.213,123.472L-149.144,124.278L-149.076,124.583L-149.008,125.639L-148.939,126.361L-148.871,126.417L-148.802,126.167L-148.734,126.111L-148.665,126.25L-148.597,126.5L-148.528,127.667L-148.46,128.528L-148.392,127.75L-148.323,126.861L-148.255,126.389L-148.186,126.806L-148.118,127.833L-148.049,128.722L-147.981,129.083L-147.912,128.556L-147.844,127.889L-147.775,127.556L-147.707,127.528L-147.639,127.5L-147.57,128.111L-147.502,128.639L-147.433,127.778L-147.365,127L-147.296,126.833L-147.228,126.5L-147.159,125.444L-147.091,125.583L-147.023,125.833L-146.954,124.722L-146.886,123.417L-146.817,123.167L-146.749,122.611L-146.68,122.361L-146.612,122.972L-146.543,123.528L-146.475,123.056L-146.407,122L-146.338,122.139L-146.27,122.194L-146.201,122.194L-146.133,122.278L-146.064,122.194L-145.996,121.25L-145.927,120.944L-145.859,121.306L-145.791,121.472L-145.722,121.75L-145.654,123.167L-145.585,124.139L-145.517,123.861L-145.448,123.611L-145.38,123.694L-145.311,123.806L-145.243,124.194L-145.175,125.167L-145.106,125.889L-145.038,125.111L-144.972,124.083L-144.904,124.306L-144.835,124.806L-144.767,124.694L-144.698,125.194L-144.63,125.778L-144.561,124.944L-144.493,124.139L-144.424,123.861L-144.356,124.5L-144.288,125.028L-144.219,125.722L-144.151,126.694L-144.082,126.528L-144.014,125.944L-143.945,125.861L-143.877,125.417L-143.808,125.25L-143.74,125.833L-143.672,126.389L-143.603,125.389L-143.535,124.361L-143.466,124.278L-143.398,124.111L-143.329,124.5L-143.261,124.611L-143.192,124.972L-143.124,124.222L-143.056,123.306L-142.987,122.694L-142.919,122.833L-142.85,123.056L-142.782,123.389L-142.713,123.722L-142.645,123.139L-142.576,122.667L-142.508,122.694L-142.44,122.75L-142.371,123L-142.303,123.278L-142.234,123.5L-142.166,122.389L-142.097,121.583L-142.029,121L-141.96,120.667L-141.892,120.583L-141.824,121.556L-141.755,122.056L-141.687,122L-141.618,121.472L-141.55,121.528L-141.481,121.694L-141.413,121.667L-141.344,121.944L-141.276,122.278L-141.208,121.417L-141.139,120.722L-141.071,121.194L-141.002,121.583L-140.934,122.444L-140.865,123.056L-140.797,123.833L-140.728,123.028L-140.66,122.583L-140.591,122.917L-140.523,122.611L-140.455,122.75L-140.386,123.583L-140.318,124.417L-140.249,123.694L-140.181,123.056L-140.112,123.75L-140.044,123.972L-139.975,124.194L-139.907,125L-139.839,125.833L-139.77,124.722L-139.702,124.444L-139.633,123.583L-139.565,123.972L-139.496,124.306L-139.428,124.917L-139.359,125.528L-139.291,125.639L-139.223,125.306L-139.154,126.139L-139.086,126L-139.017,125.806L-138.949,126.306L-138.88,126.556L-138.812,125.694L-138.743,124.5L-138.675,124.861L-138.607,124.639L-138.538,124.694L-138.47,125.5L-138.401,126.389L-138.333,125.75L-138.264,125.167L-138.196,125.444L-138.127,125.306L-138.059,125.083L-137.991,125.278L-137.922,125.944L-137.854,125.167L-137.785,124.222L-137.717,124.667L-137.648,124.194L-137.58,124.278L-137.511,124.444L-137.443,124.861L-137.375,124.222L-137.306,122.444L-137.238,121.5L-137.169,121.194L-137.101,121.306L-137.032,122.083L-136.964,123L-136.895,122.5L-136.827,121.583L-136.758,121.25L-136.69,121.639L-136.622,121.528L-136.553,122.306L-136.485,122.667L-136.416,121.472L-136.348,120.75L-136.279,120.583L-136.211,120.278L-136.142,120.278L-136.074,120.917L-136.006,121.556L-135.937,121.306L-135.869,120.667L-135.8,121.167L-135.732,121.417L-135.663,121.333L-135.595,121.75L-135.526,122.306L-135.458,121.583L-135.39,121.028L-135.321,121.111L-135.253,122.139L-135.184,122.972L-135.116,123.806L-135.047,124.222L-134.979,124.389L-134.91,123.139L-134.842,122.861L-134.774,123.25L-134.705,123.722L-134.637,124.417L-134.568,125.194L-134.5,124.5L-134.431,123.556L-134.363,124.028L-134.294,123.778L-134.226,124.25L-134.158,124.722L-134.089,125.5L-134.021,124.75L-133.952,123.944L-133.884,123.611L-133.815,123.75L-133.747,123.722L-133.678,124.361L-133.61,124.667L-133.542,124.194L-133.473,123.611L-133.405,123.722L-133.336,123.722L-133.268,124.167L-133.199,124.5L-133.131,124.778L-133.062,123.889L-132.994,122.917L-132.926,122.444L-132.857,122.694L-132.789,123.167L-132.72,123.556L-132.652,124.306L-132.583,124.083L-132.515,123.333L-132.446,123.556L-132.378,124.111L-132.309,124.333L-132.241,125.056L-132.173,125.333L-132.104,125.056L-132.036,124.194L-131.967,124.25L-131.899,124.694L-131.83,125.278L-131.762,125.667L-131.693,126.167L-131.625,125.111L-131.557,124.889L-131.488,125.361L-131.42,125.611L-131.351,125.778L-131.283,126.222L-131.214,126.583L-131.146,126.361L-131.077,125.806L-131.009,126.111L-130.941,126.667L-130.872,126.944L-130.804,127.722L-130.735,127.889L-130.667,127.861L-130.598,127.194L-130.53,126.889L-130.461,127.5L-130.393,127.306L-130.325,127.472L-130.256,128.111L-130.188,127.472L-130.119,126.861L-130.051,126.722L-129.982,127.028L-129.914,127.333L-129.845,127.611L-129.777,127.889L-129.709,127.667L-129.64,127.111L-129.572,127.694L-129.503,128.278L-129.435,128.556L-129.366,129.139L-129.298,129.667L-129.229,129.222L-129.161,128.278L-129.093,128.389L-129.024,128.722L-128.956,129L-128.887,129.25L-128.819,129.472L-128.75,128.694L-128.679,128.639L-128.611,128.444L-128.542,128.667L-128.474,128.639L-128.405,128.722L-128.337,129.722L-128.268,129.222L-128.2,128.889L-128.131,129.111L-128.063,129.139L-127.995,129.306L-127.926,129.778L-127.858,130.556L-127.789,130.306L-127.721,129.806L-127.652,129.833L-127.584,129.778L-127.515,130.222L-127.447,130.306L-127.379,130.722L-127.31,130.833L-127.242,131L-127.173,131.667L-127.105,132.722L-127.036,133.278L-126.968,133.639L-126.899,134.056L-126.831,133.778L-126.762,133.639L-126.694,134.222L-126.626,133.861L-126.557,134.056L-126.489,134.694L-126.42,135.194L-126.352,134.806L-126.283,134L-126.215,134.972L-126.146,135.278L-126.078,135.75L-126.01,136.333L-125.941,136.806L-125.873,136.5L-125.804,135.972L-125.736,135.917L-125.667,135.444L-125.599,135.556L-125.53,136L-125.462,136.25L-125.394,135.778L-125.325,135.306L-125.257,134.833L-125.188,134.917L-125.12,135.111L-125.051,135.139L-124.983,134.861L-124.914,134.278L-124.846,134.167L-124.778,134.417L-124.709,134.361L-124.641,134.306L-124.572,135L-124.504,135.361L-124.435,134.611L-124.367,133.5L-124.298,132.75L-124.23,132.611L-124.162,132.028L-124.093,131.417L-124.025,131.056L-123.956,128.667L-123.888,126.556L-123.819,125.444L-123.751,124.389L-123.682,123.194L-123.614,124.028L-123.546,124.111L-123.477,123.944L-123.409,122.306L-123.34,121.611L-123.272,120.917L-123.203,120.722L-123.135,120.167L-123.066,119.861L-122.998,118.361L-122.93,117.25L-122.861,116.75L-122.793,116.278L-122.724,115.611L-122.656,115.472L-122.587,115.944L-122.519,115.028L-122.45,113.75L-122.382,113.389L-122.313,113.417L-122.245,114.111L-122.177,114.667L-122.108,114.917L-122.04,114.556L-121.971,113.306L-121.903,114.333L-121.834,115.472L-121.766,116.028L-121.697,117.25L-121.629,118.833L-121.561,118.306L-121.492,117.861L-121.424,117.944L-121.355,118.639L-121.287,118.889L-121.218,119.694L-121.15,120.139L-121.081,119.389L-121.013,118.417L-120.945,119.111L-120.876,119.222L-120.808,119.222L-120.739,119.5L-120.671,120.278L-120.602,119.278L-120.534,118.333L-120.465,118.472L-120.397,118.889L-120.329,119.361L-120.26,120.167L-120.192,120.333L-120.123,119.917L-120.058,119.556L-119.989,119.806L-119.921,120.694L-119.852,121.389L-119.784,122.167L-119.715,123.194L-119.647,122.944L-119.578,122.361L-119.51,122.444L-119.442,122.528L-119.373,122.167L-119.305,122.75L-119.236,123.389L-119.168,122.833L-119.099,122.028L-119.031,122.167L-118.962,122.861L-118.894,122.944L-118.826,123.5L-118.757,124.417L-118.689,123.75L-118.62,123.167L-118.552,123.917L-118.483,124.028L-118.415,123.889L-118.346,124.806L-118.278,125.25L-118.21,124.667L-118.141,124.611L-118.073,124.417L-118.004,124.417L-117.936,124.222L-117.867,124.778L-117.799,125.417L-117.73,125.306L-117.662,124.444L-117.594,124.583L-117.525,124.583L-117.457,124.833L-117.388,125.306L-117.32,125.917L-117.251,124.889L-117.183,124.139L-117.114,124L-117.046,124L-116.978,124.472L-116.909,124.472L-116.841,125.083L-116.772,125.583L-116.704,124.917L-116.635,124.306L-116.567,124.194L-116.498,124.389L-116.43,125L-116.362,125.75L-116.293,124.389L-116.225,124.028L-116.156,124L-116.088,123.694L-116.019,124.25L-115.951,124.694L-115.882,125.306L-115.814,124.556L-115.745,123.722L-115.677,123.056L-115.609,123.139L-115.54,123.194L-115.472,123.722L-115.403,124.028L-115.335,123.694L-115.266,122.722L-115.198,123.222L-115.129,123.472L-115.061,123.806L-114.993,124.472L-114.924,125L-114.856,124.667L-114.787,124L-114.719,123.583L-114.65,123.528L-114.582,124.556L-114.513,125.333L-114.445,125.722L-114.377,125.944L-114.308,125.389L-114.24,125.944L-114.171,125.528L-114.103,125.889L-114.034,126.694L-113.966,126.917L-113.897,126.167L-113.829,125.389L-113.761,125.333L-113.692,125.278L-113.624,125.639L-113.555,126.167L-113.487,126.306L-113.418,125.389L-113.35,124.861L-113.281,124.639L-113.213,124.861L-113.145,125.111L-113.076,125.694L-113.008,126.139L-112.939,125.917L-112.871,124.694L-112.802,124.833L-112.734,124.889L-112.665,124.667L-112.597,125.417L-112.529,125.833L-112.46,125.056L-112.392,124.25L-112.323,123.806L-112.255,123.833L-112.186,123.778L-112.118,124.5L-112.049,124.833L-111.981,123.833L-111.913,123.25L-111.844,123.611L-111.776,124.167L-111.707,124.639L-111.639,125.194L-111.57,125.806L-111.502,125.472L-111.433,125.222L-111.365,125.278L-111.296,125.389L-111.228,125.417L-111.16,125.806L-111.091,126.528L-111.023,126.056L-110.954,125.25L-110.886,125.056L-110.817,125.889L-110.749,126.639L-110.68,127.417L-110.612,128.306L-110.544,127.833L-110.475,127.639L-110.407,127.611L-110.338,128.222L-110.27,128.111L-110.201,128.556L-110.133,129.417L-110.064,129.278L-109.996,129.111L-109.928,129.611L-109.859,129.667L-109.791,129.417L-109.722,130L-109.654,130.528L-109.585,129.833L-109.517,128.917L-109.448,128.639L-109.38,127.722L-109.312,128.028L-109.243,128.167L-109.175,128.778L-109.106,128.417L-109.038,127.306L-108.969,126.972L-108.901,126.75L-108.832,126.861L-108.764,126.889L-108.696,126.389L-108.627,125.472L-108.559,124.194L-108.49,124.361L-108.422,123.944L-108.353,124.194L-108.285,124.306L-108.216,124.972L-108.148,124.583L-108.08,123.722L-108.011,123.389L-107.943,123.139L-107.874,122.917L-107.806,123.611L-107.737,124.25L-107.669,124L-107.6,122.917L-107.532,123.361L-107.463,123.806L-107.395,124.361L-107.327,125.389L-107.258,125.75L-107.19,125.361L-107.121,124.611L-107.053,124.944L-106.984,125.444L-106.916,125.778L-106.847,126.694L-106.779,127.194L-106.711,126.361L-106.642,126.139L-106.574,126.139L-106.505,127.028L-106.437,127.222L-106.368,128L-106.3,128.611L-106.231,128.361L-106.163,127.278L-106.095,127.306L-106.026,127.444L-105.958,127.75L-105.889,128.306L-105.821,128.972L-105.752,127.944L-105.684,127.694L-105.615,127.417L-105.547,127.806L-105.479,128.222L-105.41,128.611L-105.342,128.694L-105.273,128.111L-105.205,128.028L-105.136,128.417L-105.068,128.889L-104.999,128.194L-104.931,128.333L-104.863,128.778L-104.794,128.306L-104.726,127.833L-104.657,128.722L-104.589,129.472L-104.52,129.611L-104.452,129.75L-104.383,129.778L-104.315,128.444L-104.247,127.694L-104.178,127.528L-104.11,128.306L-104.041,128.222L-103.973,128.75L-103.904,129.083L-103.836,128.528L-103.765,128.083L-103.696,128.639L-103.628,128.583L-103.559,128.722L-103.491,129.556L-103.422,129.75L-103.354,129.167L-103.285,128.861L-103.217,129.361L-103.149,129.417L-103.08,129.417L-103.012,129.694L-102.943,130.75L-102.875,130.306L-102.806,129.889L-102.738,130.278L-102.669,130.333L-102.601,130.222L-102.533,130.25L-102.464,131.056L-102.396,131.111L-102.327,131.083L-102.259,132.056L-102.19,132.389L-102.122,132.583L-102.053,132.833L-101.985,133.611L-101.916,133.583L-101.848,133.25L-101.78,133.5L-101.711,133.111L-101.643,132.778L-101.574,133.056L-101.506,133.472L-101.437,132.639L-101.369,131.889L-101.3,132.139L-101.232,131.889L-101.164,131.444L-101.095,131.75L-101.027,132.278L-100.958,132.083L-100.89,131.528L-100.821,131.639L-100.753,131.194L-100.684,130.917L-100.616,131.5L-100.548,132.028L-100.479,131.472L-100.411,130.528L-100.342,130.028L-100.274,129.833L-100.205,129.583L-100.137,129.722L-100.068,130.139L-100,129.611L-99.932,129.083L-99.863,128.583L-99.795,128.222L-99.726,128.278L-99.658,128.833L-99.589,129.472L-99.521,129L-99.452,128.25L-99.384,128.5L-99.316,128.75L-99.247,128.917L-99.179,129.611L-99.11,130.611L-99.042,130.167L-98.973,129.222L-98.905,128.639L-98.836,128.778L-98.768,128.861L-98.7,129.667L-98.631,130.361L-98.563,130.194L-98.494,129.333L-98.426,129.389L-98.357,129.361L-98.289,129.528L-98.22,129.694L-98.152,130.194L-98.084,129.667L-98.015,129.389L-97.947,129.472L-97.878,129.556L-97.81,129.75L-97.741,130.472L-97.673,130.833L-97.604,130.194L-97.536,129.806L-97.467,130.139L-97.399,130.111L-97.331,130.25L-97.262,130.639L-97.194,130.917L-97.125,130.583L-97.057,130.083L-96.988,130.361L-96.92,130.556L-96.851,130.806L-96.783,131.167L-96.715,131.528L-96.646,131.028L-96.578,130.333L-96.509,129.889L-96.441,129.972L-96.372,129.917L-96.304,130.556L-96.235,130.778L-96.167,130.556L-96.099,130.056L-96.03,130.556L-95.962,130.306L-95.893,130.333L-95.825,130.556L-95.756,131L-95.688,130.361L-95.619,129.861L-95.551,130.139L-95.483,129.889L-95.414,129.917L-95.346,130.556L-95.277,131.056L-95.209,130.306L-95.143,129.611L-95.075,129.556L-95.006,129.5L-94.938,129.333L-94.869,129.889L-94.801,130.444L-94.732,129.611L-94.664,129.083L-94.596,128.917L-94.527,129.083L-94.459,128.667L-94.39,129.278L-94.322,129.472L-94.253,129.194L-94.185,128.5L-94.116,128.389L-94.048,128.25L-93.98,127.694L-93.911,128.083L-93.843,128.139L-93.774,127.361L-93.706,126.889L-93.637,126.583L-93.569,126.361L-93.5,126.694L-93.432,127.444L-93.364,127.778L-93.295,127.278L-93.227,126.667L-93.158,127.056L-93.09,127.389L-93.021,127.417L-92.953,127.639L-92.884,128.25L-92.816,127.583L-92.748,127.194L-92.679,127.833L-92.611,128.222L-92.542,128.389L-92.474,128.333L-92.405,129.25L-92.337,128.611L-92.268,128.306L-92.2,128.306L-92.132,128.611L-92.063,128.806L-91.995,129.278L-91.926,130L-91.858,130.25L-91.789,129.528L-91.721,130.056L-91.652,129.833L-91.584,130.25L-91.516,130.778L-91.447,131.111L-91.379,130.806L-91.31,130L-91.242,129.833L-91.173,129.972L-91.105,129.944L-91.036,130.028L-90.968,130.528L-90.899,130.083L-90.831,129.028L-90.763,129.306L-90.694,128.889L-90.626,128.917L-90.557,129.278L-90.489,129.944L-90.42,129.667L-90.352,128.944L-90.283,129.222L-90.215,129.583L-90.147,129.361L-90.078,129.5L-90.01,129.944L-89.941,129.389L-89.873,128.694L-89.804,127.528L-89.736,127.611L-89.667,127.111L-89.599,127.556L-89.531,128.056L-89.462,127.528L-89.394,127L-89.325,127.139L-89.257,127.333L-89.188,127.333L-89.12,127.472L-89.051,127.917L-88.983,127.361L-88.915,126.778L-88.846,126.333L-88.778,126.361L-88.709,126.25L-88.641,126.889L-88.572,126.972L-88.504,125.917L-88.435,125.139L-88.367,125.139L-88.299,124.694L-88.23,124.389L-88.162,124.417L-88.093,124.917L-88.025,124.528L-87.956,123.694L-87.888,123.833L-87.819,124.222L-87.751,124.611L-87.683,125.194L-87.614,125.972L-87.546,124.889L-87.477,123.944L-87.409,124.167L-87.34,123.806L-87.272,123.444L-87.203,124.056L-87.135,124.639L-87.067,124.083L-86.998,123.472L-86.93,123.278L-86.861,122.972L-86.793,123.194L-86.724,123.806L-86.656,124.389L-86.587,123.528L-86.519,122.75L-86.45,123.25L-86.382,123.167L-86.314,123.194L-86.245,124.139L-86.177,124.583L-86.108,123.972L-86.04,123.278L-85.971,123.472L-85.903,123.389L-85.834,123.778L-85.766,124.083L-85.698,124.694L-85.629,124.389L-85.561,124.056L-85.492,125L-85.424,125.5L-85.355,125.389L-85.287,126.167L-85.218,126.583L-85.15,126.472L-85.082,125.556L-85.013,125.75L-84.945,125.417L-84.876,125.833L-84.808,126.611L-84.739,127.417L-84.671,126.889L-84.602,125.917L-84.534,126.306L-84.466,126.472L-84.397,126.139L-84.329,126.944L-84.26,127.5L-84.192,127L-84.123,126.639L-84.055,126.861L-83.986,126.917L-83.918,126.444L-83.85,126.889L-83.781,127.056L-83.713,126.417L-83.644,125.778L-83.576,125.694L-83.507,125.167L-83.439,125.278L-83.37,125.5L-83.302,126.111L-83.234,125.667L-83.165,125.361L-83.097,124.944L-83.028,125.139L-82.96,125.306L-82.891,126.056L-82.823,126.639L-82.754,126.389L-82.686,126.028L-82.617,126.056L-82.549,126.75L-82.481,126.694L-82.412,127.472L-82.344,128.389L-82.275,127.417L-82.207,126.639L-82.138,126.972L-82.07,126.833L-82.001,126.472L-81.933,126.75L-81.865,127.778L-81.796,127.333L-81.728,126.472L-81.659,126.889L-81.591,126.333L-81.522,126.778L-81.454,127.611L-81.385,128.111L-81.317,128.333L-81.249,128.528L-81.18,129.278L-81.112,129.667L-81.043,130.083L-80.975,131.083L-80.906,131.5L-80.838,131.583L-80.769,131.222L-80.701,130.972L-80.633,131.028L-80.564,131.417L-80.496,131.139L-80.427,131.444L-80.359,131.056L-80.29,129.806L-80.222,130.139L-80.153,129.556L-80.085,128.444L-80.017,128.667L-79.948,129.056L-79.88,127.972L-79.811,126.556L-79.743,125.917L-79.674,126.889L-79.606,125.778L-79.537,126.528L-79.469,126.333L-79.401,124.472L-79.332,123.083L-79.264,121.028L-79.195,119.306L-79.127,117.917L-79.058,117.75L-78.99,117.417L-78.921,115.972L-78.85,114.694L-78.782,113.5L-78.713,112.833L-78.645,112.333L-78.576,112.444L-78.508,112.5L-78.439,111.417L-78.371,110.889L-78.303,110.472L-78.234,110.167L-78.166,110.194L-78.097,111.361L-78.029,112.611L-77.96,111.806L-77.892,111.333L-77.823,112L-77.755,112.389L-77.687,112.583L-77.618,112.111L-77.55,113.472L-77.481,113.194L-77.413,113.639L-77.344,115L-77.276,114.944L-77.207,116.167L-77.139,117.722L-77.07,119.028L-77.002,118.611L-76.934,118.833L-76.865,119.167L-76.797,118.778L-76.728,118.972L-76.66,119.528L-76.591,120.083L-76.523,118.806L-76.454,117.472L-76.386,118.222L-76.318,117.861L-76.249,117.694L-76.181,119.028L-76.112,119.278L-76.044,117.917L-75.975,117.417L-75.907,117.889L-75.838,117.889L-75.77,118.25L-75.702,118.944L-75.633,120.111L-75.565,120.083L-75.496,119.694L-75.428,119.889L-75.359,119.111L-75.291,119.028L-75.222,120.25L-75.154,120.861L-75.086,119.778L-75.017,118.778L-74.949,118.389L-74.88,117.722L-74.812,117.917L-74.743,119.444L-74.675,120.5L-74.606,120.667L-74.538,120.222L-74.47,121.028L-74.401,121.944L-74.333,122.639L-74.264,123.972L-74.196,124.917L-74.127,124.917L-74.059,124.389L-73.99,125L-73.922,124.833L-73.854,124.472L-73.785,125.139L-73.717,125.611L-73.648,124.833L-73.58,124.028L-73.511,123.917L-73.443,122.944L-73.374,122.861L-73.306,123.444L-73.238,123.944L-73.169,121.944L-73.101,121.194L-73.032,121.389L-72.964,121.222L-72.895,121.25L-72.827,121.778L-72.758,122.306L-72.69,121.111L-72.621,120.222L-72.553,119.639L-72.485,119.417L-72.416,119.861L-72.348,120.278L-72.279,120.25L-72.211,118.667L-72.142,117.417L-72.074,116.389L-72.005,116.333L-71.937,116.472L-71.869,117.167L-71.8,118.361L-71.732,118.306L-71.663,117.611L-71.595,117.861L-71.526,118.028L-71.458,117.889L-71.389,119.139L-71.321,119.667L-71.253,118.694L-71.184,118.278L-71.116,119.583L-71.047,119.5L-70.979,119.722L-70.91,120.806L-70.842,121.639L-70.773,121.278L-70.705,120.861L-70.637,121.222L-70.568,121.139L-70.5,120.583L-70.431,121.611L-70.363,121.722L-70.294,121.111L-70.229,120.778L-70.16,121.278L-70.092,121.167L-70.023,122.056L-69.955,122.75L-69.886,123.167L-69.818,122.639L-69.75,121.333L-69.681,120.528L-69.613,120.111L-69.544,119.972L-69.476,120.361L-69.407,120.861L-69.339,120.444L-69.27,119.944L-69.202,120.083L-69.134,120.167L-69.065,119.75L-68.997,120.75L-68.928,120.806L-68.86,119.972L-68.791,118.806L-68.723,118.667L-68.654,118.361L-68.586,119.028L-68.518,120.028L-68.449,121.389L-68.381,120.611L-68.312,119.194L-68.244,119.333L-68.175,119.056L-68.107,119.5L-68.038,120.556L-67.97,120.75L-67.902,119.861L-67.833,118.556L-67.765,118.583L-67.696,119.361L-67.628,119.722L-67.559,120.778L-67.491,121.778L-67.422,121.583L-67.354,120.694L-67.286,120L-67.217,120.083L-67.149,120.694L-67.08,121.083L-67.012,121.889L-66.943,121.806L-66.875,121.444L-66.806,121.222L-66.738,121.556L-66.67,121.611L-66.601,122.194L-66.533,122.444L-66.464,121.722L-66.396,120.417L-66.327,120.194L-66.259,120.972L-66.19,121.222L-66.122,121.806L-66.054,122.083L-65.985,121.361L-65.917,120.361L-65.848,120.583L-65.78,121.778L-65.711,121.778L-65.643,121.722L-65.574,122.333L-65.506,121.472L-65.437,120.361L-65.369,120.083L-65.301,120.389L-65.232,121.222L-65.164,121.667L-65.095,122.083L-65.027,120.972L-64.958,120.25L-64.89,119.528L-64.821,119.806L-64.753,119.917L-64.685,120.778L-64.616,121.361L-64.548,121.056L-64.479,120.083L-64.411,120.667L-64.342,121.75L-64.274,122.167L-64.205,123.028L-64.137,123.056L-64.069,122.028L-64,121.139L-63.932,121.111L-63.863,121.278L-63.795,121.194L-63.726,121.583L-63.658,122.028L-63.589,121.639L-63.521,121.111L-63.453,121.194L-63.384,121.861L-63.316,122.056L-63.247,122.833L-63.179,122.917L-63.11,121.583L-63.042,120.556L-62.973,120.944L-62.905,121.222L-62.837,121.667L-62.768,122.194L-62.7,122.861L-62.631,121.861L-62.563,120.972L-62.494,121.056L-62.426,121.556L-62.357,120.972L-62.289,121.167L-62.221,121.778L-62.152,120.944L-62.084,120.472L-62.015,120.694L-61.947,121.278L-61.878,121.444L-61.81,122.25L-61.741,123.222L-61.673,122.167L-61.604,121.222L-61.536,121.472L-61.468,121.611L-61.399,122.028L-61.331,122.139L-61.262,122.444L-61.194,121.667L-61.125,121.222L-61.057,122.306L-60.988,123L-60.92,123.306L-60.852,123.694L-60.783,124.028L-60.715,123.194L-60.646,122.417L-60.578,122.639L-60.509,122.75L-60.441,123.111L-60.372,123.611L-60.304,124.083L-60.236,123.944L-60.167,122.806L-60.099,122.806L-60.03,122.694L-59.962,122.944L-59.893,123.417L-59.825,124.25L-59.756,123.472L-59.688,122.694L-59.62,122.917L-59.551,122.917L-59.483,122.972L-59.414,123.444L-59.346,123.861L-59.277,123.472L-59.209,123.083L-59.14,123.083L-59.072,123.222L-59.004,123.222L-58.935,123.611L-58.867,124L-58.798,123.944L-58.73,123.278L-58.661,123.5L-58.593,123.528L-58.524,123.833L-58.456,124.75L-58.388,124.667L-58.319,123.694L-58.251,123.194L-58.182,122.611L-58.114,123.389L-58.045,123.528L-57.977,124.333L-57.908,125.056L-57.84,124.389L-57.772,123.222L-57.703,123.167L-57.635,123.611L-57.566,124L-57.498,125.139L-57.429,125.722L-57.361,125.139L-57.292,124.417L-57.224,124.306L-57.155,123.972L-57.087,124.306L-57.019,124.889L-56.95,125.139L-56.882,124.472L-56.813,123.944L-56.745,123.611L-56.676,123.639L-56.608,124.083L-56.539,125.056L-56.471,125.583L-56.403,124.806L-56.334,124.472L-56.266,124.833L-56.197,124.917L-56.129,125.278L-56.06,125.528L-55.992,126.25L-55.923,125.639L-55.855,124.889L-55.787,125.111L-55.718,125.472L-55.65,126.056L-55.581,126.361L-55.513,126.972L-55.444,126.556L-55.376,126.222L-55.307,126.25L-55.239,126.083L-55.171,126.25L-55.102,127.333L-55.034,127.75L-54.965,127.361L-54.897,127.028L-54.828,127.306L-54.76,127.333L-54.691,127.722L-54.623,128.361L-54.555,128.861L-54.486,128.417L-54.418,127.944L-54.349,128.111L-54.281,128.889L-54.212,129.167L-54.144,129.778L-54.075,129.778L-54.007,128.889L-53.936,128.139L-53.867,128.194L-53.799,128.472L-53.73,128.611L-53.662,129.472L-53.593,129.556L-53.525,129.278L-53.457,129.111L-53.388,129.028L-53.32,129.167L-53.251,129.5L-53.183,130.528L-53.114,131.278L-53.046,130.833L-52.977,130.972L-52.909,131.333L-52.841,130.972L-52.772,131L-52.704,131.5L-52.635,131.889L-52.567,131.667L-52.498,131.028L-52.43,131.556L-52.361,131.889L-52.293,132.25L-52.225,131.806L-52.156,132.083L-52.088,131.528L-52.019,131.861L-51.951,132.889L-51.882,133.25L-51.814,134.25L-51.745,135.028L-51.677,135.694L-51.608,135.278L-51.54,135.222L-51.472,135.194L-51.403,135L-51.335,135.222L-51.266,135.556L-51.198,135.944L-51.129,135.417L-51.061,134.667L-50.992,134.306L-50.924,133.361L-50.856,132.139L-50.787,132.667L-50.719,133.083L-50.65,132.722L-50.582,132.389L-50.513,132.583L-50.445,133L-50.376,132.75L-50.308,132.944L-50.24,133.361L-50.171,133.278L-50.103,132.667L-50.034,132.694L-49.966,132.306L-49.897,132.028L-49.829,132.083L-49.76,131.667L-49.692,131.139L-49.624,130.75L-49.555,131L-49.487,130.861L-49.418,130.806L-49.35,131.111L-49.281,131.333L-49.213,130.917L-49.144,130.583L-49.076,130.722L-49.008,131.528L-48.939,132.25L-48.871,132.972L-48.802,134.5L-48.734,134.472L-48.665,134.083L-48.597,133.889L-48.528,133.444L-48.46,132.972L-48.392,132.889L-48.323,132.611L-48.255,131.361L-48.186,129.833L-48.118,129.5L-48.049,128.639L-47.981,128.222L-47.912,128.194L-47.844,128.278L-47.775,127.25L-47.707,126.472L-47.639,125.528L-47.57,124.583L-47.502,123.694L-47.433,123.778L-47.365,123.528L-47.296,122L-47.228,120.778L-47.159,119.833L-47.091,119.389L-47.023,118.5L-46.954,118L-46.886,117.667L-46.817,116.75L-46.749,115.444L-46.68,114.694L-46.612,113.972L-46.543,113.75L-46.475,114.194L-46.407,114.444L-46.338,113.639L-46.27,112.778L-46.201,113.333L-46.133,113.389L-46.064,113.361L-45.996,114.611L-45.927,115.556L-45.859,115.083L-45.791,113.861L-45.722,114.028L-45.654,114.028L-45.585,114.75L-45.517,115.75L-45.448,116.167L-45.38,115.528L-45.314,115.111L-45.246,115.806L-45.177,116.472L-45.109,117.167L-45.04,117.75L-44.972,118.778L-44.904,118.417L-44.835,118.139L-44.767,118.556L-44.698,119L-44.63,119.583L-44.561,120.444L-44.493,121.389L-44.424,121.389L-44.356,120.667L-44.288,120.611L-44.219,120.944L-44.151,120.583L-44.082,121.306L-44.014,121.611L-43.945,120.972L-43.877,120.361L-43.808,121.083L-43.74,121.556L-43.672,121.833L-43.603,122.75L-43.535,122.972L-43.466,122.194L-43.398,121.639L-43.329,121.972L-43.261,122.028L-43.192,121.861L-43.124,122L-43.056,122.528L-42.987,121.556L-42.919,119.972L-42.85,119.861L-42.782,119.389L-42.713,119.389L-42.645,119.75L-42.576,120.083L-42.508,119L-42.44,118.306L-42.371,117.75L-42.303,118.139L-42.234,118.611L-42.166,119.583L-42.097,120.278L-42.029,120.889L-41.96,120.306L-41.892,120.528L-41.824,120.722L-41.755,120.25L-41.687,120.75L-41.618,121.167L-41.55,120.5L-41.481,120.222L-41.413,120.333L-41.344,120.75L-41.276,120.778L-41.208,121.5L-41.139,122.528L-41.071,122.361L-41.002,121.306L-40.934,121.472L-40.865,122.167L-40.797,122.444L-40.728,123.194L-40.66,123.694L-40.591,123.056L-40.523,122.111L-40.455,122.806L-40.386,122.028L-40.318,121.861L-40.249,121.806L-40.181,121.778L-40.112,120.806L-40.044,119.778L-39.975,119.139L-39.907,119.361L-39.839,119.444L-39.77,119.694L-39.702,120.278L-39.633,119.75L-39.565,119.278L-39.496,119.222L-39.428,118.889L-39.359,119.528L-39.291,119.972L-39.223,120.194L-39.154,119.361L-39.086,118.333L-39.017,117.889L-38.949,117.667L-38.88,118.056L-38.812,119.083L-38.743,119.306L-38.675,118.972L-38.607,118.417L-38.538,118.25L-38.47,117.861L-38.401,117.667L-38.333,118.917L-38.264,119.667L-38.196,119.278L-38.127,118.583L-38.059,118.639L-37.991,119.028L-37.922,119.278L-37.854,119.944L-37.785,120.222L-37.717,119.361L-37.648,118.75L-37.58,118.806L-37.511,118.639L-37.443,118.611L-37.375,119.222L-37.306,118.861L-37.238,118.444L-37.169,117.75L-37.101,117.556L-37.032,117.417L-36.964,117.611L-36.895,118.528L-36.827,118.833L-36.758,117.639L-36.69,116.5L-36.622,116.056L-36.553,116.306L-36.485,116.722L-36.416,117.944L-36.348,118.389L-36.279,117.639L-36.211,116.944L-36.142,117.306L-36.074,117.694L-36.006,118.194L-35.937,118.917L-35.869,119.056L-35.8,118.167L-35.732,117.722L-35.663,117.861L-35.595,118.222L-35.526,118.861L-35.458,119.861L-35.39,120.806L-35.321,120.75L-35.253,120.694L-35.184,120.75L-35.116,120.917L-35.047,121.306L-34.979,122.222L-34.91,122.806L-34.842,122L-34.774,120.861L-34.705,121.417L-34.637,121.528L-34.568,122.056L-34.5,121.889L-34.431,122.417L-34.363,122L-34.294,121.5L-34.226,121.25L-34.158,121.167L-34.089,120.944L-34.021,121.333L-33.952,121.194L-33.884,120.5L-33.815,119.444L-33.747,119.25L-33.678,119.639L-33.61,119.528L-33.542,119.528L-33.473,119.389L-33.405,118.306L-33.336,116.611L-33.268,115.639L-33.199,115.361L-33.131,115.194L-33.062,115.861L-32.994,116.444L-32.926,115.778L-32.857,114.722L-32.789,115.139L-32.72,115.472L-32.652,114.833L-32.583,115.806L-32.515,116.083L-32.446,116.028L-32.378,114.667L-32.309,113.861L-32.241,113.833L-32.173,114.528L-32.104,115.222L-32.036,115.972L-31.967,115.5L-31.899,114.861L-31.83,115.056L-31.762,115.75L-31.693,116.222L-31.625,116.333L-31.557,117.111L-31.488,116.167L-31.42,115.611L-31.351,115.944L-31.283,116.417L-31.214,117.167L-31.146,117.861L-31.077,118.333L-31.009,117.917L-30.941,117.278L-30.872,117.25L-30.804,117.806L-30.735,118.417L-30.667,118.889L-30.598,119.917L-30.53,119.333L-30.461,119.222L-30.393,118.472L-30.325,119.028L-30.256,120.167L-30.188,120.833L-30.119,121.417L-30.051,121.306L-29.982,120.639L-29.914,120.944L-29.845,121.278L-29.777,121.333L-29.709,121.722L-29.64,122.25L-29.572,121.944L-29.503,121.278L-29.435,122.25L-29.366,123.083L-29.298,123.333L-29.229,124.056L-29.161,124.25L-29.093,123.5L-29.021,123.083L-28.953,122.917L-28.884,123.278L-28.816,123.5L-28.747,124.056L-28.679,123.694L-28.611,122.917L-28.542,122.528L-28.474,122.583L-28.405,122.389L-28.337,123L-28.268,123.583L-28.2,123.806L-28.131,123.083L-28.063,121.778L-27.995,121.306L-27.926,121.222L-27.858,121.222L-27.789,121.667L-27.721,122.111L-27.652,121.444L-27.584,120.889L-27.515,121.278L-27.447,122.444L-27.379,122.389L-27.31,122.389L-27.242,122.667L-27.173,121.583L-27.105,120.75L-27.036,121.139L-26.968,121.833L-26.899,121.917L-26.831,122.444L-26.762,122.722L-26.694,122.028L-26.626,122.417L-26.557,123.5L-26.489,123.528L-26.42,124L-26.352,124.5L-26.283,124.611L-26.215,124.139L-26.146,123.361L-26.078,123.722L-26.01,124.472L-25.941,124.583L-25.873,125.111L-25.804,125.667L-25.736,124.889L-25.667,124.056L-25.599,123.75L-25.53,123L-25.462,122.528L-25.394,121.972L-25.325,122.056L-25.257,122.167L-25.188,122.444L-25.12,123.444L-25.051,124.222L-24.983,124.639L-24.914,124.278L-24.846,124.917L-24.778,125.056L-24.709,125.5L-24.641,125.972L-24.572,125.75L-24.504,125.361L-24.435,125.528L-24.367,125.389L-24.298,124.444L-24.23,124.167L-24.162,124.611L-24.093,124.278L-24.025,124.25L-23.956,124.306L-23.888,124.778L-23.819,124.528L-23.751,124.444L-23.682,124.667L-23.614,125L-23.546,125.778L-23.477,126.722L-23.409,126.972L-23.34,126.667L-23.272,125.722L-23.203,124.556L-23.135,123.361L-23.066,122.528L-22.998,122.611L-22.93,122.25L-22.861,122.167L-22.793,121.083L-22.724,119.972L-22.656,119.889L-22.587,120.167L-22.519,119.889L-22.45,120.083L-22.382,119.056L-22.313,118.278L-22.245,117.278L-22.177,115.972L-22.108,114.861L-22.04,115.194L-21.971,115.194L-21.903,113.722L-21.834,112.333L-21.766,111.25L-21.697,110.028L-21.629,110.333L-21.561,110.667L-21.492,110.361L-21.424,109.611L-21.355,108.583L-21.287,107.778L-21.218,107.833L-21.15,107.889L-21.081,108.472L-21.013,109.278L-20.945,107.528L-20.876,106.806L-20.808,105.222L-20.739,105.25L-20.671,105.75L-20.602,105.528L-20.534,105.194L-20.465,104L-20.4,103.222L-20.331,103.056L-20.263,103.306L-20.195,104.444L-20.126,106.139L-20.058,106.694L-19.989,106.222L-19.921,105.167L-19.852,104.917L-19.784,105.25L-19.715,105.167L-19.647,105.889L-19.578,106.194L-19.51,105.389L-19.442,104.889L-19.373,105.083L-19.305,105.583L-19.236,106.056L-19.168,106.583L-19.099,107L-19.031,105.861L-18.962,104.806L-18.894,105.361L-18.826,105.306L-18.757,106.5L-18.689,107.222L-18.62,107.333L-18.552,106.111L-18.483,104.444L-18.415,104.528L-18.346,104.056L-18.278,104L-18.21,104.167L-18.141,104.528L-18.073,103.5L-18.004,102.806L-17.936,102.639L-17.867,102.417L-17.799,102.861L-17.73,103.5L-17.662,104.556L-17.594,103.639L-17.525,102.389L-17.457,102.389L-17.388,102.25L-17.32,102.278L-17.251,102.611L-17.183,102.917L-17.114,103.111L-17.046,102.278L-16.978,101.583L-16.909,101.139L-16.841,101L-16.772,101.667L-16.704,102L-16.635,101.417L-16.567,100.611L-16.498,100.472L-16.43,100.972L-16.362,101.528L-16.293,102.417L-16.225,103.306L-16.156,102.611L-16.088,101.583L-16.019,101.583L-15.951,102.139L-15.882,102.722L-15.814,103.778L-15.745,104.778L-15.677,104.111L-15.609,102.778L-15.54,103.444L-15.472,103.139L-15.403,103.111L-15.335,103.833L-15.266,104.778L-15.198,104.278L-15.129,103.083L-15.061,102.083L-14.993,102.528L-14.924,104.278L-14.856,105.694L-14.787,106.917L-14.719,105.417L-14.65,104.139L-14.582,104.083L-14.513,103.667L-14.445,104.889L-14.377,106.333L-14.308,107.222L-14.24,106.417L-14.171,105.417L-14.103,105.139L-14.034,104.833L-13.966,104.972L-13.897,105.556L-13.829,105.861L-13.761,104.278L-13.692,103.556L-13.624,103.694L-13.555,104.722L-13.487,104.333L-13.418,105.694L-13.35,106.722L-13.281,106.528L-13.213,105.528L-13.145,105.222L-13.076,105L-13.008,105.861L-12.939,105.944L-12.871,106.25L-12.802,104.944L-12.734,103.611L-12.665,104.306L-12.597,104.583L-12.529,104.167L-12.46,105.25L-12.392,105L-12.323,103.833L-12.255,102.472L-12.186,102.528L-12.118,102.639L-12.049,103.306L-11.981,104.806L-11.913,105.472L-11.844,104.056L-11.776,102.972L-11.707,103.444L-11.639,103.222L-11.57,103.056L-11.502,103.5L-11.433,104.278L-11.365,103.611L-11.296,102L-11.228,100.694L-11.16,99.833L-11.091,100.222L-11.023,101.361L-10.954,101.472L-10.886,101.083L-10.817,99.583L-10.749,99.861L-10.68,100.222L-10.612,100.25L-10.544,100.972L-10.475,101.778L-10.407,100.528L-10.338,98.944L-10.27,98.583L-10.201,98.806L-10.133,99.389L-10.064,100.528L-9.996,100.833L-9.928,100.972L-9.859,100L-9.791,100.111L-9.722,99.667L-9.654,100.278L-9.585,101.306L-9.517,102.167L-9.448,101.917L-9.38,101.111L-9.312,100.611L-9.243,100.417L-9.175,100.139L-9.106,101.222L-9.038,101.306L-8.969,100.806L-8.901,99.694L-8.832,99.333L-8.764,99.972L-8.696,99.944L-8.627,100.056L-8.559,100.472L-8.49,99.139L-8.422,98.111L-8.353,98.167L-8.285,99L-8.216,99.889L-8.148,100.778L-8.08,101.139L-8.011,100.333L-7.943,100.111L-7.874,98.667L-7.806,98.694L-7.737,99.111L-7.669,100.444L-7.6,101.083L-7.532,100.722L-7.463,99.417L-7.395,98.778L-7.327,98.528L-7.258,98.917L-7.19,100.222L-7.121,102.472L-7.053,102.25L-6.984,101.278L-6.916,101.528L-6.847,102.028L-6.779,101.806L-6.711,102.333L-6.642,103.139L-6.574,102.639L-6.505,101.861L-6.437,102.778L-6.368,102.778L-6.3,103.556L-6.231,104.361L-6.163,104.667L-6.095,103.944L-6.026,102.889L-5.958,102.944L-5.889,102.333L-5.821,102.417L-5.752,103.333L-5.684,103.833L-5.615,102.667L-5.547,101.917L-5.479,101.333L-5.41,101.333L-5.342,101.861L-5.273,102.889L-5.205,103.111L-5.136,102.222L-5.068,100.611L-4.999,100.5L-4.931,100.972L-4.863,100.833L-4.794,101.222L-4.726,102.222L-4.657,101.111L-4.589,100.417L-4.52,100.694L-4.452,101.944L-4.383,102.444L-4.315,103.472L-4.247,103.722L-4.178,103.083L-4.107,102.389L-4.038,102.083L-3.97,102.083L-3.901,102.25L-3.833,103.083L-3.765,104.056L-3.696,102.694L-3.628,101.611L-3.559,101.694L-3.491,101.667L-3.422,101.361L-3.354,102.75L-3.285,103.278L-3.217,102L-3.149,101.083L-3.08,101.361L-3.012,102.056L-2.943,102.056L-2.875,103.278L-2.806,104.111L-2.738,103.167L-2.669,103.25L-2.601,104L-2.533,104.861L-2.464,106.389L-2.396,106.306L-2.327,106.472L-2.259,105.472L-2.19,105.083L-2.122,105.25L-2.053,105.222L-1.985,106.611L-1.916,107.778L-1.848,108.5L-1.78,108.25L-1.711,107.278L-1.643,107.778L-1.574,107.556L-1.506,107.694L-1.437,107.472L-1.369,108.583L-1.3,107.306L-1.232,105.75L-1.164,106.083L-1.095,106.361L-1.027,106L-0.958,106.25L-0.89,106.694L-0.821,105.361L-0.753,104.528L-0.684,104.417L-0.616,103.389L-0.548,102.778L-0.479,103.667L-0.411,103.278L-0.342,103.528L-0.274,104.056L-0.205,104.889L-0.137,105.083L-0.068,105.583L0,106.444L0.068,105.972L0.137,104.222L0.205,102.583L0.274,101.75L0.342,101.389L0.411,102.25L0.479,103.444L0.548,104.278L0.616,104.806L0.684,103.583L0.753,103.333L0.821,103.111L0.89,102.778L0.958,103.806L1.027,105.222L1.095,105.444L1.164,104.806L1.232,104.472L1.3,103.389L1.369,103.389L1.437,104.333L1.506,104.833L1.574,101.861L1.643,100.333L1.711,99.139L1.78,96.944L1.848,95.889L1.916,95.583L1.985,95.028L2.053,92.972L2.122,92L2.19,92.556L2.259,92.389L2.327,93.111L2.396,94.111L2.464,93.528L2.533,91.222L2.601,89.5L2.669,88.333L2.738,87.444L2.806,87.833L2.875,88.5L2.943,89.056L3.012,88.333L3.08,85.417L3.149,83.25L3.217,82.028L3.285,82.361L3.354,83.917L3.422,85.056L3.491,83.611L3.559,81.417L3.628,81.111L3.696,80.583L3.765,80.556L3.833,81.889L3.901,82.833L3.97,82.194L4.038,80.889L4.107,81.167L4.175,80.722L4.244,80.5L4.312,81.667L4.381,81.833L4.449,81.278L4.517,80.222L4.586,81.389L4.654,82.25L4.723,82.444L4.791,84.444L4.86,85.028L4.928,84.028L4.994,83.111L5.062,81.861L5.131,82.472L5.199,82.306L5.268,84.028L5.336,84.583L5.404,83.778L5.473,82.167L5.541,82.611L5.61,84.306L5.678,84.972L5.747,86.417L5.815,86.778L5.884,85.444L5.952,84.083L6.02,84.083L6.089,84.194L6.157,84.361L6.226,85.417L6.294,86.361L6.363,84.861L6.431,83.556L6.5,83.167L6.568,83.25L6.636,83.556L6.705,84.111L6.773,85.583L6.842,83.667L6.91,82.333L6.979,82.306L7.047,82.167L7.116,83.111L7.184,84.583L7.252,86.528L7.321,85.056L7.389,83.083L7.458,82.361L7.526,82.417L7.595,81.75L7.663,82.417L7.732,83.444L7.8,81.222L7.868,80.222L7.937,80.278L8.005,80.75L8.074,80.917L8.142,82.722L8.211,84.333L8.279,84.583L8.348,82.583L8.416,83.417L8.484,83.222L8.553,82.75L8.621,83.361L8.69,84.222L8.758,83.167L8.827,81.194L8.895,81.389L8.964,81.389L9.032,82L9.101,83L9.169,83.778L9.237,82.833L9.306,80.889L9.374,80.139L9.443,80.667L9.511,80.167L9.58,81.361L9.648,83.028L9.717,81.889L9.785,80.583L9.853,81.75L9.922,81.417L9.99,81.306L10.059,81.778L10.127,82.389L10.196,80.556L10.264,78.222L10.333,75.306L10.401,75.889L10.469,75.667L10.538,77.778L10.606,79.417L10.675,80.5L10.743,79.444L10.812,80.222L10.88,81.167L10.949,82.333L11.017,83.667L11.085,84.722L11.154,83.861L11.222,82.583L11.291,81.722L11.359,82.361L11.428,83.694L11.496,85.056L11.565,86.833L11.633,85.194L11.701,84.472L11.77,84.556L11.838,84.472L11.907,84.361L11.975,86.222L12.044,87.944L12.112,86.667L12.181,85.278L12.249,85.694L12.317,86.389L12.386,87.944L12.454,89.306L12.523,90.306L12.591,88.722L12.66,86.861L12.728,85.194L12.797,85.25L12.865,84.833L12.933,85.222L13.002,85.556L13.07,84.694L13.139,83.056L13.207,83.361L13.276,83.056L13.344,84.5L13.413,85.833L13.481,86.667L13.55,85.861L13.618,84.111L13.686,84.889L13.755,83.778L13.823,83.583L13.892,84.611L13.96,85.889L14.029,84.083L14.097,82.5L14.166,83.028L14.234,82.694L14.302,83.333L14.371,84.25L14.439,85.333L14.508,83.139L14.576,81.25L14.645,81.028L14.713,81.194L14.782,81.25L14.85,82.083L14.918,83.167L14.987,83.444L15.055,81.194L15.124,80.583L15.192,80.472L15.261,79.667L15.329,80.333L15.398,80.778L15.466,79.667L15.534,78.278L15.603,78.028L15.671,78.694L15.74,78.528L15.808,80L15.877,81.306L15.945,79.861L16.014,76.722L16.082,76L16.15,75.667L16.219,74.667L16.287,76.389L16.356,76.5L16.424,75.611L16.493,74.194L16.561,74.222L16.63,74.306L16.698,74.139L16.766,75.444L16.835,76.417L16.903,75.972L16.972,74.5L17.04,73.667L17.109,74.917L17.177,75.333L17.246,76.667L17.314,78.417L17.383,78.917L17.451,77.472L17.519,77.556L17.588,77.833L17.656,78.278L17.725,79.778L17.793,80.722L17.862,80.083L17.93,80.306L17.999,81.333L18.067,84.611L18.135,86.306L18.204,87.972L18.272,90.556L18.341,89.917L18.409,89.028L18.478,89.389L18.546,90.167L18.615,91.583L18.683,93.139L18.751,94.639L18.82,93.972L18.888,91.278L18.957,89.694L19.025,88.306L19.094,87.306L19.162,87.139L19.231,88.75L19.299,87.25L19.367,85.75L19.436,84.722L19.504,85L19.573,85.444L19.641,86.361L19.71,86.972L19.778,85.639L19.847,84.556L19.915,83.778L19.983,81.722L20.052,82.083L20.12,81.667L20.189,82.222L20.257,81.194L20.326,79.389L20.394,79.056L20.463,80.722L20.531,80.806L20.599,81.361L20.668,83.194L20.736,82.444L20.805,81.056L20.873,80.944L20.942,82.694L21.01,84.444L21.079,86.889L21.147,87.861L21.215,87.028L21.287,84.583L21.355,84.278L21.424,84.75L21.492,85.139L21.561,86.667L21.629,87.472L21.697,86.167L21.766,85.111L21.834,84.861L21.903,85.167L21.971,85.806L22.04,87.944L22.108,88.889L22.177,88.583L22.245,87.417L22.313,86.389L22.382,86.639L22.45,86.417L22.519,86.194L22.587,87.556L22.656,87.639L22.724,84.944L22.793,84.778L22.861,85.083L22.93,85.722L22.998,87.083L23.066,87.889L23.135,88.25L23.203,87.611L23.272,87.861L23.34,88.444L23.409,89.806L23.477,91.333L23.546,92.778L23.614,92.611L23.682,91.944L23.751,92.75L23.819,92.5L23.888,92.639L23.956,93.417L24.025,94.694L24.093,93.583L24.162,92.25L24.23,91.306L24.298,90.194L24.367,90.75L24.435,90.972L24.504,91.694L24.572,90.528L24.641,88.833L24.709,87.361L24.778,86.75L24.846,86.722L24.914,87.333L24.983,87.528L25.051,85.694L25.12,84.333L25.188,82.722L25.257,82.167L25.325,82.139L25.394,83.611L25.462,84.25L25.53,81.556L25.599,79.639L25.667,77.944L25.736,78.972L25.804,80.444L25.873,81.889L25.941,83.306L26.01,82.778L26.078,81.222L26.146,80.75L26.215,80.556L26.283,81.056L26.352,82.75L26.42,84.028L26.489,84.056L26.557,82.917L26.626,81.528L26.694,80.5L26.762,80.972L26.831,83.028L26.899,84.194L26.968,83.194L27.036,81.861L27.105,81.806L27.173,80.417L27.242,81L27.31,82.917L27.379,84.583L27.447,82.75L27.515,81.528L27.584,82.722L27.652,81.306L27.721,81.833L27.789,81.083L27.858,80L27.926,78.25L27.995,78.944L28.063,79.889L28.131,81.389L28.2,82.583L28.268,83.972L28.337,84.889L28.405,83.5L28.474,81.694L28.542,80.917L28.611,81.417L28.679,81.472L28.747,82.028L28.816,82.917L28.884,80.722L28.953,78.806L29.021,77.944L29.09,76.778L29.158,77.583L29.227,79.389L29.295,79.778L29.363,77.139L29.432,75.917L29.5,76.194L29.569,76.5L29.637,75.861L29.706,78.056L29.774,78.833L29.843,76.639L29.908,75.306L29.977,75.639L30.045,73.556L30.114,72.5L30.182,72.083L30.25,72.333L30.319,71.111L30.387,69.361L30.456,68.833L30.524,69.444L30.593,70.056L30.661,70.778L30.73,72.75L30.798,71.167L30.866,70.444L30.935,70.972L31.003,71.194L31.072,72L31.14,74.167L31.209,74.806L31.277,73.722L31.346,71.889L31.414,72.833L31.482,72.75L31.551,72.833L31.619,73.806L31.688,74.972L31.756,73.917L31.825,72.306L31.893,72.611L31.962,71.694L32.03,72.194L32.098,73.694L32.167,74.444L32.235,72.917L32.304,70.694L32.372,69.917L32.441,70.222L32.509,71.056L32.578,71.806L32.646,72.667L32.714,71.472L32.783,69.722L32.851,71.25L32.92,71.667L32.988,72.861L33.057,73.722L33.125,74.75L33.194,75.083L33.262,72.75L33.33,72.528L33.399,73.278L33.467,72.806L33.536,73.444L33.604,74.528L33.673,72.722L33.741,71.25L33.81,70.944L33.878,70.333L33.946,70.556L34.015,72.25L34.083,72.611L34.152,69.389L34.22,66.444L34.289,66.5L34.357,66.556L34.426,66.556L34.494,67.889L34.563,69.25L34.631,68.278L34.699,66.778L34.768,67.389L34.836,67.5L34.905,67.417L34.973,67.556L35.042,67.806L35.11,67.111L35.179,65.611L35.247,63.278L35.315,64.194L35.384,64.861L35.452,66.139L35.521,68.139L35.589,67.444L35.658,67.444L35.726,67.75L35.795,67.583L35.863,68.833L35.931,70.611L36,72.028L36.068,70.444L36.137,68.611L36.205,69.278L36.274,70.694L36.342,71.389L36.411,72.889L36.479,74.167L36.547,72.389L36.616,70.167L36.684,69.028L36.753,69.028L36.821,68.028L36.89,69.278L36.958,70.417L37.027,68.833L37.095,66.278L37.163,66L37.232,66.306L37.3,66.639L37.369,68.111L37.437,68.778L37.506,66.694L37.574,64.472L37.643,63.444L37.711,61.528L37.779,61.778L37.848,63.722L37.916,64.111L37.985,63.583L38.053,62.333L38.122,62.639L38.19,62.444L38.259,62.694L38.327,63.667L38.396,64.361L38.464,62.472L38.532,61.75L38.601,62.417L38.669,63.556L38.738,65.056L38.806,66.639L38.875,68.389L38.943,67.028L39.012,64.278L39.08,64.472L39.148,65.194L39.217,65.5L39.285,67.139L39.354,69.083L39.422,67.667L39.491,66.944L39.559,67.306L39.628,68.222L39.696,69.5L39.764,71.528L39.833,73.139L39.901,72.917L39.97,70.306L40.038,69.167L40.107,68.306L40.175,68.167L40.244,70.194L40.312,71.861L40.38,69.917L40.449,68.111L40.517,67.472L40.586,65.972L40.654,65.278L40.723,66.139L40.791,66.139L40.86,63.111L40.928,61.222L40.996,60.861L41.065,62.861L41.133,63.389L41.202,64.806L41.27,65.5L41.339,63.167L41.407,59.694L41.476,59.472L41.544,57.944L41.612,58.306L41.681,59.333L41.749,60.222L41.818,57.778L41.886,55.528L41.955,54.083L42.023,54.806L42.092,55.306L42.16,56.972L42.228,59.306L42.297,59.111L42.365,55.917L42.434,56.611L42.502,57.278L42.571,59.028L42.639,61.944L42.708,63.389L42.776,61.528L42.845,60.556L42.913,61.694L42.981,61.722L43.05,62.417L43.118,63.306L43.187,65.5L43.255,62.583L43.324,61.917L43.392,61.861L43.461,63.611L43.529,64.417L43.597,66.778L43.666,68.611L43.734,67.028L43.803,66.111L43.871,66.417L43.94,66.611L44.008,66.278L44.077,68.333L44.145,69.444L44.213,68.278L44.282,67.278L44.35,66.306L44.419,67.194L44.487,68.25L44.556,69.806L44.624,70.778L44.693,69.278L44.761,67.472L44.829,67.917L44.898,68.139L44.966,69.389L45.035,71.056L45.103,72.667L45.172,71.556L45.24,68.833L45.309,71.528L45.377,73.417L45.445,75.028L45.514,76.639L45.582,77.389L45.651,76.222L45.719,74.583L45.788,75.194L45.856,74.667L45.925,75.722L45.993,77.278L46.061,78.917L46.13,77.528L46.201,75.889L46.27,75.694L46.338,74.722L46.407,75.472L46.475,78.333L46.543,79.583L46.612,78.139L46.68,77.139L46.749,78.028L46.817,80.083L46.886,80.833L46.954,83.111L47.023,83.556L47.091,82.472L47.159,80.111L47.228,79.778L47.296,79.972L47.365,80.056L47.433,79.972L47.502,80.833L47.57,81.583L47.639,80.722L47.707,81.139L47.775,82.083L47.844,83.194L47.912,85.667L47.981,87.694L48.049,88.556L48.118,87.833L48.186,88.389L48.255,91.556L48.323,94.139L48.392,97.056L48.46,98.583L48.528,98.611L48.597,97.333L48.665,98.056L48.734,98.306L48.802,98.306L48.871,98.306L48.939,99.25L49.008,98.389L49.076,96.528L49.144,96.944L49.213,97.667L49.281,97.111L49.35,97.722L49.418,98.333L49.487,95.528L49.555,94.222L49.624,92.139L49.692,91.444L49.76,91.278L49.829,90.5L49.897,90.361L49.966,87.278L50.034,84.25L50.103,81.833L50.171,80.361L50.24,79.75L50.308,78.889L50.376,78.056L50.445,74.889L50.513,71.444L50.582,69.75L50.65,68.194L50.719,66.639L50.787,67.778L50.856,68.194L50.924,66.194L50.992,64.111L51.061,62.528L51.129,62.556L51.198,62.917L51.266,64.667L51.335,67.167L51.403,67.194L51.472,65.222L51.54,65.639L51.608,65.556L51.677,66.306L51.745,68.056L51.814,69.694L51.882,68.778L51.951,66.972L52.019,67.056L52.088,67.778L52.156,69.056L52.225,71.056L52.293,72.5L52.361,70.694L52.43,69.194L52.498,71.278L52.567,72.917L52.635,72.944L52.704,75.111L52.772,77.028L52.841,74.639L52.909,74.167L52.977,73.944L53.046,73.5L53.114,73.972L53.183,75.306L53.251,75.722L53.32,72.722L53.388,70L53.457,71.194L53.525,73.194L53.593,74.278L53.662,75.333L53.73,75.417L53.799,73.333L53.867,70.861L53.936,70.722L54.004,72.222L54.073,74L54.141,75.417L54.209,75.611L54.278,75.111L54.346,73.333L54.415,73.444L54.483,74.306L54.552,73.528L54.62,73.75L54.689,73.944L54.757,71.806L54.823,69.722L54.891,69.333L54.96,67.333L55.028,68.028L55.096,70.139L55.165,71.25L55.233,70.278L55.302,68.417L55.37,69L55.439,69.889L55.507,68.444L55.576,68.222L55.644,68.806L55.712,66.472L55.781,65.194L55.849,65.194L55.918,65.139L55.986,66.25L56.055,66.222L56.123,66.75L56.192,65.528L56.26,63.833L56.328,63.194L56.397,63.778L56.465,63.222L56.534,63.889L56.602,63.583L56.671,61.944L56.739,60.583L56.808,60.5L56.876,60.556L56.944,61.222L57.013,63.444L57.081,65.333L57.15,63.222L57.218,62.25L57.287,62.444L57.355,63L57.424,63.583L57.492,65L57.56,65.972L57.629,64.778L57.697,62.278L57.766,62.75L57.834,61.639L57.903,62.111L57.971,63.694L58.04,64.972L58.108,64.972L58.176,62.806L58.245,61.861L58.313,60.806L58.382,60.722L58.45,62L58.519,63.778L58.587,62.194L58.656,60.611L58.724,60.639L58.792,60.583L58.861,60.889L58.929,62.611L58.998,63.222L59.066,60.528L59.135,57.667L59.203,57.694L59.272,56.222L59.34,56.444L59.409,57.639L59.477,59.222L59.545,57.861L59.614,55.361L59.682,54.5L59.751,55.75L59.819,56.306L59.888,59L59.956,60.639L60.025,58.889L60.093,56.611L60.161,55.056L60.23,55.806L60.298,56.417L60.367,59.222L60.435,60.972L60.504,59.333L60.572,58.028L60.641,59.333L60.709,59.222L60.777,59.611L60.846,61.194L60.914,62.861L60.983,60.639L61.051,59.028L61.12,59.583L61.188,59.722L61.257,60.083L61.325,62.194L61.393,63L61.462,60.444L61.53,58.639L61.599,57.944L61.667,58.389L61.736,59.167L61.804,60.056L61.873,61.278L61.941,59.722L62.009,57.667L62.078,57.667L62.146,57L62.215,57.583L62.283,58.778L62.352,59.917L62.42,57.056L62.489,54.75L62.557,53.667L62.625,52.722L62.694,50.722L62.762,52.611L62.831,54.556L62.899,53.194L62.968,50.889L63.036,51.361L63.105,52.083L63.173,52.722L63.242,55.056L63.31,56.944L63.378,55.194L63.447,53.667L63.515,54.722L63.584,54.5L63.652,55L63.721,56.944L63.789,58.472L63.858,57.25L63.926,55.611L63.994,55.694L64.063,55.639L64.131,56.139L64.2,58.833L64.268,60.5L64.337,58.778L64.405,57.5L64.474,58.611L64.542,58.389L64.61,59.222L64.679,61.083L64.747,63.417L64.816,64.056L64.884,61.722L64.953,61.056L65.021,60.556L65.09,60.75L65.158,61.944L65.226,64.167L65.295,64L65.363,62.361L65.432,63.056L65.5,61.444L65.569,60.889L65.637,62.25L65.706,63.306L65.774,60.056L65.842,58.083L65.911,58.056L65.979,58.333L66.048,57.806L66.116,59.556L66.185,61.083L66.253,58.722L66.322,58.083L66.39,57.833L66.458,57.5L66.527,57.889L66.595,59.639L66.664,60.889L66.732,58.639L66.801,56.889L66.869,55.417L66.938,55.917L67.006,56.556L67.074,59L67.143,60.806L67.211,60.333L67.28,57.778L67.348,55.694L67.417,55.083L67.485,55.167L67.554,57.917L67.622,59L67.691,57.472L67.759,56.222L67.827,57.75L67.896,58.083L67.964,58.278L68.033,59.278L68.101,61.639L68.17,60.333L68.238,58L68.307,58.944L68.375,57.75L68.443,58.583L68.512,60.333L68.58,61.417L68.649,60.75L68.717,58.5L68.786,59.639L68.854,60.306L68.923,61.111L68.991,62.389L69.059,64.444L69.128,63.25L69.196,62.639L69.265,62.778L69.333,62.861L69.402,64.083L69.47,66.333L69.539,67.944L69.607,67.056L69.675,66.944L69.744,68.194L69.812,69.083L69.881,70.083L69.949,71.639L70.018,72.806L70.086,71.667L70.155,70.417L70.223,71.5L70.291,74.944L70.36,75.528L70.428,77.389L70.497,78.833L70.565,76.944L70.634,74.722L70.702,74.861L70.771,75.861L70.839,76.444L70.907,77.611L70.976,78.639L71.044,77.472L71.116,75.861L71.184,76.056L71.253,74.889L71.321,74.694L71.389,76.694L71.458,77.222L71.526,76.194L71.595,74.139L71.663,74.889L71.732,74.722L71.8,74.972L71.869,75.583L71.937,76.361L72.005,75.028L72.074,74.167L72.142,74.167L72.211,73.778L72.279,73.861L72.348,72.222L72.416,73.25L72.485,73.556L72.553,74.083L72.621,74.972L72.69,76.028L72.758,76.25L72.827,77.722L72.895,78.278L72.964,77.75L73.032,77.5L73.101,77.722L73.169,77.056L73.238,76.056L73.306,77.917L73.374,79.056L73.443,77.222L73.511,75.667L73.58,74.861L73.648,75.75L73.717,75.111L73.785,76.222L73.854,77.222L73.922,75.278L73.99,72.694L74.059,72.472L74.127,70.861L74.196,71.333L74.264,72.139L74.333,72.333L74.401,73.556L74.47,72L74.538,69.778L74.606,67.944L74.675,67.333L74.743,68.833L74.812,69.222L74.88,68.111L74.949,67.056L75.017,66.861L75.086,65.833L75.154,66.806L75.222,69.167L75.291,71.861L75.359,69.889L75.428,68.222L75.496,68.528L75.565,68.806L75.633,69.444L75.702,70.222L75.77,71.611L75.838,69.889L75.907,69.528L75.975,71.583L76.044,73.167L76.112,73.333L76.181,75.833L76.249,77.056L76.318,76.944L76.386,75.139L76.454,73.778L76.523,74.333L76.591,74.361L76.66,74.861L76.728,76.722L76.797,74.694L76.865,73.417L76.934,72.972L77.002,72.861L77.07,72.833L77.139,74.222L77.207,74.833L77.276,75.056L77.344,73.25L77.413,73.889L77.481,74.639L77.55,74.861L77.618,75.861L77.687,77.417L77.755,75.833L77.823,74.139L77.892,74.472L77.96,72.056L78.029,70.694L78.097,71.361L78.166,72.944L78.234,71.278L78.303,67.861L78.371,66.778L78.439,67.472L78.508,66.944L78.576,67.528L78.645,68.833L78.713,66.25L78.782,63.944L78.85,63.556L78.919,63.278L78.987,63.139L79.055,64.667L79.124,65.111L79.192,62.556L79.261,59.528L79.329,57.528L79.398,56.667L79.466,56.333L79.535,57.222L79.603,57.583L79.671,56.389L79.737,53.778L79.805,53.694L79.874,52.833L79.942,53.028L80.011,54.861L80.079,56.056L80.148,54.806L80.216,52.056L80.285,51.25L80.353,52.667L80.422,53.889L80.49,54.806L80.558,56.583L80.627,54.806L80.695,54.028L80.764,55.694L80.832,57.25L80.901,59.5L80.969,61.806L81.038,63.694L81.106,61.75L81.174,59.139L81.243,58.806L81.311,59.472L81.38,59.639L81.448,61.722L81.517,63.889L81.585,62.389L81.654,60.889L81.722,61.361L81.79,62.194L81.859,62.528L81.927,64.722L81.996,66.889L82.064,66.25L82.133,64.528L82.201,63.917L82.27,64.833L82.338,66.083L82.406,67.306L82.475,67.694L82.543,66L82.612,63.528L82.68,64.111L82.749,63.611L82.817,64.306L82.886,64.667L82.954,64.833L83.022,63.806L83.091,61.528L83.159,62.111L83.228,63.083L83.296,64.278L83.365,65.917L83.433,67.194L83.502,64.75L83.57,62.306L83.638,61.861L83.707,61.694L83.775,61.333L83.844,62.667L83.912,64.25L83.981,63.194L84.049,61.056L84.118,60.194L84.186,60.139L84.255,60.639L84.323,61.806L84.391,62.944L84.46,61L84.528,59.722L84.597,60.083L84.665,59.861L84.734,59.694L84.802,61.333L84.871,61.333L84.939,59.361L85.007,57.75L85.076,57.25L85.144,57.167L85.213,58.139L85.281,60.694L85.35,62.417L85.418,61.139L85.487,59.417L85.555,61.306L85.623,63.583L85.692,64.75L85.76,67.083L85.829,68.889L85.897,66.194L85.966,63.722L86.034,63.139L86.103,63.306L86.171,64.222L86.239,65.833L86.308,66.972L86.376,65.111L86.445,63.583L86.513,63.472L86.582,63L86.65,63.694L86.719,66.028L86.787,67.667L86.855,66.111L86.924,65.222L86.992,66.472L87.061,66.333L87.129,66.389L87.198,68.972L87.266,69.833L87.335,67.139L87.403,62.806L87.471,62.611L87.54,63.25L87.608,62.25L87.677,61.694L87.745,62.222L87.814,60.444L87.882,58.222L87.951,59.639L88.019,60.278L88.087,60.639L88.156,62.111L88.224,63.056L88.293,61.806L88.361,60.778L88.43,60.25L88.498,60.25L88.567,60.944L88.635,62.417L88.704,63.139L88.772,60.528L88.84,57.833L88.909,57.472L88.977,57.25L89.046,56.472L89.114,57.861L89.183,58.639L89.251,56.083L89.32,53.694L89.388,53.917L89.456,56.278L89.525,57.028L89.593,58.278L89.662,60.056L89.73,60.583L89.799,59.583L89.867,59.861L89.936,59.278L90.004,59.306L90.072,60.611L90.141,61.583L90.209,59.417L90.278,57.333L90.346,56.028L90.415,55.528L90.483,56.944L90.552,58.278L90.62,59.667L90.688,57.417L90.757,55.306L90.825,55.972L90.894,56.556L90.962,56.944L91.031,58.306L91.099,59.333L91.168,57.472L91.236,55.833L91.304,56.556L91.373,55.833L91.441,55.833L91.51,56.194L91.578,57.25L91.647,55.833L91.715,53.861L91.784,51.472L91.852,51.972L91.92,51.889L91.989,55L92.057,56.472L92.126,54.028L92.194,53.361L92.263,54.444L92.331,54.917L92.4,55.833L92.468,57.444L92.537,58.611L92.605,58.194L92.673,57.389L92.742,58.083L92.81,58.917L92.879,59.361L92.947,61.111L93.016,62.583L93.084,61.333L93.153,60.833L93.221,61.639L93.289,61.5L93.358,61.583L93.426,64.25L93.495,66.194L93.563,65.167L93.632,63.861L93.7,64.167L93.769,64.5L93.837,65.861L93.905,66.5L93.974,67.889L94.042,65.778L94.111,64.139L94.179,65.083L94.248,64.861L94.316,65.028L94.385,66.528L94.453,68.25L94.521,67.833L94.59,66.611L94.658,66.778L94.727,66.778L94.795,67.778L94.864,68.972L94.932,70.528L95.001,69.528L95.069,67.889L95.137,68.417L95.206,67.694L95.274,68.194L95.343,70.111L95.411,72.056L95.48,70.639L95.548,68.972L95.617,69.722L95.685,72.111L95.753,72.778L95.822,74.694L95.89,75.972L95.959,75.944L96.03,75.889L96.099,76.917L96.167,76.889L96.235,78.333L96.304,80.083L96.372,80.889L96.441,79.889L96.509,78.389L96.578,78.167L96.646,79.083L96.715,79.139L96.783,80.417L96.851,81.083L96.92,79.444L96.988,78.306L97.057,78.556L97.125,79.306L97.194,79.917L97.262,81.333L97.331,82.306L97.399,81.194L97.467,80.722L97.536,83.056L97.604,83.917L97.673,83.75L97.741,82.806L97.81,83.306L97.878,82.417L97.947,81.167L98.015,82L98.084,80.889L98.152,80.139L98.22,81.472L98.289,81.25L98.357,79.556L98.426,78.194L98.494,77.972L98.563,77.944L98.631,76.556L98.7,76.528L98.768,76.861L98.836,74.583L98.905,72.306L98.973,72.583L99.042,71.5L99.11,71.444L99.179,72.639L99.247,72.917L99.316,72.972L99.384,71.444L99.452,71.472L99.521,69.75L99.589,67.417L99.658,68.611L99.726,70.083L99.795,68.889L99.863,67.333L99.932,66.306L100,64.611L100.068,62.361L100.137,63.222L100.205,64.472L100.274,62.306L100.342,61.111L100.411,60.944L100.479,61.389L100.548,61.833L100.616,63.139L100.684,65.417L100.753,64.778L100.821,62.694L100.89,63.75L100.958,64.389L101.027,65.361L101.095,67.528L101.164,67.556L101.232,66.833L101.3,65.417L101.369,64.333L101.437,64.083L101.506,64.389L101.574,65.917L101.643,67.611L101.711,65.278L101.78,63.833L101.848,63.583L101.916,63.389L101.985,63.889L102.053,66.111L102.122,67.444L102.19,66.417L102.259,64.861L102.327,65.889L102.396,65.889L102.464,65.833L102.533,66.306L102.601,67.25L102.669,65.833L102.738,64.694L102.806,64.444L102.875,66.167L102.943,66.889L103.012,69.167L103.08,69.889L103.149,69.389L103.217,69.917L103.285,70.389L103.354,72.222L103.422,74.028L103.491,76.389L103.559,78.25L103.628,79.25L103.696,79.444L103.765,81.75L103.833,83.528L103.901,85.778L103.97,88.75L104.038,91.194L104.107,91.833L104.175,92.639L104.244,94.778L104.312,97.25L104.381,99.139L104.449,102.083L104.517,104.639L104.586,105.722L104.651,106.75L104.72,109.389L104.788,111.361L104.857,113.694L104.925,114.972L104.994,116.194L105.062,116.417L105.131,116.917L105.199,117.75L105.268,118.694L105.336,119.389L105.404,120.306L105.473,120.306L105.541,119.944L105.61,119.889L105.678,119.556L105.747,119.639L105.815,120.139L105.884,120.75L105.952,120.917L106.02,120.389L106.089,119.583L106.157,119.194L106.226,119.528L106.294,119.722L106.363,119.778L106.431,119.972L106.5,119.361L106.568,119.056L106.636,118.528L106.705,117.806L106.773,117.917L106.842,118L106.91,118.028L106.979,117.861L107.047,117.167L107.116,116.472L107.184,115.667L107.252,115.444L107.321,115.222L107.389,114.694L107.458,113.306L107.526,112.444L107.595,111.528L107.663,110.472L107.732,109.972L107.8,109.833L107.868,108.889L107.937,108.278L108.005,107.139L108.074,106.528L108.142,105.806L108.211,105.417L108.279,104.917L108.348,104.194L108.416,103L108.484,102.028L108.553,101.139L108.621,100.917L108.69,100.167L108.758,100.417L108.827,99.722L108.895,98.444L108.964,97.278L109.032,96.556L109.101,95.861L109.169,95.972L109.237,96.417L109.306,96.194L109.374,95L109.443,93.889L109.511,93.5L109.58,92.667L109.648,92.417L109.717,92.722L109.785,93.361L109.853,92.25L109.922,91.5L109.99,90.528L110.059,90.694L110.127,89.444L110.196,89.833L110.264,90.639L110.333,88.639L110.401,87.528L110.469,87.333L110.538,87.306L110.606,87.167L110.675,87.611L110.743,88.361L110.812,87.111L110.88,85.444L110.949,84.944L111.017,84.722L111.085,84.5L111.154,85.056L111.222,84.333L111.291,82.556L111.359,81.167L111.428,80.611L111.496,80.111L111.565,79.806L111.633,81.361L111.701,82.028L111.77,80.333L111.838,78.75L111.907,78.611L111.975,77.806L112.044,77.25L112.112,77.028L112.181,78.167L112.249,76.167L112.317,74.278L112.386,74.611L112.454,74.139L112.523,73.472L112.591,73.417L112.66,73.806L112.728,71.722L112.797,70.583L112.865,69.639L112.933,69.472L113.002,69.611L113.07,69.694L113.139,69.306L113.207,67.667L113.276,65.556L113.344,65.083L113.413,63.861L113.481,63.278L113.55,64.028L113.618,64.139L113.686,61.639L113.755,59.889L113.823,59.278L113.892,57.778L113.96,56.667L114.029,57.167L114.097,57.306L114.166,55.139L114.234,52.778L114.302,53L114.371,51.861L114.439,50.972L114.508,52.361L114.576,53.444L114.645,50.417L114.713,48.306L114.782,47.139L114.85,45.667L114.918,45.139L114.987,46.25L115.055,46.889L115.124,46.722L115.192,45.528L115.261,45L115.329,46.056L115.398,45.889L115.466,47.778L115.534,48.972L115.603,47.5L115.671,45.972L115.74,46.333L115.808,45.722L115.877,45.139L115.945,46.806L116.014,48.111L116.082,47.333L116.15,45.917L116.219,46.722L116.287,46.333L116.356,44.972L116.424,46.639L116.493,48.556L116.561,46.889L116.63,44.694L116.698,46.361L116.766,46.444L116.835,47.417L116.903,49.444L116.972,51.194L117.04,49.472L117.109,46.722L117.177,45.167L117.246,45.75L117.314,45.139L117.383,46.889L117.451,48.917L117.519,49.306L117.588,48.472L117.656,48.333L117.725,48.667L117.793,48.75L117.862,49.833L117.93,51.972L117.999,50.444L118.067,48.722L118.135,48.472L118.204,48.861L118.272,48.083L118.341,50.306L118.409,52.556L118.478,51.25L118.546,49.306L118.615,48.944L118.683,50L118.751,51.028L118.82,53.583L118.888,54.361L118.957,53.528L119.025,53.028L119.094,53.5L119.162,54.5L119.231,55.167L119.299,55.667L119.367,57.722L119.436,56.361L119.504,54.528L119.573,54.139L119.641,54.333L119.71,54.333L119.778,55.556L119.847,56.139L119.915,55.722L119.983,54.667L120.052,56.528L120.12,57.139L120.189,56.861L120.257,57.667L120.326,59.417L120.394,58.278L120.463,58L120.531,58.806L120.599,61.583L120.668,62.889L120.736,64.139L120.805,64.722L120.873,63.667L120.945,63.361L121.013,62.722L121.081,62.167L121.15,62.056L121.218,64L121.287,65.667L121.355,64.889L121.424,65.389L121.492,65.833L121.561,66.444L121.629,65.389L121.697,66.417L121.766,68.222L121.834,67.889L121.903,68.278L121.971,69.5L122.04,72.5L122.108,73.944L122.177,76.556L122.245,79.5L122.313,81.278L122.382,81.583L122.45,82.75L122.519,83.972L122.587,86.306L122.656,85.889L122.724,87.056L122.793,85.917L122.861,84.278L122.93,84.083L122.998,84.528L123.066,87.028L123.135,88.306L123.203,90.25L123.272,88.417L123.34,86.444L123.409,86.417L123.477,84.861L123.546,84.472L123.614,85.667L123.682,87.194L123.751,85.417L123.819,83.583L123.888,81.5L123.956,80L124.025,78.639L124.093,76.972L124.162,75.667L124.23,73.5L124.298,70.333L124.367,68.667L124.435,67L124.504,66.333L124.572,65.5L124.641,64.472L124.709,63.111L124.778,61.694L124.846,61.722L124.914,61.889L124.983,61.722L125.051,62L125.12,61.083L125.188,62.611L125.257,63.611L125.325,66.306L125.394,69.111L125.462,71.611L125.53,74.056L125.599,76.222L125.667,77.194L125.736,77.611L125.804,80.056L125.873,82.944L125.941,86.556L126.01,89.444L126.078,91.889L126.146,92.5L126.215,91.861L126.283,92.361L126.352,95.556L126.42,97.611L126.489,100.306L126.557,101.639L126.626,101.611L126.694,101.028L126.762,100.556L126.831,99.972L126.899,100L126.968,100.972L127.036,101.167L127.105,99.611L127.173,97.889L127.242,94.111L127.31,90.639L127.379,88L127.447,85.861L127.515,84.639L127.584,82.278L127.652,79.444L127.721,75.917L127.789,72.694L127.858,69.806L127.926,68.722L127.995,67.194L128.063,64.389L128.131,61.528L128.2,58.556L128.268,57.861L128.337,57.028L128.405,54.861L128.474,53.111L128.542,49.722L128.611,46.944L128.679,44.861L128.747,43.444L128.816,42.75L128.884,44.028L128.953,44.75L129.021,43.528L129.09,42.694L129.158,42.833L129.227,43.944L129.295,46.083L129.363,48.194L129.432,49.889L129.5,49L129.569,47.417L129.637,47.389L129.706,47.056L129.774,47.361L129.843,49.639L129.911,52.139L129.979,51.694L130.045,50.472L130.114,50.111L130.182,50L130.25,50.972L130.319,51.75L130.387,53L130.456,51.639L130.524,50.861L130.593,50.667L130.661,51.5L130.73,52.389L130.798,53.472L130.866,55.25L130.935,54.278L131.003,52.083L131.072,51.75L131.14,51.278L131.209,51.5L131.277,52.111L131.346,52.111L131.414,49.833L131.482,47.972L131.551,48.722L131.619,49.111L131.688,48.806L131.756,50L131.825,52.306L131.893,50.528L131.962,47.861L132.03,46.833L132.098,47.167L132.167,47.917L132.235,49.639L132.304,50.417L132.372,48.972L132.441,47.806L132.509,49.222L132.578,48.611L132.646,49.611L132.714,50.528L132.783,51.944L132.851,49.861L132.92,47.972L132.988,47L133.057,46.694L133.125,47.278L133.194,49.75L133.262,51.417L133.33,50.861L133.399,48.25L133.467,48.472L133.536,48.417L133.604,48.139L133.673,49.333L133.741,51.056L133.81,49.778L133.878,48.167L133.946,48.556L134.015,49.056L134.083,49.778L134.152,50.944L134.22,52.083L134.289,50.972L134.357,49.583L134.426,49.5L134.494,48.806L134.563,47.028L134.631,48.806L134.699,50.528L134.768,49.333L134.836,47.389L134.905,48.056L134.973,47.806L135.042,48.028L135.11,50.778L135.179,51.389L135.247,49.444L135.315,47.111L135.384,45.472L135.452,46L135.521,45.333L135.589,47L135.658,48.583L135.726,48.056L135.795,46.972L135.863,47.167L135.931,45.528L136,45.917L136.068,47.556L136.137,47.694L136.205,45.889L136.274,43.944L136.342,42.861L136.411,43.361L136.479,43.944L136.547,45.444L136.616,47.611L136.684,44.861L136.753,41.917L136.821,41.694L136.89,41.528L136.958,41.139L137.027,43.639L137.095,44.889L137.163,42.528L137.232,41.472L137.3,41.139L137.369,41.194L137.437,41.028L137.506,42.639L137.574,44.917L137.643,42.806L137.711,39.917L137.779,38.444L137.848,37.028L137.916,36.444L137.985,38.778L138.053,40.667L138.122,38.75L138.19,37.583L138.259,37.389L138.327,38.667L138.396,39L138.464,39.667L138.532,40.917L138.601,39.667L138.669,37.472L138.738,38.778L138.806,40.028L138.875,40.556L138.943,42.889L139.012,45.917L139.08,44.278L139.148,42.806L139.217,42.722L139.285,41.861L139.354,42.111L139.422,42.611L139.491,44.194L139.559,42.944L139.628,41.694L139.696,42.611L139.764,43.972L139.833,45.444L139.901,47.611L139.97,49.556L140.038,49.722L140.107,48.139L140.175,47.111L140.244,46.556L140.312,46.611L140.38,46.806L140.449,48.083L140.517,46.833L140.586,44.472L140.654,42.778L140.723,42.972L140.791,42.333L140.86,42.833L140.928,43.861L140.996,41.083L141.065,38.528L141.133,37.333L141.202,36.694L141.27,36.778L141.339,37.806L141.407,38.972L141.476,37.25L141.544,36.167L141.612,35.75L141.681,34.389L141.749,33.944L141.818,34.083L141.886,34.139L141.955,32.361L142.023,30.139L142.092,27.75L142.16,25.75L142.228,25.917L142.297,27.361L142.365,28.917L142.434,27.917L142.502,26.028L142.571,26L142.639,26.194L142.708,27.333L142.776,28.833L142.845,30.806L142.913,30.139L142.981,28.806L143.05,29.639L143.118,28.806L143.187,29.444L143.255,32.083L143.324,33.167L143.392,31.889L143.461,30.222L143.529,31.028L143.597,31.111L143.666,31.667L143.734,34.694L143.803,36.444L143.871,35.472L143.94,34.694L144.008,35.583L144.077,37.139L144.145,38.083L144.213,41.278L144.282,44.194L144.35,43.25L144.419,42.472L144.487,42.583L144.556,44L144.624,44.944L144.693,47.278L144.761,49.639L144.829,49.361L144.898,47.944L144.966,47.444L145.035,47.361L145.103,47.806L145.172,50.389L145.24,51.861L145.309,50.667L145.377,50.111L145.445,51.722L145.514,54.111L145.582,56.472L145.651,58.417L145.719,60.278L145.788,59.028L145.856,57.167L145.925,57.222L145.993,56.194L146.061,55.889L146.13,57.111L146.198,58.944L146.267,57.111L146.338,55.917L146.407,55.861L146.475,55.861L146.543,56.278L146.612,57.639L146.68,59.167L146.749,58.472L146.817,56.667L146.886,56.083L146.954,55.667L147.023,56.056L147.091,58.25L147.159,59.472L147.228,58.361L147.296,56.972L147.365,57.028L147.433,58.306L147.502,60.194L147.57,61.25L147.639,61.556L147.707,60.306L147.775,58.528L147.844,58.5L147.912,59.333L147.981,61.278L148.049,64.667L148.118,65.75L148.186,64.639L148.255,63.139L148.323,64.389L148.392,63.806L148.46,66.639L148.528,69.306L148.597,71.361L148.665,70.694L148.734,69.194L148.802,68.139L148.871,67.972L148.939,68.694L149.008,70.75L149.076,72.722L149.144,71.639L149.213,70.194L149.281,69.444L149.35,70.139L149.418,69.083L149.487,69.528L149.555,68.111L149.624,64.639L149.692,61.778L149.76,60.722L149.829,60.528L149.897,60.806L149.966,63.333L150.034,64.611L150.103,63.917L150.171,65.194L150.24,65.444L150.308,66.056L150.376,65.75L150.445,67.806L150.513,66.556L150.582,64.083L150.65,61.028L150.719,58.889L150.787,57.889L150.856,57.806L150.924,58.861L150.992,60.694L151.061,60.139L151.129,58.028L151.198,55.667L151.266,53.778L151.335,54.278L151.403,54.472L151.472,56.139L151.54,54.889L151.608,53.472L151.677,53.556L151.745,53.5L151.814,54.417L151.882,55.583L151.951,55.583L152.019,51.694L152.088,46.778L152.156,44.556L152.225,40.917L152.293,40.278L152.361,40.25L152.43,40.333L152.498,37.722L152.567,35.306L152.635,35.583L152.704,35.25L152.772,35.306L152.841,37.694L152.909,39.167L152.977,37.778L153.046,34.111L153.114,31.889L153.183,32.25L153.251,33L153.32,35.444L153.388,36.472L153.457,35.417L153.525,33.139L153.593,31.694L153.662,32.111L153.73,32.306L153.799,34.25L153.867,34.889L153.936,34.083L154.004,32.75L154.073,32.417L154.141,33L154.209,32.694L154.278,34.583L154.346,35.806L154.415,35.194L154.483,32.556L154.552,33.944L154.62,35.028L154.689,33.667L154.757,35.806L154.825,37.333L154.894,34.5L154.96,32.639L155.028,33.028L155.096,34.667L155.165,36.722L155.233,37.917L155.302,40.139L155.37,39.028L155.439,38L155.507,37.611L155.576,38.25L155.644,39.861L155.712,41.333L155.781,42.528L155.849,40.528L155.918,39.083L155.986,37.75L156.055,38.028L156.123,38.056L156.192,40.306L156.26,41.972L156.328,41.556L156.397,39L156.465,39.389L156.534,40.583L156.602,40.028L156.671,42.056L156.739,43.972L156.808,41.611L156.876,40.833L156.944,41.028L157.013,39.75L157.081,38.306L157.15,38.528L157.218,38.944L157.287,36.944L157.355,34.389L157.424,33.861L157.492,33.583L157.56,34.194L157.629,36.167L157.697,36.639L157.766,34.083L157.834,31.583L157.903,31.944L157.971,31.694L158.04,32.139L158.108,33.75L158.176,36.417L158.245,36.639L158.313,35.306L158.382,34.583L158.45,34.444L158.519,34.083L158.587,35.861L158.656,37.417L158.724,35.111L158.792,32.944L158.861,33.083L158.929,32.194L158.998,32.167L159.066,34.583L159.135,37.611L159.203,36.472L159.272,34.778L159.34,34.139L159.409,34.889L159.477,35.944L159.545,37.444L159.614,38.917L159.682,37.083L159.751,34.917L159.819,34.222L159.888,33.972L159.956,34.222L160.025,35.722L160.093,37.278L160.161,35.917L160.23,33.417L160.298,31.5L160.367,29.694L160.435,29.889L160.504,32.194L160.572,33.611L160.641,34.222L160.709,31.667L160.777,30.083L160.846,29.528L160.914,29.361L160.983,31.222L161.051,32.889L161.12,30.472L161.188,27.778L161.257,26.917L161.325,25.583L161.393,26.139L161.462,27.194L161.53,27.667L161.599,25.194L161.667,23L161.736,22.694L161.804,23.083L161.873,24.472L161.941,27.333L162.009,29.139L162.078,26.833L162.146,24.167L162.215,23.5L162.283,23.389L162.352,23.667L162.42,27.389L162.489,28.75L162.557,26.278L162.625,24.056L162.694,21.361L162.762,22.194L162.831,23.556L162.899,26.333L162.968,28.694L163.036,26.917L163.105,25.417L163.173,26.306L163.242,26.722L163.31,26.861L163.378,29.917L163.447,32.5L163.515,31.222L163.584,29.806L163.652,29.333L163.721,28.222L163.789,28.944L163.858,30.583L163.926,31.639L163.994,28.972L164.063,25.389L164.131,26.028L164.2,26.889L164.268,26.611L164.337,28.278L164.405,30L164.474,27.667L164.542,24.583L164.61,24.472L164.679,24.556L164.747,25.194L164.816,26.5L164.884,28.417L164.953,28.222L165.021,26.833L165.09,26.944L165.158,25.917L165.226,26.389L165.295,27.861L165.363,30.25L165.432,28.444L165.5,26.083L165.569,25.75L165.637,24.333L165.706,24.944L165.774,28.111L165.842,29.111L165.911,27.25L165.979,25.083L166.048,24.611L166.116,25.972L166.185,26.889L166.253,29.167L166.322,31.75L166.39,30.861L166.458,29.056L166.527,29.111L166.595,30.889L166.664,31.639L166.732,34.056L166.801,36.056L166.869,35.444L166.938,34.75L167.006,34.167L167.074,33.889L167.143,34.75L167.211,37.389L167.28,39.806L167.348,39.444L167.417,38.833L167.485,39.25L167.554,39.139L167.622,38.778L167.691,42.389L167.759,44L167.827,42.806L167.896,41.167L167.964,41.361L168.033,42.583L168.101,44.25L168.17,46.306L168.238,47.722L168.307,46.389L168.375,45.194L168.443,44.611L168.512,44.833L168.58,45.444L168.649,47.139L168.717,49.056L168.786,46.556L168.854,44.028L168.923,43.194L168.991,41.333L169.059,40.833L169.128,42.417L169.196,43.306L169.265,41.917L169.333,40.444L169.402,40.111L169.47,38.917L169.539,38.778L169.607,41.028L169.675,43.583L169.744,42.139L169.812,42.167L169.881,43L169.949,43.306L170.018,44.639L170.086,46.611L170.155,48.694L170.223,47.278L170.291,46L170.36,46.083L170.428,47.917L170.497,49.972L170.565,51.583L170.634,52.889L170.702,49.639L170.771,47.806L170.839,48.694L170.907,48.917L170.976,48.806L171.044,51.583L171.113,53.139L171.181,51.75L171.253,50.222L171.321,50.889L171.389,50.056L171.458,49.139L171.526,51.167L171.595,52.722L171.663,52.028L171.732,50.25L171.8,50.417L171.869,49.389L171.937,49.861L172.005,52.194L172.074,53.222L172.142,51.083L172.211,48.917L172.279,49.194L172.348,49.472L172.416,50.333L172.485,51.083L172.553,52.528L172.621,53.417L172.69,52L172.758,53.5L172.827,53.611L172.895,53.722L172.964,55.889L173.032,58.444L173.101,56.889L173.169,55.583L173.238,55.306L173.306,55.139L173.374,54.833L173.443,56.028L173.511,58.5L173.58,57.389L173.648,53.944L173.717,52.139L173.785,52.417L173.854,52.75L173.922,54.583L173.99,54.556L174.059,53.333L174.127,50.667L174.196,50.722L174.264,50.5L174.333,50.278L174.401,51.194L174.47,51L174.538,48.139L174.606,44.028L174.675,41.806L174.743,40.611L174.812,40.694L174.88,42.5L174.949,43.583L175.017,40.25L175.086,36.75L175.154,36.944L175.222,35.861L175.291,36.861L175.359,39.778L175.428,40.083L175.496,38.472L175.565,36.583L175.633,36.5L175.702,37.944L175.77,38.472L175.838,39.861L175.907,39.972L175.975,38.222L176.044,36.861L176.112,34.833L176.181,35.639L176.249,35.75L176.318,37.389L176.386,37.75L176.454,36.75L176.523,36L176.591,35.472L176.66,36.083L176.728,35.944L176.797,38.167L176.865,39.444L176.934,37.361L177.002,36.75L177.07,39.139L177.139,38.944L177.207,37.972L177.276,40.111L177.344,40.222L177.413,37.111L177.481,37.056L177.55,37.917L177.618,36.778L177.687,36.472L177.755,38.583L177.823,39.694L177.892,38.889L177.96,38.083L178.029,37.444L178.097,36.639L178.166,37.333L178.234,38.472L178.303,40.083L178.371,38.028L178.439,36.806L178.508,35.111L178.576,34.694L178.645,34.167L178.713,36.278L178.782,37.361L178.85,36.111L178.919,32.778L178.987,31.806L179.055,30.556L179.124,28.417L179.192,31.25L179.261,33.722L179.329,31.944L179.398,30.083L179.466,30.278L179.535,29L179.603,29.167L179.671,31.306L179.74,33.167L179.808,30.611L179.874,28.194L179.942,26.944L180.011,27.417L180.079,28L180.148,29.833L180.216,30.861L180.285,29.083L180.353,25.944L180.422,26.167L180.49,25.389L180.558,26.778L180.627,27.417L180.695,29.417L180.764,26.667L180.832,23.75L180.901,22.833L180.969,23.667L181.038,24.611L181.106,26.528L181.174,29.25L181.243,26.917L181.311,23.833L181.38,23.306L181.448,24.75L181.517,25.583L181.585,28.083L181.654,28.917L181.722,27.25L181.79,24.583L181.859,24.25L181.927,23.917L181.996,24.056L182.064,24.667L182.133,25.694L182.201,23.667L182.27,21.667L182.338,21.194L182.406,21.306L182.475,21.25L182.543,23.389L182.612,24.028L182.68,22.833L182.749,20.111L182.817,20.056L182.886,21.361L182.954,21.833L183.022,24.306L183.091,27.056L183.159,27.194L183.228,24.139L183.296,24.028L183.365,23.444L183.433,24.167L183.502,25.972L183.57,27.25L183.638,24L183.707,21.556L183.775,22.111L183.844,21.972L183.912,22.694L183.981,25.944L184.049,27.417L184.118,25.667L184.186,23.778L184.255,24.111L184.323,24.75L184.391,25.722L184.46,28.833L184.528,31.278L184.597,31.417L184.665,28.75L184.734,28.389L184.802,28.972L184.871,29.056L184.939,30.806L185.007,31.917L185.076,29.222L185.144,25.167L185.213,22.222L185.281,22.722L185.35,23.333L185.418,25.528L185.487,27.167L185.555,24.833L185.623,25L185.692,26.861L185.76,26.944L185.829,26.389L185.897,28.833L185.966,30.667L186.034,28.417L186.103,25.556L186.171,24.917L186.239,24.361L186.308,24.333L186.376,26.111L186.445,27.417L186.513,24.167L186.582,21.583L186.65,19.25L186.719,19.944L186.787,20.222L186.855,22.333L186.924,24.472L186.992,21.806L187.061,20.694L187.129,20.528L187.198,21.389L187.266,22.389L187.335,24.972L187.403,26.583L187.471,24.944L187.54,22.056L187.608,20.861L187.677,18L187.745,17.083L187.814,19.111L187.882,21.417L187.951,18.889L188.019,15.222L188.087,15.972L188.156,16.611L188.224,17.833L188.293,20.583L188.361,22.306L188.43,20.306L188.498,18.333L188.567,19.25L188.635,19.139L188.704,20L188.772,22.583L188.84,24.444L188.909,22.5L188.977,20.694L189.046,21.056L189.114,21.444L189.183,22.778L189.251,25.722L189.32,26.972L189.388,24.639L189.456,22.722L189.525,23.972L189.593,24.278L189.662,25.778L189.73,28.417L189.799,30.667L189.867,30.972L189.936,29.222L190.004,29.889L190.072,31.667L190.141,30.972L190.209,33.611L190.278,34.528L190.346,32.25L190.415,30.25L190.483,30.111L190.552,29.667L190.62,29.472L190.688,30.639L190.757,32.222L190.825,30.472L190.894,28.111L190.962,27.75L191.031,27.333L191.099,28.472L191.168,30.833L191.236,33.056L191.304,32.194L191.373,30.667L191.441,31.194L191.51,30.333L191.578,32.389L191.647,35.139L191.715,36.417L191.784,34.056L191.852,31.75L191.92,29.944L191.989,27.917L192.057,28.389L192.126,30.75L192.194,33.5L192.263,32.389L192.331,31.833L192.4,32.194L192.468,32.389L192.537,33.167L192.605,36.5L192.673,38.722L192.742,37.583L192.81,35.194L192.879,34.806L192.947,35.139L193.016,37.056L193.084,39.75L193.153,41.167L193.221,38.667L193.289,35.972L193.358,34L193.426,34.222L193.495,33.667L193.563,36.333L193.632,36.194L193.7,34.25L193.769,33.278L193.837,34.306L193.905,34.111L193.974,35L194.042,38.194L194.111,39.667L194.179,37.528L194.248,34.889L194.316,34.861L194.385,33.361L194.453,33.611L194.521,35.75L194.59,37.389L194.658,34.556L194.727,32.639L194.795,33.389L194.864,34.472L194.932,34.389L195.001,35.861L195.069,35.944L195.137,33.694L195.206,32.528L195.274,34.139L195.343,37.333L195.411,39.861L195.48,41.889L195.548,43.889L195.617,42.722L195.685,41.083L195.753,42.083L195.822,41.75L195.89,42.417L195.959,44.722L196.027,46.417L196.096,45.694L196.167,44.167L196.235,45.222L196.304,45.611L196.372,45.139L196.441,47.583L196.509,49.556L196.578,48L196.646,46.472L196.715,47.139L196.783,47.611L196.851,47.972L196.92,49.306L196.988,51.111L197.057,51.083L197.125,50.028L197.194,50.75L197.262,51.361L197.331,50.833L197.399,49.722L197.467,49.889L197.536,50.556L197.604,49.25L197.673,49.194L197.741,49.361L197.81,48.361L197.878,49.778L197.947,50.917L198.015,51.222L198.084,49.583L198.152,49.222L198.22,48.278L198.289,46.944L198.357,48.306L198.426,49.889L198.494,48.667L198.563,46.889L198.631,46.167L198.7,45.5L198.768,45.111L198.836,46.056L198.905,47.278L198.973,47.028L199.042,47.556L199.11,48.389L199.179,49.306L199.247,50.167L199.316,51.194L199.384,52.167L199.452,50.111L199.521,48.444L199.589,45.722L199.658,44.917L199.726,44.917L199.795,45.306L199.863,47.278L199.932,45.083L200,42.194L200.068,39.889L200.137,38.556L200.205,39L200.274,40.694L200.342,42.333L200.411,40.167L200.479,37.472L200.548,36.528L200.616,36.389L200.684,36.889L200.753,38.417L200.821,39.722L200.89,38.222L200.958,38.833L201.027,39.417L201.095,37.861L201.164,36.333L201.232,37.667L201.3,38.444L201.369,37.444L201.437,35.083L201.506,35.111L201.574,34.667L201.643,34.056L201.711,35.528L201.78,36.639L201.848,35.222L201.916,33.139L201.985,33.556L202.053,33.722L202.122,34.222L202.19,37.028L202.259,37.389L202.327,40.444" stroke="#4c78a8" stroke-width="2"/></g><g class="mark-group role-title"><g transform="translate(100,-17)"><path class="background" aria-hidden="true" d="M0,0h0v0h0Z" pointer-events="none"/><g><g class="mark-text role-title-text" role="graphics-symbol" aria-roledescription="title" aria-label="Title text 'Derelict Vehicles: Derelict Vehicles'" pointer-events="none"><text text-anchor="middle" transform="translate(0,10)" font-family="sans-serif" font-size="13px" font-weight="bold" fill="#000" opacity="1">Derelict Vehicles: Derelict Vehicles</text></g></g><path class="foreground" aria-hidden="true" d="" pointer-events="none" display="none"/></g></g></g><path class="foreground" aria-hidden="true" d="" display="none"/></g></g></g><defs><clipPath id="clip127"><rect x="0" y="0" width="200" height="150"/></clipPath></defs></svg>