<svg xmlns="http://www.w3.org/2000/svg" xmlns:xlink="http://www.w3.org/1999/xlink" version="1.1" class="marks" width="237" height="199" viewBox="0 0 237 199"><rect width="237" height="199" fill="white"/><g fill="none" stroke-miterlimit="10" transform="translate(29,27)"><g class="mark-group role-frame root" role="graphics-object" aria-roledescription="group mark container"><g transform="translate(0,0)"><path class="background" aria-hidden="true" d="M0,0h200v150h-200Z"/><g><g class="mark-group role-axis" aria-hidden="true"><g transform="translate(0.5,0.5)"><path class="background" aria-hidden="true" d="M0,0h0v0h0Z" pointer-events="none"/><g><g class="mark-rule role-axis-grid" pointer-events="none"><line transform="translate(0,150)" x2="200" y2="0" stroke="#ddd" stroke-width="1" opacity="1"/><line transform="translate(0,113)" x2="200" y2="0" stroke="#ddd" stroke-width="1" opacity="1"/><line transform="translate(0,75)" x2="200" y2="0" stroke="#ddd" stroke-width="1" opacity="1"/><line transform="translate(0,38)" x2="200" y2="0" stroke="#ddd" stroke-width="1" opacity="1"/><line transform="translate(0,0)" x2="200" y2="0" stroke="#ddd" stroke-width="1" opacity="1"/></g></g><path class="foreground" aria-hidden="true" d="" pointer-events="none" display="none"/></g></g><g class="mark-group role-axis" role="graphics-symbol" aria-roledescription="axis" aria-label="X-axis for a time scale with values from Friday, 01 January 2016, 12:00:00 AM to Monday, 01 January 2024, 12:00:00 AM"><g transform="translate(0.5,150.5)"><path class="background" aria-hidden="true" d="M0,0h0v0h0Z" pointer-events="none"/><g><g class="mark-rule role-axis-tick" pointer-events="none"><line transform="translate(0,0)" x2="0" y2="5" stroke="#888" stroke-width="1" opacity="1"/><line transform="translate(50,0)" x2="0" y2="5" stroke="#888" stroke-width="1" opacity="1"/><line transform="translate(100,0)" x2="0" y2="5" stroke="#888" stroke-width="1" opacity="1"/><line transform="translate(150,0)" x2="0" y2="5" stroke="#888" stroke-width="1" opacity="1"/><line transform="translate(200,0)" x2="0" y2="5" stroke="#888" stroke-width="1" opacity="1"/></g><g class="mark-text role-axis-label" pointer-events="none"><text text-anchor="start" transform="translate(0,15)" font-family="sans-serif" font-size="10px" fill="#000" opacity="1">2016</text><text text-anchor="middle" transform="translate(50.03422313483915,15)" font-family="sans-serif" font-size="10px" fill="#000" opacity="1">2018</text><text text-anchor="middle" transform="translate(100,15)" font-family="sans-serif" font-size="10px" fill="#000" opacity="1">2020</text><text text-anchor="middle" transform="translate(150.03422313483915,15)" font-family="sans-serif" font-size="10px" fill="#000" opacity="1">2022</text><text text-anchor="end" transform="translate(200,15)" font-family="sans-serif" font-size="10px" fill="#000" opacity="1">2024</text></g><g class="mark-rule role-axis-domain" pointer-events="none"><line transform="translate(0,0)" x2="200" y2="0" stroke="#888" stroke-width="1" opacity="1"/></g></g><path class="foreground" aria-hidden="true" d="" pointer-events="none" display="none"/></g></g><g class="mark-group role-axis" role="graphics-symbol" aria-roledescription="axis" aria-label="Y-axis for a linear scale with values from 0 to 200"><g transform="translate(0.5,0.5)"><path class="background" aria-hidden="true" d="M0,0h0v0h0Z" pointer-events="none"/><g><g class="mark-rule role-axis-tick" pointer-events="none"><line transform="translate(0,150)" x2="-5" y2="0" stroke="#888" stroke-opacity="0" stroke-width="1" opacity="1"/><line transform="translate(0,113)" x2="-5" y2="0" stroke="#888" stroke-opacity="0" stroke-width="1" opacity="1"/><line transform="translate(0,75)" x2="-5" y2="0" stroke="#888" stroke-opacity="0" stroke-width="1" opacity="1"/><line transform="translate(0,38)" x2="-5" y2="0" stroke="#888" stroke-opacity="0" stroke-width="1" opacity="1"/><line transform="translate(0,0)" x2="-5" y2="0" stroke="#888" stroke-opacity="0" stroke-width="1" opacity="1"/></g><g class="mark-text role-axis-label" pointer-events="none"><text text-anchor="end" transform="translate(-7,153)" font-family="sans-serif" font-size="10px" fill="#000" opacity="1">0</text><text text-anchor="end" transform="translate(-7,115.5)" font-family="sans-serif" font-size="10px" fill="#000" opacity="1">50</text><text text-anchor="end" transform="translate(-7,78)" font-family="sans-serif" font-size="10px" fill="#000" opacity="1">100</text><text text-anchor="end" transform="translate(-7,40.5)" font-family="sans-serif" font-size="10px" fill="#000" opacity="1">150</text><text text-anchor="end" transform="translate(-7,3)" font-family="sans-serif" font-size="10px" fill="#000" opacity="1">200</text></g></g><path class="foreground" aria-hidden="true" d="" pointer-events="none" display="none"/></g></g><g class="mark-line role-mark marks" clip-path="url(#clip128)" role="graphics-object" aria-roledescription="line mark container"><path aria-label="day: Jun 03, 2010; avg: 14.0333333333" role="graphics-symbol" aria-roledescription="line mark" d="M-139.496,139.475L-139.428,139.45L-139.359,139.6L-139.291,139.5L-139.223,139.175L-139.154,139L-139.086,138.925L-139.017,138.725L-138.949,139.125L-138.88,139.325L-138.812,139.35L-138.743,139.5L-138.675,139.5L-138.607,139.375L-138.538,139.45L-138.47,139.525L-138.401,139.75L-138.333,139.55L-138.264,139.4L-138.196,139.325L-138.127,139.25L-138.059,139.15L-137.991,138.975L-137.922,139.25L-137.854,139.275L-137.785,139.3L-137.717,139.275L-137.648,139.25L-137.58,139.175L-137.511,139.225L-137.443,139.475L-137.375,139.275L-137.306,138.875L-137.238,138.75L-137.169,138.925L-137.101,138.725L-137.032,138.975L-136.964,139.075L-136.895,138.8L-136.827,138.9L-136.758,138.9L-136.69,139.075L-136.622,138.975L-136.553,139.225L-136.485,139.25L-136.416,139.175L-136.348,139.075L-136.279,139.175L-136.211,139.075L-136.142,139.05L-136.074,139.075L-136.006,139.3L-135.937,139.325L-135.869,139.2L-135.8,139.2L-135.732,138.9L-135.663,138.675L-135.595,138.85L-135.526,138.85L-135.458,138.65L-135.39,138.325L-135.321,138.175L-135.253,138.425L-135.184,138.45L-135.116,138.5L-135.047,138.775L-134.979,138.825L-134.91,138.825L-134.842,138.875L-134.774,138.85L-134.705,139.075L-134.637,139.075L-134.568,139.325L-134.5,139.4L-134.431,139.15L-134.363,138.925L-134.294,138.975L-134.226,139.025L-134.158,139.1L-134.089,139.225L-134.021,139.225L-133.952,139.1L-133.884,139L-133.815,138.95L-133.747,139.05L-133.678,139.15L-133.61,139.5L-133.542,139.25L-133.473,139.1L-133.405,139.25L-133.336,139.25L-133.268,139.425L-133.199,139.25L-133.131,139.35L-133.062,139.3L-132.994,139.175L-132.926,138.85L-132.857,138.85L-132.789,139.025L-132.72,139.05L-132.652,139.075L-132.583,138.975L-132.515,138.725L-132.446,138.525L-132.378,138.525L-132.309,138.8L-132.241,138.925L-132.173,138.975L-132.104,138.9L-132.036,139.05L-131.967,138.95L-131.899,138.95L-131.83,139.175L-131.762,139.25L-131.693,139.275L-131.625,139.15L-131.557,138.775L-131.488,138.775L-131.42,138.65L-131.351,138.575L-131.283,138.875L-131.214,138.825L-131.146,138.875L-131.077,138.925L-131.009,138.775L-130.941,138.95L-130.872,139.025L-130.804,139.225L-130.735,139.175L-130.667,138.875L-130.598,138.6L-130.53,138.55L-130.461,138.625L-130.393,138.525L-130.325,138.725L-130.256,138.85L-130.188,138.8L-130.119,138.55L-130.051,138.55L-129.982,138.3L-129.914,138.525L-129.845,138.475L-129.777,138.525L-129.709,138.5L-129.64,138.375L-129.572,138.825L-129.503,139.2L-129.435,139.3L-129.366,139.8L-129.298,140.175L-129.229,140.15L-129.161,140.1L-129.093,140.15L-129.024,140.1L-128.956,140.05L-128.887,139.85L-128.819,140L-128.75,139.925L-128.679,139.85L-128.611,139.9L-128.542,140.025L-128.474,140.175L-128.405,140.325L-128.337,140.525L-128.268,140.375L-128.2,140.25L-128.131,140.25L-128.063,140.475L-127.995,140.4L-127.926,140.65L-127.858,140.7L-127.789,140.75L-127.721,140.675L-127.652,140.55L-127.584,140.55L-127.515,140.475L-127.447,140.525L-127.379,140.725L-127.31,140.775L-127.242,140.425L-127.173,140L-127.105,139.8L-127.036,139.45L-126.968,139.225L-126.899,139.325L-126.831,139.125L-126.762,138.65L-126.694,138.4L-126.626,138.275L-126.557,138.4L-126.489,138.225L-126.42,138.225L-126.352,138.05L-126.283,137.9L-126.215,137.925L-126.146,137.775L-126.078,137.725L-126.01,137.675L-125.941,137.775L-125.873,137.8L-125.804,137.75L-125.736,137.35L-125.667,137.125L-125.599,137.075L-125.53,136.975L-125.462,136.8L-125.394,136.475L-125.325,135.95L-125.257,135.6L-125.188,135.6L-125.12,135.55L-125.051,135.175L-124.983,135.025L-124.914,134.35L-124.846,133.65L-124.778,133.35L-124.709,133.325L-124.641,132.95L-124.572,132.8L-124.504,132.45L-124.435,132.025L-124.367,131.725L-124.298,131.525L-124.23,131.45L-124.162,131.1L-124.093,131.375L-124.025,131.3L-123.956,131.2L-123.888,131.2L-123.819,131L-123.751,130.475L-123.682,130.525L-123.614,130.75L-123.546,130.975L-123.477,131.175L-123.409,131.325L-123.34,131.475L-123.272,131.45L-123.203,131.525L-123.135,131.75L-123.066,132.1L-122.998,132.65L-122.93,132.925L-122.861,133.375L-122.793,133.925L-122.724,134.475L-122.656,135.025L-122.587,135.9L-122.519,136.15L-122.45,136.325L-122.382,136.95L-122.313,137.2L-122.245,137.375L-122.177,137.625L-122.108,138.225L-122.04,138.025L-121.971,138.075L-121.903,138.025L-121.834,137.85L-121.766,137.8L-121.697,138.3L-121.629,138.675L-121.561,138.475L-121.492,138.575L-121.424,138.35L-121.355,138.025L-121.287,137.975L-121.218,138.175L-121.15,138.225L-121.081,137.95L-121.013,137.925L-120.945,138L-120.876,138.075L-120.808,138.5L-120.739,138.6L-120.671,138.775L-120.602,138.375L-120.534,138.05L-120.465,138.2L-120.397,138.15L-120.329,137.95L-120.26,137.975L-120.192,138.05L-120.123,137.8L-120.058,137.525L-119.989,137.625L-119.921,137.475L-119.852,137.725L-119.784,138.075L-119.715,138.325L-119.647,138.325L-119.578,138.275L-119.51,138.45L-119.442,138.175L-119.373,138.275L-119.305,138.75L-119.236,138.875L-119.168,138.85L-119.099,138.9L-119.031,138.775L-118.962,138.575L-118.894,138.425L-118.826,138.4L-118.757,138.4L-118.689,138.4L-118.62,137.925L-118.552,138.125L-118.483,138.1L-118.415,138.025L-118.346,138.1L-118.278,138.35L-118.21,138.1L-118.141,138.1L-118.073,138.2L-118.004,138.05L-117.936,137.925L-117.867,138.2L-117.799,138.25L-117.73,138.075L-117.662,137.875L-117.594,137.6L-117.525,137.45L-117.457,137.125L-117.388,137.125L-117.32,137.2L-117.251,137.025L-117.183,136.7L-117.114,136.8L-117.046,136.5L-116.978,136.6L-116.909,136.85L-116.841,137.225L-116.772,137.35L-116.704,137L-116.635,136.975L-116.567,137.15L-116.498,136.975L-116.43,136.875L-116.362,136.9L-116.293,137.025L-116.225,136.675L-116.156,136.95L-116.088,136.9L-116.019,137.05L-115.951,137.175L-115.882,137.35L-115.814,137.025L-115.745,136.625L-115.677,136.575L-115.609,136.2L-115.54,136.3L-115.472,136.4L-115.403,136.775L-115.335,136.75L-115.266,136.525L-115.198,136.4L-115.129,136.425L-115.061,136.475L-114.993,136.75L-114.924,137.075L-114.856,137.075L-114.787,136.825L-114.719,136.55L-114.65,136.875L-114.582,136.95L-114.513,137.1L-114.445,137.425L-114.377,137.8L-114.308,137.475L-114.24,137.525L-114.171,137.45L-114.103,137.4L-114.034,137.375L-113.966,137.425L-113.897,137.425L-113.829,137.2L-113.761,137.3L-113.692,137.475L-113.624,137.475L-113.555,138.075L-113.487,138.275L-113.418,138.3L-113.35,138.2L-113.281,138.025L-113.213,137.95L-113.145,138.025L-113.076,138.45L-113.008,138.65L-112.939,138.475L-112.871,138.225L-112.802,138.175L-112.734,138.075L-112.665,138.4L-112.597,138.275L-112.529,138.25L-112.46,138.25L-112.392,138.025L-112.323,137.75L-112.255,137.775L-112.186,137.675L-112.118,138.1L-112.049,138.275L-111.981,138.25L-111.913,137.975L-111.844,137.7L-111.776,137.775L-111.707,137.825L-111.639,138.025L-111.57,138.25L-111.502,138.225L-111.433,138.025L-111.365,137.85L-111.296,137.725L-111.228,137.925L-111.16,138.225L-111.091,138.35L-111.023,138.125L-110.954,137.825L-110.886,138.025L-110.817,138.125L-110.749,138.4L-110.68,138.8L-110.612,139.075L-110.544,139.2L-110.475,139.175L-110.407,139.375L-110.338,139.575L-110.27,139.65L-110.201,140.05L-110.133,140.2L-110.064,139.95L-109.996,139.975L-109.928,140.15L-109.859,140.375L-109.791,140.625L-109.722,140.725L-109.654,141.025L-109.585,140.625L-109.517,140.275L-109.448,139.975L-109.38,140.025L-109.312,140.05L-109.243,140.175L-109.175,140.125L-109.106,140.05L-109.038,139.775L-108.969,139.675L-108.901,139.55L-108.832,139.425L-108.764,139.45L-108.696,139.25L-108.627,138.875L-108.559,138.4L-108.49,138.275L-108.422,138.25L-108.353,138.15L-108.285,138.2L-108.216,138.225L-108.148,138.225L-108.08,138L-108.011,138.075L-107.943,137.725L-107.874,137.425L-107.806,137.375L-107.737,137.675L-107.669,137.675L-107.6,137.375L-107.532,137.55L-107.463,137.625L-107.395,137.9L-107.327,138.075L-107.258,138.325L-107.19,138.175L-107.121,137.85L-107.053,137.875L-106.984,138.125L-106.916,138.275L-106.847,138.35L-106.779,138.4L-106.711,138.175L-106.642,138.125L-106.574,138.325L-106.505,138.45L-106.437,138.375L-106.368,138.675L-106.3,138.75L-106.231,138.65L-106.163,138.45L-106.095,138.375L-106.026,138.475L-105.958,138.6L-105.889,138.825L-105.821,139.05L-105.752,139.15L-105.684,138.95L-105.615,138.9L-105.547,138.875L-105.479,139.15L-105.41,139.35L-105.342,139.375L-105.273,139.175L-105.205,138.975L-105.136,139.125L-105.068,139.625L-104.999,139.85L-104.931,139.9L-104.863,140L-104.794,140.05L-104.726,140.075L-104.657,140.175L-104.589,140.4L-104.52,140.35L-104.452,140.425L-104.383,140.75L-104.315,140.475L-104.247,140.35L-104.178,140.375L-104.11,140.6L-104.041,140.525L-103.973,140.6L-103.904,140.725L-103.836,140.675L-103.765,140.675L-103.696,140.7L-103.628,140.8L-103.559,140.9L-103.491,141.075L-103.422,141.1L-103.354,141.1L-103.285,141.125L-103.217,141.325L-103.149,141.425L-103.08,141.5L-103.012,141.45L-102.943,141.25L-102.875,141.075L-102.806,140.775L-102.738,140.7L-102.669,140.675L-102.601,140.9L-102.533,140.825L-102.464,140.975L-102.396,141.075L-102.327,141.075L-102.259,141.35L-102.19,141.45L-102.122,141.55L-102.053,141.6L-101.985,141.775L-101.916,142L-101.848,142.05L-101.78,142.25L-101.711,142.4L-101.643,142.275L-101.574,142.3L-101.506,142.55L-101.437,142.55L-101.369,142.3L-101.3,142.2L-101.232,142.1L-101.164,142.05L-101.095,142.175L-101.027,142.25L-100.958,142.425L-100.89,142.35L-100.821,142.175L-100.753,142.2L-100.684,142.375L-100.616,142.55L-100.548,142.55L-100.479,142.425L-100.411,142.325L-100.342,142.275L-100.274,142.075L-100.205,141.925L-100.137,141.775L-100.068,141.675L-100,141.6L-99.932,141.325L-99.863,140.725L-99.795,140.45L-99.726,140.375L-99.658,140.225L-99.589,140.1L-99.521,140.2L-99.452,139.95L-99.384,139.875L-99.316,139.95L-99.247,140.15L-99.179,139.925L-99.11,140.075L-99.042,139.95L-98.973,139.9L-98.905,139.8L-98.836,140.025L-98.768,140.1L-98.7,140.35L-98.631,140.525L-98.563,140.55L-98.494,140.4L-98.426,140.375L-98.357,140.3L-98.289,140.275L-98.22,140.375L-98.152,140.4L-98.084,140.475L-98.015,140.425L-97.947,140.425L-97.878,140.65L-97.81,140.975L-97.741,141.25L-97.673,141.275L-97.604,141.225L-97.536,141.15L-97.467,140.95L-97.399,140.875L-97.331,140.8L-97.262,140.9L-97.194,140.625L-97.125,140.85L-97.057,140.675L-96.988,140.6L-96.92,140.375L-96.851,140.2L-96.783,140.1L-96.715,140.45L-96.646,140.225L-96.578,140.125L-96.509,140.025L-96.441,139.875L-96.372,139.9L-96.304,139.775L-96.235,139.9L-96.167,139.775L-96.099,139.575L-96.03,139.45L-95.962,139.425L-95.893,139.475L-95.825,139.275L-95.756,139.2L-95.688,138.875L-95.619,138.65L-95.551,138.6L-95.483,138.7L-95.414,138.775L-95.346,138.9L-95.277,139.125L-95.209,138.65L-95.143,138.575L-95.075,138.4L-95.006,138.425L-94.938,138.55L-94.869,138.675L-94.801,138.725L-94.732,138.55L-94.664,138.2L-94.596,138.1L-94.527,137.675L-94.459,137.775L-94.39,137.8L-94.322,137.95L-94.253,137.85L-94.185,137.575L-94.116,137.475L-94.048,137.525L-93.98,137.45L-93.911,137.65L-93.843,137.55L-93.774,137.375L-93.706,137.325L-93.637,137.25L-93.569,137.25L-93.5,137.2L-93.432,137.375L-93.364,137.125L-93.295,137.15L-93.227,136.825L-93.158,137.175L-93.09,137.25L-93.021,137.175L-92.953,137.15L-92.884,137.225L-92.816,137.125L-92.748,137.275L-92.679,137.45L-92.611,137.65L-92.542,137.65L-92.474,138.075L-92.405,137.95L-92.337,138.025L-92.268,137.8L-92.2,137.95L-92.132,138.05L-92.063,138.3L-91.995,138.5L-91.926,138.8L-91.858,138.7L-91.789,138.55L-91.721,138.8L-91.652,138.75L-91.584,138.575L-91.516,138.825L-91.447,139.15L-91.379,139.025L-91.31,139.15L-91.242,138.875L-91.173,138.825L-91.105,138.6L-91.036,138.625L-90.968,138.775L-90.899,138.5L-90.831,138.15L-90.763,138.025L-90.694,137.875L-90.626,137.525L-90.557,137.25L-90.489,137.5L-90.42,137.25L-90.352,137.225L-90.283,137.225L-90.215,136.9L-90.147,136.85L-90.078,136.65L-90.01,136.675L-89.941,136.475L-89.873,136.25L-89.804,135.975L-89.736,136L-89.667,135.975L-89.599,136.2L-89.531,136.625L-89.462,136.425L-89.394,136.35L-89.325,136.625L-89.257,136.625L-89.188,136.825L-89.12,137L-89.051,137.3L-88.983,137.275L-88.915,137.3L-88.846,137.475L-88.778,137.475L-88.709,137.65L-88.641,137.575L-88.572,137.975L-88.504,138.125L-88.435,138.05L-88.367,138.3L-88.299,138.225L-88.23,138.375L-88.162,138.725L-88.093,138.775L-88.025,138.825L-87.956,138.55L-87.888,138.725L-87.819,138.8L-87.751,138.85L-87.683,139.075L-87.614,139.05L-87.546,138.975L-87.477,138.9L-87.409,138.925L-87.34,138.75L-87.272,138.375L-87.203,138.4L-87.135,138.425L-87.067,138.4L-86.998,138.225L-86.93,138.175L-86.861,138.175L-86.793,138.175L-86.724,138.45L-86.656,138.425L-86.587,138.55L-86.519,138.175L-86.45,138.3L-86.382,138.25L-86.314,137.925L-86.245,138.05L-86.177,138.075L-86.108,138.025L-86.04,138.075L-85.971,138.275L-85.903,138.25L-85.834,137.925L-85.766,138L-85.698,138.05L-85.629,137.925L-85.561,138.075L-85.492,137.9L-85.424,137.65L-85.355,137.475L-85.287,137.65L-85.218,137.9L-85.15,138.075L-85.082,137.825L-85.013,137.925L-84.945,137.8L-84.876,137.725L-84.808,137.825L-84.739,137.875L-84.671,137.7L-84.602,137.775L-84.534,137.65L-84.466,137.525L-84.397,137.375L-84.329,137.475L-84.26,137.525L-84.192,137.55L-84.123,137.5L-84.055,137.225L-83.986,137.2L-83.918,137.125L-83.85,137.125L-83.781,137.45L-83.713,137.425L-83.644,137.55L-83.576,137.675L-83.507,137.575L-83.439,137.825L-83.37,138.175L-83.302,138.375L-83.234,138.375L-83.165,138.3L-83.097,138.175L-83.028,138.3L-82.96,138.275L-82.891,138.6L-82.823,138.725L-82.754,138.925L-82.686,139.125L-82.617,139.15L-82.549,139.1L-82.481,139.1L-82.412,139.625L-82.344,139.9L-82.275,139.7L-82.207,139.85L-82.138,139.6L-82.07,139.35L-82.001,139.75L-81.933,139.8L-81.865,140.025L-81.796,140.1L-81.728,140.025L-81.659,140.05L-81.591,139.85L-81.522,139.875L-81.454,140.1L-81.385,140.3L-81.317,140.425L-81.249,140.725L-81.18,140.925L-81.112,141.15L-81.043,141.4L-80.975,141.75L-80.906,141.9L-80.838,141.975L-80.769,142.3L-80.701,142.125L-80.633,142.125L-80.564,142.45L-80.496,142.6L-80.427,142.65L-80.359,142.575L-80.29,142.425L-80.222,142.625L-80.153,142.6L-80.085,142.875L-80.017,143.25L-79.948,143.175L-79.88,143.1L-79.811,142.975L-79.743,143.2L-79.674,143.475L-79.606,143.575L-79.537,143.975L-79.469,143.975L-79.401,143.825L-79.332,143.45L-79.195,143.2L-79.127,142.85L-79.058,142.75L-78.99,142.6L-78.921,142.075L-78.85,141.65L-78.782,141.75L-78.713,141.475L-78.645,141.075L-78.576,141.15L-78.508,141.225L-78.439,140.8L-78.371,140.7L-78.303,140.85L-78.234,140.725L-78.166,140.725L-78.097,140.7L-78.029,140.85L-77.96,140.675L-77.892,140.325L-77.823,140.325L-77.755,140.075L-77.687,139.925L-77.618,139.95L-77.55,139.675L-77.481,139.425L-77.413,139.35L-77.344,139.25L-77.276,139.175L-77.207,139.475L-77.139,139.575L-77.07,139.725L-77.002,139.625L-76.934,139.75L-76.865,140.15L-76.797,140.1L-76.728,139.95L-76.66,140.225L-76.591,140.525L-76.523,140.05L-76.454,139.7L-76.386,139.8L-76.318,139.7L-76.249,139.65L-76.181,139.675L-76.112,139.575L-76.044,139.375L-75.975,139.325L-75.907,139.45L-75.838,139.45L-75.77,139.5L-75.702,139.875L-75.633,139.85L-75.565,139.775L-75.496,139.875L-75.428,140.075L-75.359,139.825L-75.291,139.9L-75.222,139.975L-75.154,139.9L-75.086,139.775L-75.017,139.75L-74.949,139.475L-74.88,139.25L-74.812,139.125L-74.743,139.225L-74.675,139.3L-74.606,139.175L-74.538,138.9L-74.47,139.15L-74.401,139.3L-74.333,139.4L-74.264,139.575L-74.196,139.725L-74.127,139.6L-74.059,139.6L-73.99,139.5L-73.922,139.275L-73.854,138.975L-73.785,139.2L-73.717,139.275L-73.648,139.25L-73.58,139.4L-73.511,139.45L-73.443,139.325L-73.374,138.975L-73.306,139.075L-73.238,139L-73.169,138.9L-73.101,138.7L-73.032,138.475L-72.964,138.3L-72.895,138.325L-72.827,138.375L-72.758,138.375L-72.69,138.425L-72.621,138.2L-72.553,137.925L-72.485,138L-72.416,138.025L-72.348,137.85L-72.279,137.5L-72.211,137.275L-72.142,136.8L-72.074,136.65L-72.005,136.575L-71.937,136.5L-71.869,136.525L-71.8,136.75L-71.732,136.475L-71.663,136.075L-71.595,135.95L-71.526,135.65L-71.458,135.275L-71.389,135.25L-71.321,135.4L-71.253,135.4L-71.184,135.3L-71.116,135.15L-71.047,135.25L-70.979,135.4L-70.91,135.55L-70.842,135.8L-70.773,135.625L-70.705,135.525L-70.637,135.525L-70.568,135.325L-70.5,135.35L-70.431,135.45L-70.363,135.425L-70.294,135.3L-70.229,135.05L-70.16,134.925L-70.092,134.975L-70.023,135.1L-69.955,135.05L-69.886,135.225L-69.818,135.275L-69.75,134.975L-69.681,134.8L-69.613,135.05L-69.544,135L-69.476,135.05L-69.407,135.225L-69.339,134.875L-69.27,134.625L-69.202,134.275L-69.134,134.075L-69.065,134.1L-68.997,133.725L-68.928,133.925L-68.86,133.65L-68.791,133.325L-68.723,133.05L-68.654,132.65L-68.586,132.3L-68.518,132.625L-68.449,132.725L-68.381,132.4L-68.312,132.075L-68.244,132.35L-68.175,132.6L-68.107,132.575L-68.038,132.75L-67.97,132.75L-67.902,132.625L-67.833,132.525L-67.765,132.175L-67.696,132.2L-67.628,132.4L-67.559,132.425L-67.491,132.5L-67.422,132.25L-67.354,132.25L-67.286,132.275L-67.217,132.325L-67.149,132.475L-67.08,132.7L-67.012,133.025L-66.943,133.225L-66.875,132.775L-66.806,132.45L-66.738,132.175L-66.67,132.3L-66.601,132.55L-66.533,132.675L-66.464,132.575L-66.396,132.275L-66.327,132.325L-66.259,132.625L-66.19,132.35L-66.122,132.45L-66.054,132.65L-65.985,132.725L-65.917,132.725L-65.848,132.875L-65.78,132.75L-65.711,132.9L-65.643,133.2L-65.574,133.375L-65.506,133.325L-65.437,133.275L-65.369,133.3L-65.301,133L-65.232,133.15L-65.164,133.1L-65.095,133.275L-65.027,133L-64.958,132.4L-64.89,131.85L-64.821,131.75L-64.753,132L-64.685,132.4L-64.616,132.7L-64.548,132.675L-64.479,132.65L-64.411,132.55L-64.342,132.95L-64.274,133.025L-64.205,133.05L-64.137,133.25L-64.069,133.275L-64,133.25L-63.932,133.075L-63.863,132.975L-63.795,133L-63.726,133.425L-63.658,133.675L-63.589,133.55L-63.521,133.325L-63.453,133.2L-63.384,132.925L-63.316,133.1L-63.247,133.2L-63.179,133.275L-63.11,133.5L-63.042,133.1L-62.973,133.275L-62.905,133.475L-62.837,133.975L-62.768,134.375L-62.7,134.65L-62.631,134.675L-62.563,134.325L-62.494,134.125L-62.426,134.15L-62.357,134.125L-62.289,133.925L-62.221,134.075L-62.152,133.8L-62.084,133.9L-62.015,134.05L-61.947,133.65L-61.878,133.75L-61.81,133.875L-61.741,133.8L-61.673,133.475L-61.604,133.15L-61.536,132.925L-61.468,132.85L-61.399,132.725L-61.331,132.9L-61.262,133.075L-61.194,133.15L-61.125,132.85L-61.057,132.75L-60.988,132.95L-60.92,133.05L-60.852,133.35L-60.783,133.35L-60.715,133.35L-60.646,133.075L-60.578,133.075L-60.509,133.35L-60.441,133.575L-60.372,133.825L-60.304,134.075L-60.236,134.125L-60.167,133.975L-60.099,134.225L-60.03,133.95L-59.962,133.9L-59.893,134.325L-59.825,134.3L-59.756,134.05L-59.688,133.875L-59.62,133.825L-59.551,133.725L-59.483,133.625L-59.414,133.75L-59.346,134.05L-59.277,133.875L-59.209,133.9L-59.14,133.875L-59.072,134.05L-59.004,134.05L-58.935,134.05L-58.867,134.1L-58.798,133.975L-58.73,133.8L-58.661,133.5L-58.593,133.575L-58.524,133.525L-58.456,133.5L-58.388,133.525L-58.319,133.35L-58.251,133.2L-58.182,133.1L-58.114,133.225L-58.045,132.925L-57.977,132.8L-57.908,132.65L-57.84,132.5L-57.772,132.575L-57.703,132.825L-57.635,133.1L-57.566,133.425L-57.498,134.025L-57.429,134.5L-57.361,134.425L-57.292,134.375L-57.224,134.3L-57.155,134.025L-57.087,134.2L-57.019,134.35L-56.95,134.45L-56.882,134.525L-56.813,134.4L-56.745,134.35L-56.676,134.525L-56.608,134.775L-56.539,135.1L-56.471,135.225L-56.403,135.1L-56.334,135.025L-56.266,134.875L-56.197,135L-56.129,135.2L-56.06,135.175L-55.992,135.725L-55.923,135.8L-55.855,135.9L-55.787,136.15L-55.718,136.05L-55.65,136.075L-55.581,136.15L-55.513,136.325L-55.444,135.8L-55.376,135.65L-55.307,135.675L-55.239,135.575L-55.171,135.7L-55.102,135.675L-55.034,135.675L-54.965,135.45L-54.897,135.45L-54.828,135.475L-54.76,135.5L-54.691,135.525L-54.623,135.775L-54.555,136.05L-54.486,135.925L-54.418,135.775L-54.349,135.775L-54.281,136.075L-54.212,136.175L-54.144,136.075L-54.075,136L-54.007,135.675L-53.936,135.4L-53.867,135.4L-53.799,135.375L-53.73,135.125L-53.662,135.3L-53.593,135.425L-53.525,135.35L-53.457,135.1L-53.388,135.425L-53.32,135.5L-53.251,135.7L-53.183,136.025L-53.114,136.35L-53.046,136.425L-52.977,136.375L-52.909,136.725L-52.841,136.725L-52.772,136.425L-52.704,136.35L-52.635,136.425L-52.567,136.2L-52.498,135.825L-52.43,135.875L-52.361,136.05L-52.293,136.05L-52.225,135.85L-52.156,136.125L-52.088,136.05L-52.019,135.975L-51.951,136.15L-51.882,136.3L-51.814,136.475L-51.745,136.25L-51.677,136.175L-51.608,135.925L-51.54,135.675L-51.472,135.7L-51.403,135.55L-51.335,135.625L-51.266,135.7L-51.198,135.6L-51.129,135.125L-51.061,134.8L-50.992,134.65L-50.924,134.55L-50.856,134.275L-50.787,134.3L-50.719,134.65L-50.65,134.825L-50.582,134.825L-50.513,135.05L-50.445,135.125L-50.376,134.725L-50.308,134.65L-50.24,134.55L-50.171,134.425L-50.103,133.975L-50.034,133.775L-49.966,133.7L-49.897,133.65L-49.829,133.375L-49.76,133.4L-49.692,133.775L-49.624,133.625L-49.555,133.325L-49.487,132.75L-49.418,132.15L-49.35,131.9L-49.281,131.575L-49.213,131.025L-49.144,130.575L-49.076,130.075L-49.008,129.7L-48.939,129.25L-48.871,128.85L-48.802,128.525L-48.734,127.75L-48.665,127.175L-48.597,126.75L-48.528,126.35L-48.46,125.65L-48.392,125.45L-48.323,125.525L-48.255,125.125L-48.186,125.225L-48.118,125.25L-48.049,125.35L-47.981,125.3L-47.912,125.25L-47.844,125.475L-47.775,125.825L-47.707,125.375L-47.639,125.075L-47.57,125.35L-47.502,125.675L-47.433,126.35L-47.365,126.875L-47.296,126.85L-47.228,126.475L-47.159,126.65L-47.091,127.05L-47.023,127.35L-46.954,127.9L-46.886,128.625L-46.817,128.8L-46.749,128.975L-46.68,129.55L-46.612,129.775L-46.543,129.925L-46.475,130.2L-46.407,130.6L-46.338,130.775L-46.27,130.6L-46.201,130.9L-46.133,130.825L-46.064,130.775L-45.996,130.775L-45.927,130.925L-45.859,130.8L-45.791,130.325L-45.722,129.85L-45.654,130.3L-45.585,130.15L-45.517,130.15L-45.448,130.025L-45.38,129.5L-45.314,129.275L-45.246,129.325L-45.177,129.075L-45.109,128.825L-45.04,128.5L-44.972,128.775L-44.904,128.575L-44.835,128.55L-44.767,128.6L-44.698,128.775L-44.63,128.85L-44.561,129.05L-44.493,129.2L-44.424,129.3L-44.356,129.225L-44.288,129L-44.219,129L-44.151,128.8L-44.082,128.75L-44.014,128.925L-43.945,128.775L-43.877,128.425L-43.808,128.425L-43.74,128.725L-43.672,128.725L-43.603,128.55L-43.535,128.875L-43.466,128.75L-43.398,128.5L-43.329,128.675L-43.261,128.5L-43.192,128.125L-43.124,128.8L-43.056,129.225L-42.987,129.1L-42.919,128.675L-42.85,128.625L-42.782,128.625L-42.713,128.225L-42.645,128.125L-42.576,127.675L-42.508,127.525L-42.44,127.225L-42.371,126.75L-42.303,126.625L-42.234,126.375L-42.166,126.4L-42.097,126.275L-42.029,126.425L-41.96,126.025L-41.892,125.9L-41.824,125.85L-41.755,125.95L-41.687,125.875L-41.618,125.975L-41.55,125.775L-41.481,125.45L-41.413,125.55L-41.344,125.75L-41.276,125.55L-41.208,125.85L-41.139,126.4L-41.071,126.425L-41.002,126.15L-40.934,126.225L-40.865,126.325L-40.797,126.4L-40.728,126.325L-40.66,126.85L-40.591,126.625L-40.523,126.525L-40.455,126.25L-40.386,126.225L-40.318,126.45L-40.249,126.45L-40.181,126.65L-40.112,126.45L-40.044,126.225L-39.975,125.8L-39.907,125.9L-39.839,126.05L-39.77,126.4L-39.702,126.5L-39.633,126.425L-39.565,126.3L-39.496,126.35L-39.428,126.475L-39.359,126.65L-39.291,126.925L-39.223,127.375L-39.154,127.3L-39.086,127.3L-39.017,126.725L-38.949,126.275L-38.88,126.5L-38.812,126.55L-38.743,126.8L-38.675,126.775L-38.607,126.7L-38.538,126.725L-38.47,126.85L-38.401,127L-38.333,127.375L-38.264,127.425L-38.196,127.275L-38.127,127.375L-38.059,127.25L-37.991,127.5L-37.922,127.625L-37.854,127.925L-37.785,128.2L-37.717,128.125L-37.648,128.05L-37.58,128L-37.511,128.15L-37.443,128.125L-37.375,128.275L-37.306,128.225L-37.238,127.95L-37.169,127.65L-37.101,127.725L-37.032,127.65L-36.964,128L-36.895,128.85L-36.827,128.95L-36.758,128.8L-36.69,128.575L-36.622,128.325L-36.553,128.35L-36.485,128.6L-36.416,128.825L-36.348,129.375L-36.279,129.1L-36.211,128.7L-36.142,128.95L-36.074,128.825L-36.006,129.4L-35.937,129.65L-35.869,129.925L-35.8,129.675L-35.732,129.5L-35.663,129.6L-35.595,129.725L-35.526,129.925L-35.458,130.05L-35.39,130.45L-35.321,130.3L-35.253,129.8L-35.184,129.65L-35.116,129.725L-35.047,129.575L-34.979,129.625L-34.91,129.7L-34.842,129.15L-34.774,128.725L-34.705,128.975L-34.637,128.85L-34.568,128.75L-34.5,129L-34.431,128.975L-34.363,129L-34.294,128.525L-34.226,128.425L-34.158,128.75L-34.089,128.575L-34.021,128.7L-33.952,128.575L-33.884,128.5L-33.815,128.025L-33.747,127.925L-33.678,128.1L-33.61,128.125L-33.542,128.175L-33.473,128.2L-33.405,127.575L-33.336,127.225L-33.268,127.075L-33.199,126.725L-33.131,126.975L-33.062,127.175L-32.994,127.5L-32.926,127.375L-32.857,127.25L-32.789,127.275L-32.72,127.575L-32.652,127.85L-32.583,128.15L-32.515,128.45L-32.446,128.15L-32.378,127.95L-32.309,127.375L-32.241,127.3L-32.173,127.4L-32.104,127.6L-32.036,128.175L-31.967,128.2L-31.899,127.925L-31.83,128L-31.762,128.425L-31.693,128.575L-31.625,128.5L-31.557,128.45L-31.488,128.025L-31.42,127.775L-31.351,127.975L-31.283,127.775L-31.214,128.125L-31.146,129.05L-31.077,129.475L-31.009,129.25L-30.941,128.8L-30.872,128.525L-30.804,128.9L-30.735,128.925L-30.667,129.025L-30.598,128.725L-30.53,128.05L-30.461,127.9L-30.393,127.9L-30.325,128L-30.256,128.4L-30.188,128.75L-30.119,129.05L-30.051,128.925L-29.982,128.575L-29.914,128.5L-29.845,128.625L-29.777,128.475L-29.709,128.675L-29.64,128.8L-29.572,128.625L-29.503,128.175L-29.435,128.625L-29.366,129.05L-29.298,129.5L-29.229,130.025L-29.161,129.75L-29.093,129.5L-29.021,128.925L-28.953,128.975L-28.884,129.05L-28.816,129.625L-28.747,129.6L-28.679,129.95L-28.611,130.05L-28.542,130.4L-28.474,130.8L-28.405,130.9L-28.337,130.95L-28.268,131.15L-28.2,131.625L-28.131,131.35L-28.063,130.925L-27.995,130.95L-27.926,130.875L-27.858,130.9L-27.789,131.175L-27.721,131.475L-27.652,131.325L-27.584,131.125L-27.515,131.275L-27.447,132.075L-27.379,132.075L-27.31,132L-27.242,132.1L-27.173,132.2L-27.105,132.425L-27.036,132.45L-26.968,132.925L-26.899,133.125L-26.831,133.475L-26.762,133.375L-26.694,133.275L-26.626,133.15L-26.557,133.125L-26.489,133.125L-26.42,133.475L-26.352,133.725L-26.283,133.8L-26.215,133.875L-26.146,133.55L-26.078,133.725L-26.01,134L-25.941,133.9L-25.873,134.1L-25.804,134.5L-25.736,134.4L-25.667,134.2L-25.599,133.975L-25.53,134.2L-25.462,133.925L-25.394,133.825L-25.325,133.875L-25.257,133.875L-25.188,133.45L-25.12,133.025L-25.051,132.8L-24.983,132.675L-24.914,132.45L-24.846,132.6L-24.778,132.2L-24.709,131.875L-24.641,131.225L-24.572,131.1L-24.504,130.775L-24.435,130.075L-24.367,129.425L-24.298,128.95L-24.23,128.575L-24.162,128.075L-24.093,127.35L-24.025,127.2L-23.956,127.15L-23.888,127.275L-23.819,127.1L-23.751,126.9L-23.682,127L-23.614,127.1L-23.546,127.425L-23.477,127.275L-23.409,127.475L-23.34,127.125L-23.272,126.45L-23.203,126.1L-23.135,125.975L-23.066,125.8L-22.998,125.65L-22.93,125.875L-22.861,125.425L-22.793,124.825L-22.724,124.3L-22.656,124.3L-22.587,124.525L-22.519,124L-22.45,123.875L-22.382,123.725L-22.313,123.425L-22.245,123.075L-22.177,122.775L-22.108,122.775L-22.04,123.35L-21.971,123.3L-21.903,123.175L-21.834,122.95L-21.766,122.65L-21.697,122.075L-21.629,121.8L-21.561,121.65L-21.492,121.25L-21.424,121.025L-21.355,121L-21.287,120.525L-21.218,120.65L-21.15,120.375L-21.081,120.65L-21.013,120.8L-20.945,120.7L-20.876,120.15L-20.808,120.225L-20.739,120.025L-20.671,120.575L-20.602,120.8L-20.534,121.1L-20.465,121.55L-20.4,121.6L-20.331,122.2L-20.263,122.825L-20.195,123.075L-20.126,123.375L-20.058,123.425L-19.989,123.45L-19.921,122.9L-19.852,122.525L-19.784,122.2L-19.715,122.225L-19.647,122.525L-19.578,122.175L-19.51,122.3L-19.442,122.2L-19.373,121.925L-19.305,121.675L-19.236,121.875L-19.168,122.325L-19.099,122.475L-19.031,122.1L-18.962,121.9L-18.894,121.975L-18.826,122.175L-18.757,122.1L-18.689,122.5L-18.62,122.475L-18.552,122.2L-18.483,122L-18.415,121.8L-18.346,121.625L-18.278,121.45L-18.21,121.35L-18.141,121.55L-18.073,121.35L-18.004,121.15L-17.936,121.125L-17.867,121.5L-17.799,121.5L-17.73,121.875L-17.662,121.975L-17.594,121.7L-17.525,121.675L-17.457,121.1L-17.388,120.8L-17.32,120.9L-17.251,121.15L-17.183,121.525L-17.114,121.35L-17.046,121.15L-16.978,120.95L-16.909,120.55L-16.841,120.4L-16.772,120.075L-16.704,120.125L-16.635,119.825L-16.567,119.55L-16.498,119.625L-16.43,119.65L-16.362,119.625L-16.293,119.975L-16.225,120.1L-16.156,119.925L-16.088,119.65L-16.019,119.6L-15.951,119.525L-15.882,119.275L-15.814,119.325L-15.745,119.225L-15.677,118.95L-15.609,118.775L-15.54,118.15L-15.472,118.175L-15.403,118.075L-15.335,118.4L-15.266,118.625L-15.198,118.225L-15.129,117.475L-15.061,117.125L-14.993,117.175L-14.924,117.4L-14.856,118.1L-14.787,118.325L-14.719,118.425L-14.65,117.95L-14.582,118.125L-14.513,118.125L-14.445,118.075L-14.377,118.35L-14.308,118.9L-14.24,118.675L-14.171,118.575L-14.103,118.325L-14.034,118.3L-13.966,118.575L-13.897,119.025L-13.829,119.375L-13.761,119.275L-13.692,119.7L-13.624,119.975L-13.555,120.05L-13.487,120.875L-13.418,121.35L-13.35,122.075L-13.281,121.85L-13.213,121.75L-13.145,121.375L-13.076,121.775L-13.008,121.375L-12.939,121.4L-12.871,121.5L-12.802,121.125L-12.734,120.825L-12.665,120.525L-12.597,120.775L-12.529,120.975L-12.46,121.15L-12.392,121.25L-12.323,121.1L-12.255,120.725L-12.186,120.475L-12.118,120.325L-12.049,120.3L-11.981,120.3L-11.913,120.175L-11.844,119.725L-11.776,119.625L-11.707,119.5L-11.639,119.1L-11.57,118.775L-11.502,118.95L-11.433,119.025L-11.365,118.6L-11.296,118.15L-11.228,118.375L-11.16,118.25L-11.091,118.5L-11.023,118.825L-10.954,119.525L-10.886,119.45L-10.817,119.05L-10.749,119.05L-10.68,119.15L-10.612,119.375L-10.544,119.8L-10.475,119.65L-10.407,119.4L-10.338,118.925L-10.27,118.525L-10.201,118.4L-10.133,118.425L-10.064,118.775L-9.996,119.475L-9.928,119.575L-9.859,119.325L-9.791,119.25L-9.722,118.925L-9.654,118.725L-9.585,119.15L-9.517,119.3L-9.448,119.375L-9.38,119.175L-9.312,118.975L-9.243,118.875L-9.175,118.325L-9.106,118.775L-9.038,119.075L-8.969,118.85L-8.901,118.35L-8.832,118.375L-8.764,118.6L-8.696,118.375L-8.627,118.625L-8.559,118.775L-8.49,118.6L-8.422,118.475L-8.353,118.6L-8.285,118.775L-8.216,119.175L-8.148,119.25L-8.08,119.475L-8.011,119.6L-7.943,119.125L-7.874,119.25L-7.806,119.45L-7.737,119.75L-7.669,119.875L-7.6,120.425L-7.532,120.575L-7.463,120.425L-7.395,119.9L-7.327,119.8L-7.258,120.05L-7.19,120.175L-7.121,120.575L-7.053,120.275L-6.984,120.025L-6.916,119.9L-6.847,119.75L-6.779,119.9L-6.711,120.325L-6.642,120.85L-6.574,120.35L-6.505,120.475L-6.437,120.4L-6.368,120.4L-6.3,120.45L-6.231,120.575L-6.163,120.4L-6.095,120.375L-6.026,120.35L-5.958,119.725L-5.889,119.6L-5.821,119.5L-5.752,119.55L-5.684,119.45L-5.615,119.45L-5.547,119.3L-5.479,118.95L-5.41,119.1L-5.342,119.125L-5.273,119.3L-5.205,119.5L-5.136,119.475L-5.068,119.275L-4.999,118.9L-4.931,119.2L-4.863,118.85L-4.794,119.35L-4.726,118.95L-4.657,118.525L-4.589,118.125L-4.52,118.475L-4.452,118.8L-4.383,118.925L-4.315,119.325L-4.247,119.575L-4.178,119.375L-4.107,119.55L-4.038,119.525L-3.97,119.325L-3.901,119.325L-3.833,119.625L-3.765,119.7L-3.696,119.475L-3.628,119.75L-3.559,119.5L-3.491,119.325L-3.422,119.2L-3.354,119.225L-3.285,119.45L-3.217,119.025L-3.149,118.45L-3.08,118.275L-3.012,118.25L-2.943,118.7L-2.875,118.9L-2.806,119.725L-2.738,119.4L-2.669,119.475L-2.601,119.65L-2.533,120.15L-2.464,120.675L-2.396,120.75L-2.327,120.95L-2.259,120.55L-2.19,120.25L-2.122,120.65L-2.053,120.4L-1.985,120.8L-1.916,121.45L-1.848,121.675L-1.78,121.65L-1.711,121.675L-1.643,122L-1.574,121.25L-1.506,121.225L-1.437,121.55L-1.369,121.65L-1.3,121.35L-1.232,121.175L-1.164,121.75L-1.095,122.35L-1.027,122.375L-0.958,123.2L-0.89,123.525L-0.821,123.7L-0.753,123.15L-0.684,123.25L-0.616,123.15L-0.548,123L-0.479,123L-0.411,122.15L-0.342,120.4L-0.274,118.525L-0.205,117.75L-0.137,117.15L-0.068,116.675L0,116.475L0.068,115.8L0.137,115L0.205,114.2L0.274,113.925L0.342,113.65L0.411,113.75L0.479,114.65L0.548,115.025L0.616,114.95L0.684,114.725L0.753,114.95L0.821,114.85L0.89,114.45L0.958,114.7L1.027,115.2L1.095,115.05L1.164,114.825L1.232,114.075L1.3,114.3L1.369,114.25L1.437,115L1.506,115.325L1.574,115.075L1.643,115.4L1.711,116.775L1.78,118.225L1.848,118.9L1.916,119.2L1.985,119.6L2.053,119.575L2.122,119.75L2.19,120.025L2.259,120.8L2.327,121.075L2.396,121.1L2.464,121.225L2.533,120.85L2.601,120.625L2.669,120.525L2.738,120.475L2.806,120.25L2.875,120.25L2.943,120.575L3.012,120.225L3.08,119.8L3.149,119.175L3.217,118.35L3.285,118.1L3.354,117.925L3.422,117.85L3.491,117.35L3.559,116.775L3.628,115.925L3.696,115.45L3.765,115.35L3.833,115.45L3.901,115.55L3.97,115.775L4.038,115.325L4.107,115.425L4.175,115.175L4.244,115.025L4.312,115.025L4.381,115.275L4.449,115.425L4.517,114.975L4.586,114.625L4.654,114.575L4.723,114.075L4.791,114.2L4.86,114.675L4.928,113.975L4.994,113.575L5.062,113.025L5.131,112.55L5.199,112.375L5.268,112.925L5.336,113.5L5.404,112.775L5.473,112.6L5.541,112.425L5.61,112.525L5.678,112.8L5.747,113.1L5.815,112.85L5.884,112.475L5.952,112.45L6.02,112.3L6.089,112.475L6.157,112.45L6.226,112.675L6.294,112.65L6.363,112.25L6.431,111.375L6.5,111.025L6.568,110.95L6.636,111.175L6.705,111.625L6.773,112.25L6.842,111.825L6.91,110.95L6.979,111.3L7.047,110.925L7.116,110.6L7.184,110.9L7.252,110.825L7.321,110L7.389,109.25L7.458,109.3L7.526,109.175L7.595,108.65L7.663,108.675L7.732,108.8L7.8,108.45L7.868,108.35L7.937,107.825L8.005,107.3L8.074,106.775L8.142,106.4L8.211,106.95L8.279,107.25L8.348,106.775L8.416,106.325L8.484,106.425L8.553,106.3L8.621,106.5L8.69,106.475L8.758,105.275L8.827,104.55L8.895,104.7L8.964,104.45L9.032,104.35L9.101,104.375L9.169,104.975L9.237,104.725L9.306,104.4L9.374,104.35L9.443,104.375L9.511,104.575L9.58,104.9L9.648,105.3L9.717,104.375L9.785,103.625L9.853,103.15L9.922,102.675L9.99,102.725L10.059,102.975L10.127,103.575L10.196,103.675L10.264,102.525L10.333,101.75L10.401,101.775L10.469,102.1L10.538,102.225L10.606,102.475L10.675,102.65L10.743,102.35L10.812,102.65L10.88,102.55L10.949,102.7L11.017,103.375L11.085,103.9L11.154,104.175L11.222,104.075L11.291,104.125L11.359,104.6L11.428,105.175L11.496,105.85L11.565,106.325L11.633,105.9L11.701,105.65L11.77,106.15L11.838,106.425L11.907,107.075L11.975,107.925L12.044,108.85L12.112,108.825L12.181,109.125L12.249,109.225L12.317,109.8L12.386,109.875L12.454,110.625L12.523,111.025L12.591,110.85L12.66,110.675L12.728,110.075L12.797,110.15L12.865,110.575L12.933,111.05L13.002,111.225L13.07,111.15L13.139,110.525L13.207,110.55L13.276,110.375L13.344,110.35L13.413,110.825L13.481,111.2L13.55,111.075L13.618,110.575L13.686,110.275L13.755,111L13.823,110.875L13.892,111.6L13.96,111.5L14.029,110.8L14.097,110.125L14.166,109.625L14.234,109.175L14.302,109.125L14.371,109.175L14.439,109.6L14.508,108.675L14.576,107.85L14.645,107.55L14.713,107.9L14.782,107.975L14.85,108.125L14.918,108.7L14.987,108.925L15.055,108.275L15.124,107.475L15.192,107.45L15.261,107.175L15.329,107.65L15.398,107.45L15.466,106.85L15.534,106.2L15.603,105.675L15.671,105.275L15.74,105.55L15.808,105.025L15.877,105.2L15.945,104.875L16.014,104.1L16.082,104.125L16.15,103.9L16.219,104.25L16.287,104.4L16.356,104.525L16.424,104L16.493,103.85L16.561,104.15L16.63,104.6L16.698,104.95L16.766,104.825L16.835,105.075L16.903,105.025L16.972,104.45L17.04,103.775L17.109,104.225L17.177,104.875L17.246,105.475L17.314,105.75L17.383,105.35L17.451,105.225L17.519,105.275L17.588,105.6L17.656,105.75L17.725,106.55L17.793,107.175L17.862,107.3L17.93,107.775L17.999,107.8L18.067,108.475L18.135,108.675L18.204,109.55L18.272,110.05L18.341,110.075L18.409,109.85L18.478,110.475L18.546,110.5L18.615,110.9L18.683,111.325L18.751,111.575L18.82,111.45L18.888,111.225L18.957,110.8L19.025,110.55L19.094,110.9L19.162,110.625L19.231,111.25L19.299,111.25L19.367,111.6L19.436,112.05L19.504,112.3L19.573,112.65L19.641,112.925L19.71,113.475L19.778,113.35L19.847,113.575L19.915,113.425L19.983,113.025L20.052,112.8L20.12,113.35L20.189,113.775L20.257,113.575L20.326,112.75L20.394,112.375L20.463,113.075L20.531,113.125L20.599,113.65L20.668,113.825L20.736,114.025L20.805,114.4L20.873,114.675L20.942,114.75L21.01,115.275L21.079,115.825L21.147,116L21.215,116.4L21.287,115.75L21.355,115.45L21.424,115.175L21.492,114.675L21.561,115.075L21.629,115.225L21.697,115.025L21.766,114.15L21.834,113.975L21.903,113.7L21.971,113.825L22.04,114.5L22.108,115L22.177,114.7L22.245,114.45L22.313,114.475L22.382,114.95L22.45,115.625L22.519,115.8L22.587,116.15L22.656,116.3L22.724,116.075L22.793,115.875L22.861,115.75L22.93,115.525L22.998,116L23.066,116.275L23.135,116.4L23.203,116.2L23.272,116L23.34,115.675L23.409,116.2L23.477,116.875L23.546,117.375L23.614,117.475L23.682,117.075L23.751,116.825L23.819,116.85L23.888,117.025L23.956,117.3L24.025,117.45L24.093,116.5L24.162,116.075L24.23,115.75L24.298,115.25L24.367,114.575L24.435,114.7L24.504,114.25L24.572,113.8L24.641,113.275L24.709,112.325L24.778,111.975L24.846,111.8L24.914,111.4L24.983,111.375L25.051,110.525L25.12,110.125L25.188,109.525L25.257,109.475L25.325,109.325L25.394,110.2L25.462,110.1L25.53,109.175L25.599,108.2L25.667,107.475L25.736,108L25.804,108.025L25.873,108.1L25.941,108.175L26.01,107.875L26.078,107.725L26.146,108.075L26.215,108.075L26.283,108.2L26.352,108.85L26.42,109.85L26.489,109.75L26.557,110.125L26.626,109.55L26.694,109.15L26.762,109.2L26.831,109.7L26.899,109.775L26.968,109.65L27.036,109.525L27.105,109.4L27.173,109.1L27.242,109.175L27.31,109.675L27.379,110.2L27.447,109.675L27.515,109.05L27.584,108.775L27.652,108.925L27.721,109L27.789,108.9L27.858,109.325L27.926,109.7L27.995,109.825L28.063,108.9L28.131,107.725L28.2,106.725L28.268,106.2L28.337,106.4L28.405,105.6L28.474,104.35L28.542,103.725L28.611,103.05L28.679,103.15L28.747,103.975L28.816,104.225L28.884,103.475L28.953,102.85L29.021,102.25L29.09,101.95L29.158,102.375L29.227,102.95L29.295,102.725L29.363,101.6L29.432,100.8L29.5,100.65L29.569,100.575L29.637,100.975L29.706,101.525L29.774,101.775L29.843,101.225L29.908,101.05L29.977,100.85L30.045,100.05L30.114,100.8L30.182,102.425L30.25,103.725L30.319,104.175L30.387,103.875L30.456,104.275L30.524,104.6L30.593,104.825L30.661,104.85L30.73,104.6L30.798,103.7L30.866,103.55L30.935,103.775L31.003,104.025L31.072,104.7L31.14,104.825L31.209,104.8L31.277,104.25L31.346,103.725L31.414,103.7L31.482,103.25L31.551,103.075L31.619,103.2L31.688,103.5L31.756,102.725L31.825,102.3L31.893,101.875L31.962,101.4L32.03,101.175L32.098,101.925L32.167,101.525L32.235,100.625L32.304,99.6L32.372,99.1L32.441,98.325L32.509,98.175L32.578,98.8L32.646,99.55L32.714,99.55L32.783,99.3L32.851,98.725L32.92,98.85L32.988,99.25L33.057,99.425L33.125,99.9L33.194,100.175L33.262,99.675L33.33,99.6L33.399,99.625L33.467,99.725L33.536,100.425L33.604,100.3L33.673,99.925L33.741,99.275L33.81,99.575L33.878,99.725L33.946,100.1L34.015,100.4L34.083,100.65L34.152,99.875L34.22,99.425L34.289,99L34.357,98.525L34.426,97.8L34.494,98.75L34.563,98.675L34.631,97.425L34.699,96.725L34.768,95.775L34.836,94.875L34.905,94.875L34.973,94.675L35.042,94.5L35.11,93.575L35.179,92.975L35.247,92.475L35.315,91.575L35.384,91.325L35.452,91.875L35.521,92.25L35.589,92.2L35.658,92.95L35.726,92.95L35.795,92.7L35.863,92.725L35.931,93.425L36,93.425L36.068,92.625L36.137,92L36.205,91.95L36.274,92.125L36.342,92.575L36.411,93.525L36.479,95.2L36.547,94.85L36.616,94.75L36.684,94.975L36.753,95.05L36.821,95.775L36.89,97.625L36.958,98.7L37.027,98.175L37.095,97.25L37.163,97.6L37.232,97.2L37.3,96.95L37.369,98.4L37.437,99.2L37.506,98.675L37.574,98.275L37.643,98.25L37.711,97.2L37.779,97.7L37.848,98.35L37.916,98.5L37.985,97.9L38.053,97.925L38.122,98.225L38.19,98.925L38.259,98.85L38.327,99.45L38.396,100.225L38.464,100.075L38.532,99.325L38.601,99.125L38.669,99.275L38.738,99.85L38.806,99.95L38.875,100.65L38.943,100.125L39.012,100.275L39.08,100.9L39.148,102L39.217,102.55L39.285,103.175L39.354,104.025L39.422,103.825L39.491,103.85L39.559,104.25L39.628,104.55L39.696,104.85L39.764,105.825L39.833,106.025L39.901,106.425L39.97,106.45L40.038,106.85L40.107,106.825L40.175,106.975L40.244,106.95L40.312,107.55L40.38,107.05L40.449,106.35L40.517,106.35L40.586,106.625L40.654,106.65L40.723,106.7L40.791,106.825L40.86,106.55L40.928,106.15L40.996,106.05L41.065,105.675L41.133,105.55L41.202,105.35L41.27,105.45L41.339,104.9L41.407,104.2L41.476,104.225L41.544,103.775L41.612,103.575L41.681,103.675L41.749,103.55L41.818,102.975L41.886,102.175L41.955,101.475L42.023,101.625L42.092,101.625L42.16,102.05L42.228,102.7L42.297,102.675L42.365,101.925L42.434,102L42.502,102.425L42.571,102.875L42.639,103.2L42.708,103.7L42.776,103.6L42.845,103.075L42.913,103.375L42.981,103.1L43.05,103.3L43.118,103.475L43.187,103.5L43.255,103.15L43.324,102.625L43.392,102.675L43.461,102.65L43.529,102.025L43.597,102.325L43.666,103.325L43.734,103.45L43.803,103.775L43.871,103.775L43.94,104.375L44.008,104.225L44.077,104.525L44.145,104.8L44.213,104.125L44.282,103.775L44.35,103.575L44.419,104.15L44.487,104.65L44.556,105.2L44.624,105.05L44.693,105.1L44.761,105.25L44.829,105.325L44.898,105.525L44.966,105.625L45.035,106.375L45.103,106.925L45.172,107.2L45.24,107.425L45.309,107.625L45.377,108.55L45.445,109.2L45.514,110.475L45.582,111.4L45.651,111.25L45.719,111.125L45.788,111.025L45.856,110.65L45.925,111.125L45.993,111.525L46.061,112.375L46.13,111.85L46.201,111.125L46.27,111.125L46.338,111.125L46.407,111.75L46.475,112.5L46.543,112.85L46.612,112.2L46.68,112.575L46.749,112.425L46.817,112.775L46.886,113.1L46.954,113.5L47.023,113.475L47.091,113.575L47.159,113.275L47.228,112.675L47.296,112.15L47.365,112.325L47.433,112.425L47.502,112.7L47.57,112.875L47.639,113.35L47.707,113.975L47.775,114.075L47.844,114.475L47.912,115.4L47.981,116.15L48.049,116.45L48.118,116.325L48.186,116.85L48.255,117.375L48.323,117.4L48.392,117.5L48.46,117.175L48.528,116.35L48.597,114.875L48.665,114.5L48.734,113.775L48.802,113.4L48.871,112.875L48.939,113.05L49.008,113.375L49.076,113.475L49.144,113.225L49.213,113.375L49.281,113.05L49.35,113.75L49.418,113.8L49.487,113.175L49.555,112.4L49.624,111.425L49.692,110.6L49.76,109.65L49.829,109L49.897,108.775L49.966,107.575L50.034,106.75L50.103,106.175L50.171,105.7L50.24,105.5L50.308,105.7L50.376,106.2L50.445,106.3L50.513,106.825L50.582,107.1L50.65,108.075L50.719,108.55L50.787,109.15L50.856,110.075L50.924,110.3L50.992,109.75L51.061,109.5L51.129,109.25L51.198,109.225L51.266,109.4L51.335,110.275L51.403,110.025L51.472,109.875L51.54,109.75L51.608,109.825L51.677,109.875L51.745,110.225L51.814,110.475L51.882,110.05L51.951,109.75L52.019,109.95L52.088,109.6L52.156,110.1L52.225,110.325L52.293,110.075L52.361,109.85L52.43,109.15L52.498,108.875L52.567,108.425L52.635,108.325L52.704,108L52.772,108.2L52.841,107.975L52.909,107.35L52.977,107.025L53.046,107.075L53.114,106.025L53.183,105.95L53.251,105.925L53.32,104.975L53.388,104L53.457,104.025L53.525,103.9L53.593,103.4L53.662,103.575L53.73,103.525L53.799,103.025L53.867,102.8L53.936,103.275L54.004,102.975L54.073,103.125L54.141,103.55L54.209,103.725L54.278,103.9L54.346,104.35L54.415,103.85L54.483,104.15L54.552,104.15L54.62,103.85L54.689,104.05L54.757,104.425L54.823,103.575L54.891,102.925L54.96,102.675L55.028,102.5L55.096,102.275L55.165,103.5L55.233,103.7L55.302,102.975L55.37,103.1L55.439,102.9L55.507,102.55L55.576,102.55L55.644,102.95L55.712,103L55.781,102.825L55.849,103.275L55.918,103.375L55.986,103.6L56.055,104.35L56.123,104.2L56.192,103.9L56.26,102.75L56.328,102.35L56.397,101.3L56.465,101.125L56.534,101.125L56.602,101.4L56.671,101.05L56.739,100.7L56.808,99.875L56.876,99.975L56.944,100.15L57.013,100.275L57.081,100.7L57.15,100.9L57.218,100L57.287,99.55L57.355,99.625L57.424,99.15L57.492,99.775L57.56,99.45L57.629,98.725L57.697,98.5L57.766,97.675L57.834,97.175L57.903,96.15L57.971,96.45L58.04,96.525L58.108,96.5L58.176,95.8L58.245,95.1L58.313,95.025L58.382,94.625L58.45,94.925L58.519,95.025L58.587,95.15L58.656,94.025L58.724,93.3L58.792,92.65L58.861,92.725L58.929,92.9L58.998,92.975L59.066,92.725L59.135,92L59.203,91.625L59.272,91.9L59.34,91.925L59.409,92.125L59.477,92.925L59.545,92.625L59.614,91.6L59.682,91.825L59.751,91.7L59.819,91.275L59.888,91.6L59.956,91.9L60.025,90.925L60.093,90.225L60.161,89.475L60.23,90.075L60.298,90.9L60.367,91.375L60.435,92.05L60.504,91.85L60.572,91.7L60.641,92L60.709,92.775L60.777,94.15L60.846,95L60.914,95.6L60.983,95.475L61.051,94.925L61.12,94.5L61.188,94.05L61.257,93.9L61.325,94.175L61.393,94.85L61.462,94.575L61.53,94.55L61.599,94.55L61.667,95.55L61.736,95.95L61.804,96.575L61.873,98L61.941,97.85L62.009,97.475L62.078,98L62.146,98.025L62.215,98.475L62.283,98.825L62.352,99.025L62.42,98.3L62.489,97.45L62.557,97.7L62.625,97.375L62.694,96.675L62.762,96.625L62.831,97L62.899,96.05L62.968,95.85L63.036,95.925L63.105,96.95L63.173,97.525L63.242,98.95L63.31,99.15L63.378,99.2L63.447,98.525L63.515,98.4L63.584,98.25L63.652,97.775L63.721,98.675L63.789,98.925L63.858,98.325L63.926,97.75L63.994,97.7L64.063,98.75L64.131,98.7L64.2,98.975L64.268,99.2L64.337,98.9L64.405,98.025L64.474,97.875L64.542,97.725L64.61,97.35L64.679,98.175L64.747,98.675L64.816,99.15L64.884,97.825L64.953,98.475L65.021,97.875L65.09,97.15L65.158,97.225L65.226,97.475L65.295,97.225L65.363,97.475L65.432,96.725L65.5,95.875L65.569,96.1L65.637,95.775L65.706,96.425L65.774,95.775L65.842,95.5L65.911,95.35L65.979,94.25L66.048,94.375L66.116,93.9L66.185,93.875L66.253,93.675L66.322,93.4L66.39,93L66.458,93.025L66.527,93.925L66.595,94.85L66.664,95.15L66.732,94.775L66.801,94.3L66.869,92.95L66.938,93.275L67.006,92.25L67.074,92.8L67.143,93.15L67.211,92.575L67.28,91.725L67.348,90.65L67.417,90.025L67.485,90.25L67.554,91.45L67.622,92.05L67.691,92.325L67.759,92.075L67.827,91.975L67.896,92.075L67.964,92.475L68.033,93.725L68.101,94.15L68.17,94.35L68.238,94.35L68.307,94.35L68.375,94.125L68.443,94.55L68.512,95.325L68.58,95.25L68.649,94.55L68.717,94.8L68.786,94.7L68.854,94.825L68.923,95.525L68.991,96.075L69.059,97.85L69.128,98.075L69.196,98.45L69.265,98.375L69.333,98.925L69.402,99.75L69.47,100.875L69.539,101.575L69.607,101.375L69.675,101.1L69.744,101.05L69.812,101.55L69.881,101.5L69.949,101.6L70.018,101.85L70.086,101.75L70.155,101.1L70.223,101.175L70.291,102L70.36,102.7L70.428,103.95L70.497,104.325L70.565,104.275L70.634,103.875L70.702,104.325L70.771,104.525L70.839,103.825L70.907,103.975L70.976,104.625L71.044,104.025L71.116,103.175L71.184,103.125L71.253,103.3L71.321,103.625L71.389,104.025L71.458,104.425L71.526,103.575L71.595,102.725L71.663,102.375L71.732,101.75L71.8,101.775L71.869,101.575L71.937,102.15L72.005,101.55L72.074,101.275L72.142,100.85L72.211,100.95L72.279,100.825L72.348,100.075L72.416,99.9L72.485,99.175L72.553,99.475L72.621,99.4L72.69,100.025L72.758,99.85L72.827,99.75L72.895,101.175L72.964,101.425L73.032,101.275L73.101,101.6L73.169,101.6L73.238,101.425L73.306,101.6L73.374,101.95L73.443,101.85L73.511,101.175L73.58,101.5L73.648,102.15L73.717,102.5L73.785,103.5L73.854,104.3L73.922,103.9L73.99,103.15L74.059,103.3L74.127,103L74.196,103.3L74.264,103.75L74.333,104.275L74.401,105.1L74.47,105.25L74.538,104.675L74.606,104.225L74.675,103.95L74.743,103.675L74.812,103.975L74.88,103.85L74.949,103.275L75.017,103.125L75.086,103.125L75.154,103.3L75.222,103.8L75.291,104.3L75.359,103.9L75.428,103.325L75.496,102.675L75.565,102.8L75.633,103.125L75.702,103.275L75.77,103.8L75.838,102.825L75.907,102.45L75.975,102.8L76.044,103L76.112,102.625L76.181,103.175L76.249,103.675L76.318,104L76.386,103.725L76.454,102.8L76.523,102.375L76.591,102.175L76.66,101.75L76.728,102.025L76.797,101.825L76.865,100.95L76.934,100.825L77.002,101.1L77.07,100.8L77.139,100.675L77.207,100.65L77.276,100.6L77.344,100.5L77.413,100.575L77.481,100.475L77.55,100.65L77.618,100.75L77.687,100.55L77.755,99.325L77.823,98.625L77.892,98.625L77.96,97.525L78.029,97L78.097,97.4L78.166,98.125L78.234,97.6L78.303,97.075L78.371,96.275L78.439,96.375L78.508,95.9L78.576,95.55L78.645,96.025L78.713,95.95L78.782,95.675L78.85,95.4L78.919,95.625L78.987,95.65L79.055,95.425L79.124,95.2L79.192,94.7L79.261,94.4L79.329,93.625L79.398,92.975L79.466,93.125L79.535,93.725L79.603,93.725L79.671,93.55L79.737,92.775L79.805,93.05L79.874,92.8L79.942,92.825L80.011,93.125L80.079,92.825L80.148,92.85L80.216,92.3L80.285,91.4L80.353,91.125L80.422,91.225L80.49,90.8L80.558,91.525L80.627,91.95L80.695,91.7L80.764,92.125L80.832,92.575L80.901,93L80.969,93.125L81.038,93.05L81.106,92.25L81.174,91.775L81.243,91.625L81.311,90.625L81.38,90.775L81.448,91.1L81.517,91.3L81.585,89.85L81.654,89.55L81.722,88.575L81.79,88.225L81.859,87.8L81.927,87.9L81.996,89.1L82.064,89.275L82.133,89.8L82.201,88.7L82.27,88.225L82.338,88.675L82.406,88.65L82.475,88.625L82.543,88.1L82.612,87.3L82.68,86.425L82.749,86.4L82.817,85.525L82.886,84.925L82.954,85.3L83.022,85.475L83.091,84.975L83.159,85.825L83.228,86.575L83.296,86.525L83.365,87.225L83.433,87.15L83.502,86.275L83.57,85.025L83.638,85.65L83.707,85.275L83.775,85.825L83.844,86.325L83.912,86.8L83.981,86.7L84.049,85.475L84.118,85.225L84.186,84.75L84.255,84.725L84.323,85.575L84.391,86.35L84.46,86.125L84.528,85.6L84.597,85.875L84.665,86.35L84.734,86.825L84.802,86.825L84.871,86.9L84.939,85.9L85.007,84.675L85.076,83.875L85.144,84L85.213,83.725L85.281,84.2L85.35,84.825L85.418,84.325L85.487,83.875L85.555,84.675L85.623,85.875L85.692,86.6L85.76,87.9L85.829,88.175L85.897,88.5L85.966,88.3L86.034,88.025L86.103,88.075L86.171,87.425L86.239,87.55L86.308,88.45L86.376,87.55L86.445,86.95L86.513,87.05L86.582,87.4L86.65,87.45L86.719,87.375L86.787,87.7L86.855,87.75L86.924,87.3L86.992,87.85L87.061,88.175L87.129,88.8L87.198,89.5L87.266,89.7L87.335,88.375L87.403,87.425L87.471,87.475L87.54,87.8L87.608,87.4L87.677,86.775L87.745,86.1L87.814,85.025L87.882,84.4L87.951,84.4L88.019,84.525L88.087,84.775L88.156,85.475L88.224,86.175L88.293,86.225L88.361,85.7L88.43,86.1L88.498,86.3L88.567,85.925L88.635,86.175L88.704,86.525L88.772,86.5L88.84,85.975L88.909,85.55L88.977,85.825L89.046,86.175L89.114,86.6L89.183,86.65L89.251,85.375L89.32,84.925L89.388,85.775L89.456,86.125L89.525,86.525L89.593,87.275L89.662,87.95L89.73,88.25L89.799,88.225L89.867,88.075L89.936,87.625L90.004,86.975L90.072,86.975L90.141,87.4L90.209,85.925L90.278,85.15L90.346,84.575L90.415,84.2L90.483,83.425L90.552,83.05L90.62,84.3L90.688,83.65L90.757,82.875L90.825,82L90.894,81.5L90.962,81.25L91.031,81.875L91.099,82L91.168,81.45L91.236,80.85L91.304,81.125L91.373,80.775L91.441,80.3L91.51,80.325L91.578,80.35L91.647,79.65L91.715,78.975L91.784,77.85L91.852,77.975L91.92,78.175L91.989,79.175L92.057,80.075L92.126,79.775L92.194,79.225L92.263,79.925L92.331,80.6L92.4,81.325L92.468,82.35L92.537,83.75L92.605,84.325L92.673,83.925L92.742,84.825L92.81,85.6L92.879,86.675L92.947,87.2L93.016,87.625L93.084,86.55L93.153,85.1L93.221,84.975L93.289,85.125L93.358,85.05L93.426,85.775L93.495,86.475L93.563,85.775L93.632,85.725L93.7,85.625L93.769,85.925L93.837,86.975L93.905,87.3L93.974,88.05L94.042,88.15L94.111,87.2L94.179,87.075L94.248,87.15L94.316,87.475L94.385,87.125L94.453,87.3L94.521,86.3L94.59,86.175L94.658,86.45L94.727,86.075L94.795,85.675L94.864,85.7L94.932,85.675L95.001,85.6L95.069,85.475L95.137,86.075L95.206,87.1L95.274,87.4L95.343,87.875L95.411,88.625L95.48,87.875L95.548,87.525L95.617,88.225L95.685,88.875L95.753,89.9L95.822,90.45L95.89,91.15L95.959,91.325L96.03,91.325L96.099,91.7L96.167,91.975L96.235,92.725L96.304,93.175L96.372,93.275L96.441,94.4L96.509,94.2L96.578,95.175L96.646,95L96.715,94.425L96.783,94.85L96.851,95.35L96.92,94.875L96.988,95.2L97.057,95.6L97.125,96.45L97.194,96.7L97.262,97.925L97.331,98.775L97.399,98.875L97.467,99L97.536,100.55L97.604,100.7L97.673,101.25L97.741,101.175L97.81,100.975L97.878,100.85L97.947,100.625L98.015,101.025L98.084,100.475L98.152,99.825L98.22,100.6L98.289,100.925L98.357,100.725L98.426,100.4L98.494,99.875L98.563,99.625L98.631,99.25L98.7,99.725L98.768,99.625L98.836,98.925L98.905,98.675L98.973,98.5L99.042,97.7L99.11,97.85L99.179,98.1L99.247,98.475L99.316,98.05L99.384,97.25L99.452,97.125L99.521,96.425L99.589,95.075L99.658,95.025L99.726,94.975L99.795,94.05L99.863,92.725L99.932,92.1L100,90.925L100.068,89.675L100.137,90.775L100.205,91.4L100.274,90.825L100.342,89.975L100.411,89.45L100.479,89.675L100.548,89.575L100.616,90.6L100.684,91.1L100.753,90.55L100.821,90.85L100.89,91.2L100.958,90.95L101.027,91.3L101.095,92.1L101.164,91.75L101.232,91.3L101.3,90.725L101.369,89.95L101.437,90.5L101.506,90.625L101.574,91.1L101.643,91.475L101.711,91.3L101.78,90.375L101.848,90.85L101.916,91.175L101.985,91.275L102.053,92.1L102.122,92.725L102.19,91.5L102.259,90.425L102.327,90.375L102.396,90.125L102.464,90.225L102.533,90.4L102.601,90.525L102.669,89.6L102.738,88.775L102.806,88.5L102.875,88.6L102.943,88.85L103.012,89.15L103.08,89.4L103.149,89.625L103.217,90.2L103.285,90.275L103.354,91.6L103.422,92.8L103.491,93.525L103.559,94.6L103.628,95.975L103.696,96.975L103.765,98.2L103.833,99.675L103.901,100.675L103.97,102.35L104.038,103.55L104.107,104.525L104.175,105.725L104.244,107.45L104.312,109.425L104.381,111.125L104.449,113.3L104.517,114.95L104.586,116.1L104.651,117.45L104.72,118.8L104.788,120.325L104.857,121.775L104.925,122.725L104.994,123.725L105.062,124.8L105.131,125.675L105.199,126.125L105.268,126.65L105.336,127.2L105.404,127.5L105.473,127.625L105.541,127.4L105.61,127.15L105.678,126.6L105.747,126.675L105.815,126.475L105.884,126.575L105.952,126.725L106.02,126.4L106.089,126.3L106.157,126.325L106.226,126.175L106.294,125.875L106.363,125.15L106.431,124.3L106.5,123.65L106.568,123.05L106.636,122.775L106.705,122.275L106.773,122.275L106.842,122.2L106.91,122.225L106.979,122.325L107.047,121.975L107.116,121.725L107.184,121.15L107.252,120.475L107.321,119.6L107.389,119.15L107.458,118.6L107.526,118.125L107.595,117.975L107.663,117.75L107.732,117.475L107.8,117.175L107.868,116.95L107.937,116.075L108.005,115.65L108.074,115.05L108.142,114.325L108.211,113.3L108.279,112.475L108.348,111.65L108.416,111.75L108.484,111.825L108.553,111.9L108.621,112.025L108.69,111.275L108.758,111.175L108.827,111.225L108.895,110.425L108.964,109.925L109.032,109.4L109.101,109.15L109.169,108.55L109.237,108.35L109.306,108.5L109.374,108.775L109.443,108.4L109.511,107.5L109.58,107.425L109.648,107.45L109.717,107.15L109.785,106.9L109.853,106.525L109.922,106.075L109.99,106.275L110.059,105.45L110.127,105.075L110.196,105.075L110.264,104.85L110.333,104.55L110.401,104.6L110.469,104.75L110.538,104.025L110.606,103.25L110.675,103.375L110.743,103.575L110.812,103.15L110.88,102.425L110.949,100.825L111.017,100.45L111.085,100.375L111.154,100.075L111.222,99.975L111.291,99.65L111.359,99.35L111.428,98.85L111.496,98.75L111.565,99.025L111.633,98.825L111.701,98.45L111.77,98.2L111.838,97.925L111.907,97.5L111.975,97.15L112.044,96.775L112.112,96.625L112.181,96.9L112.249,96.8L112.317,96.425L112.386,96.425L112.454,95.825L112.523,94.925L112.591,95.25L112.66,95L112.728,93.625L112.797,93.4L112.865,92.1L112.933,92.025L113.002,93.025L113.07,92.45L113.139,91.45L113.207,91.5L113.276,90.975L113.344,90.725L113.413,90.6L113.481,90.875L113.55,91.05L113.618,91.225L113.686,91.1L113.755,90.625L113.823,90.725L113.892,90.575L113.96,90.25L114.029,90.1L114.097,89.525L114.166,89.6L114.234,89.525L114.302,89L114.371,89.1L114.439,88.575L114.508,88.375L114.576,88.275L114.645,87.775L114.713,87.875L114.782,88.125L114.85,87.675L114.918,88.3L114.987,87.7L115.055,88.375L115.124,89.025L115.192,89.45L115.261,89.125L115.329,88.7L115.398,88.675L115.466,88.5L115.534,87.425L115.603,86.8L115.671,85.525L115.74,85.025L115.808,84.375L115.877,83.9L115.945,83.925L116.014,84.175L116.082,84.25L116.15,84.6L116.219,83.75L116.287,82.725L116.356,82.8L116.424,83.125L116.493,83.45L116.561,84.05L116.63,83.825L116.698,83.7L116.766,83.15L116.835,82.925L116.903,83.175L116.972,83.575L117.04,83.55L117.109,82.45L117.177,82L117.246,81.55L117.314,80.825L117.383,81.525L117.451,81.825L117.519,82.7L117.588,83.725L117.656,83.625L117.725,83.775L117.793,84.075L117.862,85.025L117.93,85.3L117.999,85.3L118.067,84.825L118.135,84.575L118.204,83.875L118.272,84.15L118.341,85.25L118.409,85.475L118.478,85.35L118.546,84.95L118.615,84.85L118.683,85.35L118.751,86.2L118.82,86.775L118.888,87.05L118.957,86.825L119.025,86.35L119.094,86.075L119.162,86.1L119.231,85.775L119.299,86L119.367,86.825L119.436,86.375L119.504,86L119.573,84.75L119.641,84.725L119.71,85.1L119.778,85.525L119.847,85.075L119.915,84.475L119.983,84.05L120.052,83.875L120.12,84.275L120.189,84.15L120.257,84.525L120.326,85.3L120.394,85.3L120.463,85.375L120.531,84.95L120.599,85.65L120.668,85.7L120.736,85.225L120.805,84.375L120.873,84.675L120.945,84.55L121.013,84.45L121.081,84.875L121.15,85.55L121.218,86.6L121.287,86.65L121.355,86.575L121.424,86.475L121.492,86.775L121.561,86.4L121.629,86.05L121.697,85.425L121.766,84.85L121.834,85.325L121.903,85.85L121.971,86.675L122.04,87.7L122.108,87.85L122.177,87.7L122.245,87.775L122.313,87.8L122.382,88.075L122.45,87.8L122.519,87.975L122.587,89.3L122.656,89.725L122.724,90.225L122.793,90.45L122.861,91.15L122.93,90.85L122.998,91.675L123.066,92.3L123.135,92.2L123.203,92.5L123.272,92.1L123.34,92.1L123.409,92.225L123.477,92.1L123.546,91.45L123.614,92.35L123.682,93.375L123.751,93.8L123.819,93.9L123.888,93.825L123.956,93.5L124.025,92.95L124.093,92.325L124.162,92.6L124.23,93.025L124.298,93.475L124.367,94.2L124.435,93.45L124.504,93.125L124.572,93.375L124.641,92.525L124.709,91.75L124.778,91.15L124.846,91.425L124.914,91L124.983,91.575L125.051,91.05L125.12,90.2L125.188,91.1L125.257,90.5L125.325,88.95L125.394,87.45L125.462,86.275L125.53,84.875L125.599,85.05L125.667,83.6L125.736,81.975L125.804,80.975L125.873,80.825L125.941,80.275L126.01,80L126.078,79.975L126.146,79.3L126.215,78.275L126.283,77.725L126.352,77.325L126.42,77.225L126.489,77.275L126.557,76.925L126.626,76.2L126.694,75.275L126.762,73.775L126.831,73.2L126.899,72.25L126.968,71.95L127.036,71.225L127.105,70.575L127.173,70.4L127.242,69L127.31,69.375L127.379,69.9L127.447,71.675L127.515,72.55L127.584,73.875L127.652,73.725L127.721,73.675L127.789,74.025L127.858,74.1L127.926,74.75L127.995,74.85L128.063,75.025L128.131,74.35L128.2,74.45L128.268,75.125L128.337,74.85L128.405,74.45L128.474,74L128.542,73.725L128.611,74.075L128.679,73.1L128.747,72.875L128.816,73.525L128.884,73.25L128.953,74.35L129.021,74.025L129.09,73.525L129.158,73.7L129.227,73.625L129.295,74.075L129.363,73.825L129.432,74.625L129.5,74.15L129.569,73.575L129.637,72.65L129.706,72.15L129.774,72.5L129.843,72.8L129.911,73.625L129.979,72.775L130.045,72.675L130.114,71.775L130.182,72L130.25,71.025L130.319,70.4L130.387,70.5L130.456,69.675L130.524,69.225L130.593,69.15L130.661,68.775L130.73,69.45L130.798,70.125L130.866,70.55L130.935,70.475L131.003,69.375L131.072,68.7L131.14,68.15L131.209,67.925L131.277,67.4L131.346,66.825L131.414,66.375L131.482,65.175L131.551,65.075L131.619,64.575L131.688,64.65L131.756,65.175L131.825,64.875L131.893,64.3L131.962,64.1L132.03,63.925L132.098,63.25L132.167,63.9L132.235,63.5L132.304,63.85L132.372,63.75L132.441,63.775L132.509,64.05L132.578,63.075L132.646,62.5L132.714,61.825L132.783,60.875L132.851,59.675L132.92,59.025L132.988,58.825L133.057,58.2L133.125,58.625L133.194,59.875L133.262,60.225L133.33,60.825L133.399,60.175L133.467,59.175L133.536,59.475L133.604,59.075L133.673,59.825L133.741,59.5L133.81,58.65L133.878,58.85L133.946,59.15L134.015,58.075L134.083,57.825L134.152,58.325L134.22,57.925L134.289,57.7L134.357,56.725L134.426,56.775L134.494,55.85L134.563,56.15L134.631,56.825L134.699,57.1L134.768,56.6L134.836,57.4L134.905,57.175L134.973,57.15L135.042,56.875L135.11,56.8L135.179,56.525L135.247,55.375L135.315,54.25L135.384,53.6L135.452,54.025L135.521,54.35L135.589,55.15L135.658,56.375L135.726,56.475L135.795,56.95L135.863,56.925L135.931,56.6L136,57.175L136.068,56.85L136.137,56.225L136.205,55.575L136.274,55.45L136.342,54.775L136.411,56.2L136.479,56.225L136.547,56.725L136.616,56.85L136.684,56.825L136.753,56.925L136.821,57.525L136.89,56.6L136.958,57.825L137.027,57.9L137.095,58.425L137.163,57.975L137.232,57.7L137.3,57.25L137.369,57.8L137.437,57.525L137.506,57.65L137.574,58.025L137.643,57.475L137.711,55.9L137.779,55.2L137.848,54.65L137.916,55.175L137.985,55.05L138.053,55.175L138.122,55.6L138.19,56.05L138.259,55.85L138.327,55.325L138.396,55.95L138.464,55.5L138.532,55.75L138.601,54.75L138.669,54.45L138.738,54.6L138.806,54.425L138.875,54.675L138.943,55.875L139.012,56.625L139.08,57.15L139.148,57.35L139.217,57.975L139.285,59.1L139.354,59.7L139.422,59.6L139.491,60.5L139.559,60.475L139.628,60.4L139.696,60.6L139.764,61.375L139.833,61.75L139.901,62.525L139.97,62.925L140.038,64.025L140.107,63.5L140.175,63.55L140.244,64.425L140.312,64.5L140.38,65L140.449,64.55L140.517,63.125L140.586,61.425L140.654,61.125L140.723,60.775L140.791,60L140.86,59.8L140.928,59.525L140.996,58.325L141.065,57.3L141.133,56.625L141.202,55.725L141.27,55.475L141.339,55.475L141.407,55.15L141.476,54.375L141.544,53.325L141.612,52L141.681,50.65L141.749,49.025L141.818,48.6L141.886,48.625L141.955,47.85L142.023,46.475L142.092,44.3L142.16,43.45L142.228,42.85L142.297,42.5L142.365,43.175L142.434,43.5L142.502,42.95L142.571,44.225L142.639,44.525L142.708,44.725L142.776,45.475L142.845,45.9L142.913,45.775L142.981,45.275L143.05,45L143.118,42.975L143.187,43.125L143.255,43.7L143.324,44.5L143.392,43.275L143.461,43.425L143.529,43.6L143.597,43.75L143.666,44.35L143.734,45.7L143.803,47.45L143.871,47.25L143.94,47.125L144.008,47.15L144.077,47.525L144.145,48.025L144.213,48.85L144.282,49.275L144.35,48.6L144.419,47.2L144.487,46.7L144.556,47.975L144.624,48.9L144.693,50.325L144.761,52.575L144.829,52.625L144.898,53.55L144.966,54.55L145.035,55.2L145.103,56.725L145.172,59.375L145.24,60.15L145.309,60.8L145.377,61.2L145.445,62.975L145.514,64.225L145.582,66.35L145.651,68.325L145.719,70.45L145.788,71.175L145.856,71.525L145.925,72.55L145.993,72.55L146.061,73.725L146.13,75.325L146.198,77.3L146.267,77.625L146.338,78.675L146.407,79.9L146.475,81.45L146.543,82.35L146.612,83.35L146.68,83.825L146.749,83.475L146.817,82.725L146.886,82.45L146.954,82.05L147.023,81.525L147.091,82.75L147.159,83.375L147.228,83.2L147.296,83.25L147.365,83.8L147.433,84.325L147.502,84.5L147.57,85.375L147.639,85.8L147.707,85.25L147.775,85.075L147.844,84.75L147.912,85.075L147.981,85.425L148.049,87.175L148.118,87.45L148.186,87.35L148.255,87.05L148.323,87.625L148.392,87.5L148.46,88.375L148.528,89.2L148.597,89.825L148.665,89.85L148.734,89.85L148.802,90.375L148.871,90.5L148.939,91.3L149.008,92.675L149.076,94.525L149.144,94.7L149.213,93.325L149.281,92.45L149.35,92.525L149.418,92.45L149.487,92.125L149.555,91.675L149.624,89.9L149.692,88.525L149.76,87.9L149.829,86.975L149.897,86.925L149.966,87.75L150.034,87.8L150.103,86.225L150.171,85.275L150.24,84.125L150.308,83.425L150.376,82.9L150.445,83.35L150.513,83.175L150.582,82.15L150.65,80.85L150.719,79.875L150.787,78.925L150.856,78.425L150.924,78.5L150.992,79.325L151.061,78.475L151.129,76.8L151.198,76.325L151.266,76.375L151.335,76.875L151.403,76.975L151.472,77.075L151.54,77.25L151.608,77.325L151.677,77.9L151.745,78.55L151.814,79.125L151.882,79.825L151.951,80.275L152.019,78.725L152.088,77.65L152.156,77.775L152.225,77.975L152.293,77.875L152.361,78.6L152.43,78.975L152.498,78.05L152.567,76.75L152.635,76.975L152.704,76.9L152.772,76.425L152.841,77.325L152.909,78.075L152.977,77.675L153.046,76.375L153.114,76L153.183,76.35L153.251,75.925L153.32,76.2L153.388,76.7L153.457,75.9L153.525,74.375L153.593,73.625L153.662,72.875L153.73,71.675L153.799,70.95L153.867,70.925L153.936,70.1L154.004,69.4L154.073,69.075L154.141,69.075L154.209,68.85L154.278,69.175L154.346,70.225L154.415,69.35L154.483,67.575L154.552,67.675L154.62,67.95L154.689,67.8L154.757,68.675L154.825,69.85L154.894,68.275L154.96,67.525L155.028,66.45L155.096,66.175L155.165,65.825L155.233,66L155.302,66.875L155.37,66.725L155.439,66.425L155.507,66.6L155.576,67.25L155.644,67.2L155.712,67.5L155.781,68.3L155.849,67.95L155.918,67.225L155.986,66.925L156.055,67.075L156.123,66.925L156.192,67.15L156.26,68.125L156.328,67.8L156.397,67.025L156.465,67.375L156.534,67.45L156.602,67.625L156.671,68.225L156.739,68.55L156.808,67.85L156.876,66.6L156.944,66.5L157.013,65.6L157.081,65.1L157.15,65L157.218,65.175L157.287,63.8L157.355,62.125L157.424,61.725L157.492,60.65L157.56,60.8L157.629,60.175L157.697,59.925L157.766,58.25L157.834,58.025L157.903,56.95L157.971,56.3L158.04,55.75L158.108,55.95L158.176,56.6L158.245,56.825L158.313,56.05L158.382,55.825L158.45,56.1L158.519,54.95L158.587,55.35L158.656,54.925L158.724,53.75L158.792,53.125L158.861,52.6L158.929,52.85L158.998,53.025L159.066,54.05L159.135,55.875L159.203,55.625L159.272,54.575L159.34,55.275L159.409,56.15L159.477,55.65L159.545,56L159.614,55.7L159.682,56.2L159.751,55.85L159.819,56.4L159.888,55.575L159.956,56.325L160.025,56.825L160.093,57.6L160.161,56.625L160.23,55.25L160.298,54.475L160.367,53.9L160.435,52.925L160.504,52.625L160.572,53.95L160.641,54.725L160.709,54.85L160.777,54.775L160.846,54L160.914,54.4L160.983,54.275L161.051,54.7L161.12,54.025L161.188,52.875L161.257,52.8L161.325,53.15L161.393,52.35L161.462,52.275L161.53,53.1L161.599,53.575L161.667,52.725L161.736,52.225L161.804,52.975L161.873,53.425L161.941,54.575L162.009,55.475L162.078,55.575L162.146,54.725L162.215,54.9L162.283,55.65L162.352,55.65L162.42,55.675L162.489,57.275L162.557,57.575L162.625,56.575L162.694,56.55L162.762,55.875L162.831,56.125L162.899,57.225L162.968,57.7L163.036,58L163.105,58.5L163.173,58.25L163.242,58.275L163.31,58.175L163.378,59.35L163.447,60.85L163.515,60.425L163.584,60.2L163.652,59.8L163.721,60L163.789,60.2L163.858,60.3L163.926,61.525L163.994,61.125L164.063,60.5L164.131,59.9L164.2,60.025L164.268,60.025L164.337,60.45L164.405,60.825L164.474,61.025L164.542,60.025L164.61,59.125L164.679,58.975L164.747,58.475L164.816,59L164.884,59.275L164.953,59.4L165.021,59.675L165.09,59.775L165.158,58.775L165.226,59L165.295,59.675L165.363,60.075L165.432,58.85L165.5,57.525L165.569,56.925L165.637,56.25L165.706,55.75L165.774,56.15L165.842,55.75L165.911,54.4L165.979,51.875L166.048,51.125L166.116,50.975L166.185,50.7L166.253,50.725L166.322,50.475L166.39,49.725L166.458,49.45L166.527,49.05L166.595,48.975L166.664,49.625L166.732,50.55L166.801,50.9L166.869,50.325L166.938,49.75L167.006,49.175L167.074,47.875L167.143,47.425L167.211,47.275L167.28,47.85L167.348,47.7L167.417,47.05L167.485,47.15L167.554,47L167.622,47.425L167.691,48.8L167.759,50.375L167.827,50.175L167.896,50.5L167.964,51.625L168.033,52.625L168.101,53.175L168.17,54.05L168.238,55.4L168.307,55.125L168.375,55.05L168.443,55.4L168.512,55.7L168.58,56.15L168.649,57.175L168.717,57.7L168.786,58L168.854,58.025L168.923,58.25L168.991,58.325L169.059,58.175L169.128,59.35L169.196,60.45L169.265,61.075L169.333,61.175L169.402,61.45L169.47,61.925L169.539,62.775L169.607,63.575L169.675,64.55L169.744,64.3L169.812,64.025L169.881,65.225L169.949,65.55L170.018,65.825L170.086,66.975L170.155,67.75L170.223,66.675L170.291,66.15L170.36,66.575L170.428,67.75L170.497,68.55L170.565,68.8L170.634,70.15L170.702,69.125L170.771,68.775L170.839,68.575L170.907,68.7L170.976,68.6L171.044,70.1L171.113,70.75L171.181,70.35L171.253,70.225L171.321,70.15L171.389,70.05L171.458,70.225L171.526,70.95L171.595,71.35L171.663,71.925L171.732,71.45L171.8,71.3L171.869,71.05L171.937,71L172.005,70.75L172.074,70.675L172.142,69.825L172.211,69.275L172.279,69.6L172.348,69.5L172.416,70.9L172.485,71.55L172.553,72.35L172.621,72.5L172.69,71.575L172.758,71.85L172.827,71.55L172.895,70.925L172.964,70.775L173.032,71.15L173.101,70.225L173.169,70.35L173.238,69.125L173.306,67.85L173.374,67.6L173.443,67.825L173.511,68.35L173.58,66.825L173.648,64.975L173.717,64.35L173.785,63.475L173.854,62.35L173.922,62.475L173.99,61.5L174.059,60.8L174.127,58.85L174.196,57.75L174.264,56.6L174.333,55.525L174.401,55.3L174.47,54.075L174.538,52.975L174.606,49.95L174.675,48.3L174.743,46.95L174.812,45.65L174.88,44.95L174.949,44.35L175.017,42.6L175.086,41.6L175.154,41.275L175.222,40.775L175.291,42.575L175.359,44.05L175.428,44.325L175.496,42.625L175.565,41.725L175.633,42.575L175.702,42.7L175.77,42.45L175.838,43.85L175.907,45.075L175.975,45.1L176.044,45.05L176.112,45.25L176.181,46.9L176.249,47.025L176.318,48.1L176.386,49.35L176.454,49.625L176.523,49.5L176.591,49.45L176.66,50.975L176.728,51.675L176.797,52.375L176.865,54.125L176.934,54.625L177.002,56.125L177.07,57.55L177.139,58.375L177.207,57.575L177.276,56.85L177.344,56.825L177.413,55.5L177.481,55.725L177.55,57L177.618,56.925L177.687,56.9L177.755,56.975L177.823,57.7L177.892,55.775L177.96,55.2L178.029,54.3L178.097,54.1L178.166,54.15L178.234,54.125L178.303,55.9L178.371,55.625L178.439,54.6L178.508,54L178.576,53.3L178.645,52.35L178.713,51.8L178.782,52.3L178.85,51.35L178.919,48.75L178.987,47.15L179.055,45.025L179.124,43.375L179.192,44.125L179.261,43.85L179.329,42.9L179.398,38.5L179.466,37.725L179.535,36.85L179.603,34.725L179.671,34.175L179.74,34.15L179.808,33.65L179.874,31.1L179.942,29.675L180.011,28.15L180.079,25.95L180.148,25.175L180.216,25.625L180.285,24.175L180.353,21L180.422,18.9L180.49,17.725L180.558,17.75L180.627,18.525L180.695,19.325L180.764,19.425L180.832,17.85L180.901,17.175L180.969,17.725L181.038,19.55L181.106,21.85L181.174,24.8L181.243,23.5L181.311,23.15L181.38,24.45L181.448,27.375L181.517,28.15L181.585,28.65L181.654,30.85L181.722,30.675L181.79,28.45L181.859,28.65L181.927,28.925L181.996,31.1L182.064,31.825L182.133,34.95L182.201,34.225L182.27,33.025L182.338,32.425L182.406,34L182.475,33.675L182.543,35.525L182.612,34.15L182.68,31.825L182.749,28.8L182.817,26.025L182.886,24.55L182.954,25.3L183.022,26.2L183.091,26.025L183.159,24.425L183.228,22.125L183.296,22L183.365,22.525L183.433,22.125L183.502,23.525L183.57,24.675L183.638,22.5L183.707,21.6L183.775,21.875L183.844,23.275L183.912,24.125L183.981,25.35L184.049,25.075L184.118,25.575L184.186,24.3L184.255,25.425L184.323,24.9L184.391,25.375L184.46,24.325L184.528,26.9L184.597,26.1L184.665,26.575L184.734,27.375L184.802,28.85L184.871,30.75L184.939,33L185.007,34.125L185.076,34.3L185.144,33.15L185.213,32.7L185.281,33.15L185.35,33.875L185.418,34.675L185.487,36.075L185.555,34.325L185.623,33.975L185.692,35.875L185.76,35.775L185.829,35.225L185.897,35.725L185.966,36.1L186.034,35.35L186.103,34.975L186.171,35.1L186.239,34.975L186.308,35.225L186.376,37.125L186.445,38.675L186.513,39.975L186.582,38.875L186.65,38.125L186.719,37.625L186.787,37.325L186.855,38.575L186.924,38.6L186.992,37.775L187.061,36.175L187.129,35.1L187.198,35.275L187.266,34.775L187.335,33.8L187.403,33.3L187.471,32.625L187.54,30.225L187.608,28.75L187.677,26.8L187.745,25.275L187.814,23.95L187.882,24.075L187.951,23.8L188.019,22.775L188.087,22.6L188.156,21.9L188.224,20.6L188.293,20.075L188.361,19.6L188.43,18L188.498,16.2L188.567,14.9L188.635,14.175L188.704,14.65L188.772,15.775L188.84,16.6L188.909,14.75L188.977,14.3L189.046,13.75L189.114,13.35L189.183,13.675L189.251,14.25L189.32,15.05L189.388,14.6L189.456,13.3L189.525,12.225L189.593,11.425L189.662,12.3L189.73,11.85L189.799,12.55L189.867,14.625L189.936,13.575L190.004,12.375L190.072,11.025L190.141,10.6L190.209,10.975L190.278,11.5L190.346,11.1L190.415,9.225L190.483,8.875L190.552,7.775L190.62,8.4L190.688,8.525L190.757,7.35L190.825,6.225L190.894,5.05L190.962,5.675L191.031,4.975L191.099,4.975L191.168,6.6L191.236,7.525L191.304,8.3L191.373,8.075L191.441,8.975L191.51,9.6L191.578,12L191.647,14.4L191.715,16L191.784,17.725L191.852,17.65L191.92,17.225L191.989,18.625L192.057,20L192.126,23.075L192.194,25L192.263,26.225L192.331,26.25L192.4,26.3L192.468,26.925L192.537,27.8L192.605,30.175L192.673,30.975L192.742,30.4L192.81,30.35L192.879,30.325L192.947,30.525L193.016,31.375L193.084,32.775L193.153,33.875L193.221,33.75L193.289,33.875L193.358,32.125L193.426,31.65L193.495,31.025L193.563,31.525L193.632,30.6L193.7,29.725L193.769,28.85L193.837,28.575L193.905,29.175L193.974,29.225L194.042,28.875L194.111,29.175L194.179,26.725L194.248,25.375L194.316,24.425L194.385,25.15L194.453,25.35L194.521,27.05L194.59,25.975L194.658,25.05L194.727,23.325L194.795,23.8L194.864,24.025L194.932,25.05L195.001,26.775L195.069,28.175L195.137,28.85L195.206,28.875L195.274,28.9L195.343,29.95L195.411,31.425L195.48,33.85L195.548,35.825L195.617,35.65L195.685,35.275L195.753,35.6L195.822,35.4L195.89,35.1L195.959,35.25L196.027,36.9L196.096,37.175L196.167,37.25L196.235,37.95L196.304,39.15L196.372,40.025L196.441,40.475L196.509,42.775L196.578,43.525L196.646,44.9L196.715,45.15L196.783,47.05L196.851,48.025L196.92,49.9L196.988,50.625L197.057,51.7L197.125,50.05L197.194,49.325L197.262,50.025L197.331,50.75L197.399,50.45L197.467,51.175L197.536,51.675L197.604,51.7L197.673,52.85L197.741,53.025L197.81,52.75L197.878,54.6L197.947,55.725L198.015,56.4L198.084,54.85L198.152,54.1L198.22,52.1L198.289,51.225L198.357,49.4L198.426,49.9L198.494,47.575L198.563,45.225L198.631,43.275L198.7,42L198.768,42.05L198.836,41.575L198.905,41.3L198.973,39.925L199.042,41.15L199.11,40.875L199.179,41.8L199.247,42.85L199.316,44.325L199.384,45.175L199.452,44.025L199.521,43.125L199.589,42.375L199.658,41.85L199.726,40.75L199.795,39.2L199.863,39.85L199.932,38L200,36.225L200.068,35.475L200.137,33.125L200.205,32.475L200.274,34.375L200.342,36.75L200.411,38.2L200.479,36.725L200.548,37.7L200.616,38.075L200.684,38.95L200.753,40L200.821,40.4L200.89,40.45L200.958,41.725L201.027,42.3L201.095,40.7L201.164,39.725L201.232,40.525L201.3,41.075L201.369,39.95L201.437,38.175L201.506,38.55L201.574,37.9L201.643,35.925L201.711,34.8L201.78,35.5L201.848,35.975L201.916,35.3L201.985,35.7L202.053,37.125L202.122,36.975L202.19,39.4L202.259,41.075L202.327,44.325" stroke="#4c78a8" stroke-width="2"/></g><g class="mark-group role-title"><g transform="translate(100,-22)"><path class="background" aria-hidden="true" d="M0,0h0v0h0Z" pointer-events="none"/><g><g class="mark-text role-title-text" role="graphics-symbol" aria-roledescription="title" aria-label="Title text 'Illegal Parking: Blocked Sidewalk'" pointer-events="none"><text text-anchor="middle" transform="translate(0,10)" font-family="sans-serif" font-size="13px" font-weight="bold" fill="#000" opacity="1">Illegal Parking: Blocked Sidewalk</text></g></g><path class="foreground" aria-hidden="true" d="" pointer-events="none" display="none"/></g></g></g><path class="foreground" aria-hidden="true" d="" display="none"/></g></g></g><defs><clipPath id="clip128"><rect x="0" y="0" width="200" height="150"/></clipPath></defs></svg>