<svg xmlns="http://www.w3.org/2000/svg" xmlns:xlink="http://www.w3.org/1999/xlink" version="1.1" class="marks" width="314" height="199" viewBox="0 0 314 199"><rect width="314" height="199" fill="white"/><g fill="none" stroke-miterlimit="10" transform="translate(57,27)"><g class="mark-group role-frame root" role="graphics-object" aria-roledescription="group mark container"><g transform="translate(0,0)"><path class="background" aria-hidden="true" d="M0,0h200v150h-200Z"/><g><g class="mark-group role-axis" aria-hidden="true"><g transform="translate(0.5,0.5)"><path class="background" aria-hidden="true" d="M0,0h0v0h0Z" pointer-events="none"/><g><g class="mark-rule role-axis-grid" pointer-events="none"><line transform="translate(0,150)" x2="200" y2="0" stroke="#ddd" stroke-width="1" opacity="1"/><line transform="translate(0,100)" x2="200" y2="0" stroke="#ddd" stroke-width="1" opacity="1"/><line transform="translate(0,50)" x2="200" y2="0" stroke="#ddd" stroke-width="1" opacity="1"/><line transform="translate(0,0)" x2="200" y2="0" stroke="#ddd" stroke-width="1" opacity="1"/></g></g><path class="foreground" aria-hidden="true" d="" pointer-events="none" display="none"/></g></g><g class="mark-group role-axis" role="graphics-symbol" aria-roledescription="axis" aria-label="X-axis for a time scale with values from Friday, 01 January 2016, 12:00:00 AM to Monday, 01 January 2024, 12:00:00 AM"><g transform="translate(0.5,150.5)"><path class="background" aria-hidden="true" d="M0,0h0v0h0Z" pointer-events="none"/><g><g class="mark-rule role-axis-tick" pointer-events="none"><line transform="translate(0,0)" x2="0" y2="5" stroke="#888" stroke-width="1" opacity="1"/><line transform="translate(50,0)" x2="0" y2="5" stroke="#888" stroke-width="1" opacity="1"/><line transform="translate(100,0)" x2="0" y2="5" stroke="#888" stroke-width="1" opacity="1"/><line transform="translate(150,0)" x2="0" y2="5" stroke="#888" stroke-width="1" opacity="1"/><line transform="translate(200,0)" x2="0" y2="5" stroke="#888" stroke-width="1" opacity="1"/></g><g class="mark-text role-axis-label" pointer-events="none"><text text-anchor="start" transform="translate(0,15)" font-family="sans-serif" font-size="10px" fill="#000" opacity="1">2016</text><text text-anchor="middle" transform="translate(50.03422313483915,15)" font-family="sans-serif" font-size="10px" fill="#000" opacity="1">2018</text><text text-anchor="middle" transform="translate(100,15)" font-family="sans-serif" font-size="10px" fill="#000" opacity="1">2020</text><text text-anchor="middle" transform="translate(150.03422313483915,15)" font-family="sans-serif" font-size="10px" fill="#000" opacity="1">2022</text><text text-anchor="end" transform="translate(200,15)" font-family="sans-serif" font-size="10px" fill="#000" opacity="1">2024</text></g><g class="mark-rule role-axis-domain" pointer-events="none"><line transform="translate(0,0)" x2="200" y2="0" stroke="#888" stroke-width="1" opacity="1"/></g></g><path class="foreground" aria-hidden="true" d="" pointer-events="none" display="none"/></g></g><g class="mark-group role-axis" role="graphics-symbol" aria-roledescription="axis" aria-label="Y-axis for a linear scale with values from 0 to 30"><g transform="translate(0.5,0.5)"><path class="background" aria-hidden="true" d="M0,0h0v0h0Z" pointer-events="none"/><g><g class="mark-rule role-axis-tick" pointer-events="none"><line transform="translate(0,150)" x2="-5" y2="0" stroke="#888" stroke-opacity="0" stroke-width="1" opacity="1"/><line transform="translate(0,100)" x2="-5" y2="0" stroke="#888" stroke-opacity="0" stroke-width="1" opacity="1"/><line transform="translate(0,50)" x2="-5" y2="0" stroke="#888" stroke-opacity="0" stroke-width="1" opacity="1"/><line transform="translate(0,0)" x2="-5" y2="0" stroke="#888" stroke-opacity="0" stroke-width="1" opacity="1"/></g><g class="mark-text role-axis-label" pointer-events="none"><text text-anchor="end" transform="translate(-7,153)" font-family="sans-serif" font-size="10px" fill="#000" opacity="1">0</text><text text-anchor="end" transform="translate(-7,103.00000000000001)" font-family="sans-serif" font-size="10px" fill="#000" opacity="1">10</text><text text-anchor="end" transform="translate(-7,53.00000000000001)" font-family="sans-serif" font-size="10px" fill="#000" opacity="1">20</text><text text-anchor="end" transform="translate(-7,3)" font-family="sans-serif" font-size="10px" fill="#000" opacity="1">30</text></g></g><path class="foreground" aria-hidden="true" d="" pointer-events="none" display="none"/></g></g><g class="mark-line role-mark marks" clip-path="url(#clip145)" role="graphics-object" aria-roledescription="line mark container"><path aria-label="day: Dec 19, 2017; avg: 16.4" role="graphics-symbol" aria-roledescription="line mark" d="M49.144,68L49.213,66.667L49.281,68L49.35,67.5L49.418,67.667L49.487,67.667L49.555,66.167L49.624,65.167L49.692,64.5L49.76,65.833L49.829,67.333L49.897,68L49.966,67L50.034,67.5L50.103,65.667L50.171,66.833L50.24,70L50.308,69L50.376,71.333L50.445,73L50.513,74.667L50.582,77.833L50.65,79.333L50.719,80.667L50.787,83L50.856,83.833L50.924,84.167L50.992,83.833L51.061,82L51.129,83.833L51.198,85.833L51.266,88.167L51.335,88.667L51.403,88.833L51.472,88.333L51.54,88.333L51.608,88L51.677,88.167L51.745,90.333L51.814,91L51.882,90.5L51.951,89L52.019,89L52.088,89.5L52.156,91.333L52.225,91.333L52.293,91.5L52.361,91.5L52.43,89.5L52.498,89.333L52.567,87.667L52.635,85.833L52.704,87.667L52.772,89.333L52.841,88.5L52.909,87.833L52.977,88.333L53.046,88.833L53.114,91.167L53.183,92.333L53.251,91L53.32,88.667L53.388,86.667L53.457,87.333L53.525,88.167L53.593,88.333L53.662,91L53.73,91.667L53.799,89.333L53.867,88.333L53.936,88.667L54.004,89.167L54.073,89.833L54.141,90.833L54.209,91.167L54.278,91.5L54.346,90.167L54.415,91.167L54.483,92L54.552,91.833L54.62,94.5L54.689,96.167L54.757,93L54.823,91.5L54.891,91.833L54.96,91.333L55.028,90.833L55.096,90.167L55.165,89.833L55.233,88L55.302,86L55.37,86.167L55.439,87.5L55.507,85.833L55.576,86L55.644,85.5L55.712,83.5L55.781,82.333L55.849,84L55.918,83.833L55.986,84.333L56.055,85.667L56.123,85.667L56.192,84.5L56.26,83L56.328,83.167L56.397,83L56.465,83.333L56.534,83L56.602,83.167L56.671,81.833L56.739,79.833L56.808,81.833L56.876,83.167L56.944,82.333L57.013,83L57.081,84.333L57.15,85.167L57.218,84.167L57.287,84.333L57.355,85.833L57.424,87.667L57.492,87.333L57.56,86.333L57.629,84.833L57.697,84L57.766,84.5L57.834,86L57.903,87L57.971,87.5L58.04,87.333L58.108,86.333L58.176,85.5L58.245,85L58.313,84.667L58.382,83.667L58.45,83.5L58.519,83.667L58.587,82.333L58.656,82.5L58.724,82.333L58.792,83.5L58.861,83.167L58.929,83.167L58.998,83.167L59.066,82.5L59.135,80.167L59.203,78.5L59.272,78.667L59.34,78.667L59.409,78.333L59.477,77.667L59.545,76.333L59.614,78.333L59.682,79.167L59.751,80.333L59.819,80.833L59.888,80.167L59.956,77.667L60.025,76.167L60.093,74.667L60.161,73.167L60.23,73L60.298,73.5L60.367,75L60.435,75.333L60.504,74.833L60.572,74.333L60.641,76.167L60.709,73.5L60.777,73.167L60.846,73.833L60.914,73.5L60.983,73.333L61.051,74.333L61.12,73.167L61.188,73.833L61.257,75.667L61.325,76.667L61.393,77.667L61.462,77.667L61.53,76.5L61.599,75.5L61.667,75.333L61.736,75.167L61.804,76.167L61.873,76.167L61.941,75.5L62.009,75.833L62.078,76L62.146,76.5L62.215,76.167L62.283,74.667L62.352,74.5L62.42,73.833L62.489,73.833L62.557,75.5L62.625,74.167L62.694,73.667L62.762,75L62.831,74.667L62.899,71.5L62.968,70.167L63.036,68.5L63.105,67.167L63.173,68.833L63.242,69.5L63.31,68.333L63.378,66.333L63.447,64L63.515,64.5L63.584,65L63.652,66.667L63.721,67.167L63.789,67.167L63.858,64.667L63.926,64.667L63.994,65.833L64.063,66.333L64.131,67.167L64.2,68.833L64.268,70.667L64.337,71.833L64.405,71L64.474,70.667L64.542,69.833L64.61,69.333L64.679,71L64.747,72.167L64.816,73.333L64.884,73.5L64.953,75.167L65.021,75.833L65.09,77.167L65.158,79L65.226,79.667L65.295,80.5L65.363,80.333L65.432,82L65.5,82.167L65.569,82.667L65.637,83.167L65.706,81.833L65.774,79.333L65.842,79L65.911,79.833L65.979,78.167L66.048,77.667L66.116,78L66.185,77.833L66.253,75.167L66.322,74.833L66.39,75L66.458,75.333L66.527,75.333L66.595,75L66.664,74.167L66.732,73.5L66.801,73.167L66.869,72.333L66.938,73L67.006,75.167L67.074,77.333L67.143,76.333L67.211,75.5L67.28,73.833L67.348,73.333L67.417,74.333L67.485,73.5L67.554,75.833L67.622,76.5L67.691,76.333L67.759,76.333L67.827,77.5L67.896,77.167L67.964,76.833L68.033,78.333L68.101,78L68.17,77.667L68.238,77.5L68.307,77.667L68.375,77.167L68.443,76.333L68.512,77.667L68.58,79.333L68.649,79.833L68.717,79.167L68.786,78.333L68.854,77.333L68.923,78.667L68.991,79.167L69.059,78.5L69.128,77.5L69.196,78.167L69.265,76L69.333,77.167L69.402,75.667L69.47,74.667L69.539,76L69.607,75L69.675,73.167L69.744,73.667L69.812,74.667L69.881,75L69.949,76.333L70.018,76.833L70.086,76.667L70.155,75.167L70.223,75.667L70.291,76.833L70.36,77.667L70.428,78.333L70.497,79L70.565,79.167L70.634,77.833L70.702,77.833L70.771,80.5L70.839,81L70.907,83.333L70.976,82.5L71.044,82L71.116,79.833L71.184,79.167L71.253,78.333L71.321,79.833L71.389,78L71.458,76.833L71.526,76L71.595,73.833L71.663,73.167L71.732,73.167L71.8,73.5L71.869,74.167L71.937,75.667L72.005,73.833L72.074,74L72.142,75.333L72.211,77.333L72.279,76.333L72.348,74.5L72.416,74.167L72.485,73.167L72.553,75.167L72.621,73.833L72.69,72.667L72.758,71.833L72.827,69.5L72.895,70.667L72.964,69L73.032,70.167L73.101,67.333L73.169,67.167L73.238,67.167L73.306,69.167L73.374,70.5L73.443,71.5L73.511,73.167L73.58,72.667L73.648,74.167L73.717,74.167L73.785,75.167L73.854,74.667L73.922,74.333L73.99,73.833L74.059,74.667L74.127,74.333L74.196,73.5L74.264,73.333L74.333,75.833L74.401,77.333L74.47,77.167L74.538,77.5L74.606,76.167L74.675,75.833L74.743,77.167L74.812,80L74.88,78.333L74.949,76.833L75.017,76.333L75.086,74.333L75.154,75.167L75.222,73.667L75.291,74.333L75.359,71.667L75.428,70.167L75.496,69.833L75.565,70L75.633,71L75.702,71.667L75.77,73.333L75.838,72.833L75.907,73.5L75.975,72.667L76.044,72.667L76.112,73.667L76.181,74.833L76.249,75.333L76.318,75.833L76.386,73.333L76.454,72.833L76.523,72.833L76.591,72.333L76.66,73.333L76.728,76L76.797,75.5L76.865,73.833L76.934,76.333L77.002,76.333L77.07,77.5L77.139,78.333L77.207,82.167L77.276,86.5L77.344,85.833L77.413,87.833L77.481,87.667L77.55,89.667L77.618,90.5L77.687,91.667L77.755,89.833L77.823,89.5L77.892,90L77.96,89.833L78.029,90.833L78.097,91.5L78.166,91.5L78.234,89.5L78.303,89.5L78.371,90.167L78.439,89.5L78.508,90.167L78.576,91.833L78.645,92.333L78.713,91.333L78.782,88.833L78.85,88.5L78.919,89.167L78.987,88.5L79.055,89L79.124,89.333L79.192,88.333L79.261,85.833L79.329,83.833L79.398,84.333L79.466,85.667L79.535,86.833L79.603,86.833L79.671,85.667L79.737,84.667L79.805,84.5L79.874,82.833L79.942,82.5L80.011,81.667L80.079,81.667L80.148,80.667L80.216,80.5L80.285,81.833L80.353,78.5L80.422,77L80.49,78.667L80.558,79.167L80.627,78.833L80.695,79.333L80.764,79.333L80.832,80.5L80.901,82.5L80.969,82.833L81.038,84.667L81.106,84.667L81.174,83.833L81.243,85.167L81.311,86L81.38,87.833L81.448,88.333L81.517,87L81.585,82.333L81.654,81.667L81.722,82.833L81.79,83.5L81.859,84.167L81.927,86.167L81.996,87.667L82.064,86L82.133,86.5L82.201,85.833L82.27,85.333L82.338,85.667L82.406,88.5L82.475,88.333L82.543,86.333L82.612,82.667L82.68,80.833L82.749,80.5L82.817,80.667L82.886,80.5L82.954,79.833L83.022,80.667L83.091,78.667L83.159,78.5L83.228,78.667L83.296,78L83.365,78.333L83.433,79L83.502,77.5L83.57,76.667L83.638,80.667L83.707,78.667L83.775,76.833L83.844,77L83.912,78.333L83.981,77.167L84.049,74L84.118,75.5L84.186,75.333L84.255,74.5L84.323,74L84.391,73.833L84.46,71L84.528,70L84.597,70.5L84.665,72.333L84.734,74L84.802,74.167L84.871,74.5L84.939,74.167L85.007,71.667L85.076,69.333L85.144,68L85.213,67.167L85.281,64.833L85.35,64L85.418,62.333L85.487,58.667L85.555,59L85.623,60L85.692,58.667L85.76,58.667L85.829,59.667L85.897,58.667L85.966,56.5L86.034,56.5L86.103,57L86.171,56.667L86.239,56.167L86.308,55.333L86.376,55.333L86.445,51.667L86.513,52L86.582,52.167L86.65,51.5L86.719,47.333L86.787,38.5L86.855,31.5L86.924,28.333L86.992,27.5L87.061,27.667L87.129,29L87.198,31.833L87.266,32.667L87.335,34L87.403,32.5L87.471,32.833L87.54,33.833L87.608,32.167L87.677,31.333L87.745,33.5L87.814,30.167L87.882,29L87.951,28L88.019,27.167L88.087,26L88.156,27.333L88.224,27.167L88.293,25.333L88.361,27.167L88.43,27.5L88.498,29.833L88.567,30.667L88.635,31.333L88.704,31.833L88.772,33L88.84,40.5L88.909,47.167L88.977,46.333L89.046,42.167L89.114,44.333L89.183,43.167L89.251,41.333L89.32,40.833L89.388,40.5L89.456,42.333L89.525,42.333L89.593,41.333L89.662,43.167L89.73,43.667L89.799,41.167L89.867,41.333L89.936,39.5L90.004,41L90.072,43.5L90.141,44.333L90.209,43L90.278,42.167L90.346,41.5L90.415,40.5L90.483,40.333L90.552,41L90.62,42.5L90.688,41.833L90.757,41.833L90.825,45.667L90.894,46.833L90.962,46.833L91.031,49.5L91.099,55L91.168,53L91.236,52.833L91.304,53.667L91.373,54.333L91.441,54.167L91.51,55.5L91.578,56.833L91.647,58.167L91.715,58.833L91.784,57.833L91.852,58.5L91.92,61.833L91.989,63.167L92.057,62.833L92.126,60.333L92.194,60.167L92.263,60.333L92.331,60.5L92.4,62.833L92.468,65.167L92.537,67L92.605,68.167L92.673,65.5L92.742,65.667L92.81,66L92.879,66.667L92.947,66.167L93.016,67.333L93.084,67.167L93.153,66.667L93.221,68.167L93.289,68.667L93.358,69.667L93.426,70.833L93.495,73.333L93.563,73L93.632,72.667L93.7,72.833L93.769,72.333L93.837,73.333L93.905,73.5L93.974,75L94.042,76.5L94.111,76L94.179,78.667L94.248,78.667L94.316,79.167L94.385,81L94.453,81.5L94.521,81.167L94.59,80L94.658,79.333L94.727,81.333L94.795,82.5L94.864,82.333L94.932,83L95.001,83.5L95.069,81.833L95.137,81.167L95.206,81L95.274,81.833L95.343,83L95.411,84.167L95.48,83.333L95.548,81.667L95.617,82.167L95.685,82.333L95.753,82.167L95.822,81.333L95.89,82.5L95.959,82.5L96.03,79.833L96.099,79.5L96.167,80.167L96.235,76.5L96.304,77.333L96.372,76.833L96.441,75.5L96.509,74.833L96.578,73.667L96.646,72.333L96.715,72.5L96.783,72.5L96.851,73.167L96.92,74.333L96.988,73.333L97.057,74.5L97.125,76L97.194,75.833L97.262,75.667L97.331,74.167L97.399,73.667L97.467,71.333L97.536,71.833L97.604,71.833L97.673,72.167L97.741,72.167L97.81,71.5L97.878,72L97.947,72L98.015,74.5L98.084,76.167L98.152,76.5L98.22,76.667L98.289,79.333L98.357,77.167L98.426,77.833L98.494,77.333L98.563,78.333L98.631,79.667L98.7,81L98.768,80.167L98.836,79.5L98.905,78.167L98.973,77.667L99.042,76.833L99.11,75L99.179,75.333L99.247,79L99.316,78.833L99.384,79L99.452,79.167L99.521,79.833L99.589,80L99.658,81.833L99.726,81.667L99.795,81L99.863,82.667L99.932,83.667L100,81.667L100.068,79.5L100.137,80.833L100.205,82.333L100.274,82.5L100.342,81.5L100.411,83.333L100.479,83.833L100.548,85.667L100.616,85.333L100.684,85.167L100.753,83.167L100.821,83.167L100.89,82.667L100.958,81.5L101.027,82.333L101.095,84.333L101.164,84.833L101.232,83.5L101.3,80.167L101.369,81.333L101.437,81.667L101.506,81.667L101.574,82.667L101.643,82.167L101.711,80L101.78,75.5L101.848,74.833L101.916,73.333L101.985,72.5L102.053,73.833L102.122,75.5L102.19,74L102.259,71.833L102.327,69.167L102.396,71L102.464,71L102.533,71.667L102.601,71.833L102.669,72L102.738,71L102.806,72.333L102.875,73L102.943,74.833L103.012,77.5L103.08,78.5L103.149,77.5L103.217,78.667L103.285,78.667L103.354,80.333L103.422,81.167L103.491,82L103.559,82.5L103.628,81.667L103.696,82.667L103.765,84L103.833,88.833L103.901,91.333L103.97,94.5L104.038,96.5L104.107,97.333L104.175,97.167L104.244,99.667L104.312,102.5L104.381,106.333L104.449,107.833L104.517,110L104.586,110.5L104.651,111.833L104.72,113L104.788,114.667L104.857,116.667L104.925,118.5L104.994,119.833L105.062,120.5L105.131,120L105.199,120.167L105.268,120.667L105.336,122.833L105.404,124.5L105.473,124.5L105.541,125.5L105.61,126L105.678,128L105.747,127.833L105.815,128.667L105.884,128.667L105.952,128.333L106.02,127.5L106.089,127L106.157,127.5L106.226,128.333L106.294,127.833L106.363,127.167L106.431,126.667L106.5,126L106.568,125.833L106.636,126.333L106.705,125.667L106.773,126.333L106.842,126.333L106.91,126.167L106.979,125.667L107.047,123.833L107.116,123.333L107.184,123.667L107.252,123.333L107.321,122.833L107.389,122L107.458,122L107.526,121.667L107.595,121.333L107.663,120.167L107.732,117.667L107.8,117.333L107.868,116.833L107.937,116.333L108.005,115.833L108.074,114.667L108.142,113.5L108.211,113.333L108.279,111.667L108.348,110.5L108.416,109.333L108.484,109.333L108.553,108.167L108.621,106L108.69,104.833L108.758,103.833L108.827,102.333L108.895,101.333L108.964,99L109.032,97.833L109.101,96.833L109.169,94L109.237,91.833L109.306,92.167L109.374,91L109.443,90.167L109.511,87.667L109.58,83.333L109.648,81.5L109.717,82.833L109.785,84.333L109.853,83.167L109.922,81.167L109.99,80.5L110.059,79.167L110.127,78.833L110.196,78.667L110.264,77.5L110.333,76.167L110.401,75.667L110.469,75.5L110.538,74.333L110.606,75.167L110.675,76.167L110.743,75L110.812,74.333L110.88,71.833L110.949,70.5L111.017,70L111.085,67L111.154,64.833L111.222,64.333L111.291,61.333L111.359,55.833L111.428,53.5L111.496,50L111.565,50.5L111.633,54.333L111.701,54.667L111.77,51L111.838,47.833L111.907,46.5L111.975,45.833L112.044,46.167L112.112,46.167L112.181,47.167L112.249,47.5L112.317,46.5L112.386,45.833L112.454,44.333L112.523,44.333L112.591,44.5L112.66,43.167L112.728,43L112.797,42.667L112.865,41.5L112.933,41.833L113.002,43L113.07,45.833L113.139,48.667L113.207,51.167L113.276,50.667L113.344,53.833L113.413,58L113.481,59.667L113.55,63.167L113.618,64.167L113.686,64.333L113.755,63.833L113.823,65.167L113.892,68.5L113.96,68.167L114.029,70.5L114.097,68.167L114.166,67.833L114.234,66.333L114.302,65.5L114.371,66L114.439,65.667L114.508,66.5L114.576,67.333L114.645,65.833L114.713,65.333L114.782,64.333L114.85,65L114.918,65.667L114.987,67.667L115.055,68.667L115.124,67.833L115.192,68.5L115.261,69.333L115.329,71L115.398,69.833L115.466,70.833L115.534,72.167L115.603,71.333L115.671,69.833L115.74,68.5L115.808,67.667L115.877,69.333L115.945,69.5L116.014,72.167L116.082,69.833L116.15,70.667L116.219,70.5L116.287,70.667L116.356,70.667L116.424,71.667L116.493,74.167L116.561,75.333L116.63,72.833L116.698,74.333L116.766,75.167L116.835,76.333L116.903,77.167L116.972,78.333L117.04,76.5L117.109,74L117.177,73L117.246,71.833L117.314,72.167L117.383,74L117.451,76.667L117.519,76.333L117.588,75.5L117.656,76.167L117.725,78L117.793,79.333L117.862,80.833L117.93,80.5L117.999,78.5L118.067,77.5L118.135,78.833L118.204,80L118.272,81.333L118.341,83L118.409,84.333L118.478,82.833L118.546,82.333L118.615,80.833L118.683,81.833L118.751,82.167L118.82,83.5L118.888,81.167L118.957,79.833L119.025,78.5L119.094,79L119.162,79.667L119.231,78.333L119.299,79.833L119.367,79.667L119.436,77.333L119.504,75.667L119.573,76L119.641,76.167L119.71,76.833L119.778,76.5L119.847,76.167L119.915,75L119.983,73.5L120.052,73.333L120.12,73.5L120.189,75.167L120.257,75.5L120.326,76.5L120.394,74.333L120.463,72.667L120.531,73L120.599,73.5L120.668,75.667L120.736,71.833L120.805,70.5L120.873,67L120.945,67.667L121.013,68L121.081,68.167L121.15,68.167L121.218,69.833L121.287,72.667L121.355,71.5L121.424,69.667L121.492,70.5L121.561,71.333L121.629,70.833L121.697,72.167L121.766,71.5L121.834,70.333L121.903,70L121.971,71.5L122.04,72.5L122.108,72.667L122.177,73.167L122.245,71.667L122.313,70.667L122.382,68.667L122.45,69.333L122.519,70.5L122.587,72.667L122.656,72.833L122.724,72.667L122.793,76.5L122.861,77.5L122.93,80.5L122.998,82.167L123.066,84.167L123.135,85.667L123.203,87.667L123.272,87.5L123.34,87.167L123.409,87.167L123.477,88.667L123.546,88L123.614,88.833L123.682,88.667L123.751,87.167L123.819,87.333L123.888,88.167L123.956,87L124.025,87.333L124.093,88.167L124.162,90.167L124.23,90.833L124.298,91.167L124.367,91.833L124.435,93.167L124.504,93.5L124.572,93L124.641,91.333L124.709,90.167L124.778,89.667L124.846,89.333L124.914,89.333L124.983,88.833L125.051,88.333L125.12,87.833L125.188,87.167L125.257,85.5L125.325,84.333L125.394,82L125.462,81.167L125.53,81.5L125.599,83.333L125.667,80.667L125.736,82.333L125.804,82.333L125.873,82.833L125.941,83.333L126.01,86.167L126.078,85.833L126.146,85.833L126.215,85.5L126.283,84.167L126.352,84.333L126.42,85L126.489,85.5L126.557,86.333L126.626,86.333L126.694,87L126.762,88.5L126.831,89.5L126.899,90.667L126.968,90.5L127.036,91L127.105,89.167L127.173,87.667L127.242,87.333L127.31,88.167L127.379,88.333L127.447,90.167L127.515,91.667L127.584,90.667L127.652,89L127.721,91.333L127.789,90.333L127.858,92L127.926,91L127.995,91.167L128.063,89.167L128.131,89.5L128.2,88.167L128.268,87.333L128.337,88.5L128.405,89.833L128.474,89.833L128.542,88.667L128.611,89.333L128.679,89.667L128.747,89L128.816,87.167L128.884,84.5L128.953,85.333L129.021,84.167L129.09,82.5L129.158,84.167L129.227,85.333L129.295,87L129.363,87L129.432,88.833L129.5,86.667L129.569,86.333L129.637,88.167L129.706,89.333L129.774,88L129.843,88.333L129.911,88.167L129.979,88.667L130.045,87.5L130.114,86.833L130.182,86.833L130.25,88L130.319,89.333L130.387,88.333L130.456,87.5L130.524,87.167L130.593,86.833L130.661,85.167L130.73,86.667L130.798,87.667L130.866,89.333L130.935,91.167L131.003,90.333L131.072,92L131.14,93.167L131.209,93.333L131.277,92.333L131.346,91.833L131.414,91.667L131.482,90L131.551,92.833L131.619,93.5L131.688,92.833L131.756,94L131.825,96.5L131.893,95.667L131.962,94L132.03,94.833L132.098,94.667L132.167,96L132.235,97.333L132.304,98.333L132.372,98L132.441,98.333L132.509,98.333L132.578,96.167L132.646,96.5L132.714,96.667L132.783,94.167L132.851,92.667L132.92,91.833L132.988,92L133.057,93.167L133.125,93.167L133.194,93.833L133.262,94.5L133.33,95.833L133.399,93.667L133.467,93.833L133.536,93.333L133.604,89.833L133.673,87.833L133.741,87.333L133.81,83.333L133.878,80.167L133.946,78.5L134.015,76.5L134.083,75.167L134.152,75.833L134.22,75.833L134.289,73.167L134.357,71.167L134.426,71.167L134.494,70.833L134.563,69.333L134.631,71.667L134.699,73L134.768,72L134.836,71.5L134.905,70.5L134.973,70.167L135.042,69.333L135.11,69.167L135.179,69.167L135.247,67.333L135.315,65.833L135.384,57.167L135.452,58L135.521,58.333L135.589,59.333L135.658,62.5L135.726,63L135.795,61.5L135.863,63.667L135.931,64.833L136,65.333L136.068,66.333L136.137,67L136.205,63.333L136.274,63.333L136.342,62.667L136.411,62L136.479,58.167L136.547,58L136.616,57.5L136.684,56.5L136.753,54.833L136.821,54.5L136.89,51.833L136.958,51.833L137.027,53.167L137.095,53.333L137.163,50.667L137.232,51L137.3,51.5L137.369,50.667L137.437,56.667L137.506,57.167L137.574,57.667L137.643,54.833L137.711,53.5L137.779,53.333L137.848,55.167L137.916,55L137.985,56L138.053,57.5L138.122,59.333L138.19,59.167L138.259,62.167L138.327,61L138.396,61.667L138.464,63L138.532,66L138.601,66.667L138.669,67L138.738,67.833L138.806,68.167L138.875,69.833L138.943,74.5L139.012,76.333L139.08,74.333L139.148,74.833L139.217,76.167L139.285,75.167L139.354,75L139.422,75.333L139.491,77.333L139.559,73.5L139.628,69.667L139.696,71.167L139.764,67.833L139.833,61.833L139.901,55.667L139.97,54.833L140.038,50.833L140.107,45L140.175,40.167L140.244,36.333L140.312,33.667L140.38,34.333L140.449,32.667L140.517,27.833L140.586,25L140.654,18.833L140.723,16.333L140.791,12L140.86,11.667L140.928,12.5L140.996,8.5L141.065,7.167L141.133,6.333L141.202,6.167L141.27,6.833L141.339,7.5L141.407,9.167L141.476,9.5L141.544,9.333L141.612,13.167L141.681,15L141.749,16.833L141.818,22.167L141.886,29.333L141.955,34.333L142.023,34.333L142.092,36.5L142.16,42.667L142.228,46.167L142.297,50.5L142.365,53.833L142.434,53L142.502,52.833L142.571,53.833L142.639,57.167L142.708,61.667L142.776,64.333L142.845,68.167L142.913,67.167L142.981,66.833L143.05,70.167L143.118,70.333L143.187,73.333L143.255,74L143.324,73.167L143.392,71L143.461,68.5L143.529,68.5L143.597,68.5L143.666,68.667L143.734,70.667L143.803,70L143.871,67.5L143.94,67L144.008,65.5L144.077,64.667L144.145,65.667L144.213,66.5L144.282,67.833L144.35,68.333L144.419,68.333L144.487,69.167L144.556,72.333L144.624,74.833L144.693,75L144.761,77.333L144.829,77L144.898,75.667L144.966,77L145.035,75.333L145.103,74.167L145.172,74.833L145.24,73.667L145.309,71.167L145.377,71L145.445,73.833L145.514,76.167L145.582,76.833L145.651,77L145.719,77.333L145.788,74L145.856,72.5L145.925,71.833L145.993,71.833L146.061,73.833L146.13,75.833L146.198,77.333L146.267,75.5L146.338,76.333L146.407,74.833L146.475,75.5L146.543,76.167L146.612,76.167L146.68,77L146.749,74.667L146.817,75L146.886,76.5L146.954,78.167L147.023,78.333L147.091,80L147.159,82.667L147.228,82.333L147.296,83L147.365,85.5L147.433,87.333L147.502,86.167L147.57,86.167L147.639,87.833L147.707,87.667L147.775,88.5L147.844,91.5L147.912,93.167L147.981,96.667L148.049,98.333L148.118,99.667L148.186,100.333L148.255,98.833L148.323,99.167L148.392,98.333L148.46,100.167L148.528,99.667L148.597,99.833L148.665,98.333L148.734,97L148.802,97.667L148.871,97.333L148.939,97.333L149.008,97.167L149.076,97.667L149.144,97.833L149.213,96.167L149.281,97.333L149.35,96.833L149.418,97.5L149.487,97.333L149.555,99L149.624,98.833L149.692,97L149.76,97.167L149.829,96.333L149.897,96.667L149.966,97.167L150.034,96.333L150.103,95L150.171,95.167L150.24,94L150.308,93L150.376,94.167L150.445,93.833L150.513,93.833L150.582,92L150.65,90.667L150.719,91.167L150.787,90.833L150.856,91.833L150.924,91.667L150.992,91.833L151.061,91L151.129,90.333L151.198,89.5L151.266,88.667L151.335,88.167L151.403,89L151.472,88.667L151.54,87.5L151.608,87.167L151.677,83L151.745,81.667L151.814,80.5L151.882,80.333L151.951,79.5L152.019,76.333L152.088,75.333L152.156,73.333L152.225,71.333L152.293,71.833L152.361,73.833L152.43,72.833L152.498,71.5L152.567,69.167L152.635,71.833L152.704,73L152.772,73.167L152.841,76.167L152.909,77.167L152.977,75.833L153.046,75.333L153.114,76.333L153.183,76.833L153.251,76.5L153.32,77.333L153.388,77.5L153.457,73.5L153.525,71.667L153.593,69.833L153.662,69.667L153.73,73.5L153.799,76.5L153.867,77.5L153.936,75.5L154.004,75L154.073,77.667L154.141,78L154.209,80L154.278,81L154.346,82.833L154.415,82L154.483,80L154.552,81L154.62,81.5L154.689,79.667L154.757,80.333L154.825,81L154.894,78.167L154.96,77L155.028,76.333L155.096,75.833L155.165,75.5L155.233,75.5L155.302,76.5L155.37,76.167L155.439,75L155.507,79.167L155.576,80.333L155.644,81.667L155.712,80.833L155.781,80.5L155.849,79.333L155.918,79.167L155.986,80.5L156.055,80.5L156.123,80.333L156.192,80.333L156.26,80.167L156.328,79.667L156.397,79L156.465,79.167L156.534,81.833L156.602,81.667L156.671,81.333L156.739,82.167L156.808,81.833L156.876,82L156.944,85L157.013,86.667L157.081,88.667L157.15,90L157.218,90.333L157.287,89.833L157.355,89.167L157.424,88.833L157.492,90.833L157.56,89.333L157.629,89.667L157.697,90.333L157.766,90L157.834,88.833L157.903,88.667L157.971,89.5L158.04,91.5L158.108,91L158.176,88.5L158.245,87.5L158.313,86.667L158.382,86.167L158.45,85.167L158.519,84.167L158.724,83.833L158.792,84.667L158.861,84.833L158.929,84.667L158.998,84.333L159.066,84.167L159.135,83.833L159.203,82.833L159.272,82L159.34,81.667L159.409,82.833L159.477,83.333L159.545,84.167L159.614,85.5L159.682,84.167L159.751,83.333L159.819,82.833L159.888,83.5L159.956,81.833L160.025,83.333L160.093,83.5L160.161,82.667L160.23,80.833L160.298,81.667L160.367,83.833L160.435,84L160.504,84.5L160.572,86.167L160.641,85.833L160.709,85.333L160.777,83L160.846,82.667L160.914,82.333L160.983,82L161.051,81.167L161.12,79.667L161.188,79L161.257,78L161.325,76.833L161.393,77.167L161.462,76.5L161.53,77.5L161.599,75.5L161.667,74.5L161.736,73.333L161.804,74.667L161.873,73.667L161.941,73.333L162.009,75.5L162.078,73.167L162.146,71.5L162.215,70.5L162.283,70.5L162.352,70.667L162.42,70L162.489,70.833L162.557,70.833L162.625,70.333L162.694,71.167L162.762,72L162.831,74.5L162.899,74.667L162.968,74.333L163.036,71.333L163.105,69.333L163.173,64.667L163.242,62.5L163.31,62.833L163.378,64.833L163.447,65.167L163.515,64L163.584,63.167L163.652,63.167L163.721,63.667L163.789,64.833L163.858,65.167L163.926,65.333L163.994,64.5L164.063,64L164.131,66L164.2,68.333L164.268,69L164.337,68L164.405,69L164.474,69.5L164.542,68.833L164.61,67.333L164.679,65.5L164.747,66L164.816,67.667L164.884,68.333L164.953,67.833L165.021,69L165.09,70.167L165.158,71.833L165.226,77.833L165.295,79.333L165.363,80L165.432,77.167L165.5,75.667L165.569,75.833L165.637,75.5L165.706,77L165.774,77.167L165.842,77.833L165.911,76.167L165.979,76.333L166.048,76.5L166.116,76.167L166.185,76L166.253,75.667L166.322,76.167L166.39,76.5L166.458,74.333L166.527,73.5L166.595,74L166.664,76.333L166.732,79.167L166.801,79.167L166.869,78.167L166.938,74.5L167.006,74L167.074,72.667L167.143,75.167L167.211,76L167.28,75.5L167.348,76.667L167.417,75.333L167.485,78.333L167.554,78.833L167.622,79.5L167.691,80.5L167.759,80.667L167.827,80.167L167.896,78.333L167.964,79L168.033,79.833L168.101,79.833L168.17,81.167L168.238,82L168.307,79.833L168.375,80.5L168.443,81.833L168.512,83.167L168.58,84.333L168.649,85.333L168.717,85.333L168.786,83.167L168.854,82.833L168.923,82.5L168.991,84.5L169.059,86.667L169.128,87.167L169.196,87.167L169.265,86.5L169.333,87.167L169.402,86.333L169.47,86.667L169.539,85.833L169.607,85L169.675,84.667L169.744,83L169.812,81.667L169.881,81.667L169.949,82.333L170.018,83L170.086,83.167L170.155,83L170.223,82.5L170.291,81L170.36,80.167L170.428,81L170.497,81L170.565,80.667L170.634,80.667L170.702,79.5L170.771,78.5L170.839,78.333L170.907,77.333L170.976,77.167L171.044,78L171.113,77L171.181,77.167L171.253,76.167L171.321,77.167L171.389,76.5L171.458,76.667L171.526,77.5L171.595,77.333L171.663,77.667L171.732,76.833L171.8,76.667L171.869,76.833L171.937,77.833L172.005,78.5L172.074,78.833L172.142,77.167L172.211,76L172.279,74.833L172.348,75.667L172.416,77.167L172.485,74.333L172.553,74L172.621,71.667L172.69,68.167L172.758,66.333L172.827,64.333L172.895,65L172.964,65.833L173.032,66.5L173.101,66.333L173.169,65.667L173.238,66.833L173.306,67.167L173.374,67.167L173.443,68L173.511,68.5L173.58,65.833L173.648,64.833L173.717,65.833L173.785,67L173.854,67.667L173.922,67.667L173.99,67.333L174.059,67.5L174.127,65.333L174.196,66.667L174.264,67.667L174.333,67.833L174.401,69L174.47,71.167L174.538,71.167L174.606,69L174.675,70.167L174.743,74.167L174.812,75.667L174.88,77.333L174.949,78.833L175.017,78.5L175.086,77.333L175.154,76.5L175.222,77.167L175.291,76.5L175.359,77L175.428,75.333L175.496,73.333L175.565,72.333L175.633,73.833L175.702,75.5L175.77,74.5L175.838,73.833L175.907,74.167L175.975,76L176.044,76.167L176.112,75.833L176.181,77.333L176.249,77.5L176.318,78L176.386,80.167L176.454,78.833L176.523,77.167L176.591,78.667L176.66,79.833L176.728,82L176.797,82.5L176.865,84.5L176.934,85.333L177.002,82.667L177.07,82.5L177.139,82.5L177.207,81.833L177.276,80.167L177.344,81L177.413,79.833L177.481,80L177.55,80.167L177.618,79L177.687,80.333L177.755,79.833L177.823,81.167L177.892,82L177.96,82.167L178.029,80.333L178.097,80L178.166,79.5L178.234,81.167L178.303,79.833L178.371,78.667L178.439,76.167L178.508,75.333L178.576,75.667L178.645,76.333L178.713,78.333L178.782,77.833L178.85,76L178.919,74.667L178.987,75L179.055,75.333L179.124,74.5L179.192,74.333L179.261,75.167L179.329,76.333L179.398,75.5L179.466,76.167L179.535,77.167L179.603,77L179.671,80L179.74,81L179.808,80.167L179.874,79.667L179.942,78.667L180.011,77.333L180.079,78.333L180.148,79.333L180.216,79.667L180.285,78.333L180.353,78.5L180.422,79.833L180.49,80.667L180.558,80.5L180.627,81.667L180.695,80.833L180.764,79L180.832,77.833L180.901,79.667L180.969,79.833L181.038,78.833L181.106,79L181.174,79L181.243,75.5L181.311,71.833L181.38,69.667L181.448,68.5L181.517,67L181.585,67.167L181.654,69.167L181.722,65.833L181.79,62.5L181.859,61.333L181.927,60.167L181.996,58.5L182.064,59.167L182.133,58.833L182.201,56.667L182.27,56L182.338,54.333L182.406,53.833L182.475,53.5L182.543,54.333L182.612,55.5L182.68,51.5L182.749,49.667L182.817,49.667L182.886,50.167L182.954,48.167L183.022,47L183.091,47.5L183.159,47.333L183.228,47L183.296,51.333L183.365,54.333L183.433,56.667L183.502,58.333L183.57,61.167L183.638,60.333L183.707,58L183.775,59.833L183.844,61.667L183.912,64L183.981,63L184.049,63.667L184.118,60.333L184.186,59.667L184.255,60.167L184.323,59.833L184.391,61.5L184.46,63.167L184.528,63.333L184.597,62.333L184.665,60.667L184.734,61.667L184.802,61.167L184.871,58.333L184.939,57.167L185.007,57.667L185.076,57.167L185.144,53.5L185.213,53.167L185.281,54.167L185.35,53.167L185.418,53.833L185.487,54.833L185.555,53.5L185.623,52.667L185.692,50.5L185.76,50.167L185.829,47.5L185.897,48.667L185.966,47.333L186.034,47.667L186.103,44.333L186.171,40L186.239,36.5L186.308,35.333L186.376,35.667L186.445,36.167L186.513,32.333L186.582,29.333L186.65,27L186.719,25.667L186.787,24L186.855,23L186.924,21.667L186.992,17.5L187.061,15L187.129,12.5L187.198,14.5L187.266,14.833L187.335,13.5L187.403,14.833L187.471,11.833L187.54,9.167L187.608,8.5L187.677,7.5L187.745,8L187.814,9.333L187.882,10.833L187.951,6.333L188.019,6.667L188.087,7L188.156,10.5L188.224,16.167L188.293,21L188.361,22.333L188.43,21.833L188.498,19L188.567,20.167L188.635,22.833L188.704,27.333L188.772,29.833L188.84,33L188.909,33.167L188.977,35L189.046,36L189.114,39L189.183,43.667L189.251,44.333L189.32,43.833L189.388,42.5L189.456,39.5L189.525,39.5L189.593,41.167L189.662,42.667L189.73,42.333L189.799,45.667L189.867,46.5L189.936,45.833L190.004,47.5L190.072,45.167L190.141,45.167L190.209,45L190.278,47.167L190.346,44L190.415,43.833L190.483,43.167L190.552,45L190.62,45.5L190.688,44.833L190.757,42.167L190.825,40.5L190.894,39.167L190.962,39.667L191.031,42.333L191.099,45.167L191.168,46L191.236,42.667L191.304,42L191.373,42.667L191.441,44.333L191.51,46.167L191.578,48.833L191.647,47.333L191.715,45.167L191.784,39.5L191.852,35L191.92,29.833L191.989,28.833L192.057,28.667L192.126,32.667L192.194,33.833L192.263,32.167L192.331,30.333L192.4,30L192.468,28.667L192.537,29.333L192.605,29.667L192.673,29.833L192.742,27.667L192.81,25L192.879,26.667L192.947,27.5L193.016,29.333L193.084,30.5L193.153,32.667L193.221,29.167L193.289,30.167L193.358,29.667L193.426,28.667L193.495,29L193.563,29.5L193.632,29.667L193.7,28.167L193.769,27L193.837,31.833L193.905,34.333L193.974,38.667L194.042,41.833L194.111,44L194.179,42.5L194.248,41.833L194.316,43.333L194.385,44.833L194.453,46.833L194.521,47.667L194.59,48.833L194.658,45.667L194.727,44.667L194.795,45.5L194.864,46.833L194.932,46.167L195.001,46.833L195.069,46.5L195.137,40.833L195.206,39.167L195.274,41.333L195.343,42.167L195.411,43.667L195.48,45.5L195.548,47.667L195.617,46L195.685,45.5L195.753,45.167L195.822,45.5L195.89,44.5L195.959,44.333L196.027,44.833L196.096,43.167L196.167,41.667L196.235,41L196.304,39.667L196.372,41.333L196.441,40.667L196.509,41.833L196.578,39.5L196.646,35.5L196.715,37.833L196.783,38.333L196.851,33.167L196.92,35.833L196.988,37.167L197.057,36.5L197.125,34.333L197.194,37L197.262,35.833L197.331,34.5L197.399,35L197.467,36.333L197.536,37.833L197.604,35.833L197.673,36.5L197.741,35.333L197.81,37.833L197.878,39.333L197.947,43L198.015,43.667L198.084,41.833L198.152,41L198.22,39.667L198.289,38.333L198.357,40.833L198.426,41.333L198.494,41.667L198.563,39.333L198.631,40.833L198.7,43L198.768,42.167L198.836,44L198.905,50.167L198.973,48.833L199.042,48.167L199.11,47.667L199.179,48.667L199.247,50L199.316,52.5L199.384,53.667L199.452,51.167L199.521,46.167L199.589,42.167L199.658,40.333L199.726,40.667L199.795,42.333L199.863,44.167L199.932,45.833L200,44.5L200.068,44L200.137,44.833L200.205,46.667L200.274,49L200.342,51L200.411,49.5L200.479,46.667L200.548,43.667L200.616,43.833L200.684,45.167L200.753,46.5L200.821,48.833L200.89,47.5L200.958,50L201.027,51L201.095,50.667L201.164,52.167L201.232,55.167L201.3,56.667L201.369,55L201.437,52.667L201.506,53.5L201.574,57.167L201.643,59.667L201.711,63L201.78,64.833L201.848,64L201.916,62.333L201.985,61.667L202.053,60.5L202.122,61.667L202.19,64L202.259,65.333" stroke="#4c78a8" stroke-width="2"/></g><g class="mark-group role-title"><g transform="translate(100,-22)"><path class="background" aria-hidden="true" d="M0,0h0v0h0Z" pointer-events="none"/><g><g class="mark-text role-title-text" role="graphics-symbol" aria-roledescription="title" aria-label="Title text 'Elevator: Elevator - Multiple Devices On Property'" pointer-events="none"><text text-anchor="middle" transform="translate(0,10)" font-family="sans-serif" font-size="13px" font-weight="bold" fill="#000" opacity="1">Elevator: Elevator - Multiple Devices On Property</text></g></g><path class="foreground" aria-hidden="true" d="" pointer-events="none" display="none"/></g></g></g><path class="foreground" aria-hidden="true" d="" display="none"/></g></g></g><defs><clipPath id="clip145"><rect x="0" y="0" width="200" height="150"/></clipPath></defs></svg>