<svg xmlns="http://www.w3.org/2000/svg" xmlns:xlink="http://www.w3.org/1999/xlink" version="1.1" class="marks" width="230" height="199" viewBox="0 0 230 199"><rect width="230" height="199" fill="white"/><g fill="none" stroke-miterlimit="10" transform="translate(24,27)"><g class="mark-group role-frame root" role="graphics-object" aria-roledescription="group mark container"><g transform="translate(0,0)"><path class="background" aria-hidden="true" d="M0,0h200v150h-200Z"/><g><g class="mark-group role-axis" aria-hidden="true"><g transform="translate(0.5,0.5)"><path class="background" aria-hidden="true" d="M0,0h0v0h0Z" pointer-events="none"/><g><g class="mark-rule role-axis-grid" pointer-events="none"><line transform="translate(0,150)" x2="200" y2="0" stroke="#ddd" stroke-width="1" opacity="1"/><line transform="translate(0,113)" x2="200" y2="0" stroke="#ddd" stroke-width="1" opacity="1"/><line transform="translate(0,75)" x2="200" y2="0" stroke="#ddd" stroke-width="1" opacity="1"/><line transform="translate(0,38)" x2="200" y2="0" stroke="#ddd" stroke-width="1" opacity="1"/><line transform="translate(0,0)" x2="200" y2="0" stroke="#ddd" stroke-width="1" opacity="1"/></g></g><path class="foreground" aria-hidden="true" d="" pointer-events="none" display="none"/></g></g><g class="mark-group role-axis" role="graphics-symbol" aria-roledescription="axis" aria-label="X-axis for a time scale with values from Friday, 01 January 2016, 12:00:00 AM to Monday, 01 January 2024, 12:00:00 AM"><g transform="translate(0.5,150.5)"><path class="background" aria-hidden="true" d="M0,0h0v0h0Z" pointer-events="none"/><g><g class="mark-rule role-axis-tick" pointer-events="none"><line transform="translate(0,0)" x2="0" y2="5" stroke="#888" stroke-width="1" opacity="1"/><line transform="translate(50,0)" x2="0" y2="5" stroke="#888" stroke-width="1" opacity="1"/><line transform="translate(100,0)" x2="0" y2="5" stroke="#888" stroke-width="1" opacity="1"/><line transform="translate(150,0)" x2="0" y2="5" stroke="#888" stroke-width="1" opacity="1"/><line transform="translate(200,0)" x2="0" y2="5" stroke="#888" stroke-width="1" opacity="1"/></g><g class="mark-text role-axis-label" pointer-events="none"><text text-anchor="start" transform="translate(0,15)" font-family="sans-serif" font-size="10px" fill="#000" opacity="1">2016</text><text text-anchor="middle" transform="translate(50.03422313483915,15)" font-family="sans-serif" font-size="10px" fill="#000" opacity="1">2018</text><text text-anchor="middle" transform="translate(100,15)" font-family="sans-serif" font-size="10px" fill="#000" opacity="1">2020</text><text text-anchor="middle" transform="translate(150.03422313483915,15)" font-family="sans-serif" font-size="10px" fill="#000" opacity="1">2022</text><text text-anchor="end" transform="translate(200,15)" font-family="sans-serif" font-size="10px" fill="#000" opacity="1">2024</text></g><g class="mark-rule role-axis-domain" pointer-events="none"><line transform="translate(0,0)" x2="200" y2="0" stroke="#888" stroke-width="1" opacity="1"/></g></g><path class="foreground" aria-hidden="true" d="" pointer-events="none" display="none"/></g></g><g class="mark-group role-axis" role="graphics-symbol" aria-roledescription="axis" aria-label="Y-axis for a linear scale with values from 0 to 20"><g transform="translate(0.5,0.5)"><path class="background" aria-hidden="true" d="M0,0h0v0h0Z" pointer-events="none"/><g><g class="mark-rule role-axis-tick" pointer-events="none"><line transform="translate(0,150)" x2="-5" y2="0" stroke="#888" stroke-opacity="0" stroke-width="1" opacity="1"/><line transform="translate(0,113)" x2="-5" y2="0" stroke="#888" stroke-opacity="0" stroke-width="1" opacity="1"/><line transform="translate(0,75)" x2="-5" y2="0" stroke="#888" stroke-opacity="0" stroke-width="1" opacity="1"/><line transform="translate(0,38)" x2="-5" y2="0" stroke="#888" stroke-opacity="0" stroke-width="1" opacity="1"/><line transform="translate(0,0)" x2="-5" y2="0" stroke="#888" stroke-opacity="0" stroke-width="1" opacity="1"/></g><g class="mark-text role-axis-label" pointer-events="none"><text text-anchor="end" transform="translate(-7,153)" font-family="sans-serif" font-size="10px" fill="#000" opacity="1">0</text><text text-anchor="end" transform="translate(-7,115.5)" font-family="sans-serif" font-size="10px" fill="#000" opacity="1">5</text><text text-anchor="end" transform="translate(-7,78)" font-family="sans-serif" font-size="10px" fill="#000" opacity="1">10</text><text text-anchor="end" transform="translate(-7,40.5)" font-family="sans-serif" font-size="10px" fill="#000" opacity="1">15</text><text text-anchor="end" transform="translate(-7,3)" font-family="sans-serif" font-size="10px" fill="#000" opacity="1">20</text></g></g><path class="foreground" aria-hidden="true" d="" pointer-events="none" display="none"/></g></g><g class="mark-line role-mark marks" clip-path="url(#clip146)" role="graphics-object" aria-roledescription="line mark container"><path aria-label="day: Jun 03, 2010; avg: 7.56666666667" role="graphics-symbol" aria-roledescription="line mark" d="M-139.496,93.25L-139.428,93.5L-139.359,94.5L-139.291,94.75L-139.223,94.25L-139.154,93.75L-139.086,95L-139.017,94.5L-138.949,96.5L-138.88,98.5L-138.812,98L-138.743,97.75L-138.675,98L-138.607,99.25L-138.538,99.25L-138.47,100.75L-138.401,102.75L-138.333,105.75L-138.264,106L-138.196,108.75L-138.127,107.75L-138.059,105.25L-137.991,103.75L-137.922,104.75L-137.854,103.25L-137.785,102.75L-137.717,101L-137.648,101.25L-137.58,100.5L-137.511,102L-137.443,103L-137.375,103.5L-137.306,101L-137.238,99L-137.169,98.5L-137.101,96.75L-137.032,95L-136.964,97L-136.895,95.75L-136.827,94.25L-136.758,95.5L-136.69,95.75L-136.622,94.75L-136.553,95.5L-136.485,96.75L-136.416,96L-136.348,95.5L-136.279,94.5L-136.211,93L-136.142,93.5L-136.074,93.5L-136.006,97.25L-135.937,99.5L-135.869,99L-135.8,100.25L-135.732,100.75L-135.663,101.25L-135.595,100.25L-135.526,101L-135.458,101.25L-135.39,99.75L-135.321,99.25L-135.253,101L-135.184,102.25L-135.116,103L-135.047,105.75L-134.979,108.5L-134.91,106.5L-134.842,106L-134.774,107.75L-134.705,107L-134.637,107.75L-134.568,110.25L-134.5,109.5L-134.431,106.75L-134.363,104.25L-134.294,100L-134.226,98.5L-134.158,98.5L-134.089,98L-134.021,98.25L-133.952,97.5L-133.884,96.5L-133.815,95.75L-133.747,94.75L-133.678,94.5L-133.61,95.5L-133.542,97.25L-133.473,97.5L-133.405,96.25L-133.336,97.75L-133.268,94.5L-133.199,94.75L-133.131,94.25L-133.062,94.25L-132.994,91.5L-132.926,89.75L-132.857,89L-132.789,88.5L-132.72,88.75L-132.652,88.75L-132.583,88L-132.515,87.5L-132.446,84.25L-132.378,82.5L-132.309,84.5L-132.241,88.75L-132.173,91L-132.104,92.25L-132.036,90.75L-131.967,91L-131.899,90.5L-131.83,89.25L-131.762,90L-131.693,91.25L-131.625,91.25L-131.557,89.75L-131.488,89L-131.42,88.25L-131.351,86L-131.283,85.5L-131.214,89L-131.146,88.5L-131.077,89.5L-131.009,86.75L-130.941,87.25L-130.872,86L-130.804,87.5L-130.735,90.25L-130.667,89.75L-130.598,90L-130.53,90.25L-130.461,90.75L-130.393,93.5L-130.325,97.5L-130.256,95.25L-130.188,94.25L-130.119,93.5L-130.051,92L-129.982,92.25L-129.914,92.5L-129.845,93.25L-129.777,94.75L-129.709,95.25L-129.64,95L-129.572,93.25L-129.503,95.25L-129.435,96L-129.366,97L-129.298,100.25L-129.229,100.5L-129.161,99.5L-129.093,99.5L-129.024,98.5L-128.956,101.75L-128.887,104L-128.819,104.75L-128.75,105L-128.679,104.25L-128.611,103.75L-128.542,102.5L-128.474,102.5L-128.405,102.5L-128.337,103.5L-128.268,103.5L-128.2,106.25L-128.131,104.5L-128.063,105L-127.995,106.75L-127.926,108.5L-127.858,108.25L-127.721,108.5L-127.652,106.5L-127.584,106.5L-127.515,106.5L-127.447,96.5L-127.379,90.5L-127.31,89.25L-127.242,86.5L-127.173,86.75L-127.105,86.75L-127.036,87.5L-126.968,87.75L-126.899,88.5L-126.831,88.75L-126.762,88.75L-126.694,90.5L-126.626,91.25L-126.557,91.5L-126.489,92.5L-126.42,94.5L-126.352,94.25L-126.283,93L-126.215,93.75L-126.146,94.5L-126.078,95L-126.01,96.5L-125.941,97L-125.804,96.5L-125.736,96.75L-125.667,97L-125.599,97.75L-125.53,100.25L-125.394,99.25L-125.325,98.75L-125.257,108.5L-125.188,110.75L-125.12,111.5L-125.051,113.75L-124.983,108L-124.914,107.25L-124.846,107.25L-124.778,104L-124.709,101.75L-124.641,100.5L-124.572,100.25L-124.504,99.25L-124.367,97.25L-124.298,96.5L-124.23,94.5L-124.162,93.25L-124.093,94L-124.025,95.25L-123.956,93.75L-123.888,91.75L-123.819,91.75L-123.751,92.5L-123.682,91.5L-123.614,92.25L-123.546,92.25L-123.477,93L-123.409,91.5L-123.34,92L-123.272,93.25L-123.203,94.5L-123.135,97L-123.066,99.25L-122.998,99.25L-122.93,100.25L-122.861,106L-122.793,107.5L-122.724,107.75L-122.656,111.5L-122.587,113L-122.519,112.5L-122.45,113.25L-122.382,114.25L-122.313,116.25L-122.245,117.5L-122.177,118.5L-122.108,118L-122.04,117.75L-121.971,116.5L-121.903,117.5L-121.834,118.5L-121.766,117.75L-121.697,117.5L-121.629,118.25L-121.561,117.25L-121.287,116.25L-121.218,115.75L-121.081,117L-121.013,115.5L-120.945,115L-120.876,115.75L-120.808,115.75L-120.739,116.5L-120.671,116.5L-120.602,114.75L-120.534,114L-120.465,112.25L-120.397,111.75L-120.329,111.25L-120.26,111.75L-120.192,113.75L-120.058,112.75L-119.989,113L-119.921,112.25L-119.852,111.75L-119.784,113L-119.715,113.25L-119.647,113.75L-119.578,114.5L-119.51,112.75L-119.442,113L-119.373,113L-119.305,114.25L-119.236,115L-119.099,115.75L-119.031,117.25L-118.962,117.25L-118.894,115L-118.826,114.25L-118.757,112.75L-118.689,111.75L-118.62,111.75L-118.552,112L-118.483,112.25L-118.415,112.75L-118.346,113.75L-118.278,113.5L-118.21,113.25L-118.141,113.5L-118.073,113.25L-118.004,112.25L-117.936,111.75L-117.867,111.75L-117.799,112.75L-117.73,113L-117.662,112.25L-117.594,112.75L-117.525,111L-117.457,109.75L-117.388,108.25L-117.32,107.5L-117.251,108L-117.183,107L-117.114,104.75L-117.046,103.25L-116.978,100.5L-116.909,98L-116.841,100.25L-116.772,102.25L-116.704,101.25L-116.635,101.75L-116.567,101.5L-116.498,100.25L-116.43,100.5L-116.362,99.5L-116.293,98.5L-116.225,99.75L-116.156,100L-116.088,99L-116.019,97.5L-115.951,97.75L-115.882,98.75L-115.814,98.5L-115.745,97.25L-115.677,96.75L-115.609,95.75L-115.54,92.25L-115.472,92.25L-115.403,93.25L-115.335,96.5L-115.266,97L-115.198,96.5L-115.129,96.25L-115.061,96.25L-114.993,96.75L-114.924,99L-114.856,101.5L-114.787,101.5L-114.719,100L-114.65,102.5L-114.582,100L-114.513,98.5L-114.445,100.25L-114.377,100.75L-114.308,101.5L-114.24,102.5L-114.171,103L-114.103,102L-114.034,100.5L-113.966,102L-113.897,102.25L-113.829,102.25L-113.761,102.25L-113.692,102.75L-113.624,103.5L-113.555,103.25L-113.487,108.25L-113.418,109.25L-113.35,106.5L-113.281,106.5L-113.213,104L-113.145,104.75L-113.076,106L-113.008,108L-112.939,109L-112.871,108.75L-112.802,108.25L-112.734,104.5L-112.665,93.5L-112.597,93.75L-112.529,95.5L-112.46,96.75L-112.392,94.25L-112.323,93.25L-112.255,91.5L-112.186,91L-112.118,91.5L-112.049,92L-111.981,92L-111.913,91.5L-111.844,90.25L-111.776,86.25L-111.707,85.75L-111.639,86L-111.57,85L-111.433,86L-111.365,85.5L-111.296,86L-111.228,87.25L-111.16,84.5L-111.091,85L-111.023,85.25L-110.954,84L-110.886,82.5L-110.817,82.25L-110.749,83L-110.68,84.25L-110.612,86.25L-110.544,98L-110.475,97.5L-110.407,97.5L-110.338,96.75L-110.27,98.25L-110.201,99.5L-110.133,102.5L-110.064,100L-109.996,96.75L-109.928,91.25L-109.859,93.75L-109.791,95.25L-109.722,94.75L-109.654,97.5L-109.585,97L-109.517,95L-109.448,93.25L-109.38,91.75L-109.312,90.25L-109.243,87.75L-109.175,88.5L-109.106,89.25L-109.038,89.5L-108.969,86.75L-108.901,87L-108.832,88L-108.764,87.75L-108.627,86.25L-108.559,86L-108.49,87.25L-108.422,88L-108.353,88.25L-108.285,88.5L-108.216,88.5L-108.148,87.75L-108.08,85.75L-108.011,83.75L-107.943,85.75L-107.806,88.25L-107.737,95L-107.669,92.25L-107.6,90.75L-107.532,92.75L-107.463,91.75L-107.395,92.5L-107.327,94.75L-107.258,97.5L-107.19,99L-107.121,100L-107.053,102.25L-106.984,102.25L-106.916,103.75L-106.847,105.5L-106.779,107.25L-106.711,106.25L-106.642,105L-106.574,102L-106.505,103.5L-106.437,103.75L-106.368,103.5L-106.3,103.25L-106.163,103.5L-106.095,104L-106.026,104.5L-105.958,106L-105.889,107.75L-105.821,109.75L-105.752,109.75L-105.684,109.25L-105.615,109L-105.547,111.75L-105.479,103.5L-105.41,100.5L-105.342,103.25L-105.273,103.5L-105.205,100.25L-105.136,100L-105.068,98.25L-104.999,98.75L-104.931,99.25L-104.794,100.25L-104.726,99.5L-104.657,97.75L-104.589,94L-104.52,95L-104.452,96.75L-104.383,100.25L-104.315,98.25L-104.247,97.75L-104.178,97.75L-104.11,96.5L-104.041,96L-103.973,96.25L-103.904,96.75L-103.836,96L-103.765,94.75L-103.696,93.25L-103.628,93.75L-103.559,93.75L-103.491,94L-103.422,94.25L-103.354,102.75L-103.285,105.75L-103.217,104.25L-103.149,103.75L-103.08,106.75L-103.012,107.25L-102.943,109.5L-102.875,109.25L-102.806,109.5L-102.738,110L-102.669,111L-102.601,112L-102.533,116.75L-102.464,117.25L-102.396,117.25L-102.327,117.25L-102.259,119.25L-102.19,119.75L-102.122,119.75L-102.053,121.5L-101.985,122.5L-101.916,122.75L-101.848,123.25L-101.78,124.25L-101.711,125L-101.643,126.25L-101.574,126.75L-101.506,127L-101.437,126.75L-101.369,126L-101.3,126L-101.232,125.25L-101.164,126.25L-101.095,127.25L-101.027,125.75L-100.958,124.25L-100.89,123.75L-100.821,124.5L-100.753,124L-100.684,123.5L-100.616,124.25L-100.548,125.25L-100.479,125.5L-100.411,126L-100.342,125.75L-100.274,126.25L-100.205,126.25L-100.137,125.5L-100.068,126L-100,126L-99.932,125.75L-99.863,124.75L-99.795,124L-99.726,124L-99.658,124L-99.589,124.25L-99.452,124.25L-99.384,124.5L-99.316,123.75L-99.247,124.25L-99.179,125L-98.973,125.75L-98.905,126L-98.836,126.25L-98.768,127L-98.7,128.5L-98.631,129.5L-98.494,129L-98.426,128.5L-98.357,128.5L-98.289,127.5L-98.22,127.25L-98.152,127.25L-98.084,127L-98.015,127.25L-97.947,125.75L-97.81,125L-97.741,125L-97.604,125L-97.536,125L-97.467,125L-97.399,124.75L-97.331,125L-97.262,124L-97.125,124L-97.057,122.25L-96.988,122.5L-96.92,123.25L-96.851,123.5L-96.783,124L-96.509,124.25L-96.441,124L-96.372,122.5L-96.304,122L-96.235,122.75L-96.167,122L-96.099,121.25L-96.03,121.25L-95.962,121.75L-95.893,122.25L-95.825,122.75L-95.756,122.75L-95.688,121.25L-95.619,120.5L-95.551,118.5L-95.483,119.5L-95.414,120.5L-95.346,120.75L-95.277,121L-95.209,119.75L-95.143,120L-95.075,121.25L-95.006,121.75L-94.938,121.25L-94.869,122.25L-94.801,123.25L-94.732,122.5L-94.664,121.25L-94.596,120.25L-94.527,119.75L-94.459,120.25L-94.39,119.75L-94.253,120L-94.185,118.75L-94.116,118.25L-94.048,116.5L-93.98,115.75L-93.911,114.5L-93.774,113.75L-93.706,113L-93.637,112.75L-93.569,112L-93.5,113L-93.432,112.5L-93.364,114L-93.295,113.75L-93.227,112.75L-93.158,112L-93.09,110.5L-93.021,110.5L-92.953,109L-92.884,107.75L-92.816,101.25L-92.748,100.5L-92.679,97.75L-92.611,96.25L-92.542,94.5L-92.474,94.5L-92.337,96.25L-92.268,94.75L-92.2,93.75L-92.132,91.5L-92.063,90.75L-91.995,91.75L-91.926,92.5L-91.858,95L-91.789,96.25L-91.721,97.25L-91.652,96.25L-91.584,96L-91.516,95.75L-91.447,96L-91.379,95.75L-91.31,95.25L-91.242,95.25L-91.173,95.5L-91.105,92.25L-91.036,92.25L-90.968,93.5L-90.899,94L-90.831,94.5L-90.763,93.5L-90.694,99.5L-90.626,99.25L-90.557,99.75L-90.489,101.25L-90.42,104L-90.352,103.5L-90.283,101.5L-90.215,101.5L-90.147,101L-90.078,102.25L-90.01,104.25L-89.941,104.25L-89.873,103.25L-89.804,101.5L-89.736,101L-89.667,97.75L-89.599,96.75L-89.531,98L-89.462,98.75L-89.394,99L-89.325,98.75L-89.257,100.25L-89.188,99.5L-89.12,99.5L-89.051,102.5L-88.983,102.25L-88.915,101.75L-88.846,101.5L-88.778,101L-88.709,103.25L-88.641,102.5L-88.572,104.75L-88.504,106.75L-88.435,105.75L-88.367,104.75L-88.299,103L-88.23,103.75L-88.162,103L-88.093,101.25L-88.025,103L-87.956,101.25L-87.888,101.5L-87.819,101L-87.751,101.75L-87.683,102.25L-87.614,105.75L-87.546,108L-87.477,105.25L-87.409,102.75L-87.34,101.25L-87.272,99.75L-87.203,99.75L-87.067,100.5L-86.998,101L-86.93,101L-86.861,101.75L-86.793,101.25L-86.724,101L-86.656,100.75L-86.587,100.75L-86.519,101L-86.45,100L-86.382,99.25L-86.314,98.5L-86.245,98.5L-86.177,100.75L-86.108,101.75L-86.04,103.5L-85.971,106L-85.903,105L-85.834,105L-85.766,102L-85.698,99.25L-85.629,99.75L-85.561,98.25L-85.492,97L-85.424,97.5L-85.355,98.25L-85.287,99.75L-85.218,100.25L-85.15,102.75L-85.082,103L-85.013,103.5L-84.945,102L-84.876,101L-84.808,100.5L-84.739,101L-84.671,100L-84.602,99.75L-84.534,95.5L-84.466,94.5L-84.397,94L-84.329,94.75L-84.26,96.75L-84.192,97L-84.123,98L-84.055,96.25L-83.986,95L-83.918,93.5L-83.85,93.5L-83.781,95.5L-83.713,96.25L-83.644,99.75L-83.576,99.5L-83.507,98.25L-83.439,98.25L-83.37,96.25L-83.302,95.75L-83.234,96L-83.165,98L-83.097,96.75L-83.028,96.25L-82.96,94.25L-82.891,94.5L-82.823,96.75L-82.754,97.75L-82.686,97.5L-82.617,97.75L-82.549,96.75L-82.481,100.25L-82.412,101.75L-82.344,102.5L-82.275,102L-82.207,100L-82.138,100.25L-82.07,99.75L-82.001,91.5L-81.933,93.25L-81.865,94.75L-81.796,95L-81.728,94.5L-81.659,96.25L-81.591,96L-81.522,94.5L-81.454,97.25L-81.385,97.25L-81.317,98.75L-81.249,97.5L-81.18,95.5L-81.112,93.5L-81.043,94L-80.975,92.75L-80.906,89.75L-80.838,85.75L-80.769,79.75L-80.633,75L-80.564,72.75L-80.496,74.5L-80.427,74.5L-80.359,72.75L-80.29,71.5L-80.222,70.5L-80.153,68.75L-80.085,69.5L-80.017,69.25L-79.948,68L-79.88,76.75L-79.811,74.75L-79.743,73.75L-79.674,74.5L-79.606,75L-79.537,75.5L-79.469,76.25L-79.332,78L-79.264,77L-79.195,78L-79.127,77.25L-79.058,81L-78.99,84L-78.921,85.75L-78.85,85.75L-78.782,85.5L-78.713,89.5L-78.645,91.25L-78.576,91.75L-78.508,96.5L-78.439,98.25L-78.371,96.5L-78.303,98.5L-78.234,99L-78.166,100.25L-78.097,101.5L-78.029,103.75L-77.96,105.25L-77.892,103.5L-77.823,104.25L-77.755,105.5L-77.687,106.75L-77.618,107.75L-77.55,108.25L-77.481,108.25L-77.413,108.25L-77.344,107.75L-77.276,106.25L-77.207,107.5L-77.139,107.75L-77.07,108.75L-77.002,108.75L-76.934,108L-76.865,108.25L-76.797,108.75L-76.728,111L-76.66,111.25L-76.591,114L-76.523,117.75L-76.454,117.25L-76.386,115.75L-76.318,117.25L-76.249,118L-76.181,119.25L-76.112,119.25L-76.044,119L-75.975,118.25L-75.907,118.25L-75.838,120.75L-75.77,121.5L-75.702,120L-75.633,119L-75.496,117L-75.428,116.25L-75.359,115L-75.291,113.75L-75.222,113.75L-75.154,114.25L-75.086,113.75L-75.017,113.5L-74.88,114.25L-74.812,114L-74.743,114.5L-74.675,114.75L-74.606,114L-74.538,112.75L-74.47,113.25L-74.401,114L-74.333,115.25L-74.264,115.5L-74.196,118.25L-74.059,116.5L-73.99,115.25L-73.922,115.5L-73.854,115.5L-73.785,116.25L-73.58,117L-73.511,117L-73.443,116L-73.374,114L-73.306,116L-73.238,117.75L-73.169,120L-73.101,119.5L-73.032,119.5L-72.964,121L-72.895,121.75L-72.827,122.75L-72.758,122.75L-72.69,121.5L-72.621,121.25L-72.553,120.75L-72.485,120.25L-72.416,118.75L-72.348,119L-72.279,119L-72.211,117.75L-72.142,117L-72.074,116.5L-72.005,115.75L-71.937,116.25L-71.869,118L-71.8,118.25L-71.732,118.25L-71.595,118.75L-71.526,118.25L-71.458,117.25L-71.389,117.75L-71.321,118L-71.253,119.5L-71.184,119.25L-71.116,119.25L-71.047,119L-70.979,120L-70.91,120.75L-70.842,120L-70.773,120L-70.705,119.75L-70.637,118L-70.568,118.75L-70.5,118L-70.431,114L-70.363,113L-70.294,113.25L-70.229,112.25L-70.16,112.5L-70.092,113L-70.023,112.5L-69.955,112.5L-69.886,113.5L-69.818,113.5L-69.75,112.75L-69.681,113.75L-69.613,113.25L-69.544,112.25L-69.476,112.25L-69.407,112.75L-69.339,111.75L-69.27,111L-69.202,110L-69.134,109.25L-69.065,108L-68.997,105.5L-68.928,104.75L-68.86,104.5L-68.791,104.25L-68.723,102.25L-68.654,102L-68.586,102.5L-68.518,102.25L-68.449,101.5L-68.381,105.5L-68.312,106L-68.244,106.25L-68.175,106.75L-68.107,106.5L-68.038,107.5L-67.97,106L-67.902,104.75L-67.833,104.5L-67.765,104L-67.696,104.5L-67.628,102L-67.559,98L-67.491,98L-67.422,98.5L-67.354,97.25L-67.286,95.75L-67.217,95L-67.149,92.5L-67.08,92.75L-67.012,94.25L-66.943,97L-66.875,97L-66.806,96.25L-66.738,96L-66.67,94.25L-66.601,94L-66.533,95.5L-66.464,96L-66.396,96.5L-66.327,94L-66.259,94.25L-66.19,93.5L-66.122,93.75L-66.054,95L-65.985,94.5L-65.917,96.25L-65.848,97.75L-65.78,94.75L-65.711,92L-65.643,92.75L-65.574,95.25L-65.506,98.25L-65.437,98.25L-65.369,96.25L-65.301,94L-65.232,95.75L-65.164,96.75L-65.095,100L-65.027,99.25L-64.958,97.75L-64.89,97L-64.821,94.75L-64.753,95.5L-64.685,97L-64.616,100L-64.548,100L-64.479,96.75L-64.411,97.25L-64.342,98.5L-64.274,101.75L-64.205,102.75L-64.137,102.5L-64.069,102.5L-64,99.75L-63.863,99.75L-63.795,98.75L-63.726,99L-63.658,102.5L-63.589,105L-63.521,103.75L-63.453,103.25L-63.384,103.75L-63.316,101.75L-63.247,103.75L-63.179,106.75L-63.11,106.25L-63.042,107.25L-62.973,107.5L-62.905,108.5L-62.837,106.75L-62.768,107L-62.7,109.75L-62.631,109.75L-62.563,109L-62.494,109.5L-62.426,108L-62.357,109L-62.289,109.25L-62.221,108.25L-62.152,107.5L-62.084,105.75L-62.015,107.75L-61.947,107.5L-61.878,109L-61.81,109L-61.741,110.5L-61.673,109.75L-61.604,107.75L-61.536,100.25L-61.468,100.75L-61.399,101.25L-61.331,102L-61.262,104L-61.194,103L-61.125,102.75L-61.057,102.25L-60.988,101.25L-60.92,102.25L-60.852,101.75L-60.783,105L-60.715,103.25L-60.646,102.5L-60.578,102L-60.509,102.75L-60.441,103.25L-60.372,104.5L-60.304,105L-60.236,104.25L-60.167,104.5L-60.099,102.5L-60.03,103.25L-59.962,101.5L-59.825,102L-59.756,101.75L-59.62,99L-59.551,96.75L-59.483,98L-59.414,98.75L-59.346,106.25L-59.277,104.75L-59.209,104.25L-59.14,104L-59.072,103.25L-59.004,103.25L-58.935,104L-58.867,104.75L-58.798,105L-58.73,103.25L-58.661,104L-58.593,103.5L-58.524,106L-58.456,105.5L-58.388,105.75L-58.319,103L-58.182,102.25L-58.114,103.25L-58.045,105L-57.977,104.25L-57.908,105L-57.84,107.5L-57.772,107.5L-57.703,108L-57.635,107.25L-57.566,107.5L-57.498,108.25L-57.429,110.5L-57.361,110.25L-57.292,110.5L-57.224,109.5L-57.155,110.25L-57.087,108.25L-57.019,109L-56.95,110L-56.882,110.25L-56.813,110.75L-56.745,111.25L-56.676,112L-56.608,113.5L-56.539,113.75L-56.471,113.25L-56.403,112.5L-56.334,113.5L-56.266,114L-56.197,114.25L-56.129,111.5L-56.06,112L-55.992,111.75L-55.923,113.25L-55.855,112.5L-55.787,111.75L-55.718,112L-55.65,113.25L-55.581,114.75L-55.513,115L-55.444,116.75L-55.376,116.75L-55.307,116L-55.239,115L-55.171,116L-55.102,117.25L-55.034,119.25L-54.965,118.25L-54.828,118.25L-54.76,117.75L-54.691,116L-54.623,116L-54.555,115L-54.486,108L-54.418,104.25L-54.349,101.75L-54.281,102.5L-54.212,103L-54.144,103.5L-54.075,104.75L-54.007,107.25L-53.936,106.25L-53.867,106L-53.799,105.25L-53.73,105.75L-53.662,105.75L-53.593,106.25L-53.525,105.5L-53.457,101.5L-53.388,101.25L-53.32,101L-53.251,100.25L-53.183,101.25L-53.114,100L-53.046,100.25L-52.977,99.25L-52.909,98.5L-52.841,98L-52.772,98.75L-52.704,100L-52.635,99.25L-52.498,99.25L-52.43,100.5L-52.361,107L-52.293,110.25L-52.225,113.75L-52.156,114L-52.088,114.25L-52.019,114L-51.951,115L-51.882,115.75L-51.814,114.5L-51.745,113.25L-51.677,113L-51.608,112L-51.54,112.5L-51.472,112.75L-51.403,113.5L-51.335,117.5L-51.266,117.5L-51.198,117L-51.129,117.5L-51.061,114.5L-50.992,117.75L-50.924,88L-50.856,89L-50.787,88L-50.719,86.5L-50.65,86.25L-50.582,86.5L-50.513,88L-50.445,88L-50.376,86L-50.308,85.25L-50.103,84.75L-50.034,85L-49.897,83.5L-49.829,82.25L-49.76,81L-49.692,79.25L-49.624,75.5L-49.555,76L-49.487,78L-49.418,78.5L-49.35,77.75L-49.281,74.25L-49.213,73.75L-49.144,72L-49.076,71.25L-49.008,72.25L-48.939,73L-48.871,72.75L-48.802,73.75L-48.597,72.5L-48.528,101.5L-48.46,101L-48.392,103.5L-48.323,105L-48.255,104L-48.186,103L-48.118,103.5L-48.049,102.75L-47.981,104.25L-47.912,104.25L-47.844,104L-47.707,102.5L-47.639,102.25L-47.57,101.5L-47.502,102.5L-47.433,103.5L-47.365,106L-47.296,106.75L-47.228,105.75L-47.159,104.75L-47.091,106.5L-47.023,110.25L-46.954,110.75L-46.886,111.75L-46.817,109.5L-46.749,108L-46.68,108L-46.612,108.75L-46.543,109.5L-46.475,109.75L-46.407,110.75L-46.338,110.75L-46.27,108.75L-46.201,109.5L-46.133,109.25L-46.064,110L-45.996,108L-45.927,108L-45.722,106.5L-45.654,102.5L-45.585,102.75L-45.517,101.25L-45.448,102.75L-45.38,102.5L-45.314,103L-45.246,102.5L-45.177,100.75L-45.109,101.5L-45.04,102L-44.972,103L-44.904,99L-44.835,98.75L-44.767,98L-44.698,97L-44.63,99.75L-44.561,100.75L-44.493,101.5L-44.424,101.25L-44.356,102L-44.288,101.5L-44.219,99.25L-44.151,98.25L-44.082,97L-44.014,97L-43.945,96.5L-43.877,95L-43.808,95.75L-43.74,96.25L-43.672,96L-43.603,100.75L-43.535,99.75L-43.466,101.75L-43.398,99.75L-43.329,98.5L-43.261,95.5L-43.192,95.25L-43.124,95.75L-43.056,93.75L-42.987,91.5L-42.919,90.5L-42.85,91.25L-42.782,88.5L-42.713,87.5L-42.645,84L-42.576,84L-42.508,82.75L-42.44,80.75L-42.371,78L-42.303,75.75L-42.234,72.75L-42.166,73L-42.097,72.75L-42.029,75.5L-41.96,75L-41.892,73.75L-41.824,74.25L-41.755,74.25L-41.687,72.5L-41.618,73.25L-41.55,72.5L-41.481,71.25L-41.413,70.75L-41.344,71.75L-41.276,68.5L-41.208,70L-41.139,70.75L-41.071,71L-41.002,72L-40.934,72.25L-40.865,71.25L-40.797,72.25L-40.728,74.25L-40.66,75.5L-40.591,78.75L-40.523,77.25L-40.455,78.25L-40.386,79.25L-40.318,78.25L-40.249,79.25L-40.181,83.5L-40.112,85.75L-40.044,86.75L-39.975,84.25L-39.907,83.25L-39.839,81.75L-39.77,81.25L-39.702,81.5L-39.633,83.25L-39.565,84.75L-39.496,83.25L-39.428,84.75L-39.359,86.25L-39.291,87.25L-39.223,94L-39.154,94.5L-39.086,95L-39.017,97L-38.949,96.75L-38.88,95.5L-38.812,97L-38.743,99.5L-38.675,99.25L-38.607,99L-38.538,99.5L-38.47,99.75L-38.401,99.5L-38.333,99.75L-38.264,103.25L-38.196,103.5L-38.127,102L-38.059,100.5L-37.991,99.75L-37.922,101.25L-37.854,102.5L-37.785,105.75L-37.717,106.75L-37.648,108L-37.58,107.25L-37.511,105.5L-37.443,104.5L-37.375,105.75L-37.306,105.5L-37.238,104.25L-37.169,103L-37.101,102.5L-37.032,99.5L-36.964,98.5L-36.895,100L-36.827,102.5L-36.758,101.75L-36.69,101.75L-36.622,102L-36.553,101.5L-36.485,102L-36.416,102.75L-36.348,103.25L-36.279,103.75L-36.211,102.5L-36.142,102.5L-36.074,102L-36.006,102.75L-35.937,103.5L-35.869,104.25L-35.8,103L-35.732,103.25L-35.663,101.5L-35.595,100.25L-35.526,101L-35.458,102.5L-35.39,106.25L-35.253,104L-35.184,103.5L-35.116,100.75L-35.047,98L-34.979,98.75L-34.91,101.25L-34.842,100.75L-34.774,99L-34.705,97.5L-34.637,98L-34.568,94.5L-34.5,95.5L-34.431,96.5L-34.363,96L-34.294,94.25L-34.226,91L-34.158,86.25L-34.089,85L-34.021,82L-33.952,78.5L-33.884,78L-33.815,76.75L-33.747,76.5L-33.678,78L-33.61,78.25L-33.542,78.75L-33.473,80.5L-33.405,79.75L-33.336,78.25L-33.268,75.75L-33.199,76.75L-33.131,74.25L-33.062,78L-32.994,81L-32.926,80.5L-32.857,79.75L-32.789,80L-32.72,80L-32.652,79.25L-32.583,79.75L-32.515,83.25L-32.446,82L-32.378,81.5L-32.309,81.5L-32.241,82L-32.173,84L-32.104,88.75L-32.036,90.25L-31.967,91.75L-31.899,96.5L-31.83,95.75L-31.762,95L-31.693,95.25L-31.625,96L-31.557,95.25L-31.488,94L-31.42,94L-31.351,92.5L-31.283,90L-31.214,91.5L-31.146,93L-31.077,94.75L-31.009,93.75L-30.941,93L-30.872,92.25L-30.804,90.75L-30.735,90.75L-30.667,92L-30.598,94.75L-30.461,94.5L-30.393,91.25L-30.325,89.25L-30.256,88.75L-30.188,86L-30.119,88L-30.051,88.5L-29.982,87L-29.914,85.75L-29.845,85.75L-29.777,84.75L-29.709,85.5L-29.64,88.25L-29.572,87.25L-29.503,83.75L-29.435,84.25L-29.366,85.25L-29.298,85L-29.229,87.25L-29.161,90L-29.093,90.5L-29.021,89.5L-28.953,89.25L-28.884,90.25L-28.816,91.5L-28.747,91L-28.679,92.25L-28.611,92L-28.542,89.75L-28.474,86.75L-28.405,85.75L-28.337,88.5L-28.268,90.25L-28.2,89.75L-28.131,92.75L-28.063,91.5L-27.995,91.5L-27.926,92.75L-27.858,94.5L-27.789,94.5L-27.721,95.5L-27.652,96L-27.584,95.5L-27.515,97.25L-27.447,100.25L-27.379,101L-27.242,103L-27.173,103.25L-27.105,103.75L-27.036,104.75L-26.968,105.25L-26.899,106.5L-26.831,107.5L-26.762,107.5L-26.626,107L-26.557,109.25L-26.489,110.75L-26.42,111.5L-26.352,113.5L-26.283,116.25L-26.215,118.5L-26.146,118.5L-26.078,119.75L-26.01,121.25L-25.941,122L-25.873,121.75L-25.804,123L-25.667,122.5L-25.599,123.25L-25.53,125.25L-25.394,126.25L-25.325,126.75L-25.257,127.25L-25.188,126.25L-25.12,127L-25.051,127.25L-24.983,126.25L-24.914,123.25L-24.846,122.25L-24.709,119.5L-24.641,117.25L-24.572,115.5L-24.504,114.75L-24.435,114L-24.367,112L-24.298,110.5L-24.23,109.25L-24.162,110.5L-24.093,111.25L-24.025,111.5L-23.956,110.25L-23.888,108.75L-23.819,107.75L-23.751,104.5L-23.682,104.5L-23.614,104.5L-23.546,102.5L-23.477,102.25L-23.272,101.25L-23.203,98.75L-23.135,96.75L-23.066,96.25L-22.998,94.75L-22.93,91.75L-22.793,88.75L-22.724,88L-22.656,86.5L-22.587,88.75L-22.519,89.5L-22.45,90.75L-22.382,91.25L-22.245,92L-22.177,91.5L-22.108,91.5L-22.04,93.25L-21.971,94.25L-21.903,95L-21.834,94.5L-21.766,93.75L-21.697,92.75L-21.629,92.75L-21.561,93.5L-21.492,92.5L-21.424,95.5L-21.355,93.75L-21.287,93L-21.218,94.5L-21.15,95.75L-21.081,96L-21.013,98.25L-20.945,96.25L-20.876,94.5L-20.808,90.5L-20.739,92.5L-20.671,94.5L-20.602,95.25L-20.534,97.75L-20.465,98.5L-20.4,98.5L-20.331,99.25L-20.263,100.5L-20.195,99.5L-20.126,100L-20.058,100.75L-19.989,101.25L-19.921,99L-19.852,98L-19.784,97L-19.715,94.75L-19.647,95L-19.51,95.5L-19.442,94.25L-19.373,95.75L-19.305,93.5L-19.236,91.25L-19.168,89.5L-19.099,84.25L-19.031,84L-18.962,84L-18.894,80L-18.826,81L-18.757,81.25L-18.689,84L-18.62,82.75L-18.552,82L-18.483,80.5L-18.415,80L-18.346,74.75L-18.278,73L-18.21,72.25L-18.141,71L-18.073,71.5L-18.004,71L-17.936,68.75L-17.867,63.25L-17.799,63.75L-17.73,62L-17.662,61.25L-17.594,59.75L-17.525,58L-17.457,55L-17.388,55.5L-17.32,53.75L-17.251,54L-17.183,57.5L-17.114,61.25L-17.046,64.5L-16.978,61L-16.909,58.75L-16.841,61.25L-16.772,58.5L-16.704,57.5L-16.635,59L-16.567,58.25L-16.498,55.75L-16.43,54.75L-16.362,52.5L-16.293,54.5L-16.225,55.25L-16.156,56.25L-16.088,57.25L-16.019,55.25L-15.951,53.5L-15.882,54.25L-15.814,55.75L-15.745,57.5L-15.677,60.25L-15.609,60.75L-15.54,62.25L-15.472,62.25L-15.403,61L-15.335,60.25L-15.266,62.75L-15.198,63.25L-15.129,62.5L-15.061,58.5L-14.993,56L-14.924,54.5L-14.856,56.75L-14.787,58.5L-14.719,62L-14.65,63.75L-14.582,64.75L-14.513,65.25L-14.445,67.25L-14.377,70L-14.308,72.75L-14.24,74L-14.171,74.25L-14.103,75L-14.034,72.75L-13.966,74L-13.897,77.25L-13.829,78.5L-13.761,82L-13.692,81L-13.624,80.5L-13.555,78.75L-13.487,72.25L-13.418,72.75L-13.35,73.75L-13.281,75.75L-13.213,72.5L-13.145,72.25L-13.076,71L-13.008,71.75L-12.939,76.5L-12.871,81.75L-12.802,81L-12.734,80.75L-12.665,81.75L-12.597,80.75L-12.529,76.25L-12.46,79L-12.392,80.5L-12.323,78.5L-12.255,78.25L-12.186,79.25L-12.118,78L-12.049,77.25L-11.981,80.5L-11.913,81.75L-11.844,81.5L-11.776,80.75L-11.707,79.5L-11.639,77.5L-11.57,77.5L-11.502,80.75L-11.433,89.75L-11.365,91L-11.296,94L-11.228,93.25L-11.16,94.5L-11.091,96.5L-11.023,99L-10.954,102L-10.886,100L-10.817,97L-10.749,97.75L-10.68,97.75L-10.612,98.75L-10.544,99.75L-10.475,103L-10.338,102.25L-10.27,101.75L-10.201,103L-10.133,102L-10.064,102.5L-9.996,104L-9.928,100.25L-9.859,93L-9.791,87.25L-9.722,86.75L-9.654,87.25L-9.585,88.75L-9.517,91.25L-9.448,87.75L-9.38,83L-9.312,79.25L-9.243,80L-9.175,80.75L-9.106,79.75L-9.038,81L-8.901,80.75L-8.832,79.25L-8.764,77.25L-8.696,76.75L-8.627,78.25L-8.559,77.75L-8.49,75.75L-8.422,73.25L-8.353,69.75L-8.285,68L-8.216,67.75L-8.148,69L-8.08,69L-7.943,69L-7.874,67L-7.806,66L-7.737,66L-7.669,69.75L-7.6,75L-7.532,75.5L-7.463,74.5L-7.395,73.25L-7.327,72L-7.258,74.5L-7.19,78.5L-7.121,82.5L-7.053,80L-6.984,75.75L-6.916,71.5L-6.847,68.5L-6.779,68L-6.711,66L-6.642,67.75L-6.574,69.25L-6.505,69.25L-6.437,66.75L-6.368,64.5L-6.3,63.25L-6.231,65.5L-6.163,67.75L-6.095,67.75L-6.026,64L-5.958,61.5L-5.889,60.75L-5.821,60.75L-5.752,61.5L-5.684,66L-5.615,69L-5.547,68.5L-5.479,67.25L-5.41,65.5L-5.342,64.5L-5.273,64.5L-5.205,64.75L-5.136,64.75L-5.068,63.75L-4.999,63.5L-4.931,65L-4.863,66.5L-4.794,70L-4.726,69.5L-4.657,71.25L-4.589,68L-4.52,67.25L-4.452,60L-4.383,63.75L-4.315,69L-4.247,73L-4.178,73.5L-4.107,69.25L-4.038,68.75L-3.97,70L-3.901,71.25L-3.833,71.75L-3.765,71L-3.696,68L-3.628,63L-3.559,58L-3.491,56.25L-3.422,57.5L-3.354,60.25L-3.285,62.5L-3.217,61.75L-3.149,61.5L-3.08,60.75L-3.012,60.25L-2.943,62.5L-2.875,65L-2.806,69L-2.738,65.5L-2.669,62.5L-2.601,63.25L-2.533,67.25L-2.464,69.5L-2.396,77.75L-2.327,75.75L-2.259,75.25L-2.19,75.25L-2.122,77L-2.053,82.25L-1.985,83L-1.916,84.5L-1.848,85.25L-1.711,85.5L-1.643,87L-1.574,91.25L-1.506,93.75L-1.437,98.25L-1.369,101L-1.3,100.5L-1.232,99.75L-1.164,100.25L-1.095,103L-1.027,105L-0.958,105.25L-0.89,105.75L-0.821,105.25L-0.753,104.25L-0.684,102L-0.616,102.5L-0.548,99L-0.342,96.75L-0.274,91L-0.205,88.25L-0.137,87L-0.068,88.25L0.068,87.75L0.137,85.5L0.205,83.75L0.274,83L0.342,83L0.411,82.75L0.479,83.75L0.548,84.5L0.616,85.25L0.684,84.75L0.753,86.5L0.821,86.5L0.89,86.25L0.958,87.5L1.027,89.25L1.095,89L1.164,88.25L1.232,86.5L1.3,87L1.369,87.75L1.437,89.5L1.506,88.75L1.574,91.25L1.643,92.5L1.711,99.25L1.78,99.5L1.848,104.75L1.916,107.25L1.985,109L2.053,109.25L2.122,108.25L2.19,108.25L2.259,108.75L2.327,108.75L2.396,109.75L2.464,109L2.533,107.25L2.601,105.75L2.669,104.75L2.738,99.75L2.806,99.5L2.875,100L2.943,100.75L3.08,97.75L3.149,95L3.217,94.75L3.285,93L3.354,95L3.422,96L3.491,96L3.559,95L3.628,95.5L3.696,94.75L3.765,96.25L3.833,96.5L3.901,99.25L3.97,98.75L4.038,97.5L4.107,97L4.175,97.75L4.244,95.25L4.312,96.75L4.381,97.75L4.449,96.75L4.517,92.5L4.586,92L4.654,90.5L4.723,90.5L4.791,92.5L4.86,97.75L4.928,97.75L4.994,94L5.062,92.5L5.131,91.25L5.199,90.75L5.268,90.75L5.336,91.25L5.404,90L5.473,83.75L5.541,81.5L5.61,78.25L5.678,70.5L5.747,68L5.815,68.25L5.884,68.25L5.952,69L6.02,65.75L6.089,66.25L6.157,64.5L6.226,62.75L6.294,66.25L6.363,65.5L6.431,64.25L6.5,62.75L6.568,64.25L6.636,62.5L6.705,65.25L6.773,65.75L6.842,62L6.91,60.75L6.979,58.5L7.047,60L7.116,52L7.184,52.5L7.252,52.5L7.321,51.75L7.389,51.25L7.458,48.75L7.526,51.25L7.595,50L7.663,50.25L7.732,59L7.8,62.5L7.868,61L7.937,59L8.005,47L8.074,46L8.142,45.25L8.211,47.5L8.279,49.5L8.348,48.5L8.416,42.5L8.484,42.25L8.553,43.5L8.621,45.25L8.69,49L8.758,49L8.827,48L8.895,46.5L8.964,46.25L9.032,45.5L9.101,46.5L9.169,56.25L9.237,58.5L9.306,59L9.374,58.25L9.443,54.25L9.511,53.75L9.58,56L9.648,59.5L9.717,61.25L9.785,59.75L9.853,55.25L9.922,54.5L9.99,50.75L10.059,61.5L10.127,65.5L10.196,64.75L10.264,62L10.333,59.75L10.401,53.75L10.469,53.75L10.538,55.25L10.606,56.75L10.675,57.75L10.743,55.75L10.812,55L10.88,53.75L10.949,57.5L11.017,59L11.085,61L11.154,61.25L11.222,59L11.291,57.25L11.359,56.25L11.428,58.25L11.496,63.75L11.565,65.5L11.633,64.75L11.701,62.75L11.77,59L11.838,60.75L11.907,65L11.975,67L12.044,70.75L12.112,70.75L12.181,70L12.249,67.75L12.317,68.25L12.386,68L12.454,74.5L12.523,80.5L12.66,79.25L12.728,78.75L12.797,78L12.865,79.25L12.933,78.75L13.002,80.75L13.07,80L13.139,78.25L13.207,78.5L13.276,79.25L13.344,81.5L13.413,84.25L13.481,86.75L13.618,85.75L13.686,86.5L13.755,86L13.823,86.5L13.892,86L13.96,89.75L14.029,88.5L14.097,87.5L14.166,83.25L14.234,85L14.302,86.25L14.371,87L14.439,89.5L14.576,89.75L14.645,90.75L14.713,90.75L14.782,92.25L14.85,93.75L14.918,95L14.987,95L15.055,93.5L15.124,90.5L15.192,90L15.261,89.75L15.329,90.5L15.398,90.5L15.466,87.5L15.534,82L15.603,72.75L15.671,62.75L15.74,60.5L15.808,60.5L15.877,59.5L16.014,54.5L16.082,52L16.15,49.5L16.219,42.75L16.287,33.25L16.356,36.5L16.424,34.75L16.493,32.75L16.561,30.25L16.63,27L16.698,22.75L16.766,20.75L16.835,22L16.903,21L16.972,20.25L17.04,18.5L17.109,16.25L17.177,11.25L17.246,14.25L17.314,15.75L17.383,17L17.451,16L17.519,16.5L17.588,16.25L17.656,17.5L17.725,23.25L17.793,34.5L17.862,36.25L17.93,36.75L17.999,38.75L18.067,43L18.135,45L18.204,48.5L18.272,56.25L18.341,66.5L18.409,67L18.478,68.5L18.546,65L18.615,64.75L18.683,68L18.751,71.75L18.82,73.25L18.888,69.5L18.957,67.75L19.025,67.25L19.094,65.5L19.162,67.5L19.231,73.5L19.299,74.5L19.367,74.5L19.436,73.25L19.504,73L19.573,73.25L19.641,75.25L19.71,77.25L19.778,79.5L19.847,77.75L19.915,75.5L19.983,72.75L20.052,72L20.12,72.75L20.189,74L20.257,74.25L20.326,71.5L20.394,67.75L20.463,57.75L20.531,58.75L20.599,64.25L20.668,67L20.736,67.25L20.805,66.5L20.873,65.5L20.942,66.25L21.01,66.25L21.079,67L21.147,70.25L21.215,69.25L21.287,67.5L21.355,63.25L21.424,56.25L21.492,54.75L21.561,56L21.629,54.75L21.697,54L21.766,55.5L21.834,53.5L21.903,53L21.971,53.75L22.04,56.5L22.108,58L22.177,56.75L22.245,56L22.313,54.75L22.382,56.25L22.45,57.75L22.519,69L22.587,69.25L22.656,68.75L22.724,70L22.793,70.25L22.861,72.25L22.93,72.5L22.998,76L23.066,78.75L23.135,78L23.203,76.5L23.272,77.5L23.34,80L23.409,85.25L23.477,92L23.546,93.75L23.614,94.5L23.682,96L23.751,97L23.819,97.25L23.888,101L23.956,102.5L24.025,103.5L24.093,98.5L24.162,97.25L24.23,99L24.298,101L24.367,102.75L24.435,103.75L24.504,105.5L24.572,105L24.641,103.75L24.709,101.25L24.778,100.5L24.846,100.75L24.914,101.5L24.983,103.25L25.051,102.25L25.188,101.75L25.257,100.5L25.325,102.25L25.394,101.75L25.53,101.25L25.599,99.5L25.667,99.75L25.736,100L25.804,100.25L25.873,101.25L25.941,102L26.01,100.25L26.078,98.5L26.146,97L26.215,96.75L26.283,100.25L26.352,102.5L26.42,103.25L26.489,103.75L26.557,103L26.626,103.5L26.694,104.25L26.762,103.5L26.831,104.75L26.899,105.5L26.968,105L27.036,105.5L27.105,106L27.173,104.5L27.242,105L27.31,105.5L27.379,107L27.515,106.25L27.584,104.25L27.652,102.5L27.721,102.75L27.789,103.5L27.858,105.5L27.926,104L27.995,100.5L28.063,94L28.131,90.25L28.2,90.75L28.268,92.5L28.337,90.75L28.405,89.25L28.474,87.75L28.542,85.5L28.611,82.5L28.679,83.25L28.747,82.75L28.816,81.5L28.884,80.25L28.953,77.75L29.021,78L29.09,74.75L29.158,75.5L29.227,74.25L29.295,73.5L29.363,71.5L29.432,67.75L29.5,67.25L29.569,66.75L29.637,69.5L29.706,71.75L29.774,71L29.843,70.25L29.908,68.5L30.045,67.75L30.114,69.75L30.182,76.75L30.25,81.75L30.319,82.5L30.387,82.5L30.456,84L30.524,84.75L30.593,80.25L30.661,80.5L30.73,82L30.798,81.75L30.866,81.25L30.935,80.5L31.003,78.25L31.072,73L31.14,71.5L31.209,74.75L31.277,72.75L31.346,72.5L31.414,73.25L31.482,73L31.551,70.25L31.619,72L31.688,69.75L31.756,69.5L31.825,65.75L31.893,65L31.962,59.5L32.03,54.5L32.098,56.25L32.167,54.75L32.235,51.25L32.304,49.75L32.372,47.75L32.441,38.25L32.509,25.5L32.578,23.5L32.646,26.25L32.714,24.5L32.783,22.5L32.851,19.75L32.92,14L32.988,14.25L33.057,14.25L33.125,20.25L33.194,22L33.262,18.25L33.33,17.5L33.399,16L33.467,10.75L33.536,12L33.604,17.25L33.673,15.75L33.741,18.75L33.81,17.5L33.878,19L33.946,16L34.015,21L34.083,26L34.152,23.25L34.22,22.5L34.289,19.75L34.357,19.5L34.426,20.25L34.494,29.75L34.563,44.5L34.631,47L34.699,47.75L34.768,50L34.836,50L34.905,46.75L34.973,52.25L35.042,53.25L35.11,57L35.179,57.25L35.247,53.5L35.315,52.75L35.384,51.75L35.452,53.5L35.521,61L35.589,62.5L35.658,63L35.726,63L35.795,61.75L35.863,62.25L35.931,64.5L36,70.5L36.068,71L36.137,72.25L36.205,74.25L36.274,74.5L36.342,75.5L36.411,77.5L36.479,79L36.547,79.25L36.616,78.25L36.684,79.5L36.753,79.25L36.821,75.5L36.89,77L36.958,83.5L37.027,83.75L37.095,83.5L37.163,83L37.232,84L37.3,87.5L37.369,93L37.437,96.75L37.506,97.75L37.574,96L37.643,94.75L37.711,92.75L37.779,87.75L37.848,89.25L37.916,91.25L37.985,91.75L38.053,90.5L38.122,90.5L38.19,90L38.259,87.25L38.327,90.5L38.396,94.5L38.464,94.25L38.532,92.25L38.601,90.75L38.669,89.5L38.738,88.25L38.806,90.5L38.875,95.5L38.943,98L39.012,97.75L39.08,97.5L39.148,94.25L39.217,95L39.285,95L39.354,96.25L39.422,94.75L39.491,93.5L39.559,92L39.628,91L39.696,92.25L39.764,95L39.833,101.5L39.901,101.5L39.97,99.75L40.038,96.75L40.107,95.75L40.175,95.75L40.244,94.25L40.312,94.5L40.449,91L40.517,90.75L40.586,89.5L40.654,87.5L40.723,88.25L40.791,89.75L40.86,88.25L40.928,87L40.996,85.5L41.065,85L41.133,84.5L41.202,85.25L41.27,89.5L41.339,86.75L41.407,83.25L41.476,80.75L41.544,77.25L41.612,74.75L41.681,73.5L41.749,71L41.818,68.75L41.886,66L41.955,61.25L42.023,59.25L42.092,58L42.16,59L42.228,60.5L42.297,60.75L42.365,61.5L42.434,63.5L42.502,64.5L42.571,63.5L42.639,65.25L42.708,67.5L42.776,66.25L42.845,64L42.913,63.25L42.981,57.5L43.05,54L43.118,51.5L43.187,51L43.255,49.5L43.324,48.5L43.392,50.25L43.461,50.5L43.529,48.75L43.597,52L43.666,55L43.734,57.75L43.803,60.75L43.871,61.5L43.94,59.25L44.008,63L44.077,64.25L44.145,66.75L44.213,66.75L44.282,66.25L44.35,64.5L44.419,61L44.487,61.25L44.556,63.75L44.624,66.75L44.693,62.5L44.761,63L44.829,63.25L44.898,63.25L44.966,65L45.035,71.75L45.103,77.25L45.172,78.75L45.24,76.75L45.309,76L45.377,71.25L45.445,73L45.514,76L45.582,79.25L45.651,77.75L45.719,76.75L45.788,73.75L45.856,74L45.925,74.75L45.993,79.5L46.061,79L46.13,78L46.201,76.25L46.27,76.5L46.338,76.25L46.407,78.75L46.475,84L46.543,85L46.612,83L46.68,80.25L46.749,81.25L46.817,79.5L46.886,81.5L46.954,85L47.023,85.5L47.091,85L47.159,84.75L47.228,84.75L47.296,86.25L47.365,86.75L47.433,93.25L47.57,93.25L47.639,93.5L47.707,93.75L47.775,96.75L47.844,98.5L47.912,102L47.981,104.25L48.049,105L48.118,105L48.186,104.75L48.255,106.75L48.323,109L48.392,110.5L48.46,109.75L48.528,107.5L48.597,104.25L48.665,102.75L48.734,102.75L48.802,105.25L48.871,109.25L48.939,111L49.008,110.25L49.076,109.5L49.144,109.25L49.213,110.5L49.281,111L49.35,112.25L49.418,113.75L49.487,114L49.555,113L49.624,111.75L49.692,111.25L49.76,112L49.829,112.5L49.897,112.25L49.966,111L50.034,110.5L50.103,109.5L50.24,109.5L50.308,111L50.376,111L50.445,110.75L50.513,110.5L50.582,111.25L50.65,112.75L50.719,115.25L50.787,116.75L50.856,118.25L50.924,118L50.992,115.75L51.061,115.75L51.129,114.75L51.198,114.25L51.266,116.25L51.335,116.5L51.403,116L51.472,116.25L51.54,115.75L51.608,117.75L51.677,118L51.745,118.25L51.814,118.75L51.882,118.25L51.951,115.75L52.019,114.75L52.088,114L52.156,113.5L52.225,113.5L52.293,112L52.361,111L52.43,110.25L52.498,109.75L52.567,109.25L52.635,109.25L52.704,109.75L52.772,107.75L52.841,107.25L52.909,106L52.977,105L53.046,103.5L53.114,104.25L53.183,105.75L53.251,105.25L53.32,103.25L53.388,103.5L53.457,102.25L53.525,96.75L53.593,95.5L53.662,94.5L53.73,92.75L53.867,90.75L53.936,90L54.004,89.5L54.073,90.25L54.141,90.25L54.209,91.5L54.278,89.75L54.346,89.5L54.415,90L54.483,90.75L54.552,90.75L54.62,91.75L54.689,93L54.757,93.25L54.823,89.75L54.891,91L54.96,90.75L55.028,89.25L55.096,90L55.165,91.75L55.233,90.5L55.302,89L55.37,89.25L55.439,90.25L55.507,89L55.576,89.75L55.644,93.25L55.712,93.5L55.781,92L55.849,91.5L55.918,91.5L55.986,91.75L56.055,90.25L56.123,89.25L56.26,86.75L56.328,84.25L56.397,81.25L56.465,76L56.534,74.75L56.602,72.75L56.671,71.75L56.739,69L56.808,64.25L56.876,58L56.944,60L57.013,60.5L57.081,60.75L57.218,61.25L57.287,56L57.355,53.25L57.424,50.75L57.492,48L57.56,49.75L57.629,49L57.697,48.25L57.766,46.75L57.834,45.5L57.903,39.75L57.971,42.25L58.04,45.5L58.108,48.25L58.176,45.5L58.245,47L58.313,45L58.382,44.75L58.45,47.75L58.519,52.5L58.587,58.25L58.656,59L58.724,61L58.792,60.5L58.861,57.75L58.929,61.25L58.998,67.5L59.066,67.75L59.135,66.25L59.203,65.75L59.272,65.75L59.34,69L59.409,72L59.477,76L59.545,79.75L59.614,77.25L59.682,77L59.751,70.75L59.819,68.5L59.888,71.25L59.956,79L60.025,76.75L60.093,76.25L60.161,73.5L60.23,69.75L60.298,71L60.367,74.5L60.435,78L60.504,76.5L60.572,77L60.641,77.75L60.709,77L60.777,77.25L60.846,78.5L60.914,83.75L60.983,83L61.051,82.75L61.12,81.75L61.188,80.75L61.257,80.25L61.325,83.25L61.393,85L61.462,85.75L61.53,84.5L61.599,81.75L61.667,82.5L61.736,84.5L61.804,92.75L61.941,97.5L62.009,96.5L62.078,95.75L62.146,97L62.215,91.25L62.283,91.75L62.352,99.5L62.42,98.5L62.489,99.25L62.557,98.75L62.625,99.75L62.694,95.25L62.762,94.75L62.831,96.75L62.899,95.75L62.968,94.25L63.036,90.75L63.105,88.75L63.173,90.25L63.242,92.75L63.31,95.75L63.378,98L63.447,97.5L63.515,95.5L63.584,94.25L63.652,96L63.721,99.5L63.789,101.5L63.858,101.75L63.926,101.5L63.994,100.75L64.063,100.75L64.131,101.5L64.2,103L64.268,109L64.337,110.25L64.405,108.75L64.474,107.5L64.542,107L64.61,106.5L64.679,106.5L64.747,111.5L64.884,108L64.953,105.5L65.021,104.25L65.09,103.75L65.158,107L65.226,110.25L65.295,110L65.363,109L65.432,106.25L65.5,104L65.569,101.5L65.637,103.25L65.706,104.5L65.774,101.5L65.842,99L65.911,98L65.979,93.75L66.048,89.5L66.116,89L66.185,89.75L66.253,87.75L66.322,86.75L66.39,83.5L66.458,82L66.527,79.5L66.595,81L66.664,81.75L66.732,82L66.801,81.5L66.869,77.5L66.938,78.25L67.006,79L67.074,79.75L67.143,82L67.211,82.5L67.28,81.25L67.348,79.5L67.417,78.5L67.485,78.5L67.554,80.25L67.622,82L67.691,82.75L67.759,83L67.827,83.75L67.896,83.5L67.964,81.75L68.033,85.75L68.101,89L68.17,89.5L68.238,87.25L68.307,86.75L68.375,84.75L68.443,85.5L68.512,87L68.58,89.5L68.649,88.25L68.717,84.5L68.786,83L68.854,82L68.923,82.75L68.991,84.75L69.059,86.75L69.128,87.25L69.196,85.75L69.265,81L69.333,78L69.402,78L69.47,79.5L69.539,82.5L69.607,82.75L69.675,82L69.744,79.5L69.812,39.25L69.881,25.5L69.949,28.25L70.018,30.75L70.086,30.25L70.155,29.75L70.223,28.75L70.291,27.75L70.36,30.25L70.428,33.25L70.497,35.75L70.565,35L70.634,34.5L70.702,33.5L70.771,33.75L70.839,32.5L70.907,33.75L70.976,37L71.044,36.75L71.116,36.5L71.184,36.25L71.253,34.75L71.321,38.25L71.389,42.75L71.458,44L71.526,43.75L71.595,41.75L71.663,41L71.732,40.5L71.8,40.5L71.869,80.5L71.937,96.25L72.005,94.25L72.074,94L72.142,93L72.211,93L72.279,92.75L72.348,96.5L72.416,96.5L72.485,96.25L72.553,96.25L72.621,98.25L72.69,99.25L72.758,101.75L72.827,105.5L72.895,109.5L72.964,110.5L73.032,109.75L73.101,109.75L73.169,109.5L73.238,111L73.306,113.5L73.374,114L73.443,113L73.511,111.75L73.58,111.5L73.648,113.25L73.717,114L73.785,115.5L73.854,117.25L73.922,117.75L73.99,116.5L74.059,118.25L74.127,118.75L74.196,120.25L74.264,121.5L74.333,121.75L74.401,119.25L74.47,117.5L74.538,116.75L74.606,116.5L74.675,115.25L74.743,115.25L74.812,114.75L74.88,114.25L74.949,113.25L75.086,113.25L75.154,111.75L75.222,111.5L75.291,111.75L75.428,111.5L75.496,112.25L75.565,112.75L75.633,114.5L75.702,116L75.77,117L75.907,115.75L75.975,114.75L76.044,113L76.112,113.75L76.181,113.75L76.249,114.75L76.386,114.5L76.454,114.25L76.523,113.5L76.591,114L76.66,114.75L76.728,116L76.797,115.5L76.865,114.75L76.934,114.25L77.002,115.5L77.07,116L77.139,116.25L77.207,115.75L77.276,115.5L77.344,113.75L77.413,115.25L77.481,117L77.55,116.5L77.618,116.5L77.687,116.5L77.755,114.75L77.823,114L77.892,113L77.96,113L78.029,113.25L78.097,113.5L78.234,114.25L78.303,111.25L78.371,110.25L78.439,109.75L78.508,109.5L78.576,107.75L78.713,107.5L78.782,104.5L78.85,104L78.919,103.5L78.987,105.75L79.055,105.75L79.124,104.5L79.192,102.5L79.329,101L79.398,101.25L79.466,101.25L79.535,102.25L79.603,102.75L79.671,102.25L79.737,99.75L79.805,99L79.874,97.75L79.942,96.5L80.011,98.25L80.079,98.5L80.148,98.25L80.216,97L80.285,96.25L80.353,94.75L80.422,96.25L80.49,99.75L80.627,99.5L80.695,99.75L80.764,100.25L80.832,99.75L80.901,98.25L80.969,101.25L81.038,101.25L81.106,102.25L81.174,101L81.243,100.75L81.311,100.75L81.38,99.75L81.448,100.75L81.517,100.75L81.585,101L81.654,100.25L81.722,99.75L81.79,100.5L81.859,103L81.927,103.75L81.996,103.5L82.064,103.25L82.133,100.5L82.201,95L82.27,95L82.338,95.75L82.406,96L82.475,95.75L82.543,95L82.612,92.5L82.68,91.5L82.749,92.25L82.817,92.5L82.886,95L83.022,95.75L83.091,94L83.159,94.5L83.228,91.25L83.296,91.75L83.365,93.5L83.433,95L83.502,97.25L83.57,95L83.638,92.25L83.707,90L83.775,90.25L83.844,92L83.912,90.75L84.049,89.25L84.118,87L84.186,87.75L84.255,86L84.323,88.25L84.391,94L84.46,95L84.528,93.25L84.597,93.25L84.665,93.75L84.734,89.75L84.802,90.5L84.871,93.25L84.939,92L85.007,91.5L85.076,88.25L85.144,82.75L85.213,79.25L85.281,79.75L85.35,83.5L85.418,84.25L85.487,83L85.555,77.5L85.623,77.75L85.692,80.5L85.76,84.25L85.829,86.5L85.897,87.25L85.966,86.25L86.034,87.25L86.103,85.5L86.171,79L86.239,78.75L86.308,81.75L86.376,81.5L86.445,80.25L86.513,80.5L86.582,78L86.65,79.25L86.719,81.5L86.787,85.75L86.855,85.75L86.924,84.25L86.992,83.5L87.061,77L87.129,79.5L87.198,86.5L87.266,89.5L87.335,88.25L87.403,86.25L87.471,84L87.54,81.75L87.608,87.75L87.677,88.25L87.745,87.5L87.814,86.5L87.882,85.75L87.951,81L88.019,77.5L88.087,75.25L88.156,78.5L88.224,88.25L88.361,89.25L88.43,89.5L88.498,90.25L88.567,87.75L88.635,86.75L88.704,90.75L88.772,90L88.84,89L88.909,89.25L88.977,88.75L89.046,89L89.114,90.5L89.183,96.75L89.251,95.75L89.32,95.5L89.388,96L89.456,97L89.525,99.5L89.593,101.5L89.662,104L89.73,103.25L89.799,99.5L89.867,96.75L89.936,97.25L90.004,96L90.072,99L90.141,101.5L90.209,101.25L90.278,99L90.346,95.5L90.415,94.5L90.483,95L90.552,94L90.62,96.25L90.757,97L90.825,96.75L90.894,95.5L90.962,96.25L91.031,96.75L91.099,97.25L91.236,95.5L91.304,94.25L91.373,91L91.441,91.5L91.51,91L91.578,92.25L91.647,92.75L91.715,92.75L91.784,90L91.852,87.75L91.92,86.75L91.989,90.25L92.057,93L92.126,92.25L92.194,93.25L92.263,95.25L92.331,95.5L92.4,98L92.468,99.25L92.537,101.25L92.605,102.75L92.673,101.5L92.742,97.75L92.81,97.5L92.879,93L92.947,92.75L93.016,95.5L93.084,95.5L93.153,95.5L93.221,94.75L93.289,93.5L93.358,94.25L93.426,96.5L93.495,96.5L93.563,96.5L93.632,95.5L93.7,94.5L93.769,93.25L93.837,94.25L93.905,97.75L93.974,99L94.042,97.25L94.111,97.25L94.179,96L94.248,95.25L94.316,93.75L94.385,95.25L94.453,95.5L94.521,96.25L94.59,96.5L94.658,92.25L94.727,90.75L94.795,92.75L94.864,94.75L94.932,99.75L95.001,98.5L95.069,96L95.137,95.5L95.206,94.25L95.274,95L95.343,98.5L95.411,99.5L95.48,101.25L95.548,100.5L95.617,100.75L95.685,98.25L95.753,98.75L95.822,99.75L95.89,101L95.959,100.25L96.03,100L96.099,100L96.167,100L96.235,100.75L96.304,103L96.372,103.75L96.441,103L96.509,101.75L96.578,99.25L96.646,100.25L96.715,103.5L96.783,105.5L96.851,108.25L96.92,107.25L96.988,106.25L97.057,107.75L97.125,109.25L97.194,109.25L97.262,109.25L97.331,110L97.399,110.5L97.467,110L97.536,109.5L97.604,111.25L97.673,111.75L97.741,115.75L97.81,115.75L97.878,116L97.947,116.75L98.015,117L98.084,117.25L98.152,118.5L98.22,119.5L98.426,121.25L98.494,120.25L98.563,119.5L98.631,119L98.7,120.5L98.768,122.5L98.836,122.25L98.905,122.5L98.973,122.75L99.042,122L99.11,122L99.179,123L99.247,123.75L99.316,124.75L99.384,125L99.452,125L99.658,125.25L99.726,125.5L99.795,125.75L99.863,124.75L99.932,123.75L100.068,123.75L100.137,123L100.205,122.75L100.342,122.75L100.411,122L100.479,122L100.548,121.75L100.616,122.5L100.753,121.5L100.89,120.75L100.958,121.5L101.027,122.25L101.095,123.5L101.164,123.5L101.3,123.25L101.369,123.75L101.437,123.25L101.506,123L101.574,123.75L101.643,123.5L101.711,122.75L101.78,122.75L101.916,122.25L101.985,121.25L102.053,121.5L102.122,120.5L102.259,119.5L102.327,119.75L102.396,121.25L102.464,122.5L102.533,123L102.601,122.75L102.669,121.75L102.738,121.25L102.806,122L102.875,122.25L102.943,123.25L103.012,123.25L103.08,124.5L103.217,125.25L103.285,125.75L103.354,126.5L103.422,126.75L103.491,127L103.559,128L103.696,128L103.765,128.25L103.833,129L103.901,129.25L103.97,130.5L104.038,130.25L104.175,130.5L104.244,131L104.312,132.25L104.381,132.75L104.449,134.25L104.517,134.5L104.586,134.5L104.651,134L104.72,133.75L104.788,133.25L104.857,134L104.925,135.75L104.994,136L105.268,135.5L105.404,135.25L105.541,134.5L105.61,134.25L106.226,134.25L106.294,133.5L106.363,133.25L106.568,133L107.116,132.75L107.732,131.75L107.868,131.5L108.142,130.75L108.279,131.5L108.348,131.25L108.484,131.25L108.553,131.25L108.69,132.5L108.758,131L109.032,129.5L109.169,129.25L109.237,130L109.306,129.75L109.443,130.25L109.58,130.25L109.648,129.25L109.717,128.5L109.853,128.5L109.99,128L110.059,127.75L110.127,126.75L110.264,125.75L110.401,125.75L110.469,126.25L110.538,126.5L110.606,126L110.675,125.5L110.743,124.5L110.812,123.75L110.88,122.5L110.949,123.5L111.017,123.75L111.085,124.5L111.154,124L111.291,123.25L111.428,123L111.496,122.25L111.565,121.5L111.633,121.5L111.701,122.75L111.77,123L111.838,123L111.907,123L111.975,122.5L112.044,121.75L112.112,123.25L112.181,124L112.249,123.75L112.317,124L112.386,124L112.454,125L112.523,126.5L112.591,126.75L112.66,126.5L112.797,124.5L112.865,122L112.933,122.75L113.002,123.25L113.07,123.75L113.139,124.5L113.207,123.5L113.276,123L113.344,122.5L113.413,122.75L113.481,123L113.55,123.25L113.618,123.25L113.686,123.75L113.755,125.25L113.823,124.5L113.892,124.25L113.96,124.25L114.029,124.5L114.166,124.75L114.234,123.75L114.302,123L114.371,123.25L114.439,124L114.508,123.75L114.576,124.25L114.645,123.75L114.713,123.25L114.782,121.25L114.85,121.75L114.918,123.25L114.987,125.75L115.055,124.25L115.124,124.25L115.192,123.5L115.329,123.5L115.398,124L115.466,122.25L115.534,122L115.603,121.25L115.671,120L115.74,118.5L115.808,118.5L115.877,117L115.945,116.75L116.014,115.25L116.082,114.5L116.15,114.25L116.287,114L116.356,114.25L116.424,114.75L116.493,114.5L116.561,112.25L116.63,110.75L116.698,110.75L116.766,110.5L116.835,110.75L116.903,110.75L116.972,110.75L117.04,109.25L117.177,109.5L117.246,108.25L117.314,110L117.383,110L117.451,110.5L117.519,109L117.588,109.5L117.656,111L117.725,111.5L117.793,111.75L117.862,113.75L117.93,115.25L118.067,114.25L118.135,114.5L118.272,114L118.341,116.25L118.409,117L118.478,117L118.546,116.75L118.615,116.25L118.683,116.75L118.751,117.5L118.82,119.5L118.888,121L118.957,121.25L119.025,121L119.094,121.25L119.162,121.5L119.231,123.75L119.299,124.25L119.367,124.5L119.436,125.25L119.573,125L119.641,125.5L119.71,125.75L119.778,126.75L119.847,126.25L119.915,124L119.983,123.75L120.052,123.75L120.12,123.25L120.189,121.75L120.257,123.25L120.326,124.75L120.394,125.5L120.463,124.25L120.531,124.25L120.599,123.75L120.668,124L120.736,123.25L120.873,124L121.013,123.75L121.081,123.75L121.15,123.75L121.218,123.5L121.287,123.25L121.355,123.5L121.424,123.25L121.492,123.25L121.561,123.25L121.629,123.25L121.697,123.5L121.766,123.5L121.834,122L121.903,121.25L121.971,121L122.04,120L122.108,121.75L122.177,122.25L122.382,122.75L122.45,123L122.519,124.25L122.587,124.25L122.724,124.25L122.861,124.25L122.93,125.5L122.998,125.5L123.066,125.75L123.135,126L123.272,127.25L123.34,127L123.409,127.5L123.477,127L123.546,126.75L123.614,127.5L123.682,128.25L123.751,128.25L123.819,128.25L123.888,128L123.956,128.5L124.025,128.25L124.093,129L124.162,129.5L124.23,131L124.298,131.5L124.367,132L124.435,133L124.572,134.25L124.709,133.75L124.778,133.75L124.914,132.75L124.983,131.75L125.12,130.75L125.188,129.25L125.394,129L125.462,128.5L125.53,128L125.599,127.25L125.667,126.75L125.736,125.75L125.804,126L125.873,125.75L126.01,125L126.078,124.5L126.146,124.5L126.215,124.5L126.283,124.5L126.352,124.5L126.42,124.25L126.489,123.75L126.557,123L126.626,122.25L126.694,122.25L126.762,121.75L126.899,121.5L126.968,121.75L127.036,122.25L127.173,121.5L127.242,122L127.31,121.25L127.379,122.25L127.447,123L127.515,123.5L127.584,124.25L127.652,123.75L127.721,123.25L127.789,123.25L127.858,123.75L127.926,124.5L127.995,124.75L128.063,123L128.2,123.25L128.268,121L128.337,121L128.405,120.75L128.542,120.25L128.611,120.25L128.679,120.25L128.816,120.5L128.884,121.5L128.953,122.25L129.09,122.75L129.158,122L129.227,121.75L129.363,121.5L129.5,122L129.637,121.75L129.706,122L129.774,119.75L129.843,120.5L129.911,119.25L130.045,117L130.114,117L130.182,117.25L130.25,116.5L130.319,116.25L130.387,115.75L130.456,115L130.593,115L130.661,114.25L130.73,114.75L130.798,114L130.866,116L131.003,113.5L131.072,113L131.14,113.5L131.209,112L131.277,111L131.346,110L131.414,108.75L131.482,106.5L131.551,106.5L131.688,107L131.756,107.25L131.825,106.5L131.893,106.25L131.962,105.75L132.03,104L132.098,105.5L132.167,105.5L132.235,106.5L132.441,108.5L132.509,107.5L132.578,106.75L132.646,107.25L132.714,107.5L132.783,109L132.851,109.25L132.92,108.5L132.988,107.75L133.057,105.25L133.125,103.75L133.194,105.5L133.262,108.75L133.33,109.25L133.399,107.75L133.467,106.5L133.536,104.5L133.604,104.25L133.673,104L133.741,104.75L133.81,103.5L133.878,101L133.946,99L134.015,98.75L134.083,97.5L134.152,98L134.22,99.5L134.289,99.25L134.357,98.75L134.426,97L134.494,91L134.563,91.75L134.631,91.25L134.699,91.5L134.768,92L134.836,88.25L134.905,87.25L134.973,85L135.042,84.5L135.11,87.75L135.179,88L135.315,86.25L135.384,84.5L135.452,83L135.521,84.5L135.589,86.5L135.658,90L135.726,91L135.795,91.75L135.863,91.75L135.931,90.5L136,89.75L136.068,90.75L136.137,92.75L136.205,94.25L136.274,93.25L136.342,91.75L136.411,90.5L136.479,91.25L136.547,92L136.616,98.25L136.684,99L136.753,100L136.821,99.25L136.89,97.25L136.958,97.5L137.027,99.5L137.095,101L137.232,102.5L137.3,102.75L137.369,103.75L137.437,102.75L137.506,102.75L137.574,104.5L137.643,104L137.711,102.25L137.779,101.5L137.848,101.5L137.916,96L137.985,95.25L138.053,97.75L138.122,100.75L138.19,101.75L138.259,101.25L138.327,99L138.396,95.25L138.464,95.5L138.532,97.75L138.601,96.5L138.669,98L138.738,96.75L138.806,95.75L138.875,95.75L138.943,97L139.012,98.25L139.08,99L139.148,98L139.217,98.5L139.285,98L139.354,97L139.422,93.75L139.491,95.5L139.559,96.25L139.628,95.25L139.696,92.75L139.764,94.75L139.833,94.75L139.901,94.5L139.97,100.75L140.038,100.5L140.107,97.75L140.175,96.25L140.244,95L140.312,89.25L140.38,86.5L140.449,88.25L140.517,89.5L140.586,85.5L140.654,85.25L140.791,84.25L140.86,84L140.928,83.25L140.996,81.5L141.065,80.75L141.133,79L141.202,80.25L141.27,80L141.339,78.25L141.407,79L141.476,74L141.544,73.75L141.612,66.5L141.681,63.5L141.749,64L141.818,64.75L141.886,62.25L141.955,58.5L142.023,51.5L142.228,46L142.297,44.25L142.365,46.5L142.434,47L142.502,45L142.571,47.75L142.639,50.5L142.708,50L142.776,48.5L142.845,50L142.913,49.75L142.981,48L143.05,46.75L143.118,45L143.187,43.75L143.255,44.25L143.324,46.5L143.392,44L143.461,45L143.529,45.5L143.597,44L143.666,48.75L143.734,51.25L143.803,57.25L143.871,60.75L143.94,58.25L144.008,58.25L144.077,56.75L144.145,59.25L144.213,65.75L144.282,69.25L144.35,71.75L144.419,70L144.487,70.25L144.556,72.25L144.624,73.25L144.693,74.75L144.761,77L144.829,78L144.898,77.5L144.966,76.75L145.035,75.75L145.103,78L145.172,81L145.24,83.75L145.309,81.25L145.377,77.75L145.445,77.5L145.514,77L145.582,75.75L145.651,77.75L145.719,77.25L145.856,77.5L145.925,79L145.993,78L146.061,81L146.13,81.5L146.198,84.5L146.267,86.25L146.338,87L146.407,87L146.475,88.75L146.543,91L146.612,92L146.68,93.5L146.749,95L146.817,94.5L146.886,95L146.954,95.75L147.023,98.5L147.091,101L147.159,104L147.228,103.75L147.296,104L147.365,101.75L147.433,104L147.502,108.5L147.57,112.75L147.707,113.25L147.775,116.75L147.844,117.5L147.912,119.5L147.981,121L148.049,121.75L148.118,123.25L148.186,123L148.255,124.25L148.323,125.75L148.392,125.5L148.46,125.5L148.528,127.5L148.597,125L148.665,124.75L148.734,124.5L148.802,124.75L148.871,125.25L148.939,125.25L149.008,126.25L149.076,126.25L149.144,126.25L149.213,126L149.281,126L149.35,126.5L149.418,125.75L149.487,128L149.555,128.25L149.624,128.25L149.692,128.25L149.76,128.75L149.829,127.5L149.897,122.75L149.966,117.25L150.171,114L150.24,113.75L150.308,113.5L150.376,113.25L150.445,112.5L150.65,108.75L150.719,107.75L150.787,105L150.856,104.5L150.924,106.75L150.992,106L151.129,103.5L151.198,102L151.266,101.75L151.335,100.25L151.403,100L151.472,99.75L151.54,99.25L151.608,99.75L151.677,100.25L151.745,100L151.814,101L151.882,101.5L151.951,100.75L152.019,99.75L152.088,98.75L152.156,96L152.225,95L152.293,99.25L152.361,104.5L152.43,107L152.498,106.75L152.567,105.75L152.635,105L152.704,105.5L152.772,109L152.841,110.5L152.909,111.5L152.977,108L153.046,107.5L153.114,106.5L153.183,108.25L153.251,108.75L153.32,108.5L153.457,110.75L153.525,108.25L153.593,108L153.662,107.5L153.73,105.5L153.799,105.5L153.867,106.5L153.936,106L154.004,105.75L154.073,103.75L154.141,103.75L154.209,102.75L154.278,104.25L154.346,106.25L154.415,104.5L154.483,102.5L154.552,100.75L154.62,99.75L154.689,98.25L154.757,97.25L154.825,97.75L154.894,95.5L154.96,92.25L155.028,92.75L155.096,94L155.165,94.5L155.233,96.75L155.302,98L155.37,98.75L155.439,99.5L155.507,100L155.576,102L155.644,103L155.712,104.25L155.781,102.25L155.849,100.75L155.918,99.5L155.986,99.25L156.055,95.75L156.123,96L156.192,94L156.26,91.75L156.328,92.25L156.397,90.5L156.465,91L156.534,90L156.602,90L156.671,89.25L156.739,91.25L156.808,93.25L156.876,92L156.944,93L157.013,92L157.081,91L157.15,92.75L157.218,92.5L157.287,91.25L157.355,89.25L157.424,86.25L157.492,84.5L157.56,81.25L157.629,78.5L157.697,74L157.766,71.5L157.834,72.5L157.903,71.25L157.971,67L158.04,65L158.108,69L158.176,71L158.245,73.5L158.313,76.5L158.382,75.5L158.45,76L158.519,76.5L158.587,79.25L158.656,81.75L158.724,83L158.792,82.25L158.861,80.75L158.929,79.5L158.998,78L159.066,80L159.135,81.5L159.203,81.5L159.272,80.5L159.34,80.5L159.409,79.25L159.477,81.25L159.545,82.5L159.614,85.5L159.682,88.5L159.751,92.25L159.819,92L159.888,93.75L159.956,95.25L160.025,100L160.093,102.5L160.161,102.25L160.23,102.5L160.298,101.75L160.367,101.75L160.435,101.5L160.504,102.75L160.572,102.5L160.641,101.75L160.709,100.5L160.777,100.5L160.846,100.75L160.914,101.75L160.983,103.75L161.051,106L161.12,107.5L161.188,107.5L161.257,107.75L161.325,107.5L161.393,108L161.462,111.25L161.53,111L161.599,111.5L161.667,110.75L161.736,109.5L161.804,110L161.873,111.5L161.941,112.25L162.009,113.25L162.078,113.5L162.146,113.75L162.215,112.75L162.283,110.75L162.352,110.5L162.42,111.25L162.489,112.5L162.625,112.75L162.694,113.25L162.762,113.75L162.831,114L162.899,113.75L162.968,114.75L163.036,114.75L163.105,115.5L163.173,115L163.242,114.25L163.31,114L163.378,113.75L163.447,115.25L163.515,115.5L163.584,114L163.652,115.25L163.721,115L163.789,114.5L163.858,115.25L163.926,115.25L163.994,116.25L164.063,116.25L164.131,115L164.2,113.5L164.268,113.25L164.337,114.5L164.405,116.25L164.474,116.5L164.542,116L164.61,114.25L164.679,112.75L164.747,112.25L164.816,112.25L164.884,113.25L164.953,114L165.021,113.25L165.09,112.5L165.158,107.75L165.226,105.5L165.295,107L165.363,108L165.432,105.5L165.5,104L165.569,101.75L165.637,101.5L165.706,97.75L165.774,96.75L165.842,98L165.911,98.25L165.979,95.75L166.048,92.5L166.116,90.75L166.185,88.5L166.253,90.25L166.322,90.25L166.39,90.5L166.458,91L166.527,90.5L166.595,88.5L166.664,90.25L166.732,90.25L166.801,91L166.869,90L166.938,87.75L167.006,88L167.074,83.5L167.143,82.5L167.211,86.5L167.28,89.5L167.348,89L167.417,88.75L167.485,90.5L167.554,91L167.622,91.75L167.691,92.25L167.759,96L167.827,97.25L167.896,96.75L167.964,95L168.033,96.25L168.101,97.25L168.17,95.75L168.238,98.75L168.307,96.75L168.375,96.5L168.443,96L168.512,96L168.58,96.25L168.649,98.25L168.717,98.25L168.786,97.25L168.854,96.75L168.923,95.75L168.991,95.5L169.059,93.25L169.128,98.5L169.196,99.25L169.265,98L169.333,97.5L169.402,96L169.47,93.5L169.539,93.75L169.607,94.25L169.675,94.75L169.744,94.5L169.812,94.25L169.881,92.75L169.949,89.75L170.018,90L170.086,91L170.155,93.25L170.223,95.75L170.291,94.75L170.36,95.75L170.428,94.75L170.497,95.25L170.565,95.75L170.634,95.5L170.702,96.25L170.771,95.75L170.839,97.5L170.907,97L170.976,99.5L171.044,101.5L171.113,103.25L171.181,102.5L171.253,103.25L171.321,104L171.389,103L171.458,104L171.526,105.75L171.595,107L171.663,107L171.732,107.5L171.8,107.25L171.869,105.5L171.937,107.5L172.005,109.5L172.074,111L172.142,110.5L172.211,108.5L172.279,107L172.348,108.5L172.416,109.5L172.485,111.25L172.553,110.75L172.69,110L172.758,110.5L172.827,110L172.895,110.5L172.964,110.75L173.032,112.25L173.101,112L173.169,112.75L173.238,112.5L173.306,112.25L173.374,113L173.443,114L173.511,115.5L173.58,115.25L173.648,116.25L173.717,114L173.785,113.75L173.854,114.5L173.922,116.25L174.059,118.5L174.127,117.25L174.196,118L174.264,118L174.333,118.25L174.401,120L174.47,122L174.538,122L174.606,121.5L174.675,121L174.743,120.25L174.812,120.5L174.88,121.75L174.949,121.75L175.017,122.25L175.086,122L175.154,121L175.222,120.25L175.291,120L175.359,120.5L175.428,120.75L175.496,118.75L175.565,118.25L175.633,115L175.702,115.75L175.77,114.75L175.838,117.25L175.907,117.5L176.044,116.75L176.112,116L176.181,115.25L176.249,116L176.318,116.75L176.386,117.25L176.454,118L176.523,117.75L176.591,116.75L176.66,116.75L176.728,117L176.797,117.25L176.865,116.75L176.934,116.5L177.002,114.75L177.07,113.75L177.139,113L177.207,113.75L177.276,113.5L177.344,114.5L177.413,113.75L177.481,113.75L177.55,113.75L177.618,115.25L177.687,116L177.755,118.75L177.823,118.25L177.892,118.5L177.96,117.5L178.029,117.5L178.097,118L178.166,118.75L178.234,118.25L178.303,117.5L178.371,116.5L178.439,115L178.508,113.5L178.576,114.25L178.713,116L178.782,114L178.85,113.75L178.919,113L178.987,111.5L179.055,111.75L179.124,113.25L179.192,114.5L179.261,115L179.398,113.75L179.466,112.75L179.535,112.75L179.603,113.5L179.671,112.5L179.74,113.25L179.808,113.5L179.874,112.75L179.942,112.25L180.011,110.75L180.079,111.25L180.148,111.5L180.216,111.25L180.285,109.5L180.353,108.25L180.422,106L180.49,103.75L180.558,104.25L180.627,103.75L180.695,103.25L180.764,102.25L180.832,100.25L180.901,101.5L180.969,101.25L181.038,101L181.106,103L181.174,102.5L181.243,100.25L181.311,98.25L181.38,96.25L181.448,94.5L181.517,96.5L181.654,93.5L181.722,93.25L181.79,92.75L181.859,90.75L181.927,88L181.996,83.75L182.064,85L182.133,85.75L182.201,85.5L182.27,84.75L182.338,85L182.406,83.5L182.475,80.5L182.543,81.5L182.612,84.25L182.68,83.5L182.749,84.5L182.817,83L182.886,81L182.954,81.25L183.022,81.5L183.091,80.75L183.159,81.5L183.228,79.75L183.296,79.5L183.365,79.5L183.433,79L183.502,80L183.57,82.5L183.638,82.75L183.707,84.25L183.775,83L183.844,84.75L183.912,86.5L183.981,88.75L184.049,93.25L184.118,91.75L184.186,92.25L184.255,91.5L184.323,90.5L184.391,88L184.46,91.5L184.528,95.25L184.597,96.75L184.665,95.5L184.734,94.25L184.802,94.25L184.871,96.25L184.939,98L185.007,98.75L185.076,96.5L185.144,96.5L185.213,96.5L185.281,95.75L185.35,95.5L185.418,96.75L185.487,99.25L185.555,100.5L185.623,99.75L185.692,97.25L185.76,98.25L185.829,99.5L185.897,99.25L185.966,99.25L186.034,97.75L186.103,96.75L186.171,97.75L186.239,97.25L186.308,99L186.376,101.25L186.445,103.5L186.513,101.75L186.582,100.5L186.65,101L186.719,100.5L186.787,103.5L186.855,104L186.924,103.25L186.992,102.75L187.061,102L187.129,103.25L187.198,103.5L187.266,103L187.335,105.75L187.403,105.75L187.54,105.5L187.608,105.5L187.677,104.25L187.814,104.25L187.882,106.5L187.951,106.5L188.019,106L188.087,105.25L188.156,105L188.224,107.5L188.293,108.5L188.361,107.75L188.43,108.5L188.498,107.5L188.567,105.75L188.635,104L188.704,103.25L188.772,104.5L188.84,104.75L188.909,106.5L188.977,105L189.046,104.5L189.114,105.5L189.183,104.75L189.251,106L189.32,107L189.388,107.75L189.456,106.75L189.525,105L189.593,104.25L189.662,105.75L189.73,105.5L189.799,105.75L189.936,104.5L190.004,101.5L190.072,98.5L190.141,98L190.209,98.75L190.278,96L190.346,89.25L190.415,86L190.483,80.75L190.552,78.25L190.62,76.5L190.688,76.25L190.757,77.25L190.825,74.5L190.894,71.5L190.962,66.5L191.031,64.25L191.099,65.5L191.168,66.75L191.236,68L191.304,67L191.373,64.25L191.441,60.5L191.51,53.25L191.578,54.5L191.647,56L191.784,55.5L191.852,51.75L191.92,50.25L191.989,45.25L192.057,45.75L192.126,48.75L192.194,51.75L192.263,51.5L192.331,50.75L192.4,50.75L192.468,54.5L192.537,57.5L192.605,63.25L192.673,66L192.742,66.5L192.81,66L192.879,66L192.947,69.25L193.016,70.75L193.084,75.25L193.153,77.5L193.221,77.25L193.289,74L193.358,71L193.426,71L193.495,72.75L193.563,73.75L193.632,79.75L193.7,76.75L193.769,74.75L193.837,75L193.905,77.25L193.974,76.75L194.042,82.5L194.111,82.75L194.179,81L194.248,80.25L194.316,79.75L194.385,77.75L194.453,78.5L194.521,80.75L194.59,81.25L194.658,80.5L194.727,79.5L194.795,76.75L194.864,75.25L194.932,73L195.001,72.75L195.069,74.25L195.137,72L195.206,69.75L195.274,66.5L195.343,66.5L195.411,69.5L195.48,70.5L195.548,70L195.617,72.25L195.685,73.25L195.753,75.25L195.822,77.75L195.89,78L195.959,78.75L196.027,80L196.096,79L196.167,78.25L196.235,79L196.304,79.25L196.372,80.5L196.441,83.25L196.509,84.75L196.578,80L196.646,78.5L196.715,76.25L196.783,75.5L196.851,79.75L196.92,84L196.988,87.25L197.057,88.5L197.125,85L197.194,83.5L197.262,83.25L197.331,84L197.399,87.25L197.536,87.25L197.604,89.25L197.673,91L197.741,89.75L197.81,90.25L197.878,91.75L197.947,92.5L198.015,94.25L198.084,94.5L198.152,94.5L198.22,94.25L198.289,96.75L198.357,97L198.426,97.25L198.494,96.5L198.563,94.25L198.631,93.75L198.7,98.5L198.768,99.25L198.836,102.75L198.905,104.25L198.973,101.75L199.042,101.5L199.11,102.5L199.179,103.5L199.247,106L199.316,108.5L199.384,109.75L199.452,109.25L199.521,107.75L199.589,107.75L199.658,107.5L199.726,107L199.795,107.5L199.863,107.25L199.932,105.75L200.068,105.75L200.137,105.75L200.205,106L200.274,106L200.342,106.5L200.479,103L200.548,103.25L200.616,103.5L200.684,104.75L200.753,107.5L200.821,109.25L200.958,108.25L201.027,107.75L201.095,106.5L201.164,106.75L201.232,110L201.3,110L201.369,109.5L201.437,109.5L201.506,109.5L201.574,111.5L201.643,113.25L201.711,116.5L201.848,116.75L201.916,115.75L201.985,114.5L202.053,114L202.122,114.25L202.19,114.5L202.259,116.25" stroke="#4c78a8" stroke-width="2"/></g><g class="mark-group role-title"><g transform="translate(100,-22)"><path class="background" aria-hidden="true" d="M0,0h0v0h0Z" pointer-events="none"/><g><g class="mark-text role-title-text" role="graphics-symbol" aria-roledescription="title" aria-label="Title text 'Traffic: Congestion/Gridlock'" pointer-events="none"><text text-anchor="middle" transform="translate(0,10)" font-family="sans-serif" font-size="13px" font-weight="bold" fill="#000" opacity="1">Traffic: Congestion/Gridlock</text></g></g><path class="foreground" aria-hidden="true" d="" pointer-events="none" display="none"/></g></g></g><path class="foreground" aria-hidden="true" d="" display="none"/></g></g></g><defs><clipPath id="clip146"><rect x="0" y="0" width="200" height="150"/></clipPath></defs></svg>