<svg xmlns="http://www.w3.org/2000/svg" xmlns:xlink="http://www.w3.org/1999/xlink" version="1.1" class="marks" width="430" height="194" viewBox="0 0 430 194"><rect width="430" height="194" fill="white"/><g fill="none" stroke-miterlimit="10" transform="translate(115,22)"><g class="mark-group role-frame root" role="graphics-object" aria-roledescription="group mark container"><g transform="translate(0,0)"><path class="background" aria-hidden="true" d="M0,0h200v150h-200Z"/><g><g class="mark-group role-axis" aria-hidden="true"><g transform="translate(0.5,0.5)"><path class="background" aria-hidden="true" d="M0,0h0v0h0Z" pointer-events="none"/><g><g class="mark-rule role-axis-grid" pointer-events="none"><line transform="translate(0,150)" x2="200" y2="0" stroke="#ddd" stroke-width="1" opacity="1"/><line transform="translate(0,103)" x2="200" y2="0" stroke="#ddd" stroke-width="1" opacity="1"/><line transform="translate(0,56)" x2="200" y2="0" stroke="#ddd" stroke-width="1" opacity="1"/><line transform="translate(0,9)" x2="200" y2="0" stroke="#ddd" stroke-width="1" opacity="1"/></g></g><path class="foreground" aria-hidden="true" d="" pointer-events="none" display="none"/></g></g><g class="mark-group role-axis" role="graphics-symbol" aria-roledescription="axis" aria-label="X-axis for a time scale with values from Friday, 01 January 2016, 12:00:00 AM to Monday, 01 January 2024, 12:00:00 AM"><g transform="translate(0.5,150.5)"><path class="background" aria-hidden="true" d="M0,0h0v0h0Z" pointer-events="none"/><g><g class="mark-rule role-axis-tick" pointer-events="none"><line transform="translate(0,0)" x2="0" y2="5" stroke="#888" stroke-width="1" opacity="1"/><line transform="translate(50,0)" x2="0" y2="5" stroke="#888" stroke-width="1" opacity="1"/><line transform="translate(100,0)" x2="0" y2="5" stroke="#888" stroke-width="1" opacity="1"/><line transform="translate(150,0)" x2="0" y2="5" stroke="#888" stroke-width="1" opacity="1"/><line transform="translate(200,0)" x2="0" y2="5" stroke="#888" stroke-width="1" opacity="1"/></g><g class="mark-text role-axis-label" pointer-events="none"><text text-anchor="start" transform="translate(0,15)" font-family="sans-serif" font-size="10px" fill="#000" opacity="1">2016</text><text text-anchor="middle" transform="translate(50.03422313483915,15)" font-family="sans-serif" font-size="10px" fill="#000" opacity="1">2018</text><text text-anchor="middle" transform="translate(100,15)" font-family="sans-serif" font-size="10px" fill="#000" opacity="1">2020</text><text text-anchor="middle" transform="translate(150.03422313483915,15)" font-family="sans-serif" font-size="10px" fill="#000" opacity="1">2022</text><text text-anchor="end" transform="translate(200,15)" font-family="sans-serif" font-size="10px" fill="#000" opacity="1">2024</text></g><g class="mark-rule role-axis-domain" pointer-events="none"><line transform="translate(0,0)" x2="200" y2="0" stroke="#888" stroke-width="1" opacity="1"/></g></g><path class="foreground" aria-hidden="true" d="" pointer-events="none" display="none"/></g></g><g class="mark-group role-axis" role="graphics-symbol" aria-roledescription="axis" aria-label="Y-axis for a linear scale with values from 0 to 16"><g transform="translate(0.5,0.5)"><path class="background" aria-hidden="true" d="M0,0h0v0h0Z" pointer-events="none"/><g><g class="mark-rule role-axis-tick" pointer-events="none"><line transform="translate(0,150)" x2="-5" y2="0" stroke="#888" stroke-opacity="0" stroke-width="1" opacity="1"/><line transform="translate(0,103)" x2="-5" y2="0" stroke="#888" stroke-opacity="0" stroke-width="1" opacity="1"/><line transform="translate(0,56)" x2="-5" y2="0" stroke="#888" stroke-opacity="0" stroke-width="1" opacity="1"/><line transform="translate(0,9)" x2="-5" y2="0" stroke="#888" stroke-opacity="0" stroke-width="1" opacity="1"/></g><g class="mark-text role-axis-label" pointer-events="none"><text text-anchor="end" transform="translate(-7,153)" font-family="sans-serif" font-size="10px" fill="#000" opacity="1">0</text><text text-anchor="end" transform="translate(-7,106.125)" font-family="sans-serif" font-size="10px" fill="#000" opacity="1">5</text><text text-anchor="end" transform="translate(-7,59.25)" font-family="sans-serif" font-size="10px" fill="#000" opacity="1">10</text><text text-anchor="end" transform="translate(-7,12.375)" font-family="sans-serif" font-size="10px" fill="#000" opacity="1">15</text></g></g><path class="foreground" aria-hidden="true" d="" pointer-events="none" display="none"/></g></g><g class="mark-line role-mark marks" clip-path="url(#clip147)" role="graphics-object" aria-roledescription="line mark container"><path aria-label="day: Jan 02, 2010; avg: 4.86666666667" role="graphics-symbol" aria-roledescription="line mark" d="M-149.897,104.375L-149.76,103.75L-149.692,106.875L-149.624,106.25L-149.555,109.375L-149.487,108.75L-149.418,108.75L-149.281,108.125L-149.213,110.625L-149.144,112.188L-149.076,113.438L-149.008,114.688L-148.939,115L-148.802,113.75L-148.734,114.063L-148.665,114.688L-148.597,113.75L-148.528,113.438L-148.392,115.938L-148.323,115L-148.255,116.25L-148.186,118.125L-148.118,117.813L-148.049,117.5L-147.912,117.813L-147.844,117.813L-147.775,119.375L-147.707,123.125L-147.639,125L-147.57,124.375L-147.502,122.188L-147.433,120.625L-147.365,118.75L-147.296,117.5L-147.228,118.125L-147.159,116.563L-147.091,115L-147.023,113.438L-146.954,112.813L-146.886,112.188L-146.817,110L-146.749,108.75L-146.612,107.5L-146.543,107.188L-146.475,105.313L-146.407,104.688L-146.338,105.313L-146.27,104.375L-146.201,105L-146.133,105.313L-145.996,104.375L-145.927,103.438L-145.859,104.063L-145.791,104.375L-145.722,103.75L-145.654,100.313L-145.585,97.813L-145.517,97.188L-145.448,92.5L-145.38,93.75L-145.311,93.75L-145.243,94.375L-145.175,95.938L-145.038,94.375L-144.904,92.187L-144.835,94.063L-144.767,94.375L-144.698,94.688L-144.561,92.187L-144.493,90.625L-144.424,90.625L-144.356,92.187L-144.288,94.063L-144.219,95L-144.151,95L-144.082,94.063L-144.014,92.813L-143.945,90.938L-143.877,90.625L-143.808,91.25L-143.74,89.375L-143.672,86.875L-143.603,78.125L-143.535,77.188L-143.466,74.688L-143.398,77.813L-143.329,77.813L-143.261,76.563L-143.124,80L-143.056,76.563L-142.987,78.125L-142.919,79.688L-142.85,79.688L-142.782,82.5L-142.645,83.125L-142.576,82.812L-142.508,83.75L-142.44,84.375L-142.371,85.938L-142.303,85L-142.234,85L-142.166,82.187L-142.097,80.938L-142.029,80.313L-141.96,80.938L-141.892,82.812L-141.824,80.313L-141.755,82.5L-141.687,80.938L-141.618,75.938L-141.55,78.75L-141.481,82.5L-141.413,89.063L-141.344,87.5L-141.276,87.813L-141.139,87.188L-141.071,89.063L-141.002,91.25L-140.934,92.5L-140.865,95L-140.797,94.375L-140.66,91.562L-140.591,90.625L-140.523,90.938L-140.455,91.562L-140.386,90.625L-140.249,89.375L-140.181,89.375L-140.112,90L-140.044,91.875L-139.975,93.438L-139.907,96.563L-139.839,95.938L-139.77,96.875L-139.702,97.188L-139.633,95.625L-139.565,99.688L-139.496,100.937L-139.428,102.188L-139.359,105.313L-139.291,104.375L-139.223,103.125L-139.154,105.313L-139.086,107.813L-139.017,109.688L-138.949,108.125L-138.88,108.438L-138.812,107.188L-138.743,105L-138.675,105.938L-138.607,107.813L-138.538,106.875L-138.47,106.25L-138.333,105.625L-138.264,103.438L-138.196,105.313L-138.127,107.188L-138.059,105.938L-137.991,105.313L-137.922,103.125L-137.854,102.813L-137.717,101.562L-137.648,103.125L-137.58,101.562L-137.511,101.25L-137.375,101.25L-137.306,99.063L-137.238,99.375L-137.169,100L-137.101,101.25L-137.032,101.25L-136.964,100.937L-136.895,97.813L-136.827,96.25L-136.758,96.563L-136.69,98.75L-136.622,98.438L-136.553,96.875L-136.485,97.813L-136.416,97.5L-136.348,96.875L-136.279,98.75L-136.211,100.313L-136.142,100.313L-136.074,100.937L-136.006,98.438L-135.869,97.813L-135.8,97.813L-135.732,99.375L-135.663,101.875L-135.595,100.625L-135.458,100.937L-135.39,98.75L-135.321,99.375L-135.253,97.188L-135.184,98.75L-135.116,100.313L-135.047,100L-134.979,100L-134.91,99.688L-134.842,99.688L-134.774,100L-134.705,103.438L-134.637,104.375L-134.568,103.438L-134.5,101.25L-134.431,98.75L-134.363,100L-134.294,98.75L-134.226,99.063L-134.158,99.375L-134.089,99.688L-133.952,99.688L-133.884,99.375L-133.815,94.688L-133.747,95.313L-133.678,95.625L-133.61,97.813L-133.542,95.625L-133.473,95L-133.405,94.375L-133.336,95.313L-133.268,96.25L-133.199,96.875L-133.131,100L-133.062,99.375L-132.994,98.438L-132.926,95.313L-132.857,94.688L-132.789,94.063L-132.72,94.375L-132.652,93.125L-132.583,90L-132.515,90L-132.446,88.438L-132.378,90L-132.309,92.187L-132.241,93.125L-132.173,95.625L-132.104,94.375L-132.036,90.625L-131.967,90L-131.899,88.75L-131.83,90L-131.762,97.188L-131.693,96.25L-131.625,95L-131.557,94.375L-131.488,95.625L-131.42,96.875L-131.351,99.688L-131.283,99.688L-131.214,98.125L-131.146,96.563L-131.077,94.375L-131.009,93.75L-130.941,92.813L-130.872,95L-130.804,95L-130.735,95.938L-130.598,95L-130.53,95.313L-130.461,96.563L-130.393,97.5L-130.325,99.688L-130.256,97.188L-130.188,98.125L-130.119,97.813L-130.051,96.25L-129.982,96.25L-129.914,99.063L-129.845,100.937L-129.777,101.562L-129.709,99.375L-129.64,98.125L-129.572,100.625L-129.503,101.875L-129.435,102.813L-129.366,101.875L-129.298,99.688L-129.229,98.125L-129.161,96.563L-129.093,98.125L-129.024,100L-128.956,100.313L-128.887,98.75L-128.75,95.313L-128.679,94.688L-128.611,95.938L-128.542,96.25L-128.474,97.5L-128.405,98.438L-128.337,99.375L-128.268,98.75L-128.2,98.125L-128.131,100.625L-128.063,100.625L-127.995,101.562L-127.926,103.125L-127.858,104.063L-127.789,104.063L-127.721,102.813L-127.652,104.063L-127.584,106.25L-127.447,107.188L-127.379,107.5L-127.31,107.5L-127.242,107.188L-127.173,109.063L-127.105,111.563L-127.036,113.125L-126.968,113.125L-126.899,114.688L-126.831,115L-126.762,115.938L-126.694,118.75L-126.626,124.063L-126.557,124.688L-126.489,124.375L-126.42,124.688L-126.283,123.438L-126.215,123.438L-126.146,124.063L-126.078,124.688L-126.01,125.313L-125.941,126.563L-125.873,125.625L-125.804,124.063L-125.736,124.063L-125.667,124.063L-125.599,124.375L-125.53,123.125L-125.462,122.813L-125.394,121.563L-125.325,121.563L-125.188,120.938L-125.12,121.25L-125.051,120.625L-124.983,119.687L-124.914,118.75L-124.846,118.75L-124.778,120L-124.709,119.375L-124.641,118.75L-124.572,119.375L-124.504,118.438L-124.367,118.125L-124.298,119.375L-124.23,119.375L-124.162,114.688L-124.093,115.938L-124.025,115.625L-123.956,115.313L-123.888,114.375L-123.819,115L-123.751,114.063L-123.682,113.125L-123.614,113.438L-123.546,112.813L-123.409,113.438L-123.34,114.375L-123.272,116.25L-123.203,115L-123.135,115.625L-122.998,115.313L-122.93,115L-122.861,115L-122.793,115.938L-122.724,111.875L-122.656,112.188L-122.587,112.188L-122.45,110.937L-122.382,111.563L-122.313,111.25L-122.245,111.25L-122.177,111.25L-122.108,110.312L-122.04,109.688L-121.971,109.063L-121.903,113.438L-121.834,112.5L-121.766,113.438L-121.697,112.5L-121.629,111.875L-121.492,109.688L-121.424,110L-121.355,109.063L-121.287,109.063L-121.218,107.813L-121.15,107.813L-121.013,106.875L-120.945,107.188L-120.876,108.438L-120.808,108.125L-120.739,107.5L-120.671,108.125L-120.534,106.875L-120.465,106.563L-120.397,110.937L-120.329,110.312L-120.26,107.813L-120.123,108.125L-120.058,108.125L-119.989,109.063L-119.921,105.625L-119.852,105.313L-119.784,103.125L-119.715,103.438L-119.578,103.125L-119.51,103.438L-119.442,104.688L-119.373,104.688L-119.305,105.313L-119.099,105.625L-119.031,107.813L-118.962,104.375L-118.894,106.875L-118.826,107.813L-118.757,108.75L-118.62,104.063L-118.552,104.688L-118.483,101.562L-118.415,100.937L-118.346,101.562L-118.278,101.875L-118.21,101.562L-118.141,102.188L-118.073,101.25L-118.004,101.875L-117.936,102.5L-117.867,103.75L-117.799,103.438L-117.73,100.313L-117.662,99.688L-117.594,101.25L-117.525,101.875L-117.457,105.938L-117.388,105.313L-117.32,104.688L-117.251,103.75L-117.183,102.5L-117.114,102.813L-117.046,103.125L-116.978,103.438L-116.909,103.125L-116.841,105.313L-116.772,104.688L-116.704,104.063L-116.635,102.5L-116.567,106.875L-116.498,106.25L-116.43,109.063L-116.362,109.375L-116.225,106.875L-116.156,106.875L-116.088,106.875L-115.951,107.5L-115.882,103.438L-115.814,102.188L-115.745,100.937L-115.677,98.438L-115.609,97.5L-115.54,99.688L-115.472,99.375L-115.403,101.25L-115.335,100.937L-115.266,100.313L-115.198,99.375L-115.129,98.75L-115.061,99.688L-114.993,101.25L-114.924,100.313L-114.856,99.688L-114.787,99.688L-114.719,99.063L-114.65,99.063L-114.582,98.125L-114.513,98.75L-114.445,99.688L-114.308,99.688L-114.24,98.125L-114.171,98.438L-114.103,99.063L-114.034,100.313L-113.966,97.813L-113.897,96.25L-113.829,93.75L-113.761,97.5L-113.692,98.438L-113.624,99.688L-113.555,102.813L-113.487,104.063L-113.418,103.125L-113.35,102.5L-113.281,101.875L-113.213,100.625L-113.145,100.313L-113.076,101.25L-113.008,103.438L-112.939,102.188L-112.871,101.25L-112.802,102.188L-112.734,101.25L-112.665,101.25L-112.597,101.562L-112.529,102.188L-112.392,101.25L-112.323,100.313L-112.255,101.875L-112.186,100.937L-112.118,101.562L-111.981,100.313L-111.913,99.375L-111.844,100.313L-111.776,103.125L-111.707,99.688L-111.639,101.875L-111.57,102.813L-111.433,102.5L-111.365,103.125L-111.296,99.688L-111.228,99.375L-111.16,98.75L-111.091,100L-110.954,101.25L-110.886,103.438L-110.817,103.75L-110.749,102.188L-110.68,101.875L-110.612,101.875L-110.544,101.875L-110.475,100.625L-110.407,102.188L-110.338,102.813L-110.27,103.125L-110.201,102.813L-110.133,104.375L-109.996,105L-109.928,105L-109.859,105.625L-109.791,106.25L-109.722,107.813L-109.654,105.938L-109.517,106.25L-109.448,106.875L-109.38,112.5L-109.312,110.937L-109.243,110.937L-109.106,109.375L-109.038,107.5L-108.969,109.688L-108.901,110.312L-108.832,112.188L-108.764,110.312L-108.696,108.75L-108.559,107.813L-108.49,107.5L-108.422,109.063L-108.353,109.063L-108.285,108.75L-108.216,109.688L-108.148,110.625L-108.08,108.125L-108.011,107.813L-107.943,106.875L-107.874,108.125L-107.806,109.063L-107.737,108.125L-107.6,107.188L-107.532,105L-107.463,104.375L-107.395,104.688L-107.327,107.188L-107.258,105.625L-107.19,103.438L-107.121,100.625L-107.053,102.188L-106.984,101.875L-106.916,103.75L-106.847,105.625L-106.779,105.313L-106.711,104.063L-106.642,101.25L-106.574,101.875L-106.505,102.813L-106.437,103.438L-106.368,104.375L-106.231,104.375L-106.163,104.063L-106.095,102.188L-106.026,100.625L-105.958,99.063L-105.889,101.25L-105.821,101.562L-105.752,100.937L-105.684,98.125L-105.615,95.625L-105.547,96.25L-105.479,96.875L-105.41,99.375L-105.342,100L-105.273,99.063L-105.205,95.313L-105.136,96.875L-105.068,98.438L-104.999,99.688L-104.931,100L-104.863,100L-104.794,97.813L-104.726,97.188L-104.657,98.75L-104.589,100.625L-104.52,101.875L-104.452,103.438L-104.383,103.438L-104.315,98.75L-104.247,97.813L-104.178,97.813L-104.11,96.563L-104.041,97.188L-103.973,92.187L-103.904,93.125L-103.836,92.813L-103.765,91.25L-103.696,91.875L-103.628,92.187L-103.559,94.063L-103.491,94.688L-103.422,95.313L-103.354,94.688L-103.285,95.313L-103.217,95.625L-103.149,99.375L-103.08,98.438L-103.012,98.438L-102.943,100L-102.875,99.375L-102.806,98.438L-102.738,97.813L-102.669,97.5L-102.601,97.813L-102.533,97.813L-102.464,99.375L-102.396,99.063L-102.327,99.375L-102.259,102.5L-102.19,101.562L-102.122,102.5L-102.053,104.063L-101.985,106.875L-101.916,106.563L-101.848,103.438L-101.78,104.688L-101.711,104.063L-101.643,98.75L-101.574,100.937L-101.506,100.937L-101.437,100.625L-101.369,100.313L-101.3,100L-101.232,100.625L-101.164,99.375L-101.095,99.688L-101.027,100.937L-100.958,94.063L-100.89,92.813L-100.821,92.5L-100.753,93.125L-100.684,88.125L-100.616,88.125L-100.548,87.5L-100.411,87.813L-100.342,85.313L-100.274,83.75L-100.205,82.187L-100.137,83.438L-100.068,83.75L-99.932,83.438L-99.863,83.125L-99.726,80.313L-99.658,86.563L-99.521,89.375L-99.452,89.375L-99.384,90L-99.316,96.25L-99.247,95.938L-99.179,95.625L-98.973,95.625L-98.905,95.313L-98.836,96.563L-98.768,95.313L-98.7,93.75L-98.631,93.75L-98.563,93.125L-98.494,97.813L-98.426,98.438L-98.357,99.375L-98.289,99.375L-98.22,107.5L-98.152,108.438L-98.084,109.063L-98.015,108.438L-97.947,110.937L-97.878,112.188L-97.81,111.25L-97.741,110.312L-97.604,109.375L-97.467,108.75L-97.399,109.688L-97.331,111.875L-97.262,112.5L-97.125,112.188L-97.057,109.063L-96.988,110.312L-96.92,109.063L-96.851,109.688L-96.783,110L-96.715,109.063L-96.646,109.375L-96.578,108.125L-96.509,107.5L-96.441,104.063L-96.372,103.125L-96.304,102.188L-96.235,102.5L-96.167,100.937L-96.099,98.125L-96.03,96.25L-95.962,93.75L-95.893,93.75L-95.756,94.063L-95.688,93.438L-95.619,90.313L-95.551,87.813L-95.483,90L-95.414,90.625L-95.346,92.5L-95.277,92.813L-95.209,90.313L-95.143,88.75L-95.075,86.875L-95.006,88.75L-94.938,91.562L-94.869,91.875L-94.801,93.438L-94.732,92.5L-94.664,88.75L-94.596,88.438L-94.527,87.813L-94.459,85.625L-94.39,87.188L-94.322,94.063L-94.253,94.063L-94.185,92.813L-94.116,93.75L-94.048,93.75L-93.98,95.938L-93.911,98.438L-93.843,100.313L-93.774,99.688L-93.706,97.5L-93.637,98.125L-93.569,98.75L-93.5,100.937L-93.432,101.25L-93.364,101.875L-93.295,101.562L-93.227,100L-93.158,100L-93.09,100.313L-93.021,100.313L-92.953,99.375L-92.884,94.688L-92.816,92.5L-92.748,91.875L-92.679,91.25L-92.611,93.75L-92.542,95.625L-92.474,95.938L-92.405,98.125L-92.337,95.625L-92.268,93.75L-92.2,92.187L-92.132,94.375L-92.063,95.938L-91.995,97.813L-91.926,96.563L-91.858,96.25L-91.789,93.75L-91.721,93.438L-91.652,95.313L-91.584,95L-91.516,96.875L-91.447,95.625L-91.379,91.875L-91.31,92.187L-91.242,92.5L-91.173,92.813L-91.105,92.187L-91.036,92.5L-90.899,94.063L-90.831,94.063L-90.763,98.438L-90.694,100.313L-90.626,98.125L-90.557,98.125L-90.489,98.75L-90.42,98.125L-90.352,95.938L-90.283,96.25L-90.215,99.063L-90.147,100.625L-90.078,100.937L-90.01,100L-89.941,97.813L-89.804,95.625L-89.736,97.5L-89.667,97.188L-89.599,97.5L-89.394,85.625L-89.325,85.625L-89.257,86.563L-89.188,85.625L-89.12,87.5L-89.051,88.125L-88.983,85.938L-88.915,84.375L-88.846,85.313L-88.778,88.125L-88.709,88.75L-88.641,89.063L-88.572,87.188L-88.504,84.375L-88.435,84.688L-88.367,85.625L-88.299,87.5L-88.23,87.5L-88.162,87.5L-88.093,88.125L-88.025,88.125L-87.956,86.563L-87.888,85.625L-87.819,87.5L-87.751,88.438L-87.683,90.313L-87.614,89.375L-87.546,87.5L-87.477,86.563L-87.409,88.125L-87.34,100.313L-87.272,100.625L-87.203,100.625L-87.067,100.937L-86.998,99.688L-86.93,102.5L-86.861,102.813L-86.793,105L-86.724,104.688L-86.656,103.125L-86.587,101.562L-86.519,99.688L-86.45,100.625L-86.382,102.813L-86.314,103.125L-86.245,105L-86.108,103.75L-86.04,105L-85.971,105.625L-85.903,105.313L-85.834,105.625L-85.766,106.563L-85.698,106.875L-85.629,105.313L-85.561,104.688L-85.492,102.813L-85.424,105.313L-85.355,107.188L-85.287,108.438L-85.218,107.813L-85.15,107.813L-85.082,105.625L-85.013,103.75L-84.945,105.313L-84.876,105.938L-84.808,104.375L-84.739,104.688L-84.671,102.813L-84.602,101.875L-84.534,103.438L-84.466,105.313L-84.397,106.563L-84.329,108.125L-84.26,106.563L-84.192,105.625L-84.123,104.375L-84.055,105L-83.986,102.188L-83.918,98.75L-83.85,100.937L-83.781,100.625L-83.644,95.313L-83.576,95.625L-83.507,97.5L-83.439,95.938L-83.37,96.563L-83.234,95.625L-83.165,94.688L-83.097,94.375L-83.028,95.938L-82.96,94.063L-82.891,95.625L-82.823,95.313L-82.754,94.375L-82.617,91.25L-82.549,92.5L-82.481,94.063L-82.412,95.313L-82.344,95.313L-82.275,94.688L-82.207,93.125L-82.138,91.25L-82.07,89.375L-82.001,92.187L-81.933,92.187L-81.865,91.562L-81.728,90.625L-81.659,91.875L-81.591,92.813L-81.522,92.813L-81.454,93.75L-81.385,98.75L-81.317,99.375L-81.249,99.063L-81.18,101.25L-81.112,101.562L-81.043,102.813L-80.975,103.438L-80.906,104.688L-80.838,104.375L-80.769,105.625L-80.701,105.625L-80.633,106.875L-80.564,107.813L-80.496,108.75L-80.427,108.438L-80.359,107.5L-80.29,107.813L-80.222,109.375L-80.153,109.375L-80.085,110.937L-80.017,112.813L-79.948,114.688L-79.88,112.5L-79.811,112.813L-79.743,114.375L-79.674,114.375L-79.606,115.938L-79.537,117.5L-79.127,117.5L-79.058,116.875L-78.921,115.625L-78.85,114.688L-78.782,112.5L-78.713,112.5L-78.645,113.125L-78.576,112.188L-78.508,110L-78.439,107.5L-78.371,106.563L-78.303,106.25L-78.234,106.875L-78.166,107.813L-78.097,106.875L-78.029,107.813L-77.96,107.188L-77.892,107.188L-77.823,107.5L-77.755,103.75L-77.618,104.063L-77.55,104.375L-77.481,105L-77.413,104.375L-77.344,104.063L-77.276,103.438L-77.207,103.75L-77.139,104.688L-77.07,104.063L-77.002,103.75L-76.934,101.562L-76.865,100.625L-76.797,101.875L-76.728,102.5L-76.66,104.375L-76.591,103.438L-76.454,102.5L-76.386,102.813L-76.318,105L-76.249,107.5L-76.181,108.75L-76.112,110L-75.975,109.375L-75.907,108.75L-75.838,108.438L-75.77,109.375L-75.702,110L-75.633,108.438L-75.291,106.875L-75.222,110.625L-75.154,110L-75.086,110.312L-75.017,108.75L-74.88,108.438L-74.812,110.625L-74.743,111.875L-74.606,111.563L-74.538,112.188L-74.47,112.188L-74.401,113.125L-74.333,114.375L-74.264,115.625L-74.196,116.563L-74.127,116.563L-74.059,115.938L-73.99,116.25L-73.922,116.25L-73.854,117.5L-73.785,117.813L-73.648,117.813L-73.58,116.563L-73.511,116.875L-73.374,117.188L-73.238,116.875L-73.169,116.875L-73.101,116.875L-73.032,118.125L-72.895,117.813L-72.69,116.563L-72.621,115.625L-72.553,116.875L-72.485,115L-72.416,115.313L-72.348,112.5L-72.211,111.25L-72.142,110.937L-72.074,111.25L-72.005,108.438L-71.937,99.375L-71.869,95.313L-71.8,95.938L-71.732,93.438L-71.663,93.125L-71.595,91.25L-71.526,92.187L-71.458,91.875L-71.389,91.875L-71.321,90.625L-71.253,90.625L-71.184,89.688L-71.116,89.375L-71.047,87.5L-70.979,83.75L-70.91,81.875L-70.842,81.563L-70.705,81.875L-70.637,81.875L-70.568,83.75L-70.5,85.625L-70.363,86.563L-70.229,84.688L-70.16,85.313L-70.092,86.25L-70.023,90L-69.955,90.938L-69.75,89.688L-69.681,89.688L-69.613,90L-69.544,97.5L-69.476,101.562L-69.407,101.562L-69.339,103.438L-69.27,102.188L-69.202,101.875L-69.134,99.063L-69.065,98.438L-68.997,99.688L-68.928,97.813L-68.86,94.063L-68.791,92.813L-68.723,93.438L-68.654,93.75L-68.586,97.188L-68.518,98.75L-68.449,99.063L-68.381,95.313L-68.312,94.375L-68.244,93.125L-68.175,94.063L-68.107,94.688L-68.038,92.187L-67.97,90.625L-67.902,88.438L-67.833,87.813L-67.765,87.188L-67.696,88.438L-67.628,88.75L-67.559,89.688L-67.491,90.938L-67.422,88.75L-67.286,86.563L-67.217,86.563L-67.149,87.813L-67.08,90.313L-67.012,93.438L-66.943,92.813L-66.875,91.562L-66.806,92.813L-66.738,95.313L-66.67,97.5L-66.601,98.75L-66.533,97.813L-66.464,96.25L-66.396,95.313L-66.327,94.375L-66.259,96.875L-66.19,96.875L-66.122,98.125L-65.985,97.813L-65.917,95.313L-65.848,97.5L-65.78,97.188L-65.711,98.75L-65.643,98.438L-65.574,97.188L-65.506,96.25L-65.437,95.625L-65.369,94.063L-65.301,94.375L-65.232,95.938L-65.164,97.188L-65.095,97.813L-65.027,95.313L-64.958,94.688L-64.89,93.438L-64.821,95.625L-64.753,96.563L-64.685,98.438L-64.616,98.125L-64.548,97.813L-64.479,97.813L-64.411,100.313L-64.342,102.5L-64.274,103.438L-64.205,103.75L-64.137,104.688L-64.069,104.063L-64,104.375L-63.932,103.75L-63.863,104.063L-63.795,104.688L-63.726,106.875L-63.658,106.25L-63.521,106.563L-63.453,108.75L-63.384,109.063L-63.316,107.188L-63.247,110L-63.179,109.688L-63.11,107.813L-63.042,106.875L-62.973,106.875L-62.905,108.438L-62.837,106.875L-62.7,103.438L-62.631,102.813L-62.563,102.5L-62.494,101.875L-62.426,103.438L-62.357,103.75L-62.289,103.75L-62.152,102.813L-62.084,102.5L-62.015,102.813L-61.947,104.688L-61.878,105.938L-61.81,107.188L-61.741,104.688L-61.604,105.313L-61.536,105.938L-61.468,107.188L-61.399,107.813L-61.331,108.125L-61.262,107.813L-61.194,106.563L-61.125,107.188L-61.057,109.688L-60.988,109.688L-60.92,110.312L-60.852,111.875L-60.783,113.75L-60.715,112.188L-60.646,112.5L-60.578,114.375L-60.509,117.5L-60.441,118.438L-60.372,119.375L-60.304,118.125L-60.236,115.938L-60.167,113.125L-60.099,112.5L-60.03,112.813L-59.962,112.188L-59.893,112.188L-59.756,111.25L-59.688,110.312L-59.62,109.063L-59.551,110.312L-59.414,110.312L-59.346,111.25L-59.277,109.375L-59.209,107.188L-59.14,106.25L-59.072,104.375L-59.004,104.688L-58.935,103.75L-58.867,103.75L-58.798,102.813L-58.73,100.937L-58.661,99.063L-58.593,98.438L-58.524,99.688L-58.456,99.375L-58.388,99.063L-58.319,100.313L-58.251,97.188L-58.182,96.875L-58.114,98.438L-58.045,100.625L-57.977,100.313L-57.908,99.063L-57.84,95.625L-57.772,95.625L-57.703,95.625L-57.635,96.563L-57.566,96.875L-57.498,96.25L-57.429,96.563L-57.361,92.813L-57.292,91.562L-57.224,93.438L-57.155,95.313L-57.087,95.938L-57.019,97.188L-56.95,97.813L-56.882,98.125L-56.813,98.125L-56.745,99.063L-56.676,100L-56.608,102.188L-56.539,102.5L-56.471,101.25L-56.266,100.313L-56.197,100.625L-56.129,100.625L-56.06,103.438L-55.992,101.25L-55.923,101.25L-55.855,100.625L-55.787,102.188L-55.718,103.125L-55.65,106.875L-55.581,106.25L-55.444,107.188L-55.376,107.5L-55.307,105.938L-55.239,106.875L-55.171,108.438L-55.102,112.5L-54.965,111.875L-54.897,110.625L-54.828,110.625L-54.76,109.688L-54.691,111.25L-54.623,110.625L-54.555,111.563L-54.486,110L-54.418,110.312L-54.349,110.312L-54.281,111.25L-54.212,111.563L-54.144,112.813L-54.075,113.125L-54.007,111.25L-53.936,107.813L-53.867,107.188L-53.799,106.25L-53.73,105.938L-53.662,105.625L-53.593,105.625L-53.525,106.25L-53.457,105.313L-53.388,106.875L-53.32,106.563L-53.251,105L-53.183,107.188L-53.114,108.125L-53.046,106.875L-52.977,105.313L-52.909,105.938L-52.841,107.188L-52.772,107.188L-52.704,108.75L-52.635,106.563L-52.567,106.25L-52.498,105.938L-52.43,104.688L-52.361,102.813L-52.225,103.125L-52.156,102.188L-52.088,94.063L-52.019,94.063L-51.951,93.75L-51.882,94.375L-51.814,97.5L-51.745,98.438L-51.677,100.937L-51.608,98.125L-51.54,97.188L-51.472,98.125L-51.403,95.938L-51.335,96.875L-51.266,94.688L-51.198,94.063L-51.129,90.313L-51.061,88.75L-50.992,87.188L-50.924,87.813L-50.856,89.375L-50.787,89.688L-50.719,89.063L-50.65,89.688L-50.582,88.75L-50.513,90L-50.445,90.625L-50.376,90.938L-50.308,91.562L-50.24,92.5L-50.171,92.5L-50.103,92.5L-50.034,100.937L-49.897,101.25L-49.829,102.813L-49.76,104.063L-49.692,104.063L-49.624,103.75L-49.555,103.438L-49.487,106.875L-49.418,108.75L-49.35,108.75L-49.281,110.625L-49.213,110.937L-49.144,111.875L-49.076,112.813L-49.008,117.188L-48.939,118.125L-48.871,119.687L-48.802,119.687L-48.665,117.188L-48.597,118.438L-48.528,118.125L-48.46,116.25L-48.392,117.188L-48.323,118.438L-48.255,119.063L-48.186,116.875L-48.118,118.75L-48.049,117.813L-47.981,117.813L-47.912,118.438L-47.844,118.125L-47.775,116.25L-47.707,114.688L-47.639,113.125L-47.57,111.563L-47.502,111.875L-47.433,110.312L-47.365,110L-47.296,107.188L-47.228,104.063L-47.159,102.813L-47.091,100L-47.023,99.688L-46.954,99.375L-46.886,98.438L-46.817,96.563L-46.749,92.813L-46.68,90.625L-46.612,91.25L-46.543,90.313L-46.475,90.625L-46.407,90.938L-46.338,89.688L-46.27,89.063L-46.201,87.188L-46.133,87.188L-46.064,86.563L-45.996,86.875L-45.927,86.563L-45.859,85.938L-45.791,85.313L-45.722,86.875L-45.654,85.938L-45.585,86.875L-45.517,89.063L-45.448,87.813L-45.38,89.375L-45.314,88.75L-45.246,90.313L-45.177,92.187L-45.109,94.063L-45.04,96.563L-44.972,97.813L-44.904,96.25L-44.835,95.625L-44.767,97.5L-44.698,99.063L-44.63,100.937L-44.561,102.188L-44.493,102.813L-44.424,102.188L-44.356,102.188L-44.288,102.188L-44.219,100.313L-44.151,101.562L-44.082,102.188L-44.014,101.562L-43.945,101.875L-43.877,102.813L-43.808,101.875L-43.74,102.5L-43.672,101.875L-43.603,104.375L-43.535,105L-43.466,102.813L-43.398,101.875L-43.329,101.875L-43.261,102.5L-43.192,103.125L-43.124,104.063L-43.056,103.125L-42.987,102.5L-42.919,101.25L-42.85,101.562L-42.782,102.5L-42.713,102.813L-42.645,105L-42.576,102.5L-42.508,101.875L-42.44,100.625L-42.371,100.313L-42.303,101.25L-42.234,102.813L-42.166,105.313L-42.097,105.625L-42.029,105.938L-41.96,104.688L-41.892,103.75L-41.824,102.188L-41.755,102.813L-41.687,101.25L-41.618,99.063L-41.55,98.438L-41.481,97.813L-41.413,97.188L-41.344,96.875L-41.276,97.5L-41.208,94.688L-41.071,92.5L-41.002,89.688L-40.934,89.375L-40.865,89.063L-40.797,90.313L-40.728,91.25L-40.66,88.75L-40.591,87.813L-40.523,87.5L-40.455,87.813L-40.386,86.563L-40.318,85.938L-40.249,84.688L-40.181,82.5L-40.112,79.688L-40.044,77.813L-39.975,77.813L-39.907,78.438L-39.839,79.688L-39.77,81.25L-39.633,79.688L-39.565,80L-39.496,82.187L-39.428,83.438L-39.359,84.375L-39.291,83.125L-39.223,82.812L-39.154,82.5L-39.086,82.5L-39.017,85.313L-38.949,87.188L-38.88,90.938L-38.812,90.625L-38.743,90L-38.675,89.375L-38.607,87.5L-38.538,90L-38.47,88.438L-38.401,88.438L-38.333,89.688L-38.127,89.063L-38.059,89.688L-37.991,90.313L-37.922,92.187L-37.854,95.625L-37.785,97.188L-37.717,95.938L-37.648,93.125L-37.58,93.125L-37.511,91.875L-37.443,95L-37.375,95.313L-37.306,93.75L-37.238,94.375L-37.169,94.063L-37.101,94.063L-37.032,96.25L-36.964,97.5L-36.895,97.5L-36.827,97.5L-36.758,96.875L-36.69,96.875L-36.622,96.25L-36.553,96.563L-36.485,96.25L-36.416,97.813L-36.348,98.438L-36.279,99.688L-36.211,96.875L-36.142,94.688L-36.074,94.375L-36.006,94.063L-35.937,95.313L-35.869,95.938L-35.8,95L-35.732,94.375L-35.663,95L-35.595,95.625L-35.526,95L-35.458,96.563L-35.39,97.188L-35.321,96.875L-35.253,96.25L-35.184,96.875L-35.116,95L-35.047,95.313L-34.979,94.688L-34.91,95.938L-34.842,94.063L-34.774,92.5L-34.705,92.187L-34.637,89.688L-34.568,91.25L-34.5,92.5L-34.431,92.813L-34.363,89.688L-34.294,88.75L-34.226,88.438L-34.158,90.938L-34.089,94.375L-34.021,96.563L-33.952,97.5L-33.884,95.313L-33.815,93.438L-33.747,92.187L-33.678,91.562L-33.61,91.562L-33.542,94.375L-33.473,95L-33.405,92.187L-33.336,90L-33.268,88.438L-33.199,89.063L-33.131,88.438L-33.062,90.625L-32.994,92.5L-32.926,88.75L-32.857,88.438L-32.789,89.063L-32.72,88.438L-32.652,88.438L-32.583,88.438L-32.446,85.938L-32.378,84.688L-32.309,82.812L-32.241,86.875L-32.173,88.438L-32.104,88.75L-32.036,87.813L-31.967,85.313L-31.899,85.313L-31.83,86.25L-31.762,89.375L-31.693,89.375L-31.625,90.313L-31.557,91.562L-31.488,91.25L-31.42,89.375L-31.351,90.313L-31.283,92.187L-31.214,92.187L-31.146,93.125L-31.077,91.562L-31.009,92.5L-30.941,90.938L-30.872,90L-30.804,95.313L-30.735,93.438L-30.667,93.75L-30.461,95L-30.393,95.938L-30.325,97.188L-30.256,100L-30.188,101.562L-30.119,102.813L-30.051,102.813L-29.982,101.875L-29.914,102.5L-29.845,104.063L-29.777,107.188L-29.709,106.875L-29.64,105.313L-29.572,104.375L-29.503,105L-29.435,105L-29.366,104.375L-29.298,99.688L-29.161,99.688L-29.093,99.063L-29.021,99.063L-28.953,99.063L-28.884,99.688L-28.816,102.813L-28.747,103.125L-28.679,104.375L-28.611,102.813L-28.542,101.875L-28.474,100.625L-28.405,100.625L-28.337,101.562L-28.268,101.25L-28.2,101.875L-28.131,101.875L-28.063,96.25L-27.995,96.25L-27.926,93.438L-27.858,92.813L-27.789,91.562L-27.652,90.625L-27.584,90.313L-27.515,91.875L-27.447,93.75L-27.379,94.063L-27.31,94.063L-27.242,94.375L-27.173,92.813L-27.105,97.5L-27.036,99.375L-26.968,99.375L-26.899,100.313L-26.831,101.875L-26.762,101.562L-26.694,100.937L-26.626,100.313L-26.557,99.688L-26.489,101.875L-26.42,102.813L-26.352,106.563L-26.283,107.813L-26.215,108.125L-26.146,108.438L-26.078,108.438L-26.01,106.25L-25.941,111.25L-25.804,112.188L-25.736,115L-25.667,115L-25.599,115L-25.53,114.688L-25.462,112.813L-25.394,112.5L-25.325,112.5L-25.257,112.813L-25.188,114.063L-25.12,113.125L-25.051,115.625L-24.983,116.875L-24.914,116.563L-24.846,117.5L-24.778,117.188L-24.709,116.563L-24.641,116.563L-24.572,117.188L-24.504,117.188L-24.435,117.5L-24.367,117.188L-24.298,116.563L-24.23,116.563L-24.162,113.75L-24.093,113.125L-24.025,113.75L-23.956,114.063L-23.888,116.25L-23.819,116.875L-23.751,117.188L-23.682,116.875L-23.614,118.438L-23.546,119.687L-23.477,120.625L-23.34,121.875L-23.272,121.25L-23.203,119.375L-23.135,119.687L-23.066,120L-22.998,121.875L-22.793,120.313L-22.724,120L-22.656,118.75L-22.587,115.938L-22.519,114.375L-22.45,115.313L-22.382,116.563L-22.313,115.938L-22.245,115.313L-22.177,115.313L-22.04,114.375L-21.834,114.375L-21.766,113.438L-21.697,115.625L-21.629,115.938L-21.561,115.625L-21.492,114.688L-21.424,113.125L-21.355,112.5L-21.287,111.25L-21.218,110.625L-21.15,110.312L-21.081,109.688L-20.876,108.438L-20.808,107.5L-20.739,106.563L-20.671,106.25L-20.602,106.25L-20.534,105L-20.465,103.75L-20.4,104.063L-20.331,104.063L-20.263,103.438L-20.195,106.563L-20.126,108.438L-20.058,108.438L-19.989,105.938L-19.921,103.75L-19.852,103.75L-19.784,102.188L-19.715,101.562L-19.647,100.937L-19.578,100.625L-19.51,100L-19.442,97.5L-19.373,97.188L-19.305,96.25L-19.236,95.938L-19.168,96.25L-19.099,97.5L-19.031,97.5L-18.962,96.25L-18.894,93.125L-18.826,93.75L-18.757,93.75L-18.689,95.313L-18.62,96.563L-18.552,94.375L-18.483,93.75L-18.415,92.813L-18.346,92.5L-18.278,89.688L-18.21,90.625L-18.141,89.375L-18.073,87.188L-18.004,85.625L-17.936,86.25L-17.867,88.75L-17.799,89.063L-17.73,90.313L-17.662,90.938L-17.594,90.313L-17.525,90.313L-17.457,90L-17.388,91.25L-17.32,89.688L-17.251,90.313L-17.183,92.5L-17.114,90L-17.046,89.063L-16.978,88.438L-16.909,89.688L-16.841,93.125L-16.772,91.875L-16.704,92.5L-16.635,92.5L-16.567,90.625L-16.498,91.562L-16.43,92.5L-16.362,92.813L-16.293,93.438L-16.225,94.688L-16.156,92.5L-16.088,89.688L-16.019,89.063L-15.951,89.375L-15.882,89.688L-15.814,86.563L-15.745,85.313L-15.677,83.438L-15.609,80.313L-15.54,79.688L-15.472,80.625L-15.403,82.5L-15.335,82.5L-15.266,83.438L-15.129,83.125L-15.061,80L-14.993,79.375L-14.924,78.438L-14.856,78.438L-14.787,76.563L-14.65,75.625L-14.582,75.625L-14.513,73.125L-14.445,71.563L-14.377,74.375L-14.308,75.313L-14.24,73.75L-14.171,74.063L-14.103,71.25L-14.034,71.25L-13.966,74.063L-13.897,77.813L-13.829,78.438L-13.761,79.063L-13.692,78.75L-13.624,80.313L-13.555,80.938L-13.487,82.187L-13.418,86.563L-13.35,88.75L-13.281,85.938L-13.213,85.625L-13.145,83.438L-13.076,80.313L-13.008,80.625L-12.939,83.125L-12.871,85.938L-12.802,86.563L-12.734,84.375L-12.665,86.563L-12.597,85L-12.529,84.688L-12.46,87.188L-12.392,87.188L-12.323,85.313L-12.255,84.375L-12.186,84.688L-12.118,85.313L-12.049,87.813L-11.981,89.375L-11.913,89.688L-11.844,88.125L-11.776,89.063L-11.707,89.063L-11.639,87.813L-11.57,87.188L-11.502,86.875L-11.433,88.438L-11.365,87.5L-11.296,86.563L-11.228,87.5L-11.16,86.563L-11.091,89.375L-11.023,94.063L-10.954,94.688L-10.886,93.75L-10.817,92.813L-10.749,90.938L-10.68,93.438L-10.612,91.25L-10.544,94.375L-10.475,96.875L-10.407,97.5L-10.338,96.563L-10.27,96.25L-10.201,95.625L-10.133,95.625L-10.064,96.25L-9.996,95.938L-9.928,96.25L-9.859,95.625L-9.791,95.313L-9.722,95.625L-9.654,94.688L-9.585,97.5L-9.517,97.813L-9.448,98.125L-9.38,95.938L-9.312,94.063L-9.243,93.438L-9.175,93.75L-9.106,93.125L-9.038,92.187L-8.969,89.688L-8.901,90.313L-8.832,90.313L-8.764,91.25L-8.696,93.438L-8.627,93.438L-8.559,92.813L-8.49,91.875L-8.422,91.25L-8.353,89.375L-8.285,91.875L-8.216,93.75L-8.148,95.313L-8.08,96.875L-8.011,95L-7.943,94.375L-7.874,92.5L-7.806,93.125L-7.737,93.75L-7.669,94.063L-7.6,92.187L-7.532,90.313L-7.463,86.875L-7.395,85L-7.327,85.625L-7.258,86.875L-7.19,85.938L-7.121,85.938L-6.984,85L-6.916,82.5L-6.847,82.5L-6.779,81.563L-6.711,82.187L-6.642,80.625L-6.574,81.25L-6.505,79.688L-6.437,80L-6.368,80L-6.3,80L-6.163,81.25L-6.095,77.5L-6.026,76.563L-5.958,75.625L-5.889,72.5L-5.821,72.188L-5.752,73.125L-5.684,75L-5.615,73.438L-5.547,73.125L-5.479,73.438L-5.41,75.313L-5.342,75.938L-5.273,80.313L-5.205,83.438L-5.136,83.75L-5.068,84.063L-4.999,85.938L-4.931,84.688L-4.863,86.25L-4.794,90.313L-4.726,92.187L-4.657,91.25L-4.589,89.688L-4.52,90.313L-4.452,90.313L-4.383,92.5L-4.315,95.313L-4.247,94.063L-4.178,92.5L-4.107,91.25L-4.038,93.438L-3.97,93.125L-3.901,93.75L-3.833,94.688L-3.765,95L-3.696,93.75L-3.628,91.875L-3.559,90.938L-3.491,92.187L-3.422,91.562L-3.354,92.813L-3.285,92.5L-3.149,92.187L-3.08,91.562L-3.012,92.813L-2.943,93.75L-2.875,93.75L-2.806,95.938L-2.738,94.688L-2.669,93.438L-2.601,93.438L-2.533,95.313L-2.396,97.5L-2.327,99.063L-2.259,98.75L-2.19,96.875L-2.122,95.938L-2.053,98.125L-1.985,99.688L-1.916,101.562L-1.848,102.188L-1.78,101.875L-1.711,100L-1.643,101.25L-1.574,100L-1.506,100.937L-1.437,101.25L-1.369,103.125L-1.3,100.937L-1.232,99.063L-1.164,98.438L-1.095,96.875L-1.027,96.25L-0.958,96.875L-0.89,96.25L-0.821,96.875L-0.753,96.25L-0.684,96.563L-0.616,97.813L-0.548,98.125L-0.479,98.75L-0.411,98.75L-0.342,98.75L-0.274,97.813L-0.205,97.188L-0.137,99.375L-0.068,98.438L0,98.75L0.068,99.375L0.137,98.438L0.205,98.125L0.274,98.75L0.342,98.75L0.411,99.375L0.479,102.188L0.548,103.125L0.616,104.688L0.684,103.125L0.753,105.313L0.821,105.938L0.89,104.688L0.958,107.188L1.027,108.75L1.095,108.438L1.164,108.125L1.232,106.875L1.3,108.125L1.369,107.188L1.437,107.813L1.506,108.438L1.574,107.813L1.643,106.563L1.711,105.313L1.78,104.688L1.848,105.313L1.916,104.375L1.985,105.313L2.053,105L2.122,104.688L2.19,103.438L2.259,104.375L2.327,104.375L2.396,106.563L2.464,105L2.533,104.063L2.601,101.562L2.669,100.937L2.738,101.875L2.806,100.625L2.875,102.813L2.943,104.375L3.012,100.313L3.08,97.5L3.149,94.688L3.217,81.563L3.285,81.563L3.354,81.25L3.422,82.812L3.491,80.938L3.559,78.438L3.628,75.625L3.696,74.375L3.765,71.563L3.833,70.313L3.901,71.25L3.97,70.625L4.038,67.812L4.107,66.25L4.175,61.563L4.244,60.313L4.312,60.625L4.381,61.563L4.449,58.75L4.517,57.812L4.586,56.563L4.654,55L4.723,49.062L4.791,49.688L4.86,49.688L4.928,47.5L4.994,46.25L5.062,50.313L5.131,51.25L5.199,50.625L5.268,63.438L5.336,64.688L5.404,61.563L5.473,57.188L5.541,55L5.61,54.375L5.678,55.313L5.747,57.188L5.815,58.125L5.884,55.938L5.952,52.812L6.02,53.75L6.089,54.063L6.157,54.688L6.226,58.75L6.294,62.187L6.363,60.938L6.431,59.375L6.5,58.75L6.568,60.313L6.636,61.25L6.705,64.375L6.773,70L6.842,69.063L6.91,68.75L6.979,67.188L7.047,67.5L7.116,64.063L7.184,66.25L7.252,68.438L7.321,65.938L7.389,64.688L7.458,65.313L7.526,62.812L7.595,65L7.663,67.812L7.732,69.688L7.8,69.063L7.868,69.375L7.937,70.625L8.005,70.313L8.074,66.875L8.142,70L8.211,70.938L8.279,70L8.348,66.563L8.416,64.063L8.484,63.438L8.553,65.938L8.621,67.188L8.69,66.25L8.758,65L8.827,63.438L8.895,59.063L8.964,58.125L9.032,61.563L9.101,62.5L9.169,64.063L9.237,59.688L9.306,60L9.374,62.187L9.443,59.688L9.511,62.5L9.58,68.75L9.648,68.125L9.717,65.313L9.785,62.187L9.853,61.25L9.922,60.625L9.99,63.75L10.059,66.563L10.196,68.438L10.264,63.75L10.333,62.187L10.401,62.5L10.469,64.688L10.538,67.188L10.606,68.75L10.675,70.313L10.743,68.75L10.812,69.688L10.88,69.063L10.949,70.625L11.017,75.625L11.085,78.125L11.154,77.5L11.222,75.313L11.291,75L11.359,78.125L11.428,75.938L11.496,75L11.565,77.5L11.633,73.75L11.701,71.563L11.77,73.438L11.838,71.875L11.907,72.5L11.975,73.438L12.044,75.625L12.112,72.5L12.181,65.625L12.249,65L12.317,67.5L12.386,66.563L12.454,67.5L12.523,68.125L12.591,67.812L12.66,64.688L12.728,61.875L12.797,61.875L12.865,62.187L12.933,64.375L13.002,64.375L13.07,62.812L13.139,59.063L13.207,56.25L13.276,56.25L13.344,55.938L13.413,56.25L13.481,59.063L13.55,58.75L13.618,57.188L13.686,58.125L13.755,59.375L13.823,58.437L13.892,62.5L13.96,64.375L14.029,62.812L14.097,62.812L14.166,65L14.234,69.063L14.302,71.25L14.371,71.25L14.439,74.063L14.508,72.5L14.576,70.313L14.645,68.438L14.713,69.688L14.782,70.313L14.85,71.875L14.918,71.563L14.987,72.5L15.055,68.75L15.124,71.25L15.192,70.625L15.261,70.625L15.329,73.125L15.398,75.625L15.466,73.438L15.534,70L15.603,68.438L15.671,68.75L15.74,70L15.808,70.938L15.877,71.875L15.945,71.875L16.014,70.625L16.082,71.875L16.15,70.625L16.219,69.375L16.287,71.25L16.356,71.875L16.424,70.938L16.493,68.438L16.561,67.5L16.63,69.375L16.698,71.563L16.766,72.813L16.835,73.125L16.903,70.625L16.972,69.375L17.04,68.438L17.109,69.375L17.177,66.25L17.246,70.313L17.314,73.125L17.383,70.938L17.451,69.063L17.519,70.938L17.588,71.25L17.656,72.188L17.725,71.25L17.793,65L17.862,60.938L17.93,58.437L17.999,56.563L18.067,57.5L18.135,57.5L18.204,58.75L18.272,56.563L18.341,55.625L18.409,54.375L18.478,55L18.546,57.188L18.615,59.375L18.683,56.563L18.751,54.688L18.82,50.625L18.888,50.625L18.957,51.25L19.025,53.125L19.094,54.375L19.162,52.812L19.231,54.063L19.299,53.75L19.367,52.5L19.436,53.75L19.504,56.25L19.573,56.563L19.641,57.812L19.71,60L19.915,61.875L19.983,68.125L20.052,71.563L20.12,72.813L20.189,75.625L20.257,76.25L20.326,76.563L20.394,77.5L20.463,81.875L20.531,83.75L20.599,85L20.668,85.313L20.736,82.5L20.805,81.25L20.873,84.375L20.942,87.188L21.01,90.313L21.079,90.938L21.147,92.813L21.215,91.25L21.287,88.438L21.355,91.875L21.424,92.187L21.492,90.938L21.561,93.438L21.629,94.063L21.697,92.187L21.766,91.562L21.834,91.562L21.903,90.625L21.971,91.25L22.04,92.5L22.108,92.5L22.177,93.438L22.245,90.313L22.313,86.25L22.382,86.875L22.45,87.5L22.519,87.5L22.587,86.25L22.656,83.125L22.724,83.438L22.793,84.375L22.861,84.063L22.93,84.688L22.998,85.313L23.066,86.875L23.135,86.875L23.203,84.688L23.272,83.75L23.34,83.125L23.409,85L23.477,86.875L23.546,89.375L23.614,86.875L23.682,83.438L23.751,84.063L23.819,83.438L23.888,84.688L23.956,86.25L24.093,87.188L24.162,85.313L24.23,86.25L24.298,86.25L24.367,88.125L24.435,92.5L24.504,93.438L24.572,89.063L24.641,88.75L24.709,88.75L24.778,89.063L24.846,88.75L24.914,90.625L24.983,92.187L25.051,90.313L25.12,87.813L25.188,85.938L25.257,84.375L25.325,85.938L25.394,88.438L25.462,89.688L25.53,87.188L25.599,82.5L25.667,78.75L25.736,80.938L25.804,84.375L25.873,85.625L25.941,86.875L26.01,87.5L26.078,87.813L26.146,86.563L26.215,87.5L26.283,83.75L26.352,84.063L26.42,85.625L26.489,84.063L26.557,80.625L26.626,81.25L26.694,78.75L26.762,78.125L26.831,77.5L26.899,79.375L26.968,76.875L27.036,76.25L27.105,77.813L27.173,80.313L27.242,82.187L27.31,84.063L27.379,82.5L27.447,81.25L27.515,78.438L27.584,77.5L27.652,80.938L27.721,84.688L27.789,82.187L27.858,81.563L27.926,81.563L27.995,80.625L28.063,81.25L28.131,80L28.2,80.313L28.268,81.875L28.337,85L28.405,83.125L28.474,81.25L28.542,82.5L28.611,84.688L28.679,88.125L28.747,89.063L28.816,88.75L28.884,92.187L28.953,88.438L29.021,88.75L29.09,90L29.158,89.688L29.227,89.063L29.363,87.813L29.432,86.875L29.5,87.813L29.569,90L29.637,93.75L29.706,95.313L29.774,91.875L29.843,90L29.908,90.625L29.977,90L30.045,87.188L30.114,88.125L30.182,88.75L30.25,89.375L30.319,81.25L30.387,77.5L30.456,76.563L30.524,77.5L30.593,79.063L30.661,79.375L30.73,76.875L30.798,74.688L30.866,75.625L30.935,76.25L31.003,74.063L31.072,77.5L31.14,80L31.209,76.25L31.277,75.625L31.346,75.313L31.414,72.188L31.482,72.188L31.551,71.875L31.619,69.375L31.756,66.875L31.825,64.063L31.893,65.313L31.962,60.625L32.03,58.437L32.098,60.313L32.167,62.5L32.235,58.437L32.304,53.437L32.372,51.563L32.441,56.25L32.509,58.75L32.578,59.063L32.646,60.625L32.714,58.125L32.783,55.625L32.851,56.563L32.92,56.563L32.988,56.563L33.057,57.5L33.125,59.688L33.194,60.625L33.262,57.812L33.33,57.812L33.399,55.313L33.467,52.5L33.536,56.563L33.604,56.25L33.673,56.875L33.741,58.125L33.81,60L33.878,61.25L33.946,61.563L34.015,65.938L34.083,68.75L34.152,66.563L34.22,62.812L34.289,65.625L34.357,68.75L34.426,69.688L34.494,72.188L34.563,72.5L34.631,71.875L34.699,68.438L34.768,68.438L34.836,69.375L34.905,71.875L34.973,74.063L35.042,74.688L35.11,74.375L35.179,69.063L35.247,65.625L35.315,66.563L35.384,67.188L35.452,70.938L35.521,74.375L35.589,74.063L35.658,74.375L35.726,71.875L35.795,71.25L35.863,71.563L35.931,74.688L36,76.563L36.068,73.75L36.137,74.063L36.205,74.688L36.274,75.625L36.342,77.188L36.411,78.125L36.479,79.688L36.547,80.313L36.616,80.625L36.684,79.063L36.753,79.063L36.821,80.313L36.89,82.5L36.958,81.875L37.027,80L37.095,77.813L37.163,76.875L37.232,79.375L37.3,80.313L37.369,81.875L37.437,84.375L37.506,82.187L37.574,80L37.643,77.5L37.711,76.875L37.779,78.75L37.848,80L37.916,80.313L37.985,79.063L38.053,78.125L38.122,79.688L38.19,78.75L38.259,77.813L38.327,79.375L38.396,80L38.464,79.063L38.532,77.188L38.601,75.625L38.669,74.375L38.738,77.813L38.806,80.938L38.875,81.563L38.943,79.688L39.012,78.438L39.08,78.75L39.148,78.125L39.217,78.438L39.285,80.313L39.354,81.563L39.422,79.375L39.491,78.438L39.559,78.438L39.628,78.125L39.696,80.625L39.764,82.812L39.833,84.375L39.901,79.063L39.97,78.125L40.038,75.938L40.107,74.688L40.175,75L40.244,75.938L40.312,78.125L40.38,77.813L40.449,73.75L40.517,72.188L40.586,71.563L40.654,70.625L40.723,71.25L40.791,71.563L40.86,69.063L40.928,65.625L40.996,64.063L41.065,63.438L41.133,64.063L41.202,66.875L41.27,67.5L41.339,66.25L41.407,64.375L41.476,62.5L41.544,60.625L41.612,60.625L41.681,62.812L41.749,60.313L41.818,57.812L41.886,55.625L41.955,57.812L42.023,56.875L42.092,56.563L42.16,58.437L42.228,59.688L42.297,59.688L42.365,56.25L42.434,56.563L42.502,58.125L42.571,59.375L42.639,62.187L42.708,64.063L42.776,61.563L42.845,57.5L42.913,54.375L42.981,56.25L43.05,59.063L43.118,59.688L43.187,60.313L43.255,58.437L43.324,57.5L43.392,56.563L43.461,55.938L43.529,55.625L43.597,57.188L43.666,58.437L43.734,56.25L43.803,58.125L43.871,55.625L43.94,55L44.008,56.25L44.077,55.938L44.145,58.75L44.213,57.188L44.282,53.75L44.35,53.437L44.419,53.437L44.487,55.313L44.556,55.938L44.624,56.875L44.693,52.812L44.761,51.563L44.829,47.5L44.898,49.375L44.966,52.5L45.035,53.75L45.103,52.812L45.172,52.812L45.24,48.75L45.309,49.062L45.377,51.563L45.445,54.375L45.514,57.188L45.582,61.563L45.651,60.938L45.719,58.125L45.788,56.563L45.856,57.188L45.925,60.313L45.993,62.812L46.061,64.375L46.13,65.313L46.201,63.75L46.27,62.187L46.338,64.063L46.407,62.5L46.475,66.25L46.543,66.563L46.612,65.625L46.68,62.812L46.749,65L46.817,66.25L46.886,71.875L46.954,73.75L47.023,75.625L47.091,74.688L47.159,73.75L47.228,73.125L47.296,75.313L47.365,76.563L47.433,75.938L47.502,75.625L47.57,76.25L47.639,75.938L47.707,77.5L47.775,80.625L47.844,82.812L47.912,83.75L47.981,85.625L48.049,85.938L48.118,86.563L48.186,87.5L48.255,88.75L48.323,92.187L48.392,95.313L48.46,96.563L48.528,95L48.597,93.75L48.665,96.25L48.734,99.688L48.802,101.875L48.871,102.813L48.939,102.5L49.008,100.625L49.076,99.375L49.144,98.438L49.213,97.5L49.281,97.188L49.35,98.75L49.418,97.813L49.487,94.688L49.555,94.063L49.624,91.25L49.692,91.562L49.76,92.5L49.829,91.875L49.897,89.063L49.966,87.5L50.034,84.688L50.103,82.5L50.171,82.5L50.24,83.438L50.376,82.812L50.445,80L50.513,77.813L50.582,77.813L50.65,78.75L50.719,78.75L50.787,79.063L50.856,75.625L50.924,74.375L50.992,70.313L51.061,69.375L51.129,69.375L51.198,70.625L51.266,72.813L51.335,72.5L51.403,71.25L51.472,69.688L51.54,69.688L51.608,70.938L51.677,72.188L51.814,73.438L51.882,70.313L51.951,65.313L52.019,62.187L52.088,63.125L52.156,63.125L52.225,65.313L52.293,64.063L52.361,63.438L52.43,62.812L52.498,64.375L52.567,65.938L52.635,67.812L52.704,67.5L52.772,65.625L52.841,63.125L52.909,60.938L52.977,62.5L53.046,60.938L53.114,63.75L53.183,65.625L53.251,65.938L53.32,64.063L53.388,64.375L53.457,64.375L53.525,61.25L53.593,62.812L53.662,62.5L53.73,62.187L53.799,60.313L53.867,60L53.936,60.625L54.004,63.125L54.073,66.875L54.141,69.063L54.278,69.063L54.346,68.125L54.415,68.438L54.483,67.812L54.552,65L54.62,65.938L54.689,66.875L54.757,65.938L54.823,67.188L54.891,65.625L54.96,65L55.028,63.125L55.096,64.063L55.165,66.563L55.233,66.25L55.302,64.688L55.37,62.5L55.439,62.812L55.507,58.125L55.576,61.25L55.644,67.188L55.712,65.313L55.781,65L55.849,64.688L55.918,63.75L55.986,62.5L56.055,65L56.123,66.875L56.192,63.75L56.26,62.812L56.328,62.187L56.397,62.812L56.465,64.063L56.534,64.375L56.602,68.125L56.671,64.375L56.739,61.563L56.808,59.375L56.876,56.25L56.944,57.812L57.013,61.563L57.081,62.187L57.15,55.313L57.218,49.062L57.287,48.75L57.355,50L57.424,53.125L57.492,55.625L57.56,60.625L57.629,58.75L57.697,54.063L57.766,51.563L57.834,50L57.903,50.625L57.971,51.563L58.04,53.125L58.108,52.5L58.176,50.313L58.245,48.125L58.313,48.75L58.382,46.875L58.45,45.938L58.519,46.563L58.587,44.688L58.656,42.813L58.724,42.813L58.792,43.437L58.861,45.313L58.929,47.813L58.998,49.688L59.066,48.125L59.135,48.75L59.203,53.437L59.272,56.25L59.34,57.812L59.409,55.938L59.477,55.313L59.545,54.375L59.614,51.875L59.682,48.437L59.751,51.563L59.819,54.688L59.888,56.875L59.956,58.437L60.025,56.875L60.093,56.875L60.161,55.625L60.23,55L60.298,60.313L60.367,60.313L60.435,61.563L60.504,61.25L60.572,62.5L60.641,63.75L60.709,63.125L60.777,64.688L60.846,65.938L60.914,65L60.983,63.125L61.051,60.625L61.12,57.812L61.188,59.063L61.257,61.25L61.325,61.875L61.393,59.063L61.462,60.625L61.53,57.5L61.599,54.688L61.667,52.5L61.736,55.313L61.804,57.812L61.873,57.812L61.941,58.75L62.009,56.563L62.078,58.125L62.146,59.063L62.215,59.375L62.283,63.125L62.352,60.625L62.489,55.938L62.557,54.688L62.625,56.25L62.694,51.25L62.762,53.125L62.831,54.688L62.899,52.188L62.968,45.625L63.036,47.188L63.105,47.813L63.173,47.188L63.242,48.75L63.31,47.5L63.378,45.625L63.447,45.313L63.515,46.25L63.584,46.875L63.652,49.375L63.721,52.5L63.789,56.875L63.858,55.625L63.926,55L63.994,55.625L64.063,54.375L64.131,56.25L64.2,55.938L64.268,55.938L64.337,56.25L64.405,53.125L64.474,54.063L64.542,57.812L64.61,59.063L64.679,58.75L64.747,63.125L64.816,62.187L64.884,60.938L64.953,60.313L65.021,65.625L65.09,62.5L65.158,63.438L65.226,65.938L65.295,66.563L65.363,65L65.432,65L65.5,62.5L65.569,60.625L65.637,60.313L65.706,61.563L65.774,56.25L65.842,52.188L65.911,52.188L65.979,50.938L66.048,51.25L66.116,51.25L66.185,50L66.253,47.5L66.322,45L66.39,44.375L66.458,45.313L66.527,44.688L66.595,46.25L66.664,49.062L66.732,49.375L66.801,47.813L66.869,46.25L66.938,44.688L67.006,45.938L67.074,45.313L67.143,47.188L67.211,45.625L67.28,37.188L67.348,32.813L67.417,25.938L67.485,23.75L67.554,28.75L67.622,32.5L67.691,30.312L67.759,28.438L67.827,31.25L67.896,31.875L67.964,31.563L68.033,32.5L68.101,32.5L68.17,31.25L68.238,30.938L68.307,32.5L68.375,31.563L68.443,30.625L68.512,32.188L68.58,34.375L68.649,26.25L68.717,24.375L68.786,23.125L68.854,18.438L68.923,19.063L68.991,21.875L69.059,23.75L69.128,24.687L69.196,25.625L69.265,23.125L69.333,29.687L69.402,34.687L69.47,41.25L69.539,45.313L69.607,41.875L69.675,37.813L69.744,37.813L69.812,38.75L69.881,37.5L69.949,39.062L70.018,42.813L70.086,42.188L70.155,38.125L70.223,38.438L70.291,40.625L70.36,41.875L70.428,44.688L70.497,47.813L70.565,43.75L70.634,43.125L70.702,47.188L70.771,47.813L70.839,45.938L70.907,53.125L70.976,54.063L71.044,53.125L71.116,53.125L71.184,55L71.253,41.25L71.321,42.813L71.389,45.313L71.458,46.875L71.526,49.062L71.595,49.688L71.663,51.25L71.732,53.75L71.8,54.688L71.869,55.938L71.937,59.063L72.005,58.437L72.074,57.5L72.142,55.938L72.211,59.375L72.279,60L72.348,59.688L72.416,61.563L72.485,61.563L72.553,60L72.621,61.25L72.69,58.125L72.758,60.313L72.827,61.25L72.895,64.688L72.964,64.063L73.032,64.688L73.101,62.5L73.169,60.625L73.238,56.563L73.306,70.313L73.374,73.125L73.443,70.625L73.511,68.75L73.58,68.125L73.648,66.25L73.717,65.313L73.785,65.938L73.854,69.063L73.922,66.563L73.99,63.438L74.059,63.438L74.127,64.063L74.196,65.625L74.264,66.875L74.333,69.688L74.401,68.75L74.47,66.563L74.538,67.5L74.606,66.563L74.675,67.5L74.743,69.375L74.812,69.375L74.88,70L74.949,67.5L75.017,65L75.086,64.063L75.154,64.688L75.222,68.125L75.291,72.5L75.359,72.813L75.428,71.563L75.496,72.813L75.565,72.188L75.633,72.188L75.702,73.75L75.77,76.875L75.838,76.563L75.907,75.938L75.975,77.813L76.044,80L76.112,80L76.181,79.375L76.249,80.625L76.318,77.813L76.386,75.625L76.454,74.688L76.523,76.25L76.591,74.063L76.66,75.625L76.728,76.875L76.797,76.875L76.865,74.063L76.934,72.813L77.002,74.063L77.07,76.25L77.139,77.188L77.207,79.063L77.276,78.125L77.344,76.25L77.413,76.25L77.481,77.813L77.55,77.813L77.618,79.375L77.687,80L77.755,78.75L77.823,75.313L77.892,75.938L77.96,74.063L78.029,73.125L78.097,74.063L78.166,76.25L78.234,73.438L78.303,67.812L78.371,66.25L78.439,66.25L78.508,66.875L78.576,63.125L78.645,63.438L78.713,60L78.782,57.5L78.85,55.313L78.919,57.5L78.987,56.25L79.055,58.125L79.124,58.437L79.192,56.25L79.261,50.938L79.329,50.625L79.398,48.75L79.466,47.813L79.535,48.437L79.603,50.313L79.671,47.5L79.737,47.188L79.805,45.625L79.874,46.875L79.942,45.938L80.011,45.938L80.079,46.875L80.148,46.563L80.216,43.125L80.285,45.313L80.353,49.375L80.422,50.313L80.49,50.625L80.558,51.875L80.627,55L80.695,54.375L80.764,54.688L80.832,56.563L80.901,59.688L80.969,60.625L81.038,60.625L81.106,56.875L81.174,55L81.243,53.437L81.311,54.375L81.38,54.063L81.448,57.812L81.517,59.688L81.585,55L81.654,50.938L81.722,53.75L81.79,53.75L81.859,54.063L81.927,56.25L81.996,59.063L82.064,60.313L82.133,58.125L82.201,56.25L82.27,55L82.338,52.812L82.406,54.063L82.475,57.188L82.543,55.313L82.612,49.375L82.68,45L82.749,45.938L82.817,46.875L82.886,46.25L82.954,47.188L83.022,48.125L83.091,44.375L83.159,47.188L83.228,45.313L83.296,47.813L83.365,52.5L83.433,53.437L83.502,50.313L83.57,47.813L83.638,52.188L83.707,54.688L83.775,55L83.844,56.875L83.912,60L83.981,57.812L84.049,53.437L84.118,50.625L84.186,50L84.255,48.75L84.323,52.188L84.391,55.938L84.46,54.063L84.528,52.188L84.597,52.812L84.665,56.563L84.734,60.313L84.802,61.875L84.871,65L84.939,61.25L85.007,58.125L85.076,55L85.144,59.063L85.213,58.125L85.281,61.563L85.35,62.187L85.418,62.5L85.487,59.688L85.555,63.125L85.623,65L85.692,64.375L85.76,65.313L85.829,65.313L85.897,64.063L85.966,59.063L86.034,56.25L86.103,58.75L86.171,60.625L86.239,63.438L86.308,66.25L86.376,65.313L86.445,63.438L86.513,65L86.582,65.625L86.65,65.625L86.719,66.25L86.787,68.125L86.855,67.5L86.924,64.375L86.992,67.812L87.061,68.75L87.129,71.875L87.198,72.188L87.266,73.125L87.335,72.5L87.403,66.875L87.471,64.375L87.54,67.5L87.608,66.563L87.677,65.625L87.745,66.563L87.814,65.625L87.882,63.125L87.951,63.125L88.019,66.563L88.087,70.938L88.156,71.563L88.224,73.125L88.293,70.625L88.361,69.688L88.43,68.125L88.498,68.75L88.567,57.812L88.635,59.375L88.704,61.25L88.772,57.812L88.84,56.25L88.909,53.125L88.977,53.75L89.046,53.437L89.114,55.625L89.183,55.938L89.251,56.563L89.32,53.437L89.388,54.688L89.456,59.375L89.525,61.563L89.593,61.875L89.662,63.438L89.73,65.313L89.799,61.25L89.867,62.187L89.936,63.75L90.004,65L90.072,64.375L90.141,64.688L90.209,63.438L90.278,59.375L90.346,59.375L90.415,56.563L90.483,58.75L90.552,60.313L90.62,70.625L90.688,68.438L90.757,65.625L90.825,66.25L90.894,66.25L90.962,66.25L91.031,67.5L91.099,69.063L91.168,66.25L91.236,64.688L91.304,65L91.373,64.688L91.441,64.063L91.51,65.313L91.578,64.688L91.647,63.75L91.715,61.563L91.784,60L91.852,61.25L91.92,58.75L91.989,59.375L92.057,58.437L92.126,57.812L92.194,56.25L92.263,57.188L92.331,60.625L92.4,62.187L92.468,67.812L92.537,68.75L92.605,67.5L92.673,67.188L92.742,67.812L92.81,70.313L92.879,69.063L92.947,70.313L93.016,74.688L93.084,72.188L93.153,72.188L93.221,72.813L93.289,71.563L93.358,70.625L93.426,72.188L93.495,72.5L93.563,71.875L93.632,71.25L93.7,69.688L93.769,70L93.837,71.563L93.905,74.375L93.974,75.625L94.042,74.688L94.111,75.625L94.179,76.25L94.248,74.688L94.316,73.125L94.385,73.75L94.453,75L94.521,74.063L94.59,72.813L94.658,72.5L94.727,72.5L94.795,71.563L94.864,71.563L94.932,76.25L95.001,71.875L95.069,67.5L95.137,68.438L95.206,68.75L95.274,69.375L95.343,71.563L95.411,73.75L95.48,71.875L95.548,69.063L95.617,68.75L95.685,71.563L95.753,73.75L95.822,74.688L95.89,74.688L95.959,75L96.03,75L96.099,74.688L96.167,73.75L96.235,72.5L96.304,75.625L96.372,78.125L96.441,75.625L96.509,75.625L96.578,74.688L96.646,72.5L96.715,73.438L96.783,75.313L96.851,76.25L96.92,75.313L96.988,74.063L97.057,74.063L97.125,77.188L97.194,77.5L97.262,78.438L97.331,80.313L97.399,81.25L97.467,80L97.536,84.063L97.604,85L97.673,82.5L97.741,82.187L97.81,81.563L97.878,80.938L97.947,77.188L98.015,76.25L98.084,76.25L98.152,74.688L98.22,75.313L98.289,78.75L98.357,78.438L98.426,78.125L98.494,78.438L98.563,75.313L98.631,75.938L98.7,80.313L98.768,80.625L98.836,77.188L98.905,78.125L98.973,77.813L99.042,78.75L99.11,83.438L99.179,84.375L99.247,85L99.316,84.063L99.384,81.25L99.452,81.563L99.521,80.938L99.589,78.75L99.658,81.25L99.726,84.688L99.795,83.75L99.863,84.063L99.932,83.125L100,85.313L100.068,84.063L100.137,85.313L100.205,89.063L100.274,87.813L100.342,86.875L100.411,87.5L100.479,87.188L100.548,89.063L100.616,92.813L100.684,94.688L100.753,91.875L100.821,90.625L100.89,92.187L100.958,92.5L101.027,95L101.095,95.625L101.164,94.688L101.232,93.75L101.3,94.375L101.369,95L101.437,96.875L101.506,98.125L101.574,99.688L101.643,100.625L101.711,97.5L101.78,96.25L101.848,95.625L101.916,95L101.985,96.563L102.053,96.875L102.122,96.563L102.19,95.313L102.259,94.375L102.327,95.313L102.396,95.625L102.464,94.375L102.533,94.688L102.601,94.688L102.669,92.187L102.738,90.938L102.806,92.5L102.875,94.063L102.943,96.563L103.012,96.875L103.08,97.188L103.217,97.813L103.285,98.438L103.354,99.063L103.422,100L103.491,100L103.559,101.875L103.628,100.625L103.696,100.625L103.765,101.875L103.833,105.313L103.901,107.5L103.97,109.063L104.038,110.937L104.107,111.563L104.175,112.5L104.244,115L104.312,116.563L104.381,117.813L104.449,119.687L104.517,120.625L104.586,121.875L104.651,122.5L104.72,123.438L104.788,125.938L104.857,127.188L104.925,129.063L104.994,129.688L105.062,129.688L105.131,130L105.199,129.063L105.268,129.063L105.336,129.063L105.404,129.688L105.473,130L105.541,130.938L105.61,130.938L105.678,131.25L105.884,130.938L105.952,130.938L106.02,130L106.089,129.688L106.157,129.688L106.226,129.063L106.294,129.688L106.363,129.375L106.5,129.063L106.568,129.688L106.636,129.688L106.705,127.5L106.773,126.25L106.842,126.25L106.979,124.375L107.047,122.5L107.116,123.125L107.184,121.25L107.252,120.313L107.321,119.375L107.389,117.813L107.526,117.188L107.595,115L107.663,115.313L107.732,115.625L107.8,114.375L107.868,114.063L108.005,112.813L108.074,110.937L108.142,108.75L108.211,108.75L108.279,108.75L108.348,108.438L108.416,107.188L108.484,105.938L108.553,105L108.621,104.063L108.69,104.063L108.758,104.688L108.895,104.063L108.964,102.5L109.032,103.125L109.101,103.438L109.169,103.125L109.237,102.5L109.306,103.125L109.374,100L109.443,100.625L109.511,99.063L109.58,98.438L109.648,96.563L109.717,96.563L109.785,96.875L109.853,95.625L109.922,93.75L109.99,91.25L110.059,88.438L110.127,88.125L110.196,89.375L110.264,90L110.333,88.438L110.401,89.063L110.469,88.75L110.538,89.688L110.606,90.938L110.675,92.5L110.743,92.5L110.812,92.187L110.88,90L110.949,89.375L111.017,90L111.085,91.562L111.154,92.5L111.222,92.187L111.291,94.063L111.359,92.813L111.428,94.688L111.496,95L111.565,96.25L111.633,97.188L111.701,99.063L111.77,99.063L111.838,100.625L111.907,102.5L111.975,101.875L112.044,104.375L112.112,107.5L112.181,108.438L112.249,105L112.317,106.25L112.386,105.938L112.454,103.438L112.523,103.438L112.591,102.813L112.66,102.813L112.728,100.937L112.797,100L112.865,97.813L112.933,98.438L113.002,98.438L113.07,99.688L113.139,98.75L113.207,96.563L113.276,96.875L113.344,95.313L113.413,95.313L113.481,95.313L113.55,95.313L113.618,95.313L113.686,95L113.755,93.75L113.823,92.5L113.892,91.875L113.96,89.375L114.029,91.875L114.097,92.5L114.166,91.25L114.234,90.313L114.302,92.813L114.371,91.562L114.439,91.562L114.508,93.438L114.576,93.125L114.645,92.5L114.713,92.5L114.782,92.813L114.85,93.125L114.918,95L114.987,96.563L115.055,97.5L115.124,96.563L115.192,94.688L115.261,94.375L115.329,93.438L115.398,94.375L115.466,95.625L115.534,96.563L115.603,94.063L115.671,92.813L115.74,93.125L115.808,93.125L115.877,94.375L115.945,95.313L116.014,97.813L116.082,93.75L116.15,91.25L116.219,90L116.287,88.438L116.356,87.5L116.424,88.438L116.493,89.688L116.561,89.688L116.63,90L116.698,89.688L116.766,88.125L116.835,87.188L116.903,86.563L116.972,85.938L117.04,85.313L117.109,83.438L117.177,83.125L117.246,84.688L117.314,85.938L117.383,87.188L117.451,88.438L117.519,89.063L117.588,87.5L117.656,88.438L117.725,89.375L117.793,88.75L117.862,90.625L117.93,91.562L117.999,90.938L118.067,90.313L118.135,94.063L118.204,95.938L118.272,97.5L118.341,100.313L118.409,102.188L118.478,103.438L118.546,103.438L118.615,102.5L118.683,103.125L118.751,103.75L118.82,105L118.888,107.188L118.957,108.75L119.025,109.688L119.094,110L119.162,110.312L119.231,110L119.299,109.063L119.367,110L119.436,107.5L119.504,105L119.573,103.125L119.641,103.75L119.71,104.375L119.778,105.625L119.847,106.875L119.915,107.188L119.983,105L120.052,104.375L120.12,101.562L120.189,99.688L120.257,99.375L120.326,99.375L120.394,97.813L120.463,96.25L120.531,95L120.599,96.25L120.668,95.938L120.736,95.938L120.805,95.938L120.873,94.688L120.945,94.375L121.013,93.438L121.081,93.75L121.15,93.75L121.218,94.688L121.287,95L121.355,96.875L121.424,95.313L121.492,96.25L121.561,96.875L121.629,97.813L121.697,94.063L121.766,95.625L121.834,95L121.903,92.5L121.971,90.938L122.04,90.625L122.108,92.187L122.177,95.313L122.245,96.875L122.313,96.875L122.382,96.25L122.45,97.188L122.519,98.75L122.587,100.313L122.656,99.063L122.724,100.625L122.793,100L122.861,100.937L122.93,101.25L122.998,101.562L123.066,103.125L123.135,103.125L123.203,103.438L123.272,102.813L123.34,103.125L123.409,100L123.477,100.937L123.546,100L123.614,102.188L123.682,102.188L123.751,105.938L123.819,103.75L123.888,103.75L123.956,104.063L124.025,105L124.093,106.875L124.162,107.5L124.23,107.5L124.298,106.563L124.367,106.875L124.435,104.688L124.504,104.375L124.572,105L124.641,101.875L124.709,102.813L124.778,102.5L124.846,102.188L124.914,100.625L124.983,100.937L125.051,100.625L125.12,99.688L125.188,99.063L125.257,98.125L125.325,98.125L125.394,97.188L125.462,100L125.53,100.937L125.599,103.75L125.667,102.5L125.736,103.75L125.804,104.063L125.873,105.313L125.941,106.25L126.01,108.438L126.078,107.5L126.146,106.875L126.215,106.563L126.283,106.563L126.352,108.125L126.42,108.125L126.489,110.312L126.557,111.25L126.626,110L126.694,109.063L126.762,108.438L126.831,108.75L126.899,108.125L126.968,109.688L127.036,109.688L127.105,108.75L127.173,108.438L127.242,109.375L127.31,108.75L127.379,108.125L127.447,108.75L127.515,107.5L127.652,106.25L127.721,103.75L127.789,104.063L127.858,104.063L127.926,103.125L127.995,104.063L128.063,102.5L128.131,100.625L128.2,100.313L128.268,100.937L128.337,100.625L128.405,98.438L128.611,96.875L128.679,95.625L128.747,95.625L128.816,93.438L128.884,94.063L128.953,97.813L129.021,97.188L129.09,95.625L129.158,96.875L129.227,91.875L129.295,91.562L129.363,92.813L129.432,93.125L129.5,91.875L129.569,91.562L129.637,92.5L129.706,91.562L129.774,92.813L129.843,89.688L129.911,92.187L129.979,92.813L130.045,93.125L130.114,91.25L130.182,90.313L130.25,90.313L130.319,90.625L130.387,91.875L130.456,86.563L130.524,84.063L130.593,84.063L130.661,82.812L130.73,82.812L130.798,83.75L130.866,85.938L130.935,83.125L131.003,80.938L131.072,80.313L131.14,79.688L131.209,79.063L131.277,84.375L131.346,85.313L131.414,83.438L131.482,81.875L131.551,80.938L131.619,79.375L131.688,78.438L131.756,79.688L131.825,80L131.893,83.125L131.962,80.625L132.03,79.063L132.098,75.625L132.167,77.188L132.235,76.875L132.304,78.125L132.372,79.063L132.441,77.813L132.509,82.5L132.578,82.187L132.646,83.75L132.714,85L132.783,86.563L132.851,86.563L132.92,84.375L132.988,87.813L133.057,88.75L133.125,88.75L133.194,90L133.262,90L133.33,89.688L133.399,88.438L133.467,89.375L133.536,87.813L133.604,88.125L133.673,90.313L133.741,91.875L133.81,90.313L133.878,87.813L133.946,87.813L134.015,88.438L134.083,86.563L134.152,89.688L134.22,90.313L134.289,89.688L134.357,85.625L134.426,82.187L134.494,77.813L134.563,76.563L134.631,78.438L134.699,78.438L134.768,76.25L134.836,76.25L134.905,71.563L134.973,71.875L135.042,68.125L135.11,67.5L135.179,68.125L135.247,67.812L135.315,65L135.384,61.25L135.452,60L135.521,58.75L135.589,62.187L135.658,64.063L135.726,64.375L135.795,64.688L135.863,65.313L135.931,64.375L136,63.75L136.068,65L136.137,67.812L136.205,65L136.274,61.563L136.342,60.625L136.411,61.875L136.479,63.125L136.547,68.125L136.616,68.75L136.684,67.188L136.753,61.875L136.821,61.563L136.89,61.25L136.958,63.125L137.027,63.75L137.095,67.188L137.163,65.938L137.232,64.688L137.3,62.187L137.369,65.625L137.437,67.188L137.506,69.688L137.574,70.313L137.643,65L137.711,62.812L137.779,61.875L137.848,58.75L137.916,54.063L137.985,56.563L138.053,58.437L138.122,55.313L138.19,53.125L138.259,55L138.327,57.5L138.396,58.125L138.464,61.25L138.532,64.063L138.601,60.313L138.669,61.25L138.738,62.812L138.806,67.812L138.875,69.063L138.943,70.313L139.012,74.063L139.08,74.375L139.148,73.125L139.217,73.75L139.285,75.625L139.354,79.063L139.422,80.313L139.491,82.187L139.559,79.375L139.628,78.125L139.696,82.812L139.764,84.063L139.833,83.75L139.901,86.25L139.97,92.187L140.038,92.5L140.107,90.625L140.175,92.5L140.244,92.813L140.312,91.875L140.38,94.063L140.449,95.313L140.517,93.125L140.586,90L140.654,94.063L140.723,92.5L140.791,90.938L140.86,91.25L140.928,94.063L140.996,91.875L141.065,89.375L141.133,89.063L141.202,87.813L141.27,90L141.339,90.313L141.407,90.625L141.476,87.813L141.544,86.875L141.612,88.75L141.681,90.313L141.749,88.75L141.818,87.5L141.886,89.063L141.955,88.438L142.023,85L142.092,83.438L142.16,83.125L142.228,82.5L142.297,84.063L142.365,85L142.434,83.438L142.502,82.5L142.571,79.375L142.639,80.625L142.708,80.313L142.776,81.875L142.845,85L142.913,83.125L142.981,82.5L143.05,80.625L143.118,82.187L143.187,80.938L143.255,83.125L143.324,80.625L143.392,77.813L143.461,73.75L143.529,74.688L143.597,75L143.666,75L143.734,75.938L143.803,78.438L143.871,76.563L143.94,76.25L144.008,76.25L144.077,75.938L144.145,72.813L144.213,73.438L144.282,75.313L144.35,74.063L144.419,73.125L144.487,72.188L144.556,70L144.624,70L144.693,71.875L144.761,72.813L144.829,72.5L144.898,70L144.966,70.313L145.035,70.625L145.103,72.5L145.172,73.438L145.24,75.938L145.309,74.688L145.377,75.625L145.445,78.438L145.514,81.25L145.582,82.812L145.651,84.063L145.719,81.563L145.788,80.938L145.856,80.938L145.925,82.5L145.993,82.187L146.061,83.75L146.13,86.875L146.198,91.875L146.267,91.25L146.338,90.625L146.407,93.125L146.475,94.063L146.543,96.25L146.612,99.063L146.68,102.188L146.749,99.063L146.817,97.188L146.886,96.563L146.954,95.625L147.023,95.313L147.091,93.75L147.159,93.75L147.228,92.187L147.296,90L147.365,91.25L147.433,91.875L147.57,91.25L147.639,91.562L147.707,88.438L147.775,84.688L147.844,87.188L147.912,87.5L147.981,87.188L148.049,89.375L148.118,88.75L148.186,88.125L148.255,88.125L148.323,87.813L148.392,90.313L148.46,91.562L148.528,91.25L148.597,91.25L148.665,81.563L148.734,81.875L148.802,81.875L148.871,82.812L148.939,85.625L149.008,86.875L149.076,89.375L149.144,90.313L149.213,90.625L149.281,91.562L149.35,91.562L149.418,92.813L149.487,92.5L149.555,93.438L149.692,93.125L149.76,88.75L149.829,89.688L149.897,91.875L149.966,92.813L150.034,91.562L150.103,91.875L150.171,91.25L150.24,90.625L150.308,90.938L150.376,92.187L150.445,90.313L150.513,90L150.582,90L150.65,90L150.719,88.75L150.787,96.25L150.856,97.188L150.924,99.063L150.992,100L151.061,96.25L151.129,93.125L151.198,91.25L151.266,90.625L151.335,90.625L151.403,90.938L151.472,91.562L151.54,90.625L151.608,88.75L151.677,87.188L151.745,86.875L151.814,90.938L151.882,92.813L151.951,93.438L152.088,92.187L152.156,80.625L152.225,80.625L152.293,79.688L152.361,67.188L152.43,60L152.498,58.437L152.567,60.313L152.635,60L152.704,59.688L152.772,56.875L152.841,57.812L152.909,59.375L152.977,57.188L153.046,54.063L153.114,55L153.183,57.5L153.251,59.375L153.32,61.875L153.388,62.5L153.457,63.125L153.525,60.625L153.593,55.938L153.662,56.875L153.73,57.812L153.799,60L153.867,60.938L153.936,60.313L154.004,59.063L154.073,58.125L154.141,57.188L154.209,65.313L154.278,63.438L154.346,65.625L154.415,77.5L154.483,84.375L154.552,85.625L154.62,84.688L154.689,85.313L154.757,85L154.825,86.25L154.894,86.563L154.96,85.625L155.028,85.938L155.096,89.063L155.165,88.75L155.233,89.375L155.302,89.688L155.37,89.375L155.439,89.063L155.507,88.125L155.576,90.625L155.644,95.313L155.712,95.938L155.781,96.875L155.849,94.688L155.918,95L155.986,96.25L156.055,97.813L156.123,98.75L156.192,88.75L156.26,93.438L156.328,93.125L156.397,92.813L156.465,95.625L156.534,92.5L156.602,91.25L156.739,92.187L156.808,87.5L156.876,86.875L156.944,85.625L157.013,84.375L157.081,85.313L157.15,85L157.218,84.063L157.287,80.938L157.355,80L157.424,79.688L157.492,79.688L157.56,80.625L157.629,80.625L157.697,80.313L157.766,79.375L157.834,78.75L157.903,78.438L157.971,80.625L158.04,80.625L158.108,80.313L158.176,79.688L158.245,77.188L158.313,88.438L158.382,88.125L158.45,90.313L158.519,90.313L158.724,89.063L158.792,90.313L158.861,87.188L158.929,86.563L158.998,87.813L159.066,85.625L159.135,84.375L159.203,84.375L159.272,80.938L159.34,80.938L159.409,80L159.477,82.812L159.545,81.875L159.614,81.563L159.682,80.313L159.751,77.813L159.819,76.875L159.888,76.875L159.956,77.813L160.025,75.313L160.093,73.125L160.161,71.875L160.23,63.438L160.298,62.187L160.367,61.25L160.435,65L160.504,64.063L160.572,63.438L160.641,60.938L160.709,54.063L160.777,53.437L160.846,55L160.914,59.375L160.983,57.5L161.188,57.188L161.257,56.563L161.325,56.563L161.393,56.563L161.462,60L161.53,61.25L161.599,61.25L161.667,60.313L161.736,61.25L161.804,60L161.873,59.063L161.941,61.25L162.009,62.187L162.078,60L162.146,58.125L162.215,60.313L162.283,60L162.352,56.563L162.42,64.375L162.489,66.563L162.557,66.25L162.625,63.75L162.694,61.25L162.762,59.375L162.831,59.688L162.899,65L162.968,65.938L163.036,62.812L163.105,59.375L163.173,57.812L163.242,59.063L163.31,61.875L163.378,64.688L163.447,66.875L163.515,66.563L163.584,65.938L163.652,66.875L163.721,66.25L163.789,66.25L163.858,69.375L163.926,70.938L163.994,70.938L164.063,70.938L164.131,72.5L164.2,73.75L164.268,74.375L164.337,77.5L164.405,81.25L164.474,80.625L164.542,79.063L164.61,80.313L164.679,80.313L164.747,84.375L164.816,87.188L164.884,88.75L164.953,88.75L165.021,88.125L165.09,90L165.158,92.5L165.226,95.625L165.295,95.938L165.363,96.875L165.432,97.188L165.5,95L165.569,93.75L165.637,92.813L165.706,91.875L165.774,93.75L165.842,94.688L165.911,92.5L165.979,90.313L166.048,88.75L166.116,87.813L166.185,88.125L166.253,87.813L166.322,88.125L166.39,87.813L166.458,87.813L166.527,88.438L166.595,88.125L166.664,86.25L166.732,88.75L166.801,87.5L166.869,86.25L166.938,85.938L167.006,86.563L167.074,88.438L167.143,88.438L167.211,87.813L167.28,88.75L167.348,90.313L167.417,87.5L167.485,86.875L167.554,88.125L167.622,88.75L167.691,89.375L167.759,89.063L167.827,82.5L167.896,81.563L167.964,83.438L168.033,84.063L168.101,85.938L168.17,88.125L168.238,88.75L168.307,87.813L168.375,87.188L168.443,85L168.512,83.75L168.58,82.5L168.649,82.5L168.717,84.063L168.786,82.187L168.854,81.563L168.923,81.875L168.991,79.688L169.059,79.688L169.128,76.563L169.196,77.813L169.265,77.188L169.333,75.938L169.402,75L169.47,75L169.539,75L169.607,73.438L169.675,73.75L169.744,73.75L169.812,75.938L169.881,81.875L169.949,81.875L170.018,82.187L170.086,84.688L170.155,83.125L170.223,81.563L170.291,59.063L170.36,60.938L170.428,61.875L170.497,62.812L170.565,63.75L170.634,61.875L170.702,61.875L170.771,60L170.839,60L170.907,60.313L170.976,57.812L171.044,60.625L171.113,61.25L171.181,62.5L171.253,62.5L171.321,60.938L171.389,58.437L171.458,55.625L171.526,57.812L171.595,57.812L171.663,58.75L171.732,58.437L171.8,51.25L171.869,46.875L171.937,45.313L172.005,46.875L172.074,18.438L172.142,15.312L172.211,17.188L172.279,18.438L172.348,41.25L172.416,40.313L172.485,40L172.553,41.875L172.621,43.125L172.69,46.875L172.758,46.875L172.827,46.563L172.895,47.188L172.964,47.5L173.032,51.563L173.101,52.188L173.169,51.25L173.238,48.75L173.306,48.125L173.374,49.375L173.443,53.75L173.511,57.5L173.58,53.75L173.648,41.25L173.717,41.563L173.785,40.313L173.854,48.437L173.922,49.688L173.99,52.188L174.059,51.875L174.127,79.063L174.196,78.438L174.264,77.5L174.333,76.25L174.401,75.938L174.47,75.625L174.538,75L174.606,74.688L174.675,72.5L174.743,71.563L174.812,72.5L174.88,74.688L174.949,74.688L175.017,74.063L175.086,74.063L175.154,70L175.222,69.063L175.291,73.438L175.359,74.375L175.428,76.25L175.496,73.75L175.565,72.5L175.633,75L175.702,86.875L175.77,87.5L175.838,87.813L175.907,85L175.975,86.563L176.044,83.75L176.112,82.5L176.181,82.5L176.249,86.563L176.318,87.5L176.454,89.063L176.523,87.188L176.591,87.188L176.66,86.563L176.728,84.375L176.797,85.938L176.865,85.938L176.934,86.25L177.002,86.563L177.07,86.875L177.139,85.625L177.207,83.75L177.276,87.188L177.344,89.063L177.413,86.563L177.481,83.75L177.55,83.125L177.618,81.875L177.687,81.875L177.755,84.063L177.823,86.563L177.892,85.938L177.96,88.125L178.029,90L178.097,90.313L178.166,92.5L178.234,92.813L178.303,94.375L178.371,93.438L178.439,90.938L178.508,90.313L178.576,90.313L178.645,92.187L178.713,93.75L178.782,95.938L178.85,92.187L178.919,89.375L178.987,89.063L179.055,87.5L179.124,87.5L179.192,91.562L179.261,92.813L179.329,91.25L179.398,89.375L179.466,90.313L179.535,92.187L179.603,92.813L179.671,95.938L179.74,95.625L179.808,92.5L179.874,89.688L179.942,87.813L180.011,87.813L180.079,87.813L180.148,88.125L180.216,88.125L180.285,88.438L180.353,85.625L180.422,85L180.49,85.625L180.558,85L180.627,87.5L180.695,85.938L180.764,84.688L180.832,82.812L180.901,85.625L180.969,88.125L181.038,87.5L181.106,89.375L181.174,88.75L181.243,86.875L181.311,83.75L181.38,83.438L181.448,83.75L181.517,81.563L181.585,81.25L181.654,76.563L181.722,74.688L181.79,75.938L181.859,77.188L181.927,78.75L181.996,81.563L182.064,82.5L182.133,81.563L182.201,79.063L182.27,77.188L182.338,76.563L182.406,77.5L182.475,76.25L182.543,77.188L182.612,76.563L182.749,73.125L182.817,72.188L182.886,70.625L182.954,70.938L183.022,70.625L183.091,70.938L183.159,70.625L183.228,65.625L183.296,65L183.365,65.625L183.433,68.75L183.502,70.313L183.57,70L183.638,70.938L183.707,69.375L183.775,73.75L183.844,73.125L183.912,73.438L183.981,74.375L184.049,70.625L184.118,69.063L184.186,68.438L184.255,69.063L184.323,70.625L184.391,71.875L184.46,72.5L184.528,72.188L184.597,71.25L184.665,70.313L184.734,69.375L184.802,71.563L184.871,73.438L184.939,75L185.007,72.5L185.144,71.875L185.213,70.625L185.281,70.938L185.35,74.688L185.418,76.25L185.487,75.938L185.555,75.625L185.623,75.938L185.692,77.813L185.76,79.375L185.829,80.938L185.897,80.313L185.966,83.125L186.034,79.375L186.103,78.438L186.171,77.188L186.239,77.188L186.308,77.813L186.376,77.5L186.445,79.063L186.513,77.188L186.582,74.375L186.65,73.438L186.719,74.375L186.787,73.438L186.855,75.938L186.924,77.188L186.992,74.375L187.061,73.75L187.129,74.688L187.198,74.375L187.266,75.938L187.335,77.188L187.403,76.875L187.471,75L187.54,75L187.608,75L187.677,73.75L187.745,70.313L187.814,70L187.882,69.688L187.951,70.313L188.019,68.75L188.087,71.25L188.156,71.25L188.224,76.875L188.293,77.813L188.361,77.813L188.43,76.875L188.498,76.25L188.567,77.813L188.635,80.625L188.704,82.812L188.772,84.063L188.84,87.188L188.909,88.125L188.977,87.188L189.046,90L189.114,89.063L189.183,92.187L189.251,94.375L189.32,94.375L189.388,94.063L189.456,93.125L189.525,93.75L189.593,94.063L189.662,93.75L189.73,94.063L189.799,97.5L189.867,98.75L189.936,97.813L190.004,95L190.072,95.625L190.141,93.75L190.209,94.375L190.278,93.438L190.346,93.125L190.415,92.5L190.483,95L190.552,95L190.62,94.063L190.688,95L190.757,94.375L190.825,95L190.894,94.375L190.962,93.75L191.031,91.875L191.099,89.688L191.168,91.562L191.236,91.875L191.304,92.5L191.373,92.5L191.441,92.813L191.51,94.375L191.578,95L191.647,96.25L191.715,97.5L191.784,95L191.852,91.25L191.92,88.438L191.989,90L192.057,93.125L192.126,93.125L192.194,95.625L192.263,95.938L192.331,94.375L192.4,94.063L192.468,93.75L192.537,91.25L192.605,90.938L192.673,93.438L192.742,90.625L192.81,90.938L192.879,88.438L192.947,87.188L193.016,87.5L193.084,89.688L193.153,92.5L193.221,92.187L193.289,89.375L193.358,86.25L193.426,85.938L193.495,84.688L193.563,85L193.632,84.375L193.7,81.25L193.769,80.625L193.837,83.438L193.905,85.625L193.974,86.563L194.042,86.25L194.111,86.563L194.179,86.875L194.248,86.563L194.316,86.875L194.385,89.375L194.453,89.375L194.521,88.125L194.59,90.313L194.658,91.25L194.727,87.188L194.795,85.938L194.864,84.688L194.932,87.813L195.001,90L195.069,89.063L195.137,85.938L195.206,85L195.274,85.313L195.343,88.438L195.411,90.938L195.48,92.187L195.548,93.438L195.617,91.562L195.685,92.187L195.753,93.75L195.822,93.438L195.89,93.125L195.959,95.313L196.027,95.625L196.096,91.875L196.167,88.75L196.235,89.063L196.304,89.375L196.372,89.375L196.441,89.063L196.509,90.625L196.578,91.25L196.646,90L196.715,86.563L196.783,88.438L196.851,90.313L196.92,91.25L196.988,91.562L197.057,91.25L197.125,92.5L197.194,95.625L197.262,95.938L197.331,95.938L197.399,93.75L197.467,93.75L197.536,90.938L197.604,88.75L197.673,91.25L197.741,91.562L197.81,91.562L197.878,92.5L197.947,93.125L198.015,89.063L198.084,88.75L198.152,92.5L198.22,94.688L198.289,94.688L198.357,95.938L198.426,93.75L198.494,93.125L198.563,91.875L198.631,92.5L198.7,95.313L198.768,95.938L198.836,97.5L198.905,98.75L198.973,99.375L199.042,98.75L199.11,98.438L199.179,97.5L199.247,97.188L199.316,95L199.384,94.375L199.452,92.813L199.521,91.25L199.589,92.813L199.658,95L199.726,93.125L199.795,91.25L199.863,91.25L200,89.063L200.068,83.438L200.137,86.25L200.205,87.813L200.274,89.688L200.411,90.938L200.479,90.938L200.548,90L200.616,90.938L200.684,91.25L200.753,92.187L200.821,91.25L200.89,88.125L200.958,91.562L201.027,90.313L201.095,90L201.164,90.625L201.232,90.625L201.3,91.25L201.437,92.5L201.506,91.875L201.574,92.187L201.643,93.438L201.711,96.25L201.78,97.813L201.848,96.875L201.916,95.938L201.985,93.125L202.053,95.313L202.122,93.75L202.19,95.625L202.259,102.188" stroke="#4c78a8" stroke-width="2"/></g><g class="mark-group role-title"><g transform="translate(100,-17)"><path class="background" aria-hidden="true" d="M0,0h0v0h0Z" pointer-events="none"/><g><g class="mark-text role-title-text" role="graphics-symbol" aria-roledescription="title" aria-label="Title text 'General Construction/Plumbing: Curb Cut/Driveway/Carport - Illegal'" pointer-events="none"><text text-anchor="middle" transform="translate(0,10)" font-family="sans-serif" font-size="13px" font-weight="bold" fill="#000" opacity="1">General Construction/Plumbing: Curb Cut/Driveway/Carport - Illegal</text></g></g><path class="foreground" aria-hidden="true" d="" pointer-events="none" display="none"/></g></g></g><path class="foreground" aria-hidden="true" d="" display="none"/></g></g></g><defs><clipPath id="clip147"><rect x="0" y="0" width="200" height="150"/></clipPath></defs></svg>