<svg xmlns="http://www.w3.org/2000/svg" xmlns:xlink="http://www.w3.org/1999/xlink" version="1.1" class="marks" width="230" height="199" viewBox="0 0 230 199"><rect width="230" height="199" fill="white"/><g fill="none" stroke-miterlimit="10" transform="translate(24,27)"><g class="mark-group role-frame root" role="graphics-object" aria-roledescription="group mark container"><g transform="translate(0,0)"><path class="background" aria-hidden="true" d="M0,0h200v150h-200Z"/><g><g class="mark-group role-axis" aria-hidden="true"><g transform="translate(0.5,0.5)"><path class="background" aria-hidden="true" d="M0,0h0v0h0Z" pointer-events="none"/><g><g class="mark-rule role-axis-grid" pointer-events="none"><line transform="translate(0,150)" x2="200" y2="0" stroke="#ddd" stroke-width="1" opacity="1"/><line transform="translate(0,120)" x2="200" y2="0" stroke="#ddd" stroke-width="1" opacity="1"/><line transform="translate(0,90)" x2="200" y2="0" stroke="#ddd" stroke-width="1" opacity="1"/><line transform="translate(0,60)" x2="200" y2="0" stroke="#ddd" stroke-width="1" opacity="1"/><line transform="translate(0,30)" x2="200" y2="0" stroke="#ddd" stroke-width="1" opacity="1"/><line transform="translate(0,0)" x2="200" y2="0" stroke="#ddd" stroke-width="1" opacity="1"/></g></g><path class="foreground" aria-hidden="true" d="" pointer-events="none" display="none"/></g></g><g class="mark-group role-axis" role="graphics-symbol" aria-roledescription="axis" aria-label="X-axis for a time scale with values from Friday, 01 January 2016, 12:00:00 AM to Monday, 01 January 2024, 12:00:00 AM"><g transform="translate(0.5,150.5)"><path class="background" aria-hidden="true" d="M0,0h0v0h0Z" pointer-events="none"/><g><g class="mark-rule role-axis-tick" pointer-events="none"><line transform="translate(0,0)" x2="0" y2="5" stroke="#888" stroke-width="1" opacity="1"/><line transform="translate(50,0)" x2="0" y2="5" stroke="#888" stroke-width="1" opacity="1"/><line transform="translate(100,0)" x2="0" y2="5" stroke="#888" stroke-width="1" opacity="1"/><line transform="translate(150,0)" x2="0" y2="5" stroke="#888" stroke-width="1" opacity="1"/><line transform="translate(200,0)" x2="0" y2="5" stroke="#888" stroke-width="1" opacity="1"/></g><g class="mark-text role-axis-label" pointer-events="none"><text text-anchor="start" transform="translate(0,15)" font-family="sans-serif" font-size="10px" fill="#000" opacity="1">2016</text><text text-anchor="middle" transform="translate(50.03422313483915,15)" font-family="sans-serif" font-size="10px" fill="#000" opacity="1">2018</text><text text-anchor="middle" transform="translate(100,15)" font-family="sans-serif" font-size="10px" fill="#000" opacity="1">2020</text><text text-anchor="middle" transform="translate(150.03422313483915,15)" font-family="sans-serif" font-size="10px" fill="#000" opacity="1">2022</text><text text-anchor="end" transform="translate(200,15)" font-family="sans-serif" font-size="10px" fill="#000" opacity="1">2024</text></g><g class="mark-rule role-axis-domain" pointer-events="none"><line transform="translate(0,0)" x2="200" y2="0" stroke="#888" stroke-width="1" opacity="1"/></g></g><path class="foreground" aria-hidden="true" d="" pointer-events="none" display="none"/></g></g><g class="mark-group role-axis" role="graphics-symbol" aria-roledescription="axis" aria-label="Y-axis for a linear scale with values from 0 to 10"><g transform="translate(0.5,0.5)"><path class="background" aria-hidden="true" d="M0,0h0v0h0Z" pointer-events="none"/><g><g class="mark-rule role-axis-tick" pointer-events="none"><line transform="translate(0,150)" x2="-5" y2="0" stroke="#888" stroke-opacity="0" stroke-width="1" opacity="1"/><line transform="translate(0,120)" x2="-5" y2="0" stroke="#888" stroke-opacity="0" stroke-width="1" opacity="1"/><line transform="translate(0,90)" x2="-5" y2="0" stroke="#888" stroke-opacity="0" stroke-width="1" opacity="1"/><line transform="translate(0,60)" x2="-5" y2="0" stroke="#888" stroke-opacity="0" stroke-width="1" opacity="1"/><line transform="translate(0,30)" x2="-5" y2="0" stroke="#888" stroke-opacity="0" stroke-width="1" opacity="1"/><line transform="translate(0,0)" x2="-5" y2="0" stroke="#888" stroke-opacity="0" stroke-width="1" opacity="1"/></g><g class="mark-text role-axis-label" pointer-events="none"><text text-anchor="end" transform="translate(-7,153)" font-family="sans-serif" font-size="10px" fill="#000" opacity="1">0</text><text text-anchor="end" transform="translate(-7,123)" font-family="sans-serif" font-size="10px" fill="#000" opacity="1">2</text><text text-anchor="end" transform="translate(-7,93)" font-family="sans-serif" font-size="10px" fill="#000" opacity="1">4</text><text text-anchor="end" transform="translate(-7,63)" font-family="sans-serif" font-size="10px" fill="#000" opacity="1">6</text><text text-anchor="end" transform="translate(-7,32.99999999999999)" font-family="sans-serif" font-size="10px" fill="#000" opacity="1">8</text><text text-anchor="end" transform="translate(-7,3)" font-family="sans-serif" font-size="10px" fill="#000" opacity="1">10</text></g></g><path class="foreground" aria-hidden="true" d="" pointer-events="none" display="none"/></g></g><g class="mark-line role-mark marks" clip-path="url(#clip148)" role="graphics-object" aria-roledescription="line mark container"><path aria-label="day: Jan 01, 2010; avg: 7.26666666667" role="graphics-symbol" aria-roledescription="line mark" d="M-149.966,41L-149.897,42.5L-149.829,35.5L-149.76,35L-149.692,35L-149.624,36L-149.555,33L-149.487,34L-149.418,37.5L-149.35,35L-149.281,33L-149.213,33L-149.144,34.5L-149.076,37L-149.008,39L-148.939,41L-148.871,37.5L-148.802,35.5L-148.734,34L-148.665,32.5L-148.597,33.5L-148.528,33L-148.46,34.5L-148.392,35L-148.323,35.5L-148.255,37L-148.186,38L-148.118,42L-148.049,50.5L-147.981,50.5L-147.912,45.5L-147.844,39.5L-147.775,44.5L-147.707,44L-147.639,43.5L-147.57,42.5L-147.502,46.5L-147.433,44L-147.365,44L-147.296,46.5L-147.228,49.5L-147.159,51L-147.091,52L-147.023,53.5L-146.954,53L-146.886,52L-146.817,54.5L-146.749,55.5L-146.68,58L-146.612,61.5L-146.543,63L-146.475,62L-146.407,59L-146.338,58.5L-146.27,58L-146.201,57.5L-146.133,57L-146.064,57.5L-145.996,55L-145.927,54L-145.859,57.5L-145.791,60.5L-145.722,61L-145.654,64.5L-145.585,67L-145.517,68L-145.448,66.5L-145.38,67.5L-145.311,63.5L-145.243,64L-145.175,63L-145.106,64.5L-145.038,63L-144.972,62L-144.904,61.5L-144.835,61.5L-144.767,59L-144.698,63L-144.63,59L-144.561,57.5L-144.493,54L-144.424,54L-144.356,56L-144.288,58L-144.219,57.5L-144.151,59.5L-144.082,57L-144.014,54.5L-143.945,55.5L-143.877,60L-143.808,60L-143.74,62L-143.672,62L-143.603,58.5L-143.535,54L-143.466,54.5L-143.398,57L-143.329,57L-143.261,55.5L-143.192,53.5L-143.124,53L-143.056,52.5L-142.987,54L-142.919,53.5L-142.85,55L-142.782,55.5L-142.645,57.5L-142.576,55.5L-142.508,58.5L-142.44,59.5L-142.371,62L-142.303,64.5L-142.234,62.5L-142.097,59.5L-142.029,59.5L-141.96,55L-141.892,56.5L-141.824,59.5L-141.755,61L-141.687,58.5L-141.618,56L-141.55,53L-141.481,52L-141.413,55.5L-141.344,57L-141.276,57.5L-141.208,52L-141.139,52.5L-141.071,57.5L-141.002,54.5L-140.934,55L-140.865,57L-140.797,57.5L-140.728,54.5L-140.66,54L-140.591,52.5L-140.523,52L-140.455,52L-140.386,54L-140.318,54L-140.249,53.5L-140.181,49L-140.112,50L-140.044,50L-139.975,48.5L-139.907,54L-139.839,56.5L-139.77,53.5L-139.702,49L-139.633,49.5L-139.565,50.5L-139.496,52L-139.428,54.5L-139.359,55L-139.291,56L-139.223,54L-139.154,56L-139.086,56L-139.017,52L-138.949,56L-138.88,56.5L-138.812,54L-138.743,53.5L-138.675,56L-138.607,55L-138.538,57.5L-138.47,57.5L-138.401,59.5L-138.333,57.5L-138.264,56.5L-138.196,54L-138.127,56L-138.059,58L-137.991,58.5L-137.922,58.5L-137.854,56L-137.785,52.5L-137.717,55L-137.648,56L-137.58,52L-137.511,53.5L-137.443,56.5L-137.375,53L-137.306,49.5L-137.238,49L-137.169,51L-137.101,52L-137.032,53L-136.964,55L-136.895,55.5L-136.827,54.5L-136.758,53.5L-136.69,52.5L-136.622,53.5L-136.553,52.5L-136.485,53L-136.416,52.5L-136.348,51.5L-136.279,50L-136.211,47.5L-136.142,47L-136.074,49L-136.006,49.5L-135.937,47.5L-135.869,48.5L-135.8,48L-135.732,48L-135.663,47.5L-135.595,48L-135.526,54L-135.458,48.5L-135.39,47L-135.321,47.5L-135.253,48.5L-135.184,50.5L-135.116,50.5L-135.047,52.5L-134.979,54L-134.91,53L-134.842,52L-134.774,50.5L-134.705,52.5L-134.637,53.5L-134.568,54L-134.5,54L-134.431,51L-134.363,52.5L-134.294,50L-134.226,49.5L-134.158,54L-134.089,57L-134.021,54L-133.952,53L-133.884,55L-133.815,55.5L-133.747,57.5L-133.678,62L-133.61,61.5L-133.542,61L-133.473,58L-133.405,60L-133.336,59L-133.268,59.5L-133.199,59L-133.131,57L-133.062,56.5L-132.994,55.5L-132.926,52.5L-132.857,55.5L-132.789,55.5L-132.72,58.5L-132.652,59L-132.583,60L-132.515,57L-132.446,57.5L-132.378,59.5L-132.309,59.5L-132.241,62L-132.173,64.5L-132.104,57.5L-132.036,56.5L-131.967,59L-131.899,58.5L-131.83,45L-131.762,45L-131.693,46L-131.625,43.5L-131.557,45L-131.488,46.5L-131.42,43L-131.351,47L-131.283,47L-131.214,45L-131.146,45.5L-131.077,45L-131.009,45L-130.941,44L-130.872,45L-130.804,46L-130.735,46L-130.667,45L-130.598,43.5L-130.53,40.5L-130.461,41.5L-130.393,43.5L-130.325,45.5L-130.256,41L-130.188,39.5L-130.119,38.5L-130.051,44.5L-129.982,44L-129.914,41.5L-129.845,44L-129.777,56.5L-129.709,53L-129.572,52L-129.503,54L-129.435,53L-129.366,54.5L-129.298,60L-129.229,59.5L-129.161,57L-129.093,60L-129.024,60L-128.956,60L-128.887,58L-128.819,61L-128.75,60L-128.679,56.5L-128.611,57L-128.542,57L-128.474,58L-128.405,58.5L-128.337,61L-128.268,56.5L-128.2,55L-128.131,56L-128.063,55L-127.995,55L-127.926,56L-127.858,59L-127.789,58.5L-127.721,53.5L-127.652,55L-127.584,56.5L-127.515,55.5L-127.447,56L-127.379,56L-127.31,56.5L-127.242,56.5L-127.173,54.5L-127.105,57.5L-127.036,57L-126.968,59L-126.899,58.5L-126.831,60.5L-126.762,58.5L-126.694,55.5L-126.626,56L-126.557,59L-126.489,60L-126.42,60.5L-126.352,60L-126.283,55.5L-126.215,58L-126.146,57L-126.078,61L-126.01,64.5L-125.941,63.5L-125.873,60.5L-125.804,57L-125.736,59.5L-125.667,62.5L-125.599,62L-125.53,65L-125.462,66.5L-125.394,63L-125.325,61L-125.257,60L-125.188,59L-125.12,62L-125.051,61.5L-124.983,59L-124.846,59L-124.778,61.5L-124.709,61L-124.641,61.5L-124.572,65.5L-124.504,67.5L-124.435,60.5L-124.367,58L-124.298,57.5L-124.23,59L-124.162,63L-124.093,63L-124.025,64L-123.956,62.5L-123.888,60L-123.819,59L-123.751,59L-123.682,55L-123.614,54.5L-123.546,55L-123.477,57L-123.409,51.5L-123.34,51.5L-123.272,53L-123.203,54L-123.135,54L-123.066,54.5L-122.998,52.5L-122.93,54.5L-122.861,56L-122.793,53.5L-122.724,51.5L-122.656,52.5L-122.587,51L-122.519,49.5L-122.45,47.5L-122.382,51L-122.313,52L-122.245,52.5L-122.177,50.5L-122.108,51.5L-122.04,52L-121.971,49.5L-121.903,49.5L-121.834,49.5L-121.766,50.5L-121.697,52.5L-121.629,59L-121.561,57.5L-121.492,55.5L-121.424,49L-121.355,52L-121.287,52.5L-121.218,52.5L-121.15,52L-121.081,47.5L-121.013,45L-120.945,47L-120.876,45.5L-120.808,46L-120.739,49L-120.671,52L-120.602,45L-120.534,42L-120.465,42.5L-120.397,43.5L-120.329,43.5L-120.26,44.5L-120.192,44.5L-120.123,43L-120.058,40L-119.989,38L-119.921,39L-119.852,39L-119.784,40.5L-119.715,44L-119.647,41.5L-119.578,40L-119.51,42L-119.442,40.5L-119.373,45.5L-119.305,46.5L-119.236,48L-119.168,42L-119.099,42L-119.031,45L-118.962,44L-118.894,42L-118.826,41.5L-118.757,43L-118.689,39L-118.62,35.5L-118.552,41L-118.483,42L-118.415,42L-118.346,43L-118.278,46L-118.21,42L-118.141,39L-118.073,41.5L-118.004,40L-117.936,41.5L-117.867,43.5L-117.799,43.5L-117.73,41.5L-117.662,37L-117.594,38L-117.525,39L-117.457,39L-117.388,40.5L-117.32,40L-117.251,39.5L-117.183,35.5L-117.114,40L-117.046,38.5L-116.978,38L-116.909,41L-116.841,43L-116.772,41L-116.704,39.5L-116.635,42L-116.567,41.5L-116.498,41.5L-116.43,46.5L-116.362,46.5L-116.293,41.5L-116.225,38L-116.156,34.5L-116.088,36L-116.019,36L-115.951,39.5L-115.882,37.5L-115.814,35.5L-115.745,34L-115.677,36L-115.609,36L-115.54,37L-115.472,36L-115.403,33L-115.335,31.5L-115.266,33L-115.198,35L-115.129,35.5L-115.061,36L-114.993,39L-114.924,37.5L-114.856,36L-114.719,33.5L-114.65,34.5L-114.582,34.5L-114.513,35.5L-114.445,38L-114.377,40L-114.308,32L-114.24,33.5L-114.171,36L-114.103,36.5L-114.034,42.5L-113.966,44L-113.897,44L-113.829,40L-113.761,41.5L-113.692,41L-113.624,39.5L-113.555,41L-113.487,44.5L-113.418,44L-113.35,44.5L-113.281,47.5L-113.213,47.5L-113.145,46L-113.076,46L-113.008,48L-112.939,50L-112.871,44.5L-112.802,44.5L-112.734,45.5L-112.665,45L-112.597,45L-112.529,47L-112.46,46L-112.392,45L-112.323,42L-112.255,47.5L-112.186,45L-112.118,48L-112.049,50.5L-111.981,50L-111.913,48L-111.844,47L-111.776,47.5L-111.707,47L-111.639,48.5L-111.57,54L-111.502,52L-111.433,51.5L-111.365,52L-111.296,49L-111.228,48.5L-111.16,51L-111.091,52L-111.023,52.5L-110.954,49.5L-110.886,49L-110.817,54L-110.749,57L-110.68,59.5L-110.612,61.5L-110.544,63.5L-110.475,63.5L-110.407,64L-110.338,64.5L-110.27,67L-110.201,69.5L-110.133,71.5L-110.064,72L-109.996,70.5L-109.928,71.5L-109.859,73.5L-109.791,74L-109.722,74.5L-109.654,77.5L-109.585,76.5L-109.517,74L-109.448,75.5L-109.38,76L-109.312,76L-109.243,79L-109.175,79L-109.106,81L-109.038,81L-108.969,78.5L-108.901,81.5L-108.832,80L-108.764,82L-108.696,82.5L-108.627,79L-108.559,78L-108.49,76.5L-108.422,74.5L-108.353,73L-108.285,74L-108.216,71.5L-108.148,68.5L-108.08,69L-108.011,68L-107.943,68L-107.874,68.5L-107.806,69L-107.737,68.5L-107.669,70L-107.6,69.5L-107.532,68.5L-107.463,68L-107.395,67L-107.327,67.5L-107.258,65L-107.19,63.5L-107.121,63.5L-107.053,60L-106.984,60.5L-106.916,63L-106.847,61L-106.779,61L-106.711,59.5L-106.642,58.5L-106.574,56.5L-106.505,58L-106.437,60L-106.368,61L-106.3,61L-106.163,60L-106.095,61.5L-106.026,62L-105.958,62L-105.889,60.5L-105.821,60L-105.752,59L-105.684,59L-105.615,58.5L-105.547,59.5L-105.479,60L-105.41,63L-105.342,60L-105.273,57.5L-105.205,55.5L-105.136,55.5L-105.068,57L-104.999,59L-104.931,63L-104.863,58.5L-104.726,55.5L-104.657,58L-104.589,60L-104.52,61L-104.452,62.5L-104.383,66.5L-104.315,65L-104.247,64L-104.178,63L-104.11,64L-104.041,65.5L-103.973,67L-103.904,66L-103.836,62.5L-103.765,60.5L-103.696,59.5L-103.628,58L-103.559,53L-103.491,56.5L-103.422,57L-103.354,53.5L-103.285,51L-103.217,52.5L-103.149,52.5L-103.08,52L-103.012,55.5L-102.943,57.5L-102.875,54L-102.806,50.5L-102.738,52.5L-102.669,53L-102.601,49L-102.533,47L-102.464,45.5L-102.396,43.5L-102.327,41.5L-102.259,41.5L-102.19,41.5L-102.122,44.5L-102.053,44L-101.985,43.5L-101.916,41.5L-101.848,41.5L-101.78,45L-101.711,44.5L-101.643,47L-101.574,49L-101.506,52L-101.437,48.5L-101.369,44L-101.3,45.5L-101.232,47L-101.164,50L-101.095,53.5L-101.027,57L-100.958,53L-100.89,47L-100.821,47.5L-100.753,45L-100.684,48.5L-100.616,51.5L-100.548,50L-100.411,49L-100.342,46.5L-100.274,46L-100.205,44.5L-100.137,45.5L-100.068,44.5L-100,40L-99.932,39L-99.863,38.5L-99.795,38L-99.726,35L-99.658,33.5L-99.589,37L-99.521,34L-99.452,32L-99.384,31L-99.316,32.5L-99.247,36L-99.179,36L-99.11,36L-99.042,34.5L-98.973,31.5L-98.905,25L-98.836,28L-98.768,31L-98.7,32.5L-98.631,38L-98.563,34L-98.494,32.5L-98.426,32L-98.357,31L-98.289,31.5L-98.22,32L-98.152,35.5L-98.084,35.5L-98.015,35.5L-97.947,36.5L-97.878,38L-97.81,36.5L-97.741,38L-97.673,41L-97.604,40.5L-97.536,40L-97.467,38L-97.399,36L-97.331,37.5L-97.262,40L-97.194,40.5L-97.125,40.5L-97.057,38.5L-96.988,37L-96.92,36L-96.851,38.5L-96.783,39L-96.715,41L-96.646,39.5L-96.578,35.5L-96.509,37L-96.441,37L-96.372,42L-96.304,44.5L-96.235,48.5L-96.167,45.5L-96.099,43.5L-96.03,42.5L-95.962,42L-95.893,40.5L-95.825,40.5L-95.756,40L-95.688,39L-95.619,38.5L-95.551,39L-95.483,38L-95.414,40.5L-95.346,45.5L-95.277,47L-95.209,42.5L-95.143,41.5L-95.075,39.5L-95.006,39L-94.938,40.5L-94.869,44L-94.801,46L-94.732,42L-94.664,39.5L-94.596,38L-94.527,38.5L-94.459,38L-94.39,38.5L-94.322,39L-94.253,37.5L-94.185,35.5L-94.116,39.5L-94.048,40L-93.98,39L-93.911,41.5L-93.843,46L-93.774,45.5L-93.706,48.5L-93.637,49.5L-93.569,49L-93.5,51L-93.432,53.5L-93.364,56.5L-93.295,51.5L-93.227,49.5L-93.158,52L-93.09,51L-93.021,54L-92.953,56.5L-92.884,58.5L-92.816,56L-92.748,52.5L-92.679,55.5L-92.611,59L-92.542,62L-92.474,64.5L-92.405,64.5L-92.337,63.5L-92.268,60L-92.2,60L-92.132,60L-92.063,58L-91.995,58L-91.926,57.5L-91.858,57L-91.789,55.5L-91.721,54.5L-91.652,53L-91.584,52L-91.516,54.5L-91.447,55L-91.379,51L-91.31,48.5L-91.242,53.5L-91.173,51L-91.105,49L-91.036,48.5L-90.968,50L-90.899,48.5L-90.831,47L-90.763,49L-90.694,51L-90.626,51L-90.557,50L-90.489,51L-90.42,46.5L-90.352,47L-90.283,45.5L-90.215,49L-90.147,48L-90.078,48L-90.01,49.5L-89.941,50L-89.873,48.5L-89.804,48L-89.736,46L-89.667,45.5L-89.599,46L-89.531,48L-89.462,46L-89.394,44.5L-89.325,48L-89.257,46.5L-89.188,43.5L-89.12,48L-89.051,49.5L-88.983,52.5L-88.915,49L-88.846,50.5L-88.778,49.5L-88.709,46.5L-88.641,47L-88.572,47.5L-88.504,44.5L-88.435,41.5L-88.367,45.5L-88.299,44.5L-88.23,45L-88.162,43L-88.093,45.5L-88.025,45.5L-87.956,45L-87.888,45L-87.819,47L-87.751,47.5L-87.683,49L-87.614,51.5L-87.546,48.5L-87.477,46.5L-87.409,47L-87.34,45L-87.272,43.5L-87.203,47L-87.135,49.5L-87.067,45.5L-86.998,42.5L-86.93,40L-86.861,42L-86.793,41.5L-86.724,44L-86.656,43.5L-86.587,43L-86.519,42L-86.45,42L-86.382,38.5L-86.314,36L-86.245,39L-86.177,38L-86.108,38L-86.04,36.5L-85.971,35.5L-85.903,34L-85.834,34L-85.766,35.5L-85.698,34.5L-85.629,31.5L-85.561,27.5L-85.492,27.5L-85.424,27L-85.355,30.5L-85.287,34.5L-85.218,35.5L-85.15,33.5L-85.082,31L-85.013,29.5L-84.945,33L-84.876,36L-84.808,34.5L-84.671,35L-84.602,32L-84.534,34L-84.466,32.5L-84.397,34L-84.329,35L-84.26,39L-84.192,42L-84.123,39L-84.055,40L-83.986,40L-83.918,42L-83.85,44L-83.781,45.5L-83.713,46L-83.644,45L-83.576,44L-83.507,47L-83.439,48.5L-83.37,51.5L-83.302,50.5L-83.234,48L-83.097,45.5L-83.028,41.5L-82.96,42.5L-82.891,45L-82.823,50.5L-82.754,51.5L-82.686,51L-82.617,53.5L-82.549,50.5L-82.481,52L-82.412,54L-82.344,57.5L-82.275,57.5L-82.207,60L-82.138,60.5L-82.07,57.5L-82.001,57.5L-81.933,58.5L-81.865,59L-81.796,59.5L-81.728,58.5L-81.659,60L-81.591,58.5L-81.522,58L-81.454,59L-81.385,61L-81.317,64.5L-81.249,65L-81.18,69.5L-81.112,70.5L-81.043,73.5L-80.975,76L-80.906,75.5L-80.838,73.5L-80.769,74L-80.701,74L-80.633,74L-80.564,73.5L-80.496,75.5L-80.427,72L-80.359,71L-80.29,70.5L-80.222,71L-80.153,71.5L-80.085,74.5L-80.017,74.5L-79.948,74L-79.88,75L-79.811,77.5L-79.743,77.5L-79.674,77L-79.606,77.5L-79.537,76.5L-79.469,77L-79.332,75.5L-79.195,73L-79.127,71L-79.058,70.5L-78.99,69L-78.921,67.5L-78.85,64.5L-78.782,64L-78.713,64.5L-78.645,64L-78.576,62L-78.508,58.5L-78.439,57L-78.371,56L-78.303,55.5L-78.234,56.5L-78.166,53L-78.097,52.5L-78.029,52.5L-77.96,51L-77.892,46.5L-77.823,46.5L-77.755,48.5L-77.687,47.5L-77.618,47L-77.55,47.5L-77.481,48L-77.413,48L-77.344,49.5L-77.276,49.5L-77.207,51.5L-77.139,52.5L-77.07,53.5L-77.002,54.5L-76.934,53.5L-76.865,54.5L-76.797,54.5L-76.728,55.5L-76.66,55L-76.591,57.5L-76.523,55L-76.454,56.5L-76.386,55.5L-76.318,53L-76.249,55L-76.181,59L-76.112,62.5L-76.044,60L-75.975,55L-75.907,53L-75.838,54L-75.77,53.5L-75.702,55.5L-75.633,57L-75.565,54.5L-75.496,53.5L-75.428,53.5L-75.359,50.5L-75.291,49.5L-75.222,51L-75.154,52.5L-75.086,51.5L-75.017,45.5L-74.949,42L-74.88,41L-74.812,38.5L-74.743,38.5L-74.675,41L-74.606,41L-74.538,39L-74.47,40L-74.401,39.5L-74.333,39L-74.264,41.5L-74.196,41.5L-74.127,39.5L-74.059,38.5L-73.99,40L-73.922,41.5L-73.854,43.5L-73.785,44L-73.717,46.5L-73.648,46L-73.58,44.5L-73.511,42.5L-73.443,40L-73.374,38.5L-73.306,38.5L-73.238,38.5L-73.169,35L-73.101,34L-73.032,31L-72.964,36.5L-72.895,38L-72.827,40.5L-72.758,43L-72.69,42.5L-72.621,41L-72.553,39L-72.485,39L-72.416,39L-72.348,41.5L-72.279,45.5L-72.211,41L-72.142,37.5L-72.074,36.5L-72.005,36L-71.937,36L-71.869,40L-71.8,40.5L-71.732,39.5L-71.663,40.5L-71.595,39L-71.526,41L-71.458,42L-71.389,44L-71.321,44L-71.253,43L-71.184,46.5L-71.116,47.5L-71.047,44L-70.979,46L-70.91,47L-70.842,47.5L-70.773,45L-70.705,44L-70.637,43L-70.568,41.5L-70.5,42.5L-70.431,42.5L-70.363,44.5L-70.294,42.5L-70.229,41L-70.16,45.5L-70.092,47L-70.023,48L-69.955,48.5L-69.886,49L-69.818,47.5L-69.75,44.5L-69.681,45L-69.613,44L-69.544,44L-69.476,43L-69.407,47.5L-69.339,45.5L-69.27,45L-69.202,46L-69.134,40.5L-69.065,37.5L-68.997,39.5L-68.928,39L-68.86,35.5L-68.791,33.5L-68.723,32.5L-68.654,31.5L-68.586,32L-68.518,34.5L-68.449,38.5L-68.381,38.5L-68.312,37L-68.244,37L-68.175,36L-68.107,35.5L-68.038,35.5L-67.97,36.5L-67.902,36L-67.833,36L-67.765,34L-67.696,35L-67.628,37L-67.559,38.5L-67.491,39L-67.422,35.5L-67.354,32.5L-67.286,32.5L-67.217,34L-67.149,32L-67.08,35.5L-67.012,40L-66.943,41.5L-66.875,40L-66.806,40.5L-66.738,42L-66.67,41.5L-66.601,44L-66.533,47L-66.464,44L-66.396,42.5L-66.327,42L-66.259,41L-66.19,41.5L-66.122,42L-66.054,43.5L-65.985,43.5L-65.917,42L-65.848,41.5L-65.78,42L-65.711,43L-65.643,45.5L-65.574,45L-65.506,43L-65.437,42.5L-65.369,44L-65.301,42.5L-65.232,41L-65.164,41L-65.095,41.5L-65.027,38L-64.958,35.5L-64.89,35.5L-64.821,37.5L-64.753,39.5L-64.685,40L-64.616,43L-64.548,41L-64.479,40.5L-64.411,42.5L-64.342,43.5L-64.274,44.5L-64.205,47.5L-64.137,47.5L-64.069,46L-64,44.5L-63.932,43.5L-63.863,40.5L-63.795,40.5L-63.726,42L-63.658,43L-63.589,41L-63.521,40L-63.453,41.5L-63.384,41L-63.316,41.5L-63.247,46L-63.179,51L-63.11,47.5L-63.042,50L-62.973,51L-62.905,51.5L-62.837,47L-62.768,50L-62.7,50L-62.631,49L-62.563,46.5L-62.494,44L-62.426,40L-62.357,41L-62.289,38L-62.221,38L-62.152,33L-62.084,32L-62.015,33.5L-61.947,33.5L-61.878,36L-61.81,41L-61.741,42.5L-61.673,38L-61.604,37L-61.536,36.5L-61.468,33.5L-61.399,31.5L-61.331,33.5L-61.262,35L-61.194,30L-61.125,26.5L-61.057,29L-60.988,28L-60.92,29.5L-60.852,32.5L-60.783,36.5L-60.715,32.5L-60.646,32L-60.578,33L-60.509,34.5L-60.441,37.5L-60.372,38.5L-60.304,37.5L-60.236,38.5L-60.167,37.5L-60.099,41.5L-60.03,42L-59.962,42L-59.893,43L-59.825,43.5L-59.756,42L-59.688,41.5L-59.62,45.5L-59.551,47L-59.483,48L-59.414,53L-59.346,55L-59.277,53.5L-59.209,52.5L-59.14,53L-59.072,55L-59.004,56L-58.935,58.5L-58.867,60.5L-58.798,58.5L-58.73,56L-58.661,58.5L-58.593,58L-58.524,57.5L-58.456,58.5L-58.388,59L-58.319,60L-58.251,60.5L-58.182,61L-58.114,63L-58.045,63L-57.977,66L-57.908,65L-57.84,63.5L-57.772,62L-57.703,61L-57.635,64L-57.566,64L-57.498,63.5L-57.429,63.5L-57.361,63L-57.292,60L-57.224,60L-57.155,60.5L-57.087,63.5L-57.019,65.5L-56.95,65.5L-56.882,63L-56.813,60.5L-56.745,61.5L-56.676,65.5L-56.608,67L-56.539,70L-56.471,71L-56.403,69.5L-56.334,70L-56.266,70L-56.197,68.5L-56.129,70.5L-56.06,71.5L-55.992,72.5L-55.855,69.5L-55.787,72L-55.718,69.5L-55.65,68.5L-55.581,72.5L-55.513,71.5L-55.444,71L-55.376,68.5L-55.307,70L-55.239,69L-55.171,69.5L-55.102,72L-55.034,72L-54.965,71.5L-54.897,70L-54.828,71L-54.76,71.5L-54.691,69.5L-54.623,70L-54.555,69.5L-54.486,64.5L-54.418,60L-54.349,59.5L-54.281,62.5L-54.212,63L-54.144,64.5L-54.075,65.5L-54.007,62L-53.936,57L-53.867,53.5L-53.799,54L-53.73,50.5L-53.662,54.5L-53.593,56L-53.525,52.5L-53.457,52L-53.388,52L-53.32,52L-53.251,49L-53.183,50L-53.114,49L-53.046,46.5L-52.977,47.5L-52.909,46L-52.841,45.5L-52.772,43.5L-52.704,44.5L-52.635,48L-52.567,46.5L-52.498,45.5L-52.43,47.5L-52.361,50.5L-52.293,50.5L-52.225,49L-52.156,48L-52.088,46L-52.019,48L-51.951,50L-51.882,51.5L-51.814,55L-51.745,55L-51.677,54L-51.608,54L-51.54,54L-51.472,54.5L-51.403,51.5L-51.335,52L-51.266,55.5L-51.198,57.5L-51.129,55L-51.061,57.5L-50.992,57L-50.924,56.5L-50.856,58L-50.787,59L-50.719,61L-50.65,61L-50.582,62L-50.513,65.5L-50.376,63.5L-50.308,64.5L-50.24,63.5L-50.171,63.5L-50.103,63L-50.034,64L-49.966,65L-49.897,62L-49.829,62L-49.76,65.5L-49.692,65L-49.624,63L-49.555,66.5L-49.487,67L-49.418,67.5L-49.35,67L-49.281,70.5L-49.213,69L-49.144,67L-49.076,68L-49.008,69.5L-48.939,68.5L-48.871,69L-48.802,70.5L-48.734,70L-48.665,66L-48.597,65.5L-48.528,64L-48.46,64.5L-48.392,62L-48.323,64.5L-48.255,63L-48.186,62L-48.118,60L-48.049,61.5L-47.981,59L-47.912,60L-47.844,61L-47.775,59L-47.707,58.5L-47.639,57L-47.57,59L-47.502,58L-47.433,55L-47.365,53L-47.296,51L-47.228,49.5L-47.159,49L-47.091,51L-47.023,49.5L-46.954,50L-46.886,52L-46.817,49L-46.749,47L-46.68,46.5L-46.612,48L-46.543,47L-46.475,50L-46.407,50L-46.338,45.5L-46.27,45L-46.201,45.5L-46.133,45.5L-46.064,48L-45.996,48.5L-45.927,49.5L-45.859,48L-45.791,48L-45.722,46.5L-45.654,45L-45.585,45L-45.517,43.5L-45.448,45L-45.38,45L-45.314,43.5L-45.246,46L-45.177,39L-45.109,39L-45.04,37.5L-44.972,35.5L-44.904,32.5L-44.835,29.5L-44.767,33.5L-44.698,31.5L-44.63,32L-44.561,35.5L-44.493,38L-44.424,33L-44.356,32.5L-44.288,36L-44.219,33L-44.151,33.5L-44.082,35.5L-44.014,36L-43.945,35L-43.877,34.5L-43.808,35.5L-43.74,35L-43.672,37.5L-43.603,38.5L-43.535,40.5L-43.466,42.5L-43.398,37.5L-43.329,39.5L-43.261,42.5L-43.192,42.5L-43.124,50.5L-43.056,53.5L-42.987,51.5L-42.919,52.5L-42.85,55.5L-42.782,57.5L-42.713,55.5L-42.645,59L-42.576,59.5L-42.508,55L-42.44,52.5L-42.371,56L-42.303,53.5L-42.234,52.5L-42.166,52.5L-42.097,55L-42.029,55.5L-41.96,56L-41.892,54.5L-41.824,55.5L-41.755,54L-41.687,54.5L-41.618,54L-41.55,53L-41.481,52L-41.413,49.5L-41.344,54L-41.276,53L-41.208,53L-41.139,55L-41.071,53.5L-41.002,51.5L-40.934,50.5L-40.865,50.5L-40.797,50L-40.728,49.5L-40.66,52L-40.591,46L-40.523,44.5L-40.455,46L-40.386,47L-40.318,46L-40.249,49L-40.181,52.5L-40.112,51.5L-40.044,50.5L-39.975,47L-39.907,42L-39.839,43.5L-39.77,44L-39.702,47.5L-39.633,42L-39.565,42.5L-39.496,39.5L-39.428,36.5L-39.359,37.5L-39.291,38.5L-39.223,40L-39.154,39L-39.086,37L-39.017,37L-38.949,36.5L-38.88,35.5L-38.812,37L-38.743,36.5L-38.675,37.5L-38.607,35L-38.538,38L-38.47,38L-38.401,38L-38.333,39L-38.264,40.5L-38.196,36L-38.127,32.5L-38.059,36L-37.991,36L-37.922,36L-37.854,37L-37.785,36L-37.717,35L-37.648,31.5L-37.58,37L-37.511,32L-37.443,34L-37.375,39L-37.306,40.5L-37.238,35L-37.169,34L-37.101,35L-37.032,34L-36.964,34.5L-36.895,35.5L-36.827,40L-36.758,39.5L-36.69,37.5L-36.622,36L-36.553,35L-36.485,35L-36.416,37L-36.348,38.5L-36.279,34L-36.211,34L-36.142,34.5L-36.074,38L-36.006,37.5L-35.937,37.5L-35.869,40.5L-35.8,43L-35.732,41L-35.663,43L-35.595,44L-35.526,44L-35.458,50L-35.39,51L-35.321,48.5L-35.253,45L-35.184,50.5L-35.116,52L-35.047,51.5L-34.979,53L-34.91,49.5L-34.842,48.5L-34.774,46L-34.705,46L-34.637,45L-34.568,46.5L-34.5,47L-34.431,46.5L-34.363,45.5L-34.294,41L-34.226,43L-34.158,38.5L-34.089,40.5L-34.021,39L-33.952,35.5L-33.884,34.5L-33.815,33.5L-33.747,33L-33.678,33L-33.61,34L-33.542,36.5L-33.473,32L-33.405,31.5L-33.268,33L-33.199,34L-33.131,36.5L-33.062,33.5L-32.994,34.5L-32.926,36L-32.857,35.5L-32.789,38L-32.72,38L-32.652,42L-32.583,42.5L-32.515,48L-32.446,48L-32.378,46L-32.309,43.5L-32.241,43L-32.173,47L-32.104,48.5L-32.036,52L-31.967,49.5L-31.899,51L-31.83,52L-31.762,52L-31.693,51.5L-31.625,50L-31.557,50L-31.488,46.5L-31.42,45L-31.351,48L-31.283,45L-31.214,42L-31.146,40L-31.077,43L-31.009,44.5L-30.941,42L-30.872,41.5L-30.804,39L-30.735,37.5L-30.667,35L-30.598,33.5L-30.53,31.5L-30.461,30.5L-30.393,31L-30.325,33L-30.256,37L-30.188,37.5L-30.119,38.5L-30.051,38.5L-29.982,38.5L-29.914,43L-29.845,40L-29.777,43L-29.709,43L-29.64,45L-29.572,47L-29.503,49.5L-29.435,50L-29.366,51L-29.298,51.5L-29.229,52L-29.161,56L-29.093,55.5L-29.021,51L-28.953,50L-28.884,50L-28.816,49L-28.747,51.5L-28.679,54.5L-28.611,57L-28.542,54.5L-28.474,56.5L-28.405,55.5L-28.337,55L-28.268,57.5L-28.2,58L-28.131,57L-28.063,55L-27.995,54.5L-27.926,54L-27.858,54.5L-27.789,55L-27.721,57L-27.652,57L-27.584,52.5L-27.515,51.5L-27.447,52.5L-27.379,53L-27.31,52.5L-27.242,51L-27.173,54L-27.105,54L-27.036,57L-26.968,54.5L-26.899,55L-26.831,55L-26.762,56L-26.694,56L-26.626,55.5L-26.557,55.5L-26.489,57.5L-26.42,58.5L-26.352,60L-26.283,58.5L-26.215,56L-26.146,57L-26.078,57L-26.01,56L-25.941,55.5L-25.873,57.5L-25.804,56L-25.736,54L-25.667,49L-25.599,47L-25.53,50L-25.394,51L-25.325,49.5L-25.257,50L-25.188,51L-25.12,52.5L-25.051,49L-24.983,48L-24.914,47L-24.846,50.5L-24.778,48.5L-24.709,46L-24.641,42L-24.572,42L-24.504,40L-24.435,40.5L-24.367,42L-24.298,39.5L-24.23,35L-24.162,37.5L-24.093,40L-24.025,38L-23.956,38.5L-23.888,41.5L-23.819,41.5L-23.751,39.5L-23.682,40L-23.614,43L-23.546,46.5L-23.477,50L-23.409,50L-23.34,44.5L-23.272,43.5L-23.203,42L-23.135,36L-23.066,35L-22.998,36.5L-22.93,34.5L-22.861,32.5L-22.793,33L-22.724,36L-22.656,37.5L-22.587,42L-22.519,42.5L-22.45,44L-22.382,44L-22.313,39L-22.245,40L-22.177,42.5L-22.108,40.5L-22.04,41L-21.971,41L-21.903,40.5L-21.834,36.5L-21.766,37L-21.697,37L-21.629,34L-21.561,34.5L-21.492,33.5L-21.424,27.5L-21.355,27L-21.287,30L-21.218,28L-21.15,25.5L-21.081,28.5L-21.013,30L-20.945,27L-20.876,25.5L-20.808,27L-20.739,27.5L-20.671,26.5L-20.602,29.5L-20.534,29.5L-20.465,27L-20.4,28L-20.331,24.5L-20.263,26.5L-20.195,24L-20.126,23.5L-20.058,25.5L-19.989,21L-19.921,21L-19.852,19.5L-19.784,23L-19.715,20.5L-19.647,21L-19.578,24.5L-19.51,22L-19.442,20L-19.373,24L-19.305,25.5L-19.236,27L-19.168,31L-19.099,33.5L-19.031,32L-18.962,32.5L-18.894,36L-18.826,38L-18.757,38.5L-18.689,40.5L-18.62,41.5L-18.552,37.5L-18.483,33.5L-18.415,34.5L-18.346,32.5L-18.278,34.5L-18.21,35.5L-18.141,37L-18.073,36L-18.004,29.5L-17.936,33L-17.867,32.5L-17.799,35L-17.73,35L-17.662,40L-17.594,39.5L-17.525,33.5L-17.457,35.5L-17.388,38.5L-17.32,36.5L-17.251,36.5L-17.183,38.5L-17.114,33.5L-17.046,33.5L-16.978,34L-16.909,34.5L-16.841,36.5L-16.772,36.5L-16.704,36.5L-16.635,35.5L-16.567,35L-16.498,36.5L-16.43,41.5L-16.362,43L-16.293,46.5L-16.225,47.5L-16.156,48L-16.088,48.5L-16.019,49.5L-15.951,54L-15.882,54.5L-15.814,56L-15.745,55L-15.677,55.5L-15.609,49.5L-15.54,49.5L-15.472,55L-15.403,56L-15.335,55L-15.266,55.5L-15.129,53L-15.061,51L-14.993,53.5L-14.924,53L-14.856,54.5L-14.787,54.5L-14.719,53L-14.65,53.5L-14.582,53L-14.513,53L-14.445,53L-14.377,53.5L-14.308,53.5L-14.24,50L-14.171,47L-14.103,48.5L-14.034,47L-13.966,47L-13.897,50L-13.829,51L-13.761,50.5L-13.692,50.5L-13.624,48.5L-13.555,47L-13.487,47.5L-13.418,49.5L-13.35,50.5L-13.281,48.5L-13.213,46.5L-13.145,47.5L-13.076,47L-13.008,47L-12.939,47L-12.871,49L-12.802,48.5L-12.734,46L-12.665,42.5L-12.597,40L-12.529,39.5L-12.46,39.5L-12.392,40L-12.323,37L-12.255,32L-12.186,35L-12.118,29.5L-12.049,28.5L-11.981,28.5L-11.913,29.5L-11.844,24L-11.776,22.5L-11.707,19.5L-11.639,11.5L-11.57,13.5L-11.502,15.5L-11.433,19L-11.365,16L-11.296,13L-11.228,13.5L-11.16,16.5L-11.091,13.5L-11.023,16.5L-10.954,17L-10.886,15.5L-10.817,12L-10.749,10.5L-10.68,12.5L-10.612,14.5L-10.544,16L-10.475,19L-10.407,17.5L-10.338,14.5L-10.27,20L-10.201,23L-10.133,25L-10.064,30.5L-9.996,32.5L-9.928,35L-9.859,31L-9.791,33L-9.722,34L-9.654,36L-9.585,42L-9.517,43.5L-9.448,42.5L-9.38,44L-9.312,47L-9.243,47.5L-9.175,47L-9.106,47L-9.038,52.5L-8.969,50.5L-8.901,51L-8.832,53.5L-8.764,56.5L-8.696,59.5L-8.627,59.5L-8.559,60.5L-8.49,59L-8.422,56L-8.353,54.5L-8.285,56.5L-8.216,55.5L-8.148,57.5L-8.08,57L-8.011,56L-7.943,55.5L-7.874,53L-7.806,54.5L-7.737,57.5L-7.669,59L-7.6,62L-7.532,62L-7.463,58.5L-7.395,59L-7.327,58L-7.258,57L-7.19,58.5L-7.121,58.5L-7.053,57L-6.984,57L-6.916,56.5L-6.847,55L-6.779,57.5L-6.711,58.5L-6.642,60L-6.574,59.5L-6.505,60L-6.437,63L-6.368,65.5L-6.3,69L-6.231,69L-6.163,68L-6.095,67.5L-6.026,64.5L-5.958,68L-5.889,65L-5.821,66.5L-5.752,70L-5.684,69.5L-5.615,67.5L-5.479,65.5L-5.41,66.5L-5.342,68L-5.273,68L-5.205,68.5L-5.136,66L-5.068,65.5L-4.999,64L-4.931,67.5L-4.863,63.5L-4.794,65L-4.726,67L-4.657,65.5L-4.589,67L-4.52,65.5L-4.452,67.5L-4.383,67.5L-4.315,67.5L-4.247,66L-4.178,61.5L-4.107,60L-4.038,58L-3.97,56L-3.901,53L-3.833,52.5L-3.765,56L-3.696,54L-3.628,51L-3.559,47L-3.491,43L-3.422,43.5L-3.354,46L-3.285,48L-3.217,46L-3.149,44L-3.08,44.5L-3.012,44.5L-2.943,46L-2.875,43.5L-2.806,47.5L-2.738,46.5L-2.669,42L-2.601,41.5L-2.533,39.5L-2.464,39.5L-2.396,38.5L-2.327,39L-2.259,36L-2.19,36.5L-2.122,36L-2.053,37L-1.985,38L-1.916,38L-1.848,43L-1.78,40.5L-1.711,39L-1.643,38.5L-1.574,37.5L-1.506,40.5L-1.437,44.5L-1.369,41.5L-1.3,38L-1.232,37.5L-1.164,36L-1.095,37.5L-1.027,39.5L-0.958,38L-0.89,40L-0.821,39L-0.753,36.5L-0.684,37L-0.616,41L-0.548,39L-0.479,38L-0.411,39L-0.342,36L-0.274,32L-0.205,31.5L-0.137,31L-0.068,34.5L0,33.5L0.068,34.5L0.137,31L0.205,27.5L0.274,28L0.342,24.5L0.411,24L0.479,26L0.548,28L0.616,27L0.684,29L0.753,29.5L0.821,29.5L0.89,33L0.958,31L1.027,30L1.095,28L1.164,21.5L1.232,18.5L1.3,17L1.369,12.5L1.437,12.5L1.506,13.5L1.574,12L1.643,7L1.711,7L1.78,10.5L1.848,11L1.916,11.5L1.985,11L2.053,13L2.122,10.5L2.19,16L2.259,19.5L2.327,21L2.396,23L2.464,23L2.533,20.5L2.601,20L2.669,20L2.738,21L2.806,22L2.875,19L2.943,16L3.012,14.5L3.08,14.5L3.149,15.5L3.217,19L3.285,19L3.354,19L3.422,26.5L3.491,22L3.559,20L3.628,20.5L3.696,23L3.765,25L3.833,24L3.901,28L3.97,24.5L4.038,18.5L4.107,19L4.175,20L4.244,18.5L4.312,19.5L4.381,17L4.449,18L4.517,18.5L4.586,21L4.654,21.5L4.723,22L4.791,16.5L4.86,16L4.928,16L4.994,16L5.062,18L5.131,19.5L5.199,19L5.268,21.5L5.336,23.5L5.404,23L5.473,18L5.541,21.5L5.61,20L5.678,21.5L5.747,21.5L5.815,20.5L5.884,18L5.952,12.5L6.02,12L6.089,17.5L6.157,16.5L6.226,19L6.294,19.5L6.363,15L6.431,16.5L6.5,14L6.568,16L6.636,15L6.705,11.5L6.773,10.5L6.842,11.5L6.91,10L6.979,13.5L7.047,16L7.116,15.5L7.184,15L7.252,19L7.321,17.5L7.389,19L7.458,21.5L7.526,23L7.595,21.5L7.663,28L7.732,29L7.8,24L7.868,24.5L7.937,29L8.005,32.5L8.074,31.5L8.142,33L8.211,33.5L8.279,33L8.348,26.5L8.416,26.5L8.484,26L8.553,27.5L8.621,28.5L8.69,29.5L8.758,27.5L8.827,28L8.895,32.5L8.964,31.5L9.032,30.5L9.101,30.5L9.169,30L9.237,27L9.306,22L9.374,20.5L9.443,19L9.511,18L9.58,19L9.648,23.5L9.717,16.5L9.785,14L9.853,18.5L9.922,17L9.99,16L10.059,17L10.127,21.5L10.196,21.5L10.264,22L10.333,21L10.401,23L10.469,25.5L10.538,26L10.606,27.5L10.675,27L10.743,25L10.812,27.5L10.88,27.5L10.949,27L11.017,32L11.085,33.5L11.154,31L11.222,27.5L11.291,29.5L11.359,30L11.428,34.5L11.496,36.5L11.565,40.5L11.633,40L11.701,36.5L11.77,39.5L11.838,41.5L11.907,42.5L11.975,44L12.044,44L12.112,43L12.181,39.5L12.249,39.5L12.317,36.5L12.386,36.5L12.454,38.5L12.523,41.5L12.591,40L12.66,36.5L12.728,36L12.797,35L12.865,35.5L12.933,37.5L13.002,36.5L13.07,32.5L13.139,29.5L13.207,31.5L13.276,34.5L13.344,32.5L13.413,35L13.481,34.5L13.55,33L13.618,31.5L13.686,30L13.755,31L13.823,33.5L13.892,33.5L13.96,34.5L14.029,36L14.097,35.5L14.166,35.5L14.234,36.5L14.302,34L14.371,36L14.439,38.5L14.508,37.5L14.576,35.5L14.645,36.5L14.713,39.5L14.782,39.5L14.85,42L14.918,44L14.987,42L15.055,42L15.124,41.5L15.192,40.5L15.261,41L15.329,43.5L15.398,44L15.466,40.5L15.534,38L15.603,39L15.671,37L15.74,41.5L15.808,42.5L15.877,40.5L15.945,38L16.014,38.5L16.082,37L16.15,38L16.219,39.5L16.287,43.5L16.356,44L16.424,42.5L16.493,39L16.561,41.5L16.63,42L16.698,43L16.766,43L16.835,43.5L16.903,43.5L17.04,41L17.109,41L17.177,43L17.246,47.5L17.314,52.5L17.383,50L17.451,50L17.519,52.5L17.588,56.5L17.656,56.5L17.725,57.5L17.793,59.5L17.862,56.5L17.93,53.5L17.999,54L18.067,55.5L18.135,54L18.204,55.5L18.272,54.5L18.341,53.5L18.409,50L18.478,51.5L18.546,54L18.615,54L18.683,56L18.751,55L18.82,54L18.888,51.5L18.957,50.5L19.025,52L19.094,53.5L19.162,56.5L19.231,57L19.299,54L19.367,53L19.436,55L19.504,55L19.573,54L19.641,54.5L19.71,55L19.778,55L19.847,52.5L19.915,52.5L19.983,50L20.052,51L20.12,51L20.189,53L20.257,51.5L20.326,53L20.394,52L20.463,56L20.531,56.5L20.599,58.5L20.668,60.5L20.736,55L20.805,54.5L20.873,53L20.942,54.5L21.01,56.5L21.079,54L21.147,51.5L21.215,46L21.287,42.5L21.355,42.5L21.424,40.5L21.492,40L21.561,40.5L21.629,38.5L21.697,34L21.766,31L21.834,31L21.903,30L21.971,31L22.04,35.5L22.108,34L22.177,32L22.245,27L22.313,27L22.382,25.5L22.45,27L22.519,26.5L22.587,27L22.656,25L22.724,21L22.793,19.5L22.861,18.5L22.93,19L22.998,19L23.066,20L23.135,21L23.203,22.5L23.272,23.5L23.34,23.5L23.409,21L23.477,22L23.546,23.5L23.614,21.5L23.682,21L23.751,19L23.819,20L23.888,19L23.956,22.5L24.025,19L24.093,19L24.162,21L24.23,22L24.298,24L24.367,25.5L24.435,24.5L24.504,26.5L24.572,24.5L24.641,22L24.709,19.5L24.778,21L24.846,27L24.914,28.5L24.983,30L25.051,29L25.12,26.5L25.188,26.5L25.257,24.5L25.325,24L25.394,27.5L25.462,31L25.53,29.5L25.599,28L25.667,25.5L25.736,28L25.804,36L25.873,41L25.941,43.5L26.01,40.5L26.078,44L26.146,43.5L26.215,40.5L26.283,41L26.352,40.5L26.42,40L26.489,42L26.557,38.5L26.626,40L26.694,40L26.762,42L26.831,44L26.899,43.5L26.968,41L27.036,39.5L27.105,43L27.173,45L27.242,45L27.31,46.5L27.379,50L27.447,45.5L27.515,45.5L27.584,48L27.652,48.5L27.721,52L27.789,54.5L27.858,53.5L27.926,51.5L27.995,50L28.063,52L28.131,53L28.2,54L28.268,55.5L28.337,56L28.405,56.5L28.474,54.5L28.542,54L28.611,56L28.679,52.5L28.747,55L28.816,55.5L28.884,52L28.953,51L29.021,50.5L29.09,51L29.158,50L29.227,50.5L29.295,51L29.363,52L29.432,52L29.5,54L29.569,54.5L29.637,50.5L29.706,49.5L29.774,50.5L29.843,46L29.908,43.5L29.977,42.5L30.045,40.5L30.114,42L30.182,42.5L30.25,43.5L30.319,40.5L30.387,40L30.456,38.5L30.524,37.5L30.593,38L30.661,38L30.73,41L30.798,36L30.866,35.5L30.935,37.5L31.003,38L31.072,37.5L31.14,39L31.209,41L31.277,38L31.346,39L31.414,37.5L31.482,33.5L31.551,33L31.619,31.5L31.688,34.5L31.756,34.5L31.825,34L31.893,35L31.962,33.5L32.03,32.5L32.098,33.5L32.167,32.5L32.235,25.5L32.304,25.5L32.372,26.5L32.441,25.5L32.509,28.5L32.578,31L32.646,31L32.714,28.5L32.783,27.5L32.851,30.5L32.92,27.5L32.988,30L33.057,30L33.125,36.5L33.194,35.5L33.262,31.5L33.33,31.5L33.399,30L33.467,31.5L33.536,33L33.604,30.5L33.673,31.5L33.741,30.5L33.81,30.5L33.878,29L33.946,31L34.015,33L34.083,36L34.152,35.5L34.22,34.5L34.289,38L34.357,34L34.426,32.5L34.494,35L34.563,35.5L34.631,32.5L34.699,26.5L34.768,28L34.836,26L34.905,25.5L34.973,31L35.042,29.5L35.11,24L35.179,19.5L35.247,19L35.315,22L35.384,22L35.452,21.5L35.521,23.5L35.589,23.5L35.658,27.5L35.726,26.5L35.795,24.5L35.863,26L35.931,27L36,28L36.068,26.5L36.137,21.5L36.205,22.5L36.274,23.5L36.342,23.5L36.411,26L36.479,30L36.547,28.5L36.616,26.5L36.684,26.5L36.753,30L36.821,27.5L36.89,29.5L36.958,30L37.027,25L37.095,22.5L37.163,25L37.232,25L37.3,26L37.369,25L37.437,26.5L37.506,28L37.574,21.5L37.643,18.5L37.711,18.5L37.779,19.5L37.848,22.5L37.916,23L37.985,22.5L38.053,20.5L38.122,22.5L38.19,25.5L38.259,27L38.327,27L38.396,28L38.464,25L38.532,24.5L38.601,25.5L38.669,28.5L38.738,31.5L38.806,35L38.875,36.5L38.943,32.5L39.012,30L39.08,30.5L39.148,30.5L39.217,34.5L39.285,35.5L39.354,38L39.422,33L39.491,32L39.559,30.5L39.628,34L39.696,39L39.764,39.5L39.833,38L39.901,38.5L39.97,36.5L40.038,38L40.107,37.5L40.175,37L40.244,38.5L40.312,36.5L40.38,36L40.449,38L40.517,40.5L40.586,40L40.654,40L40.723,40L40.791,39L40.86,33L40.928,32L40.996,35.5L41.065,35L41.133,36.5L41.202,41L41.27,41.5L41.339,43.5L41.407,41L41.476,43L41.544,42L41.612,41.5L41.681,43L41.749,45.5L41.818,42L41.886,41L41.955,42L42.023,40.5L42.092,39L42.16,41L42.228,41L42.297,38L42.365,35.5L42.434,35.5L42.502,32.5L42.571,33L42.639,33.5L42.708,32.5L42.776,30.5L42.845,28.5L42.913,30L42.981,29.5L43.05,30L43.118,35L43.187,35L43.255,32L43.324,30L43.392,29L43.461,28.5L43.529,31.5L43.597,32L43.666,35L43.734,32.5L43.803,31L43.871,30.5L43.94,31L44.008,28.5L44.077,31.5L44.145,31L44.213,27L44.282,29L44.35,31L44.419,30.5L44.487,30.5L44.556,34.5L44.624,34.5L44.693,35.5L44.761,36.5L44.829,35L44.898,38L44.966,43L45.035,47L45.103,50L45.172,45.5L45.24,46L45.309,45L45.377,47.5L45.445,47L45.514,48.5L45.582,49.5L45.651,49.5L45.719,46.5L45.788,48.5L45.856,48.5L45.925,48L45.993,50L46.061,51L46.13,51L46.201,52L46.27,53L46.338,51.5L46.407,51L46.475,52.5L46.543,53L46.612,49.5L46.68,47L46.749,42L46.817,42.5L46.886,41L46.954,42L47.023,38L47.091,32.5L47.159,28.5L47.228,29L47.296,25.5L47.365,30L47.433,26.5L47.502,29L47.57,28.5L47.639,25.5L47.707,25.5L47.775,25.5L47.844,25.5L47.912,27L47.981,30L48.049,31L48.118,30L48.186,26.5L48.255,27L48.323,27.5L48.392,29L48.46,31L48.528,32L48.597,30.5L48.665,31.5L48.734,33L48.802,34L48.871,34.5L48.939,40L49.008,38L49.076,32.5L49.144,34.5L49.213,37L49.281,40.5L49.35,44.5L49.418,43L49.487,43.5L49.555,41L49.624,40.5L49.692,41.5L49.76,40L49.829,41.5L49.897,42L49.966,37L50.034,33.5L50.103,29.5L50.171,28.5L50.24,30L50.308,29.5L50.376,31.5L50.445,29.5L50.513,26.5L50.582,26L50.65,26L50.719,26L50.787,28L50.856,32L50.924,30.5L50.992,28.5L51.061,27.5L51.129,31.5L51.198,31.5L51.266,31L51.335,30.5L51.403,27.5L51.472,26.5L51.54,26.5L51.608,22.5L51.677,23.5L51.745,23.5L51.814,26.5L51.882,25.5L51.951,24.5L52.019,25L52.088,26L52.156,28L52.225,31L52.293,33L52.361,31L52.43,31L52.498,31.5L52.567,33L52.635,36.5L52.704,40L52.772,39L52.841,34L52.909,33L52.977,31L53.046,32L53.114,32L53.183,36L53.251,39.5L53.32,37L53.388,34.5L53.457,36.5L53.525,37L53.593,38.5L53.662,43.5L53.73,42L53.799,38.5L53.867,36.5L53.936,38L54.004,36L54.073,38.5L54.141,40.5L54.209,39L54.278,38L54.346,37.5L54.415,38L54.483,37.5L54.552,39L54.62,37L54.689,33L54.757,29.5L54.823,30L54.891,34.5L54.96,36L55.028,38.5L55.096,36L55.165,32.5L55.233,29L55.302,26L55.37,27L55.439,29L55.507,30.5L55.576,29.5L55.644,24L55.712,21L55.781,20L55.849,22.5L55.918,23.5L55.986,23L56.055,26L56.123,26.5L56.26,23L56.328,23.5L56.397,24L56.465,24L56.534,26L56.602,28L56.671,24.5L56.739,26.5L56.808,29.5L56.876,31.5L56.944,32L57.013,31L57.081,30L57.15,26L57.218,28L57.287,34.5L57.355,32.5L57.424,34.5L57.492,35.5L57.56,38.5L57.629,38.5L57.697,41L57.766,43.5L57.834,44L57.903,44L57.971,44.5L58.04,47.5L58.108,47.5L58.176,46L58.245,46.5L58.313,45.5L58.382,49.5L58.45,49L58.519,50L58.587,46L58.656,42.5L58.724,42.5L58.792,41.5L58.861,38.5L58.929,40L58.998,42L59.066,43.5L59.135,44.5L59.203,47.5L59.272,48L59.34,46.5L59.409,51.5L59.477,52.5L59.545,51L59.614,44.5L59.682,43.5L59.751,42L59.819,46L59.888,45.5L59.956,48L60.025,48L60.093,45L60.161,46L60.23,47L60.298,43.5L60.367,49.5L60.435,48.5L60.504,49L60.572,48L60.641,54L60.709,55.5L60.777,57L60.846,59.5L60.914,60L60.983,51.5L61.051,46.5L61.12,45.5L61.188,43.5L61.257,44.5L61.325,43L61.393,45L61.462,43L61.53,38.5L61.599,40L61.667,40.5L61.736,37L61.804,37.5L61.873,36.5L61.941,36.5L62.009,35.5L62.078,34.5L62.146,32L62.215,27.5L62.283,26L62.352,29L62.42,28.5L62.489,25.5L62.557,22L62.625,21L62.694,18.5L62.762,16.5L62.831,17.5L62.899,13.5L62.968,13L63.036,17.5L63.105,18L63.173,18L63.242,15.5L63.31,16L63.378,12.5L63.447,11L63.515,6.5L63.584,6L63.652,1.5L63.721,6L63.789,9.5L63.858,4L63.926,2.5L63.994,5.5L64.063,5L64.131,5.5L64.2,8L64.268,13.5L64.337,15L64.405,14L64.474,10L64.542,10.5L64.61,13L64.679,13.5L64.747,15.5L64.816,15.5L64.884,12L64.953,12L65.021,10.5L65.09,9.5L65.158,12.5L65.226,12.5L65.295,15L65.363,12L65.432,14L65.5,14L65.569,18L65.637,22L65.706,28L65.774,28L65.842,27.5L65.911,30L65.979,31L66.048,30L66.116,31.5L66.185,35L66.253,32L66.322,30L66.39,30.5L66.458,27.5L66.527,32L66.595,35L66.664,35.5L66.732,35.5L66.801,32.5L66.869,34L66.938,36.5L67.006,39L67.074,44L67.143,48L67.211,47L67.28,47L67.348,49.5L67.417,53L67.485,54L67.554,55L67.622,59.5L67.691,57L67.759,55.5L67.827,51.5L67.896,51L67.964,53L68.033,54L68.101,56.5L68.17,54.5L68.238,52.5L68.307,53L68.375,52.5L68.443,52.5L68.512,57.5L68.58,57L68.649,54L68.717,54.5L68.786,56L68.854,57L68.923,57.5L68.991,60L69.059,61L69.128,61L69.196,60L69.265,58.5L69.333,58L69.402,56.5L69.47,55L69.539,56.5L69.607,55L69.675,54L69.744,54L69.812,55L69.881,56L69.949,58L70.018,59L70.086,56L70.155,53L70.223,51L70.291,49.5L70.36,53L70.428,56L70.497,56L70.565,53.5L70.634,53L70.702,53.5L70.771,51L70.839,48.5L70.907,45L70.976,43.5L71.044,40L71.116,37L71.184,37L71.253,36L71.321,36.5L71.389,37L71.458,37.5L71.526,39L71.595,37.5L71.663,36.5L71.732,36.5L71.8,38.5L71.869,37L71.937,37L72.005,34.5L72.074,34L72.142,35L72.211,35.5L72.279,35L72.348,37L72.416,36.5L72.485,33.5L72.553,34.5L72.621,35L72.69,36.5L72.758,36.5L72.827,38L72.895,41.5L72.964,45L73.032,48.5L73.101,49.5L73.169,52L73.238,50.5L73.306,52L73.374,52.5L73.443,51L73.511,49.5L73.58,50.5L73.648,48.5L73.717,50L73.785,51L73.854,52.5L73.922,51.5L73.99,52.5L74.059,53.5L74.127,52L74.196,54.5L74.264,54L74.333,60.5L74.401,61L74.47,60.5L74.538,59L74.606,56L74.675,55.5L74.743,56L74.812,57L74.88,55.5L74.949,52.5L75.017,51.5L75.086,47L75.154,46L75.222,45L75.291,42L75.359,39L75.428,38L75.496,37.5L75.565,40L75.633,37.5L75.702,41L75.77,41L75.838,33.5L75.907,30.5L75.975,31L76.044,29.5L76.112,29.5L76.181,32.5L76.249,29.5L76.318,29L76.386,26.5L76.454,23L76.523,22L76.591,25.5L76.66,26.5L76.728,27L76.797,24.5L76.865,22.5L76.934,22.5L77.002,24L77.07,24.5L77.139,27L77.207,31L77.276,32.5L77.344,32.5L77.413,33.5L77.481,34.5L77.55,34.5L77.618,35.5L77.687,35.5L77.755,35.5L77.823,36.5L77.892,41L77.96,42L78.029,44L78.097,48L78.166,50L78.234,44L78.303,44.5L78.371,45L78.439,42L78.508,42.5L78.576,44L78.645,44L78.713,40.5L78.782,38.5L78.85,38.5L78.919,38L78.987,40L79.055,39.5L79.124,41.5L79.192,42L79.261,39L79.329,36L79.398,40.5L79.466,42L79.535,45L79.603,47L79.671,44L79.737,45.5L79.805,44.5L79.874,43L79.942,42.5L80.011,43.5L80.079,42.5L80.148,40L80.216,35.5L80.285,41L80.353,40L80.422,42L80.49,45.5L80.558,48.5L80.627,46.5L80.695,46L80.764,49.5L80.832,53L80.901,54.5L80.969,59L81.038,57.5L81.106,55L81.174,53.5L81.243,52.5L81.311,52.5L81.38,56.5L81.448,56.5L81.517,58.5L81.585,54L81.654,53L81.722,54.5L81.79,51.5L81.859,51L81.927,53L81.996,57L82.064,53.5L82.133,53.5L82.201,53.5L82.27,58.5L82.338,58L82.406,62.5L82.475,61.5L82.543,60.5L82.612,59.5L82.68,59L82.749,56L82.817,55.5L82.886,56.5L82.954,54.5L83.022,51L83.091,51.5L83.159,56.5L83.228,54.5L83.296,56L83.365,58.5L83.433,58L83.502,56L83.57,53.5L83.638,56L83.707,55L83.775,53L83.844,57L83.912,58L83.981,56.5L84.049,53L84.118,55.5L84.186,55L84.255,54L84.323,51.5L84.391,52L84.46,50.5L84.528,51L84.597,51.5L84.665,53L84.734,54L84.802,57.5L84.871,60L84.939,57.5L85.007,57L85.076,58L85.144,60L85.213,56L85.281,60L85.35,61L85.418,60.5L85.487,59.5L85.555,60L85.623,61L85.692,63.5L85.76,68L85.829,71L85.897,69.5L85.966,71.5L86.034,69.5L86.103,72L86.171,74.5L86.239,76L86.308,77L86.376,78.5L86.445,75.5L86.513,75.5L86.582,75.5L86.65,77.5L86.719,78L86.787,79L86.855,76.5L86.924,77L86.992,77L87.061,79L87.129,80L87.198,78L87.266,80.5L87.335,78L87.403,75.5L87.471,74L87.54,74.5L87.677,75L87.745,75.5L87.814,72.5L87.882,71.5L87.951,69L88.019,69L88.087,65.5L88.156,68.5L88.224,68L88.293,64L88.361,64L88.43,66L88.498,65.5L88.567,68.5L88.635,69.5L88.704,70.5L88.772,67.5L88.84,60L88.909,61L88.977,64.5L89.046,64.5L89.114,63.5L89.183,66L89.251,65.5L89.32,66.5L89.388,65.5L89.456,68L89.525,69.5L89.593,71.5L89.662,69.5L89.73,70L89.799,70.5L89.867,70L89.936,67.5L90.004,70.5L90.072,72L90.141,75L90.209,74.5L90.278,74L90.346,76L90.415,72.5L90.483,72.5L90.552,71.5L90.62,71.5L90.688,70.5L90.757,69L90.825,71L90.894,76.5L90.962,75L91.031,72.5L91.099,72.5L91.168,72L91.236,66L91.304,66L91.373,65.5L91.441,64L91.51,62.5L91.578,62L91.647,62L91.715,61.5L91.784,58.5L91.852,58L91.92,60.5L91.989,62L92.057,61L92.126,57.5L92.194,57L92.263,56.5L92.331,57.5L92.4,57L92.468,60.5L92.537,58L92.605,58L92.673,57.5L92.742,55.5L92.81,52.5L92.879,50L92.947,49.5L93.016,50L93.084,51L93.153,49.5L93.221,53L93.289,56L93.358,56L93.426,54L93.495,56L93.563,55.5L93.632,55.5L93.7,54.5L93.769,56.5L93.837,58L93.905,57L93.974,57L94.042,56.5L94.111,54L94.179,55L94.248,54L94.316,54L94.385,52.5L94.453,54.5L94.521,50.5L94.59,51.5L94.658,52L94.727,50.5L94.795,52.5L94.864,57L94.932,61L95.001,61L95.069,60.5L95.137,60L95.206,61L95.274,61L95.343,60L95.411,61L95.48,64L95.548,62.5L95.617,63L95.685,63.5L95.753,64.5L95.822,65.5L95.89,68.5L95.959,70.5L96.03,67.5L96.099,65L96.167,67L96.235,66.5L96.304,67L96.372,67.5L96.441,62L96.509,58.5L96.578,58.5L96.646,57L96.715,57L96.783,57.5L96.851,57.5L96.92,54L96.988,50.5L97.057,48.5L97.125,48L97.194,48L97.262,46L97.331,44.5L97.399,44.5L97.467,43L97.536,43.5L97.604,43.5L97.673,40L97.741,38.5L97.81,36.5L97.878,33L97.947,30L98.015,28.5L98.084,28L98.152,30L98.22,29.5L98.289,30L98.357,29.5L98.426,28.5L98.494,31.5L98.563,33L98.631,34.5L98.7,35L98.768,35L98.836,33.5L98.905,32L98.973,31.5L99.042,33L99.11,35.5L99.179,36.5L99.247,35L99.316,35.5L99.384,33.5L99.452,31.5L99.521,32L99.589,32L99.658,32.5L99.726,34.5L99.795,35L99.863,32L99.932,33.5L100,35L100.068,34L100.137,36L100.205,37.5L100.274,35L100.342,35.5L100.411,34.5L100.479,32.5L100.548,34L100.616,34L100.684,34.5L100.753,33L100.821,31L100.89,32.5L100.958,34L101.027,35.5L101.095,35L101.164,35.5L101.232,36L101.3,33L101.369,30L101.437,32.5L101.506,36L101.574,35L101.643,33L101.711,30.5L101.78,29L101.848,26.5L101.916,29L101.985,27.5L102.053,24.5L102.122,25L102.19,25L102.259,21.5L102.327,23L102.396,22.5L102.464,24L102.533,28L102.601,27.5L102.669,28L102.738,27L102.806,29.5L102.875,31.5L102.943,33.5L103.012,33L103.08,36L103.149,37L103.217,36.5L103.285,39L103.354,44.5L103.422,49.5L103.491,50L103.559,52L103.628,54.5L103.696,57.5L103.765,62.5L103.833,67.5L103.901,72L103.97,74.5L104.038,78L104.107,80.5L104.175,82L104.244,84L104.312,89L104.381,92.5L104.449,95L104.517,97L104.586,97.5L104.651,100.5L104.72,102L104.788,106.5L104.857,109L104.925,110.5L104.994,111.5L105.062,113.5L105.131,113.5L105.199,115L105.268,117L105.336,115.5L105.473,117L105.541,116.5L105.61,118L105.678,118.5L105.747,119L105.884,119.5L105.952,119.5L106.02,119L106.089,118.5L106.157,118.5L106.226,119.5L106.294,121.5L106.363,122.5L106.431,120.5L106.5,120.5L106.568,120L106.636,119.5L106.705,119L106.773,118.5L106.842,119.5L106.91,119.5L106.979,119L107.184,118L107.321,116.5L107.389,114.5L107.458,113.5L107.526,113.5L107.595,113L107.732,113L107.8,114L107.937,113L108.074,113.5L108.142,113.5L108.211,113.5L108.279,113L108.348,112L108.416,112.5L108.484,113L108.553,113.5L108.69,114L108.758,114L108.827,113L108.895,112.5L108.964,114.5L109.032,114L109.101,114L109.169,113.5L109.237,113.5L109.306,113L109.443,112L109.511,112L109.58,112L109.648,112L109.717,114L109.785,115L109.853,114.5L109.922,112.5L109.99,110.5L110.059,108.5L110.127,107.5L110.196,107.5L110.333,107L110.401,105.5L110.469,104.5L110.538,105L110.606,105.5L110.675,104.5L110.743,104L110.812,101.5L110.88,101.5L110.949,101L111.017,101L111.085,101L111.154,100.5L111.222,98L111.359,97.5L111.428,97.5L111.496,97.5L111.565,95.5L111.633,96L111.701,96L111.77,94.5L111.838,93.5L111.907,92L111.975,92.5L112.044,92L112.112,93L112.181,95L112.249,96.5L112.317,96L112.386,95.5L112.454,92.5L112.523,92L112.591,91L112.66,89.5L112.728,88L112.797,87L112.865,87L112.933,89.5L113.002,89.5L113.07,89L113.139,88.5L113.207,85L113.276,84.5L113.344,86L113.413,81L113.481,79.5L113.55,78.5L113.618,82L113.686,81.5L113.755,80L113.823,80L113.892,81L113.96,79.5L114.029,77L114.097,78L114.166,77L114.234,73.5L114.302,73.5L114.371,75L114.439,74L114.508,76L114.576,77.5L114.645,78.5L114.713,78L114.782,74L114.85,75.5L114.918,73L114.987,71L115.055,69.5L115.124,69L115.192,68.5L115.261,70.5L115.329,72L115.398,73L115.466,78.5L115.534,81L115.603,81L115.671,80.5L115.74,81.5L115.808,81.5L115.877,82L115.945,82.5L116.014,85L116.082,86.5L116.15,87L116.219,87L116.287,90L116.356,88.5L116.424,84.5L116.493,85.5L116.561,83L116.63,81.5L116.698,82L116.766,83L116.835,88L116.903,87.5L116.972,90.5L117.04,93L117.109,93.5L117.177,93.5L117.246,95L117.314,95L117.383,92L117.451,91L117.519,90.5L117.588,89L117.656,88.5L117.725,88L117.793,88L117.862,89L117.93,88.5L117.999,88L118.067,87.5L118.135,88L118.204,86L118.272,87.5L118.341,88L118.409,90L118.478,93L118.546,93.5L118.615,97.5L118.683,99L118.751,99.5L118.82,101L118.888,101.5L118.957,101.5L119.025,101.5L119.094,100L119.162,99L119.231,98.5L119.299,97.5L119.436,98.5L119.504,101.5L119.573,102.5L119.641,102.5L119.71,102.5L119.778,103L119.915,103.5L119.983,103.5L120.052,104.5L120.189,106.5L120.257,107.5L120.394,109L120.463,108.5L120.531,111.5L120.599,110L120.668,110L120.736,109.5L120.805,110.5L120.873,111.5L120.945,111.5L121.013,109.5L121.081,109.5L121.15,109L121.218,108L121.287,107L121.355,107L121.424,107L121.492,108.5L121.561,110.5L121.629,112L121.766,113L121.834,111L121.903,110.5L121.971,110L122.04,111.5L122.108,112L122.177,111.5L122.245,111L122.382,110.5L122.45,109L122.519,109L122.587,108L122.656,109.5L122.724,107.5L122.793,109L122.861,108.5L122.93,108L122.998,108.5L123.066,108.5L123.135,107.5L123.203,108L123.272,107.5L123.34,107.5L123.409,106.5L123.477,108.5L123.546,108.5L123.614,109.5L123.682,108.5L123.751,107.5L123.819,106.5L123.888,104L123.956,105L124.025,104.5L124.093,105.5L124.23,105L124.298,104.5L124.367,105.5L124.435,106L124.504,104.5L124.572,105L124.641,105.5L124.709,105.5L124.778,102L124.846,102L124.914,102L124.983,102L125.051,103.5L125.12,103L125.188,101L125.257,101.5L125.325,101.5L125.394,101L125.462,99.5L125.53,100L125.599,99L125.667,99L125.736,99L125.804,99.5L125.873,98L125.941,98L126.01,99L126.078,99L126.146,99.5L126.215,99.5L126.283,98.5L126.352,98.5L126.42,96L126.489,94L126.557,95.5L126.626,92L126.694,91L126.762,91L126.831,94L126.899,94.5L127.036,94L127.173,94.5L127.242,92.5L127.31,92L127.379,92L127.447,91L127.515,92L127.584,93L127.652,92.5L127.721,93.5L127.789,93L127.858,92L127.926,92.5L127.995,92.5L128.063,94.5L128.131,93.5L128.2,93.5L128.268,93L128.405,94L128.474,94.5L128.542,93.5L128.611,93L128.679,95L128.747,97L128.816,97L128.884,101L128.953,101L129.021,101.5L129.09,101.5L129.158,100L129.227,99L129.295,99.5L129.363,100L129.432,99L129.5,95.5L129.569,95.5L129.637,96L129.706,91.5L129.774,91.5L129.843,91.5L129.911,92.5L129.979,92.5L130.045,92L130.114,93L130.182,91L130.25,92L130.319,91L130.387,88.5L130.456,86.5L130.524,85.5L130.593,88L130.661,89L130.73,87.5L130.798,87.5L130.866,86.5L131.003,86.5L131.072,86L131.14,85.5L131.209,83.5L131.277,83L131.346,85L131.414,82.5L131.482,81L131.551,82L131.619,84.5L131.688,82.5L131.756,80.5L131.825,84.5L131.893,85.5L131.962,84.5L132.03,82L132.098,80.5L132.167,79.5L132.235,78.5L132.304,80.5L132.372,81L132.441,83L132.509,85.5L132.578,84.5L132.646,84.5L132.714,84.5L132.783,84.5L132.851,83.5L132.92,83L132.988,84L133.057,83L133.125,84.5L133.194,83L133.262,83.5L133.33,84L133.399,82.5L133.467,78.5L133.536,80.5L133.604,78.5L133.673,80L133.741,81L133.81,82.5L133.878,81.5L133.946,81L134.015,79.5L134.083,78.5L134.152,80L134.22,79.5L134.289,77.5L134.357,76.5L134.426,74L134.494,72L134.563,68L134.631,69.5L134.699,70L134.768,66L134.836,64.5L134.905,63.5L134.973,64L135.042,62.5L135.11,64L135.179,61.5L135.247,60L135.315,59L135.384,59.5L135.452,58L135.521,63.5L135.589,63.5L135.658,66L135.726,63.5L135.795,65L135.863,64.5L135.931,63.5L136,63L136.068,63L136.137,65L136.205,64L136.274,62L136.342,64L136.411,61L136.479,59L136.547,60L136.616,65L136.684,64L136.753,63.5L136.821,65L136.89,66L136.958,66.5L137.027,65.5L137.095,64L137.163,60.5L137.232,61.5L137.3,63L137.369,63.5L137.437,64L137.506,66L137.574,66L137.643,63L137.711,60.5L137.779,61.5L137.848,62L137.916,63L137.985,63.5L138.053,64L138.122,65L138.19,65L138.259,66L138.327,67.5L138.396,67.5L138.464,71.5L138.532,75L138.601,73L138.669,72L138.738,72L138.806,70L138.875,69.5L138.943,69.5L139.012,72L139.08,73L139.148,75L139.217,77L139.285,76.5L139.354,78L139.422,78L139.491,79L139.559,75.5L139.628,73L139.696,74L139.764,77L139.833,78L139.901,77L139.97,75L140.038,75.5L140.107,74.5L140.175,75L140.244,73L140.312,70.5L140.38,71.5L140.449,71L140.517,67L140.586,65L140.654,66.5L140.723,64L140.791,63.5L140.86,63.5L140.928,64.5L140.996,62.5L141.065,62L141.133,59.5L141.202,59L141.27,59.5L141.339,61L141.407,61L141.476,58.5L141.544,56.5L141.612,59.5L141.681,59L141.749,59.5L141.818,53.5L141.886,55L141.955,54L142.023,55.5L142.092,55L142.16,54.5L142.228,54.5L142.297,56.5L142.365,57.5L142.434,56.5L142.502,54.5L142.571,56L142.639,57.5L142.708,58L142.776,59L142.845,61.5L142.913,60.5L142.981,60L143.05,61.5L143.118,61L143.187,63L143.255,64L143.324,62.5L143.392,58.5L143.461,56.5L143.529,60.5L143.597,62L143.666,63.5L143.734,65L143.803,64L143.871,69.5L143.94,69L144.008,69.5L144.077,69L144.145,68L144.213,70.5L144.282,69.5L144.35,65.5L144.419,65L144.487,66.5L144.556,67L144.624,66.5L144.693,66.5L144.761,68L144.829,69L144.898,67L144.966,67.5L145.035,68.5L145.103,68.5L145.172,67.5L145.24,66L145.309,64L145.377,64L145.445,65.5L145.514,68.5L145.582,69.5L145.651,70L145.719,68L145.788,69L145.856,69L145.925,65L145.993,64.5L146.061,64.5L146.13,64.5L146.198,64L146.267,62.5L146.338,64L146.407,67.5L146.475,70L146.543,69.5L146.612,71L146.68,70.5L146.749,69L146.817,67.5L146.886,67.5L146.954,66L147.023,68.5L147.091,66.5L147.159,66.5L147.228,67L147.296,68.5L147.365,71.5L147.433,74L147.502,76.5L147.639,74L147.707,71.5L147.775,70L147.844,68.5L147.912,67.5L147.981,68.5L148.049,71.5L148.118,71L148.186,71L148.255,71L148.323,73L148.392,75L148.46,75.5L148.528,77L148.597,75.5L148.665,76.5L148.734,76.5L148.802,78.5L148.871,81L148.939,81L149.008,82L149.076,82.5L149.213,83.5L149.281,86L149.35,87.5L149.418,89L149.487,88.5L149.555,86.5L149.624,83L149.692,78.5L149.76,79.5L149.829,80.5L149.897,81.5L149.966,85L150.034,83.5L150.103,82.5L150.171,82.5L150.24,82.5L150.308,83.5L150.376,82.5L150.445,81L150.513,80.5L150.582,80.5L150.65,80.5L150.719,80.5L150.787,80L150.856,79.5L150.924,79.5L150.992,79.5L151.129,77L151.198,73L151.266,75L151.335,71.5L151.403,71L151.472,69.5L151.54,69L151.608,67L151.677,67.5L151.745,71L151.814,73.5L151.882,73.5L151.951,68.5L152.019,68L152.088,67L152.156,67.5L152.293,69L152.361,67.5L152.43,65L152.498,62L152.567,62.5L152.635,60.5L152.704,59L152.772,57.5L152.841,56.5L152.909,55L152.977,54.5L153.046,53L153.114,53.5L153.183,52L153.251,54.5L153.32,57L153.388,54.5L153.457,54.5L153.525,52.5L153.593,52L153.662,51.5L153.73,51.5L153.799,51.5L153.867,48L153.936,48.5L154.004,47.5L154.073,52.5L154.141,50.5L154.209,51L154.278,53L154.346,49L154.415,51.5L154.483,52.5L154.552,55.5L154.62,54.5L154.689,56.5L154.757,57.5L154.894,58L154.96,56.5L155.028,58.5L155.096,58.5L155.165,60.5L155.233,59.5L155.302,60L155.37,58.5L155.439,59.5L155.507,59L155.576,59.5L155.644,61.5L155.712,59L155.781,58.5L155.849,57L155.918,54L155.986,57L156.055,57L156.123,58L156.192,58L156.26,59L156.328,58L156.397,57.5L156.465,59L156.534,56.5L156.602,57.5L156.671,55.5L156.739,57.5L156.808,55L156.876,54.5L156.944,53.5L157.013,54.5L157.081,55L157.15,54L157.218,55L157.287,52.5L157.355,53.5L157.424,56L157.492,54.5L157.56,58L157.629,58.5L157.697,59L157.766,61.5L157.834,61.5L157.903,64L157.971,68L158.04,67L158.108,65.5L158.176,66.5L158.245,66.5L158.313,67L158.382,67L158.45,68.5L158.519,70L158.587,73L158.656,74L158.724,73.5L158.792,72.5L158.861,76.5L158.929,75L158.998,76L159.066,78.5L159.135,77.5L159.203,75L159.272,73.5L159.34,77.5L159.409,75.5L159.477,74.5L159.545,75.5L159.614,73.5L159.682,73.5L159.751,74L159.819,72L159.888,73L159.956,74.5L160.025,72.5L160.093,70.5L160.23,71L160.298,69.5L160.367,67L160.435,68.5L160.504,69.5L160.572,69L160.641,70.5L160.709,69.5L160.777,66.5L160.846,67L160.914,68L160.983,67L161.051,67.5L161.12,67.5L161.188,66L161.257,65L161.325,68.5L161.393,70L161.462,69.5L161.53,71L161.599,72L161.667,72L161.736,73L161.804,70L161.873,69L161.941,71L162.009,70.5L162.078,69.5L162.146,66.5L162.215,67.5L162.283,67.5L162.352,67.5L162.42,69L162.489,69L162.557,67.5L162.625,66L162.694,67L162.762,65.5L162.831,66.5L162.899,69L162.968,66L163.036,65.5L163.105,64L163.173,63.5L163.242,60L163.31,61.5L163.378,60.5L163.447,60L163.515,59.5L163.584,59.5L163.652,58.5L163.721,58L163.789,58L163.858,61.5L163.926,62.5L164.063,64L164.131,65L164.2,63.5L164.268,68L164.337,68L164.405,69L164.474,68.5L164.542,66L164.61,63.5L164.679,61.5L164.747,63.5L164.816,62.5L164.884,63L164.953,65.5L165.021,64L165.09,64L165.158,65L165.226,68L165.295,70L165.363,70L165.432,69L165.5,69L165.569,68L165.637,68.5L165.706,69L165.774,67.5L165.842,69.5L165.911,69L165.979,68.5L166.048,67L166.116,65.5L166.185,65.5L166.253,67L166.322,65.5L166.39,65.5L166.458,64L166.527,65.5L166.595,69L166.664,70.5L166.732,73L166.801,70.5L166.869,70.5L166.938,67L167.006,62.5L167.074,64.5L167.143,68.5L167.211,70L167.28,69.5L167.417,66.5L167.485,69.5L167.554,71L167.622,69.5L167.691,70.5L167.759,69L167.827,67L167.896,67L167.964,66L168.033,66.5L168.101,66.5L168.17,67.5L168.238,68L168.307,66.5L168.375,66L168.443,67L168.512,67L168.58,67.5L168.649,66.5L168.717,67L168.786,65L168.854,63.5L168.923,63.5L168.991,62.5L169.059,66L169.128,69L169.196,66.5L169.265,64.5L169.333,62.5L169.402,62L169.47,61L169.539,61.5L169.607,62.5L169.675,65.5L169.744,64L169.812,66L169.881,64.5L169.949,67.5L170.018,65.5L170.086,66.5L170.155,67.5L170.223,65.5L170.291,65.5L170.36,66L170.428,68L170.497,68.5L170.565,70L170.634,72L170.702,73.5L170.771,73L170.839,76L170.907,77L170.976,77.5L171.044,78.5L171.113,79L171.181,78L171.253,76.5L171.321,76L171.389,76L171.458,75.5L171.526,79L171.595,78.5L171.663,76.5L171.732,74.5L171.8,75L171.869,73L171.937,74L172.005,72.5L172.074,73L172.142,70.5L172.211,70.5L172.279,70.5L172.348,70L172.416,69L172.485,67L172.553,67.5L172.621,66.5L172.69,64L172.758,59.5L172.827,56L172.895,53L172.964,51L173.032,50L173.101,49L173.169,46L173.238,46L173.306,48.5L173.374,48.5L173.443,48.5L173.511,48L173.58,46L173.648,42L173.717,42L173.785,40L173.854,39.5L173.922,40.5L173.99,42.5L174.059,43L174.127,42.5L174.196,43L174.264,41.5L174.333,43.5L174.401,42.5L174.47,44L174.538,42.5L174.606,38.5L174.675,38.5L174.743,37L174.812,41.5L174.88,44.5L174.949,44L175.017,46L175.086,44L175.154,40.5L175.222,41.5L175.291,42L175.359,43L175.428,43.5L175.496,36L175.565,36.5L175.633,36L175.702,39L175.77,38L175.838,39.5L175.907,41.5L175.975,40L176.044,36L176.112,32L176.181,31L176.249,27.5L176.318,28L176.386,27L176.454,27L176.523,24L176.591,21.5L176.66,22L176.728,22L176.797,26L176.865,24.5L176.934,21L177.002,23L177.07,19.5L177.139,18.5L177.207,22L177.276,23L177.344,22.5L177.413,18L177.481,17L177.55,25.5L177.618,25.5L177.687,24.5L177.755,27L177.823,28.5L177.892,28L177.96,26.5L178.029,27L178.097,31L178.166,33L178.234,34.5L178.303,39L178.371,38L178.439,40L178.508,41L178.576,43.5L178.645,48L178.713,50L178.782,48.5L178.85,48L178.919,49L178.987,53L179.055,52.5L179.124,55L179.192,59L179.261,61L179.329,61.5L179.398,60L179.466,65L179.535,66L179.603,65.5L179.671,64.5L179.74,65.5L179.808,64L179.874,64L179.942,65L180.011,64.5L180.079,63L180.148,63L180.216,64.5L180.285,63.5L180.353,62L180.422,61.5L180.49,59.5L180.558,59.5L180.627,60.5L180.695,62L180.764,60L180.832,60.5L180.901,59L180.969,58L181.038,58L181.106,59L181.174,62L181.243,61.5L181.311,59.5L181.38,60.5L181.448,65L181.517,62.5L181.585,64L181.654,61.5L181.722,62.5L181.79,66L181.859,65.5L181.927,62L181.996,62.5L182.064,64L182.133,66L182.201,62.5L182.27,61L182.338,62.5L182.406,65.5L182.475,67L182.543,66L182.612,65L182.68,62L182.749,57.5L182.817,59.5L182.886,61L182.954,59.5L183.022,61.5L183.091,61L183.159,62L183.228,60L183.296,58.5L183.365,59L183.433,57.5L183.502,56L183.57,57L183.638,55L183.707,56.5L183.775,56.5L183.844,55L183.912,54L183.981,55L184.049,56L184.118,56.5L184.186,56.5L184.255,60L184.323,61.5L184.391,62L184.46,62L184.528,64L184.597,64L184.665,64.5L184.734,66L184.802,68.5L184.871,69.5L184.939,68L185.007,70.5L185.076,67.5L185.144,66.5L185.213,66.5L185.281,67L185.35,69L185.418,69L185.487,70.5L185.555,69L185.623,69.5L185.692,68.5L185.76,67.5L185.829,66.5L185.897,64L185.966,65L186.034,66.5L186.103,64.5L186.171,63L186.239,59.5L186.308,58L186.376,54L186.445,52L186.513,50L186.582,48L186.65,48.5L186.719,50L186.787,52L186.855,50.5L186.924,47.5L186.992,44.5L187.061,43.5L187.129,42L187.198,42.5L187.266,41L187.335,38.5L187.403,41L187.471,40L187.54,38L187.608,36.5L187.677,35.5L187.745,35.5L187.814,37L187.882,38.5L187.951,39.5L188.019,39L188.087,38L188.156,37L188.224,33L188.293,35.5L188.361,36L188.43,38.5L188.498,40L188.567,39L188.635,37.5L188.704,35.5L188.772,34.5L188.84,33.5L188.909,35.5L188.977,36L189.046,38.5L189.114,39L189.183,41L189.251,42.5L189.32,41L189.388,42L189.456,39.5L189.525,38.5L189.593,39.5L189.662,43.5L189.73,44.5L189.799,44L189.867,44.5L189.936,43L190.004,44.5L190.072,45L190.141,46L190.209,47L190.278,52.5L190.346,52L190.415,51L190.483,50.5L190.552,50.5L190.62,50.5L190.688,52.5L190.757,56.5L190.825,55.5L190.894,53.5L190.962,54L191.031,55L191.099,54L191.168,55L191.236,54L191.304,53.5L191.373,55L191.441,56.5L191.51,54.5L191.578,56L191.647,58L191.715,56.5L191.784,55.5L191.852,55L191.92,54L191.989,55L192.057,55L192.126,55.5L192.194,58L192.263,59L192.331,58L192.4,59L192.468,61.5L192.537,63.5L192.605,63.5L192.673,66L192.742,65L192.81,60.5L192.879,61L192.947,60L193.016,58.5L193.084,60.5L193.153,64.5L193.221,65.5L193.289,65L193.358,65.5L193.426,66.5L193.495,64L193.563,67.5L193.632,67L193.7,64L193.769,64.5L193.837,66.5L193.905,69L193.974,69L194.042,71L194.111,70L194.179,69L194.248,65.5L194.316,66.5L194.385,67.5L194.453,69L194.521,69L194.59,69.5L194.658,68L194.727,66.5L194.795,67.5L194.864,71L194.932,72.5L195.001,74L195.069,74L195.137,71L195.206,68L195.274,65L195.343,68.5L195.411,67L195.48,68L195.548,69.5L195.617,69.5L195.685,68.5L195.753,70L195.822,70L195.89,65.5L195.959,65L196.027,65.5L196.096,61.5L196.167,60.5L196.235,60L196.304,63L196.372,59.5L196.441,59L196.509,57L196.578,54L196.646,50L196.715,51.5L196.783,51L196.851,48.5L196.92,47L196.988,48L197.057,47.5L197.125,47L197.194,47.5L197.262,49L197.331,50.5L197.399,49L197.467,49L197.536,48L197.604,49L197.673,48L197.741,50L197.81,48.5L197.878,47.5L197.947,51.5L198.015,50.5L198.084,50.5L198.152,49.5L198.22,50.5L198.289,52L198.357,46.5L198.426,47L198.494,46L198.563,45.5L198.631,48L198.7,49L198.768,49.5L198.836,48L198.905,50L198.973,49.5L199.042,44.5L199.11,41L199.179,43L199.247,43L199.316,44.5L199.384,43.5L199.452,42.5L199.521,42.5L199.589,42L199.658,41.5L199.726,38.5L199.795,38.5L199.863,39L199.932,35.5L200,34.5L200.068,30.5L200.137,30L200.205,34L200.274,32.5L200.342,31L200.411,33.5L200.479,36L200.548,33L200.616,35L200.684,35L200.753,39L200.821,40.5L200.89,43.5L200.958,44L201.027,43.5L201.095,44L201.164,48.5L201.232,48.5L201.3,50.5L201.369,44L201.437,42L201.506,40.5L201.574,41.5L201.643,41L201.711,41.5L201.78,44L201.848,43L201.916,42.5L201.985,45.5L202.053,44L202.122,48L202.19,49L202.259,48.5" stroke="#4c78a8" stroke-width="2"/></g><g class="mark-group role-title"><g transform="translate(100,-22)"><path class="background" aria-hidden="true" d="M0,0h0v0h0Z" pointer-events="none"/><g><g class="mark-text role-title-text" role="graphics-symbol" aria-roledescription="title" aria-label="Title text 'Food Poisoning: 1 or 2'" pointer-events="none"><text text-anchor="middle" transform="translate(0,10)" font-family="sans-serif" font-size="13px" font-weight="bold" fill="#000" opacity="1">Food Poisoning: 1 or 2</text></g></g><path class="foreground" aria-hidden="true" d="" pointer-events="none" display="none"/></g></g></g><path class="foreground" aria-hidden="true" d="" display="none"/></g></g></g><defs><clipPath id="clip148"><rect x="0" y="0" width="200" height="150"/></clipPath></defs></svg>