<svg xmlns="http://www.w3.org/2000/svg" xmlns:xlink="http://www.w3.org/1999/xlink" version="1.1" class="marks" width="282" height="194" viewBox="0 0 282 194"><rect width="282" height="194" fill="white"/><g fill="none" stroke-miterlimit="10" transform="translate(41,22)"><g class="mark-group role-frame root" role="graphics-object" aria-roledescription="group mark container"><g transform="translate(0,0)"><path class="background" aria-hidden="true" d="M0,0h200v150h-200Z"/><g><g class="mark-group role-axis" aria-hidden="true"><g transform="translate(0.5,0.5)"><path class="background" aria-hidden="true" d="M0,0h0v0h0Z" pointer-events="none"/><g><g class="mark-rule role-axis-grid" pointer-events="none"><line transform="translate(0,150)" x2="200" y2="0" stroke="#ddd" stroke-width="1" opacity="1"/><line transform="translate(0,103)" x2="200" y2="0" stroke="#ddd" stroke-width="1" opacity="1"/><line transform="translate(0,56)" x2="200" y2="0" stroke="#ddd" stroke-width="1" opacity="1"/><line transform="translate(0,9)" x2="200" y2="0" stroke="#ddd" stroke-width="1" opacity="1"/></g></g><path class="foreground" aria-hidden="true" d="" pointer-events="none" display="none"/></g></g><g class="mark-group role-axis" role="graphics-symbol" aria-roledescription="axis" aria-label="X-axis for a time scale with values from Friday, 01 January 2016, 12:00:00 AM to Monday, 01 January 2024, 12:00:00 AM"><g transform="translate(0.5,150.5)"><path class="background" aria-hidden="true" d="M0,0h0v0h0Z" pointer-events="none"/><g><g class="mark-rule role-axis-tick" pointer-events="none"><line transform="translate(0,0)" x2="0" y2="5" stroke="#888" stroke-width="1" opacity="1"/><line transform="translate(50,0)" x2="0" y2="5" stroke="#888" stroke-width="1" opacity="1"/><line transform="translate(100,0)" x2="0" y2="5" stroke="#888" stroke-width="1" opacity="1"/><line transform="translate(150,0)" x2="0" y2="5" stroke="#888" stroke-width="1" opacity="1"/><line transform="translate(200,0)" x2="0" y2="5" stroke="#888" stroke-width="1" opacity="1"/></g><g class="mark-text role-axis-label" pointer-events="none"><text text-anchor="start" transform="translate(0,15)" font-family="sans-serif" font-size="10px" fill="#000" opacity="1">2016</text><text text-anchor="middle" transform="translate(50.03422313483915,15)" font-family="sans-serif" font-size="10px" fill="#000" opacity="1">2018</text><text text-anchor="middle" transform="translate(100,15)" font-family="sans-serif" font-size="10px" fill="#000" opacity="1">2020</text><text text-anchor="middle" transform="translate(150.03422313483915,15)" font-family="sans-serif" font-size="10px" fill="#000" opacity="1">2022</text><text text-anchor="end" transform="translate(200,15)" font-family="sans-serif" font-size="10px" fill="#000" opacity="1">2024</text></g><g class="mark-rule role-axis-domain" pointer-events="none"><line transform="translate(0,0)" x2="200" y2="0" stroke="#888" stroke-width="1" opacity="1"/></g></g><path class="foreground" aria-hidden="true" d="" pointer-events="none" display="none"/></g></g><g class="mark-group role-axis" role="graphics-symbol" aria-roledescription="axis" aria-label="Y-axis for a linear scale with values from 0 to 16"><g transform="translate(0.5,0.5)"><path class="background" aria-hidden="true" d="M0,0h0v0h0Z" pointer-events="none"/><g><g class="mark-rule role-axis-tick" pointer-events="none"><line transform="translate(0,150)" x2="-5" y2="0" stroke="#888" stroke-opacity="0" stroke-width="1" opacity="1"/><line transform="translate(0,103)" x2="-5" y2="0" stroke="#888" stroke-opacity="0" stroke-width="1" opacity="1"/><line transform="translate(0,56)" x2="-5" y2="0" stroke="#888" stroke-opacity="0" stroke-width="1" opacity="1"/><line transform="translate(0,9)" x2="-5" y2="0" stroke="#888" stroke-opacity="0" stroke-width="1" opacity="1"/></g><g class="mark-text role-axis-label" pointer-events="none"><text text-anchor="end" transform="translate(-7,153)" font-family="sans-serif" font-size="10px" fill="#000" opacity="1">0</text><text text-anchor="end" transform="translate(-7,106.125)" font-family="sans-serif" font-size="10px" fill="#000" opacity="1">5</text><text text-anchor="end" transform="translate(-7,59.25)" font-family="sans-serif" font-size="10px" fill="#000" opacity="1">10</text><text text-anchor="end" transform="translate(-7,12.375)" font-family="sans-serif" font-size="10px" fill="#000" opacity="1">15</text></g></g><path class="foreground" aria-hidden="true" d="" pointer-events="none" display="none"/></g></g><g class="mark-line role-mark marks" clip-path="url(#clip149)" role="graphics-object" aria-roledescription="line mark container"><path aria-label="day: Jan 01, 2010; avg: 3.3" role="graphics-symbol" aria-roledescription="line mark" d="M-149.966,119.063L-149.76,118.125L-149.692,118.438L-149.624,119.063L-149.555,119.687L-149.487,120L-149.418,118.438L-149.281,118.438L-149.213,108.438L-149.144,100.313L-149.076,99.688L-149.008,100.313L-148.939,100L-148.871,99.063L-148.802,97.813L-148.734,65.938L-148.665,67.5L-148.597,58.437L-148.528,58.125L-148.46,58.437L-148.392,57.188L-148.323,57.188L-148.255,58.125L-148.186,59.375L-148.118,61.563L-148.049,60.938L-147.981,61.563L-147.912,59.375L-147.844,56.875L-147.775,57.5L-147.707,57.188L-147.639,56.25L-147.502,52.188L-147.433,52.188L-147.365,51.25L-147.296,51.875L-147.228,52.812L-147.159,50.313L-147.091,60L-147.023,66.563L-146.886,65.625L-146.817,64.375L-146.749,64.688L-146.68,65.313L-146.612,65.313L-146.543,95.313L-146.407,94.063L-146.338,103.125L-146.27,103.75L-146.201,104.375L-146.133,105.313L-146.064,104.063L-145.996,102.5L-145.927,102.813L-145.859,102.5L-145.791,101.562L-145.722,100.313L-145.654,100.937L-145.517,103.125L-145.448,103.438L-145.38,104.063L-145.311,105.313L-145.243,109.375L-145.175,108.438L-145.106,107.813L-145.038,107.188L-144.972,106.875L-144.904,106.563L-144.835,106.563L-144.767,107.5L-144.698,108.438L-144.493,108.75L-144.424,109.688L-144.356,110.312L-144.288,111.563L-144.219,112.188L-144.151,112.5L-144.014,110.937L-143.945,108.75L-143.877,107.813L-143.808,108.125L-143.74,109.375L-143.603,109.688L-143.535,105.938L-143.466,105L-143.398,105.938L-143.329,106.563L-143.261,105.625L-143.192,103.438L-143.124,102.188L-143.056,100L-142.987,99.688L-142.919,98.438L-142.85,99.688L-142.782,100.625L-142.713,100.313L-142.576,100.313L-142.508,100.937L-142.44,100L-142.371,101.25L-142.303,99.375L-142.234,99.375L-142.166,98.125L-142.097,96.25L-142.029,94.063L-141.96,95L-141.892,95.938L-141.824,96.25L-141.755,96.25L-141.687,95.625L-141.618,93.75L-141.55,92.813L-141.481,91.875L-141.413,93.438L-141.344,93.438L-141.276,92.5L-141.139,93.125L-141.071,94.688L-141.002,96.25L-140.934,95.313L-140.865,95.625L-140.797,96.25L-140.728,97.813L-140.66,97.813L-140.591,97.813L-140.523,98.125L-140.455,97.813L-140.386,99.063L-140.318,100.313L-140.181,100.313L-140.112,102.813L-140.044,103.75L-139.975,104.063L-139.907,104.375L-139.839,104.063L-139.77,104.063L-139.633,104.063L-139.565,105.625L-139.496,107.188L-139.428,106.875L-139.223,106.875L-139.154,107.188L-139.086,108.75L-139.017,110L-138.949,108.438L-138.88,107.188L-138.743,106.875L-138.675,107.813L-138.607,106.25L-138.538,106.875L-138.47,108.125L-138.401,105.625L-138.333,104.688L-138.264,104.063L-138.196,104.375L-138.127,103.75L-138.059,104.375L-137.991,103.75L-137.922,103.438L-137.854,102.188L-137.785,101.875L-137.717,100.937L-137.648,100L-137.58,100.937L-137.511,102.813L-137.443,101.875L-137.306,101.562L-137.238,100.313L-137.169,100L-137.101,101.875L-137.032,102.188L-136.964,102.813L-136.827,103.438L-136.758,104.063L-136.622,106.25L-136.553,109.063L-136.485,109.688L-136.348,107.188L-136.279,108.125L-136.211,110L-136.142,110.625L-136.074,112.188L-136.006,111.875L-135.937,110.937L-135.869,110.312L-135.8,111.25L-135.732,110L-135.663,109.063L-135.595,109.688L-135.458,110.312L-135.39,108.125L-135.321,109.063L-135.253,110.625L-135.184,111.25L-135.116,110.312L-135.047,109.688L-134.91,110L-134.842,110.625L-134.774,111.563L-134.705,110.312L-134.637,110.625L-134.568,108.438L-134.5,105.938L-134.431,105.938L-134.363,106.563L-134.294,106.875L-134.226,104.375L-134.158,105L-134.089,105.313L-133.952,104.063L-133.884,102.5L-133.815,103.438L-133.747,104.688L-133.678,104.375L-133.61,103.438L-133.473,102.188L-133.405,102.813L-133.336,105L-133.268,105.313L-133.199,106.25L-133.131,105.625L-133.062,104.375L-132.994,104.688L-132.926,103.75L-132.789,105L-132.72,106.875L-132.652,105.625L-132.583,105L-132.515,103.438L-132.446,103.438L-132.378,104.688L-132.309,106.875L-132.241,108.438L-132.173,107.188L-132.104,106.875L-132.036,105.938L-131.967,108.438L-131.899,110.312L-131.83,110L-131.762,107.5L-131.693,107.188L-131.625,105.313L-131.557,104.688L-131.488,106.25L-131.42,106.875L-131.351,107.813L-131.283,106.875L-131.214,104.375L-131.146,104.375L-131.009,103.438L-130.941,105.938L-130.872,107.188L-130.804,105.938L-130.735,106.25L-130.598,106.25L-130.53,105.625L-130.461,105.938L-130.393,106.563L-130.325,106.563L-130.256,106.25L-130.119,105L-130.051,104.063L-129.982,104.375L-129.914,105.938L-129.845,105.625L-129.777,105.938L-129.709,104.688L-129.64,104.375L-129.572,105.313L-129.503,106.875L-129.435,107.5L-129.366,108.125L-129.298,107.188L-129.161,107.5L-129.093,108.75L-129.024,108.75L-128.956,109.688L-128.887,111.563L-128.819,111.875L-128.75,111.563L-128.679,111.875L-128.611,111.875L-128.542,111.25L-128.474,112.188L-128.405,112.5L-128.337,113.438L-128.2,113.125L-128.131,112.5L-128.063,112.5L-127.995,113.75L-127.926,115.313L-127.858,116.563L-127.789,116.875L-127.721,116.563L-127.652,117.813L-127.584,118.75L-127.31,120L-127.242,119.375L-127.173,120L-127.105,121.563L-127.036,122.188L-126.968,123.438L-126.899,124.375L-126.831,123.75L-126.762,123.75L-126.694,124.063L-126.626,124.063L-126.557,125L-126.489,124.375L-126.283,124.375L-126.215,124.063L-126.146,124.063L-126.078,125.938L-126.01,125.938L-125.941,125.313L-125.804,124.688L-125.736,125.625L-125.667,126.563L-125.599,128.125L-125.53,127.813L-125.394,125.625L-125.257,124.375L-125.12,124.375L-125.051,124.688L-124.983,124.375L-124.846,124.063L-124.778,124.063L-124.709,125L-124.641,124.063L-124.572,124.375L-124.435,124.063L-124.367,123.438L-124.298,122.813L-124.23,121.875L-124.162,121.25L-124.093,120.938L-123.888,120L-123.819,117.813L-123.751,118.75L-123.682,120L-123.614,120L-123.546,119.063L-123.477,117.188L-123.272,116.563L-123.135,116.563L-122.93,116.875L-122.861,117.188L-122.793,115L-122.724,115L-122.656,114.688L-122.45,116.563L-122.382,117.5L-122.313,117.188L-122.245,115.938L-122.177,115.625L-122.108,114.375L-122.04,114.375L-121.971,113.75L-121.903,114.688L-121.834,114.688L-121.766,114.375L-121.697,115.313L-121.629,116.875L-121.561,117.813L-121.424,118.438L-121.355,117.813L-121.287,118.75L-121.218,119.063L-121.15,119.063L-121.013,116.875L-120.945,115.313L-120.876,113.75L-120.808,114.375L-120.739,114.063L-120.671,114.375L-120.465,111.875L-120.397,110.625L-120.329,112.813L-120.26,111.25L-120.192,111.563L-120.058,111.875L-119.989,111.875L-119.921,111.875L-119.852,112.813L-119.784,113.125L-119.715,112.5L-119.578,112.5L-119.442,113.125L-119.373,111.875L-119.305,110.937L-119.236,110.937L-119.168,110.625L-119.099,109.375L-119.031,109.688L-118.962,109.688L-118.894,110.312L-118.826,110.312L-118.757,111.563L-118.62,110.312L-118.552,111.875L-118.483,114.063L-118.415,116.563L-118.346,116.25L-118.278,116.563L-118.141,115.625L-118.073,118.125L-118.004,117.813L-117.936,117.5L-117.867,119.063L-117.799,119.375L-117.73,117.5L-117.662,117.813L-117.594,115.625L-117.525,115.625L-117.457,115L-117.32,116.25L-117.251,115.313L-117.183,115L-117.114,115L-117.046,115.313L-116.978,116.563L-116.909,116.25L-116.841,117.5L-116.772,117.5L-116.704,116.25L-116.635,116.25L-116.567,116.25L-116.498,115L-116.43,115.938L-116.362,114.375L-116.293,112.813L-116.225,112.188L-116.156,112.813L-116.088,113.125L-116.019,114.063L-115.951,113.125L-115.882,112.5L-115.814,109.375L-115.745,108.438L-115.677,107.813L-115.609,109.688L-115.54,109.375L-115.472,110.937L-115.403,110.312L-115.266,110.312L-115.198,110.312L-115.129,110.625L-115.061,107.813L-114.993,106.25L-114.924,105.313L-114.856,103.438L-114.787,103.125L-114.719,103.125L-114.65,101.875L-114.582,101.875L-114.513,100.313L-114.308,100.625L-114.24,102.188L-114.171,100.937L-114.103,100.625L-114.034,101.25L-113.966,99.375L-113.897,99.688L-113.829,99.063L-113.761,99.375L-113.692,99.688L-113.624,100L-113.555,103.125L-113.487,103.75L-113.418,105L-113.35,104.688L-113.281,104.063L-113.213,103.75L-113.145,103.438L-113.076,102.188L-113.008,101.562L-112.871,101.875L-112.802,105L-112.734,106.563L-112.665,107.813L-112.597,109.063L-112.529,109.375L-112.323,108.75L-112.255,110L-112.186,110.937L-112.118,112.813L-112.049,112.813L-111.913,112.5L-111.844,110L-111.776,111.25L-111.707,112.188L-111.639,114.375L-111.57,114.063L-111.502,114.688L-111.433,114.063L-111.365,114.063L-111.296,115.625L-111.228,115.625L-111.16,115.938L-111.091,114.375L-110.954,114.063L-110.886,115L-110.817,116.563L-110.749,117.188L-110.68,118.125L-110.612,119.063L-110.544,118.75L-110.475,117.813L-110.407,118.75L-110.338,119.375L-110.27,120L-110.201,119.687L-110.133,119.063L-110.064,118.125L-109.996,117.188L-109.928,116.875L-109.859,117.813L-109.791,116.875L-109.722,118.75L-109.654,119.375L-109.517,118.75L-109.448,118.125L-109.38,118.125L-109.312,118.438L-109.243,117.188L-109.106,115.313L-109.038,114.063L-108.969,112.813L-108.901,112.813L-108.832,113.75L-108.764,114.063L-108.696,112.813L-108.559,111.875L-108.49,110L-108.422,110.625L-108.353,110L-108.285,110.312L-108.216,110.937L-108.148,110.312L-108.08,110L-108.011,108.75L-107.943,107.5L-107.874,108.75L-107.806,109.688L-107.737,110.312L-107.669,109.688L-107.6,105.625L-107.532,105L-107.463,106.563L-107.395,105.938L-107.327,105.938L-107.258,106.563L-107.19,107.188L-107.121,105.625L-107.053,105.625L-106.984,107.5L-106.916,109.063L-106.847,110.312L-106.779,109.063L-106.711,108.125L-106.642,106.563L-106.574,106.25L-106.505,106.875L-106.437,109.375L-106.368,109.375L-106.3,110L-106.163,109.688L-106.095,107.188L-106.026,106.563L-105.958,105.938L-105.889,106.875L-105.821,108.75L-105.752,108.438L-105.684,107.813L-105.615,105L-105.547,105.625L-105.479,109.063L-105.41,110.937L-105.342,111.875L-105.273,112.813L-105.205,112.5L-105.136,113.125L-105.068,111.25L-104.999,110.312L-104.931,112.188L-104.863,111.25L-104.794,110.625L-104.726,110.312L-104.657,111.25L-104.589,111.25L-104.52,110.937L-104.452,111.563L-104.383,110.937L-104.315,110.312L-104.247,110.937L-104.178,110.937L-104.11,110L-104.041,110.625L-103.973,110.312L-103.904,108.125L-103.836,106.875L-103.765,106.563L-103.696,106.563L-103.628,106.875L-103.559,109.063L-103.491,108.125L-103.422,107.813L-103.354,106.875L-103.285,106.875L-103.217,105.313L-103.149,105L-103.08,104.375L-103.012,104.375L-102.875,106.875L-102.806,106.25L-102.738,107.5L-102.669,107.813L-102.396,108.75L-102.327,109.063L-102.259,109.375L-102.19,110.312L-102.122,111.25L-102.053,110.937L-101.985,111.25L-101.916,110.625L-101.848,110.625L-101.78,111.875L-101.711,112.813L-101.643,114.688L-101.574,117.813L-101.506,119.375L-101.437,119.063L-101.369,118.75L-101.3,118.125L-101.232,117.5L-101.164,118.75L-101.095,119.063L-101.027,119.063L-100.89,118.125L-100.821,119.375L-100.753,120.625L-100.684,120.625L-100.342,122.813L-100.274,121.563L-100.205,121.563L-100.137,122.188L-100.068,122.188L-99.932,121.875L-99.795,121.563L-99.726,122.188L-99.658,123.438L-99.589,123.75L-99.452,123.75L-99.384,123.438L-99.316,124.063L-99.247,124.688L-99.179,124.688L-99.11,125.625L-99.042,124.688L-98.973,124.688L-98.905,124.688L-98.836,125L-98.768,125L-98.7,126.25L-98.631,127.5L-98.494,127.813L-98.426,128.125L-98.357,128.75L-98.289,128.75L-98.22,127.188L-98.152,125.938L-98.084,125L-98.015,122.813L-97.947,123.438L-97.878,124.063L-97.81,122.813L-97.741,123.125L-97.673,123.125L-97.536,122.5L-97.467,122.5L-97.399,121.563L-97.331,120.938L-97.262,121.25L-97.194,120.938L-97.125,120.625L-97.057,118.75L-96.988,117.813L-96.851,116.25L-96.783,116.563L-96.715,115.625L-96.509,115.313L-96.441,115.625L-96.372,115.313L-96.304,112.188L-96.235,110L-96.167,109.375L-96.099,109.688L-96.03,110.312L-95.962,111.25L-95.893,113.125L-95.825,113.438L-95.619,114.375L-95.551,116.563L-95.483,116.563L-95.414,115.938L-95.346,116.563L-95.209,116.563L-95.143,115.938L-95.075,115L-95.006,115.625L-94.938,115.313L-94.869,115L-94.801,115L-94.732,115L-94.664,113.125L-94.596,112.5L-94.527,113.125L-94.459,114.375L-94.39,112.813L-94.322,113.438L-94.253,111.25L-94.185,110.937L-94.116,110L-94.048,109.688L-93.98,111.25L-93.911,110.312L-93.774,108.75L-93.706,108.75L-93.637,108.438L-93.569,107.813L-93.5,106.875L-93.432,106.25L-93.295,105L-93.227,104.375L-93.158,105L-93.09,104.375L-93.021,102.188L-92.953,102.188L-92.884,102.813L-92.816,101.25L-92.748,101.25L-92.679,101.562L-92.611,100.313L-92.542,100.625L-92.474,101.25L-92.268,101.25L-92.2,100.937L-92.132,101.562L-92.063,101.562L-91.995,100.937L-91.926,102.5L-91.789,100.937L-91.721,102.813L-91.652,105.938L-91.584,106.25L-91.516,107.5L-91.447,106.25L-91.379,105.313L-91.31,103.75L-91.242,103.438L-91.173,105L-91.105,105L-91.036,104.688L-90.968,105L-90.899,101.875L-90.831,102.5L-90.763,103.75L-90.694,104.688L-90.626,104.375L-90.557,102.5L-90.352,103.125L-90.283,103.125L-90.215,104.375L-90.147,104.375L-90.078,105.625L-90.01,106.563L-89.873,106.25L-89.804,105L-89.736,104.688L-89.667,105.313L-89.599,105.938L-89.531,108.125L-89.462,107.188L-89.394,105.938L-89.325,106.875L-89.257,106.563L-89.188,108.438L-89.12,109.063L-89.051,110.937L-88.983,110.625L-88.915,109.688L-88.846,110.625L-88.778,110.937L-88.709,110.937L-88.641,113.438L-88.572,112.188L-88.504,109.688L-88.435,108.125L-88.367,109.063L-88.299,111.25L-88.23,111.25L-88.162,110L-88.093,107.813L-88.025,105.625L-87.956,105.313L-87.888,106.25L-87.819,107.5L-87.751,108.75L-87.683,108.75L-87.614,107.188L-87.546,106.25L-87.477,105.313L-87.409,104.063L-87.34,104.063L-87.272,104.063L-87.203,103.75L-87.135,103.438L-87.067,103.438L-86.998,101.875L-86.93,102.813L-86.861,103.75L-86.793,102.813L-86.724,101.875L-86.656,100.937L-86.519,100.625L-86.45,100.313L-86.382,103.125L-86.314,104.688L-86.245,105L-86.177,105.313L-86.04,104.688L-85.971,105.625L-85.903,107.813L-85.834,110.312L-85.766,110.937L-85.698,110L-85.629,109.688L-85.561,107.188L-85.492,107.5L-85.424,109.375L-85.355,110.625L-85.287,111.25L-85.218,113.438L-85.15,113.438L-85.082,111.25L-85.013,110.937L-84.945,112.188L-84.876,111.25L-84.808,110.937L-84.739,110.312L-84.671,109.688L-84.602,110.625L-84.534,112.188L-84.466,114.063L-84.397,114.375L-84.329,116.25L-84.26,115.625L-84.123,115.313L-84.055,114.063L-83.986,113.75L-83.918,115L-83.85,113.75L-83.781,111.875L-83.713,111.875L-83.644,110.312L-83.576,110L-83.507,109.688L-83.439,111.875L-83.37,113.438L-83.302,111.875L-83.165,110.937L-83.097,109.375L-83.028,107.5L-82.96,108.125L-82.891,110.312L-82.823,111.563L-82.686,110.625L-82.617,111.25L-82.549,110.937L-82.481,110.312L-82.412,110.625L-82.344,110.625L-82.275,110.625L-82.207,108.438L-82.138,107.813L-82.07,107.813L-82.001,108.125L-81.933,107.188L-81.865,108.125L-81.796,105.938L-81.728,104.063L-81.659,103.125L-81.591,105.313L-81.522,105L-81.454,106.563L-81.385,105.625L-81.317,105.938L-81.249,106.25L-81.18,106.875L-81.112,108.438L-81.043,109.063L-80.975,110.312L-80.906,110.625L-80.838,110.625L-80.769,109.375L-80.701,109.375L-80.633,110L-80.564,110.312L-80.496,110.937L-80.427,111.25L-80.359,110.312L-80.29,110L-80.222,108.75L-80.153,110.937L-80.085,109.688L-80.017,108.438L-79.948,108.125L-79.811,109.063L-79.743,109.375L-79.674,112.188L-79.606,113.438L-79.537,114.688L-79.469,114.063L-79.401,113.125L-79.332,112.5L-79.264,113.125L-79.195,113.125L-78.99,112.5L-78.921,111.875L-78.85,111.25L-78.782,111.563L-78.713,110.312L-78.645,111.563L-78.576,112.188L-78.508,112.5L-78.439,110.937L-78.371,110.937L-78.303,110.937L-78.234,111.875L-78.166,111.25L-78.097,110.625L-78.029,110L-77.96,111.563L-77.892,111.563L-77.823,113.125L-77.755,114.688L-77.687,114.375L-77.55,114.688L-77.413,115L-77.344,114.688L-77.276,115L-77.207,115.625L-77.139,115.625L-77.07,116.875L-76.934,117.5L-76.865,118.75L-76.797,118.438L-76.728,119.063L-76.66,117.5L-76.591,116.563L-76.454,116.563L-76.386,117.5L-76.318,116.875L-76.249,116.563L-76.181,116.875L-76.112,117.813L-76.044,118.125L-75.975,117.813L-75.907,116.875L-75.838,119.063L-75.77,120.313L-75.702,121.25L-75.633,119.375L-75.496,119.063L-75.291,120L-75.222,119.063L-75.154,119.687L-75.086,119.375L-74.949,119.063L-74.88,120L-74.812,120L-74.743,120.938L-74.675,121.25L-74.606,120.938L-74.538,120.313L-74.47,120.313L-74.401,120.313L-74.333,119.063L-74.264,120.625L-74.196,121.875L-74.059,119.687L-73.99,119.375L-73.922,120L-73.854,120.625L-73.785,120.938L-73.717,119.687L-73.648,118.75L-73.58,118.75L-73.511,120.313L-73.443,120.313L-73.374,120L-73.306,119.687L-73.238,121.25L-73.101,120.938L-73.032,119.375L-72.964,119.687L-72.895,120.313L-72.827,120L-72.758,118.125L-72.69,116.563L-72.621,116.875L-72.553,116.875L-72.485,117.188L-72.416,115.313L-72.348,114.688L-72.211,114.375L-72.142,113.438L-72.074,113.438L-72.005,113.438L-71.937,113.438L-71.869,114.063L-71.8,113.75L-71.732,111.875L-71.663,111.25L-71.595,110.312L-71.526,111.875L-71.458,112.5L-71.389,111.563L-71.321,111.563L-71.184,109.063L-71.116,110L-71.047,108.125L-70.979,108.438L-70.91,108.125L-70.842,108.438L-70.773,107.188L-70.705,106.875L-70.637,105.938L-70.568,106.875L-70.5,106.563L-70.431,105.625L-70.363,104.375L-70.229,103.125L-70.16,105.313L-70.092,105.938L-70.023,104.688L-69.955,103.75L-69.886,102.813L-69.818,102.188L-69.75,101.875L-69.681,103.125L-69.613,103.125L-69.544,103.75L-69.476,101.25L-69.407,100.625L-69.27,98.438L-69.202,98.125L-69.134,99.375L-69.065,98.75L-68.997,100L-68.791,99.375L-68.723,100L-68.654,98.75L-68.586,99.375L-68.518,100.313L-68.449,101.25L-68.312,100.937L-68.244,100.937L-68.175,101.562L-68.107,102.5L-68.038,103.438L-67.97,105L-67.902,103.438L-67.833,101.562L-67.765,99.688L-67.696,99.063L-67.628,99.375L-67.559,100.937L-67.491,102.188L-67.422,100.937L-67.354,100L-67.286,99.375L-67.217,98.75L-67.149,100.625L-67.08,102.5L-67.012,105L-66.943,105.625L-66.875,105.313L-66.806,104.063L-66.738,103.438L-66.67,103.438L-66.601,105L-66.533,106.25L-66.464,105.938L-66.396,104.063L-66.327,102.188L-66.259,101.25L-66.19,101.562L-66.122,101.875L-66.054,102.813L-65.985,102.5L-65.917,101.875L-65.848,104.688L-65.78,105L-65.711,106.563L-65.643,108.75L-65.574,110L-65.506,108.125L-65.437,105.625L-65.369,106.25L-65.301,105L-65.232,106.563L-65.164,108.75L-65.095,109.063L-65.027,106.25L-64.958,104.375L-64.89,102.813L-64.821,101.562L-64.753,101.25L-64.685,102.813L-64.616,103.438L-64.548,102.188L-64.479,100L-64.411,98.75L-64.342,100.937L-64.274,103.125L-64.205,104.063L-64.137,100.625L-64.069,98.438L-64,96.875L-63.932,95L-63.863,93.125L-63.795,93.438L-63.726,95L-63.658,92.187L-63.589,92.5L-63.521,91.875L-63.453,93.438L-63.384,95L-63.316,95.313L-63.247,97.5L-63.179,96.875L-63.11,95.625L-63.042,94.375L-62.973,94.688L-62.905,94.688L-62.837,95.938L-62.768,94.688L-62.7,95.313L-62.631,93.438L-62.563,92.187L-62.494,93.125L-62.426,95.313L-62.357,95.625L-62.289,94.688L-62.221,94.375L-62.084,91.562L-62.015,94.688L-61.947,97.188L-61.878,97.813L-61.81,99.063L-61.741,100.625L-61.673,99.063L-61.604,95.938L-61.536,99.375L-61.468,100L-61.399,101.25L-61.331,100.625L-61.262,98.75L-61.194,99.063L-61.125,97.813L-61.057,96.875L-60.988,97.813L-60.92,100L-60.852,101.562L-60.715,102.188L-60.646,101.25L-60.578,101.875L-60.509,102.813L-60.441,105L-60.372,104.375L-60.236,102.813L-60.167,101.875L-60.099,102.188L-60.03,103.125L-59.962,104.063L-59.893,106.25L-59.825,107.188L-59.756,105.313L-59.688,104.375L-59.62,104.688L-59.551,105L-59.483,106.25L-59.414,108.125L-59.346,107.188L-59.277,103.438L-59.209,100L-59.14,99.063L-59.072,100.937L-59.004,101.562L-58.935,101.875L-58.867,102.5L-58.798,102.5L-58.73,101.25L-58.661,99.063L-58.593,99.063L-58.524,100L-58.456,98.75L-58.319,96.563L-58.182,95.625L-58.114,96.875L-58.045,96.25L-57.977,95.313L-57.908,95.938L-57.84,95L-57.772,94.063L-57.703,95L-57.635,93.125L-57.566,92.5L-57.498,94.063L-57.429,94.375L-57.361,94.063L-57.292,92.5L-57.224,92.5L-57.155,91.562L-57.087,92.5L-57.019,94.688L-56.95,96.563L-56.882,93.75L-56.813,92.187L-56.745,91.875L-56.676,91.562L-56.608,90.938L-56.539,91.25L-56.471,94.375L-56.403,95L-56.334,93.75L-56.266,95L-56.197,95.625L-56.129,95L-56.06,95.938L-55.992,98.125L-55.923,98.75L-55.855,97.5L-55.787,96.563L-55.718,95L-55.65,94.688L-55.581,95.938L-55.513,96.25L-55.444,95.938L-55.376,95L-55.307,94.063L-55.239,94.688L-55.171,95.938L-55.102,96.875L-55.034,97.813L-54.965,98.438L-54.897,97.5L-54.828,100.313L-54.76,101.25L-54.691,102.813L-54.623,104.063L-54.555,103.75L-54.486,103.125L-54.418,102.188L-54.349,102.5L-54.281,103.75L-54.212,105.625L-54.144,106.875L-54.075,106.875L-53.936,104.063L-53.867,103.125L-53.799,104.375L-53.73,105.625L-53.662,107.188L-53.593,108.75L-53.525,109.063L-53.457,109.063L-53.388,110.312L-53.32,109.063L-53.251,110.312L-53.183,111.875L-53.114,112.5L-53.046,110.625L-52.977,110.312L-52.909,111.25L-52.841,111.875L-52.772,111.875L-52.704,112.5L-52.635,112.5L-52.567,112.5L-52.498,113.125L-52.43,114.375L-52.361,115.625L-52.293,115.938L-52.225,115.938L-52.088,115.938L-52.019,116.25L-51.951,117.188L-51.882,118.75L-51.814,120.938L-51.745,122.188L-51.677,120L-51.608,120.313L-51.54,119.375L-51.472,119.375L-51.403,119.063L-51.335,118.75L-51.266,119.063L-51.129,118.75L-51.061,116.25L-50.992,116.563L-50.924,117.5L-50.856,119.687L-50.787,121.25L-50.719,121.563L-50.582,121.25L-50.513,120.625L-50.376,120.625L-50.308,121.25L-50.24,120.938L-50.171,119.375L-50.103,118.125L-50.034,116.25L-49.966,116.25L-49.897,115.938L-49.829,116.25L-49.76,116.25L-49.692,114.375L-49.624,113.125L-49.555,112.5L-49.487,111.875L-49.418,113.438L-49.35,113.75L-49.213,113.125L-49.144,112.813L-49.076,112.813L-49.008,114.063L-48.939,114.375L-48.871,115.938L-48.802,118.438L-48.734,116.25L-48.665,114.688L-48.597,110.625L-48.528,109.063L-48.46,108.438L-48.392,107.813L-48.323,107.188L-48.255,105L-48.186,104.063L-48.118,103.438L-48.049,103.438L-47.981,104.688L-47.912,104.688L-47.844,104.375L-47.775,103.75L-47.707,100.625L-47.639,98.75L-47.57,100L-47.502,100.313L-47.433,97.813L-47.365,97.5L-47.296,96.875L-47.228,94.688L-47.159,94.688L-47.091,95L-47.023,95.625L-46.954,94.688L-46.886,93.438L-46.749,92.5L-46.68,90L-46.612,90.625L-46.543,90.938L-46.475,94.688L-46.407,95.938L-46.338,95.938L-46.27,96.25L-46.201,98.438L-46.133,99.688L-46.064,99.375L-45.996,100.313L-45.927,100.937L-45.791,98.125L-45.722,96.563L-45.654,95.938L-45.585,94.688L-45.517,97.813L-45.448,99.375L-45.38,99.375L-45.314,97.188L-45.246,98.75L-45.177,97.813L-45.109,96.875L-45.04,98.75L-44.972,97.5L-44.904,94.375L-44.835,92.5L-44.767,92.187L-44.698,91.875L-44.63,93.125L-44.561,94.375L-44.493,91.875L-44.424,90.313L-44.356,86.563L-44.288,84.688L-44.219,85L-44.151,85.313L-44.082,83.438L-44.014,82.5L-43.945,83.125L-43.877,82.5L-43.808,81.563L-43.74,83.438L-43.672,85.625L-43.603,85.313L-43.535,82.812L-43.466,80.313L-43.398,80L-43.329,78.125L-43.261,80.313L-43.192,79.688L-43.124,79.688L-42.987,78.125L-42.919,76.25L-42.85,78.125L-42.782,80.938L-42.713,79.688L-42.645,80.313L-42.576,80.313L-42.44,77.5L-42.371,76.875L-42.303,80.625L-42.234,83.438L-42.166,87.188L-42.097,86.563L-42.029,85.313L-41.96,84.688L-41.892,85.313L-41.824,86.875L-41.755,87.5L-41.687,86.563L-41.618,86.25L-41.55,84.688L-41.481,84.375L-41.413,83.75L-41.344,87.813L-41.276,89.063L-41.208,89.063L-41.139,89.375L-41.002,87.5L-40.934,88.75L-40.865,90.625L-40.797,94.375L-40.728,96.563L-40.66,96.875L-40.523,96.563L-40.455,97.5L-40.386,94.688L-40.318,92.813L-40.249,95.938L-40.181,97.188L-40.112,95L-40.044,92.187L-39.975,89.063L-39.907,91.562L-39.839,89.688L-39.77,89.375L-39.702,90L-39.633,88.125L-39.565,85.625L-39.496,84.063L-39.428,86.25L-39.359,88.438L-39.291,87.813L-39.223,89.063L-39.154,87.188L-39.086,86.563L-39.017,81.563L-38.949,83.438L-38.88,86.25L-38.812,85.313L-38.743,82.812L-38.675,80.313L-38.607,77.188L-38.538,76.875L-38.47,77.5L-38.401,79.375L-38.333,80L-38.264,81.25L-38.196,78.125L-38.127,75.625L-38.059,75.313L-37.991,77.813L-37.922,81.25L-37.854,80L-37.785,82.187L-37.648,81.875L-37.58,81.875L-37.511,82.5L-37.443,84.063L-37.375,87.188L-37.306,85.938L-37.169,84.688L-37.101,84.375L-37.032,83.438L-36.964,83.125L-36.895,83.438L-36.827,89.375L-36.758,88.125L-36.69,86.875L-36.622,86.875L-36.553,87.813L-36.485,88.125L-36.416,90L-36.348,90.938L-36.279,90.625L-36.211,90.625L-36.142,91.25L-36.074,90.313L-36.006,92.813L-35.937,95.625L-35.869,97.813L-35.8,95.625L-35.732,94.375L-35.663,92.813L-35.595,93.125L-35.526,93.438L-35.458,94.375L-35.39,94.063L-35.321,94.688L-35.253,92.187L-35.184,89.688L-35.116,88.125L-35.047,88.125L-34.979,89.688L-34.91,91.875L-34.842,92.187L-34.774,89.063L-34.705,89.063L-34.637,88.438L-34.568,89.375L-34.5,89.375L-34.431,91.875L-34.363,90.625L-34.294,89.063L-34.226,86.875L-34.158,83.125L-34.089,78.75L-34.021,81.563L-33.952,81.563L-33.884,80L-33.815,78.125L-33.747,79.375L-33.678,79.375L-33.61,79.063L-33.542,80.625L-33.473,81.25L-33.405,77.188L-33.336,76.25L-33.268,73.125L-33.199,73.438L-33.131,72.5L-33.062,74.688L-32.994,77.5L-32.926,74.688L-32.857,73.438L-32.789,71.25L-32.72,72.188L-32.652,71.875L-32.583,72.5L-32.515,73.438L-32.446,72.813L-32.378,69.688L-32.309,70L-32.241,71.563L-32.173,70.938L-32.104,74.688L-32.036,80.625L-31.967,78.125L-31.899,75.938L-31.83,76.563L-31.762,77.813L-31.693,76.25L-31.625,75.313L-31.557,76.25L-31.488,74.375L-31.42,73.438L-31.351,72.813L-31.283,74.375L-31.214,77.188L-31.146,79.063L-31.077,82.187L-31.009,81.875L-30.941,77.5L-30.872,80.938L-30.804,80.313L-30.735,82.187L-30.667,84.063L-30.598,83.75L-30.53,82.5L-30.461,79.063L-30.393,79.375L-30.325,79.688L-30.256,79.688L-30.188,79.688L-30.119,81.563L-30.051,80L-29.982,78.125L-29.914,80L-29.845,80.625L-29.777,80.625L-29.709,81.875L-29.64,84.375L-29.503,83.125L-29.435,83.75L-29.366,85.625L-29.298,86.875L-29.229,91.25L-29.161,92.813L-29.093,91.25L-29.021,90L-28.953,88.438L-28.884,86.875L-28.816,88.438L-28.747,87.813L-28.679,90L-28.611,89.688L-28.542,88.75L-28.474,88.75L-28.405,89.375L-28.337,93.438L-28.268,94.688L-28.2,96.875L-28.131,97.5L-28.063,95.938L-27.995,95L-27.926,95L-27.858,97.188L-27.789,98.125L-27.721,100.313L-27.652,99.063L-27.584,96.875L-27.515,95.938L-27.447,99.375L-27.379,100.625L-27.31,100.625L-27.242,100.313L-27.173,99.375L-27.105,97.188L-27.036,99.375L-26.968,100.625L-26.899,103.438L-26.831,105.938L-26.762,108.125L-26.694,106.25L-26.626,105.938L-26.557,106.563L-26.489,107.813L-26.42,109.688L-26.352,111.25L-26.283,109.375L-26.215,108.438L-26.146,106.25L-26.078,106.875L-26.01,107.5L-25.941,110.312L-25.873,111.875L-25.804,111.875L-25.736,111.25L-25.667,109.375L-25.599,109.063L-25.53,108.75L-25.462,109.375L-25.394,109.063L-25.325,108.75L-25.188,108.75L-25.12,108.125L-25.051,106.875L-24.983,108.125L-24.914,107.5L-24.846,106.875L-24.778,105.313L-24.709,105L-24.641,102.813L-24.572,104.375L-24.504,103.438L-24.435,104.375L-24.367,104.063L-24.298,103.125L-24.23,100.937L-24.162,99.688L-24.093,100L-24.025,101.875L-23.956,102.813L-23.888,103.75L-23.819,103.125L-23.751,102.5L-23.682,102.188L-23.614,101.875L-23.546,103.125L-23.477,104.375L-23.409,104.688L-23.34,103.438L-23.272,100.937L-23.203,100.937L-23.135,100L-23.066,101.562L-22.998,102.5L-22.93,101.875L-22.861,100.937L-22.793,101.875L-22.724,102.813L-22.656,103.438L-22.587,105L-22.519,103.438L-22.45,104.375L-22.382,100.625L-22.313,99.063L-22.245,96.25L-22.177,98.438L-22.108,101.562L-22.04,100.313L-21.971,99.375L-21.834,96.25L-21.766,94.063L-21.697,94.063L-21.629,94.375L-21.561,95L-21.492,93.438L-21.355,90.625L-21.287,89.375L-21.218,89.688L-21.15,87.5L-21.081,89.688L-21.013,90.625L-20.945,89.688L-20.876,88.75L-20.808,90.625L-20.739,90.313L-20.671,89.375L-20.602,88.125L-20.534,89.063L-20.465,87.813L-20.4,87.5L-20.331,87.813L-20.263,88.125L-20.195,89.688L-20.126,90.938L-20.058,93.438L-19.989,91.875L-19.921,89.688L-19.852,90.938L-19.784,90.625L-19.715,90.313L-19.647,91.875L-19.578,92.5L-19.51,91.875L-19.442,90.313L-19.373,91.875L-19.305,92.813L-19.236,93.75L-19.168,94.063L-19.099,98.125L-19.031,94.688L-18.962,93.438L-18.894,91.875L-18.826,89.688L-18.757,86.25L-18.689,86.25L-18.62,88.125L-18.552,83.125L-18.483,80.938L-18.415,78.438L-18.346,76.875L-18.278,76.875L-18.21,76.875L-18.141,79.375L-18.073,76.875L-18.004,74.063L-17.936,73.75L-17.867,71.875L-17.799,70L-17.73,70.313L-17.662,73.438L-17.594,72.813L-17.525,69.063L-17.457,65.938L-17.388,65.625L-17.32,64.375L-17.251,66.25L-17.183,67.812L-17.114,66.563L-17.046,60L-16.978,59.375L-16.909,56.563L-16.841,59.375L-16.772,62.5L-16.704,64.063L-16.635,62.5L-16.567,54.688L-16.498,57.5L-16.43,56.875L-16.362,57.812L-16.293,59.688L-16.225,59.063L-16.156,55.625L-16.088,52.812L-16.019,51.875L-15.951,53.125L-15.882,54.688L-15.814,58.75L-15.745,58.125L-15.677,55.625L-15.609,51.875L-15.54,50.938L-15.472,53.125L-15.403,57.812L-15.335,58.75L-15.198,57.5L-15.129,53.75L-15.061,46.563L-14.993,44.062L-14.924,47.5L-14.856,50.625L-14.787,53.437L-14.719,52.5L-14.65,50.313L-14.582,49.062L-14.513,48.437L-14.445,55.938L-14.377,59.063L-14.308,61.563L-14.24,61.875L-14.171,61.875L-14.103,62.812L-14.034,62.187L-13.966,61.875L-13.897,65.938L-13.829,68.438L-13.761,66.563L-13.692,62.812L-13.624,63.438L-13.555,66.25L-13.487,66.563L-13.418,68.75L-13.35,70.625L-13.281,67.5L-13.213,65.938L-13.145,66.25L-13.076,69.375L-13.008,69.688L-12.939,74.375L-12.871,76.25L-12.802,74.063L-12.734,70.313L-12.665,69.063L-12.597,68.438L-12.529,67.812L-12.46,70.625L-12.392,70.938L-12.323,68.438L-12.255,66.563L-12.186,65.938L-12.118,64.063L-12.049,60L-11.981,62.812L-11.913,65.625L-11.844,64.688L-11.776,62.5L-11.707,61.875L-11.639,60.313L-11.57,60.313L-11.502,61.25L-11.433,63.438L-11.365,62.187L-11.296,59.688L-11.228,60.938L-11.16,59.375L-11.091,60.625L-11.023,60.625L-10.954,67.188L-10.886,63.438L-10.817,63.75L-10.749,65.625L-10.68,68.125L-10.612,68.438L-10.544,71.25L-10.475,73.438L-10.407,73.438L-10.338,71.563L-10.27,70.938L-10.201,71.563L-10.133,70.938L-10.064,73.75L-9.996,78.125L-9.928,79.375L-9.859,75.313L-9.791,74.063L-9.722,75.313L-9.654,75.313L-9.585,78.75L-9.517,81.875L-9.448,78.75L-9.38,76.875L-9.312,74.688L-9.243,73.438L-9.175,73.438L-9.106,76.25L-9.038,78.438L-8.969,76.25L-8.901,72.188L-8.832,73.75L-8.764,70.313L-8.696,70L-8.627,69.375L-8.559,70.625L-8.49,67.188L-8.422,64.375L-8.353,62.5L-8.285,60.938L-8.216,63.125L-8.148,63.125L-8.08,64.688L-8.011,62.187L-7.943,59.063L-7.874,57.812L-7.806,57.188L-7.737,55.625L-7.669,55.625L-7.6,57.5L-7.532,56.875L-7.463,55.313L-7.395,56.875L-7.327,58.437L-7.258,59.063L-7.19,61.25L-7.121,62.5L-7.053,59.375L-6.984,55.313L-6.916,54.063L-6.847,56.25L-6.779,57.812L-6.711,60.625L-6.642,62.812L-6.574,62.812L-6.505,59.375L-6.437,60L-6.368,60.313L-6.3,60.625L-6.231,62.812L-6.163,63.75L-6.095,61.25L-6.026,60.938L-5.958,58.75L-5.889,60L-5.821,58.437L-5.752,62.5L-5.684,65.938L-5.615,63.438L-5.547,61.563L-5.479,63.125L-5.41,61.875L-5.342,61.875L-5.273,62.812L-5.205,65.625L-5.136,64.375L-5.068,63.438L-4.999,63.438L-4.931,64.063L-4.863,64.375L-4.794,65.938L-4.726,66.25L-4.657,64.375L-4.589,61.25L-4.52,61.875L-4.452,66.563L-4.383,66.875L-4.315,70L-4.247,72.5L-4.178,70.625L-4.107,68.125L-4.038,69.375L-3.97,67.812L-3.901,69.688L-3.833,72.188L-3.765,74.063L-3.696,72.188L-3.628,69.688L-3.559,70L-3.491,69.688L-3.422,66.875L-3.354,69.688L-3.285,71.875L-3.217,66.875L-3.149,61.875L-3.08,60.313L-3.012,57.812L-2.943,58.437L-2.875,60L-2.806,62.812L-2.738,61.875L-2.669,61.563L-2.601,63.75L-2.533,66.563L-2.464,68.125L-2.396,67.812L-2.327,69.063L-2.259,67.188L-2.19,65.625L-2.122,68.75L-2.053,71.563L-1.985,74.063L-1.916,76.875L-1.848,78.75L-1.78,77.813L-1.711,76.25L-1.643,78.125L-1.574,79.375L-1.506,82.812L-1.437,82.812L-1.369,85L-1.3,82.5L-1.232,78.75L-1.164,83.125L-1.095,88.125L-1.027,90.625L-0.958,91.875L-0.89,94.063L-0.821,93.75L-0.753,92.813L-0.684,94.688L-0.616,92.813L-0.548,93.125L-0.411,90.313L-0.342,87.813L-0.274,85.625L-0.205,85.313L-0.137,87.5L-0.068,87.188L0.068,83.75L0.137,81.875L0.205,78.75L0.274,78.75L0.342,79.375L0.411,80.313L0.479,81.25L0.548,80.625L0.616,80.938L0.684,78.75L0.753,81.25L0.821,82.5L0.89,84.688L0.958,86.563L1.027,83.75L1.164,81.563L1.232,80.938L1.3,82.812L1.369,84.063L1.437,83.438L1.506,83.438L1.643,80L1.711,79.688L1.78,77.813L1.848,80.313L1.916,83.125L1.985,83.438L2.053,81.875L2.122,78.438L2.19,79.063L2.259,82.812L2.327,83.438L2.396,85.625L2.464,84.688L2.533,82.5L2.601,80.938L2.669,78.75L2.738,75.938L2.806,76.875L2.875,78.438L2.943,75.938L3.08,74.063L3.149,70.313L3.217,67.5L3.285,68.75L3.354,69.375L3.422,71.563L3.491,71.875L3.559,69.063L3.628,70L3.696,69.063L3.765,70.938L3.833,73.75L3.901,75.625L3.97,75L4.038,72.188L4.107,70.938L4.175,71.875L4.244,75.625L4.312,75.938L4.381,73.125L4.449,72.5L4.517,70L4.586,68.125L4.654,65.938L4.723,66.875L4.791,70.313L4.86,73.438L4.928,72.188L4.994,71.25L5.062,72.813L5.131,71.25L5.199,72.813L5.268,75.938L5.336,79.063L5.404,75.938L5.473,70.938L5.541,68.438L5.61,69.688L5.678,68.438L5.747,70.625L5.815,69.063L5.884,64.375L5.952,60.625L6.02,59.375L6.089,60.313L6.157,62.187L6.226,63.438L6.294,62.187L6.363,62.187L6.431,60L6.5,57.188L6.568,57.188L6.636,60L6.705,64.063L6.773,63.125L6.842,59.063L6.91,59.375L6.979,57.5L7.047,56.25L7.116,56.563L7.184,60.313L7.252,61.25L7.321,57.812L7.389,54.375L7.458,56.25L7.526,58.75L7.595,61.563L7.663,63.125L7.732,60.938L7.868,59.063L7.937,56.25L8.005,56.875L8.074,59.688L8.142,60.625L8.211,62.812L8.279,64.375L8.348,61.25L8.416,55.625L8.484,54.688L8.553,57.5L8.621,60.313L8.69,63.125L8.758,60.313L8.827,54.375L8.895,54.063L8.964,55L9.032,50.938L9.101,54.063L9.169,56.875L9.237,55.313L9.306,50.625L9.374,49.062L9.443,49.688L9.511,49.688L9.58,52.188L9.648,54.688L9.717,49.688L9.785,47.188L9.853,48.75L9.922,49.375L9.99,52.188L10.059,55.938L10.127,54.375L10.196,51.875L10.264,45.938L10.333,43.75L10.401,45L10.469,52.188L10.538,53.75L10.606,53.437L10.675,52.812L10.743,51.563L10.812,52.188L10.88,58.75L10.949,60.625L11.017,61.25L11.085,63.125L11.154,58.75L11.222,55.313L11.291,54.375L11.359,58.125L11.428,61.563L11.496,62.812L11.565,61.875L11.633,60.625L11.701,56.25L11.77,59.688L11.838,62.812L11.907,65.313L11.975,63.125L12.044,63.75L12.181,61.563L12.249,62.187L12.317,63.438L12.386,68.125L12.454,70.313L12.523,69.688L12.591,66.25L12.728,65.938L12.797,65.625L12.865,64.688L12.933,65.938L13.002,67.5L13.07,66.563L13.139,63.125L13.207,64.688L13.276,64.375L13.344,66.25L13.413,69.063L13.481,73.125L13.55,69.688L13.618,65.625L13.686,63.438L13.755,64.375L13.823,62.812L13.892,66.875L13.96,68.438L14.029,65.625L14.097,62.5L14.166,64.063L14.234,63.75L14.302,65L14.371,66.563L14.439,68.75L14.508,67.812L14.576,61.875L14.645,62.812L14.713,64.063L14.782,61.875L14.85,63.438L14.918,66.875L14.987,67.812L15.055,67.188L15.124,65L15.192,61.25L15.261,59.375L15.329,61.875L15.398,63.438L15.466,60.938L15.534,57.5L15.603,57.5L15.671,57.812L15.74,60.313L15.808,61.875L15.877,63.75L15.945,61.25L16.014,53.75L16.082,52.5L16.15,53.437L16.219,49.688L16.287,51.875L16.356,52.5L16.424,50.625L16.493,48.437L16.561,47.188L16.63,48.75L16.698,50L16.766,51.875L16.835,54.063L16.903,52.5L16.972,49.375L17.04,46.875L17.109,42.5L17.177,42.813L17.246,47.188L17.314,50.625L17.383,49.375L17.451,46.563L17.519,46.875L17.588,48.125L17.656,49.062L17.725,50.625L17.793,53.437L17.862,50.938L17.93,48.125L17.999,47.813L18.067,51.875L18.135,52.812L18.204,55L18.272,60.625L18.341,58.125L18.409,56.875L18.478,56.563L18.546,56.25L18.615,57.812L18.683,58.437L18.751,58.437L18.82,55.625L18.888,54.375L18.957,51.875L19.025,47.5L19.094,45.938L19.162,51.25L19.231,54.063L19.299,55.625L19.367,53.437L19.436,54.375L19.504,53.75L19.573,55.313L19.641,56.563L19.71,58.125L19.778,54.688L19.847,51.563L19.915,52.188L19.983,55L20.052,56.563L20.12,57.188L20.189,60L20.257,57.5L20.326,54.063L20.394,56.25L20.463,58.75L20.531,60.938L20.599,63.75L20.668,65.625L20.736,66.563L20.805,66.25L20.873,67.188L20.942,65.625L21.01,68.438L21.079,75.625L21.147,79.375L21.215,77.5L21.287,76.563L21.355,75.625L21.424,72.5L21.492,70.938L21.561,74.063L21.629,75L21.697,74.375L21.766,73.75L21.834,78.438L21.903,80.625L21.971,83.75L22.04,84.063L22.108,85.938L22.177,88.438L22.245,86.875L22.313,89.375L22.382,90.938L22.45,89.375L22.519,88.75L22.587,89.063L22.656,86.563L22.724,85L22.793,86.875L22.861,88.438L22.93,89.688L22.998,90L23.066,88.75L23.135,88.438L23.203,88.125L23.272,91.562L23.34,91.562L23.409,91.562L23.477,94.688L23.546,95.313L23.614,96.563L23.682,96.25L23.751,97.5L23.819,98.75L23.888,97.813L23.956,95.625L24.025,93.75L24.093,91.875L24.162,89.688L24.23,89.063L24.298,88.75L24.367,86.25L24.435,86.563L24.641,86.563L24.709,84.375L24.778,83.75L24.846,86.25L24.914,86.563L24.983,85L25.12,80.313L25.188,80L25.257,81.875L25.325,85.313L25.394,83.438L25.53,79.063L25.599,76.875L25.667,78.125L25.736,79.063L25.804,81.25L25.873,82.5L25.941,80.938L26.01,81.25L26.078,79.375L26.146,78.125L26.215,77.188L26.283,79.375L26.352,81.25L26.42,83.125L26.489,82.187L26.557,78.75L26.626,78.125L26.694,78.125L26.762,80.938L26.831,83.438L26.899,83.438L26.968,80.625L27.036,79.063L27.105,76.875L27.173,75.938L27.242,80.625L27.31,80.938L27.447,80.938L27.515,80L27.584,80.625L27.652,84.063L27.721,83.75L27.789,82.812L27.858,84.375L27.926,83.125L27.995,84.063L28.063,84.688L28.131,84.063L28.2,84.688L28.268,86.25L28.337,87.813L28.405,87.188L28.474,85L28.542,84.688L28.611,86.563L28.679,90.938L28.747,93.125L28.816,95L28.884,92.813L28.953,90.625L29.021,90.625L29.09,93.438L29.158,93.438L29.227,95.938L29.295,96.875L29.363,94.375L29.432,93.75L29.5,92.187L29.569,90L29.637,89.688L29.706,90.313L29.774,90L29.843,87.5L29.908,86.25L29.977,84.375L30.045,80.625L30.114,80.625L30.182,81.25L30.25,79.688L30.387,78.438L30.456,75.625L30.524,73.75L30.593,72.813L30.661,73.75L30.73,74.688L30.798,69.688L30.866,68.75L30.935,68.438L31.003,67.812L31.072,67.812L31.14,69.063L31.209,65.313L31.277,66.563L31.346,60.938L31.414,60.938L31.482,60.625L31.551,59.688L31.619,61.875L31.688,62.187L31.756,60.938L31.825,58.75L31.893,59.063L31.962,58.125L32.03,59.063L32.098,62.5L32.167,64.375L32.235,60.938L32.304,58.75L32.372,57.5L32.441,57.188L32.509,59.375L32.578,62.5L32.646,62.5L32.714,57.5L32.783,55L32.851,56.875L32.92,58.437L32.988,60L33.057,62.187L33.125,64.063L33.262,62.812L33.33,65.313L33.399,62.5L33.467,67.5L33.536,68.125L33.604,68.75L33.673,68.125L33.741,65.625L33.81,66.875L33.878,67.812L33.946,67.812L34.015,69.688L34.083,70.313L34.152,66.563L34.22,61.25L34.289,58.437L34.357,56.25L34.426,57.812L34.494,61.875L34.563,60L34.631,58.75L34.699,55L34.768,55.625L34.836,57.5L34.905,59.063L34.973,61.875L35.042,57.188L35.11,54.375L35.179,49.688L35.247,47.188L35.315,48.125L35.384,50.313L35.452,51.875L35.521,51.563L35.589,51.563L35.658,51.25L35.726,52.5L35.795,54.063L35.863,52.5L35.931,52.188L36,51.25L36.137,49.062L36.205,51.563L36.274,55.938L36.342,57.188L36.411,59.688L36.479,60.938L36.547,60.313L36.616,57.812L36.684,61.875L36.753,65L36.821,65.313L36.89,65.313L36.958,65.625L37.027,62.5L37.095,59.375L37.163,62.187L37.232,65.313L37.3,68.75L37.369,68.125L37.506,63.438L37.574,61.25L37.711,61.25L37.779,62.5L37.848,63.125L37.916,63.75L38.053,62.5L38.122,61.563L38.19,63.125L38.259,65.313L38.327,69.375L38.396,70.313L38.464,67.5L38.532,64.688L38.601,64.063L38.669,61.875L38.738,65.313L38.806,66.25L38.875,67.188L38.943,63.125L39.012,58.437L39.08,56.875L39.148,56.25L39.217,57.812L39.285,61.25L39.354,62.187L39.422,59.688L39.491,54.375L39.559,51.563L39.628,52.5L39.696,58.75L39.764,60.938L39.833,59.063L39.97,56.875L40.038,53.437L40.107,50.625L40.175,53.437L40.244,55.313L40.312,54.063L40.38,52.188L40.449,46.875L40.517,46.25L40.586,47.5L40.654,50.313L40.723,53.75L40.791,53.75L40.86,50.938L40.928,44.688L40.996,42.813L41.065,44.688L41.133,49.062L41.202,54.063L41.27,54.688L41.339,54.063L41.407,48.125L41.476,46.563L41.544,47.188L41.612,51.563L41.681,55.313L41.818,54.688L41.886,49.375L41.955,41.875L42.023,40L42.092,39.687L42.16,43.75L42.228,48.125L42.297,46.563L42.365,42.5L42.434,39.062L42.502,37.5L42.571,37.5L42.639,38.438L42.708,40.625L42.776,39.062L42.845,35.938L42.913,38.125L42.981,39.062L43.05,42.188L43.118,44.375L43.187,46.875L43.255,43.125L43.324,39.687L43.392,38.438L43.461,35L43.529,39.375L43.597,40.313L43.666,41.563L43.734,39.687L43.803,39.375L43.871,39.375L43.94,43.125L44.008,50.625L44.077,52.812L44.145,54.375L44.213,51.25L44.282,46.563L44.35,45.625L44.419,50L44.487,56.563L44.556,57.812L44.624,59.375L44.693,57.188L44.761,52.5L44.829,51.563L44.898,55.625L44.966,57.188L45.035,59.063L45.103,59.375L45.172,60.313L45.24,60L45.309,62.5L45.377,65.938L45.445,69.688L45.514,72.5L45.719,72.813L45.788,73.438L45.856,72.188L45.925,71.875L45.993,72.5L46.061,74.688L46.13,74.375L46.201,72.5L46.27,70.938L46.338,66.875L46.407,67.812L46.475,72.188L46.543,74.688L46.612,69.063L46.68,64.063L46.749,65.313L46.817,66.563L46.886,69.688L46.954,74.688L47.023,77.5L47.091,76.25L47.159,75L47.228,76.563L47.296,76.563L47.365,75.625L47.433,75.938L47.502,77.5L47.57,77.813L47.639,77.813L47.707,79.375L47.775,79.688L47.844,80.625L47.912,84.375L47.981,86.563L48.049,84.375L48.118,85.313L48.186,86.25L48.255,87.5L48.323,90.625L48.392,92.187L48.46,92.187L48.528,91.25L48.597,90.938L48.665,96.25L48.734,99.375L48.802,98.125L48.871,97.813L48.939,96.25L49.008,94.063L49.076,92.5L49.144,93.125L49.213,92.187L49.281,90.938L49.35,90.938L49.418,89.375L49.487,85.313L49.555,85.313L49.624,85L49.692,83.438L49.76,82.5L49.829,82.5L50.034,83.125L50.103,82.187L50.171,82.812L50.24,84.688L50.308,81.563L50.513,80.625L50.582,79.688L50.65,78.438L50.719,80.313L50.787,82.187L50.856,82.812L50.924,81.25L50.992,79.688L51.061,79.063L51.129,78.125L51.198,77.188L51.266,77.813L51.335,80.313L51.403,79.688L51.472,75.938L51.54,74.063L51.608,74.063L51.677,74.688L51.745,76.563L51.814,79.688L51.882,77.188L51.951,75.313L52.019,74.063L52.088,71.875L52.156,70.625L52.225,70.313L52.293,71.25L52.361,66.25L52.43,64.063L52.498,64.688L52.567,64.063L52.635,62.812L52.704,64.688L52.772,66.875L52.841,64.063L52.909,64.063L52.977,62.5L53.046,63.75L53.114,63.125L53.183,64.688L53.251,63.125L53.32,60.938L53.388,59.688L53.457,60.313L53.525,61.25L53.593,65.313L53.662,66.875L53.73,67.188L53.799,65.313L53.867,62.812L53.936,63.125L54.004,61.25L54.073,62.5L54.141,65.938L54.209,65L54.278,61.875L54.346,59.063L54.415,60.938L54.483,62.5L54.552,63.438L54.62,65.313L54.689,60.938L54.757,56.875L54.823,55.313L54.891,56.563L54.96,56.25L55.028,57.5L55.096,56.875L55.165,57.188L55.302,54.688L55.37,56.563L55.439,57.188L55.507,57.812L55.576,57.188L55.644,60.313L55.712,57.812L55.781,55L55.849,55.313L55.918,54.063L55.986,53.125L56.055,54.063L56.123,57.812L56.192,57.5L56.26,53.437L56.328,52.188L56.397,50.938L56.465,51.563L56.534,52.812L56.602,50.938L56.671,48.437L56.739,45L56.808,47.188L56.876,47.813L56.944,44.688L57.013,44.688L57.081,45.313L57.15,41.563L57.218,40.625L57.287,41.25L57.355,40.625L57.424,40.625L57.492,41.875L57.56,41.563L57.629,38.75L57.697,36.875L57.766,32.813L57.834,30.312L57.903,27.188L57.971,30.625L58.04,34.687L58.108,35.313L58.176,29.375L58.245,28.125L58.313,29.375L58.382,32.5L58.45,35.625L58.519,37.188L58.587,35.313L58.656,33.438L58.724,33.125L58.792,30L58.861,32.813L58.929,35.938L58.998,39.687L59.066,39.062L59.135,36.25L59.203,36.875L59.272,36.25L59.34,33.75L59.409,39.062L59.477,41.25L59.545,40L59.614,33.438L59.682,31.563L59.751,29.687L59.819,34.375L59.888,39.062L59.956,44.062L60.025,40.625L60.093,36.875L60.161,34.687L60.23,36.25L60.298,36.875L60.367,39.062L60.435,41.25L60.504,39.687L60.572,33.75L60.641,36.563L60.709,39.375L60.777,40.313L60.846,46.875L60.914,45.625L60.983,42.188L61.051,35.938L61.12,34.375L61.188,32.813L61.257,38.125L61.325,40.938L61.393,41.563L61.462,35.938L61.53,34.375L61.599,33.125L61.667,37.813L61.736,43.125L61.804,46.875L61.873,44.062L61.941,41.25L62.009,39.687L62.078,39.375L62.146,40.938L62.215,40L62.283,44.062L62.352,44.688L62.42,42.813L62.489,40.625L62.557,39.062L62.625,43.75L62.694,43.437L62.762,45.625L62.831,45L62.968,42.813L63.036,43.125L63.105,43.125L63.173,46.875L63.242,50.625L63.31,55L63.378,53.437L63.447,50.313L63.515,51.563L63.584,51.25L63.652,50L63.721,54.063L63.789,55.625L63.858,55L63.926,52.812L63.994,56.25L64.063,57.812L64.131,56.25L64.2,59.688L64.268,61.563L64.337,59.375L64.405,54.063L64.474,51.25L64.542,50.938L64.61,50.938L64.679,56.563L64.747,58.125L64.816,59.375L64.884,50.938L64.953,50L65.021,48.437L65.09,49.062L65.158,52.812L65.226,56.25L65.295,54.688L65.363,53.125L65.432,51.25L65.5,50.625L65.569,49.375L65.637,54.375L65.706,57.5L65.774,54.063L65.842,51.563L65.911,49.062L65.979,48.75L66.048,44.062L66.116,44.688L66.185,46.563L66.253,45L66.322,40.625L66.39,40.938L66.458,44.062L66.527,45.313L66.595,48.75L66.664,49.375L66.732,45L66.801,36.563L66.869,33.438L66.938,38.125L67.006,40.938L67.074,44.062L67.143,46.25L67.211,46.25L67.28,40.625L67.348,36.875L67.417,35.313L67.485,34.687L67.554,36.25L67.622,38.75L67.691,34.062L67.759,26.563L67.827,23.438L67.896,22.813L67.964,24.375L68.033,23.438L68.101,29.687L68.17,27.188L68.238,23.75L68.307,18.438L68.375,17.813L68.443,21.563L68.512,23.438L68.58,27.188L68.649,22.5L68.717,19.687L68.786,21.875L68.854,26.875L68.923,27.813L68.991,30.312L69.059,31.25L69.128,29.062L69.196,28.125L69.265,24.375L69.333,24.062L69.402,26.875L69.47,29.687L69.539,32.813L69.607,31.563L69.675,30.625L69.744,32.5L69.812,36.875L69.881,40.938L69.949,42.188L70.018,45L70.086,44.688L70.155,41.25L70.223,44.062L70.291,49.375L70.36,57.5L70.428,62.812L70.497,64.688L70.565,61.875L70.634,60.313L70.702,62.5L70.771,63.125L70.839,63.125L70.907,65.938L70.976,68.125L71.044,65.625L71.116,63.75L71.184,64.375L71.253,62.5L71.321,65.938L71.389,71.563L71.458,73.75L71.526,73.125L71.595,71.25L71.663,72.188L71.732,71.25L71.8,73.75L71.869,77.813L71.937,80.313L72.005,80.625L72.074,79.375L72.142,80.625L72.211,81.563L72.279,80.625L72.348,80.313L72.416,79.375L72.485,78.75L72.553,76.563L72.621,77.5L72.69,76.875L72.758,79.375L72.827,83.125L72.895,84.063L72.964,85L73.032,84.375L73.101,84.688L73.169,85.625L73.238,88.125L73.306,90.938L73.374,89.063L73.443,87.5L73.511,84.688L73.58,84.063L73.648,82.812L73.717,85.625L73.785,88.438L73.854,89.063L73.922,85.625L73.99,84.063L74.059,84.375L74.127,83.125L74.196,85L74.264,87.5L74.333,88.438L74.401,87.5L74.47,87.188L74.606,84.063L74.675,85.313L74.743,86.875L74.812,88.438L74.88,87.813L74.949,87.188L75.017,87.813L75.086,87.813L75.154,88.75L75.222,89.375L75.291,88.75L75.359,83.438L75.428,82.5L75.496,80.625L75.565,82.187L75.633,85.313L75.702,82.812L75.77,84.688L75.838,83.438L75.907,82.5L75.975,79.688L76.044,81.875L76.112,83.438L76.181,84.688L76.249,85L76.386,83.75L76.454,81.25L76.523,80.313L76.591,80L76.66,76.25L76.728,77.188L76.865,76.563L76.934,74.375L77.002,73.75L77.07,73.438L77.139,72.813L77.207,71.563L77.276,69.688L77.344,66.563L77.413,67.812L77.481,67.812L77.55,72.5L77.618,74.063L77.687,75.938L77.755,73.438L77.823,72.5L77.892,74.063L77.96,73.438L78.029,73.125L78.097,74.063L78.166,74.688L78.234,69.688L78.303,67.812L78.371,66.563L78.439,66.563L78.508,67.5L78.576,70L78.713,68.438L78.782,66.25L78.85,64.688L78.919,64.688L78.987,60.938L79.055,63.125L79.124,60.938L79.192,59.063L79.261,55L79.329,50.938L79.398,50.625L79.466,52.812L79.535,53.437L79.603,51.563L79.671,48.125L79.737,43.75L79.805,44.375L79.874,45L79.942,45.625L80.011,48.75L80.079,47.5L80.148,44.375L80.216,40.313L80.285,39.687L80.353,44.062L80.422,43.75L80.49,46.25L80.558,46.25L80.627,44.375L80.695,41.875L80.764,42.813L80.832,44.688L80.901,48.437L80.969,51.563L81.038,50.938L81.174,46.563L81.243,45L81.311,44.375L81.38,45.625L81.448,50L81.517,50.938L81.585,49.062L81.654,46.875L81.722,49.062L81.79,50.625L81.859,53.75L81.927,55.313L81.996,57.5L82.064,56.25L82.133,52.812L82.201,54.063L82.27,54.063L82.338,55.313L82.406,56.563L82.475,57.812L82.543,55.625L82.612,47.813L82.68,47.188L82.749,48.125L82.817,49.375L82.886,51.25L82.954,53.125L83.022,54.688L83.091,50L83.159,52.812L83.228,55.625L83.296,58.437L83.365,61.875L83.433,65L83.502,61.875L83.57,61.25L83.638,61.563L83.707,60L83.775,57.5L83.844,58.125L83.912,58.75L83.981,57.5L84.049,54.688L84.118,54.375L84.186,54.688L84.255,55L84.323,59.063L84.391,60.938L84.46,60.313L84.528,57.188L84.597,57.812L84.665,62.812L84.734,61.875L84.802,63.438L84.871,64.375L84.939,61.25L85.007,58.125L85.076,53.125L85.144,54.688L85.213,55.313L85.281,55.625L85.35,57.5L85.418,52.188L85.487,47.188L85.555,47.188L85.623,49.062L85.692,50L85.76,54.063L85.829,58.437L85.897,55.938L85.966,52.5L86.034,48.75L86.103,46.25L86.171,42.5L86.239,42.5L86.308,44.062L86.376,43.437L86.445,42.5L86.513,42.188L86.582,43.125L86.65,44.062L86.719,46.875L86.787,50L86.855,48.75L86.924,47.813L86.992,49.688L87.061,46.875L87.129,50.625L87.198,53.125L87.266,55L87.335,55.625L87.403,52.5L87.471,56.563L87.54,59.375L87.608,62.187L87.677,59.688L87.745,61.563L87.814,60.625L87.882,57.188L87.951,57.812L88.019,58.75L88.087,62.5L88.156,65.938L88.224,71.25L88.293,69.688L88.361,68.438L88.43,67.188L88.498,65.625L88.567,65L88.635,65.625L88.704,68.125L88.772,65.625L88.84,62.187L88.909,60.313L88.977,60.313L89.046,60.625L89.114,65.625L89.183,67.5L89.251,66.563L89.32,63.125L89.388,60.625L89.456,62.187L89.525,61.25L89.593,64.063L89.662,66.25L89.73,68.125L89.799,63.75L89.867,62.812L89.936,63.438L90.004,65L90.072,67.188L90.141,69.375L90.209,69.688L90.278,67.188L90.346,69.688L90.415,67.812L90.483,67.812L90.552,69.063L90.62,72.813L90.688,73.125L90.757,70.625L90.825,72.188L90.894,74.375L90.962,73.125L91.031,72.813L91.099,73.75L91.168,70.938L91.236,70L91.304,69.688L91.373,70.313L91.441,71.875L91.51,73.438L91.578,75.938L91.647,75.625L91.715,71.875L91.784,67.188L91.852,69.063L91.92,68.75L91.989,71.25L92.057,73.75L92.126,71.563L92.194,69.375L92.263,70.313L92.331,70L92.4,69.375L92.468,72.813L92.537,74.688L92.605,76.563L92.673,73.438L92.742,72.813L92.81,71.875L92.879,71.25L92.947,72.188L93.016,77.5L93.084,75.625L93.153,74.375L93.221,75L93.289,73.438L93.358,72.813L93.426,75L93.495,77.813L93.563,75L93.632,72.5L93.7,70L93.769,70.313L93.837,72.813L93.905,74.375L93.974,75.938L94.042,73.438L94.111,70L94.179,70.938L94.248,70L94.316,66.563L94.385,70.625L94.453,72.813L94.521,72.5L94.59,70.938L94.658,70.938L94.727,70.625L94.795,69.375L94.864,72.813L94.932,73.438L95.001,72.813L95.069,68.75L95.137,71.875L95.206,70.313L95.274,71.875L95.343,73.125L95.411,75L95.48,75L95.548,72.813L95.617,74.375L95.685,76.25L95.753,78.75L95.822,81.563L95.89,84.063L95.959,82.5L96.03,81.563L96.099,83.125L96.167,84.375L96.235,85.938L96.304,89.063L96.372,93.125L96.441,91.562L96.509,89.063L96.578,88.125L96.646,88.125L96.715,86.875L96.783,89.375L96.851,92.5L96.92,91.875L96.988,90.625L97.057,90.938L97.125,92.5L97.194,90.938L97.262,94.375L97.331,95.625L97.399,95.938L97.467,96.25L97.536,96.875L97.604,98.125L97.673,97.188L97.741,97.813L97.81,98.125L97.878,97.813L97.947,96.875L98.015,99.063L98.084,99.688L98.152,98.438L98.22,100.313L98.289,99.688L98.357,97.188L98.426,95.938L98.494,96.563L98.563,97.813L98.631,98.75L98.7,100L98.768,102.188L98.836,99.375L98.905,95.938L98.973,96.25L99.042,96.563L99.11,96.25L99.179,97.813L99.247,99.375L99.316,99.688L99.384,95.938L99.452,96.25L99.521,92.813L99.589,91.875L99.658,92.813L99.726,95L99.795,94.375L99.863,93.438L99.932,90.313L100,88.125L100.068,86.25L100.137,88.125L100.205,90.625L100.274,89.688L100.342,88.75L100.411,88.438L100.479,89.688L100.548,88.125L100.616,88.75L100.684,90L100.753,91.25L100.821,91.25L100.89,92.5L100.958,94.688L101.027,93.75L101.095,95.625L101.164,97.188L101.232,96.563L101.3,95.625L101.369,94.375L101.437,97.813L101.506,98.75L101.574,102.5L101.643,103.125L101.711,100.625L101.78,98.75L101.848,98.438L101.916,99.688L101.985,103.75L102.053,106.25L102.122,106.875L102.19,105.625L102.259,105.313L102.327,104.375L102.396,106.875L102.464,110L102.533,107.188L102.601,106.25L102.669,105L102.738,103.125L102.806,102.188L102.875,101.875L102.943,104.375L103.012,105L103.149,105L103.217,103.438L103.285,102.5L103.354,103.125L103.422,103.75L103.491,104.375L103.559,104.688L103.696,104.688L103.765,104.063L103.833,105L103.901,107.188L103.97,109.375L104.038,110L104.107,109.688L104.175,109.063L104.244,110L104.312,111.25L104.381,112.5L104.449,113.125L104.517,115L104.586,115L104.651,114.375L104.72,116.875L104.788,119.063L104.857,121.25L104.925,122.813L104.994,123.438L105.062,124.063L105.131,123.438L105.199,124.375L105.268,125.625L105.336,126.563L105.404,126.875L105.61,127.5L105.678,128.438L105.747,129.063L105.815,128.438L105.884,128.125L105.952,128.438L106.089,128.438L106.157,128.438L106.294,128.75L106.363,128.438L106.431,128.438L106.5,128.438L106.636,128.438L106.705,128.75L106.773,128.438L106.842,128.125L106.91,127.188L106.979,126.563L107.116,127.188L107.184,127.188L107.321,127.5L107.458,126.875L107.526,126.563L107.595,126.875L107.663,126.563L107.732,125.938L107.8,124.688L108.074,124.688L108.142,124.688L108.279,125.313L108.348,125.625L108.416,125.625L108.484,125.313L108.553,125L108.621,124.063L108.69,123.438L108.758,122.813L108.964,122.5L109.032,121.25L109.101,120.938L109.169,120.625L109.237,119.687L109.374,117.5L109.511,116.875L109.58,116.875L109.648,115.938L109.717,116.25L109.922,115.313L109.99,113.438L110.059,111.563L110.127,111.563L110.196,110L110.264,109.063L110.333,107.813L110.401,107.188L110.469,108.125L110.538,109.688L110.606,109.688L110.675,108.75L110.743,105.938L110.88,103.125L110.949,102.813L111.017,102.5L111.085,103.125L111.154,103.75L111.222,103.125L111.291,102.5L111.359,100.625L111.428,101.875L111.496,102.5L111.565,102.5L111.633,101.875L111.701,102.188L111.77,100.625L111.838,98.75L111.907,99.688L111.975,100.937L112.044,102.188L112.112,102.5L112.181,103.438L112.317,102.188L112.386,104.063L112.454,105L112.523,106.25L112.591,105.938L112.728,104.688L112.797,102.813L112.865,101.562L112.933,102.5L113.002,105.313L113.07,105.625L113.139,103.438L113.207,103.75L113.276,102.813L113.344,103.125L113.413,104.688L113.481,105.313L113.55,104.063L113.618,102.813L113.686,101.562L113.755,100.313L113.823,102.188L113.892,103.75L113.96,105.313L114.029,105L114.166,105.313L114.234,104.375L114.302,104.063L114.371,103.125L114.439,103.75L114.508,104.375L114.576,101.875L114.645,101.562L114.713,101.25L114.782,102.188L114.85,101.875L114.918,101.562L114.987,101.875L115.055,101.562L115.192,101.875L115.261,104.375L115.329,105.625L115.398,103.75L115.466,103.438L115.534,101.875L115.671,99.688L115.74,100.313L115.808,103.438L115.877,102.5L115.945,101.875L116.014,102.5L116.15,100.313L116.219,99.063L116.287,99.063L116.356,100.937L116.424,100.313L116.561,98.75L116.63,99.063L116.698,100.625L116.766,99.063L116.835,100L116.903,103.125L116.972,103.75L117.04,101.562L117.177,100L117.246,100.625L117.314,102.188L117.383,103.75L117.451,104.688L117.519,103.75L117.588,102.188L117.656,102.5L117.725,101.875L117.793,101.562L117.862,102.813L117.93,104.688L117.999,103.75L118.067,104.063L118.135,103.438L118.204,104.688L118.272,105.313L118.341,107.813L118.409,108.125L118.478,107.813L118.546,107.188L118.615,107.5L118.683,109.688L118.751,108.438L118.82,109.063L118.888,109.063L118.957,109.375L119.025,107.5L119.094,105L119.162,105.313L119.231,106.563L119.299,106.875L119.367,104.688L119.436,102.5L119.504,101.25L119.573,101.562L119.641,101.875L119.71,102.813L119.778,104.063L119.847,104.375L119.983,103.125L120.052,100.625L120.12,100.313L120.189,100L120.257,102.813L120.326,101.25L120.394,101.562L120.463,100.625L120.531,101.562L120.599,101.875L120.668,101.875L120.736,101.562L120.805,100L120.873,100L120.945,100.313L121.013,102.813L121.081,101.875L121.15,102.813L121.218,104.063L121.287,104.688L121.355,102.5L121.424,103.438L121.492,105.938L121.561,107.188L121.629,107.5L121.697,107.5L121.834,107.188L121.903,107.188L121.971,107.813L122.04,109.688L122.108,111.563L122.177,113.75L122.245,115L122.313,114.688L122.382,114.063L122.45,115.938L122.519,115L122.587,114.375L122.861,114.063L122.93,114.063L122.998,115L123.066,115.313L123.135,115.313L123.203,115.313L123.272,114.063L123.34,112.813L123.409,112.813L123.477,113.75L123.546,114.063L123.614,115L123.682,116.875L123.751,116.563L123.819,116.25L123.888,117.188L123.956,117.813L124.093,117.813L124.162,118.438L124.23,117.813L124.298,117.813L124.367,116.25L124.435,115.625L124.504,115L124.572,113.438L124.641,112.813L124.709,113.438L124.778,114.375L124.846,115.313L124.914,116.875L124.983,117.188L125.051,117.188L125.12,117.188L125.257,117.813L125.325,118.75L125.394,119.375L125.462,120.313L125.53,120.625L125.667,121.25L125.736,120.938L125.804,120.313L125.873,120.625L125.941,120.625L126.01,120.938L126.078,120.938L126.146,120.938L126.215,119.687L126.283,119.375L126.352,119.063L126.42,118.438L126.489,119.063L126.694,120L126.762,119.063L126.831,118.438L126.899,119.063L126.968,119.375L127.036,117.813L127.105,117.5L127.31,117.5L127.379,115L127.447,113.438L127.515,112.188L127.584,111.875L127.652,109.375L127.721,109.063L127.789,109.375L127.858,107.813L127.926,106.563L127.995,106.25L128.131,105L128.2,105.938L128.268,106.25L128.337,107.188L128.405,105.625L128.474,103.75L128.679,101.875L128.747,100.937L128.816,100.937L128.884,101.562L128.953,100.313L129.021,98.438L129.09,97.188L129.158,96.563L129.227,97.5L129.295,97.5L129.363,96.875L129.432,97.5L129.5,96.25L129.569,94.063L129.637,95.313L129.706,95.938L129.774,96.875L129.843,97.5L129.911,99.375L129.979,99.375L130.045,99.375L130.114,100.625L130.182,101.875L130.25,101.25L130.319,100.937L130.387,100.625L130.456,97.813L130.524,96.875L130.593,98.125L130.661,100.313L130.73,99.688L130.798,101.25L130.866,100.937L131.003,100L131.072,100.937L131.14,103.125L131.209,105L131.277,105.938L131.346,106.563L131.482,105.625L131.551,102.813L131.619,103.125L131.688,104.063L131.756,105.313L131.825,105.313L131.962,104.063L132.03,103.75L132.098,100L132.167,99.063L132.235,100.313L132.304,99.063L132.372,97.5L132.441,96.25L132.509,95L132.578,95.313L132.646,96.563L132.714,99.375L132.783,96.875L132.851,95L132.92,92.5L132.988,91.562L133.057,91.25L133.125,92.5L133.194,94.063L133.262,94.688L133.33,90.313L133.399,89.063L133.467,90L133.536,89.375L133.604,90.938L133.673,92.813L133.741,91.875L133.878,91.25L133.946,88.75L134.015,87.813L134.083,89.375L134.152,89.375L134.22,90.938L134.289,90L134.357,87.5L134.426,87.813L134.494,88.438L134.563,90.313L134.631,92.813L134.699,90.625L134.768,89.063L134.836,87.188L134.905,89.375L134.973,90.625L135.042,92.813L135.11,93.125L135.179,92.813L135.315,90L135.384,88.75L135.452,87.5L135.521,90.625L135.589,91.562L135.658,89.688L135.726,88.125L135.795,85.938L135.863,87.5L135.931,88.125L136,89.063L136.068,92.5L136.137,94.688L136.274,94.063L136.342,93.75L136.411,95L136.479,97.188L136.547,97.188L136.616,98.438L136.684,97.813L136.753,96.25L136.821,94.688L136.89,97.5L136.958,99.063L137.027,99.063L137.095,97.188L137.163,97.5L137.232,95.938L137.3,98.438L137.369,99.063L137.437,101.875L137.506,102.188L137.574,100.313L137.711,99.688L137.779,96.875L137.848,98.438L137.916,100.937L137.985,103.438L138.053,104.063L138.122,102.813L138.19,102.5L138.259,101.25L138.327,100.937L138.464,102.5L138.532,104.063L138.601,103.125L138.669,101.875L138.738,102.5L138.806,101.25L138.875,101.562L138.943,102.813L139.012,104.375L139.08,104.375L139.148,103.125L139.217,101.25L139.285,104.063L139.354,103.75L139.422,105.938L139.491,104.375L139.559,104.063L139.628,102.5L139.696,101.875L139.764,104.063L139.833,105L139.901,107.813L139.97,107.188L140.038,105L140.107,102.5L140.175,101.25L140.244,101.25L140.312,99.375L140.38,99.688L140.449,96.25L140.517,90.313L140.586,89.688L140.654,87.813L140.723,87.813L140.791,86.875L140.86,87.188L140.928,86.875L141.065,86.25L141.133,85L141.202,82.187L141.27,81.25L141.339,83.438L141.407,83.75L141.476,83.438L141.544,80.313L141.612,80.625L141.681,77.5L141.749,76.25L141.818,75L141.886,74.688L141.955,72.813L142.023,70.938L142.092,69.688L142.16,70.625L142.228,69.688L142.297,70.625L142.365,72.5L142.434,74.375L142.502,72.813L142.571,74.375L142.639,77.5L142.708,76.25L142.776,79.688L142.845,78.75L142.913,80.313L142.981,80.313L143.05,79.063L143.118,77.5L143.187,78.75L143.255,81.875L143.324,81.25L143.392,80.938L143.461,79.375L143.529,76.563L143.597,77.5L143.666,79.063L143.734,81.875L143.803,82.812L143.871,83.75L143.94,82.5L144.008,83.75L144.077,84.063L144.145,85.938L144.213,86.563L144.282,88.125L144.35,86.875L144.419,84.375L144.487,83.75L144.556,84.375L144.624,86.563L144.693,89.375L144.829,88.125L144.898,88.125L144.966,89.688L145.035,88.75L145.103,88.438L145.172,91.562L145.24,94.063L145.309,93.75L145.377,93.438L145.445,94.375L145.514,95.938L145.582,96.875L145.651,100.937L145.719,103.125L145.788,103.438L145.856,103.75L145.925,103.75L145.993,103.125L146.061,105L146.13,105.625L146.198,107.5L146.267,106.875L146.338,104.375L146.407,103.438L146.475,104.375L146.543,104.688L146.612,105L146.68,105L146.749,103.125L146.817,100.937L146.886,102.5L146.954,102.188L147.023,102.5L147.091,102.188L147.159,102.5L147.228,101.875L147.296,102.188L147.365,102.188L147.433,103.125L147.502,103.75L147.57,103.75L147.639,104.375L147.707,104.063L147.775,102.813L147.844,101.25L147.912,100.937L147.981,102.188L148.049,104.375L148.118,105.625L148.186,105.938L148.255,105L148.323,104.688L148.392,105.313L148.46,107.5L148.528,108.438L148.597,110.937L148.734,110.312L148.802,110.937L148.871,112.5L148.939,114.063L149.008,115.625L149.213,116.25L149.281,115.313L149.35,117.5L149.418,115L149.487,115.313L149.692,115.313L149.76,115.313L149.829,115L149.897,115L149.966,115.313L150.034,113.438L150.171,112.813L150.24,113.125L150.308,114.063L150.376,114.688L150.445,114.375L150.582,112.813L150.65,111.563L150.719,110.625L150.787,110.312L150.856,110.937L150.924,112.813L151.061,112.188L151.129,111.875L151.198,111.25L151.266,111.875L151.335,111.563L151.403,110.937L151.472,111.563L151.54,110L151.608,108.75L151.677,109.375L151.745,106.563L151.814,109.688L151.882,109.688L151.951,108.125L152.019,108.125L152.088,106.25L152.156,106.875L152.225,105.625L152.293,106.563L152.361,107.5L152.43,105.938L152.498,105L152.567,105L152.635,104.375L152.704,104.375L152.772,105.313L152.841,106.25L152.909,106.563L152.977,104.688L153.046,103.75L153.114,104.688L153.183,102.813L153.251,102.813L153.32,102.188L153.388,103.75L153.525,102.5L153.593,101.25L153.662,102.188L153.73,102.5L153.799,101.562L153.867,103.125L153.936,103.125L154.004,102.188L154.073,101.875L154.141,102.5L154.209,104.688L154.278,104.375L154.346,105L154.415,105L154.483,104.375L154.552,105.313L154.62,105.938L154.689,106.563L154.757,106.563L154.825,105.625L154.894,104.375L154.96,103.438L155.028,103.438L155.096,106.25L155.165,107.5L155.233,103.75L155.302,105L155.439,103.125L155.507,103.125L155.576,102.188L155.644,102.813L155.712,103.125L155.781,102.188L155.918,100.625L155.986,100.937L156.055,100.937L156.123,100L156.192,101.25L156.26,102.813L156.328,101.25L156.397,100L156.465,99.688L156.534,98.125L156.602,97.813L156.671,97.813L156.739,98.75L156.808,97.188L156.876,94.375L156.944,93.75L157.013,94.688L157.081,94.375L157.15,94.688L157.218,92.187L157.287,89.063L157.355,85.625L157.424,88.75L157.492,88.438L157.56,90L157.629,91.25L157.697,90.313L157.766,89.688L157.834,88.125L157.903,86.875L157.971,89.063L158.04,89.688L158.108,90.625L158.176,90L158.245,88.438L158.313,86.875L158.382,87.5L158.45,88.125L158.519,88.125L158.587,87.813L158.656,85.938L158.724,83.438L158.792,81.25L158.861,82.812L158.929,84.063L158.998,86.25L159.066,86.25L159.203,85.625L159.272,84.375L159.34,85.313L159.409,87.5L159.477,90.313L159.545,90L159.614,89.375L159.682,88.125L159.751,86.563L159.819,87.188L159.888,87.5L159.956,89.688L160.025,92.187L160.093,90.625L160.23,90L160.298,87.813L160.367,86.563L160.435,86.875L160.504,88.125L160.572,88.75L160.641,89.063L160.709,88.438L160.777,89.688L160.846,90.625L160.914,92.813L160.983,95.313L161.051,96.25L161.12,95L161.188,93.438L161.257,92.813L161.325,93.438L161.393,95.313L161.462,97.813L161.53,98.75L161.599,97.5L161.667,97.188L161.736,97.813L161.804,96.563L161.873,96.25L161.941,97.188L162.009,99.063L162.078,97.813L162.146,95.938L162.215,96.563L162.283,95.313L162.352,96.563L162.42,100L162.489,100.937L162.557,99.375L162.625,97.188L162.694,95L162.762,95.313L162.831,96.25L162.899,97.813L162.968,97.813L163.036,97.188L163.105,95L163.173,94.688L163.242,93.438L163.31,93.125L163.378,95.313L163.447,94.688L163.515,93.125L163.584,91.875L163.652,93.438L163.721,93.125L163.789,93.75L163.858,96.25L163.926,97.813L163.994,95.938L164.063,94.063L164.131,94.063L164.2,95.938L164.268,96.875L164.337,99.688L164.405,99.063L164.474,96.563L164.542,95L164.61,95.625L164.679,96.875L164.747,99.063L164.816,100L164.884,99.688L164.953,99.063L165.021,97.5L165.09,96.875L165.158,96.875L165.226,100L165.295,101.875L165.363,102.188L165.5,101.25L165.569,100.937L165.637,100.937L165.706,100.625L165.774,100.625L165.842,100.937L165.911,99.688L165.979,96.563L166.048,94.688L166.116,95.625L166.185,95.938L166.253,96.563L166.322,95L166.39,93.75L166.458,91.25L166.527,91.25L166.595,91.875L166.664,94.063L166.732,95.625L166.869,94.375L166.938,92.813L167.006,92.187L167.074,91.25L167.143,89.063L167.211,91.25L167.28,92.187L167.348,94.063L167.417,92.187L167.485,91.25L167.554,92.5L167.622,89.375L167.691,89.688L167.759,90.313L167.827,91.25L167.896,90.313L167.964,88.125L168.033,87.5L168.101,89.375L168.17,91.25L168.238,92.187L168.307,91.25L168.375,89.375L168.443,89.375L168.512,87.813L168.58,87.188L168.649,89.375L168.717,90L168.786,86.563L168.854,82.187L168.923,82.5L168.991,81.563L169.059,79.688L169.128,79.375L169.196,81.875L169.265,80.938L169.333,80L169.402,79.375L169.47,79.375L169.539,80L169.607,80.625L169.675,84.063L169.744,82.187L169.812,81.25L169.881,79.063L169.949,79.688L170.018,81.875L170.086,84.063L170.155,85.938L170.223,85.313L170.291,83.438L170.36,85L170.428,87.813L170.497,89.375L170.565,92.187L170.634,95.313L170.702,92.187L170.771,92.187L170.839,93.125L170.907,94.688L170.976,95.625L171.044,98.125L171.113,100.625L171.181,100L171.253,100.313L171.321,100.937L171.389,99.063L171.458,98.75L171.526,100L171.595,100.313L171.663,99.688L171.732,98.125L171.8,100L171.869,100.313L171.937,102.813L172.005,103.125L172.074,103.438L172.142,101.562L172.211,100.937L172.279,100.937L172.348,102.5L172.416,102.813L172.485,102.5L172.553,102.813L172.621,102.188L172.69,101.875L172.758,104.375L172.827,104.375L172.895,106.875L172.964,109.688L173.032,110.625L173.101,110L173.169,110L173.238,108.75L173.306,107.813L173.374,108.125L173.443,111.25L173.511,111.25L173.58,110L173.648,109.375L173.717,109.063L173.785,110.937L173.854,110.625L173.922,111.563L173.99,111.563L174.059,110.312L174.127,108.75L174.196,108.75L174.264,108.438L174.333,108.438L174.401,109.375L174.47,108.125L174.538,106.563L174.606,105L174.743,104.375L174.812,102.188L174.88,101.25L174.949,101.875L175.017,99.063L175.086,96.563L175.154,94.375L175.222,92.813L175.291,93.438L175.359,95.938L175.428,96.25L175.496,95L175.565,92.5L175.633,91.562L175.702,89.688L175.77,88.75L175.838,89.375L175.907,89.063L175.975,88.125L176.044,86.563L176.112,85.938L176.181,84.688L176.249,86.563L176.318,89.063L176.386,89.688L176.454,90.313L176.523,89.375L176.591,90.938L176.66,90.625L176.728,89.063L176.797,90.625L176.865,92.813L176.934,91.875L177.002,92.5L177.07,93.75L177.139,95.313L177.207,96.875L177.276,97.188L177.344,96.875L177.413,97.188L177.481,96.875L177.55,95L177.618,94.375L177.687,96.25L177.755,100.313L177.823,101.875L177.892,101.25L177.96,99.375L178.029,100.313L178.097,100.625L178.166,99.375L178.234,102.188L178.303,101.562L178.371,100.313L178.439,98.125L178.508,95L178.576,92.5L178.645,92.5L178.713,94.688L178.782,96.25L178.85,94.063L178.919,90.625L178.987,90L179.055,86.875L179.124,87.5L179.192,87.5L179.261,85.938L179.329,86.875L179.398,84.688L179.466,84.688L179.535,84.375L179.603,84.063L179.671,85.625L179.74,85.313L179.808,83.75L179.874,82.812L179.942,83.438L180.011,85.938L180.079,85.625L180.148,85.625L180.216,84.688L180.353,83.75L180.422,81.25L180.49,80L180.558,82.187L180.627,84.688L180.695,87.813L180.764,84.063L180.832,81.25L180.901,79.063L180.969,81.25L181.038,85L181.106,86.563L181.174,88.438L181.243,88.125L181.311,86.875L181.38,87.813L181.448,88.125L181.517,90.313L181.585,90L181.79,87.5L181.859,87.5L181.927,86.875L181.996,85.625L182.064,85.938L182.133,86.875L182.201,85L182.27,83.438L182.338,80.625L182.406,81.25L182.475,83.75L182.543,84.375L182.612,87.5L182.68,86.563L182.749,85.313L182.817,83.438L182.886,81.563L182.954,84.375L183.022,87.188L183.091,90.625L183.159,88.125L183.228,86.563L183.296,85.938L183.365,85L183.433,85L183.502,85.625L183.57,84.063L183.638,82.812L183.707,81.25L183.775,80.313L183.844,82.812L183.912,86.563L183.981,88.125L184.049,85.625L184.186,85.313L184.255,82.812L184.323,82.812L184.391,84.063L184.46,88.438L184.528,89.688L184.597,89.375L184.665,87.188L184.734,86.25L184.802,87.188L184.871,87.188L184.939,89.375L185.007,91.562L185.076,91.875L185.144,90L185.213,88.75L185.281,88.438L185.35,88.438L185.418,90.313L185.487,90.625L185.555,91.875L185.623,92.5L185.692,93.438L185.76,93.75L185.829,95.313L185.897,97.188L185.966,97.5L186.034,96.25L186.103,95.625L186.171,95.625L186.239,95.625L186.308,98.75L186.376,100.313L186.445,98.125L186.513,96.25L186.582,94.375L186.65,93.125L186.719,92.813L186.787,93.438L186.855,95.625L186.924,94.375L186.992,92.813L187.061,90L187.129,89.375L187.198,90.313L187.266,90.625L187.335,91.562L187.403,91.25L187.54,89.063L187.608,90L187.677,88.125L187.745,87.188L187.814,89.375L187.882,90.313L187.951,88.125L188.019,86.25L188.087,85.938L188.156,83.75L188.224,81.875L188.293,84.688L188.361,85L188.43,83.438L188.498,82.187L188.567,82.812L188.635,82.812L188.704,83.125L188.772,83.438L188.84,86.563L188.909,85.625L188.977,82.812L189.046,85.938L189.114,85.625L189.183,85.938L189.251,84.063L189.32,82.812L189.388,82.187L189.456,83.125L189.525,82.5L189.593,81.25L189.662,81.25L189.73,83.125L189.799,83.125L189.867,79.063L189.936,77.188L190.004,75.938L190.072,75.938L190.141,77.5L190.209,78.438L190.278,80L190.346,78.125L190.415,78.438L190.483,76.563L190.552,77.5L190.62,78.438L190.688,80.313L190.757,80.625L190.825,79.063L190.894,75L190.962,74.688L191.031,75.313L191.099,74.688L191.168,77.5L191.236,77.813L191.373,78.125L191.441,76.875L191.51,76.875L191.578,76.875L191.647,78.75L191.715,82.187L191.784,78.75L191.852,76.875L191.92,77.5L191.989,80L192.057,81.563L192.126,85L192.194,86.875L192.263,86.25L192.331,86.25L192.4,86.563L192.468,88.438L192.537,87.5L192.605,90.625L192.673,91.875L192.742,90L192.81,86.563L192.879,86.25L192.947,86.875L193.016,89.375L193.084,91.875L193.153,94.063L193.221,92.5L193.289,89.375L193.358,90L193.426,91.875L193.495,91.25L193.563,91.562L193.632,90.625L193.7,88.75L193.769,85.313L193.837,88.125L193.905,87.813L193.974,87.813L194.042,88.75L194.111,88.75L194.179,87.188L194.248,84.688L194.316,84.375L194.385,84.375L194.453,81.563L194.521,82.5L194.59,83.75L194.658,82.5L194.727,80.313L194.795,78.75L194.864,79.063L194.932,75.938L195.001,77.5L195.069,79.063L195.137,77.5L195.206,75.313L195.274,75L195.343,77.813L195.411,79.063L195.48,80L195.548,84.063L195.617,83.125L195.685,82.812L195.753,82.5L195.822,83.75L195.89,83.125L195.959,84.063L196.027,84.688L196.096,81.563L196.167,79.375L196.235,77.813L196.304,77.813L196.372,76.25L196.441,78.125L196.509,81.563L196.578,80.313L196.646,79.688L196.715,77.188L196.783,78.438L196.851,81.25L196.92,84.688L196.988,88.75L197.057,87.813L197.125,85L197.194,84.688L197.262,83.75L197.331,85.625L197.399,84.688L197.467,83.125L197.536,81.875L197.604,80.313L197.673,80.625L197.741,82.5L197.81,84.688L197.878,86.875L197.947,89.063L198.015,89.063L198.084,88.125L198.152,89.375L198.22,91.562L198.289,94.688L198.357,95.938L198.426,97.188L198.494,95.313L198.563,95L198.631,95.938L198.7,95.938L198.768,100.313L198.836,99.688L198.905,100L198.973,99.375L199.042,97.813L199.11,98.75L199.179,101.25L199.247,103.125L199.316,103.75L199.384,103.75L199.452,101.875L199.589,101.562L199.658,102.188L199.726,102.5L199.795,104.688L199.863,103.125L199.932,100.937L200,98.438L200.068,96.563L200.137,95.938L200.205,96.563L200.274,98.75L200.342,98.125L200.479,96.563L200.548,95.938L200.616,95.625L200.684,96.25L200.753,95.938L200.821,96.563L200.89,97.188L200.958,97.188L201.027,97.188L201.095,96.875L201.164,95.938L201.232,97.813L201.3,99.375L201.369,97.5L201.437,95.625L201.506,96.875L201.574,95.938L201.643,98.125L201.711,100.313L201.78,101.25L201.848,100.625L201.916,98.438L201.985,98.75L202.053,99.063L202.122,98.125L202.19,99.063L202.259,100" stroke="#4c78a8" stroke-width="2"/></g><g class="mark-group role-title"><g transform="translate(100,-17)"><path class="background" aria-hidden="true" d="M0,0h0v0h0Z" pointer-events="none"/><g><g class="mark-text role-title-text" role="graphics-symbol" aria-roledescription="title" aria-label="Title text 'Sidewalk Condition: Blocked - Construction'" pointer-events="none"><text text-anchor="middle" transform="translate(0,10)" font-family="sans-serif" font-size="13px" font-weight="bold" fill="#000" opacity="1">Sidewalk Condition: Blocked - Construction</text></g></g><path class="foreground" aria-hidden="true" d="" pointer-events="none" display="none"/></g></g></g><path class="foreground" aria-hidden="true" d="" display="none"/></g></g></g><defs><clipPath id="clip149"><rect x="0" y="0" width="200" height="150"/></clipPath></defs></svg>