<svg xmlns="http://www.w3.org/2000/svg" xmlns:xlink="http://www.w3.org/1999/xlink" version="1.1" class="marks" width="272" height="194" viewBox="0 0 272 194"><rect width="272" height="194" fill="white"/><g fill="none" stroke-miterlimit="10" transform="translate(36,22)"><g class="mark-group role-frame root" role="graphics-object" aria-roledescription="group mark container"><g transform="translate(0,0)"><path class="background" aria-hidden="true" d="M0,0h200v150h-200Z"/><g><g class="mark-group role-axis" aria-hidden="true"><g transform="translate(0.5,0.5)"><path class="background" aria-hidden="true" d="M0,0h0v0h0Z" pointer-events="none"/><g><g class="mark-rule role-axis-grid" pointer-events="none"><line transform="translate(0,150)" x2="200" y2="0" stroke="#ddd" stroke-width="1" opacity="1"/><line transform="translate(0,108)" x2="200" y2="0" stroke="#ddd" stroke-width="1" opacity="1"/><line transform="translate(0,67)" x2="200" y2="0" stroke="#ddd" stroke-width="1" opacity="1"/><line transform="translate(0,25)" x2="200" y2="0" stroke="#ddd" stroke-width="1" opacity="1"/></g></g><path class="foreground" aria-hidden="true" d="" pointer-events="none" display="none"/></g></g><g class="mark-group role-axis" role="graphics-symbol" aria-roledescription="axis" aria-label="X-axis for a time scale with values from Friday, 01 January 2016, 12:00:00 AM to Monday, 01 January 2024, 12:00:00 AM"><g transform="translate(0.5,150.5)"><path class="background" aria-hidden="true" d="M0,0h0v0h0Z" pointer-events="none"/><g><g class="mark-rule role-axis-tick" pointer-events="none"><line transform="translate(0,0)" x2="0" y2="5" stroke="#888" stroke-width="1" opacity="1"/><line transform="translate(50,0)" x2="0" y2="5" stroke="#888" stroke-width="1" opacity="1"/><line transform="translate(100,0)" x2="0" y2="5" stroke="#888" stroke-width="1" opacity="1"/><line transform="translate(150,0)" x2="0" y2="5" stroke="#888" stroke-width="1" opacity="1"/><line transform="translate(200,0)" x2="0" y2="5" stroke="#888" stroke-width="1" opacity="1"/></g><g class="mark-text role-axis-label" pointer-events="none"><text text-anchor="start" transform="translate(0,15)" font-family="sans-serif" font-size="10px" fill="#000" opacity="1">2016</text><text text-anchor="middle" transform="translate(50.03422313483915,15)" font-family="sans-serif" font-size="10px" fill="#000" opacity="1">2018</text><text text-anchor="middle" transform="translate(100,15)" font-family="sans-serif" font-size="10px" fill="#000" opacity="1">2020</text><text text-anchor="middle" transform="translate(150.03422313483915,15)" font-family="sans-serif" font-size="10px" fill="#000" opacity="1">2022</text><text text-anchor="end" transform="translate(200,15)" font-family="sans-serif" font-size="10px" fill="#000" opacity="1">2024</text></g><g class="mark-rule role-axis-domain" pointer-events="none"><line transform="translate(0,0)" x2="200" y2="0" stroke="#888" stroke-width="1" opacity="1"/></g></g><path class="foreground" aria-hidden="true" d="" pointer-events="none" display="none"/></g></g><g class="mark-group role-axis" role="graphics-symbol" aria-roledescription="axis" aria-label="Y-axis for a linear scale with values from 0 to 18"><g transform="translate(0.5,0.5)"><path class="background" aria-hidden="true" d="M0,0h0v0h0Z" pointer-events="none"/><g><g class="mark-rule role-axis-tick" pointer-events="none"><line transform="translate(0,150)" x2="-5" y2="0" stroke="#888" stroke-opacity="0" stroke-width="1" opacity="1"/><line transform="translate(0,108)" x2="-5" y2="0" stroke="#888" stroke-opacity="0" stroke-width="1" opacity="1"/><line transform="translate(0,67)" x2="-5" y2="0" stroke="#888" stroke-opacity="0" stroke-width="1" opacity="1"/><line transform="translate(0,25)" x2="-5" y2="0" stroke="#888" stroke-opacity="0" stroke-width="1" opacity="1"/></g><g class="mark-text role-axis-label" pointer-events="none"><text text-anchor="end" transform="translate(-7,153)" font-family="sans-serif" font-size="10px" fill="#000" opacity="1">0</text><text text-anchor="end" transform="translate(-7,111.33333333333333)" font-family="sans-serif" font-size="10px" fill="#000" opacity="1">5</text><text text-anchor="end" transform="translate(-7,69.66666666666666)" font-family="sans-serif" font-size="10px" fill="#000" opacity="1">10</text><text text-anchor="end" transform="translate(-7,27.999999999999993)" font-family="sans-serif" font-size="10px" fill="#000" opacity="1">15</text></g></g><path class="foreground" aria-hidden="true" d="" pointer-events="none" display="none"/></g></g><g class="mark-line role-mark marks" clip-path="url(#clip150)" role="graphics-object" aria-roledescription="line mark container"><path aria-label="day: Jun 04, 2010; avg: 1.66666666667" role="graphics-symbol" aria-roledescription="line mark" d="M-139.428,136.111L-139.291,136.389L-139.154,135.278L-139.086,134.444L-139.017,134.167L-138.949,134.167L-138.743,133.056L-138.675,133.056L-138.607,132.778L-138.538,132.778L-138.47,133.056L-138.333,132.778L-138.264,132.778L-138.196,132.222L-138.127,131.944L-138.059,132.222L-137.991,132.222L-137.854,132.222L-137.785,131.944L-137.717,131.944L-137.648,132.222L-137.58,132.222L-137.443,132.222L-137.375,131.944L-137.306,131.944L-137.238,131.667L-137.169,131.944L-137.101,131.944L-137.032,131.667L-136.964,131.667L-136.895,132.5L-136.827,132.778L-136.758,133.611L-136.622,134.722L-136.553,135L-136.416,134.722L-136.279,135.278L-136.142,135L-136.074,135L-136.006,135.278L-135.937,135.278L-135.869,135.556L-135.8,135.556L-135.732,135.556L-135.595,135.556L-135.526,135.278L-135.39,135L-135.253,135L-135.184,134.722L-135.116,133.611L-135.047,133.611L-134.91,133.889L-134.842,133.889L-134.774,133.611L-134.637,133.611L-134.5,133.889L-134.431,133.056L-134.363,132.778L-134.294,133.333L-134.226,132.778L-134.158,131.944L-134.089,130.833L-134.021,130.833L-133.952,130.278L-133.884,129.444L-133.815,129.444L-133.747,129.722L-133.678,129.722L-133.61,130L-133.542,129.444L-133.473,129.444L-133.405,128.056L-133.336,127.5L-133.268,127.222L-133.199,127.778L-133.131,128.056L-133.062,127.778L-132.994,128.056L-132.926,128.333L-132.857,129.167L-132.789,129.167L-132.72,129.167L-132.583,128.611L-132.515,128.333L-132.446,128.056L-132.378,127.778L-132.309,128.611L-132.241,128.611L-132.104,128.333L-132.036,127.5L-131.967,128.333L-131.899,128.889L-131.83,128.889L-131.762,129.444L-131.693,130.278L-131.625,129.444L-131.557,129.167L-131.488,129.722L-131.351,129.722L-131.283,130L-131.214,129.167L-131.146,130.833L-131.077,130.556L-130.941,130.833L-130.872,130L-130.804,130L-130.735,129.722L-130.667,129.444L-130.598,129.722L-130.53,129.722L-130.461,130L-130.393,130L-130.325,130.278L-130.256,131.111L-130.188,131.389L-130.119,130.556L-130.051,130.278L-129.982,130.278L-129.914,129.722L-129.845,131.111L-129.777,131.111L-129.709,131.667L-129.64,131.389L-129.572,131.389L-129.503,130.833L-129.435,131.667L-129.366,131.667L-129.229,131.389L-129.161,131.389L-129.024,131.667L-128.956,131.944L-128.887,131.944L-128.819,132.222L-128.75,132.778L-128.679,133.611L-128.611,133.333L-128.542,133.889L-128.474,133.889L-128.405,133.611L-128.268,133.889L-128.131,133.889L-128.063,133.611L-127.995,133.889L-127.926,133.333L-127.858,132.778L-127.789,133.889L-127.652,133.611L-127.584,133.889L-127.515,134.444L-127.379,134.444L-127.31,134.444L-127.242,133.889L-127.105,134.444L-127.036,133.333L-126.968,133.611L-126.899,133.611L-126.694,134.167L-126.626,133.333L-126.557,133.056L-126.489,132.778L-126.215,132.778L-126.146,132.222L-126.078,132.778L-126.01,132.778L-125.941,132.5L-125.873,131.944L-125.804,132.5L-125.667,131.667L-125.599,131.944L-125.53,131.389L-125.325,130.833L-125.257,129.722L-125.12,128.889L-125.051,129.444L-124.983,130L-124.914,129.722L-124.846,130L-124.778,130L-124.572,130.278L-124.504,130.278L-124.435,130.278L-124.367,128.611L-124.298,127.5L-124.23,127.778L-124.162,127.5L-123.956,127.5L-123.819,127.5L-123.751,128.611L-123.682,128.056L-123.614,127.778L-123.546,128.333L-123.477,128.611L-123.409,128.333L-123.34,128.056L-123.272,128.056L-123.203,128.056L-123.135,127.778L-123.066,128.611L-122.998,128.611L-122.861,129.167L-122.793,129.444L-122.656,130.556L-122.519,130.833L-122.45,130.278L-122.382,129.722L-122.313,129.722L-122.245,130L-122.177,129.722L-122.108,129.444L-122.04,129.167L-121.903,128.889L-121.834,131.111L-121.766,131.667L-121.697,131.667L-121.629,131.667L-121.492,131.944L-121.424,131.944L-121.355,131.944L-121.287,132.778L-121.218,133.056L-121.15,132.778L-121.081,132.222L-121.013,131.944L-120.945,131.944L-120.876,131.944L-120.808,132.778L-120.671,133.056L-120.602,132.222L-120.534,131.944L-120.465,131.944L-120.397,131.667L-120.329,131.944L-120.26,132.222L-120.192,132.5L-120.123,133.056L-120.058,133.333L-119.989,133.333L-119.852,133.056L-119.784,132.5L-119.715,132.5L-119.51,132.222L-119.442,131.944L-119.373,132.222L-119.305,132.5L-119.236,133.056L-119.031,132.5L-118.962,131.944L-118.894,131.667L-118.826,131.667L-118.689,131.944L-118.62,132.222L-118.552,131.944L-118.483,132.5L-118.415,132.778L-118.278,132.778L-118.21,133.056L-118.073,132.778L-118.004,132.778L-117.936,133.056L-117.799,133.056L-117.525,133.333L-117.457,132.222L-117.388,132.5L-117.32,131.667L-117.251,131.389L-117.183,131.389L-117.114,131.389L-117.046,131.667L-116.978,132.222L-116.909,132.222L-116.704,132.778L-116.635,133.056L-116.567,133.056L-116.498,133.056L-116.43,133.056L-116.362,133.611L-116.293,133.333L-116.225,133.611L-116.156,133.333L-116.088,132.778L-116.019,132.5L-115.951,133.611L-115.882,133.611L-115.745,133.333L-115.677,133.333L-115.609,133.056L-115.54,133.333L-115.403,134.167L-115.335,133.611L-115.266,133.611L-115.129,133.056L-115.061,133.889L-114.993,133.056L-114.924,133.611L-114.787,133.611L-114.719,133.333L-114.65,133.056L-114.582,132.778L-114.513,133.056L-114.445,133.333L-114.377,133.056L-114.308,132.778L-114.24,132.778L-114.171,132.778L-114.103,132.778L-114.034,132.5L-113.897,133.333L-113.829,132.778L-113.761,133.056L-113.624,133.333L-113.555,133.611L-113.487,132.778L-113.418,132.778L-113.35,133.056L-113.281,133.056L-113.213,132.5L-113.076,131.667L-113.008,131.111L-112.871,130.278L-112.802,130.278L-112.734,130.556L-112.665,130.833L-112.597,130.556L-112.529,130L-112.46,128.889L-112.392,129.167L-112.255,128.889L-112.186,129.167L-112.118,128.611L-112.049,128.333L-111.981,128.611L-111.844,128.889L-111.776,128.889L-111.639,129.444L-111.502,129.444L-111.433,128.889L-111.365,128.333L-111.023,127.778L-110.954,127.778L-110.817,127.778L-110.749,127.778L-110.68,128.333L-110.612,127.5L-110.544,127.5L-110.338,127.5L-110.27,126.944L-110.201,126.667L-110.133,127.222L-110.064,127.778L-109.996,127.778L-109.928,128.333L-109.859,128.056L-109.791,128.333L-109.722,129.167L-109.654,130.556L-109.585,130.556L-109.448,130.833L-109.38,130.556L-109.312,131.111L-109.175,131.389L-109.038,131.111L-108.696,130.833L-108.559,131.111L-108.422,131.111L-108.353,130.278L-108.285,130.833L-108.216,131.389L-108.148,132.222L-108.08,132.222L-107.874,132.5L-107.806,132.5L-107.737,131.944L-107.669,132.778L-107.6,132.778L-107.463,133.056L-107.395,134.167L-107.327,134.444L-107.121,134.444L-106.984,135L-106.916,135L-106.779,135L-106.711,134.722L-106.642,135.556L-106.437,135.556L-106.368,135.556L-106.3,134.167L-106.231,134.444L-106.163,135L-106.095,134.167L-106.026,133.611L-105.889,133.611L-105.752,133.889L-105.684,133.889L-105.615,133.889L-105.547,133.889L-105.479,133.333L-105.41,133.333L-105.342,133.611L-105.273,133.611L-105.205,133.333L-105.136,133.333L-104.999,134.167L-104.931,134.167L-104.863,133.333L-104.794,133.333L-104.657,133.056L-104.589,132.778L-104.52,133.056L-104.247,133.333L-104.178,133.333L-104.11,133.333L-104.041,133.333L-103.973,133.056L-103.904,133.333L-103.765,133.333L-103.696,134.444L-103.628,134.167L-103.559,134.167L-103.422,135L-103.354,135L-103.285,135.278L-103.217,135.278L-103.149,135.278L-103.08,134.722L-102.943,135.278L-102.875,136.111L-102.806,135.833L-102.738,135.833L-102.669,135.833L-102.601,136.111L-102.464,136.111L-102.396,135.556L-102.327,135.278L-102.259,136.111L-102.122,135.833L-101.985,135.556L-101.916,136.389L-101.848,136.111L-101.78,135.556L-101.711,135L-101.643,134.722L-101.574,134.444L-101.506,134.722L-101.437,134.722L-101.369,134.444L-101.3,134.444L-101.232,134.722L-101.164,134.444L-101.095,134.444L-101.027,135L-100.958,134.722L-100.89,134.722L-100.821,134.722L-100.753,135L-100.684,134.167L-100.616,133.889L-100.548,133.611L-100.342,133.611L-100.274,133.611L-99.863,133.611L-99.726,133.333L-99.658,133.889L-99.589,133.611L-99.452,133.611L-99.316,133.889L-99.11,134.722L-98.973,134.722L-98.905,135L-98.836,135.278L-98.7,135.278L-98.631,135.278L-98.563,136.111L-98.426,136.111L-98.289,135.833L-98.152,135.833L-98.015,135.833L-97.947,135.833L-97.81,135.833L-97.741,135.556L-97.673,135.278L-97.604,135L-97.536,135L-97.467,133.889L-97.399,134.167L-97.262,135.278L-97.194,135.278L-97.125,135.833L-96.988,135.556L-96.851,134.722L-96.783,133.611L-96.715,133.889L-96.646,133.333L-96.509,133.611L-96.441,133.333L-96.372,133.333L-96.304,132.778L-96.099,132.778L-96.03,132.222L-95.893,132.222L-95.756,132.5L-95.688,132.778L-95.619,132.778L-95.551,132.778L-95.414,133.056L-95.346,133.056L-95.277,133.333L-95.143,133.333L-95.075,133.333L-95.006,133.611L-94.938,133.889L-94.869,134.444L-94.801,134.444L-94.732,135.278L-94.664,135.278L-94.596,135L-94.527,134.722L-94.459,134.722L-94.39,134.722L-94.322,135.278L-94.253,136.389L-94.116,136.389L-94.048,136.944L-93.98,137.222L-93.911,137.222L-93.843,136.944L-93.774,137.5L-93.706,137.778L-93.569,138.333L-93.432,137.778L-93.364,137.778L-93.227,137.5L-93.158,136.944L-92.884,136.667L-92.748,136.111L-92.679,136.389L-92.611,135.833L-92.542,135.833L-92.474,135.833L-92.405,134.722L-92.337,134.722L-92.268,134.167L-92.2,133.889L-92.132,133.889L-92.063,133.889L-91.995,133.333L-91.789,133.889L-91.721,133.889L-91.652,134.167L-91.584,134.444L-91.516,134.167L-91.447,133.889L-91.31,133.333L-91.242,133.056L-91.173,133.056L-91.105,133.056L-91.036,133.056L-90.968,133.056L-90.899,133.056L-90.831,133.889L-90.763,133.611L-90.694,133.889L-90.557,134.444L-90.489,134.167L-90.42,133.889L-90.352,133.889L-90.283,134.167L-90.215,134.167L-90.078,134.444L-90.01,135.556L-89.736,135.278L-89.599,135.278L-89.394,135.278L-89.325,135.556L-89.257,135.278L-89.188,135.833L-89.12,135.556L-89.051,134.722L-88.983,134.722L-88.915,134.444L-88.846,134.722L-88.778,134.722L-88.709,135.278L-88.435,135.556L-88.367,135.556L-88.299,135.278L-88.23,135L-88.162,135L-88.093,134.444L-87.956,134.444L-87.888,134.722L-87.751,134.722L-87.614,134.722L-87.546,135.278L-87.477,136.111L-87.409,135.833L-87.272,136.111L-87.203,136.111L-87.135,136.111L-87.067,136.111L-86.998,136.389L-86.861,136.944L-86.793,137.222L-86.724,136.944L-86.656,137.222L-86.587,137.222L-86.519,137.222L-86.45,137.778L-86.382,137.222L-86.314,136.944L-86.245,136.944L-86.177,136.944L-86.108,136.944L-86.04,136.944L-85.971,137.222L-85.698,137.222L-85.629,136.944L-85.561,136.944L-85.424,136.944L-85.355,136.667L-85.287,136.944L-85.218,136.389L-85.082,135.833L-85.013,135.278L-84.945,135.278L-84.876,135L-84.808,134.167L-84.739,134.167L-84.534,133.611L-84.466,133.333L-84.397,133.333L-84.329,133.333L-84.26,133.333L-84.192,133.611L-84.123,133.056L-84.055,133.056L-83.986,133.333L-83.918,133.056L-83.781,132.5L-83.644,132.5L-83.507,132.222L-83.37,132.5L-83.165,131.944L-83.028,130.556L-82.96,130.278L-82.891,130.833L-82.823,131.111L-82.754,131.111L-82.686,131.389L-82.617,131.389L-82.549,131.389L-82.481,131.389L-82.412,131.667L-82.275,131.667L-82.207,131.667L-82.07,131.944L-82.001,132.778L-81.933,132.778L-81.865,132.778L-81.796,133.056L-81.728,133.056L-81.659,132.5L-81.591,132.5L-81.385,132.5L-81.317,133.056L-81.249,133.056L-81.18,132.778L-81.112,133.333L-81.043,134.444L-80.975,134.722L-80.906,134.722L-80.769,134.167L-80.633,134.444L-80.564,135.556L-80.427,135.278L-80.29,135L-80.222,135.278L-80.153,135.278L-80.085,134.722L-80.017,134.722L-79.948,134.444L-79.88,134.722L-79.811,134.722L-79.743,135.278L-79.606,135L-79.469,134.722L-78.645,133.889L-78.508,133.611L-78.371,134.167L-78.303,134.167L-78.166,133.889L-78.097,134.444L-78.029,134.444L-77.96,134.167L-77.892,134.167L-77.823,134.444L-77.755,134.722L-77.687,134.722L-77.618,134.722L-77.55,134.722L-77.413,135L-77.344,135.278L-77.276,135.556L-77.139,135.556L-77.002,135.556L-76.934,135.833L-76.865,135.833L-76.797,135.833L-76.728,136.667L-76.66,136.667L-76.591,136.944L-76.523,137.222L-76.454,137.222L-76.386,136.944L-76.318,136.944L-76.249,137.5L-76.181,138.056L-76.044,138.056L-75.975,138.056L-75.77,138.056L-75.633,138.333L-75.428,138.333L-75.359,138.333L-75.291,138.611L-75.154,138.333L-74.88,138.056L-74.812,138.056L-74.743,137.778L-74.675,137.5L-74.606,137.778L-74.47,137.222L-74.401,137.5L-74.333,137.222L-74.264,137.222L-74.127,137.778L-74.059,137.778L-73.922,137.5L-73.854,137.5L-73.717,137.5L-73.648,137.778L-73.58,137.778L-73.511,137.5L-73.443,137.5L-73.238,137.5L-73.169,137.778L-73.032,137.778L-72.964,137.778L-72.827,137.778L-72.758,137.222L-72.69,136.944L-72.553,136.944L-72.416,136.667L-72.211,136.111L-72.074,136.111L-72.005,136.389L-71.937,136.667L-71.869,136.389L-71.8,136.389L-71.663,136.667L-71.595,136.389L-71.526,136.944L-71.458,136.389L-71.389,136.667L-71.184,136.389L-71.116,136.111L-71.047,135.556L-70.979,135.833L-70.91,135.833L-70.705,135.556L-70.637,135.556L-70.568,134.722L-70.5,135L-70.431,135L-70.294,134.722L-70.229,134.444L-70.16,134.167L-70.092,134.167L-69.886,134.444L-69.818,133.889L-69.75,134.167L-69.681,133.889L-69.544,133.333L-69.476,133.889L-69.407,133.889L-69.339,133.889L-69.27,133.611L-69.202,133.889L-69.065,133.611L-68.997,133.611L-68.928,133.611L-68.791,132.5L-68.723,132.778L-68.654,131.944L-68.586,132.222L-68.518,132.222L-68.381,132.5L-68.244,132.5L-68.175,132.5L-68.107,132.778L-68.038,131.667L-67.902,132.222L-67.765,131.667L-67.696,131.667L-67.628,131.944L-67.559,131.944L-67.491,131.944L-67.422,131.944L-67.354,131.389L-67.286,132.222L-67.217,132.222L-67.149,132.5L-67.08,132.5L-67.012,132.5L-66.943,132.222L-66.875,131.944L-66.738,132.222L-66.601,131.944L-66.533,132.5L-66.464,131.667L-66.396,131.944L-66.327,131.667L-66.259,131.667L-66.19,132.222L-66.122,132.222L-66.054,132.222L-65.985,132.5L-65.917,131.944L-65.848,131.111L-65.711,130.556L-65.643,131.667L-65.574,131.667L-65.506,131.111L-65.369,131.111L-65.301,131.389L-65.232,130.278L-65.164,130L-65.027,130L-64.958,130.556L-64.89,130.833L-64.753,130.556L-64.685,130.556L-64.616,130.556L-64.479,130.278L-64.411,130L-64.342,129.167L-64.274,129.167L-64.137,128.889L-64.069,128.889L-64,129.167L-63.932,128.889L-63.863,130L-63.795,130L-63.726,130L-63.658,130.278L-63.589,130.556L-63.521,130.556L-63.384,130.556L-63.247,131.111L-63.11,131.389L-63.042,131.389L-62.973,130.556L-62.905,131.111L-62.837,130.833L-62.631,130.556L-62.563,130.833L-62.494,131.111L-62.426,130.833L-62.357,130.278L-62.221,129.444L-62.152,129.444L-62.084,128.611L-62.015,129.167L-61.947,129.444L-61.878,129.167L-61.81,130L-61.741,129.444L-61.673,129.444L-61.604,129.444L-61.536,130L-61.468,130L-61.399,130.278L-61.331,130.278L-61.262,130.556L-61.194,130.556L-61.125,130.556L-61.057,130L-60.988,130.278L-60.92,130L-60.852,130L-60.783,129.722L-60.715,130.833L-60.646,131.389L-60.578,131.944L-60.509,131.667L-60.441,132.778L-60.304,131.667L-60.236,131.944L-60.167,131.944L-60.099,132.222L-60.03,131.944L-59.893,132.222L-59.825,131.389L-59.688,130.833L-59.62,131.389L-59.551,131.389L-59.414,131.944L-59.346,132.5L-59.277,132.5L-59.209,131.111L-59.14,131.389L-59.072,131.111L-59.004,130.833L-58.867,130.278L-58.798,130.278L-58.73,130L-58.661,130.278L-58.524,129.722L-58.456,130L-58.388,130.278L-58.319,129.722L-58.182,129.167L-58.114,128.333L-57.977,128.056L-57.908,128.611L-57.84,127.5L-57.772,128.889L-57.703,129.167L-57.635,129.444L-57.498,128.611L-57.429,129.167L-57.224,129.444L-57.155,130.278L-57.087,130.556L-57.019,130.833L-56.882,130.556L-56.813,130L-56.745,130L-56.608,129.722L-56.539,130.833L-56.471,130.278L-56.403,130.556L-56.334,130.833L-56.266,130.556L-56.197,130.278L-56.129,129.722L-56.06,129.444L-55.992,130.278L-55.923,129.722L-55.855,129.167L-55.787,130L-55.718,130.278L-55.65,130.556L-55.581,130L-55.444,130L-55.376,130.556L-55.307,130.556L-55.239,130.278L-55.171,129.444L-55.102,130.833L-55.034,130.556L-54.965,130.833L-54.897,130.833L-54.828,131.111L-54.691,130.556L-54.623,131.111L-54.555,131.389L-54.486,130.556L-54.418,130.556L-54.349,130.556L-54.212,130L-54.144,129.722L-54.075,129.167L-54.007,128.611L-53.936,128.333L-53.867,128.611L-53.799,128.333L-53.73,128.056L-53.662,128.889L-53.593,129.444L-53.525,128.889L-53.457,128.611L-53.388,128.889L-53.251,129.722L-53.183,129.444L-53.114,130L-53.046,130L-52.977,130.278L-52.841,131.389L-52.772,131.111L-52.635,130.556L-52.567,130.278L-52.498,130.556L-52.43,130.278L-52.361,130.833L-52.293,130.556L-52.225,130.833L-52.156,131.667L-52.088,131.667L-52.019,131.944L-51.951,133.056L-51.882,132.5L-51.814,133.056L-51.677,134.444L-51.608,134.722L-51.54,135.278L-51.403,135.833L-51.266,136.111L-51.198,135.278L-51.129,135.278L-51.061,135.278L-50.992,135.556L-50.924,135.833L-50.856,135.556L-50.787,135.556L-50.719,135L-50.65,134.722L-50.582,134.444L-50.376,134.444L-50.308,134.167L-50.171,133.889L-50.103,134.167L-50.034,134.167L-49.897,133.611L-49.829,133.333L-49.76,133.333L-49.692,133.333L-49.624,132.778L-49.555,131.944L-49.487,131.667L-49.418,131.389L-49.35,131.667L-49.281,131.667L-49.213,131.111L-49.144,130.833L-49.076,130.278L-49.008,130.278L-48.939,129.444L-48.871,130L-48.802,130L-48.734,130.278L-48.665,130.278L-48.597,129.444L-48.528,129.722L-48.46,128.611L-48.392,129.167L-48.323,128.333L-48.255,128.333L-48.186,127.778L-48.118,127.222L-48.049,128.333L-47.981,128.056L-47.912,127.778L-47.844,127.778L-47.775,128.056L-47.707,127.5L-47.639,127.222L-47.57,127.5L-47.502,128.611L-47.433,128.889L-47.365,129.167L-47.228,128.333L-47.159,127.778L-46.954,128.333L-46.886,128.333L-46.817,128.056L-46.68,128.333L-46.612,127.778L-46.543,126.667L-46.475,126.111L-46.338,126.111L-46.27,126.111L-46.133,126.111L-45.996,125.556L-45.927,126.944L-45.859,126.389L-45.791,127.222L-45.722,126.944L-45.654,127.222L-45.448,127.222L-45.314,126.389L-45.246,126.389L-45.177,125.833L-45.109,126.111L-45.04,125.833L-44.972,126.667L-44.904,126.389L-44.835,126.111L-44.767,125.833L-44.698,125.278L-44.63,125L-44.561,126.389L-44.493,125.833L-44.424,125.278L-44.356,125.556L-44.288,126.389L-44.219,125.556L-44.151,126.667L-44.082,127.222L-43.945,126.944L-43.877,126.111L-43.808,126.389L-43.74,126.111L-43.672,126.667L-43.603,125.833L-43.535,125.556L-43.466,125.556L-43.398,126.111L-43.329,125.556L-43.261,126.389L-43.192,126.944L-43.124,127.222L-43.056,127.5L-42.987,127.778L-42.919,127.5L-42.85,126.667L-42.782,126.944L-42.713,127.222L-42.645,127.222L-42.508,127.5L-42.303,127.222L-42.234,126.944L-42.166,127.778L-42.097,127.778L-41.96,128.056L-41.892,127.222L-41.824,127.5L-41.755,127.778L-41.687,128.611L-41.618,128.889L-41.481,129.444L-41.413,129.167L-41.344,129.444L-41.276,128.333L-41.208,128.611L-41.139,128.611L-41.071,128.056L-41.002,127.222L-40.934,126.389L-40.865,125.833L-40.797,125.833L-40.728,125.556L-40.66,125L-40.591,124.444L-40.523,123.889L-40.455,124.722L-40.386,124.444L-40.318,123.889L-40.249,123.611L-40.181,123.333L-40.112,123.611L-40.044,123.333L-39.975,122.222L-39.907,122.5L-39.839,121.944L-39.77,122.5L-39.702,122.5L-39.633,121.111L-39.565,120.833L-39.496,121.111L-39.428,121.389L-39.359,120.556L-39.291,120.833L-39.223,120.833L-39.154,120.556L-39.086,121.111L-39.017,121.944L-38.949,122.222L-38.88,123.889L-38.812,124.722L-38.743,124.444L-38.675,123.889L-38.607,125L-38.538,125.556L-38.47,126.389L-38.401,126.111L-38.333,125L-38.264,125.556L-38.127,124.444L-38.059,124.167L-37.991,124.444L-37.922,124.444L-37.854,125.556L-37.785,125.833L-37.58,125.278L-37.511,125.556L-37.443,125L-37.375,126.389L-37.306,126.111L-37.238,125.556L-37.169,125.278L-37.101,126.111L-37.032,126.667L-36.964,127.5L-36.895,128.056L-36.827,128.056L-36.758,127.222L-36.69,126.944L-36.622,126.667L-36.553,126.389L-36.485,126.944L-36.416,127.778L-36.348,126.667L-36.279,126.667L-36.211,126.667L-36.142,126.389L-36.074,127.778L-36.006,127.5L-35.937,128.333L-35.869,128.889L-35.8,128.333L-35.732,128.889L-35.663,128.333L-35.595,128.056L-35.526,128.333L-35.458,127.5L-35.39,127.222L-35.253,125.833L-35.184,126.111L-35.116,126.111L-35.047,124.722L-34.979,124.722L-34.91,124.444L-34.842,123.889L-34.774,122.222L-34.705,121.944L-34.637,122.5L-34.568,123.056L-34.5,122.778L-34.431,121.944L-34.294,121.667L-34.226,120.833L-34.158,120.833L-34.089,120.278L-34.021,119.722L-33.952,119.444L-33.884,118.611L-33.815,118.889L-33.747,119.444L-33.678,118.333L-33.61,118.333L-33.542,117.5L-33.405,118.333L-33.336,116.944L-33.268,117.222L-33.199,116.389L-33.131,116.111L-33.062,116.111L-32.994,115.278L-32.926,114.167L-32.857,115.833L-32.789,115.278L-32.72,114.444L-32.652,115.278L-32.583,116.667L-32.515,116.667L-32.446,116.667L-32.309,116.389L-32.241,115.833L-32.173,116.667L-32.104,114.722L-32.036,114.444L-31.967,115L-31.899,115.556L-31.83,115.278L-31.762,115.833L-31.693,116.389L-31.625,116.111L-31.557,116.111L-31.488,116.667L-31.42,116.389L-31.351,116.944L-31.283,116.111L-31.214,115.833L-31.146,115L-31.077,115.833L-31.009,116.389L-30.941,117.222L-30.872,117.778L-30.804,119.167L-30.735,118.611L-30.667,119.444L-30.598,120.556L-30.53,119.722L-30.461,119.444L-30.393,119.444L-30.325,119.167L-30.256,119.722L-30.188,119.722L-30.119,119.167L-30.051,120.278L-29.982,120.556L-29.914,118.889L-29.845,118.611L-29.777,119.722L-29.709,119.444L-29.64,119.722L-29.572,120L-29.503,120L-29.435,120.556L-29.366,121.111L-29.298,121.111L-29.229,121.111L-29.093,121.667L-29.021,121.667L-28.953,121.667L-28.884,122.778L-28.816,122.222L-28.747,122.222L-28.679,122.5L-28.611,123.056L-28.542,123.056L-28.474,122.778L-28.405,123.333L-28.337,123.889L-28.268,124.444L-28.2,124.722L-28.131,124.167L-28.063,124.444L-27.995,125.278L-27.926,125.556L-27.858,126.389L-27.789,128.611L-27.721,128.611L-27.584,128.611L-27.447,128.889L-27.379,128.333L-27.31,127.778L-27.242,128.056L-27.173,127.778L-27.105,126.944L-27.036,126.944L-26.968,127.222L-26.899,128.611L-26.831,130L-26.762,130.556L-26.694,130.278L-26.626,130.833L-26.557,131.389L-26.489,130L-26.42,129.722L-26.352,128.611L-26.283,128.333L-26.215,127.222L-26.146,127.5L-26.078,126.389L-26.01,126.111L-25.873,126.389L-25.736,126.111L-25.599,125.833L-25.53,126.111L-25.394,126.111L-25.325,125.556L-25.257,125.556L-25.188,125.278L-25.12,124.444L-25.051,125L-24.983,125.833L-24.914,125.278L-24.846,124.444L-24.778,124.722L-24.709,124.722L-24.641,125.278L-24.572,125.278L-24.504,124.722L-24.435,124.167L-24.367,123.333L-24.298,122.778L-24.23,121.389L-24.162,123.056L-24.093,123.611L-24.025,124.167L-23.956,124.167L-23.888,125.556L-23.751,124.444L-23.682,125L-23.614,124.167L-23.477,123.611L-23.409,124.722L-23.34,124.722L-23.272,124.722L-23.135,124.167L-23.066,123.333L-22.998,123.333L-22.93,123.611L-22.793,124.167L-22.724,124.167L-22.656,123.056L-22.587,122.5L-22.519,123.056L-22.45,123.333L-22.382,123.611L-22.313,123.889L-22.245,123.611L-22.177,123.611L-22.108,123.056L-22.04,124.167L-21.971,125L-21.834,125.556L-21.766,124.444L-21.697,123.056L-21.561,123.056L-21.424,120.833L-21.355,119.722L-21.287,119.722L-21.15,119.167L-21.081,118.889L-21.013,118.889L-20.945,115.556L-20.876,115.556L-20.808,114.722L-20.739,114.722L-20.671,115.833L-20.602,115.278L-20.534,111.944L-20.465,110.556L-20.4,108.333L-20.331,109.167L-20.195,108.889L-20.126,109.167L-20.058,109.167L-19.921,106.944L-19.852,106.111L-19.784,104.722L-19.715,104.167L-19.647,104.722L-19.578,104.167L-19.51,103.611L-19.442,103.056L-19.373,102.778L-19.305,103.056L-19.236,102.222L-19.168,103.889L-19.099,103.889L-19.031,104.722L-18.962,104.444L-18.894,105.278L-18.826,105.556L-18.757,106.389L-18.689,105.556L-18.62,106.667L-18.552,105.833L-18.483,105.278L-18.415,105.278L-18.346,108.333L-18.278,110.278L-18.21,112.5L-18.141,111.667L-18.073,111.667L-18.004,110.833L-17.936,109.444L-17.867,109.167L-17.799,109.167L-17.73,110.278L-17.662,110.278L-17.594,110.556L-17.525,110.833L-17.457,111.389L-17.388,110.556L-17.32,111.667L-17.251,112.222L-17.183,112.778L-17.114,113.333L-17.046,113.056L-16.978,112.5L-16.909,113.333L-16.841,113.333L-16.772,113.056L-16.704,113.889L-16.635,114.722L-16.567,113.333L-16.498,113.056L-16.43,113.056L-16.293,113.333L-16.225,110.833L-16.156,110L-16.088,109.167L-16.019,108.889L-15.951,108.333L-15.882,108.611L-15.814,110.556L-15.745,113.056L-15.677,113.889L-15.609,113.333L-15.54,112.778L-15.472,112.5L-15.403,111.667L-15.335,111.667L-15.266,113.611L-15.198,112.778L-15.129,113.056L-15.061,112.222L-14.993,112.222L-14.924,112.222L-14.856,112.778L-14.787,111.667L-14.719,110.833L-14.65,110.556L-14.582,111.667L-14.513,110.833L-14.445,112.222L-14.377,113.611L-14.308,113.889L-14.24,113.889L-14.171,116.667L-14.103,116.111L-14.034,116.667L-13.966,117.5L-13.897,117.222L-13.829,117.222L-13.761,116.389L-13.692,115.833L-13.624,114.722L-13.555,114.444L-13.487,115L-13.418,115.278L-13.35,116.389L-13.281,115.278L-13.213,112.222L-13.145,111.944L-13.076,111.111L-13.008,111.667L-12.939,111.389L-12.871,112.778L-12.802,111.667L-12.734,111.667L-12.665,112.778L-12.597,111.389L-12.529,111.667L-12.46,111.111L-12.392,110.833L-12.323,109.167L-12.255,108.056L-12.186,106.389L-12.118,106.111L-12.049,106.667L-11.981,105.556L-11.913,105.833L-11.844,106.667L-11.776,106.667L-11.707,106.389L-11.639,106.389L-11.57,107.222L-11.502,108.611L-11.433,109.444L-11.365,108.611L-11.296,108.333L-11.228,108.611L-11.16,110.833L-11.091,111.667L-11.023,112.5L-10.954,111.944L-10.886,111.667L-10.817,111.389L-10.749,112.222L-10.68,112.778L-10.612,112.5L-10.544,112.5L-10.475,111.667L-10.407,112.5L-10.338,111.389L-10.27,111.944L-10.201,112.778L-10.133,113.889L-10.064,112.222L-9.996,110.278L-9.928,109.444L-9.859,109.167L-9.791,108.333L-9.722,108.056L-9.654,106.944L-9.585,106.111L-9.517,105L-9.448,105L-9.38,103.611L-9.312,104.444L-9.243,103.889L-9.175,103.056L-9.106,103.333L-9.038,102.5L-8.969,102.222L-8.901,102.5L-8.832,101.389L-8.764,101.389L-8.696,100.278L-8.627,99.722L-8.559,99.722L-8.49,101.389L-8.422,101.667L-8.353,101.667L-8.285,101.944L-8.216,101.944L-8.148,102.222L-8.08,101.944L-8.011,103.333L-7.943,105L-7.874,104.167L-7.806,103.611L-7.737,105L-7.669,106.389L-7.6,107.5L-7.532,107.5L-7.463,108.611L-7.395,106.389L-7.327,106.944L-7.258,105.833L-7.19,106.667L-7.121,107.778L-7.053,107.5L-6.984,108.333L-6.916,106.111L-6.847,106.944L-6.779,108.056L-6.711,107.778L-6.642,108.889L-6.574,108.611L-6.505,106.667L-6.437,106.944L-6.368,107.222L-6.3,106.667L-6.231,107.778L-6.163,108.889L-6.095,107.5L-6.026,107.5L-5.958,106.111L-5.889,104.167L-5.821,105.833L-5.752,105.278L-5.684,105.833L-5.615,104.722L-5.547,105L-5.479,106.389L-5.41,105.278L-5.342,106.944L-5.273,107.222L-5.205,108.611L-5.136,108.333L-5.068,107.5L-4.999,106.389L-4.931,105.556L-4.863,105.556L-4.794,105.278L-4.726,105.278L-4.657,104.167L-4.589,103.611L-4.52,104.167L-4.452,105.556L-4.383,105.278L-4.315,105.278L-4.247,106.111L-4.178,105.278L-4.107,105.556L-4.038,106.389L-3.97,108.056L-3.901,109.167L-3.833,110.278L-3.765,111.944L-3.696,112.222L-3.628,109.167L-3.559,109.444L-3.491,109.167L-3.422,108.889L-3.354,108.056L-3.285,106.667L-3.217,106.111L-3.149,105.278L-3.08,105.556L-3.012,105.833L-2.943,107.5L-2.875,107.5L-2.806,109.167L-2.738,109.167L-2.669,108.611L-2.601,110L-2.533,110.556L-2.464,111.111L-2.396,112.222L-2.327,111.389L-2.259,110.833L-2.19,110.278L-2.122,111.111L-2.053,110.833L-1.985,110.278L-1.916,109.167L-1.848,109.444L-1.78,110.278L-1.711,110L-1.643,110.833L-1.574,113.333L-1.506,112.778L-1.437,113.611L-1.369,113.333L-1.232,115L-1.164,116.111L-1.095,116.389L-1.027,117.222L-0.958,115.833L-0.89,117.222L-0.821,117.222L-0.753,117.778L-0.684,118.056L-0.616,118.056L-0.548,119.722L-0.479,118.889L-0.411,118.611L-0.342,116.944L-0.274,116.111L-0.205,116.667L-0.137,116.111L-0.068,115.833L0,114.444L0.137,113.611L0.205,114.167L0.274,113.611L0.342,113.333L0.411,111.944L0.479,111.389L0.548,111.111L0.616,110.833L0.684,112.222L0.753,111.667L0.821,111.944L0.89,112.222L0.958,112.222L1.027,113.056L1.095,113.056L1.164,113.889L1.232,112.778L1.3,112.5L1.369,111.667L1.437,111.944L1.506,111.111L1.574,108.056L1.643,108.889L1.711,108.333L1.78,110.833L1.848,110.833L1.916,110.833L1.985,110.833L2.053,110.833L2.122,111.111L2.19,110.556L2.259,109.444L2.327,110.278L2.396,110.278L2.464,110.278L2.533,109.722L2.601,109.722L2.669,109.444L2.738,108.056L2.806,107.5L2.875,105.833L2.943,103.889L3.012,100.278L3.08,98.889L3.217,97.5L3.285,98.056L3.354,98.056L3.422,97.222L3.491,97.222L3.559,95.556L3.628,96.389L3.696,98.611L3.765,98.611L3.833,98.333L3.901,97.5L3.97,97.5L4.038,97.778L4.107,98.611L4.175,97.5L4.244,96.944L4.312,97.222L4.381,97.778L4.449,97.778L4.517,98.056L4.586,100L4.654,99.444L4.723,99.444L4.791,99.444L4.86,100.833L4.928,99.444L4.994,100.833L5.062,102.222L5.131,105L5.199,105.556L5.268,106.389L5.336,105.278L5.404,106.389L5.473,105.556L5.541,106.667L5.61,107.222L5.678,107.222L5.747,107.778L5.815,107.5L5.884,108.056L5.952,107.778L6.02,108.333L6.089,107.5L6.157,106.944L6.226,108.611L6.294,110L6.363,109.444L6.431,109.722L6.5,109.167L6.568,109.722L6.636,109.167L6.705,111.111L6.773,110L6.842,109.722L6.91,107.778L6.979,108.889L7.047,107.5L7.116,107.778L7.184,108.056L7.252,108.333L7.321,107.778L7.389,107.5L7.458,106.667L7.526,107.778L7.595,106.667L7.663,106.111L7.732,105.278L7.8,103.333L7.868,101.389L7.937,101.111L8.005,101.389L8.074,99.444L8.142,101.111L8.211,98.889L8.279,96.667L8.348,95L8.416,95.556L8.484,95L8.553,94.167L8.621,93.056L8.69,90.278L8.758,86.111L8.827,85.556L8.895,85L8.964,85.833L9.032,85.556L9.101,85.278L9.169,83.889L9.237,84.444L9.306,83.333L9.374,82.222L9.443,78.611L9.511,77.222L9.58,78.056L9.648,79.167L9.717,79.167L9.785,78.611L9.853,78.333L9.922,78.056L9.99,76.944L10.059,76.667L10.127,76.389L10.196,75.556L10.264,77.5L10.333,78.611L10.401,79.722L10.469,80.278L10.538,80.278L10.606,80.833L10.675,78.333L10.743,80L10.812,81.667L10.88,82.222L10.949,83.611L11.017,83.056L11.085,83.333L11.154,85L11.222,84.167L11.291,83.333L11.359,84.167L11.428,85.278L11.496,88.611L11.565,89.722L11.633,89.444L11.701,89.167L11.77,90L11.838,89.444L11.907,89.444L11.975,92.222L12.044,93.611L12.112,92.778L12.181,94.722L12.249,94.722L12.317,95.556L12.386,95L12.454,95L12.523,94.167L12.591,95L12.66,95.556L12.728,96.944L12.797,98.333L12.865,98.611L12.933,100L13.002,99.722L13.07,99.167L13.139,100L13.207,98.889L13.276,92.222L13.344,93.056L13.413,91.944L13.481,92.778L13.55,93.889L13.618,94.722L13.686,93.889L13.755,93.056L13.823,92.222L13.892,93.611L13.96,95L14.029,94.444L14.097,93.889L14.166,94.722L14.234,94.444L14.302,93.889L14.371,93.611L14.439,95.278L14.508,95.833L14.576,96.389L14.645,96.944L14.713,97.5L14.782,98.889L14.85,97.5L14.918,99.444L14.987,99.167L15.055,98.889L15.124,99.722L15.192,99.444L15.261,99.167L15.329,106.389L15.398,105.556L15.466,106.389L15.534,105.556L15.603,105L15.671,105L15.74,106.389L15.808,106.944L15.877,107.778L15.945,106.389L16.014,105.833L16.082,105L16.15,105.556L16.219,103.889L16.287,103.611L16.356,103.056L16.424,102.222L16.493,100.556L16.561,99.167L16.63,99.167L16.698,99.167L16.766,98.056L16.835,96.389L16.903,96.389L16.972,93.889L17.04,93.889L17.109,93.889L17.177,94.722L17.246,93.611L17.314,93.333L17.383,93.056L17.451,93.611L17.519,93.333L17.588,92.778L17.656,91.944L17.725,88.333L17.793,87.778L17.862,88.056L17.93,88.611L17.999,89.722L18.067,88.889L18.135,89.444L18.204,88.889L18.272,90.833L18.341,91.111L18.409,92.222L18.478,91.944L18.546,91.944L18.615,91.944L18.683,90.556L18.751,88.611L18.82,89.167L18.888,90.278L18.957,90.556L19.025,91.389L19.094,91.111L19.162,90.556L19.231,89.444L19.299,89.167L19.367,89.167L19.436,89.722L19.504,89.722L19.573,90.556L19.641,89.722L19.71,90.556L19.778,92.5L19.847,91.667L19.915,91.389L19.983,90.278L20.052,90.278L20.12,90L20.189,90.278L20.257,90.833L20.326,90.556L20.394,88.889L20.463,88.889L20.531,90.278L20.599,88.889L20.668,87.5L20.736,89.722L20.805,90.556L20.873,90.833L20.942,91.389L21.01,91.944L21.079,91.389L21.147,91.111L21.215,92.222L21.287,93.611L21.355,94.444L21.424,95.833L21.492,97.5L21.561,96.944L21.629,96.111L21.697,97.5L21.766,96.944L21.834,98.056L21.903,98.889L21.971,99.167L22.04,100.556L22.108,99.167L22.177,101.389L22.245,101.389L22.313,101.944L22.382,100.556L22.45,101.944L22.519,102.5L22.587,102.5L22.656,104.722L22.724,107.222L22.793,106.667L22.861,105.833L22.93,106.389L22.998,106.389L23.066,107.222L23.135,108.889L23.203,108.889L23.272,109.167L23.34,106.667L23.409,107.5L23.477,108.056L23.546,108.056L23.614,109.167L23.682,108.611L23.751,109.722L23.819,110.278L23.888,110.278L23.956,110.278L24.025,111.111L24.093,111.667L24.162,113.333L24.23,112.222L24.298,112.222L24.367,111.944L24.435,113.611L24.504,114.444L24.572,111.944L24.641,111.389L24.709,112.5L24.778,110.556L24.846,110.556L24.914,112.222L24.983,110L25.051,110.556L25.12,111.111L25.188,110.278L25.257,110.278L25.325,109.444L25.394,111.389L25.462,110.833L25.53,109.444L25.599,107.778L25.667,105.833L25.736,106.944L25.804,106.111L25.873,106.389L25.941,105.833L26.01,105.833L26.078,104.167L26.146,103.333L26.215,103.889L26.283,103.056L26.352,101.389L26.42,100.833L26.489,101.389L26.557,99.722L26.626,99.444L26.694,100.278L26.762,99.722L26.831,100.833L26.899,101.111L26.968,101.389L27.036,102.778L27.105,100.556L27.173,99.167L27.242,100.278L27.31,100.556L27.379,101.667L27.447,101.111L27.515,101.389L27.584,101.944L27.652,101.389L27.789,103.889L27.858,102.5L27.926,102.222L27.995,102.222L28.063,102.778L28.131,102.778L28.2,103.333L28.268,101.111L28.337,101.389L28.405,103.056L28.474,103.611L28.542,103.889L28.611,103.889L28.679,105.556L28.747,106.944L28.816,107.222L28.884,107.778L28.953,106.944L29.021,105.278L29.09,103.889L29.158,104.167L29.227,106.111L29.295,105.556L29.363,105.278L29.432,105.278L29.5,104.167L29.569,104.444L29.637,103.333L29.706,103.611L29.774,105.556L29.843,104.444L29.908,104.722L30.045,105.833L30.114,106.111L30.182,105.833L30.25,106.389L30.319,106.944L30.387,109.722L30.456,110L30.524,109.722L30.593,110.556L30.661,110.556L30.73,110L30.798,110.278L30.866,110.556L30.935,109.722L31.003,110L31.072,110.278L31.14,111.667L31.209,113.333L31.277,112.778L31.346,110L31.414,109.167L31.482,108.056L31.551,108.056L31.619,107.222L31.688,107.5L31.756,108.056L31.825,107.5L31.893,106.667L31.962,106.389L32.03,108.056L32.098,106.667L32.167,106.111L32.235,104.167L32.304,103.889L32.372,101.667L32.441,101.111L32.509,100.556L32.578,101.389L32.646,100L32.714,99.167L32.783,98.056L32.851,97.222L32.92,97.778L32.988,98.333L33.057,97.778L33.125,98.889L33.194,99.167L33.262,98.056L33.33,98.611L33.399,101.111L33.467,102.778L33.536,102.778L33.604,101.389L33.673,101.944L33.741,102.778L33.81,102.778L33.878,103.056L33.946,102.5L34.015,100.278L34.083,98.611L34.152,98.611L34.22,98.333L34.289,100.278L34.357,98.889L34.426,100.833L34.494,98.333L34.563,98.056L34.631,96.944L34.699,99.167L34.768,99.444L34.836,100L34.905,98.333L34.973,97.222L35.042,94.722L35.11,93.056L35.179,91.111L35.247,90L35.315,88.611L35.384,88.611L35.452,88.333L35.521,87.222L35.589,86.944L35.658,88.056L35.726,88.611L35.795,88.056L35.863,88.333L35.931,84.722L36,83.889L36.068,86.944L36.137,88.056L36.205,85.556L36.274,85.278L36.342,85.556L36.411,84.722L36.479,84.167L36.547,86.389L36.616,86.944L36.684,86.944L36.753,85.278L36.821,85.556L36.89,86.944L36.958,89.444L37.027,91.111L37.095,91.667L37.163,90.278L37.232,92.778L37.3,93.056L37.369,94.444L37.437,94.722L37.506,93.889L37.574,95.278L37.643,96.667L37.711,96.111L37.779,97.222L37.848,96.389L37.916,95.278L37.985,98.611L38.053,100.278L38.122,100.278L38.19,101.111L38.259,103.611L38.327,103.889L38.396,104.167L38.464,105L38.532,105.833L38.601,105.833L38.669,106.389L38.738,106.944L38.806,106.944L38.875,107.778L38.943,106.667L39.012,105.833L39.08,104.722L39.148,106.111L39.217,109.444L39.285,109.167L39.354,108.889L39.422,109.444L39.491,110L39.559,111.389L39.628,111.667L39.696,110.556L39.764,110.833L39.833,108.889L39.901,108.889L39.97,110.556L40.038,111.111L40.107,110.833L40.175,109.722L40.244,108.611L40.312,108.889L40.38,108.611L40.449,106.944L40.517,106.667L40.586,106.667L40.654,106.667L40.723,105L40.791,103.611L40.86,103.611L40.928,102.222L40.996,101.944L41.065,102.222L41.133,102.778L41.202,101.389L41.27,101.389L41.339,100.278L41.407,100.556L41.476,99.444L41.544,97.5L41.612,96.944L41.681,96.944L41.749,95.833L41.818,96.944L41.886,97.222L41.955,97.5L42.023,95.833L42.092,95.278L42.16,93.889L42.228,94.722L42.297,95.556L42.365,95L42.434,95.278L42.502,96.667L42.571,96.944L42.639,96.111L42.708,96.111L42.776,96.667L42.845,98.056L42.913,99.722L42.981,100.556L43.05,101.389L43.118,101.667L43.187,100.833L43.255,101.667L43.324,99.722L43.392,101.389L43.461,101.944L43.529,101.667L43.597,101.944L43.666,102.5L43.734,102.5L43.803,105L43.871,104.167L43.94,104.167L44.008,102.5L44.077,104.167L44.145,103.889L44.213,105.833L44.282,105.556L44.35,103.889L44.419,105.278L44.487,106.111L44.556,105.278L44.624,106.111L44.693,106.111L44.761,106.667L44.829,105.278L44.898,104.167L44.966,103.056L45.035,102.222L45.103,100L45.172,99.444L45.24,99.722L45.309,99.722L45.377,101.944L45.445,101.111L45.514,100.278L45.582,101.389L45.651,102.222L45.719,102.222L45.788,102.222L45.856,101.667L45.925,102.222L45.993,101.944L46.061,103.056L46.13,102.778L46.201,103.056L46.27,102.778L46.338,102.222L46.407,103.611L46.475,104.167L46.543,103.056L46.612,104.444L46.68,104.722L46.749,105L46.817,105L46.886,107.222L46.954,108.056L47.023,108.056L47.091,109.722L47.159,110.833L47.228,110.556L47.296,111.389L47.365,112.5L47.433,111.667L47.502,110.556L47.57,111.944L47.639,112.222L47.707,112.778L47.775,111.944L47.844,110.556L47.912,111.389L47.981,110.556L48.049,110.833L48.118,111.944L48.186,112.5L48.255,112.778L48.323,113.056L48.392,112.5L48.46,112.5L48.528,111.111L48.597,111.111L48.665,110.278L48.734,111.111L48.802,111.389L48.871,111.111L48.939,109.444L49.008,110.278L49.076,110.556L49.144,110.278L49.213,110.833L49.281,110.556L49.35,110.556L49.418,109.444L49.487,108.889L49.555,110.278L49.624,109.722L49.692,109.722L49.76,109.167L49.829,106.389L49.897,105.556L49.966,105.278L50.034,105.833L50.103,107.222L50.171,106.944L50.24,105L50.308,105.556L50.376,105.833L50.445,108.056L50.513,108.333L50.582,108.333L50.65,108.889L50.719,108.889L50.787,107.5L50.856,106.389L50.924,106.389L50.992,105.556L51.061,103.611L51.129,103.056L51.198,102.778L51.266,101.111L51.335,101.389L51.403,101.667L51.472,101.944L51.54,101.389L51.608,100.556L51.677,100L51.745,99.167L51.814,97.222L51.882,100L51.951,99.722L52.019,97.222L52.088,95L52.156,94.444L52.225,93.333L52.293,91.667L52.361,89.444L52.43,87.778L52.498,86.389L52.567,85.556L52.635,85L52.704,82.778L52.772,80.278L52.841,79.722L52.909,80.556L52.977,80.278L53.046,81.667L53.114,83.056L53.183,84.444L53.251,83.889L53.32,86.111L53.388,86.944L53.457,86.944L53.525,88.056L53.593,87.778L53.662,88.333L53.73,88.056L53.799,88.889L53.867,89.722L53.936,90.278L54.004,92.778L54.073,95L54.141,97.778L54.209,98.333L54.278,100.278L54.346,103.889L54.415,105.556L54.483,106.944L54.552,107.5L54.62,107.222L54.689,108.333L54.757,110.833L54.823,113.056L54.891,113.611L54.96,113.333L55.028,112.778L55.096,113.056L55.165,113.611L55.233,112.778L55.302,113.333L55.37,112.222L55.439,111.389L55.507,110.833L55.576,108.889L55.644,108.889L55.712,108.333L55.781,109.722L55.849,107.5L55.918,107.222L55.986,107.222L56.055,105.833L56.123,105.278L56.192,103.889L56.26,102.778L56.328,100.833L56.397,99.167L56.465,98.889L56.534,97.778L56.602,96.389L56.671,96.111L56.739,95.278L56.808,94.167L56.876,94.722L56.944,95L57.013,95L57.081,95L57.15,93.889L57.218,92.778L57.287,91.944L57.355,91.944L57.492,92.778L57.56,92.222L57.629,91.389L57.697,92.222L57.766,93.056L57.834,92.222L57.903,90L57.971,90.556L58.04,92.778L58.108,91.111L58.176,90.278L58.245,88.889L58.313,89.444L58.382,88.611L58.45,88.889L58.519,87.222L58.587,86.111L58.656,86.111L58.724,84.722L58.792,85.278L58.861,85.556L58.929,85.833L58.998,84.444L59.066,81.944L59.135,80.278L59.203,80.556L59.272,78.889L59.34,78.333L59.409,78.333L59.477,77.5L59.545,75L59.614,75.278L59.682,75.833L59.751,75L59.819,74.167L59.888,75.833L59.956,77.222L60.025,78.333L60.093,76.111L60.161,76.944L60.23,78.056L60.298,79.444L60.367,79.167L60.435,78.611L60.504,77.222L60.572,78.889L60.641,80.556L60.709,80.556L60.777,82.778L60.846,82.778L60.914,82.5L60.983,82.5L61.051,83.056L61.12,85.556L61.188,86.389L61.257,86.944L61.325,89.722L61.393,90.556L61.462,89.722L61.53,89.722L61.599,90.556L61.667,90.833L61.736,89.722L61.804,89.722L61.873,90.833L61.941,89.167L62.009,88.611L62.078,88.333L62.146,88.611L62.215,88.056L62.283,89.722L62.352,89.444L62.42,90.278L62.489,92.222L62.557,93.889L62.625,95.833L62.694,93.056L62.762,91.944L62.831,89.167L62.899,88.611L62.968,89.722L63.036,90.556L63.105,90.833L63.173,91.667L63.242,93.611L63.378,91.944L63.447,92.5L63.515,92.778L63.584,94.167L63.652,95L63.721,94.167L63.789,93.333L63.858,93.611L63.926,95L63.994,95.278L64.063,97.222L64.131,96.111L64.2,96.667L64.268,97.778L64.337,99.167L64.405,97.222L64.474,97.778L64.542,96.667L64.61,96.944L64.679,96.944L64.747,95.556L64.816,99.167L64.884,100L64.953,102.5L65.021,103.611L65.09,102.5L65.158,101.389L65.226,102.222L65.295,101.944L65.363,100.833L65.432,101.389L65.5,99.444L65.569,99.722L65.637,99.722L65.706,99.444L65.774,102.222L65.842,102.778L65.911,103.056L65.979,101.944L66.048,102.5L66.116,99.722L66.185,100.556L66.253,101.389L66.322,100L66.39,99.444L66.458,101.389L66.527,100.556L66.595,100L66.664,99.444L66.732,100L66.801,100L66.869,98.056L66.938,99.444L67.006,99.444L67.074,99.167L67.143,100L67.211,101.111L67.28,98.889L67.417,89.722L67.485,88.056L67.554,88.889L67.622,88.889L67.691,85.833L67.759,83.333L67.827,79.444L67.896,78.056L67.964,78.333L68.033,79.444L68.101,76.667L68.17,74.722L68.238,75L68.307,74.167L68.375,72.222L68.443,73.889L68.512,74.167L68.58,68.333L68.649,65L68.717,59.167L68.786,56.389L68.854,43.056L68.923,44.444L68.991,45.278L69.059,41.111L69.128,36.111L69.196,28.056L69.265,23.611L69.333,20.278L69.402,21.111L69.47,30L69.539,32.222L69.675,31.944L69.744,33.056L69.812,33.889L69.881,34.722L69.949,39.722L70.018,41.111L70.086,35.278L70.155,35L70.223,35.556L70.291,37.778L70.36,40L70.428,40.556L70.497,41.389L70.565,39.167L70.634,36.667L70.702,42.222L70.771,41.944L70.839,49.722L70.907,49.444L70.976,62.5L71.044,61.111L71.116,52.5L71.184,56.111L71.253,61.111L71.321,68.611L71.389,71.111L71.458,73.889L71.526,73.889L71.595,73.333L71.663,72.5L71.732,66.944L71.8,67.5L71.869,69.167L71.937,70.833L72.005,66.944L72.074,64.167L72.142,61.111L72.211,60.556L72.279,61.944L72.348,60.556L72.416,60.278L72.485,61.111L72.553,61.667L72.621,60.833L72.69,62.778L72.758,61.944L72.827,66.111L72.895,65.556L72.964,68.611L73.032,69.167L73.101,66.667L73.169,74.444L73.238,75.278L73.306,75.556L73.374,76.111L73.443,77.5L73.511,74.167L73.58,73.889L73.648,71.944L73.717,72.778L73.785,77.5L73.854,78.056L73.922,77.222L73.99,73.611L74.059,72.222L74.127,74.167L74.196,83.611L74.264,84.167L74.333,85.278L74.401,86.667L74.47,87.5L74.538,85.556L74.606,84.444L74.675,87.222L74.743,88.056L74.812,88.889L74.88,88.333L74.949,88.056L75.017,81.944L75.086,81.389L75.154,84.167L75.222,85.556L75.291,85.833L75.359,84.722L75.428,82.222L75.496,81.111L75.565,83.889L75.633,84.722L75.702,87.222L75.77,86.667L75.838,88.333L75.907,87.5L75.975,86.944L76.044,91.667L76.112,95L76.181,95.278L76.249,95.833L76.318,95L76.386,92.5L76.454,85.278L76.523,81.944L76.591,84.722L76.66,84.167L76.728,84.167L76.797,83.333L76.865,79.167L76.934,68.611L77.002,68.333L77.07,75.278L77.139,75.556L77.207,74.167L77.276,73.056L77.344,64.444L77.413,62.222L77.481,59.444L77.55,54.722L77.618,53.611L77.687,52.778L77.755,47.222L77.823,41.111L77.892,33.889L77.96,28.611L78.029,30.556L78.097,29.444L78.166,28.333L78.234,28.333L78.303,23.333L78.371,17.5L78.439,18.889L78.508,25.278L78.576,28.056L78.645,27.222L78.713,21.389L78.782,15.833L78.85,13.056L78.919,11.389L78.987,18.333L79.055,17.5L79.124,16.389L79.192,13.056L79.261,12.5L79.329,10L79.398,14.722L79.466,18.333L79.535,21.667L79.603,28.056L79.671,27.5L79.737,25L79.805,28.611L79.874,31.389L79.942,38.333L80.011,41.944L80.079,40.556L80.148,33.889L80.216,33.056L80.285,32.778L80.353,37.222L80.422,42.778L80.49,44.444L80.558,43.056L80.627,42.778L80.695,43.611L80.764,51.667L80.832,57.5L80.901,61.389L80.969,65.833L81.038,70.278L81.106,68.611L81.174,67.778L81.243,63.889L81.311,61.944L81.38,58.056L81.448,60.556L81.517,60.833L81.585,58.889L81.654,56.944L81.722,53.889L81.79,54.722L81.859,54.722L81.927,57.5L81.996,57.222L82.064,52.778L82.133,46.944L82.201,48.333L82.27,50L82.338,49.722L82.406,49.167L82.475,49.722L82.543,49.167L82.612,46.667L82.68,45.833L82.749,45.278L82.817,40L82.886,39.167L82.954,37.5L83.022,36.667L83.091,34.722L83.159,36.111L83.228,37.5L83.296,39.722L83.365,42.222L83.433,48.333L83.502,46.944L83.57,43.333L83.638,45.556L83.707,43.056L83.775,46.111L83.844,48.889L83.912,50.278L83.981,49.444L84.049,45L84.118,49.444L84.186,52.222L84.255,55L84.323,54.444L84.391,54.444L84.46,52.778L84.528,47.5L84.597,47.5L84.665,52.222L84.734,52.778L84.802,53.889L84.871,58.611L84.939,54.444L85.007,54.444L85.076,55.556L85.144,57.222L85.213,59.444L85.281,60.278L85.35,65.556L85.418,66.667L85.487,66.111L85.555,68.889L85.623,72.222L85.692,74.722L85.76,79.167L85.829,81.944L85.897,82.222L85.966,81.389L86.034,83.056L86.103,86.667L86.171,88.611L86.239,92.5L86.308,94.722L86.376,95.278L86.445,96.667L86.513,98.611L86.582,103.333L86.65,103.333L86.719,103.611L86.787,102.778L86.855,102.5L86.924,100.833L86.992,105.556L87.061,106.944L87.129,108.333L87.198,108.611L87.266,108.056L87.335,107.222L87.403,107.5L87.471,106.944L87.54,109.444L87.608,108.889L87.677,109.167L87.745,108.056L87.814,107.778L87.882,106.389L87.951,105.278L88.019,105.556L88.087,105.278L88.156,106.389L88.224,106.111L88.293,106.944L88.361,107.222L88.43,108.056L88.498,107.5L88.567,107.222L88.635,107.5L88.704,108.611L88.772,108.611L88.84,109.722L88.909,108.333L88.977,110L89.046,110.278L89.114,110.278L89.183,108.889L89.251,109.167L89.32,108.889L89.388,108.889L89.456,107.778L89.525,108.611L89.593,106.667L89.662,106.389L89.73,105L89.799,106.111L89.867,106.111L89.936,105L90.004,104.722L90.072,105.278L90.141,105.833L90.209,98.333L90.278,89.167L90.346,80.556L90.415,76.111L90.483,70L90.552,69.722L90.62,69.167L90.688,63.611L90.757,57.5L90.825,50.556L90.894,45.278L90.962,45L91.031,44.444L91.099,42.222L91.168,35L91.236,29.167L91.304,22.778L91.373,15.833L91.441,15.278L91.51,15.278L91.578,15L91.647,16.389L91.715,15.556L91.784,14.444L91.852,10.833L91.92,5.833L91.989,8.889L92.057,8.056L92.126,6.667L92.194,6.389L92.263,13.333L92.331,19.722L92.4,27.222L92.468,32.5L92.537,38.889L92.605,39.444L92.673,41.111L92.742,48.056L92.81,53.889L92.879,60L92.947,66.111L93.016,66.667L93.084,67.5L93.153,69.722L93.221,75L93.289,78.333L93.358,82.222L93.426,90.556L93.495,91.389L93.563,91.667L93.632,90.833L93.7,89.167L93.769,88.056L93.837,89.167L93.905,92.5L93.974,97.5L94.042,96.111L94.111,92.222L94.179,93.611L94.248,91.944L94.316,93.056L94.385,95.556L94.453,95.833L94.521,93.611L94.59,92.222L94.658,90.556L94.727,89.722L94.795,85.278L94.864,85.278L94.932,85.556L95.001,82.778L95.069,81.667L95.137,78.889L95.206,76.667L95.274,78.333L95.343,80.833L95.411,83.333L95.48,81.667L95.548,81.111L95.617,80L95.685,80.556L95.753,82.222L95.822,83.333L95.89,82.778L95.959,81.389L96.03,80.556L96.099,80.556L96.167,85L96.235,84.722L96.304,85L96.372,84.444L96.441,85.833L96.509,86.389L96.578,88.056L96.646,89.167L96.715,90.556L96.783,91.389L96.851,95.556L96.92,95.556L96.988,94.444L97.057,97.5L97.125,99.722L97.194,103.056L97.262,105.278L97.331,103.611L97.399,103.333L97.467,103.333L97.536,104.444L97.604,105.278L97.673,106.667L97.741,108.056L97.81,107.5L97.878,108.056L97.947,110.556L98.015,112.5L98.084,113.333L98.152,113.889L98.22,115.556L98.289,116.667L98.357,117.778L98.426,116.944L98.494,116.667L98.563,116.111L98.631,115.833L98.7,116.111L98.768,116.389L98.836,115L98.905,114.167L98.973,114.722L99.042,116.111L99.11,115.278L99.179,115.278L99.247,114.722L99.316,115L99.384,116.111L99.452,116.389L99.521,115.833L99.589,116.111L99.658,114.167L99.726,114.167L99.795,113.056L99.863,112.778L99.932,111.944L100,111.111L100.068,110.556L100.137,110.278L100.205,110.556L100.274,110L100.342,109.167L100.411,109.167L100.479,110L100.548,109.167L100.616,109.167L100.684,109.722L100.753,110.556L100.821,110.278L100.89,110.556L100.958,111.389L101.027,111.389L101.095,110.556L101.164,110.833L101.232,109.722L101.3,109.444L101.369,108.889L101.437,109.722L101.506,110.556L101.574,110.556L101.643,109.722L101.711,110L101.78,110L101.848,109.722L101.916,110.833L101.985,112.778L102.053,112.5L102.122,110.833L102.19,108.611L102.259,107.778L102.327,108.056L102.396,107.5L102.464,107.222L102.533,107.222L102.601,107.5L102.669,107.222L102.738,105.556L102.806,104.167L102.875,103.333L102.943,103.056L103.012,103.611L103.08,102.778L103.149,103.889L103.217,104.444L103.285,105L103.354,105.833L103.422,105.833L103.491,106.389L103.559,106.944L103.628,108.333L103.696,108.889L103.765,110.833L103.833,111.667L103.901,113.333L103.97,113.333L104.038,113.333L104.107,114.444L104.175,116.111L104.244,119.722L104.312,120.278L104.381,120.833L104.449,122.778L104.517,123.889L104.586,124.444L104.651,125L104.72,126.389L104.788,128.056L104.857,129.444L104.925,130.833L104.994,132.5L105.062,132.5L105.131,133.611L105.268,133.056L105.336,132.5L105.404,132.222L105.473,131.667L105.541,131.389L105.61,131.111L105.747,130L105.815,129.167L105.952,129.722L106.02,129.167L106.089,128.611L106.157,128.056L106.226,128.333L106.294,128.333L106.363,128.056L106.431,128.611L106.568,128.056L106.705,127.5L106.773,127.222L106.842,126.667L106.91,126.111L107.116,125.556L107.252,125.556L107.321,123.611L107.389,124.167L107.458,123.333L107.526,123.056L107.732,121.111L107.8,120.556L107.937,120L108.005,119.167L108.074,119.167L108.142,119.722L108.279,119.167L108.348,119.722L108.416,120.278L108.484,121.111L108.553,121.389L108.621,119.722L108.69,120.278L108.758,120.833L108.827,120.556L108.895,120.556L108.964,119.722L109.032,119.722L109.101,119.444L109.169,119.722L109.237,121.389L109.306,122.222L109.374,122.222L109.443,121.389L109.511,121.111L109.58,120.833L109.648,122.778L109.717,120.556L109.785,120.556L109.853,119.444L109.922,120.833L110.059,120.833L110.127,121.111L110.196,122.5L110.264,123.056L110.333,123.611L110.401,124.722L110.538,125L110.606,124.722L110.812,124.722L110.88,125.278L110.949,125.556L111.017,125.278L111.154,125.278L111.222,125.833L111.291,125.833L111.359,126.667L111.428,126.111L111.496,126.111L111.565,126.389L111.633,125L111.701,124.444L111.77,125L111.838,125L111.907,125L111.975,125.278L112.044,124.722L112.112,126.111L112.181,126.667L112.249,128.333L112.317,128.889L112.386,129.444L112.454,129.444L112.523,128.889L112.591,128.056L112.66,128.056L112.728,128.056L112.797,127.5L112.865,127.5L112.933,127.5L113.002,127.222L113.07,127.778L113.139,127.222L113.207,126.667L113.344,127.222L113.413,126.944L113.481,126.944L113.55,127.222L113.618,127.222L113.686,126.111L113.755,125.556L113.823,125.833L113.892,125L113.96,125.833L114.029,126.389L114.097,126.389L114.166,126.389L114.234,127.222L114.302,126.944L114.371,125.556L114.439,125.556L114.508,125.278L114.576,123.889L114.645,123.056L114.713,122.778L114.782,122.778L114.85,121.389L114.918,121.944L114.987,121.389L115.055,120.278L115.124,120.556L115.192,119.722L115.261,118.611L115.329,116.111L115.398,112.5L115.466,108.889L115.534,107.222L115.671,106.389L115.74,105.833L115.808,106.667L115.877,107.778L115.945,106.944L116.014,105.556L116.082,103.611L116.15,102.5L116.287,98.056L116.356,98.056L116.424,97.222L116.493,98.056L116.561,97.778L116.63,94.444L116.698,94.167L116.766,94.722L116.835,95.278L116.903,96.389L116.972,94.167L117.04,93.611L117.109,92.222L117.177,93.056L117.246,93.889L117.314,93.611L117.383,94.444L117.519,96.389L117.588,97.778L117.656,100.278L117.725,103.333L117.793,102.778L117.862,103.333L117.93,102.222L117.999,100L118.067,98.333L118.135,98.611L118.204,99.444L118.272,101.389L118.341,101.944L118.409,105.278L118.478,104.722L118.546,100.278L118.615,96.111L118.683,95.556L118.751,98.056L118.82,98.056L118.888,97.778L118.957,97.778L119.025,93.889L119.094,90.556L119.162,87.5L119.231,84.444L119.299,83.889L119.367,81.667L119.436,75.556L119.504,73.333L119.573,72.222L119.641,72.222L119.71,69.167L119.778,68.611L119.847,69.167L119.915,69.722L119.983,70.278L120.052,68.333L120.12,68.889L120.189,68.889L120.257,69.444L120.326,68.611L120.394,64.167L120.463,60L120.531,56.944L120.599,61.944L120.668,64.444L120.736,66.111L120.805,64.722L120.873,65.278L120.945,65L121.013,62.5L121.081,63.333L121.15,64.722L121.218,68.611L121.287,73.056L121.355,70L121.424,70.556L121.492,73.889L121.561,75.278L121.629,76.389L121.697,77.5L121.766,80.556L121.834,81.389L121.903,82.5L121.971,81.111L122.04,82.5L122.108,85.556L122.177,86.389L122.245,86.667L122.313,85.833L122.382,86.389L122.45,90.556L122.519,93.611L122.587,95.833L122.656,95.833L122.724,97.222L122.793,96.667L122.861,97.778L122.93,96.944L122.998,96.667L123.066,98.889L123.135,101.667L123.203,105.278L123.272,105.278L123.34,104.722L123.409,107.222L123.477,108.333L123.546,110.833L123.614,112.222L123.682,111.111L123.751,110.556L123.819,110.278L123.888,110L123.956,109.444L124.025,110L124.093,108.889L124.162,109.444L124.23,110L124.298,109.167L124.367,109.722L124.435,109.444L124.504,108.889L124.572,111.111L124.641,113.056L124.709,112.5L124.778,111.111L124.846,111.667L124.914,111.111L124.983,111.111L125.051,113.056L125.12,113.611L125.188,113.333L125.257,112.222L125.325,112.5L125.394,112.222L125.462,112.222L125.53,113.056L125.599,109.722L125.667,106.944L125.736,105.833L125.804,105.278L125.873,106.111L125.941,105.833L126.01,106.111L126.078,105L126.146,103.333L126.215,103.056L126.283,102.778L126.352,103.333L126.42,103.889L126.489,103.611L126.557,103.611L126.626,101.944L126.694,99.444L126.762,99.167L126.831,100.556L126.899,100L126.968,101.111L127.105,99.722L127.173,96.944L127.242,95.833L127.31,95L127.379,93.333L127.447,94.167L127.515,95.278L127.584,94.722L127.652,92.778L127.721,94.722L127.789,95.833L127.858,95.556L127.926,96.389L127.995,93.056L128.063,91.667L128.131,91.389L128.2,92.222L128.268,93.611L128.337,92.222L128.405,91.111L128.474,89.722L128.542,88.333L128.611,88.056L128.679,87.222L128.747,87.778L128.816,89.722L128.884,88.889L128.953,87.778L129.021,87.222L129.09,86.944L129.158,88.611L129.227,90.556L129.295,90.833L129.363,91.667L129.432,93.611L129.5,92.778L129.569,90.833L129.637,90.556L129.706,91.667L129.774,92.778L129.843,92.5L129.911,94.167L129.979,93.611L130.045,94.444L130.114,96.389L130.182,96.111L130.25,95L130.319,94.167L130.387,93.889L130.456,94.167L130.524,94.722L130.593,94.444L130.661,93.889L130.73,95L130.798,95L130.866,93.889L130.935,93.611L131.003,94.167L131.072,92.5L131.14,91.667L131.209,88.611L131.277,87.5L131.346,86.667L131.414,84.444L131.482,83.333L131.551,82.222L131.619,80.833L131.688,81.389L131.756,80L131.825,79.444L131.893,79.722L131.962,79.167L132.03,79.444L132.098,79.722L132.167,77.222L132.235,78.889L132.304,78.611L132.372,79.167L132.441,79.167L132.509,78.889L132.578,78.889L132.646,77.5L132.714,78.611L132.783,77.5L132.851,77.5L132.92,75.556L132.988,76.389L133.057,74.444L133.125,76.667L133.194,76.944L133.262,79.444L133.33,79.722L133.399,79.167L133.467,80.278L133.536,80.556L133.604,78.333L133.673,80.278L133.741,79.444L133.81,80.556L133.878,79.722L133.946,81.111L134.015,80.278L134.083,77.778L134.152,78.333L134.22,79.444L134.289,78.611L134.357,79.722L134.426,79.722L134.494,80L134.563,80.833L134.631,80.556L134.699,81.389L134.768,81.111L134.836,83.056L134.905,81.111L134.973,82.5L135.042,82.778L135.11,82.5L135.179,80.556L135.247,81.111L135.315,81.667L135.384,82.222L135.452,84.167L135.521,83.889L135.589,84.167L135.658,87.222L135.726,87.5L135.795,86.389L135.863,85.278L135.931,85L136,84.444L136.068,83.889L136.137,84.722L136.205,85.556L136.274,85.556L136.342,85.833L136.411,86.944L136.479,86.389L136.547,85.833L136.616,85.556L136.684,85.278L136.753,87.222L136.821,88.889L136.89,84.722L136.958,86.389L137.027,86.944L137.095,85L137.163,85.833L137.232,87.5L137.3,86.111L137.369,84.167L137.437,83.056L137.506,81.111L137.574,80.833L137.643,81.111L137.711,81.667L137.779,81.389L137.848,81.389L137.916,82.5L137.985,82.5L138.053,80L138.122,81.944L138.19,83.056L138.259,81.389L138.327,81.944L138.396,81.111L138.464,79.722L138.532,79.722L138.601,80.278L138.669,78.889L138.738,80.556L138.806,78.889L138.875,76.944L138.943,81.389L139.012,81.111L139.08,81.389L139.148,83.333L139.217,81.944L139.285,81.667L139.354,81.944L139.422,82.778L139.491,81.667L139.559,82.778L139.628,81.389L139.696,81.667L139.764,80.833L139.833,80L139.901,80L139.97,78.333L140.038,77.778L140.107,80L140.175,78.611L140.244,78.333L140.312,76.944L140.38,73.333L140.449,72.5L140.517,72.222L140.586,73.333L140.654,73.056L140.723,73.611L140.791,70.556L140.86,68.889L140.928,67.778L140.996,66.944L141.065,66.944L141.133,66.944L141.202,65.833L141.27,68.333L141.339,67.778L141.407,68.056L141.476,67.222L141.544,68.056L141.612,68.333L141.681,68.056L141.749,65.556L141.818,65.278L141.886,64.167L141.955,64.444L142.023,64.444L142.092,65.278L142.16,65.833L142.228,64.444L142.297,63.889L142.365,65L142.434,67.222L142.502,66.944L142.571,65.556L142.639,65L142.708,64.167L142.776,62.222L142.845,62.778L142.913,64.722L142.981,64.444L143.05,63.611L143.118,60.556L143.187,59.167L143.255,56.389L143.324,55.833L143.392,56.111L143.461,54.167L143.529,55.556L143.597,55.556L143.666,53.889L143.734,53.889L143.803,54.722L143.871,53.611L143.94,52.778L144.008,53.056L144.077,53.889L144.145,53.611L144.213,51.667L144.282,53.611L144.35,52.5L144.419,51.944L144.487,52.778L144.556,52.222L144.624,51.944L144.693,49.444L144.761,50L144.829,51.111L144.898,51.944L144.966,51.389L145.035,52.5L145.103,53.056L145.172,53.056L145.24,52.778L145.309,56.111L145.377,56.667L145.445,56.667L145.514,58.889L145.582,58.889L145.651,58.611L145.719,59.444L145.788,59.444L145.856,58.611L145.925,58.056L145.993,59.722L146.061,59.722L146.13,58.611L146.198,57.5L146.267,59.444L146.338,58.333L146.407,59.722L146.475,61.111L146.543,60L146.612,59.722L146.68,61.111L146.749,61.111L146.817,62.222L146.886,60.556L146.954,61.944L147.023,63.333L147.091,64.167L147.159,64.167L147.228,67.222L147.296,67.222L147.365,67.778L147.433,67.222L147.502,67.5L147.57,67.778L147.639,67.778L147.707,68.611L147.775,69.722L147.844,70.278L147.912,73.333L147.981,75L148.049,76.389L148.118,75.556L148.186,77.222L148.255,79.722L148.323,77.778L148.392,78.333L148.46,79.167L148.528,78.056L148.597,78.333L148.665,78.889L148.734,80.278L148.802,81.944L148.871,81.389L148.939,81.944L149.008,80.278L149.076,79.167L149.144,79.444L149.213,78.333L149.281,78.056L149.35,79.167L149.418,79.444L149.487,78.056L149.555,76.111L149.624,73.889L149.692,73.056L149.76,71.667L149.829,66.667L149.897,65.833L149.966,66.111L150.034,64.444L150.103,63.333L150.171,61.944L150.24,61.389L150.308,58.889L150.376,60.278L150.445,58.889L150.513,58.333L150.582,58.333L150.65,58.056L150.719,57.5L150.787,53.611L150.856,49.444L150.924,48.889L150.992,50.556L151.061,50.278L151.129,49.167L151.198,45.833L151.266,45.278L151.335,45.278L151.403,43.889L151.472,43.056L151.54,43.611L151.608,44.444L151.677,44.722L151.745,43.889L151.814,45.833L151.882,50L152.019,49.722L152.088,46.389L152.156,48.333L152.225,48.611L152.293,50.556L152.361,46.111L152.43,47.222L152.498,43.056L152.567,43.889L152.635,43.056L152.704,43.611L152.772,43.889L152.841,45L152.909,48.056L152.977,51.944L153.046,51.944L153.114,53.611L153.183,53.333L153.251,55L153.32,56.667L153.388,57.222L153.457,55.556L153.525,54.167L153.593,52.778L153.662,54.167L153.73,53.889L153.799,53.889L153.867,53.889L153.936,51.667L154.004,50.833L154.073,53.056L154.141,55L154.209,53.056L154.278,50.556L154.346,52.778L154.415,57.222L154.483,57.778L154.552,58.889L154.62,58.611L154.689,59.444L154.757,59.167L154.825,59.444L154.894,59.444L154.96,58.611L155.028,59.722L155.096,60.833L155.165,59.444L155.233,60.278L155.302,58.889L155.37,60L155.439,60.833L155.507,63.889L155.576,66.667L155.644,67.222L155.712,66.111L155.781,66.111L155.849,66.389L155.918,66.389L155.986,66.389L156.055,66.944L156.123,64.722L156.192,65.556L156.26,65.833L156.328,67.5L156.397,66.667L156.465,66.667L156.534,64.722L156.602,65.833L156.671,66.111L156.739,64.722L156.808,64.722L156.876,62.778L156.944,61.111L157.013,61.667L157.081,58.611L157.15,58.056L157.218,55L157.287,53.889L157.355,54.722L157.424,53.056L157.492,52.5L157.56,47.5L157.629,45.833L157.697,45.556L157.766,44.167L157.834,41.667L157.903,37.778L157.971,36.667L158.04,37.778L158.108,38.611L158.176,38.611L158.245,38.333L158.313,37.778L158.382,36.667L158.45,34.722L158.519,34.167L158.587,36.389L158.656,37.222L158.724,35.278L158.792,34.167L158.861,34.167L158.929,35.833L158.998,35.556L159.066,35.556L159.135,35.833L159.203,33.611L159.272,35L159.34,33.889L159.409,33.333L159.477,33.333L159.545,29.167L159.614,32.222L159.682,32.778L159.751,31.111L159.819,29.444L159.888,31.389L159.956,36.111L160.025,36.111L160.093,33.889L160.161,31.111L160.23,32.222L160.298,28.889L160.367,29.722L160.435,30.556L160.504,29.444L160.572,24.444L160.641,19.444L160.709,18.056L160.777,16.111L160.846,12.778L160.914,10.833L160.983,8.333L161.051,8.333L161.12,6.667L161.188,7.5L161.257,8.889L161.325,10L161.393,10.278L161.462,6.944L161.53,6.389L161.599,11.944L161.667,9.722L161.736,8.611L161.804,9.444L161.873,11.389L161.941,11.667L162.009,9.722L162.078,10L162.146,12.222L162.215,12.778L162.283,12.222L162.352,13.889L162.42,14.722L162.489,14.167L162.557,16.111L162.625,20.278L162.694,25L162.762,25L162.831,28.611L162.899,34.722L162.968,37.222L163.036,40L163.105,41.944L163.173,45L163.242,45.278L163.31,45.833L163.378,46.667L163.447,47.778L163.515,52.5L163.584,54.167L163.652,51.944L163.721,55L163.789,56.111L163.858,58.333L163.926,60.278L163.994,60L164.063,60.833L164.131,61.944L164.2,61.944L164.268,63.056L164.337,61.667L164.405,61.944L164.474,61.389L164.542,63.056L164.61,61.389L164.679,62.778L164.747,62.222L164.816,64.444L164.884,62.778L164.953,60.833L165.021,61.389L165.09,57.222L165.158,55.833L165.226,54.444L165.295,55.278L165.363,55.833L165.432,55.278L165.5,55.278L165.569,52.5L165.637,50.278L165.706,47.778L165.774,45.556L165.842,44.722L165.911,44.167L165.979,40.556L166.048,40.278L166.116,39.444L166.185,38.333L166.253,40.278L166.322,38.056L166.39,40L166.458,41.111L166.527,41.111L166.595,37.5L166.664,36.389L166.732,36.667L166.801,34.444L166.869,32.778L166.938,33.889L167.006,32.778L167.074,30.833L167.143,33.611L167.211,34.722L167.28,35.278L167.348,33.889L167.417,33.056L167.485,31.944L167.554,30.556L167.622,31.389L167.691,33.056L167.759,37.5L167.827,38.333L167.896,40L167.964,38.889L168.033,40.833L168.101,41.944L168.17,43.889L168.238,45.278L168.307,43.333L168.375,41.944L168.443,39.167L168.512,37.5L168.58,37.222L168.649,37.5L168.717,40.278L168.786,38.333L168.854,38.889L168.923,38.056L168.991,36.111L169.059,37.222L169.128,39.167L169.196,39.444L169.265,36.389L169.333,34.722L169.402,35L169.47,35L169.539,36.667L169.607,36.111L169.675,35.278L169.744,35L169.812,34.722L169.881,36.389L169.949,34.444L170.018,35L170.086,33.611L170.155,32.778L170.223,33.333L170.291,31.667L170.36,29.722L170.428,33.333L170.497,36.389L170.565,38.333L170.634,36.944L170.702,37.5L170.771,36.389L170.839,39.167L170.907,36.667L170.976,36.667L171.044,38.333L171.113,37.5L171.181,35.833L171.253,37.5L171.321,39.722L171.389,40.833L171.458,41.111L171.526,40.556L171.595,39.444L171.663,41.944L171.732,45.556L171.8,46.389L171.869,45L171.937,44.722L172.005,45L172.074,43.889L172.142,46.389L172.211,46.944L172.279,46.111L172.348,44.444L172.416,47.5L172.485,49.167L172.553,51.389L172.621,51.389L172.69,51.667L172.758,52.222L172.827,51.667L172.895,50.278L172.964,55L173.032,58.333L173.101,58.333L173.169,57.778L173.238,59.167L173.306,58.333L173.374,59.444L173.443,60.833L173.511,62.222L173.58,63.889L173.648,62.5L173.717,61.389L173.785,58.889L173.854,57.5L173.922,57.222L173.99,55.278L174.059,56.667L174.127,56.111L174.196,52.778L174.264,51.667L174.333,50.833L174.401,54.444L174.47,54.722L174.538,54.444L174.606,51.111L174.675,50.278L174.743,50.556L174.812,52.778L174.88,56.111L174.949,53.889L175.017,54.167L175.086,53.056L175.154,53.333L175.222,53.889L175.291,52.5L175.359,52.778L175.428,51.667L175.496,49.722L175.565,48.056L175.633,47.5L175.702,49.167L175.77,48.333L175.838,50L175.907,49.444L175.975,48.611L176.044,48.611L176.112,46.944L176.181,46.389L176.249,48.333L176.318,48.889L176.386,50L176.454,50L176.523,50.278L176.591,48.611L176.66,50L176.728,51.111L176.797,51.389L176.865,50.278L176.934,49.167L177.002,50.833L177.07,49.167L177.139,48.611L177.207,48.056L177.276,49.722L177.344,48.611L177.413,46.111L177.481,45.278L177.55,40.278L177.618,39.722L177.687,38.611L177.755,38.056L177.823,38.056L177.892,35.556L177.96,35L178.029,36.111L178.097,36.667L178.166,37.5L178.234,38.333L178.303,37.778L178.371,36.111L178.439,33.333L178.508,29.167L178.576,26.111L178.645,25.556L178.713,25.278L178.782,23.333L178.85,22.778L178.919,21.944L178.987,20.556L179.055,20.278L179.124,19.722L179.192,20.833L179.261,22.5L179.329,21.667L179.398,23.333L179.466,24.167L179.535,26.389L179.603,31.944L179.671,33.333L179.74,33.056L179.808,33.611L179.874,34.167L179.942,36.389L180.011,38.889L180.079,39.167L180.148,38.889L180.216,38.333L180.285,38.333L180.353,37.778L180.422,40.833L180.49,40.556L180.558,43.611L180.627,44.167L180.695,43.056L180.764,42.778L180.832,42.222L180.901,40.833L180.969,41.389L181.038,42.222L181.106,42.222L181.174,39.722L181.243,39.167L181.311,37.778L181.38,36.944L181.448,38.889L181.517,39.444L181.585,37.5L181.654,34.722L181.722,34.722L181.79,32.778L181.859,31.667L181.927,30L181.996,28.056L182.064,26.111L182.133,25L182.201,23.889L182.27,25.833L182.338,24.722L182.406,26.667L182.475,25.556L182.543,29.167L182.612,27.778L182.68,27.778L182.749,26.389L182.817,25.833L182.886,27.5L182.954,29.167L183.022,30.556L183.091,30.833L183.159,30L183.228,33.056L183.296,29.167L183.365,29.722L183.433,28.889L183.502,28.889L183.57,30.556L183.638,30.556L183.707,33.333L183.775,33.333L183.844,35.833L183.912,36.667L183.981,39.167L184.049,36.667L184.118,38.889L184.186,39.444L184.255,41.944L184.323,41.389L184.391,44.167L184.46,43.611L184.528,42.5L184.597,41.667L184.665,43.611L184.734,44.722L184.802,48.056L184.871,46.944L184.939,46.389L185.007,46.389L185.076,44.167L185.144,41.389L185.213,41.944L185.281,37.222L185.35,39.167L185.418,39.444L185.487,43.333L185.555,42.5L185.623,41.944L185.692,43.333L185.76,41.667L185.829,42.222L185.897,41.667L185.966,41.944L186.034,41.944L186.103,45.833L186.171,43.611L186.239,41.944L186.308,39.167L186.376,37.222L186.445,35.556L186.513,35L186.582,37.222L186.65,37.778L186.719,38.056L186.787,35L186.855,34.722L186.924,37.222L186.992,36.667L187.061,36.944L187.129,39.722L187.198,41.944L187.266,40.556L187.335,44.444L187.403,42.5L187.471,43.056L187.54,41.389L187.608,39.167L187.677,36.389L187.745,36.111L187.814,37.5L187.882,38.056L187.951,39.722L188.019,38.333L188.087,35.833L188.156,33.889L188.224,35.278L188.293,39.444L188.361,41.389L188.43,42.778L188.498,43.611L188.567,43.333L188.635,40L188.704,40L188.772,38.333L188.84,39.722L188.909,38.056L188.977,37.778L189.046,37.222L189.114,34.722L189.183,33.611L189.251,32.778L189.32,34.167L189.388,36.944L189.456,40.833L189.525,41.111L189.593,39.167L189.662,40.556L189.73,44.167L189.799,43.889L189.867,44.444L189.936,44.167L190.004,42.778L190.072,44.444L190.141,45.833L190.209,46.111L190.278,46.111L190.346,45.556L190.415,44.722L190.483,45L190.552,42.5L190.62,42.222L190.688,44.167L190.757,40.556L190.825,40L190.894,41.667L190.962,42.5L191.031,40.833L191.099,40.833L191.168,44.722L191.236,44.167L191.304,46.111L191.373,45.556L191.441,43.333L191.51,43.056L191.578,45L191.647,46.111L191.715,44.167L191.784,41.944L191.852,41.667L191.92,41.111L191.989,38.889L192.057,40L192.126,39.167L192.194,41.944L192.263,44.722L192.331,42.778L192.4,41.111L192.468,41.944L192.537,40L192.605,40.833L192.673,38.611L192.742,36.389L192.81,39.167L192.879,41.389L192.947,36.111L193.016,36.111L193.084,37.5L193.153,38.611L193.221,37.778L193.289,36.667L193.358,34.167L193.426,34.167L193.495,34.444L193.563,31.667L193.632,28.889L193.7,28.333L193.769,29.167L193.837,30.278L193.905,31.944L193.974,30.833L194.042,33.611L194.111,32.222L194.179,33.611L194.248,28.889L194.316,25.556L194.385,26.944L194.453,26.389L194.521,26.111L194.59,27.222L194.658,28.611L194.727,31.389L194.795,32.222L194.864,29.167L194.932,26.111L195.001,29.444L195.069,26.944L195.137,25.556L195.206,23.611L195.274,21.389L195.343,24.167L195.411,25L195.48,25.278L195.548,23.333L195.617,23.611L195.685,21.944L195.753,20.833L195.822,21.111L195.89,20.278L195.959,17.5L196.027,16.389L196.096,12.778L196.167,11.389L196.235,6.944L196.304,6.667L196.372,8.056L196.441,6.667L196.509,7.222L196.578,6.944L196.646,4.444L196.715,1.944L196.783,0L196.851,2.222L196.92,2.778L196.988,3.611L197.057,3.333L197.125,3.056L197.194,2.222L197.262,2.778L197.331,4.722L197.399,2.778L197.467,1.111L197.536,3.333L197.604,6.389L197.673,8.333L197.741,8.889L197.81,11.389L197.878,9.167L197.947,8.333L198.015,8.889L198.084,9.167L198.152,9.444L198.22,10.833L198.289,13.889L198.357,16.111L198.426,17.5L198.494,19.167L198.563,18.611L198.631,16.944L198.7,18.611L198.768,19.444L198.836,23.333L198.905,20.556L198.973,21.944L199.042,24.444L199.11,23.889L199.179,25.833L199.247,29.722L199.316,31.389L199.384,31.111L199.452,33.056L199.521,34.444L199.589,31.944L199.658,30.833L199.726,30.833L199.795,31.667L199.863,30.833L199.932,32.5L200,33.056L200.068,31.389L200.137,32.778L200.205,33.611L200.274,33.611L200.342,33.889L200.411,33.056L200.479,29.167L200.548,28.056L200.616,29.722L200.684,31.111L200.753,31.944L200.821,32.778L200.89,30.556L200.958,34.444L201.027,34.722L201.095,33.056L201.164,32.222L201.232,31.944L201.3,28.611L201.369,29.722L201.437,30.833L201.506,29.444L201.574,30.278L201.643,31.111L201.711,31.667L201.78,30.833L201.848,30.556L201.916,30.556L201.985,33.333L202.053,36.111L202.122,37.778L202.19,38.056L202.259,36.667" stroke="#4c78a8" stroke-width="2"/></g><g class="mark-group role-title"><g transform="translate(100,-17)"><path class="background" aria-hidden="true" d="M0,0h0v0h0Z" pointer-events="none"/><g><g class="mark-text role-title-text" role="graphics-symbol" aria-roledescription="title" aria-label="Title text 'Illegal Parking: Unauthorized Bus Layover'" pointer-events="none"><text text-anchor="middle" transform="translate(0,10)" font-family="sans-serif" font-size="13px" font-weight="bold" fill="#000" opacity="1">Illegal Parking: Unauthorized Bus Layover</text></g></g><path class="foreground" aria-hidden="true" d="" pointer-events="none" display="none"/></g></g></g><path class="foreground" aria-hidden="true" d="" display="none"/></g></g></g><defs><clipPath id="clip150"><rect x="0" y="0" width="200" height="150"/></clipPath></defs></svg>