<svg xmlns="http://www.w3.org/2000/svg" xmlns:xlink="http://www.w3.org/1999/xlink" version="1.1" class="marks" width="338" height="199" viewBox="0 0 338 199"><rect width="338" height="199" fill="white"/><g fill="none" stroke-miterlimit="10" transform="translate(69,27)"><g class="mark-group role-frame root" role="graphics-object" aria-roledescription="group mark container"><g transform="translate(0,0)"><path class="background" aria-hidden="true" d="M0,0h200v150h-200Z"/><g><g class="mark-group role-axis" aria-hidden="true"><g transform="translate(0.5,0.5)"><path class="background" aria-hidden="true" d="M0,0h0v0h0Z" pointer-events="none"/><g><g class="mark-rule role-axis-grid" pointer-events="none"><line transform="translate(0,150)" x2="200" y2="0" stroke="#ddd" stroke-width="1" opacity="1"/><line transform="translate(0,125)" x2="200" y2="0" stroke="#ddd" stroke-width="1" opacity="1"/><line transform="translate(0,100)" x2="200" y2="0" stroke="#ddd" stroke-width="1" opacity="1"/><line transform="translate(0,75)" x2="200" y2="0" stroke="#ddd" stroke-width="1" opacity="1"/><line transform="translate(0,50)" x2="200" y2="0" stroke="#ddd" stroke-width="1" opacity="1"/><line transform="translate(0,25)" x2="200" y2="0" stroke="#ddd" stroke-width="1" opacity="1"/><line transform="translate(0,0)" x2="200" y2="0" stroke="#ddd" stroke-width="1" opacity="1"/></g></g><path class="foreground" aria-hidden="true" d="" pointer-events="none" display="none"/></g></g><g class="mark-group role-axis" role="graphics-symbol" aria-roledescription="axis" aria-label="X-axis for a time scale with values from Friday, 01 January 2016, 12:00:00 AM to Monday, 01 January 2024, 12:00:00 AM"><g transform="translate(0.5,150.5)"><path class="background" aria-hidden="true" d="M0,0h0v0h0Z" pointer-events="none"/><g><g class="mark-rule role-axis-tick" pointer-events="none"><line transform="translate(0,0)" x2="0" y2="5" stroke="#888" stroke-width="1" opacity="1"/><line transform="translate(50,0)" x2="0" y2="5" stroke="#888" stroke-width="1" opacity="1"/><line transform="translate(100,0)" x2="0" y2="5" stroke="#888" stroke-width="1" opacity="1"/><line transform="translate(150,0)" x2="0" y2="5" stroke="#888" stroke-width="1" opacity="1"/><line transform="translate(200,0)" x2="0" y2="5" stroke="#888" stroke-width="1" opacity="1"/></g><g class="mark-text role-axis-label" pointer-events="none"><text text-anchor="start" transform="translate(0,15)" font-family="sans-serif" font-size="10px" fill="#000" opacity="1">2016</text><text text-anchor="middle" transform="translate(50.03422313483915,15)" font-family="sans-serif" font-size="10px" fill="#000" opacity="1">2018</text><text text-anchor="middle" transform="translate(100,15)" font-family="sans-serif" font-size="10px" fill="#000" opacity="1">2020</text><text text-anchor="middle" transform="translate(150.03422313483915,15)" font-family="sans-serif" font-size="10px" fill="#000" opacity="1">2022</text><text text-anchor="end" transform="translate(200,15)" font-family="sans-serif" font-size="10px" fill="#000" opacity="1">2024</text></g><g class="mark-rule role-axis-domain" pointer-events="none"><line transform="translate(0,0)" x2="200" y2="0" stroke="#888" stroke-width="1" opacity="1"/></g></g><path class="foreground" aria-hidden="true" d="" pointer-events="none" display="none"/></g></g><g class="mark-group role-axis" role="graphics-symbol" aria-roledescription="axis" aria-label="Y-axis for a linear scale with values from 0 to 120"><g transform="translate(0.5,0.5)"><path class="background" aria-hidden="true" d="M0,0h0v0h0Z" pointer-events="none"/><g><g class="mark-rule role-axis-tick" pointer-events="none"><line transform="translate(0,150)" x2="-5" y2="0" stroke="#888" stroke-opacity="0" stroke-width="1" opacity="1"/><line transform="translate(0,125)" x2="-5" y2="0" stroke="#888" stroke-opacity="0" stroke-width="1" opacity="1"/><line transform="translate(0,100)" x2="-5" y2="0" stroke="#888" stroke-opacity="0" stroke-width="1" opacity="1"/><line transform="translate(0,75)" x2="-5" y2="0" stroke="#888" stroke-opacity="0" stroke-width="1" opacity="1"/><line transform="translate(0,50)" x2="-5" y2="0" stroke="#888" stroke-opacity="0" stroke-width="1" opacity="1"/><line transform="translate(0,25)" x2="-5" y2="0" stroke="#888" stroke-opacity="0" stroke-width="1" opacity="1"/><line transform="translate(0,0)" x2="-5" y2="0" stroke="#888" stroke-opacity="0" stroke-width="1" opacity="1"/></g><g class="mark-text role-axis-label" pointer-events="none"><text text-anchor="end" transform="translate(-7,153)" font-family="sans-serif" font-size="10px" fill="#000" opacity="1">0</text><text text-anchor="end" transform="translate(-7,128)" font-family="sans-serif" font-size="10px" fill="#000" opacity="1">20</text><text text-anchor="end" transform="translate(-7,103.00000000000001)" font-family="sans-serif" font-size="10px" fill="#000" opacity="1">40</text><text text-anchor="end" transform="translate(-7,78)" font-family="sans-serif" font-size="10px" fill="#000" opacity="1">60</text><text text-anchor="end" transform="translate(-7,53.00000000000001)" font-family="sans-serif" font-size="10px" fill="#000" opacity="1">80</text><text text-anchor="end" transform="translate(-7,27.999999999999993)" font-family="sans-serif" font-size="10px" fill="#000" opacity="1">100</text><text text-anchor="end" transform="translate(-7,3)" font-family="sans-serif" font-size="10px" fill="#000" opacity="1">120</text></g></g><path class="foreground" aria-hidden="true" d="" pointer-events="none" display="none"/></g></g><g class="mark-line role-mark marks" clip-path="url(#clip129)" role="graphics-object" aria-roledescription="line mark container"><path aria-label="day: Jan 01, 2010; avg: 12.9333333333" role="graphics-symbol" aria-roledescription="line mark" d="M-149.966,133.833L-149.897,133.5L-149.829,133.458L-149.76,133.208L-149.692,132.792L-149.624,132.875L-149.555,132.5L-149.487,132.917L-149.418,133.083L-149.35,133.458L-149.281,133.292L-149.213,133.583L-149.144,133.625L-149.076,133.542L-149.008,133.333L-148.939,133.458L-148.871,133.667L-148.802,133.375L-148.734,133.083L-148.665,133.25L-148.597,133.75L-148.528,133.667L-148.46,133.875L-148.392,134.333L-148.323,134.292L-148.255,134.292L-148.186,134.542L-148.118,134.875L-148.049,135.208L-147.981,135.208L-147.912,135.917L-147.844,135.375L-147.775,135.292L-147.707,134.5L-147.639,134.875L-147.57,134.583L-147.502,135.167L-147.433,134.833L-147.365,134.292L-147.296,133.25L-147.228,132.833L-147.159,132.792L-147.091,133.042L-147.023,133.292L-146.954,133.5L-146.886,132.667L-146.817,132.333L-146.749,131.917L-146.68,132.375L-146.612,132.208L-146.543,132.583L-146.475,132.125L-146.407,131.833L-146.338,131.458L-146.27,130.917L-146.201,131.333L-146.133,130.375L-146.064,129.833L-145.996,129.708L-145.927,129.833L-145.859,128.708L-145.791,129L-145.722,129.042L-145.654,129.5L-145.585,129.542L-145.517,130.042L-145.448,128.667L-145.38,127.792L-145.311,127.625L-145.243,128.417L-145.175,127.792L-145.106,127.625L-145.038,127.083L-144.972,126.292L-144.904,125.625L-144.835,125.333L-144.767,126.167L-144.698,126L-144.63,125.75L-144.561,125.792L-144.493,124.583L-144.424,124.833L-144.356,124.542L-144.288,124.417L-144.219,124.458L-144.151,124.333L-144.082,125.167L-144.014,125.125L-143.945,124.583L-143.877,124L-143.808,124.417L-143.74,123.75L-143.672,123.667L-143.603,123.417L-143.535,122.125L-143.466,121.208L-143.398,121.083L-143.329,121.75L-143.261,121.958L-143.192,122.042L-143.124,122.417L-143.056,121.042L-142.987,120.667L-142.919,120.875L-142.85,121.208L-142.782,121.708L-142.713,121.25L-142.645,121L-142.576,120.917L-142.508,120.458L-142.44,121L-142.371,121.625L-142.303,121.333L-142.234,121.292L-142.166,121.167L-142.097,119.792L-142.029,119.042L-141.96,118.583L-141.892,118.708L-141.824,118.5L-141.755,119.25L-141.687,120.208L-141.618,120L-141.55,120.292L-141.481,120.917L-141.413,122L-141.344,122.792L-141.276,123.375L-141.208,123.583L-141.139,122.125L-141.071,122.5L-141.002,123.417L-140.934,124.042L-140.865,123.292L-140.797,123.5L-140.728,123.625L-140.66,122.292L-140.591,122.167L-140.523,121.667L-140.455,122.167L-140.386,121.792L-140.318,121.875L-140.249,122.75L-140.181,122.417L-140.112,122.75L-140.044,123.958L-139.975,125.25L-139.907,125.375L-139.839,125.917L-139.77,126.917L-139.702,126.625L-139.633,126L-139.565,126.042L-139.496,126.292L-139.428,127.042L-139.359,127.125L-139.291,127.583L-139.223,127.583L-139.154,127.542L-139.086,128.958L-139.017,129.667L-138.949,129.875L-138.88,130.083L-138.812,131.208L-138.743,131.208L-138.675,131.25L-138.607,132.292L-138.538,133.542L-138.47,134.125L-138.401,134.5L-138.333,135.375L-138.264,134.833L-138.196,134.708L-138.127,135.083L-138.059,135.542L-137.991,135.542L-137.922,135.417L-137.854,136.042L-137.785,135.667L-137.717,134.25L-137.648,134L-137.58,134.417L-137.511,134.5L-137.443,134.5L-137.375,133.875L-137.306,133L-137.238,132.333L-137.169,132.042L-137.101,132.375L-137.032,132L-136.964,131.667L-136.895,131.875L-136.827,131.75L-136.758,131.042L-136.69,130.958L-136.622,131.458L-136.553,131.875L-136.485,131.708L-136.416,131.958L-136.348,131.708L-136.279,131.833L-136.211,132.042L-136.142,132.042L-136.074,132L-136.006,131.875L-135.937,131.958L-135.869,130.875L-135.8,130.125L-135.732,129.958L-135.663,130.333L-135.595,130.125L-135.526,130.25L-135.458,130.417L-135.39,130.583L-135.321,130.708L-135.253,130.875L-135.184,131.458L-135.116,130.958L-135.047,130.917L-134.979,131.333L-134.91,131.083L-134.842,130.583L-134.774,129.75L-134.705,130L-134.637,129.333L-134.568,129.125L-134.5,129.167L-134.431,127.958L-134.363,126.833L-134.294,126.208L-134.226,126.042L-134.158,124.792L-134.089,124.667L-134.021,124.125L-133.952,122.5L-133.884,121.375L-133.815,121.667L-133.747,122.292L-133.678,121.542L-133.61,121.958L-133.542,121.875L-133.473,120.708L-133.405,118.917L-133.336,118.5L-133.268,118.542L-133.199,118L-133.131,117.833L-133.062,117.833L-132.994,117.375L-132.926,116.458L-132.857,116.333L-132.789,116.667L-132.72,117.042L-132.652,117.083L-132.583,117.667L-132.515,116.333L-132.446,115.333L-132.378,116.125L-132.309,117.542L-132.241,117.75L-132.173,117.583L-132.104,118.292L-132.036,117.167L-131.967,117.75L-131.899,119.292L-131.83,120.125L-131.762,119.917L-131.693,119.583L-131.625,119.458L-131.557,118.375L-131.488,118.333L-131.42,118.667L-131.351,120.208L-131.283,120.292L-131.214,120.625L-131.146,121.583L-131.077,120.833L-131.009,119.708L-130.941,119.667L-130.872,120.458L-130.804,120.458L-130.735,120.583L-130.667,120.417L-130.598,119.208L-130.53,118.583L-130.461,119.417L-130.393,120.625L-130.325,119.708L-130.256,119.083L-130.188,118.375L-130.119,117.625L-130.051,117.708L-129.982,118.458L-129.914,118.5L-129.845,117.792L-129.777,117.917L-129.709,118.542L-129.64,118.125L-129.572,118.792L-129.503,120.167L-129.435,121.167L-129.366,122.083L-129.298,122.125L-129.229,122.167L-129.161,121.792L-129.093,121.792L-129.024,122.417L-128.956,123.917L-128.887,123.792L-128.819,123.542L-128.75,123.667L-128.679,123.625L-128.611,124.042L-128.542,125.375L-128.474,126.458L-128.405,126.083L-128.337,126.083L-128.268,127.542L-128.2,127.875L-128.131,129.167L-128.063,130.083L-127.995,130.375L-127.926,130.25L-127.858,130.458L-127.789,131.5L-127.721,131.625L-127.652,131.792L-127.584,132.708L-127.515,133.542L-127.447,133.833L-127.379,133.375L-127.31,133.417L-127.242,133.917L-127.173,134.5L-127.105,135.083L-127.036,135.25L-126.968,135.458L-126.899,134.583L-126.831,134.875L-126.762,135.292L-126.694,135.583L-126.626,135.917L-126.557,136.25L-126.489,136.417L-126.42,136.458L-126.352,137.417L-126.283,137.667L-126.215,137.417L-126.146,137.458L-126.078,136.833L-126.01,136.917L-125.941,137.167L-125.873,137.292L-125.804,137.583L-125.736,137.292L-125.667,137.542L-125.599,137.625L-125.53,136.875L-125.394,136.208L-125.188,135.792L-125.12,136.083L-125.051,135.667L-124.983,135.583L-124.914,134.875L-124.846,134.208L-124.778,134L-124.709,134.083L-124.641,135L-124.572,135.042L-124.504,134.958L-124.435,134.917L-124.367,134.75L-124.298,134.708L-124.23,134.25L-124.162,133.708L-124.093,133.083L-124.025,133L-123.956,132.875L-123.888,132.25L-123.819,131.875L-123.751,131.458L-123.682,131.458L-123.614,132L-123.546,131.625L-123.477,131.458L-123.409,131.292L-123.34,131.125L-123.272,131.458L-123.203,131.75L-123.135,131.292L-123.066,130.958L-122.998,131.167L-122.93,130.708L-122.861,130.708L-122.793,130.75L-122.724,131.042L-122.656,129.958L-122.587,130.167L-122.519,130.375L-122.45,129.917L-122.382,129.708L-122.313,129.792L-122.245,129.708L-122.177,130L-122.108,130.583L-122.04,131.167L-121.971,130.833L-121.903,130.75L-121.834,131.292L-121.766,131.875L-121.697,131.542L-121.629,131.458L-121.561,131.25L-121.492,130.917L-121.424,130.75L-121.355,130.542L-121.287,130.5L-121.218,130.292L-121.15,130.125L-121.081,130.083L-121.013,130L-120.945,129.875L-120.876,129.542L-120.808,129.875L-120.739,129.25L-120.671,128.833L-120.602,129.333L-120.534,128.542L-120.465,127.542L-120.397,127.458L-120.329,127.375L-120.26,126.042L-120.192,126.042L-120.123,126.125L-120.058,125.292L-119.989,124.625L-119.921,123.792L-119.852,123.333L-119.784,122.25L-119.715,122.625L-119.647,123.125L-119.578,122.5L-119.51,121.708L-119.442,121.667L-119.373,122.042L-119.305,121.5L-119.236,121.958L-119.168,122.208L-119.099,121.417L-119.031,120.958L-118.962,120.792L-118.894,120.375L-118.826,119.875L-118.757,119.625L-118.689,119.833L-118.62,119L-118.552,118.792L-118.483,118.833L-118.415,119.667L-118.346,118.625L-118.278,118.958L-118.21,119.167L-118.141,118.333L-118.073,117.292L-118.004,117.333L-117.936,117.542L-117.867,117L-117.799,117.583L-117.73,117.375L-117.662,116L-117.594,115.542L-117.525,115.375L-117.457,116L-117.388,115.292L-117.32,114.667L-117.251,114.625L-117.183,113.167L-117.114,112.458L-117.046,112.292L-116.978,112.958L-116.909,112.5L-116.841,113.292L-116.772,114.292L-116.704,114.25L-116.635,114.792L-116.567,115.292L-116.498,115.958L-116.43,115.75L-116.362,115.917L-116.293,116.917L-116.225,116.292L-116.156,116.833L-116.088,117.75L-116.019,118.833L-115.951,118.333L-115.882,118.542L-115.814,119.708L-115.745,118.958L-115.677,119.583L-115.609,120.167L-115.54,120.792L-115.472,120.708L-115.403,121.125L-115.335,122.292L-115.266,122.25L-115.198,122.667L-115.129,123.542L-115.061,124.333L-114.993,124.292L-114.924,124.375L-114.856,124.917L-114.787,124.375L-114.719,124.375L-114.65,124.167L-114.582,124.375L-114.513,124.5L-114.445,124.792L-114.377,125.792L-114.308,126.042L-114.24,126.458L-114.171,126.417L-114.103,126.708L-114.034,126.292L-113.966,126.417L-113.897,127.542L-113.829,127.333L-113.761,127.083L-113.692,127.208L-113.624,127.5L-113.555,127.708L-113.487,127.792L-113.418,128.917L-113.35,128.75L-113.281,128.792L-113.213,129.25L-113.145,129.875L-113.076,130.542L-113.008,131.083L-112.939,132.167L-112.871,132L-112.802,131.875L-112.734,131.917L-112.665,132.083L-112.597,132.333L-112.529,132.292L-112.46,132.375L-112.392,131.75L-112.323,131.042L-112.255,130.25L-112.186,130.125L-112.118,130.25L-112.049,130.25L-111.981,130.5L-111.913,130L-111.844,129.75L-111.776,129.625L-111.707,129.917L-111.639,129.833L-111.57,130.5L-111.502,131L-111.433,130.625L-111.365,130.292L-111.296,130.208L-111.228,130.333L-111.16,129.958L-111.091,129.75L-111.023,129.167L-110.954,127.917L-110.886,127.292L-110.817,127.75L-110.749,128.375L-110.68,129L-110.612,129.125L-110.544,128.125L-110.475,127.125L-110.407,125.917L-110.338,126.042L-110.27,125.708L-110.201,126.25L-110.133,126.375L-110.064,127L-109.996,126.875L-109.928,126.708L-109.859,126.875L-109.791,125.958L-109.722,126.25L-109.654,126L-109.585,125.917L-109.517,124.667L-109.448,123.875L-109.38,123.833L-109.312,121.875L-109.243,122.208L-109.175,121.5L-109.106,121.125L-109.038,120.583L-108.969,120.125L-108.901,120.625L-108.832,120.625L-108.764,119.792L-108.696,119.125L-108.559,117.667L-108.49,116.625L-108.422,116.917L-108.353,117.5L-108.285,118.083L-108.216,117.917L-108.148,118.125L-108.08,116.75L-108.011,115L-107.943,114.042L-107.874,113.417L-107.806,112.208L-107.737,111.917L-107.669,112.167L-107.6,110.833L-107.532,109.958L-107.463,110.25L-107.395,110.792L-107.327,110.083L-107.258,109.875L-107.19,111.292L-107.121,109.5L-107.053,109L-106.984,109.25L-106.916,109.458L-106.847,109.208L-106.779,108.417L-106.711,108.458L-106.642,108.375L-106.574,107.583L-106.505,107.958L-106.437,108.417L-106.368,109.375L-106.3,109.833L-106.231,110.708L-106.163,110.542L-106.095,110.833L-106.026,111.417L-105.958,112.75L-105.889,112.083L-105.821,113L-105.752,113.75L-105.684,113L-105.615,112.167L-105.547,112.917L-105.479,113.708L-105.41,113.708L-105.342,113.708L-105.273,114.625L-105.205,113.833L-105.136,112.667L-105.068,113.333L-104.999,113.75L-104.931,113.292L-104.863,112.792L-104.794,113.125L-104.726,114.25L-104.657,115.167L-104.589,116.292L-104.52,117.833L-104.452,117.833L-104.383,117.917L-104.315,117.292L-104.247,116.25L-104.178,115.958L-104.11,115.75L-104.041,115.833L-103.973,115.917L-103.904,116.292L-103.836,116.417L-103.765,115.458L-103.696,115.083L-103.628,115.875L-103.559,117.583L-103.491,116.958L-103.422,117.417L-103.354,117.625L-103.285,117L-103.217,116.708L-103.149,117.458L-103.08,119.042L-103.012,119.708L-102.943,120.708L-102.875,122.042L-102.806,122.458L-102.738,123.333L-102.669,123.542L-102.601,123.542L-102.533,123.375L-102.464,123.375L-102.396,124.5L-102.327,124.792L-102.259,125.542L-102.19,126.583L-102.122,127.167L-102.053,128.042L-101.985,128.667L-101.916,129.625L-101.848,129.958L-101.78,131.042L-101.711,132.042L-101.643,133.292L-101.574,134.125L-101.506,134.125L-101.437,135.25L-101.369,135.333L-101.3,135.792L-101.232,137L-101.164,137.583L-101.095,138.167L-101.027,138.375L-100.958,138.875L-100.89,138.375L-100.821,137.792L-100.753,138.25L-100.684,137.958L-100.616,138.167L-100.548,138.083L-100.479,137.292L-100.411,136.375L-100.342,135.875L-100.274,135.5L-100.205,134.958L-100.137,134.625L-100.068,134.542L-99.932,134.167L-99.863,133.417L-99.795,132.792L-99.726,132.125L-99.658,131.5L-99.589,131.667L-99.521,131.458L-99.452,130.875L-99.384,130.5L-99.316,130.667L-99.247,130.625L-99.179,130.708L-99.11,130.75L-99.042,131.042L-98.973,131L-98.905,130.917L-98.836,130.5L-98.768,130.625L-98.7,130.417L-98.631,130.375L-98.563,129.917L-98.494,129.333L-98.426,129.042L-98.357,129.625L-98.289,129.833L-98.22,129.292L-98.152,129.625L-98.084,130.292L-98.015,130.5L-97.947,130.5L-97.878,130.833L-97.81,131.417L-97.741,131.458L-97.673,132L-97.604,132.958L-97.536,132.708L-97.467,132.542L-97.399,132.667L-97.331,133.125L-97.262,132.708L-97.194,132.875L-97.125,132.542L-97.057,132.292L-96.988,131.917L-96.92,131.292L-96.851,131.25L-96.783,130.958L-96.715,131.333L-96.646,131.667L-96.578,131.125L-96.509,131.125L-96.441,130.542L-96.372,130.667L-96.304,129.458L-96.235,129.875L-96.167,130.375L-96.099,129.667L-96.03,128.542L-95.962,128L-95.893,127.875L-95.825,126.917L-95.756,126.792L-95.688,127.25L-95.619,126.625L-95.551,126.458L-95.483,126.5L-95.414,126.833L-95.346,126.667L-95.277,126.875L-95.209,127.542L-95.143,127.708L-95.075,127.708L-95.006,127.417L-94.938,127.25L-94.869,126.75L-94.801,127.083L-94.732,126.833L-94.664,126.292L-94.596,126.208L-94.527,125.917L-94.459,126.292L-94.39,126.375L-94.322,126.542L-94.253,127.875L-94.185,127.125L-94.116,127L-94.048,127.292L-93.98,127.958L-93.911,127.833L-93.843,128L-93.774,129.125L-93.706,128.833L-93.637,128.583L-93.569,128.75L-93.5,128.583L-93.432,127.458L-93.364,127.167L-93.295,126.875L-93.227,126.333L-93.158,125.917L-93.09,125.625L-93.021,125.917L-92.953,125.458L-92.884,126.083L-92.816,127.5L-92.748,127.375L-92.679,127.917L-92.611,127.625L-92.542,127.542L-92.474,127.583L-92.405,127.667L-92.337,128.5L-92.268,128.25L-92.2,128L-92.132,128.542L-92.063,128.333L-91.995,128.417L-91.926,128.833L-91.858,129.667L-91.789,129.75L-91.721,129.542L-91.652,129.417L-91.584,129.25L-91.516,129.417L-91.447,129.417L-91.379,130.5L-91.31,130.375L-91.242,130.458L-91.173,130L-91.105,129.958L-91.036,129L-90.968,129.167L-90.899,129.75L-90.831,129.542L-90.763,129.083L-90.694,128.958L-90.626,128.917L-90.557,128.333L-90.489,128.708L-90.42,129.25L-90.352,128.875L-90.283,129.167L-90.215,129.458L-90.147,129.875L-90.078,129.583L-90.01,130.042L-89.941,130.458L-89.873,130.25L-89.804,129.708L-89.736,129.667L-89.667,130L-89.599,130.042L-89.531,130.417L-89.462,130.75L-89.394,131.167L-89.325,131.333L-89.257,131.958L-89.188,132.667L-89.12,133.833L-89.051,134.292L-88.983,135.5L-88.915,135.042L-88.846,135.375L-88.778,135.667L-88.709,135.875L-88.641,136.375L-88.572,136.75L-88.504,137.833L-88.435,137.958L-88.367,137.917L-88.299,138.458L-88.23,137.458L-88.162,137.5L-88.093,137.625L-88.025,138.083L-87.956,137.958L-87.888,137.833L-87.819,138.083L-87.751,138.583L-87.683,138.458L-87.614,138.417L-87.546,138.417L-87.477,137.958L-87.409,137.708L-87.34,137.583L-87.203,137.125L-87.135,136.833L-87.067,136.708L-86.998,135.75L-86.93,135.292L-86.861,134L-86.793,134.083L-86.724,133.958L-86.656,133.833L-86.587,133.917L-86.519,132.833L-86.45,132.5L-86.382,132L-86.314,132.125L-86.245,131.75L-86.177,131.458L-86.108,131.625L-86.04,129.375L-85.971,127.917L-85.903,126.958L-85.834,126.083L-85.766,125.708L-85.698,125.375L-85.629,125.333L-85.561,124.917L-85.492,124.042L-85.424,123.417L-85.355,123.167L-85.287,123.042L-85.218,123L-85.15,123.417L-85.082,123.208L-85.013,122.542L-84.945,122.542L-84.876,122.5L-84.808,122.958L-84.739,122.833L-84.671,122.208L-84.602,121.25L-84.534,119.667L-84.466,118.833L-84.397,118.333L-84.329,117.375L-84.26,116.542L-84.192,116.542L-84.123,116.375L-84.055,115.833L-83.986,116.542L-83.918,117L-83.85,116.417L-83.781,117.458L-83.713,117.417L-83.644,116.542L-83.576,115.75L-83.507,114.667L-83.439,114.833L-83.37,113.875L-83.302,113.5L-83.234,112.5L-83.165,111.667L-83.097,109.667L-83.028,108.958L-82.96,108.875L-82.891,108L-82.823,108.083L-82.754,108.542L-82.686,107.25L-82.617,107.167L-82.549,106.292L-82.481,107.208L-82.412,107.833L-82.344,108.25L-82.275,109.042L-82.207,108.375L-82.138,107.167L-82.07,106.458L-82.001,106.792L-81.933,105.667L-81.865,105.917L-81.796,106.375L-81.728,104.583L-81.659,103.5L-81.591,102.625L-81.522,101.708L-81.454,100.375L-81.385,101L-81.317,103.292L-81.249,104.75L-81.18,106.292L-81.112,107.292L-81.043,108.958L-80.975,110.083L-80.906,111.042L-80.838,112.667L-80.769,113.083L-80.701,113.292L-80.633,114.875L-80.564,114.333L-80.496,115.417L-80.427,115.375L-80.359,115.667L-80.29,114.833L-80.222,114.75L-80.153,115.708L-80.085,115.542L-80.017,116.042L-79.948,116.25L-79.88,118.125L-79.811,117.875L-79.743,118.5L-79.674,120.25L-79.606,121.042L-79.537,122.208L-79.469,123.417L-79.401,125.25L-79.332,124.333L-79.195,123.083L-79.127,122.125L-79.058,120.625L-78.99,119.125L-78.921,118.5L-78.85,116.667L-78.782,115.083L-78.713,113.792L-78.645,113.458L-78.576,112.208L-78.508,111.542L-78.439,112.208L-78.371,111.667L-78.303,111.208L-78.234,111.417L-78.166,111.708L-78.097,110.833L-78.029,110.292L-77.96,111.875L-77.892,111.833L-77.823,111.333L-77.755,110.583L-77.687,111.333L-77.618,110.875L-77.55,110.417L-77.481,111.375L-77.413,112.333L-77.344,112.792L-77.276,113.583L-77.207,114L-77.139,114.083L-77.07,114.375L-77.002,115.875L-76.934,117.542L-76.865,117.625L-76.797,118.208L-76.728,118.917L-76.66,117.667L-76.591,117.583L-76.523,118.125L-76.454,118.167L-76.386,117.208L-76.318,117.75L-76.249,118.458L-76.181,116.958L-76.112,117.083L-76.044,118.167L-75.975,118.5L-75.907,117.792L-75.838,117.375L-75.77,117.583L-75.702,116.833L-75.633,116.167L-75.565,116.667L-75.496,116.833L-75.428,116L-75.359,115L-75.291,114.625L-75.222,114.542L-75.154,114.583L-75.086,114.167L-75.017,113.625L-74.949,111.917L-74.88,109.958L-74.812,109.833L-74.743,109.917L-74.675,110L-74.606,111.958L-74.538,111.417L-74.47,111.625L-74.401,111.167L-74.333,112.5L-74.264,113.208L-74.196,113.958L-74.127,115.875L-74.059,115.125L-73.99,113.958L-73.922,113.5L-73.854,113.583L-73.785,113.375L-73.717,113.792L-73.648,115.583L-73.58,115.25L-73.511,114.083L-73.443,113.125L-73.374,113.083L-73.306,112.625L-73.238,112.75L-73.169,111.958L-73.101,111.667L-73.032,112.25L-72.964,112.125L-72.895,112.917L-72.827,112.792L-72.758,113.125L-72.69,113.167L-72.621,112.792L-72.553,112.458L-72.485,112.667L-72.416,112.75L-72.348,112.125L-72.279,110.708L-72.211,108.75L-72.142,106.167L-72.074,104.333L-72.005,104.375L-71.937,105.167L-71.869,104.292L-71.8,104.5L-71.732,105.458L-71.663,105.083L-71.595,104.208L-71.526,103.875L-71.458,104.833L-71.389,104.625L-71.321,104.417L-71.253,104.958L-71.184,104.167L-71.116,103.792L-71.047,102.833L-70.979,103.042L-70.91,102.208L-70.842,102.667L-70.773,104.125L-70.705,103.917L-70.637,103.25L-70.568,101.958L-70.5,101.667L-70.431,100.5L-70.363,99.375L-70.294,100.333L-70.229,100.083L-70.16,100.583L-70.092,101.792L-70.023,103.208L-69.955,102.875L-69.886,102.75L-69.818,102.208L-69.75,101.292L-69.681,99.542L-69.613,98.042L-69.544,97.125L-69.476,96.292L-69.407,95.917L-69.339,96.042L-69.27,95.542L-69.202,94.708L-69.134,94.375L-69.065,94.5L-68.997,94.25L-68.928,93.667L-68.86,94.292L-68.791,93.208L-68.723,91.667L-68.654,90.833L-68.586,91.667L-68.518,92.208L-68.449,93.25L-68.381,93.75L-68.312,93.167L-68.244,92.833L-68.175,93.083L-68.107,94.292L-68.038,94.5L-67.97,93.417L-67.902,93.375L-67.833,92.708L-67.765,93.458L-67.696,93.417L-67.628,94.417L-67.559,94.083L-67.491,95.417L-67.422,96.375L-67.354,95.75L-67.286,96.125L-67.217,96.458L-67.149,97.625L-67.08,98L-67.012,98.667L-66.943,100.208L-66.875,100.667L-66.806,101.083L-66.738,101.5L-66.67,102.875L-66.601,103.833L-66.533,104.208L-66.464,105.583L-66.396,103.917L-66.327,103.333L-66.259,104.25L-66.19,104.917L-66.122,104.667L-66.054,103.583L-65.985,104.042L-65.917,104.083L-65.848,104.125L-65.78,104.75L-65.711,106.083L-65.643,104.792L-65.574,105.208L-65.506,107.167L-65.437,106.375L-65.369,106L-65.301,105.958L-65.232,106.167L-65.164,105.083L-65.095,104.75L-65.027,105.417L-64.958,105.167L-64.89,104.917L-64.821,104.708L-64.753,104.792L-64.685,103.833L-64.616,104.583L-64.548,105.417L-64.479,105.417L-64.411,104.958L-64.342,106.417L-64.274,108.583L-64.205,109.25L-64.137,109.708L-64.069,111.625L-64,112.583L-63.932,112.458L-63.863,113.417L-63.795,114.542L-63.726,114.375L-63.658,114.5L-63.589,117.333L-63.521,117.708L-63.453,116.958L-63.384,118.083L-63.316,119.667L-63.247,121.083L-63.179,121.708L-63.11,123.625L-63.042,123.917L-62.973,122.875L-62.905,122.292L-62.837,121.542L-62.768,120.75L-62.7,121.125L-62.631,122.375L-62.563,121.083L-62.494,119.292L-62.426,118.75L-62.357,118.75L-62.289,117.375L-62.221,116.875L-62.152,116.542L-62.084,115.25L-62.015,113.917L-61.947,112.542L-61.878,112.583L-61.81,111.917L-61.741,112.208L-61.673,113.042L-61.604,111.875L-61.536,109.583L-61.468,106.75L-61.399,106.583L-61.331,104.875L-61.262,104.792L-61.194,104.042L-61.125,102.958L-61.057,101.625L-60.988,100.917L-60.92,101.25L-60.852,100.625L-60.783,101.708L-60.715,102.208L-60.646,100.917L-60.578,100.167L-60.509,100.083L-60.441,100.208L-60.372,99.75L-60.304,100.167L-60.236,101.75L-60.167,100.667L-60.099,100.042L-60.03,100.167L-59.962,100.375L-59.893,100.167L-59.825,99.292L-59.756,98.542L-59.688,96.417L-59.62,95.042L-59.551,95.667L-59.483,96.792L-59.414,97.042L-59.346,97.125L-59.277,98.458L-59.209,96.583L-59.14,95.667L-59.072,95.75L-59.004,95.458L-58.935,94.25L-58.867,94.833L-58.798,95.542L-58.73,93.125L-58.661,91.583L-58.593,89.917L-58.524,89.208L-58.456,86.792L-58.388,87.042L-58.319,86.458L-58.251,83.833L-58.182,79.833L-58.114,78.458L-58.045,78.625L-57.977,76.125L-57.908,76.417L-57.84,76L-57.772,74.125L-57.703,70.708L-57.635,69.708L-57.566,70.542L-57.498,68.708L-57.429,69.292L-57.361,71.458L-57.292,69.875L-57.224,67.5L-57.155,65.25L-57.087,64.833L-57.019,62.833L-56.95,63.833L-56.882,63.125L-56.813,61.125L-56.745,58.75L-56.676,58.583L-56.608,59.917L-56.539,59.125L-56.471,58.375L-56.403,61.083L-56.334,60.25L-56.266,59.708L-56.197,59.875L-56.129,61.875L-56.06,60L-55.992,60.708L-55.923,62.125L-55.855,59.375L-55.787,57.875L-55.718,57.833L-55.65,61.333L-55.581,62.458L-55.513,61.5L-55.444,62.583L-55.376,62.417L-55.307,62.042L-55.239,62.583L-55.171,64L-55.102,64.292L-55.034,64.75L-54.965,66.667L-54.897,65.292L-54.828,66.583L-54.76,66.917L-54.691,69L-54.623,68.333L-54.555,68.667L-54.486,72.167L-54.418,74.125L-54.349,75.208L-54.281,77.417L-54.212,79.875L-54.144,81.458L-54.075,82.708L-54.007,86.25L-53.936,85.167L-53.867,85.333L-53.799,86.042L-53.73,88.5L-53.662,89L-53.593,90.083L-53.525,91.667L-53.457,92.125L-53.388,92.625L-53.32,92.542L-53.251,93.167L-53.183,94.083L-53.114,95.833L-53.046,98.875L-52.977,99.542L-52.909,100.167L-52.841,100.833L-52.772,101.292L-52.704,100.583L-52.635,101L-52.567,104.25L-52.498,105.125L-52.43,105.792L-52.361,106.292L-52.293,105.417L-52.225,104.292L-52.156,104.5L-52.088,104.667L-52.019,105.417L-51.951,106.458L-51.882,108L-51.814,110.167L-51.745,112.833L-51.677,113.708L-51.608,116.042L-51.54,115.833L-51.472,116.167L-51.403,116.583L-51.335,116.667L-51.266,116.333L-51.198,115.625L-51.129,116.25L-51.061,114.25L-50.992,113.042L-50.924,112.542L-50.856,111.625L-50.787,110.417L-50.719,110.833L-50.65,111.667L-50.582,112.25L-50.513,112.083L-50.445,111.583L-50.376,110.917L-50.308,109.792L-50.24,109.417L-50.171,109.542L-50.103,108.292L-50.034,107.833L-49.966,106.458L-49.897,105.792L-49.829,101.625L-49.76,100.458L-49.692,100.458L-49.624,100.292L-49.555,100.333L-49.487,100.792L-49.418,100.792L-49.35,99.417L-49.281,99.667L-49.213,100.167L-49.144,99.458L-49.076,98.708L-49.008,99.75L-48.939,101.625L-48.871,101.167L-48.802,102.5L-48.734,104.75L-48.665,103.542L-48.597,103.917L-48.528,103L-48.46,101.417L-48.392,99.208L-48.323,98.5L-48.255,98.667L-48.186,97.708L-48.118,96.583L-48.049,95.417L-47.981,94.75L-47.912,92.208L-47.844,91.417L-47.775,94.708L-47.707,93.208L-47.639,91.75L-47.57,90.792L-47.502,89.625L-47.433,87.5L-47.365,87.333L-47.296,89L-47.228,86.625L-47.159,84.875L-47.091,84.625L-47.023,84.708L-46.954,81.667L-46.886,79.417L-46.817,79.5L-46.749,76.792L-46.68,74.625L-46.612,73.375L-46.543,72.5L-46.475,69.958L-46.407,69.542L-46.338,69.542L-46.27,66.792L-46.201,64.5L-46.133,62.917L-46.064,61.667L-45.996,59.833L-45.927,60.5L-45.859,62.583L-45.791,59.083L-45.722,54.792L-45.654,54.042L-45.585,53.708L-45.517,52.333L-45.448,52.458L-45.38,52.75L-45.314,48.458L-45.246,45.167L-45.177,45.75L-45.109,46.292L-45.04,43.458L-44.972,42.75L-44.904,42.792L-44.835,42.625L-44.767,42.792L-44.698,43.167L-44.63,43.875L-44.561,44.708L-44.493,46.583L-44.424,48.75L-44.356,48.292L-44.288,47.542L-44.219,47.833L-44.151,49.292L-44.082,47.875L-44.014,49.958L-43.945,51.958L-43.877,51L-43.808,51.583L-43.74,53.958L-43.672,56.125L-43.603,54.292L-43.535,52.958L-43.466,53.5L-43.398,50.958L-43.329,49.667L-43.261,50.958L-43.192,52.292L-43.124,50.167L-43.056,50.958L-42.987,52.583L-42.919,49.875L-42.85,50L-42.782,50.083L-42.713,49.667L-42.645,46.75L-42.576,46.292L-42.508,45.75L-42.44,41.458L-42.371,38.417L-42.303,38.833L-42.234,40.417L-42.166,40.333L-42.097,39.875L-42.029,43.917L-41.96,43.292L-41.892,41.458L-41.824,41.167L-41.755,40L-41.687,37.417L-41.618,38.458L-41.55,40.875L-41.481,41.542L-41.413,41.792L-41.344,44.208L-41.276,45.583L-41.208,45.333L-41.139,46.625L-41.071,49.042L-41.002,45.083L-40.934,45.333L-40.865,48.208L-40.797,50.167L-40.728,48L-40.66,49.25L-40.591,53.333L-40.523,52.875L-40.455,54.083L-40.386,56.625L-40.318,58.875L-40.249,57.792L-40.181,58.333L-40.112,58.75L-40.044,57.667L-39.975,55.25L-39.907,54.25L-39.839,56.208L-39.77,55.292L-39.702,56.333L-39.633,59.042L-39.565,58.375L-39.496,60.042L-39.428,62.125L-39.359,64.333L-39.291,64.917L-39.223,66.5L-39.154,69.208L-39.086,68.333L-39.017,69.083L-38.949,71.917L-38.88,73.042L-38.812,71.833L-38.743,72.5L-38.675,76.042L-38.607,75.833L-38.538,75.75L-38.47,76.125L-38.401,76L-38.333,73.667L-38.264,75.083L-38.196,75.958L-38.127,75.208L-38.059,77.042L-37.991,79.083L-37.922,81.5L-37.854,81.042L-37.785,82.125L-37.717,84.75L-37.648,83.667L-37.58,83.417L-37.511,83.25L-37.443,82.208L-37.375,79.833L-37.306,78.417L-37.238,78.5L-37.169,76.333L-37.101,75.375L-37.032,76.417L-36.964,76.458L-36.895,76.042L-36.827,76.792L-36.758,78.583L-36.69,78.375L-36.622,77.583L-36.553,76.5L-36.485,76.667L-36.416,76.542L-36.348,77.208L-36.279,80.417L-36.211,78.917L-36.142,78.958L-36.074,79.125L-36.006,79.583L-35.937,77.208L-35.869,76.583L-35.8,77.958L-35.732,76.542L-35.663,75.167L-35.595,75.917L-35.526,76.625L-35.458,76.792L-35.39,78.125L-35.321,80.5L-35.253,80.25L-35.184,78.5L-35.116,79.167L-35.047,79.583L-34.979,77.958L-34.91,77.875L-34.842,78.125L-34.774,75.5L-34.705,73.5L-34.637,72.208L-34.568,71.208L-34.5,70.542L-34.431,70.5L-34.363,69.625L-34.294,65.75L-34.226,63.875L-34.158,62.75L-34.089,62.917L-34.021,60.5L-33.952,59.375L-33.884,60.542L-33.815,59.5L-33.747,57.708L-33.678,58.125L-33.61,58.917L-33.542,55L-33.473,55.333L-33.405,56.292L-33.336,54.5L-33.268,50.708L-33.199,48.667L-33.131,49.042L-33.062,48.208L-32.994,47.25L-32.926,47.542L-32.857,44.833L-32.789,43.792L-32.72,45.25L-32.652,46.208L-32.583,45.083L-32.515,47L-32.446,48L-32.378,44.833L-32.309,44.292L-32.241,46.125L-32.173,45.5L-32.104,44.375L-32.036,45.042L-31.967,46.333L-31.899,44.75L-31.83,44.708L-31.762,44.542L-31.693,45.833L-31.625,42.333L-31.557,40.958L-31.488,43.25L-31.42,41.833L-31.351,40.167L-31.283,39.375L-31.214,41.542L-31.146,40.167L-31.077,41.208L-31.009,41.792L-30.941,41.583L-30.872,39.458L-30.804,41.292L-30.735,43.083L-30.667,40.208L-30.598,39.625L-30.53,41.25L-30.461,39.375L-30.393,37.583L-30.325,39.583L-30.256,40.417L-30.188,38.292L-30.119,39.5L-30.051,42.875L-29.982,42.208L-29.914,42.5L-29.845,43.75L-29.777,45L-29.709,43.333L-29.64,42.75L-29.572,45.5L-29.503,45.25L-29.435,47.583L-29.366,50.25L-29.298,54L-29.229,55.25L-29.161,55.708L-29.093,58.417L-29.021,57.625L-28.953,57.75L-28.884,58.417L-28.816,61.208L-28.747,59.333L-28.679,59.667L-28.611,62.167L-28.542,64.083L-28.474,63.917L-28.405,64.708L-28.337,65.417L-28.268,64.667L-28.2,65.792L-28.131,69.333L-28.063,67.75L-27.995,66.542L-27.926,67.292L-27.858,68.75L-27.789,68.458L-27.721,68.25L-27.652,71.667L-27.584,73.625L-27.515,75.875L-27.447,79.167L-27.379,79.833L-27.31,77.833L-27.242,77.042L-27.173,78.125L-27.105,78.917L-27.036,81.125L-26.968,83.25L-26.899,85.375L-26.831,85L-26.762,86.5L-26.694,90L-26.626,90.125L-26.557,91.708L-26.489,92L-26.42,93.375L-26.352,92.125L-26.283,94.292L-26.215,95.667L-26.146,96.042L-26.078,96.042L-26.01,98.375L-25.941,99.625L-25.873,98.625L-25.804,99.417L-25.736,100.125L-25.667,99.75L-25.599,98.667L-25.53,97.583L-25.462,95.375L-25.394,92.917L-25.325,92.083L-25.257,94.333L-25.188,95.208L-25.12,94.833L-25.051,93.042L-24.983,91.917L-24.914,89.375L-24.846,88.833L-24.778,90.75L-24.709,90.333L-24.641,88.583L-24.572,88.458L-24.504,88.792L-24.435,87.042L-24.367,87.083L-24.298,89.25L-24.23,88L-24.162,87.75L-24.093,87.958L-24.025,88.792L-23.956,88.333L-23.888,90.125L-23.819,90.75L-23.751,89.958L-23.682,89.792L-23.614,91.083L-23.546,92.458L-23.477,91L-23.409,92.542L-23.34,93L-23.272,92.958L-23.203,90.417L-23.135,88.125L-23.066,88.208L-22.998,88.667L-22.93,88.5L-22.861,90.208L-22.793,89.708L-22.724,89.167L-22.656,89.417L-22.587,91.25L-22.519,90.417L-22.45,90.292L-22.382,90.917L-22.313,90.042L-22.245,88.083L-22.177,87.792L-22.108,87.792L-22.04,86.125L-21.971,85.375L-21.903,86.5L-21.834,83.292L-21.766,83.25L-21.697,82.583L-21.629,83L-21.561,80.667L-21.492,80.167L-21.424,82.292L-21.355,80.625L-21.287,78.917L-21.218,77.833L-21.15,78.5L-21.081,76.25L-21.013,75.083L-20.945,73.125L-20.876,70.792L-20.808,67.875L-20.739,66.417L-20.671,64.792L-20.602,61.25L-20.534,61.458L-20.465,60.792L-20.4,58L-20.331,57.583L-20.263,56.917L-20.195,58.375L-20.126,56.792L-20.058,57L-19.989,56.792L-19.921,54.125L-19.852,51.792L-19.784,51.5L-19.715,50.542L-19.647,47.25L-19.578,46.208L-19.51,47.542L-19.442,46.208L-19.373,44.042L-19.305,43.042L-19.236,44.042L-19.168,41.083L-19.099,40.875L-19.031,42.583L-18.962,39.458L-18.894,38.75L-18.826,38.667L-18.757,39.375L-18.689,37.375L-18.62,38.167L-18.552,38.792L-18.483,35.292L-18.415,34.458L-18.346,34.625L-18.278,33.333L-18.21,28.125L-18.141,28.042L-18.073,29.125L-18.004,27.417L-17.936,27.792L-17.867,28.625L-17.799,28.917L-17.73,27.625L-17.662,28.917L-17.594,31.583L-17.525,30.875L-17.457,29.667L-17.388,29.083L-17.32,29.75L-17.251,29.375L-17.183,30.917L-17.114,35.292L-17.046,34.833L-16.978,33.75L-16.909,35.75L-16.841,37.917L-16.772,36.75L-16.704,37.625L-16.635,40.125L-16.567,39.458L-16.498,39.542L-16.43,39.458L-16.362,40.875L-16.293,38.167L-16.225,39.375L-16.156,44.708L-16.088,42.458L-16.019,41.417L-15.951,43.083L-15.882,44.333L-15.814,43.583L-15.745,44.375L-15.677,47.208L-15.609,46.792L-15.54,46.875L-15.472,46.833L-15.403,47.833L-15.335,45.375L-15.266,47.25L-15.198,48.917L-15.129,46.833L-15.061,43.625L-14.993,42.833L-14.924,44.375L-14.856,43.208L-14.787,43.792L-14.719,46L-14.65,44.25L-14.582,43.167L-14.513,43.125L-14.445,44.292L-14.377,47.458L-14.308,49.458L-14.24,54.625L-14.171,55.083L-14.103,54.5L-14.034,56.375L-13.966,58.917L-13.897,55.292L-13.829,55.667L-13.761,58.25L-13.692,57.958L-13.624,57L-13.555,56.542L-13.487,56.292L-13.418,54.958L-13.35,55.792L-13.281,59.833L-13.213,58.875L-13.145,59.625L-13.076,61.292L-13.008,63.667L-12.939,63.667L-12.871,65.042L-12.802,67.042L-12.734,67.667L-12.665,67.917L-12.597,70.042L-12.529,71.708L-12.46,71.542L-12.392,72.917L-12.323,73.083L-12.255,71.042L-12.186,69.333L-12.118,70L-12.049,72.083L-11.981,71.292L-11.913,71.917L-11.844,75.042L-11.776,75.042L-11.707,75.667L-11.639,76.833L-11.57,77.583L-11.502,76.625L-11.433,77.917L-11.365,81.25L-11.296,79.583L-11.228,78.917L-11.16,78.083L-11.091,78.25L-11.023,75.542L-10.954,76.125L-10.886,78.875L-10.817,76.708L-10.749,76.542L-10.68,74.875L-10.612,74.458L-10.544,71.875L-10.475,71.833L-10.407,72.25L-10.338,70.208L-10.27,68.042L-10.201,69L-10.133,70.667L-10.064,69.542L-9.996,69.125L-9.928,71.25L-9.859,70.625L-9.791,71.625L-9.722,71.708L-9.654,70.667L-9.585,67.417L-9.517,67.708L-9.448,69.25L-9.38,67.333L-9.312,65.833L-9.243,64.833L-9.175,64.208L-9.106,60.292L-9.038,59.417L-8.969,60.125L-8.901,56.708L-8.832,52.042L-8.764,49.667L-8.696,49.333L-8.627,44.083L-8.559,43.708L-8.49,43.958L-8.422,42.75L-8.353,42.125L-8.285,42.292L-8.216,43.583L-8.148,40.958L-8.08,40.208L-8.011,39.75L-7.943,37L-7.874,33.458L-7.806,29.125L-7.737,28.208L-7.669,23.958L-7.6,24.125L-7.532,25.833L-7.463,23.083L-7.395,20.125L-7.327,20.458L-7.258,20.083L-7.19,18.417L-7.121,17.542L-7.053,20.583L-6.984,19.042L-6.916,17.333L-6.847,15.542L-6.779,18.125L-6.711,15.625L-6.642,15.833L-6.574,21.167L-6.505,19.958L-6.437,21.542L-6.368,21.417L-6.3,21.583L-6.231,17.583L-6.163,16.875L-6.095,18.625L-6.026,15.167L-5.958,12.542L-5.889,12.5L-5.821,8.708L-5.752,4.083L-5.684,3.333L-5.615,6L-5.547,4.958L-5.479,5.875L-5.41,6.792L-5.342,7.958L-5.273,4.708L-5.205,4.083L-5.136,5.833L-5.068,2.625L-4.999,0.208L-4.931,0.542L-4.863,3.625L-4.794,2.542L-4.726,2L-4.657,7L-4.589,6.792L-4.52,8.5L-4.452,12.542L-4.383,14.417L-4.315,14.375L-4.247,15.667L-4.178,20.375L-4.107,20.5L-4.038,18.875L-3.97,20.042L-3.901,22.833L-3.833,19.958L-3.765,25.583L-3.696,33.292L-3.628,32.375L-3.559,31.125L-3.491,31.25L-3.422,32.458L-3.354,29.708L-3.285,30.75L-3.217,34.917L-3.149,35.75L-3.08,36.292L-3.012,40.333L-2.943,44.792L-2.875,44.125L-2.806,44.75L-2.738,49.875L-2.669,50.583L-2.601,51.375L-2.533,54L-2.464,55.292L-2.396,54.292L-2.327,54.167L-2.259,55.375L-2.19,56.125L-2.122,55.875L-2.053,57.417L-1.985,61.667L-1.916,63.75L-1.848,65.625L-1.78,71.917L-1.711,72.25L-1.643,72.125L-1.574,74.042L-1.506,76.833L-1.437,75.333L-1.369,74.625L-1.3,78L-1.232,79.375L-1.164,79.875L-1.095,80.792L-1.027,81.917L-0.958,81.292L-0.89,80.75L-0.821,83L-0.753,81.917L-0.684,81.208L-0.616,82.708L-0.548,81.375L-0.479,81.75L-0.411,82L-0.342,83.333L-0.274,81.875L-0.205,82.458L-0.137,82.292L-0.068,82.583L0,78.125L0.068,76.125L0.137,75.417L0.205,73.042L0.274,70.417L0.342,69.542L0.411,71L0.479,69.208L0.548,68.792L0.616,71.333L0.684,70.708L0.753,71.125L0.821,69.458L0.89,68.208L0.958,68.125L1.027,69.458L1.095,71.958L1.164,71.5L1.232,69.625L1.3,68.125L1.369,69.458L1.437,64.583L1.506,64.958L1.574,61.667L1.643,59.667L1.711,57.667L1.78,56.125L1.848,54.625L1.916,50.333L1.985,50.083L2.053,52.917L2.122,51.875L2.19,50.25L2.259,49.875L2.327,52.167L2.396,50L2.464,49.125L2.533,50.125L2.601,48.208L2.669,45.875L2.738,43.083L2.806,42.292L2.875,39.833L2.943,40.542L3.012,40.25L3.08,38.042L3.149,33.625L3.217,33.375L3.285,34.833L3.354,33.542L3.422,33.458L3.491,36L3.559,35.083L3.628,35.042L3.696,32.75L3.765,32.792L3.833,32.833L3.901,33.458L3.97,37.042L4.038,35.375L4.107,33.125L4.175,30.958L4.244,31.833L4.312,30.875L4.381,29.333L4.449,33.042L4.517,31.042L4.586,30.125L4.654,30.167L4.723,31.25L4.791,30.417L4.86,31.583L4.928,34.375L4.994,33.708L5.062,32.375L5.131,29.667L5.199,32.917L5.268,30.375L5.336,30.792L5.404,32.708L5.473,29.792L5.541,29.333L5.61,29.792L5.678,29.458L5.747,28.042L5.815,28.333L5.884,27.958L5.952,25.75L6.02,24.458L6.089,24.875L6.157,26.25L6.226,25.5L6.294,28L6.363,30.417L6.431,28.833L6.5,26.25L6.568,26.917L6.636,28.333L6.705,25.75L6.773,27.458L6.842,29.917L6.91,27.042L6.979,24.083L7.047,23.083L7.116,24.583L7.184,24.667L7.252,24.625L7.321,27.083L7.389,25.542L7.458,25.708L7.526,24.25L7.595,25.667L7.663,24.167L7.732,24.833L7.8,27.583L7.868,25.625L7.937,25.083L8.005,26.833L8.074,27.833L8.142,28.625L8.211,30.583L8.279,35.083L8.348,34.333L8.416,32.667L8.484,33.958L8.553,36.125L8.621,35.25L8.69,36.292L8.758,40.292L8.827,39.25L8.895,41L8.964,43.542L9.032,47.167L9.101,46.708L9.169,48.208L9.237,51.292L9.306,50.458L9.374,50.375L9.443,51.583L9.511,53.792L9.58,54.208L9.648,55.833L9.717,58.333L9.785,58.417L9.853,58.292L9.922,58.833L9.99,61.792L10.059,60.25L10.127,60.292L10.196,61.208L10.264,58.542L10.333,56.583L10.401,55.292L10.469,57.625L10.538,57.333L10.606,58L10.675,62.542L10.743,62.333L10.812,62.708L10.88,62.583L10.949,63.042L11.017,60.25L11.085,60.125L11.154,63.125L11.222,61L11.291,60.875L11.359,61.125L11.428,62.875L11.496,62.833L11.565,63L11.633,67.167L11.701,66L11.77,65.958L11.838,66.583L11.907,68.167L11.975,69.208L12.044,70.083L12.112,73L12.181,72.167L12.249,72.125L12.317,73.875L12.386,76.042L12.454,76.75L12.523,77.542L12.591,79.292L12.66,78.083L12.728,76.083L12.797,76.208L12.865,76.292L12.933,76L13.002,76.5L13.07,80.75L13.139,80.125L13.207,79.333L13.276,80.875L13.344,82.667L13.413,83.875L13.481,85L13.55,86.167L13.618,85.333L13.686,85.708L13.755,86.25L13.823,87.583L13.892,88.5L13.96,89.417L14.029,90.125L14.097,88.583L14.166,87.958L14.234,88.458L14.302,88.917L14.371,88.5L14.439,88.708L14.508,89.75L14.576,88.417L14.645,87.875L14.713,88.25L14.782,88.125L14.85,85.708L14.918,86.417L14.987,88.625L15.055,88.042L15.124,84.667L15.192,84.333L15.261,84.75L15.329,82.917L15.398,82.708L15.466,82.5L15.534,78.333L15.603,74.708L15.671,71.292L15.74,68.083L15.808,63.375L15.877,62.833L15.945,62.958L16.014,58.542L16.082,54.958L16.15,52.458L16.219,51.625L16.287,49.208L16.356,48.125L16.424,47.375L16.493,43.833L16.561,40.417L16.63,39.5L16.698,39.5L16.766,36.75L16.835,36.875L16.903,38.292L16.972,35.625L17.04,31.042L17.109,27.958L17.177,29.167L17.246,26.75L17.314,27.375L17.383,29.125L17.451,26.667L17.519,25.542L17.588,25.542L17.656,27.75L17.725,28.167L17.793,30.083L17.862,32.333L17.93,29.958L17.999,27.458L18.067,28.5L18.135,30.417L18.204,31.708L18.272,31.958L18.341,33.417L18.409,30.667L18.478,29.042L18.546,31.083L18.615,33.083L18.683,31.75L18.751,30.542L18.82,32.917L18.888,29.625L18.957,27.333L19.025,26.958L19.094,29.375L19.162,29.125L19.231,31.125L19.299,34.625L19.367,31.667L19.436,30.583L19.504,31.333L19.573,31.917L19.641,31.833L19.71,32.583L19.778,34.5L19.847,32.375L19.915,30.458L19.983,28.958L20.052,28.917L20.12,27.167L20.189,28.5L20.257,30.458L20.326,30L20.394,31.583L20.463,36.083L20.531,40.542L20.599,39.875L20.668,41.208L20.736,43.458L20.805,42.833L20.873,40.958L20.942,44.208L21.01,45.792L21.079,44.875L21.147,43.958L21.215,45.708L21.287,43.042L21.355,41.167L21.424,41.458L21.492,42.625L21.561,41.417L21.629,42.042L21.697,45.625L21.766,45.583L21.834,44.583L21.903,47.417L21.971,52.458L22.04,56.708L22.108,59.458L22.177,63.5L22.245,62.458L22.313,62.25L22.382,63.208L22.45,64.167L22.519,64.583L22.587,65.208L22.656,68.167L22.724,68.625L22.793,69.5L22.861,71.667L22.93,75.208L22.998,76.333L23.066,79.708L23.135,84.458L23.203,86.25L23.272,86.542L23.34,86.792L23.409,89.667L23.477,91.333L23.546,92.625L23.614,95.583L23.682,95.333L23.751,94.5L23.819,93.458L23.888,94.5L23.956,92.292L24.025,91.917L24.093,89.25L24.162,88.042L24.23,86.042L24.298,85.958L24.367,85.542L24.435,83.125L24.504,81.958L24.572,81.208L24.641,79.708L24.709,76L24.778,72.583L24.846,71.042L24.914,68.458L24.983,66.875L25.051,65.833L25.12,62.458L25.188,59.167L25.257,58.667L25.325,60.375L25.394,60.667L25.462,60.417L25.53,60.542L25.599,57.875L25.667,54L25.736,55L25.804,55.958L25.873,55.708L25.941,57.167L26.01,59.083L26.078,58.125L26.146,58.458L26.215,59.5L26.283,61.792L26.352,60L26.42,60.583L26.489,63.292L26.557,61L26.626,56.5L26.694,53.25L26.762,55.208L26.831,55.292L26.899,56.875L26.968,58.5L27.036,57.125L27.105,56.25L27.173,56.083L27.242,57.542L27.31,56.542L27.379,56.333L27.447,56.833L27.515,54.458L27.584,53.292L27.652,53.75L27.721,56.708L27.789,55.125L27.858,54.833L27.926,55.792L27.995,57.083L28.063,58.375L28.131,58.583L28.2,60.708L28.268,59.792L28.337,60.25L28.405,63.25L28.474,60.458L28.542,58.625L28.611,61.375L28.679,63.792L28.747,64.5L28.816,65.25L28.884,66.625L28.953,63.75L29.021,62.333L29.09,61.375L29.158,62.375L29.227,62.375L29.295,62.125L29.363,63.458L29.432,61.083L29.5,56.833L29.569,57.458L29.637,58.625L29.706,57.167L29.774,56.25L29.843,55.542L29.908,52.167L29.977,49.083L30.045,44.708L30.114,43.125L30.182,41.208L30.25,41.458L30.319,40.333L30.387,37.792L30.456,36.292L30.524,37.458L30.593,38.208L30.661,34.792L30.73,35.708L30.798,36.5L30.866,34.458L30.935,32.917L31.003,33.167L31.072,34.417L31.14,34.75L31.209,34.333L31.277,36.042L31.346,34.292L31.414,31.208L31.482,31.542L31.551,36.375L31.619,36L31.688,36L31.756,37.25L31.825,37.625L31.893,38.542L31.962,40.167L32.03,43L32.098,45.417L32.167,46.625L32.235,47.125L32.304,43.958L32.372,42.375L32.441,42.917L32.509,45.125L32.578,44.375L32.646,45.458L32.714,48.292L32.783,45.958L32.851,45.667L32.92,46.833L32.988,49.583L33.057,50.792L33.125,52.292L33.194,56.083L33.262,56.458L33.33,54.542L33.399,54.167L33.467,56.25L33.536,53.292L33.604,52.917L33.673,54.208L33.741,53.042L33.81,50.417L33.878,49.333L33.946,48.667L34.015,48.167L34.083,49.208L34.152,50.583L34.22,50.042L34.289,51.125L34.357,52.625L34.426,55.917L34.494,54.25L34.563,54.25L34.631,57.5L34.699,57.25L34.768,57.042L34.836,59.583L34.905,61.042L34.973,60.583L35.042,61.125L35.11,61.833L35.179,60.792L35.247,59.208L35.315,58.125L35.384,60.667L35.452,62.167L35.521,64.458L35.589,70.583L35.658,73.292L35.726,74.75L35.795,75.542L35.863,79.083L35.931,79.292L36,80.917L36.068,82.625L36.137,81.625L36.205,80.083L36.274,80.583L36.342,81.083L36.411,80.458L36.479,80.625L36.547,83.833L36.616,84L36.684,82.917L36.753,83.625L36.821,85.375L36.89,85.208L36.958,85.458L37.027,85.625L37.095,84.417L37.163,83.958L37.232,83.583L37.3,84.25L37.369,83.667L37.437,83.125L37.506,84.458L37.574,82.25L37.643,80.417L37.711,78.042L37.779,77L37.848,77.25L37.916,78.083L37.985,80.25L38.053,80.167L38.122,78.542L38.19,78.708L38.259,78.917L38.327,76.583L38.396,77.208L38.464,78.667L38.532,77.875L38.601,76.875L38.669,75.792L38.738,76.625L38.806,75.583L38.875,74.417L38.943,75.25L39.012,75.208L39.08,75.5L39.148,75.292L39.217,75.667L39.285,74.083L39.354,74.292L39.422,75.125L39.491,74.083L39.559,72.917L39.628,73.542L39.696,74.125L39.764,73.667L39.833,74.792L39.901,75.875L39.97,75.417L40.038,73.958L40.107,71.5L40.175,71.125L40.244,66.708L40.312,66.958L40.38,66.667L40.449,63.292L40.517,61.458L40.586,60.5L40.654,60.625L40.723,58.375L40.791,57.375L40.86,56.875L40.928,54.417L40.996,50.625L41.065,48.583L41.133,48.458L41.202,46.5L41.27,46.25L41.339,47.417L41.407,44.208L41.476,43.917L41.544,44.083L41.612,43.5L41.681,41.167L41.749,40.417L41.818,38.458L41.886,34.542L41.955,30.042L42.023,28.125L42.092,28.083L42.16,26.75L42.228,29.042L42.297,34.167L42.365,33.375L42.434,34.417L42.502,34.333L42.571,34.625L42.639,31.417L42.708,30.958L42.776,32.292L42.845,29.417L42.913,27.75L42.981,26L43.05,26.292L43.118,23.792L43.187,23.375L43.255,23.375L43.324,19.917L43.392,18.542L43.461,19.625L43.529,19.833L43.597,16L43.666,17.292L43.734,19L43.803,17.333L43.871,17.083L43.94,15.083L44.008,16.667L44.077,13.708L44.145,13.917L44.213,14.833L44.282,12.458L44.35,11L44.419,10.333L44.487,11.292L44.556,11.625L44.624,13.083L44.693,16.708L44.761,13.25L44.829,12.5L44.898,13.625L44.966,15.542L45.035,16.833L45.103,20L45.172,23.875L45.24,24.167L45.309,25.667L45.377,30.875L45.445,35.417L45.514,37.125L45.582,39.125L45.651,43.417L45.719,41.208L45.788,40.083L45.856,41.5L45.925,43.667L45.993,45.917L46.061,47.792L46.13,51.042L46.201,49.292L46.27,51.292L46.338,52.208L46.407,53.292L46.475,53.958L46.543,55.042L46.612,56.875L46.68,56.417L46.749,58.208L46.817,62.5L46.886,65.583L46.954,66.542L47.023,67.75L47.091,70.917L47.159,69.375L47.228,69.75L47.296,70.292L47.365,72.042L47.433,71.917L47.502,71.208L47.57,73.083L47.639,73.542L47.707,73.833L47.775,77.542L47.844,81.208L47.912,83.208L47.981,85.792L48.049,90.458L48.118,91.083L48.186,92.917L48.255,96.958L48.323,99.083L48.392,100.667L48.46,102.75L48.528,104.583L48.597,103.083L48.665,103.75L48.734,104.208L48.802,103.958L48.871,103.292L48.939,102.417L49.008,103.708L49.076,103.125L49.144,101.458L49.213,101.958L49.281,102.833L49.35,100.375L49.418,99.833L49.487,98.208L49.555,96.708L49.624,93.917L49.692,90.542L49.76,89.792L49.829,86.25L49.897,84.917L49.966,81.417L50.034,78.417L50.103,74.458L50.171,73.417L50.24,73.042L50.308,69.583L50.376,68.75L50.445,68.917L50.513,66.25L50.582,65.125L50.65,65.167L50.719,64.917L50.787,61.458L50.856,61.5L50.924,62.25L50.992,60.458L51.061,58.875L51.129,59.083L51.198,61.333L51.266,59.917L51.335,59.083L51.403,60.5L51.472,58.083L51.54,56L51.608,54.625L51.677,55.083L51.745,52.792L51.814,52.958L51.882,54.292L51.951,51.792L52.019,51.208L52.088,51.417L52.156,53.75L52.225,52.792L52.293,52.5L52.361,53.792L52.43,51.208L52.498,50.917L52.567,52.208L52.635,52.083L52.704,49.167L52.772,49.208L52.841,52.333L52.909,50.208L52.977,48.417L53.046,49.25L53.114,49.708L53.183,47.042L53.251,45.208L53.32,45.167L53.388,43.958L53.457,45.292L53.525,48.083L53.593,50.167L53.662,47.458L53.73,46.542L53.799,49.417L53.867,47.833L53.936,45.5L54.004,45.125L54.073,46.958L54.141,45.292L54.209,45.375L54.278,46.75L54.346,44.375L54.415,43.792L54.483,44.167L54.552,42.167L54.62,36.708L54.689,37.292L54.757,38.625L54.823,36.208L54.891,34.083L54.96,32.042L55.028,30.5L55.096,23.583L55.165,23.875L55.233,25.167L55.302,23.292L55.37,22.875L55.439,22.375L55.507,20.125L55.576,14.625L55.644,14.792L55.712,16.958L55.781,13.625L55.849,10.25L55.918,9.833L55.986,11.833L56.055,10.292L56.123,10.792L56.192,13.042L56.26,10.125L56.328,9.083L56.397,10.208L56.465,9.333L56.534,8.083L56.602,9.375L56.671,12.625L56.739,8.792L56.808,8.708L56.876,9.833L56.944,11.292L57.013,10.833L57.081,15.083L57.15,19.417L57.218,16.958L57.287,15.458L57.355,17.542L57.424,19.5L57.492,19.667L57.56,21.917L57.629,26.292L57.697,25.458L57.766,25.667L57.834,28.542L57.903,32.083L57.971,32.833L58.04,35.375L58.108,40.792L58.176,40.25L58.245,38.5L58.313,37.292L58.382,37.542L58.45,32.958L58.519,34.458L58.587,35.167L58.656,31.792L58.724,29.042L58.792,28.833L58.861,28.625L58.929,25.917L58.998,25.833L59.066,28.125L59.135,23.667L59.203,24.792L59.272,26.625L59.34,28.917L59.409,26.333L59.477,27.958L59.545,29.75L59.614,28.625L59.682,28.875L59.751,29.125L59.819,31.75L59.888,29.125L59.956,30.458L60.025,31.292L60.093,27.833L60.161,25.917L60.23,26.75L60.298,28.792L60.367,30.458L60.435,32.833L60.504,39.542L60.572,40.833L60.641,44.125L60.709,48.625L60.777,53.667L60.846,55.333L60.914,57.875L60.983,61.583L61.051,62.292L61.12,63.667L61.188,65.917L61.257,68.167L61.325,66.333L61.393,67.333L61.462,70.792L61.53,70.042L61.599,69.417L61.667,69.583L61.736,70.167L61.804,67.5L61.873,66.792L61.941,71.167L62.009,68.875L62.078,70L62.146,72.458L62.215,73.917L62.283,71.417L62.352,72L62.42,73.458L62.489,70.25L62.557,68.375L62.625,66.458L62.694,65.333L62.762,62.583L62.831,63.125L62.899,65.625L62.968,65.208L63.036,65.875L63.105,65.875L63.173,66.667L63.242,67.583L63.31,67.25L63.378,70.458L63.447,68.875L63.515,67.833L63.584,68.125L63.652,69.542L63.721,68.25L63.789,68.458L63.858,72.208L63.926,70.833L63.994,71L64.063,72.875L64.131,72.833L64.2,70.083L64.268,69.792L64.337,72.833L64.405,73.333L64.474,73.542L64.542,76.292L64.61,77.667L64.679,77.042L64.747,77.542L64.816,80.958L64.884,80.208L64.953,79.208L65.021,79.375L65.09,78.958L65.158,75.625L65.226,75.375L65.295,75.958L65.363,74.458L65.432,73.375L65.5,73L65.569,73.083L65.637,69.25L65.706,67.958L65.774,68.292L65.842,67.958L65.911,66.333L65.979,65.708L66.048,64.75L66.116,61.167L66.185,59.958L66.253,61.667L66.322,60.25L66.39,57.792L66.458,55.625L66.527,56.083L66.595,51.25L66.664,50.917L66.732,50.875L66.801,49.708L66.869,48.667L66.938,48.208L67.006,48.292L67.074,43.542L67.143,43.375L67.211,46.292L67.28,43.083L67.348,39.083L67.417,39.958L67.485,39.542L67.554,36.458L67.622,36.75L67.691,37.875L67.759,32.5L67.827,31.458L67.896,29.25L67.964,29.5L68.033,27.583L68.101,28.5L68.17,30.167L68.238,28.333L68.307,24.583L68.375,21.708L68.443,22.375L68.512,23.625L68.58,23.625L68.649,26.667L68.717,21.25L68.786,19.667L68.854,16.833L68.923,14.917L68.991,10.708L69.059,10.75L69.128,15.25L69.196,13.75L69.265,12L69.333,12.875L69.402,14.875L69.47,9.333L69.539,9.708L69.607,14L69.675,13.125L69.744,13.208L69.812,18.792L69.881,21.458L69.949,18.708L70.018,19.167L70.086,22.042L70.155,20.542L70.223,22.958L70.291,27.333L70.36,33.583L70.428,37.833L70.497,40.125L70.565,40.458L70.634,37.208L70.702,36.042L70.771,40.625L70.839,43.333L70.907,42.75L70.976,44.167L71.044,47.208L71.116,45.625L71.184,44.125L71.253,45.583L71.321,48.75L71.389,48.375L71.458,50.125L71.526,56.792L71.595,56.917L71.663,56.208L71.732,56.625L71.8,58.417L71.869,56.458L71.937,57.375L72.005,61.75L72.074,61.292L72.142,61.458L72.211,63.125L72.279,63.917L72.348,62L72.416,61.125L72.485,62.583L72.553,63.625L72.621,65L72.69,68.417L72.758,71.208L72.827,70.917L72.895,71.875L72.964,77.625L73.032,79.25L73.101,80.667L73.169,80.792L73.238,81.708L73.306,80.542L73.374,80.375L73.443,82.333L73.511,81.208L73.58,79.458L73.648,80.458L73.717,80.125L73.785,79.542L73.854,80.417L73.922,81.792L73.99,78.417L74.059,78.292L74.127,78.5L74.196,80.208L74.264,77.333L74.333,77.167L74.401,78.375L74.47,78.125L74.538,75.833L74.606,74.375L74.675,72.458L74.743,68.458L74.812,67.917L74.88,67.75L74.949,66.75L75.017,64.583L75.086,62.833L75.154,63.333L75.222,61.542L75.291,61.792L75.359,62.833L75.428,61.167L75.496,60.917L75.565,59.833L75.633,61.292L75.702,57.333L75.77,56.167L75.838,57.25L75.907,57.083L75.975,57.875L76.044,58.917L76.112,59.417L76.181,57.083L76.249,55.833L76.318,58.417L76.386,57.083L76.454,56.333L76.523,54.625L76.591,55.083L76.66,51L76.728,52.5L76.797,55.292L76.865,54.083L76.934,54.458L77.002,54L77.07,54.5L77.139,53.417L77.207,53.125L77.276,56.875L77.344,56.167L77.413,56.5L77.481,57.875L77.55,59.542L77.618,59.542L77.687,60.083L77.755,63.333L77.823,63.667L77.892,61.583L77.96,60.125L78.029,58.667L78.097,56.75L78.166,57.083L78.234,60.042L78.303,56.708L78.371,54.292L78.439,52.958L78.508,53.167L78.576,50.417L78.645,50.083L78.713,52.292L78.782,49L78.85,47.458L78.919,44.5L78.987,44.167L79.055,39.833L79.124,38.875L79.192,39L79.261,36.5L79.329,33.417L79.398,33.333L79.466,33.542L79.535,29.417L79.603,27.375L79.671,27.417L79.737,23.583L79.805,19.792L79.874,16.75L79.942,16.875L80.011,13.292L80.079,13.708L80.148,15.958L80.216,14.292L80.285,11.292L80.353,13.792L80.422,15L80.49,16.333L80.558,16.917L80.627,20.542L80.695,19.542L80.764,17.042L80.832,17.292L80.901,19.417L80.969,21.042L81.038,22.708L81.106,27.917L81.174,25.625L81.243,24.417L81.311,24.708L81.38,24L81.448,22.125L81.517,22.958L81.585,24.375L81.654,24L81.722,24.292L81.79,26L81.859,29.292L81.927,30.25L81.996,34.167L82.064,38.458L82.133,37.833L82.201,36.333L82.27,34.958L82.338,37.375L82.406,36.083L82.475,37.875L82.543,37.333L82.612,34.375L82.68,32.5L82.749,31.333L82.817,33.958L82.886,34.083L82.954,35.458L83.022,38.208L83.091,37.417L83.159,36.625L83.228,38.542L83.296,39.833L83.365,37.958L83.433,41.458L83.502,43L83.57,40.125L83.638,41.667L83.707,42.042L83.775,42.75L83.844,40.333L83.912,41.292L83.981,45.417L84.049,43.292L84.118,40.667L84.186,40.375L84.255,41.625L84.323,40.833L84.391,42.208L84.46,44.583L84.528,42.292L84.597,42.375L84.665,44.125L84.734,45.375L84.802,44.958L84.871,46.875L84.939,47.792L85.007,44.375L85.076,43.208L85.144,43.5L85.213,43.667L85.281,46.375L85.35,47.708L85.418,52.208L85.487,52.917L85.555,56.125L85.623,59.75L85.692,61.708L85.76,64.583L85.829,66.5L85.897,70.167L85.966,70.5L86.034,70.833L86.103,72.167L86.171,75.292L86.239,78.5L86.308,79.708L86.376,83.625L86.445,83.667L86.513,84.667L86.582,87.375L86.65,89.167L86.719,91.125L86.787,93.542L86.855,96.833L86.924,95.292L86.992,95.583L87.061,98.667L87.129,98.958L87.266,100.583L87.335,101.958L87.403,100.583L87.471,99.958L87.54,98.875L87.608,98.625L87.677,97.042L87.745,97.083L87.814,95.875L87.882,94.292L87.951,94.542L88.019,95.167L88.087,95.333L88.156,94.208L88.224,94.417L88.293,95.125L88.361,94.167L88.43,94.042L88.498,94.125L88.567,93.917L88.635,92.75L88.704,92.083L88.772,92.208L88.84,90.792L88.909,89.292L88.977,88.667L89.046,89.583L89.114,89.458L89.183,89.583L89.251,89.375L89.32,86.75L89.388,85.667L89.456,84.792L89.525,84.667L89.593,84.625L89.662,85.917L89.73,87.667L89.799,84.708L89.867,84.958L89.936,83.25L90.004,81.583L90.072,77.708L90.141,77.25L90.209,76.875L90.278,73.625L90.346,72.042L90.415,71.125L90.483,69.458L90.552,66.292L90.62,66.833L90.688,65.75L90.757,64.292L90.825,61.667L90.894,60.042L90.962,59.458L91.031,58L91.099,58.667L91.168,58.958L91.236,57.208L91.304,56.958L91.373,56.042L91.441,55.917L91.51,53.917L91.578,54.458L91.647,54.417L91.715,51.542L91.784,49.667L91.852,48.708L91.92,46.792L91.989,45.167L92.057,45.208L92.126,48.292L92.194,46.208L92.263,46.208L92.331,46.792L92.4,47.333L92.468,46.083L92.537,47.5L92.605,51.5L92.673,49.333L92.742,50L92.81,51.292L92.879,51.542L92.947,50.5L93.016,51.875L93.084,52.917L93.153,50.333L93.221,49.458L93.289,48.667L93.358,48.583L93.426,48.75L93.495,50.25L93.563,51.375L93.632,49.917L93.7,47.333L93.769,47.667L93.837,47.292L93.905,47.292L93.974,49.458L94.042,51.5L94.111,50.625L94.179,49.583L94.248,50.833L94.316,52.167L94.385,51.75L94.453,52.083L94.521,53.75L94.59,53.25L94.658,51.958L94.727,51.125L94.795,51.083L94.864,49.417L94.932,51.208L95.001,54.458L95.069,52.208L95.137,51.792L95.206,53L95.274,53.667L95.343,53.75L95.411,56.042L95.48,58.292L95.548,57.208L95.617,58.917L95.685,61.042L95.753,65.75L95.822,66.667L95.89,69.167L95.959,72.958L96.03,73.375L96.099,74.667L96.167,75.875L96.235,77.542L96.304,78.292L96.372,78.875L96.441,82.125L96.509,82.5L96.578,82.792L96.646,83.292L96.715,83.958L96.783,86.125L96.851,86.792L96.92,87.833L96.988,88.625L97.057,88.083L97.125,90.333L97.194,92.292L97.262,92.75L97.331,94.125L97.399,96.333L97.467,96.708L97.536,98.5L97.604,100.292L97.673,101.583L97.741,100.333L97.81,99.75L97.878,100.792L97.947,100.375L98.015,100.417L98.084,100.25L98.152,101.167L98.22,101.083L98.289,101.708L98.357,101.625L98.426,101.125L98.494,100.125L98.563,100.125L98.631,99.583L98.7,98.583L98.768,98.333L98.836,98.417L98.905,97.833L98.973,97.667L99.042,95.958L99.11,96.375L99.179,95.5L99.247,95.708L99.316,95.75L99.384,94.917L99.452,93.792L99.521,90.625L99.589,88.25L99.658,86.833L99.726,85.333L99.795,85.583L99.863,82.292L99.932,79.833L100,77.375L100.068,75.292L100.137,74.083L100.205,74.417L100.274,73.75L100.342,72.333L100.411,71.083L100.479,70.5L100.548,70.292L100.616,69.708L100.684,70.833L100.753,71.917L100.821,70.625L100.89,70.125L100.958,70.5L101.027,71.833L101.095,71.833L101.164,71.875L101.232,71.667L101.3,70.25L101.369,69.458L101.437,69.875L101.506,69.792L101.574,71.125L101.643,72.042L101.711,71.75L101.78,70.792L101.848,69.958L101.916,71.208L101.985,72.5L102.053,72.958L102.122,74.208L102.19,75.458L102.259,73.792L102.327,74.042L102.396,73.625L102.464,74.667L102.533,73.5L102.601,74.5L102.669,74.417L102.738,71.875L102.806,70.792L102.875,70.792L102.943,71.208L103.012,70.417L103.08,71.167L103.149,72.708L103.217,70.792L103.285,70.083L103.354,70.292L103.422,70.792L103.491,69.417L103.559,71.667L103.628,72.458L103.696,71.667L103.765,71.625L103.833,72.792L103.901,73.75L103.97,74.417L104.038,75.583L104.107,76.667L104.175,76.792L104.244,77.375L104.312,79.292L104.381,81.958L104.449,84.375L104.517,86.667L104.586,89.625L104.651,89.667L104.72,90.208L104.788,93.458L104.857,96.292L104.925,98.917L104.994,100.542L105.062,103.583L105.131,103.417L105.199,103.458L105.268,105.833L105.336,108.042L105.404,109.833L105.473,112.125L105.541,114.542L105.61,113.625L105.678,113.625L105.747,114.458L105.815,115.833L105.884,116.875L105.952,118.708L106.02,120.25L106.089,119.917L106.157,120.042L106.226,120.208L106.294,120.667L106.363,120.458L106.431,120.083L106.5,119.542L106.568,118.083L106.636,117.25L106.705,116.958L106.773,116.917L106.842,116.708L106.91,116.458L106.979,115.667L107.047,114.792L107.116,114L107.184,112.75L107.252,111.625L107.321,111.5L107.389,111.333L107.458,110.167L107.526,108.667L107.595,107.625L107.663,107.5L107.732,107.125L107.8,107.5L107.868,107.75L107.937,107.833L108.005,106.125L108.074,103.958L108.142,101.667L108.211,101.417L108.279,100.667L108.348,100.5L108.416,100.25L108.484,98.917L108.553,98.958L108.621,99.125L108.69,99.583L108.758,99.667L108.827,100.458L108.895,99.958L108.964,99.417L109.032,99.167L109.101,99.25L109.169,98.042L109.237,97.708L109.306,98.708L109.374,98.208L109.443,97L109.511,96.458L109.58,96.042L109.648,96.042L109.717,94.875L109.785,96L109.853,96.083L109.922,95.708L109.99,94.708L110.059,94.167L110.127,94.583L110.196,95.75L110.264,96.625L110.333,97.042L110.401,96.708L110.469,96.25L110.538,95.208L110.606,95.708L110.675,96.708L110.743,97.375L110.812,97.833L110.88,97.458L110.949,97.083L111.017,96.917L111.085,97.667L111.154,96.792L111.222,97.667L111.291,99.5L111.359,99.583L111.428,100L111.496,100.292L111.565,101.292L111.633,101.5L111.701,102.458L111.77,104.125L111.838,103.333L111.907,103.208L111.975,102.833L112.044,103.625L112.112,104.583L112.181,106.708L112.249,108.167L112.317,107.917L112.386,108.333L112.454,108.125L112.523,108.708L112.591,110.042L112.66,110.333L112.728,109.792L112.797,108.875L112.865,108.333L112.933,108.458L113.002,109.125L113.07,108.083L113.139,108.167L113.207,109.333L113.276,109.292L113.344,107.875L113.413,107.333L113.481,107.167L113.55,107.042L113.618,107.917L113.686,108.292L113.755,106.875L113.823,105.5L113.892,105.625L113.96,105L114.029,104.5L114.097,105.125L114.166,105.25L114.234,103.542L114.302,101.917L114.371,100.875L114.439,100.667L114.508,100.792L114.576,100.625L114.645,100.792L114.713,99.542L114.782,98.083L114.85,97.417L114.918,98.042L114.987,97.5L115.055,97.292L115.124,99.333L115.192,98.542L115.261,97.458L115.329,97.333L115.398,97.125L115.466,96L115.534,96L115.603,95.833L115.671,93.792L115.74,92.958L115.808,92.375L115.877,92.958L115.945,90.583L116.014,91.042L116.082,91.333L116.15,89.542L116.219,88.292L116.287,87.083L116.356,87.5L116.424,86.75L116.493,86.667L116.561,86.417L116.63,84.667L116.698,83.625L116.766,82.125L116.835,81.875L116.903,81.375L116.972,81.292L117.04,80.042L117.109,77.667L117.177,75.583L117.246,75L117.314,75.792L117.383,74.875L117.451,76L117.519,77.667L117.588,76.042L117.656,73.958L117.725,73.333L117.793,74.125L117.862,73.958L117.93,73.667L117.999,74.667L118.067,71.833L118.135,70L118.204,69.125L118.272,68.167L118.341,67.917L118.409,68.917L118.478,69.625L118.546,67.25L118.615,64.125L118.683,64.875L118.751,66L118.82,67.083L118.888,68.5L118.957,69.25L119.025,68.625L119.094,69.125L119.162,69.75L119.231,69L119.299,68L119.367,67.25L119.436,67.083L119.504,65.042L119.573,64.75L119.641,65.667L119.71,68.5L119.778,69.583L119.847,70.292L119.915,70.667L119.983,69.75L120.052,71.125L120.12,72.917L120.189,73.542L120.257,73.542L120.326,76.417L120.394,77.75L120.463,77.083L120.531,77.542L120.599,80.875L120.668,84.958L120.736,85.75L120.805,85.917L120.873,87.042L120.945,86.333L121.013,86.125L121.081,86.125L121.15,86.958L121.218,88.542L121.287,90.792L121.355,91.792L121.424,91.333L121.492,91.75L121.561,93.167L121.629,93.042L121.697,91.833L121.766,92.333L121.834,92.5L121.903,91.708L121.971,92.958L122.04,95.667L122.108,96.667L122.177,97.833L122.245,100.083L122.313,102.125L122.382,100.667L122.45,101.167L122.519,102.375L122.587,103.75L122.656,103.542L122.724,103.708L122.793,103.958L122.861,103.708L122.93,102.5L122.998,103.542L123.066,105.5L123.135,106.5L123.203,107.542L123.272,107.833L123.34,105.458L123.409,105.542L123.477,105.417L123.546,106.083L123.614,106.292L123.682,107.167L123.751,108.458L123.819,106.542L123.888,106.375L123.956,105.375L124.025,104.958L124.093,103.667L124.162,103.125L124.23,102.708L124.298,100.875L124.367,99.333L124.435,99.667L124.504,99.958L124.572,99L124.641,97.625L124.709,96.375L124.778,95.292L124.846,95.625L124.914,94.667L124.983,95.5L125.051,94.542L125.12,93.417L125.188,93.875L125.257,94.292L125.325,94.25L125.394,95.625L125.462,96.333L125.53,97.042L125.599,97.625L125.667,98.292L125.736,97.458L125.804,96.792L125.873,97.875L125.941,99L126.01,99.917L126.078,101.125L126.146,101.625L126.215,99.667L126.283,99.083L126.352,100.667L126.42,102.25L126.489,103.083L126.557,103.625L126.626,104.208L126.694,103.458L126.762,103.792L126.831,103.208L126.899,102.25L126.968,102.833L127.036,103.708L127.105,103.958L127.173,102.875L127.242,101.167L127.31,99.042L127.379,99.125L127.447,98.708L127.515,99.125L127.584,99.375L127.652,98L127.721,96.333L127.789,94.042L127.858,94.375L127.926,93.042L127.995,92.5L128.063,91.542L128.131,89.25L128.2,86.167L128.268,86.833L128.337,87.375L128.405,85.583L128.474,85.625L128.542,84.125L128.611,81.5L128.679,79.292L128.747,77.958L128.816,77.458L128.884,76.417L128.953,77.375L129.021,77.5L129.09,76.125L129.158,76.333L129.227,76.667L129.295,77.083L129.363,77.5L129.432,78.042L129.5,78.667L129.569,76.458L129.637,74.625L129.706,74.958L129.774,75.917L129.843,76.25L129.911,77L129.979,78.083L130.045,76.75L130.114,76.625L130.182,77.833L130.25,80L130.319,79.833L130.387,80L130.456,80.5L130.524,79.792L130.593,79.958L130.661,80.792L130.73,81.083L130.798,82.167L130.866,83.333L130.935,84.208L131.003,82.292L131.072,81.125L131.14,78.667L131.209,77.708L131.277,77.333L131.346,77.833L131.414,78.292L131.482,76.458L131.551,76.625L131.619,77.625L131.688,79.042L131.756,78.708L131.825,78.917L131.893,80.292L131.962,77.875L132.03,76.792L132.098,77.417L132.167,78.792L132.235,78.125L132.304,78.792L132.372,79.375L132.441,78.208L132.509,78.875L132.578,78.375L132.646,78.625L132.714,78.625L132.783,80.208L132.851,80.708L132.92,79.292L132.988,79.458L133.057,80.75L133.125,82.625L133.194,85.958L133.262,88L133.33,89.917L133.399,89L133.467,88.125L133.536,88.375L133.604,88.875L133.673,89.375L133.741,91.083L133.81,92.583L133.878,93.25L133.946,93.917L134.015,96.375L134.083,97.375L134.152,97.167L134.22,97.917L134.289,99.167L134.357,97.917L134.426,97.875L134.494,98.75L134.563,98.583L134.631,98.5L134.699,100.333L134.768,102.25L134.836,102.125L134.905,102.292L134.973,103.333L135.042,104.333L135.11,103.958L135.179,104.458L135.247,104.542L135.315,104.333L135.384,103.417L135.452,104.5L135.521,106.667L135.589,108L135.658,108.917L135.726,110.417L135.795,110.208L135.863,110.208L135.931,109.792L136,110.417L136.068,110.292L136.137,111.75L136.205,113.542L136.274,113.125L136.342,113.208L136.411,114.375L136.479,115.625L136.547,116.333L136.616,117.167L136.684,118.625L136.753,117.333L136.821,116.667L136.89,116.875L136.958,117.708L137.027,117.333L137.095,117.625L137.163,118.375L137.232,117.5L137.3,116.542L137.369,116.208L137.437,116.042L137.506,115.375L137.574,115L137.643,114.542L137.711,112.667L137.779,111.125L137.848,108.625L137.916,108.333L137.985,108.167L138.053,108.167L138.122,108.958L138.19,108.292L138.259,108.042L138.327,108.333L138.396,108.542L138.464,108.75L138.532,108.833L138.601,109.083L138.669,108.667L138.738,108.625L138.806,109.5L138.875,110L138.943,110.083L139.012,110.792L139.08,111.667L139.148,111.5L139.217,111.625L139.285,111.917L139.354,112.917L139.422,112.292L139.491,112.875L139.559,112.958L139.628,112.042L139.696,112.792L139.764,114.542L139.833,114.708L139.901,116.25L139.97,116.042L140.038,116.625L140.107,115.375L140.175,114.917L140.244,115.333L140.312,115.417L140.38,113.458L140.449,113.167L140.517,113.125L140.586,112L140.654,111.583L140.723,111.458L140.791,111.083L140.86,109.875L140.928,109.042L140.996,108.583L141.065,106.5L141.133,105.042L141.202,104.083L141.27,103.625L141.339,102.083L141.407,102.083L141.476,100.583L141.544,99.042L141.612,98.208L141.681,97.167L141.749,95.792L141.818,92.833L141.886,93.083L141.955,93.25L142.023,91.75L142.092,89.125L142.16,88.167L142.228,87.667L142.297,84.917L142.365,84.708L142.434,86.083L142.502,85.625L142.571,84.25L142.639,83.458L142.708,82.208L142.776,81.167L142.845,81L142.913,80.458L142.981,79.417L143.05,78.125L143.118,78.208L143.187,77.375L143.255,75.25L143.324,76.042L143.392,76L143.461,75.875L143.529,76.458L143.597,76.125L143.666,76.833L143.734,77.625L143.803,77.958L143.871,78.583L143.94,75.583L144.008,72.625L144.077,72.625L144.145,73.875L144.213,73.542L144.282,73.917L144.35,75.208L144.419,72L144.487,70.083L144.556,70.083L144.624,71.625L144.693,70.583L144.761,71.625L144.829,72L144.898,71.292L144.966,70.75L145.035,70.25L145.103,70.25L145.172,69.583L145.24,71.375L145.309,74.5L145.377,73.042L145.445,73.042L145.514,73.25L145.582,75.25L145.651,76.583L145.719,76.792L145.788,76.833L145.856,76.708L145.925,78.417L145.993,80.917L146.061,83.958L146.13,84.042L146.198,84.917L146.267,86.667L146.338,86.125L146.407,86.958L146.475,89.25L146.543,91.25L146.612,90.667L146.68,90.167L146.749,92.167L146.817,91.208L146.886,91.375L146.954,91.083L147.023,93.125L147.091,94.708L147.159,97.042L147.228,98.625L147.296,98.125L147.365,97.958L147.433,99.083L147.502,101.375L147.57,101.917L147.639,101.75L147.707,102.458L147.775,102.917L147.844,103.208L147.912,104.083L147.981,104.917L148.049,106.292L148.118,107.25L148.186,109.208L148.255,109.083L148.323,109.333L148.392,110.167L148.46,111.375L148.528,111.833L148.597,112.375L148.665,113.458L148.734,114.458L148.802,115L148.871,115.708L148.939,115.833L149.008,117L149.076,116.958L149.144,117.5L149.213,115.833L149.281,113.958L149.35,113.833L149.418,113.542L149.487,112.583L149.555,112.167L149.624,110.583L149.692,109.708L149.76,108.167L149.829,106.333L149.897,106L149.966,106.5L150.034,106.167L150.103,105.583L150.171,103.75L150.24,102.792L150.308,102.417L150.376,102.75L150.445,101.833L150.513,100.542L150.582,100.25L150.65,98.792L150.719,97.75L150.787,95.708L150.856,95.042L150.924,93.417L150.992,94.625L151.061,94.625L151.129,93.917L151.198,92.042L151.266,92.417L151.335,93.833L151.403,93.917L151.472,94.292L151.54,94.792L151.608,93.458L151.677,93.583L151.745,93.208L151.814,94.042L151.882,94.917L151.951,95.25L152.019,94.083L152.088,92.583L152.156,90.958L152.225,91.208L152.293,91.458L152.361,91.208L152.43,90.917L152.498,91.125L152.567,90.667L152.635,90.542L152.704,90.292L152.772,90.125L152.841,90.625L152.909,91.292L152.977,92.25L153.046,88.958L153.114,87.25L153.183,86.833L153.251,87.458L153.32,86.667L153.388,86.958L153.457,86.208L153.525,83.5L153.593,81.917L153.662,81.833L153.73,82.083L153.799,81.083L153.867,81.375L153.936,82.042L154.004,80.958L154.073,79.417L154.141,79.583L154.209,80.458L154.278,80.083L154.346,80.417L154.415,80.292L154.483,78.375L154.552,78.375L154.62,78.792L154.689,79.125L154.757,77.917L154.825,78.208L154.894,78.375L154.96,76.625L155.028,76L155.096,78.375L155.165,80.125L155.233,79.708L155.302,81.417L155.37,83.375L155.439,83.417L155.507,82.958L155.576,85.333L155.644,86.833L155.712,85.458L155.781,85.958L155.849,86.458L155.918,85.417L155.986,84.125L156.055,84.5L156.123,85.792L156.192,84.708L156.26,85.375L156.328,86.458L156.397,84.25L156.465,83.667L156.534,84.833L156.602,85.25L156.671,85L156.739,84.917L156.808,87.208L156.876,85.917L156.944,84.25L157.013,84.417L157.081,84.667L157.15,82.875L157.218,81.5L157.287,81.875L157.355,78.125L157.424,75.583L157.492,74.542L157.56,75.583L157.629,74.292L157.697,73.75L157.766,75.542L157.834,73.917L157.903,73.458L157.971,73.375L158.04,73.792L158.108,73.667L158.176,74.5L158.245,76.708L158.313,76.292L158.382,75.792L158.45,77.625L158.519,78.708L158.587,78L158.656,78.625L158.724,79.083L158.792,78.875L158.861,78.375L158.929,80.5L158.998,82.167L159.066,82.75L159.135,83.625L159.203,85.292L159.272,86.208L159.34,85.792L159.409,87.75L159.477,89.667L159.545,89.792L159.614,91L159.682,91.625L159.751,91.333L159.819,91.333L159.888,91.083L159.956,92.375L160.025,92L160.093,92.833L160.161,94L160.23,92.292L160.298,90.458L160.367,90.375L160.435,90.917L160.504,91.458L160.572,92.167L160.641,94.75L160.709,94.542L160.777,94.667L160.846,95.708L160.914,96.25L160.983,95.083L161.051,95.583L161.12,96.708L161.188,96.458L161.257,96.042L161.325,96.417L161.393,98.25L161.462,98.5L161.53,98.917L161.599,100.583L161.667,100.083L161.736,101.208L161.804,102.75L161.873,103.625L161.941,105.083L162.009,105.792L162.078,107.708L162.146,107.375L162.215,106.083L162.283,107.458L162.352,108.708L162.42,108.208L162.489,108.75L162.557,108.75L162.625,107.917L162.694,106.333L162.762,105.583L162.831,106.708L162.899,106.042L162.968,106.958L163.036,108.083L163.105,108.25L163.173,107.375L163.242,108.333L163.31,109.625L163.378,108.708L163.447,108.458L163.515,109.25L163.584,108.792L163.652,108.167L163.721,107.542L163.789,107.417L163.858,106.333L163.926,106.042L163.994,106.625L164.063,105.583L164.131,105.083L164.2,104.958L164.268,106.333L164.337,105.5L164.405,105.75L164.474,106.292L164.542,105.583L164.61,105.583L164.679,105.917L164.747,106.625L164.816,106.292L164.884,106.042L164.953,106.875L165.021,106.958L165.09,105.833L165.158,103.875L165.226,103.125L165.295,100.917L165.363,100.333L165.432,100.333L165.5,99.417L165.569,98.542L165.637,97.542L165.706,96.833L165.774,94.708L165.842,94.458L165.911,93.083L165.979,91.5L166.048,89.708L166.116,89.667L166.185,89.417L166.253,87.875L166.322,87.125L166.39,88.083L166.458,86.167L166.527,84.667L166.595,83.792L166.664,82.667L166.732,82L166.801,81.25L166.869,82L166.938,80.917L167.006,79.75L167.074,77.958L167.143,77.958L167.211,78.458L167.28,79.125L167.348,81.25L167.417,80.875L167.485,80.042L167.554,80.792L167.622,81.875L167.691,81.083L167.759,81.708L167.827,83.5L167.896,82.417L167.964,83.042L168.033,82.958L168.101,83.375L168.17,81.833L168.238,81.333L168.307,82.792L168.375,81.167L168.443,79.083L168.512,78.625L168.58,79.292L168.649,77.75L168.717,78.583L168.786,78.125L168.854,76.458L168.923,72.958L168.991,70.708L169.059,69.25L169.128,66.75L169.196,66.792L169.265,67.375L169.333,67.042L169.402,64.792L169.47,64.125L169.539,65.167L169.607,63.042L169.675,62.667L169.744,61.833L169.812,61.542L169.881,60.5L169.949,59.833L170.018,60.417L170.086,60.333L170.155,61.458L170.223,63.25L170.291,63.042L170.36,63.542L170.428,66.458L170.497,69.125L170.565,71.292L170.634,73L170.702,74.333L170.771,72.042L170.839,72.417L170.907,73.083L170.976,75.708L171.044,77.083L171.113,78.875L171.181,81.875L171.253,82.083L171.321,81.958L171.389,81.917L171.458,83.917L171.526,83.208L171.595,83.875L171.663,85.167L171.732,84.167L171.8,86.5L171.869,87.208L171.937,89.583L172.005,90.125L172.074,91.417L172.142,92.583L172.211,91.208L172.279,90.667L172.348,91.625L172.416,92.083L172.485,92.167L172.553,92.75L172.621,93.792L172.69,93.625L172.758,94.708L172.827,96.75L172.895,97.375L172.964,99.625L173.032,101.792L173.101,104.042L173.169,103.792L173.238,103.625L173.306,104.042L173.374,104.167L173.443,104.833L173.511,105.042L173.58,106L173.648,105.375L173.717,105.167L173.785,105.833L173.854,106.208L173.922,104L173.99,103.542L174.059,104.917L174.127,103.583L174.196,102.875L174.264,103.292L174.333,103.25L174.401,101.667L174.47,100.625L174.538,99.417L174.606,96.625L174.675,93.917L174.743,92L174.812,91.417L174.88,88.75L174.949,88.625L175.017,85.417L175.086,82.5L175.154,80.375L175.222,79.167L175.291,79.792L175.359,79.792L175.428,80.25L175.496,79.625L175.565,77.833L175.633,75.875L175.702,74.292L175.77,74L175.838,71.542L175.907,71.083L175.975,72.875L176.044,71.25L176.112,69.708L176.181,69.792L176.249,70.375L176.318,68.667L176.386,69.167L176.454,70.333L176.523,69.542L176.591,69L176.66,68.958L176.728,70.25L176.797,69.833L176.865,70.708L176.934,73.292L177.002,73.333L177.07,73.458L177.139,73.917L177.207,75.125L177.276,75.333L177.344,75.167L177.413,74.583L177.481,74.042L177.55,73.375L177.618,73.5L177.687,75.375L177.755,76.292L177.823,77.75L177.892,80.583L177.96,80.792L178.029,78.875L178.097,79.083L178.166,79.833L178.234,77.917L178.303,78.5L178.371,79.083L178.439,77.833L178.508,75.792L178.576,75.083L178.645,75.208L178.713,75.917L178.782,75.833L178.85,77.042L178.919,73.417L178.987,71.292L179.055,69.792L179.124,72.042L179.192,71.958L179.261,70.5L179.329,69.458L179.398,67.375L179.466,66.458L179.535,65.5L179.603,66.958L179.671,67.458L179.74,69.042L179.808,69.5L179.874,68.667L179.942,67.875L180.011,67.708L180.079,70L180.148,69.292L180.216,69.083L180.285,70.25L180.353,68.125L180.422,68.125L180.49,68.417L180.558,70.25L180.627,70.333L180.695,70.958L180.764,70.917L180.832,68.958L180.901,67.833L180.969,69.5L181.038,70.708L181.106,71.792L181.174,71.375L181.243,71.583L181.311,71.25L181.38,72.417L181.448,72.333L181.517,72.583L181.585,72.417L181.654,71.792L181.722,70.792L181.79,68.042L181.859,67L181.927,66.083L181.996,66.583L182.064,65.208L182.133,64.875L182.201,66.375L182.27,65.375L182.338,65.708L182.406,67.208L182.475,68.708L182.543,69.083L182.612,68.75L182.68,69.875L182.749,68.042L182.817,67.042L182.886,68.667L182.954,70.542L183.022,70.083L183.091,71.125L183.159,72.167L183.228,72.042L183.296,71.042L183.365,71.417L183.433,72.167L183.502,72.583L183.57,72.625L183.638,73.917L183.707,73.25L183.775,75.5L183.844,77.958L183.912,79.958L183.981,79.208L184.049,78.833L184.118,80.458L184.186,79L184.255,78.208L184.323,78L184.391,78.875L184.46,78.042L184.528,78.583L184.597,79.25L184.665,78.792L184.734,78.083L184.802,79.083L184.871,80.042L184.939,80L185.007,80.167L185.076,82.75L185.144,82.542L185.213,81.292L185.281,80.875L185.35,82.958L185.418,82.583L185.487,83.375L185.555,85.917L185.623,88.5L185.692,90.083L185.76,91.75L185.829,91.833L185.897,90.75L185.966,91.125L186.034,93.333L186.103,93.458L186.171,93.417L186.239,94.958L186.308,96.458L186.376,97.208L186.445,98.292L186.513,100.042L186.582,99.583L186.65,99.708L186.719,100.5L186.787,101.792L186.855,101.125L186.924,102.125L186.992,102.208L187.061,101.5L187.129,100.167L187.198,99.958L187.266,100.542L187.335,100.917L187.403,101.125L187.471,103.125L187.54,101.292L187.608,99.875L187.677,97.667L187.745,97.125L187.814,95.25L187.882,95.458L187.951,96.625L188.019,95.333L188.087,94.25L188.156,95.083L188.224,95.125L188.293,94.417L188.361,94.583L188.43,95.75L188.498,94.75L188.567,94.042L188.635,93.292L188.704,93.542L188.772,92.875L188.84,93.458L188.909,94.917L188.977,93.625L189.046,93.25L189.114,93.708L189.183,94.125L189.251,93.042L189.32,93.333L189.388,93.625L189.456,92.292L189.525,91L189.593,91.25L189.662,91.833L189.73,91.75L189.799,92.167L189.867,94.583L189.936,93.708L190.004,92.625L190.072,93.042L190.141,92.833L190.209,91.417L190.278,91.667L190.346,92.375L190.415,90.25L190.483,89.25L190.552,87.542L190.62,87.208L190.688,85.25L190.757,85.375L190.825,85.75L190.894,82.792L190.962,78.625L191.031,77.667L191.099,77.792L191.168,75.917L191.236,76.458L191.304,77.417L191.373,73.5L191.441,71L191.51,69.583L191.578,70.75L191.647,71L191.715,69.792L191.784,69.625L191.852,66.458L191.92,63.125L191.989,61.667L192.057,61.958L192.126,61.625L192.194,63.167L192.263,64.417L192.331,62.542L192.4,59.708L192.468,57.5L192.537,55.833L192.605,56L192.673,56.583L192.742,57.833L192.81,52.958L192.879,49.958L192.947,49.542L193.016,52.875L193.084,53.792L193.153,54.167L193.221,54.833L193.289,51.708L193.358,49.333L193.426,47.417L193.495,41.708L193.563,38.792L193.632,38.083L193.7,37.125L193.769,34L193.837,32.208L193.905,30.667L193.974,30.667L194.042,28.792L194.111,28.625L194.179,27.792L194.248,25.417L194.316,23.917L194.385,23.083L194.453,25.25L194.521,27.167L194.59,29.958L194.658,31.25L194.727,29.375L194.795,28.208L194.864,31.167L194.932,33.708L195.001,34.5L195.069,35.292L195.137,34.583L195.206,34.208L195.274,34.833L195.343,38.625L195.411,42.667L195.48,47.625L195.548,56.167L195.617,60.875L195.685,59.625L195.753,59.792L195.822,62.458L195.89,65.042L195.959,66.375L196.027,68.458L196.096,71.375L196.167,69.958L196.235,70.167L196.304,71.792L196.372,73.167L196.441,73.375L196.509,74.25L196.578,75.167L196.646,73.542L196.715,72.208L196.783,73.167L196.851,74.542L196.92,73.583L196.988,74.292L197.057,76.792L197.125,76.792L197.194,77.833L197.262,78.458L197.331,79.667L197.399,79.125L197.467,79.417L197.536,81.5L197.604,82.042L197.673,82.958L197.741,84.583L197.81,86.083L197.878,87.625L197.947,89L198.015,92.917L198.084,92.583L198.152,91.917L198.22,91.75L198.289,92.417L198.357,91.625L198.426,91.833L198.494,92.833L198.563,92.042L198.631,91.792L198.7,92.333L198.768,93.542L198.836,93.667L198.905,94.875L198.973,97.375L199.042,97.042L199.11,96.583L199.179,96.292L199.247,96.75L199.316,97.042L199.384,96.083L199.452,95.167L199.521,91.125L199.589,88.333L199.658,86.042L199.726,84.875L199.795,82.25L199.863,82.625L199.932,80.042L200,75.083L200.068,70.708L200.137,70.333L200.205,70.917L200.274,71.375L200.342,71.75L200.411,71.375L200.479,69.5L200.548,68.708L200.616,67L200.684,67.042L200.753,66.208L200.821,65.375L200.89,65.208L200.958,62.708L201.027,60.833L201.095,60.417L201.164,59.75L201.232,58.542L201.3,58.333L201.369,58.208L201.437,57.625L201.506,57.833L201.574,59.125L201.643,59.708L201.711,59.917L201.78,59.5L201.848,59.458L201.916,56.917L201.985,57.417L202.053,60.125L202.122,62.292L202.19,61.167L202.259,61.292" stroke="#4c78a8" stroke-width="2"/></g><g class="mark-group role-title"><g transform="translate(100,-22)"><path class="background" aria-hidden="true" d="M0,0h0v0h0Z" pointer-events="none"/><g><g class="mark-text role-title-text" role="graphics-symbol" aria-roledescription="title" aria-label="Title text 'Noise: Noise: Construction Before/After Hours (NM1)'" pointer-events="none"><text text-anchor="middle" transform="translate(0,10)" font-family="sans-serif" font-size="13px" font-weight="bold" fill="#000" opacity="1">Noise: Noise: Construction Before/After Hours (NM1)</text></g></g><path class="foreground" aria-hidden="true" d="" pointer-events="none" display="none"/></g></g></g><path class="foreground" aria-hidden="true" d="" display="none"/></g></g></g><defs><clipPath id="clip129"><rect x="0" y="0" width="200" height="150"/></clipPath></defs></svg>