<svg xmlns="http://www.w3.org/2000/svg" xmlns:xlink="http://www.w3.org/1999/xlink" version="1.1" class="marks" width="235" height="199" viewBox="0 0 235 199"><rect width="235" height="199" fill="white"/><g fill="none" stroke-miterlimit="10" transform="translate(29,27)"><g class="mark-group role-frame root" role="graphics-object" aria-roledescription="group mark container"><g transform="translate(0,0)"><path class="background" aria-hidden="true" d="M0,0h200v150h-200Z"/><g><g class="mark-group role-axis" aria-hidden="true"><g transform="translate(0.5,0.5)"><path class="background" aria-hidden="true" d="M0,0h0v0h0Z" pointer-events="none"/><g><g class="mark-rule role-axis-grid" pointer-events="none"><line transform="translate(0,150)" x2="200" y2="0" stroke="#ddd" stroke-width="1" opacity="1"/><line transform="translate(0,113)" x2="200" y2="0" stroke="#ddd" stroke-width="1" opacity="1"/><line transform="translate(0,75)" x2="200" y2="0" stroke="#ddd" stroke-width="1" opacity="1"/><line transform="translate(0,38)" x2="200" y2="0" stroke="#ddd" stroke-width="1" opacity="1"/><line transform="translate(0,0)" x2="200" y2="0" stroke="#ddd" stroke-width="1" opacity="1"/></g></g><path class="foreground" aria-hidden="true" d="" pointer-events="none" display="none"/></g></g><g class="mark-group role-axis" role="graphics-symbol" aria-roledescription="axis" aria-label="X-axis for a time scale with values from Friday, 01 January 2016, 12:00:00 AM to Monday, 01 January 2024, 12:00:00 AM"><g transform="translate(0.5,150.5)"><path class="background" aria-hidden="true" d="M0,0h0v0h0Z" pointer-events="none"/><g><g class="mark-rule role-axis-tick" pointer-events="none"><line transform="translate(0,0)" x2="0" y2="5" stroke="#888" stroke-width="1" opacity="1"/><line transform="translate(50,0)" x2="0" y2="5" stroke="#888" stroke-width="1" opacity="1"/><line transform="translate(100,0)" x2="0" y2="5" stroke="#888" stroke-width="1" opacity="1"/><line transform="translate(150,0)" x2="0" y2="5" stroke="#888" stroke-width="1" opacity="1"/><line transform="translate(200,0)" x2="0" y2="5" stroke="#888" stroke-width="1" opacity="1"/></g><g class="mark-text role-axis-label" pointer-events="none"><text text-anchor="start" transform="translate(0,15)" font-family="sans-serif" font-size="10px" fill="#000" opacity="1">2016</text><text text-anchor="middle" transform="translate(50.03422313483915,15)" font-family="sans-serif" font-size="10px" fill="#000" opacity="1">2018</text><text text-anchor="middle" transform="translate(100,15)" font-family="sans-serif" font-size="10px" fill="#000" opacity="1">2020</text><text text-anchor="middle" transform="translate(150.03422313483915,15)" font-family="sans-serif" font-size="10px" fill="#000" opacity="1">2022</text><text text-anchor="end" transform="translate(200,15)" font-family="sans-serif" font-size="10px" fill="#000" opacity="1">2024</text></g><g class="mark-rule role-axis-domain" pointer-events="none"><line transform="translate(0,0)" x2="200" y2="0" stroke="#888" stroke-width="1" opacity="1"/></g></g><path class="foreground" aria-hidden="true" d="" pointer-events="none" display="none"/></g></g><g class="mark-group role-axis" role="graphics-symbol" aria-roledescription="axis" aria-label="Y-axis for a linear scale with values from 0 to 400"><g transform="translate(0.5,0.5)"><path class="background" aria-hidden="true" d="M0,0h0v0h0Z" pointer-events="none"/><g><g class="mark-rule role-axis-tick" pointer-events="none"><line transform="translate(0,150)" x2="-5" y2="0" stroke="#888" stroke-opacity="0" stroke-width="1" opacity="1"/><line transform="translate(0,113)" x2="-5" y2="0" stroke="#888" stroke-opacity="0" stroke-width="1" opacity="1"/><line transform="translate(0,75)" x2="-5" y2="0" stroke="#888" stroke-opacity="0" stroke-width="1" opacity="1"/><line transform="translate(0,38)" x2="-5" y2="0" stroke="#888" stroke-opacity="0" stroke-width="1" opacity="1"/><line transform="translate(0,0)" x2="-5" y2="0" stroke="#888" stroke-opacity="0" stroke-width="1" opacity="1"/></g><g class="mark-text role-axis-label" pointer-events="none"><text text-anchor="end" transform="translate(-7,153)" font-family="sans-serif" font-size="10px" fill="#000" opacity="1">0</text><text text-anchor="end" transform="translate(-7,115.5)" font-family="sans-serif" font-size="10px" fill="#000" opacity="1">100</text><text text-anchor="end" transform="translate(-7,78)" font-family="sans-serif" font-size="10px" fill="#000" opacity="1">200</text><text text-anchor="end" transform="translate(-7,40.5)" font-family="sans-serif" font-size="10px" fill="#000" opacity="1">300</text><text text-anchor="end" transform="translate(-7,3)" font-family="sans-serif" font-size="10px" fill="#000" opacity="1">400</text></g></g><path class="foreground" aria-hidden="true" d="" pointer-events="none" display="none"/></g></g><g class="mark-line role-mark marks" clip-path="url(#clip122)" role="graphics-object" aria-roledescription="line mark container"><path aria-label="day: Jan 01, 2010; avg: 101.166666667" role="graphics-symbol" aria-roledescription="line mark" d="M-149.966,112.063L-149.897,112.488L-149.829,112.4L-149.76,111.963L-149.692,111.438L-149.624,111.55L-149.555,111.363L-149.487,111.363L-149.418,111.425L-149.35,111.238L-149.281,110.937L-149.213,111.188L-149.144,111.025L-149.076,109.85L-149.008,108.525L-148.939,107.863L-148.871,106.8L-148.802,106.038L-148.734,105.512L-148.665,105.013L-148.597,104.575L-148.528,104.113L-148.46,104.05L-148.392,103.863L-148.323,103.9L-148.255,103.788L-148.186,103.738L-148.118,103.188L-148.049,102.125L-147.981,101.262L-147.912,100.688L-147.844,100.438L-147.775,100.387L-147.707,100.6L-147.639,101.063L-147.57,100.425L-147.502,100.238L-147.433,100.113L-147.365,100.163L-147.296,100.45L-147.228,100.6L-147.159,100.425L-147.091,101.1L-147.023,102.85L-146.954,104.138L-146.886,104.887L-146.817,106.05L-146.749,106.763L-146.68,107.188L-146.612,107.837L-146.543,108.5L-146.475,108.725L-146.407,109.087L-146.338,109.45L-146.27,109.425L-146.201,109.488L-146.133,109.525L-146.064,110.088L-145.996,111.088L-145.927,112.263L-145.859,113.038L-145.791,113.513L-145.722,113.95L-145.654,114.138L-145.585,114.088L-145.517,114.925L-145.448,115.5L-145.38,115.925L-145.311,115.925L-145.243,115.738L-145.175,115.725L-145.106,115.5L-145.038,115.25L-144.972,115.363L-144.904,115.313L-144.835,115.563L-144.767,115.188L-144.698,115.038L-144.63,115.163L-144.561,115.087L-144.493,114.813L-144.424,114.7L-144.356,114.625L-144.288,114.212L-144.219,114.075L-144.151,113.788L-144.082,113.863L-144.014,113.863L-143.945,114.1L-143.877,114.212L-143.808,113.913L-143.74,113.7L-143.672,113.45L-143.603,113.113L-143.535,112.875L-143.466,112.575L-143.398,112.225L-143.329,111.938L-143.261,111.975L-143.192,111.888L-143.124,111.925L-143.056,112.125L-142.987,112.163L-142.919,111.725L-142.85,111.625L-142.782,111.738L-142.713,111.9L-142.645,111.763L-142.576,111.65L-142.508,111.613L-142.44,111.788L-142.371,112.225L-142.303,112.188L-142.234,112.6L-142.166,112.888L-142.097,112.988L-142.029,112.775L-141.96,112.712L-141.892,112.738L-141.824,112.888L-141.755,113.113L-141.687,113.175L-141.618,113.138L-141.55,113.413L-141.481,113.75L-141.413,113.5L-141.344,113.713L-141.276,113.725L-141.208,113.738L-141.139,113.888L-141.071,114.1L-141.002,113.838L-140.934,113.963L-140.865,113.838L-140.797,113.875L-140.728,113.4L-140.66,113.225L-140.591,113.425L-140.523,113.462L-140.455,113.475L-140.386,113.025L-140.318,112.712L-140.249,112.563L-140.181,112.038L-140.112,111.825L-140.044,111.975L-139.975,112.05L-139.907,112.087L-139.839,111.913L-139.77,111.613L-139.702,111.55L-139.633,111.588L-139.565,111.75L-139.496,111.675L-139.428,111.8L-139.359,112.35L-139.291,112.375L-139.223,112.625L-139.154,112.688L-139.086,112.6L-139.017,112.425L-138.949,112.9L-138.88,112.825L-138.812,112.938L-138.743,112.65L-138.675,112.725L-138.607,113.012L-138.538,113.263L-138.47,113.3L-138.401,113.275L-138.333,113.637L-138.264,113.8L-138.196,114.013L-138.127,114.463L-138.059,114.563L-137.991,114.488L-137.922,114.75L-137.854,114.788L-137.785,114.8L-137.717,114.738L-137.648,114.638L-137.58,114.425L-137.511,114.238L-137.443,114.337L-137.375,113.85L-137.306,113.438L-137.238,113.462L-137.169,113.275L-137.101,113.3L-137.032,113.413L-136.964,113.425L-136.895,113.075L-136.827,113.15L-136.758,113.363L-136.69,113.6L-136.622,113.888L-136.553,113.925L-136.485,113.725L-136.416,113.65L-136.348,113.6L-136.279,113.713L-136.211,114.125L-136.142,114.263L-136.074,114.038L-136.006,114.35L-135.937,114.275L-135.869,114.088L-135.8,114.212L-135.732,114.488L-135.663,114.4L-135.595,114.625L-135.526,114.512L-135.458,114.8L-135.39,114.663L-135.321,114.663L-135.253,114.788L-135.184,114.488L-135.116,114.212L-135.047,114.212L-134.979,114.025L-134.91,113.937L-134.842,113.713L-134.774,113.45L-134.705,113.288L-134.637,113.263L-134.568,112.65L-134.5,112.513L-134.431,112.188L-134.363,111.825L-134.294,111.85L-134.226,111.588L-134.158,110.963L-134.089,110.7L-134.021,110.9L-133.952,110.3L-133.884,109.913L-133.815,109.9L-133.747,109.825L-133.678,109.25L-133.61,109.05L-133.542,108.65L-133.473,108.738L-133.405,108.512L-133.336,108.35L-133.268,108.5L-133.199,108.263L-133.131,108.313L-133.062,108.35L-132.994,107.913L-132.926,108.1L-132.857,108.013L-132.789,107.9L-132.72,107.887L-132.652,107.738L-132.583,107.625L-132.515,108.013L-132.446,107.863L-132.378,107.975L-132.309,108.2L-132.241,107.937L-132.173,107.788L-132.104,108.05L-132.036,108.1L-131.967,107.875L-131.899,107.837L-131.83,108.113L-131.762,107.688L-131.693,107.525L-131.625,107.238L-131.557,107.2L-131.488,107.363L-131.42,107.063L-131.351,106.687L-131.283,106.263L-131.214,106.063L-131.146,106.337L-131.077,106.425L-131.009,106.4L-130.941,106.375L-130.872,106.288L-130.804,106.275L-130.735,106.475L-130.667,106.3L-130.598,105.938L-130.53,105.65L-130.461,105.6L-130.393,105.462L-130.325,105.325L-130.256,105.25L-130.188,105.462L-130.119,105.363L-130.051,105L-129.982,104.775L-129.914,104.413L-129.845,104.3L-129.777,104.262L-129.709,104.238L-129.64,103.9L-129.572,104.25L-129.503,104.012L-129.435,103.788L-129.366,104.212L-129.298,104.562L-129.229,104.875L-129.161,105.187L-129.093,105.2L-129.024,105.125L-128.956,104.85L-128.887,104.713L-128.819,104.538L-128.75,104.613L-128.679,104.638L-128.611,104.713L-128.542,105.125L-128.474,105.525L-128.405,105.6L-128.337,105.712L-128.268,105.638L-128.2,105.9L-128.131,106.063L-128.063,106.188L-127.995,106.387L-127.926,106.05L-127.858,106.3L-127.789,106.45L-127.721,106.475L-127.652,106.863L-127.584,107.087L-127.515,106.962L-127.447,107.338L-127.379,107.688L-127.31,107.675L-127.242,107.012L-127.173,105.512L-127.105,103.725L-127.036,101.15L-126.968,98.85L-126.899,98.063L-126.831,97.55L-126.762,96.725L-126.694,96.4L-126.626,95.975L-126.557,95.4L-126.489,94.625L-126.42,93.813L-126.352,92.963L-126.283,92.413L-126.215,91.962L-126.146,90.875L-126.078,89.475L-126.01,88.413L-125.941,87.45L-125.873,87.163L-125.804,87.062L-125.736,86.837L-125.667,86.413L-125.599,85.688L-125.53,84.688L-125.462,84.613L-125.394,84.325L-125.325,83.538L-125.257,82.875L-125.188,82.288L-125.12,81.775L-125.051,81.288L-124.983,81.463L-124.914,81.625L-124.846,80.913L-124.778,80.675L-124.709,79.813L-124.641,78.5L-124.572,76.913L-124.504,75.4L-124.435,75.163L-124.367,74.913L-124.298,75.05L-124.23,75L-124.162,75.413L-124.093,75.888L-124.025,76.338L-123.956,77.275L-123.888,78.025L-123.819,78.837L-123.751,78.913L-123.682,79.5L-123.614,79.775L-123.546,80.35L-123.477,81.213L-123.409,81.425L-123.34,81.963L-123.272,82.925L-123.203,83.325L-123.135,84.513L-123.066,86.425L-122.998,88.575L-122.93,90.675L-122.861,93.075L-122.793,94.913L-122.724,96.1L-122.656,97.725L-122.587,99.387L-122.519,101.675L-122.45,103.687L-122.382,104.7L-122.313,105.512L-122.245,106L-122.177,106.45L-122.108,106.813L-122.04,107.375L-121.971,108.113L-121.903,108.438L-121.834,108.5L-121.766,108.088L-121.697,107.988L-121.629,107.9L-121.561,108.088L-121.492,108.238L-121.424,108.6L-121.355,108.725L-121.287,108.462L-121.218,108.212L-121.15,108.45L-121.081,108.7L-121.013,108.875L-120.945,108.863L-120.876,109.188L-120.808,108.8L-120.739,108.512L-120.671,108.413L-120.602,108.788L-120.534,108.812L-120.465,108.863L-120.397,109.1L-120.329,108.788L-120.26,108.963L-120.192,109.05L-120.123,109.325L-120.058,109.3L-119.989,109.35L-119.921,109.638L-119.852,109.525L-119.784,109.763L-119.715,110.113L-119.647,110.613L-119.578,110.813L-119.51,111.25L-119.442,111.7L-119.373,111.938L-119.305,111.95L-119.236,112.425L-119.168,112.763L-119.099,113.113L-119.031,112.988L-118.962,112.837L-118.894,113.1L-118.826,113.125L-118.757,113.5L-118.689,113.937L-118.62,114.063L-118.552,113.963L-118.483,114.013L-118.415,113.925L-118.346,113.813L-118.278,114.225L-118.21,114.25L-118.141,114.25L-118.073,114.225L-118.004,114.238L-117.936,114.188L-117.867,113.9L-117.799,114.163L-117.73,114.05L-117.662,114.25L-117.594,114.25L-117.525,114.313L-117.457,113.913L-117.388,113.637L-117.32,113.462L-117.251,113.613L-117.183,113.363L-117.114,113.15L-117.046,112.75L-116.978,112.875L-116.909,113.2L-116.841,113.238L-116.772,113.375L-116.704,113.313L-116.635,113.337L-116.567,113.175L-116.498,113.225L-116.43,113.163L-116.362,113.213L-116.293,113.325L-116.225,113.25L-116.156,113.425L-116.088,113.775L-116.019,113.762L-115.951,113.975L-115.882,113.913L-115.814,113.813L-115.745,113.8L-115.677,114.125L-115.609,114.025L-115.54,113.937L-115.472,113.738L-115.403,113.975L-115.335,113.937L-115.266,113.788L-115.198,113.637L-115.129,113.35L-115.061,113.563L-114.993,113.538L-114.924,113.438L-114.856,113.063L-114.787,112.55L-114.719,112.375L-114.65,112.263L-114.582,112.225L-114.513,112.563L-114.445,113.2L-114.377,113.637L-114.308,113.388L-114.24,113.55L-114.171,113.438L-114.103,113.475L-114.034,113.1L-113.966,113.263L-113.897,113.088L-113.829,113.175L-113.761,113.762L-113.692,113.4L-113.624,113.3L-113.555,113.288L-113.487,113.488L-113.418,113.525L-113.35,113.613L-113.281,113.363L-113.213,113.55L-113.145,113.863L-113.076,114.3L-113.008,114.175L-112.939,114.313L-112.871,114.313L-112.802,114.775L-112.734,115.588L-112.665,115.613L-112.597,115.712L-112.529,115.875L-112.46,115.588L-112.392,115.025L-112.323,114.925L-112.255,115.15L-112.186,114.875L-112.118,115.087L-112.049,114.7L-111.981,114.913L-111.913,115.013L-111.844,115.475L-111.776,115.55L-111.707,115.05L-111.639,115.513L-111.57,115.413L-111.502,115.575L-111.433,115.538L-111.365,115.663L-111.296,115.638L-111.228,115.838L-111.16,115.9L-111.091,115.575L-111.023,115.513L-110.954,115.712L-110.886,115.725L-110.817,116.088L-110.749,116.588L-110.68,116.963L-110.612,117.95L-110.544,118.3L-110.475,118.4L-110.407,118.625L-110.338,118.9L-110.27,118.813L-110.201,118.663L-110.133,118.525L-110.064,118.137L-109.996,118.538L-109.928,118.4L-109.859,118.313L-109.791,117.8L-109.722,117.625L-109.654,117.95L-109.585,117.763L-109.517,117.65L-109.448,117.463L-109.38,117.387L-109.312,116.925L-109.243,116.6L-109.175,116.337L-109.106,116.175L-109.038,116.163L-108.969,115.975L-108.901,115.475L-108.832,115.413L-108.764,115.05L-108.696,114.225L-108.627,113.337L-108.559,112.275L-108.49,111.812L-108.422,111.825L-108.353,111.85L-108.285,111.212L-108.216,111.013L-108.148,111.175L-108.08,111.438L-108.011,111.812L-107.943,111.888L-107.874,111.862L-107.806,111.938L-107.737,111.925L-107.669,112.538L-107.6,112.5L-107.532,112.5L-107.463,112.875L-107.395,112.85L-107.327,112.625L-107.258,112.788L-107.19,113.15L-107.121,113.038L-107.053,112.888L-106.984,112.988L-106.916,113.375L-106.847,113.063L-106.779,113.125L-106.711,113.025L-106.642,112.813L-106.574,112.475L-106.505,112.113L-106.437,111.7L-106.368,111.2L-106.3,110.913L-106.231,111L-106.163,110.738L-106.095,110.475L-106.026,110.263L-105.958,109.825L-105.889,109.4L-105.821,109.213L-105.752,109.063L-105.684,108.913L-105.615,108.187L-105.547,108.05L-105.479,107.788L-105.41,106.763L-105.342,106.325L-105.273,106.2L-105.205,106.05L-105.136,105.313L-105.068,105.55L-104.999,105.45L-104.931,105.325L-104.863,104.837L-104.794,105.225L-104.726,105.038L-104.657,104.963L-104.589,104.538L-104.52,104.875L-104.452,104.663L-104.383,105.238L-104.315,105.338L-104.247,105.3L-104.178,105.413L-104.11,105.475L-104.041,105.587L-103.973,105.663L-103.904,105.6L-103.836,105.5L-103.765,105.563L-103.696,105.063L-103.628,105.325L-103.559,105.05L-103.491,105L-103.422,104.663L-103.354,105.587L-103.285,106.213L-103.217,106.238L-103.149,106.5L-103.08,106.663L-103.012,106.65L-102.943,106.625L-102.875,106.55L-102.806,106.763L-102.738,106.687L-102.669,106.663L-102.601,106.65L-102.533,107.063L-102.464,106.813L-102.396,107.262L-102.327,107.138L-102.259,106.975L-102.19,107.075L-102.122,107.363L-102.053,107.175L-101.985,106.35L-101.916,106.738L-101.848,107.438L-101.78,107.738L-101.711,107.95L-101.643,108.462L-101.574,108.512L-101.506,109.025L-101.437,109.013L-101.369,109.8L-101.3,109.738L-101.232,109.288L-101.164,109.225L-101.095,109.325L-101.027,109.475L-100.958,109.738L-100.89,110.075L-100.821,110.35L-100.753,110.288L-100.684,110.1L-100.616,110.05L-100.548,109.125L-100.479,109.35L-100.411,109.6L-100.342,109.813L-100.274,110.012L-100.205,109.975L-100.137,109.925L-100.068,109.775L-100,110.275L-99.932,111.25L-99.863,111.113L-99.795,110.85L-99.726,110.662L-99.658,110.375L-99.589,110.312L-99.521,110.225L-99.452,110.088L-99.384,110.188L-99.316,109.913L-99.247,109.788L-99.179,110L-99.11,110.263L-99.042,110.413L-98.973,110.75L-98.905,110.7L-98.836,110.712L-98.768,110.5L-98.7,110.563L-98.631,110.887L-98.563,111.313L-98.494,112.675L-98.426,113.025L-98.357,113.138L-98.289,113.225L-98.22,112.963L-98.152,113.337L-98.084,113.838L-98.015,113.788L-97.947,113.788L-97.878,113.875L-97.81,113.762L-97.741,113.813L-97.673,113.95L-97.604,114.288L-97.536,114.2L-97.467,114.263L-97.399,114.337L-97.331,114.238L-97.262,114.1L-97.194,114.063L-97.125,113.937L-97.057,113.738L-96.988,113.538L-96.92,113.575L-96.851,113.213L-96.783,112.988L-96.715,113.15L-96.646,113.012L-96.578,113.4L-96.509,113.325L-96.441,113.2L-96.372,113.088L-96.304,112.925L-96.235,112.288L-96.167,112.463L-96.099,112.425L-96.03,112.038L-95.962,111.95L-95.893,111.538L-95.825,111.175L-95.756,111.013L-95.688,110.963L-95.619,110.85L-95.551,110.775L-95.483,111.2L-95.414,111.238L-95.346,111.113L-95.277,111.363L-95.209,111.75L-95.143,112.013L-95.075,112.313L-95.006,112.638L-94.938,112.675L-94.869,112.55L-94.801,112.913L-94.732,112.863L-94.664,112.825L-94.596,112.888L-94.527,112.45L-94.459,112.35L-94.39,112.063L-94.322,111.862L-94.253,111.9L-94.185,112.263L-94.116,111.988L-94.048,111.963L-93.98,112.05L-93.911,111.988L-93.843,112.15L-93.774,112.275L-93.706,112.25L-93.637,112.35L-93.569,112.663L-93.5,112.938L-93.432,112.775L-93.364,112.5L-93.295,112.363L-93.227,111.938L-93.158,111.8L-93.09,111.313L-93.021,110.9L-92.953,110.675L-92.884,110.375L-92.816,110.25L-92.748,110.088L-92.679,110.175L-92.611,110.4L-92.542,110.238L-92.474,110.163L-92.405,109.95L-92.337,110.163L-92.268,110.275L-92.2,110.225L-92.132,110.312L-92.063,110.475L-91.995,110.6L-91.926,110.838L-91.858,111.088L-91.789,111.188L-91.721,111.65L-91.652,111.563L-91.584,111.35L-91.516,111.2L-91.447,110.913L-91.379,110.7L-91.31,110.875L-91.242,110.988L-91.173,111.063L-91.105,110.825L-91.036,110.875L-90.968,110.975L-90.899,110.963L-90.831,111.075L-90.763,110.963L-90.694,111.2L-90.626,111.075L-90.557,110.65L-90.489,110.788L-90.42,110.712L-90.352,110.788L-90.283,110.775L-90.215,110.675L-90.147,110.712L-90.078,110.563L-90.01,110.35L-89.941,110.1L-89.873,109.813L-89.804,109.863L-89.736,109.725L-89.667,109.375L-89.599,109.525L-89.531,109.488L-89.462,109.4L-89.394,109.55L-89.325,109.85L-89.257,109.712L-89.188,109.825L-89.12,110.025L-89.051,110L-88.983,110.012L-88.915,110.35L-88.846,110.5L-88.778,110.7L-88.709,110.9L-88.641,111L-88.572,111.238L-88.504,111.338L-88.435,111.55L-88.367,111.888L-88.299,111.9L-88.23,111.775L-88.162,111.8L-88.093,111.888L-88.025,112.025L-87.956,112.275L-87.888,112.2L-87.819,112.25L-87.751,112.075L-87.683,112.275L-87.614,112.137L-87.546,112.275L-87.477,112.475L-87.409,112.95L-87.34,112.95L-87.272,112.488L-87.203,112.563L-87.135,112.625L-87.067,112.525L-86.998,112.975L-86.93,113.488L-86.861,113.425L-86.793,113.375L-86.724,113.337L-86.656,113.1L-86.587,112.712L-86.519,112.638L-86.45,113.125L-86.382,113.363L-86.314,112.913L-86.245,112.775L-86.177,112.863L-86.108,113.038L-86.04,113.425L-85.971,113.55L-85.903,113.688L-85.834,113.813L-85.766,113.738L-85.698,113.838L-85.629,113.925L-85.561,114.05L-85.492,113.963L-85.424,113.762L-85.355,113.175L-85.287,112.888L-85.218,112.963L-85.15,112.8L-85.082,112.575L-85.013,112.688L-84.945,112.2L-84.876,111.675L-84.808,111.263L-84.739,110.887L-84.671,110.475L-84.602,110.288L-84.534,110.288L-84.466,110.063L-84.397,109.263L-84.329,108.625L-84.26,108.8L-84.192,109.075L-84.123,108.975L-84.055,108.587L-83.986,108.263L-83.918,107.525L-83.85,106.875L-83.781,106.263L-83.713,105.887L-83.644,105.587L-83.576,105.638L-83.507,105.725L-83.439,105.238L-83.37,105.05L-83.302,104.875L-83.234,105.013L-83.165,104.975L-83.097,105.05L-83.028,105.2L-82.96,104.863L-82.891,104.9L-82.823,104.837L-82.754,105.038L-82.686,105.688L-82.617,105.675L-82.549,106.013L-82.481,105.863L-82.412,105.988L-82.344,106.188L-82.275,106.375L-82.207,106.2L-82.138,105.95L-82.07,106.05L-82.001,106.125L-81.933,105.825L-81.865,106.175L-81.796,106.175L-81.728,106.85L-81.659,107.1L-81.591,107.388L-81.522,106.962L-81.454,106.563L-81.385,107.275L-81.317,108.413L-81.249,109.888L-81.18,110.913L-81.112,111.875L-81.043,112.6L-80.975,113.113L-80.906,114.113L-80.838,115L-80.769,115.575L-80.701,116.088L-80.633,115.15L-80.564,115.325L-80.496,115.15L-80.427,115.425L-80.359,115.388L-80.29,115.775L-80.222,115.45L-80.153,115.288L-80.085,115.288L-80.017,114.675L-79.948,114.25L-79.88,114.088L-79.811,113.75L-79.743,113.95L-79.674,113.363L-79.606,113.2L-79.537,112.725L-79.469,112.875L-79.401,112.85L-79.332,112.475L-79.264,111.488L-79.195,109.888L-79.127,108.438L-79.058,106.95L-78.99,106.413L-78.921,105.5L-78.85,104.675L-78.782,104L-78.713,103.687L-78.645,103.075L-78.576,103.288L-78.508,102.863L-78.439,102.95L-78.371,102.55L-78.303,102.613L-78.234,102.313L-78.166,102.1L-78.097,102.263L-78.029,102.15L-77.96,102.45L-77.892,102.9L-77.823,103.125L-77.755,103.6L-77.687,103.088L-77.618,103.288L-77.55,103.275L-77.481,103.113L-77.413,102.863L-77.344,103.3L-77.276,103.325L-77.207,103.113L-77.139,103.425L-77.07,103.4L-77.002,103.588L-76.934,103.188L-76.865,103.563L-76.797,103.388L-76.728,103.15L-76.66,103.163L-76.591,103.213L-76.523,103.475L-76.454,104.088L-76.386,104.012L-76.318,104.363L-76.249,104.15L-76.181,104L-76.112,104.837L-76.044,105.088L-75.975,105.425L-75.907,105.575L-75.838,105.388L-75.77,105.275L-75.702,105.15L-75.633,105.75L-75.565,106.15L-75.496,106.588L-75.428,107.45L-75.359,107.55L-75.291,107.325L-75.222,106.95L-75.154,106.725L-75.086,106.613L-75.017,107.087L-74.949,107.638L-74.88,107.913L-74.812,107.775L-74.743,107.863L-74.675,107.738L-74.606,107.713L-74.538,107.713L-74.47,107.937L-74.401,107.75L-74.333,108.013L-74.264,107.45L-74.196,106.638L-74.127,106.175L-74.059,105.813L-73.99,105.813L-73.922,105.438L-73.854,105.263L-73.785,105.525L-73.717,105.688L-73.648,105.587L-73.58,105.75L-73.511,105.775L-73.443,105.413L-73.374,104.887L-73.306,104.675L-73.238,104.688L-73.169,105.225L-73.101,105.963L-73.032,106.025L-72.964,106.113L-72.895,106.1L-72.827,106.15L-72.758,106.1L-72.69,106.525L-72.621,106.95L-72.553,106.875L-72.485,107L-72.416,106.025L-72.348,105.712L-72.279,105.7L-72.211,106.288L-72.142,107.038L-72.074,107.75L-72.005,108.163L-71.937,107.788L-71.869,107.6L-71.8,107.887L-71.732,107.813L-71.663,107.7L-71.595,107.875L-71.526,107.975L-71.458,107.825L-71.389,107.612L-71.321,107.5L-71.253,108.2L-71.184,108.613L-71.116,108.825L-71.047,108.75L-70.979,108.988L-70.91,108.725L-70.842,108.55L-70.773,108.888L-70.705,109.375L-70.637,109.3L-70.568,109.112L-70.5,109.175L-70.431,108.9L-70.363,109.688L-70.294,110.113L-70.229,110.088L-70.16,110.188L-70.092,110.238L-70.023,109.988L-69.955,109.413L-69.886,109.538L-69.818,109.925L-69.75,109.738L-69.681,109.95L-69.613,110.113L-69.544,109.913L-69.476,109.538L-69.407,109.163L-69.339,109.413L-69.27,109.85L-69.202,109.8L-69.134,109.425L-69.065,109.063L-68.997,108.913L-68.928,108.75L-68.86,108.775L-68.791,108.85L-68.723,108.388L-68.654,108.163L-68.586,108.163L-68.518,108.038L-68.449,107.9L-68.381,107.887L-68.312,108.25L-68.244,108.4L-68.175,108.238L-68.107,107.95L-68.038,107.925L-67.97,107.65L-67.902,107.75L-67.833,108.013L-67.765,108.225L-67.696,108.538L-67.628,108.45L-67.559,108.275L-67.491,108.238L-67.422,108.425L-67.354,108.713L-67.286,108.925L-67.217,108.65L-67.149,108.425L-67.08,108.25L-67.012,108.462L-66.943,108.388L-66.875,108.313L-66.806,108.25L-66.738,108.338L-66.67,108.4L-66.601,107.887L-66.533,107.65L-66.464,107.963L-66.396,108.05L-66.327,107.9L-66.259,107.45L-66.19,107.1L-66.122,107.063L-66.054,107.063L-65.985,107.175L-65.917,107.438L-65.848,107.4L-65.78,107.262L-65.711,106.838L-65.643,106.288L-65.574,105.938L-65.506,106.025L-65.437,106.163L-65.369,106.175L-65.301,106.213L-65.232,106.025L-65.164,105.863L-65.095,105.325L-65.027,105.038L-64.958,104.588L-64.89,104.663L-64.821,104.95L-64.753,104.988L-64.685,104.8L-64.616,104.8L-64.548,105.388L-64.479,105.838L-64.411,105.788L-64.342,105.925L-64.274,106.475L-64.205,106.575L-64.137,106.738L-64.069,106.613L-64,107.05L-63.932,107.05L-63.863,107.063L-63.795,107.175L-63.726,107.075L-63.658,107.225L-63.589,107.238L-63.521,107.65L-63.453,107.813L-63.384,108.15L-63.316,108.263L-63.247,108.363L-63.179,108.175L-63.11,108.538L-63.042,109.075L-62.973,109.488L-62.905,109.962L-62.837,109.875L-62.768,109.613L-62.7,109.625L-62.631,109.7L-62.563,109.65L-62.494,109.513L-62.426,109.125L-62.357,108.725L-62.289,108.55L-62.221,108.275L-62.152,108.425L-62.084,108.2L-62.015,108.375L-61.947,108.313L-61.878,108.812L-61.81,108.675L-61.741,108.838L-61.673,109.188L-61.604,109.5L-61.536,109.813L-61.468,109.712L-61.399,109.663L-61.331,109.45L-61.262,109.137L-61.194,108.963L-61.125,109.213L-61.057,109.137L-60.988,109.225L-60.92,109.238L-60.852,109.075L-60.783,109.463L-60.715,109.75L-60.646,109.95L-60.578,110.15L-60.509,110.288L-60.441,110.2L-60.372,110.15L-60.304,110.5L-60.236,110.225L-60.167,110.325L-60.099,110.25L-60.03,110.688L-59.962,111.013L-59.893,110.662L-59.825,110.213L-59.756,110.175L-59.688,109.9L-59.62,109.613L-59.551,108.988L-59.483,108.95L-59.414,108.512L-59.346,107.937L-59.277,107.663L-59.209,107.65L-59.14,107.75L-59.072,108.1L-59.004,108.063L-58.935,107.338L-58.867,106.863L-58.798,106.687L-58.73,105.9L-58.661,105.512L-58.593,105.375L-58.524,105.238L-58.456,104.95L-58.388,104.562L-58.319,104.038L-58.251,103.588L-58.182,103.8L-58.114,103.725L-58.045,103.375L-57.977,102.663L-57.908,102.225L-57.84,102.325L-57.772,102.35L-57.703,102.163L-57.635,101.85L-57.566,101.875L-57.498,102.038L-57.429,101.8L-57.361,102.113L-57.292,102.238L-57.224,102.462L-57.155,102.5L-57.087,102.025L-57.019,101.175L-56.95,101L-56.882,101.488L-56.813,101.538L-56.745,101.837L-56.676,101.95L-56.608,102.038L-56.539,101.55L-56.471,101.038L-56.403,100.55L-56.334,100.675L-56.266,100.937L-56.197,100.788L-56.129,100.55L-56.06,99.975L-55.992,99.85L-55.923,100.025L-55.855,99.963L-55.787,99.663L-55.718,99.437L-55.65,99.538L-55.581,99.55L-55.513,99.475L-55.444,99.712L-55.376,99.513L-55.307,99.475L-55.239,99.5L-55.171,99L-55.102,98.6L-55.034,98.9L-54.965,98.837L-54.897,98.65L-54.828,98.638L-54.76,98.75L-54.691,98.288L-54.623,98.3L-54.555,98.388L-54.486,98.525L-54.418,98.7L-54.349,99.063L-54.281,98.488L-54.212,98.638L-54.144,99.025L-54.075,99.4L-54.007,99.95L-53.936,99.925L-53.867,99.913L-53.799,99.813L-53.73,99.663L-53.662,99.262L-53.593,99.113L-53.525,99.338L-53.457,99.437L-53.388,99.5L-53.32,99.9L-53.251,99.563L-53.183,99.188L-53.114,99.087L-53.046,98.837L-52.977,98.212L-52.909,97.838L-52.841,97.6L-52.772,97.263L-52.704,96.913L-52.635,96.65L-52.567,96.575L-52.498,96.25L-52.43,96.462L-52.361,96.575L-52.293,96.675L-52.225,96.9L-52.156,96.775L-52.088,96.65L-52.019,95.913L-51.951,95.337L-51.882,95.688L-51.814,95.538L-51.745,94.95L-51.677,94.3L-51.608,94.65L-51.54,95.363L-51.472,95.725L-51.403,95.525L-51.335,95.1L-51.266,94.937L-51.198,95.063L-51.129,95.238L-51.061,95.575L-50.992,96.462L-50.924,97L-50.856,97.775L-50.787,98.25L-50.719,98.613L-50.65,99.363L-50.582,99.725L-50.513,99.775L-50.445,99.35L-50.376,98.763L-50.308,97.913L-50.24,97.063L-50.171,97.312L-50.103,96.9L-50.034,96.55L-49.966,96.488L-49.897,96.675L-49.829,95.988L-49.76,95.663L-49.692,95.5L-49.624,95.1L-49.555,93.8L-49.487,91.325L-49.418,88.55L-49.35,86.25L-49.281,84.363L-49.213,82.638L-49.144,81.188L-49.076,79.688L-49.008,78.038L-48.939,75.525L-48.871,72.962L-48.802,70.488L-48.734,68.125L-48.665,66.1L-48.597,63.975L-48.528,63.375L-48.46,61.638L-48.392,61.113L-48.323,61.012L-48.255,61.438L-48.186,62.175L-48.118,61.863L-48.049,61.937L-47.981,61.525L-47.912,61.275L-47.844,61.038L-47.775,61.225L-47.707,61.425L-47.639,62.1L-47.57,63.125L-47.502,63.888L-47.433,65.675L-47.365,67.763L-47.296,69.85L-47.228,71.788L-47.159,73.013L-47.091,74.487L-47.023,76.087L-46.954,77.613L-46.886,79.7L-46.817,82.425L-46.749,84.863L-46.68,86.9L-46.612,88.65L-46.543,90.3L-46.475,90.65L-46.407,92.462L-46.338,93.363L-46.27,93.75L-46.201,94.1L-46.133,94.125L-46.064,94.538L-45.996,94.6L-45.927,94.962L-45.859,95.575L-45.791,95.85L-45.722,96.025L-45.654,96.325L-45.585,96.263L-45.517,96.2L-45.448,96.7L-45.38,96.938L-45.314,97.163L-45.246,97.525L-45.177,97.45L-45.109,97.738L-45.04,97.838L-44.972,97.825L-44.904,97.887L-44.835,98.05L-44.767,98.212L-44.698,98.525L-44.63,98.738L-44.561,99.063L-44.493,98.862L-44.424,99.188L-44.356,99.288L-44.288,99.588L-44.219,99.863L-44.151,99.9L-44.082,99.875L-44.014,99.663L-43.945,100.1L-43.877,100.438L-43.808,100.713L-43.74,101L-43.672,101.013L-43.603,100.813L-43.535,100.975L-43.466,101.375L-43.398,101.45L-43.329,101.2L-43.261,101L-43.192,100.85L-43.124,100.775L-43.056,100.688L-42.987,100.55L-42.919,100.863L-42.85,100.875L-42.782,101.188L-42.713,100.263L-42.645,99.75L-42.576,99.313L-42.508,99.025L-42.44,98.812L-42.371,98.563L-42.303,98.125L-42.234,97.725L-42.166,97.638L-42.097,97.575L-42.029,97.538L-41.96,97.663L-41.892,97.438L-41.824,97.312L-41.755,96.8L-41.687,96.35L-41.618,96.075L-41.55,95.888L-41.481,95.337L-41.413,95.063L-41.344,95.15L-41.276,95.275L-41.208,95.15L-41.139,94.937L-41.071,94.525L-41.002,94.35L-40.934,93.925L-40.865,93.413L-40.797,93.3L-40.728,92.5L-40.66,92.475L-40.591,92.225L-40.523,92.388L-40.455,92.125L-40.386,92.238L-40.318,92.038L-40.249,91.663L-40.181,91.638L-40.112,91.3L-40.044,90.875L-39.975,90.575L-39.907,90.238L-39.839,89.95L-39.77,90.012L-39.702,89.663L-39.633,89.638L-39.565,89.938L-39.496,89.963L-39.428,90.35L-39.359,90.7L-39.291,90.563L-39.223,90.913L-39.154,90.788L-39.086,90.725L-39.017,90.85L-38.949,91.025L-38.88,91.338L-38.812,91.488L-38.743,91.625L-38.675,91.912L-38.607,92.512L-38.538,92.95L-38.47,93.4L-38.401,93.488L-38.333,93.825L-38.264,93.95L-38.196,94.45L-38.127,94.613L-38.059,94.825L-37.991,95.013L-37.922,94.988L-37.854,95.075L-37.785,95.25L-37.717,95.013L-37.648,96.125L-37.58,96.725L-37.511,96.962L-37.443,97.238L-37.375,97.063L-37.306,96.675L-37.238,96.888L-37.169,96.375L-37.101,97.075L-37.032,97.275L-36.964,97.775L-36.895,97.838L-36.827,98.175L-36.758,98L-36.69,97.863L-36.622,97.712L-36.553,97.738L-36.485,97.9L-36.416,97.438L-36.348,97.688L-36.279,97.488L-36.211,97.475L-36.142,97.688L-36.074,97.525L-36.006,97.712L-35.937,97.825L-35.869,98.15L-35.8,98.237L-35.732,98.413L-35.663,98.65L-35.595,98.175L-35.526,97.775L-35.458,97.663L-35.39,97.538L-35.321,97.25L-35.253,97.213L-35.184,96.825L-35.116,96.613L-35.047,95.413L-34.979,94.65L-34.91,94.338L-34.842,93.938L-34.774,93.2L-34.705,93.225L-34.637,92.838L-34.568,92.5L-34.5,91.562L-34.431,91.088L-34.363,91.025L-34.294,90.275L-34.226,90.238L-34.158,89.7L-34.089,89.137L-34.021,89.05L-33.952,88.738L-33.884,88.163L-33.815,87.8L-33.747,87.838L-33.678,87.575L-33.61,87.675L-33.542,87.138L-33.473,86.788L-33.405,86.175L-33.336,86.5L-33.268,86.538L-33.199,86.7L-33.131,86.338L-33.062,86.2L-32.994,86.288L-32.926,86.625L-32.857,86.55L-32.789,86.45L-32.72,86.95L-32.652,87.475L-32.583,87.913L-32.515,87.95L-32.446,88.788L-32.378,88.562L-32.309,88.638L-32.241,89.013L-32.173,88.9L-32.104,89.05L-32.036,89.225L-31.967,89.113L-31.899,88.913L-31.83,89.025L-31.762,88.75L-31.693,88.2L-31.625,87.3L-31.557,86.175L-31.488,86.525L-31.42,86.488L-31.351,86.363L-31.283,85.688L-31.214,85.512L-31.146,84.65L-31.077,84.825L-31.009,84.7L-30.941,85.2L-30.872,84.988L-30.804,84.6L-30.735,84.3L-30.667,83.563L-30.598,82.537L-30.53,82.088L-30.461,82.288L-30.393,81.775L-30.325,81.463L-30.256,80.675L-30.188,80.163L-30.119,79.613L-30.051,79.45L-29.982,79.35L-29.914,79.513L-29.845,79.363L-29.777,79.038L-29.709,78.913L-29.64,78.825L-29.572,79.288L-29.503,79.913L-29.435,79.363L-29.366,78.663L-29.298,79.187L-29.229,79.225L-29.161,79.712L-29.093,80.175L-29.021,79.712L-28.953,79.738L-28.884,79.275L-28.816,79.3L-28.747,78.85L-28.679,79L-28.611,79.3L-28.542,79.75L-28.474,79.762L-28.405,79.675L-28.337,79.363L-28.268,79.475L-28.2,79.625L-28.131,79.738L-28.063,79.538L-27.995,79.55L-27.926,79.513L-27.858,79.038L-27.789,78.888L-27.721,79.187L-27.652,79.513L-27.584,79.688L-27.515,79.137L-27.447,78.513L-27.379,78.962L-27.31,79.675L-27.242,79.275L-27.173,79.388L-27.105,79.1L-27.036,78.813L-26.968,78.363L-26.899,78.775L-26.831,79.063L-26.762,79.088L-26.694,79.8L-26.626,79.525L-26.557,79.638L-26.489,79.563L-26.42,78.725L-26.352,78.725L-26.283,78.888L-26.215,79.212L-26.146,79.613L-26.078,80.5L-26.01,81.6L-25.941,81.975L-25.873,82.175L-25.804,82.625L-25.736,83.3L-25.667,83.687L-25.599,84L-25.53,83.95L-25.462,84.375L-25.394,84.05L-25.325,83.712L-25.257,84.125L-25.188,85.013L-25.12,84.163L-25.051,83.137L-24.983,82.725L-24.914,82.225L-24.846,81.025L-24.778,80.3L-24.709,79.35L-24.641,77.975L-24.572,77.788L-24.504,76.325L-24.435,74.575L-24.367,73.425L-24.298,72.75L-24.23,72.688L-24.162,72.188L-24.093,71.613L-24.025,70.663L-23.956,69.5L-23.888,68.975L-23.819,68.588L-23.751,67.663L-23.682,66.863L-23.614,66.35L-23.546,65.775L-23.477,65.037L-23.409,64.025L-23.34,64.088L-23.272,63.275L-23.203,61.863L-23.135,60.35L-23.066,60.05L-22.998,59.825L-22.93,58.775L-22.861,58.213L-22.793,58.075L-22.724,57.438L-22.656,57.237L-22.587,57L-22.519,55.138L-22.45,55.387L-22.382,55.788L-22.313,56.75L-22.245,56.938L-22.177,56.437L-22.108,56.225L-22.04,56.225L-21.971,55.975L-21.903,56.575L-21.834,56.588L-21.766,56.863L-21.697,57.1L-21.629,57.113L-21.561,56.663L-21.492,56.925L-21.424,57.588L-21.355,58.562L-21.287,59.312L-21.218,60.038L-21.15,60.925L-21.081,61.563L-21.013,62.463L-20.945,63.95L-20.876,65.5L-20.808,67.5L-20.739,68.55L-20.671,70.2L-20.602,71.738L-20.534,73.438L-20.465,76.325L-20.4,77.687L-20.331,79.663L-20.263,81.238L-20.195,82.075L-20.126,82.425L-20.058,83.05L-19.989,83.488L-19.921,83.975L-19.852,84.15L-19.784,84.338L-19.715,84.3L-19.647,84.838L-19.578,84.625L-19.51,85.363L-19.442,85.462L-19.373,86.013L-19.305,86.288L-19.236,86.538L-19.168,86.563L-19.099,86.712L-19.031,86.913L-18.962,87.075L-18.894,86.837L-18.826,87.087L-18.757,86.5L-18.689,86.075L-18.62,85.113L-18.552,84.675L-18.483,84.587L-18.415,84.288L-18.346,84.1L-18.278,83.238L-18.21,82.225L-18.141,81.513L-18.073,81.475L-18.004,81.3L-17.936,81.7L-17.867,82.05L-17.799,81.338L-17.73,81.7L-17.662,81.525L-17.594,80.9L-17.525,81.25L-17.457,81.288L-17.388,80.838L-17.32,80.488L-17.251,80.288L-17.183,80.313L-17.114,80.913L-17.046,80.55L-16.978,80.163L-16.909,80.137L-16.841,79.8L-16.772,79.388L-16.704,79.638L-16.635,79.638L-16.567,79.587L-16.498,79.375L-16.43,78.837L-16.362,78.988L-16.293,78.587L-16.225,78.2L-16.156,78.325L-16.088,78.063L-16.019,77.988L-15.951,78.025L-15.882,77.575L-15.814,77.062L-15.745,77.25L-15.677,76.288L-15.609,76.075L-15.54,76.275L-15.472,75.85L-15.403,75.663L-15.335,75.4L-15.266,74.988L-15.198,74.238L-15.129,73.562L-15.061,72.812L-14.993,72.95L-14.924,72.725L-14.856,72.212L-14.787,72.125L-14.719,72.05L-14.65,72.075L-14.582,72.4L-14.513,73.175L-14.445,73.95L-14.377,75.188L-14.308,75.25L-14.24,75.413L-14.171,75.913L-14.103,76.238L-14.034,76.413L-13.966,77.05L-13.897,77.425L-13.829,77.263L-13.761,77.125L-13.692,76.95L-13.624,77.675L-13.555,77.85L-13.487,78.113L-13.418,78.638L-13.35,78.463L-13.281,79.137L-13.213,79.5L-13.145,80.4L-13.076,80.65L-13.008,80.775L-12.939,80.863L-12.871,81.025L-12.802,81.25L-12.734,81.438L-12.665,81.975L-12.597,81.875L-12.529,81.575L-12.46,81.325L-12.392,80.462L-12.323,79.487L-12.255,78.95L-12.186,79.238L-12.118,79.5L-12.049,79.413L-11.981,79.725L-11.913,79.762L-11.844,78.975L-11.776,79.388L-11.707,79.738L-11.639,80.363L-11.57,80.525L-11.502,80.462L-11.433,80.475L-11.365,80.35L-11.296,80.225L-11.228,80.062L-11.16,80.15L-11.091,79.938L-11.023,79.975L-10.954,79.613L-10.886,79.587L-10.817,79.675L-10.749,79.925L-10.68,80.175L-10.612,80.05L-10.544,80.225L-10.475,80.275L-10.407,80.363L-10.338,80.475L-10.27,80.55L-10.201,80.6L-10.133,80.225L-10.064,79.525L-9.996,79.3L-9.928,78.863L-9.859,77.788L-9.791,77.65L-9.722,76.638L-9.654,75.988L-9.585,75.313L-9.517,74.563L-9.448,74.538L-9.38,74.475L-9.312,74.213L-9.243,73.825L-9.175,73.013L-9.106,72.138L-9.038,71.913L-8.969,71.775L-8.901,71.975L-8.832,72.125L-8.764,71.788L-8.696,71.013L-8.627,70.375L-8.559,69.625L-8.49,69.313L-8.422,69.363L-8.353,69.313L-8.285,69.125L-8.216,68.825L-8.148,68.513L-8.08,67.913L-8.011,67.75L-7.943,67.85L-7.874,67.962L-7.806,68.35L-7.737,68.288L-7.669,68.663L-7.6,68.475L-7.532,68.712L-7.463,68.463L-7.395,68.013L-7.327,67.988L-7.258,67.25L-7.19,67.375L-7.121,68.075L-7.053,67.725L-6.984,67.35L-6.916,66.863L-6.847,66.7L-6.779,66.225L-6.711,66.088L-6.642,66.088L-6.574,66.063L-6.505,66.45L-6.437,66.425L-6.368,66.15L-6.3,65.45L-6.231,64.9L-6.163,64.325L-6.095,64.238L-6.026,64.2L-5.958,63.75L-5.889,63.675L-5.821,63.088L-5.752,62.738L-5.684,62.687L-5.615,61.875L-5.547,61.613L-5.479,61.625L-5.41,61.213L-5.342,60.95L-5.273,60.387L-5.205,60.575L-5.136,60.425L-5.068,59.713L-4.999,60.55L-4.931,60.575L-4.863,60.588L-4.794,60.425L-4.726,60.188L-4.657,60.075L-4.589,60.25L-4.52,60.3L-4.452,58.85L-4.383,58.525L-4.315,58.6L-4.247,58.45L-4.178,58.813L-4.107,59.05L-4.038,59.038L-3.97,59.213L-3.901,59.363L-3.833,58.813L-3.765,58.65L-3.696,59.05L-3.628,59.337L-3.559,60.313L-3.491,60.638L-3.422,60.163L-3.354,60.313L-3.285,60.512L-3.217,60.512L-3.149,60.675L-3.08,60.875L-3.012,60.988L-2.943,60.825L-2.875,61.038L-2.806,60.975L-2.738,60.85L-2.669,61.15L-2.601,61.463L-2.533,61.113L-2.464,61.15L-2.396,62.475L-2.327,62.687L-2.259,62.875L-2.19,63.387L-2.122,63.8L-2.053,63.788L-1.985,63.15L-1.916,63.475L-1.848,64.088L-1.78,64.425L-1.711,64.875L-1.643,64.75L-1.574,64.838L-1.506,64.713L-1.437,64.888L-1.369,64.738L-1.3,64.863L-1.232,65L-1.164,65.087L-1.095,65.788L-1.027,65.788L-0.958,65.863L-0.89,65.275L-0.821,65.5L-0.753,66L-0.684,66.488L-0.616,66.488L-0.548,66.45L-0.479,68.238L-0.411,67.95L-0.342,64.55L-0.274,61.262L-0.205,59.163L-0.137,57.763L-0.068,56.6L0,55.2L0.068,54.575L0.137,53.825L0.205,53.187L0.274,53.075L0.342,53.225L0.411,53.013L0.479,52.375L0.548,52.05L0.616,52.263L0.684,53.15L0.753,54.113L0.821,54.513L0.89,54.525L0.958,54.313L1.027,55.025L1.095,55.4L1.164,56.363L1.232,56.688L1.3,57.05L1.369,57.463L1.437,57.538L1.506,57.288L1.574,56.175L1.643,56.775L1.711,60.325L1.78,64.125L1.848,66.188L1.916,67.6L1.985,68.15L2.053,69.75L2.122,71.275L2.19,71.938L2.259,72.663L2.327,72.962L2.396,72.625L2.464,72.713L2.533,73.2L2.601,73.625L2.669,73.65L2.738,73.387L2.806,72.738L2.875,72.45L2.943,72.375L3.012,72.025L3.08,71.25L3.149,71.463L3.217,71.4L3.285,70.663L3.354,70.125L3.422,69.2L3.491,69.25L3.559,69.513L3.628,69.475L3.696,69.3L3.765,69.525L3.833,68.8L3.901,68.463L3.97,68.575L4.038,69.075L4.107,69.3L4.175,69.338L4.244,69.338L4.312,68.887L4.381,68.638L4.449,69.1L4.517,69.088L4.586,69.075L4.654,68.988L4.723,68.725L4.791,68.212L4.86,68.025L4.928,67.575L4.994,67.525L5.062,67.275L5.131,67.013L5.199,66.288L5.268,66.025L5.336,65.887L5.404,65.463L5.473,65.938L5.541,65.887L5.61,66.438L5.678,66.488L5.747,66.525L5.815,66.225L5.884,66.55L5.952,67.337L6.02,67.563L6.089,68.063L6.157,68.6L6.226,68.887L6.294,68.387L6.363,68.963L6.431,69.338L6.5,69.438L6.568,69.713L6.636,69.525L6.705,69.563L6.773,69.513L6.842,69.963L6.91,70.55L6.979,71.163L7.047,71.15L7.116,71.337L7.184,71.7L7.252,72.038L7.321,71.838L7.389,72.225L7.458,72.513L7.526,72.062L7.595,71.725L7.663,71.15L7.732,70.25L7.8,70.1L7.868,69.9L7.937,69.8L8.005,68.738L8.074,68.2L8.142,68.013L8.211,67.6L8.279,67.525L8.348,67.113L8.416,66.4L8.484,65.837L8.553,65.288L8.621,64.838L8.69,64.513L8.758,64.012L8.827,63.738L8.895,63.15L8.964,62.55L9.032,61.925L9.101,61.575L9.169,61.312L9.237,61.113L9.306,60.75L9.374,60.338L9.443,60.087L9.511,59.463L9.58,59.25L9.648,58.562L9.717,58.238L9.785,57.975L9.853,57.275L9.922,56.85L9.99,56.713L10.059,57.05L10.127,56.588L10.196,55.4L10.264,54.738L10.333,54.4L10.401,54.85L10.469,55.138L10.538,55.562L10.606,56.287L10.675,56.9L10.743,56.975L10.812,57.013L10.88,57.625L10.949,58.488L11.017,58.363L11.085,58.275L11.154,58.525L11.222,58.988L11.291,59.125L11.359,59.312L11.428,59.688L11.496,59.713L11.565,60.3L11.633,60.325L11.701,61.325L11.77,61.463L11.838,62.213L11.907,63.325L11.975,63.488L12.044,63.562L12.112,63.725L12.181,64.038L12.249,64.888L12.317,65.05L12.386,65.325L12.454,65.337L12.523,64.9L12.591,64.563L12.66,63.938L12.728,63.475L12.797,64.088L12.865,64.8L12.933,64.825L13.002,64.187L13.07,64.362L13.139,64.825L13.207,65.225L13.276,65.388L13.344,65.238L13.413,65.275L13.481,65.45L13.55,65.5L13.618,66.075L13.686,66.338L13.755,66.475L13.823,66.462L13.892,66.125L13.96,65.588L14.029,66.013L14.097,65.837L14.166,65.8L14.234,66.088L14.302,66.388L14.371,66.363L14.439,65.763L14.508,66.188L14.576,66.75L14.645,67.263L14.713,66.963L14.782,67.288L14.85,66.762L14.918,66.188L14.987,65.413L15.055,65.325L15.124,65.225L15.192,64.15L15.261,63.288L15.329,62.525L15.398,61.988L15.466,61.463L15.534,60.763L15.603,60.425L15.671,59.2L15.74,58.838L15.808,58.137L15.877,57.425L15.945,57.15L16.014,57.1L16.082,56.125L16.15,55.05L16.219,55.025L16.287,54.325L16.356,52.875L16.424,52.387L16.493,52.163L16.561,51.813L16.63,51.65L16.698,50.6L16.766,50.363L16.835,49.35L16.903,49.325L16.972,49.713L17.04,49.95L17.109,49.988L17.177,49.963L17.246,50.5L17.314,50.713L17.383,51.362L17.451,51.7L17.519,52.563L17.588,53.013L17.656,53.338L17.725,53.763L17.793,53.975L17.862,54.3L17.93,54.875L17.999,55.613L18.067,55.5L18.135,56.125L18.204,56.55L18.272,56.113L18.341,56.4L18.409,57.212L18.478,58.137L18.546,58.3L18.615,57.775L18.683,57.375L18.751,57.425L18.82,57.35L18.888,57.812L18.957,57.738L19.025,57.05L19.094,56.863L19.162,56.475L19.231,57.6L19.299,56.3L19.367,56.675L19.436,56L19.504,55.725L19.573,55.2L19.641,54.475L19.71,53.813L19.778,53.175L19.847,52.65L19.915,52.225L19.983,51.6L20.052,50.612L20.12,49.6L20.189,48.625L20.257,48.95L20.326,48.675L20.394,48.538L20.463,47.663L20.531,47L20.599,46.925L20.668,47.15L20.736,46.963L20.805,47.425L20.873,47.788L20.942,47.875L21.01,47.638L21.079,47.688L21.147,47.338L21.215,46.963L21.287,45.725L21.355,46.875L21.424,47.062L21.492,46.85L21.561,47L21.629,46L21.697,46.362L21.766,46.663L21.834,47.388L21.903,47.938L21.971,47.763L22.04,46.425L22.108,46.012L22.177,46.625L22.245,47.488L22.313,47.788L22.382,48.225L22.45,48.063L22.519,48.063L22.587,47.213L22.656,47.763L22.724,48.05L22.793,48.713L22.861,48.9L22.93,48.95L22.998,48.275L23.066,47.562L23.135,47.663L23.203,47.775L23.272,48.788L23.34,49.012L23.409,49.225L23.477,48.337L23.546,48.188L23.614,47.537L23.682,48L23.751,48.475L23.819,48.688L23.888,48.35L23.956,48.25L24.025,48.238L24.093,49.837L24.162,50.85L24.23,51.613L24.298,51.625L24.367,51.813L24.435,52.025L24.504,52L24.572,52.938L24.641,53.675L24.709,53.338L24.778,53.587L24.846,52.888L24.914,52.25L24.983,52.375L25.051,53.437L25.12,54.65L25.188,54.762L25.257,55.325L25.325,55.325L25.394,55.225L25.462,55.3L25.53,55.313L25.599,56.213L25.667,57.138L25.736,58.275L25.804,57.325L25.873,56.025L25.941,55.663L26.01,55.788L26.078,55.825L26.146,56.113L26.215,56.15L26.283,55.663L26.352,55.663L26.42,55.6L26.489,55.4L26.557,55.75L26.626,55.687L26.694,56.713L26.762,56.925L26.831,57.138L26.899,57.425L26.968,58.213L27.036,58.463L27.105,58.15L27.173,57.7L27.242,57.588L27.31,57.262L27.379,57.025L27.447,57.363L27.515,57.525L27.584,58.188L27.652,58.012L27.721,57.438L27.789,56.2L27.858,56.563L27.926,57.55L27.995,58.813L28.063,55.813L28.131,52.387L28.2,49.55L28.268,46.888L28.337,44.313L28.405,42.45L28.474,41.638L28.542,41.55L28.611,42.2L28.679,41.813L28.747,40.262L28.816,39.3L28.884,38.937L28.953,39.05L29.021,38.425L29.09,38.088L29.158,37.5L29.227,37.35L29.295,36.913L29.363,37.088L29.432,37.225L29.5,36.925L29.569,37.025L29.637,37.163L29.706,36.925L29.774,37.437L29.843,38.413L29.908,39.5L29.977,40.387L30.045,40.65L30.114,44.263L30.182,48.637L30.25,51.712L30.319,54.55L30.387,58.125L30.456,60.275L30.524,60.5L30.593,60.425L30.661,59.863L30.73,59.813L30.798,60.463L30.866,60.938L30.935,60.525L31.003,60.837L31.072,61.238L31.14,61.412L31.209,61.975L31.277,62.413L31.346,62.963L31.414,62.85L31.482,62.55L31.551,62.712L31.619,62.538L31.688,61.738L31.756,61.738L31.825,61.738L31.893,61.45L31.962,60.8L32.03,60.238L32.098,58.863L32.167,57.7L32.235,56.813L32.304,56.475L32.372,56.388L32.441,55.788L32.509,55.45L32.578,55.8L32.646,55.3L32.714,55.113L32.783,55.35L32.851,55.45L32.92,55.625L32.988,56.887L33.057,56.375L33.125,56.325L33.194,56.275L33.262,55.988L33.33,56.1L33.399,56.05L33.467,55.938L33.536,55.663L33.604,54.987L33.673,54.563L33.741,54.325L33.81,54.725L33.878,54.538L33.946,53.763L34.015,53.288L34.083,53.05L34.152,52.837L34.22,52.938L34.289,52.538L34.357,52.188L34.426,51.887L34.494,51.1L34.563,50.187L34.631,48.925L34.699,48.975L34.768,48.688L34.836,47.925L34.905,47.638L34.973,47.163L35.042,45.663L35.11,45.5L35.179,44.625L35.247,44.525L35.315,44.763L35.384,44.6L35.452,44.738L35.521,44.987L35.589,45.375L35.658,46.3L35.726,46.513L35.795,47.15L35.863,46.837L35.931,46.625L36,46.862L36.068,47.175L36.137,46.95L36.205,47.237L36.274,47.612L36.342,48.413L36.411,48.45L36.479,48.587L36.547,48.675L36.616,49.85L36.684,50.213L36.753,49.913L36.821,50.187L36.89,50.937L36.958,50.838L37.027,51.413L37.095,52.037L37.163,52.275L37.232,52.95L37.3,52.875L37.369,52.513L37.437,52.037L37.506,51.838L37.574,51.875L37.643,51.662L37.711,51.275L37.779,51.8L37.848,51.6L37.916,51.7L37.985,52.062L38.053,53.412L38.122,53.038L38.19,53.625L38.259,54.012L38.327,53.838L38.396,53.338L38.464,53.387L38.532,53.85L38.601,54.25L38.669,53.875L38.738,55.225L38.806,56.225L38.875,56.413L38.943,56.5L39.012,57.313L39.08,57.438L39.148,57.413L39.217,57.863L39.285,57.438L39.354,57.275L39.422,57.55L39.491,58.075L39.559,58.288L39.628,58.55L39.696,58.9L39.764,58.675L39.833,58.537L39.901,58.5L39.97,57.863L40.038,57.563L40.107,56.213L40.175,56.287L40.244,55.813L40.312,54.8L40.38,54.337L40.449,53.75L40.517,53.375L40.586,52.387L40.654,52.025L40.723,51.575L40.791,50.35L40.86,50.15L40.928,49.663L40.996,49.325L41.065,49.112L41.133,49.112L41.202,48.75L41.27,47.638L41.339,47.4L41.407,46.775L41.476,46.213L41.544,45.712L41.612,44.475L41.681,43.525L41.749,42.45L41.818,41.8L41.886,40.75L41.955,40.563L42.023,41.425L42.092,41.912L42.16,41.925L42.228,42.05L42.297,41.912L42.365,42.088L42.434,42.275L42.502,43.087L42.571,43.787L42.639,43.9L42.708,43.375L42.776,43.213L42.845,43.15L42.913,42.588L42.981,42.788L43.05,42.138L43.118,41.787L43.187,41.263L43.255,40.675L43.324,40.825L43.392,41.175L43.461,41.488L43.529,41.275L43.597,41.2L43.666,41.025L43.734,40.625L43.803,40.988L43.871,41.762L43.94,42.1L44.008,41.4L44.077,40.1L44.145,38.738L44.213,38.45L44.282,38.137L44.35,37.675L44.419,38.288L44.487,38.425L44.556,37.25L44.624,36.35L44.693,36.113L44.761,36.063L44.829,36.4L44.898,36.737L44.966,36.85L45.035,36.162L45.103,35.987L45.172,35.7L45.24,35.237L45.309,35.113L45.377,34.513L45.445,34.363L45.514,34.275L45.582,34.563L45.651,34.513L45.719,35.288L45.788,35.425L45.856,35.65L45.925,35.2L45.993,34.825L46.061,35.3L46.13,35.788L46.201,36.025L46.27,36.15L46.338,36.35L46.407,36.763L46.475,35.825L46.543,34.687L46.612,35.15L46.68,35.725L46.749,36.1L46.817,35.925L46.886,35.437L46.954,34.038L47.023,33.238L47.091,33.575L47.159,34.225L47.228,34.025L47.296,33.763L47.365,34.075L47.433,35.075L47.502,34.5L47.57,33.988L47.639,34.425L47.707,35.1L47.775,35.288L47.844,35.85L47.912,35.063L47.981,34.55L48.049,34.513L48.118,34.5L48.186,34.525L48.255,35.313L48.323,33.788L48.392,32.137L48.46,31.1L48.528,30.263L48.597,30.05L48.665,29.825L48.734,29.213L48.802,28.713L48.871,29.388L48.939,30.25L49.008,32.338L49.076,33.325L49.144,34.1L49.213,34.487L49.281,34.625L49.35,35.15L49.418,35.3L49.487,35.45L49.555,36.563L49.624,37.425L49.692,37.775L49.76,37.575L49.829,36.85L49.897,37.15L49.966,38.462L50.034,39.538L50.103,40.737L50.171,41.475L50.24,41.775L50.308,41.325L50.376,43.138L50.445,45.213L50.513,46.925L50.582,48.413L50.65,49.738L50.719,50.65L50.787,51.5L50.856,52.375L50.924,53.375L50.992,53L51.061,53.088L51.129,53.975L51.198,54.388L51.266,54.187L51.335,54.5L51.403,55.188L51.472,56.075L51.54,56.675L51.608,57L51.677,57.713L51.745,57.45L51.814,57.513L51.882,58.475L51.951,58.438L52.019,58.625L52.088,58.575L52.156,58.338L52.225,58.5L52.293,58.313L52.361,58.912L52.43,59.213L52.498,58.988L52.567,58.1L52.635,58.175L52.704,58.488L52.772,57.975L52.841,57.837L52.909,57.637L52.977,57.075L53.046,57.35L53.114,56.95L53.183,55.875L53.251,54.575L53.32,54.613L53.388,55.1L53.457,54.4L53.525,52.9L53.593,52.075L53.662,51.263L53.73,50.025L53.799,49.888L53.867,50.15L53.936,50.3L54.004,50.363L54.073,50.25L54.141,50.063L54.209,50.275L54.278,50.213L54.346,50.937L54.415,51.613L54.483,51.625L54.552,52.437L54.62,53.325L54.689,53.6L54.757,53.663L54.823,54.037L54.891,54.075L54.96,54.538L55.028,54.488L55.096,54.012L55.165,53.813L55.233,54.162L55.302,54.912L55.37,55.737L55.439,55.413L55.507,56.1L55.576,56.663L55.644,56.612L55.712,56.413L55.781,57.125L55.849,57.15L55.918,56.825L55.986,56.525L56.055,56.3L56.123,55.138L56.192,54.875L56.26,55.05L56.328,54.9L56.397,54.525L56.465,53.763L56.534,53.713L56.602,52.437L56.671,51.963L56.739,52.075L56.808,52.263L56.876,52.687L56.944,52.225L57.013,51.825L57.081,51.312L57.15,51.525L57.218,51.9L57.287,51.813L57.355,51.55L57.424,50.525L57.492,49.425L57.56,49.338L57.629,49.725L57.697,49.25L57.766,49.663L57.834,49.45L57.903,49.513L57.971,49.637L58.04,49.988L58.108,50.438L58.176,51.312L58.245,51.55L58.313,50.9L58.382,50.813L58.45,50.825L58.519,50L58.587,49.263L58.656,49.325L58.724,49.313L58.792,49.138L58.861,48.65L58.929,48.138L58.998,48.438L59.066,48.413L59.135,48.438L59.203,48.775L59.272,48.262L59.34,48.362L59.409,48.188L59.477,47.913L59.545,47.862L59.614,46.6L59.682,46.675L59.751,47.062L59.819,46.975L59.888,46.75L59.956,45.638L60.025,45.287L60.093,44.463L60.161,44.075L60.23,44.35L60.298,44.638L60.367,44.45L60.435,44.587L60.504,44.837L60.572,45.838L60.641,46.975L60.709,47.413L60.777,47.587L60.846,47.6L60.914,48.125L60.983,48.763L61.051,48.938L61.12,48.863L61.188,49.313L61.257,49.538L61.325,49.837L61.393,49.75L61.462,49.637L61.53,50.45L61.599,51.738L61.667,53.437L61.736,53.475L61.804,53.962L61.873,54.113L61.941,54.95L62.009,56.25L62.078,56.725L62.146,57.538L62.215,57.55L62.283,57.087L62.352,57.1L62.42,57.513L62.489,57.675L62.557,58.038L62.625,58.25L62.694,57.787L62.762,57.763L62.831,57.663L62.899,57.7L62.968,57.6L63.036,57.175L63.105,57.463L63.173,57.575L63.242,57.3L63.31,56.725L63.378,56.75L63.447,56.738L63.515,56.975L63.584,56.963L63.652,56.5L63.721,55.638L63.789,55.587L63.858,55.238L63.926,55.5L63.994,55.687L64.063,56.3L64.131,56.337L64.2,56.363L64.268,56.4L64.337,56.238L64.405,55.825L64.474,55.7L64.542,55.525L64.61,54.35L64.679,53.937L64.747,53.55L64.816,52.85L64.884,52.025L64.953,51.5L65.021,50.625L65.09,49.35L65.158,49.012L65.226,48.463L65.295,48.8L65.363,49.35L65.432,49.45L65.5,48.988L65.569,48.312L65.637,47.288L65.706,46.513L65.774,46.075L65.842,45.337L65.911,45.625L65.979,45.075L66.048,44.7L66.116,43L66.185,42.687L66.253,42.638L66.322,42.825L66.39,42.863L66.458,43.075L66.527,43.225L66.595,42.9L66.664,42.938L66.732,42.925L66.801,43.325L66.869,44.225L66.938,44.812L67.006,45.188L67.074,46.025L67.143,46.988L67.211,47.288L67.28,47.463L67.348,47.35L67.417,47.075L67.485,46.55L67.554,46.95L67.622,47.325L67.691,48.2L67.759,48.675L67.827,49.362L67.896,50.162L67.964,49.85L68.033,49.412L68.101,48.838L68.17,49.387L68.238,48.913L68.307,48.275L68.375,48.025L68.443,48.287L68.512,47.275L68.58,46.275L68.649,45.85L68.717,45.663L68.786,45.488L68.854,45.2L68.923,44.612L68.991,44.025L69.059,43.55L69.128,42.963L69.196,42.687L69.265,42.225L69.333,42.138L69.402,41.375L69.47,40.3L69.539,40.363L69.607,40.35L69.675,39.95L69.744,39.813L69.812,40.188L69.881,38.55L69.949,37.437L70.018,36.737L70.086,37.163L70.155,37.088L70.223,37.025L70.291,36.263L70.36,36.525L70.428,36.1L70.497,35.763L70.565,36.288L70.634,36.675L70.702,37.35L70.771,37.988L70.839,37.888L70.907,37.325L70.976,36.637L71.044,36.825L71.116,37.025L71.184,36.588L71.253,36.625L71.321,36.113L71.389,35.775L71.458,36.187L71.526,37.213L71.595,37.375L71.663,37.375L71.732,38.438L71.8,38.313L71.869,37.425L71.937,37.65L72.005,38.15L72.074,38.663L72.142,38.875L72.211,39.15L72.279,38.775L72.348,38.725L72.416,38.363L72.485,38.225L72.553,37.938L72.621,38.663L72.69,39.55L72.758,39.475L72.827,38.937L72.895,39.125L72.964,39.1L73.032,39.463L73.101,40.262L73.169,40.063L73.238,40.462L73.306,40.663L73.374,41.187L73.443,41.713L73.511,42.05L73.58,41.813L73.648,42.638L73.717,42.225L73.785,41.55L73.854,41.638L73.922,42.4L73.99,43.8L74.059,44.55L74.127,44.975L74.196,45.325L74.264,45.5L74.333,46.288L74.401,48.262L74.47,48.925L74.538,49.675L74.606,50.3L74.675,49.725L74.743,49.087L74.812,49.112L74.88,49.875L74.949,49.663L75.017,49.787L75.086,50.562L75.154,50.525L75.222,50.587L75.291,50.425L75.359,50.875L75.428,51.463L75.496,52.025L75.565,52.488L75.633,52.738L75.702,51.475L75.77,51.963L75.838,52.738L75.907,53.212L75.975,53.475L76.044,53.387L76.112,53.137L76.181,53.025L76.249,52.5L76.318,52.8L76.386,53.113L76.454,52.588L76.523,52.662L76.591,52.613L76.66,52.575L76.728,53.175L76.797,53.25L76.865,53.75L76.934,53.813L77.002,54.275L77.07,54.663L77.139,53.225L77.207,52.888L77.276,53.113L77.344,53.65L77.413,53.475L77.481,52.7L77.55,51.75L77.618,50.838L77.687,50.725L77.755,51.388L77.823,51.75L77.892,51.675L77.96,51.863L78.029,51.975L78.097,51.6L78.166,50.75L78.234,50.95L78.303,51.312L78.371,50.838L78.439,50.65L78.508,50.15L78.576,49.713L78.645,49.488L78.713,49.762L78.782,49.488L78.85,49.812L78.919,49.288L78.987,49.15L79.055,48.975L79.124,48.725L79.192,49.637L79.261,49.688L79.329,50L79.398,50.112L79.466,50.537L79.535,51.075L79.603,51.725L79.671,52.225L79.737,52.225L79.805,52.213L79.874,52.238L79.942,52.175L80.011,51.6L80.079,51.025L80.148,51.625L80.216,52.125L80.285,51.9L80.353,52.15L80.422,52.8L80.49,52.7L80.558,53.513L80.627,54.175L80.695,55.138L80.764,55.813L80.832,56.7L80.901,57.075L80.969,57.313L81.038,57.05L81.106,57.275L81.174,57.938L81.243,58.638L81.311,58.45L81.38,58.05L81.448,58.125L81.517,57.325L81.585,57.387L81.654,57.513L81.722,57.425L81.79,57.825L81.859,58.063L81.927,57.588L81.996,56.337L82.064,56.262L82.133,56.775L82.201,56.275L82.27,56.1L82.338,55.888L82.406,54.725L82.475,53.825L82.543,53.538L82.612,52.713L82.68,52.125L82.749,51.5L82.817,50.187L82.886,49.025L82.954,48.488L83.022,48.425L83.091,48.325L83.159,48.088L83.228,47.675L83.296,47.125L83.365,46.913L83.433,46.762L83.502,46.138L83.57,46.475L83.638,46.163L83.707,46.1L83.775,46.025L83.844,45.388L83.912,44.138L83.981,44.175L84.049,45.013L84.118,45.362L84.186,45L84.255,45.038L84.323,45.275L84.391,45.1L84.46,45.65L84.528,45.775L84.597,46.188L84.665,46.1L84.734,45.425L84.802,45.238L84.871,45.025L84.939,44.288L85.007,44.1L85.076,43.625L85.144,43.862L85.213,44.725L85.281,46.075L85.35,46.375L85.418,47.062L85.487,47.775L85.555,48.538L85.623,48.963L85.692,49.563L85.76,49.963L85.829,50.2L85.897,50.537L85.966,51.75L86.034,52.1L86.103,52.225L86.171,52.288L86.239,52.275L86.308,52.725L86.376,53L86.445,53.2L86.513,53.3L86.582,53.838L86.65,53.8L86.719,54.413L86.787,55.488L86.855,55.45L86.924,55.65L86.992,56.512L87.061,56.663L87.129,57.237L87.198,57.413L87.266,56.4L87.335,55.263L87.403,55.6L87.471,56.038L87.54,56.213L87.608,55.988L87.677,54.762L87.745,53.875L87.814,53.875L87.882,53.725L87.951,54.05L88.019,53.925L88.087,53.725L88.156,54.037L88.224,53.55L88.293,53.937L88.361,54.1L88.43,54.837L88.498,55.425L88.567,55.913L88.635,55.238L88.704,55.063L88.772,55.263L88.84,55.325L88.909,55.45L88.977,55.85L89.046,56.4L89.114,56.725L89.183,56.45L89.251,56.325L89.32,56.825L89.388,57.438L89.456,57.588L89.525,57.313L89.593,56.413L89.662,55.988L89.73,56.75L89.799,56.437L89.867,55.925L89.936,55.138L90.004,54.45L90.072,53.65L90.141,53.113L90.209,52.563L90.278,52.662L90.346,52.325L90.415,51.65L90.483,50.663L90.552,50.013L90.62,48.887L90.688,48.463L90.757,48.038L90.825,47.638L90.894,46.95L90.962,46.275L91.031,45.95L91.099,44.85L91.168,43.575L91.236,43.437L91.304,42.963L91.373,42.325L91.441,41.338L91.51,40.525L91.578,40.2L91.647,40.925L91.715,41.4L91.784,40.838L91.852,40.838L91.92,40.425L91.989,40.25L92.057,40.163L92.126,40.138L92.194,40.563L92.263,41.225L92.331,41.725L92.4,41.962L92.468,42.125L92.537,42.238L92.605,42.813L92.673,43.825L92.742,44.388L92.81,44.463L92.879,44.075L92.947,44.25L93.016,44.212L93.084,44.237L93.153,45.038L93.221,46.075L93.289,46.012L93.358,45.963L93.426,45.825L93.495,45.5L93.563,45.688L93.632,45.875L93.7,45.138L93.769,44.175L93.837,44.388L93.905,44.888L93.974,44.075L94.042,44.7L94.111,45.25L94.179,45.525L94.248,45.238L94.316,44.3L94.385,43.388L94.453,42.775L94.521,42.725L94.59,42.725L94.658,41.987L94.727,41.613L94.795,41.888L94.864,41.137L94.932,40.737L95.001,40.313L95.069,40.15L95.137,40.15L95.206,39.413L95.274,39.175L95.343,38.588L95.411,38.1L95.48,38.313L95.548,38.85L95.617,39.013L95.685,37.6L95.753,37.938L95.822,38.425L95.89,39.05L95.959,39.313L96.03,40.638L96.099,40.762L96.167,40.313L96.235,40.575L96.304,40.45L96.372,40.65L96.441,40.563L96.509,40.75L96.578,40.8L96.646,40.575L96.715,40.6L96.783,39.913L96.851,39.125L96.92,39.938L96.988,39.662L97.057,40.138L97.125,40.238L97.194,40.063L97.262,39.525L97.331,38.875L97.399,39.463L97.467,39.85L97.536,38.975L97.604,39.113L97.673,38.838L97.741,40.325L97.81,40.35L97.878,40.85L97.947,39.763L98.015,39.212L98.084,38.962L98.152,38.975L98.22,38.912L98.289,38.975L98.357,39.388L98.426,39.488L98.494,40.188L98.563,40.513L98.631,40.913L98.7,40.85L98.768,41.15L98.836,41.813L98.905,42.675L98.973,42.763L99.042,43.513L99.11,43.45L99.179,43.55L99.247,43.538L99.316,44.425L99.384,44.9L99.452,45.163L99.521,45.5L99.589,46.675L99.658,46.463L99.726,46.762L99.795,46.787L99.863,47.388L99.932,47.675L100,49.062L100.068,49.8L100.137,49.412L100.205,48.863L100.274,48.963L100.342,49.588L100.411,50.412L100.479,50.488L100.548,50.537L100.616,50.587L100.684,50.35L100.753,50.95L100.821,50.85L100.89,51.238L100.958,51.4L101.027,51.7L101.095,51.9L101.164,52.213L101.232,52.862L101.3,53.688L101.369,54.1L101.437,55.025L101.506,55.438L101.574,55.425L101.643,55.475L101.711,55.625L101.78,55.8L101.848,56.063L101.916,55.65L101.985,55.5L102.053,54.775L102.122,54.05L102.19,54.937L102.259,55.625L102.327,56.3L102.396,55.525L102.464,54.863L102.533,54.912L102.601,54.65L102.669,55L102.738,55.712L102.806,55.575L102.875,55.625L102.943,56.15L103.012,56.188L103.08,56.688L103.149,58.163L103.217,58.887L103.285,59.675L103.354,60.675L103.422,62.225L103.491,63.163L103.559,64.625L103.628,66.438L103.696,68.087L103.765,70.212L103.833,72.15L103.901,73.7L103.97,75.775L104.038,77.675L104.107,80.05L104.175,82.563L104.244,84.4L104.312,86.688L104.381,88.663L104.449,91.35L104.517,93.825L104.586,96.212L104.651,98.3L104.72,100.275L104.788,101.813L104.857,103.888L104.925,106.438L104.994,107.963L105.062,110.038L105.131,111.825L105.199,112.925L105.268,114.263L105.336,115.513L105.404,116.3L105.473,116.95L105.541,117.713L105.61,117.962L105.678,118.3L105.747,118.75L105.815,119.113L105.884,119.087L105.952,119.4L106.02,119.313L106.089,119.387L106.157,119.2L106.226,119.113L106.294,119.063L106.363,118.813L106.431,118.513L106.5,118.213L106.568,117.713L106.636,117.225L106.705,117.288L106.773,116.938L106.842,116.588L106.91,116.513L106.979,115.638L107.047,114.962L107.116,113.9L107.184,113.337L107.252,112.325L107.321,111.313L107.389,110.913L107.458,110.263L107.526,109.213L107.595,108.575L107.663,107.725L107.732,107.175L107.8,106.525L107.868,105.825L107.937,105.187L108.005,104.188L108.074,103.5L108.142,102.688L108.211,102.1L108.279,101.287L108.348,100.25L108.416,99.238L108.484,99.1L108.553,98.5L108.621,97.863L108.69,97.275L108.758,96.275L108.827,95.75L108.895,95.013L108.964,94.312L109.032,93.6L109.101,93.2L109.169,92.9L109.237,92.063L109.306,91.663L109.374,90.725L109.443,89.525L109.511,88.525L109.58,87.888L109.648,87.025L109.717,86.563L109.785,85.638L109.853,84.587L109.922,83.238L109.99,82.3L110.059,81.688L110.127,80.363L110.196,79.187L110.264,78.538L110.333,77.65L110.401,77.025L110.469,76.8L110.538,75.738L110.606,75.313L110.675,74.813L110.743,74.337L110.812,73.75L110.88,72.775L110.949,72.263L111.017,71.588L111.085,71.5L111.154,70.738L111.222,69.913L111.291,68.863L111.359,68.212L111.428,68.688L111.496,68.525L111.565,68.438L111.633,67.613L111.701,66.738L111.77,65.763L111.838,65.5L111.907,64.613L111.975,64.063L112.044,63.15L112.112,62.637L112.181,62.575L112.249,61.788L112.317,60.788L112.386,60.55L112.454,59.738L112.523,58.488L112.591,57.588L112.66,55.95L112.728,54.425L112.797,53.763L112.865,52.788L112.933,52.25L113.002,50.788L113.07,49.8L113.139,48.475L113.207,48.337L113.276,47.75L113.344,47.887L113.413,47.188L113.481,46.15L113.55,45.513L113.618,44.837L113.686,44.65L113.755,44.138L113.823,44.225L113.892,43.787L113.96,44.163L114.029,43.913L114.097,43.688L114.166,43.487L114.234,43.45L114.302,43.725L114.371,43.65L114.439,43.5L114.508,43.762L114.576,43.688L114.645,43L114.713,43.075L114.782,43.7L114.85,43.163L114.918,43.563L114.987,43.213L115.055,43.425L115.124,43.012L115.192,42.712L115.261,41.912L115.329,41.787L115.398,40.513L115.466,39.838L115.534,38.962L115.603,37.8L115.671,37.275L115.74,36.888L115.808,36.925L115.877,36.263L115.945,35.688L116.014,34.825L116.082,34.7L116.15,35.075L116.219,34.263L116.287,33.5L116.356,32.775L116.424,32.213L116.493,31.625L116.561,30.913L116.63,30.562L116.698,30.063L116.766,29.362L116.835,28.6L116.903,28.062L116.972,27.287L117.04,26.35L117.109,26.263L117.177,26.487L117.246,26.713L117.314,26.062L117.383,26.225L117.451,27.287L117.519,27.8L117.588,28.05L117.656,28.625L117.725,28.25L117.793,27.688L117.862,27.562L117.93,27.537L117.999,27.612L118.067,27.775L118.135,27.575L118.204,26.925L118.272,26.825L118.341,27.575L118.409,27.688L118.478,27.612L118.546,27.562L118.615,27.838L118.683,27.863L118.751,27.838L118.82,27.788L118.888,26.45L118.957,26.937L119.025,27.25L119.094,27.7L119.162,27.225L119.231,26.75L119.299,26.25L119.367,25.862L119.436,25.062L119.504,24.463L119.573,24.163L119.641,24.3L119.71,24.475L119.778,24.537L119.847,24.987L119.915,24.9L119.983,24.413L120.052,24.525L120.12,24.312L120.189,24.588L120.257,24.65L120.326,25.225L120.394,24.888L120.463,25.363L120.531,25.388L120.599,25.138L120.668,25.025L120.736,25.638L120.805,26.562L120.873,27.688L120.945,29.875L121.013,29.713L121.081,29.912L121.15,30.362L121.218,30.55L121.287,31.087L121.355,31.3L121.424,32.625L121.492,33.05L121.561,32.9L121.629,33.15L121.697,33.438L121.766,33.85L121.834,34.637L121.903,35.1L121.971,35.513L122.04,36.263L122.108,34.888L122.177,33.488L122.245,31.662L122.313,30.413L122.382,29.825L122.45,29.6L122.519,29.25L122.587,29.95L122.656,31.213L122.724,31.763L122.793,32.013L122.861,32.338L122.93,32.675L122.998,32.187L123.066,32.612L123.135,33.038L123.203,34.125L123.272,35.063L123.34,35.5L123.409,36.475L123.477,36.675L123.546,37.45L123.614,38.388L123.682,39.125L123.751,39.987L123.819,40.25L123.888,41.063L123.956,41.575L124.025,41.725L124.093,41.85L124.162,44.012L124.23,46.213L124.298,49.175L124.367,51.413L124.435,52.45L124.504,53.15L124.572,53.713L124.641,53.638L124.709,53.625L124.778,54.2L124.846,54.538L124.914,54.688L124.983,54.413L125.051,54.787L125.12,54.8L125.188,56.025L125.257,53.925L125.325,50.325L125.394,46.812L125.462,43.738L125.53,40.163L125.599,37.387L125.667,34.15L125.736,31.35L125.804,28.95L125.873,26.975L125.941,24.613L126.01,22.487L126.078,20.838L126.146,19.662L126.215,18.637L126.283,17.85L126.352,16.888L126.42,15.712L126.489,14.45L126.557,13.375L126.626,12.575L126.694,12.163L126.762,11.45L126.831,10.588L126.899,9.938L126.968,9.388L127.036,8.8L127.105,9.05L127.173,9.438L127.242,8.187L127.31,9.525L127.379,12.813L127.447,16.163L127.515,18.225L127.584,21.987L127.652,24.888L127.721,28L127.789,30.463L127.858,32.225L127.926,34.075L127.995,35.688L128.063,37.437L128.131,39.525L128.2,40.925L128.268,41.725L128.337,42.312L128.405,42.838L128.474,43.9L128.542,45.013L128.611,46.312L128.679,47.463L128.747,48.713L128.816,48.887L128.884,49.25L128.953,49.613L129.021,50.537L129.09,51.675L129.158,51.912L129.227,52.462L129.295,52.788L129.363,52.975L129.432,53.437L129.5,53.363L129.569,54.263L129.637,54.05L129.706,52.95L129.774,52.5L129.843,52.35L129.911,52.412L129.979,52.013L130.045,52.513L130.114,52.387L130.182,52.087L130.25,51.788L130.319,51.213L130.387,51.125L130.456,51.2L130.524,51.425L130.593,51.2L130.661,50.85L130.73,50.263L130.798,49.025L130.866,48.825L130.935,48.488L131.003,48.025L131.072,47.25L131.14,46.112L131.209,45.712L131.277,44.738L131.346,43.812L131.414,43.262L131.482,42.9L131.551,42.712L131.619,42.15L131.688,41.525L131.756,41.313L131.825,40.913L131.893,40.225L131.962,40.2L132.03,40.15L132.098,38.912L132.167,38.225L132.235,37.45L132.304,36.838L132.372,36.775L132.441,37.05L132.509,36.388L132.578,35.587L132.646,35.125L132.714,34.662L132.783,33.687L132.851,33L132.92,33.275L132.988,33.238L133.057,32.95L133.125,32.887L133.194,33.05L133.262,32.937L133.33,33.413L133.399,32.988L133.467,33.325L133.536,33L133.604,32.887L133.673,32.325L133.741,31.325L133.81,31.4L133.878,31.8L133.946,32.112L134.015,31.313L134.083,30.838L134.152,31.062L134.22,31.05L134.289,30.562L134.357,30.713L134.426,30.775L134.494,30.238L134.563,30.413L134.631,30.25L134.699,29.475L134.768,29.225L134.836,30.063L134.905,31.013L134.973,30.65L135.042,29.85L135.11,29.7L135.179,29.237L135.247,28.5L135.315,28L135.384,27.213L135.452,27.813L135.521,27.612L135.589,27.6L135.658,27.813L135.726,28.575L135.795,29.887L135.863,30.4L135.931,30.625L136,30.95L136.068,31L136.137,30.95L136.205,30.975L136.274,31.738L136.342,32.475L136.411,33.563L136.479,33.35L136.547,33.137L136.616,33.263L136.684,33.613L136.753,34.938L136.821,35.05L136.89,35.212L136.958,35.237L137.027,35.162L137.095,35.462L137.163,35.738L137.232,36.313L137.3,37.487L137.369,36.788L137.437,36.388L137.506,35.75L137.574,35.15L137.643,34.975L137.711,34.988L137.779,35.063L137.848,35.088L137.916,35.2L137.985,35.288L138.053,34.862L138.122,35.05L138.19,35.825L138.259,35.9L138.327,35.5L138.396,35.137L138.464,34.213L138.532,34.65L138.601,34.975L138.669,34.9L138.738,35.363L138.806,35.538L138.875,36.038L138.943,35.412L139.012,35.625L139.08,35.725L139.148,36.187L139.217,36.538L139.285,36.212L139.354,35.587L139.422,35.937L139.491,35.987L139.559,36.413L139.628,37.038L139.696,36.95L139.764,36.625L139.833,36.825L139.901,36.1L139.97,35.663L140.038,35.4L140.107,35.063L140.175,35.513L140.244,35.025L140.312,34.213L140.38,33.513L140.449,32.863L140.517,32.125L140.586,30.8L140.654,29.912L140.723,29.237L140.791,27.838L140.86,26.338L140.928,25.238L140.996,24.813L141.065,24.625L141.133,24.175L141.202,23.025L141.27,21.975L141.339,21.05L141.407,19.875L141.476,19.513L141.544,19.987L141.612,19.475L141.681,18.45L141.749,18.513L141.818,18.375L141.886,17.175L141.955,16.638L142.023,16.475L142.092,15.85L142.16,15.687L142.228,14.738L142.297,14.575L142.365,15.088L142.434,15.4L142.502,16.225L142.571,16.337L142.639,16.837L142.708,17.4L142.776,16.888L142.845,16.825L142.913,17.412L142.981,17.562L143.05,17.912L143.118,16.763L143.187,16.425L143.255,17.3L143.324,17.05L143.392,16.963L143.461,17.412L143.529,17.688L143.597,17.237L143.666,16.712L143.734,15.85L143.803,14.225L143.871,13.575L143.94,14.175L144.008,14.437L144.077,13.637L144.145,13.35L144.213,13.15L144.282,12.55L144.35,12.1L144.419,11.825L144.487,12.038L144.556,11.738L144.624,11.35L144.693,11.288L144.761,10.413L144.829,10.163L144.898,10.112L144.966,9.65L145.035,9.562L145.103,9L145.172,8.75L145.24,8.35L145.309,7.7L145.377,8.025L145.445,8.787L145.514,8.325L145.582,8.25L145.651,8.45L145.719,8.775L145.788,9.862L145.856,10.9L145.925,10.862L145.993,10.787L146.061,10.963L146.13,11.212L146.198,10.65L146.267,10.812L146.338,11.625L146.407,11.85L146.475,12.163L146.543,11.725L146.612,10.675L146.68,10.263L146.749,10.55L146.817,11.537L146.886,12.137L146.954,12.413L147.023,12.425L147.091,12.213L147.159,12.063L147.228,13.163L147.296,14.187L147.365,14.713L147.433,15.337L147.502,15.525L147.57,16.8L147.639,18L147.707,18.6L147.775,19.65L147.844,20.663L147.912,21.512L147.981,22.775L148.049,23.625L148.118,24.525L148.186,25.888L148.255,27.638L148.323,28.738L148.392,29.313L148.46,29.525L148.528,29.512L148.597,30.263L148.665,31.775L148.734,33.388L148.802,34.163L148.871,34.45L148.939,35.162L149.008,35.838L149.076,36.8L149.144,38.225L149.213,40.1L149.281,39.875L149.35,40.088L149.418,40.325L149.487,40.35L149.555,39.987L149.624,40.15L149.692,40.125L149.76,39.637L149.829,39.05L149.897,38.15L149.966,39.575L150.034,37.75L150.103,33.975L150.171,31.313L150.24,29.125L150.308,28.087L150.376,27.275L150.445,26.575L150.513,26.487L150.582,26.725L150.65,26.738L150.719,26.638L150.787,26.587L150.856,26.463L150.924,26.075L150.992,25.138L151.061,25.062L151.129,24.788L151.198,24.875L151.266,23.787L151.335,24.213L151.403,24L151.472,23.688L151.54,24.237L151.608,25.538L151.677,26.35L151.745,26.5L151.814,27.4L151.882,27.312L151.951,27.6L152.019,26.313L152.088,27.612L152.156,30.637L152.225,32.575L152.293,34.5L152.361,34.5L152.43,34L152.498,34.3L152.567,34.712L152.635,34.525L152.704,34.338L152.772,34.2L152.841,33.513L152.909,33.388L152.977,33.337L153.046,34.188L153.114,33.763L153.183,34.25L153.251,33.95L153.32,33.738L153.388,32.838L153.457,33.137L153.525,33.337L153.593,33.375L153.662,32.562L153.73,31.325L153.799,30.175L153.867,28.725L153.936,28.95L154.004,29.325L154.073,29.05L154.141,29.263L154.209,29.25L154.278,29.062L154.346,28.475L154.415,28.475L154.483,29.313L154.552,29.625L154.62,29.725L154.689,30.088L154.757,30.013L154.825,29.313L154.894,29.713L154.96,29.725L155.028,29.95L155.096,29.938L155.165,30.438L155.233,30.088L155.302,29.725L155.37,30.887L155.439,31.862L155.507,32.187L155.576,33.088L155.644,33.088L155.712,32.425L155.781,32.038L155.849,32.112L155.918,33.013L155.986,32.887L156.055,32.7L156.123,32.887L156.192,32.2L156.26,31.837L156.328,32.387L156.397,33.113L156.465,33.838L156.534,33.912L156.602,33.813L156.671,33.162L156.739,32.887L156.808,33L156.876,34.075L156.944,34.087L157.013,33.975L157.081,33.838L157.15,33.413L157.218,33.162L157.287,32.45L157.355,32.575L157.424,31.437L157.492,30.9L157.56,30L157.629,29.062L157.697,27.562L157.766,27.438L157.834,27.963L157.903,28.125L157.971,27.987L158.04,28.1L158.108,27.925L158.176,28.175L158.245,28.975L158.313,29.713L158.382,30.075L158.45,29.55L158.519,28.3L158.587,27.775L158.656,27.063L158.724,27.388L158.792,27.388L158.861,27.025L158.929,27.038L158.998,26.6L159.066,25.725L159.135,24.662L159.203,24.775L159.272,25.188L159.34,25.613L159.409,25.85L159.477,26.325L159.545,26.175L159.614,26.163L159.682,26.013L159.751,27.063L159.819,27.2L159.888,26.7L159.956,26.075L160.025,25.5L160.093,25.275L160.161,25.363L160.23,24.925L160.298,24.562L160.367,24.575L160.435,24.888L160.504,25.225L160.572,27.2L160.641,28.25L160.709,29.062L160.777,29.65L160.846,29.963L160.914,30.587L160.983,30.175L161.051,30.575L161.12,31.75L161.188,33.475L161.257,33.725L161.325,33.912L161.393,34.288L161.462,34.325L161.53,34.45L161.599,35.212L161.667,35.863L161.736,37L161.804,36.737L161.873,37.575L161.941,37.875L162.009,38.838L162.078,39.3L162.146,40.213L162.215,40.875L162.283,41.175L162.352,41.537L162.42,41.787L162.489,40.825L162.557,41.063L162.625,40.538L162.694,40.35L162.762,40.45L162.831,40.35L162.899,40.288L162.968,39.85L163.036,40.275L163.105,40.55L163.173,40.613L163.242,40.812L163.31,41.088L163.378,40.675L163.447,40.6L163.515,40.437L163.584,40.963L163.652,41.363L163.721,41.613L163.789,41.438L163.858,42.15L163.926,41.638L163.994,42.15L164.063,41.888L164.131,42.063L164.2,41.838L164.268,41.65L164.337,41.663L164.405,41.475L164.474,41.212L164.542,41.325L164.61,41.088L164.679,40.737L164.747,40.5L164.816,40.288L164.884,40.05L164.953,40.05L165.021,40.4L165.09,39.888L165.158,39.888L165.226,39.212L165.295,38.063L165.363,37.238L165.432,36.813L165.5,36.538L165.569,36.038L165.637,35.113L165.706,34.238L165.774,33.65L165.842,32.2L165.911,30.713L165.979,30.788L166.048,29.65L166.116,29.638L166.185,29.175L166.253,28.1L166.322,27.438L166.39,27.075L166.458,28.025L166.527,27.325L166.595,27.15L166.664,26.45L166.732,25.713L166.801,24.863L166.869,24.588L166.938,24.6L167.006,24.35L167.074,24.175L167.143,24.638L167.211,24.413L167.28,24.4L167.348,25.4L167.417,25.988L167.485,26.212L167.554,26.313L167.622,26.738L167.691,26.25L167.759,26.338L167.827,26.438L167.896,27.275L167.964,28.05L168.033,27.825L168.101,28.425L168.17,28.012L168.238,27.4L168.307,27.875L168.375,27.737L168.443,27.6L168.512,26.4L168.58,26.5L168.649,25.95L168.717,25.263L168.786,25.087L168.854,25.15L168.923,25.363L168.991,24.963L169.059,24.75L169.128,24.337L169.196,23.275L169.265,22.75L169.333,23.025L169.402,22.2L169.47,21.938L169.539,21.913L169.607,21.425L169.675,20.663L169.744,20.45L169.812,20.187L169.881,19.95L169.949,19.4L170.018,19.35L170.086,18.975L170.155,18.888L170.223,18.55L170.291,19.063L170.36,18.9L170.428,17.987L170.497,18.25L170.565,18.712L170.634,18.975L170.702,19.375L170.771,20.275L170.839,21.125L170.907,21.65L170.976,21.35L171.044,20.388L171.113,19.613L171.181,19.788L171.253,20.475L171.321,20.9L171.389,20.688L171.458,20.05L171.526,19.6L171.595,18.888L171.663,19.012L171.732,19.387L171.8,20.575L171.869,20.813L171.937,20.05L172.005,19.838L172.074,18.813L172.142,19.188L172.211,19.313L172.279,19.838L172.348,20.013L172.416,19.638L172.485,20.813L172.553,20.212L172.621,20.1L172.69,19.913L172.758,19.925L172.827,20.137L172.895,19.725L172.964,18.95L173.032,18.513L173.101,20.137L173.169,21.15L173.238,21.237L173.306,21.187L173.374,21.362L173.443,21.5L173.511,21.687L173.58,21.9L173.648,22.275L173.717,22.975L173.785,23.288L173.854,23.187L173.922,23.338L173.99,23.925L174.059,25.238L174.127,26.638L174.196,27.088L174.264,27.663L174.333,28.362L174.401,28L174.47,27.85L174.538,27.725L174.606,28.263L174.675,28.6L174.743,28.963L174.812,29.213L174.88,29L174.949,29.013L175.017,29.8L175.086,30.737L175.154,30.438L175.222,30L175.291,30.1L175.359,30.375L175.428,30L175.496,29.837L175.565,30.938L175.633,31.313L175.702,31.763L175.77,30.963L175.838,30.612L175.907,30.238L175.975,30.188L176.044,30.825L176.112,30.112L176.181,30.4L176.249,29.837L176.318,28.875L176.386,28.4L176.454,29.213L176.523,30.938L176.591,31.9L176.66,32.625L176.728,32.362L176.797,31.888L176.865,31.875L176.934,32.288L177.002,32.463L177.07,32.962L177.139,32.85L177.207,32.537L177.276,32.975L177.344,32.663L177.413,31.975L177.481,32.925L177.55,33.225L177.618,32.488L177.687,32.425L177.755,31.575L177.823,31.787L177.892,32.213L177.96,32.713L178.029,32.775L178.097,32.5L178.166,31.888L178.234,30.525L178.303,29.85L178.371,29.912L178.439,30.063L178.508,29.475L178.576,28.95L178.645,27.75L178.713,26.25L178.782,25.638L178.85,25.525L178.919,25.913L178.987,26.25L179.055,26.787L179.124,26.625L179.192,26.35L179.261,26.663L179.329,26.812L179.398,27.475L179.466,28.45L179.535,28.638L179.603,28.9L179.671,29.362L179.74,29.537L179.808,31.087L179.874,31.975L179.942,32.75L180.011,33.613L180.079,34.163L180.148,34.487L180.216,34.95L180.285,35.363L180.353,36.75L180.422,37.088L180.49,36.263L180.558,36.712L180.627,36.413L180.695,35.962L180.764,36.463L180.832,36.775L180.901,37.35L180.969,37.088L181.038,36.337L181.106,36.013L181.174,35.3L181.243,35.225L181.311,34.6L181.38,34.563L181.448,34.45L181.517,33.937L181.585,32.313L181.654,31.362L181.722,30.975L181.79,30.575L181.859,29.7L181.927,29.4L181.996,28.263L182.064,26.987L182.133,26.413L182.201,25.787L182.27,25.737L182.338,26.075L182.406,26.013L182.475,26.55L182.543,26.725L182.612,26.313L182.68,26.062L182.749,27.237L182.817,27.138L182.886,27.275L182.954,27.038L183.022,27.25L183.091,27.463L183.159,27.875L183.228,28.362L183.296,29.15L183.365,29.488L183.433,29.15L183.502,29.438L183.57,29.625L183.638,30.225L183.707,30.825L183.775,31.188L183.844,31.6L183.912,32.237L183.981,31.7L184.049,30.963L184.118,31.013L184.186,30.625L184.255,31.538L184.323,32.225L184.391,32.412L184.46,32.288L184.528,31.412L184.597,31.625L184.665,31.825L184.734,32.175L184.802,31.888L184.871,32.075L184.939,31.5L185.007,30.413L185.076,29.388L185.144,29.338L185.213,28.775L185.281,29.025L185.35,28.525L185.418,28.65L185.487,29.037L185.555,28.9L185.623,29.275L185.692,29.512L185.76,30.075L185.829,30.213L185.897,29.938L185.966,28.862L186.034,28.975L186.103,30.213L186.171,30.925L186.239,31.45L186.308,31.225L186.376,31.087L186.445,31.025L186.513,30.813L186.582,31.3L186.65,32.013L186.719,32.412L186.787,32.9L186.855,32.688L186.924,32.438L186.992,33.038L187.061,34.325L187.129,35.313L187.198,35.738L187.266,35.912L187.335,35.225L187.403,34.875L187.471,34.837L187.54,34.925L187.608,34.963L187.677,34.788L187.745,34.913L187.814,34.188L187.882,34.125L187.951,34.075L188.019,34.7L188.087,35.3L188.156,35.513L188.224,35.3L188.293,35.113L188.361,34.462L188.43,34.15L188.498,34.65L188.567,35L188.635,35.125L188.704,35.125L188.772,34.963L188.84,34.25L188.909,34.775L188.977,35.688L189.046,36.263L189.114,36.625L189.183,36.913L189.251,36.337L189.32,35.887L189.388,35.962L189.456,36.925L189.525,37.538L189.593,37.263L189.662,36.925L189.73,36.425L189.799,36.675L189.867,36.275L189.936,35.9L190.004,35.4L190.072,34.788L190.141,33.475L190.209,31.538L190.278,30.525L190.346,29.413L190.415,29.587L190.483,29.35L190.552,28.837L190.62,28.062L190.688,27.9L190.757,26.587L190.825,25.125L190.894,24.625L190.962,24.088L191.031,23.888L191.099,22.85L191.168,21.813L191.236,20.8L191.304,21.163L191.373,20.825L191.441,21.362L191.51,20.388L191.578,20.038L191.647,19.825L191.715,19.725L191.784,19.275L191.852,18.438L191.92,19.35L191.989,18.912L192.057,18.712L192.126,19.313L192.194,20.437L192.263,21.987L192.331,22.725L192.4,23.363L192.468,23.113L192.537,22.663L192.605,22.563L192.673,22.437L192.742,22.437L192.81,22.875L192.879,23.475L192.947,23.812L193.016,23.5L193.084,22.775L193.153,22.412L193.221,22L193.289,22.25L193.358,21.313L193.426,21.687L193.495,20.7L193.563,19.95L193.632,18.35L193.7,17.975L193.769,17.25L193.837,17.313L193.905,16.913L193.974,15.563L194.042,15.513L194.111,15.463L194.179,14.55L194.248,13.963L194.316,13.3L194.385,12.375L194.453,12.263L194.521,11.325L194.59,11.313L194.658,10.475L194.727,10.15L194.795,9.938L194.864,9.888L194.932,9.488L195.001,8.375L195.069,7.837L195.137,7.425L195.206,7.213L195.274,7.462L195.343,6.488L195.411,7.312L195.48,7.287L195.548,7.262L195.617,8.075L195.685,9.013L195.753,9.425L195.822,9.262L195.89,9.2L195.959,9.325L196.027,9.113L196.096,9.213L196.167,9.562L196.235,10.513L196.304,10.7L196.372,10.963L196.441,10.95L196.509,10.6L196.578,11.488L196.646,10.837L196.715,11.225L196.783,11.788L196.851,10.888L196.92,10.688L196.988,11.025L197.057,12.038L197.125,12.213L197.194,12.538L197.262,12.875L197.331,13.175L197.399,13.75L197.467,12.488L197.536,11.912L197.604,12.337L197.673,12.875L197.741,13.275L197.81,12.975L197.878,13.087L197.947,12.825L198.015,11.987L198.084,12.413L198.152,12.763L198.22,12.813L198.289,12L198.357,11.275L198.426,11.45L198.494,12.025L198.563,12.887L198.631,12.612L198.7,13.8L198.768,14.125L198.836,14.175L198.905,14.962L198.973,14.9L199.042,14.8L199.11,14.612L199.179,15.675L199.247,15.95L199.316,16.275L199.384,16.712L199.452,16.988L199.521,18.113L199.589,18.912L199.658,19.387L199.726,18.888L199.795,18.712L199.863,18.513L199.932,19.163L200,19.725L200.068,21.175L200.137,21.913L200.205,21.438L200.274,21.712L200.342,21.763L200.411,22.025L200.479,21.987L200.548,21.788L200.616,21.525L200.684,22.188L200.753,22.163L200.821,21.95L200.89,21.813L200.958,22.163L201.027,22.563L201.095,23.187L201.164,23.413L201.232,21.913L201.3,21.237L201.369,21.375L201.437,21.2L201.506,21.85L201.574,21.913L201.643,22.287L201.711,21.575L201.78,21.237L201.848,21.425L201.916,21.763L201.985,22.213L202.053,22.513L202.122,22.325L202.19,21.813L202.259,22.425L202.327,26.413" stroke="#4c78a8" stroke-width="2"/></g><g class="mark-group role-title"><g transform="translate(100,-22)"><path class="background" aria-hidden="true" d="M0,0h0v0h0Z" pointer-events="none"/><g><g class="mark-text role-title-text" role="graphics-symbol" aria-roledescription="title" aria-label="Title text 'Blocked Driveway: No Access'" pointer-events="none"><text text-anchor="middle" transform="translate(0,10)" font-family="sans-serif" font-size="13px" font-weight="bold" fill="#000" opacity="1">Blocked Driveway: No Access</text></g></g><path class="foreground" aria-hidden="true" d="" pointer-events="none" display="none"/></g></g></g><path class="foreground" aria-hidden="true" d="" display="none"/></g></g></g><defs><clipPath id="clip122"><rect x="0" y="0" width="200" height="150"/></clipPath></defs></svg>