<svg xmlns="http://www.w3.org/2000/svg" xmlns:xlink="http://www.w3.org/1999/xlink" version="1.1" class="marks" width="298" height="199" viewBox="0 0 298 199"><rect width="298" height="199" fill="white"/><g fill="none" stroke-miterlimit="10" transform="translate(49,27)"><g class="mark-group role-frame root" role="graphics-object" aria-roledescription="group mark container"><g transform="translate(0,0)"><path class="background" aria-hidden="true" d="M0,0h200v150h-200Z"/><g><g class="mark-group role-axis" aria-hidden="true"><g transform="translate(0.5,0.5)"><path class="background" aria-hidden="true" d="M0,0h0v0h0Z" pointer-events="none"/><g><g class="mark-rule role-axis-grid" pointer-events="none"><line transform="translate(0,150)" x2="200" y2="0" stroke="#ddd" stroke-width="1" opacity="1"/><line transform="translate(0,120)" x2="200" y2="0" stroke="#ddd" stroke-width="1" opacity="1"/><line transform="translate(0,90)" x2="200" y2="0" stroke="#ddd" stroke-width="1" opacity="1"/><line transform="translate(0,60)" x2="200" y2="0" stroke="#ddd" stroke-width="1" opacity="1"/><line transform="translate(0,30)" x2="200" y2="0" stroke="#ddd" stroke-width="1" opacity="1"/><line transform="translate(0,0)" x2="200" y2="0" stroke="#ddd" stroke-width="1" opacity="1"/></g></g><path class="foreground" aria-hidden="true" d="" pointer-events="none" display="none"/></g></g><g class="mark-group role-axis" role="graphics-symbol" aria-roledescription="axis" aria-label="X-axis for a time scale with values from Friday, 01 January 2016, 12:00:00 AM to Monday, 01 January 2024, 12:00:00 AM"><g transform="translate(0.5,150.5)"><path class="background" aria-hidden="true" d="M0,0h0v0h0Z" pointer-events="none"/><g><g class="mark-rule role-axis-tick" pointer-events="none"><line transform="translate(0,0)" x2="0" y2="5" stroke="#888" stroke-width="1" opacity="1"/><line transform="translate(50,0)" x2="0" y2="5" stroke="#888" stroke-width="1" opacity="1"/><line transform="translate(100,0)" x2="0" y2="5" stroke="#888" stroke-width="1" opacity="1"/><line transform="translate(150,0)" x2="0" y2="5" stroke="#888" stroke-width="1" opacity="1"/><line transform="translate(200,0)" x2="0" y2="5" stroke="#888" stroke-width="1" opacity="1"/></g><g class="mark-text role-axis-label" pointer-events="none"><text text-anchor="start" transform="translate(0,15)" font-family="sans-serif" font-size="10px" fill="#000" opacity="1">2016</text><text text-anchor="middle" transform="translate(50.03422313483915,15)" font-family="sans-serif" font-size="10px" fill="#000" opacity="1">2018</text><text text-anchor="middle" transform="translate(100,15)" font-family="sans-serif" font-size="10px" fill="#000" opacity="1">2020</text><text text-anchor="middle" transform="translate(150.03422313483915,15)" font-family="sans-serif" font-size="10px" fill="#000" opacity="1">2022</text><text text-anchor="end" transform="translate(200,15)" font-family="sans-serif" font-size="10px" fill="#000" opacity="1">2024</text></g><g class="mark-rule role-axis-domain" pointer-events="none"><line transform="translate(0,0)" x2="200" y2="0" stroke="#888" stroke-width="1" opacity="1"/></g></g><path class="foreground" aria-hidden="true" d="" pointer-events="none" display="none"/></g></g><g class="mark-group role-axis" role="graphics-symbol" aria-roledescription="axis" aria-label="Y-axis for a linear scale with values from 0 to 10"><g transform="translate(0.5,0.5)"><path class="background" aria-hidden="true" d="M0,0h0v0h0Z" pointer-events="none"/><g><g class="mark-rule role-axis-tick" pointer-events="none"><line transform="translate(0,150)" x2="-5" y2="0" stroke="#888" stroke-opacity="0" stroke-width="1" opacity="1"/><line transform="translate(0,120)" x2="-5" y2="0" stroke="#888" stroke-opacity="0" stroke-width="1" opacity="1"/><line transform="translate(0,90)" x2="-5" y2="0" stroke="#888" stroke-opacity="0" stroke-width="1" opacity="1"/><line transform="translate(0,60)" x2="-5" y2="0" stroke="#888" stroke-opacity="0" stroke-width="1" opacity="1"/><line transform="translate(0,30)" x2="-5" y2="0" stroke="#888" stroke-opacity="0" stroke-width="1" opacity="1"/><line transform="translate(0,0)" x2="-5" y2="0" stroke="#888" stroke-opacity="0" stroke-width="1" opacity="1"/></g><g class="mark-text role-axis-label" pointer-events="none"><text text-anchor="end" transform="translate(-7,153)" font-family="sans-serif" font-size="10px" fill="#000" opacity="1">0</text><text text-anchor="end" transform="translate(-7,123)" font-family="sans-serif" font-size="10px" fill="#000" opacity="1">2</text><text text-anchor="end" transform="translate(-7,93)" font-family="sans-serif" font-size="10px" fill="#000" opacity="1">4</text><text text-anchor="end" transform="translate(-7,63)" font-family="sans-serif" font-size="10px" fill="#000" opacity="1">6</text><text text-anchor="end" transform="translate(-7,32.99999999999999)" font-family="sans-serif" font-size="10px" fill="#000" opacity="1">8</text><text text-anchor="end" transform="translate(-7,3)" font-family="sans-serif" font-size="10px" fill="#000" opacity="1">10</text></g></g><path class="foreground" aria-hidden="true" d="" pointer-events="none" display="none"/></g></g><g class="mark-line role-mark marks" clip-path="url(#clip152)" role="graphics-object" aria-roledescription="line mark container"><path aria-label="day: Jun 03, 2010; avg: 4.4" role="graphics-symbol" aria-roledescription="line mark" d="M-139.496,84L-139.428,83.5L-139.359,82.5L-139.291,81.5L-139.223,80.5L-139.154,79.5L-139.086,77L-139.017,77L-138.949,77.5L-138.88,78L-138.812,77.5L-138.743,78.5L-138.675,80L-138.607,81L-138.538,82.5L-138.47,84L-138.333,86.5L-138.264,85.5L-138.196,87L-138.127,89.5L-138.059,90L-137.991,88.5L-137.922,87.5L-137.854,85.5L-137.785,83.5L-137.717,87L-137.648,89L-137.58,89.5L-137.511,90.5L-137.443,90L-137.375,89.5L-137.306,89L-137.238,88L-137.169,89L-137.101,88.5L-137.032,93L-136.964,95.5L-136.895,94L-136.827,92.5L-136.758,91.5L-136.69,92L-136.622,92.5L-136.553,92.5L-136.485,93L-136.416,93L-136.348,91.5L-136.279,89.5L-136.211,90.5L-136.142,91L-136.074,92.5L-136.006,94L-135.937,96.5L-135.869,95.5L-135.8,95L-135.732,96L-135.663,96L-135.595,95.5L-135.526,94.5L-135.458,92.5L-135.39,94L-135.321,95.5L-135.253,95.5L-135.184,97.5L-135.116,97L-135.047,97.5L-134.979,96.5L-134.91,96.5L-134.842,96L-134.774,97L-134.705,96.5L-134.637,96L-134.568,96L-134.5,96.5L-134.431,93.5L-134.363,89.5L-134.294,93L-134.226,94.5L-134.158,92L-134.089,92L-134.021,92.5L-133.952,91L-133.884,89.5L-133.815,88L-133.747,88.5L-133.678,88.5L-133.61,89L-133.542,88.5L-133.473,90L-133.405,92L-133.336,90.5L-133.268,90L-133.199,90.5L-133.131,88.5L-133.062,89L-132.994,87.5L-132.926,86L-132.857,85.5L-132.789,87L-132.72,86L-132.652,86L-132.583,84.5L-132.515,85L-132.446,83.5L-132.378,84.5L-132.309,87.5L-132.241,84.5L-132.173,85L-132.104,87L-132.036,88L-131.967,85L-131.899,85L-131.83,86.5L-131.762,89.5L-131.693,88.5L-131.625,89L-131.557,89.5L-131.488,89.5L-131.42,88L-131.214,87.5L-131.146,87.5L-131.077,84.5L-131.009,84L-130.941,86.5L-130.872,87.5L-130.804,89L-130.735,90L-130.667,91L-130.598,89.5L-130.53,89.5L-130.461,91.5L-130.393,92L-130.325,92.5L-130.256,90.5L-130.188,91L-130.119,92.5L-130.051,93.5L-129.982,91.5L-129.914,90.5L-129.845,90L-129.777,92.5L-129.709,93.5L-129.64,92.5L-129.572,92.5L-129.503,95.5L-129.435,95.5L-129.298,95L-129.229,94.5L-129.161,96L-129.093,95.5L-129.024,96L-128.956,98.5L-128.887,99.5L-128.819,99L-128.75,99L-128.679,99L-128.611,100L-128.542,100L-128.474,101L-128.405,102L-128.337,102L-128.268,103.5L-128.2,103.5L-128.131,105L-128.063,103L-127.995,101.5L-127.926,103.5L-127.858,105L-127.789,106L-127.721,107.5L-127.652,108L-127.584,108.5L-127.515,109.5L-127.447,110L-127.379,109.5L-127.31,110.5L-127.173,110.5L-127.105,110.5L-127.036,109L-126.968,109.5L-126.899,111L-126.831,110.5L-126.762,110L-126.694,109L-126.626,109.5L-126.557,108L-126.489,107L-126.42,107L-126.352,107.5L-126.283,107.5L-126.215,107.5L-126.146,107.5L-126.078,106L-126.01,108L-125.941,110L-125.873,110.5L-125.804,110L-125.736,107.5L-125.667,108.5L-125.53,108L-125.462,108.5L-125.325,107L-125.257,107.5L-125.188,107.5L-125.12,108L-125.051,107.5L-124.914,106L-124.846,107L-124.778,106L-124.709,105L-124.641,104L-124.572,105.5L-124.504,104.5L-124.435,104.5L-124.367,102L-124.298,103.5L-124.23,104L-124.162,102L-124.093,102L-124.025,100.5L-123.956,101L-123.888,100L-123.819,98L-123.751,95.5L-123.682,94L-123.614,94.5L-123.546,93.5L-123.477,96.5L-123.409,92L-123.34,92.5L-123.272,90L-123.203,90L-123.135,89L-123.066,88L-122.998,86L-122.93,85.5L-122.861,86L-122.793,85L-122.724,86L-122.656,87.5L-122.587,88.5L-122.519,87L-122.45,87L-122.382,88.5L-122.313,89.5L-122.245,89.5L-122.177,88.5L-122.108,91L-122.04,89.5L-121.971,89.5L-121.903,87.5L-121.834,88L-121.766,88L-121.697,88L-121.629,91.5L-121.561,90L-121.492,90.5L-121.424,89L-121.355,89.5L-121.287,87.5L-121.218,90L-121.15,90.5L-121.081,89.5L-121.013,88L-120.945,89.5L-120.876,87.5L-120.808,88L-120.739,87.5L-120.671,87.5L-120.602,86.5L-120.534,84L-120.465,85L-120.397,86.5L-120.329,86L-120.26,87.5L-120.192,88.5L-120.123,90.5L-120.058,89.5L-119.989,88.5L-119.921,89.5L-119.852,91.5L-119.784,91L-119.715,94.5L-119.647,96L-119.51,93L-119.442,93.5L-119.373,94L-119.305,95L-119.236,97L-119.168,97.5L-119.099,96.5L-119.031,96L-118.962,96L-118.894,95.5L-118.757,96L-118.689,97L-118.62,95.5L-118.552,96.5L-118.483,95L-118.415,95L-118.346,95.5L-118.278,94.5L-118.21,91.5L-118.141,87.5L-118.073,85.5L-118.004,85.5L-117.936,84L-117.867,83L-117.799,82L-117.73,82.5L-117.662,80.5L-117.594,79.5L-117.525,78.5L-117.457,75L-117.388,76.5L-117.32,77L-117.251,74L-117.183,71L-117.114,70L-117.046,69.5L-116.978,70L-116.909,71.5L-116.841,70L-116.772,71.5L-116.704,69L-116.635,68L-116.567,65.5L-116.498,66.5L-116.43,69L-116.362,69.5L-116.293,68L-116.225,67.5L-116.156,69.5L-116.088,74L-116.019,75L-115.951,74.5L-115.882,72.5L-115.814,72.5L-115.745,76L-115.677,73L-115.609,74L-115.54,75.5L-115.472,75L-115.335,78L-115.266,77.5L-115.198,76L-115.129,77L-115.061,80L-114.993,79.5L-114.924,80.5L-114.856,77.5L-114.787,76.5L-114.719,77.5L-114.65,77L-114.582,78L-114.513,81L-114.445,85.5L-114.377,85L-114.308,84L-114.24,84L-114.171,87.5L-114.103,87L-114.034,87.5L-113.966,86L-113.897,85.5L-113.829,84.5L-113.761,87.5L-113.692,89L-113.624,89.5L-113.555,91L-113.487,91L-113.35,90.5L-113.281,90.5L-113.213,91.5L-113.145,93L-113.076,95L-113.008,97.5L-112.939,97L-112.871,100.5L-112.802,99.5L-112.734,100L-112.665,100L-112.597,102L-112.529,104L-112.46,104.5L-112.392,104L-112.323,101.5L-112.255,101.5L-112.186,101L-112.118,101L-112.049,100L-111.981,102L-111.913,101.5L-111.844,101L-111.776,102L-111.707,104L-111.639,104.5L-111.57,104L-111.502,103.5L-111.433,103L-111.365,102.5L-111.296,101L-111.228,102.5L-111.16,102.5L-111.091,101.5L-111.023,102L-110.954,102L-110.886,102L-110.817,101.5L-110.749,103L-110.68,106L-110.612,107L-110.544,106.5L-110.475,104L-110.407,105L-110.338,105.5L-110.27,108.5L-110.201,109L-110.133,110.5L-110.064,111L-109.996,111.5L-109.928,110.5L-109.859,109.5L-109.791,111L-109.722,111L-109.654,107.5L-109.585,105.5L-109.517,104.5L-109.448,103.5L-109.38,104.5L-109.312,105.5L-109.243,108L-109.175,107L-109.106,107L-109.038,107L-108.969,106L-108.901,104.5L-108.832,104L-108.764,104L-108.696,103.5L-108.559,102L-108.49,100.5L-108.422,100L-108.353,102L-108.285,102L-108.216,100.5L-108.148,99L-108.08,96.5L-108.011,97L-107.943,95.5L-107.874,96L-107.806,97L-107.737,97L-107.669,96.5L-107.6,97L-107.532,99.5L-107.463,100L-107.395,102L-107.327,103L-107.258,104.5L-107.19,104L-107.121,103.5L-107.053,102.5L-106.984,102.5L-106.916,104L-106.847,104.5L-106.779,105.5L-106.711,105.5L-106.642,105.5L-106.574,106.5L-106.505,107L-106.437,107.5L-106.368,106.5L-106.3,105.5L-106.163,104.5L-106.095,105L-106.026,104L-105.958,105L-105.889,104.5L-105.752,106L-105.684,105L-105.615,104.5L-105.547,105.5L-105.479,104.5L-105.41,103.5L-105.342,103.5L-105.273,104L-105.205,102.5L-105.136,102.5L-105.068,101.5L-104.999,101L-104.931,101.5L-104.863,103L-104.794,102.5L-104.726,101.5L-104.657,99.5L-104.589,100L-104.52,101L-104.452,101.5L-104.383,101.5L-104.247,101.5L-104.178,101.5L-104.11,100.5L-104.041,101L-103.973,102L-103.904,101L-103.836,103.5L-103.765,105L-103.696,105L-103.628,105L-103.559,104.5L-103.491,105.5L-103.354,106L-103.285,108L-103.217,109L-103.149,107.5L-103.08,107L-103.012,108L-102.943,109L-102.806,109.5L-102.738,111L-102.533,110L-102.464,110.5L-102.396,111.5L-102.327,112.5L-102.259,114.5L-102.19,112.5L-102.122,111.5L-102.053,110.5L-101.916,110.5L-101.848,111L-101.78,112L-101.711,114.5L-101.643,115L-101.574,114L-101.506,116L-101.437,116L-101.369,115.5L-101.232,116L-101.164,116.5L-101.095,117L-101.027,117L-100.958,115.5L-100.821,114L-100.753,114L-100.684,115L-100.616,115.5L-100.548,116L-100.342,114L-100.274,113L-100.205,112L-100.137,111L-100.068,111L-100,110L-99.932,109.5L-99.863,109.5L-99.726,111L-99.658,111L-99.589,110.5L-99.521,108.5L-99.452,106.5L-99.384,103.5L-99.316,101.5L-99.247,101.5L-99.179,100.5L-99.11,100L-99.042,99L-98.973,99L-98.905,97.5L-98.836,97L-98.768,97L-98.7,94.5L-98.631,94L-98.494,94.5L-98.426,94L-98.357,94L-98.289,94L-98.22,94L-98.152,95.5L-98.084,95.5L-98.015,95.5L-97.947,96L-97.878,95.5L-97.81,96L-97.741,94L-97.604,94L-97.536,93.5L-97.467,93.5L-97.399,94.5L-97.331,95.5L-97.262,95L-97.194,97L-97.125,100L-97.057,99L-96.988,101L-96.92,101.5L-96.851,100.5L-96.783,100L-96.715,101.5L-96.646,101L-96.578,101.5L-96.509,104L-96.441,106L-96.372,106L-96.304,106L-96.235,105L-96.167,105.5L-96.099,105.5L-96.03,104.5L-95.893,105L-95.825,106L-95.756,107.5L-95.619,107L-95.551,106.5L-95.483,105.5L-95.414,105L-95.346,106L-95.277,106L-95.209,105.5L-95.143,105L-95.075,106L-95.006,105L-94.938,105L-94.869,105.5L-94.801,104.5L-94.732,103.5L-94.664,105.5L-94.596,104L-94.527,103.5L-94.459,104.5L-94.39,104L-94.322,102.5L-94.253,101.5L-94.185,100.5L-94.116,100L-94.048,102.5L-93.98,102L-93.911,100.5L-93.774,100.5L-93.706,101L-93.637,100.5L-93.569,98.5L-93.5,98L-93.432,98L-93.364,101L-93.295,101L-93.227,101L-93.09,102L-93.021,102L-92.953,102.5L-92.884,104L-92.748,104.5L-92.679,104L-92.611,104L-92.542,105.5L-92.474,106.5L-92.405,105.5L-92.337,107.5L-92.268,108L-92.2,107L-92.132,106L-92.063,106.5L-91.995,107.5L-91.926,108.5L-91.858,108.5L-91.789,105.5L-91.721,105L-91.652,105.5L-91.584,104L-91.516,101L-91.447,101L-91.379,103L-91.31,103.5L-91.242,101.5L-91.173,101.5L-91.105,101.5L-91.036,99.5L-90.968,98.5L-90.899,97.5L-90.831,98.5L-90.763,98.5L-90.694,99.5L-90.626,99L-90.557,99.5L-90.489,97.5L-90.42,95.5L-90.352,95.5L-90.283,95L-90.215,94L-90.147,93L-90.078,93.5L-90.01,93L-89.941,92L-89.804,90L-89.736,89.5L-89.667,91.5L-89.599,92.5L-89.531,92L-89.394,95L-89.325,98L-89.257,97.5L-89.188,97L-89.12,96.5L-89.051,99.5L-88.983,99L-88.915,98.5L-88.846,98.5L-88.778,98L-88.709,97.5L-88.641,97.5L-88.572,97.5L-88.504,98L-88.435,98L-88.367,98.5L-88.23,100.5L-88.162,102.5L-88.093,102L-88.025,102.5L-87.956,103.5L-87.888,104L-87.819,103L-87.751,104.5L-87.683,104L-87.614,105.5L-87.546,106L-87.477,106L-87.409,106L-87.34,106.5L-87.272,105.5L-87.203,105.5L-87.135,104.5L-87.067,105L-86.998,105.5L-86.93,103.5L-86.861,104L-86.793,104L-86.724,105.5L-86.656,107L-86.587,109L-86.519,106L-86.45,106L-86.314,104L-86.245,104.5L-86.177,103L-86.108,102.5L-86.04,102.5L-85.971,102L-85.903,100.5L-85.834,100L-85.766,99.5L-85.698,100L-85.629,99.5L-85.561,100.5L-85.492,102L-85.424,102.5L-85.355,102L-85.218,100.5L-85.15,100.5L-85.082,100.5L-85.013,99L-84.945,100.5L-84.876,100.5L-84.808,100.5L-84.739,99.5L-84.671,98L-84.602,98.5L-84.534,97.5L-84.466,97.5L-84.397,98L-84.329,100L-84.26,98.5L-84.192,96L-84.123,93.5L-84.055,94.5L-83.986,94.5L-83.918,94L-83.85,94.5L-83.781,96.5L-83.713,96.5L-83.644,98.5L-83.507,99L-83.439,100L-83.37,98.5L-83.302,97.5L-83.234,97.5L-83.165,97.5L-83.097,97L-83.028,97.5L-82.96,97.5L-82.891,99L-82.823,98.5L-82.754,97L-82.686,97L-82.617,98L-82.549,99L-82.481,99.5L-82.412,100L-82.344,100.5L-82.275,99.5L-82.207,98L-82.07,98.5L-82.001,103L-81.933,104L-81.865,102.5L-81.796,102.5L-81.728,102.5L-81.659,103L-81.591,103L-81.522,102L-81.385,102L-81.317,103.5L-81.249,102.5L-81.18,104.5L-81.112,105.5L-81.043,105.5L-80.975,106.5L-80.906,106L-80.838,106L-80.769,107L-80.701,107L-80.633,107L-80.564,109L-80.496,108L-80.427,110L-80.359,110.5L-80.29,110L-80.222,110L-80.153,109.5L-80.085,108L-80.017,110L-79.948,110.5L-79.88,108.5L-79.811,110L-79.743,111L-79.674,111.5L-79.606,112L-79.537,113L-79.469,110.5L-79.332,110.5L-79.127,109.5L-78.921,107L-78.782,107.5L-78.713,108L-78.645,108L-78.576,108.5L-78.439,107.5L-78.371,110L-78.303,109L-78.234,108.5L-78.166,107.5L-78.097,109L-78.029,108L-77.96,108L-77.892,107.5L-77.823,107.5L-77.755,106.5L-77.687,107.5L-77.618,108L-77.55,109.5L-77.481,110L-77.413,110.5L-77.344,112.5L-77.276,112L-77.207,113L-77.07,111L-77.002,111L-76.934,110.5L-76.865,111.5L-76.797,112.5L-76.728,112.5L-76.66,113L-76.591,111.5L-76.523,109.5L-76.454,108L-76.386,107.5L-76.318,107.5L-76.249,107L-76.181,107L-76.112,106L-76.044,107.5L-75.975,107.5L-75.907,106.5L-75.838,108L-75.77,107L-75.702,106.5L-75.633,107.5L-75.496,106.5L-75.428,104L-75.291,103.5L-75.222,100L-75.154,99L-75.086,96.5L-75.017,96.5L-74.88,95L-74.812,96.5L-74.743,95.5L-74.675,95.5L-74.538,96.5L-74.47,95.5L-74.401,95.5L-74.333,97.5L-74.264,99.5L-74.196,101L-74.127,100.5L-74.059,100.5L-73.99,102L-73.922,102L-73.854,103L-73.785,104L-73.717,101L-73.648,100L-73.58,101L-73.511,100L-73.443,99L-73.374,99L-73.306,97.5L-73.238,97.5L-73.169,98.5L-73.101,97L-73.032,99L-72.964,96.5L-72.895,97.5L-72.758,95.5L-72.69,94.5L-72.621,94L-72.553,92L-72.485,91.5L-72.416,91L-72.348,87.5L-72.279,84L-72.211,83L-72.142,83L-72.074,82L-72.005,82L-71.937,81L-71.869,80.5L-71.732,78.5L-71.663,76.5L-71.595,76L-71.526,77L-71.458,77L-71.389,77.5L-71.321,76.5L-71.253,77L-71.184,78L-71.116,80L-71.047,76L-70.979,75.5L-70.91,78L-70.773,78L-70.705,80L-70.637,80.5L-70.568,80L-70.5,80.5L-70.431,78.5L-70.363,81.5L-70.294,81L-70.229,81L-70.16,82L-70.092,85.5L-70.023,84.5L-69.955,82.5L-69.886,83.5L-69.818,83L-69.75,82.5L-69.681,81L-69.613,82.5L-69.544,82L-69.476,82.5L-69.407,83L-69.339,81.5L-69.27,80.5L-69.202,82.5L-69.134,83.5L-69.065,83L-68.997,81.5L-68.928,86L-68.86,86L-68.791,85L-68.723,82.5L-68.654,83L-68.586,82L-68.518,84L-68.449,83L-68.381,83.5L-68.312,80.5L-68.244,81L-68.175,80.5L-68.107,81.5L-68.038,79.5L-67.97,80L-67.902,80L-67.833,79L-67.765,81L-67.696,80.5L-67.628,80.5L-67.559,82L-67.491,82L-67.422,78L-67.354,74.5L-67.286,75.5L-67.217,73.5L-67.149,72.5L-67.08,72.5L-67.012,71.5L-66.943,72L-66.875,71.5L-66.806,71.5L-66.738,69.5L-66.67,71.5L-66.601,72.5L-66.533,72.5L-66.464,72L-66.396,72.5L-66.327,72.5L-66.259,72L-66.19,71.5L-66.122,71.5L-66.054,71L-65.985,70.5L-65.917,70.5L-65.848,71.5L-65.78,70.5L-65.711,67L-65.643,66.5L-65.574,66L-65.506,62.5L-65.437,62L-65.369,65.5L-65.301,70L-65.232,67L-65.164,67L-65.095,66L-65.027,64.5L-64.958,64.5L-64.89,65L-64.821,65L-64.753,66L-64.685,68.5L-64.616,68.5L-64.548,65.5L-64.479,63.5L-64.411,61.5L-64.342,64L-64.274,66L-64.205,68.5L-64.137,69.5L-64.069,69.5L-64,71L-63.932,73L-63.863,72L-63.795,72.5L-63.726,72.5L-63.658,74.5L-63.589,76.5L-63.521,76L-63.453,78L-63.384,78L-63.316,78.5L-63.247,76L-63.179,79L-63.11,80L-63.042,81.5L-62.973,81.5L-62.905,81L-62.837,81L-62.768,79.5L-62.7,80.5L-62.631,79.5L-62.563,80.5L-62.494,80L-62.426,82L-62.357,84.5L-62.289,81.5L-62.221,81.5L-62.152,79.5L-62.084,78L-62.015,78.5L-61.947,80L-61.878,80L-61.81,81L-61.741,81L-61.673,82.5L-61.604,83.5L-61.536,84L-61.468,84.5L-61.399,85L-61.331,87.5L-61.262,86.5L-61.194,86.5L-61.125,88L-61.057,86.5L-60.988,86L-60.92,86.5L-60.852,86.5L-60.783,86.5L-60.715,87L-60.646,86L-60.578,87.5L-60.509,86L-60.441,89.5L-60.372,90.5L-60.304,91L-60.236,92L-60.167,90.5L-60.099,91.5L-60.03,93L-59.962,91.5L-59.893,90.5L-59.825,92L-59.756,92.5L-59.688,91L-59.62,91.5L-59.551,92L-59.483,91.5L-59.414,93.5L-59.346,92.5L-59.277,92L-59.209,92.5L-59.14,93L-59.072,92L-59.004,95L-58.935,94.5L-58.798,96L-58.73,95.5L-58.661,95.5L-58.593,96.5L-58.524,96.5L-58.456,94.5L-58.388,96L-58.319,94.5L-58.251,94.5L-58.182,93L-58.114,91L-58.045,91.5L-57.977,93L-57.908,93.5L-57.84,93.5L-57.772,92.5L-57.703,91.5L-57.635,91L-57.566,92.5L-57.498,91L-57.429,89L-57.292,88L-57.224,86.5L-57.155,86.5L-57.019,87L-56.95,87L-56.882,87L-56.813,87L-56.745,83.5L-56.676,85L-56.608,85.5L-56.539,84.5L-56.471,83.5L-56.403,84L-56.334,84L-56.266,85L-56.197,86L-56.129,85.5L-56.06,85L-55.992,85.5L-55.923,88.5L-55.855,89L-55.787,87.5L-55.718,87L-55.65,88.5L-55.581,90.5L-55.513,91.5L-55.444,90.5L-55.376,90L-55.307,90.5L-55.239,93L-55.171,94.5L-55.102,95.5L-55.034,97L-54.965,97.5L-54.897,97L-54.828,97.5L-54.76,97L-54.691,100.5L-54.623,99L-54.555,98.5L-54.486,102L-54.418,103.5L-54.349,103.5L-54.281,103L-54.212,104.5L-54.144,104.5L-54.075,104L-54.007,104.5L-53.936,105L-53.867,103.5L-53.799,104.5L-53.73,106L-53.662,105L-53.593,103.5L-53.525,101L-53.457,99L-53.388,101L-53.32,102L-53.251,103L-53.183,100.5L-53.114,100L-53.046,101L-52.977,100.5L-52.909,101L-52.841,101L-52.772,103L-52.704,104L-52.635,103L-52.567,103L-52.498,102.5L-52.43,100.5L-52.361,101L-52.293,101.5L-52.225,102.5L-52.156,101L-52.019,100.5L-51.951,101L-51.882,101.5L-51.814,103L-51.745,103.5L-51.677,101.5L-51.608,101L-51.54,101.5L-51.472,103.5L-51.403,104L-51.335,105.5L-51.266,105L-51.129,104L-51.061,104L-50.992,106.5L-50.924,107L-50.856,105.5L-50.787,106.5L-50.65,105L-50.582,105L-50.513,104.5L-50.445,103L-50.376,104L-50.308,104.5L-50.24,105L-50.171,106.5L-50.103,105.5L-50.034,105L-49.966,104L-49.829,104L-49.692,103.5L-49.624,104.5L-49.555,104L-49.487,104L-49.418,104L-49.35,103L-49.281,103.5L-49.213,102L-49.144,100L-49.076,102L-49.008,101.5L-48.939,102.5L-48.871,103L-48.802,103L-48.734,102L-48.665,102.5L-48.597,103.5L-48.528,103L-48.46,104L-48.392,104L-48.323,100.5L-48.255,101.5L-48.186,100.5L-48.118,99.5L-48.049,98.5L-47.981,98.5L-47.912,98L-47.844,96.5L-47.775,94L-47.707,93.5L-47.639,94L-47.57,95L-47.502,93.5L-47.433,93.5L-47.365,93.5L-47.296,95L-47.228,94.5L-47.159,94.5L-47.091,93.5L-47.023,93L-46.954,94L-46.886,91.5L-46.749,91L-46.68,90.5L-46.612,91L-46.543,87L-46.475,87.5L-46.407,86.5L-46.338,83.5L-46.27,83L-46.201,84L-46.133,79.5L-46.064,77.5L-45.996,79L-45.927,80L-45.859,77.5L-45.791,76.5L-45.722,76L-45.654,78L-45.585,78.5L-45.517,77.5L-45.448,73.5L-45.38,74.5L-45.314,72.5L-45.246,73L-45.177,74.5L-45.109,73.5L-45.04,76L-44.972,77L-44.904,74.5L-44.835,74.5L-44.767,77L-44.698,76L-44.63,75.5L-44.561,76L-44.493,79.5L-44.424,78.5L-44.356,79L-44.288,80L-44.219,78.5L-44.151,79L-44.082,83L-44.014,86.5L-43.945,84.5L-43.877,83.5L-43.808,84.5L-43.74,85L-43.672,86.5L-43.603,88L-43.535,88L-43.466,87.5L-43.398,91L-43.329,90L-43.261,90.5L-43.192,88.5L-43.124,88L-43.056,88L-42.987,85.5L-42.919,86L-42.85,89L-42.782,87.5L-42.713,86.5L-42.645,87.5L-42.576,88.5L-42.508,85.5L-42.44,86L-42.371,86.5L-42.303,85.5L-42.234,87L-42.166,90L-42.097,90.5L-42.029,91L-41.96,90L-41.892,92L-41.824,90L-41.755,91L-41.687,90.5L-41.618,88L-41.55,87.5L-41.481,86.5L-41.413,86L-41.344,83.5L-41.276,85.5L-41.208,84.5L-41.139,86L-41.071,82L-41.002,81L-40.934,81.5L-40.865,82L-40.797,81L-40.728,80.5L-40.66,79.5L-40.591,79L-40.523,77L-40.455,78.5L-40.386,77L-40.318,75L-40.249,75L-40.181,72L-40.112,68.5L-40.044,69L-39.975,69.5L-39.907,66.5L-39.839,66L-39.77,68.5L-39.702,67.5L-39.633,67.5L-39.565,69L-39.496,68L-39.428,69L-39.359,69.5L-39.291,71L-39.223,70.5L-39.154,71.5L-39.086,71.5L-39.017,72L-38.949,73.5L-38.88,73.5L-38.812,73L-38.743,74.5L-38.675,76L-38.607,76.5L-38.538,74.5L-38.47,76.5L-38.401,76L-38.333,76L-38.264,78L-38.196,78L-38.127,78.5L-38.059,81L-37.991,79.5L-37.922,78L-37.854,80L-37.785,78L-37.717,77.5L-37.648,76.5L-37.58,78L-37.511,79L-37.443,79.5L-37.375,80.5L-37.306,81.5L-37.238,81L-37.169,80.5L-37.101,80.5L-37.032,82L-36.964,82.5L-36.895,83L-36.827,83L-36.758,82.5L-36.69,79L-36.622,77.5L-36.553,78.5L-36.485,80.5L-36.416,79.5L-36.348,78L-36.279,79L-36.211,77L-36.142,78L-36.074,79L-36.006,79.5L-35.937,81L-35.869,82L-35.8,82.5L-35.732,85L-35.663,84L-35.595,86.5L-35.526,86.5L-35.458,85L-35.39,85L-35.321,83.5L-35.253,83.5L-35.184,85.5L-35.116,83L-35.047,82.5L-34.979,81.5L-34.91,82L-34.842,81L-34.774,81L-34.705,82L-34.637,83L-34.568,84L-34.5,82L-34.431,81.5L-34.363,79.5L-34.294,82L-34.226,80.5L-34.158,80L-34.089,80.5L-34.021,81.5L-33.952,82.5L-33.884,81.5L-33.815,81L-33.747,81.5L-33.678,81L-33.61,82L-33.542,80.5L-33.473,80.5L-33.405,80L-33.336,79.5L-33.268,79.5L-33.199,79L-33.131,79L-33.062,81L-32.994,82.5L-32.926,83L-32.857,82.5L-32.789,82.5L-32.72,81.5L-32.652,79.5L-32.583,81.5L-32.515,82L-32.446,83L-32.378,81.5L-32.309,84L-32.241,83L-32.173,84.5L-32.104,86.5L-32.036,86.5L-31.967,87.5L-31.899,85L-31.83,85.5L-31.762,85.5L-31.693,86L-31.625,85.5L-31.557,86L-31.488,86.5L-31.42,86L-31.351,87.5L-31.283,89L-31.214,90.5L-31.146,90.5L-31.077,87.5L-31.009,89.5L-30.941,85.5L-30.872,86.5L-30.804,87.5L-30.735,88.5L-30.667,90L-30.598,92L-30.53,92L-30.461,90L-30.393,90.5L-30.325,94L-30.256,94L-30.188,96L-30.119,94L-30.051,94L-29.982,93L-29.914,92.5L-29.845,92L-29.777,93.5L-29.709,94L-29.64,95L-29.572,95L-29.503,93.5L-29.435,94.5L-29.366,96L-29.298,97L-29.229,97L-29.161,95.5L-29.021,95L-28.953,98L-28.884,97L-28.816,100.5L-28.747,100.5L-28.679,101.5L-28.611,100.5L-28.542,101L-28.474,102.5L-28.405,102L-28.337,102.5L-28.268,102.5L-28.2,100.5L-28.131,101.5L-28.063,98L-27.995,98.5L-27.926,99L-27.858,100L-27.789,98.5L-27.721,100.5L-27.652,98L-27.584,98.5L-27.515,98.5L-27.447,100.5L-27.379,101.5L-27.31,100.5L-27.242,99.5L-27.173,98L-27.105,97.5L-27.036,99.5L-26.968,101L-26.899,101L-26.831,101L-26.762,100L-26.694,99.5L-26.626,98.5L-26.557,99L-26.489,98L-26.42,95.5L-26.352,94.5L-26.283,96L-26.215,96L-26.146,97.5L-26.078,97L-26.01,100L-25.941,99.5L-25.873,98L-25.804,96.5L-25.736,98L-25.667,97.5L-25.599,99.5L-25.462,100L-25.394,98L-25.325,97.5L-25.257,99L-25.188,99.5L-25.12,98.5L-25.051,100L-24.983,100.5L-24.846,100.5L-24.778,100.5L-24.709,100.5L-24.641,101L-24.572,102L-24.504,100.5L-24.435,101.5L-24.367,101.5L-24.298,101L-24.23,101.5L-24.162,101.5L-24.093,101L-24.025,101.5L-23.956,101.5L-23.888,101L-23.819,100.5L-23.751,100L-23.682,99.5L-23.614,100.5L-23.546,100L-23.477,99L-23.409,99L-23.34,97L-23.272,97L-23.203,91L-23.135,90L-23.066,91L-22.998,91.5L-22.861,87.5L-22.793,86L-22.724,84.5L-22.656,84L-22.587,84L-22.519,81L-22.45,81L-22.382,82.5L-22.313,83L-22.177,82.5L-22.108,83L-22.04,83.5L-21.971,84L-21.903,81.5L-21.834,77.5L-21.766,73L-21.697,71L-21.629,72L-21.561,74L-21.492,73.5L-21.424,69L-21.355,69.5L-21.287,69.5L-21.218,69L-21.15,70L-21.081,69L-21.013,72L-20.945,71L-20.876,68.5L-20.808,68.5L-20.739,70L-20.671,71L-20.602,69.5L-20.534,69.5L-20.465,68L-20.4,69.5L-20.331,69L-20.263,68.5L-20.195,68L-20.126,69L-20.058,68.5L-19.989,66.5L-19.921,63L-19.852,65.5L-19.784,67L-19.715,69.5L-19.647,69L-19.51,65L-19.442,64.5L-19.373,65.5L-19.305,69L-19.236,66.5L-19.168,66.5L-19.099,66.5L-19.031,64.5L-18.962,66.5L-18.894,67.5L-18.826,66L-18.757,66L-18.689,66.5L-18.62,65L-18.552,59.5L-18.483,60.5L-18.415,58.5L-18.346,58L-18.278,57L-18.21,57L-18.141,54L-18.073,53L-18.004,50.5L-17.936,50L-17.867,51L-17.799,54L-17.73,52.5L-17.662,54L-17.594,51.5L-17.525,50.5L-17.457,48.5L-17.388,47L-17.32,46L-17.251,44L-17.183,46L-17.046,44.5L-16.978,42L-16.909,41.5L-16.841,40L-16.772,40.5L-16.704,42L-16.635,42.5L-16.567,41.5L-16.498,43L-16.43,44L-16.362,43.5L-16.293,45L-16.225,45L-16.156,45.5L-16.088,43L-16.019,43L-15.951,43L-15.882,45.5L-15.814,45.5L-15.745,46.5L-15.677,45.5L-15.609,45L-15.54,43.5L-15.472,45.5L-15.403,44.5L-15.335,47.5L-15.266,48.5L-15.198,48.5L-15.129,45.5L-15.061,43.5L-14.993,44.5L-14.924,46L-14.856,47L-14.787,46L-14.719,45.5L-14.65,43L-14.582,41.5L-14.513,40.5L-14.445,42.5L-14.377,46L-14.308,48L-14.24,47L-14.171,45.5L-14.103,42.5L-14.034,40.5L-13.966,42L-13.897,42L-13.829,41L-13.761,38.5L-13.692,36L-13.624,36.5L-13.555,37L-13.487,35.5L-13.418,34.5L-13.35,39.5L-13.281,41L-13.213,38.5L-13.145,40L-13.076,47L-13.008,48L-12.939,48.5L-12.871,48L-12.802,48L-12.734,49.5L-12.665,51L-12.597,54.5L-12.529,55L-12.46,57.5L-12.392,57L-12.323,55.5L-12.255,54.5L-12.186,53L-12.118,55L-12.049,57.5L-11.981,60L-11.913,60.5L-11.844,61.5L-11.776,60.5L-11.707,63L-11.639,64.5L-11.57,66.5L-11.502,68L-11.433,70.5L-11.365,69.5L-11.296,65.5L-11.228,61L-11.16,63L-11.091,62.5L-11.023,60.5L-10.954,62.5L-10.886,63L-10.817,65.5L-10.749,64.5L-10.68,65L-10.612,63L-10.544,62.5L-10.475,64L-10.407,62.5L-10.338,58.5L-10.27,59L-10.201,54.5L-10.133,53.5L-10.064,55L-9.996,55L-9.928,55L-9.859,53.5L-9.791,50.5L-9.722,49.5L-9.654,51.5L-9.585,51.5L-9.517,48.5L-9.448,46.5L-9.38,46L-9.312,50L-9.243,50.5L-9.175,55L-9.106,54.5L-9.038,52.5L-8.969,49L-8.901,44.5L-8.832,41.5L-8.764,40.5L-8.696,42.5L-8.627,42.5L-8.559,41L-8.49,39L-8.422,35L-8.353,35.5L-8.285,38L-8.216,39L-8.148,42.5L-8.08,44L-8.011,41L-7.943,42L-7.874,42L-7.806,43.5L-7.737,43L-7.669,45L-7.6,42.5L-7.532,42L-7.463,43L-7.395,42.5L-7.327,44L-7.258,42L-7.19,43L-7.121,43.5L-7.053,42.5L-6.984,42L-6.916,45L-6.847,45.5L-6.779,49L-6.711,49.5L-6.642,47.5L-6.574,45L-6.505,48L-6.437,50L-6.368,52L-6.3,51.5L-6.231,52.5L-6.163,53L-6.095,51.5L-6.026,50.5L-5.958,52.5L-5.889,53L-5.821,54L-5.752,54L-5.684,58L-5.615,59.5L-5.547,59.5L-5.479,58L-5.41,59.5L-5.342,60.5L-5.273,61L-5.205,62L-5.136,63L-5.068,61.5L-4.999,64L-4.931,64L-4.863,65.5L-4.794,66L-4.726,67L-4.657,65.5L-4.589,67L-4.52,68.5L-4.452,67.5L-4.383,68.5L-4.315,69L-4.247,67L-4.178,66L-4.107,66L-4.038,69.5L-3.97,71L-3.901,69.5L-3.833,70L-3.765,70L-3.696,71L-3.628,70L-3.559,68.5L-3.491,67L-3.422,70L-3.354,69L-3.285,69.5L-3.217,67L-3.149,67L-3.08,67.5L-3.012,66L-2.943,65L-2.875,67.5L-2.806,66.5L-2.738,65.5L-2.669,64.5L-2.601,65.5L-2.533,66.5L-2.464,69L-2.396,70L-2.327,67.5L-2.259,70L-2.19,69.5L-2.122,69.5L-2.053,69.5L-1.985,70L-1.916,73L-1.848,72L-1.78,70.5L-1.711,72L-1.643,71L-1.574,72.5L-1.506,73L-1.437,75L-1.369,74.5L-1.3,75.5L-1.232,76.5L-1.164,77.5L-1.095,77.5L-1.027,78L-0.958,82L-0.89,83.5L-0.821,81.5L-0.753,81L-0.684,83.5L-0.616,82.5L-0.548,84L-0.479,85L-0.411,84.5L-0.342,84.5L-0.274,83.5L-0.205,84L-0.137,88L-0.068,89L0,88.5L0.068,86.5L0.137,84.5L0.205,84L0.274,83.5L0.342,83L0.411,83.5L0.479,81.5L0.548,81L0.616,83L0.753,84L0.821,83L0.89,82.5L0.958,83L1.027,81.5L1.095,80.5L1.164,78.5L1.232,77.5L1.3,78L1.369,79L1.437,79L1.506,78L1.574,76.5L1.643,75L1.711,74.5L1.78,72.5L1.848,75.5L1.916,73.5L1.985,72.5L2.053,73.5L2.122,73.5L2.19,74.5L2.259,73L2.327,75L2.396,76.5L2.464,76L2.533,74L2.601,74.5L2.669,74L2.738,73.5L2.806,71.5L2.875,69L2.943,67.5L3.012,66L3.08,66.5L3.149,63.5L3.217,61L3.354,60L3.422,60L3.491,58L3.559,59L3.628,60.5L3.696,62L3.765,61.5L3.833,58.5L3.901,59.5L3.97,58.5L4.038,56L4.107,54.5L4.175,53.5L4.244,53L4.312,52L4.381,52.5L4.449,52L4.517,51.5L4.586,51L4.654,50.5L4.723,49.5L4.791,50L4.86,48.5L4.928,47L4.994,46L5.062,45L5.131,44.5L5.199,43L5.268,46L5.336,48L5.404,46L5.473,46L5.541,46L5.61,44L5.678,43.5L5.747,42.5L5.815,42.5L5.884,43.5L5.952,43.5L6.02,43.5L6.089,44L6.157,44.5L6.226,41L6.294,42L6.363,42L6.431,43.5L6.5,43.5L6.568,44L6.636,44L6.705,45.5L6.773,47.5L6.842,46L6.91,46.5L6.979,48.5L7.047,51.5L7.116,54.5L7.184,58L7.252,61.5L7.321,59.5L7.389,60L7.458,63L7.526,65L7.595,65L7.663,65L7.732,63L7.8,61L7.868,60.5L7.937,60.5L8.005,59.5L8.074,57L8.142,58.5L8.211,60L8.279,64L8.348,64.5L8.416,64L8.484,63L8.553,63L8.621,63.5L8.69,63.5L8.758,64.5L8.827,62.5L8.895,64.5L8.964,62L9.032,64L9.101,64L9.169,61L9.237,56L9.306,53L9.374,54L9.443,53.5L9.511,52.5L9.58,51.5L9.648,50L9.717,51L9.785,48.5L9.853,48L9.922,47.5L9.99,48.5L10.059,49L10.127,49L10.196,49.5L10.264,49L10.333,48.5L10.401,47.5L10.469,49L10.538,51.5L10.606,54L10.675,52.5L10.743,51.5L10.812,48L10.88,49.5L10.949,47L11.017,50.5L11.085,45.5L11.222,45.5L11.291,46.5L11.359,49L11.428,50L11.496,51.5L11.565,52L11.633,50L11.701,47.5L11.77,50L11.838,48.5L11.907,55L11.975,56L12.044,58L12.112,59L12.181,58.5L12.249,60L12.317,58L12.386,58L12.454,57.5L12.523,55.5L12.591,54L12.66,52L12.728,49.5L12.797,51L12.865,54.5L12.933,56.5L13.002,55L13.07,55.5L13.139,52L13.207,54L13.276,53L13.344,54L13.413,55.5L13.481,55L13.55,54L13.618,56L13.686,60.5L13.755,64L13.823,64.5L13.892,66.5L13.96,66L14.029,65.5L14.097,63L14.166,63L14.234,63L14.302,64L14.371,66.5L14.439,66.5L14.508,65.5L14.576,65L14.645,64.5L14.713,64L14.782,65.5L14.85,63.5L14.918,63L14.987,64.5L15.055,66L15.124,68.5L15.192,70L15.261,72L15.329,74L15.398,73L15.466,72.5L15.534,72.5L15.603,72.5L15.671,70.5L15.74,67.5L15.808,68L15.877,67.5L15.945,66.5L16.014,65L16.082,66.5L16.15,66L16.219,65.5L16.287,65L16.356,64L16.424,62.5L16.493,60L16.561,60L16.63,59.5L16.698,61L16.766,62L16.835,59.5L16.903,60L16.972,58.5L17.04,55L17.109,53L17.177,52.5L17.246,54L17.314,54.5L17.383,55L17.451,53.5L17.519,51.5L17.588,51.5L17.656,52L17.725,50.5L17.793,48.5L17.862,47.5L17.93,46.5L17.999,49L18.067,50.5L18.135,51L18.204,53.5L18.272,51.5L18.341,51L18.409,51L18.478,53L18.546,55.5L18.615,57.5L18.683,61L18.751,60.5L18.82,61L18.888,62.5L18.957,62.5L19.025,61.5L19.094,62.5L19.162,63.5L19.231,59.5L19.299,58L19.367,57L19.436,54L19.504,57L19.573,58L19.641,58.5L19.71,58L19.778,60.5L19.847,62L19.915,59.5L19.983,61L20.052,58.5L20.12,57.5L20.189,57.5L20.257,56.5L20.326,57L20.394,60L20.463,60.5L20.531,60.5L20.599,58L20.668,57L20.736,56L20.805,54.5L20.873,53.5L20.942,52L21.079,49.5L21.147,47L21.215,47.5L21.287,48L21.355,53.5L21.424,55.5L21.492,54L21.561,53L21.629,53.5L21.697,54L21.766,55.5L21.834,56L21.903,56.5L21.971,59.5L22.04,62L22.108,63.5L22.177,65.5L22.245,64.5L22.313,61.5L22.382,62.5L22.45,61.5L22.519,62.5L22.587,63.5L22.656,61.5L22.724,62.5L22.793,63.5L22.861,64L22.93,67.5L22.998,67L23.066,69.5L23.135,73L23.203,73.5L23.272,74.5L23.34,74L23.409,69L23.477,70L23.546,73L23.614,77.5L23.682,76.5L23.751,74.5L23.819,72.5L23.888,74L23.956,70.5L24.025,70L24.093,70L24.162,67.5L24.23,64.5L24.298,65L24.367,67L24.435,65.5L24.504,68L24.572,68.5L24.641,65.5L24.709,67L24.778,66.5L24.846,64L24.914,63L24.983,60.5L25.051,62L25.12,61.5L25.188,61.5L25.257,63L25.325,61L25.394,61L25.462,61L25.53,59.5L25.599,57L25.667,56.5L25.736,57.5L25.804,60.5L25.873,62.5L25.941,60.5L26.01,60L26.078,60L26.146,60.5L26.215,59L26.283,61L26.352,62L26.42,62L26.489,63.5L26.557,63.5L26.626,61L26.694,63.5L26.762,63L26.831,65L26.899,68L26.968,68L27.036,68L27.105,63.5L27.173,64L27.242,64L27.31,66.5L27.379,69.5L27.447,69.5L27.515,73L27.584,72.5L27.652,75L27.721,72.5L27.789,71L27.858,70L27.926,69L27.995,71L28.063,74.5L28.131,75.5L28.2,74.5L28.268,75.5L28.337,75L28.405,74.5L28.474,73L28.542,71L28.611,69.5L28.679,69L28.747,66L28.816,66.5L28.884,66.5L28.953,65.5L29.021,64.5L29.09,63.5L29.158,67.5L29.227,67.5L29.295,68L29.363,66.5L29.432,65.5L29.5,64L29.569,62.5L29.637,62.5L29.706,62L29.774,62.5L29.843,63.5L29.908,62L29.977,62.5L30.045,60L30.114,61L30.182,60L30.25,61.5L30.319,62.5L30.387,61.5L30.456,62.5L30.524,64L30.593,67.5L30.661,67.5L30.73,67.5L30.798,68L30.866,69L30.935,66.5L31.003,64.5L31.072,64L31.14,62.5L31.209,61.5L31.277,59L31.346,57.5L31.414,55.5L31.482,55.5L31.551,55.5L31.619,55.5L31.688,55.5L31.756,53.5L31.825,50L31.893,47L31.962,49.5L32.03,48L32.098,47.5L32.167,46.5L32.235,44L32.304,43.5L32.372,42.5L32.441,40.5L32.509,39.5L32.578,40.5L32.646,37L32.714,37.5L32.783,36.5L32.851,38.5L32.92,37.5L32.988,38.5L33.057,41L33.125,42.5L33.194,45.5L33.262,45L33.33,46.5L33.399,45L33.467,48L33.536,46L33.604,45.5L33.673,40L33.741,39.5L33.81,36.5L33.878,41L33.946,41.5L34.015,41L34.083,42L34.152,41L34.22,36.5L34.289,37L34.357,32.5L34.426,32.5L34.494,34.5L34.563,35L34.631,34L34.699,34L34.768,31L34.836,33L34.905,31.5L34.973,29.5L35.042,29.5L35.11,27L35.179,26L35.247,27L35.315,28L35.384,27.5L35.452,29L35.521,29L35.589,29.5L35.658,33.5L35.726,37L35.795,38.5L35.863,41L35.931,39.5L36,39L36.068,37.5L36.137,37L36.205,39.5L36.274,42.5L36.342,44L36.411,46L36.479,49L36.547,49.5L36.616,48.5L36.684,44.5L36.753,42.5L36.821,47.5L36.89,44L36.958,46.5L37.027,45.5L37.095,45L37.163,46.5L37.232,45L37.3,45L37.369,46.5L37.437,45.5L37.506,45L37.574,44L37.643,44.5L37.711,41.5L37.779,43L37.848,44.5L37.916,46L37.985,48L38.053,48.5L38.122,47L38.19,48.5L38.259,47.5L38.327,47.5L38.396,48L38.464,50L38.532,46L38.601,48L38.669,48L38.738,52L38.806,56.5L38.875,56.5L38.943,60L39.012,60L39.08,61L39.148,60.5L39.217,61L39.285,62.5L39.354,60.5L39.422,59L39.491,60L39.559,60L39.628,62L39.696,63L39.764,66.5L39.833,68L39.901,67.5L39.97,64.5L40.038,62L40.107,62L40.175,64L40.244,60L40.312,61.5L40.38,60.5L40.449,59.5L40.517,57.5L40.586,61L40.654,57L40.723,58.5L40.791,58.5L40.86,53L40.928,49L40.996,49.5L41.065,48.5L41.133,49L41.202,52.5L41.27,52.5L41.339,52L41.407,53.5L41.476,53L41.544,54L41.612,54.5L41.681,50.5L41.749,52L41.818,50L41.886,50.5L41.955,48.5L42.023,51.5L42.092,53L42.16,55L42.228,54.5L42.297,58.5L42.365,56L42.434,58.5L42.502,57L42.571,61L42.639,57.5L42.708,60.5L42.776,58.5L42.845,60L42.913,62L42.981,65L43.05,64.5L43.118,65L43.187,66L43.255,64L43.324,64L43.392,66.5L43.461,66L43.529,66L43.597,64.5L43.666,63.5L43.734,65.5L43.803,64L43.871,63.5L43.94,62.5L44.008,61L44.077,61.5L44.145,60.5L44.213,58.5L44.282,61L44.35,61.5L44.419,62L44.487,61L44.556,65L44.624,63.5L44.693,66.5L44.761,66L44.829,67L44.898,65L44.966,66.5L45.035,65L45.103,63.5L45.172,62L45.24,62L45.309,64.5L45.377,65.5L45.445,63L45.514,63.5L45.582,65L45.651,65L45.719,67L45.788,66L45.856,67.5L45.925,68L45.993,67.5L46.061,69.5L46.13,68L46.201,68.5L46.27,68.5L46.338,65L46.407,63L46.475,65.5L46.543,67.5L46.612,64.5L46.68,64L46.749,62.5L46.817,64L46.886,64.5L46.954,65L47.023,64.5L47.091,62.5L47.159,64L47.228,65L47.296,65.5L47.365,61L47.433,59.5L47.502,62.5L47.57,63.5L47.639,62L47.707,64.5L47.775,64.5L47.844,67.5L47.912,67L47.981,68.5L48.049,71L48.118,70.5L48.186,72.5L48.255,74.5L48.323,78.5L48.392,80.5L48.46,82L48.528,81L48.597,79L48.665,80L48.734,82L48.802,82L48.871,80L48.939,77L49.008,76L49.076,78L49.144,78.5L49.213,79.5L49.281,80.5L49.35,80L49.418,83.5L49.487,83.5L49.624,80L49.692,80L49.76,81.5L49.829,76L49.897,74.5L49.966,74L50.034,74.5L50.103,71L50.171,67L50.308,66.5L50.376,67L50.445,64L50.513,62L50.582,64L50.65,64.5L50.719,66L50.787,67L50.856,67.5L50.924,63L50.992,63L51.061,65L51.129,67L51.198,67.5L51.266,67.5L51.335,69.5L51.403,68L51.472,65L51.54,63.5L51.608,61.5L51.677,61.5L51.745,61L51.814,60L51.882,58.5L51.951,61.5L52.019,61L52.088,60.5L52.156,61.5L52.225,63L52.293,65L52.361,66.5L52.43,65L52.498,68.5L52.567,66.5L52.635,63.5L52.704,63L52.772,59.5L52.841,55.5L52.909,56.5L52.977,61L53.046,61.5L53.114,58L53.183,59.5L53.251,60L53.32,60L53.388,58.5L53.457,60.5L53.525,65L53.593,65.5L53.662,66.5L53.73,66.5L53.799,71.5L53.867,69.5L53.936,66L54.004,65L54.073,66L54.141,67L54.209,65.5L54.278,66.5L54.346,68L54.415,67.5L54.483,67.5L54.552,64L54.62,66.5L54.689,67.5L54.757,66L54.823,67.5L54.891,70.5L54.96,65.5L55.028,63.5L55.096,62.5L55.165,66L55.233,64L55.302,64L55.37,64L55.439,64L55.507,63.5L55.576,63L55.644,62.5L55.712,62L55.781,64L55.849,61.5L55.918,62.5L55.986,66L56.055,68L56.123,68.5L56.192,65L56.26,64.5L56.328,64.5L56.397,63.5L56.465,63.5L56.534,63.5L56.602,65.5L56.671,63L56.739,60L56.808,62L56.876,60.5L56.944,59L57.013,62L57.081,63.5L57.15,64L57.218,62.5L57.287,62.5L57.355,62.5L57.424,61L57.492,61.5L57.56,61L57.629,61L57.697,62L57.766,64.5L57.834,63.5L57.903,64L57.971,66L58.04,63.5L58.108,64L58.176,60L58.245,60.5L58.313,60L58.382,59.5L58.45,60L58.519,57L58.587,56.5L58.656,55.5L58.724,57.5L58.792,62L58.861,59.5L58.929,61L58.998,63.5L59.066,63.5L59.135,58.5L59.203,56.5L59.272,57L59.34,59L59.409,57.5L59.477,58.5L59.545,55L59.614,52L59.682,49L59.751,48.5L59.819,45.5L59.888,44.5L59.956,45L60.025,41L60.093,42.5L60.161,42L60.23,45L60.298,44.5L60.367,44L60.435,43.5L60.504,40.5L60.572,45L60.641,45L60.709,46L60.777,47L60.846,44.5L60.914,45.5L60.983,44.5L61.051,38.5L61.12,39.5L61.188,44L61.257,46.5L61.325,48L61.393,46L61.462,44.5L61.53,43L61.599,47L61.667,48.5L61.736,51L61.804,50.5L61.873,49L61.941,49.5L62.009,46L62.078,49L62.146,50.5L62.215,51L62.283,53.5L62.352,56.5L62.42,56L62.489,55.5L62.557,57L62.625,54.5L62.694,54L62.762,53.5L62.831,49.5L62.899,45.5L62.968,46L63.036,48L63.105,54.5L63.173,53.5L63.242,52.5L63.31,53L63.378,49.5L63.447,50L63.515,51.5L63.584,49L63.652,50.5L63.721,50.5L63.789,49.5L63.858,51.5L63.926,51.5L63.994,50L64.063,51.5L64.131,48L64.2,45.5L64.268,45L64.337,39.5L64.405,36.5L64.474,34.5L64.542,35.5L64.61,37.5L64.679,38.5L64.747,38.5L64.816,39.5L64.884,41L64.953,45.5L65.021,45L65.09,44L65.158,42.5L65.226,43L65.295,44L65.363,39.5L65.432,41L65.5,40.5L65.569,41.5L65.637,45.5L65.706,45L65.774,45.5L65.842,46L65.911,43.5L65.979,45L66.048,47L66.116,46.5L66.185,51L66.253,53.5L66.322,53.5L66.39,56L66.458,55L66.527,56L66.595,55L66.664,51.5L66.732,48L66.801,49L66.869,45.5L66.938,46.5L67.006,45L67.074,46L67.143,45.5L67.211,46L67.28,45.5L67.348,42.5L67.417,41.5L67.485,40.5L67.554,41L67.622,41L67.691,38L67.759,36L67.827,34.5L67.896,32L67.964,35L68.033,36L68.101,36.5L68.17,36.5L68.238,32.5L68.307,32.5L68.375,33L68.443,35.5L68.512,38.5L68.58,38.5L68.649,39.5L68.717,42L68.786,44.5L68.854,41.5L68.923,45L68.991,47L69.059,49.5L69.128,48L69.196,46.5L69.265,44L69.333,43.5L69.402,46.5L69.47,49.5L69.539,51L69.607,50.5L69.675,50L69.744,52L69.812,55.5L69.881,59L69.949,61L70.018,61.5L70.086,60.5L70.155,59.5L70.223,63L70.291,65.5L70.36,66L70.428,67.5L70.497,66L70.565,67.5L70.634,70.5L70.702,70.5L70.771,71L70.839,72L70.907,70L70.976,70L71.044,65.5L71.116,64.5L71.184,64.5L71.253,68L71.321,69L71.389,68.5L71.458,66L71.526,68.5L71.595,66L71.663,67L71.732,69L71.8,69.5L71.869,68L71.937,67L72.005,67L72.074,63.5L72.142,63L72.211,64.5L72.279,60L72.348,61L72.416,61.5L72.485,60L72.553,62.5L72.621,61.5L72.69,59.5L72.758,59L72.827,58.5L72.895,58.5L72.964,65.5L73.032,66.5L73.101,67L73.169,67L73.238,66.5L73.306,64L73.374,65.5L73.443,68L73.511,68.5L73.58,69.5L73.648,71.5L73.717,71.5L73.785,72L73.854,71L73.922,69.5L73.99,66L74.059,63.5L74.127,64L74.196,64.5L74.264,60.5L74.333,63.5L74.401,62L74.47,60L74.538,61L74.606,60.5L74.675,58.5L74.743,58.5L74.812,59L74.88,59.5L74.949,58.5L75.017,56.5L75.086,56L75.154,59.5L75.222,60.5L75.291,63L75.359,62.5L75.428,60L75.496,57.5L75.565,59.5L75.633,58L75.702,59L75.77,58L75.838,54L75.907,56L75.975,58.5L76.044,60.5L76.112,63.5L76.181,65.5L76.249,68.5L76.318,72L76.386,72L76.454,72L76.523,73L76.591,70.5L76.66,67.5L76.728,69L76.797,67.5L76.865,67.5L76.934,66.5L77.002,68L77.07,68L77.139,65.5L77.207,65L77.276,65L77.344,62L77.413,65L77.481,67L77.55,69.5L77.618,68.5L77.687,69.5L77.755,67.5L77.823,67L77.892,69.5L77.96,70L78.029,69L78.097,69L78.166,66L78.234,64L78.303,61L78.371,57L78.439,56L78.508,57L78.576,57L78.645,58.5L78.713,58.5L78.782,57L78.85,57L78.919,57L78.987,56.5L79.055,54L79.124,52.5L79.192,51L79.261,47.5L79.329,46.5L79.398,45.5L79.466,43L79.535,42.5L79.603,41.5L79.671,42.5L79.737,41L79.805,42L79.874,43L79.942,41.5L80.011,40.5L80.079,41L80.148,42.5L80.216,42.5L80.285,42.5L80.353,41L80.422,44.5L80.49,46L80.558,47.5L80.627,49L80.695,47.5L80.764,49.5L80.832,50.5L80.901,55L80.969,54.5L81.038,57L81.106,58L81.174,59.5L81.243,61.5L81.311,63L81.38,62.5L81.448,65L81.517,66L81.585,67L81.654,68L81.722,66L81.79,67.5L81.859,64.5L81.927,65.5L81.996,64.5L82.064,63.5L82.133,60L82.201,60.5L82.27,61.5L82.338,62L82.406,65.5L82.475,63.5L82.543,62L82.612,59.5L82.68,54.5L82.749,57L82.817,55L82.886,56.5L82.954,55L83.022,57.5L83.091,55.5L83.159,54L83.228,51.5L83.296,53L83.365,55.5L83.433,56L83.502,54L83.57,50L83.638,47L83.707,44.5L83.775,45L83.844,45L83.912,50L83.981,49L84.049,53L84.118,53.5L84.186,55L84.255,53L84.323,55.5L84.391,57L84.46,53.5L84.528,54L84.597,56L84.665,56L84.734,58.5L84.802,58.5L84.871,58.5L84.939,56L85.007,56.5L85.076,53L85.144,52.5L85.213,55L85.281,58L85.35,57L85.418,56L85.487,57.5L85.555,59L85.623,64.5L85.692,68L85.76,71L85.829,69.5L85.897,68L85.966,65L86.034,64L86.103,62L86.171,62.5L86.239,62L86.308,64L86.376,63L86.445,61L86.513,62.5L86.582,61L86.65,58L86.719,60L86.787,62L86.855,61L86.924,59L86.992,60L87.061,57.5L87.129,55L87.198,55.5L87.266,54.5L87.335,53.5L87.403,53L87.471,53.5L87.54,53L87.608,51.5L87.677,51.5L87.745,51.5L87.814,50L87.882,49.5L87.951,51L88.019,53L88.087,55L88.156,54L88.224,56L88.293,57.5L88.361,55.5L88.43,54.5L88.498,55L88.567,53L88.635,55L88.704,56.5L88.772,54L88.84,52.5L88.909,52L88.977,53.5L89.046,54.5L89.114,57L89.183,60L89.251,59L89.32,56.5L89.388,56L89.456,55.5L89.525,51L89.593,48.5L89.662,51.5L89.73,52.5L89.799,52.5L89.867,49L89.936,50.5L90.004,45.5L90.072,45L90.141,42L90.209,39L90.278,35L90.346,31.5L90.415,33.5L90.483,33.5L90.552,31.5L90.62,34.5L90.688,33L90.757,33L90.825,29L90.894,25L90.962,23L91.031,23.5L91.099,21L91.168,17L91.236,16.5L91.304,16L91.373,16.5L91.441,13L91.51,14.5L91.578,19.5L91.647,22.5L91.715,20L91.784,16.5L91.852,14.5L91.92,15L91.989,15.5L92.057,20L92.126,17L92.194,15.5L92.263,21L92.331,21L92.4,24L92.468,22.5L92.537,22.5L92.605,25L92.673,22.5L92.742,24.5L92.81,24.5L92.879,24L92.947,29L93.016,32.5L93.084,33L93.153,34L93.221,36.5L93.289,38.5L93.358,41L93.426,45.5L93.495,48.5L93.563,45.5L93.632,43.5L93.7,42.5L93.769,41.5L93.837,42.5L93.905,42.5L93.974,43L94.042,43.5L94.111,42.5L94.179,43.5L94.248,47L94.316,47.5L94.385,49.5L94.453,50.5L94.521,51.5L94.59,51L94.658,50L94.727,52L94.795,52.5L94.864,55.5L94.932,62.5L95.001,63L95.069,61L95.137,60.5L95.206,61L95.274,62.5L95.343,61.5L95.411,61L95.48,55.5L95.548,52.5L95.617,54.5L95.685,57.5L95.753,54.5L95.822,59L95.89,58.5L95.959,61L96.03,64L96.099,63L96.167,62.5L96.235,64L96.304,65L96.372,63.5L96.441,61L96.509,59.5L96.578,59L96.646,58.5L96.715,58.5L96.783,60.5L96.851,61L96.92,59.5L96.988,58L97.057,54.5L97.125,57L97.194,59L97.262,61L97.331,58.5L97.399,59L97.467,58.5L97.536,63.5L97.604,67.5L97.673,67L97.741,64L97.81,68L97.878,66L97.947,67L98.015,66.5L98.084,65L98.152,65.5L98.22,67L98.289,66.5L98.357,63L98.426,61L98.494,61.5L98.563,63L98.631,60L98.7,60.5L98.768,60.5L98.836,59L98.905,57L98.973,57L99.042,54L99.11,54.5L99.179,55L99.247,54.5L99.316,52.5L99.384,54L99.452,51L99.521,48.5L99.589,46L99.658,48.5L99.726,49L99.795,50L99.863,47L99.932,47.5L100,46L100.068,44.5L100.137,43.5L100.205,44.5L100.274,43.5L100.342,41.5L100.411,44.5L100.479,46L100.548,46.5L100.616,47.5L100.684,52L100.753,51L100.821,48L100.89,50L100.958,51L101.027,52.5L101.095,55.5L101.164,56L101.232,53L101.3,50.5L101.369,47.5L101.437,47L101.506,51L101.574,54L101.643,57L101.711,54L101.78,53L101.848,52.5L101.916,52.5L101.985,53L102.053,53.5L102.122,52L102.19,54.5L102.259,51L102.327,49.5L102.396,52L102.464,50L102.533,50.5L102.601,54L102.669,52L102.738,49L102.806,50L102.875,52.5L102.943,50L103.012,50L103.08,48.5L103.149,49L103.217,50.5L103.285,53.5L103.354,57.5L103.422,62L103.491,64.5L103.559,65.5L103.628,66.5L103.696,66.5L103.765,68.5L103.833,71.5L103.901,73.5L103.97,77L104.038,77L104.107,79L104.175,82.5L104.244,84L104.312,89L104.381,92L104.449,93.5L104.517,96L104.586,98L104.651,98L104.72,100.5L104.788,103.5L104.857,106.5L104.925,110.5L104.994,113L105.062,114L105.131,115L105.199,116.5L105.268,118.5L105.404,118.5L105.473,118L105.541,118.5L105.61,119L105.678,118.5L105.747,119.5L105.815,118.5L106.02,118.5L106.089,119L106.157,119.5L106.226,119L106.294,119.5L106.363,120L106.431,120.5L106.5,119L106.568,118L106.636,118L106.705,118L106.842,117L106.979,116.5L107.047,115.5L107.184,114L107.252,109.5L107.321,106.5L107.389,105L107.458,105L107.663,106L107.732,105.5L107.8,105L107.868,104.5L107.937,103L108.005,103L108.074,102L108.142,101L108.211,99.5L108.279,99.5L108.416,101L108.484,102L108.621,102L108.69,102L108.758,101L108.827,100.5L108.895,100L109.032,98L109.101,96.5L109.237,95.5L109.306,94L109.374,92L109.443,94L109.511,93L109.58,92.5L109.648,93L109.717,97.5L109.785,100.5L109.853,98.5L109.922,97.5L109.99,95L110.059,95.5L110.127,94L110.196,93L110.264,91.5L110.333,91.5L110.401,89L110.469,87L110.538,88.5L110.606,86.5L110.675,83L110.812,81L110.88,80.5L110.949,79L111.017,78.5L111.085,79L111.154,77.5L111.222,76.5L111.291,77L111.359,77L111.428,77L111.496,77L111.565,77L111.633,73.5L111.701,74L111.838,74L111.907,73L111.975,70L112.044,70L112.112,70.5L112.181,71L112.249,69.5L112.317,70.5L112.386,67L112.454,66.5L112.523,66L112.591,67L112.66,65L112.728,63.5L112.797,63L112.865,63L112.933,64.5L113.002,63.5L113.07,61.5L113.139,60L113.207,58L113.276,57.5L113.344,57L113.413,58.5L113.481,58L113.55,58L113.618,60L113.686,58.5L113.755,61.5L113.823,60.5L113.892,61L113.96,61L114.029,59L114.097,60L114.166,57L114.234,57L114.302,55.5L114.371,56L114.439,58.5L114.508,60.5L114.576,56L114.645,55L114.713,58.5L114.85,57L114.918,56.5L114.987,60L115.055,59L115.124,59L115.192,60.5L115.261,61L115.329,59.5L115.398,60.5L115.466,60L115.534,59.5L115.603,60.5L115.671,62.5L115.74,60.5L115.808,60L115.877,59L115.945,59.5L116.014,58.5L116.082,57.5L116.15,62L116.219,61L116.287,64L116.356,63.5L116.424,65.5L116.493,64L116.561,66.5L116.63,67L116.698,71L116.766,73.5L116.835,72L116.903,74.5L116.972,76.5L117.04,73.5L117.109,74L117.177,73.5L117.246,74.5L117.314,75.5L117.383,77.5L117.451,78L117.519,79.5L117.588,79L117.656,78L117.725,78L117.793,78L117.862,79L117.93,80.5L117.999,81L118.067,82.5L118.135,84L118.204,83.5L118.272,85.5L118.341,84.5L118.409,85.5L118.478,85L118.546,86L118.615,85L118.683,85.5L118.751,87L118.82,87.5L118.888,88L118.957,88.5L119.025,88.5L119.094,89L119.162,89.5L119.231,91L119.299,89.5L119.436,88.5L119.504,89L119.573,89L119.641,91.5L119.71,91L119.778,91L119.847,91L119.915,91L119.983,91L120.052,92.5L120.189,91.5L120.257,89.5L120.326,88.5L120.394,87.5L120.463,88.5L120.531,89.5L120.599,91L120.668,89.5L120.736,89.5L120.805,87L120.873,85.5L120.945,84L121.013,84L121.081,85L121.15,80.5L121.218,80.5L121.287,81.5L121.355,80L121.424,81L121.492,80L121.561,81.5L121.629,82.5L121.697,82.5L121.766,79L121.834,79.5L121.903,81.5L121.971,80L122.04,82L122.108,83.5L122.177,83L122.245,83L122.313,84.5L122.382,86.5L122.45,86.5L122.519,86L122.587,86.5L122.656,85.5L122.724,87.5L122.793,85.5L122.861,88L122.93,88L122.998,89L123.066,90L123.135,89.5L123.203,90.5L123.272,89.5L123.34,89L123.409,89.5L123.477,88.5L123.546,91L123.614,91.5L123.682,92L123.751,92L123.819,93.5L123.888,95.5L123.956,94L124.025,95.5L124.093,94L124.162,93.5L124.23,93.5L124.298,92.5L124.367,91.5L124.435,89L124.504,87.5L124.572,87.5L124.641,87L124.709,84.5L124.778,83.5L124.846,85.5L124.914,84.5L124.983,85.5L125.051,84L125.12,82.5L125.188,83.5L125.257,87L125.325,88L125.394,90L125.462,89.5L125.53,89L125.599,90L125.667,90L125.736,89.5L125.804,90L125.873,88.5L125.941,87L126.01,88.5L126.078,88.5L126.146,89L126.215,87.5L126.283,87.5L126.352,90.5L126.42,92L126.489,94.5L126.557,96.5L126.626,95.5L126.694,95L126.762,96.5L126.831,97.5L126.899,96.5L126.968,97.5L127.036,98L127.105,97L127.173,96L127.242,93.5L127.379,91L127.447,91.5L127.515,89.5L127.584,91L127.652,92L127.721,88L127.789,86L127.858,86L127.926,82L127.995,84L128.063,83L128.131,82.5L128.2,81.5L128.268,81.5L128.337,82L128.405,80.5L128.474,78.5L128.542,76.5L128.611,74.5L128.679,72L128.747,72L128.816,72.5L128.884,73.5L128.953,74.5L129.09,75L129.158,74L129.227,72.5L129.295,74.5L129.363,74L129.432,73.5L129.5,75L129.569,69L129.637,70L129.706,69.5L129.774,69.5L129.843,73.5L129.979,73L130.045,71.5L130.114,74L130.182,73.5L130.25,74L130.319,74L130.387,72.5L130.456,73.5L130.524,72.5L130.593,70L130.661,69.5L130.73,71L130.798,73L130.866,73.5L131.003,75.5L131.072,73.5L131.14,73L131.209,68.5L131.277,69L131.346,70.5L131.414,69.5L131.482,69L131.551,71.5L131.619,74L131.688,73L131.756,78L131.825,78.5L131.893,77L131.962,72.5L132.03,67.5L132.098,70.5L132.167,71.5L132.235,70.5L132.304,70L132.372,67.5L132.441,64.5L132.509,66L132.578,63.5L132.646,65L132.714,67L132.783,69L132.851,68L132.92,64.5L132.988,65L133.057,61L133.125,61.5L133.194,60L133.262,63L133.33,62.5L133.399,60.5L133.467,59.5L133.536,59.5L133.604,57L133.673,57L133.741,59L133.81,56.5L133.878,55.5L133.946,56L134.015,58.5L134.083,61.5L134.152,61L134.22,58.5L134.289,58.5L134.357,59L134.426,60.5L134.494,63L134.563,63.5L134.631,62L134.699,62L134.768,60L134.836,57L134.905,54.5L134.973,54.5L135.042,55L135.11,56.5L135.179,58.5L135.247,58L135.315,58L135.384,56L135.452,56L135.521,56.5L135.589,56L135.658,58.5L135.726,58L135.795,57L135.863,58L135.931,56L136,56.5L136.068,57.5L136.137,57L136.205,55.5L136.274,57L136.342,59.5L136.411,59.5L136.479,59.5L136.547,58.5L136.616,59L136.684,58L136.753,57L136.821,58.5L136.89,59.5L136.958,61L137.027,62.5L137.095,63L137.163,60L137.232,60L137.3,61L137.369,60L137.437,60.5L137.506,61.5L137.574,62L137.643,61.5L137.711,58.5L137.779,57.5L137.848,57.5L137.916,56.5L137.985,58.5L138.053,58.5L138.122,55L138.19,53.5L138.259,53.5L138.327,51L138.396,49L138.464,50.5L138.532,50.5L138.601,50.5L138.669,49L138.738,54L138.806,55.5L138.875,53L138.943,54L139.012,57L139.08,57.5L139.148,58L139.217,60.5L139.285,57L139.354,57.5L139.422,58L139.491,59L139.559,59.5L139.628,59L139.696,62L139.764,64L139.833,63.5L139.901,62.5L139.97,63.5L140.038,62.5L140.107,61L140.175,63L140.244,65L140.312,65.5L140.38,67L140.449,69.5L140.517,66.5L140.586,64.5L140.654,64L140.723,62.5L140.791,60L140.86,59.5L140.928,62.5L140.996,61L141.065,57.5L141.133,52.5L141.202,49.5L141.27,48.5L141.339,49L141.407,50L141.476,48.5L141.544,44.5L141.612,44L141.681,44.5L141.749,43L141.818,43L141.886,42L141.955,40.5L142.023,40L142.092,36L142.16,37.5L142.228,39L142.297,38L142.365,40.5L142.434,42L142.502,38L142.571,40L142.639,43L142.708,42.5L142.776,44L142.845,47L142.913,46.5L142.981,43L143.05,43L143.118,44L143.187,48.5L143.255,52L143.324,54L143.392,53L143.461,48.5L143.529,49.5L143.597,51.5L143.666,52.5L143.734,53L143.803,52.5L143.871,50L143.94,50.5L144.008,50L144.077,48L144.145,52L144.213,52L144.282,48.5L144.35,45.5L144.419,42L144.487,43.5L144.556,44L144.624,43L144.693,44.5L144.761,45.5L144.829,45.5L144.898,43L144.966,42L145.035,45.5L145.103,47L145.172,46.5L145.24,46L145.309,43L145.377,39L145.445,39.5L145.514,44L145.582,47L145.651,49.5L145.719,46L145.788,46L145.856,46.5L145.925,46.5L145.993,44L146.061,45.5L146.13,48.5L146.198,49.5L146.267,48L146.338,50L146.407,52.5L146.475,51.5L146.543,50.5L146.612,51.5L146.68,52L146.749,48.5L146.817,48L146.886,50L146.954,51L147.023,52.5L147.091,52L147.159,53L147.228,55.5L147.296,55.5L147.365,59L147.433,63L147.502,65.5L147.57,65.5L147.639,63.5L147.707,64L147.775,65L147.844,65L147.912,64.5L147.981,67.5L148.049,72L148.118,72.5L148.186,70.5L148.255,69.5L148.323,69L148.392,68L148.46,69L148.528,72.5L148.597,73.5L148.665,75L148.734,73L148.802,75L148.871,70.5L148.939,68.5L149.008,70L149.076,70L149.144,71.5L149.213,70L149.281,67L149.35,66.5L149.418,63.5L149.487,61.5L149.555,62L149.624,61.5L149.692,56.5L149.76,55.5L149.829,55L149.897,57L149.966,59L150.034,57.5L150.103,58.5L150.171,57.5L150.24,58.5L150.308,61L150.376,60.5L150.445,62L150.513,63L150.582,62.5L150.65,58.5L150.719,57.5L150.787,59.5L150.856,59.5L150.924,65.5L151.061,62.5L151.129,60.5L151.198,58L151.266,57.5L151.335,56L151.403,58.5L151.472,59.5L151.54,61.5L151.608,62.5L151.677,58L151.745,52L151.814,57.5L151.882,58.5L151.951,60.5L152.019,58L152.088,54.5L152.156,54L152.225,49.5L152.293,48.5L152.361,50.5L152.43,47.5L152.498,50L152.567,48L152.635,49L152.704,48L152.772,49L152.841,48.5L152.909,48L152.977,45.5L153.046,45L153.114,49L153.183,48.5L153.251,48.5L153.32,46.5L153.388,46L153.457,44.5L153.525,43L153.593,42.5L153.662,43L153.73,44L153.799,49.5L153.867,48L153.936,48L154.004,43.5L154.073,41.5L154.141,43.5L154.209,41L154.278,45L154.346,47L154.415,45L154.483,43.5L154.552,42L154.62,45L154.689,43L154.757,45L154.825,48L154.894,49.5L154.96,49.5L155.028,51.5L155.096,49.5L155.165,49L155.233,50L155.302,52L155.37,52.5L155.439,54.5L155.507,55L155.576,56L155.644,55.5L155.712,54L155.781,53L155.849,50L155.918,51.5L155.986,49L156.055,54.5L156.123,57L156.192,57L156.26,58.5L156.328,58.5L156.397,55.5L156.465,55.5L156.534,56L156.602,57L156.671,56.5L156.739,57.5L156.808,52.5L156.876,51L156.944,50.5L157.013,49L157.081,47.5L157.15,48L157.218,48L157.287,46L157.355,43.5L157.424,44L157.492,43L157.56,39.5L157.629,40.5L157.697,41L157.766,41L157.834,42L157.903,44L157.971,38.5L158.04,37.5L158.108,36.5L158.176,36.5L158.245,34L158.313,34L158.382,30.5L158.45,31.5L158.519,31.5L158.587,32L158.656,32L158.724,31L158.792,28L158.861,33L158.929,32L158.998,33L159.066,33L159.135,32.5L159.203,29.5L159.272,27.5L159.34,28L159.409,28L159.477,29L159.545,29L159.614,32L159.682,30.5L159.751,29.5L159.819,30.5L159.888,32L159.956,33.5L160.025,37.5L160.093,38.5L160.161,32.5L160.23,31L160.298,30.5L160.367,29L160.435,32L160.504,35.5L160.572,38L160.641,40.5L160.709,38.5L160.777,37.5L160.846,39.5L160.914,38L160.983,37L161.051,37.5L161.12,40L161.188,41.5L161.257,45L161.325,42.5L161.393,42L161.462,44.5L161.53,43.5L161.599,45.5L161.667,45.5L161.736,45L161.804,45L161.873,44.5L161.941,46.5L162.009,46L162.078,44.5L162.146,45L162.215,49L162.283,46.5L162.352,47.5L162.42,50.5L162.489,48L162.557,46L162.625,44.5L162.694,41.5L162.762,42L162.831,42.5L162.899,43L162.968,44.5L163.036,41.5L163.105,37.5L163.173,33L163.242,29.5L163.31,30L163.378,35L163.447,38L163.515,38.5L163.584,38.5L163.652,34.5L163.721,32.5L163.789,33L163.858,34L163.926,34.5L163.994,32L164.063,31L164.131,30L164.2,27L164.268,25.5L164.337,30.5L164.405,31.5L164.474,30L164.542,31.5L164.61,32L164.679,30L164.747,28L164.816,30L164.884,29L164.953,28.5L165.021,25.5L165.09,27.5L165.158,31L165.226,35L165.295,39L165.363,37.5L165.432,35L165.5,31.5L165.569,30L165.637,29L165.706,30.5L165.774,32L165.842,32L165.911,33L165.979,32.5L166.048,33.5L166.116,35L166.185,37.5L166.253,40.5L166.322,45L166.39,45.5L166.458,46L166.527,46L166.595,46.5L166.732,47L166.801,51L166.869,56.5L166.938,57L167.006,60L167.074,61L167.143,61.5L167.211,65L167.28,62L167.348,63L167.417,62.5L167.485,62.5L167.554,65L167.622,67L167.691,69L167.759,71L167.827,71L167.896,71L167.964,72L168.033,70.5L168.101,71L168.17,71L168.238,69.5L168.307,72.5L168.375,71L168.443,68.5L168.512,66L168.58,67.5L168.649,69.5L168.717,71L168.786,71L168.854,70L168.923,61L168.991,60.5L169.059,59.5L169.128,57.5L169.196,60.5L169.265,58L169.333,56.5L169.402,55.5L169.47,53L169.539,56.5L169.607,56L169.675,54L169.744,53L169.812,52L169.881,53.5L169.949,52.5L170.018,51L170.086,51L170.155,51L170.223,51L170.291,51.5L170.36,48.5L170.428,52.5L170.497,52.5L170.565,53L170.634,50L170.702,49L170.771,48L170.839,47L170.907,46L170.976,51.5L171.044,49L171.113,48L171.181,47L171.253,45.5L171.321,48.5L171.389,53L171.458,51L171.526,54L171.595,51L171.663,52L171.732,53.5L171.8,54L171.869,54.5L171.937,54L172.005,53L172.074,53L172.142,50.5L172.211,49.5L172.279,49.5L172.348,51L172.416,53L172.485,53L172.553,55.5L172.621,58.5L172.69,60L172.758,58.5L172.827,60L172.895,62L172.964,63L173.032,63.5L173.101,65L173.169,67L173.238,65L173.306,62.5L173.374,61.5L173.443,58L173.511,57.5L173.58,55L173.648,51.5L173.717,47.5L173.785,46.5L173.854,47.5L173.922,48.5L173.99,48.5L174.059,52L174.127,52.5L174.196,56.5L174.264,58L174.333,57L174.401,53.5L174.47,52L174.538,50L174.606,46L174.675,42.5L174.743,41L174.812,42.5L174.88,41L174.949,40.5L175.017,40.5L175.086,42L175.154,42.5L175.222,40.5L175.291,43.5L175.359,46.5L175.428,46L175.496,48L175.565,46L175.633,48.5L175.702,53L175.77,54.5L175.838,56.5L175.907,53.5L175.975,52L176.044,50.5L176.112,47L176.181,46L176.249,44L176.318,45.5L176.386,45.5L176.454,47.5L176.523,48.5L176.591,47L176.66,49.5L176.728,51.5L176.797,53.5L176.865,52.5L176.934,51.5L177.002,50.5L177.07,49L177.139,47L177.207,49L177.276,51L177.344,53L177.413,51.5L177.481,52L177.55,50.5L177.618,54.5L177.687,54L177.755,53L177.823,55L177.892,56L177.96,56.5L178.029,55L178.097,58L178.166,61L178.234,63.5L178.303,63.5L178.371,61L178.439,62.5L178.508,60.5L178.576,58L178.645,57L178.713,57L178.782,56L178.85,54L178.919,58L178.987,58.5L179.055,59.5L179.124,60L179.192,62.5L179.261,58.5L179.329,54.5L179.398,52.5L179.466,51.5L179.535,50.5L179.603,52L179.671,53L179.74,55.5L179.808,55.5L179.874,55.5L179.942,54L180.011,54L180.079,52.5L180.148,47L180.216,46L180.285,38.5L180.353,37L180.422,38L180.49,35.5L180.558,38L180.627,40L180.695,41.5L180.764,42L180.832,40.5L180.901,39.5L180.969,36.5L181.038,36L181.106,35L181.174,36L181.243,35L181.311,33.5L181.38,33.5L181.448,33L181.517,32L181.585,32.5L181.654,30.5L181.722,26.5L181.79,25L181.859,26L181.927,24L181.996,25.5L182.064,25.5L182.133,31L182.201,34L182.27,33L182.338,37L182.406,39L182.475,39.5L182.543,40L182.612,40.5L182.68,37L182.749,36.5L182.817,35L182.886,36L182.954,36L183.022,35L183.091,34L183.159,31.5L183.228,31.5L183.296,30.5L183.365,34.5L183.433,38L183.502,39.5L183.57,42.5L183.638,42.5L183.707,44.5L183.775,48.5L183.844,48L183.912,47.5L183.981,49L184.049,48.5L184.118,47L184.186,45L184.255,44.5L184.323,43L184.391,44.5L184.46,43.5L184.528,42.5L184.597,42.5L184.665,41.5L184.734,42L184.802,41.5L184.871,41L184.939,41L185.007,40L185.076,40L185.144,40.5L185.213,43L185.281,43L185.35,44L185.418,42.5L185.487,44L185.555,45L185.623,45L185.692,45.5L185.76,44.5L185.829,41.5L185.897,40L185.966,42L186.034,40L186.103,40L186.171,43L186.239,44L186.308,46.5L186.376,48L186.445,47.5L186.513,49.5L186.582,51.5L186.65,52.5L186.719,50L186.787,54.5L186.855,55.5L186.924,55.5L186.992,54L187.061,56.5L187.129,57.5L187.198,55L187.266,55.5L187.335,55L187.403,53.5L187.471,52L187.54,50L187.608,47.5L187.677,45L187.745,45L187.814,45.5L187.882,46L187.951,43.5L188.019,42L188.087,40.5L188.156,38L188.224,34L188.293,32.5L188.361,33L188.43,34L188.498,36.5L188.567,35.5L188.635,34L188.704,32L188.772,33.5L188.84,29.5L188.909,27.5L188.977,26.5L189.046,26L189.114,27L189.183,28L189.251,31.5L189.32,31L189.388,30L189.456,31.5L189.525,34L189.593,32.5L189.662,32.5L189.73,34.5L189.799,34L189.867,35L189.936,34.5L190.004,39.5L190.072,37L190.141,35.5L190.209,35L190.278,37L190.346,38L190.415,32L190.483,32L190.552,31L190.62,29.5L190.688,29.5L190.757,32.5L190.825,32L190.894,33L190.962,33.5L191.031,33.5L191.099,35L191.168,34L191.236,32.5L191.304,32.5L191.373,28.5L191.441,30L191.51,31.5L191.578,30L191.647,32L191.715,33L191.784,30.5L191.852,27L191.92,26.5L191.989,28L192.057,24.5L192.126,28.5L192.194,33.5L192.263,37.5L192.331,37L192.4,35.5L192.468,39.5L192.537,38L192.605,39.5L192.673,42L192.742,42L192.81,38L192.879,40L192.947,42.5L193.016,44.5L193.084,45.5L193.153,47L193.221,48L193.289,47.5L193.358,46.5L193.426,50.5L193.495,49L193.563,48.5L193.632,47L193.7,42.5L193.769,42L193.837,45L193.905,51L193.974,51.5L194.042,51.5L194.111,53L194.179,47.5L194.248,44L194.316,38.5L194.385,38L194.453,37.5L194.521,37.5L194.59,41L194.658,35.5L194.727,32L194.795,32L194.864,31L194.932,26L195.001,22.5L195.069,21.5L195.137,20L195.206,19.5L195.274,19L195.343,22L195.411,23L195.48,24L195.548,22.5L195.617,21.5L195.685,23L195.753,28L195.822,27L195.89,25L195.959,22L196.027,21.5L196.096,20L196.167,18L196.235,20.5L196.304,19.5L196.372,21.5L196.441,21.5L196.509,24L196.578,23.5L196.646,22.5L196.715,25.5L196.783,27L196.851,26L196.92,30L196.988,33L197.057,35.5L197.125,35.5L197.194,36L197.262,34L197.331,32.5L197.399,28L197.467,26.5L197.536,25L197.604,26L197.673,26L197.741,23L197.81,19.5L197.878,18L197.947,17.5L198.015,18.5L198.084,11.5L198.152,12L198.22,11.5L198.289,11L198.357,14.5L198.426,17L198.494,17.5L198.563,17L198.631,15.5L198.7,11.5L198.768,7.5L198.836,8L198.905,9.5L198.973,8.5L199.042,10.5L199.11,8.5L199.179,7L199.247,7.5L199.316,9L199.384,10L199.452,10L199.521,12L199.589,10L199.658,9.5L199.726,7L199.795,10L199.863,11.5L199.932,9L200,9L200.068,6.5L200.137,8.5L200.205,7.5L200.274,8L200.342,7L200.411,5.5L200.479,2.5L200.548,3L200.616,2.5L200.684,2.5L200.753,5L200.821,11L200.89,10L200.958,9.5L201.027,10.5L201.095,8.5L201.164,10.5L201.232,13.5L201.3,12.5L201.369,12.5L201.437,9.5L201.506,11L201.574,8.5L201.643,11L201.711,10L201.78,11.5L201.848,9.5L201.916,11.5L201.985,16L202.053,14.5L202.122,13.5L202.19,16.5L202.259,15.5" stroke="#4c78a8" stroke-width="2"/></g><g class="mark-group role-title"><g transform="translate(100,-22)"><path class="background" aria-hidden="true" d="M0,0h0v0h0Z" pointer-events="none"/><g><g class="mark-text role-title-text" role="graphics-symbol" aria-roledescription="title" aria-label="Title text 'Illegal Parking: Overnight Commercial Storage'" pointer-events="none"><text text-anchor="middle" transform="translate(0,10)" font-family="sans-serif" font-size="13px" font-weight="bold" fill="#000" opacity="1">Illegal Parking: Overnight Commercial Storage</text></g></g><path class="foreground" aria-hidden="true" d="" pointer-events="none" display="none"/></g></g></g><path class="foreground" aria-hidden="true" d="" display="none"/></g></g></g><defs><clipPath id="clip152"><rect x="0" y="0" width="200" height="150"/></clipPath></defs></svg>