<svg xmlns="http://www.w3.org/2000/svg" xmlns:xlink="http://www.w3.org/1999/xlink" version="1.1" class="marks" width="298" height="194" viewBox="0 0 298 194"><rect width="298" height="194" fill="white"/><g fill="none" stroke-miterlimit="10" transform="translate(49,22)"><g class="mark-group role-frame root" role="graphics-object" aria-roledescription="group mark container"><g transform="translate(0,0)"><path class="background" aria-hidden="true" d="M0,0h200v150h-200Z"/><g><g class="mark-group role-axis" aria-hidden="true"><g transform="translate(0.5,0.5)"><path class="background" aria-hidden="true" d="M0,0h0v0h0Z" pointer-events="none"/><g><g class="mark-rule role-axis-grid" pointer-events="none"><line transform="translate(0,150)" x2="200" y2="0" stroke="#ddd" stroke-width="1" opacity="1"/><line transform="translate(0,96)" x2="200" y2="0" stroke="#ddd" stroke-width="1" opacity="1"/><line transform="translate(0,43)" x2="200" y2="0" stroke="#ddd" stroke-width="1" opacity="1"/></g></g><path class="foreground" aria-hidden="true" d="" pointer-events="none" display="none"/></g></g><g class="mark-group role-axis" role="graphics-symbol" aria-roledescription="axis" aria-label="X-axis for a time scale with values from Friday, 01 January 2016, 12:00:00 AM to Monday, 01 January 2024, 12:00:00 AM"><g transform="translate(0.5,150.5)"><path class="background" aria-hidden="true" d="M0,0h0v0h0Z" pointer-events="none"/><g><g class="mark-rule role-axis-tick" pointer-events="none"><line transform="translate(0,0)" x2="0" y2="5" stroke="#888" stroke-width="1" opacity="1"/><line transform="translate(50,0)" x2="0" y2="5" stroke="#888" stroke-width="1" opacity="1"/><line transform="translate(100,0)" x2="0" y2="5" stroke="#888" stroke-width="1" opacity="1"/><line transform="translate(150,0)" x2="0" y2="5" stroke="#888" stroke-width="1" opacity="1"/><line transform="translate(200,0)" x2="0" y2="5" stroke="#888" stroke-width="1" opacity="1"/></g><g class="mark-text role-axis-label" pointer-events="none"><text text-anchor="start" transform="translate(0,15)" font-family="sans-serif" font-size="10px" fill="#000" opacity="1">2016</text><text text-anchor="middle" transform="translate(50.03422313483915,15)" font-family="sans-serif" font-size="10px" fill="#000" opacity="1">2018</text><text text-anchor="middle" transform="translate(100,15)" font-family="sans-serif" font-size="10px" fill="#000" opacity="1">2020</text><text text-anchor="middle" transform="translate(150.03422313483915,15)" font-family="sans-serif" font-size="10px" fill="#000" opacity="1">2022</text><text text-anchor="end" transform="translate(200,15)" font-family="sans-serif" font-size="10px" fill="#000" opacity="1">2024</text></g><g class="mark-rule role-axis-domain" pointer-events="none"><line transform="translate(0,0)" x2="200" y2="0" stroke="#888" stroke-width="1" opacity="1"/></g></g><path class="foreground" aria-hidden="true" d="" pointer-events="none" display="none"/></g></g><g class="mark-group role-axis" role="graphics-symbol" aria-roledescription="axis" aria-label="Y-axis for a linear scale with values from 0 to 140"><g transform="translate(0.5,0.5)"><path class="background" aria-hidden="true" d="M0,0h0v0h0Z" pointer-events="none"/><g><g class="mark-rule role-axis-tick" pointer-events="none"><line transform="translate(0,150)" x2="-5" y2="0" stroke="#888" stroke-opacity="0" stroke-width="1" opacity="1"/><line transform="translate(0,96)" x2="-5" y2="0" stroke="#888" stroke-opacity="0" stroke-width="1" opacity="1"/><line transform="translate(0,43)" x2="-5" y2="0" stroke="#888" stroke-opacity="0" stroke-width="1" opacity="1"/></g><g class="mark-text role-axis-label" pointer-events="none"><text text-anchor="end" transform="translate(-7,153)" font-family="sans-serif" font-size="10px" fill="#000" opacity="1">0</text><text text-anchor="end" transform="translate(-7,99.42857142857142)" font-family="sans-serif" font-size="10px" fill="#000" opacity="1">50</text><text text-anchor="end" transform="translate(-7,45.857142857142854)" font-family="sans-serif" font-size="10px" fill="#000" opacity="1">100</text></g></g><path class="foreground" aria-hidden="true" d="" pointer-events="none" display="none"/></g></g><g class="mark-line role-mark marks" clip-path="url(#clip130)" role="graphics-object" aria-roledescription="line mark container"><path aria-label="day: Jun 03, 2010; avg: 19.7" role="graphics-symbol" aria-roledescription="line mark" d="M-139.496,128.893L-139.428,128.679L-139.359,128.929L-139.291,129L-139.223,129.357L-139.154,129.714L-139.086,129.607L-139.017,129.25L-138.949,130.214L-138.88,130.286L-138.812,129.821L-138.743,129.964L-138.675,130.25L-138.607,130.571L-138.538,130.607L-138.47,130.429L-138.401,130.464L-138.333,130.536L-138.264,130.286L-138.196,130L-138.127,130.107L-138.059,130.357L-137.991,130.607L-137.922,130.464L-137.854,130.5L-137.785,130.143L-137.717,130.036L-137.648,129.857L-137.58,129.821L-137.511,129.964L-137.443,129.75L-137.375,129.214L-137.306,128.429L-137.238,128.321L-137.169,127.964L-137.101,127.821L-137.032,128.214L-136.964,128.571L-136.895,128.214L-136.827,128.179L-136.758,128.25L-136.69,127.893L-136.622,128.107L-136.553,128.071L-136.485,128.643L-136.416,128.786L-136.348,129.036L-136.279,128.786L-136.211,129.071L-136.142,129.286L-136.074,129.857L-136.006,129.607L-135.937,129.643L-135.869,129.464L-135.8,129.536L-135.732,129.75L-135.663,130.071L-135.595,130.25L-135.526,130.107L-135.458,129.964L-135.39,130.286L-135.321,130.143L-135.253,130.214L-135.184,130.143L-135.116,130.25L-135.047,130.536L-134.979,130.214L-134.91,129.857L-134.842,129.607L-134.774,129.643L-134.705,129.643L-134.637,129.893L-134.568,129.536L-134.5,129.607L-134.431,129.036L-134.363,128.571L-134.294,128.714L-134.226,128.857L-134.158,128.964L-134.089,129.036L-134.021,128.429L-133.952,128.321L-133.884,128.143L-133.815,127.857L-133.747,127.679L-133.678,127.857L-133.61,127.143L-133.542,126.857L-133.473,126.929L-133.405,127.036L-133.336,127L-133.268,127.464L-133.199,128L-133.131,128.286L-133.062,128.464L-132.994,127.893L-132.926,127.75L-132.857,128.071L-132.789,128.321L-132.72,128.75L-132.652,128.607L-132.583,128.679L-132.515,128.857L-132.446,128.714L-132.378,128.964L-132.309,129.571L-132.241,129.393L-132.173,129.393L-132.104,129.357L-132.036,129.357L-131.967,129.179L-131.899,129.179L-131.83,129.214L-131.762,129.464L-131.693,129.571L-131.625,129.357L-131.557,129.393L-131.488,129.857L-131.42,129.964L-131.351,130.143L-131.283,130.179L-131.214,130.107L-131.146,130.036L-131.077,130L-131.009,130L-130.941,130.286L-130.872,130.571L-130.804,130.607L-130.735,130.786L-130.667,130.607L-130.598,130.679L-130.53,130.321L-130.461,130.679L-130.393,130.714L-130.325,130.857L-130.256,130.607L-130.188,130.321L-130.119,130.036L-130.051,130L-129.982,130.036L-129.914,130.357L-129.845,130.571L-129.777,130.464L-129.709,130.429L-129.64,130.464L-129.572,130.714L-129.503,131.571L-129.435,131.321L-129.366,131.429L-129.298,131.357L-129.229,130.893L-129.161,131.036L-129.093,130.786L-129.024,130.571L-128.956,130.393L-128.887,129.821L-128.819,129.857L-128.75,129.714L-128.679,129.643L-128.611,129.571L-128.542,129.75L-128.474,129.964L-128.405,129.786L-128.337,129.857L-128.268,129.643L-128.2,129.929L-128.131,130.107L-128.063,130.179L-127.995,130.107L-127.926,130.429L-127.858,130.571L-127.789,130.607L-127.721,130.714L-127.652,130.786L-127.584,130.429L-127.515,130.571L-127.447,130.607L-127.379,130.857L-127.31,131.321L-127.242,131.857L-127.173,132.607L-127.105,132.786L-127.036,133.286L-126.968,133.679L-126.899,134.107L-126.831,134.893L-126.762,134.964L-126.694,135.036L-126.626,135.179L-126.557,135.25L-126.489,135.5L-126.42,135.571L-126.352,135.857L-126.283,135.643L-126.215,136.179L-126.146,135.857L-126.078,135.786L-126.01,135.857L-125.941,135.929L-125.873,135.857L-125.804,135.893L-125.736,135.679L-125.667,136L-125.599,136.464L-125.53,137.286L-125.462,137.357L-125.394,137.143L-125.325,136.786L-125.257,136.464L-125.188,136.107L-125.12,135.75L-125.051,135.643L-124.983,135.214L-124.914,134.893L-124.846,134.857L-124.778,134.929L-124.709,135L-124.641,134.75L-124.572,134.75L-124.504,134.571L-124.435,134.5L-124.367,134.536L-124.298,133.929L-124.23,134.286L-124.162,134.071L-124.093,134.143L-124.025,134.321L-123.956,134.5L-123.888,134.5L-123.819,134.286L-123.751,134.071L-123.682,134.286L-123.614,134.179L-123.546,133.893L-123.477,133.643L-123.409,133.286L-123.34,133L-123.272,133.214L-123.203,133.107L-123.135,132.75L-123.066,132.857L-122.998,132.786L-122.93,132.857L-122.861,132.5L-122.793,132.357L-122.724,131.964L-122.656,132.036L-122.587,132.393L-122.519,132.179L-122.45,132.214L-122.382,132.143L-122.313,132.179L-122.245,132.75L-122.177,132.571L-122.108,132.536L-122.04,132.464L-121.971,132.286L-121.903,132.143L-121.834,132.321L-121.766,132.036L-121.697,132.107L-121.629,132.036L-121.561,132.143L-121.492,131.929L-121.424,131.821L-121.355,131.821L-121.287,131.821L-121.218,131.857L-121.15,131.786L-121.081,132.036L-121.013,132.143L-120.945,132.179L-120.876,132.143L-120.808,132.536L-120.739,132.393L-120.671,132.357L-120.602,132.214L-120.534,132.143L-120.465,132.107L-120.397,132.143L-120.329,132.143L-120.26,132.286L-120.192,131.857L-120.123,132.179L-120.058,132.107L-119.989,131.964L-119.921,132.143L-119.852,132.214L-119.784,132.143L-119.715,132.429L-119.647,132.679L-119.578,132.679L-119.51,132.714L-119.442,132.893L-119.373,132.679L-119.305,132.5L-119.236,132.857L-119.168,132.75L-119.099,132.607L-119.031,132.607L-118.962,132.393L-118.894,132.036L-118.826,131.929L-118.757,131.893L-118.689,131.857L-118.62,132.071L-118.552,131.714L-118.483,131.286L-118.415,131.464L-118.346,130.786L-118.278,130.786L-118.21,130.179L-118.141,130.357L-118.073,129.857L-118.004,129.786L-117.936,129.714L-117.867,129.714L-117.799,129.714L-117.73,129.214L-117.662,129L-117.594,128.893L-117.525,128.929L-117.457,128.143L-117.388,128.321L-117.32,128.571L-117.251,128.143L-117.183,128L-117.114,128.071L-117.046,128.143L-116.978,128.036L-116.909,127.964L-116.841,128.036L-116.772,128.464L-116.704,127.929L-116.635,127.714L-116.567,127.429L-116.498,127.5L-116.43,127.786L-116.362,127.75L-116.293,128.036L-116.225,127.857L-116.156,128.393L-116.088,128.464L-116.019,128.821L-115.951,128.857L-115.882,129.214L-115.814,128.857L-115.745,128.714L-115.677,128.893L-115.609,129L-115.54,128.786L-115.472,128.607L-115.403,129.107L-115.335,128.75L-115.266,128.464L-115.198,129L-115.129,128.786L-115.061,128.75L-114.993,128.821L-114.924,128.643L-114.856,128.571L-114.787,128.643L-114.719,128.286L-114.65,128.464L-114.582,128.464L-114.513,128.786L-114.445,129.143L-114.377,129.464L-114.308,128.964L-114.24,129.536L-114.171,129.464L-114.103,129.321L-114.034,129.107L-113.966,129.071L-113.897,128.964L-113.829,128.357L-113.761,128.536L-113.692,128.536L-113.624,128.607L-113.555,128.786L-113.487,128.929L-113.418,129.071L-113.35,128.714L-113.281,128.821L-113.213,128.929L-113.145,129.214L-113.076,129.321L-113.008,129.286L-112.939,129.143L-112.871,129.429L-112.802,129.286L-112.734,129.214L-112.665,129.286L-112.597,129.75L-112.529,129.821L-112.46,129.5L-112.392,129.25L-112.323,128.857L-112.255,129.321L-112.186,128.929L-112.118,129.107L-112.049,129.071L-111.981,128.857L-111.913,128.821L-111.844,128.821L-111.776,129.286L-111.707,129.5L-111.639,129.786L-111.57,130.143L-111.502,130.143L-111.433,130.071L-111.365,130.214L-111.296,130.679L-111.228,130.786L-111.16,130.964L-111.091,130.429L-111.023,130.321L-110.954,130.75L-110.886,130.679L-110.817,130.893L-110.749,131.536L-110.68,132.25L-110.612,132.786L-110.544,132.964L-110.475,133.286L-110.407,133.786L-110.338,134.214L-110.27,134.571L-110.201,134.75L-110.133,134.964L-110.064,134.893L-109.996,134.964L-109.928,135.286L-109.859,135.107L-109.791,135.143L-109.722,134.964L-109.654,134.714L-109.585,134.321L-109.517,134.25L-109.448,134.071L-109.38,134.286L-109.312,134.179L-109.243,134.214L-109.175,133.964L-109.106,134.071L-109.038,134.25L-108.969,134.321L-108.901,134.071L-108.832,134.357L-108.764,134.036L-108.696,133.571L-108.627,133.143L-108.559,132.393L-108.49,132.214L-108.422,131.964L-108.353,131.857L-108.285,131.607L-108.216,131.357L-108.148,131.357L-108.08,131.107L-108.011,131.286L-107.943,131.071L-107.874,131.179L-107.806,131.143L-107.737,130.893L-107.669,131.179L-107.6,131.214L-107.532,131.536L-107.463,131.893L-107.395,132.036L-107.327,131.929L-107.258,131.964L-107.19,131.964L-107.121,132.071L-107.053,132.107L-106.984,132.429L-106.916,132.5L-106.847,132.643L-106.779,132.464L-106.711,132.607L-106.642,132.571L-106.574,132.607L-106.505,132.643L-106.437,132.679L-106.368,133.321L-106.3,133.5L-106.231,133.464L-106.163,133.393L-106.095,133.179L-106.026,133.286L-105.958,133.393L-105.889,133.714L-105.821,133.679L-105.752,133.893L-105.684,134.179L-105.615,134.286L-105.547,134.571L-105.479,134.286L-105.41,133.75L-105.342,133.75L-105.273,134.179L-105.205,134.179L-105.136,134.143L-105.068,134.036L-104.999,134.107L-104.931,134.214L-104.863,134.071L-104.794,133.643L-104.726,133.571L-104.657,133.464L-104.589,134.036L-104.52,134L-104.452,134.286L-104.383,134.357L-104.315,133.857L-104.247,133.393L-104.178,133.571L-104.11,133.75L-104.041,133.679L-103.973,134.071L-103.904,133.786L-103.836,133.464L-103.765,133.321L-103.696,133.357L-103.628,133.429L-103.559,133.393L-103.491,133.25L-103.422,133.464L-103.354,133.357L-103.285,133.714L-103.217,133.464L-103.149,133.429L-103.08,133.464L-103.012,134.071L-102.943,134.214L-102.875,134.107L-102.806,134.714L-102.738,134.857L-102.669,135.071L-102.601,135.393L-102.533,135.286L-102.464,135.5L-102.396,135.464L-102.327,135.536L-102.259,135.75L-102.19,136.179L-102.122,136.286L-102.053,136.679L-101.985,137.214L-101.916,137.143L-101.848,137.25L-101.78,137.393L-101.711,137.429L-101.643,137.607L-101.574,137.857L-101.506,137.929L-101.437,137.929L-101.369,138L-101.3,138.107L-101.232,137.679L-101.164,137.893L-101.095,138.179L-101.027,138.214L-100.958,137.821L-100.89,137.286L-100.821,137.464L-100.753,137L-100.684,137.393L-100.616,137.714L-100.548,137.5L-100.479,137L-100.411,136.393L-100.342,136.464L-100.274,136.464L-100.205,136.143L-100.137,135.821L-100.068,135.607L-100,135.179L-99.932,134.75L-99.863,134.571L-99.795,134.643L-99.726,134.714L-99.658,134.857L-99.589,134.786L-99.521,134.714L-99.452,134.5L-99.384,134.393L-99.316,134.5L-99.247,134.571L-99.179,134.893L-99.11,134.964L-99.042,134.929L-98.973,134.786L-98.905,134.714L-98.836,135L-98.768,134.893L-98.7,135.179L-98.631,135.036L-98.563,135L-98.494,135.107L-98.426,135.25L-98.357,135.679L-98.289,135.929L-98.22,135.929L-98.152,136.036L-98.084,135.857L-98.015,135.821L-97.947,135.857L-97.878,136.036L-97.81,136.286L-97.741,136.357L-97.673,136.429L-97.604,136.607L-97.536,136.607L-97.467,136.893L-97.399,137.071L-97.331,137.179L-97.262,137.286L-97.194,137.429L-97.125,136.857L-97.057,136.357L-96.988,136.107L-96.92,136.179L-96.851,136.357L-96.783,136.107L-96.715,135.893L-96.646,135.786L-96.578,136.036L-96.509,135.571L-96.441,135.643L-96.372,135.714L-96.304,135.893L-96.235,135.643L-96.167,135.607L-96.099,135.536L-96.03,135.821L-95.962,135.75L-95.893,135.571L-95.825,135.357L-95.756,135.214L-95.688,135.143L-95.619,134.857L-95.551,134.821L-95.483,134.929L-95.414,134.679L-95.346,134.643L-95.277,134.857L-95.209,134.679L-95.143,134.25L-95.075,134.429L-95.006,134.75L-94.938,134.893L-94.869,134.821L-94.801,134.607L-94.732,134.429L-94.664,134.357L-94.596,134.393L-94.527,134.107L-94.459,134.393L-94.39,134.071L-94.322,134L-94.253,133.679L-94.185,133.393L-94.116,133.143L-94.048,133.143L-93.98,133.357L-93.911,133.571L-93.843,133.5L-93.774,133.571L-93.706,133.5L-93.637,133.25L-93.569,133.321L-93.5,133.071L-93.432,133L-93.364,132.607L-93.295,132.571L-93.227,132.25L-93.158,132.357L-93.09,132.714L-93.021,132.857L-92.953,132.536L-92.884,132.357L-92.816,132.321L-92.748,132.5L-92.679,132.607L-92.611,132.964L-92.542,132.714L-92.474,132.821L-92.405,132.714L-92.337,132.679L-92.268,132.571L-92.2,132.679L-92.132,132.536L-92.063,132.607L-91.995,132.607L-91.926,132.321L-91.858,132.179L-91.789,132.071L-91.721,132.214L-91.652,132.143L-91.584,132.321L-91.516,132.5L-91.447,132.643L-91.379,132.321L-91.31,132.607L-91.242,132.393L-91.173,132.75L-91.105,132.536L-91.036,132.607L-90.968,132.679L-90.899,133L-90.831,133.179L-90.763,133.179L-90.694,133.357L-90.626,133.429L-90.557,133.143L-90.489,133.143L-90.42,132.786L-90.352,132.357L-90.283,132.393L-90.215,132.607L-90.147,132.286L-90.078,132.393L-90.01,132.357L-89.941,132.214L-89.873,131.857L-89.804,131.964L-89.736,132.143L-89.667,131.964L-89.599,131.964L-89.531,132.179L-89.462,131.893L-89.394,131.321L-89.325,131.643L-89.257,131.679L-89.188,132.179L-89.12,131.929L-89.051,132.179L-88.983,132.036L-88.915,131.893L-88.846,131.714L-88.778,131.429L-88.709,131.321L-88.641,131.143L-88.572,131.179L-88.504,131.321L-88.435,131.107L-88.367,131.143L-88.299,131.25L-88.23,131.393L-88.162,131.036L-88.093,131.25L-88.025,131.393L-87.956,131.429L-87.888,131.679L-87.819,132.357L-87.751,132.214L-87.683,132.571L-87.614,132.536L-87.546,132.393L-87.477,132.071L-87.409,132.107L-87.34,132.643L-87.272,132.5L-87.203,132.393L-87.135,132.143L-87.067,132.25L-86.998,131.75L-86.93,131.571L-86.861,131.643L-86.793,131.429L-86.724,131.75L-86.656,131.786L-86.587,131.607L-86.519,131.393L-86.45,131.214L-86.382,131.429L-86.314,131.536L-86.245,131.857L-86.177,132.071L-86.108,132.214L-86.04,131.821L-85.971,131.821L-85.903,131.929L-85.834,131.929L-85.766,131.464L-85.698,131.429L-85.629,131.25L-85.561,131.357L-85.492,131.393L-85.424,131.536L-85.355,131.714L-85.287,131.286L-85.218,131.107L-85.15,131.071L-85.082,130.5L-85.013,130.321L-84.945,130.571L-84.876,130.571L-84.808,130.357L-84.739,130.321L-84.671,129.714L-84.602,129.429L-84.534,129.357L-84.466,129.607L-84.397,129.5L-84.329,129.143L-84.26,129.036L-84.192,129L-84.123,128.536L-84.055,128.679L-83.986,129.25L-83.918,129.357L-83.85,129.357L-83.781,129.607L-83.713,129.75L-83.644,129.571L-83.576,129.429L-83.507,129.214L-83.439,129.214L-83.37,129.143L-83.302,128.964L-83.234,129.286L-83.165,129.571L-83.097,129.5L-83.028,130.107L-82.96,130.143L-82.891,130.25L-82.823,130.393L-82.754,130.393L-82.686,130.929L-82.617,131.25L-82.549,131.464L-82.481,131.929L-82.412,132.071L-82.344,132.536L-82.275,132.429L-82.207,132.5L-82.138,132.679L-82.07,132.857L-82.001,132.964L-81.933,132.607L-81.865,132.607L-81.796,132.464L-81.728,132.036L-81.659,132.107L-81.591,132.107L-81.522,132.107L-81.454,132.286L-81.385,132.786L-81.317,133.393L-81.249,134.071L-81.18,134.429L-81.112,134.75L-81.043,135.286L-80.975,135.607L-80.906,136.143L-80.838,136.429L-80.769,136.786L-80.701,137.321L-80.633,137.286L-80.564,137.571L-80.496,138L-80.427,137.964L-80.359,138.143L-80.29,138.036L-80.222,138.786L-80.153,138.929L-80.085,138.821L-80.017,138.607L-79.948,138.393L-79.88,138.75L-79.811,139L-79.743,139L-79.674,139.143L-79.606,139.25L-79.537,139.464L-79.469,139.786L-79.401,139.786L-79.195,139.357L-79.127,139.107L-79.058,138.464L-78.99,138.321L-78.921,137.679L-78.85,137.036L-78.782,136.607L-78.713,136L-78.645,135.786L-78.576,135.464L-78.508,135.143L-78.439,135L-78.371,134.821L-78.303,134.5L-78.234,134.393L-78.166,134.357L-78.097,134.536L-78.029,134.286L-77.96,134.25L-77.892,134.393L-77.823,134.571L-77.755,134.607L-77.687,134.357L-77.618,134.25L-77.55,134.429L-77.481,134.357L-77.413,134.607L-77.344,134.75L-77.276,134.607L-77.207,134.5L-77.139,134.536L-77.07,134L-77.002,134.286L-76.934,134.393L-76.865,134.607L-76.797,134.643L-76.728,134.857L-76.66,135.036L-76.591,134.964L-76.523,135.143L-76.454,135.25L-76.386,135.214L-76.318,135.036L-76.249,135.107L-76.181,134.929L-76.112,134.429L-76.044,133.929L-75.975,133.75L-75.907,133.464L-75.838,133.571L-75.77,133.536L-75.702,133.464L-75.633,133.714L-75.565,133.393L-75.496,133L-75.428,133.143L-75.359,132.607L-75.291,132.464L-75.222,132.536L-75.154,132.607L-75.086,132.75L-75.017,132.964L-74.949,132.893L-74.88,132.5L-74.812,132.571L-74.743,132.786L-74.675,132.714L-74.606,132.75L-74.538,132.75L-74.47,132.464L-74.401,132.393L-74.333,132.25L-74.264,132.607L-74.196,132.607L-74.127,132.536L-74.059,132.821L-73.99,132.75L-73.922,132.679L-73.854,132.821L-73.785,132.571L-73.717,132.643L-73.648,132.964L-73.58,132.536L-73.511,132.536L-73.443,132.679L-73.374,132.214L-73.306,132.5L-73.238,132.571L-73.169,131.857L-73.101,131.714L-73.032,131.714L-72.964,131.679L-72.895,131.571L-72.827,131.571L-72.758,131.25L-72.69,131.143L-72.621,130.464L-72.553,129.857L-72.485,129.393L-72.416,129.571L-72.348,129.429L-72.279,129.286L-72.211,129.071L-72.142,129.143L-72.074,128.893L-72.005,128.821L-71.937,129.071L-71.869,129.321L-71.8,129.214L-71.732,129.036L-71.663,129.036L-71.595,128.679L-71.526,129.036L-71.458,129.179L-71.389,129.429L-71.321,129.893L-71.253,129.536L-71.184,129.643L-71.116,130.25L-71.047,130.321L-70.979,130.286L-70.91,130.179L-70.842,130.107L-70.773,130.071L-70.705,130.071L-70.637,130.071L-70.568,130.393L-70.5,130.75L-70.431,130.821L-70.363,130.821L-70.294,130.786L-70.229,131.071L-70.16,131L-70.092,130.607L-70.023,130.857L-69.955,130.607L-69.886,130.357L-69.818,130.143L-69.75,129.964L-69.681,129.786L-69.613,129.179L-69.544,129.143L-69.476,128.75L-69.407,127.929L-69.339,127.75L-69.27,127.714L-69.202,127.536L-69.134,126.893L-69.065,126.607L-68.997,126.679L-68.928,126.107L-68.86,125.893L-68.791,125.536L-68.723,125.536L-68.654,125.357L-68.586,125L-68.518,124.929L-68.449,124.714L-68.381,124.643L-68.312,124.357L-68.244,124.179L-68.175,123.643L-68.107,123.464L-68.038,123.321L-67.97,123.286L-67.902,123.571L-67.833,123.75L-67.765,123.786L-67.696,123.607L-67.628,123.821L-67.559,124.286L-67.491,124.214L-67.422,124.107L-67.354,124.464L-67.286,124.321L-67.217,124.214L-67.149,124.286L-67.08,124.679L-67.012,124.893L-66.943,124.893L-66.875,125.286L-66.806,125.429L-66.738,125.607L-66.67,125.5L-66.601,125.857L-66.533,125.536L-66.464,125.5L-66.396,125.714L-66.327,125.571L-66.259,125.643L-66.19,125.75L-66.122,126.286L-66.054,125.821L-65.985,126.179L-65.917,126.071L-65.848,125.679L-65.78,125.607L-65.711,125.286L-65.643,125.286L-65.574,125.143L-65.506,125.179L-65.437,124.821L-65.369,124.964L-65.301,125.071L-65.232,125.179L-65.164,125.25L-65.095,124.821L-65.027,124.786L-64.958,124L-64.89,123.643L-64.821,123.321L-64.753,123.357L-64.685,123.286L-64.616,123.036L-64.548,122.464L-64.479,122.786L-64.411,122.964L-64.342,123.179L-64.274,123.464L-64.205,123.321L-64.137,123.286L-64.069,122.893L-64,123.143L-63.932,123.321L-63.863,123.036L-63.795,123.357L-63.726,123.25L-63.658,123.607L-63.589,124.071L-63.521,123.75L-63.453,123.643L-63.384,123.821L-63.316,123.964L-63.247,124.321L-63.179,124.036L-63.11,123.75L-63.042,124.179L-62.973,124.036L-62.905,124.679L-62.837,124.714L-62.768,124.893L-62.7,124.893L-62.631,125L-62.563,124.571L-62.494,124.464L-62.426,124.857L-62.357,124.714L-62.289,124.143L-62.221,124.107L-62.152,123.857L-62.084,123.536L-62.015,123.429L-61.947,123.821L-61.878,123.464L-61.81,123.929L-61.741,123.321L-61.673,123.071L-61.604,122.75L-61.536,122.464L-61.468,122.821L-61.399,122.5L-61.331,122.964L-61.262,122.607L-61.194,122.214L-61.125,122.036L-61.057,121.893L-60.988,121.786L-60.92,121.857L-60.852,121.571L-60.783,121.714L-60.715,121.571L-60.646,121.464L-60.578,121.536L-60.509,122L-60.441,122.429L-60.372,122.321L-60.304,122.357L-60.236,122.75L-60.167,122.714L-60.099,122.821L-60.03,122.929L-59.962,122.714L-59.893,122.429L-59.825,122.429L-59.756,121.821L-59.688,121.964L-59.62,121.821L-59.551,121.714L-59.483,121.571L-59.414,121.464L-59.346,121.679L-59.277,121.25L-59.209,121.464L-59.14,121.393L-59.072,121.893L-59.004,122.071L-58.935,122.143L-58.867,121.857L-58.798,122L-58.73,121.786L-58.661,122.036L-58.593,122.036L-58.524,121.893L-58.456,122.107L-58.388,122.107L-58.319,121.857L-58.251,121.75L-58.182,121.357L-58.114,121.536L-58.045,122L-57.977,121.929L-57.908,122.5L-57.84,122.75L-57.772,123.071L-57.703,123.679L-57.635,124.25L-57.566,124.714L-57.498,125.393L-57.429,126.071L-57.361,126.393L-57.292,126.214L-57.224,126.536L-57.155,126.464L-57.087,126.821L-57.019,126.75L-56.95,126.679L-56.882,126.75L-56.813,127L-56.745,126.786L-56.676,127.214L-56.608,127.107L-56.539,127.214L-56.471,127.071L-56.403,127.214L-56.334,127.25L-56.266,127.143L-56.197,127.214L-56.129,127.607L-56.06,127.857L-55.992,127.536L-55.923,127.786L-55.855,127.679L-55.787,127.25L-55.718,126.75L-55.65,126.857L-55.581,126.536L-55.513,126.786L-55.444,126.643L-55.376,126.286L-55.307,125.857L-55.239,126.107L-55.171,125.821L-55.102,125.929L-55.034,125.964L-54.965,125.571L-54.897,125.25L-54.828,125.25L-54.76,124.714L-54.691,125.036L-54.623,124.929L-54.555,125.036L-54.486,125.286L-54.418,126L-54.349,126.25L-54.281,126.75L-54.212,127.214L-54.144,127.679L-54.075,127.857L-54.007,127.607L-53.936,127.536L-53.867,127.786L-53.799,128L-53.73,128.286L-53.662,128.679L-53.593,128.429L-53.525,128.321L-53.457,128.179L-53.388,128.214L-53.32,128.536L-53.251,128.786L-53.183,129.25L-53.114,129.536L-53.046,129.571L-52.977,129.464L-52.909,130L-52.841,130.679L-52.772,130.75L-52.704,131.571L-52.635,131.643L-52.567,131.643L-52.498,131.679L-52.43,131.857L-52.361,131.286L-52.293,130.857L-52.225,130.357L-52.156,129.964L-52.088,129.714L-52.019,129.25L-51.951,129.607L-51.882,129.786L-51.814,130.143L-51.745,130.286L-51.677,130.536L-51.608,130.393L-51.54,130.571L-51.472,130.679L-51.403,130.5L-51.335,130.571L-51.266,130.071L-51.198,129.857L-51.129,129.5L-51.061,129.393L-50.992,129.464L-50.924,129.536L-50.856,129.393L-50.787,129.107L-50.719,129.179L-50.65,128.464L-50.582,128.679L-50.513,128.964L-50.445,128.786L-50.376,128.464L-50.308,128.5L-50.24,128.929L-50.171,128.857L-50.103,128.893L-50.034,128.607L-49.966,128.571L-49.897,127.964L-49.829,127.393L-49.76,126.429L-49.692,126.107L-49.624,125.929L-49.555,125.821L-49.487,125.821L-49.418,125.286L-49.35,125.179L-49.281,124.893L-49.213,125.036L-49.144,125.179L-49.076,124.821L-49.008,125.214L-48.939,125.429L-48.871,125.464L-48.802,125.536L-48.734,125.571L-48.665,125.679L-48.597,126L-48.528,126.036L-48.46,124.929L-48.392,124.964L-48.323,124.286L-48.255,124.071L-48.186,123.679L-48.118,123.321L-48.049,123.571L-47.981,123.643L-47.912,124.107L-47.844,123.75L-47.775,124.357L-47.707,125.036L-47.639,124.964L-47.57,125L-47.502,125.179L-47.433,125.143L-47.365,125.071L-47.296,124.964L-47.228,124.5L-47.159,124.286L-47.091,124.25L-47.023,124.5L-46.954,124.071L-46.886,123.25L-46.817,123.107L-46.749,122.607L-46.68,122.679L-46.612,122.214L-46.543,121.679L-46.475,121.071L-46.407,121.536L-46.338,121.036L-46.27,121.071L-46.201,120.929L-46.133,120.321L-46.064,120.607L-45.996,120.179L-45.927,119.75L-45.859,119.143L-45.791,119.786L-45.722,119.536L-45.654,119.464L-45.585,119.393L-45.517,119.179L-45.448,118.714L-45.38,118.571L-45.314,119.036L-45.246,118.964L-45.177,119.036L-45.109,119.107L-45.04,118.929L-44.972,118.964L-44.904,118.714L-44.835,119.179L-44.767,119.143L-44.698,119.607L-44.63,119.643L-44.561,120L-44.493,120.571L-44.424,120.679L-44.356,120.286L-44.288,120.429L-44.219,120.643L-44.151,121.071L-44.082,121.286L-44.014,120.679L-43.945,120.679L-43.877,120.893L-43.808,121.643L-43.74,121.393L-43.672,120.821L-43.603,120.321L-43.535,119.929L-43.466,120.071L-43.398,120.393L-43.329,120.357L-43.261,120.214L-43.192,119.75L-43.124,119.5L-43.056,119.393L-42.987,118.964L-42.919,118.643L-42.85,118.607L-42.782,118.429L-42.713,117.893L-42.645,117.536L-42.576,117.571L-42.508,116.857L-42.44,116.25L-42.371,116.321L-42.303,116.143L-42.234,116.25L-42.166,116.5L-42.097,115.964L-42.029,115.714L-41.96,115.786L-41.892,116.143L-41.824,116.179L-41.755,115.5L-41.687,115.429L-41.618,116.107L-41.55,116.143L-41.481,116.643L-41.413,116.143L-41.344,115.893L-41.276,115.75L-41.208,115.571L-41.139,116.071L-41.071,116.464L-41.002,116.286L-40.934,116.571L-40.865,116.25L-40.797,116.25L-40.728,116.357L-40.66,116.429L-40.591,116.214L-40.523,115.679L-40.455,116.143L-40.386,116.464L-40.318,116.286L-40.249,116.607L-40.181,116.5L-40.112,115.643L-40.044,115.536L-39.975,116.179L-39.907,116.143L-39.839,115.857L-39.77,115.786L-39.702,115.964L-39.633,115.821L-39.565,115.393L-39.496,115.321L-39.428,115.071L-39.359,115.607L-39.291,115.571L-39.223,115.25L-39.154,115.321L-39.086,115.143L-39.017,115.071L-38.949,114.607L-38.88,114.679L-38.812,115.321L-38.743,114.929L-38.675,115.036L-38.607,115.179L-38.538,115.214L-38.47,115.321L-38.401,115.143L-38.333,115.036L-38.264,114.929L-38.196,114.75L-38.127,114.536L-38.059,115.143L-37.991,115.643L-37.922,115.214L-37.854,115.643L-37.785,115.786L-37.717,115.429L-37.648,115.464L-37.58,115.464L-37.511,115.893L-37.443,115.75L-37.375,115.821L-37.306,115.607L-37.238,115.679L-37.169,115.25L-37.101,115.714L-37.032,116.179L-36.964,116.321L-36.895,116.821L-36.827,116.714L-36.758,116.214L-36.69,116.75L-36.622,116.536L-36.553,116.143L-36.485,116.036L-36.416,116.071L-36.348,116.321L-36.279,116.607L-36.211,116.643L-36.142,116.821L-36.074,117.286L-36.006,117.5L-35.937,117.393L-35.869,117.607L-35.8,117.393L-35.732,117.393L-35.663,117.607L-35.595,117.5L-35.526,117.893L-35.458,118L-35.39,118.25L-35.321,117.857L-35.253,117.429L-35.184,117.25L-35.116,117.786L-35.047,117.536L-34.979,116.929L-34.91,116.607L-34.842,116.179L-34.774,116.143L-34.705,116.214L-34.637,115.607L-34.568,115.214L-34.5,115.321L-34.431,115.25L-34.363,114.857L-34.294,114.536L-34.226,114.643L-34.158,114.286L-34.089,114.786L-34.021,114.786L-33.952,114.571L-33.884,114.286L-33.815,113.607L-33.747,113.607L-33.678,113.393L-33.61,113.429L-33.542,113.143L-33.473,112.571L-33.405,112.286L-33.336,112L-33.268,111.857L-33.199,112.25L-33.131,112.357L-33.062,112.036L-32.994,111.714L-32.926,112.036L-32.857,112.143L-32.789,112.857L-32.72,113.393L-32.652,113.893L-32.583,114.893L-32.515,115.321L-32.446,115.393L-32.378,115.393L-32.309,116.179L-32.241,116.5L-32.173,116.429L-32.104,116.786L-32.036,116.75L-31.967,116.357L-31.899,116.75L-31.83,117.107L-31.762,117.893L-31.693,117.964L-31.625,117.536L-31.557,117.75L-31.488,117.679L-31.42,117.25L-31.351,116.786L-31.283,116.786L-31.214,117.179L-31.146,117.393L-31.077,117.607L-31.009,118.321L-30.941,118.25L-30.872,117.857L-30.804,117.929L-30.735,118.107L-30.667,117.321L-30.598,116.536L-30.53,115.786L-30.461,115.536L-30.393,115.964L-30.325,116.25L-30.256,115.714L-30.188,115.643L-30.119,115.536L-30.051,115.714L-29.982,115.679L-29.914,116L-29.845,115.679L-29.777,115.464L-29.709,115.107L-29.64,115.179L-29.572,115.179L-29.503,115.107L-29.435,115.321L-29.366,116.321L-29.298,116.857L-29.229,117.357L-29.161,116.964L-29.093,116.429L-29.021,116.536L-28.953,115.893L-28.884,116L-28.816,116.607L-28.747,117.036L-28.679,116.5L-28.611,117.107L-28.542,117.393L-28.474,117.429L-28.405,117.5L-28.337,117.5L-28.268,117L-28.2,116.714L-28.131,116.357L-28.063,116.429L-27.995,116.536L-27.926,116.036L-27.858,115.75L-27.789,115.75L-27.721,115.786L-27.652,116L-27.584,116.107L-27.515,116.821L-27.447,117.107L-27.379,117.643L-27.31,117.643L-27.242,117.607L-27.173,117.357L-27.105,118L-27.036,118.893L-26.968,118.964L-26.899,119.393L-26.831,119.643L-26.762,118.893L-26.694,118.321L-26.626,118.964L-26.557,119.071L-26.489,119.179L-26.42,119.857L-26.352,119.893L-26.283,119.714L-26.215,119.679L-26.146,119.893L-26.078,120.429L-26.01,120.25L-25.941,120.25L-25.873,120.893L-25.804,121.143L-25.736,121.393L-25.667,121.179L-25.599,120.964L-25.53,120.786L-25.462,120.5L-25.394,120.107L-25.325,119.536L-25.257,119.643L-25.188,120.214L-25.12,120.464L-25.051,120.321L-24.983,119.393L-24.914,119.143L-24.846,118.964L-24.778,119.107L-24.709,119.5L-24.641,119.5L-24.572,118.929L-24.504,118.679L-24.435,118.786L-24.367,117.607L-24.298,117.429L-24.23,117.036L-24.162,118L-24.093,118.429L-24.025,118.25L-23.956,118.536L-23.888,118.5L-23.819,118.321L-23.751,118.5L-23.682,118.357L-23.614,118.5L-23.546,118.786L-23.477,118.571L-23.409,118.607L-23.34,118.143L-23.272,118.071L-23.203,117.393L-23.135,116.179L-23.066,115.25L-22.998,114.714L-22.93,114.393L-22.861,114.286L-22.793,114.5L-22.724,113.964L-22.656,114.571L-22.587,114.643L-22.519,114.929L-22.45,114.286L-22.382,113.929L-22.313,114.571L-22.245,114.5L-22.177,114.5L-22.108,113.893L-22.04,113.429L-21.971,113.107L-21.903,112.321L-21.834,111.821L-21.766,111.321L-21.697,110.964L-21.629,110.714L-21.561,110.679L-21.492,110.357L-21.424,110.429L-21.355,109.929L-21.287,110.321L-21.218,110.071L-21.15,110.643L-21.081,111L-21.013,111.071L-20.945,111.071L-20.876,111.393L-20.808,110.679L-20.739,110.429L-20.671,110.821L-20.602,109.821L-20.534,109.893L-20.465,109.464L-20.4,109.679L-20.331,110.214L-20.263,110.25L-20.195,110.464L-20.126,110.786L-20.058,111L-19.989,110.786L-19.921,110.464L-19.852,110.571L-19.784,110.643L-19.715,110.429L-19.647,110.321L-19.578,110.143L-19.51,109.643L-19.442,109.357L-19.373,108.893L-19.305,108.643L-19.236,108.25L-19.168,108.607L-19.099,107.286L-19.031,107.071L-18.962,106.679L-18.894,106.857L-18.826,106.607L-18.757,107.286L-18.689,106.607L-18.62,105.786L-18.552,105.464L-18.483,104.464L-18.415,103.679L-18.346,103.643L-18.278,103.214L-18.21,102.893L-18.141,102.036L-18.073,101.429L-18.004,100.679L-17.936,100.714L-17.867,100.929L-17.799,101.321L-17.73,101.179L-17.662,101.179L-17.594,100.964L-17.525,100.786L-17.457,101.179L-17.388,101.5L-17.32,101.964L-17.251,102.357L-17.183,102.429L-17.114,102.107L-17.046,102.714L-16.978,102.214L-16.909,103L-16.841,102.821L-16.772,102.893L-16.704,102.536L-16.635,102.893L-16.567,103.286L-16.498,103.25L-16.43,104L-16.362,104.679L-16.293,105.321L-16.225,104.714L-16.156,104.786L-16.088,104.893L-16.019,104.714L-15.951,104.857L-15.882,104.857L-15.814,104.786L-15.745,104.679L-15.677,104.679L-15.609,104.643L-15.54,104.893L-15.472,104.25L-15.403,103.964L-15.335,103.393L-15.266,102.821L-15.198,102.25L-15.129,102.464L-15.061,101.714L-14.993,101.357L-14.924,101.643L-14.856,101.571L-14.787,101.179L-14.719,101.107L-14.65,100.75L-14.582,100.179L-14.513,100.286L-14.445,101.143L-14.377,101.179L-14.308,101.107L-14.24,100.429L-14.171,100.607L-14.103,100.036L-14.034,100.357L-13.966,100.607L-13.897,100.607L-13.829,99.964L-13.761,99.286L-13.692,99.036L-13.624,98.571L-13.555,98.679L-13.487,98.536L-13.418,99.143L-13.35,99.25L-13.281,99.643L-13.213,99.679L-13.145,100.25L-13.076,100.214L-13.008,101L-12.939,101.571L-12.871,101.857L-12.802,101.643L-12.734,101.929L-12.665,102.036L-12.597,102.393L-12.529,103.179L-12.46,103.179L-12.392,102.5L-12.323,102.036L-12.255,101.857L-12.186,101.893L-12.118,101.893L-12.049,102.179L-11.981,101.571L-11.913,101.571L-11.844,100.75L-11.776,100.964L-11.707,101.5L-11.639,100.893L-11.57,101.357L-11.502,101.75L-11.433,101.786L-11.365,101.893L-11.296,101.714L-11.228,101.75L-11.16,102.321L-11.091,101.929L-11.023,102.179L-10.954,102.036L-10.886,101.714L-10.817,101.536L-10.749,101.679L-10.68,101.714L-10.612,101.857L-10.544,101.857L-10.475,101.821L-10.407,101.714L-10.338,101.857L-10.27,102.321L-10.201,102.25L-10.133,102.143L-10.064,102L-9.996,102.179L-9.928,102.607L-9.859,102.286L-9.791,102.857L-9.722,102.75L-9.654,102.607L-9.585,102.929L-9.517,102.286L-9.448,101.179L-9.38,100.964L-9.312,100.679L-9.243,100.964L-9.175,100.714L-9.106,100.429L-9.038,100.5L-8.969,100.143L-8.901,99.643L-8.832,99.464L-8.764,99.643L-8.696,99.679L-8.627,99.25L-8.559,99.036L-8.49,99.179L-8.422,98.964L-8.353,98.714L-8.285,98.964L-8.216,99.143L-8.148,99.714L-8.08,100.071L-8.011,100.571L-7.943,100.893L-7.874,101.429L-7.806,102.143L-7.737,102.75L-7.669,103.679L-7.6,103.821L-7.532,104.071L-7.463,104.464L-7.395,104.893L-7.327,105.214L-7.258,105.536L-7.19,105.464L-7.121,105.429L-7.053,105.464L-6.984,105.821L-6.916,106.036L-6.847,106.393L-6.779,106.321L-6.711,106.357L-6.642,106L-6.574,106.357L-6.505,106.5L-6.437,106.893L-6.368,107.179L-6.3,107.607L-6.231,107.75L-6.163,107.393L-6.095,107.179L-6.026,107.393L-5.958,107.143L-5.889,106.5L-5.821,106L-5.752,105.536L-5.684,104.321L-5.615,103.464L-5.547,103.286L-5.479,102.571L-5.41,102.75L-5.342,103.143L-5.273,103.071L-5.205,102.429L-5.136,101.893L-5.068,101.964L-4.999,101.536L-4.931,101.571L-4.863,101.071L-4.794,101.286L-4.726,100.857L-4.657,100.929L-4.589,101.286L-4.52,101.75L-4.452,102.143L-4.383,102.107L-4.315,102.321L-4.247,102L-4.178,101.286L-4.107,100.929L-4.038,100.821L-3.97,100.179L-3.901,100L-3.833,100L-3.765,99.25L-3.696,99.143L-3.628,99.929L-3.559,99.643L-3.491,99.607L-3.422,100.571L-3.354,100.536L-3.285,100.393L-3.217,100.5L-3.149,101.5L-3.08,101.75L-3.012,101.5L-2.943,101.893L-2.875,101.857L-2.806,102.179L-2.738,102.107L-2.669,103L-2.601,102.893L-2.533,103.143L-2.464,103.179L-2.396,103.357L-2.327,103.071L-2.259,102.643L-2.19,102.821L-2.122,103.536L-2.053,104.571L-1.985,105.071L-1.916,105.643L-1.848,106.036L-1.78,106.643L-1.711,107.714L-1.643,107.5L-1.574,108L-1.506,108.393L-1.437,108.857L-1.369,108.321L-1.3,108.25L-1.232,107.893L-1.164,107.857L-1.095,107.643L-1.027,108.214L-0.958,109.214L-0.89,109.25L-0.821,109.5L-0.753,109.786L-0.684,109.536L-0.616,108.964L-0.548,108.75L-0.479,109.786L-0.411,110.607L-0.342,110.75L-0.274,111.071L-0.205,111.214L-0.137,111.393L-0.068,111.25L0,111.179L0.068,111L0.137,110.714L0.205,110.679L0.274,110.536L0.342,110.857L0.411,111.893L0.479,112L0.548,112.607L0.616,112.679L0.684,113L0.753,112.821L0.821,113.893L0.89,114L0.958,114.036L1.027,114.607L1.095,114.5L1.164,114.714L1.232,114.357L1.3,114.214L1.369,115.036L1.437,115.607L1.506,115.964L1.574,114.429L1.643,113.857L1.711,113.071L1.78,113.036L1.848,112.857L1.916,113.071L1.985,113.429L2.053,112.821L2.122,112.714L2.19,113.036L2.259,112.893L2.327,113.321L2.396,112.75L2.464,112.107L2.533,111.286L2.601,110.929L2.669,110.321L2.738,110.786L2.806,111.393L2.875,110.429L2.943,110.25L3.012,109.857L3.08,109.143L3.149,108.643L3.217,108.679L3.285,108.429L3.354,107.75L3.422,107.357L3.491,106.679L3.559,105.857L3.628,106.071L3.696,105.607L3.765,105.643L3.833,105.143L3.901,105L3.97,104.071L4.038,102.679L4.107,102.464L4.175,102.143L4.244,101.429L4.312,101.429L4.381,100.786L4.449,100.821L4.517,100.75L4.586,100.857L4.654,100.857L4.723,101.107L4.791,100.75L4.86,100.036L4.928,100.036L4.994,99.536L5.062,99.429L5.131,98.643L5.199,98.321L5.268,98.286L5.336,98.357L5.404,98.929L5.473,98.107L5.541,98.714L5.61,99.357L5.678,98.643L5.747,98.964L5.815,99.25L5.884,99.107L5.952,99.357L6.02,99.75L6.089,100.536L6.157,100.929L6.226,101.357L6.294,101.893L6.363,101.714L6.431,101.143L6.5,101.214L6.568,101.536L6.636,101.536L6.705,101.5L6.773,100.893L6.842,100.321L6.91,100.25L6.979,100.071L7.047,99.964L7.116,100.143L7.184,100.929L7.252,101.286L7.321,101.107L7.389,101.286L7.458,101.036L7.526,101.571L7.595,100.821L7.663,100.071L7.732,100.679L7.8,100.286L7.868,99.714L7.937,99.679L8.005,99.5L8.074,99.571L8.142,99.893L8.211,99.786L8.279,99.964L8.348,99.393L8.416,99.036L8.484,99.464L8.553,99.857L8.621,100.107L8.69,100.393L8.758,100.179L8.827,100.714L8.895,101L8.964,101.036L9.032,101.179L9.101,101.25L9.169,100.786L9.237,99.857L9.306,99.357L9.374,98.75L9.443,98.714L9.511,98.607L9.58,98.179L9.648,98.429L9.717,97.893L9.785,97.286L9.853,96.643L9.922,96.607L9.99,96.75L10.059,96.679L10.127,96.286L10.196,94.893L10.264,94.464L10.333,93.393L10.401,93.571L10.469,93.857L10.538,94.071L10.606,93.607L10.675,93.5L10.743,93.393L10.812,93.25L10.88,92.857L10.949,93.25L11.017,93.5L11.085,93.679L11.154,93.429L11.222,93.143L11.291,93.536L11.359,93.786L11.428,93.821L11.496,93.25L11.565,93.071L11.633,93.25L11.701,92.821L11.77,94.321L11.838,94.857L11.907,95.607L11.975,96.071L12.044,96.286L12.112,96.429L12.181,96.25L12.249,96.893L12.317,97.107L12.386,97.214L12.454,96.643L12.523,95.714L12.591,94.75L12.66,94.25L12.728,93.357L12.797,93.036L12.865,93.429L12.933,93.607L13.002,93.143L13.07,92.571L13.139,92.643L13.207,92.929L13.276,93.179L13.344,93.25L13.413,93.679L13.481,94.107L13.55,94.679L13.618,94.679L13.686,94.857L13.755,95L13.823,94.893L13.892,95.143L13.96,94.786L14.029,93.857L14.097,93.393L14.166,93.214L14.234,94.179L14.302,94.714L14.371,94.857L14.439,94.964L14.508,95.536L14.576,95.964L14.645,96.929L14.713,96.929L14.782,97.357L14.85,97.571L14.918,97.286L14.987,97.714L15.055,98.321L15.124,99.179L15.192,98.964L15.261,98.75L15.329,99.143L15.398,99.357L15.466,98.786L15.534,98.929L15.603,98.679L15.671,98.429L15.74,98.464L15.808,98.964L15.877,98.321L15.945,97.607L16.014,97.357L16.082,97.75L16.15,98.107L16.219,98.179L16.287,97.25L16.356,96.964L16.424,96.357L16.493,96.607L16.561,96.643L16.63,97.75L16.698,98L16.766,98.214L16.835,98.143L16.903,98.214L16.972,98.714L17.04,98.964L17.109,98.607L17.177,98.786L17.246,99.107L17.314,100.214L17.383,100.75L17.451,100.786L17.519,101.429L17.588,101.714L17.656,101.5L17.725,102.714L17.793,103L17.862,103.214L17.93,103.75L17.999,103.964L18.067,104.5L18.135,105.071L18.204,105.5L18.272,105.286L18.341,105.75L18.409,106.036L18.478,106.643L18.546,107.036L18.615,107.143L18.683,106.464L18.751,106.286L18.82,106.143L18.888,106.643L18.957,106.429L19.025,105.393L19.094,104.571L19.162,104.357L19.231,104.821L19.299,103.536L19.367,102.786L19.436,102.714L19.504,102.893L19.573,102.857L19.641,102.714L19.71,103.821L19.778,103.571L19.847,103.75L19.915,103.5L19.983,103.286L20.052,103.679L20.12,103.607L20.189,103.786L20.257,103.679L20.326,103.893L20.394,103.857L20.463,103.5L20.531,103.964L20.599,103.964L20.668,103.786L20.736,103.857L20.805,103.893L20.873,104.5L20.942,104.071L21.01,104.429L21.079,105.321L21.147,105.786L21.215,106L21.287,105.214L21.355,106.143L21.424,106.643L21.492,106.393L21.561,106.393L21.629,105.929L21.697,105.5L21.766,104.679L21.834,104.143L21.903,104.286L21.971,104.786L22.04,105.321L22.108,105.179L22.177,105.679L22.245,105.429L22.313,104.857L22.382,105.214L22.45,105.464L22.519,106.179L22.587,106.607L22.656,106.536L22.724,107.143L22.793,107.536L22.861,107.429L22.93,107.607L22.998,108.464L23.066,109.071L23.135,109L23.203,109.286L23.272,109.429L23.34,109.286L23.409,109.571L23.477,109.929L23.546,110.393L23.614,111.071L23.682,111.214L23.751,111.393L23.819,111.607L23.888,111.679L23.956,111.714L24.025,111.821L24.093,111.25L24.162,111.75L24.23,111.036L24.298,111.107L24.367,110.964L24.435,111.25L24.504,111.071L24.572,110.714L24.641,109.643L24.709,109.179L24.778,108.429L24.846,107.893L24.914,107.5L24.983,107.107L25.051,106.393L25.12,105.214L25.188,105.036L25.257,104.857L25.325,104.643L25.394,105.179L25.462,105.393L25.53,104.321L25.599,103.714L25.667,102.786L25.736,103.714L25.804,104.25L25.873,104.429L25.941,104.607L26.01,104.179L26.078,103.893L26.146,103.893L26.215,103.429L26.283,103.393L26.352,103.107L26.42,103.143L26.489,102.714L26.557,102.929L26.626,102.75L26.694,102.714L26.762,102.607L26.831,102.571L26.899,102.964L26.968,102.786L27.036,102.714L27.105,102.393L27.173,102.964L27.242,102.964L27.31,103L27.379,102.857L27.447,102.75L27.515,102.5L27.584,102.714L27.652,103.429L27.721,102.929L27.789,102.036L27.858,101.179L27.926,101.643L27.995,102.679L28.063,103.357L28.131,103.571L28.2,103.786L28.268,103.536L28.337,103.857L28.405,103.786L28.474,104L28.542,103.464L28.611,103.893L28.679,103.643L28.747,102.857L28.816,103.214L28.884,103L28.953,103.107L29.021,103.893L29.09,104.071L29.158,104.75L29.227,104.107L29.295,104L29.363,103.393L29.432,103.286L29.5,102.929L29.569,102.821L29.637,102.893L29.706,101.929L29.774,101.679L29.843,101.714L29.908,101.679L29.977,100.429L30.045,99.393L30.114,98.964L30.182,98.143L30.25,98.036L30.319,98.25L30.387,98.143L30.456,97.929L30.524,97.786L30.593,98.464L30.661,97.5L30.73,97.75L30.798,98L30.866,98.036L30.935,98.357L31.003,98.107L31.072,97.75L31.14,97.214L31.209,96.179L31.277,95.893L31.346,96L31.414,96L31.482,95.214L31.551,95.071L31.619,94.25L31.688,93.679L31.756,94.321L31.825,94.679L31.893,94.071L31.962,94.429L32.03,95.25L32.098,95.357L32.167,93.929L32.235,93.179L32.304,92.429L32.372,92L32.441,91.821L32.509,92.786L32.578,93.286L32.646,92.75L32.714,92.786L32.783,92.393L32.851,92.25L32.92,91.643L32.988,91.679L33.057,91.357L33.125,90.857L33.194,91.429L33.262,91.786L33.33,92.179L33.399,91.321L33.467,91.143L33.536,91.357L33.604,90.214L33.673,90.75L33.741,90.821L33.81,89.964L33.878,89.75L33.946,89.321L34.015,88.429L34.083,87.607L34.152,86.821L34.22,87.536L34.289,87.964L34.357,88L34.426,87.643L34.494,87.25L34.563,85.714L34.631,84.393L34.699,84.429L34.768,83.679L34.836,82.964L34.905,83.214L34.973,82.893L35.042,82.214L35.11,82.429L35.179,82.357L35.247,81.464L35.315,81.036L35.384,81L35.452,81.5L35.521,82.071L35.589,83.143L35.658,84.821L35.726,84.607L35.795,84.679L35.863,84.25L35.931,84.679L36,85.607L36.068,86.143L36.137,86.179L36.205,86.5L36.274,86.393L36.342,86.821L36.411,87.571L36.479,87.607L36.547,87.5L36.616,88.75L36.684,89L36.753,88.571L36.821,89.429L36.89,90.536L36.958,90.429L37.027,91.321L37.095,91.607L37.163,91.179L37.232,91.5L37.3,92.321L37.369,93.143L37.437,93.536L37.506,93.571L37.574,93.464L37.643,92.464L37.711,92.107L37.779,92.071L37.848,92.036L37.916,91.821L37.985,91.893L38.053,92.357L38.122,92.429L38.19,92.643L38.259,92.857L38.327,92.643L38.396,92.679L38.464,91.893L38.532,92.286L38.601,92.179L38.669,91.607L38.738,92.5L38.806,93.536L38.875,93.643L38.943,93.179L39.012,93.786L39.08,93.143L39.148,93.143L39.217,93.464L39.285,93.393L39.354,93.357L39.422,92.679L39.491,92.714L39.559,92.107L39.628,91.786L39.696,92.321L39.764,92.429L39.833,92.821L39.901,93.429L39.97,94.464L40.038,94.357L40.107,93.5L40.175,93.393L40.244,93.429L40.312,93.393L40.38,93.821L40.449,93.286L40.517,93.679L40.586,93.536L40.654,93.821L40.723,93.929L40.791,92.643L40.86,91.5L40.928,90.786L40.996,90.929L41.065,90.429L41.133,90.929L41.202,90.321L41.27,90.071L41.339,90.286L41.407,89.536L41.476,89.536L41.544,89.286L41.612,90.107L41.681,89.964L41.749,89.929L41.818,90.179L41.886,89.857L41.955,89.607L42.023,88.857L42.092,88.607L42.16,88.357L42.228,88.143L42.297,88.179L42.365,87.75L42.434,87.964L42.502,88.464L42.571,88.75L42.639,88.929L42.708,88.893L42.776,89.25L42.845,89.893L42.913,90.357L42.981,90.179L43.05,90.179L43.118,90.679L43.187,90.393L43.255,91.071L43.324,91.357L43.392,90.25L43.461,90.643L43.529,91.393L43.597,91L43.666,91.214L43.734,91.5L43.803,91.893L43.871,91.143L43.94,90.857L44.008,90.036L44.077,90.393L44.145,90.071L44.213,90.25L44.282,91.5L44.35,90.893L44.419,91.107L44.487,91.286L44.556,90.643L44.624,89.75L44.693,89.607L44.761,89.214L44.829,88.071L44.898,87.821L44.966,87.857L45.035,88.786L45.103,89.143L45.172,88.5L45.24,88.25L45.309,88.464L45.377,88.679L45.445,89.571L45.514,89.571L45.582,89.286L45.651,89.821L45.719,89.214L45.788,88.607L45.856,87.893L45.925,88.179L45.993,88.536L46.061,88.786L46.13,89.036L46.201,89.5L46.27,89.393L46.338,88.071L46.407,88.786L46.475,88.75L46.543,88.25L46.612,88.857L46.68,89.679L46.749,90.143L46.817,90.464L46.886,91.714L46.954,92.714L47.023,92.571L47.091,92.25L47.159,91.821L47.228,91.964L47.296,91.857L47.365,91.5L47.433,91.5L47.502,92.179L47.57,93.107L47.639,93.857L47.707,93.893L47.775,94.571L47.844,95.714L47.912,96.536L47.981,97.429L48.049,98.071L48.118,98.821L48.186,98.821L48.255,100.071L48.323,101.25L48.392,102.429L48.46,103.214L48.528,103.821L48.597,104.536L48.665,105.107L48.734,104.75L48.802,104.571L48.871,105.286L48.939,104.643L49.008,104.464L49.076,104.714L49.144,105.25L49.213,105.929L49.281,106.786L49.35,107.179L49.418,107.75L49.487,107.714L49.555,107.071L49.624,106.071L49.692,105.286L49.76,104.857L49.829,104.714L49.897,103.643L49.966,103.5L50.034,102.821L50.103,103L50.171,102.536L50.24,102.571L50.308,101.214L50.376,100.286L50.445,99.5L50.513,98.893L50.582,98.75L50.65,97.857L50.719,97.643L50.787,97.714L50.856,97.357L50.924,96.821L50.992,96.571L51.061,95.786L51.129,95.429L51.198,95L51.266,94.429L51.335,93.964L51.403,94.214L51.472,93.75L51.54,93.071L51.608,93.429L51.677,93.571L51.745,92.964L51.814,92.929L51.882,93L51.951,93.393L52.019,93.071L52.088,93.071L52.156,93.036L52.225,93.143L52.293,92.857L52.361,92.929L52.43,92.286L52.498,92.571L52.567,92.5L52.635,91.607L52.704,91.679L52.772,91.643L52.841,91.821L52.909,91.786L52.977,91.643L53.046,91.75L53.114,91.964L53.183,92.429L53.251,91.643L53.32,91.286L53.388,91.214L53.457,92.036L53.525,92.536L53.593,93.143L53.662,92.857L53.73,91.821L53.799,91.786L53.867,91.25L53.936,90.821L54.004,90.571L54.073,90.107L54.141,89.714L54.209,88.929L54.278,89.25L54.346,89.643L54.415,90.036L54.483,90.821L54.552,90.607L54.62,90.464L54.689,91L54.757,90.857L54.823,90.393L54.891,90.357L54.96,90.464L55.028,90.5L55.096,90.714L55.165,90.786L55.233,90.464L55.302,91.536L55.37,92.143L55.439,92.143L55.507,91L55.576,90.679L55.644,90.107L55.712,89.714L55.781,90.571L55.849,90.679L55.918,91.25L55.986,91.643L56.055,91.75L56.123,91.607L56.192,91.214L56.26,91.071L56.328,90.786L56.397,90.25L56.465,89.964L56.534,89.429L56.602,89L56.671,88.643L56.739,87.964L56.808,88.036L56.876,87.429L56.944,87.286L57.013,87.214L57.081,87L57.15,86.536L57.218,86.321L57.287,85.5L57.355,84.964L57.424,84.107L57.492,84.286L57.56,83.786L57.629,83.893L57.697,84.429L57.766,84.25L57.834,84.25L57.903,83.929L57.971,84.036L58.04,83.821L58.108,84.464L58.176,84.5L58.245,84.429L58.313,84.036L58.382,83.357L58.45,83.321L58.519,81.714L58.587,81.607L58.656,81.429L58.724,81.25L58.792,81.179L58.861,80.536L58.929,80.357L58.998,79.75L59.066,79.607L59.135,79.036L59.203,79.143L59.272,79.036L59.34,79.536L59.409,79.143L59.477,79.071L59.545,78.786L59.614,78.786L59.682,78.036L59.751,76.964L59.819,76.929L59.888,75.964L59.956,75.643L60.025,74.821L60.093,74.286L60.161,72.964L60.23,73.464L60.298,73.143L60.367,73.5L60.435,73.821L60.504,73.536L60.572,75.179L60.641,75.857L60.709,76.679L60.777,76.429L60.846,77.036L60.914,77.429L60.983,78L61.051,78.036L61.12,78.25L61.188,78.571L61.257,78.929L61.325,79.357L61.393,79.214L61.462,79.607L61.53,79.714L61.599,79.179L61.667,78.75L61.736,79.286L61.804,80.286L61.873,80.429L61.941,81.321L62.009,81.821L62.078,82.571L62.146,83.357L62.215,84.607L62.283,83.893L62.352,83.893L62.42,83.893L62.489,83.571L62.557,84.143L62.625,83.821L62.694,83.607L62.762,82.393L62.831,81.786L62.899,81.821L62.968,82.357L63.036,82.714L63.105,83.464L63.173,83.536L63.242,84.321L63.31,83.893L63.378,83.929L63.447,83.75L63.515,83.679L63.584,83.929L63.652,83.429L63.721,84L63.789,83.607L63.858,83.286L63.926,83.607L63.994,83.179L64.063,83.643L64.131,83.5L64.2,82.786L64.268,81.929L64.337,82.036L64.405,82.357L64.474,82.571L64.542,83.179L64.61,83.036L64.679,83.357L64.747,82.821L64.816,83.536L64.884,84.75L64.953,84.643L65.021,84.214L65.09,83.714L65.158,82.964L65.226,82.893L65.295,82.607L65.363,82.929L65.432,82.464L65.5,82.5L65.569,82.679L65.637,82.643L65.706,82.679L65.774,82.071L65.842,82.214L65.911,82.357L65.979,81.25L66.048,81.821L66.116,81.429L66.185,81.036L66.253,80.929L66.322,81.857L66.39,81.893L66.458,81.857L66.527,81.536L66.595,81.107L66.664,80.821L66.732,80.107L66.801,80.321L66.869,79.464L66.938,78.286L67.006,77.714L67.074,77.25L67.143,76.571L67.211,76.143L67.28,75.5L67.348,75.464L67.417,74.607L67.485,74.857L67.554,75.464L67.622,75.214L67.691,75.607L67.759,76.143L67.827,76.786L67.896,76.607L67.964,77.071L68.033,78.393L68.101,78L68.17,78.179L68.238,78.071L68.307,78.75L68.375,77.929L68.443,77.643L68.512,78.464L68.58,79.179L68.649,79.607L68.717,79.75L68.786,80.75L68.854,80.5L68.923,81.25L68.991,82.321L69.059,82.75L69.128,83.821L69.196,84.786L69.265,85.964L69.333,86.643L69.402,87L69.47,87.571L69.539,86.75L69.607,86.929L69.675,86.75L69.744,86.429L69.812,87.464L69.881,88.036L69.949,88.179L70.018,87L70.086,86.214L70.155,86.107L70.223,85.964L70.291,87.393L70.36,87.25L70.428,87.107L70.497,87.607L70.565,87.321L70.634,86.679L70.702,86.571L70.771,86.714L70.839,86.286L70.907,86.107L70.976,86.464L71.044,86.5L71.116,86.929L71.184,86.857L71.253,86.714L71.321,86.179L71.389,85.714L71.458,84.821L71.526,84.464L71.595,85.464L71.663,84.536L71.732,84.929L71.8,85.607L71.869,84.143L71.937,83.179L72.005,83.179L72.074,83.321L72.142,83.464L72.211,84.179L72.279,84.821L72.348,83.643L72.416,82.821L72.485,83.607L72.553,84.286L72.621,83.786L72.69,84.179L72.758,84.143L72.827,84.179L72.895,84.036L72.964,84.821L73.032,84.714L73.101,84.929L73.169,84.429L73.238,84.393L73.306,84.536L73.374,84.857L73.443,84.607L73.511,85.036L73.58,85.429L73.648,85.964L73.717,86.25L73.785,85.929L73.854,85.25L73.922,85.643L73.99,86.643L74.059,87.214L74.127,88.071L74.196,88.143L74.264,87.964L74.333,88.036L74.401,88.821L74.47,89.929L74.538,89.536L74.606,89.143L74.675,89.929L74.743,89.679L74.812,89.679L74.88,89.286L74.949,90.036L75.017,90.214L75.086,90.786L75.154,91.214L75.222,91.821L75.291,91.536L75.359,91.286L75.428,90.857L75.496,91.536L75.565,91.786L75.633,92L75.702,92.107L75.77,92.321L75.838,93.036L75.907,93.964L75.975,94.393L76.044,93.893L76.112,93.286L76.181,93.321L76.249,93.25L76.318,93.679L76.386,93.25L76.454,93.464L76.523,93L76.591,92.714L76.66,92.107L76.728,91.107L76.797,90.893L76.865,90.429L76.934,90.714L77.002,89.964L77.07,89.107L77.139,88.786L77.207,87.929L77.276,88.107L77.344,88.071L77.413,88.036L77.481,88.429L77.55,88.321L77.618,88.071L77.687,86.821L77.755,85.821L77.823,86.036L77.892,85L77.96,83.679L78.029,83.429L78.097,83.393L78.166,83.214L78.234,82.357L78.303,82.321L78.371,81.929L78.439,81.571L78.508,80.964L78.576,81.071L78.645,80.714L78.713,80.964L78.782,81.5L78.85,81.036L78.919,81.071L78.987,81.214L79.055,81.107L79.124,81.25L79.192,80.964L79.261,80.714L79.329,79.571L79.398,79.179L79.466,79.179L79.535,78.857L79.603,77.964L79.671,78.036L79.737,78.786L79.805,79.143L79.874,79.607L79.942,79.893L80.011,80.464L80.079,79.929L80.148,80.321L80.216,80.607L80.285,81.214L80.353,81.679L80.422,82.179L80.49,82.679L80.558,82.5L80.627,82.214L80.695,83.25L80.764,83.964L80.832,84.786L80.901,85.393L80.969,85.5L81.038,84.536L81.106,84.464L81.174,84.643L81.243,84.357L81.311,84.286L81.38,84.357L81.448,84.214L81.517,84.893L81.585,84.393L81.654,85.036L81.722,84.714L81.79,84.321L81.859,83.357L81.927,82.107L81.996,82.071L82.064,81.75L82.133,82.071L82.201,81.357L82.27,81.214L82.338,80.821L82.406,80.464L82.475,79.464L82.543,78.964L82.612,78.929L82.68,78.893L82.749,77.893L82.817,76.429L82.886,74.929L82.954,75.25L83.022,75.679L83.091,76.786L83.159,76.679L83.228,77L83.296,76.964L83.365,77.036L83.433,76.286L83.502,76.321L83.57,76.143L83.638,77.071L83.707,77.036L83.775,77L83.844,77.393L83.912,77.214L83.981,77.964L84.049,77.25L84.118,77.286L84.186,77.214L84.255,77.179L84.323,77.5L84.391,77.571L84.46,77.179L84.528,77.25L84.597,77.286L84.665,77.75L84.734,78.107L84.802,78.643L84.871,78.643L84.939,78.321L85.007,76.714L85.076,76.571L85.144,75.679L85.213,76.75L85.281,77.071L85.35,76.036L85.418,75.536L85.487,76L85.555,76.536L85.623,77.107L85.692,76.786L85.76,76.786L85.829,76.536L85.897,75.5L85.966,75.786L86.034,74.679L86.103,75.536L86.171,75.893L86.239,76.536L86.308,76.25L86.376,75.143L86.445,74.607L86.513,75.286L86.582,75.321L86.65,75.429L86.719,75.429L86.787,75.607L86.855,76.214L86.924,76.964L86.992,77.214L87.061,78.143L87.129,78L87.198,78.679L87.266,77.929L87.335,77.143L87.403,77.607L87.471,77.429L87.54,77.429L87.608,76.643L87.677,74.714L87.745,74.143L87.814,74.429L87.882,74.321L87.951,74.643L88.019,74.5L88.087,75.107L88.156,74.571L88.224,73.286L88.293,72.321L88.361,72L88.43,72.893L88.498,72.75L88.567,72.607L88.635,72.393L88.704,72.393L88.772,71.071L88.84,69.964L88.909,69.286L88.977,68.643L89.046,68.393L89.114,68.571L89.183,68.393L89.251,67.786L89.32,66.607L89.388,66.5L89.456,66.857L89.525,67.036L89.593,67.75L89.662,68.857L89.73,70.25L89.799,70.607L89.867,69.643L89.936,69.786L90.004,69.607L90.072,70.071L90.141,68.25L90.209,67.464L90.278,67.143L90.346,67.25L90.415,67.857L90.483,67.536L90.552,67.143L90.62,66.571L90.688,66.071L90.757,65.5L90.825,65.25L90.894,65.214L90.962,64.857L91.031,64.857L91.099,64.964L91.168,63.679L91.236,63.464L91.304,62.964L91.373,62.643L91.441,61.893L91.51,61.357L91.578,61.393L91.647,61.857L91.715,60.893L91.784,60.286L91.852,60L91.92,60.25L91.989,60.286L92.057,61.179L92.126,60.643L92.194,62.071L92.263,62.143L92.331,62.643L92.4,61.821L92.468,62.143L92.537,61.893L92.605,62.5L92.673,62.75L92.742,63.607L92.81,63.821L92.879,65.036L92.947,65.393L93.016,65.714L93.084,65.929L93.153,65.964L93.221,66.893L93.289,66.393L93.358,67L93.426,68L93.495,68.714L93.563,69.321L93.632,69.964L93.7,69.286L93.769,69.536L93.837,69.429L93.905,69.5L93.974,69.536L94.042,69.286L94.111,69.321L94.179,68.571L94.248,68.321L94.316,69.786L94.385,70.107L94.453,70.929L94.521,70.857L94.59,71.393L94.658,71.607L94.727,72.214L94.795,71.929L94.864,72.786L94.932,73.179L95.001,73.357L95.069,73.25L95.137,72.75L95.206,72.857L95.274,73.107L95.343,73.607L95.411,73.536L95.48,73.429L95.548,73.214L95.617,73L95.685,72.643L95.753,72.75L95.822,72.714L95.89,73.179L95.959,73.893L96.03,74.929L96.099,75.393L96.167,75.607L96.235,77.036L96.304,77.536L96.372,77.143L96.441,77.357L96.509,77.464L96.578,77.393L96.646,76.893L96.715,77.536L96.783,77.143L96.851,77L96.92,76.5L96.988,76.786L97.057,77L97.125,76.857L97.194,77.786L97.262,77.714L97.331,77.607L97.399,77.393L97.467,78.214L97.536,79.143L97.604,79.464L97.673,79.571L97.741,80.107L97.81,79.964L97.878,80.286L97.947,80.679L98.015,80.643L98.084,79.5L98.152,79.536L98.22,78.107L98.289,77.607L98.357,77.464L98.426,77.25L98.494,77.821L98.563,78L98.631,77.679L98.7,78.679L98.768,77.929L98.836,77.143L98.905,76.821L98.973,76.429L99.042,75.571L99.11,75.679L99.179,76.25L99.247,76.107L99.316,76.429L99.384,76.107L99.452,76L99.521,74.75L99.589,73.964L99.658,73.321L99.726,73.036L99.795,72.286L99.863,71.536L99.932,70.75L100,70.571L100.068,70.036L100.137,70.25L100.205,70.357L100.274,71.071L100.342,71.143L100.411,70.607L100.479,70.429L100.548,70.107L100.616,70.071L100.684,70.393L100.753,69.75L100.821,69.786L100.89,70.571L100.958,70.821L101.027,71.357L101.095,71.857L101.164,71.929L101.232,71.5L101.3,71.179L101.369,71.107L101.437,71.964L101.506,72.429L101.574,73.536L101.643,73.25L101.711,72.714L101.78,72.393L101.848,72.036L101.916,72L101.985,72.179L102.053,71.893L102.122,71.929L102.19,71.857L102.259,71.464L102.327,71.714L102.396,71.357L102.464,72.179L102.533,72.821L102.601,72.679L102.669,71.321L102.738,70.643L102.806,70.036L102.875,70.5L102.943,70.714L103.012,71.357L103.08,71.143L103.149,71.214L103.217,71.571L103.285,72.893L103.354,74.607L103.422,76.107L103.491,77.036L103.559,79.107L103.628,80.071L103.696,81.929L103.765,84.536L103.833,87.143L103.901,89.643L103.97,92.107L104.038,94.107L104.107,95.679L104.175,97.714L104.244,99.571L104.312,101.25L104.381,103.429L104.449,105.643L104.517,107.429L104.586,108.893L104.651,110.393L104.72,113.5L104.788,115.857L104.857,118.107L104.925,119.214L104.994,120.321L105.062,121.536L105.131,122.821L105.199,124L105.268,124.964L105.336,125.214L105.404,125.893L105.473,125.964L105.541,125.821L105.61,125.393L105.678,125.393L105.747,125.286L105.815,125.429L105.884,125.321L105.952,125.393L106.02,125.357L106.089,125.107L106.157,124.607L106.226,124.214L106.294,124.214L106.363,124.214L106.431,123.607L106.5,123.036L106.568,122.75L106.636,122.214L106.705,122.571L106.773,122.607L106.842,122.464L106.91,122.179L106.979,122.357L107.047,122.143L107.116,121.893L107.184,121.643L107.252,120.893L107.321,120.429L107.389,120.143L107.458,119.75L107.526,119L107.595,118.643L107.663,118.214L107.732,118L107.8,117.536L107.868,116.464L107.937,115.75L108.005,114.571L108.074,112.857L108.142,111.643L108.211,111.429L108.279,110.857L108.348,110.857L108.416,110.929L108.484,110.893L108.553,110.929L108.621,110.714L108.69,110.571L108.758,109.929L108.827,109.393L108.895,108.643L108.964,108.321L109.032,107.786L109.101,107.607L109.169,107.607L109.237,107.536L109.306,107.5L109.374,106.893L109.443,106.214L109.511,105.286L109.58,105.393L109.648,105.857L109.717,105.393L109.785,105.107L109.853,104.857L109.922,105.071L109.99,104.643L110.059,104.893L110.127,105.393L110.196,105.464L110.264,105.464L110.333,104.714L110.401,102.679L110.469,101.071L110.538,100.286L110.606,99.964L110.675,99.643L110.743,99.143L110.812,98.929L110.88,98.179L110.949,97.607L111.017,97.143L111.085,97.357L111.154,97.286L111.222,96.607L111.291,96.107L111.359,95.714L111.428,95.786L111.496,95.643L111.565,95.714L111.633,96.143L111.701,94.929L111.77,94.536L111.838,94.071L111.907,94.571L111.975,94L112.044,93.75L112.112,93.107L112.181,92.857L112.249,93.5L112.317,92.214L112.386,92.75L112.454,93.714L112.523,94.143L112.591,94.429L112.66,93.786L112.728,93.286L112.797,93.679L112.865,92.607L112.933,92.893L113.002,93.25L113.07,93.071L113.139,92.321L113.207,91.75L113.276,91.536L113.344,91.071L113.413,91.036L113.481,90.857L113.55,91.036L113.618,91.464L113.686,90.429L113.755,91.071L113.823,90.679L113.892,90.714L113.96,90.071L114.029,90.464L114.097,90.893L114.166,91.179L114.234,91.5L114.302,91.107L114.371,91.643L114.439,91.893L114.508,92.429L114.576,92.464L114.645,91.214L114.713,91.357L114.782,91.357L114.85,91.071L114.918,91.393L114.987,91.25L115.055,91.357L115.124,91.5L115.192,91.464L115.261,90.786L115.329,90.536L115.398,90.643L115.466,90.25L115.534,89.321L115.603,88.643L115.671,87.357L115.74,87.107L115.808,86.071L115.877,86.071L115.945,86L116.014,85.643L116.082,85.643L116.15,85.679L116.219,85.036L116.287,84.107L116.356,83.464L116.424,83.179L116.493,82.321L116.561,81.75L116.63,81.536L116.698,82.393L116.766,82.643L116.835,82.679L116.903,82.357L116.972,81.893L117.04,81.143L117.109,80.607L117.177,80.143L117.246,80.464L117.314,80.786L117.383,80.964L117.451,80.75L117.519,81.429L117.588,82.679L117.656,82.893L117.725,82.464L117.793,83.393L117.862,83.786L117.93,83.75L117.999,83.429L118.067,83.179L118.135,82.214L118.204,80.857L118.272,80.857L118.341,81L118.409,81.5L118.478,81.821L118.546,81.643L118.615,81.464L118.683,81.786L118.751,82.143L118.82,82.286L118.888,81.821L118.957,81.857L119.025,83L119.094,84L119.162,84.321L119.231,83.964L119.299,83.714L119.367,83.607L119.436,83.964L119.504,84.107L119.573,83.821L119.641,82.464L119.71,82.571L119.778,82.786L119.847,82.25L119.915,82.036L119.983,82.357L120.052,82.143L120.12,82.25L120.189,82.464L120.257,82.821L120.326,83.036L120.394,83.893L120.463,82.821L120.531,82.964L120.599,84.143L120.668,84.607L120.736,83.143L120.805,82.179L120.873,82.143L120.945,82.786L121.013,83.357L121.081,82.643L121.15,82.5L121.218,81.893L121.287,82.357L121.355,82.179L121.424,82.321L121.492,81.857L121.561,81.536L121.629,81.536L121.697,82.393L121.766,82.357L121.834,82.607L121.903,82.536L121.971,83.964L122.04,85.357L122.108,86.75L122.177,88.143L122.245,89.5L122.313,90.429L122.382,90.929L122.45,90.857L122.519,92.857L122.587,93.821L122.656,93.643L122.724,93.036L122.793,93.75L122.861,93.929L122.93,93.643L122.998,93.536L123.066,93.286L123.135,93.75L123.203,93.857L123.272,93.786L123.34,93.5L123.409,93.25L123.477,93.143L123.546,92.5L123.614,92.786L123.682,92.5L123.751,92.893L123.819,92.607L123.888,92.25L123.956,92.321L124.025,91.464L124.093,90.464L124.162,89.143L124.23,88L124.298,87L124.367,86.679L124.435,86.607L124.504,86.357L124.572,85.071L124.641,84.107L124.709,83.429L124.778,84.179L124.846,85.214L124.914,85.321L124.983,85.786L125.051,85.464L125.12,85.536L125.188,86.714L125.257,87.607L125.325,88.929L125.394,90.036L125.462,91.179L125.53,90.786L125.599,91.25L125.667,91.821L125.736,92.571L125.804,92.357L125.873,93.179L125.941,94.179L126.01,93.5L126.078,93.357L126.146,93.429L126.215,93.964L126.283,94.429L126.352,95.571L126.42,96.429L126.489,97.107L126.557,97.393L126.626,98.571L126.694,98.429L126.762,98.25L126.831,97.607L126.899,97.036L126.968,96.286L127.036,95.857L127.105,95.214L127.173,94.821L127.242,92.571L127.31,91.107L127.379,89.714L127.447,88.893L127.515,87.393L127.584,87.5L127.652,87.571L127.721,87.357L127.789,85.786L127.858,85.321L127.926,84.071L127.995,83.75L128.063,84.036L128.131,84L128.2,82.75L128.268,82.5L128.337,81.857L128.405,79.321L128.474,77.036L128.542,75.214L128.611,74.643L128.679,74.25L128.747,73.714L128.816,73.25L128.884,73.643L128.953,73.429L129.021,74.107L129.09,73.75L129.158,74.643L129.227,73.429L129.295,73.786L129.363,73.571L129.432,73.929L129.5,73.714L129.569,73.607L129.637,73.786L129.706,73.607L129.774,72.679L129.843,72.429L129.911,72.857L129.979,73.821L130.045,73.107L130.114,72.679L130.182,71.964L130.25,72.75L130.319,72.5L130.387,72.036L130.456,73.071L130.524,74.5L130.593,75.429L130.661,75.464L130.73,74.357L130.798,74.536L130.866,74.536L130.935,73.536L131.003,72.821L131.072,72.536L131.14,71.679L131.209,70.464L131.277,71.536L131.346,71.107L131.414,70.964L131.482,70.143L131.551,69.964L131.619,70.286L131.688,70L131.756,70.036L131.825,70.25L131.893,70.536L131.962,69.036L132.03,68.143L132.098,68.536L132.167,69.071L132.235,68.857L132.304,68.536L132.372,67.857L132.441,67.857L132.509,68.25L132.578,67.536L132.646,66.679L132.714,66.357L132.783,66.429L132.851,66.036L132.92,65.357L132.988,65.429L133.057,64.857L133.125,65.429L133.194,66.679L133.262,67.571L133.33,66.786L133.399,67.071L133.467,66.393L133.536,66.821L133.604,66.857L133.673,66.786L133.741,66.786L133.81,66.393L133.878,66.321L133.946,66.143L134.015,66.464L134.083,65.786L134.152,64.679L134.22,62.964L134.289,63.107L134.357,62.357L134.426,62.321L134.494,61.786L134.563,61.071L134.631,61.464L134.699,61.643L134.768,60.964L134.836,60.75L134.905,60.429L134.973,61.071L135.042,60.25L135.11,61.321L135.179,60.286L135.247,59.286L135.315,58.821L135.384,59.25L135.452,59.036L135.521,58.929L135.589,58.964L135.658,59.25L135.726,59L135.795,58.714L135.863,58.321L135.931,58.821L136,59.607L136.068,60.143L136.137,60.893L136.205,61.857L136.274,63.321L136.342,62.643L136.411,63.429L136.479,63.857L136.547,64.321L136.616,63.929L136.684,63.143L136.753,63.214L136.821,63.571L136.89,63.607L136.958,64.036L137.027,63.821L137.095,64.857L137.163,64.536L137.232,64.857L137.3,65.393L137.369,65.679L137.437,65.679L137.506,66.179L137.574,67.071L137.643,67.143L137.711,66.071L137.779,66L137.848,66.179L137.916,66.893L137.985,67.214L138.053,67.286L138.122,66.679L138.19,67.071L138.259,66.857L138.327,67.5L138.396,68.393L138.464,68.321L138.532,68.679L138.601,69.464L138.669,70.464L138.738,70.714L138.806,71.107L138.875,72.036L138.943,73.107L139.012,74.393L139.08,74.857L139.148,74.75L139.217,75.571L139.285,75.571L139.354,74.893L139.422,75.143L139.491,74.857L139.559,74.679L139.628,74.893L139.696,75.179L139.764,76.5L139.833,76.75L139.901,77.643L139.97,77.679L140.038,77.571L140.107,77.643L140.175,77.786L140.244,77.143L140.312,77.714L140.38,77.464L140.449,77.536L140.517,77.429L140.586,76.679L140.654,75.571L140.723,75.071L140.791,74.536L140.86,73.036L140.928,72.714L140.996,71.536L141.065,70.25L141.133,69.607L141.202,69.464L141.27,68.679L141.339,69.179L141.407,69.893L141.476,68.786L141.544,68.464L141.612,68.25L141.681,67.143L141.749,66.607L141.818,65.536L141.886,64.179L141.955,63.071L142.023,62.464L142.092,61.893L142.16,61.536L142.228,61.429L142.297,61.571L142.365,60.964L142.434,60.429L142.502,60.321L142.571,60.143L142.639,60.464L142.708,60.5L142.776,60.536L142.845,61.679L142.913,63.036L142.981,62.179L143.05,62.5L143.118,61.464L143.187,61.786L143.255,61.071L143.324,60.857L143.392,60.214L143.461,59.607L143.529,60.607L143.597,60.786L143.666,61.036L143.734,62.143L143.803,61.786L143.871,61.714L143.94,62.5L144.008,62.179L144.077,62.107L144.145,61.786L144.213,60.893L144.282,61.25L144.35,60.714L144.419,59.75L144.487,60.179L144.556,60.107L144.624,59.643L144.693,59.679L144.761,59.821L144.829,60.107L144.898,58.964L144.966,58.393L145.035,59.071L145.103,59.536L145.172,60.607L145.24,60.214L145.309,60.679L145.377,60.821L145.445,62.036L145.514,62.786L145.582,62.643L145.651,62.857L145.719,62.25L145.788,62.571L145.856,63.107L145.925,63.786L145.993,64.179L146.061,64.857L146.13,65.714L146.198,65.357L146.267,65.107L146.338,64.929L146.407,65.679L146.475,66.571L146.543,65.607L146.612,65.179L146.68,65.179L146.749,64L146.817,63.821L146.886,63.429L146.954,62.893L147.023,62.357L147.091,61.964L147.159,61.464L147.228,61.107L147.296,61.107L147.365,62.214L147.433,62.464L147.502,62.25L147.57,63.143L147.639,62.929L147.707,63L147.775,63.464L147.844,62.536L147.912,63.214L147.981,63.75L148.049,64.893L148.118,65.143L148.186,64.893L148.255,65.464L148.323,65.964L148.392,66.036L148.46,67.036L148.528,67.857L148.597,69.071L148.665,69.536L148.734,69.464L148.802,70.75L148.871,71.107L148.939,72.321L149.008,73.75L149.076,74.964L149.144,75.679L149.213,75.679L149.281,75.464L149.35,75.75L149.418,75.107L149.487,74.214L149.555,73.607L149.624,72.964L149.692,73.071L149.76,72.679L149.829,72.071L149.897,73L149.966,74.571L150.034,75.607L150.103,76.036L150.171,76.679L150.24,77.429L150.308,77.786L150.376,79L150.445,79.964L150.513,78.643L150.582,77.929L150.65,77.5L150.719,77.143L150.787,77.607L150.856,77.179L150.924,77.107L150.992,76.357L151.061,76.5L151.129,76.286L151.198,74.929L151.266,74.429L151.335,75.607L151.403,76.393L151.472,76.643L151.54,78.036L151.608,78.464L151.677,78.179L151.745,77.536L151.814,77.643L151.882,78.214L151.951,77.393L152.019,74.571L152.088,72.357L152.156,70.25L152.225,70.036L152.293,69.036L152.361,67.607L152.43,65.214L152.498,63.5L152.567,62.607L152.635,62.179L152.704,60.75L152.772,60.643L152.841,61L152.909,62L152.977,60.821L153.046,60.036L153.114,58.571L153.183,58.75L153.251,58.821L153.32,58.857L153.388,57.857L153.457,56.714L153.525,55.857L153.593,54.893L153.662,54.107L153.73,53.179L153.799,53.393L153.867,52.786L153.936,51.893L154.004,50.75L154.073,50.5L154.141,50.429L154.209,50L154.278,47.964L154.346,46.643L154.415,47.214L154.483,47L154.552,46.821L154.62,47.393L154.689,46.857L154.757,47.107L154.825,46.321L154.894,44.679L154.96,43.393L155.028,43.571L155.096,42.786L155.165,43.75L155.233,43.679L155.302,44L155.37,44.357L155.439,44L155.507,42.75L155.576,41.25L155.644,40.536L155.712,39.679L155.781,37.571L155.849,36.536L155.918,36.643L155.986,35.857L156.055,34.857L156.123,34.607L156.192,34.786L156.26,34.5L156.328,34.893L156.397,35.607L156.465,35.5L156.534,36.214L156.602,36.571L156.671,36.5L156.739,36.607L156.808,36.214L156.876,35.75L156.944,35.464L157.013,34.357L157.081,34.643L157.15,34.857L157.218,33.929L157.287,33L157.355,31.821L157.424,30.75L157.492,29.964L157.56,31.893L157.629,33.536L157.697,34.036L157.766,33.679L157.834,35.214L157.903,35.857L157.971,35.464L158.04,36.5L158.108,38.071L158.176,38.857L158.245,39.857L158.313,39.464L158.382,39.286L158.45,37.893L158.519,36.893L158.587,36.821L158.656,36.679L158.724,36.214L158.792,36.393L158.861,36.214L158.929,37.75L158.998,39.179L159.066,39.821L159.135,39.679L159.203,39.607L159.272,38.964L159.34,37.429L159.409,37.5L159.477,37.214L159.545,38.107L159.614,36.857L159.682,36.607L159.751,35.964L159.819,35.964L159.888,36.179L159.956,35.821L160.025,36.393L160.093,35.536L160.161,34.964L160.23,34.679L160.298,32.75L160.367,33.536L160.435,33.607L160.504,34.571L160.572,35.571L160.641,36.964L160.709,36.5L160.777,35.857L160.846,34.429L160.914,35.286L160.983,34.143L161.051,33.143L161.12,32L161.188,31.714L161.257,31.25L161.325,30.786L161.393,32.25L161.462,31.893L161.53,32.464L161.599,32.5L161.667,32.393L161.736,32.036L161.804,32.571L161.873,33.821L161.941,34L162.009,33.929L162.078,32.679L162.146,32.643L162.215,32.357L162.283,32.429L162.352,32.464L162.42,32.571L162.489,30.929L162.557,29.571L162.625,28.893L162.694,27L162.762,24.286L162.831,24.179L162.899,26.107L162.968,25.786L163.036,26.036L163.105,25.786L163.173,27.179L163.242,26.464L163.31,27.321L163.378,28.964L163.447,26.571L163.515,27.036L163.584,26.821L163.652,26.571L163.721,26.893L163.789,27.214L163.858,27.143L163.926,25.821L163.994,24.75L164.063,22.393L164.131,21.607L164.2,21.286L164.268,20.821L164.337,20.25L164.405,18.964L164.474,18.107L164.542,19.214L164.61,20.143L164.679,20.464L164.747,20.893L164.816,24.143L164.884,24.964L164.953,24.357L165.021,24.179L165.09,23.393L165.158,23.286L165.226,22.214L165.295,23L165.363,22.321L165.432,21.107L165.5,23.036L165.569,23.25L165.637,21.75L165.706,21.357L165.774,21.964L165.842,21.571L165.911,20.929L165.979,21.143L166.048,20.607L166.116,23.214L166.185,24.857L166.253,25.571L166.322,27.036L166.39,26.786L166.458,28.214L166.527,28.179L166.595,28.321L166.664,28.393L166.732,28.393L166.801,28.286L166.869,28.071L166.938,28.25L167.006,28L167.074,28.429L167.143,29.464L167.211,29.786L167.28,30.75L167.348,31.5L167.417,31.5L167.485,31.857L167.554,32.107L167.622,32.464L167.691,33.893L167.759,34.143L167.827,33.25L167.896,33.643L167.964,33.75L168.033,33.643L168.101,34.071L168.17,34.607L168.238,34.25L168.307,34.929L168.375,34.25L168.443,34.036L168.512,33.393L168.58,34.536L168.649,35.25L168.717,34.964L168.786,34.964L168.854,34.107L168.923,33.536L168.991,33.393L169.059,33.179L169.128,33L169.196,32.071L169.265,31.393L169.333,31.357L169.402,30.214L169.47,30.75L169.539,31.179L169.607,31.714L169.675,31.857L169.744,31.786L169.812,33.214L169.881,33.071L169.949,33.107L170.018,34.25L170.086,35.429L170.155,36.643L170.223,36.107L170.291,36.571L170.36,36.214L170.428,36.857L170.497,38.429L170.565,39.286L170.634,40.071L170.702,39.429L170.771,40.643L170.839,40.393L170.907,41.571L170.976,42.714L171.044,42.929L171.113,41.679L171.181,40.464L171.253,41.25L171.321,41.321L171.389,42.143L171.458,43.214L171.526,43.071L171.595,43.179L171.663,42.821L171.732,42.071L171.8,42.25L171.869,41L171.937,42.107L172.005,41.714L172.074,40.571L172.142,40.143L172.211,40L172.279,39.786L172.348,40.179L172.416,41.036L172.485,42.214L172.553,43.214L172.621,43.143L172.69,42.179L172.758,42.464L172.827,41.393L172.895,41.214L172.964,41.786L173.032,41.893L173.101,41.857L173.169,42.107L173.238,42.75L173.306,42.679L173.374,44.607L173.443,43.679L173.511,42.821L173.58,42.679L173.648,42.393L173.717,42.429L173.785,42.643L173.854,42.571L173.922,42.714L173.99,41.429L174.059,41.071L174.127,40.25L174.196,38.714L174.264,39.036L174.333,39.679L174.401,39.107L174.47,37.929L174.538,36.607L174.606,34L174.675,34.821L174.743,34.536L174.812,34.536L174.88,35.25L174.949,35.607L175.017,35.036L175.086,33.964L175.154,33.143L175.222,34.536L175.291,35.821L175.359,35.75L175.428,35.393L175.496,35.214L175.565,35.393L175.633,34.571L175.702,34.393L175.77,34.214L175.838,34.643L175.907,33.679L175.975,33.036L176.044,34.357L176.112,33.821L176.181,34.929L176.249,36.107L176.318,36.5L176.386,36.25L176.454,36.464L176.523,36.679L176.591,36.75L176.66,37.536L176.728,37.393L176.797,37.75L176.865,38.643L176.934,38.571L177.002,39.357L177.07,40.036L177.139,39.75L177.207,40.214L177.276,40.464L177.344,40.179L177.413,40.214L177.481,39.393L177.55,39.643L177.618,39.714L177.687,41.214L177.755,42.286L177.823,41.714L177.892,41.143L177.96,41.036L178.029,40L178.097,38.893L178.166,39.821L178.234,40.393L178.303,40.643L178.371,39.786L178.439,38.679L178.508,37.036L178.576,35.214L178.645,33.964L178.713,33.286L178.782,30.714L178.85,28.536L178.919,26.75L178.987,24.571L179.055,23.5L179.124,22.214L179.192,22.679L179.261,23.321L179.329,22.607L179.398,21.321L179.466,20.321L179.535,20.429L179.603,20.821L179.671,20.821L179.74,20.393L179.808,18.107L179.874,17.643L179.942,17.929L180.011,18.75L180.079,19.929L180.148,19.893L180.216,19.357L180.285,18.179L180.353,17.75L180.422,16.714L180.49,16.286L180.558,17.143L180.627,18.714L180.695,18.536L180.764,18.5L180.832,19.857L180.901,21.679L180.969,22.536L181.038,25.571L181.106,26.679L181.174,27.75L181.243,27.393L181.311,25.714L181.38,25.143L181.448,26.214L181.517,28L181.585,27.679L181.654,26.321L181.722,25.036L181.79,24.607L181.859,26.107L181.927,26.607L181.996,27L182.064,26.5L182.133,25.786L182.201,26L182.27,25.357L182.338,25.643L182.406,25.464L182.475,27L182.543,27.786L182.612,28.143L182.68,27.429L182.749,27.821L182.817,27.714L182.886,27.929L182.954,28.143L183.022,28.286L183.091,27.036L183.159,25.821L183.228,24.393L183.296,24.179L183.365,25.179L183.433,25.964L183.502,27.357L183.57,26.25L183.638,25.821L183.707,26.893L183.775,28.214L183.844,27.5L183.912,27.321L183.981,27.286L184.049,25.964L184.118,25.75L184.186,25.571L184.255,25.357L184.323,25.464L184.391,24.786L184.46,23.214L184.528,19.25L184.597,19L184.665,17.607L184.734,18.286L184.802,18.75L184.871,19.321L184.939,18.143L185.007,16.5L185.076,15.643L185.144,15.893L185.213,15.786L185.281,16.357L185.35,17.143L185.418,18.321L185.487,18.821L185.555,16.286L185.623,18.321L185.692,18.964L185.76,18.679L185.829,18.893L185.897,20L185.966,19.357L186.034,19.429L186.103,20.25L186.171,21.286L186.239,21.5L186.308,21.25L186.376,21.75L186.445,22.357L186.513,23.964L186.582,25.714L186.65,25.357L186.719,26.536L186.787,25.464L186.855,25.214L186.924,23.821L186.992,22.643L187.061,22.429L187.129,22.25L187.198,22.393L187.266,22.536L187.335,22.75L187.403,21.321L187.471,19.536L187.54,15.964L187.608,16.107L187.677,13.214L187.745,13.036L187.814,11.036L187.882,9.393L187.951,9.786L188.019,10.357L188.087,9.357L188.156,9.25L188.224,8.536L188.293,9.321L188.361,10.071L188.43,10.071L188.498,10.286L188.567,10.893L188.635,11.5L188.704,12.75L188.772,13.25L188.84,14.393L188.909,13.679L188.977,14.786L189.046,16.107L189.114,17.179L189.183,18.179L189.251,18.036L189.32,17.75L189.388,14.536L189.456,12.429L189.525,11.786L189.593,14.321L189.662,14.643L189.73,15L189.799,14.75L189.867,16.821L189.936,17.607L190.004,16.5L190.072,15.857L190.141,16.857L190.209,17.357L190.278,18.179L190.346,18.679L190.415,17.179L190.483,16L190.552,16.107L190.62,15.679L190.688,16.786L190.757,16.536L190.825,15.607L190.894,14.786L190.962,15L191.031,14.857L191.099,16.536L191.168,17.321L191.236,18L191.304,17.929L191.373,17.929L191.441,21.429L191.51,24.679L191.578,27.393L191.647,27.821L191.715,27.75L191.784,28.286L191.852,28.143L191.92,27.071L191.989,27L192.057,27.607L192.126,28.786L192.194,29.607L192.263,30.25L192.331,30.321L192.4,29.5L192.468,31.071L192.537,33.036L192.605,33.25L192.673,33.679L192.742,33.464L192.81,33.179L192.879,33.536L192.947,34.179L193.016,35.429L193.084,36.036L193.153,35.214L193.221,34.071L193.289,32.429L193.358,32.321L193.426,32.429L193.495,32.429L193.563,31.679L193.632,30.536L193.7,30.571L193.769,29.786L193.837,29.786L193.905,30.179L193.974,30.929L194.042,31.964L194.111,31.714L194.179,31.143L194.248,30.607L194.316,29.75L194.385,29.179L194.453,29.893L194.521,30.429L194.59,30.607L194.658,30.5L194.727,30.321L194.795,30.393L194.864,29.893L194.932,30.607L195.001,31.036L195.069,30.179L195.137,29.857L195.206,31.679L195.274,32.179L195.343,34.679L195.411,35.464L195.48,36.714L195.548,37.357L195.617,37.786L195.685,37.179L195.753,36.607L195.822,37.321L195.89,37.429L195.959,37.393L196.027,36.071L196.096,35.179L196.167,34.571L196.235,34.321L196.304,34.464L196.372,34.679L196.441,34.286L196.509,32.679L196.578,29.25L196.646,28.393L196.715,28L196.783,28.036L196.851,27.643L196.92,27.071L196.988,26.214L197.057,26.5L197.125,26.321L197.194,25.464L197.262,24.393L197.331,25.179L197.399,22.714L197.467,21.964L197.536,21.964L197.604,21.607L197.673,21.714L197.741,21.643L197.81,22.071L197.878,21.893L197.947,22.429L198.015,23.429L198.084,24.286L198.152,24.679L198.22,25.107L198.289,25.071L198.357,25.464L198.426,25.357L198.494,25.214L198.563,27.571L198.631,30.286L198.7,29.429L198.768,29.429L198.836,29.429L198.905,29.75L198.973,31.607L199.042,33.679L199.11,34.321L199.179,35.107L199.247,36.536L199.316,37.25L199.384,37L199.452,38.321L199.521,39.036L199.589,37.536L199.658,36.786L199.726,36.5L199.795,36.286L199.863,37.036L199.932,37L200,35.786L200.068,34.107L200.137,34.536L200.205,34.893L200.274,35.214L200.342,34.393L200.411,31.964L200.479,31.5L200.548,32.143L200.616,30.893L200.684,30.571L200.753,32.214L200.821,31.25L200.89,30.786L200.958,32.036L201.027,32.393L201.095,31L201.164,30.643L201.232,31.714L201.3,31.893L201.369,30.607L201.437,30.679L201.506,29.893L201.574,29.357L201.643,29.143L201.711,29.857L201.78,30.214L201.848,30.571L201.916,29.643L201.985,30.679L202.053,31.321L202.122,31.643L202.19,31.714L202.259,30.786L202.327,34.393" stroke="#4c78a8" stroke-width="2"/></g><g class="mark-group role-title"><g transform="translate(100,-17)"><path class="background" aria-hidden="true" d="M0,0h0v0h0Z" pointer-events="none"/><g><g class="mark-text role-title-text" role="graphics-symbol" aria-roledescription="title" aria-label="Title text 'Illegal Parking: Commercial Overnight Parking'" pointer-events="none"><text text-anchor="middle" transform="translate(0,10)" font-family="sans-serif" font-size="13px" font-weight="bold" fill="#000" opacity="1">Illegal Parking: Commercial Overnight Parking</text></g></g><path class="foreground" aria-hidden="true" d="" pointer-events="none" display="none"/></g></g></g><path class="foreground" aria-hidden="true" d="" display="none"/></g></g></g><defs><clipPath id="clip130"><rect x="0" y="0" width="200" height="150"/></clipPath></defs></svg>