<svg xmlns="http://www.w3.org/2000/svg" xmlns:xlink="http://www.w3.org/1999/xlink" version="1.1" class="marks" width="530" height="194" viewBox="0 0 530 194"><rect width="530" height="194" fill="white"/><g fill="none" stroke-miterlimit="10" transform="translate(165,22)"><g class="mark-group role-frame root" role="graphics-object" aria-roledescription="group mark container"><g transform="translate(0,0)"><path class="background" aria-hidden="true" d="M0,0h200v150h-200Z"/><g><g class="mark-group role-axis" aria-hidden="true"><g transform="translate(0.5,0.5)"><path class="background" aria-hidden="true" d="M0,0h0v0h0Z" pointer-events="none"/><g><g class="mark-rule role-axis-grid" pointer-events="none"><line transform="translate(0,150)" x2="200" y2="0" stroke="#ddd" stroke-width="1" opacity="1"/><line transform="translate(0,103)" x2="200" y2="0" stroke="#ddd" stroke-width="1" opacity="1"/><line transform="translate(0,56)" x2="200" y2="0" stroke="#ddd" stroke-width="1" opacity="1"/><line transform="translate(0,9)" x2="200" y2="0" stroke="#ddd" stroke-width="1" opacity="1"/></g></g><path class="foreground" aria-hidden="true" d="" pointer-events="none" display="none"/></g></g><g class="mark-group role-axis" role="graphics-symbol" aria-roledescription="axis" aria-label="X-axis for a time scale with values from Friday, 01 January 2016, 12:00:00 AM to Monday, 01 January 2024, 12:00:00 AM"><g transform="translate(0.5,150.5)"><path class="background" aria-hidden="true" d="M0,0h0v0h0Z" pointer-events="none"/><g><g class="mark-rule role-axis-tick" pointer-events="none"><line transform="translate(0,0)" x2="0" y2="5" stroke="#888" stroke-width="1" opacity="1"/><line transform="translate(50,0)" x2="0" y2="5" stroke="#888" stroke-width="1" opacity="1"/><line transform="translate(100,0)" x2="0" y2="5" stroke="#888" stroke-width="1" opacity="1"/><line transform="translate(150,0)" x2="0" y2="5" stroke="#888" stroke-width="1" opacity="1"/><line transform="translate(200,0)" x2="0" y2="5" stroke="#888" stroke-width="1" opacity="1"/></g><g class="mark-text role-axis-label" pointer-events="none"><text text-anchor="start" transform="translate(0,15)" font-family="sans-serif" font-size="10px" fill="#000" opacity="1">2016</text><text text-anchor="middle" transform="translate(50.03422313483915,15)" font-family="sans-serif" font-size="10px" fill="#000" opacity="1">2018</text><text text-anchor="middle" transform="translate(100,15)" font-family="sans-serif" font-size="10px" fill="#000" opacity="1">2020</text><text text-anchor="middle" transform="translate(150.03422313483915,15)" font-family="sans-serif" font-size="10px" fill="#000" opacity="1">2022</text><text text-anchor="end" transform="translate(200,15)" font-family="sans-serif" font-size="10px" fill="#000" opacity="1">2024</text></g><g class="mark-rule role-axis-domain" pointer-events="none"><line transform="translate(0,0)" x2="200" y2="0" stroke="#888" stroke-width="1" opacity="1"/></g></g><path class="foreground" aria-hidden="true" d="" pointer-events="none" display="none"/></g></g><g class="mark-group role-axis" role="graphics-symbol" aria-roledescription="axis" aria-label="Y-axis for a linear scale with values from 0 to 16"><g transform="translate(0.5,0.5)"><path class="background" aria-hidden="true" d="M0,0h0v0h0Z" pointer-events="none"/><g><g class="mark-rule role-axis-tick" pointer-events="none"><line transform="translate(0,150)" x2="-5" y2="0" stroke="#888" stroke-opacity="0" stroke-width="1" opacity="1"/><line transform="translate(0,103)" x2="-5" y2="0" stroke="#888" stroke-opacity="0" stroke-width="1" opacity="1"/><line transform="translate(0,56)" x2="-5" y2="0" stroke="#888" stroke-opacity="0" stroke-width="1" opacity="1"/><line transform="translate(0,9)" x2="-5" y2="0" stroke="#888" stroke-opacity="0" stroke-width="1" opacity="1"/></g><g class="mark-text role-axis-label" pointer-events="none"><text text-anchor="end" transform="translate(-7,153)" font-family="sans-serif" font-size="10px" fill="#000" opacity="1">0</text><text text-anchor="end" transform="translate(-7,106.125)" font-family="sans-serif" font-size="10px" fill="#000" opacity="1">5</text><text text-anchor="end" transform="translate(-7,59.25)" font-family="sans-serif" font-size="10px" fill="#000" opacity="1">10</text><text text-anchor="end" transform="translate(-7,12.375)" font-family="sans-serif" font-size="10px" fill="#000" opacity="1">15</text></g></g><path class="foreground" aria-hidden="true" d="" pointer-events="none" display="none"/></g></g><g class="mark-line role-mark marks" clip-path="url(#clip153)" role="graphics-object" aria-roledescription="line mark container"><path aria-label="day: Jan 01, 2010; avg: 2.1" role="graphics-symbol" aria-roledescription="line mark" d="M-149.966,130.313L-149.76,130.625L-149.692,130.625L-149.624,130.313L-149.555,130.313L-149.487,130.313L-149.418,131.25L-149.281,131.25L-149.144,131.25L-149.076,130.625L-149.008,130.938L-148.802,131.25L-148.665,130.938L-148.597,130.938L-148.528,131.875L-148.46,132.188L-148.323,131.25L-148.255,131.875L-148.186,132.5L-148.118,132.5L-148.049,132.188L-147.775,133.125L-147.707,133.75L-147.639,133.438L-147.57,133.438L-147.365,132.5L-147.296,132.188L-147.159,130.938L-147.091,130.625L-147.023,131.25L-146.954,131.875L-146.817,131.875L-146.749,131.875L-146.68,131.25L-146.612,130.625L-146.475,130.313L-146.407,130L-146.27,130L-146.133,128.75L-146.064,128.75L-145.791,128.75L-145.722,128.438L-145.585,129.063L-145.448,128.438L-145.38,128.438L-145.311,128.125L-145.243,128.438L-145.175,128.438L-144.972,127.813L-144.904,127.5L-144.835,127.813L-144.767,127.813L-144.698,127.188L-144.63,125.625L-144.561,125.938L-144.493,126.875L-144.424,126.563L-144.356,127.813L-144.151,127.5L-144.082,126.875L-144.014,125.625L-143.945,125.625L-143.877,124.375L-143.808,124.375L-143.74,124.688L-143.535,124.063L-143.398,124.375L-143.261,124.375L-143.056,124.688L-142.987,125.313L-142.919,125.313L-142.85,125.313L-142.782,123.438L-142.713,123.125L-142.645,122.5L-142.576,122.813L-142.508,122.813L-142.44,121.875L-142.303,122.813L-142.166,122.5L-142.097,121.875L-141.96,121.875L-141.824,122.188L-141.55,121.25L-141.413,119.687L-141.344,119.375L-141.276,120L-141.139,119.375L-141.071,118.75L-141.002,119.375L-140.934,120L-140.865,119.687L-140.728,120L-140.66,120.625L-140.591,120.313L-140.523,120L-140.455,120L-140.386,119.375L-140.318,120L-140.249,119.375L-140.181,119.375L-140.112,120L-140.044,120.938L-139.975,121.563L-139.907,121.563L-139.839,121.563L-139.633,121.875L-139.565,121.875L-139.496,120.938L-139.428,120.625L-139.359,120.938L-139.291,120.938L-139.223,121.25L-139.154,124.063L-139.086,125.625L-138.949,125.938L-138.88,125.625L-138.743,126.25L-138.607,127.5L-138.538,127.813L-138.47,128.125L-138.264,128.438L-138.196,128.75L-138.127,127.5L-137.991,126.875L-137.922,127.5L-137.854,126.25L-137.785,124.688L-137.717,124.063L-137.648,124.375L-137.58,123.125L-137.511,122.5L-137.375,123.438L-137.238,122.813L-137.169,122.813L-137.101,122.5L-137.032,122.813L-136.758,123.75L-136.69,123.75L-136.622,123.125L-136.553,122.5L-136.485,121.875L-136.348,121.563L-136.279,121.25L-136.211,120.625L-136.142,120L-136.074,120L-136.006,120L-135.937,119.063L-135.869,119.063L-135.8,119.375L-135.732,119.375L-135.595,119.375L-135.526,120.313L-135.458,121.563L-135.39,121.875L-135.321,122.5L-135.253,124.688L-135.184,125.313L-135.116,125.625L-135.047,126.875L-134.91,126.875L-134.842,125.938L-134.774,125.938L-134.705,125.938L-134.637,126.25L-134.431,126.25L-134.363,126.25L-134.294,127.188L-134.226,127.5L-134.158,128.438L-134.021,128.438L-133.952,128.438L-133.884,129.063L-133.815,127.813L-133.747,127.5L-133.678,127.5L-133.61,126.875L-133.405,127.188L-133.336,126.875L-133.268,125.313L-133.199,124.375L-133.131,124.375L-132.926,124.375L-132.857,124.063L-132.789,122.813L-132.72,122.5L-132.652,121.875L-132.583,121.875L-132.515,120.938L-132.446,121.25L-132.309,121.875L-132.241,121.563L-132.173,121.25L-132.104,121.563L-132.036,121.563L-131.899,119.375L-131.83,118.75L-131.762,118.75L-131.693,118.438L-131.625,118.125L-131.557,118.75L-131.488,119.063L-131.42,117.813L-131.351,119.375L-131.283,119.687L-131.146,119.687L-131.077,119.375L-131.009,118.75L-130.941,118.438L-130.872,119.063L-130.804,119.687L-130.735,120.313L-130.598,120.938L-130.53,120.313L-130.393,121.875L-130.325,121.563L-130.256,121.875L-130.119,121.875L-130.051,122.5L-129.982,121.875L-129.914,121.563L-129.845,122.813L-129.777,124.063L-129.709,124.063L-129.64,124.063L-129.572,126.25L-129.503,126.563L-129.435,125.938L-129.366,126.25L-129.229,124.063L-129.161,124.063L-129.093,123.75L-129.024,124.688L-128.956,124.063L-128.887,124.375L-128.75,124.688L-128.611,124.063L-128.542,125L-128.474,124.688L-128.405,125.313L-128.268,125.313L-128.2,124.688L-128.131,124.063L-128.063,124.688L-127.995,124.688L-127.926,125.938L-127.789,126.25L-127.721,126.25L-127.652,126.563L-127.584,126.875L-127.515,126.25L-127.31,125.313L-127.242,124.375L-127.173,124.375L-127.105,123.75L-126.968,123.438L-126.899,123.438L-126.831,123.125L-126.762,123.438L-126.694,125.625L-126.626,125.625L-126.557,125.313L-126.489,125.625L-126.42,125.938L-126.352,125.625L-126.283,125L-126.215,126.563L-126.146,126.563L-126.078,127.5L-126.01,127.813L-125.804,127.5L-125.736,128.125L-125.667,128.125L-125.462,128.125L-125.394,126.563L-125.257,126.563L-125.188,126.563L-125.12,126.875L-125.051,126.875L-124.846,126.25L-124.778,127.188L-124.709,128.125L-124.641,128.438L-124.572,128.75L-124.367,129.063L-124.298,129.375L-124.23,129.688L-124.162,130.625L-124.093,131.563L-124.025,131.875L-123.888,131.563L-123.819,132.188L-123.751,132.5L-123.682,130.313L-123.614,130.938L-123.546,130.625L-123.409,130.313L-123.34,127.188L-123.272,127.188L-123.135,127.188L-122.998,127.188L-122.93,126.25L-122.861,126.563L-122.793,126.875L-122.724,128.125L-122.656,126.875L-122.519,126.875L-122.45,126.875L-122.382,125.938L-122.245,126.875L-122.108,126.875L-121.903,126.563L-121.834,124.688L-121.766,124.375L-121.697,122.188L-121.561,122.188L-121.492,122.188L-121.355,121.563L-121.287,120.625L-121.081,120L-121.013,119.687L-120.808,119.063L-120.739,118.75L-120.671,120.625L-120.534,120.313L-120.465,121.25L-120.26,121.563L-120.123,124.375L-119.989,124.063L-119.921,124.063L-119.852,124.063L-119.784,125L-119.715,124.688L-119.578,122.188L-119.51,122.5L-119.442,123.125L-119.373,122.5L-119.305,121.875L-119.236,121.875L-119.168,120.938L-119.031,120.625L-118.962,118.438L-118.894,115.625L-118.826,113.438L-118.757,115L-118.689,114.063L-118.62,113.125L-118.552,114.063L-118.483,115L-118.415,113.438L-118.346,113.438L-118.21,113.438L-118.141,113.438L-118.073,114.063L-118.004,104.063L-117.936,103.438L-117.867,102.188L-117.799,98.75L-117.73,97.5L-117.662,96.563L-117.594,94.688L-117.525,93.75L-117.457,94.063L-117.388,94.688L-117.251,93.125L-117.183,92.5L-117.114,92.813L-117.046,92.187L-116.978,92.813L-116.909,93.75L-116.772,92.187L-116.704,93.438L-116.635,98.125L-116.567,99.375L-116.498,100.313L-116.43,100.937L-116.362,101.562L-116.293,100L-116.225,98.75L-116.156,100.313L-116.088,98.438L-116.019,98.75L-115.951,98.125L-115.882,97.813L-115.814,106.875L-115.745,106.563L-115.677,107.188L-115.609,110.625L-115.54,110.937L-115.472,111.875L-115.403,114.375L-115.335,114.063L-115.266,112.813L-115.198,113.75L-115.129,115L-115.061,116.25L-114.993,116.25L-114.924,115.938L-114.856,115.625L-114.787,115.313L-114.719,117.188L-114.65,118.438L-114.582,119.063L-114.513,120L-114.445,119.687L-114.377,118.438L-114.308,117.5L-114.24,118.75L-114.171,120L-114.103,120L-114.034,122.5L-113.966,122.188L-113.897,123.125L-113.829,122.813L-113.761,123.438L-113.692,124.375L-113.624,125L-113.555,125.313L-113.487,125.625L-113.418,125L-113.35,123.75L-113.281,124.688L-113.213,125.938L-113.145,125.625L-112.939,125.938L-112.871,125.625L-112.802,125.625L-112.734,127.188L-112.665,126.875L-112.597,126.563L-112.529,126.25L-112.46,125.938L-112.392,124.688L-112.323,124.688L-112.255,124.688L-112.186,125.313L-112.118,126.563L-112.049,125.938L-111.913,125.938L-111.844,126.563L-111.776,125.938L-111.707,125.938L-111.639,125.625L-111.57,126.563L-111.502,126.875L-111.433,125.938L-111.365,125.625L-111.296,125.313L-111.228,125.938L-111.16,126.25L-111.023,126.25L-110.954,126.563L-110.886,126.875L-110.817,128.125L-110.749,128.125L-110.68,128.438L-110.544,128.125L-110.475,126.875L-110.407,127.813L-110.338,127.813L-110.27,127.188L-110.201,127.5L-110.064,127.813L-109.996,127.188L-109.928,127.188L-109.791,127.188L-109.722,126.563L-109.654,125.625L-109.517,123.75L-109.448,123.125L-109.38,123.125L-109.312,123.75L-109.175,123.125L-109.038,122.188L-108.969,122.188L-108.901,122.188L-108.832,121.875L-108.627,122.188L-108.559,121.563L-108.49,121.875L-108.422,121.875L-108.353,121.563L-108.08,120.938L-108.011,120.938L-107.943,120.625L-107.874,119.375L-107.806,119.687L-107.737,120L-107.6,119.375L-107.532,119.063L-107.463,119.375L-107.395,118.75L-107.327,119.687L-107.258,120.625L-107.121,120.313L-107.053,119.063L-106.984,119.687L-106.916,121.25L-106.847,123.125L-106.779,123.125L-106.711,123.75L-106.642,123.438L-106.574,124.375L-106.505,124.063L-106.368,124.375L-106.3,124.063L-106.231,124.688L-106.163,123.438L-106.095,124.063L-106.026,123.75L-105.958,124.688L-105.889,125L-105.821,125.313L-105.684,125L-105.615,124.375L-105.547,125.313L-105.479,125.313L-105.41,125.938L-105.342,125.625L-105.273,125.938L-105.205,122.188L-105.136,122.5L-105.068,122.5L-104.931,122.5L-104.863,121.875L-104.794,122.188L-104.726,121.875L-104.589,121.25L-104.383,120.625L-104.315,120.313L-104.178,120L-104.11,120L-103.973,119.063L-103.904,119.375L-103.765,118.75L-103.696,120L-103.628,120.313L-103.559,121.875L-103.491,120.938L-103.422,120.625L-103.354,119.687L-103.285,119.375L-103.217,119.687L-103.08,119.375L-103.012,120.313L-102.943,120.625L-102.875,120.938L-102.806,120.313L-102.738,120.938L-102.669,120.938L-102.533,125.313L-102.464,125.625L-102.396,124.688L-102.327,123.438L-102.259,124.688L-102.19,126.25L-102.122,125.625L-102.053,126.25L-101.985,126.563L-101.916,126.563L-101.78,126.25L-101.711,126.563L-101.643,127.188L-101.574,127.813L-101.506,128.125L-101.437,128.125L-101.369,128.125L-101.3,128.125L-101.232,129.063L-101.164,129.375L-101.095,130.625L-101.027,130.625L-100.89,130.625L-100.821,130.625L-100.753,130.625L-100.616,130.625L-100.342,130L-100.274,130.313L-100.137,129.063L-99.932,128.75L-99.863,128.125L-99.795,127.188L-99.726,128.125L-99.658,129.375L-99.452,129.375L-99.384,129.063L-99.316,129.375L-99.247,129.688L-99.11,129.688L-99.042,130.625L-98.973,130.313L-98.905,129.063L-98.836,129.375L-98.768,129.063L-98.631,129.063L-98.563,129.063L-98.426,128.75L-98.357,128.125L-98.289,127.813L-98.22,127.813L-98.152,127.188L-98.084,126.875L-97.878,125.938L-97.81,125.625L-97.741,125.625L-97.536,125.625L-97.467,125.938L-97.399,125.313L-97.262,126.563L-97.194,127.5L-97.125,127.188L-97.057,126.563L-96.988,126.25L-96.92,125.938L-96.851,125.313L-96.783,125L-96.715,124.688L-96.646,124.688L-96.578,124.375L-96.509,124.063L-96.372,124.063L-96.304,125L-96.235,123.75L-96.167,124.063L-96.099,124.063L-96.03,124.063L-95.962,124.375L-95.893,124.688L-95.825,124.375L-95.756,124.063L-95.688,122.813L-95.619,123.125L-95.551,123.125L-95.483,124.063L-95.414,122.813L-95.346,122.5L-95.209,122.813L-95.143,123.75L-95.075,123.438L-95.006,123.438L-94.938,124.375L-94.869,125.625L-94.801,124.375L-94.664,123.75L-94.596,122.5L-94.527,122.188L-94.459,122.5L-94.39,122.5L-94.322,122.813L-94.048,122.5L-93.98,122.5L-93.911,121.875L-93.843,122.188L-93.774,121.563L-93.706,121.875L-93.637,121.563L-93.569,120.938L-93.5,117.5L-93.432,117.188L-93.364,117.813L-93.295,119.687L-93.227,120L-93.09,119.687L-93.021,119.375L-92.884,119.687L-92.816,119.063L-92.748,118.125L-92.679,118.438L-92.611,118.75L-92.542,118.125L-92.474,117.5L-92.405,117.188L-92.268,118.75L-92.2,118.75L-92.132,120.313L-92.063,120.625L-91.995,120.938L-91.858,120L-91.789,120.313L-91.721,120.625L-91.652,121.563L-91.584,121.875L-91.516,122.813L-91.447,123.75L-91.379,123.125L-91.31,123.125L-91.242,123.438L-91.173,126.563L-91.105,127.813L-91.036,127.813L-90.899,126.875L-90.831,126.875L-90.763,127.813L-90.694,127.188L-90.626,127.5L-90.557,127.5L-90.42,128.125L-90.283,128.125L-90.215,127.813L-90.147,115.625L-89.941,113.438L-89.873,113.75L-89.804,113.438L-89.667,114.375L-89.599,114.688L-89.531,115L-89.394,114.688L-89.325,115.313L-89.257,115.313L-89.188,115.625L-89.12,115.313L-88.983,115.938L-88.915,113.125L-88.846,112.813L-88.778,113.438L-88.709,112.813L-88.435,111.563L-88.367,111.25L-88.299,110.937L-88.23,110.937L-88.162,110.312L-88.093,110L-88.025,110L-87.956,110.312L-87.888,110.312L-87.819,110.625L-87.683,110.312L-87.477,110.312L-87.409,110.937L-87.34,122.5L-87.272,125.313L-87.203,125.313L-87.135,125.625L-86.998,124.688L-86.93,124.375L-86.861,125L-86.793,125.625L-86.724,125.625L-86.656,125L-86.45,125L-86.382,125.313L-86.314,124.688L-86.245,127.5L-86.177,127.813L-86.108,127.188L-86.04,127.5L-85.971,128.438L-85.903,129.375L-85.834,129.375L-85.766,129.063L-85.698,130.313L-85.629,129.063L-85.561,128.75L-85.492,129.375L-85.424,130L-85.355,130.313L-85.287,130.938L-85.218,130.625L-85.15,130.313L-85.082,131.563L-85.013,131.563L-84.945,129.688L-84.876,129.688L-84.808,130.625L-84.739,130.625L-84.671,130.313L-84.602,130.313L-84.534,129.688L-84.466,129.063L-84.397,128.438L-84.329,128.438L-84.192,128.125L-84.123,128.125L-84.055,127.188L-83.986,126.875L-83.85,127.188L-83.781,127.188L-83.713,126.875L-83.644,127.188L-83.576,126.875L-83.507,126.25L-83.439,127.5L-83.37,128.125L-83.234,127.813L-83.165,127.188L-83.097,127.188L-83.028,127.188L-82.96,127.5L-82.891,127.188L-82.754,126.875L-82.686,126.563L-82.617,127.5L-82.549,126.563L-82.481,126.563L-82.412,126.25L-82.275,126.563L-82.207,125.938L-82.138,124.688L-82.001,125.938L-81.933,125.625L-81.865,125L-81.796,125.938L-81.728,125.625L-81.659,126.563L-81.591,127.5L-81.522,126.875L-81.454,126.875L-81.317,124.688L-81.249,123.75L-81.18,123.75L-81.112,124.063L-81.043,124.063L-80.975,123.75L-80.838,123.75L-80.769,123.75L-80.701,124.063L-80.633,123.438L-80.564,122.188L-80.496,121.875L-80.359,122.188L-80.29,121.563L-80.222,122.813L-80.153,123.75L-80.085,123.75L-80.017,124.375L-79.88,124.063L-79.811,124.063L-79.743,125.625L-79.674,125.313L-79.606,124.063L-79.469,124.063L-79.127,123.75L-79.058,122.813L-78.99,122.5L-78.921,121.563L-78.85,122.5L-78.782,122.188L-78.713,124.375L-78.645,125.313L-78.576,125L-78.508,125.313L-78.303,125.313L-78.234,125.625L-78.166,125L-78.097,125.313L-78.029,124.688L-77.96,124.375L-77.892,125.625L-77.823,125.938L-77.755,125.625L-77.618,126.563L-77.55,125.938L-77.481,125.938L-77.413,125.938L-77.344,125.625L-77.207,125.313L-77.139,125.938L-77.07,126.25L-77.002,126.25L-76.934,127.813L-76.797,127.5L-76.728,127.5L-76.66,128.125L-76.523,128.125L-76.454,127.813L-76.318,127.5L-76.249,128.438L-76.112,128.75L-76.044,128.125L-75.907,128.125L-75.838,128.125L-75.565,127.813L-75.291,127.813L-75.154,128.125L-75.086,127.813L-75.017,127.188L-74.949,127.188L-74.88,125.625L-74.606,126.25L-74.538,125.625L-74.47,125.313L-74.333,125.938L-74.264,125.938L-74.196,125.313L-74.127,125.625L-74.059,126.25L-73.99,125.938L-73.922,125.625L-73.854,125.938L-73.785,125.625L-73.648,126.25L-73.58,126.563L-73.511,126.25L-73.443,125.938L-73.374,126.875L-73.238,126.875L-73.169,125.938L-73.101,125.625L-72.964,126.25L-72.827,126.875L-72.758,126.563L-72.69,126.875L-72.621,126.875L-72.553,127.5L-72.485,128.125L-72.416,129.063L-72.348,130L-72.279,130.625L-72.211,130.313L-72.142,131.25L-72.074,131.25L-72.005,130.938L-71.869,130.938L-71.8,131.25L-71.732,131.25L-71.663,131.25L-71.526,131.563L-71.389,132.188L-71.253,131.875L-71.184,132.813L-71.116,133.125L-71.047,133.125L-70.979,133.75L-70.705,134.375L-70.637,134.688L-70.5,135L-70.363,135L-70.294,134.375L-70.229,132.813L-70.16,132.188L-70.023,132.5L-69.955,132.813L-69.886,132.5L-69.75,131.875L-69.476,131.875L-69.407,131.875L-69.339,131.563L-69.27,132.5L-69.202,132.5L-69.134,132.188L-69.065,131.875L-68.997,132.188L-68.928,131.875L-68.86,132.188L-68.791,131.875L-68.723,130.938L-68.654,130.938L-68.586,130.938L-68.518,130L-68.449,130L-68.381,130L-68.312,129.688L-68.244,129.688L-68.175,129.375L-68.107,128.75L-68.038,128.75L-67.833,129.688L-67.765,129.375L-67.696,130L-67.559,130.625L-67.491,130.625L-67.422,130.625L-67.354,130.625L-67.286,130.938L-67.08,130.625L-67.012,130L-66.943,130L-66.875,129.688L-66.806,128.438L-66.67,126.875L-66.601,127.188L-66.533,126.875L-66.464,126.875L-66.396,126.875L-66.327,127.188L-66.259,126.563L-66.19,126.25L-66.122,125.938L-66.054,127.188L-65.985,126.875L-65.848,126.25L-65.78,125.625L-65.643,125.938L-65.574,125.625L-65.506,125.625L-65.437,125.625L-65.369,125.313L-65.232,125.625L-65.164,125.938L-65.095,124.688L-65.027,124.688L-64.958,124.063L-64.89,124.375L-64.821,124.375L-64.753,124.688L-64.685,125.625L-64.616,125.313L-64.479,125L-64.411,125.938L-64.342,127.813L-64.274,128.125L-64.137,125.625L-64.069,125.938L-64,125.625L-63.932,124.688L-63.863,125.938L-63.726,126.25L-63.521,125.625L-63.453,125L-63.384,124.375L-63.316,125L-63.179,125.625L-63.042,125.625L-62.973,125.938L-62.905,126.563L-62.837,126.563L-62.768,126.875L-62.631,127.188L-62.563,125.938L-62.494,127.188L-62.426,127.5L-62.357,128.125L-62.289,128.125L-62.152,128.438L-62.015,127.813L-61.947,126.875L-61.878,127.5L-61.81,127.5L-61.741,127.813L-61.673,127.5L-61.604,127.5L-61.536,129.688L-61.399,129.688L-61.331,129.063L-61.262,129.688L-61.194,130L-60.988,129.688L-60.92,130.313L-60.852,130.625L-60.646,131.25L-60.578,131.25L-60.509,130.938L-60.441,130.625L-60.372,130.625L-60.304,129.688L-60.236,129.688L-60.167,129.688L-60.03,130.313L-59.962,131.875L-59.893,130.938L-59.825,130.625L-59.756,130.625L-59.688,130.313L-59.62,130L-59.209,130.313L-59.14,130.938L-59.004,129.063L-58.935,129.688L-58.867,130L-58.798,129.375L-58.73,129.375L-58.661,129.375L-58.524,128.438L-58.456,129.375L-58.388,129.375L-58.251,129.375L-58.182,129.688L-58.114,130L-58.045,130L-57.977,129.063L-57.908,129.063L-57.84,129.688L-57.772,129.375L-57.703,129.688L-57.566,130.313L-57.498,129.688L-57.361,129.688L-57.292,129.063L-57.224,129.375L-57.155,130.313L-57.087,130.625L-57.019,130.313L-56.882,129.375L-56.813,129.375L-56.745,129.375L-56.676,129.063L-56.608,130.313L-56.539,129.375L-56.471,127.813L-56.403,128.125L-56.334,128.125L-56.266,128.438L-56.197,129.063L-56.129,124.375L-56.06,124.375L-55.992,123.75L-55.923,123.75L-55.855,123.125L-55.787,122.5L-55.718,122.5L-55.65,121.25L-55.581,118.438L-55.513,119.063L-55.376,119.063L-55.307,116.875L-55.239,117.5L-55.171,117.5L-55.102,116.25L-55.034,116.25L-54.897,115.938L-54.828,113.75L-54.76,114.063L-54.691,115L-54.623,115.313L-54.418,115L-54.349,114.063L-54.281,113.438L-54.212,113.75L-54.144,115L-54.075,115.625L-53.936,115.313L-53.867,115L-53.799,115.313L-53.73,119.063L-53.662,119.375L-53.593,120L-53.525,119.063L-53.457,119.687L-53.388,120.625L-53.32,121.25L-53.251,121.875L-53.183,124.375L-53.114,124.375L-52.977,124.375L-52.909,126.563L-52.841,126.25L-52.772,125.938L-52.704,127.813L-52.635,126.563L-52.43,127.188L-52.361,129.063L-52.225,128.125L-52.156,127.813L-52.088,125.625L-52.019,126.25L-51.951,127.813L-51.882,128.75L-51.814,128.438L-51.745,128.438L-51.677,127.5L-51.608,126.563L-51.54,126.25L-51.472,125.313L-51.403,125L-51.335,124.688L-51.266,123.75L-51.198,123.75L-51.061,122.5L-50.992,121.875L-50.924,122.188L-50.856,120.313L-50.787,120L-50.719,72.813L-50.65,72.813L-50.582,53.75L-50.445,38.75L-50.376,15.625L-50.308,15.625L-50.24,16.563L-50.171,16.25L-50.103,15.937L-50.034,16.875L-49.897,17.188L-49.829,19.063L-49.76,19.063L-49.692,18.438L-49.624,18.125L-49.555,19.063L-49.487,18.75L-49.418,19.687L-49.35,20.937L-49.144,21.25L-49.076,21.875L-49.008,22.813L-48.939,22.813L-48.871,23.125L-48.802,24.062L-48.597,24.687L-48.528,24.687L-48.46,24.687L-48.392,27.188L-48.323,27.5L-48.255,74.688L-48.186,74.688L-48.118,94.063L-48.049,109.063L-47.912,132.5L-47.707,132.5L-47.639,132.188L-47.57,130L-47.502,129.688L-47.296,127.813L-47.228,127.5L-47.159,127.5L-47.091,125.938L-47.023,125.313L-46.954,125.938L-46.886,125.938L-46.817,125.938L-46.749,125.938L-46.68,125.313L-46.612,125.313L-46.543,125.313L-46.27,125.313L-46.064,124.688L-45.996,124.688L-45.791,124.375L-45.722,124.688L-45.585,125.313L-45.517,125.625L-45.448,125.625L-45.38,125.625L-45.314,124.375L-45.246,123.438L-45.177,123.125L-45.109,123.438L-44.835,123.125L-44.767,122.5L-44.698,122.813L-44.63,124.688L-44.561,124.688L-44.493,126.25L-44.424,126.563L-44.356,126.875L-44.288,127.813L-44.151,127.188L-43.945,125.625L-43.877,124.375L-43.808,124.688L-43.74,124.375L-43.672,124.688L-43.603,124.063L-43.466,123.125L-43.398,123.438L-43.329,124.063L-43.261,124.375L-43.192,123.438L-43.124,123.438L-42.987,122.813L-42.919,120.313L-42.85,118.438L-42.782,118.438L-42.713,119.063L-42.645,119.687L-42.576,119.687L-42.508,118.75L-42.44,118.438L-42.371,118.438L-42.303,117.188L-42.234,117.188L-42.166,118.125L-42.097,117.813L-42.029,117.188L-41.96,115.938L-41.892,115.938L-41.824,117.5L-41.755,117.5L-41.687,117.5L-41.618,117.813L-41.55,117.813L-41.481,116.25L-41.413,116.563L-41.344,117.5L-41.276,116.563L-41.208,116.25L-41.139,115.313L-41.071,115L-41.002,115L-40.865,115.625L-40.797,117.5L-40.728,117.813L-40.66,117.813L-40.591,117.5L-40.523,117.5L-40.455,117.813L-40.386,118.438L-40.318,118.75L-40.249,118.125L-40.181,118.75L-40.112,119.375L-39.975,119.063L-39.907,119.375L-39.77,120L-39.702,120.938L-39.633,121.25L-39.565,121.563L-39.496,121.563L-39.428,122.813L-39.359,122.813L-39.291,123.125L-39.223,124.375L-39.154,124.688L-39.086,123.438L-39.017,123.125L-38.949,123.75L-38.88,124.688L-38.812,125.313L-38.743,125.625L-38.675,125.625L-38.607,125.625L-38.538,126.563L-38.47,126.25L-38.401,127.188L-38.333,127.5L-38.264,126.875L-38.196,126.563L-38.127,126.563L-38.059,127.813L-37.991,128.75L-37.922,127.5L-37.854,127.813L-37.785,127.813L-37.717,128.125L-37.648,127.5L-37.58,127.5L-37.511,126.563L-37.443,127.813L-37.306,126.875L-37.238,126.25L-37.169,126.25L-37.101,125.938L-37.032,126.563L-36.964,127.813L-36.69,129.063L-36.622,127.813L-36.553,127.5L-36.485,128.125L-36.348,127.813L-36.211,127.813L-36.142,128.438L-36.074,128.125L-36.006,126.875L-35.869,126.875L-35.8,125.625L-35.732,125.625L-35.663,125.938L-35.595,126.25L-35.526,125.938L-35.458,125.625L-35.39,126.25L-35.321,125.938L-35.253,126.25L-35.116,125.938L-35.047,126.25L-34.979,126.563L-34.774,126.563L-34.705,126.25L-34.637,126.875L-34.568,126.875L-34.5,126.563L-34.431,127.5L-34.363,127.188L-34.294,126.563L-34.226,126.563L-34.158,127.813L-34.089,128.438L-34.021,128.75L-33.952,128.75L-33.884,128.125L-33.815,127.813L-33.747,127.813L-33.678,129.375L-33.61,128.75L-33.542,130L-33.473,129.688L-33.405,130L-33.268,129.688L-33.199,129.063L-33.131,128.75L-33.062,129.375L-32.994,129.375L-32.857,129.063L-32.789,129.063L-32.72,129.063L-32.652,128.125L-32.583,128.75L-32.515,128.75L-32.378,128.125L-32.309,128.75L-32.241,128.75L-32.173,128.125L-32.104,128.125L-31.899,128.438L-31.83,127.188L-31.762,126.875L-31.693,125.938L-31.625,124.688L-31.557,125L-31.488,125.625L-31.42,125.625L-31.351,126.563L-31.283,124.375L-31.214,124.063L-31.146,123.75L-31.009,124.688L-30.941,124.688L-30.872,124.375L-30.804,122.5L-30.735,122.813L-30.667,122.5L-30.598,122.188L-30.53,121.875L-30.461,121.563L-30.393,122.188L-30.325,121.563L-30.256,121.563L-30.188,121.875L-30.119,122.188L-30.051,121.875L-29.982,120.938L-29.914,121.25L-29.845,121.563L-29.777,122.188L-29.503,121.25L-29.435,120.938L-29.366,120.938L-29.298,121.875L-29.229,121.563L-29.161,121.563L-29.093,120.938L-29.021,120L-28.953,122.5L-28.884,123.438L-28.747,123.125L-28.679,122.813L-28.542,121.875L-28.474,122.5L-28.405,125.313L-28.337,125.313L-28.268,125.625L-28.063,126.25L-27.995,126.563L-27.926,127.188L-27.858,127.188L-27.789,128.125L-27.721,127.813L-27.652,128.125L-27.584,128.75L-27.515,129.063L-27.447,130L-27.379,130.313L-27.31,130L-27.105,130L-27.036,131.875L-26.968,131.875L-26.899,132.188L-26.831,132.5L-26.694,132.5L-26.626,132.188L-26.489,133.125L-26.352,134.063L-26.215,132.5L-26.146,130.938L-26.078,131.563L-25.941,131.875L-25.873,132.188L-25.804,132.188L-25.667,131.563L-25.599,130.625L-25.394,130.313L-25.325,129.063L-25.257,129.063L-25.188,127.813L-25.12,127.188L-25.051,127.813L-24.983,128.125L-24.914,128.125L-24.846,127.188L-24.709,127.188L-24.641,127.5L-24.572,127.188L-24.504,127.5L-24.435,127.5L-24.23,126.563L-24.162,126.563L-24.093,126.875L-24.025,125L-23.956,125L-23.819,125.313L-23.751,123.125L-23.682,122.813L-23.614,124.063L-23.546,125.625L-23.477,124.688L-23.409,124.375L-23.34,122.188L-23.272,121.875L-23.203,122.5L-23.135,123.125L-23.066,122.5L-22.93,123.75L-22.861,122.5L-22.724,123.438L-22.656,123.75L-22.587,123.125L-22.45,122.5L-22.313,121.563L-22.177,121.875L-22.108,121.563L-22.04,121.563L-21.903,120.938L-21.834,119.063L-21.766,119.063L-21.697,119.375L-21.629,119.063L-21.355,117.813L-21.287,118.75L-21.218,118.75L-21.15,118.75L-21.081,120.938L-21.013,119.687L-20.945,118.438L-20.876,116.25L-20.808,116.563L-20.739,116.25L-20.602,119.063L-20.465,119.063L-20.4,119.063L-20.331,119.687L-20.263,120.313L-20.195,119.687L-20.126,120.938L-20.058,121.25L-19.921,121.25L-19.852,121.25L-19.784,122.188L-19.715,122.5L-19.578,123.125L-19.51,122.5L-19.442,122.188L-19.373,122.188L-19.305,123.75L-19.236,123.125L-19.168,123.125L-18.962,122.5L-18.826,123.75L-18.757,124.375L-18.689,123.438L-18.62,123.125L-18.483,123.125L-18.415,124.063L-18.346,123.438L-18.21,125.625L-18.141,124.688L-18.073,125L-18.004,124.063L-17.936,124.375L-17.867,124.063L-17.799,123.125L-17.73,123.125L-17.594,123.438L-17.525,122.813L-17.457,122.813L-17.388,122.188L-17.32,122.813L-17.251,122.5L-17.114,122.188L-17.046,122.188L-16.978,123.125L-16.841,121.563L-16.772,121.875L-16.704,121.875L-16.635,122.5L-16.567,122.813L-16.498,124.375L-16.43,123.438L-16.362,123.75L-16.225,124.688L-16.088,122.5L-16.019,121.875L-15.951,121.875L-15.882,124.063L-15.814,123.438L-15.745,124.688L-15.677,124.375L-15.609,125L-15.54,124.063L-15.472,124.063L-15.403,124.688L-15.335,123.438L-15.266,123.438L-15.198,123.125L-15.061,122.813L-14.993,123.125L-14.924,122.5L-14.856,121.25L-14.787,121.563L-14.719,121.25L-14.65,120L-14.582,121.563L-14.513,120.625L-14.445,120.313L-14.377,119.375L-14.308,120L-14.171,120L-14.103,120.938L-14.034,120.313L-13.966,120L-13.897,122.188L-13.829,121.875L-13.761,121.563L-13.692,121.563L-13.624,121.563L-13.555,120L-13.487,120L-13.418,119.687L-13.281,118.438L-13.213,117.813L-13.145,117.813L-13.076,118.438L-13.008,118.75L-12.939,119.063L-12.802,119.375L-12.734,119.375L-12.665,119.375L-12.597,119.063L-12.529,119.687L-12.392,119.375L-12.255,120L-12.186,119.687L-12.118,120.313L-12.049,120L-11.981,120.938L-11.913,120.313L-11.844,120.313L-11.776,120L-11.639,119.687L-11.57,120L-11.502,120L-11.433,120.938L-11.365,121.563L-11.296,120.313L-11.228,119.687L-11.16,121.563L-11.091,120.938L-11.023,120.938L-10.954,122.5L-10.886,122.813L-10.817,122.188L-10.749,122.813L-10.68,122.5L-10.612,122.5L-10.544,122.188L-10.475,122.813L-10.338,122.813L-10.27,124.375L-10.201,123.125L-10.133,120.938L-10.064,120.625L-9.859,121.25L-9.791,122.188L-9.654,121.875L-9.585,120.625L-9.448,119.375L-9.38,118.438L-9.312,118.75L-9.243,119.687L-9.106,119.063L-9.038,119.063L-8.969,118.75L-8.901,117.5L-8.832,118.75L-8.764,120L-8.696,119.375L-8.627,113.438L-8.49,112.813L-8.422,112.5L-8.353,112.188L-8.285,112.813L-8.216,111.25L-8.148,110.312L-8.08,110.625L-8.011,109.688L-7.943,109.688L-7.874,110L-7.806,110L-7.737,110L-7.669,111.25L-7.6,111.563L-7.532,111.563L-7.463,111.25L-7.395,111.25L-7.327,112.188L-7.258,112.188L-7.19,112.5L-7.053,112.813L-6.984,112.188L-6.916,110.312L-6.847,108.75L-6.779,108.438L-6.711,109.063L-6.574,108.438L-6.505,108.125L-6.437,108.438L-6.368,115L-6.3,114.688L-6.231,114.375L-6.163,114.688L-6.026,115L-5.958,116.563L-5.889,117.5L-5.752,117.813L-5.684,116.563L-5.615,116.563L-5.547,115.938L-5.479,115.938L-5.41,117.188L-5.342,118.75L-5.273,118.75L-5.136,118.438L-5.068,117.188L-4.931,117.813L-4.863,117.813L-4.794,119.375L-4.726,119.687L-4.657,119.375L-4.589,120L-4.52,120.938L-4.452,122.813L-4.383,122.813L-4.315,123.75L-4.247,123.75L-4.178,122.813L-4.107,121.875L-4.038,120.313L-3.97,121.563L-3.901,122.813L-3.833,122.813L-3.765,122.5L-3.696,120.313L-3.628,119.375L-3.559,119.063L-3.491,119.687L-3.422,119.375L-3.354,120.313L-3.285,119.687L-3.217,119.375L-3.149,119.063L-3.08,118.438L-3.012,118.438L-2.943,119.375L-2.875,119.687L-2.806,119.687L-2.738,119.063L-2.669,119.063L-2.601,119.375L-2.533,119.063L-2.464,120.313L-2.396,120L-2.327,119.687L-2.259,119.375L-2.19,119.063L-2.122,120.313L-2.053,121.563L-1.985,123.75L-1.916,123.125L-1.848,122.813L-1.78,123.438L-1.711,123.75L-1.643,125.938L-1.574,125.938L-1.506,126.25L-1.437,127.188L-1.369,127.5L-1.232,127.5L-1.164,128.125L-1.095,127.813L-1.027,127.813L-0.958,129.063L-0.89,128.75L-0.753,129.063L-0.616,129.375L-0.548,129.688L-0.411,130.625L-0.342,130.938L-0.274,130.625L-0.205,130.313L-0.137,130L-0.068,130.313L0,131.25L0.068,131.563L0.137,132.188L0.205,132.188L0.274,132.188L0.342,131.875L0.411,132.5L0.479,131.875L0.548,131.875L0.616,131.875L0.684,132.188L0.753,133.438L0.89,133.438L0.958,133.75L1.164,133.438L1.232,133.125L1.369,132.813L1.437,133.438L1.643,133.438L1.78,133.125L1.848,133.75L1.985,133.75L2.053,133.75L2.122,133.438L2.19,133.125L2.259,132.5L2.327,132.188L2.396,132.813L2.464,132.188L2.533,131.25L2.601,130.313L2.669,129.375L2.738,129.063L2.875,128.438L2.943,127.813L3.08,127.813L3.149,127.5L3.217,128.438L3.354,127.813L3.422,127.188L3.491,127.188L3.559,126.25L3.628,126.563L3.696,124.688L3.765,124.375L3.901,124.688L4.038,123.75L4.107,122.813L4.175,122.813L4.244,122.188L4.312,121.563L4.381,121.563L4.517,120.313L4.586,120.313L4.654,119.375L4.723,119.063L4.791,118.438L4.994,117.188L5.062,117.813L5.131,117.5L5.199,117.5L5.268,117.5L5.404,118.125L5.473,118.125L5.541,118.438L5.61,118.438L5.678,118.125L5.747,117.813L5.815,117.5L5.952,117.188L6.02,115.313L6.089,114.688L6.157,114.688L6.226,116.563L6.294,115.625L6.431,115.313L6.5,116.875L6.568,116.875L6.636,116.875L6.705,117.188L6.842,115.938L6.91,116.25L6.979,117.5L7.047,116.875L7.116,117.188L7.184,118.125L7.252,118.438L7.389,119.687L7.458,120L7.595,120.938L7.663,120.938L7.732,121.25L7.8,120.313L7.868,120.625L7.937,120.938L8.005,120.938L8.074,121.563L8.142,121.875L8.211,122.813L8.279,123.125L8.348,124.375L8.416,125.625L8.484,125.625L8.553,123.75L8.621,122.813L8.758,121.563L8.827,120L8.895,119.687L9.032,119.375L9.101,118.75L9.169,120.313L9.237,120L9.306,117.813L9.374,118.125L9.443,117.813L9.511,117.188L9.58,117.5L9.648,116.875L9.717,116.563L9.785,116.25L9.853,115.938L9.922,115.938L9.99,116.25L10.059,115.938L10.127,115L10.196,114.688L10.264,113.438L10.333,113.438L10.401,113.125L10.469,112.813L10.538,112.188L10.606,111.25L10.743,110L10.812,112.5L10.88,115L10.949,114.375L11.017,115L11.085,115.625L11.154,115L11.222,114.688L11.291,114.688L11.359,114.375L11.428,115.313L11.496,115.313L11.565,115L11.701,115.625L11.77,115.938L11.838,115.938L11.907,115.313L11.975,115L12.044,114.375L12.112,114.688L12.181,114.688L12.249,111.875L12.317,111.875L12.454,111.875L12.523,113.125L12.591,111.25L12.66,111.563L12.728,110.937L12.797,111.875L12.865,110.937L12.933,111.25L13.07,110.312L13.139,105.313L13.207,105.625L13.276,104.688L13.344,104.688L13.413,104.688L13.481,105.938L13.618,105.625L13.686,106.25L13.755,107.188L13.823,107.188L13.892,108.438L13.96,107.5L14.097,106.875L14.166,106.563L14.234,108.125L14.302,107.188L14.371,108.125L14.439,107.813L14.508,107.813L14.576,110L14.645,110.937L14.713,111.25L14.782,110L14.85,110.937L14.918,110.312L14.987,111.25L15.055,111.25L15.124,110.312L15.192,110.937L15.261,111.563L15.329,116.563L15.534,117.813L15.603,119.687L15.671,119.375L15.74,120.313L15.808,119.375L15.877,119.687L15.945,118.75L16.014,118.125L16.082,118.438L16.15,117.5L16.219,117.5L16.287,118.125L16.493,118.125L16.561,116.25L16.63,117.188L16.698,117.5L16.766,117.188L16.835,116.875L16.903,117.5L16.972,116.875L17.04,116.25L17.109,115.938L17.177,116.875L17.246,115.938L17.314,115.938L17.451,113.75L17.519,115L17.588,112.188L17.656,111.563L17.725,111.563L17.999,111.875L18.067,110.312L18.135,109.375L18.204,109.063L18.341,108.75L18.409,106.563L18.478,106.875L18.546,107.813L18.615,107.5L18.683,107.5L18.751,107.5L18.888,105.313L18.957,104.063L19.025,105L19.094,105.625L19.162,105L19.231,105.625L19.299,105.625L19.367,105L19.436,102.5L19.504,101.875L19.573,102.813L19.641,101.875L19.71,101.875L19.915,100.937L19.983,102.813L20.052,103.438L20.12,104.063L20.189,103.75L20.257,102.813L20.326,101.562L20.394,102.5L20.463,104.375L20.531,104.688L20.599,105.313L20.668,106.25L20.736,106.563L20.805,104.063L20.873,103.75L20.942,101.25L21.01,100.313L21.079,101.562L21.147,101.875L21.215,100.625L21.287,99.688L21.355,100L21.424,99.375L21.492,99.063L21.561,99.063L21.697,99.375L21.766,100L21.834,100.937L21.903,101.562L21.971,102.813L22.04,104.375L22.108,104.688L22.177,105L22.245,105.313L22.313,105.938L22.382,105.313L22.45,106.563L22.519,106.875L22.587,106.563L22.656,105.313L22.724,105.625L22.793,105L22.861,104.688L22.93,107.188L22.998,106.25L23.066,109.375L23.135,110.312L23.203,111.25L23.272,112.188L23.34,114.375L23.409,115.625L23.477,115.625L23.546,115.625L23.614,115.938L23.682,115.938L23.751,117.813L23.819,118.438L23.888,118.125L23.956,118.125L24.025,117.5L24.093,117.188L24.162,116.25L24.23,116.25L24.298,117.5L24.367,118.125L24.435,118.75L24.504,118.75L24.641,115.625L24.709,115.938L24.778,117.5L24.846,117.188L24.914,119.063L24.983,119.375L25.12,118.438L25.188,119.063L25.257,117.813L25.325,116.875L25.394,115.938L25.462,115L25.53,114.063L25.599,114.063L25.667,114.375L25.736,115.313L25.804,111.25L25.873,111.563L25.941,110.312L26.01,109.688L26.078,109.688L26.146,109.375L26.215,109.063L26.283,108.75L26.352,109.063L26.42,109.375L26.489,109.688L26.557,109.375L26.626,109.375L26.694,109.063L26.762,112.188L26.831,104.688L26.899,104.688L26.968,103.438L27.036,101.875L27.105,101.25L27.173,101.25L27.242,102.188L27.31,104.063L27.379,105.625L27.447,105.938L27.515,107.813L27.584,108.125L27.652,107.5L27.721,107.5L27.789,107.188L27.858,112.188L27.995,111.563L28.063,113.438L28.131,112.813L28.2,111.563L28.268,110.312L28.337,111.563L28.405,111.563L28.474,111.563L28.542,112.188L28.611,111.875L28.679,111.25L28.884,111.563L28.953,111.875L29.021,111.563L29.09,117.5L29.158,115.625L29.432,116.25L29.569,117.188L29.637,117.813L29.706,118.438L29.774,118.438L29.843,117.5L29.908,117.188L29.977,116.25L30.045,116.25L30.114,115.938L30.182,115.625L30.25,114.375L30.319,113.75L30.387,113.75L30.456,115.313L30.524,114.375L30.593,115.625L30.661,115.625L30.73,117.188L30.866,116.563L30.935,115.625L31.003,115.938L31.072,114.375L31.14,114.063L31.209,113.125L31.277,113.438L31.346,112.813L31.414,112.813L31.482,114.063L31.551,115.625L31.619,116.875L31.688,117.188L31.756,116.25L31.825,115L31.893,114.375L31.962,115L32.03,115.313L32.098,115.313L32.167,114.375L32.235,113.75L32.304,112.188L32.372,112.813L32.441,113.438L32.509,112.188L32.578,110.625L32.714,111.25L32.783,109.063L32.851,109.688L32.92,109.688L33.057,109.063L33.125,110.312L33.194,110.312L33.262,110.937L33.33,111.25L33.399,111.25L33.467,110.625L33.536,109.063L33.604,108.75L33.673,105.625L33.741,104.063L33.81,100.937L33.878,101.562L33.946,100.937L34.015,101.25L34.083,101.562L34.152,100.313L34.22,98.75L34.289,96.875L34.357,97.188L34.426,96.875L34.494,98.75L34.563,99.688L34.631,98.125L34.699,99.375L34.768,98.438L34.836,97.813L34.905,100L34.973,99.375L35.042,98.125L35.11,96.563L35.179,96.25L35.247,96.25L35.315,95.313L35.384,93.75L35.452,95.313L35.521,95.938L35.589,96.875L35.658,96.875L35.726,99.063L35.795,99.063L35.863,101.25L35.931,100.625L36,101.875L36.068,101.562L36.137,101.25L36.205,101.875L36.274,102.813L36.342,105.313L36.411,105.313L36.479,106.563L36.547,105.313L36.616,103.75L36.684,102.188L36.753,100.313L36.821,101.875L36.89,102.5L36.958,102.813L37.027,103.125L37.095,103.125L37.163,105.313L37.232,103.438L37.3,101.875L37.369,102.188L37.437,103.438L37.506,102.5L37.574,101.562L37.643,100.625L37.711,100.625L37.779,100.937L37.848,101.25L37.916,101.562L37.985,100L38.053,99.375L38.122,99.063L38.19,99.063L38.259,99.063L38.327,99.688L38.396,99.688L38.464,98.438L38.532,97.188L38.601,98.125L38.669,97.5L38.738,100.313L38.806,100.625L38.875,100.937L38.943,100L39.012,99.063L39.08,97.5L39.148,98.75L39.217,96.875L39.285,98.438L39.354,99.688L39.422,99.688L39.491,100L39.559,99.688L39.628,99.063L39.696,100.625L39.764,100.313L39.833,100.625L39.901,101.25L39.97,99.375L40.038,100.625L40.107,100.313L40.175,98.125L40.244,99.063L40.312,100L40.38,97.5L40.449,95.938L40.517,97.188L40.586,96.25L40.654,95.313L40.723,96.563L40.791,96.25L40.86,95.938L40.928,94.688L40.996,95.625L41.065,94.688L41.133,94.688L41.202,93.75L41.27,95.938L41.339,95L41.407,95L41.476,94.375L41.544,93.125L41.612,91.562L41.681,91.562L41.749,90.938L41.818,89.063L41.886,88.125L41.955,87.5L42.023,87.5L42.092,86.25L42.16,86.563L42.228,90L42.297,89.688L42.365,88.125L42.434,90.313L42.502,91.562L42.571,91.25L42.639,93.125L42.708,93.438L42.776,92.187L42.845,90.938L42.913,92.5L42.981,92.187L43.05,92.5L43.118,94.375L43.187,95.938L43.255,94.375L43.324,92.813L43.392,91.562L43.461,89.688L43.529,87.5L43.597,89.688L43.666,90.625L43.734,88.75L43.803,88.75L43.871,89.375L43.94,89.688L44.008,89.688L44.077,92.5L44.145,92.187L44.213,92.187L44.282,91.875L44.35,88.438L44.419,88.125L44.487,87.813L44.556,88.75L44.624,88.75L44.693,85.938L44.761,86.25L44.829,88.438L44.898,88.438L44.966,85.625L45.035,87.813L45.103,85.625L45.172,85L45.24,85L45.309,87.5L45.377,88.438L45.445,91.562L45.514,93.75L45.582,97.188L45.719,94.688L45.788,95.625L45.856,97.5L45.925,98.125L45.993,100L46.061,98.75L46.13,100.313L46.201,96.875L46.27,98.75L46.338,98.75L46.407,97.5L46.475,100.937L46.543,101.875L46.612,100.313L46.68,99.688L46.749,97.813L46.817,100.313L46.886,101.562L46.954,101.25L47.023,103.125L47.091,104.688L47.159,103.438L47.228,104.375L47.296,103.438L47.433,104.688L47.502,104.688L47.57,103.75L47.639,102.5L47.707,101.875L47.775,100.313L47.844,102.188L47.912,103.125L47.981,94.063L48.049,94.063L48.118,92.813L48.186,94.063L48.255,93.125L48.323,96.25L48.392,94.375L48.46,93.438L48.528,94.688L48.597,94.375L48.665,95L48.734,97.188L48.802,97.188L48.871,98.75L48.939,98.438L49.008,96.875L49.076,95.625L49.144,93.438L49.213,95L49.281,95L49.35,95.938L49.487,94.688L49.555,91.875L49.624,88.75L49.692,87.813L49.76,89.063L49.829,89.063L49.897,90L49.966,90.313L50.034,89.688L50.103,100.625L50.171,99.063L50.24,100L50.308,100L50.445,100L50.513,97.5L50.582,98.438L50.65,97.188L50.719,96.875L50.787,96.875L50.856,95.625L50.924,95L50.992,95L51.061,95.313L51.129,96.875L51.198,97.813L51.266,98.125L51.335,99.375L51.403,96.875L51.472,97.188L51.54,97.813L51.608,100.625L51.677,101.875L51.745,104.688L51.814,105.625L51.882,104.688L51.951,104.688L52.019,105.313L52.088,105L52.156,105.313L52.225,100.625L52.361,102.5L52.43,101.562L52.498,100.937L52.567,99.375L52.635,102.188L52.704,102.813L52.772,102.5L52.909,101.562L52.977,99.063L53.046,99.375L53.114,98.125L53.183,98.438L53.251,99.063L53.32,96.875L53.388,96.563L53.457,96.875L53.525,97.188L53.593,96.875L53.662,96.875L53.73,94.375L53.799,91.562L53.867,90.938L53.936,88.438L54.004,85.313L54.073,83.75L54.141,84.688L54.209,85.625L54.278,84.063L54.346,82.5L54.415,84.688L54.483,85L54.552,85L54.62,85.625L54.689,87.5L54.757,85L54.823,84.375L54.891,86.875L54.96,86.25L55.028,86.563L55.096,86.25L55.165,87.188L55.233,87.188L55.302,87.5L55.37,86.875L55.439,86.563L55.507,84.375L55.576,84.375L55.644,84.688L55.712,83.438L55.781,83.75L55.849,82.187L55.918,83.438L55.986,83.75L56.055,88.438L56.123,90.625L56.192,87.5L56.26,86.875L56.328,86.875L56.397,85.313L56.465,86.875L56.534,85.625L56.602,86.563L56.671,83.438L56.739,79.375L56.808,76.875L56.876,74.063L56.944,70.313L57.013,70.625L57.081,71.875L57.15,66.875L57.218,63.75L57.287,57.812L57.355,55L57.424,51.875L57.492,51.563L57.56,54.063L57.629,43.437L57.697,43.125L57.766,35L57.834,30.625L57.903,30L57.971,27.813L58.04,30L58.108,29.687L58.176,27.813L58.245,20.625L58.313,19.687L58.382,17.5L58.45,16.875L58.519,15.312L58.587,8.438L58.656,5.625L58.724,6.25L58.792,6.25L58.861,4.688L58.929,6.562L58.998,10.937L59.066,11.875L59.135,7.188L59.203,6.25L59.272,6.25L59.34,9.687L59.409,10L59.477,14.375L59.545,15.625L59.614,11.875L59.682,20.937L59.751,20.625L59.819,27.5L59.888,30.938L59.956,35.313L60.025,37.188L60.093,34.062L60.161,30.938L60.23,30L60.298,38.125L60.367,35.625L60.435,38.75L60.504,42.188L60.572,40.313L60.641,45.938L60.709,45.625L60.777,45.938L60.846,49.688L60.914,55.313L60.983,53.75L61.051,51.25L61.12,48.125L61.188,50L61.257,53.437L61.325,55.625L61.393,57.812L61.462,58.437L61.53,58.437L61.599,57.5L61.667,59.375L61.736,59.688L61.804,61.563L61.873,62.187L61.941,50.625L62.009,49.062L62.078,46.875L62.146,47.813L62.215,50L62.283,52.5L62.352,54.063L62.42,55L62.489,50.938L62.557,48.75L62.625,48.437L62.694,48.125L62.762,51.25L62.831,54.063L62.899,51.25L62.968,46.563L63.036,45.938L63.105,44.062L63.173,42.813L63.242,44.688L63.31,46.25L63.378,45L63.447,38.75L63.515,38.125L63.584,36.563L63.652,36.875L63.721,39.062L63.789,40L63.858,39.062L63.926,39.375L63.994,52.188L64.063,50.625L64.131,48.437L64.2,50.938L64.268,51.563L64.337,47.188L64.405,45L64.474,44.375L64.542,44.375L64.61,43.75L64.679,46.563L64.747,49.062L64.816,49.688L64.884,43.75L64.953,42.188L65.021,43.125L65.09,46.875L65.158,50.938L65.226,56.875L65.295,53.437L65.363,50.313L65.432,53.125L65.5,58.125L65.569,58.437L65.637,60.625L65.706,59.688L65.774,58.125L65.842,56.875L65.911,56.875L65.979,57.812L66.048,58.75L66.116,60.938L66.185,66.25L66.253,65L66.322,63.75L66.39,64.375L66.458,64.375L66.527,66.875L66.595,70.625L66.664,72.188L66.732,70.625L66.801,68.75L66.869,67.188L66.938,72.5L67.006,75.625L67.074,79.375L67.143,79.688L67.211,78.75L67.28,75.938L67.348,79.375L67.417,84.063L67.485,83.438L67.554,85.938L67.622,87.5L67.691,86.875L67.759,85.938L67.827,86.875L67.896,87.813L67.964,88.75L68.033,87.813L68.101,88.125L68.17,88.438L68.238,86.563L68.307,87.188L68.375,88.438L68.443,91.562L68.512,93.125L68.58,94.063L68.649,93.438L68.717,93.438L68.786,94.688L68.854,95.313L68.923,94.688L68.991,95.313L69.059,96.875L69.128,94.375L69.196,94.375L69.265,94.063L69.333,95L69.402,94.063L69.47,91.562L69.539,91.562L69.607,89.375L69.675,88.75L69.744,87.813L69.812,90L69.881,90.938L69.949,91.562L70.018,91.562L70.086,93.125L70.155,89.063L70.223,86.875L70.291,88.438L70.36,87.5L70.428,86.563L70.497,85.938L70.565,85.625L70.634,84.688L70.702,86.25L70.771,86.25L70.839,85.625L70.907,86.563L70.976,88.438L71.044,86.563L71.116,85.938L71.184,87.5L71.253,85.938L71.321,86.563L71.389,87.188L71.458,89.375L71.526,91.562L71.595,91.875L71.663,92.813L71.732,92.187L71.8,92.5L71.869,91.562L71.937,90.625L72.005,91.25L72.074,91.562L72.142,89.688L72.211,85.625L72.279,85.938L72.348,83.125L72.416,85L72.485,86.25L72.553,85.938L72.621,85.938L72.69,85.625L72.758,85L72.827,85L72.895,85.313L72.964,85.938L73.032,84.375L73.101,85L73.169,84.063L73.238,83.125L73.306,84.063L73.374,85L73.443,83.438L73.511,82.812L73.58,82.812L73.648,82.812L73.717,84.063L73.785,83.125L73.854,84.063L73.922,83.438L73.99,81.563L74.059,79.688L74.127,79.375L74.196,82.187L74.264,90.625L74.333,91.875L74.401,94.063L74.47,93.125L74.606,92.813L74.675,93.75L74.743,94.063L74.812,94.688L74.88,94.375L74.949,94.688L75.017,95.625L75.086,93.438L75.154,94.375L75.222,93.438L75.291,93.75L75.359,95L75.428,94.375L75.496,94.063L75.565,95L75.633,95L75.702,94.063L75.77,94.375L75.838,91.875L75.907,94.063L75.975,94.688L76.044,95L76.112,96.875L76.181,98.438L76.249,98.75L76.318,97.813L76.386,95.313L76.454,96.25L76.523,93.438L76.591,93.438L76.66,92.5L76.728,93.75L76.797,93.438L76.865,92.813L76.934,92.5L77.002,91.562L77.07,91.875L77.139,93.438L77.207,94.688L77.276,95.313L77.344,96.563L77.413,96.875L77.481,96.875L77.55,95L77.618,95L77.687,94.688L77.755,93.75L77.823,92.5L77.892,89.688L77.96,88.438L78.029,85.625L78.097,85.313L78.166,83.438L78.234,82.187L78.303,78.125L78.371,76.875L78.439,75.313L78.508,74.688L78.576,75.625L78.645,75.938L78.713,74.063L78.782,70.625L78.85,70.313L78.919,70.625L78.987,69.063L79.055,70L79.124,69.688L79.192,66.875L79.261,64.688L79.329,65L79.398,63.75L79.466,61.875L79.535,61.875L79.603,64.375L79.671,63.438L79.737,63.75L79.805,63.438L79.874,62.5L79.942,63.438L80.011,63.75L80.079,65.625L80.148,65.625L80.216,65.313L80.285,63.438L80.353,65.313L80.422,66.563L80.49,70.938L80.558,71.25L80.627,72.188L80.695,70.938L80.764,72.5L80.832,72.188L80.901,73.125L80.969,73.125L81.038,75.625L81.106,74.688L81.174,73.75L81.243,75L81.311,74.688L81.38,72.5L81.448,74.063L81.517,75.625L81.585,73.125L81.654,68.438L81.722,67.812L81.79,65.625L81.859,66.875L81.927,68.75L81.996,72.5L82.064,72.813L82.133,70L82.201,69.063L82.27,67.5L82.338,67.5L82.406,68.125L82.475,65.625L82.543,60L82.612,58.75L82.68,57.188L82.749,54.063L82.817,51.875L82.886,53.437L82.954,52.188L83.022,51.875L83.091,50L83.159,49.375L83.228,49.688L83.296,45.938L83.365,45L83.433,47.5L83.502,42.813L83.57,39.375L83.638,40.938L83.707,43.437L83.775,43.437L83.844,43.437L83.912,41.25L83.981,39.687L84.049,37.188L84.118,35L84.186,33.75L84.255,34.687L84.323,36.25L84.391,38.125L84.46,36.25L84.528,34.687L84.597,35.938L84.665,35.313L84.734,33.75L84.802,36.563L84.871,38.75L84.939,37.188L85.007,35.938L85.076,32.5L85.144,28.75L85.213,25.938L85.281,24.375L85.35,26.875L85.418,25.625L85.487,23.125L85.555,23.125L85.623,24.687L85.692,24.062L85.76,24.375L85.829,26.25L85.897,25.938L85.966,27.188L86.034,27.813L86.103,25L86.171,23.438L86.239,25L86.308,24.687L86.376,22.188L86.445,20.312L86.513,21.875L86.582,23.438L86.65,23.438L86.719,23.438L86.787,27.188L86.855,22.813L86.924,22.5L86.992,23.438L87.061,24.062L87.129,25.312L87.198,29.062L87.266,29.687L87.335,30.312L87.403,30.312L87.471,29.687L87.54,25L87.608,25.625L87.677,24.687L87.745,25.312L87.814,23.75L87.882,14.375L87.951,15L88.019,15.937L88.087,11.875L88.156,11.875L88.224,12.813L88.293,14.687L88.361,13.125L88.43,16.25L88.498,18.125L88.567,15L88.635,15.937L88.704,18.75L88.772,17.813L88.84,17.813L88.909,20.312L88.977,20.312L89.046,21.25L89.114,20.937L89.183,22.813L89.251,23.125L89.32,24.062L89.388,24.687L89.456,24.062L89.525,25.312L89.593,32.188L89.662,33.438L89.73,35.313L89.799,35.938L89.867,34.375L89.936,40.313L90.004,42.188L90.072,40.313L90.141,45L90.209,47.188L90.278,43.437L90.346,41.563L90.415,41.563L90.483,36.25L90.552,35L90.62,35.938L90.688,33.125L90.757,29.687L90.825,30L90.894,27.813L90.962,27.188L91.031,28.125L91.099,27.813L91.168,27.188L91.236,26.563L91.304,25.625L91.373,29.062L91.441,28.75L91.51,30L91.578,31.25L91.647,31.563L91.715,31.875L91.784,29.062L91.852,27.188L91.92,29.687L91.989,31.563L92.057,31.25L92.126,30.625L92.194,30.312L92.263,31.875L92.331,35.938L92.4,39.062L92.468,40.313L92.537,45L92.605,45.313L92.673,47.813L92.742,47.5L92.81,50.625L92.879,51.563L92.947,52.5L93.016,55.313L93.084,54.375L93.153,54.688L93.221,56.563L93.289,57.5L93.358,59.375L93.426,58.125L93.495,60L93.563,60.938L93.632,62.187L93.7,61.563L93.769,63.438L93.837,67.5L93.905,69.063L93.974,70.625L94.042,71.875L94.111,70.938L94.179,71.875L94.248,70.313L94.316,71.25L94.385,71.875L94.453,70L94.521,70.625L94.59,70.938L94.658,71.875L94.727,70.625L94.795,75L94.864,74.375L94.932,74.688L95.001,75.938L95.069,74.688L95.137,75.313L95.206,75.625L95.274,75.313L95.343,75L95.411,75.938L95.48,76.563L95.548,76.563L95.617,77.5L95.685,78.438L95.753,78.125L95.822,77.813L95.89,75.938L95.959,77.188L96.03,76.875L96.099,77.5L96.167,77.5L96.235,79.375L96.304,82.187L96.372,80.625L96.441,81.563L96.509,81.875L96.578,80.938L96.646,82.812L96.715,83.75L96.783,85.938L96.851,86.875L96.92,85.313L96.988,86.25L97.057,85L97.125,85L97.194,84.375L97.262,81.875L97.331,82.812L97.399,83.438L97.467,81.563L97.536,82.5L97.604,80.938L97.673,79.375L97.741,77.5L97.81,78.438L97.878,74.688L97.947,72.188L98.015,71.563L98.084,68.125L98.152,63.75L98.22,64.688L98.289,59.375L98.357,58.75L98.426,58.75L98.494,57.812L98.563,58.437L98.631,60.625L98.7,60.938L98.768,61.25L98.836,61.875L98.905,60.625L98.973,64.063L99.042,64.688L99.11,66.25L99.179,68.75L99.247,70.938L99.316,74.688L99.384,75.313L99.452,76.25L99.521,77.813L99.589,77.5L99.658,78.125L99.726,78.75L99.795,77.813L99.863,76.25L99.932,78.438L100,81.25L100.068,81.875L100.137,85.625L100.205,85.938L100.274,85.938L100.342,90.313L100.411,88.75L100.479,90.313L100.548,91.562L100.616,90.625L100.684,89.063L100.753,88.438L100.821,87.188L100.89,86.25L100.958,85L101.027,82.812L101.095,81.875L101.164,80.938L101.232,78.125L101.3,76.875L101.369,75L101.437,75.313L101.506,73.75L101.574,72.188L101.643,70L101.711,70.938L101.78,70.938L101.848,70.313L101.916,72.5L101.985,74.375L102.053,75.625L102.122,75L102.19,75.313L102.259,79.375L102.327,79.688L102.396,79.375L102.464,80.313L102.533,77.813L102.601,79.063L102.669,80.625L102.738,81.25L102.806,79.375L102.875,76.563L102.943,77.188L103.012,76.875L103.08,77.813L103.149,78.125L103.217,79.063L103.285,81.563L103.354,82.187L103.422,83.125L103.491,83.438L103.559,84.688L103.628,86.25L103.696,89.688L103.765,90.313L103.833,92.5L103.901,95.938L103.97,96.875L104.038,97.188L104.107,98.438L104.175,100L104.244,100.313L104.312,99.688L104.381,100.625L104.449,103.438L104.517,103.75L104.586,105.938L104.651,106.25L104.72,107.5L104.788,109.063L104.857,112.188L104.925,116.563L104.994,117.188L105.131,118.125L105.199,119.375L105.268,119.375L105.336,119.687L105.404,119.687L105.473,120.625L105.541,120.313L105.61,119.687L105.678,120L105.747,120L105.815,118.438L105.884,118.125L105.952,117.188L106.02,117.5L106.089,116.25L106.157,115.625L106.226,115.313L106.294,114.688L106.363,114.375L106.431,115.625L106.5,116.563L106.568,116.563L106.636,117.188L106.705,118.75L106.773,117.813L106.842,117.188L106.91,116.25L107.047,116.25L107.116,115.625L107.184,115.313L107.252,117.188L107.321,115.938L107.389,116.25L107.458,116.563L107.526,116.563L107.595,116.25L107.663,117.813L107.732,117.5L107.8,117.188L107.868,116.25L107.937,115.938L108.005,115L108.074,115.313L108.211,114.375L108.279,115.625L108.348,115.625L108.416,115.625L108.484,115.625L108.553,116.25L108.621,115.938L108.69,114.688L108.758,114.375L108.827,114.688L108.895,112.5L108.964,112.813L109.032,113.125L109.101,112.813L109.169,111.25L109.237,110.937L109.306,110L109.374,110L109.443,110.312L109.511,110.312L109.58,110L109.648,110.312L109.785,110.312L109.853,107.813L109.922,107.5L109.99,107.188L110.059,107.813L110.127,107.813L110.196,109.063L110.264,108.438L110.333,109.063L110.401,106.25L110.469,106.563L110.538,105.625L110.606,106.25L110.675,106.25L110.743,105.625L110.812,105.938L110.88,105.938L110.949,105L111.017,105.938L111.085,106.25L111.154,105.625L111.222,106.875L111.291,105.938L111.359,106.25L111.428,106.25L111.496,105.938L111.565,107.188L111.633,107.188L111.701,106.875L111.77,105.313L111.838,105.313L111.907,106.25L111.975,107.5L112.044,106.25L112.112,105.938L112.181,106.875L112.249,106.25L112.317,105.938L112.386,104.688L112.454,105.938L112.523,105.938L112.66,105L112.728,103.438L112.797,103.438L112.865,104.063L112.933,103.75L113.002,103.75L113.07,104.063L113.139,101.875L113.207,102.188L113.276,102.188L113.344,101.562L113.413,102.5L113.481,102.188L113.55,101.875L113.618,101.562L113.686,101.25L113.755,100L113.823,99.688L113.892,100.313L113.96,99.063L114.029,99.375L114.097,98.75L114.166,99.688L114.234,100.937L114.302,100.313L114.371,100L114.508,100.625L114.576,100L114.645,100.313L114.713,100.313L114.782,101.875L114.85,101.875L114.918,101.875L114.987,101.562L115.055,100.937L115.124,100.313L115.192,99.063L115.261,100.937L115.329,99.375L115.398,98.438L115.466,98.125L115.534,99.375L115.603,100.313L115.671,100.313L115.74,99.688L115.808,100L115.877,102.188L115.945,101.25L116.014,100.937L116.082,102.5L116.15,102.813L116.219,103.125L116.356,104.375L116.424,104.063L116.493,104.063L116.561,103.438L116.63,102.188L116.698,104.375L116.766,104.375L116.835,104.063L116.903,104.688L116.972,105.625L117.04,104.375L117.109,105L117.177,106.25L117.246,106.25L117.314,107.188L117.383,106.875L117.451,108.125L117.519,109.375L117.588,110.312L117.656,109.688L117.725,109.375L117.793,110.937L117.862,110.937L117.93,110.312L117.999,109.375L118.067,110L118.135,110.937L118.204,110.312L118.272,109.688L118.341,109.688L118.409,109.063L118.478,109.063L118.546,108.75L118.615,110.625L118.683,112.5L118.751,111.563L118.82,111.563L118.888,110.625L118.957,109.688L119.025,109.688L119.094,110.937L119.162,111.563L119.231,111.25L119.299,112.188L119.367,112.5L119.436,114.063L119.504,114.688L119.573,113.438L119.641,113.125L119.71,114.063L119.778,113.75L119.847,113.438L119.915,114.688L119.983,114.063L120.052,114.063L120.12,115.313L120.189,115.313L120.257,115.625L120.326,116.563L120.394,115.313L120.463,115.625L120.531,115.625L120.599,117.5L120.668,117.188L120.736,116.875L120.805,117.5L120.873,117.5L120.945,118.125L121.013,118.438L121.081,119.063L121.15,117.813L121.218,116.875L121.287,116.25L121.355,114.688L121.424,115L121.492,115L121.561,114.063L121.629,114.688L121.697,115L121.766,114.688L121.834,114.688L121.903,114.688L121.971,115L122.04,116.563L122.108,117.188L122.177,117.188L122.245,117.188L122.313,117.5L122.382,117.813L122.587,119.063L122.656,118.75L122.724,119.063L122.793,118.438L122.861,118.125L122.93,118.438L122.998,117.813L123.066,117.813L123.135,118.438L123.203,117.5L123.272,115.938L123.34,116.25L123.409,116.25L123.477,117.813L123.546,119.375L123.614,118.75L123.682,118.438L123.751,119.063L123.819,120L123.888,119.687L123.956,119.375L124.093,119.375L124.162,120.313L124.23,118.75L124.298,118.125L124.367,117.813L124.435,118.438L124.572,117.813L124.641,116.563L124.709,116.25L124.778,116.563L124.846,114.688L124.914,114.375L124.983,114.688L125.051,115L125.12,114.688L125.188,115.313L125.257,115.938L125.325,115.625L125.394,116.875L125.462,118.438L125.53,119.375L125.599,119.375L125.667,117.813L125.736,118.125L125.804,119.063L125.873,119.375L125.941,119.375L126.01,119.063L126.078,119.063L126.146,119.375L126.215,119.375L126.283,118.125L126.352,119.687L126.42,120L126.489,120.313L126.557,120.313L126.626,120.938L126.694,121.563L126.762,121.563L126.831,121.563L126.899,122.813L126.968,121.25L127.036,121.25L127.105,120.625L127.173,120.313L127.242,120.938L127.31,120.938L127.379,120.313L127.447,120.938L127.515,120.625L127.584,120.938L127.721,121.563L127.789,121.875L127.858,120.313L127.926,118.438L127.995,118.438L128.063,118.438L128.131,119.063L128.268,118.75L128.337,118.75L128.405,119.063L128.474,119.375L128.611,118.438L128.679,118.438L128.747,118.125L128.816,117.188L128.953,118.125L129.021,118.125L129.09,118.438L129.158,118.125L129.227,118.125L129.295,119.687L129.363,119.375L129.432,119.687L129.5,119.063L129.569,117.813L129.637,115.938L129.706,117.813L129.774,115.938L129.843,115.313L129.979,114.688L130.045,114.688L130.114,115.313L130.182,116.25L130.25,118.125L130.319,117.813L130.387,117.813L130.456,115L130.524,114.688L130.593,113.438L130.661,113.125L130.73,113.438L130.798,114.063L130.866,113.75L130.935,114.063L131.003,114.063L131.072,113.75L131.14,114.063L131.209,113.75L131.277,112.5L131.346,112.813L131.414,112.813L131.482,113.125L131.551,113.438L131.619,114.688L131.756,115L131.825,115.625L131.893,115L131.962,116.25L132.03,115.313L132.098,115.938L132.167,115.625L132.235,112.813L132.304,111.563L132.372,110.625L132.441,110L132.509,108.438L132.578,109.063L132.646,109.375L132.714,110L132.783,110L132.988,109.688L133.057,109.063L133.125,109.063L133.194,109.375L133.262,108.438L133.33,106.875L133.399,104.063L133.467,102.5L133.536,103.75L133.604,103.438L133.673,102.813L133.741,101.25L133.81,99.063L133.878,98.125L133.946,98.125L134.015,98.438L134.083,97.5L134.152,96.25L134.22,96.875L134.289,96.25L134.357,96.25L134.426,98.75L134.494,100L134.563,100.625L134.631,101.875L134.699,101.25L134.768,101.562L134.836,102.188L134.905,101.25L134.973,100.937L135.042,98.75L135.11,97.813L135.179,97.5L135.247,95.625L135.315,95.313L135.384,95.625L135.452,98.125L135.521,99.375L135.589,98.75L135.658,99.688L135.726,98.438L135.795,99.375L135.863,101.562L135.931,101.25L136,100.625L136.137,100.313L136.205,101.875L136.274,101.25L136.342,102.813L136.411,102.5L136.479,102.188L136.547,102.5L136.616,101.875L136.684,101.25L136.753,100L136.821,101.875L136.89,102.188L136.958,101.25L137.027,102.813L137.095,101.562L137.163,103.438L137.232,105L137.3,105.313L137.369,106.25L137.437,108.125L137.506,108.75L137.574,107.188L137.643,107.188L137.711,107.188L137.779,105.625L137.848,106.563L137.985,107.188L138.053,106.563L138.122,106.875L138.19,107.5L138.259,109.375L138.327,107.188L138.396,107.188L138.464,106.563L138.532,105.313L138.601,105.625L138.669,103.438L138.738,104.063L138.806,103.125L138.875,102.5L138.943,102.188L139.012,101.875L139.08,101.562L139.148,101.562L139.217,102.813L139.285,102.188L139.354,101.875L139.422,100.625L139.491,101.875L139.559,100.313L139.628,99.688L139.696,100L139.764,100.625L139.833,100L139.901,100.625L139.97,100L140.038,100L140.107,99.688L140.175,99.063L140.244,98.438L140.312,97.5L140.38,97.188L140.449,99.063L140.517,97.5L140.586,96.875L140.654,96.563L140.723,98.438L140.791,96.563L140.86,97.5L140.928,98.75L140.996,98.438L141.065,98.75L141.133,98.75L141.202,98.75L141.27,98.75L141.339,99.688L141.407,98.75L141.476,97.5L141.544,96.563L141.612,96.563L141.681,97.813L141.749,96.875L141.818,94.688L141.886,95.938L141.955,95.313L142.023,95.625L142.092,93.438L142.16,94.688L142.228,96.563L142.297,97.5L142.365,98.125L142.434,99.063L142.502,97.813L142.571,98.75L142.639,100.313L142.708,100.937L142.776,100.625L142.845,102.813L142.913,100.625L142.981,100L143.05,99.688L143.118,99.688L143.187,100L143.255,100L143.324,99.688L143.392,99.375L143.461,98.75L143.529,100.625L143.597,100.937L143.666,100.937L143.734,99.063L143.803,100.625L143.871,102.813L143.94,102.188L144.008,103.125L144.077,103.75L144.145,105.938L144.213,105.625L144.282,105.313L144.35,105.313L144.419,104.375L144.487,105.625L144.556,106.563L144.624,107.188L144.693,106.875L144.761,106.25L144.829,105.938L144.898,104.063L144.966,105.625L145.035,105.938L145.103,106.25L145.172,107.813L145.24,109.063L145.309,108.75L145.377,109.688L145.445,110.625L145.514,111.563L145.582,112.188L145.651,111.875L145.719,112.813L145.788,114.063L145.856,114.375L145.925,114.375L145.993,114.688L146.061,114.688L146.13,115L146.198,114.063L146.267,114.063L146.338,114.375L146.407,113.75L146.475,112.188L146.543,111.875L146.612,112.5L146.68,111.563L146.749,110.937L146.817,111.25L146.886,112.5L146.954,112.813L147.023,112.188L147.091,110.937L147.159,111.25L147.228,110.625L147.296,109.063L147.365,108.75L147.433,108.438L147.502,107.188L147.57,108.125L147.639,106.875L147.707,106.563L147.775,106.563L147.844,105.625L147.912,105.313L147.981,104.688L148.049,105.625L148.118,105.938L148.186,106.25L148.255,106.563L148.323,105.625L148.392,105.625L148.46,105.313L148.528,107.188L148.597,105.938L148.665,104.688L148.734,104.688L148.871,105.938L148.939,105.938L149.008,105.938L149.076,106.563L149.144,109.063L149.213,110.625L149.281,111.563L149.35,111.875L149.418,112.5L149.487,113.438L149.555,113.75L149.624,113.438L149.692,113.125L149.76,114.063L149.829,114.063L149.897,114.688L149.966,115.625L150.034,115.938L150.103,115.313L150.171,115.313L150.308,115.625L150.376,114.375L150.445,115.313L150.513,115.625L150.582,113.75L150.65,114.688L150.719,114.375L150.787,115L150.856,114.688L150.924,115.625L150.992,115.938L151.061,115.625L151.129,114.375L151.198,114.375L151.266,113.438L151.403,113.438L151.472,112.188L151.54,111.563L151.608,111.25L151.677,110.625L151.745,94.063L151.814,95L151.882,94.063L151.951,94.063L152.019,95.313L152.088,94.688L152.156,93.75L152.225,93.75L152.293,95.313L152.43,93.438L152.498,91.875L152.567,92.813L152.635,90L152.704,90.625L152.772,91.875L152.841,92.5L152.909,93.438L152.977,93.125L153.046,94.063L153.114,94.375L153.183,92.5L153.251,92.5L153.32,91.875L153.457,90.938L153.525,91.25L153.593,89.375L153.662,88.125L153.73,88.125L153.799,89.063L153.867,88.438L153.936,104.688L154.004,102.813L154.073,102.813L154.141,101.875L154.209,101.562L154.278,100.625L154.346,101.875L154.415,102.813L154.483,100.313L154.552,100.937L154.62,100.625L154.689,100.937L154.757,102.813L154.825,102.188L154.894,100.313L154.96,99.688L155.028,97.5L155.096,97.813L155.165,96.875L155.233,97.188L155.302,99.375L155.37,98.75L155.439,100.625L155.507,102.188L155.576,102.5L155.644,102.813L155.712,103.438L155.781,102.813L155.849,100.937L155.918,101.25L155.986,101.875L156.055,102.5L156.123,102.813L156.192,103.125L156.26,103.125L156.328,103.125L156.397,101.875L156.465,100.313L156.534,101.875L156.602,102.5L156.671,103.438L156.739,102.813L156.808,103.125L156.876,102.813L156.944,102.5L157.013,100.625L157.081,102.188L157.15,102.5L157.218,103.125L157.287,100.625L157.355,98.125L157.424,97.5L157.492,96.563L157.56,95.938L157.629,93.438L157.697,94.063L157.766,95.313L157.834,95.625L157.903,95.625L157.971,96.563L158.04,95.313L158.108,97.5L158.176,97.813L158.245,98.75L158.313,96.25L158.382,98.125L158.45,99.063L158.519,100.313L158.724,99.688L158.792,99.063L158.861,99.375L158.929,98.438L158.998,98.125L159.066,98.438L159.135,97.5L159.203,99.688L159.272,98.438L159.34,98.75L159.409,98.125L159.477,100L159.545,101.562L159.614,100.937L159.682,98.75L159.751,98.75L159.819,101.562L159.888,100.937L159.956,100L160.025,99.688L160.093,99.688L160.161,98.438L160.23,98.125L160.298,97.5L160.367,97.188L160.435,96.563L160.504,99.063L160.572,96.875L160.641,96.563L160.709,94.375L160.777,93.75L160.846,93.438L160.914,93.125L160.983,95.313L161.051,95.313L161.12,94.375L161.188,95.313L161.257,93.125L161.325,93.125L161.393,91.562L161.462,90.938L161.53,90.625L161.599,89.688L161.667,89.063L161.736,90.938L161.804,89.063L161.873,85.938L161.941,86.875L162.009,86.563L162.078,85.938L162.146,86.25L162.215,86.25L162.283,86.875L162.352,85.938L162.42,85.625L162.489,85.313L162.557,82.812L162.625,83.438L162.694,81.25L162.762,81.875L162.831,81.875L162.899,81.563L162.968,80.313L163.036,79.063L163.105,78.125L163.173,78.438L163.242,77.813L163.31,80L163.378,81.25L163.447,81.563L163.515,81.875L163.584,80.938L163.652,81.25L163.721,82.812L163.789,83.125L163.858,85.313L163.926,86.25L163.994,86.25L164.063,87.188L164.131,89.375L164.2,90L164.268,89.688L164.337,89.375L164.405,89.063L164.474,89.688L164.542,88.125L164.61,82.5L164.679,82.812L164.747,85L164.816,85.625L164.884,86.875L164.953,87.5L165.021,88.438L165.09,87.813L165.158,87.813L165.226,87.813L165.295,88.75L165.363,88.125L165.5,87.813L165.569,87.813L165.637,88.75L165.706,88.438L165.774,89.375L165.842,90.625L165.911,87.5L165.979,86.25L166.048,86.875L166.116,86.563L166.185,85.625L166.253,85L166.322,85L166.39,85.313L166.458,85.625L166.527,86.563L166.595,86.25L166.664,88.125L166.732,95L166.801,95.313L166.869,94.375L166.938,93.75L167.006,91.875L167.074,91.25L167.143,92.187L167.211,91.875L167.28,91.875L167.348,91.562L167.417,91.25L167.485,90.938L167.554,91.25L167.622,91.875L167.691,91.25L167.759,92.813L167.827,91.562L167.896,90.625L167.964,93.438L168.033,94.063L168.101,95.313L168.17,95L168.238,95.625L168.307,95.625L168.375,96.875L168.443,96.563L168.512,95.625L168.58,93.75L168.649,94.063L168.717,92.5L168.786,92.5L168.854,92.187L168.923,93.75L168.991,93.75L169.059,94.063L169.128,92.813L169.196,91.562L169.265,90.938L169.333,91.25L169.402,91.562L169.47,92.5L169.539,92.5L169.607,92.187L169.675,92.187L169.744,91.875L169.812,90.938L169.881,91.875L169.949,92.813L170.018,93.438L170.086,94.688L170.155,94.063L170.223,93.125L170.291,92.187L170.36,92.5L170.428,92.187L170.497,92.813L170.565,94.688L170.634,95.313L170.702,94.063L170.771,95.938L170.839,95.938L170.907,96.25L170.976,93.75L171.044,94.688L171.113,96.875L171.181,98.125L171.253,98.125L171.321,100L171.389,100.625L171.458,100.937L171.526,102.5L171.595,102.5L171.663,102.188L171.732,102.188L171.8,103.125L171.869,103.438L171.937,103.438L172.005,103.438L172.074,103.75L172.142,102.5L172.211,102.813L172.279,103.438L172.348,105L172.416,104.375L172.485,104.063L172.553,104.688L172.621,104.688L172.69,104.375L172.758,105L172.827,104.063L172.895,105L172.964,105L173.032,107.813L173.101,106.875L173.169,105L173.238,105.938L173.306,105.938L173.374,104.375L173.443,102.813L173.511,102.813L173.58,99.375L173.648,99.063L173.717,99.375L173.785,100.625L173.854,99.688L173.922,98.75L173.99,98.75L174.059,97.5L174.127,96.563L174.196,95L174.264,93.75L174.333,94.063L174.401,92.813L174.47,93.438L174.538,92.813L174.606,88.75L174.675,86.563L174.743,87.5L174.812,88.125L174.88,88.75L174.949,88.438L175.017,86.563L175.086,83.75L175.154,83.438L175.222,84.063L175.291,82.5L175.359,82.812L175.428,83.438L175.496,83.438L175.565,83.125L175.633,84.063L175.702,84.375L175.77,84.688L175.838,83.438L175.907,83.125L175.975,84.688L176.044,83.438L176.112,82.812L176.181,82.5L176.249,82.187L176.318,82.5L176.386,81.563L176.454,82.812L176.523,80.938L176.591,80.625L176.66,82.187L176.728,82.187L176.797,82.812L176.865,82.187L176.934,80L177.002,77.813L177.07,78.75L177.139,80L177.207,79.063L177.276,79.063L177.344,80.625L177.413,78.438L177.481,78.75L177.55,79.688L177.618,79.063L177.687,79.375L177.755,80L177.823,80.313L177.892,79.688L177.96,79.063L178.029,77.5L178.097,78.438L178.166,78.75L178.234,80L178.303,80.938L178.371,80.625L178.439,82.5L178.508,82.5L178.576,83.75L178.645,83.438L178.713,85.938L178.782,87.813L178.85,86.563L178.919,85.313L178.987,86.875L179.055,86.875L179.124,87.813L179.192,88.125L179.261,90.625L179.329,89.375L179.398,89.375L179.466,90.313L179.535,89.688L179.603,88.438L179.671,87.188L179.74,88.125L179.808,86.875L179.874,85.625L179.942,85L180.011,87.5L180.079,88.438L180.148,89.063L180.216,89.688L180.285,88.125L180.353,90.625L180.422,90L180.49,90.313L180.558,87.188L180.627,87.188L180.695,87.813L180.764,86.563L180.832,85.938L180.901,86.25L180.969,87.188L181.038,85.938L181.106,87.5L181.174,87.188L181.243,84.063L181.311,83.438L181.38,84.688L181.448,83.438L181.517,85.313L181.585,85.625L181.654,86.563L181.722,87.188L181.79,86.875L181.859,88.125L181.927,86.563L181.996,87.188L182.064,86.25L182.133,85.938L182.201,83.125L182.27,82.812L182.338,82.5L182.406,80.938L182.475,81.25L182.543,80.938L182.612,82.5L182.68,80L182.749,78.438L182.817,78.438L182.886,77.5L182.954,75.938L183.022,76.875L183.091,78.438L183.159,78.438L183.228,77.188L183.296,80.313L183.365,78.438L183.433,78.438L183.502,77.5L183.57,77.813L183.638,76.563L183.707,74.063L183.775,75.938L183.844,76.25L183.912,73.75L183.981,74.063L184.049,72.188L184.118,71.25L184.186,69.375L184.255,69.063L184.323,67.812L184.391,65.938L184.46,65.313L184.528,66.875L184.597,64.688L184.665,59.063L184.734,60L184.802,60.625L184.871,61.25L184.939,59.688L185.007,60L185.076,58.125L185.144,57.5L185.213,56.875L185.281,57.812L185.35,56.563L185.418,58.75L185.487,59.063L185.555,58.125L185.623,57.188L185.692,57.5L185.76,60.313L185.829,60L185.897,57.812L185.966,59.688L186.034,60.625L186.103,61.25L186.171,61.563L186.239,63.75L186.308,64.375L186.376,62.812L186.445,63.438L186.513,61.875L186.582,60.313L186.65,60.625L186.719,65L186.787,60L186.855,60.938L186.924,60.625L186.992,60.625L187.061,62.5L187.129,63.438L187.198,63.75L187.266,63.438L187.335,62.187L187.403,64.063L187.471,63.438L187.54,60.625L187.608,62.5L187.677,60L187.745,58.125L187.814,57.188L187.882,56.25L187.951,57.188L188.019,55.313L188.087,53.125L188.156,54.063L188.224,53.125L188.293,51.875L188.361,52.812L188.43,56.563L188.498,56.563L188.567,56.875L188.635,57.188L188.704,58.125L188.772,59.063L188.84,65.625L188.909,64.688L188.977,63.438L189.046,62.812L189.114,48.125L189.183,46.875L189.251,48.125L189.32,50.313L189.388,51.25L189.456,49.688L189.525,48.125L189.593,48.75L189.662,48.125L189.73,48.75L189.799,51.875L189.867,52.188L189.936,45.625L190.004,44.688L190.072,39.062L190.141,39.062L190.209,37.813L190.278,37.5L190.346,35.313L190.415,33.438L190.483,30.312L190.552,29.687L190.62,31.875L190.688,30.312L190.757,28.438L190.825,30.312L190.894,27.5L190.962,24.687L191.031,25.312L191.099,27.5L191.168,42.5L191.236,43.75L191.304,41.875L191.373,38.438L191.441,37.813L191.51,36.563L191.578,36.25L191.647,37.188L191.715,38.125L191.784,39.375L191.852,37.5L191.92,37.5L191.989,42.813L192.057,41.563L192.126,49.062L192.194,52.812L192.263,53.75L192.331,56.563L192.4,58.75L192.468,57.812L192.537,59.688L192.605,62.812L192.673,62.5L192.742,62.812L192.81,63.125L192.879,59.375L192.947,61.563L193.016,65.625L193.084,66.875L193.153,67.812L193.221,67.812L193.289,66.563L193.358,65.313L193.426,65.625L193.495,67.5L193.563,69.688L193.632,71.875L193.7,72.5L193.769,73.125L193.837,72.5L193.905,74.063L193.974,73.75L194.042,75L194.111,78.438L194.179,76.25L194.248,75.625L194.316,76.875L194.385,75.313L194.453,77.188L194.521,81.25L194.59,82.5L194.658,82.187L194.727,82.5L194.795,83.438L194.864,85.938L194.932,89.375L195.001,90.313L195.069,91.25L195.137,91.25L195.206,91.875L195.274,90.313L195.343,92.5L195.411,95.625L195.48,99.063L195.548,99.375L195.617,99.375L195.685,98.125L195.753,98.125L195.822,97.5L195.89,97.813L195.959,97.813L196.027,98.438L196.096,98.438L196.167,99.063L196.235,100.937L196.304,100L196.372,99.063L196.441,100.625L196.509,100.313L196.578,100L196.646,99.063L196.715,98.75L196.783,97.5L196.851,98.125L196.92,98.75L196.988,99.688L197.057,99.375L197.125,97.813L197.194,92.813L197.262,88.75L197.331,89.688L197.399,89.375L197.467,89.688L197.536,88.125L197.604,86.875L197.673,87.188L197.741,87.5L197.81,87.188L197.878,88.125L197.947,89.063L198.015,89.688L198.084,90L198.152,90L198.22,89.688L198.289,89.375L198.357,90.313L198.426,90.313L198.494,89.688L198.563,88.75L198.631,89.063L198.7,90.313L198.768,90.625L198.836,92.813L198.905,93.75L198.973,90.938L199.042,89.063L199.11,89.375L199.179,89.375L199.247,94.063L199.316,98.125L199.384,97.5L199.452,96.563L199.589,94.375L199.658,94.688L199.726,95.313L199.795,95.625L199.863,97.188L199.932,95.625L200,93.438L200.068,94.375L200.137,93.438L200.205,94.375L200.274,96.25L200.342,96.563L200.411,96.875L200.479,96.875L200.548,97.813L200.616,98.125L200.684,97.813L200.753,97.188L200.821,96.563L200.89,95L200.958,94.688L201.027,93.75L201.095,94.688L201.164,96.25L201.232,96.25L201.3,97.188L201.369,98.438L201.437,96.563L201.506,96.25L201.574,96.875L201.643,96.875L201.711,97.813L201.78,97.188L201.848,95.625L201.916,92.813L201.985,93.125L202.053,92.813L202.122,90.938L202.19,92.5L202.259,92.5" stroke="#4c78a8" stroke-width="2"/></g><g class="mark-group role-title"><g transform="translate(100,-17)"><path class="background" aria-hidden="true" d="M0,0h0v0h0Z" pointer-events="none"/><g><g class="mark-text role-title-text" role="graphics-symbol" aria-roledescription="title" aria-label="Title text 'Special Projects Inspection Team (SPIT): Illegal Hotel Rooms In Residential Building'" pointer-events="none"><text text-anchor="middle" transform="translate(0,10)" font-family="sans-serif" font-size="13px" font-weight="bold" fill="#000" opacity="1">Special Projects Inspection Team (SPIT): Illegal Hotel Rooms In Residential Building</text></g></g><path class="foreground" aria-hidden="true" d="" pointer-events="none" display="none"/></g></g></g><path class="foreground" aria-hidden="true" d="" display="none"/></g></g></g><defs><clipPath id="clip153"><rect x="0" y="0" width="200" height="150"/></clipPath></defs></svg>