<svg xmlns="http://www.w3.org/2000/svg" xmlns:xlink="http://www.w3.org/1999/xlink" version="1.1" class="marks" width="322" height="194" viewBox="0 0 322 194"><rect width="322" height="194" fill="white"/><g fill="none" stroke-miterlimit="10" transform="translate(61,22)"><g class="mark-group role-frame root" role="graphics-object" aria-roledescription="group mark container"><g transform="translate(0,0)"><path class="background" aria-hidden="true" d="M0,0h200v150h-200Z"/><g><g class="mark-group role-axis" aria-hidden="true"><g transform="translate(0.5,0.5)"><path class="background" aria-hidden="true" d="M0,0h0v0h0Z" pointer-events="none"/><g><g class="mark-rule role-axis-grid" pointer-events="none"><line transform="translate(0,150)" x2="200" y2="0" stroke="#ddd" stroke-width="1" opacity="1"/><line transform="translate(0,108)" x2="200" y2="0" stroke="#ddd" stroke-width="1" opacity="1"/><line transform="translate(0,67)" x2="200" y2="0" stroke="#ddd" stroke-width="1" opacity="1"/><line transform="translate(0,25)" x2="200" y2="0" stroke="#ddd" stroke-width="1" opacity="1"/></g></g><path class="foreground" aria-hidden="true" d="" pointer-events="none" display="none"/></g></g><g class="mark-group role-axis" role="graphics-symbol" aria-roledescription="axis" aria-label="X-axis for a time scale with values from Friday, 01 January 2016, 12:00:00 AM to Monday, 01 January 2024, 12:00:00 AM"><g transform="translate(0.5,150.5)"><path class="background" aria-hidden="true" d="M0,0h0v0h0Z" pointer-events="none"/><g><g class="mark-rule role-axis-tick" pointer-events="none"><line transform="translate(0,0)" x2="0" y2="5" stroke="#888" stroke-width="1" opacity="1"/><line transform="translate(50,0)" x2="0" y2="5" stroke="#888" stroke-width="1" opacity="1"/><line transform="translate(100,0)" x2="0" y2="5" stroke="#888" stroke-width="1" opacity="1"/><line transform="translate(150,0)" x2="0" y2="5" stroke="#888" stroke-width="1" opacity="1"/><line transform="translate(200,0)" x2="0" y2="5" stroke="#888" stroke-width="1" opacity="1"/></g><g class="mark-text role-axis-label" pointer-events="none"><text text-anchor="start" transform="translate(0,15)" font-family="sans-serif" font-size="10px" fill="#000" opacity="1">2016</text><text text-anchor="middle" transform="translate(50.03422313483915,15)" font-family="sans-serif" font-size="10px" fill="#000" opacity="1">2018</text><text text-anchor="middle" transform="translate(100,15)" font-family="sans-serif" font-size="10px" fill="#000" opacity="1">2020</text><text text-anchor="middle" transform="translate(150.03422313483915,15)" font-family="sans-serif" font-size="10px" fill="#000" opacity="1">2022</text><text text-anchor="end" transform="translate(200,15)" font-family="sans-serif" font-size="10px" fill="#000" opacity="1">2024</text></g><g class="mark-rule role-axis-domain" pointer-events="none"><line transform="translate(0,0)" x2="200" y2="0" stroke="#888" stroke-width="1" opacity="1"/></g></g><path class="foreground" aria-hidden="true" d="" pointer-events="none" display="none"/></g></g><g class="mark-group role-axis" role="graphics-symbol" aria-roledescription="axis" aria-label="Y-axis for a linear scale with values from 0 to 18"><g transform="translate(0.5,0.5)"><path class="background" aria-hidden="true" d="M0,0h0v0h0Z" pointer-events="none"/><g><g class="mark-rule role-axis-tick" pointer-events="none"><line transform="translate(0,150)" x2="-5" y2="0" stroke="#888" stroke-opacity="0" stroke-width="1" opacity="1"/><line transform="translate(0,108)" x2="-5" y2="0" stroke="#888" stroke-opacity="0" stroke-width="1" opacity="1"/><line transform="translate(0,67)" x2="-5" y2="0" stroke="#888" stroke-opacity="0" stroke-width="1" opacity="1"/><line transform="translate(0,25)" x2="-5" y2="0" stroke="#888" stroke-opacity="0" stroke-width="1" opacity="1"/></g><g class="mark-text role-axis-label" pointer-events="none"><text text-anchor="end" transform="translate(-7,153)" font-family="sans-serif" font-size="10px" fill="#000" opacity="1">0</text><text text-anchor="end" transform="translate(-7,111.33333333333333)" font-family="sans-serif" font-size="10px" fill="#000" opacity="1">5</text><text text-anchor="end" transform="translate(-7,69.66666666666666)" font-family="sans-serif" font-size="10px" fill="#000" opacity="1">10</text><text text-anchor="end" transform="translate(-7,27.999999999999993)" font-family="sans-serif" font-size="10px" fill="#000" opacity="1">15</text></g></g><path class="foreground" aria-hidden="true" d="" pointer-events="none" display="none"/></g></g><g class="mark-line role-mark marks" clip-path="url(#clip155)" role="graphics-object" aria-roledescription="line mark container"><path aria-label="day: Jan 01, 2010; avg: 3.96666666667" role="graphics-symbol" aria-roledescription="line mark" d="M-149.966,116.944L-149.897,116.944L-149.829,115.556L-149.76,115L-149.692,115.278L-149.555,114.722L-149.487,108.611L-149.418,103.611L-149.281,100.833L-149.213,101.111L-149.144,100.278L-149.076,100L-149.008,98.889L-148.939,98.889L-148.871,98.056L-148.802,96.389L-148.734,96.944L-148.665,97.5L-148.597,97.5L-148.528,96.667L-148.46,95.278L-148.323,93.056L-148.255,87.5L-148.186,84.444L-148.118,84.167L-148.049,81.111L-147.981,80.278L-147.844,77.222L-147.775,75.556L-147.707,74.444L-147.57,75.556L-147.502,75.278L-147.433,75.556L-147.365,75.278L-147.296,75L-147.228,77.5L-147.159,83.889L-147.091,87.778L-147.023,91.111L-146.954,90.833L-146.886,90.278L-146.817,90.556L-146.749,91.111L-146.68,91.944L-146.612,92.778L-146.543,94.444L-146.475,94.167L-146.407,94.167L-146.338,92.222L-146.27,92.778L-146.201,93.889L-146.133,95.833L-146.064,102.778L-145.996,106.667L-145.927,107.222L-145.859,109.444L-145.791,111.389L-145.722,113.889L-145.654,115.556L-145.585,115.278L-145.517,115.556L-145.448,114.167L-145.38,112.778L-145.311,112.778L-145.243,113.889L-145.175,113.889L-145.106,114.444L-145.038,115.556L-144.972,114.167L-144.904,114.444L-144.835,116.111L-144.767,116.389L-144.698,116.111L-144.63,116.667L-144.561,116.111L-144.493,115.556L-144.424,116.111L-144.356,115L-144.288,116.944L-144.219,116.667L-144.151,117.5L-144.014,116.944L-143.945,117.222L-143.877,118.333L-143.808,118.333L-143.74,117.222L-143.672,116.389L-143.603,116.389L-143.535,116.944L-143.466,118.056L-143.398,118.333L-143.329,120L-143.261,121.667L-143.056,122.5L-142.987,121.944L-142.919,121.667L-142.85,120.833L-142.782,121.667L-142.713,122.5L-142.645,122.5L-142.576,121.111L-142.508,120.556L-142.44,120.833L-142.371,120.278L-142.303,120.833L-142.234,121.389L-142.166,122.222L-142.097,123.611L-142.029,123.889L-141.96,124.444L-141.892,124.444L-141.824,122.222L-141.755,122.5L-141.687,122.5L-141.618,123.333L-141.55,125.556L-141.481,124.444L-141.413,124.444L-141.344,123.611L-141.276,123.889L-141.208,123.056L-141.139,122.5L-141.071,123.611L-141.002,122.5L-140.934,121.389L-140.865,121.667L-140.797,121.944L-140.728,121.389L-140.66,121.389L-140.591,120.556L-140.523,121.944L-140.455,121.389L-140.386,121.389L-140.318,122.5L-140.181,121.389L-140.112,120.556L-140.044,120.556L-139.907,119.444L-139.839,119.444L-139.702,120L-139.633,119.722L-139.565,122.222L-139.496,122.5L-139.428,121.944L-139.359,120.556L-139.223,120.278L-139.154,121.944L-139.086,122.5L-139.017,120.833L-138.949,119.444L-138.88,120L-138.812,119.722L-138.743,119.167L-138.607,118.333L-138.538,120L-138.47,119.167L-138.401,118.889L-138.333,116.667L-138.264,116.944L-138.196,116.944L-138.127,116.389L-138.059,116.667L-137.854,116.667L-137.785,115L-137.717,116.667L-137.648,117.5L-137.58,117.222L-137.511,118.611L-137.375,117.5L-137.306,116.944L-137.238,116.111L-137.169,115.833L-137.101,115.833L-137.032,115.278L-136.964,116.111L-136.895,115.556L-136.827,115.556L-136.758,115.556L-136.69,117.5L-136.622,117.778L-136.553,117.222L-136.485,117.778L-136.348,117.222L-136.279,118.333L-136.211,118.611L-136.142,118.056L-136.074,115.556L-136.006,117.222L-135.937,117.5L-135.869,117.778L-135.8,118.056L-135.732,118.889L-135.663,119.444L-135.595,120.556L-135.526,120L-135.39,119.444L-135.321,119.167L-135.253,118.889L-135.184,120L-135.116,120.278L-134.979,121.111L-134.91,121.944L-134.842,121.389L-134.774,122.222L-134.705,122.222L-134.637,122.5L-134.568,121.111L-134.5,121.111L-134.431,121.389L-134.363,121.944L-134.294,122.222L-134.226,121.944L-134.158,122.778L-134.089,123.056L-134.021,121.667L-133.952,122.5L-133.884,125L-133.815,126.111L-133.747,125.278L-133.678,125.278L-133.61,123.333L-133.542,122.5L-133.405,117.778L-133.336,109.167L-133.268,109.444L-133.199,109.722L-133.131,110.278L-133.062,109.444L-132.994,109.167L-132.926,108.611L-132.857,107.778L-132.789,107.5L-132.72,106.944L-132.652,107.222L-132.583,107.222L-132.515,108.056L-132.446,108.889L-132.378,108.333L-132.309,108.056L-132.241,108.611L-132.173,108.889L-132.104,108.333L-132.036,108.611L-131.967,108.333L-131.899,109.722L-131.83,110.278L-131.762,111.111L-131.693,110.278L-131.557,110L-131.488,110L-131.42,111.944L-131.351,113.333L-131.283,117.778L-131.214,125.833L-131.146,125.556L-131.077,125.278L-131.009,125.278L-130.941,126.389L-130.872,125.278L-130.804,125.556L-130.598,126.389L-130.53,126.111L-130.461,125.833L-130.393,125.833L-130.325,126.111L-130.256,125.278L-130.188,126.111L-130.119,125.278L-130.051,125L-129.982,124.722L-129.914,124.167L-129.845,123.889L-129.777,123.333L-129.709,123.889L-129.64,121.667L-129.572,120.278L-129.503,119.722L-129.435,119.722L-129.366,119.722L-129.298,120.278L-129.229,120.278L-129.161,119.722L-129.093,118.056L-128.956,118.056L-128.887,118.333L-128.819,118.333L-128.75,117.778L-128.679,117.5L-128.611,118.056L-128.542,118.056L-128.474,118.056L-128.405,118.611L-128.337,119.722L-128.268,119.444L-128.2,119.444L-128.131,118.333L-128.063,118.333L-127.926,118.333L-127.858,115.833L-127.721,109.444L-127.652,103.333L-127.584,100L-127.447,97.778L-127.242,96.389L-127.173,95.278L-127.105,94.722L-127.036,93.889L-126.968,92.5L-126.831,90.556L-126.762,90L-126.694,90L-126.626,90.278L-126.489,91.111L-126.42,88.056L-126.352,61.111L-126.283,57.222L-126.215,55L-126.146,54.722L-126.078,55L-126.01,55.278L-125.941,51.944L-125.804,50.556L-125.736,50L-125.667,38.333L-125.599,36.389L-125.462,37.5L-125.394,36.111L-125.325,33.611L-125.257,26.944L-125.188,29.722L-125.12,34.444L-125.051,38.889L-124.983,37.5L-124.914,36.111L-124.846,37.5L-124.778,37.5L-124.709,38.333L-124.641,39.722L-124.572,40L-124.504,38.611L-124.435,37.5L-124.367,36.111L-124.298,35.833L-124.23,40L-124.162,66.389L-124.093,69.444L-124.025,69.722L-123.956,69.722L-123.888,68.611L-123.819,66.944L-123.751,70.278L-123.682,71.667L-123.614,71.944L-123.546,82.778L-123.477,83.889L-123.34,83.056L-123.272,81.667L-123.203,85.278L-123.135,94.722L-123.066,98.056L-122.998,98.611L-122.93,98.056L-122.861,100.833L-122.793,103.611L-122.724,105.556L-122.656,106.389L-122.519,106.944L-122.45,105.833L-122.382,106.667L-122.313,107.222L-122.245,107.5L-122.177,109.167L-122.108,110.556L-122.04,109.722L-121.971,110.556L-121.903,111.111L-121.834,113.056L-121.766,113.333L-121.697,114.444L-121.629,116.111L-121.561,114.722L-121.492,114.722L-121.424,115L-121.355,113.889L-121.287,115L-121.218,115.278L-121.15,117.222L-121.081,117.5L-121.013,117.5L-120.945,118.056L-120.876,118.889L-120.808,119.444L-120.739,120.278L-120.671,120.278L-120.602,119.167L-120.534,119.722L-120.465,119.722L-120.397,121.667L-120.329,123.056L-120.26,122.5L-120.192,123.333L-120.123,123.056L-120.058,123.333L-119.989,123.333L-119.921,122.778L-119.852,123.056L-119.784,123.333L-119.715,123.056L-119.647,123.056L-119.578,123.056L-119.51,124.444L-119.442,123.333L-119.373,123.611L-119.305,125.833L-119.236,125L-119.099,125.833L-119.031,126.667L-118.962,126.667L-118.894,124.722L-118.826,125L-118.757,124.722L-118.62,124.444L-118.552,123.889L-118.483,124.167L-118.415,124.167L-118.346,123.333L-118.21,123.611L-118.141,121.944L-118.073,121.944L-118.004,123.333L-117.936,123.056L-117.867,122.5L-117.799,121.944L-117.73,118.611L-117.662,118.333L-117.594,118.333L-117.525,118.611L-117.457,119.167L-117.388,118.889L-117.32,118.333L-117.183,115.278L-117.114,115L-117.046,115.278L-116.978,115L-116.909,115.556L-116.841,115.556L-116.772,115.278L-116.704,115.278L-116.635,117.5L-116.567,117.222L-116.498,118.056L-116.43,118.611L-116.293,119.444L-116.225,118.611L-116.156,119.722L-116.088,120.833L-116.019,120.278L-115.951,121.667L-115.882,121.111L-115.814,120.278L-115.745,120.278L-115.677,121.111L-115.609,121.389L-115.54,124.167L-115.472,124.167L-115.403,123.611L-115.335,122.778L-115.266,122.778L-115.198,123.056L-115.129,123.056L-115.061,125.278L-114.993,126.111L-114.924,126.111L-114.856,125L-114.787,125.278L-114.719,125.278L-114.65,125.556L-114.445,123.889L-114.377,122.778L-114.308,121.667L-114.24,121.944L-114.171,121.389L-114.103,120.833L-114.034,120.556L-113.966,119.722L-113.829,119.722L-113.761,120.278L-113.692,119.444L-113.555,120.278L-113.487,121.389L-113.418,121.667L-113.35,121.111L-113.281,120.556L-113.213,121.667L-113.145,122.222L-113.076,122.778L-113.008,123.333L-112.939,119.167L-112.802,117.778L-112.734,117.778L-112.665,117.778L-112.597,118.056L-112.529,117.5L-112.46,118.056L-112.392,117.222L-112.323,117.5L-112.255,117.5L-112.186,118.889L-112.118,117.222L-111.981,117.5L-111.913,117.222L-111.844,117.222L-111.776,118.056L-111.707,115L-111.639,114.722L-111.57,114.444L-111.502,113.056L-111.433,113.333L-111.365,108.611L-111.296,108.056L-111.228,108.056L-111.16,107.5L-110.954,107.778L-110.886,107.222L-110.817,106.667L-110.749,106.944L-110.68,106.111L-110.612,109.444L-110.544,110.556L-110.475,110.278L-110.407,110.833L-110.338,111.111L-110.27,111.944L-110.201,112.778L-110.133,111.667L-110.064,110.833L-109.996,106.944L-109.928,106.667L-109.859,108.889L-109.791,109.444L-109.722,108.611L-109.654,108.611L-109.585,108.333L-109.517,112.222L-109.448,113.333L-109.38,113.333L-109.312,114.444L-109.243,114.444L-109.175,118.889L-109.106,113.611L-109.038,113.889L-108.969,115L-108.901,114.444L-108.832,114.167L-108.764,113.889L-108.696,113.889L-108.627,115L-108.559,115.556L-108.49,116.111L-108.422,116.389L-108.285,116.667L-108.216,116.111L-108.148,116.111L-108.011,116.111L-107.943,118.056L-107.874,118.333L-107.806,121.667L-107.737,122.222L-107.6,120.833L-107.532,121.389L-107.463,121.667L-107.395,121.667L-107.258,120.556L-107.19,120.278L-107.121,120L-107.053,120.556L-106.984,120.833L-106.916,120.833L-106.847,121.389L-106.711,126.389L-106.642,126.389L-106.574,125.556L-106.505,125.556L-106.437,126.389L-106.368,126.111L-106.3,125.556L-106.231,124.722L-106.163,125L-106.095,125.278L-106.026,126.111L-105.958,125.278L-105.889,125.556L-105.821,125.278L-105.684,125.556L-105.615,125.556L-105.547,125.556L-105.479,125.833L-105.41,124.722L-105.342,126.667L-105.205,126.667L-105.136,127.222L-105.068,127.778L-104.999,128.056L-104.931,127.5L-104.726,125.556L-104.657,125.556L-104.589,125.556L-104.52,126.111L-104.452,125.833L-104.383,125.833L-104.315,125.278L-104.247,126.111L-104.178,126.667L-104.11,126.944L-104.041,127.222L-103.973,128.056L-103.836,128.333L-103.765,127.222L-103.696,126.944L-103.628,126.944L-103.559,127.222L-103.491,126.389L-103.422,125.556L-103.354,125.556L-103.285,125.278L-103.217,125.278L-103.149,125.278L-103.08,126.389L-103.012,126.389L-102.943,126.389L-102.875,125.556L-102.806,125L-102.738,126.111L-102.669,126.667L-102.533,127.5L-102.464,127.222L-102.327,126.111L-102.259,126.111L-102.19,126.389L-102.122,127.5L-102.053,127.778L-101.985,127.5L-101.916,126.944L-101.848,126.111L-101.78,126.111L-101.711,124.444L-101.643,124.444L-101.574,124.722L-101.437,124.444L-101.369,124.444L-101.3,125.278L-101.232,124.722L-101.164,124.722L-101.095,123.056L-101.027,116.667L-100.958,117.222L-100.821,114.444L-100.753,112.222L-100.684,111.944L-100.616,110.833L-100.548,111.111L-100.411,111.389L-100.342,111.111L-100.274,111.111L-100.205,111.944L-100.137,112.222L-100.068,113.333L-100,113.333L-99.932,113.333L-99.795,113.056L-99.726,112.778L-99.658,112.5L-99.589,113.611L-99.452,114.444L-99.384,115L-99.316,116.389L-99.247,116.111L-99.179,115.278L-98.973,115.833L-98.905,115.556L-98.836,115.556L-98.768,116.944L-98.7,118.056L-98.631,119.444L-98.563,125L-98.494,125L-98.426,126.944L-98.357,128.056L-98.289,127.778L-98.22,128.333L-98.152,128.889L-98.084,129.167L-97.947,129.167L-97.878,129.444L-97.81,129.444L-97.741,129.167L-97.673,129.167L-97.536,128.333L-97.467,127.778L-97.399,126.389L-97.331,124.444L-97.262,125L-97.194,125L-97.057,125L-96.988,123.333L-96.92,122.778L-96.851,122.5L-96.715,123.611L-96.646,123.333L-96.578,122.5L-96.509,121.944L-96.441,121.944L-96.372,121.944L-96.304,121.944L-96.167,123.056L-96.099,123.056L-96.03,123.889L-95.962,125L-95.893,124.444L-95.825,124.167L-95.688,124.444L-95.619,123.333L-95.551,123.611L-95.483,123.611L-95.414,124.167L-95.277,123.056L-95.143,121.944L-95.075,120.278L-95.006,118.889L-94.938,119.167L-94.869,121.667L-94.801,121.389L-94.732,120L-94.664,119.444L-94.596,121.389L-94.527,120.556L-94.459,120.833L-94.39,120.833L-94.185,121.111L-94.048,121.667L-93.98,119.167L-93.911,117.5L-93.843,116.111L-93.774,114.722L-93.706,114.722L-93.637,114.722L-93.569,113.889L-93.5,112.778L-93.364,113.889L-93.227,114.444L-93.158,114.167L-93.09,114.722L-93.021,114.444L-92.816,114.167L-92.748,114.167L-92.679,115.556L-92.611,115.556L-92.542,118.056L-92.474,115.278L-92.405,114.167L-92.337,112.222L-92.268,110L-92.2,111.111L-92.132,111.389L-92.063,111.111L-91.995,112.778L-91.926,112.5L-91.858,112.5L-91.789,112.5L-91.721,112.5L-91.652,115L-91.584,116.944L-91.516,117.222L-91.447,118.333L-91.379,118.056L-91.242,117.778L-91.173,117.778L-91.105,118.611L-90.968,118.889L-90.899,118.611L-90.831,117.5L-90.763,117.222L-90.694,116.944L-90.626,117.5L-90.557,117.5L-90.489,116.389L-90.42,115.833L-90.352,115.278L-90.283,119.722L-90.215,118.611L-90.147,119.167L-90.078,120.833L-90.01,121.111L-89.941,120.556L-89.873,120.278L-89.804,119.444L-89.736,119.722L-89.667,120.278L-89.599,119.444L-89.531,118.333L-89.462,118.611L-89.394,118.333L-89.325,118.889L-89.257,118.056L-89.188,117.778L-89.12,117.778L-89.051,118.611L-88.915,118.889L-88.846,118.333L-88.778,118.611L-88.641,114.444L-88.572,114.167L-88.504,113.889L-88.435,113.889L-88.23,113.889L-88.162,114.444L-88.093,115L-88.025,115.278L-87.956,115L-87.888,117.5L-87.819,117.778L-87.751,118.333L-87.683,118.333L-87.614,118.333L-87.477,115.833L-87.409,115.833L-87.34,116.667L-87.272,116.111L-87.203,116.944L-87.135,117.5L-87.067,117.222L-86.998,116.944L-86.93,116.667L-86.861,116.944L-86.793,117.5L-86.724,118.056L-86.656,118.333L-86.519,116.389L-86.45,115.556L-86.382,115L-86.314,120L-86.245,121.111L-86.177,121.667L-86.108,121.111L-86.04,120L-85.971,119.444L-85.903,120.278L-85.834,120L-85.766,118.889L-85.698,119.444L-85.629,120L-85.561,120.278L-85.492,120.278L-85.424,121.111L-85.355,124.444L-85.287,125L-85.218,125L-85.15,125.556L-85.082,122.222L-85.013,123.333L-84.945,121.389L-84.876,121.111L-84.808,121.111L-84.671,121.389L-84.602,121.389L-84.534,120.278L-84.466,120.278L-84.397,121.944L-84.329,121.667L-84.123,120.556L-84.055,119.722L-83.986,119.167L-83.918,119.167L-83.85,118.889L-83.781,118.889L-83.713,119.722L-83.644,118.889L-83.576,116.389L-83.507,118.056L-83.439,118.611L-83.37,118.611L-83.234,118.611L-83.165,118.333L-83.097,117.778L-83.028,117.222L-82.96,117.5L-82.891,116.944L-82.823,116.667L-82.754,120L-82.686,119.167L-82.617,121.667L-82.549,122.222L-82.481,121.944L-82.412,120.833L-82.344,119.722L-82.275,119.722L-82.207,119.722L-82.138,119.444L-82.07,120.556L-82.001,121.389L-81.933,121.389L-81.796,120.833L-81.728,120.833L-81.659,121.111L-81.591,121.944L-81.522,121.667L-81.454,122.222L-81.385,125L-81.317,125L-81.249,124.722L-81.18,125.278L-81.112,123.889L-81.043,119.167L-80.975,119.444L-80.906,120L-80.838,119.722L-80.769,120L-80.701,117.778L-80.633,116.944L-80.564,117.222L-80.496,116.667L-80.359,116.667L-80.29,117.5L-80.222,119.167L-80.153,119.167L-80.085,119.444L-80.017,119.444L-79.674,119.167L-79.606,119.722L-79.537,120.278L-79.469,121.111L-79.401,121.944L-79.264,121.667L-79.195,121.667L-79.127,121.944L-79.058,121.944L-78.99,121.667L-78.921,121.944L-78.85,121.389L-78.782,121.667L-78.713,121.667L-78.645,123.056L-78.576,127.5L-78.508,126.944L-78.439,126.389L-78.371,126.667L-78.303,126.944L-78.234,128.611L-78.166,128.333L-78.097,128.056L-78.029,126.667L-77.96,126.667L-77.892,126.667L-77.823,125.556L-77.755,126.111L-77.618,126.111L-77.55,125.278L-77.481,124.722L-77.413,124.167L-77.344,124.444L-77.276,125L-77.207,124.444L-77.139,123.889L-77.002,124.167L-76.934,124.167L-76.865,124.722L-76.797,125.278L-76.66,125.556L-76.591,125.833L-76.523,125.833L-76.454,125.278L-76.318,124.722L-76.249,124.722L-76.181,125L-76.044,124.722L-75.975,124.722L-75.907,124.444L-75.838,123.889L-75.77,124.722L-75.702,125.278L-75.633,126.667L-75.565,126.389L-75.496,126.111L-75.359,126.111L-75.291,125.833L-75.222,124.444L-75.154,123.889L-75.086,124.444L-75.017,125L-74.949,125.278L-74.88,123.333L-74.812,123.889L-74.743,121.944L-74.675,121.389L-74.606,117.778L-74.538,92.778L-74.47,91.389L-74.401,86.111L-74.333,83.333L-74.264,80.556L-74.196,79.167L-74.127,79.167L-74.059,79.722L-73.99,80.278L-73.922,80L-73.854,77.222L-73.785,76.667L-73.58,77.5L-73.511,75.556L-73.443,75.833L-73.374,75L-73.306,74.444L-73.101,73.056L-73.032,72.5L-72.964,72.5L-72.895,74.444L-72.827,75.556L-72.758,74.722L-72.69,74.722L-72.621,73.889L-72.553,75.278L-72.485,75.278L-72.416,76.667L-72.348,76.389L-72.279,78.056L-72.211,101.667L-72.142,103.056L-72.074,107.222L-72.005,109.167L-71.937,111.944L-71.869,113.333L-71.8,113.056L-71.732,111.389L-71.663,109.722L-71.595,110.278L-71.526,113.056L-71.458,113.611L-71.389,114.167L-71.321,116.111L-71.253,115.833L-71.184,116.389L-71.116,115.833L-71.047,117.5L-70.979,119.444L-70.91,120L-70.842,120.278L-70.773,119.167L-70.705,120.556L-70.637,120L-70.568,119.722L-70.5,120L-70.431,119.167L-70.363,119.722L-70.229,119.722L-70.16,121.111L-70.092,122.222L-70.023,122.222L-69.955,122.778L-69.886,123.889L-69.818,122.778L-69.75,122.5L-69.681,123.056L-69.544,124.444L-69.476,125.556L-69.407,126.111L-69.339,125.278L-69.27,125L-69.202,125L-69.134,124.722L-69.065,123.889L-68.997,123.056L-68.928,124.722L-68.86,124.444L-68.791,122.778L-68.654,122.5L-68.586,121.944L-68.518,122.778L-68.381,123.056L-68.312,119.722L-68.244,117.778L-68.175,117.778L-68.107,115.833L-68.038,116.389L-67.97,116.944L-67.902,116.111L-67.833,115.278L-67.765,113.889L-67.696,113.611L-67.628,113.611L-67.559,114.444L-67.491,114.167L-67.422,112.222L-67.354,109.167L-67.286,108.333L-67.217,108.056L-67.08,108.889L-67.012,109.167L-66.943,108.889L-66.875,109.444L-66.806,110L-66.738,111.667L-66.67,111.667L-66.601,110.833L-66.533,112.222L-66.464,111.389L-66.396,110.278L-66.327,110.278L-66.259,109.722L-66.19,111.389L-66.122,112.222L-66.054,110.833L-65.985,111.667L-65.917,111.389L-65.848,111.667L-65.78,112.778L-65.711,113.056L-65.643,113.056L-65.574,112.778L-65.437,111.667L-65.369,111.667L-65.301,112.5L-65.232,114.444L-65.164,117.222L-65.095,118.333L-65.027,116.944L-64.89,116.667L-64.821,116.667L-64.753,116.111L-64.685,115.833L-64.616,114.722L-64.548,114.167L-64.479,113.333L-64.411,114.444L-64.342,114.444L-64.205,115.556L-64.137,116.111L-64.069,116.389L-64,116.667L-63.932,118.056L-63.863,120L-63.795,121.389L-63.726,123.056L-63.658,123.611L-63.589,123.333L-63.521,123.333L-63.453,123.889L-63.384,124.722L-63.247,125.278L-63.11,126.111L-63.042,125.833L-62.973,125.278L-62.905,124.444L-62.837,124.167L-62.768,123.889L-62.7,123.333L-62.631,123.611L-62.563,123.889L-62.494,124.167L-62.426,124.167L-62.357,125.556L-62.289,126.111L-62.152,125.833L-62.084,125.556L-62.015,125.833L-61.947,126.111L-61.878,125.833L-61.81,126.111L-61.741,125.556L-61.604,125.556L-61.536,125.556L-61.468,125.833L-61.399,126.389L-61.331,126.389L-61.262,126.111L-61.125,125L-61.057,125L-60.92,125.833L-60.852,125.833L-60.783,123.333L-60.646,122.5L-60.578,122.222L-60.509,123.333L-60.441,123.889L-60.372,124.444L-60.304,125.833L-60.236,125L-60.167,124.444L-60.099,125L-60.03,124.722L-59.962,124.444L-59.893,123.611L-59.825,120.833L-59.756,120.278L-59.688,120.278L-59.62,119.722L-59.551,120.556L-59.483,120L-59.414,120.556L-59.277,121.111L-59.209,121.389L-59.14,121.389L-59.072,120.833L-59.004,120.833L-58.935,120.833L-58.798,121.944L-58.73,121.389L-58.661,121.111L-58.593,121.389L-58.524,123.889L-58.456,125.278L-58.388,126.389L-58.182,126.389L-58.114,125.556L-58.045,125L-57.977,125.556L-57.908,126.389L-57.84,126.667L-57.772,126.667L-57.703,126.944L-57.635,127.5L-57.566,127.5L-57.498,131.111L-57.429,131.389L-57.361,130.833L-57.292,131.111L-57.224,130.833L-57.155,131.111L-57.087,130.556L-57.019,130.833L-56.95,130.556L-56.745,130.278L-56.676,130.278L-56.608,128.333L-56.539,128.889L-56.334,128.611L-56.266,129.444L-56.197,128.889L-56.129,129.167L-56.06,129.444L-55.992,128.889L-55.923,128.333L-55.855,128.333L-55.787,129.444L-55.718,128.611L-55.65,127.222L-55.581,126.667L-55.444,126.944L-55.307,126.111L-55.239,126.111L-55.171,126.111L-55.102,126.944L-54.965,126.389L-54.897,127.222L-54.828,127.5L-54.76,126.944L-54.691,127.778L-54.623,127.778L-54.555,128.333L-54.418,127.778L-54.349,127.5L-54.281,127.5L-54.212,128.056L-54.144,129.167L-54.075,128.889L-54.007,128.611L-53.936,128.056L-53.867,128.611L-53.799,128.611L-53.73,128.333L-53.662,127.222L-53.593,126.389L-53.525,126.389L-53.457,125.833L-53.388,123.611L-53.32,117.778L-53.251,117.778L-53.183,116.667L-53.114,115.556L-53.046,114.722L-52.977,114.167L-52.841,113.333L-52.772,113.611L-52.704,112.778L-52.635,112.778L-52.567,113.611L-52.498,113.611L-52.361,113.889L-52.293,113.611L-52.225,113.889L-52.156,114.167L-52.088,112.778L-52.019,92.222L-51.951,91.111L-51.882,88.611L-51.814,86.389L-51.745,84.722L-51.677,83.333L-51.54,82.5L-51.472,81.667L-51.403,82.778L-51.335,82.778L-51.266,81.944L-51.198,79.722L-51.129,81.944L-51.061,85.556L-50.992,85.833L-50.924,86.944L-50.856,88.611L-50.787,85.833L-50.719,75.278L-50.65,71.389L-50.582,69.167L-50.513,68.611L-50.376,67.5L-50.308,66.944L-50.24,63.333L-50.171,59.444L-50.034,58.056L-49.966,57.222L-49.897,56.944L-49.829,58.333L-49.76,71.389L-49.692,64.722L-49.624,51.111L-49.555,50L-49.487,50.278L-49.418,50.556L-49.35,50.556L-49.281,48.611L-49.213,46.944L-49.144,46.111L-49.076,31.944L-49.008,19.167L-48.939,16.944L-48.871,19.167L-48.802,15.833L-48.665,14.722L-48.597,12.222L-48.528,13.611L-48.46,23.333L-48.392,27.778L-48.323,30.278L-48.255,28.889L-48.186,28.056L-48.118,27.778L-48.049,30L-47.981,33.056L-47.912,34.722L-47.844,34.444L-47.775,34.444L-47.707,33.333L-47.639,40.278L-47.57,48.611L-47.502,64.722L-47.433,67.778L-47.365,68.333L-47.296,68.889L-47.228,69.167L-47.159,70.278L-47.091,70.833L-47.023,70.556L-46.954,85.278L-46.886,100.833L-46.817,104.167L-46.749,103.889L-46.68,106.389L-46.612,106.389L-46.543,108.056L-46.475,109.444L-46.407,110.833L-46.338,110.833L-46.27,109.722L-46.201,111.667L-46.133,113.333L-46.064,113.333L-45.996,114.444L-45.927,114.722L-45.859,113.333L-45.791,113.889L-45.722,112.778L-45.654,113.056L-45.585,112.222L-45.517,111.667L-45.448,111.667L-45.38,112.5L-45.314,112.222L-45.246,111.944L-45.177,111.667L-45.109,112.222L-45.04,113.056L-44.972,114.167L-44.904,113.056L-44.835,111.111L-44.767,111.111L-44.698,112.5L-44.63,113.611L-44.561,114.444L-44.493,114.722L-44.424,113.611L-44.356,112.5L-44.288,112.222L-44.219,113.056L-44.151,112.778L-44.082,111.389L-44.014,111.111L-43.945,110.556L-43.877,109.444L-43.808,108.889L-43.74,109.167L-43.672,109.444L-43.603,110.556L-43.535,110.556L-43.398,109.167L-43.329,108.611L-43.261,108.056L-43.192,108.333L-43.124,107.778L-43.056,108.611L-42.987,109.722L-42.919,108.056L-42.85,108.333L-42.782,107.5L-42.713,107.222L-42.645,105.278L-42.576,105.278L-42.508,104.444L-42.44,104.722L-42.371,104.444L-42.303,106.111L-42.234,106.667L-42.166,106.111L-42.097,106.667L-42.029,107.778L-41.96,109.167L-41.892,107.778L-41.824,108.611L-41.755,108.889L-41.687,109.167L-41.618,109.167L-41.55,110L-41.481,108.056L-41.413,108.333L-41.344,110.833L-41.276,111.389L-41.208,111.667L-41.139,112.222L-41.071,112.5L-41.002,112.222L-40.934,111.667L-40.865,112.778L-40.797,110L-40.728,110.833L-40.66,112.5L-40.591,113.889L-40.523,112.5L-40.455,111.667L-40.386,111.111L-40.318,111.111L-40.249,109.722L-40.181,109.722L-40.112,110.278L-40.044,108.889L-39.975,107.222L-39.907,107.222L-39.839,108.611L-39.77,106.944L-39.702,108.333L-39.633,108.889L-39.565,108.889L-39.496,106.111L-39.428,105.278L-39.359,105.278L-39.291,105.278L-39.223,105.556L-39.154,105L-39.086,105.278L-39.017,105.833L-38.949,106.111L-38.88,106.111L-38.812,105.833L-38.743,109.722L-38.675,110.833L-38.607,105.556L-38.538,105L-38.47,106.389L-38.401,108.056L-38.333,108.333L-38.264,109.167L-38.196,110.833L-38.127,111.111L-38.059,111.667L-37.991,113.056L-37.922,114.444L-37.854,113.611L-37.785,114.722L-37.717,116.389L-37.648,116.389L-37.58,117.5L-37.511,118.056L-37.443,121.111L-37.375,123.611L-37.306,123.333L-37.238,122.5L-37.169,122.778L-37.101,123.056L-37.032,122.778L-36.964,122.222L-36.895,120.556L-36.827,120.833L-36.758,121.667L-36.69,121.667L-36.622,121.389L-36.485,127.222L-36.416,127.222L-36.348,126.944L-36.279,126.944L-36.211,126.389L-36.142,126.667L-36.074,125.833L-35.937,125.278L-35.869,124.167L-35.8,122.5L-35.732,120.833L-35.526,120.833L-35.458,116.944L-35.39,116.667L-35.321,116.389L-35.253,115L-35.184,114.444L-35.116,112.778L-35.047,113.056L-34.979,113.889L-34.842,114.444L-34.774,113.611L-34.705,113.056L-34.637,113.889L-34.568,114.167L-34.5,115.556L-34.431,114.167L-34.363,114.722L-34.294,114.167L-34.226,113.333L-34.158,112.222L-34.089,113.611L-34.021,114.444L-33.952,113.611L-33.884,113.889L-33.815,113.889L-33.747,115L-33.678,115.278L-33.61,115.556L-33.542,116.944L-33.473,118.056L-33.405,119.167L-33.336,122.778L-33.268,120L-33.199,120L-33.131,120.833L-33.062,120.556L-32.994,121.389L-32.926,120.833L-32.857,120L-32.789,119.722L-32.652,120L-32.583,119.167L-32.515,118.056L-32.446,118.333L-32.378,118.333L-32.309,120.278L-32.241,120.278L-32.173,120.556L-32.104,121.667L-31.967,122.5L-31.899,122.222L-31.83,121.944L-31.762,122.5L-31.693,122.778L-31.625,121.944L-31.557,121.667L-31.42,120.556L-31.351,121.389L-31.283,120.833L-31.214,120.278L-31.146,119.722L-31.077,119.167L-31.009,121.944L-30.941,122.222L-30.872,122.778L-30.804,123.333L-30.735,124.444L-30.667,124.167L-30.53,123.889L-30.461,124.167L-30.393,124.167L-30.325,124.722L-30.256,125.556L-30.188,126.111L-30.051,125.556L-29.982,125.556L-29.914,125L-29.845,125L-29.777,123.056L-29.64,122.778L-29.572,122.5L-29.503,122.5L-29.435,122.778L-29.366,121.667L-29.298,121.944L-29.229,121.944L-29.093,122.778L-29.021,122.222L-28.953,122.222L-28.884,123.333L-28.816,124.167L-28.747,125L-28.679,124.444L-28.542,122.222L-28.474,121.389L-28.405,120.278L-28.337,119.444L-28.268,119.722L-28.2,121.389L-28.131,121.389L-28.063,120.556L-27.995,122.222L-27.926,122.222L-27.858,122.5L-27.789,122.222L-27.721,122.222L-27.652,121.389L-27.584,121.667L-27.515,121.944L-27.447,122.5L-27.379,122.5L-27.31,122.222L-27.242,121.667L-27.173,122.778L-27.105,123.333L-27.036,123.333L-26.968,124.167L-26.899,124.167L-26.831,125L-26.762,124.444L-26.694,124.167L-26.626,121.389L-26.557,120.556L-26.489,122.5L-26.42,120.833L-26.352,121.667L-26.283,121.111L-26.215,121.389L-26.146,119.444L-26.078,119.167L-26.01,119.722L-25.941,119.444L-25.873,117.5L-25.804,116.667L-25.736,115.556L-25.667,114.444L-25.599,103.333L-25.53,100.278L-25.394,93.056L-25.325,61.944L-25.257,56.389L-25.12,53.056L-25.051,49.722L-24.983,48.611L-24.914,45.278L-24.846,23.889L-24.778,20.556L-24.709,15.556L-24.641,13.333L-24.572,12.778L-24.504,12.222L-24.435,13.889L-24.298,12.778L-24.23,11.944L-24.162,10.833L-24.093,10L-24.025,9.167L-23.956,8.056L-23.888,10L-23.819,10.278L-23.751,9.167L-23.682,7.222L-23.614,8.889L-23.546,8.333L-23.477,9.167L-23.409,5.556L-23.34,14.722L-23.272,15.556L-23.203,22.778L-23.135,53.333L-23.066,58.333L-22.998,61.667L-22.93,62.5L-22.861,59.444L-22.793,59.722L-22.724,79.444L-22.656,77.5L-22.587,78.611L-22.519,79.722L-22.45,80L-22.382,77.222L-22.313,75.556L-22.245,76.944L-22.177,77.222L-22.108,80L-22.04,80.833L-21.971,82.778L-21.903,82.778L-21.834,81.944L-21.766,81.389L-21.697,83.056L-21.629,84.167L-21.561,83.333L-21.492,84.444L-21.424,84.444L-21.355,88.889L-21.287,91.944L-21.218,93.889L-21.15,95L-21.081,95.556L-21.013,96.667L-20.945,95.556L-20.876,97.5L-20.808,101.389L-20.739,103.333L-20.671,104.722L-20.602,110L-20.534,114.444L-20.465,114.722L-20.4,114.722L-20.331,116.667L-20.263,118.611L-20.195,118.889L-20.126,119.444L-20.058,120L-19.989,120L-19.921,120L-19.852,120.833L-19.784,120.833L-19.715,121.111L-19.647,118.611L-19.578,119.444L-19.51,120.278L-19.442,120.278L-19.373,121.389L-19.305,121.389L-19.236,120.833L-19.168,119.722L-19.099,118.889L-19.031,117.778L-18.962,117.778L-18.894,118.333L-18.826,119.444L-18.757,118.889L-18.689,118.889L-18.62,119.167L-18.552,116.944L-18.483,116.667L-18.415,116.667L-18.346,117.222L-18.278,117.5L-18.21,116.667L-18.141,115.833L-18.004,115.556L-17.936,114.722L-17.867,114.167L-17.799,113.889L-17.73,113.611L-17.662,111.944L-17.525,111.389L-17.457,112.5L-17.388,112.5L-17.32,113.056L-17.251,111.944L-17.183,111.111L-17.046,109.167L-16.978,110L-16.909,111.111L-16.841,107.778L-16.772,106.111L-16.704,105L-16.635,103.333L-16.567,101.944L-16.498,102.5L-16.43,103.056L-16.362,102.778L-16.293,104.167L-16.225,104.167L-16.156,104.722L-16.088,101.667L-15.951,102.5L-15.882,104.167L-15.814,105L-15.745,103.889L-15.677,102.5L-15.609,102.222L-15.54,101.944L-15.472,102.222L-15.403,104.167L-15.335,104.722L-15.266,105.556L-15.198,104.722L-15.061,102.778L-14.993,102.222L-14.924,102.222L-14.856,103.333L-14.787,103.333L-14.719,103.611L-14.65,108.333L-14.582,108.333L-14.513,108.889L-14.445,110.833L-14.377,111.944L-14.308,111.944L-14.24,111.111L-14.171,108.611L-14.103,109.444L-14.034,108.889L-13.966,108.611L-13.897,111.389L-13.829,111.667L-13.761,110.833L-13.692,108.889L-13.624,109.167L-13.555,111.111L-13.487,110.556L-13.418,110.278L-13.35,110L-13.281,109.167L-13.213,107.222L-13.145,106.944L-13.076,106.944L-13.008,108.333L-12.939,109.444L-12.871,109.167L-12.802,109.722L-12.734,108.889L-12.665,108.333L-12.597,106.389L-12.529,107.222L-12.46,107.778L-12.392,107.778L-12.323,107.222L-12.255,106.389L-12.186,106.389L-12.118,106.944L-12.049,106.667L-11.981,106.944L-11.913,106.667L-11.844,105.278L-11.776,103.611L-11.707,103.056L-11.639,104.722L-11.57,105.556L-11.502,105.833L-11.433,105.833L-11.365,105.556L-11.296,105.833L-11.228,106.389L-11.16,108.333L-11.091,107.778L-11.023,108.056L-10.954,108.056L-10.886,107.5L-10.817,106.944L-10.749,107.222L-10.68,107.778L-10.612,107.222L-10.544,108.333L-10.475,109.167L-10.407,108.056L-10.338,108.056L-10.27,107.778L-10.201,108.056L-10.133,109.167L-10.064,111.389L-9.996,110.278L-9.928,108.333L-9.859,107.5L-9.791,107.778L-9.722,108.611L-9.654,109.444L-9.585,109.444L-9.517,108.056L-9.448,106.111L-9.38,107.222L-9.312,107.5L-9.243,107.778L-9.175,108.611L-9.106,108.056L-9.038,108.333L-8.969,109.167L-8.901,108.889L-8.832,110.278L-8.696,111.944L-8.627,111.389L-8.559,110.833L-8.49,110.833L-8.422,110L-8.353,110L-8.285,110.278L-8.216,110.278L-8.148,110.833L-8.08,111.944L-7.943,111.389L-7.874,110L-7.806,108.333L-7.737,110.278L-7.669,111.389L-7.6,111.944L-7.532,112.5L-7.463,112.5L-7.395,113.611L-7.327,115.278L-7.258,117.778L-7.19,117.778L-7.121,118.056L-7.053,116.944L-6.984,114.722L-6.916,114.444L-6.847,115.556L-6.779,115L-6.711,113.056L-6.642,111.389L-6.574,111.667L-6.505,111.944L-6.437,112.222L-6.368,111.944L-6.3,112.222L-6.231,112.5L-6.163,110.833L-6.095,110.833L-6.026,110.278L-5.889,110L-5.821,110.278L-5.752,110.833L-5.684,113.611L-5.615,113.333L-5.479,113.889L-5.41,114.444L-5.342,113.056L-5.273,112.5L-5.205,112.5L-5.136,111.389L-5.068,109.722L-4.999,108.889L-4.931,108.333L-4.863,108.333L-4.794,110.278L-4.726,110.278L-4.657,110.556L-4.589,110.833L-4.52,113.056L-4.452,114.722L-4.383,114.722L-4.315,115.278L-4.247,115.833L-4.107,116.111L-4.038,117.222L-3.97,118.056L-3.901,120.278L-3.833,119.167L-3.765,120L-3.696,119.167L-3.628,119.167L-3.559,120L-3.491,120L-3.422,120L-3.354,119.722L-3.285,120.278L-3.217,121.389L-3.149,120.833L-3.08,120.833L-3.012,121.944L-2.943,123.333L-2.875,123.611L-2.738,121.667L-2.669,123.056L-2.601,122.778L-2.533,124.167L-2.464,123.333L-2.396,123.333L-2.327,123.889L-2.19,123.889L-2.122,123.611L-2.053,123.333L-1.985,121.944L-1.916,122.5L-1.848,122.222L-1.78,120.833L-1.711,120.833L-1.643,122.5L-1.574,122.222L-1.437,122.222L-1.369,122.5L-1.3,122.222L-1.232,122.222L-1.164,122.778L-1.095,122.5L-1.027,122.5L-0.958,121.944L-0.89,122.222L-0.821,120.833L-0.753,120.278L-0.684,97.5L-0.616,78.889L-0.548,62.778L-0.479,54.167L-0.342,48.611L-0.274,43.611L-0.205,41.389L-0.068,40.556L0,39.444L0.068,36.944L0.205,33.056L0.274,31.389L0.342,32.778L0.411,30L0.479,29.722L0.548,29.444L0.616,29.167L0.684,28.333L0.753,28.056L0.821,28.056L0.89,25L0.958,25L1.027,25L1.095,23.611L1.164,17.778L1.232,16.389L1.3,16.944L1.369,17.222L1.437,18.333L1.506,18.889L1.574,41.944L1.643,59.722L1.711,77.222L1.78,84.444L1.848,90L1.916,94.722L1.985,97.778L2.053,97.222L2.122,96.944L2.19,98.889L2.259,101.944L2.327,103.333L2.396,103.056L2.464,106.111L2.533,105.556L2.601,105.278L2.669,103.889L2.738,103.611L2.806,104.444L2.875,105L2.943,108.333L3.012,108.611L3.08,108.611L3.149,109.444L3.217,113.889L3.285,115.556L3.354,115.556L3.422,115L3.491,114.167L3.559,114.167L3.628,113.056L3.696,114.722L3.765,116.389L3.833,117.222L3.901,117.778L3.97,116.111L4.038,115.278L4.107,115L4.175,115L4.244,114.444L4.312,115.556L4.381,115.278L4.449,115.278L4.517,114.167L4.586,114.167L4.654,115L4.723,116.944L4.791,117.778L4.86,117.222L4.994,117.222L5.062,116.111L5.131,114.167L5.199,113.889L5.268,114.444L5.336,116.111L5.404,113.889L5.473,113.056L5.541,113.333L5.61,113.333L5.678,113.056L5.747,114.167L5.815,113.056L5.884,112.5L5.952,112.5L6.02,111.667L6.089,113.056L6.157,113.889L6.226,115.833L6.294,117.222L6.363,116.667L6.431,115.556L6.5,115.833L6.568,114.167L6.636,114.722L6.705,115.556L6.773,116.111L6.842,114.167L6.91,112.778L6.979,113.056L7.047,113.611L7.116,114.167L7.184,115.278L7.252,115.833L7.321,115.556L7.389,113.889L7.458,115.556L7.526,116.944L7.595,116.389L7.663,117.5L7.8,115.833L7.868,114.722L7.937,115L8.005,114.722L8.074,113.889L8.142,113.056L8.211,113.056L8.279,110.833L8.348,109.722L8.416,109.167L8.484,110.556L8.553,110.556L8.621,110.278L8.827,110.833L8.895,111.111L8.964,110.833L9.032,111.389L9.101,111.111L9.169,112.222L9.237,111.667L9.306,111.111L9.374,110.556L9.443,111.389L9.511,111.389L9.58,110.833L9.648,110L9.717,110L9.785,108.333L9.853,110L9.922,109.444L9.99,110.833L10.059,111.389L10.127,111.944L10.196,112.778L10.264,113.333L10.333,113.611L10.401,113.056L10.469,115.278L10.538,116.389L10.675,115.833L10.812,115.556L10.88,116.389L10.949,115.833L11.017,116.667L11.085,116.111L11.154,116.667L11.222,115.833L11.291,116.111L11.359,116.111L11.428,116.111L11.496,114.722L11.565,114.444L11.633,113.056L11.701,112.778L11.77,113.611L11.838,115.833L11.907,116.389L11.975,112.5L12.044,111.389L12.112,110.833L12.181,111.389L12.249,109.722L12.317,109.444L12.386,108.333L12.454,107.222L12.523,107.5L12.66,105.833L12.728,105.278L12.797,103.056L12.865,103.056L12.933,103.611L13.002,103.056L13.07,103.056L13.139,102.5L13.207,101.944L13.276,101.667L13.344,101.944L13.413,103.889L13.481,104.722L13.618,104.722L13.686,105L13.755,105.278L13.823,105L13.892,104.722L13.96,104.444L14.029,105L14.097,103.333L14.166,108.889L14.234,109.722L14.302,110.278L14.371,110.278L14.439,111.389L14.508,111.944L14.576,112.778L14.645,112.222L14.713,111.111L14.782,113.333L14.85,113.889L14.918,115.833L14.987,115L15.055,114.167L15.124,114.444L15.192,115.556L15.261,116.667L15.329,118.056L15.398,117.778L15.466,115.833L15.534,115.833L15.603,114.167L15.671,113.889L15.74,114.444L15.808,115.278L15.877,115L15.945,115L16.014,115L16.082,114.444L16.15,116.111L16.219,115.278L16.287,115.278L16.356,114.167L16.424,113.056L16.493,111.944L16.561,111.389L16.63,111.944L16.698,113.611L16.766,114.167L16.835,114.167L16.903,113.056L16.972,111.389L17.04,113.056L17.109,113.889L17.246,113.889L17.314,113.889L17.451,112.222L17.519,110.556L17.588,111.389L17.656,113.889L17.725,112.222L17.793,113.056L17.93,114.167L17.999,114.444L18.067,111.667L18.135,113.889L18.204,113.611L18.272,111.667L18.341,111.944L18.409,111.111L18.478,111.111L18.546,111.389L18.615,112.778L18.683,114.167L18.751,114.722L18.82,114.722L18.888,114.722L18.957,114.722L19.025,115.556L19.094,115.556L19.162,116.111L19.299,117.778L19.367,116.389L19.436,115.278L19.504,115.278L19.573,115.278L19.641,116.667L19.71,116.389L19.778,112.778L19.847,112.222L19.915,112.778L19.983,113.333L20.052,112.778L20.12,113.611L20.189,116.389L20.326,116.111L20.394,116.667L20.463,117.778L20.531,117.778L20.599,117.222L20.668,116.944L20.736,114.444L20.805,113.333L20.873,112.778L20.942,113.889L21.01,115L21.079,115L21.147,115.278L21.215,115.833L21.287,115.556L21.355,116.111L21.424,115.556L21.492,116.389L21.561,117.5L21.629,116.667L21.697,116.389L21.766,112.5L21.834,114.722L21.903,117.222L21.971,116.667L22.04,116.944L22.108,115L22.177,113.889L22.313,113.889L22.382,113.333L22.45,113.611L22.519,113.056L22.656,113.889L22.724,114.167L22.793,115.556L22.861,115.556L22.93,118.056L22.998,119.167L23.066,119.722L23.135,112.222L23.203,104.444L23.272,101.389L23.34,98.611L23.409,95.556L23.477,95.833L23.682,94.444L23.751,95L23.819,95L23.888,93.611L23.956,92.778L24.025,90L24.093,92.5L24.162,92.222L24.23,92.5L24.298,93.333L24.367,91.667L24.435,91.944L24.504,93.056L24.709,90.556L24.778,90.556L24.846,90.278L24.914,90.556L24.983,89.722L25.12,88.889L25.188,88.056L25.257,86.667L25.325,86.944L25.394,86.667L25.462,85.556L25.53,93.056L25.599,99.444L25.667,92.222L25.736,88.056L25.804,86.389L25.873,84.722L25.941,83.333L26.01,81.389L26.078,80.278L26.146,80L26.215,81.111L26.283,83.611L26.352,85.278L26.42,84.722L26.489,84.444L26.557,83.056L26.626,84.444L26.694,85.833L26.762,85.556L26.831,88.056L26.899,88.611L27.036,88.333L27.105,88.611L27.173,88.611L27.242,88.333L27.31,88.611L27.379,91.389L27.447,89.722L27.515,88.889L27.584,89.444L27.652,88.611L27.721,90L27.789,100.278L27.858,107.5L27.926,111.389L27.995,93.056L28.063,88.056L28.131,86.111L28.2,85.278L28.268,85.556L28.337,83.889L28.405,81.389L28.474,80.833L28.542,79.444L28.611,79.167L28.679,78.889L28.747,78.889L28.816,78.889L28.884,79.167L28.953,76.944L29.021,76.667L29.09,76.389L29.158,73.611L29.227,73.889L29.295,75L29.363,74.167L29.432,72.5L29.5,72.5L29.569,71.667L29.637,71.667L29.706,71.944L29.774,71.389L29.843,70L29.908,68.333L29.977,67.5L30.045,86.111L30.114,93.056L30.182,97.222L30.25,99.444L30.319,100L30.387,102.5L30.456,105.278L30.524,106.111L30.593,107.5L30.661,108.611L30.73,110.278L30.798,111.111L30.866,110.278L30.935,109.722L31.003,110.556L31.072,109.167L31.14,107.778L31.209,109.722L31.277,108.889L31.346,108.333L31.414,108.889L31.482,109.722L31.551,100.833L31.619,101.667L31.688,101.667L31.756,100.833L31.825,99.167L31.893,100.278L31.962,99.444L32.03,100.556L32.098,101.944L32.167,101.389L32.235,98.889L32.304,97.778L32.372,98.056L32.441,97.222L32.509,96.389L32.578,96.389L32.646,95.833L32.714,93.611L32.783,93.333L32.851,91.667L32.92,90.556L32.988,89.444L33.057,90L33.125,91.944L33.194,93.889L33.262,94.722L33.33,95.556L33.399,95L33.467,95.278L33.536,95L33.604,105.556L33.673,106.667L33.741,106.111L33.81,107.222L33.878,109.444L33.946,109.444L34.015,112.222L34.083,112.5L34.152,111.667L34.22,112.222L34.289,113.056L34.357,113.333L34.426,111.667L34.494,112.5L34.563,107.222L34.631,104.722L34.699,104.167L34.768,105.278L34.836,105L34.905,105L34.973,105.278L35.042,106.667L35.11,106.389L35.179,106.111L35.247,105.556L35.315,105.278L35.384,105.556L35.452,106.389L35.521,105.833L35.589,106.944L35.658,105.278L35.726,105L35.795,101.111L35.863,100.833L35.931,100.833L36,99.722L36.137,99.167L36.205,98.611L36.274,99.722L36.342,100L36.411,101.389L36.479,102.222L36.547,103.333L36.616,101.389L36.684,104.722L36.753,106.944L36.821,108.333L36.89,109.167L36.958,108.056L37.027,109.167L37.095,110.556L37.163,110.278L37.232,110.556L37.3,110.556L37.369,110.833L37.437,109.444L37.506,108.333L37.574,107.778L37.643,107.5L37.711,105L37.779,106.111L37.848,106.667L37.916,110.278L38.053,110.833L38.122,110L38.19,110.278L38.259,109.722L38.327,110.556L38.396,110.833L38.464,110.833L38.532,109.722L38.601,110.278L38.669,109.722L38.738,109.444L38.806,111.944L38.875,111.944L38.943,111.944L39.012,112.222L39.08,113.333L39.148,113.056L39.217,111.389L39.285,112.5L39.354,113.333L39.422,113.611L39.491,113.056L39.559,114.444L39.628,116.111L39.696,115.556L39.764,114.722L39.833,116.389L39.901,116.389L39.97,115.833L40.038,115L40.107,114.444L40.175,113.056L40.244,113.333L40.312,114.167L40.38,113.889L40.449,113.333L40.517,112.778L40.586,113.611L40.654,112.222L40.723,113.611L40.791,115.556L40.86,115.556L40.928,115L40.996,114.444L41.065,113.611L41.133,113.333L41.202,113.611L41.27,114.444L41.339,114.444L41.407,112.778L41.476,112.778L41.544,113.889L41.612,112.5L41.681,111.111L41.749,111.389L41.818,113.056L41.886,113.889L41.955,114.167L42.023,113.333L42.092,114.722L42.16,115.833L42.228,117.5L42.297,117.778L42.365,117.778L42.434,118.056L42.502,118.611L42.571,118.889L42.639,118.889L42.708,119.722L42.845,119.722L42.913,118.333L42.981,118.333L43.05,117.778L43.187,118.056L43.324,118.611L43.392,117.222L43.461,115.833L43.529,116.667L43.597,116.111L43.734,117.222L43.803,115.278L43.871,115L43.94,116.389L44.008,118.056L44.077,118.611L44.145,119.167L44.213,118.333L44.282,118.333L44.35,119.444L44.419,119.444L44.487,119.167L44.556,119.167L44.624,118.889L44.693,118.056L44.829,118.333L44.898,117.5L45.035,118.333L45.103,118.611L45.172,118.611L45.24,118.333L45.309,120L45.377,120.556L45.445,121.944L45.514,122.778L45.582,123.056L45.651,123.611L45.719,125L45.788,125L45.856,125.278L45.925,125.833L45.993,127.222L46.061,126.944L46.13,123.611L46.201,123.056L46.27,123.333L46.338,123.333L46.407,123.333L46.475,121.389L46.543,120.278L46.68,120.556L46.749,119.167L46.817,118.333L46.886,118.611L46.954,119.722L47.023,117.778L47.091,117.778L47.159,116.667L47.228,116.111L47.296,115.833L47.433,115L47.502,115.278L47.57,115.278L47.639,115L47.707,114.167L47.775,113.889L47.844,115.833L47.912,114.167L47.981,110.833L48.049,108.889L48.118,97.778L48.186,86.111L48.255,81.944L48.323,82.5L48.392,78.889L48.46,76.111L48.528,74.167L48.597,74.167L48.665,73.889L48.734,72.222L48.802,71.389L48.871,71.667L48.939,70.556L49.008,70L49.076,69.167L49.144,69.722L49.213,70.556L49.281,71.111L49.35,70.278L49.418,69.167L49.487,69.167L49.624,67.778L49.692,66.944L49.76,66.111L49.897,66.667L49.966,66.389L50.034,66.111L50.103,68.333L50.171,71.111L50.24,72.222L50.308,82.5L50.376,93.611L50.445,97.222L50.513,100.556L50.582,103.056L50.65,104.444L50.719,104.722L50.787,105.556L50.856,106.944L50.924,107.5L50.992,107.5L51.061,108.333L51.129,108.889L51.198,109.722L51.266,109.444L51.335,108.889L51.403,108.611L51.472,107.222L51.54,107.222L51.608,108.056L51.677,109.167L51.745,109.722L51.814,110.278L51.882,111.111L51.951,108.889L52.019,109.444L52.088,108.056L52.156,105.556L52.225,106.111L52.293,106.944L52.361,105.833L52.43,104.722L52.498,103.889L52.567,100.556L52.635,99.167L52.704,99.444L52.772,100.833L52.841,99.722L52.909,98.889L52.977,99.444L53.046,99.444L53.114,98.333L53.183,100L53.251,99.722L53.32,99.722L53.388,100.556L53.457,95.833L53.525,83.889L53.593,81.667L53.662,80.833L53.73,80.278L53.799,77.778L53.867,76.944L53.936,76.389L54.004,75.278L54.073,74.167L54.141,75.833L54.209,78.333L54.278,78.056L54.346,76.944L54.415,77.778L54.483,77.778L54.552,79.722L54.62,82.5L54.689,84.722L54.757,85L54.823,83.056L54.891,83.056L54.96,85L55.028,85.833L55.096,87.222L55.165,88.611L55.233,84.167L55.302,84.167L55.37,84.444L55.439,83.611L55.507,87.5L55.576,101.389L55.644,104.444L55.712,104.444L55.781,104.444L55.849,107.5L55.918,107.778L55.986,106.944L56.055,108.889L56.123,110.556L56.192,110.278L56.26,109.722L56.328,109.444L56.397,109.444L56.465,109.444L56.534,109.722L56.602,108.889L56.671,108.611L56.739,108.056L56.808,107.778L56.876,108.056L56.944,107.778L57.013,107.778L57.081,108.611L57.15,107.778L57.218,106.667L57.287,110.278L57.355,110.278L57.424,109.722L57.492,110L57.56,110.833L57.629,109.167L57.697,109.444L57.766,109.722L57.834,109.167L57.903,108.611L57.971,108.889L58.04,109.444L58.108,110.278L58.176,110.278L58.245,110L58.313,110.278L58.382,110.556L58.45,110.556L58.519,110.556L58.587,111.667L58.656,111.944L58.724,112.222L58.792,112.222L58.861,113.611L58.929,115.278L58.998,115.833L59.066,115L59.135,114.167L59.203,113.889L59.272,112.778L59.34,112.5L59.409,112.778L59.477,112.222L59.545,113.056L59.614,113.056L59.751,114.167L59.819,114.444L59.888,116.111L59.956,117.5L60.025,117.5L60.093,117.778L60.161,117.778L60.23,113.611L60.298,112.778L60.367,112.778L60.435,112.5L60.504,113.611L60.572,114.444L60.641,115L60.709,115.556L60.777,115.556L60.846,116.111L60.914,117.5L60.983,115.833L61.051,115L61.12,115L61.188,114.722L61.257,113.056L61.325,113.889L61.393,112.778L61.462,113.333L61.53,111.111L61.599,108.889L61.667,108.333L61.736,107.222L61.804,107.778L61.873,106.389L61.941,105.556L62.009,105.278L62.078,105L62.146,105.278L62.215,103.056L62.283,107.778L62.352,108.056L62.42,106.944L62.489,106.389L62.557,105.556L62.625,105.833L62.694,104.722L62.762,103.611L62.831,103.611L62.899,103.333L62.968,99.444L63.036,99.722L63.105,98.611L63.173,99.167L63.242,93.889L63.31,96.389L63.378,96.389L63.447,98.889L63.515,98.889L63.584,101.111L63.652,104.444L63.721,105L63.789,105.833L63.858,105.556L63.926,106.111L63.994,105.278L64.063,104.444L64.131,105.556L64.2,105.556L64.268,108.611L64.337,108.333L64.405,108.056L64.474,108.611L64.542,108.333L64.61,108.889L64.679,109.167L64.747,109.722L64.816,109.167L64.884,107.778L64.953,107.5L65.021,110.833L65.09,112.222L65.158,114.167L65.226,113.889L65.295,119.444L65.363,118.611L65.432,117.778L65.5,118.056L65.637,118.056L65.706,115.556L65.774,116.389L65.842,114.444L65.911,114.444L65.979,113.889L66.048,112.222L66.116,111.944L66.185,110.556L66.253,108.056L66.322,108.056L66.39,106.944L66.458,107.5L66.527,106.389L66.595,105.833L66.664,106.111L66.732,105L66.869,105L66.938,105.833L67.006,107.5L67.074,108.333L67.143,107.222L67.211,106.944L67.28,104.167L67.348,103.889L67.417,103.611L67.485,103.056L67.554,103.611L67.622,104.167L67.691,104.722L67.827,105.278L67.896,107.222L68.033,105.833L68.17,106.944L68.238,105L68.307,104.722L68.375,107.222L68.443,108.333L68.512,110.833L68.58,112.778L68.649,111.944L68.717,110.833L68.786,110.556L68.854,111.667L68.923,113.056L68.991,114.167L69.059,111.667L69.128,110.278L69.196,108.889L69.265,107.5L69.333,106.944L69.402,108.611L69.47,108.889L69.675,109.444L69.744,109.722L69.812,108.056L69.881,105.556L69.949,106.389L70.018,105.278L70.086,105L70.155,105.278L70.223,105.278L70.291,106.111L70.36,106.944L70.428,107.222L70.497,107.778L70.565,107.5L70.634,106.667L70.702,105.556L70.771,106.111L70.839,106.944L70.907,108.611L70.976,108.056L71.044,107.778L71.116,106.944L71.184,105.556L71.253,109.444L71.321,108.333L71.389,108.611L71.458,109.167L71.526,109.722L71.595,107.778L71.663,108.056L71.732,107.778L71.8,107.778L71.869,108.333L72.005,111.944L72.074,109.444L72.142,110.556L72.211,110.556L72.279,110.556L72.416,111.111L72.485,110L72.553,110.556L72.621,112.778L72.69,113.056L72.758,112.778L72.827,114.444L72.895,114.444L72.964,113.611L73.032,113.333L73.101,113.889L73.169,114.167L73.306,114.722L73.374,114.722L73.443,114.722L73.511,113.611L73.58,114.722L73.648,115L73.717,116.111L73.785,116.111L73.854,117.222L73.922,117.5L73.99,118.056L74.059,118.056L74.196,119.722L74.264,119.444L74.333,121.389L74.47,121.389L74.538,120.556L74.606,120.278L74.675,120.556L74.743,122.222L74.812,121.667L74.88,121.389L74.949,121.111L75.017,121.111L75.086,119.167L75.154,118.333L75.222,118.611L75.291,117.222L75.359,114.167L75.428,112.778L75.496,110.278L75.565,110.278L75.633,111.389L75.702,112.5L75.77,112.5L75.838,110L75.907,107.778L75.975,107.222L76.112,107.222L76.181,106.111L76.249,108.056L76.318,107.5L76.386,107.222L76.454,106.111L76.523,105.278L76.591,105.556L76.66,106.944L76.728,106.389L76.797,103.611L76.865,102.778L76.934,102.778L77.002,102.778L77.07,101.389L77.139,92.778L77.207,94.167L77.276,86.389L77.344,86.111L77.413,86.389L77.481,86.944L77.55,87.222L77.618,88.889L77.687,89.722L77.755,89.722L77.823,88.056L77.892,88.333L77.96,90.833L78.029,92.222L78.097,93.889L78.166,93.333L78.234,93.056L78.303,92.778L78.371,92.5L78.439,90.556L78.508,91.944L78.576,91.944L78.645,91.111L78.713,90L78.782,90L78.85,91.389L78.919,92.222L78.987,93.056L79.055,92.5L79.124,94.167L79.192,101.944L79.261,101.111L79.329,109.722L79.398,109.444L79.466,110.556L79.535,110.556L79.603,110.556L79.671,109.722L79.737,108.889L79.805,108.056L79.874,108.056L79.942,108.889L80.011,106.667L80.079,107.222L80.216,105.833L80.285,106.667L80.353,107.5L80.422,107.5L80.49,108.611L80.558,110.278L80.627,110L80.695,110.278L80.764,110.556L80.832,111.667L80.901,111.667L80.969,112.222L81.106,110.278L81.174,109.167L81.243,106.944L81.311,105.833L81.38,107.222L81.448,108.333L81.517,108.333L81.585,106.944L81.654,106.667L81.722,108.611L81.79,108.333L81.859,109.167L81.927,108.333L81.996,108.611L82.064,107.778L82.133,106.944L82.201,110L82.27,108.889L82.338,109.167L82.406,108.611L82.475,108.333L82.543,107.778L82.612,106.389L82.749,105.833L82.817,105.278L82.886,106.389L82.954,105.556L83.022,105L83.091,104.167L83.159,103.889L83.228,102.222L83.296,102.5L83.365,105L83.433,104.167L83.502,103.333L83.57,102.5L83.638,103.056L83.707,104.444L83.775,104.444L83.844,104.167L83.912,104.722L83.981,105.278L84.049,106.667L84.118,106.944L84.186,109.167L84.255,107.778L84.323,107.222L84.391,107.222L84.46,104.444L84.528,103.056L84.597,103.333L84.665,103.611L84.734,104.167L84.802,102.778L84.871,102.5L84.939,101.389L85.007,103.056L85.076,102.778L85.144,103.611L85.213,103.333L85.281,106.111L85.418,106.667L85.487,106.944L85.555,108.333L85.623,109.444L85.692,109.444L85.76,108.611L85.829,108.611L85.966,108.889L86.034,110L86.103,111.389L86.171,110.556L86.239,110.278L86.308,109.722L86.445,108.611L86.513,109.722L86.582,109.722L86.65,110.556L86.719,109.444L86.787,108.889L86.855,108.889L86.924,109.167L86.992,109.444L87.061,110.833L87.129,111.111L87.198,111.944L87.266,110L87.403,110.278L87.471,110.278L87.54,111.111L87.608,111.667L87.677,111.389L87.745,110.556L87.814,107.778L87.951,106.667L88.019,107.222L88.087,107.778L88.156,108.333L88.224,108.611L88.293,108.056L88.361,106.667L88.43,107.5L88.498,107.5L88.567,108.611L88.635,109.444L88.704,109.444L88.772,109.444L88.84,109.722L88.909,111.389L88.977,114.444L89.046,114.167L89.114,113.056L89.183,111.944L89.32,112.778L89.388,113.611L89.456,112.5L89.525,113.611L89.593,113.611L89.662,113.333L89.73,113.333L89.799,113.333L89.867,113.611L89.936,113.611L90.004,116.667L90.072,117.778L90.141,117.5L90.209,118.333L90.278,118.333L90.346,118.611L90.415,119.167L90.483,120.278L90.552,120.278L90.62,120.833L90.688,120.278L90.757,120L90.825,120.278L90.894,120.278L90.962,120.278L91.031,123.056L91.099,122.222L91.236,122.5L91.304,122.778L91.373,124.167L91.441,124.444L91.51,124.722L91.578,125L91.647,125.833L91.715,125.556L91.784,126.389L91.852,126.944L91.92,127.222L91.989,126.667L92.057,127.5L92.126,127.778L92.194,127.778L92.263,128.333L92.331,128.056L92.4,127.5L92.468,126.944L92.537,126.111L92.605,126.111L92.673,126.944L92.742,126.944L92.81,127.778L92.879,127.222L92.947,127.778L93.016,128.056L93.084,128.056L93.153,128.333L93.221,128.889L93.289,128.889L93.358,129.722L93.426,129.167L93.563,129.444L93.632,129.444L93.7,130.278L93.769,129.722L93.837,129.722L93.905,130L94.042,129.444L94.111,128.056L94.179,128.889L94.248,128.889L94.316,128.333L94.385,128.333L94.521,128.056L94.59,127.5L94.658,128.611L94.727,128.056L94.795,128.889L94.864,129.167L94.932,128.056L95.001,127.5L95.069,127.5L95.137,128.889L95.274,128.889L95.343,129.444L95.411,129.722L95.48,130L95.548,130.278L95.617,130.556L95.685,130.556L95.753,131.389L95.822,131.111L95.89,130.556L95.959,130.278L96.03,130.278L96.099,131.111L96.167,130.833L96.235,131.111L96.509,131.389L96.578,130.833L96.646,131.111L96.715,131.944L96.783,131.389L96.851,131.389L96.92,132.222L96.988,131.944L97.057,132.778L97.125,132.778L97.194,131.944L97.262,132.778L97.331,133.056L97.467,132.5L97.536,131.944L97.604,131.111L97.673,130.833L97.741,130.833L97.81,129.444L97.878,128.889L97.947,128.333L98.015,128.611L98.084,128.056L98.152,127.5L98.22,127.5L98.289,127.778L98.426,128.333L98.494,127.778L98.563,128.056L98.631,128.333L98.7,128.056L98.768,128.056L98.905,127.5L98.973,127.222L99.042,127.5L99.11,127.222L99.316,127.222L99.384,126.944L99.589,126.944L99.726,126.111L99.795,126.944L99.932,127.222L100,127.222L100.068,127.778L100.137,128.056L100.205,128.889L100.274,128.889L100.411,127.778L100.479,128.889L100.548,127.222L100.616,128.056L100.684,127.222L100.753,127.778L100.821,128.056L100.89,127.778L100.958,128.056L101.027,127.778L101.164,128.333L101.232,128.333L101.3,127.5L101.369,128.056L101.437,128.611L101.506,128.889L101.574,128.889L101.643,127.778L101.711,128.611L101.78,128.611L101.848,128.333L101.916,128.056L101.985,128.611L102.053,128.611L102.122,126.944L102.259,126.667L102.327,126.389L102.396,126.667L102.464,127.222L102.533,126.667L102.601,127.5L102.669,126.944L102.738,128.889L102.806,128.611L102.875,128.889L102.943,128.889L103.012,129.444L103.08,130.278L103.149,130L103.217,130.278L103.285,130.278L103.354,129.722L103.422,130.278L103.491,131.111L103.559,130.833L103.628,130.833L103.696,130.833L103.765,132.222L103.833,132.222L103.901,131.944L103.97,132.222L104.107,132.778L104.175,133.056L104.244,133.056L104.312,134.722L104.381,135.278L104.449,135.278L104.517,135L104.788,135L104.857,135.556L104.925,135.833L104.994,135.833L105.199,135.833L105.268,135.833L105.336,136.111L105.404,136.111L105.541,135.833L105.678,135.556L105.952,135.833L106.089,135.833L106.226,135.278L106.294,135.556L106.5,135.833L106.636,135.556L106.705,134.444L106.842,133.889L106.979,134.167L107.047,133.889L107.116,132.778L107.184,132.222L107.458,132.5L107.595,132.222L107.663,131.667L107.8,130.833L107.868,130.833L108.005,131.111L108.074,131.389L108.211,131.389L108.348,130.833L108.484,131.111L108.621,131.111L108.758,130.556L108.964,130.833L109.032,131.111L109.101,131.111L109.169,130.833L109.237,131.111L109.306,130.833L109.374,130.833L109.443,130.833L109.511,131.111L109.58,130.833L109.648,130.833L109.717,130.833L109.785,130.833L109.922,130.556L109.99,130.278L110.059,130L110.196,130.556L110.264,131.389L110.333,131.667L110.401,131.944L110.469,131.111L110.538,131.667L110.606,131.667L110.675,131.389L110.743,129.167L110.812,129.444L110.88,130L110.949,129.167L111.017,128.889L111.222,128.889L111.291,128.889L111.359,128.611L111.428,128.889L111.496,129.167L111.565,128.611L111.701,128.889L111.77,128.611L111.838,128.333L111.907,128.056L111.975,128.611L112.044,128.611L112.112,127.222L112.181,128.611L112.249,128.333L112.317,126.944L112.454,126.944L112.523,127.5L112.591,126.111L112.66,126.111L112.797,125.833L112.865,127.222L112.933,126.944L113.002,126.389L113.07,125.833L113.139,127.778L113.207,127.5L113.276,125.833L113.344,125L113.413,124.167L113.481,125.556L113.55,124.722L113.618,125L113.686,125L113.755,123.611L113.823,123.056L113.892,122.778L113.96,122.778L114.029,122.222L114.097,122.5L114.234,121.667L114.302,121.667L114.371,122.5L114.439,121.111L114.508,121.944L114.645,123.333L114.713,123.889L114.782,123.889L114.85,125.278L114.987,124.444L115.055,123.889L115.192,123.056L115.261,123.611L115.329,123.611L115.398,124.167L115.534,124.167L115.671,123.056L115.74,124.444L115.808,125L115.877,125.556L115.945,125.278L116.014,125.556L116.082,123.889L116.15,123.611L116.219,124.722L116.287,125.833L116.356,126.389L116.424,125.556L116.493,126.389L116.63,126.111L116.698,126.944L116.766,126.944L116.835,126.944L116.903,127.778L117.04,128.333L117.109,128.333L117.177,127.778L117.246,127.778L117.314,127.778L117.383,128.333L117.451,128.333L117.519,129.167L117.588,128.889L117.656,128.333L117.793,128.333L117.862,126.944L117.93,127.778L117.999,127.778L118.067,128.889L118.204,128.889L118.272,129.167L118.341,129.167L118.409,130.833L118.478,131.111L118.546,131.389L118.615,131.111L118.683,130.278L118.82,131.389L118.888,130.278L119.025,130.833L119.162,130.278L119.231,130L119.299,129.722L119.367,130.278L119.436,130.278L119.504,130.278L119.573,130L119.641,128.611L119.71,128.333L119.778,128.611L119.847,129.444L119.983,129.444L120.052,129.167L120.12,130.278L120.189,130.556L120.257,131.944L120.326,132.5L120.394,132.778L120.531,131.667L120.599,132.222L120.668,132.222L120.736,132.5L120.805,131.944L120.873,131.667L121.013,131.667L121.081,131.111L121.15,131.944L121.218,131.667L121.287,132.222L121.355,131.944L121.424,131.667L121.492,124.167L121.561,123.889L121.629,122.778L121.834,121.667L121.903,120.556L121.971,120.278L122.04,120.556L122.108,120L122.177,120L122.245,119.444L122.313,118.889L122.45,117.778L122.519,116.944L122.587,116.111L122.724,115.833L122.793,115L122.861,114.444L122.93,115.278L122.998,115L123.066,114.167L123.135,113.889L123.203,113.056L123.272,112.778L123.409,112.5L123.477,113.333L123.614,112.222L123.682,111.667L123.819,111.944L123.956,111.389L124.025,112.222L124.093,119.444L124.162,120.556L124.23,121.389L124.298,122.5L124.367,123.889L124.435,125L124.572,125.556L124.641,126.389L124.709,125.833L124.778,119.444L124.846,114.722L124.914,113.333L124.983,111.389L125.051,110L125.12,109.722L125.188,108.056L125.257,104.444L125.325,103.056L125.394,102.778L125.462,103.333L125.599,103.056L125.667,103.611L125.736,103.889L125.804,103.611L125.873,102.5L125.941,102.5L126.01,100.833L126.078,97.5L126.146,98.056L126.283,96.944L126.352,95.833L126.42,94.444L126.489,92.778L126.694,91.944L126.762,90.833L126.899,90.278L127.036,90.278L127.105,89.722L127.173,90L127.242,96.667L127.31,101.667L127.379,104.167L127.447,106.944L127.515,108.611L127.584,108.611L127.652,110L127.721,113.611L127.789,114.722L127.858,114.444L127.926,114.722L127.995,115.278L128.063,115.278L128.131,114.167L128.2,113.889L128.268,114.444L128.337,115.556L128.405,117.222L128.474,120L128.542,119.167L128.611,120.278L128.679,120.278L128.747,121.111L128.816,123.056L128.884,123.611L128.953,124.167L129.021,123.056L129.09,123.611L129.158,123.333L129.227,121.667L129.295,121.944L129.363,121.944L129.432,121.944L129.5,120.556L129.569,121.111L129.637,121.667L129.706,122.5L129.774,122.778L129.843,123.333L129.911,123.611L129.979,122.778L130.045,122.222L130.114,122.222L130.182,122.5L130.25,122.5L130.319,122.5L130.387,122.5L130.456,122.5L130.524,121.944L130.593,123.056L130.661,122.222L130.73,123.056L130.798,123.611L130.866,123.333L130.935,123.056L131.003,123.056L131.072,123.056L131.14,123.056L131.209,122.778L131.277,124.722L131.346,124.167L131.482,124.444L131.551,124.444L131.619,125.556L131.688,124.444L131.756,124.444L131.825,124.722L131.893,123.889L131.962,123.889L132.03,123.611L132.098,123.889L132.167,124.167L132.235,124.722L132.304,125.833L132.372,126.111L132.509,125.833L132.578,125.278L132.646,126.111L132.714,127.5L132.783,126.667L132.851,126.667L132.92,126.111L132.988,126.111L133.057,125.278L133.125,125.556L133.194,126.111L133.33,127.222L133.399,126.111L133.467,126.111L133.536,123.611L133.604,123.611L133.673,122.5L133.81,122.778L133.878,120L133.946,120.556L134.015,118.889L134.083,117.778L134.152,118.889L134.22,117.5L134.289,118.333L134.357,118.611L134.426,119.167L134.494,118.889L134.563,118.333L134.631,118.889L134.699,119.722L134.768,120L134.836,119.722L134.905,119.167L134.973,119.444L135.042,119.722L135.11,121.111L135.179,121.111L135.247,121.667L135.315,121.111L135.384,120.556L135.452,120.833L135.521,121.111L135.589,121.944L135.658,124.167L135.726,123.889L135.795,123.611L135.863,118.611L135.931,120.556L136,119.444L136.068,121.389L136.137,121.667L136.205,120.556L136.274,121.111L136.342,120.556L136.411,120.556L136.479,120.556L136.547,120.278L136.616,120L136.684,118.333L136.821,117.778L136.89,116.944L136.958,116.944L137.027,117.5L137.095,117.778L137.163,117.778L137.232,115.556L137.3,115L137.369,115L137.437,115.278L137.506,115.556L137.574,115.556L137.643,116.111L137.711,115.833L137.779,115.833L137.848,115.833L137.916,117.222L137.985,121.389L138.053,121.667L138.122,121.389L138.19,121.389L138.259,121.111L138.327,122.222L138.396,122.778L138.464,122.5L138.532,121.944L138.601,121.944L138.669,122.222L138.738,122.222L138.806,123.333L138.875,120.278L138.943,121.111L139.012,121.389L139.08,120.833L139.148,120.833L139.217,120.556L139.285,122.5L139.354,122.5L139.559,118.889L139.628,105.833L139.696,102.222L139.764,101.667L139.833,101.389L139.901,100.833L139.97,97.778L140.038,97.5L140.107,96.389L140.175,96.667L140.244,96.389L140.312,97.5L140.38,97.5L140.449,96.111L140.517,94.444L140.586,93.333L140.654,92.5L140.723,92.222L140.791,91.111L140.86,91.111L140.928,90.833L140.996,91.389L141.065,94.167L141.133,94.444L141.202,93.889L141.339,93.889L141.407,93.889L141.544,94.444L141.612,94.722L141.681,95L141.749,98.889L141.818,111.111L141.886,114.444L141.955,114.722L142.023,115.278L142.092,116.111L142.16,119.167L142.228,120.278L142.297,120.833L142.365,120.833L142.434,121.667L142.502,122.222L142.571,122.222L142.639,124.722L142.708,126.389L142.776,125.833L142.981,126.389L143.05,127.5L143.118,128.333L143.187,128.889L143.255,130L143.324,127.778L143.392,127.778L143.461,127.5L143.529,127.222L143.666,127.5L143.734,127.222L143.803,127.5L143.94,126.111L144.008,126.667L144.077,126.944L144.145,128.333L144.213,128.889L144.282,129.444L144.35,129.444L144.419,129.167L144.487,128.333L144.556,127.5L144.624,126.667L144.693,126.944L144.761,126.944L144.829,126.944L144.898,126.944L144.966,126.944L145.035,126.944L145.103,128.889L145.172,130L145.24,130L145.309,129.722L145.377,129.444L145.445,129.167L145.514,131.111L145.582,131.389L145.651,131.667L145.788,132.222L145.856,132.5L145.925,133.056L145.993,132.778L146.061,134.167L146.198,134.167L146.338,133.889L146.475,133.333L146.543,133.333L146.817,132.778L146.886,131.389L146.954,131.389L147.023,132.222L147.091,133.056L147.159,134.444L147.228,134.167L147.296,134.167L147.365,134.444L147.433,133.889L147.502,133.889L147.57,133.889L147.639,133.889L147.707,132.778L147.775,131.944L147.844,130.556L147.912,129.722L148.049,129.444L148.118,129.167L148.323,128.889L148.392,128.333L148.46,127.5L148.528,126.944L148.597,126.667L148.665,126.944L148.734,126.111L148.871,126.111L148.939,125.833L149.008,125.556L149.213,125.278L149.281,125.556L149.35,125.833L149.487,126.111L149.624,125.833L149.692,124.167L149.76,123.889L149.829,119.722L149.897,117.222L149.966,115L150.034,114.444L150.103,113.889L150.171,112.222L150.308,110.833L150.376,111.389L150.445,111.389L150.513,112.5L150.582,113.333L150.65,112.5L150.719,113.056L150.787,113.333L150.856,113.056L150.924,114.167L150.992,113.611L151.061,113.333L151.129,112.778L151.198,113.611L151.266,113.333L151.335,113.333L151.403,114.167L151.472,114.167L151.608,114.167L151.677,115.278L151.745,115L151.814,115.278L151.882,116.389L151.951,115.556L152.019,119.722L152.088,122.5L152.156,124.167L152.225,125L152.293,125.556L152.361,126.667L152.43,128.056L152.498,128.333L152.567,129.167L152.635,128.889L152.704,128.611L152.772,129.444L152.841,129.167L152.909,128.889L152.977,128.611L153.046,127.778L153.114,128.611L153.183,128.889L153.251,128.611L153.32,128.333L153.388,128.056L153.457,128.333L153.525,127.5L153.593,127.222L153.662,127.5L153.73,127.5L153.799,127.5L153.936,127.778L154.004,128.333L154.073,128.889L154.141,129.167L154.209,128.333L154.278,128.889L154.346,128.611L154.415,128.611L154.483,128.611L154.552,128.056L154.62,127.778L154.689,127.778L154.757,128.611L154.894,128.333L154.96,128.333L155.028,128.056L155.096,128.611L155.233,129.722L155.439,130.556L155.507,130.278L155.576,130.556L155.644,130.833L155.712,130.278L155.781,130.278L155.849,129.722L155.918,130.278L155.986,129.722L156.055,128.333L156.123,128.056L156.192,128.333L156.397,128.056L156.534,127.5L156.602,127.5L156.671,127.778L156.739,127.5L156.808,126.944L156.876,126.944L156.944,126.667L157.013,126.944L157.081,127.222L157.15,127.222L157.355,127.222L157.492,127.5L157.56,127.778L157.629,127.222L157.697,125.833L157.766,126.111L157.903,125.833L157.971,125L158.04,125.556L158.108,125.278L158.176,125.278L158.245,124.444L158.313,123.889L158.382,124.167L158.519,124.444L158.587,125.556L158.656,126.944L158.724,127.222L158.792,126.667L158.861,125.833L158.929,126.389L158.998,126.111L159.066,126.389L159.135,126.944L159.272,127.222L159.34,127.222L159.409,127.5L159.477,127.5L159.545,127.222L159.614,127.778L159.682,127.5L159.751,126.111L159.819,126.111L159.888,126.944L159.956,128.889L160.025,128.333L160.093,128.333L160.161,128.889L160.23,128.889L160.298,128.333L160.367,128.889L160.435,130.278L160.504,130.556L160.572,131.111L160.641,130.833L160.709,129.722L160.777,128.889L160.846,128.889L160.914,129.444L160.983,129.722L161.051,128.611L161.12,129.167L161.188,126.944L161.257,126.389L161.325,126.389L161.393,125.278L161.462,123.889L161.53,123.889L161.599,124.444L161.736,124.444L161.804,124.167L161.873,124.722L161.941,124.722L162.009,125L162.146,124.167L162.215,124.167L162.283,124.444L162.352,123.611L162.42,123.611L162.489,124.167L162.694,124.167L162.762,124.167L162.831,123.333L162.899,122.5L162.968,122.5L163.105,123.611L163.173,123.333L163.242,121.944L163.31,121.667L163.447,121.667L163.515,122.222L163.584,122.222L163.652,124.444L163.721,125.556L163.789,125.833L163.858,127.222L163.994,128.333L164.131,128.611L164.2,128.611L164.268,127.5L164.337,127.778L164.405,128.611L164.474,129.167L164.542,128.889L164.61,129.444L164.679,129.444L164.747,129.167L164.816,129.444L164.953,123.333L165.021,122.222L165.09,121.944L165.158,121.389L165.226,123.056L165.295,123.611L165.432,123.611L165.5,123.056L165.569,124.167L165.637,124.722L165.706,125.278L165.774,125L165.842,125.278L165.911,125L166.048,125L166.116,124.722L166.185,124.722L166.253,125L166.39,125L166.458,123.889L166.527,123.889L166.595,124.167L166.732,123.889L166.938,123.889L167.006,123.611L167.143,123.889L167.211,123.611L167.348,123.333L167.417,123.611L167.485,123.889L167.554,129.722L167.622,131.111L167.691,131.111L167.827,131.944L167.896,131.667L167.964,130.833L168.033,130.833L168.101,131.389L168.17,130.278L168.238,130.833L168.375,130.278L168.443,131.389L168.512,131.667L168.58,131.111L168.649,130.833L168.717,131.111L168.786,130.833L168.854,130.278L168.923,130.556L168.991,131.111L169.059,130.833L169.128,131.111L169.265,131.111L169.333,130.833L169.402,131.111L169.539,130.278L169.607,130.556L169.675,130.556L169.812,130L169.881,129.722L170.018,129.167L170.155,128.889L170.223,129.167L170.291,128.889L170.36,128.056L170.428,128.611L170.497,127.778L170.634,126.667L170.702,127.222L170.771,127.5L170.839,127.778L170.907,127.5L170.976,126.944L171.044,127.222L171.113,127.222L171.181,126.944L171.253,126.944L171.321,127.5L171.389,127.5L171.458,127.778L171.526,127.778L171.595,127.778L171.663,128.056L171.732,127.778L171.8,127.222L171.937,126.389L172.005,126.667L172.142,125.833L172.211,125.833L172.279,126.667L172.348,127.5L172.485,126.389L172.621,126.389L172.69,126.389L172.758,126.111L172.827,126.667L172.895,126.944L172.964,127.222L173.032,126.944L173.169,126.944L173.238,126.944L173.306,127.222L173.374,127.778L173.443,128.333L173.511,128.056L173.58,128.056L173.717,127.222L173.785,127.222L173.854,127.222L173.922,127.5L173.99,126.667L174.059,126.944L174.127,126.944L174.196,127.222L174.264,127.5L174.333,128.889L174.401,128.611L174.47,129.722L174.606,130.278L174.675,130.278L174.743,130.278L174.812,130.833L174.88,130.278L175.086,129.722L175.154,130.833L175.222,130L175.291,130.556L175.428,131.389L175.496,132.222L175.565,131.944L175.633,131.667L175.702,131.667L175.838,131.667L175.907,131.667L176.044,132.222L176.181,131.944L176.249,132.778L176.318,132.778L176.386,132.778L176.523,132.5L176.591,133.056L176.66,133.333L176.728,133.611L176.934,133.333L177.002,132.5L177.07,132.5L177.139,131.944L177.207,132.5L177.344,132.5L177.413,132.222L177.481,131.944L177.55,131.944L177.618,131.667L177.687,131.389L177.755,131.389L177.823,131.944L177.892,131.944L177.96,131.667L178.029,131.667L178.097,131.944L178.234,131.667L178.303,131.389L178.371,131.389L178.439,131.667L178.508,130.833L178.576,131.389L178.645,131.667L178.713,131.389L178.782,131.111L178.919,131.111L178.987,131.667L179.055,131.389L179.124,130.833L179.192,131.111L179.329,132.222L179.398,132.5L179.466,133.056L179.535,132.778L179.603,132.778L179.671,132.222L179.74,132.5L179.874,132.5L179.942,132.5L180.011,132.778L180.079,132.778L180.216,132.778L180.285,132.778L180.353,133.056L180.422,132.778L180.49,132.222L180.558,132.5L180.627,132.778L180.695,132.778L180.764,130.278L180.901,130L181.038,129.167L181.106,128.333L181.174,127.778L181.243,128.056L181.38,128.333L181.448,128.056L181.517,127.222L181.585,126.389L181.654,126.667L181.79,126.111L181.859,125.556L181.927,125.833L181.996,125.833L182.064,124.722L182.201,123.611L182.27,123.333L182.338,123.333L182.406,123.611L182.475,124.167L182.543,124.167L182.612,123.889L182.68,123.333L182.749,122.778L182.886,122.778L182.954,123.056L183.022,123.333L183.091,123.056L183.159,123.056L183.228,124.444L183.296,125L183.365,123.333L183.433,123.889L183.502,124.722L183.57,124.722L183.638,124.722L183.707,124.722L183.775,125.556L183.844,126.667L183.912,126.667L183.981,127.222L184.118,127.5L184.186,127.222L184.255,127.222L184.323,128.056L184.391,129.722L184.46,129.722L184.528,130L184.665,130L184.734,129.722L184.802,129.444L184.871,127.778L184.939,128.333L185.213,128.889L185.281,129.167L185.35,128.333L185.418,128.056L185.487,127.5L185.623,126.944L185.692,127.778L185.76,128.056L185.829,130L185.897,129.444L185.966,129.444L186.034,129.444L186.103,129.444L186.171,129.722L186.239,128.611L186.376,128.333L186.445,127.778L186.513,127.778L186.582,128.056L186.65,128.056L186.719,128.333L186.787,127.778L186.855,127.778L187.198,127.222L187.266,127.778L187.335,127.5L187.471,126.667L187.608,126.111L187.677,127.5L187.745,126.389L187.814,126.389L187.951,126.111L188.019,126.944L188.087,127.5L188.156,126.111L188.224,126.389L188.293,126.667L188.43,121.944L188.567,121.389L188.635,121.389L188.704,121.389L188.772,120.833L188.909,119.722L189.046,119.722L189.114,120.833L189.183,120.833L189.251,121.389L189.32,120.556L189.388,120.556L189.456,120.833L189.525,120.556L189.593,121.389L189.73,121.667L189.799,121.944L189.867,121.944L189.936,122.5L190.004,123.333L190.072,123.611L190.141,122.222L190.209,122.5L190.278,122.222L190.346,120.833L190.415,120.278L190.483,120L190.552,121.944L190.62,121.944L190.688,121.389L190.757,126.111L190.894,126.667L190.962,127.5L191.031,126.944L191.099,126.944L191.168,126.111L191.236,123.611L191.373,121.667L191.441,120.833L191.51,120.556L191.578,120.833L191.647,120.556L191.715,120L191.784,118.889L191.92,118.333L191.989,118.056L192.057,118.611L192.126,118.333L192.194,118.611L192.263,118.611L192.331,119.444L192.4,121.667L192.468,122.222L192.537,121.667L192.605,123.056L192.673,123.056L192.81,123.333L192.879,123.611L192.947,123.056L193.016,123.056L193.084,123.056L193.221,123.056L193.289,122.778L193.358,123.333L193.426,123.611L193.495,125.278L193.563,127.778L193.632,129.444L193.7,130.833L193.769,129.444L193.837,129.167L193.905,129.444L193.974,130L194.042,130.556L194.111,130.278L194.248,130L194.316,130L194.385,130.278L194.521,130L194.59,130.556L194.727,129.444L194.795,129.167L194.864,128.889L195.001,129.722L195.069,130L195.206,130.278L195.274,130L195.411,130L195.48,130.278L195.617,130.278L195.685,130.278L195.753,129.722L195.822,130L195.89,130L195.959,130L196.167,130.278L196.235,130L196.304,129.444L196.372,129.167L196.441,129.722L196.509,130.556L196.578,130.556L196.715,130.278L196.783,130.556L196.851,131.389L196.92,131.944L197.057,131.944L197.125,130.833L197.194,131.111L197.262,130.833L197.331,131.389L197.467,131.111L197.536,131.667L197.673,131.111L197.741,130.556L197.947,131.111L198.015,131.111L198.084,131.111L198.152,131.667L198.22,131.667L198.357,131.944L198.426,132.778L198.494,132.222L198.563,131.944L198.631,131.944L198.7,131.944L198.836,131.944L198.973,132.5L199.042,131.944L199.11,131.667L199.179,130.556L199.247,129.722L199.316,129.444L199.384,129.722L199.452,128.889L199.521,128.333L199.658,128.056L199.726,128.611L199.795,127.778L199.932,127.778L200,127.778L200.068,128.333L200.137,128.333L200.205,128.889L200.274,128.889L200.342,128.333L200.411,128.333L200.479,126.667L200.548,125.556L200.616,125.833L200.684,125L200.821,122.778L201.027,123.056L201.095,122.778L201.164,121.667L201.232,121.111L201.3,120.556L201.437,120.556L201.506,121.389L201.574,122.5L201.643,122.222L201.711,122.222L201.848,122.778L201.916,122.778L201.985,123.333" stroke="#4c78a8" stroke-width="2"/></g><g class="mark-group role-title"><g transform="translate(100,-17)"><path class="background" aria-hidden="true" d="M0,0h0v0h0Z" pointer-events="none"/><g><g class="mark-text role-title-text" role="graphics-symbol" aria-roledescription="title" aria-label="Title text 'Sewer: Manhole Cover Missing (Emergency) (SA3)'" pointer-events="none"><text text-anchor="middle" transform="translate(0,10)" font-family="sans-serif" font-size="13px" font-weight="bold" fill="#000" opacity="1">Sewer: Manhole Cover Missing (Emergency) (SA3)</text></g></g><path class="foreground" aria-hidden="true" d="" pointer-events="none" display="none"/></g></g></g><path class="foreground" aria-hidden="true" d="" display="none"/></g></g></g><defs><clipPath id="clip155"><rect x="0" y="0" width="200" height="150"/></clipPath></defs></svg>