<svg xmlns="http://www.w3.org/2000/svg" xmlns:xlink="http://www.w3.org/1999/xlink" version="1.1" class="marks" width="336" height="199" viewBox="0 0 336 199"><rect width="336" height="199" fill="white"/><g fill="none" stroke-miterlimit="10" transform="translate(68,27)"><g class="mark-group role-frame root" role="graphics-object" aria-roledescription="group mark container"><g transform="translate(0,0)"><path class="background" aria-hidden="true" d="M0,0h200v150h-200Z"/><g><g class="mark-group role-axis" aria-hidden="true"><g transform="translate(0.5,0.5)"><path class="background" aria-hidden="true" d="M0,0h0v0h0Z" pointer-events="none"/><g><g class="mark-rule role-axis-grid" pointer-events="none"><line transform="translate(0,150)" x2="200" y2="0" stroke="#ddd" stroke-width="1" opacity="1"/><line transform="translate(0,120)" x2="200" y2="0" stroke="#ddd" stroke-width="1" opacity="1"/><line transform="translate(0,90)" x2="200" y2="0" stroke="#ddd" stroke-width="1" opacity="1"/><line transform="translate(0,60)" x2="200" y2="0" stroke="#ddd" stroke-width="1" opacity="1"/><line transform="translate(0,30)" x2="200" y2="0" stroke="#ddd" stroke-width="1" opacity="1"/><line transform="translate(0,0)" x2="200" y2="0" stroke="#ddd" stroke-width="1" opacity="1"/></g></g><path class="foreground" aria-hidden="true" d="" pointer-events="none" display="none"/></g></g><g class="mark-group role-axis" role="graphics-symbol" aria-roledescription="axis" aria-label="X-axis for a time scale with values from Friday, 01 January 2016, 12:00:00 AM to Monday, 01 January 2024, 12:00:00 AM"><g transform="translate(0.5,150.5)"><path class="background" aria-hidden="true" d="M0,0h0v0h0Z" pointer-events="none"/><g><g class="mark-rule role-axis-tick" pointer-events="none"><line transform="translate(0,0)" x2="0" y2="5" stroke="#888" stroke-width="1" opacity="1"/><line transform="translate(50,0)" x2="0" y2="5" stroke="#888" stroke-width="1" opacity="1"/><line transform="translate(100,0)" x2="0" y2="5" stroke="#888" stroke-width="1" opacity="1"/><line transform="translate(150,0)" x2="0" y2="5" stroke="#888" stroke-width="1" opacity="1"/><line transform="translate(200,0)" x2="0" y2="5" stroke="#888" stroke-width="1" opacity="1"/></g><g class="mark-text role-axis-label" pointer-events="none"><text text-anchor="start" transform="translate(0,15)" font-family="sans-serif" font-size="10px" fill="#000" opacity="1">2016</text><text text-anchor="middle" transform="translate(50.03422313483915,15)" font-family="sans-serif" font-size="10px" fill="#000" opacity="1">2018</text><text text-anchor="middle" transform="translate(100,15)" font-family="sans-serif" font-size="10px" fill="#000" opacity="1">2020</text><text text-anchor="middle" transform="translate(150.03422313483915,15)" font-family="sans-serif" font-size="10px" fill="#000" opacity="1">2022</text><text text-anchor="end" transform="translate(200,15)" font-family="sans-serif" font-size="10px" fill="#000" opacity="1">2024</text></g><g class="mark-rule role-axis-domain" pointer-events="none"><line transform="translate(0,0)" x2="200" y2="0" stroke="#888" stroke-width="1" opacity="1"/></g></g><path class="foreground" aria-hidden="true" d="" pointer-events="none" display="none"/></g></g><g class="mark-group role-axis" role="graphics-symbol" aria-roledescription="axis" aria-label="Y-axis for a linear scale with values from 0 to 10"><g transform="translate(0.5,0.5)"><path class="background" aria-hidden="true" d="M0,0h0v0h0Z" pointer-events="none"/><g><g class="mark-rule role-axis-tick" pointer-events="none"><line transform="translate(0,150)" x2="-5" y2="0" stroke="#888" stroke-opacity="0" stroke-width="1" opacity="1"/><line transform="translate(0,120)" x2="-5" y2="0" stroke="#888" stroke-opacity="0" stroke-width="1" opacity="1"/><line transform="translate(0,90)" x2="-5" y2="0" stroke="#888" stroke-opacity="0" stroke-width="1" opacity="1"/><line transform="translate(0,60)" x2="-5" y2="0" stroke="#888" stroke-opacity="0" stroke-width="1" opacity="1"/><line transform="translate(0,30)" x2="-5" y2="0" stroke="#888" stroke-opacity="0" stroke-width="1" opacity="1"/><line transform="translate(0,0)" x2="-5" y2="0" stroke="#888" stroke-opacity="0" stroke-width="1" opacity="1"/></g><g class="mark-text role-axis-label" pointer-events="none"><text text-anchor="end" transform="translate(-7,153)" font-family="sans-serif" font-size="10px" fill="#000" opacity="1">0</text><text text-anchor="end" transform="translate(-7,123)" font-family="sans-serif" font-size="10px" fill="#000" opacity="1">2</text><text text-anchor="end" transform="translate(-7,93)" font-family="sans-serif" font-size="10px" fill="#000" opacity="1">4</text><text text-anchor="end" transform="translate(-7,63)" font-family="sans-serif" font-size="10px" fill="#000" opacity="1">6</text><text text-anchor="end" transform="translate(-7,32.99999999999999)" font-family="sans-serif" font-size="10px" fill="#000" opacity="1">8</text><text text-anchor="end" transform="translate(-7,3)" font-family="sans-serif" font-size="10px" fill="#000" opacity="1">10</text></g></g><path class="foreground" aria-hidden="true" d="" pointer-events="none" display="none"/></g></g><g class="mark-line role-mark marks" clip-path="url(#clip156)" role="graphics-object" aria-roledescription="line mark container"><path aria-label="day: Jan 02, 2010; avg: 1.83333333333" role="graphics-symbol" aria-roledescription="line mark" d="M-149.897,122.5L-149.692,122L-149.624,121L-149.487,121L-149.213,120.5L-149.144,121.5L-149.076,122.5L-149.008,123.5L-148.939,123.5L-148.802,123L-148.734,122.5L-148.665,123L-148.597,124.5L-148.528,124L-148.46,124L-148.186,124L-148.118,123L-147.844,122.5L-147.775,123L-147.639,123L-147.57,122.5L-147.365,123L-147.296,124L-147.228,124.5L-147.091,124.5L-146.886,124.5L-146.817,124.5L-146.612,124.5L-146.407,122.5L-146.27,123L-146.201,123L-145.859,121.5L-145.791,121L-145.722,119.5L-145.654,117.5L-145.517,117L-145.448,116.5L-145.38,116.5L-145.311,116L-145.243,115L-145.175,113.5L-145.106,112L-144.904,110.5L-144.835,111.5L-144.767,109L-144.698,107L-144.63,108L-144.561,107L-144.424,106L-144.356,105.5L-144.288,106L-144.219,105.5L-144.151,103L-144.082,98L-144.014,98L-143.945,97.5L-143.877,97L-143.808,96.5L-143.672,95.5L-143.603,90.5L-143.535,88.5L-143.466,89.5L-143.398,91L-143.329,90.5L-143.261,92.5L-143.192,92.5L-143.124,90L-143.056,89L-142.987,90.5L-142.919,92L-142.85,93L-142.782,94.5L-142.713,95L-142.576,94.5L-142.508,95.5L-142.44,96.5L-142.371,97.5L-142.303,97L-142.234,95.5L-142.097,94.5L-142.029,94L-141.96,94L-141.892,96.5L-141.824,101.5L-141.755,101.5L-141.687,101.5L-141.618,99.5L-141.55,99.5L-141.481,101.5L-141.413,105.5L-141.344,107.5L-141.276,107L-141.139,104L-141.071,102.5L-141.002,102L-140.934,99.5L-140.865,102.5L-140.797,103.5L-140.728,101.5L-140.66,98.5L-140.591,99L-140.523,98.5L-140.455,98L-140.386,98.5L-140.318,101L-140.249,99.5L-140.181,97.5L-140.112,96.5L-140.044,97.5L-139.975,98L-139.907,99L-139.839,99L-139.77,96.5L-139.702,93.5L-139.633,91.5L-139.565,89.5L-139.496,92L-139.428,92L-139.359,93L-139.291,93.5L-139.223,93L-139.154,94.5L-139.086,97L-139.017,100.5L-138.949,101.5L-138.88,103.5L-138.812,103L-138.743,103L-138.675,105L-138.607,106.5L-138.538,106L-138.47,104.5L-138.401,105.5L-138.333,103.5L-138.264,103L-138.196,104.5L-138.127,104L-138.059,104.5L-137.991,105.5L-137.922,105L-137.785,104L-137.717,104L-137.648,105L-137.58,106.5L-137.511,106L-137.443,108L-137.375,108L-137.306,108L-137.238,107.5L-137.169,106.5L-137.101,105.5L-137.032,103.5L-136.964,102.5L-136.895,102L-136.827,99.5L-136.758,99L-136.553,98.5L-136.485,96L-136.348,94.5L-136.279,94.5L-136.211,96L-136.142,98L-136.074,97L-136.006,97L-135.869,96L-135.8,97L-135.732,95.5L-135.663,95.5L-135.595,90.5L-135.39,86.5L-135.321,86L-135.253,84.5L-135.184,86L-135.116,87.5L-135.047,88.5L-134.979,86L-134.91,85.5L-134.842,84L-134.774,84.5L-134.705,86L-134.637,84L-134.568,85.5L-134.431,82.5L-134.363,82.5L-134.294,85L-134.226,85L-134.158,83.5L-134.089,86L-133.952,84L-133.884,85L-133.815,84.5L-133.747,84.5L-133.678,86L-133.61,88L-133.542,88L-133.473,87.5L-133.405,91.5L-133.336,94L-133.268,99.5L-133.199,104.5L-133.131,106L-133.062,106.5L-132.994,105.5L-132.926,105L-132.857,106.5L-132.789,108.5L-132.72,108.5L-132.652,106.5L-132.515,104L-132.446,104L-132.378,107L-132.309,107.5L-132.241,110.5L-132.104,110L-132.036,109.5L-131.967,111L-131.899,113.5L-131.83,112.5L-131.762,115L-131.693,115.5L-131.625,115L-131.557,113.5L-131.488,113L-131.42,113L-131.351,114L-131.283,114.5L-131.214,114.5L-131.077,114.5L-131.009,113L-130.941,113L-130.872,113L-130.804,113.5L-130.735,113.5L-130.667,113L-130.598,111.5L-130.53,112L-130.461,112L-130.393,116L-130.256,118.5L-130.188,116.5L-130.119,116.5L-130.051,115.5L-129.982,116L-129.914,117L-129.845,117L-129.777,114.5L-129.64,114L-129.572,115L-129.503,115.5L-129.435,114L-129.366,115L-129.298,115L-129.229,115.5L-129.161,115L-129.093,115.5L-129.024,115L-128.956,115L-128.819,114L-128.679,113.5L-128.611,114L-128.542,114L-128.474,115L-128.405,116L-128.337,117L-128.268,118.5L-128.2,119L-128.131,118.5L-127.995,118.5L-127.926,117.5L-127.789,119.5L-127.721,119.5L-127.652,120.5L-127.584,121.5L-127.447,121L-127.242,121L-127.173,123.5L-127.036,124L-126.899,123.5L-126.626,124L-126.557,125L-126.489,125L-126.42,126.5L-126.146,126L-126.078,126L-126.01,125.5L-125.873,126L-125.736,126L-125.667,127L-125.051,129L-124.778,127.5L-124.641,127.5L-124.367,127.5L-124.298,126.5L-123.682,126.5L-123.546,126L-122.93,125.5L-122.793,126.5L-122.724,126.5L-122.587,127.5L-122.245,126.5L-122.177,127L-122.108,126.5L-121.971,126L-121.903,126.5L-121.834,126.5L-121.766,126.5L-121.697,125.5L-121.629,125L-121.424,125L-121.355,124.5L-121.287,124L-120.945,123L-120.808,122L-120.671,122L-120.534,122L-120.397,121.5L-120.329,118.5L-120.26,117L-119.989,116L-119.921,117.5L-119.852,116.5L-119.784,116.5L-119.715,117.5L-119.578,117.5L-119.51,116.5L-119.373,117L-119.305,116L-119.236,114.5L-119.099,114L-119.031,114.5L-118.962,114L-118.894,114L-118.757,111.5L-118.62,109L-118.552,108.5L-118.483,107L-118.346,107.5L-118.278,108L-118.141,108L-118.073,109L-117.936,109.5L-117.867,108.5L-117.799,110L-117.662,110L-117.594,110.5L-117.525,110L-117.457,111L-117.388,109.5L-117.32,107L-117.183,107L-117.114,107L-117.046,105.5L-116.978,103.5L-116.909,102L-116.841,103.5L-116.704,102L-116.635,99.5L-116.567,100L-116.498,99.5L-116.43,100L-116.362,99.5L-116.225,98.5L-116.156,100L-116.088,101L-116.019,101.5L-115.951,103L-115.882,101.5L-115.814,100.5L-115.677,100L-115.609,100L-115.54,100L-115.472,100.5L-115.403,98L-115.335,98.5L-115.198,97L-115.129,98L-115.061,99.5L-114.993,102.5L-114.924,105.5L-114.719,104.5L-114.65,103.5L-114.582,103.5L-114.513,105.5L-114.445,106.5L-114.308,106.5L-114.24,105.5L-114.171,106.5L-114.103,105.5L-113.966,105.5L-113.829,104L-113.761,104.5L-113.692,105.5L-113.624,106.5L-113.555,106.5L-113.35,106L-113.281,104L-113.213,104.5L-113.145,103.5L-113.076,101L-113.008,100L-112.871,99L-112.802,99.5L-112.734,101L-112.665,99.5L-112.597,97.5L-112.529,94L-112.46,91.5L-112.392,91L-112.323,91L-112.255,91L-112.186,91L-112.118,91L-112.049,90.5L-111.981,91L-111.913,91L-111.844,93L-111.776,95L-111.707,95.5L-111.639,96L-111.57,96L-111.502,96L-111.433,96.5L-111.365,95.5L-111.296,95.5L-111.228,96.5L-110.954,97.5L-110.886,99L-110.817,100L-110.749,102.5L-110.68,102L-110.612,103L-110.475,103.5L-110.407,104.5L-110.338,104.5L-110.27,106.5L-110.201,106.5L-110.064,106.5L-109.996,106L-109.928,104L-109.859,103L-109.791,104L-109.722,105.5L-109.585,105.5L-109.517,104.5L-109.448,104L-109.38,104.5L-109.312,104.5L-109.243,104.5L-109.175,105L-109.106,106L-109.038,104L-108.969,104L-108.901,105.5L-108.832,107L-108.49,105L-108.422,103.5L-108.353,103L-108.285,103.5L-108.216,104L-108.148,105.5L-108.08,102L-107.806,101.5L-107.737,101L-107.6,102.5L-107.532,102L-107.463,104L-107.395,106.5L-107.327,105.5L-107.258,107.5L-107.121,109.5L-107.053,110L-106.984,110L-106.916,106.5L-106.847,107L-106.779,107.5L-106.642,107L-106.574,106L-106.505,107L-106.437,106L-106.368,104L-106.3,103L-106.231,101L-106.163,100.5L-106.026,100.5L-105.958,102L-105.889,104L-105.821,104.5L-105.752,104.5L-105.684,104.5L-105.615,103L-105.547,106.5L-105.479,107.5L-105.273,107L-105.205,106.5L-105.136,106L-105.068,107.5L-104.999,108L-104.931,108.5L-104.863,107L-104.794,107L-104.726,107.5L-104.657,107L-104.589,110.5L-104.452,111L-104.247,111L-104.178,110L-104.11,111L-103.973,111.5L-103.765,112.5L-103.696,115L-103.628,117.5L-103.559,119L-103.491,117L-103.285,116.5L-103.217,116L-103.012,116.5L-102.943,116.5L-102.875,117.5L-102.806,116.5L-102.738,116.5L-102.669,116L-102.464,116L-102.396,116.5L-102.327,117L-102.259,119.5L-102.19,119.5L-102.122,118L-102.053,119.5L-101.985,121L-101.848,121L-101.78,121L-101.711,121.5L-101.643,121.5L-101.574,121.5L-101.369,121L-101.232,122.5L-101.164,123L-101.095,123L-100.89,123L-100.821,123L-100.753,124L-100.684,124L-100.616,126.5L-100.342,127L-100.274,127.5L-100,127L-99.932,125L-99.726,125L-99.658,125.5L-99.452,126.5L-99.384,126.5L-99.316,126L-99.179,126.5L-99.11,126.5L-98.905,126L-98.836,126L-98.768,127.5L-98.7,127.5L-98.426,126.5L-98.357,125L-98.289,120.5L-98.22,118.5L-98.084,119L-98.015,118L-97.947,118L-97.878,116.5L-97.81,116L-97.741,116L-97.536,114L-97.467,112.5L-97.399,108L-97.331,106L-97.262,105L-96.988,104.5L-96.851,103L-96.783,102L-96.646,102L-96.578,100.5L-96.509,99L-96.441,99L-96.372,98.5L-96.304,96L-96.099,93L-96.03,93L-95.962,93L-95.825,92.5L-95.619,92L-95.551,90L-95.483,89.5L-95.414,90.5L-95.346,93.5L-95.277,94.5L-95.143,94.5L-95.075,95.5L-95.006,93.5L-94.938,92L-94.869,91L-94.664,90.5L-94.596,92L-94.527,93.5L-94.459,97.5L-94.39,97L-94.322,95.5L-94.185,94.5L-94.116,96L-94.048,96L-93.98,96.5L-93.911,98L-93.706,99L-93.637,99.5L-93.569,100.5L-93.5,103.5L-93.432,105.5L-93.364,105.5L-93.295,104L-93.227,101L-93.158,100.5L-93.09,102.5L-93.021,101.5L-92.953,99L-92.884,99L-92.816,98.5L-92.748,98.5L-92.679,98.5L-92.611,101L-92.542,103L-92.474,103.5L-92.405,102.5L-92.268,103L-92.2,102L-92.132,101L-92.063,101.5L-91.995,101.5L-91.926,102.5L-91.789,102.5L-91.721,103L-91.652,103L-91.584,101.5L-91.516,101L-91.379,99.5L-91.31,99.5L-91.242,95.5L-91.173,93.5L-91.105,91.5L-91.036,91L-90.968,93L-90.899,94L-90.831,92.5L-90.694,90L-90.626,92.5L-90.557,92.5L-90.489,92L-90.42,90.5L-90.352,90.5L-90.283,89.5L-90.215,88.5L-90.147,86.5L-90.078,87L-89.804,86.5L-89.736,86.5L-89.667,86L-89.599,88L-89.531,89L-89.394,82.5L-89.325,82.5L-89.257,82L-89.188,80.5L-89.12,81L-89.051,80L-88.983,79.5L-88.915,78.5L-88.846,80.5L-88.778,81.5L-88.709,83.5L-88.641,85.5L-88.504,87L-88.435,87L-88.367,86.5L-88.299,90.5L-88.23,86L-88.162,83.5L-88.093,85L-87.956,86L-87.888,85.5L-87.819,83.5L-87.751,85.5L-87.683,86.5L-87.614,85.5L-87.477,86L-87.409,84L-87.34,85L-87.272,82L-87.203,82L-87.135,87.5L-86.998,88L-86.93,88L-86.861,88.5L-86.793,86.5L-86.724,87.5L-86.656,87L-86.519,87L-86.45,88L-86.382,88.5L-86.314,85L-86.245,83L-86.108,81.5L-86.04,77L-85.971,76.5L-85.903,78L-85.834,82.5L-85.766,84.5L-85.698,80.5L-85.561,76L-85.492,71.5L-85.424,71.5L-85.355,69L-85.287,70.5L-85.218,72L-85.082,70L-85.013,69L-84.945,69L-84.876,72.5L-84.808,71L-84.739,68.5L-84.602,65L-84.534,61.5L-84.466,58.5L-84.397,58.5L-84.329,59.5L-84.26,59.5L-84.192,59.5L-84.123,57.5L-84.055,58L-83.986,60L-83.918,60L-83.85,61.5L-83.781,64.5L-83.713,62.5L-83.644,59L-83.576,57L-83.507,58.5L-83.439,63L-83.37,67.5L-83.302,69L-83.234,68.5L-83.165,69L-83.097,67L-83.028,65.5L-82.96,66.5L-82.891,70.5L-82.754,71L-82.686,71L-82.617,72.5L-82.549,74.5L-82.481,77.5L-82.412,82L-82.344,86L-82.275,87L-82.207,81.5L-82.138,81L-82.07,82L-82.001,84.5L-81.933,84L-81.865,83.5L-81.796,85.5L-81.728,83.5L-81.659,84L-81.591,87.5L-81.522,91L-81.454,93.5L-81.385,94L-81.317,93L-81.249,93L-81.18,95.5L-81.112,99L-81.043,99.5L-80.975,101.5L-80.906,103L-80.838,102L-80.701,101L-80.633,99.5L-80.564,97L-80.496,98.5L-80.427,100.5L-80.359,100.5L-80.29,100.5L-80.222,101L-80.153,102L-80.085,108L-80.017,111L-79.948,109.5L-79.811,109.5L-79.743,109L-79.674,108.5L-79.606,109L-79.537,111L-79.469,112L-79.401,113L-79.058,111.5L-78.921,108L-78.782,107L-78.645,108L-78.576,108L-78.508,108.5L-78.371,106.5L-78.303,107L-78.234,107L-78.166,107.5L-77.892,109.5L-77.823,110L-77.755,112L-77.687,114L-77.618,114L-77.55,113.5L-77.413,114L-77.276,113L-77.207,114L-77.139,114.5L-77.07,112.5L-76.934,111.5L-76.865,112L-76.797,111L-76.728,113L-76.66,114.5L-76.591,114.5L-76.454,114.5L-76.386,113.5L-76.318,112.5L-76.249,113.5L-76.181,116L-76.112,116L-75.975,115L-75.907,115L-75.838,114.5L-75.77,115L-75.702,116L-75.633,116L-75.565,116L-75.496,116L-75.291,116L-75.222,115L-75.154,114L-75.017,113L-74.88,113.5L-74.743,111.5L-74.675,112.5L-74.538,111.5L-74.401,112L-74.333,114L-74.264,115L-74.196,114L-74.127,113.5L-74.059,113L-73.99,112L-73.922,109L-73.854,109L-73.785,109.5L-73.717,110.5L-73.58,108.5L-73.511,107.5L-73.443,106.5L-73.374,107.5L-73.306,105L-73.101,103.5L-73.032,104.5L-72.964,104.5L-72.895,105L-72.827,105L-72.758,105L-72.621,104.5L-72.553,104L-72.485,103L-72.416,103.5L-72.074,102.5L-72.005,104.5L-71.937,104.5L-71.869,103.5L-71.8,102L-71.732,101.5L-71.663,100.5L-71.595,102L-71.526,103.5L-71.458,104L-71.389,104.5L-71.253,104.5L-71.184,102L-71.116,101.5L-71.047,101.5L-70.979,103.5L-70.91,105L-70.773,103.5L-70.705,101.5L-70.637,102.5L-70.568,104.5L-70.5,104.5L-70.431,102L-70.363,98.5L-70.294,97L-70.229,94.5L-70.16,95.5L-70.092,97L-70.023,99.5L-69.955,98.5L-69.886,97L-69.818,96L-69.75,96L-69.613,97L-69.544,97.5L-69.476,96L-69.407,96L-69.339,93.5L-69.27,91.5L-69.202,89.5L-69.134,90.5L-69.065,92.5L-68.997,93.5L-68.928,91.5L-68.791,89L-68.723,83.5L-68.654,83.5L-68.586,86L-68.518,85.5L-68.449,86L-68.381,86.5L-68.312,86.5L-68.244,89L-68.175,90L-68.107,90L-68.038,91.5L-67.97,88.5L-67.902,86.5L-67.833,85.5L-67.765,86L-67.696,87L-67.628,87L-67.559,86L-67.491,85.5L-67.354,85.5L-67.286,87L-67.217,86L-67.149,85L-67.08,86L-67.012,87L-66.875,87.5L-66.806,87.5L-66.738,86L-66.67,87L-66.601,86L-66.533,90.5L-66.396,90.5L-66.327,91L-66.259,93.5L-66.122,94L-66.054,90L-65.985,89.5L-65.917,88L-65.848,90L-65.78,89L-65.711,88L-65.643,88L-65.574,87.5L-65.437,86.5L-65.369,86.5L-65.301,87.5L-65.232,85.5L-65.164,83L-64.958,83L-64.89,80L-64.821,77.5L-64.753,78.5L-64.685,81.5L-64.616,82L-64.548,81.5L-64.479,80L-64.411,79L-64.342,80L-64.274,79L-64.205,79L-64.137,79.5L-64.069,77.5L-64,76.5L-63.932,75.5L-63.863,76L-63.795,78.5L-63.726,76.5L-63.658,77L-63.521,76L-63.453,78.5L-63.384,78.5L-63.316,81L-63.247,81L-63.179,80.5L-63.11,76.5L-63.042,77L-62.973,76.5L-62.905,77L-62.837,77L-62.768,80L-62.7,81L-62.631,82L-62.563,83L-62.494,82.5L-62.426,83L-62.289,80.5L-62.084,79.5L-62.015,78.5L-61.947,81L-61.878,83L-61.81,81.5L-61.741,80L-61.604,70L-61.536,65L-61.468,59.5L-61.399,61L-61.331,59.5L-61.262,48.5L-61.194,38L-61.125,34.5L-61.057,33L-60.988,28.5L-60.92,30L-60.852,29L-60.783,29.5L-60.646,27L-60.578,26L-60.509,20L-60.441,20.5L-60.372,20.5L-60.304,21.5L-60.236,19.5L-60.167,15L-60.099,14.5L-60.03,14L-59.962,15L-59.893,16L-59.825,14L-59.688,13L-59.62,11.5L-59.551,13.5L-59.483,16.5L-59.414,25L-59.346,29.5L-59.277,32.5L-59.209,30L-59.14,32.5L-59.072,44.5L-59.004,54L-58.935,53L-58.867,52L-58.798,54.5L-58.73,55L-58.661,58.5L-58.593,62.5L-58.524,61.5L-58.456,60.5L-58.388,64.5L-58.251,59L-58.182,56.5L-58.114,57L-58.045,55.5L-57.977,58L-57.908,56.5L-57.772,55L-57.703,54L-57.635,55L-57.566,59.5L-57.498,59.5L-57.429,59.5L-57.292,58L-57.224,54L-57.155,54L-57.087,53.5L-57.019,56L-56.95,52.5L-56.882,50L-56.813,46.5L-56.745,45.5L-56.676,47L-56.608,51.5L-56.539,53.5L-56.471,53L-56.403,48.5L-56.334,44.5L-56.266,45L-56.197,48.5L-56.129,51.5L-56.06,57.5L-55.992,60L-55.855,56.5L-55.787,56.5L-55.718,57.5L-55.65,57L-55.581,59.5L-55.513,63L-55.444,62L-55.376,61L-55.307,59L-55.239,56L-55.171,52L-55.102,56.5L-55.034,59L-54.965,60.5L-54.897,57.5L-54.828,61L-54.76,62L-54.691,64L-54.623,67L-54.555,69L-54.486,69L-54.418,69.5L-54.349,70.5L-54.281,75L-54.212,79.5L-54.144,81L-54.075,79L-54.007,79.5L-53.936,78L-53.867,79L-53.799,83L-53.73,85L-53.662,85.5L-53.593,89L-53.525,87L-53.457,86L-53.388,85L-53.32,86.5L-53.251,89L-53.183,94L-53.114,99.5L-53.046,99.5L-52.977,100L-52.909,100L-52.841,103L-52.772,104L-52.704,107L-52.635,108L-52.498,108L-52.43,109L-52.361,108L-52.293,108L-52.225,107L-52.156,107L-52.019,107L-51.951,108.5L-51.882,111L-51.814,110.5L-51.745,112.5L-51.677,109.5L-51.54,109L-51.472,110L-51.403,109.5L-51.335,108L-51.266,110.5L-51.061,111.5L-50.992,112.5L-50.924,111.5L-50.856,112L-50.787,112.5L-50.719,112L-50.65,110.5L-50.582,109.5L-50.513,109.5L-50.376,110L-50.24,111L-50.103,111.5L-49.897,110L-49.829,109L-49.624,108.5L-49.555,109L-49.487,109L-49.418,110L-49.35,109.5L-49.281,109L-49.144,108.5L-49.008,107L-48.939,107.5L-48.871,106.5L-48.802,107.5L-48.734,108L-48.665,107.5L-48.392,107.5L-48.323,109L-48.255,107.5L-48.186,106.5L-48.118,105.5L-48.049,104.5L-47.981,104.5L-47.912,105L-47.844,102.5L-47.775,98.5L-47.707,96.5L-47.639,96L-47.57,92.5L-47.433,91L-47.365,91L-47.159,88L-47.091,86.5L-46.954,80.5L-46.817,76L-46.68,70L-46.543,69.5L-46.407,68.5L-46.338,66L-46.27,61.5L-46.201,60L-46.133,58.5L-46.064,59L-45.996,60.5L-45.927,59L-45.859,58L-45.791,58.5L-45.722,54L-45.654,53.5L-45.585,53.5L-45.517,52L-45.448,52.5L-45.38,48L-45.314,44L-45.246,45.5L-45.177,49L-45.109,51.5L-45.04,50L-44.972,50.5L-44.904,50L-44.835,44.5L-44.767,48L-44.698,50.5L-44.63,53.5L-44.561,55L-44.493,54L-44.356,48L-44.288,44.5L-44.219,47.5L-44.151,49L-44.082,51.5L-44.014,54.5L-43.945,51.5L-43.877,49.5L-43.808,49L-43.74,49L-43.672,44.5L-43.603,46.5L-43.535,45.5L-43.398,43.5L-43.329,47.5L-43.261,48.5L-43.192,48.5L-43.124,48.5L-43.056,46L-42.987,47L-42.919,47L-42.85,47.5L-42.782,45.5L-42.713,46L-42.645,46L-42.576,45L-42.44,43L-42.371,46L-42.303,49L-42.234,55.5L-42.166,57L-42.097,57.5L-41.96,49L-41.892,48L-41.755,46.5L-41.687,47L-41.618,45L-41.55,42L-41.481,39L-41.413,39L-41.344,38L-41.276,41L-41.208,43.5L-41.139,44.5L-41.071,39L-41.002,34.5L-40.934,35L-40.865,38L-40.797,42L-40.728,39.5L-40.66,37L-40.523,32L-40.455,34L-40.386,34L-40.318,38.5L-40.249,40L-40.181,38L-40.112,31L-40.044,25L-39.975,20L-39.907,17.5L-39.839,20.5L-39.77,28.5L-39.702,27L-39.633,25L-39.565,16.5L-39.496,18L-39.428,22.5L-39.359,27.5L-39.291,27L-39.223,29.5L-39.154,28L-39.086,22.5L-39.017,19.5L-38.949,25.5L-38.88,30.5L-38.812,32L-38.675,30.5L-38.607,27.5L-38.538,27L-38.47,23L-38.401,29L-38.333,30.5L-38.264,26L-38.196,24L-38.127,23.5L-38.059,24L-37.991,29L-37.922,35L-37.854,39L-37.785,45L-37.717,42.5L-37.648,40L-37.58,43.5L-37.511,48L-37.443,54L-37.306,53L-37.238,51L-37.169,49.5L-37.101,44.5L-37.032,45L-36.964,46.5L-36.895,47.5L-36.827,51.5L-36.758,50.5L-36.69,48.5L-36.622,50L-36.553,50L-36.485,53.5L-36.416,56.5L-36.279,60.5L-36.211,57.5L-36.142,52.5L-36.074,56.5L-36.006,59L-35.937,60L-35.869,61L-35.8,61L-35.732,56.5L-35.663,53.5L-35.595,49.5L-35.526,53L-35.458,55L-35.39,55L-35.253,51L-35.184,50L-35.116,55L-35.047,58L-34.979,57.5L-34.91,62.5L-34.842,62L-34.774,58.5L-34.705,62.5L-34.637,63.5L-34.568,62.5L-34.5,64.5L-34.431,64L-34.363,65L-34.294,62.5L-34.226,64L-34.158,63L-34.089,62.5L-34.021,66.5L-33.952,68.5L-33.884,65.5L-33.815,64.5L-33.747,67.5L-33.678,68.5L-33.61,68L-33.542,72L-33.473,76L-33.268,73L-33.199,74L-33.131,73.5L-33.062,77.5L-32.994,77.5L-32.926,75.5L-32.857,73.5L-32.789,75L-32.72,77L-32.652,79L-32.583,81L-32.515,78L-32.378,78L-32.309,77.5L-32.241,74.5L-32.173,73.5L-32.104,73.5L-32.036,75.5L-31.899,75L-31.83,76.5L-31.762,81L-31.693,83L-31.625,80L-31.557,77.5L-31.488,75L-31.42,72.5L-31.351,71L-31.283,76.5L-31.214,74.5L-31.146,73.5L-31.077,75L-30.941,73L-30.872,74.5L-30.804,74.5L-30.735,78L-30.667,74L-30.598,74L-30.53,71L-30.461,68L-30.393,68L-30.325,69L-30.256,73L-30.188,73L-30.119,75.5L-29.982,78L-29.914,80.5L-29.845,80.5L-29.777,79L-29.709,79.5L-29.64,80.5L-29.572,80.5L-29.503,80.5L-29.435,84L-29.366,87.5L-29.298,91L-29.229,92.5L-29.161,92L-29.021,90.5L-28.953,93L-28.884,94.5L-28.816,96.5L-28.747,97.5L-28.679,96.5L-28.611,97L-28.542,96L-28.474,100L-28.405,99L-28.337,101L-28.268,102L-28.2,103L-28.131,103L-28.063,102L-27.995,101.5L-27.926,101.5L-27.858,100L-27.789,100L-27.721,99.5L-27.584,100L-27.515,100L-27.31,101.5L-27.242,98.5L-27.173,98L-27.105,97L-27.036,99.5L-26.968,98.5L-26.899,99L-26.831,101L-26.762,100.5L-26.626,100L-26.557,99L-26.489,99L-26.42,98L-26.352,99.5L-26.283,97L-26.146,98L-26.078,99.5L-26.01,102L-25.941,103L-25.873,105.5L-25.804,105.5L-25.667,106L-25.599,106.5L-25.394,105.5L-25.325,104.5L-25.188,106L-25.12,106.5L-25.051,108L-24.846,109.5L-24.778,109L-24.709,109L-24.641,112L-24.572,113L-24.504,114L-24.435,113L-24.367,114L-24.23,114L-24.162,115L-24.025,116L-23.956,114.5L-23.888,115.5L-23.614,115L-23.546,116L-23.477,117L-23.409,120L-23.272,118.5L-23.203,117.5L-23.135,117L-23.066,116L-22.93,116L-22.861,115.5L-22.724,113.5L-22.656,113.5L-22.587,113.5L-22.519,114L-22.382,113.5L-22.313,112L-22.177,110.5L-22.108,110.5L-22.04,110.5L-21.971,110.5L-21.834,110L-21.697,108L-21.629,106.5L-21.561,107.5L-21.355,105L-21.287,101.5L-21.15,102L-21.081,103L-20.876,104L-20.808,104.5L-20.739,104L-20.534,103.5L-20.465,103L-20.4,102.5L-20.331,102L-20.263,103.5L-20.195,103L-20.126,102.5L-20.058,97.5L-19.921,96.5L-19.852,97.5L-19.715,96.5L-19.647,95L-19.578,94L-19.442,91.5L-19.373,86.5L-19.305,88L-19.236,88L-19.168,85L-19.099,81L-18.962,79.5L-18.894,76.5L-18.826,75L-18.757,72L-18.689,72.5L-18.62,71L-18.552,68L-18.483,62L-18.346,59L-18.278,58.5L-18.21,58.5L-18.141,58L-18.073,52.5L-18.004,47L-17.936,39.5L-17.867,35L-17.799,35.5L-17.73,37L-17.662,39L-17.594,38L-17.525,36L-17.457,29.5L-17.388,31L-17.32,31L-17.251,33.5L-17.183,39.5L-17.114,36L-17.046,28L-16.978,26L-16.909,26L-16.841,28L-16.772,32L-16.704,34.5L-16.567,30L-16.498,26.5L-16.43,29L-16.362,31L-16.293,37L-16.225,39L-16.156,35.5L-16.088,30L-16.019,25L-15.951,30L-15.882,33.5L-15.814,42L-15.745,45.5L-15.677,43L-15.609,40.5L-15.54,38L-15.472,40.5L-15.403,40.5L-15.335,45.5L-15.266,43L-15.198,40L-15.129,38.5L-15.061,38.5L-14.993,42.5L-14.924,46.5L-14.856,46.5L-14.787,47.5L-14.65,42.5L-14.582,41.5L-14.513,38L-14.445,40L-14.377,42.5L-14.308,42.5L-14.24,41.5L-14.171,40.5L-14.103,42.5L-14.034,42.5L-13.966,47L-13.897,51.5L-13.829,49L-13.692,46.5L-13.624,45.5L-13.555,44L-13.487,45.5L-13.418,43.5L-13.35,39.5L-13.213,36.5L-13.145,37L-13.076,39L-13.008,40.5L-12.939,41.5L-12.871,39.5L-12.802,36L-12.734,33L-12.665,35.5L-12.597,40L-12.529,39L-12.46,42L-12.255,42L-12.186,42L-12.118,42L-12.049,45L-11.981,43.5L-11.913,43L-11.844,42.5L-11.776,36.5L-11.707,36L-11.639,35.5L-11.57,34L-11.502,34L-11.433,35.5L-11.296,33L-11.228,33.5L-11.16,34.5L-11.091,39.5L-11.023,46.5L-10.954,47.5L-10.886,47.5L-10.817,43.5L-10.749,40L-10.68,42.5L-10.612,46.5L-10.544,44.5L-10.475,45.5L-10.407,38.5L-10.338,32.5L-10.27,30L-10.201,31L-10.133,33L-10.064,37L-9.928,39.5L-9.859,38.5L-9.791,39L-9.722,36.5L-9.654,36.5L-9.585,42L-9.517,44.5L-9.38,42L-9.312,41L-9.243,41L-9.175,40L-9.106,42.5L-9.038,44L-8.969,41.5L-8.901,36L-8.832,34.5L-8.764,33L-8.696,32L-8.627,34.5L-8.559,41L-8.49,40L-8.422,35.5L-8.353,39L-8.285,39L-8.216,45.5L-8.148,52.5L-8.08,59L-8.011,58L-7.943,52L-7.874,50L-7.806,51L-7.737,49.5L-7.669,53.5L-7.6,51L-7.532,46L-7.463,45.5L-7.395,44.5L-7.327,48L-7.258,52.5L-7.19,56L-7.121,53.5L-7.053,48L-6.984,43.5L-6.916,41L-6.847,44L-6.779,43L-6.711,47L-6.642,47L-6.574,44.5L-6.505,44L-6.437,45L-6.368,47L-6.3,47.5L-6.231,48L-6.163,47L-6.095,43.5L-6.026,39.5L-5.958,37.5L-5.889,39L-5.821,41L-5.752,39L-5.615,41.5L-5.547,41L-5.479,43.5L-5.41,49.5L-5.342,47.5L-5.273,48L-5.205,45.5L-5.136,43L-5.068,41L-4.999,46.5L-4.931,53.5L-4.863,57.5L-4.794,61L-4.726,62.5L-4.657,65L-4.589,64.5L-4.52,67L-4.452,71.5L-4.383,71L-4.315,70L-4.247,69.5L-4.178,71.5L-4.107,72.5L-4.038,71.5L-3.97,74L-3.901,75.5L-3.833,75.5L-3.765,78L-3.628,77L-3.491,80.5L-3.422,79L-3.354,77.5L-3.285,80L-3.149,79.5L-3.08,79.5L-3.012,82L-2.943,81.5L-2.875,83.5L-2.806,84L-2.738,85.5L-2.669,86L-2.601,87L-2.533,89L-2.396,87.5L-2.327,89.5L-2.19,88.5L-2.122,89L-2.053,88L-1.985,88.5L-1.916,89L-1.848,92.5L-1.78,91.5L-1.711,91L-1.643,94.5L-1.574,93.5L-1.506,96L-1.437,99.5L-1.369,99L-1.3,97.5L-1.232,96L-1.164,95.5L-1.095,96.5L-1.027,99L-0.958,100L-0.89,102L-0.753,100.5L-0.684,103.5L-0.616,104L-0.548,104.5L-0.479,104L-0.274,103L-0.205,101.5L-0.137,101L-0.068,102.5L0.205,103L0.274,104.5L0.342,105L0.411,105L0.479,104L0.684,103.5L0.753,102.5L0.821,101.5L0.89,102L0.958,102L1.027,103.5L1.095,102L1.164,99.5L1.232,101L1.3,103L1.369,104L1.437,105.5L1.506,105L1.574,104.5L1.711,103.5L1.78,104.5L1.848,105L1.916,103.5L1.985,102L2.053,102.5L2.122,102L2.19,102.5L2.259,99.5L2.327,98.5L2.396,95L2.464,95L2.533,93L2.601,92.5L2.669,93L2.738,92.5L2.806,92.5L2.875,90.5L2.943,90.5L3.08,90.5L3.217,88L3.285,86L3.354,83L3.422,81L3.559,80L3.628,79L3.696,79.5L3.765,78L3.901,76.5L3.97,74.5L4.038,73L4.107,71.5L4.175,73L4.244,75L4.312,75L4.381,72.5L4.517,70.5L4.586,69L4.654,73.5L4.723,75L4.791,78L4.86,74.5L4.928,73L4.994,69.5L5.062,69L5.131,69L5.199,70.5L5.268,69.5L5.336,69L5.473,64L5.541,62L5.61,58.5L5.678,61.5L5.747,65.5L5.815,61L5.952,57.5L6.02,54L6.089,49L6.157,50L6.226,49.5L6.294,48.5L6.363,49L6.431,48.5L6.5,47.5L6.568,48.5L6.636,50L6.705,53L6.773,50.5L6.842,46.5L6.91,42L6.979,39L7.047,38.5L7.116,39.5L7.184,43L7.252,43L7.321,41.5L7.389,39L7.458,39.5L7.526,37L7.595,41.5L7.663,45L7.732,48L7.8,44L7.868,43.5L7.937,45L8.005,48.5L8.074,52.5L8.142,59L8.211,58.5L8.348,59L8.416,59.5L8.484,58L8.553,58L8.621,55L8.69,50L8.758,49L8.827,45L8.895,43L8.964,46L9.032,51L9.101,48.5L9.169,48L9.237,43L9.306,39L9.374,36.5L9.443,36.5L9.511,39L9.58,39.5L9.648,41L9.785,33L9.853,30L9.922,26.5L9.99,32L10.059,30.5L10.127,31L10.196,29.5L10.264,25.5L10.333,24.5L10.401,27L10.469,29.5L10.538,30.5L10.606,31L10.743,25L10.812,25.5L10.88,29.5L10.949,28L11.017,28L11.085,30.5L11.154,26.5L11.222,25.5L11.291,32L11.359,32.5L11.428,36.5L11.496,36.5L11.565,35L11.633,37.5L11.701,37L11.77,39.5L11.838,39.5L11.907,45L11.975,44L12.044,45L12.181,44L12.249,46L12.317,50L12.386,50L12.454,49L12.523,46L12.66,41L12.728,40L12.797,42L12.865,42.5L12.933,45L13.139,47.5L13.207,46L13.276,43.5L13.344,47L13.413,50L13.481,52.5L13.55,48L13.618,42L13.686,42.5L13.755,43L13.823,46L13.892,47.5L13.96,44L14.029,36L14.097,32L14.166,33L14.234,36L14.302,40.5L14.371,42.5L14.439,40.5L14.576,37.5L14.645,35.5L14.713,33L14.782,36L14.85,41L14.918,46L14.987,42.5L15.055,39.5L15.124,37L15.192,37L15.261,35L15.329,38L15.398,42L15.466,34L15.534,31.5L15.603,31L15.671,31L15.74,36L15.808,39L15.877,42L16.014,41L16.082,37.5L16.15,35.5L16.219,39L16.287,40.5L16.356,43L16.424,40L16.493,35L16.561,36L16.63,38L16.698,41.5L16.766,43.5L16.835,48L16.903,47L16.972,45.5L17.04,42.5L17.109,41.5L17.177,44L17.246,47.5L17.314,50.5L17.383,52.5L17.451,50L17.519,46L17.588,53L17.656,51.5L17.725,52.5L17.793,53.5L17.862,47L17.93,46.5L17.999,41.5L18.067,42L18.135,48L18.204,53.5L18.272,57L18.341,59.5L18.409,58L18.478,57.5L18.546,60.5L18.615,58L18.683,57.5L18.751,58L18.888,58L18.957,56.5L19.025,56L19.094,55L19.162,51.5L19.231,53L19.367,52.5L19.436,53L19.504,52L19.573,52.5L19.641,54.5L19.71,57L19.847,54L19.915,57.5L19.983,58L20.052,62L20.12,66.5L20.326,67.5L20.394,71L20.463,73L20.531,73L20.599,73L20.668,73.5L20.805,72.5L20.873,74L20.942,77.5L21.01,78.5L21.079,82.5L21.147,83.5L21.215,80L21.287,79.5L21.355,81L21.424,83.5L21.492,86L21.561,90L21.629,92.5L21.697,93.5L21.766,92L21.834,93L21.903,93L21.971,92L22.04,95.5L22.108,98L22.245,99L22.313,100.5L22.382,100L22.45,103.5L22.519,103.5L22.656,104.5L22.724,104.5L22.861,106L22.93,105.5L22.998,107L23.066,106.5L23.135,104.5L23.203,102.5L23.272,104L23.34,104L23.409,101.5L23.477,102.5L23.546,103L23.682,103L23.751,103L23.819,102L23.888,104.5L23.956,104L24.162,104L24.23,103L24.298,101L24.367,102.5L24.435,104L24.709,104.5L24.778,105L24.846,104.5L24.983,102L25.051,102.5L25.12,102.5L25.188,101L25.257,99L25.325,96.5L25.394,94L25.462,95.5L25.667,95L25.804,96L25.873,96L26.146,96.5L26.215,94.5L26.283,93.5L26.352,94L26.42,96.5L26.557,94L26.626,91L26.694,89L26.831,87L27.036,85L27.105,85L27.173,83L27.242,82L27.31,80.5L27.379,79L27.447,78.5L27.515,78.5L27.584,80L27.652,80L27.721,82L27.995,79.5L28.063,78L28.131,77L28.2,79L28.268,77.5L28.337,80L28.405,80L28.474,80L28.542,79.5L28.611,78L28.679,78.5L28.747,81L28.816,81.5L28.884,82L28.953,79.5L29.021,79.5L29.09,83.5L29.158,83.5L29.227,86.5L29.432,88L29.5,83.5L29.569,81.5L29.637,80L29.706,80L29.908,79L29.977,80L30.045,80L30.182,75.5L30.25,73.5L30.387,69L30.456,70.5L30.524,71L30.593,72.5L30.661,73L30.73,75L30.798,73.5L30.866,71.5L31.003,70L31.072,69.5L31.14,73L31.209,71L31.277,67L31.346,63L31.414,62L31.482,64.5L31.551,66.5L31.619,64.5L31.688,62.5L31.756,60.5L31.825,57.5L31.893,62L31.962,60.5L32.03,63L32.098,62.5L32.167,61L32.235,54.5L32.304,52.5L32.372,56L32.441,58L32.509,59L32.578,58L32.646,58.5L32.714,59L32.783,56.5L32.851,58L32.92,58.5L32.988,57L33.057,54.5L33.125,54L33.262,50L33.33,51.5L33.399,54L33.467,56L33.536,56.5L33.604,49L33.741,48L33.81,48L33.878,53L33.946,47.5L34.015,48.5L34.22,46.5L34.289,46L34.357,45L34.426,49.5L34.494,53.5L34.563,58.5L34.631,55.5L34.699,52.5L34.768,50.5L34.836,52.5L34.905,55L34.973,53.5L35.042,51.5L35.11,48.5L35.179,42.5L35.247,40L35.315,42.5L35.384,45L35.452,46L35.521,47.5L35.658,47.5L35.726,49L35.795,51.5L35.863,51L35.931,51.5L36,50.5L36.068,46L36.137,45.5L36.205,53L36.274,52.5L36.342,54L36.411,56.5L36.479,57.5L36.547,54.5L36.616,54L36.684,55L36.753,59L36.821,59.5L36.89,58.5L37.027,56.5L37.095,55L37.163,56.5L37.232,56L37.3,59L37.369,61L37.437,62L37.574,62.5L37.711,64L37.779,65.5L37.848,66.5L37.916,67.5L37.985,62.5L38.053,58.5L38.122,58L38.19,64.5L38.259,60.5L38.327,62L38.396,59L38.532,52.5L38.601,54.5L38.669,56L38.738,59.5L38.806,60.5L38.875,62L38.943,57.5L39.012,53L39.08,51L39.148,53.5L39.217,57.5L39.285,59L39.422,58L39.491,54.5L39.559,56L39.628,57L39.696,60.5L39.764,63L39.833,62L39.901,61.5L39.97,60L40.038,56L40.107,56.5L40.175,61.5L40.244,63.5L40.312,63L40.449,60.5L40.517,59.5L40.586,59L40.654,61.5L40.723,68L40.791,65.5L40.86,63L40.928,60L40.996,58.5L41.065,53.5L41.133,56L41.202,59.5L41.27,56.5L41.339,50L41.407,45L41.476,43.5L41.544,40.5L41.612,42.5L41.681,42.5L41.749,40L41.886,35.5L41.955,25.5L42.023,21L42.092,17L42.16,18.5L42.228,22L42.297,17.5L42.365,15L42.434,14L42.502,14.5L42.571,15.5L42.639,20.5L42.708,21L42.776,19L42.845,16.5L42.913,15.5L42.981,17.5L43.05,20L43.118,19.5L43.187,23L43.255,24L43.324,23.5L43.392,25.5L43.461,33L43.529,37L43.597,39.5L43.666,43.5L43.734,44.5L43.803,42L43.871,45L43.94,50.5L44.008,59L44.077,62L44.145,65.5L44.282,62L44.35,64L44.419,67.5L44.487,69L44.556,72L44.624,73L44.761,71L44.829,72.5L44.898,74L44.966,76.5L45.035,76.5L45.103,79.5L45.172,77.5L45.24,77L45.309,79.5L45.377,83L45.445,82L45.514,80.5L45.582,80.5L45.719,77.5L45.788,75.5L45.856,75.5L45.925,77L45.993,75L46.061,77L46.13,76L46.201,75.5L46.27,76L46.338,77L46.407,77L46.475,79.5L46.543,78.5L46.612,80L46.68,80.5L46.749,80.5L46.817,80L46.886,84L46.954,84L47.023,87L47.159,84.5L47.228,85.5L47.296,87L47.433,89.5L47.502,89.5L47.57,88.5L47.639,88.5L47.707,89.5L47.775,92L47.844,95.5L47.912,97L47.981,98.5L48.049,100L48.118,98L48.186,99.5L48.255,101.5L48.392,102.5L48.597,102.5L48.665,101.5L48.734,103.5L48.802,105L48.871,104L49.008,103.5L49.076,102.5L49.144,100.5L49.213,101.5L49.281,103.5L49.35,101.5L49.555,103L49.624,102L49.692,103.5L49.76,104.5L49.829,104.5L50.103,105L50.171,104.5L50.445,105.5L50.513,104.5L50.582,105.5L50.65,106.5L50.719,106L50.787,105L50.924,106L50.992,102.5L51.061,103L51.129,103.5L51.198,103L51.266,102L51.335,99L51.403,100L51.472,99L51.54,99L51.608,99.5L51.677,99L51.745,97L51.814,98L51.882,97L51.951,98L52.019,99L52.088,97.5L52.156,98.5L52.225,99.5L52.293,99L52.43,96.5L52.498,96L52.567,95L52.635,95.5L52.704,94.5L52.772,94.5L52.909,94.5L52.977,94.5L53.046,96.5L53.114,97L53.183,100.5L53.251,99.5L53.388,99.5L53.457,100L53.525,100L53.593,101.5L53.662,99L53.73,97.5L53.867,97.5L53.936,98.5L54.004,100L54.073,102.5L54.141,100L54.209,100.5L54.346,98.5L54.415,99L54.483,99L54.552,98L54.62,98L54.823,98L54.891,96L54.96,95.5L55.028,98L55.096,98.5L55.165,98.5L55.233,94L55.302,89.5L55.37,87L55.439,87L55.507,87L55.576,82L55.644,79.5L55.712,77L55.781,75.5L55.849,77L55.918,79L55.986,81.5L56.123,81.5L56.26,77.5L56.328,71.5L56.397,67L56.465,65.5L56.534,69L56.602,67L56.671,64L56.739,59.5L56.808,56.5L56.876,53.5L56.944,52.5L57.013,49.5L57.081,52L57.15,51.5L57.218,50L57.287,47L57.355,49L57.424,51.5L57.492,53.5L57.56,52L57.629,50.5L57.697,44.5L57.766,48L57.903,52L57.971,54L58.04,52.5L58.108,53L58.176,52.5L58.245,53.5L58.313,52.5L58.382,49.5L58.45,53.5L58.519,54L58.587,52.5L58.656,51L58.724,52.5L58.792,56L58.861,55L58.929,59.5L58.998,55.5L59.135,52.5L59.203,53.5L59.272,55L59.34,48L59.409,43.5L59.545,39L59.614,38L59.682,36L59.751,38.5L59.819,43.5L59.888,42L59.956,42.5L60.093,37.5L60.161,35.5L60.23,32.5L60.298,32.5L60.367,30.5L60.435,30L60.572,29L60.641,30.5L60.709,36.5L60.777,36L60.846,40L60.914,41L60.983,40L61.051,38L61.12,36.5L61.188,40.5L61.257,39L61.325,43L61.393,43.5L61.462,44L61.53,38.5L61.599,43L61.667,46L61.736,53.5L61.804,54L61.873,56L61.941,55L62.009,52.5L62.078,53.5L62.146,58.5L62.215,65L62.283,63.5L62.352,65L62.489,64L62.557,61.5L62.625,56.5L62.694,55.5L62.762,57L62.831,58L62.899,58L62.968,58.5L63.036,61L63.105,64L63.173,66.5L63.242,67.5L63.31,67.5L63.447,68.5L63.515,68.5L63.584,72L63.652,73.5L63.721,79L63.789,82.5L63.858,84.5L63.926,81.5L63.994,81L64.063,83.5L64.131,83L64.2,81.5L64.268,82.5L64.337,79L64.405,74.5L64.474,78.5L64.542,81L64.61,83L64.679,84L64.884,88.5L64.953,86.5L65.021,87L65.09,86L65.158,87L65.226,86L65.295,82L65.363,80.5L65.432,80L65.5,76L65.569,76L65.637,74L65.706,74.5L65.842,71.5L65.911,71.5L65.979,71.5L66.048,70L66.116,70.5L66.185,71L66.253,70.5L66.322,69L66.39,69.5L66.458,73L66.527,70L66.595,72L66.732,73.5L66.801,72L66.869,67.5L66.938,69L67.006,70L67.074,68.5L67.28,69.5L67.348,68L67.417,67.5L67.485,69L67.554,68L67.622,69L67.691,66.5L67.759,63.5L67.827,67.5L67.896,69L67.964,67.5L68.033,67L68.101,67.5L68.17,65.5L68.238,63.5L68.307,66L68.375,66.5L68.443,68L68.512,67L68.58,65L68.649,62.5L68.717,62.5L68.786,66.5L68.854,68L68.923,68.5L68.991,66.5L69.059,71.5L69.196,72L69.265,73.5L69.333,75.5L69.402,78L69.47,78L69.539,78L69.675,78.5L69.744,80.5L69.812,83.5L69.881,84L69.949,87L70.086,88.5L70.155,89L70.223,93L70.291,96.5L70.36,98L70.428,101L70.565,101.5L70.634,101L70.702,100.5L70.771,101.5L70.839,102.5L70.907,105.5L71.044,105.5L71.116,102L71.184,102L71.321,102L71.389,102.5L71.458,105.5L71.526,104L71.595,104L71.663,104.5L71.732,105L71.8,104.5L71.869,106L71.937,107L72.005,106.5L72.074,106.5L72.142,106L72.211,109L72.279,110L72.348,109.5L72.485,109.5L72.553,109L72.621,110L72.69,111.5L72.758,111L72.827,111L72.895,111.5L73.032,110.5L73.101,110L73.169,109.5L73.238,110L73.306,113.5L73.443,116L73.511,116.5L73.58,117L73.717,118.5L73.785,118L73.854,119.5L73.99,118L74.059,116.5L74.127,113.5L74.196,114L74.264,113.5L74.333,113.5L74.47,111.5L74.606,110L74.675,108.5L74.743,108.5L74.949,108L75.017,108L75.086,104L75.154,103L75.222,101.5L75.291,100L75.428,100L75.496,102L75.565,101.5L75.633,100.5L75.702,101L75.77,102.5L75.838,101L75.907,99L75.975,98.5L76.044,98.5L76.112,98L76.249,96.5L76.386,98L76.454,96L76.523,96.5L76.591,95L76.66,98L76.728,98L76.797,97.5L76.865,97.5L76.934,98L77.002,97L77.07,96.5L77.139,94.5L77.276,95L77.344,95L77.413,96.5L77.481,97L77.55,95.5L77.618,92L77.687,92L77.755,91L77.823,88.5L77.892,86.5L77.96,83.5L78.029,82.5L78.097,82L78.371,83.5L78.439,84.5L78.508,82.5L78.576,80L78.645,80.5L78.782,78L78.85,76.5L78.919,75.5L78.987,79L79.055,77.5L79.124,76L79.261,76L79.329,73L79.398,74L79.466,76L79.535,78.5L79.603,80.5L79.737,79L79.805,77L79.874,77L79.942,75.5L80.011,77.5L80.079,81L80.148,80L80.216,78L80.285,78L80.353,80.5L80.422,82L80.49,81.5L80.558,81.5L80.627,79.5L80.695,78.5L80.764,78L80.832,76.5L80.901,70L80.969,71L81.038,73.5L81.106,75.5L81.174,73L81.243,72L81.311,71.5L81.38,69.5L81.448,72L81.517,72L81.585,71.5L81.654,71L81.722,70L81.79,67L81.859,65L81.927,66L81.996,63L82.133,57L82.201,53L82.27,51.5L82.338,52L82.406,52L82.612,54L82.68,53.5L82.749,53L82.817,52L82.886,52.5L83.091,52L83.159,54.5L83.228,55L83.296,59.5L83.365,60L83.433,55.5L83.57,52.5L83.638,51.5L83.707,52L83.775,53L83.844,53L83.912,50.5L84.049,50L84.118,50.5L84.186,49L84.255,50L84.323,52.5L84.391,57L84.528,58L84.597,63L84.665,68.5L84.734,74L84.802,76L84.871,73L84.939,73.5L85.007,68.5L85.076,66.5L85.144,66L85.213,65.5L85.281,60.5L85.35,61.5L85.487,61.5L85.555,62.5L85.623,61L85.692,58.5L85.76,62.5L85.829,62L85.897,65L85.966,67.5L86.034,66L86.103,66L86.171,66.5L86.239,67.5L86.308,65.5L86.376,65.5L86.445,65.5L86.513,63.5L86.582,62.5L86.65,60.5L86.719,56.5L86.787,54L86.855,51L86.924,52L86.992,54.5L87.061,55.5L87.129,57L87.403,57.5L87.471,59L87.54,62L87.677,66.5L87.745,63.5L87.882,61L87.951,61L88.019,64L88.087,67L88.156,67.5L88.224,67.5L88.293,65L88.361,62.5L88.43,60.5L88.498,62L88.567,63.5L88.635,64L88.704,63.5L88.772,63L88.84,60.5L88.909,61.5L88.977,60L89.046,61.5L89.114,64.5L89.183,67L89.251,67.5L89.32,66.5L89.388,67L89.456,65.5L89.525,68L89.593,71L89.662,72.5L89.799,68.5L89.867,68L89.936,70.5L90.004,71L90.072,72.5L90.141,74.5L90.209,74.5L90.278,75L90.346,76L90.415,76.5L90.483,76.5L90.552,81L90.62,82.5L90.688,79L90.757,76L90.825,74L90.894,74L90.962,71.5L91.031,73L91.099,75.5L91.168,72L91.236,65.5L91.304,63L91.373,61.5L91.441,57L91.51,57.5L91.578,58.5L91.647,55.5L91.715,47.5L91.784,47L91.852,50L91.92,52.5L91.989,51L92.057,51L92.126,51.5L92.194,48L92.263,45L92.331,45L92.4,44L92.468,45.5L92.537,47L92.605,45.5L92.673,45.5L92.742,50.5L92.81,52.5L92.879,57L92.947,58.5L93.016,58L93.084,57L93.153,57L93.221,58.5L93.289,63.5L93.358,65.5L93.426,69L93.495,73.5L93.632,75.5L93.7,75.5L93.769,77.5L93.837,84.5L93.905,82L93.974,81.5L94.111,82L94.179,85.5L94.248,85.5L94.316,86L94.385,88L94.453,88.5L94.658,87.5L94.727,91L94.795,92L94.864,92.5L94.932,94.5L95.001,93.5L95.069,92.5L95.137,93.5L95.206,93L95.274,92.5L95.343,97L95.48,99L95.548,99.5L95.617,102.5L95.685,105.5L95.753,107.5L95.822,107.5L95.89,107.5L95.959,106L96.03,107L96.099,106.5L96.167,108L96.235,110L96.304,112L96.372,111.5L96.509,111L96.578,113L96.646,113.5L96.715,114.5L96.783,117.5L96.851,116.5L96.988,116.5L97.057,116L97.125,116.5L97.194,116.5L97.262,116.5L97.331,117L97.467,116.5L97.536,116.5L97.604,116L97.673,116.5L97.741,116.5L97.81,116.5L97.947,115L98.015,115L98.084,113.5L98.152,114L98.22,115L98.426,116L98.494,116.5L98.563,118L98.7,116.5L98.836,115.5L98.905,115.5L99.042,114.5L99.11,115L99.247,112.5L99.384,111L99.589,111L99.658,109.5L99.795,111.5L99.863,111.5L100,112L100.137,111.5L100.342,111.5L100.411,112.5L100.479,113L100.548,112.5L100.616,113L100.684,114.5L100.753,113.5L100.89,111L100.958,109.5L101.027,107.5L101.095,104.5L101.3,105L101.437,104L101.506,102L101.574,101.5L101.78,101.5L101.848,102.5L101.916,101.5L101.985,102.5L102.053,101L102.122,101L102.259,100L102.327,102.5L102.396,103.5L102.464,101L102.533,98.5L102.601,92L102.669,89.5L102.738,89L102.806,88.5L102.875,88L102.943,85.5L103.012,84.5L103.08,82.5L103.217,82L103.285,74.5L103.354,76.5L103.422,79L103.491,78.5L103.696,80L103.765,81.5L103.833,81L103.901,81L103.97,82L104.038,83L104.107,83L104.175,82.5L104.244,84L104.312,84L104.381,85.5L104.449,85L104.517,86L104.586,86L104.651,86.5L104.72,89.5L104.788,93L104.857,100L104.925,102L104.994,102L105.062,102L105.131,102.5L105.199,105L105.268,106L105.336,108L105.404,108L105.541,115.5L105.61,115.5L105.678,116L105.815,117.5L105.884,117.5L106.089,118L106.157,118L106.226,118L106.294,119L106.568,115L106.636,111.5L106.705,111.5L106.773,111.5L107.116,112L107.526,112L107.595,112L107.663,110L107.732,109.5L107.8,109.5L107.937,109.5L108.005,110L108.074,108.5L108.142,108L108.211,108L108.279,108.5L108.348,108L108.484,108L108.553,108L108.621,106L108.69,104L108.758,101.5L108.827,99.5L108.964,96.5L109.032,97L109.101,95L109.169,92.5L109.237,90L109.306,84.5L109.443,82L109.511,83.5L109.58,85L109.648,82.5L109.717,79.5L109.785,76L109.99,74L110.059,75L110.127,77L110.196,76.5L110.264,74L110.333,72L110.401,68.5L110.469,68.5L110.538,67L110.606,66L110.675,64L110.743,62.5L110.812,62.5L110.88,62.5L110.949,64.5L111.017,66.5L111.085,66.5L111.154,65L111.291,67L111.359,64L111.428,67L111.496,68.5L111.565,71L111.633,77.5L111.701,80L111.838,81L111.907,83L111.975,84.5L112.044,86L112.112,90L112.181,92L112.249,91L112.317,91L112.386,89.5L112.454,91L112.523,92.5L112.591,96L112.797,97L112.865,99L112.933,100L113.002,102.5L113.07,104L113.207,104L113.276,102L113.344,100L113.413,101L113.481,102L113.55,105L113.755,105.5L113.823,107L113.892,107L113.96,107L114.029,106.5L114.097,104.5L114.234,103.5L114.302,104.5L114.371,105L114.439,104.5L114.508,107L114.645,105L114.713,104.5L114.782,106L114.85,106L114.918,104L114.987,103.5L115.055,103L115.192,103L115.261,101.5L115.329,98L115.398,97L115.466,96.5L115.534,96.5L115.671,94.5L115.74,95L115.808,97.5L115.877,97L115.945,98L116.014,97.5L116.15,97.5L116.219,98.5L116.287,95.5L116.356,97L116.424,98L116.63,97L116.698,94.5L116.766,93.5L116.835,90.5L116.903,89.5L117.109,89L117.177,88L117.246,87.5L117.314,88L117.383,88L117.451,92.5L117.588,94L117.656,94.5L117.725,93.5L117.793,93.5L117.862,96.5L117.93,98L118.067,98.5L118.135,98L118.204,99L118.272,100.5L118.341,100L118.409,100.5L118.546,101L118.615,100.5L118.683,99.5L118.751,99L118.82,102L118.888,101L119.025,100L119.094,102.5L119.162,104.5L119.231,105L119.299,108L119.573,109.5L119.641,109L119.71,111.5L119.778,111L119.847,110L119.915,109.5L119.983,108.5L120.052,108.5L120.12,109L120.189,109.5L120.257,111.5L120.326,112L120.394,111.5L120.463,111L120.531,112L120.599,113L120.668,113L120.945,112.5L121.013,112L121.081,110L121.15,111L121.218,112.5L121.287,112.5L121.424,113.5L121.492,115L121.561,117L121.629,117L121.766,118.5L121.834,119L121.903,119L121.971,120.5L122.04,120.5L122.108,120L122.177,120L122.245,120.5L122.45,121L122.519,121.5L122.587,120.5L122.656,117.5L122.724,117L122.93,116.5L122.998,117L123.066,117L123.203,116L123.272,116L123.34,116L123.409,115L123.477,116.5L123.546,117L123.614,119.5L123.682,120L123.751,119.5L123.819,120.5L123.888,120.5L123.956,120.5L124.093,120.5L124.435,121L124.504,120.5L124.641,121L124.778,121L125.257,120.5L125.325,120L125.462,121L125.53,122L125.599,122L125.736,122L125.804,122L125.873,121L125.941,121.5L126.01,120.5L126.283,121L126.42,120.5L126.489,120L126.831,120L126.899,119L126.968,118.5L127.31,119.5L127.379,117.5L127.652,114L127.789,113.5L127.926,111.5L128.063,112L128.131,112L128.268,111L128.337,109.5L128.405,108L128.611,107.5L128.747,108L128.816,108L129.158,107L129.227,106.5L129.295,106L129.363,105.5L129.432,104L129.569,104.5L129.637,104.5L129.706,105L129.774,105.5L129.843,107L129.911,109L129.979,107.5L130.045,107.5L130.114,108.5L130.319,109L130.387,109L130.524,108.5L130.593,108.5L130.661,109.5L130.73,111L130.798,109L130.866,110.5L130.935,109L131.003,108.5L131.072,108.5L131.14,110L131.277,111.5L131.346,109.5L131.414,109.5L131.482,107L131.551,106.5L131.619,106L131.688,105.5L131.756,104L131.893,106L131.962,104L132.03,101.5L132.098,98.5L132.167,96.5L132.304,95.5L132.441,95.5L132.509,93.5L132.578,89.5L132.646,86L132.714,84.5L132.783,84L132.851,85L132.92,83.5L132.988,81.5L133.057,83.5L133.125,85L133.194,84.5L133.399,85.5L133.467,85L133.536,86L133.604,86L133.673,86L133.81,88.5L133.878,88.5L133.946,90.5L134.015,90.5L134.083,91L134.152,91L134.22,91.5L134.357,91L134.426,91L134.494,92L134.563,90L134.631,91.5L134.768,93.5L134.836,93.5L134.905,96L134.973,98.5L135.042,100.5L135.11,103L135.315,102.5L135.384,102L135.452,103L135.521,104L135.589,103.5L135.658,104L135.726,105L135.795,105.5L135.863,105.5L135.931,105.5L136,104.5L136.068,102.5L136.137,102L136.274,101.5L136.342,102L136.411,102L136.479,102L136.547,103.5L136.616,103.5L136.753,102.5L136.821,104.5L136.89,106L136.958,110.5L137.027,111L137.095,109.5L137.232,107.5L137.3,105L137.369,105L137.437,106L137.506,106L137.643,107L137.711,107.5L137.779,108L137.848,107L137.916,106L137.985,104.5L138.122,104.5L138.19,104.5L138.259,104.5L138.327,104.5L138.396,105L138.464,106.5L138.532,106L138.601,106.5L138.669,106.5L138.738,107L138.806,107.5L138.875,105L138.943,106.5L139.012,107.5L139.08,107L139.148,106L139.217,103.5L139.285,104.5L139.354,105.5L139.422,107L139.628,109.5L139.696,110L139.764,109L139.833,107L139.901,106.5L140.038,106L140.107,105L140.175,108L140.312,107.5L140.38,109L140.449,107L140.586,107L140.654,108L140.723,105L140.791,104L140.86,103.5L140.996,104L141.065,102.5L141.133,101.5L141.202,102.5L141.27,101L141.407,104L141.476,103L141.544,100L141.612,100L141.749,101L142.092,104L142.16,103.5L142.297,103L142.365,103L142.434,101.5L142.502,103L142.571,104.5L142.639,104L142.708,102.5L142.776,100.5L142.845,99.5L142.981,97.5L143.05,99L143.118,99L143.187,101L143.255,100.5L143.461,99.5L143.529,101.5L143.597,103L143.666,103L143.734,103L143.803,104L143.871,103.5L143.94,103.5L144.008,102L144.077,100L144.145,101L144.213,103.5L144.282,104L144.419,104L144.487,103.5L144.556,103.5L144.624,104.5L144.693,104.5L144.761,107L144.829,107L144.898,106L144.966,107L145.035,108.5L145.103,110.5L145.172,112.5L145.24,114L145.377,112.5L145.445,111.5L145.514,111.5L145.582,112L145.651,110L145.719,110L145.856,108L145.925,108.5L145.993,108.5L146.061,108.5L146.267,109L146.338,109L146.407,110.5L146.475,112.5L146.543,111L146.612,111.5L146.68,109.5L146.817,109.5L146.886,109.5L146.954,110L147.023,110L147.091,110.5L147.159,110.5L147.296,110.5L147.365,111L147.433,112L147.639,112L147.775,112L147.844,112L147.912,112.5L147.981,114L148.049,113.5L148.118,113L148.255,112.5L148.323,115L148.392,116L148.46,117.5L148.528,118L148.734,118.5L148.802,117L148.871,118L149.008,118L149.076,119.5L149.213,120L149.281,120.5L149.35,120.5L149.418,122.5L149.692,122.5L149.76,123L149.966,123.5L150.034,121.5L150.376,121L150.582,120.5L150.65,119.5L150.787,119L150.856,118.5L150.924,120L150.992,118.5L151.061,117.5L151.198,117L151.266,117L151.608,119L151.745,117L151.814,116.5L152.088,116.5L152.156,116.5L152.225,117L152.361,117L152.635,117L152.704,117L152.772,117L152.841,116.5L153.046,117L153.114,117L153.183,116L153.251,114.5L153.32,114L153.525,113L153.593,113L153.662,110.5L154.004,110.5L154.073,111L154.141,111L154.209,111L154.278,112L154.415,112L154.483,111.5L154.552,106.5L154.689,106.5L154.757,106L154.825,106L154.96,104.5L155.028,106.5L155.096,106.5L155.233,107L155.302,107L155.439,106L155.507,104L155.576,103L155.644,102L155.712,98.5L155.781,98.5L155.918,98L155.986,98L156.055,99L156.123,98L156.192,93.5L156.26,94L156.397,93.5L156.465,94L156.534,95L156.602,93.5L156.671,94L156.739,95L156.944,95L157.013,96L157.081,93L157.15,97L157.355,97.5L157.424,97.5L157.492,97.5L157.56,99L157.629,96L157.697,96L157.766,95L157.834,94L157.903,94.5L157.971,96L158.04,97L158.108,99L158.176,101L158.245,101.5L158.313,101.5L158.382,101L158.45,101L158.519,102.5L158.587,105.5L158.792,105L158.861,105.5L158.929,106.5L158.998,106L159.066,105L159.135,105L159.203,104L159.272,104L159.34,104L159.409,105L159.477,107L159.545,106L159.614,106L159.682,105.5L159.751,104.5L159.819,107.5L159.888,107L159.956,106.5L160.025,107L160.161,106.5L160.23,107L160.298,107L160.367,108L160.435,108L160.504,106.5L160.572,106L160.709,105.5L160.846,103.5L160.914,103.5L160.983,101.5L161.12,101L161.188,100L161.257,100L161.325,99.5L161.393,100L161.462,93.5L161.53,92.5L161.599,91.5L161.667,91L161.736,93L161.804,93.5L161.873,92L161.941,93L162.009,93L162.146,94L162.215,93.5L162.283,93L162.352,93.5L162.42,91.5L162.489,92.5L162.625,92.5L162.694,92.5L162.762,91L162.831,90.5L162.899,90L162.968,89.5L163.105,89.5L163.173,92.5L163.242,94L163.31,96.5L163.378,94.5L163.584,94L163.652,92L163.721,93L163.789,92.5L163.858,99L163.926,100L163.994,99.5L164.063,98.5L164.131,97.5L164.2,97L164.268,98.5L164.337,97L164.474,93.5L164.542,90.5L164.61,88.5L164.679,87L164.747,87.5L164.816,90L164.884,88.5L164.953,87L165.021,86L165.09,87.5L165.158,88.5L165.226,88.5L165.295,88L165.363,88.5L165.432,87.5L165.5,87L165.569,87.5L165.637,88L165.706,88L165.774,90L165.842,89.5L165.911,91L166.048,91L166.116,91.5L166.185,92.5L166.253,91L166.322,91.5L166.39,91L166.458,91.5L166.527,91L166.595,95.5L166.664,98L166.732,100L166.801,101.5L167.006,102L167.074,101.5L167.143,102.5L167.211,102.5L167.417,102.5L167.485,100.5L167.554,101L167.622,103L167.691,103.5L167.759,103.5L167.827,103L167.896,103L167.964,104L168.033,106L168.101,107.5L168.17,108.5L168.238,109L168.307,108L168.375,107.5L168.443,107.5L168.512,108L168.58,109L168.649,107L168.717,106L168.854,105L168.923,107L168.991,105L169.059,105L169.128,105L169.196,106L169.265,105.5L169.333,105L169.402,105L169.47,104L169.539,104L169.607,105L169.744,105.5L169.881,105.5L169.949,106.5L170.018,105.5L170.086,107L170.155,107.5L170.291,107L170.36,108L170.428,107.5L170.497,107.5L170.565,108.5L170.634,109.5L170.702,110L170.771,110L170.839,110L170.907,111L170.976,113.5L171.044,115L171.113,115.5L171.253,115.5L171.321,116.5L171.389,117L171.526,117L171.595,118L171.732,118L171.8,118.5L171.869,116.5L171.937,119L172.005,120L172.074,121L172.142,121L172.211,121L172.279,121L172.348,122L172.416,120L172.485,119L172.553,119.5L172.69,119L172.758,119L172.827,118L172.895,116.5L172.964,116L173.032,114.5L173.101,112L173.169,111.5L173.238,112.5L173.306,112.5L173.374,113.5L173.648,115L173.717,115L173.785,115L173.854,114.5L173.99,114.5L174.127,114.5L174.196,113.5L174.264,112L174.333,114.5L174.47,113L174.675,112.5L174.743,111L174.812,109L174.88,108L175.154,108.5L175.222,108L175.359,110L175.496,109L175.565,108L175.633,108.5L175.702,109L175.77,109L175.838,110.5L176.112,110L176.181,111L176.249,113L176.386,111.5L176.523,111L176.591,110.5L176.66,108.5L176.728,108.5L176.865,107.5L177.002,105L177.07,105L177.139,105L177.207,103.5L177.276,104.5L177.413,106.5L177.481,106.5L177.55,108L177.618,106L177.687,107L177.755,108.5L177.892,109.5L177.96,108L178.029,107.5L178.097,107.5L178.166,109.5L178.303,109.5L178.371,109.5L178.439,109.5L178.508,109.5L178.576,108L178.645,105L178.713,105.5L178.919,104.5L178.987,106.5L179.055,102.5L179.124,103L179.192,104.5L179.261,100.5L179.398,100.5L179.466,104L179.535,102.5L179.603,101L179.671,99.5L179.74,98L179.942,95L180.011,94L180.079,93.5L180.148,93.5L180.216,90.5L180.285,88L180.353,85.5L180.422,82.5L180.49,83L180.558,80.5L180.627,79L180.695,77.5L180.764,75L180.832,73L180.901,72L180.969,71.5L181.038,75.5L181.106,75.5L181.243,75L181.311,71.5L181.38,73L181.448,72L181.517,70.5L181.585,72.5L181.654,73L181.79,71L181.859,70.5L181.927,68.5L181.996,67.5L182.064,66.5L182.133,69L182.27,69L182.338,67L182.406,66.5L182.475,68.5L182.543,70.5L182.749,72.5L182.817,76L182.886,73.5L182.954,73.5L183.228,73L183.296,75L183.365,75.5L183.433,75.5L183.502,75.5L183.57,76L183.638,74.5L183.707,73.5L183.775,75L183.844,77.5L183.912,77.5L183.981,77.5L184.049,79.5L184.118,79.5L184.186,79L184.255,77.5L184.323,79L184.391,83L184.46,86.5L184.665,87.5L184.734,86L184.802,86L184.871,85.5L184.939,86.5L185.007,87.5L185.076,88.5L185.144,85.5L185.213,85.5L185.35,87.5L185.418,89L185.487,89.5L185.623,87L185.692,87L185.76,88.5L185.829,89L185.897,89L186.103,90L186.171,89L186.239,88.5L186.308,89L186.376,92L186.445,92.5L186.582,91.5L186.65,93L186.719,92L186.787,95.5L186.855,96.5L186.924,97L187.061,96L187.129,94.5L187.198,95.5L187.266,93L187.335,96L187.54,98L187.608,95.5L187.745,93.5L187.814,94.5L187.882,95.5L188.019,95.5L188.087,95.5L188.156,95L188.224,95.5L188.293,95L188.361,95L188.498,93L188.567,92L188.635,92L188.704,93L188.772,94.5L188.84,95L188.977,95L189.046,95L189.114,94L189.183,93L189.251,92L189.32,90L189.388,89.5L189.456,88.5L189.525,88.5L189.593,91.5L189.662,90L189.867,92.5L189.936,92L190.072,92L190.141,94.5L190.209,95.5L190.278,96L190.415,92.5L190.483,94L190.552,94L190.62,94.5L190.688,95L190.757,97.5L190.894,96L190.962,95L191.031,97L191.099,98.5L191.168,99.5L191.236,98.5L191.304,97L191.373,96.5L191.441,95L191.51,94L191.578,95.5L191.647,97L191.715,97L191.852,96L191.92,95.5L191.989,96L192.057,96L192.126,94.5L192.194,94L192.331,87.5L192.4,79L192.468,79L192.537,79.5L192.605,81L192.742,83L192.879,79.5L192.947,78.5L193.016,77.5L193.084,75L193.358,74L193.426,75.5L193.495,80L193.632,78.5L193.7,77L193.769,76.5L193.837,75L193.905,75.5L193.974,75L194.042,74.5L194.179,73L194.248,69.5L194.316,70L194.385,69.5L194.453,70.5L194.521,71.5L194.59,71L194.727,70.5L194.795,73L194.864,71.5L194.932,78L195.001,86.5L195.069,87L195.137,87.5L195.206,87L195.274,88.5L195.343,92L195.411,94L195.48,96.5L195.548,101L195.617,102L195.685,102L195.753,102L195.822,103.5L195.89,104.5L195.959,104.5L196.167,106L196.235,105.5L196.304,106L196.372,108.5L196.441,113L196.646,116.5L196.715,117.5L196.783,119.5L196.851,119.5L196.92,120L196.988,121.5L197.125,122.5L197.194,122.5L197.262,122.5L197.399,122.5L197.467,122.5L197.536,122L197.604,120L197.673,121L197.741,121L197.81,120.5L197.878,120.5L197.947,120.5L198.015,119.5L198.084,119.5L198.152,120L198.22,119L198.289,119L198.357,119L198.563,117L198.631,118L198.7,117.5L198.768,117.5L198.836,116L198.905,112.5L199.042,111L199.11,110L199.316,110L199.384,110L199.521,110L200.068,109.5L200.137,108.5L200.205,110L200.274,112.5L200.479,111.5L200.548,109L200.616,108.5L200.821,110L201.027,106.5L201.095,104L201.164,103L201.232,102L201.437,102" stroke="#4c78a8" stroke-width="2"/></g><g class="mark-group role-title"><g transform="translate(100,-22)"><path class="background" aria-hidden="true" d="M0,0h0v0h0Z" pointer-events="none"/><g><g class="mark-text role-title-text" role="graphics-symbol" aria-roledescription="title" aria-label="Title text 'Air Quality: Air: Dust, Construction/Demolition (AE4)'" pointer-events="none"><text text-anchor="middle" transform="translate(0,10)" font-family="sans-serif" font-size="13px" font-weight="bold" fill="#000" opacity="1">Air Quality: Air: Dust, Construction/Demolition (AE4)</text></g></g><path class="foreground" aria-hidden="true" d="" pointer-events="none" display="none"/></g></g></g><path class="foreground" aria-hidden="true" d="" display="none"/></g></g></g><defs><clipPath id="clip156"><rect x="0" y="0" width="200" height="150"/></clipPath></defs></svg>