<svg xmlns="http://www.w3.org/2000/svg" xmlns:xlink="http://www.w3.org/1999/xlink" version="1.1" class="marks" width="234" height="199" viewBox="0 0 234 199"><rect width="234" height="199" fill="white"/><g fill="none" stroke-miterlimit="10" transform="translate(18,27)"><g class="mark-group role-frame root" role="graphics-object" aria-roledescription="group mark container"><g transform="translate(0,0)"><path class="background" aria-hidden="true" d="M0,0h200v150h-200Z"/><g><g class="mark-group role-axis" aria-hidden="true"><g transform="translate(0.5,0.5)"><path class="background" aria-hidden="true" d="M0,0h0v0h0Z" pointer-events="none"/><g><g class="mark-rule role-axis-grid" pointer-events="none"><line transform="translate(0,150)" x2="200" y2="0" stroke="#ddd" stroke-width="1" opacity="1"/><line transform="translate(0,113)" x2="200" y2="0" stroke="#ddd" stroke-width="1" opacity="1"/><line transform="translate(0,75)" x2="200" y2="0" stroke="#ddd" stroke-width="1" opacity="1"/><line transform="translate(0,38)" x2="200" y2="0" stroke="#ddd" stroke-width="1" opacity="1"/><line transform="translate(0,0)" x2="200" y2="0" stroke="#ddd" stroke-width="1" opacity="1"/></g></g><path class="foreground" aria-hidden="true" d="" pointer-events="none" display="none"/></g></g><g class="mark-group role-axis" role="graphics-symbol" aria-roledescription="axis" aria-label="X-axis for a time scale with values from Friday, 01 January 2016, 12:00:00 AM to Monday, 01 January 2024, 12:00:00 AM"><g transform="translate(0.5,150.5)"><path class="background" aria-hidden="true" d="M0,0h0v0h0Z" pointer-events="none"/><g><g class="mark-rule role-axis-tick" pointer-events="none"><line transform="translate(0,0)" x2="0" y2="5" stroke="#888" stroke-width="1" opacity="1"/><line transform="translate(50,0)" x2="0" y2="5" stroke="#888" stroke-width="1" opacity="1"/><line transform="translate(100,0)" x2="0" y2="5" stroke="#888" stroke-width="1" opacity="1"/><line transform="translate(150,0)" x2="0" y2="5" stroke="#888" stroke-width="1" opacity="1"/><line transform="translate(200,0)" x2="0" y2="5" stroke="#888" stroke-width="1" opacity="1"/></g><g class="mark-text role-axis-label" pointer-events="none"><text text-anchor="start" transform="translate(0,15)" font-family="sans-serif" font-size="10px" fill="#000" opacity="1">2016</text><text text-anchor="middle" transform="translate(50.03422313483915,15)" font-family="sans-serif" font-size="10px" fill="#000" opacity="1">2018</text><text text-anchor="middle" transform="translate(100,15)" font-family="sans-serif" font-size="10px" fill="#000" opacity="1">2020</text><text text-anchor="middle" transform="translate(150.03422313483915,15)" font-family="sans-serif" font-size="10px" fill="#000" opacity="1">2022</text><text text-anchor="end" transform="translate(200,15)" font-family="sans-serif" font-size="10px" fill="#000" opacity="1">2024</text></g><g class="mark-rule role-axis-domain" pointer-events="none"><line transform="translate(0,0)" x2="200" y2="0" stroke="#888" stroke-width="1" opacity="1"/></g></g><path class="foreground" aria-hidden="true" d="" pointer-events="none" display="none"/></g></g><g class="mark-group role-axis" role="graphics-symbol" aria-roledescription="axis" aria-label="Y-axis for a linear scale with values from 0 to 8"><g transform="translate(0.5,0.5)"><path class="background" aria-hidden="true" d="M0,0h0v0h0Z" pointer-events="none"/><g><g class="mark-rule role-axis-tick" pointer-events="none"><line transform="translate(0,150)" x2="-5" y2="0" stroke="#888" stroke-opacity="0" stroke-width="1" opacity="1"/><line transform="translate(0,113)" x2="-5" y2="0" stroke="#888" stroke-opacity="0" stroke-width="1" opacity="1"/><line transform="translate(0,75)" x2="-5" y2="0" stroke="#888" stroke-opacity="0" stroke-width="1" opacity="1"/><line transform="translate(0,38)" x2="-5" y2="0" stroke="#888" stroke-opacity="0" stroke-width="1" opacity="1"/><line transform="translate(0,0)" x2="-5" y2="0" stroke="#888" stroke-opacity="0" stroke-width="1" opacity="1"/></g><g class="mark-text role-axis-label" pointer-events="none"><text text-anchor="end" transform="translate(-7,153)" font-family="sans-serif" font-size="10px" fill="#000" opacity="1">0</text><text text-anchor="end" transform="translate(-7,115.5)" font-family="sans-serif" font-size="10px" fill="#000" opacity="1">2</text><text text-anchor="end" transform="translate(-7,78)" font-family="sans-serif" font-size="10px" fill="#000" opacity="1">4</text><text text-anchor="end" transform="translate(-7,40.5)" font-family="sans-serif" font-size="10px" fill="#000" opacity="1">6</text><text text-anchor="end" transform="translate(-7,3)" font-family="sans-serif" font-size="10px" fill="#000" opacity="1">8</text></g></g><path class="foreground" aria-hidden="true" d="" pointer-events="none" display="none"/></g></g><g class="mark-line role-mark marks" clip-path="url(#clip157)" role="graphics-object" aria-roledescription="line mark container"><path aria-label="day: Jan 04, 2010; avg: 4.06666666667" role="graphics-symbol" aria-roledescription="line mark" d="M-149.76,73.75L-149.692,74.375L-149.624,75.625L-149.555,77.5L-149.487,81.25L-149.418,81.875L-149.281,80.625L-149.213,82.5L-149.144,81.25L-149.076,81.875L-149.008,83.125L-148.939,82.5L-148.802,79.375L-148.734,78.125L-148.665,81.25L-148.597,83.125L-148.528,83.75L-148.46,82.5L-148.323,81.875L-148.255,80L-148.186,82.5L-148.118,83.75L-148.049,85.625L-147.981,87.5L-147.912,88.125L-147.844,86.875L-147.775,85.625L-147.707,86.25L-147.639,86.25L-147.57,88.75L-147.365,88.75L-147.296,86.25L-147.228,88.75L-147.091,88.75L-147.023,88.125L-146.817,88.125L-146.749,86.25L-146.68,87.5L-146.612,90.625L-146.543,91.875L-146.475,88.75L-146.407,88.125L-146.27,91.25L-146.201,91.25L-146.133,90.625L-146.064,91.25L-145.927,90L-145.859,87.5L-145.791,85L-145.722,83.125L-145.654,85.625L-145.448,81.875L-145.38,78.125L-145.311,76.25L-145.243,76.25L-145.175,75.625L-144.972,78.125L-144.904,75.625L-144.835,75.625L-144.767,77.5L-144.698,78.125L-144.63,80L-144.561,80L-144.493,80L-144.424,80L-144.356,78.125L-144.288,78.75L-144.219,77.5L-144.082,75L-144.014,74.375L-143.877,77.5L-143.808,77.5L-143.74,76.25L-143.672,76.25L-143.535,75.625L-143.466,72.5L-143.398,73.125L-143.329,77.5L-143.261,78.125L-143.192,78.125L-143.056,75.625L-142.987,77.5L-142.919,79.375L-142.85,81.875L-142.782,80.625L-142.645,81.25L-142.576,78.125L-142.508,78.125L-142.44,78.125L-142.371,78.125L-142.303,78.125L-142.234,77.5L-142.166,77.5L-142.097,75L-142.029,73.125L-141.96,73.75L-141.892,76.25L-141.824,78.125L-141.755,78.125L-141.687,77.5L-141.618,72.5L-141.55,73.75L-141.481,72.5L-141.413,69.375L-141.344,68.75L-141.276,68.75L-141.208,68.75L-141.139,68.75L-141.071,70.625L-141.002,70.625L-140.934,69.375L-140.865,66.875L-140.797,66.875L-140.66,65.625L-140.591,66.875L-140.523,63.75L-140.455,63.125L-140.386,65L-140.249,65.625L-140.181,65L-140.112,62.5L-140.044,65L-139.975,62.5L-139.907,60.625L-139.839,62.5L-139.702,61.875L-139.633,61.875L-139.565,63.125L-139.496,63.75L-139.428,63.125L-139.291,68.125L-139.223,67.5L-139.154,66.875L-139.086,68.75L-139.017,67.5L-138.949,68.125L-138.88,63.125L-138.743,61.25L-138.675,61.875L-138.607,64.375L-138.538,66.25L-138.47,69.375L-138.401,68.125L-138.264,66.25L-138.196,65.625L-138.127,70.625L-138.059,72.5L-137.991,74.375L-137.922,74.375L-137.854,74.375L-137.785,73.75L-137.717,73.75L-137.648,73.125L-137.58,73.75L-137.511,71.875L-137.443,69.375L-137.238,67.5L-137.169,66.25L-137.101,66.875L-137.032,65L-136.895,63.125L-136.827,61.25L-136.758,61.25L-136.69,60.625L-136.622,62.5L-136.553,65.625L-136.485,68.125L-136.416,68.125L-136.348,68.75L-136.279,66.875L-136.211,67.5L-136.142,68.75L-136.074,66.25L-136.006,67.5L-135.937,68.75L-135.869,66.875L-135.8,67.5L-135.732,66.25L-135.663,66.25L-135.595,66.25L-135.526,70L-135.39,66.875L-135.321,68.125L-135.253,69.375L-135.184,69.375L-135.116,73.75L-134.91,72.5L-134.842,71.25L-134.774,66.875L-134.705,66.875L-134.637,67.5L-134.568,69.375L-134.431,68.125L-134.363,68.125L-134.294,65.625L-134.226,64.375L-134.158,64.375L-134.021,66.25L-133.952,66.25L-133.884,67.5L-133.815,67.5L-133.747,67.5L-133.678,71.875L-133.61,71.875L-133.473,71.875L-133.405,73.125L-133.268,73.75L-133.199,75.625L-133.131,75L-133.062,75.625L-132.926,71.875L-132.857,71.25L-132.789,72.5L-132.72,72.5L-132.652,71.25L-132.515,71.25L-132.446,71.875L-132.378,74.375L-132.309,75L-132.241,76.875L-132.173,75.625L-132.036,72.5L-131.967,76.875L-131.899,78.125L-131.83,81.875L-131.762,76.25L-131.693,78.75L-131.625,78.75L-131.557,78.75L-131.488,78.125L-131.42,78.75L-131.351,77.5L-131.283,73.125L-131.214,70.625L-131.146,70L-131.077,68.75L-131.009,68.75L-130.941,68.75L-130.872,65L-130.804,61.875L-130.735,60L-130.598,61.875L-130.53,58.75L-130.461,61.25L-130.393,65L-130.325,60.625L-130.188,61.875L-130.119,59.375L-130.051,60.625L-129.982,59.375L-129.914,60.625L-129.845,63.75L-129.777,61.25L-129.709,60.625L-129.64,61.25L-129.572,68.75L-129.503,69.375L-129.435,70L-129.366,68.125L-129.298,69.375L-129.161,69.375L-129.093,68.75L-129.024,71.875L-128.956,75.625L-128.887,75L-128.819,75.625L-128.75,74.375L-128.679,72.5L-128.611,76.875L-128.542,80L-128.474,85L-128.405,86.875L-128.337,88.125L-128.268,86.25L-128.2,85L-128.131,86.875L-128.063,83.75L-127.995,81.25L-127.926,84.375L-127.858,87.5L-127.789,88.75L-127.721,88.125L-127.652,91.25L-127.584,93.75L-127.515,93.125L-127.447,91.875L-127.379,89.375L-127.242,88.125L-127.173,88.125L-127.105,88.75L-127.036,86.875L-126.968,88.75L-126.899,91.25L-126.762,88.75L-126.694,89.375L-126.626,90L-126.557,89.375L-126.489,91.25L-126.42,91.875L-126.352,90.625L-126.215,90L-126.146,89.375L-126.078,91.25L-126.01,93.125L-125.804,95L-125.736,96.25L-125.667,100L-125.599,105L-125.53,103.75L-125.325,103.125L-125.188,102.5L-125.12,103.125L-125.051,100.625L-124.846,98.75L-124.778,95.625L-124.709,95.625L-124.641,96.875L-124.572,96.875L-124.367,97.5L-124.298,93.125L-124.23,92.5L-123.956,90.625L-123.888,88.125L-123.819,90.625L-123.751,91.25L-123.682,90.625L-123.614,92.5L-123.477,92.5L-123.34,92.5L-123.272,88.75L-123.203,86.25L-123.135,85.625L-123.066,80.625L-122.998,76.875L-122.93,74.375L-122.861,75.625L-122.793,75.625L-122.724,71.25L-122.656,73.125L-122.587,68.125L-122.519,66.25L-122.45,66.875L-122.382,67.5L-122.313,67.5L-122.245,68.75L-122.177,70L-121.971,70L-121.903,70L-121.834,70L-121.766,73.75L-121.697,73.125L-121.629,71.875L-121.561,71.875L-121.424,71.25L-121.355,71.875L-121.287,72.5L-121.218,68.125L-121.081,62.5L-121.013,60.625L-120.945,65.625L-120.876,69.375L-120.808,69.375L-120.739,73.75L-120.671,75L-120.602,76.875L-120.534,76.25L-120.465,75.625L-120.397,79.375L-120.329,78.75L-120.26,83.75L-120.123,84.375L-120.058,81.25L-119.989,82.5L-119.921,83.125L-119.852,82.5L-119.784,80L-119.715,77.5L-119.578,76.25L-119.51,76.875L-119.442,78.125L-119.373,78.75L-119.305,78.75L-119.236,78.75L-119.168,76.875L-119.099,74.375L-119.031,74.375L-118.962,76.25L-118.894,80L-118.826,79.375L-118.757,78.125L-118.689,75L-118.62,76.25L-118.552,77.5L-118.483,76.25L-118.415,74.375L-118.346,67.5L-118.21,66.875L-118.141,63.75L-118.073,62.5L-118.004,61.25L-117.936,60L-117.867,61.875L-117.799,60.625L-117.662,61.875L-117.594,60.625L-117.525,58.75L-117.457,60L-117.388,60L-117.251,55.625L-117.183,54.375L-117.114,57.5L-117.046,60.625L-116.978,60.625L-116.909,58.75L-116.841,56.25L-116.704,51.875L-116.635,53.125L-116.567,55L-116.498,53.75L-116.43,51.875L-116.362,51.25L-116.293,50L-116.225,47.5L-116.156,50.625L-116.088,53.125L-116.019,56.875L-115.951,56.25L-115.745,56.875L-115.677,53.75L-115.609,54.375L-115.54,57.5L-115.472,58.75L-115.403,58.75L-115.266,57.5L-115.198,57.5L-115.129,57.5L-115.061,59.375L-114.993,61.875L-114.924,66.875L-114.856,65.625L-114.787,61.25L-114.719,56.25L-114.65,57.5L-114.582,62.5L-114.513,66.875L-114.445,71.25L-114.377,73.125L-114.308,71.875L-114.24,72.5L-114.171,68.75L-114.103,67.5L-114.034,67.5L-113.966,69.375L-113.897,68.125L-113.829,63.75L-113.761,61.875L-113.692,61.25L-113.624,61.875L-113.555,66.875L-113.487,64.375L-113.418,61.875L-113.35,58.75L-113.281,55L-113.213,53.75L-113.145,58.125L-113.076,58.75L-113.008,55.625L-112.939,51.875L-112.871,47.5L-112.802,47.5L-112.734,50.625L-112.665,55L-112.597,55L-112.529,51.25L-112.46,50L-112.392,48.75L-112.323,43.75L-112.255,43.75L-112.186,45.625L-112.118,50L-112.049,50L-111.981,46.25L-111.913,45L-111.844,44.375L-111.776,48.75L-111.707,53.125L-111.639,55L-111.502,54.375L-111.433,50L-111.365,53.75L-111.296,55.625L-111.228,58.75L-111.16,58.125L-111.091,57.5L-110.954,56.875L-110.886,56.25L-110.817,58.75L-110.749,61.25L-110.68,60.625L-110.612,61.25L-110.544,62.5L-110.475,61.875L-110.407,60.625L-110.338,62.5L-110.27,62.5L-110.201,63.125L-110.133,65L-110.064,63.75L-109.996,63.75L-109.928,66.25L-109.859,68.125L-109.791,70.625L-109.722,70L-109.517,72.5L-109.448,70.625L-109.38,71.25L-109.312,72.5L-109.243,73.125L-109.175,75L-109.106,70.625L-109.038,68.125L-108.969,65.625L-108.901,70.625L-108.764,71.875L-108.49,70.625L-108.422,74.375L-108.353,72.5L-108.285,73.125L-108.216,72.5L-108.08,73.125L-107.943,71.875L-107.874,71.25L-107.806,73.75L-107.6,70.625L-107.532,70L-107.463,68.125L-107.395,68.125L-107.327,69.375L-107.19,70.625L-107.121,66.875L-107.053,68.75L-106.984,65.625L-106.916,66.25L-106.847,64.375L-106.779,65.625L-106.711,65.625L-106.642,63.125L-106.574,60.625L-106.505,59.375L-106.437,59.375L-106.368,62.5L-106.163,65L-106.095,65L-106.026,61.875L-105.958,60.625L-105.889,56.875L-105.684,58.75L-105.615,59.375L-105.547,63.125L-105.479,60L-105.41,60L-105.273,61.875L-105.205,60.625L-105.136,64.375L-105.068,64.375L-104.999,67.5L-104.931,68.75L-104.863,70L-104.726,69.375L-104.657,73.75L-104.589,71.875L-104.52,77.5L-104.452,77.5L-104.383,76.875L-104.315,72.5L-104.247,70.625L-104.178,72.5L-104.11,76.875L-104.041,78.75L-103.973,81.25L-103.836,78.75L-103.765,78.75L-103.696,75.625L-103.628,79.375L-103.559,82.5L-103.491,84.375L-103.422,78.125L-103.354,75L-103.285,72.5L-103.217,75.625L-103.149,76.25L-103.08,76.25L-103.012,77.5L-102.943,78.125L-102.875,80L-102.806,80L-102.738,81.875L-102.669,81.875L-102.601,82.5L-102.533,78.75L-102.464,81.875L-102.327,80.625L-102.259,81.875L-102.19,84.375L-102.122,88.75L-102.053,90.625L-101.916,91.25L-101.848,89.375L-101.78,90.625L-101.711,90L-101.643,90.625L-101.574,88.125L-101.506,91.25L-101.437,91.875L-101.369,91.25L-101.3,92.5L-101.232,97.5L-101.164,98.75L-101.095,99.375L-101.027,98.75L-100.958,96.25L-100.89,91.875L-100.821,88.75L-100.753,88.75L-100.684,89.375L-100.616,85.625L-100.548,85L-100.411,83.125L-100.342,81.875L-100.274,82.5L-100.205,81.25L-100.137,81.25L-100.068,78.125L-99.863,75L-99.795,73.125L-99.726,72.5L-99.658,72.5L-99.521,73.75L-99.452,70.625L-99.384,70L-99.316,68.125L-99.247,68.125L-99.179,67.5L-99.042,66.25L-98.973,66.875L-98.905,66.25L-98.836,68.125L-98.768,65.625L-98.494,66.875L-98.426,68.125L-98.357,70L-98.289,73.75L-98.22,72.5L-98.152,70.625L-98.015,68.125L-97.947,70.625L-97.878,70.625L-97.81,72.5L-97.741,71.875L-97.604,69.375L-97.536,68.75L-97.467,68.125L-97.399,70L-97.331,71.25L-97.262,71.25L-97.194,66.875L-97.125,65L-97.057,63.75L-96.988,66.25L-96.92,66.25L-96.851,66.875L-96.783,64.375L-96.715,60.625L-96.646,58.125L-96.578,55.625L-96.509,56.875L-96.441,51.25L-96.372,54.375L-96.304,53.125L-96.235,50.625L-96.167,50L-96.099,50L-96.03,54.375L-95.962,55L-95.893,55.625L-95.825,54.375L-95.756,51.25L-95.619,50L-95.551,49.375L-95.483,53.75L-95.414,55L-95.346,53.75L-95.209,51.875L-95.143,50L-95.075,51.875L-95.006,57.5L-94.938,55L-94.869,54.375L-94.801,55L-94.664,51.25L-94.596,51.875L-94.527,55.625L-94.459,53.125L-94.39,56.25L-94.322,55.625L-94.185,51.875L-94.116,50.625L-94.048,51.875L-93.98,55.625L-93.911,56.25L-93.843,57.5L-93.774,56.875L-93.706,56.875L-93.637,56.875L-93.569,58.125L-93.5,60.625L-93.432,62.5L-93.364,61.875L-93.295,61.875L-93.227,61.875L-93.158,58.75L-93.09,61.875L-93.021,63.125L-92.953,65L-92.884,63.125L-92.748,59.375L-92.679,60L-92.611,61.875L-92.542,61.25L-92.474,67.5L-92.405,68.75L-92.268,66.25L-92.2,73.75L-92.132,74.375L-92.063,77.5L-91.995,80.625L-91.926,83.125L-91.858,77.5L-91.789,73.125L-91.721,75.625L-91.652,75.625L-91.584,73.125L-91.516,68.125L-91.447,67.5L-91.379,62.5L-91.31,60L-91.242,61.25L-91.173,57.5L-91.105,60L-91.036,58.125L-90.968,60L-90.831,55.625L-90.763,58.125L-90.694,60L-90.626,60.625L-90.557,57.5L-90.489,58.125L-90.42,57.5L-90.352,56.25L-90.283,56.875L-90.215,53.125L-90.147,55L-90.078,52.5L-90.01,50L-89.804,46.875L-89.736,48.125L-89.667,50.625L-89.599,50L-89.531,51.875L-89.462,46.875L-89.394,47.5L-89.325,50.625L-89.257,52.5L-89.188,50.625L-89.12,53.75L-89.051,53.125L-88.915,51.875L-88.846,56.875L-88.778,54.375L-88.709,53.75L-88.641,53.125L-88.572,53.75L-88.504,51.875L-88.435,50.625L-88.367,51.25L-88.299,54.375L-88.23,52.5L-88.162,50.625L-88.093,50L-87.956,49.375L-87.888,53.75L-87.819,55.625L-87.751,57.5L-87.683,58.125L-87.546,59.375L-87.477,53.75L-87.409,53.125L-87.272,58.75L-87.203,57.5L-87.135,60L-86.998,57.5L-86.93,53.75L-86.861,54.375L-86.793,55.625L-86.724,52.5L-86.656,53.125L-86.587,50L-86.519,50.625L-86.45,53.125L-86.382,55.625L-86.314,53.75L-86.245,55L-86.177,54.375L-86.108,49.375L-86.04,48.125L-85.971,51.25L-85.903,55L-85.834,55L-85.766,54.375L-85.698,52.5L-85.629,51.25L-85.561,51.25L-85.492,51.875L-85.424,52.5L-85.355,47.5L-85.287,52.5L-85.218,51.875L-85.082,49.375L-85.013,51.875L-84.945,49.375L-84.876,51.875L-84.808,50.625L-84.602,50.625L-84.534,50.625L-84.466,56.25L-84.397,57.5L-84.329,57.5L-84.26,55L-84.192,52.5L-84.123,52.5L-84.055,53.125L-83.986,54.375L-83.918,56.25L-83.85,58.75L-83.781,59.375L-83.644,56.875L-83.576,55L-83.507,56.25L-83.439,60L-83.37,62.5L-83.302,58.125L-83.165,55.625L-83.097,53.125L-83.028,51.25L-82.96,54.375L-82.891,55L-82.823,57.5L-82.754,59.375L-82.686,60L-82.617,62.5L-82.549,58.75L-82.481,63.75L-82.412,65.625L-82.344,66.25L-82.275,63.75L-82.207,63.125L-82.138,66.25L-82.07,67.5L-82.001,68.75L-81.933,70L-81.865,70L-81.796,69.375L-81.728,68.125L-81.659,67.5L-81.591,65L-81.522,67.5L-81.454,70L-81.385,71.25L-81.317,70.625L-81.249,70.625L-81.18,75.625L-81.112,76.25L-81.043,78.75L-80.975,81.875L-80.906,85L-80.769,83.75L-80.701,83.75L-80.633,76.25L-80.564,76.25L-80.496,76.875L-80.427,80.625L-80.359,77.5L-80.29,75.625L-80.222,70.625L-80.153,72.5L-80.085,73.125L-80.017,75L-79.948,75L-79.88,72.5L-79.811,68.75L-79.743,70.625L-79.674,69.375L-79.606,69.375L-79.537,71.25L-79.469,73.125L-79.127,69.375L-79.058,68.125L-78.85,67.5L-78.782,66.25L-78.713,63.125L-78.645,63.125L-78.576,61.875L-78.508,62.5L-78.371,58.75L-78.303,58.125L-78.234,58.75L-78.166,60L-78.097,66.875L-78.029,66.875L-77.96,66.875L-77.892,62.5L-77.823,64.375L-77.755,65L-77.687,71.875L-77.618,70L-77.55,71.25L-77.413,68.125L-77.344,68.125L-77.276,70.625L-77.207,74.375L-77.139,75.625L-77.07,77.5L-76.934,77.5L-76.865,78.125L-76.797,80.625L-76.728,85L-76.66,86.875L-76.591,78.75L-76.523,78.125L-76.454,78.75L-76.386,73.125L-76.318,73.75L-76.249,72.5L-76.181,74.375L-76.112,75L-76.044,75L-75.975,75L-75.907,76.25L-75.838,75.625L-75.77,75L-75.702,75L-75.633,71.875L-75.565,69.375L-75.496,68.75L-75.428,70L-75.359,68.75L-75.291,70L-75.222,69.375L-75.154,69.375L-75.017,69.375L-74.88,70L-74.812,69.375L-74.743,68.125L-74.675,70L-74.606,68.75L-74.538,66.875L-74.47,66.875L-74.401,73.75L-74.333,75L-74.264,74.375L-74.059,76.875L-73.99,76.875L-73.922,77.5L-73.854,79.375L-73.785,78.75L-73.717,75L-73.648,70L-73.58,68.75L-73.511,69.375L-73.443,70.625L-73.374,71.25L-73.306,75L-73.238,78.125L-73.169,77.5L-73.101,78.125L-73.032,79.375L-72.964,78.125L-72.895,76.875L-72.827,71.875L-72.69,66.875L-72.621,66.25L-72.553,66.25L-72.485,68.125L-72.416,66.25L-72.279,63.125L-72.211,62.5L-72.142,61.875L-72.074,64.375L-72.005,62.5L-71.937,63.75L-71.869,65L-71.732,65.625L-71.663,64.375L-71.595,65L-71.526,63.75L-71.458,65.625L-71.389,68.75L-71.321,68.125L-71.253,65.625L-71.184,64.375L-71.116,66.25L-71.047,63.75L-70.979,63.75L-70.91,63.125L-70.842,63.125L-70.705,62.5L-70.637,64.375L-70.568,66.875L-70.5,69.375L-70.431,69.375L-70.363,68.75L-70.229,70L-70.092,70.625L-70.023,69.375L-69.955,70L-69.886,68.125L-69.818,66.875L-69.75,63.125L-69.681,66.25L-69.613,55L-69.544,56.25L-69.476,53.125L-69.407,49.375L-69.27,48.75L-69.202,51.25L-69.134,51.25L-69.065,51.25L-68.997,50L-68.791,51.25L-68.723,53.125L-68.654,55L-68.586,56.875L-68.518,54.375L-68.449,56.25L-68.381,54.375L-68.312,55L-68.244,54.375L-68.175,50.625L-68.107,50L-68.038,53.75L-67.97,52.5L-67.902,51.25L-67.833,51.875L-67.765,53.125L-67.696,54.375L-67.628,57.5L-67.559,56.875L-67.491,60L-67.286,59.375L-67.217,72.5L-67.149,73.75L-67.08,76.25L-67.012,79.375L-66.875,77.5L-66.806,75L-66.738,76.875L-66.67,78.125L-66.601,79.375L-66.533,79.375L-66.464,76.25L-66.396,73.125L-66.327,74.375L-66.259,77.5L-66.19,78.125L-66.122,76.875L-66.054,76.25L-65.917,76.25L-65.848,78.125L-65.78,82.5L-65.711,77.5L-65.643,77.5L-65.506,75L-65.437,71.875L-65.369,71.875L-65.301,72.5L-65.232,70.625L-65.164,69.375L-65.095,67.5L-65.027,67.5L-64.958,66.875L-64.89,67.5L-64.821,66.875L-64.753,69.375L-64.685,71.25L-64.616,73.75L-64.479,73.75L-64.411,73.125L-64.342,73.125L-64.274,68.75L-64.205,71.25L-64.137,74.375L-64.069,71.25L-64,71.25L-63.932,70.625L-63.863,73.125L-63.795,73.75L-63.726,75.625L-63.521,70.625L-63.453,66.875L-63.384,70L-63.316,68.75L-63.247,71.875L-63.179,74.375L-63.042,70.625L-62.973,69.375L-62.905,68.75L-62.837,72.5L-62.768,73.125L-62.7,71.875L-62.631,69.375L-62.563,63.75L-62.494,63.75L-62.426,63.75L-62.289,64.375L-62.084,61.25L-62.015,60L-61.947,59.375L-61.878,61.875L-61.81,65.625L-61.673,65.625L-61.604,62.5L-61.536,59.375L-61.468,56.25L-61.399,55L-61.331,54.375L-61.194,53.125L-61.125,50.625L-61.057,55.625L-60.988,55L-60.852,58.125L-60.783,59.375L-60.715,56.25L-60.646,56.25L-60.578,61.875L-60.509,64.375L-60.441,64.375L-60.372,60.625L-60.167,61.25L-60.099,61.875L-60.03,65L-59.962,68.125L-59.893,68.125L-59.825,65.625L-59.688,65L-59.62,68.125L-59.551,68.125L-59.483,70L-59.414,69.375L-59.346,69.375L-59.209,68.75L-59.14,68.125L-59.072,73.125L-59.004,76.875L-58.935,76.875L-58.867,76.25L-58.798,72.5L-58.73,73.125L-58.661,74.375L-58.593,78.125L-58.524,78.125L-58.456,79.375L-58.388,78.125L-58.319,76.25L-58.251,75L-58.182,71.875L-58.114,74.375L-58.045,78.125L-57.977,78.125L-57.908,76.875L-57.84,75L-57.772,70L-57.703,71.25L-57.635,71.875L-57.566,70.625L-57.498,68.75L-57.429,67.5L-57.292,66.25L-57.224,64.375L-57.155,65.625L-57.087,67.5L-57.019,70.625L-56.95,69.375L-56.813,63.75L-56.745,63.75L-56.676,65L-56.608,69.375L-56.539,66.875L-56.471,64.375L-56.403,62.5L-56.334,57.5L-56.266,58.125L-56.197,61.25L-56.129,63.75L-56.06,62.5L-55.992,66.25L-55.923,61.875L-55.855,58.75L-55.787,60.625L-55.718,62.5L-55.65,61.25L-55.581,65L-55.513,64.375L-55.376,61.25L-55.307,62.5L-55.239,63.75L-55.171,66.875L-55.102,65.625L-55.034,67.5L-54.965,65.625L-54.897,60L-54.828,59.375L-54.76,62.5L-54.691,67.5L-54.623,69.375L-54.486,68.75L-54.418,68.125L-54.349,71.875L-54.281,75.625L-54.212,78.125L-54.144,81.25L-54.075,79.375L-54.007,81.25L-53.936,81.25L-53.867,83.75L-53.799,82.5L-53.73,87.5L-53.662,86.875L-53.525,85L-53.457,83.75L-53.388,86.875L-53.32,86.25L-53.251,86.25L-53.183,90.625L-53.114,87.5L-53.046,86.25L-52.977,86.25L-52.909,88.125L-52.841,88.75L-52.772,90L-52.704,95.625L-52.635,96.875L-52.567,96.25L-52.498,96.875L-52.43,95L-52.361,96.875L-52.293,98.125L-52.225,98.75L-52.156,97.5L-52.019,96.875L-51.882,96.25L-51.745,95L-51.677,94.375L-51.608,93.75L-51.54,90.625L-51.472,88.125L-51.403,88.125L-51.335,88.75L-51.266,90L-51.198,90.625L-51.061,89.375L-50.992,90.625L-50.924,93.125L-50.856,93.125L-50.787,96.25L-50.719,97.5L-50.65,96.875L-50.582,97.5L-50.513,97.5L-50.308,96.875L-50.24,91.25L-50.103,89.375L-49.966,89.375L-49.897,88.125L-49.829,88.75L-49.76,86.875L-49.692,84.375L-49.624,81.875L-49.555,83.125L-49.487,83.125L-49.418,83.75L-49.35,86.25L-49.144,86.875L-49.076,86.875L-49.008,89.375L-48.939,91.25L-48.871,91.25L-48.802,92.5L-48.734,91.875L-48.665,91.875L-48.597,90.625L-48.528,90L-48.46,88.75L-48.392,85L-48.323,85.625L-48.255,86.25L-48.186,85.625L-48.118,85.625L-48.049,85.625L-47.981,85L-47.912,87.5L-47.844,85.625L-47.707,84.375L-47.639,85L-47.57,85.625L-47.502,85L-47.365,85.625L-47.296,88.125L-47.228,84.375L-47.159,83.125L-47.091,81.25L-46.886,79.375L-46.749,77.5L-46.68,75.625L-46.612,74.375L-46.543,76.25L-46.475,75.625L-46.407,75.625L-46.338,74.375L-46.27,70.625L-46.201,68.125L-46.133,70L-46.064,69.375L-45.996,73.125L-45.927,70.625L-45.859,68.125L-45.791,65L-45.722,63.125L-45.654,59.375L-45.585,62.5L-45.517,61.25L-45.448,62.5L-45.38,60L-45.314,58.75L-45.246,58.125L-45.177,59.375L-45.109,60L-45.04,56.875L-44.972,58.125L-44.835,58.75L-44.767,57.5L-44.698,60.625L-44.63,61.25L-44.561,60L-44.493,58.75L-44.424,50.625L-44.356,49.375L-44.288,50.625L-44.219,49.375L-44.151,51.25L-44.082,55L-44.014,53.75L-43.945,54.375L-43.877,55L-43.808,56.875L-43.74,55L-43.672,54.375L-43.603,51.25L-43.466,51.875L-43.398,50L-43.329,54.375L-43.261,52.5L-43.192,53.75L-43.124,51.875L-43.056,49.375L-42.987,49.375L-42.919,49.375L-42.782,52.5L-42.713,53.125L-42.645,46.875L-42.576,50L-42.44,46.25L-42.371,45.625L-42.303,49.375L-42.234,51.875L-42.166,57.5L-42.097,56.875L-41.96,56.875L-41.892,57.5L-41.824,58.125L-41.755,58.75L-41.687,61.875L-41.618,57.5L-41.55,53.125L-41.481,50L-41.413,52.5L-41.344,54.375L-41.276,54.375L-41.208,55L-41.139,55L-41.002,51.25L-40.934,52.5L-40.865,52.5L-40.797,52.5L-40.728,53.75L-40.66,51.25L-40.591,47.5L-40.523,47.5L-40.455,49.375L-40.386,55L-40.318,53.75L-40.249,51.875L-40.181,48.75L-40.112,41.875L-39.975,41.25L-39.907,43.75L-39.839,43.75L-39.77,40.625L-39.702,40.625L-39.633,41.875L-39.565,42.5L-39.496,36.25L-39.428,36.25L-39.359,35.625L-39.291,35L-39.086,34.375L-39.017,36.25L-38.949,40.625L-38.88,42.5L-38.812,41.25L-38.743,42.5L-38.607,41.25L-38.538,41.25L-38.47,45L-38.401,46.875L-38.333,49.375L-38.264,49.375L-38.196,47.5L-38.127,40.625L-38.059,36.875L-37.991,37.5L-37.922,42.5L-37.854,43.75L-37.785,44.375L-37.717,42.5L-37.648,38.125L-37.58,36.875L-37.511,40L-37.443,43.125L-37.238,41.875L-37.169,38.75L-37.101,43.75L-37.032,46.25L-36.964,46.25L-36.895,50L-36.827,52.5L-36.758,51.25L-36.69,48.125L-36.622,46.25L-36.553,48.75L-36.485,45L-36.416,48.125L-36.348,51.25L-36.279,46.25L-36.211,43.125L-36.142,41.25L-36.074,42.5L-36.006,41.25L-35.937,48.125L-35.869,50.625L-35.8,48.125L-35.732,44.375L-35.663,42.5L-35.595,46.875L-35.526,50L-35.458,54.375L-35.39,58.75L-35.321,55.625L-35.253,47.5L-35.184,46.25L-35.116,46.25L-35.047,47.5L-34.979,50L-34.91,51.25L-34.842,49.375L-34.774,45.625L-34.705,43.125L-34.637,45L-34.568,47.5L-34.5,46.25L-34.431,50.625L-34.363,48.75L-34.294,43.75L-34.226,45.625L-34.158,46.25L-34.089,43.125L-34.021,45L-33.884,41.875L-33.815,39.375L-33.747,38.125L-33.678,40.625L-33.61,43.75L-33.542,48.125L-33.473,46.875L-33.405,44.375L-33.336,38.75L-33.268,35L-33.199,38.75L-33.131,46.875L-33.062,48.125L-32.994,46.25L-32.926,43.125L-32.857,39.375L-32.789,36.875L-32.72,38.75L-32.652,42.5L-32.583,45.625L-32.446,45L-32.378,43.125L-32.309,41.25L-32.241,39.375L-32.173,41.875L-32.104,46.875L-32.036,47.5L-31.899,45.625L-31.83,50.625L-31.762,50.625L-31.693,55.625L-31.625,53.75L-31.557,57.5L-31.488,55.625L-31.42,51.25L-31.351,49.375L-31.283,48.125L-31.214,50L-31.146,55L-31.077,57.5L-31.009,55L-30.941,50L-30.872,51.875L-30.804,53.75L-30.735,55L-30.667,59.375L-30.598,58.125L-30.53,58.125L-30.461,56.875L-30.393,55L-30.325,54.375L-30.256,53.75L-30.188,56.875L-30.119,58.75L-30.051,55L-29.982,51.25L-29.914,50L-29.845,51.25L-29.777,51.25L-29.709,51.875L-29.64,51.875L-29.572,55L-29.503,55L-29.435,58.75L-29.366,63.75L-29.298,65L-29.229,66.875L-29.093,66.875L-29.021,66.875L-28.953,65.625L-28.884,66.875L-28.816,71.875L-28.747,71.875L-28.679,73.125L-28.611,73.125L-28.542,71.875L-28.474,78.75L-28.405,78.125L-28.337,76.875L-28.268,75L-28.2,75.625L-28.131,78.125L-28.063,77.5L-27.995,79.375L-27.926,80.625L-27.858,83.75L-27.789,86.25L-27.721,90L-27.584,91.25L-27.515,90.625L-27.447,89.375L-27.379,88.75L-27.31,89.375L-27.242,88.125L-27.105,84.375L-27.036,83.75L-26.968,84.375L-26.899,83.75L-26.831,83.125L-26.762,85L-26.694,85L-26.626,81.875L-26.557,82.5L-26.489,83.75L-26.42,84.375L-26.352,81.875L-26.283,79.375L-26.146,78.125L-26.078,78.125L-26.01,83.75L-25.941,84.375L-25.804,84.375L-25.736,85.625L-25.667,84.375L-25.599,84.375L-25.462,84.375L-25.325,84.375L-25.257,83.125L-25.188,83.125L-25.12,83.125L-25.051,85L-24.914,86.25L-24.709,85.625L-24.641,87.5L-24.572,88.125L-24.435,89.375L-24.23,90L-24.162,88.75L-24.093,89.375L-24.025,88.125L-23.956,86.875L-23.888,86.875L-23.751,85L-23.682,82.5L-23.614,81.25L-23.546,80L-23.477,81.25L-23.409,81.25L-23.34,83.75L-23.272,83.75L-23.203,82.5L-23.135,78.125L-23.066,77.5L-22.998,78.125L-22.93,80.625L-22.861,80.625L-22.793,80.625L-22.724,77.5L-22.656,75.625L-22.587,75.625L-22.519,73.75L-22.382,72.5L-22.313,71.25L-22.245,67.5L-22.177,68.75L-22.108,66.875L-22.04,65L-21.834,66.25L-21.766,66.875L-21.697,64.375L-21.629,62.5L-21.561,61.25L-21.355,61.25L-21.287,61.875L-21.218,63.125L-21.15,66.25L-21.081,61.25L-21.013,61.875L-20.945,60L-20.876,53.75L-20.808,53.125L-20.739,53.75L-20.671,50L-20.602,48.125L-20.534,46.875L-20.4,42.5L-20.331,41.25L-20.263,45.625L-20.195,46.25L-20.126,47.5L-20.058,45.625L-19.989,43.125L-19.921,43.75L-19.852,43.75L-19.784,45L-19.715,46.875L-19.647,45.625L-19.51,45L-19.442,42.5L-19.373,45.625L-19.305,46.25L-19.236,50.625L-19.168,51.875L-19.099,45L-19.031,42.5L-18.962,39.375L-18.894,45L-18.826,41.25L-18.757,41.875L-18.689,45.625L-18.62,48.75L-18.483,46.875L-18.415,48.125L-18.346,46.875L-18.278,45.625L-18.21,47.5L-18.141,49.375L-18.073,43.75L-18.004,45L-17.936,42.5L-17.867,44.375L-17.799,47.5L-17.73,46.875L-17.662,48.125L-17.594,43.75L-17.525,41.875L-17.457,45.625L-17.388,46.875L-17.32,49.375L-17.251,50.625L-17.183,49.375L-17.114,48.125L-17.046,46.25L-16.978,53.125L-16.909,55.625L-16.841,60L-16.772,60L-16.704,59.375L-16.635,60L-16.567,59.375L-16.498,55.625L-16.43,60L-16.362,58.75L-16.293,59.375L-16.225,59.375L-16.156,56.25L-16.088,53.125L-16.019,58.125L-15.951,55L-15.882,51.25L-15.814,52.5L-15.609,51.875L-15.54,51.875L-15.472,53.75L-15.403,59.375L-15.335,58.125L-15.266,52.5L-15.198,48.75L-15.129,41.25L-15.061,33.75L-14.993,38.125L-14.924,38.125L-14.856,35L-14.787,33.125L-14.719,28.125L-14.65,27.5L-14.582,28.125L-14.513,33.75L-14.445,34.375L-14.377,34.375L-14.24,37.5L-14.171,34.375L-14.103,35L-14.034,26.25L-13.966,29.375L-13.897,33.125L-13.829,33.125L-13.692,32.5L-13.624,31.25L-13.555,34.375L-13.487,35L-13.418,36.875L-13.35,34.375L-13.281,30.625L-13.213,26.875L-13.145,28.125L-13.076,33.75L-13.008,36.875L-12.939,43.125L-12.871,46.25L-12.802,43.125L-12.734,40L-12.665,44.375L-12.597,45.625L-12.529,50L-12.46,50.625L-12.392,48.125L-12.323,42.5L-12.255,38.125L-12.186,38.75L-12.118,39.375L-12.049,43.75L-11.981,46.875L-11.913,53.75L-11.776,52.5L-11.707,53.125L-11.639,51.875L-11.57,46.25L-11.502,50L-11.433,51.25L-11.365,45.625L-11.296,42.5L-11.228,42.5L-11.16,43.75L-11.091,47.5L-11.023,50.625L-10.954,46.875L-10.886,45.625L-10.817,41.875L-10.749,38.125L-10.68,36.25L-10.612,38.75L-10.544,38.75L-10.475,33.75L-10.407,31.875L-10.338,27.5L-10.27,23.75L-10.201,26.25L-10.133,30L-10.064,32.5L-9.996,33.125L-9.928,23.75L-9.859,23.75L-9.791,26.875L-9.722,25L-9.654,25L-9.585,29.375L-9.517,31.25L-9.448,25.625L-9.38,23.75L-9.312,27.5L-9.243,26.875L-9.175,28.75L-9.106,30.625L-9.038,27.5L-8.901,23.75L-8.832,23.75L-8.764,24.375L-8.696,25.625L-8.627,33.75L-8.559,39.375L-8.49,38.125L-8.422,36.25L-8.353,40L-8.285,41.875L-8.216,45L-8.148,50.625L-8.08,54.375L-8.011,50.625L-7.943,46.25L-7.874,40.625L-7.806,45.625L-7.737,43.75L-7.669,45L-7.6,48.125L-7.532,47.5L-7.463,42.5L-7.395,40.625L-7.327,43.75L-7.258,46.875L-7.19,43.75L-7.121,42.5L-7.053,39.375L-6.984,37.5L-6.916,35.625L-6.847,39.375L-6.779,43.125L-6.711,42.5L-6.642,43.75L-6.574,41.875L-6.505,40.625L-6.437,43.75L-6.368,45L-6.3,46.25L-6.231,42.5L-6.163,41.25L-6.095,33.125L-6.026,29.375L-5.958,28.75L-5.821,33.125L-5.752,38.125L-5.684,36.875L-5.615,36.875L-5.547,34.375L-5.479,30L-5.41,25.625L-5.342,31.25L-5.273,31.875L-5.205,33.125L-5.068,25.625L-4.999,26.875L-4.931,26.25L-4.863,29.375L-4.794,31.25L-4.726,30.625L-4.657,24.375L-4.589,19.375L-4.52,20.625L-4.452,19.375L-4.383,18.125L-4.315,18.75L-4.247,15.625L-4.178,15.625L-4.107,15.625L-4.038,15.625L-3.97,15.625L-3.901,25L-3.833,27.5L-3.765,31.25L-3.696,30.625L-3.628,28.125L-3.559,32.5L-3.491,30.625L-3.422,33.125L-3.354,31.875L-3.285,35L-3.149,30L-3.08,33.125L-3.012,32.5L-2.943,40.625L-2.875,44.375L-2.806,44.375L-2.738,45L-2.669,45L-2.601,50L-2.533,55.625L-2.464,60L-2.396,59.375L-2.327,63.125L-2.259,65.625L-2.19,65.625L-2.122,68.125L-2.053,68.75L-1.985,68.75L-1.916,70.625L-1.848,72.5L-1.711,68.75L-1.643,68.75L-1.574,68.75L-1.506,64.375L-1.437,64.375L-1.369,63.75L-1.3,64.375L-1.232,61.25L-1.164,65L-1.095,65.625L-1.027,68.75L-0.958,71.875L-0.89,71.875L-0.821,70L-0.753,66.25L-0.684,70.625L-0.616,71.25L-0.548,72.5L-0.274,71.875L-0.205,70L-0.137,66.875L-0.068,61.875L0.068,61.875L0.205,62.5L0.274,63.125L0.342,61.25L0.411,58.75L0.479,59.375L0.548,58.125L0.684,56.875L0.753,59.375L0.821,60.625L0.89,60L0.958,63.125L1.027,62.5L1.164,61.875L1.232,61.875L1.3,61.875L1.369,60L1.437,62.5L1.643,60.625L1.711,57.5L1.78,57.5L1.848,59.375L1.916,63.125L1.985,62.5L2.053,60.625L2.122,58.75L2.19,58.75L2.259,61.25L2.327,61.875L2.396,62.5L2.464,58.75L2.533,52.5L2.601,50L2.669,51.25L2.738,53.125L2.806,53.125L2.875,56.25L2.943,53.75L3.012,49.375L3.08,49.375L3.149,51.25L3.217,50.625L3.285,50L3.354,45.625L3.559,48.75L3.628,51.875L3.696,55L3.765,55.625L3.833,56.875L3.901,60L3.97,58.75L4.038,56.25L4.107,54.375L4.175,56.25L4.244,57.5L4.312,56.25L4.381,54.375L4.517,53.125L4.586,53.75L4.654,55L4.723,57.5L4.791,59.375L4.928,59.375L4.994,60L5.062,59.375L5.131,59.375L5.199,60.625L5.268,61.875L5.336,65.625L5.404,63.75L5.473,58.125L5.541,55L5.61,57.5L5.678,63.75L5.747,61.875L5.815,60L5.884,58.125L5.952,56.25L6.02,58.125L6.089,55.625L6.157,55.625L6.226,58.125L6.294,60L6.363,57.5L6.431,56.875L6.5,60L6.568,57.5L6.636,54.375L6.705,55.625L6.773,59.375L6.91,56.875L6.979,60.625L7.047,62.5L7.116,55.625L7.184,54.375L7.252,51.875L7.389,46.875L7.458,48.125L7.526,50L7.595,50L7.663,53.125L7.732,52.5L7.8,52.5L7.868,48.75L7.937,50L8.005,51.25L8.074,53.75L8.142,49.375L8.211,48.75L8.348,45L8.416,46.875L8.484,46.875L8.553,43.75L8.621,43.125L8.69,44.375L8.827,41.25L8.895,43.75L8.964,48.125L9.032,49.375L9.101,47.5L9.169,49.375L9.237,43.125L9.306,40.625L9.374,44.375L9.443,47.5L9.511,52.5L9.58,57.5L9.717,58.75L9.785,53.75L9.853,53.75L9.922,50.625L9.99,55.625L10.059,56.25L10.127,58.75L10.196,57.5L10.264,54.375L10.333,54.375L10.401,58.125L10.469,59.375L10.538,65.625L10.606,67.5L10.743,67.5L10.812,63.75L10.88,62.5L10.949,61.25L11.017,63.75L11.085,66.875L11.154,65.625L11.222,60.625L11.291,60L11.359,58.125L11.428,63.75L11.496,66.875L11.565,68.125L11.633,66.25L11.701,61.25L11.77,58.75L11.838,58.125L11.907,60L11.975,60L12.044,63.75L12.112,61.25L12.181,61.25L12.249,60L12.317,62.5L12.386,65.625L12.454,63.125L12.523,63.75L12.591,62.5L12.66,61.875L12.728,60.625L12.797,61.25L12.865,66.25L12.933,66.875L13.002,67.5L13.07,65.625L13.139,60L13.207,61.875L13.276,66.25L13.344,66.25L13.413,66.875L13.55,66.25L13.618,60.625L13.686,61.875L13.755,64.375L13.823,66.25L13.892,66.25L13.96,63.75L14.097,62.5L14.166,62.5L14.234,64.375L14.302,68.125L14.371,65L14.439,65L14.576,60.625L14.645,60.625L14.713,61.875L14.782,62.5L14.85,56.25L14.918,53.75L14.987,53.75L15.055,53.125L15.124,55L15.192,55.625L15.261,54.375L15.329,51.875L15.466,55.625L15.534,50L15.603,49.375L15.671,51.875L15.74,51.875L15.808,52.5L15.877,55L15.945,55.625L16.014,53.125L16.082,55L16.15,53.75L16.219,53.75L16.287,55.625L16.356,57.5L16.424,55L16.493,54.375L16.561,56.875L16.63,56.25L16.698,56.875L16.766,54.375L16.835,50L17.04,50.625L17.177,58.125L17.246,58.75L17.314,56.875L17.383,55.625L17.451,48.75L17.519,48.75L17.588,51.875L17.656,56.25L17.725,53.75L17.793,56.25L17.93,48.125L17.999,48.125L18.067,50L18.135,51.25L18.204,54.375L18.272,49.375L18.341,47.5L18.409,44.375L18.478,48.125L18.546,50.625L18.615,52.5L18.683,46.875L18.751,43.75L18.888,41.25L18.957,41.25L19.025,43.75L19.094,47.5L19.162,50L19.231,53.75L19.299,52.5L19.367,51.25L19.436,51.25L19.504,54.375L19.573,51.875L19.641,59.375L19.71,61.25L19.778,56.25L19.847,55.625L19.915,59.375L19.983,61.875L20.052,71.25L20.12,71.875L20.189,72.5L20.257,71.875L20.326,71.25L20.394,76.25L20.463,76.875L20.531,77.5L20.599,75.625L20.668,75.625L20.805,74.375L20.873,80L20.942,82.5L21.01,83.125L21.079,83.75L21.147,84.375L21.287,83.75L21.355,85L21.424,86.25L21.492,84.375L21.561,85L21.629,86.875L21.766,85.625L21.834,88.125L21.903,88.125L21.971,87.5L22.04,92.5L22.108,93.125L22.177,89.375L22.245,88.75L22.313,89.375L22.382,89.375L22.519,88.125L22.587,88.75L22.656,85.625L22.724,85L22.793,88.75L22.861,92.5L22.93,93.75L22.998,94.375L23.066,93.75L23.203,93.75L23.272,96.25L23.34,96.25L23.409,94.375L23.477,92.5L23.546,91.25L23.614,90L23.682,90.625L23.751,92.5L23.819,88.75L23.888,85.625L23.956,82.5L24.025,81.875L24.162,81.25L24.23,81.875L24.298,80L24.367,78.75L24.435,83.125L24.504,82.5L24.641,81.25L24.709,79.375L24.778,79.375L24.846,77.5L24.914,78.75L24.983,79.375L25.12,79.375L25.188,74.375L25.257,73.75L25.325,74.375L25.394,76.875L25.599,75.625L25.667,74.375L25.736,74.375L25.804,76.875L25.873,76.25L25.941,76.875L26.01,77.5L26.078,76.875L26.146,76.25L26.215,78.75L26.283,78.75L26.352,81.875L26.42,83.125L26.557,81.875L26.626,81.875L26.694,81.875L26.762,83.125L26.831,81.25L27.036,81.875L27.105,80L27.173,80L27.242,81.25L27.31,79.375L27.379,79.375L27.447,79.375L27.515,76.25L27.584,80.625L27.652,82.5L27.721,81.875L27.789,80.625L27.995,81.25L28.063,83.125L28.131,83.75L28.2,80L28.268,81.25L28.337,80.625L28.405,78.75L28.542,78.75L28.611,81.25L28.679,83.125L28.747,86.25L28.816,85L28.953,84.375L29.021,82.5L29.09,82.5L29.158,83.75L29.227,84.375L29.295,83.75L29.432,84.375L29.5,82.5L29.569,82.5L29.637,81.25L29.706,85L29.774,86.875L29.908,86.875L29.977,85.625L30.045,82.5L30.114,80L30.182,78.75L30.25,79.375L30.319,77.5L30.387,73.75L30.456,71.875L30.524,74.375L30.593,75L30.661,76.25L30.73,75.625L30.798,74.375L30.866,70L30.935,68.125L31.003,64.375L31.072,66.875L31.14,63.125L31.209,65.625L31.277,65.625L31.346,63.75L31.414,62.5L31.482,61.25L31.551,57.5L31.619,58.125L31.688,59.375L31.756,59.375L31.825,59.375L31.893,56.25L31.962,55L32.03,54.375L32.098,56.25L32.167,55L32.235,56.875L32.304,57.5L32.372,58.125L32.441,57.5L32.509,60L32.578,60.625L32.646,57.5L32.783,56.875L32.851,60L32.92,60L32.988,64.375L33.057,65L33.125,68.75L33.262,68.75L33.33,73.75L33.399,71.25L33.467,70L33.536,68.125L33.741,67.5L33.81,70L33.878,74.375L33.946,78.125L34.015,71.25L34.152,70L34.22,65L34.289,65.625L34.357,66.875L34.426,71.25L34.494,68.75L34.563,69.375L34.631,68.125L34.699,65.625L34.768,65.625L34.836,70L34.905,68.125L34.973,66.25L35.042,64.375L35.11,63.75L35.247,63.75L35.315,65.625L35.384,61.875L35.452,61.875L35.521,61.25L35.658,60.625L35.726,60.625L35.795,60.625L35.863,62.5L35.931,64.375L36,63.125L36.068,61.25L36.137,59.375L36.205,60L36.274,65L36.342,64.375L36.411,65.625L36.479,67.5L36.547,65.625L36.616,66.25L36.684,69.375L36.753,69.375L36.821,69.375L36.89,67.5L37.027,65.625L37.163,63.75L37.232,64.375L37.3,63.75L37.369,66.875L37.437,67.5L37.506,65L37.711,64.375L37.779,65.625L37.848,65.625L37.916,63.75L37.985,61.875L38.053,56.25L38.122,59.375L38.19,58.125L38.259,56.25L38.327,56.875L38.396,55.625L38.464,55L38.532,53.125L38.601,53.75L38.669,57.5L38.738,60L38.806,56.875L38.875,57.5L39.012,56.875L39.08,56.875L39.148,58.125L39.217,59.375L39.285,60.625L39.354,62.5L39.491,61.25L39.559,63.75L39.628,65.625L39.696,68.125L39.764,65L39.901,65L39.97,61.875L40.038,63.125L40.107,61.25L40.175,63.125L40.244,62.5L40.312,67.5L40.449,63.125L40.517,64.375L40.586,66.875L40.654,68.125L40.723,70L40.86,71.875L40.928,72.5L40.996,71.875L41.065,66.25L41.133,63.75L41.202,63.75L41.27,62.5L41.339,63.125L41.407,63.125L41.476,60L41.544,58.75L41.612,60L41.681,56.25L41.749,55.625L41.886,55L41.955,56.875L42.023,56.875L42.092,60L42.16,61.25L42.228,64.375L42.365,65.625L42.434,65L42.502,64.375L42.571,65L42.639,61.875L42.708,65.625L42.845,65.625L42.913,63.125L42.981,61.875L43.118,59.375L43.255,59.375L43.324,58.75L43.392,61.875L43.461,63.75L43.529,66.25L43.597,67.5L43.666,68.125L43.734,64.375L43.803,64.375L43.871,67.5L43.94,66.25L44.008,66.875L44.077,70L44.282,70L44.35,70L44.419,68.125L44.487,68.125L44.556,67.5L44.624,66.875L44.693,64.375L44.761,64.375L44.829,68.125L44.898,70L44.966,68.75L45.035,72.5L45.172,73.125L45.24,73.125L45.309,76.25L45.377,75L45.445,75.625L45.514,73.75L45.582,74.375L45.719,73.75L45.788,77.5L45.856,76.25L45.925,77.5L45.993,78.75L46.061,80.625L46.201,80.625L46.27,82.5L46.338,83.75L46.407,84.375L46.475,86.875L46.543,88.125L46.68,88.125L46.749,89.375L46.817,86.25L46.886,83.75L46.954,85.625L47.023,85L47.091,81.875L47.159,81.875L47.228,81.25L47.296,81.875L47.433,82.5L47.57,81.25L47.639,81.875L47.707,83.125L47.775,85L47.844,88.125L47.912,90L47.981,90.625L48.049,91.25L48.118,88.75L48.186,90L48.255,87.5L48.323,87.5L48.392,88.75L48.46,90L48.597,88.75L48.665,89.375L48.734,88.75L48.802,88.125L48.939,90L49.008,88.75L49.076,88.125L49.144,88.75L49.213,90L49.281,88.75L49.35,90.625L49.418,91.875L49.487,91.25L49.692,90L49.76,93.125L49.829,90.625L49.966,89.375L50.034,87.5L50.103,85L50.171,83.75L50.24,83.75L50.308,81.875L50.445,82.5L50.513,81.875L50.582,81.875L50.65,80.625L50.719,82.5L50.787,82.5L50.924,79.375L50.992,79.375L51.061,78.75L51.129,79.375L51.198,78.75L51.266,78.75L51.335,79.375L51.403,76.25L51.472,75L51.54,73.125L51.608,75L51.677,75.625L51.745,76.25L51.814,78.125L51.951,78.125L52.019,80L52.088,77.5L52.156,76.25L52.225,78.75L52.43,76.875L52.498,75.625L52.567,78.75L52.635,76.25L52.772,76.25L52.841,76.25L52.909,75.625L52.977,76.25L53.046,76.875L53.114,76.875L53.183,76.875L53.388,80L53.525,78.125L53.593,73.75L53.662,69.375L53.73,69.375L53.799,68.75L53.867,68.125L53.936,71.875L54.004,73.125L54.073,76.875L54.141,76.25L54.209,76.25L54.278,73.75L54.415,73.75L54.483,74.375L54.552,70L54.62,70L54.689,70L54.823,68.125L54.891,68.75L54.96,71.25L55.028,71.25L55.096,71.25L55.233,70L55.302,68.125L55.37,66.25L55.439,63.75L55.507,63.75L55.576,61.875L55.644,61.25L55.781,60L55.849,58.75L55.918,65L55.986,67.5L56.055,66.875L56.123,68.125L56.192,65L56.26,65L56.328,63.125L56.397,64.375L56.465,65L56.534,63.125L56.602,65L56.671,57.5L56.739,52.5L56.808,55L56.876,56.875L56.944,60.625L57.013,59.375L57.081,58.125L57.15,56.25L57.218,55L57.287,58.75L57.355,62.5L57.424,61.875L57.492,63.75L57.56,65.625L57.697,67.5L57.766,70L57.834,69.375L57.903,67.5L57.971,66.25L58.108,63.75L58.176,65L58.245,64.375L58.313,62.5L58.382,65L58.45,63.125L58.519,63.75L58.587,63.75L58.656,62.5L58.724,63.75L58.792,63.75L58.861,69.375L58.929,69.375L58.998,69.375L59.066,70L59.135,69.375L59.203,68.75L59.272,70L59.34,71.25L59.409,69.375L59.477,68.125L59.614,68.125L59.682,70L59.751,69.375L59.819,71.25L59.888,70L59.956,71.25L60.161,73.125L60.23,76.25L60.298,80L60.367,80.625L60.572,78.125L60.641,80.625L60.709,82.5L60.777,79.375L60.846,78.125L60.914,79.375L61.051,76.25L61.12,76.25L61.188,77.5L61.257,79.375L61.325,76.875L61.393,80.625L61.462,79.375L61.53,72.5L61.599,70L61.667,70L61.736,71.25L61.804,65.625L61.873,60.625L61.941,58.75L62.009,56.875L62.078,56.25L62.146,57.5L62.215,53.125L62.283,44.375L62.352,40.625L62.42,40L62.489,36.25L62.557,34.375L62.694,35L62.762,35L62.831,30L62.968,26.875L63.036,23.75L63.105,24.375L63.173,22.5L63.242,24.375L63.31,21.875L63.378,18.75L63.447,11.25L63.515,8.125L63.584,3.75L63.652,6.25L63.721,13.125L63.789,15L63.926,15L63.994,10.625L64.063,13.75L64.131,15.625L64.2,18.75L64.268,18.125L64.337,11.25L64.405,8.75L64.474,11.25L64.542,16.875L64.61,16.875L64.679,18.125L64.747,21.875L64.816,21.25L64.884,17.5L64.953,18.125L65.021,19.375L65.09,21.25L65.158,25.625L65.226,26.25L65.295,27.5L65.363,25L65.432,26.25L65.5,23.75L65.569,29.375L65.637,35L65.706,36.875L65.774,36.875L65.842,34.375L65.911,31.875L65.979,31.25L66.048,35.625L66.116,37.5L66.185,40.625L66.253,36.25L66.322,33.75L66.39,35.625L66.458,38.125L66.527,40L66.595,43.75L66.664,45.625L66.732,42.5L66.869,40.625L66.938,40.625L67.006,40.625L67.074,43.125L67.143,47.5L67.211,45L67.28,45L67.348,38.75L67.417,39.375L67.485,36.875L67.554,40.625L67.622,45L67.691,43.125L67.759,44.375L67.827,42.5L67.896,40.625L67.964,37.5L68.033,41.25L68.101,46.25L68.17,41.25L68.238,40L68.307,39.375L68.375,41.25L68.443,42.5L68.512,46.25L68.58,44.375L68.649,40L68.717,39.375L68.786,39.375L68.854,35L68.923,35.625L68.991,37.5L69.059,39.375L69.128,38.75L69.196,35L69.265,35.625L69.333,35L69.402,43.75L69.47,44.375L69.539,46.25L69.607,40.625L69.675,40L69.744,41.25L69.812,36.875L69.881,42.5L69.949,43.75L70.018,46.875L70.086,44.375L70.155,39.375L70.223,46.25L70.291,47.5L70.36,51.25L70.428,53.75L70.497,55.625L70.634,55L70.702,55.625L70.771,58.125L70.839,57.5L70.907,58.75L70.976,65.625L71.044,64.375L71.116,62.5L71.184,61.25L71.253,62.5L71.321,63.75L71.389,66.25L71.458,68.125L71.526,66.25L71.595,65L71.663,67.5L71.732,70L71.8,69.375L71.869,70.625L71.937,74.375L72.005,72.5L72.074,71.875L72.142,73.125L72.211,73.125L72.279,76.25L72.348,75L72.416,77.5L72.485,76.25L72.553,76.25L72.621,75L72.69,76.875L72.758,77.5L72.827,78.75L72.895,80.625L72.964,80.625L73.032,81.25L73.101,80.625L73.169,81.25L73.238,83.75L73.306,83.75L73.374,86.25L73.443,85.625L73.511,85L73.58,82.5L73.648,81.875L73.717,81.25L73.785,83.125L73.854,85.625L73.922,69.375L73.99,63.75L74.059,61.875L74.127,60.625L74.196,60.625L74.264,59.375L74.333,59.375L74.401,60L74.47,58.75L74.538,55.625L74.606,48.75L74.675,46.875L74.743,47.5L74.812,48.125L74.88,47.5L74.949,46.25L75.017,43.125L75.086,39.375L75.154,40.625L75.222,41.875L75.291,43.75L75.359,37.5L75.428,31.25L75.496,28.75L75.565,25L75.633,25.625L75.702,27.5L75.77,25L75.838,23.125L75.907,19.375L75.975,33.125L76.044,38.75L76.112,40.625L76.181,41.875L76.249,41.25L76.318,43.125L76.386,43.125L76.454,43.75L76.523,44.375L76.591,48.75L76.66,51.875L76.728,53.75L76.797,51.875L76.865,48.75L76.934,46.875L77.002,48.125L77.07,50L77.139,51.25L77.207,51.25L77.276,48.125L77.344,46.25L77.413,52.5L77.481,58.75L77.55,59.375L77.618,61.875L77.755,63.125L77.823,59.375L77.892,59.375L77.96,62.5L78.029,65.625L78.097,66.25L78.166,63.75L78.303,63.75L78.371,65L78.439,65.625L78.508,66.25L78.576,65.625L78.645,60L78.713,60.625L78.782,58.125L78.85,60L78.919,63.125L78.987,65L79.055,65.625L79.192,65L79.261,63.125L79.329,61.875L79.398,62.5L79.466,64.375L79.535,67.5L79.603,66.25L79.671,64.375L79.737,57.5L79.805,53.75L79.874,53.125L79.942,55L80.011,59.375L80.079,56.875L80.216,49.375L80.285,48.75L80.353,50L80.422,53.125L80.49,55L80.558,51.875L80.627,50L80.695,48.125L80.764,50L80.832,52.5L80.901,50L80.969,50L81.038,50L81.106,18.125L81.174,13.75L81.243,14.375L81.311,18.75L81.38,15L81.448,13.75L81.517,8.125L81.585,5L81.654,4.375L81.722,6.875L81.79,6.875L81.859,13.75L81.927,19.375L81.996,20.625L82.064,20.625L82.201,20L82.27,25.625L82.338,26.875L82.406,25.625L82.475,25L82.543,21.875L82.612,21.25L82.68,22.5L82.749,22.5L82.817,23.125L82.886,21.25L82.954,23.75L83.091,24.375L83.159,24.375L83.228,25.625L83.296,52.5L83.365,53.75L83.502,55.625L83.57,53.75L83.638,57.5L83.707,58.75L83.775,65.625L83.844,68.125L83.912,69.375L84.049,70L84.118,68.75L84.186,65.625L84.255,63.75L84.323,66.25L84.46,66.25L84.528,61.875L84.597,63.75L84.665,69.375L84.734,68.125L84.802,65.625L85.007,66.25L85.076,66.25L85.144,65.625L85.213,63.125L85.281,65L85.418,66.875L85.487,64.375L85.555,65L85.623,67.5L85.692,65.625L85.76,68.125L85.897,70L85.966,68.125L86.034,66.25L86.103,68.125L86.171,67.5L86.239,65.625L86.308,66.25L86.376,66.25L86.445,65.625L86.513,68.75L86.582,70.625L86.65,71.875L86.719,70.625L86.787,71.25L86.855,71.875L86.924,71.875L86.992,71.875L87.061,74.375L87.129,76.875L87.335,78.125L87.403,78.75L87.471,80L87.54,83.75L87.608,83.75L87.677,84.375L87.745,85L87.814,86.25L87.882,82.5L87.951,81.25L88.019,83.75L88.087,81.875L88.156,81.875L88.293,83.75L88.361,81.25L88.43,78.75L88.498,81.25L88.567,80L88.635,80L88.704,79.375L88.84,78.75L88.909,79.375L88.977,80L89.046,79.375L89.114,78.125L89.183,81.25L89.32,81.25L89.388,80.625L89.456,78.75L89.525,81.25L89.662,83.125L89.799,81.875L89.867,80.625L89.936,81.25L90.004,80.625L90.072,79.375L90.141,81.25L90.278,81.25L90.346,81.25L90.415,80L90.483,78.75L90.552,81.25L90.62,81.25L90.757,81.875L90.825,81.875L90.894,86.25L90.962,85.625L91.031,83.125L91.099,80.625L91.236,78.125L91.304,77.5L91.373,77.5L91.441,76.875L91.51,78.75L91.784,76.875L91.852,75L91.92,75L91.989,75L92.057,77.5L92.126,76.25L92.194,76.25L92.263,75L92.331,76.875L92.4,75.625L92.468,76.25L92.537,77.5L92.605,78.125L92.673,77.5L92.742,80.625L92.81,81.25L92.879,81.875L92.947,81.875L93.016,82.5L93.153,80L93.221,81.875L93.289,81.25L93.358,80.625L93.426,85L93.7,88.125L93.769,90L93.837,90L93.905,88.75L94.042,88.125L94.111,86.25L94.179,85.625L94.248,87.5L94.316,85L94.385,83.75L94.521,83.125L94.59,82.5L94.658,80.625L94.727,81.875L94.795,81.875L94.864,80L94.932,80L95.001,80L95.069,78.125L95.137,78.75L95.206,79.375L95.274,81.875L95.343,82.5L95.548,83.75L95.617,85L95.685,87.5L95.753,86.875L95.822,89.375L95.89,90.625L95.959,88.125L96.03,87.5L96.099,85.625L96.167,86.25L96.235,86.875L96.304,88.75L96.509,90L96.578,93.75L96.646,93.75L96.715,96.25L96.783,98.75L96.988,98.75L97.057,99.375L97.125,101.25L97.194,100.625L97.262,100.625L97.331,105L97.399,104.375L97.467,103.75L97.536,103.75L97.604,103.75L97.741,103.75L97.947,95L98.015,94.375L98.084,93.75L98.152,90L98.22,88.75L98.289,89.375L98.357,89.375L98.494,89.375L98.563,90.625L98.631,90L98.7,93.125L98.836,93.75L98.905,95L98.973,95.625L99.042,95L99.11,95L99.179,95.625L99.247,95.625L99.316,95.625L99.384,94.375L99.452,93.75L99.589,93.125L99.658,93.125L99.795,92.5L99.863,91.25L99.932,92.5L100.068,91.25L100.205,90.625L100.274,90.625L100.342,90L100.411,100.625L100.479,99.375L100.548,100L100.616,102.5L100.684,105L100.753,101.875L100.821,101.25L100.89,101.25L100.958,100.625L101.027,101.25L101.164,101.875L101.3,100.625L101.369,99.375L101.437,99.375L101.506,101.25L101.574,100L101.643,96.875L101.711,96.875L101.78,96.25L101.848,98.75L101.916,98.75L101.985,96.875L102.053,96.875L102.122,97.5L102.259,98.75L102.327,98.125L102.396,99.375L102.464,99.375L102.533,95.625L102.601,93.75L102.738,91.25L102.806,90.625L102.875,90L102.943,91.25L103.012,89.375L103.149,89.375L103.217,88.75L103.285,88.75L103.354,88.125L103.422,88.75L103.491,88.75L103.559,90L103.628,91.25L103.696,90.625L103.765,90L103.901,91.25L103.97,95L104.038,95L104.107,95L104.175,93.75L104.244,95.625L104.312,98.125L104.381,100L104.449,100.625L104.517,100.625L104.586,100L104.651,100.625L104.72,103.125L104.788,106.25L104.857,108.75L104.925,111.25L105.131,113.125L105.199,113.125L105.268,113.75L105.336,115.625L105.404,119.375L105.61,121.25L105.678,121.25L105.747,123.125L105.815,123.125L105.884,121.875L106.02,121.25L106.157,121.25L106.226,121.25L106.363,120L106.636,120.625L106.979,120.625L107.116,120.625L107.184,121.25L107.252,122.5L107.321,121.25L107.526,119.375L107.595,119.375L108.005,119.375L108.074,118.125L108.142,118.125L108.211,113.125L108.553,111.25L108.621,110.625L108.69,110.625L108.758,110.625L108.827,109.375L108.964,107.5L109.032,106.875L109.101,106.875L109.169,104.375L109.237,104.375L109.306,104.375L109.374,102.5L109.443,101.875L109.511,102.5L109.717,102.5L109.785,101.25L109.853,101.875L109.99,103.75L110.059,102.5L110.127,101.25L110.333,100.625L110.401,100L110.469,100L110.538,100.625L110.606,102.5L110.675,101.25L110.88,100L110.949,101.25L111.017,102.5L111.085,106.875L111.154,107.5L111.222,107.5L111.291,106.25L111.359,103.125L111.428,105L111.496,104.375L111.565,103.75L111.633,101.25L111.701,102.5L111.77,102.5L111.907,99.375L111.975,101.875L112.044,101.25L112.112,101.875L112.181,100L112.249,100.625L112.317,98.75L112.386,98.75L112.454,99.375L112.523,98.125L112.591,98.75L112.728,99.375L112.797,96.875L112.865,96.25L112.933,95.625L113.002,95.625L113.276,95.625L113.481,95.625L113.55,95L113.755,95L113.823,94.375L113.892,93.125L113.96,94.375L114.029,96.25L114.097,95.625L114.234,98.125L114.302,97.5L114.371,96.875L114.439,98.125L114.508,98.125L114.576,101.25L114.713,98.75L114.85,99.375L114.918,96.875L115.124,98.75L115.192,98.75L115.261,100L115.329,98.75L115.398,95.625L115.534,93.125L115.603,93.125L115.671,91.875L115.74,88.75L115.808,88.75L115.877,87.5L115.945,86.25L116.014,86.25L116.082,85L116.15,83.75L116.219,82.5L116.287,78.75L116.356,78.125L116.63,76.875L116.698,77.5L116.766,77.5L116.835,78.125L116.903,78.125L116.972,78.75L117.04,75.625L117.109,75.625L117.177,75.625L117.246,76.875L117.314,76.25L117.383,76.25L117.588,76.875L117.656,77.5L117.725,76.875L117.793,75.625L117.862,77.5L117.93,81.875L118.067,81.875L118.135,82.5L118.204,88.125L118.272,88.125L118.341,89.375L118.409,90.625L118.546,92.5L118.615,92.5L118.683,93.75L118.751,93.75L118.82,99.375L118.888,101.875L119.025,101.25L119.094,97.5L119.162,97.5L119.231,97.5L119.299,98.125L119.367,99.375L119.436,101.875L119.504,101.875L119.573,100.625L119.641,101.25L119.71,101.875L119.778,102.5L119.915,102.5L119.983,101.25L120.052,99.375L120.12,100.625L120.189,101.25L120.257,101.25L120.326,99.375L120.394,100L120.463,100L120.531,101.25L120.599,101.875L120.668,101.875L120.736,101.875L120.873,103.125L120.945,103.75L121.013,103.125L121.081,103.125L121.15,103.125L121.218,103.75L121.287,105L121.355,103.75L121.424,103.125L121.492,103.125L121.561,104.375L121.629,103.75L121.697,103.75L121.766,105L121.834,104.375L121.903,105L121.971,103.125L122.04,102.5L122.108,103.75L122.177,106.875L122.245,108.125L122.382,109.375L122.45,108.75L122.656,107.5L122.793,106.875L122.861,106.25L122.93,103.125L122.998,100.625L123.066,98.75L123.135,98.75L123.272,96.875L123.34,95.625L123.409,95.625L123.477,95.625L123.546,93.75L123.614,91.875L123.682,94.375L123.751,95L123.819,94.375L123.888,95.625L123.956,93.125L124.025,94.375L124.093,92.5L124.23,89.375L124.298,90.625L124.367,90.625L124.435,93.125L124.504,93.75L124.709,92.5L124.778,92.5L124.846,91.25L124.914,91.25L124.983,92.5L125.051,95L125.188,95.625L125.257,96.25L125.325,98.75L125.394,101.25L125.462,104.375L125.53,104.375L125.736,105.625L125.804,106.875L125.873,107.5L125.941,106.25L126.215,107.5L126.283,109.375L126.42,110L126.489,111.25L126.694,112.5L126.762,111.875L126.831,113.75L126.968,112.5L127.036,112.5L127.105,115L127.173,114.375L127.31,113.125L127.379,114.375L127.721,111.875L127.789,112.5L127.858,109.375L127.926,106.875L127.995,105L128.131,105L128.2,105L128.268,100L128.337,98.125L128.679,97.5L128.816,95L128.884,92.5L128.953,91.875L129.09,89.375L129.158,89.375L129.227,88.75L129.295,86.25L129.363,86.25L129.432,86.25L129.569,83.125L129.637,82.5L129.706,80.625L129.774,80.625L129.843,80L130.045,81.25L130.114,83.125L130.182,83.125L130.25,83.125L130.319,81.25L130.387,80L130.456,78.125L130.524,77.5L130.593,80L130.661,80.625L130.73,81.875L130.798,77.5L130.866,75L130.935,79.375L131.003,76.25L131.072,76.25L131.14,76.875L131.209,79.375L131.277,80L131.414,81.25L131.482,80.625L131.551,80.625L131.619,81.875L131.688,81.875L131.756,81.25L131.825,83.125L131.962,82.5L132.03,84.375L132.098,84.375L132.167,85.625L132.235,85L132.304,85L132.372,85.625L132.441,85.625L132.509,87.5L132.646,88.75L132.714,93.125L132.988,93.75L133.057,93.125L133.125,95.625L133.194,95.625L133.262,98.125L133.399,100L133.467,98.125L133.536,101.25L133.741,102.5L133.81,103.75L133.878,103.125L133.946,101.25L134.015,102.5L134.083,102.5L134.152,105L134.289,107.5L134.426,106.875L134.494,108.75L134.563,107.5L134.631,108.125L134.699,106.875L134.768,106.25L134.836,106.25L134.905,106.25L134.973,105.625L135.042,105L135.11,105.625L135.179,106.875L135.315,106.25L135.384,106.25L135.452,106.875L135.521,106.25L135.658,105.625L135.795,105.625L135.863,105.625L136,106.875L136.068,105.625L136.137,105.625L136.274,105.625L136.342,105L136.411,103.75L136.479,105L136.547,105.625L136.616,103.75L136.684,101.875L136.753,100.625L136.821,101.875L136.89,100.625L136.958,101.25L137.027,101.25L137.232,100L137.3,100L137.437,99.375L137.506,98.125L137.711,98.75L137.779,98.125L137.848,98.125L138.122,96.25L138.19,96.875L138.259,96.875L138.327,96.25L138.464,98.125L138.669,99.375L138.738,96.875L138.806,97.5L138.875,96.875L138.943,100.625L139.148,101.875L139.285,101.875L139.354,101.875L139.422,101.875L139.491,99.375L139.696,98.75L139.764,100L139.833,101.875L139.901,96.875L140.175,96.875L140.244,96.875L140.312,98.75L140.38,98.125L140.586,100L140.654,100.625L140.723,99.375L140.791,100L140.86,98.75L141.065,98.125L141.133,98.125L141.202,96.875L141.27,96.25L141.339,95.625L141.407,96.25L141.544,95.625L141.612,95.625L141.681,98.125L141.749,98.125L141.886,97.5L142.023,97.5L142.092,97.5L142.16,95.625L142.228,95.625L142.297,94.375L142.365,95L142.502,95.625L142.571,96.25L142.639,96.25L142.708,102.5L142.776,103.125L142.913,101.875L142.981,100.625L143.05,100.625L143.118,100.625L143.187,100.625L143.255,101.25L143.324,99.375L143.461,100L143.529,101.875L143.597,101.875L143.666,104.375L143.734,105L143.803,104.375L143.871,103.75L143.94,103.75L144.008,100L144.077,98.75L144.145,100L144.282,101.25L144.35,100.625L144.419,99.375L144.487,101.25L144.556,101.875L144.624,103.75L144.693,104.375L144.761,103.125L144.829,101.25L144.898,100L144.966,98.75L145.035,97.5L145.103,99.375L145.172,99.375L145.24,100.625L145.309,101.25L145.377,101.25L145.445,101.875L145.514,105L145.582,105.625L145.651,105.625L145.719,103.75L145.788,103.75L145.856,102.5L145.925,102.5L145.993,103.125L146.061,103.125L146.13,105L146.198,103.125L146.267,101.875L146.338,101.25L146.407,101.875L146.475,103.75L146.543,101.25L146.612,101.875L146.68,102.5L146.749,102.5L146.817,103.125L146.886,105L146.954,105.625L147.023,105.625L147.091,106.875L147.159,106.875L147.228,107.5L147.296,107.5L147.365,107.5L147.433,107.5L147.502,105.625L147.639,105.625L147.775,105.625L147.844,105.625L147.912,105.625L147.981,106.25L148.049,106.25L148.118,106.25L148.255,105.625L148.323,106.25L148.392,108.125L148.46,111.875L148.528,113.125L148.597,113.75L148.665,111.875L148.734,109.375L148.802,111.875L148.871,110.625L148.939,107.5L149.008,106.25L149.076,105.625L149.213,105L149.281,104.375L149.35,105.625L149.418,105.625L149.487,106.25L149.624,106.875L149.692,106.25L149.76,106.25L149.829,106.875L149.966,107.5L150.103,106.875L150.308,105.625L150.376,103.125L150.582,104.375L150.65,104.375L150.719,105L150.787,106.25L150.856,106.875L150.924,106.25L151.129,105L151.198,105L151.266,103.75L151.335,103.75L151.403,104.375L151.472,105L151.608,104.375L151.677,105L151.745,107.5L151.814,110.625L151.882,111.25L152.088,111.25L152.156,110L152.225,110L152.293,106.25L152.361,105.625L152.43,103.75L152.498,103.125L152.567,103.125L152.635,103.125L152.704,101.875L152.772,101.875L152.841,101.875L153.046,101.875L153.114,100.625L153.251,100L153.32,100.625L153.388,100L153.525,100L153.593,99.375L153.73,99.375L153.799,96.875L153.867,94.375L153.936,92.5L154.004,92.5L154.141,94.375L154.209,95L154.278,91.25L154.483,91.25L154.62,90L154.689,88.125L154.757,88.125L154.825,90.625L154.96,90.625L155.028,92.5L155.096,90L155.233,90L155.302,91.25L155.37,88.75L155.439,86.875L155.507,90L155.576,84.375L155.644,83.75L155.712,84.375L155.781,86.25L155.849,83.75L155.918,81.25L155.986,79.375L156.123,77.5L156.192,78.75L156.397,78.125L156.465,77.5L156.534,80L156.671,80L156.739,80.625L156.808,80.625L156.876,79.375L156.944,81.875L157.013,80L157.081,78.75L157.15,79.375L157.218,79.375L157.287,77.5L157.355,76.875L157.424,78.125L157.492,78.75L157.56,79.375L157.629,79.375L157.903,80.625L157.971,81.875L158.04,80L158.108,86.25L158.176,86.875L158.313,88.125L158.382,86.875L158.45,88.125L158.519,90L158.587,90.625L158.656,91.25L158.792,90.625L158.861,90L158.929,91.25L158.998,90L159.066,90.625L159.135,90.625L159.203,90.625L159.272,91.875L159.34,93.125L159.409,95.625L159.477,96.875L159.545,98.75L159.751,99.375L159.819,100L159.888,96.875L159.956,96.25L160.025,97.5L160.093,98.125L160.161,98.125L160.298,98.125L160.367,97.5L160.435,98.125L160.504,97.5L160.572,98.75L160.709,98.125L160.777,98.75L160.846,100.625L160.914,100.625L160.983,102.5L161.12,103.125L161.188,101.875L161.257,102.5L161.325,104.375L161.393,106.25L161.462,106.875L161.53,106.875L161.667,103.125L161.736,101.25L161.873,101.25L161.941,98.75L162.009,99.375L162.146,97.5L162.215,95.625L162.283,93.75L162.352,97.5L162.489,98.75L162.557,98.75L162.625,96.25L162.694,95L162.762,92.5L162.831,92.5L162.899,93.75L162.968,94.375L163.105,93.125L163.242,92.5L163.31,91.875L163.378,91.25L163.515,91.875L163.652,91.25L163.721,90.625L163.789,90.625L163.858,90L163.926,88.125L164.063,86.25L164.131,86.875L164.2,84.375L164.268,86.875L164.337,85L164.542,84.375L164.61,86.875L164.679,87.5L164.747,88.75L164.816,89.375L164.884,91.875L165.021,88.75L165.09,86.25L165.158,86.875L165.226,90L165.295,90L165.363,91.25L165.432,91.875L165.5,91.25L165.569,90.625L165.637,90.625L165.706,92.5L165.774,92.5L165.842,93.125L165.911,91.875L165.979,92.5L166.048,93.75L166.116,91.875L166.185,93.75L166.322,95.625L166.458,95.625L166.527,90L166.595,91.25L166.664,92.5L166.732,96.25L166.938,97.5L167.006,97.5L167.143,97.5L167.211,95L167.28,95.625L167.417,94.375L167.485,97.5L167.554,100L167.622,97.5L167.691,96.25L167.759,96.25L167.827,98.125L167.896,95.625L167.964,95.625L168.033,96.25L168.101,97.5L168.17,95L168.238,96.25L168.375,96.25L168.443,97.5L168.512,95L168.58,92.5L168.649,95L168.854,95.625L168.923,95.625L168.991,96.875L169.059,101.875L169.128,102.5L169.196,102.5L169.265,100L169.333,98.125L169.402,98.75L169.47,98.125L169.539,98.75L169.607,99.375L169.675,101.25L169.744,101.25L169.812,100L169.881,103.125L169.949,104.375L170.018,105.625L170.086,105.625L170.223,108.75L170.291,108.75L170.36,108.125L170.428,108.125L170.497,110.625L170.565,110.625L170.634,109.375L170.771,108.125L170.839,110L170.907,111.875L170.976,112.5L171.113,112.5L171.181,112.5L171.253,113.125L171.321,112.5L171.389,113.125L171.526,113.125L171.595,115L171.663,116.25L171.732,113.75L171.8,112.5L171.869,115L172.005,113.125L172.074,112.5L172.211,110.625L172.485,110.625L172.553,110.625L172.621,106.25L172.69,105L172.758,105L172.827,103.125L172.895,103.125L172.964,103.125L173.032,102.5L173.101,101.875L173.169,101.25L173.238,101.25L173.306,101.875L173.374,100.625L173.443,100L173.511,100.625L173.648,100.625L173.717,100.625L173.785,100.625L173.854,99.375L173.922,98.75L173.99,96.875L174.127,96.875L174.196,96.25L174.264,98.125L174.333,98.75L174.401,98.125L174.47,100L174.538,98.75L174.606,98.75L174.675,99.375L174.743,98.125L174.812,102.5L174.88,101.25L175.154,101.25L175.222,101.875L175.291,101.875L175.359,102.5L175.428,101.875L175.496,99.375L175.565,97.5L175.633,97.5L175.702,98.125L175.77,100L175.838,101.25L175.907,101.25L175.975,100L176.044,99.375L176.112,100L176.181,101.875L176.249,101.875L176.318,102.5L176.523,102.5L176.591,101.875L176.66,99.375L176.934,97.5L177.002,97.5L177.07,96.25L177.207,98.125L177.276,100L177.344,98.125L177.481,99.375L177.55,99.375L177.618,101.875L177.687,100.625L177.755,98.125L177.823,94.375L177.96,93.125L178.029,93.125L178.097,94.375L178.166,96.875L178.303,98.125L178.508,94.375L178.576,93.75L178.645,91.875L178.713,88.125L178.919,88.75L178.987,89.375L179.055,88.75L179.124,89.375L179.192,90L179.261,88.75L179.398,88.75L179.466,90.625L179.535,93.125L179.603,93.75L179.671,94.375L179.874,95.625L179.942,93.125L180.011,92.5L180.079,93.125L180.148,93.125L180.216,91.25L180.285,90.625L180.353,90.625L180.422,91.875L180.49,95.625L180.558,96.875L180.627,97.5L180.695,96.875L180.764,95.625L180.832,92.5L180.901,95.625L180.969,96.25L181.038,98.125L181.106,101.25L181.174,101.875L181.243,101.875L181.311,101.875L181.448,101.875L181.517,102.5L181.585,103.125L181.79,103.125L181.859,101.875L181.927,102.5L182.064,105L182.338,105L182.406,105L182.475,106.875L182.543,104.375L182.68,105.625L182.749,105L182.817,106.875L182.886,106.25L182.954,106.875L183.022,108.75L183.091,107.5L183.159,106.875L183.228,106.25L183.296,108.125L183.365,105.625L183.433,108.125L183.502,108.125L183.57,108.125L183.638,106.875L183.707,105.625L183.775,103.125L183.844,102.5L183.981,102.5L184.118,100.625L184.186,99.375L184.255,100.625L184.323,99.375L184.391,100.625L184.46,98.75L184.528,98.125L184.665,98.125L184.734,98.125L184.802,98.75L184.871,100L184.939,100.625L185.076,100.625L185.144,98.75L185.213,99.375L185.281,100.625L185.35,100L185.418,101.25L185.487,101.875L185.623,102.5L185.692,102.5L185.76,106.25L185.829,106.875L185.966,106.875L186.103,106.875L186.171,106.25L186.239,106.25L186.308,108.75L186.376,105L186.445,103.75L186.582,103.125L186.65,101.875L186.719,101.875L187.061,101.25L187.198,100L187.266,100L187.335,98.75L187.403,97.5L187.471,97.5L187.54,96.875L187.608,97.5L187.677,96.875L187.814,97.5L187.882,97.5L187.951,97.5L188.019,97.5L188.087,97.5L188.156,96.25L188.224,94.375L188.293,93.125L188.361,91.875L188.43,91.25L188.498,91.25L188.567,91.25L188.635,90.625L188.704,91.875L188.772,93.125L188.977,92.5L189.046,93.75L189.183,95L189.251,96.875L189.32,98.75L189.456,98.75L189.525,101.25L189.593,101.25L189.662,100.625L189.73,101.875L189.799,101.875L189.867,102.5L189.936,103.125L190.004,103.75L190.072,104.375L190.141,104.375L190.209,105L190.278,104.375L190.415,104.375L190.483,105.625L190.552,107.5L190.62,104.375L190.688,104.375L190.757,103.125L190.825,103.75L190.894,103.125L190.962,103.125L191.031,102.5L191.099,103.125L191.168,103.125L191.373,103.75L191.441,104.375L191.51,103.125L191.647,100.625L191.715,100.625L191.784,100L191.92,100L191.989,100.625L192.057,103.125L192.126,102.5L192.194,100L192.263,100L192.331,97.5L192.4,98.125L192.468,96.25L192.537,93.75L192.605,94.375L192.673,95L192.81,93.75L192.879,91.25L192.947,89.375L193.016,93.75L193.084,95.625L193.153,98.75L193.289,98.75L193.358,98.125L193.426,98.125L193.563,99.375L193.632,98.75L193.7,96.25L193.769,93.125L193.837,92.5L193.905,91.25L193.974,93.75L194.042,94.375L194.111,95.625L194.179,93.75L194.316,94.375L194.385,92.5L194.521,93.125L194.727,96.875L194.795,96.25L194.864,97.5L194.932,96.875L195.001,98.75L195.137,101.25L195.206,100.625L195.274,100.625L195.343,99.375L195.411,100L195.48,101.25L195.548,101.25L195.617,100.625L195.685,100L195.753,98.75L195.822,99.375L195.89,98.75L195.959,97.5L196.167,96.875L196.235,99.375L196.304,101.875L196.372,105L196.441,107.5L196.578,107.5L196.646,106.875L196.715,103.75L196.783,103.75L196.851,103.75L196.92,105.625L196.988,104.375L197.057,102.5L197.125,103.125L197.262,104.375L197.331,103.75L197.399,98.75L197.604,97.5L197.673,98.125L197.741,97.5L197.81,100L197.878,99.375L198.084,98.75L198.152,97.5L198.22,95L198.289,93.75L198.357,94.375L198.563,93.75L198.631,94.375L198.7,93.75L198.768,93.75L198.836,93.125L198.905,93.125L198.973,93.125L199.042,93.75L199.179,93.75L199.247,94.375L199.316,95.625L199.384,97.5L199.452,96.25L199.589,93.75L199.658,95L199.795,94.375L199.863,94.375L200.068,93.75L200.137,92.5L200.205,96.25L200.274,95.625L200.342,94.375L200.411,94.375L200.479,91.875L200.548,93.75L200.616,94.375L200.684,95.625L200.753,97.5L200.821,97.5L200.89,96.25L200.958,95.625L201.027,95.625L201.095,96.875L201.164,98.125L201.232,99.375L201.369,96.25L201.437,96.25L201.574,95.625L201.643,95.625L201.711,95" stroke="#4c78a8" stroke-width="2"/></g><g class="mark-group role-title"><g transform="translate(100,-22)"><path class="background" aria-hidden="true" d="M0,0h0v0h0Z" pointer-events="none"/><g><g class="mark-text role-title-text" role="graphics-symbol" aria-roledescription="title" aria-label="Title text 'Asbestos: Asbestos Complaint (B1)'" pointer-events="none"><text text-anchor="middle" transform="translate(0,10)" font-family="sans-serif" font-size="13px" font-weight="bold" fill="#000" opacity="1">Asbestos: Asbestos Complaint (B1)</text></g></g><path class="foreground" aria-hidden="true" d="" pointer-events="none" display="none"/></g></g></g><path class="foreground" aria-hidden="true" d="" display="none"/></g></g></g><defs><clipPath id="clip157"><rect x="0" y="0" width="200" height="150"/></clipPath></defs></svg>