<svg xmlns="http://www.w3.org/2000/svg" xmlns:xlink="http://www.w3.org/1999/xlink" version="1.1" class="marks" width="276" height="199" viewBox="0 0 276 199"><rect width="276" height="199" fill="white"/><g fill="none" stroke-miterlimit="10" transform="translate(38,27)"><g class="mark-group role-frame root" role="graphics-object" aria-roledescription="group mark container"><g transform="translate(0,0)"><path class="background" aria-hidden="true" d="M0,0h200v150h-200Z"/><g><g class="mark-group role-axis" aria-hidden="true"><g transform="translate(0.5,0.5)"><path class="background" aria-hidden="true" d="M0,0h0v0h0Z" pointer-events="none"/><g><g class="mark-rule role-axis-grid" pointer-events="none"><line transform="translate(0,150)" x2="200" y2="0" stroke="#ddd" stroke-width="1" opacity="1"/><line transform="translate(0,113)" x2="200" y2="0" stroke="#ddd" stroke-width="1" opacity="1"/><line transform="translate(0,75)" x2="200" y2="0" stroke="#ddd" stroke-width="1" opacity="1"/><line transform="translate(0,38)" x2="200" y2="0" stroke="#ddd" stroke-width="1" opacity="1"/><line transform="translate(0,0)" x2="200" y2="0" stroke="#ddd" stroke-width="1" opacity="1"/></g></g><path class="foreground" aria-hidden="true" d="" pointer-events="none" display="none"/></g></g><g class="mark-group role-axis" role="graphics-symbol" aria-roledescription="axis" aria-label="X-axis for a time scale with values from Friday, 01 January 2016, 12:00:00 AM to Monday, 01 January 2024, 12:00:00 AM"><g transform="translate(0.5,150.5)"><path class="background" aria-hidden="true" d="M0,0h0v0h0Z" pointer-events="none"/><g><g class="mark-rule role-axis-tick" pointer-events="none"><line transform="translate(0,0)" x2="0" y2="5" stroke="#888" stroke-width="1" opacity="1"/><line transform="translate(50,0)" x2="0" y2="5" stroke="#888" stroke-width="1" opacity="1"/><line transform="translate(100,0)" x2="0" y2="5" stroke="#888" stroke-width="1" opacity="1"/><line transform="translate(150,0)" x2="0" y2="5" stroke="#888" stroke-width="1" opacity="1"/><line transform="translate(200,0)" x2="0" y2="5" stroke="#888" stroke-width="1" opacity="1"/></g><g class="mark-text role-axis-label" pointer-events="none"><text text-anchor="start" transform="translate(0,15)" font-family="sans-serif" font-size="10px" fill="#000" opacity="1">2016</text><text text-anchor="middle" transform="translate(50.03422313483915,15)" font-family="sans-serif" font-size="10px" fill="#000" opacity="1">2018</text><text text-anchor="middle" transform="translate(100,15)" font-family="sans-serif" font-size="10px" fill="#000" opacity="1">2020</text><text text-anchor="middle" transform="translate(150.03422313483915,15)" font-family="sans-serif" font-size="10px" fill="#000" opacity="1">2022</text><text text-anchor="end" transform="translate(200,15)" font-family="sans-serif" font-size="10px" fill="#000" opacity="1">2024</text></g><g class="mark-rule role-axis-domain" pointer-events="none"><line transform="translate(0,0)" x2="200" y2="0" stroke="#888" stroke-width="1" opacity="1"/></g></g><path class="foreground" aria-hidden="true" d="" pointer-events="none" display="none"/></g></g><g class="mark-group role-axis" role="graphics-symbol" aria-roledescription="axis" aria-label="Y-axis for a linear scale with values from 0 to 8"><g transform="translate(0.5,0.5)"><path class="background" aria-hidden="true" d="M0,0h0v0h0Z" pointer-events="none"/><g><g class="mark-rule role-axis-tick" pointer-events="none"><line transform="translate(0,150)" x2="-5" y2="0" stroke="#888" stroke-opacity="0" stroke-width="1" opacity="1"/><line transform="translate(0,113)" x2="-5" y2="0" stroke="#888" stroke-opacity="0" stroke-width="1" opacity="1"/><line transform="translate(0,75)" x2="-5" y2="0" stroke="#888" stroke-opacity="0" stroke-width="1" opacity="1"/><line transform="translate(0,38)" x2="-5" y2="0" stroke="#888" stroke-opacity="0" stroke-width="1" opacity="1"/><line transform="translate(0,0)" x2="-5" y2="0" stroke="#888" stroke-opacity="0" stroke-width="1" opacity="1"/></g><g class="mark-text role-axis-label" pointer-events="none"><text text-anchor="end" transform="translate(-7,153)" font-family="sans-serif" font-size="10px" fill="#000" opacity="1">0</text><text text-anchor="end" transform="translate(-7,115.5)" font-family="sans-serif" font-size="10px" fill="#000" opacity="1">2</text><text text-anchor="end" transform="translate(-7,78)" font-family="sans-serif" font-size="10px" fill="#000" opacity="1">4</text><text text-anchor="end" transform="translate(-7,40.5)" font-family="sans-serif" font-size="10px" fill="#000" opacity="1">6</text><text text-anchor="end" transform="translate(-7,3)" font-family="sans-serif" font-size="10px" fill="#000" opacity="1">8</text></g></g><path class="foreground" aria-hidden="true" d="" pointer-events="none" display="none"/></g></g><g class="mark-line role-mark marks" clip-path="url(#clip158)" role="graphics-object" aria-roledescription="line mark container"><path aria-label="day: Jan 04, 2010; avg: 2.43333333333" role="graphics-symbol" aria-roledescription="line mark" d="M-149.76,104.375L-149.692,106.25L-149.624,106.875L-149.555,105.625L-149.281,108.125L-149.213,110L-149.144,111.875L-149.076,111.25L-149.008,111.25L-148.871,110L-148.802,109.375L-148.734,111.25L-148.665,111.25L-148.597,111.25L-148.528,111.875L-148.46,114.375L-148.323,115.625L-148.255,115L-148.186,115L-148.118,114.375L-148.049,112.5L-147.844,110L-147.775,110L-147.707,110L-147.639,110.625L-147.57,110.625L-147.502,111.875L-147.365,111.25L-147.296,111.875L-147.228,111.25L-147.091,111.25L-146.954,111.875L-146.817,110.625L-146.749,111.25L-146.612,110L-146.543,110.625L-146.407,109.375L-146.338,110L-146.27,109.375L-146.201,110.625L-146.133,111.25L-145.996,108.75L-145.927,107.5L-145.859,107.5L-145.791,107.5L-145.722,106.25L-145.654,105.625L-145.585,106.25L-145.448,105L-145.38,104.375L-145.311,106.25L-145.243,108.125L-145.175,108.75L-144.904,107.5L-144.835,106.875L-144.767,106.875L-144.698,107.5L-144.63,106.875L-144.561,106.875L-144.493,103.75L-144.424,103.75L-144.356,102.5L-144.288,101.875L-144.219,101.875L-144.014,103.125L-143.877,102.5L-143.808,103.75L-143.74,103.125L-143.672,103.125L-143.603,101.875L-143.535,100L-143.466,102.5L-143.398,103.125L-143.329,103.125L-143.261,103.125L-143.192,104.375L-142.987,103.75L-142.919,104.375L-142.85,105.625L-142.782,108.125L-142.713,107.5L-142.645,108.125L-142.576,108.125L-142.508,108.75L-142.44,108.75L-142.371,108.75L-142.303,108.75L-142.234,109.375L-142.097,110L-142.029,113.75L-141.96,111.875L-141.892,111.875L-141.824,113.125L-141.755,113.75L-141.687,113.75L-141.618,113.75L-141.55,113.125L-141.481,112.5L-141.413,113.75L-141.344,115L-141.276,114.375L-141.139,114.375L-141.071,113.75L-140.865,113.75L-140.728,113.75L-140.66,111.875L-140.591,112.5L-140.523,111.875L-140.455,112.5L-140.386,112.5L-140.318,113.125L-140.249,111.25L-140.181,110.625L-140.112,111.25L-140.044,109.375L-139.975,110.625L-139.839,111.25L-139.77,111.875L-139.633,111.25L-139.565,110L-139.496,111.25L-139.428,111.875L-139.291,112.5L-139.223,110L-139.154,109.375L-139.017,110L-138.812,108.75L-138.743,109.375L-138.675,108.125L-138.607,107.5L-138.538,109.375L-138.47,108.75L-138.333,107.5L-138.264,106.875L-138.196,105L-138.059,106.875L-137.991,106.25L-137.922,105.625L-137.854,106.25L-137.785,105.625L-137.717,103.75L-137.648,105L-137.58,105L-137.511,105.625L-137.375,106.875L-137.306,106.25L-137.238,106.25L-137.101,106.25L-137.032,106.875L-136.964,107.5L-136.827,106.875L-136.758,106.875L-136.69,106.25L-136.622,108.75L-136.553,109.375L-136.485,106.25L-136.348,108.125L-136.211,107.5L-136.142,107.5L-136.074,108.125L-136.006,108.75L-135.869,108.125L-135.8,110.625L-135.732,110.625L-135.663,111.25L-135.595,111.25L-135.526,111.875L-135.39,111.25L-135.321,111.25L-135.253,111.25L-135.184,112.5L-135.116,113.125L-135.047,111.25L-134.91,110L-134.774,110L-134.705,108.125L-134.568,107.5L-134.5,106.25L-134.431,106.25L-134.363,105L-134.294,105.625L-134.226,105L-134.158,101.875L-134.089,101.875L-133.884,101.25L-133.815,104.375L-133.747,103.125L-133.678,102.5L-133.61,103.125L-133.473,102.5L-133.405,100.625L-133.336,101.25L-133.268,101.25L-133.199,101.875L-132.926,101.875L-132.857,101.25L-132.789,101.25L-132.72,102.5L-132.652,101.25L-132.583,101.875L-132.515,101.875L-132.446,101.875L-132.378,102.5L-132.309,103.75L-132.036,105L-131.967,106.25L-131.899,106.25L-131.83,106.875L-131.762,106.25L-131.557,108.125L-131.488,106.875L-131.42,106.25L-131.351,110L-131.283,110L-131.146,109.375L-131.077,109.375L-131.009,109.375L-130.941,111.25L-130.872,111.875L-130.804,110L-130.598,110.625L-130.53,110.625L-130.461,110L-130.393,110L-130.325,110.625L-130.256,109.375L-130.188,110L-130.119,110.625L-129.982,111.875L-129.914,111.875L-129.845,111.875L-129.777,111.875L-129.709,113.125L-129.64,111.875L-129.572,111.25L-129.503,112.5L-129.435,113.125L-129.366,113.75L-129.298,113.75L-129.161,111.25L-129.093,111.875L-129.024,113.75L-128.887,113.125L-128.819,111.25L-128.75,112.5L-128.679,112.5L-128.611,113.75L-128.337,113.125L-128.2,112.5L-128.131,113.75L-128.063,114.375L-127.995,114.375L-127.721,114.375L-127.652,113.75L-127.584,114.375L-127.447,116.25L-127.31,116.25L-127.242,115.625L-127.173,115.625L-127.105,115.625L-127.036,115.625L-126.968,115L-126.762,115.625L-126.694,116.875L-126.626,117.5L-126.283,117.5L-126.078,116.875L-126.01,116.875L-125.804,116.875L-125.736,118.125L-125.667,119.375L-125.599,118.75L-125.12,119.375L-125.051,120.625L-124.983,120L-124.846,120L-124.778,120L-124.709,120.625L-124.641,120.625L-124.572,121.875L-124.504,121.875L-124.367,121.25L-124.298,121.875L-124.162,121.875L-124.093,121.875L-123.888,120L-123.614,120L-123.34,120.625L-123.272,118.75L-123.203,118.125L-123.066,118.75L-122.861,118.125L-122.793,117.5L-122.724,116.25L-122.656,116.25L-122.587,116.25L-122.382,116.875L-122.245,116.25L-122.177,116.875L-122.108,118.125L-121.971,118.125L-121.903,118.125L-121.834,116.25L-121.766,116.25L-121.697,116.875L-121.561,115L-121.492,113.75L-121.424,110.625L-121.355,111.25L-121.287,110.625L-121.218,110.625L-121.15,111.875L-121.013,111.25L-120.945,111.25L-120.876,110.625L-120.739,111.875L-120.671,111.875L-120.465,111.875L-120.397,113.75L-120.329,113.125L-120.058,112.5L-119.989,113.75L-119.921,114.375L-119.852,115L-119.784,115L-119.647,115L-119.578,115L-119.442,115.625L-119.305,115L-119.236,114.375L-119.099,113.75L-119.031,113.75L-118.894,113.75L-118.757,113.125L-118.552,111.875L-118.483,113.75L-118.346,115L-118.278,118.125L-118.21,117.5L-118.073,118.125L-118.004,117.5L-117.936,117.5L-117.799,117.5L-117.662,117.5L-117.525,118.125L-117.457,118.125L-117.388,117.5L-117.32,115L-117.183,113.75L-117.114,114.375L-116.978,114.375L-116.909,114.375L-116.841,113.75L-116.772,114.375L-116.704,110.625L-116.635,108.125L-116.567,107.5L-116.498,105L-116.43,105L-116.293,104.375L-116.225,104.375L-116.156,104.375L-116.088,106.25L-116.019,105L-115.951,105.625L-115.814,105.625L-115.745,105.625L-115.54,105L-115.266,105L-115.198,105L-115.129,103.75L-115.061,103.75L-114.993,103.125L-114.787,103.75L-114.719,102.5L-114.65,102.5L-114.513,101.25L-114.308,101.875L-114.24,101.25L-114.103,100.625L-114.034,100L-113.966,99.375L-113.897,99.375L-113.829,99.375L-113.761,100L-113.692,100L-113.624,98.125L-113.555,100L-113.487,100.625L-113.418,101.25L-113.35,101.875L-113.281,101.875L-113.213,101.25L-113.145,103.75L-113.008,104.375L-112.939,103.75L-112.871,101.25L-112.802,101.875L-112.734,101.25L-112.665,100.625L-112.597,101.875L-112.529,101.875L-112.392,103.125L-112.323,103.125L-112.186,103.75L-112.118,104.375L-112.049,104.375L-111.913,105.625L-111.844,107.5L-111.707,108.125L-111.639,106.875L-111.57,106.875L-111.502,106.875L-111.433,106.875L-111.365,108.125L-111.296,107.5L-111.228,106.875L-111.16,106.25L-111.091,106.25L-111.023,106.875L-110.954,104.375L-110.886,105L-110.817,103.125L-110.749,101.875L-110.68,100.625L-110.475,100.625L-110.407,103.125L-110.338,100.625L-110.27,101.25L-110.201,101.25L-110.133,100.625L-110.064,99.375L-109.996,98.75L-109.859,95L-109.791,95L-109.722,95L-109.654,96.875L-109.517,96.25L-109.448,95.625L-109.38,92.5L-109.243,93.125L-109.175,91.875L-109.106,91.875L-109.038,91.875L-108.969,92.5L-108.901,92.5L-108.832,95.625L-108.764,96.25L-108.559,93.75L-108.49,92.5L-108.422,93.125L-108.353,93.125L-108.285,93.75L-108.216,95L-108.08,95L-107.943,95.625L-107.806,95L-107.737,97.5L-107.669,98.125L-107.6,98.125L-107.532,99.375L-107.463,96.25L-107.395,94.375L-107.327,96.25L-107.258,95L-107.19,93.75L-107.121,93.75L-107.053,95L-106.984,93.75L-106.916,95.625L-106.847,95.625L-106.779,96.875L-106.711,96.25L-106.642,96.25L-106.574,96.875L-106.505,99.375L-106.437,98.75L-106.368,95.625L-106.3,98.125L-106.163,98.75L-105.958,100L-105.889,99.375L-105.821,100L-105.752,97.5L-105.684,97.5L-105.615,97.5L-105.479,98.125L-105.41,96.25L-105.342,96.25L-105.205,96.25L-105.136,95.625L-105.068,100L-104.999,101.875L-104.931,103.75L-104.863,103.125L-104.794,103.75L-104.726,103.75L-104.657,103.125L-104.589,103.125L-104.247,105L-104.178,105.625L-104.041,105L-103.973,106.25L-103.904,106.25L-103.836,106.25L-103.765,105.625L-103.696,104.375L-103.628,106.25L-103.491,105.625L-103.422,105L-103.285,105.625L-103.217,100L-103.149,101.25L-103.08,103.75L-103.012,105L-102.875,104.375L-102.806,103.75L-102.738,105.625L-102.669,105.625L-102.533,104.375L-102.464,105.625L-102.259,105.625L-102.19,105.625L-102.122,103.75L-102.053,106.25L-101.985,106.875L-101.916,106.875L-101.848,106.25L-101.78,107.5L-101.711,107.5L-101.574,108.75L-101.506,108.75L-101.437,108.75L-101.369,108.75L-101.3,109.375L-101.232,108.75L-101.095,110.625L-100.89,112.5L-100.821,113.125L-100.753,111.875L-100.684,111.875L-100.548,116.25L-100.479,113.125L-100.411,112.5L-100.342,111.875L-100.274,111.25L-100.205,110.625L-99.863,108.75L-99.795,108.75L-99.658,107.5L-99.589,107.5L-99.384,106.875L-99.316,107.5L-99.179,109.375L-98.836,109.375L-98.768,108.75L-98.7,108.125L-98.494,109.375L-98.426,110L-98.357,109.375L-98.22,107.5L-98.152,106.25L-98.015,106.25L-97.947,106.25L-97.878,106.25L-97.81,108.125L-97.741,106.875L-97.673,105L-97.536,103.75L-97.399,105L-97.331,103.125L-97.262,104.375L-97.057,106.25L-96.988,106.875L-96.92,106.875L-96.851,107.5L-96.783,108.125L-96.715,110L-96.578,109.375L-96.509,110L-96.441,109.375L-96.372,108.125L-96.304,108.125L-96.099,108.125L-96.03,106.25L-95.962,103.75L-95.825,104.375L-95.756,104.375L-95.619,103.125L-95.551,103.75L-95.483,102.5L-95.414,103.125L-95.346,101.875L-95.277,101.25L-95.209,99.375L-95.143,98.75L-95.075,98.75L-95.006,100L-94.938,100.625L-94.869,99.375L-94.801,99.375L-94.664,100L-94.596,101.25L-94.527,101.25L-94.459,101.25L-94.253,100.625L-94.185,100.625L-94.116,98.125L-94.048,97.5L-93.98,96.875L-93.911,95L-93.843,96.25L-93.706,93.75L-93.637,93.125L-93.569,95L-93.5,98.125L-93.432,98.125L-93.364,95.625L-93.295,96.875L-93.227,95.625L-93.158,98.125L-93.09,99.375L-93.021,100.625L-92.884,94.375L-92.816,91.875L-92.748,90.625L-92.679,90L-92.611,90L-92.542,90L-92.474,91.25L-92.405,91.875L-92.337,91.25L-92.268,90.625L-92.2,90L-92.132,88.75L-92.063,85.625L-91.995,81.875L-91.926,73.75L-91.789,74.375L-91.721,75.625L-91.652,76.875L-91.584,76.25L-91.516,77.5L-91.447,78.125L-91.379,75L-91.242,73.75L-91.173,73.125L-91.105,72.5L-91.036,71.875L-90.968,70.625L-90.831,67.5L-90.763,67.5L-90.694,66.875L-90.626,71.875L-90.557,72.5L-90.489,73.75L-90.42,74.375L-90.352,73.75L-90.283,73.125L-90.215,74.375L-90.147,74.375L-90.078,73.75L-90.01,70.625L-89.873,68.75L-89.804,70.625L-89.736,74.375L-89.667,78.125L-89.599,86.25L-89.531,84.375L-89.462,86.25L-89.394,84.375L-89.325,82.5L-89.257,81.25L-89.188,77.5L-89.12,79.375L-88.915,78.75L-88.846,78.75L-88.778,81.875L-88.709,80.625L-88.641,81.25L-88.572,84.375L-88.504,83.125L-88.435,81.25L-88.367,82.5L-88.299,80.625L-88.23,79.375L-88.162,78.75L-88.093,78.125L-88.025,77.5L-87.956,76.25L-87.888,77.5L-87.819,73.75L-87.751,73.75L-87.683,73.75L-87.614,72.5L-87.546,71.25L-87.477,71.875L-87.409,71.875L-87.272,70L-87.203,65.625L-86.998,62.5L-86.93,61.875L-86.861,62.5L-86.793,66.25L-86.724,66.25L-86.656,62.5L-86.587,61.25L-86.519,55L-86.45,50.625L-86.382,52.5L-86.314,53.125L-86.245,48.75L-86.177,47.5L-86.04,46.25L-85.971,48.125L-85.903,45.625L-85.834,45.625L-85.766,47.5L-85.698,45.625L-85.561,45.625L-85.492,44.375L-85.424,40.625L-85.355,41.25L-85.287,42.5L-85.218,43.75L-85.15,43.75L-85.082,38.75L-85.013,39.375L-84.945,41.875L-84.876,43.75L-84.808,49.375L-84.739,53.125L-84.671,50L-84.602,41.875L-84.534,33.75L-84.466,36.875L-84.397,32.5L-84.329,36.25L-84.26,41.875L-84.192,38.75L-84.123,36.875L-84.055,37.5L-83.986,36.875L-83.918,36.875L-83.85,38.75L-83.781,41.25L-83.713,41.25L-83.644,38.75L-83.576,40.625L-83.507,31.875L-83.439,31.25L-83.37,31.875L-83.302,33.125L-83.234,30.625L-83.165,28.75L-83.097,28.75L-83.028,31.875L-82.96,31.875L-82.891,31.25L-82.823,33.125L-82.754,33.125L-82.686,27.5L-82.617,30L-82.549,34.375L-82.481,41.875L-82.412,41.25L-82.344,46.25L-82.275,44.375L-82.207,41.875L-82.138,42.5L-82.07,40L-82.001,44.375L-81.933,48.125L-81.865,48.125L-81.796,49.375L-81.728,44.375L-81.659,41.875L-81.591,43.125L-81.522,40.625L-81.454,49.375L-81.385,51.25L-81.317,59.375L-81.249,60L-81.18,63.125L-81.112,64.375L-81.043,65.625L-80.975,64.375L-80.906,63.125L-80.838,62.5L-80.769,61.25L-80.701,55.625L-80.633,58.125L-80.564,60L-80.496,61.25L-80.427,58.125L-80.359,56.875L-80.29,56.875L-80.222,60L-80.153,59.375L-80.085,60L-80.017,63.75L-79.948,61.25L-79.88,58.125L-79.811,60L-79.743,57.5L-79.674,64.375L-79.606,67.5L-79.537,68.125L-79.469,70.625L-79.332,69.375L-79.264,68.125L-79.195,66.25L-79.127,65.625L-79.058,65L-78.99,61.875L-78.85,56.875L-78.782,60L-78.713,59.375L-78.645,59.375L-78.576,60L-78.508,65.625L-78.439,66.875L-78.371,63.75L-78.303,58.75L-78.234,56.875L-78.166,55.625L-78.097,53.75L-78.029,54.375L-77.96,55L-77.892,53.75L-77.823,50.625L-77.755,53.75L-77.687,56.875L-77.618,55.625L-77.55,58.75L-77.481,58.125L-77.413,58.125L-77.344,56.25L-77.276,56.875L-77.207,58.75L-77.139,58.75L-77.07,60.625L-77.002,62.5L-76.934,63.125L-76.865,65L-76.797,70.625L-76.728,68.75L-76.66,71.25L-76.591,70L-76.523,70L-76.454,68.125L-76.386,67.5L-76.318,70L-76.249,76.875L-76.181,81.875L-76.112,84.375L-76.044,85.625L-75.975,85.625L-75.907,88.75L-75.838,90.625L-75.77,93.125L-75.702,90L-75.565,90L-75.428,90L-75.359,90L-75.291,90L-75.222,90L-75.154,90L-75.086,90.625L-75.017,90.625L-74.949,91.25L-74.88,91.25L-74.812,91.25L-74.743,90L-74.675,89.375L-74.606,87.5L-74.538,87.5L-74.47,87.5L-74.401,90.625L-74.333,88.75L-74.264,90.625L-74.196,92.5L-74.127,93.125L-74.059,93.75L-73.99,95L-73.922,98.125L-73.854,97.5L-73.648,94.375L-73.58,91.875L-73.511,93.125L-73.443,93.75L-73.374,96.25L-73.306,96.25L-73.238,94.375L-73.101,94.375L-73.032,93.125L-72.964,90.625L-72.895,90.625L-72.827,91.25L-72.758,89.375L-72.69,89.375L-72.621,88.75L-72.553,88.125L-72.485,88.75L-72.416,91.25L-72.348,92.5L-72.279,93.125L-72.142,91.875L-72.074,90L-72.005,91.25L-71.937,91.25L-71.869,91.25L-71.8,90.625L-71.732,86.25L-71.663,86.25L-71.595,79.375L-71.526,78.75L-71.458,82.5L-71.389,83.125L-71.184,81.25L-71.116,80.625L-71.047,78.75L-70.91,78.125L-70.842,79.375L-70.705,75.625L-70.637,72.5L-70.568,71.875L-70.294,73.75L-70.229,73.75L-70.16,75.625L-70.092,74.375L-70.023,71.875L-69.955,68.75L-69.886,68.125L-69.818,68.125L-69.75,68.75L-69.681,68.75L-69.613,69.375L-69.544,70L-69.476,70.625L-69.407,68.75L-69.27,66.25L-69.202,66.25L-69.134,69.375L-69.065,68.75L-68.997,74.375L-68.86,72.5L-68.791,70L-68.723,68.75L-68.586,70.625L-68.518,71.875L-68.449,73.125L-68.381,71.875L-68.312,71.875L-68.244,75.625L-68.175,80L-68.107,82.5L-68.038,80.625L-67.97,76.875L-67.833,69.375L-67.765,67.5L-67.696,66.25L-67.628,69.375L-67.559,70.625L-67.491,68.125L-67.422,65L-67.354,63.75L-67.286,63.75L-67.217,64.375L-67.149,65.625L-67.08,67.5L-67.012,70L-66.943,61.875L-66.875,61.875L-66.806,61.875L-66.738,60L-66.67,63.75L-66.601,64.375L-66.533,65.625L-66.396,61.25L-66.327,56.25L-66.259,53.75L-66.19,55L-66.122,55.625L-66.054,53.75L-65.985,49.375L-65.917,46.875L-65.848,49.375L-65.78,48.75L-65.711,55.625L-65.643,59.375L-65.574,63.125L-65.506,62.5L-65.437,62.5L-65.369,61.25L-65.301,61.875L-65.232,63.125L-65.164,62.5L-65.095,61.875L-65.027,60.625L-64.958,54.375L-64.89,53.75L-64.821,60.625L-64.753,60.625L-64.685,61.25L-64.616,60.625L-64.548,59.375L-64.479,56.25L-64.411,58.125L-64.342,60.625L-64.274,65L-64.137,68.125L-64.069,65.625L-64,65.625L-63.932,63.75L-63.863,66.25L-63.795,70L-63.726,69.375L-63.658,71.25L-63.589,71.25L-63.521,71.25L-63.453,68.75L-63.384,69.375L-63.316,69.375L-63.247,72.5L-63.179,75L-63.11,73.125L-63.042,73.75L-62.973,74.375L-62.905,72.5L-62.837,76.25L-62.768,76.25L-62.7,76.25L-62.631,71.875L-62.563,69.375L-62.494,71.875L-62.426,73.75L-62.357,78.125L-62.289,77.5L-62.221,76.25L-62.084,73.75L-62.015,70.625L-61.947,74.375L-61.878,75.625L-61.81,78.125L-61.741,78.75L-61.673,75.625L-61.604,73.125L-61.536,74.375L-61.468,73.75L-61.399,70L-61.331,70L-61.262,70L-61.194,67.5L-61.125,65L-61.057,63.75L-60.988,62.5L-60.92,63.125L-60.852,64.375L-60.783,66.875L-60.715,68.75L-60.646,68.75L-60.578,65.625L-60.509,67.5L-60.441,69.375L-60.372,70.625L-60.304,71.25L-60.236,71.25L-60.167,68.125L-60.099,69.375L-60.03,70L-59.962,69.375L-59.893,68.75L-59.825,68.125L-59.756,68.125L-59.688,69.375L-59.62,72.5L-59.551,73.75L-59.483,71.25L-59.414,71.25L-59.346,73.75L-59.277,73.75L-59.209,73.75L-59.14,74.375L-59.072,73.125L-59.004,69.375L-58.935,73.75L-58.867,75L-58.798,73.125L-58.73,71.25L-58.661,70L-58.593,69.375L-58.524,72.5L-58.456,73.125L-58.388,73.125L-58.319,70.625L-58.251,63.75L-58.182,61.875L-58.114,62.5L-58.045,62.5L-57.977,64.375L-57.908,67.5L-57.84,66.875L-57.772,64.375L-57.703,61.25L-57.635,59.375L-57.566,57.5L-57.498,59.375L-57.429,63.125L-57.361,63.125L-57.292,59.375L-57.224,61.25L-57.155,60.625L-57.087,61.875L-57.019,62.5L-56.95,63.125L-56.882,63.125L-56.813,61.25L-56.745,61.875L-56.676,63.125L-56.608,63.75L-56.539,61.875L-56.471,61.25L-56.403,61.875L-56.334,59.375L-56.266,59.375L-56.197,65L-56.129,65.625L-56.06,66.875L-55.992,66.25L-55.923,63.75L-55.855,65L-55.787,63.75L-55.718,66.875L-55.65,71.25L-55.581,70.625L-55.513,71.25L-55.376,70.625L-55.307,70.625L-55.171,69.375L-55.102,73.75L-55.034,74.375L-54.965,73.125L-54.897,70.625L-54.828,73.125L-54.76,74.375L-54.691,73.125L-54.623,75L-54.555,76.875L-54.486,77.5L-54.418,79.375L-54.349,80L-54.281,82.5L-54.212,83.125L-54.144,84.375L-54.075,86.25L-54.007,85L-53.936,84.375L-53.867,86.25L-53.799,86.875L-53.73,89.375L-53.662,89.375L-53.593,91.875L-53.525,90L-53.457,87.5L-53.388,89.375L-53.32,88.75L-53.251,88.125L-53.183,86.875L-53.114,89.375L-53.046,88.125L-52.977,85.625L-52.909,86.875L-52.841,90.625L-52.772,91.875L-52.704,93.75L-52.635,94.375L-52.567,94.375L-52.498,93.125L-52.43,92.5L-52.361,92.5L-52.156,95.625L-52.088,96.25L-52.019,98.125L-51.951,99.375L-51.882,98.125L-51.814,99.375L-51.745,99.375L-51.677,98.75L-51.608,97.5L-51.54,96.875L-51.472,95L-51.335,94.375L-51.266,96.25L-51.129,98.125L-51.061,98.75L-50.992,100.625L-50.924,101.875L-50.856,102.5L-50.787,101.875L-50.719,102.5L-50.582,104.375L-50.513,105L-50.445,103.75L-50.308,101.25L-50.24,101.875L-50.171,100L-50.103,98.125L-50.034,98.75L-49.897,100L-49.829,100L-49.692,98.75L-49.555,98.125L-49.487,97.5L-49.418,98.75L-49.35,100L-49.144,97.5L-49.076,98.125L-49.008,98.125L-48.939,100.625L-48.871,100.625L-48.597,100.625L-48.528,100L-48.46,97.5L-48.392,95L-48.255,94.375L-48.186,93.125L-48.118,92.5L-48.049,91.875L-47.981,92.5L-47.912,91.875L-47.844,91.25L-47.707,91.875L-47.639,91.25L-47.57,93.125L-47.502,93.125L-47.433,94.375L-47.365,93.75L-47.296,91.875L-47.228,86.25L-47.159,86.25L-47.091,87.5L-47.023,86.25L-46.886,86.25L-46.68,85L-46.612,83.125L-46.543,85L-46.338,86.25L-46.201,86.25L-46.133,86.875L-46.064,83.125L-45.996,81.25L-45.927,78.125L-45.791,79.375L-45.722,81.25L-45.654,76.875L-45.585,78.125L-45.517,75.625L-45.38,73.75L-45.314,71.875L-45.246,71.25L-45.177,72.5L-45.109,65L-45.04,64.375L-44.972,63.125L-44.904,63.75L-44.767,65L-44.698,66.875L-44.63,65L-44.561,69.375L-44.493,68.125L-44.356,66.25L-44.288,68.125L-44.219,68.75L-44.151,68.75L-44.082,70.625L-44.014,71.875L-43.945,68.125L-43.877,68.75L-43.808,68.75L-43.74,73.75L-43.672,75L-43.603,78.125L-43.535,76.25L-43.398,76.875L-43.329,82.5L-43.261,83.125L-43.192,81.875L-43.124,80.625L-43.056,81.875L-42.987,83.75L-42.919,82.5L-42.85,88.75L-42.782,90L-42.713,91.25L-42.576,89.375L-42.508,86.875L-42.44,82.5L-42.371,86.875L-42.234,86.25L-42.166,87.5L-42.097,86.875L-41.96,83.75L-41.892,80L-41.824,80.625L-41.755,80L-41.687,80L-41.618,82.5L-41.55,80.625L-41.481,78.75L-41.413,77.5L-41.344,80.625L-41.276,79.375L-41.208,82.5L-41.139,79.375L-41.071,79.375L-41.002,75.625L-40.934,79.375L-40.865,78.75L-40.797,76.875L-40.728,77.5L-40.66,77.5L-40.591,78.125L-40.523,77.5L-40.455,74.375L-40.386,71.875L-40.318,73.125L-40.181,77.5L-40.112,73.125L-40.044,70.625L-39.975,69.375L-39.907,68.75L-39.839,71.25L-39.77,71.875L-39.702,71.25L-39.633,68.125L-39.565,68.125L-39.496,67.5L-39.428,69.375L-39.359,70.625L-39.291,70L-39.223,66.25L-39.154,66.875L-39.086,66.25L-39.017,66.25L-38.949,64.375L-38.88,64.375L-38.812,63.125L-38.743,65.625L-38.675,63.125L-38.607,59.375L-38.538,56.875L-38.47,48.75L-38.401,46.25L-38.333,50L-38.264,53.75L-38.196,53.125L-38.127,48.75L-38.059,51.25L-37.991,50.625L-37.922,50L-37.854,52.5L-37.785,51.875L-37.717,51.875L-37.648,49.375L-37.58,50L-37.511,49.375L-37.443,51.25L-37.375,48.75L-37.306,47.5L-37.169,48.125L-37.101,45.625L-37.032,46.875L-36.964,44.375L-36.895,46.875L-36.827,48.125L-36.758,48.125L-36.69,48.75L-36.622,50.625L-36.553,53.75L-36.485,54.375L-36.416,58.75L-36.348,66.25L-36.279,65.625L-36.211,64.375L-36.142,59.375L-36.074,57.5L-36.006,58.75L-35.937,60L-35.869,65L-35.8,63.75L-35.732,63.125L-35.663,58.75L-35.595,55.625L-35.526,56.25L-35.458,59.375L-35.39,60.625L-35.321,60.625L-35.253,61.875L-35.184,61.875L-35.116,61.25L-35.047,66.875L-34.979,67.5L-34.91,67.5L-34.842,65.625L-34.774,63.75L-34.705,64.375L-34.637,62.5L-34.568,61.875L-34.5,63.125L-34.431,63.125L-34.363,59.375L-34.294,55.625L-34.226,57.5L-34.158,56.25L-34.089,61.25L-34.021,61.875L-33.952,60L-33.884,58.75L-33.815,56.875L-33.747,58.75L-33.678,56.25L-33.61,59.375L-33.542,65L-33.473,63.125L-33.405,58.75L-33.268,53.75L-33.199,51.875L-33.131,52.5L-33.062,53.75L-32.994,55.625L-32.926,55L-32.857,53.75L-32.789,55L-32.72,55L-32.652,53.75L-32.583,55.625L-32.515,56.25L-32.446,53.75L-32.378,53.75L-32.309,56.875L-32.241,56.875L-32.173,61.25L-32.104,63.125L-32.036,62.5L-31.967,59.375L-31.899,60.625L-31.83,63.75L-31.762,61.875L-31.693,60L-31.625,60L-31.557,61.25L-31.488,60.625L-31.42,60.625L-31.351,63.75L-31.283,63.125L-31.214,62.5L-31.146,61.25L-31.077,58.75L-31.009,55.625L-30.941,52.5L-30.872,51.25L-30.804,48.75L-30.735,45.625L-30.667,45L-30.598,47.5L-30.461,47.5L-30.393,48.125L-30.325,49.375L-30.256,50L-30.188,48.125L-30.119,49.375L-30.051,49.375L-29.982,50L-29.914,53.125L-29.845,55.625L-29.709,54.375L-29.503,55.625L-29.435,59.375L-29.366,60.625L-29.298,60L-29.229,58.75L-29.161,56.875L-29.021,55L-28.953,56.875L-28.884,61.25L-28.816,64.375L-28.747,66.25L-28.679,68.125L-28.611,68.125L-28.542,70L-28.474,70.625L-28.405,74.375L-28.337,78.125L-28.268,77.5L-28.2,75.625L-28.063,76.25L-27.995,76.875L-27.926,78.125L-27.858,78.125L-27.789,78.125L-27.721,76.875L-27.652,76.25L-27.584,76.875L-27.515,75.625L-27.447,76.25L-27.31,78.125L-27.173,75.625L-27.105,73.75L-27.036,75L-26.968,76.875L-26.899,77.5L-26.831,81.875L-26.762,84.375L-26.694,83.125L-26.626,81.875L-26.557,82.5L-26.489,82.5L-26.42,81.875L-26.352,85L-26.283,85L-26.215,85.625L-26.146,85.625L-26.078,85L-26.01,86.875L-25.941,88.75L-25.873,87.5L-25.804,86.875L-25.736,86.875L-25.667,84.375L-25.599,80.625L-25.53,73.125L-25.462,72.5L-25.394,72.5L-25.325,71.25L-25.257,70.625L-25.188,69.375L-25.12,70L-25.051,70.625L-24.983,70.625L-24.914,68.75L-24.846,70.625L-24.778,68.125L-24.709,65.625L-24.641,61.25L-24.572,60.625L-24.504,61.875L-24.435,61.25L-24.367,63.125L-24.298,61.875L-24.23,60.625L-24.162,59.375L-24.093,56.875L-24.025,58.75L-23.956,59.375L-23.888,60.625L-23.819,60.625L-23.751,61.875L-23.682,60L-23.614,61.25L-23.546,65.625L-23.477,73.75L-23.409,71.25L-23.34,69.375L-23.272,71.25L-23.203,70L-23.135,70.625L-23.066,71.25L-22.998,70.625L-22.93,71.25L-22.861,72.5L-22.793,70.625L-22.724,73.125L-22.656,75L-22.587,80L-22.519,83.125L-22.45,81.875L-22.382,83.75L-22.313,79.375L-22.245,79.375L-22.177,78.75L-22.108,80L-22.04,81.875L-21.971,81.875L-21.903,80.625L-21.834,78.125L-21.766,77.5L-21.697,76.875L-21.629,76.25L-21.561,76.25L-21.492,76.875L-21.424,76.25L-21.355,75.625L-21.287,76.25L-21.218,75.625L-21.15,76.25L-21.081,76.875L-21.013,76.25L-20.945,78.125L-20.876,77.5L-20.808,77.5L-20.739,80.625L-20.671,80.625L-20.602,79.375L-20.534,80L-20.465,79.375L-20.4,80L-20.331,78.75L-20.263,83.125L-20.195,81.25L-20.126,83.125L-20.058,83.125L-19.989,79.375L-19.921,78.75L-19.852,79.375L-19.784,79.375L-19.715,81.25L-19.647,81.25L-19.578,81.875L-19.442,83.125L-19.373,83.75L-19.305,85.625L-19.236,89.375L-19.168,90.625L-19.099,90.625L-18.962,89.375L-18.894,88.75L-18.826,91.25L-18.757,90.625L-18.689,85L-18.62,83.125L-18.552,83.125L-18.483,78.125L-18.415,78.125L-18.346,76.875L-18.278,76.25L-18.21,75.625L-18.073,75.625L-18.004,74.375L-17.936,74.375L-17.867,74.375L-17.799,74.375L-17.73,75.625L-17.662,73.125L-17.525,71.875L-17.457,73.125L-17.388,71.25L-17.32,71.25L-17.251,73.75L-17.183,73.125L-17.114,71.25L-17.046,70.625L-16.978,70L-16.909,68.75L-16.841,66.875L-16.772,70L-16.704,71.875L-16.635,71.25L-16.567,71.875L-16.498,76.875L-16.43,77.5L-16.362,74.375L-16.293,77.5L-16.225,77.5L-16.156,77.5L-16.088,76.875L-16.019,77.5L-15.951,76.25L-15.882,75.625L-15.814,76.25L-15.745,76.875L-15.677,76.25L-15.609,78.75L-15.54,78.75L-15.472,80.625L-15.403,80L-15.335,82.5L-15.266,83.125L-15.198,80.625L-15.129,76.25L-15.061,75L-14.993,75L-14.924,73.125L-14.856,73.75L-14.787,74.375L-14.719,71.875L-14.65,68.125L-14.582,68.125L-14.513,64.375L-14.445,62.5L-14.377,63.75L-14.308,66.25L-14.24,65.625L-14.171,64.375L-14.103,62.5L-14.034,61.25L-13.966,59.375L-13.897,61.25L-13.829,60L-13.761,60L-13.692,60L-13.624,58.75L-13.555,55.625L-13.487,56.875L-13.418,56.875L-13.35,58.125L-13.281,55.625L-13.213,53.75L-13.145,56.25L-13.076,60L-13.008,60L-12.939,60.625L-12.871,63.125L-12.802,62.5L-12.734,61.875L-12.665,56.25L-12.597,59.375L-12.529,55L-12.46,56.875L-12.392,60L-12.323,59.375L-12.255,55L-12.186,51.25L-12.118,51.875L-12.049,54.375L-11.981,56.25L-11.913,58.125L-11.844,54.375L-11.776,55L-11.707,56.25L-11.639,51.875L-11.57,49.375L-11.502,48.125L-11.433,46.875L-11.365,43.125L-11.296,38.75L-11.228,38.125L-11.16,36.875L-11.091,33.125L-11.023,33.125L-10.954,35.625L-10.886,36.25L-10.817,33.125L-10.749,28.75L-10.68,28.125L-10.612,30.625L-10.544,26.25L-10.475,28.75L-10.407,30L-10.338,26.875L-10.27,23.125L-10.201,25L-10.133,28.75L-10.064,29.375L-9.996,29.375L-9.928,29.375L-9.859,27.5L-9.791,31.25L-9.722,32.5L-9.654,28.75L-9.585,32.5L-9.517,36.875L-9.448,38.125L-9.38,36.875L-9.312,38.125L-9.243,42.5L-9.175,40L-9.106,41.25L-9.038,43.75L-8.969,42.5L-8.901,41.875L-8.832,36.25L-8.764,37.5L-8.696,40.625L-8.627,41.875L-8.559,43.125L-8.49,41.875L-8.422,41.25L-8.353,38.125L-8.285,40.625L-8.216,45.625L-8.148,48.125L-8.08,45.625L-8.011,45.625L-7.943,40L-7.874,37.5L-7.806,38.75L-7.737,38.125L-7.669,35L-7.6,37.5L-7.532,38.125L-7.463,36.875L-7.395,40.625L-7.327,45L-7.258,49.375L-7.19,48.75L-7.121,51.25L-7.053,35L-6.984,31.25L-6.916,29.375L-6.847,26.875L-6.779,31.875L-6.711,35L-6.642,35.625L-6.574,35.625L-6.505,37.5L-6.437,42.5L-6.368,43.125L-6.3,39.375L-6.163,36.875L-6.026,28.75L-5.958,26.875L-5.889,29.375L-5.821,31.25L-5.752,33.75L-5.684,36.875L-5.615,34.375L-5.547,35.625L-5.479,38.125L-5.41,41.25L-5.342,41.875L-5.273,40.625L-5.205,37.5L-5.136,36.25L-5.068,35L-4.999,33.125L-4.931,34.375L-4.863,53.125L-4.794,56.25L-4.589,58.75L-4.52,60.625L-4.452,62.5L-4.383,61.25L-4.315,63.125L-4.247,65L-4.178,66.875L-4.107,67.5L-4.038,70L-3.97,76.25L-3.901,78.125L-3.833,84.375L-3.765,86.875L-3.696,88.125L-3.628,85L-3.559,84.375L-3.491,83.75L-3.422,86.875L-3.354,86.875L-3.285,85.625L-3.217,81.875L-3.149,81.875L-3.08,85.625L-3.012,88.75L-2.943,89.375L-2.875,88.75L-2.806,90L-2.738,91.875L-2.669,90.625L-2.601,92.5L-2.533,95L-2.464,96.25L-2.396,95L-2.327,94.375L-2.259,93.75L-2.19,93.75L-2.122,93.75L-2.053,93.125L-1.985,93.75L-1.916,93.125L-1.78,95L-1.711,94.375L-1.643,88.125L-1.574,89.375L-1.506,92.5L-1.437,96.25L-1.3,95L-1.232,94.375L-1.164,93.125L-1.095,96.25L-1.027,99.375L-0.958,99.375L-0.89,98.125L-0.821,95L-0.753,94.375L-0.684,95.625L-0.616,95.625L-0.548,93.75L-0.411,95L-0.342,93.125L-0.274,89.375L-0.205,88.125L-0.137,88.75L-0.068,89.375L0,84.375L0.068,81.875L0.137,81.25L0.205,82.5L0.274,81.875L0.342,81.875L0.411,80L0.479,79.375L0.548,81.875L0.684,80L0.753,80L0.89,80L0.958,79.375L1.027,78.75L1.095,80.625L1.164,79.375L1.232,79.375L1.3,77.5L1.369,77.5L1.437,79.375L1.574,78.125L1.643,78.75L1.711,79.375L1.78,80L1.848,79.375L1.916,78.75L1.985,80L2.053,80.625L2.122,80L2.19,78.75L2.259,83.75L2.327,86.25L2.396,77.5L2.464,76.875L2.601,71.25L2.669,67.5L2.738,69.375L2.806,70.625L2.875,71.875L2.943,71.875L3.08,69.375L3.149,68.125L3.217,68.75L3.285,71.25L3.354,70L3.422,68.75L3.559,65.625L3.628,65.625L3.696,65L3.765,64.375L3.833,64.375L3.901,61.875L3.97,61.875L4.038,63.125L4.107,61.25L4.175,63.125L4.244,65.625L4.312,66.875L4.381,66.875L4.449,67.5L4.517,66.25L4.586,64.375L4.654,73.75L4.723,74.375L4.791,78.75L4.86,80L4.928,78.125L4.994,76.25L5.062,76.875L5.131,78.125L5.199,80.625L5.268,79.375L5.336,78.75L5.404,75.625L5.473,71.25L5.541,69.375L5.61,72.5L5.678,73.125L5.815,73.75L5.952,72.5L6.02,70.625L6.089,68.125L6.157,67.5L6.226,66.875L6.294,68.75L6.363,69.375L6.431,66.875L6.5,65L6.568,63.75L6.636,64.375L6.705,66.25L6.773,63.75L6.842,62.5L6.91,58.75L6.979,57.5L7.047,58.125L7.116,59.375L7.184,62.5L7.252,61.25L7.321,61.875L7.389,60.625L7.458,61.875L7.526,61.875L7.595,58.75L7.663,62.5L7.732,61.25L7.8,57.5L7.868,55.625L7.937,53.125L8.005,53.125L8.074,56.875L8.142,60.625L8.279,62.5L8.348,58.75L8.416,56.875L8.484,55L8.553,55.625L8.621,56.875L8.69,59.375L8.758,57.5L8.827,51.25L8.895,54.375L8.964,55L9.032,56.875L9.101,57.5L9.169,60.625L9.237,58.75L9.306,58.75L9.374,56.25L9.443,53.75L9.511,51.875L9.58,51.875L9.648,48.125L9.717,48.125L9.785,40.625L9.853,41.875L9.922,41.875L9.99,44.375L10.059,46.25L10.127,48.75L10.196,45.625L10.264,43.125L10.333,38.75L10.401,36.25L10.469,38.75L10.538,38.125L10.606,38.75L10.675,38.75L10.743,33.125L10.812,31.875L10.88,33.125L10.949,34.375L11.017,35L11.085,34.375L11.154,33.75L11.222,30.625L11.291,32.5L11.359,30.625L11.428,35.625L11.496,36.875L11.565,38.75L11.701,33.125L11.77,39.375L11.838,44.375L11.907,50.625L11.975,53.125L12.044,56.875L12.112,55L12.181,55.625L12.249,53.125L12.317,53.125L12.386,54.375L12.454,57.5L12.523,64.375L12.591,61.875L12.66,61.875L12.728,56.25L12.797,54.375L12.865,58.125L12.933,60L13.002,63.125L13.07,56.875L13.139,50.625L13.207,51.25L13.276,52.5L13.344,52.5L13.413,52.5L13.481,54.375L13.55,53.75L13.618,53.75L13.686,50.625L13.755,53.125L13.823,47.5L13.892,48.75L13.96,51.875L14.029,49.375L14.097,47.5L14.166,44.375L14.234,41.25L14.302,40.625L14.371,43.125L14.439,44.375L14.508,43.125L14.576,41.875L14.645,43.125L14.713,45L14.782,51.25L14.85,53.125L14.918,54.375L14.987,56.875L15.055,55.625L15.124,58.125L15.192,63.75L15.261,64.375L15.329,65L15.398,67.5L15.466,63.75L15.534,60.625L15.603,56.875L15.671,54.375L15.74,53.75L15.808,56.875L15.877,61.875L15.945,61.25L16.014,56.875L16.082,55L16.15,53.125L16.219,55.625L16.287,58.75L16.356,60.625L16.424,58.75L16.493,58.125L16.561,55.625L16.63,54.375L16.698,55.625L16.766,56.875L16.835,57.5L16.903,53.125L16.972,52.5L17.04,46.25L17.109,46.25L17.177,46.25L17.246,45.625L17.314,46.875L17.383,47.5L17.451,46.875L17.519,49.375L17.588,49.375L17.656,51.875L17.725,56.25L17.793,61.25L17.862,55L17.93,54.375L17.999,52.5L18.067,53.75L18.135,58.125L18.204,61.875L18.272,63.75L18.341,64.375L18.409,63.125L18.478,64.375L18.546,64.375L18.615,68.75L18.683,67.5L18.751,61.25L18.82,55L18.888,52.5L18.957,56.875L19.025,57.5L19.094,61.875L19.162,61.25L19.231,62.5L19.299,62.5L19.367,62.5L19.436,63.125L19.504,64.375L19.573,65.625L19.641,69.375L19.71,68.125L19.778,64.375L19.847,62.5L19.915,70.625L19.983,71.875L20.052,73.125L20.12,75.625L20.257,75.625L20.326,76.25L20.394,77.5L20.463,75L20.668,76.25L20.736,76.875L20.805,77.5L20.873,78.125L20.942,78.75L21.01,85L21.079,88.75L21.147,90.625L21.215,89.375L21.287,89.375L21.355,88.75L21.424,91.25L21.492,90.625L21.561,88.75L21.697,86.25L21.766,85L21.834,85L21.903,84.375L21.971,84.375L22.04,88.125L22.108,91.25L22.245,91.875L22.313,90.625L22.382,91.25L22.45,91.875L22.519,90.625L22.587,91.25L22.656,90.625L22.724,90L22.793,93.125L22.861,94.375L22.93,94.375L22.998,95.625L23.066,94.375L23.135,97.5L23.203,97.5L23.272,99.375L23.34,98.125L23.409,100L23.477,100L23.546,102.5L23.682,103.125L23.751,106.25L23.819,108.75L23.888,111.25L23.956,112.5L24.025,109.375L24.093,109.375L24.162,108.75L24.23,108.125L24.298,108.125L24.367,106.875L24.435,108.125L24.572,106.25L24.709,106.25L24.778,106.875L24.846,108.125L24.983,107.5L25.051,107.5L25.12,105.625L25.257,105.625L25.325,106.875L25.394,106.875L25.462,107.5L25.53,106.25L25.599,106.25L25.667,105L25.736,106.875L25.804,106.25L25.873,105L25.941,103.125L26.01,102.5L26.078,100.625L26.146,99.375L26.215,96.875L26.283,94.375L26.42,96.25L26.489,96.25L26.557,92.5L26.626,90.625L26.694,91.25L26.762,92.5L26.831,90L26.899,91.875L26.968,90L27.036,91.25L27.105,91.25L27.242,90L27.31,88.75L27.379,88.75L27.447,88.125L27.515,88.125L27.584,86.25L27.652,85.625L27.721,86.25L27.789,85.625L27.858,86.25L27.926,86.25L27.995,85L28.063,85L28.131,85.625L28.2,85.625L28.268,86.25L28.337,88.125L28.474,90.625L28.542,92.5L28.611,91.875L28.679,88.125L28.747,90.625L28.884,92.5L28.953,90.625L29.021,91.875L29.09,90.625L29.158,86.875L29.227,88.75L29.363,86.25L29.432,85L29.5,84.375L29.569,84.375L29.637,84.375L29.706,82.5L29.908,79.375L29.977,78.125L30.045,79.375L30.114,78.125L30.182,75L30.25,73.75L30.387,72.5L30.456,73.75L30.524,74.375L30.593,75.625L30.661,73.75L30.73,73.75L30.798,71.875L30.866,69.375L30.935,70L31.003,71.875L31.072,73.75L31.14,73.125L31.209,69.375L31.277,70L31.346,68.75L31.414,72.5L31.551,75L31.619,71.875L31.688,71.25L31.756,70L31.825,68.75L31.893,68.75L31.962,70L32.03,70L32.098,69.375L32.167,71.25L32.304,69.375L32.372,70L32.441,70.625L32.509,71.875L32.578,73.125L32.646,69.375L32.714,69.375L32.783,66.875L32.851,66.875L32.92,65.625L32.988,68.125L33.057,68.125L33.194,66.875L33.262,61.25L33.33,61.25L33.399,61.25L33.467,61.25L33.536,61.25L33.604,60L33.673,55.625L33.741,53.75L33.81,52.5L33.878,51.875L33.946,53.125L34.015,54.375L34.083,53.125L34.22,49.375L34.289,49.375L34.357,50L34.426,49.375L34.494,50.625L34.563,50.625L34.631,53.75L34.699,50L34.768,46.875L34.836,46.875L34.905,45.625L34.973,44.375L35.042,45L35.11,41.25L35.179,38.75L35.247,36.875L35.315,32.5L35.384,38.125L35.452,38.125L35.521,38.75L35.589,42.5L35.658,39.375L35.726,37.5L35.795,40L35.863,41.25L35.931,45L36,45L36.068,38.75L36.137,38.75L36.205,40L36.274,43.75L36.342,45L36.411,45.625L36.479,43.75L36.547,41.25L36.616,40.625L36.684,36.875L36.753,38.125L36.821,39.375L36.89,41.25L36.958,41.25L37.027,35L37.095,32.5L37.163,35L37.232,32.5L37.3,35.625L37.369,40L37.437,38.125L37.506,36.875L37.574,35L37.711,30.625L37.779,30L37.848,31.875L37.916,33.125L37.985,33.125L38.053,31.25L38.122,29.375L38.19,20L38.259,16.875L38.327,17.5L38.396,17.5L38.464,15.625L38.532,17.5L38.601,19.375L38.669,18.125L38.738,16.25L38.806,19.375L38.875,22.5L38.943,20.625L39.012,18.75L39.08,15.625L39.148,21.25L39.217,21.875L39.285,25.625L39.354,26.875L39.422,26.25L39.491,24.375L39.559,23.125L39.628,25L39.696,28.125L39.764,31.875L39.833,35L39.901,35L39.97,31.875L40.038,30.625L40.107,30.625L40.175,33.75L40.244,48.125L40.312,53.125L40.38,50L40.449,46.25L40.517,48.75L40.586,46.25L40.654,45L40.723,46.875L40.791,50L40.86,46.25L40.928,43.75L40.996,46.25L41.065,43.75L41.133,46.875L41.202,46.875L41.27,49.375L41.339,46.875L41.407,48.125L41.476,42.5L41.544,40.625L41.612,41.875L41.681,42.5L41.749,42.5L41.818,43.125L41.886,43.75L41.955,44.375L42.023,45L42.092,43.125L42.16,41.875L42.228,41.875L42.297,41.25L42.365,38.75L42.434,40.625L42.502,43.75L42.571,43.125L42.639,46.25L42.708,47.5L42.776,48.125L42.845,46.875L42.913,46.875L42.981,48.125L43.05,46.25L43.118,52.5L43.187,50.625L43.255,51.875L43.324,51.25L43.392,52.5L43.461,53.75L43.529,60.625L43.597,65L43.666,65L43.734,66.875L43.803,63.75L43.871,61.25L43.94,56.875L44.008,58.75L44.077,60.625L44.145,63.75L44.282,65L44.35,66.25L44.419,68.125L44.487,71.25L44.556,73.125L44.624,71.25L44.693,71.875L44.761,69.375L44.829,69.375L44.898,70L44.966,69.375L45.035,73.75L45.103,72.5L45.172,73.75L45.24,73.75L45.309,77.5L45.377,80L45.445,82.5L45.514,82.5L45.582,83.125L45.651,80.625L45.719,76.875L45.788,77.5L45.856,77.5L45.925,80.625L45.993,80.625L46.13,85L46.201,84.375L46.27,84.375L46.338,85L46.407,88.125L46.475,89.375L46.543,88.75L46.612,85L46.68,84.375L46.749,86.875L46.817,86.875L46.886,88.125L46.954,88.125L47.023,87.5L47.091,89.375L47.159,89.375L47.228,88.125L47.296,88.125L47.365,88.125L47.502,88.75L47.57,88.125L47.639,88.125L47.707,88.75L47.775,89.375L47.844,92.5L47.912,95L47.981,93.75L48.049,93.125L48.118,93.75L48.186,93.75L48.255,95L48.323,95.625L48.392,96.25L48.46,94.375L48.528,86.875L48.597,84.375L48.665,85L48.802,89.375L48.871,89.375L48.939,88.125L49.008,88.125L49.076,87.5L49.144,87.5L49.213,88.125L49.281,86.875L49.35,86.25L49.418,88.75L49.487,89.375L49.624,89.375L49.76,89.375L49.829,87.5L49.897,85.625L49.966,85L50.034,85L50.103,83.125L50.171,84.375L50.24,87.5L50.308,88.125L50.376,85.625L50.445,86.25L50.513,83.125L50.582,82.5L50.65,78.125L50.719,80.625L50.787,87.5L50.856,88.125L50.992,88.75L51.061,87.5L51.129,86.25L51.198,87.5L51.266,87.5L51.335,86.875L51.403,85.625L51.472,83.75L51.54,85L51.608,84.375L51.677,86.25L51.745,86.25L51.814,85.625L51.882,83.75L51.951,85.625L52.019,85L52.088,84.375L52.156,84.375L52.225,81.875L52.293,78.125L52.361,76.875L52.43,72.5L52.498,73.125L52.567,73.75L52.635,75.625L52.704,71.25L52.772,73.75L52.841,73.125L52.909,66.25L53.046,63.125L53.114,61.875L53.183,62.5L53.251,62.5L53.32,60L53.388,60L53.457,58.125L53.525,58.125L53.593,58.75L53.662,59.375L53.73,58.125L53.799,56.875L53.867,52.5L53.936,48.75L54.004,47.5L54.073,48.75L54.141,51.25L54.209,51.875L54.346,51.25L54.415,53.75L54.483,55.625L54.552,54.375L54.62,58.125L54.689,59.375L54.757,57.5L54.823,56.25L54.891,56.875L54.96,55L55.028,54.375L55.096,60.625L55.165,63.75L55.233,63.125L55.302,62.5L55.37,63.125L55.439,63.75L55.507,63.125L55.576,67.5L55.644,70L55.712,69.375L55.781,66.25L55.849,67.5L55.918,65L55.986,67.5L56.055,72.5L56.123,72.5L56.192,71.25L56.26,68.125L56.328,67.5L56.397,66.25L56.465,66.25L56.534,66.25L56.602,68.125L56.671,68.125L56.739,65L56.808,65.625L56.876,63.75L56.944,68.125L57.013,71.25L57.081,71.875L57.15,69.375L57.218,68.75L57.287,68.75L57.355,66.875L57.424,67.5L57.492,68.125L57.56,68.125L57.629,68.125L57.697,66.25L57.766,66.875L57.834,66.875L57.903,66.25L57.971,69.375L58.04,69.375L58.176,67.5L58.245,68.125L58.313,68.125L58.382,69.375L58.45,70L58.519,71.25L58.587,70L58.656,70L58.724,68.75L58.792,64.375L58.861,62.5L58.929,63.125L58.998,67.5L59.066,62.5L59.135,61.875L59.203,60L59.272,60L59.34,60L59.409,61.875L59.477,63.75L59.545,63.125L59.614,63.125L59.682,61.875L59.751,58.75L59.819,58.125L59.888,58.125L59.956,58.75L60.025,55L60.093,51.875L60.161,51.875L60.23,51.875L60.298,49.375L60.367,46.875L60.435,46.875L60.504,47.5L60.572,47.5L60.641,50L60.709,51.25L60.777,50.625L60.846,55L60.914,60L60.983,59.375L61.051,56.25L61.12,57.5L61.188,53.75L61.257,55.625L61.325,58.125L61.393,59.375L61.462,54.375L61.53,53.75L61.599,51.875L61.667,50.625L61.736,51.25L61.804,51.25L61.873,51.875L61.941,51.25L62.009,49.375L62.078,51.875L62.146,53.125L62.215,50.625L62.283,51.25L62.352,53.125L62.42,48.125L62.489,46.875L62.557,45.625L62.625,43.75L62.694,40.625L62.762,41.25L62.831,42.5L62.899,40.625L62.968,38.125L63.036,39.375L63.105,41.875L63.173,41.25L63.242,43.125L63.31,41.25L63.378,41.875L63.447,39.375L63.515,45L63.584,41.875L63.652,40.625L63.721,42.5L63.789,44.375L63.858,45.625L63.926,42.5L63.994,40.625L64.063,42.5L64.131,42.5L64.2,43.125L64.268,46.25L64.337,45.625L64.405,44.375L64.474,51.875L64.542,53.75L64.61,54.375L64.679,54.375L64.747,55.625L64.816,55.625L64.884,51.25L64.953,51.875L65.021,53.75L65.09,53.75L65.158,54.375L65.226,58.75L65.295,61.875L65.363,63.125L65.432,61.875L65.5,59.375L65.569,58.75L65.637,62.5L65.706,63.125L65.774,60.625L65.842,56.875L65.911,53.75L66.048,54.375L66.116,58.75L66.185,60L66.253,58.125L66.322,58.75L66.39,58.75L66.458,55.625L66.527,56.875L66.595,58.125L66.664,56.25L66.732,56.875L66.801,55.625L66.869,55.625L66.938,55L67.006,59.375L67.074,60L67.143,60.625L67.211,61.25L67.28,57.5L67.348,53.75L67.417,51.25L67.485,50L67.554,50.625L67.622,53.75L67.691,51.875L67.759,52.5L67.827,56.25L67.896,55.625L67.964,56.25L68.033,58.75L68.101,62.5L68.17,60.625L68.238,60.625L68.307,62.5L68.375,63.75L68.443,66.25L68.512,69.375L68.58,66.875L68.649,63.75L68.717,63.75L68.786,63.75L68.854,64.375L68.923,65L68.991,65.625L69.059,66.25L69.128,66.875L69.196,62.5L69.265,62.5L69.333,64.375L69.402,68.125L69.47,70L69.607,71.25L69.675,71.25L69.744,72.5L69.812,74.375L69.881,73.125L69.949,73.125L70.018,77.5L70.086,80.625L70.155,79.375L70.223,78.125L70.291,78.75L70.36,79.375L70.428,81.875L70.497,79.375L70.565,76.875L70.634,75L70.702,76.25L70.771,74.375L70.839,77.5L70.907,76.25L70.976,76.875L71.044,78.125L71.116,76.875L71.184,74.375L71.253,73.75L71.321,76.875L71.389,77.5L71.458,77.5L71.526,77.5L71.595,76.875L71.663,77.5L71.732,75L71.8,75L71.869,75L71.937,75.625L72.005,72.5L72.074,72.5L72.142,70.625L72.211,72.5L72.279,74.375L72.348,73.75L72.416,72.5L72.485,72.5L72.553,73.75L72.621,76.25L72.69,79.375L72.758,81.875L72.827,85.625L72.895,85L72.964,86.25L73.032,88.125L73.101,86.875L73.169,85.625L73.238,86.875L73.306,86.875L73.374,87.5L73.443,85L73.511,86.25L73.58,83.75L73.648,85L73.717,86.25L73.785,88.75L73.854,89.375L73.922,88.75L73.99,88.75L74.059,90L74.127,89.375L74.196,91.25L74.264,91.25L74.333,90.625L74.401,91.875L74.47,91.875L74.538,91.875L74.606,92.5L74.675,91.875L74.743,92.5L74.812,92.5L74.88,90L74.949,88.125L75.017,88.125L75.086,88.125L75.154,89.375L75.222,91.875L75.359,90.625L75.428,90.625L75.496,87.5L75.565,88.125L75.633,83.75L75.702,85L75.77,84.375L75.838,82.5L75.907,82.5L75.975,81.25L76.044,80L76.112,80.625L76.181,82.5L76.249,81.25L76.318,81.25L76.386,81.875L76.454,81.875L76.523,80L76.591,80.625L76.66,79.375L76.728,78.75L76.797,78.125L76.865,73.75L76.934,74.375L77.002,76.875L77.07,78.75L77.139,77.5L77.207,75L77.276,75.625L77.344,73.75L77.413,76.25L77.481,75.625L77.55,80L77.618,81.25L77.687,85L77.755,83.75L77.823,85L77.892,85.625L77.96,79.375L78.029,79.375L78.097,80.625L78.166,81.25L78.234,78.75L78.303,78.125L78.371,78.125L78.439,78.75L78.508,78.75L78.576,81.25L78.645,81.875L78.713,82.5L78.782,81.875L78.85,80.625L78.919,83.125L78.987,82.5L79.055,82.5L79.124,82.5L79.192,82.5L79.261,82.5L79.329,80L79.398,81.875L79.466,81.25L79.535,82.5L79.603,81.25L79.671,80L79.737,80L79.805,80.625L79.874,79.375L79.942,78.125L80.011,83.75L80.079,84.375L80.148,84.375L80.216,82.5L80.285,82.5L80.353,81.25L80.422,79.375L80.49,80L80.558,78.125L80.627,77.5L80.695,76.25L80.764,75L80.832,75L80.901,77.5L80.969,77.5L81.038,78.75L81.106,78.75L81.174,75L81.243,75.625L81.311,76.875L81.38,78.75L81.448,78.75L81.517,78.125L81.585,76.875L81.654,74.375L81.722,75.625L81.79,71.875L81.859,73.75L81.927,72.5L81.996,73.75L82.064,73.125L82.133,72.5L82.201,70L82.27,68.75L82.338,70.625L82.406,72.5L82.475,72.5L82.543,70L82.68,71.25L82.749,69.375L82.817,68.75L82.886,70.625L82.954,69.375L83.022,66.25L83.091,66.875L83.159,62.5L83.228,61.875L83.296,64.375L83.365,64.375L83.433,58.75L83.502,56.25L83.57,51.25L83.638,51.25L83.707,45.625L83.775,43.75L83.844,42.5L83.912,41.25L83.981,38.75L84.049,36.875L84.118,36.25L84.255,33.125L84.323,35L84.391,31.875L84.46,30.625L84.528,29.375L84.597,28.125L84.665,28.125L84.734,29.375L84.802,28.125L84.871,25.625L84.939,24.375L85.007,20.625L85.076,18.75L85.144,18.75L85.213,11.875L85.281,7.5L85.35,6.875L85.418,5L85.487,3.125L85.555,7.5L85.623,8.75L85.692,11.25L85.76,10L85.829,15L85.897,20L85.966,19.375L86.034,23.75L86.103,21.875L86.171,23.75L86.239,21.25L86.308,25.625L86.445,24.375L86.513,31.25L86.582,35L86.65,37.5L86.719,38.75L86.787,38.125L86.855,35.625L86.924,36.875L86.992,40L87.061,43.125L87.129,45.625L87.266,50L87.335,51.25L87.403,56.25L87.471,62.5L87.54,62.5L87.677,66.25L87.814,68.125L87.882,70L87.951,68.125L88.019,68.75L88.087,66.25L88.156,66.875L88.224,66.25L88.293,65.625L88.361,64.375L88.43,66.875L88.498,64.375L88.567,65L88.635,63.75L88.704,63.75L88.772,55.625L88.84,52.5L88.909,50L88.977,49.375L89.046,50.625L89.114,52.5L89.183,52.5L89.251,51.25L89.32,45.625L89.388,41.25L89.456,36.25L89.525,36.875L89.593,38.75L89.662,38.75L89.73,38.75L89.799,36.25L89.867,35L89.936,35L90.004,36.875L90.072,32.5L90.141,32.5L90.209,28.75L90.278,24.375L90.346,23.75L90.415,25L90.483,25L90.552,28.125L90.62,24.375L90.757,24.375L90.825,21.25L90.894,25L90.962,27.5L91.031,27.5L91.099,28.125L91.168,23.75L91.236,22.5L91.304,17.5L91.373,14.375L91.441,16.875L91.51,21.25L91.578,26.25L91.647,24.375L91.715,23.75L91.784,24.375L91.852,24.375L91.92,23.125L91.989,25L92.057,25L92.126,23.125L92.194,27.5L92.263,28.75L92.331,31.25L92.4,33.75L92.468,36.875L92.537,37.5L92.605,38.125L92.673,36.25L92.742,38.125L92.81,37.5L92.879,39.375L92.947,41.875L93.016,43.125L93.084,43.75L93.153,42.5L93.221,42.5L93.289,38.75L93.358,40L93.426,41.25L93.495,44.375L93.563,43.75L93.632,41.875L93.7,43.125L93.769,41.25L93.837,43.125L93.905,42.5L93.974,46.25L94.042,41.875L94.111,40L94.179,38.125L94.248,36.875L94.316,38.125L94.385,38.75L94.453,40.625L94.521,35L94.59,36.25L94.658,31.25L94.727,29.375L94.795,31.875L94.864,33.125L94.932,35L95.001,36.875L95.069,31.875L95.137,31.25L95.206,31.875L95.274,36.875L95.343,41.25L95.411,45.625L95.48,48.75L95.548,42.5L95.617,41.25L95.685,43.75L95.753,45L95.822,47.5L95.89,46.25L95.959,47.5L96.03,44.375L96.099,48.125L96.167,50.625L96.235,52.5L96.304,54.375L96.372,56.25L96.441,58.125L96.509,52.5L96.578,56.875L96.646,53.75L96.715,54.375L96.783,58.125L96.851,60.625L96.92,60.625L96.988,55L97.057,52.5L97.125,54.375L97.194,54.375L97.262,56.25L97.331,56.25L97.399,58.75L97.467,58.75L97.536,58.75L97.604,65L97.673,68.125L97.741,67.5L97.81,67.5L97.878,65L97.947,63.75L98.015,63.125L98.084,65L98.152,63.125L98.22,61.875L98.289,61.25L98.357,60.625L98.426,60.625L98.494,55.625L98.563,59.375L98.631,60.625L98.7,62.5L98.768,66.25L98.836,68.125L98.905,65.625L98.973,64.375L99.042,69.375L99.11,71.25L99.179,73.125L99.247,75L99.316,71.875L99.384,69.375L99.452,63.75L99.589,61.875L99.658,64.375L99.726,63.75L99.795,62.5L99.863,61.25L99.932,60.625L100,63.125L100.068,64.375L100.137,66.25L100.205,67.5L100.274,64.375L100.342,64.375L100.411,65L100.479,65L100.548,62.5L100.616,68.125L100.684,70.625L100.753,71.25L100.821,71.25L100.89,73.125L100.958,70L101.027,73.125L101.095,75.625L101.164,76.875L101.232,75L101.3,73.75L101.369,71.25L101.437,71.25L101.506,72.5L101.574,78.125L101.643,80.625L101.711,76.25L101.78,76.875L101.848,76.875L101.916,77.5L101.985,78.75L102.053,80L102.122,81.25L102.19,81.25L102.259,81.25L102.327,87.5L102.396,86.875L102.464,90L102.533,92.5L102.601,93.75L102.669,91.875L102.738,90.625L102.806,89.375L102.875,90L102.943,89.375L103.012,90.625L103.08,88.75L103.149,88.75L103.217,88.75L103.285,90.625L103.354,92.5L103.422,95.625L103.491,99.375L103.559,98.75L103.628,98.75L103.696,96.875L103.765,99.375L103.833,98.125L103.901,99.375L103.97,100.625L104.038,100.625L104.107,100L104.175,99.375L104.244,100L104.312,100L104.381,99.375L104.586,101.25L104.651,101.875L104.72,101.25L104.788,101.875L104.857,102.5L104.925,102.5L104.994,103.125L105.062,103.75L105.131,103.125L105.199,104.375L105.268,104.375L105.336,104.375L105.404,105L105.473,103.75L105.541,103.75L105.61,103.125L105.678,101.875L105.747,104.375L105.815,102.5L105.884,103.125L105.952,104.375L106.02,106.25L106.089,106.25L106.157,105L106.226,105L106.294,103.125L106.363,103.75L106.431,103.125L106.5,101.875L106.636,102.5L106.705,103.125L106.773,103.125L106.842,102.5L106.91,100.625L106.979,100L107.116,97.5L107.184,96.875L107.252,94.375L107.389,94.375L107.458,94.375L107.526,93.125L107.595,90.625L107.663,87.5L107.732,88.75L107.8,88.75L107.868,86.25L107.937,82.5L108.005,81.25L108.074,82.5L108.142,82.5L108.211,81.25L108.279,80L108.348,78.125L108.416,78.75L108.484,76.25L108.553,76.25L108.621,76.875L108.69,75.625L108.758,73.125L108.895,72.5L108.964,68.125L109.032,66.25L109.101,66.25L109.169,68.125L109.237,67.5L109.306,66.25L109.443,58.125L109.511,53.125L109.58,53.75L109.648,53.125L109.717,54.375L109.785,55.625L109.853,58.125L109.922,55.625L109.99,52.5L110.127,50L110.196,55L110.264,55L110.333,53.125L110.401,54.375L110.469,53.75L110.538,53.125L110.606,55L110.675,54.375L110.743,55L110.812,55L110.88,53.125L110.949,52.5L111.017,55.625L111.085,56.875L111.154,59.375L111.222,60.625L111.291,60L111.359,60.625L111.428,61.875L111.496,66.25L111.565,73.75L111.633,79.375L111.701,78.75L111.77,78.75L111.838,78.75L111.907,78.125L111.975,78.125L112.044,80L112.112,83.75L112.181,88.125L112.249,86.875L112.317,87.5L112.386,88.125L112.454,86.875L112.523,88.125L112.591,89.375L112.66,90L112.728,90L112.797,88.75L112.865,90.625L112.933,91.875L113.002,94.375L113.07,94.375L113.139,91.875L113.207,92.5L113.276,91.875L113.344,91.25L113.413,92.5L113.481,93.125L113.55,93.75L113.618,93.75L113.686,93.75L113.755,90L113.823,89.375L113.892,88.125L113.96,90.625L114.029,90.625L114.097,90L114.166,86.875L114.234,85L114.302,84.375L114.371,82.5L114.508,83.125L114.576,85L114.645,83.125L114.713,80.625L114.782,76.875L114.85,76.25L114.918,76.25L114.987,76.25L115.055,76.875L115.124,75.625L115.192,72.5L115.261,73.125L115.329,73.125L115.398,72.5L115.466,75L115.534,74.375L115.603,71.25L115.671,65.625L115.74,66.25L115.808,64.375L115.877,69.375L115.945,71.25L116.014,72.5L116.082,68.125L116.15,67.5L116.219,68.75L116.287,68.125L116.356,69.375L116.424,71.25L116.493,73.75L116.561,72.5L116.63,71.875L116.698,71.25L116.766,73.125L116.835,75.625L116.903,76.875L116.972,79.375L117.04,79.375L117.109,75L117.177,74.375L117.246,75L117.314,75.625L117.383,76.25L117.451,76.875L117.519,76.25L117.588,75L117.656,75L117.725,77.5L117.793,76.25L117.862,79.375L117.93,78.75L117.999,76.875L118.067,77.5L118.135,80L118.204,78.75L118.272,79.375L118.341,83.125L118.409,84.375L118.478,83.75L118.546,80.625L118.615,80.625L118.683,80L118.751,83.125L118.82,83.75L118.888,83.125L118.957,82.5L119.025,81.25L119.094,78.125L119.162,79.375L119.231,79.375L119.299,80.625L119.367,80.625L119.436,77.5L119.504,76.875L119.573,75L119.641,73.125L119.71,76.875L119.778,80L119.847,77.5L119.915,75.625L119.983,72.5L120.052,72.5L120.12,71.25L120.189,71.25L120.257,72.5L120.326,70L120.394,64.375L120.463,63.125L120.531,63.75L120.599,64.375L120.668,65.625L120.736,64.375L120.805,65L120.873,65L120.945,66.25L121.013,66.875L121.081,68.125L121.15,69.375L121.218,71.25L121.287,72.5L121.424,72.5L121.492,72.5L121.561,75L121.629,75.625L121.697,75L121.766,77.5L121.834,76.875L121.903,76.875L121.971,80L122.04,81.875L122.108,83.75L122.177,83.75L122.245,86.25L122.313,86.875L122.382,86.875L122.45,89.375L122.519,95L122.587,96.875L122.656,96.875L122.724,99.375L122.793,98.125L122.861,95.625L122.93,93.75L122.998,93.125L123.066,91.875L123.272,89.375L123.34,87.5L123.409,87.5L123.477,86.25L123.546,86.25L123.614,86.875L123.682,88.125L123.819,85.625L123.888,83.75L123.956,84.375L124.093,82.5L124.23,79.375L124.298,77.5L124.367,79.375L124.435,76.875L124.504,76.875L124.641,75.625L124.709,75.625L124.778,75L124.914,75.625L124.983,75.625L125.051,75L125.188,70.625L125.257,65.625L125.325,62.5L125.394,63.75L125.462,68.75L125.53,65L125.667,65L125.736,63.75L125.804,66.25L125.873,66.25L125.941,66.875L126.01,68.75L126.078,68.75L126.146,67.5L126.215,62.5L126.283,65L126.352,65L126.42,67.5L126.489,69.375L126.557,71.875L126.626,72.5L126.694,72.5L126.762,73.75L126.831,75.625L126.899,78.75L126.968,76.25L127.105,78.125L127.173,78.75L127.242,78.75L127.31,79.375L127.379,83.125L127.447,87.5L127.515,90L127.584,89.375L127.652,88.125L127.721,93.125L127.789,93.125L127.858,94.375L127.926,94.375L127.995,96.875L128.063,98.125L128.131,95.625L128.2,93.75L128.268,95L128.337,98.75L128.405,98.75L128.474,101.875L128.542,99.375L128.611,100L128.679,100L128.747,100.625L128.816,101.25L128.953,103.125L129.021,100L129.09,97.5L129.158,98.75L129.227,96.875L129.295,95.625L129.363,94.375L129.5,93.75L129.569,92.5L129.637,91.875L129.706,89.375L129.774,91.25L129.911,89.375L130.114,90L130.182,90.625L130.25,89.375L130.387,88.125L130.524,86.875L130.593,83.125L130.661,83.75L130.73,86.25L130.798,87.5L130.866,83.125L130.935,82.5L131.003,80L131.072,82.5L131.14,82.5L131.209,83.125L131.277,84.375L131.346,83.75L131.414,81.25L131.482,83.125L131.551,84.375L131.619,83.75L131.688,84.375L131.756,85.625L131.825,85.625L131.893,82.5L132.03,80L132.098,81.25L132.167,83.75L132.235,81.875L132.304,82.5L132.372,81.25L132.441,78.75L132.509,81.875L132.578,82.5L132.646,83.75L132.714,87.5L132.783,89.375L132.851,85.625L132.92,83.125L132.988,88.125L133.057,90L133.125,86.875L133.194,86.25L133.262,85.625L133.33,85L133.399,83.75L133.467,81.25L133.536,83.75L133.604,80.625L133.673,81.25L133.741,81.25L133.878,82.5L133.946,81.25L134.083,81.25L134.152,78.125L134.22,80.625L134.289,78.125L134.357,76.875L134.426,76.875L134.494,78.125L134.563,78.75L134.631,79.375L134.699,77.5L134.768,72.5L134.836,71.875L134.905,72.5L134.973,68.75L135.042,70L135.11,70.625L135.247,70.625L135.384,70L135.452,73.75L135.521,73.125L135.589,72.5L135.658,73.125L135.795,74.375L135.863,76.25L135.931,76.25L136,77.5L136.068,78.125L136.137,78.125L136.205,75.625L136.274,75.625L136.342,75L136.411,80.625L136.479,81.25L136.547,83.125L136.616,83.125L136.753,80.625L136.821,80L136.89,80.625L136.958,81.875L137.027,83.125L137.095,88.75L137.163,88.125L137.232,87.5L137.3,91.25L137.369,92.5L137.437,92.5L137.506,90.625L137.574,90.625L137.711,91.875L137.779,93.125L137.848,95L137.916,94.375L137.985,91.25L138.053,88.75L138.122,88.75L138.19,91.25L138.259,90L138.327,91.875L138.464,92.5L138.532,93.125L138.669,95L138.738,95.625L138.806,96.25L138.875,93.75L138.943,95L139.012,98.75L139.08,98.75L139.148,95.625L139.217,94.375L139.285,95L139.354,91.875L139.422,90.625L139.491,90.625L139.628,88.125L139.696,86.875L139.833,88.125L139.901,89.375L140.038,90L140.107,90.625L140.175,90.625L140.244,88.75L140.312,88.125L140.38,90.625L140.449,91.25L140.517,90.625L140.586,87.5L140.654,88.125L140.723,86.875L140.791,86.875L140.86,84.375L140.996,81.25L141.065,81.25L141.133,80L141.202,81.25L141.27,82.5L141.339,81.875L141.407,81.875L141.476,83.125L141.544,85L141.612,80.625L141.681,83.75L141.749,85.625L141.818,83.125L141.886,86.25L142.023,88.125L142.092,87.5L142.16,87.5L142.228,84.375L142.297,82.5L142.365,81.875L142.434,83.75L142.502,83.125L142.571,83.75L142.639,86.875L142.708,84.375L142.776,86.25L142.845,84.375L142.913,85.625L142.981,85.625L143.05,88.75L143.118,91.875L143.187,91.25L143.255,92.5L143.324,93.75L143.392,92.5L143.461,93.125L143.529,93.75L143.597,95.625L143.666,95.625L143.734,98.75L143.803,98.75L143.94,98.125L144.008,95L144.077,91.25L144.145,88.125L144.213,87.5L144.282,86.875L144.419,90L144.487,88.75L144.556,89.375L144.624,88.75L144.693,90.625L144.829,90.625L144.898,90.625L144.966,93.125L145.035,92.5L145.103,93.125L145.172,92.5L145.24,94.375L145.309,94.375L145.377,93.75L145.514,94.375L145.651,93.125L145.719,91.25L145.856,91.25L145.925,91.25L145.993,92.5L146.061,91.25L146.13,91.875L146.267,93.125L146.338,92.5L146.407,88.75L146.475,95L146.543,97.5L146.612,100L146.68,101.875L146.749,102.5L146.817,102.5L146.886,105.625L146.954,105L147.023,105.625L147.091,106.25L147.159,106.25L147.228,105.625L147.296,106.25L147.365,108.75L147.433,110L147.57,110.625L147.639,109.375L147.707,109.375L147.775,110L147.844,110.625L147.912,112.5L147.981,114.375L148.049,115.625L148.186,115.625L148.255,112.5L148.323,113.125L148.392,111.875L148.46,111.25L148.528,111.25L148.597,115L148.665,115L148.734,115L148.802,115.625L148.871,106.25L148.939,106.25L149.144,106.25L149.213,105.625L149.281,105.625L149.487,105.625L149.692,103.125L149.76,98.75L149.829,99.375L149.897,98.75L149.966,96.875L150.103,96.875L150.171,96.25L150.308,96.875L150.376,96.25L150.513,96.25L150.582,95L150.65,93.75L150.719,93.125L150.787,93.125L150.856,93.125L150.924,96.25L151.061,96.25L151.129,96.25L151.198,96.25L151.266,96.25L151.335,95L151.472,94.375L151.608,95.625L151.677,94.375L151.814,101.875L151.882,102.5L152.088,102.5L152.156,101.875L152.225,102.5L152.293,102.5L152.361,101.875L152.43,103.125L152.567,101.25L152.635,100.625L152.704,101.25L152.772,101.875L152.841,102.5L152.909,101.875L153.046,101.875L153.114,100.625L153.183,101.875L153.32,101.25L153.525,101.875L153.662,101.25L153.799,100L154.004,98.75L154.073,97.5L154.141,97.5L154.209,95L154.278,96.25L154.346,96.875L154.415,95L154.483,94.375L154.552,96.25L154.62,98.125L154.689,97.5L154.757,97.5L154.825,98.75L154.894,97.5L154.96,97.5L155.028,99.375L155.096,101.25L155.165,101.875L155.233,101.875L155.302,100.625L155.37,100L155.439,100L155.507,100.625L155.576,100.625L155.644,100L155.712,98.75L155.781,99.375L155.849,98.75L155.918,97.5L155.986,99.375L156.055,100.625L156.123,101.875L156.192,102.5L156.26,104.375L156.397,98.125L156.465,96.875L156.534,98.75L156.602,97.5L156.671,96.875L156.876,96.25L156.944,95.625L157.013,95L157.081,91.875L157.15,92.5L157.355,90.625L157.424,91.25L157.492,90.625L157.56,89.375L157.629,90L157.697,91.25L157.766,91.875L157.971,90.625L158.04,90L158.108,90.625L158.176,89.375L158.313,89.375L158.382,89.375L158.519,90L158.587,88.75L158.656,87.5L158.792,84.375L158.861,84.375L158.929,85L158.998,86.25L159.066,89.375L159.135,90.625L159.203,90.625L159.272,92.5L159.34,91.25L159.409,90.625L159.477,91.875L159.545,89.375L159.614,91.875L159.751,91.25L159.819,90.625L159.888,90L159.956,86.875L160.025,89.375L160.093,88.125L160.161,89.375L160.298,88.75L160.367,89.375L160.435,88.75L160.504,88.75L160.572,91.25L160.641,89.375L160.709,90.625L160.846,87.5L160.914,90.625L160.983,91.875L161.051,93.75L161.12,93.125L161.188,93.125L161.257,93.125L161.325,93.75L161.462,95L161.599,91.875L161.667,91.25L161.736,93.125L161.804,94.375L161.873,91.875L161.941,93.125L162.146,90.625L162.215,91.875L162.283,92.5L162.352,92.5L162.42,95L162.489,95L162.557,95L162.625,91.875L162.694,92.5L162.762,92.5L162.899,94.375L163.036,94.375L163.105,95L163.173,97.5L163.242,97.5L163.31,99.375L163.378,97.5L163.447,95.625L163.515,96.875L163.584,98.125L163.652,96.875L163.721,93.75L163.789,93.75L163.858,92.5L163.926,93.75L163.994,94.375L164.063,93.75L164.131,91.875L164.2,94.375L164.337,92.5L164.405,95.625L164.474,94.375L164.542,96.25L164.61,97.5L164.679,98.75L164.747,97.5L164.816,98.75L165.021,101.875L165.09,101.25L165.158,101.875L165.363,100.625L165.432,99.375L165.5,97.5L165.569,96.875L165.637,96.25L165.706,95L165.774,95.625L165.842,95.625L165.911,93.75L165.979,92.5L166.048,92.5L166.116,94.375L166.185,93.125L166.253,93.75L166.322,95L166.39,92.5L166.458,93.125L166.527,91.875L166.595,92.5L166.664,92.5L166.732,87.5L166.869,88.125L167.006,88.125L167.074,86.875L167.143,86.875L167.211,87.5L167.28,85.625L167.417,84.375L167.485,84.375L167.554,81.875L167.622,79.375L167.691,80.625L167.759,81.875L167.827,82.5L167.896,82.5L167.964,84.375L168.033,84.375L168.101,84.375L168.17,85L168.238,83.75L168.375,85L168.443,86.25L168.512,86.25L168.58,84.375L168.649,83.75L168.854,83.75L168.923,81.25L168.991,83.75L169.059,81.875L169.128,81.875L169.196,85L169.265,84.375L169.333,84.375L169.402,83.75L169.47,83.125L169.539,83.75L169.675,83.75L169.744,81.875L169.812,80.625L169.881,83.125L169.949,85.625L170.018,84.375L170.086,81.875L170.155,81.25L170.291,81.875L170.36,83.125L170.428,83.75L170.497,83.75L170.565,85L170.634,86.25L170.702,85L170.771,85L170.839,88.125L170.907,90L170.976,90L171.044,91.875L171.113,93.75L171.181,93.125L171.253,94.375L171.321,96.25L171.458,97.5L171.526,98.75L171.595,96.875L171.732,98.125L171.8,97.5L171.869,96.875L171.937,99.375L172.005,101.875L172.074,103.75L172.142,103.75L172.211,105L172.279,105.625L172.348,108.125L172.553,107.5L172.621,106.875L172.69,105.625L172.758,105.625L172.827,106.875L172.895,106.875L172.964,107.5L173.101,107.5L173.169,105.625L173.238,106.25L173.306,105L173.443,106.875L173.511,107.5L173.648,107.5L173.717,103.75L173.785,104.375L173.854,106.25L174.059,106.875L174.127,106.875L174.196,108.125L174.264,107.5L174.333,110L174.401,110.625L174.606,110.625L174.675,110.625L174.743,110L174.812,109.375L174.88,109.375L175.017,106.25L175.154,105L175.222,105.625L175.291,105.625L175.359,105.625L175.428,106.25L175.496,106.25L175.633,106.25L175.702,105L175.838,106.25L175.975,105.625L176.044,105L176.112,106.25L176.181,106.25L176.249,105.625L176.591,106.25L176.66,109.375L176.728,109.375L176.797,107.5L176.865,105L176.934,105L177.139,104.375L177.207,105L177.276,103.125L177.344,101.875L177.413,100.625L177.481,100.625L177.55,101.25L177.618,101.875L177.687,101.875L177.755,103.125L177.892,104.375L177.96,104.375L178.029,105L178.097,105L178.166,105L178.234,105.625L178.303,105L178.371,105L178.508,105L178.713,104.375L178.782,103.75L178.85,102.5L178.919,100L178.987,100L179.055,100L179.124,100L179.192,96.25L179.261,96.875L179.329,99.375L179.398,96.875L179.466,97.5L179.535,98.125L179.603,96.875L179.671,96.875L179.74,95.625L179.808,95L179.942,94.375L180.011,92.5L180.079,90.625L180.148,92.5L180.216,90.625L180.285,91.25L180.353,91.25L180.422,89.375L180.49,88.75L180.558,86.875L180.764,85.625L180.832,87.5L180.901,86.875L180.969,90L181.038,91.25L181.106,93.125L181.174,93.75L181.311,93.75L181.38,91.875L181.448,91.25L181.517,93.75L181.585,90.625L181.654,86.25L181.79,87.5L181.859,88.125L181.927,86.875L181.996,88.125L182.064,87.5L182.133,86.25L182.27,84.375L182.338,83.75L182.406,85L182.475,86.25L182.543,85L182.612,86.25L182.68,84.375L182.749,82.5L182.817,85L182.886,85L182.954,85L183.022,86.875L183.159,82.5L183.228,81.875L183.296,80.625L183.365,78.75L183.433,76.875L183.502,78.75L183.57,76.875L183.707,75.625L183.775,76.875L183.844,78.125L183.912,81.875L183.981,86.25L184.049,86.25L184.118,85L184.186,82.5L184.255,81.875L184.323,82.5L184.391,85.625L184.46,88.125L184.528,83.75L184.597,80.625L184.665,78.125L184.734,78.75L184.802,78.75L184.871,78.75L184.939,80.625L185.007,80L185.076,78.125L185.144,80L185.213,80L185.281,83.75L185.35,83.125L185.418,83.125L185.487,84.375L185.555,86.25L185.623,85.625L185.692,87.5L185.76,88.75L185.829,88.125L185.966,88.125L186.034,88.75L186.103,88.75L186.171,88.75L186.239,90L186.308,92.5L186.445,94.375L186.513,95.625L186.582,95.625L186.65,94.375L186.719,99.375L186.787,101.875L186.924,103.125L186.992,102.5L187.061,100.625L187.129,101.875L187.198,100.625L187.335,101.25L187.471,103.125L187.54,99.375L187.608,93.75L187.677,93.75L187.745,95.625L187.814,96.25L187.882,95.625L187.951,95L188.019,94.375L188.087,93.75L188.156,91.25L188.224,91.875L188.293,90L188.361,89.375L188.43,88.75L188.498,90L188.567,86.875L188.635,85L188.704,83.125L188.772,81.875L188.84,81.875L188.909,81.875L188.977,82.5L189.046,82.5L189.114,82.5L189.183,84.375L189.251,85.625L189.32,85.625L189.456,86.25L189.525,86.875L189.593,87.5L189.662,88.75L189.73,93.125L189.799,92.5L189.867,92.5L190.072,92.5L190.209,93.125L190.278,91.875L190.346,92.5L190.415,91.25L190.483,93.75L190.552,95L190.62,95.625L190.688,93.75L190.825,91.25L190.894,90.625L190.962,90.625L191.031,93.75L191.099,95.625L191.168,94.375L191.236,95L191.304,96.875L191.373,96.875L191.441,95L191.51,95.625L191.578,93.75L191.647,93.125L191.784,93.75L191.852,93.75L191.92,93.125L191.989,93.125L192.057,95L192.126,96.25L192.263,94.375L192.331,94.375L192.4,94.375L192.468,95L192.537,95.625L192.605,95.625L192.673,96.875L192.742,98.125L192.81,97.5L192.879,98.75L192.947,100.625L193.016,102.5L193.084,100.625L193.153,103.75L193.221,100.625L193.426,98.75L193.495,100.625L193.563,99.375L193.7,98.75L193.769,97.5L193.837,99.375L193.905,99.375L193.974,98.75L194.042,100.625L194.111,100.625L194.179,99.375L194.248,98.125L194.316,98.125L194.385,96.875L194.453,96.875L194.521,100L194.59,98.75L194.658,98.75L194.727,95L194.795,95L194.864,95L194.932,95L195.001,95L195.069,94.375L195.137,94.375L195.206,95L195.274,96.25L195.343,96.875L195.411,93.75L195.48,96.25L195.548,98.125L195.617,98.125L195.685,97.5L195.753,95.625L195.822,95.625L195.89,96.875L195.959,96.875L196.027,98.75L196.096,98.75L196.167,99.375L196.235,98.75L196.304,98.75L196.372,98.75L196.441,100L196.509,99.375L196.646,99.375L196.715,98.75L196.783,97.5L196.851,100.625L196.92,101.875L196.988,102.5L197.057,103.75L197.262,103.125L197.331,103.125L197.399,102.5L197.604,102.5L197.741,101.25L197.81,101.875L197.878,101.875L197.947,102.5L198.084,101.875L198.152,98.125L198.22,100L198.289,101.25L198.357,100.625L198.426,99.375L198.494,98.75L198.563,99.375L198.631,99.375L198.7,98.125L198.836,97.5L198.905,99.375L198.973,98.75L199.042,99.375L199.179,100L199.247,99.375L199.316,100.625L199.384,100.625L199.452,98.75L199.589,98.75L199.658,98.75L199.726,98.75L200.068,99.375L200.137,100.625L200.205,100L200.274,100L200.479,101.25L200.548,101.25L200.616,101.25L200.684,98.125L200.753,97.5L200.958,101.25L201.027,99.375L201.095,99.375L201.164,100L201.232,101.25L201.3,102.5L201.369,100L201.437,100.625L201.506,98.125L201.574,101.25L201.643,99.375" stroke="#4c78a8" stroke-width="2"/></g><g class="mark-group role-title"><g transform="translate(100,-22)"><path class="background" aria-hidden="true" d="M0,0h0v0h0Z" pointer-events="none"/><g><g class="mark-text role-title-text" role="graphics-symbol" aria-roledescription="title" aria-label="Title text 'Hazardous Materials: Chemical Odor (HD1)'" pointer-events="none"><text text-anchor="middle" transform="translate(0,10)" font-family="sans-serif" font-size="13px" font-weight="bold" fill="#000" opacity="1">Hazardous Materials: Chemical Odor (HD1)</text></g></g><path class="foreground" aria-hidden="true" d="" pointer-events="none" display="none"/></g></g></g><path class="foreground" aria-hidden="true" d="" display="none"/></g></g></g><defs><clipPath id="clip158"><rect x="0" y="0" width="200" height="150"/></clipPath></defs></svg>