<svg xmlns="http://www.w3.org/2000/svg" xmlns:xlink="http://www.w3.org/1999/xlink" version="1.1" class="marks" width="398" height="199" viewBox="0 0 398 199"><rect width="398" height="199" fill="white"/><g fill="none" stroke-miterlimit="10" transform="translate(99,27)"><g class="mark-group role-frame root" role="graphics-object" aria-roledescription="group mark container"><g transform="translate(0,0)"><path class="background" aria-hidden="true" d="M0,0h200v150h-200Z"/><g><g class="mark-group role-axis" aria-hidden="true"><g transform="translate(0.5,0.5)"><path class="background" aria-hidden="true" d="M0,0h0v0h0Z" pointer-events="none"/><g><g class="mark-rule role-axis-grid" pointer-events="none"><line transform="translate(0,150)" x2="200" y2="0" stroke="#ddd" stroke-width="1" opacity="1"/><line transform="translate(0,113)" x2="200" y2="0" stroke="#ddd" stroke-width="1" opacity="1"/><line transform="translate(0,75)" x2="200" y2="0" stroke="#ddd" stroke-width="1" opacity="1"/><line transform="translate(0,38)" x2="200" y2="0" stroke="#ddd" stroke-width="1" opacity="1"/><line transform="translate(0,0)" x2="200" y2="0" stroke="#ddd" stroke-width="1" opacity="1"/></g></g><path class="foreground" aria-hidden="true" d="" pointer-events="none" display="none"/></g></g><g class="mark-group role-axis" role="graphics-symbol" aria-roledescription="axis" aria-label="X-axis for a time scale with values from Friday, 01 January 2016, 12:00:00 AM to Monday, 01 January 2024, 12:00:00 AM"><g transform="translate(0.5,150.5)"><path class="background" aria-hidden="true" d="M0,0h0v0h0Z" pointer-events="none"/><g><g class="mark-rule role-axis-tick" pointer-events="none"><line transform="translate(0,0)" x2="0" y2="5" stroke="#888" stroke-width="1" opacity="1"/><line transform="translate(50,0)" x2="0" y2="5" stroke="#888" stroke-width="1" opacity="1"/><line transform="translate(100,0)" x2="0" y2="5" stroke="#888" stroke-width="1" opacity="1"/><line transform="translate(150,0)" x2="0" y2="5" stroke="#888" stroke-width="1" opacity="1"/><line transform="translate(200,0)" x2="0" y2="5" stroke="#888" stroke-width="1" opacity="1"/></g><g class="mark-text role-axis-label" pointer-events="none"><text text-anchor="start" transform="translate(0,15)" font-family="sans-serif" font-size="10px" fill="#000" opacity="1">2016</text><text text-anchor="middle" transform="translate(50.03422313483915,15)" font-family="sans-serif" font-size="10px" fill="#000" opacity="1">2018</text><text text-anchor="middle" transform="translate(100,15)" font-family="sans-serif" font-size="10px" fill="#000" opacity="1">2020</text><text text-anchor="middle" transform="translate(150.03422313483915,15)" font-family="sans-serif" font-size="10px" fill="#000" opacity="1">2022</text><text text-anchor="end" transform="translate(200,15)" font-family="sans-serif" font-size="10px" fill="#000" opacity="1">2024</text></g><g class="mark-rule role-axis-domain" pointer-events="none"><line transform="translate(0,0)" x2="200" y2="0" stroke="#888" stroke-width="1" opacity="1"/></g></g><path class="foreground" aria-hidden="true" d="" pointer-events="none" display="none"/></g></g><g class="mark-group role-axis" role="graphics-symbol" aria-roledescription="axis" aria-label="Y-axis for a linear scale with values from 0 to 80"><g transform="translate(0.5,0.5)"><path class="background" aria-hidden="true" d="M0,0h0v0h0Z" pointer-events="none"/><g><g class="mark-rule role-axis-tick" pointer-events="none"><line transform="translate(0,150)" x2="-5" y2="0" stroke="#888" stroke-opacity="0" stroke-width="1" opacity="1"/><line transform="translate(0,113)" x2="-5" y2="0" stroke="#888" stroke-opacity="0" stroke-width="1" opacity="1"/><line transform="translate(0,75)" x2="-5" y2="0" stroke="#888" stroke-opacity="0" stroke-width="1" opacity="1"/><line transform="translate(0,38)" x2="-5" y2="0" stroke="#888" stroke-opacity="0" stroke-width="1" opacity="1"/><line transform="translate(0,0)" x2="-5" y2="0" stroke="#888" stroke-opacity="0" stroke-width="1" opacity="1"/></g><g class="mark-text role-axis-label" pointer-events="none"><text text-anchor="end" transform="translate(-7,153)" font-family="sans-serif" font-size="10px" fill="#000" opacity="1">0</text><text text-anchor="end" transform="translate(-7,115.5)" font-family="sans-serif" font-size="10px" fill="#000" opacity="1">20</text><text text-anchor="end" transform="translate(-7,78)" font-family="sans-serif" font-size="10px" fill="#000" opacity="1">40</text><text text-anchor="end" transform="translate(-7,40.5)" font-family="sans-serif" font-size="10px" fill="#000" opacity="1">60</text><text text-anchor="end" transform="translate(-7,3)" font-family="sans-serif" font-size="10px" fill="#000" opacity="1">80</text></g></g><path class="foreground" aria-hidden="true" d="" pointer-events="none" display="none"/></g></g><g class="mark-line role-mark marks" clip-path="url(#clip131)" role="graphics-object" aria-roledescription="line mark container"><path aria-label="day: Jan 01, 2010; avg: 55.0333333333" role="graphics-symbol" aria-roledescription="line mark" d="M-149.966,46.813L-149.897,46.875L-149.829,43.937L-149.76,39.063L-149.692,38.875L-149.624,40.438L-149.555,40.75L-149.487,44.125L-149.418,47.75L-149.35,43.937L-149.281,41.25L-149.213,42.438L-149.144,40.125L-149.076,40.313L-149.008,43.563L-148.939,47.625L-148.871,46.813L-148.802,43.688L-148.734,43.437L-148.665,44.563L-148.597,47.188L-148.528,50.813L-148.46,54.625L-148.392,50.938L-148.323,46.375L-148.255,45L-148.186,48.25L-148.118,50.563L-148.049,52.75L-147.981,54.438L-147.912,51.875L-147.844,46.688L-147.775,46.187L-147.707,45.875L-147.639,48.5L-147.57,51.25L-147.502,53.688L-147.433,50.875L-147.365,47.25L-147.296,47L-147.228,47.375L-147.159,47L-147.091,51.5L-147.023,55.25L-146.954,53.188L-146.886,50.625L-146.817,49.187L-146.749,48.25L-146.68,48.063L-146.612,50.813L-146.543,52.938L-146.475,50.5L-146.407,45.75L-146.338,45.688L-146.27,47.625L-146.201,48.875L-146.133,50.938L-146.064,52.188L-145.996,50.063L-145.927,46.937L-145.859,45.438L-145.791,47L-145.722,48.063L-145.654,52.562L-145.585,54L-145.517,51L-145.448,45.938L-145.38,44.25L-145.311,42.875L-145.243,44.188L-145.175,45.938L-145.106,48.5L-145.038,45.375L-144.972,41.5L-144.904,40.187L-144.835,36.063L-144.767,37.25L-144.698,42L-144.63,43.688L-144.561,41.25L-144.493,37.938L-144.424,34.813L-144.356,36L-144.288,38.438L-144.219,40.75L-144.151,43.437L-144.082,40.562L-144.014,37.313L-143.945,35.5L-143.877,35.625L-143.808,37.313L-143.74,39.812L-143.672,42.375L-143.603,39.563L-143.535,36.438L-143.466,36L-143.398,34.438L-143.329,36.375L-143.261,40.75L-143.192,43.625L-143.124,40.5L-143.056,37.125L-142.987,35.688L-142.919,34.813L-142.85,35.188L-142.782,41.75L-142.713,43.75L-142.645,39.75L-142.576,36.125L-142.508,34.062L-142.44,33.312L-142.371,36.688L-142.303,40.25L-142.234,41.438L-142.166,37.938L-142.097,35.25L-142.029,33.438L-141.96,31.187L-141.892,33.688L-141.824,36.063L-141.755,38.688L-141.687,38.937L-141.618,34.75L-141.55,34.938L-141.481,33.688L-141.413,34.625L-141.344,40.813L-141.276,43.25L-141.208,40.75L-141.139,37L-141.071,36.563L-141.002,36.812L-140.934,39.188L-140.865,43.063L-140.797,46.375L-140.728,42.375L-140.66,39.375L-140.591,40.375L-140.523,41.937L-140.455,45.312L-140.386,48.875L-140.318,51.5L-140.249,49L-140.181,46.5L-140.112,47.813L-140.044,48.063L-139.975,51.125L-139.907,56.688L-139.839,58.875L-139.77,55.875L-139.702,53L-139.633,50.25L-139.565,51.875L-139.496,51.5L-139.428,55.562L-139.359,58.813L-139.291,58.125L-139.223,55.313L-139.154,55.688L-139.086,55.813L-139.017,57.375L-138.949,60.188L-138.88,61.937L-138.812,59.063L-138.743,56.625L-138.675,57.125L-138.607,56.875L-138.538,57.313L-138.47,59.125L-138.401,60.938L-138.333,58.688L-138.264,55.562L-138.196,54.75L-138.127,55.188L-138.059,55.375L-137.991,57.687L-137.922,60.625L-137.854,57.375L-137.785,54.375L-137.717,54.625L-137.648,55L-137.58,56.437L-137.511,58.375L-137.443,61.188L-137.375,57.5L-137.306,53L-137.238,50.313L-137.169,51.563L-137.101,51.438L-137.032,54.5L-136.964,57L-136.895,54.125L-136.827,51.25L-136.758,50.813L-136.69,49.875L-136.622,51.063L-136.553,53.375L-136.485,55L-136.416,53.437L-136.348,49.125L-136.279,48.125L-136.211,48.563L-136.142,48.688L-136.074,51.063L-136.006,54.187L-135.937,51.688L-135.869,48L-135.8,47.625L-135.732,47.125L-135.663,48.75L-135.595,50.375L-135.526,52.125L-135.458,48.188L-135.39,44.5L-135.321,44.375L-135.253,45.125L-135.184,46.5L-135.116,47.437L-135.047,50.813L-134.979,50.75L-134.91,47.5L-134.842,47.313L-134.774,47.437L-134.705,48.375L-134.637,51.312L-134.568,52.625L-134.5,50.375L-134.431,46.25L-134.363,46.125L-134.294,46.063L-134.226,47.813L-134.158,49.313L-134.089,52.562L-134.021,50.625L-133.952,47.75L-133.884,47.563L-133.815,46.75L-133.747,44.812L-133.678,47.125L-133.61,47.75L-133.542,45.375L-133.473,41.812L-133.405,41L-133.336,40.125L-133.268,42.188L-133.199,44.875L-133.131,46.75L-133.062,44.812L-132.994,42.25L-132.926,39.563L-132.857,39.687L-132.789,39.5L-132.72,42.687L-132.652,44.688L-132.583,43.75L-132.515,41.188L-132.446,40.5L-132.378,40.313L-132.309,39.063L-132.241,43.875L-132.173,45.562L-132.104,42.438L-132.036,39.812L-131.967,38.937L-131.899,37.875L-131.83,38.375L-131.762,41.75L-131.693,46.063L-131.625,43.063L-131.557,41.75L-131.488,41.5L-131.42,42.875L-131.351,44.812L-131.283,49.813L-131.214,51.75L-131.146,49.625L-131.077,49L-131.009,48.188L-130.941,46.75L-130.872,47.125L-130.804,50.625L-130.735,53.188L-130.667,50.063L-130.598,47.375L-130.53,46.125L-130.461,48.125L-130.393,50.063L-130.325,54.625L-130.256,57.875L-130.188,53.75L-130.119,51.187L-130.051,51.875L-129.982,52.688L-129.914,53.25L-129.845,55.688L-129.777,57.5L-129.709,55L-129.64,52.562L-129.572,53.75L-129.503,56.5L-129.435,58.375L-129.366,59.125L-129.298,61.25L-129.229,58.875L-129.161,55.688L-129.093,55.938L-129.024,52.5L-128.956,53.5L-128.887,56.5L-128.819,58.688L-128.75,55.875L-128.679,54.125L-128.611,54.187L-128.542,55.25L-128.474,55.688L-128.405,57.125L-128.337,59.375L-128.268,57.188L-128.2,54.813L-128.131,55.313L-128.063,56.5L-127.995,56.875L-127.926,58.25L-127.858,61.188L-127.789,59.438L-127.721,57.75L-127.652,59.375L-127.584,61.437L-127.515,64.25L-127.447,64.5L-127.379,66.625L-127.31,68.063L-127.242,69.5L-127.173,71L-127.105,73.437L-127.036,75.875L-126.968,81.063L-126.899,83.875L-126.831,82.5L-126.762,80.813L-126.694,80.063L-126.626,80.313L-126.557,81.813L-126.489,83.313L-126.42,85.438L-126.352,82.188L-126.283,79.438L-126.215,79.25L-126.146,78.75L-126.078,79.625L-126.01,80.938L-125.941,83.938L-125.873,83L-125.804,80.75L-125.736,81.813L-125.667,81.063L-125.599,81.437L-125.53,82.625L-125.462,82.563L-125.394,79.438L-125.325,76.313L-125.257,72.813L-125.188,72L-125.12,71.5L-125.051,72.062L-124.983,72.313L-124.914,69.625L-124.846,67.875L-124.778,67.938L-124.709,68.5L-124.641,69.75L-124.572,71.688L-124.504,73.25L-124.435,71.625L-124.367,70.125L-124.298,70.688L-124.23,70.5L-124.162,70.313L-124.093,73.188L-124.025,75.875L-123.956,73.188L-123.888,70.688L-123.819,69.25L-123.751,68.5L-123.682,67.25L-123.614,69.937L-123.546,70.75L-123.477,70.75L-123.409,67.938L-123.34,69.125L-123.272,69.5L-123.203,71.375L-123.135,72L-123.066,73.437L-122.998,69.875L-122.93,67.062L-122.861,67.563L-122.793,66.625L-122.724,67.188L-122.656,68.312L-122.587,70.5L-122.519,68.625L-122.45,66.187L-122.382,65.813L-122.313,65.063L-122.245,65.063L-122.177,66.938L-122.108,69.875L-122.04,68.563L-121.971,65.25L-121.903,65.5L-121.834,66.75L-121.766,68.063L-121.697,70.75L-121.629,74.063L-121.561,71.063L-121.492,68.375L-121.424,66.063L-121.355,67.313L-121.287,66.438L-121.218,68.063L-121.15,69.25L-121.081,67L-121.013,64.625L-120.945,65.5L-120.876,65.063L-120.808,64.125L-120.739,66.375L-120.671,67.188L-120.602,64.375L-120.534,61.688L-120.465,60.188L-120.397,60.687L-120.329,61.625L-120.26,62.875L-120.192,65.313L-120.123,62.313L-120.058,59.938L-119.989,59.375L-119.921,59.688L-119.852,60.188L-119.784,61.125L-119.715,62.563L-119.647,59.875L-119.578,55L-119.51,55.875L-119.442,56.563L-119.373,57.687L-119.305,59.438L-119.236,61.188L-119.168,56.812L-119.099,54.687L-119.031,52.375L-118.962,49.875L-118.894,50.188L-118.826,52.812L-118.757,54.687L-118.689,52.313L-118.62,50.063L-118.552,50.563L-118.483,50.25L-118.415,52.5L-118.346,54.313L-118.278,56.437L-118.21,54L-118.141,51.813L-118.073,53.75L-118.004,52.313L-117.936,52.062L-117.867,54.75L-117.799,56.625L-117.73,53.875L-117.662,51.312L-117.594,50.875L-117.525,51.438L-117.457,51.813L-117.388,53.188L-117.32,54.75L-117.251,51.438L-117.183,46.125L-117.114,48.813L-117.046,48.938L-116.978,50.563L-116.909,55L-116.841,58.375L-116.772,58.313L-116.704,55.562L-116.635,55.313L-116.567,55.063L-116.498,53.813L-116.43,55.938L-116.362,56.875L-116.293,53.25L-116.225,49.813L-116.156,48.563L-116.088,47.75L-116.019,46.625L-115.951,49.5L-115.882,51.5L-115.814,46.937L-115.745,42.875L-115.677,42.188L-115.609,42.188L-115.54,43.063L-115.472,46.438L-115.403,48.688L-115.335,45L-115.266,41L-115.198,41.438L-115.129,43.688L-115.061,42.813L-114.993,44.438L-114.924,47.125L-114.856,42.687L-114.787,39.063L-114.719,35.25L-114.65,35.313L-114.582,35.313L-114.513,37.375L-114.445,41.937L-114.377,41.5L-114.308,39.375L-114.24,38.875L-114.171,38.25L-114.103,39L-114.034,42.125L-113.966,44.812L-113.897,42.125L-113.829,39.063L-113.761,39.938L-113.692,40.875L-113.624,42.5L-113.555,45.063L-113.487,47.563L-113.418,45.125L-113.35,41.75L-113.281,42.75L-113.213,44.563L-113.145,45.312L-113.076,49.125L-113.008,52.688L-112.939,50.5L-112.871,46.813L-112.802,48.063L-112.734,47.687L-112.665,48.875L-112.597,51.875L-112.529,54.625L-112.46,51.688L-112.392,47.625L-112.323,45.25L-112.255,45.438L-112.186,47.313L-112.118,50.563L-112.049,54.438L-111.981,50.75L-111.913,48L-111.844,49.125L-111.776,50.063L-111.707,50.688L-111.639,53.625L-111.57,56.375L-111.502,54.063L-111.433,49.438L-111.365,49L-111.296,49L-111.228,49.438L-111.16,51.125L-111.091,53.25L-111.023,49.875L-110.954,46.813L-110.886,47.687L-110.817,50.25L-110.749,53.563L-110.68,57.438L-110.612,58.562L-110.544,56.125L-110.475,53.437L-110.407,54.937L-110.338,56.312L-110.27,59.25L-110.201,62.125L-110.133,64.25L-110.064,62.75L-109.996,61.813L-109.928,63.25L-109.859,63.813L-109.791,62.563L-109.722,64.813L-109.654,65.25L-109.585,62.563L-109.517,59.5L-109.448,58.875L-109.38,61.313L-109.312,61.688L-109.243,64.937L-109.175,66.375L-109.106,64.188L-109.038,61.437L-108.969,62.625L-108.901,63.5L-108.832,65.563L-108.764,66.75L-108.696,64L-108.559,59.938L-108.49,58.562L-108.422,58.875L-108.353,59.125L-108.285,61.375L-108.216,64L-108.148,61.937L-108.08,59.312L-108.011,56.563L-107.943,55.625L-107.874,55.875L-107.806,58.375L-107.737,60.813L-107.669,63.313L-107.6,61L-107.532,60.438L-107.463,63.063L-107.395,62.875L-107.327,66.25L-107.258,68.5L-107.19,69.187L-107.121,65L-107.053,64.813L-106.984,64.813L-106.916,65.313L-106.847,67.5L-106.779,69.375L-106.711,67.375L-106.642,64.438L-106.574,65.438L-106.505,67.125L-106.437,67.688L-106.368,67L-106.3,70L-106.231,66.625L-106.163,63.5L-106.095,63.562L-106.026,63.5L-105.958,64.188L-105.889,67.25L-105.821,68.625L-105.752,66.438L-105.684,65.438L-105.615,63.438L-105.547,62.687L-105.479,65.063L-105.41,65.688L-105.342,68.438L-105.273,65.938L-105.205,62.687L-105.136,63.375L-105.068,66.187L-104.999,67.313L-104.931,68.625L-104.863,70.125L-104.794,68.25L-104.726,65.313L-104.657,65.875L-104.589,69.313L-104.52,70.25L-104.452,71.75L-104.383,74.438L-104.315,75.313L-104.247,72.688L-104.178,73.625L-104.11,74.625L-104.041,74.75L-103.973,77L-103.904,79.5L-103.836,76.813L-103.765,74.75L-103.696,75L-103.628,74.625L-103.559,75.375L-103.491,77.125L-103.422,75.813L-103.354,73.938L-103.285,71.25L-103.217,71L-103.149,70.625L-103.08,71.25L-103.012,72.563L-102.943,73.813L-102.875,73.125L-102.806,69.813L-102.738,70.688L-102.669,72.75L-102.601,72.688L-102.533,71.75L-102.464,73.437L-102.396,73.375L-102.327,71.188L-102.259,71.125L-102.19,71.312L-102.122,73L-102.053,75.562L-101.985,78.5L-101.916,77.813L-101.848,75.375L-101.78,76.875L-101.711,76.875L-101.643,76.688L-101.574,78.313L-101.506,80.875L-101.437,79.125L-101.369,78.938L-101.3,77.875L-101.232,77.438L-101.164,78.688L-101.095,82.25L-101.027,83.5L-100.958,82.063L-100.89,78.813L-100.821,78.438L-100.753,80.313L-100.684,79.25L-100.616,79.938L-100.548,81.5L-100.479,79.438L-100.411,75.875L-100.342,72.813L-100.274,72.813L-100.205,73.5L-100.137,75.438L-100.068,76.25L-100,72.563L-99.932,69.563L-99.863,67.188L-99.795,67.313L-99.726,66.5L-99.658,68.188L-99.589,71L-99.521,68.813L-99.452,62.938L-99.384,65L-99.316,65.813L-99.247,66.187L-99.179,69.187L-99.11,68.188L-99.042,65.5L-98.973,63.938L-98.905,61.5L-98.836,61.875L-98.768,61.437L-98.7,63.688L-98.631,66L-98.563,66.313L-98.494,63.25L-98.426,62.687L-98.357,61.563L-98.289,62.875L-98.22,64.875L-98.152,66.187L-98.084,63.313L-98.015,60.188L-97.947,60.562L-97.878,61.125L-97.81,62.625L-97.741,64.375L-97.673,66.438L-97.604,63.375L-97.536,59.938L-97.467,59.563L-97.399,63L-97.331,61.375L-97.262,62.75L-97.194,65.188L-97.125,62.063L-97.057,62.875L-96.988,61.188L-96.92,59.312L-96.851,61.188L-96.783,62.875L-96.715,65.188L-96.646,61.25L-96.578,57.938L-96.509,54.438L-96.441,55.375L-96.372,55.438L-96.304,58.313L-96.235,60.625L-96.167,57.75L-96.099,54.563L-96.03,55.875L-95.962,56.063L-95.893,56.437L-95.825,57.938L-95.756,59.063L-95.688,56.75L-95.619,52.625L-95.551,53.25L-95.483,53.312L-95.414,54.5L-95.346,56.5L-95.277,59.375L-95.209,57.75L-95.143,55.063L-95.075,55.562L-95.006,55L-94.938,56.812L-94.869,59.75L-94.801,61.375L-94.732,59.312L-94.664,56.938L-94.596,58.313L-94.527,58.875L-94.459,60.5L-94.39,62.125L-94.322,65.188L-94.253,62.438L-94.185,58.25L-94.116,59.375L-94.048,60.562L-93.98,60.813L-93.911,63.562L-93.843,65.688L-93.774,63.688L-93.706,62.125L-93.637,62.938L-93.569,65.063L-93.5,65.563L-93.432,67.5L-93.364,68.938L-93.295,66.375L-93.227,63.188L-93.158,62.063L-93.09,62.438L-93.021,62.563L-92.953,64.438L-92.884,66.625L-92.816,64.188L-92.748,61.688L-92.679,61L-92.611,59.938L-92.542,59.5L-92.474,62.5L-92.405,63.938L-92.337,61.5L-92.268,58.125L-92.2,59.063L-92.132,60L-92.063,60.687L-91.995,63.25L-91.926,64.75L-91.858,65L-91.789,62.25L-91.721,60.625L-91.652,59.375L-91.584,58.437L-91.516,59.75L-91.447,61.437L-91.379,60.063L-91.31,56.938L-91.242,56.563L-91.173,57.313L-91.105,57.375L-91.036,59.875L-90.968,62.687L-90.899,59.875L-90.831,57.813L-90.763,57.375L-90.694,56.875L-90.626,57.875L-90.557,60.063L-90.489,62.063L-90.42,58.688L-90.352,56.563L-90.283,57.25L-90.215,58.125L-90.147,58.5L-90.078,61.625L-90.01,62.875L-89.941,59.812L-89.873,56.75L-89.804,53.938L-89.736,53.437L-89.667,55.125L-89.599,58.313L-89.531,61.188L-89.462,58.313L-89.394,56.375L-89.325,58.875L-89.257,58.875L-89.188,58.5L-89.12,60.313L-89.051,62.563L-88.983,58.813L-88.915,55.562L-88.846,55.938L-88.778,55.5L-88.709,55.688L-88.641,59.375L-88.572,62.063L-88.504,60.375L-88.435,58.375L-88.367,58.063L-88.299,57.375L-88.23,57.687L-88.162,59.563L-88.093,62.125L-88.025,59.438L-87.956,57L-87.888,57.438L-87.819,57.25L-87.751,57L-87.683,59.812L-87.614,62.375L-87.546,59.375L-87.477,55.813L-87.409,55.438L-87.34,55.75L-87.272,50.813L-87.203,53.938L-87.135,57.25L-87.067,54.313L-86.998,51.813L-86.93,51.688L-86.861,50.375L-86.793,50.625L-86.724,53.437L-86.656,56.125L-86.587,52.625L-86.519,47.75L-86.45,48.063L-86.382,48.312L-86.314,50L-86.245,52.625L-86.177,54.5L-86.108,52.562L-86.04,49.813L-85.971,49.875L-85.903,49.562L-85.834,50L-85.766,53.063L-85.698,55.5L-85.629,53.063L-85.561,50.5L-85.492,50.813L-85.424,52.062L-85.355,53.437L-85.287,54.875L-85.218,59.563L-85.15,59.125L-85.082,55.188L-85.013,56.188L-84.945,56.25L-84.876,58.125L-84.808,61.937L-84.739,63.625L-84.671,60.188L-84.602,58.25L-84.534,59.5L-84.466,60.375L-84.397,60.25L-84.329,62.187L-84.26,62.687L-84.192,60.375L-84.123,58L-84.055,57.25L-83.986,57.313L-83.918,56.437L-83.85,58.625L-83.781,60.687L-83.713,58.625L-83.644,55.063L-83.576,54.563L-83.507,53.938L-83.439,54.063L-83.37,56.25L-83.302,58.625L-83.234,56.25L-83.165,53.375L-83.097,50.375L-83.028,52.375L-82.96,53.188L-82.891,56.125L-82.823,57.313L-82.754,57L-82.686,54.438L-82.617,55.688L-82.549,54.875L-82.481,53.563L-82.412,57.375L-82.344,60.188L-82.275,57.625L-82.207,55.688L-82.138,56.125L-82.07,55.063L-82.001,56.688L-81.933,59.063L-81.865,62.375L-81.796,60.188L-81.728,58.188L-81.659,57.813L-81.591,60.188L-81.522,62.625L-81.454,66L-81.385,69.625L-81.317,70.438L-81.249,71.438L-81.18,74.625L-81.112,77.25L-81.043,79.813L-80.975,82.375L-80.906,83.813L-80.838,83.438L-80.769,83.375L-80.701,83.313L-80.633,85.125L-80.564,86.438L-80.496,90L-80.427,92.563L-80.359,91.063L-80.29,91.313L-80.222,92.313L-80.153,94.375L-80.085,96.125L-80.017,99.688L-79.948,101.188L-79.88,99.125L-79.811,98L-79.743,100.25L-79.674,102.563L-79.606,104.562L-79.537,105.5L-79.469,106.188L-79.401,104L-79.332,101.25L-79.264,98.25L-79.195,95.5L-79.127,93.563L-79.058,93.5L-78.99,94.125L-78.921,91.063L-78.85,88.25L-78.782,85.812L-78.713,85.125L-78.645,84.937L-78.576,85.5L-78.508,85.438L-78.439,82.75L-78.371,82.188L-78.303,81.188L-78.234,79.312L-78.166,80L-78.097,81L-78.029,82.188L-77.96,79.563L-77.892,77.063L-77.823,77.938L-77.755,77.938L-77.687,77.5L-77.618,76.938L-77.55,78.5L-77.481,80.125L-77.413,74.813L-77.344,74.813L-77.276,76.563L-77.207,78.75L-77.139,80.313L-77.07,82.375L-77.002,81.437L-76.934,79.063L-76.865,80.5L-76.797,84.063L-76.728,86.688L-76.66,85.563L-76.591,83.813L-76.523,82.625L-76.454,82.125L-76.386,82.875L-76.318,83.75L-76.249,86.313L-76.181,86.688L-76.112,86.813L-76.044,85.25L-75.975,82.938L-75.907,83.75L-75.838,86.063L-75.77,87.5L-75.702,88.687L-75.633,87.563L-75.565,83.875L-75.359,81L-75.291,79.375L-75.222,84.813L-75.154,86.438L-75.086,84.875L-75.017,83.375L-74.949,81.375L-74.88,76.875L-74.812,76.063L-74.743,78.438L-74.675,79.813L-74.606,78.313L-74.538,77.313L-74.47,78.5L-74.401,79.688L-74.333,81.125L-74.264,83L-74.196,84.625L-74.127,83.5L-74.059,81.375L-73.99,81.437L-73.922,81.813L-73.854,82.063L-73.785,83.313L-73.717,85.5L-73.648,85.563L-73.58,83.188L-73.511,81.375L-73.443,81.75L-73.374,83.875L-73.306,85.438L-73.238,86.25L-73.169,84.438L-73.101,82.188L-73.032,82.25L-72.964,82.5L-72.895,82.938L-72.827,86.938L-72.758,88.875L-72.69,86.813L-72.621,83.687L-72.553,82.875L-72.485,82.625L-72.416,82.625L-72.348,84.813L-72.279,85.938L-72.211,83.687L-72.142,81.437L-72.074,80.875L-72.005,80.875L-71.937,81.125L-71.869,82.125L-71.8,83.625L-71.732,81.563L-71.663,78.5L-71.595,75.75L-71.526,76.375L-71.458,76.25L-71.389,77.125L-71.321,78.688L-71.253,77.063L-71.184,74.938L-71.116,75.188L-71.047,75.938L-70.979,76L-70.91,76.25L-70.842,78.313L-70.773,76.625L-70.705,73.375L-70.637,72L-70.568,71.938L-70.5,71.563L-70.431,72.625L-70.363,73.063L-70.294,70.063L-70.229,67.5L-70.16,66.25L-70.092,65.563L-70.023,65.813L-69.955,67.375L-69.886,68.625L-69.818,65.813L-69.75,61.688L-69.681,61.313L-69.613,61.688L-69.544,62.625L-69.476,64.062L-69.407,66.125L-69.339,64.313L-69.27,61.875L-69.202,61.563L-69.134,59.625L-69.065,59.438L-68.997,61L-68.928,61.937L-68.86,60.188L-68.791,57.625L-68.723,56.312L-68.654,57.062L-68.586,57.813L-68.518,59.125L-68.449,61.375L-68.381,58.813L-68.312,57.375L-68.244,56.063L-68.175,56.375L-68.107,56.812L-68.038,58.313L-67.97,59.563L-67.902,55.875L-67.833,53.25L-67.765,53.375L-67.696,52.812L-67.628,52.875L-67.559,53.5L-67.491,54.687L-67.422,50.813L-67.354,48.125L-67.286,47.062L-67.217,46.875L-67.149,47.062L-67.08,49L-67.012,50.625L-66.943,50.188L-66.875,48.688L-66.806,47.813L-66.738,47.625L-66.67,48.188L-66.601,49.813L-66.533,51.938L-66.464,51.125L-66.396,48.188L-66.327,48.5L-66.259,47.062L-66.19,49.125L-66.122,50.563L-66.054,53.063L-65.985,54.313L-65.917,52.188L-65.848,52.875L-65.78,52.625L-65.711,52.75L-65.643,56.812L-65.574,59.5L-65.506,57.25L-65.437,55.25L-65.369,55.813L-65.301,55.125L-65.232,56.938L-65.164,59.188L-65.095,60.938L-65.027,60.125L-64.958,57.062L-64.89,54.75L-64.821,53.688L-64.753,54.063L-64.685,56.188L-64.616,57.938L-64.548,56.375L-64.479,53.375L-64.411,52.688L-64.342,55.562L-64.274,56.312L-64.205,60.25L-64.137,61.688L-64.069,58.562L-64,55.188L-63.932,52.938L-63.863,53.125L-63.795,52.5L-63.726,55.313L-63.658,57.313L-63.589,54.937L-63.521,51.688L-63.453,52.875L-63.384,52.438L-63.316,53.813L-63.247,57.375L-63.179,59L-63.11,56.312L-63.042,54.875L-62.973,54.25L-62.905,55.375L-62.837,54.937L-62.768,58L-62.7,60.562L-62.631,57.375L-62.563,54.313L-62.494,54.063L-62.426,54.063L-62.357,54.937L-62.289,55.125L-62.221,57L-62.152,52.562L-62.084,49.438L-62.015,49.5L-61.947,50.75L-61.878,49.875L-61.81,52.562L-61.741,56.375L-61.673,53L-61.604,49L-61.536,49L-61.468,49.75L-61.399,49.625L-61.331,51.875L-61.262,53.938L-61.194,51L-61.125,47.375L-61.057,47.563L-60.988,45.938L-60.92,46.75L-60.852,48.25L-60.783,51.5L-60.715,48.938L-60.646,46.375L-60.578,46.813L-60.509,48.25L-60.441,48.125L-60.372,51.312L-60.304,53.312L-60.236,53.312L-60.167,49.5L-60.099,50.813L-60.03,51.5L-59.962,51.187L-59.893,52L-59.825,54.937L-59.756,51.438L-59.688,48.625L-59.62,50.875L-59.551,52L-59.483,52L-59.414,54.563L-59.346,56.437L-59.277,54.375L-59.209,52.125L-59.14,51.938L-59.072,52.625L-59.004,53.063L-58.935,55.875L-58.867,58L-58.798,56L-58.73,53.563L-58.661,54.063L-58.593,54.625L-58.524,55.375L-58.456,56.938L-58.388,59.938L-58.319,58.313L-58.251,55.813L-58.182,51.5L-58.114,52.812L-58.045,53.625L-57.977,56.5L-57.908,59.938L-57.84,58.562L-57.772,55.188L-57.703,55.375L-57.635,55.375L-57.566,53.938L-57.498,57.188L-57.429,60.063L-57.361,59.563L-57.292,58.188L-57.224,56.875L-57.155,54.625L-57.087,54.563L-57.019,56.625L-56.95,59.312L-56.882,55.813L-56.813,52.438L-56.745,53.312L-56.676,52.188L-56.608,51.25L-56.539,53.625L-56.471,56.25L-56.403,53.25L-56.334,46L-56.266,44.188L-56.197,42.813L-56.129,36.375L-56.06,38L-55.992,40.313L-55.923,34.5L-55.855,33.063L-55.787,29.875L-55.718,27.625L-55.65,26.688L-55.581,29.687L-55.513,32.375L-55.444,31.25L-55.376,25.625L-55.307,21.375L-55.239,16.375L-55.171,17.875L-55.102,22.187L-55.034,24.688L-54.965,21.625L-54.897,17.375L-54.828,19.188L-54.76,19.563L-54.691,19.625L-54.623,22.938L-54.555,25.813L-54.486,22.375L-54.418,18.25L-54.349,19.75L-54.281,27.375L-54.212,29.687L-54.144,33.625L-54.075,44.188L-54.007,42.938L-53.936,40.375L-53.867,43.5L-53.799,43L-53.73,46.625L-53.662,52.688L-53.593,56.875L-53.525,53.875L-53.457,51.187L-53.388,50.813L-53.32,54.75L-53.251,58.125L-53.183,64.563L-53.114,67.313L-53.046,65.938L-52.977,64.25L-52.909,66.813L-52.841,68.75L-52.772,69.438L-52.704,73.063L-52.635,74.875L-52.567,72.813L-52.498,72L-52.43,76.375L-52.361,78.438L-52.293,79.563L-52.225,78.438L-52.156,80.063L-52.088,78.313L-52.019,77.25L-51.951,79.063L-51.882,80.188L-51.814,82.188L-51.745,84.125L-51.677,86.188L-51.608,84.75L-51.54,83.563L-51.472,83.813L-51.403,84.813L-51.335,84.188L-51.266,85.25L-51.198,86.125L-51.129,84.063L-51.061,81.938L-50.992,81.375L-50.924,81.75L-50.856,81.375L-50.787,83L-50.719,84.813L-50.65,83.375L-50.582,81.25L-50.513,82.938L-50.445,82.063L-50.376,79.438L-50.308,80.813L-50.24,81.313L-50.171,78.25L-50.103,75.938L-50.034,73.938L-49.966,72.625L-49.897,70.938L-49.829,71.563L-49.76,71.5L-49.692,70.063L-49.624,67.125L-49.555,65.5L-49.487,63.688L-49.418,64.188L-49.35,64.625L-49.281,66.875L-49.213,65.813L-49.144,64.875L-49.076,65.813L-49.008,66.875L-48.939,66.875L-48.871,68.312L-48.802,70.313L-48.734,69.5L-48.665,66.063L-48.597,65.563L-48.528,64.625L-48.46,62.875L-48.392,64.875L-48.323,66.688L-48.255,65.063L-48.186,62.625L-48.118,64.438L-48.049,63.5L-47.981,64.937L-47.912,67.313L-47.844,69.375L-47.775,66.813L-47.707,64.25L-47.639,62.938L-47.57,63L-47.502,63.875L-47.433,65.938L-47.365,67.5L-47.296,65.188L-47.228,62.5L-47.159,61.25L-47.091,60.438L-47.023,59.938L-46.954,60.438L-46.886,62.687L-46.817,60.938L-46.749,57.813L-46.68,55.938L-46.612,57.062L-46.543,56.375L-46.475,59.063L-46.407,60.687L-46.338,57.875L-46.27,54.875L-46.201,54L-46.133,55.5L-46.064,55.125L-45.996,57L-45.927,57.25L-45.859,54.75L-45.791,51.875L-45.722,52.188L-45.654,51.938L-45.585,53L-45.517,55.125L-45.448,56.063L-45.38,54.25L-45.314,53.25L-45.246,52.625L-45.177,49.25L-45.109,48.438L-45.04,50.375L-44.972,51.813L-44.904,48.75L-44.835,47.062L-44.767,45.438L-44.698,46.063L-44.63,47.875L-44.561,50.063L-44.493,52.5L-44.424,50.625L-44.356,48.75L-44.288,49L-44.219,50.375L-44.151,50.875L-44.082,52.25L-44.014,54.937L-43.945,53.188L-43.877,53.312L-43.808,53.25L-43.74,54.5L-43.672,55.188L-43.603,58.562L-43.535,60.625L-43.466,59.188L-43.398,57.375L-43.329,56.875L-43.261,55.125L-43.192,56.875L-43.124,61.875L-43.056,65.375L-42.987,63.562L-42.919,61.75L-42.85,62.438L-42.782,61.375L-42.713,62.438L-42.645,64.875L-42.576,66.25L-42.508,63.562L-42.44,60.562L-42.371,60.687L-42.303,60.625L-42.234,59.812L-42.166,61.563L-42.097,63.25L-42.029,63.188L-41.96,58.625L-41.892,57.938L-41.824,57.438L-41.755,55.375L-41.687,56.688L-41.618,58.813L-41.55,56.125L-41.481,50.563L-41.413,50.375L-41.344,50.875L-41.276,51.875L-41.208,55.375L-41.139,57.438L-41.071,54L-41.002,50.188L-40.934,49.5L-40.865,48.5L-40.797,48.312L-40.728,51.063L-40.66,53.437L-40.591,50.688L-40.523,46.875L-40.455,44.313L-40.386,41.188L-40.318,39.125L-40.249,41.688L-40.181,44.688L-40.112,41.937L-40.044,39.875L-39.975,37.125L-39.907,37.875L-39.839,38.625L-39.77,41.188L-39.702,45.375L-39.633,42L-39.565,39.125L-39.496,37.375L-39.428,39.938L-39.359,42.063L-39.291,43.688L-39.223,44.688L-39.154,40.875L-39.086,38.25L-39.017,39.188L-38.949,40.187L-38.88,41.375L-38.812,44.625L-38.743,47.375L-38.675,43.5L-38.607,41.625L-38.538,40.562L-38.47,41.188L-38.401,43.125L-38.333,48.625L-38.264,52.688L-38.196,47.875L-38.127,44.188L-38.059,43.063L-37.991,42.5L-37.922,40.875L-37.854,43L-37.785,44.938L-37.717,41.937L-37.648,39.313L-37.58,40.25L-37.511,39.875L-37.443,41.75L-37.375,43.437L-37.306,43.75L-37.238,41.438L-37.169,39.313L-37.101,39.687L-37.032,39.063L-36.964,39.438L-36.895,41L-36.827,42.687L-36.758,40.313L-36.69,36.75L-36.622,36.812L-36.553,36.375L-36.485,37.813L-36.416,40.063L-36.348,43L-36.279,40.313L-36.211,35.625L-36.142,37.562L-36.074,38.813L-36.006,39.125L-35.937,40.813L-35.869,44.875L-35.8,43L-35.732,40.25L-35.663,40.75L-35.595,40.75L-35.526,39.938L-35.458,42.813L-35.39,45.25L-35.321,46.125L-35.253,42.875L-35.184,43.25L-35.116,43.563L-35.047,44.563L-34.979,47.813L-34.91,50.813L-34.842,48.625L-34.774,46.375L-34.705,46.5L-34.637,48.188L-34.568,50.063L-34.5,52.25L-34.431,55.25L-34.363,52.625L-34.294,49.875L-34.226,49.688L-34.158,50.813L-34.089,50.688L-34.021,52.812L-33.952,56.063L-33.884,55.375L-33.815,52.5L-33.747,51.938L-33.678,53.125L-33.61,53.312L-33.542,55.813L-33.473,59.375L-33.405,56.75L-33.336,54.125L-33.268,50L-33.199,50.25L-33.131,50.688L-33.062,53.375L-32.994,55.938L-32.926,53.75L-32.857,50.75L-32.789,50.75L-32.72,51.063L-32.652,50.938L-32.583,52.812L-32.515,54.75L-32.446,54.875L-32.378,52.313L-32.309,53L-32.241,53.563L-32.173,55.313L-32.104,59L-32.036,61.813L-31.967,58.813L-31.899,55.875L-31.83,56.375L-31.762,57.625L-31.693,58.063L-31.625,59.938L-31.557,62.375L-31.488,60.75L-31.42,57.375L-31.351,58.437L-31.283,58.875L-31.214,61.625L-31.146,64.313L-31.077,66.125L-31.009,64.563L-30.941,62.438L-30.872,62.563L-30.804,63.313L-30.735,63.813L-30.667,65.25L-30.598,68L-30.53,64.625L-30.461,63.438L-30.393,61.125L-30.325,60.188L-30.256,60.125L-30.188,61.563L-30.119,63.313L-30.051,60.375L-29.982,58.25L-29.914,59.625L-29.845,59.938L-29.777,59.063L-29.709,60.562L-29.64,63.438L-29.572,61.563L-29.503,59.188L-29.435,59.25L-29.366,62.938L-29.298,63.688L-29.229,65.938L-29.161,67.563L-29.093,64.75L-29.021,61.937L-28.953,61.937L-28.884,60.813L-28.816,61.563L-28.747,63.25L-28.679,66.187L-28.611,65.125L-28.542,62.812L-28.474,65.25L-28.405,65.625L-28.337,67.375L-28.268,70.063L-28.2,73.063L-28.131,71.75L-28.063,69.313L-27.995,70.813L-27.926,71.875L-27.858,73.313L-27.789,76.875L-27.721,80.063L-27.652,78.75L-27.584,76.938L-27.515,78.5L-27.447,81.625L-27.379,83L-27.31,83.063L-27.242,84.813L-27.173,83.25L-27.105,81.188L-27.036,81.75L-26.968,84.75L-26.899,84.5L-26.831,87.375L-26.762,89.063L-26.694,87.688L-26.626,85.625L-26.557,84.937L-26.489,85.063L-26.42,84.438L-26.352,85.313L-26.283,85.5L-26.215,82.313L-26.146,79.438L-26.078,79.875L-26.01,80.063L-25.941,80.375L-25.873,81.875L-25.804,83.375L-25.736,82.25L-25.667,79.688L-25.599,79.5L-25.53,79.688L-25.462,78.438L-25.394,77.875L-25.325,78.5L-25.257,76.188L-25.188,75.688L-25.12,75.25L-25.051,75.063L-24.983,75.438L-24.914,74.75L-24.846,77.063L-24.778,76L-24.709,74.125L-24.641,74.25L-24.572,74.188L-24.504,74.875L-24.435,76.938L-24.367,79.25L-24.298,76.625L-24.23,75.188L-24.162,76.125L-24.093,77.125L-24.025,78.063L-23.956,80.375L-23.888,81.813L-23.819,81.375L-23.751,78.75L-23.682,77.5L-23.614,78L-23.546,78.188L-23.477,79.25L-23.409,80.75L-23.34,78.25L-23.272,76.437L-23.203,76.375L-23.135,74.25L-23.066,75.063L-22.998,77.187L-22.93,79.5L-22.861,78.375L-22.793,74.938L-22.724,73.938L-22.656,73.813L-22.587,73.75L-22.519,74.813L-22.45,75.813L-22.382,73.938L-22.313,71.125L-22.245,72L-22.177,70.938L-22.108,71.563L-22.04,73.375L-21.971,74.5L-21.903,72.813L-21.834,70.813L-21.766,68.5L-21.697,68.312L-21.629,68.25L-21.561,69.25L-21.492,71.375L-21.424,70.375L-21.355,69.375L-21.287,69.625L-21.218,69.313L-21.15,68.813L-21.081,71.188L-21.013,72.125L-20.945,70.563L-20.876,68.5L-20.808,67.125L-20.739,68.375L-20.671,68.5L-20.602,70.313L-20.534,72L-20.465,71.063L-20.4,69.625L-20.331,69L-20.263,68.75L-20.195,68L-20.126,70.625L-20.058,73.063L-19.989,71.125L-19.921,68.25L-19.852,67.688L-19.784,67.313L-19.715,69.625L-19.647,71.5L-19.578,73.625L-19.51,71.875L-19.442,68.312L-19.373,66.625L-19.305,65.875L-19.236,65.625L-19.168,67.438L-19.099,69.563L-19.031,67.062L-18.962,64.875L-18.894,64.438L-18.826,64.438L-18.757,65.188L-18.689,66.688L-18.62,68.125L-18.552,65.438L-18.483,61.937L-18.415,60.938L-18.346,59.438L-18.278,59.125L-18.21,60.25L-18.141,62.438L-18.073,59.938L-18.004,56.188L-17.936,53.5L-17.867,52.375L-17.799,52.188L-17.73,53.875L-17.662,53.25L-17.594,50.125L-17.525,46.313L-17.457,44.938L-17.388,45.813L-17.32,47.5L-17.251,49.438L-17.183,51.5L-17.114,51.438L-17.046,48.75L-16.978,48.188L-16.909,47.75L-16.841,47.25L-16.772,48.25L-16.704,50.688L-16.635,48.125L-16.567,45.188L-16.498,44.938L-16.43,45.813L-16.362,46.688L-16.293,49.313L-16.225,51.5L-16.156,49.75L-16.088,45.562L-16.019,45.438L-15.951,45.375L-15.882,47.75L-15.814,51.563L-15.745,52.5L-15.677,50.437L-15.609,48.625L-15.54,48.438L-15.472,48.312L-15.403,49.125L-15.335,50.875L-15.266,52.062L-15.198,48.75L-15.129,45.813L-15.061,42.25L-14.993,42.125L-14.924,41L-14.856,42.875L-14.787,44.875L-14.719,43.313L-14.65,40.313L-14.582,39.375L-14.513,40L-14.445,42.063L-14.377,44.688L-14.308,46.813L-14.24,45L-14.171,41.438L-14.103,42.75L-14.034,45.125L-13.966,45.625L-13.897,48.125L-13.829,49.125L-13.761,45.875L-13.692,43.688L-13.624,43.813L-13.555,43.563L-13.487,44.062L-13.418,47.5L-13.35,49.375L-13.281,46.875L-13.213,44.625L-13.145,46.125L-13.076,45.813L-13.008,47.125L-12.939,49.75L-12.871,53.5L-12.802,51.5L-12.734,50.813L-12.665,50.625L-12.597,50.563L-12.529,51.125L-12.46,53.625L-12.392,54.438L-12.323,50.813L-12.255,48.312L-12.186,47L-12.118,48.875L-12.049,47.313L-11.981,49.187L-11.913,50.75L-11.844,47.563L-11.776,44.5L-11.707,45L-11.639,45.438L-11.57,45.75L-11.502,47.5L-11.433,51.125L-11.365,49L-11.296,46.438L-11.228,46.937L-11.16,47.375L-11.091,47.313L-11.023,49.875L-10.954,51.688L-10.886,49.688L-10.817,47.188L-10.749,47.25L-10.68,45L-10.612,44.625L-10.544,47.313L-10.475,50.25L-10.407,47.313L-10.338,43.5L-10.27,44.313L-10.201,45L-10.133,46.063L-10.064,48.063L-9.996,51.25L-9.928,50.813L-9.859,48.75L-9.791,49.187L-9.722,51.563L-9.654,51.625L-9.585,54.313L-9.517,55.813L-9.448,54.187L-9.38,51.438L-9.312,51.375L-9.243,51.063L-9.175,51.438L-9.106,53.188L-9.038,54.813L-8.969,52.625L-8.901,51.875L-8.832,51.938L-8.764,52.062L-8.696,52.938L-8.627,55.875L-8.559,57.687L-8.49,55.5L-8.422,53.437L-8.353,54L-8.285,56.625L-8.216,57.062L-8.148,58.5L-8.08,61L-8.011,58.5L-7.943,55.25L-7.874,53.5L-7.806,53.5L-7.737,54.25L-7.669,55.438L-7.6,57.75L-7.532,56.812L-7.463,54.125L-7.395,54.125L-7.327,53.375L-7.258,52.875L-7.19,56.063L-7.121,58L-7.053,55.813L-6.984,54.375L-6.916,54.687L-6.847,54L-6.779,52.625L-6.711,54.5L-6.642,55.813L-6.574,53.625L-6.505,50.938L-6.437,51.688L-6.368,51.813L-6.3,50.813L-6.231,51.875L-6.163,54L-6.095,51.5L-6.026,49.187L-5.958,48.312L-5.889,50L-5.821,50.563L-5.752,53.063L-5.684,55.562L-5.615,54.313L-5.547,52.25L-5.479,53.25L-5.41,54.75L-5.342,56L-5.273,58L-5.205,60.625L-5.136,58.813L-5.068,57.75L-4.999,58.625L-4.931,58.063L-4.863,58L-4.794,58.25L-4.726,61.625L-4.657,59.75L-4.589,58.063L-4.52,59.312L-4.452,63.938L-4.383,64.875L-4.315,66.313L-4.247,69.813L-4.178,67.563L-4.107,65.375L-4.038,65.75L-3.97,66.125L-3.901,68.5L-3.833,70.063L-3.765,71.625L-3.696,69.313L-3.628,67.062L-3.559,67.25L-3.491,67.875L-3.422,65.188L-3.354,66.5L-3.285,67.812L-3.217,65.938L-3.149,64.875L-3.08,65.5L-3.012,64.937L-2.943,65.938L-2.875,68.938L-2.806,71.375L-2.738,72.062L-2.669,69.75L-2.601,70L-2.533,72.5L-2.464,74.563L-2.396,73.875L-2.327,74.5L-2.259,73.188L-2.19,71.125L-2.122,71.312L-2.053,72.563L-1.985,75.562L-1.916,77.75L-1.848,79.312L-1.78,78L-1.711,76.375L-1.643,77.063L-1.574,77L-1.506,76.688L-1.437,77.938L-1.369,80.813L-1.3,79.5L-1.232,78.25L-1.164,78.375L-1.095,78.125L-1.027,78.188L-0.958,79L-0.89,79.563L-0.821,77.5L-0.753,74.563L-0.684,74.188L-0.616,75.562L-0.548,76.313L-0.479,76.688L-0.411,76.563L-0.342,75.5L-0.274,72.625L-0.205,71.25L-0.137,71.312L-0.068,72.563L0,73.437L0.068,72.688L0.137,69.063L0.205,67.25L0.274,66.5L0.342,66.25L0.411,66.938L0.479,69.063L0.548,70.938L0.616,70.438L0.684,68.438L0.753,68.063L0.821,68L0.89,68.438L0.958,69.875L1.027,71.75L1.095,72.688L1.164,71.688L1.232,70.688L1.3,72L1.369,72.25L1.437,72L1.506,74L1.574,71L1.643,67.875L1.711,67L1.78,68.375L1.848,69.937L1.916,72L1.985,72.875L2.053,70.438L2.122,69.063L2.19,71.75L2.259,70.25L2.327,70.5L2.396,72.313L2.464,73.563L2.533,71.5L2.601,69.313L2.669,67.688L2.738,68.188L2.806,67.438L2.875,68.875L2.943,70.625L3.012,68.5L3.08,66L3.149,64.813L3.217,63.25L3.285,63.938L3.354,65.375L3.422,66L3.491,65.75L3.559,62.625L3.628,62.812L3.696,63.562L3.765,63.25L3.833,65.125L3.901,66.688L3.97,64.563L4.038,61.188L4.107,61.937L4.175,60.625L4.244,59.563L4.312,62.313L4.381,64.438L4.449,62.125L4.517,58.937L4.586,59.688L4.654,59.438L4.723,59.188L4.791,60.75L4.86,63.562L4.928,62.063L4.994,59.563L5.062,60.188L5.131,60.5L5.199,59.5L5.268,61.875L5.336,63.562L5.404,61.063L5.473,58.5L5.541,58.25L5.61,58.688L5.678,58.625L5.747,59.438L5.815,61.375L5.884,59.563L5.952,57.062L6.02,56.938L6.089,58.188L6.157,58.688L6.226,60.687L6.294,62.687L6.363,60.25L6.431,58.562L6.5,59.063L6.568,60.813L6.636,60.562L6.705,62.875L6.773,65.75L6.842,62.812L6.91,60.438L6.979,59.375L7.047,58.813L7.116,58.063L7.184,59.938L7.252,62L7.321,60.5L7.389,58.625L7.458,58.375L7.526,59.063L7.595,60.063L7.663,60.813L7.732,62.563L7.8,59.938L7.868,57.062L7.937,56.5L8.005,57.062L8.074,57.438L8.142,59.375L8.211,61.375L8.279,61.813L8.348,59.063L8.416,59.312L8.484,58.75L8.553,57.687L8.621,58.875L8.69,59.75L8.758,56.437L8.827,53L8.895,52.625L8.964,52.75L9.032,53.375L9.101,56.5L9.169,59.125L9.237,57.125L9.306,55L9.374,54.375L9.443,54.063L9.511,55.125L9.58,57.563L9.648,58.188L9.717,57.188L9.785,55.188L9.853,56.625L9.922,57.438L9.99,57.938L10.059,59.938L10.127,61.813L10.196,58.562L10.264,53.875L10.333,51.938L10.401,52.188L10.469,52.688L10.538,54.125L10.606,57.375L10.675,57.875L10.743,56.25L10.812,56.563L10.88,57.25L10.949,57.875L11.017,58.25L11.085,60.813L11.154,57.938L11.222,53.312L11.291,51.25L11.359,49.187L11.428,49.813L11.496,51.75L11.565,54.125L11.633,51.688L11.701,48.063L11.77,46.563L11.838,44.25L11.907,44.5L11.975,46.75L12.044,47.75L12.112,45.312L12.181,42.188L12.249,42.188L12.317,43.063L12.386,41.375L12.454,43.125L12.523,44.75L12.591,42.25L12.66,38.688L12.728,36.812L12.797,36.812L12.865,38L12.933,40.688L13.002,42.5L13.07,41.5L13.139,37.188L13.207,37.562L13.276,38.875L13.344,41L13.413,45.188L13.481,47.188L13.55,44.313L13.618,41.563L13.686,40.125L13.755,41.125L13.823,41.25L13.892,45.875L13.96,47.75L14.029,45.312L14.097,43.688L14.166,43.25L14.234,43.25L14.302,45.375L14.371,47.938L14.439,51.688L14.508,49.875L14.576,47.563L14.645,48.312L14.713,48.25L14.782,46.5L14.85,48.25L14.918,50.063L14.987,49.937L15.055,48.188L15.124,47.938L15.192,49L15.261,48.5L15.329,50.875L15.398,52.5L15.466,49.813L15.534,47.25L15.603,46.438L15.671,45.938L15.74,47.437L15.808,50L15.877,53L15.945,49.688L16.014,45.5L16.082,45.562L16.15,45.5L16.219,46.063L16.287,48.688L16.356,50.063L16.424,47.625L16.493,45.188L16.561,45.312L16.63,44.875L16.698,44.812L16.766,47.062L16.835,50.625L16.903,48.875L16.972,46.438L17.04,43.25L17.109,42.563L17.177,44.062L17.246,46.5L17.314,49.875L17.383,49.875L17.451,47.625L17.519,47.313L17.588,47.437L17.656,49.375L17.725,51.875L17.793,55.5L17.862,46.187L17.93,45.25L17.999,46.688L18.067,46.937L18.135,48.688L18.204,51.625L18.272,52.75L18.341,50.625L18.409,46.5L18.478,47.25L18.546,47.875L18.615,50.063L18.683,52.938L18.751,52.438L18.82,49.438L18.888,45.75L18.957,45.438L19.025,44.875L19.094,47.375L19.162,50.875L19.231,48.312L19.299,46.937L19.367,44.75L19.436,43.063L19.504,45.125L19.573,48.188L19.641,50.25L19.71,48.188L19.778,45.688L19.915,39.875L19.983,46.875L20.052,45.75L20.12,47.875L20.189,51.438L20.257,49.688L20.326,46.625L20.394,46.438L20.463,49.438L20.531,52.625L20.599,54.813L20.668,57.062L20.736,56.063L20.805,53.938L20.873,54.313L20.942,56.437L21.01,58.937L21.079,61.688L21.147,64.5L21.215,62.563L21.287,60L21.355,61.75L21.424,61.688L21.492,62.187L21.561,64.125L21.629,64.813L21.697,63.125L21.766,60.313L21.834,62.438L21.903,64L21.971,67.875L22.04,70.563L22.108,73.375L22.177,71.625L22.245,70.5L22.313,71.063L22.382,72.438L22.45,73.125L22.519,72.625L22.587,74.25L22.656,74.563L22.724,72.563L22.793,72.062L22.861,70.375L22.93,62L22.998,64.188L23.066,65.313L23.135,64.937L23.203,60.5L23.272,60.25L23.34,59.938L23.409,60.813L23.477,62.438L23.546,64L23.614,62.125L23.682,60.063L23.751,60.25L23.819,61.313L23.888,61.25L23.956,62.687L24.025,63.562L24.093,63L24.162,60.313L24.23,59.25L24.298,59.125L24.367,59.375L24.435,60.687L24.504,61.563L24.572,59.5L24.641,57.25L24.709,54L24.778,52.875L24.846,52.688L24.914,56.25L24.983,68L25.051,65.563L25.12,60.813L25.188,58.562L25.257,61L25.325,62.438L25.394,65L25.462,66.563L25.53,62.563L25.599,60L25.667,60.25L25.736,60.562L25.804,60.5L25.873,61.937L25.941,63.813L26.01,60.687L26.078,58.063L26.146,56L26.215,56.312L26.283,57L26.352,58.313L26.42,59.812L26.489,58.937L26.557,57.25L26.626,57.938L26.694,57.5L26.762,59.063L26.831,61.937L26.899,63.625L26.968,60.938L27.036,57.75L27.105,57.438L27.173,60.5L27.242,61.688L27.31,63.75L27.379,65.063L27.447,62.812L27.515,59.563L27.584,61.563L27.652,61.375L27.721,61.875L27.789,63L27.858,64.563L27.926,63.625L27.995,63.625L28.063,64.937L28.131,66.063L28.2,66.25L28.268,67.938L28.337,70.313L28.405,67.875L28.474,65.75L28.542,63.813L28.611,64.937L28.679,64.125L28.747,66.25L28.816,67.75L28.884,65.125L28.953,63.188L29.021,64.5L29.09,65.563L29.158,66.125L29.227,67.688L29.295,68.563L29.363,66.563L29.432,62.938L29.5,62.375L29.569,63.063L29.637,63.688L29.706,66.375L29.774,67.875L29.843,65.938L29.908,63.625L29.977,62.563L30.045,61.188L30.114,59.938L30.182,61.25L30.25,64.313L30.319,61.25L30.387,58.125L30.456,57L30.524,56.375L30.593,56.563L30.661,56.812L30.73,58.562L30.798,55.188L30.866,53.312L30.935,52.625L31.003,51.5L31.072,52.062L31.14,53.063L31.209,54.438L31.277,50.875L31.346,49.625L31.414,47.563L31.482,48.375L31.551,48.625L31.619,50.813L31.688,52.25L31.756,49.187L31.825,44.125L31.893,43.563L31.962,42.75L32.03,41.812L32.098,43.25L32.167,45.813L32.235,43.75L32.304,39.875L32.372,41L32.441,40.5L32.509,41.625L32.578,43.625L32.646,45.125L32.714,42.75L32.783,40.75L32.851,39.812L32.92,39.875L32.988,42.063L33.057,44.812L33.125,45.688L33.194,45.625L33.262,43L33.33,41.937L33.399,41.5L33.467,43.375L33.536,45.938L33.604,47.188L33.673,43.375L33.741,39.875L33.81,39.687L33.878,41.937L33.946,42.5L34.015,44.688L34.083,48L34.152,46.375L34.22,43.75L34.289,42.813L34.357,43.125L34.426,42.438L34.494,45.25L34.563,47.938L34.631,45.5L34.699,42.75L34.768,42.125L34.836,40.313L34.905,42.188L34.973,44.313L35.042,45L35.11,42.5L35.179,38.563L35.247,35.437L35.315,35.313L35.384,36.063L35.452,37L35.521,39.25L35.589,35.813L35.658,36.812L35.726,37.375L35.795,37.5L35.863,37.938L35.931,39.563L36,41.875L36.068,37.875L36.137,35.125L36.205,32.188L36.274,32.125L36.342,32.688L36.411,34.313L36.479,36.125L36.547,31.875L36.616,28.875L36.684,29.062L36.753,28.063L36.821,28.312L36.89,31.875L36.958,33.75L37.027,30.375L37.095,27.312L37.163,26.812L37.232,27.25L37.3,28.687L37.369,31.625L37.437,35L37.506,31.625L37.574,28.625L37.643,29.313L37.711,26.75L37.779,27L37.848,29.813L37.916,32.25L37.985,29L38.053,25.312L38.122,27.438L38.19,27.125L38.259,29.188L38.327,30.812L38.396,33.438L38.464,30.688L38.532,29.438L38.601,30.437L38.669,29.687L38.738,30.125L38.806,34.5L38.875,36.563L38.943,34.188L39.012,31.75L39.08,31.563L39.148,32.188L39.217,33.125L39.285,36.375L39.354,37.813L39.422,34.938L39.491,33L39.559,34L39.628,32.75L39.696,34.375L39.764,36.75L39.833,39.563L39.901,39.125L39.97,35.25L40.038,37.438L40.107,37.938L40.175,37.562L40.244,40.875L40.312,43.875L40.38,41.188L40.449,37.813L40.517,39.188L40.586,39.375L40.654,39.938L40.723,42.188L40.791,44.062L40.86,42L40.928,39.875L40.996,40.313L41.065,40.063L41.133,40.688L41.202,42.625L41.27,44.688L41.339,41.25L41.407,38.937L41.476,38.438L41.544,37.188L41.612,36.25L41.681,40.375L41.749,40.75L41.818,36.938L41.886,33.5L41.955,31.187L42.023,32.313L42.092,32.5L42.16,35.063L42.228,38.438L42.297,37.313L42.365,32.813L42.434,33.875L42.502,35.375L42.571,35.625L42.639,37.625L42.708,40.375L42.776,38.688L42.845,35.063L42.913,33.5L42.981,33.25L43.05,33.125L43.118,35.625L43.187,37.75L43.255,35.25L43.324,33.438L43.392,34.188L43.461,35L43.529,36.812L43.597,39.375L43.666,43.813L43.734,41.188L43.803,39.687L43.871,40.813L43.94,41.937L44.008,41.625L44.077,43.75L44.145,45.188L44.213,42.687L44.282,41.062L44.35,38.875L44.419,40.375L44.487,43.063L44.556,44.812L44.624,46.813L44.693,44.875L44.761,42.063L44.829,42.375L44.898,44.25L44.966,46.563L45.035,49.875L45.103,52.688L45.172,49.562L45.24,48.563L45.309,50.125L45.377,52.5L45.445,54.375L45.514,56.125L45.582,57.875L45.651,56.375L45.719,53.5L45.788,53.188L45.856,53.5L45.925,54.75L45.993,56.5L46.061,60.438L46.13,57.375L46.201,56.125L46.27,56.812L46.338,56.188L46.407,57.188L46.475,59.063L46.543,59.5L46.612,57.563L46.68,55.562L46.749,56.25L46.817,57.375L46.886,58.188L46.954,60.25L47.023,61.437L47.091,59.312L47.159,56.063L47.228,58.437L47.296,59.875L47.365,61L47.433,61.188L47.502,63.313L47.57,64.813L47.639,63.125L47.707,64L47.775,60.938L47.844,61.75L47.912,63.562L47.981,65.938L48.049,67.625L48.118,65.938L48.186,68.938L48.255,69.937L48.323,71.125L48.392,72.813L48.46,74.688L48.528,73.563L48.597,70.688L48.665,70.188L48.734,69.875L48.802,69.5L48.871,70.625L48.939,72.313L49.008,72.313L49.076,70.313L49.144,70.625L49.213,70.938L49.281,69.5L49.35,68.875L49.418,69.625L49.487,66.688L49.555,61.563L49.624,57.313L49.692,56.063L49.76,55.688L49.829,61.063L49.897,63.562L49.966,60.875L50.034,58L50.103,55.438L50.171,54.813L50.24,53.188L50.308,51.5L50.376,52.25L50.445,49.187L50.513,46.375L50.582,46.25L50.65,46.563L50.719,47.563L50.787,49.688L50.856,52L50.924,49.937L50.992,47.313L51.061,45.75L51.129,45.25L51.198,45.312L51.266,47.5L51.335,50.313L51.403,50.437L51.472,46.813L51.54,47.625L51.608,48.25L51.677,49.688L51.745,51.938L51.814,53.563L51.882,51L51.951,47.188L52.019,48.25L52.088,47.25L52.156,47.625L52.225,48.875L52.293,51.563L52.361,51.688L52.43,49L52.498,50.375L52.567,50.813L52.635,51L52.704,52.438L52.772,52.875L52.841,51.125L52.909,49.438L52.977,50.313L53.046,50.938L53.114,50.188L53.183,53.188L53.251,54.563L53.32,52.062L53.388,47.687L53.457,46.375L53.525,47.437L53.593,46.813L53.662,49.562L53.73,51.063L53.799,48.75L53.867,47.062L53.936,47.313L54.004,48.125L54.073,48.563L54.141,51.688L54.209,53.5L54.278,51.938L54.346,50.188L54.415,49.688L54.483,50.375L54.552,49.562L54.62,51.5L54.689,53.188L54.757,50.375L54.823,48.063L54.891,47.375L54.96,47.062L55.028,46.625L55.096,47.375L55.165,50.063L55.233,47.938L55.302,45.375L55.37,46.125L55.439,48.5L55.507,47.813L55.576,49.937L55.644,51.438L55.712,48.875L55.781,46L55.849,45.562L55.918,45.125L55.986,45.938L56.055,48.688L56.123,49.688L56.192,47.375L56.26,44.688L56.328,44.563L56.397,43.375L56.465,42.938L56.534,44.688L56.602,47.563L56.671,44.625L56.739,41.375L56.808,42.313L56.876,42.563L56.944,43.187L57.013,44.688L57.081,47.062L57.15,45.813L57.218,41.937L57.287,40.438L57.355,39L57.424,38.312L57.492,39.812L57.56,42.313L57.629,39.5L57.697,38.688L57.766,38.625L57.834,39.063L57.903,39.313L57.971,41.5L58.04,43.813L58.108,42.813L58.176,39.938L58.245,40.688L58.313,38.062L58.382,37.75L58.45,40.313L58.519,43.437L58.587,41.438L58.656,37.188L58.724,36.688L58.792,36L58.861,37.375L58.929,40.5L58.998,42.188L59.066,39.125L59.135,34.313L59.203,33.375L59.272,33.5L59.34,33.75L59.409,37.5L59.477,41.125L59.545,38.875L59.614,35.688L59.682,35.375L59.751,33.688L59.819,33.812L59.888,35.313L59.956,38.062L60.025,35.313L60.093,31.937L60.161,29.875L60.23,30.25L60.298,30L60.367,33.563L60.435,36.063L60.504,33.125L60.572,30.875L60.641,33.938L60.709,35.375L60.777,36.625L60.846,39.188L60.914,40.375L60.983,37.313L61.051,35.313L61.12,35.125L61.188,37.375L61.257,38L61.325,41.375L61.393,44.062L61.462,40.688L61.53,37.562L61.599,38.125L61.667,35.437L61.736,36.25L61.804,38.75L61.873,41.375L61.941,37.687L62.009,34.625L62.078,35L62.146,35.563L62.215,35.75L62.283,38.563L62.352,40.5L62.42,39.375L62.489,35.188L62.557,35.25L62.625,33.625L62.694,30.875L62.762,32.625L62.831,35.25L62.899,34.062L62.968,31.75L63.036,30.938L63.105,29.813L63.173,29.562L63.242,31.875L63.31,34.687L63.378,30.938L63.447,29.25L63.515,30.562L63.584,29.313L63.652,30.375L63.721,35.625L63.789,38.25L63.858,36.375L63.926,34.25L63.994,36.5L64.063,37.313L64.131,37.125L64.2,39.438L64.268,42.75L64.337,40.25L64.405,37L64.474,35.937L64.542,37.25L64.61,39.125L64.679,43.063L64.747,45.5L64.816,46.813L64.884,43.313L64.953,43.313L65.021,44L65.09,44.625L65.158,47.75L65.226,51.875L65.295,49.75L65.363,47.687L65.432,48.312L65.5,48.188L65.569,48.625L65.637,52.188L65.706,53.312L65.774,50.688L65.842,48.125L65.911,48.375L65.979,48.188L66.048,48.188L66.116,50.375L66.185,52.188L66.253,50.938L66.322,46.937L66.39,47.188L66.458,48.188L66.527,49.75L66.595,51.875L66.664,52.438L66.732,49.438L66.801,46.125L66.869,42L66.938,42.938L67.006,42.875L67.074,43.813L67.143,46.937L67.211,47.375L67.28,43.937L67.348,43.125L67.417,43.25L67.485,44.5L67.554,45.938L67.622,48.188L67.691,45.063L67.759,42.313L67.827,43.5L67.896,44L67.964,44.25L68.033,47.875L68.101,50.25L68.17,47.875L68.238,45.375L68.307,44.688L68.375,45.5L68.443,45.688L68.512,47.938L68.58,50.125L68.649,49.75L68.717,48.5L68.786,49.375L68.854,48.938L68.923,50.813L68.991,53.813L69.059,56.688L69.128,55.625L69.196,54.438L69.265,53.375L69.333,54.875L69.402,58.25L69.47,59.75L69.539,62.125L69.607,61.813L69.675,59.688L69.744,62.438L69.812,63.75L69.881,65.563L69.949,67L70.018,69.937L70.086,68.25L70.155,66.187L70.223,68L70.291,72.5L70.36,73.5L70.428,75.813L70.497,77.813L70.565,76.5L70.634,73.688L70.702,73.75L70.771,74.063L70.839,74.875L70.907,78.562L70.976,80.438L71.044,77.625L71.116,75.625L71.184,75.188L71.253,74.813L71.321,74.875L71.389,77.063L71.458,76.688L71.526,75.25L71.595,73L71.663,73.5L71.732,74.312L71.8,73.188L71.869,74.25L71.937,75.063L72.005,72.875L72.074,68.438L72.142,67.188L72.211,67.5L72.279,67.75L72.348,67.188L72.416,69.187L72.485,69.313L72.553,70.563L72.621,70.813L72.69,71.75L72.758,71.813L72.827,74L72.895,75L72.964,73.188L73.032,74.063L73.101,73.813L73.169,73.625L73.238,73.875L73.306,75.5L73.374,76L73.443,74L73.511,71.688L73.58,71.938L73.648,71.875L73.717,70.25L73.785,71.875L73.854,74L73.922,71.563L73.99,68.625L74.059,70L74.127,72.188L74.196,73.688L74.264,75.813L74.333,76.125L74.401,75.063L74.47,71.625L74.538,69.563L74.606,69.75L74.675,64.625L74.743,66.438L74.812,67.688L74.88,64.125L74.949,61.937L75.017,61.688L75.086,59.438L75.154,61.437L75.222,62.75L75.291,65.188L75.359,62.25L75.428,61.125L75.496,60.125L75.565,61.875L75.633,61.875L75.702,64.188L75.77,66.375L75.838,64.563L75.907,61.75L75.975,62.687L76.044,63.25L76.112,63L76.181,64.688L76.249,65.438L76.318,64.5L76.386,63.375L76.454,62.687L76.523,63.438L76.591,63.938L76.66,62.063L76.728,69.063L76.797,66.563L76.865,65.188L76.934,65.938L77.002,66.563L77.07,67.563L77.139,69.313L77.207,69.937L77.276,69.75L77.344,67.375L77.413,68.5L77.481,68.312L77.55,67.875L77.618,69.187L77.687,70.938L77.755,68.625L77.823,67.438L77.892,67.313L77.96,68.063L78.029,68.063L78.097,69.563L78.166,71.063L78.234,68.625L78.303,66.063L78.371,64.188L78.439,62.938L78.508,63L78.576,64.75L78.645,66.938L78.713,65.813L78.782,62.625L78.85,63.375L78.919,62.563L78.987,63.063L79.055,64.688L79.124,65.438L79.192,62.563L79.261,60.687L79.329,60.687L79.398,60.75L79.466,61.313L79.535,57.062L79.603,56.688L79.671,53.312L79.737,50.063L79.805,49.813L79.874,51.25L79.942,53.125L80.011,52.125L80.079,51.688L80.148,49.25L80.216,46.937L80.285,48.438L80.353,50.875L80.422,53.875L80.49,55.5L80.558,55.875L80.627,53.312L80.695,51.563L80.764,51.625L80.832,53.875L80.901,55.5L80.969,55.562L81.038,54.563L81.106,52.062L81.174,50.437L81.243,49.562L81.311,51.813L81.38,52.438L81.448,51.813L81.654,49.875L81.722,53.625L81.79,54.687L81.859,56.437L81.927,59.312L81.996,61.75L82.064,59.75L82.133,57.875L82.201,58.5L82.27,58.313L82.338,60.125L82.406,62.25L82.475,62.5L82.543,59.688L82.612,56.688L82.68,56.063L82.749,53.813L82.817,55.063L82.886,55.875L82.954,57.313L83.022,57.375L83.091,54.75L83.159,54.313L83.228,55.313L83.296,56.437L83.365,57.938L83.433,60.938L83.502,58.313L83.57,57.313L83.638,57.125L83.707,57.563L83.775,58L83.844,58.875L83.912,60.125L83.981,59.188L84.049,56.625L84.118,56L84.186,55L84.255,55.25L84.323,56.875L84.391,57.875L84.46,55.5L84.528,54.063L84.597,54.313L84.665,55.125L84.734,54.937L84.802,57.875L84.871,59.5L84.939,57.687L85.007,57.062L85.076,55.5L85.144,55.938L85.213,57.125L85.281,59.063L85.35,60.5L85.418,59.438L85.487,58L85.555,57.875L85.623,59.625L85.692,61.313L85.76,63.688L85.829,65.375L85.897,64.937L85.966,62.625L86.034,62.812L86.103,62.313L86.171,64L86.239,66.25L86.308,67.875L86.376,66.875L86.445,64.062L86.513,65L86.582,66.125L86.65,68L86.719,69.75L86.787,72.563L86.855,70.813L86.924,68.625L86.992,69.313L87.061,67.688L87.129,68.188L87.198,69.313L87.266,71.063L87.335,68.625L87.403,66.75L87.471,66.813L87.54,66.25L87.608,66.688L87.677,65.5L87.745,66.813L87.814,64.313L87.882,62.938L87.951,63.125L88.019,62.812L88.087,62.875L88.156,65.875L88.224,66.5L88.293,62.063L88.361,60.5L88.43,60.813L88.498,61.437L88.567,61.188L88.635,61.125L88.704,62.187L88.772,58.875L88.84,55.625L88.909,55.875L88.977,56.125L89.046,55.875L89.114,58.125L89.183,59.438L89.251,56.812L89.32,54.75L89.388,54.5L89.456,55.063L89.525,54.75L89.593,56.563L89.662,58.437L89.73,59.438L89.799,57.625L89.867,57.375L89.936,56.312L90.004,55.75L90.072,57.625L90.141,59.438L90.209,56.875L90.278,55.063L90.346,57.125L90.415,57.938L90.483,57.5L90.552,60L90.62,61.688L90.688,61.375L90.757,59.063L90.825,60.313L90.894,61.75L90.962,62.187L91.031,63.375L91.099,65.313L91.168,63.5L91.236,62.187L91.304,64.062L91.373,62.687L91.441,63.688L91.51,65.125L91.578,66.75L91.647,65.813L91.715,63.938L91.784,61.813L91.852,62.5L91.92,63.813L91.989,66.438L92.057,68.25L92.126,67.25L92.194,64.875L92.263,65.688L92.331,66.25L92.4,67.625L92.468,68.312L92.537,70.063L92.605,69.688L92.673,68.438L92.742,68.688L92.81,69.438L92.879,69.813L92.947,71.063L93.016,72.375L93.084,72.188L93.153,71.5L93.221,72.313L93.289,72.438L93.358,72.813L93.426,75.688L93.495,76.938L93.563,74.625L93.632,73.938L93.7,73.875L93.769,75.625L93.837,76.063L93.905,77.063L93.974,78.75L94.042,76.563L94.111,76L94.179,76.5L94.248,77L94.316,78L94.385,79.188L94.453,81.25L94.521,81.188L94.59,80.5L94.658,78.813L94.727,79.875L94.795,79.938L94.864,81.563L94.932,83.438L95.001,82.063L95.069,81.25L95.137,81.375L95.206,81L95.274,81.875L95.343,83L95.411,83.375L95.48,81.75L95.548,78.875L95.617,80.75L95.685,81.875L95.753,83.125L95.822,83.375L95.89,85L95.959,83.938L96.03,83.375L96.099,84.125L96.167,84L96.235,84.937L96.304,86.125L96.372,87.313L96.441,86.375L96.509,83.875L96.578,83.687L96.646,83.5L96.715,84.313L96.783,85.25L96.851,86L96.92,84.937L96.988,84.125L97.057,84.5L97.125,84.937L97.194,85.313L97.262,86.75L97.331,88L97.399,86.813L97.467,87.125L97.536,89.938L97.604,92.375L97.673,91.5L97.741,91.188L97.81,92.313L97.878,92L97.947,90.625L98.015,92.313L98.084,92.063L98.152,92.5L98.22,93.563L98.289,94.313L98.357,93.25L98.426,92L98.494,91.813L98.563,92.5L98.631,92.5L98.7,93.313L98.768,94.5L98.836,92.875L98.905,91.5L98.973,91.5L99.042,91.188L99.11,91.938L99.179,92.438L99.247,93.062L99.316,92.563L99.384,91.313L99.452,92.188L99.521,91.813L99.589,89.688L99.658,90.938L99.726,92.625L99.795,92.125L99.863,89.313L99.932,88.687L100,88.625L100.068,86.375L100.137,87L100.205,88.813L100.274,87.125L100.342,86.063L100.411,86.625L100.479,86.313L100.548,87.188L100.616,88.375L100.684,89.688L100.753,88.5L100.821,88.063L100.89,88.438L100.958,89.563L101.027,89.813L101.095,90.688L101.164,91.063L101.232,91L101.3,88.313L101.369,87.875L101.437,86.5L101.506,86.125L101.574,86.75L101.643,88L101.711,85.688L101.78,83.563L101.848,83.313L101.916,84.813L101.985,85.375L102.053,86.25L102.122,87.937L102.19,87.563L102.259,85.438L102.327,86L102.396,84.438L102.464,84.5L102.533,84.813L102.601,85.188L102.669,83.625L102.738,81.813L102.806,82.75L102.875,81.125L102.943,82.938L103.012,83.125L103.08,84.063L103.149,84.25L103.217,82.875L103.285,83L103.354,85.625L103.422,86.75L103.491,89.125L103.559,90.125L103.628,91.438L103.696,91.063L103.765,93.5L103.833,95.75L103.901,97.375L103.97,98.688L104.038,100.188L104.107,100.937L104.175,101.188L104.244,102.313L104.312,104.562L104.381,106.375L104.449,109.438L104.517,110.813L104.586,112.375L104.651,112.563L104.72,114.75L104.788,116.813L104.857,117.938L104.925,120.688L104.994,120.375L105.062,121.563L105.131,121.875L105.199,122.375L105.268,124.063L105.336,124.438L105.404,124.813L105.473,125.125L105.541,125.188L105.61,125.188L105.678,124.5L105.747,125L105.815,125L105.884,125.125L105.952,124.875L106.02,124.75L106.089,124.25L106.157,123.937L106.226,123.813L106.294,123.875L106.363,123.625L106.431,123.5L106.5,122.625L106.568,121.812L106.636,121.313L106.705,121.25L106.773,121L106.842,120.813L106.91,120.188L106.979,119.75L107.047,119.063L107.116,117.875L107.184,117.063L107.252,116.375L107.321,116.313L107.389,115.938L107.458,114.438L107.526,113.563L107.595,112.625L107.663,112.188L107.732,112.125L107.8,112.313L107.868,111.938L107.937,111.125L108.005,109.688L108.074,108.563L108.142,107.438L108.211,107.125L108.279,107.125L108.348,106.5L108.416,104.625L108.484,103L108.553,102.75L108.621,103L108.69,102.188L108.758,102.188L108.827,102.188L108.895,99.625L108.964,98.938L109.032,97.938L109.101,97L109.169,96.75L109.237,97.312L109.306,97.563L109.374,96.063L109.443,95.125L109.511,94.875L109.58,92.938L109.648,92.625L109.717,93.375L109.785,93.125L109.853,91.625L109.922,90.5L109.99,89.563L110.059,89.625L110.127,89.375L110.196,89.938L110.264,90.063L110.333,88.313L110.401,86.938L110.469,87.125L110.538,88.188L110.606,88.063L110.675,88.25L110.743,88.938L110.812,86.438L110.88,83.75L110.949,84.375L111.017,83.625L111.085,82.563L111.154,83.625L111.222,84.188L111.291,82.812L111.359,81.563L111.428,81.688L111.496,81.063L111.565,80.938L111.633,83L111.701,82.625L111.77,80.875L111.838,77.938L111.907,77.125L111.975,76.313L112.044,76.125L112.112,76.688L112.181,77.563L112.249,76.188L112.317,75.813L112.386,76L112.454,76.063L112.523,76.875L112.591,76.188L112.66,76.375L112.728,73.813L112.797,72.625L112.865,74L112.933,75.313L113.002,76L113.07,76.75L113.139,77.875L113.207,76.313L113.276,74.188L113.344,74.438L113.413,73.063L113.481,72.875L113.55,74.063L113.618,75.25L113.686,73.813L113.755,73L113.823,72.875L113.892,74.813L113.96,74.563L114.029,76.125L114.097,77.687L114.166,77.063L114.234,74.25L114.302,74.813L114.371,74.125L114.439,74.938L114.508,76.375L114.576,77.125L114.645,75.562L114.713,74.875L114.782,75.625L114.85,74.5L114.918,73.875L114.987,74.875L115.055,75.625L115.124,76.25L115.192,75.5L115.261,76.563L115.329,77.563L115.398,77.75L115.466,79.875L115.534,80.563L115.603,78.375L115.671,77.063L115.74,77.687L115.808,77.813L115.877,77.5L115.945,78.25L116.014,80.5L116.082,80.125L116.15,78.813L116.219,79L116.287,80.938L116.356,80.5L116.424,81.75L116.493,82L116.561,80.188L116.63,79L116.698,79.688L116.766,79.125L116.835,80.438L116.903,82.188L116.972,84.75L117.04,84L117.109,83L117.177,81.563L117.246,81.813L117.314,80.875L117.383,81.437L117.451,82.5L117.519,82.875L117.588,82.438L117.656,83.438L117.725,84.375L117.793,84.5L117.862,85.875L117.93,87.625L117.999,87.5L118.067,86.25L118.135,86.25L118.204,86.313L118.272,86.562L118.341,87.625L118.409,89.5L118.478,88.313L118.546,87.813L118.615,89.063L118.683,88.813L118.751,90L118.82,91.813L118.888,92.25L118.957,91.813L119.025,90.875L119.094,91.313L119.162,91.562L119.231,92.063L119.299,93.438L119.367,95.063L119.436,94.125L119.504,93.438L119.573,93.375L119.641,93.25L119.71,94.5L119.778,95L119.847,96.188L119.915,95.688L119.983,94.75L120.052,95.438L120.12,96.375L120.189,97.125L120.257,98.812L120.326,99.563L120.394,98.063L120.463,97.875L120.531,98.812L120.599,100.25L120.668,100.75L120.736,102.313L120.805,103L120.873,101.313L120.945,100.063L121.013,100.813L121.081,101L121.15,99.563L121.218,100.688L121.287,101.875L121.355,101.063L121.424,100.75L121.492,101.75L121.561,100.937L121.629,99.875L121.697,101L121.766,101.688L121.834,101.313L121.903,99.875L121.971,100.25L122.04,101.125L122.108,100.688L122.177,101.563L122.245,102L122.313,101.063L122.382,99.5L122.45,100.625L122.519,100.688L122.587,102L122.656,102.188L122.724,102.875L122.793,101.5L122.861,100.875L122.93,102.25L122.998,103.313L123.066,103.813L123.135,103.625L123.203,105.125L123.272,104.188L123.34,103.375L123.409,103.625L123.477,103.438L123.546,103.125L123.614,104.313L123.682,105.375L123.751,104.625L123.819,102.875L123.888,102.313L123.956,102.75L124.025,103L124.093,103.125L124.162,103.375L124.23,103.313L124.298,102.063L124.367,102.25L124.435,103.125L124.504,103.625L124.572,103.563L124.641,103.438L124.709,102.688L124.778,101.625L124.846,102.063L124.914,101.875L124.983,101.375L125.051,101L125.12,100.937L125.188,101.563L125.257,102L125.325,102.063L125.394,102.375L125.462,102.125L125.53,102.875L125.599,104.25L125.667,104.375L125.736,103.938L125.804,104.625L125.873,105.125L125.941,105.75L126.01,107.063L126.078,108.25L126.146,107.5L126.215,106.375L126.283,105.75L126.352,106L126.42,105.875L126.489,106.438L126.557,106.5L126.626,105.625L126.694,104.688L126.762,104.5L126.831,104.188L126.899,104.063L126.968,105L127.036,105.875L127.105,104.938L127.173,103.688L127.242,103.125L127.31,102.875L127.379,102.25L127.447,102.688L127.515,103.438L127.584,101.313L127.652,100.125L127.721,99.188L127.789,99L127.858,97.875L127.926,99.125L127.995,100.125L128.063,99.375L128.131,98.625L128.2,98.313L128.268,99.313L128.337,99.063L128.405,99.688L128.474,99.75L128.542,98.25L128.611,96.875L128.679,96.625L128.747,95.938L128.816,95.813L128.884,96.75L128.953,97L129.021,96.125L129.09,94.875L129.158,95.5L129.227,95.375L129.295,95.563L129.363,96L129.432,97.375L129.5,96.188L129.569,94.625L129.637,95.875L129.706,95.125L129.774,94.813L129.843,95.75L129.911,97.125L129.979,95.938L130.045,93.938L130.114,93.5L130.182,92.5L130.25,92.5L130.319,93.188L130.387,93.5L130.456,92.5L130.524,91.875L130.593,92.938L130.661,93.25L130.73,93.375L130.798,94.375L130.866,94.688L130.935,93.75L131.003,94.188L131.072,94.188L131.14,94.063L131.209,94.188L131.277,95.25L131.346,95.313L131.414,93.25L131.482,91.625L131.551,91.562L131.619,91.75L131.688,91.188L131.756,92.563L131.825,93.75L131.893,92.75L131.962,91.938L132.03,91.875L132.098,92.313L132.167,91.625L132.235,92.188L132.304,93.062L132.372,90.313L132.441,89.063L132.509,88.875L132.578,88.063L132.646,87.125L132.714,87.313L132.783,88.313L132.851,86.688L132.92,86.188L132.988,86.063L133.057,84.688L133.125,84.625L133.194,86.25L133.262,87.25L133.33,86.75L133.399,85.688L133.467,86.313L133.536,86.125L133.604,85.563L133.673,86.75L133.741,87.438L133.81,86.313L133.878,85.063L133.946,85.188L134.015,84.75L134.083,85.375L134.152,86.313L134.22,88.188L134.289,86.875L134.357,85.563L134.426,86.313L134.494,86.313L134.563,86.063L134.631,87.875L134.699,89.75L134.768,89.063L134.836,88.063L134.905,88.313L134.973,88.313L135.042,88.813L135.11,90.063L135.179,90.938L135.247,88.938L135.315,87.625L135.384,86.938L135.452,86.625L135.521,86.5L135.589,87.688L135.658,89.688L135.726,89L135.795,87.75L135.863,87.375L135.931,88L136,87.688L136.068,88.438L136.137,89.063L136.205,87.125L136.274,86L136.342,86.938L136.411,87.313L136.479,87.937L136.547,89.938L136.616,91.438L136.684,90.438L136.753,88.188L136.821,88.625L136.89,87.937L136.958,87.937L137.027,89L137.095,89.688L137.163,88.563L137.232,87.125L137.3,87.25L137.369,86L137.437,86.188L137.506,86.938L137.574,88.313L137.643,87.25L137.711,85.688L137.779,84.937L137.848,85.625L137.916,86.75L137.985,87.75L138.053,89.563L138.122,89L138.19,87.75L138.259,88.625L138.327,87.813L138.396,87.75L138.464,88.313L138.532,88.313L138.601,86.188L138.669,83.938L138.738,84L138.806,85L138.875,84.688L138.943,85.438L139.012,86.25L139.08,84.875L139.148,83.063L139.217,82.688L139.285,82.313L139.354,82.188L139.422,84.438L139.491,85.75L139.559,84.063L139.628,83.438L139.696,83L139.764,81.813L139.833,80.5L139.901,77.687L139.97,76.938L140.038,74.563L140.107,69.937L140.175,68.75L140.244,68L140.312,67.438L140.38,68.312L140.449,68.438L140.517,67.625L140.586,67.062L140.654,66.25L140.723,66.313L140.791,65.313L140.86,65.875L140.928,66.75L140.996,65.813L141.065,65.125L141.133,64.5L141.202,65.188L141.27,66.063L141.339,67L141.407,67.812L141.476,65.375L141.544,61.5L141.612,62L141.681,60.938L141.749,61.75L141.818,64L141.886,66.5L141.955,69.313L142.023,68.813L142.092,68.688L142.16,71.063L142.228,71.625L142.297,73.688L142.365,74.625L142.434,74.625L142.502,73.625L142.571,73.25L142.639,73.813L142.708,74.375L142.776,75.5L142.845,77.625L142.913,77.063L142.981,76.313L143.05,77L143.118,77L143.187,77.375L143.255,78.188L143.324,79.125L143.392,78.562L143.461,78.125L143.529,79.125L143.597,81.188L143.666,82.188L143.734,83.25L143.803,84.125L143.871,82.875L143.94,81.563L144.008,81.375L144.077,82.438L144.145,83.563L144.213,85.25L144.282,86.562L144.35,85.25L144.419,84.063L144.487,83.313L144.556,85.063L144.624,85.313L144.693,86.188L144.761,88.063L144.829,88.687L144.898,87L144.966,86.125L145.035,87.25L145.103,87.75L145.172,89L145.24,90.5L145.309,89.125L145.377,88.188L145.445,88.75L145.514,90.313L145.582,91.375L145.651,93.438L145.719,94.625L145.788,93.625L145.856,93.5L145.925,94.063L145.993,94.375L146.061,95.25L146.13,95.938L146.198,97.125L146.267,96.25L146.338,96L146.407,96.125L146.475,97.625L146.543,98.313L146.612,98.313L146.68,100.25L146.749,99.25L146.817,98.625L146.886,98.125L146.954,99.063L147.023,99.688L147.091,100.125L147.159,100.688L147.228,99.375L147.296,98.563L147.365,99.75L147.433,99.813L147.502,100.25L147.57,98.5L147.639,99.188L147.707,98.125L147.775,97.5L147.844,98.125L147.912,97.688L147.981,98.375L148.049,99.625L148.118,99.875L148.186,99.5L148.255,98L148.323,97.688L148.392,97.813L148.46,97.375L148.528,98L148.597,99.063L148.665,98.375L148.734,96.813L148.802,97L148.871,97.125L148.939,97.438L149.008,98.188L149.076,99.563L149.144,99.313L149.213,98.563L149.281,99.125L149.35,98.688L149.418,98.563L149.487,99.938L149.555,99.625L149.624,100.125L149.692,99.375L149.76,99.875L149.829,99.438L149.897,100.125L149.966,101.063L150.034,102.063L150.103,101.688L150.171,101.125L150.24,100.5L150.308,101.25L150.376,101.5L150.445,102.313L150.513,103.688L150.582,103.25L150.65,102.625L150.719,102.625L150.787,102.75L150.856,103.125L150.924,102.813L150.992,102.688L151.061,100.813L151.129,99L151.198,97.688L151.266,97L151.335,96.813L151.403,97.625L151.472,98.563L151.54,98.125L151.608,97.938L151.677,98.063L151.745,97.813L151.814,97.063L151.882,97.875L151.951,97.688L152.019,95.625L152.088,93.375L152.156,93.188L152.225,92.375L152.293,91.938L152.361,92.375L152.43,93.25L152.498,91.25L152.567,90L152.635,89.625L152.704,88.687L152.772,88.563L152.841,89.688L152.909,90.188L152.977,89.25L153.046,88.188L153.114,88.375L153.183,88.313L153.251,88.5L153.32,90.375L153.388,91.188L153.457,90.563L153.525,88.5L153.593,87.688L153.662,87.125L153.73,86.5L153.799,87.625L153.867,88.687L153.936,88.063L154.004,87.375L154.073,88.063L154.141,88.563L154.209,88.687L154.278,90.125L154.346,91.438L154.415,90.563L154.483,88.563L154.552,88.938L154.62,88.188L154.689,87.438L154.757,88.188L154.825,89.5L154.894,88.313L154.96,87.5L155.028,86.375L155.096,85.375L155.165,84L155.233,85.938L155.302,86.813L155.37,85.563L155.439,85.188L155.507,85.188L155.576,85.938L155.644,85.313L155.712,86.063L155.781,87.062L155.849,83.938L155.918,83.438L155.986,82.313L156.055,81.875L156.123,82.563L156.192,83.625L156.26,84.438L156.328,83.938L156.397,81L156.465,80L156.534,79.688L156.602,80.813L156.671,80.25L156.739,79.188L156.808,78.625L156.876,76.437L156.944,75L157.013,74.75L157.081,77.563L157.15,78.75L157.218,79.938L157.287,78.438L157.355,77.563L157.424,77.375L157.492,78.125L157.56,78.813L157.629,78.813L157.697,78.25L157.766,77.563L157.834,76.188L157.903,77.313L157.971,77.187L158.04,78.625L158.108,80.313L158.176,79.125L158.245,76.938L158.313,73.875L158.382,73.5L158.45,76.313L158.519,78.313L158.724,78.313L158.792,76L158.861,75.875L158.929,77.25L158.998,76.5L159.066,78.063L159.135,79.875L159.203,78.625L159.272,76.75L159.34,76.625L159.409,76.5L159.477,75.875L159.545,76.688L159.614,78.25L159.682,76.437L159.751,73.688L159.819,72.062L159.888,70.938L159.956,69.688L160.025,72L160.093,72.813L160.161,71.188L160.23,69.75L160.298,67.75L160.367,67.625L160.435,68.063L160.504,71.125L160.572,71.938L160.641,71.438L160.709,69.25L160.777,68.563L160.846,68.813L160.914,69.5L160.983,69.937L161.051,72L161.12,70.688L161.188,69.375L161.257,70.188L161.325,70.063L161.393,70.5L161.462,71L161.53,72.188L161.599,70.438L161.667,68.063L161.736,66.688L161.804,67.75L161.873,68.563L161.941,71.188L162.009,73.375L162.078,70.5L162.146,70L162.215,70.25L162.283,70.625L162.352,71.188L162.42,73.188L162.489,74.875L162.557,72.375L162.625,70.375L162.694,69.187L162.762,69.438L162.831,71.438L162.899,72.813L162.968,74.875L163.036,74.375L163.105,71.938L163.173,71.688L163.242,73.063L163.31,73.125L163.378,74.625L163.447,76L163.515,75.688L163.584,73.875L163.652,73.688L163.721,73.625L163.789,74.875L163.858,76.125L163.926,77.75L163.994,76L164.063,74.813L164.131,75.688L164.2,75.25L164.268,74.438L164.337,75.063L164.405,76.437L164.474,74.125L164.542,72.563L164.61,72.25L164.679,72.313L164.747,72.313L164.816,73.875L164.884,75.25L164.953,75.438L165.021,73.813L165.09,72.813L165.158,72.563L165.226,73.063L165.295,73.5L165.363,74.875L165.432,74.188L165.5,72.062L165.569,72.313L165.637,72.813L165.706,73.25L165.774,74.813L165.842,77L165.911,75.375L165.979,72.75L166.048,73.625L166.116,73.375L166.185,73.75L166.253,74.75L166.322,77.625L166.39,76.75L166.458,75.438L166.527,76.125L166.595,76.437L166.664,77.875L166.732,80L166.801,82.125L166.869,81.25L166.938,79L167.006,78.75L167.074,79.438L167.143,80.563L167.211,82.438L167.28,83.687L167.348,83.813L167.417,83.125L167.485,82.188L167.554,83.125L167.622,83.438L167.691,85.5L167.759,87.062L167.827,86.188L167.896,84.563L167.964,85.5L168.033,87.438L168.101,87.5L168.17,89.25L168.238,91L168.307,91.125L168.375,90.375L168.443,91L168.512,90.438L168.58,90.25L168.649,91.813L168.717,92.938L168.786,91.813L168.854,91.625L168.923,91.625L168.991,92.875L169.059,93.563L169.128,94.375L169.196,94.5L169.265,94.125L169.333,93.188L169.402,91.5L169.47,90.75L169.539,91.688L169.607,92.313L169.675,93.5L169.744,90.5L169.812,89.375L169.881,89.625L169.949,89.188L170.018,89.5L170.086,90.625L170.155,91.438L170.223,90.688L170.291,88.75L170.36,87.75L170.428,88.438L170.497,88.75L170.565,90.75L170.634,92.813L170.702,90.313L170.771,88.687L170.839,87.625L170.907,86.562L170.976,86.562L171.044,87.188L171.113,87.438L171.181,85.438L171.253,85L171.321,85.063L171.389,85.438L171.458,86.375L171.526,88L171.595,86.875L171.663,86.375L171.732,85L171.8,87.188L171.869,87.062L171.937,87.937L172.005,89.938L172.074,90.688L172.142,89.25L172.211,89.375L172.279,89.375L172.348,90.438L172.416,91.438L172.485,90.625L172.553,91.875L172.621,91.875L172.69,89.75L172.758,91.562L172.827,92.125L172.895,93.875L172.964,95.375L173.032,97.5L173.101,97.625L173.169,96.438L173.238,97L173.306,97.312L173.374,97.25L173.443,97.438L173.511,97.938L173.58,96.625L173.648,97.688L173.717,97.375L173.785,97.25L173.854,96.75L173.922,97.625L173.99,97.813L174.059,96.5L174.127,95.563L174.196,95.375L174.264,94.313L174.333,95.125L174.401,94.438L174.47,95.438L174.538,94.813L174.606,93.062L174.675,91.75L174.743,92.625L174.812,92.625L174.88,93.438L174.949,93.5L175.017,91.938L175.086,86.562L175.154,84.438L175.222,84.937L175.291,85.063L175.359,86.375L175.428,86.875L175.496,86.063L175.565,85.063L175.633,86.188L175.702,86.063L175.77,86.063L175.838,85.938L175.907,86.5L175.975,85.063L176.044,83.813L176.112,82.75L176.181,82.938L176.249,83.25L176.318,83.375L176.386,81.125L176.454,82.25L176.523,81L176.591,81.5L176.66,81.625L176.728,82.188L176.797,82.875L176.865,82.688L176.934,82.125L177.002,81.813L177.07,81.688L177.139,85.563L177.207,85.75L177.276,86.188L177.344,86.313L177.413,84.688L177.481,84.25L177.55,83.75L177.618,83.875L177.687,82.188L177.755,82.938L177.823,83.438L177.892,83.063L177.96,82.125L178.029,83.75L178.097,83.125L178.166,83.563L178.234,84.25L178.303,84.625L178.371,85.125L178.439,85.375L178.508,83.625L178.576,82.75L178.645,82.688L178.713,83.813L178.782,84.375L178.85,83.563L178.919,82.938L178.987,82.563L179.055,82.375L179.124,82.812L179.192,83.188L179.261,83.75L179.329,82.938L179.398,83.438L179.466,83.563L179.535,83.5L179.603,84.438L179.671,85.75L179.74,87.75L179.808,87.813L179.874,87.5L179.942,87.875L180.011,87.937L180.079,87.625L180.148,89.5L180.216,90.938L180.285,89.375L180.353,89.25L180.422,87.75L180.49,88.25L180.558,88.313L180.627,90L180.695,90.938L180.764,89.25L180.832,88L180.901,87.313L180.969,86.625L181.038,85.563L181.106,86L181.174,86.625L181.243,85.063L181.311,84.188L181.38,83.5L181.448,82.188L181.517,82.125L181.585,82.125L181.654,82.5L181.722,80.5L181.79,79.375L181.859,78.562L181.927,78.625L181.996,78.813L182.064,80.063L182.133,80.375L182.201,79.063L182.27,76.875L182.338,76.813L182.406,76.375L182.475,76.938L182.543,78.188L182.612,79.312L182.68,77.75L182.749,75.688L182.817,76.563L182.886,75.938L182.954,75.063L183.022,76.563L183.091,78.813L183.159,78.375L183.228,77.563L183.296,78.25L183.365,78.188L183.433,78.5L183.502,79.625L183.57,81.188L183.638,80.063L183.707,78.5L183.775,79.063L183.844,79.063L183.912,79.188L183.981,79.375L184.049,80.25L184.118,78.25L184.186,76.437L184.255,76L184.323,76.688L184.391,77.125L184.46,77.75L184.528,78.875L184.597,78.375L184.665,77.375L184.734,77.187L184.802,78.125L184.871,77.5L184.939,79.063L185.007,81.563L185.076,79.688L185.144,78.562L185.213,77.875L185.281,76.75L185.35,76.938L185.418,78.5L185.487,79.625L185.555,79.5L185.623,78.313L185.692,78.813L185.76,79.438L185.829,79.063L185.897,79.813L185.966,80.813L186.034,79.063L186.103,78L186.171,77.938L186.239,79L186.308,80.063L186.376,80.687L186.445,82.063L186.513,80.938L186.582,79.75L186.65,79.063L186.719,79.75L186.787,80.687L186.855,81.625L186.924,82.5L186.992,81.5L187.061,80.625L187.129,80.938L187.198,80.563L187.266,80.438L187.335,82.188L187.403,83.375L187.471,82.438L187.54,80.875L187.608,80.438L187.677,79.25L187.745,79.312L187.814,79.875L187.882,81.688L187.951,79.813L188.019,77.563L188.087,78.438L188.156,78.438L188.224,79.188L188.293,80.188L188.361,80.563L188.43,80.375L188.498,79.563L188.567,79.438L188.635,79.125L188.704,77.875L188.772,77.687L188.84,77.875L188.909,76.063L188.977,74.75L189.046,73.5L189.114,73.25L189.183,72.563L189.251,72.938L189.32,74.063L189.388,72.25L189.456,69.5L189.525,69.25L189.593,69.25L189.662,69.875L189.73,70.75L189.799,72.062L189.867,71.75L189.936,70.688L190.004,70.063L190.072,70.75L190.141,69.75L190.209,70.625L190.278,72.062L190.346,69.5L190.415,68.25L190.483,67.625L190.552,66.125L190.62,67.125L190.688,68.875L190.757,70.75L190.825,69.625L190.894,67.563L190.962,68.125L191.031,67.812L191.099,69.313L191.168,70.188L191.236,73.313L191.304,73.25L191.373,72L191.441,72.938L191.51,73.563L191.578,74.625L191.647,76.625L191.715,77.313L191.784,77.25L191.852,75.688L191.92,75.125L191.989,74.625L192.057,76.188L192.126,77.563L192.194,80.188L192.263,80.625L192.331,79.688L192.4,80.625L192.468,82L192.537,83.313L192.605,85.875L192.673,86.75L192.742,86.125L192.81,85.75L192.879,86.25L192.947,87.438L193.016,87.625L193.084,89.75L193.153,91.063L193.221,89.875L193.289,88.25L193.358,88.25L193.426,89.125L193.495,90.125L193.563,92L193.632,92.5L193.7,90.688L193.769,88.625L193.837,88.125L193.905,88.563L193.974,88.25L194.042,89.313L194.111,90.188L194.179,89.25L194.248,87.75L194.316,87L194.385,86.25L194.453,87L194.521,86.375L194.59,86.562L194.658,84.75L194.727,83.438L194.795,81.813L194.864,81.563L194.932,81.563L195.001,82.875L195.069,83.563L195.137,82.25L195.206,80.563L195.274,80.938L195.343,82.313L195.411,82.563L195.48,83.375L195.548,84L195.617,83.188L195.685,82.563L195.753,82.688L195.822,83.687L195.89,83.938L195.959,84.937L196.027,86.625L196.096,86.063L196.167,84.875L196.235,85.25L196.304,86.313L196.372,86.188L196.441,87.75L196.509,88.938L196.578,87.062L196.646,84.063L196.715,82.375L196.783,81.5L196.851,82.625L196.92,83.125L196.988,84.25L197.057,83.313L197.125,83.313L197.194,84L197.262,84.688L197.331,85.063L197.399,85L197.467,86.438L197.536,87.062L197.604,85.938L197.673,85.375L197.741,84.688L197.81,84.563L197.878,85.375L197.947,87.125L198.015,87.25L198.084,85.812L198.152,84.563L198.22,83.25L198.289,82.75L198.357,82.25L198.426,83.938L198.494,82.5L198.563,81L198.631,81.625L198.7,83.25L198.768,84.937L198.836,86L198.905,86.688L198.973,87.625L199.042,86.688L199.11,86.5L199.179,86.063L199.247,84.875L199.316,85.375L199.384,86L199.452,85L199.521,83L199.589,81.188L199.658,81L199.726,81.75L199.795,83.125L199.863,84.75L199.932,83.938L200,82.812L200.068,81.875L200.137,82.563L200.205,83.687L200.274,85.938L200.342,87.375L200.411,87L200.479,85.313L200.548,85.938L200.616,86.5L200.684,87.688L200.753,88.313L200.821,89.625L200.89,89.938L200.958,88.938L201.027,88.188L201.095,88.125L201.164,88.5L201.232,89.5L201.3,91.188L201.369,91.375L201.437,90.25L201.506,88.563L201.574,89.563L201.643,90.188L201.711,89.438L201.78,89.813L201.848,88.813L201.916,88L201.985,87.625L202.053,86.313L202.122,85.063L202.19,85.188L202.259,84.937" stroke="#4c78a8" stroke-width="2"/></g><g class="mark-group role-title"><g transform="translate(100,-22)"><path class="background" aria-hidden="true" d="M0,0h0v0h0Z" pointer-events="none"/><g><g class="mark-text role-title-text" role="graphics-symbol" aria-roledescription="title" aria-label="Title text 'Building/Use: Illegal Conversion Of Residential Building/Space'" pointer-events="none"><text text-anchor="middle" transform="translate(0,10)" font-family="sans-serif" font-size="13px" font-weight="bold" fill="#000" opacity="1">Building/Use: Illegal Conversion Of Residential Building/Space</text></g></g><path class="foreground" aria-hidden="true" d="" pointer-events="none" display="none"/></g></g></g><path class="foreground" aria-hidden="true" d="" display="none"/></g></g></g><defs><clipPath id="clip131"><rect x="0" y="0" width="200" height="150"/></clipPath></defs></svg>