<svg xmlns="http://www.w3.org/2000/svg" xmlns:xlink="http://www.w3.org/1999/xlink" version="1.1" class="marks" width="230" height="199" viewBox="0 0 230 199"><rect width="230" height="199" fill="white"/><g fill="none" stroke-miterlimit="10" transform="translate(24,27)"><g class="mark-group role-frame root" role="graphics-object" aria-roledescription="group mark container"><g transform="translate(0,0)"><path class="background" aria-hidden="true" d="M0,0h200v150h-200Z"/><g><g class="mark-group role-axis" aria-hidden="true"><g transform="translate(0.5,0.5)"><path class="background" aria-hidden="true" d="M0,0h0v0h0Z" pointer-events="none"/><g><g class="mark-rule role-axis-grid" pointer-events="none"><line transform="translate(0,150)" x2="200" y2="0" stroke="#ddd" stroke-width="1" opacity="1"/><line transform="translate(0,113)" x2="200" y2="0" stroke="#ddd" stroke-width="1" opacity="1"/><line transform="translate(0,75)" x2="200" y2="0" stroke="#ddd" stroke-width="1" opacity="1"/><line transform="translate(0,38)" x2="200" y2="0" stroke="#ddd" stroke-width="1" opacity="1"/><line transform="translate(0,0)" x2="200" y2="0" stroke="#ddd" stroke-width="1" opacity="1"/></g></g><path class="foreground" aria-hidden="true" d="" pointer-events="none" display="none"/></g></g><g class="mark-group role-axis" role="graphics-symbol" aria-roledescription="axis" aria-label="X-axis for a time scale with values from Friday, 01 January 2016, 12:00:00 AM to Monday, 01 January 2024, 12:00:00 AM"><g transform="translate(0.5,150.5)"><path class="background" aria-hidden="true" d="M0,0h0v0h0Z" pointer-events="none"/><g><g class="mark-rule role-axis-tick" pointer-events="none"><line transform="translate(0,0)" x2="0" y2="5" stroke="#888" stroke-width="1" opacity="1"/><line transform="translate(50,0)" x2="0" y2="5" stroke="#888" stroke-width="1" opacity="1"/><line transform="translate(100,0)" x2="0" y2="5" stroke="#888" stroke-width="1" opacity="1"/><line transform="translate(150,0)" x2="0" y2="5" stroke="#888" stroke-width="1" opacity="1"/><line transform="translate(200,0)" x2="0" y2="5" stroke="#888" stroke-width="1" opacity="1"/></g><g class="mark-text role-axis-label" pointer-events="none"><text text-anchor="start" transform="translate(0,15)" font-family="sans-serif" font-size="10px" fill="#000" opacity="1">2016</text><text text-anchor="middle" transform="translate(50.03422313483915,15)" font-family="sans-serif" font-size="10px" fill="#000" opacity="1">2018</text><text text-anchor="middle" transform="translate(100,15)" font-family="sans-serif" font-size="10px" fill="#000" opacity="1">2020</text><text text-anchor="middle" transform="translate(150.03422313483915,15)" font-family="sans-serif" font-size="10px" fill="#000" opacity="1">2022</text><text text-anchor="end" transform="translate(200,15)" font-family="sans-serif" font-size="10px" fill="#000" opacity="1">2024</text></g><g class="mark-rule role-axis-domain" pointer-events="none"><line transform="translate(0,0)" x2="200" y2="0" stroke="#888" stroke-width="1" opacity="1"/></g></g><path class="foreground" aria-hidden="true" d="" pointer-events="none" display="none"/></g></g><g class="mark-group role-axis" role="graphics-symbol" aria-roledescription="axis" aria-label="Y-axis for a linear scale with values from 0 to 20"><g transform="translate(0.5,0.5)"><path class="background" aria-hidden="true" d="M0,0h0v0h0Z" pointer-events="none"/><g><g class="mark-rule role-axis-tick" pointer-events="none"><line transform="translate(0,150)" x2="-5" y2="0" stroke="#888" stroke-opacity="0" stroke-width="1" opacity="1"/><line transform="translate(0,113)" x2="-5" y2="0" stroke="#888" stroke-opacity="0" stroke-width="1" opacity="1"/><line transform="translate(0,75)" x2="-5" y2="0" stroke="#888" stroke-opacity="0" stroke-width="1" opacity="1"/><line transform="translate(0,38)" x2="-5" y2="0" stroke="#888" stroke-opacity="0" stroke-width="1" opacity="1"/><line transform="translate(0,0)" x2="-5" y2="0" stroke="#888" stroke-opacity="0" stroke-width="1" opacity="1"/></g><g class="mark-text role-axis-label" pointer-events="none"><text text-anchor="end" transform="translate(-7,153)" font-family="sans-serif" font-size="10px" fill="#000" opacity="1">0</text><text text-anchor="end" transform="translate(-7,115.5)" font-family="sans-serif" font-size="10px" fill="#000" opacity="1">5</text><text text-anchor="end" transform="translate(-7,78)" font-family="sans-serif" font-size="10px" fill="#000" opacity="1">10</text><text text-anchor="end" transform="translate(-7,40.5)" font-family="sans-serif" font-size="10px" fill="#000" opacity="1">15</text><text text-anchor="end" transform="translate(-7,3)" font-family="sans-serif" font-size="10px" fill="#000" opacity="1">20</text></g></g><path class="foreground" aria-hidden="true" d="" pointer-events="none" display="none"/></g></g><g class="mark-line role-mark marks" clip-path="url(#clip159)" role="graphics-object" aria-roledescription="line mark container"><path aria-label="day: Jun 01, 2019; avg: 14.1666666667" role="graphics-symbol" aria-roledescription="line mark" d="M85.35,43.75L85.692,42.25L85.76,40.25L85.829,37.75L85.897,36.75L85.966,38.75L86.034,42L86.103,46.75L86.171,47L86.239,48L86.308,51.5L86.376,55L86.445,56.5L86.513,59L86.582,60.25L86.65,60.5L86.719,59.25L86.787,60L86.855,61.25L86.924,62.25L86.992,64.75L87.061,65.5L87.129,64L87.198,64.5L87.266,65L87.335,65.75L87.403,64L87.471,64.5L87.54,64.25L87.608,64.25L87.677,62.75L87.745,62L87.814,61.75L87.882,60.75L87.951,60.25L88.019,58.75L88.087,58.25L88.156,58.25L88.224,60L88.293,59.25L88.361,58.75L88.43,59L88.498,60.5L88.567,62L88.635,61.25L88.704,64.5L88.772,65L88.84,64.75L88.909,64.25L88.977,64.5L89.046,63.75L89.114,63.25L89.183,64L89.251,63.75L89.32,64L89.388,64.5L89.456,64.75L89.525,62.75L89.593,64.25L89.662,63.75L89.73,65.25L89.799,64.75L89.867,64L89.936,66.25L90.004,68.5L90.072,68.75L90.141,68.5L90.209,65.5L90.278,64L90.346,65L90.415,64.5L90.483,63.75L90.552,61.25L90.62,60L90.688,60L90.757,58.25L90.825,58.25L90.894,56.25L90.962,57.5L91.031,56.25L91.099,56L91.168,54.75L91.236,56L91.304,56.5L91.373,56.75L91.441,56.25L91.51,56L91.578,57L91.647,54.25L91.715,55.5L91.784,53.5L91.852,53L91.92,52.5L91.989,49.75L92.057,47.5L92.126,47.25L92.194,49L92.263,50.25L92.331,50L92.4,50L92.468,50.5L92.537,50L92.605,51L92.673,51.5L92.742,49.75L92.81,48.75L92.879,48.75L92.947,48.5L93.016,46.5L93.084,46L93.153,46.75L93.221,48L93.289,47L93.358,47.25L93.426,44L93.495,45L93.563,46L93.632,46.25L93.7,47L93.769,46.25L93.837,44.5L93.905,43L93.974,43.25L94.042,42.5L94.111,44.5L94.179,45.75L94.248,43.25L94.316,43L94.385,41.5L94.453,42L94.521,43L94.59,43.5L94.658,42.25L94.727,42.5L94.795,44L94.864,42.5L94.932,44L95.001,45L95.069,47.5L95.137,48.5L95.206,46.5L95.274,45L95.343,44.75L95.411,45.25L95.48,45.75L95.548,43.5L95.617,44.25L95.685,45.5L95.753,45.25L95.822,42.75L95.89,45L95.959,45.75L96.03,46.75L96.099,49L96.167,44.75L96.235,42.75L96.304,42L96.372,39.25L96.441,36.75L96.509,35.75L96.578,34.25L96.646,31.5L96.715,27.5L96.783,26.5L96.851,23.75L96.92,25L96.988,23L97.057,22L97.125,20L97.194,20L97.262,17.75L97.331,18.5L97.399,17.25L97.467,17.5L97.536,19L97.604,20.75L97.673,18.75L97.741,17L97.81,17L97.878,14.5L97.947,14L98.015,14.25L98.084,12.75L98.152,11.75L98.22,13.25L98.289,15.5L98.357,17.25L98.426,20.75L98.494,24.5L98.563,24.25L98.631,24.75L98.7,26.5L98.768,32L98.836,33.25L98.905,36.75L98.973,38L99.042,40.75L99.11,43.25L99.179,46.25L99.247,48.5L99.316,52.25L99.384,51.75L99.452,55L99.521,54L99.589,54L99.658,51.5L99.726,50L99.795,52.25L99.863,54.25L99.932,58L100,59.5L100.068,58L100.137,59.25L100.205,60.25L100.274,61.5L100.342,62.75L100.411,62L100.479,61.25L100.548,61.75L100.616,60.5L100.684,60L100.753,61L100.821,58.75L100.89,60.25L100.958,60.5L101.027,61.25L101.095,58.25L101.164,58L101.232,57.75L101.3,53.5L101.369,53.25L101.437,52.75L101.506,51.5L101.574,52.5L101.643,51.25L101.711,52.75L101.78,55.25L101.848,51.75L101.916,49.5L101.985,48.75L102.053,47L102.122,49.5L102.19,48L102.259,48.5L102.327,46L102.396,42L102.464,40L102.533,38.75L102.601,38.75L102.669,40.25L102.738,42L102.806,42.25L102.875,44L102.943,42.5L103.012,44.5L103.08,46.5L103.149,50L103.217,51.5L103.285,53.5L103.354,58.25L103.422,61L103.491,65.25L103.559,67.75L103.628,70.5L103.696,75L103.765,77.5L103.833,80.25L103.901,84.25L103.97,88.25L104.038,92L104.107,95.25L104.175,98L104.244,102L104.312,104.25L104.381,109.75L104.449,114.25L104.517,118.75L104.586,123.25L104.651,126L104.72,129L104.788,130.75L104.857,132.75L104.925,135L104.994,137.5L105.062,137.5L105.131,137.25L105.199,138.25L105.268,139L105.404,139.25L105.473,139.25L105.541,139L105.747,139.25L105.884,139.25L106.294,139L106.363,138.25L106.636,138.75L106.705,138.75L106.842,138.75L107.8,138.5L108.211,138L108.348,137.75L108.553,137.5L108.621,137.25L108.69,137L108.964,137L109.237,137L109.785,137.5L109.99,137.5L110.127,137.5L110.538,137.5L110.675,137.5L110.88,136.75L111.085,137L111.291,136.25L111.359,136.5L111.428,136.75L111.496,135.75L111.633,135.75L111.77,135.75L111.838,136L111.907,136.25L111.975,136.25L112.044,135L112.112,135.25L112.181,136L112.249,135.25L112.317,135.25L112.454,134.75L112.797,134.75L112.865,134.75L113.002,134.75L113.07,135L113.207,135.25L113.276,135L113.344,134.5L113.413,134L113.481,133.75L113.55,133.75L113.686,133.75L113.755,134.25L113.892,133.75L113.96,134L114.029,134L114.097,134.5L114.234,134.25L114.302,134.5L114.371,135.25L114.439,135L114.508,135L114.576,135L114.645,135L114.713,134.75L114.782,135.25L114.918,135L114.987,134L115.055,134.25L115.192,134L115.261,134L115.329,134.25L115.398,134.5L115.466,133.75L115.534,133L115.603,132.75L115.671,132.25L115.74,132.75L115.808,133L115.877,133.25L115.945,132.75L116.014,132.5L116.082,132L116.15,132.5L116.287,133L116.356,132.5L116.424,132.25L116.493,131.75L116.561,131L116.63,130.5L116.698,130.5L116.766,130.5L116.835,130L116.903,129L116.972,129L117.04,129.75L117.177,129.75L117.246,129.5L117.314,129.75L117.383,129.5L117.451,129.25L117.588,128.75L117.656,128.75L117.725,129.5L117.793,129.75L117.862,129L117.93,129.25L118.067,128.75L118.135,128.75L118.204,128L118.272,128.25L118.341,128L118.409,127.75L118.478,127.25L118.546,127L118.615,127.5L118.683,128L118.751,128.5L118.82,128.5L118.888,129L118.957,128.75L119.025,128.5L119.094,126L119.162,127L119.231,126.5L119.299,126.25L119.367,126L119.436,126.75L119.504,126.25L119.573,125.75L119.641,126.25L119.778,126.25L119.847,126L119.915,126L119.983,126L120.12,126L120.189,126.75L120.257,127.25L120.326,127.25L120.394,128L120.463,128.25L120.531,128.75L120.599,128.75L120.668,129L120.736,128.75L120.805,128.75L120.873,128.5L120.945,128.75L121.013,128.75L121.081,128.5L121.15,128.75L121.218,128L121.287,130.5L121.355,130.75L121.424,131.25L121.492,130.75L121.561,131.25L121.629,131.5L121.697,131.75L121.766,131L121.834,130L121.903,130L121.971,130L122.04,129.75L122.108,130.25L122.177,131.25L122.245,130.75L122.313,130.25L122.382,129.75L122.45,129.5L122.519,128.5L122.656,128L122.724,128.5L122.793,128.5L122.861,128.5L122.93,128L122.998,127.5L123.066,126.25L123.135,127L123.203,127.25L123.272,127.5L123.34,128.25L123.409,128.75L123.477,128.5L123.546,128L123.614,128.25L123.682,127.75L123.751,127.75L123.819,128.25L123.888,130L123.956,131L124.025,131.25L124.093,131.25L124.162,131L124.23,131L124.298,130.75L124.367,131L124.435,131.5L124.778,132.25L124.846,132L124.914,132.75L124.983,132.75L125.051,132.75L125.12,132L125.188,132.25L125.257,132.25L125.325,132.75L125.394,132.25L125.462,132.25L125.53,132.5L125.599,131.5L125.667,131.5L125.736,130.5L125.804,130.25L125.873,131L125.941,131.5L126.078,132L126.146,131.25L126.215,131L126.283,131L126.352,130.25L126.42,129.25L126.489,129.5L126.557,129.5L126.626,129.25L126.694,128.75L126.762,128.75L126.831,127.5L126.899,127.5L126.968,128L127.036,128.25L127.105,128.5L127.173,128L127.242,128.75L127.31,128.75L127.379,129.25L127.447,129L127.515,130.25L127.584,129.5L127.652,129.25L127.721,129.25L127.789,128.5L127.858,129.25L127.926,128.75L127.995,128L128.063,127.5L128.2,127L128.268,127.5L128.337,127.5L128.405,126.25L128.474,126.5L128.611,126.5L128.679,126.5L128.747,126.5L128.816,126.75L128.884,126.75L128.953,124.75L129.021,125.5L129.09,125L129.158,124L129.295,124L129.363,122.75L129.432,122.75L129.5,122.25L129.569,122.25L129.637,121.75L129.706,122L129.774,122.25L129.843,122.25L129.911,121.75L130.045,122.5L130.114,122L130.182,122L130.25,123L130.319,123.25L130.456,123.5L130.524,123.5L130.593,123.25L130.661,122.75L130.73,123.75L130.798,124L130.866,124.75L130.935,123L131.003,123.25L131.072,123L131.14,121.75L131.209,123.5L131.277,123.75L131.346,122.5L131.414,122.25L131.482,121.75L131.551,122L131.619,121.75L131.688,121.75L131.756,120.5L131.825,120.25L131.893,119.5L132.03,118.75L132.098,118.5L132.167,118.75L132.235,118.75L132.304,119.5L132.372,118.75L132.441,117.25L132.509,116.5L132.578,115.5L132.646,114.5L132.714,115L132.783,115.25L132.851,115.25L132.92,114.5L132.988,113.75L133.057,115.25L133.125,114.25L133.194,114L133.262,115.25L133.33,114.25L133.399,114.25L133.536,114L133.604,114.5L133.673,114L133.741,114L133.81,113.25L133.878,111.75L133.946,111.25L134.015,110.5L134.083,111.25L134.152,111.25L134.22,110.75L134.289,109.25L134.357,108L134.426,107L134.494,107.25L134.563,107.75L134.631,108.75L134.699,108.75L134.768,108.5L134.836,106L134.905,106L134.973,105.5L135.042,106.25L135.11,105.75L135.179,104.75L135.247,104.75L135.315,103.25L135.384,103.75L135.521,104L135.589,104.25L135.658,105.25L135.726,104.75L135.795,104.75L135.863,105L135.931,106L136,105.25L136.068,105.75L136.137,106.25L136.205,104.25L136.274,103.75L136.342,104L136.411,105.5L136.479,104.25L136.547,104.75L136.616,104.5L136.684,103.25L136.753,103.25L136.821,101.75L136.89,101L136.958,102.75L137.027,101.75L137.095,100.5L137.163,98L137.232,97.75L137.3,97.5L137.369,98L137.437,99L137.506,98.5L137.574,97.25L137.643,94.75L137.711,95.25L137.779,95.5L137.848,95.5L137.916,95.25L137.985,94L138.053,95L138.122,95.75L138.19,96L138.259,97.25L138.327,98.25L138.396,97.25L138.464,95.75L138.532,98.25L138.601,98L138.669,97.75L138.738,99.5L138.806,99L138.875,99.25L138.943,100L139.012,99.75L139.08,100L139.148,101.25L139.217,103L139.285,104L139.354,105L139.422,104L139.491,103.75L139.559,103.25L139.628,104.75L139.696,105.5L139.764,103.75L139.833,103L139.901,103.25L139.97,103.75L140.038,104.25L140.107,104.75L140.175,103L140.244,102.5L140.312,102.75L140.38,101L140.449,101.5L140.517,102L140.586,100L140.654,100.5L140.723,98.25L140.791,96.75L140.86,96L140.928,96L140.996,95.5L141.065,95.5L141.133,95L141.202,95L141.27,95.5L141.339,94.25L141.407,93.25L141.476,93.25L141.544,92.25L141.612,91L141.681,91.75L141.749,92L141.818,93.75L141.886,95.25L141.955,93.75L142.023,92.25L142.092,91.5L142.16,91.25L142.228,91.5L142.297,92L142.365,91.5L142.434,90.5L142.502,91L142.571,91.25L142.639,89.75L142.708,88.75L142.776,91L142.845,92.5L142.913,92.5L142.981,94L143.05,94L143.118,92.75L143.187,91.25L143.255,89L143.324,87.25L143.392,87L143.461,86.5L143.529,86.5L143.597,86.5L143.666,85.75L143.734,82.75L143.803,80.5L143.871,76.75L143.94,76.5L144.008,76.75L144.077,76L144.145,75.75L144.213,74.5L144.282,75.5L144.35,74L144.419,71.5L144.487,73L144.556,71.25L144.624,69.75L144.693,70L144.761,70.25L144.829,69L144.898,69.25L144.966,68.75L145.035,66.75L145.103,65.25L145.172,64.25L145.24,65.75L145.309,65.25L145.377,65.5L145.445,66.25L145.514,66.5L145.582,66L145.651,66.25L145.719,66.25L145.788,69L145.856,69.25L145.925,71L145.993,68.75L146.061,68.25L146.13,69L146.198,69L146.267,68.5L146.338,67.5L146.407,68L146.475,69L146.543,67.75L146.612,68L146.68,67.75L146.749,68.25L146.817,67.5L146.886,69L146.954,66.75L147.023,65.25L147.091,65.5L147.159,66.5L147.228,67.5L147.296,68.5L147.365,69L147.433,69.5L147.502,69.75L147.57,70.75L147.639,71.5L147.707,70.75L147.775,72.5L147.844,70.5L147.912,72.75L147.981,73.75L148.049,74.25L148.118,76.25L148.186,76L148.255,78.25L148.323,80L148.392,81L148.46,81.75L148.528,82.75L148.597,85L148.665,87.25L148.734,89.5L148.802,91.25L148.871,92.25L148.939,92L149.008,93L149.076,95L149.144,97L149.213,97L149.281,98L149.35,97L149.418,97.75L149.487,97.5L149.555,96.75L149.624,96L149.692,96.75L149.76,97L149.829,96.75L149.897,98.25L149.966,98.5L150.034,99L150.103,97L150.171,96.5L150.24,96.5L150.308,95.5L150.376,94.75L150.445,93.75L150.513,92.25L150.582,91L150.65,90.25L150.719,89L150.787,88.25L150.856,87.5L150.924,87L150.992,86.75L151.061,84.25L151.129,84L151.198,82.75L151.266,84.25L151.335,82.25L151.403,83.5L151.472,85L151.54,86.25L151.608,86.25L151.677,85.5L151.745,84.5L151.814,85.75L151.882,86L151.951,86L152.019,85.5L152.088,85.5L152.156,87.75L152.225,85.75L152.293,84.75L152.361,84.25L152.43,85L152.498,83.25L152.567,84.25L152.635,84.75L152.704,83L152.772,82.75L152.841,83L152.909,83.5L152.977,82.5L153.046,82.5L153.114,84L153.183,84.75L153.251,83.25L153.32,82.5L153.388,83.5L153.457,81.5L153.525,80.5L153.593,79.75L153.662,80L153.73,80.5L153.799,79.5L153.867,79L153.936,78.25L154.004,78L154.073,78.25L154.141,78.5L154.209,77.5L154.278,77.75L154.346,80L154.415,80L154.483,79.25L154.552,80.5L154.62,80.5L154.689,80.5L154.757,82.5L154.825,82.5L154.894,79.75L154.96,80.25L155.028,80L155.096,79.5L155.165,80L155.233,80.5L155.302,82.5L155.37,81.25L155.439,82.5L155.507,83.5L155.576,82.5L155.644,81.75L155.712,81.75L155.781,82.5L155.849,84.25L155.918,84L155.986,83.75L156.055,81.75L156.123,80.5L156.192,79.5L156.26,80.75L156.328,80.5L156.397,80L156.465,80.5L156.534,78.75L156.602,79.25L156.671,79L156.739,79.75L156.808,79L156.876,79.75L156.944,81.5L157.013,80.75L157.081,82.5L157.15,82.75L157.218,84L157.287,81.5L157.355,81.5L157.424,83.25L157.492,81.75L157.56,82L157.629,82.75L157.697,83.75L157.766,84.25L157.834,83.25L157.903,84L157.971,84L158.04,85.5L158.108,87L158.176,89L158.245,90L158.313,89.75L158.382,91L158.45,91L158.519,90.25L158.587,92.75L158.656,93.75L158.724,94.25L158.792,93.75L158.861,93.75L158.929,92.75L158.998,93.25L159.066,92.25L159.135,92.75L159.203,91.75L159.272,90.5L159.34,91.75L159.409,91.75L159.477,90.25L159.545,91L159.614,90.5L159.682,90.75L159.751,90L159.819,91L159.888,92L159.956,90.25L160.025,92L160.093,89.75L160.161,90.5L160.23,89.25L160.298,88L160.367,88.5L160.435,87.5L160.504,89L160.572,89.25L160.641,90.75L160.709,90L160.777,89.5L160.846,90.25L160.914,89L160.983,90.75L161.051,91.5L161.12,93.5L161.188,92.75L161.257,93.5L161.325,94.75L161.393,95.75L161.462,95.5L161.53,97.5L161.599,97L161.667,96.25L161.736,96.25L161.804,96L161.873,94.75L161.941,94L162.009,95.25L162.078,93.75L162.146,95.5L162.215,94.75L162.283,95.25L162.352,94.5L162.42,94.5L162.489,95.25L162.557,93.75L162.625,92.75L162.694,91L162.762,91.25L162.831,92.5L162.899,93.25L162.968,95.75L163.036,95.25L163.105,95L163.173,93.5L163.242,94L163.31,93.75L163.378,93.25L163.447,92.75L163.515,92L163.584,91.5L163.652,92.25L163.721,94L163.789,95L163.858,95.75L163.926,96.5L163.994,96L164.063,96.25L164.131,96.75L164.2,96L164.268,95L164.337,95.75L164.405,96.5L164.474,96.5L164.542,95.75L164.61,95.5L164.679,95.25L164.747,95.25L164.816,95.75L164.884,94.75L164.953,94.25L165.021,93.5L165.09,94.25L165.158,92L165.226,93L165.295,93.5L165.363,95L165.432,94.75L165.5,92.25L165.569,93.5L165.637,92.5L165.706,93.5L165.774,93.25L165.842,93L165.911,92.5L165.979,93.5L166.048,94.25L166.116,94L166.185,93.5L166.253,93.75L166.322,96L166.39,95.25L166.458,96L166.527,96.25L166.595,97.25L166.664,97.75L166.732,97.75L166.801,97.75L166.869,96.25L166.938,95.5L167.006,94.75L167.074,94L167.143,92.5L167.211,95L167.28,95.25L167.348,94.25L167.417,93.5L167.485,93.25L167.554,95.25L167.622,92.5L167.691,92.25L167.759,89.25L167.827,86.5L167.896,85L167.964,84.75L168.033,80.5L168.101,78.5L168.17,77L168.238,77L168.307,75.75L168.375,75L168.443,72.75L168.512,71.5L168.58,69.5L168.649,69.25L168.717,68.75L168.786,69L168.854,69L168.923,69.5L168.991,69.5L169.059,69.25L169.128,69.5L169.196,70.5L169.265,68.5L169.333,67.5L169.402,65.5L169.47,66.25L169.539,65L169.607,65.75L169.675,68.5L169.744,68.5L169.812,70.75L169.881,72L169.949,72.75L170.018,72L170.086,75L170.155,78.25L170.223,78.25L170.291,78L170.36,78.5L170.428,79L170.497,81.5L170.565,83.25L170.634,85L170.702,83.75L170.771,82.75L170.839,83.25L170.907,82.75L170.976,81.75L171.044,82.5L171.113,82.25L171.181,80.75L171.253,79.5L171.321,80.75L171.389,79.25L171.458,80L171.526,79.5L171.595,80.5L171.663,79.25L171.732,78L171.8,79L171.869,77.25L171.937,77L172.005,76.25L172.074,77L172.142,75L172.211,74.5L172.279,75L172.348,75.5L172.416,76.5L172.485,75L172.553,75.5L172.621,75L172.69,75L172.758,76.25L172.827,76.75L172.895,77.25L172.964,78L173.032,80.5L173.101,81.25L173.169,81.25L173.238,83.75L173.306,84.75L173.374,85L173.443,86.75L173.511,89.25L173.58,88.25L173.648,88.5L173.717,89L173.785,89.5L173.854,88.5L173.922,90.5L173.99,90.25L174.059,92L174.127,91.5L174.196,93.25L174.264,91.25L174.333,92L174.401,92.25L174.47,93L174.538,93L174.606,92.5L174.675,93L174.743,92L174.812,91.25L174.88,91.25L174.949,92L175.017,92.5L175.086,90.75L175.154,89.5L175.222,91.75L175.291,89.5L175.359,88.75L175.428,89.75L175.496,88.25L175.565,87L175.633,87L175.702,87.25L175.77,86.75L175.838,87.5L175.907,89.5L175.975,89L176.044,90L176.112,89L176.181,91L176.249,90.75L176.318,90.5L176.386,90.25L176.454,90.5L176.523,88.25L176.591,87.75L176.66,86.25L176.728,82.5L176.797,83.75L176.865,84.25L176.934,84.5L177.002,84.5L177.07,84.75L177.139,86.5L177.207,86.25L177.276,84.75L177.344,87L177.413,86.25L177.481,85.5L177.55,88.25L177.618,87L177.687,87.25L177.755,88.5L177.823,89.5L177.892,87.5L177.96,85.75L178.029,85.75L178.097,86.75L178.166,87.25L178.234,85.25L178.303,85L178.371,85.5L178.439,84.25L178.508,83.5L178.576,84.25L178.645,84.75L178.713,86.25L178.782,89.25L178.85,88.5L178.919,89.75L178.987,89.75L179.055,88.75L179.124,88.25L179.192,86.75L179.261,88L179.329,87.75L179.398,87L179.466,89.25L179.535,89.25L179.603,88L179.671,90L179.74,90.5L179.808,89.75L179.874,91L179.942,93.25L180.011,94.5L180.079,94.25L180.148,93.75L180.216,94L180.285,93.75L180.353,94.25L180.422,95.5L180.49,96L180.558,94.75L180.627,95.25L180.695,95.75L180.764,93.75L180.832,94.25L180.901,94.5L180.969,93.75L181.038,92.75L181.106,90.5L181.174,90.25L181.243,88.5L181.311,88L181.38,89.75L181.448,89L181.517,87L181.585,87.25L181.654,88.25L181.722,88.5L181.79,88.25L181.859,86.25L181.927,84L181.996,83.5L182.064,84.25L182.133,84.5L182.201,84.75L182.27,84.5L182.338,86.5L182.406,86.75L182.475,85.25L182.543,86.25L182.612,89.25L182.68,88.5L182.749,88L182.817,88.25L182.886,88.5L182.954,89.25L183.022,89.25L183.091,92.25L183.159,95.5L183.228,95.75L183.296,98L183.365,97.5L183.433,95.25L183.502,95.5L183.57,97.25L183.638,94.75L183.707,93.75L183.775,91.75L183.844,91.5L183.912,92.5L183.981,93.75L184.049,93.75L184.118,91.25L184.186,91.25L184.255,91L184.323,90.5L184.391,87.75L184.46,87.75L184.528,88.5L184.597,89.25L184.665,86.5L184.734,86.25L184.802,86.25L184.871,87.25L184.939,86.75L185.007,84.75L185.076,84.25L185.144,83.25L185.213,82.5L185.281,82.25L185.35,82.5L185.418,84.25L185.487,85.75L185.555,86.25L185.623,86L185.692,88.25L185.76,88.5L185.829,88.25L185.897,88.75L185.966,89.5L186.034,87.5L186.103,86.5L186.171,87.5L186.239,88.25L186.308,87.75L186.376,87.75L186.445,90.75L186.513,86.5L186.582,87.25L186.65,86.25L186.719,87.75L186.787,88.75L186.855,89.25L186.924,89.25L186.992,88.75L187.061,89.75L187.129,91L187.198,90L187.266,88.75L187.335,88.25L187.403,88.75L187.471,87.75L187.54,87L187.608,87.25L187.677,85.75L187.745,84.75L187.814,85.5L187.882,88L187.951,88.75L188.019,89L188.087,90.75L188.156,91L188.224,91.25L188.293,91.25L188.361,92.5L188.43,93.75L188.498,93.25L188.567,97.5L188.635,97.75L188.704,98L188.772,99L188.84,99.25L188.909,99.5L188.977,99.75L189.046,100.5L189.114,100.5L189.183,99.5L189.251,100.25L189.32,101.5L189.388,102.75L189.456,102L189.525,102L189.593,101.75L189.662,102L189.73,102.25L189.799,103.75L189.867,104L189.936,102.25L190.004,101.25L190.072,101.75L190.141,101.25L190.209,101L190.278,101.5L190.346,101.25L190.415,99.25L190.483,97.75L190.552,97.25L190.62,97.5L190.688,97L190.757,97.5L190.825,95.5L190.894,95.75L190.962,96L191.031,96.25L191.099,95.25L191.168,94.25L191.236,94L191.304,93.25L191.373,93L191.441,91.75L191.51,89.75L191.578,88.75L191.647,90.25L191.715,90.25L191.784,90.75L191.852,90L191.92,89.75L191.989,90.75L192.057,90.5L192.126,91L192.194,92.5L192.263,92.25L192.331,91.5L192.4,89.5L192.468,91.25L192.537,92.5L192.605,93.25L192.673,93.5L192.742,93L192.81,91.75L192.879,91L192.947,92L193.016,92L193.084,90.5L193.153,90.5L193.221,90.5L193.289,91.75L193.358,91.25L193.426,91.5L193.495,90.75L193.563,93.25L193.632,94L193.7,92L193.769,90.25L193.837,90L193.905,91.5L193.974,91L194.042,91.25L194.111,91L194.179,88.25L194.248,88L194.316,89.5L194.385,90.25L194.453,92.5L194.521,92.25L194.59,91.5L194.658,88.5L194.727,87L194.795,87.25L194.864,88L194.932,88L195.001,87L195.069,87.75L195.137,89.25L195.206,88.25L195.274,88.75L195.343,88.25L195.411,89.75L195.48,90L195.548,92.25L195.617,92.75L195.685,93.5L195.753,94.5L195.822,96L195.89,95.75L195.959,93.25L196.027,93.5L196.096,92.75L196.167,93.25L196.235,95L196.304,94L196.372,92.25L196.441,90.5L196.509,89.25L196.578,87.5L196.646,85L196.715,87L196.783,86.75L196.851,85.5L196.92,85L196.988,87.25L197.057,85.75L197.125,83.5L197.194,82.25L197.262,82L197.331,82.5L197.399,82.25L197.467,82.5L197.536,83L197.604,82.25L197.673,81.25L197.741,80.75L197.81,80.75L197.878,79.25L197.947,80.75L198.015,82L198.084,80.5L198.152,81L198.22,82L198.289,81L198.357,80L198.426,81.75L198.494,83.5L198.563,85L198.631,87.75L198.7,89.75L198.768,91L198.836,91.75L198.905,93.75L198.973,92.5L199.042,90.5L199.11,92.25L199.179,92.25L199.247,94L199.316,95.75L199.384,96.75L199.452,96.5L199.521,96L199.589,96.5L199.658,97L199.726,96.5L199.795,96.5L199.863,96.25L199.932,97.25L200,95L200.068,95L200.137,96.5L200.205,94.5L200.274,93L200.342,93.75L200.411,93.5L200.479,92.5L200.548,91.5L200.616,91.25L200.684,90.5L200.753,92L200.821,92.5L200.89,92L200.958,92.25L201.027,94.25L201.095,95L201.164,96L201.232,98L201.3,95.5L201.369,95.5L201.437,95L201.506,96L201.574,95.25L201.643,94.75L201.711,93.5L201.78,94.25L201.848,94L201.916,95L201.985,94.25L202.053,95.25L202.122,94.75L202.19,94.25L202.259,96.25" stroke="#4c78a8" stroke-width="2"/></g><g class="mark-group role-title"><g transform="translate(100,-22)"><path class="background" aria-hidden="true" d="M0,0h0v0h0Z" pointer-events="none"/><g><g class="mark-text role-title-text" role="graphics-symbol" aria-roledescription="title" aria-label="Title text 'Lost Property: Bag/Wallet'" pointer-events="none"><text text-anchor="middle" transform="translate(0,10)" font-family="sans-serif" font-size="13px" font-weight="bold" fill="#000" opacity="1">Lost Property: Bag/Wallet</text></g></g><path class="foreground" aria-hidden="true" d="" pointer-events="none" display="none"/></g></g></g><path class="foreground" aria-hidden="true" d="" display="none"/></g></g></g><defs><clipPath id="clip159"><rect x="0" y="0" width="200" height="150"/></clipPath></defs></svg>