<svg xmlns="http://www.w3.org/2000/svg" xmlns:xlink="http://www.w3.org/1999/xlink" version="1.1" class="marks" width="231" height="199" viewBox="0 0 231 199"><rect width="231" height="199" fill="white"/><g fill="none" stroke-miterlimit="10" transform="translate(18,27)"><g class="mark-group role-frame root" role="graphics-object" aria-roledescription="group mark container"><g transform="translate(0,0)"><path class="background" aria-hidden="true" d="M0,0h200v150h-200Z"/><g><g class="mark-group role-axis" aria-hidden="true"><g transform="translate(0.5,0.5)"><path class="background" aria-hidden="true" d="M0,0h0v0h0Z" pointer-events="none"/><g><g class="mark-rule role-axis-grid" pointer-events="none"><line transform="translate(0,150)" x2="200" y2="0" stroke="#ddd" stroke-width="1" opacity="1"/><line transform="translate(0,120)" x2="200" y2="0" stroke="#ddd" stroke-width="1" opacity="1"/><line transform="translate(0,90)" x2="200" y2="0" stroke="#ddd" stroke-width="1" opacity="1"/><line transform="translate(0,60)" x2="200" y2="0" stroke="#ddd" stroke-width="1" opacity="1"/><line transform="translate(0,30)" x2="200" y2="0" stroke="#ddd" stroke-width="1" opacity="1"/><line transform="translate(0,0)" x2="200" y2="0" stroke="#ddd" stroke-width="1" opacity="1"/></g></g><path class="foreground" aria-hidden="true" d="" pointer-events="none" display="none"/></g></g><g class="mark-group role-axis" role="graphics-symbol" aria-roledescription="axis" aria-label="X-axis for a time scale with values from Friday, 01 January 2016, 12:00:00 AM to Monday, 01 January 2024, 12:00:00 AM"><g transform="translate(0.5,150.5)"><path class="background" aria-hidden="true" d="M0,0h0v0h0Z" pointer-events="none"/><g><g class="mark-rule role-axis-tick" pointer-events="none"><line transform="translate(0,0)" x2="0" y2="5" stroke="#888" stroke-width="1" opacity="1"/><line transform="translate(50,0)" x2="0" y2="5" stroke="#888" stroke-width="1" opacity="1"/><line transform="translate(100,0)" x2="0" y2="5" stroke="#888" stroke-width="1" opacity="1"/><line transform="translate(150,0)" x2="0" y2="5" stroke="#888" stroke-width="1" opacity="1"/><line transform="translate(200,0)" x2="0" y2="5" stroke="#888" stroke-width="1" opacity="1"/></g><g class="mark-text role-axis-label" pointer-events="none"><text text-anchor="start" transform="translate(0,15)" font-family="sans-serif" font-size="10px" fill="#000" opacity="1">2016</text><text text-anchor="middle" transform="translate(50.03422313483915,15)" font-family="sans-serif" font-size="10px" fill="#000" opacity="1">2018</text><text text-anchor="middle" transform="translate(100,15)" font-family="sans-serif" font-size="10px" fill="#000" opacity="1">2020</text><text text-anchor="middle" transform="translate(150.03422313483915,15)" font-family="sans-serif" font-size="10px" fill="#000" opacity="1">2022</text><text text-anchor="end" transform="translate(200,15)" font-family="sans-serif" font-size="10px" fill="#000" opacity="1">2024</text></g><g class="mark-rule role-axis-domain" pointer-events="none"><line transform="translate(0,0)" x2="200" y2="0" stroke="#888" stroke-width="1" opacity="1"/></g></g><path class="foreground" aria-hidden="true" d="" pointer-events="none" display="none"/></g></g><g class="mark-group role-axis" role="graphics-symbol" aria-roledescription="axis" aria-label="Y-axis for a linear scale with values from 0 to 5"><g transform="translate(0.5,0.5)"><path class="background" aria-hidden="true" d="M0,0h0v0h0Z" pointer-events="none"/><g><g class="mark-rule role-axis-tick" pointer-events="none"><line transform="translate(0,150)" x2="-5" y2="0" stroke="#888" stroke-opacity="0" stroke-width="1" opacity="1"/><line transform="translate(0,120)" x2="-5" y2="0" stroke="#888" stroke-opacity="0" stroke-width="1" opacity="1"/><line transform="translate(0,90)" x2="-5" y2="0" stroke="#888" stroke-opacity="0" stroke-width="1" opacity="1"/><line transform="translate(0,60)" x2="-5" y2="0" stroke="#888" stroke-opacity="0" stroke-width="1" opacity="1"/><line transform="translate(0,30)" x2="-5" y2="0" stroke="#888" stroke-opacity="0" stroke-width="1" opacity="1"/><line transform="translate(0,0)" x2="-5" y2="0" stroke="#888" stroke-opacity="0" stroke-width="1" opacity="1"/></g><g class="mark-text role-axis-label" pointer-events="none"><text text-anchor="end" transform="translate(-7,153)" font-family="sans-serif" font-size="10px" fill="#000" opacity="1">0</text><text text-anchor="end" transform="translate(-7,123)" font-family="sans-serif" font-size="10px" fill="#000" opacity="1">1</text><text text-anchor="end" transform="translate(-7,93)" font-family="sans-serif" font-size="10px" fill="#000" opacity="1">2</text><text text-anchor="end" transform="translate(-7,63)" font-family="sans-serif" font-size="10px" fill="#000" opacity="1">3</text><text text-anchor="end" transform="translate(-7,32.99999999999999)" font-family="sans-serif" font-size="10px" fill="#000" opacity="1">4</text><text text-anchor="end" transform="translate(-7,3)" font-family="sans-serif" font-size="10px" fill="#000" opacity="1">5</text></g></g><path class="foreground" aria-hidden="true" d="" pointer-events="none" display="none"/></g></g><g class="mark-line role-mark marks" clip-path="url(#clip160)" role="graphics-object" aria-roledescription="line mark container"><path aria-label="day: Jan 01, 2010; avg: 1.56666666667" role="graphics-symbol" aria-roledescription="line mark" d="M-149.966,103L-149.76,103L-149.692,104L-149.624,104L-149.555,106L-149.281,106L-149.213,106L-149.144,105L-149.076,105L-149.008,105L-148.939,104L-148.734,103L-148.665,102L-148.597,103L-148.528,103L-148.186,104L-148.118,103L-147.912,105L-147.844,106L-147.775,104L-147.707,102L-147.639,102L-147.502,104L-147.433,104L-147.296,105L-147.159,104L-147.091,105L-146.817,105L-146.749,105L-146.543,103L-146.407,102L-146.27,102L-145.996,102L-145.791,102L-145.722,102L-145.585,102L-145.517,100L-145.448,99L-145.311,100L-145.243,100L-145.175,100L-145.106,101L-145.038,101L-144.972,101L-144.904,102L-144.767,102L-144.698,103L-144.63,103L-144.493,102L-144.424,104L-144.356,106L-144.219,105L-144.082,103L-144.014,103L-143.945,102L-143.808,100L-143.74,100L-143.535,99L-143.466,98L-143.261,101L-143.192,101L-143.124,97L-143.056,97L-142.987,96L-142.919,96L-142.85,96L-142.713,97L-142.576,98L-142.508,97L-142.371,96L-142.303,97L-142.234,96L-142.166,94L-142.097,94L-142.029,94L-141.96,94L-141.892,94L-141.755,93L-141.687,93L-141.55,92L-141.481,90L-141.413,91L-141.344,91L-141.208,91L-141.139,92L-141.071,94L-140.934,93L-140.865,94L-140.728,93L-140.66,88L-140.591,89L-140.523,93L-140.455,93L-140.386,93L-140.249,92L-140.181,90L-140.112,91L-140.044,92L-139.907,93L-139.839,93L-139.633,90L-139.565,90L-139.496,93L-139.428,92L-139.359,91L-139.291,91L-139.223,90L-139.154,90L-139.017,90L-138.949,91L-138.88,93L-138.743,93L-138.675,95L-138.607,93L-138.538,92L-138.47,91L-138.333,91L-138.264,90L-138.196,91L-138.127,95L-138.059,95L-137.991,94L-137.922,94L-137.785,95L-137.717,94L-137.648,94L-137.443,93L-137.306,93L-137.238,92L-137.169,91L-137.101,94L-137.032,95L-136.895,95L-136.827,96L-136.69,95L-136.622,91L-136.553,92L-136.485,92L-136.416,93L-136.348,93L-136.279,92L-136.211,91L-136.142,89L-136.006,91L-135.937,92L-135.869,94L-135.8,91L-135.732,90L-135.595,92L-135.526,93L-135.458,93L-135.321,93L-135.253,92L-135.184,92L-135.116,94L-135.047,96L-134.979,95L-134.91,95L-134.842,95L-134.774,96L-134.705,96L-134.568,95L-134.5,94L-134.431,94L-134.363,95L-134.294,94L-134.226,94L-134.158,93L-134.089,92L-134.021,91L-133.952,90L-133.884,90L-133.678,92L-133.473,92L-133.405,91L-133.336,91L-133.268,95L-133.199,97L-133.131,96L-133.062,93L-132.994,93L-132.789,92L-132.72,93L-132.652,90L-132.583,90L-132.515,89L-132.446,91L-132.241,91L-132.173,91L-132.104,92L-132.036,88L-131.83,89L-131.762,90L-131.557,89L-131.42,90L-131.351,95L-131.283,94L-131.009,96L-130.941,97L-130.872,98L-130.804,100L-130.598,101L-130.53,101L-130.256,100L-130.188,101L-129.709,101L-129.64,101L-129.572,101L-129.503,100L-129.435,102L-129.366,100L-129.229,102L-129.093,101L-129.024,101L-128.887,100L-128.819,101L-128.75,97L-128.679,97L-128.611,98L-128.405,97L-128.337,100L-128.268,100L-128.131,100L-127.926,100L-127.789,100L-127.721,99L-127.584,100L-127.515,99L-127.447,98L-127.31,98L-127.242,98L-127.173,98L-127.105,98L-127.036,99L-126.968,98L-126.831,97L-126.762,93L-126.694,93L-126.557,95L-126.283,96L-126.215,96L-126.146,95L-126.078,96L-125.941,99L-125.873,99L-125.804,99L-125.12,102L-125.051,100L-124.983,99L-124.846,100L-124.709,101L-124.641,101L-124.572,100L-124.504,101L-124.435,101L-124.367,101L-124.298,101L-124.23,102L-124.162,102L-123.956,100L-123.888,100L-123.819,100L-123.682,98L-123.614,98L-123.477,97L-123.34,98L-123.135,102L-123.066,101L-122.998,98L-122.93,97L-122.861,98L-122.656,99L-122.519,99L-122.45,97L-122.382,98L-122.313,98L-122.245,98L-122.177,99L-121.766,100L-121.697,99L-121.492,99L-121.424,97L-121.287,98L-121.15,96L-121.013,94L-120.945,95L-120.808,96L-120.671,95L-120.534,95L-120.465,96L-120.397,93L-120.329,93L-120.123,94L-120.058,92L-119.921,94L-119.852,94L-119.784,92L-119.647,91L-119.578,94L-119.442,94L-119.373,94L-119.236,94L-119.031,93L-118.962,95L-118.894,93L-118.757,89L-118.689,90L-118.552,90L-118.483,90L-118.415,91L-118.278,91L-118.21,91L-118.141,91L-118.073,91L-117.936,93L-117.867,93L-117.799,91L-117.662,92L-117.457,91L-117.388,92L-117.046,94L-116.841,93L-116.772,94L-116.704,96L-116.635,96L-116.498,96L-116.43,94L-116.225,95L-116.156,95L-116.019,94L-115.951,94L-115.882,94L-115.745,95L-115.54,94L-115.472,96L-115.403,99L-115.266,99L-115.198,99L-114.993,98L-114.856,97L-114.719,96L-114.513,98L-114.445,98L-114.308,100L-114.24,99L-114.171,99L-114.103,99L-114.034,99L-113.897,100L-113.829,99L-113.761,99L-113.692,97L-113.624,97L-113.555,95L-113.487,93L-113.35,92L-113.281,95L-113.213,93L-113.145,92L-113.076,94L-112.939,92L-112.871,91L-112.802,89L-112.734,87L-112.665,84L-112.597,85L-112.529,83L-112.46,82L-112.392,83L-112.323,84L-112.186,84L-112.118,84L-112.049,82L-111.844,79L-111.776,77L-111.707,77L-111.639,78L-111.433,76L-111.365,75L-111.296,75L-111.228,76L-111.16,79L-111.091,79L-111.023,81L-110.954,81L-110.817,80L-110.749,80L-110.68,82L-110.612,82L-110.544,82L-110.475,84L-110.407,84L-110.27,86L-110.201,87L-110.064,89L-109.996,88L-109.928,90L-109.859,90L-109.791,89L-109.722,87L-109.654,87L-109.517,86L-109.448,88L-109.312,91L-109.243,94L-109.038,93L-108.969,94L-108.901,93L-108.832,95L-108.559,95L-108.49,95L-108.353,95L-108.216,95L-108.148,95L-108.08,97L-108.011,99L-107.943,97L-107.874,98L-107.806,97L-107.737,96L-107.6,96L-107.532,96L-107.463,94L-107.395,96L-107.327,96L-107.258,97L-107.19,97L-107.121,99L-107.053,100L-106.984,101L-106.916,102L-106.847,102L-106.779,102L-106.711,99L-106.642,99L-106.574,100L-106.505,100L-106.437,101L-106.368,100L-106.231,101L-106.163,101L-106.095,98L-106.026,98L-105.958,97L-105.821,97L-105.752,97L-105.615,100L-105.547,100L-105.479,101L-105.41,100L-105.205,101L-105.136,102L-105.068,103L-104.999,100L-104.657,101L-104.589,101L-104.452,101L-104.383,98L-104.247,98L-104.178,99L-104.11,99L-104.041,99L-103.973,99L-103.904,101L-103.696,100L-103.559,100L-103.422,98L-103.217,100L-103.149,100L-103.08,100L-103.012,99L-102.875,101L-102.806,100L-102.738,101L-102.669,99L-102.601,99L-102.533,97L-102.259,97L-102.122,95L-102.053,97L-101.916,96L-101.848,96L-101.78,94L-101.711,97L-101.643,97L-101.437,97L-101.369,97L-100.958,100L-100.821,100L-100.684,98L-100.616,97L-100.479,98L-100.342,95L-100.274,96L-100.205,97L-100.137,97L-100.068,99L-99.863,99L-99.658,99L-99.589,98L-99.521,98L-99.452,98L-99.384,99L-99.316,99L-99.247,100L-99.11,99L-98.973,100L-98.836,99L-98.768,101L-98.494,101L-98.426,102L-98.357,101L-98.289,104L-98.22,103L-98.084,103L-97.878,103L-97.81,103L-97.536,103L-97.467,103L-97.399,104L-97.262,103L-96.92,101L-96.851,104L-96.783,103L-96.715,103L-96.646,103L-96.578,102L-96.441,101L-96.372,102L-96.235,101L-96.167,102L-95.962,103L-95.756,103L-95.619,101L-95.483,101L-95.414,101L-95.346,102L-95.209,103L-95.143,102L-95.075,102L-94.869,102L-94.801,100L-94.732,99L-94.664,99L-94.596,97L-94.39,96L-94.322,90L-94.116,87L-94.048,87L-93.98,87L-93.911,88L-93.706,89L-93.637,87L-93.569,87L-93.5,87L-93.432,85L-93.364,85L-93.227,85L-93.09,82L-93.021,82L-92.748,74L-92.679,74L-92.611,74L-92.474,74L-92.337,70L-92.268,70L-92.2,70L-92.132,69L-92.063,70L-91.858,69L-91.789,67L-91.721,66L-91.516,66L-91.31,67L-91.173,66L-91.105,66L-91.036,71L-90.831,68L-90.763,68L-90.694,68L-90.489,69L-90.42,69L-90.352,68L-90.283,68L-90.215,64L-90.078,66L-89.873,65L-89.804,65L-89.736,66L-89.667,67L-89.599,74L-89.462,71L-89.394,71L-89.325,73L-89.257,65L-89.188,55L-89.12,54L-89.051,54L-88.983,55L-88.915,56L-88.846,58L-88.778,60L-88.641,55L-88.572,53L-88.504,53L-88.367,54L-88.299,54L-88.23,58L-88.162,58L-88.025,59L-87.956,59L-87.888,58L-87.819,61L-87.751,58L-87.683,60L-87.614,60L-87.546,61L-87.477,60L-87.409,59L-87.272,57L-87.203,58L-87.135,58L-87.067,58L-86.998,57L-86.93,69L-86.861,78L-86.793,75L-86.724,76L-86.656,74L-86.587,74L-86.519,73L-86.45,74L-86.314,78L-86.245,79L-86.177,81L-86.108,81L-86.04,81L-85.971,83L-85.903,82L-85.766,78L-85.698,76L-85.629,77L-85.561,74L-85.492,75L-85.424,77L-85.355,75L-85.287,76L-85.082,78L-85.013,80L-84.876,82L-84.808,82L-84.671,84L-84.602,82L-84.534,81L-84.466,82L-84.397,83L-84.26,86L-84.123,85L-84.055,85L-83.986,84L-83.85,84L-83.781,85L-83.644,87L-83.576,88L-83.507,88L-83.439,88L-83.302,89L-83.165,88L-83.097,89L-83.028,90L-82.96,89L-82.891,90L-82.754,92L-82.686,92L-82.549,92L-82.481,94L-82.412,94L-82.344,93L-82.275,91L-82.207,92L-82.138,92L-82.001,93L-81.933,94L-81.865,96L-81.796,96L-81.728,97L-81.591,98L-81.522,98L-81.454,100L-81.385,99L-81.317,99L-81.249,97L-81.18,97L-81.043,96L-80.906,95L-80.769,94L-80.701,92L-80.633,92L-80.564,92L-80.496,95L-80.222,96L-80.153,92L-80.017,92L-79.948,95L-79.811,95L-79.743,94L-79.606,91L-79.469,91L-79.401,94L-79.195,94L-79.127,92L-78.99,90L-78.921,91L-78.85,90L-78.713,90L-78.576,90L-78.508,87L-78.439,86L-78.371,81L-78.303,83L-78.234,83L-78.166,85L-78.097,84L-78.029,85L-77.96,87L-77.823,86L-77.755,88L-77.618,89L-77.55,87L-77.413,87L-77.344,87L-77.207,91L-77.139,90L-77.07,90L-76.934,89L-76.865,90L-76.728,93L-76.66,94L-76.591,93L-76.454,92L-76.386,93L-76.249,95L-76.181,94L-76.112,93L-76.044,92L-75.975,90L-75.907,90L-75.838,91L-75.702,96L-75.359,96L-75.222,97L-75.154,97L-75.086,98L-75.017,96L-74.88,96L-74.812,97L-74.743,96L-74.538,95L-74.47,97L-74.401,96L-74.333,98L-74.196,96L-74.127,98L-74.059,98L-73.99,99L-73.922,99L-73.785,99L-73.648,99L-73.511,98L-73.374,98L-73.306,98L-73.169,95L-73.101,96L-73.032,98L-72.964,99L-72.895,99L-72.827,102L-72.621,103L-72.416,102L-72.348,100L-72.211,100L-72.142,100L-72.074,99L-72.005,101L-71.937,101L-71.869,102L-71.8,103L-71.595,103L-71.526,103L-71.389,104L-71.253,102L-70.979,104L-70.91,103L-70.705,99L-70.637,99L-70.568,98L-70.5,97L-70.431,96L-70.363,98L-70.294,98L-70.229,99L-70.16,101L-70.092,98L-70.023,98L-69.955,95L-69.886,96L-69.75,96L-69.681,95L-69.613,96L-69.544,98L-69.476,96L-69.407,95L-69.339,95L-69.27,94L-69.202,93L-69.134,92L-68.997,91L-68.928,88L-68.86,88L-68.723,85L-68.654,87L-68.586,87L-68.518,88L-68.381,91L-68.244,91L-68.175,91L-68.107,91L-68.038,92L-67.97,90L-67.902,91L-67.833,89L-67.765,90L-67.696,93L-67.628,92L-67.559,95L-67.491,96L-67.422,96L-67.354,97L-67.286,95L-67.217,90L-67.149,89L-67.08,90L-66.943,89L-66.806,86L-66.67,84L-66.601,84L-66.464,84L-66.396,88L-66.327,88L-66.259,87L-66.19,85L-66.122,85L-66.054,84L-65.848,83L-65.78,83L-65.711,84L-65.643,85L-65.574,85L-65.437,86L-65.369,84L-65.301,84L-65.232,81L-65.164,77L-65.095,77L-65.027,75L-64.89,75L-64.821,70L-64.753,69L-64.685,70L-64.616,74L-64.548,75L-64.479,74L-64.411,76L-64.342,76L-64.274,79L-64.205,72L-64.137,71L-64.069,69L-64,68L-63.863,71L-63.795,73L-63.726,72L-63.658,71L-63.589,70L-63.521,65L-63.453,62L-63.316,61L-63.247,60L-63.179,60L-63.11,58L-62.905,60L-62.837,59L-62.768,61L-62.631,62L-62.563,64L-62.494,63L-62.426,66L-62.357,67L-62.289,68L-62.221,68L-62.084,69L-62.015,66L-61.947,65L-61.741,68L-61.604,62L-61.536,67L-61.468,68L-61.399,70L-61.331,70L-61.262,71L-61.194,68L-61.125,69L-61.057,71L-60.988,74L-60.92,78L-60.852,80L-60.783,81L-60.646,80L-60.578,80L-60.509,84L-60.441,82L-60.372,86L-60.236,88L-60.099,87L-60.03,87L-59.962,87L-59.893,89L-59.825,89L-59.688,88L-59.62,87L-59.551,88L-59.483,91L-59.414,90L-59.209,91L-59.14,95L-59.072,98L-58.935,98L-58.867,98L-58.798,99L-58.73,96L-58.593,99L-58.456,98L-58.388,98L-58.182,98L-58.114,98L-58.045,99L-57.977,99L-57.908,98L-57.772,99L-57.703,95L-57.635,96L-57.566,96L-57.498,93L-57.361,92L-57.292,91L-57.224,91L-57.155,89L-57.087,89L-56.813,90L-56.676,91L-56.608,89L-56.539,90L-56.471,90L-56.403,90L-56.266,91L-56.197,89L-56.129,90L-56.06,89L-55.923,89L-55.855,90L-55.787,87L-55.718,88L-55.65,86L-55.581,86L-55.444,84L-55.376,83L-55.307,82L-55.239,85L-55.171,82L-55.102,86L-55.034,87L-54.965,87L-54.897,86L-54.76,88L-54.691,89L-54.623,88L-54.555,88L-54.486,87L-54.418,85L-54.349,86L-54.212,87L-54.144,86L-54.007,88L-53.936,87L-53.867,88L-53.662,90L-53.593,89L-53.525,90L-53.457,89L-53.388,90L-53.251,93L-53.183,91L-53.114,93L-53.046,92L-52.977,94L-52.841,93L-52.772,93L-52.704,92L-52.635,94L-52.567,94L-52.498,94L-52.361,94L-52.156,95L-52.088,95L-52.019,95L-51.882,97L-51.814,96L-51.745,97L-51.677,98L-51.472,97L-51.403,98L-51.335,98L-51.266,96L-51.198,97L-51.129,97L-50.992,96L-50.924,95L-50.856,92L-50.787,93L-50.719,94L-50.582,92L-50.513,94L-50.376,93L-50.24,93L-50.103,93L-49.829,94L-49.76,95L-49.624,94L-49.555,94L-49.487,91L-49.418,88L-49.35,88L-49.281,91L-49.144,89L-49.076,87L-48.939,86L-48.871,88L-48.802,86L-48.665,87L-48.597,88L-48.528,87L-48.392,87L-48.323,89L-48.255,84L-48.186,84L-48.118,85L-48.049,86L-47.981,88L-47.912,86L-47.775,83L-47.707,85L-47.57,84L-47.502,85L-47.433,82L-47.296,83L-47.228,84L-47.159,81L-47.091,83L-47.023,84L-46.954,86L-46.886,89L-46.817,89L-46.749,89L-46.68,90L-46.612,90L-46.543,89L-46.475,90L-46.407,90L-46.27,90L-46.201,89L-46.133,90L-46.064,91L-45.996,91L-45.927,96L-45.859,95L-45.791,93L-45.722,93L-45.654,93L-45.585,95L-45.517,96L-45.38,95L-45.314,93L-45.246,93L-45.177,96L-45.109,96L-45.04,94L-44.972,92L-44.904,92L-44.835,92L-44.698,91L-44.561,89L-44.493,84L-44.424,83L-44.356,82L-44.219,83L-44.151,83L-44.082,83L-43.877,85L-43.808,84L-43.672,82L-43.603,79L-43.466,78L-43.329,78L-43.192,76L-43.124,75L-43.056,76L-42.987,75L-42.919,73L-42.85,72L-42.782,74L-42.713,75L-42.645,76L-42.576,73L-42.44,72L-42.371,70L-42.303,71L-42.166,74L-42.029,72L-41.96,69L-41.892,70L-41.824,70L-41.755,72L-41.687,73L-41.618,71L-41.55,70L-41.481,70L-41.413,70L-41.344,68L-41.276,66L-41.208,68L-41.139,70L-41.071,70L-41.002,69L-40.934,71L-40.865,71L-40.797,69L-40.728,69L-40.66,72L-40.523,73L-40.455,69L-40.386,67L-40.318,65L-40.249,63L-40.112,64L-40.044,61L-39.975,58L-39.839,58L-39.77,57L-39.633,58L-39.565,57L-39.496,57L-39.428,58L-39.359,55L-39.291,56L-39.154,57L-39.086,56L-39.017,51L-38.949,53L-38.88,52L-38.743,50L-38.675,49L-38.607,50L-38.538,50L-38.47,48L-38.401,48L-38.333,49L-38.264,47L-38.196,43L-38.127,41L-38.059,37L-37.991,37L-37.922,40L-37.854,45L-37.648,46L-37.58,49L-37.511,49L-37.443,49L-37.375,50L-37.238,51L-37.169,51L-37.101,52L-37.032,51L-36.964,51L-36.895,51L-36.758,52L-36.69,55L-36.622,57L-36.553,57L-36.485,59L-36.416,60L-36.279,61L-36.211,58L-36.142,58L-36.074,57L-36.006,57L-35.869,59L-35.8,63L-35.732,67L-35.595,68L-35.526,74L-35.458,71L-35.39,72L-35.321,71L-35.253,71L-35.184,68L-35.116,70L-35.047,70L-34.979,70L-34.91,70L-34.774,71L-34.705,71L-34.637,73L-34.568,73L-34.431,76L-34.363,72L-34.294,72L-34.226,72L-34.158,70L-34.089,71L-34.021,70L-33.884,70L-33.815,73L-33.61,74L-33.542,74L-33.473,75L-33.405,75L-33.336,72L-33.268,70L-33.199,71L-33.131,72L-33.062,77L-32.994,77L-32.926,76L-32.857,76L-32.789,80L-32.72,82L-32.652,84L-32.583,84L-32.515,85L-32.378,86L-32.309,85L-32.241,86L-32.173,88L-32.104,88L-32.036,91L-31.967,89L-31.899,91L-31.762,93L-31.693,93L-31.625,94L-31.557,94L-31.488,92L-31.42,90L-31.283,92L-31.214,93L-31.146,90L-31.077,93L-31.009,92L-30.941,91L-30.872,90L-30.804,89L-30.667,87L-30.461,86L-30.393,85L-30.325,84L-30.256,81L-30.188,81L-30.119,83L-30.051,82L-29.982,82L-29.914,84L-29.845,84L-29.709,84L-29.64,83L-29.503,83L-29.298,83L-29.161,83L-29.093,81L-29.021,79L-28.953,81L-28.884,82L-28.816,84L-28.747,85L-28.679,85L-28.542,80L-28.474,82L-28.405,82L-28.268,83L-28.2,82L-28.131,81L-28.063,82L-27.995,83L-27.926,85L-27.858,85L-27.721,86L-27.652,89L-27.515,88L-27.447,87L-27.379,86L-27.173,85L-27.105,83L-27.036,83L-26.968,80L-26.899,74L-26.831,73L-26.762,73L-26.626,74L-26.557,73L-26.489,75L-26.352,75L-26.283,75L-26.215,75L-26.146,74L-26.078,75L-26.01,80L-25.941,81L-25.873,80L-25.804,80L-25.736,82L-25.667,85L-25.599,84L-25.462,83L-25.394,84L-25.257,85L-25.188,82L-25.12,79L-24.983,77L-24.914,77L-24.846,79L-24.778,80L-24.709,81L-24.641,79L-24.504,83L-24.435,89L-24.367,90L-24.23,91L-24.162,91L-24.025,91L-23.956,92L-23.888,89L-23.819,89L-23.751,88L-23.682,87L-23.614,87L-23.546,86L-23.477,86L-23.409,85L-23.34,87L-23.203,86L-23.135,86L-22.998,86L-22.93,86L-22.861,83L-22.793,80L-22.724,82L-22.656,85L-22.587,88L-22.519,86L-22.45,86L-22.382,86L-22.177,87L-21.971,87L-21.903,85L-21.834,86L-21.766,87L-21.697,86L-21.629,86L-21.492,88L-21.424,88L-21.355,91L-21.287,91L-21.15,91L-21.081,93L-20.945,93L-20.876,93L-20.808,92L-20.739,91L-20.602,90L-20.534,91L-20.465,90L-20.331,91L-20.263,93L-20.195,95L-20.126,98L-20.058,99L-19.989,98L-19.921,98L-19.852,99L-19.784,94L-19.715,94L-19.647,92L-19.51,94L-19.442,94L-19.373,92L-19.305,89L-19.168,89L-19.099,89L-19.031,88L-18.962,86L-18.894,85L-18.826,84L-18.757,83L-18.689,83L-18.62,83L-18.552,83L-18.483,83L-18.415,84L-18.346,84L-18.278,84L-18.21,84L-18.141,83L-18.073,82L-18.004,82L-17.936,81L-17.867,80L-17.799,78L-17.73,75L-17.662,76L-17.594,77L-17.525,76L-17.457,72L-17.388,69L-17.32,69L-17.251,71L-17.183,72L-17.114,73L-17.046,72L-16.978,68L-16.909,70L-16.841,69L-16.772,70L-16.704,70L-16.635,68L-16.567,68L-16.498,67L-16.43,67L-16.362,67L-16.293,67L-16.225,65L-16.156,62L-16.088,62L-16.019,60L-15.951,56L-15.814,56L-15.609,53L-15.54,56L-15.472,55L-15.403,53L-15.129,54L-15.061,53L-14.993,57L-14.924,56L-14.856,55L-14.787,51L-14.65,51L-14.582,51L-14.513,52L-14.377,56L-14.308,52L-14.24,53L-14.171,50L-14.103,47L-14.034,46L-13.966,44L-13.897,46L-13.829,42L-13.761,38L-13.692,34L-13.624,30L-13.555,31L-13.487,30L-13.418,32L-13.35,35L-13.281,33L-13.213,36L-13.145,33L-13.076,35L-13.008,36L-12.939,38L-12.802,37L-12.734,35L-12.665,34L-12.597,35L-12.529,38L-12.46,39L-12.392,39L-12.323,34L-12.255,33L-12.186,33L-12.118,33L-12.049,28L-11.981,29L-11.913,32L-11.844,29L-11.776,26L-11.707,28L-11.639,31L-11.57,34L-11.502,39L-11.433,32L-11.365,27L-11.296,26L-11.228,24L-11.16,26L-11.091,27L-11.023,29L-10.954,28L-10.886,29L-10.817,23L-10.749,25L-10.68,27L-10.612,31L-10.544,30L-10.475,29L-10.407,26L-10.338,25L-10.27,28L-10.201,30L-10.133,31L-10.064,26L-9.996,33L-9.928,35L-9.859,32L-9.791,33L-9.722,33L-9.654,33L-9.585,33L-9.448,34L-9.38,34L-9.312,41L-9.175,48L-9.106,46L-9.038,50L-8.969,50L-8.901,47L-8.832,45L-8.764,47L-8.696,44L-8.559,49L-8.49,49L-8.422,45L-8.353,45L-8.216,48L-8.148,50L-8.08,51L-8.011,52L-7.943,50L-7.874,50L-7.806,52L-7.737,56L-7.669,55L-7.6,57L-7.532,61L-7.463,63L-7.395,65L-7.327,67L-7.258,69L-7.19,69L-7.121,68L-7.053,71L-6.984,69L-6.916,70L-6.847,67L-6.779,67L-6.711,71L-6.642,73L-6.574,73L-6.505,76L-6.368,73L-6.3,71L-6.095,75L-6.026,75L-5.958,75L-5.889,73L-5.821,73L-5.752,73L-5.684,74L-5.615,75L-5.547,73L-5.479,74L-5.41,75L-5.273,75L-5.205,72L-5.136,74L-5.068,74L-4.931,69L-4.863,68L-4.794,68L-4.657,69L-4.589,69L-4.52,70L-4.452,72L-4.383,71L-4.315,66L-4.247,66L-4.107,67L-4.038,68L-3.97,68L-3.901,68L-3.833,70L-3.765,68L-3.696,66L-3.628,63L-3.559,65L-3.491,65L-3.422,65L-3.285,67L-3.217,65L-3.149,65L-3.08,65L-3.012,66L-2.943,65L-2.875,68L-2.806,68L-2.738,68L-2.669,72L-2.533,72L-2.464,71L-2.396,72L-2.19,67L-2.122,67L-2.053,66L-1.916,69L-1.848,74L-1.78,71L-1.711,67L-1.643,66L-1.574,64L-1.437,68L-1.369,68L-1.232,67L-1.164,69L-1.095,68L-1.027,66L-0.958,67L-0.89,67L-0.821,68L-0.753,70L-0.684,72L-0.616,70L-0.548,70L-0.479,71L-0.411,71L-0.342,69L-0.274,68L-0.205,64L-0.137,64L0,66L0.068,65L0.137,69L0.205,69L0.274,68L0.342,69L0.411,69L0.479,69L0.548,72L0.616,70L0.684,71L0.753,72L0.821,73L0.89,75L0.958,74L1.027,75L1.095,77L1.164,75L1.232,76L1.3,74L1.369,74L1.437,75L1.506,78L1.643,78L1.711,75L1.78,74L1.848,72L1.916,70L1.985,75L2.053,76L2.122,74L2.19,74L2.259,74L2.327,73L2.396,76L2.464,73L2.601,71L2.669,73L2.738,71L2.875,73L2.943,74L3.012,73L3.08,69L3.149,71L3.217,72L3.285,75L3.354,74L3.422,78L3.491,74L3.559,75L3.628,73L3.696,72L3.765,71L3.901,69L3.97,72L4.038,71L4.107,70L4.175,73L4.244,72L4.312,73L4.381,73L4.449,73L4.517,73L4.586,75L4.654,73L4.723,73L4.791,75L4.86,74L4.928,74L5.062,69L5.131,69L5.199,70L5.268,72L5.336,73L5.404,71L5.473,70L5.541,70L5.61,69L5.678,71L5.747,71L5.815,71L5.884,69L5.952,70L6.02,69L6.089,65L6.157,65L6.226,68L6.294,65L6.363,66L6.431,62L6.5,63L6.568,64L6.636,65L6.705,64L6.773,65L6.842,68L6.979,67L7.047,67L7.116,69L7.184,74L7.252,73L7.389,71L7.458,70L7.526,69L7.595,68L7.663,68L7.732,65L7.8,65L7.868,64L7.937,65L8.005,62L8.074,63L8.142,62L8.211,64L8.279,64L8.348,64L8.416,66L8.484,66L8.553,65L8.621,65L8.69,61L8.758,59L8.827,58L8.895,59L8.964,58L9.032,58L9.101,59L9.169,61L9.237,62L9.306,59L9.443,60L9.511,62L9.648,65L9.717,64L9.785,67L9.853,65L9.922,68L9.99,67L10.059,65L10.127,61L10.196,66L10.264,67L10.333,67L10.401,68L10.469,69L10.538,70L10.606,65L10.675,66L10.743,67L10.812,71L10.88,73L10.949,70L11.017,69L11.085,65L11.154,61L11.291,59L11.359,59L11.428,56L11.496,55L11.565,56L11.633,56L11.77,56L11.838,54L11.907,54L11.975,50L12.044,48L12.112,46L12.181,47L12.249,47L12.317,51L12.386,51L12.454,52L12.523,48L12.591,45L12.66,47L12.728,46L12.797,50L12.865,51L12.933,51L13.002,49L13.07,46L13.139,48L13.207,45L13.276,45L13.344,45L13.413,44L13.481,39L13.55,37L13.618,35L13.686,36L13.755,32L13.823,30L13.892,30L13.96,28L14.097,31L14.166,35L14.234,36L14.302,31L14.371,36L14.439,31L14.508,28L14.576,26L14.645,29L14.713,30L14.782,26L14.85,24L14.918,23L15.055,23L15.124,21L15.192,19L15.261,24L15.329,26L15.466,27L15.534,27L15.603,31L15.671,34L15.74,36L15.808,38L15.877,38L15.945,38L16.014,40L16.082,37L16.15,39L16.219,43L16.287,44L16.424,45L16.493,44L16.561,49L16.63,47L16.698,49L16.766,52L16.835,51L16.972,50L17.04,49L17.109,54L17.177,55L17.246,57L17.314,59L17.383,62L17.451,64L17.519,61L17.588,62L17.656,65L17.725,67L17.793,67L17.862,64L17.93,67L17.999,69L18.067,72L18.135,74L18.204,73L18.272,77L18.341,74L18.409,72L18.478,72L18.546,72L18.615,75L18.683,76L18.751,77L18.82,77L18.888,74L18.957,77L19.025,78L19.094,80L19.162,80L19.231,83L19.299,82L19.367,79L19.504,79L19.573,81L19.641,85L19.71,85L19.778,84L19.847,86L19.915,87L19.983,87L20.052,87L20.12,88L20.257,85L20.326,84L20.394,88L20.463,89L20.531,91L20.599,88L20.736,88L20.805,87L20.873,86L20.942,85L21.079,85L21.147,83L21.215,84L21.287,82L21.355,81L21.424,80L21.492,78L21.561,75L21.629,76L21.697,77L21.766,76L21.834,74L21.903,73L21.971,73L22.04,75L22.108,75L22.177,75L22.245,77L22.313,78L22.382,78L22.45,79L22.519,80L22.587,80L22.656,78L22.724,78L22.793,81L22.861,82L22.93,81L22.998,79L23.066,77L23.135,73L23.203,74L23.272,75L23.34,76L23.409,76L23.477,72L23.546,73L23.614,74L23.682,74L23.751,72L23.819,69L23.888,69L23.956,67L24.025,66L24.093,66L24.162,66L24.23,66L24.298,66L24.367,65L24.435,62L24.504,62L24.641,60L24.709,57L24.778,58L24.846,58L24.914,58L25.051,56L25.188,54L25.257,56L25.325,59L25.394,61L25.462,64L25.53,65L25.599,61L25.667,57L25.736,63L25.804,63L25.873,63L25.941,62L26.01,65L26.078,68L26.146,69L26.215,72L26.283,73L26.352,73L26.42,68L26.489,67L26.557,68L26.626,67L26.694,68L26.762,65L26.831,67L26.899,68L26.968,69L27.036,69L27.105,69L27.173,70L27.242,72L27.379,72L27.447,71L27.515,70L27.584,71L27.652,69L27.721,74L27.858,80L27.926,76L27.995,75L28.063,77L28.131,75L28.2,75L28.268,74L28.337,75L28.474,74L28.542,73L28.611,72L28.679,77L28.747,79L28.816,78L28.884,78L28.953,79L29.021,80L29.09,77L29.158,74L29.227,73L29.295,71L29.363,73L29.432,74L29.5,76L29.569,76L29.637,75L29.706,77L29.774,77L29.977,78L30.045,78L30.114,77L30.182,80L30.25,80L30.319,77L30.387,78L30.456,78L30.593,78L30.661,76L30.73,76L30.798,74L30.866,72L30.935,70L31.003,70L31.072,70L31.14,71L31.209,68L31.277,67L31.346,68L31.414,70L31.482,69L31.551,68L31.619,68L31.688,66L31.756,62L31.825,62L31.893,59L31.962,58L32.03,58L32.098,56L32.167,54L32.235,52L32.304,52L32.372,49L32.441,52L32.509,52L32.578,52L32.646,51L32.714,50L32.783,45L32.851,48L32.92,51L32.988,53L33.057,53L33.194,53L33.262,49L33.33,50L33.399,52L33.467,52L33.536,54L33.604,53L33.673,55L33.741,55L33.81,56L33.878,60L33.946,59L34.015,62L34.083,64L34.152,62L34.22,61L34.289,63L34.357,64L34.426,60L34.494,60L34.563,60L34.631,54L34.699,50L34.768,50L34.836,50L34.905,52L34.973,49L35.042,49L35.11,46L35.179,43L35.247,39L35.315,44L35.384,41L35.452,44L35.521,44L35.658,45L35.726,47L35.795,49L35.863,46L35.931,44L36,42L36.068,40L36.205,42L36.274,40L36.342,42L36.479,44L36.547,42L36.616,43L36.684,47L36.753,51L36.821,50L36.89,54L36.958,57L37.027,59L37.095,60L37.163,59L37.232,60L37.3,56L37.369,55L37.437,58L37.506,61L37.574,61L37.643,64L37.711,62L37.779,63L37.848,60L37.916,58L37.985,57L38.053,58L38.122,60L38.19,60L38.259,60L38.327,56L38.396,58L38.464,53L38.532,55L38.601,57L38.669,58L38.738,55L38.806,55L38.875,54L38.943,57L39.012,57L39.08,53L39.217,53L39.285,54L39.354,56L39.422,58L39.491,61L39.628,57L39.696,59L39.764,57L39.833,57L39.901,57L39.97,58L40.038,58L40.107,59L40.175,57L40.244,58L40.312,56L40.449,58L40.517,61L40.586,64L40.654,62L40.723,67L40.791,64L40.928,62L40.996,60L41.065,63L41.133,63L41.202,59L41.27,59L41.339,60L41.407,63L41.476,64L41.544,65L41.681,60L41.818,59L41.886,53L41.955,55L42.023,54L42.092,55L42.16,55L42.228,55L42.297,53L42.365,51L42.434,49L42.571,48L42.639,39L42.708,39L42.776,35L42.845,35L42.913,32L42.981,34L43.05,32L43.118,32L43.187,33L43.255,32L43.324,33L43.392,34L43.529,34L43.597,32L43.666,31L43.734,29L43.803,29L43.871,32L43.94,34L44.008,35L44.077,41L44.145,39L44.213,38L44.282,36L44.35,39L44.419,40L44.487,41L44.556,45L44.693,49L44.761,51L44.829,61L44.898,63L44.966,66L45.035,60L45.103,62L45.172,61L45.24,62L45.309,65L45.377,63L45.445,66L45.514,65L45.582,62L45.651,67L45.719,67L45.788,68L45.856,70L45.925,71L45.993,70L46.061,71L46.13,72L46.201,70L46.27,71L46.338,72L46.407,70L46.475,67L46.612,64L46.68,61L46.749,60L46.817,59L46.886,59L46.954,57L47.023,53L47.091,52L47.159,57L47.228,58L47.296,60L47.365,61L47.433,60L47.502,62L47.57,62L47.639,63L47.707,65L47.775,65L47.844,66L47.912,65L47.981,67L48.049,65L48.118,66L48.186,68L48.255,67L48.323,68L48.392,70L48.46,68L48.528,71L48.597,73L48.665,73L48.734,74L48.871,74L48.939,68L49.008,66L49.076,62L49.144,67L49.213,68L49.281,69L49.35,69L49.418,67L49.487,67L49.555,66L49.624,63L49.692,62L49.76,61L49.829,62L49.897,62L50.034,60L50.103,61L50.171,59L50.24,60L50.376,58L50.445,57L50.513,58L50.582,60L50.65,57L50.719,58L50.787,59L50.856,59L50.924,60L50.992,63L51.061,64L51.129,71L51.198,74L51.266,80L51.335,77L51.472,76L51.54,77L51.608,77L51.677,77L51.745,77L51.814,79L51.882,78L51.951,78L52.019,77L52.088,75L52.156,69L52.225,73L52.293,73L52.361,75L52.43,74L52.498,76L52.567,76L52.635,72L52.704,69L52.772,70L52.841,70L52.909,70L52.977,68L53.046,68L53.114,65L53.251,65L53.32,64L53.388,63L53.457,62L53.525,62L53.593,63L53.662,61L53.73,59L53.799,60L53.867,59L53.936,59L54.004,60L54.073,59L54.141,58L54.346,60L54.415,63L54.483,59L54.552,59L54.62,59L54.689,57L54.823,54L54.891,54L54.96,59L55.028,61L55.096,63L55.165,60L55.233,60L55.37,63L55.439,65L55.507,66L55.576,65L55.644,64L55.712,64L55.781,64L55.849,66L55.918,66L55.986,68L56.055,68L56.123,65L56.192,65L56.26,65L56.328,66L56.397,66L56.465,63L56.534,62L56.602,65L56.671,66L56.739,67L56.808,63L56.876,62L56.944,64L57.013,63L57.081,62L57.15,63L57.218,61L57.287,64L57.424,62L57.492,60L57.56,59L57.629,55L57.697,54L57.766,55L57.834,56L57.903,53L57.971,54L58.04,54L58.108,49L58.176,51L58.245,55L58.313,52L58.382,51L58.45,54L58.519,57L58.587,56L58.656,53L58.724,53L58.792,54L58.861,52L58.929,52L58.998,57L59.066,57L59.135,56L59.203,55L59.272,53L59.34,54L59.409,55L59.477,56L59.545,55L59.614,55L59.682,59L59.751,60L59.819,59L59.888,58L59.956,58L60.025,52L60.093,51L60.161,56L60.23,55L60.298,53L60.367,55L60.435,56L60.504,55L60.572,52L60.641,57L60.709,60L60.777,59L60.846,55L60.914,54L60.983,50L61.051,44L61.12,45L61.188,47L61.257,49L61.325,46L61.462,42L61.53,42L61.599,43L61.667,45L61.736,45L61.804,45L61.941,40L62.009,41L62.078,41L62.146,43L62.215,49L62.283,50L62.352,47L62.42,46L62.489,46L62.557,44L62.625,40L62.694,40L62.762,41L62.831,40L62.899,34L62.968,32L63.036,37L63.105,38L63.242,44L63.31,49L63.378,46L63.447,46L63.515,39L63.584,42L63.652,46L63.721,46L63.789,45L63.858,42L63.926,41L63.994,38L64.063,41L64.131,37L64.2,37L64.268,39L64.337,38L64.405,38L64.474,38L64.542,40L64.61,34L64.679,35L64.747,37L64.816,36L64.884,37L64.953,39L65.021,45L65.09,46L65.158,44L65.226,46L65.295,46L65.363,45L65.432,46L65.5,45L65.569,49L65.637,49L65.706,51L65.774,52L65.842,53L65.911,55L65.979,57L66.048,57L66.116,55L66.185,59L66.253,60L66.322,59L66.39,59L66.458,60L66.527,61L66.595,59L66.664,67L66.732,68L66.801,67L66.869,69L66.938,67L67.006,68L67.074,69L67.211,70L67.28,68L67.348,66L67.417,67L67.485,66L67.554,63L67.622,64L67.691,64L67.827,65L67.964,65L68.033,64L68.101,65L68.17,64L68.238,63L68.307,67L68.375,73L68.443,74L68.512,73L68.58,70L68.649,68L68.717,68L68.786,67L68.854,69L68.923,68L68.991,69L69.059,70L69.128,68L69.196,69L69.265,66L69.333,64L69.402,63L69.47,65L69.539,66L69.607,64L69.675,65L69.812,69L69.881,67L69.949,67L70.018,65L70.155,63L70.223,59L70.291,56L70.36,58L70.428,58L70.497,58L70.565,58L70.634,53L70.702,53L70.771,54L70.839,57L70.976,57L71.044,59L71.116,59L71.184,59L71.253,59L71.321,57L71.389,59L71.526,60L71.732,62L71.8,61L71.869,63L71.937,66L72.005,66L72.074,69L72.142,71L72.211,72L72.279,72L72.348,70L72.416,72L72.553,72L72.621,76L72.69,77L72.758,77L72.827,78L72.895,77L72.964,73L73.032,75L73.101,76L73.169,76L73.238,74L73.443,71L73.511,68L73.648,69L73.717,68L73.785,67L73.854,68L73.99,62L74.059,59L74.127,60L74.196,61L74.264,62L74.333,61L74.401,60L74.47,58L74.538,55L74.606,54L74.675,55L74.743,56L74.812,57L74.949,58L75.017,57L75.086,57L75.291,55L75.359,56L75.496,56L75.565,57L75.633,59L75.702,58L75.77,56L75.838,57L75.907,60L75.975,60L76.044,55L76.112,56L76.181,57L76.249,58L76.386,62L76.454,62L76.523,61L76.591,62L76.66,60L76.797,56L76.934,56L77.002,56L77.07,58L77.139,58L77.207,57L77.276,61L77.344,61L77.413,61L77.481,62L77.55,63L77.618,61L77.687,59L77.755,61L77.823,61L77.892,54L78.029,55L78.097,57L78.166,56L78.234,53L78.303,56L78.371,59L78.439,60L78.576,59L78.713,58L78.782,59L78.85,62L78.919,63L79.055,63L79.124,62L79.261,65L79.329,64L79.398,60L79.466,59L79.535,55L79.603,56L79.671,55L79.737,54L79.805,54L79.874,54L79.942,55L80.011,58L80.079,59L80.148,54L80.216,53L80.285,59L80.353,59L80.422,58L80.49,57L80.558,58L80.627,59L80.695,58L80.764,58L80.832,58L80.969,60L81.038,55L81.106,55L81.174,55L81.243,55L81.311,55L81.38,56L81.448,59L81.517,64L81.585,64L81.654,68L81.79,68L81.859,68L81.927,64L81.996,62L82.133,60L82.201,58L82.27,55L82.338,54L82.406,56L82.543,59L82.612,60L82.68,60L82.749,60L82.817,59L82.886,61L82.954,61L83.022,62L83.091,55L83.159,54L83.228,52L83.296,52L83.365,49L83.433,49L83.502,48L83.57,47L83.638,47L83.707,40L83.775,40L83.844,41L83.912,41L83.981,40L84.049,38L84.118,38L84.186,39L84.255,40L84.323,40L84.391,44L84.46,44L84.528,43L84.597,41L84.665,40L84.734,39L84.802,39L84.871,41L84.939,41L85.007,38L85.076,37L85.144,42L85.213,44L85.281,47L85.35,51L85.418,48L85.487,48L85.555,47L85.623,49L85.692,50L85.76,56L85.829,55L85.897,53L85.966,45L86.034,43L86.103,44L86.171,48L86.239,50L86.308,48L86.376,48L86.445,45L86.513,44L86.582,46L86.65,44L86.719,44L86.787,36L86.855,33L86.924,31L86.992,29L87.061,32L87.129,31L87.198,31L87.266,27L87.335,24L87.403,19L87.471,26L87.54,21L87.608,21L87.814,20L87.882,20L87.951,17L88.019,14L88.087,17L88.156,19L88.293,20L88.361,21L88.43,18L88.498,18L88.567,20L88.635,17L88.704,19L88.772,21L88.84,22L88.909,24L88.977,24L89.046,33L89.114,36L89.183,38L89.251,39L89.32,37L89.388,41L89.456,38L89.525,42L89.593,43L89.662,48L89.73,47L89.799,48L89.867,51L89.936,51L90.004,47L90.072,50L90.141,55L90.278,49L90.346,56L90.415,59L90.483,60L90.62,62L90.688,58L90.757,59L90.825,61L90.894,60L90.962,59L91.031,60L91.099,63L91.168,65L91.236,64L91.304,67L91.373,64L91.441,64L91.51,65L91.578,61L91.647,62L91.715,61L91.784,61L91.852,60L91.92,61L91.989,63L92.126,60L92.194,60L92.263,64L92.331,65L92.4,62L92.468,68L92.537,68L92.605,66L92.673,64L92.742,65L92.81,68L92.879,68L92.947,68L93.016,71L93.084,73L93.153,73L93.221,72L93.289,70L93.358,71L93.426,71L93.495,75L93.563,76L93.632,77L93.7,79L93.769,81L93.837,83L93.905,83L93.974,82L94.042,81L94.111,82L94.179,84L94.248,87L94.316,86L94.385,86L94.453,89L94.59,88L94.658,88L94.727,91L94.864,93L95.001,89L95.069,87L95.206,88L95.274,84L95.343,81L95.411,81L95.548,79L95.617,78L95.685,79L95.753,77L95.822,76L95.89,72L95.959,71L96.03,71L96.099,68L96.167,68L96.235,68L96.304,70L96.372,73L96.441,74L96.509,75L96.646,72L96.715,71L96.783,71L96.851,71L96.988,70L97.057,70L97.125,70L97.194,70L97.262,70L97.331,72L97.399,74L97.467,74L97.536,78L97.673,79L97.741,79L97.81,79L97.878,79L97.947,79L98.084,80L98.152,81L98.289,82L98.426,81L98.494,79L98.563,83L98.631,82L98.7,78L98.768,76L98.836,76L98.905,72L98.973,71L99.042,74L99.11,74L99.247,75L99.316,72L99.384,72L99.452,69L99.521,69L99.589,67L99.658,66L99.726,66L99.795,64L99.863,59L99.932,62L100,64L100.068,61L100.137,61L100.274,62L100.342,53L100.411,55L100.479,55L100.548,59L100.616,60L100.684,60L100.753,59L100.821,61L100.89,62L100.958,64L101.027,65L101.095,68L101.164,67L101.3,65L101.369,66L101.437,65L101.506,68L101.574,67L101.643,68L101.711,68L101.78,68L101.848,68L101.916,71L101.985,73L102.053,76L102.122,74L102.19,69L102.259,70L102.327,66L102.396,66L102.464,75L102.533,75L102.601,75L102.669,75L102.806,75L102.875,76L102.943,77L103.012,78L103.08,81L103.149,80L103.217,79L103.285,78L103.354,76L103.422,78L103.491,73L103.559,73L103.628,73L103.696,75L103.765,78L103.833,78L103.901,77L103.97,78L104.038,76L104.107,76L104.175,76L104.244,76L104.312,81L104.381,83L104.449,86L104.517,87L104.586,86L104.651,85L104.72,81L104.788,81L104.857,81L104.925,82L104.994,81L105.131,78L105.199,76L105.336,73L105.404,72L105.541,71L105.61,75L105.678,75L105.815,80L105.884,81L105.952,81L106.02,80L106.157,78L106.226,78L106.294,81L106.363,81L106.431,82L106.5,79L106.568,81L106.636,83L106.705,81L106.773,78L106.842,80L106.91,80L107.047,81L107.116,82L107.184,85L107.321,84L107.458,82L107.526,82L107.595,82L107.8,84L107.868,85L107.937,87L108.005,89L108.074,92L108.142,90L108.211,91L108.279,91L108.348,90L108.416,90L108.484,91L108.553,91L108.621,88L108.69,86L108.758,82L108.827,83L108.964,86L109.032,84L109.101,83L109.169,85L109.237,88L109.374,88L109.443,87L109.511,86L109.58,84L109.648,85L109.717,85L109.853,88L109.922,88L109.99,84L110.059,84L110.127,83L110.196,83L110.264,81L110.333,81L110.469,80L110.538,77L110.606,77L110.675,76L110.812,75L110.949,75L111.017,77L111.085,79L111.154,79L111.222,81L111.291,80L111.359,80L111.428,82L111.496,82L111.565,81L111.633,80L111.701,81L111.77,80L111.838,81L111.907,83L111.975,83L112.044,82L112.112,82L112.181,81L112.249,86L112.317,86L112.386,88L112.454,90L112.523,92L112.591,89L112.66,92L112.728,91L112.797,88L112.865,89L112.933,88L113.002,87L113.07,85L113.139,86L113.207,87L113.276,86L113.344,87L113.413,88L113.481,87L113.55,88L113.618,85L113.686,82L113.755,77L113.823,76L113.892,77L114.029,73L114.097,72L114.166,73L114.234,72L114.302,72L114.371,72L114.439,69L114.576,69L114.645,69L114.713,67L114.782,70L114.85,67L114.918,69L115.055,72L115.124,71L115.192,73L115.261,74L115.329,76L115.398,74L115.466,75L115.671,77L115.74,76L115.877,76L115.945,75L116.014,75L116.082,76L116.219,79L116.287,84L116.356,85L116.424,80L116.493,82L116.561,84L116.63,85L116.766,84L116.835,83L116.903,84L117.04,88L117.109,87L117.177,87L117.314,88L117.383,88L117.451,91L117.519,91L117.656,91L117.793,93L117.862,91L117.999,90L118.067,90L118.204,91L118.272,90L118.341,91L118.409,92L118.478,91L118.546,93L118.615,93L118.683,95L118.751,94L118.888,93L118.957,92L119.025,94L119.162,96L119.231,94L119.367,92L119.436,94L119.504,95L119.641,94L119.778,94L119.847,94L119.983,93L120.052,94L120.394,94L120.463,94L120.531,96L120.599,95L120.736,93L120.805,94L120.873,94L120.945,94L121.081,95L121.15,96L121.287,96L121.561,96L121.629,97L121.697,97L121.766,97L121.834,96L121.903,98L121.971,99L122.04,102L122.108,105L122.177,105L122.245,105L122.313,105L122.519,105L122.656,104L122.724,105L122.793,105L122.93,104L123.066,105L123.135,105L123.272,105L123.477,104L123.546,104L123.614,105L123.682,105L123.819,106L123.888,105L123.956,105L124.025,105L124.162,103L124.367,102L124.435,102L124.504,100L124.572,99L124.709,99L124.778,101L124.914,101L124.983,101L125.051,101L125.12,101L125.394,101L125.462,103L125.53,105L125.599,104L125.667,106L125.736,106L125.804,105L125.873,106L125.941,106L126.078,104L126.215,104L126.489,102L126.626,102L126.694,102L126.762,104L126.831,101L126.968,100L127.036,100L127.31,100L127.379,100L127.447,99L127.515,98L127.584,100L127.721,100L127.789,98L127.858,97L127.995,96L128.063,95L128.131,93L128.268,90L128.405,87L128.474,87L128.611,87L128.747,87L128.953,85L129.021,83L129.09,83L129.158,84L129.227,83L129.295,85L129.363,84L129.5,84L129.569,84L129.637,82L129.706,81L129.774,83L129.843,86L129.911,85L130.045,85L130.114,86L130.182,87L130.25,88L130.319,86L130.456,84L130.524,84L130.661,81L130.73,81L130.798,80L130.935,81L131.003,83L131.277,85L131.414,84L131.482,84L131.551,84L131.619,86L131.756,87L131.825,88L131.893,88L131.962,87L132.03,86L132.167,86L132.235,85L132.372,85L132.441,85L132.578,84L132.714,85L132.783,84L132.851,84L132.92,84L132.988,85L133.057,82L133.125,81L133.262,83L133.33,86L133.399,86L133.467,87L133.536,87L133.604,87L133.673,86L133.741,83L133.81,80L133.878,81L134.015,81L134.083,78L134.152,77L134.22,76L134.289,76L134.357,75L134.426,75L134.494,76L134.563,76L134.631,80L134.699,78L134.768,78L134.836,78L134.905,78L134.973,78L135.042,77L135.11,77L135.179,75L135.247,78L135.315,78L135.521,78L135.589,77L135.658,76L135.726,78L135.795,78L135.863,76L135.931,76L136,76L136.137,79L136.205,79L136.274,79L136.342,79L136.411,77L136.479,74L136.547,72L136.616,73L136.684,75L136.753,75L136.821,75L136.89,74L136.958,76L137.027,77L137.095,79L137.232,79L137.3,80L137.369,80L137.437,80L137.506,82L137.574,80L137.643,80L137.711,80L137.779,77L137.848,80L137.916,81L138.053,80L138.122,83L138.19,85L138.259,88L138.327,87L138.396,83L138.532,80L138.669,84L138.738,86L138.806,88L138.875,89L138.943,87L139.012,85L139.08,85L139.148,86L139.217,85L139.285,83L139.422,84L139.491,82L139.559,80L139.628,75L139.696,77L139.764,77L139.833,77L139.901,76L140.107,74L140.175,74L140.244,78L140.312,74L140.38,74L140.449,76L140.517,76L140.654,75L140.723,75L140.791,75L140.86,77L140.928,80L140.996,79L141.065,80L141.133,81L141.202,81L141.27,81L141.339,82L141.407,79L141.544,79L141.612,81L141.681,82L141.749,81L141.818,81L141.886,82L141.955,85L142.023,84L142.092,78L142.16,78L142.297,82L142.434,81L142.502,80L142.571,77L142.639,80L142.708,79L142.776,78L142.845,76L142.913,76L142.981,77L143.118,78L143.187,79L143.255,77L143.324,76L143.392,76L143.461,77L143.529,77L143.597,78L143.666,79L143.734,81L143.803,79L143.871,76L143.94,76L144.008,77L144.077,79L144.145,78L144.282,80L144.419,81L144.487,86L144.556,85L144.624,85L144.693,87L144.761,86L144.829,89L144.898,89L144.966,90L145.035,91L145.103,94L145.172,95L145.24,95L145.377,95L145.445,90L145.514,87L145.582,87L145.651,85L145.719,83L145.788,84L145.856,83L145.925,83L145.993,84L146.061,86L146.13,87L146.198,85L146.267,85L146.338,84L146.407,85L146.475,85L146.612,85L146.68,86L146.749,86L146.817,86L146.886,87L147.023,89L147.159,88L147.228,88L147.296,88L147.365,86L147.639,85L147.707,85L147.775,85L147.844,85L147.912,89L148.049,93L148.118,94L148.186,91L148.255,93L148.323,90L148.46,89L148.528,89L148.597,88L148.665,86L148.734,86L148.802,88L148.871,86L148.939,86L149.008,87L149.144,86L149.213,85L149.281,84L149.35,84L149.418,82L149.487,81L149.555,80L149.624,81L149.692,81L149.76,80L149.829,82L149.897,81L149.966,78L150.103,78L150.171,78L150.24,79L150.308,77L150.376,78L150.65,80L150.719,80L150.787,82L150.856,85L150.992,85L151.061,84L151.129,80L151.198,80L151.266,81L151.335,81L151.403,81L151.472,80L151.54,80L151.608,79L151.677,77L151.745,78L151.814,80L151.882,79L151.951,79L152.019,69L152.156,68L152.225,67L152.293,67L152.361,69L152.43,72L152.498,70L152.567,70L152.635,70L152.704,72L152.772,71L152.841,71L152.977,68L153.046,68L153.114,68L153.183,66L153.251,65L153.388,71L153.457,70L153.525,70L153.593,70L153.662,69L153.73,70L153.799,70L153.867,72L153.936,75L154.004,74L154.141,73L154.415,75L154.483,76L154.552,85L154.62,85L154.689,84L154.825,84L154.894,82L154.96,77L155.028,78L155.096,77L155.165,76L155.302,77L155.37,77L155.576,79L155.644,81L155.712,82L155.781,82L155.849,84L155.918,87L155.986,87L156.055,84L156.123,82L156.192,83L156.26,84L156.328,77L156.397,77L156.465,76L156.534,71L156.671,71L156.808,71L156.876,69L156.944,68L157.013,63L157.218,63L157.287,65L157.355,62L157.424,62L157.492,65L157.56,65L157.629,67L157.697,68L157.766,66L157.834,64L157.903,63L157.971,64L158.04,64L158.108,64L158.176,63L158.245,61L158.313,58L158.382,61L158.45,62L158.587,63L158.656,63L158.724,69L158.792,69L158.929,68L158.998,71L159.066,69L159.135,69L159.203,70L159.272,69L159.34,75L159.409,74L159.477,73L159.545,74L159.614,75L159.682,76L159.751,75L159.819,75L159.888,76L159.956,76L160.025,77L160.093,79L160.161,79L160.23,78L160.298,78L160.367,74L160.435,76L160.504,78L160.572,80L160.641,81L160.777,79L160.846,77L160.983,75L161.051,75L161.12,73L161.188,69L161.257,70L161.325,69L161.393,70L161.462,69L161.53,64L161.599,64L161.667,63L161.736,64L161.804,64L161.873,62L161.941,62L162.009,59L162.078,58L162.146,59L162.215,59L162.283,57L162.352,56L162.42,56L162.557,50L162.762,52L163.036,51L163.105,48L163.173,48L163.242,45L163.31,46L163.378,48L163.447,49L163.584,44L163.652,46L163.721,52L163.789,50L163.858,51L163.926,51L163.994,51L164.063,54L164.131,57L164.2,58L164.268,59L164.337,58L164.405,58L164.474,59L164.542,62L164.61,62L164.679,62L164.747,64L164.816,63L164.884,62L164.953,62L165.021,67L165.09,68L165.158,69L165.226,72L165.295,73L165.363,73L165.432,72L165.5,72L165.569,73L165.637,79L165.706,81L165.774,81L165.842,83L165.911,84L165.979,81L166.048,81L166.116,80L166.253,79L166.322,80L166.39,77L166.458,77L166.527,80L166.595,77L166.664,76L166.732,75L166.801,76L166.869,76L166.938,79L167.006,79L167.074,79L167.143,79L167.211,79L167.28,78L167.348,79L167.417,79L167.485,80L167.554,81L167.622,82L167.691,83L167.759,83L167.827,83L167.896,83L168.033,84L168.101,84L168.17,87L168.238,90L168.307,92L168.375,91L168.443,89L168.512,90L168.58,92L168.649,90L168.717,93L168.786,88L168.854,89L168.923,89L168.991,88L169.059,87L169.128,88L169.265,88L169.402,86L169.47,88L169.539,89L169.607,89L169.675,88L169.744,90L169.812,89L169.949,89L170.018,87L170.086,87L170.155,81L170.291,80L170.36,81L170.428,79L170.497,79L170.565,78L170.634,78L170.702,75L170.771,78L170.839,79L170.907,78L170.976,80L171.044,80L171.113,85L171.253,84L171.321,83L171.389,82L171.458,81L171.526,83L171.595,81L171.663,83L171.732,82L171.8,81L171.869,80L172.005,81L172.074,79L172.142,80L172.279,78L172.485,80L172.553,77L172.621,81L172.758,80L172.827,77L173.032,77L173.101,77L173.169,75L173.238,73L173.306,75L173.374,75L173.443,75L173.511,74L173.648,72L173.785,73L173.854,74L173.922,76L173.99,75L174.059,73L174.196,74L174.333,72L174.401,75L174.47,74L174.538,75L174.606,73L174.675,71L174.812,68L174.88,68L174.949,68L175.017,67L175.154,64L175.291,67L175.359,67L175.428,67L175.496,70L175.565,71L175.633,70L175.77,72L175.838,73L175.907,76L175.975,75L176.044,75L176.112,77L176.181,77L176.318,76L176.386,76L176.454,73L176.523,74L176.591,77L176.66,75L176.728,77L176.797,76L176.865,74L177.002,74L177.139,77L177.207,80L177.276,81L177.344,82L177.413,83L177.481,86L177.55,89L177.618,88L177.687,87L177.823,86L177.96,83L178.029,84L178.097,85L178.166,85L178.303,86L178.371,83L178.439,84L178.508,85L178.576,84L178.645,86L178.713,83L178.782,81L178.85,83L178.919,83L178.987,84L179.055,86L179.124,86L179.192,86L179.261,90L179.329,89L179.398,88L179.466,86L179.535,88L179.603,87L179.671,86L179.74,85L179.808,85L179.874,86L179.942,88L180.011,89L180.079,89L180.148,89L180.216,87L180.285,87L180.353,87L180.422,89L180.49,86L180.558,84L180.627,82L180.695,80L180.832,82L180.969,80L181.038,78L181.174,76L181.243,75L181.38,70L181.448,69L181.585,69L181.722,69L181.859,68L181.927,68L182.064,70L182.133,67L182.201,67L182.27,67L182.338,67L182.406,66L182.475,63L182.612,63L182.68,64L182.817,65L182.886,62L183.022,63L183.091,63L183.159,64L183.228,63L183.296,66L183.365,66L183.433,67L183.502,67L183.57,69L183.638,71L183.707,74L183.775,77L183.844,77L183.912,83L183.981,82L184.049,80L184.118,79L184.323,76L184.391,76L184.46,74L184.528,74L184.597,76L184.665,77L184.802,75L184.871,76L184.939,74L185.007,73L185.144,69L185.213,71L185.281,74L185.35,74L185.418,75L185.487,73L185.555,73L185.623,73L185.692,75L185.76,76L185.829,76L185.897,76L185.966,76L186.034,75L186.103,75L186.171,75L186.239,72L186.376,74L186.445,75L186.513,75L186.582,78L186.65,79L186.719,80L186.787,76L186.924,71L187.061,70L187.129,73L187.198,72L187.266,72L187.335,73L187.403,78L187.471,75L187.54,71L187.608,73L187.677,73L187.745,74L187.814,73L187.882,70L187.951,62L188.019,61L188.087,63L188.156,59L188.224,59L188.293,59L188.361,56L188.43,53L188.498,55L188.567,53L188.635,54L188.704,54L188.772,52L188.977,51L189.046,52L189.114,59L189.183,62L189.251,61L189.32,61L189.388,61L189.456,65L189.525,64L189.593,63L189.662,65L189.73,67L189.799,64L189.867,64L189.936,63L190.004,62L190.072,61L190.141,66L190.209,68L190.278,64L190.415,65L190.483,67L190.552,68L190.62,71L190.688,74L190.757,74L190.825,74L190.894,74L190.962,74L191.031,77L191.099,74L191.168,73L191.236,72L191.373,73L191.441,73L191.51,73L191.647,72L191.715,72L191.784,72L191.852,72L191.92,70L191.989,70L192.126,71L192.194,70L192.263,70L192.331,72L192.4,74L192.468,77L192.537,76L192.605,75L192.673,77L192.742,74L192.81,71L192.879,71L192.947,71L193.016,71L193.084,71L193.153,70L193.289,70L193.358,69L193.426,73L193.495,73L193.563,74L193.632,75L193.7,77L193.769,75L193.837,76L193.905,74L193.974,74L194.042,71L194.111,74L194.179,74L194.248,76L194.385,76L194.453,75L194.521,77L194.59,75L194.658,72L194.727,69L194.795,70L194.864,69L194.932,71L195.001,73L195.069,69L195.137,69L195.206,70L195.274,72L195.343,74L195.48,74L195.548,75L195.617,74L195.685,75L195.753,74L195.822,74L195.89,70L195.959,71L196.027,69L196.096,72L196.167,72L196.235,71L196.304,66L196.372,68L196.441,68L196.509,69L196.578,68L196.646,68L196.715,72L196.783,75L196.92,78L196.988,82L197.057,84L197.125,85L197.194,83L197.262,87L197.331,84L197.399,84L197.467,82L197.536,80L197.604,80L197.741,79L197.81,79L197.878,78L197.947,79L198.084,78L198.152,81L198.22,81L198.289,84L198.357,84L198.494,85L198.563,90L198.7,95L198.768,92L198.836,92L198.905,90L199.042,93L199.11,93L199.179,93L199.316,91L199.384,89L199.452,86L199.521,86L199.589,85L199.658,86L199.726,83L199.795,87L199.863,86L199.932,86L200,85L200.137,83L200.205,85L200.274,85L200.342,85L200.411,84L200.479,83L200.548,84L200.616,81L200.684,79L200.753,78L200.821,77L200.89,77L201.027,77L201.095,79L201.164,79L201.232,79L201.369,80L201.437,80L201.506,80L201.574,79L201.643,81L201.711,81L201.78,79L201.848,79" stroke="#4c78a8" stroke-width="2"/></g><g class="mark-group role-title"><g transform="translate(100,-22)"><path class="background" aria-hidden="true" d="M0,0h0v0h0Z" pointer-events="none"/><g><g class="mark-text role-title-text" role="graphics-symbol" aria-roledescription="title" aria-label="Title text 'Food Establishment: Food Spoiled'" pointer-events="none"><text text-anchor="middle" transform="translate(0,10)" font-family="sans-serif" font-size="13px" font-weight="bold" fill="#000" opacity="1">Food Establishment: Food Spoiled</text></g></g><path class="foreground" aria-hidden="true" d="" pointer-events="none" display="none"/></g></g></g><path class="foreground" aria-hidden="true" d="" display="none"/></g></g></g><defs><clipPath id="clip160"><rect x="0" y="0" width="200" height="150"/></clipPath></defs></svg>