<svg xmlns="http://www.w3.org/2000/svg" xmlns:xlink="http://www.w3.org/1999/xlink" version="1.1" class="marks" width="236" height="194" viewBox="0 0 236 194"><rect width="236" height="194" fill="white"/><g fill="none" stroke-miterlimit="10" transform="translate(24,22)"><g class="mark-group role-frame root" role="graphics-object" aria-roledescription="group mark container"><g transform="translate(0,0)"><path class="background" aria-hidden="true" d="M0,0h200v150h-200Z"/><g><g class="mark-group role-axis" aria-hidden="true"><g transform="translate(0.5,0.5)"><path class="background" aria-hidden="true" d="M0,0h0v0h0Z" pointer-events="none"/><g><g class="mark-rule role-axis-grid" pointer-events="none"><line transform="translate(0,150)" x2="200" y2="0" stroke="#ddd" stroke-width="1" opacity="1"/><line transform="translate(0,103)" x2="200" y2="0" stroke="#ddd" stroke-width="1" opacity="1"/><line transform="translate(0,56)" x2="200" y2="0" stroke="#ddd" stroke-width="1" opacity="1"/><line transform="translate(0,9)" x2="200" y2="0" stroke="#ddd" stroke-width="1" opacity="1"/></g></g><path class="foreground" aria-hidden="true" d="" pointer-events="none" display="none"/></g></g><g class="mark-group role-axis" role="graphics-symbol" aria-roledescription="axis" aria-label="X-axis for a time scale with values from Friday, 01 January 2016, 12:00:00 AM to Monday, 01 January 2024, 12:00:00 AM"><g transform="translate(0.5,150.5)"><path class="background" aria-hidden="true" d="M0,0h0v0h0Z" pointer-events="none"/><g><g class="mark-rule role-axis-tick" pointer-events="none"><line transform="translate(0,0)" x2="0" y2="5" stroke="#888" stroke-width="1" opacity="1"/><line transform="translate(50,0)" x2="0" y2="5" stroke="#888" stroke-width="1" opacity="1"/><line transform="translate(100,0)" x2="0" y2="5" stroke="#888" stroke-width="1" opacity="1"/><line transform="translate(150,0)" x2="0" y2="5" stroke="#888" stroke-width="1" opacity="1"/><line transform="translate(200,0)" x2="0" y2="5" stroke="#888" stroke-width="1" opacity="1"/></g><g class="mark-text role-axis-label" pointer-events="none"><text text-anchor="start" transform="translate(0,15)" font-family="sans-serif" font-size="10px" fill="#000" opacity="1">2016</text><text text-anchor="middle" transform="translate(50.03422313483915,15)" font-family="sans-serif" font-size="10px" fill="#000" opacity="1">2018</text><text text-anchor="middle" transform="translate(100,15)" font-family="sans-serif" font-size="10px" fill="#000" opacity="1">2020</text><text text-anchor="middle" transform="translate(150.03422313483915,15)" font-family="sans-serif" font-size="10px" fill="#000" opacity="1">2022</text><text text-anchor="end" transform="translate(200,15)" font-family="sans-serif" font-size="10px" fill="#000" opacity="1">2024</text></g><g class="mark-rule role-axis-domain" pointer-events="none"><line transform="translate(0,0)" x2="200" y2="0" stroke="#888" stroke-width="1" opacity="1"/></g></g><path class="foreground" aria-hidden="true" d="" pointer-events="none" display="none"/></g></g><g class="mark-group role-axis" role="graphics-symbol" aria-roledescription="axis" aria-label="Y-axis for a linear scale with values from 0 to 16"><g transform="translate(0.5,0.5)"><path class="background" aria-hidden="true" d="M0,0h0v0h0Z" pointer-events="none"/><g><g class="mark-rule role-axis-tick" pointer-events="none"><line transform="translate(0,150)" x2="-5" y2="0" stroke="#888" stroke-opacity="0" stroke-width="1" opacity="1"/><line transform="translate(0,103)" x2="-5" y2="0" stroke="#888" stroke-opacity="0" stroke-width="1" opacity="1"/><line transform="translate(0,56)" x2="-5" y2="0" stroke="#888" stroke-opacity="0" stroke-width="1" opacity="1"/><line transform="translate(0,9)" x2="-5" y2="0" stroke="#888" stroke-opacity="0" stroke-width="1" opacity="1"/></g><g class="mark-text role-axis-label" pointer-events="none"><text text-anchor="end" transform="translate(-7,153)" font-family="sans-serif" font-size="10px" fill="#000" opacity="1">0</text><text text-anchor="end" transform="translate(-7,106.125)" font-family="sans-serif" font-size="10px" fill="#000" opacity="1">5</text><text text-anchor="end" transform="translate(-7,59.25)" font-family="sans-serif" font-size="10px" fill="#000" opacity="1">10</text><text text-anchor="end" transform="translate(-7,12.375)" font-family="sans-serif" font-size="10px" fill="#000" opacity="1">15</text></g></g><path class="foreground" aria-hidden="true" d="" pointer-events="none" display="none"/></g></g><g class="mark-line role-mark marks" clip-path="url(#clip161)" role="graphics-object" aria-roledescription="line mark container"><path aria-label="day: Jun 06, 2019; avg: 15" role="graphics-symbol" aria-roledescription="line mark" d="M85.692,9.375L85.829,7.5L85.897,7.188L85.966,12.5L86.034,15.312L86.103,17.813L86.171,19.375L86.239,20.625L86.308,25L86.376,27.813L86.445,31.563L86.513,34.062L86.582,33.75L86.65,35.938L86.719,36.875L86.787,37.813L86.855,41.563L86.924,45.625L86.992,50.938L87.061,52.188L87.129,51.25L87.198,50.625L87.266,51.25L87.335,49.062L87.403,49.375L87.471,53.125L87.54,53.437L87.608,52.5L87.677,49.375L87.745,49.688L87.814,48.75L87.882,48.75L87.951,49.062L88.019,50L88.087,48.75L88.156,47.813L88.224,47.813L88.293,48.75L88.361,49.062L88.43,48.437L88.498,48.75L88.567,49.688L88.635,49.688L88.704,48.75L88.772,47.188L88.84,47.5L88.909,49.688L88.977,49.062L89.046,47.188L89.114,46.563L89.183,48.75L89.251,51.563L89.32,52.188L89.388,56.25L89.456,54.063L89.525,53.125L89.593,51.563L89.662,49.688L89.73,52.812L89.799,52.812L89.867,53.437L89.936,52.812L90.004,53.437L90.072,50.313L90.141,50L90.209,46.875L90.278,46.25L90.346,44.375L90.415,42.813L90.483,42.5L90.552,40.313L90.62,36.875L90.688,35.313L90.757,37.5L90.825,40.313L90.894,39.062L90.962,40L91.031,38.75L91.099,36.563L91.168,34.375L91.236,35.938L91.304,33.125L91.373,33.125L91.441,34.375L91.51,34.687L91.578,34.062L91.647,34.062L91.715,38.438L91.784,36.875L91.852,35.938L91.92,37.188L91.989,37.813L92.057,36.25L92.126,36.563L92.194,39.687L92.263,43.437L92.331,45.313L92.4,46.875L92.468,48.437L92.537,47.813L92.605,49.688L92.673,52.5L92.742,52.812L92.81,51.563L92.879,50L92.947,51.563L93.016,49.375L93.084,49.688L93.153,52.5L93.221,52.5L93.289,50.625L93.358,51.875L93.426,50.625L93.495,47.188L93.563,47.188L93.632,48.437L93.7,49.375L93.769,47.5L93.837,46.875L93.905,46.875L93.974,45L94.042,41.563L94.111,42.188L94.179,43.75L94.248,43.75L94.316,41.563L94.385,40.313L94.453,40L94.521,40.313L94.59,41.875L94.658,39.375L94.727,41.563L94.795,43.75L94.864,44.375L94.932,44.688L95.001,42.813L95.069,43.75L95.137,43.437L95.206,44.375L95.274,45.313L95.343,44.375L95.411,44.375L95.48,44.688L95.548,47.188L95.617,49.688L95.685,50.938L95.753,52.188L95.822,51.25L95.89,51.563L95.959,50.313L96.03,51.563L96.099,56.25L96.167,58.75L96.235,59.688L96.304,59.063L96.372,58.125L96.441,56.875L96.509,57.5L96.578,54.375L96.646,54.063L96.715,54.063L96.783,48.125L96.851,46.25L96.92,44.062L96.988,44.062L97.057,46.25L97.125,46.563L97.194,45.313L97.262,42.5L97.331,44.375L97.399,45.938L97.467,47.188L97.536,49.062L97.604,48.75L97.673,47.813L97.741,46.875L97.81,45.938L97.878,46.875L97.947,47.813L98.015,49.688L98.084,50.313L98.152,49.688L98.22,48.437L98.289,47.5L98.357,47.5L98.426,50.938L98.494,52.812L98.563,52.812L98.631,56.25L98.7,54.688L98.768,57.812L98.836,62.812L98.905,65.625L98.973,68.125L99.042,68.125L99.11,67.188L99.179,67.812L99.247,70L99.316,70.938L99.384,70.625L99.452,71.875L99.521,70.625L99.589,70.313L99.658,71.25L99.726,70.938L99.795,69.375L99.863,70.625L99.932,71.25L100,70.625L100.068,70.625L100.137,71.25L100.205,68.75L100.274,68.438L100.342,69.688L100.411,70L100.479,68.438L100.548,69.375L100.616,66.875L100.684,65.625L100.753,66.563L100.821,66.25L100.89,63.75L100.958,62.187L101.027,62.187L101.095,62.187L101.164,61.875L101.232,61.25L101.3,60.313L101.369,61.875L101.437,61.875L101.506,60.938L101.574,60.313L101.643,59.063L101.711,56.25L101.78,56.25L101.848,55.625L101.916,53.125L101.985,52.812L102.053,52.188L102.122,51.563L102.19,49.688L102.259,51.25L102.327,50.625L102.396,50.313L102.464,48.125L102.533,47.813L102.601,46.563L102.669,50L102.738,51.563L102.806,52.5L102.875,54.688L102.943,56.875L103.012,59.063L103.08,60.625L103.149,63.438L103.217,66.25L103.285,68.75L103.354,71.875L103.422,75.313L103.491,76.875L103.559,78.75L103.628,82.187L103.696,85.313L103.765,89.688L103.833,92.187L103.901,96.25L103.97,100.313L104.038,103.125L104.107,105.938L104.175,109.375L104.244,112.813L104.312,115.313L104.381,118.438L104.449,120.313L104.517,124.063L104.586,126.875L104.651,130L104.72,132.188L104.788,133.125L104.857,135L104.925,135.313L104.994,136.875L105.062,137.5L105.131,138.125L105.199,138.438L105.268,137.813L105.336,137.813L105.404,137.813L105.541,137.5L105.884,137.813L106.226,137.813L106.705,137.813L106.842,137.813L106.91,137.188L107.047,137.188L107.252,137.188L107.321,136.875L107.389,136.875L107.868,136.875L108.074,136.25L108.142,134.375L108.279,134.063L108.416,134.063L108.553,133.75L108.758,133.75L108.964,134.063L109.443,133.75L109.58,133.75L109.922,133.438L110.059,133.125L110.127,133.125L110.401,133.438L110.538,133.438L110.606,133.438L110.949,133.75L111.017,134.375L111.085,134.063L111.291,134.063L111.359,134.375L111.496,134.063L111.565,134.063L111.701,133.75L111.907,133.438L112.044,133.438L112.181,133.438L112.386,133.438L112.66,132.5L112.728,132.188L112.797,131.875L112.865,132.5L112.933,134.688L113.002,135L113.07,134.688L113.207,135L113.344,134.063L113.413,134.063L113.618,133.75L113.755,133.438L113.823,133.125L113.892,132.813L113.96,132.5L114.302,132.188L114.371,131.875L114.439,132.188L114.508,132.188L114.576,131.25L114.782,131.25L114.85,130.313L114.918,129.688L115.055,129.063L115.124,128.75L115.398,128.75L115.466,128.75L115.534,128.75L115.603,128.125L115.671,127.813L115.808,128.438L115.945,128.75L116.014,128.75L116.219,128.438L116.287,128.438L116.356,128.125L116.424,128.438L116.63,128.125L116.698,128.75L116.766,128.125L116.835,127.813L116.903,128.125L116.972,128.438L117.04,127.5L117.109,127.188L117.177,127.5L117.246,126.25L117.314,125.938L117.383,125.313L117.451,125.625L117.588,125.938L117.656,126.563L117.725,127.188L117.793,128.125L117.862,128.125L117.93,127.813L117.999,127.188L118.067,127.813L118.135,128.438L118.204,128.125L118.272,128.438L118.341,128.125L118.546,127.5L118.683,126.875L118.751,126.563L118.82,126.25L118.957,125.625L119.025,125.938L119.094,126.25L119.162,126.875L119.231,127.813L119.299,127.813L119.367,127.5L119.436,128.75L119.504,128.75L119.573,128.125L119.641,129.688L119.778,130L119.915,130L120.052,130.313L120.189,130.313L120.257,130.625L120.326,130.625L120.463,130.625L120.531,131.25L120.668,131.875L120.736,132.5L120.805,132.5L120.873,132.5L120.945,132.5L121.081,132.188L121.15,132.5L121.218,133.438L121.287,134.063L121.355,134.063L121.424,134.688L121.492,135.313L121.561,135.313L121.629,135.313L121.766,135.313L121.834,134.375L121.903,134.063L121.971,133.125L122.04,132.813L122.177,133.438L122.245,134.063L122.313,134.063L122.382,134.063L122.45,134.375L122.519,134.063L122.587,134.063L122.656,133.75L122.861,133.438L123.066,133.438L123.135,133.438L123.203,133.438L123.34,133.125L123.409,133.125L123.477,132.813L123.546,132.813L123.614,132.5L123.682,132.5L123.751,132.188L123.819,132.5L123.888,131.875L123.956,131.563L124.025,131.563L124.093,131.563L124.23,131.25L124.298,131.25L124.367,131.563L124.435,131.875L124.504,133.438L124.572,134.063L124.641,133.75L124.709,133.75L124.778,133.438L125.051,133.438L125.12,133.75L125.188,134.375L125.257,134.063L125.325,134.063L125.394,134.063L125.53,133.438L125.667,132.813L125.736,132.813L125.804,132.813L125.873,132.5L125.941,132.813L126.078,133.125L126.146,134.063L126.215,133.75L126.283,134.063L126.42,133.125L126.489,133.75L126.557,132.813L126.694,132.813L126.762,132.813L126.899,132.188L126.968,131.25L127.036,131.563L127.173,130.625L127.242,130L127.31,129.688L127.379,130L127.447,130L127.584,128.75L127.721,128.75L127.789,127.188L127.926,127.188L128.337,126.875L128.405,125.313L128.474,125.313L128.611,125L128.679,124.688L128.747,124.375L128.953,125L129.021,125L129.09,125L129.158,125L129.295,123.75L129.432,122.813L129.5,121.875L129.569,122.813L129.637,121.875L129.706,122.188L129.774,121.875L129.979,120.938L130.045,121.563L130.114,122.5L130.182,122.5L130.25,123.438L130.319,123.75L130.387,123.125L130.456,122.813L130.524,122.5L130.593,123.438L130.661,123.438L130.73,124.063L130.798,124.063L130.866,123.438L130.935,125L131.003,124.688L131.072,125L131.14,125.313L131.209,124.063L131.277,123.125L131.346,123.125L131.414,122.813L131.482,122.813L131.551,123.438L131.619,123.75L131.688,124.375L131.756,123.75L131.825,123.438L131.893,123.75L131.962,123.75L132.03,124.375L132.098,124.375L132.167,123.438L132.235,122.5L132.304,121.875L132.372,121.875L132.441,121.563L132.509,121.563L132.578,120L132.646,120.625L132.714,119.375L132.783,120L132.851,119.063L132.92,120L132.988,119.375L133.057,118.75L133.125,118.438L133.194,119.063L133.262,119.063L133.33,118.125L133.399,118.125L133.467,117.5L133.536,116.563L133.604,115.938L133.673,115.625L133.81,115.625L133.878,115.625L133.946,115.938L134.015,115.313L134.083,115L134.152,114.375L134.22,113.438L134.289,113.125L134.357,113.75L134.426,112.188L134.494,111.875L134.563,111.875L134.631,111.875L134.699,112.813L134.768,110.625L134.836,108.438L134.973,107.5L135.042,107.188L135.11,107.5L135.179,106.875L135.247,107.188L135.315,107.813L135.384,106.563L135.452,107.5L135.521,106.875L135.589,106.25L135.658,106.563L135.726,107.813L135.795,106.25L135.863,105.938L135.931,105.938L136,105.313L136.068,104.688L136.137,105.313L136.205,103.438L136.274,103.438L136.342,104.063L136.411,104.063L136.479,102.813L136.547,104.375L136.616,103.438L136.684,102.813L136.753,102.813L136.821,102.813L136.89,104.688L136.958,104.375L137.027,104.375L137.095,103.75L137.163,100.313L137.232,100.937L137.3,101.562L137.369,100.937L137.437,98.438L137.506,99.063L137.574,99.688L137.643,98.438L137.711,99.063L137.779,98.438L137.848,101.25L137.916,101.25L137.985,100.625L138.053,98.125L138.122,99.375L138.19,100L138.259,100.625L138.327,99.063L138.396,99.063L138.464,96.875L138.532,96.25L138.601,94.688L138.669,95.938L138.738,97.188L138.806,95.938L138.875,95.625L138.943,92.813L139.012,95L139.08,94.375L139.148,95.313L139.217,95.938L139.285,93.75L139.354,92.813L139.422,92.187L139.491,95.313L139.559,93.438L139.628,94.063L139.696,95.313L139.764,93.75L139.833,93.438L139.901,92.187L139.97,90.625L140.038,90.625L140.107,92.813L140.175,92.813L140.244,91.562L140.312,91.562L140.38,94.063L140.449,93.438L140.517,95.938L140.586,97.813L140.654,98.75L140.723,96.875L140.791,96.875L140.86,98.125L140.928,97.188L140.996,98.75L141.065,100.313L141.133,101.25L141.202,101.562L141.27,103.125L141.339,102.813L141.407,102.5L141.476,102.188L141.544,100.625L141.612,102.188L141.681,102.813L141.749,101.875L141.818,102.188L141.886,101.562L141.955,100.625L142.023,100.625L142.092,99.688L142.16,99.375L142.228,98.438L142.297,96.875L142.365,98.75L142.434,96.875L142.502,95.938L142.571,95.625L142.639,93.75L142.708,93.125L142.845,93.438L142.913,92.813L142.981,90.938L143.05,92.187L143.118,92.813L143.187,90L143.255,89.375L143.324,88.75L143.392,88.125L143.461,90.313L143.529,90.625L143.597,90.625L143.666,89.375L143.734,86.25L143.803,85.313L143.871,83.438L143.94,82.187L144.008,82.5L144.077,82.812L144.145,85.625L144.213,85.938L144.282,85.625L144.35,84.688L144.419,84.688L144.487,82.812L144.556,82.187L144.624,80.625L144.693,79.063L144.761,80L144.829,80.938L144.898,81.25L144.966,80.938L145.035,80.938L145.103,79.375L145.172,76.875L145.24,76.875L145.309,75L145.377,72.5L145.445,73.438L145.514,73.438L145.582,73.438L145.651,74.063L145.719,74.063L145.788,75.625L145.856,76.25L145.925,79.688L145.993,80.625L146.061,79.688L146.13,79.063L146.198,76.875L146.267,75.313L146.338,76.875L146.407,77.5L146.475,78.438L146.543,78.438L146.612,79.063L146.68,81.25L146.749,84.063L146.817,82.5L146.886,81.563L146.954,81.25L147.023,79.375L147.091,78.75L147.159,80.313L147.228,83.125L147.296,85.625L147.365,88.438L147.433,90.938L147.502,90.625L147.57,91.25L147.639,91.875L147.707,90.938L147.775,92.5L147.844,93.438L147.912,93.75L147.981,94.063L148.049,93.75L148.118,94.688L148.186,95.625L148.255,97.813L148.323,99.375L148.392,99.375L148.46,100.313L148.528,101.875L148.597,102.813L148.665,103.125L148.734,104.375L148.802,102.188L148.871,105.313L148.939,105.625L149.008,106.563L149.076,108.438L149.144,110L149.213,109.063L149.281,107.813L149.35,105.625L149.418,105.625L149.487,105.313L149.555,105L149.624,104.688L149.692,104.688L149.76,106.25L149.829,105.938L149.897,106.563L149.966,105.625L150.034,104.375L150.103,105L150.171,105.313L150.24,103.75L150.308,102.188L150.376,102.5L150.445,100.937L150.513,100L150.582,100.313L150.65,99.063L150.719,99.375L150.787,97.5L150.856,99.063L150.924,96.563L150.992,95.938L151.061,95L151.129,93.75L151.198,95L151.266,93.125L151.335,93.75L151.403,93.125L151.472,91.25L151.54,90.625L151.608,90.938L151.677,91.25L151.814,90.938L151.882,89.688L151.951,91.25L152.019,90.938L152.088,90.938L152.156,90.938L152.225,90.625L152.293,89.063L152.361,90.625L152.43,88.75L152.498,88.75L152.567,88.75L152.635,88.75L152.704,84.375L152.772,84.688L152.841,84.063L152.909,84.688L152.977,83.438L153.046,84.688L153.114,84.688L153.183,84.688L153.251,85L153.32,82.187L153.388,82.187L153.457,82.187L153.525,83.75L153.593,84.063L153.662,83.75L153.73,81.25L153.799,80.313L153.867,80L153.936,80.938L154.004,79.688L154.073,78.75L154.141,78.438L154.209,77.188L154.278,77.5L154.346,78.438L154.415,77.813L154.483,77.813L154.552,78.125L154.62,78.438L154.689,78.438L154.757,82.187L154.825,82.5L154.894,83.125L154.96,81.563L155.028,82.812L155.096,81.563L155.165,82.5L155.233,81.875L155.302,83.75L155.37,85.313L155.439,87.5L155.507,87.188L155.576,87.813L155.644,88.125L155.712,87.5L155.781,88.125L155.849,87.188L155.918,86.25L155.986,85.938L156.055,85L156.123,83.125L156.192,83.438L156.26,85L156.328,84.375L156.397,85.313L156.465,85.625L156.534,88.125L156.602,85.625L156.671,85.625L156.739,84.688L156.808,84.688L156.876,84.688L156.944,84.063L157.013,85.313L157.081,82.812L157.15,83.75L157.218,83.438L157.287,83.125L157.355,80.938L157.424,78.438L157.492,78.438L157.56,77.813L157.629,75.313L157.697,75.625L157.766,73.125L157.834,74.063L157.903,73.125L157.971,72.188L158.04,70.938L158.108,70.938L158.176,73.438L158.245,72.5L158.313,70L158.382,70.625L158.45,68.75L158.519,68.438L158.587,67.5L158.656,68.438L158.724,66.875L158.792,68.438L158.861,67.188L158.929,65.313L158.998,65L159.066,65.938L159.135,67.5L159.203,66.25L159.272,65.938L159.34,66.563L159.409,68.438L159.477,69.688L159.545,70L159.614,70.938L159.682,73.75L159.751,72.188L159.819,76.563L159.888,76.563L159.956,79.063L160.025,80.313L160.093,82.5L160.161,83.75L160.23,82.5L160.298,83.125L160.367,85L160.435,84.375L160.504,85.938L160.572,88.125L160.641,88.75L160.709,88.438L160.777,90.313L160.846,90.313L160.914,90.625L160.983,92.187L161.051,92.5L161.12,89.688L161.188,89.375L161.257,90L161.325,89.688L161.393,90.313L161.462,89.375L161.53,91.562L161.599,90L161.667,90L161.736,87.188L161.804,89.688L161.873,88.125L161.941,88.75L162.009,86.875L162.078,86.563L162.146,85.625L162.215,84.688L162.283,84.688L162.352,84.688L162.42,83.75L162.489,83.125L162.557,81.875L162.625,79.688L162.694,78.438L162.762,79.688L162.831,78.438L162.899,78.438L162.968,77.813L163.036,76.563L163.105,76.563L163.173,78.125L163.242,78.125L163.31,75.938L163.378,75.625L163.447,74.688L163.515,73.75L163.584,71.875L163.652,73.75L163.721,75L163.789,76.563L163.858,76.875L163.926,79.063L163.994,79.375L164.063,80.938L164.131,80L164.2,79.688L164.268,78.75L164.337,78.75L164.405,78.75L164.474,79.688L164.542,81.563L164.61,82.5L164.679,84.375L164.747,84.688L164.816,84.375L164.884,84.063L164.953,85.313L165.021,85.938L165.09,87.813L165.158,88.438L165.226,88.125L165.295,89.063L165.363,91.25L165.432,90.625L165.5,92.187L165.569,93.438L165.637,92.813L165.706,92.5L165.774,91.875L165.842,90.938L165.911,87.5L165.979,86.563L166.048,85.625L166.116,85.313L166.185,86.563L166.253,86.563L166.322,88.438L166.39,89.375L166.458,91.25L166.527,91.562L166.595,90L166.664,88.438L166.732,87.188L166.801,89.688L166.869,91.562L166.938,93.75L167.006,91.562L167.074,91.25L167.143,90.625L167.211,90.625L167.28,91.562L167.348,91.25L167.417,90.313L167.485,90.938L167.554,90.625L167.622,90.938L167.691,91.875L167.759,92.813L167.827,92.813L167.896,95.625L167.964,95.313L168.033,95.313L168.101,96.875L168.17,95.938L168.238,96.25L168.307,97.188L168.375,95.938L168.443,96.25L168.512,95L168.58,93.75L168.649,94.688L168.717,96.25L168.786,96.25L168.854,94.063L168.923,92.187L168.991,89.688L169.059,89.063L169.128,90L169.196,90.625L169.265,90L169.333,90.313L169.402,90.625L169.47,91.562L169.539,92.813L169.607,92.813L169.675,93.75L169.744,93.125L169.812,92.187L169.881,91.25L169.949,87.188L170.018,89.063L170.086,89.688L170.155,89.688L170.223,89.688L170.291,88.438L170.36,88.125L170.428,89.688L170.497,88.438L170.565,89.375L170.634,91.25L170.702,90.313L170.771,90.313L170.839,90.938L170.907,90.625L170.976,90.313L171.044,92.5L171.113,92.5L171.181,92.187L171.253,91.562L171.321,92.187L171.389,92.187L171.458,90.938L171.526,90.938L171.595,90.313L171.663,88.125L171.732,87.188L171.8,87.188L171.869,86.563L171.937,84.063L172.005,86.563L172.074,88.125L172.142,86.25L172.211,84.688L172.279,85.938L172.348,86.875L172.416,83.75L172.485,84.688L172.553,86.25L172.621,85.625L172.69,85.313L172.758,85.938L172.827,86.563L172.895,87.188L172.964,88.75L173.032,89.375L173.101,89.063L173.169,89.375L173.238,87.813L173.306,88.125L173.374,87.813L173.443,87.813L173.511,88.438L173.58,88.75L173.648,88.125L173.717,89.063L173.785,85.625L173.854,85.313L173.922,86.25L173.99,90.313L174.059,89.063L174.127,86.875L174.196,87.5L174.264,87.813L174.333,88.438L174.401,89.063L174.47,91.875L174.606,91.562L174.675,90.938L174.743,90.625L174.812,90.313L174.88,91.25L174.949,90.313L175.017,89.375L175.086,89.063L175.154,88.438L175.222,89.063L175.291,90.313L175.359,91.875L175.428,91.562L175.496,91.25L175.565,91.25L175.633,91.562L175.702,91.25L175.77,91.25L175.838,92.187L175.907,96.25L175.975,97.813L176.044,97.5L176.112,95.313L176.181,98.125L176.249,98.438L176.318,99.688L176.386,100.313L176.454,100.313L176.523,100.937L176.591,101.25L176.66,101.562L176.728,101.25L176.797,101.25L176.865,101.875L176.934,101.25L177.002,101.25L177.07,100.625L177.139,101.562L177.207,101.875L177.276,101.25L177.344,99.375L177.413,100L177.481,100.625L177.55,100L177.618,99.063L177.687,98.75L177.755,100L177.823,100.313L177.892,99.688L177.96,99.063L178.029,99.375L178.097,97.813L178.166,98.125L178.234,96.875L178.303,99.063L178.371,99.063L178.439,98.75L178.508,98.75L178.576,99.063L178.645,99.063L178.713,98.125L178.782,98.75L178.85,98.438L178.919,96.875L178.987,96.563L179.055,96.563L179.124,96.563L179.192,95L179.261,95.625L179.329,94.063L179.398,94.063L179.466,92.5L179.535,90.313L179.603,92.187L179.671,94.063L179.74,95.313L179.808,94.063L179.874,94.375L179.942,96.25L180.011,96.25L180.079,95.625L180.148,97.5L180.216,96.25L180.285,95.938L180.353,95.313L180.422,95L180.49,95.313L180.558,93.438L180.627,92.813L180.695,90.625L180.764,90.625L180.832,90.313L180.901,88.75L180.969,88.75L181.038,88.75L181.106,88.125L181.174,87.5L181.243,86.563L181.311,86.25L181.38,88.438L181.448,89.375L181.517,89.063L181.585,91.562L181.654,89.688L181.722,86.563L181.79,86.563L181.859,87.5L181.927,88.438L181.996,87.5L182.064,86.563L182.133,87.188L182.201,85.938L182.27,87.5L182.338,86.563L182.406,85.313L182.475,85L182.543,85.625L182.612,85.625L182.68,82.812L182.749,84.688L182.817,85.625L182.886,84.688L182.954,85.938L183.022,85.625L183.091,85.625L183.159,86.563L183.228,87.188L183.296,86.875L183.365,86.875L183.433,85.625L183.502,85.938L183.57,87.188L183.638,85.625L183.707,85L183.775,86.875L183.844,86.563L183.912,85.938L183.981,85.938L184.049,85.938L184.118,85.938L184.186,84.375L184.255,85.625L184.323,85.625L184.391,84.375L184.46,83.75L184.528,84.375L184.597,82.812L184.665,83.125L184.734,84.063L184.802,83.125L184.871,80.938L184.939,80.938L185.007,80.625L185.076,78.75L185.144,79.063L185.213,78.125L185.281,78.75L185.35,78.75L185.418,78.75L185.487,80.313L185.555,81.25L185.623,79.375L185.692,78.125L185.76,79.688L185.829,79.375L185.897,79.063L185.966,80.313L186.034,79.063L186.103,78.75L186.171,79.375L186.239,80.938L186.308,79.688L186.376,80.625L186.445,82.5L186.513,82.812L186.582,81.875L186.65,83.125L186.719,84.063L186.787,85.313L186.855,85.313L186.924,86.25L186.992,86.25L187.061,87.188L187.129,88.75L187.198,86.25L187.266,85.625L187.335,85.625L187.403,86.875L187.471,85.313L187.54,84.375L187.608,82.812L187.677,85.313L187.745,86.25L187.814,87.5L187.882,88.75L187.951,88.125L188.019,86.875L188.087,87.813L188.156,87.188L188.224,87.813L188.293,88.438L188.361,90.313L188.43,89.063L188.498,89.375L188.567,90.625L188.635,91.25L188.704,91.875L188.772,91.562L188.84,91.562L188.909,92.813L188.977,93.125L189.046,94.375L189.114,95.313L189.183,96.25L189.251,98.125L189.32,100L189.388,97.5L189.456,98.438L189.525,100.625L189.593,100.625L189.662,100.625L189.73,99.688L189.799,100.625L189.867,100.937L189.936,98.75L190.004,99.375L190.072,98.125L190.141,97.5L190.209,97.813L190.278,98.438L190.346,95.625L190.415,93.125L190.483,93.75L190.552,94.688L190.62,95.938L190.688,95.625L190.757,93.75L190.825,92.813L190.894,92.813L190.962,91.875L191.031,92.187L191.099,91.875L191.168,90L191.236,90.313L191.304,90.938L191.373,90.625L191.441,94.063L191.51,92.187L191.578,88.125L191.647,88.438L191.715,88.438L191.784,87.188L191.852,87.188L191.92,86.563L191.989,86.875L192.057,85.938L192.126,86.875L192.194,87.813L192.263,89.063L192.331,87.813L192.4,90L192.468,91.875L192.537,92.187L192.605,92.187L192.673,90.625L192.742,89.688L192.81,90.938L192.879,92.187L192.947,93.438L193.016,92.5L193.084,91.562L193.153,90.313L193.221,90.625L193.289,89.375L193.358,89.063L193.426,87.813L193.495,85.313L193.563,86.875L193.632,88.75L193.7,87.5L193.769,88.438L193.837,89.688L193.905,90.625L193.974,89.375L194.042,90.938L194.111,92.187L194.179,93.438L194.248,92.813L194.316,92.813L194.385,93.75L194.453,93.438L194.521,93.125L194.59,92.813L194.658,92.187L194.727,92.813L194.795,92.5L194.864,92.5L194.932,91.562L195.001,89.688L195.069,90.313L195.137,90.938L195.206,92.187L195.274,93.438L195.343,95.625L195.411,96.563L195.48,98.75L195.548,101.562L195.617,101.562L195.685,103.75L195.753,105.625L195.822,105.938L195.89,106.563L195.959,106.25L196.027,106.25L196.096,105L196.167,102.188L196.304,99.688L196.372,98.438L196.441,97.813L196.509,96.563L196.578,94.688L196.646,95L196.715,95L196.783,95.313L196.851,95.313L196.92,94.375L196.988,95L197.057,95.313L197.125,96.563L197.194,96.875L197.262,96.25L197.331,96.25L197.399,96.25L197.467,96.563L197.536,96.563L197.604,95.938L197.673,94.375L197.741,92.5L197.81,93.438L197.878,92.5L197.947,93.438L198.015,93.438L198.084,94.375L198.152,95.938L198.22,97.188L198.289,100L198.357,103.125L198.426,105.313L198.494,105.938L198.563,106.563L198.631,107.188L198.7,106.563L198.768,105.938L198.836,105.938L198.905,106.25L198.973,107.5L199.042,105.938L199.11,107.5L199.179,105.938L199.247,107.188L199.316,108.125L199.384,109.063L199.452,108.438L199.589,107.5L199.658,107.813L199.726,108.438L199.795,108.438L199.863,110.625L199.932,110.312L200,110.625L200.068,109.063L200.137,109.063L200.205,107.813L200.274,107.188L200.411,106.875L200.479,105.938L200.548,105L200.616,104.688L200.684,104.375L200.753,104.688L200.821,106.875L200.89,107.5L200.958,108.438L201.027,108.125L201.095,106.875L201.164,107.813L201.232,108.75L201.369,107.188L201.437,107.5L201.506,106.563L201.574,105.938L201.643,105.313L201.711,105.625L201.78,106.25L201.848,106.563L201.916,105.625L201.985,105.625L202.053,106.25L202.122,105.938L202.19,105.625" stroke="#4c78a8" stroke-width="2"/></g><g class="mark-group role-title"><g transform="translate(100,-17)"><path class="background" aria-hidden="true" d="M0,0h0v0h0Z" pointer-events="none"/><g><g class="mark-text role-title-text" role="graphics-symbol" aria-roledescription="title" aria-label="Title text 'Lost Property: Electronics/Phones'" pointer-events="none"><text text-anchor="middle" transform="translate(0,10)" font-family="sans-serif" font-size="13px" font-weight="bold" fill="#000" opacity="1">Lost Property: Electronics/Phones</text></g></g><path class="foreground" aria-hidden="true" d="" pointer-events="none" display="none"/></g></g></g><path class="foreground" aria-hidden="true" d="" display="none"/></g></g></g><defs><clipPath id="clip161"><rect x="0" y="0" width="200" height="150"/></clipPath></defs></svg>