<svg xmlns="http://www.w3.org/2000/svg" xmlns:xlink="http://www.w3.org/1999/xlink" version="1.1" class="marks" width="234" height="194" viewBox="0 0 234 194"><rect width="234" height="194" fill="white"/><g fill="none" stroke-miterlimit="10" transform="translate(18,22)"><g class="mark-group role-frame root" role="graphics-object" aria-roledescription="group mark container"><g transform="translate(0,0)"><path class="background" aria-hidden="true" d="M0,0h200v150h-200Z"/><g><g class="mark-group role-axis" aria-hidden="true"><g transform="translate(0.5,0.5)"><path class="background" aria-hidden="true" d="M0,0h0v0h0Z" pointer-events="none"/><g><g class="mark-rule role-axis-grid" pointer-events="none"><line transform="translate(0,150)" x2="200" y2="0" stroke="#ddd" stroke-width="1" opacity="1"/><line transform="translate(0,123)" x2="200" y2="0" stroke="#ddd" stroke-width="1" opacity="1"/><line transform="translate(0,95)" x2="200" y2="0" stroke="#ddd" stroke-width="1" opacity="1"/><line transform="translate(0,68)" x2="200" y2="0" stroke="#ddd" stroke-width="1" opacity="1"/><line transform="translate(0,41)" x2="200" y2="0" stroke="#ddd" stroke-width="1" opacity="1"/><line transform="translate(0,14)" x2="200" y2="0" stroke="#ddd" stroke-width="1" opacity="1"/></g></g><path class="foreground" aria-hidden="true" d="" pointer-events="none" display="none"/></g></g><g class="mark-group role-axis" role="graphics-symbol" aria-roledescription="axis" aria-label="X-axis for a time scale with values from Friday, 01 January 2016, 12:00:00 AM to Monday, 01 January 2024, 12:00:00 AM"><g transform="translate(0.5,150.5)"><path class="background" aria-hidden="true" d="M0,0h0v0h0Z" pointer-events="none"/><g><g class="mark-rule role-axis-tick" pointer-events="none"><line transform="translate(0,0)" x2="0" y2="5" stroke="#888" stroke-width="1" opacity="1"/><line transform="translate(50,0)" x2="0" y2="5" stroke="#888" stroke-width="1" opacity="1"/><line transform="translate(100,0)" x2="0" y2="5" stroke="#888" stroke-width="1" opacity="1"/><line transform="translate(150,0)" x2="0" y2="5" stroke="#888" stroke-width="1" opacity="1"/><line transform="translate(200,0)" x2="0" y2="5" stroke="#888" stroke-width="1" opacity="1"/></g><g class="mark-text role-axis-label" pointer-events="none"><text text-anchor="start" transform="translate(0,15)" font-family="sans-serif" font-size="10px" fill="#000" opacity="1">2016</text><text text-anchor="middle" transform="translate(50.03422313483915,15)" font-family="sans-serif" font-size="10px" fill="#000" opacity="1">2018</text><text text-anchor="middle" transform="translate(100,15)" font-family="sans-serif" font-size="10px" fill="#000" opacity="1">2020</text><text text-anchor="middle" transform="translate(150.03422313483915,15)" font-family="sans-serif" font-size="10px" fill="#000" opacity="1">2022</text><text text-anchor="end" transform="translate(200,15)" font-family="sans-serif" font-size="10px" fill="#000" opacity="1">2024</text></g><g class="mark-rule role-axis-domain" pointer-events="none"><line transform="translate(0,0)" x2="200" y2="0" stroke="#888" stroke-width="1" opacity="1"/></g></g><path class="foreground" aria-hidden="true" d="" pointer-events="none" display="none"/></g></g><g class="mark-group role-axis" role="graphics-symbol" aria-roledescription="axis" aria-label="Y-axis for a linear scale with values from 0 to 6"><g transform="translate(0.5,0.5)"><path class="background" aria-hidden="true" d="M0,0h0v0h0Z" pointer-events="none"/><g><g class="mark-rule role-axis-tick" pointer-events="none"><line transform="translate(0,150)" x2="-5" y2="0" stroke="#888" stroke-opacity="0" stroke-width="1" opacity="1"/><line transform="translate(0,123)" x2="-5" y2="0" stroke="#888" stroke-opacity="0" stroke-width="1" opacity="1"/><line transform="translate(0,95)" x2="-5" y2="0" stroke="#888" stroke-opacity="0" stroke-width="1" opacity="1"/><line transform="translate(0,68)" x2="-5" y2="0" stroke="#888" stroke-opacity="0" stroke-width="1" opacity="1"/><line transform="translate(0,41)" x2="-5" y2="0" stroke="#888" stroke-opacity="0" stroke-width="1" opacity="1"/><line transform="translate(0,14)" x2="-5" y2="0" stroke="#888" stroke-opacity="0" stroke-width="1" opacity="1"/></g><g class="mark-text role-axis-label" pointer-events="none"><text text-anchor="end" transform="translate(-7,153)" font-family="sans-serif" font-size="10px" fill="#000" opacity="1">0</text><text text-anchor="end" transform="translate(-7,125.72727272727272)" font-family="sans-serif" font-size="10px" fill="#000" opacity="1">1</text><text text-anchor="end" transform="translate(-7,98.45454545454545)" font-family="sans-serif" font-size="10px" fill="#000" opacity="1">2</text><text text-anchor="end" transform="translate(-7,71.18181818181819)" font-family="sans-serif" font-size="10px" fill="#000" opacity="1">3</text><text text-anchor="end" transform="translate(-7,43.90909090909091)" font-family="sans-serif" font-size="10px" fill="#000" opacity="1">4</text><text text-anchor="end" transform="translate(-7,16.63636363636364)" font-family="sans-serif" font-size="10px" fill="#000" opacity="1">5</text></g></g><path class="foreground" aria-hidden="true" d="" pointer-events="none" display="none"/></g></g><g class="mark-line role-mark marks" clip-path="url(#clip164)" role="graphics-object" aria-roledescription="line mark container"><path aria-label="day: May 24, 2011; avg: 3.23333333333" role="graphics-symbol" aria-roledescription="line mark" d="M-115.198,61.818L-115.129,60L-115.061,54.545L-114.719,52.727L-114.582,55.455L-114.308,55.455L-114.24,57.273L-114.171,49.091L-114.103,47.273L-114.034,46.364L-113.897,43.636L-113.829,42.727L-113.761,42.727L-113.692,47.273L-113.624,60L-113.555,63.636L-113.487,63.636L-113.418,63.636L-113.35,60L-113.281,59.091L-113.213,60L-113.145,62.727L-113.076,62.727L-113.008,62.727L-112.939,60.909L-112.871,60.909L-112.802,60L-112.734,64.545L-112.529,61.818L-112.46,60L-112.323,56.364L-112.255,53.636L-112.186,58.182L-112.118,60L-112.049,57.273L-111.981,56.364L-111.913,55.455L-111.844,54.545L-111.776,53.636L-111.707,53.636L-111.639,54.545L-111.57,51.818L-111.502,50L-111.433,49.091L-111.365,47.273L-111.296,42.727L-111.228,41.818L-111.16,42.727L-111.023,43.636L-110.954,47.273L-110.886,51.818L-110.817,50.909L-110.749,52.727L-110.68,54.545L-110.612,54.545L-110.544,55.455L-110.475,55.455L-110.407,56.364L-110.338,58.182L-110.27,56.364L-110.201,57.273L-110.133,60L-110.064,58.182L-109.996,58.182L-109.928,59.091L-109.859,59.091L-109.791,59.091L-109.722,66.364L-109.585,63.636L-109.517,63.636L-109.448,65.455L-109.38,69.091L-109.312,68.182L-109.243,62.727L-109.175,61.818L-109.106,63.636L-109.038,64.545L-108.969,66.364L-108.901,68.182L-108.832,67.273L-108.559,66.364L-108.49,66.364L-108.422,67.273L-108.353,69.091L-108.285,68.182L-108.216,61.818L-108.08,59.091L-108.011,55.455L-107.943,54.545L-107.874,56.364L-107.806,58.182L-107.737,60L-107.669,60.909L-107.6,60L-107.532,60L-107.463,58.182L-107.395,60L-107.327,61.818L-107.258,65.455L-107.19,66.364L-107.121,63.636L-107.053,64.545L-106.984,64.545L-106.916,70.909L-106.847,73.636L-106.711,73.636L-106.642,70.909L-106.574,69.091L-106.505,68.182L-106.437,68.182L-106.368,68.182L-106.3,66.364L-106.231,64.545L-106.163,64.545L-106.095,67.273L-106.026,71.818L-105.958,75.455L-105.889,77.273L-105.821,79.091L-105.684,79.091L-105.615,77.273L-105.547,77.273L-105.479,77.273L-105.41,76.364L-105.342,75.455L-105.273,76.364L-105.205,72.727L-105.136,70.909L-105.068,70.909L-104.999,70.909L-104.931,74.545L-104.863,73.636L-104.794,74.545L-104.726,73.636L-104.657,66.364L-104.589,67.273L-104.52,69.091L-104.452,68.182L-104.247,69.091L-104.178,67.273L-104.11,69.091L-104.041,71.818L-103.973,69.091L-103.904,69.091L-103.765,68.182L-103.696,70L-103.628,68.182L-103.559,68.182L-103.491,67.273L-103.422,68.182L-103.354,69.091L-103.285,67.273L-103.217,66.364L-103.149,66.364L-103.08,69.091L-103.012,68.182L-102.943,69.091L-102.875,70.909L-102.806,69.091L-102.738,69.091L-102.669,69.091L-102.396,70L-102.327,71.818L-102.259,72.727L-102.122,80L-102.053,80.909L-101.916,80.909L-101.848,80.909L-101.78,78.182L-101.711,79.091L-101.643,78.182L-101.574,79.091L-101.506,82.727L-101.369,82.727L-101.3,82.727L-101.232,83.636L-101.164,84.545L-101.095,82.727L-101.027,80L-100.958,80.909L-100.89,80.909L-100.753,82.727L-100.616,83.636L-100.548,86.364L-100.342,86.364L-100.274,87.273L-100.205,89.091L-100.137,89.091L-100.068,92.727L-100,92.727L-99.863,92.727L-99.795,92.727L-99.726,91.818L-99.658,92.727L-99.589,90.909L-99.521,91.818L-99.452,92.727L-99.384,93.636L-99.316,94.545L-99.247,94.545L-99.179,91.818L-99.11,87.273L-98.973,87.273L-98.905,86.364L-98.768,87.273L-98.7,87.273L-98.494,83.636L-98.426,86.364L-98.357,90.909L-98.289,90.909L-98.22,91.818L-98.152,91.818L-98.084,92.727L-98.015,90.909L-97.947,90.909L-97.878,92.727L-97.81,90.909L-97.673,89.091L-97.604,87.273L-97.536,86.364L-97.467,84.545L-97.399,84.545L-97.331,80L-97.262,79.091L-97.194,80L-97.125,77.273L-97.057,76.364L-96.988,77.273L-96.92,80L-96.851,81.818L-96.783,83.636L-96.715,86.364L-96.646,87.273L-96.578,86.364L-96.441,86.364L-96.372,86.364L-96.304,89.091L-96.235,89.091L-96.167,89.091L-96.099,88.182L-96.03,87.273L-95.962,84.545L-95.893,85.455L-95.825,87.273L-95.756,87.273L-95.619,86.364L-95.551,87.273L-95.483,87.273L-95.414,86.364L-95.346,86.364L-95.209,87.273L-95.143,87.273L-95.075,92.727L-95.006,93.636L-94.938,93.636L-94.869,96.364L-94.801,95.455L-94.732,94.545L-94.664,92.727L-94.596,92.727L-94.527,91.818L-94.459,91.818L-94.39,90L-94.322,90.909L-94.253,90L-94.185,88.182L-94.116,88.182L-94.048,89.091L-93.98,87.273L-93.911,83.636L-93.843,85.455L-93.706,85.455L-93.637,85.455L-93.569,82.727L-93.5,81.818L-93.432,82.727L-93.364,84.545L-93.227,84.545L-93.158,86.364L-93.09,86.364L-93.021,83.636L-92.953,80.909L-92.816,80.909L-92.748,79.091L-92.679,80L-92.611,79.091L-92.542,79.091L-92.474,80L-92.405,80.909L-92.268,80L-92.2,82.727L-92.132,79.091L-91.926,79.091L-91.858,80L-91.789,80.909L-91.721,82.727L-91.652,80.909L-91.584,80.909L-91.516,82.727L-91.447,86.364L-91.31,86.364L-91.242,87.273L-91.173,87.273L-91.105,89.091L-91.036,90L-90.968,88.182L-90.831,84.545L-90.763,85.455L-90.694,86.364L-90.557,85.455L-90.489,89.091L-90.42,90L-90.352,88.182L-90.283,90L-90.147,90L-90.078,90L-89.873,89.091L-89.804,88.182L-89.599,88.182L-89.394,88.182L-89.257,84.545L-89.188,90L-89.12,91.818L-89.051,90.909L-88.983,85.455L-88.915,82.727L-88.846,86.364L-88.778,85.455L-88.709,82.727L-88.641,83.636L-88.572,81.818L-88.435,80L-88.367,80L-88.299,79.091L-88.23,79.091L-88.162,80.909L-88.093,83.636L-88.025,83.636L-87.956,82.727L-87.888,81.818L-87.819,80L-87.751,80.909L-87.683,78.182L-87.614,77.273L-87.546,77.273L-87.477,77.273L-87.409,80L-87.34,79.091L-87.272,80L-87.203,80.909L-87.135,84.545L-87.067,84.545L-86.998,83.636L-86.93,83.636L-86.861,87.273L-86.793,86.364L-86.724,82.727L-86.656,82.727L-86.587,83.636L-86.519,82.727L-86.45,84.545L-86.382,88.182L-86.314,88.182L-86.177,89.091L-86.04,87.273L-85.971,85.455L-85.903,86.364L-85.834,87.273L-85.766,87.273L-85.561,87.273L-85.492,89.091L-85.424,86.364L-85.355,87.273L-85.287,88.182L-85.218,87.273L-85.013,87.273L-84.945,87.273L-84.876,87.273L-84.808,85.455L-84.739,81.818L-84.671,80L-84.602,78.182L-84.466,79.091L-84.397,80L-84.329,80.909L-84.192,83.636L-84.123,85.455L-84.055,85.455L-83.986,86.364L-83.918,86.364L-83.85,85.455L-83.781,84.545L-83.713,83.636L-83.644,82.727L-83.576,83.636L-83.439,85.455L-83.234,85.455L-83.097,84.545L-83.028,81.818L-82.96,82.727L-82.891,81.818L-82.823,85.455L-82.754,89.091L-82.686,89.091L-82.549,90L-82.481,89.091L-82.412,89.091L-82.344,91.818L-82.207,93.636L-82.138,96.364L-82.07,97.273L-82.001,99.091L-81.933,98.182L-81.865,98.182L-81.796,99.091L-81.659,96.364L-81.591,98.182L-81.454,98.182L-81.385,97.273L-81.249,98.182L-81.18,99.091L-81.112,100L-81.043,100.909L-80.975,101.818L-80.906,100.909L-80.838,100L-80.769,100L-80.701,99.091L-80.633,101.818L-80.564,103.636L-80.496,104.545L-80.427,103.636L-80.29,102.727L-80.222,101.818L-80.017,100L-79.948,100.909L-79.88,98.182L-79.811,95.455L-79.743,90L-79.674,90.909L-79.606,91.818L-79.537,91.818L-79.332,91.818L-79.264,88.182L-79.058,88.182L-78.99,91.818L-78.85,90.909L-78.782,91.818L-78.713,92.727L-78.645,92.727L-78.576,90.909L-78.508,90.909L-78.439,90.909L-78.371,91.818L-78.303,94.545L-78.234,95.455L-78.097,95.455L-77.96,96.364L-77.892,96.364L-77.55,96.364L-77.481,95.455L-77.276,95.455L-77.207,95.455L-77.139,93.636L-77.07,94.545L-77.002,95.455L-76.934,98.182L-76.865,100L-76.797,104.545L-76.728,104.545L-76.591,103.636L-76.454,102.727L-76.386,103.636L-76.318,105.455L-76.249,100L-76.181,99.091L-76.044,99.091L-75.907,98.182L-75.838,99.091L-75.77,97.273L-75.633,94.545L-75.565,91.818L-75.496,91.818L-75.359,90L-75.291,89.091L-75.154,88.182L-75.017,87.273L-74.949,86.364L-74.538,85.455L-74.47,80L-74.401,79.091L-74.333,80L-74.264,78.182L-74.196,78.182L-74.127,79.091L-74.059,78.182L-73.99,74.545L-73.922,75.455L-73.854,75.455L-73.717,75.455L-73.648,74.545L-73.443,73.636L-73.374,73.636L-73.306,74.545L-73.169,78.182L-73.101,75.455L-73.032,71.818L-72.964,70.909L-72.895,67.273L-72.621,69.091L-72.553,73.636L-72.485,75.455L-72.416,75.455L-72.348,76.364L-72.211,77.273L-72.142,77.273L-72.005,78.182L-71.937,80L-71.869,81.818L-71.663,85.455L-71.595,86.364L-71.458,86.364L-71.389,87.273L-71.184,88.182L-71.116,85.455L-71.047,86.364L-70.91,90L-70.842,90L-70.705,90.909L-70.637,89.091L-70.568,88.182L-70.5,90L-70.431,88.182L-70.363,88.182L-70.16,86.364L-70.092,87.273L-69.955,91.818L-69.75,92.727L-69.681,96.364L-69.613,95.455L-69.544,93.636L-69.476,92.727L-69.407,90.909L-69.339,85.455L-69.27,85.455L-69.202,85.455L-69.134,85.455L-69.065,79.091L-68.997,79.091L-68.928,80L-68.86,80L-68.791,78.182L-68.723,80L-68.654,78.182L-68.381,80.909L-68.312,80L-68.244,80L-68.175,79.091L-68.107,78.182L-68.038,80L-67.97,79.091L-67.902,75.455L-67.833,73.636L-67.765,71.818L-67.696,75.455L-67.628,78.182L-67.559,77.273L-67.354,77.273L-67.286,76.364L-67.217,76.364L-67.149,77.273L-66.875,78.182L-66.806,78.182L-66.67,82.727L-66.601,81.818L-66.464,73.636L-66.396,73.636L-66.327,75.455L-66.259,73.636L-66.122,71.818L-66.054,70.909L-65.985,70.909L-65.917,70.909L-65.848,73.636L-65.78,73.636L-65.711,72.727L-65.643,71.818L-65.574,65.455L-65.506,65.455L-65.437,63.636L-65.369,66.364L-65.301,68.182L-65.232,70.909L-65.164,72.727L-65.027,71.818L-64.89,70.909L-64.821,70.909L-64.753,70.909L-64.685,71.818L-64.616,69.091L-64.548,62.727L-64.479,63.636L-64.411,61.818L-64.342,62.727L-64.274,60.909L-64.069,70L-64,68.182L-63.932,70L-63.863,71.818L-63.795,74.545L-63.726,75.455L-63.658,76.364L-63.589,76.364L-63.453,74.545L-63.247,71.818L-63.11,72.727L-63.042,72.727L-62.973,79.091L-62.905,78.182L-62.837,79.091L-62.768,80L-62.631,79.091L-62.563,76.364L-62.494,76.364L-62.426,77.273L-62.289,78.182L-62.221,79.091L-62.152,80L-62.084,78.182L-62.015,81.818L-61.947,88.182L-61.878,87.273L-61.81,89.091L-61.741,90L-61.673,92.727L-61.604,91.818L-61.536,91.818L-61.468,93.636L-61.331,93.636L-61.194,92.727L-61.125,91.818L-61.057,90.909L-60.988,90L-60.92,92.727L-60.852,95.455L-60.783,96.364L-60.715,97.273L-60.646,97.273L-60.578,99.091L-60.441,99.091L-60.372,97.273L-60.099,99.091L-60.03,102.727L-59.962,101.818L-59.893,100.909L-59.825,100.909L-59.756,100L-59.688,100L-59.62,100.909L-59.551,100L-59.483,100L-59.414,98.182L-59.346,99.091L-59.209,97.273L-59.14,96.364L-59.004,97.273L-58.935,95.455L-58.867,94.545L-58.798,94.545L-58.73,95.455L-58.661,94.545L-58.593,93.636L-58.524,94.545L-58.456,94.545L-58.251,94.545L-58.182,93.636L-58.114,91.818L-58.045,92.727L-57.977,91.818L-57.908,90.909L-57.772,92.727L-57.703,92.727L-57.566,90L-57.498,90L-57.429,88.182L-57.361,86.364L-57.292,84.545L-57.224,83.636L-57.155,84.545L-57.087,85.455L-57.019,85.455L-56.95,87.273L-56.813,87.273L-56.745,86.364L-56.676,85.455L-56.539,85.455L-56.471,89.091L-56.403,90.909L-56.334,90L-56.266,89.091L-56.197,91.818L-56.129,90.909L-56.06,90L-55.923,90L-55.855,89.091L-55.787,89.091L-55.718,90L-55.65,90L-55.513,90.909L-55.444,91.818L-55.376,90.909L-55.307,91.818L-55.239,94.545L-55.102,92.727L-55.034,95.455L-54.897,95.455L-54.828,98.182L-54.76,98.182L-54.691,96.364L-54.623,96.364L-54.555,97.273L-54.418,98.182L-54.349,99.091L-54.281,100L-54.212,100L-54.144,100L-54.007,97.273L-53.936,97.273L-53.867,98.182L-53.799,99.091L-53.73,99.091L-53.662,102.727L-53.593,101.818L-53.525,100.909L-53.457,100.909L-53.32,101.818L-53.183,101.818L-53.114,100.909L-53.046,98.182L-52.977,99.091L-52.909,98.182L-52.841,98.182L-52.772,98.182L-52.704,101.818L-52.635,101.818L-52.498,103.636L-52.43,103.636L-52.361,104.545L-52.225,106.364L-52.156,106.364L-52.088,103.636L-52.019,100.909L-51.951,100L-51.882,100L-51.814,100.909L-51.745,100.909L-51.677,102.727L-51.608,102.727L-51.54,101.818L-51.472,100.909L-51.403,98.182L-51.335,98.182L-51.266,100L-50.992,100.909L-50.924,101.818L-50.856,101.818L-50.65,101.818L-50.582,101.818L-50.513,103.636L-50.376,103.636L-50.24,105.455L-50.171,104.545L-50.103,104.545L-50.034,104.545L-49.897,104.545L-49.829,104.545L-49.692,104.545L-49.624,103.636L-49.487,103.636L-49.281,103.636L-49.144,104.545L-49.076,106.364L-49.008,107.273L-48.939,108.182L-48.871,109.091L-48.802,108.182L-48.734,109.091L-48.665,108.182L-48.597,106.364L-48.528,107.273L-48.46,109.091L-48.392,106.364L-48.323,106.364L-48.118,105.455L-48.049,105.455L-47.981,102.727L-47.912,103.636L-47.844,104.545L-47.775,102.727L-47.707,102.727L-47.639,99.091L-47.365,100L-47.296,100L-47.228,96.364L-47.159,96.364L-47.091,94.545L-47.023,92.727L-46.954,90.909L-46.886,85.455L-46.68,85.455L-46.612,87.273L-46.543,88.182L-46.475,88.182L-46.407,88.182L-46.338,88.182L-46.27,87.273L-46.201,85.455L-46.133,84.545L-46.064,86.364L-45.996,85.455L-45.927,81.818L-45.859,82.727L-45.791,82.727L-45.722,82.727L-45.654,81.818L-45.517,84.545L-45.448,83.636L-45.314,83.636L-45.246,83.636L-45.177,81.818L-45.109,82.727L-45.04,80.909L-44.972,79.091L-44.904,80.909L-44.835,79.091L-44.767,80L-44.698,80.909L-44.63,83.636L-44.561,89.091L-44.493,89.091L-44.424,86.364L-44.356,84.545L-44.288,81.818L-44.219,80L-44.151,80L-44.082,81.818L-44.014,80.909L-43.945,81.818L-43.877,81.818L-43.808,81.818L-43.74,84.545L-43.672,85.455L-43.603,84.545L-43.535,85.455L-43.466,86.364L-43.398,82.727L-43.329,82.727L-43.261,82.727L-43.192,84.545L-43.124,85.455L-43.056,87.273L-42.987,88.182L-42.919,90L-42.85,90L-42.782,90L-42.713,90L-42.576,88.182L-42.508,81.818L-42.44,81.818L-42.371,79.091L-42.303,78.182L-42.234,79.091L-42.166,77.273L-42.097,79.091L-42.029,78.182L-41.96,75.455L-41.892,74.545L-41.824,74.545L-41.755,75.455L-41.618,75.455L-41.55,76.364L-41.481,76.364L-41.413,75.455L-41.344,73.636L-41.276,70.909L-41.208,73.636L-41.071,74.545L-40.934,73.636L-40.865,70.909L-40.797,70L-40.728,67.273L-40.591,68.182L-40.523,64.545L-40.455,65.455L-40.386,67.273L-40.318,66.364L-40.249,69.091L-40.044,73.636L-39.975,72.727L-39.907,75.455L-39.839,77.273L-39.77,78.182L-39.702,80.909L-39.565,80L-39.496,80.909L-39.428,83.636L-39.359,84.545L-39.223,84.545L-39.154,84.545L-39.086,85.455L-39.017,85.455L-38.949,86.364L-38.88,87.273L-38.812,89.091L-38.743,90L-38.675,89.091L-38.607,88.182L-38.538,86.364L-38.401,89.091L-38.333,89.091L-38.196,91.818L-38.127,91.818L-38.059,93.636L-37.991,94.545L-37.922,94.545L-37.854,95.455L-37.648,92.727L-37.58,94.545L-37.511,94.545L-37.443,94.545L-37.238,96.364L-37.169,93.636L-37.101,92.727L-37.032,93.636L-36.964,92.727L-36.895,92.727L-36.758,94.545L-36.69,95.455L-36.622,95.455L-36.553,93.636L-36.485,93.636L-36.416,92.727L-36.142,91.818L-36.074,90L-36.006,91.818L-35.937,91.818L-35.8,92.727L-35.732,95.455L-35.663,96.364L-35.595,97.273L-35.526,98.182L-35.458,96.364L-35.39,97.273L-35.321,97.273L-35.253,93.636L-35.184,93.636L-35.116,95.455L-34.979,94.545L-34.91,94.545L-34.842,92.727L-34.774,90.909L-34.705,92.727L-34.637,94.545L-34.568,95.455L-34.431,96.364L-34.294,96.364L-34.226,97.273L-34.158,97.273L-34.089,95.455L-33.952,96.364L-33.884,93.636L-33.815,94.545L-33.747,94.545L-33.678,95.455L-33.61,94.545L-33.542,95.455L-33.336,94.545L-33.268,94.545L-33.199,94.545L-33.131,94.545L-33.062,94.545L-32.926,95.455L-32.857,92.727L-32.72,90.909L-32.652,93.636L-32.583,91.818L-32.515,91.818L-32.446,90.909L-32.378,90.909L-32.309,92.727L-32.241,94.545L-32.173,92.727L-32.036,91.818L-31.967,90L-31.899,89.091L-31.83,88.182L-31.762,88.182L-31.693,87.273L-31.625,88.182L-31.557,89.091L-31.488,90.909L-31.42,88.182L-31.351,89.091L-31.283,88.182L-31.214,89.091L-31.146,87.273L-31.009,88.182L-30.941,87.273L-30.735,87.273L-30.667,88.182L-30.461,88.182L-30.393,87.273L-30.325,90.909L-30.256,91.818L-30.188,92.727L-30.051,94.545L-29.982,94.545L-29.914,95.455L-29.845,96.364L-29.777,93.636L-29.709,91.818L-29.64,94.545L-29.503,95.455L-29.435,97.273L-29.366,98.182L-29.229,99.091L-29.093,98.182L-29.021,99.091L-28.953,99.091L-28.884,97.273L-28.816,99.091L-28.747,101.818L-28.611,102.727L-28.542,102.727L-28.474,100.909L-28.405,103.636L-28.337,102.727L-28.268,103.636L-28.131,103.636L-28.063,103.636L-27.995,102.727L-27.926,102.727L-27.858,102.727L-27.789,103.636L-27.515,99.091L-27.379,99.091L-27.173,100L-27.036,100L-26.968,100L-26.899,101.818L-26.762,102.727L-26.626,102.727L-26.557,102.727L-26.489,100L-26.352,98.182L-26.215,96.364L-26.146,96.364L-26.078,96.364L-26.01,96.364L-25.941,98.182L-25.873,96.364L-25.736,95.455L-25.667,95.455L-25.599,96.364L-25.394,97.273L-25.325,97.273L-25.12,96.364L-25.051,96.364L-24.983,96.364L-24.914,94.545L-24.846,94.545L-24.709,95.455L-24.641,95.455L-24.572,95.455L-24.435,100L-24.298,100.909L-24.23,100L-24.162,100.909L-24.093,100L-23.956,100L-23.819,100.909L-23.682,100L-23.614,100.909L-23.546,102.727L-23.477,103.636L-23.409,103.636L-23.135,101.818L-23.066,100.909L-22.998,100L-22.93,100L-22.861,101.818L-22.793,102.727L-22.724,102.727L-22.656,103.636L-22.587,103.636L-22.519,103.636L-22.45,104.545L-22.313,103.636L-22.245,100L-22.04,100L-21.971,99.091L-21.903,99.091L-21.766,98.182L-21.697,97.273L-21.629,96.364L-21.561,95.455L-21.424,96.364L-21.355,96.364L-21.287,95.455L-21.218,94.545L-20.945,94.545L-20.876,95.455L-20.671,92.727L-20.534,91.818L-20.465,92.727L-20.4,94.545L-20.263,96.364L-20.195,94.545L-20.126,95.455L-20.058,94.545L-19.989,94.545L-19.921,93.636L-19.852,92.727L-19.784,91.818L-19.715,87.273L-19.578,87.273L-19.442,88.182L-19.373,88.182L-19.305,90.909L-19.236,92.727L-19.168,93.636L-19.099,94.545L-18.962,92.727L-18.894,93.636L-18.826,91.818L-18.757,91.818L-18.689,89.091L-18.62,86.364L-18.552,88.182L-18.483,90L-18.415,89.091L-18.346,86.364L-18.278,89.091L-18.21,89.091L-18.073,81.818L-18.004,81.818L-17.936,82.727L-17.867,84.545L-17.799,85.455L-17.73,82.727L-17.662,80.909L-17.525,78.182L-17.457,79.091L-17.388,78.182L-17.32,83.636L-17.251,82.727L-17.183,81.818L-17.046,82.727L-16.978,82.727L-16.909,81.818L-16.841,76.364L-16.772,72.727L-16.635,72.727L-16.567,71.818L-16.498,69.091L-16.43,70L-16.362,71.818L-16.293,72.727L-16.225,67.273L-16.156,65.455L-16.088,62.727L-15.951,65.455L-15.882,59.091L-15.814,58.182L-15.745,63.636L-15.677,60.909L-15.609,60.909L-15.54,61.818L-15.472,60L-15.403,61.818L-15.335,60L-15.266,61.818L-15.129,60.909L-15.061,60L-14.993,59.091L-14.924,58.182L-14.856,55.455L-14.719,53.636L-14.65,54.545L-14.513,55.455L-14.445,60.909L-14.308,64.545L-14.24,67.273L-14.171,68.182L-14.103,70.909L-14.034,70L-13.966,70L-13.897,69.091L-13.829,74.545L-13.761,73.636L-13.692,77.273L-13.624,75.455L-13.555,81.818L-13.487,84.545L-13.418,86.364L-13.35,87.273L-13.281,87.273L-13.213,85.455L-13.145,84.545L-13.076,86.364L-13.008,88.182L-12.939,87.273L-12.871,86.364L-12.802,87.273L-12.734,87.273L-12.665,88.182L-12.529,90.909L-12.46,91.818L-12.392,90L-12.323,90L-12.255,89.091L-12.186,87.273L-12.118,83.636L-12.049,82.727L-11.981,85.455L-11.913,85.455L-11.776,86.364L-11.707,89.091L-11.639,89.091L-11.57,89.091L-11.502,89.091L-11.433,90L-11.365,90L-11.296,88.182L-11.228,85.455L-11.16,87.273L-11.091,80.909L-11.023,81.818L-10.954,84.545L-10.886,82.727L-10.817,82.727L-10.68,82.727L-10.612,84.545L-10.544,83.636L-10.475,83.636L-10.407,82.727L-10.338,80.909L-10.27,79.091L-10.201,79.091L-10.133,77.273L-10.064,79.091L-9.996,80L-9.791,80L-9.722,80L-9.654,80L-9.585,80.909L-9.38,79.091L-9.312,76.364L-9.243,76.364L-9.175,76.364L-9.106,72.727L-9.038,71.818L-8.969,70L-8.901,70.909L-8.832,72.727L-8.764,71.818L-8.696,77.273L-8.49,77.273L-8.422,74.545L-8.353,74.545L-8.285,73.636L-8.216,76.364L-8.148,76.364L-8.08,75.455L-8.011,75.455L-7.874,77.273L-7.806,79.091L-7.737,81.818L-7.669,83.636L-7.6,85.455L-7.532,84.545L-7.463,83.636L-7.327,86.364L-7.258,84.545L-7.121,82.727L-7.053,82.727L-6.984,83.636L-6.916,85.455L-6.847,85.455L-6.779,83.636L-6.711,85.455L-6.642,85.455L-6.574,87.273L-6.437,87.273L-6.368,87.273L-6.231,85.455L-6.163,84.545L-6.026,85.455L-5.958,87.273L-5.889,88.182L-5.821,88.182L-5.615,84.545L-5.547,81.818L-5.479,84.545L-5.41,83.636L-5.342,81.818L-5.273,80.909L-5.068,80L-4.999,79.091L-4.931,78.182L-4.863,79.091L-4.794,80.909L-4.589,81.818L-4.52,84.545L-4.383,85.455L-4.315,84.545L-4.247,84.545L-4.178,82.727L-4.107,82.727L-4.038,86.364L-3.97,84.545L-3.901,85.455L-3.833,85.455L-3.765,85.455L-3.628,84.545L-3.559,87.273L-3.491,88.182L-3.422,88.182L-3.354,88.182L-3.217,85.455L-3.149,87.273L-3.08,90.909L-3.012,91.818L-2.943,92.727L-2.875,94.545L-2.806,94.545L-2.738,96.364L-2.669,96.364L-2.601,96.364L-2.396,96.364L-2.327,95.455L-2.259,94.545L-2.19,94.545L-2.053,94.545L-1.985,95.455L-1.78,96.364L-1.711,96.364L-1.574,98.182L-1.506,98.182L-1.437,97.273L-1.369,99.091L-1.3,99.091L-1.232,96.364L-1.164,96.364L-1.095,98.182L-0.958,97.273L-0.89,97.273L-0.753,95.455L-0.684,95.455L-0.616,97.273L-0.548,98.182L-0.411,97.273L-0.342,99.091L-0.274,99.091L-0.205,98.182L-0.137,100L0,97.273L0.137,98.182L0.205,99.091L0.274,99.091L0.342,98.182L0.411,97.273L0.479,93.636L0.548,91.818L0.616,91.818L0.684,90.909L0.753,91.818L0.821,91.818L0.89,91.818L0.958,91.818L1.027,93.636L1.095,92.727L1.164,91.818L1.232,90.909L1.3,88.182L1.369,88.182L1.437,89.091L1.574,90.909L1.643,90.909L1.78,92.727L1.848,91.818L1.916,92.727L1.985,90.909L2.053,88.182L2.19,88.182L2.396,87.273L2.464,89.091L2.533,85.455L2.601,84.545L2.669,85.455L2.738,85.455L2.806,86.364L2.875,89.091L3.012,90.909L3.08,89.091L3.149,87.273L3.217,84.545L3.285,81.818L3.354,80.909L3.422,82.727L3.491,80.909L3.559,82.727L3.628,85.455L3.696,86.364L3.765,87.273L3.901,86.364L4.038,86.364L4.107,84.545L4.175,83.636L4.244,83.636L4.312,83.636L4.381,82.727L4.449,83.636L4.517,84.545L4.586,84.545L4.654,83.636L4.723,83.636L4.791,87.273L4.86,87.273L4.928,87.273L4.994,88.182L5.062,85.455L5.131,84.545L5.199,84.545L5.268,77.273L5.473,78.182L5.541,80L5.61,80L5.678,78.182L5.747,73.636L5.815,73.636L5.952,69.091L6.089,67.273L6.157,66.364L6.226,67.273L6.294,66.364L6.431,66.364L6.5,64.545L6.636,63.636L6.705,60L6.842,57.273L6.979,50L7.047,40L7.184,41.818L7.252,40.909L7.321,40.909L7.389,37.273L7.526,34.545L7.663,33.636L7.8,21.818L7.868,19.091L7.937,19.091L8.074,18.182L8.142,12.727L8.211,20L8.279,15.455L8.348,16.364L8.416,17.273L8.484,17.273L8.553,21.818L8.621,20L8.827,24.545L8.895,24.545L8.964,26.364L9.032,25.455L9.101,26.364L9.306,22.727L9.374,25.455L9.443,26.364L9.511,26.364L9.58,27.273L9.648,34.545L9.717,43.636L9.785,42.727L9.853,43.636L9.99,44.545L10.127,44.545L10.196,46.364L10.264,45.455L10.333,55.455L10.401,57.273L10.469,59.091L10.538,61.818L10.606,67.273L10.675,69.091L10.743,71.818L10.812,71.818L10.88,67.273L10.949,64.545L11.017,64.545L11.085,60.909L11.154,60L11.222,60.909L11.291,60.909L11.359,61.818L11.428,63.636L11.496,67.273L11.565,65.455L11.633,66.364L11.701,69.091L11.77,68.182L11.838,69.091L11.907,70.909L11.975,67.273L12.044,66.364L12.112,66.364L12.181,68.182L12.249,68.182L12.317,70L12.386,71.818L12.454,72.727L12.523,74.545L12.591,74.545L12.66,74.545L12.728,73.636L12.797,75.455L12.865,74.545L12.933,81.818L13.002,86.364L13.07,85.455L13.139,92.727L13.207,93.636L13.344,94.545L13.413,94.545L13.481,92.727L13.55,90.909L13.618,89.091L13.686,91.818L13.755,90L13.823,88.182L13.892,90L14.029,90L14.097,89.091L14.166,93.636L14.234,95.455L14.302,96.364L14.371,99.091L14.439,98.182L14.508,99.091L14.576,98.182L14.645,97.273L14.713,95.455L14.782,93.636L14.85,91.818L14.987,90L15.055,90L15.124,88.182L15.192,87.273L15.261,88.182L15.329,89.091L15.466,89.091L15.534,87.273L15.603,86.364L15.671,86.364L15.74,87.273L15.808,89.091L15.945,90L16.014,90L16.082,90L16.219,89.091L16.287,90.909L16.356,90.909L16.424,91.818L16.493,90.909L16.561,89.091L16.63,86.364L16.698,85.455L16.766,85.455L16.903,83.636L17.04,83.636L17.109,84.545L17.177,86.364L17.246,87.273L17.314,89.091L17.383,91.818L17.451,93.636L17.519,93.636L17.725,93.636L17.793,91.818L17.862,90L17.93,90L17.999,90L18.067,91.818L18.135,90L18.272,89.091L18.409,86.364L18.478,85.455L18.546,85.455L18.615,86.364L18.683,89.091L18.751,89.091L18.82,89.091L18.888,89.091L18.957,89.091L19.025,90.909L19.094,90.909L19.162,91.818L19.367,92.727L19.436,90.909L19.504,86.364L19.573,86.364L19.641,86.364L19.71,87.273L19.778,86.364L20.052,86.364L20.12,85.455L20.189,87.273L20.326,88.182L20.394,90L20.463,90L20.531,88.182L20.599,88.182L20.736,88.182L20.805,90L20.873,90.909L20.942,90.909L21.01,91.818L21.079,90L21.147,91.818L21.215,92.727L21.287,92.727L21.355,88.182L21.424,85.455L21.492,85.455L21.697,85.455L21.766,88.182L21.834,87.273L21.903,85.455L21.971,85.455L22.04,81.818L22.108,82.727L22.177,80L22.313,80L22.382,80L22.519,80L22.587,80.909L22.656,81.818L22.724,81.818L22.793,76.364L22.861,78.182L22.93,80L22.998,80L23.135,76.364L23.203,72.727L23.272,74.545L23.34,76.364L23.409,77.273L23.477,79.091L23.546,79.091L23.614,77.273L23.682,77.273L23.751,79.091L23.888,81.818L23.956,80.909L24.025,80.909L24.093,79.091L24.23,79.091L24.298,80.909L24.367,84.545L24.435,92.727L24.641,90.909L24.709,89.091L24.778,87.273L24.914,86.364L25.051,83.636L25.12,83.636L25.257,83.636L25.325,80.909L25.394,83.636L25.599,83.636L25.667,82.727L25.736,81.818L25.804,85.455L25.873,89.091L25.941,84.545L26.01,84.545L26.078,84.545L26.146,83.636L26.215,83.636L26.352,84.545L26.42,80.909L26.489,83.636L26.557,82.727L26.626,84.545L26.694,84.545L26.762,86.364L26.831,85.455L26.899,85.455L26.968,85.455L27.036,86.364L27.105,86.364L27.173,90.909L27.242,91.818L27.31,93.636L27.379,96.364L27.515,95.455L27.584,95.455L27.652,97.273L27.789,98.182L27.926,98.182L27.995,99.091L28.063,100.909L28.131,100L28.2,100L28.268,104.545L28.337,105.455L28.405,104.545L28.474,105.455L28.542,104.545L28.679,104.545L28.747,108.182L28.816,108.182L28.884,109.091L28.953,109.091L29.021,107.273L29.158,107.273L29.295,109.091L29.363,109.091L29.432,107.273L29.5,107.273L29.569,107.273L29.637,105.455L29.706,105.455L29.843,105.455L29.908,101.818L30.045,101.818L30.114,100L30.182,100.909L30.25,100.909L30.387,100L30.524,98.182L30.593,97.273L30.661,98.182L30.73,98.182L30.866,96.364L30.935,95.455L31.003,93.636L31.072,89.091L31.209,89.091L31.277,90L31.346,90L31.414,86.364L31.482,83.636L31.551,82.727L31.619,81.818L31.688,81.818L31.825,80.909L31.893,78.182L31.962,79.091L32.03,76.364L32.167,74.545L32.304,75.455L32.372,73.636L32.441,70L32.509,72.727L32.578,72.727L32.646,74.545L32.851,71.818L32.92,71.818L32.988,71.818L33.057,69.091L33.125,70.909L33.194,69.091L33.262,69.091L33.33,68.182L33.399,69.091L33.467,71.818L33.536,76.364L33.604,76.364L33.673,74.545L33.741,72.727L33.81,76.364L33.946,79.091L34.015,77.273L34.083,79.091L34.152,79.091L34.22,80L34.357,83.636L34.426,83.636L34.494,86.364L34.563,87.273L34.699,87.273L34.768,87.273L34.836,90L35.042,90.909L35.11,90.909L35.247,90.909L35.315,91.818L35.384,92.727L35.452,93.636L35.521,97.273L35.589,93.636L35.658,92.727L35.726,91.818L35.795,91.818L35.931,90L36,90L36.137,87.273L36.342,85.455L36.411,85.455L36.479,87.273L36.547,85.455L36.616,83.636L36.684,85.455L36.753,81.818L36.821,80L36.89,80L36.958,79.091L37.027,77.273L37.095,77.273L37.163,79.091L37.232,79.091L37.3,80L37.369,80L37.506,79.091L37.574,80L37.779,76.364L37.848,73.636L37.985,73.636L38.053,73.636L38.122,74.545L38.19,76.364L38.259,78.182L38.327,78.182L38.396,80L38.464,80.909L38.532,79.091L38.601,80L38.669,81.818L38.738,79.091L38.806,78.182L38.875,78.182L38.943,80L39.012,80L39.08,84.545L39.148,85.455L39.217,83.636L39.285,82.727L39.354,80.909L39.491,79.091L39.559,80L39.696,80L39.764,79.091L39.97,80L40.038,80L40.107,79.091L40.175,81.818L40.244,83.636L40.312,84.545L40.38,84.545L40.449,83.636L40.517,84.545L40.654,85.455L40.723,86.364L40.791,84.545L40.86,83.636L40.928,85.455L40.996,85.455L41.065,83.636L41.133,80.909L41.202,80.909L41.27,81.818L41.339,80.909L41.407,80.909L41.476,73.636L41.544,72.727L41.612,73.636L41.681,75.455L41.749,79.091L41.818,80.909L41.955,80.909L42.092,80L42.16,82.727L42.297,82.727L42.365,82.727L42.434,83.636L42.502,83.636L42.571,84.545L42.639,83.636L42.845,81.818L42.913,81.818L42.981,81.818L43.05,80.909L43.118,79.091L43.255,80.909L43.324,77.273L43.392,75.455L43.461,71.818L43.529,73.636L43.597,80.909L43.666,77.273L43.734,75.455L43.803,75.455L43.871,72.727L44.008,79.091L44.077,80L44.282,80.909L44.35,80L44.419,78.182L44.487,75.455L44.556,74.545L44.624,73.636L44.693,72.727L44.761,71.818L44.829,72.727L44.898,71.818L44.966,72.727L45.035,73.636L45.103,73.636L45.172,75.455L45.309,76.364L45.377,76.364L45.445,74.545L45.514,76.364L45.719,76.364L45.788,80L45.856,78.182L45.925,82.727L45.993,83.636L46.061,82.727L46.201,86.364L46.27,89.091L46.338,86.364L46.407,90L46.475,90.909L46.543,90.909L46.612,88.182L46.68,89.091L46.749,90.909L46.886,93.636L46.954,94.545L47.023,97.273L47.159,98.182L47.228,99.091L47.296,96.364L47.57,96.364L47.639,96.364L47.844,95.455L47.912,95.455L47.981,92.727L48.049,90.909L48.186,91.818L48.255,94.545L48.323,92.727L48.392,92.727L48.46,94.545L48.528,98.182L48.597,98.182L48.665,98.182L48.802,98.182L48.871,99.091L49.076,98.182L49.144,101.818L49.213,101.818L49.281,101.818L49.35,100L49.418,102.727L49.624,101.818L49.692,97.273L49.76,91.818L49.829,90.909L49.897,90.909L50.034,90L50.171,89.091L50.308,90L50.376,90.909L50.513,90L50.582,89.091L50.65,88.182L50.787,90L50.856,89.091L50.924,87.273L50.992,87.273L51.061,88.182L51.129,88.182L51.198,84.545L51.266,82.727L51.335,83.636L51.403,83.636L51.472,82.727L51.54,78.182L51.608,79.091L51.677,77.273L51.745,76.364L51.814,74.545L52.019,77.273L52.088,76.364L52.156,74.545L52.225,78.182L52.293,81.818L52.361,81.818L52.43,80.909L52.498,77.273L52.567,78.182L52.635,78.182L52.704,78.182L52.772,76.364L52.909,76.364L52.977,71.818L53.114,70L53.183,69.091L53.251,69.091L53.388,69.091L53.525,70L53.593,69.091L53.662,70L53.73,71.818L53.799,71.818L53.867,70.909L53.936,71.818L54.004,71.818L54.073,70L54.141,71.818L54.209,70.909L54.278,72.727L54.346,72.727L54.415,70.909L54.483,71.818L54.552,73.636L54.62,75.455L54.689,73.636L54.823,73.636L54.891,75.455L54.96,75.455L55.028,71.818L55.096,70.909L55.233,73.636L55.302,75.455L55.37,80.909L55.439,80.909L55.576,84.545L55.644,86.364L55.712,85.455L55.781,85.455L55.849,86.364L55.918,87.273L55.986,80.909L56.055,79.091L56.123,76.364L56.26,75.455L56.328,78.182L56.397,79.091L56.465,77.273L56.534,76.364L56.671,71.818L56.739,68.182L56.808,69.091L56.876,70L57.013,70L57.081,67.273L57.15,68.182L57.218,68.182L57.287,70L57.355,69.091L57.424,72.727L57.492,73.636L57.56,73.636L57.697,74.545L57.766,73.636L57.834,76.364L57.903,71.818L57.971,70L58.108,67.273L58.176,65.455L58.245,66.364L58.313,66.364L58.382,71.818L58.45,70L58.519,73.636L58.587,75.455L58.656,75.455L58.724,72.727L58.792,74.545L58.861,77.273L58.929,81.818L58.998,84.545L59.066,84.545L59.135,81.818L59.272,79.091L59.34,80L59.409,81.818L59.614,81.818L59.682,80.909L59.751,80.909L59.819,79.091L59.888,79.091L59.956,79.091L60.025,79.091L60.093,80.909L60.161,80.909L60.23,85.455L60.298,85.455L60.367,88.182L60.435,85.455L60.572,83.636L60.641,80.909L60.709,81.818L60.777,83.636L60.914,81.818L61.12,79.091L61.188,80L61.257,81.818L61.325,80L61.462,80L61.53,80L61.599,79.091L61.667,80L61.736,81.818L61.804,81.818L61.873,82.727L61.941,81.818L62.009,81.818L62.146,82.727L62.215,80.909L62.42,83.636L62.489,82.727L62.557,80.909L62.625,80L62.694,79.091L62.762,72.727L62.968,71.818L63.036,72.727L63.105,70.909L63.173,73.636L63.242,70.909L63.31,75.455L63.378,75.455L63.447,77.273L63.515,79.091L63.584,80L63.652,79.091L63.721,80L63.789,81.818L63.858,81.818L63.926,80.909L63.994,81.818L64.063,79.091L64.131,80L64.2,80.909L64.405,81.818L64.474,82.727L64.542,82.727L64.61,83.636L64.679,86.364L64.816,87.273L64.884,86.364L64.953,88.182L65.021,89.091L65.09,88.182L65.158,92.727L65.226,92.727L65.363,92.727L65.432,92.727L65.5,93.636L65.569,95.455L65.637,95.455L65.706,92.727L65.774,88.182L65.842,85.455L65.911,86.364L65.979,86.364L66.048,84.545L66.116,84.545L66.185,82.727L66.253,80.909L66.322,80L66.39,81.818L66.458,82.727L66.527,82.727L66.595,82.727L66.664,82.727L66.801,81.818L66.869,79.091L66.938,78.182L67.006,73.636L67.143,70.909L67.211,70L67.28,66.364L67.348,66.364L67.485,65.455L67.554,66.364L67.622,63.636L67.691,66.364L67.759,63.636L67.827,63.636L67.896,61.818L67.964,61.818L68.033,63.636L68.101,66.364L68.17,67.273L68.238,67.273L68.307,68.182L68.375,65.455L68.443,64.545L68.512,66.364L68.717,68.182L68.854,69.091L68.923,67.273L68.991,63.636L69.196,61.818L69.265,60.909L69.333,61.818L69.402,63.636L69.47,61.818L69.539,66.364L69.675,70L69.744,70.909L69.812,74.545L69.881,76.364L69.949,77.273L70.018,76.364L70.086,78.182L70.155,78.182L70.223,75.455L70.291,78.182L70.36,80L70.428,81.818L70.497,82.727L70.565,82.727L70.634,82.727L70.771,84.545L70.839,84.545L70.907,85.455L70.976,88.182L71.044,89.091L71.116,89.091L71.253,89.091L71.321,84.545L71.389,89.091L71.458,90L71.526,90.909L71.595,89.091L71.663,89.091L71.732,90L71.8,88.182L71.869,85.455L71.937,83.636L72.074,83.636L72.142,82.727L72.348,83.636L72.416,80.909L72.485,80L72.553,80L72.621,84.545L72.69,84.545L72.758,83.636L72.827,81.818L72.895,83.636L73.032,83.636L73.101,81.818L73.169,81.818L73.238,79.091L73.306,78.182L73.374,78.182L73.443,77.273L73.511,76.364L73.58,77.273L73.648,83.636L73.717,80.909L73.785,78.182L73.854,76.364L73.922,77.273L73.99,78.182L74.059,77.273L74.127,79.091L74.196,80.909L74.264,82.727L74.333,80L74.538,80.909L74.606,81.818L74.675,85.455L74.743,87.273L74.812,85.455L74.88,86.364L74.949,86.364L75.017,84.545L75.086,87.273L75.154,86.364L75.222,84.545L75.291,82.727L75.359,80.909L75.428,83.636L75.496,86.364L75.565,85.455L75.633,85.455L75.838,85.455L75.907,81.818L75.975,80L76.044,81.818L76.181,81.818L76.318,80.909L76.386,82.727L76.454,81.818L76.523,84.545L76.66,84.545L76.797,86.364L76.865,86.364L76.934,88.182L77.07,87.273L77.207,86.364L77.344,85.455L77.413,85.455L77.481,87.273L77.55,86.364L77.618,84.545L77.687,86.364L77.892,86.364L77.96,86.364L78.029,86.364L78.097,90L78.166,91.818L78.234,91.818L78.303,90L78.371,88.182L78.439,87.273L78.508,87.273L78.576,89.091L78.645,89.091L78.782,90L78.85,87.273L78.919,89.091L78.987,86.364L79.055,86.364L79.124,86.364L79.192,84.545L79.261,82.727L79.329,80L79.398,80L79.535,80.909L79.603,81.818L79.737,82.727L79.805,81.818L79.874,81.818L79.942,80.909L80.011,80.909L80.079,81.818L80.216,80L80.285,79.091L80.353,80.909L80.49,80.909L80.558,80L80.695,80L80.764,80.909L80.832,80L80.901,81.818L80.969,80L81.038,79.091L81.174,80L81.243,79.091L81.311,80L81.38,78.182L81.517,78.182L81.585,78.182L81.654,76.364L81.79,76.364L81.859,77.273L81.927,80L81.996,80L82.064,77.273L82.133,74.545L82.201,74.545L82.27,74.545L82.338,71.818L82.406,71.818L82.475,71.818L82.612,67.273L82.68,67.273L82.749,69.091L82.817,68.182L82.886,66.364L82.954,65.455L83.091,67.273L83.159,68.182L83.228,71.818L83.296,71.818L83.365,73.636L83.57,74.545L83.638,74.545L83.707,75.455L83.844,80.909L84.049,82.727L84.186,85.455L84.255,85.455L84.323,87.273L84.391,85.455L84.46,82.727L84.528,82.727L84.597,81.818L84.665,81.818L84.734,83.636L84.802,81.818L85.007,80L85.076,82.727L85.144,85.455L85.213,84.545L85.281,89.091L85.418,90L85.487,90L85.555,88.182L85.623,89.091L85.692,88.182L85.76,84.545L85.829,80.909L85.897,80.909L85.966,80.909L86.034,81.818L86.103,80.909L86.239,78.182L86.308,77.273L86.376,75.455L86.445,74.545L86.513,73.636L86.582,72.727L86.65,72.727L86.719,76.364L86.787,77.273L86.855,75.455L86.924,77.273L86.992,79.091L87.061,74.545L87.129,74.545L87.198,77.273L87.335,73.636L87.403,72.727L87.471,75.455L87.54,75.455L87.608,73.636L87.677,70.909L87.882,71.818L87.951,72.727L88.019,75.455L88.087,75.455L88.156,78.182L88.224,77.273L88.293,75.455L88.361,75.455L88.43,77.273L88.498,79.091L88.635,76.364L88.704,77.273L88.772,76.364L88.84,77.273L88.909,79.091L88.977,78.182L89.046,76.364L89.114,78.182L89.183,79.091L89.251,79.091L89.32,77.273L89.388,81.818L89.456,82.727L89.525,82.727L89.593,82.727L89.662,81.818L89.73,80.909L89.799,78.182L89.867,80.909L89.936,82.727L90.004,83.636L90.072,81.818L90.141,81.818L90.278,84.545L90.483,84.545L90.552,83.636L90.62,83.636L90.688,82.727L90.757,82.727L90.825,82.727L90.894,87.273L91.031,86.364L91.099,86.364L91.168,85.455L91.236,84.545L91.304,82.727L91.441,81.818L91.647,82.727L91.715,80.909L91.852,80L91.989,79.091L92.263,77.273L92.331,77.273L92.4,75.455L92.537,77.273L92.605,78.182L92.742,79.091L92.81,77.273L92.879,76.364L92.947,76.364L93.016,77.273L93.084,77.273L93.153,77.273L93.221,76.364L93.289,75.455L93.426,77.273L93.495,76.364L93.563,75.455L93.632,72.727L93.7,72.727L93.769,72.727L93.837,74.545L93.905,77.273L93.974,77.273L94.042,77.273L94.111,80L94.179,82.727L94.248,81.818L94.316,82.727L94.385,83.636L94.521,85.455L94.658,87.273L94.727,86.364L94.795,87.273L94.864,88.182L95.001,89.091L95.069,89.091L95.274,93.636L95.343,92.727L95.548,93.636L95.617,93.636L95.685,95.455L95.753,95.455L95.822,97.273L95.89,99.091L95.959,99.091L96.03,100.909L96.099,101.818L96.167,102.727L96.235,103.636L96.304,103.636L96.372,101.818L96.441,101.818L96.509,101.818L96.578,100.909L96.646,100L96.715,100L96.783,100.909L96.92,102.727L96.988,102.727L97.057,103.636L97.125,103.636L97.262,103.636L97.331,105.455L97.399,104.545L97.467,104.545L97.536,101.818L97.604,101.818L97.741,102.727L97.878,96.364L97.947,92.727L98.015,90.909L98.084,90L98.152,87.273L98.22,87.273L98.289,86.364L98.426,85.455L98.494,86.364L98.563,88.182L98.631,89.091L98.7,87.273L98.836,88.182L98.905,88.182L98.973,88.182L99.042,90L99.11,90L99.452,89.091L99.589,87.273L99.658,86.364L99.726,83.636L99.863,84.545L99.932,84.545L100,82.727L100.068,80.909L100.137,79.091L100.205,78.182L100.274,80.909L100.342,80L100.411,79.091L100.479,83.636L100.616,83.636L100.753,85.455L100.821,86.364L100.89,86.364L100.958,84.545L101.027,83.636L101.095,83.636L101.164,82.727L101.232,82.727L101.3,80.909L101.369,80L101.437,79.091L101.506,78.182L101.643,78.182L101.711,76.364L101.78,75.455L101.848,75.455L101.985,74.545L102.053,74.545L102.122,71.818L102.19,70.909L102.259,71.818L102.327,73.636L102.396,72.727L102.464,75.455L102.533,74.545L102.738,74.545L102.806,75.455L102.875,77.273L102.943,77.273L103.012,80.909L103.08,80.909L103.149,80L103.285,80.909L103.354,82.727L103.422,84.545L103.491,85.455L103.628,83.636L103.696,84.545L103.765,84.545L103.833,86.364L103.901,88.182L103.97,89.091L104.107,90L104.175,90.909L104.244,91.818L104.312,92.727L104.381,94.545L104.449,94.545L104.517,100L104.586,100L104.651,100L104.72,101.818L104.788,104.545L104.857,103.636L104.925,105.455L104.994,105.455L105.062,105.455L105.199,105.455L105.268,107.273L105.336,107.273L105.473,106.364L105.61,107.273L105.747,109.091L105.815,109.091L105.884,109.091L105.952,109.091L106.089,111.818L106.157,111.818L106.226,113.636L106.294,114.545L106.431,112.727L106.568,112.727L106.979,112.727L107.252,113.636L107.321,114.545L107.526,113.636L107.663,114.545L107.868,115.455L107.937,115.455L108.142,113.636L108.211,113.636L108.279,113.636L108.553,113.636L108.758,115.455L108.895,115.455L108.964,115.455L109.101,114.545L109.169,111.818L109.374,111.818L109.443,110.909L109.511,110L109.58,108.182L109.648,108.182L109.717,108.182L109.922,107.273L109.99,106.364L110.127,106.364L110.196,105.455L110.264,105.455L110.743,105.455L110.812,106.364L110.949,106.364L111.017,105.455L111.154,104.545L111.359,103.636L111.428,104.545L111.496,103.636L111.565,102.727L111.77,102.727L111.838,105.455L111.907,105.455L111.975,105.455L112.044,104.545L112.112,103.636L112.181,103.636L112.249,102.727L112.317,103.636L112.454,105.455L112.523,105.455L112.591,106.364L112.728,107.273L112.797,108.182L112.865,106.364L113.139,106.364L113.413,107.273L113.481,109.091L113.55,109.091L113.755,110L113.823,109.091L113.892,109.091L114.029,110L114.097,110L114.166,110.909L114.302,111.818L114.371,112.727L114.439,111.818L114.576,110.909L114.645,107.273L114.713,107.273L114.918,105.455L114.987,105.455L115.055,104.545L115.124,105.455L115.192,106.364L115.261,105.455L115.329,106.364L115.398,106.364L115.466,106.364L115.534,106.364L115.603,106.364L115.877,107.273L116.014,108.182L116.15,110L116.287,109.091L116.63,107.273L116.766,106.364L116.972,104.545L117.04,103.636L117.109,104.545L117.588,104.545L117.862,104.545L117.93,104.545L117.999,104.545L118.135,103.636L118.204,103.636L118.272,103.636L118.409,105.455L118.478,110L118.615,110L118.683,110.909L118.751,108.182L118.82,109.091L118.888,108.182L118.957,108.182L119.025,109.091L119.299,108.182L119.367,108.182L119.436,108.182L119.504,107.273L119.641,105.455L119.71,105.455L119.778,105.455L119.915,105.455L120.052,106.364L120.12,107.273L120.257,108.182L120.394,109.091L120.531,109.091L120.668,108.182L120.873,108.182L120.945,108.182L121.013,108.182L121.15,108.182L121.218,109.091L121.287,109.091L121.355,110L121.424,110L121.561,109.091L121.766,107.273L121.903,108.182L122.04,110.909L122.245,110.909L122.45,111.818L122.519,111.818L122.656,111.818L122.724,112.727L122.861,112.727L122.93,113.636L122.998,114.545L123.066,115.455L123.135,114.545L123.203,114.545L123.34,114.545L123.409,113.636L123.477,114.545L123.751,114.545L123.819,115.455L123.888,115.455L123.956,116.364L124.025,116.364L124.093,116.364L124.504,116.364L124.709,116.364L124.914,115.455L125.12,115.455L125.188,115.455L125.257,114.545L125.325,113.636L125.599,115.455L125.736,113.636L125.941,113.636L126.078,113.636L126.283,112.727L126.42,111.818L126.489,111.818L126.762,111.818L126.899,110L126.968,110L127.105,110L127.31,110.909L127.379,111.818L127.447,111.818L127.789,111.818L128.131,112.727L128.2,112.727L128.337,112.727L128.474,112.727L128.679,113.636L128.747,110L128.816,109.091L128.884,108.182L129.021,108.182L129.227,108.182L129.569,109.091L129.706,109.091L129.774,109.091L129.843,110L129.911,110.909L130.114,109.091L130.182,110.909L130.319,110.909L130.456,110.909L130.593,110L130.661,110L130.73,107.273L130.798,107.273L131.209,109.091L131.756,109.091L131.893,108.182L132.03,108.182L132.098,108.182L132.167,108.182L132.235,108.182L132.509,108.182L132.851,107.273L132.92,105.455L132.988,105.455L133.057,105.455L133.125,109.091L133.262,110L133.33,110.909L133.467,110.909L133.536,110L133.81,109.091L133.878,109.091L134.015,107.273L134.152,107.273L134.22,108.182L134.426,110L134.563,110L134.699,106.364L134.836,106.364L134.905,107.273L135.042,108.182L135.179,110L135.247,108.182L135.726,108.182L136,108.182L136.137,108.182L136.205,107.273L136.274,107.273L136.411,104.545L136.616,103.636L136.753,101.818L136.821,102.727L136.89,103.636L136.958,102.727L137.027,102.727L137.232,102.727L137.437,100.909L137.506,100.909L137.574,100L137.643,100.909L137.779,101.818L137.916,101.818L137.985,103.636L138.327,102.727L138.396,100.909L138.464,100.909L138.532,98.182L138.669,100L138.806,99.091L138.875,100L138.943,100L139.012,100.909L139.08,101.818L139.285,100.909L139.354,100L139.491,100.909L139.628,100L139.764,99.091L139.833,100.909L139.901,100.909L139.97,101.818L140.107,98.182L140.175,96.364L140.244,97.273L140.312,94.545L140.517,94.545L140.586,94.545L140.654,92.727L140.723,93.636L140.791,92.727L140.86,91.818L140.928,89.091L141.133,88.182L141.202,89.091L141.27,88.182L141.339,86.364L141.407,89.091L141.544,90L141.612,89.091L141.818,88.182L141.955,88.182L142.023,88.182L142.16,88.182L142.228,89.091L142.365,90L142.434,89.091L142.502,90.909L142.571,90.909L142.708,91.818L142.776,92.727L142.845,93.636L142.913,97.273L143.05,99.091L143.118,98.182L143.187,100L143.255,99.091L143.324,100L143.461,100.909L143.529,100.909L143.597,101.818L143.734,101.818L143.803,104.545L143.871,105.455L143.94,104.545L144.008,106.364L144.145,108.182L144.213,108.182L144.282,109.091L144.487,108.182L144.556,109.091L144.624,108.182L144.693,107.273L144.898,108.182L144.966,107.273L145.035,107.273L145.103,105.455L145.172,105.455L145.309,105.455L145.377,104.545L145.514,103.636L145.582,103.636L145.651,102.727L145.788,103.636L145.856,103.636L145.925,104.545L146.13,105.455L146.198,105.455L146.267,106.364L146.338,106.364L146.407,106.364L146.475,107.273L146.612,107.273L146.68,106.364L146.749,107.273L146.954,108.182L147.228,107.273L147.296,107.273L147.365,107.273L147.433,110L147.57,110L147.707,110.909L147.775,110.909L147.844,110.909L147.981,110.909L148.118,110L148.186,111.818L148.255,111.818L148.323,104.545L148.46,105.455L148.597,106.364L148.734,106.364L148.939,105.455L149.076,105.455L149.144,104.545L149.35,104.545L149.418,104.545L149.76,105.455L149.829,105.455L150.034,105.455L150.103,105.455L150.24,104.545L150.308,104.545L150.376,105.455L150.445,105.455L150.513,103.636L150.582,103.636L150.65,103.636L150.719,100L150.787,100L150.992,94.545L151.129,93.636L151.198,90.909L151.266,89.091L151.335,90L151.403,89.091L151.472,87.273L151.54,87.273L151.608,95.455L151.814,95.455L151.882,94.545L152.156,92.727L152.293,94.545L152.567,94.545L152.841,92.727L152.909,92.727L153.183,92.727L153.32,92.727L153.388,90L153.457,89.091L153.73,88.182L153.936,88.182L154.004,88.182L154.073,87.273L154.141,85.455L154.209,87.273L154.278,86.364L154.346,86.364L154.483,90L154.552,90L154.689,95.455L154.757,96.364L154.825,99.091L154.894,100L155.028,100L155.096,98.182L155.165,100L155.302,100L155.37,98.182L155.439,98.182L155.507,99.091L155.576,100L155.644,99.091L155.781,99.091L155.849,99.091L155.918,97.273L155.986,92.727L156.123,90.909L156.192,93.636L156.26,93.636L156.328,93.636L156.397,94.545L156.465,93.636L156.534,92.727L156.602,94.545L156.671,93.636L156.739,93.636L156.808,93.636L156.876,92.727L156.944,92.727L157.081,92.727L157.218,91.818L157.355,91.818L157.424,92.727L157.492,92.727L157.56,96.364L157.629,96.364L157.697,96.364L157.766,95.455L157.903,92.727L157.971,91.818L158.04,92.727L158.108,93.636L158.176,92.727L158.245,94.545L158.313,95.455L158.382,99.091L158.45,100L158.519,100L158.587,100L158.656,100.909L158.724,100L158.792,100.909L158.861,100.909L158.998,96.364L159.066,96.364L159.135,96.364L159.272,95.455L159.34,96.364L159.409,96.364L159.477,94.545L159.751,94.545L159.819,95.455L159.888,94.545L159.956,94.545L160.025,93.636L160.093,94.545L160.161,92.727L160.298,94.545L160.367,97.273L160.435,96.364L160.777,95.455L160.846,94.545L160.914,95.455L160.983,97.273L161.051,98.182L161.257,99.091L161.325,99.091L161.462,99.091L161.53,100L161.599,98.182L161.667,98.182L161.736,97.273L161.804,97.273L161.873,99.091L161.941,100L162.009,100.909L162.078,100L162.146,100L162.215,99.091L162.352,100.909L162.42,101.818L162.489,100.909L162.694,101.818L162.762,100L162.831,100L162.899,99.091L162.968,98.182L163.036,99.091L163.105,96.364L163.173,96.364L163.242,95.455L163.31,94.545L163.378,91.818L163.447,90L163.515,90L163.584,90L163.652,90.909L163.721,89.091L163.789,87.273L163.858,89.091L163.926,87.273L163.994,87.273L164.063,89.091L164.131,90.909L164.2,87.273L164.268,87.273L164.405,89.091L164.474,85.455L164.542,86.364L164.61,86.364L164.679,85.455L164.747,86.364L164.884,86.364L164.953,87.273L165.021,88.182L165.09,89.091L165.158,91.818L165.226,90.909L165.295,93.636L165.363,95.455L165.432,97.273L165.5,98.182L165.569,100L165.637,101.818L165.706,99.091L165.774,99.091L165.842,99.091L165.911,100.909L165.979,101.818L166.048,100L166.116,101.818L166.185,100.909L166.253,100L166.458,100L166.527,102.727L166.595,102.727L166.664,102.727L166.732,106.364L166.801,105.455L166.869,105.455L166.938,104.545L167.074,103.636L167.211,99.091L167.28,96.364L167.348,96.364L167.417,94.545L167.485,93.636L167.554,94.545L167.622,90.909L167.691,89.091L167.759,86.364L167.827,82.727L167.896,83.636L167.964,83.636L168.033,84.545L168.101,80.909L168.17,80.909L168.443,80.909L168.512,81.818L168.58,80.909L168.649,81.818L168.717,82.727L168.786,80L168.854,80.909L168.923,80L168.991,80L169.059,78.182L169.128,78.182L169.196,77.273L169.265,75.455L169.333,77.273L169.402,78.182L169.539,81.818L169.607,84.545L169.812,80.909L169.881,80.909L169.949,80L170.018,80L170.086,83.636L170.155,85.455L170.223,88.182L170.291,89.091L170.36,89.091L170.428,89.091L170.497,90L170.565,91.818L170.634,91.818L170.702,91.818L170.771,91.818L170.907,94.545L171.113,94.545L171.181,95.455L171.253,98.182L171.321,96.364L171.389,94.545L171.458,95.455L171.526,97.273L171.595,96.364L171.732,98.182L171.8,99.091L171.869,99.091L171.937,99.091L172.005,100L172.074,100.909L172.211,102.727L172.279,104.545L172.348,105.455L172.485,105.455L172.553,104.545L172.621,100.909L172.69,100.909L172.827,103.636L172.895,100.909L172.964,100.909L173.032,101.818L173.238,103.636L173.306,102.727L173.374,102.727L173.443,100.909L173.58,100L173.648,98.182L173.717,96.364L173.785,97.273L173.854,99.091L173.922,100.909L173.99,100L174.059,100L174.127,100.909L174.196,97.273L174.264,96.364L174.333,95.455L174.401,92.727L174.606,91.818L174.675,90L174.812,91.818L175.154,90L175.222,90L175.291,89.091L175.359,88.182L175.428,85.455L175.496,84.545L175.565,85.455L175.633,88.182L175.702,84.545L175.77,84.545L175.838,84.545L175.907,84.545L175.975,84.545L176.112,85.455L176.181,83.636L176.318,84.545L176.386,86.364L176.454,86.364L176.523,84.545L176.66,86.364L176.797,85.455L176.865,84.545L177.002,83.636L177.07,86.364L177.139,86.364L177.207,81.818L177.276,84.545L177.344,84.545L177.413,86.364L177.481,85.455L177.55,87.273L177.618,86.364L177.687,84.545L177.755,85.455L177.823,91.818L178.029,86.364L178.097,83.636L178.166,79.091L178.234,80.909L178.303,80.909L178.371,77.273L178.439,78.182L178.508,78.182L178.576,76.364L178.713,79.091L178.85,80L178.919,80L179.055,78.182L179.124,79.091L179.192,79.091L179.261,80.909L179.398,80L179.466,80.909L179.535,81.818L179.603,83.636L179.671,89.091L179.74,89.091L179.808,85.455L179.874,83.636L179.942,84.545L180.011,82.727L180.079,84.545L180.148,87.273L180.285,87.273L180.353,86.364L180.422,90.909L180.49,93.636L180.558,97.273L180.832,97.273L180.901,93.636L180.969,96.364L181.038,96.364L181.106,95.455L181.174,98.182L181.311,95.455L181.38,93.636L181.517,93.636L181.585,92.727L181.654,92.727L181.722,92.727L181.79,91.818L181.859,90.909L181.927,90.909L182.064,89.091L182.133,87.273L182.201,83.636L182.27,81.818L182.338,86.364L182.475,88.182L182.543,86.364L182.612,87.273L182.68,85.455L182.749,84.545L182.817,83.636L182.886,80.909L182.954,82.727L183.091,82.727L183.228,81.818L183.365,80L183.433,83.636L183.502,82.727L183.57,82.727L183.638,81.818L183.707,79.091L183.775,78.182L183.912,77.273L183.981,73.636L184.049,74.545L184.186,75.455L184.255,75.455L184.323,76.364L184.391,79.091L184.46,74.545L184.597,76.364L184.665,76.364L184.734,77.273L184.802,77.273L184.871,75.455L184.939,75.455L185.007,76.364L185.213,77.273L185.281,77.273L185.35,77.273L185.418,79.091L185.555,81.818L185.623,80.909L185.692,80L185.76,80.909L185.829,80L185.897,80L185.966,81.818L186.034,78.182L186.103,78.182L186.171,80.909L186.239,84.545L186.308,85.455L186.376,88.182L186.582,88.182L186.65,84.545L186.719,84.545L186.787,79.091L186.855,78.182L186.992,81.818L187.061,81.818L187.129,82.727L187.266,85.455L187.335,87.273L187.403,88.182L187.471,88.182L187.54,89.091L187.608,88.182L187.677,89.091L187.745,90L187.814,87.273L187.882,86.364L188.019,86.364L188.156,85.455L188.224,85.455L188.293,88.182L188.43,86.364L188.498,82.727L188.567,85.455L188.635,87.273L188.704,82.727L188.772,81.818L188.84,80L188.909,78.182L188.977,75.455L189.046,78.182L189.114,78.182L189.183,80L189.251,79.091L189.32,77.273L189.388,77.273L189.456,76.364L189.525,75.455L189.593,75.455L189.662,75.455L189.73,72.727L189.799,69.091L189.867,66.364L189.936,63.636L190.004,57.273L190.072,57.273L190.209,58.182L190.278,56.364L190.346,58.182L190.415,58.182L190.483,57.273L190.552,59.091L190.62,62.727L190.757,62.727L190.825,61.818L190.894,64.545L190.962,61.818L191.031,65.455L191.099,68.182L191.168,71.818L191.236,72.727L191.373,72.727L191.441,76.364L191.51,76.364L191.578,77.273L191.647,76.364L191.715,76.364L191.784,77.273L191.852,77.273L191.92,78.182L191.989,79.091L192.057,82.727L192.126,85.455L192.194,88.182L192.263,90L192.331,91.818L192.4,90.909L192.468,92.727L192.537,91.818L192.605,91.818L192.673,89.091L192.742,87.273L192.81,86.364L192.879,86.364L192.947,85.455L193.016,85.455L193.084,89.091L193.153,84.545L193.358,81.818L193.426,80L193.495,79.091L193.563,79.091L193.632,79.091L193.7,77.273L193.769,78.182L193.837,76.364L193.905,76.364L193.974,75.455L194.042,73.636L194.111,73.636L194.179,75.455L194.248,75.455L194.316,76.364L194.385,75.455L194.453,80L194.521,80.909L194.59,82.727L194.658,80.909L194.727,81.818L194.795,80.909L194.864,84.545L194.932,85.455L195.069,86.364L195.137,87.273L195.206,89.091L195.274,90L195.343,89.091L195.48,93.636L195.685,94.545L195.753,97.273L195.822,94.545L195.89,93.636L195.959,93.636L196.027,96.364L196.096,92.727L196.167,92.727L196.235,94.545L196.304,95.455L196.372,97.273L196.441,96.364L196.509,93.636L196.578,92.727L196.646,92.727L196.715,92.727L196.783,92.727L196.851,86.364L196.92,84.545L196.988,86.364L197.057,83.636L197.125,85.455L197.194,86.364L197.262,87.273L197.331,86.364L197.399,86.364L197.467,83.636L197.536,79.091L197.604,80L197.673,79.091L197.741,80L197.81,79.091L197.878,80L197.947,78.182L198.015,78.182L198.152,79.091L198.22,83.636L198.357,86.364L198.426,84.545L198.563,84.545L198.631,82.727L198.7,83.636L198.768,85.455L198.836,84.545L198.905,83.636L199.042,82.727L199.11,80L199.179,86.364L199.247,85.455L199.384,86.364L199.452,89.091L199.658,88.182L199.795,89.091L199.932,89.091L200,87.273L200.068,85.455L200.205,88.182L200.274,93.636L200.342,93.636L200.479,94.545L200.548,95.455L200.616,95.455L200.753,97.273L200.821,100L200.89,98.182L200.958,97.273L201.095,96.364L201.164,96.364L201.232,96.364L201.3,95.455L201.369,95.455L201.437,94.545L201.506,93.636L201.574,93.636L201.643,93.636L201.78,93.636L201.848,95.455L201.916,94.545" stroke="#4c78a8" stroke-width="2"/></g><g class="mark-group role-title"><g transform="translate(100,-17)"><path class="background" aria-hidden="true" d="M0,0h0v0h0Z" pointer-events="none"/><g><g class="mark-text role-title-text" role="graphics-symbol" aria-roledescription="title" aria-label="Title text 'Food Establishment: Letter Grading'" pointer-events="none"><text text-anchor="middle" transform="translate(0,10)" font-family="sans-serif" font-size="13px" font-weight="bold" fill="#000" opacity="1">Food Establishment: Letter Grading</text></g></g><path class="foreground" aria-hidden="true" d="" pointer-events="none" display="none"/></g></g></g><path class="foreground" aria-hidden="true" d="" display="none"/></g></g></g><defs><clipPath id="clip164"><rect x="0" y="0" width="200" height="150"/></clipPath></defs></svg>