<svg xmlns="http://www.w3.org/2000/svg" xmlns:xlink="http://www.w3.org/1999/xlink" version="1.1" class="marks" width="312" height="199" viewBox="0 0 312 199"><rect width="312" height="199" fill="white"/><g fill="none" stroke-miterlimit="10" transform="translate(56,27)"><g class="mark-group role-frame root" role="graphics-object" aria-roledescription="group mark container"><g transform="translate(0,0)"><path class="background" aria-hidden="true" d="M0,0h200v150h-200Z"/><g><g class="mark-group role-axis" aria-hidden="true"><g transform="translate(0.5,0.5)"><path class="background" aria-hidden="true" d="M0,0h0v0h0Z" pointer-events="none"/><g><g class="mark-rule role-axis-grid" pointer-events="none"><line transform="translate(0,150)" x2="200" y2="0" stroke="#ddd" stroke-width="1" opacity="1"/><line transform="translate(0,120)" x2="200" y2="0" stroke="#ddd" stroke-width="1" opacity="1"/><line transform="translate(0,90)" x2="200" y2="0" stroke="#ddd" stroke-width="1" opacity="1"/><line transform="translate(0,60)" x2="200" y2="0" stroke="#ddd" stroke-width="1" opacity="1"/><line transform="translate(0,30)" x2="200" y2="0" stroke="#ddd" stroke-width="1" opacity="1"/><line transform="translate(0,0)" x2="200" y2="0" stroke="#ddd" stroke-width="1" opacity="1"/></g></g><path class="foreground" aria-hidden="true" d="" pointer-events="none" display="none"/></g></g><g class="mark-group role-axis" role="graphics-symbol" aria-roledescription="axis" aria-label="X-axis for a time scale with values from Friday, 01 January 2016, 12:00:00 AM to Monday, 01 January 2024, 12:00:00 AM"><g transform="translate(0.5,150.5)"><path class="background" aria-hidden="true" d="M0,0h0v0h0Z" pointer-events="none"/><g><g class="mark-rule role-axis-tick" pointer-events="none"><line transform="translate(0,0)" x2="0" y2="5" stroke="#888" stroke-width="1" opacity="1"/><line transform="translate(50,0)" x2="0" y2="5" stroke="#888" stroke-width="1" opacity="1"/><line transform="translate(100,0)" x2="0" y2="5" stroke="#888" stroke-width="1" opacity="1"/><line transform="translate(150,0)" x2="0" y2="5" stroke="#888" stroke-width="1" opacity="1"/><line transform="translate(200,0)" x2="0" y2="5" stroke="#888" stroke-width="1" opacity="1"/></g><g class="mark-text role-axis-label" pointer-events="none"><text text-anchor="start" transform="translate(0,15)" font-family="sans-serif" font-size="10px" fill="#000" opacity="1">2016</text><text text-anchor="middle" transform="translate(50.03422313483915,15)" font-family="sans-serif" font-size="10px" fill="#000" opacity="1">2018</text><text text-anchor="middle" transform="translate(100,15)" font-family="sans-serif" font-size="10px" fill="#000" opacity="1">2020</text><text text-anchor="middle" transform="translate(150.03422313483915,15)" font-family="sans-serif" font-size="10px" fill="#000" opacity="1">2022</text><text text-anchor="end" transform="translate(200,15)" font-family="sans-serif" font-size="10px" fill="#000" opacity="1">2024</text></g><g class="mark-rule role-axis-domain" pointer-events="none"><line transform="translate(0,0)" x2="200" y2="0" stroke="#888" stroke-width="1" opacity="1"/></g></g><path class="foreground" aria-hidden="true" d="" pointer-events="none" display="none"/></g></g><g class="mark-group role-axis" role="graphics-symbol" aria-roledescription="axis" aria-label="Y-axis for a linear scale with values from 0 to 10"><g transform="translate(0.5,0.5)"><path class="background" aria-hidden="true" d="M0,0h0v0h0Z" pointer-events="none"/><g><g class="mark-rule role-axis-tick" pointer-events="none"><line transform="translate(0,150)" x2="-5" y2="0" stroke="#888" stroke-opacity="0" stroke-width="1" opacity="1"/><line transform="translate(0,120)" x2="-5" y2="0" stroke="#888" stroke-opacity="0" stroke-width="1" opacity="1"/><line transform="translate(0,90)" x2="-5" y2="0" stroke="#888" stroke-opacity="0" stroke-width="1" opacity="1"/><line transform="translate(0,60)" x2="-5" y2="0" stroke="#888" stroke-opacity="0" stroke-width="1" opacity="1"/><line transform="translate(0,30)" x2="-5" y2="0" stroke="#888" stroke-opacity="0" stroke-width="1" opacity="1"/><line transform="translate(0,0)" x2="-5" y2="0" stroke="#888" stroke-opacity="0" stroke-width="1" opacity="1"/></g><g class="mark-text role-axis-label" pointer-events="none"><text text-anchor="end" transform="translate(-7,153)" font-family="sans-serif" font-size="10px" fill="#000" opacity="1">0</text><text text-anchor="end" transform="translate(-7,123)" font-family="sans-serif" font-size="10px" fill="#000" opacity="1">2</text><text text-anchor="end" transform="translate(-7,93)" font-family="sans-serif" font-size="10px" fill="#000" opacity="1">4</text><text text-anchor="end" transform="translate(-7,63)" font-family="sans-serif" font-size="10px" fill="#000" opacity="1">6</text><text text-anchor="end" transform="translate(-7,32.99999999999999)" font-family="sans-serif" font-size="10px" fill="#000" opacity="1">8</text><text text-anchor="end" transform="translate(-7,3)" font-family="sans-serif" font-size="10px" fill="#000" opacity="1">10</text></g></g><path class="foreground" aria-hidden="true" d="" pointer-events="none" display="none"/></g></g><g class="mark-line role-mark marks" clip-path="url(#clip165)" role="graphics-object" aria-roledescription="line mark container"><path aria-label="day: Feb 12, 2016; avg: 2.46666666667" role="graphics-symbol" aria-roledescription="line mark" d="M2.875,113L3.012,112L3.149,108L3.217,107.5L3.354,106.5L3.559,103.5L3.765,104L3.97,106.5L4.038,106L4.107,106L4.517,105.5L4.586,105L4.654,105L4.723,104L4.791,105.5L4.86,104L4.928,100L4.994,100L5.131,96L5.199,93.5L5.268,90L5.541,89.5L5.61,88.5L5.678,82.5L5.747,80.5L5.884,78.5L5.952,76L6.02,74.5L6.157,74L6.226,74L6.294,71.5L6.363,71L6.431,73.5L6.5,73L6.568,73L6.636,76L6.705,73.5L6.773,67.5L6.91,64.5L6.979,58.5L7.047,56.5L7.116,56L7.184,55.5L7.252,53.5L7.321,50L7.389,49L7.458,49L7.526,47.5L7.595,50L7.663,52L7.732,53.5L7.8,51.5L7.868,47L7.937,46.5L8.005,47.5L8.074,49.5L8.142,52L8.211,46.5L8.279,44L8.348,37L8.416,37.5L8.484,38.5L8.553,37.5L8.621,35.5L8.758,30L8.827,26.5L8.895,27.5L8.964,30.5L9.032,32L9.101,37L9.169,38L9.237,34L9.306,29L9.374,27.5L9.443,27.5L9.511,31L9.58,32.5L9.648,30.5L9.785,25L9.853,21L9.922,16.5L9.99,16.5L10.059,19L10.127,25L10.196,21.5L10.264,19L10.333,15L10.401,20.5L10.469,22.5L10.538,30L10.606,32.5L10.675,28L10.743,29.5L10.812,32L10.88,33.5L10.949,35.5L11.017,35L11.085,35.5L11.154,32L11.222,30.5L11.291,28.5L11.359,33L11.428,37.5L11.496,43.5L11.565,45L11.633,39.5L11.701,39.5L11.77,42.5L11.838,48.5L11.907,54L11.975,58.5L12.044,60L12.112,58L12.181,52.5L12.249,54.5L12.317,57L12.386,59.5L12.454,54L12.523,51L12.66,50L12.728,48.5L12.797,50L12.865,50L12.933,51L13.002,52L13.07,48L13.139,47.5L13.207,47.5L13.276,53L13.344,54.5L13.413,58.5L13.481,54L13.55,51.5L13.618,46L13.686,47L13.755,50L13.823,52L13.892,52.5L13.96,51L14.097,49L14.166,48L14.234,47.5L14.302,52.5L14.371,57L14.439,57L14.508,55.5L14.576,54L14.645,58.5L14.713,61.5L14.782,62L14.85,63L14.918,62L14.987,62.5L15.055,62L15.124,66L15.192,63L15.261,65.5L15.329,66.5L15.398,64.5L15.466,63.5L15.534,62.5L15.603,67L15.671,69L15.74,73L15.808,71.5L15.877,71L15.945,70.5L16.014,71.5L16.082,73.5L16.15,74L16.219,75L16.287,73.5L16.356,71.5L16.493,71L16.561,74L16.63,75.5L16.698,74.5L16.766,73.5L16.835,75L17.04,73.5L17.109,73L17.177,77L17.246,77L17.314,77.5L17.451,75.5L17.519,84L17.588,84L17.656,84L17.725,86L17.793,86L17.862,86L17.93,86.5L17.999,88.5L18.067,90L18.135,91.5L18.204,94L18.272,95.5L18.341,96.5L18.409,98L18.478,100L18.546,101.5L18.615,103.5L18.683,105.5L18.751,106L18.82,104L18.888,105L18.957,106.5L19.025,110L19.094,109.5L19.162,110.5L19.367,112.5L19.436,112L19.573,112L19.641,112.5L19.71,113.5L19.778,112.5L19.847,112L19.915,114L19.983,114L20.052,115.5L20.12,116.5L20.189,115.5L20.257,115.5L20.326,115.5L20.463,117L20.531,117.5L20.599,117.5L20.668,117.5L20.736,117L20.805,117L20.873,117L20.942,117L21.01,118L21.079,119.5L21.147,121.5L21.287,121.5L21.355,124L21.424,123.5L21.492,124.5L21.561,126L21.766,126L21.903,126L21.971,126.5L22.04,124.5L22.108,126L22.177,127L22.245,127.5L22.45,127L22.656,127L22.724,127.5L22.793,127.5L22.861,128.5L22.93,128L22.998,128L23.135,127.5L23.272,127.5L23.34,127L23.409,127L23.751,127.5L23.956,127.5L24.162,127.5L24.298,129L24.367,129L24.778,129L24.914,129L25.257,124.5L25.394,124L25.804,124.5L26.078,124.5L26.146,124L26.215,123.5L26.557,124L26.626,124L26.694,125.5L26.762,125.5L26.899,125.5L27.036,125L27.173,125.5L27.242,125.5L27.379,125L27.515,124L27.584,124L28.063,123L28.131,123L28.2,123L28.268,122L28.337,122.5L28.542,121L28.611,121L28.679,120.5L28.816,120.5L28.884,118.5L28.953,118L29.021,115.5L29.158,113L29.227,117L29.295,116L29.363,115L29.432,114.5L29.5,114L29.569,109L29.637,108L29.706,105L30.182,103L30.456,102.5L30.661,100L30.866,99L30.935,97L31.003,91L31.072,88L31.414,87L31.482,87L31.551,85.5L31.619,85.5L31.688,79.5L31.756,76L31.825,74.5L31.962,72.5L32.03,64.5L32.098,64.5L32.167,65L32.235,62.5L32.304,59.5L32.372,58L32.441,55.5L32.509,52.5L32.578,53.5L32.646,52.5L32.714,49L32.783,47.5L32.851,48L32.92,48.5L32.988,50L33.057,51L33.125,49.5L33.194,52L33.262,51.5L33.33,51L33.399,54L33.467,56L33.536,55L33.604,53.5L33.673,55L33.741,53L33.81,58L33.878,54L33.946,51.5L34.015,53L34.083,60L34.152,55.5L34.22,51.5L34.289,55L34.357,51.5L34.426,52L34.494,56L34.563,58L34.631,55L34.699,54L34.768,57L34.836,57L34.905,59.5L34.973,59.5L35.042,59L35.11,57.5L35.179,59L35.247,57.5L35.315,52.5L35.384,54L35.452,57L35.521,55.5L35.589,58L35.658,57.5L35.726,55.5L35.795,53L35.863,53L35.931,61.5L36,62.5L36.068,60.5L36.137,55L36.205,56.5L36.274,58.5L36.342,59.5L36.411,65.5L36.479,66L36.547,64.5L36.616,64.5L36.684,62L36.753,59.5L36.821,59.5L36.89,61.5L36.958,59L37.027,57.5L37.095,55.5L37.163,56.5L37.232,54.5L37.3,54.5L37.369,61L37.437,59.5L37.574,57L37.643,58L37.711,54.5L37.779,53.5L37.848,56.5L37.916,58.5L37.985,56.5L38.053,55L38.122,56L38.19,56.5L38.259,60.5L38.327,63.5L38.396,64.5L38.464,61.5L38.532,60.5L38.601,59.5L38.669,57.5L38.738,57L38.806,62L38.875,67.5L38.943,66.5L39.012,66.5L39.08,64L39.148,60.5L39.217,62.5L39.285,64.5L39.354,67L39.422,66.5L39.491,64.5L39.559,65L39.628,64.5L39.696,65L39.764,68L39.833,69.5L39.901,69.5L39.97,70L40.038,71.5L40.107,71L40.175,72.5L40.244,75.5L40.312,77L40.38,75.5L40.449,74.5L40.517,77L40.586,75L40.654,77.5L40.723,79.5L40.791,77L40.86,75L40.928,75L40.996,76L41.065,76L41.133,83L41.202,87L41.27,86.5L41.339,85.5L41.407,78.5L41.476,80L41.544,82L41.612,84L41.681,85L41.749,84.5L41.818,83.5L41.886,83.5L41.955,81L42.023,80.5L42.092,79.5L42.16,81L42.297,81.5L42.365,79.5L42.434,79.5L42.502,81.5L42.571,83.5L42.639,84L42.708,86L42.845,85.5L42.913,87L42.981,91.5L43.05,94L43.118,90.5L43.187,89.5L43.255,87L43.324,87L43.392,89L43.461,91.5L43.529,88L43.597,95L43.666,94.5L43.734,94L43.803,93.5L43.871,95L43.94,96L44.008,97.5L44.077,98L44.213,100L44.282,102.5L44.35,105.5L44.419,104.5L44.556,104.5L44.624,106L44.693,107L44.761,106.5L44.829,106.5L44.898,106.5L44.966,108.5L45.035,109.5L45.103,110.5L45.172,110.5L45.24,111L45.309,114.5L45.445,116L45.514,118.5L45.582,119L45.651,119L45.719,119L45.788,123.5L45.856,123L45.925,124L45.993,125L46.13,125.5L46.201,126L46.338,126.5L46.407,127L46.475,128L46.543,129L46.612,129L46.68,128.5L46.749,130L46.817,130L47.023,131L47.159,131L47.228,131.5L47.639,131.5L47.775,131.5L47.912,131.5L48.118,132.5L48.186,132.5L48.255,132.5L48.323,132.5L49.144,132L49.281,132.5L49.487,130L49.76,130L49.829,129.5L50.103,129.5L50.24,129.5L50.308,129.5L50.513,129.5L50.719,129.5L51.129,129.5L51.472,129.5L51.608,129.5L51.677,129L51.745,128.5L51.882,127.5L51.951,127.5L52.088,128L52.156,124L52.225,124L52.361,124L52.43,124L52.498,124L52.772,123.5L53.183,123.5L53.32,123.5L53.388,123.5L53.593,123L53.73,123L53.867,122.5L53.936,122L54.141,122L54.209,125L54.415,124.5L54.483,122L54.552,122L54.62,121L54.689,121L54.823,120.5L54.891,120L54.96,119L55.028,116L55.096,116L55.165,116.5L55.302,116L55.37,113L55.439,109L55.507,107L55.576,109L55.712,107.5L55.781,106L55.849,103L56.123,100L56.192,98.5L56.26,94.5L56.465,93L56.602,89L56.739,89.5L56.944,86.5L57.013,80.5L57.15,71L57.218,65.5L57.287,63L57.355,58.5L57.424,56L57.492,50.5L57.56,42.5L57.697,41.5L57.766,37.5L57.834,36L57.903,33.5L57.971,36L58.04,29L58.176,25.5L58.245,22L58.313,25L58.382,26.5L58.45,26L58.519,20L58.587,18.5L58.656,14.5L58.724,14L58.792,11.5L58.861,13.5L58.929,15.5L58.998,13L59.066,16L59.135,12.5L59.203,11L59.272,14.5L59.34,23L59.409,25L59.545,22.5L59.614,23L59.682,23.5L59.751,23L59.819,31L59.888,30.5L59.956,34L60.025,32.5L60.093,32L60.161,29L60.23,30.5L60.298,32.5L60.367,36L60.435,36.5L60.504,35L60.572,34.5L60.641,41L60.709,40L60.777,42L60.846,45L60.914,49L60.983,46L61.051,44.5L61.12,41.5L61.188,37.5L61.257,38.5L61.325,41.5L61.393,42.5L61.462,37.5L61.53,37.5L61.599,37L61.667,38.5L61.736,42L61.804,48L61.873,38.5L61.941,34L62.009,32.5L62.078,33L62.146,32.5L62.215,32.5L62.283,38L62.352,39.5L62.42,34L62.489,31.5L62.557,30L62.625,31L62.694,29.5L62.762,33.5L62.831,33.5L62.899,26.5L62.968,26L63.036,28L63.105,29.5L63.173,31L63.242,34L63.31,34.5L63.378,29.5L63.447,29.5L63.515,34L63.584,37L63.652,40.5L63.721,43.5L63.789,44.5L63.858,42.5L63.926,49L63.994,53.5L64.063,54.5L64.131,55L64.2,59L64.268,62.5L64.337,56.5L64.405,54.5L64.474,58L64.542,58L64.61,63L64.679,60.5L64.747,62L64.816,61.5L64.884,60.5L64.953,64L65.021,64.5L65.09,63.5L65.158,57L65.226,61.5L65.295,61L65.363,62.5L65.432,64.5L65.5,63L65.569,64.5L65.637,63.5L65.706,63L65.774,62L65.842,61L65.911,62.5L65.979,63L66.048,64.5L66.116,63L66.185,63.5L66.253,63.5L66.322,54.5L66.39,61L66.458,63L66.527,65.5L66.595,68L66.664,68.5L66.732,70.5L66.801,69L66.869,67.5L66.938,70.5L67.006,72.5L67.074,72.5L67.143,73L67.28,79.5L67.348,80L67.417,80.5L67.485,79L67.554,82.5L67.622,86L67.691,87L67.759,87.5L67.827,88.5L67.896,89.5L67.964,89.5L68.033,89.5L68.101,92.5L68.17,93L68.238,95L68.307,95.5L68.375,94.5L68.443,103L68.512,102.5L68.58,102L68.649,101.5L68.717,100.5L68.786,99L68.854,99.5L68.923,102.5L68.991,104.5L69.059,104.5L69.128,106.5L69.196,108L69.265,109L69.333,111L69.402,111.5L69.47,113L69.539,113L69.607,113.5L69.675,113.5L69.744,113L69.812,113L69.881,114L69.949,114L70.018,115.5L70.086,116L70.155,115.5L70.223,115.5L70.291,116.5L70.36,118L70.428,119.5L70.497,120L70.634,120L70.702,120.5L70.839,121.5L70.907,123L70.976,124.5L71.044,126.5L71.116,126.5L71.184,126.5L71.253,127.5L71.321,127.5L71.389,127L71.458,127.5L71.526,127.5L71.595,127.5L71.663,128L71.732,129L71.869,129L72.005,128.5L72.074,129L72.142,130L72.553,130.5L72.69,130.5L72.758,130.5L72.827,130.5L72.964,131.5L73.101,131L73.169,131L73.238,131L73.306,131L73.58,131L73.648,131.5L73.717,131L73.854,131L73.99,131L74.127,131L74.196,130L74.264,128L74.606,128L74.675,128.5L74.743,127L75.222,127.5L75.291,127.5L75.359,127.5L75.428,127.5L75.633,127.5L75.702,128L75.838,128.5L76.044,128L76.112,128L76.454,127.5L76.591,126L76.934,126L77.002,126L77.207,126L77.276,126L77.344,126.5L77.55,126.5L77.687,126.5L77.892,126.5L77.96,126L78.097,126L78.303,125.5L78.508,124.5L78.713,124L78.782,123.5L78.987,124.5L79.124,125L79.192,124.5L79.261,121.5L79.398,121L79.466,121L79.535,121L79.671,118L79.737,115.5L79.942,112L80.011,110L80.285,109.5L80.49,109.5L80.558,108.5L80.695,107L80.764,106.5L80.832,105L80.901,102L81.174,102L81.243,101.5L81.311,99.5L81.448,97.5L81.517,95.5L81.585,94.5L81.654,93.5L81.722,92.5L81.79,93.5L81.859,92.5L81.927,91L81.996,89L82.133,88L82.201,87.5L82.27,86.5L82.338,88L82.475,89L82.543,86.5L82.612,84.5L82.68,87L82.749,88L82.817,90L82.886,91L82.954,90.5L83.022,88L83.091,85L83.159,83.5L83.228,82.5L83.296,82.5L83.365,83L83.502,81L83.57,79.5L83.638,80L83.707,80L83.775,80L83.844,81L83.912,82.5L83.981,80L84.049,74L84.118,74.5L84.186,75L84.255,75.5L84.323,76L84.391,77.5L84.46,76.5L84.528,76L84.597,75L84.665,76L84.734,76.5L84.802,75.5L84.871,77L84.939,74L85.007,73.5L85.076,71L85.144,71.5L85.213,73L85.281,76L85.35,78.5L85.418,78L85.487,78L85.555,78.5L85.623,78L85.692,78L85.76,78L85.829,79.5L85.897,79L85.966,77.5L86.034,80.5L86.103,86.5L86.171,84L86.239,83.5L86.308,85L86.376,84L86.445,84.5L86.513,84.5L86.582,85L86.65,85L86.719,85L86.787,84L86.855,84L86.924,81.5L86.992,80L87.061,80L87.129,82L87.198,84L87.335,85.5L87.403,84.5L87.471,85L87.54,85.5L87.677,86L87.814,84.5L87.882,83.5L87.951,83.5L88.019,84L88.087,83.5L88.156,81.5L88.224,77.5L88.293,76.5L88.361,75L88.43,78L88.498,75.5L88.567,72L88.635,73L88.84,69L88.909,69.5L88.977,68.5L89.046,69L89.114,70L89.183,71.5L89.251,68.5L89.32,69.5L89.388,74L89.456,73.5L89.525,74.5L89.593,73L89.662,73.5L89.73,74L89.799,70.5L89.867,70.5L89.936,69L90.004,69L90.072,72L90.141,73L90.209,74.5L90.278,72L90.346,70.5L90.415,71.5L90.483,70.5L90.552,71.5L90.62,70L90.688,74L90.757,75L90.825,74L90.894,76.5L90.962,77.5L91.031,77.5L91.099,78.5L91.168,78L91.236,78L91.304,81.5L91.373,83L91.441,84L91.51,86.5L91.578,87L91.647,89.5L91.715,90L91.784,90L91.852,93.5L91.92,95L91.989,98L92.057,100L92.126,100L92.194,99L92.263,99L92.331,102.5L92.4,106.5L92.468,110.5L92.537,113L92.673,111L92.742,113L92.81,113.5L92.879,115L92.947,114.5L93.016,116L93.153,117L93.221,119L93.289,119L93.358,120L93.426,119.5L93.495,120L93.563,119L93.632,118.5L93.7,118L93.769,117.5L93.837,117.5L93.905,117.5L93.974,118.5L94.042,117.5L94.111,117.5L94.179,118L94.248,119L94.385,119L94.453,120L94.521,119.5L94.59,119L94.658,116.5L94.727,117L94.795,117L94.864,119.5L95.001,120L95.069,120L95.137,121.5L95.206,123.5L95.343,123.5L95.48,123.5L95.548,124L95.617,124.5L95.685,124.5L95.753,125.5L95.822,126L96.03,127L96.099,128L96.167,126L96.235,126.5L96.304,126L96.372,125.5L96.509,125.5L96.578,126.5L96.646,125.5L96.715,125.5L96.783,125.5L96.92,126L96.988,126.5L97.057,127L97.125,127.5L97.194,130L97.262,130L97.604,129L98.015,129L98.494,128.5L98.631,128.5L98.768,128.5L98.836,128.5L98.973,128.5L99.042,128.5L99.11,128.5L99.247,128.5L99.316,128.5L99.384,129L99.589,128L99.726,128L100.137,127L100.274,129L100.479,129L100.548,129.5L100.616,129.5L101.027,129.5L101.095,129.5L101.369,130L101.643,130L101.711,130L101.78,130L101.848,130L101.985,130L102.259,130L102.396,129.5L102.533,129L102.601,129.5L102.669,129L102.806,129.5L103.08,128L103.149,128L103.217,128L103.354,127L103.901,127L103.97,127L104.107,126.5L104.312,126.5L104.381,124L104.651,123L104.72,123L104.788,123L104.857,123L104.925,123L105.062,121.5L105.199,121L105.268,120.5L105.404,118.5L105.815,118L105.884,116.5L106.294,116.5L106.5,116L106.773,115L107.047,114L107.116,112L107.252,111L107.321,111.5L107.526,112L107.595,112L107.663,111L107.732,112L107.937,110.5L108.005,109L108.074,108.5L108.142,108.5L108.279,107.5L108.348,107L108.484,105.5L108.553,106.5L108.621,107.5L108.758,107L108.895,104.5L108.964,103.5L109.032,102L109.101,103L109.169,103L109.237,102.5L109.306,104L109.374,104L109.443,104.5L109.511,103L109.58,102.5L109.648,101.5L109.717,102.5L109.785,104.5L109.853,105.5L109.922,105.5L109.99,102L110.059,100.5L110.127,101.5L110.196,101.5L110.264,102.5L110.333,100L110.401,100.5L110.469,100.5L110.538,100.5L110.606,101.5L110.675,103L110.743,100L110.812,100.5L110.88,99.5L110.949,102L111.017,102.5L111.085,103.5L111.154,103.5L111.222,103L111.291,104L111.359,104.5L111.428,105L111.496,103.5L111.565,105L111.633,105.5L111.77,106.5L111.838,106.5L111.907,106L111.975,105L112.044,105L112.112,107.5L112.181,109.5L112.249,109.5L112.317,109.5L112.386,109.5L112.454,112.5L112.523,112L112.591,112L112.66,113L112.728,111L112.797,106.5L112.865,105.5L112.933,103L113.002,103.5L113.07,103.5L113.139,102L113.207,99.5L113.276,99L113.344,100L113.413,99L113.481,96.5L113.55,96.5L113.618,97.5L113.686,95.5L113.755,95.5L113.823,96L113.892,96L113.96,96.5L114.029,95.5L114.097,94.5L114.166,95.5L114.234,95.5L114.302,93.5L114.371,93.5L114.439,93L114.508,92.5L114.576,92L114.645,91L114.713,90L114.782,92L114.85,95L114.918,100.5L114.987,103.5L115.055,103.5L115.124,103.5L115.192,106L115.261,107L115.329,107L115.398,107.5L115.466,107.5L115.603,110L115.671,108L115.74,109.5L115.808,110L115.877,110L115.945,110.5L116.082,110.5L116.15,109L116.219,110L116.287,110L116.356,109.5L116.424,108.5L116.493,110L116.63,109.5L116.698,110.5L116.766,112L116.835,114L116.903,115L116.972,116L117.04,116L117.109,117L117.177,116L117.246,116L117.383,117L117.451,118L117.519,117.5L117.588,119L117.656,120L117.725,120L117.793,120L117.862,120L117.93,122.5L118.067,122L118.204,122L118.272,122.5L118.341,122.5L118.409,122.5L118.478,124L118.615,125.5L118.683,126L118.751,126.5L118.82,127.5L118.888,127.5L118.957,128.5L119.025,128.5L119.094,128.5L119.162,128.5L119.231,128.5L119.299,128.5L119.436,128.5L119.504,129L119.71,130L119.847,129.5L119.915,129.5L119.983,128L120.052,128.5L120.189,129L120.257,128.5L120.326,128.5L120.463,129L120.531,129L120.599,129L120.668,129.5L120.736,130.5L121.013,130L121.081,130L121.15,129.5L121.287,129L121.492,127.5L121.561,127.5L121.629,127.5L121.697,127L121.903,127.5L121.971,127.5L122.108,127.5L122.245,127.5L122.382,127.5L122.587,127.5L122.998,127L123.066,127L123.135,127L123.477,126.5L123.888,127L123.956,127L124.298,128.5L124.641,128.5L124.846,128L125.257,128L125.394,128L125.462,128.5L125.53,128L125.736,128L126.352,128L126.42,128.5L126.489,128L126.557,128L126.762,128.5L127.31,128.5L127.447,129L128.2,129.5L128.816,127.5L129.158,128L129.227,127.5L129.637,127.5L129.843,127.5L129.979,125.5L130.114,125.5L130.182,123.5L130.456,123.5L130.593,123.5L130.661,122.5L130.73,121.5L130.798,121.5L130.866,120L131.003,120L131.14,117.5L131.277,116L131.346,115L131.551,114.5L131.619,113L131.756,113L131.893,111L131.962,110L132.03,109L132.098,108.5L132.167,107.5L132.235,105L132.372,104L132.441,104.5L132.578,103.5L132.646,105.5L132.714,104L132.783,104.5L132.92,104.5L132.988,103.5L133.057,105.5L133.125,105.5L133.194,107L133.33,98L133.399,94L133.467,94L133.536,95L133.604,94L133.673,92.5L133.878,91.5L134.015,94L134.083,94.5L134.152,95.5L134.22,93.5L134.357,94.5L134.426,94L134.494,94L134.563,94L134.631,94.5L134.699,94.5L134.836,95L134.905,96.5L134.973,97L135.042,97L135.179,97.5L135.384,97.5L135.452,99L135.521,96.5L135.589,95.5L135.658,94L135.726,92L135.795,91.5L135.863,92L135.931,100.5L136,101.5L136.068,102.5L136.205,103L136.274,102L136.342,104.5L136.411,104L136.479,102L136.684,103.5L136.753,103.5L136.821,104.5L136.89,105L136.958,105L137.027,107L137.095,106.5L137.232,105L137.3,106.5L137.369,105.5L137.437,106.5L137.506,106L137.574,104.5L137.643,104.5L137.711,104L137.779,104L137.848,106.5L137.916,106.5L137.985,109L138.122,110L138.19,110.5L138.259,110.5L138.327,110.5L138.396,113.5L138.464,113L138.601,112.5L138.669,113.5L138.738,113.5L138.806,114L138.875,114.5L138.943,114.5L139.012,114L139.08,115.5L139.148,115L139.217,115L139.285,114.5L139.354,116L139.491,117.5L139.628,117.5L139.696,119L139.764,118.5L139.833,118L139.901,120L140.107,118L140.175,118L140.244,118L140.312,117L140.38,115L140.449,114L140.517,114L140.586,114L140.654,114L140.791,115L140.86,114.5L140.928,115L140.996,113.5L141.065,114L141.133,114.5L141.202,115L141.27,116.5L141.339,116L141.407,117L141.476,117L141.544,117.5L141.749,117.5L141.818,118L141.886,118L141.955,118L142.023,117.5L142.092,117.5L142.16,118L142.228,119.5L142.297,118.5L142.365,121L142.434,121.5L142.502,121.5L142.571,122L142.708,123.5L142.776,123L142.845,124L142.913,123L142.981,123L143.05,123L143.187,122.5L143.255,122.5L143.324,124L143.392,124.5L143.461,124L143.529,123.5L143.597,123.5L143.666,121.5L143.803,121L143.871,121L143.94,121L144.008,121.5L144.145,121L144.213,121L144.282,121.5L144.419,121.5L144.487,121.5L144.624,121.5L144.693,122L144.898,123L144.966,123L145.035,122.5L145.103,122.5L145.172,122L145.514,123L145.582,124.5L145.651,124.5L145.719,125.5L145.788,125.5L146.13,123.5L146.267,123.5L146.407,123.5L146.475,124L146.543,124L146.612,123.5L146.68,124.5L146.954,124.5L147.023,127L147.091,126.5L147.57,126.5L147.844,126.5L148.323,126.5L148.665,127L148.734,127L148.871,127L148.939,127L149.008,127L149.281,127L149.35,126L149.418,126L149.487,126L149.555,126L149.76,126L150.103,126.5L150.24,126L150.65,126L150.719,126L150.924,126L151.129,126L151.198,128L151.266,129L151.335,128.5L151.608,128.5L151.677,128.5L151.814,129.5L152.156,129L152.293,128.5L152.567,126L152.635,126.5L152.772,125.5L152.841,125L153.046,125.5L153.114,125L153.251,125L153.32,124L153.457,123.5L154.415,123.5L154.483,123.5L154.62,124L154.689,124L154.825,123.5L154.894,123L155.028,122.5L155.096,121L155.37,122L155.439,122L155.507,119.5L155.849,117.5L155.986,116.5L156.055,116.5L156.123,116L156.534,116L156.602,115.5L156.671,115.5L156.808,115.5L156.876,114.5L156.944,112L157.15,114L157.355,113L157.424,114L157.492,113.5L157.629,113L157.697,112.5L157.903,110.5L157.971,111.5L158.04,111L158.108,110L158.176,108.5L158.245,107.5L158.313,107L158.382,107L158.45,105L158.519,104.5L158.587,106L158.724,104L158.792,103.5L158.861,105L158.929,107L158.998,107L159.066,106L159.203,106.5L159.272,104.5L159.34,105L159.409,105L159.477,104L159.545,105L159.614,108L159.682,106.5L159.751,106.5L159.819,106L159.888,104.5L159.956,103.5L160.025,101.5L160.093,103L160.161,103L160.298,103L160.367,103L160.504,104L160.572,105.5L160.641,103.5L160.709,103.5L160.777,106.5L160.846,106.5L160.914,106.5L160.983,106L161.051,103L161.12,103.5L161.188,102L161.257,103L161.325,103.5L161.462,103.5L161.53,104L161.667,103L161.736,102.5L161.804,101.5L161.873,101L161.941,101L162.009,101L162.078,102L162.146,101.5L162.215,101.5L162.283,103L162.352,105L162.42,103.5L162.489,103L162.625,103.5L162.694,104.5L162.762,105L162.831,104L162.899,103.5L162.968,100.5L163.036,100.5L163.105,98.5L163.173,95.5L163.242,93L163.31,95.5L163.378,95.5L163.447,96.5L163.515,96.5L163.584,96L163.652,94L163.721,95.5L163.789,96.5L163.858,96.5L163.926,98L163.994,98.5L164.063,98L164.131,100L164.2,99L164.268,100L164.337,101L164.474,100.5L164.542,100.5L164.61,102.5L164.679,101.5L164.816,101.5L165.09,101.5L165.158,100.5L165.226,100.5L165.295,103L165.363,106L165.432,105L165.5,107.5L165.569,111L165.637,115.5L165.706,116L165.774,115L165.911,115.5L165.979,115L166.048,116L166.116,118L166.185,118.5L166.253,117.5L166.322,118L166.39,118L166.458,117.5L166.527,118L166.595,117.5L166.664,119L166.732,118.5L166.801,120L166.869,120.5L166.938,121.5L167.006,121L167.074,122L167.143,123L167.211,122.5L167.28,123L167.348,124L167.417,124.5L167.485,125L167.622,126L167.691,126L167.896,126L167.964,125L168.101,125L168.17,125.5L168.238,125L168.375,125.5L168.512,125L168.58,125L168.649,125L168.717,126L168.854,125L168.923,125.5L168.991,126.5L169.059,126.5L169.196,125.5L169.333,125.5L169.402,125.5L169.539,125.5L169.607,125L169.744,125L169.812,125.5L169.881,126L169.949,125.5L170.018,126L170.223,126L170.291,126L170.36,126L170.428,126L170.497,124.5L170.634,124.5L170.771,124.5L170.907,126L170.976,126.5L171.044,127.5L171.458,128L171.663,128L171.8,128L172.074,128L172.69,127.5L172.827,127.5L172.964,128L173.032,128L173.101,128L173.169,128L173.238,129.5L173.306,129.5L173.443,130L173.648,129.5L173.922,130L174.333,130L174.401,123L174.675,122.5L175.154,123L175.359,123L175.428,123.5L175.702,123L175.77,123L175.838,123L176.112,124L176.454,124.5L176.523,124.5L176.66,123L177.002,123L177.07,123L177.55,122L177.755,120.5L178.097,120.5L178.166,119.5L178.576,119L178.645,117.5L178.713,114.5L178.919,113L179.192,112L179.261,112L179.603,111L179.671,111L180.079,111L180.148,110L180.422,108.5L180.49,107L180.558,113.5L180.832,113L180.901,113L180.969,109L181.038,107L181.106,106L181.174,105L181.243,105L181.311,103L181.38,102L181.517,95L181.585,95L181.79,93L181.859,91.5L181.927,91.5L181.996,91L182.064,91L182.133,89L182.201,86.5L182.27,85L182.338,85.5L182.406,85L182.475,86L182.543,83L182.612,81.5L182.68,79L182.749,76L182.817,77L182.886,77.5L182.954,78.5L183.022,77L183.091,76L183.228,75.5L183.296,78.5L183.365,80.5L183.433,81.5L183.502,82L183.57,81.5L183.638,83L183.707,83L183.775,89.5L183.844,89.5L183.912,89.5L183.981,90.5L184.049,90L184.118,91L184.186,90.5L184.255,92.5L184.323,94L184.391,96.5L184.46,98.5L184.528,100L184.597,99L184.665,102L184.734,103.5L184.802,102.5L184.871,102.5L184.939,102.5L185.007,102.5L185.076,103L185.144,104L185.213,104.5L185.281,104L185.35,104.5L185.418,104L185.487,103L185.555,101.5L185.623,100.5L185.692,100.5L185.76,100.5L185.829,99.5L185.897,100.5L185.966,98.5L186.034,97L186.103,96L186.171,95.5L186.239,91L186.308,90.5L186.376,92.5L186.445,89.5L186.513,88L186.582,88L186.65,88.5L186.719,88L186.787,88.5L186.855,90.5L186.924,92L186.992,92L187.061,92L187.129,90.5L187.198,91.5L187.266,92L187.335,91.5L187.403,92L187.471,87.5L187.54,88.5L187.608,88.5L187.677,88.5L187.745,88L187.814,88L187.882,89L187.951,87.5L188.019,91.5L188.087,92L188.156,94L188.224,95.5L188.293,99L188.361,99.5L188.498,97L188.567,98.5L188.635,98L188.704,95.5L188.84,94L188.909,93.5L188.977,94L189.046,94L189.114,94.5L189.183,94.5L189.251,93.5L189.32,95L189.388,94.5L189.456,95L189.525,96L189.593,95.5L189.662,96.5L189.73,96L189.799,96L189.867,96.5L189.936,98L190.004,98L190.072,97.5L190.141,97.5L190.209,97L190.278,97L190.346,96.5L190.415,96.5L190.483,98.5L190.552,99L190.62,99L190.688,100L190.825,102.5L190.894,105L190.962,105.5L191.031,104.5L191.099,104L191.168,105.5L191.236,106.5L191.373,106.5L191.441,108L191.51,108L191.578,107.5L191.647,108L191.852,108.5L191.92,107.5L191.989,111L192.057,112L192.126,111L192.194,111.5L192.331,111.5L192.4,112.5L192.468,113L192.537,115L192.605,114.5L192.673,115.5L192.742,116L192.81,114.5L192.879,114.5L192.947,115L193.016,117.5L193.153,118.5L193.221,118.5L193.289,118.5L193.358,120L193.426,122L193.563,122L193.7,122L193.769,121.5L193.837,122L193.905,122.5L193.974,122.5L194.042,123L194.179,123L194.248,122.5L194.385,124L194.453,124.5L194.727,124.5L194.795,127.5L194.864,127.5L195.001,127L195.069,127L195.206,127.5L195.274,127L195.343,128L195.411,127.5L195.48,128L195.548,128.5L195.617,128.5L195.685,128.5L195.753,128.5L195.822,127.5L195.89,128L195.959,128.5L196.027,126.5L196.167,126.5L196.235,127L196.372,127L196.441,127.5L196.783,127.5L196.851,127.5L196.92,127.5L196.988,128L197.125,128L197.262,128.5L197.467,128.5L197.878,128.5L197.947,128.5L198.289,128.5L198.563,129L198.631,129.5L198.7,129" stroke="#4c78a8" stroke-width="2"/></g><g class="mark-group role-title"><g transform="translate(100,-22)"><path class="background" aria-hidden="true" d="M0,0h0v0h0Z" pointer-events="none"/><g><g class="mark-text role-title-text" role="graphics-symbol" aria-roledescription="title" aria-label="Title text 'Dead/Dying Tree: Planted Less Than 2 Years Ago'" pointer-events="none"><text text-anchor="middle" transform="translate(0,10)" font-family="sans-serif" font-size="13px" font-weight="bold" fill="#000" opacity="1">Dead/Dying Tree: Planted Less Than 2 Years Ago</text></g></g><path class="foreground" aria-hidden="true" d="" pointer-events="none" display="none"/></g></g></g><path class="foreground" aria-hidden="true" d="" display="none"/></g></g></g><defs><clipPath id="clip165"><rect x="0" y="0" width="200" height="150"/></clipPath></defs></svg>