<svg xmlns="http://www.w3.org/2000/svg" xmlns:xlink="http://www.w3.org/1999/xlink" version="1.1" class="marks" width="330" height="194" viewBox="0 0 330 194"><rect width="330" height="194" fill="white"/><g fill="none" stroke-miterlimit="10" transform="translate(65,22)"><g class="mark-group role-frame root" role="graphics-object" aria-roledescription="group mark container"><g transform="translate(0,0)"><path class="background" aria-hidden="true" d="M0,0h200v150h-200Z"/><g><g class="mark-group role-axis" aria-hidden="true"><g transform="translate(0.5,0.5)"><path class="background" aria-hidden="true" d="M0,0h0v0h0Z" pointer-events="none"/><g><g class="mark-rule role-axis-grid" pointer-events="none"><line transform="translate(0,150)" x2="200" y2="0" stroke="#ddd" stroke-width="1" opacity="1"/><line transform="translate(0,123)" x2="200" y2="0" stroke="#ddd" stroke-width="1" opacity="1"/><line transform="translate(0,96)" x2="200" y2="0" stroke="#ddd" stroke-width="1" opacity="1"/><line transform="translate(0,70)" x2="200" y2="0" stroke="#ddd" stroke-width="1" opacity="1"/><line transform="translate(0,43)" x2="200" y2="0" stroke="#ddd" stroke-width="1" opacity="1"/><line transform="translate(0,16)" x2="200" y2="0" stroke="#ddd" stroke-width="1" opacity="1"/></g></g><path class="foreground" aria-hidden="true" d="" pointer-events="none" display="none"/></g></g><g class="mark-group role-axis" role="graphics-symbol" aria-roledescription="axis" aria-label="X-axis for a time scale with values from Friday, 01 January 2016, 12:00:00 AM to Monday, 01 January 2024, 12:00:00 AM"><g transform="translate(0.5,150.5)"><path class="background" aria-hidden="true" d="M0,0h0v0h0Z" pointer-events="none"/><g><g class="mark-rule role-axis-tick" pointer-events="none"><line transform="translate(0,0)" x2="0" y2="5" stroke="#888" stroke-width="1" opacity="1"/><line transform="translate(50,0)" x2="0" y2="5" stroke="#888" stroke-width="1" opacity="1"/><line transform="translate(100,0)" x2="0" y2="5" stroke="#888" stroke-width="1" opacity="1"/><line transform="translate(150,0)" x2="0" y2="5" stroke="#888" stroke-width="1" opacity="1"/><line transform="translate(200,0)" x2="0" y2="5" stroke="#888" stroke-width="1" opacity="1"/></g><g class="mark-text role-axis-label" pointer-events="none"><text text-anchor="start" transform="translate(0,15)" font-family="sans-serif" font-size="10px" fill="#000" opacity="1">2016</text><text text-anchor="middle" transform="translate(50.03422313483915,15)" font-family="sans-serif" font-size="10px" fill="#000" opacity="1">2018</text><text text-anchor="middle" transform="translate(100,15)" font-family="sans-serif" font-size="10px" fill="#000" opacity="1">2020</text><text text-anchor="middle" transform="translate(150.03422313483915,15)" font-family="sans-serif" font-size="10px" fill="#000" opacity="1">2022</text><text text-anchor="end" transform="translate(200,15)" font-family="sans-serif" font-size="10px" fill="#000" opacity="1">2024</text></g><g class="mark-rule role-axis-domain" pointer-events="none"><line transform="translate(0,0)" x2="200" y2="0" stroke="#888" stroke-width="1" opacity="1"/></g></g><path class="foreground" aria-hidden="true" d="" pointer-events="none" display="none"/></g></g><g class="mark-group role-axis" role="graphics-symbol" aria-roledescription="axis" aria-label="Y-axis for a linear scale with values from 0.0 to 2.8"><g transform="translate(0.5,0.5)"><path class="background" aria-hidden="true" d="M0,0h0v0h0Z" pointer-events="none"/><g><g class="mark-rule role-axis-tick" pointer-events="none"><line transform="translate(0,150)" x2="-5" y2="0" stroke="#888" stroke-opacity="0" stroke-width="1" opacity="1"/><line transform="translate(0,123)" x2="-5" y2="0" stroke="#888" stroke-opacity="0" stroke-width="1" opacity="1"/><line transform="translate(0,96)" x2="-5" y2="0" stroke="#888" stroke-opacity="0" stroke-width="1" opacity="1"/><line transform="translate(0,70)" x2="-5" y2="0" stroke="#888" stroke-opacity="0" stroke-width="1" opacity="1"/><line transform="translate(0,43)" x2="-5" y2="0" stroke="#888" stroke-opacity="0" stroke-width="1" opacity="1"/><line transform="translate(0,16)" x2="-5" y2="0" stroke="#888" stroke-opacity="0" stroke-width="1" opacity="1"/></g><g class="mark-text role-axis-label" pointer-events="none"><text text-anchor="end" transform="translate(-7,153)" font-family="sans-serif" font-size="10px" fill="#000" opacity="1">0.0</text><text text-anchor="end" transform="translate(-7,126.21428571428571)" font-family="sans-serif" font-size="10px" fill="#000" opacity="1">0.5</text><text text-anchor="end" transform="translate(-7,99.42857142857142)" font-family="sans-serif" font-size="10px" fill="#000" opacity="1">1.0</text><text text-anchor="end" transform="translate(-7,72.64285714285714)" font-family="sans-serif" font-size="10px" fill="#000" opacity="1">1.5</text><text text-anchor="end" transform="translate(-7,45.857142857142854)" font-family="sans-serif" font-size="10px" fill="#000" opacity="1">2.0</text><text text-anchor="end" transform="translate(-7,19.071428571428566)" font-family="sans-serif" font-size="10px" fill="#000" opacity="1">2.5</text></g></g><path class="foreground" aria-hidden="true" d="" pointer-events="none" display="none"/></g></g><g class="mark-line role-mark marks" clip-path="url(#clip166)" role="graphics-object" aria-roledescription="line mark container"><path aria-label="day: Jan 04, 2010; avg: 2.2" role="graphics-symbol" aria-roledescription="line mark" d="M-149.76,32.143L-149.692,33.929L-149.624,33.929L-149.555,32.143L-149.487,30.357L-149.418,30.357L-149.35,30.357L-149.281,32.143L-149.213,37.5L-149.144,39.286L-149.008,42.857L-148.802,44.643L-148.734,42.857L-148.528,41.071L-148.46,39.286L-148.392,39.286L-148.323,39.286L-148.255,35.714L-148.186,39.286L-148.049,37.5L-147.912,44.643L-147.844,46.429L-147.775,42.857L-147.707,37.5L-147.639,35.714L-147.57,32.143L-147.502,35.714L-147.365,33.929L-147.296,33.929L-147.228,37.5L-147.159,37.5L-147.091,37.5L-146.954,39.286L-146.886,28.571L-146.817,28.571L-146.749,25L-146.68,28.571L-146.612,32.143L-146.407,32.143L-146.338,32.143L-146.27,32.143L-146.201,32.143L-146.133,32.143L-146.064,33.929L-145.996,35.714L-145.927,33.929L-145.791,33.929L-145.722,37.5L-145.585,35.714L-145.448,39.286L-145.311,39.286L-145.243,35.714L-145.175,37.5L-144.972,41.071L-144.904,42.857L-144.835,46.429L-144.63,41.071L-144.561,42.857L-144.493,42.857L-144.424,41.071L-144.356,35.714L-144.288,32.143L-144.219,33.929L-144.082,46.429L-144.014,44.643L-143.945,44.643L-143.877,44.643L-143.808,41.071L-143.74,39.286L-143.672,37.5L-143.535,39.286L-143.466,41.071L-143.398,39.286L-143.329,37.5L-143.261,37.5L-143.192,41.071L-143.124,39.286L-143.056,39.286L-142.987,41.071L-142.919,35.714L-142.85,33.929L-142.508,30.357L-142.371,28.571L-142.303,32.143L-142.234,33.929L-142.097,33.929L-142.029,39.286L-141.96,41.071L-141.892,39.286L-141.824,39.286L-141.755,44.643L-141.687,48.214L-141.618,46.429L-141.55,46.429L-141.481,44.643L-141.413,42.857L-141.344,42.857L-141.276,46.429L-141.139,42.857L-141.071,44.643L-141.002,41.071L-140.865,41.071L-140.728,44.643L-140.591,44.643L-140.455,42.857L-140.386,37.5L-140.318,35.714L-140.249,35.714L-140.181,35.714L-140.112,41.071L-140.044,42.857L-139.975,46.429L-139.907,48.214L-139.839,48.214L-139.633,48.214L-139.565,46.429L-139.359,46.429L-139.086,48.214L-139.017,44.643L-138.949,42.857L-138.88,42.857L-138.812,39.286L-138.743,39.286L-138.675,41.071L-138.607,46.429L-138.538,46.429L-138.401,39.286L-138.264,39.286L-138.196,44.643L-138.059,44.643L-137.991,48.214L-137.922,42.857L-137.785,39.286L-137.717,37.5L-137.58,37.5L-137.511,37.5L-137.443,39.286L-137.375,39.286L-137.238,39.286L-137.169,39.286L-137.101,37.5L-137.032,41.071L-136.964,42.857L-136.895,42.857L-136.758,42.857L-136.69,44.643L-136.553,42.857L-136.416,42.857L-136.348,46.429L-136.142,48.214L-136.074,46.429L-136.006,46.429L-135.869,46.429L-135.8,44.643L-135.732,44.643L-135.595,50L-135.526,57.143L-135.458,55.357L-135.39,51.786L-135.321,51.786L-135.253,51.786L-135.184,57.143L-134.91,60.714L-134.842,60.714L-134.774,57.143L-134.637,60.714L-134.568,55.357L-134.5,51.786L-134.431,50L-134.363,50L-134.294,51.786L-134.226,51.786L-134.158,50L-134.089,44.643L-134.021,41.071L-133.747,39.286L-133.678,41.071L-133.61,39.286L-133.473,41.071L-133.405,41.071L-133.336,42.857L-133.268,44.643L-133.199,42.857L-133.062,44.643L-132.994,44.643L-132.857,42.857L-132.72,41.071L-132.652,33.929L-132.515,37.5L-132.446,35.714L-132.309,26.786L-132.241,25L-132.104,25L-131.967,28.571L-131.899,32.143L-131.83,32.143L-131.762,39.286L-131.693,42.857L-131.625,37.5L-131.488,39.286L-131.42,39.286L-131.351,39.286L-131.077,41.071L-131.009,46.429L-130.941,50L-130.872,51.786L-130.804,51.786L-130.735,51.786L-130.667,50L-130.598,51.786L-130.393,51.786L-130.325,51.786L-130.119,51.786L-130.051,50L-129.982,50L-129.914,51.786L-129.845,50L-129.64,55.357L-129.572,50L-129.503,50L-129.435,58.929L-129.366,60.714L-129.161,55.357L-129.093,55.357L-129.024,53.571L-128.956,48.214L-128.75,48.214L-128.611,48.214L-128.474,55.357L-128.405,55.357L-128.337,55.357L-128.268,55.357L-128.2,55.357L-128.063,53.571L-127.995,50L-127.926,50L-127.858,46.429L-127.584,48.214L-127.379,46.429L-127.31,46.429L-127.173,41.071L-127.105,42.857L-126.968,44.643L-126.899,44.643L-126.831,44.643L-126.762,44.643L-126.694,48.214L-126.626,51.786L-126.557,57.143L-126.489,55.357L-126.352,55.357L-126.283,55.357L-126.215,60.714L-126.078,58.929L-126.01,60.714L-125.873,67.857L-125.804,67.857L-125.599,66.071L-125.325,66.071L-125.257,64.286L-125.12,64.286L-125.051,62.5L-124.983,57.143L-124.846,53.571L-124.778,55.357L-124.641,55.357L-124.572,58.929L-124.504,55.357L-124.367,58.929L-124.298,58.929L-124.23,64.286L-124.162,62.5L-124.093,58.929L-123.819,58.929L-123.682,58.929L-123.614,58.929L-123.546,58.929L-123.477,57.143L-123.409,55.357L-123.272,57.143L-123.203,57.143L-123.135,57.143L-123.066,57.143L-122.998,55.357L-122.93,57.143L-122.724,57.143L-122.656,55.357L-122.587,53.571L-122.519,51.786L-122.382,51.786L-122.313,51.786L-122.245,53.571L-122.177,58.929L-122.108,60.714L-122.04,62.5L-121.903,62.5L-121.834,62.5L-121.561,62.5L-121.287,62.5L-121.218,62.5L-121.013,62.5L-120.945,62.5L-120.876,62.5L-120.671,62.5L-120.602,60.714L-120.465,58.929L-120.397,55.357L-120.26,57.143L-120.192,58.929L-120.058,60.714L-119.989,58.929L-119.852,58.929L-119.784,57.143L-119.715,57.143L-119.578,57.143L-119.51,51.786L-119.373,51.786L-119.305,55.357L-119.168,57.143L-119.099,57.143L-119.031,57.143L-118.962,57.143L-118.894,57.143L-118.826,58.929L-118.689,58.929L-118.552,57.143L-118.483,53.571L-118.415,57.143L-118.278,51.786L-118.21,50L-118.141,50L-118.073,51.786L-118.004,55.357L-117.936,55.357L-117.867,57.143L-117.662,58.929L-117.594,60.714L-117.525,58.929L-117.457,57.143L-117.388,57.143L-117.32,57.143L-117.183,57.143L-117.114,58.929L-117.046,62.5L-116.978,62.5L-116.909,66.071L-116.841,64.286L-116.635,62.5L-116.498,60.714L-116.43,62.5L-116.362,60.714L-116.293,60.714L-116.225,58.929L-116.156,58.929L-116.019,57.143L-115.951,53.571L-115.882,57.143L-115.745,57.143L-115.609,57.143L-115.54,57.143L-115.403,57.143L-115.266,55.357L-115.198,57.143L-115.129,53.571L-115.061,51.786L-114.924,50L-114.856,51.786L-114.787,51.786L-114.65,53.571L-114.582,53.571L-114.513,53.571L-114.445,53.571L-114.377,51.786L-114.24,50L-114.171,48.214L-114.103,44.643L-114.034,48.214L-113.966,48.214L-113.897,48.214L-113.829,48.214L-113.692,50L-113.624,50L-113.555,51.786L-113.418,53.571L-113.35,53.571L-113.281,57.143L-113.213,55.357L-113.145,55.357L-113.076,58.929L-113.008,60.714L-112.871,55.357L-112.802,53.571L-112.734,53.571L-112.597,58.929L-112.529,57.143L-112.46,55.357L-112.323,55.357L-112.255,55.357L-112.186,55.357L-112.118,53.571L-111.981,51.786L-111.913,48.214L-111.844,48.214L-111.776,48.214L-111.707,50L-111.639,55.357L-111.57,53.571L-111.433,53.571L-111.365,55.357L-111.296,55.357L-111.228,55.357L-111.091,55.357L-111.023,53.571L-110.954,53.571L-110.886,55.357L-110.749,57.143L-110.68,57.143L-110.475,57.143L-110.407,57.143L-110.27,57.143L-110.201,60.714L-110.064,60.714L-109.928,60.714L-109.859,58.929L-109.791,62.5L-109.722,66.071L-109.654,64.286L-109.585,66.071L-109.517,66.071L-109.448,66.071L-109.38,69.643L-109.312,73.214L-109.243,75L-109.175,76.786L-109.038,76.786L-108.969,75L-108.901,69.643L-108.832,67.857L-108.696,67.857L-108.422,67.857L-108.08,67.857L-108.011,67.857L-107.943,64.286L-107.737,60.714L-107.669,58.929L-107.6,58.929L-107.532,60.714L-107.395,58.929L-107.327,58.929L-107.258,57.143L-107.121,58.929L-107.053,57.143L-106.984,51.786L-106.916,53.571L-106.847,51.786L-106.779,51.786L-106.711,53.571L-106.642,53.571L-106.574,53.571L-106.505,53.571L-106.368,51.786L-106.3,51.786L-106.231,51.786L-106.163,51.786L-106.095,46.429L-106.026,46.429L-105.889,53.571L-105.821,55.357L-105.752,55.357L-105.684,53.571L-105.615,51.786L-105.547,51.786L-105.479,57.143L-105.41,58.929L-105.136,60.714L-105.068,58.929L-104.999,50L-104.931,51.786L-104.794,51.786L-104.726,51.786L-104.589,51.786L-104.247,53.571L-104.11,57.143L-104.041,53.571L-103.973,50L-103.904,50L-103.836,50L-103.765,48.214L-103.696,48.214L-103.559,48.214L-103.422,50L-103.354,46.429L-103.285,46.429L-103.217,42.857L-103.149,46.429L-103.08,48.214L-103.012,48.214L-102.943,48.214L-102.806,48.214L-102.738,41.071L-102.669,37.5L-102.601,35.714L-102.533,35.714L-102.327,30.357L-102.259,28.571L-102.122,28.571L-102.053,37.5L-101.848,33.929L-101.78,32.143L-101.711,33.929L-101.643,30.357L-101.3,28.571L-101.232,28.571L-101.164,32.143L-101.095,37.5L-101.027,35.714L-100.89,35.714L-100.753,35.714L-100.684,35.714L-100.616,37.5L-100.479,35.714L-100.411,35.714L-100.342,33.929L-100.274,33.929L-100.205,33.929L-100.068,33.929L-99.932,26.786L-99.863,28.571L-99.795,28.571L-99.658,37.5L-99.521,42.857L-99.384,44.643L-99.247,44.643L-99.179,51.786L-99.042,53.571L-98.973,55.357L-98.836,53.571L-98.768,57.143L-98.7,60.714L-98.563,58.929L-98.494,55.357L-98.426,60.714L-98.357,62.5L-98.289,60.714L-98.22,58.929L-98.152,60.714L-98.084,58.929L-97.947,60.714L-97.878,58.929L-97.741,57.143L-97.604,57.143L-97.536,58.929L-97.467,60.714L-97.399,62.5L-97.331,64.286L-97.262,62.5L-97.057,66.071L-96.92,64.286L-96.783,64.286L-96.715,64.286L-96.646,62.5L-96.578,62.5L-96.441,60.714L-96.372,60.714L-96.304,60.714L-96.235,60.714L-96.099,58.929L-95.962,58.929L-95.893,58.929L-95.756,60.714L-95.688,67.857L-95.619,64.286L-95.551,60.714L-95.483,62.5L-95.414,64.286L-95.346,64.286L-95.277,64.286L-95.209,64.286L-95.006,62.5L-94.869,62.5L-94.801,64.286L-94.664,66.071L-94.596,66.071L-94.527,67.857L-94.185,66.071L-94.048,62.5L-93.911,66.071L-93.843,67.857L-93.774,67.857L-93.706,67.857L-93.637,69.643L-93.569,69.643L-93.364,71.429L-93.295,69.643L-93.227,67.857L-93.158,66.071L-93.09,67.857L-92.953,66.071L-92.884,62.5L-92.748,62.5L-92.679,62.5L-92.611,66.071L-92.542,69.643L-92.474,69.643L-92.405,66.071L-92.337,62.5L-92.268,64.286L-92.2,62.5L-92.063,66.071L-91.995,67.857L-91.926,67.857L-91.858,66.071L-91.789,64.286L-91.721,58.929L-91.652,58.929L-91.584,60.714L-91.447,58.929L-91.379,58.929L-91.31,58.929L-91.242,55.357L-91.173,51.786L-91.105,48.214L-91.036,48.214L-90.899,48.214L-90.831,46.429L-90.763,46.429L-90.694,41.071L-90.626,41.071L-90.557,42.857L-90.489,41.071L-90.42,41.071L-90.352,41.071L-90.283,37.5L-90.215,37.5L-90.147,41.071L-90.078,42.857L-89.941,37.5L-89.873,39.286L-89.804,37.5L-89.736,33.929L-89.667,32.143L-89.394,32.143L-89.325,33.929L-89.188,39.286L-89.12,41.071L-89.051,42.857L-88.983,42.857L-88.915,42.857L-88.846,41.071L-88.778,44.643L-88.709,46.429L-88.641,50L-88.572,48.214L-88.435,48.214L-88.367,51.786L-88.299,53.571L-88.162,58.929L-88.093,60.714L-88.025,62.5L-87.956,60.714L-87.819,58.929L-87.751,58.929L-87.683,58.929L-87.546,57.143L-87.477,53.571L-87.409,51.786L-87.203,57.143L-87.135,57.143L-86.93,58.929L-86.861,60.714L-86.793,62.5L-86.724,64.286L-86.656,62.5L-86.519,62.5L-86.45,60.714L-86.382,51.786L-86.314,51.786L-86.245,46.429L-86.177,44.643L-86.108,42.857L-86.04,44.643L-85.971,42.857L-85.903,42.857L-85.834,42.857L-85.698,41.071L-85.629,39.286L-85.561,41.071L-85.492,39.286L-85.355,39.286L-85.218,39.286L-85.15,39.286L-85.082,39.286L-85.013,35.714L-84.876,35.714L-84.808,37.5L-84.739,37.5L-84.602,37.5L-84.534,37.5L-84.466,35.714L-84.329,37.5L-84.192,37.5L-84.123,35.714L-84.055,35.714L-83.781,35.714L-83.644,37.5L-83.576,46.429L-83.507,46.429L-83.439,48.214L-83.37,48.214L-83.302,50L-83.097,50L-83.028,50L-82.96,50L-82.891,51.786L-82.754,51.786L-82.686,50L-82.617,50L-82.549,51.786L-82.481,51.786L-82.412,53.571L-82.275,50L-82.207,46.429L-82.138,53.571L-82.07,55.357L-82.001,55.357L-81.933,58.929L-81.865,58.929L-81.728,58.929L-81.659,57.143L-81.591,53.571L-81.522,53.571L-81.454,53.571L-81.385,55.357L-81.317,55.357L-81.249,55.357L-81.18,57.143L-81.112,58.929L-81.043,62.5L-80.975,64.286L-80.838,64.286L-80.701,60.714L-80.633,62.5L-80.496,64.286L-80.427,64.286L-80.29,64.286L-80.017,66.071L-79.948,64.286L-79.88,60.714L-79.811,53.571L-79.674,55.357L-79.537,60.714L-79.469,64.286L-79.401,60.714L-79.127,60.714L-79.058,62.5L-78.85,58.929L-78.782,57.143L-78.713,57.143L-78.645,60.714L-78.439,62.5L-78.371,58.929L-78.234,60.714L-78.166,60.714L-78.029,60.714L-77.96,58.929L-77.892,58.929L-77.687,58.929L-77.55,58.929L-77.481,60.714L-77.344,60.714L-77.207,62.5L-77.139,60.714L-77.07,60.714L-77.002,57.143L-76.934,58.929L-76.865,58.929L-76.797,60.714L-76.728,57.143L-76.66,64.286L-76.318,60.714L-76.249,60.714L-76.181,58.929L-76.112,60.714L-76.044,60.714L-75.77,57.143L-75.702,60.714L-75.633,60.714L-75.291,58.929L-75.222,57.143L-74.812,55.357L-74.743,55.357L-74.675,53.571L-74.606,53.571L-74.538,53.571L-74.47,53.571L-74.401,53.571L-74.264,53.571L-74.196,50L-74.127,50L-73.922,44.643L-73.854,46.429L-73.785,48.214L-73.717,42.857L-73.648,46.429L-73.58,44.643L-73.443,42.857L-73.306,42.857L-73.101,50L-72.964,48.214L-72.895,51.786L-72.758,50L-72.621,48.214L-72.553,48.214L-72.485,46.429L-72.348,50L-72.142,48.214L-72.074,50L-72.005,50L-71.937,51.786L-71.869,55.357L-71.732,55.357L-71.663,55.357L-71.526,50L-71.458,44.643L-71.321,46.429L-71.184,44.643L-71.116,44.643L-71.047,39.286L-70.979,35.714L-70.91,39.286L-70.773,33.929L-70.705,33.929L-70.637,37.5L-70.568,35.714L-70.5,37.5L-70.431,41.071L-70.363,41.071L-70.294,41.071L-70.229,41.071L-70.16,41.071L-70.023,42.857L-69.886,46.429L-69.75,46.429L-69.681,46.429L-69.544,42.857L-69.27,44.643L-69.134,44.643L-69.065,42.857L-68.997,39.286L-68.928,35.714L-68.86,39.286L-68.791,41.071L-68.723,44.643L-68.586,48.214L-68.449,48.214L-68.381,48.214L-68.312,46.429L-67.97,50L-67.902,51.786L-67.833,50L-67.765,55.357L-67.628,55.357L-67.559,55.357L-67.491,57.143L-67.422,55.357L-67.286,53.571L-67.217,48.214L-66.875,46.429L-66.806,48.214L-66.67,48.214L-66.533,48.214L-66.396,48.214L-66.327,50L-66.259,50L-66.19,53.571L-66.122,51.786L-66.054,50L-65.985,48.214L-65.917,50L-65.848,51.786L-65.78,46.429L-65.711,46.429L-65.506,44.643L-65.437,46.429L-65.369,44.643L-65.301,46.429L-65.232,48.214L-65.164,53.571L-65.095,53.571L-64.958,51.786L-64.89,51.786L-64.821,48.214L-64.753,50L-64.685,46.429L-64.548,48.214L-64.479,46.429L-64.274,51.786L-64.205,51.786L-64,51.786L-63.932,48.214L-63.863,42.857L-63.795,42.857L-63.726,37.5L-63.589,33.929L-63.521,30.357L-63.453,32.143L-63.384,32.143L-63.316,37.5L-63.247,37.5L-63.179,35.714L-63.11,41.071L-63.042,39.286L-62.973,42.857L-62.905,42.857L-62.837,41.071L-62.768,33.929L-62.7,33.929L-62.631,30.357L-62.494,32.143L-62.426,35.714L-62.289,35.714L-62.221,39.286L-62.084,37.5L-62.015,41.071L-61.947,41.071L-61.878,41.071L-61.81,39.286L-61.741,37.5L-61.604,35.714L-61.536,39.286L-61.468,44.643L-61.399,44.643L-61.331,50L-61.262,55.357L-61.194,57.143L-61.125,50L-61.057,48.214L-60.988,46.429L-60.92,46.429L-60.852,50L-60.783,50L-60.715,51.786L-60.646,51.786L-60.509,50L-60.372,51.786L-60.304,53.571L-60.167,51.786L-60.099,55.357L-60.03,50L-59.962,48.214L-59.825,44.643L-59.688,44.643L-59.551,44.643L-59.483,44.643L-59.414,41.071L-59.346,44.643L-59.277,46.429L-59.209,50L-59.14,51.786L-59.072,46.429L-59.004,44.643L-58.935,44.643L-58.867,44.643L-58.73,44.643L-58.661,44.643L-58.593,51.786L-58.524,55.357L-58.456,57.143L-58.251,57.143L-58.114,55.357L-57.977,55.357L-57.908,55.357L-57.703,55.357L-57.635,55.357L-57.566,57.143L-57.498,60.714L-57.361,58.929L-57.292,57.143L-57.155,58.929L-57.087,60.714L-57.019,62.5L-56.95,57.143L-56.882,55.357L-56.745,53.571L-56.676,57.143L-56.539,57.143L-56.334,55.357L-56.266,55.357L-56.197,51.786L-56.129,53.571L-55.992,51.786L-55.923,46.429L-55.855,44.643L-55.787,42.857L-55.718,41.071L-55.513,39.286L-55.444,37.5L-55.307,35.714L-55.239,32.143L-55.171,33.929L-55.102,33.929L-54.965,33.929L-54.897,33.929L-54.828,35.714L-54.691,33.929L-54.623,33.929L-54.486,37.5L-54.349,39.286L-54.281,39.286L-54.144,41.071L-54.075,42.857L-53.936,48.214L-53.799,46.429L-53.662,46.429L-53.593,42.857L-53.525,42.857L-53.457,42.857L-53.388,42.857L-53.32,37.5L-53.251,41.071L-53.183,42.857L-53.114,44.643L-53.046,44.643L-52.909,46.429L-52.841,50L-52.704,48.214L-52.635,50L-52.498,51.786L-52.361,55.357L-52.293,55.357L-52.156,53.571L-51.951,53.571L-51.882,51.786L-51.745,44.643L-51.54,42.857L-51.472,44.643L-51.335,44.643L-51.266,44.643L-51.198,48.214L-51.129,48.214L-51.061,44.643L-50.924,44.643L-50.856,46.429L-50.787,48.214L-50.65,50L-50.582,50L-50.513,51.786L-50.308,51.786L-50.24,60.714L-50.103,57.143L-50.034,58.929L-49.966,62.5L-49.829,60.714L-49.624,60.714L-49.555,60.714L-49.487,60.714L-49.418,57.143L-49.35,55.357L-49.281,53.571L-49.213,51.786L-49.144,53.571L-49.008,50L-48.939,48.214L-48.871,51.786L-48.802,53.571L-48.734,53.571L-48.597,53.571L-48.528,53.571L-48.46,53.571L-48.255,50L-48.186,51.786L-48.118,50L-48.049,51.786L-47.981,48.214L-47.912,46.429L-47.844,46.429L-47.775,46.429L-47.707,44.643L-47.639,44.643L-47.502,46.429L-47.296,46.429L-47.228,46.429L-47.091,44.643L-47.023,41.071L-46.954,41.071L-46.886,44.643L-46.817,48.214L-46.68,44.643L-46.543,48.214L-46.338,50L-46.27,50L-46.201,50L-46.133,53.571L-46.064,55.357L-45.996,57.143L-45.927,57.143L-45.859,55.357L-45.791,55.357L-45.722,51.786L-45.654,55.357L-45.585,55.357L-45.517,53.571L-45.448,50L-45.38,53.571L-45.314,57.143L-45.246,51.786L-45.109,46.429L-45.04,44.643L-44.835,42.857L-44.767,42.857L-44.698,42.857L-44.63,42.857L-44.561,48.214L-44.493,50L-44.424,46.429L-44.288,44.643L-44.219,42.857L-44.082,48.214L-43.945,46.429L-43.808,42.857L-43.74,42.857L-43.603,46.429L-43.535,46.429L-43.398,44.643L-43.192,42.857L-43.124,42.857L-43.056,41.071L-42.987,39.286L-42.919,41.071L-42.85,39.286L-42.782,41.071L-42.645,44.643L-42.44,46.429L-42.371,44.643L-42.166,42.857L-41.96,48.214L-41.892,51.786L-41.824,53.571L-41.755,55.357L-41.687,55.357L-41.618,53.571L-41.413,51.786L-41.344,51.786L-41.276,53.571L-41.208,53.571L-41.139,55.357L-41.002,57.143L-40.934,53.571L-40.865,50L-40.728,50L-40.66,44.643L-40.523,41.071L-40.455,33.929L-40.386,35.714L-40.318,35.714L-40.249,33.929L-40.112,33.929L-40.044,35.714L-39.975,37.5L-39.907,39.286L-39.839,33.929L-39.77,33.929L-39.633,35.714L-39.565,37.5L-39.428,35.714L-39.359,33.929L-39.291,30.357L-39.223,32.143L-39.154,32.143L-39.086,28.571L-38.949,28.571L-38.88,28.571L-38.812,26.786L-38.743,26.786L-38.607,26.786L-38.538,25L-38.47,21.429L-38.401,25L-38.333,28.571L-38.264,30.357L-38.196,32.143L-38.127,35.714L-38.059,41.071L-37.991,39.286L-37.922,35.714L-37.854,35.714L-37.785,35.714L-37.717,33.929L-37.648,33.929L-37.58,26.786L-37.443,32.143L-37.375,28.571L-37.306,28.571L-37.238,25L-37.169,26.786L-37.101,26.786L-37.032,32.143L-36.964,26.786L-36.895,26.786L-36.69,32.143L-36.622,30.357L-36.553,26.786L-36.485,28.571L-36.416,25L-36.211,26.786L-36.142,28.571L-36.074,30.357L-36.006,30.357L-35.937,32.143L-35.869,32.143L-35.8,35.714L-35.732,32.143L-35.663,33.929L-35.595,37.5L-35.526,41.071L-35.458,42.857L-35.39,42.857L-35.321,44.643L-35.253,44.643L-35.184,48.214L-35.047,46.429L-34.637,41.071L-34.568,37.5L-34.431,39.286L-34.363,39.286L-34.294,39.286L-34.226,33.929L-34.158,32.143L-34.021,32.143L-33.815,32.143L-33.747,32.143L-33.678,33.929L-33.61,32.143L-33.542,33.929L-33.473,33.929L-33.405,32.143L-33.268,33.929L-33.199,32.143L-33.131,32.143L-33.062,30.357L-32.994,30.357L-32.857,32.143L-32.72,32.143L-32.652,30.357L-32.515,28.571L-32.378,28.571L-32.173,30.357L-32.036,26.786L-31.899,25L-31.83,26.786L-31.762,26.786L-31.693,33.929L-31.625,39.286L-31.557,41.071L-31.488,41.071L-31.42,42.857L-31.351,42.857L-31.283,46.429L-31.146,42.857L-31.077,41.071L-31.009,42.857L-30.872,41.071L-30.804,42.857L-30.667,44.643L-30.598,39.286L-30.461,39.286L-30.393,33.929L-30.256,33.929L-30.188,26.786L-30.119,25L-29.982,25L-29.914,23.214L-29.845,23.214L-29.709,25L-29.64,26.786L-29.503,23.214L-29.366,19.643L-29.298,23.214L-29.229,23.214L-29.161,25L-29.093,26.786L-29.021,23.214L-28.953,23.214L-28.884,21.429L-28.747,23.214L-28.679,23.214L-28.611,28.571L-28.542,32.143L-28.474,35.714L-28.405,37.5L-28.131,37.5L-28.063,42.857L-27.995,42.857L-27.926,41.071L-27.858,48.214L-27.721,50L-27.652,55.357L-27.584,55.357L-27.515,62.5L-27.447,64.286L-27.31,64.286L-27.242,64.286L-27.173,64.286L-27.036,64.286L-26.899,66.071L-26.831,67.857L-26.762,73.214L-26.626,73.214L-26.557,73.214L-26.42,73.214L-26.352,71.429L-26.215,76.786L-26.146,73.214L-26.01,73.214L-25.941,73.214L-25.736,73.214L-25.667,73.214L-25.394,71.429L-25.325,71.429L-25.257,69.643L-25.051,67.857L-24.709,67.857L-24.641,66.071L-24.504,66.071L-24.435,66.071L-24.367,66.071L-24.23,64.286L-24.162,60.714L-23.956,58.929L-23.819,62.5L-23.751,62.5L-23.682,60.714L-23.614,60.714L-23.546,58.929L-23.477,57.143L-23.409,57.143L-23.272,55.357L-23.203,55.357L-23.066,53.571L-22.998,48.214L-22.93,48.214L-22.793,48.214L-22.656,48.214L-22.587,48.214L-22.519,46.429L-22.45,44.643L-22.382,44.643L-22.313,44.643L-22.245,39.286L-22.177,37.5L-22.108,32.143L-22.04,32.143L-21.971,32.143L-21.903,33.929L-21.834,32.143L-21.766,30.357L-21.697,23.214L-21.561,28.571L-21.492,28.571L-21.355,28.571L-21.287,26.786L-21.218,30.357L-21.15,26.786L-20.945,26.786L-20.876,26.786L-20.808,26.786L-20.739,26.786L-20.602,23.214L-20.4,23.214L-20.263,26.786L-20.126,25L-19.921,25L-19.852,26.786L-19.784,25L-19.715,25L-19.647,23.214L-19.578,23.214L-19.442,23.214L-19.373,25L-19.305,26.786L-19.236,33.929L-19.168,32.143L-19.099,32.143L-19.031,26.786L-18.962,21.429L-18.894,23.214L-18.826,32.143L-18.757,25L-18.689,25L-18.552,23.214L-18.278,25L-18.141,23.214L-18.073,21.429L-17.936,21.429L-17.867,19.643L-17.799,19.643L-17.73,21.429L-17.662,25L-17.594,23.214L-17.525,25L-17.457,28.571L-17.388,26.786L-17.32,25L-17.251,25L-17.183,25L-17.114,25L-17.046,23.214L-16.909,25L-16.841,23.214L-16.635,25L-16.498,25L-16.43,26.786L-16.362,23.214L-16.293,23.214L-16.225,30.357L-16.088,28.571L-16.019,28.571L-15.951,30.357L-15.814,30.357L-15.745,32.143L-15.677,30.357L-15.609,32.143L-15.54,35.714L-15.403,32.143L-15.335,33.929L-15.198,32.143L-15.129,26.786L-15.061,25L-14.993,26.786L-14.787,26.786L-14.719,25L-14.65,25L-14.513,21.429L-14.445,21.429L-14.377,23.214L-14.308,26.786L-14.24,28.571L-14.171,28.571L-14.103,33.929L-13.966,25L-13.897,21.429L-13.829,21.429L-13.761,25L-13.692,30.357L-13.624,21.429L-13.555,23.214L-13.487,19.643L-13.418,23.214L-13.213,25L-13.145,23.214L-13.076,17.857L-13.008,17.857L-12.939,16.071L-12.871,16.071L-12.802,16.071L-12.734,19.643L-12.665,17.857L-12.597,14.286L-12.529,16.071L-12.46,14.286L-12.323,12.5L-12.255,14.286L-12.186,19.643L-12.118,17.857L-12.049,14.286L-11.981,10.714L-11.913,10.714L-11.844,7.143L-11.776,7.143L-11.707,16.071L-11.639,21.429L-11.502,19.643L-11.433,16.071L-11.296,14.286L-11.228,23.214L-11.16,23.214L-11.091,26.786L-11.023,25L-10.886,17.857L-10.817,17.857L-10.749,21.429L-10.68,23.214L-10.612,26.786L-10.544,30.357L-10.475,28.571L-10.338,26.786L-10.27,33.929L-10.201,33.929L-10.133,35.714L-10.064,37.5L-9.996,41.071L-9.928,41.071L-9.859,39.286L-9.791,41.071L-9.722,44.643L-9.654,48.214L-9.585,48.214L-9.517,51.786L-9.448,50L-9.38,42.857L-9.312,39.286L-9.243,35.714L-9.175,39.286L-9.106,37.5L-9.038,35.714L-8.969,35.714L-8.901,35.714L-8.832,32.143L-8.764,37.5L-8.696,37.5L-8.627,39.286L-8.559,39.286L-8.49,37.5L-8.422,37.5L-8.353,41.071L-8.285,42.857L-8.216,39.286L-8.148,42.857L-8.08,42.857L-8.011,41.071L-7.943,35.714L-7.874,35.714L-7.806,39.286L-7.737,39.286L-7.669,39.286L-7.6,32.143L-7.532,32.143L-7.463,32.143L-7.395,33.929L-7.327,39.286L-7.19,35.714L-7.121,41.071L-7.053,41.071L-6.984,44.643L-6.916,44.643L-6.847,44.643L-6.779,41.071L-6.711,46.429L-6.574,46.429L-6.505,46.429L-6.437,42.857L-6.368,41.071L-6.3,41.071L-6.231,42.857L-6.095,41.071L-6.026,41.071L-5.958,42.857L-5.889,39.286L-5.821,37.5L-5.752,37.5L-5.684,39.286L-5.615,37.5L-5.547,35.714L-5.479,37.5L-5.41,37.5L-5.342,42.857L-5.273,42.857L-5.205,39.286L-5.136,39.286L-5.068,39.286L-4.999,44.643L-4.931,37.5L-4.863,35.714L-4.794,32.143L-4.726,33.929L-4.657,32.143L-4.589,35.714L-4.52,32.143L-4.452,30.357L-4.383,26.786L-4.315,32.143L-4.247,33.929L-4.107,30.357L-4.038,28.571L-3.901,28.571L-3.833,25L-3.765,23.214L-3.696,25L-3.628,23.214L-3.559,17.857L-3.491,17.857L-3.422,17.857L-3.354,19.643L-3.285,21.429L-3.217,21.429L-3.149,23.214L-3.08,17.857L-3.012,19.643L-2.943,16.071L-2.875,16.071L-2.806,16.071L-2.738,23.214L-2.601,19.643L-2.327,19.643L-2.259,16.071L-2.122,16.071L-2.053,10.714L-1.985,12.5L-1.916,16.071L-1.711,21.429L-1.643,19.643L-1.574,17.857L-1.506,21.429L-1.369,23.214L-1.3,25L-1.232,28.571L-1.164,32.143L-1.095,32.143L-1.027,33.929L-0.89,37.5L-0.821,37.5L-0.753,37.5L-0.684,37.5L-0.616,32.143L-0.479,32.143L-0.342,30.357L-0.205,35.714L-0.137,37.5L-0.068,41.071L0.137,41.071L0.205,41.071L0.274,39.286L0.479,46.429L0.548,44.643L0.616,46.429L0.684,44.643L0.753,50L0.821,53.571L0.89,51.786L0.958,50L1.095,46.429L1.164,48.214L1.232,50L1.369,50L1.437,50L1.574,48.214L1.711,46.429L1.78,39.286L1.848,33.929L1.916,37.5L2.19,41.071L2.259,39.286L2.327,39.286L2.396,42.857L2.464,37.5L2.601,33.929L2.669,33.929L2.738,33.929L2.806,32.143L2.875,30.357L3.012,28.571L3.149,30.357L3.217,28.571L3.285,25L3.354,26.786L3.422,30.357L3.491,25L3.559,25L3.628,25L3.696,26.786L3.833,26.786L3.901,25L3.97,16.071L4.038,12.5L4.107,8.929L4.175,8.929L4.244,10.714L4.312,19.643L4.381,25L4.449,21.429L4.517,21.429L4.586,23.214L4.654,21.429L4.723,21.429L4.791,21.429L4.86,21.429L4.928,19.643L4.994,17.857L5.062,19.643L5.199,19.643L5.336,17.857L5.404,14.286L5.473,12.5L5.541,21.429L5.678,21.429L5.747,21.429L5.815,25L5.884,23.214L6.089,23.214L6.157,23.214L6.226,26.786L6.431,28.571L6.5,37.5L6.568,39.286L6.636,41.071L6.705,41.071L6.91,39.286L6.979,37.5L7.047,37.5L7.116,32.143L7.184,30.357L7.252,28.571L7.321,30.357L7.389,30.357L7.458,35.714L7.526,39.286L7.663,41.071L7.732,41.071L7.868,41.071L7.937,37.5L8.005,42.857L8.074,44.643L8.142,48.214L8.279,48.214L8.348,44.643L8.416,44.643L8.484,46.429L8.621,42.857L8.69,41.071L8.758,39.286L8.827,37.5L8.964,37.5L9.032,35.714L9.101,35.714L9.169,30.357L9.237,32.143L9.306,28.571L9.374,26.786L9.511,28.571L9.58,33.929L9.648,33.929L9.717,37.5L9.785,35.714L9.853,37.5L9.922,35.714L9.99,35.714L10.059,32.143L10.127,33.929L10.333,32.143L10.401,37.5L10.469,35.714L10.538,37.5L10.606,32.143L10.675,30.357L10.743,32.143L10.88,32.143L10.949,25L11.017,28.571L11.154,32.143L11.222,30.357L11.291,33.929L11.359,32.143L11.428,32.143L11.496,28.571L11.565,32.143L11.701,26.786L11.838,32.143L11.907,35.714L11.975,35.714L12.181,33.929L12.249,35.714L12.317,32.143L12.386,33.929L12.523,32.143L12.66,30.357L12.728,28.571L12.865,30.357L12.933,30.357L13.002,32.143L13.139,33.929L13.207,32.143L13.276,26.786L13.344,28.571L13.413,30.357L13.55,32.143L13.618,26.786L13.686,32.143L13.755,33.929L13.823,32.143L14.029,33.929L14.097,32.143L14.166,26.786L14.234,26.786L14.302,32.143L14.371,35.714L14.439,41.071L14.508,41.071L14.576,42.857L14.645,39.286L14.713,44.643L14.85,44.643L14.918,46.429L14.987,42.857L15.055,42.857L15.124,46.429L15.192,44.643L15.261,46.429L15.329,46.429L15.398,46.429L15.466,42.857L15.534,46.429L15.603,51.786L15.671,51.786L15.74,42.857L15.808,42.857L15.877,46.429L15.945,48.214L16.014,46.429L16.082,46.429L16.15,46.429L16.219,39.286L16.287,44.643L16.424,44.643L16.493,41.071L16.561,41.071L16.63,39.286L16.698,35.714L16.766,35.714L16.835,35.714L16.903,33.929L16.972,33.929L17.04,32.143L17.109,28.571L17.177,30.357L17.246,30.357L17.314,33.929L17.451,32.143L17.519,32.143L17.588,25L17.656,28.571L17.793,26.786L17.862,25L17.93,28.571L17.999,35.714L18.067,33.929L18.135,35.714L18.272,32.143L18.341,33.929L18.409,33.929L18.546,33.929L18.615,42.857L18.683,44.643L18.751,44.643L18.82,44.643L18.888,42.857L18.957,42.857L19.094,44.643L19.231,42.857L19.299,44.643L19.436,46.429L19.504,44.643L19.573,48.214L19.641,53.571L19.778,51.786L19.847,50L19.915,51.786L19.983,51.786L20.052,51.786L20.12,58.929L20.189,58.929L20.326,57.143L20.394,53.571L20.531,53.571L20.599,50L20.668,51.786L20.736,50L20.873,50L20.942,48.214L21.079,48.214L21.147,50L21.287,50L21.355,48.214L21.424,46.429L21.492,48.214L21.561,50L21.629,50L21.697,51.786L21.766,50L21.834,51.786L21.903,46.429L22.04,48.214L22.108,44.643L22.177,44.643L22.245,42.857L22.313,44.643L22.382,42.857L22.45,44.643L22.519,44.643L22.587,39.286L22.656,39.286L22.724,42.857L22.793,48.214L22.93,44.643L22.998,48.214L23.066,48.214L23.135,42.857L23.203,44.643L23.272,44.643L23.34,46.429L23.409,46.429L23.546,46.429L23.682,44.643L23.751,39.286L23.819,41.071L23.956,41.071L24.025,39.286L24.093,39.286L24.162,37.5L24.298,35.714L24.367,37.5L24.709,35.714L24.778,39.286L24.914,41.071L24.983,44.643L25.12,44.643L25.188,46.429L25.325,46.429L25.394,41.071L25.53,41.071L25.599,39.286L25.667,37.5L25.736,33.929L25.804,37.5L25.941,39.286L26.01,39.286L26.146,41.071L26.215,41.071L26.283,42.857L26.42,33.929L26.489,30.357L26.557,28.571L26.626,30.357L26.694,39.286L26.762,39.286L27.036,35.714L27.105,39.286L27.173,33.929L27.242,37.5L27.379,39.286L27.447,39.286L27.515,37.5L27.584,35.714L27.652,32.143L27.721,28.571L27.858,26.786L27.926,25L28.063,17.857L28.131,21.429L28.2,26.786L28.268,28.571L28.337,30.357L28.405,33.929L28.474,26.786L28.542,26.786L28.611,25L28.679,25L28.884,23.214L28.953,19.643L29.09,28.571L29.158,28.571L29.227,26.786L29.363,26.786L29.432,26.786L29.5,21.429L29.569,23.214L29.637,19.643L29.706,23.214L29.774,19.643L29.908,16.071L30.045,19.643L30.114,21.429L30.182,21.429L30.25,23.214L30.319,21.429L30.387,23.214L30.456,21.429L30.524,26.786L30.593,28.571L30.661,21.429L30.73,19.643L30.798,17.857L30.935,17.857L31.003,23.214L31.072,19.643L31.14,10.714L31.277,12.5L31.346,14.286L31.414,16.071L31.482,10.714L31.551,14.286L31.619,16.071L31.688,17.857L31.756,17.857L31.825,23.214L31.893,21.429L31.962,19.643L32.098,21.429L32.167,25L32.235,19.643L32.304,16.071L32.372,12.5L32.509,8.929L32.578,7.143L32.646,10.714L32.714,8.929L32.783,12.5L32.851,10.714L32.92,10.714L32.988,17.857L33.057,19.643L33.125,16.071L33.262,14.286L33.33,14.286L33.399,16.071L33.467,25L33.536,25L33.604,25L33.741,23.214L33.81,26.786L33.946,26.786L34.015,28.571L34.083,28.571L34.152,26.786L34.22,26.786L34.289,30.357L34.357,35.714L34.426,30.357L34.494,30.357L34.563,35.714L34.699,35.714L34.768,35.714L34.836,37.5L34.905,41.071L34.973,42.857L35.179,42.857L35.247,42.857L35.315,46.429L35.384,44.643L35.589,44.643L35.658,44.643L35.863,50L35.931,46.429L36,48.214L36.068,46.429L36.137,46.429L36.205,50L36.274,50L36.342,50L36.411,50L36.479,50L36.547,50L36.616,46.429L36.684,46.429L36.753,42.857L36.821,41.071L36.89,39.286L36.958,41.071L37.027,42.857L37.163,37.5L37.3,37.5L37.369,41.071L37.437,42.857L37.506,37.5L37.574,35.714L37.643,35.714L37.711,35.714L37.779,35.714L37.848,33.929L37.916,33.929L38.053,30.357L38.122,30.357L38.19,35.714L38.259,33.929L38.327,37.5L38.396,37.5L38.669,30.357L38.738,30.357L38.806,33.929L38.875,35.714L38.943,35.714L39.012,35.714L39.148,37.5L39.285,37.5L39.354,35.714L39.422,32.143L39.491,33.929L39.559,35.714L39.628,35.714L39.696,44.643L39.833,46.429L39.901,48.214L39.97,50L40.038,53.571L40.107,53.571L40.175,55.357L40.244,51.786L40.312,51.786L40.38,55.357L40.449,55.357L40.517,58.929L40.586,55.357L40.654,53.571L40.723,55.357L40.791,51.786L40.928,51.786L40.996,50L41.065,42.857L41.202,39.286L41.27,35.714L41.339,35.714L41.476,32.143L41.544,33.929L41.612,33.929L41.681,33.929L41.818,37.5L41.955,30.357L42.023,32.143L42.16,30.357L42.228,30.357L42.365,30.357L42.434,25L42.502,25L42.571,25L42.776,21.429L42.913,21.429L42.981,23.214L43.118,17.857L43.324,17.857L43.392,17.857L43.461,16.071L43.529,17.857L43.734,19.643L43.803,16.071L43.871,19.643L43.94,17.857L44.008,23.214L44.077,30.357L44.145,32.143L44.213,33.929L44.282,28.571L44.419,32.143L44.487,30.357L44.556,30.357L44.761,35.714L44.898,37.5L44.966,44.643L45.035,42.857L45.103,42.857L45.172,42.857L45.24,44.643L45.309,48.214L45.377,48.214L45.445,46.429L45.582,50L45.651,39.286L45.719,41.071L45.788,44.643L45.856,42.857L45.925,42.857L45.993,42.857L46.061,37.5L46.13,35.714L46.201,35.714L46.27,33.929L46.338,32.143L46.407,32.143L46.543,33.929L46.612,33.929L46.68,32.143L46.749,35.714L46.817,35.714L46.886,37.5L46.954,37.5L47.091,37.5L47.159,30.357L47.228,30.357L47.296,32.143L47.433,32.143L47.639,32.143L47.844,28.571L47.912,28.571L47.981,28.571L48.049,30.357L48.118,30.357L48.186,39.286L48.255,35.714L48.392,35.714L48.46,30.357L48.528,28.571L48.597,25L48.665,30.357L48.734,32.143L48.871,35.714L48.939,30.357L49.076,33.929L49.144,35.714L49.213,35.714L49.281,32.143L49.35,33.929L49.487,35.714L49.555,33.929L49.624,32.143L49.76,32.143L49.829,32.143L49.897,39.286L49.966,37.5L50.24,28.571L50.376,28.571L50.445,28.571L50.513,32.143L50.65,28.571L50.719,25L50.787,25L50.924,23.214L50.992,21.429L51.061,23.214L51.129,21.429L51.198,26.786L51.266,28.571L51.335,33.929L51.403,35.714L51.472,35.714L51.54,35.714L51.608,42.857L51.745,44.643L51.814,44.643L51.882,44.643L51.951,48.214L52.088,50L52.156,48.214L52.225,48.214L52.293,48.214L52.361,48.214L52.43,48.214L52.498,46.429L52.567,48.214L52.635,53.571L52.772,53.571L52.841,50L52.909,48.214L52.977,50L53.046,53.571L53.114,55.357L53.183,58.929L53.388,53.571L53.525,55.357L53.593,55.357L53.799,53.571L53.867,51.786L53.936,51.786L54.004,48.214L54.073,46.429L54.141,46.429L54.209,41.071L54.278,35.714L54.415,37.5L54.483,35.714L54.552,35.714L54.62,35.714L54.689,35.714L54.757,35.714L54.823,37.5L54.96,39.286L55.028,35.714L55.096,37.5L55.165,33.929L55.302,37.5L55.37,37.5L55.507,35.714L55.576,35.714L55.644,39.286L55.712,37.5L55.918,37.5L55.986,32.143L56.123,35.714L56.26,33.929L56.328,37.5L56.397,41.071L56.465,41.071L56.534,35.714L56.739,39.286L56.808,39.286L56.944,35.714L57.013,41.071L57.081,42.857L57.15,42.857L57.287,42.857L57.355,39.286L57.424,35.714L57.56,37.5L57.766,33.929L57.834,33.929L57.903,33.929L58.04,35.714L58.176,33.929L58.245,35.714L58.313,33.929L58.382,30.357L58.45,30.357L58.519,30.357L58.587,30.357L58.656,32.143L58.724,32.143L58.792,32.143L58.861,35.714L58.998,33.929L59.135,33.929L59.203,26.786L59.272,25L59.34,30.357L59.409,28.571L59.477,25L59.614,25L59.682,21.429L59.751,25L59.819,21.429L59.888,23.214L59.956,26.786L60.093,30.357L60.161,28.571L60.23,25L60.298,23.214L60.367,23.214L60.504,25L60.572,25L60.641,23.214L60.709,17.857L60.777,21.429L60.846,25L60.914,26.786L60.983,26.786L61.051,26.786L61.12,23.214L61.257,26.786L61.393,25L61.53,23.214L61.667,23.214L61.804,30.357L61.941,30.357L62.009,28.571L62.146,30.357L62.215,35.714L62.283,39.286L62.42,42.857L62.489,41.071L62.557,44.643L62.694,42.857L62.831,44.643L62.899,44.643L63.105,46.429L63.515,53.571L63.584,53.571L63.789,53.571L63.858,50L63.926,48.214L63.994,48.214L64.063,55.357L64.131,57.143L64.2,58.929L64.268,58.929L64.337,57.143L64.405,57.143L64.474,57.143L64.542,57.143L64.61,58.929L64.679,62.5L64.884,62.5L64.953,51.786L65.021,53.571L65.158,55.357L65.226,55.357L65.363,51.786L65.432,50L65.5,46.429L65.569,46.429L65.637,42.857L65.706,44.643L65.842,44.643L65.911,42.857L65.979,39.286L66.048,39.286L66.116,41.071L66.185,39.286L66.322,42.857L66.39,44.643L66.458,48.214L66.527,46.429L66.595,44.643L66.732,44.643L66.801,44.643L66.869,42.857L66.938,42.857L67.006,46.429L67.074,48.214L67.143,46.429L67.211,46.429L67.28,46.429L67.348,51.786L67.417,53.571L67.485,51.786L67.554,51.786L67.622,53.571L67.759,51.786L67.827,53.571L67.896,53.571L67.964,51.786L68.033,50L68.101,48.214L68.307,46.429L68.375,44.643L68.649,46.429L68.717,46.429L68.786,46.429L68.854,46.429L68.923,44.643L68.991,42.857L69.059,42.857L69.128,44.643L69.196,44.643L69.333,44.643L69.402,46.429L69.47,46.429L69.607,44.643L69.675,44.643L69.744,48.214L69.812,46.429L69.881,44.643L69.949,46.429L70.018,46.429L70.086,42.857L70.155,42.857L70.223,42.857L70.291,44.643L70.428,42.857L70.565,44.643L70.771,48.214L70.839,46.429L70.907,46.429L71.116,50L71.184,53.571L71.253,48.214L71.321,48.214L71.389,46.429L71.458,46.429L71.526,50L71.595,51.786L71.663,50L71.732,50L71.8,48.214L71.869,48.214L71.937,50L72.005,50L72.074,51.786L72.142,51.786L72.211,51.786L72.69,55.357L72.758,57.143L72.895,51.786L73.032,51.786L73.101,57.143L73.169,55.357L73.238,57.143L73.306,58.929L73.511,58.929L73.58,57.143L73.785,55.357L73.854,57.143L73.99,55.357L74.059,55.357L74.127,57.143L74.196,62.5L74.264,58.929L74.333,60.714L74.47,60.714L74.538,58.929L74.812,58.929L74.88,58.929L75.017,58.929L75.086,60.714L75.222,58.929L75.291,57.143L75.359,55.357L75.428,53.571L75.633,53.571L75.702,51.786L75.77,51.786L75.907,51.786L75.975,55.357L76.249,51.786L76.386,51.786L76.454,53.571L76.523,53.571L76.591,50L76.66,50L76.728,51.786L76.797,53.571L76.865,53.571L76.934,57.143L77.002,57.143L77.07,53.571L77.139,50L77.207,53.571L77.413,53.571L77.481,53.571L77.55,51.786L78.029,51.786L78.097,55.357L78.234,51.786L78.303,51.786L78.371,51.786L78.439,51.786L78.508,53.571L78.576,46.429L78.645,42.857L78.713,39.286L78.85,37.5L78.919,35.714L79.055,41.071L79.124,42.857L79.192,41.071L79.261,41.071L79.329,39.286L79.466,42.857L79.535,46.429L79.671,46.429L79.737,46.429L79.805,46.429L79.942,41.071L80.011,41.071L80.079,44.643L80.216,48.214L80.285,48.214L80.353,48.214L80.422,46.429L80.558,50L80.627,48.214L80.695,48.214L80.901,48.214L80.969,42.857L81.038,41.071L81.106,42.857L81.243,37.5L81.311,46.429L81.38,48.214L81.448,53.571L81.517,55.357L81.585,51.786L81.654,51.786L81.722,53.571L81.79,53.571L81.859,48.214L81.927,41.071L81.996,41.071L82.064,41.071L82.133,35.714L82.201,37.5L82.27,37.5L82.338,37.5L82.406,33.929L82.543,33.929L82.612,32.143L82.68,30.357L82.817,32.143L82.954,32.143L83.022,28.571L83.228,26.786L83.296,21.429L83.365,21.429L83.433,25L83.502,25L83.638,21.429L83.707,26.786L83.844,26.786L83.981,28.571L84.049,28.571L84.255,23.214L84.323,26.786L84.46,25L84.528,23.214L84.665,25L84.734,28.571L84.802,37.5L85.007,37.5L85.076,37.5L85.144,41.071L85.213,41.071L85.281,42.857L85.35,42.857L85.418,44.643L85.623,42.857L85.692,39.286L85.76,37.5L85.829,33.929L85.966,35.714L86.034,39.286L86.103,39.286L86.171,42.857L86.239,39.286L86.308,35.714L86.376,39.286L86.445,39.286L86.513,37.5L86.582,35.714L86.65,35.714L86.719,35.714L86.787,39.286L86.924,35.714L86.992,28.571L87.061,28.571L87.129,28.571L87.198,30.357L87.266,21.429L87.335,21.429L87.403,21.429L87.471,23.214L87.677,23.214L87.814,23.214L87.882,26.786L87.951,25L88.019,23.214L88.087,26.786L88.156,30.357L88.224,33.929L88.361,33.929L88.43,32.143L88.498,32.143L88.567,33.929L88.635,41.071L88.704,46.429L88.84,46.429L88.909,48.214L88.977,44.643L89.114,42.857L89.183,41.071L89.251,39.286L89.32,39.286L89.388,42.857L89.456,51.786L89.593,48.214L89.73,48.214L89.799,44.643L89.867,46.429L89.936,46.429L90.004,46.429L90.072,39.286L90.141,39.286L90.209,39.286L90.278,37.5L90.346,39.286L90.415,42.857L90.483,39.286L90.552,37.5L90.62,35.714L90.688,33.929L90.757,35.714L90.825,35.714L90.894,35.714L90.962,35.714L91.099,35.714L91.236,35.714L91.304,35.714L91.373,41.071L91.441,39.286L91.51,35.714L91.578,37.5L91.647,37.5L91.715,37.5L91.784,37.5L91.852,41.071L91.92,41.071L91.989,44.643L92.057,50L92.126,44.643L92.194,42.857L92.263,50L92.4,50L92.468,42.857L92.537,42.857L92.605,44.643L92.673,42.857L92.742,48.214L92.81,48.214L92.879,48.214L92.947,46.429L93.016,44.643L93.084,46.429L93.153,41.071L93.221,41.071L93.289,39.286L93.426,35.714L93.563,37.5L93.632,33.929L93.7,37.5L93.769,41.071L93.837,39.286L93.905,37.5L93.974,39.286L94.042,39.286L94.111,39.286L94.179,33.929L94.248,33.929L94.316,33.929L94.385,33.929L94.521,35.714L94.658,32.143L94.795,30.357L94.864,30.357L94.932,33.929L95.137,33.929L95.206,35.714L95.343,30.357L95.411,28.571L95.548,28.571L95.617,32.143L95.685,32.143L95.822,28.571L95.89,33.929L96.099,33.929L96.167,35.714L96.235,39.286L96.441,39.286L96.509,41.071L96.578,39.286L96.646,39.286L96.715,41.071L96.783,44.643L96.851,42.857L96.988,42.857L97.057,44.643L97.125,50L97.262,48.214L97.331,48.214L97.399,53.571L97.467,53.571L97.536,57.143L97.604,58.929L97.673,62.5L97.741,60.714L97.81,60.714L97.947,58.929L98.015,62.5L98.084,60.714L98.152,60.714L98.22,60.714L98.289,62.5L98.426,67.857L98.631,67.857L98.7,62.5L98.768,62.5L98.836,62.5L98.905,60.714L98.973,60.714L99.11,60.714L99.247,60.714L99.316,58.929L99.452,58.929L99.589,57.143L99.658,55.357L99.795,51.786L99.863,51.786L99.932,51.786L100,53.571L100.205,50L100.274,50L100.342,48.214L100.411,48.214L100.479,51.786L100.616,51.786L100.753,50L100.821,46.429L100.89,48.214L101.164,51.786L101.3,51.786L101.369,48.214L101.437,48.214L101.506,48.214L101.574,48.214L101.643,53.571L101.711,53.571L101.78,50L101.848,51.786L101.916,53.571L101.985,53.571L102.053,50L102.122,51.786L102.19,51.786L102.327,55.357L102.396,57.143L102.464,60.714L102.533,60.714L102.738,62.5L102.806,62.5L102.943,64.286L103.012,64.286L103.149,64.286L103.285,64.286L103.354,64.286L103.422,66.071L103.491,66.071L103.628,71.429L103.696,71.429L103.765,73.214L103.901,71.429L103.97,75L104.175,75L104.244,73.214L104.312,73.214L104.381,73.214L104.449,71.429L104.517,75L104.586,75L104.72,75L104.788,71.429L104.925,76.786L105.062,76.786L105.336,71.429L105.541,69.643L106.157,69.643L106.226,69.643L106.294,69.643L106.705,69.643L107.047,69.643L107.389,69.643L107.868,64.286L108.005,66.071L108.279,66.071L109.169,62.5L109.58,62.5L109.853,62.5L110.127,62.5L110.264,62.5L110.401,57.143L110.538,60.714L110.675,53.571L110.88,53.571L110.949,51.786L111.017,51.786L111.085,51.786L111.359,53.571L111.633,53.571L111.975,53.571L112.112,51.786L112.249,57.143L112.317,57.143L112.386,57.143L112.454,62.5L112.591,64.286L112.728,64.286L112.797,62.5L113.002,60.714L113.139,60.714L113.207,58.929L113.344,60.714L113.481,66.071L113.55,66.071L113.755,66.071L113.823,69.643L113.892,67.857L114.029,69.643L114.097,69.643L114.234,67.857L114.302,71.429L114.371,71.429L114.439,78.571L114.576,78.571L114.713,82.143L114.85,80.357L114.918,78.571L115.055,78.571L115.124,76.786L115.192,76.786L115.261,78.571L115.329,78.571L115.398,76.786L115.466,76.786L115.534,76.786L115.808,76.786L115.945,76.786L116.014,76.786L116.082,78.571L116.219,76.786L116.287,78.571L116.356,78.571L116.493,75L116.63,75L116.698,71.429L116.835,71.429L116.903,69.643L116.972,69.643L117.04,66.071L117.109,67.857L117.246,69.643L117.451,69.643L117.519,69.643L117.588,69.643L117.725,69.643L117.793,69.643L117.862,71.429L118.067,69.643L118.135,71.429L118.204,71.429L118.341,69.643L118.409,67.857L118.615,67.857L118.751,67.857L118.888,66.071L118.957,66.071L119.025,64.286L119.162,64.286L119.231,64.286L119.299,66.071L119.367,64.286L119.436,58.929L119.504,58.929L119.641,58.929L119.71,62.5L119.847,60.714L119.915,64.286L120.189,64.286L120.326,67.857L120.599,67.857L120.668,66.071L120.736,64.286L120.945,64.286L121.013,64.286L121.081,62.5L121.15,62.5L121.287,62.5L121.424,62.5L121.492,60.714L121.561,57.143L121.629,57.143L121.971,58.929L122.04,58.929L122.108,58.929L122.313,60.714L122.382,60.714L122.519,62.5L122.724,58.929L122.93,58.929L122.998,58.929L123.066,57.143L123.272,62.5L123.34,66.071L123.409,66.071L123.477,66.071L123.546,67.857L123.614,67.857L123.888,67.857L124.025,67.857L124.093,67.857L124.435,69.643L124.504,71.429L124.641,71.429L124.846,67.857L124.914,69.643L125.257,71.429L125.325,69.643L125.53,71.429L125.599,71.429L125.736,75L125.873,76.786L125.941,76.786L126.215,78.571L126.283,78.571L126.352,78.571L126.694,76.786L126.762,75L126.831,78.571L126.968,78.571L127.242,76.786L127.447,78.571L127.584,76.786L127.721,76.786L128.131,76.786L128.2,75L128.268,75L128.337,75L128.405,75L128.542,75L128.611,75L128.747,75L128.816,75L128.884,75L128.953,78.571L129.021,78.571L129.227,78.571L129.295,78.571L129.363,78.571L129.432,78.571L129.5,78.571L129.637,78.571L129.706,78.571L129.774,78.571L129.843,78.571L129.911,75L129.979,75L130.045,75L130.25,76.786L130.319,76.786L130.456,76.786L130.524,78.571L130.661,78.571L130.73,76.786L130.798,75L131.003,75L131.209,73.214L131.277,73.214L131.619,73.214L131.756,73.214L131.825,69.643L132.235,67.857L132.372,66.071L132.509,66.071L132.578,66.071L132.646,66.071L132.714,62.5L132.92,62.5L132.988,60.714L133.125,62.5L133.194,62.5L133.33,62.5L133.399,64.286L133.467,64.286L133.536,64.286L133.604,67.857L133.673,69.643L133.741,71.429L133.878,67.857L133.946,66.071L134.083,64.286L134.357,62.5L134.494,64.286L134.563,60.714L134.631,57.143L134.699,58.929L134.768,60.714L134.905,60.714L134.973,60.714L135.042,60.714L135.11,62.5L135.179,64.286L135.247,62.5L135.315,62.5L135.384,57.143L135.452,57.143L135.521,58.929L135.589,60.714L135.658,60.714L135.795,60.714L135.931,58.929L136.205,55.357L136.274,51.786L136.411,51.786L136.547,51.786L136.616,51.786L136.821,51.786L136.89,50L136.958,51.786L137.163,53.571L137.232,57.143L137.3,57.143L137.437,55.357L137.506,57.143L137.574,58.929L137.643,58.929L137.779,57.143L137.916,57.143L138.19,57.143L138.259,57.143L138.327,55.357L138.601,55.357L138.806,57.143L138.875,57.143L139.148,62.5L139.354,60.714L139.422,62.5L139.559,62.5L139.628,64.286L139.764,62.5L139.833,64.286L139.901,67.857L139.97,71.429L140.038,67.857L140.107,67.857L140.175,64.286L140.312,60.714L140.38,62.5L140.449,64.286L140.586,64.286L140.791,60.714L140.86,62.5L140.996,64.286L141.133,67.857L141.202,71.429L141.27,64.286L141.476,64.286L141.544,64.286L141.681,62.5L141.749,60.714L141.818,64.286L141.886,64.286L141.955,62.5L142.023,60.714L142.092,58.929L142.16,60.714L142.297,60.714L142.365,60.714L142.434,58.929L142.571,60.714L142.639,58.929L142.708,57.143L142.776,55.357L142.981,58.929L143.05,57.143L143.118,60.714L143.187,64.286L143.255,64.286L143.324,64.286L143.461,64.286L143.529,67.857L143.597,66.071L143.666,64.286L143.871,62.5L143.94,60.714L144.008,67.857L144.077,67.857L144.35,66.071L144.419,67.857L144.556,69.643L144.624,69.643L144.693,69.643L144.761,69.643L144.829,71.429L144.966,73.214L145.035,71.429L145.103,71.429L145.172,69.643L145.24,71.429L145.582,71.429L145.651,73.214L145.719,73.214L145.788,71.429L145.856,69.643L145.925,71.429L145.993,71.429L146.061,71.429L146.13,71.429L146.198,69.643L146.267,67.857L146.338,67.857L146.68,67.857L146.817,69.643L146.886,69.643L146.954,69.643L147.023,69.643L147.091,71.429L147.159,71.429L147.296,71.429L147.502,71.429L147.57,69.643L147.844,67.857L147.912,67.857L147.981,67.857L148.118,67.857L148.255,67.857L148.323,64.286L148.734,66.071L148.802,64.286L148.939,62.5L149.008,62.5L149.213,62.5L149.281,64.286L149.35,66.071L149.555,66.071L149.624,66.071L149.692,66.071L149.76,66.071L149.829,67.857L149.897,69.643L149.966,66.071L150.24,67.857L150.308,67.857L150.445,66.071L150.719,66.071L150.787,66.071L150.992,64.286L151.061,64.286L151.198,64.286L151.266,64.286L151.403,64.286L151.951,66.071L152.088,69.643L152.225,69.643L152.293,69.643L152.361,67.857L152.498,66.071L152.567,62.5L152.772,64.286L153.046,66.071L153.183,64.286L153.251,62.5L153.32,64.286L153.388,64.286L153.457,64.286L153.525,58.929L153.593,58.929L153.662,58.929L153.73,58.929L153.799,58.929L153.867,62.5L154.141,62.5L154.209,62.5L154.278,66.071L154.415,67.857L154.552,67.857L154.62,69.643L154.689,71.429L154.825,71.429L154.894,71.429L154.96,73.214L155.028,73.214L155.165,71.429L155.302,71.429L155.37,67.857L155.439,71.429L155.507,76.786L155.576,80.357L155.644,80.357L155.712,80.357L155.781,82.143L155.849,85.714L155.918,85.714L155.986,85.714L156.055,85.714L156.26,89.286L156.465,85.714L156.602,82.143L156.739,82.143L156.808,80.357L156.876,78.571L156.944,75L157.287,75L157.355,75L157.492,69.643L157.629,67.857L157.697,67.857L157.766,67.857L157.834,67.857L157.903,67.857L157.971,67.857L158.04,62.5L158.176,64.286L158.313,64.286L158.382,66.071L158.45,64.286L158.519,62.5L158.587,57.143L158.656,57.143L158.724,57.143L158.861,57.143L158.929,55.357L158.998,55.357L159.066,53.571L159.135,53.571L159.203,55.357L159.272,57.143L159.545,58.929L159.614,55.357L159.682,57.143L159.819,57.143L159.888,60.714L159.956,60.714L160.025,58.929L160.093,64.286L160.23,62.5L160.367,62.5L160.435,62.5L160.504,60.714L160.777,58.929L160.846,57.143L160.983,58.929L161.051,58.929L161.188,58.929L161.257,58.929L161.325,60.714L161.393,60.714L161.462,64.286L161.53,60.714L161.599,58.929L161.667,57.143L161.736,58.929L161.873,55.357L161.941,55.357L162.146,53.571L162.215,53.571L162.283,51.786L162.694,53.571L162.762,57.143L162.831,55.357L162.899,53.571L163.036,53.571L163.105,53.571L163.31,53.571L163.584,53.571L163.652,55.357L163.789,55.357L163.858,55.357L163.994,57.143L164.063,58.929L164.131,60.714L164.268,64.286L164.337,64.286L164.61,64.286L164.747,64.286L164.953,64.286L165.021,66.071L165.09,67.857L165.158,71.429L165.226,69.643L165.295,69.643L165.363,69.643L165.432,73.214L165.5,73.214L165.637,75L165.706,71.429L165.774,75L165.911,73.214L165.979,71.429L166.116,69.643L166.185,73.214L166.253,73.214L166.322,73.214L166.39,73.214L166.458,71.429L166.664,73.214L166.801,71.429L166.869,67.857L167.006,66.071L167.143,66.071L167.417,66.071L167.485,66.071L167.691,66.071L167.827,66.071L167.896,67.857L168.033,67.857L168.238,66.071L168.375,64.286L168.58,64.286L168.649,64.286L168.786,64.286L168.854,64.286L168.923,62.5L169.059,62.5L169.333,60.714L169.675,64.286L169.744,64.286L169.812,66.071L169.949,67.857L170.086,71.429L170.155,71.429L170.291,69.643L170.36,69.643L170.428,71.429L170.497,71.429L170.565,69.643L170.634,67.857L170.907,69.643L171.044,69.643L171.113,66.071L171.253,64.286L171.389,64.286L171.526,62.5L171.663,60.714L171.732,60.714L171.8,55.357L172.005,57.143L172.074,57.143L172.142,55.357L172.348,58.929L172.485,57.143L172.69,51.786L172.758,51.786L172.827,53.571L172.895,55.357L173.032,55.357L173.374,55.357L173.511,53.571L173.58,53.571L173.785,53.571L173.854,53.571L173.922,55.357L173.99,53.571L174.059,53.571L174.196,55.357L174.264,57.143L174.333,58.929L174.538,60.714L174.675,60.714L174.812,64.286L175.017,66.071L175.154,66.071L175.291,67.857L175.359,69.643L175.428,67.857L175.496,71.429L175.77,67.857L175.838,69.643L175.907,71.429L175.975,71.429L176.044,75L176.181,76.786L176.318,78.571L176.454,76.786L176.66,75L176.728,73.214L176.865,73.214L177.002,75L177.07,75L177.207,75L177.276,75L177.344,75L177.481,76.786L177.55,76.786L177.687,75L177.755,75L177.892,73.214L177.96,73.214L178.576,75L178.782,75L178.919,75L179.055,73.214L179.124,69.643L179.192,69.643L179.329,71.429L179.398,71.429L179.466,71.429L179.535,66.071L179.671,66.071L179.942,64.286L180.148,64.286L180.216,67.857L180.285,66.071L180.353,62.5L180.422,62.5L180.627,62.5L180.832,62.5L180.969,60.714L181.038,58.929L181.106,58.929L181.174,57.143L181.311,57.143L181.448,57.143L181.517,57.143L181.859,55.357L181.927,55.357L181.996,57.143L182.064,55.357L182.27,55.357L182.338,53.571L182.475,53.571L182.543,55.357L182.68,57.143L182.749,55.357L182.817,55.357L182.886,57.143L182.954,57.143L183.091,62.5L183.228,62.5L183.433,64.286L183.502,62.5L183.57,62.5L183.707,64.286L183.775,64.286L183.912,66.071L184.049,67.857L184.186,66.071L184.255,66.071L184.528,57.143L184.597,57.143L184.734,55.357L184.871,53.571L184.939,53.571L185.076,51.786L185.144,55.357L185.281,53.571L185.35,53.571L185.418,55.357L185.623,55.357L185.692,57.143L185.76,57.143L185.829,51.786L185.897,50L185.966,48.214L186.103,48.214L186.171,48.214L186.308,50L186.376,48.214L186.513,48.214L186.65,46.429L186.787,46.429L186.855,46.429L187.198,46.429L187.266,50L187.403,48.214L187.471,46.429L187.677,48.214L187.745,50L187.882,60.714L187.951,60.714L188.019,62.5L188.087,64.286L188.156,64.286L188.224,64.286L188.293,62.5L188.361,64.286L188.43,64.286L188.498,60.714L188.567,60.714L188.635,60.714L188.704,60.714L188.772,64.286L188.977,67.857L189.046,71.429L189.114,69.643L189.251,67.857L189.388,69.643L189.525,69.643L189.593,69.643L189.662,71.429L189.73,73.214L189.799,73.214L189.936,73.214L190.004,67.857L190.072,69.643L190.346,71.429L190.483,69.643L190.552,69.643L190.688,69.643L191.031,69.643L191.099,71.429L191.168,69.643L191.236,69.643L191.304,71.429L191.441,66.071L191.51,62.5L191.578,64.286L191.715,67.857L191.784,66.071L191.989,64.286L192.057,64.286L192.126,66.071L192.194,62.5L192.263,60.714L192.4,60.714L192.468,60.714L192.537,58.929L192.605,53.571L192.81,53.571L192.879,53.571L192.947,53.571L193.016,50L193.084,50L193.153,57.143L193.221,55.357L193.289,55.357L193.358,57.143L193.426,55.357L193.632,53.571L193.7,53.571L193.769,53.571L193.837,55.357L193.905,48.214L193.974,48.214L194.042,53.571L194.248,57.143L194.316,57.143L194.59,55.357L194.727,53.571L194.795,53.571L194.864,53.571L194.932,50L195.274,51.786L195.411,53.571L195.685,50L195.753,51.786L195.89,53.571L195.959,60.714L196.027,60.714L196.096,60.714L196.167,58.929L196.304,57.143L196.441,57.143L196.509,57.143L196.646,58.929L196.715,58.929L196.851,57.143L196.92,58.929L197.125,60.714L197.331,60.714L197.467,60.714L197.741,60.714L197.81,67.857L197.878,64.286L197.947,66.071L198.015,66.071L198.084,66.071L198.494,64.286L198.563,67.857L198.631,69.643L198.7,67.857L198.768,71.429L198.836,73.214L198.973,73.214L199.042,76.786L199.11,76.786L199.521,76.786L199.658,76.786L199.863,76.786L200,75L200.068,75L200.137,76.786L200.479,76.786L200.616,76.786L200.684,76.786L200.753,75L200.821,76.786L200.89,75L201.095,73.214L201.164,71.429L201.574,71.429" stroke="#4c78a8" stroke-width="2"/></g><g class="mark-group role-title"><g transform="translate(100,-17)"><path class="background" aria-hidden="true" d="M0,0h0v0h0Z" pointer-events="none"/><g><g class="mark-text role-title-text" role="graphics-symbol" aria-roledescription="title" aria-label="Title text 'Food Establishment: Food Contains Foreign Object'" pointer-events="none"><text text-anchor="middle" transform="translate(0,10)" font-family="sans-serif" font-size="13px" font-weight="bold" fill="#000" opacity="1">Food Establishment: Food Contains Foreign Object</text></g></g><path class="foreground" aria-hidden="true" d="" pointer-events="none" display="none"/></g></g></g><path class="foreground" aria-hidden="true" d="" display="none"/></g></g></g><defs><clipPath id="clip166"><rect x="0" y="0" width="200" height="150"/></clipPath></defs></svg>