<svg xmlns="http://www.w3.org/2000/svg" xmlns:xlink="http://www.w3.org/1999/xlink" version="1.1" class="marks" width="230" height="194" viewBox="0 0 230 194"><rect width="230" height="194" fill="white"/><g fill="none" stroke-miterlimit="10" transform="translate(24,22)"><g class="mark-group role-frame root" role="graphics-object" aria-roledescription="group mark container"><g transform="translate(0,0)"><path class="background" aria-hidden="true" d="M0,0h200v150h-200Z"/><g><g class="mark-group role-axis" aria-hidden="true"><g transform="translate(0.5,0.5)"><path class="background" aria-hidden="true" d="M0,0h0v0h0Z" pointer-events="none"/><g><g class="mark-rule role-axis-grid" pointer-events="none"><line transform="translate(0,150)" x2="200" y2="0" stroke="#ddd" stroke-width="1" opacity="1"/><line transform="translate(0,107)" x2="200" y2="0" stroke="#ddd" stroke-width="1" opacity="1"/><line transform="translate(0,64)" x2="200" y2="0" stroke="#ddd" stroke-width="1" opacity="1"/><line transform="translate(0,21)" x2="200" y2="0" stroke="#ddd" stroke-width="1" opacity="1"/></g></g><path class="foreground" aria-hidden="true" d="" pointer-events="none" display="none"/></g></g><g class="mark-group role-axis" role="graphics-symbol" aria-roledescription="axis" aria-label="X-axis for a time scale with values from Friday, 01 January 2016, 12:00:00 AM to Monday, 01 January 2024, 12:00:00 AM"><g transform="translate(0.5,150.5)"><path class="background" aria-hidden="true" d="M0,0h0v0h0Z" pointer-events="none"/><g><g class="mark-rule role-axis-tick" pointer-events="none"><line transform="translate(0,0)" x2="0" y2="5" stroke="#888" stroke-width="1" opacity="1"/><line transform="translate(50,0)" x2="0" y2="5" stroke="#888" stroke-width="1" opacity="1"/><line transform="translate(100,0)" x2="0" y2="5" stroke="#888" stroke-width="1" opacity="1"/><line transform="translate(150,0)" x2="0" y2="5" stroke="#888" stroke-width="1" opacity="1"/><line transform="translate(200,0)" x2="0" y2="5" stroke="#888" stroke-width="1" opacity="1"/></g><g class="mark-text role-axis-label" pointer-events="none"><text text-anchor="start" transform="translate(0,15)" font-family="sans-serif" font-size="10px" fill="#000" opacity="1">2016</text><text text-anchor="middle" transform="translate(50.03422313483915,15)" font-family="sans-serif" font-size="10px" fill="#000" opacity="1">2018</text><text text-anchor="middle" transform="translate(100,15)" font-family="sans-serif" font-size="10px" fill="#000" opacity="1">2020</text><text text-anchor="middle" transform="translate(150.03422313483915,15)" font-family="sans-serif" font-size="10px" fill="#000" opacity="1">2022</text><text text-anchor="end" transform="translate(200,15)" font-family="sans-serif" font-size="10px" fill="#000" opacity="1">2024</text></g><g class="mark-rule role-axis-domain" pointer-events="none"><line transform="translate(0,0)" x2="200" y2="0" stroke="#888" stroke-width="1" opacity="1"/></g></g><path class="foreground" aria-hidden="true" d="" pointer-events="none" display="none"/></g></g><g class="mark-group role-axis" role="graphics-symbol" aria-roledescription="axis" aria-label="Y-axis for a linear scale with values from 0 to 70"><g transform="translate(0.5,0.5)"><path class="background" aria-hidden="true" d="M0,0h0v0h0Z" pointer-events="none"/><g><g class="mark-rule role-axis-tick" pointer-events="none"><line transform="translate(0,150)" x2="-5" y2="0" stroke="#888" stroke-opacity="0" stroke-width="1" opacity="1"/><line transform="translate(0,107)" x2="-5" y2="0" stroke="#888" stroke-opacity="0" stroke-width="1" opacity="1"/><line transform="translate(0,64)" x2="-5" y2="0" stroke="#888" stroke-opacity="0" stroke-width="1" opacity="1"/><line transform="translate(0,21)" x2="-5" y2="0" stroke="#888" stroke-opacity="0" stroke-width="1" opacity="1"/></g><g class="mark-text role-axis-label" pointer-events="none"><text text-anchor="end" transform="translate(-7,153)" font-family="sans-serif" font-size="10px" fill="#000" opacity="1">0</text><text text-anchor="end" transform="translate(-7,110.14285714285714)" font-family="sans-serif" font-size="10px" fill="#000" opacity="1">20</text><text text-anchor="end" transform="translate(-7,67.28571428571429)" font-family="sans-serif" font-size="10px" fill="#000" opacity="1">40</text><text text-anchor="end" transform="translate(-7,24.428571428571434)" font-family="sans-serif" font-size="10px" fill="#000" opacity="1">60</text></g></g><path class="foreground" aria-hidden="true" d="" pointer-events="none" display="none"/></g></g><g class="mark-line role-mark marks" clip-path="url(#clip133)" role="graphics-object" aria-roledescription="line mark container"><path aria-label="day: Jan 01, 2010; avg: 15.0666666667" role="graphics-symbol" aria-roledescription="line mark" d="M-149.966,117.714L-149.897,117.429L-149.829,116.643L-149.76,115.571L-149.692,115.571L-149.624,115.214L-149.555,115L-149.487,116.429L-149.418,116.786L-149.35,115.643L-149.281,114.571L-149.213,114.857L-149.144,114.857L-149.076,114.929L-149.008,115.643L-148.939,115.857L-148.871,114.857L-148.802,113.357L-148.734,112.5L-148.665,111.929L-148.597,111.286L-148.528,110.429L-148.46,111.071L-148.392,108.857L-148.323,107.643L-148.255,104.643L-148.186,102.929L-148.118,103.857L-148.049,102.571L-147.981,100.786L-147.912,94.786L-147.844,89.143L-147.775,84.571L-147.707,80L-147.639,78.071L-147.57,76.214L-147.502,74.714L-147.433,69.714L-147.365,66.786L-147.296,65.571L-147.228,63.286L-147.159,60.857L-147.091,60.357L-147.023,59.714L-146.954,56.5L-146.886,52.429L-146.817,49.214L-146.749,46.429L-146.68,43.857L-146.612,43.714L-146.543,44.429L-146.475,43.643L-146.407,40.214L-146.338,39.714L-146.27,39.214L-146.201,41.286L-146.133,42.643L-146.064,43.286L-145.996,43.286L-145.927,43.643L-145.859,47.429L-145.791,50.929L-145.722,53.5L-145.654,57.5L-145.585,59.786L-145.517,59.643L-145.448,59.857L-145.38,62.929L-145.311,62.643L-145.243,61.429L-145.175,63.714L-145.106,65.357L-145.038,64.214L-144.972,63.357L-144.904,64.714L-144.835,66.786L-144.767,68.571L-144.698,71.214L-144.63,74.571L-144.561,74.857L-144.493,74.071L-144.424,74.357L-144.356,75.357L-144.288,75.786L-144.219,77.357L-144.151,79.429L-144.082,78.5L-144.014,76.071L-143.945,75.714L-143.877,75.286L-143.808,75.286L-143.74,76.929L-143.672,79.357L-143.603,77.714L-143.535,74.5L-143.466,75.5L-143.398,75.5L-143.329,74.643L-143.261,77.214L-143.192,80.071L-143.124,78.429L-143.056,76.857L-142.987,76.286L-142.919,75.786L-142.85,75.786L-142.782,77.286L-142.713,78.286L-142.645,76.929L-142.576,75.071L-142.508,73.429L-142.44,72.714L-142.371,72.143L-142.303,74.214L-142.234,76L-142.166,74.286L-142.097,72.571L-142.029,72.714L-141.96,72.5L-141.892,73.357L-141.824,74.429L-141.755,76.143L-141.687,76.143L-141.618,73.357L-141.55,74.357L-141.481,74.5L-141.413,74.143L-141.344,74.857L-141.276,76L-141.208,73.857L-141.139,72L-141.071,72.786L-141.002,72.071L-140.934,71.643L-140.865,73.143L-140.797,74.857L-140.728,73.429L-140.66,72.357L-140.591,72.786L-140.523,72.357L-140.455,73.429L-140.386,75.286L-140.318,76.857L-140.249,75.643L-140.181,73.786L-140.112,73.357L-140.044,72.357L-139.975,71L-139.907,73.143L-139.839,74.214L-139.77,73.071L-139.702,70.786L-139.633,68.714L-139.565,68.643L-139.496,69.143L-139.428,72L-139.359,74.714L-139.291,75.214L-139.223,72.286L-139.154,71.071L-139.086,69.786L-139.017,69L-138.949,71.143L-138.88,73.714L-138.812,71.571L-138.743,69.071L-138.675,66.214L-138.607,65.571L-138.538,65.357L-138.47,67.143L-138.401,68.643L-138.333,66.571L-138.264,64L-138.196,62.429L-138.127,62.643L-138.059,63L-137.991,64.143L-137.922,67L-137.854,64.071L-137.785,61.286L-137.717,60.786L-137.648,61.286L-137.58,61.786L-137.511,64.286L-137.443,65.214L-137.375,63.286L-137.306,59.786L-137.238,58.357L-137.169,60.214L-137.101,62.571L-137.032,65.571L-136.964,67.714L-136.895,66.857L-136.827,64.286L-136.758,64.857L-136.69,64.786L-136.622,67.286L-136.553,69.429L-136.485,71.714L-136.416,69.429L-136.348,68L-136.279,68.714L-136.211,70.357L-136.142,72.143L-136.074,74.286L-136.006,76L-135.937,75.643L-135.869,74.5L-135.8,76.286L-135.732,77.643L-135.663,79.143L-135.595,80.786L-135.526,82.929L-135.458,81.571L-135.39,80.357L-135.321,81.071L-135.253,82.5L-135.184,82.429L-135.116,84.786L-135.047,86.357L-134.979,86.786L-134.91,85.643L-134.842,85.643L-134.774,86.571L-134.705,87.5L-134.637,90.214L-134.568,92.214L-134.5,91L-134.431,89.857L-134.363,91.429L-134.294,91.786L-134.226,92.929L-134.158,94.571L-134.089,96.786L-134.021,95.857L-133.952,94.857L-133.884,96.286L-133.815,96.714L-133.747,98.214L-133.678,99.929L-133.61,101.429L-133.542,100.714L-133.473,98.714L-133.405,99.071L-133.336,99.214L-133.268,100.143L-133.199,101.5L-133.131,103.786L-133.062,102.714L-132.994,100.929L-132.926,99.5L-132.857,99.571L-132.789,99.857L-132.72,101.714L-132.652,103.286L-132.583,103.214L-132.515,101.857L-132.446,101.929L-132.378,101.429L-132.309,101.643L-132.241,102.929L-132.173,103.714L-132.104,102.929L-132.036,101.643L-131.967,101.929L-131.899,102.786L-131.83,102.714L-131.762,104.143L-131.693,105.143L-131.625,104.143L-131.557,103.5L-131.488,102.786L-131.42,103.643L-131.351,104.929L-131.283,106.929L-131.214,108.143L-131.146,109.071L-131.077,108.714L-131.009,108.714L-130.941,109.786L-130.872,110.643L-130.804,112.143L-130.735,114.071L-130.667,113.857L-130.598,112.286L-130.53,111.5L-130.461,113.214L-130.393,113.929L-130.325,116.071L-130.256,117.357L-130.188,117.214L-130.119,116.571L-130.051,116.214L-129.982,116.786L-129.914,117.357L-129.845,118L-129.777,119.286L-129.709,119.429L-129.64,119.214L-129.572,120.5L-129.503,121.571L-129.435,123.786L-129.366,125.214L-129.298,126L-129.229,125.071L-129.161,124.5L-129.093,124.071L-129.024,123.857L-128.956,124L-128.887,125.143L-128.819,126.429L-128.75,126.286L-128.679,124.857L-128.611,124.643L-128.542,126.071L-128.474,126.214L-128.405,126.357L-128.337,127.714L-128.268,126.857L-128.2,127L-128.131,127.071L-128.063,128L-127.995,129.143L-127.926,129.857L-127.858,130.429L-127.789,130.429L-127.721,129.357L-127.652,128.929L-127.584,128.929L-127.515,129.214L-127.447,129.143L-127.379,129.429L-127.31,129.571L-127.242,129.571L-127.173,130.429L-127.105,131.286L-127.036,131.714L-126.968,132.786L-126.899,133.357L-126.831,132.357L-126.762,131.571L-126.694,131.786L-126.626,132.571L-126.557,133.5L-126.489,134L-126.42,134.571L-126.352,134.643L-126.283,134.429L-126.215,134.857L-126.146,134.714L-126.078,135.071L-126.01,135.286L-125.941,135.714L-125.873,135.214L-125.804,133.357L-125.736,132.786L-125.667,132.571L-125.599,133.143L-125.53,133L-125.394,132.357L-125.325,130.929L-125.257,129.786L-125.188,129.286L-125.12,127.929L-125.051,127.571L-124.983,126.214L-124.914,124.643L-124.846,123.429L-124.778,122.286L-124.709,119.786L-124.641,118.857L-124.572,117.714L-124.504,115.571L-124.435,111.571L-124.367,105.286L-124.298,100.071L-124.23,96.286L-124.162,93.786L-124.093,92.857L-124.025,92L-123.956,88.571L-123.888,85.714L-123.819,82.286L-123.751,79.786L-123.682,78.857L-123.614,78.714L-123.546,78.929L-123.477,78L-123.409,76.143L-123.34,74.143L-123.272,72.857L-123.203,70.571L-123.135,68.857L-123.066,67.286L-122.998,63.857L-122.93,61.571L-122.861,59.857L-122.793,56.929L-122.724,56.643L-122.656,59L-122.587,59.214L-122.519,56.571L-122.45,55.5L-122.382,56.429L-122.313,59.857L-122.245,62.786L-122.177,63.571L-122.108,65.143L-122.04,63.5L-121.971,62.214L-121.903,62.571L-121.834,62.214L-121.766,63.5L-121.697,65.643L-121.629,67.429L-121.561,65.714L-121.492,64L-121.424,62.071L-121.355,61.643L-121.287,61.571L-121.218,63.5L-121.15,65.929L-121.081,64.929L-121.013,65.071L-120.945,65.286L-120.876,66.643L-120.808,68.286L-120.739,72.143L-120.671,72.714L-120.602,70.929L-120.534,70.071L-120.465,71.643L-120.397,72.357L-120.329,72.857L-120.26,75.214L-120.192,77.071L-120.123,77.571L-120.058,76.071L-119.989,76.429L-119.921,76.714L-119.852,77.429L-119.784,79.857L-119.715,80.857L-119.647,78.429L-119.578,76.714L-119.51,76.714L-119.442,76.714L-119.373,77.5L-119.305,79.571L-119.236,81.5L-119.168,79.143L-119.099,76.786L-119.031,77.286L-118.962,77.071L-118.894,78.429L-118.826,79.571L-118.757,80.5L-118.689,78.071L-118.62,75.786L-118.552,76.429L-118.483,75.857L-118.415,76L-118.346,78.5L-118.278,80.214L-118.21,78.429L-118.141,76.357L-118.073,74.571L-118.004,73.5L-117.936,73.714L-117.867,75.286L-117.799,76.786L-117.73,74.214L-117.662,72L-117.594,71.286L-117.525,71.143L-117.457,70L-117.388,70.786L-117.32,71.286L-117.251,68.714L-117.183,65.571L-117.114,65.571L-117.046,65L-116.978,65L-116.909,67L-116.841,67.714L-116.772,67.571L-116.704,64.286L-116.635,63.786L-116.567,63.786L-116.498,62.643L-116.43,63.929L-116.362,65.214L-116.293,62.5L-116.225,59.714L-116.156,57.857L-116.088,55.714L-116.019,54.5L-115.951,56.357L-115.882,57.143L-115.814,53.143L-115.745,50.786L-115.677,51.214L-115.609,50.643L-115.54,52.071L-115.472,53.714L-115.403,56.214L-115.335,53.929L-115.266,50.357L-115.198,49.5L-115.129,50.214L-115.061,50.143L-114.993,52.571L-114.924,53.429L-114.856,52.357L-114.787,51.143L-114.719,48.929L-114.65,50.357L-114.582,51.286L-114.513,54L-114.445,57.214L-114.377,58.286L-114.308,56.714L-114.24,56.714L-114.171,56.857L-114.103,58.286L-114.034,62.286L-113.966,66.714L-113.897,65.429L-113.829,63.143L-113.761,64.286L-113.692,63.429L-113.624,63.857L-113.555,67.357L-113.487,69.429L-113.418,68.214L-113.35,65.071L-113.281,64.929L-113.213,65.643L-113.145,67.214L-113.076,69.143L-113.008,70.5L-112.939,68.5L-112.871,65.857L-112.802,63.857L-112.734,63.143L-112.665,62.714L-112.597,63.429L-112.529,64.643L-112.46,61.143L-112.392,56.929L-112.323,53.643L-112.255,52.143L-112.186,51.571L-112.118,53.071L-112.049,54.571L-111.981,53.143L-111.913,51.571L-111.844,50.357L-111.776,49.5L-111.707,49.929L-111.639,52.714L-111.57,53.5L-111.502,48.643L-111.433,43.643L-111.365,41.571L-111.296,41L-111.228,41L-111.16,43.714L-111.091,45.071L-111.023,42.714L-110.954,40.929L-110.886,39.857L-110.817,40.643L-110.749,43.143L-110.68,46.429L-110.612,50L-110.544,49.929L-110.475,47.143L-110.407,49.143L-110.338,49.643L-110.27,50.357L-110.201,52.786L-110.133,55.286L-110.064,56.143L-109.996,53.714L-109.928,52.929L-109.859,51.5L-109.791,50.929L-109.722,53.857L-109.654,55.786L-109.585,52.5L-109.517,50.214L-109.448,51.5L-109.38,53.786L-109.312,55L-109.243,59.429L-109.175,62.786L-109.106,61.357L-109.038,59.143L-108.969,58.5L-108.901,58.857L-108.832,60.143L-108.764,62.214L-108.696,62.857L-108.627,58.286L-108.559,54.643L-108.49,53.429L-108.422,54.786L-108.353,56.071L-108.285,59.214L-108.216,61.786L-108.148,60.429L-108.08,57.929L-108.011,56.357L-107.943,57.5L-107.874,58.429L-107.806,61.929L-107.737,66.357L-107.669,66.214L-107.6,65.214L-107.532,66.571L-107.463,67.786L-107.395,69.5L-107.327,72.286L-107.258,75.214L-107.19,73.786L-107.121,71.929L-107.053,72.286L-106.984,73.5L-106.916,74.643L-106.847,77.071L-106.779,79.929L-106.711,79.571L-106.642,78.214L-106.574,81.071L-106.505,82.714L-106.437,84.714L-106.368,87L-106.3,88.286L-106.231,87.857L-106.163,86L-106.095,87.143L-106.026,89.571L-105.958,91.357L-105.889,93.571L-105.821,95.714L-105.752,95.214L-105.684,94.5L-105.615,95.143L-105.547,95.714L-105.479,98.357L-105.41,100.643L-105.342,102.714L-105.273,101.357L-105.205,100.071L-105.136,100.286L-105.068,101.643L-104.999,103.714L-104.931,105.714L-104.863,108.786L-104.794,108.214L-104.726,107.214L-104.657,107.571L-104.589,109.714L-104.52,110.857L-104.452,112.786L-104.383,113.571L-104.315,112.643L-104.247,111.429L-104.178,111.143L-104.11,112L-104.041,112.571L-103.973,113.714L-103.904,114.143L-103.836,113.071L-103.765,112.357L-103.696,112.214L-103.628,111.643L-103.559,111.857L-103.491,113.071L-103.422,113.286L-103.354,112.714L-103.285,112.214L-103.217,113L-103.149,113.429L-103.08,114.929L-103.012,116.286L-102.943,117L-102.875,117L-102.806,116.357L-102.738,116.786L-102.669,117.071L-102.601,118.071L-102.533,118.143L-102.464,119.143L-102.396,119.429L-102.327,119.214L-102.259,119.286L-102.19,120.071L-102.122,121.643L-102.053,123.071L-101.985,123.857L-101.916,123.5L-101.848,123.143L-101.78,123.643L-101.711,124.214L-101.643,125.571L-101.574,126.786L-101.506,126.429L-101.437,126.214L-101.369,125.786L-101.3,126.071L-101.232,126.214L-101.164,127.071L-101.095,128.5L-101.027,128.643L-100.958,128.214L-100.89,127.429L-100.821,126.929L-100.753,126.929L-100.684,127.786L-100.616,128.571L-100.548,128.286L-100.479,126.786L-100.411,125.786L-100.342,124.857L-100.274,124.286L-100.205,125L-100.137,125.357L-100.068,124.286L-99.932,122.929L-99.863,122.143L-99.795,121.5L-99.726,121.929L-99.658,122.429L-99.589,122.643L-99.521,121.714L-99.452,121.643L-99.384,121.5L-99.316,121.357L-99.247,121.643L-99.179,122.5L-99.11,123.214L-99.042,122.857L-98.973,121.857L-98.905,121.214L-98.836,121.071L-98.768,121.357L-98.7,122L-98.631,122.714L-98.563,122.286L-98.494,121.929L-98.426,121.857L-98.357,122.571L-98.289,123.143L-98.22,124.143L-98.152,125.071L-98.084,124.857L-98.015,124.429L-97.947,124.857L-97.878,125.357L-97.81,125.357L-97.741,126.429L-97.673,126.571L-97.604,126.5L-97.536,126.357L-97.467,126.143L-97.399,125.571L-97.331,126.143L-97.262,126.714L-97.194,127.286L-97.125,126.357L-97.057,125.714L-96.988,124.929L-96.92,124.786L-96.851,125.071L-96.783,125.786L-96.715,126L-96.646,125.143L-96.578,123.857L-96.509,123.214L-96.441,122.786L-96.372,122.786L-96.304,123.357L-96.235,123.643L-96.167,123.071L-96.099,122.786L-96.03,122.857L-95.962,122.786L-95.893,122.786L-95.825,123.643L-95.756,124.714L-95.688,124L-95.619,123.286L-95.551,122.5L-95.483,122.429L-95.414,123.286L-95.346,124.143L-95.277,125.214L-95.209,124.429L-95.143,124.286L-95.075,125L-95.006,125.071L-94.938,126L-94.869,126.857L-94.801,127.429L-94.732,126.071L-94.664,125.786L-94.596,125.929L-94.527,126L-94.459,125.857L-94.39,126.714L-94.322,127.357L-94.253,126.143L-94.185,123.143L-94.116,122.5L-94.048,122.214L-93.98,122.143L-93.911,122.429L-93.843,122.857L-93.774,121.643L-93.706,119.857L-93.637,119.571L-93.569,119.143L-93.5,118.929L-93.432,118.929L-93.364,118.857L-93.295,117.571L-93.227,116.571L-93.158,116.857L-93.09,115.714L-93.021,115.143L-92.953,114.643L-92.884,114.5L-92.816,113.143L-92.748,111.643L-92.679,111.714L-92.611,110.643L-92.542,110.286L-92.474,111L-92.405,111.357L-92.337,110.429L-92.268,108.857L-92.2,107.786L-92.132,109.071L-92.063,108.571L-91.995,108.929L-91.926,109.214L-91.858,108.429L-91.789,105.714L-91.721,102.929L-91.652,102.143L-91.584,101.286L-91.516,101.429L-91.447,102L-91.379,99.571L-91.31,96.857L-91.242,96.857L-91.173,96L-91.105,94.571L-91.036,94.929L-90.968,95.214L-90.899,93.143L-90.831,90.786L-90.763,88.571L-90.694,87.643L-90.626,86.286L-90.557,86.357L-90.489,86.929L-90.42,84.5L-90.352,83.929L-90.283,82.786L-90.215,82.143L-90.147,82.429L-90.078,83L-90.01,83.429L-89.941,80.786L-89.873,78.357L-89.804,76.286L-89.736,76.286L-89.667,78.429L-89.599,79.429L-89.531,80.786L-89.462,78.714L-89.394,76.071L-89.325,78L-89.257,77.857L-89.188,75.857L-89.12,76.071L-89.051,76.429L-88.983,73.071L-88.915,70.286L-88.846,69.786L-88.778,69.286L-88.709,69.214L-88.641,69.929L-88.572,72.286L-88.504,70.929L-88.435,68.571L-88.367,67.929L-88.299,66L-88.23,64.857L-88.162,66.357L-88.093,67.571L-88.025,66.143L-87.956,64.714L-87.888,64.714L-87.819,63.786L-87.751,63.857L-87.683,65.5L-87.614,66L-87.546,65.357L-87.477,63.571L-87.409,63.857L-87.34,63.571L-87.272,61.214L-87.203,63.714L-87.135,66.5L-87.067,65.429L-86.998,63.571L-86.93,65.286L-86.861,64.929L-86.793,65.5L-86.724,68.214L-86.656,71.571L-86.587,71.286L-86.519,68.143L-86.45,68.714L-86.382,68.143L-86.314,69.143L-86.245,71L-86.177,73L-86.108,72.071L-86.04,70.857L-85.971,71.143L-85.903,72.071L-85.834,72.357L-85.766,75.214L-85.698,77.857L-85.629,76.929L-85.561,76.571L-85.492,77.571L-85.424,78.071L-85.355,79.571L-85.287,82.786L-85.218,85.929L-85.15,86.143L-85.082,84.429L-85.013,84.857L-84.945,86.357L-84.876,86.643L-84.808,89.857L-84.739,92.214L-84.671,90L-84.602,89L-84.534,89.357L-84.466,91L-84.397,92.5L-84.329,95.357L-84.26,97.571L-84.192,98.214L-84.123,97.929L-84.055,98.429L-83.986,98.429L-83.918,99.643L-83.85,101.071L-83.781,103.571L-83.713,103.143L-83.644,102.429L-83.576,103L-83.507,103.643L-83.439,103.214L-83.37,105.071L-83.302,106.143L-83.234,105.857L-83.165,105.286L-83.097,104.714L-83.028,105.714L-82.96,105.857L-82.891,107.786L-82.823,109.429L-82.754,109.143L-82.686,109.286L-82.617,111.714L-82.549,112.786L-82.481,114.214L-82.412,115.857L-82.344,116.143L-82.275,115.786L-82.207,115.643L-82.138,115.357L-82.07,116.143L-82.001,117.286L-81.933,119.5L-81.865,119.429L-81.796,118.5L-81.728,118.071L-81.659,118.357L-81.591,119.286L-81.522,120.857L-81.454,122.071L-81.385,123.714L-81.317,123.857L-81.249,124.429L-81.18,125.143L-81.112,125.857L-81.043,127.143L-80.975,128.5L-80.906,130.214L-80.769,130.214L-80.701,130.643L-80.633,131L-80.564,131.5L-80.496,132L-80.427,131.714L-80.359,131.714L-80.29,131.5L-80.222,131.714L-80.153,132.429L-80.085,133L-80.017,134.071L-79.948,134.714L-79.88,134.429L-79.811,134.214L-79.743,135.214L-79.674,135.857L-79.606,136.571L-79.537,137.571L-79.469,137.143L-79.401,137L-79.332,136.357L-79.264,136L-79.195,135.5L-79.127,135.071L-79.058,135.214L-78.921,134.786L-78.85,134.143L-78.782,133.643L-78.713,133.071L-78.645,133.143L-78.576,133L-78.508,133.357L-78.439,131.929L-78.371,132L-78.303,132L-78.234,132L-78.166,131.857L-78.097,132.143L-78.029,131.929L-77.96,131L-77.892,130L-77.823,129.143L-77.755,129.214L-77.687,129.214L-77.618,129.357L-77.55,129.929L-77.481,129.786L-77.413,129.929L-77.344,130.214L-77.276,130.214L-77.207,130.429L-77.139,130.786L-77.07,131.143L-77.002,131.357L-76.934,131.429L-76.865,131.429L-76.797,131.286L-76.728,131.643L-76.66,132.357L-76.591,132.5L-76.523,132.5L-76.454,132.214L-76.386,133.5L-76.318,133.357L-76.249,133.214L-76.181,133.214L-76.112,133.571L-76.044,133L-75.975,132.571L-75.907,133.286L-75.838,134.143L-75.77,134.786L-75.702,135.357L-75.633,135.714L-75.565,135.571L-75.496,135.286L-75.428,135.5L-75.359,135.071L-75.291,135.357L-75.222,135.786L-75.154,136.071L-75.086,135.714L-75.017,135.143L-74.949,134.714L-74.88,134.286L-74.812,134.071L-74.743,134.5L-74.675,134.857L-74.606,134.929L-74.538,134.429L-74.47,133.929L-74.401,133.714L-74.333,133.5L-74.264,133.143L-74.196,133.571L-74.127,133.214L-74.059,131.929L-73.99,131.929L-73.922,131.571L-73.854,130.571L-73.785,130.786L-73.717,131L-73.648,130.643L-73.58,129.429L-73.511,128.357L-73.443,128L-73.374,127.214L-73.306,127.286L-73.238,127.357L-73.169,126.5L-73.101,125.214L-73.032,124.429L-72.964,123.714L-72.895,122.714L-72.827,122.857L-72.758,123.357L-72.69,122.571L-72.621,120.786L-72.553,119.929L-72.485,119.643L-72.416,119.571L-72.348,119.929L-72.279,119.429L-72.211,118.143L-72.142,118L-72.074,117L-72.005,117.357L-71.937,116.857L-71.869,117.214L-71.8,118L-71.732,116.786L-71.663,115.214L-71.595,114.143L-71.526,113.857L-71.458,113.929L-71.389,114.214L-71.321,114.786L-71.253,114.071L-71.184,113.857L-71.116,113.357L-71.047,114L-70.979,114.5L-70.91,115.714L-70.842,117.143L-70.773,116.286L-70.705,116L-70.637,116.143L-70.568,117.357L-70.5,117.786L-70.431,118.214L-70.363,118.929L-70.294,117.643L-70.229,117L-70.16,117.071L-70.092,115.143L-70.023,115.714L-69.955,116.286L-69.886,116.786L-69.818,116L-69.75,114.929L-69.681,114.429L-69.613,114.786L-69.544,114.714L-69.476,115.286L-69.407,116.214L-69.339,114.786L-69.27,113.5L-69.202,113.643L-69.134,112.714L-69.065,112.214L-68.997,112.357L-68.928,112.714L-68.86,111.857L-68.791,110.571L-68.723,110.214L-68.654,110.214L-68.586,110L-68.518,109.643L-68.449,110.214L-68.381,108.929L-68.312,107.571L-68.244,106.857L-68.175,106.857L-68.107,106.286L-68.038,108.571L-67.97,109.071L-67.902,107.357L-67.833,105.786L-67.765,105.071L-67.696,105L-67.628,105.714L-67.559,106.643L-67.491,107.643L-67.422,106.5L-67.354,103.357L-67.286,102.857L-67.217,101.571L-67.149,100.143L-67.08,101.143L-67.012,102.786L-66.943,102.929L-66.875,101.429L-66.806,100.857L-66.738,100.143L-66.67,98.714L-66.601,98.214L-66.533,98.786L-66.464,96.071L-66.396,93.714L-66.327,93L-66.259,92.214L-66.19,92.357L-66.122,92.429L-66.054,92.857L-65.985,90.143L-65.917,86.714L-65.848,85.857L-65.78,84.929L-65.711,84.143L-65.643,84.071L-65.574,84.429L-65.506,80.786L-65.437,77.214L-65.369,74.643L-65.301,74.5L-65.232,74.286L-65.164,75.857L-65.095,77.286L-65.027,73.857L-64.958,69.786L-64.89,67.071L-64.821,66.143L-64.753,64.286L-64.685,65.643L-64.616,67.643L-64.548,66.071L-64.479,63.571L-64.411,64.571L-64.342,66.429L-64.274,66.429L-64.205,67L-64.137,67.857L-64.069,65.357L-64,63.143L-63.932,61.929L-63.863,62L-63.795,62.143L-63.726,63.857L-63.658,65.714L-63.589,64.214L-63.521,60.714L-63.453,61.429L-63.384,62L-63.316,62.5L-63.247,64.571L-63.179,66.286L-63.11,63L-63.042,59.643L-62.973,60.286L-62.905,61.286L-62.837,61.071L-62.768,62.786L-62.7,65.143L-62.631,63.071L-62.563,61.429L-62.494,60.643L-62.426,60.357L-62.357,60.857L-62.289,60.857L-62.221,62.786L-62.152,61.714L-62.084,61L-62.015,61.5L-61.947,63.714L-61.878,65.714L-61.81,68.571L-61.741,70.5L-61.673,69L-61.604,66.429L-61.536,67.357L-61.468,68.857L-61.399,68.286L-61.331,71.286L-61.262,74.786L-61.194,73.786L-61.125,71.857L-61.057,74L-60.988,76L-60.92,76.286L-60.852,79.071L-60.783,81.714L-60.715,80.143L-60.646,78.857L-60.578,79.714L-60.509,80.214L-60.441,82.643L-60.372,85.5L-60.304,87.143L-60.236,86.929L-60.167,85.357L-60.099,85.929L-60.03,86.357L-59.962,88.286L-59.893,89.357L-59.825,90.571L-59.756,89.929L-59.688,88.929L-59.62,90L-59.551,92.429L-59.483,93.071L-59.414,95.143L-59.346,98.571L-59.277,97.643L-59.209,97L-59.14,97.714L-59.072,98L-59.004,99.071L-58.935,98.214L-58.867,100.786L-58.798,99.357L-58.73,97.786L-58.661,99.357L-58.593,100.643L-58.524,101.714L-58.456,103.357L-58.388,103.714L-58.319,102.929L-58.251,102.143L-58.182,101.929L-58.114,102.857L-58.045,104L-57.977,105.214L-57.908,106.571L-57.84,106.214L-57.772,106.071L-57.703,106.786L-57.635,107.714L-57.566,108.857L-57.498,110.214L-57.429,111.357L-57.361,111.714L-57.292,111.5L-57.224,111.929L-57.155,112.5L-57.087,113.714L-57.019,115.714L-56.95,116.857L-56.882,118.786L-56.813,118.5L-56.745,119.786L-56.676,121.357L-56.608,122.214L-56.539,123.429L-56.471,124.5L-56.403,124.286L-56.334,123.929L-56.266,124.643L-56.197,125.357L-56.129,126L-56.06,126.929L-55.992,128.071L-55.923,127.786L-55.855,127.643L-55.787,128.214L-55.718,128.357L-55.65,129L-55.581,130L-55.513,130.643L-55.444,130.643L-55.376,130.786L-55.307,130.286L-55.239,130.857L-55.171,131.643L-55.102,131.929L-55.034,132.429L-54.965,132.357L-54.897,132.214L-54.828,132.857L-54.76,132.571L-54.691,132.643L-54.623,133.357L-54.555,133.786L-54.486,133.5L-54.418,133.071L-54.349,133.286L-54.281,134.357L-54.212,134.929L-54.144,135.357L-54.075,135.357L-54.007,135.071L-53.936,134.786L-53.867,134.643L-53.799,134.571L-53.73,134.643L-53.662,135.143L-53.593,135.357L-53.525,135L-53.457,134.357L-53.388,134.143L-53.32,133.786L-53.251,133.786L-53.183,134.071L-53.114,133.857L-53.046,133.286L-52.977,133.143L-52.909,133.286L-52.841,133.071L-52.772,133L-52.704,133.643L-52.635,133.857L-52.567,132.929L-52.498,132.571L-52.43,132.714L-52.361,132.357L-52.293,132.5L-52.225,132.5L-52.156,132.429L-52.088,131.5L-52.019,131.143L-51.951,131.571L-51.882,131.786L-51.814,132.5L-51.745,132.714L-51.677,132.786L-51.608,132.429L-51.54,131.643L-51.472,131.071L-51.403,131.643L-51.335,131.714L-51.266,131.857L-51.198,131.143L-51.129,129.143L-51.061,127.786L-50.992,127.643L-50.924,126.214L-50.856,126.214L-50.787,126.786L-50.719,126.5L-50.65,126.429L-50.582,126.5L-50.513,126.929L-50.445,126.786L-50.376,126.571L-50.308,126.286L-50.24,125.5L-50.171,124.643L-50.103,124.071L-50.034,123.786L-49.966,123.714L-49.897,123.5L-49.829,123.429L-49.692,122.786L-49.624,121.143L-49.555,120.571L-49.487,119.786L-49.418,118.714L-49.35,119.357L-49.281,118.929L-49.213,118.071L-49.144,117.571L-49.076,118.357L-49.008,119.929L-48.939,119.786L-48.871,119.857L-48.802,120.143L-48.734,117.857L-48.665,114.357L-48.597,112.071L-48.528,107.929L-48.46,102.5L-48.392,100.071L-48.323,98.571L-48.255,95.286L-48.186,92.929L-48.118,89.929L-48.049,87.5L-47.981,85.857L-47.912,86.429L-47.844,86.786L-47.775,85.286L-47.707,84.5L-47.639,83.857L-47.57,84.714L-47.502,83.429L-47.433,84.143L-47.365,85.5L-47.296,83.357L-47.228,82.714L-47.159,81.357L-47.091,80.786L-47.023,80.357L-46.954,80.214L-46.886,81.714L-46.817,80.786L-46.749,79.929L-46.68,81.071L-46.612,82.357L-46.543,83.071L-46.475,86.571L-46.407,91.143L-46.338,90.857L-46.27,91.214L-46.201,93.643L-46.133,95.714L-46.064,99.143L-45.996,101.143L-45.927,102.214L-45.859,99.357L-45.791,96.571L-45.722,94.5L-45.654,92L-45.585,90.929L-45.517,91.143L-45.448,92.286L-45.38,90L-45.314,86.071L-45.246,85.571L-45.177,83.071L-45.109,82.571L-45.04,82.643L-44.972,82.286L-44.904,79.929L-44.835,77.429L-44.767,77.5L-44.698,77.714L-44.63,77.071L-44.561,78.929L-44.493,80.786L-44.424,79L-44.356,78.214L-44.288,78.571L-44.219,78.286L-44.151,77.643L-44.082,78.071L-44.014,78.214L-43.945,76.5L-43.877,75.714L-43.808,76.857L-43.74,74.929L-43.672,75.643L-43.603,77.643L-43.535,78.071L-43.466,75.571L-43.398,72.143L-43.329,71.714L-43.261,72.571L-43.192,72.571L-43.124,75.429L-43.056,75.643L-42.987,70.5L-42.919,66.286L-42.85,64.286L-42.782,62.143L-42.713,59.5L-42.645,58.929L-42.576,59.571L-42.508,56.286L-42.44,50.786L-42.371,49.5L-42.303,47.214L-42.234,46.786L-42.166,47.786L-42.097,48.429L-42.029,46.714L-41.96,40.643L-41.892,39.143L-41.824,36.643L-41.755,33.357L-41.687,36.429L-41.618,37.714L-41.55,34.714L-41.481,32.143L-41.413,29.786L-41.344,30.429L-41.276,28.5L-41.208,29.857L-41.139,30.857L-41.071,26.643L-41.002,23.714L-40.934,26.357L-40.865,27.857L-40.797,26.857L-40.728,29.643L-40.66,31.857L-40.591,26.143L-40.523,19.929L-40.455,18.429L-40.386,17.643L-40.318,15.714L-40.249,17.786L-40.181,18.786L-40.112,13.929L-40.044,9.214L-39.975,7.071L-39.907,9.357L-39.839,8.429L-39.77,10.857L-39.702,15.071L-39.633,11.429L-39.565,8.429L-39.496,9.214L-39.428,9.786L-39.359,14.214L-39.291,16.429L-39.223,20.357L-39.154,16.5L-39.086,13.071L-39.017,14.857L-38.949,16.357L-38.88,16.5L-38.812,19.214L-38.743,23.929L-38.675,21.857L-38.607,19.786L-38.538,23.071L-38.47,24.929L-38.401,27.071L-38.333,32.429L-38.264,37.5L-38.196,35.357L-38.127,34.286L-38.059,35.857L-37.991,39.286L-37.922,40.5L-37.854,43.643L-37.785,48.357L-37.717,47.571L-37.648,45.357L-37.58,48L-37.511,50.143L-37.443,51.143L-37.375,54.571L-37.306,54.857L-37.238,53.714L-37.169,51.857L-37.101,55.429L-37.032,58.143L-36.964,57.786L-36.895,61.286L-36.827,63.357L-36.758,62.357L-36.69,60L-36.622,60.643L-36.553,61.929L-36.485,64.143L-36.416,68.786L-36.348,70.857L-36.279,69.714L-36.211,67.357L-36.142,69.143L-36.074,69.286L-36.006,70.714L-35.937,72.286L-35.869,75.143L-35.8,74L-35.732,72.429L-35.663,72.714L-35.595,73.786L-35.526,75.214L-35.458,77.571L-35.39,79.857L-35.321,79.286L-35.253,77.286L-35.184,77.643L-35.116,78.643L-35.047,78.929L-34.979,80L-34.91,82.786L-34.842,81.214L-34.774,79.571L-34.705,79.5L-34.637,80.714L-34.568,81.786L-34.5,84.714L-34.431,87.143L-34.363,85.357L-34.294,83.857L-34.226,83.929L-34.158,83.286L-34.089,83.857L-34.021,86.429L-33.952,88.429L-33.884,86.286L-33.815,85L-33.747,85.429L-33.678,86.643L-33.61,87.857L-33.542,89.929L-33.473,90.714L-33.405,88L-33.336,87L-33.268,86.214L-33.199,87.786L-33.131,88.571L-33.062,90.571L-32.994,92.643L-32.926,92.786L-32.857,92.643L-32.789,93.5L-32.72,95.714L-32.652,97.857L-32.583,100.071L-32.515,102.357L-32.446,101.5L-32.378,100.5L-32.309,101.786L-32.241,103.429L-32.173,104.643L-32.104,108.143L-32.036,109.643L-31.967,109.071L-31.899,108.214L-31.83,109.714L-31.762,110.071L-31.693,109.714L-31.625,110.214L-31.557,111.143L-31.488,110.357L-31.42,109.643L-31.351,111.357L-31.283,111.5L-31.214,112.5L-31.146,113.429L-31.077,114.429L-31.009,113.357L-30.941,113.143L-30.872,112.143L-30.804,112.429L-30.735,112.786L-30.667,113.929L-30.598,114.214L-30.53,112.5L-30.461,112.286L-30.393,111.857L-30.325,111.929L-30.256,113L-30.188,113.571L-30.119,114.714L-30.051,113.143L-29.982,113.071L-29.914,113.357L-29.845,113.643L-29.777,114.5L-29.709,116L-29.64,118.143L-29.572,117.214L-29.503,116.643L-29.435,117.5L-29.366,119L-29.298,120.429L-29.229,121.571L-29.161,121.429L-29.093,120.286L-29.021,120L-28.953,120.929L-28.884,121.143L-28.816,123.357L-28.747,123.5L-28.679,123.357L-28.611,122.357L-28.542,121L-28.474,121.643L-28.405,120.714L-28.337,121.857L-28.268,123L-28.2,123L-28.131,121.786L-28.063,120.857L-27.995,121.929L-27.926,121.786L-27.858,122.571L-27.789,123.786L-27.721,124.143L-27.652,123.5L-27.584,123.071L-27.515,124.286L-27.447,124.857L-27.31,125.071L-27.242,124.929L-27.173,123.357L-27.105,122.571L-27.036,122.714L-26.968,124.071L-26.899,124.571L-26.831,125L-26.762,124.857L-26.694,124.143L-26.626,123.857L-26.557,124.5L-26.489,124.929L-26.42,125.857L-26.352,126.857L-26.283,128.357L-26.215,128L-26.146,126.786L-26.078,126.929L-26.01,127.643L-25.941,127.714L-25.873,128.5L-25.804,128.571L-25.736,128.071L-25.667,126.929L-25.599,125.214L-25.53,124.286L-25.462,123L-25.394,122.071L-25.325,121.929L-25.257,121.643L-25.188,121.643L-25.12,121.857L-25.051,121.714L-24.983,121.5L-24.914,121.571L-24.846,121.357L-24.778,120.5L-24.709,120.214L-24.641,120.071L-24.572,118.571L-24.504,118.5L-24.435,118.786L-24.367,119L-24.298,117.929L-24.23,115.357L-24.162,113.929L-24.093,113.214L-24.025,112.929L-23.956,113.357L-23.888,114.286L-23.819,113.786L-23.751,113.071L-23.682,112.429L-23.614,112.929L-23.546,114.286L-23.477,115.571L-23.409,116.429L-23.34,115.357L-23.272,114.286L-23.203,112.357L-23.135,111.429L-23.066,111.929L-22.998,112.5L-22.93,113.071L-22.861,111.214L-22.793,110L-22.724,107.286L-22.656,105.143L-22.587,103.5L-22.519,103.786L-22.45,102.071L-22.382,97.286L-22.313,90.571L-22.245,85.071L-22.177,81.571L-22.108,78.571L-22.04,78.5L-21.971,76.286L-21.903,70.714L-21.834,66L-21.766,62.286L-21.697,59.786L-21.629,57.643L-21.561,56.786L-21.492,55.214L-21.424,51.143L-21.355,47.643L-21.287,45.929L-21.218,44.857L-21.15,43.429L-21.081,43.286L-21.013,42.929L-20.945,40.857L-20.876,37.786L-20.808,36.143L-20.739,35.071L-20.671,36.143L-20.602,38.071L-20.534,40.143L-20.465,39.857L-20.4,38.214L-20.331,39.857L-20.263,44.5L-20.195,49.429L-20.126,54.429L-20.058,58.571L-19.989,57.571L-19.921,57.071L-19.852,60.143L-19.784,61.214L-19.715,62.357L-19.647,64.857L-19.578,66.714L-19.51,65.357L-19.442,62.929L-19.373,63.143L-19.305,63.143L-19.236,63.786L-19.168,64.857L-19.099,67.071L-19.031,63.857L-18.962,60.714L-18.894,59.786L-18.826,60.143L-18.757,60.143L-18.689,61.786L-18.62,63.143L-18.552,60.143L-18.483,56.929L-18.415,55.214L-18.346,56.571L-18.278,57.929L-18.21,59.143L-18.141,59.714L-18.073,55.429L-18.004,52.143L-17.936,50.929L-17.867,51.643L-17.799,51.929L-17.73,54.5L-17.662,56.071L-17.594,54.286L-17.525,52.143L-17.457,51.643L-17.388,54.286L-17.32,56.714L-17.251,60.143L-17.183,62.929L-17.114,63.643L-17.046,62L-16.978,63.429L-16.909,63.071L-16.841,62.643L-16.772,63.929L-16.704,65.571L-16.635,61L-16.567,58L-16.498,57.071L-16.43,56.643L-16.362,58.071L-16.293,58.643L-16.225,59.357L-16.156,56.286L-16.088,53.357L-16.019,53.786L-15.951,52L-15.882,51.214L-15.814,51.929L-15.745,51.714L-15.677,45.786L-15.609,42.357L-15.54,41.571L-15.472,40.357L-15.403,40.071L-15.335,40.643L-15.266,40.5L-15.198,36.214L-15.129,29.429L-15.061,23.786L-14.993,21.071L-14.924,19.214L-14.856,22.143L-14.787,23.857L-14.719,20.286L-14.65,17.786L-14.582,18.214L-14.513,18.071L-14.445,21.143L-14.377,24.429L-14.308,25.857L-14.24,24L-14.171,21.643L-14.103,21.214L-14.034,21.5L-13.966,23.143L-13.897,27.5L-13.829,30.571L-13.761,28.286L-13.692,26.643L-13.624,28.5L-13.555,28.929L-13.487,29L-13.418,32.714L-13.35,34.643L-13.281,31.071L-13.213,28.143L-13.145,28.786L-13.076,32L-13.008,34L-12.939,38.929L-12.871,41.857L-12.802,39.786L-12.734,37.786L-12.665,39.5L-12.597,39.714L-12.529,42.214L-12.46,45.214L-12.392,45.714L-12.323,41.214L-12.255,36.071L-12.186,34.929L-12.118,33.143L-12.049,32.214L-11.981,34.786L-11.913,35.571L-11.844,32.786L-11.776,30.214L-11.707,28.571L-11.639,28.214L-11.57,29L-11.502,32.143L-11.433,34.143L-11.365,30L-11.296,26.071L-11.228,27.143L-11.16,27.857L-11.091,28L-11.023,30.429L-10.954,33.929L-10.886,31.571L-10.817,29.857L-10.749,28.5L-10.68,28.429L-10.612,29.714L-10.544,32.929L-10.475,34.643L-10.407,31.929L-10.338,30.286L-10.27,31.929L-10.201,35.643L-10.133,37L-10.064,41.571L-9.996,46.357L-9.928,46.786L-9.859,46L-9.791,47.714L-9.722,47.714L-9.654,49.929L-9.585,53.5L-9.517,57.071L-9.448,54.071L-9.38,52.071L-9.312,53.286L-9.243,55.357L-9.175,56L-9.106,58.857L-9.038,62.5L-8.969,61.429L-8.901,59.5L-8.832,60.143L-8.764,60.857L-8.696,63L-8.627,66.571L-8.559,68.143L-8.49,66.286L-8.422,65.286L-8.353,67.143L-8.285,68L-8.216,70.071L-8.148,71.571L-8.08,74.786L-8.011,73.929L-7.943,72.857L-7.874,70.857L-7.806,71.786L-7.737,72.286L-7.669,76L-7.6,79.143L-7.532,79.429L-7.463,78L-7.395,79.5L-7.327,81.357L-7.258,83.143L-7.19,86.5L-7.121,89.571L-7.053,89.214L-6.984,88.786L-6.916,89.643L-6.847,90.929L-6.779,92L-6.711,94.857L-6.642,97.429L-6.574,96.5L-6.505,95.786L-6.437,97.286L-6.368,97.714L-6.3,98.857L-6.231,100.571L-6.163,102.143L-6.095,101.571L-6.026,101.643L-5.958,102.286L-5.889,102.143L-5.821,104.429L-5.752,106.214L-5.684,108.214L-5.615,107.929L-5.547,107.714L-5.479,107.714L-5.41,108.786L-5.342,110.786L-5.273,112.5L-5.205,114.357L-5.136,114.143L-5.068,112.929L-4.999,113.286L-4.931,112.929L-4.863,113.643L-4.794,115.143L-4.726,116.143L-4.657,115.143L-4.589,114.429L-4.52,115.071L-4.452,116.714L-4.383,117.357L-4.315,118.857L-4.247,119.714L-4.178,118.786L-4.107,117.714L-4.038,118.643L-3.97,118.214L-3.901,117.786L-3.833,119.429L-3.765,119.929L-3.696,119.357L-3.628,118L-3.559,118.143L-3.491,118.643L-3.422,118.5L-3.354,119.571L-3.285,120.5L-3.217,119.857L-3.149,118.429L-3.08,117.571L-3.012,117.929L-2.943,118L-2.875,119.571L-2.806,120.5L-2.738,119.786L-2.669,119.714L-2.601,119.714L-2.533,119.571L-2.464,120.357L-2.396,120.214L-2.327,120.571L-2.259,120.214L-2.19,119.143L-2.122,119.5L-2.053,120.286L-1.985,121.071L-1.916,121.857L-1.848,123.357L-1.78,121.929L-1.711,121.643L-1.643,121.357L-1.574,121.929L-1.506,122.214L-1.437,122.5L-1.369,123.5L-1.3,122.357L-1.232,121.786L-1.164,121.786L-1.095,123.071L-1.027,123.357L-0.958,124.214L-0.89,125.071L-0.821,124.929L-0.753,124.143L-0.684,124.214L-0.616,124.429L-0.548,124.643L-0.479,126L-0.411,126.357L-0.342,125.286L-0.274,124.143L-0.205,123.571L-0.137,124.143L-0.068,124.786L0,124.643L0.068,123.214L0.137,121.857L0.205,120.786L0.274,120.643L0.342,119.571L0.411,120.286L0.479,120.929L0.548,120.286L0.616,118.357L0.684,116.929L0.753,116.857L0.821,116.714L0.89,117.429L0.958,117.857L1.027,118.786L1.095,117L1.164,114.429L1.232,113.429L1.3,113.214L1.369,113.214L1.437,112.929L1.506,110.571L1.643,107.929L1.711,105.571L1.78,104.143L1.848,103.5L1.916,103.786L1.985,102.714L2.053,100.143L2.122,98.929L2.19,97.857L2.259,98.143L2.327,97.5L2.396,99L2.464,100L2.533,98L2.601,96.214L2.669,96.143L2.738,96.071L2.806,95.786L2.875,95.857L2.943,95.857L3.012,93.357L3.08,91.429L3.149,89.714L3.217,89.143L3.285,90.214L3.354,91L3.422,91.643L3.491,90.429L3.559,89.857L3.628,92.214L3.696,93.643L3.765,95.143L3.833,97.357L3.901,98.929L3.97,98.071L4.038,98.643L4.107,99.929L4.175,98.786L4.244,100.143L4.312,100.786L4.381,102.071L4.449,101.071L4.517,99.786L4.586,100.071L4.654,100.714L4.723,100.286L4.791,101.857L4.86,103.214L4.928,102.143L4.994,100.929L5.062,101.286L5.131,101.143L5.199,101.5L5.268,103.429L5.336,104.429L5.404,102.929L5.473,100.643L5.541,100.786L5.61,100.071L5.678,99.143L5.747,99.357L5.815,99.571L5.884,98.786L5.952,98L6.02,98.429L6.089,97.929L6.157,98.214L6.226,100.714L6.294,101.286L6.363,99.571L6.431,98.071L6.5,97.857L6.568,98.714L6.636,99.286L6.705,100.071L6.773,101.643L6.842,99.357L6.91,97.857L6.979,98.643L7.047,97.929L7.116,97.571L7.184,99.214L7.252,100.357L7.321,99.857L7.389,98.5L7.458,98.5L7.526,99.214L7.595,99.857L7.663,101.857L7.732,103L7.8,101.5L7.868,100.357L7.937,99.214L8.005,97.714L8.074,96.357L8.142,96.643L8.211,96.429L8.279,94.857L8.348,91L8.416,88.929L8.484,86.5L8.553,85.5L8.621,84.357L8.69,84.714L8.758,82L8.827,78.786L8.895,78.214L8.964,76.357L9.032,75.214L9.101,76.571L9.169,78.143L9.237,76.214L9.306,73.5L9.374,71.143L9.443,69.786L9.511,67.643L9.58,68.714L9.648,69.214L9.717,65.643L9.785,63.571L9.853,62.929L9.922,62.571L9.99,62.714L10.059,64.643L10.127,66.643L10.196,64.857L10.264,62.143L10.333,60.571L10.401,63L10.469,65.214L10.538,68.714L10.606,70.286L10.675,72.071L10.743,70.214L10.812,70.071L10.88,70.429L10.949,71.429L11.017,73.857L11.085,75.429L11.154,73.5L11.222,70.786L11.291,70.429L11.359,69.929L11.428,71.214L11.496,74.286L11.565,77.143L11.633,75.071L11.701,72.929L11.77,73.143L11.838,73.143L11.907,73.214L11.975,74.071L12.044,75.429L12.112,72.714L12.181,69.286L12.249,66.786L12.317,67.286L12.386,67L12.454,67.714L12.523,68.214L12.591,64.714L12.66,60.571L12.728,56.214L12.797,55.5L12.865,55.071L12.933,56.5L13.002,57.286L13.07,54.214L13.139,51.643L13.207,49.643L13.276,49.429L13.344,49L13.413,51.714L13.481,53.286L13.55,49.714L13.618,46.929L13.686,45.786L13.755,45.429L13.823,46.786L13.892,48.714L13.96,50.643L14.029,48.786L14.097,45.786L14.166,46.286L14.234,47.714L14.302,51.286L14.371,53.429L14.439,57L14.508,56.071L14.576,55.143L14.645,55.357L14.713,57.786L14.782,60.071L14.85,63.143L14.918,66.071L14.987,66.929L15.055,65.571L15.124,67L15.192,68.643L15.261,70.571L15.329,73.929L15.398,76.429L15.466,74.857L15.534,72.143L15.603,73.571L15.671,75.214L15.74,76.571L15.808,79.214L15.877,81L15.945,79.5L16.014,78.643L16.082,79.5L16.15,81.571L16.219,82.571L16.287,84.786L16.356,86.429L16.424,86L16.493,85.143L16.561,85.714L16.63,86.143L16.698,89.143L16.766,91.286L16.835,93.071L16.903,91.929L16.972,91.286L17.04,91L17.109,93L17.177,95.286L17.246,96.643L17.314,99.429L17.383,99.286L17.451,98.214L17.519,98.714L17.588,100.429L17.656,102.357L17.725,104.429L17.793,107.143L17.862,104.929L17.93,103.857L17.999,105.357L18.067,105.214L18.135,106.429L18.204,108.143L18.272,110.071L18.341,109.357L18.409,109.143L18.478,109.857L18.546,110.429L18.615,111.429L18.683,113.5L18.751,114.571L18.82,114.5L18.888,113.286L18.957,114.143L19.025,114.929L19.094,115.357L19.162,116.071L19.231,116.714L19.299,116.071L19.367,116.429L19.436,116.714L19.504,117.429L19.573,118.929L19.641,120.214L19.71,120.857L19.778,120.214L19.847,119.143L19.915,121L19.983,121.357L20.052,121.714L20.12,123.5L20.189,124.429L20.257,123.786L20.326,123.357L20.394,124.071L20.463,124.857L20.531,125.5L20.599,125.857L20.668,126.714L20.736,126.286L20.805,125.429L20.873,123.929L20.942,124.071L21.01,124.286L21.079,125L21.147,125.5L21.215,125.143L21.287,124.286L21.355,123.643L21.424,122.857L21.492,122.643L21.561,123.429L21.629,123.786L21.697,123.429L21.766,122.5L21.834,122.714L21.903,122.929L21.971,123.429L22.04,124.643L22.108,125.071L22.177,124L22.245,123L22.313,122.571L22.382,122.786L22.45,123.071L22.519,123L22.587,123.643L22.656,123.857L22.724,122.643L22.793,122.929L22.861,123.143L22.93,125.429L22.998,127.071L23.066,128L23.135,127.5L23.203,126.357L23.272,125.929L23.34,125.214L23.409,126.571L23.477,127.5L23.546,127.929L23.614,127.214L23.682,126.571L23.751,126.071L23.819,125.857L23.888,125.929L23.956,126.643L24.025,126.643L24.093,126.357L24.162,124.571L24.23,123.357L24.298,123.429L24.367,123.714L24.435,123.071L24.504,123.143L24.572,121.286L24.641,118.429L24.709,114.429L24.778,113.214L24.846,111.5L24.914,111.571L24.983,111.214L25.051,109.714L25.12,108.929L25.188,107.786L25.257,108.143L25.325,108L25.394,109L25.462,109.429L25.53,107.786L25.599,106.571L25.667,106.714L25.736,107.071L25.804,107.643L25.873,108.286L25.941,108.071L26.01,105.357L26.078,103L26.146,101.214L26.215,101.857L26.283,103.071L26.352,103.643L26.42,104.286L26.489,104.929L26.557,103L26.626,103.643L26.694,105.286L26.762,107.929L26.831,109.571L26.899,111.286L26.968,110.357L27.036,108.643L27.105,108.786L27.173,108.214L27.242,109.143L27.31,109.929L27.379,111.143L27.447,110.857L27.515,109.571L27.584,109.929L27.652,110.857L27.721,111.143L27.789,111.5L27.858,112.143L27.926,111.643L27.995,112.643L28.063,115.286L28.131,117.643L28.2,119L28.268,119.929L28.337,120.643L28.405,119.5L28.474,117.929L28.542,116.857L28.611,117.786L28.679,117.786L28.747,118.214L28.816,119.214L28.884,118L28.953,116.643L29.021,116L29.09,116.214L29.158,115.929L29.227,116.357L29.295,116.286L29.363,113.786L29.432,110.857L29.5,108.214L29.569,107.429L29.637,106L29.706,105.571L29.774,105.571L29.843,103.714L29.908,101.357L29.977,98.214L30.045,96.643L30.114,94.857L30.182,94.786L30.25,95L30.319,92.214L30.387,91.286L30.456,90.857L30.524,89.5L30.593,88.857L30.661,89.214L30.73,90.071L30.798,88.286L30.866,86.714L30.935,85.214L31.003,83.714L31.072,83.143L31.14,83.357L31.209,84L31.277,82.214L31.346,80.5L31.414,81.286L31.482,81.5L31.551,82.714L31.619,83.786L31.688,85.357L31.756,82.357L31.825,79.286L31.893,78.429L31.962,78.429L32.03,80.429L32.098,81.5L32.167,83L32.235,80.714L32.304,77.571L32.372,77L32.441,74.714L32.509,72.786L32.578,74.5L32.646,75.571L32.714,72.643L32.783,69.857L32.851,69.5L32.92,69L32.988,71.071L33.057,73.286L33.125,75.286L33.194,76.357L33.262,73.143L33.33,72.571L33.399,72.643L33.467,70.714L33.536,71.857L33.604,73.571L33.673,71.643L33.741,69.786L33.81,70.214L33.878,70.786L33.946,71.357L34.015,72.786L34.083,74.143L34.152,70.143L34.22,67.143L34.289,66.143L34.357,65.286L34.426,63.714L34.494,65.929L34.563,68.286L34.631,63.786L34.699,62L34.768,61.429L34.836,60.571L34.905,59.214L34.973,60.143L35.042,59.786L35.11,55.929L35.179,52.643L35.247,48.5L35.315,48L35.384,47.786L35.452,48.857L35.521,51.571L35.589,50.643L35.658,49.571L35.726,48.357L35.795,47.286L35.863,47.571L35.931,49.929L36,50.429L36.068,46.357L36.137,42.286L36.205,41.643L36.274,41.857L36.342,42L36.411,45.357L36.479,49.071L36.547,45.714L36.616,43.429L36.684,45.143L36.753,44.071L36.821,44.5L36.89,47.429L36.958,49.857L37.027,47.929L37.095,44.286L37.163,43.357L37.232,43.286L37.3,44.643L37.369,47.857L37.437,50.786L37.506,47.643L37.574,43.786L37.643,42.071L37.711,39.429L37.779,41.143L37.848,43.5L37.916,45.357L37.985,43.429L38.053,40.5L38.122,41.214L38.19,42.5L38.259,45.071L38.327,47.643L38.396,50.5L38.464,47.286L38.532,45.643L38.601,47.5L38.669,48.643L38.738,49.786L38.806,52.929L38.875,56.286L38.943,54.571L39.012,53.429L39.08,52.357L39.148,55.286L39.217,59.143L39.285,62.571L39.354,65.571L39.422,64.429L39.491,62.143L39.559,63.357L39.628,66.143L39.696,67.571L39.764,71.357L39.833,73.214L39.901,74.071L39.97,71.5L40.038,71.929L40.107,74L40.175,75.786L40.244,79L40.312,81.071L40.38,79.857L40.449,78.286L40.517,79.5L40.586,80.929L40.654,81.214L40.723,83.5L40.791,85.929L40.86,84.929L40.928,83.143L40.996,84.286L41.065,84.857L41.133,87.643L41.202,89.286L41.27,90.571L41.339,90.143L41.407,88.214L41.476,88.214L41.544,89.571L41.612,91.286L41.681,93.429L41.749,95.429L41.818,94.786L41.886,93.429L41.955,92.857L42.023,95.143L42.092,96.214L42.16,98.143L42.228,100.286L42.297,100.429L42.365,99.071L42.434,99.143L42.502,100.571L42.571,102.143L42.639,103.357L42.708,105.714L42.776,105.071L42.845,104.714L42.913,104.571L42.981,105.929L43.05,106.714L43.118,108.786L43.187,110.643L43.255,109.786L43.324,109.071L43.392,109.286L43.461,110.214L43.529,112L43.597,113.286L43.666,114.429L43.734,112.929L43.803,112.571L43.871,112.286L43.94,113.071L44.008,113.643L44.077,114.857L44.145,116.214L44.213,114.714L44.282,114.643L44.35,114L44.419,114.357L44.487,116.143L44.556,116.929L44.624,118.429L44.693,118.429L44.761,117.786L44.829,117.714L44.898,117.929L44.966,118.786L45.035,119.5L45.103,120.286L45.172,118.929L45.24,118L45.309,119.214L45.377,120.143L45.445,121.071L45.514,122L45.582,122.286L45.651,121.571L45.719,121.357L45.788,122.071L45.856,123L45.925,124.357L45.993,124.643L46.061,124.714L46.13,124.214L46.201,123.071L46.27,124.571L46.338,124.786L46.407,124.429L46.475,124.571L46.543,124.286L46.612,124.286L46.68,124.071L46.749,124.571L46.817,125.5L46.886,126.214L46.954,126.5L47.023,127.071L47.091,126.929L47.159,126.571L47.228,128.143L47.296,129L47.502,129.357L47.57,129.071L47.639,127.857L47.707,128.143L47.775,128.286L47.844,129.286L47.912,130.214L47.981,131.214L48.049,131L48.118,130.5L48.186,131.5L48.255,131.857L48.323,132.857L48.392,133.286L48.46,132.643L48.597,131.714L48.665,130.857L48.734,129.286L48.802,128L48.871,127.643L48.939,127.143L49.008,124.929L49.076,123.357L49.144,121.143L49.213,120.786L49.281,120.929L49.35,121.071L49.418,119.5L49.487,118.357L49.555,116.929L49.624,116.143L49.692,115.357L49.76,116.5L49.829,116.071L49.897,114.714L49.966,112.714L50.034,111L50.103,110.071L50.171,109.429L50.24,110.143L50.308,110.143L50.376,108.714L50.513,107.214L50.582,106.714L50.65,105.5L50.719,104.286L50.787,105.643L50.856,107.429L50.924,106.429L50.992,104.286L51.061,101.857L51.129,100.571L51.198,100.357L51.266,101.786L51.335,102L51.403,101.071L51.472,99.071L51.54,99L51.608,96.786L51.677,96.571L51.745,96.286L51.814,96.571L51.882,92.786L51.951,90.5L52.019,88.786L52.088,87.714L52.156,87.5L52.225,86.071L52.293,85.429L52.361,82.143L52.43,79.429L52.498,80.214L52.567,79.643L52.635,78.714L52.704,79.929L52.772,81.714L52.841,79.5L52.909,78.643L52.977,79.5L53.046,79.857L53.114,81.357L53.183,83.857L53.251,85.286L53.32,84.214L53.388,83.5L53.457,83.643L53.525,83.714L53.593,84.357L53.662,87.286L53.73,88.786L53.799,87.429L53.867,86.571L53.936,88.857L54.004,90.429L54.073,92.5L54.141,95.214L54.209,96.857L54.278,98.286L54.346,98.5L54.415,99.357L54.483,99.929L54.552,100L54.62,101.643L54.689,103.643L54.757,102.786L54.823,100L54.891,101.429L54.96,101.786L55.028,101.643L55.096,103.071L55.165,104.357L55.233,102.143L55.302,100L55.37,100.071L55.439,99.571L55.507,99.5L55.576,101.357L55.644,102.5L55.712,100.929L55.781,98.857L55.849,98.071L55.918,97.214L55.986,96.857L56.055,97.5L56.123,97.571L56.192,96.143L56.26,94L56.328,91.714L56.397,90.429L56.465,88.5L56.534,89.786L56.602,89.071L56.671,85.143L56.739,83.143L56.808,82L56.876,82.5L56.944,82.071L57.013,82.643L57.081,84.357L57.15,82.571L57.218,79.643L57.287,80.071L57.355,79.714L57.424,78.571L57.492,79.5L57.56,79.429L57.629,75.5L57.697,71.786L57.766,70.5L57.834,68.714L57.903,68.071L57.971,69.643L58.04,69.929L58.108,68.357L58.176,64.857L58.245,62.643L58.313,60.714L58.382,59.5L58.45,60.929L58.519,63.571L58.587,59.857L58.656,56.857L58.724,57.214L58.792,56.143L58.861,56.643L58.929,58L58.998,59.143L59.066,57L59.135,53.429L59.203,52.571L59.272,52.357L59.34,51.357L59.409,52.571L59.477,55L59.545,51.071L59.614,47.571L59.682,46.643L59.751,46.714L59.819,47.786L59.888,50.214L59.956,52.286L60.025,50.714L60.093,49L60.161,48L60.23,49.857L60.298,50.214L60.367,52.929L60.435,56.357L60.504,55.214L60.572,52.714L60.641,56L60.709,54.214L60.777,54.214L60.846,55.786L60.914,57.5L60.983,55.571L61.051,54L61.12,52.5L61.188,51.929L61.257,51.929L61.325,54.286L61.393,57.286L61.462,55.786L61.53,53.429L61.599,52.429L61.667,51.143L61.736,53.929L61.804,56.5L61.873,57.643L61.941,55.071L62.009,52.643L62.078,51.214L62.146,48.786L62.215,49.071L62.283,50.429L62.352,52.857L62.42,49.643L62.489,45.929L62.557,45.786L62.625,45.643L62.694,44.143L62.762,48.286L62.831,50.643L62.899,47.929L62.968,44.357L63.036,41.286L63.105,39.5L63.173,40.143L63.242,42.786L63.31,44.5L63.378,38.714L63.447,34.5L63.515,33.714L63.584,32.071L63.652,34.643L63.721,39.929L63.789,40.857L63.858,37.286L63.926,34L63.994,35.143L64.063,36.643L64.131,37.857L64.2,42.929L64.268,44.286L64.337,41.643L64.405,37.643L64.474,38.714L64.542,39.357L64.61,39L64.679,42.5L64.747,44.857L64.816,47L64.884,44.5L64.953,44.786L65.021,46.357L65.09,50.429L65.158,52.786L65.226,55.643L65.295,54.929L65.363,52.429L65.432,56.571L65.5,58L65.569,59.214L65.637,63L65.706,65.5L65.774,62.643L65.842,61.714L65.911,63L65.979,64.714L66.048,65.5L66.116,68L66.185,70.214L66.253,67.786L66.322,66.714L66.39,67.929L66.458,71.857L66.527,72.714L66.595,75.857L66.664,78.143L66.732,76L66.801,73.143L66.869,69.643L66.938,71.143L67.006,73.786L67.074,76.357L67.143,77.857L67.211,78.714L67.28,76.571L67.348,76.214L67.417,76.5L67.485,76.429L67.554,79.071L67.622,81L67.691,79.357L67.759,78.214L67.827,78.357L67.896,79.071L67.964,81.357L68.033,83.5L68.101,85.643L68.17,84.286L68.238,83.143L68.307,84.429L68.375,85.571L68.443,86.571L68.512,87.714L68.58,90.214L68.649,88.786L68.717,88.786L68.786,90.429L68.854,91.857L68.923,94L68.991,96.143L69.059,96.857L69.128,96.429L69.196,96.643L69.265,95.357L69.333,97.214L69.402,98.786L69.47,102.286L69.539,104.714L69.607,105.143L69.675,103.929L69.744,104.929L69.812,105.929L69.881,108.143L69.949,109.214L70.018,110.5L70.086,109.214L70.155,108.714L70.223,109.143L70.291,111L70.36,111.857L70.428,112.929L70.497,114.143L70.565,112.5L70.634,111.286L70.702,112.5L70.771,111.786L70.839,111L70.907,112.5L70.976,113.929L71.044,112.214L71.116,111.786L71.184,111.643L71.253,111.214L71.321,112.643L71.389,113.714L71.458,114.929L71.526,114.429L71.595,114L71.663,113.714L71.732,115L71.8,116L71.869,116.714L71.937,117.357L72.005,116.429L72.074,115.143L72.142,116.5L72.211,115.786L72.279,115.5L72.348,115.071L72.416,115.714L72.485,115.143L72.553,116L72.621,116.286L72.69,117.357L72.758,117.643L72.827,118.643L72.895,120.357L72.964,120.143L73.032,119.714L73.101,120.429L73.169,119.714L73.238,118.857L73.306,119.643L73.374,120.071L73.443,119L73.511,118.143L73.58,118.143L73.648,118.071L73.717,118.5L73.785,119L73.854,119.571L73.922,118.857L73.99,118.643L74.059,118.571L74.127,119.286L74.196,119.214L74.264,120.143L74.333,121L74.401,121.429L74.47,121.143L74.538,121.357L74.606,120.429L74.675,119.071L74.743,119.286L74.812,119.643L74.88,119.5L74.949,118.857L75.017,118.929L75.086,118.429L75.154,119.143L75.222,120.857L75.291,122.571L75.359,122L75.428,121.143L75.496,120.857L75.565,119.786L75.633,119.571L75.702,120.214L75.77,120.357L75.838,119.571L75.907,118.857L75.975,118.786L76.044,118.714L76.112,119.357L76.181,119.643L76.249,120L76.318,119.429L76.386,118.643L76.454,117.929L76.523,117.143L76.591,116.786L76.66,117.286L76.728,119.429L76.797,117.714L76.865,116.429L76.934,115.929L77.002,116.143L77.07,115.286L77.139,116.143L77.207,116.357L77.276,114.857L77.344,114.143L77.413,114.286L77.481,114.714L77.55,114.929L77.618,116.286L77.687,116.929L77.755,115.786L77.823,114.429L77.892,113.929L77.96,113.214L78.029,112.929L78.097,113.643L78.166,114.286L78.234,113.143L78.303,111.214L78.371,110.143L78.439,110.286L78.508,109.214L78.576,110.143L78.645,110.786L78.713,109.071L78.782,108.643L78.85,108.429L78.919,108.571L78.987,107.857L79.055,108.429L79.124,109.214L79.192,106.643L79.261,105.714L79.329,105.286L79.398,104.214L79.466,103.714L79.535,103.857L79.603,104.571L79.671,102.786L79.737,101.214L79.805,101.286L79.874,101.5L79.942,101.786L80.011,102.571L80.079,103.429L80.148,101.571L80.216,99.857L80.285,99.357L80.353,99.071L80.422,99.143L80.49,99.071L80.558,100.071L80.627,98.643L80.695,96.5L80.764,96.214L80.832,95.5L80.901,96L80.969,97.071L81.038,97.929L81.106,95.714L81.174,94.357L81.243,94.143L81.311,92.5L81.38,91.357L81.448,92.5L81.517,92.429L81.585,90.286L81.654,87.714L81.722,86.786L81.79,85.429L81.859,84.929L81.927,86L81.996,86.714L82.064,84.929L82.133,82.571L82.201,83L82.27,82.071L82.338,81.071L82.406,82.786L82.475,83.857L82.543,81.071L82.612,78.429L82.68,76.929L82.749,76.5L82.817,76.143L82.886,76.929L82.954,78.071L83.022,77.571L83.091,73.786L83.159,71.714L83.228,70.214L83.296,69.786L83.365,71.286L83.433,73.429L83.502,68.643L83.57,65.786L83.638,64.929L83.707,64.929L83.775,64.143L83.844,66.357L83.912,67.357L83.981,64.286L84.049,59.929L84.118,58.286L84.186,57.786L84.255,55.429L84.323,57.286L84.391,59.429L84.46,55.143L84.528,51.786L84.597,52.286L84.665,53L84.734,52.143L84.802,53.786L84.871,55.714L84.939,50.5L85.007,46.214L85.076,43.214L85.144,44.286L85.213,45.929L85.281,47.214L85.35,49.571L85.418,47.786L85.487,44.857L85.555,47.714L85.623,50.929L85.692,52.429L85.76,55.071L85.829,57.857L85.897,55.286L85.966,53.429L86.034,53.214L86.103,56.429L86.171,57.929L86.239,59.571L86.308,62.286L86.376,59.786L86.445,55.786L86.513,56.857L86.582,56.357L86.65,55.786L86.719,57L86.787,59.571L86.855,55.929L86.924,51L86.992,51.786L87.061,50.357L87.129,51.357L87.198,52.714L87.266,53.214L87.335,50L87.403,45.857L87.471,44.5L87.54,41.071L87.608,37.643L87.677,36.929L87.745,37.714L87.814,32.429L87.882,28.571L87.951,27.714L88.019,26.571L88.087,25.286L88.156,25.929L88.224,27L88.293,24L88.361,20.214L88.43,19.643L88.498,21.214L88.567,20.714L88.635,24.143L88.704,26.714L88.772,23.071L88.84,22.571L88.909,23.357L88.977,24.929L89.046,27.643L89.114,32.286L89.183,33.429L89.251,31.071L89.32,30.643L89.388,33.071L89.456,35.714L89.525,38.143L89.593,43.929L89.662,48.571L89.73,49.357L89.799,47L89.867,50.357L89.936,51.786L90.004,53.286L90.072,56.071L90.141,60.214L90.209,56.571L90.278,56.071L90.346,57.786L90.415,60.786L90.483,62.357L90.552,65.143L90.62,69L90.688,67.143L90.757,66.429L90.825,69.071L90.894,69.5L90.962,71.429L91.031,74.857L91.099,76.714L91.168,75.714L91.236,74.714L91.304,78L91.373,79.071L91.441,80.786L91.51,82.786L91.578,84.714L91.647,84.643L91.715,84.286L91.784,84L91.852,86.786L91.92,88.143L91.989,91.786L92.057,94.5L92.126,94.429L92.194,93.929L92.263,97.929L92.331,99.071L92.4,100.714L92.468,102.429L92.537,105L92.605,104.643L92.673,103.643L92.742,105.857L92.81,106.786L92.879,108.286L92.947,109.857L93.016,111.786L93.084,111.357L93.153,110.643L93.221,111.857L93.289,113.071L93.358,113.571L93.426,115.357L93.495,116.214L93.563,115.357L93.632,114L93.7,114.643L93.769,115.643L93.837,115.071L93.905,115.643L93.974,116.714L94.042,115.571L94.111,115L94.179,115.071L94.248,115.714L94.316,116.071L94.385,116.786L94.453,117.714L94.521,117.714L94.59,116.429L94.658,116.5L94.727,117.357L94.795,117.786L94.864,119.143L94.932,120.214L95.001,119.571L95.069,119.286L95.137,119.714L95.206,120.429L95.274,121.214L95.343,122.786L95.411,123.714L95.48,122.714L95.548,122.143L95.617,122.5L95.685,124.286L95.753,124.857L95.822,125.5L95.89,127.143L95.959,126.643L96.03,126.214L96.099,127L96.167,127.071L96.235,127.643L96.304,128.214L96.372,128.429L96.441,127.714L96.509,126.786L96.578,126.357L96.646,126.571L96.715,126.714L96.783,127.143L96.851,127.429L96.92,126.214L96.988,124.429L97.057,124.429L97.125,124.5L97.194,124.429L97.262,125.214L97.331,125.571L97.399,124.429L97.467,124.143L97.536,125.143L97.604,125.357L97.673,125.571L97.741,125.429L97.81,125.786L97.878,124.929L97.947,124.143L98.015,125L98.084,124.714L98.152,124L98.22,124.786L98.289,125L98.357,123.857L98.426,123L98.494,123.214L98.563,124.429L98.631,124.214L98.7,124.857L98.768,125.357L98.836,123.857L98.905,122.5L98.973,122.429L99.042,122.929L99.11,123.357L99.179,123.857L99.247,124.643L99.316,124.143L99.384,123.714L99.452,124.429L99.521,123.786L99.589,122.571L99.658,123.143L99.726,123.786L99.795,122.5L99.863,121.714L99.932,122.286L100,122.143L100.068,121.429L100.137,122.071L100.205,122.929L100.274,121.429L100.342,121.143L100.411,121.5L100.479,121.429L100.548,121.143L100.616,120.929L100.684,121.143L100.753,120.929L100.821,120L100.89,120.357L100.958,121.357L101.027,121.5L101.095,122.571L101.164,122.786L101.232,122.643L101.3,120.929L101.369,120.5L101.437,120.643L101.506,120.214L101.574,120.857L101.643,122L101.711,121.071L101.78,120L101.848,120.643L101.916,120.786L101.985,120.5L102.053,121.571L102.122,122.286L102.19,121.643L102.259,121.357L102.327,121.929L102.396,122.071L102.464,122.429L102.533,123.286L102.601,123.786L102.669,122.929L102.738,122.5L102.806,122.214L102.875,122.214L102.943,123.143L103.012,123.643L103.08,124.929L103.149,125.071L103.217,124.857L103.285,124.857L103.354,126.357L103.422,127.071L103.491,127.429L103.559,128.357L103.628,128.429L103.696,128.143L103.765,129.357L103.833,130.429L103.901,131L103.97,131.429L104.038,132.286L104.107,131.643L104.175,131.714L104.244,132.643L104.312,133.286L104.381,134.357L104.449,134.786L104.517,135L104.586,135.286L104.651,135.857L104.72,136.571L104.788,137.786L104.857,138.857L104.925,140.071L104.994,140.429L105.062,140.357L105.131,140.286L105.199,140.214L105.268,140.571L105.336,140.786L105.404,140.929L105.473,141.071L105.541,141.143L105.61,141.214L105.678,141.429L105.747,141.214L105.815,141.143L105.884,141.429L105.952,141.214L106.02,141.5L106.089,140.929L106.157,141.286L106.226,141.143L106.294,141L106.363,141L106.5,140.357L106.568,139.857L106.636,139.5L106.705,139.5L106.773,139.143L106.842,139.643L106.91,139.714L106.979,139L107.047,138.286L107.116,137.429L107.184,136.714L107.252,135.929L107.321,135.857L107.389,135.857L107.458,135L107.526,134.5L107.595,133.357L107.663,132.786L107.732,131.643L107.8,130.643L107.868,130.786L107.937,130.214L108.005,129.071L108.074,128.714L108.142,127.786L108.211,127.786L108.279,127.857L108.348,127.357L108.416,126.714L108.484,125.5L108.553,125.429L108.621,125.286L108.69,124.214L108.758,123.857L108.827,123.571L108.895,122.143L108.964,121L109.032,120.071L109.101,118.214L109.169,117.571L109.237,117.429L109.306,117.5L109.374,115.929L109.443,115.214L109.511,113.857L109.58,112.857L109.648,112.143L109.717,111.643L109.785,112.286L109.853,110.786L109.922,108.929L109.99,106.857L110.059,106.571L110.127,104.786L110.196,105L110.264,104.071L110.333,101.5L110.401,100.071L110.469,99.071L110.538,97L110.606,96.357L110.675,96.929L110.743,97.429L110.812,94.714L110.88,91.857L110.949,90.286L111.017,89.5L111.085,88.929L111.154,89.714L111.222,89.714L111.291,87.143L111.359,84.857L111.428,83.357L111.496,80.857L111.565,80.714L111.633,81.429L111.701,82.571L111.77,80.929L111.838,78.571L111.907,79.357L111.975,78.214L112.044,78.857L112.112,79.5L112.181,80.714L112.249,77.929L112.317,76.286L112.386,76.357L112.454,75.786L112.523,75.429L112.591,77.643L112.66,77.929L112.728,74.5L112.797,72.786L112.865,73.5L112.933,75.071L113.002,76.786L113.07,77.714L113.139,79.357L113.207,78.071L113.276,77.571L113.344,78.5L113.413,79L113.481,80.214L113.55,82.786L113.618,83.786L113.686,81.214L113.755,78.5L113.823,79.714L113.892,80.857L113.96,80.5L114.029,83.357L114.097,84.857L114.166,84.143L114.234,83.214L114.302,84.714L114.371,86.643L114.439,87.143L114.508,89.143L114.576,90.286L114.645,88.929L114.713,87.571L114.782,88.929L114.85,89.786L114.918,90.786L114.987,92.286L115.055,92.5L115.124,92.429L115.192,89.857L115.261,91.214L115.329,91.5L115.398,92.286L115.466,94.286L115.534,95.357L115.603,93L115.671,92.857L115.74,94.071L115.808,96.786L115.877,96.857L115.945,97.714L116.014,99.643L116.082,98.929L116.15,98.429L116.219,98.5L116.287,99.143L116.356,100.143L116.424,101.214L116.493,102.714L116.561,100.929L116.63,99.643L116.698,100.357L116.766,101.786L116.835,102.429L116.903,104.214L116.972,105.357L117.04,104.5L117.109,104.571L117.177,104.214L117.246,106.571L117.314,106.786L117.383,108.143L117.451,109.786L117.519,109.929L117.588,109.857L117.656,111.786L117.725,112.429L117.793,113.929L117.862,114.643L117.93,115.714L117.999,115.5L118.067,114.786L118.135,114.786L118.204,114.5L118.272,115.143L118.341,116.214L118.409,116.857L118.478,116.071L118.546,115.929L118.615,117L118.683,118.929L118.751,120L118.82,120.643L118.888,121.643L118.957,121.571L119.025,121.357L119.094,121.786L119.162,121.857L119.231,122.786L119.299,123.214L119.367,124.429L119.436,123.786L119.504,122.929L119.573,122.929L119.641,122.714L119.71,122.929L119.778,123.714L119.847,124.357L119.915,123.643L119.983,123.714L120.052,123.929L120.12,124.357L120.189,125.429L120.257,126.429L120.326,126.929L120.394,127.071L120.463,126.786L120.531,127.429L120.599,127.786L120.668,128.143L120.736,128.286L120.805,128.857L120.873,128.643L120.945,128.714L121.013,128.357L121.081,128.286L121.15,128.5L121.218,128.929L121.287,129.143L121.355,128.714L121.424,128.286L121.492,129.071L121.561,129.714L121.629,128.857L121.697,129.786L121.766,130.786L121.834,130.143L121.903,130.071L121.971,130.929L122.04,131.286L122.108,131.929L122.177,132.429L122.245,132.429L122.313,132.143L122.382,132L122.45,131.857L122.519,132L122.587,132.214L122.656,132.357L122.724,132.929L122.793,132.357L122.861,131.429L122.93,131.5L122.998,131.714L123.066,132L123.135,132L123.203,132.357L123.272,131.429L123.34,130.714L123.409,130.571L123.477,130.786L123.546,130.857L123.614,131.071L123.682,131.786L123.751,131.286L123.819,130.643L123.888,130.786L123.956,130.071L124.025,129.429L124.093,129L124.162,128.857L124.23,128.071L124.298,127.429L124.367,127.643L124.435,127.214L124.504,127L124.572,127.571L124.641,127.571L124.709,127.214L124.778,127.5L124.846,127.214L124.914,127.857L124.983,128.214L125.051,128.214L125.12,128.357L125.188,129L125.257,128.929L125.325,129.286L125.394,129.643L125.462,129.286L125.53,129.571L125.599,129.286L125.667,128.929L125.736,128.143L125.804,128.286L125.873,128.5L125.941,128.429L126.01,129.214L126.078,129.5L126.146,129.286L126.215,127.929L126.283,127.786L126.352,128.571L126.42,128.714L126.489,129.214L126.557,129.286L126.626,128.214L126.694,127.143L126.762,126.429L126.831,125.286L126.899,125.643L126.968,125.071L127.036,124.286L127.105,122.857L127.173,120.714L127.242,119.286L127.31,118.071L127.379,118.286L127.447,118.571L127.515,119.5L127.584,118.357L127.652,118L127.721,117L127.789,117.071L127.858,117.071L127.926,117.071L127.995,117.357L128.063,117L128.131,116.714L128.2,116.714L128.268,117L128.337,116.857L128.405,116.214L128.474,116.071L128.542,115.643L128.611,115.071L128.679,115.143L128.747,115.214L128.816,114.571L128.884,115.571L128.953,115.714L129.021,115.571L129.09,115.214L129.158,115.5L129.227,116.929L129.295,117.429L129.363,118.571L129.432,118.857L129.5,118L129.569,117.286L129.637,117.714L129.706,117.357L129.774,116.786L129.843,116.857L129.911,116.714L129.979,115.643L130.045,115.143L130.114,113.929L130.182,113.857L130.25,112.643L130.319,113.429L130.387,113.786L130.456,113L130.524,112.071L130.593,111.357L130.661,110.929L130.73,110.143L130.798,110.929L130.866,112.5L130.935,111.571L131.003,111.357L131.072,111.286L131.14,110.786L131.209,111.571L131.277,112.429L131.346,112.929L131.414,112.071L131.482,111.143L131.551,110.929L131.619,110.214L131.688,109.714L131.756,110.143L131.825,112L131.893,111.857L131.962,111.143L132.03,111L132.098,110.429L132.167,110.143L132.235,109.5L132.304,109.786L132.372,107.5L132.441,106.286L132.509,106.071L132.578,105.214L132.646,104.571L132.714,105L132.783,105.286L132.851,103.286L132.92,101.571L132.988,101.429L133.057,100.929L133.125,100.714L133.194,101.786L133.262,101.714L133.33,100.857L133.399,98.714L133.467,97.643L133.536,97.5L133.604,97.357L133.673,98L133.741,98.214L133.81,96.357L133.878,93.857L133.946,91.571L134.015,90.143L134.083,89.357L134.152,90.071L134.22,91L134.289,90.357L134.357,89.643L134.426,89.429L134.494,88.857L134.563,88.786L134.631,89.929L134.699,91.357L134.768,90.857L134.836,90.929L134.905,91.643L134.973,91.786L135.042,90.857L135.11,91.143L135.179,92.214L135.247,90.714L135.315,88.643L135.384,87.143L135.452,88.071L135.521,88.5L135.589,89L135.658,90.214L135.726,90.357L135.795,88.714L135.863,88.357L135.931,88.286L136,89.429L136.068,90.5L136.137,91.071L136.205,87.714L136.274,85.571L136.342,84.214L136.411,83.929L136.479,83.929L136.547,84.714L136.616,85.071L136.684,83.429L136.753,80.786L136.821,79.714L136.89,79.5L136.958,79.071L137.027,80.571L137.095,81.357L137.163,79.286L137.232,77.286L137.3,77.214L137.369,77.714L137.437,78.143L137.506,78.286L137.574,79.643L137.643,78.786L137.711,77L137.779,76.429L137.848,77.429L137.916,79.214L137.985,81.429L138.053,83.429L138.122,82L138.19,81.357L138.259,83.857L138.327,84.571L138.396,85.929L138.464,87.5L138.532,89.571L138.601,88.643L138.669,87.571L138.738,88.429L138.806,89.357L138.875,90.286L138.943,90.929L139.012,91L139.08,87.571L139.148,86.571L139.217,86.071L139.285,85.357L139.354,85.429L139.422,86.357L139.491,87.571L139.559,86.714L139.628,84.286L139.696,83.786L139.764,82L139.833,79.286L139.901,78.429L139.97,76.357L140.038,74.786L140.107,70.857L140.175,70L140.244,67.643L140.312,66.214L140.38,66.786L140.449,67.5L140.517,64.214L140.586,60.571L140.654,59.571L140.723,58.571L140.791,57.857L140.86,58.857L140.928,59.429L140.996,57.714L141.065,56.214L141.133,58L141.202,58.071L141.27,59.143L141.339,61.214L141.407,62.857L141.476,62.143L141.544,61L141.612,60.143L141.681,60.929L141.749,61.5L141.818,64.143L141.886,67.786L141.955,67L142.023,68.571L142.092,68.214L142.16,70.929L142.228,72.786L142.297,76.786L142.365,79.5L142.434,80.429L142.502,80.071L142.571,82.857L142.639,85.571L142.708,87.643L142.776,90.357L142.845,92.714L142.913,91.571L142.981,91.929L143.05,93.5L143.118,95.714L143.187,96.571L143.255,98.357L143.324,100.643L143.392,100L143.461,99L143.529,99.357L143.597,100.714L143.666,102.429L143.734,103.571L143.803,104.357L143.871,104.143L143.94,104.143L144.008,106.357L144.077,106.929L144.145,108.643L144.213,109.857L144.282,112L144.35,111.714L144.419,110.071L144.487,110.286L144.556,111.429L144.624,112.429L144.693,113.929L144.761,115.071L144.829,114.071L144.898,113.214L144.966,115.214L145.035,114.929L145.103,115.5L145.172,116.357L145.24,117.071L145.309,117.357L145.377,116.643L145.445,117.786L145.514,119.143L145.582,120.786L145.651,121.357L145.719,122.786L145.788,123.214L145.856,123.714L145.925,124.5L145.993,124.929L146.061,125.714L146.13,127.071L146.198,127.929L146.267,127.429L146.338,127L146.407,127.714L146.475,128.786L146.543,129L146.612,129.143L146.68,129.571L146.749,129.429L146.817,129.071L146.886,129.857L146.954,130.5L147.023,130.571L147.091,131.571L147.159,132.071L147.228,131.929L147.296,132.5L147.365,132.214L147.433,132.857L147.502,133.429L147.57,133.786L147.639,133.714L147.707,133.357L147.775,132.857L147.844,133L147.912,133.429L147.981,134.214L148.049,134.5L148.118,134.571L148.186,134.143L148.255,134.071L148.323,134.5L148.392,134.071L148.46,134.571L148.528,135.357L148.597,135.929L148.665,136.071L148.734,135.429L148.802,136L148.871,136.214L148.939,136.643L149.008,136.857L149.076,137L149.144,136.571L149.213,135.214L149.281,135.143L149.35,134.5L149.418,134.786L149.487,135.071L149.555,135L149.624,134.571L149.692,134.071L149.76,134.357L149.829,134.429L149.897,134.857L149.966,135.143L150.034,134.929L150.103,134.429L150.171,134.357L150.24,133.786L150.308,132.857L150.376,131.286L150.445,131.214L150.513,130.5L150.582,129.214L150.65,127.286L150.719,125.429L150.787,124.643L150.856,123.714L150.924,123.643L150.992,123.786L151.061,121.929L151.129,121.286L151.198,120.357L151.266,119.786L151.335,118.929L151.403,119.143L151.472,119.143L151.54,118.429L151.608,117.286L151.677,116.643L151.745,115.643L151.814,114.071L151.882,113.643L151.951,113.357L152.019,112.143L152.088,110.214L152.156,109.929L152.225,109.714L152.293,109.643L152.361,110.143L152.43,111.786L152.498,111.143L152.567,110.929L152.635,111.571L152.704,112.071L152.772,112.357L152.841,113.214L152.909,113.786L152.977,112.929L153.046,112.214L153.114,112.714L153.183,112.714L153.251,112.857L153.32,114.5L153.388,115.571L153.457,114.714L153.525,114.214L153.593,113.357L153.662,112.929L153.73,112.571L153.799,113.429L153.867,114.857L153.936,113.643L154.004,111.571L154.073,111.786L154.141,112.786L154.209,111.571L154.278,111.571L154.346,111.786L154.415,111.071L154.483,109.857L154.552,110.786L154.62,110.5L154.689,109.357L154.757,109.714L154.825,111L154.894,109.429L154.96,107.571L155.028,106.857L155.096,106L155.165,106.429L155.233,106.714L155.302,107.786L155.37,106.857L155.439,106L155.507,105.786L155.576,105.143L155.644,105.214L155.712,105.929L155.781,106.5L155.849,105.929L155.918,104.429L155.986,103.571L156.055,104.643L156.123,104L156.192,104.357L156.26,105.357L156.328,104.071L156.397,102.286L156.465,102L156.534,101.929L156.602,101.857L156.671,101.5L156.739,102.357L156.808,101.5L156.876,100.714L156.944,101.429L157.013,101.857L157.081,102.714L157.15,104L157.218,104.429L157.287,103.643L157.355,102.214L157.424,101.643L157.492,100L157.56,99.143L157.629,99.5L157.697,98.643L157.766,96.5L157.834,93.643L157.903,92.571L157.971,91.143L158.04,92.071L158.108,92.071L158.176,92.714L158.245,92.357L158.313,89.214L158.382,87.429L158.45,85.357L158.519,83.643L158.587,83.643L158.656,83.071L158.724,81.429L158.792,77.929L158.861,76.214L158.929,73.5L158.998,70.929L159.066,71.214L159.135,71.071L159.203,66.5L159.272,63.643L159.34,61.714L159.409,61.286L159.477,60.643L159.545,62.214L159.614,63.643L159.682,62.5L159.751,60.714L159.819,60.214L159.888,60.286L159.956,61.071L160.025,63.357L160.093,64.071L160.161,62.929L160.23,59.786L160.298,56.714L160.367,59L160.435,60.143L160.504,64.143L160.572,66L160.641,66.643L160.709,64.571L160.777,65.071L160.846,66L160.914,65.5L160.983,68.071L161.051,71L161.12,69.571L161.188,68.714L161.257,70.143L161.325,70.357L161.393,71.714L161.462,72.643L161.53,74.286L161.599,71.929L161.667,68.286L161.736,67L161.804,66.714L161.873,66.357L161.941,68.5L162.009,67.643L162.078,62.714L162.146,58L162.215,56.571L162.283,56.071L162.352,56.714L162.42,57.5L162.489,58.786L162.557,55.643L162.625,54.143L162.694,50.429L162.762,51L162.831,51.286L162.899,53.571L162.968,56.214L163.036,54.571L163.105,52.429L163.173,52.357L163.242,51.929L163.31,53.929L163.378,55.786L163.447,56.286L163.515,54.857L163.584,52.286L163.652,52.571L163.721,54.571L163.789,56.5L163.858,59.857L163.926,62.643L163.994,61.286L164.063,61.429L164.131,64.214L164.2,67.571L164.268,69.214L164.337,72.786L164.405,75.214L164.474,73.429L164.542,72.143L164.61,72.357L164.679,73.786L164.747,76.929L164.816,78.571L164.884,80.071L164.953,80.5L165.021,80.429L165.09,81.5L165.158,82.643L165.226,83.429L165.295,84.857L165.363,86L165.432,84.5L165.5,81.429L165.569,80.357L165.637,80.357L165.706,80.5L165.774,81.571L165.842,81.786L165.911,79.071L165.979,77.5L166.048,77.857L166.116,77.571L166.185,78.929L166.253,80.643L166.322,82.143L166.39,81.071L166.458,79.143L166.527,79L166.595,79.5L166.664,80.786L166.732,81.643L166.801,82.571L166.869,81.5L166.938,80.786L167.006,79.571L167.074,78.286L167.143,78.143L167.211,79.071L167.28,80.143L167.348,80.429L167.417,79.571L167.485,80.429L167.554,82.286L167.622,84.929L167.691,87L167.759,89.429L167.827,89.071L167.896,88.357L167.964,91L168.033,92.071L168.101,93.643L168.17,95.643L168.238,97.071L168.307,96.357L168.375,95.571L168.443,96.214L168.512,97.714L168.58,99.5L168.649,101.214L168.717,103.071L168.786,102.214L168.854,101.571L168.923,103L168.991,103.071L169.059,103.786L169.128,106.286L169.196,108.071L169.265,108.5L169.333,109.143L169.402,109.571L169.47,109.857L169.539,111.643L169.607,114L169.675,114.786L169.744,114.429L169.812,114L169.881,114.571L169.949,116.071L170.018,116.571L170.086,118.214L170.155,118.857L170.223,118.857L170.291,118.286L170.36,119.286L170.428,120.929L170.497,122.143L170.565,123.5L170.634,124.286L170.702,123.929L170.771,123L170.839,123.429L170.907,123.643L170.976,124.143L171.044,125.286L171.113,126.357L171.181,126L171.253,125.643L171.321,125.429L171.389,125.214L171.458,125.143L171.526,126.214L171.595,126.286L171.663,125.214L171.732,124.857L171.8,126L171.869,126.929L171.937,127.786L172.005,128.429L172.074,128.714L172.142,128.143L172.211,127.643L172.279,127.857L172.348,127.714L172.416,127.571L172.485,127.5L172.553,127.643L172.621,127.143L172.69,126.786L172.758,126.571L172.827,127.286L172.895,127.286L172.964,128.071L173.032,128.429L173.101,128.286L173.169,127.571L173.238,127.286L173.306,127L173.374,127.071L173.443,127.429L173.511,127.714L173.58,127.071L173.648,126.571L173.717,127.143L173.785,126.857L173.854,126.857L173.922,126.857L173.99,126.786L174.059,126.286L174.127,125.714L174.196,125.214L174.264,124.714L174.333,124.143L174.401,124.857L174.47,125.071L174.538,124L174.606,123.071L174.675,123L174.743,121.714L174.812,121.571L174.88,121.5L174.949,122.071L175.017,121.643L175.086,120.643L175.154,120.286L175.222,120.643L175.291,120.929L175.359,121.929L175.428,122.643L175.496,122.286L175.565,121.286L175.633,121.214L175.702,121.357L175.77,121.571L175.838,122.357L175.907,122.714L175.975,122.071L176.044,121.643L176.112,121.357L176.181,121.571L176.249,122.429L176.318,123.5L176.386,124.071L176.454,123.714L176.523,123.643L176.591,123.857L176.66,124.071L176.728,124L176.797,125.857L176.865,126.429L176.934,126.714L177.002,126.714L177.07,126.714L177.139,127L177.207,126.786L177.276,127.143L177.344,127.571L177.413,126.5L177.481,126.286L177.55,126.071L177.618,126L177.687,126.143L177.755,126.429L177.823,126.786L177.892,126.714L177.96,126.357L178.029,126.5L178.097,126.571L178.166,126.929L178.234,127.429L178.303,127.643L178.371,127.214L178.439,126.857L178.508,126.5L178.576,126.5L178.645,126.357L178.713,126.857L178.782,126.786L178.85,125.214L178.919,124.857L178.987,123.929L179.055,123.786L179.124,123.714L179.192,124.357L179.261,125.143L179.329,124.571L179.398,123.929L179.466,124.143L179.535,123.786L179.603,124L179.671,125.143L179.74,125.643L179.808,124.786L179.874,123.714L179.942,122.643L180.011,122.071L180.079,121.571L180.148,121.214L180.216,120.857L180.285,119.929L180.353,117.786L180.422,117.357L180.49,117L180.558,117.5L180.627,117.071L180.695,117.5L180.764,115.929L180.832,115.643L180.901,115.786L180.969,114.643L181.038,114.5L181.106,114.5L181.174,114.786L181.243,112.786L181.311,111L181.38,109.714L181.448,109.214L181.517,109.071L181.585,109L181.654,108.786L181.722,107.286L181.79,105.429L181.859,102.357L181.927,100.857L181.996,100.071L182.064,99.857L182.133,100.429L182.201,99L182.27,97.643L182.338,95.643L182.406,96L182.475,95.429L182.543,95.857L182.612,95.786L182.68,94.286L182.749,92.071L182.817,91.929L182.886,90.571L182.954,90.714L183.022,92.071L183.091,92.929L183.159,92.714L183.228,91L183.296,90.143L183.365,89.286L183.433,89.286L183.502,89.714L183.57,89.786L183.638,87.857L183.707,86.786L183.775,87.071L183.844,87.929L183.912,90.929L183.981,93.214L184.049,94.214L184.118,93.5L184.186,93.071L184.255,93.357L184.323,93.643L184.391,95.143L184.46,96.5L184.528,96.929L184.597,96L184.665,93.429L184.734,93.286L184.802,94.714L184.871,95.071L184.939,96.714L185.007,97.286L185.076,96.071L185.144,94.143L185.213,93.286L185.281,94.214L185.35,95.929L185.418,97.929L185.487,99.286L185.555,97.857L185.623,98.143L185.692,98.571L185.76,97.857L185.829,97.143L185.897,96.857L185.966,96.929L186.034,93.929L186.103,91.429L186.171,90.286L186.239,88.857L186.308,88.786L186.376,89.571L186.445,89.857L186.513,87.357L186.582,85.071L186.65,82.786L186.719,83.286L186.787,83.286L186.855,83.786L186.924,83.643L186.992,81.357L187.061,79.286L187.129,78.429L187.198,78.429L187.266,77.857L187.335,78.214L187.403,78.714L187.471,76.857L187.54,75.714L187.608,76.071L187.677,74.214L187.745,74.857L187.814,76.857L187.882,78.357L187.951,77.429L188.019,75.929L188.087,76.643L188.156,78.786L188.224,80.286L188.293,81.571L188.361,83.071L188.43,81.643L188.498,80.786L188.567,81.429L188.635,81.357L188.704,82.429L188.772,84.143L188.84,86.071L188.909,84.357L188.977,82.786L189.046,83.857L189.114,83.857L189.183,85.143L189.251,86.929L189.32,87.786L189.388,85.929L189.456,84.357L189.525,86L189.593,85.214L189.662,85.929L189.73,87.643L189.799,88.571L189.867,88.429L189.936,87.5L190.004,87.071L190.072,88.214L190.141,89.143L190.209,89.786L190.278,90.429L190.346,88.929L190.415,87.571L190.483,88L190.552,88.357L190.62,88.571L190.688,91.357L190.757,93.571L190.825,92.714L190.894,91.5L190.962,92.143L191.031,94.071L191.099,94.286L191.168,96.857L191.236,98.071L191.304,97.643L191.373,97.357L191.441,97.857L191.51,98.571L191.578,97.5L191.647,99.214L191.715,98.714L191.784,96.571L191.852,94.143L191.92,92L191.989,91.786L192.057,92.643L192.126,93.857L192.194,94.714L192.263,94.143L192.331,93.429L192.4,94.429L192.468,95.071L192.537,95.071L192.605,96.429L192.673,98.143L192.742,97.286L192.81,96.571L192.879,97L192.947,97.929L193.016,98.786L193.084,99.571L193.153,100.643L193.221,99.929L193.289,98.071L193.358,97.214L193.426,96.929L193.495,98.071L193.563,98.857L193.632,100.643L193.7,101L193.769,101.286L193.837,103.357L193.905,105.429L193.974,107.643L194.042,109.071L194.111,110.929L194.179,110.143L194.248,110.357L194.316,111L194.385,111.929L194.453,113.429L194.521,114.786L194.59,116.5L194.658,116.714L194.727,116.429L194.795,116.929L194.864,117.571L194.932,118.286L195.001,119.214L195.069,119.857L195.137,119.929L195.206,120.357L195.274,120.5L195.343,122.5L195.411,124.286L195.48,125.786L195.548,126.429L195.617,126.5L195.685,126.357L195.753,126.357L195.822,126.929L195.89,127.429L195.959,128.357L196.027,128.857L196.096,128.214L196.167,127.429L196.235,128L196.304,128.143L196.372,128.571L196.441,129.357L196.509,129.643L196.578,129.143L196.646,128.214L196.715,127.429L196.783,127.214L196.851,128.071L196.92,128.429L196.988,128.5L197.057,127.643L197.125,126.5L197.194,125.5L197.262,125.071L197.331,125.5L197.399,124.929L197.467,125.143L197.536,125.5L197.604,125.286L197.673,125.143L197.741,125L197.81,124.643L197.878,125.643L197.947,126L198.015,125.857L198.084,125.286L198.152,124.214L198.22,124.643L198.289,124.929L198.357,125.643L198.426,125.643L198.494,124.643L198.563,123.786L198.631,123.429L198.7,123.286L198.768,123.071L198.836,123.714L198.905,123.714L198.973,123.786L199.042,123.929L199.11,124.143L199.179,125.286L199.247,126.429L199.316,126.929L199.384,127.286L199.452,127.286L199.521,125.929L199.589,124.929L199.658,124.714L199.726,124.643L199.795,124.5L199.863,124.786L199.932,122.643L200,120.214L200.068,119.429L200.137,119.071L200.205,120.429L200.274,120.071L200.342,119.857L200.411,118.357L200.479,117.571L200.548,117.929L200.616,117.357L200.684,117.571L200.753,118.5L200.821,119.5L200.89,118.214L200.958,118.143L201.027,118L201.095,117.571L201.164,117.571L201.232,117.714L201.3,117.786L201.369,117.357L201.437,116.071L201.506,115.571L201.574,115.929L201.643,116.214L201.711,116.786L201.78,117.286L201.848,117.143L201.916,116.571L201.985,117.643L202.053,119L202.122,119.786L202.19,120.143L202.259,119.714" stroke="#4c78a8" stroke-width="2"/></g><g class="mark-group role-title"><g transform="translate(100,-17)"><path class="background" aria-hidden="true" d="M0,0h0v0h0Z" pointer-events="none"/><g><g class="mark-text role-title-text" role="graphics-symbol" aria-roledescription="title" aria-label="Title text 'Street Condition: Cave-in'" pointer-events="none"><text text-anchor="middle" transform="translate(0,10)" font-family="sans-serif" font-size="13px" font-weight="bold" fill="#000" opacity="1">Street Condition: Cave-in</text></g></g><path class="foreground" aria-hidden="true" d="" pointer-events="none" display="none"/></g></g></g><path class="foreground" aria-hidden="true" d="" display="none"/></g></g></g><defs><clipPath id="clip133"><rect x="0" y="0" width="200" height="150"/></clipPath></defs></svg>