<svg xmlns="http://www.w3.org/2000/svg" xmlns:xlink="http://www.w3.org/1999/xlink" version="1.1" class="marks" width="240" height="199" viewBox="0 0 240 199"><rect width="240" height="199" fill="white"/><g fill="none" stroke-miterlimit="10" transform="translate(29,27)"><g class="mark-group role-frame root" role="graphics-object" aria-roledescription="group mark container"><g transform="translate(0,0)"><path class="background" aria-hidden="true" d="M0,0h200v150h-200Z"/><g><g class="mark-group role-axis" aria-hidden="true"><g transform="translate(0.5,0.5)"><path class="background" aria-hidden="true" d="M0,0h0v0h0Z" pointer-events="none"/><g><g class="mark-rule role-axis-grid" pointer-events="none"><line transform="translate(0,150)" x2="200" y2="0" stroke="#ddd" stroke-width="1" opacity="1"/><line transform="translate(0,125)" x2="200" y2="0" stroke="#ddd" stroke-width="1" opacity="1"/><line transform="translate(0,100)" x2="200" y2="0" stroke="#ddd" stroke-width="1" opacity="1"/><line transform="translate(0,75)" x2="200" y2="0" stroke="#ddd" stroke-width="1" opacity="1"/><line transform="translate(0,50)" x2="200" y2="0" stroke="#ddd" stroke-width="1" opacity="1"/><line transform="translate(0,25)" x2="200" y2="0" stroke="#ddd" stroke-width="1" opacity="1"/><line transform="translate(0,0)" x2="200" y2="0" stroke="#ddd" stroke-width="1" opacity="1"/></g></g><path class="foreground" aria-hidden="true" d="" pointer-events="none" display="none"/></g></g><g class="mark-group role-axis" role="graphics-symbol" aria-roledescription="axis" aria-label="X-axis for a time scale with values from Friday, 01 January 2016, 12:00:00 AM to Monday, 01 January 2024, 12:00:00 AM"><g transform="translate(0.5,150.5)"><path class="background" aria-hidden="true" d="M0,0h0v0h0Z" pointer-events="none"/><g><g class="mark-rule role-axis-tick" pointer-events="none"><line transform="translate(0,0)" x2="0" y2="5" stroke="#888" stroke-width="1" opacity="1"/><line transform="translate(50,0)" x2="0" y2="5" stroke="#888" stroke-width="1" opacity="1"/><line transform="translate(100,0)" x2="0" y2="5" stroke="#888" stroke-width="1" opacity="1"/><line transform="translate(150,0)" x2="0" y2="5" stroke="#888" stroke-width="1" opacity="1"/><line transform="translate(200,0)" x2="0" y2="5" stroke="#888" stroke-width="1" opacity="1"/></g><g class="mark-text role-axis-label" pointer-events="none"><text text-anchor="start" transform="translate(0,15)" font-family="sans-serif" font-size="10px" fill="#000" opacity="1">2016</text><text text-anchor="middle" transform="translate(50.03422313483915,15)" font-family="sans-serif" font-size="10px" fill="#000" opacity="1">2018</text><text text-anchor="middle" transform="translate(100,15)" font-family="sans-serif" font-size="10px" fill="#000" opacity="1">2020</text><text text-anchor="middle" transform="translate(150.03422313483915,15)" font-family="sans-serif" font-size="10px" fill="#000" opacity="1">2022</text><text text-anchor="end" transform="translate(200,15)" font-family="sans-serif" font-size="10px" fill="#000" opacity="1">2024</text></g><g class="mark-rule role-axis-domain" pointer-events="none"><line transform="translate(0,0)" x2="200" y2="0" stroke="#888" stroke-width="1" opacity="1"/></g></g><path class="foreground" aria-hidden="true" d="" pointer-events="none" display="none"/></g></g><g class="mark-group role-axis" role="graphics-symbol" aria-roledescription="axis" aria-label="Y-axis for a linear scale with values from 0 to 120"><g transform="translate(0.5,0.5)"><path class="background" aria-hidden="true" d="M0,0h0v0h0Z" pointer-events="none"/><g><g class="mark-rule role-axis-tick" pointer-events="none"><line transform="translate(0,150)" x2="-5" y2="0" stroke="#888" stroke-opacity="0" stroke-width="1" opacity="1"/><line transform="translate(0,125)" x2="-5" y2="0" stroke="#888" stroke-opacity="0" stroke-width="1" opacity="1"/><line transform="translate(0,100)" x2="-5" y2="0" stroke="#888" stroke-opacity="0" stroke-width="1" opacity="1"/><line transform="translate(0,75)" x2="-5" y2="0" stroke="#888" stroke-opacity="0" stroke-width="1" opacity="1"/><line transform="translate(0,50)" x2="-5" y2="0" stroke="#888" stroke-opacity="0" stroke-width="1" opacity="1"/><line transform="translate(0,25)" x2="-5" y2="0" stroke="#888" stroke-opacity="0" stroke-width="1" opacity="1"/><line transform="translate(0,0)" x2="-5" y2="0" stroke="#888" stroke-opacity="0" stroke-width="1" opacity="1"/></g><g class="mark-text role-axis-label" pointer-events="none"><text text-anchor="end" transform="translate(-7,153)" font-family="sans-serif" font-size="10px" fill="#000" opacity="1">0</text><text text-anchor="end" transform="translate(-7,128)" font-family="sans-serif" font-size="10px" fill="#000" opacity="1">20</text><text text-anchor="end" transform="translate(-7,103.00000000000001)" font-family="sans-serif" font-size="10px" fill="#000" opacity="1">40</text><text text-anchor="end" transform="translate(-7,78)" font-family="sans-serif" font-size="10px" fill="#000" opacity="1">60</text><text text-anchor="end" transform="translate(-7,53.00000000000001)" font-family="sans-serif" font-size="10px" fill="#000" opacity="1">80</text><text text-anchor="end" transform="translate(-7,27.999999999999993)" font-family="sans-serif" font-size="10px" fill="#000" opacity="1">100</text><text text-anchor="end" transform="translate(-7,3)" font-family="sans-serif" font-size="10px" fill="#000" opacity="1">120</text></g></g><path class="foreground" aria-hidden="true" d="" pointer-events="none" display="none"/></g></g><g class="mark-line role-mark marks" clip-path="url(#clip134)" role="graphics-object" aria-roledescription="line mark container"><path aria-label="day: Oct 19, 2016; avg: 17.4666666667" role="graphics-symbol" aria-roledescription="line mark" d="M19.983,128.167L20.052,127.375L20.189,126.917L20.257,126.833L20.326,126.708L20.463,126.5L20.599,126.083L20.736,125.375L20.805,125.292L20.873,124.958L20.942,125.042L21.01,125.667L21.079,127.375L21.147,129.125L21.215,129.792L21.287,129.875L21.355,130.375L21.424,130.292L21.492,130.208L21.561,131.75L21.629,133.042L21.697,133.083L21.766,132.708L21.834,133.292L21.903,133.542L21.971,134.042L22.04,135L22.108,135.75L22.177,136.458L22.245,136.333L22.313,136.458L22.382,137L22.45,136.917L22.519,136.958L22.587,137.083L22.656,137.25L22.724,137.542L22.793,137.833L22.861,137.792L22.93,137.958L22.998,138.583L23.066,139.375L23.135,139.458L23.203,139.625L23.272,139.792L23.34,139.875L23.409,140.208L23.477,140.875L23.546,140.917L23.614,140.875L23.682,140.625L23.751,140.708L23.819,141.458L23.888,141.833L23.956,142.083L24.025,142.375L24.093,142.125L24.162,141.625L24.23,141.208L24.298,141.5L24.367,141.458L24.435,141.75L24.504,142.167L24.572,141.75L24.641,141.375L24.709,141.083L24.778,141.208L24.846,141.25L24.914,141.125L24.983,141.208L25.051,141L25.188,140.792L25.257,140.833L25.325,141.125L25.394,141.292L25.462,141.25L25.599,141L25.667,140.917L25.736,141.292L25.804,141.542L25.873,141.583L25.941,141.917L26.01,141.833L26.078,141.583L26.146,141.333L26.215,141.375L26.283,141.292L26.352,141.875L26.42,142.125L26.489,141.875L26.557,141.958L26.626,141.458L26.694,141.208L26.762,141.375L26.831,141.417L26.899,141.542L26.968,141.5L27.036,141.417L27.105,141.542L27.173,141.583L27.242,141.917L27.31,142.167L27.379,142.125L27.447,141.875L27.515,141.625L27.584,141.25L27.652,141.375L27.721,141.5L27.789,141.5L27.858,141.375L27.926,141.375L27.995,141.375L28.063,141.292L28.131,141.5L28.2,141.792L28.268,141.875L28.337,142.167L28.405,142.083L28.474,141.75L28.542,141.792L28.611,141.875L28.679,142.083L28.747,142.458L28.816,142.542L28.884,142.667L28.953,142.708L29.021,142.5L29.09,142.417L29.158,142.417L29.227,142.417L29.295,142.417L29.363,142.042L29.432,141.667L29.5,141.875L29.569,142.042L29.637,142.25L29.706,142.042L29.774,141.917L29.843,141.333L29.908,141L29.977,141.083L30.045,140.708L30.114,140.333L30.182,140.25L30.25,140.083L30.319,139.542L30.387,138.917L30.456,138.875L30.524,138.958L30.593,138.75L30.661,138.75L30.73,138.875L30.798,138.375L30.866,138L30.935,138.167L31.003,138.25L31.072,138.375L31.14,138.5L31.209,138.417L31.277,137.625L31.346,137.208L31.414,137.333L31.482,137.208L31.551,137.208L31.619,137.083L31.688,137.125L31.756,136.958L31.825,136.708L31.893,136.375L31.962,136.292L32.03,135.958L32.098,136.208L32.167,136.417L32.235,136.042L32.304,135.667L32.372,135.708L32.441,135.583L32.509,135.542L32.578,135.75L32.646,136.042L32.714,135.958L32.783,135.625L32.851,135.625L32.92,136L32.988,135.75L33.057,135.292L33.125,135.292L33.194,135.708L33.262,135.042L33.33,134.875L33.399,134.333L33.467,134.167L33.536,134.333L33.604,134.125L33.673,134L33.741,133.792L33.81,133.417L33.878,132.583L33.946,132.667L34.015,132.583L34.083,132.792L34.152,132.25L34.22,131.917L34.289,131.917L34.357,131.833L34.426,132.042L34.494,132.625L34.563,132.792L34.631,132.375L34.699,131.542L34.768,131.333L34.836,131.375L34.905,131.625L34.973,131.625L35.042,131.625L35.11,131.708L35.179,131.25L35.247,130.417L35.315,130.792L35.384,131.333L35.452,132.333L35.521,132.667L35.589,133.125L35.658,133.333L35.726,133.25L35.795,133.292L35.863,133.917L35.931,135.25L36,135.75L36.068,135.625L36.137,135.417L36.205,135.458L36.274,135.875L36.342,136.125L36.411,136.625L36.479,136.792L36.547,136.5L36.616,136.292L36.684,136.167L36.753,136.667L36.821,136.75L36.89,137.167L36.958,137.5L37.027,137.458L37.095,137.375L37.163,137.417L37.232,137.75L37.3,137.5L37.369,137.875L37.437,137.958L37.506,137.333L37.574,136.958L37.643,136.625L37.711,136.042L37.779,135.875L37.848,136.083L37.916,136.167L37.985,136L38.053,135.75L38.122,135.917L38.19,135.958L38.259,136.042L38.327,136L38.396,135.875L38.464,135.75L38.532,135.458L38.601,135.708L38.669,135.5L38.738,135.875L38.806,136.208L38.875,136.333L38.943,136.292L39.012,135.708L39.08,135.292L39.148,134.833L39.217,134.375L39.285,134.583L39.354,135.625L39.422,135.583L39.491,135.833L39.559,135.958L39.628,135.542L39.696,135.167L39.764,135.583L39.833,136.167L39.901,136.333L39.97,135.958L40.038,135.708L40.107,135.542L40.175,135.5L40.244,135.708L40.312,136.125L40.38,135.833L40.449,135.708L40.517,135.542L40.586,135.792L40.654,135.333L40.723,135.375L40.791,135.458L40.86,135.042L40.928,134.25L40.996,133.292L41.065,132.833L41.133,132.417L41.202,133L41.27,133.458L41.339,132.625L41.407,131.583L41.476,131L41.544,130.542L41.612,130.25L41.681,131.042L41.749,131.625L41.818,131.292L41.886,130.667L41.955,130.083L42.023,130.25L42.092,130.292L42.16,130.833L42.228,131.167L42.297,131.375L42.365,131.167L42.434,130.958L42.502,130.875L42.571,131.125L42.639,131.208L42.708,131.75L42.776,131.75L42.845,131.208L42.913,131.25L42.981,131.625L43.05,132.125L43.118,132.958L43.187,133.792L43.255,133.208L43.324,133.083L43.392,133.042L43.461,133.25L43.529,133.5L43.597,133.958L43.666,134.833L43.734,134.5L43.803,134.208L43.871,134.042L43.94,134.042L44.008,134.167L44.077,134.417L44.145,134.833L44.213,134.792L44.282,134.917L44.35,134.75L44.419,134.875L44.487,135.458L44.556,136.042L44.624,136.125L44.693,136.042L44.761,135.917L44.829,136.083L44.898,136.667L44.966,137L45.035,137.5L45.103,137.917L45.172,137.792L45.24,137.417L45.309,138L45.377,138.542L45.445,139.458L45.514,140.208L45.582,140.708L45.651,140.583L45.719,140.292L45.788,140.333L45.856,140.583L45.925,140.958L45.993,141.375L46.061,141.792L46.13,141.583L46.201,141.208L46.27,141.25L46.338,140.958L46.407,141.083L46.475,141.208L46.543,141.25L46.612,141.042L46.68,140.833L46.749,141L46.817,141.25L46.886,141.583L46.954,141.833L47.023,141.792L47.091,141.417L47.159,141.167L47.228,140.917L47.296,141.208L47.365,141.417L47.433,141.375L47.502,141.458L47.57,141.5L47.639,141.542L47.707,141.625L47.775,141.917L47.844,142.167L47.912,142.333L47.981,142.708L48.049,142.917L48.118,143.083L48.186,143.292L48.255,143.208L48.323,142.917L48.392,143L48.528,142.708L48.597,142.75L48.665,142.792L48.734,142.625L48.802,142.583L48.871,142.458L48.939,142.125L49.008,142.125L49.076,141.667L49.144,141.333L49.213,141.417L49.281,141.625L49.35,141.792L49.418,141.917L49.487,141.833L49.555,141.708L49.692,141.417L49.76,141.042L49.829,140.708L49.897,140.75L50.103,140.542L50.171,140.333L50.24,140.042L50.308,139.792L50.445,139.708L50.513,139.417L50.582,139.125L50.65,139.625L50.719,139.833L50.787,139.875L50.856,139.708L50.992,139.167L51.061,138.458L51.129,138.583L51.198,138.917L51.266,139.167L51.335,139.458L51.403,139L51.472,138.875L51.54,139.167L51.608,139.292L51.677,139.417L51.745,139.833L51.814,139.375L51.882,138.875L51.951,138.708L52.019,138.583L52.088,139L52.156,139.292L52.225,139.292L52.361,139.417L52.43,139.583L52.498,139.833L52.567,140.042L52.635,139.958L52.704,140.167L52.772,140.5L52.841,140.208L52.909,140.25L52.977,140.375L53.046,140.583L53.114,140.875L53.183,141.542L53.251,141.792L53.32,141.375L53.388,140.917L53.457,141L53.525,141.417L53.593,141.75L53.662,141.75L53.73,141.875L53.799,141.708L53.867,141.042L53.936,141.292L54.004,141.5L54.073,141.625L54.141,141.875L54.209,141.875L54.278,141.833L54.346,141.875L54.415,141.917L54.483,141.917L54.552,141.875L54.62,141.833L54.689,141.875L54.757,141.625L54.823,141.375L54.891,141.125L54.96,140.833L55.028,140.792L55.096,140.792L55.165,141L55.233,141.042L55.302,140.792L55.37,140.833L55.439,141.25L55.507,140.875L55.576,140.583L55.644,140.625L55.712,140.583L55.781,140.292L55.849,140.458L55.918,140.792L55.986,141.083L56.055,141.042L56.123,141.125L56.192,140.708L56.26,140.25L56.328,140.167L56.397,139.875L56.465,139.5L56.534,139.375L56.602,139.5L56.671,139.25L56.739,138.833L56.808,138.917L56.876,138.792L56.944,138.917L57.013,139.375L57.081,139.25L57.15,138.5L57.218,137.667L57.287,137.25L57.355,136.875L57.424,136.208L57.492,135.958L57.56,135.875L57.629,135.875L57.697,135.25L57.766,134.667L57.834,134.083L57.903,133.083L57.971,133.042L58.04,132.958L58.108,132.792L58.176,132.625L58.245,132.583L58.313,132.125L58.382,131.792L58.45,131.292L58.519,131.5L58.587,131.375L58.656,130.792L58.724,129.625L58.792,129.542L58.861,129.167L58.929,128.917L58.998,128.833L59.066,128.292L59.135,128.167L59.203,128.417L59.272,128.625L59.34,128.875L59.409,129.042L59.477,129.958L59.545,129.75L59.614,129.667L59.682,129.708L59.751,130.167L59.819,130.667L59.888,131.625L59.956,132.208L60.025,132.25L60.093,131.792L60.161,131.625L60.23,131.292L60.298,131.125L60.367,132L60.435,131.958L60.504,132.333L60.572,131.917L60.641,132.333L60.709,132.375L60.777,133.167L60.846,133.5L60.914,133.708L60.983,133.667L61.051,133.042L61.12,132.792L61.188,132.25L61.257,132.792L61.325,133.25L61.393,133.167L61.462,132.875L61.53,132.625L61.599,132.583L61.667,132.375L61.736,132.042L61.804,132.042L61.873,132.292L61.941,132.125L62.009,131.875L62.078,131.792L62.146,131.792L62.215,132.125L62.283,132.125L62.352,132.125L62.42,131.333L62.489,131.292L62.557,131.375L62.625,131.083L62.694,130.292L62.762,130.333L62.831,130.958L62.899,130.625L62.968,130.5L63.036,130.583L63.105,130.875L63.173,131L63.242,131.333L63.31,130.833L63.378,129.958L63.447,129.125L63.515,128L63.584,127.708L63.652,127.458L63.721,127.375L63.789,127.25L63.858,126.333L63.926,125.292L63.994,124.25L64.063,123.792L64.131,122.417L64.2,122L64.268,121.375L64.337,120.458L64.405,119.917L64.474,119.375L64.542,119.042L64.61,118.667L64.679,118.792L64.747,119.458L64.816,120L64.884,119.417L64.953,119.292L65.021,119.208L65.09,118.875L65.158,119.125L65.226,119.625L65.295,119.5L65.363,119.375L65.432,119.542L65.5,119.708L65.569,119.75L65.637,119.542L65.706,119.625L65.774,118.917L65.842,118.5L65.911,118.958L65.979,118.75L66.048,118.5L66.116,118.958L66.185,119.792L66.253,120.417L66.322,120.958L66.39,121.333L66.458,121.958L66.527,122.667L66.595,121.917L66.664,121.875L66.732,121.625L66.801,120.875L66.869,120.167L66.938,120L67.006,119.5L67.074,119.583L67.143,119.708L67.211,119.958L67.28,119.125L67.348,119L67.417,119.5L67.485,119.292L67.554,120.042L67.622,121.708L67.691,121.917L67.759,121.542L67.827,121.917L67.896,121.917L67.964,121.625L68.033,122.5L68.101,123.458L68.17,123.458L68.238,123.833L68.307,123.333L68.375,122.208L68.443,122.375L68.512,122.833L68.58,123.167L68.649,124L68.717,123.5L68.786,123.5L68.854,123L68.923,122.667L68.991,122.25L69.059,121.917L69.128,121.25L69.196,121.625L69.265,121.208L69.333,120.625L69.402,120.917L69.47,120.958L69.539,121.625L69.607,120.708L69.675,119.917L69.744,119.542L69.812,119.833L69.881,120.292L69.949,121L70.018,121.125L70.086,120.25L70.155,119.25L70.223,118.792L70.291,119.333L70.36,119.958L70.428,121.333L70.497,122.042L70.565,121.458L70.634,121L70.702,120.667L70.771,120.75L70.839,119.875L70.907,120.792L70.976,121.458L71.044,121.625L71.116,122.042L71.184,122.167L71.253,121.792L71.321,120.625L71.389,121.708L71.458,121.292L71.526,120.833L71.595,119.792L71.663,119.875L71.732,119.208L71.8,118.625L71.869,118.792L71.937,119.208L72.005,118.5L72.074,118.5L72.142,118.833L72.211,119.667L72.279,119.792L72.348,119.417L72.416,119.417L72.485,119.333L72.553,119.583L72.621,120.125L72.69,119.875L72.758,120.75L72.827,121.542L72.895,122.958L72.964,123.375L73.032,123.458L73.101,124.083L73.169,124.167L73.238,124.583L73.306,125L73.374,125.917L73.443,125.875L73.511,125.708L73.58,125.25L73.648,125.875L73.717,126.25L73.785,127.167L73.854,128.208L73.922,127.583L73.99,127.042L74.059,126.667L74.127,126.25L74.196,126.417L74.264,127L74.333,127.667L74.401,127.667L74.47,127.333L74.538,126.333L74.606,124.833L74.675,123.958L74.743,124.542L74.812,123.333L74.88,122.625L74.949,121.625L75.017,120.917L75.086,120.5L75.154,120.333L75.222,120.542L75.291,120.208L75.359,118.167L75.428,117.333L75.496,116.375L75.565,116.167L75.633,115.875L75.702,115.958L75.77,116.25L75.838,115.875L75.907,115.375L75.975,115.5L76.044,114.917L76.112,115.125L76.181,116.208L76.249,116.375L76.318,116.167L76.386,116.333L76.454,116.292L76.523,116.458L76.591,116.583L76.66,117.75L76.728,118.167L76.797,118.167L76.865,118.833L76.934,118.625L77.002,119.375L77.07,119.333L77.139,119.667L77.207,119.917L77.276,120.208L77.344,120.375L77.413,121.958L77.481,123.333L77.55,123.958L77.618,124.583L77.687,126.042L77.755,125.583L77.823,124.5L77.892,124.042L77.96,124.167L78.029,124.5L78.097,125.458L78.166,126.417L78.234,125.708L78.303,125.458L78.371,124.167L78.439,123.25L78.508,122.583L78.576,122.208L78.645,122.458L78.713,121.167L78.782,120.458L78.85,118.75L78.919,118.333L78.987,117.708L79.055,117.75L79.124,118.083L79.192,117.667L79.261,117L79.329,116.333L79.398,115.292L79.466,114.708L79.535,113.667L79.603,113.708L79.671,112.917L79.737,111.875L79.805,111.458L79.874,111.625L79.942,111.5L80.011,110.875L80.079,110.667L80.148,109.875L80.216,108.75L80.285,108.208L80.353,107.458L80.422,108.417L80.49,109.042L80.558,109.5L80.627,109.25L80.695,109.333L80.764,109.833L80.832,109.792L80.901,109.375L80.969,108.125L81.038,109.042L81.106,108.708L81.174,107.417L81.243,105.75L81.311,105.292L81.38,105.25L81.448,105.958L81.517,106.125L81.585,105.708L81.654,104.333L81.722,104.083L81.79,102.708L81.859,103L81.927,101.625L81.996,102.917L82.064,103.583L82.133,103.5L82.201,102.75L82.27,102.042L82.338,100.542L82.406,100.75L82.475,99.542L82.543,97.667L82.612,96.042L82.68,95.083L82.749,93.542L82.817,92.958L82.886,93.5L82.954,95.125L83.022,96.208L83.091,95.667L83.159,94.458L83.228,93.5L83.296,92.875L83.365,91.875L83.433,90.833L83.502,89.042L83.57,87.917L83.638,88.042L83.707,88.458L83.775,87.5L83.844,87.375L83.912,86.792L83.981,88.292L84.049,86.792L84.118,84.917L84.186,83.958L84.255,84.125L84.323,83.792L84.391,85.875L84.46,85.5L84.528,86.042L84.597,86.625L84.665,87.125L84.734,86.25L84.802,87.625L84.871,88.292L84.939,87.875L85.007,87.5L85.076,85.042L85.144,83.5L85.213,82.167L85.281,84.875L85.35,87.75L85.418,89.042L85.487,89.25L85.555,86.792L85.623,77.083L85.692,74.542L85.76,75.25L85.829,76.083L85.897,75.167L85.966,72.667L86.034,70.375L86.103,68.75L86.171,66.625L86.239,67.458L86.308,65.375L86.376,63.833L86.445,58.333L86.513,55.417L86.582,54.333L86.65,50L86.719,48.917L86.787,50.75L86.855,47.667L86.924,45.375L86.992,41.208L87.061,36.625L87.129,34.667L87.198,35.417L87.266,37.125L87.335,33.333L87.403,29.75L87.471,27.458L87.54,24.917L87.608,26.75L87.677,36.917L87.745,39.417L87.814,37.542L87.882,35.625L87.951,35.125L88.019,36.25L88.087,36.458L88.156,39.083L88.224,42.083L88.293,39.583L88.361,39.958L88.43,40.75L88.498,43.708L88.567,44.917L88.635,45.042L88.704,49L88.772,48.125L88.84,46.125L88.909,46.25L88.977,46.542L89.046,50.542L89.114,55.083L89.183,57.75L89.251,58.042L89.32,56.333L89.388,58.167L89.456,60.083L89.525,60.625L89.593,64.083L89.662,66.75L89.73,68.083L89.799,68.083L89.867,67.083L89.936,66.375L90.004,68.125L90.072,68.5L90.141,70.208L90.209,67.708L90.278,65.125L90.346,65.958L90.415,68.667L90.483,71.208L90.552,74.458L90.62,77.417L90.688,70.333L90.757,68.375L90.825,68.458L90.894,68.333L90.962,69.542L91.031,70.375L91.099,71.375L91.168,68.417L91.236,68.625L91.304,67.25L91.373,66.75L91.441,64.208L91.51,63.667L91.578,64.042L91.647,62.708L91.715,59.083L91.784,56.542L91.852,56.625L91.92,57.25L91.989,59.708L92.057,60.208L92.126,59.125L92.194,57.208L92.263,58.333L92.331,59.75L92.4,59.625L92.468,59.375L92.537,59.375L92.605,58.125L92.673,55.792L92.742,62.875L92.81,64.542L92.879,65.75L92.947,67.375L93.016,69.292L93.084,69.083L93.153,66.833L93.221,67.542L93.289,66.125L93.358,66.875L93.426,67.833L93.495,71.292L93.563,71.083L93.632,71.458L93.7,70.792L93.769,73.708L93.837,72.5L93.905,72.292L93.974,74.583L94.042,75.875L94.111,75.75L94.179,73.917L94.248,76.833L94.316,75.667L94.385,77.833L94.453,78.958L94.521,76L94.59,75.25L94.658,74.75L94.727,75.208L94.795,74.625L94.864,76.542L94.932,78.083L95.001,78.458L95.069,77.458L95.137,77.167L95.206,77.083L95.274,79.167L95.343,81.417L95.411,82.375L95.48,83.583L95.548,81.792L95.617,83.042L95.685,84.958L95.753,87.833L95.822,88.917L95.89,93L95.959,94.125L96.03,93.667L96.099,92L96.167,91.375L96.235,95.292L96.304,94.875L96.372,97.375L96.441,97.542L96.509,97.292L96.578,99.5L96.646,99.625L96.715,100.042L96.783,101.208L96.851,103L96.92,102.583L96.988,101.667L97.057,101.458L97.125,102.583L97.194,104.042L97.262,106.042L97.331,107.167L97.399,108.25L97.467,109.625L97.536,111.458L97.604,113.083L97.673,113.667L97.741,113.458L97.81,113.083L97.878,113.125L97.947,112.792L98.015,112.667L98.084,111.625L98.152,112.5L98.22,114.542L98.289,115.833L98.357,114.958L98.426,114.583L98.494,113.458L98.563,114.042L98.631,112.5L98.7,111.375L98.768,110.458L98.836,109.75L98.905,109.375L98.973,108.458L99.042,108.458L99.11,108L99.179,108.125L99.247,108.417L99.316,108.875L99.384,108.042L99.452,107.625L99.521,107.042L99.589,105.292L99.658,104.875L99.726,105L99.795,104.25L99.863,102.25L99.932,101.625L100,99.833L100.068,98.542L100.137,99.5L100.205,100.458L100.274,98L100.342,96.458L100.411,95.583L100.479,95.625L100.548,95.625L100.616,96.083L100.684,98.542L100.753,100.083L100.821,100.792L100.89,100.667L100.958,100.125L101.027,100.875L101.095,101.542L101.164,102.708L101.232,102.917L101.3,102.667L101.369,101.625L101.437,101.833L101.506,101.917L101.574,102.208L101.643,103L101.711,101.333L101.78,100.583L101.848,100.083L101.916,99.958L101.985,99.292L102.053,101.25L102.122,102.25L102.19,101.917L102.259,99.167L102.327,100.042L102.396,99.667L102.464,99.917L102.533,100.125L102.601,100.458L102.669,98.292L102.738,97.333L102.806,95.5L102.875,94.875L102.943,95.958L103.012,96.833L103.08,97.625L103.149,98.375L103.217,99.042L103.285,98.75L103.354,98.958L103.422,100.333L103.491,101.042L103.559,102.375L103.628,103.042L103.696,103.75L103.765,106.917L103.833,108.042L103.901,109.833L103.97,112.708L104.038,114.5L104.107,114.958L104.175,116.167L104.244,118.083L104.312,121.417L104.381,123.542L104.449,126.167L104.517,128.708L104.586,129.75L104.651,131.333L104.72,134.625L104.788,136.417L104.857,139.25L104.925,141.792L104.994,142.833L105.062,143.958L105.131,144.25L105.199,144.667L105.268,144.708L105.336,145.417L105.404,146.208L105.473,146.292L105.541,146.542L105.678,146.333L105.747,146.375L105.815,146.208L105.884,146.208L105.952,146.333L106.089,145.833L106.157,145.5L106.226,145.25L106.294,145.167L106.363,144.875L106.431,144.875L106.5,144.792L106.568,144.625L106.636,144.5L106.705,144.125L106.773,144.083L106.842,143.792L106.91,143.375L106.979,143.25L107.047,142.542L107.116,141.917L107.184,141.5L107.321,140.833L107.458,140.458L107.526,139.958L107.595,139.5L107.663,139.333L107.732,138.958L107.8,138.417L107.868,138.417L108.005,138.167L108.074,137.792L108.142,137.75L108.211,137.625L108.279,137.083L108.348,137.333L108.416,137.583L108.484,137.167L108.553,136.875L108.621,137.083L108.69,137.125L108.758,137.125L108.827,136.5L108.895,136.125L108.964,136.25L109.032,136.25L109.169,135.875L109.237,136.042L109.306,136L109.374,136.5L109.443,136.333L109.511,136.167L109.58,136.5L109.648,136.5L109.717,136.375L109.785,136.167L109.853,136.042L109.922,136.083L109.99,136.292L110.059,135.708L110.127,135.75L110.196,135.292L110.264,135.458L110.333,135.125L110.401,135.25L110.469,135.375L110.538,135.167L110.606,135.167L110.675,135.292L110.743,135.125L110.812,133.917L110.88,133.917L110.949,134L111.017,133.75L111.085,133.75L111.154,133.833L111.222,134.125L111.291,134.125L111.359,133.458L111.428,133.083L111.496,133.333L111.565,132.833L111.633,132.292L111.701,131.625L111.77,131.292L111.838,129.958L111.907,128.875L111.975,128.667L112.044,122.375L112.112,122.292L112.181,121.75L112.249,121.875L112.317,117.333L112.386,117.333L112.454,117.375L112.523,117.083L112.591,116.917L112.66,116.75L112.728,116.417L112.797,116.458L112.865,116.583L112.933,116L113.002,116.083L113.07,116.042L113.139,115.792L113.207,115L113.276,114.583L113.344,114.25L113.413,114.292L113.481,113.875L113.55,113.333L113.618,114.167L113.686,114.167L113.755,115L113.823,114.833L113.892,115.958L113.96,116.542L114.029,115.833L114.097,121.875L114.166,122.125L114.234,122.75L114.302,123.125L114.371,127.75L114.439,127.208L114.508,126.542L114.576,126L114.645,125.708L114.713,126L114.782,125.833L114.85,125L114.918,124.917L114.987,125.042L115.055,125.125L115.124,125.417L115.192,125.292L115.261,124.875L115.329,124.125L115.398,123.125L115.466,121.708L115.534,122.25L115.603,121.625L115.671,120.917L115.74,120.417L115.808,119.917L115.877,119.625L115.945,119.375L116.014,119.333L116.082,120.292L116.15,120L116.219,119.708L116.287,117.917L116.356,117.25L116.424,116.625L116.493,117L116.561,116.792L116.63,116.625L116.698,116.458L116.766,116.167L116.835,115.708L116.903,115.75L116.972,115.833L117.04,115.958L117.109,115.375L117.177,114.417L117.246,113.75L117.314,113L117.383,113.875L117.451,114.375L117.519,116.125L117.588,116.292L117.656,116.958L117.725,116.625L117.793,117.625L117.862,117.583L117.93,118.542L117.999,118.917L118.067,119.042L118.135,118.375L118.204,116.833L118.272,116.625L118.341,118L118.409,118.375L118.478,118.625L118.546,118.167L118.615,119.208L118.683,119.958L118.751,120.5L118.82,120.5L118.888,121.458L118.957,122.208L119.025,122.667L119.094,122.083L119.162,121.292L119.231,120.875L119.299,121.417L119.367,122.667L119.436,123.083L119.504,122.667L119.573,121.083L119.641,120.833L119.71,121.333L119.778,121.708L119.847,121L119.915,121.292L119.983,121.167L120.052,121.083L120.12,120.125L120.189,119.292L120.257,119.667L120.326,119.5L120.394,118.875L120.463,118L120.531,117.917L120.599,119.042L120.668,118.667L120.736,118.25L120.805,118.125L120.873,118.292L120.945,117.292L121.013,116.875L121.081,116.292L121.15,116.083L121.218,117.667L121.287,119.292L121.355,117.833L121.424,117.208L121.492,116.042L121.561,115.708L121.629,116.75L121.697,116.708L121.766,116.5L121.834,117.083L121.903,117.5L121.971,117.875L122.04,118.375L122.108,118.542L122.177,120L122.245,121.792L122.313,123.208L122.382,123.25L122.45,124L122.519,124.625L122.587,125.167L122.656,125.125L122.724,125.417L122.793,125.542L122.861,125.292L122.93,124.958L122.998,125.958L123.066,126.333L123.135,126.917L123.203,127.792L123.272,127.042L123.34,126.542L123.409,127.833L123.477,128.5L123.546,129.167L123.614,130L123.682,130.167L123.751,130.458L123.819,130.25L123.888,129.958L123.956,129.875L124.025,129.292L124.093,127.917L124.162,127.792L124.23,126.833L124.298,125.792L124.367,125.5L124.435,125.125L124.504,124.667L124.572,124.583L124.641,123.917L124.709,123.167L124.778,122.542L124.846,122.458L124.914,122.542L124.983,122.792L125.051,121.875L125.12,122.083L125.188,122.333L125.257,122.667L125.325,123.5L125.394,123.292L125.462,122.583L125.53,122.292L125.599,122.458L125.667,123.083L125.736,123.417L125.804,122.75L125.873,122.333L125.941,122.167L126.01,121.958L126.078,121.417L126.146,122L126.215,121.958L126.283,122.417L126.352,123.333L126.42,123.708L126.489,124.333L126.557,124.583L126.626,124.625L126.694,124.625L126.762,123.208L126.831,121.375L126.899,117.167L126.968,116.75L127.036,116.167L127.105,115.125L127.173,113.958L127.242,112.708L127.31,111.792L127.379,110.208L127.447,109.708L127.515,110.042L127.584,109.875L127.652,109L127.721,106.958L127.789,104.667L127.858,102.042L127.926,101L127.995,100.542L128.063,99.833L128.131,99.542L128.2,99.25L128.268,98.75L128.337,98.125L128.405,97.125L128.474,96.375L128.542,95.333L128.611,93.167L128.679,92.625L128.747,91.958L128.816,92.917L128.884,94.833L128.953,99.125L129.021,99.042L129.09,98.875L129.158,99.833L129.227,99.542L129.295,100.042L129.363,100.292L129.432,100.875L129.5,101.25L129.569,100.792L129.637,100.875L129.706,101.333L129.774,102.625L129.843,103.417L129.911,105.958L129.979,106.542L130.045,105.333L130.114,105.167L130.182,104.708L130.25,104.625L130.319,103.625L130.387,103.458L130.456,103.625L130.524,101.792L130.593,102.667L130.661,103.958L130.73,104.167L130.798,104.208L130.866,104.25L130.935,103.625L131.003,101.958L131.072,100.458L131.14,100.042L131.209,98.583L131.277,98.875L131.346,98.958L131.414,98.083L131.482,97.917L131.551,98.417L131.619,98.5L131.688,97.708L131.756,97.708L131.825,97.917L131.893,99.042L131.962,98.167L132.03,97.375L132.098,98.167L132.167,97.333L132.235,97.083L132.304,96.958L132.372,97.875L132.441,97.417L132.509,96.542L132.578,97.833L132.646,97.083L132.714,96.292L132.783,95.25L132.851,94.708L132.92,94.25L132.988,93.583L133.057,93.792L133.125,96.167L133.194,96.958L133.262,99.083L133.33,99.417L133.399,99.833L133.467,99.5L133.536,100.167L133.604,99.083L133.673,99.458L133.741,99.833L133.81,97.333L133.878,96.958L133.946,95.917L134.015,96.042L134.083,96.917L134.152,97.125L134.22,98.708L134.289,100.333L134.357,99.75L134.426,99.833L134.494,100.5L134.563,100.25L134.631,100.5L134.699,101.458L134.768,102.792L134.836,103.833L134.905,103.792L134.973,103.292L135.042,104.292L135.11,104.667L135.179,104.042L135.247,104.25L135.315,104.167L135.384,103.625L135.452,103.5L135.521,104.958L135.589,105.417L135.658,106.833L135.726,105.792L135.795,106L135.863,108.292L135.931,108.708L136,109.417L136.068,110.583L136.137,111.417L136.205,112.375L136.274,112.5L136.342,111.958L136.411,113.583L136.479,114.417L136.547,114.792L136.616,116.083L136.684,116.833L136.753,116.958L136.821,117.417L136.89,117.583L136.958,118.583L137.027,119L137.095,119.625L137.163,120.625L137.232,120.792L137.3,120.083L137.369,119.667L137.437,120.625L137.506,120.75L137.574,120.417L137.643,119.875L137.711,118.833L137.779,119.792L137.848,120.25L137.916,120.667L137.985,120.833L138.053,121.458L138.122,121.375L138.19,121.875L138.259,121.917L138.327,121.417L138.396,120.167L138.464,119.208L138.532,118.625L138.601,118.792L138.669,117.875L138.738,117.333L138.806,115.5L138.875,115.458L138.943,114.542L139.012,115.292L139.08,115.708L139.148,115.208L139.217,114.875L139.285,113.917L139.354,114L139.422,113.208L139.491,112.333L139.559,111.5L139.628,110.792L139.696,110.625L139.764,111L139.833,111.208L139.901,111.375L139.97,111.417L140.038,111.5L140.107,111.292L140.175,109.708L140.244,108.417L140.312,106.833L140.38,105.75L140.449,104.083L140.517,103.5L140.586,102.333L140.654,101.208L140.723,102.25L140.791,102.083L140.86,102.542L140.928,102.583L140.996,103.458L141.065,102.333L141.133,102.542L141.202,101.292L141.27,100.917L141.339,101.625L141.407,99.417L141.476,99.417L141.544,98.625L141.612,98.333L141.681,98.375L141.749,96.167L141.818,94.708L141.886,93.667L141.955,92.708L142.023,91.625L142.092,89.917L142.16,89.167L142.228,89.25L142.297,89.542L142.365,89.958L142.434,90.875L142.502,92.708L142.571,91.208L142.639,91.292L142.708,89.542L142.776,88.542L142.845,88.208L142.913,88.375L142.981,86.75L143.05,85.458L143.118,84.208L143.187,83.5L143.255,84.667L143.324,84.75L143.392,82.167L143.461,83.625L143.529,82.042L143.597,81.75L143.666,80.542L143.734,79.917L143.803,81.875L143.871,82.833L143.94,83.292L144.008,80.5L144.077,80.333L144.145,79.667L144.213,79.333L144.282,79.542L144.35,78.917L144.419,78.792L144.487,76.75L144.556,77.167L144.624,79.083L144.693,79.75L144.761,82.417L144.829,82.75L144.898,82.083L144.966,80.125L145.035,79.5L145.103,78.833L145.172,80.042L145.24,79.917L145.309,78.458L145.377,78.458L145.445,80.333L145.514,82.333L145.582,85.333L145.651,87.292L145.719,89.375L145.788,90.542L145.856,89.25L145.925,89.25L145.993,88.542L146.061,91.958L146.13,92.667L146.198,94.875L146.267,96L146.338,96.083L146.407,96.208L146.475,96.958L146.543,98.75L146.612,99L146.68,99.625L146.749,99.792L146.817,99.042L146.886,98.792L146.954,99.333L147.023,100.458L147.091,102.708L147.159,104.583L147.228,104.875L147.296,105.917L147.365,107.25L147.433,107.875L147.502,109.333L147.57,109.417L147.639,109.375L147.707,109.5L147.775,109.792L147.844,109.792L147.912,111.208L147.981,111.583L148.049,114.042L148.118,114.25L148.186,114.542L148.255,114.708L148.323,114.625L148.392,115.167L148.46,116.792L148.528,117.292L148.597,118.708L148.665,118.667L148.734,118.167L148.802,117.375L148.871,117.583L148.939,117.25L149.008,118.875L149.076,120.958L149.144,120.667L149.213,119.458L149.281,119.417L149.35,118.958L149.418,119.167L149.487,119.625L149.555,119.125L149.624,117.625L149.692,116.333L149.76,115.875L149.829,115.083L149.897,115.125L149.966,116.292L150.034,116.875L150.103,116.125L150.171,115.667L150.24,114.833L150.308,114.083L150.376,114.417L150.445,114.625L150.513,114.375L150.582,113.292L150.65,111.042L150.719,110.875L150.787,110.25L150.856,111.042L150.924,110.333L150.992,111.667L151.061,110.917L151.129,109.833L151.198,109.5L151.266,109.417L151.335,109.5L151.403,110.708L151.472,110.875L151.54,110.5L151.608,110.625L151.677,111.417L151.745,110.708L151.814,111L151.882,110.792L151.951,110.917L152.019,108.667L152.088,106.75L152.156,106.292L152.225,106.208L152.293,106.833L152.361,106.708L152.43,105.583L152.498,104.333L152.567,102.333L152.635,103L152.704,104.042L152.772,104L152.841,105.5L152.909,106.583L152.977,107.25L153.046,105.625L153.114,104.083L153.183,104.042L153.251,103.125L153.32,103.792L153.388,103.375L153.457,100.917L153.525,99.708L153.593,98.208L153.662,97.208L153.73,95.958L153.799,97.083L153.867,95.5L153.936,94.667L154.004,92.833L154.073,93.542L154.141,92.292L154.209,90.125L154.278,89.833L154.346,90.25L154.415,89.625L154.483,89.583L154.552,90.458L154.62,90.5L154.689,88.958L154.757,89.333L154.825,90.375L154.894,88.375L154.96,86.875L155.028,86.167L155.096,86.208L155.165,86.5L155.233,87.375L155.302,88.708L155.37,88.833L155.439,87.833L155.507,88.875L155.576,87.583L155.644,86.083L155.712,85.417L155.781,86.667L155.849,85.583L155.918,85.667L155.986,86.5L156.055,86.833L156.123,85.208L156.192,87.417L156.26,89.708L156.328,89.875L156.397,88.167L156.465,87.833L156.534,86.292L156.602,86.125L156.671,87.417L156.739,88.917L156.808,89.083L156.876,86.708L156.944,85.958L157.013,84.083L157.081,84L157.15,84.333L157.218,84.833L157.287,83.542L157.355,82.25L157.424,80.708L157.492,81.875L157.56,81.417L157.629,82.833L157.697,85.292L157.766,84.917L157.834,82.958L157.903,81.625L157.971,80.458L158.04,78.708L158.108,78.917L158.176,81.167L158.245,81.333L158.313,80.542L158.382,79.333L158.45,79.583L158.519,78.25L158.587,79.75L158.656,77.417L158.724,76.458L158.792,75.25L158.861,74.042L158.929,74.75L158.998,74.708L159.066,76.25L159.135,76.958L159.203,77.25L159.272,74L159.34,72.333L159.409,70.083L159.477,70.5L159.545,69.75L159.614,70.25L159.682,69.792L159.751,67.5L159.819,68.125L159.888,67.167L159.956,68.583L160.025,69.833L160.093,72.25L160.161,72.917L160.23,70.833L160.298,69.833L160.367,69.333L160.435,68.917L160.504,70.25L160.572,73.667L160.641,74.75L160.709,77.125L160.777,76.792L160.846,77.083L160.914,77.333L160.983,79.042L161.051,80.583L161.12,80.583L161.188,78.25L161.257,78.5L161.325,80.5L161.393,82.5L161.462,86.458L161.53,88.583L161.599,90.125L161.667,89.5L161.736,90.542L161.804,92.125L161.873,91.833L161.941,94.208L162.009,95L162.078,95.25L162.146,94.042L162.215,92.333L162.283,92.542L162.352,91.833L162.42,93.083L162.489,94.375L162.557,93.375L162.625,91.375L162.694,91.458L162.762,88.042L162.831,85.458L162.899,85.333L162.968,85.5L163.036,83.083L163.105,81.708L163.173,81.208L163.242,82.5L163.31,79.75L163.378,81.083L163.447,81.542L163.515,80.167L163.584,77.875L163.652,74.833L163.721,74.375L163.789,72.375L163.858,72.083L163.926,73.083L163.994,72.917L164.063,72.625L164.131,72.708L164.2,73.542L164.268,75.167L164.337,76.75L164.405,78.583L164.474,78.833L164.542,79.167L164.61,80L164.679,80.625L164.747,79.667L164.816,82.333L164.884,86.125L164.953,87.417L165.021,88.333L165.09,89.625L165.158,89.667L165.226,89.167L165.295,88.542L165.363,91.875L165.432,91.833L165.5,90.625L165.569,89.667L165.637,88.667L165.706,89.25L165.774,89.042L165.842,90.833L165.911,89.625L165.979,85.917L166.048,81.958L166.116,81.292L166.185,79.833L166.253,79.333L166.322,78.083L166.39,73.792L166.458,72.458L166.527,69.5L166.595,66.25L166.664,62.25L166.732,62.417L166.801,63.417L166.869,63.583L166.938,60.833L167.006,58L167.074,54.375L167.143,51.792L167.211,51.917L167.28,53.417L167.348,52.708L167.417,47.792L167.485,45.292L167.554,43.75L167.622,42.375L167.691,43.875L167.759,45.583L167.827,45.458L167.896,44.042L167.964,42.375L168.033,41.708L168.101,41.958L168.17,41.542L168.238,43.333L168.307,42.25L168.375,39L168.443,39.792L168.512,38.583L168.58,37.917L168.649,41.25L168.717,44.333L168.786,40.25L168.854,36.792L168.923,32.708L168.991,32.583L169.059,31.292L169.128,33L169.196,36.583L169.265,34.917L169.333,33.042L169.402,33.042L169.47,34.667L169.539,36.875L169.607,39.208L169.675,41.25L169.744,41.292L169.812,38.208L169.881,38.625L169.949,38.5L170.018,42L170.086,43.542L170.155,46.75L170.223,44.708L170.291,40.75L170.36,39.75L170.428,44.75L170.497,48.417L170.565,50.708L170.634,52.958L170.702,51.458L170.771,48.833L170.839,52.375L170.907,53.625L170.976,57.5L171.044,59.042L171.113,62.5L171.181,60.167L171.253,57.458L171.321,56.875L171.389,54.833L171.458,54.375L171.526,55.292L171.595,56.708L171.663,55.125L171.732,53.625L171.8,51.583L171.869,53.417L171.937,53.708L172.005,54.5L172.074,54.458L172.142,56.125L172.211,55.958L172.279,57.625L172.348,60.333L172.416,61.958L172.485,62.625L172.553,63.333L172.621,64.25L172.69,65.167L172.758,65.25L172.827,67.458L172.895,66.333L172.964,68.125L173.032,70.333L173.101,71.25L173.169,69.125L173.238,69.875L173.306,69.917L173.374,71.792L173.443,75.792L173.511,79.208L173.58,79.375L173.648,76.75L173.717,75.292L173.785,73.958L173.854,75.875L173.922,76.667L173.99,76.75L174.059,77.042L174.127,74.792L174.196,72.75L174.264,72.542L174.333,71.375L174.401,72.333L174.47,73.458L174.538,71.625L174.606,69L174.675,67.542L174.743,65.667L174.812,64.542L174.88,65.542L174.949,67.333L175.017,65.833L175.086,63.333L175.154,61.583L175.222,60.5L175.291,62.833L175.359,64.375L175.428,65.333L175.496,62.417L175.565,60.833L175.633,59.792L175.702,60.833L175.77,62.583L175.838,65.25L175.907,66.458L175.975,65.875L176.044,61.375L176.112,58.458L176.181,58.208L176.249,60L176.318,61.125L176.386,64.167L176.454,64.083L176.523,62.792L176.591,61.667L176.66,60.917L176.728,57.833L176.797,59.875L176.865,62.583L176.934,60.75L177.002,59.208L177.07,59.417L177.139,58.208L177.207,55.667L177.276,59.75L177.344,60.208L177.413,57.917L177.481,57.083L177.55,56L177.618,54.792L177.687,54.667L177.755,55.833L177.823,57.75L177.892,58.083L177.96,57.667L178.029,56.042L178.097,58.917L178.166,59.625L178.234,62.042L178.303,62.625L178.371,59.708L178.439,57.208L178.508,53.875L178.576,52.167L178.645,50.458L178.713,52.333L178.782,55.583L178.85,53.5L178.919,49.333L178.987,49.042L179.055,49.083L179.124,45.458L179.192,47.5L179.261,52.042L179.329,50.042L179.398,48.083L179.466,47.75L179.535,46.708L179.603,49.292L179.671,51.458L179.74,54.917L179.808,52.5L179.874,49.792L179.942,48.542L180.011,45.583L180.079,44.917L180.148,46.833L180.216,48.458L180.285,46.167L180.353,42.708L180.422,42.208L180.49,40.875L180.558,41.042L180.627,41.875L180.695,44.625L180.764,40.5L180.832,38.167L180.901,34.583L180.969,35.958L181.038,35.5L181.106,37.417L181.174,41.458L181.243,39.5L181.311,36.625L181.38,33.167L181.448,32.958L181.517,31.833L181.585,33.708L181.654,33.083L181.722,30.792L181.79,25.042L181.859,23.125L181.927,22.125L181.996,19.833L182.064,22.292L182.133,24.208L182.201,20.25L182.27,17.833L182.338,14.875L182.406,14.792L182.475,12.875L182.543,16.208L182.612,17.583L182.68,16.25L182.749,13.667L182.817,13.417L182.886,13.417L182.954,16L183.022,18L183.091,20.208L183.159,18.792L183.228,16L183.296,13.667L183.365,12.208L183.433,11.708L183.502,12.875L183.57,17L183.638,10.458L183.707,7.083L183.775,5.125L183.844,8.792L183.912,9.75L183.981,11L184.049,13.583L184.118,10.417L184.186,6.792L184.255,8.208L184.323,7.208L184.391,9.042L184.46,12.125L184.528,16.458L184.597,15.25L184.665,14.167L184.734,14.542L184.802,15L184.871,18.625L184.939,19.042L185.007,21.125L185.076,20.042L185.144,19.958L185.213,19.375L185.281,21.5L185.35,25.958L185.418,30.458L185.487,35.958L185.555,37.667L185.623,38.958L185.692,46.375L185.76,50.833L185.829,54.958L185.897,56.542L185.966,60.5L186.034,61.542L186.103,61.083L186.171,63.625L186.239,67.333L186.308,69.667L186.376,74.833L186.445,79.042L186.513,80.042L186.582,81.458L186.65,83.125L186.719,85.5L186.787,87.833L186.855,91.042L186.924,92.625L186.992,94.5L187.061,94.958L187.129,96.125L187.198,95.958L187.266,97.5L187.335,99L187.403,99.25L187.471,98.542L187.54,98.417L187.608,97.25L187.677,95.208L187.745,95.125L187.814,96.583L187.882,97.333L187.951,97.042L188.019,95.458L188.087,95.5L188.156,96.708L188.224,97.792L188.293,98.542L188.361,100L188.43,98.875L188.498,98.333L188.567,97.292L188.635,95.042L188.704,94.917L188.772,95.917L188.84,96.958L188.909,95.958L188.977,94.792L189.046,92.708L189.114,92.208L189.183,91.875L189.251,91.917L189.32,91.792L189.388,90.333L189.456,88.708L189.525,87.958L189.593,86.25L189.662,84.875L189.73,85.708L189.799,85.25L189.867,85.917L189.936,83.958L190.004,83.167L190.072,82L190.141,81.458L190.209,82.208L190.278,82.167L190.346,82.417L190.415,80.875L190.483,79.542L190.552,77.792L190.62,77.125L190.688,77.833L190.757,77.042L190.825,76.917L190.894,76.292L190.962,75.208L191.031,74.708L191.099,76.5L191.168,75.625L191.236,77.375L191.304,77.333L191.373,77L191.441,74.958L191.51,73.292L191.578,74.25L191.647,75.042L191.715,75.083L191.784,71.25L191.852,68L191.92,61.208L191.989,60.75L192.057,58.708L192.126,59.792L192.194,61.375L192.263,60.583L192.331,57.125L192.4,53.333L192.468,49.875L192.537,49.167L192.605,51.5L192.673,52.667L192.742,49.458L192.81,44.625L192.879,41.208L192.947,38.083L193.016,39.125L193.084,39.833L193.153,40.25L193.221,39.25L193.289,35.375L193.358,34.25L193.426,32.125L193.495,32.208L193.563,34.042L193.632,32.042L193.7,28.875L193.769,25.833L193.837,27.083L193.905,29.375L193.974,31.917L194.042,32.833L194.111,35.167L194.179,32.917L194.248,32.125L194.316,29.792L194.385,30L194.453,30.75L194.521,34.042L194.59,37.375L194.658,32.292L194.727,29.458L194.795,31L194.864,34.375L194.932,34.958L195.001,37.083L195.069,37.917L195.137,36.25L195.206,34.208L195.274,33.458L195.343,36.75L195.411,38.583L195.48,40.333L195.548,44.042L195.617,41.833L195.685,41L195.753,42.75L195.822,42.833L195.89,43.667L195.959,42.167L196.027,44.75L196.096,43.833L196.167,40.583L196.235,41.792L196.304,39.958L196.372,40.417L196.441,41.792L196.509,45.333L196.578,45.042L196.646,42.042L196.715,43.375L196.783,43.708L196.851,44.542L196.92,45.5L196.988,46.958L197.057,46.167L197.125,43.167L197.194,44.208L197.262,45.167L197.331,47.542L197.399,46.667L197.467,46.792L197.536,48.75L197.604,46.458L197.673,49.875L197.741,52.375L197.81,53.458L197.878,58.875L197.947,61.25L198.015,64.458L198.084,64.542L198.152,65.375L198.22,67.5L198.289,68.375L198.357,69.833L198.426,71.375L198.494,71.167L198.563,69.75L198.631,69.792L198.7,69.625L198.768,69.417L198.836,71.5L198.905,72.583L198.973,74.167L199.042,75.667L199.11,76.292L199.179,76.208L199.247,76.583L199.316,78L199.384,79.333L199.452,78.333L199.521,76.958L199.589,72.542L199.658,70.083L199.726,66.875L199.795,66.5L199.863,67.583L199.932,65.458L200,62.208L200.068,59.208L200.137,55.292L200.205,53.25L200.274,54.708L200.342,55.583L200.411,55.292L200.479,54.125L200.548,53.458L200.616,50.833L200.684,50.042L200.753,51.958L200.821,54.583L200.89,53.042L200.958,53.75L201.027,51.25L201.095,49.667L201.164,47.25L201.232,49.708L201.3,50.958L201.369,51L201.437,50.375L201.506,49.417L201.574,48.167L201.643,50.667L201.711,54.333L201.78,57.833L201.848,57.542L201.916,56.333L201.985,56.833L202.053,58.375L202.122,60.125L202.19,64.625L202.259,65.542" stroke="#4c78a8" stroke-width="2"/></g><g class="mark-group role-title"><g transform="translate(100,-22)"><path class="background" aria-hidden="true" d="M0,0h0v0h0Z" pointer-events="none"/><g><g class="mark-text role-title-text" role="graphics-symbol" aria-roledescription="title" aria-label="Title text 'Illegal Parking: Blocked Bike Lane'" pointer-events="none"><text text-anchor="middle" transform="translate(0,10)" font-family="sans-serif" font-size="13px" font-weight="bold" fill="#000" opacity="1">Illegal Parking: Blocked Bike Lane</text></g></g><path class="foreground" aria-hidden="true" d="" pointer-events="none" display="none"/></g></g></g><path class="foreground" aria-hidden="true" d="" display="none"/></g></g></g><defs><clipPath id="clip134"><rect x="0" y="0" width="200" height="150"/></clipPath></defs></svg>