<svg xmlns="http://www.w3.org/2000/svg" xmlns:xlink="http://www.w3.org/1999/xlink" version="1.1" class="marks" width="306" height="194" viewBox="0 0 306 194"><rect width="306" height="194" fill="white"/><g fill="none" stroke-miterlimit="10" transform="translate(53,22)"><g class="mark-group role-frame root" role="graphics-object" aria-roledescription="group mark container"><g transform="translate(0,0)"><path class="background" aria-hidden="true" d="M0,0h200v150h-200Z"/><g><g class="mark-group role-axis" aria-hidden="true"><g transform="translate(0.5,0.5)"><path class="background" aria-hidden="true" d="M0,0h0v0h0Z" pointer-events="none"/><g><g class="mark-rule role-axis-grid" pointer-events="none"><line transform="translate(0,150)" x2="200" y2="0" stroke="#ddd" stroke-width="1" opacity="1"/><line transform="translate(0,117)" x2="200" y2="0" stroke="#ddd" stroke-width="1" opacity="1"/><line transform="translate(0,83)" x2="200" y2="0" stroke="#ddd" stroke-width="1" opacity="1"/><line transform="translate(0,50)" x2="200" y2="0" stroke="#ddd" stroke-width="1" opacity="1"/><line transform="translate(0,17)" x2="200" y2="0" stroke="#ddd" stroke-width="1" opacity="1"/></g></g><path class="foreground" aria-hidden="true" d="" pointer-events="none" display="none"/></g></g><g class="mark-group role-axis" role="graphics-symbol" aria-roledescription="axis" aria-label="X-axis for a time scale with values from Friday, 01 January 2016, 12:00:00 AM to Monday, 01 January 2024, 12:00:00 AM"><g transform="translate(0.5,150.5)"><path class="background" aria-hidden="true" d="M0,0h0v0h0Z" pointer-events="none"/><g><g class="mark-rule role-axis-tick" pointer-events="none"><line transform="translate(0,0)" x2="0" y2="5" stroke="#888" stroke-width="1" opacity="1"/><line transform="translate(50,0)" x2="0" y2="5" stroke="#888" stroke-width="1" opacity="1"/><line transform="translate(100,0)" x2="0" y2="5" stroke="#888" stroke-width="1" opacity="1"/><line transform="translate(150,0)" x2="0" y2="5" stroke="#888" stroke-width="1" opacity="1"/><line transform="translate(200,0)" x2="0" y2="5" stroke="#888" stroke-width="1" opacity="1"/></g><g class="mark-text role-axis-label" pointer-events="none"><text text-anchor="start" transform="translate(0,15)" font-family="sans-serif" font-size="10px" fill="#000" opacity="1">2016</text><text text-anchor="middle" transform="translate(50.03422313483915,15)" font-family="sans-serif" font-size="10px" fill="#000" opacity="1">2018</text><text text-anchor="middle" transform="translate(100,15)" font-family="sans-serif" font-size="10px" fill="#000" opacity="1">2020</text><text text-anchor="middle" transform="translate(150.03422313483915,15)" font-family="sans-serif" font-size="10px" fill="#000" opacity="1">2022</text><text text-anchor="end" transform="translate(200,15)" font-family="sans-serif" font-size="10px" fill="#000" opacity="1">2024</text></g><g class="mark-rule role-axis-domain" pointer-events="none"><line transform="translate(0,0)" x2="200" y2="0" stroke="#888" stroke-width="1" opacity="1"/></g></g><path class="foreground" aria-hidden="true" d="" pointer-events="none" display="none"/></g></g><g class="mark-group role-axis" role="graphics-symbol" aria-roledescription="axis" aria-label="Y-axis for a linear scale with values from 0 to 45"><g transform="translate(0.5,0.5)"><path class="background" aria-hidden="true" d="M0,0h0v0h0Z" pointer-events="none"/><g><g class="mark-rule role-axis-tick" pointer-events="none"><line transform="translate(0,150)" x2="-5" y2="0" stroke="#888" stroke-opacity="0" stroke-width="1" opacity="1"/><line transform="translate(0,117)" x2="-5" y2="0" stroke="#888" stroke-opacity="0" stroke-width="1" opacity="1"/><line transform="translate(0,83)" x2="-5" y2="0" stroke="#888" stroke-opacity="0" stroke-width="1" opacity="1"/><line transform="translate(0,50)" x2="-5" y2="0" stroke="#888" stroke-opacity="0" stroke-width="1" opacity="1"/><line transform="translate(0,17)" x2="-5" y2="0" stroke="#888" stroke-opacity="0" stroke-width="1" opacity="1"/></g><g class="mark-text role-axis-label" pointer-events="none"><text text-anchor="end" transform="translate(-7,153)" font-family="sans-serif" font-size="10px" fill="#000" opacity="1">0</text><text text-anchor="end" transform="translate(-7,119.66666666666667)" font-family="sans-serif" font-size="10px" fill="#000" opacity="1">10</text><text text-anchor="end" transform="translate(-7,86.33333333333334)" font-family="sans-serif" font-size="10px" fill="#000" opacity="1">20</text><text text-anchor="end" transform="translate(-7,53.00000000000001)" font-family="sans-serif" font-size="10px" fill="#000" opacity="1">30</text><text text-anchor="end" transform="translate(-7,19.666666666666675)" font-family="sans-serif" font-size="10px" fill="#000" opacity="1">40</text></g></g><path class="foreground" aria-hidden="true" d="" pointer-events="none" display="none"/></g></g><g class="mark-line role-mark marks" clip-path="url(#clip135)" role="graphics-object" aria-roledescription="line mark container"><path aria-label="day: Jun 04, 2010; avg: 10.2666666667" role="graphics-symbol" aria-roledescription="line mark" d="M-139.428,115.778L-139.359,116.222L-139.291,116.222L-139.223,117.222L-139.154,118.444L-139.086,118.889L-139.017,119.222L-138.949,120.444L-138.88,122L-138.812,121.111L-138.743,120.556L-138.675,119.778L-138.607,119.889L-138.538,120.111L-138.47,120.444L-138.401,120.556L-138.333,118.889L-138.264,119.444L-138.196,120.222L-138.127,121L-138.059,121.111L-137.991,122.444L-137.922,122.111L-137.854,121.778L-137.785,121.444L-137.717,122.444L-137.648,121.778L-137.58,121.778L-137.511,122.778L-137.375,122.778L-137.306,122.111L-137.238,121.667L-137.169,121.222L-137.101,119.444L-137.032,119.667L-136.964,119.778L-136.895,118.778L-136.827,117.889L-136.758,118L-136.69,118.333L-136.622,117.556L-136.553,119L-136.485,119.778L-136.416,118.778L-136.348,118.111L-136.279,118.111L-136.211,119L-136.142,117.444L-136.074,118.222L-136.006,118.667L-135.937,117.778L-135.869,117.444L-135.8,118.667L-135.732,117.889L-135.663,117.444L-135.595,117.556L-135.526,119L-135.458,118.556L-135.39,117.778L-135.321,118.444L-135.253,118.333L-135.184,117.333L-135.116,118.333L-135.047,119.667L-134.979,119.444L-134.91,119.333L-134.842,119.889L-134.774,119.889L-134.705,120L-134.637,120.444L-134.568,121.333L-134.5,120.444L-134.431,119.333L-134.363,120.556L-134.294,120.667L-134.226,120.333L-134.158,121.222L-134.089,122.889L-134.021,121.444L-133.952,120.333L-133.884,121.111L-133.815,121.333L-133.747,121L-133.678,122.444L-133.61,123.222L-133.542,122.444L-133.473,121.556L-133.405,121.889L-133.336,122.556L-133.268,122.333L-133.199,122.556L-133.131,123.444L-133.062,122.556L-132.994,121L-132.926,120.667L-132.857,119.889L-132.789,119L-132.72,119.111L-132.652,119.222L-132.583,119.111L-132.515,118.667L-132.446,119.333L-132.378,118.778L-132.309,117.333L-132.241,118.111L-132.173,118.111L-132.104,116.889L-132.036,116.111L-131.967,117.333L-131.899,116.889L-131.83,116.444L-131.762,116L-131.693,116.556L-131.625,116.111L-131.557,115.444L-131.488,115.667L-131.42,115.333L-131.351,114.333L-131.283,114.556L-131.214,115L-131.146,115.778L-131.077,116L-131.009,117L-130.941,118.444L-130.872,118.444L-130.804,119.889L-130.735,121.333L-130.667,120.222L-130.598,118.667L-130.53,118.778L-130.461,119.667L-130.393,118.333L-130.325,120L-130.256,121.111L-130.188,120.778L-130.119,121.222L-130.051,122.222L-129.982,123.222L-129.914,122.556L-129.845,124.556L-129.777,124.889L-129.709,124.222L-129.64,122.778L-129.572,122.556L-129.503,123.667L-129.435,123.222L-129.366,124.444L-129.298,125.667L-129.229,125.111L-129.161,124.556L-129.093,124.444L-129.024,123.889L-128.956,123.556L-128.887,123.444L-128.819,123.333L-128.75,122.667L-128.679,121.667L-128.611,123.556L-128.542,125L-128.474,123.667L-128.405,123.333L-128.337,125L-128.268,123.889L-128.2,123.333L-128.131,123.333L-128.063,122.667L-127.995,120.889L-127.926,120.889L-127.858,120.889L-127.789,119.444L-127.721,117.778L-127.652,118.556L-127.584,118.111L-127.515,118.889L-127.447,118.667L-127.379,119.889L-127.31,117.778L-127.242,115.111L-127.173,113.667L-127.105,111.444L-127.036,107.111L-126.968,104.778L-126.899,103.333L-126.831,102.111L-126.762,102.556L-126.694,103L-126.626,103.667L-126.557,102.444L-126.489,102.333L-126.42,103.667L-126.352,102.222L-126.283,101.556L-126.215,102.556L-126.146,102.333L-126.078,101L-126.01,101.667L-125.941,103L-125.873,102.778L-125.804,102.778L-125.736,103.444L-125.667,104.667L-125.599,105.111L-125.53,106.556L-125.462,106.222L-125.394,105.889L-125.325,105.667L-125.257,107.889L-125.188,109.333L-125.12,109L-125.051,109.778L-124.983,111.778L-124.914,113L-124.846,113.778L-124.778,115L-124.709,114.222L-124.641,113.333L-124.572,112.889L-124.504,113L-124.435,112.889L-124.367,111.778L-124.298,112.333L-124.23,111.111L-124.162,109.111L-124.093,109.778L-124.025,110.667L-123.956,109.778L-123.888,109L-123.819,108.889L-123.751,109L-123.682,108.111L-123.614,109L-123.546,109.222L-123.477,109.333L-123.409,108.778L-123.34,108.889L-123.272,108L-123.203,107L-123.135,107.889L-123.066,110.444L-122.998,111.778L-122.93,112.889L-122.861,114.444L-122.793,114.556L-122.724,113.333L-122.656,113.889L-122.587,114.667L-122.519,114.889L-122.45,114.333L-122.382,115L-122.313,115.556L-122.245,116.333L-122.177,118.333L-122.108,120L-122.04,119.222L-121.971,119.111L-121.903,120.111L-121.834,121L-121.766,120.444L-121.697,121.222L-121.629,122.333L-121.561,121.111L-121.492,120L-121.424,119.778L-121.355,119.667L-121.287,118.556L-121.218,119.667L-121.15,119.889L-121.081,119.222L-121.013,118.444L-120.945,118.111L-120.876,117.889L-120.808,117.667L-120.739,118.222L-120.671,119.111L-120.602,118.889L-120.534,119L-120.465,118.444L-120.397,118.778L-120.329,118.556L-120.26,119.333L-120.192,118.333L-120.123,117.667L-120.058,118.333L-119.989,118.444L-119.921,118.111L-119.852,118L-119.784,118.333L-119.715,118.222L-119.647,118.111L-119.578,118.333L-119.51,119.778L-119.442,120.556L-119.373,120.556L-119.305,120.889L-119.236,122.556L-119.099,122.333L-119.031,123L-118.962,123.333L-118.894,123.111L-118.826,124.333L-118.757,125.667L-118.689,125.333L-118.62,124.444L-118.552,125L-118.483,124.667L-118.415,124.778L-118.346,126L-118.278,127.222L-118.21,125.889L-118.141,125.667L-118.073,126.333L-118.004,126.556L-117.936,125.222L-117.867,126.333L-117.799,127.111L-117.73,126.556L-117.662,125.556L-117.594,126.444L-117.525,125.556L-117.457,123.222L-117.388,122.222L-117.32,122.111L-117.251,122.222L-117.183,122.222L-117.114,121.556L-117.046,121L-116.978,120.333L-116.909,121.111L-116.841,121.556L-116.772,121.556L-116.704,121.333L-116.635,122.333L-116.567,123.222L-116.498,122.667L-116.43,123L-116.362,123.333L-116.293,123L-116.225,121.778L-116.156,123.222L-116.088,123.444L-116.019,123.333L-115.951,123.222L-115.882,124.222L-115.814,123.111L-115.745,123L-115.677,123.111L-115.609,121.667L-115.54,120.444L-115.472,120.556L-115.403,122.667L-115.335,122.778L-115.266,121.556L-115.198,121.889L-115.129,122L-115.061,121.778L-114.993,122.667L-114.924,122.778L-114.856,122.111L-114.787,121.667L-114.719,121.222L-114.65,120.444L-114.582,120L-114.513,120.556L-114.445,121.222L-114.377,121.889L-114.308,121L-114.24,121.444L-114.171,121.889L-114.103,122L-114.034,121.889L-113.966,122.444L-113.897,122.778L-113.829,121.444L-113.761,122L-113.692,121.778L-113.624,122.222L-113.555,124.778L-113.487,126.222L-113.418,126.444L-113.35,125.778L-113.281,126.222L-113.213,127.444L-113.145,127L-113.076,127.778L-113.008,128.444L-112.939,127.778L-112.871,127.222L-112.802,127.667L-112.734,127.667L-112.665,127.333L-112.597,128.111L-112.529,128.111L-112.46,127.222L-112.392,126.444L-112.323,126.556L-112.255,127.111L-112.186,125.889L-112.118,126.667L-112.049,126.111L-111.981,125.333L-111.913,124.778L-111.844,124.111L-111.776,124.444L-111.707,123.444L-111.639,123.889L-111.57,124.444L-111.502,124L-111.433,123.222L-111.365,123.889L-111.296,123.778L-111.228,123.222L-111.16,123.556L-111.091,123.444L-111.023,122.667L-110.954,122.333L-110.886,122.556L-110.817,123.444L-110.749,123.667L-110.68,124.778L-110.612,125.333L-110.544,125.556L-110.475,126.111L-110.407,126L-110.338,127.111L-110.27,126.778L-110.201,127L-110.133,127.222L-110.064,126.778L-109.996,126.111L-109.928,126.667L-109.859,127.556L-109.791,128.111L-109.722,128.333L-109.654,129.222L-109.585,129.778L-109.517,129.222L-109.448,128.778L-109.38,129.111L-109.312,128.778L-109.243,129.333L-109.175,129.556L-109.106,129.444L-109.038,128.889L-108.969,127.556L-108.901,126.889L-108.832,126.444L-108.696,126L-108.559,125.556L-108.49,125L-108.422,124.889L-108.353,124.222L-108.285,123.556L-108.216,124L-108.148,123.222L-108.08,122.444L-108.011,122.111L-107.943,122L-107.874,121.556L-107.806,122.667L-107.737,122.778L-107.669,122.444L-107.6,122.444L-107.532,123.333L-107.463,123.889L-107.395,123.222L-107.327,123.333L-107.258,123.667L-107.19,123.444L-107.121,121.778L-107.053,122L-106.984,122L-106.916,121.444L-106.847,122.667L-106.779,124.222L-106.711,125L-106.642,124.889L-106.574,125.444L-106.505,125L-106.437,124.667L-106.368,124.889L-106.3,125.778L-106.231,125.444L-106.163,125.444L-106.095,125.889L-106.026,125.444L-105.958,125.222L-105.889,126L-105.821,126.333L-105.752,126.556L-105.684,126.667L-105.615,126.667L-105.547,126.667L-105.479,126.556L-105.41,126.444L-105.342,127L-105.273,126.111L-105.205,126.111L-105.136,126.333L-105.068,127.556L-104.999,126.889L-104.931,127L-104.863,126.889L-104.794,124.889L-104.726,124.444L-104.657,124.222L-104.589,125.444L-104.52,124.889L-104.452,125.333L-104.383,126.111L-104.315,125.333L-104.247,124.667L-104.178,125.556L-104.11,124L-104.041,122.889L-103.973,123.889L-103.904,124.111L-103.836,123.111L-103.765,122.889L-103.696,122L-103.628,121.778L-103.559,120L-103.491,120.556L-103.422,120.111L-103.354,119.222L-103.285,118.556L-103.217,119.111L-103.149,118.111L-103.08,117.444L-103.012,117.667L-102.943,118.333L-102.875,117.778L-102.806,118L-102.738,119L-102.669,119L-102.601,118.556L-102.533,118.333L-102.464,119.111L-102.396,119.667L-102.327,118.333L-102.259,119.111L-102.19,118.333L-102.122,117.778L-102.053,119.444L-101.985,120.556L-101.916,121.222L-101.848,120.778L-101.78,121.778L-101.711,120.889L-101.643,120.222L-101.574,120.333L-101.506,122.556L-101.437,121.667L-101.369,121.444L-101.3,121.889L-101.232,121.556L-101.164,121L-101.095,122.333L-101.027,123.222L-100.958,123.444L-100.89,122.667L-100.821,123L-100.753,123L-100.684,122.222L-100.616,123L-100.548,123.667L-100.479,123.889L-100.411,123.111L-100.342,122.556L-100.274,122.889L-100.205,122.111L-100.137,123.111L-100.068,123.667L-100,123.556L-99.932,123.444L-99.863,123L-99.795,123.778L-99.726,122.556L-99.658,124L-99.589,125.222L-99.521,124.778L-99.452,123.778L-99.384,124.222L-99.316,124L-99.247,123.556L-99.179,124.556L-99.11,125.222L-99.042,125.222L-98.973,124.889L-98.905,124.667L-98.836,124.778L-98.768,124.222L-98.7,125L-98.631,126.556L-98.563,126.556L-98.494,125.444L-98.426,124.778L-98.357,124L-98.289,123.333L-98.22,123.889L-98.152,124.667L-98.084,123.667L-98.015,122.667L-97.947,122.556L-97.878,121.778L-97.81,121.667L-97.741,121.556L-97.673,123.222L-97.604,122.556L-97.536,122L-97.467,122.111L-97.399,122.889L-97.331,122.778L-97.262,123.444L-97.194,124L-97.125,122.556L-97.057,122L-96.988,121.778L-96.92,120.667L-96.851,120.556L-96.783,121.444L-96.715,122.333L-96.646,121.111L-96.578,120.778L-96.509,120.333L-96.441,120.556L-96.372,120.111L-96.304,121.333L-96.235,121.889L-96.167,120.667L-96.099,119.556L-96.03,120.556L-95.962,120.778L-95.893,119.778L-95.825,120.222L-95.756,119.889L-95.688,119L-95.619,117.333L-95.551,117.778L-95.483,117.778L-95.414,117.889L-95.346,117.778L-95.277,118.333L-95.209,118L-95.143,118.222L-95.075,119.111L-95.006,119.778L-94.938,120.222L-94.869,122L-94.801,122.444L-94.732,121L-94.664,119.889L-94.596,121L-94.527,120.333L-94.459,119.222L-94.39,120.222L-94.322,121L-94.253,120.778L-94.185,119.333L-94.116,120.333L-94.048,120.556L-93.98,119.889L-93.911,120.444L-93.843,121.667L-93.774,120.667L-93.706,120.111L-93.637,121L-93.569,120.444L-93.5,120.889L-93.432,121.444L-93.364,122.222L-93.295,121L-93.227,120.111L-93.158,120.444L-93.09,119.444L-93.021,118.556L-92.953,118.778L-92.884,118.222L-92.816,116.111L-92.748,114.333L-92.679,115.556L-92.611,117L-92.542,115.333L-92.474,116.222L-92.405,117.444L-92.337,116.556L-92.268,115.556L-92.2,115.444L-92.132,116.111L-92.063,115.222L-91.995,116.111L-91.926,116.778L-91.858,117.111L-91.789,116.444L-91.721,118L-91.652,118.111L-91.584,117.444L-91.516,119.444L-91.447,118.778L-91.379,117.444L-91.31,116.111L-91.242,117.222L-91.173,116.556L-91.105,116L-91.036,117L-90.968,118.111L-90.899,117.111L-90.831,117L-90.763,118.667L-90.694,119.556L-90.626,118.667L-90.557,118.444L-90.489,119.889L-90.42,119.556L-90.352,119.111L-90.283,120.111L-90.215,120.667L-90.147,120.222L-90.078,121.333L-90.01,122.556L-89.941,121.778L-89.873,120.667L-89.804,120.556L-89.736,120.444L-89.667,119L-89.599,119.333L-89.531,119L-89.462,118.111L-89.394,118.889L-89.325,119.222L-89.257,120.111L-89.188,120.111L-89.12,121.444L-89.051,121.444L-88.983,120.889L-88.915,120.667L-88.846,120.222L-88.778,119.222L-88.709,119.667L-88.641,120.444L-88.572,120.333L-88.504,119.556L-88.435,119.222L-88.367,119.333L-88.299,119.222L-88.23,118.778L-88.162,119L-88.093,119.889L-88.025,119.222L-87.956,119.333L-87.888,119.444L-87.819,120.333L-87.751,119.778L-87.683,120.222L-87.614,121.111L-87.477,121L-87.409,122.222L-87.34,122.556L-87.272,121.222L-87.203,122L-87.135,122.222L-87.067,122L-86.998,120.444L-86.93,121.222L-86.861,120.889L-86.793,120L-86.724,121.444L-86.656,123.111L-86.587,121.556L-86.519,121.111L-86.45,122.222L-86.382,122.333L-86.314,121.444L-86.245,121.667L-86.177,122L-86.108,122.556L-86.04,122.667L-85.971,122.222L-85.903,122.222L-85.834,121.333L-85.766,122L-85.698,122.444L-85.629,122.556L-85.561,122.556L-85.492,122.444L-85.424,122L-85.355,121.778L-85.287,122.111L-85.218,123L-85.15,123.556L-85.082,123L-85.013,122.889L-84.945,123.333L-84.876,122.444L-84.808,123.222L-84.739,124.333L-84.671,123.778L-84.602,123L-84.534,124L-84.466,123.667L-84.397,122.444L-84.329,123L-84.26,124.222L-84.192,124.444L-84.123,125L-84.055,123.889L-83.986,122.889L-83.918,122.778L-83.85,123.333L-83.781,123.667L-83.713,123L-83.644,121.111L-83.576,121L-83.507,120.222L-83.439,120.111L-83.37,120.889L-83.302,120.556L-83.234,120.444L-83.165,120.444L-83.097,119.667L-83.028,119.111L-82.96,118.778L-82.891,120L-82.823,120.222L-82.754,120.444L-82.686,120.556L-82.617,120.778L-82.549,120.222L-82.481,119.111L-82.412,120.222L-82.344,121.222L-82.275,120.667L-82.207,120L-82.138,119.444L-82.07,118.778L-82.001,119L-81.933,120.111L-81.865,121L-81.796,120.333L-81.728,120.222L-81.659,120.778L-81.591,121.889L-81.522,122L-81.454,123.222L-81.385,124.222L-81.317,124.889L-81.249,125.444L-81.18,126L-81.112,126.333L-81.043,126.778L-80.975,127.667L-80.906,128.444L-80.838,128.556L-80.769,128.667L-80.701,128.444L-80.633,128.889L-80.564,129.444L-80.496,130.444L-80.427,131L-80.359,130L-80.29,130.333L-80.222,131.222L-80.153,130.778L-80.085,130.556L-80.017,131.222L-79.948,131.667L-79.88,131.222L-79.811,131.111L-79.743,131.778L-79.674,131.889L-79.606,130.111L-79.537,130.444L-79.469,129.778L-79.401,128.667L-79.058,128.222L-78.99,127.889L-78.921,126.444L-78.85,124.333L-78.782,124.111L-78.713,123.111L-78.645,121.667L-78.576,121.222L-78.508,120.778L-78.439,120.556L-78.371,120.333L-78.303,119.556L-78.234,118L-78.166,117L-78.097,117.889L-78.029,118.333L-77.96,117.556L-77.892,116.889L-77.823,117.444L-77.755,117.778L-77.687,116.333L-77.618,116.778L-77.55,116.556L-77.481,115.444L-77.413,115.778L-77.344,116.778L-77.276,118.222L-77.207,116.889L-77.139,118L-77.07,118.667L-77.002,116.778L-76.934,116.889L-76.865,117.889L-76.797,118.889L-76.728,117.778L-76.66,118.667L-76.591,120.222L-76.523,119.111L-76.454,118.111L-76.386,119L-76.318,118.778L-76.249,118.111L-76.181,119.222L-76.112,120L-76.044,118.778L-75.975,118.667L-75.907,119.222L-75.838,118.556L-75.77,117.667L-75.702,118.222L-75.633,119.444L-75.565,119.333L-75.496,119.333L-75.428,120.111L-75.359,119.111L-75.291,117.333L-75.222,117.778L-75.154,119.333L-75.086,118.333L-75.017,117.667L-74.949,119.889L-74.88,118.778L-74.812,117.667L-74.743,118.222L-74.675,118.889L-74.606,117.778L-74.538,116.778L-74.47,118L-74.401,118.333L-74.333,118.222L-74.264,119.222L-74.196,120L-74.127,119.889L-74.059,119.889L-73.99,120.556L-73.922,120.444L-73.854,120.556L-73.785,120.889L-73.717,122.222L-73.648,121.222L-73.58,120.778L-73.511,118.889L-73.443,117.889L-73.374,117.778L-73.306,117.889L-73.238,118.333L-73.169,117.111L-73.101,116.222L-73.032,116L-72.964,116.444L-72.895,115.778L-72.827,116.333L-72.758,116.778L-72.69,115.667L-72.621,115.556L-72.553,115.667L-72.485,116L-72.416,116L-72.348,116.333L-72.279,115.111L-72.211,113.667L-72.142,113.444L-72.005,113L-71.937,112.333L-71.869,112.222L-71.8,112.556L-71.732,111.667L-71.663,111.222L-71.595,111.111L-71.526,111L-71.458,110.222L-71.389,111.889L-71.321,113.333L-71.253,113.222L-71.184,113.556L-71.116,114.778L-71.047,116L-70.979,117L-70.91,117.889L-70.842,118.111L-70.773,119L-70.705,119.556L-70.637,120.556L-70.568,121L-70.5,120.667L-70.431,121.556L-70.363,122.222L-70.294,121.556L-70.229,121.333L-70.16,121.889L-70.092,122.111L-70.023,120.778L-69.955,120.778L-69.886,121.889L-69.818,122L-69.75,121.556L-69.681,122L-69.613,122.111L-69.544,121.333L-69.476,122.222L-69.407,122.667L-69.339,121.222L-69.27,119.889L-69.202,120L-69.134,119.333L-69.065,117.111L-68.997,116.222L-68.928,115.889L-68.86,115.111L-68.791,114.444L-68.723,113.889L-68.654,114.111L-68.586,113.556L-68.518,114.556L-68.449,115.556L-68.381,115L-68.312,114.222L-68.244,114.667L-68.175,115.111L-68.107,115.889L-68.038,116.444L-67.97,117.444L-67.902,116.778L-67.833,115.889L-67.765,116.333L-67.696,116.667L-67.628,115.444L-67.559,116.222L-67.491,116.778L-67.422,116.222L-67.354,116.444L-67.286,117.333L-67.217,117.444L-67.149,116.667L-67.08,117.667L-67.012,119.778L-66.943,120.667L-66.875,120L-66.806,120.778L-66.738,120.889L-66.67,120.667L-66.601,120.444L-66.533,120.444L-66.464,120.111L-66.396,119.444L-66.327,119.667L-66.259,119L-66.19,118.556L-66.122,118.111L-66.054,117.556L-65.985,116.889L-65.917,117.222L-65.848,117.667L-65.78,117.111L-65.711,115.667L-65.643,115.667L-65.574,117L-65.506,116.667L-65.437,116.111L-65.369,116.222L-65.301,114.778L-65.232,114.778L-65.164,116.111L-65.095,116.667L-65.027,116L-64.958,114.667L-64.89,114.333L-64.821,113.778L-64.753,112.556L-64.685,113.444L-64.616,113.222L-64.548,111.889L-64.479,111.444L-64.411,111.444L-64.342,111.667L-64.274,111L-64.205,112.667L-64.137,113.667L-64.069,113.444L-64,113.667L-63.932,114.222L-63.863,114L-63.795,114.333L-63.726,115.222L-63.658,116.667L-63.589,116.111L-63.521,116L-63.453,116.556L-63.384,116.889L-63.316,115.667L-63.247,116.889L-63.179,116.667L-63.11,115.556L-63.042,115.111L-62.973,115.778L-62.905,115.889L-62.837,115.556L-62.768,116.889L-62.7,118.111L-62.631,116.778L-62.563,116.444L-62.494,117L-62.426,116.444L-62.357,115.222L-62.289,115.333L-62.221,116.222L-62.152,115L-62.084,114.333L-62.015,115.222L-61.947,115.111L-61.878,114.889L-61.81,115.667L-61.741,116.556L-61.673,116.222L-61.604,115L-61.536,115.111L-61.468,115.778L-61.399,114.889L-61.331,115.667L-61.262,116.889L-61.194,116.889L-61.125,116.778L-61.057,117.778L-60.988,117.667L-60.92,115.889L-60.852,117.222L-60.783,118L-60.715,117.111L-60.646,116.889L-60.578,117.778L-60.509,118.444L-60.441,118L-60.372,119.111L-60.304,120L-60.236,120.333L-60.167,119.667L-60.099,120.556L-60.03,121.444L-59.962,120.778L-59.893,121L-59.825,120.778L-59.756,119.889L-59.688,118.778L-59.62,119.111L-59.551,118.667L-59.483,118L-59.414,117.778L-59.346,118.111L-59.277,117.556L-59.209,116.111L-59.14,117.111L-59.072,117.889L-59.004,118L-58.935,118.222L-58.867,119.444L-58.798,119.111L-58.73,118.111L-58.661,118.111L-58.593,118.111L-58.524,118.111L-58.456,118.556L-58.388,119.667L-58.319,119.222L-58.251,118.667L-58.182,118.111L-58.114,118L-58.045,117.222L-57.977,116.222L-57.908,117L-57.84,116.333L-57.772,116.333L-57.703,116.889L-57.635,117.222L-57.566,116.556L-57.498,117.889L-57.429,119L-57.361,119.222L-57.292,119.778L-57.224,120.111L-57.155,121.667L-57.087,119.556L-57.019,119.444L-56.95,119.333L-56.882,119.111L-56.813,118.778L-56.745,118.778L-56.676,119.111L-56.608,119.111L-56.539,119.556L-56.471,119.333L-56.403,118.222L-56.334,117.111L-56.266,117.333L-56.197,117.556L-56.129,117.667L-56.06,118.778L-55.992,119.333L-55.923,120L-55.855,120.111L-55.787,119.333L-55.718,118.556L-55.65,118.889L-55.581,119.111L-55.513,120.111L-55.444,119.667L-55.376,119.444L-55.307,117.667L-55.239,116.333L-55.171,116.333L-55.102,116.222L-55.034,116.889L-54.965,115.444L-54.897,115L-54.828,114.444L-54.76,114.778L-54.691,114.556L-54.623,115.222L-54.555,115.222L-54.486,114.222L-54.418,114.556L-54.349,115.778L-54.281,115L-54.212,115.778L-54.144,116.444L-54.075,115.444L-53.936,114.222L-53.867,113.556L-53.799,112.111L-53.73,110.556L-53.662,111.333L-53.593,112.556L-53.525,111.778L-53.457,111.444L-53.388,111.222L-53.32,110.333L-53.251,109.333L-53.183,110.889L-53.114,112.222L-53.046,111.556L-52.977,111.556L-52.909,112.444L-52.841,112.889L-52.772,111.778L-52.704,113L-52.635,113.667L-52.567,112.222L-52.498,110.778L-52.43,112.222L-52.361,112.444L-52.293,112.222L-52.225,112.222L-52.156,114.556L-52.088,113.444L-52.019,112.111L-51.951,113.667L-51.882,114.667L-51.814,116L-51.745,117.333L-51.677,118.667L-51.608,119.333L-51.54,119.667L-51.472,120.556L-51.403,120.444L-51.335,120.556L-51.266,122.333L-51.198,123.444L-51.129,122.889L-51.061,122L-50.992,122.444L-50.924,121.667L-50.856,120.667L-50.787,121.778L-50.719,123.444L-50.65,124L-50.582,124.111L-50.513,125.556L-50.445,126.556L-50.376,126.222L-50.308,126.667L-50.24,127L-50.171,126L-50.103,124.111L-50.034,124.444L-49.966,125.222L-49.897,124.778L-49.829,124.556L-49.76,123.667L-49.692,123.333L-49.624,123.222L-49.555,123.333L-49.487,122.667L-49.418,121.111L-49.35,120.889L-49.281,121.111L-49.213,120.778L-49.144,120.667L-49.076,121.111L-49.008,121.778L-48.939,121.333L-48.871,121.778L-48.802,122.556L-48.734,122.556L-48.665,122.333L-48.597,122.222L-48.528,121.889L-48.46,122.111L-48.392,122.222L-48.323,122.222L-48.255,121.222L-48.186,119.889L-48.118,119.778L-48.049,119.778L-47.981,119.333L-47.912,119.667L-47.844,119.333L-47.775,119.111L-47.707,118.556L-47.639,118.444L-47.57,116.889L-47.502,115.333L-47.433,115.778L-47.365,116.333L-47.296,116.222L-47.228,114.889L-47.159,113.889L-47.091,112L-47.023,110.333L-46.954,110.444L-46.886,110.778L-46.817,109.667L-46.749,109.778L-46.68,109.444L-46.612,107.889L-46.543,106.889L-46.475,106.889L-46.407,106.778L-46.338,105L-46.27,104L-46.201,105.111L-46.133,105.889L-46.064,104.222L-45.996,104.889L-45.927,106L-45.859,104.667L-45.791,104.111L-45.722,104.333L-45.654,103.222L-45.585,103.444L-45.517,104.222L-45.448,105L-45.38,104L-45.314,104L-45.246,105.111L-45.177,105.333L-45.109,105.778L-45.04,107.889L-44.972,109.778L-44.904,108.444L-44.835,108.222L-44.767,110L-44.698,110.667L-44.63,110.889L-44.561,112.667L-44.493,113.222L-44.424,113.222L-44.356,113.222L-44.288,115.222L-44.219,114.667L-44.151,113.111L-44.082,113.889L-44.014,116L-43.945,115.667L-43.877,113.889L-43.808,115.222L-43.74,114.889L-43.672,114.333L-43.603,116.556L-43.535,116.444L-43.466,116.444L-43.398,115.889L-43.329,116.667L-43.261,116.333L-43.192,114.556L-43.124,115.333L-43.056,116.222L-42.987,115.556L-42.919,114.222L-42.85,115.111L-42.782,114.222L-42.713,113.667L-42.645,113.222L-42.576,113.111L-42.508,112.111L-42.44,111.111L-42.371,111.111L-42.303,110L-42.234,108.778L-42.166,110.111L-42.097,111.333L-42.029,111.556L-41.96,111L-41.892,111.778L-41.824,112.222L-41.755,111.111L-41.687,112.444L-41.618,112.556L-41.55,110.444L-41.481,110.111L-41.413,110.667L-41.344,111.667L-41.276,111.444L-41.208,111.889L-41.139,113.222L-41.071,112.444L-41.002,111.667L-40.934,111.889L-40.865,111.333L-40.797,111.333L-40.728,112.778L-40.66,113.333L-40.591,112.667L-40.523,111.667L-40.455,111.889L-40.386,111.111L-40.318,109.556L-40.249,110.556L-40.181,111.333L-40.112,109.111L-40.044,108.111L-39.975,107.444L-39.907,106.222L-39.839,104.889L-39.77,105.778L-39.702,106.444L-39.633,105.778L-39.565,105.222L-39.496,107.222L-39.428,106L-39.359,106.222L-39.291,106.556L-39.223,107L-39.154,106.889L-39.086,105.667L-39.017,106.333L-38.949,104.556L-38.88,103.111L-38.812,105L-38.743,104.889L-38.675,102L-38.607,100.889L-38.538,101.333L-38.47,101.889L-38.401,101.444L-38.333,103.222L-38.264,104.556L-38.196,103.222L-38.127,101.556L-38.059,103.222L-37.991,103.444L-37.922,103.333L-37.854,105.556L-37.785,106.889L-37.717,106.556L-37.648,107.222L-37.58,108.111L-37.511,106.889L-37.443,106L-37.375,108L-37.306,108.111L-37.238,107L-37.169,105.889L-37.101,106.222L-37.032,106.778L-36.964,106.111L-36.895,108.667L-36.827,110.444L-36.758,108.444L-36.69,107.889L-36.622,110.556L-36.553,110.444L-36.485,110.778L-36.416,111.667L-36.348,112.889L-36.279,112.111L-36.211,110.778L-36.142,112.333L-36.074,113.556L-36.006,113.667L-35.937,115.222L-35.869,116.111L-35.8,114.556L-35.732,113.111L-35.663,113.667L-35.595,112.111L-35.526,110.111L-35.458,112.667L-35.39,113.556L-35.321,113.778L-35.253,112.444L-35.184,112.444L-35.116,111.889L-35.047,110.444L-34.979,110.778L-34.91,111.556L-34.842,109.333L-34.774,108.111L-34.705,109L-34.637,108.444L-34.568,108.111L-34.5,109.222L-34.431,109.222L-34.363,107.778L-34.294,106.889L-34.226,106.778L-34.158,106.889L-34.089,106.333L-34.021,106.778L-33.952,106.444L-33.884,104.333L-33.815,102.667L-33.747,103.667L-33.678,105.556L-33.61,105.556L-33.542,107L-33.473,108.667L-33.405,107.222L-33.336,106L-33.268,105.111L-33.199,105L-33.131,104.111L-33.062,105.222L-32.994,106.778L-32.926,107.556L-32.857,106.556L-32.789,107.778L-32.72,109.333L-32.652,110.222L-32.583,112.111L-32.515,113L-32.446,113.222L-32.378,111.556L-32.309,112.444L-32.241,113L-32.173,113.444L-32.104,115.111L-32.036,115.333L-31.967,113.778L-31.899,114.333L-31.83,115.778L-31.762,117L-31.693,116.778L-31.625,116.667L-31.557,116.444L-31.488,115L-31.42,113.333L-31.351,114L-31.283,113.333L-31.214,113.444L-31.146,114.889L-31.077,116.778L-31.009,116.444L-30.941,116.667L-30.872,115.556L-30.804,115.111L-30.735,114.222L-30.667,114L-30.598,113.333L-30.53,112.667L-30.461,111.889L-30.393,111L-30.325,111.333L-30.256,109.778L-30.188,109.556L-30.119,109.667L-30.051,106.778L-29.982,106L-29.914,107.333L-29.845,105.778L-29.777,103.667L-29.709,103.111L-29.64,103.667L-29.572,101.111L-29.503,100.111L-29.435,101.111L-29.366,102.667L-29.298,102.111L-29.229,104.111L-29.161,104.667L-29.093,103L-29.021,102L-28.953,103.111L-28.884,100.889L-28.816,100.556L-28.747,101.778L-28.679,102.778L-28.611,102.778L-28.542,102.333L-28.474,102.444L-28.405,102L-28.337,99.778L-28.268,100.889L-28.2,101.667L-28.131,100.556L-28.063,99.333L-27.995,101.333L-27.926,101.444L-27.858,100.333L-27.789,101.778L-27.721,103.778L-27.652,102.444L-27.584,101L-27.515,103.333L-27.447,104.556L-27.379,104.111L-27.31,104.556L-27.242,105.556L-27.173,103.444L-27.105,102L-27.036,103.778L-26.968,104.667L-26.899,103.667L-26.831,105.889L-26.762,106.556L-26.694,105.556L-26.626,104.556L-26.557,104.556L-26.489,105L-26.42,104.667L-26.352,104.667L-26.283,106.778L-26.215,106L-26.146,106.222L-26.078,107.778L-26.01,109.444L-25.941,110L-25.873,111.111L-25.804,112.667L-25.736,113.333L-25.667,112.778L-25.599,114.333L-25.53,114.222L-25.462,113.222L-25.394,113.333L-25.325,114.111L-25.257,113.333L-25.188,113.889L-25.12,115.111L-25.051,116.889L-24.983,115.667L-24.914,115.111L-24.846,115.667L-24.778,115.444L-24.709,115.111L-24.641,116.222L-24.572,117.333L-24.504,116.889L-24.435,117.333L-24.367,117.222L-24.298,117.667L-24.23,117L-24.162,116.778L-24.093,117.444L-24.025,117.111L-23.956,117.111L-23.888,117.111L-23.819,117L-23.751,116.667L-23.682,116.667L-23.614,117.667L-23.546,117.778L-23.477,118.889L-23.409,119.444L-23.34,119L-23.272,118.444L-23.203,118.222L-23.135,118L-23.066,117.667L-22.998,116.222L-22.93,117.111L-22.861,117.556L-22.793,116.556L-22.724,116.556L-22.656,117.556L-22.587,117.444L-22.519,118.333L-22.45,118L-22.382,117.222L-22.313,116.667L-22.245,116.667L-22.177,116.667L-22.108,116.778L-22.04,116.778L-21.971,116.333L-21.903,115.889L-21.834,114.778L-21.766,114L-21.697,112.333L-21.629,110.444L-21.561,110.667L-21.492,110.444L-21.424,109.889L-21.355,109L-21.287,108.778L-21.218,108.222L-21.15,107.222L-21.081,106.889L-21.013,107.556L-20.945,107.778L-20.876,106.667L-20.808,106.667L-20.739,107.556L-20.671,107.444L-20.602,107L-20.534,107.333L-20.465,106.222L-20.4,106.444L-20.331,107.222L-20.263,107.778L-20.195,108.333L-20.126,109.111L-20.058,109.889L-19.989,109.111L-19.921,108.778L-19.852,109.111L-19.784,107.556L-19.715,106.889L-19.647,108.556L-19.578,109.778L-19.51,107L-19.442,105.556L-19.373,105.778L-19.305,105.333L-19.236,104.667L-19.168,105.889L-19.099,107.111L-19.031,106.444L-18.962,105.111L-18.894,105.444L-18.826,105.111L-18.757,103.667L-18.689,104.111L-18.62,103.667L-18.552,102.111L-18.483,101.333L-18.415,101.444L-18.346,100.333L-18.278,98.778L-18.21,99.556L-18.141,99.333L-18.073,98.556L-18.004,97.111L-17.936,97.889L-17.867,97.556L-17.799,97.111L-17.73,99.556L-17.662,100.778L-17.594,99.778L-17.525,98.889L-17.457,100.444L-17.388,100.889L-17.32,99.889L-17.251,102.111L-17.183,103.333L-17.114,103.444L-17.046,101.778L-16.978,102.778L-16.909,102.556L-16.841,101.111L-16.772,102.778L-16.704,103.667L-16.635,102.333L-16.567,101.333L-16.498,102.556L-16.43,101.111L-16.362,100.667L-16.293,101.889L-16.225,103.667L-16.156,101.667L-16.088,100L-16.019,101.111L-15.951,101L-15.882,99.556L-15.814,100.889L-15.745,100.556L-15.677,99L-15.609,96.778L-15.54,97L-15.472,96.444L-15.403,96.667L-15.335,98.222L-15.266,99.889L-15.198,98.333L-15.129,96.667L-15.061,96L-14.993,97L-14.924,94.556L-14.856,96.111L-14.787,97.778L-14.719,96.222L-14.65,95L-14.582,95.889L-14.513,96.222L-14.445,96.556L-14.377,98.778L-14.308,99.667L-14.24,99.222L-14.171,97.444L-14.103,98.889L-14.034,98.889L-13.966,98.444L-13.897,100.222L-13.829,101.444L-13.761,100.222L-13.692,100.222L-13.624,101.444L-13.555,101.778L-13.487,102.556L-13.418,104.444L-13.35,104.556L-13.281,103.889L-13.213,103.556L-13.145,104L-13.076,104.333L-13.008,103.889L-12.939,105.222L-12.871,107.444L-12.802,106.222L-12.734,105.333L-12.665,106L-12.597,105.333L-12.529,104.111L-12.46,105.111L-12.392,104.889L-12.323,103.111L-12.255,102.333L-12.186,102.667L-12.118,102.444L-12.049,101.667L-11.981,103.444L-11.913,103.444L-11.844,102.444L-11.776,101.889L-11.707,102.889L-11.639,101.778L-11.57,100.778L-11.502,102.778L-11.433,102.556L-11.365,101.111L-11.296,100.556L-11.228,100.222L-11.16,100.111L-11.091,99.444L-11.023,99.667L-10.954,100.222L-10.886,98.556L-10.817,96.444L-10.749,97.778L-10.68,97L-10.612,96.556L-10.544,98.778L-10.475,101L-10.407,99.889L-10.338,99L-10.27,100L-10.201,99.333L-10.133,99.667L-10.064,101.556L-9.996,102.778L-9.928,102.444L-9.859,101.333L-9.791,101.889L-9.722,101.444L-9.654,100.333L-9.585,101.556L-9.517,102.444L-9.448,102.222L-9.38,102.667L-9.312,102.556L-9.243,101.889L-9.175,101.111L-9.106,101L-9.038,101.111L-8.969,100L-8.901,99.333L-8.832,100.556L-8.764,101.667L-8.696,101.889L-8.627,103.889L-8.559,104.444L-8.49,104.444L-8.422,103.222L-8.353,104.333L-8.285,104.333L-8.216,101.778L-8.148,102.778L-8.08,103.111L-8.011,103L-7.943,102.889L-7.874,102.222L-7.806,102L-7.737,100.667L-7.669,102.333L-7.6,103.444L-7.532,104.333L-7.463,102.889L-7.395,102.556L-7.327,100.222L-7.258,99.889L-7.19,101.222L-7.121,102.111L-7.053,100.889L-6.984,100.889L-6.916,102.222L-6.847,101.111L-6.779,100.444L-6.711,101.333L-6.642,100L-6.574,98L-6.505,96.667L-6.437,95.889L-6.368,94.667L-6.3,93.222L-6.231,94.778L-6.163,98L-6.095,96.444L-6.026,96.222L-5.958,95.667L-5.889,94.556L-5.821,93.444L-5.752,95L-5.684,96L-5.615,94.111L-5.547,92.333L-5.479,92.333L-5.41,93.222L-5.342,91.778L-5.273,93.889L-5.205,94.333L-5.136,92.667L-5.068,92.889L-4.999,93.556L-4.931,92.778L-4.863,91.111L-4.794,93.111L-4.726,92.778L-4.657,91.333L-4.589,91.333L-4.52,92.333L-4.452,94.222L-4.383,94.333L-4.315,96.556L-4.247,98.444L-4.178,96.778L-4.107,95.667L-4.038,96.667L-3.97,94L-3.901,93.111L-3.833,94.222L-3.765,94.889L-3.696,93.222L-3.628,93.778L-3.559,94.556L-3.491,94.333L-3.422,92.111L-3.354,92.778L-3.285,94L-3.217,92.333L-3.149,92.222L-3.08,93.111L-3.012,91.667L-2.943,92.111L-2.875,94.222L-2.806,96.222L-2.738,94.667L-2.669,92.333L-2.601,93.556L-2.533,94.111L-2.464,94.667L-2.396,94.889L-2.327,95.778L-2.259,94.333L-2.19,91.556L-2.122,92.444L-2.053,91.333L-1.985,91.889L-1.916,94.444L-1.848,95.667L-1.78,93.889L-1.711,93.333L-1.643,95.222L-1.574,94.444L-1.506,93.778L-1.437,95.667L-1.369,97.444L-1.3,96L-1.232,95L-1.164,96.667L-1.095,95.778L-1.027,95.444L-0.958,97.333L-0.89,97.778L-0.821,98.111L-0.753,96.111L-0.684,97.333L-0.616,99.556L-0.548,99.556L-0.479,100.222L-0.411,97.778L-0.342,95.333L-0.274,93.556L-0.205,92.889L-0.137,94.667L-0.068,94.889L0,96.556L0.068,96L0.137,94L0.205,93L0.274,94L0.342,94L0.411,94L0.479,94.556L0.548,95.444L0.616,95.556L0.684,94.222L0.753,95.222L0.821,95.556L0.89,94.667L0.958,97.444L1.027,99.333L1.095,99.333L1.164,99L1.232,98.111L1.3,99.667L1.369,99L1.437,100.111L1.506,100.333L1.574,99.111L1.643,100L1.711,101.222L1.78,101.889L1.848,102.333L1.916,103.444L1.985,103L2.053,101.778L2.122,101.778L2.19,103.222L2.259,103.667L2.327,104.778L2.396,106L2.464,105.778L2.533,104.889L2.601,102.889L2.669,102.889L2.738,102.556L2.806,102.444L2.875,103.889L2.943,104.444L3.012,102.333L3.08,101.111L3.149,100.444L3.217,99L3.285,97.556L3.354,98.333L3.422,99.667L3.491,99.778L3.559,97.778L3.628,98.778L3.696,100L3.765,100.444L3.833,100.556L3.901,100.333L3.97,98.667L4.038,98.111L4.107,99.556L4.175,99.111L4.244,98.778L4.312,99.667L4.381,99.111L4.449,96.778L4.517,95.778L4.586,96.444L4.654,96.778L4.723,95L4.791,97.111L4.86,96.222L4.928,94L4.994,92.889L5.062,93.222L5.131,91.556L5.199,90.444L5.268,92L5.336,93.333L5.404,93L5.473,91.111L5.541,90.556L5.61,90.778L5.678,89.333L5.747,90.222L5.815,90.667L5.884,89.667L5.952,90.333L6.02,91.333L6.089,92.889L6.157,93.222L6.226,93.889L6.294,94.667L6.363,94L6.431,92.556L6.5,94.333L6.568,95.444L6.636,94.222L6.705,96.556L6.773,98.111L6.842,96.222L6.91,97L6.979,97.667L7.047,98L7.116,97L7.184,98.889L7.252,100.556L7.321,98.667L7.389,97.778L7.458,97.111L7.526,97.222L7.595,95.556L7.663,96.667L7.732,97.556L7.8,95.111L7.868,93.667L7.937,95.667L8.005,94.778L8.074,94.222L8.142,94.667L8.211,95L8.279,96.111L8.348,94.889L8.416,93.889L8.484,92.778L8.553,91.444L8.621,91.222L8.69,92.778L8.758,91.667L8.827,90.667L8.895,91.889L8.964,90.222L9.032,89.778L9.101,90.667L9.169,92.333L9.237,92.889L9.306,90.889L9.374,92.556L9.443,92.778L9.511,91L9.58,91.778L9.648,93.222L9.717,92L9.785,91.222L9.853,92.111L9.922,92.222L9.99,89.556L10.059,90.556L10.127,89.889L10.196,87.333L10.264,86L10.333,84.778L10.401,84.111L10.469,84.222L10.538,87L10.606,89.111L10.675,89.222L10.743,89.333L10.812,89.667L10.88,90.444L10.949,88.889L11.017,91L11.085,92L11.154,91.222L11.222,90.556L11.291,89.444L11.359,90.667L11.428,90L11.496,91L11.565,93.556L11.633,92.444L11.701,91.333L11.77,91.889L11.838,91.556L11.907,90.778L11.975,91.667L12.044,94.444L12.112,93.222L12.181,93.111L12.249,94.444L12.317,93.778L12.386,92.667L12.454,94.778L12.523,95.444L12.591,93.111L12.66,91.556L12.728,91.111L12.797,90.444L12.865,89.111L12.933,89.333L13.002,90.889L13.07,90.778L13.139,90.111L13.207,91.333L13.276,90L13.344,89.333L13.413,89.778L13.481,90.667L13.55,90.778L13.618,90L13.686,91.444L13.755,92.222L13.823,91.556L13.892,93.556L13.96,94.556L14.029,94.333L14.097,91.778L14.166,93.222L14.234,93L14.302,91.778L14.371,93.111L14.439,94.778L14.508,92.889L14.576,91.889L14.645,94.333L14.713,94.889L14.782,93.889L14.85,94.889L14.918,95.778L14.987,96L15.055,95.333L15.124,95.111L15.192,94.889L15.261,92.222L15.329,94.444L15.398,94.667L15.466,94L15.534,94.111L15.603,94.222L15.671,92.667L15.74,91.778L15.808,92.667L15.877,94.444L15.945,91.778L16.014,91.889L16.082,91.222L16.15,91L16.219,89.889L16.287,91.667L16.356,93.111L16.424,91.556L16.493,89.556L16.561,91.556L16.63,91.333L16.698,89.222L16.766,90.222L16.835,91.444L16.903,91.333L16.972,92.111L17.04,91.778L17.109,91.667L17.177,91.222L17.246,93.444L17.314,95.444L17.383,95.778L17.451,96.111L17.519,96.778L17.588,95.889L17.656,94.556L17.725,96.778L17.793,96.889L17.862,96.889L17.93,96.778L17.999,98.667L18.067,97.667L18.135,96.333L18.204,98.333L18.272,99.222L18.341,98.778L18.409,98.556L18.478,100.444L18.546,99.111L18.615,96.889L18.683,98.556L18.751,100.667L18.82,99.111L18.888,99.444L18.957,99.222L19.025,97.889L19.094,96.333L19.162,97.556L19.231,99L19.299,96.111L19.367,96.333L19.436,95.556L19.504,95.667L19.573,95.667L19.641,95.889L19.71,96.444L19.778,96.444L19.847,96.111L19.915,96.556L19.983,95L20.052,94L20.12,94.556L20.189,97.222L20.257,96L20.326,94.222L20.394,93.889L20.463,94L20.531,93.111L20.599,96.889L20.668,98.333L20.736,98.111L20.805,96.333L20.873,98L20.942,95.667L21.01,94.333L21.079,95.222L21.147,96.556L21.215,94.778L21.287,93.111L21.355,94.667L21.424,94.889L21.492,94.222L21.561,95L21.629,94.111L21.697,93L21.766,91.667L21.834,91.889L21.903,91.667L21.971,88.556L22.04,90.333L22.108,91.889L22.177,92.333L22.245,89.889L22.313,91L22.382,91.222L22.45,90.444L22.519,91L22.587,92.222L22.656,92.222L22.724,92L22.793,91.889L22.861,91.333L22.93,89.667L22.998,92.333L23.066,93.444L23.135,94.111L23.203,92.556L23.272,93.556L23.34,93.333L23.409,93.111L23.477,93.333L23.546,95.333L23.614,96L23.682,96.889L23.751,98L23.819,97.889L23.888,96.333L23.956,98.111L24.025,100.889L24.093,100.778L24.162,98.889L24.23,98.667L24.298,97.667L24.367,97L24.435,98.556L24.504,99.444L24.572,98.333L24.641,96.889L24.709,95.667L24.778,95.111L24.846,94.222L24.914,95.667L24.983,97.111L25.051,96.222L25.12,95L25.188,94.556L25.257,95.111L25.325,93.333L25.394,94.222L25.462,94.556L25.53,91.556L25.599,90L25.667,89.778L25.736,90.222L25.804,91.333L25.873,93.222L25.941,95L26.01,95.111L26.078,93.444L26.146,93.778L26.215,92.333L26.283,92.667L26.352,96.444L26.42,96.111L26.489,96.444L26.557,95L26.626,96.222L26.694,95.667L26.762,95.778L26.831,97.222L26.899,98L26.968,97.889L27.036,97.778L27.105,98.111L27.173,98.111L27.242,96.222L27.31,97.222L27.379,98.556L27.447,98.111L27.515,96.556L27.584,99.444L27.652,97.667L27.721,96.111L27.789,96L27.858,95.556L27.926,95.222L27.995,95.667L28.063,95L28.131,95.444L28.2,93.889L28.268,95.444L28.337,95.222L28.405,91.889L28.474,92.444L28.542,92.333L28.611,93.333L28.679,92.222L28.747,93.556L28.816,94L28.884,92.667L28.953,91.556L29.021,92L29.09,90.333L29.158,88.667L29.227,90.111L29.295,92L29.363,89.667L29.432,89.222L29.5,90.111L29.569,90.333L29.637,88.556L29.706,90.778L29.774,91.667L29.843,90.556L29.908,90.333L29.977,90.889L30.045,90.444L30.114,91.333L30.182,92.889L30.25,93.667L30.319,95.778L30.387,96.889L30.456,98.556L30.524,99.222L30.593,97.889L30.661,98.889L30.73,99.333L30.798,97.222L30.866,96.778L30.935,97.556L31.003,98L31.072,96.333L31.14,98.667L31.209,100.333L31.277,98.444L31.346,96.556L31.414,98.778L31.482,97.778L31.551,95.778L31.619,97.667L31.688,99.222L31.756,97.444L31.825,97.111L31.893,97.556L31.962,96.333L32.03,94.222L32.098,93.111L32.167,92L32.235,90L32.304,87.444L32.372,86.778L32.441,84.667L32.509,84.222L32.578,84L32.646,85.222L32.714,83.889L32.783,82.667L32.851,84.111L32.92,83.889L32.988,84L33.057,84.333L33.125,85.667L33.194,85.556L33.262,85.111L33.33,86.444L33.399,87.556L33.467,86.889L33.536,89L33.604,90.556L33.673,89L33.741,87.889L33.81,89.111L33.878,88.111L33.946,86.222L34.015,87L34.083,87.667L34.152,87.333L34.22,86.778L34.289,87.556L34.357,87.667L34.426,85.556L34.494,87.556L34.563,87.333L34.631,85.556L34.699,84.778L34.768,85.333L34.836,84.556L34.905,83L34.973,82.778L35.042,81.889L35.11,82.444L35.179,83.222L35.247,82L35.315,81L35.384,80.444L35.452,80.556L35.521,81.556L35.589,81L35.658,81.889L35.726,83L35.795,82.444L35.863,82.444L35.931,83.444L36,85.556L36.068,84.889L36.137,85.222L36.205,85.222L36.274,82.778L36.342,81.111L36.411,83.778L36.479,85.333L36.547,83.111L36.616,82.778L36.684,83.111L36.753,82.889L36.821,81.556L36.89,83L36.958,85.333L37.027,85.111L37.095,85L37.163,84.222L37.232,82.222L37.3,81.556L37.369,83.111L37.437,83.778L37.506,83L37.574,82.444L37.643,83.111L37.711,80.778L37.779,79.556L37.848,80.778L37.916,80.667L37.985,80.667L38.053,80.556L38.122,81.556L38.19,81.444L38.259,81.333L38.327,84.556L38.396,86.778L38.464,85.444L38.532,85L38.601,86.111L38.669,87.222L38.738,88L38.806,88.222L38.875,89.556L38.943,89.444L39.012,87.889L39.08,89.556L39.148,90.111L39.217,89L39.285,90.889L39.354,92.111L39.422,90.222L39.491,89.222L39.559,91L39.628,89.333L39.696,89.111L39.764,90L39.833,92L39.901,92.889L39.97,92.333L40.038,92.667L40.107,92.111L40.175,90.111L40.244,90.889L40.312,91.333L40.38,89.778L40.449,87.889L40.517,89L40.586,89L40.654,88.111L40.723,89L40.791,89.667L40.86,88.111L40.928,87.556L40.996,87.556L41.065,88.889L41.133,88.667L41.202,88.778L41.27,90.444L41.339,88.556L41.407,86.889L41.476,88.333L41.544,89.333L41.612,88.556L41.681,90.667L41.749,90.333L41.818,90.333L41.886,88.222L41.955,87.444L42.023,88.667L42.092,88.333L42.16,88.667L42.228,90.333L42.297,90.889L42.365,89.889L42.434,91.667L42.502,93.444L42.571,93.111L42.639,94.222L42.708,95.222L42.776,94L42.845,92.556L42.913,94.667L42.981,94.667L43.05,94.667L43.118,94.667L43.187,92.889L43.255,93L43.324,93.333L43.392,94.222L43.461,94.222L43.529,93.889L43.597,93.222L43.666,93.111L43.734,91.444L43.803,91.222L43.871,92.222L43.94,91.556L44.008,90.778L44.077,90.556L44.145,90.667L44.213,89.333L44.282,89L44.35,88.556L44.419,87.889L44.487,88L44.556,88L44.624,88.222L44.693,85.333L44.761,84.667L44.829,85.556L44.898,84.889L44.966,82.667L45.035,83.667L45.103,84L45.172,82.556L45.24,82.222L45.309,82.556L45.377,82.333L45.445,81.556L45.514,83.889L45.582,84.222L45.651,84.556L45.719,83.667L45.788,85.222L45.856,83.556L45.925,81.667L45.993,82.778L46.061,83L46.13,81.667L46.201,79.667L46.27,81.111L46.338,79.333L46.407,79.333L46.475,81.889L46.543,81.111L46.612,80L46.68,78.889L46.749,80.778L46.817,81.778L46.886,80.444L46.954,81.667L47.023,83.333L47.091,82.111L47.159,81.333L47.228,82.444L47.296,82.333L47.365,80.889L47.433,81.667L47.502,83.556L47.57,83L47.639,82.333L47.707,82.556L47.775,83.444L47.844,83.444L47.912,86.556L47.981,89.111L48.049,91L48.118,91.778L48.186,93.556L48.255,96.222L48.323,96L48.392,97.778L48.46,97.667L48.528,97.889L48.597,98.222L48.665,99.444L48.734,101.222L48.802,102L48.871,102.778L48.939,104.444L49.008,106L49.076,105.778L49.144,107.556L49.213,106.444L49.281,105.111L49.35,106.889L49.418,108.333L49.487,106.333L49.555,104.778L49.624,105.111L49.692,104.889L49.76,103.556L49.829,103.889L49.897,103.667L49.966,101.889L50.034,99.667L50.103,98.111L50.171,94.556L50.24,92.667L50.308,92.667L50.376,92.889L50.445,92.778L50.513,90.556L50.582,89L50.65,88L50.719,86.778L50.787,87L50.856,87.333L50.924,86.667L50.992,84.778L51.061,84.889L51.129,84.556L51.198,83.778L51.266,85.889L51.335,87L51.403,87.556L51.472,86.333L51.54,87.778L51.608,87.556L51.677,86L51.745,87.556L51.814,89.444L51.882,88.889L51.951,88L52.019,88.889L52.088,90L52.156,88.889L52.225,92.889L52.293,94L52.361,92.667L52.43,91.889L52.498,93.111L52.567,95.222L52.635,94.778L52.704,95.667L52.772,97.222L52.841,95L52.909,93.222L52.977,92.667L53.046,92L53.114,88.667L53.183,90.444L53.251,90.333L53.32,88.667L53.388,87.444L53.457,87.778L53.525,88.889L53.593,88.667L53.662,90.667L53.73,90.667L53.799,87L53.867,84.778L53.936,85L54.004,85.889L54.073,85.889L54.141,85.778L54.209,87L54.278,85.444L54.346,85L54.415,86.667L54.483,88.111L54.552,87.778L54.62,88L54.689,89L54.757,88.444L54.823,86.778L54.891,88.333L54.96,88.556L55.028,87.778L55.096,89L55.165,91.444L55.233,90.222L55.302,89.556L55.37,90.778L55.439,91.111L55.507,89.889L55.576,88.889L55.644,88.778L55.712,86.778L55.781,86.111L55.849,89.556L55.918,90.444L55.986,88.889L56.055,89.111L56.123,88.778L56.192,87.556L56.26,86.333L56.328,86.889L56.397,85.778L56.465,84.556L56.534,83.778L56.602,84.333L56.671,83.222L56.739,83.111L56.808,84L56.876,84.444L56.944,83.111L57.013,83.222L57.081,84.889L57.15,84.444L57.218,84.222L57.287,84.778L57.355,84.111L57.424,82.667L57.492,83.778L57.56,84.111L57.629,85.111L57.697,83.444L57.766,83.333L57.834,84.222L57.903,82.222L57.971,82.667L58.04,85.222L58.108,86L58.176,84.667L58.245,86.444L58.313,87L58.382,85.778L58.45,87.778L58.519,87.778L58.587,86.556L58.656,84.667L58.724,85.333L58.792,84.333L58.861,83.444L58.929,83.889L58.998,84.333L59.066,84.111L59.135,81.333L59.203,82.889L59.272,82.333L59.34,81.667L59.409,82.444L59.477,83.889L59.545,82.556L59.614,80.222L59.682,79.667L59.751,80.889L59.819,81.333L59.888,82.556L59.956,84.889L60.025,82.889L60.093,81.444L60.161,81.111L60.23,80.111L60.298,78.111L60.367,78.444L60.435,80.444L60.504,80.556L60.572,79.111L60.641,81.333L60.709,81.778L60.777,81.222L60.846,82.444L60.914,83.222L60.983,82.889L61.051,83.778L61.12,84.333L61.188,84.667L61.257,83.222L61.325,84.778L61.393,85.556L61.462,86.111L61.53,84.889L61.599,85.889L61.667,86.889L61.736,85.889L61.804,86.667L61.873,86.889L61.941,84.667L62.009,83.111L62.078,84.889L62.146,84.667L62.215,83.444L62.283,86.444L62.352,88.222L62.42,88.111L62.489,86.778L62.557,86L62.625,85.889L62.694,83.667L62.762,84L62.831,83.778L62.899,82.778L62.968,81.222L63.036,82.222L63.105,81.556L63.173,80.667L63.242,82.667L63.31,84.111L63.378,83.333L63.447,82L63.515,81.444L63.584,82L63.652,82.222L63.721,84.222L63.789,86L63.858,84.889L63.926,85.889L63.994,88.444L64.063,89.667L64.131,88.222L64.2,89.222L64.268,89.556L64.337,87.667L64.405,86.667L64.474,86.667L64.542,85.778L64.61,84.667L64.679,86.556L64.747,88.111L64.816,88.889L64.884,88.889L64.953,89.667L65.021,88.778L65.09,86.444L65.158,86.667L65.226,88L65.295,88.333L65.363,88.778L65.432,89L65.5,88.778L65.569,88.111L65.637,89L65.706,88.778L65.774,87L65.842,85.778L65.911,87.444L65.979,85.667L66.048,84.889L66.116,83.889L66.185,85.667L66.253,85.222L66.322,85.333L66.39,86.444L66.458,85.556L66.527,85.444L66.595,86.778L66.664,89L66.732,89.444L66.801,89.333L66.869,88.889L66.938,89.333L67.006,89.111L67.074,91.222L67.143,93.778L67.211,94.889L67.28,93.556L67.348,92.889L67.417,91.778L67.485,91L67.554,92.333L67.622,93.111L67.691,92.111L67.759,91.889L67.827,91.889L67.896,91.556L67.964,89.333L68.033,90.889L68.101,90.222L68.17,90.111L68.238,87.778L68.307,87.778L68.375,85.667L68.443,85.111L68.512,86.556L68.58,87.556L68.649,87.111L68.717,84.444L68.786,83.667L68.854,83.556L68.923,83.111L68.991,83.556L69.059,84.111L69.128,83.778L69.196,83.778L69.265,83.444L69.333,82.889L69.402,82.222L69.47,83.667L69.539,85.111L69.607,86L69.675,85.556L69.744,86.333L69.812,87.556L69.881,89L69.949,90.222L70.018,91.889L70.086,91L70.155,90.333L70.223,90.667L70.291,94L70.36,93.667L70.428,96.222L70.497,97.444L70.565,96.111L70.634,94.556L70.702,95.111L70.771,94.444L70.839,92.444L70.907,92.778L70.976,93.333L71.044,91.556L71.116,90.333L71.184,90.889L71.253,89.556L71.321,87.667L71.389,89.889L71.458,90.222L71.526,88.333L71.595,86L71.663,84.889L71.732,84.667L71.8,83.667L71.869,83.111L71.937,81.667L72.005,78.444L72.074,77.111L72.142,77.889L72.211,77.333L72.279,76.444L72.348,76.222L72.416,76.222L72.485,74.889L72.553,74.889L72.621,77L72.69,77.222L72.758,75.556L72.827,78.444L72.895,80.889L72.964,80L73.032,80.667L73.101,82.333L73.169,82.667L73.238,81.333L73.306,82.222L73.374,83.444L73.443,82.222L73.511,81.556L73.58,82.222L73.648,83.222L73.717,82.667L73.785,84.111L73.854,85L73.922,83L73.99,83.444L74.059,86.111L74.127,85.556L74.196,84.778L74.264,87.111L74.333,89.222L74.401,89.111L74.47,89.444L74.538,91.222L74.606,89.111L74.675,87.667L74.743,88.778L74.812,89.778L74.88,87.667L74.949,86.333L75.017,86.556L75.086,85.222L75.154,83.889L75.222,85.333L75.291,86.444L75.359,85.889L75.428,85.333L75.496,85.444L75.565,85.333L75.633,83.778L75.702,84.444L75.77,85.333L75.838,84.889L75.907,86.333L75.975,88L76.044,87.444L76.112,86.889L76.181,89.111L76.249,90.111L76.318,90L76.386,88.556L76.454,88L76.523,88.556L76.591,87L76.66,89.333L76.728,90.111L76.797,89.333L76.865,88.333L76.934,90.111L77.002,88.111L77.07,87.667L77.139,87.889L77.207,89.889L77.276,90.222L77.344,90.444L77.413,91.222L77.481,90.556L77.55,89.667L77.618,90.556L77.687,91.556L77.755,90.667L77.823,89.444L77.892,89.222L77.96,86.556L78.029,85.778L78.097,87.333L78.166,88.222L78.234,86.333L78.303,85.444L78.371,85.444L78.439,85.889L78.508,85.333L78.576,85.889L78.645,87.222L78.713,86.222L78.782,85.667L78.85,85.444L78.919,86.111L78.987,84.556L79.055,88.222L79.124,88L79.192,87.444L79.261,85.889L79.329,85.111L79.398,83.444L79.466,80.889L79.535,83L79.603,84.222L79.671,84.111L79.737,84.222L79.805,84.111L79.874,85.556L79.942,84.889L80.011,86.333L80.079,86.667L80.148,86.111L80.216,85.333L80.285,87.222L80.353,88.556L80.422,88.222L80.49,88.222L80.558,89L80.627,87.778L80.695,87.111L80.764,87.778L80.832,89.111L80.901,90.889L80.969,92L81.038,93.667L81.106,92.111L81.174,91.889L81.243,93.667L81.311,92.889L81.38,91L81.448,92.444L81.517,94.778L81.585,91.444L81.654,91.222L81.722,91.667L81.79,91.889L81.859,91.667L81.927,91.556L81.996,92L82.064,90L82.133,90.111L82.201,90.111L82.27,90.222L82.338,87.667L82.406,87.111L82.475,86.889L82.543,85.556L82.612,85.556L82.68,85.444L82.749,85.111L82.817,83.889L82.886,83.333L82.954,83L83.022,83.111L83.091,82L83.159,83.111L83.228,84L83.296,80.222L83.365,82.444L83.433,84.333L83.502,84L83.57,83.778L83.638,86.556L83.707,87.667L83.775,85.889L83.844,86.444L83.912,87.333L83.981,87.111L84.049,86.556L84.118,88.222L84.186,86.333L84.255,86L84.323,86.556L84.391,88.667L84.46,87.778L84.528,87.444L84.597,88.667L84.665,87.333L84.734,86.111L84.802,86.889L84.871,87.556L84.939,86.333L85.007,85.222L85.076,84.667L85.144,85.778L85.213,85.111L85.281,86.222L85.35,89L85.418,87.889L85.487,87.667L85.555,88.333L85.623,88.444L85.692,87.889L85.76,87.667L85.829,89.222L85.897,88.333L85.966,87.889L86.034,88.111L86.103,88.778L86.171,87.667L86.239,89.889L86.308,89.778L86.376,89.889L86.445,88.889L86.513,89.444L86.582,88.889L86.65,88.111L86.719,89.889L86.787,92.222L86.855,92L86.924,91.222L86.992,93.222L87.061,91.556L87.129,90L87.198,90.556L87.266,90.222L87.335,88.667L87.403,88.111L87.471,88.333L87.54,87.111L87.608,85.556L87.677,85.667L87.745,86.222L87.814,84.556L87.882,85L87.951,86.333L88.019,85.444L88.087,84.333L88.156,85L88.224,85.444L88.293,86.667L88.361,87.222L88.43,88.111L88.498,89L88.567,88.222L88.635,89.444L88.704,89.333L88.772,88L88.84,87.222L88.909,86.889L88.977,87.778L89.046,86L89.114,88.444L89.183,90.333L89.251,89.556L89.32,90L89.388,90.222L89.456,90.111L89.525,89.111L89.593,91L89.662,92.111L89.73,92L89.799,89.556L89.867,90.667L89.936,88.889L90.004,86.556L90.072,87.889L90.141,88.444L90.209,86.778L90.278,86.444L90.346,86L90.415,84.444L90.483,82.667L90.552,82.667L90.62,83.667L90.688,82.333L90.757,81.444L90.825,82.111L90.894,80.444L90.962,79.111L91.031,80.333L91.099,81.111L91.168,79.778L91.236,78.111L91.304,77.667L91.373,76.667L91.441,75.333L91.51,75.444L91.578,77.111L91.647,76.889L91.715,77.444L91.784,77.333L91.852,78.222L91.92,77L91.989,78.889L92.057,80.667L92.126,79.667L92.194,79.222L92.263,81.778L92.331,82.111L92.4,80.111L92.468,81.889L92.537,83.111L92.605,83.556L92.673,84.333L92.742,85.111L92.81,87L92.879,85.778L92.947,88L93.016,89.667L93.084,88.444L93.153,87.556L93.221,88.556L93.289,89.556L93.358,89.333L93.426,92L93.495,93.556L93.563,93.111L93.632,91.444L93.7,90.556L93.769,88.111L93.837,87.889L93.905,90L93.974,91.889L94.042,90.222L94.111,90.333L94.179,91.444L94.248,91.222L94.316,89.778L94.385,91.111L94.453,92.778L94.521,92.667L94.59,91.222L94.658,90.222L94.727,87.889L94.795,86.556L94.864,86L94.932,86.222L95.001,85.667L95.069,84.556L95.137,84.444L95.206,84.556L95.274,83.444L95.343,84.778L95.411,85.889L95.48,83.444L95.548,82.111L95.617,82.667L95.685,84.333L95.753,83.778L95.822,86.222L95.89,86.333L95.959,85.556L96.03,85L96.099,87.222L96.167,86L96.235,84.333L96.304,85.333L96.372,85.333L96.441,83.667L96.509,83.111L96.578,83.222L96.646,82.667L96.715,81.778L96.783,83.444L96.851,84.222L96.92,84.444L96.988,83.444L97.057,83.222L97.125,82.556L97.194,81.111L97.262,82.556L97.331,84.333L97.399,82.111L97.467,80.667L97.536,82L97.604,83.667L97.673,83.778L97.741,84.222L97.81,85L97.878,83.333L97.947,82.667L98.015,82.889L98.084,82.444L98.152,79L98.22,79.667L98.289,81.667L98.357,82L98.426,81.333L98.494,82.444L98.563,81.111L98.631,80.444L98.7,82.444L98.768,83.667L98.836,81.444L98.905,81L98.973,81.333L99.042,81.667L99.11,82.333L99.179,84.778L99.247,86.111L99.316,86L99.384,84L99.452,85.556L99.521,86.111L99.589,85.667L99.658,85.889L99.726,86.111L99.795,85.444L99.863,84.889L99.932,86.556L100,85.889L100.068,84.667L100.137,85.889L100.205,88.889L100.274,88L100.342,86.111L100.411,86.222L100.479,87.111L100.548,86.778L100.616,89L100.684,89.889L100.753,89.222L100.821,88.222L100.89,91L100.958,91.111L101.027,90.778L101.095,91.889L101.164,91.778L101.232,91.778L101.3,91.889L101.369,91.333L101.437,91.333L101.506,89.778L101.574,90.778L101.643,90.111L101.711,88.889L101.78,86.778L101.848,85.778L101.916,83.889L101.985,82.111L102.053,83.444L102.122,83.778L102.19,82.222L102.259,82.111L102.327,83L102.396,82.778L102.464,80L102.533,80.667L102.601,80.111L102.669,79.333L102.738,79.556L102.806,80.333L102.875,81.444L102.943,80.333L103.012,82.556L103.08,83.889L103.149,83.778L103.217,82.667L103.285,83.111L103.354,84.667L103.422,86.444L103.491,89.333L103.559,92.333L103.628,93.444L103.696,95.889L103.765,98.333L103.833,101.222L103.901,103.333L103.97,107.444L104.038,110.111L104.107,111.444L104.175,113.444L104.244,115.889L104.312,116.778L104.381,118.667L104.449,121.778L104.517,125.667L104.586,126.333L104.651,128.889L104.72,130.667L104.788,131.333L104.857,132.444L104.925,134L104.994,135.667L105.062,135.778L105.131,136L105.199,137.889L105.268,140L105.336,139.889L105.404,139.889L105.473,139.556L105.541,139.333L105.61,139.222L105.747,138.889L105.815,138.444L105.884,138.222L105.952,138.556L106.02,138.778L106.157,138.778L106.226,138.556L106.294,137.889L106.363,137.667L106.431,137.111L106.5,137L106.568,136.556L106.705,136.222L106.773,135.222L106.91,134.667L106.979,134.333L107.047,133.556L107.116,132.889L107.252,132.222L107.321,132L107.389,130.778L107.458,130.667L107.595,130.444L107.663,129.667L107.732,129.444L107.8,129.111L107.868,129.111L107.937,128.889L108.005,127.667L108.074,127.111L108.142,127L108.279,126.889L108.348,126L108.416,126L108.484,125.444L108.553,124.889L108.621,124.556L108.69,124.222L108.758,124.222L108.827,122.778L108.895,122L108.964,121.778L109.032,121.111L109.101,121.556L109.169,121.333L109.237,121.222L109.306,120.778L109.374,120.222L109.443,119.333L109.511,118.778L109.58,118.333L109.648,117.778L109.717,117.111L109.785,116.889L109.853,116.667L109.922,116.222L109.99,116L110.059,115.111L110.127,115.889L110.196,115.556L110.264,115L110.333,113.778L110.401,113.778L110.469,111.222L110.538,109.556L110.606,109.667L110.675,108.667L110.743,107.889L110.812,107L110.88,108.556L110.949,107.556L111.017,106.667L111.085,105.889L111.154,104.111L111.222,101.889L111.291,101L111.359,100.667L111.428,100L111.496,99.778L111.565,98.667L111.633,97.889L111.701,97.111L111.77,97.444L111.838,96.556L111.907,95.333L111.975,93.889L112.044,93L112.112,91.333L112.181,89.778L112.249,89.778L112.317,89.333L112.386,88.889L112.454,87.778L112.523,88L112.591,87.111L112.66,84.889L112.728,84L112.797,84.778L112.865,83L112.933,80.667L113.002,80.333L113.07,79.778L113.139,79L113.207,78.778L113.276,81.222L113.344,80.444L113.413,78.889L113.481,78.667L113.55,76.778L113.618,77.556L113.686,78.222L113.755,78.222L113.823,77.556L113.892,77.667L113.96,77.444L114.029,77.667L114.097,77L114.166,77.778L114.234,78.333L114.302,77.889L114.371,77.444L114.439,76.778L114.508,76.556L114.576,76L114.645,77L114.713,76.778L114.782,77.333L114.85,75.667L114.918,76.444L114.987,77.444L115.055,78.222L115.124,78.444L115.192,78.667L115.261,77.889L115.329,75L115.398,73.444L115.466,73.778L115.534,73.444L115.603,75.222L115.671,74.222L115.74,74.444L115.808,74.333L115.877,72.667L115.945,72.444L116.014,72.111L116.082,72.667L116.15,72.778L116.219,72.778L116.287,71.667L116.356,69.222L116.424,69.556L116.493,69.444L116.561,70L116.63,71.111L116.698,70.778L116.766,71.444L116.835,70.778L116.903,71.222L116.972,72.222L117.04,70.111L117.109,69.556L117.177,69.778L117.246,69.889L117.314,70.556L117.383,73.111L117.451,74.444L117.519,74.778L117.588,75.111L117.656,75L117.725,74.222L117.793,73.556L117.862,73.444L117.93,74.667L117.999,74.889L118.067,75.333L118.135,75.222L118.204,74.333L118.272,73.889L118.341,75.111L118.409,77L118.478,75.667L118.546,76.333L118.615,76L118.683,74.889L118.751,74L118.82,74.667L118.888,75.333L118.957,75.889L119.025,76.111L119.094,79.444L119.162,78.667L119.231,77.556L119.299,78.222L119.367,77.333L119.436,75.667L119.504,76.111L119.573,77.111L119.641,75.889L119.71,74.778L119.778,74.667L119.847,74.556L119.915,74.556L119.983,74.444L120.052,74L120.12,73.111L120.189,72.444L120.257,73.222L120.326,73L120.394,71.222L120.463,71.444L120.531,71.444L120.599,71.111L120.668,70.333L120.736,70.889L120.805,71.889L120.873,70.889L120.945,70.889L121.013,70.444L121.081,67.444L121.15,64.667L121.218,65.111L121.287,65.111L121.355,64.222L121.424,66L121.492,66.667L121.561,66.111L121.629,64.889L121.697,66L121.766,67.111L121.834,68L121.903,68.889L121.971,69.778L122.04,70.111L122.108,68.444L122.177,67.778L122.245,67.444L122.313,66.444L122.382,67.778L122.45,68.889L122.519,68.333L122.587,69.333L122.656,69.333L122.724,70.111L122.793,70.778L122.861,69.667L122.93,69.667L122.998,69.111L123.066,68.778L123.135,71.889L123.203,74.222L123.272,73.889L123.34,75.333L123.409,75.778L123.477,74.333L123.546,74L123.614,72.333L123.682,73L123.751,73L123.819,72.556L123.888,72.111L123.956,70.556L124.025,68.556L124.093,68.667L124.162,70.889L124.23,72.556L124.298,73.222L124.367,74.111L124.435,73.222L124.504,73.444L124.572,74.889L124.641,74.556L124.709,76.444L124.778,77.333L124.846,77.667L124.914,79.222L124.983,78.778L125.051,79.556L125.12,80.111L125.188,80.444L125.257,79L125.325,78L125.394,75.222L125.462,73.889L125.53,72.556L125.599,73L125.667,74.111L125.736,71.667L125.804,70.778L125.873,71.556L125.941,69.667L126.01,69.889L126.078,70.222L126.146,69.222L126.215,69.444L126.283,68.222L126.352,69.556L126.42,70.889L126.489,70.889L126.557,70.778L126.626,69.889L126.694,69.333L126.762,67.556L126.831,66.111L126.899,65.111L126.968,64.444L127.036,64.333L127.105,63.333L127.173,62.111L127.242,60.556L127.31,59.889L127.379,60.222L127.447,62.667L127.515,64.222L127.584,66.556L127.652,65.222L127.721,65.444L127.789,66.889L127.858,66.556L127.926,65.556L127.995,67.778L128.063,68.556L128.131,68.889L128.2,69.778L128.268,67.889L128.337,67.667L128.405,66.111L128.474,64L128.542,64L128.611,63.222L128.679,63.111L128.747,62.111L128.816,62.111L128.884,62.889L128.953,63.889L129.021,65.222L129.09,66.444L129.158,67L129.227,68.556L129.295,67.889L129.363,68.444L129.432,69.667L129.5,68.889L129.569,67L129.637,66.667L129.706,67.556L129.774,66.667L129.843,67L129.911,67.556L129.979,67.222L130.045,66.444L130.114,66.667L130.182,65L130.25,64.111L130.319,65.667L130.387,66.333L130.456,66.556L130.524,66.556L130.593,65.667L130.661,64.111L130.73,61.111L130.798,61.889L130.866,61.556L130.935,59.222L131.003,57.667L131.072,55.556L131.14,54.444L131.209,53.333L131.277,51.222L131.346,49.111L131.414,48.333L131.482,46.778L131.551,46.111L131.619,46.778L131.688,45L131.756,43.556L131.825,44.778L131.893,44.556L131.962,44.556L132.03,44L132.098,43.111L132.167,41.667L132.235,43.111L132.304,41.556L132.372,41L132.441,40.667L132.509,38.222L132.578,37.111L132.646,37.556L132.714,38.222L132.783,39.667L132.851,40L132.92,39.556L132.988,40.333L133.057,40.333L133.125,39.111L133.194,39L133.262,40.556L133.33,41.556L133.399,42.556L133.467,42.889L133.536,41L133.604,41.556L133.673,39.778L133.741,39.556L133.81,38.667L133.878,37.444L133.946,38L134.015,37.667L134.083,35.111L134.152,34.778L134.22,34.444L134.289,33.111L134.357,33.889L134.426,33.556L134.494,32L134.563,32.222L134.631,32.778L134.699,30.889L134.768,30.111L134.836,31.333L134.905,30.444L134.973,29.222L135.042,28.111L135.11,27.333L135.179,27.111L135.247,27.111L135.315,25.667L135.384,24.556L135.452,24.333L135.521,24.222L135.589,27.556L135.658,26.667L135.726,29.556L135.795,31.667L135.863,33.333L135.931,33L136,32L136.068,31.222L136.137,33.778L136.205,34.111L136.274,34.111L136.342,33.889L136.411,33.556L136.479,32.333L136.547,33.778L136.616,33.889L136.684,34.889L136.753,35.889L136.821,36.222L136.89,34.222L136.958,33.889L137.027,34.111L137.095,36L137.163,36.889L137.232,38.444L137.3,38.444L137.369,36L137.437,34.889L137.506,34.444L137.574,32.667L137.643,31.111L137.711,29.444L137.779,27.333L137.848,23.333L137.916,22.556L137.985,22.889L138.053,22.222L138.122,23.111L138.19,23.778L138.259,23.889L138.327,22.444L138.396,22.889L138.464,23.222L138.532,23.333L138.601,22.111L138.669,22.444L138.738,22.778L138.806,21.556L138.875,22.222L138.943,23.889L139.012,25.333L139.08,26.444L139.148,26.333L139.217,26.111L139.285,25.667L139.354,24.111L139.422,26.889L139.491,27.222L139.559,28L139.628,29.889L139.696,31L139.764,33.889L139.833,35.222L139.901,38.111L139.97,38.444L140.038,38.667L140.107,40.444L140.175,41L140.244,40.333L140.312,38.889L140.38,40.444L140.449,39.222L140.517,38.111L140.586,37.889L140.654,38.889L140.723,41.333L140.791,39L140.86,39.556L140.928,40.222L140.996,39L141.065,37.444L141.133,36.222L141.202,32.556L141.27,31.778L141.339,31.444L141.407,31L141.476,30.333L141.544,30.222L141.612,30.444L141.681,30L141.749,28.444L141.818,26.778L141.886,25.667L141.955,25.778L142.023,26L142.092,24.556L142.16,22.333L142.228,20L142.297,19.667L142.365,18.556L142.434,19.444L142.502,21.111L142.571,22L142.639,22L142.708,20.556L142.776,18.778L142.845,19.444L142.913,20.333L142.981,20.444L143.05,19.667L143.118,20.111L143.187,19L143.255,21.444L143.324,21.778L143.392,20.556L143.461,22.111L143.529,21.111L143.597,19L143.666,17.444L143.734,17.889L143.803,18.333L143.871,17.778L143.94,18.556L144.008,18.333L144.077,17.667L144.145,17.889L144.213,17.556L144.282,18.889L144.35,16.889L144.419,19.778L144.487,18.333L144.556,18.111L144.624,16.778L144.693,17.333L144.761,18.333L144.829,18L144.898,16L144.966,16.222L145.035,14.222L145.103,14.111L145.172,13.111L145.24,13.111L145.309,13.556L145.377,12.667L145.445,13L145.514,9.222L145.582,10.111L145.651,13.778L145.719,15.667L145.788,14.333L145.856,15.333L145.925,15.444L145.993,12.444L146.061,11L146.13,11.111L146.198,10.778L146.267,12.111L146.338,10.778L146.407,13.111L146.475,11.222L146.543,10.667L146.612,11.222L146.68,11.333L146.749,10.778L146.817,11.222L146.886,12L146.954,13.111L147.023,11.556L147.091,12.889L147.159,14.222L147.228,14.111L147.296,16.889L147.365,18.444L147.433,19.333L147.502,20.111L147.57,24.667L147.639,24.556L147.707,26.222L147.775,26.333L147.844,27.111L147.912,26.444L147.981,26.556L148.049,29.778L148.118,31.111L148.186,33.111L148.255,35.111L148.323,35.667L148.392,38.222L148.46,39.333L148.528,42.111L148.597,42.889L148.665,41L148.734,42.778L148.802,44.111L148.871,43.778L148.939,43.222L149.008,42.667L149.076,44.111L149.144,44.556L149.213,44.778L149.281,45.556L149.35,46.111L149.418,43.556L149.487,44.778L149.555,44.556L149.624,43.889L149.692,44.778L149.76,42.444L149.829,40.333L149.897,39.222L149.966,40.667L150.034,40L150.103,36.667L150.171,36.222L150.24,32.778L150.308,32.444L150.376,30.667L150.445,28L150.513,26.667L150.582,21.889L150.65,21.222L150.719,21.444L150.787,18.889L150.856,17L150.924,18L150.992,16.889L151.061,16.889L151.129,15L151.198,14.667L151.266,13.444L151.335,13.111L151.403,12.444L151.472,13.667L151.54,14.333L151.608,14L151.677,14.667L151.745,13.778L151.814,14.556L151.882,16.333L151.951,16.333L152.019,13.889L152.088,14.667L152.156,16.444L152.225,15.444L152.293,16.778L152.361,15.111L152.43,13.667L152.498,14.556L152.567,13.778L152.635,17.222L152.704,17.444L152.772,17.333L152.841,18.889L152.909,19L152.977,18.444L153.046,18.556L153.114,18.889L153.183,21.667L153.251,20.556L153.32,20.889L153.388,21.222L153.457,19L153.525,18.444L153.593,16.556L153.662,17.222L153.73,14.556L153.799,15L153.867,14.111L153.936,12.444L154.004,12.333L154.073,12L154.141,11.778L154.209,10.889L154.278,10.778L154.346,9.222L154.415,10.222L154.483,12.111L154.552,10.889L154.62,10.556L154.689,7.667L154.757,6.111L154.825,4.556L154.894,3.444L154.96,4.111L155.028,5.444L155.096,5.444L155.165,5.444L155.233,3.778L155.302,3.889L155.37,4.889L155.439,5.333L155.507,7L155.576,8.667L155.644,8.889L155.712,9L155.781,10.556L155.849,10.444L155.918,10.333L155.986,11.111L156.055,11.222L156.123,12L156.192,12.444L156.26,13.333L156.328,13.222L156.397,16.222L156.465,16.444L156.534,16.667L156.602,16.222L156.671,16.778L156.739,17.222L156.808,19.444L156.876,20.111L156.944,19.111L157.013,19L157.081,16.444L157.15,18L157.218,18.889L157.287,19.889L157.355,21L157.424,20.222L157.492,19.333L157.56,18L157.629,15.778L157.697,14.667L157.766,12.778L157.834,12.333L157.903,11.556L157.971,11.556L158.04,10.889L158.108,12.111L158.176,13.667L158.245,14.667L158.313,14.222L158.382,16.556L158.45,14.333L158.519,13.222L158.587,12.667L158.656,14.333L158.724,15.111L158.792,17.333L158.861,15.667L158.929,17.111L158.998,18.333L159.066,18L159.135,17.222L159.203,14.556L159.272,14.222L159.34,12.889L159.409,11.222L159.477,10L159.545,11.111L159.614,11.889L159.682,13.333L159.751,14.778L159.819,17L159.888,14.778L159.956,13.556L160.025,13.667L160.093,13.556L160.161,12L160.23,11.111L160.298,9.556L160.367,10.667L160.435,9.444L160.504,10.778L160.572,12.778L160.641,12.778L160.709,13.667L160.777,15.444L160.846,15.778L160.914,16.222L160.983,15.667L161.051,17.667L161.12,18.444L161.188,19.444L161.257,22.333L161.325,22.889L161.393,23L161.462,26.556L161.53,26.889L161.599,26.444L161.667,26.556L161.736,26.111L161.804,25.333L161.873,24.222L161.941,27.889L162.009,30.111L162.078,29.889L162.146,31.222L162.215,33.111L162.283,32.444L162.352,33.444L162.42,34.556L162.489,36.222L162.557,33.778L162.625,31.556L162.694,33.111L162.762,32.222L162.831,30.556L162.899,31.111L162.968,32.222L163.036,34.111L163.105,34L163.173,35.444L163.242,36.111L163.31,34.778L163.378,36.333L163.447,38.222L163.515,37.222L163.584,38L163.652,39L163.721,37.667L163.789,37L163.858,37.111L163.926,38.556L163.994,37.778L164.063,38.111L164.131,39.556L164.2,39.556L164.268,40.333L164.337,40.444L164.405,40.556L164.474,39.667L164.542,40L164.61,43.222L164.679,45L164.747,44.556L164.816,45L164.884,44.444L164.953,44.556L165.021,44.556L165.09,44.556L165.158,43.333L165.226,42.111L165.295,42.222L165.363,42.556L165.432,40L165.5,39.111L165.569,38.556L165.637,37L165.706,35.222L165.774,36.111L165.842,36.889L165.911,35.111L165.979,34L166.048,34.444L166.116,32.889L166.185,30.556L166.253,31.333L166.322,31.111L166.39,33L166.458,34.111L166.527,34.111L166.595,31.667L166.664,30.111L166.732,29.778L166.801,29.222L166.869,29L166.938,29L167.006,29.111L167.074,29.444L167.143,29.444L167.211,31.444L167.28,31L167.348,32.222L167.417,33.556L167.485,34.667L167.554,33.889L167.622,30.778L167.691,32.778L167.759,34.111L167.827,35L167.896,35.444L167.964,37.444L168.033,37.444L168.101,36.111L168.17,37.222L168.238,38.889L168.307,37.333L168.375,36.111L168.443,34L168.512,30L168.58,28.444L168.649,30.667L168.717,32L168.786,30.778L168.854,32L168.923,33.444L168.991,33.111L169.059,32.667L169.128,32.222L169.196,30.556L169.265,29.667L169.333,29.889L169.402,30.111L169.47,28.556L169.539,29.333L169.607,30L169.675,32.889L169.744,32.111L169.812,31.333L169.881,30.111L169.949,28.667L170.018,28.333L170.086,28.667L170.155,28.111L170.223,27.667L170.291,27.889L170.36,29.444L170.428,28.333L170.497,29.111L170.565,33.111L170.634,34.889L170.702,33.222L170.771,32.556L170.839,34L170.907,32.778L170.976,29.333L171.044,29L171.113,28.889L171.181,29L171.253,29.444L171.321,29.556L171.389,29.333L171.458,26L171.526,25.222L171.595,24.333L171.663,22.778L171.732,20.778L171.8,21L171.869,21.556L171.937,20.889L172.005,20.444L172.074,19.778L172.142,18.667L172.211,19.333L172.279,19.556L172.348,17.333L172.416,15.556L172.485,18.778L172.553,19.111L172.621,17.556L172.69,16.111L172.758,16.444L172.827,16.222L172.895,13.889L172.964,14.667L173.032,17.333L173.101,18.667L173.169,18.556L173.238,19.556L173.306,19.444L173.374,17.444L173.443,17.667L173.511,19.333L173.58,20.556L173.648,21L173.717,22.778L173.785,24L173.854,24.222L173.922,23.556L173.99,24.444L174.059,26.667L174.127,28.556L174.196,30.333L174.264,28.556L174.333,25.889L174.401,27.667L174.47,26.667L174.538,23.111L174.606,22.778L174.675,23.556L174.743,25.222L174.812,23.778L174.88,23.778L174.949,24.667L175.017,23.778L175.086,22.222L175.154,20.667L175.222,18.556L175.291,15.667L175.359,17.778L175.428,19.778L175.496,18.778L175.565,18.556L175.633,18.222L175.702,18.444L175.77,17.778L175.838,19.111L175.907,19.444L175.975,20.111L176.044,19.222L176.112,18.333L176.181,18.444L176.249,17.778L176.318,20.667L176.386,22.667L176.454,23.333L176.523,24.778L176.591,27L176.66,26.556L176.728,24.889L176.797,24.333L176.865,25.222L176.934,25.111L177.002,26.667L177.07,26.778L177.139,26.444L177.207,25.556L177.276,26L177.344,25.889L177.413,23.667L177.481,24.333L177.55,24.667L177.618,24L177.687,23.778L177.755,23.111L177.823,22.778L177.892,21.667L177.96,21.667L178.029,21.667L178.097,23L178.166,23.444L178.234,21L178.303,21.333L178.371,19.556L178.439,20.667L178.508,19.889L178.576,21.222L178.645,18.222L178.713,17.778L178.782,19.444L178.85,17.667L178.919,18.111L178.987,18L179.055,15.444L179.124,14.111L179.192,16.444L179.261,18.222L179.329,18.667L179.398,20L179.466,19.889L179.535,19L179.603,20.222L179.671,20.111L179.74,20.444L179.808,20.889L179.874,21.111L179.942,22.111L180.011,22.889L180.079,23.111L180.148,24.111L180.216,23.444L180.285,25.333L180.353,24.222L180.422,26.222L180.49,25.333L180.558,23.111L180.627,22.667L180.695,24L180.764,23.333L180.832,20.333L180.901,21.889L180.969,21.222L181.038,19.889L181.106,20.444L181.174,21.778L181.243,21.444L181.311,21.444L181.38,22.111L181.448,21.556L181.517,22.333L181.585,22.222L181.654,21.333L181.722,21.778L181.79,22.556L181.859,23L181.927,23.667L181.996,21.778L182.064,21.111L182.133,20.222L182.201,19.444L182.27,17L182.338,17.556L182.406,18.333L182.475,17.778L182.543,20L182.612,21.889L182.68,22.444L182.749,22.556L182.817,23.667L182.886,25.556L182.954,24.889L183.022,25L183.091,26.111L183.159,28.111L183.228,27.111L183.296,26.778L183.365,26L183.433,24.222L183.502,25.556L183.57,24.444L183.638,23L183.707,22.778L183.775,23.889L183.844,23.333L183.912,23.111L183.981,23.889L184.049,24.556L184.118,22.667L184.186,23.556L184.255,25.222L184.323,27.111L184.391,24L184.46,24.889L184.528,24.556L184.597,22.667L184.665,21.889L184.734,21.556L184.802,20.111L184.871,19L184.939,18.222L185.007,18.444L185.076,17.444L185.144,17L185.213,16.778L185.281,17.778L185.35,18.111L185.418,17L185.487,18.333L185.555,18.333L185.623,19.333L185.692,19.889L185.76,19.111L185.829,17.556L185.897,17.444L185.966,15.778L186.034,13.778L186.103,11.556L186.171,12.889L186.239,11.111L186.308,8.444L186.376,8.333L186.445,10.778L186.513,9.333L186.582,8.889L186.65,9.889L186.719,10.111L186.787,7.667L186.855,9.778L186.924,11.222L186.992,12L187.061,12.111L187.129,14.111L187.198,13.667L187.266,12.889L187.335,12.111L187.403,10.667L187.471,12.222L187.54,12.667L187.608,12.444L187.677,11.556L187.745,11.889L187.814,12.556L187.882,12.778L187.951,10.889L188.019,12.222L188.087,13.889L188.156,16.222L188.224,14.889L188.293,15.333L188.361,16.778L188.43,17.444L188.498,17.333L188.567,18.111L188.635,17.556L188.704,16.667L188.772,17.667L188.84,20.778L188.909,21.556L188.977,21.333L189.046,22.444L189.114,22.889L189.183,20.444L189.251,21.889L189.32,21.889L189.388,23.667L189.456,24.778L189.525,25.889L189.593,26.444L189.662,26L189.73,26L189.799,27.222L189.867,28.667L189.936,27.444L190.004,28.222L190.072,26.444L190.141,24.667L190.209,23.889L190.278,25.778L190.346,26.444L190.415,25.333L190.483,23.889L190.552,21.333L190.62,20.444L190.688,21.667L190.757,20.889L190.825,20.222L190.894,17.778L190.962,17.444L191.031,16.444L191.099,15.333L191.168,13.889L191.236,15L191.304,15.889L191.373,16.444L191.441,15.556L191.51,14.889L191.578,14.778L191.647,15.667L191.715,16.111L191.784,16.889L191.852,15.556L191.92,14.333L191.989,14.889L192.057,14.444L192.126,16.333L192.194,16.889L192.263,19.111L192.331,18.444L192.4,18.556L192.468,17.778L192.537,17.889L192.605,20L192.673,21.444L192.742,21.111L192.81,19.889L192.879,20.333L192.947,20.444L193.016,18.889L193.084,20.889L193.153,21.556L193.221,23L193.289,23.444L193.358,22.889L193.426,22.667L193.495,21.333L193.563,22.667L193.632,21.111L193.7,18.333L193.769,18.111L193.837,18.667L193.905,18.778L193.974,19.667L194.042,22.333L194.111,25.111L194.179,23.778L194.248,25L194.316,24.444L194.385,25.222L194.453,26.444L194.521,27.889L194.59,29.333L194.658,29L194.727,28.333L194.795,28.222L194.864,28.778L194.932,28.111L195.001,29.889L195.069,30.333L195.137,30.444L195.206,29.889L195.274,30.222L195.343,28.222L195.411,27.778L195.48,29.333L195.548,31.222L195.617,29.333L195.685,30.333L195.753,31.222L195.822,30L195.89,27.889L195.959,27.333L196.027,26.889L196.096,24.667L196.167,23.556L196.235,24.222L196.304,23.111L196.372,21.667L196.441,20.444L196.509,18.222L196.578,17.111L196.646,15.111L196.715,16.444L196.783,15.222L196.851,14.222L196.92,15.556L196.988,15.222L197.057,16.111L197.125,15.333L197.194,13.778L197.262,12.667L197.331,10.444L197.399,13.333L197.467,12.111L197.536,11.333L197.604,11.333L197.673,13.111L197.741,12.889L197.81,12.222L197.878,13.111L197.947,13.778L198.015,14.333L198.084,11.889L198.152,13.222L198.22,12.444L198.289,11.444L198.357,11.889L198.426,11.556L198.494,11.667L198.563,12.111L198.631,12.444L198.7,13L198.768,12.556L198.836,14.667L198.905,16.333L198.973,17.889L199.042,20.667L199.11,20.444L199.179,22L199.247,23.556L199.316,25.333L199.384,26L199.452,25.333L199.521,26L199.589,25.778L199.658,23.889L199.726,23L199.795,23.667L199.863,24.222L199.932,24.444L200,24.889L200.068,25.889L200.137,26.889L200.205,26L200.274,26.778L200.342,27L200.411,27.111L200.479,26.111L200.548,26.667L200.616,27L200.684,26.556L200.753,28.222L200.821,27.222L200.89,26.111L200.958,28.444L201.027,28L201.095,26.444L201.164,25.222L201.232,25.778L201.3,24.333L201.369,24.889L201.437,25.778L201.506,27.444L201.574,26.556L201.643,25.222L201.711,26.333L201.78,25.556L201.848,23.778L201.916,24.444L201.985,25.556L202.053,24.111L202.122,22L202.19,21.333L202.259,22.444L202.327,26.111" stroke="#4c78a8" stroke-width="2"/></g><g class="mark-group role-title"><g transform="translate(100,-17)"><path class="background" aria-hidden="true" d="M0,0h0v0h0Z" pointer-events="none"/><g><g class="mark-text role-title-text" role="graphics-symbol" aria-roledescription="title" aria-label="Title text 'Illegal Parking: Double Parked Blocking Vehicle'" pointer-events="none"><text text-anchor="middle" transform="translate(0,10)" font-family="sans-serif" font-size="13px" font-weight="bold" fill="#000" opacity="1">Illegal Parking: Double Parked Blocking Vehicle</text></g></g><path class="foreground" aria-hidden="true" d="" pointer-events="none" display="none"/></g></g></g><path class="foreground" aria-hidden="true" d="" display="none"/></g></g></g><defs><clipPath id="clip135"><rect x="0" y="0" width="200" height="150"/></clipPath></defs></svg>