<svg xmlns="http://www.w3.org/2000/svg" xmlns:xlink="http://www.w3.org/1999/xlink" version="1.1" class="marks" width="246" height="194" viewBox="0 0 246 194"><rect width="246" height="194" fill="white"/><g fill="none" stroke-miterlimit="10" transform="translate(24,22)"><g class="mark-group role-frame root" role="graphics-object" aria-roledescription="group mark container"><g transform="translate(0,0)"><path class="background" aria-hidden="true" d="M0,0h200v150h-200Z"/><g><g class="mark-group role-axis" aria-hidden="true"><g transform="translate(0.5,0.5)"><path class="background" aria-hidden="true" d="M0,0h0v0h0Z" pointer-events="none"/><g><g class="mark-rule role-axis-grid" pointer-events="none"><line transform="translate(0,150)" x2="200" y2="0" stroke="#ddd" stroke-width="1" opacity="1"/><line transform="translate(0,107)" x2="200" y2="0" stroke="#ddd" stroke-width="1" opacity="1"/><line transform="translate(0,64)" x2="200" y2="0" stroke="#ddd" stroke-width="1" opacity="1"/><line transform="translate(0,21)" x2="200" y2="0" stroke="#ddd" stroke-width="1" opacity="1"/></g></g><path class="foreground" aria-hidden="true" d="" pointer-events="none" display="none"/></g></g><g class="mark-group role-axis" role="graphics-symbol" aria-roledescription="axis" aria-label="X-axis for a time scale with values from Friday, 01 January 2016, 12:00:00 AM to Monday, 01 January 2024, 12:00:00 AM"><g transform="translate(0.5,150.5)"><path class="background" aria-hidden="true" d="M0,0h0v0h0Z" pointer-events="none"/><g><g class="mark-rule role-axis-tick" pointer-events="none"><line transform="translate(0,0)" x2="0" y2="5" stroke="#888" stroke-width="1" opacity="1"/><line transform="translate(50,0)" x2="0" y2="5" stroke="#888" stroke-width="1" opacity="1"/><line transform="translate(100,0)" x2="0" y2="5" stroke="#888" stroke-width="1" opacity="1"/><line transform="translate(150,0)" x2="0" y2="5" stroke="#888" stroke-width="1" opacity="1"/><line transform="translate(200,0)" x2="0" y2="5" stroke="#888" stroke-width="1" opacity="1"/></g><g class="mark-text role-axis-label" pointer-events="none"><text text-anchor="start" transform="translate(0,15)" font-family="sans-serif" font-size="10px" fill="#000" opacity="1">2016</text><text text-anchor="middle" transform="translate(50.03422313483915,15)" font-family="sans-serif" font-size="10px" fill="#000" opacity="1">2018</text><text text-anchor="middle" transform="translate(100,15)" font-family="sans-serif" font-size="10px" fill="#000" opacity="1">2020</text><text text-anchor="middle" transform="translate(150.03422313483915,15)" font-family="sans-serif" font-size="10px" fill="#000" opacity="1">2022</text><text text-anchor="end" transform="translate(200,15)" font-family="sans-serif" font-size="10px" fill="#000" opacity="1">2024</text></g><g class="mark-rule role-axis-domain" pointer-events="none"><line transform="translate(0,0)" x2="200" y2="0" stroke="#888" stroke-width="1" opacity="1"/></g></g><path class="foreground" aria-hidden="true" d="" pointer-events="none" display="none"/></g></g><g class="mark-group role-axis" role="graphics-symbol" aria-roledescription="axis" aria-label="Y-axis for a linear scale with values from 0 to 35"><g transform="translate(0.5,0.5)"><path class="background" aria-hidden="true" d="M0,0h0v0h0Z" pointer-events="none"/><g><g class="mark-rule role-axis-tick" pointer-events="none"><line transform="translate(0,150)" x2="-5" y2="0" stroke="#888" stroke-opacity="0" stroke-width="1" opacity="1"/><line transform="translate(0,107)" x2="-5" y2="0" stroke="#888" stroke-opacity="0" stroke-width="1" opacity="1"/><line transform="translate(0,64)" x2="-5" y2="0" stroke="#888" stroke-opacity="0" stroke-width="1" opacity="1"/><line transform="translate(0,21)" x2="-5" y2="0" stroke="#888" stroke-opacity="0" stroke-width="1" opacity="1"/></g><g class="mark-text role-axis-label" pointer-events="none"><text text-anchor="end" transform="translate(-7,153)" font-family="sans-serif" font-size="10px" fill="#000" opacity="1">0</text><text text-anchor="end" transform="translate(-7,110.14285714285714)" font-family="sans-serif" font-size="10px" fill="#000" opacity="1">10</text><text text-anchor="end" transform="translate(-7,67.28571428571429)" font-family="sans-serif" font-size="10px" fill="#000" opacity="1">20</text><text text-anchor="end" transform="translate(-7,24.428571428571434)" font-family="sans-serif" font-size="10px" fill="#000" opacity="1">30</text></g></g><path class="foreground" aria-hidden="true" d="" pointer-events="none" display="none"/></g></g><g class="mark-line role-mark marks" clip-path="url(#clip136)" role="graphics-object" aria-roledescription="line mark container"><path aria-label="day: Jan 01, 2010; avg: 14.6" role="graphics-symbol" aria-roledescription="line mark" d="M-149.966,87.429L-149.897,86.571L-149.829,85.143L-149.76,85.286L-149.692,85.286L-149.624,84.571L-149.555,87L-149.487,90.857L-149.418,92.143L-149.35,91.429L-149.281,91.714L-149.213,93.857L-149.144,95.429L-149.076,98.429L-149.008,99.857L-148.939,102L-148.871,102.143L-148.802,99.714L-148.734,95.714L-148.665,98.857L-148.597,101L-148.528,102.286L-148.46,104L-148.392,102.714L-148.323,101.143L-148.255,100.286L-148.186,102.429L-148.118,104L-148.049,108L-147.912,108.571L-147.844,104.714L-147.775,104.143L-147.707,103.714L-147.639,102.857L-147.57,103.857L-147.502,105.714L-147.433,104.286L-147.365,102.857L-147.296,103.857L-147.228,103.429L-147.159,101.571L-147.091,102L-147.023,99L-146.954,96L-146.886,91.571L-146.817,90.143L-146.749,88.429L-146.68,88.571L-146.612,91.429L-146.543,89.571L-146.475,87L-146.407,83.857L-146.338,83L-146.27,82L-146.201,82.714L-146.133,85.286L-146.064,82.429L-145.996,81L-145.927,76.714L-145.859,74.571L-145.791,76.429L-145.722,76.857L-145.654,78.429L-145.585,74.286L-145.517,69.714L-145.448,65.143L-145.38,63.714L-145.311,61.714L-145.243,63.143L-145.175,63.571L-145.106,62.286L-144.972,59.714L-144.904,60.143L-144.835,60.714L-144.767,61.857L-144.698,62L-144.63,63.143L-144.561,63.571L-144.493,63L-144.424,62.714L-144.356,63.429L-144.288,62.143L-144.219,63.286L-144.151,65.286L-144.082,63.714L-144.014,61.286L-143.945,61.857L-143.877,57.571L-143.808,60.143L-143.74,62.286L-143.672,63.286L-143.603,60.571L-143.535,58.429L-143.466,59.857L-143.398,62.429L-143.329,64L-143.261,66.714L-143.192,69.571L-143.124,64.714L-143.056,62.714L-142.987,63.857L-142.919,65L-142.85,66.143L-142.782,67L-142.713,68.714L-142.645,63.429L-142.576,62.857L-142.508,61.857L-142.44,61.714L-142.371,63.571L-142.303,63.714L-142.234,67.571L-142.166,65.143L-142.097,59.429L-142.029,57.857L-141.96,56.429L-141.892,53.143L-141.824,57.286L-141.755,58.429L-141.687,58.143L-141.618,52.286L-141.55,47.714L-141.481,44.429L-141.413,44.714L-141.344,45.286L-141.276,47.286L-141.208,44L-141.139,39.286L-141.071,42L-141.002,40.571L-140.934,37.714L-140.865,38.143L-140.797,38.286L-140.728,32.143L-140.66,26.571L-140.591,28L-140.523,26.143L-140.455,25.429L-140.386,26.714L-140.318,29.571L-140.249,26.857L-140.181,20.286L-140.112,20.143L-140.044,21.571L-139.975,22.714L-139.907,25.571L-139.839,30.429L-139.77,27.571L-139.702,23.429L-139.633,19.571L-139.565,19.857L-139.496,22.286L-139.428,25.571L-139.359,28.571L-139.291,28.571L-139.223,23.571L-139.154,21.429L-139.086,23.714L-139.017,23.143L-138.949,26.286L-138.88,30.143L-138.812,27.429L-138.743,24.143L-138.675,27.571L-138.607,31.286L-138.538,31.286L-138.47,31.429L-138.401,34L-138.333,29.857L-138.264,25.857L-138.196,26.571L-138.127,28.286L-138.059,29.143L-137.991,32.286L-137.922,34L-137.854,29.714L-137.785,26.143L-137.717,25L-137.648,26.143L-137.58,29.429L-137.511,35.286L-137.443,39.857L-137.375,38.714L-137.306,34.429L-137.238,30.857L-137.169,34.143L-137.101,34.714L-137.032,36.286L-136.964,37.714L-136.895,33.714L-136.827,29.429L-136.758,29.143L-136.69,30.429L-136.622,31.857L-136.553,33.857L-136.485,37.571L-136.416,36.286L-136.348,29.714L-136.279,30.286L-136.211,29.286L-136.142,29.429L-136.074,33.714L-136.006,36.143L-135.937,35.143L-135.869,32.571L-135.8,34.571L-135.732,35L-135.663,37.429L-135.595,39.286L-135.526,40.143L-135.458,33.857L-135.39,30.714L-135.321,31.429L-135.253,32.286L-135.184,36L-135.116,38.143L-135.047,43.714L-134.979,43.714L-134.91,41L-134.842,43.857L-134.774,45.714L-134.705,48.714L-134.637,50.143L-134.568,52.143L-134.5,51.857L-134.431,49.286L-134.363,52L-134.294,56.714L-134.226,58L-134.158,62.286L-134.089,64.714L-134.021,62.429L-133.952,59.429L-133.884,57.857L-133.815,57.286L-133.747,57.429L-133.678,60.143L-133.61,63L-133.542,61.143L-133.473,59.857L-133.405,62.714L-133.336,65.571L-133.268,67.143L-133.199,70.429L-133.131,71.857L-133.062,69.857L-132.994,67.714L-132.926,67.714L-132.857,69.571L-132.789,62.714L-132.72,65L-132.652,65.857L-132.583,64.571L-132.515,63.143L-132.446,62.714L-132.378,65.429L-132.309,63.429L-132.241,65.571L-132.173,67.714L-132.104,67.571L-132.036,67.143L-131.967,68.286L-131.899,67.857L-131.83,71.571L-131.762,75.286L-131.693,78.857L-131.625,77.571L-131.557,75L-131.488,75.857L-131.42,76.714L-131.351,78.286L-131.283,80L-131.214,81.286L-131.146,79.714L-131.077,79.143L-131.009,80.286L-130.941,81.143L-130.872,81.857L-130.804,84.429L-130.735,92.429L-130.667,89.857L-130.598,88.857L-130.53,90.429L-130.461,91.857L-130.393,90.714L-130.325,91.571L-130.256,95L-130.188,94.714L-130.119,94.429L-130.051,93.714L-129.982,94.286L-129.914,95.429L-129.845,98.143L-129.777,98.714L-129.709,95.429L-129.64,95L-129.572,96.429L-129.503,99.286L-129.435,101.429L-129.366,102.571L-129.298,104.857L-129.229,101.714L-129.161,100L-129.093,100.571L-129.024,99.143L-128.956,97.857L-128.887,99L-128.819,99.429L-128.75,98.714L-128.679,97.429L-128.611,98.429L-128.542,99.429L-128.474,97.286L-128.405,97.286L-128.337,100.286L-128.268,99.429L-128.2,99.286L-128.131,99.571L-128.063,99.429L-127.995,101.143L-127.926,102.286L-127.858,103.571L-127.789,104.571L-127.721,104.143L-127.652,106.143L-127.584,105.571L-127.515,106.571L-127.447,106.714L-127.379,107.286L-127.31,107.714L-127.242,106.286L-127.173,106.286L-127.105,108L-127.036,109.714L-126.968,112.143L-126.899,115.143L-126.831,114.429L-126.762,113.571L-126.694,114.143L-126.626,115L-126.557,117L-126.489,117.286L-126.42,121.143L-126.352,121.143L-126.283,121L-126.215,121.857L-126.146,121.857L-126.078,122.429L-126.01,124.143L-125.941,124.429L-125.873,123.429L-125.804,123.143L-125.736,116.857L-125.667,114L-125.599,116.286L-125.53,117.429L-125.462,117L-125.394,116.714L-125.325,116.143L-125.257,115.571L-125.188,117L-125.12,119.286L-125.051,119.286L-124.983,118.429L-124.914,118L-124.846,117.714L-124.778,117.714L-124.709,118.571L-124.641,119.143L-124.572,120.571L-124.504,119.571L-124.435,118.571L-124.367,117.714L-124.298,118L-124.23,117.143L-124.162,117L-124.093,117.143L-124.025,115.857L-123.956,114.143L-123.888,112.857L-123.819,112.429L-123.751,110.714L-123.682,116.429L-123.614,119.714L-123.546,119.429L-123.477,118.143L-123.409,115.714L-123.34,113.571L-123.272,112.429L-123.203,111.857L-123.135,110.429L-122.998,109.714L-122.93,104.143L-122.861,103.429L-122.793,102.286L-122.724,101.571L-122.656,101.571L-122.587,100.857L-122.519,98.286L-122.45,97L-122.382,97.286L-122.313,96.571L-122.245,95.429L-122.177,95.286L-122.108,96.429L-122.04,94.286L-121.971,91.857L-121.903,90.857L-121.834,91.143L-121.766,89.857L-121.697,90.429L-121.629,92.286L-121.561,87.857L-121.492,84.429L-121.424,82.714L-121.355,82.286L-121.287,82.857L-121.218,84.429L-121.15,85.143L-121.081,82.429L-121.013,81L-120.945,80.429L-120.876,84L-120.808,83L-120.739,84.143L-120.671,84L-120.602,82.429L-120.534,80.714L-120.465,81.143L-120.397,80.429L-120.329,80.571L-120.26,81.286L-120.192,82.571L-120.123,79.857L-120.058,75.429L-119.989,76.857L-119.921,71.714L-119.852,67.714L-119.784,68.571L-119.715,71.143L-119.647,69.571L-119.578,67.857L-119.51,67.857L-119.442,69.286L-119.373,68.143L-119.305,65.143L-119.236,67.286L-119.168,63.714L-119.099,61L-119.031,61.286L-118.962,61.571L-118.894,61.286L-118.826,61.857L-118.757,64.143L-118.689,62.571L-118.62,60.429L-118.552,54.286L-118.483,53.714L-118.415,52.286L-118.346,45.857L-118.278,46.429L-118.21,43L-118.141,39.714L-118.073,39.714L-118.004,37.714L-117.936,34.571L-117.867,37L-117.799,43.143L-117.73,38.857L-117.662,36.857L-117.594,30L-117.525,30.143L-117.457,33L-117.388,33.857L-117.32,36.429L-117.251,37.429L-117.183,33.286L-117.114,34.571L-117.046,34L-116.978,31.857L-116.909,33.286L-116.841,34.286L-116.772,33L-116.704,27.286L-116.635,24.714L-116.567,10.286L-116.498,14.714L-116.43,16L-116.362,17.857L-116.293,22.857L-116.225,18.286L-116.156,18.429L-116.088,17L-116.019,17.429L-115.951,22.286L-115.882,26L-115.814,27.429L-115.745,24.571L-115.677,26.429L-115.609,25.429L-115.54,32.714L-115.472,33L-115.403,34.571L-115.335,32L-115.266,28L-115.198,27.714L-115.129,29.143L-115.061,29.429L-114.993,31.143L-114.924,35.286L-114.856,31.714L-114.787,27.429L-114.719,26.143L-114.65,29.286L-114.582,31.857L-114.513,49L-114.445,52.429L-114.377,53.286L-114.308,51.571L-114.24,50.143L-114.171,50.714L-114.103,51L-114.034,54.857L-113.966,55.857L-113.897,52L-113.829,48.143L-113.761,48.143L-113.692,47.429L-113.624,46.714L-113.555,48.857L-113.487,49.571L-113.418,45.857L-113.35,42.286L-113.281,42.571L-113.213,43.857L-113.145,46.429L-113.076,48.429L-113.008,49.286L-112.939,47.143L-112.871,44.857L-112.802,45.857L-112.734,49L-112.665,50.714L-112.597,52.143L-112.529,52.714L-112.46,50L-112.392,46.286L-112.323,44.143L-112.255,41.857L-112.186,43.571L-112.118,47L-112.049,49.857L-111.981,47L-111.913,46.143L-111.844,48.143L-111.776,49.857L-111.707,49.429L-111.639,52L-111.57,55.286L-111.502,52.429L-111.433,48.286L-111.365,50.143L-111.296,50.429L-111.228,51.143L-111.16,53.571L-111.091,54.714L-111.023,52.143L-110.954,49.429L-110.886,49.429L-110.817,51.857L-110.749,54.714L-110.68,57L-110.612,58.429L-110.544,56.429L-110.475,54.714L-110.407,55.143L-110.338,56.714L-110.27,58.714L-110.201,63.571L-110.133,65.714L-110.064,63.714L-109.996,62.286L-109.928,65L-109.859,65.714L-109.791,66.857L-109.722,69.571L-109.654,71.714L-109.585,69L-109.517,66.286L-109.448,67.857L-109.38,70.143L-109.312,72.429L-109.243,74.714L-109.175,74.143L-109.106,72.286L-109.038,69.857L-108.969,70.571L-108.901,72.429L-108.832,74.143L-108.764,73.857L-108.696,69.714L-108.559,65.857L-108.49,63.714L-108.422,64.143L-108.353,65.429L-108.285,68.143L-108.216,69.714L-108.148,69.143L-108.08,67.571L-108.011,65.714L-107.943,67L-107.874,67.857L-107.806,68.429L-107.737,70.429L-107.669,70.714L-107.6,68.857L-107.532,69.143L-107.463,71.429L-107.395,72.571L-107.327,74.714L-107.258,77.286L-107.19,77.143L-107.121,77L-107.053,78.286L-106.984,80L-106.916,80.714L-106.847,83.143L-106.779,85.143L-106.711,87L-106.642,86.286L-106.574,89L-106.505,91.143L-106.437,93.429L-106.368,96.429L-106.3,98.571L-106.231,97.571L-106.163,97.571L-106.095,96.143L-106.026,96.571L-105.958,97.714L-105.889,99.286L-105.821,100L-105.752,98.857L-105.684,97.286L-105.615,98.714L-105.547,99.286L-105.479,100.857L-105.41,101.714L-105.342,103.286L-105.273,101.714L-105.205,100.286L-105.136,99.857L-105.068,100.429L-104.999,101.857L-104.931,102.429L-104.863,104.571L-104.794,103.429L-104.726,102.714L-104.657,103L-104.589,105.429L-104.52,107L-104.452,108.286L-104.383,108.714L-104.315,106.143L-104.247,103.714L-104.178,103L-104.11,103.143L-104.041,104.429L-103.973,105.571L-103.904,106.714L-103.836,105.429L-103.765,104.429L-103.696,104.429L-103.628,105.857L-103.559,106.429L-103.491,107.714L-103.422,107.857L-103.354,107.857L-103.285,106.857L-103.217,107.429L-103.149,108.286L-103.08,109.714L-103.012,110L-102.943,110.143L-102.875,109.286L-102.806,108.143L-102.738,108.143L-102.669,108.857L-102.601,109L-102.533,108.714L-102.464,109.714L-102.396,109.857L-102.327,109.143L-102.259,110.571L-102.19,111.286L-102.122,113.286L-102.053,113.571L-101.985,115.143L-101.916,115L-101.848,114.143L-101.78,114.857L-101.711,115.571L-101.643,116.429L-101.574,115.286L-101.506,115.286L-101.437,113.857L-101.369,113.429L-101.3,112.571L-101.232,113.429L-101.164,113L-101.095,114L-101.027,114.571L-100.958,115.143L-100.89,114.429L-100.821,113.857L-100.753,113.714L-100.684,113.286L-100.616,114.143L-100.548,114L-100.479,112.143L-100.411,111.143L-100.342,110.286L-100.274,110.429L-100.205,110.714L-100.137,111.571L-100.068,110.571L-100,109L-99.932,108.143L-99.863,107.714L-99.795,108.286L-99.726,108.571L-99.658,108.714L-99.589,108.857L-99.521,108L-99.452,106.429L-99.384,107.286L-99.316,106.143L-99.247,107.429L-99.179,107.714L-99.11,108.857L-99.042,107.143L-98.973,105.571L-98.905,104.571L-98.836,105L-98.768,105.571L-98.7,105.143L-98.563,105.286L-98.494,103.143L-98.426,102.286L-98.357,102L-98.289,101.857L-98.22,101.714L-98.152,102L-98.084,100.571L-98.015,99.143L-97.947,98.429L-97.878,100.143L-97.81,100.429L-97.741,101.143L-97.673,101.571L-97.604,101.429L-97.536,101.571L-97.467,101L-97.399,101L-97.331,100.429L-97.262,100.714L-97.194,102.714L-97.125,101.857L-97.057,100.714L-96.988,99L-96.92,99.429L-96.851,99.714L-96.783,100.429L-96.715,100.857L-96.646,99.857L-96.578,99.857L-96.509,97.714L-96.441,96.286L-96.372,96.143L-96.304,97.429L-96.235,98.143L-96.167,96.714L-96.099,95.143L-96.03,95.286L-95.962,95.286L-95.893,95.857L-95.825,96L-95.756,96L-95.688,94L-95.619,93L-95.551,92.714L-95.483,91.714L-95.414,91.571L-95.346,93.571L-95.277,95.571L-95.209,93.714L-95.143,92.429L-95.075,92.286L-95.006,91.571L-94.938,92.429L-94.869,93.571L-94.801,94.571L-94.732,91.286L-94.664,89.286L-94.596,88.143L-94.527,87L-94.459,89.429L-94.39,92L-94.322,93.429L-94.253,92.286L-94.185,89.857L-94.116,90.143L-94.048,90.571L-93.98,91.286L-93.911,92.429L-93.843,93.286L-93.774,91L-93.706,89.429L-93.637,91.143L-93.569,91.286L-93.5,90.571L-93.432,91.286L-93.364,92.286L-93.295,90.286L-93.227,88.571L-93.158,88.571L-93.09,87.714L-93.021,86.857L-92.953,88.286L-92.884,88.714L-92.816,86.429L-92.748,83.857L-92.679,84.571L-92.611,85.286L-92.542,86.429L-92.474,88.571L-92.405,88.714L-92.337,86L-92.268,82.429L-92.2,81.286L-92.132,81.857L-92.063,81L-91.995,80L-91.926,79.714L-91.858,78.714L-91.789,74.143L-91.721,72L-91.652,69.857L-91.584,66.571L-91.516,66.714L-91.447,62.429L-91.379,59L-91.31,56.286L-91.242,56.429L-91.173,55L-91.105,55.286L-91.036,54.857L-90.968,51.571L-90.899,47.857L-90.831,45.286L-90.763,42.714L-90.694,42.857L-90.626,44L-90.557,44.857L-90.489,43.286L-90.42,39.143L-90.352,35.857L-90.283,35L-90.215,36.429L-90.147,37.714L-90.078,38.571L-90.01,37L-89.941,36.286L-89.873,35.714L-89.804,34L-89.736,36.857L-89.667,40.429L-89.599,44.429L-89.531,42L-89.394,38.571L-89.325,42.571L-89.257,43.857L-89.188,43.429L-89.12,43.571L-89.051,45.143L-88.983,40.857L-88.915,39.143L-88.846,40.143L-88.778,39.286L-88.709,38.286L-88.641,40.714L-88.572,42L-88.504,39L-88.435,36.714L-88.367,37.143L-88.299,39.143L-88.23,41.429L-88.162,45.143L-88.093,46.429L-88.025,44.857L-87.956,43L-87.888,44.571L-87.819,44.429L-87.751,43.571L-87.683,45.429L-87.614,46.714L-87.546,42.714L-87.477,40.714L-87.409,45L-87.34,46.286L-87.272,44L-87.203,45.714L-87.135,48.714L-87.067,46.429L-86.998,42.857L-86.93,43.714L-86.861,43.714L-86.793,44.571L-86.724,49.143L-86.656,52.857L-86.587,49.571L-86.519,47L-86.45,48.429L-86.382,47.714L-86.314,47.714L-86.245,49.714L-86.177,51.143L-86.108,48.714L-86.04,45.286L-85.971,43.571L-85.903,42.286L-85.834,41L-85.766,43.286L-85.698,46L-85.629,42.429L-85.561,40.714L-85.492,42.714L-85.424,42.714L-85.355,41.714L-85.287,44.714L-85.218,47.286L-85.15,47.714L-85.082,44.571L-85.013,45.286L-84.945,47.286L-84.876,48.571L-84.808,51L-84.739,52.429L-84.671,49.429L-84.602,46.571L-84.534,49.286L-84.466,50L-84.397,50.714L-84.329,53.571L-84.26,56L-84.192,53.429L-84.123,52.286L-84.055,52.286L-83.986,54L-83.918,57.286L-83.85,60.857L-83.781,65L-83.713,63.857L-83.644,62.286L-83.576,65.429L-83.507,66.571L-83.439,68.143L-83.37,69.714L-83.302,72.143L-83.234,70L-83.165,69.571L-83.097,67.571L-83.028,68L-82.96,69.714L-82.891,72L-82.823,75.429L-82.754,74.571L-82.686,74.714L-82.617,76.571L-82.549,78L-82.481,81L-82.412,84.143L-82.344,85.286L-82.275,84.143L-82.207,84.143L-82.138,85.857L-82.07,86L-82.001,87.714L-81.933,88.571L-81.865,89.571L-81.796,88L-81.728,85.714L-81.659,87L-81.591,87.429L-81.522,87.143L-81.454,87.286L-81.385,89L-81.317,90.143L-81.249,90.857L-81.18,93.714L-81.112,95.714L-81.043,99L-80.975,102.143L-80.906,103.429L-80.838,103.286L-80.769,103.143L-80.701,105.571L-80.633,107L-80.564,108.571L-80.496,110.714L-80.427,111.143L-80.359,109.714L-80.29,110.714L-80.222,111.571L-80.153,111.714L-80.085,112.429L-80.017,114L-79.948,114.429L-79.88,115.571L-79.811,116.143L-79.743,115.714L-79.674,118.714L-79.606,119.857L-79.537,121.143L-79.469,122.571L-79.401,121.571L-79.332,120.286L-79.264,118.286L-79.195,116.429L-79.127,115.143L-79.058,115L-78.99,114.286L-78.921,113.286L-78.85,112.143L-78.782,111.571L-78.713,111.286L-78.645,110.714L-78.576,110L-78.508,109.571L-78.439,107.143L-78.371,104.571L-78.303,104.857L-78.234,104.286L-78.166,104.857L-78.097,105.571L-78.029,106.143L-77.96,104.143L-77.892,102.857L-77.823,103.286L-77.755,102.286L-77.687,104.571L-77.618,104L-77.55,103.429L-77.481,102.571L-77.413,103.143L-77.344,104L-77.276,103.143L-77.207,103.714L-77.139,104.857L-77.07,105.714L-77.002,105.286L-76.934,105.571L-76.865,105.857L-76.797,106.714L-76.728,107.714L-76.66,107.714L-76.591,108.571L-76.523,107.143L-76.454,106.571L-76.386,107.571L-76.318,108.714L-76.249,108.286L-76.181,108.714L-76.112,109L-76.044,106.714L-75.975,105.714L-75.907,107L-75.838,107.571L-75.77,107.571L-75.702,108.857L-75.633,108.571L-75.565,108L-75.496,107.286L-75.428,106.714L-75.359,105L-75.291,105.857L-75.222,108L-75.154,109.143L-75.086,109.429L-75.017,108.286L-74.949,108.429L-74.88,107L-74.812,105.714L-74.743,106.143L-74.675,106.714L-74.606,106.714L-74.538,104.571L-74.47,105.143L-74.401,104.857L-74.333,105.714L-74.264,107L-74.196,108.429L-74.127,108.571L-74.059,108.429L-73.99,109.429L-73.922,110.429L-73.854,110.714L-73.785,111.286L-73.717,111.571L-73.648,110.429L-73.58,110L-73.511,109.286L-73.443,110.143L-73.374,110.143L-73.306,111.571L-73.238,111.571L-73.169,109.714L-73.101,108.286L-73.032,106.714L-72.964,104.857L-72.895,102.286L-72.827,102.714L-72.758,105L-72.69,102.857L-72.621,101.571L-72.553,101L-72.485,101.571L-72.416,102.714L-72.348,103.143L-72.279,103.429L-72.211,100.286L-72.142,99.429L-72.074,98.714L-72.005,97.857L-71.937,96.857L-71.869,96.143L-71.8,95.857L-71.732,95.714L-71.663,94.143L-71.595,92.714L-71.526,92L-71.458,92.714L-71.389,92.714L-71.321,93.429L-71.253,92L-71.184,91.429L-71.116,91.286L-71.047,90.429L-70.979,91.143L-70.91,94L-70.842,96.429L-70.773,94.571L-70.705,92.143L-70.637,92.571L-70.568,92.429L-70.5,91.857L-70.431,91.286L-70.363,90.857L-70.294,89L-70.229,86L-70.16,86.286L-70.092,85L-70.023,84.714L-69.955,84.429L-69.886,85.429L-69.818,84L-69.75,82.286L-69.681,80.429L-69.613,78.429L-69.544,78.571L-69.476,79L-69.407,79.143L-69.339,77.714L-69.27,76.143L-69.202,76.429L-69.134,76.429L-69.065,76.571L-68.997,78.429L-68.928,78.714L-68.86,78.143L-68.791,76.429L-68.723,77.143L-68.654,76.429L-68.586,76.429L-68.518,77.143L-68.449,78.714L-68.381,79.429L-68.312,79.286L-68.244,79.714L-68.175,81.571L-68.107,82.571L-68.038,83.857L-67.97,84.429L-67.902,81.857L-67.833,80.857L-67.765,79.429L-67.696,80.571L-67.628,81.143L-67.559,83.286L-67.491,85.286L-67.422,83.857L-67.354,81.429L-67.286,78.714L-67.217,77.714L-67.149,77.429L-67.08,77.714L-67.012,77.429L-66.943,75.857L-66.875,72.143L-66.806,69.286L-66.738,67.571L-66.67,66.714L-66.601,68.429L-66.533,68.286L-66.464,64.857L-66.396,62.429L-66.327,58.571L-66.259,57.143L-66.19,58.286L-66.122,57L-66.054,56.571L-65.985,52.857L-65.917,50.571L-65.848,49.286L-65.78,47.857L-65.711,48.571L-65.643,49.429L-65.574,50.571L-65.506,45.286L-65.437,41.857L-65.369,41.857L-65.301,40.286L-65.232,40.571L-65.164,41.143L-65.095,42.571L-65.027,35.286L-64.958,31.429L-64.89,28.714L-64.821,27.571L-64.753,27.571L-64.685,29.571L-64.616,31.286L-64.548,28.429L-64.479,24L-64.411,22.286L-64.342,23.429L-64.274,25.714L-64.205,27.714L-64.137,27.143L-64.069,24.286L-64,20.429L-63.932,19.714L-63.863,19.429L-63.795,20.571L-63.726,22.714L-63.658,24.286L-63.589,21.143L-63.521,16.571L-63.453,17.714L-63.384,15.429L-63.316,13.286L-63.247,15.286L-63.179,18.286L-63.11,16.571L-63.042,12.571L-62.973,16.143L-62.905,18.143L-62.837,18.429L-62.768,22.857L-62.7,25.571L-62.631,23.429L-62.563,19.714L-62.494,17.857L-62.426,21.286L-62.357,22.143L-62.289,22.857L-62.221,24.429L-62.152,20.143L-62.084,16.429L-62.015,16L-61.947,14.714L-61.878,17.429L-61.81,18.429L-61.741,21.571L-61.673,18.286L-61.604,16.286L-61.536,15.571L-61.468,15.429L-61.399,16.286L-61.331,20.714L-61.262,21.286L-61.194,17.571L-61.125,10.714L-61.057,11.857L-60.988,12L-60.92,13.143L-60.852,14.429L-60.783,17.857L-60.715,15.857L-60.646,13.429L-60.578,14L-60.509,13.429L-60.441,17.429L-60.372,19.857L-60.304,23.571L-60.236,23.143L-60.167,17.571L-60.099,18.286L-60.03,19.857L-59.962,23.286L-59.893,29.143L-59.825,30.286L-59.756,29.286L-59.688,26.429L-59.62,27L-59.551,27.286L-59.483,28.571L-59.414,32.714L-59.346,36.143L-59.277,34.714L-59.209,35.143L-59.14,27.857L-59.072,32L-59.004,32L-58.935,36L-58.867,38.857L-58.798,37L-58.73,28.571L-58.661,29.286L-58.593,30.857L-58.524,31.286L-58.456,36.714L-58.388,38.857L-58.319,36.857L-58.251,34.714L-58.182,33.714L-58.114,38.286L-58.045,40.714L-57.977,43.429L-57.908,45.143L-57.84,43.857L-57.772,41.429L-57.703,44.143L-57.635,44.429L-57.566,46.286L-57.498,49.429L-57.429,51.571L-57.361,52.571L-57.292,46L-57.224,40.429L-57.155,40.857L-57.087,47.571L-57.019,47.857L-56.95,51L-56.882,46.857L-56.813,43.429L-56.745,46.286L-56.676,53.571L-56.608,54L-56.539,55.286L-56.471,58.429L-56.403,55.714L-56.334,54L-56.266,55.286L-56.197,55.571L-56.129,56.857L-56.06,57.857L-55.992,59.143L-55.923,58.857L-55.855,58.286L-55.787,60.571L-55.718,63.714L-55.65,64L-55.581,66.143L-55.513,67.714L-55.444,64.571L-55.376,63.714L-55.307,63.143L-55.239,69L-55.171,76.857L-55.102,80.143L-55.034,86.286L-54.965,84.143L-54.897,80.429L-54.828,80.571L-54.76,82.857L-54.691,83.571L-54.623,85.286L-54.555,87.571L-54.486,86.571L-54.418,86L-54.349,88.429L-54.281,90.143L-54.212,91L-54.144,93.286L-54.075,93.429L-54.007,92.429L-53.936,91.143L-53.867,91.571L-53.799,91.714L-53.73,91.714L-53.662,92.571L-53.593,92.714L-53.525,93.857L-53.457,94.429L-53.388,97L-53.32,98.429L-53.251,99.714L-53.183,101.571L-53.114,102.571L-53.046,101.714L-52.977,102.143L-52.909,107.286L-52.841,110.714L-52.772,114.286L-52.704,115.857L-52.635,116L-52.567,115.286L-52.498,114.143L-52.43,115.571L-52.361,114.714L-52.293,113.857L-52.225,113.571L-52.156,113.857L-52.088,114.429L-52.019,115.429L-51.951,117.429L-51.882,118.714L-51.814,120L-51.745,121.429L-51.677,121.857L-51.608,120.714L-51.54,120L-51.472,119.429L-51.403,119L-51.335,119L-51.266,118.143L-51.198,118L-51.129,117.571L-51.061,115.429L-50.992,113.714L-50.924,112.857L-50.856,111.714L-50.787,112.143L-50.719,111L-50.65,107.714L-50.582,108.429L-50.513,108.143L-50.445,108.143L-50.376,107.429L-50.308,108.286L-50.24,108.143L-50.171,106.857L-50.103,105L-50.034,104L-49.966,104L-49.897,103.429L-49.829,102.714L-49.76,102.429L-49.692,101.429L-49.624,101L-49.555,101L-49.487,101.714L-49.418,102.143L-49.35,102.714L-49.281,102.571L-49.213,103L-49.144,102.286L-49.076,102L-49.008,103.429L-48.939,106L-48.871,107L-48.802,108.857L-48.734,108L-48.665,109.429L-48.597,111.714L-48.528,110.429L-48.46,109.857L-48.392,110.571L-48.323,110.286L-48.255,110.714L-48.186,110.429L-48.118,110.571L-48.049,111.429L-47.981,111.857L-47.912,111.714L-47.844,111L-47.775,112L-47.707,111.571L-47.639,111L-47.57,110.286L-47.502,110.571L-47.433,109.857L-47.365,109.429L-47.296,107.429L-47.228,105.571L-47.159,104.571L-47.091,104.143L-47.023,103.857L-46.954,103.857L-46.886,103.571L-46.817,101L-46.749,98.571L-46.68,97.857L-46.612,95.714L-46.543,95.286L-46.475,96L-46.407,96.857L-46.338,95L-46.27,94L-46.201,90.143L-46.133,88.714L-46.064,88.571L-45.996,89.714L-45.927,90.286L-45.859,87.143L-45.791,86L-45.722,83.571L-45.654,82.286L-45.585,81.571L-45.517,82L-45.448,81.857L-45.38,79L-45.314,77.857L-45.246,77.286L-45.177,77.143L-45.109,76.571L-45.04,77.429L-44.972,77.286L-44.904,74.429L-44.835,72.571L-44.767,72.857L-44.698,73.857L-44.63,73.714L-44.561,75.714L-44.493,77.286L-44.424,75L-44.356,72.286L-44.288,71L-44.219,71.571L-44.151,74.286L-44.082,77.143L-44.014,78.286L-43.945,75.714L-43.877,74.429L-43.808,75.143L-43.74,75.714L-43.672,76.143L-43.603,77.571L-43.535,78L-43.466,74.857L-43.398,71.286L-43.329,71.143L-43.261,71.286L-43.192,71.143L-43.124,71.429L-43.056,73.429L-42.987,69.143L-42.919,67.143L-42.85,68.286L-42.782,67.429L-42.713,67.857L-42.645,67.429L-42.576,68.714L-42.508,66.286L-42.44,62.429L-42.371,60.857L-42.303,60.714L-42.234,61.429L-42.166,62.143L-42.097,62.143L-42.029,62.286L-41.96,56.857L-41.892,53.714L-41.824,51.143L-41.755,51.714L-41.687,51.143L-41.618,52.286L-41.55,46.857L-41.481,45.143L-41.413,45.714L-41.344,47L-41.276,47.143L-41.208,47.143L-41.139,47.857L-41.071,48.143L-41.002,44.143L-40.934,44.714L-40.865,45L-40.797,44.714L-40.728,46.857L-40.66,47.857L-40.591,44.286L-40.523,39.286L-40.455,39.429L-40.386,39.714L-40.318,42.571L-40.249,45.857L-40.181,45L-40.112,40.714L-40.044,38L-39.975,34.571L-39.907,37L-39.839,39.857L-39.77,42.286L-39.702,43.429L-39.633,41.714L-39.565,38.714L-39.496,41.714L-39.428,42.429L-39.359,45L-39.291,48L-39.223,50.429L-39.154,47L-39.086,43.857L-39.017,42.143L-38.949,43L-38.88,44.143L-38.812,46.286L-38.743,47.857L-38.675,45.286L-38.607,42.857L-38.538,44.571L-38.47,46.571L-38.401,47.571L-38.333,50.143L-38.264,50.286L-38.196,45.571L-38.127,45.143L-38.059,45.429L-37.991,46.429L-37.922,46.571L-37.854,48.571L-37.785,50.571L-37.717,48L-37.648,42L-37.58,42L-37.511,42.143L-37.443,42.286L-37.375,44.571L-37.306,43.571L-37.238,40.714L-37.169,37.429L-37.101,39.143L-37.032,42L-36.964,42.857L-36.895,45.143L-36.827,47.714L-36.758,43L-36.69,41L-36.622,42.143L-36.553,43.143L-36.485,45.143L-36.416,48L-36.348,48.429L-36.279,44.286L-36.211,42.429L-36.142,43.714L-36.074,44.571L-36.006,46.143L-35.937,47.857L-35.869,50.286L-35.8,48L-35.732,45.429L-35.663,46.286L-35.595,50.429L-35.526,53.714L-35.458,57.286L-35.39,59.857L-35.321,59.571L-35.253,57.571L-35.184,56.857L-35.116,58.571L-35.047,59.571L-34.979,60.143L-34.91,62.143L-34.842,58.571L-34.774,56.714L-34.705,59.286L-34.637,59.143L-34.568,58.571L-34.5,60.286L-34.431,60.857L-34.363,57.429L-34.294,56.143L-34.226,59.429L-34.158,60.429L-34.089,62.571L-34.021,64.571L-33.952,66.714L-33.884,65L-33.815,62.571L-33.747,63.714L-33.678,66.143L-33.61,67.286L-33.542,69.286L-33.473,68.857L-33.405,65.286L-33.336,63L-33.268,61.286L-33.199,62.143L-33.131,63.714L-33.062,65.857L-32.994,67L-32.926,66.143L-32.857,63.429L-32.789,66L-32.72,67L-32.652,68L-32.583,70.286L-32.515,71.571L-32.446,70L-32.378,67.857L-32.309,69.286L-32.241,70.286L-32.173,69.429L-32.104,71L-32.036,71.714L-31.967,70.857L-31.899,70.714L-31.83,72.857L-31.762,74.857L-31.693,76.286L-31.625,76.286L-31.557,77.857L-31.488,77.571L-31.42,76.714L-31.351,79L-31.283,79.857L-31.214,80.857L-31.146,83.571L-31.077,85.857L-31.009,84.857L-30.941,84.857L-30.872,85.286L-30.804,87.857L-30.735,89.286L-30.667,89.857L-30.598,90.429L-30.53,87.714L-30.461,88.286L-30.393,88L-30.325,90.143L-30.256,91.429L-30.188,93L-30.119,95.286L-30.051,94.286L-29.982,94.143L-29.914,95.571L-29.845,95.571L-29.777,95.143L-29.709,97L-29.64,97.286L-29.572,97.143L-29.503,95.714L-29.435,96.571L-29.366,98.571L-29.298,99.714L-29.229,100.143L-29.161,100.429L-29.093,99.143L-29.021,97.571L-28.953,97.429L-28.884,97.571L-28.816,98.857L-28.747,100L-28.679,100.429L-28.611,100.286L-28.542,100.857L-28.474,103.714L-28.405,104.143L-28.337,106.571L-28.268,107.429L-28.2,108.571L-28.131,107.429L-28.063,105.714L-27.995,106.429L-27.926,106.429L-27.858,106.143L-27.789,106L-27.721,106.714L-27.652,105.143L-27.584,105.714L-27.515,107.143L-27.447,109.429L-27.379,108.857L-27.31,108.429L-27.242,108.571L-27.173,106.429L-27.105,104L-27.036,103.429L-26.968,104.714L-26.899,105.714L-26.831,106.286L-26.762,105.714L-26.694,103.714L-26.626,103.857L-26.557,103.857L-26.489,103.857L-26.42,104.286L-26.352,104.857L-26.283,104.571L-26.215,103.714L-26.146,102.857L-26.078,104.143L-26.01,104.857L-25.941,105.143L-25.873,106.286L-25.804,106.429L-25.736,106.571L-25.667,105.857L-25.599,104.857L-25.53,103.429L-25.462,102.429L-25.394,102L-25.325,102.714L-25.257,102.857L-25.188,103.571L-25.12,106.571L-25.051,109.571L-24.983,110.143L-24.914,109.714L-24.846,110.857L-24.778,111.143L-24.709,112.143L-24.641,113.429L-24.572,112.714L-24.504,112.429L-24.435,112.714L-24.367,112.286L-24.298,111.143L-24.23,110L-24.162,110.143L-24.093,109.429L-24.025,108.857L-23.956,110.571L-23.888,111.143L-23.819,110.286L-23.751,110.143L-23.682,110.143L-23.614,110L-23.546,110.714L-23.477,112.429L-23.409,113L-23.34,112.286L-23.272,111.857L-23.203,111.429L-23.135,110.143L-23.066,109.286L-22.998,109.714L-22.93,110.571L-22.861,109.857L-22.793,109.143L-22.724,109L-22.656,108.857L-22.587,107.857L-22.519,108.143L-22.45,109.143L-22.382,107.571L-22.313,106.286L-22.245,103.143L-22.177,102.571L-22.108,103L-22.04,103L-21.971,103.143L-21.903,100.143L-21.834,97.571L-21.766,96.714L-21.697,95.714L-21.629,96.286L-21.561,96.286L-21.492,96.857L-21.424,95L-21.355,93.857L-21.287,93.571L-21.218,92.286L-21.15,89.286L-21.081,90.143L-21.013,90.286L-20.945,87.286L-20.876,85.286L-20.808,83.143L-20.739,80.714L-20.671,79.857L-20.602,79.714L-20.534,80.714L-20.465,78.286L-20.4,76L-20.331,75.143L-20.263,75.714L-20.195,79.143L-20.126,80L-20.058,79L-19.989,78.286L-19.921,76L-19.852,76.857L-19.784,77.429L-19.715,77.143L-19.647,76.429L-19.578,75.571L-19.51,74.857L-19.442,72.429L-19.373,71.286L-19.305,70.143L-19.236,70.143L-19.168,71.143L-19.099,73.714L-19.031,70.429L-18.962,69.143L-18.894,69.857L-18.826,70.429L-18.757,71.429L-18.689,73.143L-18.62,73.857L-18.552,69.857L-18.483,66.714L-18.415,67.571L-18.346,67.571L-18.278,66.429L-18.21,66.286L-18.141,65.286L-18.073,63.571L-18.004,61.429L-17.936,59.429L-17.867,61L-17.799,59.143L-17.73,59.714L-17.662,59.143L-17.594,59L-17.525,57.429L-17.457,56.429L-17.388,57.429L-17.32,58.857L-17.251,61L-17.183,61.286L-17.114,61.286L-17.046,57.857L-16.978,58.571L-16.909,55.857L-16.841,55.857L-16.772,55L-16.704,55.571L-16.635,54L-16.567,52.714L-16.498,54.286L-16.43,56.143L-16.362,56.143L-16.293,57.143L-16.225,58.571L-16.156,55.857L-16.088,55.286L-16.019,54.429L-15.951,52.286L-15.882,54.143L-15.814,54.429L-15.745,56.714L-15.677,54.143L-15.609,51.571L-15.54,51L-15.472,52L-15.403,52L-15.335,52.571L-15.266,52.857L-15.198,49.571L-15.129,46.714L-15.061,42.143L-14.993,43.143L-14.924,41L-14.856,44.714L-14.787,44.143L-14.719,41.714L-14.65,39.429L-14.582,37.714L-14.513,36.571L-14.445,37.143L-14.377,37.857L-14.308,38.571L-14.24,35.143L-14.171,32.714L-14.103,32.286L-14.034,30.429L-13.966,30.143L-13.897,35.429L-13.829,36L-13.761,31.286L-13.692,28.714L-13.624,28L-13.555,24.714L-13.487,23L-13.418,23L-13.35,23.286L-13.281,19.714L-13.213,15.571L-13.145,14.857L-13.076,14.429L-13.008,15.857L-12.939,15.714L-12.871,18.143L-12.802,15L-12.734,13.714L-12.665,16.714L-12.597,17.286L-12.529,17.857L-12.46,19.429L-12.392,20.286L-12.323,16.571L-12.255,13.571L-12.186,13.429L-12.118,15L-12.049,16.571L-11.981,20.286L-11.913,22.857L-11.844,17.286L-11.776,14.429L-11.707,16.571L-11.639,16.857L-11.57,18.286L-11.502,26.429L-11.433,29.857L-11.365,28.286L-11.296,24.857L-11.228,26.571L-11.16,29.143L-11.091,32L-11.023,34.857L-10.954,37.143L-10.886,37.143L-10.817,36.429L-10.749,35.857L-10.68,35.571L-10.612,35.714L-10.544,38L-10.475,42L-10.407,38L-10.338,35.714L-10.27,36L-10.201,37.286L-10.133,38.857L-10.064,41.429L-9.996,39.571L-9.928,35L-9.859,27.286L-9.791,27.857L-9.722,30.286L-9.654,31.286L-9.585,33.857L-9.517,34.857L-9.448,30.143L-9.38,28.429L-9.312,29.286L-9.243,33.286L-9.175,34.286L-9.106,35L-9.038,34.143L-8.969,31.714L-8.901,29.429L-8.832,30.857L-8.764,30.571L-8.696,33L-8.627,36.714L-8.559,37.143L-8.49,35L-8.422,31.429L-8.353,34.143L-8.285,35.286L-8.216,38.143L-8.148,41L-8.08,43.571L-8.011,42.714L-7.943,45.857L-7.874,48.857L-7.806,55.143L-7.737,59.143L-7.669,60.714L-7.6,62.429L-7.532,61L-7.463,59.857L-7.395,60.714L-7.327,61.143L-7.258,61L-7.19,62.571L-7.121,63.857L-7.053,61.857L-6.984,63L-6.916,63.429L-6.847,64.571L-6.779,65.714L-6.711,67.571L-6.642,68.143L-6.574,66.143L-6.505,65.286L-6.437,67.429L-6.368,70.143L-6.3,72.286L-6.231,74.286L-6.163,74.143L-6.095,70.286L-6.026,68.143L-5.958,68.429L-5.889,68.143L-5.821,69.143L-5.752,71.714L-5.684,72.143L-5.615,71.286L-5.547,71.143L-5.479,72.286L-5.41,74.571L-5.342,76.857L-5.273,79L-5.205,81.286L-5.136,79.571L-5.068,79.429L-4.999,81.714L-4.931,81.714L-4.863,83.714L-4.794,85.714L-4.726,86.286L-4.657,86.571L-4.589,87L-4.52,88.857L-4.452,91.286L-4.383,92.286L-4.315,92.714L-4.247,92.143L-4.178,91.571L-4.107,92.286L-4.038,94.143L-3.97,95.857L-3.901,96.857L-3.833,98.143L-3.765,99.286L-3.696,98.571L-3.628,97.714L-3.559,97.429L-3.491,96.857L-3.422,96.286L-3.354,96.714L-3.285,97.571L-3.217,96.429L-3.149,95.429L-3.08,96.714L-3.012,97.429L-2.943,98.429L-2.875,99L-2.806,100L-2.738,100.571L-2.669,100L-2.601,99.857L-2.533,100.571L-2.464,101.143L-2.396,101.286L-2.327,101.429L-2.259,99.857L-2.19,99.571L-2.122,100L-2.053,100.429L-1.985,102.571L-1.916,102.714L-1.848,102.143L-1.78,99.286L-1.711,98L-1.643,98.286L-1.574,99.143L-1.506,99.857L-1.437,100.714L-1.369,102L-1.3,101.429L-1.232,102L-1.164,103.429L-1.095,104.143L-1.027,104.429L-0.958,104.143L-0.89,104.714L-0.821,105.571L-0.753,105.714L-0.684,105.286L-0.616,105.571L-0.548,105.857L-0.479,106.857L-0.411,107L-0.342,106.857L-0.274,105.571L-0.205,106.143L-0.137,107.429L-0.068,107.143L0,107.143L0.068,107.429L0.137,107.571L0.205,107.714L0.274,110.143L0.342,109.714L0.411,110L0.479,111.143L0.548,111.857L0.616,109.571L0.684,109.286L0.753,109.571L0.821,109.286L0.89,109.286L0.958,110L1.027,110.857L1.095,111.143L1.164,110L1.232,109.143L1.3,106.571L1.369,104.286L1.437,105L1.506,106L1.574,99.857L1.643,99.286L1.711,97.571L1.78,96.857L1.848,97.143L1.916,96.571L1.985,97.143L2.053,91.571L2.122,90.429L2.19,89L2.259,88.571L2.327,89L2.396,90.143L2.464,89.714L2.533,87.571L2.601,86.143L2.669,88.143L2.738,84.429L2.806,83.714L2.875,83.857L2.943,83.143L3.012,81L3.08,77.857L3.149,75.286L3.217,74.143L3.285,74.286L3.354,76.714L3.422,78.429L3.491,77L3.559,75.429L3.628,78.429L3.696,76.571L3.765,77.143L3.833,78.143L3.901,78L3.97,77.857L4.038,76L4.107,81.143L4.175,79.857L4.244,80.143L4.312,80.286L4.381,79.571L4.449,77.429L4.517,75.571L4.586,74.857L4.654,74.857L4.723,75.143L4.791,78L4.86,79.571L4.928,77.714L4.994,76.143L5.062,75.571L5.131,77.429L5.199,79L5.268,80.714L5.336,80.143L5.404,75.571L5.473,74.143L5.541,74L5.61,74.286L5.678,75L5.747,76.286L5.815,76.143L5.884,75.143L5.952,72.857L6.02,72L6.089,71.714L6.157,70.857L6.226,72.857L6.294,73.714L6.363,72L6.431,71.429L6.5,72.714L6.568,74.571L6.636,75L6.705,76.143L6.773,76.429L6.842,75.857L6.91,73.714L6.979,72.857L7.047,73.714L7.116,74.143L7.184,73.857L7.252,74.143L7.321,70.571L7.389,68.286L7.458,71.429L7.526,71.429L7.595,71L7.663,70.857L7.732,70.857L7.8,68.286L7.868,66.143L7.937,65.571L8.005,65.857L8.074,65.429L8.142,66.286L8.211,67.143L8.279,64.857L8.348,59.429L8.416,57.286L8.484,53.286L8.553,50.571L8.621,49.429L8.69,49.143L8.758,43.286L8.827,39.714L8.895,37.714L8.964,36.714L9.032,36.571L9.101,36.571L9.169,37.571L9.237,36L9.306,32.857L9.374,32.143L9.443,30.714L9.511,27.857L9.58,28.429L9.648,29.143L9.717,25.714L9.785,22.714L9.853,22.714L9.922,20.714L9.99,20.714L10.059,23.143L10.127,24.286L10.196,20.857L10.264,17L10.333,15.857L10.401,18.143L10.469,20.286L10.538,25.143L10.606,28.714L10.675,30L10.743,27.143L10.812,28.571L10.88,26.286L10.949,26.857L11.017,28.429L11.085,30L11.154,25.857L11.222,23.286L11.291,20.143L11.359,21L11.428,22L11.496,25.571L11.565,29L11.633,25.429L11.701,22.286L11.77,22.286L11.838,23.143L11.907,23.571L11.975,26L12.044,26.143L12.112,21L12.181,18.143L12.249,20.286L12.317,21.429L12.386,22.429L12.454,24.571L12.523,25.571L12.591,20.714L12.66,16.714L12.728,12L12.797,13.714L12.865,16.143L12.933,21.429L13.002,24.286L13.07,20.143L13.139,17.571L13.207,20.857L13.276,21L13.344,24L13.413,25.857L13.481,29.286L13.55,24L13.618,19.571L13.686,19L13.755,18.714L13.823,21.857L13.892,24.429L13.96,26.143L14.029,25L14.097,23.143L14.166,26.143L14.234,28.571L14.302,27.286L14.371,29.429L14.439,30.714L14.508,30.286L14.576,27.143L14.645,27.857L14.713,29.571L14.782,31.571L14.85,33.571L14.918,35.143L14.987,34L15.055,32.143L15.124,35.429L15.192,37.714L15.261,36.429L15.329,39L15.398,39.714L15.466,36.857L15.534,33L15.603,35.429L15.671,38L15.74,41.429L15.808,44.143L15.877,44.429L15.945,43.286L16.014,39.571L16.082,40.857L16.15,43L16.219,43.714L16.287,44L16.356,47.286L16.424,45.571L16.493,42.857L16.561,43L16.63,45.571L16.698,49L16.766,50.286L16.835,53.143L16.903,51.857L16.972,50.857L17.04,51.286L17.109,51.571L17.177,52.286L17.246,54.143L17.314,58L17.383,59.286L17.451,59.286L17.519,61L17.588,63.429L17.656,66L17.725,66.714L17.793,67.143L17.862,66.143L17.93,64.857L17.999,64.571L18.067,66.429L18.135,67.571L18.204,68.571L18.272,69.286L18.341,68.286L18.409,66.571L18.478,68.143L18.546,71L18.615,72.286L18.683,74.143L18.751,75.286L18.82,75.286L18.888,73.286L18.957,74.429L19.025,75.857L19.094,76.714L19.162,78L19.231,78.857L19.299,76.857L19.367,76.429L19.436,73.429L19.504,73.286L19.573,75.571L19.641,77L19.71,78.143L19.778,77.571L19.847,78.857L19.915,80L19.983,81L20.052,81.429L20.12,83.857L20.189,84.857L20.257,83.714L20.326,84.714L20.394,85.857L20.463,88.857L20.531,89.286L20.599,90.571L20.668,91.571L20.736,90.714L20.805,90.429L20.873,90L20.942,91.571L21.01,92.286L21.079,92.714L21.147,93.429L21.215,92.429L21.287,91.857L21.355,92.143L21.424,91.143L21.492,92.857L21.561,94.857L21.629,94.857L21.697,93.286L21.766,91.571L21.834,92.429L21.903,92.714L21.971,93.571L22.04,96L22.108,98.286L22.177,97.714L22.245,96.429L22.313,98.143L22.382,98.143L22.45,97.714L22.519,97.714L22.587,99.286L22.656,98.714L22.724,97.429L22.793,96.143L22.861,95.571L22.93,96.286L22.998,96.714L23.066,97.429L23.135,97.429L23.203,95.571L23.272,96.429L23.34,96.429L23.409,97.286L23.477,99L23.546,100.143L23.614,100.571L23.682,101.143L23.751,102.429L23.819,102L23.888,101.286L23.956,101.286L24.025,102.714L24.093,100.429L24.162,98.571L24.23,98.429L24.298,97.857L24.367,97.286L24.435,96.286L24.504,96L24.572,94.714L24.641,92.857L24.709,91.286L24.778,92L24.846,93L24.914,93.714L24.983,94.143L25.051,92.429L25.12,91.429L25.188,90L25.257,90.286L25.325,90.429L25.394,91.286L25.462,92L25.53,88.857L25.599,87.286L25.667,85.714L25.736,85.429L25.804,85.857L25.873,87.857L25.941,90.143L26.01,89.571L26.078,87.857L26.146,85L26.215,84L26.283,82.857L26.352,81.714L26.42,81.143L26.489,78.714L26.557,77.571L26.626,75.857L26.694,75.429L26.762,75.143L26.831,73L26.899,73.429L26.968,71.286L27.036,70.286L27.105,70.429L27.173,70.571L27.242,70.857L27.31,72.571L27.379,72.571L27.447,71.143L27.515,69L27.584,70.714L27.652,70L27.721,70.857L27.789,71L27.858,71.143L27.926,70.429L27.995,70.571L28.063,70.714L28.131,71.857L28.2,75.714L28.268,78.429L28.337,81.143L28.405,82.429L28.474,82L28.542,84L28.611,86L28.679,87.571L28.747,89L28.816,91.143L28.884,91.286L28.953,89.714L29.021,91L29.09,91L29.158,92.571L29.227,92.857L29.295,91.571L29.363,88.286L29.432,87L29.5,86.714L29.569,88.286L29.637,87.714L29.706,90L29.774,90.286L29.843,85.857L29.908,84L29.977,81.571L30.045,79.571L30.114,79.429L30.182,78.429L30.25,77.714L30.319,75.143L30.387,72.143L30.456,72.143L30.524,71.571L30.593,71.857L30.661,70.857L30.73,70.571L30.798,68.286L30.866,65.429L30.935,65.143L31.003,65.714L31.072,65.143L31.14,66.714L31.209,65.429L31.277,63.286L31.346,62.143L31.414,62L31.482,60.429L31.551,62L31.619,61.286L31.688,61.571L31.756,58.714L31.825,55.286L31.893,56.571L31.962,56L32.03,58L32.098,59.429L32.167,59L32.235,57.143L32.304,55.714L32.372,55.286L32.441,54.143L32.509,53L32.578,54.857L32.646,55.857L32.714,55.429L32.783,52.714L32.851,51.857L32.92,53L32.988,55.429L33.057,55.143L33.125,56.714L33.194,55.857L33.262,54.143L33.33,52.429L33.399,52.857L33.467,52.571L33.536,55L33.604,53.857L33.673,51.857L33.741,50.143L33.81,47.286L33.878,47.286L33.946,46L34.015,46.286L34.083,45.429L34.152,40.714L34.22,38.429L34.289,38.286L34.357,38.143L34.426,39L34.494,41.571L34.563,43.286L34.631,39.857L34.699,36L34.768,35.429L34.836,35.429L34.905,35.143L34.973,33.857L35.042,32.429L35.11,29.714L35.179,26.857L35.247,23.857L35.315,24L35.384,25.714L35.452,26.429L35.521,28.286L35.589,25.571L35.658,26.429L35.726,24.857L35.795,23.571L35.863,25.429L35.931,26.857L36,30.429L36.068,26L36.137,23.857L36.205,25.286L36.274,24.857L36.342,24.714L36.411,26.286L36.479,26.857L36.547,21.714L36.616,18.714L36.684,17.857L36.753,17.429L36.821,15.286L36.89,17.857L36.958,19.714L37.027,20L37.095,17.143L37.163,17.714L37.232,15.429L37.3,15.143L37.369,17L37.437,18.714L37.506,16.857L37.574,13.286L37.643,12L37.711,7.714L37.779,9.286L37.848,12.429L37.916,14.571L37.985,13.143L38.053,10.571L38.122,12.429L38.19,13.286L38.259,14L38.327,17.429L38.396,19.429L38.464,16.714L38.532,15.571L38.601,17.714L38.669,19.286L38.738,21L38.806,25.429L38.875,27.857L38.943,25.714L39.012,23.143L39.08,23.714L39.148,24.429L39.217,25.857L39.285,30.714L39.354,33.571L39.422,32.286L39.491,28.571L39.559,30.143L39.628,31L39.696,33.429L39.764,37.714L39.833,41.429L39.901,41.286L39.97,39.429L40.038,40.143L40.107,41.143L40.175,44.143L40.244,46.429L40.312,47.429L40.38,45.571L40.449,44.143L40.517,45.143L40.586,44.857L40.654,46.143L40.723,47.857L40.791,49.857L40.86,46.714L40.928,47L40.996,47.857L41.065,50.143L41.133,50.143L41.202,53L41.27,54.714L41.339,50.714L41.407,47.143L41.476,46.143L41.544,49L41.612,48.714L41.681,53.286L41.749,54.857L41.818,53.857L41.886,50.857L41.955,51L42.023,52L42.092,53.143L42.16,55.143L42.228,55.571L42.297,54.429L42.365,53.857L42.434,53.143L42.502,54.286L42.571,55L42.639,57.714L42.708,59.143L42.776,58.143L42.845,56.286L42.913,58.714L42.981,58.857L43.05,60L43.118,61.429L43.187,62.429L43.255,61.714L43.324,60.571L43.392,62.714L43.461,66.714L43.529,69L43.597,70.143L43.666,72.143L43.734,69.857L43.803,68.714L43.871,67.429L43.94,68.286L44.008,67.571L44.077,69.714L44.145,71.143L44.213,69.429L44.282,68.714L44.35,70.286L44.419,71.714L44.487,74.571L44.556,76L44.624,77.286L44.693,76.714L44.761,75.714L44.829,76.857L44.898,79L44.966,78.857L45.035,81L45.103,82.857L45.172,82.143L45.24,82.286L45.309,83.857L45.377,86.857L45.445,89.286L45.514,90L45.582,90.714L45.651,89.286L45.719,88.857L45.788,89.429L45.856,91.286L45.925,93L45.993,94.286L46.061,95.857L46.13,93.429L46.201,91.571L46.27,92.714L46.338,92.714L46.407,92.286L46.475,93.714L46.543,94.143L46.612,94.286L46.68,94.714L46.749,95.714L46.817,98.286L46.886,98.857L46.954,99.571L47.023,100.571L47.091,99.143L47.159,97.143L47.228,97.714L47.296,98.571L47.365,97.571L47.433,96.714L47.502,96.714L47.57,97.429L47.639,97.571L47.707,99.571L47.775,100.714L47.844,101.714L47.912,102.714L47.981,104.286L48.049,104.571L48.118,104.714L48.186,107.429L48.255,110.286L48.323,111.857L48.392,114.143L48.46,115.429L48.528,114L48.597,113.143L48.665,112.143L48.734,111L48.802,109.571L48.871,109L48.939,109.714L49.008,109.286L49.076,106.143L49.144,106.857L49.213,106.857L49.281,107.143L49.35,107.286L49.418,107.857L49.487,105.143L49.555,102.714L49.624,101L49.692,99.714L49.76,99.714L49.829,99.571L49.897,100.143L49.966,97.714L50.034,96.857L50.103,95L50.171,94L50.24,93.143L50.308,93L50.376,91.714L50.445,89L50.513,87.143L50.582,86.857L50.65,86.286L50.719,86.714L50.787,88.286L50.856,89.857L50.924,88.857L50.992,86.714L51.061,86.286L51.129,87.286L51.198,87.429L51.266,89.429L51.335,90.286L51.403,89.429L51.472,88.429L51.54,88.714L51.608,89.857L51.677,90L51.745,90.857L51.814,91L51.882,89.857L51.951,87.571L52.019,88.571L52.088,87.286L52.156,88.571L52.225,88.571L52.293,89.143L52.361,86.571L52.43,87.143L52.498,88.857L52.567,89.429L52.635,90.143L52.704,90.286L52.772,91L52.841,87.286L52.909,86.143L52.977,85.857L53.046,86.714L53.114,85.571L53.183,87.714L53.251,88L53.32,86.143L53.388,85L53.457,85L53.525,86.286L53.593,87.714L53.662,88L53.73,88.571L53.799,85.571L53.867,82.714L53.936,83L54.004,82.714L54.073,82.286L54.141,83L54.209,83.571L54.278,82.571L54.346,81.286L54.415,81.714L54.483,81.286L54.552,80.429L54.62,81.143L54.689,81.714L54.757,81L54.823,79.429L54.891,81L54.96,78.429L55.028,79.286L55.096,80.143L55.165,80.857L55.233,78.571L55.302,75.286L55.37,75.286L55.439,74.286L55.507,73.286L55.576,72.571L55.644,72.143L55.712,70L55.781,68.429L55.849,68.571L55.918,69L55.986,68.857L56.055,70.429L56.123,70.714L56.192,68.571L56.26,66.429L56.328,67L56.397,64.714L56.465,63L56.534,62.714L56.602,63.143L56.671,60L56.739,57.429L56.808,57.429L56.876,55.429L56.944,55.571L57.013,59.143L57.081,59.714L57.15,55.857L57.218,54.571L57.287,54L57.355,55.429L57.424,54.857L57.492,56.714L57.56,58.286L57.629,54.571L57.697,54L57.766,53.571L57.834,50.857L57.903,51.429L57.971,53.286L58.04,53.857L58.108,53.286L58.176,49.857L58.245,48.143L58.313,47.143L58.382,45.714L58.45,48.286L58.519,51.429L58.587,45.571L58.656,42.571L58.724,42.571L58.792,42.857L58.861,41L58.929,43.143L58.998,44.571L59.066,39.857L59.135,36.143L59.203,36L59.272,36L59.34,36.571L59.409,37.143L59.477,38L59.545,33L59.614,28.429L59.682,29.286L59.751,27.714L59.819,28.857L59.888,32.714L59.956,34.286L60.025,31.286L60.093,26L60.161,24.429L60.23,24.857L60.298,26.857L60.367,28.714L60.435,30.286L60.504,26.286L60.572,22.857L60.641,28.571L60.709,28.286L60.777,29L60.846,28.857L60.914,30.714L60.983,25.286L61.051,21L61.12,20.286L61.188,20L61.257,20.286L61.325,21L61.393,21.286L61.462,18.857L61.53,14.286L61.599,15.571L61.667,16.286L61.736,17.714L61.804,19.571L61.873,21.286L61.941,17.571L62.009,14.143L62.078,14.857L62.146,17.429L62.215,17.143L62.283,19.429L62.352,21L62.42,18.571L62.489,15L62.557,15.571L62.625,14.857L62.694,13.286L62.762,16L62.831,17.429L62.899,14.571L62.968,10.714L63.036,13.857L63.105,15.143L63.173,18L63.242,21.429L63.31,24.286L63.378,23.286L63.447,20.714L63.515,21.143L63.584,23.714L63.652,23.714L63.721,26.429L63.789,28.143L63.858,23.714L63.926,20.429L63.994,21.714L64.063,23.286L64.131,23.571L64.2,24.714L64.268,26L64.337,22.429L64.405,21.286L64.474,21.714L64.542,22.857L64.61,25.286L64.679,28.286L64.747,29.857L64.816,29.429L64.884,26L64.953,29.714L65.021,31.714L65.09,32.286L65.158,34.143L65.226,35.857L65.295,35.714L65.363,33L65.432,33L65.5,34.571L65.569,34L65.637,36.143L65.706,38.143L65.774,33.571L65.842,32L65.911,34.714L65.979,34.714L66.048,35.571L66.116,37.143L66.185,38.143L66.253,36.714L66.322,37.286L66.39,39.714L66.458,40L66.527,41.571L66.595,43.857L66.664,44.286L66.732,40.857L66.801,38.429L66.869,36.429L66.938,38.429L67.006,38.286L67.074,42L67.143,43L67.211,42L67.28,39L67.348,37.429L67.417,37.857L67.485,39.571L67.554,41.571L67.622,44.714L67.691,43L67.759,41.714L67.827,44.714L67.896,44.714L67.964,47L68.033,50.714L68.101,53L68.17,53.429L68.238,53.143L68.307,56L68.375,56.571L68.443,58.286L68.512,60.857L68.58,61.286L68.649,61.429L68.717,61.571L68.786,66L68.854,67.571L68.923,70.286L68.991,73.714L69.059,76L69.128,75L69.196,76.286L69.265,76.714L69.333,78.429L69.402,80.857L69.47,84.286L69.539,85.143L69.607,84.143L69.675,83.714L69.744,85.857L69.812,87.857L69.881,89.857L69.949,91.714L70.018,92.857L70.086,90.429L70.155,89.143L70.223,89L70.291,91.143L70.36,92.143L70.428,92.571L70.497,93.286L70.565,93.143L70.634,93.714L70.702,94.143L70.771,95L70.839,94L70.907,95.714L70.976,97.429L71.044,95L71.116,93.143L71.184,93.714L71.253,92.571L71.321,94.429L71.389,96.286L71.458,96.714L71.526,95L71.595,94.857L71.663,96.714L71.732,97.714L71.8,97.714L71.869,98.143L71.937,99L72.005,98.714L72.074,98.286L72.142,99.714L72.211,100.286L72.279,101.571L72.348,100.857L72.416,101.429L72.485,101.286L72.553,102L72.621,101L72.69,100.429L72.758,100.429L72.827,101.429L72.895,102.143L72.964,100.714L73.032,100.286L73.101,102L73.169,102.143L73.238,102.571L73.306,104.571L73.374,104.429L73.443,102.714L73.511,101.571L73.58,103L73.648,103.143L73.717,103.143L73.785,102.714L73.854,102.857L73.922,102.286L73.99,100.571L74.059,100.143L74.127,98.857L74.196,99.571L74.264,100L74.333,100.286L74.401,99L74.47,97.286L74.538,95L74.606,93.143L74.675,92.571L74.743,94L74.812,93.429L74.88,91.714L74.949,91.143L75.017,92.286L75.086,92.143L75.154,92.286L75.222,94L75.291,94L75.359,91.143L75.428,90.286L75.496,90.286L75.565,90.857L75.633,90.857L75.702,90.571L75.77,90.714L75.838,89.714L75.907,89.571L75.975,88.857L76.044,89L76.112,88.429L76.181,90L76.249,90.714L76.318,88.571L76.386,87.429L76.454,88.429L76.523,88.286L76.591,90.571L76.66,92.143L76.728,93.429L76.797,91.571L76.865,92L76.934,92.571L77.002,93.571L77.07,94.143L77.139,94.571L77.207,94.571L77.276,93.857L77.344,93.429L77.413,96L77.481,97L77.55,98.143L77.618,98.714L77.687,98.429L77.755,97.286L77.823,95.286L77.892,94.857L77.96,92.714L78.029,90.857L78.097,92.286L78.166,93L78.234,91.857L78.303,89.714L78.371,89.143L78.439,89.429L78.508,88.143L78.576,88L78.645,87.286L78.713,83.857L78.782,81.429L78.85,81.857L78.919,80.286L78.987,80L79.055,79.571L79.124,77.143L79.192,74.143L79.261,73L79.329,70.714L79.398,68.286L79.466,66.857L79.535,67L79.603,67.286L79.671,63.429L79.737,62.286L79.805,61L79.874,60.286L79.942,60.571L80.011,62.571L80.079,63.714L80.148,61.143L80.216,58.286L80.285,57.714L80.353,57.857L80.422,60.143L80.49,60.571L80.558,62.571L80.627,59.714L80.695,58.714L80.764,59.714L80.832,60.714L80.901,61.571L80.969,62.857L81.038,62.571L81.106,59.143L81.174,57.143L81.243,56.429L81.311,55.143L81.38,54.571L81.448,56L81.517,56.714L81.585,54.429L81.654,50.286L81.722,50.286L81.79,48.571L81.859,49L81.927,49.857L81.996,50.857L82.064,49.286L82.133,48.286L82.201,48.571L82.27,48.429L82.338,47.143L82.406,48.571L82.475,47.857L82.543,44L82.612,39.857L82.68,40.429L82.749,40.286L82.817,40.143L82.886,41.429L82.954,41.857L83.022,42L83.091,38.714L83.159,40.571L83.228,43.571L83.296,43.286L83.365,43.286L83.433,43.143L83.502,41.429L83.57,38.714L83.638,37.714L83.707,38.714L83.775,37.571L83.844,39.714L83.912,40.857L83.981,39L84.049,36.571L84.118,37L84.186,39.286L84.255,38.857L84.323,40.143L84.391,41.857L84.46,36.571L84.528,34.714L84.597,35.429L84.665,36L84.734,36.571L84.802,36.429L84.871,36.143L84.939,32L85.007,27.714L85.076,24.714L85.144,25.857L85.213,25.143L85.281,25.857L85.35,28.857L85.418,27.143L85.487,27.571L85.555,25L85.623,26.714L85.692,25.857L85.76,28.714L85.829,31.714L85.897,28.429L85.966,26L86.034,27.286L86.103,24.714L86.171,23.429L86.239,23.286L86.308,24.714L86.376,23.571L86.445,22L86.513,23.286L86.582,23.286L86.65,23.857L86.719,27.143L86.787,29L86.855,28L86.924,27.571L86.992,28L87.061,30L87.129,30.143L87.198,32.286L87.266,33.429L87.335,29.286L87.403,25.286L87.471,25.571L87.54,24.714L87.608,27.143L87.677,27.714L87.745,29.714L87.814,24.429L87.882,22.857L87.951,24.857L88.019,26.857L88.087,26.857L88.156,31.429L88.224,32.571L88.293,30.429L88.361,28.857L88.43,30L88.498,30.143L88.567,30.429L88.635,32.286L88.704,34.857L88.772,30.857L88.84,28.857L88.909,28.429L88.977,29.286L89.046,31.857L89.114,34.429L89.183,37.429L89.251,35L89.32,35L89.388,37.571L89.456,39.286L89.525,41.857L89.593,44.571L89.662,47.286L89.73,47.286L89.799,47.143L89.867,50L89.936,50.143L90.004,50.571L90.072,51.571L90.141,52.714L90.209,50.143L90.278,49L90.346,47.571L90.415,48L90.483,48.714L90.552,50.429L90.62,53.286L90.688,50.286L90.757,47.571L90.825,49.571L90.894,50.429L90.962,52.286L91.031,54.143L91.099,55.286L91.168,51L91.236,48.714L91.304,49L91.373,49L91.441,48.714L91.51,51L91.578,52L91.647,52L91.715,50.143L91.784,47.143L91.852,48.714L91.92,51.571L91.989,54.286L92.057,55.143L92.126,54.143L92.194,53.857L92.263,56.857L92.331,59L92.4,62.286L92.468,64.571L92.537,66L92.605,65.571L92.673,64.857L92.742,68.286L92.81,70L92.879,71.143L92.947,73.143L93.016,75L93.084,72.429L93.153,71.429L93.221,74L93.289,76.286L93.358,78.286L93.426,80L93.495,82.143L93.563,80.857L93.632,80L93.7,79.714L93.769,80.429L93.837,83.143L93.905,84.143L93.974,84.429L94.042,82L94.111,83.143L94.179,83.286L94.248,83.571L94.316,83.857L94.385,84.714L94.453,86.571L94.521,86.429L94.59,85.714L94.658,87.571L94.727,87.714L94.795,88.429L94.864,90.429L94.932,91.143L95.001,90.429L95.069,89.429L95.137,91.429L95.206,92.429L95.274,93.286L95.343,94.714L95.411,95.429L95.48,94L95.548,93L95.617,94.857L95.685,96.571L95.753,97.714L95.822,99.143L95.89,100.714L95.959,100.571L96.03,100.286L96.099,102L96.167,101.286L96.235,101.571L96.304,103.571L96.372,104L96.441,102.857L96.509,102.714L96.578,102.857L96.646,103.143L96.715,103.286L96.783,104.714L96.851,105.571L96.92,103.714L96.988,103.857L97.057,105.429L97.125,106L97.194,107L97.262,107.571L97.331,109L97.399,107.714L97.467,108.429L97.536,110.143L97.604,110.857L97.673,109.286L97.741,109.143L97.81,108.571L97.878,108.571L97.947,107.857L98.015,107.857L98.084,106.571L98.152,107L98.22,107.714L98.289,108.857L98.357,106.143L98.426,104.571L98.494,105L98.563,104.143L98.631,103.714L98.7,104.714L98.768,104L98.836,103.714L98.905,102.571L98.973,102.143L99.042,100.429L99.11,99.571L99.179,100.714L99.247,101.429L99.316,101.571L99.384,100.857L99.452,101.286L99.521,101.143L99.589,100.571L99.658,101.286L99.726,103L99.795,101.286L99.863,101.714L99.932,102L100,102.429L100.068,101.857L100.137,103.571L100.205,104.429L100.274,103.429L100.342,102.429L100.411,104.143L100.479,105L100.548,106.143L100.616,106.857L100.684,107.429L100.753,105.429L100.821,105.571L100.89,106L100.958,106L101.027,107.143L101.095,109.286L101.164,109.143L101.232,107.286L101.3,104.429L101.369,103L101.437,102.429L101.506,102.429L101.574,102.571L101.643,102.857L101.711,102L101.78,100.286L101.848,100.429L101.916,99.714L101.985,99.286L102.053,99.143L102.122,99.857L102.19,98.857L102.259,98.714L102.327,99.857L102.396,100.286L102.464,101L102.533,102.286L102.601,101.714L102.669,102L102.738,101.143L102.806,101.143L102.875,100.429L102.943,100.714L103.012,101.143L103.08,101.857L103.149,100.286L103.217,100.714L103.285,101.857L103.354,104L103.422,105L103.491,106.143L103.559,107.286L103.628,107.143L103.696,106.571L103.765,107.286L103.833,109.571L103.901,109.714L103.97,110.857L104.038,111.143L104.107,111.571L104.175,111.286L104.244,111.857L104.312,112.286L104.381,112L104.449,112.714L104.517,112.143L104.586,111.714L104.651,112.143L104.72,112.714L104.788,114L104.857,115.429L104.925,116.571L104.994,116.571L105.062,115.714L105.131,115.143L105.199,116.143L105.268,115.857L105.336,115.571L105.404,115.714L105.473,115L105.541,112.857L105.61,112.286L105.678,112.429L105.747,112.286L105.815,112.571L105.884,112L105.952,113.714L106.02,112.429L106.089,111.857L106.157,111.429L106.226,111.143L106.294,111.143L106.363,110.429L106.431,109.857L106.5,108.286L106.568,108L106.636,107.143L106.705,107.286L106.773,105.857L106.842,104.714L106.91,105L106.979,102.143L107.047,100.714L107.116,101.286L107.184,100.714L107.252,100L107.321,99L107.389,98.571L107.458,96.857L107.526,94.143L107.595,94.286L107.663,93L107.732,92L107.8,92.429L107.868,91.571L107.937,90.429L108.005,87.286L108.074,86L108.142,85L108.211,82.286L108.279,81.571L108.348,81.143L108.416,80.143L108.484,78.571L108.553,80.286L108.621,78.857L108.69,77.857L108.758,77.429L108.827,77L108.895,73.714L108.964,72L109.032,71.857L109.101,70.714L109.169,68.857L109.237,69L109.306,67.571L109.374,65.571L109.443,64L109.511,63.286L109.58,63.143L109.648,62.857L109.717,62.857L109.785,62.857L109.853,59.714L109.922,57.429L109.99,56.286L110.059,56L110.127,56.714L110.196,57.286L110.264,58.857L110.333,57.429L110.401,55.143L110.469,54.571L110.538,54.429L110.606,52.286L110.675,53.571L110.743,54.143L110.812,52L110.88,47.571L110.949,48.571L111.017,48.714L111.085,49.286L111.154,49.857L111.222,50.143L111.291,47L111.359,46.429L111.428,47L111.496,45.143L111.565,44.714L111.633,47.286L111.701,47.857L111.77,46.714L111.838,45.429L111.907,47L111.975,46.714L112.044,47.429L112.112,49.714L112.181,49.857L112.249,47.286L112.317,46L112.386,46.429L112.454,47.286L112.523,48L112.591,48.714L112.66,50.286L112.728,47.143L112.797,46.429L112.865,47.429L112.933,49.714L113.002,51.286L113.07,52.143L113.139,52.857L113.207,50.714L113.276,49.571L113.344,51.143L113.413,52L113.481,52.286L113.55,55.714L113.618,58.143L113.686,57.571L113.755,54.429L113.823,54.143L113.892,55L113.96,54.429L114.029,55L114.097,55.143L114.166,52.143L114.234,51.286L114.302,51.571L114.371,52.143L114.439,51.429L114.508,52.429L114.576,52.857L114.645,49.857L114.713,48.429L114.782,49.714L114.85,48.286L114.918,48.143L114.987,51L115.055,51.571L115.124,51.286L115.192,49.571L115.261,50.571L115.329,51.143L115.398,52.571L115.466,54.143L115.534,54.857L115.603,53L115.671,50.571L115.74,50.286L115.808,52.714L115.877,53.714L115.945,55.143L116.014,56.429L116.082,57.857L116.15,58.571L116.219,60.714L116.287,60.143L116.356,61.714L116.424,63.429L116.493,65.714L116.561,63.143L116.63,62.143L116.698,65.571L116.766,65.286L116.835,67.286L116.903,69.571L116.972,70.857L117.04,68.143L117.109,67.429L117.177,67L117.246,69L117.314,71.143L117.383,73.429L117.451,74.286L117.519,74.429L117.588,75.571L117.656,76.143L117.725,75.857L117.793,77L117.862,78.571L117.93,79.857L117.999,78.143L118.067,78.571L118.135,77.286L118.204,77.429L118.272,77.714L118.341,80.143L118.409,81.571L118.478,81.143L118.546,80L118.615,82L118.683,83.286L118.751,84.143L118.82,86.429L118.888,85.714L118.957,86L119.025,85.857L119.094,88.286L119.162,89.714L119.231,90L119.299,90.429L119.367,90.571L119.436,88.857L119.504,88L119.573,86.714L119.641,87.143L119.71,88.286L119.778,91L119.847,90.429L119.915,90.143L119.983,90L120.052,91.857L120.12,92.429L120.189,94L120.257,94.143L120.326,94.857L120.394,95L120.463,94.286L120.531,93.571L120.599,95L120.668,95.143L120.736,95.143L120.805,94.857L120.873,93.714L120.945,94.857L121.013,95L121.081,94.571L121.15,93.286L121.218,93.571L121.287,94.571L121.355,94.429L121.424,94L121.492,95.286L121.561,95.714L121.629,97.286L121.697,97.143L121.766,97.714L121.834,96.857L121.903,97.714L121.971,99.143L122.04,100.286L122.108,100.714L122.177,101.714L122.245,103.286L122.313,103L122.382,102.429L122.45,102.714L122.519,103.143L122.587,105.286L122.656,105.714L122.724,106.286L122.793,105.857L122.861,105.429L122.93,105.714L122.998,105.571L123.066,106L123.135,107L123.203,107.143L123.272,106.286L123.34,104.429L123.409,103.857L123.477,104.571L123.546,104.857L123.614,105L123.682,105.286L123.751,104L123.819,103.143L123.888,104.143L123.956,103.714L124.025,100.714L124.093,99.429L124.162,98.429L124.23,96.714L124.298,94.571L124.367,95.143L124.435,95L124.504,94.429L124.572,95.143L124.641,93.571L124.709,92L124.778,91.571L124.846,92L124.914,92L124.983,92.714L125.051,93.286L125.12,93.286L125.188,94L125.257,96L125.325,96.571L125.394,99L125.462,99.857L125.53,100.286L125.599,101.143L125.667,101.143L125.736,101L125.804,101.714L125.873,102.857L125.941,102.429L126.01,103.429L126.078,105.143L126.146,105.286L126.215,104.571L126.283,103.429L126.352,104.857L126.42,105.857L126.489,106.857L126.557,107.857L126.626,106.857L126.694,106.857L126.762,106.857L126.831,108.429L126.899,106.429L126.968,106.429L127.036,103.714L127.105,100.714L127.173,98.857L127.242,96L127.31,93.857L127.379,92.714L127.447,91.571L127.515,92.714L127.584,90.714L127.652,89.286L127.721,88L127.789,86.286L127.858,84.857L127.926,84.429L127.995,84.429L128.063,82.286L128.131,80.857L128.2,79.714L128.268,79.571L128.337,81.571L128.405,80L128.474,79.143L128.542,74.714L128.611,72L128.679,70.857L128.747,69.286L128.816,68.714L128.884,68L128.953,70.429L129.021,70.857L129.09,70.714L129.158,72.286L129.227,72.571L129.295,72.857L129.363,74.429L129.432,75.286L129.5,74.571L129.569,71.714L129.637,72.429L129.706,71.286L129.774,71L129.843,72.286L129.911,73.429L129.979,72.143L130.045,70.714L130.114,69.857L130.182,70L130.25,70L130.319,70.714L130.387,68.714L130.456,66.143L130.524,64.286L130.593,68.571L130.661,70L130.73,70.429L130.798,72.571L130.866,72.571L130.935,71.714L131.003,69.286L131.072,67L131.14,67.286L131.209,66.286L131.277,66.857L131.346,67.857L131.414,67.286L131.482,65.286L131.551,66.286L131.619,67.143L131.688,66.571L131.756,67L131.825,68.286L131.893,65.571L131.962,63.857L132.03,63.571L132.098,64.429L132.167,65L132.235,65.714L132.304,65L132.372,62L132.441,61.714L132.509,62.857L132.578,62.571L132.646,58.857L132.714,58.286L132.783,57L132.851,54.143L132.92,52.857L132.988,50.857L133.057,52.143L133.125,53L133.194,55.857L133.262,57.286L133.33,56.857L133.399,54.429L133.467,53.714L133.536,53.571L133.604,52L133.673,52.286L133.741,53.429L133.81,50L133.878,47L133.946,46.857L134.015,47.714L134.083,46.286L134.152,45.143L134.22,46.143L134.289,44L134.357,42.571L134.426,43L134.494,43L134.563,42.571L134.631,44L134.699,46.714L134.768,44.857L134.836,44.286L134.905,45.143L134.973,45.143L135.042,45.429L135.11,44.571L135.179,45.714L135.247,42.429L135.315,39.571L135.384,38.286L135.452,38.714L135.521,39L135.589,40.143L135.658,41.714L135.726,41.571L135.795,39L135.863,40.714L135.931,42.143L136,43.571L136.068,43.143L136.137,45.143L136.205,42.857L136.274,38.857L136.342,37.571L136.411,38.286L136.479,38.429L136.547,38.714L136.616,40.143L136.684,37L136.753,32.571L136.821,30L136.89,28.286L136.958,28.429L137.027,30.714L137.095,33L137.163,30.571L137.232,26.857L137.3,27.429L137.369,28L137.437,29.571L137.506,31.143L137.574,30.571L137.643,29.143L137.711,26L137.779,23.571L137.848,24.714L137.916,26L137.985,26.857L138.053,28L138.122,26.286L138.19,25L138.259,26.714L138.327,29L138.396,31.286L138.464,32.714L138.532,34.571L138.601,33.143L138.669,31L138.738,30.714L138.806,33.286L138.875,36.571L138.943,41.286L139.012,43.429L139.08,41.429L139.148,39.143L139.217,40.571L139.285,41.143L139.354,41.571L139.422,43.143L139.491,43L139.559,41.571L139.628,41L139.696,42.429L139.764,44.857L139.833,47.857L139.901,49.143L139.97,49.571L140.038,48.714L140.107,46.714L140.175,47.714L140.244,48L140.312,48.429L140.38,50.857L140.449,51L140.517,49.429L140.586,48.714L140.654,47.857L140.723,49.143L140.791,52.429L140.86,53.571L140.928,55.571L140.996,52.143L141.065,49.429L141.133,50.143L141.202,51.286L141.27,53.143L141.339,57.143L141.407,58.714L141.476,55L141.544,53.857L141.612,54L141.681,54L141.749,54.286L141.818,55.143L141.886,54.286L141.955,53.714L142.023,53.286L142.092,52.857L142.16,53.857L142.228,54L142.297,55.857L142.365,58.143L142.434,55.857L142.502,54.571L142.571,55L142.639,53.143L142.708,53.429L142.776,55.571L142.845,55.714L142.913,53.714L142.981,52.714L143.05,53.714L143.118,56L143.187,55.571L143.255,56.571L143.324,55.857L143.392,53.143L143.461,52.571L143.529,56L143.597,57.429L143.666,57.714L143.734,58.143L143.803,58L143.871,57L143.94,56L144.008,57L144.077,57.857L144.145,59.571L144.213,60.857L144.282,64.143L144.35,61.714L144.419,59.857L144.487,61.429L144.556,64.571L144.624,65.714L144.693,69.143L144.761,73.143L144.829,72.571L144.898,72.286L144.966,74L145.035,75.286L145.103,76.857L145.172,76.857L145.24,79.143L145.309,78.571L145.377,79.143L145.445,81L145.514,82.714L145.582,84.714L145.651,86L145.719,87.857L145.788,89.143L145.856,89.714L145.925,91L145.993,91.857L146.061,91.571L146.13,92.857L146.198,93.571L146.267,93.857L146.338,91.857L146.407,94.714L146.475,96.429L146.543,96.571L146.612,96.571L146.68,98.143L146.749,96.857L146.817,94.857L146.886,94.714L146.954,93.714L147.023,95L147.091,95.143L147.159,96.286L147.228,96.429L147.296,95.714L147.365,97.143L147.433,97.286L147.502,98.429L147.57,98.429L147.639,97.714L147.707,96.857L147.775,96L147.844,96.286L147.912,96L147.981,95.429L148.049,96.571L148.118,96.286L148.186,95.143L148.255,94.143L148.323,93.286L148.392,93.857L148.46,93.571L148.528,94.143L148.597,95.286L148.665,93.857L148.734,93.714L148.802,94.714L148.871,96L148.939,96.429L149.008,98.429L149.076,99.143L149.144,99.286L149.213,99L149.281,97.571L149.35,97.857L149.418,97.429L149.487,99L149.555,98.429L149.624,96.286L149.692,94.857L149.76,94.857L149.829,93.857L149.897,94.286L149.966,95.857L150.034,97L150.103,98.429L150.171,99.571L150.24,100.286L150.308,100L150.376,101.429L150.445,102.143L150.513,102L150.582,102L150.65,100.286L150.719,101.429L150.787,100.286L150.856,99.857L150.924,99.857L150.992,99.857L151.061,98.857L151.129,97.429L151.198,96.429L151.266,95L151.335,96L151.403,97.286L151.472,98.143L151.54,97.429L151.608,97.857L151.677,97.571L151.745,97.571L151.814,98.857L151.882,101.429L151.951,101.714L152.019,101.143L152.088,98.857L152.156,97.429L152.225,96.714L152.293,96.286L152.361,97L152.43,96.143L152.498,96L152.567,95.714L152.635,93.286L152.704,94.857L152.772,94L152.841,95.143L152.909,95.571L152.977,95.143L153.046,93.143L153.114,91.857L153.183,91L153.251,90.857L153.32,92.286L153.388,92L153.457,88.571L153.525,86.429L153.593,85.286L153.662,84.571L153.73,85.429L153.799,85.429L153.867,84.429L153.936,83.286L154.004,82L154.073,81L154.141,82.286L154.209,81.571L154.278,81.857L154.346,81.714L154.415,81.429L154.483,80.143L154.552,78L154.62,78L154.689,78.571L154.757,77.429L154.825,78.286L154.894,75.714L154.96,76L155.028,75.714L155.096,77.143L155.165,78.714L155.233,80.429L155.302,81.857L155.37,79.429L155.439,78.571L155.507,79.571L155.576,81.429L155.644,80.857L155.712,81.714L155.781,81.429L155.849,80.857L155.918,80.286L155.986,78.429L156.055,77.571L156.123,77L156.192,77.286L156.26,78.714L156.328,77.143L156.397,76.143L156.465,75L156.534,74.429L156.602,75.429L156.671,76.143L156.739,77.143L156.808,76.571L156.876,75.286L156.944,76.429L157.013,73L157.081,72.714L157.15,73L157.218,74.143L157.287,71.857L157.355,68.571L157.424,69.571L157.492,69.714L157.56,70.286L157.629,69.857L157.697,70L157.766,65.429L157.834,63.571L157.903,63.143L157.971,62.857L158.04,63.143L158.108,63.857L158.176,65.143L158.245,63.143L158.313,59.286L158.382,59L158.45,57.714L158.519,57.429L158.587,59.143L158.656,59.286L158.724,54.857L158.792,52.857L158.861,52.286L158.929,52L158.998,51.143L159.066,53.714L159.135,53.714L159.203,48.857L159.272,45.429L159.34,45.143L159.409,45.286L159.477,44.571L159.545,45.429L159.614,46.143L159.682,45.286L159.751,44.286L159.819,44.571L159.888,44.143L159.956,45.571L160.025,45.857L160.093,46.571L160.161,44.143L160.23,41.429L160.298,40.429L160.367,41.571L160.435,41.429L160.504,43.857L160.572,45.571L160.641,45L160.709,42.714L160.777,43.857L160.846,42.571L160.914,42L160.983,41.571L161.051,42.714L161.12,39.571L161.188,39.429L161.257,42L161.325,40.286L161.393,40.857L161.462,42.857L161.53,44L161.599,41L161.667,37L161.736,35.429L161.804,34.714L161.873,35.429L161.941,37L162.009,37.714L162.078,35.429L162.146,34L162.215,35.143L162.283,35.571L162.352,32.714L162.42,34.286L162.489,35.714L162.557,33.286L162.625,30L162.694,26.714L162.762,28.714L162.831,31.143L162.899,33.571L162.968,34.857L163.036,32.857L163.105,29.857L163.173,31L163.242,29.857L163.31,30.286L163.378,34.429L163.447,35.857L163.515,33L163.584,31.714L163.652,32.571L163.721,34.857L163.789,35.571L163.858,38.286L163.926,39.286L163.994,37.429L164.063,35.143L164.131,37.571L164.2,39.143L164.268,39.714L164.337,41.286L164.405,46.429L164.474,45.286L164.542,42.571L164.61,42.571L164.679,44.429L164.747,47L164.816,47.429L164.884,47.571L164.953,48L165.021,47.429L165.09,48.429L165.158,50.714L165.226,50L165.295,51.571L165.363,53.429L165.432,52.286L165.5,51.571L165.569,53L165.637,54.571L165.706,56.286L165.774,57.571L165.842,59.571L165.911,57L165.979,56.286L166.048,56.286L166.116,57.857L166.185,57.143L166.253,58L166.322,59L166.39,58.571L166.458,57.143L166.527,58.286L166.595,59.286L166.664,62.143L166.732,63.857L166.801,64.857L166.869,64.857L166.938,64.143L167.006,63.571L167.074,64.286L167.143,65.857L167.211,67.429L167.28,70.714L167.348,71.429L167.417,70L167.485,68L167.554,68.857L167.622,70L167.691,70.714L167.759,70.714L167.827,68.714L167.896,66.429L167.964,68L168.033,69.714L168.101,69.429L168.17,71L168.238,72L168.307,71L168.375,70.143L168.443,69.714L168.512,70.429L168.58,70.286L168.649,72L168.717,71.857L168.786,70.714L168.854,70.286L168.923,70.429L168.991,69.857L169.059,71.429L169.128,72.714L169.196,73.857L169.265,71.714L169.333,71.857L169.402,71.857L169.47,73.286L169.539,76.571L169.607,77.143L169.675,78.571L169.744,77.143L169.812,77L169.881,80.571L169.949,82.571L170.018,82.286L170.086,83.286L170.155,87.143L170.223,84.571L170.291,84.429L170.36,85.429L170.428,88.143L170.497,89.714L170.565,90.857L170.634,91.286L170.702,91.143L170.771,90.429L170.839,91.429L170.907,90.714L170.976,91.571L171.044,94L171.113,93.857L171.181,92.429L171.253,92L171.321,92.429L171.389,91.857L171.458,91.714L171.526,92.143L171.595,92.571L171.663,91.857L171.732,90.429L171.8,92L171.869,92.429L171.937,92.286L172.005,92.143L172.074,94.714L172.142,93.429L172.211,93.286L172.279,95L172.348,94.714L172.416,95.286L172.485,95.143L172.553,95.571L172.621,96.286L172.69,95.429L172.758,95.286L172.827,96.143L172.895,95.571L172.964,98L173.032,98.714L173.101,96.857L173.169,95L173.238,94.571L173.306,93.429L173.374,94.857L173.443,94.429L173.511,94.429L173.58,93L173.648,92.857L173.717,92.714L173.785,92.429L173.854,90.714L173.922,91.571L173.99,91.143L174.059,91.286L174.127,90.143L174.196,89.571L174.264,89.714L174.333,88.571L174.401,89.571L174.47,89.571L174.538,87.571L174.606,86.286L174.675,84.857L174.743,85.143L174.812,85.857L174.88,85.714L174.949,85.286L175.017,83.143L175.086,81.286L175.154,81L175.222,81.857L175.291,83.143L175.359,84.714L175.428,84.429L175.496,84.286L175.565,82.857L175.633,83.714L175.702,81.286L175.77,80.857L175.838,82.714L175.907,85L175.975,82.286L176.044,80.714L176.112,79.143L176.181,79L176.249,78.571L176.318,77.857L176.386,79.714L176.454,78.143L176.523,76.857L176.591,77.286L176.66,76.714L176.728,76.286L176.797,77L176.865,77.429L176.934,76.571L177.002,77.143L177.07,77.857L177.139,77.286L177.207,77.286L177.276,77.286L177.344,77.571L177.413,77L177.481,77.571L177.55,77.571L177.618,78.286L177.687,77.857L177.755,80L177.823,79.286L177.892,77.429L177.96,75.857L178.029,77.286L178.097,77.857L178.166,78.714L178.234,79.429L178.303,81.714L178.371,80L178.439,76.857L178.508,77.714L178.576,76.714L178.645,75.857L178.713,77.714L178.782,78.429L178.85,77.571L178.919,75.429L178.987,74.571L179.055,75.714L179.124,75L179.192,77.286L179.261,78.714L179.329,76.857L179.398,74.143L179.466,73.857L179.535,70.857L179.603,70.429L179.671,69.857L179.74,71.143L179.808,71.143L179.874,70L179.942,67.714L180.011,66L180.079,64L180.148,61.714L180.216,61.143L180.285,57.571L180.353,54.857L180.422,55L180.49,55L180.558,53.714L180.627,54.714L180.695,55.429L180.764,51.429L180.832,49.571L180.901,48.143L180.969,48.857L181.038,47.714L181.106,46.714L181.174,45.714L181.243,42.857L181.311,39.714L181.38,39.429L181.448,40.571L181.517,39.429L181.585,40.857L181.654,41.429L181.722,39.143L181.79,35.429L181.859,32.143L181.927,32.571L181.996,35.143L182.064,37.286L182.133,40.571L182.201,40.143L182.27,37.143L182.338,39.286L182.406,40.857L182.475,41.571L182.543,43.714L182.612,45.143L182.68,43.286L182.749,40.714L182.817,41.429L182.886,43.143L182.954,44.714L183.022,44.714L183.091,47L183.159,45.714L183.228,46.571L183.296,46.429L183.365,46.571L183.433,46.286L183.502,48L183.57,49.714L183.638,48.286L183.707,47.429L183.775,49.143L183.844,51.857L183.912,54.286L183.981,57.143L184.049,57.429L184.118,55.857L184.186,54L184.255,56L184.323,58.571L184.391,59.429L184.46,60.143L184.528,60.286L184.597,57.429L184.665,54.857L184.734,54.286L184.802,55L184.871,55.571L184.939,56.571L185.007,56L185.076,52.286L185.144,51.429L185.213,49.714L185.281,47.857L185.35,47.857L185.418,50.571L185.487,53L185.555,50.714L185.623,50.286L185.692,49.429L185.76,47.143L185.829,47.857L185.897,48.571L185.966,48.571L186.034,43.857L186.103,41.286L186.171,40.143L186.239,39.429L186.308,38.857L186.376,41L186.445,40.714L186.513,37.857L186.582,35.429L186.65,34.286L186.719,34.714L186.787,36.143L186.855,37.857L186.924,39.143L186.992,36.429L187.061,35.429L187.129,36.857L187.198,37.143L187.266,38.429L187.335,39.429L187.403,40L187.471,34.286L187.54,30L187.608,29.143L187.677,28.571L187.745,30.429L187.814,32.857L187.882,34.143L187.951,31.143L188.019,30.429L188.087,31.857L188.156,31.286L188.224,32.143L188.293,34.714L188.361,34.857L188.43,31.714L188.498,28.857L188.567,28.714L188.635,31.286L188.704,33.857L188.772,34.714L188.84,35.143L188.909,32.429L188.977,30.857L189.046,30.714L189.114,32L189.183,33.143L189.251,33.143L189.32,34.286L189.388,34L189.456,31.143L189.525,34.571L189.593,36.714L189.662,37.857L189.73,38.429L189.799,40L189.867,38.857L189.936,34.714L190.004,33.714L190.072,32.286L190.141,32.143L190.209,34.286L190.278,35L190.346,32.143L190.415,30.714L190.483,29L190.552,28.714L190.62,30.857L190.688,30.429L190.757,31.143L190.825,30.143L190.894,28.857L190.962,29.429L191.031,29.714L191.099,31L191.168,32L191.236,32.429L191.304,32.571L191.373,31L191.441,29.857L191.51,32L191.578,34.286L191.647,36.714L191.715,38.286L191.784,34.143L191.852,31.143L191.92,31.571L191.989,33.857L192.057,35L192.126,37.714L192.194,39.714L192.263,38.857L192.331,37.143L192.4,38.571L192.468,40.429L192.537,43.143L192.605,47.429L192.673,47.571L192.742,47.857L192.81,47.286L192.879,47.714L192.947,49.143L193.016,50.571L193.084,53.286L193.153,54.286L193.221,53.143L193.289,52.857L193.358,50.857L193.426,51L193.495,53.571L193.563,56.286L193.632,58L193.7,56.429L193.769,54.571L193.837,58.714L193.905,60.857L193.974,62.571L194.042,65L194.111,68.286L194.179,66.714L194.248,66.714L194.316,68.286L194.385,71.143L194.453,72.286L194.521,73.571L194.59,75.571L194.658,74.714L194.727,73.429L194.795,71.571L194.864,72L194.932,72.571L195.001,73.571L195.069,74.857L195.137,73.714L195.206,72.286L195.274,72.286L195.343,74.714L195.411,77.857L195.48,79.429L195.548,80.143L195.617,78.857L195.685,76.857L195.753,79.143L195.822,80.857L195.89,81.857L195.959,83.286L196.027,84.571L196.096,83.571L196.167,83.286L196.235,83.714L196.304,84.714L196.372,85.857L196.441,86.571L196.509,86.714L196.578,85.143L196.646,84.286L196.715,83.571L196.783,84.429L196.851,87.286L196.92,88.857L196.988,90.143L197.057,89.143L197.125,88.571L197.194,88.429L197.262,90.429L197.331,91.143L197.399,90.857L197.467,91.143L197.536,92.286L197.604,92.286L197.673,91.857L197.741,91.571L197.81,89.143L197.878,89.571L197.947,89.714L198.015,89.286L198.084,86.857L198.152,86.429L198.22,86.143L198.289,87.286L198.357,88.286L198.426,86.857L198.494,84.571L198.563,84.286L198.631,84.571L198.7,83.429L198.768,84.143L198.836,85.429L198.905,85.429L198.973,84.714L199.042,85.286L199.11,86.571L199.179,87.429L199.247,88L199.316,88.286L199.384,88.571L199.452,88.143L199.521,87.429L199.589,86.143L199.658,85L199.726,86L199.795,86.857L199.863,89.714L199.932,87.143L200,84.714L200.068,84.714L200.137,83.714L200.205,84L200.274,84.571L200.342,85.143L200.411,82.143L200.479,82.286L200.548,83.429L200.616,82.714L200.684,82.286L200.753,82.714L200.821,82.571L200.89,79.571L200.958,79.143L201.027,79.857L201.095,78.857L201.164,77.143L201.232,78.143L201.3,78.286L201.369,77.143L201.437,75.571L201.506,75.429L201.574,74.571L201.643,72.143L201.711,74L201.78,74.143L201.848,72.143L201.916,70.143L201.985,71.286L202.053,72.714L202.122,72.143L202.19,75.143L202.259,74.714" stroke="#4c78a8" stroke-width="2"/></g><g class="mark-group role-title"><g transform="translate(100,-17)"><path class="background" aria-hidden="true" d="M0,0h0v0h0Z" pointer-events="none"/><g><g class="mark-text role-title-text" role="graphics-symbol" aria-roledescription="title" aria-label="Title text 'Rodent: Condition Attracting Rodents'" pointer-events="none"><text text-anchor="middle" transform="translate(0,10)" font-family="sans-serif" font-size="13px" font-weight="bold" fill="#000" opacity="1">Rodent: Condition Attracting Rodents</text></g></g><path class="foreground" aria-hidden="true" d="" pointer-events="none" display="none"/></g></g></g><path class="foreground" aria-hidden="true" d="" display="none"/></g></g></g><defs><clipPath id="clip136"><rect x="0" y="0" width="200" height="150"/></clipPath></defs></svg>