<svg xmlns="http://www.w3.org/2000/svg" xmlns:xlink="http://www.w3.org/1999/xlink" version="1.1" class="marks" width="230" height="194" viewBox="0 0 230 194"><rect width="230" height="194" fill="white"/><g fill="none" stroke-miterlimit="10" transform="translate(24,22)"><g class="mark-group role-frame root" role="graphics-object" aria-roledescription="group mark container"><g transform="translate(0,0)"><path class="background" aria-hidden="true" d="M0,0h200v150h-200Z"/><g><g class="mark-group role-axis" aria-hidden="true"><g transform="translate(0.5,0.5)"><path class="background" aria-hidden="true" d="M0,0h0v0h0Z" pointer-events="none"/><g><g class="mark-rule role-axis-grid" pointer-events="none"><line transform="translate(0,150)" x2="200" y2="0" stroke="#ddd" stroke-width="1" opacity="1"/><line transform="translate(0,107)" x2="200" y2="0" stroke="#ddd" stroke-width="1" opacity="1"/><line transform="translate(0,64)" x2="200" y2="0" stroke="#ddd" stroke-width="1" opacity="1"/><line transform="translate(0,21)" x2="200" y2="0" stroke="#ddd" stroke-width="1" opacity="1"/></g></g><path class="foreground" aria-hidden="true" d="" pointer-events="none" display="none"/></g></g><g class="mark-group role-axis" role="graphics-symbol" aria-roledescription="axis" aria-label="X-axis for a time scale with values from Friday, 01 January 2016, 12:00:00 AM to Monday, 01 January 2024, 12:00:00 AM"><g transform="translate(0.5,150.5)"><path class="background" aria-hidden="true" d="M0,0h0v0h0Z" pointer-events="none"/><g><g class="mark-rule role-axis-tick" pointer-events="none"><line transform="translate(0,0)" x2="0" y2="5" stroke="#888" stroke-width="1" opacity="1"/><line transform="translate(50,0)" x2="0" y2="5" stroke="#888" stroke-width="1" opacity="1"/><line transform="translate(100,0)" x2="0" y2="5" stroke="#888" stroke-width="1" opacity="1"/><line transform="translate(150,0)" x2="0" y2="5" stroke="#888" stroke-width="1" opacity="1"/><line transform="translate(200,0)" x2="0" y2="5" stroke="#888" stroke-width="1" opacity="1"/></g><g class="mark-text role-axis-label" pointer-events="none"><text text-anchor="start" transform="translate(0,15)" font-family="sans-serif" font-size="10px" fill="#000" opacity="1">2016</text><text text-anchor="middle" transform="translate(50.03422313483915,15)" font-family="sans-serif" font-size="10px" fill="#000" opacity="1">2018</text><text text-anchor="middle" transform="translate(100,15)" font-family="sans-serif" font-size="10px" fill="#000" opacity="1">2020</text><text text-anchor="middle" transform="translate(150.03422313483915,15)" font-family="sans-serif" font-size="10px" fill="#000" opacity="1">2022</text><text text-anchor="end" transform="translate(200,15)" font-family="sans-serif" font-size="10px" fill="#000" opacity="1">2024</text></g><g class="mark-rule role-axis-domain" pointer-events="none"><line transform="translate(0,0)" x2="200" y2="0" stroke="#888" stroke-width="1" opacity="1"/></g></g><path class="foreground" aria-hidden="true" d="" pointer-events="none" display="none"/></g></g><g class="mark-group role-axis" role="graphics-symbol" aria-roledescription="axis" aria-label="Y-axis for a linear scale with values from 0 to 35"><g transform="translate(0.5,0.5)"><path class="background" aria-hidden="true" d="M0,0h0v0h0Z" pointer-events="none"/><g><g class="mark-rule role-axis-tick" pointer-events="none"><line transform="translate(0,150)" x2="-5" y2="0" stroke="#888" stroke-opacity="0" stroke-width="1" opacity="1"/><line transform="translate(0,107)" x2="-5" y2="0" stroke="#888" stroke-opacity="0" stroke-width="1" opacity="1"/><line transform="translate(0,64)" x2="-5" y2="0" stroke="#888" stroke-opacity="0" stroke-width="1" opacity="1"/><line transform="translate(0,21)" x2="-5" y2="0" stroke="#888" stroke-opacity="0" stroke-width="1" opacity="1"/></g><g class="mark-text role-axis-label" pointer-events="none"><text text-anchor="end" transform="translate(-7,153)" font-family="sans-serif" font-size="10px" fill="#000" opacity="1">0</text><text text-anchor="end" transform="translate(-7,110.14285714285714)" font-family="sans-serif" font-size="10px" fill="#000" opacity="1">10</text><text text-anchor="end" transform="translate(-7,67.28571428571429)" font-family="sans-serif" font-size="10px" fill="#000" opacity="1">20</text><text text-anchor="end" transform="translate(-7,24.428571428571434)" font-family="sans-serif" font-size="10px" fill="#000" opacity="1">30</text></g></g><path class="foreground" aria-hidden="true" d="" pointer-events="none" display="none"/></g></g><g class="mark-line role-mark marks" clip-path="url(#clip137)" role="graphics-object" aria-roledescription="line mark container"><path aria-label="day: Jan 01, 2010; avg: 13.7666666667" role="graphics-symbol" aria-roledescription="line mark" d="M-149.966,91L-149.897,90.571L-149.829,90L-149.76,88.571L-149.692,87.714L-149.624,86.429L-149.555,86.143L-149.487,87.286L-149.418,88L-149.35,89L-149.281,89.143L-149.213,90.286L-149.144,90.714L-149.076,88.714L-149.008,89.286L-148.939,89.857L-148.871,89.857L-148.802,89.286L-148.734,89.857L-148.665,90.286L-148.597,92.429L-148.528,93L-148.46,94L-148.392,92.286L-148.323,92.286L-148.255,92.286L-148.186,93.571L-148.118,94.571L-148.049,94.286L-147.981,95L-147.912,97L-147.844,95.571L-147.775,95.286L-147.707,95.571L-147.639,97.286L-147.57,97.714L-147.502,97.143L-147.433,96.429L-147.365,94.571L-147.296,93L-147.228,91.571L-147.159,91L-147.091,92.286L-147.023,94.571L-146.954,95.143L-146.886,93.571L-146.817,91.571L-146.749,90.429L-146.68,88.143L-146.612,88.571L-146.543,88.143L-146.475,87.286L-146.407,86.857L-146.338,87.143L-146.27,84.857L-146.201,83.714L-146.133,83.143L-146.064,82.714L-145.996,81.857L-145.927,81.714L-145.859,79.857L-145.791,78.857L-145.722,77.429L-145.654,77.714L-145.585,76.571L-145.517,74.857L-145.448,74.571L-145.38,73.143L-145.311,73.143L-145.243,71.857L-145.175,72.857L-145.106,71.571L-145.038,67.714L-144.972,64.714L-144.904,61.143L-144.835,59.571L-144.767,60.143L-144.698,60.857L-144.63,63.429L-144.561,60.143L-144.493,58.429L-144.424,58.286L-144.356,56.857L-144.288,56.857L-144.219,58.429L-144.151,60L-144.082,59L-144.014,57.571L-143.945,57.714L-143.877,55.714L-143.808,55.714L-143.74,58.429L-143.672,60L-143.603,59.143L-143.535,59.286L-143.466,59.286L-143.398,59L-143.329,58.714L-143.261,59.429L-143.192,63.143L-143.124,63.286L-143.056,62.286L-142.987,64.571L-142.919,64.571L-142.85,67.429L-142.782,69.143L-142.713,70.571L-142.645,67.571L-142.576,66.857L-142.508,68.286L-142.44,69L-142.371,70L-142.303,71.143L-142.234,71.286L-142.166,71.286L-142.097,68.143L-142.029,67.429L-141.96,67.286L-141.892,66.429L-141.824,67.286L-141.755,68.429L-141.687,67.429L-141.618,66.286L-141.55,67.714L-141.481,66.571L-141.413,69L-141.344,70.429L-141.276,73.143L-141.208,72.714L-141.139,68.143L-141.071,67.286L-141.002,69L-140.934,68L-140.865,69.429L-140.797,69.571L-140.728,69.714L-140.66,67.143L-140.591,68.714L-140.523,68.714L-140.455,69L-140.386,69.857L-140.318,70.286L-140.249,70.429L-140.181,71.429L-140.112,71.286L-140.044,73.571L-139.975,75.857L-139.907,77L-139.839,79.143L-139.77,80.571L-139.702,80.571L-139.633,78.857L-139.565,76.571L-139.496,73L-139.428,75L-139.359,75.857L-139.291,76.143L-139.223,76.143L-139.154,79L-139.086,84.143L-139.017,84L-138.949,85.429L-138.88,87L-138.812,87.429L-138.743,87.286L-138.675,89.143L-138.607,92.286L-138.538,95L-138.47,95.286L-138.401,97.714L-138.333,98.857L-138.264,98.571L-138.196,100L-138.127,99.714L-138.059,100.286L-137.991,101.143L-137.922,100.857L-137.854,101L-137.785,99.857L-137.717,98L-137.648,97.714L-137.58,99.143L-137.511,103.286L-137.443,106.857L-137.375,105L-137.306,104.571L-137.238,104L-137.169,102.714L-137.101,101.714L-137.032,101.143L-136.964,101.429L-136.895,100.571L-136.827,101L-136.758,101.143L-136.69,100.286L-136.622,99.571L-136.553,98.857L-136.485,98.857L-136.416,97.429L-136.348,95.143L-136.279,93.571L-136.211,93.143L-136.142,92.143L-136.074,92L-136.006,92.714L-135.937,90.571L-135.869,86.857L-135.8,85.714L-135.732,86.286L-135.663,85.571L-135.595,85.571L-135.526,86.286L-135.458,85.429L-135.39,85.429L-135.321,86L-135.253,85.571L-135.184,85.571L-135.116,86.143L-135.047,84.429L-134.979,82.714L-134.91,81.143L-134.842,79.571L-134.774,75.571L-134.705,72.857L-134.637,72.286L-134.568,72L-134.5,71.143L-134.431,69.143L-134.363,65.857L-134.294,65.571L-134.226,65.143L-134.158,63.286L-134.089,62.714L-134.021,60.714L-133.952,56.714L-133.884,55L-133.815,55.714L-133.747,55.143L-133.678,54.429L-133.61,53.571L-133.542,52L-133.473,48.571L-133.405,46.429L-133.336,45.571L-133.268,45L-133.199,43.571L-133.131,43L-133.062,42.857L-132.994,41.429L-132.926,40.143L-132.857,40.571L-132.789,39.714L-132.72,40.286L-132.652,42.143L-132.583,41.429L-132.515,39.857L-132.446,38.714L-132.378,39.714L-132.309,44.286L-132.241,45.429L-132.173,46L-132.104,47.857L-132.036,45.714L-131.967,45.857L-131.899,46.143L-131.83,47.429L-131.762,50.143L-131.693,50.429L-131.625,47.857L-131.557,48.286L-131.488,48.143L-131.42,49.143L-131.351,50L-131.283,50.286L-131.214,51.714L-131.146,52.857L-131.077,50.429L-131.009,49.286L-130.941,50.429L-130.872,54L-130.804,56.143L-130.735,58.286L-130.667,61.429L-130.598,60.571L-130.53,61.429L-130.461,62.571L-130.393,63.286L-130.325,62.571L-130.256,60.857L-130.188,59L-130.119,58.143L-130.051,57.857L-129.982,59.714L-129.914,60.571L-129.845,62.571L-129.777,63.286L-129.709,62.429L-129.64,63.143L-129.572,65.714L-129.503,68.143L-129.435,69.857L-129.366,72.714L-129.298,74.571L-129.229,74.714L-129.161,73.714L-129.093,73.857L-129.024,75.857L-128.956,74.143L-128.887,75L-128.819,73.143L-128.75,72.286L-128.679,72.714L-128.611,72.571L-128.542,72.857L-128.474,73.429L-128.405,73.286L-128.337,75.143L-128.268,74.143L-128.2,74.857L-128.131,75.857L-128.063,76.571L-127.995,77L-127.926,78.429L-127.858,79.857L-127.789,79.571L-127.721,80.571L-127.652,80.857L-127.584,81.429L-127.515,82.714L-127.447,82.429L-127.379,83.429L-127.31,84.143L-127.242,84.286L-127.173,84.429L-127.105,85.143L-127.036,85.571L-126.968,87.857L-126.899,91.571L-126.831,90.714L-126.762,91L-126.694,90.143L-126.626,90.286L-126.557,89.857L-126.489,91.143L-126.42,92.286L-126.352,92L-126.283,91.286L-126.215,92.286L-126.146,92.429L-126.078,93.429L-126.01,93.571L-125.941,92.857L-125.873,91.714L-125.804,91L-125.736,91.286L-125.667,90.714L-125.599,90.857L-125.53,90.714L-125.462,90.429L-125.394,89.429L-125.325,88.714L-125.257,87L-125.188,87.429L-125.12,86.571L-125.051,87L-124.983,87.857L-124.914,85.857L-124.846,83.286L-124.778,85.143L-124.709,84.714L-124.641,85.571L-124.572,86.143L-124.504,87.286L-124.435,86.714L-124.367,86.714L-124.298,88.714L-124.23,88.714L-124.162,89L-124.093,89.714L-124.025,89.857L-123.956,89.429L-123.888,89.571L-123.819,90.143L-123.751,90L-123.682,89.857L-123.614,91L-123.546,90.714L-123.477,90.714L-123.409,90.143L-123.34,91.286L-123.272,91L-123.203,91.857L-123.135,90.857L-123.066,90.143L-122.998,90.714L-122.93,88.571L-122.861,87.571L-122.793,88.714L-122.724,87.429L-122.656,87.571L-122.587,89.286L-122.519,86.857L-122.45,83.571L-122.382,83.429L-122.313,82.714L-122.245,81.286L-122.177,81.286L-122.108,82L-122.04,81.714L-121.971,80.286L-121.903,80.143L-121.834,79.857L-121.766,79.143L-121.697,78.571L-121.629,79.857L-121.561,79.143L-121.492,78.857L-121.424,78.857L-121.355,78.429L-121.287,77.429L-121.218,76.571L-121.15,76.286L-121.081,76.714L-121.013,78.286L-120.945,76.286L-120.876,77.571L-120.808,79.143L-120.739,78.571L-120.671,79.571L-120.602,79.286L-120.534,76.714L-120.465,77L-120.397,77.429L-120.329,77.286L-120.26,76.857L-120.192,76.286L-120.123,76.714L-120.058,76L-119.989,75.571L-119.921,75.286L-119.852,74.857L-119.784,76.857L-119.715,78L-119.647,78.286L-119.578,76.714L-119.51,75.286L-119.442,75.714L-119.373,74.857L-119.305,75.429L-119.236,76.429L-119.168,75.429L-119.099,74.429L-119.031,71.429L-118.962,70.429L-118.894,70.857L-118.826,68.429L-118.757,67.429L-118.689,67L-118.62,65.143L-118.552,64L-118.483,63.857L-118.415,64.714L-118.346,64.429L-118.278,63.571L-118.21,61.429L-118.141,61L-118.073,59.286L-118.004,58.714L-117.936,57.571L-117.867,58.143L-117.799,58.571L-117.73,56.857L-117.662,55L-117.594,55.571L-117.525,55.714L-117.457,56.714L-117.388,55.286L-117.32,55L-117.251,54.571L-117.183,52L-117.114,52.857L-117.046,51L-116.978,51.857L-116.909,51.714L-116.841,52.143L-116.772,53.286L-116.704,53L-116.635,54.714L-116.567,55.714L-116.498,57L-116.43,56L-116.362,55L-116.293,56.714L-116.225,57.143L-116.156,59.714L-116.088,62L-116.019,64.429L-115.951,64.571L-115.882,65.714L-115.814,63.714L-115.745,63.714L-115.677,63.571L-115.609,63L-115.54,62.571L-115.472,62.714L-115.403,62.714L-115.335,65L-115.266,64.571L-115.198,64.714L-115.129,65.429L-115.061,65L-114.993,66.429L-114.924,68.857L-114.856,69.429L-114.787,68.286L-114.719,67.857L-114.65,69L-114.582,68.714L-114.513,69.857L-114.445,70.571L-114.377,73.143L-114.308,75.143L-114.24,76L-114.171,77.286L-114.103,76.429L-114.034,76.286L-113.966,75.857L-113.897,76.571L-113.829,78.429L-113.761,81L-113.692,81.143L-113.624,82.143L-113.555,84.143L-113.487,86.286L-113.418,86.714L-113.35,86.857L-113.281,86.143L-113.213,87.714L-113.145,89.429L-113.076,91.429L-113.008,93.143L-112.939,95L-112.871,94.143L-112.802,93.714L-112.734,94.286L-112.665,96L-112.597,96.571L-112.529,97.571L-112.46,96.857L-112.392,96.714L-112.323,96L-112.255,94.714L-112.186,94.143L-112.118,94L-112.049,96L-111.981,96.143L-111.913,95.143L-111.844,95.571L-111.776,93.857L-111.707,93.429L-111.639,94.571L-111.57,96.143L-111.502,97.143L-111.433,94.714L-111.365,94.143L-111.296,94.286L-111.228,93.429L-111.16,94.286L-111.091,93.857L-111.023,92.857L-110.954,90.143L-110.886,88L-110.817,88.571L-110.749,89.857L-110.68,92.429L-110.612,93.714L-110.544,94L-110.475,90.714L-110.407,90L-110.338,88.286L-110.27,87L-110.201,88L-110.133,88.714L-110.064,87.286L-109.996,87L-109.928,86L-109.859,86.429L-109.791,86.571L-109.722,86.714L-109.654,86.857L-109.585,86.571L-109.517,82.429L-109.448,80.429L-109.38,81L-109.312,81.571L-109.243,80.857L-109.175,81.286L-109.106,78.714L-109.038,77L-108.969,75.286L-108.901,78.286L-108.832,80.429L-108.764,80L-108.696,79.429L-108.627,75.714L-108.559,72.714L-108.49,71L-108.422,72L-108.353,71L-108.285,72.571L-108.216,73.143L-108.148,71.714L-108.08,70.571L-108.011,71.571L-107.943,68.429L-107.874,67L-107.806,66.714L-107.737,65.143L-107.669,65.143L-107.6,64.143L-107.532,64.429L-107.463,66.143L-107.395,67.429L-107.327,68.429L-107.258,68.714L-107.19,68.143L-107.121,66.714L-107.053,67.571L-106.984,67.571L-106.916,69.571L-106.847,68.143L-106.779,67.714L-106.711,66.714L-106.642,65.429L-106.574,65.857L-106.505,67L-106.437,67.286L-106.368,69.571L-106.3,72.571L-106.231,71.714L-106.163,71.286L-106.095,72.286L-106.026,73.143L-105.958,71.714L-105.889,72.714L-105.821,73.571L-105.752,72.714L-105.684,72.143L-105.615,71.143L-105.547,72.143L-105.479,71.714L-105.41,71.714L-105.342,72.286L-105.273,71.286L-105.205,71.143L-105.136,72L-105.068,74L-104.999,73.571L-104.931,74.857L-104.863,75.143L-104.794,75.143L-104.726,74.571L-104.657,75.429L-104.589,77.286L-104.52,78.571L-104.452,78.429L-104.383,79.286L-104.315,78.429L-104.247,76.286L-104.178,76.571L-104.11,77.714L-104.041,77.286L-103.973,76.714L-103.904,79.857L-103.836,79.143L-103.765,78.857L-103.696,80.857L-103.628,82.714L-103.559,83.143L-103.491,84L-103.422,83.571L-103.354,82.571L-103.285,81.714L-103.217,81.857L-103.149,81.143L-103.08,80.571L-103.012,80.286L-102.943,81.714L-102.875,80.429L-102.806,79.429L-102.738,80.429L-102.669,80.429L-102.601,80L-102.533,80.714L-102.464,81.857L-102.396,82.571L-102.327,81.714L-102.259,80.429L-102.19,82.429L-102.122,83.429L-102.053,84L-101.985,84.429L-101.916,84.857L-101.848,82.857L-101.78,84.429L-101.711,85.714L-101.643,85.143L-101.574,85.286L-101.506,86.143L-101.437,85.286L-101.369,84.143L-101.3,85.429L-101.232,84.857L-101.164,85.571L-101.095,86.857L-101.027,88.571L-100.958,89.571L-100.89,90.143L-100.821,91.143L-100.753,91.429L-100.684,91.143L-100.616,91.571L-100.548,92.571L-100.479,89.714L-100.411,88.857L-100.342,87.286L-100.274,87.429L-100.205,88.571L-100.137,87.143L-100.068,87.429L-100,86.429L-99.932,85L-99.863,84L-99.795,83.857L-99.726,82.429L-99.658,81.714L-99.589,81.429L-99.521,80.429L-99.452,79.286L-99.384,80.429L-99.316,80.429L-99.247,80.429L-99.179,81.143L-99.11,81.429L-99.042,81.857L-98.973,79.286L-98.905,77.429L-98.836,76.143L-98.768,75.286L-98.7,74.714L-98.631,74.286L-98.563,73.714L-98.494,72.571L-98.426,73.143L-98.357,71.714L-98.289,73.714L-98.22,74.857L-98.152,74.857L-98.084,75L-98.015,73.714L-97.947,73.714L-97.878,73.571L-97.81,74.143L-97.741,75.286L-97.673,75.857L-97.604,75.286L-97.536,74.714L-97.467,75.143L-97.399,75L-97.331,73.286L-97.262,75.429L-97.194,74.571L-97.125,72.571L-97.057,70.857L-96.988,66.714L-96.92,66.429L-96.851,66.571L-96.783,67.286L-96.715,65.571L-96.646,65.714L-96.578,65L-96.509,63.143L-96.441,62.714L-96.372,61.286L-96.304,59.143L-96.235,57.857L-96.167,57.286L-96.099,56.286L-96.03,56.143L-95.962,55.429L-95.893,54.857L-95.825,56.571L-95.756,55.571L-95.688,53.571L-95.619,52.429L-95.551,52.429L-95.483,52.286L-95.414,51.857L-95.346,50.143L-95.277,50.571L-95.209,49.429L-95.143,49.714L-95.075,49.286L-95.006,47.857L-94.938,51L-94.869,51.857L-94.801,52.286L-94.732,49.429L-94.664,50.571L-94.596,50.714L-94.527,49.143L-94.459,50.714L-94.39,49.714L-94.322,51.571L-94.253,55L-94.185,54.143L-94.116,53.571L-94.048,52.143L-93.98,50.714L-93.911,50.714L-93.843,51L-93.774,50.429L-93.706,48.857L-93.637,48.714L-93.569,50.429L-93.5,49.714L-93.432,49.429L-93.364,48.571L-93.295,50L-93.227,48.714L-93.158,48.429L-93.09,47L-93.021,49.143L-92.953,48.857L-92.884,48.857L-92.816,49L-92.748,49.714L-92.679,49.143L-92.611,47.143L-92.542,43.429L-92.474,43.429L-92.405,42L-92.337,44.714L-92.268,44.286L-92.2,43.286L-92.132,44.286L-92.063,42L-91.995,45L-91.926,46.143L-91.858,46.857L-91.789,47.714L-91.721,48.429L-91.652,48.429L-91.584,48.571L-91.516,48.571L-91.447,49.286L-91.379,50.429L-91.31,50.571L-91.242,50.286L-91.173,50.429L-91.105,50.857L-91.036,53.143L-90.968,52.571L-90.899,54L-90.831,53L-90.763,51L-90.694,49.286L-90.626,51.571L-90.557,54.286L-90.489,58.429L-90.42,58.429L-90.352,59.714L-90.283,59.857L-90.215,61.857L-90.147,63.714L-90.078,65.286L-90.01,68L-89.941,66.143L-89.873,66.143L-89.804,65.857L-89.736,65L-89.667,65.143L-89.599,68.143L-89.531,70.714L-89.462,71L-89.394,72L-89.325,73.857L-89.257,76.286L-89.188,78.143L-89.12,80.571L-89.051,82.571L-88.983,82.571L-88.915,84.429L-88.846,84.714L-88.778,85L-88.709,88.286L-88.641,90.571L-88.572,92.429L-88.504,93.286L-88.435,94.286L-88.367,97.143L-88.299,97.143L-88.23,96.143L-88.162,94.429L-88.093,93.286L-88.025,92.571L-87.956,93.571L-87.888,94.571L-87.819,95.571L-87.751,97.429L-87.683,99.857L-87.614,100.143L-87.546,100.286L-87.477,98.571L-87.409,98.857L-87.34,98.714L-87.272,97.429L-87.203,97.571L-87.135,99L-87.067,96.857L-86.998,95.143L-86.93,94.714L-86.861,95.286L-86.793,96.429L-86.724,98.571L-86.656,98.286L-86.587,97.286L-86.519,95.429L-86.45,94.571L-86.382,93.857L-86.314,94.286L-86.245,94.857L-86.177,94.143L-86.108,93.571L-86.04,93.429L-85.971,92.143L-85.903,90.429L-85.834,89.429L-85.766,90L-85.698,87L-85.629,85L-85.561,84.571L-85.492,82.286L-85.424,80.286L-85.355,79.571L-85.287,79.857L-85.218,80.571L-85.15,80.571L-85.082,78L-85.013,78.571L-84.945,78.286L-84.876,78.429L-84.808,77.571L-84.739,77.571L-84.671,72.714L-84.602,69.857L-84.534,67.571L-84.466,67.857L-84.397,66.857L-84.329,65.714L-84.26,63.143L-84.192,61.429L-84.123,62.429L-84.055,62.286L-83.986,59.571L-83.918,59.143L-83.85,58.143L-83.781,57.857L-83.713,54.143L-83.644,55.571L-83.576,54L-83.507,52.857L-83.439,53.571L-83.37,54.857L-83.302,54.143L-83.234,51L-83.165,49.143L-83.097,46.143L-83.028,46.286L-82.96,45.714L-82.891,45.714L-82.823,43.714L-82.754,41L-82.686,38.571L-82.617,40.857L-82.549,44L-82.481,45.286L-82.412,45.286L-82.344,46.286L-82.275,46.286L-82.207,47.429L-82.138,47L-82.07,45.714L-82.001,47L-81.933,49.286L-81.865,49.429L-81.796,48.857L-81.728,48.429L-81.659,50L-81.591,49.857L-81.522,50.571L-81.454,50.429L-81.385,52.286L-81.317,55L-81.249,57.857L-81.18,62.286L-81.112,64.286L-81.043,67.429L-80.975,69.571L-80.906,70L-80.838,70.429L-80.769,73.429L-80.701,75.286L-80.633,77.429L-80.564,78.571L-80.496,77.714L-80.427,79L-80.359,79.714L-80.29,80.429L-80.222,81L-80.153,82L-80.085,83.286L-80.017,83L-79.948,82.143L-79.88,82.143L-79.811,81.857L-79.743,83.714L-79.674,85.571L-79.606,86.429L-79.537,84.714L-79.469,85L-79.401,86L-79.332,85.143L-79.264,83.429L-79.195,81.143L-79.127,78.571L-79.058,77.429L-78.99,76L-78.921,74.286L-78.85,75L-78.782,73.286L-78.713,71.429L-78.645,70.857L-78.576,70.714L-78.508,70.571L-78.439,69.857L-78.371,69.714L-78.303,68.429L-78.234,68.429L-78.166,67.857L-78.097,67L-78.029,68.857L-77.96,71.143L-77.892,73L-77.823,73L-77.755,74L-77.687,74.571L-77.618,74.714L-77.55,75.143L-77.481,77.714L-77.413,78.857L-77.344,78.429L-77.276,79.429L-77.207,80.429L-77.139,81.571L-77.07,83.286L-77.002,83.571L-76.934,83L-76.865,84L-76.797,83.714L-76.728,85.429L-76.66,86.286L-76.591,85.429L-76.523,84.143L-76.454,84.571L-76.386,83.429L-76.318,82.286L-76.249,82.714L-76.181,80.857L-76.112,81.857L-76.044,81.429L-75.975,80.286L-75.907,79.571L-75.838,79.143L-75.77,79.429L-75.702,79L-75.633,79.714L-75.565,77.714L-75.496,77.143L-75.428,76.143L-75.359,75.714L-75.291,76.286L-75.222,75.143L-75.154,74.571L-75.086,73.571L-75.017,72.143L-74.949,70.714L-74.88,72L-74.812,72.143L-74.743,71.143L-74.675,70.714L-74.606,70.857L-74.538,73L-74.47,72.143L-74.401,70.286L-74.333,72.143L-74.264,73.714L-74.196,74.571L-74.127,75.571L-74.059,75L-73.99,75.143L-73.922,74.286L-73.854,72.286L-73.785,71.714L-73.717,72.143L-73.648,73.143L-73.58,70.571L-73.511,71.571L-73.443,72.429L-73.374,72L-73.306,72.857L-73.238,72.286L-73.169,72.429L-73.101,71.143L-73.032,71.571L-72.964,70.714L-72.895,70.143L-72.827,69.286L-72.758,69.286L-72.69,69.429L-72.621,68.571L-72.553,68.429L-72.485,67.714L-72.416,70L-72.348,71.714L-72.279,70L-72.211,68.714L-72.142,68.286L-72.074,67.857L-72.005,67L-71.937,66.429L-71.869,67.286L-71.8,67.714L-71.732,67.571L-71.663,66.571L-71.595,65.714L-71.526,65.857L-71.458,65.571L-71.389,64L-71.321,64.429L-71.253,63L-71.184,61.429L-71.116,61.286L-71.047,59.857L-70.979,57.429L-70.91,58.714L-70.842,60.143L-70.773,58.143L-70.705,54.429L-70.637,55L-70.568,56.429L-70.5,55L-70.431,54L-70.363,52.429L-70.294,52L-70.229,53.571L-70.16,53.286L-70.092,51.857L-70.023,52L-69.955,53.857L-69.886,54.714L-69.818,54.429L-69.75,55L-69.681,53L-69.613,51.857L-69.544,51.714L-69.476,53L-69.407,53.571L-69.339,54.571L-69.27,55.286L-69.202,55.714L-69.134,56.714L-69.065,56L-68.997,56.857L-68.928,56.571L-68.86,55.857L-68.791,54.714L-68.723,55.143L-68.654,55.714L-68.586,55.286L-68.518,54.286L-68.449,53.857L-68.381,54L-68.312,53.143L-68.244,53.714L-68.175,53.714L-68.107,54.286L-68.038,55L-67.97,52.429L-67.902,51.857L-67.833,49.857L-67.765,49.286L-67.696,48L-67.628,45.429L-67.559,46.571L-67.491,46.571L-67.422,44.714L-67.354,43.571L-67.286,43L-67.217,42.143L-67.149,41.571L-67.08,42.143L-67.012,42.571L-66.943,43.857L-66.875,45.429L-66.806,45.429L-66.738,46.286L-66.67,48.571L-66.601,50.857L-66.533,51L-66.464,51.714L-66.396,51.143L-66.327,50.429L-66.259,51.571L-66.19,51L-66.122,50.857L-66.054,50L-65.985,50.571L-65.917,52.857L-65.848,51.286L-65.78,53.286L-65.711,54.286L-65.643,55.429L-65.574,59.143L-65.506,60.143L-65.437,61.857L-65.369,61.143L-65.301,61.143L-65.232,58.857L-65.164,59.143L-65.095,60.143L-65.027,60.571L-64.958,59.714L-64.89,60.286L-64.821,62.571L-64.753,63.286L-64.685,64L-64.616,63.429L-64.548,62.143L-64.479,63.143L-64.411,62.714L-64.342,64.857L-64.274,67.571L-64.205,69.286L-64.137,70.571L-64.069,71.857L-64,73.286L-63.932,73.571L-63.863,75.286L-63.795,77.429L-63.726,77L-63.658,76.857L-63.589,78.714L-63.521,80L-63.453,80.571L-63.384,80.429L-63.316,84L-63.247,86.857L-63.179,90.714L-63.11,91.571L-63.042,91.429L-62.973,91.286L-62.905,92L-62.837,89.571L-62.768,87.714L-62.7,88.286L-62.631,86.857L-62.563,85.571L-62.494,86.143L-62.426,85.286L-62.357,84.429L-62.289,84.714L-62.221,83.286L-62.152,81.571L-62.084,78.143L-62.015,76.571L-61.947,76.429L-61.878,76.571L-61.81,75.571L-61.741,76.286L-61.673,76.571L-61.604,77.143L-61.536,75.143L-61.468,73.571L-61.399,69.571L-61.331,66.857L-61.262,65.714L-61.194,62.857L-61.125,61L-61.057,60L-60.988,59.714L-60.92,59.571L-60.852,59.286L-60.783,61L-60.715,60.429L-60.646,60L-60.578,61.143L-60.509,62.714L-60.441,63.714L-60.372,65.714L-60.304,67.429L-60.236,68.571L-60.167,68.429L-60.099,68.286L-60.03,69.714L-59.962,70.143L-59.893,68.143L-59.825,68.286L-59.756,65.714L-59.688,63.429L-59.62,65L-59.551,65.286L-59.483,66.286L-59.414,65.571L-59.346,67.429L-59.277,67.286L-59.209,66.571L-59.14,65.286L-59.072,66L-59.004,64.143L-58.935,64.429L-58.867,63.857L-58.798,63.714L-58.73,61.286L-58.661,60.571L-58.593,59.143L-58.524,57L-58.456,56.143L-58.388,55.429L-58.319,53.143L-58.251,50.714L-58.182,47.857L-58.114,47.286L-58.045,48.429L-57.977,49.286L-57.908,50L-57.84,52.286L-57.772,50.143L-57.703,50.714L-57.635,50.429L-57.566,49.429L-57.498,48.143L-57.429,48L-57.361,47.143L-57.292,46.286L-57.224,44.286L-57.155,42.286L-57.087,43.714L-57.019,42.571L-56.95,44.571L-56.882,43L-56.813,42.286L-56.745,41.857L-56.676,43.286L-56.608,44.857L-56.539,46.571L-56.471,47.714L-56.403,46.714L-56.334,46L-56.266,45.143L-56.197,47.286L-56.129,48.714L-56.06,49.714L-55.992,49.571L-55.923,49.429L-55.855,48.429L-55.787,47.714L-55.718,49.429L-55.65,51.429L-55.581,53.286L-55.513,53L-55.444,52.714L-55.376,53.429L-55.307,55.857L-55.239,58.571L-55.171,61.857L-55.102,64.429L-55.034,66.143L-54.965,68L-54.897,68L-54.828,67.714L-54.76,67.714L-54.691,68.143L-54.623,70.429L-54.555,70.143L-54.486,69L-54.418,69.429L-54.349,71.857L-54.281,73.714L-54.212,75L-54.144,75.857L-54.075,76L-54.007,75.714L-53.936,74.857L-53.867,74.143L-53.799,74.286L-53.73,75.286L-53.662,75.714L-53.593,76L-53.525,76L-53.457,76.143L-53.388,77.143L-53.32,76L-53.251,75.286L-53.183,75.429L-53.114,76.429L-53.046,76L-52.977,75.714L-52.909,75.429L-52.841,76.143L-52.772,78.286L-52.704,79.429L-52.635,80.286L-52.567,80L-52.498,81L-52.43,82.286L-52.361,81.571L-52.293,80.571L-52.225,80.286L-52.156,81.429L-52.088,79.714L-52.019,78.857L-51.951,80.143L-51.882,80.571L-51.814,81.571L-51.745,83.286L-51.677,82.286L-51.608,82.714L-51.54,82.714L-51.472,82.714L-51.403,82.286L-51.335,82.714L-51.266,83.857L-51.198,84.429L-51.129,83.429L-51.061,83.429L-50.992,84.143L-50.924,83.143L-50.856,81.571L-50.787,80.714L-50.719,80.143L-50.65,80.143L-50.582,79.714L-50.513,79.714L-50.445,79.143L-50.376,78.286L-50.308,79.286L-50.24,80L-50.171,79.714L-50.103,77.857L-50.034,77.429L-49.966,78.143L-49.897,76.429L-49.829,77.143L-49.76,77.286L-49.692,77.286L-49.624,77.429L-49.555,78L-49.487,77.143L-49.418,76.429L-49.35,77.429L-49.281,77L-49.213,75.714L-49.144,76.429L-49.076,76.714L-49.008,76.429L-48.939,76.286L-48.871,77.571L-48.802,79.571L-48.734,80.571L-48.665,81.429L-48.597,81.857L-48.528,82.429L-48.46,82.286L-48.392,80.429L-48.323,80L-48.255,80.286L-48.186,77.286L-48.118,76.857L-48.049,77.429L-47.981,78.286L-47.912,76.571L-47.844,77.714L-47.775,77.143L-47.707,76.857L-47.639,75.286L-47.57,75.857L-47.502,74.143L-47.433,74.429L-47.365,75.429L-47.296,74.714L-47.228,74.429L-47.159,74.857L-47.091,74.714L-47.023,74.143L-46.954,73.286L-46.886,72.857L-46.817,72.571L-46.749,70.429L-46.68,70.571L-46.612,69.714L-46.543,69.286L-46.475,68.429L-46.407,66.714L-46.338,66.857L-46.27,67L-46.201,66.714L-46.133,68.286L-46.064,69L-45.996,71L-45.927,71.714L-45.859,73.714L-45.791,73.286L-45.722,72.143L-45.654,69.714L-45.585,69L-45.517,68.286L-45.448,66.286L-45.38,66.714L-45.314,64.857L-45.246,64.286L-45.177,62.714L-45.109,61.857L-45.04,60.286L-44.972,60.714L-44.904,59L-44.835,59.857L-44.767,58L-44.698,58.857L-44.63,56.571L-44.561,56L-44.493,55.429L-44.424,53.571L-44.356,53.714L-44.288,54.857L-44.219,52.714L-44.151,51.571L-44.082,52.143L-44.014,50L-43.945,46.429L-43.877,45.714L-43.808,46.429L-43.74,44L-43.672,45.143L-43.603,46.571L-43.535,47.286L-43.466,47L-43.398,47.857L-43.329,46.143L-43.261,47.429L-43.192,48.857L-43.124,50.143L-43.056,49.714L-42.987,49.571L-42.919,48.143L-42.85,49.429L-42.782,49L-42.713,49.714L-42.645,49L-42.576,48.286L-42.508,45.857L-42.44,44.286L-42.371,45.857L-42.303,45.286L-42.234,45.571L-42.166,47.429L-42.097,46.714L-42.029,45.857L-41.96,46L-41.892,46.571L-41.824,46.571L-41.755,43.857L-41.687,44.571L-41.618,42.857L-41.55,42.857L-41.481,42.714L-41.413,40.714L-41.344,41.286L-41.276,41.429L-41.208,40.571L-41.139,38.429L-41.071,37.571L-41.002,38.143L-40.934,38.143L-40.865,38.429L-40.797,39.714L-40.728,37.571L-40.66,37.286L-40.591,37.857L-40.523,39.286L-40.455,42.571L-40.386,43.714L-40.318,43L-40.249,43.857L-40.181,42.429L-40.112,42L-40.044,41.714L-39.975,43.143L-39.907,44.714L-39.839,45.714L-39.77,46.571L-39.702,48.429L-39.633,48.714L-39.565,50.571L-39.496,51.286L-39.428,51.857L-39.359,55.143L-39.291,55.429L-39.223,56L-39.154,57.143L-39.086,58.857L-39.017,60.714L-38.949,62.571L-38.88,62.429L-38.812,63.286L-38.743,62.143L-38.675,64.429L-38.607,65.857L-38.538,66.286L-38.47,66.571L-38.401,66L-38.333,66L-38.264,66.857L-38.196,66.429L-38.127,66.857L-38.059,69.286L-37.991,71.143L-37.922,71L-37.854,71L-37.785,71.571L-37.717,70.571L-37.648,69.571L-37.58,67.857L-37.511,67.571L-37.443,68.143L-37.375,67.286L-37.306,64.714L-37.238,66L-37.169,65.286L-37.101,63.286L-37.032,61.857L-36.964,59.429L-36.895,57.857L-36.827,59.429L-36.758,59.714L-36.69,59.714L-36.622,58.857L-36.553,57.429L-36.485,54.429L-36.416,53.857L-36.348,54.857L-36.279,54.429L-36.211,52.143L-36.142,53L-36.074,52.857L-36.006,51.571L-35.937,51.143L-35.869,50.714L-35.8,50.714L-35.732,50.143L-35.663,50.714L-35.595,50.857L-35.526,53.714L-35.458,54.286L-35.39,54.857L-35.321,56.286L-35.253,58.429L-35.184,57.429L-35.116,58.714L-35.047,60.857L-34.979,62.286L-34.91,63.571L-34.842,61.714L-34.774,58.714L-34.705,57.571L-34.637,56.143L-34.568,54.429L-34.5,54.857L-34.431,57.143L-34.363,57.857L-34.294,56.429L-34.226,55.857L-34.158,55.429L-34.089,54.714L-34.021,55.714L-33.952,55L-33.884,53.857L-33.815,53.571L-33.747,53L-33.678,52.857L-33.61,50.857L-33.542,51.143L-33.473,49.857L-33.405,48.143L-33.336,45.714L-33.268,43.714L-33.199,41.143L-33.131,41.286L-33.062,41.714L-32.994,40.286L-32.926,39L-32.857,38L-32.789,38.857L-32.72,41L-32.652,41.429L-32.583,43L-32.515,44.857L-32.446,45L-32.378,44.714L-32.309,44.714L-32.241,45.714L-32.173,47.429L-32.104,50.571L-32.036,50.714L-31.967,49.286L-31.899,49.429L-31.83,51.429L-31.762,52L-31.693,51.286L-31.625,51.143L-31.557,52.571L-31.488,52L-31.42,52L-31.351,52.429L-31.283,53.429L-31.214,53.714L-31.146,55.571L-31.077,55.857L-31.009,55L-30.941,54.714L-30.872,54.857L-30.804,56.714L-30.735,58.429L-30.667,57.143L-30.598,57.714L-30.53,56L-30.461,55L-30.393,56.143L-30.325,57.571L-30.256,57.714L-30.188,57.714L-30.119,57.429L-30.051,57.857L-29.982,57L-29.914,58.429L-29.845,59.714L-29.777,60L-29.709,59.857L-29.64,62L-29.572,62.857L-29.503,63.857L-29.435,65.143L-29.366,67.429L-29.298,68.857L-29.229,69L-29.161,70.571L-29.093,70.429L-29.021,70L-28.953,70.571L-28.884,71.143L-28.816,73.286L-28.747,73L-28.679,73.571L-28.611,76.143L-28.542,78L-28.474,81.429L-28.405,82.286L-28.337,82L-28.268,80.143L-28.2,80.571L-28.131,79.286L-28.063,79.857L-27.995,79.857L-27.926,81.143L-27.858,81.286L-27.789,80.286L-27.721,79.429L-27.652,78.571L-27.584,79.286L-27.515,80L-27.447,80.286L-27.379,80.143L-27.31,78.571L-27.242,77.571L-27.173,77.571L-27.105,76.857L-27.036,76.857L-26.968,77.857L-26.899,77.714L-26.831,77.286L-26.762,76.571L-26.694,75.714L-26.626,76.286L-26.557,75.571L-26.489,74.429L-26.42,74.286L-26.352,75L-26.283,73.429L-26.215,76.286L-26.146,76.714L-26.078,77.286L-26.01,76.857L-25.941,76.286L-25.873,76.286L-25.804,76.857L-25.736,76.857L-25.667,76.714L-25.599,77.286L-25.53,75.143L-25.462,74.714L-25.394,74.429L-25.325,73.571L-25.257,75.286L-25.188,76.857L-25.12,76.429L-25.051,77L-24.983,77.286L-24.914,76.286L-24.846,76.571L-24.778,78.286L-24.709,78L-24.641,80L-24.572,79.571L-24.504,79.571L-24.435,79.429L-24.367,78L-24.298,76.714L-24.23,77.571L-24.162,75.571L-24.093,75.857L-24.025,76.714L-23.956,76.714L-23.888,78.429L-23.819,79L-23.751,79L-23.682,80.429L-23.614,81.714L-23.546,81.429L-23.477,82L-23.409,81.571L-23.34,81.571L-23.272,83L-23.203,81.571L-23.135,80.286L-23.066,80.286L-22.998,79L-22.93,78.857L-22.861,79.286L-22.793,79.714L-22.724,79.571L-22.656,78.571L-22.587,77.714L-22.519,75.429L-22.45,75.429L-22.382,75.429L-22.313,75.571L-22.245,75.714L-22.177,75.429L-22.108,75L-22.04,72.571L-21.971,71.714L-21.903,72.286L-21.834,71.571L-21.766,69.857L-21.697,69.571L-21.629,68.571L-21.561,67.429L-21.492,67.286L-21.424,67L-21.355,65.571L-21.287,63.714L-21.218,62.714L-21.15,62.286L-21.081,62.571L-21.013,62.571L-20.945,63L-20.876,63.143L-20.808,62L-20.739,60.714L-20.671,59.143L-20.602,58L-20.534,55.857L-20.465,54.714L-20.4,54.714L-20.331,51.857L-20.263,51.857L-20.195,52.857L-20.126,53.571L-20.058,53.429L-19.989,52.857L-19.921,51.429L-19.852,49.571L-19.784,47.571L-19.715,47.857L-19.647,45.857L-19.578,44L-19.51,43.714L-19.442,44.429L-19.373,43.857L-19.305,44.714L-19.236,44.857L-19.168,44.571L-19.099,43.714L-19.031,41.857L-18.962,41.571L-18.894,41.286L-18.826,39.286L-18.757,39.286L-18.689,38.286L-18.62,38.429L-18.552,37.714L-18.483,38.714L-18.415,38.714L-18.346,36.429L-18.278,37.714L-18.21,37.429L-18.141,36.286L-18.073,34.571L-18.004,34.571L-17.936,35.429L-17.867,34.857L-17.799,35L-17.73,35.286L-17.662,35.429L-17.594,37.286L-17.525,38.571L-17.457,37.714L-17.388,37.143L-17.32,37L-17.251,37.143L-17.183,37L-17.114,36.857L-17.046,36.429L-16.978,38L-16.909,39L-16.841,39.857L-16.772,40.143L-16.704,40.857L-16.635,42.429L-16.567,43.571L-16.498,45L-16.43,44.143L-16.362,45.571L-16.293,47L-16.225,47.571L-16.156,47.429L-16.088,49L-16.019,50.143L-15.951,51.714L-15.882,52.714L-15.814,54.286L-15.745,55.714L-15.677,57.143L-15.609,57.286L-15.54,55.857L-15.472,54.143L-15.403,54.857L-15.335,54.571L-15.266,56.286L-15.198,57.286L-15.129,58.286L-15.061,59L-14.993,60.286L-14.924,60.857L-14.856,59.857L-14.787,60.143L-14.719,61L-14.65,60.286L-14.582,59L-14.513,57.857L-14.445,58.429L-14.377,59.429L-14.308,61.143L-14.24,62L-14.171,62.143L-14.103,63.143L-14.034,62.429L-13.966,63.143L-13.897,63.429L-13.829,63L-13.761,64.429L-13.692,65.143L-13.624,65.286L-13.555,65.143L-13.487,66.429L-13.418,68.571L-13.35,70.143L-13.281,72.143L-13.213,71.714L-13.145,71.429L-13.076,70.714L-13.008,71.143L-12.939,71.429L-12.871,71.286L-12.802,72.429L-12.734,73.286L-12.665,75.143L-12.597,76.571L-12.529,78.429L-12.46,79.571L-12.392,80.571L-12.323,80.857L-12.255,80.571L-12.186,81.286L-12.118,82L-12.049,82.714L-11.981,82.286L-11.913,83L-11.844,81.571L-11.776,83.143L-11.707,81.429L-11.639,80.571L-11.57,79.429L-11.502,80.857L-11.433,81.571L-11.365,81.571L-11.296,81.429L-11.228,79.429L-11.16,80L-11.091,79.714L-11.023,80.143L-10.954,80L-10.886,80.714L-10.817,81.571L-10.749,81.714L-10.68,80L-10.612,78.857L-10.544,79.143L-10.475,78L-10.407,77.571L-10.338,76.571L-10.27,77.286L-10.201,77.429L-10.133,76.571L-10.064,77L-9.996,77.143L-9.928,78.143L-9.859,77.857L-9.791,79.429L-9.722,78.857L-9.654,79.714L-9.585,80.429L-9.517,81.286L-9.448,80L-9.38,77.429L-9.312,75.857L-9.243,73.286L-9.175,73.286L-9.106,72.571L-9.038,72.714L-8.969,70.714L-8.901,67.286L-8.832,64.857L-8.764,62.714L-8.696,60.571L-8.627,61.143L-8.559,60L-8.49,58.143L-8.422,57.714L-8.353,57.571L-8.285,57.429L-8.216,57.143L-8.148,56.857L-8.08,56.857L-8.011,56L-7.943,54.571L-7.874,52.286L-7.806,51.571L-7.737,49.857L-7.669,48.143L-7.6,47.143L-7.532,45.286L-7.463,43L-7.395,41.429L-7.327,42L-7.258,42.571L-7.19,43.571L-7.121,44.571L-7.053,43.286L-6.984,43.571L-6.916,44.857L-6.847,47.429L-6.779,48L-6.711,49.143L-6.642,51.714L-6.574,51L-6.505,50.714L-6.437,52.286L-6.368,53.857L-6.3,53.286L-6.231,53.143L-6.163,52.143L-6.095,51L-6.026,49.286L-5.958,49.714L-5.889,49.571L-5.821,50.857L-5.752,48.143L-5.684,48.143L-5.615,48.571L-5.547,50L-5.479,50.714L-5.41,53.429L-5.342,56.429L-5.273,57.286L-5.205,59.857L-5.136,58.857L-5.068,57.714L-4.999,58.571L-4.931,59.286L-4.863,58.143L-4.794,59L-4.726,60.714L-4.657,60.429L-4.589,59L-4.52,58.286L-4.452,60.286L-4.383,60.429L-4.315,58.286L-4.247,57.429L-4.178,58.286L-4.107,59.429L-4.038,60.429L-3.97,61.286L-3.901,58.429L-3.833,57L-3.765,57L-3.696,58L-3.628,57.714L-3.559,58.857L-3.491,57.571L-3.422,57.714L-3.354,56L-3.285,54.143L-3.217,54L-3.149,53.143L-3.08,54.571L-3.012,54.429L-2.943,55L-2.875,52.857L-2.806,54.143L-2.738,53.857L-2.669,54.286L-2.601,54.571L-2.533,55.571L-2.464,57.571L-2.396,56.857L-2.327,55.571L-2.259,57.571L-2.19,59.429L-2.122,59L-2.053,58.571L-1.985,59L-1.916,60.286L-1.848,64L-1.78,64.286L-1.711,65.857L-1.643,67.571L-1.574,67.571L-1.506,68.429L-1.437,70L-1.369,71.571L-1.3,72.286L-1.232,72.429L-1.164,73.571L-1.095,72.571L-1.027,73.857L-0.958,76.143L-0.89,76.143L-0.821,76.857L-0.753,78.286L-0.684,78.286L-0.616,77.714L-0.548,75.143L-0.479,76.714L-0.411,77.571L-0.342,79.429L-0.274,78.286L-0.205,78.143L-0.137,77.714L-0.068,78.143L0,77.857L0.068,77.857L0.137,78.857L0.205,77.714L0.274,79.143L0.342,78L0.411,79L0.479,80.143L0.548,78.714L0.616,79L0.684,78L0.753,77.429L0.821,78.714L0.89,78.143L0.958,78.429L1.027,77.571L1.095,76.429L1.164,76.429L1.232,77L1.3,76.571L1.369,76.714L1.437,76.714L1.506,79.429L1.574,77.429L1.643,76.143L1.711,75L1.78,76.286L1.848,75.714L1.916,74.143L1.985,73.286L2.053,72.429L2.122,71.429L2.19,70L2.259,69.857L2.327,69.571L2.396,68.143L2.464,67L2.533,66.429L2.601,66.286L2.669,64.286L2.738,63.571L2.806,63.571L2.875,62.286L2.943,61.714L3.012,62.143L3.08,62.571L3.149,61.286L3.217,59.857L3.285,59.143L3.354,58L3.422,58.286L3.491,58.571L3.559,57.857L3.628,57.286L3.696,56.286L3.765,55.571L3.833,55.571L3.901,56.286L3.97,57.286L4.038,58.714L4.107,58.429L4.175,60L4.244,59.857L4.312,60.714L4.381,61.714L4.449,63.429L4.517,62.857L4.586,62.714L4.654,62.857L4.723,63.714L4.791,63.857L4.86,63.286L4.928,63.143L4.994,63.571L5.062,62L5.131,61.286L5.199,61L5.268,61L5.336,60.286L5.404,61L5.473,59.286L5.541,58.143L5.61,57.429L5.678,56.857L5.747,57.571L5.815,56.571L5.884,54.429L5.952,53.857L6.02,54.143L6.089,52.143L6.157,52.714L6.226,50.286L6.294,50.571L6.363,50.143L6.431,50.143L6.5,49.571L6.568,49.286L6.636,49.857L6.705,49.286L6.773,49.429L6.842,50L6.91,50.857L6.979,50.857L7.047,51.571L7.116,53.143L7.184,51.857L7.252,54.286L7.321,54.857L7.389,55L7.458,54.571L7.526,55.714L7.595,56.857L7.663,57.857L7.732,58.143L7.8,57.143L7.868,58.143L7.937,59.429L8.005,58.857L8.074,59L8.142,59.857L8.211,61L8.279,63.429L8.348,62.714L8.416,60.857L8.484,58.429L8.553,58L8.621,58.714L8.69,59.571L8.758,60.714L8.827,61.857L8.895,60.571L8.964,61.857L9.032,62.286L9.101,60.857L9.169,60.286L9.237,61.714L9.306,60.714L9.374,61L9.443,62L9.511,62.429L9.58,62.286L9.648,62.429L9.717,63.143L9.785,63.286L9.853,64.714L9.922,64.571L9.99,65.286L10.059,66.286L10.127,66.571L10.196,65.571L10.264,65.429L10.333,63.143L10.401,62.857L10.469,64.714L10.538,66.714L10.606,68.286L10.675,69.429L10.743,69.286L10.812,70L10.88,70.286L10.949,73.143L11.017,73L11.085,73.429L11.154,74.286L11.222,74.571L11.291,75.429L11.359,75L11.428,76.571L11.496,77L11.565,78.286L11.633,80.143L11.701,80.286L11.77,80L11.838,80.286L11.907,81.143L11.975,83.286L12.044,84.857L12.112,86.286L12.181,87.429L12.249,89.857L12.317,91.429L12.386,94.143L12.454,96.571L12.523,97.714L12.591,97.429L12.66,96.143L12.728,94.857L12.797,94.429L12.865,94.286L12.933,93L13.002,92.857L13.07,91.429L13.139,91.571L13.207,93L13.276,94.429L13.344,94.429L13.413,96.429L13.481,97.143L13.55,97.714L13.618,98.286L13.686,97.429L13.755,97.857L13.823,98.857L13.892,100.143L13.96,99.857L14.029,98.429L14.097,96.571L14.166,95.714L14.234,95L14.302,94.571L14.371,92.857L14.439,92.571L14.508,91.714L14.576,90.143L14.645,91.571L14.713,92.857L14.782,93.429L14.85,93.286L14.918,93.286L14.987,94.429L15.055,93.714L15.124,95.571L15.192,96L15.261,95.429L15.329,95.714L15.398,95.571L15.466,92.857L15.534,91.571L15.603,90.429L15.671,86.429L15.74,84.571L15.808,83L15.877,80.143L15.945,79.857L16.014,79L16.082,78.714L16.15,78.571L16.219,77.714L16.287,78.143L16.356,78L16.424,76.714L16.493,73.857L16.561,73L16.63,73.143L16.698,72.857L16.766,72.143L16.835,72L16.903,71L16.972,69L17.04,66.571L17.109,64.857L17.177,63.143L17.246,62.571L17.314,62.571L17.383,59.571L17.451,58.143L17.519,58.429L17.588,56.857L17.656,56.143L17.725,57.429L17.793,57.714L17.862,57.857L17.93,60L17.999,59L18.067,58.571L18.135,58.857L18.204,58.714L18.272,58.143L18.341,57.143L18.409,56.857L18.478,59L18.546,61.143L18.615,62.143L18.683,61.286L18.751,61L18.82,60.571L18.888,60.429L18.957,61.143L19.025,62.143L19.094,63L19.162,63.429L19.231,65L19.299,64.571L19.367,64L19.436,65.429L19.504,65.857L19.573,67.714L19.641,66.714L19.71,68.714L19.778,69.286L19.847,71.286L19.915,71.143L19.983,70.143L20.052,71L20.12,70.286L20.189,70.857L20.257,71.857L20.326,72.143L20.394,72.286L20.463,73.143L20.531,72.429L20.599,73L20.668,71.286L20.736,71L20.805,71.143L20.873,72.143L20.942,73.286L21.01,72.571L21.079,72.429L21.147,72.143L21.215,71.857L21.287,70.286L21.355,71.714L21.424,72.286L21.492,72.143L21.561,72.857L21.629,71.571L21.697,72.857L21.766,71.714L21.834,71.714L21.903,70.286L21.971,70.571L22.04,71.571L22.108,72.286L22.177,72.143L22.245,71.714L22.313,72.143L22.382,73L22.45,73.286L22.519,73.571L22.587,73.429L22.656,72.571L22.724,73.571L22.793,74.429L22.861,73.714L22.93,73L22.998,72.571L23.066,74.429L23.135,75.429L23.203,76.143L23.272,77.714L23.34,77.714L23.409,77.429L23.477,76.286L23.546,75.857L23.614,75.714L23.682,76L23.751,75.571L23.819,76.714L23.888,76L23.956,76.143L24.025,76.857L24.093,76.571L24.162,75.429L24.23,76.714L24.298,76.571L24.367,76.429L24.435,75.286L24.504,75.143L24.572,75L24.641,76.571L24.709,76.857L24.778,77L24.846,77.571L24.914,75.143L24.983,74.714L25.051,73.714L25.12,72.857L25.188,70.714L25.257,70.286L25.325,69.571L25.394,70.571L25.462,70.714L25.53,72L25.599,73.143L25.667,72.714L25.736,74L25.804,76L25.873,74.571L25.941,76.286L26.01,77.429L26.078,77.571L26.146,78.286L26.215,78.857L26.283,77.429L26.352,76.571L26.42,74.571L26.489,74.714L26.557,74L26.626,71L26.694,66.429L26.762,65.429L26.831,64.714L26.899,64.571L26.968,66L27.036,66.857L27.105,68.571L27.173,68.857L27.242,70.429L27.31,71.143L27.379,71.571L27.447,71.714L27.515,70.286L27.584,68.857L27.652,68.714L27.721,69.286L27.789,68.571L27.858,68.143L27.926,69L27.995,69.286L28.063,69.143L28.131,68.857L28.2,68L28.268,67.429L28.337,69L28.405,69L28.474,71.143L28.542,71.571L28.611,73.286L28.679,75L28.747,78L28.816,77.143L28.884,77.714L28.953,77.429L29.021,78.571L29.09,77.714L29.158,76.857L29.227,76.429L29.295,75.143L29.363,75L29.432,74.857L29.5,74.429L29.569,74.857L29.637,76.714L29.706,75.429L29.774,73.286L29.843,71.571L29.908,69.857L29.977,67.714L30.045,66.571L30.114,64.429L30.182,63.143L30.25,61.857L30.319,59.714L30.387,58.571L30.456,58.429L30.524,57.429L30.593,57.714L30.661,56.714L30.73,55.714L30.798,54.286L30.866,56L30.935,55L31.003,54.143L31.072,53.714L31.14,53.714L31.209,51.714L31.277,50L31.346,50.286L31.414,50.143L31.482,47.857L31.551,47L31.619,47L31.688,44.286L31.756,43.571L31.825,43.429L31.893,44.429L31.962,44.429L32.03,45.571L32.098,46.714L32.167,47.857L32.235,47.857L32.304,47.857L32.372,49.286L32.441,50.571L32.509,51.857L32.578,51.286L32.646,48.857L32.714,47.429L32.783,47L32.851,48.571L32.92,49L32.988,50.571L33.057,49L33.125,48.429L33.194,48.857L33.262,49L33.33,50.286L33.399,51.714L33.467,52L33.536,54.143L33.604,54.857L33.673,55.143L33.741,57.286L33.81,57.857L33.878,58.714L33.946,58.286L34.015,59.286L34.083,60.857L34.152,61.286L34.22,62.286L34.289,64.857L34.357,65.429L34.426,66.857L34.494,64.571L34.563,64.429L34.631,66.857L34.699,69.857L34.768,70.714L34.836,72.714L34.905,73L34.973,73.571L35.042,73L35.11,74.143L35.179,74.857L35.247,74.857L35.315,77.286L35.384,78L35.452,78.143L35.521,79.286L35.589,80L35.658,81.286L35.726,80.857L35.795,80.857L35.863,81.857L35.931,82.857L36,82.857L36.068,82.571L36.137,81.429L36.205,81.286L36.274,81.286L36.342,80.286L36.411,81L36.479,80.857L36.547,82.429L36.616,83.429L36.684,81.857L36.753,82.143L36.821,84.143L36.89,85.286L36.958,85.571L37.027,84.714L37.095,84L37.163,85.571L37.232,86.571L37.3,87.286L37.369,86.857L37.437,86.143L37.506,86.143L37.574,85.429L37.643,86L37.711,85.286L37.779,87.429L37.848,87.429L37.916,86.714L37.985,87.286L38.053,88.714L38.122,89.286L38.19,89.857L38.259,87.571L38.327,87.286L38.396,86.714L38.464,87L38.532,87.571L38.601,88.429L38.669,87.714L38.738,88.714L38.806,88.571L38.875,87.714L38.943,86.857L39.012,87.286L39.08,86.286L39.148,86.429L39.217,87L39.285,86.143L39.354,84.571L39.422,82.429L39.491,82.714L39.559,81L39.628,79.429L39.696,75.714L39.764,74.857L39.833,73.429L39.901,72.286L39.97,72.714L40.038,72.429L40.107,70.286L40.175,69.571L40.244,67.286L40.312,68.143L40.38,65.143L40.449,62.714L40.517,62.286L40.586,61.143L40.654,60.714L40.723,59.714L40.791,58.857L40.86,58.571L40.928,57L40.996,56.571L41.065,54.286L41.133,55L41.202,55.143L41.27,54.857L41.339,53.714L41.407,55.857L41.476,56.571L41.544,57.429L41.612,58.143L41.681,58.143L41.749,59L41.818,59.429L41.886,58.857L41.955,58.286L42.023,58.571L42.092,58.286L42.16,58.571L42.228,59.429L42.297,62L42.365,63.143L42.434,64L42.502,64.714L42.571,64.571L42.639,63.571L42.708,64L42.776,63.143L42.845,63.571L42.913,62.714L42.981,63.857L43.05,61.143L43.118,61.857L43.187,59.714L43.255,60.429L43.324,59.571L43.392,58.857L43.461,57.143L43.529,56.857L43.597,56.143L43.666,57L43.734,58.143L43.803,58.714L43.871,58.857L43.94,58.714L44.008,60.143L44.077,60.714L44.145,60.714L44.213,62.714L44.282,63L44.35,62L44.419,60.571L44.487,61.429L44.556,62.286L44.624,62.429L44.693,64L44.761,63.143L44.829,62.714L44.898,62L44.966,62L45.035,61.429L45.103,63.857L45.172,64.286L45.24,66.429L45.309,66.714L45.377,67.143L45.445,69.714L45.514,70.286L45.582,71.714L45.651,72.143L45.719,71.286L45.788,70.857L45.856,71L45.925,69.571L45.993,69.429L46.061,68.143L46.13,67.429L46.201,67.714L46.27,67L46.338,66.143L46.407,65.857L46.475,66.857L46.543,67.429L46.612,67.714L46.68,68.286L46.749,69.143L46.817,68.571L46.886,70.286L46.954,71.143L47.023,72.429L47.091,71.429L47.159,71.429L47.228,71.714L47.296,70.429L47.365,70.429L47.433,71.571L47.502,71.143L47.57,72.286L47.639,72.857L47.707,72.286L47.775,73.143L47.844,73.714L47.912,75.571L47.981,78L48.049,79L48.118,80.143L48.186,81.143L48.255,82.571L48.323,83.286L48.392,85.286L48.46,86.429L48.528,85.857L48.597,86.143L48.665,87.571L48.734,86.714L48.802,86.286L48.871,86.857L48.939,87.143L49.008,87.571L49.076,87.286L49.144,88.714L49.213,89.286L49.281,88.429L49.35,89.714L49.418,89.286L49.487,88.714L49.555,88.571L49.624,87.143L49.692,85.429L49.76,86.429L49.829,85L49.897,85L49.966,84.429L50.034,83.857L50.103,83.714L50.171,84.429L50.24,83L50.308,81.143L50.376,81.714L50.445,80.143L50.513,78.571L50.582,79.286L50.65,78.714L50.719,77.571L50.787,77.429L50.856,77.429L50.924,78.143L50.992,77.857L51.061,76.857L51.129,76.857L51.198,76.286L51.266,75.571L51.335,76.571L51.403,76L51.472,76L51.54,75.143L51.608,74.857L51.677,75.857L51.745,75.857L51.814,74.571L51.882,75L51.951,73.571L52.019,73.429L52.088,72.857L52.156,72.286L52.225,72.143L52.293,72.286L52.361,73L52.43,71.286L52.498,71.857L52.567,74.143L52.635,73.143L52.704,73L52.772,72.714L52.841,73.429L52.909,72L52.977,71.857L53.046,71.857L53.114,72.714L53.183,70.857L53.251,71.143L53.32,71L53.388,70.429L53.457,71.857L53.525,72.714L53.593,73.429L53.662,73.286L53.73,72.429L53.799,73L53.867,74L53.936,74.429L54.004,74.857L54.073,74L54.141,74.571L54.209,75.286L54.278,74.714L54.346,75.571L54.415,75L54.483,75.571L54.552,74.286L54.62,72.143L54.689,73.571L54.757,74.571L54.823,74.714L54.891,75.143L54.96,75.571L55.028,75.571L55.096,73.429L55.165,72L55.233,73L55.302,72.571L55.37,72.143L55.439,73.429L55.507,73.857L55.576,73.286L55.644,72.571L55.712,71.429L55.781,72.143L55.849,73.714L55.918,72.429L55.986,72.429L56.055,72.857L56.123,72.571L56.192,72L56.26,70.429L56.328,69.286L56.397,68.143L56.465,68.286L56.534,64.714L56.602,65.857L56.671,65.857L56.739,65.286L56.808,63.857L56.876,64.143L56.944,63.143L57.013,62.857L57.081,61.429L57.15,61.714L57.218,62.143L57.287,62.429L57.355,61.857L57.424,62.143L57.492,61.429L57.56,60.857L57.629,59.571L57.697,59.571L57.766,60.714L57.834,59.714L57.903,58.714L57.971,60.571L58.04,61.571L58.108,60.857L58.176,60.857L58.245,60.286L58.313,60L58.382,61.429L58.45,63.714L58.519,63.714L58.587,66.571L58.656,65L58.724,64.429L58.792,62.143L58.861,62.286L58.929,62L58.998,62.143L59.066,62.143L59.135,63.714L59.203,64.286L59.272,65L59.34,64.286L59.409,65L59.477,66.857L59.545,67.714L59.614,68L59.682,68.286L59.751,69L59.819,70.143L59.888,70.143L59.956,70.286L60.025,70.286L60.093,69L60.161,69.143L60.23,71.143L60.298,73.714L60.367,75.714L60.435,76.714L60.504,76.429L60.572,78L60.641,80.286L60.709,82.714L60.777,84.857L60.846,87L60.914,87.857L60.983,89L61.051,89.714L61.12,90.429L61.188,90.857L61.257,93.571L61.325,94.429L61.393,96L61.462,96.857L61.53,95.571L61.599,94.286L61.667,92.143L61.736,92.429L61.804,92.429L61.873,92.571L61.941,94.429L62.009,95.857L62.078,96.571L62.146,98.286L62.215,100.714L62.283,100.571L62.352,99.571L62.42,99.714L62.489,98.857L62.557,98.143L62.625,97L62.694,96.286L62.762,96.286L62.831,97.143L62.899,98.571L62.968,100L63.036,101L63.105,100.571L63.173,100.571L63.242,100.429L63.31,100.429L63.378,98.714L63.447,98.857L63.515,98.429L63.584,99.857L63.652,100L63.721,102L63.789,102.857L63.858,103.143L63.926,102L63.994,100.429L64.063,99.857L64.131,98.857L64.2,98.286L64.268,97.286L64.337,96.286L64.405,96.857L64.474,96.286L64.542,97.286L64.61,96.857L64.679,96.286L64.747,94.714L64.816,94.286L64.884,93.571L64.953,93L65.021,92.429L65.09,91L65.158,90.714L65.226,90.286L65.295,89.714L65.363,87.857L65.432,89.429L65.5,87.571L65.569,87.571L65.637,86.429L65.706,86.429L65.774,86L65.842,87.429L65.911,87.429L65.979,86.429L66.048,86.143L66.116,84.429L66.185,82.714L66.253,80.857L66.322,81.429L66.39,82.857L66.458,81L66.527,80.143L66.595,77.429L66.664,75.571L66.732,75.286L66.801,75.286L66.869,74.571L66.938,74.143L67.006,72.429L67.074,71.714L67.143,72.143L67.211,71.857L67.28,71.143L67.348,71L67.417,72.143L67.485,70.571L67.554,70.571L67.622,69L67.691,69L67.759,68.857L67.827,68.286L67.896,64.857L67.964,64.286L68.033,65.714L68.101,66.714L68.17,67.143L68.238,70.143L68.307,71.143L68.375,69.571L68.443,68.143L68.512,70L68.58,70.429L68.649,71.286L68.717,71.857L68.786,72.143L68.854,73L68.923,73.143L68.991,71.714L69.059,70.857L69.128,69.571L69.196,69.286L69.265,69.714L69.333,70L69.402,70.143L69.47,67.857L69.539,68.571L69.607,68.429L69.675,70.286L69.744,69.429L69.812,68.143L69.881,68.857L69.949,70.143L70.018,69.714L70.086,69.429L70.155,67.857L70.223,68.143L70.291,67L70.36,67.857L70.428,69.143L70.497,69.286L70.565,68.857L70.634,69.429L70.702,69L70.771,69.286L70.839,68.571L70.907,66.286L70.976,66L71.044,67.143L71.116,67.143L71.184,67.286L71.253,66.857L71.321,68L71.389,68.429L71.458,66.286L71.526,66L71.595,65.286L71.663,65.571L71.732,65.714L71.8,65.429L71.869,66.857L71.937,67.286L72.005,67.429L72.074,68.143L72.142,67L72.211,69L72.279,70L72.348,69.857L72.416,69.714L72.485,68.429L72.553,68.857L72.621,68L72.69,67.714L72.758,68.143L72.827,67.714L72.895,67L72.964,68.286L73.032,69.429L73.101,67.429L73.169,66.429L73.238,66.286L73.306,65.143L73.374,63.286L73.443,60.571L73.511,62L73.58,63L73.648,63.571L73.717,61.286L73.785,60.714L73.854,61.286L73.922,59.429L73.99,56.286L74.059,55.571L74.127,54L74.196,53.714L74.264,52L74.333,52L74.401,51.286L74.47,49.286L74.538,48.143L74.606,48.571L74.675,44.571L74.743,42.143L74.812,40.571L74.88,38.571L74.949,36.714L75.017,35.857L75.086,33.571L75.154,31.857L75.222,30.286L75.291,29.857L75.359,27.143L75.428,23L75.496,22.857L75.565,20L75.633,18.429L75.702,15L75.77,17.571L75.838,15.286L75.907,12.429L75.975,15L76.044,12.714L76.112,9.857L76.181,8.143L76.249,9.286L76.318,9.429L76.386,6.143L76.454,5.571L76.523,4.143L76.591,3.714L76.66,1L76.728,4.714L76.797,7.857L76.865,8.429L76.934,12.429L77.002,13.143L77.07,13.429L77.139,14.714L77.207,19.571L77.276,23.714L77.344,24.571L77.413,27.143L77.481,29.429L77.55,30.714L77.618,31.857L77.687,34L77.755,35.714L77.823,35.857L77.892,38.143L77.96,41.286L78.029,41.429L78.097,45.429L78.166,48.571L78.234,51.286L78.303,51.714L78.371,51.714L78.439,53.714L78.508,54.714L78.576,57.571L78.645,60L78.713,61.857L78.782,62.429L78.85,61.857L78.919,63.429L78.987,61L79.055,63L79.124,64.429L79.192,63.571L79.261,62L79.329,62.286L79.398,62.857L79.466,64.571L79.535,67.714L79.603,69.286L79.671,71.286L79.737,71.714L79.805,73.286L79.874,72.857L79.942,72.429L80.011,70.286L80.079,68.286L80.148,68.857L80.216,69.571L80.285,69.571L80.353,69.286L80.422,69.571L80.49,70.143L80.558,69L80.627,69.571L80.695,68L80.764,65.571L80.832,64.286L80.901,64.571L80.969,62.429L81.038,62.857L81.106,62.857L81.174,61L81.243,61.429L81.311,62.286L81.38,61.857L81.448,61.714L81.517,61.714L81.585,60.143L81.654,60.286L81.722,59.714L81.79,59.714L81.859,59.286L81.927,60.429L81.996,62.143L82.064,64.714L82.133,66.286L82.201,66.143L82.27,64.857L82.338,65.143L82.406,63.714L82.475,64.286L82.543,63.714L82.612,64L82.68,63.429L82.749,64.429L82.817,67.143L82.886,69L82.954,70.143L83.022,72.571L83.091,73.857L83.159,74.714L83.228,76.571L83.296,76.286L83.365,74.714L83.433,74.143L83.502,73.857L83.57,73L83.638,74.286L83.707,73.714L83.775,74L83.844,73.429L83.912,73.286L83.981,73.143L84.049,71.714L84.118,68.857L84.186,69.429L84.255,69.286L84.323,69.143L84.391,67.571L84.46,67.714L84.528,68L84.597,66.857L84.665,66.857L84.734,66L84.802,64.857L84.871,63.857L84.939,62.571L85.007,61L85.076,59.286L85.144,58.143L85.213,58.143L85.281,58.714L85.35,60.143L85.418,60.857L85.487,62.571L85.555,64.143L85.623,66.143L85.692,67.857L85.76,69.429L85.829,69.714L85.897,69.429L85.966,71L86.034,71.143L86.103,71L86.171,74L86.239,74L86.308,74.429L86.376,76.857L86.445,80L86.513,82.429L86.582,80.714L86.65,83.714L86.719,86.714L86.787,87.714L86.855,89.429L86.924,89.857L86.992,91.571L87.061,91.571L87.129,93.143L87.266,94.714L87.335,96.143L87.403,96.286L87.471,97L87.54,97.714L87.608,96.143L87.677,96L87.745,95.571L87.814,93.571L87.882,91.857L87.951,93L88.019,94.143L88.087,93.143L88.156,90.857L88.224,90.857L88.293,90.714L88.361,89L88.43,88.571L88.498,86L88.567,84L88.635,83L88.704,83.571L88.772,82.714L88.84,80.429L88.909,80.286L88.977,79.571L89.046,78.714L89.114,76.143L89.183,75.714L89.251,72.857L89.32,70.857L89.388,67.571L89.456,65.143L89.525,62.571L89.593,61.429L89.662,62L89.73,58.571L89.799,58.143L89.867,58.571L89.936,59.571L90.004,59.571L90.072,58.143L90.141,57.429L90.209,57.857L90.278,57.286L90.346,56.143L90.415,55.571L90.483,52.143L90.552,53.857L90.62,52.714L90.688,50.857L90.757,50.571L90.825,49.143L90.894,43.429L90.962,40.857L91.031,41.429L91.099,42.857L91.168,45L91.236,46L91.304,48.714L91.373,50.571L91.441,50.857L91.51,52.571L91.578,53.714L91.647,54.286L91.715,53.714L91.784,57.571L91.852,57.143L91.92,57L91.989,56.857L92.057,57.429L92.126,59L92.194,59.286L92.263,60.714L92.331,61.571L92.4,60.857L92.468,61.571L92.537,65L92.605,64.571L92.673,64.714L92.742,67L92.81,68L92.879,69.714L92.947,74.857L93.016,78L93.084,78.143L93.153,77.571L93.221,77.143L93.289,76.143L93.358,76.286L93.426,75.143L93.495,77L93.563,76.286L93.632,76.286L93.7,76.429L93.769,77.571L93.837,76.286L93.905,75.571L93.974,75.429L94.042,75.429L94.111,75L94.179,74.714L94.248,74.143L94.316,74.143L94.385,74.857L94.453,75.714L94.521,76.429L94.59,77.143L94.658,77.714L94.727,79.429L94.795,80.571L94.864,80.857L94.932,79.857L95.001,81.143L95.069,81L95.137,81.286L95.206,81.857L95.274,81.143L95.343,82.286L95.411,83.286L95.48,84.286L95.548,84L95.617,84.571L95.685,85.857L95.753,87L95.822,86.571L95.89,88.429L95.959,89.429L96.03,90.857L96.099,91.143L96.167,90.714L96.235,90.571L96.304,91.571L96.372,91.857L96.441,92L96.509,92.714L96.578,92.857L96.646,92.571L96.715,92.714L96.783,93.714L96.851,92.143L96.92,92.143L96.988,93L97.057,93L97.125,93.143L97.194,93L97.262,91.286L97.331,91.429L97.399,90.286L97.467,89.429L97.536,90L97.604,91.143L97.673,90.857L97.741,89.143L97.81,87.429L97.878,87.714L97.947,86.714L98.015,87.714L98.084,86.857L98.152,86.857L98.22,86.143L98.289,86.286L98.357,87.429L98.426,87.429L98.494,88.286L98.563,88.571L98.631,88.143L98.7,87.429L98.768,87L98.836,85.286L98.905,85.286L98.973,85.143L99.042,83.857L99.11,84L99.179,84.143L99.247,85.429L99.316,87.571L99.384,87.429L99.452,87.714L99.521,87.714L99.589,87.143L99.658,86.714L99.726,87L99.795,87.286L99.863,87.571L99.932,87L100,85.857L100.068,84.286L100.137,83.857L100.205,84L100.274,84.429L100.342,85.143L100.411,84L100.479,84.286L100.548,83.143L100.616,82.714L100.684,82.857L100.753,83.286L100.821,83.143L100.89,84L100.958,85.429L101.027,86.571L101.095,87.286L101.164,87L101.232,86.857L101.3,85.571L101.369,84.714L101.437,84.857L101.506,85.857L101.574,85.143L101.643,85.286L101.711,84.286L101.78,84L101.848,84.286L101.916,83.286L101.985,84.143L102.053,83.857L102.122,84.857L102.19,85L102.259,85L102.327,84.714L102.396,84.143L102.464,84.143L102.533,84.429L102.601,84.429L102.669,84L102.738,83.571L102.806,82.857L102.875,82.857L102.943,82.571L103.012,81L103.08,79.429L103.149,80.143L103.217,80.857L103.285,80.286L103.354,80.286L103.422,81.143L103.491,82.286L103.559,83L103.628,85.143L103.696,85.286L103.765,86.429L103.833,87.143L103.901,88L103.97,91L104.038,92L104.107,94.286L104.175,94.714L104.244,95.429L104.312,96.857L104.381,99L104.449,99.143L104.517,100.143L104.586,99.714L104.651,99.429L104.72,100.429L104.788,101.714L104.857,104.286L104.925,105.286L104.994,105.714L105.062,107.286L105.131,108.857L105.199,107.857L105.268,106.857L105.336,108.143L105.404,108.857L105.473,108.429L105.541,107.857L105.61,106.857L105.678,105.857L105.747,106L105.815,105.429L105.884,105.143L105.952,103.857L106.02,102.571L106.089,99.143L106.157,98.857L106.226,99.143L106.294,99.857L106.363,97.857L106.431,96.143L106.5,95.857L106.568,93.857L106.636,93.857L106.705,92.571L106.773,93L106.842,92.857L106.91,91.429L106.979,91.857L107.047,91.857L107.116,90.571L107.184,90.143L107.252,90.714L107.321,90L107.389,88.143L107.458,85L107.526,84.429L107.595,84L107.663,84.429L107.732,83.429L107.8,82.714L107.868,82.286L107.937,81L108.005,81.857L108.074,80.714L108.142,82L108.211,81.429L108.279,80L108.348,80.143L108.416,79.857L108.484,79.571L108.553,80.429L108.621,82.857L108.69,84L108.758,85.571L108.827,84.714L108.895,83.857L108.964,84.286L109.032,83.857L109.101,84.714L109.169,85.143L109.237,84L109.306,83.429L109.374,83.714L109.443,84.429L109.511,85.571L109.58,85.714L109.648,87L109.717,87.429L109.785,89.286L109.853,90L109.922,89.714L109.99,92L110.059,92.286L110.127,94.429L110.196,96.143L110.264,96.857L110.333,97.429L110.401,96.143L110.469,97.429L110.538,97.429L110.606,97.857L110.675,98.857L110.743,99L110.812,100.286L110.88,101.571L110.949,103L111.017,104.286L111.085,104.714L111.154,105L111.222,105.286L111.291,107L111.359,108L111.428,109.429L111.496,110.714L111.565,112.429L111.633,114L111.701,114L111.77,114.286L111.838,114.286L111.907,115.429L111.975,117.429L112.044,118.143L112.112,118.286L112.181,118L112.249,118.286L112.317,118L112.386,119.143L112.454,120.429L112.523,119.857L112.591,121.143L112.66,121.714L112.728,121.429L112.797,121.143L112.865,120.286L112.933,120L113.002,120.143L113.07,119.429L113.139,119.571L113.207,119.571L113.276,119.714L113.344,120.143L113.413,120.429L113.481,119.714L113.55,120L113.618,120.429L113.686,119.286L113.755,118.714L113.823,118.143L113.892,116.857L113.96,116L114.029,115.571L114.097,114.714L114.166,115L114.234,115.286L114.302,114.143L114.371,115L114.439,114.857L114.508,115L114.576,115.571L114.645,114.571L114.713,112L114.782,111.286L114.85,110.429L114.918,110.143L114.987,109.857L115.055,109.429L115.124,108.429L115.192,107.857L115.261,107L115.329,107.143L115.398,106.857L115.466,106.143L115.534,105.857L115.603,105L115.671,104.857L115.74,104.714L115.808,104.429L115.877,104.143L115.945,103.429L116.014,102.286L116.082,100.714L116.15,99.429L116.219,98.143L116.287,95.571L116.356,95.429L116.424,94.143L116.493,93.286L116.561,91.714L116.63,92L116.698,91.714L116.766,92L116.835,91.429L116.903,90.857L116.972,90.429L117.04,88.857L117.109,88.714L117.177,89.143L117.246,88.429L117.314,87.143L117.383,86.286L117.451,86L117.519,86.143L117.588,86.429L117.656,85.714L117.725,84L117.793,84.714L117.862,84.143L117.93,83.857L117.999,85L118.067,85.714L118.135,87.286L118.204,87.143L118.272,85.857L118.341,87.571L118.409,87.429L118.478,87.286L118.546,87.571L118.615,87.714L118.683,87.857L118.751,89.143L118.82,89.857L118.888,89.714L118.957,90.571L119.025,90.857L119.094,93L119.162,93L119.231,93.143L119.299,93.714L119.367,94.429L119.436,94.286L119.504,93.429L119.573,94L119.641,94L119.71,94.429L119.778,95.571L119.847,94.857L119.915,95.857L119.983,95.429L120.052,95.571L120.12,95.714L120.189,95.286L120.257,96.571L120.326,98.286L120.394,98.429L120.463,98.571L120.531,98.429L120.599,98.286L120.668,99L120.736,98.286L120.805,98L120.873,98.143L120.945,98.571L121.013,97.429L121.081,97.286L121.15,96.143L121.218,96.857L121.287,96.857L121.355,96.571L121.424,97L121.492,97.143L121.561,96.143L121.629,95.714L121.697,96.571L121.766,96L121.834,96.143L121.903,96.429L121.971,96.571L122.04,97.571L122.108,96.571L122.177,96.143L122.245,96L122.313,95.571L122.382,95.286L122.45,95.429L122.519,96.429L122.587,98L122.656,97.571L122.724,98L122.793,98.714L122.861,98.857L122.93,98.714L122.998,98.857L123.066,100.714L123.135,102.143L123.203,102.857L123.272,101.286L123.34,101L123.409,100.714L123.477,101.143L123.546,101.286L123.614,102.571L123.682,102.714L123.751,101.429L123.819,101.857L123.888,101.286L123.956,101.714L124.025,101.429L124.093,101.143L124.162,101.714L124.23,102.429L124.298,103L124.367,102.857L124.435,103.143L124.504,103.286L124.572,103L124.641,101.143L124.709,100.286L124.778,100.286L124.846,100.143L124.914,99.571L124.983,100.286L125.051,98.857L125.12,98.286L125.188,98L125.257,98.714L125.325,99.857L125.394,100.571L125.462,100.571L125.53,100L125.599,100.571L125.667,101.714L125.736,100.857L125.804,101.143L125.873,101.857L125.941,101.286L126.01,101.571L126.078,101.429L126.146,101.286L126.215,101L126.283,100.429L126.352,100.143L126.42,100.429L126.489,100.571L126.557,99.857L126.626,98.714L126.694,98.714L126.762,97.714L126.831,95.857L126.899,94.286L126.968,93.714L127.036,93.286L127.105,93.857L127.173,92.857L127.242,92L127.31,89.571L127.379,88.571L127.447,87.286L127.515,86.143L127.584,84.143L127.652,82.571L127.721,78.286L127.789,77.857L127.858,77.429L127.926,76.714L127.995,76.714L128.063,75.857L128.131,74.143L128.2,74L128.268,74.143L128.337,73.714L128.405,72.143L128.474,71L128.542,69.286L128.611,69.429L128.679,69.857L128.747,69.714L128.816,71L128.884,71.571L128.953,72.429L129.021,72.714L129.09,70.143L129.158,70.857L129.227,71L129.295,71L129.363,72.429L129.432,71.714L129.5,70.714L129.569,71.857L129.637,73.143L129.706,72.714L129.774,75.286L129.843,74.714L129.911,75.857L129.979,75.429L130.045,73.429L130.114,72L130.182,73.429L130.25,73.429L130.319,72.286L130.387,72.286L130.456,71.857L130.524,70.286L130.593,70.143L130.661,68.429L130.73,67.857L130.798,67.143L130.866,67.571L130.935,67.143L131.003,66L131.072,64.857L131.14,65.857L131.209,64.714L131.277,64.286L131.346,63.857L131.414,63.714L131.482,63.429L131.551,64L131.619,62.714L131.688,62.286L131.756,63.286L131.825,63.571L131.893,64.143L131.962,62.571L132.03,62.571L132.098,63.571L132.167,64.286L132.235,63.286L132.304,62.429L132.372,61.714L132.441,60L132.509,60.714L132.578,62L132.646,61.286L132.714,61.714L132.783,63.571L132.851,63.857L132.92,62.286L132.988,64L133.057,65.143L133.125,67.571L133.194,68.286L133.262,69.571L133.33,68.857L133.399,68.714L133.467,67.714L133.536,69.286L133.604,70.429L133.673,72L133.741,73.429L133.81,73.857L133.878,74L133.946,75.286L134.015,76.857L134.083,75.571L134.152,77L134.22,77.857L134.289,79L134.357,79.857L134.426,80.714L134.494,83L134.563,83.714L134.631,85.286L134.699,88.286L134.768,89.429L134.836,88.143L134.905,88.857L134.973,89.286L135.042,89.143L135.11,90.143L135.179,90L135.247,92L135.315,92.857L135.384,95.571L135.452,97.429L135.521,99.571L135.589,100.571L135.658,101.857L135.726,103.286L135.795,104.571L135.863,105.714L135.931,106.571L136,106L136.068,105.286L136.137,107.286L136.205,107.571L136.274,105.857L136.342,106.429L136.411,106.571L136.479,107.571L136.547,107.571L136.616,107.571L136.684,108L136.753,107.286L136.821,106.571L136.89,106.286L136.958,106L137.027,107.571L137.095,106.143L137.163,105.714L137.232,105.857L137.3,104.429L137.369,102.429L137.437,101.286L137.506,100.286L137.643,97.714L137.711,94.429L137.779,91.429L137.848,88.143L137.916,86.857L137.985,84.714L138.053,84L138.122,84.714L138.19,83.714L138.259,84.286L138.327,85L138.396,86.429L138.464,86.571L138.532,86L138.601,85.857L138.669,86L138.738,85.571L138.806,84.286L138.875,84.429L138.943,86L139.012,86.857L139.08,86.714L139.148,87.143L139.217,88L139.285,86.714L139.354,85.857L139.422,85L139.491,85.143L139.559,84.429L139.628,84.429L139.696,85.429L139.764,86.857L139.833,86.571L139.901,87.429L139.97,87.429L140.038,88.429L140.107,88.143L140.175,87L140.244,88.143L140.312,86.143L140.38,83.571L140.449,83L140.517,81L140.586,80.857L140.654,80.714L140.723,81.286L140.791,81.286L140.86,81.714L140.928,80.571L140.996,78.857L141.065,78.143L141.133,79L141.202,77.571L141.27,76.143L141.339,76.286L141.407,74.286L141.476,73.286L141.544,72.286L141.612,70.286L141.681,67.571L141.749,65.857L141.818,65.143L141.886,65.571L141.955,65.571L142.023,64L142.092,62.143L142.16,61.143L142.228,59.571L142.297,58.571L142.365,58.857L142.434,59.143L142.502,58.429L142.571,56L142.639,56L142.708,54.286L142.776,52.286L142.845,52L142.913,50.286L142.981,50.714L143.05,48.857L143.118,46.714L143.187,45.571L143.255,44L143.324,44.429L143.392,44.429L143.461,44.143L143.529,45.714L143.597,44.857L143.666,47.286L143.734,48.143L143.803,50.143L143.871,50.143L143.94,50.857L144.008,50.571L144.077,50.143L144.145,49.714L144.213,48.857L144.282,49.571L144.35,48.571L144.419,48.286L144.487,49.571L144.556,49.714L144.624,52.286L144.693,51.143L144.761,52L144.829,52.429L144.898,52.143L144.966,53.714L145.035,54.143L145.103,54.571L145.172,55.571L145.24,55.857L145.309,57.857L145.377,58L145.445,59L145.514,61L145.582,61.286L145.651,63.571L145.719,63.143L145.788,63.571L145.856,62.857L145.925,63.857L145.993,63.429L146.061,63.286L146.13,64L146.198,66L146.267,67.429L146.338,68L146.407,68.714L146.475,69.143L146.543,68.714L146.612,69.143L146.68,69.286L146.749,70.429L146.817,69.857L146.886,70L146.954,68.714L147.023,68.286L147.091,68.714L147.159,71L147.228,72L147.296,72.429L147.365,72.857L147.433,73.857L147.502,73.571L147.57,73.857L147.639,74L147.707,74.429L147.775,74.857L147.844,76.143L147.912,77.286L147.981,78.286L148.049,79.429L148.118,81L148.186,82.143L148.255,81.286L148.323,81.286L148.392,80.571L148.46,81.429L148.528,81.286L148.597,82.286L148.665,82.714L148.734,83.714L148.802,84.571L148.871,85L148.939,85.286L149.008,86.714L149.076,88.286L149.144,88.429L149.213,87.857L149.281,88.429L149.35,89.143L149.418,87.286L149.487,87L149.555,85.857L149.624,85.429L149.692,84.571L149.76,83.714L149.829,82.571L149.897,82.143L149.966,81L150.034,80.143L150.103,78.857L150.171,77.429L150.24,76.857L150.308,77.857L150.376,78.143L150.445,79.286L150.513,78.429L150.582,79.571L150.65,77.429L150.719,78.429L150.787,77.143L150.856,75.429L150.924,74.857L150.992,74.857L151.061,76.286L151.129,74.571L151.198,72.714L151.266,72.143L151.335,72.571L151.403,71.571L151.472,72.429L151.54,71.429L151.608,72.714L151.677,71L151.745,70.143L151.814,70L151.882,68.857L151.951,68.286L152.019,67.143L152.088,65.857L152.156,65.286L152.225,64.571L152.293,63.143L152.361,61.857L152.43,61.429L152.498,60L152.567,60.143L152.635,59.286L152.704,57.714L152.772,55.143L152.841,55L152.909,55.286L152.977,56.714L153.046,54.286L153.114,51.857L153.183,50.571L153.251,50.571L153.32,48.857L153.388,47.143L153.457,46.857L153.525,44.714L153.593,44.714L153.662,44.286L153.73,44.429L153.799,45L153.867,44.429L153.936,45.857L154.004,45.857L154.073,48L154.141,47.429L154.209,48.429L154.278,49.714L154.346,51.571L154.415,52.429L154.483,51.143L154.552,52L154.62,51.286L154.689,51.286L154.757,53.714L154.825,55.286L154.894,55.571L154.96,55.714L155.028,55L155.096,56.714L155.165,56.857L155.233,57.571L155.302,57.857L155.37,60.714L155.439,60.286L155.507,59.143L155.576,60.429L155.644,59.143L155.712,57.143L155.781,59.143L155.849,57.429L155.918,54.857L155.986,53.714L156.055,53.286L156.123,52L156.192,52L156.26,51.429L156.328,51.571L156.397,50.429L156.465,50.143L156.534,50.714L156.602,52.286L156.671,53.857L156.739,53.857L156.808,54.714L156.876,53.571L156.944,52.143L157.013,52.143L157.081,52.286L157.15,52.571L157.218,53.857L157.287,53.429L157.355,52.286L157.424,49.429L157.492,49.429L157.56,50.857L157.629,51.429L157.697,51.857L157.766,52.571L157.834,52L157.903,53.714L157.971,54.429L158.04,56.143L158.108,55.571L158.176,54.429L158.245,55.571L158.313,56.571L158.382,56.714L158.45,57L158.519,57.714L158.587,58.571L158.656,57.286L158.724,57L158.792,57.857L158.861,57.571L158.929,60.143L158.998,62.286L159.066,64L159.135,65L159.203,65.571L159.272,65.286L159.34,67.286L159.409,68.571L159.477,71.714L159.545,72.857L159.614,73L159.682,73.286L159.751,73.286L159.819,72.286L159.888,71L159.956,70.286L160.025,72.714L160.093,73L160.161,74.429L160.23,75.857L160.298,76L160.367,74.571L160.435,75.429L160.504,76.286L160.572,77.571L160.641,78.857L160.709,80.286L160.777,81L160.846,80.143L160.914,80.143L160.983,79.429L161.051,79.857L161.12,79.571L161.188,80.143L161.257,79.714L161.325,81.143L161.393,80.571L161.462,81.286L161.53,80.286L161.599,81.143L161.667,81.714L161.736,82.857L161.804,84L161.873,86.143L161.941,89L162.009,91.429L162.078,92.857L162.146,92.571L162.215,92.857L162.283,93.429L162.352,94.857L162.42,95.714L162.489,95.714L162.557,94.714L162.625,94.143L162.694,93.714L162.762,93.714L162.831,94.286L162.899,95.714L162.968,97.143L163.036,97L163.105,97L163.173,96.857L163.242,96.714L163.31,96.286L163.378,93L163.447,93.143L163.515,91L163.584,90.429L163.652,88.714L163.721,86.714L163.789,85L163.858,85.571L163.926,85.286L163.994,84.429L164.063,83.429L164.131,82L164.2,81L164.268,80.429L164.337,81.286L164.405,81L164.474,81.143L164.542,79.571L164.61,78L164.679,76.571L164.747,75.429L164.816,74L164.884,72.714L164.953,71.857L165.021,70.571L165.09,68.714L165.158,67.143L165.226,65L165.295,64L165.363,64.857L165.432,66.714L165.5,65.571L165.569,67L165.637,66.571L165.706,65.571L165.774,64.571L165.842,64.429L165.911,62.714L165.979,63.286L166.048,61.857L166.116,60.286L166.185,59.429L166.253,59.571L166.322,59.429L166.39,58.143L166.458,56L166.527,54.571L166.595,54.714L166.664,54.286L166.732,53.714L166.801,53.571L166.869,54.429L166.938,55L167.006,55L167.074,53L167.143,52.571L167.211,51.429L167.28,52.857L167.348,52L167.417,50.571L167.485,49.429L167.554,49.429L167.622,47.429L167.691,46.857L167.759,47.571L167.827,49.571L167.896,49.857L167.964,49.143L168.033,48L168.101,48.286L168.17,47.857L168.238,48.143L168.307,49.429L168.375,48.143L168.443,47.571L168.512,47.857L168.58,47.857L168.649,46.429L168.717,47.714L168.786,47.857L168.854,46L168.923,43.571L168.991,42.714L169.059,41.429L169.128,42.857L169.196,43.857L169.265,44.714L169.333,43.286L169.402,42.571L169.47,42.143L169.539,43.714L169.607,44.286L169.675,46.286L169.744,46.429L169.812,48L169.881,47.714L169.949,48.286L170.018,50L170.086,50L170.155,49.429L170.223,50.571L170.291,51.714L170.36,50.286L170.428,52.143L170.497,53.429L170.565,54.286L170.634,56.143L170.702,58L170.771,57.429L170.839,57.714L170.907,59.857L170.976,59.571L171.044,60.714L171.113,61.714L171.181,61.571L171.253,63.571L171.321,64.286L171.389,65.143L171.458,66.571L171.526,68L171.595,67L171.663,67.857L171.732,69L171.8,70L171.869,70L171.937,70.714L172.005,69.714L172.074,68.429L172.142,67.714L172.211,68.286L172.279,69.143L172.348,68.571L172.416,70.286L172.485,70.857L172.553,71.143L172.621,72L172.69,71.143L172.758,70.429L172.827,72.571L172.895,73.286L172.964,74.571L173.032,77.429L173.101,76.571L173.169,76.571L173.238,76.714L173.306,74.429L173.374,74.714L173.443,74.857L173.511,74.571L173.58,74.429L173.648,74.429L173.717,72.571L173.785,71.571L173.854,71.857L173.922,69.571L173.99,70.143L174.059,72L174.127,73.429L174.196,73.714L174.264,73.571L174.333,73.714L174.401,74.143L174.47,73L174.538,72.429L174.606,70.571L174.675,70L174.743,70.714L174.812,71.429L174.88,70.571L174.949,69.714L175.017,69.143L175.086,68L175.154,67.714L175.222,67.143L175.291,67.429L175.359,68.429L175.428,68.429L175.496,68.571L175.565,69.143L175.633,68L175.702,69.143L175.77,70.286L175.838,70.714L175.907,70L175.975,71.429L176.044,70.286L176.112,69.143L176.181,68L176.249,69L176.318,68.857L176.386,66.714L176.454,66L176.523,65.571L176.591,64.429L176.66,64.714L176.728,63.429L176.797,64.143L176.865,64.429L176.934,64.286L177.002,65.429L177.07,64.143L177.139,63.714L177.207,64.143L177.276,63.714L177.344,62.571L177.413,62L177.481,61.857L177.55,61.714L177.618,60.286L177.687,60.857L177.755,59.714L177.823,58.429L177.892,58.571L177.96,59.286L178.029,59L178.097,58.714L178.166,59.143L178.234,59.571L178.303,58.714L178.371,58.286L178.439,58.857L178.508,57.857L178.576,57L178.645,57.143L178.713,58.143L178.782,59.714L178.85,57.571L178.919,56.429L178.987,56L179.055,54.571L179.124,54.143L179.192,54.429L179.261,55L179.329,55.286L179.398,56.714L179.466,56.857L179.535,57.571L179.603,56.714L179.671,56.714L179.74,55.143L179.808,54.714L179.874,54L179.942,53.857L180.011,54.571L180.079,54.429L180.148,55.286L180.216,54.286L180.285,53.714L180.353,54.143L180.422,54.286L180.49,54.857L180.558,55.429L180.627,55.857L180.695,56.286L180.764,53.857L180.832,52L180.901,52.429L180.969,52.286L181.038,52.571L181.106,53.857L181.174,55L181.243,54.143L181.311,51.571L181.38,52.143L181.448,51.857L181.517,51.143L181.585,49.714L181.654,49.714L181.722,49.857L181.79,50.286L181.859,49.857L181.927,50L181.996,49.571L182.064,47.571L182.133,48.429L182.201,47.143L182.27,47L182.338,47.857L182.406,46L182.475,43.857L182.543,43.143L182.612,41.571L182.68,40L182.749,39L182.817,39.571L182.886,39.714L182.954,38.429L183.022,37.714L183.091,37.857L183.159,37.429L183.228,36.857L183.296,36.571L183.365,37.571L183.433,37.429L183.502,36.286L183.57,36L183.638,34.286L183.707,32.857L183.775,33.714L183.844,36L183.912,36.286L183.981,37.571L184.049,37.714L184.118,38.571L184.186,37.286L184.255,37.429L184.323,36.571L184.391,36.429L184.46,38.429L184.528,40.857L184.597,42.143L184.665,43.429L184.734,45.714L184.802,46.714L184.871,48.286L184.939,48.857L185.007,51.143L185.076,52.429L185.144,52L185.213,50.714L185.281,51.571L185.35,53.571L185.418,54.857L185.487,56.429L185.555,58.857L185.623,61.857L185.692,66.143L185.76,69.143L185.829,70L185.897,69.571L185.966,71.429L186.034,72.714L186.103,73.429L186.171,75.286L186.239,77L186.308,79L186.376,82.571L186.445,83.571L186.513,85L186.582,85.714L186.65,86.143L186.719,87.143L186.787,88.143L186.855,89L186.924,89.286L186.992,89.714L187.061,90.429L187.129,91.571L187.198,92.571L187.266,94.857L187.335,95.286L187.403,96L187.471,94.857L187.54,93.143L187.608,91.714L187.677,89.857L187.745,89.571L187.814,89.286L187.882,88.857L187.951,89.143L188.019,87.857L188.087,87.714L188.156,88.143L188.224,86.857L188.293,86.571L188.361,85.429L188.43,83.286L188.498,83.143L188.567,82.286L188.635,83.143L188.704,82.143L188.772,81.571L188.84,80.857L188.909,81.714L188.977,82.714L189.046,81.857L189.114,80.714L189.183,79.857L189.251,80.571L189.32,79.429L189.388,77.286L189.456,74.429L189.525,75.429L189.593,75.286L189.662,74L189.73,73.857L189.799,73.286L189.867,73.429L189.936,72.857L190.004,73.571L190.072,74.571L190.141,74.286L190.209,74L190.278,75.143L190.346,75L190.415,74.429L190.483,75.143L190.552,73.429L190.62,71.143L190.688,69.857L190.757,70L190.825,71L190.894,68.857L190.962,64.714L191.031,62.571L191.099,63.143L191.168,63.286L191.236,63.429L191.304,62L191.373,60.286L191.441,59.143L191.51,61L191.578,60L191.647,58.714L191.715,60.857L191.784,58.429L191.852,55.714L191.92,54.857L191.989,54.286L192.057,51.286L192.126,51.286L192.194,50.286L192.263,47.571L192.331,44L192.4,42.857L192.468,41.286L192.537,39L192.605,38.857L192.673,40.429L192.742,40.286L192.81,39L192.879,37L192.947,39.429L193.016,42.143L193.084,42.714L193.153,41.571L193.221,40.429L193.289,38.571L193.358,37L193.426,38L193.495,39.143L193.563,36.714L193.632,37.143L193.7,38.143L193.769,34.571L193.837,35.429L193.905,36L193.974,35.571L194.042,35.857L194.111,37.571L194.179,35.714L194.248,35.571L194.316,36.429L194.385,39L194.453,39.571L194.521,40.714L194.59,43L194.658,43.571L194.727,44L194.795,42.714L194.864,42.571L194.932,42.429L195.001,41L195.069,39.857L195.137,39.857L195.206,39.857L195.274,42L195.343,45L195.411,47.429L195.48,46.857L195.548,48.429L195.617,51.143L195.685,52.143L195.753,52.286L195.822,55.286L195.89,56.857L195.959,57.143L196.027,58.429L196.096,59.143L196.167,57.714L196.235,58L196.304,58.571L196.372,59.143L196.441,58.143L196.509,58.429L196.578,59.143L196.646,57L196.715,56.857L196.783,55.571L196.851,55.857L196.92,57.429L196.988,60.286L197.057,61.286L197.125,61L197.194,60.857L197.262,60.857L197.331,60.571L197.399,58.571L197.467,58.857L197.536,59.714L197.604,58.714L197.673,58.429L197.741,57.857L197.81,57.429L197.878,56.857L197.947,56.857L198.015,59.571L198.084,58.714L198.152,58.857L198.22,60.571L198.289,61.571L198.357,62.286L198.426,62.714L198.494,62.857L198.563,62.143L198.631,62L198.7,63.286L198.768,64.143L198.836,66.143L198.905,65.714L198.973,65.714L199.042,63.286L199.11,62.714L199.179,63.143L199.247,64.286L199.316,66.143L199.384,64.429L199.452,65.286L199.521,65L199.589,65.571L199.658,66.286L199.726,66L199.795,66.143L199.863,66.857L199.932,67.143L200,64.857L200.068,63.286L200.137,62.286L200.205,62.429L200.274,60.714L200.342,61.429L200.411,61.429L200.479,60.714L200.548,61.571L200.616,61.143L200.684,60.571L200.753,60.857L200.821,60.286L200.89,59.429L200.958,60.857L201.027,61.714L201.095,62.571L201.164,63L201.232,63.714L201.3,62.286L201.369,60L201.437,60.429L201.506,61.286L201.574,60.714L201.643,59.286L201.711,59.857L201.78,58.857L201.848,59L201.916,60L201.985,59L202.053,60L202.122,58.429L202.19,60.857L202.259,59.857" stroke="#4c78a8" stroke-width="2"/></g><g class="mark-group role-title"><g transform="translate(100,-17)"><path class="background" aria-hidden="true" d="M0,0h0v0h0Z" pointer-events="none"/><g><g class="mark-text role-title-text" role="graphics-symbol" aria-roledescription="title" aria-label="Title text 'Noise: Noise, Barking Dog (NR5)'" pointer-events="none"><text text-anchor="middle" transform="translate(0,10)" font-family="sans-serif" font-size="13px" font-weight="bold" fill="#000" opacity="1">Noise: Noise, Barking Dog (NR5)</text></g></g><path class="foreground" aria-hidden="true" d="" pointer-events="none" display="none"/></g></g></g><path class="foreground" aria-hidden="true" d="" display="none"/></g></g></g><defs><clipPath id="clip137"><rect x="0" y="0" width="200" height="150"/></clipPath></defs></svg>