<svg xmlns="http://www.w3.org/2000/svg" xmlns:xlink="http://www.w3.org/1999/xlink" version="1.1" class="marks" width="260" height="194" viewBox="0 0 260 194"><rect width="260" height="194" fill="white"/><g fill="none" stroke-miterlimit="10" transform="translate(38,22)"><g class="mark-group role-frame root" role="graphics-object" aria-roledescription="group mark container"><g transform="translate(0,0)"><path class="background" aria-hidden="true" d="M0,0h200v150h-200Z"/><g><g class="mark-group role-axis" aria-hidden="true"><g transform="translate(0.5,0.5)"><path class="background" aria-hidden="true" d="M0,0h0v0h0Z" pointer-events="none"/><g><g class="mark-rule role-axis-grid" pointer-events="none"><line transform="translate(0,150)" x2="200" y2="0" stroke="#ddd" stroke-width="1" opacity="1"/><line transform="translate(0,103)" x2="200" y2="0" stroke="#ddd" stroke-width="1" opacity="1"/><line transform="translate(0,56)" x2="200" y2="0" stroke="#ddd" stroke-width="1" opacity="1"/><line transform="translate(0,9)" x2="200" y2="0" stroke="#ddd" stroke-width="1" opacity="1"/></g></g><path class="foreground" aria-hidden="true" d="" pointer-events="none" display="none"/></g></g><g class="mark-group role-axis" role="graphics-symbol" aria-roledescription="axis" aria-label="X-axis for a time scale with values from Friday, 01 January 2016, 12:00:00 AM to Monday, 01 January 2024, 12:00:00 AM"><g transform="translate(0.5,150.5)"><path class="background" aria-hidden="true" d="M0,0h0v0h0Z" pointer-events="none"/><g><g class="mark-rule role-axis-tick" pointer-events="none"><line transform="translate(0,0)" x2="0" y2="5" stroke="#888" stroke-width="1" opacity="1"/><line transform="translate(50,0)" x2="0" y2="5" stroke="#888" stroke-width="1" opacity="1"/><line transform="translate(100,0)" x2="0" y2="5" stroke="#888" stroke-width="1" opacity="1"/><line transform="translate(150,0)" x2="0" y2="5" stroke="#888" stroke-width="1" opacity="1"/><line transform="translate(200,0)" x2="0" y2="5" stroke="#888" stroke-width="1" opacity="1"/></g><g class="mark-text role-axis-label" pointer-events="none"><text text-anchor="start" transform="translate(0,15)" font-family="sans-serif" font-size="10px" fill="#000" opacity="1">2016</text><text text-anchor="middle" transform="translate(50.03422313483915,15)" font-family="sans-serif" font-size="10px" fill="#000" opacity="1">2018</text><text text-anchor="middle" transform="translate(100,15)" font-family="sans-serif" font-size="10px" fill="#000" opacity="1">2020</text><text text-anchor="middle" transform="translate(150.03422313483915,15)" font-family="sans-serif" font-size="10px" fill="#000" opacity="1">2022</text><text text-anchor="end" transform="translate(200,15)" font-family="sans-serif" font-size="10px" fill="#000" opacity="1">2024</text></g><g class="mark-rule role-axis-domain" pointer-events="none"><line transform="translate(0,0)" x2="200" y2="0" stroke="#888" stroke-width="1" opacity="1"/></g></g><path class="foreground" aria-hidden="true" d="" pointer-events="none" display="none"/></g></g><g class="mark-group role-axis" role="graphics-symbol" aria-roledescription="axis" aria-label="Y-axis for a linear scale with values from 0 to 1,600"><g transform="translate(0.5,0.5)"><path class="background" aria-hidden="true" d="M0,0h0v0h0Z" pointer-events="none"/><g><g class="mark-rule role-axis-tick" pointer-events="none"><line transform="translate(0,150)" x2="-5" y2="0" stroke="#888" stroke-opacity="0" stroke-width="1" opacity="1"/><line transform="translate(0,103)" x2="-5" y2="0" stroke="#888" stroke-opacity="0" stroke-width="1" opacity="1"/><line transform="translate(0,56)" x2="-5" y2="0" stroke="#888" stroke-opacity="0" stroke-width="1" opacity="1"/><line transform="translate(0,9)" x2="-5" y2="0" stroke="#888" stroke-opacity="0" stroke-width="1" opacity="1"/></g><g class="mark-text role-axis-label" pointer-events="none"><text text-anchor="end" transform="translate(-7,153)" font-family="sans-serif" font-size="10px" fill="#000" opacity="1">0</text><text text-anchor="end" transform="translate(-7,106.125)" font-family="sans-serif" font-size="10px" fill="#000" opacity="1">500</text><text text-anchor="end" transform="translate(-7,59.25)" font-family="sans-serif" font-size="10px" fill="#000" opacity="1">1,000</text><text text-anchor="end" transform="translate(-7,12.375)" font-family="sans-serif" font-size="10px" fill="#000" opacity="1">1,500</text></g></g><path class="foreground" aria-hidden="true" d="" pointer-events="none" display="none"/></g></g><g class="mark-line role-mark marks" clip-path="url(#clip97)" role="graphics-object" aria-roledescription="line mark container"><path aria-label="day: Jan 01, 2010; avg: 188.333333333" role="graphics-symbol" aria-roledescription="line mark" d="M-149.966,132.344L-149.897,132.834L-149.829,133.2L-149.76,133.241L-149.692,133.141L-149.624,133.056L-149.555,132.728L-149.487,132.025L-149.418,131.531L-149.35,131.838L-149.281,132.166L-149.213,132.119L-149.144,132.225L-149.076,132.044L-149.008,131.294L-148.939,130.941L-148.871,131.356L-148.802,131.838L-148.734,131.822L-148.665,131.647L-148.597,131.441L-148.528,130.681L-148.46,130.028L-148.392,130.8L-148.323,131.294L-148.255,131.394L-148.186,131.491L-148.118,131.222L-148.049,130.669L-147.981,130.131L-147.912,130.909L-147.844,131.4L-147.775,131.309L-147.707,131.366L-147.639,131.138L-147.57,130.353L-147.502,130.053L-147.433,130.691L-147.365,131.4L-147.296,131.531L-147.228,131.509L-147.159,131.403L-147.091,130.969L-147.023,131.053L-146.954,131.656L-146.886,132.4L-146.817,132.728L-146.749,132.853L-146.68,132.681L-146.612,131.847L-146.543,131.206L-146.475,132.097L-146.407,132.891L-146.338,132.994L-146.27,133.013L-146.201,132.759L-146.133,132.031L-146.064,131.806L-145.996,132.388L-145.927,133.109L-145.859,132.966L-145.791,132.819L-145.722,132.531L-145.654,131.541L-145.585,130.794L-145.517,131.328L-145.448,131.788L-145.38,131.722L-145.311,131.725L-145.243,131.525L-145.175,130.581L-145.106,129.887L-145.038,130.066L-144.972,130.341L-144.904,130.169L-144.835,130.059L-144.767,129.825L-144.698,129.009L-144.63,128.403L-144.561,129.409L-144.493,130.328L-144.424,130.166L-144.356,130.106L-144.288,129.775L-144.219,128.853L-144.151,128.378L-144.082,129.059L-144.014,129.459L-143.945,129.497L-143.877,129.394L-143.808,129.203L-143.74,128.344L-143.672,127.863L-143.603,128.809L-143.535,129.797L-143.466,130.075L-143.398,130.15L-143.329,129.872L-143.261,129.131L-143.192,128.666L-143.124,129.637L-143.056,130.534L-142.987,130.619L-142.919,130.459L-142.85,130.394L-142.782,129.375L-142.713,128.516L-142.645,129.253L-142.576,130.188L-142.508,130.153L-142.44,129.925L-142.371,129.659L-142.303,128.506L-142.234,127.697L-142.166,128.503L-142.097,129.141L-142.029,129.122L-141.96,129.125L-141.892,128.922L-141.824,127.756L-141.755,126.563L-141.687,126.416L-141.618,127.234L-141.55,127.306L-141.481,127.459L-141.413,127.359L-141.344,126.738L-141.276,126.384L-141.208,127.05L-141.139,127.7L-141.071,127.834L-141.002,127.619L-140.934,127.469L-140.865,126.531L-140.797,125.909L-140.728,126.881L-140.66,127.925L-140.591,128.072L-140.523,127.962L-140.455,127.684L-140.386,126.853L-140.318,126.012L-140.249,127.206L-140.181,128.359L-140.112,128.647L-140.044,128.722L-139.975,128.547L-139.907,127.759L-139.839,127.347L-139.77,128.666L-139.702,130.359L-139.633,131.684L-139.565,131.622L-139.496,131.231L-139.428,130.066L-139.359,129.147L-139.291,129.137L-139.223,129.922L-139.154,130.122L-139.086,130.231L-139.017,130.075L-138.949,129.503L-138.88,128.969L-138.812,129.925L-138.743,130.903L-138.675,131.072L-138.607,131.225L-138.538,131.088L-138.47,130.469L-138.401,130.144L-138.333,131.134L-138.264,132.472L-138.196,132.594L-138.127,132.578L-138.059,132.516L-137.991,131.806L-137.922,131.516L-137.854,132.378L-137.785,133.028L-137.717,132.991L-137.648,132.994L-137.58,132.756L-137.511,132.113L-137.443,131.713L-137.375,132.628L-137.306,133.588L-137.238,134.244L-137.169,134.284L-137.101,133.972L-137.032,132.878L-136.964,132.103L-136.895,132.8L-136.827,133.572L-136.758,133.653L-136.69,133.606L-136.622,133.269L-136.553,132.041L-136.485,131.188L-136.416,131.8L-136.348,132.484L-136.279,132.531L-136.211,132.375L-136.142,132.163L-136.074,131.081L-136.006,130.291L-135.937,130.9L-135.869,131.391L-135.8,131.425L-135.732,131.347L-135.663,130.95L-135.595,129.653L-135.526,128.584L-135.458,129.284L-135.39,130.156L-135.321,130.288L-135.253,130.416L-135.184,130.247L-135.116,128.813L-135.047,127.313L-134.979,127.019L-134.91,127.828L-134.842,127.991L-134.774,127.819L-134.705,127.484L-134.637,126.231L-134.568,125.709L-134.5,126.866L-134.431,127.75L-134.363,127.794L-134.294,127.884L-134.226,127.666L-134.158,126.578L-134.089,125.744L-134.021,126.759L-133.952,127.438L-133.884,127.512L-133.815,127.5L-133.747,127.172L-133.678,126.284L-133.61,125.534L-133.542,126.653L-133.473,127.847L-133.405,127.891L-133.336,127.728L-133.268,127.509L-133.199,126.475L-133.131,125.803L-133.062,127.153L-132.994,128.844L-132.926,130.188L-132.857,130.131L-132.789,129.688L-132.72,128.834L-132.652,127.866L-132.583,128.797L-132.515,129.613L-132.446,129.575L-132.378,129.534L-132.309,129.328L-132.241,128.403L-132.173,127.863L-132.104,129.106L-132.036,130.081L-131.967,130.053L-131.899,130.138L-131.83,129.891L-131.762,128.941L-131.693,128.503L-131.625,129.428L-131.557,130.516L-131.488,130.588L-131.42,130.569L-131.351,130.431L-131.283,129.563L-131.214,129.047L-131.146,130.031L-131.077,130.856L-131.009,130.916L-130.941,130.956L-130.872,130.691L-130.804,130.125L-130.735,129.938L-130.667,130.978L-130.598,132.288L-130.53,132.603L-130.461,132.441L-130.393,132.134L-130.325,131.288L-130.256,130.647L-130.188,131.453L-130.119,132.241L-130.051,132.25L-129.982,132.241L-129.914,132.078L-129.845,131.441L-129.777,131.081L-129.709,132.025L-129.64,132.825L-129.572,132.656L-129.503,131.984L-129.435,131.356L-129.366,130.781L-129.298,130.425L-129.229,131.328L-129.161,132.053L-129.093,132.138L-129.024,132.219L-128.956,131.956L-128.887,131.416L-128.819,131.141L-128.75,131.834L-128.679,132.4L-128.611,132.353L-128.542,132.428L-128.474,132.209L-128.405,131.769L-128.337,131.519L-128.268,132.475L-128.2,133.447L-128.131,133.559L-128.063,133.531L-127.995,133.319L-127.926,132.738L-127.858,132.413L-127.789,133.053L-127.721,133.706L-127.652,133.734L-127.584,133.638L-127.515,133.166L-127.447,132.781L-127.379,133.172L-127.31,134.016L-127.242,134.784L-127.173,134.878L-127.105,134.844L-127.036,134.341L-126.968,133.516L-126.899,133.397L-126.831,133.941L-126.762,134.522L-126.694,134.528L-126.626,134.447L-126.557,134.256L-126.489,133.556L-126.42,133.188L-126.352,133.784L-126.283,134.378L-126.215,134.369L-126.146,134.197L-126.078,133.891L-126.01,133.416L-125.941,132.944L-125.873,133.341L-125.804,133.897L-125.736,133.913L-125.667,133.869L-125.599,133.688L-125.53,133.088L-125.462,133.394L-125.394,134.487L-125.325,134.691L-125.257,134.469L-125.188,134.272L-125.12,133.888L-125.051,133.238L-124.983,133.25L-124.914,134.019L-124.846,134.363L-124.778,134.388L-124.709,134.316L-124.641,134.113L-124.572,133.45L-124.504,133.125L-124.435,133.713L-124.367,134.331L-124.298,134.359L-124.23,134.291L-124.162,134.15L-124.093,133.672L-124.025,133.328L-123.956,133.709L-123.888,134.294L-123.819,134.525L-123.751,134.453L-123.682,134.181L-123.614,133.7L-123.546,133.444L-123.477,133.909L-123.409,134.191L-123.34,134.166L-123.272,134.097L-123.203,133.806L-123.135,132.941L-123.066,132.528L-122.998,133.15L-122.93,133.509L-122.861,133.541L-122.793,133.375L-122.724,133.034L-122.656,132.431L-122.587,132.172L-122.519,132.875L-122.45,133.313L-122.382,133.325L-122.313,133.259L-122.245,133.059L-122.177,132.359L-122.108,131.963L-122.04,132.391L-121.971,132.878L-121.903,132.903L-121.834,132.738L-121.766,132.391L-121.697,131.734L-121.629,131.484L-121.561,132.006L-121.492,132.553L-121.424,132.75L-121.355,132.875L-121.287,132.709L-121.218,132.103L-121.15,131.834L-121.081,132.647L-121.013,133.291L-120.945,133.222L-120.876,133.363L-120.808,133.069L-120.739,132.541L-120.671,132.341L-120.602,132.925L-120.534,133.338L-120.465,133.3L-120.397,133.278L-120.329,133.056L-120.26,132.384L-120.192,132.022L-120.123,132.7L-120.058,133.366L-119.989,133.519L-119.921,133.538L-119.852,133.316L-119.784,132.994L-119.715,132.878L-119.647,133.491L-119.578,133.994L-119.51,133.853L-119.442,133.559L-119.373,133.278L-119.305,132.566L-119.236,132.006L-119.168,132.538L-119.099,132.931L-119.031,132.953L-118.962,132.938L-118.894,132.788L-118.826,131.756L-118.757,131.434L-118.689,132.028L-118.62,132.45L-118.552,132.459L-118.483,132.35L-118.415,132.103L-118.346,131.269L-118.278,130.653L-118.21,131.197L-118.141,131.631L-118.073,131.628L-118.004,131.463L-117.936,130.997L-117.867,130.191L-117.799,129.9L-117.73,130.406L-117.662,130.844L-117.594,130.878L-117.525,130.903L-117.457,130.519L-117.388,129.55L-117.32,129.103L-117.251,129.744L-117.183,130.369L-117.114,130.422L-117.046,130.381L-116.978,129.997L-116.909,128.872L-116.841,127.916L-116.772,127.759L-116.704,128.306L-116.635,128.372L-116.567,128.425L-116.498,128.153L-116.43,127.156L-116.362,126.584L-116.293,127.456L-116.225,128.241L-116.156,128.334L-116.088,128.525L-116.019,128.456L-115.951,127.719L-115.882,127.331L-115.814,128.163L-115.745,128.725L-115.677,128.669L-115.609,128.6L-115.54,128.456L-115.472,127.2L-115.403,126.297L-115.335,127.328L-115.266,128.081L-115.198,128.219L-115.129,128.387L-115.061,128.125L-114.993,127.272L-114.924,126.838L-114.856,127.806L-114.787,128.928L-114.719,130.05L-114.65,130.006L-114.582,129.688L-114.513,128.666L-114.445,128.003L-114.377,127.753L-114.308,128.344L-114.24,128.541L-114.171,128.506L-114.103,128.463L-114.034,127.484L-113.966,126.819L-113.897,127.594L-113.829,128.45L-113.761,128.506L-113.692,128.456L-113.624,128.191L-113.555,127.141L-113.487,126.438L-113.418,127.666L-113.35,129.166L-113.281,129.359L-113.213,129.403L-113.145,129.338L-113.076,128.938L-113.008,128.884L-112.939,129.922L-112.871,130.794L-112.802,131.103L-112.734,131.206L-112.665,131.059L-112.597,130.488L-112.529,130.075L-112.46,131.156L-112.392,132.184L-112.323,133.706L-112.255,133.997L-112.186,133.428L-112.118,132.528L-112.049,131.575L-111.981,132.434L-111.913,133.384L-111.844,133.391L-111.776,133.331L-111.707,132.878L-111.639,131.697L-111.57,131.391L-111.502,132.497L-111.433,133.463L-111.365,133.363L-111.296,133.238L-111.228,133.038L-111.16,131.972L-111.091,130.975L-111.023,131.313L-110.954,131.8L-110.886,131.716L-110.817,131.772L-110.749,131.866L-110.68,131.869L-110.612,132.228L-110.544,132.881L-110.475,133.566L-110.407,133.509L-110.338,133.275L-110.27,132.731L-110.201,131.363L-110.133,129.991L-110.064,129.544L-109.996,130.588L-109.928,130.719L-109.859,130.678L-109.791,130.488L-109.722,129.556L-109.654,129.022L-109.585,130.231L-109.517,130.922L-109.448,131.075L-109.38,131.106L-109.312,130.85L-109.243,129.734L-109.175,128.797L-109.106,129.772L-109.038,130.747L-108.969,130.828L-108.901,130.759L-108.832,130.663L-108.764,129.709L-108.696,128.722L-108.627,128.759L-108.559,128.594L-108.49,128.622L-108.422,128.622L-108.353,128.391L-108.285,127.859L-108.216,127.525L-108.148,128.95L-108.08,130.766L-108.011,132.216L-107.943,132.166L-107.874,131.669L-107.806,130.453L-107.737,129.581L-107.669,130.266L-107.6,131.247L-107.532,131.366L-107.463,131.438L-107.395,131.169L-107.327,130.278L-107.258,129.863L-107.19,131.022L-107.121,132.009L-107.053,132.069L-106.984,132.066L-106.916,131.831L-106.847,130.975L-106.779,130.391L-106.711,131.272L-106.642,132.131L-106.574,132.063L-106.505,132L-106.437,131.728L-106.368,131.269L-106.3,130.994L-106.231,131.55L-106.163,132.3L-106.095,132.206L-106.026,132.188L-105.958,131.969L-105.889,131.456L-105.821,131.244L-105.752,132.419L-105.684,133.5L-105.615,133.772L-105.547,133.713L-105.479,133.453L-105.41,132.581L-105.342,131.859L-105.273,132.631L-105.205,133.506L-105.136,133.516L-105.068,133.688L-104.999,133.459L-104.931,132.816L-104.863,132.231L-104.794,133.144L-104.726,133.909L-104.657,133.819L-104.589,132.947L-104.52,132.163L-104.452,131.475L-104.383,131.091L-104.315,131.572L-104.247,132.153L-104.178,132.3L-104.11,132.259L-104.041,132.125L-103.973,131.281L-103.904,130.713L-103.836,131.256L-103.765,131.9L-103.696,131.897L-103.628,131.906L-103.559,131.678L-103.491,130.894L-103.422,130.2L-103.354,130.881L-103.285,131.95L-103.217,132.091L-103.149,131.944L-103.08,131.663L-103.012,130.853L-102.943,130.387L-102.875,131.016L-102.806,131.781L-102.738,131.653L-102.669,131.534L-102.601,131.316L-102.533,131.378L-102.464,131.059L-102.396,131.531L-102.327,132.181L-102.259,132.181L-102.19,131.9L-102.122,131.434L-102.053,130.753L-101.985,129.731L-101.916,130.322L-101.848,131.113L-101.78,131.15L-101.711,131.172L-101.643,130.963L-101.574,130.228L-101.506,129.828L-101.437,130.678L-101.369,131.628L-101.3,131.666L-101.232,131.453L-101.164,131.213L-101.095,130.519L-101.027,130.003L-100.958,130.628L-100.89,131.297L-100.821,131.303L-100.753,131.325L-100.684,131.053L-100.616,130.403L-100.548,129.991L-100.479,130.713L-100.411,131.834L-100.342,132.031L-100.274,132.084L-100.205,131.734L-100.137,131.184L-100.068,130.994L-100,131.691L-99.932,132.875L-99.863,133.081L-99.795,133.078L-99.726,132.8L-99.658,132.119L-99.589,131.534L-99.521,132.188L-99.452,132.913L-99.384,132.909L-99.316,132.897L-99.247,132.778L-99.179,131.959L-99.11,131.5L-99.042,132.234L-98.973,132.959L-98.905,133.059L-98.836,133.028L-98.768,132.822L-98.7,131.997L-98.631,131.528L-98.563,132.119L-98.494,132.741L-98.426,132.747L-98.357,132.684L-98.289,132.578L-98.22,131.878L-98.152,131.559L-98.084,132.35L-98.015,133L-97.947,132.991L-97.878,133.009L-97.81,132.788L-97.741,132.053L-97.673,131.431L-97.604,132.075L-97.536,132.809L-97.467,132.838L-97.399,132.588L-97.331,132.253L-97.262,131.403L-97.194,130.709L-97.125,131.391L-97.057,131.931L-96.988,131.803L-96.92,131.719L-96.851,131.425L-96.783,130.5L-96.715,129.928L-96.646,130.719L-96.578,131.638L-96.509,131.625L-96.441,131.572L-96.372,131.275L-96.304,130.4L-96.235,129.747L-96.167,130.369L-96.099,131.059L-96.03,130.953L-95.962,130.894L-95.893,130.672L-95.825,129.884L-95.756,129.166L-95.688,129.881L-95.619,130.656L-95.551,130.559L-95.483,130.609L-95.414,130.297L-95.346,129.569L-95.277,128.85L-95.209,129.456L-95.143,130.206L-95.075,130.306L-95.006,130.275L-94.938,130.019L-94.869,128.956L-94.801,128L-94.732,128.825L-94.664,129.516L-94.596,129.547L-94.527,129.391L-94.459,129.25L-94.39,128.438L-94.322,128.078L-94.253,129.063L-94.185,129.869L-94.116,129.841L-94.048,129.788L-93.98,129.694L-93.911,128.791L-93.843,127.884L-93.774,128.538L-93.706,129.478L-93.637,129.434L-93.569,129.497L-93.5,129.134L-93.432,128.088L-93.364,127.209L-93.295,127.975L-93.227,129.063L-93.158,129.106L-93.09,129.15L-93.021,128.834L-92.953,127.859L-92.884,126.488L-92.816,127.594L-92.748,128.922L-92.679,128.894L-92.611,129.025L-92.542,128.413L-92.474,127.363L-92.405,126.319L-92.337,127.241L-92.268,127.859L-92.2,127.822L-92.132,127.741L-92.063,127.347L-91.995,126.25L-91.926,124.462L-91.858,123.291L-91.789,124.366L-91.721,124.541L-91.652,124.462L-91.584,124.422L-91.516,123.341L-91.447,122.625L-91.379,123.563L-91.31,124.797L-91.242,124.781L-91.173,124.572L-91.105,124.403L-91.036,123.075L-90.968,122.241L-90.899,123.188L-90.831,125.013L-90.763,125.1L-90.694,124.975L-90.626,124.691L-90.557,122.834L-90.489,121.319L-90.42,122.097L-90.352,123.466L-90.283,123.491L-90.215,123.525L-90.147,123.5L-90.078,122.288L-90.01,121.55L-89.941,122.744L-89.873,124.75L-89.804,126.988L-89.736,126.859L-89.667,126.659L-89.599,125.622L-89.531,124.566L-89.462,125.631L-89.394,126.669L-89.325,125.588L-89.257,125.269L-89.188,125.397L-89.12,124.544L-89.051,123.997L-88.983,125.388L-88.915,126.647L-88.846,126.713L-88.778,126.628L-88.709,126.331L-88.641,125.325L-88.572,124.706L-88.504,126.553L-88.435,128.725L-88.367,129.197L-88.299,129.288L-88.23,129.156L-88.162,127.656L-88.093,125.881L-88.025,127.15L-87.956,128.397L-87.888,128.387L-87.819,128.419L-87.751,128.163L-87.683,127.313L-87.614,126.15L-87.546,127.197L-87.477,128.406L-87.409,128.478L-87.34,128.622L-87.272,129.613L-87.203,128.953L-87.135,128.022L-87.067,129.1L-86.998,129.9L-86.93,129.916L-86.861,129.828L-86.793,129.756L-86.724,128.55L-86.656,127.247L-86.587,128.344L-86.519,129.472L-86.45,129.588L-86.382,129.703L-86.314,129.225L-86.245,127.519L-86.177,125.734L-86.108,127.144L-86.04,128.866L-85.971,128.819L-85.903,128.619L-85.834,128.213L-85.766,126.003L-85.698,124.266L-85.629,125.2L-85.561,126.497L-85.492,126.575L-85.424,126.322L-85.355,125.831L-85.287,124.031L-85.218,121.681L-85.15,121.163L-85.082,122.109L-85.013,122.122L-84.945,122.241L-84.876,121.991L-84.808,120.837L-84.739,119.391L-84.671,120.569L-84.602,122.122L-84.534,122.003L-84.466,121.875L-84.397,121.244L-84.329,119.087L-84.26,117.531L-84.192,118.941L-84.123,120.841L-84.055,120.972L-83.986,121.125L-83.918,120.669L-83.85,119.294L-83.781,118.072L-83.713,120.175L-83.644,122.003L-83.576,122.041L-83.507,121.95L-83.439,121.587L-83.37,120.178L-83.302,119.097L-83.234,120.766L-83.165,123.216L-83.097,124.572L-83.028,124.484L-82.96,123.978L-82.891,122.644L-82.823,121.744L-82.754,122.753L-82.686,124.438L-82.617,124.413L-82.549,124.425L-82.481,124.316L-82.412,123.2L-82.344,122.706L-82.275,124.675L-82.207,126.65L-82.138,126.878L-82.07,126.856L-82.001,126.425L-81.933,125.2L-81.865,124.438L-81.796,125.909L-81.728,127.55L-81.659,127.584L-81.591,127.503L-81.522,127.056L-81.454,125.366L-81.385,124.337L-81.317,126.025L-81.249,127.794L-81.18,128.038L-81.112,128.103L-81.043,128.181L-80.975,127.741L-80.906,127.678L-80.838,129.075L-80.769,130.216L-80.701,130.475L-80.633,130.438L-80.564,130.363L-80.496,129.581L-80.427,129.078L-80.359,130.119L-80.29,131.141L-80.222,131.188L-80.153,131.066L-80.085,130.866L-80.017,129.975L-79.948,129.438L-79.88,130.616L-79.811,131.903L-79.743,131.778L-79.674,130.913L-79.606,130.006L-79.537,129.456L-79.469,129.375L-79.401,131.181L-79.332,132.603L-79.264,132.519L-79.195,132.216L-79.127,131.809L-79.058,130.878L-78.99,129.913L-78.921,130.478L-78.85,130.978L-78.782,130.862L-78.713,130.813L-78.645,130.344L-78.576,129.156L-78.508,128.244L-78.439,128.984L-78.371,129.722L-78.303,129.728L-78.234,129.634L-78.166,129.147L-78.097,128.084L-78.029,127.212L-77.96,128.053L-77.892,128.953L-77.823,128.872L-77.755,128.756L-77.687,128.631L-77.618,128.756L-77.55,128.716L-77.481,128.363L-77.413,127.916L-77.344,127.781L-77.276,127.672L-77.207,127.303L-77.139,126.709L-77.07,126.116L-77.002,126.469L-76.934,126.488L-76.865,126.375L-76.797,126.238L-76.728,125.981L-76.66,125.2L-76.591,124.684L-76.523,125.703L-76.454,126.734L-76.386,126.756L-76.318,126.709L-76.249,126.413L-76.181,125.284L-76.112,124.694L-76.044,125.688L-75.975,126.744L-75.907,126.784L-75.838,126.684L-75.77,126.388L-75.702,125.581L-75.633,124.894L-75.565,125.294L-75.496,126.253L-75.428,127.241L-75.359,128.284L-75.291,127.959L-75.222,127.253L-75.154,126.641L-75.086,127.241L-75.017,128.066L-74.949,128.638L-74.88,129.603L-74.812,129.403L-74.743,128.431L-74.675,127.497L-74.606,128.206L-74.538,129.038L-74.47,129.128L-74.401,129.147L-74.333,128.891L-74.264,128.147L-74.196,127.541L-74.127,128.603L-74.059,129.631L-73.99,129.672L-73.922,129.478L-73.854,129.119L-73.785,128.319L-73.717,127.663L-73.648,128.328L-73.58,129.259L-73.511,129.634L-73.443,129.531L-73.374,129.313L-73.306,128.216L-73.238,127.616L-73.169,128.306L-73.101,129.281L-73.032,129.309L-72.964,129.247L-72.895,128.925L-72.827,128.013L-72.758,127.288L-72.69,128.422L-72.621,129.572L-72.553,129.653L-72.485,129.606L-72.416,129.262L-72.348,128.197L-72.279,127.475L-72.211,128.191L-72.142,129.181L-72.074,129.206L-72.005,129.203L-71.937,128.772L-71.869,127.881L-71.8,127.128L-71.732,127.934L-71.663,128.934L-71.595,129.003L-71.526,128.931L-71.458,128.459L-71.389,127.509L-71.321,126.666L-71.253,127.603L-71.184,128.481L-71.116,128.378L-71.047,128.091L-70.979,127.581L-70.91,126.669L-70.842,125.722L-70.773,126.506L-70.705,127.413L-70.637,127.297L-70.568,127.156L-70.5,126.794L-70.431,125.753L-70.363,125.159L-70.294,126.138L-70.229,126.916L-70.16,126.847L-70.092,126.75L-70.023,126.503L-69.955,125.194L-69.886,124.434L-69.818,125.434L-69.75,126.563L-69.681,126.622L-69.613,126.481L-69.544,126.313L-69.476,125.181L-69.407,124.237L-69.339,125.197L-69.27,126.272L-69.202,126.269L-69.134,126.297L-69.065,126.169L-68.997,124.916L-68.928,123.781L-68.86,124.656L-68.791,125.819L-68.723,125.791L-68.654,125.622L-68.586,125.216L-68.518,123.528L-68.449,122.156L-68.381,123.041L-68.312,123.897L-68.244,123.875L-68.175,123.934L-68.107,123.638L-68.038,121.878L-67.97,120.272L-67.902,121.478L-67.833,122.659L-67.765,122.559L-67.696,122.325L-67.628,121.706L-67.559,119.859L-67.491,118.522L-67.422,119.553L-67.354,120.747L-67.286,120.647L-67.217,120.625L-67.149,120.547L-67.08,119.766L-67.012,117.763L-66.943,117.041L-66.875,118.388L-66.806,118.356L-66.738,118.066L-66.67,117.769L-66.601,116.453L-66.533,115.466L-66.464,117.288L-66.396,118.909L-66.327,118.981L-66.259,118.981L-66.19,118.95L-66.122,117.334L-66.054,115.475L-65.985,117.238L-65.917,119.259L-65.848,119.259L-65.78,119.291L-65.711,119.091L-65.643,116.825L-65.574,114.388L-65.506,116.125L-65.437,117.772L-65.369,117.775L-65.301,117.697L-65.232,117.244L-65.164,115.072L-65.095,113.328L-65.027,114.053L-64.958,116.306L-64.89,118.541L-64.821,118.869L-64.753,118.719L-64.685,117.516L-64.616,116.419L-64.548,117.881L-64.479,119.328L-64.411,119.253L-64.342,117.928L-64.274,117.316L-64.205,116.044L-64.137,114.772L-64.069,116.588L-64,118.9L-63.932,119.084L-63.863,119.05L-63.795,119.084L-63.726,117.844L-63.658,116.7L-63.589,119.191L-63.521,122.322L-63.453,122.644L-63.384,122.719L-63.316,122.8L-63.247,122.106L-63.179,121.2L-63.11,123.388L-63.042,125.413L-62.973,125.631L-62.905,125.712L-62.837,125.347L-62.768,123.506L-62.7,122.05L-62.631,123.644L-62.563,125.216L-62.494,125.166L-62.426,125.181L-62.357,124.913L-62.289,124.656L-62.221,123.472L-62.152,124.625L-62.084,125.931L-62.015,125.847L-61.947,125.709L-61.878,125.453L-61.81,123.613L-61.741,121.566L-61.673,122.744L-61.604,124.241L-61.536,124.109L-61.468,123.928L-61.399,123.288L-61.331,121.05L-61.262,118.853L-61.194,119.706L-61.125,121.241L-61.057,121.231L-60.988,121.122L-60.92,120.65L-60.852,118.303L-60.783,116.041L-60.715,117.697L-60.646,119.434L-60.578,119.463L-60.509,119.394L-60.441,119.078L-60.372,117.159L-60.304,115.288L-60.236,115.859L-60.167,117.709L-60.099,117.719L-60.03,117.688L-59.962,117.175L-59.893,115.266L-59.825,113.572L-59.756,115.278L-59.688,117.341L-59.62,117.456L-59.551,117.6L-59.483,117.4L-59.414,116.047L-59.346,114.788L-59.277,116.909L-59.209,119.203L-59.14,119.209L-59.072,119.35L-59.004,118.966L-58.935,117.613L-58.867,116.9L-58.798,119.109L-58.73,121.609L-58.661,121.619L-58.593,121.462L-58.524,121.072L-58.456,119.337L-58.388,118.119L-58.319,119.981L-58.251,122.197L-58.182,123.216L-58.114,123.175L-58.045,123.006L-57.977,121.753L-57.908,120.981L-57.84,122.975L-57.772,124.831L-57.703,124.884L-57.635,124.922L-57.566,124.512L-57.498,123.109L-57.429,122.1L-57.361,123.356L-57.292,125.125L-57.224,125.128L-57.155,125.1L-57.087,124.675L-57.019,123.253L-56.95,122.506L-56.882,123.897L-56.813,124.934L-56.745,125.072L-56.676,125.172L-56.608,124.963L-56.539,123.934L-56.471,122.947L-56.403,124.744L-56.334,126.472L-56.266,126.503L-56.197,126.313L-56.129,125.813L-56.06,124.303L-55.992,123.391L-55.923,124.775L-55.855,126.006L-55.787,126.044L-55.718,126.075L-55.65,125.728L-55.581,124.738L-55.513,124.212L-55.444,125.388L-55.376,126.841L-55.307,127.122L-55.239,127.244L-55.171,126.947L-55.102,125.825L-55.034,125.147L-54.965,126.509L-54.897,127.731L-54.828,127.788L-54.76,127.75L-54.691,127.391L-54.623,126.297L-54.555,125.934L-54.486,127.172L-54.418,128.559L-54.349,128.391L-54.281,127.344L-54.212,126.353L-54.144,125.65L-54.075,125.431L-54.007,127.172L-53.936,128.431L-53.867,128.466L-53.799,128.509L-53.73,128.175L-53.662,127.144L-53.593,126.316L-53.525,127.381L-53.457,128.275L-53.388,128.369L-53.32,128.253L-53.251,127.891L-53.183,126.828L-53.114,126.366L-53.046,127.494L-52.977,128.597L-52.909,128.459L-52.841,128.338L-52.772,127.925L-52.704,126.866L-52.635,126.038L-52.567,126.863L-52.498,126.797L-52.43,125.169L-52.361,124.909L-52.293,124.853L-52.225,125.091L-52.156,125.525L-52.088,126.188L-52.019,126.497L-51.951,124.841L-51.882,124.844L-51.814,124.572L-51.745,124.047L-51.677,123.594L-51.608,124.609L-51.54,125.919L-51.472,125.925L-51.403,125.959L-51.335,125.766L-51.266,124.609L-51.198,123.719L-51.129,124.656L-51.061,125.463L-50.992,125.444L-50.924,125.463L-50.856,125.1L-50.787,124.209L-50.719,123.375L-50.65,124.253L-50.582,125.463L-50.513,125.813L-50.445,126.634L-50.376,128.031L-50.308,127.216L-50.24,126.438L-50.171,127.156L-50.103,127.603L-50.034,127.772L-49.966,128.159L-49.897,129.369L-49.829,128.222L-49.76,127.281L-49.692,127.65L-49.624,128.438L-49.555,128.331L-49.487,128.159L-49.418,127.681L-49.35,126.528L-49.281,125.881L-49.213,126.944L-49.144,128.166L-49.076,128.184L-49.008,128.056L-48.939,127.659L-48.871,126.475L-48.802,125.834L-48.734,126.384L-48.665,127.488L-48.597,127.666L-48.528,127.694L-48.46,127.131L-48.392,125.863L-48.323,124.816L-48.255,125.741L-48.186,126.672L-48.118,126.738L-48.049,126.841L-47.981,126.541L-47.912,125.478L-47.844,124.922L-47.775,126L-47.707,127.153L-47.639,127.316L-47.57,127.15L-47.502,126.894L-47.433,125.797L-47.365,125.094L-47.296,126.153L-47.228,127L-47.159,127.072L-47.091,127.031L-47.023,126.619L-46.954,125.494L-46.886,124.556L-46.817,125.628L-46.749,126.616L-46.68,127.009L-46.612,126.959L-46.543,126.619L-46.475,125.253L-46.407,124.541L-46.338,125.644L-46.27,126.888L-46.201,126.944L-46.133,126.919L-46.064,126.259L-45.996,125.013L-45.927,124.438L-45.859,125.606L-45.791,126.409L-45.722,126.391L-45.654,126.275L-45.585,125.956L-45.517,124.919L-45.448,123.959L-45.38,125.116L-45.314,126.197L-45.246,126.181L-45.177,126.053L-45.109,125.484L-45.04,123.869L-44.972,122.525L-44.904,123.484L-44.835,124.759L-44.767,124.766L-44.698,124.572L-44.63,124.088L-44.561,122.719L-44.493,121.503L-44.424,122.544L-44.356,123.613L-44.288,123.684L-44.219,123.609L-44.151,123.05L-44.082,121.359L-44.014,120.306L-43.945,121.319L-43.877,122.231L-43.808,122.25L-43.74,122.241L-43.672,121.597L-43.603,119.778L-43.535,118.478L-43.466,119.384L-43.398,120.463L-43.329,120.406L-43.261,120.312L-43.192,119.716L-43.124,117.856L-43.056,115.156L-42.987,116.391L-42.919,118.097L-42.85,118.303L-42.782,118.428L-42.713,118.053L-42.645,115.884L-42.576,113.869L-42.508,115.222L-42.44,116.581L-42.371,116.631L-42.303,116.563L-42.234,116.081L-42.166,114.347L-42.097,110.903L-42.029,109.056L-41.96,110.303L-41.892,110.606L-41.824,110.403L-41.755,109.788L-41.687,106.916L-41.618,104.713L-41.55,106.288L-41.481,107.881L-41.413,107.875L-41.344,107.834L-41.276,107.156L-41.208,104.497L-41.139,102.231L-41.071,104.05L-41.002,107.159L-40.934,107.416L-40.865,107.3L-40.797,106.938L-40.728,103.672L-40.66,99.531L-40.591,101.381L-40.523,103.706L-40.455,103.803L-40.386,103.994L-40.318,103.566L-40.249,100.762L-40.181,98.503L-40.112,99.925L-40.044,103.759L-39.975,107.275L-39.907,107.438L-39.839,106.456L-39.77,103.594L-39.702,101.259L-39.633,103.909L-39.565,106.763L-39.496,107.156L-39.428,107.156L-39.359,105.603L-39.291,102.219L-39.223,100.091L-39.154,102.719L-39.086,105.622L-39.017,105.797L-38.949,105.828L-38.88,105.431L-38.812,103.353L-38.743,101.212L-38.675,104.428L-38.607,109.153L-38.538,109.522L-38.47,109.484L-38.401,108.775L-38.333,106.188L-38.264,104.316L-38.196,107.122L-38.127,109.825L-38.059,110.206L-37.991,110.3L-37.922,109.672L-37.854,107.259L-37.785,105.775L-37.717,108.531L-37.648,111.212L-37.58,111.356L-37.511,111.284L-37.443,110.603L-37.375,108.072L-37.306,107.278L-37.238,110.753L-37.169,113.384L-37.101,113.313L-37.032,113.028L-36.964,112.266L-36.895,109.578L-36.827,107.419L-36.758,109.472L-36.69,112.038L-36.622,111.947L-36.553,111.684L-36.485,111.003L-36.416,107.791L-36.348,105.409L-36.279,107.753L-36.211,110.072L-36.142,110.031L-36.074,109.869L-36.006,109.338L-35.937,105.847L-35.869,103.391L-35.8,105.769L-35.732,108.072L-35.663,108.3L-35.595,108.228L-35.526,107.519L-35.458,104.441L-35.39,101.85L-35.321,102.231L-35.253,104.613L-35.184,104.816L-35.116,104.934L-35.047,104.691L-34.979,103.109L-34.91,101.881L-34.842,104.647L-34.774,107.431L-34.705,107.556L-34.637,107.503L-34.568,106.916L-34.5,105.072L-34.431,103.678L-34.363,106.909L-34.294,109.966L-34.226,110.113L-34.158,110.091L-34.089,109.584L-34.021,107.025L-33.952,105.05L-33.884,108.538L-33.815,111.619L-33.747,111.816L-33.678,111.656L-33.61,110.825L-33.542,108.256L-33.473,106.684L-33.405,109.725L-33.336,113.038L-33.268,115.128L-33.199,115.141L-33.131,114.356L-33.062,112.581L-32.994,111.203L-32.926,113L-32.857,114.847L-32.789,114.75L-32.72,114.522L-32.652,113.809L-32.583,112.013L-32.515,110.359L-32.446,111.825L-32.378,113.963L-32.309,114.072L-32.241,114.016L-32.173,113.637L-32.104,112.041L-32.036,111.288L-31.967,114.069L-31.899,116.513L-31.83,116.559L-31.762,116.637L-31.693,116.091L-31.625,114.341L-31.557,113.309L-31.488,116.066L-31.42,118.472L-31.351,118.572L-31.283,118.303L-31.214,117.622L-31.146,116.1L-31.077,115.509L-31.009,117.403L-30.941,119.178L-30.872,119.219L-30.804,119.278L-30.735,118.878L-30.667,117.791L-30.598,117.259L-30.53,118.894L-30.461,121.012L-30.393,121.466L-30.325,121.462L-30.256,121.125L-30.188,119.722L-30.119,118.975L-30.051,120.697L-29.982,122.306L-29.914,122.366L-29.845,122.313L-29.777,121.947L-29.709,120.409L-29.64,119.738L-29.572,121.65L-29.503,123.556L-29.435,123.384L-29.366,122.144L-29.298,120.978L-29.229,120.128L-29.161,119.781L-29.093,121.369L-29.021,122.569L-28.953,122.488L-28.884,122.431L-28.816,122.097L-28.747,120.881L-28.679,120.322L-28.611,121.503L-28.542,122.903L-28.474,123.072L-28.405,123.116L-28.337,122.747L-28.268,121.409L-28.2,120.45L-28.131,121.922L-28.063,123.153L-27.995,123.069L-27.926,122.891L-27.858,122.372L-27.789,121.288L-27.721,120.438L-27.652,121.884L-27.584,123.047L-27.515,121.859L-27.447,119.466L-27.379,119.244L-27.31,119.609L-27.242,119.778L-27.173,120.709L-27.105,121.619L-27.036,121.012L-26.968,119.125L-26.899,118.734L-26.831,117.909L-26.762,117.294L-26.694,118.459L-26.626,119.553L-26.557,119.694L-26.489,119.613L-26.42,119.263L-26.352,118.291L-26.283,117.594L-26.215,118.944L-26.146,120.259L-26.078,120.312L-26.01,120.394L-25.941,120.084L-25.873,118.825L-25.804,118.097L-25.736,118.881L-25.667,119.997L-25.599,119.953L-25.53,120.009L-25.462,120.738L-25.394,121.847L-25.325,120.922L-25.257,121.725L-25.188,122.588L-25.12,122.597L-25.051,122.684L-24.983,123.025L-24.914,123.869L-24.846,122.844L-24.778,123.644L-24.709,124.609L-24.641,124.769L-24.572,124.816L-24.504,124.369L-24.435,123.109L-24.367,122.281L-24.298,123.428L-24.23,124.609L-24.162,124.609L-24.093,124.6L-24.025,124.253L-23.956,123.175L-23.888,122.644L-23.819,123.644L-23.751,124.691L-23.682,124.9L-23.614,124.95L-23.546,124.556L-23.477,123.497L-23.409,122.897L-23.34,124.15L-23.272,125.516L-23.203,125.644L-23.135,125.778L-23.066,125.384L-22.998,124.234L-22.93,123.438L-22.861,124.569L-22.793,126.066L-22.724,126.159L-22.656,125.975L-22.587,125.478L-22.519,124.288L-22.45,123.547L-22.382,124.625L-22.313,125.791L-22.245,125.675L-22.177,125.434L-22.108,125.109L-22.04,123.784L-21.971,122.85L-21.903,123.913L-21.834,124.822L-21.766,125.063L-21.697,125.05L-21.629,124.806L-21.561,123.525L-21.492,122.556L-21.424,123.531L-21.355,124.641L-21.287,124.694L-21.218,124.653L-21.15,124.041L-21.081,122.731L-21.013,121.803L-20.945,123.016L-20.876,124.122L-20.808,124.056L-20.739,123.828L-20.671,123.316L-20.602,122.363L-20.534,121.359L-20.465,122.169L-20.4,123.088L-20.331,123.059L-20.263,122.844L-20.195,122.441L-20.126,120.981L-20.058,119.581L-19.989,120.875L-19.921,122.103L-19.852,121.922L-19.784,121.841L-19.715,121.247L-19.647,118.844L-19.578,117.391L-19.51,118.638L-19.442,119.994L-19.373,120.122L-19.305,120.097L-19.236,119.669L-19.168,117.678L-19.099,116.266L-19.031,117.503L-18.962,118.856L-18.894,118.719L-18.826,118.538L-18.757,117.994L-18.689,116.141L-18.62,113.647L-18.552,114.419L-18.483,115.606L-18.415,115.675L-18.346,115.428L-18.278,114.788L-18.21,112.316L-18.141,108.878L-18.073,110.119L-18.004,111.619L-17.936,111.694L-17.867,111.369L-17.799,110.763L-17.73,108.691L-17.662,107.012L-17.594,109.356L-17.525,111.056L-17.457,111.059L-17.388,110.969L-17.32,110.256L-17.251,107.684L-17.183,103.784L-17.114,102.091L-17.046,103.644L-16.978,103.684L-16.909,103.463L-16.841,102.691L-16.772,99.781L-16.704,98.344L-16.635,100.197L-16.567,103.194L-16.498,103.337L-16.43,103.213L-16.362,102.581L-16.293,99.506L-16.225,97L-16.156,99.422L-16.088,103.175L-16.019,103.209L-15.951,103.384L-15.882,102.697L-15.814,100.25L-15.745,98.663L-15.677,100.753L-15.609,103.069L-15.54,103.084L-15.472,103.022L-15.403,102.378L-15.335,99.894L-15.266,97.328L-15.198,99.644L-15.129,103.962L-15.061,107.559L-14.993,107.747L-14.924,107.031L-14.856,105.466L-14.787,104.378L-14.719,107.041L-14.65,108.984L-14.582,108.972L-14.513,108.659L-14.445,107.638L-14.377,104.438L-14.308,101.681L-14.24,104.938L-14.171,108.294L-14.103,108.597L-14.034,108.709L-13.966,108.403L-13.897,106.116L-13.829,104.322L-13.761,106.916L-13.692,109.275L-13.624,109.338L-13.555,108.981L-13.487,108.366L-13.418,105.95L-13.35,104.547L-13.281,107.175L-13.213,110.475L-13.145,110.584L-13.076,110.341L-13.008,109.863L-12.939,107.247L-12.871,105.659L-12.802,106.975L-12.734,108.991L-12.665,109.444L-12.597,109.503L-12.529,109.087L-12.46,107.147L-12.392,106.209L-12.323,109.428L-12.255,112.966L-12.186,113.069L-12.118,112.788L-12.049,112.016L-11.981,109.169L-11.913,107.109L-11.844,109.334L-11.776,111.825L-11.707,111.95L-11.639,111.719L-11.57,111.056L-11.502,108.734L-11.433,107.197L-11.365,109.719L-11.296,111.663L-11.228,111.722L-11.16,111.559L-11.091,111.156L-11.023,108.453L-10.954,106.297L-10.886,108.963L-10.817,111.203L-10.749,111.616L-10.68,111.325L-10.612,110.413L-10.544,107.028L-10.475,104.684L-10.407,106.781L-10.338,108.913L-10.27,109.087L-10.201,109.078L-10.133,108.453L-10.064,105.759L-9.996,102.291L-9.928,102.066L-9.859,104.663L-9.791,104.931L-9.722,104.988L-9.654,104.438L-9.585,102.891L-9.517,101.916L-9.448,104.356L-9.38,106.484L-9.312,106.341L-9.243,106.397L-9.175,105.85L-9.106,103.253L-9.038,101.331L-8.969,104.178L-8.901,106.809L-8.832,106.603L-8.764,106.419L-8.696,105.681L-8.627,102.844L-8.559,100.994L-8.49,104.2L-8.422,107.159L-8.353,107.316L-8.285,107.262L-8.216,107.119L-8.148,105.887L-8.08,105.113L-8.011,107.988L-7.943,112.113L-7.874,115.156L-7.806,115.116L-7.737,114.522L-7.669,112.506L-7.6,110.972L-7.532,112.375L-7.463,113.9L-7.395,114.113L-7.327,114.347L-7.258,114.047L-7.19,112.644L-7.121,111.778L-7.053,114.528L-6.984,117.034L-6.916,117.166L-6.847,117.169L-6.779,117.087L-6.711,115.625L-6.642,114.769L-6.574,117.906L-6.505,120.703L-6.437,120.938L-6.368,120.9L-6.3,120.316L-6.231,118.394L-6.163,116.8L-6.095,118.038L-6.026,119.469L-5.958,119.488L-5.889,119.469L-5.821,118.897L-5.752,117.556L-5.684,116.663L-5.615,118.503L-5.547,120.7L-5.479,120.947L-5.41,121.047L-5.342,120.797L-5.273,119.497L-5.205,118.731L-5.136,120.128L-5.068,121.578L-4.999,121.572L-4.931,121.544L-4.863,121.088L-4.794,119.847L-4.726,119.047L-4.657,120.8L-4.589,122.463L-4.52,122.031L-4.452,120.35L-4.383,118.922L-4.315,117.953L-4.247,117.522L-4.178,119.525L-4.107,121.322L-4.038,121.278L-3.97,121.294L-3.901,120.837L-3.833,119.456L-3.765,118.684L-3.696,120.147L-3.628,121.516L-3.559,121.525L-3.491,121.459L-3.422,120.847L-3.354,118.797L-3.285,117.084L-3.217,118.278L-3.149,119.525L-3.08,119.509L-3.012,119.372L-2.943,118.828L-2.875,117.434L-2.806,116.769L-2.738,118.097L-2.669,119.247L-2.601,119.009L-2.533,117.781L-2.464,115.025L-2.396,115.666L-2.327,115.988L-2.259,116.838L-2.19,117.688L-2.122,117.344L-2.053,116.531L-1.985,113.95L-1.916,113.091L-1.848,112.572L-1.78,114.013L-1.711,115.469L-1.643,115.453L-1.574,115.425L-1.506,115.181L-1.437,113.875L-1.369,113.575L-1.3,115.691L-1.232,117.656L-1.164,117.756L-1.095,117.744L-1.027,117.528L-0.958,116.375L-0.89,115.525L-0.821,116.753L-0.753,117.85L-0.684,117.931L-0.616,117.962L-0.548,117.803L-0.479,118.35L-0.411,121.144L-0.342,122.022L-0.274,123.047L-0.205,123.041L-0.137,123.097L-0.068,122.981L0,122.459L0.068,123.788L0.137,124.588L0.205,125.55L0.274,125.559L0.342,125.322L0.411,124.875L0.479,123.65L0.548,122.331L0.616,123.403L0.684,124.506L0.753,124.444L0.821,124.566L0.89,124.013L0.958,123.059L1.027,122.169L1.095,123.006L1.164,124.359L1.232,124.303L1.3,124.172L1.369,123.634L1.437,122.466L1.506,121.475L1.574,122.066L1.643,122.509L1.711,122.625L1.78,122.65L1.848,122.441L1.916,121.306L1.985,120.587L2.053,121.991L2.122,123.372L2.19,123.469L2.259,123.516L2.327,123.147L2.396,121.919L2.464,121.059L2.533,122.181L2.601,123.775L2.669,123.794L2.738,123.353L2.806,122.756L2.875,120.9L2.943,119.903L3.012,120.816L3.08,121.966L3.149,122.244L3.217,122.047L3.285,121.872L3.354,120.262L3.422,119.447L3.491,120.722L3.559,122.047L3.628,121.803L3.696,121.397L3.765,120.734L3.833,119.072L3.901,117.909L3.97,119.122L4.038,120.266L4.107,120.244L4.175,120.153L4.244,119.303L4.312,117.463L4.381,116.375L4.449,117.738L4.517,119.016L4.586,119.078L4.654,118.891L4.723,118.55L4.791,117.447L4.86,116.919L4.928,118.594L4.994,119.941L5.062,119.978L5.131,119.928L5.199,119.316L5.268,117.713L5.336,115.769L5.404,117.172L5.473,118.303L5.541,118.113L5.61,118.013L5.678,117.369L5.747,115.409L5.815,113.825L5.884,115.184L5.952,116.419L6.02,116.109L6.089,115.775L6.157,115.15L6.226,112.55L6.294,111.331L6.363,113.156L6.431,114.541L6.5,114.544L6.568,114.294L6.636,113.831L6.705,111.681L6.773,109.422L6.842,110.631L6.91,111.575L6.979,111.275L7.047,110.972L7.116,110.344L7.184,107.919L7.252,106.616L7.321,108.222L7.389,110.347L7.458,110.409L7.526,110.256L7.595,109.031L7.663,106.387L7.732,104.772L7.8,106.663L7.868,108.525L7.937,108.1L8.005,107.859L8.074,107.234L8.142,104.619L8.211,100.937L8.279,101.728L8.348,103.541L8.416,103.275L8.484,103.125L8.553,102.294L8.621,99.691L8.69,98.1L8.758,100.241L8.827,102.944L8.895,103.094L8.964,102.988L9.032,102.303L9.101,99.766L9.169,97.9L9.237,100.244L9.306,101.966L9.374,101.925L9.443,101.916L9.511,101.281L9.58,98.022L9.648,94.609L9.717,96.906L9.785,99.369L9.853,99.503L9.922,99.694L9.99,99.466L10.059,96.509L10.127,94.406L10.196,97.15L10.264,101.359L10.333,103.106L10.401,102.953L10.469,102.859L10.538,100.55L10.606,96.775L10.675,96.297L10.743,97.956L10.812,98L10.88,98.119L10.949,98.041L11.017,96.125L11.085,94.566L11.154,97.106L11.222,99.369L11.291,99.453L11.359,99.7L11.428,99.409L11.496,97.337L11.565,95.478L11.633,98.969L11.701,103.709L11.77,104.038L11.838,103.962L11.907,103.603L11.975,101.766L12.044,100.259L12.112,103.75L12.181,106.778L12.249,107.019L12.317,107.066L12.386,106.85L12.454,105.459L12.523,103.934L12.591,106.266L12.66,110.603L12.728,113.672L12.797,113.894L12.865,113.337L12.933,110.903L13.002,108.206L13.07,110.231L13.139,112.731L13.207,113.188L13.276,113.462L13.344,113.181L13.413,111.378L13.481,110.044L13.55,112.306L13.618,115.05L13.686,115.213L13.755,115.147L13.823,114.769L13.892,112.559L13.96,111.006L14.029,112.794L14.097,115.016L14.166,114.85L14.234,114.678L14.302,114.122L14.371,111.681L14.439,108.969L14.508,109.897L14.576,111.359L14.645,111.522L14.713,111.706L14.782,111.225L14.85,108.059L14.918,104.356L14.987,104.091L15.055,106.769L15.124,106.956L15.192,106.547L15.261,105.672L15.329,103.691L15.398,101.591L15.466,103.088L15.534,104.922L15.603,104.984L15.671,104.716L15.74,104.009L15.808,101.044L15.877,98.7L15.945,101.078L16.014,101.853L16.082,100.522L16.15,100.688L16.219,100.184L16.287,97.722L16.356,95.569L16.424,97.95L16.493,100.937L16.561,101.853L16.63,102.166L16.698,101.797L16.766,99.797L16.835,98.641L16.903,101.731L16.972,106.009L17.04,108.587L17.109,108.538L17.177,107.941L17.246,106.344L17.314,105.628L17.383,107.416L17.451,109.863L17.519,109.903L17.588,109.756L17.656,109.2L17.725,107.6L17.793,106.447L17.862,109.334L17.93,112.147L17.999,112.122L18.067,113.397L18.135,114.45L18.204,112.928L18.272,111.981L18.341,114.563L18.409,117.322L18.478,117.531L18.546,117.553L18.615,116.991L18.683,114.522L18.751,112.225L18.82,114.141L18.888,115.866L18.957,116.097L19.025,116.144L19.094,115.809L19.162,114.366L19.231,113.916L19.299,115.628L19.367,117.15L19.436,117.394L19.504,117.419L19.573,117.228L19.641,115.763L19.71,115.169L19.778,116.956L19.847,118.747L19.915,119.003L19.983,119.009L20.052,118.413L20.12,116.831L20.189,116.438L20.257,118.009L20.326,119.588L20.394,119.278L20.463,117.675L20.531,116.081L20.599,114.966L20.668,114.4L20.736,116.997L20.805,119.756L20.873,120.022L20.942,120.141L21.01,119.716L21.079,118.263L21.147,117.294L21.215,118.963L21.287,119.875L21.355,120.169L21.424,120.291L21.492,119.553L21.561,118.056L21.629,117.097L21.697,118.694L21.766,119.728L21.834,119.731L21.903,119.688L21.971,119.019L22.04,117.544L22.108,116.6L22.177,118.178L22.245,119.031L22.313,119.038L22.382,118.903L22.45,118.753L22.519,118.884L22.587,117.906L22.656,118.678L22.724,119.488L22.793,119.319L22.861,119.166L22.93,118.497L22.998,117.469L23.066,115.1L23.135,116.325L23.203,117.681L23.272,117.656L23.34,117.806L23.409,117.513L23.477,116.328L23.546,115.969L23.614,117.481L23.682,118.922L23.751,118.994L23.819,119.019L23.888,118.45L23.956,117.006L24.025,116.181L24.093,117.306L24.162,118.866L24.23,118.909L24.298,118.853L24.367,118.3L24.435,116.863L24.504,115.744L24.572,117.138L24.641,119.688L24.709,120L24.778,120.206L24.846,119.731L24.914,118.319L24.983,117.353L25.051,118.45L25.12,121.363L25.188,121.631L25.257,121.659L25.325,121.216L25.394,119.866L25.462,118.909L25.53,119.897L25.599,120.991L25.667,120.988L25.736,120.769L25.804,120.353L25.873,119.094L25.941,118.494L26.01,120.041L26.078,121.325L26.146,121.653L26.215,121.625L26.283,121.378L26.352,119.947L26.42,118.694L26.489,119.838L26.557,121.406L26.626,121.372L26.694,121.066L26.762,120.4L26.831,119.041L26.899,118.688L26.968,120.097L27.036,121.634L27.105,121.553L27.173,121.494L27.242,121.166L27.31,120.156L27.379,119.363L27.447,120.678L27.515,122.078L27.584,122.222L27.652,122.238L27.721,121.781L27.789,120.966L27.858,120.128L27.926,121.294L27.995,122.116L28.063,122.078L28.131,122.056L28.2,121.684L28.268,120.666L28.337,119.4L28.405,120.825L28.474,122.456L28.542,122.897L28.611,123.163L28.679,122.688L28.747,121.319L28.816,120.563L28.884,121.762L28.953,122.653L29.021,122.712L29.09,122.666L29.158,122.506L29.227,121.234L29.295,119.875L29.363,120.834L29.432,122.081L29.5,121.994L29.569,121.85L29.637,121.431L29.706,119.772L29.774,118.234L29.843,118.634L29.908,119.044L29.977,118.85L30.045,118.978L30.114,118.091L30.182,116.484L30.25,114.225L30.319,114.75L30.387,116.256L30.456,116.422L30.524,116.556L30.593,116.034L30.661,113.925L30.73,112.459L30.798,113.931L30.866,115.506L30.935,115.691L31.003,115.588L31.072,114.241L31.14,110.909L31.209,108.688L31.277,109.753L31.346,111.419L31.414,111.475L31.482,111.256L31.551,110.853L31.619,108.884L31.688,107.484L31.756,108.891L31.825,110.794L31.893,111.216L31.962,111.859L32.03,111.328L32.098,109.906L32.167,108.503L32.235,109.972L32.304,112.397L32.372,112.538L32.441,112.147L32.509,111.369L32.578,108.675L32.646,106.306L32.714,108.163L32.783,109.888L32.851,109.731L32.92,109.619L32.988,108.944L33.057,105.609L33.125,102.425L33.194,104.044L33.262,106.353L33.33,106.297L33.399,105.934L33.467,105.003L33.536,101.472L33.604,98.669L33.673,100.575L33.741,102.309L33.81,102.184L33.878,101.881L33.946,101.038L34.015,97.366L34.083,94.713L34.152,96.216L34.22,98.466L34.289,98.722L34.357,98.731L34.426,98.556L34.494,96.313L34.563,92.831L34.631,95.444L34.699,98.153L34.768,98.053L34.836,98.013L34.905,97.803L34.973,95.134L35.042,92.553L35.11,95.703L35.179,99.991L35.247,101.481L35.315,101.25L35.384,100.834L35.452,98.731L35.521,96.644L35.589,99.281L35.658,99.547L35.726,98.869L35.795,98.663L35.863,98.538L35.931,96.622L36,94.269L36.068,97.828L36.137,101.356L36.205,101.541L36.274,101.578L36.342,101.372L36.411,99.044L36.479,96.566L36.547,98.909L36.616,103.306L36.684,103.278L36.753,103.381L36.821,102.906L36.89,101.287L36.958,100.113L37.027,102.659L37.095,105.856L37.163,105.859L37.232,105.863L37.3,105.506L37.369,102.913L37.437,99.647L37.506,101.797L37.574,104.706L37.643,105.819L37.711,108.644L37.779,108.919L37.848,106.881L37.916,103.884L37.985,105.994L38.053,109.638L38.122,109.563L38.19,109.222L38.259,108.497L38.327,106.006L38.396,102.694L38.464,105.034L38.532,108.128L38.601,108.422L38.669,107.866L38.738,107.631L38.806,105.172L38.875,102.634L38.943,104.222L39.012,105.891L39.08,105.928L39.148,105.791L39.217,105.284L39.285,102L39.354,98.825L39.422,101.522L39.491,105.509L39.559,105.788L39.628,105.6L39.696,104.641L39.764,102.356L39.833,99.409L39.901,98.084L39.97,101.291L40.038,101.572L40.107,101.181L40.175,100.716L40.244,97.928L40.312,95.766L40.38,98.131L40.449,101.597L40.517,101.791L40.586,101.738L40.654,101.238L40.723,98.725L40.791,96.434L40.86,98.95L40.928,102.238L40.996,102.544L41.065,102.409L41.133,101.622L41.202,98.841L41.27,97.034L41.339,100.531L41.407,104.325L41.476,104.694L41.544,104.544L41.612,103.613L41.681,101.6L41.749,100.222L41.818,102.556L41.886,106L41.955,109.491L42.023,109.678L42.092,108.928L42.16,106.894L42.228,105.481L42.297,108.481L42.365,111.35L42.434,111.553L42.502,111.559L42.571,110.716L42.639,108.197L42.708,106.503L42.776,109.378L42.845,112.091L42.913,112.006L42.981,111.788L43.05,111.072L43.118,108.678L43.187,107.113L43.255,109.947L43.324,112.684L43.392,112.734L43.461,112.747L43.529,111.841L43.597,108.894L43.666,106.991L43.734,109.428L43.803,111.613L43.871,111.691L43.94,111.691L44.008,111.347L44.077,109.613L44.145,108.616L44.213,110.887L44.282,113.119L44.35,113.225L44.419,113.134L44.487,112.716L44.556,111.647L44.624,111.375L44.693,113.841L44.761,116.122L44.829,116.119L44.898,116.103L44.966,115.8L45.035,114.603L45.103,113.975L45.172,116.531L45.24,118.981L45.309,118.984L45.377,117.519L45.445,116.491L45.514,115.409L45.582,115.1L45.651,118.116L45.719,121.034L45.788,120.947L45.856,121.081L45.925,120.825L45.993,119.428L46.061,118.519L46.13,120.25L46.201,121.922L46.27,121.869L46.338,121.706L46.407,121.209L46.475,119.95L46.543,119.175L46.612,120.325L46.68,121.547L46.749,121.666L46.817,121.556L46.886,121.172L46.954,119.825L47.023,118.678L47.091,119.962L47.159,121.306L47.228,121.175L47.296,121L47.365,120.713L47.433,121.2L47.502,120.566L47.57,119.613L47.639,120.638L47.707,120.609L47.775,120.463L47.844,120.113L47.912,119.197L47.981,118.291L48.049,117.609L48.118,118.959L48.186,119.128L48.255,119.159L48.323,118.85L48.392,118.166L48.46,117.759L48.528,119.063L48.597,120.172L48.665,120.203L48.734,120.05L48.802,119.588L48.871,118.534L48.939,117.769L49.008,118.906L49.076,120.45L49.144,120.381L49.213,120.378L49.281,119.888L49.35,118.647L49.418,117.734L49.487,118.497L49.555,120.203L49.624,122.316L49.692,122.387L49.76,122.041L49.829,120.916L49.897,119.722L49.966,120.553L50.034,121.869L50.103,123.941L50.171,123.928L50.24,123.312L50.308,122.203L50.376,121.447L50.445,122.181L50.513,123.019L50.582,123.094L50.65,122.984L50.719,122.538L50.787,121.45L50.856,120.644L50.924,121.916L50.992,123.047L51.061,123.063L51.129,122.919L51.198,122.606L51.266,121.419L51.335,120.881L51.403,121.906L51.472,123.066L51.54,122.956L51.608,122.925L51.677,122.491L51.745,121.103L51.814,120.137L51.882,121.388L51.951,122.9L52.019,122.869L52.088,122.603L52.156,122.403L52.225,121.381L52.293,120.747L52.361,121.784L52.43,122.859L52.498,122.991L52.567,122.962L52.635,122.491L52.704,121.378L52.772,120.503L52.841,121.634L52.909,122.866L52.977,122.753L53.046,122.728L53.114,122.55L53.183,121.363L53.251,120.534L53.32,121.697L53.388,122.866L53.457,123L53.525,123.134L53.593,122.919L53.662,121.6L53.73,120.431L53.799,121.747L53.867,123.075L53.936,122.969L54.004,122.781L54.073,122.513L54.141,121.213L54.209,120L54.278,120.831L54.346,121.95L54.415,121.95L54.483,121.731L54.552,121.159L54.62,119.75L54.689,118.769L54.757,119.909L54.823,121.178L54.891,121.209L54.96,121.141L55.028,120.144L55.096,118.303L55.165,117.578L55.233,118.978L55.302,120.219L55.37,120.122L55.439,119.944L55.507,119.869L55.576,118.219L55.644,116.588L55.712,117.741L55.781,119.175L55.849,119.269L55.918,119.003L55.986,118.625L56.055,116.903L56.123,115.297L56.192,116.756L56.26,117.809L56.328,117.409L56.397,116.966L56.465,116.216L56.534,113.7L56.602,112.097L56.671,113.409L56.739,114.572L56.808,114.313L56.876,114.247L56.944,113.303L57.013,111.241L57.081,109.997L57.15,111.638L57.218,112.709L57.287,112.634L57.355,112.238L57.424,111.778L57.492,110.075L57.56,107.391L57.629,108.838L57.697,110.878L57.766,110.759L57.834,110.319L57.903,109.431L57.971,107.325L58.04,105.353L58.108,104.975L58.176,106.484L58.245,106.375L58.313,106.644L58.382,106.675L58.45,104.981L58.519,104.078L58.587,106.669L58.656,108.688L58.724,108.653L58.792,108.581L58.861,108.084L58.929,105.153L58.998,103.484L59.066,105.263L59.135,107.256L59.203,107.463L59.272,107.141L59.34,106.05L59.409,103.25L59.477,99.181L59.545,100.594L59.614,103.538L59.682,103.697L59.751,103.575L59.819,103.256L59.888,100.831L59.956,98.488L60.025,100.506L60.093,102.581L60.161,104.713L60.23,105.119L60.298,104.588L60.367,102.256L60.435,100.516L60.504,102.381L60.572,103.775L60.641,101.347L60.709,100.772L60.777,100.647L60.846,98.322L60.914,96.209L60.983,98.959L61.051,101.531L61.12,101.869L61.188,101.847L61.257,101.172L61.325,99.134L61.393,98.394L61.462,101.403L61.53,106.128L61.599,106.472L61.667,106.278L61.736,105.553L61.804,103.863L61.873,103.163L61.941,106.038L62.009,109.2L62.078,109.647L62.146,109.919L62.215,109.881L62.283,107.791L62.352,105.481L62.42,107.703L62.489,109.966L62.557,110.216L62.625,110.572L62.694,112.8L62.762,111.606L62.831,109.747L62.899,112.356L62.968,115.481L63.036,115.863L63.105,115.766L63.173,115.334L63.242,114.094L63.31,113.028L63.378,115.353L63.447,117.159L63.515,117.294L63.584,117.031L63.652,116.731L63.721,115.434L63.789,114.203L63.858,115.828L63.926,117.031L63.994,117.053L64.063,116.875L64.131,115.988L64.2,113.038L64.268,110.156L64.337,112.294L64.405,115.366L64.474,115.691L64.542,115.663L64.61,115.156L64.679,112.775L64.747,109.3L64.816,108.844L64.884,111.006L64.953,111.15L65.021,111.075L65.09,110.559L65.158,108.547L65.226,107.125L65.295,108.559L65.363,110.216L65.432,110.228L65.5,110.181L65.569,109.628L65.637,106.953L65.706,104.559L65.774,106.009L65.842,108.2L65.911,108.338L65.979,108.281L66.048,107.741L66.116,105.203L66.185,103.3L66.253,106.291L66.322,109.416L66.39,109.456L66.458,109.297L66.527,108.519L66.595,105.881L66.664,103.659L66.732,105.844L66.801,109.666L66.869,112.034L66.938,112.022L67.006,111.291L67.074,109.072L67.143,107.172L67.211,109.041L67.28,110.966L67.348,111.122L67.417,111.231L67.485,110.738L67.554,108.938L67.622,107.791L67.691,110.509L67.759,113.347L67.827,113.5L67.896,113.372L67.964,113.006L68.033,111.434L68.101,110.631L68.17,113.497L68.238,116.225L68.307,116.369L68.375,116.337L68.443,115.719L68.512,114.15L68.58,112.788L68.649,115.463L68.717,118.144L68.786,117.969L68.854,117.675L68.923,117.253L68.991,115.675L69.059,114.897L69.128,116.863L69.196,119.272L69.265,119.541L69.333,119.353L69.402,118.756L69.47,117.491L69.539,116.769L69.607,118.5L69.675,120.25L69.744,120.447L69.812,120.459L69.881,120.213L69.949,118.869L70.018,118.131L70.086,119.869L70.155,121.3L70.223,120.972L70.291,119.844L70.36,118.872L70.428,118.225L70.497,118.144L70.565,119.913L70.634,122.006L70.702,122.047L70.771,122.031L70.839,121.834L70.907,120.772L70.976,119.891L71.044,121.347L71.116,122.7L71.184,122.788L71.253,122.669L71.321,122.291L71.389,120.931L71.458,120.034L71.526,121.241L71.595,122.466L71.663,122.641L71.732,122.541L71.8,121.9L71.869,120.466L71.937,119.403L72.005,120.716L72.074,121.959L72.142,121.944L72.211,121.934L72.279,121.812L72.348,122.009L72.416,121.891L72.485,121.466L72.553,120.006L72.621,119.747L72.69,119.6L72.758,119.331L72.827,118.531L72.895,118.084L72.964,118.256L73.032,117.2L73.101,117.319L73.169,117.422L73.238,117.163L73.306,116.366L73.374,115.906L73.443,117.431L73.511,118.744L73.58,118.872L73.648,119.091L73.717,118.587L73.785,117.503L73.854,116.963L73.922,118.278L73.99,119.472L74.059,119.488L74.127,119.347L74.196,119.031L74.264,117.928L74.333,117.556L74.401,118.353L74.47,119.366L74.538,120.406L74.606,122.625L74.675,122.309L74.743,120.978L74.812,120.066L74.88,120.781L74.949,121.809L75.017,122.997L75.086,125.25L75.154,124.853L75.222,123.616L75.291,122.794L75.359,123.528L75.428,124.416L75.496,124.397L75.565,124.466L75.633,124.056L75.702,122.784L75.77,122.178L75.838,123.366L75.907,124.481L75.975,124.506L76.044,124.322L76.112,123.9L76.181,122.931L76.249,122.1L76.318,122.975L76.386,123.6L76.454,123.603L76.523,123.353L76.591,122.831L76.66,121.516L76.728,121.012L76.797,122.559L76.865,123.819L76.934,123.978L77.002,123.841L77.07,123.5L77.139,122.344L77.207,121.812L77.276,122.984L77.344,124.084L77.413,124.15L77.481,124.084L77.55,123.572L77.618,122.331L77.687,121.459L77.755,122.397L77.823,123.55L77.892,123.531L77.96,123.381L78.029,122.841L78.097,121.709L78.166,120.741L78.234,121.738L78.303,122.875L78.371,122.859L78.439,122.75L78.508,122.5L78.576,121.5L78.645,120.478L78.713,121.6L78.782,122.403L78.85,122.138L78.919,121.938L78.987,121.294L79.055,119.459L79.124,118.203L79.192,119.284L79.261,120.228L79.329,120.075L79.398,119.806L79.466,119.306L79.535,117.316L79.603,115.759L79.671,116.675L79.737,117.709L79.805,117.684L79.874,117.509L79.942,117.072L80.011,114.478L80.079,112.837L80.148,114.138L80.216,115.456L80.285,115.369L80.353,115.259L80.422,114.853L80.49,113.634L80.558,111.894L80.627,112.953L80.695,114.234L80.764,114.1L80.832,114.113L80.901,113.844L80.969,112.087L81.038,110.847L81.106,112.544L81.174,113.881L81.243,113.884L81.311,113.7L81.38,113.337L81.448,110.656L81.517,109.303L81.585,111.044L81.654,112.847L81.722,112.994L81.79,113.066L81.859,112.428L81.927,109.781L81.996,108.128L82.064,110.775L82.133,112.981L82.201,112.731L82.27,112.341L82.338,111.697L82.406,107.984L82.475,105.388L82.543,106.313L82.612,108.138L82.68,107.719L82.749,107.659L82.817,107.012L82.886,104.278L82.954,100.519L83.022,98.306L83.091,99.828L83.159,100.044L83.228,100.231L83.296,99.413L83.365,95.7L83.433,93.35L83.502,96.087L83.57,97.506L83.638,97.703L83.707,97.5L83.775,96.478L83.844,92.969L83.912,90.169L83.981,92.703L84.049,94.55L84.118,94.416L84.186,94.312L84.255,93.713L84.323,90.012L84.391,86.131L84.46,89.347L84.528,92.534L84.597,93.009L84.665,93.241L84.734,92.959L84.802,89.372L84.871,86.213L84.939,88.531L85.007,92.438L85.076,96.109L85.144,96.109L85.213,96.159L85.281,94.581L85.35,92.816L85.418,96.225L85.487,98.978L85.555,98.8L85.623,97.312L85.692,96.163L85.76,94.928L85.829,94.284L85.897,97.641L85.966,101.041L86.034,101.262L86.103,101.625L86.171,101.275L86.239,98.866L86.308,97.347L86.376,101.313L86.445,105.872L86.513,106.497L86.582,106.528L86.65,106.306L86.719,104.484L86.787,103.781L86.855,107.809L86.924,111.856L86.992,112.347L87.061,112.441L87.129,112.256L87.198,110.35L87.266,107.887L87.335,109.322L87.403,112.094L87.471,112.675L87.54,112.712L87.608,112.741L87.677,112.631L87.745,112.128L87.814,113.656L87.882,115.459L87.951,115.859L88.019,115.919L88.087,115.328L88.156,112.488L88.224,110.759L88.293,113.034L88.361,115.478L88.43,115.728L88.498,115.763L88.567,115.178L88.635,112.563L88.704,110.822L88.772,112.556L88.84,114.063L88.909,113.925L88.977,113.941L89.046,113.263L89.114,109.966L89.183,107.469L89.251,109.437L89.32,111.619L89.388,111.772L89.456,111.416L89.525,110.269L89.593,107.488L89.662,103.325L89.73,103.216L89.799,104.797L89.867,104.922L89.936,104.775L90.004,104.209L90.072,101.353L90.141,98.597L90.209,101.153L90.278,103.472L90.346,103.656L90.415,103.678L90.483,102.813L90.552,99.669L90.62,97.247L90.688,99.694L90.757,101.697L90.825,101.878L90.894,101.666L90.962,100.672L91.031,97.425L91.099,95.506L91.168,98.944L91.236,102.113L91.304,102.356L91.373,102.497L91.441,101.497L91.51,99.059L91.578,97.2L91.647,99.65L91.715,104.009L91.784,106.103L91.852,106.241L91.92,105.694L91.989,103.809L92.057,102.313L92.126,105.212L92.194,108.538L92.263,108.472L92.331,108.313L92.4,107.906L92.468,105.788L92.537,104.403L92.605,107.116L92.673,109.884L92.742,110.109L92.81,110.116L92.879,109.559L92.947,108.103L93.016,107.453L93.084,110.456L93.153,113.069L93.221,113.059L93.289,112.831L93.358,112.025L93.426,109.647L93.495,108.247L93.563,110.919L93.632,113.728L93.7,113.991L93.769,113.756L93.837,113.022L93.905,110.831L93.974,110.009L94.042,112.013L94.111,113.931L94.179,114L94.248,113.906L94.316,113.694L94.385,112.578L94.453,111.869L94.521,113.762L94.59,115.947L94.658,116.444L94.727,116.634L94.795,116.247L94.864,114.953L94.932,114.531L95.001,116.363L95.069,118.103L95.137,118.409L95.206,118.366L95.274,117.994L95.343,116.741L95.411,116.462L95.48,118.881L95.548,121.2L95.617,120.956L95.685,119.806L95.753,119.019L95.822,118.484L95.89,118.35L95.959,120.625L96.03,122.063L96.099,122.113L96.167,122.091L96.235,121.666L96.304,120.391L96.372,119.603L96.441,120.853L96.509,122.031L96.578,122.141L96.646,122.031L96.715,121.481L96.783,120.159L96.851,119.094L96.92,120.4L96.988,121.3L97.057,121.156L97.125,121.047L97.194,120.538L97.262,119.353L97.331,118.634L97.399,119.853L97.467,119.959L97.536,118.244L97.604,118.144L97.673,117.944L97.741,118.169L97.81,118.269L97.878,119.003L97.947,119.053L98.015,116.881L98.084,116.788L98.152,116.231L98.22,115.388L98.289,114.875L98.357,116.062L98.426,117.278L98.494,117.275L98.563,117.059L98.631,116.847L98.7,115.241L98.768,114.425L98.836,115.647L98.905,116.984L98.973,116.909L99.042,116.703L99.11,116.184L99.179,115.247L99.247,114.438L99.316,115.531L99.384,116.653L99.452,116.838L99.521,117.684L99.589,118.953L99.658,117.994L99.726,117.406L99.795,118.313L99.863,119.131L99.932,119.309L100,120.153L100.068,121.844L100.137,120.419L100.205,119.725L100.274,120.381L100.342,121.263L100.411,121.384L100.479,121.316L100.548,120.922L100.616,119.791L100.684,118.841L100.753,120.547L100.821,121.756L100.89,121.816L100.958,121.681L101.027,121.078L101.095,119.847L101.164,119.234L101.232,119.784L101.3,120.956L101.369,121.072L101.437,121L101.506,120.5L101.574,119.394L101.643,118.441L101.711,119.488L101.78,120.488L101.848,120.616L101.916,120.644L101.985,120.203L102.053,118.916L102.122,118.263L102.19,119.622L102.259,120.756L102.327,120.972L102.396,120.834L102.464,120.413L102.533,119.169L102.601,118.1L102.669,118.884L102.738,119.569L102.806,119.353L102.875,119.309L102.943,118.684L103.012,117.25L103.08,116.434L103.149,117.469L103.217,118.306L103.285,118.134L103.354,117.731L103.422,116.341L103.491,114.844L103.559,114.353L103.628,115.409L103.696,116.316L103.765,115.978L103.833,115.422L103.901,114.119L103.97,112.956L104.038,112.497L104.107,113.247L104.175,113.975L104.244,113.6L104.312,113.256L104.381,112.45L104.449,111.041L104.517,110.175L104.586,110.65L104.651,111.438L104.72,111.178L104.788,111.244L104.857,110.809L104.925,109.225L104.994,107.156L105.062,108.403L105.131,108.956L105.199,108.753L105.268,108.275L105.336,107.087L105.404,105.544L105.473,104.206L105.541,105.1L105.61,104.253L105.678,104.016L105.747,103.603L105.815,101.672L105.884,100.141L105.952,99.775L106.02,100.469L106.089,100.381L106.157,100.419L106.226,100.331L106.294,96.956L106.363,92.609L106.431,89.744L106.5,88.025L106.568,85.706L106.636,85.663L106.705,85.484L106.773,84.891L106.842,83.962L106.91,81.35L106.979,81.478L107.047,83.225L107.116,82.669L107.184,82.406L107.252,80.134L107.321,76.422L107.389,74.731L107.458,75.138L107.526,74.709L107.595,74.497L107.663,75.319L107.732,74.084L107.8,72.544L107.868,68.628L107.937,65.138L108.005,64.231L108.074,63.113L108.142,62.872L108.211,60.894L108.279,57.269L108.348,57.031L108.416,60.822L108.484,63.872L108.553,64.791L108.621,67.431L108.69,67.591L108.758,65.472L108.827,60.331L108.895,59.956L108.964,62.213L109.032,62.937L109.101,63.434L109.169,62.291L109.237,58.537L109.306,57.025L109.374,60.206L109.443,61.9L109.511,59.822L109.58,61.75L109.648,59.512L109.717,48.394L109.785,41.906L109.853,41.075L109.922,46.563L109.99,51.434L110.059,52.934L110.127,52.094L110.196,49.528L110.264,47.644L110.333,50.694L110.401,53.878L110.469,54.322L110.538,54L110.606,54.894L110.675,47.978L110.743,35.647L110.812,35.909L110.88,41.872L110.949,43.034L111.017,43.325L111.085,43.428L111.154,40.412L111.222,38.244L111.291,42.197L111.359,45.05L111.428,45.494L111.496,45.859L111.565,46.769L111.633,43.559L111.701,42.431L111.77,51.822L111.838,58.047L111.907,58.334L111.975,55.722L112.044,54.491L112.112,48.709L112.181,44.459L112.249,46.341L112.317,50.112L112.386,48.566L112.454,48.556L112.523,47.281L112.591,36.309L112.66,29.884L112.728,36.553L112.797,47.716L112.865,47.378L112.933,45.175L113.002,43.266L113.07,34.862L113.139,25.606L113.207,23.987L113.276,26.422L113.344,26.219L113.413,25.553L113.481,25.131L113.55,18.719L113.618,16.303L113.686,17.941L113.755,21.469L113.823,23.347L113.892,24.281L113.96,25.597L114.029,23.722L114.097,18.834L114.166,22.534L114.234,28.775L114.302,29.994L114.371,29.203L114.439,29.975L114.508,26.325L114.576,21.797L114.645,30.238L114.713,36.809L114.782,35.766L114.85,34.519L114.918,33.963L114.987,30.947L115.055,25.959L115.124,27.663L115.192,36.344L115.261,40.191L115.329,40.319L115.398,39.747L115.466,35.341L115.534,28.744L115.603,32.8L115.671,36.013L115.74,36.178L115.808,29.934L115.877,27.003L115.945,20.334L116.014,14.541L116.082,16.222L116.15,21.056L116.219,23.116L116.287,21.756L116.356,20.047L116.424,14.647L116.493,10.431L116.561,14.225L116.63,20.081L116.698,22.594L116.766,21.669L116.835,19.712L116.903,16.784L116.972,12.678L117.04,16.344L117.109,22.319L117.177,28.553L117.246,28.816L117.314,27.797L117.383,21.9L117.451,16.55L117.519,22.597L117.588,30.2L117.656,32.666L117.725,33.763L117.793,35.519L117.862,37.625L117.93,37.7L117.999,44.772L118.067,51.656L118.135,54.194L118.204,55.447L118.272,54.681L118.341,52.241L118.409,50.9L118.478,57.053L118.546,62.497L118.615,62.909L118.683,62.978L118.751,62.666L118.82,60.466L118.888,59.597L118.957,65.319L119.025,71.503L119.094,73.066L119.162,73.981L119.231,73.247L119.299,70.353L119.367,68.834L119.436,75.503L119.504,82.044L119.573,82.234L119.641,82.291L119.71,82.659L119.778,80.619L119.847,79.353L119.915,83.775L119.983,87.366L120.052,87.334L120.12,87.569L120.189,87.275L120.257,84.688L120.326,84.156L120.394,87.078L120.463,90.253L120.531,89.884L120.599,88.069L120.668,86.184L120.736,83.578L120.805,82.516L120.873,86.272L120.945,91.053L121.013,89.938L121.081,90.281L121.15,89.897L121.218,88.444L121.287,88.453L121.355,90.619L121.424,93.563L121.492,93.784L121.561,92.006L121.629,89.559L121.697,87.172L121.766,85.422L121.834,88.034L121.903,89.728L121.971,89.928L122.04,89.825L122.108,89.153L122.177,87.581L122.245,86.397L122.313,89.472L122.382,91.616L122.45,92.397L122.519,91.478L122.587,90.703L122.656,91.897L122.724,92.694L122.793,95.091L122.861,97.031L122.93,96.472L122.998,94.919L123.066,93.219L123.135,92.272L123.203,91.916L123.272,93.553L123.34,94.544L123.409,96.038L123.477,95.45L123.546,95.406L123.614,96.009L123.682,96.978L123.751,99.291L123.819,101.519L123.888,101.541L123.956,101.262L124.025,100.916L124.093,99.344L124.162,98.591L124.23,99.428L124.298,97.991L124.367,96.597L124.435,95.591L124.504,95.297L124.572,95.106L124.641,95.2L124.709,95.941L124.778,97.134L124.846,97.516L124.914,97.606L124.983,98.259L125.051,98.481L125.12,99.797L125.188,101.828L125.257,102.941L125.325,103.109L125.394,103.522L125.462,103.15L125.53,102.497L125.599,101.15L125.667,102.425L125.736,104.203L125.804,104.381L125.873,104.431L125.941,103.847L126.01,102.916L126.078,101.878L126.146,103.1L126.215,104.85L126.283,105.659L126.352,109.266L126.42,110.278L126.489,109.738L126.557,108.997L126.626,110.463L126.694,111.881L126.762,111.975L126.831,111.638L126.899,110.775L126.968,108.684L127.036,107.109L127.105,108.6L127.173,110.263L127.242,110.063L127.31,109.909L127.379,109.522L127.447,108.388L127.515,107.541L127.584,109.434L127.652,110.919L127.721,111.031L127.789,110.284L127.858,109.106L127.926,107.531L127.995,106.95L128.063,108.416L128.131,109.741L128.2,110.006L128.268,109.95L128.337,109.509L128.405,107.394L128.474,105.384L128.542,106.453L128.611,107.444L128.679,107.403L128.747,107.05L128.816,106.075L128.884,103.55L128.953,101.972L129.021,103.947L129.09,105.706L129.158,105.688L129.227,105.544L129.295,105.194L129.363,103.337L129.432,100.931L129.5,102L129.569,102.784L129.637,102.353L129.706,102.153L129.774,101.262L129.843,98.222L129.911,96.453L129.979,98.084L130.045,98.875L130.114,98.263L130.182,98.119L130.25,97.656L130.319,94.459L130.387,91.669L130.456,93.559L130.524,95.253L130.593,95.625L130.661,96.053L130.73,95.184L130.798,91.1L130.866,89.456L130.935,91.703L131.003,93.731L131.072,92.797L131.14,92.35L131.209,91.353L131.277,87.309L131.346,81.625L131.414,83.159L131.482,85.694L131.551,85.703L131.619,85.534L131.688,84.769L131.756,81.991L131.825,80.247L131.893,83.556L131.962,86.078L132.03,85.769L132.098,85.341L132.167,84.022L132.235,78.934L132.304,74.319L132.372,76.719L132.441,78.962L132.509,78.116L132.578,78.109L132.646,76.363L132.714,70.759L132.783,66.534L132.851,70.372L132.92,72.669L132.988,72.909L133.057,72.697L133.125,73.419L133.194,72.378L133.262,71.053L133.33,71.859L133.399,76.559L133.467,75.422L133.536,75.409L133.604,74.913L133.673,70.709L133.741,67.106L133.81,69.597L133.878,72.372L133.946,72.372L134.015,72.363L134.083,71.603L134.152,67.509L134.22,64.388L134.289,69.219L134.357,73.128L134.426,73.294L134.494,72.95L134.563,70.784L134.631,66.719L134.699,62.403L134.768,66.712L134.836,70.956L134.905,70.347L134.973,69.831L135.042,68.397L135.11,64.613L135.179,60.147L135.247,61.125L135.315,63.028L135.384,66.125L135.452,67.597L135.521,68.806L135.589,66.909L135.658,62.325L135.726,63.838L135.795,68.8L135.863,69.747L135.931,69.884L136,69.947L136.068,67.666L136.137,65.228L136.205,69.769L136.274,74.766L136.342,75.272L136.411,76.203L136.479,75.991L136.547,73.087L136.616,67.384L136.684,66.591L136.753,66.878L136.821,62.766L136.89,58.347L136.958,53.509L137.027,44.828L137.095,42.184L137.163,45.759L137.232,50.403L137.3,51.047L137.369,51.503L137.437,50.438L137.506,45.166L137.574,40.606L137.643,41.772L137.711,46.656L137.779,49.591L137.848,49.062L137.916,48.038L137.985,44.75L138.053,42.413L138.122,42.634L138.19,46.256L138.259,45.956L138.327,45.884L138.396,43.541L138.464,38.863L138.532,36.059L138.601,39.703L138.669,48.534L138.738,54.209L138.806,60.081L138.875,61.275L138.943,57.953L139.012,61.25L139.08,70.625L139.148,74.022L139.217,74.575L139.285,74.609L139.354,74.106L139.422,70.306L139.491,67.538L139.559,72.356L139.628,76.953L139.696,78.163L139.764,78.538L139.833,77.834L139.901,72.581L139.97,65.184L140.038,61.606L140.107,61.425L140.175,63.725L140.244,63.575L140.312,61.247L140.38,55.263L140.449,52.397L140.517,56.941L140.586,60.778L140.654,60.328L140.723,60.406L140.791,59.722L140.86,54.694L140.928,52.778L140.996,61.066L141.065,63.716L141.133,63.913L141.202,65.006L141.27,64.334L141.339,58.856L141.407,55.041L141.476,55.338L141.544,58.969L141.612,58.978L141.681,57.234L141.749,55.956L141.818,52.166L141.886,48.591L141.955,54.125L142.023,62.375L142.092,68.797L142.16,71.413L142.228,70.284L142.297,67.147L142.365,67.769L142.434,73.641L142.502,77.175L142.571,75.797L142.639,75.191L142.708,75.156L142.776,72.9L142.845,71.181L142.913,76.291L142.981,82.375L143.05,82.572L143.118,82.341L143.187,81.238L143.255,78.634L143.324,77.219L143.392,82.719L143.461,87.238L143.529,90.681L143.597,90.909L143.666,90.722L143.734,89.972L143.803,85.772L143.871,89.431L143.94,94.253L144.008,94.319L144.077,94.303L144.145,94.122L144.213,92.672L144.282,90.631L144.35,93.859L144.419,96.269L144.487,96.428L144.556,97.872L144.624,98.675L144.693,97.563L144.761,97.381L144.829,99.969L144.898,102.459L144.966,102.441L145.035,102.328L145.103,102.025L145.172,100.788L145.24,100.475L145.309,103.091L145.377,105.634L145.445,105.575L145.514,104.047L145.582,102.931L145.651,102.384L145.719,102.081L145.788,104.978L145.856,110.466L145.925,110.766L145.993,110.613L146.061,110.288L146.13,108.931L146.198,107.969L146.267,109.778L146.338,113.194L146.407,113.319L146.475,113.388L146.543,113.047L146.612,111.081L146.68,110.788L146.749,112.372L146.817,113.753L146.886,113.572L146.954,113.459L147.023,112.691L147.091,111.228L147.159,110.481L147.228,112.013L147.296,113.441L147.365,113.478L147.433,113.269L147.502,112.531L147.57,112.291L147.639,112.688L147.707,113.5L147.775,114.512L147.844,114.434L147.912,114.025L147.981,113.047L148.049,110.872L148.118,110.712L148.186,112.309L148.255,113.953L148.323,113.884L148.392,113.956L148.46,113.594L148.528,112.797L148.597,112.303L148.665,114.634L148.734,115.994L148.802,116.062L148.871,115.928L148.939,115.416L149.008,114.566L149.076,114.484L149.144,116.016L149.213,117.331L149.281,117.5L149.35,117.522L149.418,117.262L149.487,116.497L149.555,116.475L149.624,118.141L149.692,118.85L149.76,118.784L149.829,118.681L149.897,117.688L149.966,115.438L150.034,115.603L150.103,117.794L150.171,115.353L150.24,115.322L150.308,115.181L150.376,114.834L150.445,111.991L150.513,111.044L150.582,111.916L150.65,112.169L150.719,112.191L150.787,109.253L150.856,103.962L150.924,94.322L150.992,87.859L151.061,83.422L151.129,83.884L151.198,84.012L151.266,83.972L151.335,83.578L151.403,82.847L151.472,82.244L151.54,82.778L151.608,83.816L151.677,83.509L151.745,83.544L151.814,83.341L151.882,82.359L151.951,82.45L152.019,84.969L152.088,85.869L152.156,86.081L152.225,89.022L152.293,88.291L152.361,86.016L152.43,83.022L152.498,85.309L152.567,86.684L152.635,86.716L152.704,87.428L152.772,86.678L152.841,88.875L152.909,93.484L152.977,103.094L153.046,109.919L153.114,114.113L153.183,114.097L153.251,112.959L153.32,111.009L153.388,108.709L153.457,108.619L153.525,109.066L153.593,109.531L153.662,109.478L153.73,109.328L153.799,107.572L153.867,106.609L153.936,105.956L154.004,106.913L154.073,106.994L154.141,106.962L154.209,106.528L154.278,104.941L154.346,104.228L154.415,105.681L154.483,109.013L154.552,109.563L154.62,109.231L154.689,107.744L154.757,105.225L154.825,104.25L154.894,104.828L154.96,104.906L155.028,104.534L155.096,103.925L155.165,104.188L155.233,103.012L155.302,102.778L155.37,104.625L155.439,107.319L155.507,107.969L155.576,107.128L155.644,105.944L155.712,101.656L155.781,99.978L155.849,101.7L155.918,103.003L155.986,104.753L156.055,104.756L156.123,103.2L156.192,100.728L156.26,96.209L156.328,97.263L156.397,98.397L156.465,99.041L156.534,98.159L156.602,97.709L156.671,96.922L156.739,96.775L156.808,97.766L156.876,99.134L156.944,97.541L157.013,96.472L157.081,96.003L157.15,92.931L157.218,85.766L157.287,79.947L157.355,75.416L157.424,69.922L157.492,64.962L157.56,60.047L157.629,54.062L157.697,50.175L157.766,53.962L157.834,55.972L157.903,55.741L157.971,55.328L158.04,54.516L158.108,52.034L158.176,48.362L158.245,45.6L158.313,45.959L158.382,45.309L158.45,45.631L158.519,44.719L158.587,41.794L158.656,37.991L158.724,38.409L158.792,39.831L158.861,40.984L158.929,40.894L158.998,41.588L159.066,39.725L159.135,37.581L159.203,40.978L159.272,48.659L159.34,55.844L159.409,61.516L159.477,66.081L159.545,64.859L159.614,60.997L159.682,66.856L159.751,71.575L159.819,72.05L159.888,71.831L159.956,70.644L160.025,67.234L160.093,63.803L160.161,65.572L160.23,70.191L160.298,75.063L160.367,79.222L160.435,79.347L160.504,77.656L160.572,75.581L160.641,72.641L160.709,75.497L160.777,74.859L160.846,73.263L160.914,72.872L160.983,68.178L161.051,62.269L161.12,65.484L161.188,68.609L161.257,67.669L161.325,67.494L161.393,66.994L161.462,62.406L161.53,55.053L161.599,55.094L161.667,62.247L161.736,63.613L161.804,63.922L161.873,63.444L161.941,59.384L162.009,51.45L162.078,48.188L162.146,46.278L162.215,40.575L162.283,36.309L162.352,30.703L162.42,24.106L162.489,16.434L162.557,16.859L162.625,19.928L162.694,26.656L162.762,27.881L162.831,27.178L162.899,23.794L162.968,22.275L163.036,27.216L163.105,34.303L163.173,34.675L163.242,34.606L163.31,35.466L163.378,32.912L163.447,30.394L163.515,34.844L163.584,43.069L163.652,49.062L163.721,50.738L163.789,49.875L163.858,46.884L163.926,44.422L163.994,48.875L164.063,58.291L164.131,65.278L164.2,69.25L164.268,74.991L164.337,76.338L164.405,71.934L164.474,73.678L164.542,74.897L164.61,74.391L164.679,74.238L164.747,73.372L164.816,70.675L164.884,69.253L164.953,72.534L165.021,74.938L165.09,73.753L165.158,73.341L165.226,72.5L165.295,66.844L165.363,57.991L165.432,55.087L165.5,51.213L165.569,44.4L165.637,37.509L165.706,29.875L165.774,18.125L165.842,15.334L165.911,18.241L165.979,21.272L166.048,21.231L166.116,21.141L166.185,19.819L166.253,17.284L166.322,11.212L166.39,14.463L166.458,24.684L166.527,29.794L166.595,37.225L166.664,38.281L166.732,36.644L166.801,36.166L166.869,39.081L166.938,42.509L167.006,44.353L167.074,42.991L167.143,43.141L167.211,41.584L167.28,40.453L167.348,45.838L167.417,55.075L167.485,60.956L167.554,68.059L167.622,74.169L167.691,78.966L167.759,80.687L167.827,92.544L167.896,96.259L167.964,96.444L168.033,96.391L168.101,95.9L168.17,93.622L168.238,93.347L168.307,97.975L168.375,104.628L168.443,104.75L168.512,104.644L168.58,103.781L168.649,100.497L168.717,98.097L168.786,99.497L168.854,100.734L168.923,100.475L168.991,100.231L169.059,99.35L169.128,98.434L169.196,97.263L169.265,99.009L169.333,101.019L169.402,101.344L169.47,101.575L169.539,101.278L169.607,99.184L169.675,98.422L169.744,100.788L169.812,107.053L169.881,107.288L169.949,107.253L170.018,106.975L170.086,105.819L170.155,105.556L170.223,108.059L170.291,109.606L170.36,109.294L170.428,108.103L170.497,107.103L170.565,106.531L170.634,106.709L170.702,110.331L170.771,113.041L170.839,113.647L170.907,113.728L170.976,113.575L171.044,112.653L171.113,112.431L171.181,114.681L171.253,117.087L171.321,117.35L171.389,117.238L171.458,116.931L171.526,115.688L171.595,115.316L171.663,117.531L171.732,119.316L171.8,119.2L171.869,118.959L171.937,118.462L172.005,117.138L172.074,116.047L172.142,117.269L172.211,118.072L172.279,117.909L172.348,117.903L172.416,118.109L172.485,118.488L172.553,118.137L172.621,118.797L172.69,119.684L172.758,119.391L172.827,119.525L172.895,118.881L172.964,117.722L173.032,115.416L173.101,116.225L173.169,117.353L173.238,117.403L173.306,117.256L173.374,116.766L173.443,115.922L173.511,115.278L173.58,116.475L173.648,117.341L173.717,117.288L173.785,117.272L173.854,116.884L173.922,115.922L173.99,115.313L174.059,116.325L174.127,117.578L174.196,117.503L174.264,117.484L174.333,117.122L174.401,116.169L174.47,115.159L174.538,116.156L174.606,117.697L174.675,117.997L174.743,117.944L174.812,117.581L174.88,116.337L174.949,115.416L175.017,116.603L175.086,119.284L175.154,119.619L175.222,119.694L175.291,119.331L175.359,118.481L175.428,117.8L175.496,118.688L175.565,119.638L175.633,119.625L175.702,119.428L175.77,118.822L175.838,117.581L175.907,115.628L175.975,116.644L176.044,117.541L176.112,116.353L176.181,116.234L176.249,116.084L176.318,114.328L176.386,113.5L176.454,114.231L176.523,115.397L176.591,115.253L176.66,115.072L176.728,114.547L176.797,113.456L176.865,112.588L176.934,114.034L177.002,115.553L177.07,115.588L177.139,115.334L177.207,114.931L177.276,113.844L177.344,112.725L177.413,113.369L177.481,114.325L177.55,114.391L177.618,114.409L177.687,114.156L177.755,113.297L177.823,112.672L177.892,113.806L177.96,116.231L178.029,116.259L178.097,116.016L178.166,116.944L178.234,115.541L178.303,114.447L178.371,116.169L178.439,117.106L178.508,117.303L178.576,117.278L178.645,116.794L178.713,114.913L178.782,113.559L178.85,114.556L178.919,115.809L178.987,115.763L179.055,115.591L179.124,114.931L179.192,112.931L179.261,111.909L179.329,112.85L179.398,113.909L179.466,114.038L179.535,113.697L179.603,112.934L179.671,111.375L179.74,110.328L179.808,110.853L179.874,111.625L179.942,110.759L180.011,109.409L180.079,107.759L180.148,105.809L180.216,104.428L180.285,105.788L180.353,107.172L180.422,107.122L180.49,107.019L180.558,106.1L180.627,104.522L180.695,103.409L180.764,105.103L180.832,106.734L180.901,106.675L180.969,106.691L181.038,106.266L181.106,105.119L181.174,104.416L181.243,106.313L181.311,107.578L181.38,107.366L181.448,107.622L181.517,106.669L181.585,102.278L181.654,99.634L181.722,100.456L181.79,101.419L181.859,101.606L181.927,101.478L181.996,101.212L182.064,99.091L182.133,96.95L182.201,98.716L182.27,100.431L182.338,100.472L182.406,100.128L182.475,99.313L182.543,97.725L182.612,96.003L182.68,97.066L182.749,98.491L182.817,98.663L182.886,98.403L182.954,97.438L183.022,94.603L183.091,91.094L183.159,88.413L183.228,88.875L183.296,89.059L183.365,88.928L183.433,88.259L183.502,85.728L183.57,84.291L183.638,88.663L183.707,90.991L183.775,91.688L183.844,91.597L183.912,91.191L183.981,88.503L184.049,85.663L184.118,88.941L184.186,92.413L184.255,92.825L184.323,92.747L184.391,91.972L184.46,88.828L184.528,84.734L184.597,85.316L184.665,87.841L184.734,88.059L184.802,87.947L184.871,87.062L184.939,84.213L185.007,81.45L185.076,84.072L185.144,88.028L185.213,91.666L185.281,92.003L185.35,91.128L185.418,88.703L185.487,86.966L185.555,88.719L185.623,88.438L185.692,87.8L185.76,88.928L185.829,88.6L185.897,87.144L185.966,85.947L186.034,89.163L186.103,93.131L186.171,93.116L186.239,93.288L186.308,92.959L186.376,91.625L186.445,90.6L186.513,93.734L186.582,98.859L186.65,100.159L186.719,100.194L186.787,99.669L186.855,97.191L186.924,94.481L186.992,97.494L187.061,101.434L187.129,101.741L187.198,101.7L187.266,101.428L187.335,100.081L187.403,98.063L187.471,100.394L187.54,102.859L187.608,103.478L187.677,105.984L187.745,106.444L187.814,103.725L187.882,101.269L187.951,102.913L188.019,104.863L188.087,104.697L188.156,104.594L188.224,103.984L188.293,101.878L188.361,99.184L188.43,100.613L188.498,102.484L188.567,102.663L188.635,102.344L188.704,101.766L188.772,98.953L188.84,97.034L188.909,99.494L188.977,103.147L189.046,103.322L189.114,103.238L189.183,102.619L189.251,100.109L189.32,97.791L189.388,99.378L189.456,102.244L189.525,102.316L189.593,102.313L189.662,101.631L189.73,99.019L189.799,96.078L189.867,96.134L189.936,98.913L190.004,99.241L190.072,99.184L190.141,99.069L190.209,97L190.278,95.866L190.346,98.175L190.415,101.256L190.483,101.397L190.552,101.206L190.62,100.413L190.688,96.869L190.757,94.556L190.825,97.584L190.894,100.194L190.962,100.425L191.031,100.128L191.099,99.322L191.168,97.538L191.236,96.769L191.304,99.178L191.373,102.072L191.441,102.241L191.51,102.178L191.578,102.003L191.647,100.163L191.715,97.816L191.784,100.266L191.852,103.728L191.92,106.053L191.989,105.947L192.057,105.366L192.126,103.713L192.194,102.441L192.263,104.497L192.331,106.369L192.4,106.172L192.468,105.984L192.537,105.316L192.605,104.084L192.673,103.513L192.742,107.103L192.81,110.075L192.879,109.913L192.947,109.716L193.016,109.288L193.084,107.759L193.153,106.978L193.221,108.706L193.289,110.025L193.358,110.069L193.426,109.753L193.495,108.484L193.563,104.925L193.632,102.375L193.7,104.347L193.769,107.378L193.837,107.647L193.905,107.666L193.974,107.388L194.042,105.828L194.111,104.353L194.179,106.013L194.248,107.581L194.316,107.681L194.385,107.494L194.453,107.006L194.521,105.9L194.59,105.522L194.658,106.825L194.727,108.2L194.795,108.306L194.864,108.169L194.932,107.628L195.001,106.344L195.069,105.616L195.137,107.459L195.206,109.222L195.274,109.072L195.343,107.409L195.411,105.978L195.48,105.378L195.548,105.884L195.617,109.591L195.685,112.647L195.753,112.697L195.822,112.928L195.89,112.553L195.959,111.275L196.027,110.875L196.096,112.45L196.167,114.556L196.235,114.619L196.304,114.438L196.372,113.919L196.441,112.491L196.509,111.828L196.578,113.106L196.646,114.088L196.715,114.216L196.783,114.197L196.851,113.731L196.92,112.291L196.988,111.613L197.057,113.213L197.125,114.569L197.194,114.475L197.262,114.266L197.331,114.081L197.399,114.944L197.467,114.794L197.536,113.163L197.604,113.734L197.673,113.659L197.741,113.597L197.81,113.056L197.878,112.169L197.947,111.241L198.015,110.106L198.084,111.006L198.152,111.184L198.22,111.128L198.289,110.894L198.357,110.303L198.426,110.3L198.494,111.947L198.563,113.316L198.631,113.484L198.7,113.575L198.768,113.334L198.836,112.694L198.905,112.338L198.973,113.925L199.042,115.419L199.11,115.553L199.179,115.519L199.247,115.275L199.316,114.875L199.384,114.675L199.452,115.5L199.521,117.15L199.589,119.5L199.658,119.716L199.726,119.478L199.795,117.997L199.863,117.6L199.932,118.494L200,119.991L200.068,122.484L200.137,122.591L200.205,122.222L200.274,121L200.342,120.253L200.411,121.028L200.479,121.688L200.548,121.663L200.616,121.428L200.684,120.763L200.753,119.278L200.821,118.203L200.89,118.672L200.958,119.55L201.027,119.559L201.095,119.406L201.164,118.916L201.232,117.769L201.3,117.066L201.369,117.316L201.437,117.988L201.506,118.013L201.574,117.969L201.643,117.794L201.711,116.881L201.78,116.341L201.848,117.806L201.916,118.744L201.985,118.778L202.053,118.703L202.122,118.369L202.19,117.212L202.259,115.728L202.327,117.422" stroke="#4c78a8" stroke-width="2"/></g><g class="mark-group role-title"><g transform="translate(100,-17)"><path class="background" aria-hidden="true" d="M0,0h0v0h0Z" pointer-events="none"/><g><g class="mark-text role-title-text" role="graphics-symbol" aria-roledescription="title" aria-label="Title text 'Noise - Residential: Loud Music/Party'" pointer-events="none"><text text-anchor="middle" transform="translate(0,10)" font-family="sans-serif" font-size="13px" font-weight="bold" fill="#000" opacity="1">Noise - Residential: Loud Music/Party</text></g></g><path class="foreground" aria-hidden="true" d="" pointer-events="none" display="none"/></g></g></g><path class="foreground" aria-hidden="true" d="" display="none"/></g></g></g><defs><clipPath id="clip97"><rect x="0" y="0" width="200" height="150"/></clipPath></defs></svg>