<svg xmlns="http://www.w3.org/2000/svg" xmlns:xlink="http://www.w3.org/1999/xlink" version="1.1" class="marks" width="230" height="194" viewBox="0 0 230 194"><rect width="230" height="194" fill="white"/><g fill="none" stroke-miterlimit="10" transform="translate(24,22)"><g class="mark-group role-frame root" role="graphics-object" aria-roledescription="group mark container"><g transform="translate(0,0)"><path class="background" aria-hidden="true" d="M0,0h200v150h-200Z"/><g><g class="mark-group role-axis" aria-hidden="true"><g transform="translate(0.5,0.5)"><path class="background" aria-hidden="true" d="M0,0h0v0h0Z" pointer-events="none"/><g><g class="mark-rule role-axis-grid" pointer-events="none"><line transform="translate(0,150)" x2="200" y2="0" stroke="#ddd" stroke-width="1" opacity="1"/><line transform="translate(0,104)" x2="200" y2="0" stroke="#ddd" stroke-width="1" opacity="1"/><line transform="translate(0,58)" x2="200" y2="0" stroke="#ddd" stroke-width="1" opacity="1"/><line transform="translate(0,12)" x2="200" y2="0" stroke="#ddd" stroke-width="1" opacity="1"/></g></g><path class="foreground" aria-hidden="true" d="" pointer-events="none" display="none"/></g></g><g class="mark-group role-axis" role="graphics-symbol" aria-roledescription="axis" aria-label="X-axis for a time scale with values from Friday, 01 January 2016, 12:00:00 AM to Monday, 01 January 2024, 12:00:00 AM"><g transform="translate(0.5,150.5)"><path class="background" aria-hidden="true" d="M0,0h0v0h0Z" pointer-events="none"/><g><g class="mark-rule role-axis-tick" pointer-events="none"><line transform="translate(0,0)" x2="0" y2="5" stroke="#888" stroke-width="1" opacity="1"/><line transform="translate(50,0)" x2="0" y2="5" stroke="#888" stroke-width="1" opacity="1"/><line transform="translate(100,0)" x2="0" y2="5" stroke="#888" stroke-width="1" opacity="1"/><line transform="translate(150,0)" x2="0" y2="5" stroke="#888" stroke-width="1" opacity="1"/><line transform="translate(200,0)" x2="0" y2="5" stroke="#888" stroke-width="1" opacity="1"/></g><g class="mark-text role-axis-label" pointer-events="none"><text text-anchor="start" transform="translate(0,15)" font-family="sans-serif" font-size="10px" fill="#000" opacity="1">2016</text><text text-anchor="middle" transform="translate(50.03422313483915,15)" font-family="sans-serif" font-size="10px" fill="#000" opacity="1">2018</text><text text-anchor="middle" transform="translate(100,15)" font-family="sans-serif" font-size="10px" fill="#000" opacity="1">2020</text><text text-anchor="middle" transform="translate(150.03422313483915,15)" font-family="sans-serif" font-size="10px" fill="#000" opacity="1">2022</text><text text-anchor="end" transform="translate(200,15)" font-family="sans-serif" font-size="10px" fill="#000" opacity="1">2024</text></g><g class="mark-rule role-axis-domain" pointer-events="none"><line transform="translate(0,0)" x2="200" y2="0" stroke="#888" stroke-width="1" opacity="1"/></g></g><path class="foreground" aria-hidden="true" d="" pointer-events="none" display="none"/></g></g><g class="mark-group role-axis" role="graphics-symbol" aria-roledescription="axis" aria-label="Y-axis for a linear scale with values from 0 to 65"><g transform="translate(0.5,0.5)"><path class="background" aria-hidden="true" d="M0,0h0v0h0Z" pointer-events="none"/><g><g class="mark-rule role-axis-tick" pointer-events="none"><line transform="translate(0,150)" x2="-5" y2="0" stroke="#888" stroke-opacity="0" stroke-width="1" opacity="1"/><line transform="translate(0,104)" x2="-5" y2="0" stroke="#888" stroke-opacity="0" stroke-width="1" opacity="1"/><line transform="translate(0,58)" x2="-5" y2="0" stroke="#888" stroke-opacity="0" stroke-width="1" opacity="1"/><line transform="translate(0,12)" x2="-5" y2="0" stroke="#888" stroke-opacity="0" stroke-width="1" opacity="1"/></g><g class="mark-text role-axis-label" pointer-events="none"><text text-anchor="end" transform="translate(-7,153)" font-family="sans-serif" font-size="10px" fill="#000" opacity="1">0</text><text text-anchor="end" transform="translate(-7,106.84615384615384)" font-family="sans-serif" font-size="10px" fill="#000" opacity="1">20</text><text text-anchor="end" transform="translate(-7,60.692307692307686)" font-family="sans-serif" font-size="10px" fill="#000" opacity="1">40</text><text text-anchor="end" transform="translate(-7,14.538461538461531)" font-family="sans-serif" font-size="10px" fill="#000" opacity="1">60</text></g></g><path class="foreground" aria-hidden="true" d="" pointer-events="none" display="none"/></g></g><g class="mark-line role-mark marks" clip-path="url(#clip106)" role="graphics-object" aria-roledescription="line mark container"><path aria-label="day: Jan 01, 2010; avg: 2.06666666667" role="graphics-symbol" aria-roledescription="line mark" d="M-149.966,145.231L-149.008,144.692L-148.392,144.462L-148.323,144.385L-148.118,144.385L-147.981,144.231L-147.912,144.077L-146.543,144.077L-146.27,144.154L-146.064,144.154L-145.996,143.923L-145.722,143.154L-145.517,143.154L-144.835,143.077L-144.698,143.077L-144.63,143.154L-144.561,143.077L-144.424,142.385L-144.151,141.692L-144.082,142L-143.877,141.846L-143.74,141.692L-143.672,141.538L-143.603,141.154L-143.535,141L-143.466,141.154L-143.398,141.231L-143.329,141.308L-143.261,141.615L-143.192,140.538L-143.124,139.231L-143.056,139.538L-142.919,139.615L-142.85,139.538L-142.713,139.462L-142.576,138.769L-142.508,138.154L-142.44,138.077L-142.371,137.538L-142.303,137.154L-142.234,137.385L-142.166,137.923L-142.097,137L-141.96,136L-141.892,135.231L-141.824,135.077L-141.755,135.615L-141.687,136.308L-141.618,136.154L-141.55,134.923L-141.481,135L-141.413,135L-141.344,135.231L-141.276,135.769L-141.208,135.846L-141.139,134.692L-141.071,133.692L-140.934,133.615L-140.797,133.308L-140.728,134.231L-140.66,135.615L-140.523,135.308L-140.455,134.154L-140.386,132.846L-140.318,131.308L-140.249,131.923L-140.181,132.538L-140.112,132.615L-140.044,130.846L-139.975,130.769L-139.907,130.692L-139.839,130.923L-139.77,131.769L-139.702,132.462L-139.633,133.154L-139.496,132.077L-139.428,131.846L-139.359,131.308L-139.291,132L-139.223,133.154L-139.154,133.077L-139.086,133.077L-139.017,131.769L-138.949,130.154L-138.88,130.154L-138.812,131.154L-138.743,132.077L-138.675,131.769L-138.607,131.846L-138.538,130.462L-138.47,129.538L-138.401,130L-138.333,130.769L-138.264,132L-138.127,132.769L-138.059,132.846L-137.991,131.308L-137.922,130.769L-137.854,132.923L-137.785,133.231L-137.717,133.077L-137.648,132.231L-137.58,131.538L-137.511,129.923L-137.443,128.846L-137.375,129.923L-137.306,129.769L-137.238,130.077L-137.169,129.923L-137.101,129.692L-137.032,127.692L-136.964,127.231L-136.895,128L-136.827,129.385L-136.758,129.538L-136.69,129.846L-136.622,129.462L-136.553,127.231L-136.485,126.846L-136.416,128.308L-136.348,129.077L-136.279,128.769L-136.211,128.769L-136.142,128.923L-136.074,125.846L-136.006,125.308L-135.937,126.846L-135.869,127.154L-135.8,127.231L-135.732,126.538L-135.663,126.538L-135.595,125.154L-135.526,124.615L-135.458,126.231L-135.39,127.385L-135.321,127.385L-135.253,127.769L-135.184,127.769L-135.116,126.462L-135.047,124.077L-134.979,125.231L-134.91,125.692L-134.842,126.077L-134.774,126.077L-134.705,124.462L-134.637,123.538L-134.568,123.923L-134.5,126.231L-134.431,126.385L-134.363,126.308L-134.294,126.462L-134.226,124.538L-134.158,123.308L-134.089,123.231L-134.021,127.077L-133.952,127.308L-133.884,127.308L-133.815,126.692L-133.747,126.077L-133.678,126.923L-133.61,127.154L-133.542,129.231L-133.473,130.462L-133.405,129.846L-133.336,129.231L-133.268,129.385L-133.199,129.385L-133.131,129.538L-133.062,130.923L-132.994,133.385L-132.926,134.077L-132.789,134.077L-132.72,134.231L-132.652,134.077L-132.583,135.615L-132.515,136.538L-132.446,136.615L-132.378,136.846L-132.309,137.154L-132.241,137.308L-132.173,136.308L-132.104,138.538L-132.036,140.308L-131.899,140.385L-131.83,140.385L-131.762,140.615L-131.693,140.692L-131.625,141.462L-131.557,141.846L-131.488,141.615L-131.42,141.538L-131.351,141.538L-131.214,141.538L-131.146,142.462L-131.009,143.077L-130.941,142.846L-130.872,142.846L-130.804,142.923L-130.735,143.154L-130.667,143.462L-130.598,143.846L-130.53,143.923L-130.256,143.923L-130.188,144.385L-130.119,144.615L-130.051,144.615L-129.982,144.538L-129.914,144.615L-129.777,144.769L-129.709,144.692L-129.64,145.692L-129.572,145.615L-129.435,145.615L-129.366,145.615L-129.298,145.615L-129.229,145.846L-129.024,145.923L-128.887,145.846L-128.819,146.154L-128.75,146.385L-128.405,146.462L-128.337,146.538L-128.268,146.615L-128.2,146.692L-127.789,146.615L-127.721,146.615L-127.515,146.308L-127.31,146.231L-126.899,146.231L-126.42,146.231L-125.941,146.077L-125.804,145.692L-124.435,145.615L-123.682,145.538L-123.34,145.538L-122.793,145.538L-122.45,145.538L-122.313,145.308L-122.177,145.308L-122.108,145.385L-121.697,145.308L-121.561,145.462L-121.424,145.385L-121.15,145.154L-120.945,145.077L-120.671,144.923L-120.602,144.923L-120.534,144.846L-120.329,144.846L-120.26,144.538L-120.192,144.538L-120.123,144.615L-119.989,144.308L-119.852,144.231L-119.784,144L-119.715,143.231L-119.51,142.538L-119.373,142.615L-118.962,142.462L-118.757,142.385L-118.689,142.462L-118.62,142.077L-118.552,141.846L-118.415,141.846L-118.346,141.538L-118.278,141.385L-118.21,140.308L-118.141,140.385L-118.073,139.154L-117.936,138.846L-117.867,138.769L-117.799,138.769L-117.73,138.692L-117.662,138.462L-117.525,136.923L-117.457,136.308L-117.388,136.308L-117.32,136.308L-117.251,136.077L-117.183,136L-117.114,135.231L-117.046,134.615L-116.978,134.308L-116.909,133.538L-116.841,133.769L-116.772,134.769L-116.704,135.692L-116.635,135.538L-116.498,134.692L-116.43,133.846L-116.362,133.692L-116.293,134.385L-116.225,134.692L-116.156,134.692L-116.088,134.692L-116.019,134.385L-115.951,134.846L-115.882,134.846L-115.814,135.846L-115.745,136L-115.677,135.769L-115.54,135.538L-115.472,134.077L-115.403,132.769L-115.335,134L-115.266,133.385L-115.198,133.308L-115.129,133.231L-115.061,132.846L-114.993,131.538L-114.924,130.769L-114.856,131.231L-114.787,131.385L-114.719,131.846L-114.65,131.769L-114.582,130.154L-114.513,129.615L-114.445,128.154L-114.377,128.923L-114.308,129.538L-114.24,129.308L-114.171,129.308L-114.103,127.692L-114.034,126.615L-113.966,126.692L-113.897,127L-113.829,127.308L-113.761,126.692L-113.692,126.615L-113.624,124.385L-113.555,123.769L-113.487,123.923L-113.418,125.385L-113.35,127L-113.281,127.231L-113.213,128.615L-113.145,128L-113.076,128.077L-113.008,128.462L-112.939,129.923L-112.871,131.308L-112.734,131.077L-112.665,131.154L-112.597,130L-112.529,128.769L-112.46,130.077L-112.392,130.538L-112.323,131.923L-112.255,130.308L-112.186,129.923L-112.118,129.846L-112.049,130L-111.981,131L-111.913,131.846L-111.844,131.538L-111.776,129.846L-111.707,129.923L-111.639,130.692L-111.57,130.846L-111.502,133L-111.433,134L-111.365,133.846L-111.296,131.231L-111.228,130.769L-111.16,130.769L-111.091,130.692L-111.023,131.385L-110.954,131.385L-110.886,131.538L-110.817,131.231L-110.749,131.385L-110.68,130.923L-110.612,129.692L-110.544,129.154L-110.407,129.615L-110.27,129L-110.201,129.154L-110.133,129.154L-110.064,130.538L-109.996,129.615L-109.928,129.538L-109.859,128.923L-109.791,129.462L-109.722,129.692L-109.654,130.231L-109.585,131.769L-109.517,130L-109.448,128.308L-109.38,128.231L-109.312,128.385L-109.243,128.154L-109.175,128.385L-109.106,130.538L-109.038,128.308L-108.969,128.308L-108.901,128.385L-108.832,128.154L-108.559,128.308L-108.49,127.846L-108.422,128.308L-108.353,127.615L-108.285,128.231L-108.216,129.692L-108.148,131.692L-108.08,132.615L-108.011,133.077L-107.874,132.846L-107.806,132.231L-107.737,131.846L-107.669,133.308L-107.6,133.923L-107.532,134.308L-107.463,134.077L-107.395,133.846L-107.327,133.846L-107.258,133.923L-107.19,135.846L-107.121,137.308L-107.053,137L-106.916,136.846L-106.847,136.923L-106.779,136.692L-106.711,137.308L-106.642,140.077L-106.574,140.308L-106.505,140.154L-106.437,140.154L-106.368,140.077L-106.3,140.615L-106.231,140.692L-106.163,141.154L-106.095,141.231L-106.026,141.385L-105.958,141.462L-105.889,140.846L-105.821,141.308L-105.752,141.385L-105.684,142.077L-105.615,142.846L-105.479,142.769L-105.41,142.692L-105.342,142.923L-105.273,143.231L-105.205,143.308L-105.136,143.154L-104.999,143.308L-104.931,143.462L-104.863,143.615L-104.794,144L-104.726,144.231L-104.589,144.231L-104.52,144.462L-104.452,144.462L-104.383,144.462L-104.315,144.385L-104.247,144.462L-104.11,144.692L-104.041,144.769L-103.973,144.769L-103.904,144.769L-103.836,144.846L-103.696,144.923L-103.628,144.923L-103.559,144.846L-103.422,145.462L-103.354,145.462L-103.08,145.615L-103.012,145.692L-102.943,145.769L-102.875,145.846L-102.806,145.769L-102.669,145.769L-102.533,145.692L-102.464,145.846L-102.396,145.692L-102.327,145.385L-102.19,145.385L-102.122,145.462L-101.985,145.615L-101.916,145.538L-101.78,145.692L-101.711,145.615L-101.506,145.615L-101.437,145.769L-101.369,145.769L-101.232,145.846L-101.164,145.769L-100.958,145.769L-100.821,145.538L-100.684,145.462L-100.342,145.538L-100.205,145.538L-100.068,145.231L-100,145.308L-99.932,144.923L-99.658,144.923L-99.589,144.769L-99.521,144.769L-99.452,144.615L-99.316,144.769L-98.973,144.769L-98.836,144.615L-98.357,144.615L-98.152,144L-98.084,144.077L-97.947,144.462L-97.878,144.231L-97.741,144.231L-97.604,143.692L-97.536,143.769L-97.262,143.615L-97.194,143.385L-97.125,142.923L-97.057,142.769L-96.988,142.846L-96.851,142.846L-96.715,142.692L-96.646,142.385L-96.578,142.462L-96.441,142.308L-96.372,142.308L-96.167,142.308L-96.099,142.385L-96.03,142.308L-95.962,142.692L-95.893,142.692L-95.756,142.769L-95.688,142.846L-95.619,142.769L-95.551,141.846L-95.414,141.462L-95.277,141.154L-95.209,141.077L-95.143,141.615L-95.075,141.538L-95.006,140.846L-94.869,141L-94.732,140.769L-94.664,141.154L-94.527,141L-94.459,140.692L-94.39,140.615L-94.322,140.923L-94.253,141L-94.048,141L-93.911,140.538L-93.774,140.462L-93.637,140.231L-93.569,139.846L-93.5,140L-93.432,139.923L-93.364,139.692L-93.295,139.923L-93.227,138.615L-93.158,137.615L-93.021,136.769L-92.953,136.769L-92.884,136.538L-92.816,136.615L-92.748,136.769L-92.679,135.462L-92.611,134.385L-92.542,134.308L-92.474,134.308L-92.405,134.385L-92.268,134.923L-92.132,134.077L-92.063,132.077L-91.995,130.846L-91.926,130.769L-91.858,131L-91.789,131.231L-91.721,131.077L-91.652,129.769L-91.584,128.077L-91.516,128.154L-91.447,127.923L-91.379,128.538L-91.31,129.077L-91.173,128.846L-91.105,126.615L-91.036,125.538L-90.968,125.077L-90.899,125.923L-90.831,126.692L-90.763,126.923L-90.694,126.462L-90.626,123.154L-90.557,120.769L-90.489,121.538L-90.42,123.077L-90.283,124.308L-90.215,124.154L-90.147,124.308L-90.078,121.154L-90.01,119.538L-89.941,120.154L-89.873,122.231L-89.804,123.462L-89.736,122.923L-89.667,122.923L-89.599,121.308L-89.531,121.077L-89.462,122.385L-89.394,123.462L-89.325,123L-89.257,123.308L-89.188,123.077L-89.12,121.846L-89.051,121.462L-88.983,123.615L-88.915,124.769L-88.846,125L-88.778,125.308L-88.709,125.154L-88.641,123.846L-88.572,123.462L-88.504,126.846L-88.435,128.769L-88.367,128.692L-88.299,128.923L-88.23,129.231L-88.162,127.077L-88.093,125.154L-88.025,128L-87.956,129.385L-87.888,129.231L-87.819,129.154L-87.751,128.769L-87.683,128.538L-87.614,125.385L-87.546,126.385L-87.477,126.615L-87.409,126.538L-87.34,127L-87.272,127.615L-87.203,126.077L-87.135,124.923L-87.067,126L-86.998,126.308L-86.93,126.385L-86.861,126.308L-86.793,126.231L-86.724,124.692L-86.656,122.923L-86.587,124.538L-86.519,125.077L-86.45,125.231L-86.382,125.615L-86.314,125.308L-86.245,123L-86.177,120.077L-86.108,122.154L-86.04,123.615L-85.971,123.923L-85.903,124.308L-85.834,123.538L-85.766,119L-85.698,115.846L-85.629,116.308L-85.561,119.462L-85.492,120.077L-85.424,120.308L-85.355,120L-85.287,118.769L-85.218,116.231L-85.15,117.308L-85.082,118.692L-85.013,118.769L-84.945,118.846L-84.876,118.462L-84.808,116.923L-84.739,117.154L-84.671,118.769L-84.602,120.769L-84.534,121L-84.466,120.846L-84.397,118.538L-84.329,116.846L-84.26,116.769L-84.192,118.923L-84.123,121.692L-84.055,121.615L-83.986,120.077L-83.918,118.692L-83.85,118.385L-83.781,119.385L-83.713,124L-83.644,127.692L-83.576,128.077L-83.507,126.692L-83.439,125.923L-83.37,125.923L-83.302,126.385L-83.234,127.692L-83.165,130.077L-83.028,130.538L-82.96,129.923L-82.891,129.231L-82.823,129.385L-82.754,128.923L-82.686,130.462L-82.617,130.385L-82.549,130.538L-82.481,130.692L-82.412,130.385L-82.344,130.462L-82.275,132.769L-82.207,134.692L-82.07,135.154L-82.001,135.308L-81.933,135.462L-81.865,135.538L-81.796,137.385L-81.728,139L-81.659,139.308L-81.591,139.462L-81.522,139.538L-81.454,139.462L-81.385,139.538L-81.317,141.154L-81.249,142L-81.18,141.769L-81.112,141.769L-81.043,141.846L-80.975,142.231L-80.906,142.462L-80.838,142.923L-80.769,143.615L-80.427,143.769L-80.359,144.769L-80.29,145.077L-80.153,145.231L-80.085,145.231L-79.948,145.077L-79.88,145.385L-79.811,145.846L-79.743,145.769L-79.674,145.769L-79.606,145.692L-79.537,145.692L-79.469,145.692L-79.127,146.077L-78.99,146.231L-78.921,146.231L-78.508,146.231L-78.439,146.308L-78.371,146.308L-78.234,146.308L-78.029,146.385L-77.96,146.308L-77.755,146.308L-77.687,146.615L-77.481,146.615L-77.344,146.538L-77.207,146.538L-77.139,146.538L-77.07,146.692L-77.002,146.692L-76.728,146.615L-76.66,146.615L-76.591,146.615L-76.523,146.615L-76.318,146.615L-76.249,146.769L-76.112,146.692L-75.975,146.692L-75.907,146.769L-75.77,146.692L-75.633,146.769L-75.565,146.692L-75.496,146.385L-75.359,146.462L-75.222,146.462L-75.154,146.462L-74.675,146.231L-74.127,146.231L-73.854,146.231L-73.717,146.308L-73.443,146.308L-73.032,146.308L-72.827,146.308L-72.758,146.154L-72.416,145.923L-72.142,145.692L-72.074,145.615L-72.005,145.462L-71.937,145.385L-71.869,145.154L-71.8,145L-71.663,144.923L-71.389,144.615L-71.184,144.462L-70.91,144.462L-70.842,144.462L-70.773,144.231L-70.705,144L-70.637,144L-70.568,143.692L-70.363,143.692L-70.294,143.538L-70.16,143.692L-70.092,143.615L-70.023,143.154L-69.955,142.846L-69.886,141.538L-69.818,140.769L-69.544,140.846L-69.476,140.692L-69.407,140.462L-69.134,140.308L-68.928,139.769L-68.86,138.615L-68.586,138.769L-68.518,138.615L-68.449,138.462L-68.381,138.538L-68.312,137.692L-68.244,137.615L-68.175,137.538L-67.97,137.077L-67.902,136.923L-67.833,136.769L-67.765,136.538L-67.696,136.154L-67.628,136L-67.559,134.846L-67.491,134.615L-67.422,134.385L-67.354,134L-67.286,133.692L-67.217,133.846L-67.149,133.846L-67.08,134.231L-67.012,132.846L-66.943,133.154L-66.875,133.538L-66.806,133.385L-66.738,132.846L-66.67,132.538L-66.601,131.385L-66.533,131.077L-66.464,132.154L-66.396,131.923L-66.327,132.154L-66.259,132.231L-66.19,131.462L-66.122,129.923L-66.054,130L-65.985,129.846L-65.917,129.923L-65.848,130.385L-65.78,130.462L-65.711,128.769L-65.643,125.615L-65.574,125.615L-65.506,126.923L-65.437,126.846L-65.369,126.769L-65.301,126L-65.232,124.308L-65.164,122.923L-65.095,122.538L-65.027,122.385L-64.958,123.615L-64.89,124.615L-64.821,124.923L-64.753,123L-64.685,122.231L-64.616,122.692L-64.548,124.077L-64.479,124.462L-64.411,123.077L-64.342,122.846L-64.274,121.769L-64.137,120.769L-64.069,121.538L-64,123.769L-63.932,123.923L-63.863,124.231L-63.795,124.615L-63.726,121.846L-63.658,120.769L-63.589,122.538L-63.521,125.923L-63.453,125.923L-63.384,126L-63.316,126.308L-63.247,125.385L-63.179,123.462L-63.11,125.077L-63.042,126.154L-62.973,126.538L-62.905,126.692L-62.837,126.154L-62.768,123.538L-62.7,120.308L-62.631,122.231L-62.563,123.538L-62.494,123.385L-62.426,123.077L-62.357,122.923L-62.289,122.692L-62.221,121L-62.152,121.615L-62.084,121.923L-62.015,121.538L-61.947,121.462L-61.878,121.615L-61.81,119.385L-61.741,117.462L-61.673,119.846L-61.604,121L-61.536,120.923L-61.468,119.846L-61.399,117L-61.331,114.077L-61.262,113.692L-61.194,115.154L-61.125,118.077L-61.057,118.462L-60.988,118L-60.92,115.308L-60.852,113.538L-60.783,114.231L-60.715,115.923L-60.646,119.077L-60.578,118.538L-60.509,117.769L-60.441,116.615L-60.372,115.077L-60.304,115.231L-60.236,116.846L-60.167,118.846L-60.099,119L-60.03,119.308L-59.962,117.615L-59.893,115.462L-59.825,115.385L-59.756,117.308L-59.62,119.077L-59.551,119.308L-59.483,118.308L-59.414,116.846L-59.346,117.692L-59.277,120.846L-59.209,123.692L-59.14,123.769L-59.072,122.308L-59.004,121.538L-58.935,121.692L-58.867,122.308L-58.798,124.923L-58.73,126.615L-58.661,126.769L-58.593,126L-58.524,125.308L-58.456,125.462L-58.388,126.308L-58.319,127.615L-58.251,129.385L-58.182,129.615L-58.114,128.077L-58.045,127L-57.977,127.538L-57.908,127.923L-57.84,129.692L-57.772,131.692L-57.703,131.615L-57.635,131.231L-57.498,130.846L-57.429,130.538L-57.361,131.462L-57.292,132.846L-57.224,133.077L-57.155,132.615L-57.019,131.692L-56.95,131.923L-56.882,133.538L-56.813,134.462L-56.745,134.385L-56.676,134.538L-56.608,134.462L-56.539,134.538L-56.471,134.538L-56.403,136.462L-56.334,137.308L-56.266,137.538L-56.197,137.308L-56.129,137.308L-56.06,137.385L-55.992,137.692L-55.923,139.308L-55.855,140.462L-55.787,140.308L-55.718,140.231L-55.65,140.615L-55.581,141L-55.513,141L-55.444,141.692L-55.376,142.231L-55.239,142.692L-55.171,142.923L-55.102,143.231L-55.034,143.385L-54.965,143.923L-54.828,144.923L-54.76,144.923L-54.691,144.923L-54.623,144.923L-54.555,145.154L-54.486,145.154L-54.418,145.231L-54.281,145L-54.212,145.154L-54.144,145.154L-54.075,145.077L-54.007,145.308L-53.867,145.538L-53.799,145.615L-53.662,145.538L-53.593,145.538L-53.525,145.692L-53.457,145.846L-53.388,146L-53.32,146.231L-53.251,146.231L-53.183,146.308L-53.114,146.385L-53.046,146.538L-52.977,146.615L-52.841,146.615L-52.704,146.615L-52.225,146.615L-52.088,146.615L-51.951,146.615L-51.882,146.538L-51.814,146.385L-51.677,146.385L-50.992,146.308L-50.856,146.231L-50.787,146.077L-50.719,146.077L-50.65,146.385L-50.376,146.154L-50.24,146.154L-50.034,146.231L-49.966,146.231L-49.35,146.308L-49.144,146.308L-49.008,146.231L-48.939,146.231L-48.871,146L-48.665,145.923L-47.981,145.769L-47.912,145.615L-47.844,145.538L-47.775,145.538L-46.407,145.231L-46.338,144.538L-46.201,144.538L-45.927,144.385L-45.654,144.077L-45.448,143.846L-45.38,143.846L-45.246,144L-45.177,144.077L-44.972,144.154L-44.904,143.769L-44.767,143.385L-44.698,143.308L-44.63,143.462L-44.561,143.462L-44.493,143.154L-44.424,142.231L-44.356,141.154L-44.014,141.077L-43.945,141.154L-43.877,140.692L-43.808,140.615L-43.74,140.538L-43.672,139.769L-43.603,138.692L-43.535,138.462L-43.466,138.231L-43.329,138.308L-43.124,137.615L-43.056,136.769L-42.987,137.154L-42.919,137.462L-42.645,137.231L-42.576,137.231L-42.508,137.462L-42.44,136.692L-42.371,134L-42.234,130.077L-42.166,129.692L-42.097,129.769L-42.029,129.692L-41.96,129.769L-41.892,128.462L-41.755,126.077L-41.687,125.538L-41.618,125.692L-41.55,126.231L-41.481,126.615L-41.413,125.692L-41.344,123.846L-41.276,121.769L-41.208,121.615L-41.139,121.231L-41.071,121.308L-41.002,122.385L-40.934,122.615L-40.865,119.615L-40.66,115.923L-40.591,115.846L-40.523,116.538L-40.455,116.308L-40.386,116.154L-40.318,115.538L-40.249,112.308L-40.181,107.846L-40.112,108.462L-40.044,110.923L-39.975,114.692L-39.907,114.462L-39.839,113.308L-39.77,110.385L-39.702,107.769L-39.633,108.154L-39.565,109.923L-39.496,110.385L-39.428,110.385L-39.359,109.923L-39.291,107L-39.223,102.769L-39.154,103.923L-39.086,106.077L-39.017,105.923L-38.949,105.385L-38.88,105.385L-38.812,102.231L-38.743,99.154L-38.675,102.538L-38.607,105.077L-38.538,105.231L-38.47,104.769L-38.401,100L-38.333,94.923L-38.264,93.923L-38.196,96.692L-38.127,101L-38.059,100.538L-37.991,100.308L-37.922,97.846L-37.854,96.692L-37.785,97.692L-37.717,100.154L-37.648,102.769L-37.58,103.154L-37.511,102.615L-37.443,99.462L-37.375,95.692L-37.306,96.769L-37.238,98.923L-37.169,103.846L-37.101,103.769L-37.032,102.615L-36.964,98.462L-36.895,95.231L-36.827,95.308L-36.758,98.538L-36.69,101.231L-36.553,100.846L-36.485,101.154L-36.416,96L-36.348,92.462L-36.279,96.308L-36.211,101.385L-36.142,102.846L-36.074,102.846L-36.006,102.846L-35.937,101L-35.869,98.462L-35.8,99.615L-35.732,100.769L-35.663,100.692L-35.595,101.462L-35.526,101L-35.458,99.538L-35.39,98.692L-35.321,99.923L-35.253,103.769L-35.184,103.692L-35.116,104.923L-35.047,104.154L-34.979,103.769L-34.91,101.538L-34.842,105.692L-34.774,109.692L-34.705,110.077L-34.637,109.231L-34.568,109.462L-34.5,106.308L-34.431,106.846L-34.363,112.692L-34.294,116.538L-34.226,117.231L-34.158,117L-34.089,115L-34.021,112.846L-33.952,112.846L-33.884,115.385L-33.815,118.231L-33.747,118.462L-33.678,117.692L-33.61,116.769L-33.542,116.154L-33.473,117L-33.405,118.846L-33.336,120.538L-33.268,122.231L-33.199,122L-33.131,119.615L-33.062,119.462L-32.994,120.077L-32.926,120.846L-32.857,124.077L-32.72,123.846L-32.652,124L-32.583,124.077L-32.515,125.077L-32.446,125.077L-32.378,128.231L-32.309,128.077L-32.241,126.538L-32.173,126.538L-32.104,126.923L-32.036,127.077L-31.967,129.462L-31.899,132.077L-31.83,131.923L-31.762,131.231L-31.625,131.385L-31.557,132.385L-31.488,133.692L-31.42,134.769L-31.351,135.462L-31.283,135.308L-31.214,135.615L-31.146,135.846L-31.077,135.769L-31.009,136L-30.941,138.154L-30.872,138.385L-30.804,138.769L-30.735,139.154L-30.598,139.462L-30.53,139.923L-30.461,140.154L-30.393,140.231L-30.325,140.231L-30.256,140.385L-30.188,140.769L-30.119,141.308L-30.051,142.846L-29.982,143.154L-29.914,143.231L-29.845,143.769L-29.709,143.769L-29.64,143.923L-29.572,144.231L-29.503,145.077L-29.435,144.846L-29.366,145.077L-29.298,145.154L-29.093,145.154L-28.953,145.154L-28.747,145.308L-28.679,145.231L-28.611,145.308L-28.542,145.846L-28.474,145.846L-28.405,146.154L-28.337,146.231L-28.268,146.231L-28.2,146.154L-28.131,146.385L-27.858,146.462L-27.789,146.462L-27.721,146.308L-27.652,146.308L-27.584,146.385L-27.515,146.385L-27.447,146.385L-27.379,146.385L-27.31,146.385L-27.242,146.385L-27.173,146.385L-26.762,146.385L-26.694,146.231L-26.626,146.231L-26.42,146.231L-26.352,146.462L-26.283,146.385L-26.01,146.308L-25.941,146.385L-25.394,146.462L-25.325,146.462L-25.12,146.538L-24.983,146.538L-24.298,146.385L-23.888,146.462L-23.614,146.154L-23.546,145.538L-23.477,145.308L-23.066,145.308L-22.587,145.077L-22.382,145L-22.108,144.923L-21.492,145.154L-21.218,145L-20.945,145L-20.876,145L-20.808,144L-20.534,143.077L-20.465,143.077L-20.263,142.615L-20.126,142.692L-20.058,142.692L-19.989,142.692L-19.784,142.154L-19.715,141L-19.647,140.923L-19.578,140.692L-19.51,140.231L-19.442,140L-19.373,139.923L-19.236,139.538L-18.962,138.231L-18.757,137.692L-18.689,137.538L-18.62,137.077L-18.552,136.615L-18.483,135.692L-18.415,134.077L-18.141,133.923L-18.073,133.385L-18.004,133.462L-17.936,132.769L-17.867,132.077L-17.799,130.923L-17.73,129.077L-17.662,128.769L-17.594,129.615L-17.525,130.231L-17.457,130.154L-17.388,130.538L-17.32,129.154L-17.251,126.308L-17.183,124.308L-17.114,124.308L-17.046,125.385L-16.978,124.692L-16.909,124L-16.841,122.308L-16.772,121.692L-16.704,121.385L-16.635,121L-16.567,121.923L-16.498,121.462L-16.362,118.923L-16.293,115.769L-16.225,116.308L-16.156,117.615L-16.088,118.923L-16.019,118.923L-15.951,118.923L-15.882,116.846L-15.814,115.462L-15.745,116L-15.677,116.923L-15.609,118.231L-15.54,117.615L-15.472,117.077L-15.403,114.692L-15.335,113.154L-15.266,112.077L-15.198,112.538L-15.129,114.154L-15.061,115.769L-14.993,115.308L-14.924,114.769L-14.856,110.769L-14.787,110.538L-14.719,111.846L-14.65,111.846L-14.513,111.538L-14.445,111L-14.377,109.308L-14.308,107.923L-14.24,110.077L-14.171,113.385L-14.103,113.308L-14.034,113.462L-13.966,112.923L-13.897,109.615L-13.829,107.154L-13.761,108.231L-13.692,110L-13.624,109.692L-13.555,108.154L-13.487,107.615L-13.418,104.385L-13.35,103.231L-13.281,105.462L-13.213,106.231L-13.145,106L-13.076,106.154L-13.008,106.846L-12.939,102.923L-12.871,102.154L-12.802,102.308L-12.734,106.846L-12.665,107.846L-12.597,108.692L-12.529,108.923L-12.46,106.538L-12.392,104.923L-12.323,106.385L-12.255,107.923L-12.186,107.769L-12.118,107.462L-12.049,106.769L-11.981,104.154L-11.913,100.385L-11.844,102.769L-11.776,105.538L-11.707,106.154L-11.639,106.077L-11.57,105.385L-11.502,100.769L-11.433,99.769L-11.365,103.308L-11.296,104.615L-11.228,104.846L-11.16,105.154L-11.091,105.154L-11.023,100.923L-10.954,97.538L-10.886,101.231L-10.817,102.538L-10.749,102.385L-10.68,102.077L-10.612,100.923L-10.544,96.846L-10.475,93.923L-10.407,96.538L-10.338,99.154L-10.27,99L-10.201,99.385L-10.133,99.538L-10.064,96.154L-9.996,92.154L-9.928,93.154L-9.859,97.923L-9.791,98.846L-9.722,98.769L-9.654,98.308L-9.585,97.692L-9.517,97.231L-9.448,103.077L-9.38,104.462L-9.312,104.615L-9.243,104.692L-9.175,104.231L-9.106,103.077L-9.038,100.769L-8.969,105.385L-8.901,108.846L-8.832,109.462L-8.764,109.615L-8.696,109.615L-8.627,108.462L-8.559,108.154L-8.49,112.231L-8.422,115.538L-8.353,115.769L-8.285,115.923L-8.216,116.615L-8.148,116.385L-8.08,115.615L-8.011,119.462L-7.943,124L-7.874,124.462L-7.806,124.385L-7.737,124L-7.669,123.538L-7.6,123.692L-7.532,124.462L-7.463,125.615L-7.395,126.077L-7.327,126.308L-7.258,126.154L-7.19,126.538L-7.121,127.154L-7.053,128.538L-6.984,131.692L-6.916,131.615L-6.847,131.846L-6.779,131L-6.711,130.846L-6.642,131.385L-6.574,132.923L-6.505,134.308L-6.437,134L-6.368,133.538L-6.3,133.769L-6.231,133.692L-6.163,133.385L-6.095,133.769L-6.026,134.615L-5.958,133.923L-5.889,133.462L-5.821,134.308L-5.684,134.538L-5.615,134.846L-5.547,135.769L-5.479,136.385L-5.41,136.462L-5.342,136.692L-5.273,136.846L-5.205,137.308L-5.136,137.692L-5.068,137.615L-4.999,137.538L-4.931,137.846L-4.863,138.231L-4.794,138.538L-4.726,138.231L-4.657,138.846L-4.589,138.769L-4.52,138.769L-4.383,138.692L-4.247,138.769L-4.178,139L-4.107,139.231L-4.038,139.154L-3.97,139.308L-3.901,139.615L-3.833,139.846L-3.765,140L-3.696,140.462L-3.628,141.308L-3.559,141.769L-3.422,141.769L-3.354,142.077L-3.285,142.154L-3.217,142.231L-3.149,142.385L-3.08,142.538L-3.012,142.615L-2.875,141.846L-2.806,141.923L-2.738,142.077L-2.669,142.231L-2.601,142.231L-2.533,142.308L-2.464,142.462L-2.396,142.923L-2.327,143.308L-2.259,143.538L-2.19,143.615L-1.985,143.846L-1.848,144.077L-1.78,144.231L-1.643,144.769L-1.574,144.846L-1.506,144.923L-1.437,145L-1.369,145.077L-1.3,145.462L-1.232,145.769L-1.164,145.846L-1.095,145.846L-1.027,145.462L-0.89,145.385L-0.821,145.385L-0.753,145.385L-0.616,145.385L-0.548,145.231L-0.479,144.923L-0.411,145.385L-0.342,145.231L-0.274,144.769L-0.137,144.462L-0.068,144.462L0.068,144.385L0.137,143.615L0.411,143.692L0.479,143.385L0.548,143.692L0.753,143.538L0.89,143.308L0.958,143.154L1.027,142.846L1.916,142.615L2.053,142.308L2.464,142.154L3.422,142.077L3.491,142L3.559,142L3.628,141.692L3.901,141.692L3.97,141.692L4.038,142L4.244,142.077L4.449,141.615L4.517,141.308L4.586,141.308L4.654,141.231L4.723,141.154L4.791,141.385L4.86,141.385L4.928,140.615L4.994,140.385L5.062,140.154L5.131,140.231L5.199,140.846L5.336,140.615L5.473,140.077L5.541,139.615L5.61,139.538L5.678,139.692L5.747,139.538L5.815,139.846L5.884,140L5.952,139.538L6.089,139.154L6.157,139.077L6.226,139.154L6.294,139.154L6.5,139.385L6.568,137.308L6.636,136.462L6.705,136.308L6.842,136.077L6.91,136.231L6.979,135.538L7.047,135.385L7.116,135.077L7.184,134.077L7.252,133.923L7.321,134.154L7.389,135.077L7.458,135.154L7.526,134.077L7.595,132.846L7.663,132.462L7.732,132.231L7.8,132.154L7.868,131.846L7.937,131.154L8.005,129.154L8.074,126.923L8.142,125.385L8.211,124.385L8.279,124.308L8.348,124.231L8.416,124.154L8.553,121.462L8.621,120.846L8.69,120L8.758,121.692L8.827,122.385L8.895,121.923L8.964,120.538L9.032,118.923L9.101,117.308L9.169,116.923L9.237,116.231L9.306,116.308L9.443,116.462L9.511,115.154L9.58,111.615L9.648,108.923L9.717,109.231L9.785,109.308L9.853,108.769L9.922,108.615L9.99,108.462L10.059,105.846L10.127,103.308L10.196,104.615L10.264,107L10.333,107.769L10.401,108.308L10.469,109L10.538,107.077L10.606,104.769L10.675,105.846L10.743,106.462L10.812,106.462L10.88,106.462L10.949,106.308L11.017,105.769L11.085,102.154L11.154,103.154L11.222,105.231L11.291,105.308L11.359,106.231L11.428,106.538L11.496,103.077L11.565,101.846L11.633,105.154L11.701,107.923L11.77,108.077L11.838,108.615L11.907,109.077L11.975,106.615L12.044,106.154L12.112,109.615L12.181,112.462L12.249,112.615L12.317,112.462L12.386,112.692L12.454,111.846L12.523,111.077L12.591,113.385L12.66,114.692L12.728,115.154L12.797,113.923L12.865,113.231L12.933,111L13.002,107.846L13.07,107.692L13.139,112.538L13.207,113.385L13.276,113.846L13.344,114L13.413,112.231L13.481,111L13.55,114.077L13.618,116.462L13.686,116.692L13.755,116.462L13.823,116.538L13.892,113.615L13.96,112.692L14.029,115.308L14.097,115.385L14.166,114.077L14.234,113.846L14.302,113.692L14.371,109.923L14.439,105.923L14.508,106.385L14.576,107.077L14.645,106.769L14.713,107.462L14.782,106.692L14.85,104.846L14.918,102.846L14.987,103.615L15.055,106.769L15.124,107.308L15.192,107.308L15.261,107L15.329,104.462L15.398,103.077L15.466,104L15.534,105.615L15.603,105.769L15.671,105.154L15.74,104.077L15.808,100.462L15.877,99L15.945,102.231L16.014,103L16.082,102.923L16.15,103.308L16.219,103.154L16.287,100.846L16.356,100.231L16.424,103.692L16.493,107.769L16.561,108.538L16.63,108.615L16.698,109L16.766,109.308L16.835,109.923L16.903,111.846L16.972,115.385L17.04,117.077L17.109,116.692L17.177,117L17.246,115.846L17.314,116L17.383,118.462L17.451,119.846L17.519,120.615L17.588,121.154L17.656,121.462L17.725,121.615L17.793,121.923L17.862,125.077L17.93,126.385L17.999,126.615L18.067,127.231L18.135,127.154L18.204,128.077L18.272,128.615L18.341,131.769L18.409,133.154L18.478,133.615L18.546,133.692L18.615,133.538L18.683,133.538L18.751,133.462L18.82,133.462L18.888,134.385L18.957,135.615L19.025,135.615L19.094,135.538L19.162,136.154L19.231,136.692L19.299,138.231L19.367,138.308L19.436,138.077L19.504,138.385L19.573,138.769L19.641,138.769L19.71,138.692L19.778,139.385L19.847,139.923L19.915,140.923L19.983,141.846L20.052,141.538L20.12,141.615L20.189,142.231L20.257,142.385L20.394,143.308L20.531,143.308L20.599,143.231L20.668,143.231L20.736,143.615L20.805,143.923L20.873,144.077L20.942,144.308L21.01,144.538L21.079,144.923L21.147,144.769L21.215,144.923L21.287,145.154L21.355,145.077L21.424,145.077L21.492,145L21.629,145.077L21.697,145.538L21.766,145.615L21.834,145.692L21.903,145.692L21.971,145.769L22.04,145.769L22.108,146.308L22.177,146.308L22.45,146.231L22.519,146.462L22.587,146.462L22.793,146.308L22.93,146.308L22.998,146.308L23.066,146.077L23.135,146.154L23.203,146.308L23.272,146.308L23.409,146.308L23.682,146.308L23.751,146.308L23.819,146.308L23.888,146.308L24.025,146.231L24.093,146.231L24.23,145.846L24.298,145.538L24.367,145.462L24.504,145.308L24.572,145.308L24.641,144.923L24.709,144.615L24.778,144.462L24.983,144.308L25.051,144L25.12,143.923L25.257,143.923L25.325,144L25.736,144.077L25.804,144.308L25.873,144.385L26.352,144.538L26.42,144.462L26.489,144.385L26.557,144.615L26.694,144.308L26.831,144.231L26.968,144.231L27.036,144.154L27.173,144.077L27.31,144L27.379,144L27.447,144L28.063,144.154L28.337,144L28.405,144L28.474,144.308L28.542,144.385L28.611,144.308L28.679,143.846L28.747,143.923L28.816,143.538L28.884,143.154L28.953,143.231L29.021,143L29.09,142.615L29.158,141.615L29.295,141.385L29.363,141.231L29.432,141.154L29.569,141.077L29.637,140.846L29.843,140.538L30.114,139.615L30.319,139.462L30.387,139.769L30.456,139.538L30.661,138.231L30.73,136L30.798,134.692L30.866,134.308L31.003,133.385L31.072,132.923L31.209,132.385L31.277,132.462L31.482,132.077L31.619,131.385L31.688,131.077L31.756,130.692L31.825,130.923L31.893,131L31.962,131.462L32.03,132L32.098,131.769L32.167,132.154L32.235,131.846L32.304,132.077L32.372,131.385L32.441,131L32.509,128.846L32.578,127.231L32.646,127.462L32.714,127.615L32.783,128.154L32.92,128.231L32.988,128L33.057,125.692L33.125,124.231L33.194,125.385L33.262,126.615L33.33,126.154L33.399,126.154L33.467,125.077L33.536,122.692L33.604,120L33.673,120.308L33.741,121.077L33.81,120.308L33.878,119.462L33.946,118.077L34.015,115.538L34.083,112.769L34.152,111.923L34.22,111.462L34.289,110.923L34.357,110L34.426,110L34.494,108.846L34.563,106.538L34.631,108.385L34.699,108.923L34.768,105.538L34.836,104.615L34.905,104.615L34.973,100.692L35.042,97.154L35.11,98.615L35.179,100.231L35.247,99.308L35.315,98.077L35.384,98.231L35.452,98.231L35.521,97.615L35.589,99.538L35.658,100.077L35.726,99.846L35.795,99.692L35.863,100.462L35.931,99.231L36,97.231L36.068,99.769L36.137,102.385L36.205,102.308L36.274,103.077L36.342,103.538L36.411,101.231L36.479,96.462L36.547,97.846L36.616,100.308L36.684,99.538L36.753,100.231L36.821,102.615L36.89,101.538L36.958,99.077L37.027,102.846L37.095,105.692L37.163,105.154L37.232,105.154L37.3,105.692L37.369,103.846L37.437,99.538L37.506,99.308L37.574,100.538L37.643,101.154L37.711,101.923L37.779,99.692L37.848,97.385L37.916,93.538L37.985,95.923L38.053,99.154L38.122,96.615L38.19,95.923L38.259,95.538L38.327,93.615L38.396,90.538L38.464,93.615L38.532,98.769L38.601,99.154L38.669,98.923L38.738,99.692L38.806,95.385L38.875,93.385L38.943,94.615L39.012,97.231L39.08,96.769L39.148,96.308L39.217,96.846L39.285,94L39.354,89.538L39.422,91.692L39.491,96.308L39.559,96.615L39.628,96.692L39.696,94.846L39.764,93.538L39.833,93.923L39.901,93.385L39.97,96.231L40.038,96.308L40.107,96.077L40.175,96.692L40.244,95.923L40.312,94.846L40.38,96.385L40.449,99.308L40.517,99.385L40.586,99L40.654,98.615L40.723,97.077L40.791,95.769L40.86,100.154L40.928,103L40.996,103.154L41.065,102.462L41.133,101.462L41.202,101.385L41.27,100.308L41.339,103.538L41.407,108.846L41.476,109.385L41.544,109.769L41.612,109.615L41.681,108.615L41.749,107.769L41.818,110.077L41.886,111.846L41.955,113.923L42.023,115.077L42.092,114.154L42.16,113.538L42.228,114.231L42.297,115.615L42.365,117.308L42.434,117.385L42.502,117.385L42.571,117.231L42.639,117L42.708,114.692L42.776,116.769L42.845,118.385L42.913,118.231L42.981,118L43.05,117.923L43.118,117.308L43.187,118L43.255,118.692L43.324,120.692L43.392,120.923L43.461,121.538L43.529,121.769L43.597,119.308L43.666,120.231L43.734,122.077L43.803,124.538L43.871,124.538L43.94,124.769L44.008,125L44.077,124.462L44.145,125.154L44.213,126L44.282,127.385L44.35,127.846L44.419,128.385L44.487,128.692L44.556,129L44.624,129.692L44.693,130.692L44.761,133.692L44.829,133.769L44.898,133.769L44.966,134.231L45.035,134.615L45.103,135.538L45.172,137.077L45.24,138.077L45.309,138.769L45.377,138.923L45.445,139.462L45.514,139.462L45.582,139.769L45.651,142.308L45.719,142.231L45.788,142.077L45.856,142.692L45.925,143.154L45.993,143.538L46.061,144.308L46.13,144.846L46.201,145.385L46.27,145.846L46.338,145.769L46.407,145.769L46.475,145.923L46.543,146L46.612,146.077L46.749,146.385L46.817,146.385L46.886,146.385L46.954,146.385L47.023,146.385L47.091,146.462L47.159,146.385L47.228,146.308L47.296,146.385L47.365,146.385L47.502,146.385L47.57,146.385L47.639,146.077L47.707,146.154L47.775,146.077L47.981,146.077L48.049,146.154L48.118,146.231L48.186,146.231L48.255,146.231L48.323,146.385L48.392,146.308L48.46,146.462L48.528,146.385L48.597,146.385L48.734,146.385L48.802,146.385L48.871,146.308L48.939,146.231L49.008,145.462L49.076,144.308L49.144,144.308L49.35,144.231L49.487,142.308L49.692,142.154L50.582,142.154L50.65,142.231L50.719,142.154L50.992,142.154L51.266,142.154L51.335,142.231L51.403,142.231L51.54,142.462L51.814,142.462L51.882,142.308L52.088,142.308L52.361,142.385L52.498,142.308L52.635,142.385L52.704,142.308L52.772,142.308L52.841,142.385L52.909,142.308L52.977,142.385L53.046,142.308L53.251,142.308L53.32,142.231L53.388,142.308L53.457,142.385L53.525,142.846L53.867,143.769L53.936,143.692L54.004,143.615L54.073,145.462L54.278,144.308L54.415,143.692L54.62,143.462L54.689,143.462L54.757,143.385L54.891,143.308L55.028,142.923L55.165,142.231L55.233,141.462L55.302,141L55.37,140.308L55.576,140.308L55.712,139.769L55.781,139.231L55.849,138.154L55.918,136.923L55.986,136.769L56.055,135.538L56.192,134.385L56.328,133.308L56.397,130.923L56.465,129.308L56.534,128.231L56.602,127.923L56.671,126.846L56.739,126.154L56.808,125.923L56.876,125.615L56.944,125.615L57.013,125.231L57.081,125.846L57.218,126.308L57.287,126.308L57.355,126L57.424,125.769L57.492,125.769L57.56,124.462L57.629,124.615L57.697,124.923L57.766,123.846L57.834,123.769L57.903,121.769L57.971,119.154L58.04,117.692L58.108,116.385L58.176,116.846L58.245,115.923L58.313,116.846L58.382,117.385L58.45,117.231L58.519,117.692L58.587,119.077L58.656,119.692L58.724,119.077L58.792,118.923L58.861,118.154L58.929,116.154L58.998,114.462L59.066,113.769L59.135,112.615L59.203,112.692L59.272,107.846L59.34,105.923L59.409,103.923L59.477,100L59.545,99.077L59.614,99.538L59.682,99L59.751,97.769L59.819,98L59.888,96.231L59.956,94.846L60.025,97.154L60.093,97.769L60.161,99.462L60.23,99.615L60.298,99.538L60.367,97.077L60.435,96.615L60.504,96.846L60.572,97.846L60.641,95.538L60.709,95.231L60.777,95.538L60.846,93.154L60.914,91.308L60.983,92.462L61.051,92.923L61.12,92.615L61.188,93L61.257,92.692L61.325,92.308L61.393,91.077L61.462,92.692L61.53,96.769L61.599,96.769L61.667,97.308L61.736,96.462L61.804,95.308L61.873,95.538L61.941,98L62.009,100.923L62.078,101.769L62.146,102.231L62.215,102.462L62.283,100.846L62.352,98.538L62.42,100.308L62.489,99.308L62.557,99.154L62.625,99.538L62.694,101.308L62.762,100.154L62.831,98.385L62.899,101.308L62.968,104.538L63.036,105.077L63.105,105.462L63.173,105.615L63.242,105.615L63.31,104.692L63.378,109.846L63.447,112.462L63.515,111.769L63.584,111.462L63.652,111.538L63.721,111.154L63.789,111L63.858,113.154L63.926,112.615L63.994,112.538L64.063,112.154L64.131,110.462L64.2,105.615L64.268,101L64.337,102.462L64.405,105.231L64.474,105.692L64.542,107.385L64.61,107.846L64.679,105.231L64.747,104.154L64.816,104.692L64.884,106.538L64.953,106.692L65.021,106.692L65.09,106.692L65.158,105.692L65.226,105.615L65.295,106.231L65.363,108.077L65.432,107.769L65.5,107.385L65.569,107.308L65.637,105.385L65.706,105.692L65.774,106.154L65.842,107.846L65.911,107.846L65.979,108.077L66.048,104.769L66.116,103.923L66.185,105L66.253,110.923L66.322,115.538L66.39,115.923L66.458,115.692L66.527,113.923L66.595,112.077L66.664,112.308L66.732,115.077L66.801,116.462L66.869,117.538L66.938,116.615L67.006,115.615L67.074,114.846L67.143,115.077L67.211,116.231L67.348,116.308L67.417,116.385L67.485,116.231L67.554,116.538L67.622,116.923L67.691,118.308L67.759,120.462L67.827,120.923L67.896,121.385L67.964,121.231L68.033,121.615L68.101,122.846L68.17,126.462L68.238,127.923L68.307,128.462L68.375,128.231L68.443,128.692L68.512,128.385L68.58,129.077L68.649,131.077L68.717,133.154L68.786,133.154L68.854,133.538L68.923,133.615L68.991,133.846L69.059,135.154L69.128,136.385L69.196,137.538L69.265,138.077L69.333,138.538L69.402,139.385L69.47,139.692L69.539,139.923L69.607,140.077L69.675,140.846L69.744,141.077L69.812,141.077L69.881,141L69.949,141.154L70.018,141.615L70.086,142L70.155,142L70.223,142.077L70.291,142.231L70.36,142.308L70.428,142.538L70.565,142.462L70.634,142.846L70.702,142.923L70.771,143.154L70.839,143.231L70.907,143.692L70.976,143.769L71.044,144.308L71.321,144.462L71.526,144.615L71.8,144.846L71.869,144.769L71.937,144.769L72.005,145.385L72.074,145.462L72.142,145.538L72.211,145.385L72.279,145.385L72.348,145.154L72.416,145.154L72.485,145.385L72.827,145.462L72.895,145.462L73.032,145.615L73.101,145.615L73.169,145.692L73.443,145.615L73.511,145.615L73.648,145.538L73.717,145.538L73.785,145.615L73.854,145.923L73.922,146L73.99,146.077L74.059,146.231L74.127,146.154L74.196,145.385L74.264,145.077L74.333,144.769L74.47,144.769L74.538,144.846L74.606,144.923L74.675,144.769L74.743,144.385L74.812,144.462L74.88,144.538L74.949,144.538L75.017,144.462L75.086,144.692L75.154,144.692L75.222,144.692L75.291,144.846L75.359,144.769L75.428,144.769L75.496,144.769L75.565,144.692L75.77,144.692L75.838,144.615L75.975,144.692L76.66,144.615L76.728,144.462L76.797,144.231L77.002,143.846L77.139,143.769L77.344,143.692L77.413,143.769L77.481,144.308L77.55,144.538L77.618,144.769L77.687,143.923L77.823,143.769L78.029,143.769L78.097,143.846L78.234,143.923L78.439,143.462L78.508,142.308L78.576,142L78.645,142.077L78.713,141.769L78.782,141.769L78.987,140.615L79.055,139.385L79.192,138.615L79.329,138.538L79.535,138.308L79.603,138.385L79.671,138.231L79.737,137.231L79.805,136.385L79.874,136.462L79.942,136.385L80.011,136.154L80.148,136.385L80.216,134.846L80.285,133.615L80.353,130.692L80.49,129.769L80.558,129.231L80.627,129.154L80.695,129.385L80.764,128.615L80.832,128L80.901,127.692L80.969,127.846L81.038,128L81.106,128.846L81.174,128.846L81.311,128.154L81.448,128.385L81.517,127.846L81.585,127.846L81.654,128.462L81.722,128.846L81.79,128L81.859,127.154L81.927,126.462L81.996,126.231L82.064,125.769L82.133,125.615L82.201,124.231L82.27,122.077L82.338,119.308L82.406,118.538L82.475,119.385L82.543,119.692L82.612,122.231L82.68,122.538L82.749,120.846L82.817,118L82.954,113.615L83.022,113.769L83.091,114L83.159,114.154L83.228,113.615L83.296,110.615L83.365,107.385L83.433,106.538L83.502,105.154L83.57,104.077L83.638,103.308L83.707,102.692L83.775,98.308L83.844,93.692L83.912,94.308L83.981,94.923L84.118,94.308L84.186,94.538L84.255,94.538L84.323,90.154L84.391,87.462L84.46,89.077L84.528,92L84.597,92.231L84.665,92.615L84.734,91.692L84.802,86.462L84.871,82.615L84.939,83.385L85.007,85.077L85.076,88.154L85.144,87.769L85.213,86.846L85.281,85.462L85.35,83.692L85.418,86.231L85.487,89.308L85.555,90.154L85.623,90.692L85.692,91.462L85.76,91.846L85.829,91.846L85.897,96.077L85.966,100.077L86.034,99.615L86.103,100.077L86.171,100.385L86.239,97.077L86.308,95.846L86.376,100.615L86.445,104.077L86.513,104.846L86.582,105L86.65,104.923L86.719,103.615L86.787,104.154L86.855,109.769L86.924,113.846L86.992,114.692L87.061,115.231L87.129,116.077L87.198,115.154L87.266,114L87.335,115.077L87.403,117.231L87.471,117.846L87.54,117.846L87.608,117.769L87.677,117.308L87.745,115.462L87.814,116.077L87.882,117.462L87.951,117.846L88.019,118.154L88.087,116.615L88.156,113.308L88.224,114L88.293,117.462L88.361,119.923L88.43,120.077L88.498,120L88.567,117.846L88.635,116.692L88.704,117.231L88.772,118.077L88.84,119.154L88.909,119L88.977,119.308L89.046,116.923L89.114,114L89.183,114.231L89.251,115.692L89.32,118.154L89.388,117.846L89.456,117.462L89.525,116.154L89.593,114.462L89.662,113.846L89.73,115.308L89.799,117.077L89.867,117L90.004,117.385L90.072,115.692L90.141,114.615L90.209,116.385L90.278,119.462L90.346,119.769L90.415,119.769L90.483,119.615L90.552,118.231L90.62,115.538L90.688,117.154L90.757,118.154L90.825,118L90.894,118.308L90.962,118.308L91.031,115.077L91.099,112.692L91.168,115.077L91.236,118.538L91.304,119.077L91.373,119.462L91.441,118.385L91.51,117.538L91.578,116.231L91.647,117.231L91.715,118.769L91.784,119.923L91.852,120.154L91.92,120.077L91.989,118.615L92.057,115.692L92.126,117.692L92.194,119.077L92.263,119.538L92.331,119.615L92.4,119.385L92.468,118.615L92.537,117.077L92.605,118.538L92.673,121.615L92.742,122.077L92.81,122.462L92.879,122.769L92.947,122.692L93.016,122.923L93.084,126.154L93.153,128.769L93.221,129.385L93.289,129.154L93.358,128.538L93.426,128.308L93.495,129.077L93.563,130.615L93.632,132.462L93.7,132.923L93.769,133.385L93.837,133.231L93.905,132.846L93.974,133.154L94.042,134.846L94.111,137.692L94.179,137.769L94.248,138.231L94.316,138.077L94.385,137.923L94.453,138L94.521,138.846L94.59,140.923L94.658,141.231L94.727,141.462L94.795,141.538L94.864,141.385L94.932,141.538L95.001,142.154L95.069,142.077L95.137,142.154L95.206,142.231L95.274,141.846L95.343,142.308L95.411,143.154L95.48,143.615L95.548,143.846L95.617,143.923L95.685,144.077L95.753,144L95.822,144.154L95.89,144.308L95.959,145.077L96.03,145.231L96.099,145.385L96.235,145.231L96.304,145.077L96.372,145.077L96.441,145.154L96.509,145.462L96.578,145.692L96.646,145.692L96.715,145.615L96.783,145.538L96.851,145.538L96.92,145.538L96.988,145.692L97.057,145.692L97.125,145.538L97.194,145.615L97.262,145.615L97.331,145.615L97.399,146L97.467,146L97.536,146.077L97.604,146L97.673,145.923L97.741,146L97.81,146L97.878,146.077L97.947,146.154L98.015,146.154L98.152,146.077L98.22,146.154L98.289,146L98.357,145.846L98.426,145.692L98.494,145.692L98.563,145.846L98.631,145.615L98.7,145.538L98.768,145.538L98.836,145.538L98.905,145.692L98.973,145.769L99.042,145.538L99.11,145.385L99.179,145.385L99.247,145.385L99.316,145.462L99.384,145.462L99.521,145.462L99.589,145.538L99.658,145.538L99.726,145.308L100,145.308L100.068,145.385L100.137,145.308L100.205,145.308L100.274,145.231L100.342,144.923L100.411,144.923L100.548,145L100.616,145L100.684,145.154L100.753,145.308L100.821,145.615L100.89,145.615L100.958,145.538L101.027,145.769L101.164,145.846L101.232,145.692L101.3,145.769L101.369,145.692L101.437,145.692L101.506,145.769L101.574,145.923L101.711,145.923L101.78,146.077L101.848,145.692L101.916,145.615L101.985,145.538L102.053,144.923L102.122,143.692L102.19,143.692L102.259,143.154L102.327,143L102.464,143L102.601,142.769L102.669,142.231L102.806,142.231L102.875,142L102.943,142L103.012,141.385L103.149,140.923L103.217,140.769L103.285,140.385L103.354,140L103.422,140.077L103.491,140.077L103.628,140.077L103.696,140.154L103.97,140.077L104.038,139.769L104.107,139.538L104.175,139.385L104.244,139.308L104.312,139.308L104.381,139L104.449,139.385L104.517,139.308L104.586,138.923L104.651,139.462L104.72,140.462L104.788,140L104.857,140.615L104.925,140.846L104.994,140.692L105.062,140.769L105.199,140.846L105.268,141.077L105.336,140.923L105.404,140.769L105.473,141.231L105.678,141.308L105.815,141.385L105.884,131.385L105.952,131.615L106.089,131.462L106.157,131.077L106.226,130.308L106.294,130.231L106.363,129.846L106.431,130.231L106.5,130.308L106.568,130.615L106.636,130.538L106.705,130.462L106.842,130.769L106.91,130.769L106.979,130.692L107.047,130.923L107.116,130.154L107.184,129.692L107.252,129.923L107.321,129.615L107.389,129.077L107.458,129L107.526,129.154L107.595,126.846L107.663,125.462L107.732,124.692L107.868,123.769L108.005,123.308L108.074,123.308L108.142,121.615L108.211,129.923L108.279,129.538L108.348,129.692L108.416,129.923L108.484,130L108.553,130.154L108.621,129.692L108.69,125.308L108.758,123.385L108.895,120.385L108.964,119.231L109.032,118.692L109.101,117.077L109.169,114.385L109.237,110.385L109.306,109.077L109.374,107.615L109.443,106.615L109.511,104.769L109.58,101.615L109.648,95.692L109.717,89.385L109.853,87.077L109.922,89.308L109.99,89.462L110.059,88.308L110.127,86L110.196,83.846L110.264,79.923L110.333,79.923L110.401,79.231L110.469,78.385L110.538,77.077L110.606,75.538L110.675,73.538L110.743,69.923L110.812,69.615L110.88,73L110.949,74.308L111.017,75.846L111.085,75.923L111.154,74.462L111.222,69.923L111.291,70.923L111.359,73.308L111.428,73.231L111.496,72.769L111.565,72.308L111.633,69L111.701,66.154L111.77,70.231L111.838,76L111.907,77.846L111.975,77.615L112.044,76.615L112.112,70.538L112.181,62.154L112.249,62.769L112.317,65.846L112.386,65.923L112.454,67.231L112.523,64.846L112.591,60.462L112.66,59.154L112.728,60.769L112.797,64.154L112.865,62.077L112.933,60L113.002,58.769L113.07,53.462L113.139,45.462L113.207,44.769L113.276,49.769L113.344,48.923L113.413,49.923L113.481,48.077L113.55,44.385L113.618,43.231L113.686,46.923L113.755,51.615L113.823,52.923L113.892,51.462L113.96,49.923L114.029,42.846L114.097,35.769L114.166,39.154L114.234,49.231L114.302,49.615L114.371,49.615L114.439,49.923L114.508,48L114.576,41.769L114.645,43.231L114.713,44.923L114.782,44.385L114.85,44.231L114.918,45.846L114.987,39.231L115.055,25.615L115.124,22.077L115.192,29.308L115.261,30.769L115.329,31.769L115.398,32L115.466,26L115.534,19.846L115.603,23.077L115.671,25.154L115.74,25.462L115.808,24.692L115.877,22.692L115.945,19.154L116.014,16L116.082,22.385L116.15,29.923L116.219,32.769L116.287,32.462L116.356,30.308L116.424,24.231L116.493,18.692L116.561,21.077L116.63,30.462L116.698,33.538L116.766,33.308L116.835,33.385L116.903,27.615L116.972,24.692L117.04,33.692L117.109,47.308L117.177,56.538L117.246,57.769L117.314,56.923L117.383,52.308L117.451,49.692L117.519,56.615L117.588,66.077L117.656,68.769L117.725,67.538L117.793,69.154L117.862,69.846L117.93,68.385L117.999,73.462L118.067,77.154L118.135,77.769L118.204,78.077L118.272,78.462L118.341,77.923L118.409,80.308L118.478,87.462L118.546,94L118.615,94.615L118.683,95.231L118.751,94L118.82,94.846L118.888,96.077L118.957,102.154L119.025,106.077L119.094,106.077L119.162,105.615L119.231,103L119.299,100L119.367,100.692L119.436,104.769L119.504,109.462L119.573,109.462L119.641,109L119.71,108.538L119.778,110.308L119.847,110.231L119.915,111.692L119.983,116.231L120.052,116.692L120.12,117.769L120.189,117L120.257,118.231L120.326,120L120.394,122.385L120.463,123.308L120.531,123.154L120.599,123.231L120.736,123.077L120.805,122L120.873,124.231L120.945,124.769L121.013,125.077L121.081,124.692L121.15,124.923L121.218,125.615L121.287,127.923L121.355,131.615L121.424,135.231L121.492,136.154L121.561,136.385L121.629,135.923L121.697,135.154L121.766,135.692L121.834,136.615L121.903,137.308L121.971,137.308L122.04,137.538L122.108,137.538L122.177,137.692L122.245,137.923L122.313,139.538L122.382,139.462L122.45,139.231L122.519,139.231L122.587,139.769L122.656,139.846L122.724,140.385L122.793,140.846L122.861,141.923L122.93,142.077L122.998,142.231L123.066,142.154L123.135,142.538L123.203,142.923L123.272,142.923L123.34,142.692L123.477,142.538L123.546,142.692L123.614,143.077L123.682,143.385L123.751,144.077L123.888,144.846L124.162,144.923L124.298,145L124.641,145L124.709,144.846L124.846,144.846L124.914,144.769L124.983,144.923L125.051,145.077L125.12,145.154L125.188,145.462L125.257,145.538L125.325,145.615L125.394,145.692L125.53,145.923L125.599,145.538L125.667,145.462L125.736,145.231L125.804,144.923L125.941,144.769L126.01,144.538L126.078,144.538L126.146,144.538L126.215,144.462L126.352,144.538L126.489,144.692L126.557,144.154L126.626,143.846L126.694,143.308L126.762,142.615L126.831,142.538L126.899,142.462L126.968,142.385L127.036,142.154L127.242,142.077L127.447,141.769L127.515,141.154L127.584,137.692L127.858,136.846L127.926,135.769L128.063,135.615L128.2,134.615L128.474,133.154L128.542,131.462L128.747,131L128.816,130.923L128.884,130.692L128.953,130.923L129.021,130.923L129.227,130.923L129.295,129.846L129.363,127.154L129.432,126.154L129.5,124.538L129.569,123.846L129.637,121.846L129.706,121.692L129.774,114.077L129.843,114L129.911,113.385L129.979,112.077L130.045,111.462L130.114,111.462L130.182,109.308L130.319,107.077L130.387,106.615L130.456,104.923L130.524,107.692L130.593,108.538L130.661,108.385L130.73,104.769L130.798,104.615L130.866,104.615L130.935,105.231L131.003,102.462L131.072,102.231L131.14,102.077L131.209,99.462L131.277,93.538L131.346,92.462L131.414,92.769L131.482,94.846L131.551,95.692L131.619,95L131.688,94.923L131.756,96L131.825,95.692L131.893,102.692L132.03,101.538L132.098,101.462L132.167,99.308L132.235,92.154L132.304,84.769L132.372,84.538L132.441,84.769L132.509,82L132.578,81.308L132.646,77.615L132.714,67L132.783,55.385L132.851,56.692L132.92,56.615L132.988,57.385L133.057,56.231L133.125,58.769L133.194,58.846L133.262,59.231L133.33,55.462L133.399,58.615L133.467,57.538L133.536,57.923L133.604,56.846L133.673,51.538L133.741,41.538L133.81,40L133.878,39.615L133.946,38.462L134.015,37L134.083,36L134.152,27.538L134.22,21.154L134.289,27.462L134.357,31.385L134.426,31L134.494,30.692L134.563,30.385L134.631,28.385L134.699,21.615L134.768,29.462L134.836,41.538L134.905,41.154L134.973,39.769L135.042,36.769L135.11,27.385L135.179,12.692L135.247,9.923L135.315,8.769L135.384,14.154L135.452,16.615L135.521,18.462L135.589,18.231L135.658,13.462L135.726,14.923L135.795,26.846L135.863,28.462L135.931,29.308L136,31.308L136.068,28.846L136.137,25.154L136.205,34L136.274,43.154L136.342,43.308L136.411,45.385L136.479,46.385L136.547,46.308L136.616,43L136.684,45.231L136.753,54.462L136.821,56.077L136.89,54.077L136.958,55L137.027,49.462L137.095,46.154L137.163,55L137.232,68.462L137.3,70.462L137.369,71.308L137.437,70.308L137.506,63L137.574,58.846L137.643,58.308L137.711,63.077L137.779,65.615L137.848,64.769L137.916,63.231L137.985,56.385L138.053,52.538L138.122,55.846L138.19,62.077L138.259,62.615L138.327,61.692L138.396,61.692L138.464,59.462L138.532,52.923L138.601,54.231L138.669,60.231L138.738,62.923L138.806,63.923L138.875,62.615L138.943,61.615L139.012,63.615L139.08,70.615L139.148,76.231L139.217,76.923L139.285,77.077L139.354,76.923L139.422,71.769L139.491,65.385L139.559,72.462L139.628,75.615L139.696,77L139.764,77.231L139.833,76.154L139.901,70.769L139.97,67.308L140.038,68.692L140.107,70.154L140.175,70.846L140.244,70.923L140.312,69.154L140.38,64.385L140.449,59.077L140.517,61.385L140.586,68.538L140.654,68.231L140.723,68.308L140.791,66.154L140.86,60.154L140.928,54.923L140.996,58L141.065,56.538L141.133,57.077L141.202,58.308L141.27,57.846L141.339,53.154L141.407,49.538L141.476,54.154L141.544,61.692L141.612,61.385L141.681,61.462L141.749,59.615L141.818,56.923L141.886,52.615L141.955,58.923L142.023,64.077L142.092,69.308L142.16,70.154L142.228,69.615L142.297,66.846L142.365,66.923L142.434,71.923L142.502,77.769L142.571,78.308L142.639,78.154L142.708,76.923L142.776,75.692L142.845,75.846L142.913,82.231L142.981,88.846L143.05,87.462L143.118,87.615L143.187,86.462L143.255,84.154L143.324,86.308L143.392,92.692L143.461,96.615L143.529,96.615L143.597,97.154L143.666,97.385L143.734,95.846L143.803,97.154L143.871,101.231L143.94,107.923L144.008,108.154L144.077,108.385L144.145,108.077L144.213,108L144.282,109.308L144.35,111.846L144.419,113.385L144.487,114.077L144.556,114.769L144.624,114.923L144.693,115L144.761,117.923L144.829,120.231L144.966,122.077L145.035,122L145.103,123.077L145.172,125.077L145.24,125.462L145.309,126.769L145.377,129.231L145.445,129.308L145.514,128.923L145.582,129.692L145.651,129.308L145.719,129.538L145.788,130.385L145.856,132.615L145.925,133L145.993,132.769L146.061,132.231L146.13,131L146.198,131.538L146.267,132.538L146.338,134.231L146.407,133.769L146.475,134L146.543,134.077L146.612,134.462L146.68,134.308L146.749,134.923L146.817,136.308L146.886,135.769L146.954,135.462L147.023,133.308L147.091,133.769L147.159,133.308L147.228,132.769L147.296,133.308L147.365,133.538L147.433,133.308L147.502,133.154L147.57,133.231L147.639,133.538L147.707,134.769L147.775,134.692L147.912,133.769L147.981,134.154L148.049,133.923L148.118,134.231L148.186,134.923L148.255,136.231L148.392,136.308L148.46,136.308L148.528,136.308L148.597,136.385L148.665,136.692L148.734,137.231L148.802,137.538L148.871,137.846L148.939,137.846L149.008,137.846L149.076,138.385L149.144,138.615L149.213,141.077L149.281,141.077L149.35,141.538L149.418,142.077L149.487,142.462L149.555,142.846L149.624,143.154L149.692,143.538L149.76,143.923L149.829,143.846L149.897,144L149.966,143.692L150.034,144.615L150.103,144.538L150.308,144.538L150.376,143.462L150.513,143.538L150.582,143.538L150.65,143L150.787,142.538L150.856,142.462L150.924,142.692L150.992,142.385L151.129,141.231L151.198,141.231L151.266,141.231L151.335,141.231L151.472,141.308L151.54,141.231L151.608,141.077L151.677,141L151.745,141L151.814,140.923L152.019,137.231L152.088,135L152.156,135L152.225,134.692L152.43,134L152.498,133.846L152.567,133.154L152.635,131.538L152.704,130.615L152.772,130.692L152.841,129.615L152.909,128.923L153.046,129.538L153.183,129.462L153.251,129.154L153.32,128.462L153.388,128.538L153.525,128.615L153.593,128.923L153.662,129.077L153.73,129.692L153.867,129.769L153.936,129.615L154.004,129.462L154.073,129.308L154.141,129.385L154.209,127.615L154.278,127.308L154.346,127.308L154.415,126.231L154.483,128.769L154.552,129.846L154.689,128.846L154.757,127.923L154.894,126.615L154.96,126.154L155.028,127.077L155.096,128.692L155.165,129.385L155.233,128.846L155.302,129.154L155.37,128.231L155.439,125.538L155.507,125.385L155.712,125.538L155.781,126.385L155.849,126.385L156.055,125.615L156.123,122.308L156.192,116.231L156.26,116L156.328,115.538L156.397,115.308L156.465,113.385L156.602,113.231L156.671,113L156.739,114.154L156.808,113.769L156.876,112.769L156.944,112.769L157.013,111.769L157.081,112.077L157.15,110.923L157.218,103.077L157.287,104.538L157.355,104.538L157.424,101.923L157.492,101.154L157.56,100.769L157.629,93.077L157.697,85.846L157.766,86.385L157.834,88.615L157.903,87.692L157.971,87L158.04,86.769L158.108,85.538L158.176,76L158.245,73.231L158.313,78.385L158.382,78.231L158.45,78.154L158.519,76.769L158.587,73L158.656,64.615L158.724,62.462L158.792,62L158.861,60.462L158.929,60.154L158.998,59.231L159.066,54.923L159.135,49.231L159.203,49.385L159.272,56.615L159.34,56L159.409,55.923L159.477,56.692L159.545,53.077L159.614,45.154L159.682,50.769L159.751,58.308L159.819,59.385L159.888,58.846L159.956,57.846L160.025,53.154L160.093,43.154L160.161,42.846L160.23,50.846L160.298,55.692L160.367,54.538L160.435,53L160.504,50.923L160.572,48L160.641,47.846L160.709,55L160.777,56.692L160.846,56.231L160.914,57.385L160.983,51.385L161.051,47L161.12,51.769L161.188,57.154L161.257,58.385L161.325,58.308L161.393,57.154L161.462,52.615L161.53,47.846L161.599,51.923L161.667,60.308L161.736,61.923L161.804,62L161.873,61.692L161.941,57.462L162.009,55.077L162.078,60.462L162.146,70L162.215,70.462L162.283,72L162.352,71.231L162.42,66.077L162.489,65L162.557,66.923L162.625,70.308L162.694,75.538L162.762,75.231L162.831,74.462L162.899,72.385L162.968,67.308L163.036,74.077L163.105,80L163.173,81L163.242,81.385L163.31,79.769L163.378,75.385L163.447,67L163.515,70.385L163.584,75.692L163.652,75.308L163.721,73.769L163.789,72.615L163.858,65.077L163.926,53.385L163.994,58.308L164.063,62.077L164.131,60.538L164.2,60L164.268,60.077L164.337,55.692L164.405,47.538L164.474,53.846L164.542,56.769L164.61,56.308L164.679,56.231L164.747,55.077L164.816,51.385L164.884,45L164.953,46.462L165.021,51.923L165.09,51L165.158,47.769L165.226,43L165.295,39.538L165.363,41.231L165.432,45.923L165.5,55.538L165.569,55.231L165.637,53.923L165.706,47.231L165.774,43.462L165.842,44.077L165.911,52.077L165.979,63L166.048,63.462L166.116,62.231L166.185,59.154L166.253,57.538L166.322,57.846L166.39,61.923L166.458,70.231L166.527,70L166.595,69.077L166.664,69.462L166.732,70L166.801,72L166.869,77.538L166.938,85.308L167.074,86.231L167.143,84.846L167.211,84.308L167.28,85.154L167.348,89.692L167.417,92.769L167.485,93L167.554,94.538L167.622,94L167.691,92L167.759,88.615L167.827,95.846L167.896,101.231L167.964,102L168.033,101.308L168.101,101.385L168.17,100L168.238,101.923L168.307,106.692L168.375,109.462L168.443,110L168.512,111.077L168.58,111.538L168.649,109.308L168.717,110L168.786,109.923L168.854,109.769L168.923,109.154L168.991,108.154L169.059,105.154L169.128,102.308L169.196,104.231L169.265,106L169.333,108.923L169.402,109.231L169.47,110.385L169.539,110.154L169.607,109.923L169.675,111.615L169.744,115.692L169.812,121.462L169.881,121.538L170.018,121.385L170.086,122.077L170.155,123L170.223,124.385L170.291,125.846L170.36,125.769L170.428,125.615L170.497,125.462L170.565,125.692L170.634,125.231L170.702,126.692L170.771,130.077L170.839,130.846L170.907,131.462L170.976,132.231L171.044,132.615L171.113,133.385L171.181,136.385L171.253,140.538L171.321,140.538L171.389,140.923L171.458,140.923L171.526,141.615L171.595,141.538L171.663,141.923L171.732,142.154L171.8,142.154L171.869,141.769L172.005,141.692L172.074,141.462L172.142,142.077L172.211,142.154L172.279,142.231L172.348,142.308L172.416,142.538L172.485,142.385L172.553,142.154L172.621,142.769L172.69,142.385L172.758,142.077L172.827,142L172.895,141.846L172.964,141.769L173.032,142L173.101,141.923L173.169,141.769L173.238,141.846L173.306,141.769L173.374,141.615L173.443,141.846L173.511,141.692L173.58,141.692L173.648,141.385L173.717,141.231L173.785,141.385L173.854,141.154L173.99,140.846L174.059,141.231L174.196,141.231L174.264,141.462L174.47,141.538L174.538,141.308L174.606,141.231L174.675,141.231L174.812,141.231L174.88,141.538L174.949,142L175.017,141.615L175.086,141.769L175.154,142.154L175.222,142L175.291,142.231L175.359,142.077L175.428,141.846L175.565,142.154L175.633,142.308L175.702,142.231L175.838,141.923L175.907,142.231L176.044,141.538L176.112,141.692L176.181,141.615L176.318,141.846L176.386,141.923L176.454,141.769L176.797,141.538L176.865,141.615L176.934,141.692L177.002,141.846L177.07,141.538L177.207,141.077L177.413,141.231L177.481,140.923L177.55,140.462L177.618,140.231L177.687,140.231L177.755,140.154L177.823,139.077L177.892,139L177.96,138.923L178.029,138.462L178.097,138L178.166,136.077L178.234,136.077L178.303,136.077L178.371,136L178.439,136L178.713,136.154L178.85,134.538L178.919,134.692L179.055,134.308L179.192,134.231L179.261,134L179.329,134.077L179.398,133.692L179.466,130.769L179.535,130.385L179.603,127.769L179.74,126.077L179.808,124.538L179.874,122.538L180.079,120.615L180.148,115.923L180.216,116.154L180.285,115.846L180.353,114.846L180.422,113.462L180.49,113.308L180.558,108.615L180.627,108.462L180.695,108.615L180.764,108.154L180.832,109.692L180.901,109.231L180.969,109.154L181.106,109.154L181.174,108.923L181.243,109L181.311,110.538L181.38,110.846L181.448,110L181.517,107.615L181.585,98.769L181.654,97.077L181.722,96.154L181.79,98.692L181.859,98.154L181.927,97.308L181.996,94.692L182.064,86.923L182.133,87.308L182.201,88.231L182.27,92.154L182.406,92.154L182.475,90.692L182.543,90.385L182.612,81.308L182.68,80.385L182.749,84.923L182.817,85.077L182.886,84.154L182.954,82.538L183.022,77.692L183.091,67.846L183.159,63.231L183.228,62.846L183.296,60.692L183.365,58.692L183.433,55.462L183.502,51.308L183.57,45.154L183.638,46.154L183.707,54.462L183.775,56L183.844,56.769L183.912,55.231L183.981,49.692L184.049,40.923L184.118,42.385L184.186,48.154L184.255,47.923L184.323,45.923L184.391,44.462L184.46,39.154L184.528,30.462L184.597,28.385L184.665,37.846L184.734,39.385L184.802,38.154L184.871,35.923L184.939,33.077L185.007,28.231L185.076,31.538L185.144,41L185.213,44.769L185.281,43.769L185.35,44.923L185.418,44.846L185.487,43.231L185.555,47L185.623,52.154L185.692,51.154L185.76,50.077L185.829,49L185.897,45.231L185.966,41.385L186.034,46.231L186.103,57.385L186.171,59.154L186.239,61.615L186.308,63.462L186.376,61.154L186.445,59.769L186.513,64.923L186.582,72.077L186.65,73.769L186.719,72.846L186.787,70.692L186.855,67.538L186.924,63.385L186.992,65.231L187.061,71.462L187.129,72.923L187.198,72L187.266,71.077L187.335,68.077L187.403,62.538L187.471,63.538L187.54,66.769L187.608,66.231L187.677,66.538L187.745,67.077L187.814,62.923L187.882,53L187.951,55.462L188.019,60.692L188.087,60.308L188.156,60.846L188.224,57.923L188.293,53.077L188.361,48.308L188.43,51.077L188.498,55L188.567,53.769L188.635,56L188.704,53.538L188.772,48.231L188.84,41.385L188.909,44.538L188.977,50.692L189.046,51.462L189.114,51.846L189.183,52L189.251,47.538L189.32,43.923L189.388,47.615L189.456,54L189.525,54.462L189.593,54.231L189.662,53.154L189.73,48.846L189.799,43.846L189.867,46.923L189.936,56.154L190.004,57.692L190.072,58.154L190.141,59.538L190.209,58.462L190.278,60.923L190.346,66.846L190.415,71.154L190.483,73.231L190.552,72.231L190.62,71.769L190.688,67.923L190.757,66.308L190.825,73.462L190.894,80.846L190.962,81L191.031,80.538L191.099,80.385L191.168,79.231L191.236,78.769L191.304,84.846L191.373,89.308L191.441,90L191.51,90.615L191.578,90.077L191.647,88.154L191.715,88.846L191.784,94.154L191.852,100.385L191.92,102.538L191.989,103.154L192.057,102.846L192.126,99.846L192.194,100.154L192.263,101.385L192.331,102.154L192.4,101.385L192.468,101.231L192.537,100.769L192.605,101L192.673,102.923L192.742,107.692L192.81,112.846L192.879,112L192.947,114L193.016,115.462L193.084,114.923L193.153,116.154L193.221,117.692L193.358,117.692L193.426,116.615L193.495,116.231L193.563,113.923L193.632,112.769L193.7,113.923L193.769,117L193.837,118.308L193.905,119.154L193.974,119.462L194.042,118.769L194.111,117.769L194.179,118.154L194.248,121L194.316,120.769L194.385,120.692L194.453,121.231L194.521,122.231L194.59,122.615L194.658,123.615L194.727,124.385L194.795,124.462L194.864,124.846L194.932,124.615L195.001,125.077L195.069,125L195.137,125.385L195.206,127L195.274,127.462L195.343,127.692L195.411,128.462L195.48,129.923L195.548,131.077L195.617,133.538L195.685,134.615L195.753,134L195.822,133.846L195.89,133.923L195.959,133.846L196.027,134.231L196.096,135.615L196.167,137.154L196.235,137.538L196.304,138.154L196.372,138.769L196.441,139.231L196.509,139.615L196.578,139.692L196.646,140.154L196.715,140L196.783,139.769L196.851,139.769L196.92,139.846L196.988,140.615L197.057,141L197.125,141.538L197.194,141.077L197.262,140.846L197.331,141L197.399,140.538L197.467,140.692L197.536,140.154L197.604,140.077L197.81,140.231L197.878,140.154L197.947,140.923L198.015,141.846L198.084,142L198.289,142.077L198.357,142.077L198.426,141.615L198.494,142.077L198.563,142.231L198.631,142.385L198.7,142.538L198.768,142.231L198.836,142.077L198.905,141.615L198.973,141.692L199.11,141.692L199.179,141.769L199.247,141.846L199.316,141.846L199.384,141.769L199.452,141.769L199.521,141.846L199.589,142.231L199.726,142.308L199.795,142.077L199.863,142.769L199.932,142.769L200,143.308L200.137,142.923L200.274,141.923L200.342,141.692L200.411,141.692L200.479,141.692L200.616,141.692L200.684,141.615L200.753,141.385L200.821,141.769L200.89,142.154L200.958,141.154L201.369,141.077L201.437,140.462L201.506,140.692L201.574,140.538L201.643,141.077L201.711,141.154L201.78,140.692L201.848,137.846L201.916,137.846" stroke="#4c78a8" stroke-width="2"/></g><g class="mark-group role-title"><g transform="translate(100,-17)"><path class="background" aria-hidden="true" d="M0,0h0v0h0Z" pointer-events="none"/><g><g class="mark-text role-title-text" role="graphics-symbol" aria-roledescription="title" aria-label="Title text 'Noise - Park: Loud Music/Party'" pointer-events="none"><text text-anchor="middle" transform="translate(0,10)" font-family="sans-serif" font-size="13px" font-weight="bold" fill="#000" opacity="1">Noise - Park: Loud Music/Party</text></g></g><path class="foreground" aria-hidden="true" d="" pointer-events="none" display="none"/></g></g></g><path class="foreground" aria-hidden="true" d="" display="none"/></g></g></g><defs><clipPath id="clip106"><rect x="0" y="0" width="200" height="150"/></clipPath></defs></svg>