<svg xmlns="http://www.w3.org/2000/svg" xmlns:xlink="http://www.w3.org/1999/xlink" version="1.1" class="marks" width="268" height="194" viewBox="0 0 268 194"><rect width="268" height="194" fill="white"/><g fill="none" stroke-miterlimit="10" transform="translate(34,22)"><g class="mark-group role-frame root" role="graphics-object" aria-roledescription="group mark container"><g transform="translate(0,0)"><path class="background" aria-hidden="true" d="M0,0h200v150h-200Z"/><g><g class="mark-group role-axis" aria-hidden="true"><g transform="translate(0.5,0.5)"><path class="background" aria-hidden="true" d="M0,0h0v0h0Z" pointer-events="none"/><g><g class="mark-rule role-axis-grid" pointer-events="none"><line transform="translate(0,150)" x2="200" y2="0" stroke="#ddd" stroke-width="1" opacity="1"/><line transform="translate(0,117)" x2="200" y2="0" stroke="#ddd" stroke-width="1" opacity="1"/><line transform="translate(0,83)" x2="200" y2="0" stroke="#ddd" stroke-width="1" opacity="1"/><line transform="translate(0,50)" x2="200" y2="0" stroke="#ddd" stroke-width="1" opacity="1"/><line transform="translate(0,17)" x2="200" y2="0" stroke="#ddd" stroke-width="1" opacity="1"/></g></g><path class="foreground" aria-hidden="true" d="" pointer-events="none" display="none"/></g></g><g class="mark-group role-axis" role="graphics-symbol" aria-roledescription="axis" aria-label="X-axis for a time scale with values from Friday, 01 January 2016, 12:00:00 AM to Monday, 01 January 2024, 12:00:00 AM"><g transform="translate(0.5,150.5)"><path class="background" aria-hidden="true" d="M0,0h0v0h0Z" pointer-events="none"/><g><g class="mark-rule role-axis-tick" pointer-events="none"><line transform="translate(0,0)" x2="0" y2="5" stroke="#888" stroke-width="1" opacity="1"/><line transform="translate(50,0)" x2="0" y2="5" stroke="#888" stroke-width="1" opacity="1"/><line transform="translate(100,0)" x2="0" y2="5" stroke="#888" stroke-width="1" opacity="1"/><line transform="translate(150,0)" x2="0" y2="5" stroke="#888" stroke-width="1" opacity="1"/><line transform="translate(200,0)" x2="0" y2="5" stroke="#888" stroke-width="1" opacity="1"/></g><g class="mark-text role-axis-label" pointer-events="none"><text text-anchor="start" transform="translate(0,15)" font-family="sans-serif" font-size="10px" fill="#000" opacity="1">2016</text><text text-anchor="middle" transform="translate(50.03422313483915,15)" font-family="sans-serif" font-size="10px" fill="#000" opacity="1">2018</text><text text-anchor="middle" transform="translate(100,15)" font-family="sans-serif" font-size="10px" fill="#000" opacity="1">2020</text><text text-anchor="middle" transform="translate(150.03422313483915,15)" font-family="sans-serif" font-size="10px" fill="#000" opacity="1">2022</text><text text-anchor="end" transform="translate(200,15)" font-family="sans-serif" font-size="10px" fill="#000" opacity="1">2024</text></g><g class="mark-rule role-axis-domain" pointer-events="none"><line transform="translate(0,0)" x2="200" y2="0" stroke="#888" stroke-width="1" opacity="1"/></g></g><path class="foreground" aria-hidden="true" d="" pointer-events="none" display="none"/></g></g><g class="mark-group role-axis" role="graphics-symbol" aria-roledescription="axis" aria-label="Y-axis for a linear scale with values from 0 to 45"><g transform="translate(0.5,0.5)"><path class="background" aria-hidden="true" d="M0,0h0v0h0Z" pointer-events="none"/><g><g class="mark-rule role-axis-tick" pointer-events="none"><line transform="translate(0,150)" x2="-5" y2="0" stroke="#888" stroke-opacity="0" stroke-width="1" opacity="1"/><line transform="translate(0,117)" x2="-5" y2="0" stroke="#888" stroke-opacity="0" stroke-width="1" opacity="1"/><line transform="translate(0,83)" x2="-5" y2="0" stroke="#888" stroke-opacity="0" stroke-width="1" opacity="1"/><line transform="translate(0,50)" x2="-5" y2="0" stroke="#888" stroke-opacity="0" stroke-width="1" opacity="1"/><line transform="translate(0,17)" x2="-5" y2="0" stroke="#888" stroke-opacity="0" stroke-width="1" opacity="1"/></g><g class="mark-text role-axis-label" pointer-events="none"><text text-anchor="end" transform="translate(-7,153)" font-family="sans-serif" font-size="10px" fill="#000" opacity="1">0</text><text text-anchor="end" transform="translate(-7,119.66666666666667)" font-family="sans-serif" font-size="10px" fill="#000" opacity="1">10</text><text text-anchor="end" transform="translate(-7,86.33333333333334)" font-family="sans-serif" font-size="10px" fill="#000" opacity="1">20</text><text text-anchor="end" transform="translate(-7,53.00000000000001)" font-family="sans-serif" font-size="10px" fill="#000" opacity="1">30</text><text text-anchor="end" transform="translate(-7,19.666666666666675)" font-family="sans-serif" font-size="10px" fill="#000" opacity="1">40</text></g></g><path class="foreground" aria-hidden="true" d="" pointer-events="none" display="none"/></g></g><g class="mark-line role-mark marks" clip-path="url(#clip108)" role="graphics-object" aria-roledescription="line mark container"><path aria-label="day: Jan 01, 2010; avg: 1.43333333333" role="graphics-symbol" aria-roledescription="line mark" d="M-149.966,145.222L-149.829,145.222L-149.76,145.222L-149.692,145.333L-149.624,145.222L-149.213,145.111L-149.144,145.111L-149.076,145.111L-149.008,145L-148.871,144.333L-148.802,144.222L-148.734,144.222L-148.597,144.333L-148.528,144.222L-148.46,144.111L-148.323,144L-148.255,142.667L-148.186,141.444L-148.049,139.333L-147.981,138.444L-147.844,138L-147.775,137.333L-147.639,136.889L-147.502,136.889L-147.433,136.667L-147.296,136.222L-146.954,135.889L-146.886,135.556L-146.68,134.778L-146.543,132.778L-146.338,131.111L-146.201,129.444L-145.927,127.778L-145.791,127.444L-145.585,127.333L-145.517,127.111L-145.448,126.222L-145.38,125.556L-145.311,125.111L-145.243,125.556L-145.175,125.222L-144.972,125L-144.904,124.778L-144.835,124.556L-144.767,124.222L-144.698,124.333L-144.63,125.444L-144.561,126.444L-144.493,128.444L-144.424,129.333L-144.356,129.667L-144.288,130.556L-144.014,130.889L-143.877,130.333L-143.808,130L-143.74,129.556L-143.672,128.556L-143.603,128.333L-143.535,128.444L-143.466,130L-143.398,131.222L-143.329,131.778L-143.261,133L-143.192,132.778L-143.124,132.444L-143.056,132.556L-142.987,133.333L-142.919,133.444L-142.85,134L-142.782,132.444L-142.713,132.556L-142.645,132.111L-142.576,132.222L-142.508,131.333L-142.44,130.556L-142.371,130.444L-142.303,130.222L-142.234,129.111L-142.166,128.667L-142.097,127.556L-142.029,127.111L-141.96,127.111L-141.892,126.778L-141.824,126.222L-141.755,125.778L-141.687,125.444L-141.618,125.222L-141.55,124.778L-141.481,124.667L-141.413,123.556L-141.344,122.444L-141.276,122.556L-141.139,122.444L-141.071,122.222L-140.934,122.667L-140.865,122.778L-140.797,122.222L-140.728,122.111L-140.66,121.778L-140.591,123L-140.523,122.889L-140.455,123L-140.386,122.556L-140.318,122.556L-140.249,122.556L-140.181,121.333L-140.112,121.333L-140.044,121.778L-139.975,121.444L-139.907,121.667L-139.839,120.333L-139.77,118.667L-139.702,116.889L-139.633,116.444L-139.565,117L-139.496,117.222L-139.428,118.111L-139.359,118.556L-139.291,117.222L-139.223,117.111L-139.154,117L-139.086,117.333L-139.017,116.778L-138.949,116.222L-138.88,115.667L-138.812,112.333L-138.743,111.667L-138.675,111.667L-138.607,111.333L-138.538,111L-138.47,110.333L-138.401,110.111L-138.333,108.556L-138.264,108.333L-138.196,109.222L-138.127,110L-138.059,109.889L-137.991,110.111L-137.922,110.333L-137.854,110.444L-137.785,111.444L-137.717,111.444L-137.648,112.889L-137.58,114.111L-137.511,114.111L-137.443,115L-137.375,115L-137.306,114.444L-137.238,115.222L-137.169,116L-137.101,117.222L-137.032,117.444L-136.964,117.556L-136.895,117.222L-136.827,115.444L-136.758,118.778L-136.69,120.111L-136.622,120.444L-136.553,120.778L-136.485,120.889L-136.416,121.333L-136.348,121.556L-136.279,123.444L-136.211,124.444L-136.142,124.222L-136.074,125.111L-136.006,125.556L-135.937,126.222L-135.869,126.556L-135.8,127.222L-135.732,128.111L-135.663,129L-135.595,129.222L-135.526,129.111L-135.458,129L-135.39,128.667L-135.321,128.111L-135.253,128.889L-135.184,129.889L-135.116,130.556L-135.047,131L-134.979,131.222L-134.91,131.667L-134.842,132.222L-134.774,134.222L-134.705,134L-134.637,133.778L-134.568,133.667L-134.5,133.667L-134.431,134.222L-134.363,134.889L-134.294,135.222L-134.226,134.889L-134.158,135.111L-134.089,135.444L-134.021,135.111L-133.952,135.111L-133.884,135L-133.815,135.222L-133.747,135.333L-133.678,134.889L-133.61,135.222L-133.542,135.778L-133.473,136.111L-133.405,136.222L-133.336,136.444L-133.268,137.778L-133.199,137.889L-133.131,137.889L-133.062,137.778L-132.994,137.667L-132.926,137.444L-132.857,137.667L-132.789,138.556L-132.72,138.333L-132.652,138.444L-132.583,138.556L-132.515,139L-132.446,139.333L-132.378,139.444L-132.309,139.444L-132.173,139.333L-132.104,139.778L-132.036,139.889L-131.967,139.667L-131.899,139.889L-131.83,139.889L-131.762,139.222L-131.693,139.333L-131.625,139.222L-131.557,139.667L-131.488,140L-131.42,139.889L-131.214,139.889L-131.077,140.222L-131.009,140.444L-130.941,140.444L-130.872,140.556L-130.804,140.667L-130.735,141L-130.667,141.222L-130.598,141.667L-130.461,141.556L-130.393,141.222L-130.325,141.889L-130.256,141.778L-130.188,141.889L-130.119,141.889L-130.051,141.889L-129.982,141.667L-129.914,141.333L-129.845,141.667L-129.777,141.778L-129.64,141.889L-129.572,142.222L-129.503,142.333L-129.435,142.444L-129.366,143.222L-129.229,142.889L-129.161,142.667L-129.093,142.222L-129.024,142.222L-128.956,142.222L-128.887,142.222L-128.75,142.333L-128.679,142.333L-128.611,142.333L-128.542,142.444L-128.474,142.667L-128.405,142.667L-128.337,142.667L-128.268,142.667L-128.2,143.111L-128.131,143.556L-128.063,143.556L-127.995,144L-127.926,144L-127.858,144.111L-127.721,144.222L-127.584,144.444L-127.242,144.778L-127.173,144.778L-127.105,144.778L-126.899,144.667L-126.831,144.778L-126.694,144.444L-126.557,144L-126.489,143.333L-126.078,143L-126.01,142.556L-125.873,143L-125.804,143L-125.736,142.889L-125.667,142.778L-125.599,142.667L-125.462,142.444L-125.188,142.444L-125.12,142.222L-124.778,142L-124.641,142L-124.572,142L-124.504,141.222L-124.23,141.222L-124.162,141.222L-123.888,141L-123.751,140.222L-123.614,139.889L-123.546,139.667L-122.93,139.444L-122.724,139.333L-122.45,138.778L-122.382,138.778L-122.108,138.667L-122.04,138.444L-121.971,138.222L-121.903,138.333L-121.834,138.333L-121.766,139.111L-121.697,139.778L-121.629,140.556L-121.355,140.556L-121.287,140.444L-121.218,140.333L-121.15,140L-121.081,140.111L-121.013,140.333L-120.945,140.333L-120.876,140.556L-120.808,140.444L-120.739,140.333L-120.671,140.222L-120.534,140.889L-120.465,140.778L-120.397,140.556L-120.329,140.778L-120.26,141.333L-120.192,141.333L-120.123,141.556L-120.058,141.556L-119.989,141.444L-119.852,142L-119.784,142L-119.715,141.778L-119.578,142L-119.51,141.667L-119.442,141.778L-119.373,142L-119.305,141.889L-119.236,141.667L-119.168,141.667L-119.099,141.111L-119.031,141.333L-118.962,141.444L-118.894,141.778L-118.826,141.556L-118.757,141.222L-118.689,141.222L-118.62,141.111L-118.552,141.222L-118.483,141.111L-118.415,140.111L-118.346,139.889L-118.278,139.667L-118.21,139.333L-118.141,138.556L-118.073,138.556L-118.004,138.778L-117.936,138.556L-117.867,138.444L-117.799,138.556L-117.73,137.778L-117.662,137.444L-117.594,137.778L-117.525,137L-117.457,136.889L-117.388,136.556L-117.251,136.444L-117.183,135.333L-117.114,135.222L-117.046,134.222L-116.978,133.444L-116.909,132.333L-116.841,131.778L-116.772,131.444L-116.635,131.333L-116.567,131L-116.43,130.222L-116.362,128.889L-116.293,128L-116.225,127.667L-116.156,128.111L-116.088,127.667L-116.019,127.778L-115.951,128.222L-115.882,128.778L-115.814,128.778L-115.609,128.111L-115.54,128.333L-115.472,128.444L-115.403,128L-115.335,127.111L-115.266,126.111L-115.198,125.111L-115.129,125.556L-115.061,126L-114.993,125.778L-114.924,125L-114.856,126.111L-114.787,124.556L-114.719,124.444L-114.65,124.778L-114.582,125.222L-114.513,125.222L-114.445,125.556L-114.377,125.667L-114.308,125.222L-114.24,124.778L-114.171,125.333L-114.103,125.444L-114.034,125.778L-113.966,125.889L-113.897,126.111L-113.829,125.222L-113.761,124.444L-113.692,124L-113.624,123.222L-113.555,123.111L-113.487,122.111L-113.418,120.333L-113.35,120.111L-113.281,120.333L-113.213,121.111L-113.145,121.444L-113.076,121.778L-113.008,120.556L-112.939,120.222L-112.871,120.333L-112.802,120.222L-112.734,121.222L-112.665,121.889L-112.597,122.444L-112.529,121.889L-112.46,121.222L-112.392,120L-112.323,119.444L-112.255,120L-112.186,120.444L-112.118,120.889L-112.049,121.778L-111.981,121.222L-111.913,121.333L-111.844,121.556L-111.776,122.111L-111.707,122.444L-111.639,122.111L-111.57,123L-111.502,123.556L-111.433,124.111L-111.365,126L-111.296,126.333L-111.228,127.222L-111.16,127.333L-111.091,127.222L-111.023,127L-110.954,128.111L-110.886,128.333L-110.817,128.889L-110.749,129L-110.68,129.556L-110.612,129.444L-110.544,129.444L-110.475,130.667L-110.407,130.889L-110.338,131.222L-110.27,131.111L-110.201,130.778L-110.133,130.778L-110.064,131.111L-109.996,131.111L-109.928,131.778L-109.859,131.333L-109.791,131.556L-109.722,131.556L-109.654,130.889L-109.585,130.667L-109.517,129.778L-109.448,129.556L-109.38,129.667L-109.312,129.444L-109.243,129.889L-109.175,130.222L-109.106,130.111L-109.038,130.556L-108.969,130.667L-108.901,130.667L-108.832,131.222L-108.764,131.444L-108.696,130.667L-108.559,130.778L-108.49,131.222L-108.422,131.444L-108.353,131.333L-108.285,132.556L-108.216,133.444L-108.148,133.778L-108.08,134.444L-108.011,135.111L-107.874,135L-107.806,135L-107.737,134.778L-107.669,134.667L-107.6,134.111L-107.532,134.444L-107.463,135.667L-107.395,136.778L-107.327,137.778L-107.258,138.111L-107.19,138.333L-107.121,138.667L-107.053,138.778L-106.984,138.556L-106.916,138.778L-106.847,138.667L-106.779,138.556L-106.711,138.667L-106.642,138.889L-106.574,139.111L-106.505,139.889L-106.437,139.889L-106.368,139.667L-106.3,139.889L-106.231,139.778L-106.163,139.444L-106.095,139.667L-106.026,139.778L-105.958,140L-105.889,139.889L-105.821,139.556L-105.752,139.333L-105.684,139.667L-105.615,140.667L-105.547,141.222L-105.479,141.333L-105.342,141L-105.273,140.778L-105.205,140.778L-105.136,141L-105.068,140.889L-104.999,140.556L-104.931,140.556L-104.794,140.778L-104.726,141L-104.657,141.333L-104.589,141.556L-104.52,141.778L-104.452,141.556L-104.247,141.222L-104.178,141.333L-104.041,141.556L-103.973,141.889L-103.765,141.444L-103.696,141.556L-103.628,141.667L-103.559,141.444L-103.491,141.889L-103.354,141.889L-103.285,142L-103.217,142.444L-103.149,142.778L-103.08,142.778L-103.012,142.667L-102.943,142.778L-102.875,142.889L-102.806,143L-102.669,143.222L-102.601,143.222L-102.396,143.222L-102.327,143.111L-102.259,143.333L-102.19,143.333L-102.122,143.556L-102.053,143.333L-101.848,143.333L-101.78,143.444L-101.711,143.222L-101.643,143.333L-101.574,143.667L-101.506,143.556L-101.437,143.444L-101.369,143.444L-101.3,143.889L-101.232,143.889L-101.095,144.111L-101.027,144.333L-100.958,144.333L-100.89,144.333L-100.684,144.222L-100.616,144.333L-100.479,143.778L-100.411,143.556L-100.342,143.556L-100.274,143.444L-100.205,143.333L-100.137,143.556L-100.068,143.111L-100,143.111L-99.863,143L-99.795,143.222L-99.726,143.333L-99.589,143.333L-99.452,143.333L-99.384,143.667L-99.316,143.556L-99.247,143.333L-99.179,143.333L-99.11,143L-98.836,143L-98.768,143.111L-98.7,143.222L-98.563,143L-98.494,142.889L-98.426,142.889L-98.357,142.889L-98.152,142.778L-98.084,142.667L-98.015,142.667L-97.947,142.778L-97.81,142.556L-97.741,143L-97.673,143.111L-97.604,142.556L-97.536,142.111L-97.467,141.444L-97.399,141.333L-97.331,141.778L-97.262,141.444L-97.194,141.556L-97.125,140.889L-97.057,139.889L-96.92,139.444L-96.851,138.889L-96.783,138.222L-96.715,138.111L-96.509,138.333L-96.441,138.444L-96.372,138.667L-96.235,138.333L-96.167,138L-96.099,137.778L-96.03,138L-95.962,138.111L-95.893,138.111L-95.825,137.667L-95.688,137.444L-95.619,137.333L-95.551,137.222L-95.414,137.333L-95.346,137.111L-95.209,136.556L-95.143,136.667L-95.075,136.889L-95.006,137.444L-94.938,137.889L-94.869,137.889L-94.801,137.222L-94.732,136.556L-94.664,136L-94.596,136.444L-94.527,137.111L-94.459,136.778L-94.39,137.222L-94.322,137.778L-94.253,138L-94.185,138L-94.116,137.889L-94.048,137.889L-93.98,138L-93.911,138L-93.843,137.778L-93.774,137.667L-93.706,137.556L-93.637,137.667L-93.569,138L-93.5,138L-93.432,137.778L-93.364,137.556L-93.227,137.444L-93.158,137.667L-93.09,138L-93.021,137.333L-92.953,137.222L-92.884,136.667L-92.816,136.889L-92.748,136.444L-92.679,136.222L-92.611,136.444L-92.542,136.667L-92.474,136.444L-92.405,136.111L-92.268,136.444L-92.2,135.778L-92.132,134.778L-92.063,134.889L-91.995,134.333L-91.926,134.111L-91.858,133.111L-91.789,132L-91.721,131L-91.652,130.556L-91.584,130L-91.516,130L-91.447,129.556L-91.379,129L-91.31,128.556L-91.242,128.889L-91.105,128.889L-90.968,128.444L-90.899,126.667L-90.831,125.889L-90.763,126L-90.694,126.111L-90.626,126.111L-90.557,125.556L-90.489,125.444L-90.42,125.333L-90.352,123.444L-90.283,122.111L-90.215,121.444L-90.147,119.667L-90.078,118.889L-90.01,117.444L-89.941,117.778L-89.873,117L-89.804,117.111L-89.736,116.222L-89.667,115.556L-89.599,115.778L-89.531,115.444L-89.462,113.111L-89.394,111.222L-89.325,110.889L-89.257,109.222L-89.188,107.889L-89.12,106.222L-89.051,104.444L-88.983,101.667L-88.915,99.556L-88.846,99L-88.778,97.444L-88.709,96.667L-88.641,95.111L-88.572,93.556L-88.504,92.778L-88.435,92.333L-88.367,92.778L-88.299,94.333L-88.23,95.889L-88.162,96.889L-88.093,98.556L-88.025,98.889L-87.956,100.111L-87.888,100.444L-87.819,101L-87.751,100.556L-87.683,101.556L-87.614,103.111L-87.546,102.667L-87.477,103.333L-87.409,105.778L-87.34,107.667L-87.272,107.556L-87.203,109L-87.135,110.333L-87.067,111.444L-86.998,112.222L-86.93,115.111L-86.861,117L-86.793,118.667L-86.724,120.889L-86.656,121.556L-86.587,121.556L-86.519,120.556L-86.45,121.556L-86.382,122.778L-86.314,122.778L-86.245,123.556L-86.177,123.444L-86.108,122.667L-86.04,121.333L-85.971,120.778L-85.903,120.111L-85.834,119.111L-85.766,119L-85.698,119.778L-85.629,119.444L-85.561,119L-85.492,119.889L-85.424,119.556L-85.355,119.778L-85.287,120L-85.218,119.778L-85.15,119.889L-85.082,120.222L-85.013,121.333L-84.945,122.222L-84.876,121.778L-84.808,122.333L-84.739,123L-84.671,122.444L-84.602,122.444L-84.534,124.444L-84.466,127.333L-84.397,127.556L-84.329,127L-84.26,127.667L-84.192,127.111L-84.123,127.111L-84.055,127.778L-83.986,129.778L-83.918,130.889L-83.85,132.444L-83.781,133.889L-83.713,133.778L-83.644,133.667L-83.576,134.333L-83.507,135.111L-83.439,135.778L-83.37,136.667L-83.302,137L-83.234,137.444L-83.165,137.778L-83.097,138.222L-83.028,138.222L-82.96,138.222L-82.891,138.222L-82.823,138.667L-82.754,138.667L-82.686,138.778L-82.617,139.556L-82.549,140.222L-82.481,140.222L-82.412,140.222L-82.344,140.111L-82.275,140.444L-82.207,140.111L-82.138,140.778L-82.07,141L-82.001,141.111L-81.933,140.889L-81.865,140.778L-81.796,140.778L-81.728,140.556L-81.659,140.778L-81.591,140.444L-81.522,140.333L-81.454,140.333L-81.385,140.222L-81.249,140.667L-81.18,140.889L-81.112,140.667L-81.043,141.111L-80.975,141L-80.906,141.222L-80.838,141.222L-80.769,141.333L-80.701,141L-80.633,141.222L-80.564,141.333L-80.496,141.556L-80.427,141.333L-80.359,140.889L-80.29,140.889L-80.222,141.222L-80.153,140.889L-80.085,141.222L-80.017,141.444L-79.948,141.222L-79.88,141.222L-79.811,141.333L-79.674,141.667L-79.606,141.778L-79.537,142L-79.469,142.111L-79.332,142.444L-79.195,142.556L-78.85,142.556L-78.782,142.667L-78.439,142.667L-78.371,142.556L-78.303,142.778L-78.234,142.556L-78.166,142.778L-78.097,142.889L-77.96,143L-77.892,143.111L-77.823,143.556L-77.755,143.556L-77.618,143.556L-77.55,143.556L-77.413,143.778L-77.344,144.222L-77.276,144.444L-77.207,144.111L-77.07,144.556L-77.002,144.333L-76.934,144L-76.865,144.222L-76.797,144.222L-76.728,144.444L-76.66,144.556L-76.591,144.333L-76.523,144.111L-76.454,144.111L-76.386,144.333L-76.318,144.222L-76.249,144.111L-76.181,144.111L-76.112,144.111L-75.975,144.222L-75.907,144.222L-75.838,144.222L-75.633,144.111L-75.565,144L-75.359,144.111L-75.291,144.111L-75.222,144.222L-75.086,144.222L-74.949,143.778L-74.88,143.556L-74.812,143.556L-74.743,143.556L-74.675,143.556L-74.606,143.667L-74.538,143.778L-74.47,143.667L-74.401,144L-74.264,144L-74.196,144L-74.127,144L-74.059,143.889L-73.99,144.111L-73.922,144.222L-73.854,144.222L-73.785,144L-73.717,143.889L-73.58,143.778L-73.374,143.667L-73.306,143.556L-73.238,143.444L-72.827,143.222L-72.758,143.222L-72.69,143.333L-72.621,143.444L-72.416,143.111L-72.211,142.778L-72.005,142.667L-71.937,142.444L-71.869,142.444L-71.8,142.556L-71.663,142.444L-71.595,142.111L-71.458,141.667L-71.389,141.889L-71.321,141.556L-71.253,141.444L-71.184,141L-71.116,140.667L-71.047,140.778L-70.91,140.556L-70.705,140.444L-70.637,140L-70.568,139.889L-70.431,139.111L-70.363,139.222L-70.229,139.444L-70.16,139.556L-69.955,139.667L-69.75,139.667L-69.613,139.778L-69.544,139.667L-69.476,139.333L-69.339,138.778L-69.27,138.556L-69.202,138.778L-69.134,138.444L-69.065,137.889L-68.997,137.667L-68.928,137.889L-68.791,137.889L-68.723,138L-68.518,137.111L-68.449,136.778L-68.312,136.444L-68.244,136.556L-68.175,136.667L-68.107,136.556L-68.038,136.889L-67.97,136.556L-67.833,136.778L-67.765,136.333L-67.696,136.778L-67.628,136.556L-67.559,136.667L-67.491,136.667L-67.422,135.778L-67.354,134.778L-67.286,134.667L-67.217,134.556L-67.149,134.444L-67.08,134.778L-67.012,135.222L-66.943,135.444L-66.875,135.556L-66.806,134.889L-66.738,135L-66.67,134.667L-66.601,134.111L-66.533,133.444L-66.464,132.556L-66.396,132.222L-66.327,133.333L-66.259,134.111L-66.19,134.222L-66.122,134.333L-66.054,134.667L-65.985,134.667L-65.917,134.333L-65.848,134.444L-65.78,134.111L-65.711,134L-65.643,132.889L-65.574,132.222L-65.506,131.444L-65.437,130.444L-65.369,130.667L-65.301,130.556L-65.232,129.667L-65.164,128.111L-65.095,126.444L-64.958,123.556L-64.89,122.778L-64.821,121.889L-64.753,121.556L-64.685,121.444L-64.616,121.333L-64.548,121.667L-64.479,122.111L-64.411,122.444L-64.342,122.667L-64.274,121.778L-64.205,121.222L-64.137,120L-64.069,117.556L-64,115.111L-63.932,113.333L-63.863,112.778L-63.795,112.222L-63.726,112L-63.658,111.667L-63.589,111.444L-63.521,110.444L-63.453,110.556L-63.384,111L-63.316,111.222L-63.247,111.333L-63.179,112.111L-63.11,112.556L-63.042,112.889L-62.973,114.222L-62.905,116.778L-62.837,117.333L-62.768,118.222L-62.7,118.222L-62.631,118.111L-62.563,117.778L-62.494,117L-62.426,117.222L-62.357,117.222L-62.289,117.667L-62.221,118.333L-62.152,117.556L-62.084,118.222L-62.015,119.667L-61.947,121.222L-61.878,122.556L-61.81,123.667L-61.741,123.556L-61.673,123.111L-61.604,123.222L-61.536,123.667L-61.468,125.333L-61.399,125.667L-61.331,126L-61.262,125.667L-61.194,124.333L-61.125,123.333L-61.057,123.222L-60.988,124.111L-60.92,123.889L-60.852,123.667L-60.783,123.222L-60.715,122.778L-60.646,122.333L-60.578,122.556L-60.509,122.667L-60.441,124L-60.372,123.444L-60.304,123.778L-60.236,123.667L-60.167,123.222L-60.099,124.222L-60.03,124.556L-59.962,125.444L-59.825,126L-59.756,126.111L-59.688,125.667L-59.62,126.111L-59.551,126.222L-59.483,126.556L-59.414,126.778L-59.346,126.889L-59.277,126.778L-59.209,127.222L-59.14,128.333L-59.072,130.222L-59.004,131.333L-58.935,131.889L-58.867,132.111L-58.798,132.667L-58.73,133.111L-58.661,133.556L-58.593,134.222L-58.524,134.667L-58.456,135.222L-58.388,136.111L-58.319,135.889L-58.251,135.778L-58.182,136L-58.114,136.333L-58.045,137.111L-57.977,137.333L-57.908,137.444L-57.84,137.778L-57.772,138.222L-57.703,138.556L-57.635,138.889L-57.566,139L-57.498,139.778L-57.429,139.889L-57.361,139.667L-57.224,139.889L-57.155,140.556L-57.087,140.889L-57.019,140.333L-56.95,140.222L-56.882,140.111L-56.813,140L-56.745,140.222L-56.676,140.333L-56.608,140.444L-56.539,140.222L-56.471,140L-56.403,140.444L-56.334,140.444L-56.266,140.444L-56.197,140.556L-56.129,141.556L-56.06,141.222L-55.923,141.222L-55.855,141.333L-55.787,141.444L-55.718,141.444L-55.65,141.333L-55.513,140.889L-55.444,140.556L-55.376,140.556L-55.307,140.778L-55.239,140.778L-55.171,140.778L-55.102,141.333L-55.034,141.333L-54.965,141.444L-54.897,141.444L-54.828,142.111L-54.76,142.111L-54.555,142.556L-54.486,141.889L-54.418,141.667L-54.349,141.222L-54.281,141L-54.212,141.556L-54.075,141.556L-53.936,141.444L-53.867,141.444L-53.799,141.444L-53.73,141.556L-53.662,141.556L-53.593,141.889L-53.525,141.778L-53.457,141.889L-53.388,141.778L-53.32,141.556L-53.183,141.333L-53.114,141.778L-53.046,141.889L-52.977,141.889L-52.909,142.111L-52.841,142.222L-52.772,142.333L-52.704,142.333L-52.635,141.889L-52.498,141.889L-52.43,141.778L-52.361,141.667L-52.225,141.444L-52.156,141.333L-52.088,142.222L-51.951,142.222L-51.882,142.556L-51.814,142.444L-51.745,142.444L-51.608,142.778L-51.54,142.889L-51.472,143L-51.335,143L-51.198,142.889L-51.061,142.889L-50.992,142.889L-50.924,143.111L-50.787,143.111L-50.65,143.222L-50.582,143.333L-50.376,143.667L-50.308,143.667L-50.24,143.556L-50.103,143.333L-49.966,143L-49.897,142.778L-49.76,142.778L-49.624,142.667L-49.35,143.222L-49.281,143.111L-49.213,143.111L-49.144,143.222L-49.076,143.444L-49.008,143.556L-48.871,143.556L-48.802,143.222L-48.734,142.333L-48.528,142.222L-48.46,142L-48.186,141.889L-48.049,141.556L-47.844,141.556L-47.775,141.333L-47.707,141.444L-47.159,140.889L-47.023,140.556L-46.68,140.222L-46.612,139.889L-46.543,139.778L-46.475,139.778L-46.407,139.222L-46.338,139.111L-46.27,139.111L-46.201,139L-46.133,139.222L-46.064,139.222L-45.996,138.778L-45.927,138.444L-45.859,137.778L-45.791,137.778L-45.722,137.111L-45.654,137L-45.517,136.778L-45.448,136.333L-45.314,136.333L-45.246,136.556L-45.177,137L-45.109,136.889L-45.04,136.667L-44.972,135.222L-44.904,134.778L-44.835,134.778L-44.767,134.444L-44.698,134.444L-44.63,134.333L-44.561,134.444L-44.493,134.222L-44.424,133.667L-44.356,133.222L-44.288,133L-44.219,133.222L-44.151,132.778L-44.082,132.778L-44.014,132.889L-43.877,133L-43.808,132.889L-43.74,132.889L-43.672,133.222L-43.603,133.333L-43.535,132.667L-43.466,132.889L-43.398,132.889L-43.329,133.111L-43.261,133.333L-43.192,133.222L-43.124,132.444L-43.056,132.333L-42.987,132L-42.919,132.111L-42.85,133.556L-42.782,134L-42.713,133.889L-42.645,133.556L-42.576,132.222L-42.508,130.889L-42.44,130.556L-42.371,130.778L-42.303,131.333L-42.234,131.889L-42.166,131.111L-42.097,129.889L-42.029,130.111L-41.96,129.556L-41.892,129.333L-41.824,129L-41.687,128.667L-41.618,127.556L-41.55,126.667L-41.481,125.333L-41.413,126L-41.344,125.667L-41.276,124.778L-41.139,123.111L-41.071,122.556L-41.002,121.111L-40.934,121.222L-40.865,121.111L-40.797,121.778L-40.728,121.667L-40.66,121.111L-40.591,119.222L-40.523,115.889L-40.455,116.111L-40.386,116.333L-40.318,117.333L-40.249,117.222L-40.181,116.667L-40.112,114.889L-40.044,111.667L-39.975,110.444L-39.907,111L-39.839,109.556L-39.77,108L-39.702,106.889L-39.633,105.222L-39.565,103.333L-39.496,102.667L-39.428,102L-39.359,103.667L-39.291,103.333L-39.223,103.667L-39.154,103.444L-39.086,103.667L-39.017,103.222L-38.949,103L-38.88,102.556L-38.812,101.333L-38.743,100L-38.675,99.889L-38.607,99.778L-38.538,100.778L-38.47,103.111L-38.401,103.111L-38.333,103.111L-38.264,103.111L-38.196,102.444L-38.127,102.111L-38.059,103L-37.991,104.889L-37.922,106.444L-37.854,105.889L-37.785,106.222L-37.717,107.333L-37.648,107.778L-37.58,109.333L-37.511,110.778L-37.443,112.222L-37.375,113.556L-37.306,113.667L-37.238,112.778L-37.169,111.444L-37.101,110.556L-37.032,110.333L-36.964,110L-36.895,110L-36.827,110.778L-36.758,111.444L-36.69,112.222L-36.622,112.444L-36.553,113.111L-36.485,113.444L-36.416,114.111L-36.348,114.556L-36.279,114.667L-36.211,114.667L-36.142,114.778L-36.074,115.111L-36.006,115.889L-35.937,116.667L-35.869,117.556L-35.8,118.222L-35.732,118.667L-35.663,119.222L-35.595,119.889L-35.526,119.889L-35.458,121L-35.39,121.667L-35.321,121.444L-35.253,121L-35.184,121.222L-35.116,122.333L-35.047,123.444L-34.979,124.333L-34.91,125.667L-34.842,126.556L-34.774,126.556L-34.705,127.333L-34.637,127L-34.568,126.667L-34.5,126.222L-34.431,127L-34.363,127.222L-34.294,127.444L-34.226,128.222L-34.158,128.778L-34.089,129.778L-34.021,130.444L-33.952,130.444L-33.884,130.778L-33.815,130.222L-33.747,130.667L-33.678,131.667L-33.61,132.111L-33.542,132.333L-33.473,132L-33.405,131.222L-33.336,131L-33.268,131.111L-33.199,131L-33.131,132L-33.062,132.778L-32.994,133.111L-32.926,133.778L-32.857,133.778L-32.789,134.444L-32.72,135.222L-32.652,135.667L-32.583,136.667L-32.515,136.889L-32.446,137L-32.378,136.889L-32.309,137.222L-32.241,137L-32.173,136.444L-32.104,136.556L-32.036,136.556L-31.967,136.667L-31.899,137.111L-31.83,137.333L-31.762,137.889L-31.625,137.889L-31.557,137.667L-31.488,138L-31.42,138.333L-31.351,138.778L-31.283,138.889L-31.214,139.111L-31.146,139.222L-31.077,139.889L-31.009,139.889L-30.872,139.667L-30.804,140.111L-30.735,140.333L-30.667,140.556L-30.598,140.667L-30.53,140.667L-30.461,140.556L-30.393,140.667L-30.325,140.889L-30.256,141L-30.119,141.222L-29.982,141.222L-29.914,141.444L-29.845,142.111L-29.709,142.444L-29.64,142.556L-29.572,142.556L-29.503,142.556L-29.435,142.667L-29.366,142.444L-29.298,142.889L-29.161,143.111L-29.093,143.111L-28.953,143L-28.884,143.111L-28.747,143.667L-28.611,143.667L-28.542,144L-28.474,143.889L-28.405,143.667L-28.337,143.778L-28.268,143.889L-28.2,143.889L-28.131,143.667L-28.063,143.667L-27.926,143.667L-27.652,143.889L-27.584,143.889L-27.515,144.111L-27.447,144.444L-27.242,144.444L-27.105,144.444L-27.036,144.333L-26.899,144.556L-26.831,144.556L-26.762,144.444L-26.626,144.556L-26.557,144.333L-26.489,144.333L-26.42,144.556L-26.352,144.556L-26.283,144.556L-26.215,144.556L-26.146,144.556L-26.078,144.778L-26.01,144.889L-25.941,145L-25.736,145L-25.667,145.111L-25.53,145.444L-25.394,145.444L-25.325,145.556L-25.188,145.333L-25.12,145.556L-25.051,145.667L-24.983,145.667L-24.914,145.444L-24.778,145.444L-24.709,145.333L-24.641,145.111L-23.956,144.667L-23.888,144.667L-23.819,144.444L-23.751,143.667L-23.682,143.667L-23.614,143.889L-23.546,143.889L-23.477,143.333L-23.409,142.778L-23.34,142.222L-23.135,141.778L-23.066,141.667L-22.998,141.333L-22.382,141.222L-22.245,140.556L-22.177,139.889L-22.108,139.667L-22.04,139.667L-21.834,139.222L-21.766,138.667L-21.697,138.556L-21.629,138.222L-21.561,138.222L-21.355,138L-21.287,138L-20.945,137.778L-20.671,137.444L-20.602,136.889L-20.465,137L-20.4,137L-20.331,137.333L-20.263,137.222L-20.195,137L-20.126,137.333L-20.058,137.111L-19.989,136.556L-19.921,136.222L-19.852,136.556L-19.784,136.778L-19.715,137.222L-19.647,137.222L-19.442,136.667L-19.373,136.889L-19.305,136.556L-19.236,137.222L-19.168,137.667L-19.031,137.222L-18.962,136.556L-18.894,136.333L-18.826,136L-18.757,136L-18.689,136.333L-18.62,136.222L-18.552,135.444L-18.483,134L-18.415,133.667L-18.346,133.556L-18.278,133.778L-18.21,133.111L-18.141,133L-18.073,130.889L-18.004,129.556L-17.936,129.222L-17.867,129.333L-17.799,129L-17.73,129.222L-17.662,129.222L-17.594,129L-17.525,128.667L-17.457,128.222L-17.388,128.111L-17.32,127.778L-17.251,127.778L-17.183,127.556L-17.114,127.111L-17.046,125.444L-16.978,124.667L-16.909,124.556L-16.841,124.222L-16.772,124.889L-16.704,124.111L-16.635,124L-16.567,124L-16.498,124.889L-16.43,126.222L-16.362,126.111L-16.293,126.444L-16.225,126.111L-16.156,126.667L-16.088,126.444L-16.019,128.111L-15.951,128.444L-15.882,128.333L-15.814,127.333L-15.745,126.889L-15.677,126.222L-15.609,124.778L-15.54,124.444L-15.472,124.111L-15.403,123.778L-15.335,123.778L-15.266,124.333L-15.198,123L-15.129,122L-15.061,121L-14.993,121.333L-14.924,121.778L-14.856,122L-14.787,122.889L-14.719,122.333L-14.65,122.556L-14.582,121.222L-14.513,120.556L-14.445,120L-14.377,120L-14.308,119.889L-14.24,118.889L-14.171,118.111L-14.103,116.333L-14.034,115.778L-13.966,115.444L-13.897,116L-13.829,115.556L-13.761,114.889L-13.692,115.333L-13.624,115.333L-13.555,116.444L-13.487,116.778L-13.418,117L-13.35,117.556L-13.281,116.222L-13.213,114.222L-13.145,114.556L-13.076,115.111L-13.008,115.556L-12.939,115.111L-12.871,114.444L-12.802,113.667L-12.734,112.222L-12.665,112.444L-12.597,111.889L-12.529,112.333L-12.46,112.444L-12.392,111.778L-12.323,108.889L-12.255,107.778L-12.186,108.667L-12.118,109.333L-12.049,109.778L-11.981,110.111L-11.913,109.333L-11.844,107.778L-11.776,108.222L-11.707,109.222L-11.639,108.556L-11.57,107.889L-11.502,107.333L-11.433,105.778L-11.365,103.444L-11.296,102.222L-11.228,102.667L-11.16,103.667L-11.091,103.444L-11.023,103L-10.954,103.111L-10.886,104.444L-10.817,104.556L-10.749,104.778L-10.68,105.333L-10.612,104.667L-10.544,105.667L-10.475,105.889L-10.407,104.778L-10.338,105.333L-10.27,107L-10.201,108.111L-10.133,107.667L-10.064,108.111L-9.996,108.667L-9.928,109.111L-9.859,109.889L-9.791,110.778L-9.722,111.222L-9.654,111.667L-9.585,112.222L-9.517,113.111L-9.448,113.667L-9.38,115.333L-9.312,118L-9.243,118.556L-9.175,119.111L-9.106,119.444L-9.038,120.222L-8.969,121.556L-8.901,122.222L-8.832,122L-8.764,122.778L-8.696,123.333L-8.627,123.778L-8.559,124.778L-8.49,124.111L-8.422,124.444L-8.353,126.111L-8.285,126.889L-8.216,128.222L-8.148,128.778L-8.08,129.444L-8.011,129.333L-7.943,129.667L-7.874,129.778L-7.806,130.556L-7.737,131.444L-7.669,131.889L-7.6,132.111L-7.532,132.222L-7.463,132.667L-7.395,132.778L-7.327,133.111L-7.258,133.444L-7.19,134.444L-7.121,135.333L-7.053,136.222L-6.984,136.778L-6.916,136.333L-6.847,136.444L-6.779,137.222L-6.711,137.667L-6.574,137.889L-6.505,138L-6.437,138.111L-6.368,138.667L-6.3,139L-6.231,139.222L-6.163,139.111L-6.095,138.556L-6.026,138.222L-5.958,137.556L-5.889,137.222L-5.821,137.667L-5.752,137.778L-5.684,137.333L-5.615,137.333L-5.547,137.333L-5.479,137.222L-5.41,137.667L-5.342,137.778L-5.273,137.778L-5.205,137.889L-5.136,137.667L-5.068,137.556L-4.999,137.222L-4.931,137.333L-4.863,137.333L-4.794,137.889L-4.726,137.889L-4.657,137.667L-4.589,138L-4.52,138.111L-4.383,138.556L-4.315,138.667L-4.178,139L-4.107,138.667L-4.038,138.667L-3.97,138.444L-3.901,138.778L-3.833,138.667L-3.765,139.222L-3.696,139.444L-3.628,139L-3.559,138.889L-3.491,139.222L-3.422,139.222L-3.354,139L-3.285,139.111L-3.217,138.889L-3.149,139L-3.08,139.556L-3.012,139.556L-2.943,139.778L-2.875,139.778L-2.806,140L-2.738,140L-2.669,140L-2.601,140.111L-2.533,140L-2.396,140.222L-2.327,140.222L-2.259,140.333L-2.19,140.222L-2.053,140.222L-1.985,140.111L-1.916,140.444L-1.848,140.444L-1.78,140.667L-1.711,140.667L-1.574,141.333L-1.506,141.667L-1.437,142.222L-1.369,142.778L-1.3,143L-1.232,143L-1.164,143.333L-1.095,143.667L-0.958,143.889L-0.89,144.111L-0.821,144.222L-0.753,144.222L-0.684,144.222L-0.616,144.222L-0.479,144.333L-0.411,144.444L-0.274,144.111L-0.137,144.111L-0.068,144L0,144L0.068,144L0.205,144L0.274,144.111L0.342,144L0.411,143.889L0.479,143.889L0.548,144L0.616,143.667L0.753,143.778L0.821,143.667L0.89,143.556L0.958,143.444L1.027,143.111L1.232,143L1.369,142.778L1.437,143L1.506,142.889L1.643,142.556L1.848,142.444L1.916,142.333L1.985,140.889L2.053,140.556L2.122,140.444L2.19,139.778L2.259,139.556L2.327,138.556L2.396,138.556L2.669,138.111L2.738,137.778L2.875,137.333L3.08,137.444L3.285,137.333L3.354,136.889L3.422,136.667L3.491,136.111L3.559,135.556L3.696,134.889L3.765,135.222L3.833,134.889L3.901,134.444L3.97,134.556L4.038,133.111L4.107,132.889L4.175,132.556L4.312,132.778L4.381,132.778L4.449,132.444L4.517,132.667L4.586,132.556L4.723,132.556L4.791,133.778L4.86,133.444L4.928,133.667L4.994,134.111L5.062,134.111L5.131,134.444L5.199,134.222L5.268,134L5.336,133.333L5.404,133.111L5.473,132.222L5.541,131.667L5.61,130.556L5.678,130.778L5.747,131.111L5.815,130.333L5.884,130.444L5.952,130.222L6.02,130L6.089,130.333L6.157,130.222L6.226,131.667L6.294,131.222L6.363,131.333L6.431,131.333L6.5,131L6.568,131.333L6.636,131.444L6.773,131.333L6.842,130.556L6.91,130.333L6.979,130.444L7.047,129.222L7.116,129.222L7.184,128.444L7.252,128.556L7.321,128.111L7.389,127.778L7.458,127.667L7.526,128.111L7.595,127.889L7.663,128L7.732,128.556L7.8,127.778L7.868,126.444L7.937,126.222L8.005,124.111L8.074,122.444L8.142,121.667L8.211,121.556L8.279,118.889L8.348,117.556L8.416,116.222L8.484,115.667L8.553,114L8.621,113.889L8.69,111.889L8.758,109.667L8.827,109.111L8.895,109.444L8.964,109.111L9.032,108.556L9.101,109L9.169,106.667L9.237,105.778L9.374,104.111L9.443,104L9.511,103.444L9.58,103.556L9.648,103.222L9.717,100.667L9.785,98.556L9.853,96.333L9.922,94.667L9.99,94.556L10.059,94.778L10.127,96.333L10.196,95.333L10.264,93.333L10.333,91.889L10.401,93.111L10.469,92.889L10.538,94L10.606,93.556L10.675,94.667L10.743,94L10.812,94.333L10.88,92.333L10.949,92.111L11.017,91.556L11.085,92.111L11.154,91.667L11.222,90.667L11.291,91.667L11.359,92.111L11.428,92.778L11.496,93L11.565,93.222L11.633,91.889L11.701,91.111L11.77,92.444L11.838,93.889L11.907,95.889L11.975,97L12.044,97.222L12.112,96.333L12.181,96.444L12.249,98.111L12.317,98.889L12.386,99.556L12.454,99.778L12.523,101.333L12.591,101.333L12.66,101.333L12.728,99.778L12.797,99.889L12.865,100.111L12.933,103.778L13.002,104L13.07,103.111L13.139,100.667L13.207,101.333L13.276,102.222L13.344,102.667L13.413,103.333L13.481,103.556L13.55,103.111L13.618,102.778L13.686,103.667L13.755,103.444L13.823,104.222L13.892,104.778L13.96,105.556L14.029,106.444L14.097,106.667L14.166,108.111L14.234,108.333L14.302,108.444L14.371,110.333L14.439,110.333L14.508,110.333L14.576,109.444L14.645,109.778L14.713,110.444L14.782,112.333L14.85,112.778L14.918,113.889L14.987,114.222L15.055,114.778L15.124,116.444L15.192,118L15.261,118.778L15.329,119.222L15.398,119.222L15.466,117.667L15.534,118.333L15.603,119L15.671,120.111L15.74,121.333L15.808,122.778L15.877,123.667L15.945,124.111L16.014,123.556L16.082,123.333L16.15,124L16.219,124L16.287,124.222L16.356,124.778L16.424,124.111L16.493,124.444L16.561,124.889L16.63,125.556L16.698,126.222L16.766,126.667L16.835,126.556L16.903,126.444L16.972,126.333L17.04,126.444L17.109,126.556L17.177,126.444L17.246,126.889L17.314,126.889L17.383,127.222L17.451,128.333L17.519,130.444L17.588,130.556L17.656,131L17.725,131.222L17.793,131.333L17.862,131.222L17.93,131.111L17.999,131.333L18.067,132.222L18.135,133L18.204,133.667L18.272,134.667L18.341,135.111L18.409,135.444L18.478,135.778L18.546,136.778L18.615,137.667L18.683,137.667L18.751,137.556L18.82,137.556L18.888,137.778L18.957,137.889L19.025,138.111L19.094,137.889L19.162,137.778L19.231,138.222L19.367,138.778L19.436,138.556L19.504,138.444L19.573,138.333L19.641,138.444L19.71,138.889L19.778,138.889L19.847,139.222L19.915,139.333L19.983,139.778L20.257,140.222L20.326,140.222L20.394,140.222L20.463,140.333L20.599,140.333L20.668,140.333L20.736,140.111L20.805,140.333L20.873,141.111L20.942,140.667L21.01,140.222L21.079,140.333L21.147,140.333L21.215,140.333L21.287,140.333L21.355,140.778L21.424,141.111L21.492,141.333L21.561,141.556L21.629,141.333L21.766,141.111L21.834,141.222L21.903,141.333L21.971,141.222L22.04,141.222L22.108,140.556L22.245,140.889L22.313,140.778L22.45,140.778L22.519,140.667L22.587,140.889L22.656,140.556L22.724,140.333L22.793,140.111L22.861,140L22.93,139.444L22.998,139L23.066,138.889L23.135,139L23.203,139.222L23.272,139.444L23.34,139.333L23.409,139.556L23.477,139.444L23.546,139.222L23.682,138.889L23.751,138.889L23.819,138.889L23.888,138.667L24.093,138.889L24.162,139.111L24.23,139L24.298,138.889L24.367,139.111L24.435,139L24.504,139.778L24.641,139.556L24.709,139.667L24.778,139.667L24.846,139.556L24.914,139.667L24.983,139.778L25.051,139.778L25.12,140L25.188,140L25.257,140.444L25.325,141L25.462,141.111L25.736,140.889L25.804,141L25.873,140.333L26.01,140.222L26.146,139.889L26.215,139.444L26.283,138.778L26.352,138.222L26.489,137.778L26.557,137.667L26.626,137.778L26.694,137.667L26.831,137.333L26.899,137.667L26.968,137.444L27.036,137.222L27.105,137.111L27.173,136.889L27.242,137L27.31,137L27.379,137.222L27.447,137.333L27.584,137.333L27.652,137.333L27.721,137.667L27.995,136.889L28.131,136.778L28.2,136.778L28.268,136.556L28.337,136.444L28.405,136.444L28.474,136.111L28.542,136.222L28.611,136.667L28.679,137.111L28.747,137.444L28.816,137.222L28.953,138.111L29.021,138.222L29.09,137.889L29.158,138.222L29.227,138.111L29.295,138.111L29.363,136.889L29.432,135.889L29.5,134.778L29.569,134.222L29.637,133.333L29.843,132.556L29.908,131L30.182,127.889L30.25,126.556L30.319,126L30.456,125.333L30.524,125.111L30.661,125.667L30.73,125L30.798,123.889L30.866,124.222L30.935,124L31.003,123.778L31.072,123.889L31.14,123.667L31.209,121.444L31.277,120.889L31.346,120.667L31.414,121.333L31.482,120.889L31.551,120.889L31.619,121.111L31.688,120.222L31.756,119.556L31.825,119.778L31.893,120.667L31.962,121.556L32.03,122.333L32.098,123.222L32.167,123.889L32.235,124.444L32.304,124.667L32.372,126.556L32.441,126.667L32.509,126L32.578,125.556L32.646,125L32.714,124.556L32.783,124.444L32.851,125.111L32.92,125L32.988,124.667L33.057,123.889L33.125,123.333L33.194,124.111L33.262,125.778L33.33,125.667L33.399,125.222L33.467,125L33.536,124.333L33.604,123.333L33.673,122.556L33.741,122.889L33.81,123.222L33.878,122.889L33.946,121.556L34.015,121L34.083,119.333L34.152,115.778L34.22,114.222L34.289,112.444L34.357,112.333L34.426,111.889L34.494,112.222L34.563,112.778L34.631,112.222L34.699,111.444L34.768,110.667L34.836,109L34.905,108.444L34.973,107.556L35.042,106.222L35.11,104.556L35.179,103.889L35.247,102.556L35.315,100.556L35.384,98.778L35.452,98.778L35.521,98.111L35.589,97.111L35.658,98.111L35.726,97.222L35.795,95.111L35.863,94.667L35.931,94.222L36,94.444L36.068,93.444L36.137,94L36.205,95.111L36.274,95.778L36.342,97.111L36.411,97.333L36.479,97.444L36.547,96.889L36.616,95L36.684,94L36.753,93.778L36.821,93.222L36.89,94.667L36.958,94.222L37.027,94L37.095,94.889L37.163,96.778L37.232,97L37.3,97.444L37.369,98.889L37.437,100L37.506,99.222L37.574,98.556L37.643,98.889L37.711,97.556L37.779,97.889L37.848,99.556L37.916,99.444L37.985,99.556L38.053,100.222L38.122,101.333L38.19,101.889L38.259,101.889L38.327,102.222L38.396,101.889L38.464,101.333L38.532,101.667L38.601,101.889L38.669,103.222L38.738,105.111L38.806,106.556L38.875,107.889L38.943,107.444L39.012,107.444L39.08,107.889L39.148,107.889L39.217,107.444L39.285,108.556L39.354,108.111L39.422,108.333L39.491,108.667L39.559,109.889L39.628,111L39.696,112L39.764,113.444L39.833,114.889L39.901,115.444L39.97,116.222L40.038,116.444L40.107,116.444L40.175,116.667L40.244,117.333L40.312,119.333L40.38,118.556L40.449,117.667L40.517,118.222L40.586,117.111L40.654,116.889L40.723,116.889L40.791,116.889L40.86,115.667L40.928,115.222L40.996,116.222L41.065,116.889L41.133,117.222L41.202,117.333L41.27,117.778L41.339,115.556L41.407,115.667L41.476,115.111L41.544,113.333L41.612,112.778L41.681,113.111L41.749,113.889L41.818,113.444L41.886,112.556L41.955,112.111L42.023,111.778L42.092,111.333L42.16,111.111L42.228,110.889L42.297,110.889L42.365,110.444L42.434,111L42.502,112.556L42.571,113L42.639,114.444L42.708,114.333L42.776,115.333L42.845,116L42.913,116.778L42.981,117.333L43.05,117.444L43.118,117L43.187,116.778L43.255,116.333L43.324,116.889L43.392,118.111L43.461,118.667L43.529,119.333L43.597,121.778L43.666,123L43.734,123.444L43.803,123.111L43.871,122.111L43.94,122.333L44.008,122.778L44.077,123.556L44.145,124L44.213,124.444L44.282,125.222L44.35,125.333L44.419,126.111L44.487,127.111L44.556,127.444L44.624,127.444L44.693,128.333L44.761,129.333L44.829,129.444L44.898,129.556L44.966,130.111L45.035,130.444L45.103,130.444L45.172,131.222L45.24,132L45.309,133.556L45.377,133.889L45.445,134.889L45.514,135.222L45.582,135.444L45.719,135.111L45.788,134.778L45.856,134.444L45.925,134.111L45.993,135.111L46.061,135.222L46.13,135L46.201,134.667L46.27,134.889L46.338,134.889L46.407,135.111L46.475,135.444L46.543,135.556L46.612,135.111L46.68,135.111L46.749,135.778L46.817,135.778L46.886,135.889L46.954,135.556L47.023,135.667L47.091,135.667L47.159,135.778L47.228,136.222L47.296,136.778L47.365,136.667L47.433,136.444L47.57,136.556L47.639,136.778L47.707,137.222L47.775,137.556L47.844,138.222L47.912,138.556L47.981,139L48.049,139.667L48.118,140.222L48.186,140.889L48.255,141.556L48.323,141.889L48.392,142.111L48.46,141.778L48.528,141.333L48.597,141.444L48.665,141.222L48.734,141.556L48.871,141L49.008,140.333L49.076,139.667L49.144,140.222L49.213,140.444L49.281,140.111L49.35,140.222L49.487,140.111L49.555,139.889L49.624,139.556L49.692,139.556L49.76,139.333L49.829,139L49.966,138.778L50.171,138.778L50.24,138.444L50.376,138.111L50.513,137.889L50.65,137.889L50.719,137.556L50.787,137.667L50.856,137.556L50.924,137.222L50.992,137.222L51.061,137L51.129,137.333L51.198,137.667L51.266,137.444L51.335,136.667L51.403,136.556L51.472,137.222L51.54,137.778L51.608,137.889L51.677,137.667L51.745,136.778L51.814,137L51.882,136.333L51.951,135.333L52.019,135.556L52.088,135.667L52.156,134.778L52.225,134.667L52.293,134.333L52.361,134.556L52.498,134.667L52.567,135.222L52.635,135.444L52.704,135.444L52.772,135L52.841,135.333L52.909,134.889L52.977,134.667L53.046,134.667L53.114,134.333L53.183,134.333L53.251,134.667L53.388,134.333L53.457,134.556L53.525,135.556L53.593,135.667L53.662,135.333L53.73,135.111L53.799,135.556L53.867,135.333L53.936,135.667L54.004,135.111L54.073,135.889L54.141,137.111L54.209,136.778L54.278,136L54.346,136L54.415,135.778L54.483,136.111L54.552,136.111L54.62,136.111L54.689,135.444L54.757,135.222L54.823,134.778L54.891,134.889L54.96,134.222L55.028,132.778L55.096,132.444L55.165,132.556L55.233,131.667L55.302,131.111L55.37,131.111L55.439,131.222L55.576,129.889L55.644,129L55.712,128L55.781,127.333L55.849,127L55.918,126.333L55.986,126.444L56.055,126.778L56.123,126.889L56.192,126.778L56.26,125.778L56.328,125L56.397,124.667L56.465,123.667L56.534,123.222L56.602,122.889L56.671,121.111L56.739,120.333L56.808,119.778L56.876,119L56.944,119L57.013,119.111L57.081,119.111L57.15,120.556L57.218,120.667L57.287,120.556L57.355,121.222L57.424,121.778L57.492,121.778L57.56,121.778L57.629,122.667L57.697,122.556L57.766,123L57.834,122.667L57.903,121.667L57.971,120.889L58.04,120.889L58.108,121L58.176,119.889L58.245,118.333L58.313,118.778L58.382,119.667L58.45,120.222L58.519,121.333L58.587,121.667L58.656,121.333L58.724,122.333L58.792,121.111L58.861,120.222L58.929,118.444L58.998,118.444L59.066,118L59.135,117.667L59.203,116.778L59.272,116L59.34,115.111L59.409,113.778L59.477,112L59.545,108.556L59.614,106L59.682,104.889L59.751,103.778L59.819,102.556L59.888,103.222L59.956,104.667L60.025,104.556L60.093,102.889L60.161,100.667L60.23,101.889L60.298,102.667L60.367,101.222L60.435,99.889L60.504,97.889L60.572,94.889L60.641,94.222L60.709,93.222L60.777,91.889L60.846,91.778L60.914,93.222L60.983,93L61.051,92.222L61.12,90.889L61.188,89.556L61.257,88.556L61.325,88L61.393,88.222L61.462,88.444L61.53,88.889L61.599,91.778L61.667,93L61.736,92.778L61.804,93.778L61.873,93.889L61.941,93.889L62.009,92.778L62.078,93.556L62.146,94.667L62.215,95.556L62.283,95.222L62.352,94.444L62.42,94.556L62.489,93.778L62.557,95L62.625,98L62.694,98.778L62.762,100.556L62.831,101.667L62.899,101.333L62.968,100.889L63.036,102L63.105,101.778L63.173,102L63.242,103.889L63.31,105.111L63.378,106.556L63.447,106.444L63.515,106.667L63.584,107L63.652,105.667L63.721,106.778L63.789,108.111L63.858,108.222L63.926,108.889L63.994,108.444L64.063,109.333L64.131,108.889L64.2,109.333L64.268,110.333L64.337,109.222L64.405,108.444L64.474,109L64.542,109.333L64.61,109.889L64.679,109.778L64.747,107.778L64.816,106.889L64.884,106.222L64.953,107L65.021,105.778L65.09,106.333L65.158,107L65.226,108.778L65.295,108.889L65.363,109.111L65.432,109.111L65.5,110L65.569,109.889L65.637,109.778L65.706,110.111L65.774,107.444L65.842,106.222L65.911,106.444L65.979,106.889L66.048,106.778L66.116,106.333L66.185,107.444L66.253,106.667L66.322,107.333L66.39,108.667L66.458,110.444L66.527,110.778L66.595,112.111L66.664,112.667L66.732,112.667L66.801,114.333L66.869,114.333L66.938,114.889L67.006,115.889L67.074,118L67.143,119.111L67.211,119.222L67.28,117.222L67.348,116.444L67.417,116.444L67.485,116.556L67.554,116.111L67.622,117.333L67.691,118.667L67.759,120.111L67.827,122.778L67.896,124.222L67.964,124.444L68.033,124.778L68.101,125L68.17,124.889L68.238,124.778L68.307,125L68.375,124.889L68.443,125.556L68.512,125.333L68.58,125.556L68.649,126L68.717,125.556L68.786,125.778L68.854,126.556L68.923,126.889L68.991,127.778L69.059,128.333L69.128,127.778L69.196,127.444L69.265,127.667L69.333,129.333L69.402,130.444L69.47,130.667L69.539,130.667L69.607,131L69.675,131.111L69.744,131L69.812,131.333L69.881,130.889L69.949,130.889L70.018,130.778L70.155,131.111L70.223,132L70.291,133L70.36,132.667L70.428,132.556L70.565,132L70.634,131.444L70.702,132L70.771,132.222L70.839,132.333L70.907,132.444L70.976,132.778L71.044,132.889L71.116,133.667L71.184,133.556L71.253,133L71.321,133.444L71.389,133.667L71.458,133.222L71.526,133L71.595,132.889L71.663,133.111L71.732,133.111L71.8,133L71.869,133L71.937,133.111L72.005,133L72.074,133.667L72.142,133.889L72.211,134.111L72.348,134.111L72.416,134.222L72.485,134.111L72.553,134.667L72.621,135.667L72.69,135.556L72.758,135.778L72.827,135.556L72.895,135.444L72.964,135.444L73.032,136L73.101,136.222L73.169,135.889L73.238,135.222L73.306,135.444L73.374,136.111L73.443,136.222L73.58,136.444L73.648,137.444L73.717,137.889L73.785,137.778L73.854,137.889L73.99,137.333L74.059,137.667L74.127,137.556L74.196,137.667L74.264,137.556L74.333,137.778L74.401,137.444L74.47,137.667L74.538,137.444L74.606,137.222L74.675,137.444L74.743,137.222L74.812,137L74.88,137.444L74.949,137.667L75.086,137.778L75.154,138.333L75.222,138L75.291,137.444L75.359,136.556L75.428,136.556L75.496,136.889L75.565,137L75.633,136.667L75.702,136.667L75.77,136.889L75.838,136.778L75.907,136.667L75.975,136.333L76.044,136.556L76.112,137.444L76.181,137.333L76.249,137.556L76.318,137.333L76.386,137L76.454,136.556L76.523,136.556L76.591,136.333L76.66,136.556L76.728,136.556L76.797,136.556L76.865,136.778L76.934,136.889L77.002,137.222L77.139,137.333L77.276,137.667L77.344,137.667L77.413,137.778L77.481,138.111L77.55,139.222L77.618,139.444L77.687,139L77.755,138.444L77.823,138.444L77.892,137.889L77.96,137.667L78.029,137.556L78.097,137.667L78.166,138L78.234,137.444L78.303,137.333L78.371,137L78.508,136.778L78.576,136.556L78.645,136.556L78.713,136L78.782,136L78.85,135.889L78.919,135.333L78.987,135.111L79.055,134.444L79.124,134.222L79.192,133.889L79.261,132.889L79.329,132.444L79.398,131.778L79.466,131.333L79.535,131.111L79.603,130.333L79.671,128.889L79.737,128L79.805,128.111L79.874,127.556L79.942,126.111L80.011,126.556L80.079,125.333L80.148,124.556L80.216,123.889L80.285,123.333L80.353,123.667L80.422,123.333L80.49,123.778L80.558,123.556L80.627,122.778L80.695,123.111L80.764,123.333L80.832,123.333L80.901,123.444L80.969,123.111L81.038,123.444L81.106,123.222L81.174,123L81.243,122.667L81.311,123.222L81.38,123.222L81.448,123.667L81.517,122.667L81.585,122.222L81.654,121.778L81.722,122.667L81.79,123.222L81.859,123.333L81.927,124.333L81.996,126.111L82.064,126.444L82.133,126.444L82.201,126.667L82.27,126.778L82.338,126L82.406,125.222L82.475,123.667L82.543,122.889L82.612,121.778L82.68,122.778L82.749,121.667L82.817,121.222L82.886,120.667L82.954,120.111L83.022,120L83.091,119.667L83.159,119.667L83.228,119.222L83.296,118.889L83.365,117.556L83.502,117L83.57,115.222L83.638,114.222L83.707,113.556L83.775,113.444L83.844,111.556L83.912,110L83.981,109.889L84.049,109.111L84.118,107.556L84.186,106.889L84.255,107.667L84.323,107L84.391,106L84.46,106.333L84.528,106.556L84.597,107.889L84.665,108.222L84.734,109L84.802,108.556L84.871,107.111L84.939,104.556L85.007,103.222L85.076,101.556L85.144,98.444L85.213,96.444L85.281,95.556L85.35,95L85.418,93.222L85.487,89.222L85.555,85.889L85.623,86.667L85.692,85.444L85.76,86.556L85.829,87.333L85.897,87.889L85.966,87L86.034,84.778L86.103,84.667L86.171,84.667L86.239,84L86.308,83.222L86.376,83.111L86.445,82.333L86.513,81.889L86.582,82L86.65,81.222L86.719,80.889L86.787,80.778L86.855,80.111L86.924,82.111L86.992,84.556L87.061,85.556L87.129,86.667L87.198,89.667L87.266,90.667L87.335,89.889L87.403,89.333L87.471,90.222L87.54,94L87.608,96.333L87.677,95.889L87.745,97.667L87.814,96.111L87.882,94.889L87.951,96.222L88.019,98.222L88.087,99.222L88.156,99.333L88.224,100.556L88.293,100.333L88.361,99.556L88.43,98.444L88.498,99.778L88.567,100.111L88.635,98.778L88.704,99.222L88.772,98.333L88.84,96.111L88.909,96.333L88.977,96.333L89.046,96.778L89.114,96.667L89.183,96.333L89.251,96.333L89.32,95.778L89.388,97L89.456,98.111L89.525,99.333L89.593,100.667L89.662,101.889L89.73,103.333L89.799,104.333L89.867,105.444L89.936,106.222L90.004,105.222L90.072,105.556L90.141,106L90.209,105.444L90.278,103.667L90.346,102.667L90.415,103.778L90.483,105.889L90.552,106.222L90.62,106.778L90.688,106.111L90.757,105.222L90.825,105.111L90.894,107.111L90.962,107.444L91.031,106.444L91.099,106L91.168,105.667L91.236,105.556L91.304,105L91.373,106.222L91.441,106L91.51,105.778L91.578,105.333L91.647,104.444L91.715,102.667L91.784,101.222L91.852,101.556L91.92,102L91.989,102.889L92.057,103.889L92.126,103.667L92.194,104.444L92.263,105L92.331,106.556L92.4,108.444L92.468,109L92.537,109L92.605,109.444L92.673,109.333L92.742,111.333L92.81,113.222L92.879,115L92.947,115.778L93.016,116L93.084,116.889L93.153,117.333L93.221,118.444L93.289,119.222L93.358,120.222L93.426,120.667L93.495,122.111L93.563,122.889L93.632,124.111L93.7,125.333L93.769,127.556L93.837,129.111L93.905,129.444L93.974,129.556L94.042,129.444L94.111,129.889L94.179,130.111L94.248,130.556L94.316,131.444L94.385,131.889L94.453,131.778L94.521,132.222L94.59,132.778L94.658,133.111L94.727,133.778L94.795,134L94.864,133.889L94.932,133.667L95.001,133.778L95.069,134.222L95.137,134.556L95.206,135L95.274,135.333L95.343,136.444L95.411,137L95.48,137.111L95.548,136.556L95.617,136.889L95.685,136.222L95.822,136.333L95.89,136.556L95.959,136.667L96.03,136.889L96.099,137.333L96.167,137.556L96.235,136.667L96.304,137.222L96.372,137.222L96.441,137.111L96.509,137L96.578,137.778L96.646,137.778L96.715,137.778L96.783,137.667L96.851,137.778L96.92,138L96.988,138.111L97.057,138.444L97.125,138.667L97.194,138.778L97.262,138.889L97.331,139L97.399,138.889L97.467,138.667L97.536,139L97.604,139.111L97.673,139.556L97.741,139.667L97.81,140L97.878,140.111L97.947,139.778L98.015,139.444L98.084,139.333L98.152,139.444L98.22,139.444L98.289,140.444L98.357,140.333L98.426,140.222L98.494,140L98.563,139.889L98.631,139.778L98.7,139.667L98.768,139.667L98.905,139.556L98.973,139.556L99.042,139.889L99.11,139.444L99.316,139.444L99.384,139.556L99.452,139.222L99.521,139.222L99.589,139.556L99.658,139L99.726,139.222L99.795,138.778L99.863,138.556L99.932,138.333L100,137.778L100.068,137.556L100.137,137.111L100.205,137.444L100.274,137.778L100.411,137.778L100.479,137.556L100.548,138L100.616,137.889L100.684,138.111L100.753,138.556L100.821,138.444L100.89,138L100.958,137.889L101.027,138.111L101.095,138.111L101.164,138.333L101.232,138L101.3,137.556L101.369,138L101.437,138L101.506,138L101.574,137.778L101.643,138.111L101.711,137.889L101.78,138.667L101.848,138.111L101.916,138.556L101.985,138.333L102.053,138.778L102.122,139L102.19,139.444L102.259,139.556L102.327,139.222L102.396,139L102.464,138.778L102.533,138.778L102.601,138L102.669,137.222L102.738,136.556L102.806,136.222L102.875,136.556L102.943,137.333L103.012,137.556L103.08,137.556L103.149,137.556L103.285,137.667L103.354,138L103.422,138.111L103.491,138L103.559,137.889L103.628,137.778L103.696,138.444L103.765,138.333L103.833,138.556L103.901,138.667L103.97,139.222L104.038,139L104.107,139.444L104.175,139.333L104.244,139.333L104.312,139.444L104.381,139.889L104.449,140.333L104.517,140.667L104.586,141L104.651,140.889L104.72,141.667L104.788,142.444L104.857,143.222L104.994,143.444L105.062,143.444L105.199,143.444L105.268,143.111L105.336,142.333L105.404,142.333L105.473,142.222L105.541,142.111L105.61,142.111L105.678,142.333L105.815,142.222L105.884,142.222L106.089,142.111L106.157,142L106.226,141.222L106.294,141L106.431,140.556L106.5,140.556L106.568,139.889L106.636,139.222L106.705,139.556L106.773,139.667L106.842,139.222L106.91,138.889L106.979,138.444L107.116,137.889L107.184,137.333L107.252,135.778L107.321,133.778L107.389,132.778L107.458,131.667L107.526,131L107.595,129.889L107.663,129.889L107.732,130.556L107.8,130L107.868,129.667L107.937,129L108.005,128.333L108.074,127.444L108.211,126.556L108.279,125.889L108.348,125L108.416,124.778L108.484,124.444L108.553,124L108.621,123.778L108.69,123.889L108.758,123.778L108.827,123.444L108.895,122.111L108.964,120.889L109.032,119.222L109.101,118.333L109.169,118L109.237,117L109.306,116.444L109.374,113.778L109.443,113.778L109.511,112.444L109.58,111.667L109.648,110.778L109.717,108.556L109.785,105.778L109.853,98.556L109.922,91.889L109.99,87.444L110.059,84.111L110.127,79.778L110.196,75.333L110.264,73L110.333,68.111L110.401,66.222L110.469,63.111L110.538,61.444L110.606,59.778L110.675,59.778L110.743,57.333L110.812,53.889L110.88,51L110.949,48.778L111.017,46.222L111.085,46.667L111.154,45.444L111.222,44.889L111.291,41.889L111.359,36.444L111.428,36.556L111.496,34.444L111.565,33.556L111.633,32.333L111.701,28.778L111.77,26.333L111.838,23.778L111.907,26.667L111.975,30.111L112.044,32.111L112.112,34L112.181,35.444L112.249,33.111L112.317,31.333L112.386,32.222L112.454,30.778L112.523,32.111L112.591,32L112.66,30.444L112.728,25.556L112.797,25.222L112.865,26.556L112.933,25.556L113.002,25.778L113.07,25.556L113.139,23.667L113.207,17.889L113.276,10.667L113.344,10.111L113.413,11.889L113.481,9.444L113.55,9.556L113.618,10.889L113.686,8.778L113.755,10.556L113.823,12.889L113.892,15L113.96,15.222L114.029,15.556L114.097,13.889L114.166,10.444L114.234,8L114.302,11.111L114.371,13.333L114.439,16.111L114.508,18.556L114.576,18.778L114.645,16.778L114.713,17.444L114.782,21.222L114.85,21.667L114.918,22.667L114.987,25.667L115.055,27.889L115.124,30.111L115.192,30.222L115.261,35.667L115.329,42.889L115.398,47L115.466,50.444L115.534,55L115.603,56.333L115.671,55.889L115.74,59.667L115.808,61.778L115.877,64.556L115.945,67.778L116.014,71.556L116.082,74.889L116.15,79.222L116.219,82L116.287,82.444L116.356,86.556L116.424,85.333L116.493,86.111L116.561,86L116.63,84.667L116.698,80L116.766,82.889L116.835,84.778L116.903,86.444L116.972,81.444L117.04,81.667L117.109,79.778L117.177,80.556L117.246,83.556L117.314,84.333L117.383,84.889L117.451,83.667L117.519,78.667L117.588,80.222L117.656,82.778L117.725,84.667L117.793,83.333L117.862,82.667L117.93,82L118.067,79.111L118.135,79.111L118.204,79.222L118.272,77.333L118.341,80L118.478,85.444L118.546,85.556L118.615,85.111L118.683,86.333L118.751,88.333L118.82,90.778L118.888,100L118.957,99.667L119.025,98.444L119.094,98.889L119.162,104.889L119.231,105.667L119.299,106.333L119.436,105.333L119.573,104.111L119.641,105.111L119.71,105.778L119.778,106.889L119.847,112.667L119.915,112.333L119.983,112.111L120.052,112.222L120.12,114.111L120.189,115.111L120.257,115.667L120.326,118.889L120.394,118.222L120.463,117.556L120.531,118.778L120.599,119.111L120.668,118.889L120.736,118.444L120.805,122.556L120.873,122.111L120.945,121.556L121.013,121.889L121.081,121.556L121.15,122L121.218,123L121.287,123.222L121.355,123.444L121.424,124.333L121.492,126.222L121.561,127.889L121.629,129.111L121.697,129.222L121.766,128.778L121.834,129.222L121.903,129.667L121.971,130.111L122.04,130.556L122.108,130.778L122.177,131.778L122.245,132.778L122.313,133.222L122.382,132.889L122.45,134L122.519,134.778L122.587,135.222L122.656,135L122.724,134.778L122.793,134.889L122.861,135L122.93,135.222L122.998,135.222L123.066,135.556L123.135,135.667L123.203,135.667L123.272,135.556L123.34,135.556L123.409,135.778L123.477,135.667L123.546,135.667L123.614,135.333L123.682,135.556L123.751,135.667L123.819,135.556L123.888,135.667L123.956,135.778L124.025,136L124.093,135.333L124.162,134.444L124.23,134.222L124.298,133.667L124.367,133.778L124.435,134L124.504,133.778L124.641,133.333L124.709,133.556L124.778,133.444L124.846,134L124.914,134.222L124.983,134.556L125.12,134.222L125.188,134.333L125.257,134.222L125.325,134.444L125.394,134L125.462,134L125.53,134.111L125.599,134.556L125.667,134.444L125.736,134.667L125.804,135L125.873,135L125.941,135.444L126.01,135.889L126.078,136.556L126.146,136.667L126.215,136.444L126.283,136.778L126.352,137.222L126.42,137L126.489,137.222L126.557,136.556L126.626,135.778L126.694,135.556L126.762,134.889L126.831,134.444L126.899,134.333L126.968,134.444L127.036,134.333L127.105,133.889L127.379,133.556L127.447,132.889L127.515,132L127.584,131.111L127.652,130.889L127.721,130.222L127.789,129L127.926,128L127.995,127.667L128.063,127.333L128.131,126.778L128.2,126.111L128.337,125.222L128.405,123.889L128.542,122.667L128.611,121.333L128.679,120.667L128.816,119.889L128.884,118.889L128.953,118.667L129.021,117.444L129.09,117.667L129.158,117.556L129.227,117.333L129.295,117.556L129.363,118L129.432,117.778L129.5,117.222L129.569,116.333L129.637,114.444L129.706,114.556L129.774,113.778L129.843,114.222L129.911,114.667L129.979,114.889L130.045,115.111L130.114,114.778L130.182,115.222L130.25,114.778L130.319,114.556L130.387,114.222L130.456,113.556L130.524,113.222L130.593,111.444L130.661,111.889L130.73,113.111L130.798,113.333L130.866,113.667L130.935,114.222L131.003,114.222L131.072,114.222L131.14,112.778L131.209,112.889L131.277,113.222L131.346,113.667L131.414,112.444L131.482,112.889L131.551,112.778L131.619,113.778L131.688,115.778L131.756,116L131.825,116.889L131.893,116.667L131.962,117.111L132.03,117.333L132.098,116.778L132.167,117.111L132.235,116L132.304,115.222L132.372,114L132.441,112.667L132.509,110.444L132.578,109.556L132.646,111.111L132.714,109.889L132.783,108.111L132.851,105L132.92,102.667L132.988,101.444L133.057,101L133.125,101L133.194,102.333L133.262,103L133.33,102.889L133.399,101.444L133.467,101.667L133.536,100.333L133.604,100L133.673,98.778L133.741,96.889L133.81,93.556L133.878,92.222L133.946,92L134.015,90.222L134.083,88.111L134.152,87.333L134.22,86.444L134.289,86.778L134.357,86.889L134.426,87.111L134.494,88.778L134.563,90.333L134.631,90L134.699,89.889L134.768,87.333L134.836,86.222L134.905,87.667L134.973,89.111L135.042,89.667L135.11,89L135.179,88.333L135.247,86.444L135.315,84.111L135.384,81.778L135.452,81L135.521,80.778L135.589,82.111L135.658,82.556L135.726,82.222L135.795,82.333L135.863,84.111L135.931,84.444L136,84.667L136.068,85L136.137,85.556L136.205,85.889L136.274,86.222L136.342,86.222L136.411,86.111L136.479,86.111L136.547,85.556L136.616,86.333L136.684,87.111L136.753,86.333L136.821,87.667L136.89,88.556L136.958,89.111L137.027,88.667L137.095,89.333L137.163,88.111L137.232,88.778L137.3,88.333L137.369,88.333L137.437,89.667L137.506,90.889L137.574,91.667L137.643,90.778L137.711,89.444L137.779,88.889L137.848,89.778L137.916,90.333L137.985,89.556L138.053,89.667L138.122,89.333L138.19,89.889L138.259,89.444L138.327,89.444L138.396,89.222L138.464,90.333L138.532,90.778L138.601,89.556L138.669,89.333L138.738,89.444L138.806,90L138.875,89.444L138.943,90.111L139.012,91.222L139.08,92.556L139.148,92.556L139.217,94.222L139.285,94.333L139.354,96.111L139.422,98.111L139.491,98.222L139.559,98.222L139.628,97.222L139.696,97.889L139.764,99.444L139.833,101.667L139.901,101.222L139.97,101.889L140.038,104.222L140.107,102.556L140.175,103L140.244,103.778L140.312,105.333L140.38,106L140.449,106.333L140.517,105.111L140.586,104L140.654,104.444L140.723,103.667L140.791,103.111L140.86,104.444L140.928,106.667L140.996,106.111L141.065,104.778L141.133,102.889L141.202,102.556L141.27,102.333L141.339,102.778L141.407,103L141.476,101.778L141.544,101.667L141.612,101.778L141.681,102.444L141.749,102L141.818,101.556L141.886,100.889L141.955,100.556L142.023,100.333L142.092,99.111L142.16,100.667L142.228,101.333L142.297,101.111L142.365,101.333L142.434,101.778L142.502,102.111L142.571,102.778L142.639,103.889L142.708,104.556L142.776,105.556L142.845,107.556L142.913,107.444L142.981,108L143.05,109.778L143.118,110.222L143.187,112L143.255,112.667L143.324,113.444L143.392,113.667L143.461,114.111L143.529,115.111L143.597,116.222L143.666,116.889L143.734,117L143.803,117.444L143.871,116.889L143.94,117.333L144.008,119L144.077,119.222L144.145,120.222L144.213,121.111L144.282,121.556L144.35,122L144.419,121.889L144.487,122.222L144.556,122.667L144.624,123.889L144.693,124.444L144.761,125.778L144.829,127.222L144.898,127.111L144.966,127.889L145.035,128.444L145.103,128.556L145.172,129.889L145.24,130.778L145.309,131.333L145.377,131.667L145.445,132.444L145.514,132.778L145.582,133.444L145.651,133.333L145.719,133.444L145.788,134.111L145.856,134.111L145.925,135.222L145.993,135.444L146.061,135.556L146.13,135.889L146.198,136.222L146.267,136.111L146.338,136.667L146.407,136.556L146.475,136.778L146.543,136.667L146.612,137L146.68,136.222L146.749,136.333L146.817,136L146.886,135.889L146.954,135.889L147.023,135.889L147.091,135.667L147.159,136L147.228,136.222L147.296,135.889L147.365,135.556L147.433,135.889L147.502,135.333L147.639,135.222L147.707,135.222L147.775,135.556L147.844,136L147.912,136L147.981,136.333L148.049,136.667L148.118,136.889L148.186,137.111L148.255,137.667L148.323,138L148.46,138L148.528,138L148.597,138.444L148.665,138.333L148.734,138.111L148.802,138.111L148.871,138.222L148.939,138.222L149.008,138.444L149.144,138.556L149.213,138.667L149.281,138.556L149.35,139.111L149.418,139L149.487,138.778L149.692,138.667L149.76,138.556L149.829,138L149.897,138.333L149.966,138.778L150.034,138.778L150.103,138.444L150.171,138.333L150.24,138.333L150.308,138.222L150.376,138L150.445,137.778L150.513,137.778L150.582,137.667L150.65,137.444L150.719,137.556L150.787,137.333L150.856,137.333L150.924,137.778L150.992,138.222L151.061,138.222L151.129,138.667L151.198,138.889L151.266,138.778L151.335,138.556L151.403,138.556L151.472,138.778L151.54,138.444L151.608,138.556L151.677,138.667L151.745,139L151.814,139.333L151.882,139.556L152.019,139.111L152.156,138.333L152.225,137.889L152.293,138.333L152.361,137.778L152.43,137.333L152.498,136.222L152.567,136.111L152.635,135.889L152.704,135.889L152.772,135.556L152.841,135.556L152.909,135.778L152.977,135.778L153.046,135.222L153.114,134.333L153.183,133.889L153.251,132.556L153.32,131.667L153.388,131.667L153.457,131.333L153.525,131.111L153.593,130.444L153.662,130.111L153.73,130.111L153.799,129.222L153.867,129L153.936,128.667L154.004,128.333L154.073,128.111L154.141,128.111L154.209,128.667L154.278,127.778L154.346,127.111L154.415,126.444L154.483,126.444L154.552,127.333L154.62,127.444L154.689,127.667L154.757,127.222L154.825,127.667L154.894,127.111L154.96,126.889L155.028,126.333L155.096,126L155.165,126.333L155.233,126L155.302,126.889L155.37,127.556L155.439,127.889L155.507,127.556L155.576,127.778L155.644,128L155.712,127.778L155.781,127.444L155.849,127.333L155.918,126.333L155.986,125.889L156.055,125.444L156.123,125.667L156.192,126.222L156.26,125.444L156.328,125.778L156.397,125.556L156.465,126.222L156.534,126.222L156.602,126.444L156.671,126.333L156.739,126.333L156.808,126.222L156.876,125.333L156.944,124.556L157.013,124L157.081,124.333L157.15,124.667L157.218,123.778L157.287,124L157.355,123.333L157.424,123.556L157.492,122.667L157.56,123.111L157.629,120.778L157.697,120L157.766,118.889L157.834,118.111L157.903,118.111L157.971,118.111L158.04,117.556L158.108,117.889L158.176,117.333L158.245,116.333L158.313,115.444L158.382,115L158.45,113.778L158.519,113.333L158.587,112.222L158.724,110.444L158.792,109.333L158.861,108L158.929,107L158.998,106L159.066,106.222L159.135,106.111L159.203,103L159.272,102.222L159.34,102.222L159.409,102.111L159.477,102L159.545,101.333L159.614,100.889L159.682,99L159.751,99.556L159.819,99.222L159.888,99.111L159.956,98.333L160.025,97.111L160.093,95.778L160.161,95.222L160.23,92.667L160.298,89.222L160.367,85.889L160.435,85.444L160.504,84.111L160.572,84.333L160.641,83.667L160.709,83.222L160.777,82.333L160.846,81.556L160.914,81.222L160.983,80.778L161.051,80.889L161.12,78.111L161.188,76.222L161.257,77.333L161.325,75.889L161.393,73.889L161.462,73.556L161.53,72.222L161.599,71.667L161.667,70.333L161.736,70.667L161.804,71.222L161.873,70.889L161.941,71L162.009,70.111L162.078,69.667L162.146,70.222L162.215,70L162.283,70.111L162.352,71.889L162.42,74.889L162.489,74L162.557,75.111L162.625,74.333L162.694,73.556L162.762,72L162.831,72.222L162.899,72.667L162.968,73.111L163.036,71.778L163.105,71.556L163.173,73.333L163.242,74.333L163.31,75.444L163.378,76.111L163.447,78.444L163.515,76.778L163.584,76.222L163.652,75.889L163.721,76.111L163.789,75.556L163.858,74.333L163.926,72.889L163.994,72L164.063,73.333L164.131,73.889L164.2,73.444L164.268,74.667L164.337,77L164.405,78.222L164.474,77L164.542,76.667L164.61,76.444L164.679,77.333L164.747,78.444L164.816,81.111L164.884,82.333L164.953,83.556L165.021,84.333L165.09,85.889L165.158,76.556L165.226,75.444L165.295,75L165.363,74.889L165.432,74.333L165.5,73.667L165.569,74.778L165.637,75.778L165.706,76.444L165.774,76.667L165.842,76.667L165.911,75.444L165.979,70.111L166.048,70.333L166.116,70.444L166.185,71.444L166.253,73.444L166.322,73.556L166.39,72.667L166.458,72.889L166.527,74.333L166.595,76.333L166.664,76.556L166.732,78L166.801,78.889L166.869,79.222L166.938,80.222L167.006,80L167.074,79.667L167.143,80.667L167.211,91.444L167.28,94.556L167.348,95.778L167.417,96.556L167.485,97.889L167.554,99L167.622,100.222L167.691,101.556L167.759,102.111L167.827,103.222L167.896,105.333L167.964,107.667L168.033,115.556L168.101,116.444L168.17,117.111L168.238,118.111L168.307,118.333L168.375,118.778L168.443,119.556L168.512,119.667L168.58,120.333L168.649,121.111L168.717,122.667L168.786,122.222L168.854,122.222L168.923,122.444L168.991,121.889L169.059,120.778L169.128,120L169.196,119.556L169.265,118.444L169.333,118.222L169.402,117.889L169.47,117L169.539,118L169.607,117.889L169.675,118.333L169.744,118.444L169.812,118.556L169.881,119.333L169.949,119.556L170.018,121L170.086,122.111L170.155,123.444L170.223,124.444L170.291,123.889L170.36,124.111L170.428,124.444L170.497,124.889L170.565,125.889L170.634,126.333L170.702,126.222L170.771,125.889L170.839,126.444L170.907,127L170.976,127.222L171.044,128L171.113,129.889L171.181,131.111L171.253,132L171.321,133.667L171.389,133.444L171.458,134.556L171.526,136L171.595,136.444L171.663,136.667L171.732,136.556L171.8,136.778L171.869,137L171.937,137.111L172.005,137.556L172.074,137.556L172.142,137.333L172.211,137.333L172.279,137.222L172.348,137.667L172.416,137.889L172.485,137.889L172.553,138L172.621,138.111L172.69,138L172.758,138.333L172.827,138.111L172.895,138.222L172.964,137.556L173.032,137.111L173.101,136.778L173.169,136.222L173.238,136.444L173.306,136.556L173.374,135.889L173.443,136.222L173.511,135.889L173.58,135.333L173.648,134.778L173.717,134.889L173.785,135L173.854,135.444L173.922,135.667L173.99,135.778L174.059,135L174.127,134.444L174.196,134.667L174.264,134.667L174.333,134.889L174.401,135L174.538,134.333L174.606,134.333L174.675,134.333L174.743,134.222L174.812,134.333L174.88,134.222L174.949,134.333L175.017,133.667L175.086,133.778L175.154,134.222L175.222,134.444L175.291,135.111L175.359,134.889L175.428,134.778L175.496,135.111L175.565,135.333L175.633,135.222L175.702,135.333L175.77,135.889L175.838,135.444L175.907,134.889L175.975,134.778L176.044,134.556L176.112,133.444L176.181,133.889L176.249,134.111L176.318,133.556L176.386,133.111L176.454,132.778L176.523,132.444L176.591,132.889L176.66,132.556L176.797,132.556L176.865,132.222L176.934,131.889L177.002,132.111L177.07,132.778L177.139,132.778L177.207,133L177.276,133L177.344,132.444L177.413,132L177.481,132.444L177.55,132.333L177.618,131.556L177.687,131.111L177.755,131.778L177.823,132L177.892,131.889L177.96,132.333L178.029,132.667L178.097,132.333L178.166,131.556L178.234,132.333L178.303,132.444L178.371,132L178.439,131.778L178.508,131.778L178.576,131.556L178.645,130.889L178.713,131.111L178.782,131L178.85,130.222L178.919,129.889L178.987,129.667L179.055,129.778L179.124,129.222L179.192,129.444L179.261,129.667L179.329,129.667L179.398,130.222L179.466,129.889L179.535,129.222L179.603,128.889L179.671,129.222L179.74,129.111L179.808,128.333L179.874,127.889L179.942,127.111L180.011,125.667L180.079,124.333L180.148,123.111L180.216,122.889L180.285,122.222L180.353,121.222L180.422,120.889L180.49,120.667L180.558,120.333L180.627,120.333L180.695,121.111L180.764,120.556L180.832,120.556L180.901,121.111L180.969,121.333L181.038,121.111L181.106,121.444L181.174,121.889L181.243,121.889L181.311,121.667L181.38,121L181.448,120.889L181.517,121L181.585,121L181.654,120.111L181.722,118.556L181.79,118.111L181.859,117.667L181.927,116.222L181.996,115.556L182.064,114.111L182.133,114L182.201,113.889L182.27,113.333L182.338,113.111L182.406,113L182.475,113.111L182.543,113.667L182.612,113.778L182.68,112.889L182.749,111.556L182.817,109.667L182.886,109.333L182.954,108L183.022,107.444L183.091,107.556L183.159,106.333L183.228,104.333L183.296,103.333L183.365,101.667L183.433,101.222L183.502,100.444L183.57,99.556L183.638,99L183.707,99L183.775,100.778L183.844,101.667L183.912,101.667L183.981,102.111L184.049,101.444L184.118,102.556L184.186,102.778L184.255,103L184.323,102L184.391,101.333L184.46,101.556L184.528,101.667L184.597,98.667L184.665,95.111L184.734,94.889L184.802,94.778L184.871,95.889L184.939,95.778L185.007,95.778L185.076,94.778L185.144,93.889L185.213,93.778L185.281,93.889L185.35,93.889L185.418,94.444L185.487,93.778L185.555,92L185.623,92.667L185.692,90.222L185.76,87.889L185.829,83.778L185.897,81.222L185.966,80L186.034,78.111L186.103,78.111L186.171,77.889L186.239,77.222L186.308,77.778L186.376,78.889L186.445,80.111L186.513,80L186.582,78.667L186.65,79.889L186.719,81.444L186.787,81.111L186.855,76.667L186.924,74.667L186.992,70.778L187.061,69.222L187.129,67.333L187.198,65.111L187.266,60.889L187.335,60.222L187.403,60L187.471,55.222L187.54,52.111L187.608,48.444L187.677,45.222L187.745,43.333L187.814,45.556L187.882,46.889L187.951,48L188.019,45.222L188.087,43.889L188.156,42.333L188.224,42.889L188.293,44.222L188.361,43.667L188.43,41.667L188.498,38.778L188.567,36.444L188.635,36.667L188.704,37.778L188.772,39.333L188.84,37L188.909,38.778L188.977,38.778L189.046,40L189.114,41.111L189.183,44.667L189.251,48L189.32,52L189.388,50.889L189.456,49.889L189.525,54.889L189.593,59.222L189.662,64.333L189.73,66.778L189.799,71.667L189.867,71.778L189.936,73.222L190.004,73.111L190.072,76.556L190.141,80.444L190.209,82.778L190.278,83.667L190.346,82.778L190.415,83L190.483,85.889L190.552,88.111L190.62,89.556L190.688,90.111L190.757,89.556L190.825,89.778L190.894,91.667L190.962,94.333L191.031,96.222L191.099,98.667L191.168,100.556L191.236,100.556L191.304,100.444L191.373,100.889L191.441,103.667L191.51,105.333L191.578,106.444L191.647,106.333L191.715,107.333L191.784,107.333L191.852,105.333L191.92,104.556L191.989,102.889L192.057,103.444L192.126,104L192.194,104.889L192.263,105.111L192.331,105L192.4,104.556L192.468,104.556L192.537,102.889L192.605,103.889L192.673,104.778L192.742,105.889L192.81,105.889L192.879,102L192.947,102.222L193.016,103.222L193.084,104.111L193.153,104.111L193.221,102.778L193.289,102.333L193.358,101.667L193.426,101.667L193.495,101.333L193.563,100.778L193.632,100.333L193.7,99.444L193.769,99.556L193.837,99.444L193.905,101.333L193.974,103L194.042,106.222L194.111,105.222L194.179,105L194.248,104.111L194.316,104.556L194.385,104.333L194.453,105.444L194.521,105.889L194.59,107.889L194.658,107.444L194.727,107.333L194.795,106.778L194.864,106.556L194.932,110.778L195.001,112.222L195.069,112.333L195.137,112.222L195.206,113.444L195.274,114.778L195.343,115.333L195.411,116.222L195.48,116.889L195.548,117.111L195.617,117.333L195.685,117.667L195.753,119.111L195.822,118.778L195.89,119.444L195.959,120.222L196.027,121L196.096,120.556L196.167,122.333L196.235,123.333L196.304,124.111L196.372,124.222L196.441,125.111L196.509,125.556L196.578,126.333L196.646,126.222L196.715,126.667L196.783,127.556L196.851,127.889L196.92,129.111L196.988,129.333L197.057,130L197.125,130.444L197.194,129.778L197.262,129.222L197.331,129.111L197.399,128.889L197.467,128.889L197.536,129.222L197.604,129.667L197.673,130.333L197.741,130.222L197.81,130.111L197.878,130.556L197.947,131.222L198.015,131.111L198.084,130.222L198.152,129.889L198.22,129.444L198.289,128.778L198.357,128.444L198.426,128.556L198.494,128.111L198.563,127.778L198.631,127.333L198.7,127.222L198.768,127.111L198.836,127.111L198.905,127.556L198.973,127.778L199.042,127.667L199.11,127.778L199.179,127.889L199.247,129.111L199.316,129.667L199.384,129.889L199.452,129.667L199.521,129.667L199.589,128.222L199.658,127.889L199.726,127.222L199.795,126.889L199.863,126.556L199.932,126.333L200,126.222L200.068,125.778L200.137,125.778L200.205,126.111L200.274,126.667L200.342,127L200.411,127L200.479,127.222L200.548,127.556L200.616,127.667L200.684,127.111L200.753,127L200.821,127.111L200.89,126.889L200.958,126.778L201.027,127.333L201.095,127.556L201.164,127L201.232,127L201.3,126.889L201.369,126.556L201.437,126.444L201.506,126.667L201.574,125.667L201.643,126.778L201.711,127.333L201.78,127.222L201.848,127L201.916,127.222L201.985,127.222L202.053,127.222L202.122,127.556L202.19,127.444" stroke="#4c78a8" stroke-width="2"/></g><g class="mark-group role-title"><g transform="translate(100,-17)"><path class="background" aria-hidden="true" d="M0,0h0v0h0Z" pointer-events="none"/><g><g class="mark-text role-title-text" role="graphics-symbol" aria-roledescription="title" aria-label="Title text 'Maintenance or Facility: Garbage or Litter'" pointer-events="none"><text text-anchor="middle" transform="translate(0,10)" font-family="sans-serif" font-size="13px" font-weight="bold" fill="#000" opacity="1">Maintenance or Facility: Garbage or Litter</text></g></g><path class="foreground" aria-hidden="true" d="" pointer-events="none" display="none"/></g></g></g><path class="foreground" aria-hidden="true" d="" display="none"/></g></g></g><defs><clipPath id="clip108"><rect x="0" y="0" width="200" height="150"/></clipPath></defs></svg>