<svg xmlns="http://www.w3.org/2000/svg" xmlns:xlink="http://www.w3.org/1999/xlink" version="1.1" class="marks" width="235" height="194" viewBox="0 0 235 194"><rect width="235" height="194" fill="white"/><g fill="none" stroke-miterlimit="10" transform="translate(29,22)"><g class="mark-group role-frame root" role="graphics-object" aria-roledescription="group mark container"><g transform="translate(0,0)"><path class="background" aria-hidden="true" d="M0,0h200v150h-200Z"/><g><g class="mark-group role-axis" aria-hidden="true"><g transform="translate(0.5,0.5)"><path class="background" aria-hidden="true" d="M0,0h0v0h0Z" pointer-events="none"/><g><g class="mark-rule role-axis-grid" pointer-events="none"><line transform="translate(0,150)" x2="200" y2="0" stroke="#ddd" stroke-width="1" opacity="1"/><line transform="translate(0,107)" x2="200" y2="0" stroke="#ddd" stroke-width="1" opacity="1"/><line transform="translate(0,64)" x2="200" y2="0" stroke="#ddd" stroke-width="1" opacity="1"/><line transform="translate(0,21)" x2="200" y2="0" stroke="#ddd" stroke-width="1" opacity="1"/></g></g><path class="foreground" aria-hidden="true" d="" pointer-events="none" display="none"/></g></g><g class="mark-group role-axis" role="graphics-symbol" aria-roledescription="axis" aria-label="X-axis for a time scale with values from Friday, 01 January 2016, 12:00:00 AM to Monday, 01 January 2024, 12:00:00 AM"><g transform="translate(0.5,150.5)"><path class="background" aria-hidden="true" d="M0,0h0v0h0Z" pointer-events="none"/><g><g class="mark-rule role-axis-tick" pointer-events="none"><line transform="translate(0,0)" x2="0" y2="5" stroke="#888" stroke-width="1" opacity="1"/><line transform="translate(50,0)" x2="0" y2="5" stroke="#888" stroke-width="1" opacity="1"/><line transform="translate(100,0)" x2="0" y2="5" stroke="#888" stroke-width="1" opacity="1"/><line transform="translate(150,0)" x2="0" y2="5" stroke="#888" stroke-width="1" opacity="1"/><line transform="translate(200,0)" x2="0" y2="5" stroke="#888" stroke-width="1" opacity="1"/></g><g class="mark-text role-axis-label" pointer-events="none"><text text-anchor="start" transform="translate(0,15)" font-family="sans-serif" font-size="10px" fill="#000" opacity="1">2016</text><text text-anchor="middle" transform="translate(50.03422313483915,15)" font-family="sans-serif" font-size="10px" fill="#000" opacity="1">2018</text><text text-anchor="middle" transform="translate(100,15)" font-family="sans-serif" font-size="10px" fill="#000" opacity="1">2020</text><text text-anchor="middle" transform="translate(150.03422313483915,15)" font-family="sans-serif" font-size="10px" fill="#000" opacity="1">2022</text><text text-anchor="end" transform="translate(200,15)" font-family="sans-serif" font-size="10px" fill="#000" opacity="1">2024</text></g><g class="mark-rule role-axis-domain" pointer-events="none"><line transform="translate(0,0)" x2="200" y2="0" stroke="#888" stroke-width="1" opacity="1"/></g></g><path class="foreground" aria-hidden="true" d="" pointer-events="none" display="none"/></g></g><g class="mark-group role-axis" role="graphics-symbol" aria-roledescription="axis" aria-label="Y-axis for a linear scale with values from 0 to 350"><g transform="translate(0.5,0.5)"><path class="background" aria-hidden="true" d="M0,0h0v0h0Z" pointer-events="none"/><g><g class="mark-rule role-axis-tick" pointer-events="none"><line transform="translate(0,150)" x2="-5" y2="0" stroke="#888" stroke-opacity="0" stroke-width="1" opacity="1"/><line transform="translate(0,107)" x2="-5" y2="0" stroke="#888" stroke-opacity="0" stroke-width="1" opacity="1"/><line transform="translate(0,64)" x2="-5" y2="0" stroke="#888" stroke-opacity="0" stroke-width="1" opacity="1"/><line transform="translate(0,21)" x2="-5" y2="0" stroke="#888" stroke-opacity="0" stroke-width="1" opacity="1"/></g><g class="mark-text role-axis-label" pointer-events="none"><text text-anchor="end" transform="translate(-7,153)" font-family="sans-serif" font-size="10px" fill="#000" opacity="1">0</text><text text-anchor="end" transform="translate(-7,110.14285714285714)" font-family="sans-serif" font-size="10px" fill="#000" opacity="1">100</text><text text-anchor="end" transform="translate(-7,67.28571428571429)" font-family="sans-serif" font-size="10px" fill="#000" opacity="1">200</text><text text-anchor="end" transform="translate(-7,24.428571428571434)" font-family="sans-serif" font-size="10px" fill="#000" opacity="1">300</text></g></g><path class="foreground" aria-hidden="true" d="" pointer-events="none" display="none"/></g></g><g class="mark-line role-mark marks" clip-path="url(#clip100)" role="graphics-object" aria-roledescription="line mark container"><path aria-label="day: Jan 01, 2010; avg: 5.3" role="graphics-symbol" aria-roledescription="line mark" d="M-149.966,147.729L-149.897,147.686L-149.829,147.714L-149.76,147.643L-149.692,147.571L-149.624,147.586L-149.555,147.471L-149.487,147.5L-149.418,147.543L-149.35,147.586L-149.281,147.614L-149.213,147.629L-149.144,147.6L-149.076,147.571L-149.008,147.529L-148.939,147.529L-148.871,147.686L-148.802,147.743L-148.734,147.729L-148.665,147.686L-148.597,147.6L-148.528,147.571L-148.46,147.629L-148.392,147.771L-148.323,147.8L-148.255,147.786L-148.186,147.843L-148.118,147.686L-148.049,147.486L-147.981,147.529L-147.912,147.614L-147.844,147.629L-147.775,147.671L-147.707,147.629L-147.639,147.429L-147.57,147.214L-147.502,147.2L-147.433,147.043L-147.365,146.957L-147.296,146.914L-147.159,146.857L-147.091,146.814L-147.023,146.8L-146.954,146.714L-146.886,146.543L-146.817,146.229L-146.749,145.786L-146.68,144.829L-146.612,144.471L-146.543,144.457L-146.475,144.514L-146.407,144.5L-146.338,144.257L-146.27,144.243L-146.201,144.214L-146.133,144.186L-146.064,144.129L-145.996,144.329L-145.927,144.3L-145.859,144.043L-145.791,143.457L-145.722,143.143L-145.654,142.5L-145.585,141.943L-145.517,141.943L-145.448,141.743L-145.38,141.429L-145.311,141.543L-145.243,141.3L-145.175,140.586L-145.038,140.357L-144.972,140.271L-144.904,140.014L-144.835,139.686L-144.767,139.857L-144.698,139.957L-144.63,140.086L-144.561,140.743L-144.493,141.014L-144.424,140.771L-144.356,140.529L-144.288,140.229L-144.219,140.043L-144.151,140L-144.082,140.043L-144.014,139.957L-143.945,139.914L-143.877,139.714L-143.808,139.2L-143.74,138.7L-143.672,138.2L-143.603,138.271L-143.535,138.329L-143.466,138.557L-143.398,138.429L-143.329,138.457L-143.261,138.571L-143.192,138.557L-143.124,138.657L-143.056,139.157L-142.987,139.4L-142.919,139.343L-142.85,139.129L-142.782,138.714L-142.713,137.929L-142.645,137.386L-142.576,137.629L-142.508,137.686L-142.44,136.957L-142.371,136.629L-142.303,136.129L-142.234,135.671L-142.166,135.829L-142.097,135.4L-142.029,134.829L-141.96,134.6L-141.892,134.057L-141.824,133.314L-141.755,133.029L-141.687,132.514L-141.618,133.271L-141.55,133.357L-141.481,133.657L-141.413,133.6L-141.344,133.014L-141.276,132.443L-141.208,132.314L-141.139,132.057L-141.071,132.2L-141.002,131.943L-140.934,131.5L-140.865,130.843L-140.797,130.657L-140.728,131.186L-140.66,131.4L-140.591,131.871L-140.523,131.643L-140.455,131.114L-140.386,130.9L-140.318,130.586L-140.249,130.8L-140.181,131.371L-140.112,131.329L-140.044,131.586L-139.975,131.6L-139.907,131.086L-139.839,131.143L-139.77,131.9L-139.702,132.7L-139.633,133.657L-139.565,133.7L-139.496,133.414L-139.428,132.9L-139.359,132.843L-139.291,133.371L-139.223,133.986L-139.154,134.3L-139.086,134.514L-139.017,133.943L-138.949,133.643L-138.88,133.486L-138.812,134.086L-138.743,134.614L-138.675,134.714L-138.607,134.914L-138.538,134.8L-138.47,134.129L-138.401,134.329L-138.333,135.186L-138.264,135.729L-138.196,136.071L-138.127,135.986L-138.059,136.014L-137.991,135.7L-137.922,135.443L-137.854,136.029L-137.785,136.114L-137.717,135.9L-137.648,135.857L-137.58,135.643L-137.511,135.2L-137.443,135.214L-137.375,135.614L-137.306,135.714L-137.238,135.857L-137.169,135.8L-137.101,135.343L-137.032,134.743L-136.964,134.271L-136.895,134.386L-136.827,134.686L-136.758,134.586L-136.69,134.571L-136.622,134.257L-136.553,133.9L-136.485,133.929L-136.416,134.586L-136.348,134.743L-136.279,134.7L-136.211,134.814L-136.142,134.571L-136.074,134.143L-136.006,134.343L-135.937,134.814L-135.869,135.414L-135.8,135.557L-135.732,135.543L-135.663,135.229L-135.595,134.614L-135.526,134.486L-135.458,134.814L-135.39,135.214L-135.321,135.271L-135.253,135.486L-135.184,135.414L-135.116,134.943L-135.047,134.714L-134.979,134.714L-134.91,135.729L-134.842,136.271L-134.774,136.429L-134.705,136.243L-134.637,135.829L-134.568,135.786L-134.5,136.257L-134.431,136.286L-134.363,136.343L-134.294,136.671L-134.226,136.571L-134.158,136.371L-134.089,136.114L-134.021,136.7L-133.952,136.629L-133.884,136.614L-133.815,136.271L-133.747,135.757L-133.678,135.571L-133.61,135.571L-133.542,136.286L-133.473,136.743L-133.405,136.886L-133.336,136.8L-133.268,136.886L-133.199,136.6L-133.131,136.571L-133.062,137.386L-132.994,138.014L-132.926,138.557L-132.857,138.371L-132.789,137.986L-132.72,137.771L-132.652,137.771L-132.583,138.129L-132.515,138.543L-132.446,138.671L-132.378,138.914L-132.309,139.071L-132.241,138.957L-132.173,138.786L-132.104,139.2L-132.036,139.857L-131.967,139.943L-131.899,140.043L-131.83,139.986L-131.762,140.329L-131.693,140.614L-131.625,140.957L-131.557,141.514L-131.488,141.586L-131.42,141.614L-131.351,141.829L-131.283,141.957L-131.214,142.1L-131.146,142.557L-131.077,142.857L-131.009,142.9L-130.941,143.114L-130.872,143.271L-130.804,143.471L-130.735,143.857L-130.667,144.257L-130.598,144.757L-130.53,144.943L-130.461,145.029L-130.393,145.1L-130.325,144.814L-130.256,144.8L-130.188,144.929L-130.119,145.443L-130.051,145.557L-129.982,145.586L-129.914,145.629L-129.845,145.6L-129.777,145.629L-129.709,145.771L-129.64,145.986L-129.572,146.3L-129.503,146.4L-129.435,146.4L-129.366,146.486L-129.298,146.443L-129.229,146.386L-129.161,146.429L-129.093,146.414L-129.024,146.486L-128.956,146.486L-128.887,146.386L-128.819,146.429L-128.75,146.486L-128.679,146.571L-128.611,146.529L-128.542,146.529L-128.474,146.543L-128.405,146.543L-128.337,146.543L-128.268,146.943L-128.2,147.043L-128.131,147.157L-128.063,147.171L-127.995,147.129L-127.926,147.043L-127.858,147.043L-127.789,147.186L-127.721,147.3L-127.652,147.4L-127.584,147.529L-127.515,147.486L-127.447,147.5L-127.379,147.6L-127.31,147.7L-127.242,147.786L-127.173,147.929L-127.105,147.957L-127.036,147.9L-126.968,147.929L-126.899,147.886L-126.831,147.986L-126.762,148.014L-126.694,148.1L-126.626,148.129L-126.557,148.186L-126.489,148.2L-126.42,148.243L-126.352,148.314L-126.283,148.4L-126.215,148.429L-126.146,148.443L-126.078,148.457L-126.01,148.471L-125.941,148.529L-125.873,148.643L-125.804,148.686L-125.736,148.7L-125.667,148.729L-125.599,148.7L-125.53,148.714L-125.462,148.786L-125.394,148.829L-125.257,148.843L-125.12,148.843L-125.051,148.843L-124.983,148.814L-124.914,148.829L-124.846,148.929L-124.778,148.929L-124.709,148.957L-124.641,148.886L-124.572,148.8L-124.504,148.714L-124.435,148.743L-124.367,148.614L-124.162,148.457L-124.093,148.171L-124.025,148.171L-123.956,148.129L-123.888,148.086L-123.819,148.1L-123.751,148.071L-123.682,148.014L-123.614,147.971L-123.546,147.871L-123.477,147.629L-123.409,147.586L-123.34,147.557L-123.203,147.514L-123.135,147.486L-122.93,147.5L-122.724,147.2L-122.656,147.157L-122.587,147.086L-122.519,146.971L-122.45,146.929L-122.313,146.929L-122.245,146.857L-122.177,146.743L-122.108,146.586L-122.04,146.557L-121.971,146.457L-121.903,146.329L-121.834,146.143L-121.766,145.571L-121.697,145.586L-121.629,145.586L-121.561,145.571L-121.492,145.571L-121.424,145.543L-121.355,145.514L-121.287,145.386L-121.218,145.343L-121.15,145.343L-121.081,145.443L-121.013,145.671L-120.945,145.686L-120.876,145.657L-120.808,145.457L-120.739,145.329L-120.671,145.214L-120.602,145.471L-120.534,145.5L-120.465,145.457L-120.397,145.486L-120.329,145.229L-120.26,145.171L-120.192,144.557L-120.123,144.6L-120.058,144.743L-119.989,144.4L-119.921,144.443L-119.852,144.571L-119.784,144.643L-119.715,145.186L-119.647,145.243L-119.578,145.286L-119.51,145.229L-119.373,145.1L-119.305,145.086L-119.236,144.586L-119.168,144.443L-119.099,143.971L-119.031,143.786L-118.962,143.571L-118.894,143.257L-118.826,142.929L-118.757,142.686L-118.689,142.771L-118.62,142.686L-118.552,142.686L-118.483,142.529L-118.415,142.314L-118.346,141.9L-118.278,141.529L-118.21,141.629L-118.141,141.571L-118.073,142.1L-118.004,141.871L-117.936,141.571L-117.867,141.557L-117.799,141.414L-117.73,141.457L-117.662,141.514L-117.594,141.571L-117.525,141.557L-117.457,141.3L-117.388,140.843L-117.32,140.757L-117.251,140.643L-117.183,140.614L-117.114,140.557L-117.046,140.643L-116.978,140.043L-116.909,139.5L-116.841,138.986L-116.772,138.314L-116.704,138.229L-116.635,138.1L-116.567,138.129L-116.498,137.886L-116.43,137.414L-116.362,137.086L-116.293,136.971L-116.225,136.957L-116.156,136.714L-116.088,136.643L-116.019,136.357L-115.951,136.357L-115.882,135.986L-115.814,136.114L-115.745,136.243L-115.677,135.557L-115.609,135.043L-115.54,134.714L-115.472,134.029L-115.403,133.929L-115.335,134.029L-115.266,133.8L-115.198,133.629L-115.129,133.943L-115.061,133.857L-114.993,133.657L-114.924,133.786L-114.856,133.943L-114.787,134.3L-114.719,134.929L-114.65,134.886L-114.582,134.614L-114.513,134.171L-114.445,134.157L-114.377,134.3L-114.308,134.414L-114.24,134.929L-114.171,135.014L-114.103,135.314L-114.034,135.1L-113.966,135.014L-113.897,134.971L-113.829,135.486L-113.761,135.471L-113.692,135.257L-113.624,135.543L-113.555,135.471L-113.487,135.271L-113.418,135.771L-113.35,136L-113.281,136.229L-113.213,136.629L-113.145,136.714L-113.076,136.643L-113.008,136.486L-112.939,136.8L-112.871,137.214L-112.802,137.571L-112.734,137.514L-112.665,137.671L-112.597,137.629L-112.529,137.686L-112.46,137.957L-112.392,138.071L-112.323,138.543L-112.255,138.557L-112.186,137.929L-112.118,137.743L-112.049,137.343L-111.981,137.243L-111.913,137.643L-111.844,137.614L-111.776,137.4L-111.707,136.886L-111.639,136.486L-111.57,136.686L-111.502,137.014L-111.433,137.314L-111.365,137.257L-111.296,137.286L-111.228,137.271L-111.16,136.786L-111.091,136.643L-111.023,136.386L-110.954,136.729L-110.886,136.757L-110.817,136.914L-110.749,136.986L-110.68,137.486L-110.612,137.643L-110.544,137.843L-110.475,138.071L-110.407,138.129L-110.338,137.943L-110.27,137.186L-110.201,136.843L-110.133,136.714L-110.064,136.414L-109.996,136.929L-109.928,137.429L-109.859,137.429L-109.791,137.2L-109.722,136.857L-109.654,137.171L-109.585,137.457L-109.517,137.486L-109.448,137.543L-109.38,137.686L-109.312,137.671L-109.243,137.243L-109.175,137.071L-109.106,137.357L-109.038,137.571L-108.969,137.871L-108.901,137.743L-108.832,137.843L-108.764,137.443L-108.696,137.029L-108.627,136.829L-108.559,136.543L-108.49,136.686L-108.422,136.786L-108.353,136.857L-108.285,137.129L-108.216,137.7L-108.148,138.429L-108.08,139.229L-108.011,139.943L-107.943,139.7L-107.874,139.371L-107.806,138.929L-107.737,139.086L-107.669,139.257L-107.6,139.557L-107.532,139.929L-107.463,140.057L-107.395,140.243L-107.327,140.157L-107.258,140.157L-107.19,140.757L-107.121,140.914L-107.053,141.157L-106.984,141.143L-106.916,141.214L-106.847,141.314L-106.779,141.3L-106.711,141.643L-106.642,142.129L-106.574,142.257L-106.505,142.571L-106.437,142.643L-106.368,142.814L-106.3,143.057L-106.231,143L-106.163,143.1L-106.095,143.057L-106.026,143.029L-105.958,143.1L-105.889,143.2L-105.821,143.443L-105.752,143.943L-105.684,144.329L-105.615,144.729L-105.547,144.871L-105.479,144.9L-105.41,144.771L-105.342,144.671L-105.273,144.714L-105.205,144.971L-105.136,145.057L-105.068,145.271L-104.999,145.229L-104.931,145.257L-104.863,145.2L-104.794,145.386L-104.726,145.657L-104.657,145.686L-104.589,145.657L-104.52,145.557L-104.452,145.329L-104.383,145.3L-104.315,145.3L-104.247,145.3L-104.178,145.5L-104.11,145.586L-104.041,145.614L-103.973,145.629L-103.904,145.657L-103.836,145.8L-103.765,145.857L-103.696,145.929L-103.628,145.857L-103.559,145.9L-103.491,145.929L-103.422,145.943L-103.354,146.1L-103.285,146.229L-103.217,146.4L-103.149,146.286L-103.08,146.243L-103.012,146.286L-102.943,146.386L-102.875,146.5L-102.806,146.671L-102.669,146.671L-102.601,146.629L-102.533,146.686L-102.464,146.829L-102.396,146.986L-102.327,147.243L-102.259,147.286L-102.19,147.286L-102.122,147.2L-102.053,146.986L-101.985,147L-101.916,147.029L-101.848,147.129L-101.78,147.2L-101.711,147.143L-101.643,147.114L-101.574,146.871L-101.506,146.929L-101.437,147.043L-101.369,147.071L-101.3,147.071L-101.232,147.071L-101.164,147.014L-101.095,147.014L-101.027,147.229L-100.958,147.371L-100.89,147.329L-100.821,147.3L-100.753,147.314L-100.684,147.329L-100.616,147.371L-100.548,147.314L-100.479,147.371L-100.411,147.329L-100.342,147.357L-100.274,147.371L-100.205,147.329L-100.137,147.157L-100.068,147.186L-100,147.386L-99.932,147.414L-99.863,147.257L-99.795,147.214L-99.726,147.2L-99.658,147.2L-99.589,147.214L-99.521,147.443L-99.452,147.514L-99.384,147.529L-99.316,147.429L-99.247,147.343L-99.179,147.314L-99.11,147.429L-99.042,147.486L-98.973,147.471L-98.905,147.386L-98.836,147.386L-98.768,147.343L-98.7,147.243L-98.631,147.186L-98.563,147.186L-98.494,147.129L-98.426,147.071L-98.357,146.986L-98.289,146.971L-98.22,146.843L-98.152,146.814L-98.084,146.886L-98.015,146.757L-97.947,146.771L-97.878,146.729L-97.81,146.814L-97.741,146.614L-97.673,146.529L-97.604,146.6L-97.536,146.643L-97.467,146.143L-97.399,145.757L-97.331,145.686L-97.262,145.7L-97.194,145.571L-97.125,145.371L-97.057,145.014L-96.988,144.643L-96.92,144.471L-96.851,144.386L-96.783,144.057L-96.715,143.6L-96.646,143.271L-96.578,143.2L-96.509,142.986L-96.441,142.686L-96.372,142.171L-96.304,141.914L-96.235,141.614L-96.167,141.643L-96.099,141.714L-96.03,141.686L-95.962,141.786L-95.893,141.6L-95.825,141.586L-95.756,141.514L-95.688,141.714L-95.619,141.443L-95.551,141.243L-95.483,141.186L-95.414,141.5L-95.346,141.643L-95.277,141.229L-95.209,141.1L-95.143,141.314L-95.075,141.529L-95.006,141.657L-94.938,141.5L-94.869,141.186L-94.801,140.286L-94.732,139.786L-94.664,139.686L-94.596,139.971L-94.527,140L-94.459,139.957L-94.39,139.9L-94.322,140.429L-94.253,140.829L-94.185,141.014L-94.116,140.757L-94.048,140.686L-93.98,140.557L-93.911,140.486L-93.843,140.314L-93.774,140.314L-93.706,140.171L-93.637,140.129L-93.569,140.343L-93.5,140.157L-93.432,139.714L-93.364,139.571L-93.295,139.643L-93.227,140.129L-93.158,140.229L-93.09,140.186L-93.021,139.671L-92.953,139.343L-92.884,138.843L-92.816,138.971L-92.748,139.929L-92.679,140.4L-92.611,140.714L-92.542,140.114L-92.474,139.643L-92.405,139.086L-92.337,139.486L-92.268,139.371L-92.2,139.057L-92.132,139.143L-92.063,138.929L-91.995,138.114L-91.926,137.243L-91.858,135.929L-91.789,135.871L-91.721,135.6L-91.652,135.457L-91.584,135.314L-91.516,134.943L-91.447,134.786L-91.379,135.143L-91.31,135.357L-91.242,135.329L-91.173,134.829L-91.105,134.186L-91.036,133.129L-90.968,132.586L-90.899,132.829L-90.831,133.771L-90.763,133.829L-90.694,133.386L-90.626,133L-90.557,132.286L-90.489,132.257L-90.42,132.443L-90.352,133L-90.283,132.771L-90.215,132.429L-90.147,132.457L-90.078,131.8L-90.01,131.386L-89.941,132.157L-89.873,132.986L-89.804,134.229L-89.736,133.971L-89.667,133.571L-89.599,133.114L-89.531,132.586L-89.462,132.771L-89.394,132.886L-89.325,132.086L-89.257,131.786L-89.188,131.543L-89.12,131.457L-89.051,131.557L-88.983,132.071L-88.915,132.829L-88.846,132.686L-88.778,132.429L-88.709,132.229L-88.641,131.957L-88.572,132.114L-88.504,133.043L-88.435,133.657L-88.367,134L-88.299,133.943L-88.23,134.014L-88.162,133.8L-88.093,133.043L-88.025,133.586L-87.956,134.243L-87.888,134L-87.819,134.057L-87.751,133.886L-87.683,133.9L-87.614,133.7L-87.546,134.2L-87.477,134.6L-87.409,134.7L-87.34,134.786L-87.272,135.214L-87.203,134.843L-87.135,134.671L-87.067,135.014L-86.998,135.386L-86.93,135.714L-86.861,135.729L-86.793,135.743L-86.724,135.186L-86.656,134.329L-86.587,134.686L-86.519,135.143L-86.45,135.086L-86.382,135.229L-86.314,134.8L-86.245,134.357L-86.177,133.629L-86.108,134.014L-86.04,134.786L-85.971,134.686L-85.903,134.457L-85.834,134.314L-85.766,133.5L-85.698,132.957L-85.629,133.357L-85.561,134.1L-85.492,134.143L-85.424,134.057L-85.355,133.757L-85.287,133.186L-85.218,132.843L-85.15,132.957L-85.082,133.414L-85.013,133.557L-84.945,133.543L-84.876,133.386L-84.808,133.1L-84.739,132.986L-84.671,133.6L-84.602,134.643L-84.534,134.814L-84.466,134.557L-84.397,134.114L-84.329,133.429L-84.26,133.143L-84.192,133.586L-84.123,134.5L-84.055,134.557L-83.986,134.657L-83.918,134.429L-83.85,134.086L-83.781,133.914L-83.713,134.743L-83.644,135.414L-83.576,135.429L-83.507,135.286L-83.439,135.229L-83.37,134.743L-83.302,134.771L-83.234,135.471L-83.165,136.214L-83.097,136.771L-83.028,136.729L-82.96,136.029L-82.891,135.714L-82.823,135.814L-82.754,136.329L-82.686,136.8L-82.617,136.857L-82.549,137.143L-82.481,137.314L-82.412,137.471L-82.344,137.8L-82.275,138.4L-82.207,139.086L-82.138,139.257L-82.07,139.129L-82.001,139.257L-81.933,138.786L-81.865,139.043L-81.796,139.7L-81.728,140.357L-81.659,140.529L-81.591,140.486L-81.522,140.343L-81.454,140.014L-81.385,140.371L-81.317,141.3L-81.249,141.786L-81.18,142.043L-81.112,142.129L-81.043,142.257L-80.975,142.471L-80.906,143.271L-80.838,143.843L-80.769,144.057L-80.701,144.043L-80.633,144.014L-80.564,144.143L-80.496,144.129L-80.427,144.186L-80.359,144.343L-80.29,144.5L-80.222,144.614L-80.153,144.714L-80.085,144.857L-80.017,144.957L-79.948,144.971L-79.88,145.486L-79.811,145.743L-79.743,145.957L-79.674,146L-79.606,146.043L-79.537,146.357L-79.469,146.7L-79.401,147.271L-79.195,147.186L-79.127,147.029L-78.99,146.986L-78.921,146.9L-78.782,146.871L-78.713,146.886L-78.645,146.671L-78.576,146.443L-78.508,146.357L-78.439,146.414L-78.371,146.386L-78.303,146.457L-78.234,146.457L-78.166,146.214L-78.097,146.2L-78.029,146.3L-77.96,146.4L-77.892,146.429L-77.755,146.443L-77.687,146.471L-77.618,146.529L-77.55,146.657L-77.481,146.743L-77.413,146.757L-77.344,146.786L-77.276,146.786L-77.207,146.771L-77.139,146.757L-77.07,146.8L-77.002,146.914L-76.934,147.029L-76.865,147.186L-76.797,147.143L-76.728,147.157L-76.66,147.157L-76.591,147.086L-76.523,147.257L-76.454,147.4L-76.386,147.443L-76.318,147.557L-76.249,147.671L-76.181,147.614L-76.112,147.643L-76.044,147.914L-75.975,147.957L-75.907,147.957L-75.77,147.971L-75.702,147.886L-75.633,147.857L-75.565,147.814L-75.496,147.871L-75.428,147.9L-75.359,147.857L-75.291,147.857L-75.222,147.857L-75.154,147.757L-75.086,147.814L-75.017,147.857L-74.949,147.843L-74.88,147.843L-74.812,147.871L-74.743,147.857L-74.675,147.929L-74.606,147.929L-74.538,147.971L-74.47,148.014L-74.401,148.057L-74.333,148.114L-74.264,148.186L-74.196,148.157L-74.127,148.143L-74.059,148.257L-73.99,148.257L-73.922,148.271L-73.854,148.129L-73.785,148.029L-73.717,147.971L-73.648,148.071L-73.58,148.086L-73.511,148.086L-73.443,148.043L-73.374,147.857L-73.306,147.686L-73.238,147.343L-73.169,147.3L-73.101,147.414L-73.032,147.371L-72.964,147.157L-72.895,147.171L-72.827,147.129L-72.758,147.071L-72.69,147.029L-72.621,146.971L-72.553,147L-72.485,146.957L-72.416,146.957L-72.348,146.714L-72.279,146.457L-72.211,146.429L-72.142,146.357L-72.074,146.357L-72.005,146.314L-71.937,146.186L-71.869,146.057L-71.8,146.114L-71.732,146.2L-71.663,146.229L-71.595,146.143L-71.526,145.957L-71.458,145.957L-71.389,145.857L-71.321,145.671L-71.253,145.843L-71.184,146.1L-71.116,146.043L-71.047,145.929L-70.979,145.714L-70.91,145.543L-70.842,145.3L-70.773,145.243L-70.705,145.243L-70.637,145.3L-70.568,145.271L-70.5,145.1L-70.431,144.957L-70.363,144.757L-70.294,144.714L-70.229,144.229L-70.16,143.914L-70.092,143.9L-70.023,143.929L-69.955,143.471L-69.886,143.2L-69.818,143.071L-69.75,142.971L-69.681,142.386L-69.613,142.243L-69.544,142.029L-69.476,142.014L-69.407,141.886L-69.339,141.9L-69.27,142.229L-69.202,142.086L-69.134,141.971L-69.065,141.543L-68.997,141.071L-68.928,140.843L-68.86,141.186L-68.791,141.329L-68.723,141.214L-68.654,140.814L-68.586,140.514L-68.518,140.171L-68.449,139.914L-68.381,139.971L-68.312,139.957L-68.244,140.157L-68.175,140.586L-68.107,140.171L-68.038,139.757L-67.97,139.214L-67.902,139.6L-67.833,139.9L-67.765,139.943L-67.696,139.8L-67.628,139.457L-67.559,138.986L-67.491,139.171L-67.422,139.043L-67.354,138.343L-67.286,137.814L-67.217,137.543L-67.149,137.643L-67.08,137.714L-67.012,137.714L-66.943,137.014L-66.875,137.343L-66.806,136.957L-66.738,136.529L-66.67,135.843L-66.601,135.2L-66.533,134.629L-66.464,135L-66.396,135.043L-66.327,134.9L-66.259,134.929L-66.19,135.029L-66.122,134.543L-66.054,134.014L-65.985,134.343L-65.917,134.757L-65.848,134.386L-65.78,134.414L-65.711,134.157L-65.643,133.443L-65.574,133.014L-65.506,133.186L-65.437,133.157L-65.369,133.043L-65.301,133.486L-65.232,133.043L-65.164,132.029L-65.095,131.214L-65.027,131.057L-64.958,131.257L-64.89,132.271L-64.821,132.171L-64.753,132.171L-64.685,131.771L-64.616,132L-64.548,132.829L-64.479,133.571L-64.411,133.271L-64.342,133.057L-64.274,132.929L-64.205,132.214L-64.137,131.5L-64.069,132.171L-64,133.314L-63.932,133.243L-63.863,133.257L-63.795,133.614L-63.726,133.271L-63.658,132.957L-63.589,133.7L-63.521,134.686L-63.453,134.843L-63.384,134.614L-63.316,134.671L-63.247,134.657L-63.179,134.9L-63.11,136.071L-63.042,136.829L-62.973,136.729L-62.905,136.886L-62.837,136.543L-62.768,136.1L-62.7,135.986L-62.631,136.786L-62.563,137.086L-62.494,136.929L-62.426,136.943L-62.357,136.771L-62.289,136.529L-62.221,136.2L-62.152,136.814L-62.084,137.229L-62.015,137.1L-61.947,137.029L-61.878,136.986L-61.81,136.371L-61.741,135.743L-61.673,135.957L-61.604,136.586L-61.536,136.629L-61.468,136.657L-61.399,136.357L-61.331,135.914L-61.262,135.786L-61.194,136.029L-61.125,136.614L-61.057,136.457L-60.988,136.457L-60.92,136.371L-60.852,135.514L-60.783,135.586L-60.715,136.043L-60.646,136.443L-60.578,136.429L-60.509,136.543L-60.441,136.3L-60.372,135.871L-60.304,135.571L-60.236,136.014L-60.167,136.514L-60.099,136.529L-60.03,136.6L-59.962,136.571L-59.893,136.029L-59.825,135.686L-59.756,136.343L-59.688,136.929L-59.62,136.871L-59.551,136.971L-59.483,136.9L-59.414,136.729L-59.346,137.014L-59.277,137.771L-59.209,138.1L-59.14,137.929L-59.072,138.114L-59.004,138.2L-58.935,137.786L-58.867,137.8L-58.798,138.729L-58.73,139.143L-58.661,139.057L-58.593,139.043L-58.524,138.957L-58.456,138.571L-58.388,138.686L-58.319,138.9L-58.251,139.557L-58.182,139.771L-58.114,139.657L-58.045,139.686L-57.977,139.457L-57.908,139.586L-57.84,140.257L-57.772,140.786L-57.703,140.829L-57.635,140.843L-57.566,140.9L-57.498,140.6L-57.429,140.557L-57.361,140.957L-57.292,141.271L-57.224,141.2L-57.155,141.186L-57.087,141.243L-57.019,140.929L-56.95,140.843L-56.882,141.329L-56.813,141.714L-56.745,141.757L-56.676,141.8L-56.608,142.029L-56.539,142.086L-56.471,142.2L-56.403,142.771L-56.334,143.257L-56.266,143.543L-56.197,143.671L-56.129,143.729L-56.06,143.714L-55.992,143.929L-55.923,144.343L-55.855,144.471L-55.787,144.6L-55.718,144.686L-55.65,144.743L-55.581,144.657L-55.513,144.829L-55.444,145.171L-55.376,145.557L-55.307,145.657L-55.239,145.643L-55.171,145.643L-55.102,145.529L-55.034,145.757L-54.965,146.129L-54.897,146.443L-54.828,146.514L-54.76,146.514L-54.691,146.529L-54.623,146.457L-54.555,146.557L-54.486,146.614L-54.418,146.757L-54.349,146.843L-54.281,146.871L-54.212,146.757L-54.144,146.757L-54.075,146.714L-54.007,147.029L-53.936,146.986L-53.867,146.971L-53.799,146.914L-53.73,146.914L-53.662,146.871L-53.593,146.771L-53.525,146.971L-53.457,147.071L-53.388,147.071L-53.32,147.043L-53.251,147.029L-53.183,146.957L-53.114,147.057L-53.046,147.386L-52.977,147.471L-52.909,147.486L-52.841,147.457L-52.772,147.457L-52.704,147.329L-52.635,147.157L-52.567,147.3L-52.498,147.243L-52.43,147.229L-52.361,147.186L-52.293,147.129L-52.225,147L-52.156,147.086L-52.088,147.114L-52.019,147.257L-51.951,147.214L-51.882,147.343L-51.814,147.386L-51.745,147.514L-51.677,147.514L-51.608,147.586L-51.54,147.671L-51.472,147.686L-51.403,147.671L-51.335,147.514L-51.266,147.471L-51.198,147.529L-51.129,147.6L-51.061,147.657L-50.992,147.657L-50.924,147.571L-50.856,147.529L-50.787,147.486L-50.719,147.529L-50.65,147.743L-50.582,147.957L-50.513,147.929L-50.445,147.971L-50.376,148.029L-50.308,148.043L-50.24,148.071L-50.171,148.186L-50.103,148.229L-50.034,148.1L-49.966,148.029L-49.897,148.114L-49.829,148.1L-49.76,148.1L-49.555,148.086L-49.487,148.071L-49.418,148.086L-49.35,148.1L-49.281,148.086L-49.213,148.086L-49.144,148.286L-49.076,148.329L-49.008,148.314L-48.939,148.343L-48.871,148.314L-48.802,148.329L-48.734,148.386L-48.665,148.386L-48.597,148.4L-48.528,148.243L-48.46,148.214L-48.323,148.2L-48.255,148.257L-48.186,148.271L-48.118,148.214L-48.049,148.129L-47.981,147.957L-47.912,148L-47.844,147.986L-47.775,148.129L-47.639,148.257L-47.57,148.186L-47.502,147.929L-47.433,147.814L-47.365,147.686L-47.296,147.4L-47.228,147.357L-47.159,147.371L-47.023,147.314L-46.954,146.943L-46.886,146.543L-46.817,146.514L-46.749,146.514L-46.68,146.5L-46.612,146.371L-46.543,146.2L-46.475,145.829L-46.407,145.829L-46.338,145.857L-46.27,145.971L-46.201,145.986L-46.133,145.943L-46.064,145.829L-45.996,145.686L-45.927,145.671L-45.859,145.686L-45.791,145.729L-45.722,145.643L-45.654,145.486L-45.585,145.4L-45.517,145.129L-45.448,144.986L-45.38,145.171L-45.314,145.214L-45.246,145.2L-45.177,145.243L-45.109,144.786L-45.04,144.257L-44.972,143.771L-44.904,143.914L-44.835,144.229L-44.767,144.2L-44.698,144.157L-44.63,144.057L-44.561,143.629L-44.493,143.414L-44.424,143.6L-44.356,143.443L-44.288,143.414L-44.219,143.286L-44.151,143.114L-44.082,142.929L-44.014,142.643L-43.945,142.571L-43.877,142.614L-43.808,142.729L-43.74,142.6L-43.672,142.3L-43.603,142.057L-43.535,141.829L-43.466,141.857L-43.398,141.886L-43.329,141.771L-43.261,141.757L-43.192,141.729L-43.124,141.129L-43.056,140.486L-42.987,140.286L-42.919,140.543L-42.85,140.457L-42.782,140.314L-42.713,140.129L-42.645,139.529L-42.576,138.729L-42.508,138.971L-42.44,138.986L-42.371,138.7L-42.303,138.757L-42.234,138.557L-42.166,138.143L-42.097,136.9L-42.029,135.5L-41.96,135.243L-41.892,135.3L-41.824,135.086L-41.755,134.471L-41.687,134.029L-41.618,133.1L-41.55,132.929L-41.481,132.943L-41.413,132.771L-41.344,132.629L-41.276,132.029L-41.208,130.914L-41.139,129.7L-41.071,130.229L-41.002,131L-40.934,131.443L-40.865,131.429L-40.797,131.486L-40.728,131L-40.66,129.829L-40.591,129.714L-40.523,130.157L-40.455,130.1L-40.386,130.157L-40.318,129.843L-40.249,128.614L-40.181,127.471L-40.112,127.671L-40.044,128.629L-39.975,130.029L-39.907,130.086L-39.839,129.586L-39.77,128.986L-39.702,128.486L-39.633,128.643L-39.565,129.529L-39.496,129.957L-39.428,130.086L-39.359,129.871L-39.291,129.471L-39.223,129.057L-39.154,129.8L-39.086,130.957L-39.017,131.086L-38.949,131.086L-38.88,130.6L-38.812,129.9L-38.743,129.329L-38.675,130L-38.607,131.414L-38.538,131.9L-38.47,131.8L-38.401,131.271L-38.333,130.486L-38.264,130.286L-38.196,131.229L-38.127,132.2L-38.059,132.386L-37.991,132.486L-37.922,132.014L-37.854,131.757L-37.785,131.357L-37.717,131.929L-37.648,132.7L-37.58,132.771L-37.511,132.886L-37.443,132.614L-37.375,132.043L-37.306,131.929L-37.238,132.357L-37.169,133.029L-37.101,133.157L-37.032,133.043L-36.964,132.586L-36.895,131.643L-36.827,131.114L-36.758,131.686L-36.69,132.329L-36.622,132.1L-36.553,131.771L-36.485,131.371L-36.416,130.943L-36.348,130.771L-36.279,131.557L-36.211,132.243L-36.142,132.1L-36.074,132.129L-36.006,131.843L-35.937,131.329L-35.869,131.014L-35.8,131.571L-35.732,132.329L-35.663,132.286L-35.595,132.371L-35.526,132.357L-35.458,131.843L-35.39,131.5L-35.321,131.771L-35.253,132.286L-35.184,132.457L-35.116,132.757L-35.047,132.6L-34.979,132.3L-34.91,132.357L-34.842,133.386L-34.774,134.457L-34.705,134.486L-34.637,134.386L-34.568,134.1L-34.5,134.029L-34.431,134L-34.363,134.743L-34.294,135.586L-34.226,135.714L-34.158,135.671L-34.089,135.771L-34.021,135.286L-33.952,135.114L-33.884,135.814L-33.815,136.586L-33.747,136.586L-33.678,136.757L-33.61,136.214L-33.542,135.3L-33.473,134.9L-33.405,135.443L-33.336,136.143L-33.268,136.429L-33.199,136.457L-33.131,136.229L-33.062,135.729L-32.994,135.543L-32.926,135.929L-32.857,136.329L-32.789,136.2L-32.72,136.014L-32.652,136.214L-32.583,136.029L-32.515,136.271L-32.446,136.586L-32.378,137.043L-32.309,137.057L-32.241,136.971L-32.173,136.571L-32.104,136.5L-32.036,136.757L-31.967,137.471L-31.899,138L-31.83,138.1L-31.762,138.2L-31.693,138.214L-31.625,138L-31.557,138.614L-31.488,139.557L-31.42,140.214L-31.351,140.471L-31.283,140.457L-31.214,140.514L-31.146,140.5L-31.077,140.8L-31.009,141.457L-30.941,142L-30.872,142L-30.804,142.071L-30.735,142.343L-30.667,142.643L-30.598,142.657L-30.53,143.014L-30.461,143.214L-30.393,143.143L-30.325,143.314L-30.256,143.486L-30.188,143.586L-30.119,144.043L-30.051,144.429L-29.982,144.657L-29.914,144.814L-29.845,144.871L-29.777,144.857L-29.709,144.929L-29.64,144.929L-29.572,145.129L-29.503,145.3L-29.435,145.5L-29.366,145.7L-29.298,145.571L-29.229,145.586L-29.161,145.429L-29.093,145.586L-29.021,145.629L-28.953,145.643L-28.884,145.757L-28.816,145.957L-28.747,145.929L-28.679,146L-28.611,146.014L-28.542,146.214L-28.474,146.314L-28.405,146.386L-28.337,146.486L-28.268,146.343L-28.2,146.243L-28.131,146.343L-28.063,146.357L-27.995,146.243L-27.926,146.186L-27.858,146.071L-27.789,146.029L-27.721,145.914L-27.652,145.871L-27.584,146.057L-27.515,146.043L-27.447,145.914L-27.379,145.857L-27.31,145.629L-27.242,145.657L-27.173,145.743L-27.105,146.029L-27.036,145.986L-26.968,145.943L-26.899,145.9L-26.831,145.771L-26.762,145.8L-26.694,145.914L-26.626,145.971L-26.557,146.043L-26.489,145.971L-26.42,145.971L-26.352,146L-26.283,145.957L-26.215,146.1L-26.146,146.243L-26.078,146.329L-26.01,146.386L-25.941,146.543L-25.873,146.529L-25.804,146.6L-25.736,146.7L-25.667,146.8L-25.599,146.857L-25.53,146.886L-25.462,147.043L-25.394,147.186L-25.325,147.2L-25.257,147.457L-25.188,147.586L-25.12,147.614L-25.051,147.614L-24.983,147.686L-24.914,147.729L-24.846,147.786L-24.778,147.943L-24.709,147.971L-24.641,147.986L-24.572,147.957L-24.504,147.986L-24.435,148.057L-24.367,147.957L-24.298,147.914L-24.23,148.014L-24.162,148.1L-24.093,148.143L-24.025,148.1L-23.956,148.114L-23.888,148.1L-23.819,148.171L-23.751,148.214L-23.682,148.229L-23.614,148.3L-23.546,148.314L-23.477,148.371L-23.409,148.271L-23.34,148.343L-23.272,148.343L-23.203,148.3L-23.135,148.257L-23.066,148.171L-22.998,148.157L-22.93,148.186L-22.861,148.243L-22.793,148.114L-22.724,148L-22.656,147.957L-22.587,147.914L-22.519,147.8L-22.45,147.686L-22.382,147.571L-22.313,147.557L-22.245,147.6L-22.177,147.514L-22.108,147.357L-22.04,147.229L-21.971,147.186L-21.903,147.186L-21.834,147.129L-21.766,147.057L-21.697,146.986L-21.629,146.814L-21.561,146.571L-21.492,146.557L-21.424,146.371L-21.355,146.414L-21.287,146.243L-21.218,146.1L-21.081,146.057L-21.013,145.871L-20.945,145.8L-20.876,145.343L-20.808,145.2L-20.739,144.886L-20.671,144.7L-20.602,144.514L-20.534,144L-20.465,143.786L-20.4,143.743L-20.331,143.757L-20.263,143.771L-20.195,143.671L-20.126,143.214L-20.058,142.771L-19.989,142.657L-19.921,142.5L-19.852,142.071L-19.784,141.729L-19.715,141.343L-19.647,140.057L-19.578,139.386L-19.51,139.357L-19.442,139.3L-19.373,139.186L-19.305,139.3L-19.236,139.186L-19.168,138.7L-19.099,138.343L-19.031,138.229L-18.962,137.971L-18.894,137.457L-18.826,137.586L-18.757,137.2L-18.689,136.857L-18.62,136.1L-18.552,135.614L-18.483,135.671L-18.415,135.4L-18.346,134.871L-18.278,134.229L-18.21,133.614L-18.141,132.286L-18.073,132.143L-18.004,132.157L-17.936,132.029L-17.867,131.771L-17.799,131.643L-17.73,131.571L-17.662,130.829L-17.594,131.671L-17.525,132L-17.457,131.971L-17.388,132.086L-17.32,131.714L-17.251,130.929L-17.183,129.857L-17.114,128.3L-17.046,128.186L-16.978,127.943L-16.909,127.886L-16.841,127.871L-16.772,126.957L-16.704,126.643L-16.635,127.2L-16.567,128.243L-16.498,128.686L-16.43,128.7L-16.362,128.671L-16.293,128.6L-16.225,128.286L-16.156,128.514L-16.088,129.7L-16.019,129.657L-15.951,129.486L-15.882,129.186L-15.814,128.071L-15.745,127.457L-15.677,127.7L-15.609,128.629L-15.54,128.9L-15.472,128.986L-15.403,128.457L-15.335,127.743L-15.266,127.086L-15.198,127.271L-15.129,128.257L-15.061,129.743L-14.993,129.929L-14.924,129.343L-14.856,129.271L-14.787,129.229L-14.719,130.014L-14.65,130.214L-14.582,129.457L-14.513,128.871L-14.445,127.9L-14.377,127.343L-14.308,127.143L-14.24,127.443L-14.171,128.186L-14.103,128.471L-14.034,128.557L-13.966,128.4L-13.897,127.829L-13.829,127.429L-13.761,128.557L-13.692,129.443L-13.624,129.2L-13.555,128.857L-13.487,128.186L-13.418,127.429L-13.35,127.114L-13.281,127.6L-13.213,128.557L-13.145,128.929L-13.076,128.457L-13.008,128.371L-12.939,127.414L-12.871,127.471L-12.802,127.543L-12.734,127.657L-12.665,127.529L-12.597,127.743L-12.529,127.929L-12.46,127.657L-12.392,127.914L-12.323,128.629L-12.255,129.086L-12.186,129.143L-12.118,128.814L-12.049,128.214L-11.981,127.314L-11.913,127L-11.844,127.614L-11.776,128.314L-11.707,128.371L-11.639,128.186L-11.57,127.9L-11.502,127.571L-11.433,127.557L-11.365,128.214L-11.296,128.971L-11.228,129.057L-11.16,128.786L-11.091,128.086L-11.023,127.457L-10.954,127.429L-10.886,128.357L-10.817,128.886L-10.749,129.057L-10.68,129.029L-10.612,128.743L-10.544,128.186L-10.475,127.814L-10.407,128.429L-10.338,129.129L-10.27,129.143L-10.201,129.129L-10.133,128.871L-10.064,128.343L-9.996,127.7L-9.928,127.814L-9.859,128.6L-9.791,129.143L-9.722,129.486L-9.654,129.357L-9.585,129.186L-9.517,129.286L-9.448,129.829L-9.38,130.214L-9.312,130.1L-9.243,129.857L-9.175,129.586L-9.106,129.057L-9.038,129.271L-8.969,130.129L-8.901,130.7L-8.832,130.643L-8.764,130.6L-8.696,130.4L-8.627,129.886L-8.559,129.943L-8.49,130.686L-8.422,131.586L-8.353,131.8L-8.285,131.986L-8.216,132.2L-8.148,132.3L-8.08,132.457L-8.011,133.286L-7.943,134.357L-7.874,135.029L-7.806,135.029L-7.737,134.771L-7.669,134.286L-7.6,133.9L-7.532,134.214L-7.463,134.5L-7.395,134.529L-7.327,134.929L-7.258,134.971L-7.19,135.114L-7.121,135.486L-7.053,136.457L-6.984,137.029L-6.916,137.2L-6.847,137.114L-6.779,137.5L-6.711,137.5L-6.642,137.657L-6.574,138.514L-6.505,139.271L-6.437,139.457L-6.368,139.429L-6.3,139.314L-6.231,139.014L-6.163,138.757L-6.095,138.771L-6.026,139L-5.958,139.029L-5.889,139.071L-5.821,138.643L-5.752,138.214L-5.684,138.357L-5.615,138.757L-5.547,139.686L-5.479,140L-5.41,140.2L-5.342,140.386L-5.273,140.329L-5.205,140.614L-5.136,140.743L-5.068,140.8L-4.999,140.786L-4.931,140.871L-4.863,140.957L-4.794,141.157L-4.726,141.1L-4.657,141.543L-4.589,141.829L-4.52,142.014L-4.452,141.771L-4.383,141.514L-4.315,141.414L-4.247,141.443L-4.178,141.8L-4.107,142.057L-4.038,142.286L-3.97,142.443L-3.901,142.557L-3.833,142.657L-3.765,143.057L-3.696,143.614L-3.628,143.571L-3.559,143.4L-3.491,143.229L-3.422,142.957L-3.354,142.214L-3.285,142L-3.217,142.057L-3.149,142.129L-3.08,142.257L-3.012,142.357L-2.943,142.286L-2.875,142.314L-2.806,142.386L-2.738,142.414L-2.669,142.514L-2.601,142.357L-2.533,142.1L-2.464,141.5L-2.396,141.7L-2.327,141.714L-2.259,141.929L-2.19,142.057L-2.122,142.057L-2.053,142.057L-1.985,141.871L-1.916,141.971L-1.848,141.929L-1.78,142.086L-1.711,142.5L-1.643,142.714L-1.574,142.9L-1.506,143.2L-1.437,143.243L-1.369,143.529L-1.3,144.343L-1.232,144.729L-1.164,144.871L-1.095,144.943L-1.027,144.814L-0.958,144.671L-0.89,144.771L-0.821,144.771L-0.753,144.9L-0.684,144.986L-0.616,145.1L-0.548,145.171L-0.479,145.543L-0.411,146.257L-0.342,146.386L-0.274,146.7L-0.205,146.7L-0.137,146.729L-0.068,146.786L0,146.8L0.068,146.8L0.137,146.7L0.205,146.771L0.274,146.771L0.342,146.671L0.411,146.614L0.479,146.529L0.548,146.414L0.616,146.529L0.684,146.629L0.753,146.571L0.821,146.557L0.89,146.457L0.958,146.457L1.027,146.671L1.095,146.871L1.164,146.871L1.232,146.9L1.3,146.829L1.369,146.786L1.437,146.471L1.506,146.257L1.574,146.114L1.643,146.057L1.711,146.071L1.78,145.943L1.848,145.871L1.916,145.657L1.985,145.357L2.053,145.271L2.122,145.371L2.19,145.443L2.259,145.557L2.327,145.5L2.396,145.371L2.464,145.129L2.533,145.086L2.601,144.914L2.669,144.443L2.738,143.414L2.806,142.8L2.875,142.286L2.943,141.971L3.012,142.043L3.08,141.871L3.149,141.743L3.217,141.457L3.285,141.286L3.354,141.157L3.422,140.957L3.491,141.214L3.559,141.357L3.628,140.857L3.696,140.243L3.765,139.643L3.833,139.214L3.901,138.8L3.97,138.971L4.038,139.243L4.107,139.214L4.175,138.771L4.244,138.386L4.312,137.671L4.381,137.6L4.449,137.757L4.517,137.943L4.586,137.929L4.654,138L4.723,138.3L4.791,139.043L4.86,139.486L4.928,139.829L4.994,140.029L5.062,139.743L5.131,139.471L5.199,139.157L5.268,138.529L5.336,137.971L5.404,137.2L5.473,136.714L5.541,136.371L5.61,136.171L5.678,135.4L5.747,135.129L5.815,134.871L5.884,134.957L5.952,135.243L6.02,134.957L6.089,134.714L6.157,134.729L6.226,134.329L6.294,134.343L6.363,134.671L6.431,134.786L6.5,134.757L6.568,134.571L6.636,134.443L6.705,133.986L6.773,133.329L6.842,133.143L6.91,133.014L6.979,132.486L7.047,131.871L7.116,131.657L7.184,131.029L7.252,131.057L7.321,131.757L7.389,132.286L7.458,132.929L7.526,132.929L7.595,131.614L7.663,130.829L7.732,131.043L7.8,131.371L7.868,131.614L7.937,130.557L8.005,129.743L8.074,128.929L8.142,127.8L8.211,126.071L8.279,126.157L8.348,125.757L8.416,125.729L8.484,125.286L8.553,124.729L8.621,123.714L8.69,123.5L8.758,123.429L8.827,123.629L8.895,123.786L8.964,123.457L9.032,122.9L9.101,122.229L9.169,121.243L9.237,121.971L9.306,121.671L9.374,121.143L9.443,120.714L9.511,119.871L9.58,118.686L9.648,118.229L9.717,118.686L9.785,119.4L9.853,119.4L9.922,119.329L9.99,119.771L10.059,119.029L10.127,118.629L10.196,119.557L10.264,121.071L10.333,121.186L10.401,120.943L10.469,120.871L10.538,120.071L10.606,119.014L10.675,119.3L10.743,119.371L10.812,119.286L10.88,119.757L10.949,119.814L11.017,119.586L11.085,119.543L11.154,120.443L11.222,121.3L11.291,121.243L11.359,121.4L11.428,121.2L11.496,120.743L11.565,120.5L11.633,121.786L11.701,123.414L11.77,123.586L11.838,123.614L11.907,123.157L11.975,122.657L12.044,122.2L12.112,123.757L12.181,124.8L12.249,124.871L12.317,124.857L12.386,124.814L12.454,125.086L12.523,124.943L12.591,125.871L12.66,127.014L12.728,127.157L12.797,127L12.865,126.7L12.933,125.143L13.002,124.086L13.07,124.343L13.139,125.071L13.207,125.429L13.276,125.729L13.344,125.671L13.413,125.286L13.481,124.843L13.55,125.529L13.618,126.8L13.686,126.914L13.755,127.086L13.823,126.886L13.892,126.229L13.96,126.7L14.029,127.414L14.097,128.443L14.166,128.114L14.234,128.171L14.302,127.843L14.371,126.629L14.439,126.071L14.508,126.371L14.576,126.543L14.645,126.471L14.713,126.771L14.782,126.757L14.85,126.043L14.918,125.643L14.987,126L15.055,127.014L15.124,127.486L15.192,127.586L15.261,127.2L15.329,126.329L15.398,125.3L15.466,125.7L15.534,126.729L15.603,126.971L15.671,126.586L15.74,126.3L15.808,125.371L15.877,124.871L15.945,125.671L16.014,125.757L16.082,125.643L16.15,125.571L16.219,125.386L16.287,124.886L16.356,124.414L16.424,125.6L16.493,126.6L16.561,126.829L16.63,127.043L16.698,127.386L16.766,126.971L16.835,126.871L16.903,127.714L16.972,128.843L17.04,129.714L17.109,129.543L17.177,128.886L17.246,128.686L17.314,128.971L17.383,129.857L17.451,131.171L17.519,131.286L17.588,131.314L17.656,131.043L17.725,130.6L17.793,130.143L17.862,130.729L17.93,131.329L17.999,131.071L18.067,131.243L18.135,131.129L18.204,131.314L18.272,131.386L18.341,132.114L18.409,133.257L18.478,133.5L18.546,133.729L18.615,133.771L18.683,133.443L18.751,132.871L18.82,133.314L18.888,133.971L18.957,134.1L19.025,134.143L19.094,134.271L19.162,134.057L19.231,134.557L19.299,134.9L19.367,134.943L19.436,135.186L19.504,135.229L19.573,135.514L19.641,135.557L19.71,135.886L19.778,136.686L19.847,137.871L19.915,138.314L19.983,138.757L20.052,138.929L20.12,138.614L20.189,139.214L20.257,139.557L20.326,140.186L20.394,140.286L20.463,140.1L20.531,139.829L20.599,139.414L20.668,139.186L20.736,139.686L20.805,140.329L20.873,140.471L20.942,140.671L21.01,141.014L21.079,141.143L21.147,141.143L21.215,141.814L21.287,142.029L21.355,142.243L21.424,142.4L21.492,142.357L21.561,142.243L21.629,142.257L21.697,142.457L21.766,142.543L21.834,142.671L21.903,142.686L21.971,142.871L22.04,143.029L22.108,143.286L22.177,143.871L22.245,143.8L22.313,143.7L22.382,143.643L22.45,143.557L22.519,143.514L22.587,143.471L22.656,143.857L22.724,144.186L22.793,144.143L22.861,144.071L22.93,144.029L22.998,144L23.066,143.886L23.135,144.057L23.203,144.471L23.272,144.371L23.34,144.486L23.409,144.529L23.477,144.471L23.546,144.5L23.614,144.814L23.682,144.8L23.751,144.914L23.819,144.643L23.888,144.357L23.956,144.186L24.025,144.014L24.093,143.971L24.162,144.129L24.23,144.071L24.298,143.971L24.367,143.829L24.435,143.657L24.504,143.443L24.572,143.714L24.641,144.229L24.709,144.143L24.778,144.114L24.846,144.2L24.914,144.114L24.983,143.971L25.051,144.043L25.12,143.943L25.188,143.871L25.257,143.743L25.325,143.729L25.394,143.671L25.462,143.586L25.53,143.729L25.599,143.729L25.667,143.543L25.736,143.657L25.804,143.6L25.873,143.729L25.941,143.929L26.01,144.114L26.078,144.343L26.146,144.286L26.215,144.114L26.283,144.086L26.352,143.629L26.42,142.886L26.489,142.843L26.557,143.071L26.626,142.757L26.694,142.214L26.762,141.671L26.831,141.186L26.899,141.014L26.968,141.029L27.036,141.114L27.105,140.971L27.173,141.114L27.242,141.186L27.31,141.186L27.379,141.071L27.447,141.086L27.515,141.129L27.584,140.9L27.652,140.886L27.721,140.9L27.789,140.8L27.858,140.314L27.926,140.443L27.995,140.557L28.063,140.6L28.131,140.586L28.2,140.643L28.268,140.471L28.337,140.329L28.405,140.914L28.474,141.571L28.542,141.771L28.611,141.971L28.679,142L28.747,142.114L28.816,142.514L28.884,143.043L28.953,143.171L29.021,143.057L29.09,143.129L29.158,143.286L29.227,143.243L29.295,142.443L29.363,142.257L29.432,142.357L29.5,142.086L29.569,141.957L29.637,142.086L29.706,141.471L29.774,140.7L29.843,140.029L29.908,138.943L29.977,138.329L30.045,137.686L30.114,137.086L30.182,136.471L30.25,134.743L30.319,134.443L30.387,134.4L30.456,134.214L30.524,134.114L30.593,134.014L30.661,133.6L30.73,133.114L30.798,133.2L30.866,133.5L30.935,133.271L31.003,132.886L31.072,131.186L31.14,129.143L31.209,127.8L31.277,127.2L31.346,127.557L31.414,127.486L31.482,127.257L31.551,127.443L31.619,127.214L31.688,126.929L31.756,127.271L31.825,127.657L31.893,128.071L31.962,129.329L32.03,129.529L32.098,129.843L32.167,129.643L32.235,129.943L32.304,130.757L32.372,129.886L32.441,128.6L32.509,127.771L32.578,127.214L32.646,126.657L32.714,126.9L32.783,126.971L32.851,126.771L32.92,126.586L32.988,126.086L33.057,124.943L33.125,125.586L33.194,127.029L33.262,128.114L33.33,128.257L33.399,127.957L33.467,127.314L33.536,125.929L33.604,124.743L33.673,124.771L33.741,124.886L33.81,124.814L33.878,124.686L33.946,123.871L34.015,122L34.083,120.357L34.152,119.986L34.22,120.186L34.289,119.914L34.357,120.314L34.426,120.971L34.494,121.457L34.563,120.343L34.631,120.929L34.699,121L34.768,120.586L34.836,120.543L34.905,120.471L34.973,118.986L35.042,117.571L35.11,118.143L35.179,118.786L35.247,118.557L35.315,117.871L35.384,117.5L35.452,117.1L35.521,116.371L35.589,117.057L35.658,117.014L35.726,116.786L35.795,116.771L35.863,116.486L35.931,115.729L36,114.8L36.068,116.557L36.137,118.157L36.205,118.643L36.274,118.886L36.342,119.2L36.411,118.671L36.479,117.471L36.547,117.957L36.616,119.929L36.684,119.214L36.753,119.343L36.821,119.029L36.89,118.8L36.958,118.686L37.027,120.157L37.095,121.614L37.163,121.857L37.232,121.857L37.3,121.814L37.369,120.743L37.437,119.286L37.506,119.8L37.574,121L37.643,121.586L37.711,122.343L37.779,121.986L37.848,120.786L37.916,119.471L37.985,120.443L38.053,122.486L38.122,121.914L38.19,121.714L38.259,120.886L38.327,119.743L38.396,117.457L38.464,118.086L38.532,119.971L38.601,120L38.669,119.743L38.738,120.343L38.806,119.457L38.875,118.743L38.943,118.929L39.012,119.271L39.08,119L39.148,119.171L39.217,118.729L39.285,118.1L39.354,117.514L39.422,118.714L39.491,121.057L39.559,121.314L39.628,121.443L39.696,120.886L39.764,120.643L39.833,120.343L39.901,120.386L39.97,121.671L40.038,121.9L40.107,121.486L40.175,121.586L40.244,120.814L40.312,120.457L40.38,121.443L40.449,123.629L40.517,123.714L40.586,123.443L40.654,122.714L40.723,121.7L40.791,120.643L40.86,121.614L40.928,122.886L40.996,123.086L41.065,122.8L41.133,122.3L41.202,120.643L41.27,120.171L41.339,121.086L41.407,122.157L41.476,122.7L41.544,122.5L41.612,122.1L41.681,121.657L41.749,121.529L41.818,121.914L41.886,122.743L41.955,123.643L42.023,123.914L42.092,123.157L42.16,122.443L42.228,122.429L42.297,123.743L42.365,124.643L42.434,124.914L42.502,125.2L42.571,125.057L42.639,124.357L42.708,124.086L42.776,125.429L42.845,126.814L42.913,126.886L42.981,126.843L43.05,126.686L43.118,125.986L43.187,125.686L43.255,127.729L43.324,129.271L43.392,129.443L43.461,129.814L43.529,129.657L43.597,128.457L43.666,128.571L43.734,129.314L43.803,130.243L43.871,130.486L43.94,130.757L44.008,130.929L44.077,131.029L44.145,131.471L44.213,132.557L44.282,133.471L44.35,133.471L44.419,133.9L44.487,134.057L44.556,134.029L44.624,134.214L44.693,135.143L44.761,136.586L44.829,136.714L44.898,136.857L44.966,137.143L45.035,137.371L45.103,137.771L45.172,139.071L45.24,140.086L45.309,140.257L45.377,140.314L45.445,140.329L45.514,140.186L45.582,140.343L45.651,141.757L45.719,142.314L45.788,142.3L45.856,142.357L45.925,142.5L45.993,142.214L46.061,142.243L46.13,142.486L46.201,142.9L46.27,143.014L46.338,143L46.407,142.986L46.475,143.014L46.543,142.929L46.612,142.986L46.68,143.171L46.749,143.2L46.817,143.157L46.886,143.129L46.954,143L47.023,142.929L47.091,142.814L47.159,143.071L47.228,142.986L47.296,143.071L47.365,143.043L47.433,142.957L47.502,143.114L47.57,143.257L47.639,143.586L47.707,143.629L47.775,143.771L47.844,143.8L47.912,143.843L47.981,143.986L48.049,144.371L48.118,144.771L48.186,144.771L48.255,144.9L48.323,144.957L48.392,145.057L48.46,145.3L48.528,145.357L48.597,145.4L48.665,145.486L48.734,145.614L48.802,145.586L48.871,145.643L48.939,145.671L49.008,145.771L49.076,145.943L49.144,146.171L49.213,146.257L49.281,146.214L49.35,145.957L49.418,145.657L49.487,145.586L49.555,145.529L49.624,145.571L49.692,145.514L49.76,145.357L49.829,144.886L49.897,144.786L49.966,144.871L50.034,144.8L50.103,144.886L50.171,144.829L50.24,144.871L50.308,144.8L50.376,144.686L50.445,144.6L50.513,144.386L50.582,144.343L50.65,144.371L50.719,144.357L50.787,144.171L50.856,144.114L50.924,144.229L50.992,144.171L51.061,144.1L51.129,143.9L51.198,143.843L51.266,143.7L51.335,143.543L51.403,143.771L51.472,143.186L51.54,142.671L51.608,142.557L51.677,142.443L51.745,142.214L51.814,142.157L51.882,142.457L51.951,142.514L52.019,142.114L52.088,141.671L52.156,141.7L52.225,141.6L52.293,141.543L52.361,141.514L52.43,141.471L52.498,141.571L52.567,141.7L52.635,141.686L52.704,141.329L52.772,140.871L52.841,141.1L52.909,141.143L52.977,141.129L53.046,141.057L53.114,141.043L53.183,141.071L53.251,140.543L53.32,140.514L53.388,140.843L53.457,141L53.525,141.829L53.593,142.371L53.662,141.857L53.73,141.714L53.799,141.729L53.867,141.814L53.936,141.757L54.004,141.657L54.073,141.714L54.141,141.814L54.209,141.3L54.278,141.214L54.346,141.229L54.415,141.257L54.483,141.2L54.552,140.743L54.62,140.371L54.689,140.171L54.757,140.486L54.823,140.757L54.891,140.4L54.96,140.214L55.028,138.457L55.096,137.286L55.165,137.443L55.233,137.571L55.302,138.029L55.37,137.757L55.439,137.557L55.507,137.5L55.576,136.714L55.644,135.757L55.712,136.157L55.781,136.014L55.849,136.071L55.918,135.086L55.986,134.743L56.055,133.814L56.123,133.671L56.192,133.929L56.26,132.929L56.328,130.757L56.397,129.6L56.465,128.286L56.534,126.2L56.602,125.257L56.671,124.9L56.739,124.586L56.808,123.729L56.876,123.486L56.944,122.7L57.013,122.1L57.081,123.214L57.15,123.914L57.218,123.529L57.287,123.229L57.355,122.229L57.424,122L57.492,121.714L57.56,119.786L57.629,119.129L57.697,119.971L57.766,118.786L57.834,117.786L57.903,115.714L57.971,114.843L58.04,114.2L58.108,113.486L58.176,112.914L58.245,112.4L58.313,113.6L58.382,114.971L58.45,114.814L58.519,115.643L58.587,117.4L58.656,118.057L58.724,118.286L58.792,118.029L58.861,117.443L58.929,115.771L58.998,115.386L59.066,115.9L59.135,115.529L59.203,115.557L59.272,114.371L59.34,113.357L59.409,112.029L59.477,110.114L59.545,109.557L59.614,110.829L59.682,111.686L59.751,111.2L59.819,111.743L59.888,112.129L59.956,111.971L60.025,112.957L60.093,113.271L60.161,114.714L60.23,115.171L60.298,114.629L60.367,113.2L60.435,112.757L60.504,113.543L60.572,113.671L60.641,112.886L60.709,112.671L60.777,112.3L60.846,111.329L60.914,111.114L60.983,112.5L61.051,113.357L61.12,113.286L61.188,113.629L61.257,112.971L61.325,112.814L61.393,113L61.462,114.914L61.53,117.3L61.599,117.729L61.667,117.8L61.736,117.271L61.804,117.143L61.873,117.743L61.941,118.429L62.009,120.5L62.078,121.443L62.146,121.757L62.215,121.886L62.283,121.1L62.352,120.314L62.42,121.214L62.489,121.886L62.557,122.143L62.625,121.786L62.694,122.329L62.762,121.6L62.831,121.1L62.899,122.157L62.968,123.529L63.036,123.914L63.105,124.114L63.173,123.843L63.242,123.686L63.31,123.3L63.378,124.557L63.447,125.386L63.515,125.286L63.584,124.8L63.652,124.829L63.721,124.4L63.789,124.629L63.858,124.629L63.926,124.143L63.994,124L64.063,123.471L64.131,122.343L64.2,120.929L64.268,119.3L64.337,119.986L64.405,121.071L64.474,121.557L64.542,121.8L64.61,121.271L64.679,120.343L64.747,119.2L64.816,119.214L64.884,120.314L64.953,120.8L65.021,121.029L65.09,120.429L65.158,119.9L65.226,120.229L65.295,120.957L65.363,122.186L65.432,122.3L65.5,122.214L65.569,121.914L65.637,120.7L65.706,119.543L65.774,120.371L65.842,121.143L65.911,121.386L65.979,121.6L66.048,121.271L66.116,120.443L66.185,120.286L66.253,121.9L66.322,123.7L66.39,123.957L66.458,124.314L66.527,123.871L66.595,122.5L66.664,121.929L66.732,123.043L66.801,124.586L66.869,125.829L66.938,125.643L67.006,125.014L67.074,124.143L67.143,123.871L67.211,124.414L67.28,124.571L67.348,124.014L67.417,124.214L67.485,124.071L67.554,123.671L67.622,124.057L67.691,125.5L67.759,127.1L67.827,127.214L67.896,127.314L67.964,127.514L68.033,127.371L68.101,127.914L68.17,129.371L68.238,130.286L68.307,130.457L68.375,130.457L68.443,130.571L68.512,131.014L68.58,131.4L68.649,133.071L68.717,134.4L68.786,134.357L68.854,134.243L68.923,134.029L68.991,134.157L69.059,134.743L69.128,135.514L69.196,136.543L69.265,136.9L69.333,137.014L69.402,137.529L69.47,137.4L69.539,137.686L69.607,138.214L69.675,138.757L69.744,139.143L69.812,139.271L69.881,139.414L69.949,139.214L70.018,139.386L70.086,140.043L70.155,140.143L70.223,140.371L70.291,140.714L70.36,140.771L70.428,140.771L70.497,140.9L70.565,141L70.634,141.329L70.702,141.5L70.771,141.571L70.839,141.843L70.907,141.957L70.976,142.229L71.044,142.343L71.116,142.386L71.184,142.443L71.253,142.386L71.321,142.314L71.389,142.2L71.458,142.214L71.526,142.443L71.595,142.643L71.663,142.786L71.732,142.771L71.8,142.6L71.869,142.3L71.937,142.214L72.005,142.457L72.074,142.786L72.142,142.786L72.211,142.829L72.279,142.6L72.348,142.271L72.416,142.071L72.485,142.086L72.553,142.071L72.621,142.014L72.69,142.043L72.758,141.8L72.827,141.586L72.895,141.686L72.964,141.843L73.032,141.857L73.101,142.071L73.169,142.186L73.238,142.086L73.306,142.071L73.374,142L73.443,142.2L73.511,142.171L73.58,142.229L73.648,142.229L73.717,142.271L73.785,142.086L73.854,142.071L73.922,142.329L73.99,142.443L74.059,142.486L74.127,142.457L74.196,142.486L74.264,142.571L74.333,142.6L74.401,142.929L74.47,143.186L74.538,143.214L74.606,143.414L74.675,143.329L74.743,143.129L74.812,142.971L74.88,143.071L74.949,143.214L75.017,143.343L75.086,143.657L75.154,143.629L75.222,143.543L75.291,143.5L75.359,143.486L75.428,143.329L75.496,143.329L75.565,143.186L75.633,143.2L75.702,143.043L75.77,142.929L75.838,143.057L75.907,143.314L75.975,143.343L76.044,143.157L76.112,142.971L76.181,142.6L76.249,142.543L76.318,142.614L76.386,142.786L76.454,142.9L76.523,142.8L76.591,142.686L76.66,142.529L76.728,142.414L76.797,142.714L76.865,143.129L76.934,143.271L77.002,143.343L77.07,143.171L77.139,143L77.207,142.871L77.276,142.986L77.344,143.257L77.413,143.486L77.481,143.843L77.55,143.743L77.618,143.5L77.687,143.4L77.755,143.171L77.823,143.243L77.892,143.171L77.96,142.886L78.029,142.3L78.097,141.9L78.166,141.786L78.234,142.086L78.303,142.057L78.371,141.757L78.439,141.086L78.508,140.814L78.576,140.543L78.645,139.914L78.713,139.743L78.782,139.757L78.85,139.571L78.919,139.271L78.987,138.743L79.055,137.571L79.124,137.2L79.192,137.171L79.261,137.143L79.329,136.886L79.398,136.586L79.466,136.457L79.535,134.8L79.603,133.6L79.671,133.171L79.737,133.143L79.805,133.271L79.874,133.157L79.942,132.914L80.011,131.043L80.079,129.471L80.148,129.886L80.216,129.686L80.285,129.271L80.353,129.057L80.422,128.129L80.49,128.071L80.558,126.7L80.627,126.714L80.695,126.7L80.764,125.9L80.832,125.686L80.901,125.643L80.969,125.014L81.038,124.857L81.106,125.5L81.174,125.743L81.243,125.8L81.311,125.586L81.38,125.4L81.448,124.243L81.517,123.914L81.585,124.871L81.654,125.871L81.722,125.871L81.79,125.729L81.859,124.543L81.927,123L81.996,122.886L82.064,124.943L82.133,126.914L82.201,126.271L82.27,125.386L82.338,124.271L82.406,122.157L82.475,119.829L82.543,119.071L82.612,119.814L82.68,119.2L82.749,119.086L82.817,118.829L82.886,117.614L82.954,115.314L83.022,112.486L83.091,112.486L83.159,112.857L83.228,112.943L83.296,111.114L83.365,108.314L83.433,105.643L83.502,106.214L83.57,105.371L83.638,104.914L83.707,104.157L83.775,103.1L83.844,100.471L83.912,98.629L83.981,100.071L84.049,99.757L84.118,99.229L84.186,98.843L84.255,98.057L84.323,96.629L84.391,95.729L84.46,97.371L84.528,100.643L84.597,101.643L84.665,102.114L84.734,101.657L84.802,99.443L84.871,97.157L84.939,97.171L85.007,98.8L85.076,101.171L85.144,100.329L85.213,99.829L85.281,98.957L85.35,98.057L85.418,100.057L85.487,102.543L85.555,102.7L85.623,102.557L85.692,102.429L85.76,102.471L85.829,103.043L85.897,105.271L85.966,107.814L86.034,107.543L86.103,108.214L86.171,107.857L86.239,106.671L86.308,106.429L86.376,108.471L86.445,110.643L86.513,111.3L86.582,111.214L86.65,110.614L86.719,109.486L86.787,109.343L86.855,112.143L86.924,115.5L86.992,116.2L87.061,116.057L87.129,116.086L87.198,115.814L87.266,113.971L87.335,114.229L87.403,116.443L87.471,117.157L87.54,117.143L87.608,116.971L87.677,116.957L87.745,116.729L87.814,117.157L87.882,117.943L87.951,118.586L88.019,118.8L88.087,118.057L88.156,115.8L88.224,114.129L88.293,115.043L88.361,116.257L88.43,116.486L88.498,115.929L88.567,114.914L88.635,113.586L88.704,112.957L88.772,113.714L88.84,114.771L88.909,114.329L88.977,114.3L89.046,113.829L89.114,111.886L89.183,110.529L89.251,111.443L89.32,112.914L89.388,113.243L89.456,112.486L89.525,111.5L89.593,109.743L89.662,107.043L89.73,106.586L89.799,107.171L89.867,107.286L89.936,107.243L90.004,106.743L90.072,104.929L90.141,103.686L90.209,105.371L90.278,107.314L90.346,107.443L90.415,107.486L90.483,107.443L90.552,105.886L90.62,104.529L90.688,105.514L90.757,106.571L90.825,106.771L90.894,106.514L90.962,105.729L91.031,103.357L91.099,102.214L91.168,104.371L91.236,106.357L91.304,106.743L91.373,107.214L91.441,106.057L91.51,105.157L91.578,104.114L91.647,105.843L91.715,108.871L91.784,110.186L91.852,110.943L91.92,110.786L91.989,110.271L92.057,109.271L92.126,110.9L92.194,113.1L92.263,113.486L92.331,113.6L92.4,113.557L92.468,112.443L92.537,111.729L92.605,113.357L92.673,115.086L92.742,115.629L92.81,115.886L92.879,115.843L92.947,115.586L93.016,116.586L93.084,118.643L93.153,121.014L93.221,121.286L93.289,121.357L93.358,120.914L93.426,119.943L93.495,120.771L93.563,122.571L93.632,124.757L93.7,125.1L93.769,125.1L93.837,125.443L93.905,125.129L93.974,125.1L94.042,126.214L94.111,127.171L94.179,127.571L94.248,127.829L94.316,127.9L94.385,128.243L94.453,128.414L94.521,129.514L94.59,130.729L94.658,131.5L94.727,132.114L94.795,131.9L94.864,131.671L94.932,132.029L95.001,132.986L95.069,133.371L95.137,133.886L95.206,133.729L95.274,134.029L95.343,134.257L95.411,135.043L95.48,136.071L95.548,136.671L95.617,136.686L95.685,136.814L95.753,136.943L95.822,137.257L95.89,137.343L95.959,137.857L96.03,138.471L96.099,138.486L96.167,139.043L96.235,139.114L96.304,138.886L96.372,138.671L96.441,138.814L96.509,139.3L96.578,139.8L96.646,139.757L96.715,139.714L96.783,139.586L96.851,139.286L96.92,139.829L96.988,140.071L97.057,140.071L97.125,140.257L97.194,140.386L97.262,140.457L97.331,140.257L97.399,140.286L97.467,140.214L97.536,140.3L97.604,140.143L97.673,140.257L97.741,139.914L97.81,139.786L97.878,140.057L97.947,140.057L98.015,139.586L98.084,139.314L98.152,139.129L98.22,138.843L98.289,138.743L98.357,138.914L98.426,139.3L98.494,139.243L98.563,139.243L98.631,138.657L98.7,137.786L98.768,136.629L98.836,136.757L98.905,137.371L98.973,137.143L99.042,137.114L99.11,137.057L99.179,136.871L99.247,136.543L99.316,136.671L99.384,136.9L99.452,137.029L99.521,136.971L99.589,137.029L99.658,137.029L99.726,136.857L99.795,137.157L99.863,137.343L99.932,137.229L100,137.243L100.068,137.171L100.137,136.829L100.205,136.643L100.274,136.2L100.342,135.986L100.411,135.986L100.479,135.957L100.548,135.943L100.616,135.714L100.684,135.643L100.753,136.543L100.821,137.529L100.89,137.486L100.958,137.471L101.027,137.343L101.095,137.071L101.164,136.614L101.232,136.514L101.3,136.729L101.369,136.543L101.437,136.657L101.506,136.743L101.574,136.414L101.643,135.843L101.711,135.671L101.78,136L101.848,136.043L101.916,136.214L101.985,136.214L102.053,135.943L102.122,135.786L102.19,135.971L102.259,136.1L102.327,136.4L102.396,136.443L102.464,136.371L102.533,135.286L102.601,133.914L102.669,132.871L102.738,132.671L102.806,132.014L102.875,132.129L102.943,131.314L103.012,130.3L103.08,129.086L103.149,129.214L103.217,129.243L103.285,128.857L103.354,128.386L103.422,127.014L103.491,125.729L103.559,125.614L103.628,126.271L103.696,126.557L103.765,126.857L103.833,126.157L103.901,125.014L103.97,124.686L104.038,124.5L104.107,124.529L104.175,125.014L104.244,125.186L104.312,125.143L104.381,125.157L104.449,124.871L104.517,124.029L104.586,124.114L104.651,124.5L104.72,125.071L104.788,125.657L104.857,126.286L104.925,125.657L104.994,125.357L105.062,126.114L105.131,126.771L105.199,126.414L105.268,126.629L105.336,126.829L105.404,127.1L105.473,127.586L105.541,127.986L105.61,128.057L105.678,127.586L105.747,127.7L105.815,127.671L105.884,126.843L105.952,127.714L106.02,127.843L106.089,127.014L106.157,127L106.226,126.957L106.294,126.3L106.363,124.243L106.431,120.714L106.5,120.486L106.568,120.457L106.636,121.057L106.705,120.857L106.773,121.114L106.842,121L106.91,119.129L106.979,119.157L107.047,119.143L107.116,117.714L107.184,117.214L107.252,113.857L107.321,109.186L107.389,106.986L107.458,105.714L107.526,105.557L107.595,105.286L107.663,103.486L107.732,101.586L107.8,100.529L107.868,96.486L107.937,93.886L108.005,90.886L108.074,88.229L108.142,87.329L108.211,85.257L108.279,79.657L108.348,76.343L108.416,77.357L108.484,80.671L108.553,80.286L108.621,79.329L108.69,78.614L108.758,76.857L108.827,72.4L108.895,68.857L108.964,67.314L109.032,64.257L109.101,63.514L109.169,61.343L109.237,57.4L109.306,54.957L109.374,57.086L109.443,56.643L109.511,55.086L109.58,52.814L109.648,49.014L109.717,44.157L109.785,39.071L109.853,37.043L109.922,39.1L109.99,40.771L110.059,41.1L110.127,38.843L110.196,35.314L110.264,30.886L110.333,33.657L110.401,35.557L110.469,34.857L110.538,32.757L110.606,31.129L110.675,29.043L110.743,24.486L110.812,25.643L110.88,28.757L110.949,30.314L111.017,30.6L111.085,32.457L111.154,31.429L111.222,28.843L111.291,31.014L111.359,33.943L111.428,33.771L111.496,33.414L111.565,32.629L111.633,30.114L111.701,27.886L111.77,31.929L111.838,37.429L111.907,40.057L111.975,40.486L112.044,39.4L112.112,36.971L112.181,36.271L112.249,38.714L112.317,43.614L112.386,44.114L112.454,44.429L112.523,43.486L112.591,37.557L112.66,32.6L112.728,34.157L112.797,38.5L112.865,38.1L112.933,36.857L113.002,37.357L113.07,34.171L113.139,28.657L113.207,28.786L113.276,32.929L113.344,34.471L113.413,35.657L113.481,34.086L113.55,30.457L113.618,28.529L113.686,32.643L113.755,37.9L113.823,38.143L113.892,37.643L113.96,34.686L114.029,31.057L114.097,25.814L114.166,28.671L114.234,33.471L114.302,34.443L114.371,34.843L114.439,35.029L114.508,32.414L114.576,28.386L114.645,33.6L114.713,39.957L114.782,40.629L114.85,41.1L114.918,35.157L114.987,33.129L115.055,29.657L115.124,29.2L115.192,34.471L115.261,35.743L115.329,37.843L115.398,36.529L115.466,34.386L115.534,27.2L115.603,32.471L115.671,36.971L115.74,37.471L115.808,36.729L115.877,26.957L115.945,18.6L116.014,14.386L116.082,14.271L116.15,22.3L116.219,22.2L116.287,20.343L116.356,18.943L116.424,14.886L116.493,11.986L116.561,14.729L116.63,21.057L116.698,22.586L116.766,22.314L116.835,16.4L116.903,12.671L116.972,17.5L117.04,20.871L117.109,24.714L117.177,30.171L117.246,31.343L117.314,30.4L117.383,26.557L117.451,25.429L117.519,29.357L117.588,40.057L117.656,39.829L117.725,39.4L117.793,39.957L117.862,40.629L117.93,50.257L117.999,56.371L118.067,62.914L118.135,66.486L118.204,64.471L118.272,63.5L118.341,60.843L118.409,62.3L118.478,67.1L118.546,70.214L118.615,71.1L118.683,71.386L118.751,72.557L118.82,72.586L118.888,78.257L118.957,82.286L119.025,84.829L119.094,79.743L119.162,73.571L119.231,71.5L119.299,68.071L119.367,64.657L119.436,66.5L119.504,69.129L119.573,68.971L119.641,69.671L119.71,70.5L119.778,70.086L119.847,69.643L119.915,70.814L119.983,73.086L120.052,77.457L120.12,78.7L120.189,78.343L120.257,78.486L120.326,80.957L120.394,86.043L120.463,87.614L120.531,87.286L120.599,86.7L120.668,85.271L120.736,84.343L120.805,83.243L120.873,84.414L120.945,85.743L121.013,86.2L121.081,86.414L121.15,92.6L121.218,99.643L121.287,102.4L121.355,106.457L121.424,112.171L121.492,113.843L121.561,114.371L121.629,112.843L121.697,111.114L121.766,109.757L121.834,111.343L121.903,112.029L121.971,112.743L122.04,113.1L122.108,113.029L122.177,113.029L122.245,115L122.313,117.5L122.382,118.429L122.45,118.529L122.519,117.871L122.587,118.386L122.656,120.643L122.724,122.614L122.793,123.357L122.861,124.757L122.93,124.629L122.998,124.557L123.066,123.971L123.135,123.629L123.203,123.771L123.272,124.029L123.34,124.143L123.409,124L123.477,124L123.546,123.929L123.614,123.886L123.682,125.371L123.751,127.243L123.819,129.171L123.888,129.243L123.956,129.1L124.025,128.586L124.093,127.714L124.162,127.186L124.23,127.071L124.298,126.971L124.367,126.957L124.435,126.729L124.504,126.186L124.572,126.871L124.641,127.129L124.709,127.343L124.778,127.486L124.846,127.771L124.914,128.029L124.983,128.486L125.051,128.886L125.12,129.057L125.188,130.129L125.257,130.529L125.325,130.843L125.394,131.214L125.462,130.986L125.53,130.586L125.599,130.914L125.667,131.729L125.736,132.071L125.804,131.5L125.873,131.743L125.941,131.8L126.01,132.129L126.078,132.543L126.146,133.243L126.215,133.686L126.283,133.714L126.352,133.971L126.42,134.1L126.489,134.057L126.557,134.414L126.626,134.629L126.694,134.586L126.762,133.386L126.831,132.771L126.899,131.886L126.968,131.1L127.036,130.586L127.105,130.786L127.173,130.986L127.242,129.3L127.31,128.843L127.379,128.543L127.447,128.414L127.515,128.543L127.584,128.6L127.652,126.429L127.721,125.486L127.789,121.686L127.858,119.143L127.926,118.486L127.995,117.7L128.063,117.829L128.131,117.757L128.2,117.429L128.268,117.471L128.337,117.043L128.405,114.386L128.474,110.043L128.542,108.9L128.611,107.314L128.679,106.971L128.747,105.486L128.816,104.214L128.884,101.371L128.953,100.914L129.021,100.8L129.09,100.786L129.158,100.571L129.227,100.343L129.295,101.486L129.363,99.214L129.432,95.429L129.5,93.714L129.569,91.257L129.637,88.957L129.706,88.757L129.774,86.457L129.843,86.5L129.911,87.057L129.979,87.757L130.045,86.557L130.114,84.129L130.182,83.471L130.25,83.029L130.319,81.086L130.387,77.357L130.456,78.429L130.524,78.657L130.593,79.586L130.661,81.157L130.73,78.971L130.798,76.786L130.866,75.486L130.935,77.786L131.003,77.243L131.072,73.986L131.14,72.629L131.209,71.814L131.277,68.829L131.346,62.057L131.414,62.414L131.482,64.771L131.551,65.957L131.619,66.071L131.688,65.671L131.756,64.186L131.825,65.471L131.893,68.157L131.962,69.143L132.03,67.286L132.098,65.929L132.167,62.686L132.235,57.7L132.304,51.386L132.372,50.757L132.441,51.086L132.509,47.943L132.578,49.329L132.646,45.914L132.714,39.243L132.783,34.029L132.851,36.114L132.92,38L132.988,37.829L133.057,36.857L133.125,40.057L133.194,41.214L133.262,41.7L133.33,41.414L133.399,45.257L133.467,45.057L133.536,45.629L133.604,43.957L133.673,40.329L133.741,35.543L133.81,36.557L133.878,37.4L133.946,36.1L134.015,34.557L134.083,33.171L134.152,31.9L134.22,31.657L134.289,34.8L134.357,39.486L134.426,38.871L134.494,39.414L134.563,39.8L134.631,38.557L134.699,35.7L134.768,40.443L134.836,47.857L134.905,47L134.973,46.486L135.042,44.4L135.11,42.214L135.179,36.7L135.247,34.7L135.315,32.614L135.384,34.3L135.452,36.843L135.521,38.043L135.589,36.743L135.658,34.3L135.726,36.186L135.795,43.4L135.863,45.229L135.931,45.657L136,46.814L136.068,46.3L136.137,43.871L136.205,47.329L136.274,52.257L136.342,52.5L136.411,53.171L136.479,53.9L136.547,54.314L136.616,54.586L136.684,56.357L136.753,61.429L136.821,62.557L136.89,59.886L136.958,59.086L137.027,56.257L137.095,52.843L137.163,55.771L137.232,61.014L137.3,62.357L137.369,64.257L137.437,62.971L137.506,58.329L137.574,54.771L137.643,54.971L137.711,57.857L137.779,60.914L137.848,60.129L137.916,58.357L137.985,53.814L138.053,52.514L138.122,54.657L138.19,59.629L138.259,60.129L138.327,60.014L138.396,59.386L138.464,56.529L138.532,53.643L138.601,55L138.669,57.543L138.738,58.771L138.806,58.757L138.875,57.543L138.943,58.1L139.012,59.771L139.08,63.7L139.148,68.314L139.217,68.457L139.285,67.886L139.354,67.757L139.422,64.886L139.491,62.743L139.559,66.271L139.628,69.6L139.696,71.386L139.764,71.857L139.833,69.343L139.901,66.214L139.97,65.3L140.038,65.914L140.107,66.714L140.175,66.8L140.244,67.029L140.312,65.829L140.38,62.057L140.449,59.014L140.517,62.586L140.586,67.414L140.654,68.343L140.723,68.686L140.791,67.743L140.86,65.243L140.928,62.086L140.996,63.171L141.065,64L141.133,64.014L141.202,66.143L141.27,65.7L141.339,62.586L141.407,59.843L141.476,62L141.544,66.729L141.612,67.557L141.681,68.043L141.749,66.571L141.818,64.029L141.886,61.686L141.955,65.743L142.023,68.586L142.092,72.243L142.16,72.514L142.228,71.786L142.297,69.243L142.365,69.586L142.434,73.086L142.502,77.829L142.571,77.571L142.639,76.271L142.708,73.729L142.776,72.3L142.845,71.714L142.913,75.471L142.981,80.729L143.05,80.614L143.118,80.314L143.187,79.357L143.255,77.714L143.324,78.829L143.392,83L143.461,87.371L143.529,88.043L143.597,88.014L143.666,88.614L143.734,88.014L143.803,87L143.871,90.3L143.94,96.429L144.008,96.886L144.077,97.5L144.145,97.614L144.213,98.271L144.282,96.957L144.35,99.486L144.419,100.129L144.487,101.186L144.556,101.829L144.624,102.357L144.693,103.343L144.761,105.829L144.829,108.443L144.898,110.929L144.966,111.214L145.035,110.7L145.103,111.986L145.172,112.671L145.24,113.8L145.309,115.629L145.377,117.086L145.445,117.714L145.514,116.871L145.582,117.729L145.651,118.243L145.719,117.943L145.788,119.343L145.856,122.129L145.925,122.443L145.993,122.086L146.061,122.029L146.13,121.4L146.198,120.914L146.267,121.457L146.338,124.929L146.407,125.386L146.475,126.471L146.543,126.171L146.612,125.871L146.68,125.971L146.749,126.771L146.817,127.4L146.886,127.186L146.954,126.671L147.023,126.157L147.091,126.4L147.159,126.371L147.228,126.871L147.296,127.914L147.365,128.086L147.433,127.8L147.502,127.5L147.57,127.771L147.639,127.314L147.707,127.486L147.775,128L147.844,128.114L147.912,127.586L147.981,126.729L148.049,126.414L148.118,126.4L148.186,127.557L148.255,128.9L148.323,129.157L148.392,129.014L148.46,129.086L148.528,129.086L148.597,129.729L148.665,130.6L148.734,131.3L148.802,131.271L148.871,131.1L148.939,131.057L149.008,131.257L149.076,131.829L149.144,132.2L149.213,132.343L149.281,132.086L149.35,132L149.418,131.743L149.487,131.929L149.555,132.129L149.624,132.643L149.692,132.986L149.76,132.857L149.829,132.986L149.897,133L149.966,133.671L150.034,134.857L150.103,135.786L150.171,136.086L150.24,135.8L150.308,135.743L150.376,135.814L150.445,135.8L150.513,135.329L150.582,135.171L150.65,135.143L150.719,134.957L150.787,134.214L150.856,133.557L150.924,132.929L150.992,132.971L151.061,133.4L151.129,133.671L151.198,133.671L151.266,133.143L151.335,133.043L151.403,132.886L151.472,132.814L151.54,132.071L151.608,132L151.677,130.871L151.745,130.729L151.814,130.857L151.882,130.457L151.951,129.814L152.019,129.6L152.088,129.114L152.156,128.157L152.225,127.971L152.293,127.671L152.361,127L152.43,123.743L152.498,122.086L152.567,122.543L152.635,122.729L152.704,122.614L152.772,121.5L152.841,121.557L152.909,122.129L152.977,121.986L153.046,121.014L153.114,119.371L153.183,118.086L153.251,114.9L153.32,113.257L153.388,111.986L153.457,111.457L153.525,111.2L153.593,111.771L153.662,111.829L153.73,111.8L153.799,110.557L153.867,109.843L153.936,110.157L154.004,110.843L154.073,110.686L154.141,110.729L154.209,110.986L154.278,109.357L154.346,108.871L154.415,108.971L154.483,111.743L154.552,113.157L154.62,113.214L154.689,110.3L154.757,108.914L154.825,109.357L154.894,108.743L154.96,106.057L155.028,104.914L155.096,104.371L155.165,103.229L155.233,102.6L155.302,104.443L155.37,106.643L155.439,107.971L155.507,107.9L155.576,107.8L155.644,105.371L155.712,102.357L155.781,100.214L155.849,100.886L155.918,100.871L155.986,100.471L156.055,100.071L156.123,98.543L156.192,95.957L156.26,92.8L156.328,93.971L156.397,94.3L156.465,94.014L156.534,91.757L156.602,91.514L156.671,91.271L156.739,92.043L156.808,92.543L156.876,91.771L156.944,90.929L157.013,91.7L157.081,91.986L157.15,90.886L157.218,86.514L157.287,86.671L157.355,86.886L157.424,85.457L157.492,84.486L157.56,84.514L157.629,79.986L157.697,75.357L157.766,76.014L157.834,78.7L157.903,78.4L157.971,78.029L158.04,76.8L158.108,73.643L158.176,68.843L158.245,65.814L158.313,67.671L158.382,67.9L158.45,68.129L158.519,66.429L158.587,63.2L158.656,55.643L158.724,53.929L158.792,55.486L158.861,55.657L158.929,56.243L158.998,55.471L159.066,52.4L159.135,48.514L159.203,49.729L159.272,54.829L159.34,54.986L159.409,55.6L159.477,53.871L159.545,51.629L159.614,47.014L159.682,49.671L159.751,56.457L159.819,58.514L159.888,58.429L159.956,56.843L160.025,52.7L160.093,49.057L160.161,51.5L160.23,56.943L160.298,61.686L160.367,61.886L160.435,59.771L160.504,56.929L160.572,54.314L160.641,54.757L160.709,60.657L160.777,61.971L160.846,58.714L160.914,57.771L160.983,55.8L161.051,54.343L161.12,57.957L161.188,63.3L161.257,64.329L161.325,65.443L161.393,64.671L161.462,61.9L161.53,61.2L161.599,64.214L161.667,68.871L161.736,70.429L161.804,69.757L161.873,68.243L161.941,66.029L162.009,64.629L162.078,68.929L162.146,73.486L162.215,73.714L162.283,73.686L162.352,73.586L162.42,71.914L162.489,68.571L162.557,71.029L162.625,75.529L162.694,80.386L162.762,82L162.831,80.871L162.899,81.157L162.968,79.029L163.036,81.286L163.105,84.943L163.173,85.857L163.242,85.629L163.31,84.1L163.378,81.557L163.447,79.2L163.515,81.3L163.584,84.486L163.652,84.471L163.721,84.029L163.789,82.843L163.858,79.6L163.926,77.7L163.994,80.086L164.063,83.7L164.131,84.071L164.2,83.786L164.268,82.943L164.337,80.957L164.405,78.029L164.474,80.429L164.542,85.829L164.61,85.8L164.679,85.314L164.747,84.114L164.816,81.586L164.884,80.157L164.953,82.114L165.021,86.2L165.09,86.786L165.158,87.029L165.226,85.671L165.295,82.729L165.363,82.014L165.432,84.557L165.5,88.857L165.569,89.271L165.637,88.957L165.706,87.214L165.774,84.243L165.842,83.057L165.911,86.957L165.979,90.4L166.048,90.314L166.116,90.414L166.185,90L166.253,88.943L166.322,87.943L166.39,90.329L166.458,94.014L166.527,94.343L166.595,94.229L166.664,93.629L166.732,93.843L166.801,94.143L166.869,97.4L166.938,100.6L167.006,102.129L167.074,100.229L167.143,98.629L167.211,97.743L167.28,97.9L167.348,100.729L167.417,102.129L167.485,102.257L167.554,102.329L167.622,101.929L167.691,100.886L167.759,100.929L167.827,104.643L167.896,107.757L167.964,108.114L168.033,108.057L168.101,107.343L168.17,105.471L168.238,105.414L168.307,107.286L168.375,109.5L168.443,109.243L168.512,109.314L168.58,108.914L168.649,107.943L168.717,105.7L168.786,106.029L168.854,106.686L168.923,105.786L168.991,105.2L169.059,104.029L169.128,102.414L169.196,101.743L169.265,101.871L169.333,103.557L169.402,104.343L169.47,105.257L169.539,105.686L169.607,104.486L169.675,104.929L169.744,106.971L169.812,109.314L169.881,109.9L169.949,110.1L170.018,109.829L170.086,109.943L170.155,111.086L170.223,113.157L170.291,113.957L170.36,113.857L170.428,113.4L170.497,113.8L170.565,113.971L170.634,114.471L170.702,115.7L170.771,119.157L170.839,119.729L170.907,120.214L170.976,120.829L171.044,120.786L171.113,121.614L171.181,124.914L171.253,127.514L171.321,128.4L171.389,128.4L171.458,128.286L171.526,128.214L171.595,128.071L171.663,129.5L171.732,130.414L171.8,130.557L171.869,130.443L171.937,130.343L172.005,129.843L172.074,129.657L172.142,129.671L172.211,129.857L172.279,129.829L172.348,129.829L172.416,130.3L172.485,131.343L172.553,131.829L172.621,132.143L172.69,132.686L172.758,132.814L172.827,132.257L172.895,131.357L172.964,131.171L173.032,129.943L173.101,130.1L173.169,130.057L173.238,130.071L173.306,129.9L173.374,129.957L173.443,129.914L173.511,129.529L173.58,130.171L173.648,130.457L173.717,130.471L173.785,130.3L173.854,130.014L173.922,129.9L173.99,129.957L174.059,130.214L174.127,130.843L174.196,131.057L174.264,131.014L174.333,130.843L174.401,130.714L174.47,130.486L174.538,130.214L174.606,130.357L174.675,130.3L174.743,130.043L174.812,129.629L174.88,129.357L174.949,128.843L175.017,129.129L175.086,130.657L175.154,131.157L175.222,131.086L175.291,131.3L175.359,131.414L175.428,130.457L175.496,130.586L175.565,131.143L175.633,130.643L175.702,130.071L175.77,129.029L175.838,128.786L175.907,128.371L175.975,128.357L176.044,127.857L176.112,127.486L176.181,126.5L176.249,126.443L176.318,126.171L176.386,125.971L176.454,125.714L176.523,125.843L176.591,126.114L176.66,126.1L176.728,126.129L176.797,125.986L176.865,125.986L176.934,126.986L177.002,128.457L177.07,128.743L177.139,128.657L177.207,128.171L177.276,128.471L177.344,127.1L177.413,126.443L177.481,127.157L177.55,126.771L177.618,126.557L177.687,126.929L177.755,127.157L177.823,126.843L177.892,127.1L177.96,127.686L178.029,127.886L178.097,127.486L178.166,126.871L178.234,126.871L178.303,125.786L178.371,125.929L178.439,125.757L178.508,125.886L178.576,125.286L178.645,124.371L178.713,123.7L178.782,121.229L178.85,121.086L178.919,121.2L178.987,120.643L179.055,120.386L179.124,119.643L179.192,118.257L179.261,117.943L179.329,117.771L179.398,118.171L179.466,118.629L179.535,117.414L179.603,117.7L179.671,117.229L179.74,116.257L179.808,115.957L179.874,115.871L179.942,112.643L180.011,109.543L180.079,106.057L180.148,104.071L180.216,102.471L180.285,102.971L180.353,104.057L180.422,103.4L180.49,103.529L180.558,102.157L180.627,101.2L180.695,100.257L180.764,100.471L180.832,102.357L180.901,102.3L180.969,102.443L181.038,102.486L181.106,102.8L181.174,103.171L181.243,103.3L181.311,103.371L181.38,103.457L181.448,103.886L181.517,102.186L181.585,100.343L181.654,95.586L181.722,94.714L181.79,95.214L181.859,94.8L181.927,94.629L181.996,94.857L182.064,94.471L182.133,93.971L182.201,95.586L182.27,97.329L182.338,97.486L182.406,97.5L182.475,96.886L182.543,96.343L182.612,94.886L182.68,94.1L182.749,95L182.817,95.071L182.886,94.929L182.954,93.457L183.022,91.243L183.091,88.186L183.159,85.843L183.228,85.486L183.296,86.243L183.365,86.171L183.433,85.171L183.502,84.014L183.57,84.2L183.638,86.386L183.707,90.886L183.775,92.171L183.844,92.043L183.912,91.886L183.981,90.571L184.049,89.586L184.118,92.629L184.186,95.629L184.255,96.443L184.323,96.557L184.391,95.157L184.46,92.957L184.528,91.029L184.597,90.443L184.665,93.086L184.734,94.886L184.802,94.843L184.871,94.029L184.939,92.729L185.007,91.543L185.076,93.3L185.144,96.329L185.213,97.786L185.281,97.457L185.35,96.429L185.418,94.514L185.487,93.771L185.555,94.4L185.623,93.129L185.692,92.914L185.76,93L185.829,92.357L185.897,91.686L185.966,91.771L186.034,93.871L186.103,97.214L186.171,96.771L186.239,96.757L186.308,96.114L186.376,95.914L186.445,96.057L186.513,97.6L186.582,100.6L186.65,101.914L186.719,102.157L186.787,101.543L186.855,99.986L186.924,98.343L186.992,99.614L187.061,102.557L187.129,102.814L187.198,102.714L187.266,102.071L187.335,101.129L187.403,99.343L187.471,101.057L187.54,102.686L187.608,103.414L187.677,105.714L187.745,106.186L187.814,104.3L187.882,101.657L187.951,102.443L188.019,103.129L188.087,103.457L188.156,104.014L188.224,103.7L188.293,102.686L188.361,101.714L188.43,101.971L188.498,102.886L188.567,103.186L188.635,102.843L188.704,101.686L188.772,100.1L188.84,97.8L188.909,99.586L188.977,102.057L189.046,102.086L189.114,102.129L189.183,101.443L189.251,99.857L189.32,98.5L189.388,99.514L189.456,102.414L189.525,103.086L189.593,102.871L189.662,101.871L189.73,100.229L189.799,98.514L189.867,98.8L189.936,101.614L190.004,101.586L190.072,101.571L190.141,101.186L190.209,99.929L190.278,100.057L190.346,101.671L190.415,103.186L190.483,103.614L190.552,103.643L190.62,102.986L190.688,101.343L190.757,100.743L190.825,102.457L190.894,105.057L190.962,104.771L191.031,104.329L191.099,103.871L191.168,103.386L191.236,103.829L191.304,106.029L191.373,108.414L191.441,108.771L191.51,108.714L191.578,108.757L191.647,107.8L191.715,105.657L191.784,106.686L191.852,108.629L191.92,110.129L191.989,110.343L192.057,109.971L192.126,109.4L192.194,108.7L192.263,109.8L192.331,110.814L192.4,110.786L192.468,110.771L192.537,109.571L192.605,109.557L192.673,109.714L192.742,111.729L192.81,113.443L192.879,112.971L192.947,112.771L193.016,113.471L193.084,113.2L193.153,113.871L193.221,114.3L193.289,114.643L193.358,113.929L193.426,113.557L193.495,112.714L193.563,110.643L193.632,109.757L193.7,111.214L193.769,113.814L193.837,114.871L193.905,115.757L193.974,116.014L194.042,115.471L194.111,114.614L194.179,115.514L194.248,117L194.316,117.186L194.385,116.886L194.453,116.843L194.521,116.957L194.59,118.071L194.658,118.529L194.727,119.629L194.795,119.9L194.864,120.086L194.932,119.057L195.001,119.486L195.069,119.071L195.137,120.2L195.206,120.914L195.274,120.871L195.343,120.8L195.411,121.271L195.48,121.914L195.548,123.086L195.617,125.571L195.685,126.8L195.753,126.929L195.822,127.671L195.89,127.629L195.959,127L196.027,126.914L196.096,127.8L196.167,129.4L196.235,129.629L196.304,129.557L196.372,129.229L196.441,128.643L196.509,128.571L196.578,128.971L196.646,129.143L196.715,129.143L196.783,128.657L196.851,128.414L196.92,128.043L196.988,129.457L197.057,130.143L197.125,130.786L197.194,130.629L197.262,130.486L197.331,130.757L197.399,130.7L197.467,130L197.536,129.557L197.604,129.571L197.673,129.643L197.741,129.543L197.81,128.886L197.878,128.543L197.947,128.314L198.015,128.471L198.084,128.857L198.152,129.114L198.22,129.3L198.289,129.2L198.357,129.329L198.426,129.743L198.494,130.614L198.563,131.257L198.631,130.871L198.7,131.086L198.768,130.871L198.836,131.243L198.905,131.429L198.973,132.071L199.042,132.657L199.11,132.6L199.179,132.657L199.247,132.7L199.316,132.914L199.384,132.986L199.452,133.386L199.521,134.114L199.589,134.614L199.658,134.586L199.726,134.129L199.795,133.1L199.863,133.529L199.932,133.957L200,134.414L200.068,134.843L200.137,134.743L200.205,134.529L200.274,134.086L200.342,133.671L200.411,133.629L200.479,133.657L200.548,133.4L200.616,132.929L200.684,132.771L200.753,131.929L200.821,131.471L200.89,131.4L200.958,131.614L201.027,131.786L201.095,131.629L201.164,131.5L201.232,131.286L201.3,131.2L201.369,131.029L201.437,130.957L201.506,130.157L201.574,130.086L201.643,129.614L201.711,129.486L201.78,129.643L201.848,130.643L201.916,130.857L201.985,130.857L202.053,130.629L202.122,130.357L202.19,130.314L202.259,127.8L202.327,128.514" stroke="#4c78a8" stroke-width="2"/></g><g class="mark-group role-title"><g transform="translate(100,-17)"><path class="background" aria-hidden="true" d="M0,0h0v0h0Z" pointer-events="none"/><g><g class="mark-text role-title-text" role="graphics-symbol" aria-roledescription="title" aria-label="Title text 'Noise - Vehicle: Car/Truck Music'" pointer-events="none"><text text-anchor="middle" transform="translate(0,10)" font-family="sans-serif" font-size="13px" font-weight="bold" fill="#000" opacity="1">Noise - Vehicle: Car/Truck Music</text></g></g><path class="foreground" aria-hidden="true" d="" pointer-events="none" display="none"/></g></g></g><path class="foreground" aria-hidden="true" d="" display="none"/></g></g></g><defs><clipPath id="clip100"><rect x="0" y="0" width="200" height="150"/></clipPath></defs></svg>