<svg xmlns="http://www.w3.org/2000/svg" xmlns:xlink="http://www.w3.org/1999/xlink" version="1.1" class="marks" width="398" height="194" viewBox="0 0 398 194"><rect width="398" height="194" fill="white"/><g fill="none" stroke-miterlimit="10" transform="translate(99,22)"><g class="mark-group role-frame root" role="graphics-object" aria-roledescription="group mark container"><g transform="translate(0,0)"><path class="background" aria-hidden="true" d="M0,0h200v150h-200Z"/><g><g class="mark-group role-axis" aria-hidden="true"><g transform="translate(0.5,0.5)"><path class="background" aria-hidden="true" d="M0,0h0v0h0Z" pointer-events="none"/><g><g class="mark-rule role-axis-grid" pointer-events="none"><line transform="translate(0,150)" x2="200" y2="0" stroke="#ddd" stroke-width="1" opacity="1"/><line transform="translate(0,119)" x2="200" y2="0" stroke="#ddd" stroke-width="1" opacity="1"/><line transform="translate(0,87)" x2="200" y2="0" stroke="#ddd" stroke-width="1" opacity="1"/><line transform="translate(0,56)" x2="200" y2="0" stroke="#ddd" stroke-width="1" opacity="1"/><line transform="translate(0,25)" x2="200" y2="0" stroke="#ddd" stroke-width="1" opacity="1"/></g></g><path class="foreground" aria-hidden="true" d="" pointer-events="none" display="none"/></g></g><g class="mark-group role-axis" role="graphics-symbol" aria-roledescription="axis" aria-label="X-axis for a time scale with values from Friday, 01 January 2016, 12:00:00 AM to Monday, 01 January 2024, 12:00:00 AM"><g transform="translate(0.5,150.5)"><path class="background" aria-hidden="true" d="M0,0h0v0h0Z" pointer-events="none"/><g><g class="mark-rule role-axis-tick" pointer-events="none"><line transform="translate(0,0)" x2="0" y2="5" stroke="#888" stroke-width="1" opacity="1"/><line transform="translate(50,0)" x2="0" y2="5" stroke="#888" stroke-width="1" opacity="1"/><line transform="translate(100,0)" x2="0" y2="5" stroke="#888" stroke-width="1" opacity="1"/><line transform="translate(150,0)" x2="0" y2="5" stroke="#888" stroke-width="1" opacity="1"/><line transform="translate(200,0)" x2="0" y2="5" stroke="#888" stroke-width="1" opacity="1"/></g><g class="mark-text role-axis-label" pointer-events="none"><text text-anchor="start" transform="translate(0,15)" font-family="sans-serif" font-size="10px" fill="#000" opacity="1">2016</text><text text-anchor="middle" transform="translate(50.03422313483915,15)" font-family="sans-serif" font-size="10px" fill="#000" opacity="1">2018</text><text text-anchor="middle" transform="translate(100,15)" font-family="sans-serif" font-size="10px" fill="#000" opacity="1">2020</text><text text-anchor="middle" transform="translate(150.03422313483915,15)" font-family="sans-serif" font-size="10px" fill="#000" opacity="1">2022</text><text text-anchor="end" transform="translate(200,15)" font-family="sans-serif" font-size="10px" fill="#000" opacity="1">2024</text></g><g class="mark-rule role-axis-domain" pointer-events="none"><line transform="translate(0,0)" x2="200" y2="0" stroke="#888" stroke-width="1" opacity="1"/></g></g><path class="foreground" aria-hidden="true" d="" pointer-events="none" display="none"/></g></g><g class="mark-group role-axis" role="graphics-symbol" aria-roledescription="axis" aria-label="Y-axis for a linear scale with values from 0 to 24"><g transform="translate(0.5,0.5)"><path class="background" aria-hidden="true" d="M0,0h0v0h0Z" pointer-events="none"/><g><g class="mark-rule role-axis-tick" pointer-events="none"><line transform="translate(0,150)" x2="-5" y2="0" stroke="#888" stroke-opacity="0" stroke-width="1" opacity="1"/><line transform="translate(0,119)" x2="-5" y2="0" stroke="#888" stroke-opacity="0" stroke-width="1" opacity="1"/><line transform="translate(0,87)" x2="-5" y2="0" stroke="#888" stroke-opacity="0" stroke-width="1" opacity="1"/><line transform="translate(0,56)" x2="-5" y2="0" stroke="#888" stroke-opacity="0" stroke-width="1" opacity="1"/><line transform="translate(0,25)" x2="-5" y2="0" stroke="#888" stroke-opacity="0" stroke-width="1" opacity="1"/></g><g class="mark-text role-axis-label" pointer-events="none"><text text-anchor="end" transform="translate(-7,153)" font-family="sans-serif" font-size="10px" fill="#000" opacity="1">0</text><text text-anchor="end" transform="translate(-7,121.75)" font-family="sans-serif" font-size="10px" fill="#000" opacity="1">5</text><text text-anchor="end" transform="translate(-7,90.49999999999999)" font-family="sans-serif" font-size="10px" fill="#000" opacity="1">10</text><text text-anchor="end" transform="translate(-7,59.25)" font-family="sans-serif" font-size="10px" fill="#000" opacity="1">15</text><text text-anchor="end" transform="translate(-7,27.999999999999993)" font-family="sans-serif" font-size="10px" fill="#000" opacity="1">20</text></g></g><path class="foreground" aria-hidden="true" d="" pointer-events="none" display="none"/></g></g><g class="mark-line role-mark marks" clip-path="url(#clip110)" role="graphics-object" aria-roledescription="line mark container"><path aria-label="day: Jan 01, 2010; avg: 3.23333333333" role="graphics-symbol" aria-roledescription="line mark" d="M-149.966,129.792L-149.829,129.167L-149.76,129.583L-149.692,129.583L-149.624,130.833L-149.555,131.667L-149.487,130.833L-149.418,131.667L-149.35,131.875L-149.281,131.667L-149.213,130.833L-149.144,129.375L-149.076,127.292L-149.008,126.458L-148.939,126.875L-148.871,127.292L-148.802,126.875L-148.597,126.042L-148.528,126.25L-148.392,126.25L-148.323,125.833L-148.255,125.208L-148.186,125.208L-148.118,125L-148.049,123.958L-147.981,124.792L-147.912,124.375L-147.844,125.417L-147.775,124.167L-147.707,124.792L-147.639,124.583L-147.57,124.167L-147.502,125L-147.433,124.583L-147.365,123.958L-147.296,123.542L-146.886,124.167L-146.817,123.958L-146.749,123.542L-146.68,123.958L-146.612,125L-146.543,126.25L-146.475,127.292L-146.407,127.5L-146.338,127.292L-146.27,127.292L-146.201,128.125L-145.722,128.958L-145.517,128.333L-145.448,128.75L-145.38,129.583L-145.311,129.792L-145.243,130.208L-145.175,130L-145.106,131.042L-145.038,130.833L-144.972,131.25L-144.904,130.833L-144.835,131.458L-144.767,131.042L-144.698,131.042L-144.63,132.083L-144.561,132.083L-144.493,132.083L-144.424,132.5L-144.356,133.333L-144.288,133.542L-144.151,133.125L-144.082,133.542L-144.014,133.333L-143.945,133.125L-143.877,133.125L-143.808,134.167L-143.74,134.375L-143.672,135L-143.603,135.208L-143.466,134.375L-143.398,133.958L-143.329,134.167L-143.261,133.958L-143.192,133.542L-143.124,134.167L-143.056,134.167L-142.987,134.792L-142.919,134.792L-142.85,135L-142.782,135L-142.713,135L-142.645,135.417L-142.576,136.042L-142.508,135.833L-142.44,134.792L-142.371,135.208L-142.303,135L-142.097,135L-142.029,134.583L-141.96,134.583L-141.892,135.208L-141.824,134.375L-141.755,134.792L-141.687,135.208L-141.618,135.208L-141.55,134.583L-141.481,135L-141.344,135L-141.276,135L-141.208,135.625L-141.071,135.833L-141.002,136.25L-140.865,136.667L-140.797,136.667L-140.728,136.875L-140.66,135.833L-140.523,135.417L-140.455,135.417L-140.386,135L-140.318,134.583L-140.249,135L-140.181,135.208L-140.112,134.792L-140.044,135L-139.975,136.042L-139.907,136.042L-139.839,136.458L-139.77,136.667L-139.633,137.083L-139.565,136.042L-139.496,135.833L-139.428,136.042L-139.359,136.042L-139.291,136.042L-139.154,136.042L-139.086,136.458L-138.949,136.667L-138.88,136.667L-138.812,136.042L-138.675,136.25L-138.607,135.625L-138.538,135.417L-138.47,135L-138.401,135.208L-138.333,135L-138.196,136.042L-138.127,136.25L-138.059,136.042L-137.991,136.458L-137.854,136.667L-137.717,136.458L-137.648,136.25L-137.511,136.458L-137.375,136.458L-137.169,136.458L-137.101,135.417L-137.032,135.208L-136.964,135L-136.895,134.792L-136.827,135.625L-136.758,135.833L-136.69,136.25L-136.622,136.25L-136.553,136.25L-136.485,136.25L-136.348,135.208L-136.279,134.792L-136.211,134.583L-136.142,134.375L-136.074,133.958L-136.006,133.75L-135.937,133.542L-135.869,133.958L-135.8,133.542L-135.732,133.333L-135.663,133.125L-135.595,132.917L-135.526,132.917L-135.321,132.917L-135.253,133.125L-135.184,132.917L-135.116,132.917L-134.979,132.292L-134.91,132.083L-134.842,131.875L-134.705,132.708L-134.637,132.917L-134.568,133.125L-134.5,133.333L-134.431,133.333L-134.294,132.917L-134.226,132.5L-134.158,132.708L-134.089,131.25L-134.021,131.458L-133.884,132.708L-133.815,132.292L-133.747,131.458L-133.678,131.875L-133.61,131.458L-133.542,132.292L-133.473,132.5L-133.405,132.5L-133.336,132.083L-133.268,131.667L-133.199,131.042L-133.062,130L-132.789,130.208L-132.72,129.792L-132.652,129.792L-132.583,129.792L-132.446,130L-132.378,130.833L-132.309,131.25L-132.241,131.25L-132.173,131.25L-132.104,131.042L-132.036,130.208L-131.967,130.208L-131.899,130.417L-131.83,130.833L-131.762,130.833L-131.693,130.417L-131.625,131.042L-131.557,130.625L-131.488,130.417L-131.42,131.042L-131.351,131.25L-131.283,131.042L-131.214,131.875L-131.146,131.875L-131.077,131.042L-131.009,130.833L-130.941,131.458L-130.872,131.042L-130.804,131.667L-130.735,133.125L-130.667,132.5L-130.598,132.917L-130.461,132.5L-130.393,132.708L-130.325,131.875L-130.256,128.958L-130.188,128.75L-130.119,128.542L-130.051,128.75L-129.982,128.75L-129.914,128.958L-129.845,128.542L-129.777,128.542L-129.709,127.917L-129.64,128.125L-129.572,127.5L-129.503,125L-129.435,125L-129.366,125L-129.298,122.917L-129.229,123.542L-129.161,123.333L-129.093,123.333L-128.887,122.708L-128.819,122.5L-128.75,122.5L-128.679,122.917L-128.542,123.333L-128.474,122.5L-128.337,120.833L-128.268,120.625L-128.131,120L-128.063,119.792L-127.995,120L-127.926,120.208L-127.858,122.917L-127.789,123.125L-127.721,123.333L-127.652,121.875L-127.584,122.083L-127.379,122.708L-127.242,123.125L-127.173,121.667L-127.105,119.375L-127.036,117.5L-126.968,117.292L-126.899,120.625L-126.831,119.792L-126.762,118.75L-126.694,120.833L-126.626,120.208L-126.557,118.958L-126.489,119.167L-126.42,118.333L-126.283,118.333L-126.215,116.667L-126.146,116.25L-126.078,116.042L-126.01,116.25L-125.941,115.417L-125.804,115L-125.736,114.375L-125.667,113.333L-125.599,113.125L-125.53,113.75L-125.462,113.75L-123.409,113.333L-123.34,112.917L-123.272,113.958L-122.519,112.917L-122.382,111.667L-122.313,111.042L-122.245,112.5L-122.177,115.417L-122.108,117.5L-122.04,117.917L-121.971,117.708L-121.903,118.333L-121.834,119.583L-121.766,119.375L-121.697,119.792L-121.629,121.458L-121.561,120.833L-121.355,121.667L-121.287,122.5L-121.218,123.542L-121.15,123.75L-121.081,123.542L-120.945,123.958L-120.876,125.625L-120.808,126.875L-120.739,127.708L-120.671,128.542L-120.602,128.542L-120.534,127.708L-120.465,127.292L-120.397,127.292L-120.329,127.708L-120.26,127.917L-120.192,128.958L-120.123,129.792L-120.058,129.792L-119.989,129.167L-119.921,128.125L-119.852,127.083L-119.784,127.708L-119.715,127.083L-119.647,127.708L-119.578,127.292L-119.51,127.292L-119.442,127.083L-119.373,127.083L-119.305,127.5L-119.236,128.333L-119.168,128.542L-119.099,128.958L-119.031,128.75L-118.962,129.792L-118.894,128.958L-118.826,128.75L-118.757,128.542L-118.689,128.958L-118.62,129.583L-118.552,128.958L-118.483,129.792L-118.415,129.375L-118.346,129.167L-118.278,129.167L-118.21,129.375L-118.141,129.583L-118.073,129.583L-118.004,129.583L-117.936,129.167L-117.867,130.208L-117.799,131.042L-117.73,130.833L-117.662,131.458L-117.594,131.042L-117.525,130.833L-117.457,130.417L-117.388,130.833L-117.32,131.25L-117.251,130.625L-117.183,129.167L-117.114,128.75L-117.046,129.167L-116.978,129.583L-116.909,129.792L-116.841,130.625L-116.772,130.208L-116.704,130L-116.635,130L-116.567,128.958L-116.498,128.958L-116.43,127.083L-116.362,127.292L-116.293,127.083L-116.225,126.875L-116.156,126.042L-116.088,125.625L-116.019,124.792L-115.951,124.792L-115.882,125.625L-115.814,125.208L-115.677,125.208L-115.609,125.417L-115.54,125.625L-115.472,124.583L-115.403,124.583L-115.335,125.208L-115.266,125.417L-115.198,125.208L-115.129,126.042L-115.061,126.667L-114.856,126.875L-114.787,126.458L-114.65,126.25L-114.582,126.25L-114.513,126.667L-114.445,127.917L-114.377,127.917L-114.24,127.292L-114.171,127.917L-114.103,128.333L-114.034,130.208L-113.897,129.583L-113.829,130L-113.761,129.375L-113.692,130.208L-113.624,130.208L-113.555,131.042L-113.487,131.667L-113.418,130.417L-113.35,130.417L-113.281,130L-113.213,129.583L-113.145,128.958L-113.076,130.208L-113.008,130.417L-112.939,129.583L-112.871,128.75L-112.802,128.75L-112.734,128.125L-112.665,128.75L-112.597,128.125L-112.529,128.333L-112.46,128.125L-112.323,127.5L-112.255,127.292L-112.186,127.083L-112.118,127.292L-112.049,127.083L-111.981,126.875L-111.913,127.083L-111.844,127.083L-111.776,127.292L-111.707,127.292L-111.57,128.125L-111.502,126.25L-111.433,126.042L-111.365,126.042L-111.296,123.75L-111.228,125L-111.16,124.167L-111.091,124.375L-111.023,124.583L-110.954,123.75L-110.886,123.958L-110.817,123.542L-110.749,124.583L-110.68,125.208L-110.612,124.375L-110.475,122.5L-110.407,122.708L-110.338,122.917L-110.27,120.833L-110.201,120.208L-110.133,120L-110.064,119.583L-109.996,119.583L-109.928,119.792L-109.859,120.208L-109.791,120L-109.722,119.375L-109.654,118.542L-109.585,118.125L-109.517,117.917L-109.448,117.708L-109.38,119.375L-109.312,118.75L-109.243,118.958L-109.175,120.417L-109.106,119.792L-109.038,120.625L-108.969,120.417L-108.901,120.625L-108.832,121.458L-108.764,121.458L-108.422,120.833L-107.943,119.375L-107.874,119.375L-107.806,119.583L-107.669,121.458L-107.6,121.25L-107.532,121.25L-107.463,122.917L-107.395,123.125L-107.327,123.958L-107.258,123.958L-107.19,124.375L-107.121,123.125L-107.053,122.708L-106.984,123.125L-106.916,122.708L-106.847,123.125L-106.779,124.167L-106.711,124.375L-106.642,123.958L-106.574,123.125L-106.505,122.917L-106.437,122.083L-106.368,122.708L-106.3,122.5L-106.231,121.875L-106.163,121.667L-106.095,121.458L-106.026,121.042L-105.958,120.417L-105.889,121.25L-105.821,122.708L-105.752,122.292L-105.684,122.292L-105.615,122.708L-105.547,122.917L-105.479,123.542L-105.41,123.542L-105.342,123.542L-105.273,122.292L-105.205,121.042L-105.136,118.542L-105.068,118.125L-104.999,117.917L-104.931,117.917L-104.863,117.708L-104.794,116.875L-104.726,117.5L-104.657,117.708L-104.589,118.542L-104.52,119.375L-104.452,120.208L-104.315,120.625L-104.247,118.125L-104.178,115.625L-104.11,114.583L-104.041,114.167L-103.973,113.542L-103.904,113.542L-103.836,113.75L-103.765,113.542L-103.696,110.417L-103.559,110.417L-103.491,110.833L-103.422,110.625L-103.354,109.375L-103.285,107.917L-103.217,107.708L-103.149,107.708L-103.08,107.708L-103.012,109.167L-102.943,111.458L-102.875,111.458L-102.806,111.875L-102.738,112.083L-102.669,112.292L-102.601,113.333L-102.464,113.125L-102.396,112.5L-102.327,111.25L-102.259,110.833L-102.19,110.833L-102.122,111.042L-102.053,113.75L-101.985,115.625L-101.916,116.042L-101.848,116.25L-101.78,116.458L-101.711,116.25L-101.643,116.667L-101.574,114.792L-101.506,115.833L-101.437,115.208L-101.369,113.958L-101.3,113.75L-101.232,114.583L-101.164,116.25L-101.095,116.875L-101.027,115.625L-100.958,116.25L-100.89,116.042L-100.821,116.25L-100.753,116.25L-100.684,116.25L-100.616,114.792L-100.548,114.792L-100.342,113.75L-100.274,112.708L-100.205,113.542L-100.137,114.375L-100.068,114.375L-100,112.5L-99.863,111.458L-99.795,110.833L-99.726,111.875L-99.658,113.125L-99.589,113.75L-99.521,113.75L-99.452,113.958L-99.384,112.083L-99.316,113.958L-99.247,115.208L-99.179,116.458L-99.11,117.292L-99.042,116.667L-98.973,116.667L-98.836,116.458L-98.768,116.458L-98.7,118.542L-98.631,117.5L-98.494,116.667L-98.426,114.583L-98.357,115.833L-98.289,116.042L-98.22,117.708L-98.152,117.708L-98.084,118.125L-98.015,117.708L-97.947,116.667L-97.878,116.25L-97.81,115.625L-97.741,118.125L-97.673,119.167L-97.604,119.167L-97.536,118.958L-97.467,118.333L-97.399,118.958L-97.331,119.792L-97.262,120.417L-97.194,121.667L-97.125,122.5L-96.988,121.875L-96.92,119.583L-96.851,120.417L-96.783,120.833L-96.715,121.042L-96.646,119.792L-96.578,119.583L-96.441,118.542L-96.372,119.583L-96.304,120.208L-96.235,122.083L-96.167,122.5L-96.099,122.083L-96.03,121.458L-95.962,121.667L-95.893,121.875L-95.825,122.5L-95.756,122.917L-95.688,123.542L-95.619,124.167L-95.551,122.917L-95.483,121.875L-95.414,121.042L-95.346,121.667L-95.277,122.083L-95.209,122.083L-95.143,121.875L-95.075,121.25L-95.006,121.25L-94.938,119.792L-94.869,120.833L-94.801,122.917L-94.732,122.5L-94.664,122.292L-94.596,121.25L-94.527,121.458L-94.459,121.667L-94.39,122.708L-94.322,123.333L-94.253,123.75L-94.185,122.5L-94.116,122.292L-94.048,122.292L-93.98,122.917L-93.911,123.333L-93.843,123.125L-93.774,123.958L-93.706,123.333L-93.637,122.917L-93.569,122.292L-93.5,123.333L-93.432,124.583L-93.364,126.042L-93.295,125.417L-93.227,125.208L-93.09,123.542L-93.021,123.125L-92.953,123.542L-92.884,124.375L-92.816,125.417L-92.748,124.375L-92.679,124.375L-92.611,124.375L-92.542,124.583L-92.474,125.833L-92.405,126.458L-92.337,125.625L-92.268,125.417L-92.2,122.708L-92.132,122.708L-92.063,123.958L-91.995,123.75L-91.926,122.917L-91.858,122.5L-91.789,122.708L-91.721,122.5L-91.652,122.292L-91.584,121.458L-91.516,121.25L-91.447,121.667L-91.31,120.625L-91.242,120L-91.173,119.375L-91.105,119.583L-91.036,120.208L-90.968,121.667L-90.899,120.208L-90.831,120.417L-90.763,120L-90.626,120L-90.557,120.417L-90.489,119.583L-90.42,119.792L-90.352,119.792L-90.283,118.333L-90.215,118.542L-90.147,119.583L-90.078,119.792L-90.01,121.25L-89.941,121.25L-89.736,120.417L-89.667,119.375L-89.599,120.625L-89.531,119.583L-89.462,120L-89.394,121.042L-89.325,120.208L-89.257,122.083L-89.188,122.5L-89.12,123.333L-89.051,124.167L-88.983,125L-88.915,123.958L-88.846,124.167L-88.778,123.333L-88.709,123.333L-88.641,125L-88.572,124.375L-88.504,124.375L-88.435,124.167L-88.367,124.583L-88.299,125.625L-88.23,125.625L-88.162,126.042L-88.093,127.5L-88.025,127.292L-87.956,125.417L-87.888,124.792L-87.819,125.833L-87.751,126.042L-87.683,126.875L-87.614,128.542L-87.546,127.708L-87.477,128.958L-87.409,128.75L-87.203,128.333L-87.135,129.375L-87.067,128.75L-86.998,128.542L-86.93,127.5L-86.861,127.083L-86.793,127.083L-86.724,128.125L-86.656,127.917L-86.587,128.125L-86.519,127.083L-86.45,126.458L-86.382,126.042L-86.314,126.458L-86.245,126.667L-86.177,126.458L-86.108,125.833L-86.04,125.625L-85.971,125.208L-85.903,124.583L-85.834,125L-85.766,126.042L-85.629,125.625L-85.561,125.417L-85.492,124.583L-85.424,124.583L-85.355,124.167L-85.287,125.208L-85.218,125.625L-85.15,124.792L-85.082,124.792L-85.013,123.75L-84.945,123.958L-84.876,124.375L-84.808,123.333L-84.739,123.75L-84.671,123.333L-84.534,123.542L-84.466,123.125L-84.397,123.958L-84.329,124.375L-84.26,124.583L-84.192,125.208L-84.123,123.333L-84.055,122.917L-83.986,123.75L-83.918,124.375L-83.85,124.583L-83.781,124.167L-83.713,123.75L-83.576,123.333L-83.507,123.333L-83.439,123.333L-83.37,123.542L-83.302,123.333L-83.234,122.292L-83.165,121.875L-83.028,121.458L-82.96,121.042L-82.891,122.083L-82.823,122.5L-82.754,123.333L-82.686,122.083L-82.617,121.875L-82.549,123.75L-82.481,123.333L-82.412,123.542L-82.344,122.083L-82.207,121.875L-82.138,121.667L-82.07,122.083L-82.001,122.292L-81.933,122.708L-81.865,123.75L-81.796,124.583L-81.728,123.75L-81.659,122.708L-81.591,122.708L-81.522,123.542L-81.454,124.583L-81.385,125.208L-81.317,126.042L-81.249,125L-81.18,122.083L-81.112,122.5L-81.043,123.125L-80.975,123.958L-80.906,123.958L-80.838,120.625L-80.769,117.708L-80.633,115L-80.564,114.583L-80.496,116.042L-80.427,115.833L-80.359,115L-80.29,114.792L-80.222,113.333L-80.153,114.792L-80.085,115.833L-80.017,115.208L-79.948,115.208L-79.88,115.625L-79.811,115.417L-79.743,115.625L-79.674,115.208L-79.606,116.042L-79.537,116.875L-79.469,115.625L-79.401,115.208L-79.332,114.583L-74.88,113.75L-74.812,113.542L-74.743,115.625L-74.675,118.75L-74.606,119.167L-74.538,119.375L-74.47,117.917L-74.401,118.125L-74.333,121.875L-74.264,124.792L-74.196,127.083L-74.127,127.083L-74.059,127.083L-73.99,126.458L-73.922,127.083L-73.854,127.5L-73.785,127.917L-73.717,127.917L-73.648,127.5L-73.58,127.917L-73.443,128.333L-73.374,127.708L-73.306,127.708L-73.238,128.125L-73.169,127.5L-73.101,127.083L-73.032,126.875L-72.964,128.333L-72.895,128.958L-72.827,128.333L-72.758,128.542L-72.69,128.542L-72.621,128.333L-72.553,127.5L-72.485,127.5L-72.416,127.917L-72.348,129.375L-72.074,129.583L-72.005,128.125L-71.937,127.917L-71.869,127.5L-71.8,128.125L-71.732,128.333L-71.595,129.375L-71.526,129.583L-71.458,128.75L-71.389,130L-71.321,130L-71.253,130.625L-71.184,130.833L-71.116,129.583L-71.047,129.375L-70.979,128.958L-70.91,128.333L-70.842,128.75L-70.773,129.167L-70.705,128.958L-70.637,128.542L-70.568,127.917L-70.5,128.958L-70.431,129.167L-70.363,129.167L-70.294,129.375L-70.229,129.792L-70.16,130L-70.092,129.583L-70.023,128.958L-69.955,128.542L-69.886,128.958L-69.818,128.958L-69.75,129.375L-69.681,128.958L-69.613,128.542L-69.544,127.917L-69.476,127.5L-69.407,128.333L-69.339,127.708L-69.27,127.917L-69.202,127.708L-69.134,127.083L-69.065,127.708L-68.997,128.542L-68.928,129.167L-68.86,129.167L-68.791,128.75L-68.723,128.125L-68.654,127.917L-68.586,127.708L-68.518,128.125L-68.449,127.292L-68.381,127.292L-68.312,126.25L-68.244,125.208L-68.175,124.375L-68.107,123.542L-68.038,122.708L-67.97,122.917L-67.902,122.917L-67.833,123.333L-67.765,123.125L-67.696,121.875L-67.628,122.292L-67.559,122.083L-67.491,122.708L-67.422,123.125L-67.354,122.5L-67.286,122.083L-67.217,121.875L-67.149,121.042L-67.08,121.458L-67.012,122.083L-66.943,122.083L-66.806,122.5L-66.738,122.708L-66.67,123.333L-66.601,123.125L-66.533,123.75L-66.464,122.708L-66.396,122.5L-66.327,122.917L-66.259,121.875L-66.19,122.917L-66.122,123.542L-66.054,124.375L-65.985,123.958L-65.917,124.375L-65.848,123.75L-65.78,122.5L-65.711,122.708L-65.643,122.083L-65.574,123.75L-65.506,123.333L-65.437,122.292L-65.369,121.042L-65.301,120.417L-65.232,121.042L-65.164,121.875L-65.095,122.292L-65.027,122.708L-64.89,122.083L-64.821,120L-64.753,118.958L-64.685,118.542L-64.616,119.167L-64.548,119.375L-64.479,119.375L-64.411,118.958L-64.342,120.417L-64.274,121.042L-64.205,121.667L-64.137,122.5L-64.069,121.875L-64,121.25L-63.932,117.708L-63.863,118.75L-63.795,118.542L-63.726,119.167L-63.658,120.833L-63.589,120L-63.521,120.417L-63.453,120.208L-63.384,120.208L-63.316,121.875L-63.247,122.917L-63.179,123.542L-63.11,123.542L-62.973,123.125L-62.905,122.5L-62.837,122.5L-62.768,123.333L-62.7,124.792L-62.631,125.208L-62.563,125.417L-62.494,122.5L-62.426,122.708L-62.357,122.708L-62.289,122.708L-62.221,122.917L-62.084,122.708L-62.015,121.458L-61.947,121.042L-61.878,120.625L-61.81,121.458L-61.741,125.417L-61.673,124.375L-61.604,124.792L-61.536,123.958L-61.468,123.125L-61.399,123.542L-61.331,123.75L-61.262,123.542L-61.194,123.333L-61.125,123.125L-61.057,123.333L-60.988,122.917L-60.92,122.917L-60.852,122.708L-60.783,123.125L-60.646,123.542L-60.578,122.708L-60.509,123.333L-60.441,123.958L-60.372,124.167L-60.304,127.083L-60.236,127.083L-60.167,127.292L-60.099,127.708L-60.03,127.5L-59.962,126.458L-59.893,127.5L-59.825,127.5L-59.756,127.5L-59.688,127.708L-59.62,127.083L-59.551,128.333L-59.483,128.542L-59.414,129.583L-59.346,129.375L-59.277,129.583L-59.14,128.958L-59.072,129.375L-59.004,130L-58.935,130.417L-58.867,130L-58.798,130L-58.661,128.958L-58.593,129.583L-58.524,129.583L-58.456,128.958L-58.388,128.75L-58.319,128.75L-58.251,128.333L-58.182,127.917L-58.114,127.708L-58.045,127.5L-57.977,127.708L-57.908,127.708L-57.84,127.5L-57.772,128.542L-57.703,128.542L-57.635,128.958L-57.566,129.792L-57.498,128.958L-57.429,129.167L-57.361,129.375L-57.292,129.583L-57.224,128.125L-57.155,128.542L-57.087,128.125L-57.019,127.917L-56.95,127.5L-56.882,127.083L-56.813,126.875L-56.745,127.5L-56.676,128.125L-56.608,128.958L-56.539,128.125L-56.471,127.292L-56.403,127.708L-56.334,128.542L-56.197,128.333L-56.129,127.5L-56.06,126.667L-55.923,126.875L-55.65,126.875L-55.581,127.292L-55.513,125.833L-55.376,124.792L-55.307,123.542L-55.239,122.708L-55.171,122.708L-55.102,122.292L-55.034,121.458L-54.965,120.417L-54.897,120L-54.828,118.333L-54.76,119.583L-54.691,120.208L-54.623,120.208L-54.555,120.208L-54.486,120L-54.418,120.417L-54.349,120.208L-54.281,118.333L-54.212,117.292L-54.144,116.875L-54.075,116.458L-54.007,116.458L-53.936,115L-53.867,113.542L-53.73,111.875L-53.662,112.917L-53.593,113.75L-53.525,113.75L-53.457,112.083L-53.32,111.875L-53.251,113.125L-53.183,114.583L-53.114,115.833L-53.046,116.667L-52.977,115.625L-52.909,113.333L-52.841,113.75L-52.772,114.583L-52.704,114.792L-52.635,115L-52.567,115.208L-52.43,115.417L-52.361,115.208L-52.293,115.833L-52.225,116.458L-52.156,116.458L-52.088,116.667L-52.019,118.542L-51.951,119.375L-51.882,115L-51.814,110L-51.745,104.792L-51.677,102.5L-51.608,102.083L-51.54,102.708L-51.472,101.458L-51.403,100.833L-51.266,97.708L-51.198,98.125L-51.129,96.875L-51.061,96.458L-50.992,96.458L-50.924,94.583L-50.856,93.333L-50.787,93.542L-50.719,90.833L-50.65,90L-50.582,89.375L-50.513,89.583L-50.376,91.25L-50.308,91.25L-50.24,90.208L-50.171,90.208L-50.103,87.917L-50.034,87.292L-49.966,86.25L-49.555,86.25L-49.487,85.417L-49.418,84.583L-49.35,87.708L-49.281,91.667L-49.213,97.083L-49.144,100L-49.076,101.458L-49.008,101.875L-48.939,102.292L-48.871,101.667L-48.802,102.917L-48.734,102.5L-48.665,102.917L-48.597,103.333L-48.118,103.125L-48.049,102.917L-47.981,103.958L-47.912,103.75L-47.844,107.5L-47.775,108.542L-47.707,109.167L-47.639,109.167L-46.201,108.75L-46.133,107.708L-46.064,107.5L-45.996,108.542L-45.927,111.458L-45.859,111.25L-45.791,111.875L-45.722,111.042L-45.654,110.833L-45.585,111.042L-45.517,112.917L-45.448,114.792L-45.38,115.417L-45.314,115.833L-45.246,116.667L-45.177,116.458L-45.109,116.25L-45.04,115.833L-44.972,117.292L-44.904,118.333L-44.835,118.75L-44.767,117.708L-44.698,116.25L-44.63,118.333L-44.561,118.125L-44.493,119.167L-44.424,120.833L-44.356,121.458L-44.288,120.833L-44.219,119.792L-44.151,119.375L-44.082,120L-44.014,120.625L-43.945,119.792L-43.877,119.375L-43.808,119.583L-43.74,118.958L-43.672,119.167L-43.603,119.792L-43.535,120.208L-43.466,120L-43.398,120.417L-43.329,119.792L-43.261,117.917L-43.192,115.625L-43.124,116.25L-43.056,117.292L-42.987,118.125L-42.919,118.125L-42.85,118.542L-42.782,117.708L-42.713,118.75L-42.645,120L-42.576,119.792L-42.508,119.167L-42.44,118.958L-42.371,118.958L-42.303,118.958L-42.234,118.958L-42.166,118.958L-42.097,119.375L-42.029,119.792L-41.96,118.75L-41.892,117.083L-41.824,116.458L-41.755,116.25L-41.687,116.458L-41.618,114.792L-41.55,113.958L-41.413,114.375L-41.344,114.375L-41.276,113.333L-41.208,113.75L-41.139,115.625L-41.071,115.833L-41.002,115.833L-40.934,115.833L-40.865,115.208L-40.797,114.792L-40.728,115L-40.66,116.25L-40.591,115L-40.523,115.208L-40.455,115.208L-40.386,115.833L-40.318,116.042L-40.249,116.042L-40.181,116.042L-40.112,116.25L-39.975,116.25L-39.907,116.667L-39.839,115.625L-39.77,116.458L-39.702,117.917L-39.633,118.75L-39.565,118.958L-39.496,118.958L-39.428,120.417L-39.359,120.625L-39.291,120.625L-39.223,120.833L-39.154,120.625L-39.086,120L-39.017,118.958L-38.949,119.375L-38.88,116.875L-38.812,116.458L-38.743,117.292L-38.675,117.083L-38.607,116.667L-38.538,116.458L-38.47,115.625L-38.401,115.208L-38.333,115.625L-38.264,115.417L-38.196,115.833L-38.127,115.417L-38.059,114.583L-37.991,114.167L-37.922,114.792L-37.854,114.583L-37.785,114.583L-37.717,115.208L-37.648,115.208L-37.58,114.792L-37.511,114.792L-37.443,115.417L-37.375,116.458L-37.306,116.875L-37.238,116.458L-37.101,115L-37.032,115.417L-36.964,115.625L-36.895,117.292L-36.827,118.125L-36.758,119.792L-36.69,120.625L-36.622,119.792L-36.553,119.792L-36.485,120L-36.416,119.792L-36.348,121.875L-36.279,121.25L-36.142,120.417L-36.074,120.417L-36.006,120.208L-35.937,120.417L-35.869,121.25L-35.8,121.875L-35.732,121.667L-35.663,120.833L-35.595,121.458L-35.526,120.833L-35.458,121.25L-35.39,121.667L-35.321,121.042L-35.253,120.208L-35.184,119.583L-35.116,120L-35.047,120.208L-34.979,122.083L-34.91,121.458L-34.842,121.667L-34.774,120.833L-34.705,121.25L-34.637,121.875L-34.568,120.417L-34.5,121.875L-34.431,122.292L-34.363,121.667L-34.294,120.417L-34.226,118.958L-34.158,119.792L-34.089,119.583L-34.021,118.958L-33.952,118.333L-33.884,118.125L-33.815,116.25L-33.747,115.625L-33.678,115.833L-33.61,116.042L-33.542,116.458L-33.473,116.25L-33.405,115.833L-33.199,114.792L-33.131,115.625L-33.062,115.833L-32.994,115.625L-32.926,115.417L-32.857,115L-32.789,114.167L-32.72,112.708L-32.652,111.042L-32.583,110.833L-32.515,111.25L-32.446,111.25L-32.378,111.458L-32.309,111.25L-32.241,110L-32.173,110.208L-32.104,111.25L-32.036,112.917L-31.967,111.667L-31.83,110.833L-31.762,110.625L-31.693,109.375L-31.625,108.333L-31.557,109.792L-31.488,110.833L-31.42,109.375L-31.351,108.958L-31.283,107.5L-31.214,107.292L-31.146,108.125L-31.077,108.75L-31.009,108.75L-30.941,108.125L-30.872,107.917L-30.804,106.042L-30.735,105L-30.667,104.583L-30.598,107.292L-30.53,109.167L-30.461,110L-30.393,107.708L-30.325,105L-30.256,105.625L-30.188,105L-30.119,106.667L-30.051,105.833L-29.982,105.625L-29.914,105L-29.845,103.75L-29.777,104.583L-29.709,104.792L-29.64,106.875L-29.572,107.917L-29.503,107.917L-29.435,107.5L-29.366,108.542L-29.298,109.583L-29.229,110.208L-29.161,110.833L-29.093,110.208L-29.021,110.208L-28.953,108.75L-28.816,106.458L-28.747,103.75L-28.679,104.792L-28.611,105.417L-28.542,105.833L-28.474,103.333L-28.405,102.083L-28.337,98.958L-28.268,100.208L-28.2,103.333L-28.131,103.542L-28.063,102.5L-27.995,101.25L-27.926,100.208L-27.858,98.542L-27.789,98.75L-27.721,100.625L-27.652,100L-27.584,99.583L-27.515,98.958L-27.447,99.792L-27.379,100.417L-27.31,99.375L-27.242,99.792L-27.173,99.792L-27.105,100L-27.036,100.417L-26.968,101.458L-26.899,101.875L-26.831,101.458L-26.762,104.583L-26.694,107.292L-26.626,106.667L-26.557,107.292L-26.489,106.875L-26.42,108.333L-26.352,107.5L-26.283,109.583L-26.215,110L-26.146,108.75L-26.078,107.083L-26.01,108.75L-25.941,108.958L-25.873,109.792L-25.804,111.25L-25.736,111.25L-25.667,111.667L-25.599,112.083L-25.53,112.917L-25.462,110.833L-25.394,109.583L-25.325,107.708L-25.257,106.042L-25.188,105L-25.12,102.917L-25.051,103.75L-24.983,103.958L-24.914,103.958L-24.846,102.292L-24.778,102.5L-24.709,100.833L-24.641,100.208L-24.572,100.208L-24.504,99.792L-24.435,101.042L-24.367,101.25L-24.298,103.75L-24.23,105.208L-24.162,102.083L-24.093,99.583L-24.025,98.542L-23.956,98.333L-23.888,98.125L-23.819,97.292L-23.751,96.25L-23.682,93.75L-23.614,93.125L-23.546,92.083L-23.477,90.833L-22.177,92.917L-22.108,93.333L-22.04,93.542L-21.971,95.833L-21.903,96.458L-21.834,97.5L-21.697,95.625L-21.629,94.375L-21.287,92.5L-21.218,93.75L-21.15,93.333L-21.081,94.167L-21.013,92.292L-20.945,89.583L-20.876,88.333L-20.808,88.542L-20.739,88.125L-20.465,87.292L-20.331,84.792L-20.263,87.5L-20.195,90L-20.126,91.667L-20.058,91.667L-19.989,92.292L-19.921,93.958L-19.852,94.167L-19.784,95.833L-19.715,93.125L-19.647,94.167L-19.578,93.75L-19.51,92.917L-19.442,92.5L-19.373,92.5L-19.305,92.083L-19.236,91.875L-19.168,92.708L-19.099,93.958L-19.031,94.792L-18.962,95.417L-18.894,95L-18.826,95.208L-18.757,95.417L-18.689,98.542L-18.62,102.292L-18.552,103.75L-18.483,102.917L-18.415,103.542L-18.346,103.542L-18.278,104.167L-18.21,104.375L-18.141,105.625L-18.073,105.417L-18.004,105.417L-17.936,104.167L-17.867,103.542L-17.799,104.792L-17.73,105.833L-17.662,108.958L-17.594,107.917L-17.525,110L-17.457,111.042L-17.388,111.458L-17.32,112.917L-17.251,114.583L-17.183,115.208L-17.114,115L-17.046,113.333L-16.978,113.125L-16.909,112.917L-16.841,113.333L-16.772,115.625L-16.704,116.25L-16.635,115.208L-16.567,115.625L-16.498,114.792L-16.43,114.792L-16.362,114.792L-16.293,115.208L-16.225,115L-16.088,113.333L-16.019,111.875L-15.951,111.25L-15.882,111.667L-15.814,113.75L-15.745,114.583L-15.677,112.917L-15.609,110.833L-15.54,110.833L-15.472,111.875L-15.403,111.875L-15.335,112.292L-15.266,112.5L-15.198,112.292L-15.061,111.458L-14.993,111.667L-14.924,112.083L-14.856,113.75L-14.787,114.167L-14.719,114.792L-14.65,113.75L-14.582,113.333L-14.513,113.125L-14.445,113.333L-14.377,113.75L-14.308,115L-14.24,114.792L-14.171,115L-14.103,113.958L-14.034,114.792L-13.966,115.625L-13.897,115.625L-13.829,117.083L-13.761,115.833L-13.692,115L-13.624,113.542L-13.555,114.375L-13.487,115L-13.418,115L-13.35,115.208L-13.281,114.375L-13.213,113.125L-13.145,112.5L-13.076,111.25L-13.008,111.875L-12.939,111.458L-12.871,111.458L-12.802,111.042L-12.734,111.042L-12.665,110.833L-12.597,110.417L-12.529,110.417L-12.46,110L-12.392,110.833L-12.255,110.208L-12.186,107.917L-12.118,106.667L-12.049,106.042L-11.981,107.292L-11.913,107.5L-11.844,108.958L-11.776,109.375L-11.707,107.917L-11.639,107.917L-11.57,107.708L-11.502,108.958L-11.433,109.792L-11.365,110.833L-11.296,110.417L-11.228,111.042L-11.16,111.458L-11.091,110.625L-11.023,110.833L-10.954,112.083L-10.886,112.083L-10.817,112.292L-10.749,111.875L-10.68,112.5L-10.612,112.5L-10.544,112.5L-10.475,113.958L-10.407,113.542L-10.338,114.167L-10.27,114.583L-10.201,112.292L-10.133,112.5L-10.064,114.375L-9.996,114.375L-9.928,114.375L-9.859,114.583L-9.791,113.125L-9.722,113.125L-9.654,113.542L-9.585,114.375L-9.517,114.583L-9.448,115L-9.38,113.542L-9.312,113.125L-9.243,111.875L-9.175,111.25L-9.106,111.458L-9.038,113.542L-8.969,113.75L-8.901,113.75L-8.832,112.5L-8.764,110.625L-8.696,110L-8.627,108.958L-8.559,107.708L-8.49,107.708L-8.422,106.667L-8.353,105.417L-8.285,104.583L-8.216,103.125L-8.148,105.208L-8.08,106.458L-8.011,106.25L-7.943,106.458L-7.874,103.75L-7.806,103.542L-7.737,104.167L-7.669,103.75L-7.6,104.375L-7.532,105L-7.463,105.625L-7.395,105L-7.327,104.583L-7.258,103.125L-7.19,104.375L-7.121,104.167L-7.053,105L-6.984,102.917L-6.916,102.292L-6.847,101.458L-6.779,101.667L-6.711,102.708L-6.642,102.708L-6.574,103.542L-6.505,103.333L-6.437,102.5L-6.368,103.333L-6.3,102.5L-6.231,102.5L-6.163,102.292L-6.095,102.708L-6.026,102.917L-5.958,103.333L-5.889,102.292L-5.821,102.5L-5.752,100.833L-5.684,100.625L-5.615,101.042L-5.547,102.083L-5.479,100.625L-5.41,100.208L-5.342,100L-5.273,100.625L-5.205,102.292L-5.136,102.292L-5.068,102.292L-4.999,99.583L-4.931,92.917L-4.863,90L-4.794,89.375L-4.726,88.958L-4.657,89.375L-4.589,87.5L-4.52,86.458L-4.452,87.917L-4.383,89.375L-4.315,89.583L-4.247,91.458L-4.178,92.292L-4.107,91.458L-4.038,90.208L-3.97,87.917L-3.901,83.542L-3.833,85.208L-3.765,85.833L-3.696,87.292L-3.628,86.042L-3.559,85.417L-3.491,83.542L-3.422,82.917L-3.354,82.708L-3.285,83.333L-3.217,83.75L-3.149,83.125L-3.08,81.458L-3.012,80.833L-2.943,80.208L-2.875,87.083L-2.806,88.958L-2.738,90L-2.669,89.792L-2.601,89.583L-2.533,90.833L-2.464,92.292L-2.396,92.292L-2.327,92.292L-2.259,92.708L-2.19,92.5L-2.122,89.583L-2.053,89.375L-1.985,90.417L-1.916,93.542L-1.848,96.667L-1.78,96.875L-1.711,97.292L-1.643,96.25L-1.574,96.875L-1.506,96.667L-1.437,96.25L-1.369,97.292L-1.3,96.667L-1.232,96.25L-1.164,96.042L-1.095,95.417L-1.027,96.667L-0.958,97.083L-0.89,99.583L-0.821,101.25L-0.753,102.917L-0.684,101.667L-0.616,100.625L-0.548,100.208L-0.479,101.667L-0.411,101.667L-0.342,101.667L-0.274,101.458L-0.205,100.208L-0.137,100.208L-0.068,102.083L0,103.542L0.068,103.333L0.137,100.417L0.205,99.792L0.274,98.75L0.342,97.917L0.411,98.542L0.479,99.375L0.548,100.417L0.616,102.083L0.684,102.5L0.753,100.625L0.821,99.792L0.89,101.25L0.958,101.667L1.027,103.333L1.095,104.167L1.164,103.542L1.232,102.5L1.3,101.667L1.369,103.333L1.437,105.208L2.327,106.25L2.396,105.625L3.149,104.792L3.217,102.5L3.285,100.833L3.354,101.458L3.422,101.875L3.491,103.542L3.559,102.917L3.628,101.667L3.696,102.917L3.765,102.917L3.833,103.75L3.901,105.208L3.97,106.875L4.038,106.25L4.107,106.042L4.175,105L4.244,105.833L4.312,107.5L4.381,109.375L4.449,107.917L4.517,107.708L4.586,107.292L4.654,105.417L4.723,106.25L4.791,106.667L4.86,107.292L4.928,107.292L4.994,107.083L5.062,105.625L5.131,104.167L5.199,105L5.268,107.5L5.336,109.792L5.404,110.417L5.473,110.625L5.541,109.792L5.61,110.625L5.678,111.667L5.747,112.708L5.815,113.75L5.884,113.75L5.952,113.125L6.02,111.25L6.089,111.458L6.157,112.5L6.226,112.917L6.294,112.083L6.363,113.125L6.5,111.25L6.568,112.292L6.636,110.625L6.705,109.792L6.773,111.458L6.842,109.792L6.91,110.625L6.979,110.208L7.047,108.958L7.116,107.917L7.184,108.958L7.252,110L7.321,110.208L7.389,108.542L7.458,107.083L7.526,106.458L7.595,106.042L7.663,105.833L7.732,105.208L7.8,105.417L7.868,105L7.937,103.75L8.005,103.333L8.074,103.958L8.142,105.208L8.211,106.458L8.279,106.667L8.348,108.125L8.416,107.5L8.484,105.833L8.553,106.25L8.621,105.625L8.69,109.167L8.758,109.583L8.827,108.125L8.895,107.917L8.964,105.833L9.032,106.042L9.101,105.833L9.169,107.917L9.237,108.542L9.306,108.333L9.374,107.708L9.443,107.708L9.511,107.292L9.58,107.292L9.648,108.125L9.717,108.125L9.785,108.542L9.853,107.292L9.922,106.667L9.99,106.25L10.059,106.875L10.127,106.458L10.196,105.833L10.264,104.583L10.333,103.958L10.401,101.667L10.469,100.417L10.538,99.792L10.606,101.042L10.675,102.083L10.743,100.833L10.812,100.208L10.88,100.833L10.949,100.625L11.017,102.708L11.085,103.542L11.154,103.125L11.222,101.667L11.291,99.792L11.359,100.208L11.428,100L11.496,99.583L11.565,101.25L11.633,100.208L11.701,98.542L11.77,97.292L11.838,96.667L11.907,98.333L11.975,99.583L12.044,101.875L12.112,101.667L12.181,101.25L12.249,100.625L12.317,100.417L12.386,100L12.454,101.25L12.523,103.542L12.591,105.833L12.728,105.208L12.797,105L12.865,104.375L12.933,105L13.002,106.458L13.07,108.125L13.139,107.083L13.207,104.375L13.276,105.625L13.344,105.208L13.413,105.208L13.481,105.417L13.55,106.042L13.618,106.667L13.686,105.417L13.755,105.833L13.823,106.042L13.892,106.458L13.96,107.917L14.029,107.708L14.097,106.667L14.166,105.833L14.234,105.625L14.302,106.667L14.371,106.875L14.439,106.25L14.508,106.458L14.576,106.458L14.645,105.417L14.713,104.792L14.782,103.958L14.85,103.958L14.918,105.833L14.987,106.25L15.055,105.417L15.124,104.167L15.192,103.542L15.261,105.417L15.329,104.792L15.398,105.625L15.466,107.083L15.534,107.5L15.603,106.042L15.671,105.417L15.74,105.625L15.808,106.25L15.877,107.292L15.945,107.292L16.014,106.875L16.082,105.625L16.15,105.208L16.219,105.833L16.287,106.042L16.356,105.833L16.424,106.875L16.493,107.708L16.561,107.292L16.63,107.083L16.698,107.708L16.766,108.542L16.835,110L16.903,108.542L17.04,105.833L17.109,104.583L17.177,104.375L17.246,104.792L17.314,106.667L17.383,107.292L17.451,107.5L17.519,107.083L17.588,106.25L17.656,106.25L17.725,107.5L17.793,109.167L17.862,108.75L17.93,108.333L17.999,107.917L18.067,109.167L18.135,108.75L18.204,109.583L18.272,110.625L18.341,110.625L18.409,110.625L18.478,109.375L18.546,106.875L18.615,107.5L18.683,107.917L18.751,108.958L18.888,108.542L18.957,107.5L19.025,105.833L19.094,105L19.162,106.458L19.231,107.917L19.299,108.542L19.367,110L19.436,108.125L19.504,107.292L19.573,107.5L19.641,107.708L19.71,108.333L19.778,108.333L19.847,104.375L19.915,102.292L19.983,100.833L20.052,101.875L20.12,101.667L20.189,101.875L20.257,101.042L20.326,100.208L20.394,100.833L20.463,101.458L20.531,101.458L20.599,103.75L20.668,106.458L20.736,105.417L20.805,104.375L20.873,101.25L20.942,97.708L21.01,95.208L21.079,94.583L21.147,95.833L21.287,94.375L21.355,92.5L21.424,90L21.492,88.125L21.561,86.667L21.629,86.042L21.697,86.25L21.766,86.875L21.834,85.208L21.903,83.542L21.971,85.833L22.04,85.208L22.108,86.042L22.177,84.583L22.245,84.583L22.313,84.375L22.382,82.708L22.45,80.833L22.519,80L22.587,80L22.656,80.417L22.724,79.583L22.793,76.667L22.861,76.458L22.93,75.833L22.998,78.125L23.066,82.083L23.135,85.833L23.203,88.542L23.272,88.333L23.34,89.167L23.409,89.583L23.477,92.083L23.546,94.375L23.614,97.292L23.682,97.708L23.751,96.458L23.819,94.167L23.888,93.333L23.956,93.958L24.025,95L24.093,97.292L24.162,99.583L24.23,99.167L24.298,97.917L24.367,97.083L24.435,98.75L24.504,101.042L24.572,101.25L24.641,99.375L24.709,96.875L24.778,95L24.846,94.792L24.914,96.458L24.983,97.917L25.051,98.125L25.12,97.292L25.188,97.5L25.257,95.208L25.325,94.375L25.394,95.833L25.462,96.25L25.53,96.042L25.599,95.625L25.667,95.208L25.736,96.458L25.804,98.958L25.873,102.083L25.941,105.417L26.01,105.208L26.078,101.667L26.146,100.208L26.215,99.167L26.283,100L26.352,101.25L26.42,101.875L26.489,100.417L26.557,99.583L26.626,97.292L26.694,98.125L26.762,100.625L26.831,101.042L26.899,102.292L26.968,99.583L27.036,97.5L27.105,96.875L27.173,98.333L27.242,97.5L27.31,98.958L27.379,99.583L27.447,97.5L27.515,98.75L27.584,97.917L27.652,97.5L27.721,96.667L27.858,94.792L27.995,92.292L28.063,90L28.2,87.5L28.268,87.5L28.337,90.417L28.405,92.5L28.474,92.5L28.542,91.875L28.611,91.875L28.679,92.083L28.747,94.583L28.816,96.667L28.884,99.583L28.953,99.583L29.021,98.542L29.09,98.542L29.158,100.417L29.227,102.708L29.295,105.833L29.363,106.25L29.432,104.375L29.5,103.333L29.569,102.917L29.637,102.292L29.908,103.75L30.456,102.5L30.798,103.75L30.935,104.375L31.003,103.125L31.072,104.167L31.14,106.25L31.209,107.292L31.277,108.75L31.346,109.583L31.414,110.208L31.482,108.542L31.551,107.5L31.619,106.875L31.688,107.292L31.756,107.708L31.825,107.708L31.893,107.083L31.962,105L32.03,104.583L32.098,105.208L32.167,106.667L32.235,106.458L32.304,107.083L32.372,106.875L32.441,106.25L32.509,105L32.578,105.208L32.646,105.625L32.714,107.917L32.783,106.667L32.851,106.667L32.92,105.417L32.988,104.583L33.057,106.458L33.125,107.292L33.194,107.5L33.262,106.875L33.33,104.792L33.399,104.792L33.467,105.625L33.536,107.5L33.604,109.375L33.673,110L33.741,108.958L33.81,107.708L33.878,106.042L33.946,106.25L34.015,107.708L34.083,108.75L34.152,108.542L34.22,108.542L34.289,107.083L34.357,105.625L34.426,103.542L34.494,103.958L34.563,106.458L34.631,106.667L34.699,106.25L34.768,105.417L34.836,106.25L34.905,105.625L34.973,106.042L35.042,106.25L35.11,106.25L35.247,103.958L35.315,102.083L35.384,101.667L35.452,103.958L35.521,104.583L35.589,104.792L35.658,104.583L35.726,104.583L35.795,103.333L35.863,103.333L35.931,104.167L36,105.625L36.068,105.625L36.137,105.417L36.205,102.5L36.274,101.458L36.342,99.375L36.411,100L36.479,100.833L36.547,102.917L36.616,102.5L36.684,100.833L36.753,99.792L36.821,99.792L36.89,100L36.958,100.208L37.027,102.083L37.095,99.583L37.163,98.542L37.232,97.917L37.3,98.958L37.369,100.208L37.437,101.25L37.506,101.042L37.574,100L37.643,98.542L37.711,97.5L37.779,94.792L37.848,96.25L37.916,97.708L37.985,97.5L38.053,97.917L38.122,96.458L38.19,95.833L38.259,97.708L38.327,97.917L38.396,100.417L38.464,101.25L38.532,101.458L38.601,100L38.669,100.625L38.738,101.25L38.806,102.917L38.875,103.542L38.943,104.375L39.012,105L39.08,103.75L39.148,105.833L39.217,106.667L39.285,107.917L39.354,108.542L39.422,108.75L39.491,109.167L39.559,108.75L39.628,107.917L39.696,107.708L39.764,107.917L39.833,110.625L39.901,112.292L39.97,112.708L40.038,112.292L40.107,108.333L40.175,106.875L40.244,106.25L40.312,106.042L40.38,107.083L40.449,104.792L40.517,102.083L40.586,100.417L40.654,100.625L40.723,100.208L40.791,100.625L40.86,101.25L40.928,100.625L40.996,98.958L41.065,98.333L41.133,98.333L41.202,98.75L41.27,97.917L41.339,97.5L41.407,96.25L41.476,95.833L41.544,95L41.612,94.375L41.681,96.667L41.749,96.875L41.818,97.083L41.886,95.208L41.955,93.125L42.023,90.417L42.092,90.625L42.16,94.375L42.228,96.875L42.297,99.167L42.365,100.833L42.434,99.375L42.502,98.958L42.571,100L42.639,101.458L42.708,102.083L42.776,102.5L42.845,101.458L42.913,99.792L42.981,97.5L43.05,97.708L43.118,98.542L43.187,99.375L43.255,98.958L43.324,100.417L43.392,99.583L43.461,101.25L43.529,100.417L43.597,101.25L43.666,102.917L43.734,102.5L43.803,103.125L43.871,103.333L43.94,104.167L44.008,103.333L44.077,105.208L44.145,104.792L44.213,105.208L44.282,105.417L44.35,101.875L44.419,98.125L44.487,98.333L44.556,101.458L44.624,102.917L44.693,99.375L44.761,97.083L44.829,94.167L44.898,92.292L44.966,90.833L45.035,92.5L45.103,92.708L45.172,90.625L45.24,90L45.309,91.042L45.377,90L45.445,89.167L45.514,88.333L45.582,89.583L45.651,88.542L45.719,87.292L45.788,84.583L45.856,80.625L45.925,78.125L45.993,76.458L46.061,78.75L46.13,76.25L46.201,75.833L46.27,72.917L46.407,71.458L46.475,73.542L46.543,77.292L46.612,78.75L46.68,75.208L46.749,73.542L46.817,75.208L46.886,74.375L46.954,77.083L47.023,79.792L47.091,81.875L47.159,80.833L47.228,81.25L47.296,82.5L47.365,81.25L47.433,80L47.502,80L47.57,82.083L47.639,82.708L47.707,82.917L47.775,84.583L47.844,84.792L47.912,85.208L47.981,89.792L48.049,92.917L48.118,95.833L48.186,95.625L48.255,98.125L48.323,95.417L48.392,95.833L48.46,95.417L48.528,93.125L48.597,91.25L48.665,89.583L48.734,89.583L48.802,89.167L48.871,89.375L48.939,91.458L49.008,90.833L49.076,91.667L49.144,90.208L49.213,92.917L49.281,91.667L49.35,91.25L49.418,92.5L49.487,92.292L49.555,93.125L49.624,91.667L49.692,90.208L49.76,86.458L49.897,83.542L49.966,83.333L50.034,84.375L50.103,83.542L50.171,83.542L51.061,81.667L51.129,79.167L51.198,75.625L51.266,78.542L51.335,80.625L51.403,83.125L51.472,86.875L51.54,86.458L51.608,86.667L51.677,89.167L51.745,90.833L51.814,91.875L51.882,93.333L51.951,93.958L52.019,91.875L52.088,91.667L52.156,89.792L52.225,90L52.293,90.208L52.361,88.542L52.43,88.333L52.498,88.125L52.567,90L52.635,92.083L52.704,96.25L52.772,97.708L52.841,97.917L52.909,97.5L52.977,97.5L53.046,96.458L53.114,98.333L53.183,101.667L53.251,104.375L53.32,105.208L53.388,105.625L53.457,104.792L53.525,102.917L53.593,103.75L53.662,104.583L53.73,103.75L53.799,104.583L53.867,104.375L53.936,103.958L54.004,103.958L54.073,105.625L54.141,106.875L54.209,107.5L54.278,107.708L54.346,107.083L54.415,107.5L54.483,107.917L54.823,107.708L54.891,106.875L55.028,103.75L55.096,101.458L55.165,101.042L55.233,99.792L55.302,101.25L55.37,101.458L55.507,102.292L55.781,101.042L55.849,100L55.918,99.792L55.986,99.167L56.055,98.958L56.123,98.333L56.192,98.333L56.26,96.875L56.328,96.667L56.397,96.667L56.465,94.583L56.534,95L56.602,95.417L56.671,95.833L56.739,95.208L56.808,95.625L56.876,95L56.944,93.958L57.013,95L57.081,96.042L57.15,96.875L57.218,95.833L57.287,94.792L57.355,96.667L57.424,95.417L57.492,96.667L57.56,98.958L57.629,98.75L57.697,98.125L57.766,97.292L57.834,95.833L57.903,94.375L57.971,94.792L58.04,96.042L58.108,96.875L58.176,98.333L58.245,99.167L58.313,98.958L58.382,97.5L58.45,97.917L58.519,99.375L58.587,99.375L58.656,96.875L58.724,95.417L58.792,94.375L58.861,95.208L58.929,95.833L58.998,97.5L59.066,98.542L59.135,98.333L59.203,98.333L59.272,98.75L59.34,99.792L59.409,101.042L59.477,103.542L59.545,103.75L59.614,102.292L59.682,102.292L59.751,100.625L59.819,98.958L59.888,100.417L59.956,101.875L60.025,103.125L60.093,101.875L60.161,100.625L60.23,100L60.298,98.542L60.367,99.375L60.435,101.25L60.504,102.083L60.572,100.625L60.641,101.25L60.709,102.083L60.777,102.917L60.846,104.375L60.914,104.583L60.983,105L61.051,103.958L61.12,101.25L61.188,100.625L61.257,100.208L61.325,100.625L61.393,101.042L61.462,99.792L61.53,98.958L61.599,97.917L61.667,96.458L61.736,95.208L61.804,97.5L61.873,99.792L61.941,99.375L62.009,98.958L62.078,96.667L62.146,96.458L62.215,96.875L62.283,96.875L62.352,97.917L62.42,98.958L62.489,99.792L62.557,97.5L62.625,97.708L62.762,97.5L62.831,98.75L62.899,99.167L62.968,97.5L63.036,94.375L63.105,91.25L63.173,91.875L63.242,93.333L63.31,93.125L63.378,94.375L63.447,94.583L63.515,92.917L63.584,93.542L63.652,93.542L63.721,94.583L63.789,97.083L63.858,98.333L63.926,98.125L63.994,96.458L64.063,94.792L64.131,92.917L64.2,94.792L64.268,95.417L64.337,94.792L64.405,94.167L64.474,93.75L64.542,93.542L64.61,90.625L64.679,91.875L64.747,90.208L64.816,90.208L64.884,90.208L64.953,89.792L65.021,89.167L65.09,87.083L65.158,90L65.226,90.833L65.295,91.25L65.363,90.417L65.432,88.333L65.5,87.083L65.569,86.458L65.637,86.458L65.706,86.875L65.774,86.875L65.842,85.417L65.911,84.167L65.979,83.125L66.048,81.875L66.116,83.125L66.185,84.792L66.253,84.583L66.322,85.208L66.39,84.792L66.458,83.75L66.527,82.5L66.595,82.083L66.664,82.708L66.732,82.917L66.801,85.625L66.869,85.208L66.938,84.375L67.006,84.167L67.074,85.625L67.143,90L67.211,90.417L67.28,91.25L67.348,90L67.417,90.625L67.485,90.625L67.554,91.875L67.622,93.333L67.691,93.75L67.759,90.417L67.827,89.583L67.896,90.625L67.964,90.625L68.033,92.083L68.101,93.542L68.17,95.208L68.238,96.25L68.307,95.208L68.375,93.333L68.443,93.333L68.512,95.417L68.58,96.042L68.649,96.458L68.717,97.292L68.786,96.458L68.854,96.042L68.923,95.208L68.991,95.625L69.059,95L69.128,95.417L69.196,95.625L69.265,96.042L69.333,93.75L69.402,93.333L69.47,95.208L69.539,96.458L69.607,97.292L69.675,98.542L69.744,93.75L69.812,94.167L69.881,92.708L69.949,93.333L70.018,93.542L70.086,90.625L70.155,91.25L70.223,91.458L70.291,91.875L70.36,91.042L70.428,90.625L70.497,91.25L70.565,87.292L70.634,85.833L70.702,83.542L70.771,76.042L70.839,73.542L70.907,72.292L70.976,72.708L71.044,70.417L71.116,69.375L71.184,67.917L71.253,64.167L71.321,60.833L71.389,60.417L71.458,60L71.526,58.542L71.595,56.25L71.663,52.292L71.732,47.083L71.8,48.75L71.869,51.042L72.005,52.083L72.074,51.042L72.142,49.792L72.211,48.75L72.279,45.208L72.348,42.292L72.416,40.417L72.485,42.917L72.553,45.625L72.621,46.875L72.69,48.958L72.758,50.208L72.827,49.583L72.895,56.042L72.964,59.583L73.032,61.875L73.101,62.917L73.169,65L73.238,63.542L73.306,65.208L73.374,66.458L73.443,69.583L73.511,69.167L73.58,67.5L73.648,65.208L73.717,65L73.785,66.667L73.854,70.833L73.922,73.333L73.99,73.333L74.059,71.458L74.127,69.167L74.196,68.333L74.264,69.583L74.333,71.042L74.401,73.125L74.47,73.958L74.538,72.708L74.606,70.833L74.675,67.292L74.743,67.708L74.812,67.917L74.88,70.833L74.949,71.458L75.017,70.833L75.086,68.958L75.154,66.458L75.222,66.458L75.291,69.375L75.359,70.208L75.428,70.833L75.496,70.417L75.565,70.625L75.633,73.75L75.702,76.458L75.77,79.375L75.838,80.417L75.907,80L75.975,80.625L76.044,78.958L76.112,79.375L76.181,81.458L76.249,82.083L76.318,84.792L76.386,87.917L76.454,85.625L76.523,86.667L76.591,86.042L76.66,87.708L76.728,88.958L76.797,88.958L76.865,88.333L76.934,87.5L77.002,89.375L77.07,89.583L77.139,90.625L77.207,92.708L77.276,91.042L77.344,89.792L77.413,89.375L77.481,90.208L77.55,89.583L77.618,91.667L77.687,92.292L77.755,92.083L77.823,91.042L77.892,90.417L77.96,88.958L78.029,86.042L78.097,87.917L78.166,89.375L78.234,88.75L78.303,90L78.371,88.542L78.439,86.042L78.645,88.125L78.713,86.042L78.782,87.083L78.85,85.417L78.919,86.667L78.987,85.625L79.055,85.833L79.261,86.25L79.603,84.167L79.671,84.375L79.737,84.583L79.805,83.75L79.874,84.375L79.942,85L80.011,85.833L80.079,85.625L80.148,86.042L80.216,84.167L80.285,83.125L80.353,83.333L80.422,82.5L80.49,82.708L80.558,83.75L80.627,86.667L80.695,87.917L80.764,88.75L80.832,88.958L80.901,89.583L80.969,90.208L81.038,91.458L81.106,91.875L81.174,93.333L81.243,93.333L81.311,93.333L81.38,92.292L81.448,94.583L81.517,95.625L81.585,95.625L81.654,96.458L81.722,95.625L81.79,95.208L81.859,95.208L81.927,96.25L81.996,98.125L82.064,96.667L82.133,96.042L82.201,95L82.27,93.958L82.338,93.333L82.406,94.583L82.475,95.833L82.543,96.25L82.612,96.667L82.68,95.208L82.749,93.75L82.817,92.083L82.886,93.542L82.954,94.167L83.022,95.417L83.091,96.667L83.159,95.417L83.228,95.417L83.296,93.958L83.365,94.583L83.433,95.208L83.502,93.333L83.57,91.458L83.638,90.625L83.707,88.75L83.775,88.333L83.844,88.125L83.912,89.583L83.981,90L84.049,88.75L84.118,89.792L84.186,90.625L84.255,89.792L84.323,92.292L84.391,93.542L84.46,93.333L84.528,92.917L84.597,90.625L84.665,89.167L84.734,87.917L84.802,88.333L84.871,89.792L84.939,90.625L85.007,89.792L85.076,87.083L85.144,82.917L85.213,81.042L85.281,80.625L85.35,82.708L85.418,82.292L85.487,82.5L85.555,82.917L85.623,86.25L85.692,88.75L85.76,90.417L85.829,91.667L85.897,93.542L85.966,92.083L86.034,92.083L86.103,91.042L86.171,84.792L86.239,85L86.308,85.417L86.376,86.25L86.445,86.25L86.513,84.792L86.582,84.792L86.65,85.208L86.719,87.083L86.787,87.083L86.855,87.708L86.924,87.708L86.992,86.667L87.061,87.083L87.129,88.125L87.198,91.042L87.266,93.542L87.335,93.958L87.403,92.708L87.471,92.708L87.54,92.292L87.608,91.25L87.677,90.625L87.745,90L87.814,90.833L87.882,90.208L87.951,87.917L88.019,86.042L88.087,84.583L88.156,86.042L88.224,91.25L88.293,92.292L88.361,92.708L88.43,91.458L88.498,90.625L88.567,90.208L88.635,90.625L88.704,92.5L88.772,92.917L88.84,95.625L88.909,95.208L88.977,94.583L89.046,92.708L89.114,92.083L89.183,92.917L89.251,93.958L89.32,93.75L89.388,92.5L89.456,92.917L89.525,93.125L89.593,93.75L89.662,96.667L89.73,97.5L89.799,95.833L89.867,94.792L89.936,94.792L90.004,95.625L90.072,98.333L90.141,100L90.209,98.125L90.278,97.708L90.346,95L90.415,93.958L90.483,93.958L90.552,95L90.62,96.25L90.688,95.625L90.757,94.583L90.825,94.167L90.894,91.875L90.962,91.458L91.031,91.875L91.099,94.167L91.168,94.375L91.236,93.125L91.304,91.458L91.373,90.417L91.441,91.458L91.51,91.667L91.578,93.333L91.647,92.917L91.784,91.458L91.852,90.625L91.92,88.75L91.989,89.375L92.057,90.208L92.126,90.833L92.194,90.417L92.263,89.375L92.331,90.208L92.4,91.042L92.468,92.917L92.537,95.833L92.605,97.5L92.673,97.292L92.742,96.875L92.81,97.5L92.879,99.375L92.947,99.375L93.016,101.458L93.084,101.667L93.153,100.625L93.221,98.333L93.289,98.333L93.358,99.167L93.426,100.625L93.495,102.292L93.563,101.458L93.632,100.417L93.7,96.667L93.769,94.583L93.837,95L93.905,93.333L93.974,97.708L94.042,96.875L94.111,97.708L94.179,98.333L94.248,96.667L94.316,95.417L94.385,96.25L94.453,97.292L94.521,98.125L94.59,96.458L94.727,92.917L94.795,90.208L94.864,90L94.932,89.583L95.001,88.958L95.069,85.833L95.137,83.958L95.206,82.708L95.274,81.458L95.343,81.042L95.411,81.667L95.48,82.083L95.548,81.042L95.617,80.208L95.685,81.042L95.753,82.708L95.822,85L95.89,87.083L95.959,88.333L96.03,88.542L96.099,84.792L96.167,84.167L96.235,82.708L96.304,79.375L96.372,82.5L96.441,83.333L96.509,79.792L96.578,76.875L96.646,72.917L96.715,72.708L96.783,76.25L96.851,78.958L96.92,79.167L96.988,78.542L97.057,79.583L97.125,83.542L97.194,82.917L97.262,83.542L97.331,84.375L97.399,86.875L97.467,84.583L97.536,85.417L97.604,86.667L97.673,84.792L97.741,83.958L97.81,81.458L97.878,81.875L98.084,80.208L98.22,78.542L98.289,76.875L98.357,76.25L98.426,76.458L98.494,76.875L98.563,79.167L98.631,76.25L98.7,77.083L98.768,78.958L98.836,78.958L98.905,83.125L99.042,85.417L99.316,84.375L99.384,85L99.452,83.75L99.521,84.167L99.589,82.708L99.658,82.292L99.726,82.292L99.795,83.542L99.863,85L99.932,82.917L100,85L100.068,84.167L100.137,84.167L100.205,85.833L100.274,86.042L100.342,86.875L100.411,85.833L100.479,87.708L100.548,87.708L100.616,91.25L100.684,93.958L100.753,94.375L100.821,95.417L100.89,93.125L100.958,95.625L101.027,96.25L101.095,99.375L101.164,102.708L101.369,101.875L101.437,95.208L101.506,93.958L101.574,91.458L101.643,93.125L101.711,93.958L101.78,93.125L101.848,91.458L101.916,92.083L101.985,91.25L102.053,92.083L102.122,93.75L102.19,95L102.259,94.583L102.327,92.292L102.396,91.458L102.464,90.625L102.533,90.833L102.601,90.833L102.669,91.875L102.738,91.667L102.806,90.417L102.875,88.125L102.943,88.333L103.012,88.125L103.08,89.375L103.149,89.375L103.217,90L103.285,89.375L103.354,87.083L103.422,85L103.491,90.833L103.559,91.042L103.628,93.958L103.696,93.333L103.765,90.417L103.833,90.208L103.901,89.583L103.97,88.333L104.038,87.292L104.107,85.625L104.175,85.208L104.244,83.125L104.312,81.875L104.381,83.125L104.449,81.667L104.517,81.458L104.586,81.875L104.651,83.333L104.72,82.083L104.788,81.875L104.857,81.042L104.925,81.25L104.994,81.875L105.062,80.417L105.131,80.833L105.199,80L105.268,78.75L105.336,76.667L105.404,76.875L105.473,78.333L105.541,78.333L105.61,79.375L110.401,77.708L110.469,77.083L110.538,76.458L110.606,76.667L110.675,78.125L110.743,81.667L110.812,83.333L110.88,83.542L110.949,82.083L111.017,80.833L111.085,79.792L111.154,76.875L111.222,72.5L111.291,72.292L111.359,71.042L111.428,66.458L111.496,64.792L111.565,62.292L111.633,61.458L111.701,62.708L111.77,61.667L111.838,62.5L111.907,61.25L111.975,58.542L112.044,55.625L112.112,56.042L112.181,56.042L112.249,55.625L112.317,53.333L112.386,51.042L112.454,49.375L112.523,49.375L112.591,49.583L112.66,50.625L112.728,51.25L112.797,49.375L112.865,48.333L112.933,44.167L113.002,43.333L113.07,45.625L113.139,47.292L113.207,50L113.276,56.042L113.344,55.833L113.413,52.708L113.481,53.958L113.55,54.375L113.618,55.625L113.686,57.5L113.755,56.458L113.823,51.458L113.892,49.375L113.96,48.125L114.029,48.958L114.097,52.708L114.166,52.5L114.234,51.458L114.302,50L114.371,49.792L114.439,49.583L114.508,48.542L114.576,50L114.645,52.5L114.713,50.625L114.782,46.458L114.85,44.375L114.918,42.5L114.987,45.833L115.055,48.333L115.124,47.708L115.192,47.708L115.261,47.5L115.329,47.917L115.398,42.917L115.466,46.25L115.534,47.292L115.603,48.333L115.671,47.5L115.74,44.792L115.808,43.542L115.877,47.5L115.945,49.167L116.014,51.458L116.082,53.125L116.15,50.625L116.219,50.625L116.287,49.375L116.356,49.375L116.424,51.667L116.493,53.958L116.561,56.875L116.63,55L116.698,51.667L116.766,50L116.835,51.458L116.903,54.583L116.972,56.667L117.04,58.125L117.109,57.083L117.177,56.25L117.246,54.375L117.314,54.375L117.383,55L117.451,62.292L117.519,63.958L117.588,66.875L117.656,64.792L117.725,64.792L117.793,66.042L117.862,67.5L117.93,68.333L117.999,68.333L118.067,65.625L118.135,62.5L118.204,62.917L118.272,60.625L118.341,63.125L118.409,63.542L118.478,63.333L118.546,62.917L118.615,61.875L118.683,61.875L118.751,63.75L118.82,66.458L118.888,67.292L118.957,66.875L119.025,68.125L119.094,69.167L119.162,69.583L119.231,68.75L119.299,70.833L119.367,70L119.436,70.833L119.504,69.583L119.573,65.833L119.641,65.625L119.71,65.417L119.778,67.708L119.847,67.917L119.915,68.542L119.983,67.5L120.052,67.083L120.12,63.958L120.189,63.958L120.257,63.958L120.326,65.625L120.394,66.042L120.463,65.625L120.531,63.542L120.599,64.167L120.668,66.458L120.736,68.333L120.805,69.375L120.873,71.042L120.945,70.417L121.013,69.167L121.081,66.458L121.15,58.125L121.218,55L121.287,55.417L121.355,53.75L121.424,53.333L121.492,51.875L121.561,50L121.629,50.417L121.697,47.5L121.766,48.333L121.834,48.333L121.903,49.167L121.971,50.208L122.04,51.25L122.108,51.458L122.177,57.083L122.245,61.458L122.313,63.125L122.382,65.208L122.45,64.375L122.519,65L122.587,65.208L122.656,62.708L122.724,59.792L122.793,58.125L122.861,58.542L122.93,56.458L122.998,56.042L123.066,55L123.135,52.083L123.203,57.708L123.272,60.208L123.34,61.875L123.409,65L123.477,65.625L123.546,65L123.614,65.625L123.682,66.875L123.751,68.542L123.819,70L123.888,71.875L124.846,73.125L124.914,71.458L124.983,71.875L125.051,71.875L125.12,71.042L125.188,68.75L125.257,67.292L125.325,66.667L125.394,64.792L125.462,63.542L125.53,57.708L125.599,43.125L125.667,38.333L125.736,35.833L125.804,33.75L125.873,31.667L125.941,32.083L126.01,30.417L126.078,31.667L126.146,31.667L126.215,29.583L126.283,27.917L126.352,24.583L126.42,23.75L126.489,21.875L126.557,20.833L126.626,21.25L126.694,20.417L126.762,18.125L126.899,14.167L126.968,11.667L127.036,9.583L127.105,6.042L128.884,5.833L128.953,7.292L129.021,7.917L129.09,7.292L129.158,5.208L129.227,6.042L129.295,5.417L129.363,11.667L129.432,28.542L129.5,35.417L129.569,35.625L129.637,36.042L129.706,36.875L129.774,34.583L129.843,37.5L129.911,39.375L129.979,41.25L130.045,40L130.114,38.333L130.182,38.125L130.25,36.042L130.319,37.083L130.387,38.75L130.456,39.167L130.524,38.125L130.593,38.333L130.661,38.333L130.73,37.708L130.798,40.833L130.866,43.958L130.935,44.167L131.003,44.583L131.072,42.292L131.14,41.25L131.209,40.417L131.277,41.458L131.346,43.75L131.414,44.583L131.482,43.333L131.551,41.458L131.619,41.875L131.688,42.083L131.756,44.375L131.825,48.75L131.893,48.75L131.962,49.167L132.03,46.875L132.098,48.958L132.167,49.375L132.235,50.833L132.304,54.375L132.372,56.875L132.441,56.667L132.509,55.208L132.578,55.833L132.646,52.083L132.714,52.917L132.783,54.792L132.851,54.792L132.92,52.708L132.988,51.25L133.057,47.292L133.125,45.625L133.194,47.292L133.262,50.208L133.33,51.875L133.399,53.542L133.467,52.292L133.536,51.25L133.604,49.375L133.673,50.208L133.741,50.208L133.81,50L133.878,44.167L133.946,41.667L134.015,34.792L134.083,31.042L134.152,32.5L134.22,34.583L134.289,35.417L134.357,33.125L134.426,28.75L134.494,25L134.563,23.125L134.631,22.083L134.699,27.292L134.768,27.083L134.836,26.667L134.905,23.75L134.973,24.583L135.042,22.5L135.11,26.042L135.179,28.75L135.247,30.625L135.315,28.333L135.384,24.167L135.452,19.792L135.521,17.5L135.589,18.75L135.658,23.333L135.726,25.625L135.795,27.083L135.863,26.25L135.931,26.667L136,26.667L136.068,31.875L136.137,35L136.205,33.125L136.274,27.708L136.342,25L136.411,26.667L136.479,27.917L136.547,30.417L136.616,34.375L136.684,35.833L136.753,35.833L136.821,36.042L136.89,34.167L136.958,35L137.027,34.792L137.095,38.333L137.163,36.875L137.232,36.667L137.3,33.125L137.369,30.417L137.437,31.25L137.506,34.167L137.574,36.875L137.643,37.292L137.711,35.208L137.779,34.375L137.848,33.125L137.916,33.125L137.985,37.083L138.053,40.833L138.122,43.75L138.19,45.625L138.259,47.292L138.327,49.167L138.396,50L138.464,50L138.532,50.833L138.601,53.542L138.669,51.875L138.738,48.75L138.806,46.667L138.875,42.917L138.943,44.167L139.012,46.667L139.08,48.75L139.148,46.25L139.217,43.333L139.285,43.125L139.354,41.667L139.422,46.25L139.491,47.083L139.559,47.292L139.628,47.708L139.696,46.875L139.764,47.5L139.833,42.917L139.901,44.375L139.97,44.583L140.038,46.042L140.107,44.167L140.175,42.917L140.244,38.542L140.312,34.167L140.38,36.25L140.449,37.292L140.517,36.875L140.586,34.792L140.654,29.167L140.723,27.917L140.791,28.75L140.86,29.167L140.928,32.083L140.996,32.5L141.065,31.667" stroke="#4c78a8" stroke-width="2"/></g><g class="mark-group role-title"><g transform="translate(100,-17)"><path class="background" aria-hidden="true" d="M0,0h0v0h0Z" pointer-events="none"/><g><g class="mark-text role-title-text" role="graphics-symbol" aria-roledescription="title" aria-label="Title text 'Missed Collection (All Materials): 1RG Missed Recycling Paper'" pointer-events="none"><text text-anchor="middle" transform="translate(0,10)" font-family="sans-serif" font-size="13px" font-weight="bold" fill="#000" opacity="1">Missed Collection (All Materials): 1RG Missed Recycling Paper</text></g></g><path class="foreground" aria-hidden="true" d="" pointer-events="none" display="none"/></g></g></g><path class="foreground" aria-hidden="true" d="" display="none"/></g></g></g><defs><clipPath id="clip110"><rect x="0" y="0" width="200" height="150"/></clipPath></defs></svg>