<svg xmlns="http://www.w3.org/2000/svg" xmlns:xlink="http://www.w3.org/1999/xlink" version="1.1" class="marks" width="250" height="194" viewBox="0 0 250 194"><rect width="250" height="194" fill="white"/><g fill="none" stroke-miterlimit="10" transform="translate(29,22)"><g class="mark-group role-frame root" role="graphics-object" aria-roledescription="group mark container"><g transform="translate(0,0)"><path class="background" aria-hidden="true" d="M0,0h200v150h-200Z"/><g><g class="mark-group role-axis" aria-hidden="true"><g transform="translate(0.5,0.5)"><path class="background" aria-hidden="true" d="M0,0h0v0h0Z" pointer-events="none"/><g><g class="mark-rule role-axis-grid" pointer-events="none"><line transform="translate(0,150)" x2="200" y2="0" stroke="#ddd" stroke-width="1" opacity="1"/><line transform="translate(0,108)" x2="200" y2="0" stroke="#ddd" stroke-width="1" opacity="1"/><line transform="translate(0,67)" x2="200" y2="0" stroke="#ddd" stroke-width="1" opacity="1"/><line transform="translate(0,25)" x2="200" y2="0" stroke="#ddd" stroke-width="1" opacity="1"/></g></g><path class="foreground" aria-hidden="true" d="" pointer-events="none" display="none"/></g></g><g class="mark-group role-axis" role="graphics-symbol" aria-roledescription="axis" aria-label="X-axis for a time scale with values from Friday, 01 January 2016, 12:00:00 AM to Monday, 01 January 2024, 12:00:00 AM"><g transform="translate(0.5,150.5)"><path class="background" aria-hidden="true" d="M0,0h0v0h0Z" pointer-events="none"/><g><g class="mark-rule role-axis-tick" pointer-events="none"><line transform="translate(0,0)" x2="0" y2="5" stroke="#888" stroke-width="1" opacity="1"/><line transform="translate(50,0)" x2="0" y2="5" stroke="#888" stroke-width="1" opacity="1"/><line transform="translate(100,0)" x2="0" y2="5" stroke="#888" stroke-width="1" opacity="1"/><line transform="translate(150,0)" x2="0" y2="5" stroke="#888" stroke-width="1" opacity="1"/><line transform="translate(200,0)" x2="0" y2="5" stroke="#888" stroke-width="1" opacity="1"/></g><g class="mark-text role-axis-label" pointer-events="none"><text text-anchor="start" transform="translate(0,15)" font-family="sans-serif" font-size="10px" fill="#000" opacity="1">2016</text><text text-anchor="middle" transform="translate(50.03422313483915,15)" font-family="sans-serif" font-size="10px" fill="#000" opacity="1">2018</text><text text-anchor="middle" transform="translate(100,15)" font-family="sans-serif" font-size="10px" fill="#000" opacity="1">2020</text><text text-anchor="middle" transform="translate(150.03422313483915,15)" font-family="sans-serif" font-size="10px" fill="#000" opacity="1">2022</text><text text-anchor="end" transform="translate(200,15)" font-family="sans-serif" font-size="10px" fill="#000" opacity="1">2024</text></g><g class="mark-rule role-axis-domain" pointer-events="none"><line transform="translate(0,0)" x2="200" y2="0" stroke="#888" stroke-width="1" opacity="1"/></g></g><path class="foreground" aria-hidden="true" d="" pointer-events="none" display="none"/></g></g><g class="mark-group role-axis" role="graphics-symbol" aria-roledescription="axis" aria-label="Y-axis for a linear scale with values from 0 to 180"><g transform="translate(0.5,0.5)"><path class="background" aria-hidden="true" d="M0,0h0v0h0Z" pointer-events="none"/><g><g class="mark-rule role-axis-tick" pointer-events="none"><line transform="translate(0,150)" x2="-5" y2="0" stroke="#888" stroke-opacity="0" stroke-width="1" opacity="1"/><line transform="translate(0,108)" x2="-5" y2="0" stroke="#888" stroke-opacity="0" stroke-width="1" opacity="1"/><line transform="translate(0,67)" x2="-5" y2="0" stroke="#888" stroke-opacity="0" stroke-width="1" opacity="1"/><line transform="translate(0,25)" x2="-5" y2="0" stroke="#888" stroke-opacity="0" stroke-width="1" opacity="1"/></g><g class="mark-text role-axis-label" pointer-events="none"><text text-anchor="end" transform="translate(-7,153)" font-family="sans-serif" font-size="10px" fill="#000" opacity="1">0</text><text text-anchor="end" transform="translate(-7,111.33333333333333)" font-family="sans-serif" font-size="10px" fill="#000" opacity="1">50</text><text text-anchor="end" transform="translate(-7,69.66666666666666)" font-family="sans-serif" font-size="10px" fill="#000" opacity="1">100</text><text text-anchor="end" transform="translate(-7,27.999999999999993)" font-family="sans-serif" font-size="10px" fill="#000" opacity="1">150</text></g></g><path class="foreground" aria-hidden="true" d="" pointer-events="none" display="none"/></g></g><g class="mark-line role-mark marks" clip-path="url(#clip101)" role="graphics-object" aria-roledescription="line mark container"><path aria-label="day: Jan 01, 2010; avg: 8.46666666667" role="graphics-symbol" aria-roledescription="line mark" d="M-149.966,142.944L-149.897,143L-149.829,143.056L-149.76,142.917L-149.692,143L-149.624,142.833L-149.555,142.806L-149.487,142.75L-149.418,142.889L-149.35,143.028L-149.281,143L-149.213,143.028L-149.144,143.028L-149.076,143.028L-149.008,142.972L-148.939,143.056L-148.871,143.278L-148.802,143.667L-148.734,143.889L-148.665,143.889L-148.597,143.917L-148.528,143.75L-148.46,143.75L-148.392,144.111L-148.323,144.278L-148.255,144.417L-148.186,144.556L-148.118,144.694L-148.049,144.417L-147.981,144.333L-147.912,144.472L-147.844,144.556L-147.775,144.5L-147.707,144.5L-147.639,144.139L-147.57,143.778L-147.502,143.667L-147.433,143.611L-147.365,143.278L-147.296,143L-147.228,142.861L-147.159,142.75L-147.091,142.667L-147.023,142.722L-146.954,142.75L-146.886,142.25L-146.817,141.694L-146.749,140.833L-146.68,139.75L-146.612,138.528L-146.543,137.889L-146.475,138.028L-146.407,138.139L-146.338,137.833L-146.27,137.194L-146.201,136.944L-146.133,136.778L-146.064,136.583L-145.996,136.944L-145.927,137.139L-145.859,136.722L-145.791,136L-145.722,135.167L-145.654,134.306L-145.585,133.722L-145.517,133L-145.448,131.944L-145.38,131.028L-145.311,129.889L-145.243,129.528L-145.175,129.056L-145.106,128.083L-145.038,127.472L-144.972,127.056L-144.904,126.639L-144.835,126.639L-144.767,126.722L-144.698,126.972L-144.63,127.528L-144.561,128.306L-144.493,128.639L-144.424,128.306L-144.356,127.833L-144.288,127.333L-144.219,127L-144.151,126.778L-144.082,126.917L-144.014,126.861L-143.945,126.5L-143.877,125.528L-143.808,125.056L-143.74,124.528L-143.672,124.389L-143.603,124.722L-143.535,124.083L-143.466,124.222L-143.398,124.472L-143.329,124.611L-143.261,125.028L-143.192,125.639L-143.124,125.917L-143.056,126.639L-142.987,127L-142.919,126.778L-142.85,126.556L-142.782,126.111L-142.713,125.611L-142.645,125.361L-142.576,125.361L-142.508,125.111L-142.44,124.639L-142.371,123.833L-142.303,122.861L-142.234,122.75L-142.166,122.583L-142.097,122.167L-142.029,121L-141.96,120.25L-141.892,119.806L-141.824,119.5L-141.755,119.417L-141.687,119.139L-141.618,119.167L-141.55,119.028L-141.481,120L-141.413,119.972L-141.344,120.111L-141.276,120.222L-141.208,120.25L-141.139,118.694L-141.071,118.361L-141.002,117.778L-140.934,117.111L-140.865,116.5L-140.797,116.083L-140.728,115.972L-140.66,115.889L-140.591,115.5L-140.523,115.111L-140.455,114.889L-140.386,114.083L-140.318,114.75L-140.249,115.222L-140.181,115.222L-140.112,115.806L-140.044,115.833L-139.975,115.75L-139.907,115.611L-139.839,115.667L-139.77,116.333L-139.702,116.611L-139.633,116.667L-139.565,116.889L-139.496,116.528L-139.428,116.111L-139.359,116.889L-139.291,117.472L-139.223,118.028L-139.154,118.472L-139.086,119.194L-139.017,119.167L-138.949,119.194L-138.88,119.583L-138.812,119.806L-138.743,119.917L-138.675,120L-138.607,119.972L-138.538,120.194L-138.47,120.306L-138.401,120.694L-138.333,121.861L-138.264,121.806L-138.196,122.083L-138.127,122.333L-138.059,122.361L-137.991,122.75L-137.922,123.528L-137.854,123.722L-137.785,123.444L-137.717,122.694L-137.648,122.472L-137.58,122.722L-137.511,122.417L-137.443,122.833L-137.375,122.889L-137.306,122.083L-137.238,121.611L-137.169,121L-137.101,120.611L-137.032,120.694L-136.964,120.556L-136.895,120.556L-136.827,120.389L-136.758,120.389L-136.69,120.389L-136.622,120.528L-136.553,120.361L-136.485,120.583L-136.416,120.778L-136.348,120.5L-136.279,119.917L-136.211,119.278L-136.142,119.056L-136.074,118.278L-136.006,118.583L-135.937,118.694L-135.869,117.889L-135.8,117.833L-135.732,117.25L-135.663,117.417L-135.595,116.75L-135.526,117.028L-135.458,117L-135.39,116.944L-135.321,116.861L-135.253,117.111L-135.184,117.417L-135.116,117.139L-135.047,117.222L-134.979,117.028L-134.91,116.611L-134.842,116.5L-134.774,116.25L-134.705,115.75L-134.637,115.417L-134.568,115.25L-134.5,115.861L-134.431,115.361L-134.363,115.306L-134.294,115.556L-134.226,115.944L-134.158,116.333L-134.089,116.028L-134.021,116.806L-133.952,116.361L-133.884,115.528L-133.815,115.389L-133.747,115.083L-133.678,115.139L-133.61,115.056L-133.542,116.139L-133.473,116.028L-133.405,115.861L-133.336,115.528L-133.268,115.722L-133.199,115.278L-133.131,115.139L-133.062,116.056L-132.994,116.222L-132.926,116.417L-132.857,116.833L-132.789,116.667L-132.72,116.778L-132.652,117.278L-132.583,117.667L-132.515,118.139L-132.446,118.139L-132.378,118.889L-132.309,119.028L-132.241,118.861L-132.173,118.889L-132.104,119.556L-132.036,120.5L-131.967,120.694L-131.899,120.861L-131.83,121.722L-131.762,122.611L-131.693,123.472L-131.625,124.278L-131.557,124.722L-131.488,124.861L-131.42,124.611L-131.351,125.194L-131.283,125.694L-131.214,126.194L-131.146,127.389L-131.077,127.861L-131.009,127.722L-130.941,128.25L-130.872,128.472L-130.804,128.806L-130.735,129.694L-130.667,130.444L-130.598,131.194L-130.53,131.694L-130.461,132.111L-130.393,132.139L-130.325,131.806L-130.256,131.806L-130.188,132.222L-130.119,132.611L-130.051,132.722L-129.982,132.833L-129.914,132.972L-129.845,133.139L-129.777,133L-129.709,133.222L-129.64,133.083L-129.572,133.556L-129.503,134.278L-129.435,134.5L-129.366,135.583L-129.298,136.111L-129.229,136.472L-129.161,136.306L-129.093,136.333L-129.024,136.444L-128.956,136.583L-128.887,136.556L-128.819,137.028L-128.75,137.583L-128.679,137.833L-128.611,137.944L-128.542,138.139L-128.474,138.306L-128.405,138.167L-128.337,138.639L-128.268,139.278L-128.2,139.694L-128.131,140.056L-128.063,140.25L-127.995,140.361L-127.926,140.528L-127.858,140.778L-127.789,141.111L-127.721,141.444L-127.652,141.694L-127.584,142.222L-127.515,142.444L-127.447,142.528L-127.379,142.639L-127.31,142.889L-127.242,143.056L-127.173,143.167L-127.105,143.5L-127.036,143.583L-126.968,142.639L-126.899,142.972L-126.831,143.25L-126.762,143.306L-126.694,143.278L-126.626,143.278L-126.557,143.194L-126.489,143.278L-126.42,143.444L-126.352,143.778L-126.283,144.083L-126.215,144.361L-126.146,144.361L-126.078,144.333L-126.01,144.472L-125.941,144.583L-125.873,144.639L-125.804,144.75L-125.736,144.694L-125.667,144.833L-125.599,145L-125.53,145.083L-125.462,145.083L-125.394,145.083L-125.257,145.139L-125.188,145.056L-125.12,144.917L-125.051,144.944L-124.983,144.917L-124.914,144.889L-124.846,146.083L-124.778,146.056L-124.709,146L-124.641,145.806L-124.572,145.694L-124.504,145.694L-124.435,145.75L-124.367,145.722L-124.298,145.806L-124.23,145.778L-124.162,145.361L-124.093,145.194L-124.025,145.056L-123.956,145.111L-123.888,145.056L-123.819,144.778L-123.751,144.5L-123.682,144.333L-123.614,144.306L-123.546,144.333L-123.477,144.306L-123.409,144.083L-123.34,144.083L-123.272,144L-123.203,143.694L-123.135,143.361L-123.066,143.278L-122.998,143.167L-122.93,143.194L-122.861,143.194L-122.793,142.972L-122.724,142.528L-122.656,142.139L-122.587,142.389L-122.519,142.472L-122.45,142.472L-122.382,142.556L-122.245,142.25L-122.177,141.75L-122.108,141.639L-122.04,141.75L-121.971,141.667L-121.903,141.528L-121.834,141.333L-121.766,140.639L-121.697,140.556L-121.629,140.861L-121.561,141.028L-121.492,140.833L-121.424,140.833L-121.355,140.833L-121.287,140.972L-121.218,140.611L-121.15,140.556L-121.081,140.833L-121.013,141.028L-120.945,141.111L-120.876,141.194L-120.808,141L-120.739,140.778L-120.671,140.722L-120.602,140.806L-120.534,140.944L-120.465,140.861L-120.397,140.667L-120.329,140.444L-120.26,139.944L-120.192,139.806L-120.123,139.556L-120.058,139.028L-119.989,138.917L-119.921,138.528L-119.852,138.528L-119.784,138.583L-119.715,138.889L-119.647,138.611L-119.578,138.306L-119.51,137.806L-119.442,137.417L-119.373,137.111L-119.305,136.861L-119.236,136.694L-119.168,136.028L-119.099,134.917L-119.031,133.806L-118.962,133.194L-118.894,132.444L-118.826,131.889L-118.757,131.722L-118.689,131.167L-118.62,130.639L-118.552,130.5L-118.483,130.194L-118.415,129.722L-118.346,129.111L-118.278,127.806L-118.21,127.417L-118.141,127.028L-118.073,127.083L-118.004,126.944L-117.936,126.472L-117.867,126.556L-117.799,126.472L-117.73,126.25L-117.662,126.444L-117.594,127.111L-117.525,127.278L-117.457,126.611L-117.388,126.5L-117.32,126.278L-117.251,125.833L-117.183,124.833L-117.114,124.583L-117.046,124.333L-116.978,124.306L-116.909,123.833L-116.841,123.861L-116.772,123.556L-116.704,123.25L-116.635,123.306L-116.567,123.167L-116.498,122.917L-116.43,122.167L-116.362,122L-116.293,121.472L-116.225,121.972L-116.156,121.861L-116.088,122.083L-116.019,122.083L-115.951,122.139L-115.882,122.333L-115.814,121.889L-115.745,121.194L-115.677,120.167L-115.609,118.722L-115.54,118.083L-115.472,117.361L-115.403,117.361L-115.335,116.694L-115.266,115.972L-115.198,115.972L-115.129,116.5L-115.061,116.778L-114.993,117.25L-114.924,117.556L-114.856,117.528L-114.787,117L-114.719,117.222L-114.65,116.528L-114.582,116.194L-114.513,115.944L-114.445,116.25L-114.377,116.806L-114.308,116.944L-114.24,117.556L-114.171,117.75L-114.103,118.278L-114.034,117.944L-113.966,117.722L-113.897,117.667L-113.829,117.333L-113.761,117.556L-113.692,117.306L-113.624,117.611L-113.555,118.333L-113.487,118.5L-113.418,118.75L-113.35,119.139L-113.281,119.833L-113.213,120.389L-113.145,120.25L-113.076,120.389L-113.008,120.861L-112.939,121.417L-112.871,121.611L-112.802,122.028L-112.734,122.444L-112.665,122.417L-112.597,122.694L-112.529,123.056L-112.46,123.5L-112.392,122.889L-112.323,122.694L-112.255,121.944L-112.186,121.667L-112.118,121.333L-112.049,121.278L-111.981,121.5L-111.913,121.111L-111.844,120.333L-111.776,119.444L-111.707,118.278L-111.639,118.111L-111.57,118.778L-111.502,118.556L-111.433,116.444L-111.365,114.611L-111.296,112.972L-111.228,111.5L-111.16,111.083L-111.091,111.25L-111.023,110.833L-110.954,110.417L-110.886,109.278L-110.817,109.417L-110.749,110.028L-110.68,110.861L-110.612,111.528L-110.544,111.583L-110.475,110.778L-110.407,110.111L-110.338,109.861L-110.27,108.861L-110.201,108.861L-110.133,109.389L-110.064,109.722L-109.996,109.972L-109.928,110.361L-109.859,110.972L-109.791,111.167L-109.722,111.583L-109.654,112.583L-109.585,113.25L-109.517,112.417L-109.448,112.639L-109.38,114.583L-109.312,115.972L-109.243,117.333L-109.175,118.417L-109.106,118.833L-109.038,118.528L-108.969,118.778L-108.901,118.694L-108.832,119.417L-108.764,118.444L-108.696,117.444L-108.627,116.528L-108.559,115.583L-108.49,116.028L-108.422,116.611L-108.353,117.111L-108.285,117.694L-108.216,119.056L-108.148,120.111L-108.08,120.083L-108.011,119.944L-107.943,119.139L-107.874,118.25L-107.806,117.583L-107.737,117.722L-107.669,117.778L-107.6,117.694L-107.532,117.861L-107.463,118.722L-107.395,119.083L-107.327,118.444L-107.258,118.778L-107.19,119.278L-107.121,119.944L-107.053,120.167L-106.984,120.278L-106.916,120.5L-106.847,120.556L-106.779,120.722L-106.711,121.778L-106.642,122.528L-106.574,122.667L-106.505,123.389L-106.437,123.889L-106.368,124.722L-106.3,125.639L-106.231,125.694L-106.163,125.5L-106.095,125L-106.026,124.889L-105.958,125.361L-105.889,126.056L-105.821,127.056L-105.752,128.222L-105.684,129.083L-105.615,129.5L-105.547,129.806L-105.479,130.25L-105.41,130.278L-105.342,130.306L-105.273,131.028L-105.205,131.361L-105.136,131.75L-105.068,131.833L-104.999,131.972L-104.931,132.222L-104.863,132L-104.794,132.75L-104.726,133.389L-104.657,133.694L-104.589,133.917L-104.52,134.694L-104.452,134.222L-104.383,134.028L-104.315,133.667L-104.247,133.5L-104.178,134.028L-104.11,134.417L-104.041,134.917L-103.973,135.083L-103.904,135.306L-103.836,135.472L-103.765,135.333L-103.696,135.444L-103.628,135.722L-103.559,136.278L-103.491,136.389L-103.422,136.528L-103.354,136.778L-103.285,137.333L-103.217,137.75L-103.149,137.889L-103.08,137.667L-103.012,137.889L-102.943,138.139L-102.875,138.583L-102.806,139.222L-102.738,139.167L-102.669,139.028L-102.601,139.028L-102.533,138.972L-102.464,139L-102.396,139.778L-102.327,140.167L-102.259,140.667L-102.19,140.472L-102.122,140.306L-102.053,140.111L-101.985,140.222L-101.916,140.778L-101.848,140.944L-101.78,141.167L-101.711,141.5L-101.643,141.361L-101.574,140.972L-101.506,141.222L-101.437,141.722L-101.369,141.694L-101.3,141.778L-101.232,141.611L-101.164,141.611L-101.095,141.722L-101.027,142.056L-100.958,142.194L-100.89,142.222L-100.821,142.333L-100.753,142.417L-100.684,142.5L-100.616,142.722L-100.548,142.778L-100.479,143.111L-100.411,143.028L-100.342,142.944L-100.274,142.583L-100.205,142.361L-100.137,142.417L-100.068,142.722L-100,143.25L-99.932,143.139L-99.863,142.972L-99.795,143L-99.726,142.667L-99.658,142.361L-99.589,142.444L-99.521,142.944L-99.452,142.917L-99.384,142.889L-99.316,142.806L-99.247,142.333L-99.179,142.444L-99.11,142.611L-99.042,142.694L-98.973,142.639L-98.905,142.583L-98.836,142.306L-98.768,141.972L-98.7,141.694L-98.631,141.833L-98.563,141.778L-98.494,141.361L-98.426,141.028L-98.357,141.194L-98.22,141L-98.152,141.333L-98.084,141.611L-98.015,141.556L-97.947,141.361L-97.878,141.417L-97.81,141.5L-97.741,141.417L-97.673,141.361L-97.604,141.667L-97.536,141.917L-97.467,141.806L-97.399,141.056L-97.331,140.694L-97.262,140.472L-97.194,140.417L-97.125,140.5L-97.057,139.722L-96.988,138.806L-96.92,138.611L-96.851,138.5L-96.783,137.722L-96.715,136.944L-96.646,136.361L-96.578,136.056L-96.509,134.75L-96.441,133.667L-96.372,132.944L-96.304,132.333L-96.235,131.889L-96.167,131.972L-96.099,131.806L-96.03,131.222L-95.962,131.306L-95.893,131.222L-95.825,130.889L-95.756,130.861L-95.688,130.861L-95.619,130.389L-95.551,129.861L-95.483,129.639L-95.414,129.528L-95.346,129.75L-95.277,129.722L-95.209,129.472L-95.143,129.361L-95.075,129.139L-95.006,129.417L-94.938,129.639L-94.869,128.694L-94.801,127.583L-94.732,126.25L-94.664,125.944L-94.596,125.944L-94.527,126.167L-94.459,126.417L-94.39,126.583L-94.322,127.472L-94.253,128.194L-94.185,128.139L-94.116,127.917L-94.048,127.472L-93.98,127.472L-93.911,127.139L-93.843,126.583L-93.774,126.361L-93.706,125.861L-93.637,125.667L-93.569,125.806L-93.5,125.972L-93.432,125.556L-93.364,125.139L-93.295,125.194L-93.227,124.833L-93.158,125.028L-93.09,124.889L-93.021,124.639L-92.953,124.389L-92.884,123.917L-92.816,124.333L-92.748,124.889L-92.679,126.167L-92.611,126.472L-92.542,125.722L-92.474,124.833L-92.405,125.083L-92.337,125.806L-92.268,125.472L-92.2,124.333L-92.132,124.194L-92.063,123.944L-91.995,122.917L-91.926,122.778L-91.858,122.194L-91.789,122.222L-91.721,122.083L-91.652,122.028L-91.584,121.278L-91.516,121L-91.447,120.444L-91.379,120.5L-91.31,120.611L-91.242,120.25L-91.173,120.25L-91.105,119.556L-91.036,118.778L-90.968,118.833L-90.899,118.694L-90.831,119.444L-90.763,119.778L-90.694,119L-90.626,118.556L-90.557,118L-90.489,118.806L-90.42,118.944L-90.352,118.528L-90.283,117.944L-90.215,117.778L-90.147,118.361L-90.078,118.194L-90.01,117.917L-89.941,118.806L-89.873,118.111L-89.804,118.472L-89.736,117.778L-89.667,117.528L-89.599,117.444L-89.531,118.028L-89.462,117.944L-89.394,117.306L-89.325,117.028L-89.257,116.694L-89.188,116.889L-89.12,117.194L-89.051,117.556L-88.983,118.222L-88.915,118.361L-88.846,118.472L-88.778,117.917L-88.709,117.444L-88.641,118.222L-88.572,119.083L-88.504,120.278L-88.435,120.472L-88.367,121.028L-88.299,121.306L-88.23,121.194L-88.162,120.806L-88.093,120.333L-88.025,120.472L-87.956,120.056L-87.888,119.389L-87.819,120L-87.751,120.028L-87.683,120.5L-87.614,120.694L-87.546,120.611L-87.477,120.194L-87.409,120.056L-87.34,120.778L-87.272,120.694L-87.203,120.528L-87.135,120.694L-87.067,120.694L-86.998,120.417L-86.93,120.167L-86.861,120.25L-86.793,120.167L-86.724,120.222L-86.656,120.306L-86.587,120.194L-86.519,119.611L-86.45,119.417L-86.382,119.75L-86.314,118.944L-86.245,118.806L-86.177,118.222L-86.108,118.083L-86.04,117.972L-85.971,117.556L-85.903,117.75L-85.834,117.917L-85.766,117.444L-85.698,116.806L-85.629,116.861L-85.561,116.694L-85.492,116.778L-85.424,116.194L-85.355,116.056L-85.287,115.917L-85.218,116.222L-85.15,116.611L-85.082,116.444L-85.013,116.278L-84.945,116.583L-84.876,116.5L-84.808,116.194L-84.739,116.417L-84.671,116.5L-84.602,116.444L-84.534,115.861L-84.466,115.917L-84.397,114.889L-84.329,113.444L-84.26,113.5L-84.192,113.806L-84.123,114.944L-84.055,115.694L-83.986,116.417L-83.918,115.889L-83.85,115.25L-83.781,115.25L-83.713,115.333L-83.644,115.889L-83.576,115.667L-83.507,115.75L-83.439,115.889L-83.37,115.778L-83.302,116L-83.234,116.472L-83.165,116.528L-83.097,116.583L-83.028,116.278L-82.96,115.917L-82.891,115.056L-82.823,115.361L-82.754,115.5L-82.686,115.833L-82.617,116L-82.549,116.611L-82.481,117.722L-82.412,117.667L-82.344,118.694L-82.275,120.056L-82.207,120.944L-82.138,121.056L-82.07,121.028L-82.001,120.861L-81.933,119.694L-81.865,120.583L-81.796,121.611L-81.728,122.222L-81.659,122.611L-81.591,122.75L-81.522,122.722L-81.454,122.278L-81.385,122.583L-81.317,124.333L-81.249,125.361L-81.18,125.806L-81.112,126.333L-81.043,126.861L-80.975,127.75L-80.906,128.944L-80.838,130.528L-80.769,131.194L-80.701,131.833L-80.633,131.806L-80.564,132.111L-80.496,132.167L-80.427,132.278L-80.359,133.306L-80.29,133.833L-80.222,134.056L-80.153,134.333L-80.085,134.778L-80.017,134.944L-79.948,135.444L-79.88,136.917L-79.811,137.306L-79.743,137.833L-79.674,138.333L-79.606,139L-79.537,139.694L-79.469,141L-79.401,142.278L-79.332,142.667L-79.127,142.528L-79.058,142L-78.99,141.944L-78.921,141.806L-78.85,141.917L-78.782,141.861L-78.713,141.722L-78.645,141.583L-78.576,141.222L-78.508,141.083L-78.439,141.444L-78.371,141.722L-78.303,141.861L-78.234,141.972L-78.166,141.806L-78.097,141.417L-78.029,141.667L-77.96,141.889L-77.892,142.139L-77.823,142.222L-77.755,142.25L-77.687,142.417L-77.618,142.5L-77.55,142.556L-77.481,142.667L-77.413,142.75L-77.344,142.694L-77.276,142.611L-77.207,142.639L-77.139,142.306L-77.07,142.194L-77.002,142.417L-76.934,142.611L-76.865,142.806L-76.797,142.917L-76.728,142.889L-76.66,142.778L-76.591,142.861L-76.523,143.139L-76.454,143.306L-76.386,143.139L-76.318,143.056L-76.249,143.139L-76.181,142.944L-76.112,142.944L-76.044,143.444L-75.975,143.444L-75.907,143.139L-75.838,142.917L-75.77,143L-75.702,143.028L-75.633,142.917L-75.565,143.083L-75.496,143.278L-75.428,143.417L-75.359,143.389L-75.291,143.389L-75.222,143.278L-75.154,143.222L-75.086,143.611L-75.017,143.722L-74.949,143.694L-74.88,143.5L-74.812,143.472L-74.743,143.306L-74.675,143.389L-74.606,143.417L-74.538,143.083L-74.47,143.028L-74.401,143.056L-74.333,143.111L-74.264,143.111L-74.196,143.139L-74.127,143.5L-74.059,143.528L-73.99,143.306L-73.922,143L-73.854,142.944L-73.785,142.861L-73.717,142.917L-73.648,143.083L-73.58,143.389L-73.511,143.417L-73.443,143.361L-73.374,143.222L-73.306,142.833L-73.238,142.639L-73.169,142.611L-73.101,142.417L-73.032,142.028L-72.964,141.778L-72.895,141.972L-72.827,141.833L-72.758,141.778L-72.69,141.917L-72.621,141.889L-72.553,142L-72.485,142.278L-72.416,142.333L-72.348,142.111L-72.279,141.833L-72.211,141.778L-72.142,141.722L-72.074,141.472L-72.005,141.5L-71.937,141.361L-71.869,141.389L-71.8,141.639L-71.732,141.806L-71.663,141.806L-71.595,141.722L-71.526,141.556L-71.458,141.444L-71.389,141.139L-71.321,140.944L-71.253,141.306L-71.184,141.444L-71.116,141.194L-71.047,141.25L-70.979,141.167L-70.91,141L-70.842,140.806L-70.773,140.639L-70.705,140.611L-70.637,140.444L-70.568,140.167L-70.5,139.639L-70.431,139.306L-70.363,138.972L-70.294,138.833L-70.229,138.278L-70.16,137.417L-70.092,137.028L-70.023,137.111L-69.955,136.583L-69.886,136.528L-69.818,136.472L-69.75,136.139L-69.681,135.083L-69.613,134.583L-69.544,134.139L-69.476,133.667L-69.407,133.306L-69.339,133.306L-69.27,133.139L-69.202,132.778L-69.134,132.167L-69.065,131.5L-68.997,130.833L-68.928,130.278L-68.86,130.472L-68.791,130.389L-68.723,130.194L-68.654,129.5L-68.586,128.611L-68.518,128.028L-68.449,127.861L-68.381,127.361L-68.312,127.056L-68.244,126.861L-68.175,127.028L-68.107,127.278L-68.038,126.528L-67.97,126.028L-67.902,126.444L-67.833,126.222L-67.765,125.75L-67.696,124.972L-67.628,124.639L-67.559,123.861L-67.491,123.972L-67.422,123.333L-67.354,122.306L-67.286,121.306L-67.217,120.583L-67.149,120.472L-67.08,120.75L-67.012,120.972L-66.943,120.333L-66.875,120.306L-66.806,119.528L-66.738,118.333L-66.67,117.5L-66.601,116.972L-66.533,117L-66.464,117.611L-66.396,117.472L-66.327,116.694L-66.259,116.472L-66.19,116.917L-66.122,117.222L-66.054,116.25L-65.985,116.861L-65.917,116.667L-65.848,115.222L-65.78,115.333L-65.711,115.417L-65.643,114.861L-65.574,115.194L-65.506,115.194L-65.437,114.944L-65.369,114.889L-65.301,114.944L-65.232,114.861L-65.164,114.639L-65.095,113.778L-65.027,113.5L-64.958,113.556L-64.89,113.889L-64.821,114.472L-64.753,114.806L-64.685,114.667L-64.616,115.583L-64.548,116.444L-64.479,116.889L-64.411,116.472L-64.342,116.556L-64.274,117.583L-64.205,117.75L-64.137,117.167L-64.069,117.167L-64,118.639L-63.932,118.778L-63.863,118.806L-63.795,119.861L-63.726,119.972L-63.658,119.611L-63.589,120.667L-63.521,121.167L-63.453,121.75L-63.384,121.722L-63.316,122.583L-63.247,123.417L-63.179,123.972L-63.11,124.861L-63.042,125.583L-62.973,125.389L-62.905,125.167L-62.837,125.222L-62.768,124.194L-62.7,123.833L-62.631,124.778L-62.563,124.167L-62.494,123.361L-62.426,123.444L-62.357,123.194L-62.289,122.667L-62.221,121.694L-62.152,121.222L-62.084,120.583L-62.015,120L-61.947,119.472L-61.878,119.417L-61.81,119.083L-61.741,118.806L-61.673,118.167L-61.604,118.25L-61.536,117.556L-61.468,116.944L-61.399,115.778L-61.331,114.889L-61.262,113.833L-61.194,113.222L-61.125,113.361L-61.057,112.778L-60.988,112.556L-60.92,112.25L-60.852,111.778L-60.783,111.667L-60.715,112.333L-60.646,112.694L-60.578,112.833L-60.509,112.389L-60.441,112.25L-60.372,111.389L-60.304,111.306L-60.236,112.139L-60.167,112.361L-60.099,112.028L-60.03,112L-59.962,111.75L-59.893,110.556L-59.825,109.444L-59.756,109.528L-59.688,109.639L-59.62,109.889L-59.551,110.472L-59.483,110.444L-59.414,110.444L-59.346,110.917L-59.277,111.333L-59.209,112L-59.14,112.139L-59.072,112.194L-59.004,112.167L-58.935,110.75L-58.867,111.139L-58.798,111.778L-58.73,112.139L-58.661,111.306L-58.593,110.889L-58.524,109.917L-58.456,109.556L-58.388,109.333L-58.319,109.694L-58.251,109.306L-58.182,108.389L-58.114,108.556L-58.045,108.5L-57.977,108.417L-57.908,108.444L-57.84,109.806L-57.772,110.667L-57.703,110.861L-57.635,110.944L-57.566,110.417L-57.498,109.389L-57.429,109.444L-57.361,109.694L-57.292,109.889L-57.224,110.083L-57.155,109.694L-57.087,109.25L-57.019,108.028L-56.95,108.111L-56.882,109.306L-56.813,109.639L-56.745,110.028L-56.676,110.611L-56.608,111.833L-56.539,111.972L-56.471,113.056L-56.403,114.667L-56.334,116.194L-56.266,116.556L-56.197,117.417L-56.129,118L-56.06,117.861L-55.992,118.472L-55.923,119.806L-55.855,120.806L-55.787,120.611L-55.718,120.944L-55.65,121.167L-55.581,121.361L-55.513,122.194L-55.444,123.361L-55.376,124.667L-55.307,125.583L-55.239,126.694L-55.171,127.333L-55.102,127.583L-55.034,128.278L-54.965,129.694L-54.897,130.389L-54.828,131.361L-54.76,131.389L-54.691,131.25L-54.623,130.833L-54.555,131.306L-54.486,132.306L-54.418,132.778L-54.349,133.083L-54.281,133.306L-54.212,133.861L-54.144,134.111L-54.075,134.667L-54.007,135.806L-53.936,136.528L-53.867,136.333L-53.799,136.306L-53.73,136.667L-53.662,136.833L-53.593,137.167L-53.525,137.778L-53.457,138.194L-53.388,138.361L-53.32,138.278L-53.251,138.194L-53.183,138.083L-53.114,138.472L-53.046,139.306L-52.977,140.028L-52.909,140.361L-52.841,140.528L-52.772,140.139L-52.704,139.917L-52.635,139.722L-52.567,140.139L-52.498,140L-52.43,139.944L-52.361,140L-52.293,139.889L-52.225,139.611L-52.156,139.361L-52.088,139.667L-52.019,139.778L-51.951,139.944L-51.882,140.278L-51.814,140.5L-51.745,140.778L-51.677,141.083L-51.608,141.472L-51.54,141.861L-51.472,141.694L-51.403,141.667L-51.335,141.667L-51.266,141.389L-51.198,141.111L-51.129,141.194L-51.061,141.056L-50.992,140.611L-50.924,140.333L-50.856,140.028L-50.787,139.444L-50.719,139.806L-50.65,140.444L-50.582,141.056L-50.513,141.389L-50.445,141.5L-50.376,141.528L-50.308,141.333L-50.24,141.389L-50.171,141.583L-50.103,141.778L-50.034,141.833L-49.966,141.889L-49.897,141.778L-49.829,141.083L-49.76,140.778L-49.692,140.778L-49.624,140.75L-49.555,140.639L-49.487,140.583L-49.418,140.611L-49.35,140.5L-49.281,140.444L-49.213,140.556L-49.144,141.056L-49.076,141.139L-49.008,141.306L-48.939,141.694L-48.871,141.972L-48.802,142.417L-48.734,142.944L-48.665,143.056L-48.597,143.056L-48.528,143.167L-48.46,142.778L-48.392,142.056L-48.323,141.639L-48.255,141.694L-48.186,141.75L-48.118,141.722L-48.049,141.694L-47.981,141.583L-47.912,141.472L-47.844,141.361L-47.775,141.833L-47.707,142.139L-47.639,142.167L-47.57,142.361L-47.502,142.111L-47.433,141.278L-47.365,140.833L-47.296,140.75L-47.228,139.972L-47.159,139.694L-47.091,139.722L-47.023,139.528L-46.954,138.5L-46.886,138.417L-46.817,138.361L-46.749,138L-46.68,138.111L-46.612,138.111L-46.543,137.944L-46.475,137.194L-46.407,136.944L-46.338,137.639L-46.27,138L-46.201,137.972L-46.133,137.833L-46.064,137.361L-45.996,136.639L-45.927,136.389L-45.859,136.194L-45.791,135.75L-45.722,135.25L-45.654,134.806L-45.585,134.75L-45.517,134.333L-45.448,133.944L-45.38,134.472L-45.314,134.639L-45.246,134.528L-45.177,134.972L-45.109,134.611L-45.04,132.889L-44.972,131.361L-44.904,130.972L-44.835,130.75L-44.767,130.583L-44.698,130.722L-44.63,130.083L-44.561,129.111L-44.493,128.417L-44.424,128.472L-44.356,128.25L-44.288,127.611L-44.219,127.222L-44.151,126.722L-44.082,125.806L-44.014,125.389L-43.945,125.5L-43.877,125.361L-43.808,125.778L-43.74,125.5L-43.672,124.167L-43.603,123.056L-43.535,122.222L-43.466,121.667L-43.398,121.472L-43.329,120.694L-43.261,120.056L-43.192,119.222L-43.124,118.056L-43.056,117.639L-42.987,117.389L-42.919,117.833L-42.85,118.056L-42.782,117.861L-42.713,117.278L-42.645,115.722L-42.576,114.583L-42.508,114.833L-42.44,114.278L-42.371,113.194L-42.303,113.083L-42.234,113.028L-42.166,112.333L-42.097,111.028L-42.029,110.056L-41.96,109.194L-41.892,108.944L-41.824,108.583L-41.755,106.556L-41.687,105.583L-41.618,105.306L-41.55,104.972L-41.481,103.889L-41.413,103.083L-41.344,102.333L-41.276,101.75L-41.208,100.056L-41.139,98.833L-41.071,99.139L-41.002,98.833L-40.934,99.056L-40.865,99L-40.797,98.833L-40.728,97.306L-40.66,95.972L-40.591,95.694L-40.523,96.111L-40.455,95.083L-40.386,95.139L-40.318,94.917L-40.249,93.028L-40.181,91.278L-40.112,91.083L-40.044,91.139L-39.975,91.556L-39.907,92.25L-39.839,91.75L-39.77,90.444L-39.702,90.361L-39.633,90.806L-39.565,91.639L-39.496,92.972L-39.428,94.333L-39.359,95.083L-39.291,95L-39.223,94.639L-39.154,96.194L-39.086,97.639L-39.017,97.694L-38.949,98.028L-38.88,97.972L-38.812,97.278L-38.743,96.639L-38.675,98.667L-38.607,100.694L-38.538,101.444L-38.47,101.444L-38.401,101.333L-38.333,100.361L-38.264,100.389L-38.196,101.139L-38.127,102.111L-38.059,102.417L-37.991,102.611L-37.922,101.944L-37.854,100.417L-37.785,100L-37.717,100.5L-37.648,100.917L-37.58,101L-37.511,100.667L-37.443,99.667L-37.375,98.778L-37.306,98.528L-37.238,99.167L-37.169,99.806L-37.101,99.528L-37.032,98.972L-36.964,98.944L-36.895,98.083L-36.827,98.333L-36.758,98.806L-36.69,99.694L-36.622,98.806L-36.553,97.028L-36.485,96.722L-36.416,95.806L-36.348,95.639L-36.279,96.861L-36.211,97.278L-36.142,97.528L-36.074,98.028L-36.006,98.111L-35.937,98.028L-35.869,97.972L-35.8,99.306L-35.732,99.694L-35.663,100.056L-35.595,100.333L-35.526,100.139L-35.458,99.806L-35.39,100.222L-35.321,101L-35.253,101.611L-35.184,101.444L-35.116,101.278L-35.047,101.722L-34.979,101.278L-34.91,101.056L-34.842,101.806L-34.774,102.167L-34.705,102.444L-34.637,101.861L-34.568,101.5L-34.5,101.222L-34.431,101.083L-34.363,102.056L-34.294,102.778L-34.226,102.583L-34.158,102.25L-34.089,102.139L-34.021,100.472L-33.952,99.417L-33.884,99.806L-33.815,101.306L-33.747,100.833L-33.678,101.139L-33.61,100.361L-33.542,98.972L-33.473,98.389L-33.405,98.722L-33.336,98.861L-33.268,98.361L-33.199,97.556L-33.131,97.083L-33.062,96.389L-32.994,96.083L-32.926,96.75L-32.857,97.111L-32.789,97.556L-32.72,97.556L-32.652,97.472L-32.583,97.194L-32.515,97.528L-32.446,98.611L-32.378,99.333L-32.309,99.833L-32.241,99.833L-32.173,99.389L-32.104,98.861L-32.036,99.444L-31.967,101.222L-31.899,102.111L-31.83,103.222L-31.762,103.722L-31.693,104.194L-31.625,103.278L-31.557,104.056L-31.488,106.139L-31.42,107.028L-31.351,107.722L-31.283,107.861L-31.214,108L-31.146,108.889L-31.077,110.278L-31.009,111.333L-30.941,111.639L-30.872,112.056L-30.804,112.806L-30.735,113.389L-30.667,113.861L-30.598,114.583L-30.53,115.556L-30.461,115.139L-30.393,115.694L-30.325,116.389L-30.256,116.75L-30.188,117.278L-30.119,118.472L-30.051,120.667L-29.982,121.778L-29.914,122.389L-29.845,123.028L-29.777,122.806L-29.709,122.611L-29.64,122.861L-29.572,124.139L-29.503,124.583L-29.435,125.111L-29.366,126.139L-29.298,126.889L-29.229,127.5L-29.161,127.944L-29.093,128.25L-29.021,128.278L-28.953,129.056L-28.884,129.389L-28.816,130.139L-28.747,130.167L-28.679,130.139L-28.611,130.583L-28.542,131.167L-28.474,131.389L-28.405,132.583L-28.337,132.75L-28.268,132.25L-28.2,132.083L-28.131,131.472L-28.063,131.444L-27.995,131.139L-27.926,130.667L-27.858,130.583L-27.789,130.556L-27.721,130.722L-27.652,131.056L-27.584,131.667L-27.515,132.083L-27.447,132.639L-27.379,132.333L-27.31,132.194L-27.242,131.806L-27.173,131.861L-27.105,132.111L-27.036,132.194L-26.968,132.194L-26.899,132.139L-26.831,132.333L-26.762,132.222L-26.694,132.139L-26.626,132.028L-26.557,132L-26.489,132L-26.42,132.5L-26.352,132.639L-26.283,132.806L-26.215,133.417L-26.146,133.944L-26.078,135.194L-26.01,135.639L-25.941,136L-25.873,136.333L-25.804,136.389L-25.736,136.306L-25.667,136.056L-25.599,135.75L-25.53,135.861L-25.462,135.722L-25.394,135.5L-25.325,135.611L-25.257,136L-25.188,136.389L-25.12,136.556L-25.051,136.528L-24.983,136.444L-24.914,136.444L-24.846,136.333L-24.778,136.778L-24.709,136.694L-24.641,137L-24.572,137.278L-24.504,137.333L-24.435,137.139L-24.367,136.833L-24.298,136.972L-24.23,136.944L-24.162,136.861L-24.093,136.778L-24.025,136.667L-23.956,136.611L-23.888,136.833L-23.819,136.917L-23.751,136.972L-23.682,137.389L-23.614,137.806L-23.546,138.194L-23.477,138.306L-23.409,138.528L-23.34,138.972L-23.272,139.083L-23.203,138.722L-23.135,138.528L-23.066,138.389L-22.998,138.083L-22.93,138.028L-22.861,137.944L-22.793,138.194L-22.724,137.694L-22.656,137.806L-22.587,137.583L-22.519,137.389L-22.45,137.028L-22.382,136.333L-22.313,136.361L-22.245,135.083L-22.177,134.778L-22.108,134.417L-22.04,133.861L-21.971,133.528L-21.903,133.056L-21.834,132.583L-21.766,132.139L-21.697,131.639L-21.629,131.611L-21.561,130.972L-21.492,130.444L-21.424,130.389L-21.355,130.111L-21.287,129.5L-21.218,129.306L-21.15,128.833L-21.081,128.722L-21.013,128.667L-20.945,128.639L-20.876,128.472L-20.808,127.889L-20.739,126.75L-20.671,126.111L-20.602,124.917L-20.534,124L-20.465,123.444L-20.4,122.722L-20.331,122.889L-20.263,122.528L-20.195,122.694L-20.126,121.75L-20.058,120.861L-19.989,120.833L-19.921,120.139L-19.852,119.194L-19.784,118.556L-19.715,116.694L-19.647,114.667L-19.578,112.889L-19.51,113.194L-19.442,112.639L-19.373,112.028L-19.305,112L-19.236,111.917L-19.168,110.694L-19.099,110.167L-19.031,109.556L-18.962,108.361L-18.894,107.611L-18.826,106.861L-18.757,106.583L-18.689,106.056L-18.62,105.083L-18.552,104.444L-18.483,103.556L-18.415,102.389L-18.346,101.833L-18.278,99.833L-18.21,97.667L-18.141,96.306L-18.073,95.472L-18.004,94.806L-17.936,93.667L-17.867,93.333L-17.799,92.972L-17.73,91.889L-17.662,92.528L-17.594,93.417L-17.525,93.861L-17.457,92.972L-17.388,93.083L-17.32,92.333L-17.251,90.75L-17.183,89.528L-17.114,89.444L-17.046,89.028L-16.978,88.833L-16.909,88.639L-16.841,88.111L-16.772,86.611L-16.704,86.25L-16.635,87.722L-16.567,89.306L-16.498,89.806L-16.43,90.028L-16.362,90.5L-16.293,89.306L-16.225,89.806L-16.156,91.389L-16.088,92.667L-16.019,92.722L-15.951,93.306L-15.882,93.861L-15.814,93.556L-15.745,94.278L-15.677,95.75L-15.609,96.611L-15.54,97.056L-15.472,96.75L-15.403,95.861L-15.335,94.944L-15.266,94.889L-15.198,95.667L-15.129,96.083L-15.061,95.694L-14.993,95.528L-14.924,94.667L-14.856,94.444L-14.787,94.611L-14.719,94.806L-14.65,94.528L-14.582,92.833L-14.513,90.583L-14.445,89.333L-14.377,89.583L-14.308,89.083L-14.24,90.444L-14.171,91.639L-14.103,91.806L-14.034,92.028L-13.966,93L-13.897,92.583L-13.829,91.111L-13.761,91.028L-13.692,91L-13.624,90.194L-13.555,88.778L-13.487,88.167L-13.418,88.028L-13.35,88.25L-13.281,88.944L-13.213,89.667L-13.145,89.361L-13.076,88.5L-13.008,88.389L-12.939,87.25L-12.871,87.778L-12.802,88.306L-12.734,88.972L-12.665,90.278L-12.597,90.861L-12.529,90.917L-12.46,91.972L-12.392,93.139L-12.323,93.611L-12.255,94.472L-12.186,94.417L-12.118,93.583L-12.049,93.083L-11.981,91.583L-11.913,90.75L-11.844,91.75L-11.776,93.639L-11.707,93.806L-11.639,93.278L-11.57,92.722L-11.502,93.056L-11.433,93.25L-11.365,94.139L-11.296,94.778L-11.228,94.722L-11.16,94.306L-11.091,94.75L-11.023,94.611L-10.954,95.083L-10.886,96.361L-10.817,96.306L-10.749,95.861L-10.68,94.75L-10.612,93.944L-10.544,92.944L-10.475,93.222L-10.407,93.889L-10.338,94.306L-10.27,93.944L-10.201,94.222L-10.133,94.167L-10.064,94.194L-9.996,93.917L-9.928,94.75L-9.859,95.639L-9.791,95.417L-9.722,95.639L-9.654,96.056L-9.585,95.472L-9.517,95.556L-9.448,96.278L-9.38,96.361L-9.312,95.694L-9.243,95.556L-9.175,94.556L-9.106,93.472L-9.038,92.472L-8.969,93.583L-8.901,93.472L-8.832,92.917L-8.764,92.361L-8.696,91.972L-8.627,91.139L-8.559,90.417L-8.49,91.139L-8.422,91.5L-8.353,91.722L-8.285,92.056L-8.216,93L-8.148,93.194L-8.08,93.583L-8.011,93.528L-7.943,93.972L-7.874,94.361L-7.806,94.389L-7.737,94.056L-7.669,92.444L-7.6,91.972L-7.532,93.167L-7.463,93.917L-7.395,93.778L-7.327,94.139L-7.258,94.111L-7.19,93.806L-7.121,95.389L-7.053,97.167L-6.984,98.333L-6.916,97.583L-6.847,97.722L-6.779,98.278L-6.711,98.611L-6.642,99.389L-6.574,101.583L-6.505,103.278L-6.437,104.25L-6.368,104.417L-6.3,104.056L-6.231,102.833L-6.163,101.917L-6.095,101.528L-6.026,102.028L-5.958,102.639L-5.889,103.194L-5.821,102.222L-5.752,100.639L-5.684,101L-5.615,102.306L-5.547,103.167L-5.479,103.611L-5.41,104.083L-5.342,104.806L-5.273,105.167L-5.205,105.75L-5.136,106.5L-5.068,106.25L-4.999,106L-4.931,106.389L-4.863,107.611L-4.794,107.694L-4.726,108.139L-4.657,109.806L-4.589,110.583L-4.52,110.778L-4.452,111.028L-4.383,110.889L-4.315,110.972L-4.247,111.5L-4.178,113.167L-4.107,114.25L-4.038,114.806L-3.97,114.694L-3.901,115.167L-3.833,114.778L-3.765,115.861L-3.696,118.028L-3.628,118.5L-3.559,118.361L-3.491,118.333L-3.422,117.806L-3.354,115.833L-3.285,114.806L-3.217,115.222L-3.149,115.917L-3.08,116.417L-3.012,116.694L-2.943,116.583L-2.875,116.778L-2.806,117.111L-2.738,118.278L-2.669,118.694L-2.601,118.5L-2.533,118.139L-2.464,117.722L-2.396,117.444L-2.327,117.444L-2.259,118.361L-2.19,118.583L-2.122,118.556L-2.053,118.444L-1.985,118.389L-1.916,118.667L-1.848,119.417L-1.78,120.278L-1.711,121.333L-1.643,121.778L-1.574,121.972L-1.506,122.556L-1.437,122.25L-1.369,123L-1.3,125.389L-1.232,127.056L-1.164,127.5L-1.095,127.583L-1.027,127.639L-0.958,127.583L-0.89,127.917L-0.821,128.139L-0.753,128.583L-0.684,128.861L-0.616,129.472L-0.548,129.639L-0.479,130.194L-0.411,130.944L-0.342,131.556L-0.274,131.806L-0.205,131.5L-0.137,131.778L-0.068,131.361L0,131.083L0.068,131L0.137,131.528L0.205,131.306L0.274,131.25L0.342,130.528L0.411,130.333L0.479,130.139L0.548,129.972L0.616,131.222L0.684,131.361L0.753,131.25L0.821,131.139L0.89,131.194L0.958,131.5L1.027,131.944L1.095,132.833L1.164,132.917L1.232,132.944L1.3,132.667L1.369,132.083L1.437,131.056L1.506,130.389L1.574,130.194L1.643,130.306L1.711,130.583L1.78,130.639L1.848,130.917L1.916,129.944L1.985,129.611L2.053,130.028L2.122,130.333L2.19,130.389L2.259,130.5L2.327,130.583L2.396,130.389L2.464,129.806L2.533,129.917L2.601,129.861L2.669,128.75L2.738,127.056L2.806,126.111L2.875,124.778L2.943,123.722L3.012,123.333L3.08,122.806L3.149,122L3.217,121.611L3.285,120.111L3.354,119.333L3.422,119.25L3.491,120.333L3.559,120.528L3.628,119.583L3.696,118.778L3.765,117.444L3.833,116.5L3.901,116.056L3.97,116.5L4.038,117.111L4.107,116.833L4.175,116.167L4.244,114.111L4.312,111.778L4.381,111.472L4.449,112.25L4.517,112.778L4.586,113.139L4.654,113.111L4.723,113.417L4.791,114.611L4.86,115.25L4.928,116.194L4.994,116.472L5.062,115.306L5.131,114.278L5.199,113.528L5.268,112.278L5.336,110.889L5.404,109.861L5.473,107.833L5.541,106.944L5.61,105.333L5.678,103.556L5.747,101.694L5.815,100.972L5.884,99.278L5.952,97.5L6.02,96.444L6.089,94.917L6.157,94.306L6.226,93.694L6.294,94.611L6.363,95.444L6.431,94.167L6.5,91.167L6.568,90.222L6.636,89.278L6.705,86.25L6.773,85.111L6.842,84.111L6.91,82.972L6.979,81.389L7.047,79.833L7.116,79.361L7.184,78.944L7.252,79.194L7.321,79.917L7.389,81.472L7.458,82.306L7.526,83.194L7.595,81.889L7.663,82L7.732,83.5L7.8,84.667L7.868,85.75L7.937,86.25L8.005,85.611L8.074,85.111L8.142,84.667L8.211,84.167L8.279,84.444L8.348,83.556L8.416,82.889L8.484,83.444L8.553,85.056L8.621,84.278L8.69,84.028L8.758,86.5L8.827,86.639L8.895,87.139L8.964,86.972L9.032,86.694L9.101,86.028L9.169,86.417L9.237,86.889L9.306,85.861L9.374,85.139L9.443,84.861L9.511,83.694L9.58,82L9.648,81.528L9.717,81.944L9.785,82.167L9.853,81.611L9.922,80.944L9.99,81.333L10.059,81.444L10.127,81.056L10.196,82.25L10.264,82.611L10.333,82.333L10.401,82.5L10.469,83.5L10.538,82.778L10.606,82.167L10.675,82.528L10.743,82.111L10.812,82.167L10.88,83.083L10.949,83.417L11.017,83.694L11.085,83.944L11.154,85.75L11.222,85.444L11.291,85.75L11.359,86.583L11.428,87.472L11.496,87.639L11.565,89L11.633,91.556L11.701,93.139L11.77,93.583L11.838,93.556L11.907,94.639L11.975,95.139L12.044,96L12.112,98.389L12.181,99.528L12.249,99.972L12.317,100.444L12.386,101.389L12.454,102.111L12.523,102.611L12.591,103.75L12.66,104.389L12.728,104.75L12.797,105.056L12.865,104.583L12.933,103.528L13.002,102.667L13.07,103.056L13.139,103.556L13.207,103.75L13.276,104.222L13.344,104.278L13.413,104.417L13.481,104.806L13.55,105.5L13.618,105.972L13.686,106.25L13.755,106.306L13.823,106.722L13.892,106.917L13.96,107.083L14.029,107.472L14.097,107.111L14.166,106.333L14.234,106.417L14.302,106.056L14.371,105.528L14.439,104.944L14.508,105.139L14.576,104.639L14.645,104.306L14.713,105.111L14.782,105.083L14.85,104.25L14.918,103.694L14.987,104.222L15.055,105.278L15.124,105.056L15.192,105.611L15.261,105.278L15.329,105L15.398,103.667L15.466,103.444L15.534,102.333L15.603,101.861L15.671,101.194L15.74,100.278L15.808,99.528L15.877,98.583L15.945,98.889L16.014,99L16.082,98.333L16.15,98.278L16.219,97.917L16.287,96.694L16.356,95.583L16.424,95.778L16.493,95.528L16.561,95.083L16.63,95.361L16.698,95.917L16.766,94.833L16.835,94.222L16.903,94.75L16.972,95.333L17.04,94.917L17.109,93.806L17.177,93.528L17.246,92L17.314,91.972L17.383,92.611L17.451,93.694L17.519,93.417L17.588,93.5L17.656,93.333L17.725,92.056L17.793,91.5L17.862,92.444L17.93,92.5L17.999,91.667L18.067,91.083L18.135,90.917L18.204,91.444L18.272,91.972L18.341,93.333L18.409,94.639L18.478,95.333L18.546,96.528L18.615,97.25L18.683,96.361L18.751,95.167L18.82,96L18.888,96.917L18.957,96.944L19.025,97.528L19.094,98.167L19.162,98.028L19.231,98.694L19.299,100.389L19.367,100.861L19.436,101.583L19.504,102.333L19.573,103.583L19.641,104.528L19.71,105.306L19.778,107.278L19.847,108.639L19.915,108.639L19.983,109.306L20.052,110.111L20.12,110.056L20.189,111.528L20.257,112.278L20.326,113.278L20.394,113.889L20.463,113.972L20.531,113.917L20.599,113.167L20.668,113.278L20.736,114.833L20.805,116.583L20.873,117.083L20.942,117.722L21.01,118.806L21.079,118.806L21.147,119.361L21.215,121.306L21.287,122.194L21.355,122.722L21.424,123.25L21.492,123.472L21.561,123.222L21.629,123.306L21.697,124.028L21.766,124.194L21.834,124.139L21.903,124.944L21.971,125.722L22.04,126.194L22.108,127.028L22.177,128.361L22.245,128.194L22.313,128L22.382,128.056L22.45,128.417L22.519,128.861L22.587,129.389L22.656,130.167L22.724,130.361L22.793,130.361L22.861,130.25L22.93,130.306L22.998,130.25L23.066,130.083L23.135,130.972L23.203,131.639L23.272,131.472L23.34,131.611L23.409,131.944L23.477,131.972L23.546,131.944L23.614,132.778L23.682,133.139L23.751,132.917L23.819,132.111L23.888,131.611L23.956,131.167L24.025,130.556L24.093,130.75L24.162,130.944L24.23,130.611L24.298,130.25L24.367,130.194L24.435,129.25L24.504,128.306L24.572,128.5L24.641,128.472L24.709,128.139L24.778,128.028L24.846,127.722L24.914,127.194L24.983,126.611L25.051,126.944L25.12,127.528L25.188,127.278L25.257,126.972L25.325,127.028L25.394,126.583L25.462,125.861L25.53,125.889L25.599,125.917L25.667,125.556L25.736,125.333L25.804,125.722L25.873,126.556L25.941,126.861L26.01,127.111L26.078,127.889L26.146,128.417L26.215,128.528L26.283,129L26.352,128.833L26.42,128.222L26.489,128.917L26.557,129.833L26.626,129L26.694,127.472L26.762,126.639L26.831,125.028L26.899,125.083L26.968,125.639L27.036,125.833L27.105,124.806L27.173,124.722L27.242,124.972L27.31,124.917L27.379,124.778L27.447,124.917L27.515,125.167L27.584,124.556L27.652,124.139L27.721,124.194L27.789,124.389L27.858,124.194L27.926,124.694L27.995,125.528L28.063,125.75L28.131,125.75L28.2,124.667L28.268,124.361L28.337,123.944L28.405,124.472L28.474,124.722L28.542,124.361L28.611,124.472L28.679,124.778L28.747,125.278L28.816,125.806L28.884,127.194L28.953,127.639L29.021,127.639L29.09,127.75L29.158,128.806L29.227,128.333L29.295,127.194L29.363,126.75L29.432,126.444L29.5,125.528L29.569,125.556L29.637,125.917L29.706,125.139L29.774,123.444L29.843,121.361L29.908,118.056L29.977,115.444L30.045,113.611L30.114,110.667L30.182,108.889L30.25,107.444L30.319,105.389L30.387,104.639L30.456,103.556L30.524,102.861L30.593,102.583L30.661,101.111L30.73,100.528L30.798,100.861L30.866,101.667L30.935,101.75L31.003,100.861L31.072,98.944L31.14,95.222L31.209,92.806L31.277,91.944L31.346,91.778L31.414,91.306L31.482,91L31.551,91.583L31.619,90.611L31.688,89.083L31.756,89.667L31.825,90.5L31.893,91.111L31.962,93.306L32.03,93.972L32.098,94.944L32.167,97.194L32.235,97.806L32.304,98.75L32.372,97.75L32.441,95.944L32.509,95.25L32.578,94.528L32.646,93.361L32.714,94.167L32.783,93.806L32.851,92.889L32.92,92.028L32.988,91.222L33.057,88.75L33.125,87.917L33.194,90.639L33.262,91.528L33.33,91.528L33.399,90.583L33.467,88.722L33.536,85.694L33.604,82.139L33.673,82.222L33.741,82.944L33.81,82.528L33.878,81.278L33.946,80.472L34.015,78.611L34.083,77.667L34.152,76.667L34.22,76.25L34.289,75.833L34.357,74.639L34.426,75.944L34.494,76.833L34.563,76.667L34.631,78.139L34.699,79.306L34.768,78.306L34.836,78.444L34.905,78.556L34.973,77.361L35.042,75.417L35.11,77.028L35.179,78.333L35.247,78L35.315,77.472L35.384,77.139L35.452,77.75L35.521,78.972L35.589,81.361L35.658,82.889L35.726,82.417L35.795,82.167L35.863,82.167L35.931,83.028L36,82.806L36.068,84.472L36.137,86L36.205,86.667L36.274,86.917L36.342,87.806L36.411,88.389L36.479,88L36.547,88.972L36.616,90.917L36.684,90.444L36.753,90.222L36.821,90.583L36.89,90.5L36.958,90.639L37.027,91.861L37.095,92.944L37.163,92.75L37.232,92.5L37.3,92.889L37.369,91.694L37.437,91.111L37.506,91.306L37.574,91.611L37.643,92L37.711,93.139L37.779,93.611L37.848,93.361L37.916,92.5L37.985,92.778L38.053,94.583L38.122,93.889L38.19,93.194L38.259,92.917L38.327,91.5L38.396,90.278L38.464,90.75L38.532,91.889L38.601,91.611L38.669,90.694L38.738,90.361L38.806,89.417L38.875,88.472L38.943,88.639L39.012,89.028L39.08,88.528L39.148,88.778L39.217,88.944L39.285,88.5L39.354,86.861L39.422,88.222L39.491,90L39.559,89.722L39.628,89.222L39.696,88.917L39.764,88.889L39.833,88.167L39.901,88.028L39.97,88.472L40.038,89L40.107,87.889L40.175,87.806L40.244,86.75L40.312,84.806L40.38,85.583L40.449,85.444L40.517,85.222L40.586,84.861L40.654,84.556L40.723,82.972L40.791,81.528L40.86,82.028L40.928,83.167L40.996,82.972L41.065,81.528L41.133,80.333L41.202,79.056L41.27,78.528L41.339,79.333L41.407,81.056L41.476,81.472L41.544,80.778L41.612,81.056L41.681,80.472L41.749,79.694L41.818,79.417L41.886,79.528L41.955,79.722L42.023,80.056L42.092,79.167L42.16,78.361L42.228,77.889L42.297,80.056L42.365,81.917L42.434,82.056L42.502,82.75L42.571,83.111L42.639,82.167L42.708,81.222L42.776,83L42.845,85.25L42.913,85.833L42.981,85.5L43.05,84.917L43.118,84.222L43.187,83.5L43.255,84.861L43.324,86.361L43.392,86.444L43.461,87.139L43.529,87.056L43.597,85.667L43.666,85.639L43.734,87.583L43.803,88.944L43.871,89.972L43.94,90.722L44.008,90.917L44.077,90.5L44.145,90.667L44.213,92.583L44.282,94.944L44.35,95.25L44.419,95.833L44.487,96.917L44.556,97.639L44.624,98.222L44.693,100.333L44.761,102.333L44.829,102.889L44.898,103.278L44.966,103.75L45.035,104.583L45.103,106.083L45.172,108.944L45.24,111.556L45.309,112.944L45.377,113.444L45.445,114.5L45.514,114.083L45.582,114.5L45.651,116.889L45.719,118.139L45.788,118.278L45.856,118.528L45.925,118.583L45.993,118.722L46.061,119.194L46.13,120.222L46.201,121.306L46.27,121.306L46.338,121.028L46.407,121.25L46.475,121.5L46.543,121.528L46.612,121.944L46.68,122.944L46.749,123.333L46.817,123.833L46.886,124.194L46.954,124.583L47.023,124.556L47.091,124.472L47.159,124.694L47.228,124.667L47.296,125.111L47.365,125.111L47.433,125.139L47.502,125.528L47.57,126.833L47.639,128.111L47.707,128.583L47.775,129.111L47.844,129.444L47.912,130.139L47.981,131.056L48.049,131.972L48.118,133.222L48.186,133.972L48.255,134.278L48.323,135.194L48.392,135.944L48.46,136.639L48.528,137.389L48.597,137.583L48.665,137.667L48.734,137.028L48.802,136.556L48.871,136.167L48.939,136.333L49.008,136.333L49.076,136.778L49.144,137.472L49.213,137.806L49.281,137.583L49.35,137.083L49.418,136.944L49.487,136.75L49.555,136.361L49.624,136L49.692,135.944L49.76,135.694L49.829,134.222L49.897,133.722L49.966,132.75L50.034,131.861L50.103,131.722L50.171,130.972L50.24,130.556L50.308,130.083L50.376,129.361L50.445,129.056L50.513,128.028L50.582,127.833L50.65,127.444L50.719,127.194L50.787,126.861L50.856,127.306L50.924,127.194L50.992,126.944L51.061,126.583L51.129,126.222L51.198,126.139L51.266,125.861L51.335,126.028L51.403,126.306L51.472,125.944L51.54,125.028L51.608,125.083L51.677,124.75L51.745,123.861L51.814,123.333L51.882,123.917L51.951,123.889L52.019,123.556L52.088,123.833L52.156,124.111L52.225,123.972L52.293,123.444L52.361,123.75L52.43,124L52.498,124.194L52.567,124.583L52.635,124.556L52.704,124.333L52.772,124.278L52.841,124.806L52.909,124.75L52.977,125.25L53.046,125.194L53.114,125.056L53.183,124.889L53.251,124.361L53.32,124.278L53.388,124.139L53.457,124.528L53.525,125.25L53.593,126.278L53.662,125.806L53.73,125.667L53.799,126.056L53.867,126.083L53.936,126.139L54.004,126.083L54.073,126.389L54.141,125.389L54.209,124.583L54.278,124.833L54.346,125L54.415,124.611L54.483,124.528L54.552,123.75L54.62,122.639L54.689,122.222L54.757,123.083L54.823,123.139L54.891,122.861L54.96,121.889L55.028,119.944L55.096,117.5L55.165,117.444L55.233,117.694L55.302,118.083L55.37,118.056L55.439,117.917L55.507,117.694L55.576,116.389L55.644,115.25L55.712,115.361L55.781,115.278L55.849,115.361L55.918,114.444L55.986,113.75L56.055,113.056L56.123,113.222L56.192,114.056L56.26,112.222L56.328,109.639L56.397,107.917L56.465,106.528L56.534,103.944L56.602,102.139L56.671,101.667L56.739,99.722L56.808,97.167L56.876,96.5L56.944,94.583L57.013,93.667L57.081,94.639L57.15,95.833L57.218,95.5L57.287,94.833L57.355,93.583L57.424,92.472L57.492,91.361L57.56,89.972L57.629,89.694L57.697,90.222L57.766,89.361L57.834,87.75L57.903,86.056L57.971,85.222L58.04,85.333L58.108,85.111L58.176,83.861L58.245,82.806L58.313,83.667L58.382,84.306L58.45,84.056L58.519,84.722L58.587,86L58.656,86.194L58.724,86.194L58.792,86.694L58.861,86.722L58.929,85.194L58.998,84.722L59.066,85.083L59.135,84.361L59.203,84.194L59.272,82.639L59.34,80.667L59.409,79.694L59.477,79.083L59.545,79.75L59.614,79.861L59.682,79.722L59.751,78.778L59.819,78.861L59.888,78.222L59.956,77.694L60.025,77.722L60.093,77.222L60.161,77.75L60.23,78.722L60.298,78.139L60.367,78.194L60.435,78.722L60.504,80.111L60.572,80.194L60.641,79.556L60.709,80.083L60.777,80.389L60.846,80.111L60.914,79.694L60.983,80.583L61.051,81.806L61.12,81.722L61.188,81.917L61.257,81.028L61.325,81L61.393,82.528L61.462,83.722L61.53,85.639L61.599,84.722L61.667,84.861L61.736,84.861L61.804,85.306L61.873,86.083L61.941,87.306L62.009,89L62.078,90.694L62.146,91.194L62.215,91.222L62.283,90.556L62.352,90.639L62.42,90.833L62.489,90.75L62.557,90.944L62.625,91.472L62.694,92.583L62.762,92.833L62.831,93.139L62.899,94.583L62.968,96.917L63.036,97.75L63.105,98.639L63.173,98.833L63.242,99.167L63.31,100.556L63.378,102.278L63.447,103.139L63.515,103.139L63.584,102.694L63.652,104.194L63.721,104.889L63.789,105.306L63.858,105.556L63.926,104.611L63.994,105.25L64.063,104.722L64.131,103.139L64.2,102.417L64.268,101.667L64.337,102.194L64.405,103.806L64.474,104.5L64.542,105.389L64.61,104.833L64.679,103.444L64.747,102.528L64.816,102.972L64.884,103.611L64.953,103.833L65.021,103.278L65.09,102.611L65.158,101.222L65.226,101.5L65.295,102.361L65.363,102L65.432,101.139L65.5,100.611L65.569,100.111L65.637,98.278L65.706,96.056L65.774,95.556L65.842,96.083L65.911,96.028L65.979,95.778L66.048,94.889L66.116,93.222L66.185,92.944L66.253,93.528L66.322,94.556L66.39,94.472L66.458,93.472L66.527,92.111L66.595,89.806L66.664,88.167L66.732,87.917L66.801,88.444L66.869,88.111L66.938,87.139L67.006,85.583L67.074,83.361L67.143,81.944L67.211,82.806L67.28,82.194L67.348,80.667L67.417,81.028L67.485,81.056L67.554,80.194L67.622,80.222L67.691,81.5L67.759,82.944L67.827,83.389L67.896,83.5L67.964,83.667L68.033,83.639L68.101,84.611L68.17,87.222L68.238,88.806L68.307,88.944L68.375,89.528L68.443,89.889L68.512,91.167L68.58,91.833L68.649,94.472L68.717,96.611L68.786,97.528L68.854,97L68.923,97.278L68.991,97.806L69.059,98.806L69.128,101.611L69.196,103.972L69.265,104.111L69.333,104.917L69.402,106.528L69.47,106.889L69.539,107.889L69.607,109.528L69.675,110.722L69.744,111.528L69.812,112.667L69.881,113.028L69.949,113.167L70.018,113.861L70.086,114.944L70.155,115.167L70.223,115.611L70.291,116.778L70.36,117.917L70.428,117.639L70.497,118.167L70.565,118.028L70.634,119.361L70.702,119.833L70.771,120.417L70.839,121.333L70.907,122.833L70.976,123.389L71.044,123.806L71.116,124.667L71.184,124.861L71.253,125.417L71.321,126.361L71.389,126.861L71.458,126.806L71.526,127.306L71.595,127.556L71.663,127.694L71.732,127.889L71.8,127.806L71.869,127.222L71.937,127.028L72.005,127.5L72.074,127.972L72.142,128.583L72.211,128.889L72.279,128.528L72.348,127.528L72.416,127.167L72.485,127.583L72.553,127.833L72.621,128.083L72.69,127.972L72.758,128L72.827,127.944L72.895,127.944L72.964,128.25L73.032,128.722L73.101,129.111L73.169,129.167L73.238,128.778L73.306,128.444L73.374,128.306L73.443,128.75L73.511,128.917L73.58,129.028L73.648,129.278L73.717,129.194L73.785,129.361L73.854,129.75L73.922,130.417L73.99,130.833L74.059,130.778L74.127,130.556L74.196,130.528L74.264,130.917L74.333,131.417L74.401,132.444L74.47,133.056L74.538,132.833L74.606,132.611L74.675,132.722L74.743,132.694L74.812,132.028L74.88,132.111L74.949,132.611L75.017,132.917L75.086,133.222L75.154,133.472L75.222,133.444L75.291,133.278L75.359,133.306L75.428,132.667L75.496,132.583L75.565,132.139L75.633,132L75.702,131.667L75.77,131.556L75.838,131.444L75.907,131.528L75.975,131.583L76.044,131.5L76.112,130.917L76.181,130.444L76.249,130.028L76.318,129.889L76.386,129.75L76.454,129.556L76.523,128.75L76.591,128.5L76.66,127.778L76.728,127.361L76.797,127.25L76.865,127.889L76.934,127.889L77.002,127.861L77.07,127.5L77.139,127.167L77.207,126.694L77.276,127.083L77.344,127.611L77.413,127.917L77.481,128.944L77.55,128.583L77.618,128.972L77.687,128.75L77.755,128.639L77.823,128.917L77.892,128.5L77.96,128.222L78.029,127.389L78.097,126.583L78.166,127.25L78.234,126.889L78.303,126.944L78.371,126.861L78.439,126.417L78.508,126.056L78.576,126.222L78.645,125.972L78.713,125.889L78.782,125.694L78.85,125.833L78.919,125.556L78.987,125.028L79.055,122.972L79.124,121.861L79.192,121.75L79.261,121.889L79.329,120.944L79.398,120.25L79.466,119.972L79.535,118.222L79.603,116.694L79.671,115.25L79.737,115.083L79.805,115L79.874,114.417L79.942,114.306L80.011,112L80.079,109.5L80.148,110.139L80.216,109.611L80.285,109.667L80.353,109.083L80.422,108.139L80.49,107.222L80.558,106.111L80.627,105.694L80.695,105.222L80.764,104.667L80.832,104.333L80.901,104.139L80.969,103.25L81.038,103.25L81.106,104.583L81.174,104.389L81.243,103.694L81.311,102.861L81.38,102.583L81.448,101.667L81.517,100.861L81.585,101.417L81.654,101.944L81.722,102.444L81.79,101.861L81.859,100.944L81.927,98.694L81.996,98.833L82.064,101.222L82.133,104.028L82.201,103.167L82.27,101.889L82.338,100.75L82.406,99.417L82.475,97.778L82.543,97.222L82.612,96.694L82.68,94.806L82.749,94.444L82.817,94.083L82.886,92.278L82.954,90.361L83.022,89.194L83.091,88.194L83.159,87.972L83.228,88.611L83.296,87.611L83.365,85L83.433,83.056L83.502,82.306L83.57,80.611L83.638,79.472L83.707,79L83.775,77.167L83.844,75.444L83.912,73.944L83.981,75.889L84.049,74.667L84.118,72.556L84.186,71.556L84.255,70.222L84.323,69.028L84.391,68.528L84.46,69.194L84.528,71.056L84.597,71.361L84.665,71.833L84.734,72.528L84.802,70.889L84.871,70.528L84.939,70.611L85.007,71.306L85.076,72.222L85.144,72.333L85.213,72.5L85.281,72.917L85.35,73L85.418,75.417L85.487,77.222L85.555,78.111L85.623,79.167L85.692,79.722L85.76,79.639L85.829,81.194L85.897,82.667L85.966,83.75L86.034,83.694L86.103,84.667L86.171,86.167L86.239,85.556L86.308,86.444L86.376,88.611L86.445,89.917L86.513,91.333L86.582,91.639L86.65,92.444L86.719,92.583L86.787,93.806L86.855,96.556L86.924,98.361L86.992,99.472L87.061,99.389L87.129,99.778L87.198,100.056L87.266,98.917L87.335,98.472L87.403,99.528L87.471,100.194L87.54,100.111L87.608,100.556L87.677,100.611L87.745,101.111L87.814,101.694L87.882,102.333L87.951,102.944L88.019,104.028L88.087,103.694L88.156,102.028L88.224,100.694L88.293,101.167L88.361,102.083L88.43,102.167L88.498,101.5L88.567,100.806L88.635,99.472L88.704,98.667L88.772,99.111L88.84,98.694L88.909,98.139L88.977,98.278L89.046,98.333L89.114,97.75L89.183,97.083L89.251,97.167L89.32,96.694L89.388,96.472L89.456,95.972L89.525,94.806L89.593,94.028L89.662,93.333L89.73,93.694L89.799,93.361L89.867,93.556L89.936,92.611L90.004,92.417L90.072,90.472L90.141,88.639L90.209,89.444L90.278,90.194L90.346,90.194L90.415,89.944L90.483,89.444L90.552,89.139L90.62,88.139L90.688,88.083L90.757,87.417L90.825,86.611L90.894,85.861L90.962,84.389L91.031,81.333L91.099,79.889L91.168,80.389L91.236,80.833L91.304,79.556L91.373,80.139L91.441,79.028L91.51,76.917L91.578,76.694L91.647,76.194L91.715,75.472L91.784,75.5L91.852,76.556L91.92,76.472L91.989,75.889L92.057,74.611L92.126,75.75L92.194,77.528L92.263,78.5L92.331,78.528L92.4,78.778L92.468,77.056L92.537,76.417L92.605,76.778L92.673,77.139L92.742,78.278L92.81,79.556L92.879,79.889L92.947,79.833L93.016,80.583L93.084,82.028L93.153,83.944L93.221,83.917L93.289,83.944L93.358,84.556L93.426,83.417L93.495,84.028L93.563,86.083L93.632,87.333L93.7,88.75L93.769,90.056L93.837,90.167L93.905,89.639L93.974,89.972L94.042,91.444L94.111,92.806L94.179,93.194L94.248,93.722L94.316,93.694L94.385,94.861L94.453,95.333L94.521,97.25L94.59,98.861L94.658,100.556L94.727,101.694L94.795,102L94.864,102.472L94.932,103.667L95.001,105.583L95.069,106.778L95.137,108.222L95.206,108.722L95.274,110.111L95.343,110.611L95.411,112.361L95.48,114.611L95.548,115.222L95.617,115.75L95.685,116.25L95.753,117.333L95.822,118.222L95.89,118.722L95.959,119.889L96.03,120.861L96.099,121.028L96.167,121.528L96.235,122.25L96.304,122.361L96.372,122.5L96.441,122.583L96.509,123.111L96.578,123.667L96.646,124.028L96.715,123.917L96.783,123.667L96.851,123.139L96.92,122.972L96.988,122.639L97.057,122.667L97.125,123.306L97.194,123.667L97.262,123.583L97.331,123.444L97.399,124.056L97.467,124.306L97.536,124.222L97.604,124.694L97.673,125L97.741,124.639L97.81,123.972L97.878,124.361L97.947,124.556L98.015,123.778L98.084,123.5L98.152,123.917L98.22,123.833L98.289,123.861L98.357,124.639L98.426,125.028L98.494,125.222L98.563,125.389L98.631,125.278L98.7,123.639L98.768,122.639L98.836,123.083L98.905,123.639L98.973,123.306L99.042,123.417L99.11,123.139L99.179,123.111L99.247,123.083L99.316,123.111L99.384,123.333L99.452,122.861L99.521,122.583L99.589,122.611L99.658,122.667L99.726,122.472L99.795,122.361L99.863,122.222L99.932,121.694L100,121.889L100.068,122.139L100.137,121.278L100.205,120.917L100.274,120.806L100.342,120.556L100.411,120.028L100.479,120.167L100.548,120.194L100.616,119.5L100.684,119.139L100.753,120.861L100.821,121.806L100.89,121.75L100.958,122.028L101.027,123.056L101.095,123.194L101.164,123L101.232,122.472L101.3,122.333L101.369,122.278L101.437,122.472L101.506,123.083L101.574,122.667L101.643,122.75L101.711,122.389L101.78,122.639L101.848,123.083L101.916,123.806L101.985,123.833L102.053,123.556L102.122,123.556L102.19,124.444L102.259,124.722L102.327,124.944L102.396,125L102.464,125.306L102.533,124.639L102.601,123.75L102.669,123.028L102.738,122.806L102.806,122.028L102.875,121.667L102.943,121.222L103.012,120.444L103.08,119.028L103.149,119L103.217,118.944L103.285,118.556L103.354,118.306L103.422,116.694L103.491,115.222L103.559,114.694L103.628,115.417L103.696,115.083L103.765,115.306L103.833,114.889L103.901,112.222L103.97,111.5L104.038,111.472L104.107,110.583L104.175,110.139L104.244,109.444L104.312,108.806L104.381,108.306L104.449,107.139L104.517,105.889L104.586,104.694L104.651,102.917L104.72,102.861L104.788,103L104.857,103.361L104.925,102.889L104.994,102.611L105.062,103.306L105.131,103L105.199,101.972L105.268,102.111L105.336,102.444L105.404,102.528L105.473,103.389L105.541,104.056L105.61,103.861L105.678,103.028L105.747,103.111L105.815,102.972L105.884,101.25L105.952,103.528L106.02,103.667L106.089,101.639L106.157,101.917L106.226,102.417L106.294,101.25L106.363,98.806L106.431,94.917L106.5,94.361L106.568,93.139L106.636,93.917L106.705,94.028L106.773,94.528L106.842,94.833L106.91,93.75L106.979,93.611L107.047,92.722L107.116,91L107.184,89.944L107.252,86.611L107.321,82.056L107.389,79.583L107.458,76.806L107.526,75.583L107.595,74.028L107.663,71.528L107.732,68.806L107.8,66.611L107.868,63.778L107.937,60.889L108.005,56.75L108.074,53.361L108.142,52.75L108.211,50.833L108.279,47.028L108.348,45.556L108.416,46.583L108.484,48.417L108.553,46.5L108.621,45.694L108.69,43.306L108.758,42.639L108.827,40L108.895,36.333L108.964,34.139L109.032,31.972L109.101,31.306L109.169,29.444L109.237,27.417L109.306,26.861L109.374,27.111L109.443,25.306L109.511,22.972L109.58,20.25L109.648,16.944L109.717,14.056L109.785,11.75L109.853,9.833L109.922,9.917L109.99,11.389L110.059,12.028L110.127,11.167L110.196,10.333L110.264,9.167L110.333,10.472L110.401,11.056L110.469,11.944L110.538,12.444L110.606,14.139L110.675,14.111L110.743,14.639L110.812,16.306L110.88,18.778L110.949,21.722L111.017,23.806L111.085,26.139L111.154,27.278L111.222,29.194L111.291,32.528L111.359,35.139L111.428,37.639L111.496,40.583L111.565,44.167L111.633,47.444L111.701,50.833L111.77,55.944L111.838,60.389L111.907,64.889L111.975,67.472L112.044,70.222L112.112,71.667L112.181,75L112.249,77.806L112.317,80.833L112.386,82.556L112.454,83.944L112.523,84.083L112.591,84.139L112.66,84.972L112.728,87.639L112.797,89.917L112.865,90.139L112.933,89.639L113.002,89.472L113.07,89.361L113.139,88.583L113.207,89.444L113.276,90.5L113.344,91.139L113.413,92.444L113.481,92.722L113.55,92.833L113.618,92.583L113.686,93.306L113.755,94.083L113.823,93.417L113.892,92.806L113.96,90.722L114.029,89.611L114.097,89.083L114.166,90.5L114.234,91.028L114.302,90.25L114.371,90.111L114.439,89.917L114.508,89.028L114.576,87.917L114.645,88.056L114.713,88.056L114.782,86.806L114.85,86.583L114.918,86.611L114.987,86.139L115.055,85.861L115.124,85.556L115.192,85.278L115.261,83.972L115.329,83.972L115.398,83.222L115.466,81.056L115.534,80.167L115.603,80.583L115.671,80.75L115.74,80.167L115.808,79.694L115.877,78.917L115.945,78.389L116.014,79.111L116.082,79.583L116.15,80.417L116.219,80.361L116.287,79.25L116.356,78.694L116.424,76.611L116.493,75.75L116.561,76.472L116.63,77.639L116.698,78.028L116.766,76.944L116.835,76.639L116.903,74.306L116.972,72.778L117.04,72.639L117.109,72.5L117.177,72.5L117.246,73.222L117.314,73.389L117.383,71.417L117.451,70.917L117.519,73.833L117.588,75.944L117.656,74.806L117.725,73.806L117.793,74.417L117.862,74.833L117.93,74.917L117.999,75.639L118.067,75L118.135,74.167L118.204,72.333L118.272,70.389L118.341,68.889L118.409,69.639L118.478,71.639L118.546,72.194L118.615,71.972L118.683,72.667L118.751,73.806L118.82,75.361L118.888,76.417L118.957,79.083L119.025,80.889L119.094,81.917L119.162,81.667L119.231,81.444L119.299,80.361L119.367,78.639L119.436,79.694L119.504,79.889L119.573,79.028L119.641,78.917L119.71,80.722L119.778,81.417L119.847,80.528L119.915,81.5L119.983,83.472L120.052,84.889L120.12,86.583L120.189,86.778L120.257,87.194L120.326,89.25L120.394,92.194L120.463,92.917L120.531,93.083L120.599,93.806L120.668,94.306L120.736,93.361L120.805,92.806L120.873,93.056L120.945,93.611L121.013,93.75L121.081,94.111L121.15,94.528L121.218,95.444L121.287,97.111L121.355,99.139L121.424,102.5L121.492,103.917L121.561,105.083L121.629,104.583L121.697,103.444L121.766,102.611L121.834,104.639L121.903,106.444L121.971,106.778L122.04,107.167L122.108,107.472L122.177,107.944L122.245,109.917L122.313,111.611L122.382,112.361L122.45,112.25L122.519,112.5L122.587,113.111L122.656,113.861L122.724,115.056L122.793,115.722L122.861,116.333L122.93,117.139L122.998,117.222L123.066,116.694L123.135,116.917L123.203,117.444L123.272,117.833L123.34,117.833L123.409,118L123.477,117.972L123.546,117.806L123.614,118.167L123.682,119.194L123.751,120.444L123.819,121.389L123.888,121.139L123.956,120.611L124.025,119.833L124.093,119.222L124.162,118.778L124.23,118.139L124.298,117.806L124.367,118.056L124.435,118.278L124.504,118.472L124.572,118.917L124.641,119.333L124.709,119.167L124.778,119.306L124.846,119.806L124.914,120.361L124.983,120.333L125.051,120.556L125.12,120.944L125.188,121.556L125.257,121.444L125.325,121.75L125.394,122.056L125.462,121.889L125.53,121.194L125.599,121.667L125.667,121.806L125.736,122.278L125.804,122.917L125.873,123.167L125.941,123.417L126.01,123.806L126.078,124.583L126.146,125.139L126.215,125.25L126.283,125.806L126.352,126.444L126.42,126.833L126.489,127.111L126.557,127.444L126.626,127.167L126.694,126.528L126.762,125.694L126.831,124.944L126.899,124.528L126.968,124.028L127.036,123.528L127.105,123.028L127.173,123.222L127.242,121.361L127.31,121.389L127.379,121.611L127.447,121.25L127.515,121.694L127.584,121.611L127.652,119.944L127.721,118.861L127.789,116.806L127.858,115.167L127.926,114.194L127.995,113.806L128.063,113.528L128.131,113.056L128.2,111.889L128.268,111.806L128.337,111.583L128.405,110.028L128.474,108.083L128.542,106.722L128.611,104.694L128.679,104.5L128.747,103.306L128.816,102.444L128.884,100.806L128.953,99.25L129.021,98.806L129.09,98.167L129.158,98.167L129.227,98.25L129.295,99.083L129.363,97.889L129.432,96.333L129.5,95.556L129.569,93.139L129.637,91.5L129.706,91.028L129.774,90.667L129.843,91.167L129.911,91.722L129.979,92.417L130.045,91.111L130.114,90.306L130.182,89.722L130.25,89.972L130.319,88.417L130.387,86.278L130.456,85.722L130.524,86.056L130.593,86.278L130.661,87.694L130.73,86.639L130.798,85.583L130.866,86.222L130.935,87.417L131.003,88L131.072,86.361L131.14,85.583L131.209,85.417L131.277,83.306L131.346,80.778L131.414,80.833L131.482,80.722L131.551,80.806L131.619,81.083L131.688,81.833L131.756,82.083L131.825,82.5L131.893,83.722L131.962,83.5L132.03,81.139L132.098,80.361L132.167,79L132.235,77.972L132.304,75.889L132.372,75.194L132.441,75.222L132.509,74.417L132.578,72.722L132.646,71.417L132.714,69.444L132.783,68.694L132.851,70.306L132.92,70L132.988,69.583L133.057,69.361L133.125,71.111L133.194,72.5L133.262,73L133.33,73.722L133.399,74.722L133.467,73.444L133.536,74.111L133.604,73.444L133.673,73.306L133.741,72.972L133.81,73.444L133.878,73.444L133.946,72.972L134.015,72.472L134.083,73.167L134.152,73.778L134.22,74.306L134.289,74.472L134.357,75.167L134.426,75.5L134.494,75.833L134.563,76.389L134.631,77.5L134.699,77.694L134.768,79.194L134.836,80.667L134.905,79.889L134.973,79.417L135.042,78.139L135.11,78.056L135.179,77.083L135.247,75.75L135.315,75.083L135.384,75.639L135.452,77.306L135.521,79.5L135.589,78.806L135.658,78.389L135.726,78.389L135.795,79.528L135.863,80.056L135.931,80.444L136,80.861L136.068,80.861L136.137,81.222L136.205,82.056L136.274,82.833L136.342,83.833L136.411,85.083L136.479,86.083L136.547,86.694L136.616,87.806L136.684,88.722L136.753,90.028L136.821,90.611L136.89,89.611L136.958,90.139L137.027,89.667L137.095,91.111L137.163,92.139L137.232,93.056L137.3,94L137.369,94.944L137.437,94.083L137.506,92.556L137.574,90.917L137.643,91.667L137.711,92.139L137.779,92.722L137.848,91.639L137.916,91.528L137.985,90.583L138.053,90.167L138.122,91.083L138.19,92L138.259,92.75L138.327,93.417L138.396,93.528L138.464,93.722L138.532,93.444L138.601,93.306L138.669,93.139L138.738,93.361L138.806,93.083L138.875,92.389L138.943,93.028L139.012,94.222L139.08,96.083L139.148,96.028L139.217,95.694L139.285,95.556L139.354,95.861L139.422,94.583L139.491,94.694L139.559,95.528L139.628,96.694L139.696,97.472L139.764,98L139.833,97.5L139.901,97.028L139.97,96.583L140.038,96.333L140.107,96.444L140.175,95.75L140.244,95.361L140.312,94.417L140.38,93.222L140.449,92.278L140.517,91.917L140.586,92.028L140.654,92.5L140.723,91.722L140.791,91.639L140.86,90.194L140.928,89.306L140.996,88.806L141.065,88.056L141.133,87.389L141.202,87.972L141.27,87.639L141.339,85.611L141.407,84.028L141.476,84.111L141.544,84.556L141.612,83.833L141.681,82.5L141.749,80.639L141.818,79.028L141.886,78.139L141.955,79.75L142.023,79.694L142.092,79.028L142.16,77.444L142.228,76.583L142.297,74.944L142.365,74.083L142.434,73.806L142.502,73.444L142.571,72.556L142.639,71.528L142.708,70.194L142.776,69.778L142.845,68.417L142.913,70.278L142.981,71.333L143.05,71.278L143.118,70.194L143.187,68.667L143.255,67.417L143.324,66.972L143.392,68.944L143.461,70.722L143.529,70.944L143.597,70.639L143.666,71.111L143.734,71.944L143.803,72.222L143.871,73.611L143.94,75.389L144.008,75.333L144.077,75.972L144.145,77.028L144.213,77.833L144.282,79.528L144.35,81.556L144.419,82.222L144.487,82.833L144.556,84.194L144.624,85.278L144.693,86.861L144.761,88.667L144.829,90.417L144.898,92.333L144.966,92.222L145.035,92L145.103,93.222L145.172,94.25L145.24,95.75L145.309,97.361L145.377,99.167L145.445,99.889L145.514,99.806L145.582,100.944L145.651,102.111L145.719,102.639L145.788,103.972L145.856,105.306L145.925,105.778L145.993,106.417L146.061,107.167L146.13,107.167L146.198,107.472L146.267,108.5L146.338,108.444L146.407,109.028L146.475,110.222L146.543,110.778L146.612,111.083L146.68,111.694L146.749,112.306L146.817,112.639L146.886,112.556L146.954,111.667L147.023,111.222L147.091,111.861L147.159,112.056L147.228,113.361L147.296,114.583L147.365,115.083L147.433,115.25L147.502,115.333L147.57,115.444L147.639,115.306L147.707,115.833L147.775,116.5L147.844,116.472L147.912,116L147.981,116.083L148.049,115.667L148.118,114.917L148.186,115.806L148.255,117.167L148.323,117.833L148.392,118.417L148.46,118.583L148.528,119.139L148.597,119.806L148.665,120.75L148.734,121.611L148.802,121.5L148.871,121.556L148.939,121.861L149.008,123.028L149.076,124.278L149.144,124.944L149.213,125.306L149.281,124.444L149.35,124.528L149.418,124.75L149.487,124.417L149.555,124.417L149.624,124.5L149.692,124.306L149.76,124.361L149.829,124.194L149.897,124.278L149.966,125.306L150.034,126.306L150.103,127.5L150.171,128.5L150.24,128.194L150.308,127.889L150.376,127.472L150.445,127.278L150.513,126.778L150.582,126.389L150.65,126.417L150.719,126L150.787,124.472L150.856,123.611L150.924,122.667L150.992,122.389L151.061,122.528L151.129,122.306L151.198,121.889L151.266,121.25L151.335,121.306L151.403,121.306L151.472,120.694L151.54,120.222L151.608,120.083L151.677,119.778L151.745,120.139L151.814,120.167L151.882,120.25L151.951,119.667L152.019,119.222L152.088,118.639L152.156,117.194L152.225,116.694L152.293,116.5L152.361,115.472L152.43,114.361L152.498,113.111L152.567,113.361L152.635,113.25L152.704,113.25L152.772,112.583L152.841,113.111L152.909,114.5L152.977,114.583L153.046,113.639L153.114,111.722L153.183,111.444L153.251,109.861L153.32,108.806L153.388,107.611L153.457,106.778L153.525,106.833L153.593,107.083L153.662,107.361L153.73,106.806L153.799,105.722L153.867,104.75L153.936,105.306L154.004,105.806L154.073,105L154.141,105.194L154.209,105.861L154.278,105.028L154.346,104.667L154.415,104.556L154.483,104.806L154.552,105.694L154.62,105.556L154.689,103.861L154.757,101.667L154.825,101.25L154.894,100.889L154.96,98.889L155.028,97.889L155.096,97.389L155.165,97.417L155.233,95.833L155.302,97.25L155.37,98.5L155.439,100.139L155.507,100L155.576,99.194L155.644,98.361L155.712,96.083L155.781,95.611L155.849,95.028L155.918,94.444L155.986,93.528L156.055,92.778L156.123,92.444L156.192,90.528L156.26,89.278L156.328,89.722L156.397,89.222L156.465,89.25L156.534,88.333L156.602,87.944L156.671,88.139L156.739,89.167L156.808,90.5L156.876,90L156.944,88.194L157.013,87.972L157.081,87.917L157.15,87.639L157.218,86.5L157.287,86.972L157.355,85.833L157.424,84.222L157.492,82.833L157.56,82.722L157.629,82.111L157.697,81.111L157.766,81.333L157.834,81.444L157.903,81.167L157.971,80.028L158.04,79.694L158.108,79.222L158.176,78.25L158.245,78.361L158.313,78.389L158.382,78.417L158.45,78.139L158.519,77.611L158.587,77.083L158.656,75.333L158.724,72.778L158.792,71.917L158.861,71.417L158.929,71.167L158.998,70.889L159.066,70.833L159.135,70.417L159.203,71.028L159.272,71.861L159.34,71.167L159.409,70.556L159.477,70.944L159.545,70.139L159.614,69.028L159.682,69L159.751,70.222L159.819,71.944L159.888,72L159.956,71.694L160.025,71.389L160.093,69.944L160.161,70.417L160.23,71.056L160.298,71.167L160.367,70.972L160.435,70.167L160.504,70.222L160.572,70.194L160.641,70.389L160.709,71.833L160.777,73.889L160.846,74.056L160.914,74.278L160.983,74.167L161.051,74.583L161.12,75.639L161.188,76.528L161.257,76.528L161.325,77.444L161.393,78.278L161.462,78.472L161.53,77.944L161.599,79.306L161.667,80.833L161.736,81.722L161.804,81.944L161.873,81.306L161.941,81.556L162.009,82.417L162.078,84.667L162.146,86.278L162.215,85.611L162.283,86.556L162.352,87.194L162.42,86.944L162.489,86.361L162.557,86.25L162.625,86.639L162.694,87.583L162.762,87.389L162.831,86.833L162.899,87.028L162.968,87.833L163.036,88.917L163.105,90.556L163.173,90.528L163.242,90.833L163.31,90.917L163.378,90.278L163.447,89.806L163.515,89.583L163.584,90.083L163.652,89.361L163.721,88.417L163.789,87.583L163.858,86.611L163.926,85.972L163.994,86.611L164.063,86.972L164.131,86.278L164.2,85.861L164.268,86.167L164.337,85.389L164.405,84.778L164.474,85.75L164.542,87.139L164.61,87.472L164.679,85.889L164.747,85.806L164.816,85.833L164.884,85.444L164.953,85.722L165.021,85.944L165.09,85.667L165.158,85.167L165.226,84.139L165.295,83.639L165.363,83.25L165.432,83.778L165.5,84.389L165.569,85.139L165.637,84.5L165.706,83.861L165.774,82.944L165.842,82.167L165.911,82.417L165.979,82.5L166.048,81.611L166.116,81.778L166.185,82.139L166.253,81.222L166.322,80.472L166.39,80.778L166.458,81.583L166.527,81.167L166.595,80.583L166.664,79.889L166.732,81.528L166.801,81.722L166.869,82.972L166.938,83.972L167.006,84.417L167.074,82.778L167.143,81.167L167.211,80.444L167.28,81.167L167.348,81.278L167.417,81.25L167.485,80.611L167.554,81L167.622,80.972L167.691,81.167L167.759,81.278L167.827,82.222L167.896,83.778L167.964,84.5L168.033,85.444L168.101,84.917L168.17,82.75L168.238,81.778L168.307,83.056L168.375,83.444L168.443,82.583L168.512,81.528L168.58,81.111L168.649,80.611L168.717,80.778L168.786,80.694L168.854,80.889L168.923,79.139L168.991,77.833L169.059,76.389L169.128,75.75L169.196,74.944L169.265,74.833L169.333,75.556L169.402,76.75L169.47,77.639L169.539,78.306L169.607,77.139L169.675,77.528L169.744,79.056L169.812,81.194L169.881,81.75L169.949,82.028L170.018,82.417L170.086,82.5L170.155,83.778L170.223,86.778L170.291,88.083L170.36,88.722L170.428,89.611L170.497,91.222L170.565,92.694L170.634,93.722L170.702,94.778L170.771,95.861L170.839,97.056L170.907,97.639L170.976,98.972L171.044,99.667L171.113,100.75L171.181,102.944L171.253,105.75L171.321,107.028L171.389,106.861L171.458,106.639L171.526,107.167L171.595,107.694L171.663,109.639L171.732,110.444L171.8,110.583L171.869,110.5L171.937,110.667L172.005,110.222L172.074,109.583L172.142,109.722L172.211,109.806L172.279,109.222L172.348,109.472L172.416,109.583L172.485,110.417L172.553,110.944L172.621,111.611L172.69,112.583L172.758,112.611L172.827,112.25L172.895,111.583L172.964,111.056L173.032,109.917L173.101,110.361L173.169,110.889L173.238,110.667L173.306,110.333L173.374,110.583L173.443,110.083L173.511,110.056L173.58,110.056L173.648,110.333L173.717,109.472L173.785,109.556L173.854,109.389L173.922,108.972L173.99,109.139L174.059,109.722L174.127,109.889L174.196,109.417L174.264,109.194L174.333,108.778L174.401,108.111L174.47,106.972L174.538,106.639L174.606,105.778L174.675,105.75L174.743,104.639L174.812,104.5L174.88,104.278L174.949,103.417L175.017,103.361L175.086,104.556L175.154,105.056L175.222,105.528L175.291,106.222L175.359,107.444L175.428,107.556L175.496,108L175.565,108.194L175.633,107.972L175.702,107.111L175.77,106.361L175.838,105.028L175.907,104.333L175.975,104.361L176.044,104.306L176.112,104.111L176.181,104.167L176.249,103.639L176.318,102.583L176.386,102.611L176.454,102.028L176.523,102.361L176.591,102.306L176.66,102.806L176.728,102.75L176.797,103.278L176.865,103.556L176.934,105.028L177.002,106.028L177.07,106.917L177.139,107.111L177.207,106.972L177.276,106.639L177.344,106L177.413,105.417L177.481,105.444L177.55,105.917L177.618,106.361L177.687,106.667L177.755,107.472L177.823,108.278L177.892,109.806L177.96,110.722L178.029,111.222L178.097,111.139L178.166,110.167L178.234,109.611L178.303,110.167L178.371,111.667L178.439,112.083L178.508,112.583L178.576,112.167L178.645,110.944L178.713,109.972L178.782,108.583L178.85,108.111L178.919,107.917L178.987,106.806L179.055,106.444L179.124,105.472L179.192,104.028L179.261,103.778L179.329,102.806L179.398,101.389L179.466,100.778L179.535,99.833L179.603,99.528L179.671,98.556L179.74,98.167L179.808,97.333L179.874,96.361L179.942,93.917L180.011,91.194L180.079,88.528L180.148,86.389L180.216,85.75L180.285,85.917L180.353,86.111L180.422,85.528L180.49,84.833L180.558,84.222L180.627,83.5L180.695,83.306L180.764,83.639L180.832,83.917L180.901,83.972L180.969,83.528L181.038,83.528L181.106,83.917L181.174,84.361L181.243,84.889L181.311,84.722L181.38,85.139L181.448,85.75L181.517,84.778L181.585,83.667L181.654,81.778L181.722,81.167L181.79,80.222L181.859,79.75L181.927,79.639L181.996,79.028L182.064,78.5L182.133,79.361L182.201,80.5L182.27,80.306L182.338,80.139L182.406,79.333L182.475,78.306L182.543,77.778L182.612,77.167L182.68,77.139L182.749,77.556L182.817,77.194L182.886,77.278L182.954,76.028L183.022,74.417L183.091,73.056L183.159,70.75L183.228,69.917L183.296,69.194L183.365,67.556L183.433,65.944L183.502,66.333L183.57,66.389L183.638,67.167L183.707,68.472L183.775,69.083L183.844,69.25L183.912,69.111L183.981,67.833L184.049,68.556L184.118,70.75L184.186,70.944L184.255,70.917L184.323,71.361L184.391,70.333L184.46,68.972L184.528,67.306L184.597,66.778L184.665,66.694L184.734,66.667L184.802,65.861L184.871,64.861L184.939,63.639L185.007,62.361L185.076,63.139L185.144,63.278L185.213,63.722L185.281,63.083L185.35,62.889L185.418,61.778L185.487,62.361L185.555,61.833L185.623,60.278L185.692,59.833L185.76,59.694L185.829,59.306L185.897,58.889L185.966,59.028L186.034,60.972L186.103,61.611L186.171,61.306L186.239,61.417L186.308,60.972L186.376,60.778L186.445,61.944L186.513,63.194L186.582,65.583L186.65,66.306L186.719,66.5L186.787,67.028L186.855,66.278L186.924,65.667L186.992,66.194L187.061,68.417L187.129,68.389L187.198,69.167L187.266,70.361L187.335,71.111L187.403,70.333L187.471,72.083L187.54,72.222L187.608,71.194L187.677,72.722L187.745,72.417L187.814,71.278L187.882,70.5L187.951,71.5L188.019,71.361L188.087,70.444L188.156,70.972L188.224,69.833L188.293,68.917L188.361,69L188.43,69.472L188.498,68.833L188.567,68.361L188.635,67.722L188.704,67.083L188.772,65.861L188.84,63.722L188.909,64.472L188.977,64.556L189.046,63.944L189.114,63.222L189.183,62.75L189.251,61.389L189.32,59.278L189.388,58.417L189.456,59.417L189.525,58.944L189.593,58.028L189.662,57.806L189.73,55.667L189.799,55.611L189.867,55.778L189.936,56.167L190.004,55.444L190.072,55.444L190.141,56.417L190.209,55.028L190.278,56.056L190.346,56.917L190.415,56.417L190.483,55.583L190.552,54.972L190.62,53.972L190.688,51.889L190.757,50.194L190.825,52.028L190.894,52.778L190.962,51.806L191.031,51.5L191.099,50.639L191.168,51.222L191.236,52.306L191.304,53.722L191.373,54.667L191.441,54.333L191.51,54.389L191.578,55.722L191.647,55.806L191.715,54.139L191.784,55.111L191.852,54.861L191.92,54.389L191.989,54.333L192.057,53.889L192.126,53.806L192.194,52.611L192.263,53.667L192.331,53.778L192.4,52.556L192.468,52.5L192.537,52.5L192.605,53.417L192.673,54.639L192.742,56.361L192.81,58.083L192.879,57.194L192.947,57.694L193.016,58.75L193.084,59.472L193.153,60.444L193.221,59.833L193.289,58.472L193.358,57.667L193.426,57.222L193.495,56.861L193.563,54.917L193.632,52.861L193.7,53.611L193.769,55.833L193.837,57.667L193.905,59.111L193.974,60.139L194.042,58.972L194.111,58.472L194.179,59.333L194.248,59.944L194.316,60.472L194.385,61.056L194.453,62.278L194.521,63.528L194.59,64.694L194.658,65.583L194.727,65.972L194.795,66.639L194.864,67.472L194.932,67.861L195.001,67.25L195.069,67.806L195.137,69.528L195.206,71.111L195.274,72.306L195.343,74.528L195.411,76L195.48,78.028L195.548,80.5L195.617,83.5L195.685,86.222L195.753,87.722L195.822,89.056L195.89,89.778L195.959,88.694L196.027,88.972L196.096,91.167L196.167,93.306L196.235,93.361L196.304,94.556L196.372,94.306L196.441,93.944L196.509,94.556L196.578,95.667L196.646,96.778L196.715,96.583L196.783,96.944L196.851,97.444L196.92,96.722L196.988,96.972L197.057,99.694L197.125,100.944L197.194,101.167L197.262,101.194L197.331,101.667L197.399,100.972L197.467,100.778L197.536,100.528L197.604,100.472L197.673,100.889L197.741,100.472L197.81,99.528L197.878,99.444L197.947,99.306L198.015,100.333L198.084,101.583L198.152,102.139L198.22,101.944L198.289,102.694L198.357,102.972L198.426,104.25L198.494,104.972L198.563,105.667L198.631,104.75L198.7,103.417L198.768,103.361L198.836,103.694L198.905,104.056L198.973,105.611L199.042,107.306L199.11,107.639L199.179,107.639L199.247,108L199.316,108.556L199.384,108.583L199.452,109.361L199.521,109.806L199.589,110.694L199.658,109.944L199.726,109.417L199.795,108.361L199.863,109.361L199.932,109.972L200,110.222L200.068,111.278L200.137,110.833L200.205,110.528L200.274,110.028L200.342,109.472L200.411,109.417L200.479,109.139L200.548,108.556L200.616,107.556L200.684,106.917L200.753,106.889L200.821,106.444L200.89,106.083L200.958,106.75L201.027,107.083L201.095,106.611L201.164,106.028L201.232,105.778L201.3,105.139L201.369,104.667L201.437,104.25L201.506,104.194L201.574,103.917L201.643,102.944L201.711,103.028L201.78,103.056L201.848,103.889L201.916,103.389L201.985,102.861L202.053,102.639L202.122,102.083L202.19,101.528L202.259,99.861L202.327,101.528" stroke="#4c78a8" stroke-width="2"/></g><g class="mark-group role-title"><g transform="translate(100,-17)"><path class="background" aria-hidden="true" d="M0,0h0v0h0Z" pointer-events="none"/><g><g class="mark-text role-title-text" role="graphics-symbol" aria-roledescription="title" aria-label="Title text 'Noise - Street/Sidewalk: Loud Talking'" pointer-events="none"><text text-anchor="middle" transform="translate(0,10)" font-family="sans-serif" font-size="13px" font-weight="bold" fill="#000" opacity="1">Noise - Street/Sidewalk: Loud Talking</text></g></g><path class="foreground" aria-hidden="true" d="" pointer-events="none" display="none"/></g></g></g><path class="foreground" aria-hidden="true" d="" display="none"/></g></g></g><defs><clipPath id="clip101"><rect x="0" y="0" width="200" height="150"/></clipPath></defs></svg>