<svg xmlns="http://www.w3.org/2000/svg" xmlns:xlink="http://www.w3.org/1999/xlink" version="1.1" class="marks" width="242" height="194" viewBox="0 0 242 194"><rect width="242" height="194" fill="white"/><g fill="none" stroke-miterlimit="10" transform="translate(24,22)"><g class="mark-group role-frame root" role="graphics-object" aria-roledescription="group mark container"><g transform="translate(0,0)"><path class="background" aria-hidden="true" d="M0,0h200v150h-200Z"/><g><g class="mark-group role-axis" aria-hidden="true"><g transform="translate(0.5,0.5)"><path class="background" aria-hidden="true" d="M0,0h0v0h0Z" pointer-events="none"/><g><g class="mark-rule role-axis-grid" pointer-events="none"><line transform="translate(0,150)" x2="200" y2="0" stroke="#ddd" stroke-width="1" opacity="1"/><line transform="translate(0,116)" x2="200" y2="0" stroke="#ddd" stroke-width="1" opacity="1"/><line transform="translate(0,82)" x2="200" y2="0" stroke="#ddd" stroke-width="1" opacity="1"/><line transform="translate(0,48)" x2="200" y2="0" stroke="#ddd" stroke-width="1" opacity="1"/><line transform="translate(0,14)" x2="200" y2="0" stroke="#ddd" stroke-width="1" opacity="1"/></g></g><path class="foreground" aria-hidden="true" d="" pointer-events="none" display="none"/></g></g><g class="mark-group role-axis" role="graphics-symbol" aria-roledescription="axis" aria-label="X-axis for a time scale with values from Friday, 01 January 2016, 12:00:00 AM to Monday, 01 January 2024, 12:00:00 AM"><g transform="translate(0.5,150.5)"><path class="background" aria-hidden="true" d="M0,0h0v0h0Z" pointer-events="none"/><g><g class="mark-rule role-axis-tick" pointer-events="none"><line transform="translate(0,0)" x2="0" y2="5" stroke="#888" stroke-width="1" opacity="1"/><line transform="translate(50,0)" x2="0" y2="5" stroke="#888" stroke-width="1" opacity="1"/><line transform="translate(100,0)" x2="0" y2="5" stroke="#888" stroke-width="1" opacity="1"/><line transform="translate(150,0)" x2="0" y2="5" stroke="#888" stroke-width="1" opacity="1"/><line transform="translate(200,0)" x2="0" y2="5" stroke="#888" stroke-width="1" opacity="1"/></g><g class="mark-text role-axis-label" pointer-events="none"><text text-anchor="start" transform="translate(0,15)" font-family="sans-serif" font-size="10px" fill="#000" opacity="1">2016</text><text text-anchor="middle" transform="translate(50.03422313483915,15)" font-family="sans-serif" font-size="10px" fill="#000" opacity="1">2018</text><text text-anchor="middle" transform="translate(100,15)" font-family="sans-serif" font-size="10px" fill="#000" opacity="1">2020</text><text text-anchor="middle" transform="translate(150.03422313483915,15)" font-family="sans-serif" font-size="10px" fill="#000" opacity="1">2022</text><text text-anchor="end" transform="translate(200,15)" font-family="sans-serif" font-size="10px" fill="#000" opacity="1">2024</text></g><g class="mark-rule role-axis-domain" pointer-events="none"><line transform="translate(0,0)" x2="200" y2="0" stroke="#888" stroke-width="1" opacity="1"/></g></g><path class="foreground" aria-hidden="true" d="" pointer-events="none" display="none"/></g></g><g class="mark-group role-axis" role="graphics-symbol" aria-roledescription="axis" aria-label="Y-axis for a linear scale with values from 0 to 22"><g transform="translate(0.5,0.5)"><path class="background" aria-hidden="true" d="M0,0h0v0h0Z" pointer-events="none"/><g><g class="mark-rule role-axis-tick" pointer-events="none"><line transform="translate(0,150)" x2="-5" y2="0" stroke="#888" stroke-opacity="0" stroke-width="1" opacity="1"/><line transform="translate(0,116)" x2="-5" y2="0" stroke="#888" stroke-opacity="0" stroke-width="1" opacity="1"/><line transform="translate(0,82)" x2="-5" y2="0" stroke="#888" stroke-opacity="0" stroke-width="1" opacity="1"/><line transform="translate(0,48)" x2="-5" y2="0" stroke="#888" stroke-opacity="0" stroke-width="1" opacity="1"/><line transform="translate(0,14)" x2="-5" y2="0" stroke="#888" stroke-opacity="0" stroke-width="1" opacity="1"/></g><g class="mark-text role-axis-label" pointer-events="none"><text text-anchor="end" transform="translate(-7,153)" font-family="sans-serif" font-size="10px" fill="#000" opacity="1">0</text><text text-anchor="end" transform="translate(-7,118.9090909090909)" font-family="sans-serif" font-size="10px" fill="#000" opacity="1">5</text><text text-anchor="end" transform="translate(-7,84.81818181818181)" font-family="sans-serif" font-size="10px" fill="#000" opacity="1">10</text><text text-anchor="end" transform="translate(-7,50.727272727272734)" font-family="sans-serif" font-size="10px" fill="#000" opacity="1">15</text><text text-anchor="end" transform="translate(-7,16.63636363636364)" font-family="sans-serif" font-size="10px" fill="#000" opacity="1">20</text></g></g><path class="foreground" aria-hidden="true" d="" pointer-events="none" display="none"/></g></g><g class="mark-line role-mark marks" clip-path="url(#clip111)" role="graphics-object" aria-roledescription="line mark container"><path aria-label="day: Jan 19, 2010; avg: 4.03333333333" role="graphics-symbol" aria-roledescription="line mark" d="M-148.734,122.5L-145.927,121.136L-145.791,118.636L-145.654,117.045L-145.585,114.773L-145.517,112.727L-145.448,113.636L-145.38,113.182L-145.311,111.364L-145.243,108.182L-145.175,106.818L-145.038,105.455L-144.904,103.864L-144.835,102.5L-144.767,102.727L-144.698,102.727L-144.63,102.955L-144.561,100.909L-144.493,99.091L-144.424,99.091L-144.356,97.955L-144.288,96.818L-144.219,98.864L-144.151,97.727L-144.082,96.591L-144.014,94.545L-143.877,92.5L-143.808,92.045L-143.74,92.045L-143.672,92.273L-143.603,89.091L-143.535,86.591L-143.466,86.364L-143.398,84.773L-143.329,86.818L-143.261,89.091L-143.192,88.636L-143.124,88.864L-143.056,90.909L-142.987,92.955L-142.919,93.636L-142.85,92.5L-142.782,90.682L-142.713,90.909L-142.645,89.091L-142.576,87.955L-142.508,87.045L-142.44,88.182L-142.371,89.318L-142.303,90L-142.234,89.318L-142.097,89.091L-142.029,87.955L-141.96,86.818L-141.892,86.591L-141.824,87.727L-141.755,87.727L-141.687,87.273L-141.618,85.455L-141.55,85.455L-141.481,89.318L-141.413,92.045L-141.344,92.955L-141.276,93.864L-141.208,90L-141.139,88.636L-141.071,88.182L-140.934,87.273L-140.865,87.727L-140.797,87.045L-140.728,85.682L-140.66,85.909L-140.591,86.818L-140.523,86.591L-140.455,87.273L-140.386,88.409L-140.318,89.545L-140.249,89.773L-140.181,90L-140.112,90L-140.044,91.136L-139.975,92.5L-139.907,92.727L-139.839,93.636L-139.77,94.318L-139.702,92.5L-139.633,92.955L-139.565,94.318L-139.496,96.818L-139.428,98.636L-139.359,98.409L-139.291,99.318L-139.223,100.682L-139.154,102.955L-139.017,106.364L-138.949,107.5L-138.88,107.955L-138.812,110.227L-138.743,109.545L-138.675,112.045L-138.607,113.864L-138.538,115.682L-138.47,117.045L-138.401,117.727L-138.333,117.727L-138.264,118.636L-138.196,119.318L-138.127,120.455L-138.059,121.136L-137.991,122.273L-137.922,122.5L-137.854,121.136L-137.785,120.682L-137.717,121.364L-137.648,120.682L-137.58,121.591L-137.511,122.045L-137.443,118.409L-137.375,116.364L-137.306,115.909L-137.169,115.227L-137.101,115L-137.032,115L-136.964,113.864L-136.895,113.864L-136.827,112.5L-136.758,109.773L-136.69,108.182L-136.622,109.318L-136.553,108.864L-136.485,108.864L-136.416,105.909L-136.348,106.591L-136.279,105.682L-136.211,105.455L-136.142,105L-136.074,103.864L-136.006,104.091L-135.937,103.409L-135.869,102.955L-135.8,103.409L-135.732,104.318L-135.663,104.545L-135.595,105.455L-135.526,105.682L-135.458,107.273L-135.39,107.727L-135.321,111.591L-135.253,112.955L-135.184,113.182L-135.116,112.955L-135.047,112.955L-134.979,112.955L-134.91,112.045L-134.842,112.727L-134.774,113.182L-134.705,116.364L-134.637,117.045L-134.568,117.273L-134.5,116.591L-134.431,116.818L-134.363,119.318L-134.294,119.318L-134.226,120.227L-134.158,120.455L-134.089,120.682L-134.021,120.682L-133.952,119.091L-133.884,120.227L-133.815,121.136L-133.747,120.682L-133.678,121.591L-133.61,122.727L-133.542,122.5L-133.473,123.636L-133.405,123.864L-133.336,124.773L-133.268,125L-133.199,126.136L-133.131,126.364L-133.062,127.5L-132.994,127.273L-132.926,127.727L-132.857,128.636L-132.789,128.182L-132.72,129.091L-132.652,129.318L-132.583,130L-132.446,129.091L-132.378,127.955L-132.241,127.955L-132.173,128.864L-132.104,129.318L-132.036,130L-131.967,131.136L-131.899,131.364L-131.83,133.182L-131.762,134.545L-131.693,134.318L-131.625,134.318L-131.488,134.318L-131.42,134.318L-131.351,134.091L-131.214,134.318L-131.146,134.091L-131.077,133.864L-130.872,132.045L-130.804,131.591L-130.735,131.136L-130.667,130.682L-130.598,129.091L-130.53,126.136L-130.461,125L-130.393,125.682L-130.256,125.227L-130.188,123.636L-130.119,123.182L-130.051,123.182L-129.64,123.409L-129.435,125.455L-129.229,124.318L-129.024,123.409L-127.926,123.182L-127.858,122.955L-121.697,122.273L-121.492,121.364L-121.081,119.091L-120.945,118.409L-120.876,116.136L-120.671,114.773L-120.534,111.818L-120.465,109.091L-120.397,104.773L-120.26,104.091L-120.192,102.045L-120.123,101.364L-120.058,100L-119.989,98.636L-119.921,98.182L-119.852,95.682L-119.784,94.545L-119.715,97.955L-119.647,99.091L-119.578,98.182L-119.51,95.682L-119.373,95.455L-119.305,93.182L-119.168,92.5L-119.099,91.818L-119.031,90L-118.962,86.136L-118.894,85.227L-118.826,82.727L-118.757,82.955L-118.689,82.273L-118.62,81.818L-118.483,81.364L-118.415,79.773L-118.346,78.864L-118.278,76.136L-118.21,75L-118.141,76.818L-118.004,77.5L-117.936,76.136L-117.867,75.909L-117.73,77.045L-117.662,80L-117.594,81.591L-117.525,81.591L-117.457,83.409L-117.388,82.955L-117.32,80.227L-117.251,78.636L-117.183,79.091L-117.114,78.864L-117.046,78.182L-116.978,78.409L-116.909,76.364L-116.841,75.909L-116.772,76.364L-116.704,80.227L-116.635,78.409L-116.567,79.773L-116.498,77.5L-116.43,76.364L-116.362,76.136L-116.293,77.045L-116.225,77.273L-116.156,78.636L-116.088,81.591L-116.019,85.682L-115.951,86.591L-115.882,89.318L-115.814,87.5L-115.745,89.091L-115.677,86.136L-115.609,84.545L-115.54,83.182L-115.472,83.182L-115.403,83.182L-115.335,85.227L-115.266,86.136L-115.198,85.909L-115.129,85.909L-115.061,89.091L-114.993,91.364L-114.924,91.818L-114.856,93.182L-114.787,92.955L-114.719,93.636L-114.65,93.864L-114.582,96.591L-114.513,97.273L-114.445,98.182L-114.377,100.227L-114.308,101.364L-114.24,102.5L-114.171,103.636L-114.103,105.227L-114.034,104.773L-113.966,103.636L-113.897,102.5L-113.829,102.045L-113.761,104.318L-113.692,103.636L-113.624,105.227L-113.555,105L-113.487,105.909L-113.418,105.455L-113.35,106.136L-113.281,107.273L-113.213,109.318L-113.145,110.682L-113.076,111.591L-113.008,111.364L-112.939,110.227L-112.871,112.273L-112.802,112.955L-112.734,114.545L-112.665,115L-112.597,115L-112.529,115L-112.46,114.773L-112.392,115.455L-112.323,115.227L-112.255,115.682L-112.186,116.136L-112.049,117.273L-111.981,116.818L-111.913,118.182L-111.844,118.409L-111.776,118.864L-111.707,120.227L-111.639,121.591L-111.57,122.5L-111.502,122.955L-111.433,123.864L-111.365,124.318L-111.296,125L-111.228,125L-111.16,124.773L-111.023,123.864L-110.954,123.409L-110.886,122.5L-110.817,122.045L-110.749,123.182L-110.68,122.955L-110.612,123.409L-110.544,122.727L-110.475,122.727L-110.407,124.091L-110.338,124.773L-110.27,124.773L-110.201,125L-110.133,125.455L-109.996,125.455L-109.928,125.455L-109.859,124.773L-109.791,124.545L-109.722,124.773L-109.654,126.136L-109.585,125.682L-109.517,125.682L-109.448,125.682L-109.38,125L-109.312,125.682L-109.243,126.136L-109.175,126.136L-109.106,126.818L-109.038,126.364L-108.969,126.364L-108.901,127.045L-108.49,127.727L-108.422,127.955L-108.353,129.318L-108.285,129.773L-108.216,129.773L-108.148,130L-108.08,130.909L-108.011,131.364L-107.943,131.136L-107.874,130.909L-107.806,131.591L-107.737,131.591L-107.669,131.591L-107.6,131.818L-107.532,132.045L-107.463,132.5L-107.395,133.636L-107.327,133.636L-107.258,133.864L-107.19,135L-107.121,135.227L-107.053,135.455L-106.984,136.591L-106.916,136.818L-106.779,137.5L-106.711,137.727L-106.642,137.5L-106.574,138.409L-106.505,138.636L-106.437,138.864L-106.368,139.091L-106.3,140L-106.231,140L-106.163,140L-106.095,140.227L-106.026,140.455L-105.958,140.455L-105.889,140.455L-105.684,140.682L-105.615,141.136L-105.342,141.364L-105.273,141.818L-105.205,142.045L-105.136,141.136L-104.999,140.227L-104.931,140.227L-104.863,140.227L-104.794,140.227L-104.589,139.545L-104.452,139.545L-104.247,139.091L-103.696,137.727L-103.628,137.273L-103.422,137.045L-103.285,134.773L-103.217,132.273L-102.875,130L-102.464,127.045L-102.327,127.045L-101.3,126.136L-99.247,123.864L-98.084,119.773L-97.947,116.364L-97.81,115.227L-97.604,114.318L-97.467,112.955L-97.399,110.682L-96.783,110.455L-96.715,110.227L-96.646,109.545L-96.578,108.636L-96.441,107.955L-96.372,106.818L-96.03,105.682L-95.893,106.591L-95.825,105.909L-95.756,105.227L-95.619,102.5L-95.551,101.591L-95.483,100.227L-95.414,99.091L-95.346,97.955L-95.277,97.5L-95.209,97.045L-95.143,97.045L-95.075,97.5L-95.006,98.409L-94.938,100L-94.869,97.727L-94.801,93.864L-94.732,92.955L-94.664,94.773L-94.596,97.273L-94.527,96.591L-94.459,93.409L-94.39,92.727L-94.322,94.773L-94.253,93.409L-94.185,91.136L-94.116,90L-94.048,89.773L-93.98,88.636L-93.911,88.864L-93.843,89.773L-93.774,87.273L-93.706,88.182L-93.637,87.5L-93.569,88.182L-93.5,88.182L-93.432,86.818L-93.364,87.273L-93.295,89.091L-93.227,88.182L-93.158,87.5L-93.09,88.864L-93.021,88.409L-92.953,88.182L-92.884,89.545L-92.816,90.682L-92.748,94.091L-92.679,95.227L-92.611,92.273L-92.542,89.318L-92.474,89.091L-92.405,92.955L-92.268,93.864L-92.2,92.955L-92.132,93.636L-92.063,95.227L-91.995,93.182L-91.926,93.182L-91.858,92.5L-91.789,91.818L-91.721,91.818L-91.652,92.045L-91.584,90.909L-91.516,90.909L-91.447,90.909L-91.379,92.273L-91.31,90.909L-91.242,89.773L-91.173,87.273L-91.105,86.591L-91.036,84.773L-90.968,83.636L-90.899,83.636L-90.831,85L-90.763,84.318L-90.694,83.409L-90.626,84.091L-90.557,82.955L-90.489,86.364L-90.42,87.727L-90.352,89.091L-90.283,87.5L-90.215,87.955L-90.147,89.091L-90.078,89.318L-90.01,89.091L-89.941,92.273L-89.873,92.273L-89.804,92.955L-89.736,91.364L-89.667,90.682L-89.599,92.727L-89.531,93.409L-89.462,92.5L-89.394,92.727L-89.325,91.818L-89.257,95.682L-89.188,97.045L-89.12,99.318L-89.051,101.591L-88.983,103.636L-88.915,105.227L-88.846,106.818L-88.778,107.045L-88.709,107.045L-88.641,107.955L-88.572,108.182L-88.504,111.364L-88.435,112.045L-88.367,114.091L-88.299,114.545L-88.23,115.455L-88.162,113.636L-88.093,113.182L-88.025,113.182L-87.956,113.182L-87.888,112.727L-87.819,113.182L-87.751,115L-87.683,117.727L-87.614,117.273L-87.546,115.227L-87.477,115.455L-87.409,116.591L-87.34,116.136L-87.272,116.818L-87.203,116.136L-87.135,115.909L-87.067,115.227L-86.998,112.955L-86.93,112.5L-86.861,112.727L-86.793,112.273L-86.724,111.364L-86.656,110.227L-86.587,110.682L-86.519,110.909L-86.45,109.545L-86.382,109.773L-86.314,108.864L-86.177,107.955L-86.108,106.818L-86.04,108.182L-85.971,107.955L-85.903,107.955L-85.834,107.955L-85.766,108.636L-85.698,107.955L-85.629,107.273L-85.561,107.273L-85.492,109.545L-85.424,111.818L-85.355,111.136L-85.287,111.591L-85.218,112.5L-85.15,112.273L-85.082,113.182L-85.013,113.636L-84.945,114.545L-84.876,116.591L-84.808,117.5L-84.739,116.818L-84.671,117.955L-84.602,118.182L-84.534,118.182L-84.466,117.5L-84.397,116.818L-84.329,117.045L-84.26,117.727L-84.192,117.5L-84.123,118.636L-84.055,119.318L-83.986,120.227L-83.918,120L-83.85,120.227L-83.781,120.682L-83.713,120.682L-83.644,121.591L-83.576,121.364L-83.507,121.136L-83.439,120.682L-83.37,120.227L-83.302,120.909L-83.234,120.909L-83.165,122.045L-83.097,122.5L-83.028,122.273L-82.96,122.727L-82.891,123.409L-82.823,124.091L-82.754,124.545L-82.686,125.227L-82.617,125.455L-82.549,126.364L-82.481,127.955L-82.412,129.318L-82.344,130.227L-82.275,131.136L-82.207,131.136L-82.138,132.727L-82.07,132.5L-82.001,133.864L-81.933,133.864L-81.865,135L-81.796,135.682L-81.728,136.136L-81.659,136.591L-81.591,137.045L-81.522,137.727L-81.454,138.182L-81.385,138.636L-81.317,139.091L-81.249,139.318L-81.112,140L-81.043,140.227L-80.975,140.455L-80.906,140.227L-80.769,140L-80.701,140L-80.633,139.091L-80.564,139.318L-80.427,138.409L-80.359,138.182L-80.29,137.727L-80.222,137.727L-80.153,135.455L-80.085,133.409L-79.948,133.182L-79.811,132.5L-79.606,131.591L-79.537,131.364L-79.469,130.682L-77.96,130.682L-77.002,130L-76.865,130L-76.66,129.318L-74.949,127.955L-74.196,127.273L-74.127,126.818L-74.059,125.682L-73.648,123.864L-72.005,121.818L-71.869,118.636L-71.663,113.636L-71.595,111.818L-71.389,110.909L-71.184,110.455L-71.047,109.545L-70.979,108.182L-70.91,107.727L-70.842,105.455L-70.773,102.955L-70.705,100L-70.637,97.045L-70.363,94.545L-70.294,95.909L-70.229,97.955L-70.092,95.455L-69.955,93.864L-69.886,92.273L-69.818,90.227L-69.75,89.773L-69.681,87.955L-69.613,85.909L-69.544,82.727L-69.476,79.773L-69.407,79.773L-69.339,79.318L-69.202,77.727L-69.134,75.227L-69.065,74.091L-68.997,73.182L-68.928,72.5L-68.86,77.5L-68.791,75.455L-68.723,73.636L-68.654,71.591L-68.586,71.136L-68.518,68.636L-68.449,65.455L-68.381,64.545L-68.312,64.773L-68.244,67.5L-68.175,68.409L-68.107,70.682L-68.038,66.818L-67.97,64.545L-67.902,65.682L-67.833,66.818L-67.765,65.909L-67.696,65.682L-67.628,64.318L-67.559,63.182L-67.491,63.864L-67.422,64.318L-67.354,67.273L-67.286,67.955L-67.217,69.091L-67.149,69.091L-67.08,70.455L-67.012,73.182L-66.943,74.545L-66.875,75.227L-66.806,73.409L-66.738,75.455L-66.67,77.273L-66.601,78.409L-66.533,78.182L-66.464,78.636L-66.396,80.909L-66.327,81.818L-66.259,82.727L-66.19,82.045L-66.122,82.727L-66.054,82.273L-65.985,81.591L-65.917,77.273L-65.848,77.045L-65.78,77.5L-65.711,79.773L-65.643,80.227L-65.574,73.409L-65.437,69.318L-65.369,70.227L-65.301,71.591L-65.232,71.364L-65.095,70.227L-65.027,67.5L-64.958,68.182L-64.89,67.5L-64.821,67.273L-64.753,68.864L-64.685,70.909L-64.616,72.045L-64.548,72.955L-64.479,72.727L-64.411,73.636L-64.342,75.227L-64.274,78.182L-64.137,80.227L-64.069,82.045L-63.932,84.318L-63.863,85L-63.726,82.955L-63.658,82.955L-63.589,87.273L-63.521,93.864L-63.384,95.227L-63.316,95.909L-63.247,95.909L-63.179,94.545L-63.11,103.409L-63.042,110L-62.973,108.182L-62.905,108.864L-62.837,108.864L-62.768,110.227L-62.7,111.364L-62.631,111.818L-62.563,112.5L-62.494,112.955L-62.426,112.727L-62.357,112.5L-62.289,112.045L-62.221,110.909L-62.152,110.909L-62.084,110L-62.015,110.227L-61.947,110.682L-61.878,110.227L-61.81,109.318L-61.741,108.636L-61.673,107.5L-61.604,111.364L-61.536,110.227L-61.468,110.227L-61.399,109.091L-61.331,108.864L-61.262,108.409L-61.194,108.182L-61.125,110.909L-61.057,110.909L-60.988,110.909L-60.92,112.045L-60.852,112.273L-60.783,112.955L-60.646,112.955L-60.578,113.636L-60.509,113.864L-60.441,115.682L-60.372,114.773L-60.304,115L-60.236,115L-60.167,114.773L-60.099,115.682L-60.03,116.364L-59.962,117.955L-59.893,117.727L-59.825,117.045L-59.756,117.273L-59.688,118.409L-59.62,118.864L-59.551,120L-59.483,120L-59.414,122.045L-59.346,123.182L-59.277,124.091L-59.209,124.545L-59.14,125L-59.072,126.136L-59.004,126.136L-58.935,126.591L-58.867,126.818L-58.798,128.182L-58.73,128.409L-58.661,128.636L-58.593,129.091L-58.456,129.545L-58.388,129.545L-58.319,130.227L-58.251,130.227L-58.182,130.227L-58.114,131.591L-58.045,132.955L-57.977,133.864L-57.908,133.409L-57.84,133.182L-57.772,132.955L-57.703,132.727L-57.635,132.727L-57.566,132.955L-57.498,132.727L-57.429,132.273L-57.361,131.818L-57.292,130.909L-57.155,130.682L-57.087,130.227L-56.882,130.682L-56.813,130.909L-56.676,130.909L-56.608,131.818L-56.539,131.818L-56.471,132.273L-56.403,132.727L-56.334,132.727L-56.266,132.955L-56.197,132.273L-56.129,132.5L-56.06,133.409L-55.992,132.955L-55.923,133.636L-55.855,132.727L-55.787,131.364L-55.65,130.227L-55.513,129.773L-55.444,130.682L-55.376,130.909L-55.239,131.136L-55.171,130.455L-55.102,130.455L-55.034,128.636L-54.965,126.818L-54.897,126.818L-54.828,127.045L-54.691,127.955L-54.486,127.273L-54.144,126.364L-54.075,125.909L-53.593,123.182L-53.388,120.455L-53.183,117.955L-50.856,114.318L-48.665,114.318L-46.543,112.045L-46.475,109.318L-46.338,109.318L-46.27,109.091L-45.927,109.091L-45.654,108.182L-45.517,107.5L-45.448,105.227L-45.38,102.273L-45.314,100.455L-45.246,100.455L-45.177,99.773L-45.04,96.136L-44.972,92.273L-44.904,89.773L-44.767,87.273L-44.63,85.227L-44.493,85.682L-44.424,86.136L-44.356,85L-44.288,82.727L-44.151,78.864L-44.082,77.045L-43.945,78.636L-43.877,75.682L-43.808,75L-43.74,73.409L-43.672,72.045L-43.603,73.409L-43.535,69.545L-43.466,70.227L-43.398,71.818L-43.329,70.455L-43.261,68.182L-43.192,64.091L-43.124,58.864L-43.056,57.5L-42.987,55.682L-42.919,59.091L-42.782,61.818L-42.713,59.773L-42.645,56.591L-42.576,57.955L-42.508,58.864L-42.44,58.409L-42.371,62.045L-42.303,63.182L-42.234,61.818L-42.166,60L-42.097,57.045L-42.029,54.318L-41.96,57.045L-41.892,59.091L-41.755,57.727L-41.687,56.364L-41.618,55L-41.55,56.136L-41.481,56.591L-41.413,54.318L-41.344,54.318L-41.276,52.955L-41.208,51.136L-41.139,50.455L-41.071,52.5L-41.002,53.409L-40.934,56.136L-40.865,56.364L-40.797,60L-40.728,59.091L-40.66,57.273L-40.591,57.045L-40.523,57.273L-40.455,56.591L-40.386,58.182L-40.318,60L-40.249,57.273L-40.181,53.409L-40.112,53.636L-40.044,52.5L-39.975,55.227L-39.907,58.864L-39.839,57.727L-39.77,56.136L-39.702,55.682L-39.633,58.636L-39.565,61.364L-39.496,64.545L-39.428,67.727L-39.359,72.045L-39.291,74.091L-39.223,75L-39.154,76.364L-39.086,76.818L-39.017,76.818L-38.949,77.727L-38.88,78.636L-38.812,78.182L-38.743,76.364L-38.675,77.273L-38.607,79.091L-38.538,80.455L-38.47,82.727L-38.401,82.955L-38.333,81.591L-38.264,81.364L-38.196,82.045L-38.127,86.591L-38.059,86.818L-37.991,90.682L-37.922,92.045L-37.854,91.136L-37.785,91.818L-37.717,91.818L-37.648,92.273L-37.58,90.909L-37.511,92.273L-37.443,92.273L-37.375,91.136L-37.306,90.227L-37.238,90.455L-37.169,91.136L-37.101,92.045L-37.032,90.682L-36.964,91.364L-36.895,91.364L-36.827,91.136L-36.758,93.864L-36.69,95.682L-36.553,94.773L-36.485,94.545L-36.416,95.682L-36.348,96.136L-36.279,97.045L-36.211,98.182L-36.142,99.091L-36.074,100.682L-36.006,100L-35.937,100.227L-35.869,101.136L-35.8,100.227L-35.732,101.591L-35.663,101.591L-35.595,102.273L-35.526,102.955L-35.458,105.227L-35.39,105.682L-35.321,105L-35.253,105.909L-35.184,107.045L-35.116,108.182L-35.047,109.545L-34.979,110.455L-34.91,112.727L-34.842,112.5L-34.774,114.318L-34.705,117.045L-34.637,116.591L-34.568,116.364L-34.5,117.273L-34.431,117.955L-34.363,117.955L-34.294,119.545L-34.226,121.136L-34.158,122.045L-34.089,122.955L-34.021,123.636L-33.952,125L-33.884,126.591L-33.815,126.364L-33.747,128.182L-33.678,129.318L-33.61,130.909L-33.542,132.273L-33.473,132.727L-33.405,133.636L-33.336,133.409L-33.268,133.864L-33.199,134.091L-33.131,134.091L-33.062,133.864L-32.994,133.864L-32.926,133.636L-32.857,134.318L-32.72,134.318L-32.652,135L-32.583,134.545L-32.446,134.545L-32.378,135.455L-32.309,135.909L-32.241,135.909L-32.173,136.818L-32.036,136.818L-31.967,137.045L-31.899,137.727L-31.762,137.727L-31.625,137.955L-31.557,137.955L-31.488,138.409L-31.42,138.864L-31.351,138.409L-31.283,138.409L-31.214,138.409L-31.146,138.636L-30.941,138.636L-30.872,138.182L-30.804,137.955L-30.667,138.409L-30.598,137.727L-30.461,137.045L-30.325,137.273L-30.256,135.682L-30.188,135.682L-30.119,135.455L-29.982,135L-29.64,134.773L-29.572,134.773L-29.503,134.545L-29.021,133.636L-28.953,132.045L-28.884,131.364L-28.474,131.136L-28.337,130.455L-27.515,127.045L-27.173,124.773L-27.105,124.091L-26.899,123.864L-26.078,121.591L-25.873,118.636L-25.394,117.273L-24.778,115.227L-20.465,113.864L-20.263,110.909L-20.195,108.864L-19.989,105.682L-19.852,103.182L-19.715,101.818L-19.578,101.591L-19.51,99.545L-19.442,99.545L-19.373,99.318L-19.305,98.636L-19.236,96.364L-19.168,92.273L-19.099,92.045L-19.031,90.455L-18.962,87.727L-18.894,85.227L-18.826,83.864L-18.757,83.636L-18.689,79.318L-18.62,76.364L-18.552,74.091L-18.483,75.455L-18.415,74.773L-18.278,71.364L-18.21,69.091L-18.141,65.455L-18.073,64.773L-18.004,64.545L-17.936,65.909L-17.867,65.682L-17.799,65.682L-17.73,63.409L-17.662,63.182L-17.594,64.545L-17.525,62.273L-17.457,59.773L-17.388,58.864L-17.32,56.136L-17.251,54.091L-17.183,53.409L-17.114,52.5L-17.046,54.545L-16.978,54.545L-16.909,53.636L-16.841,53.409L-16.772,54.318L-16.704,55.227L-16.635,55.682L-16.567,57.955L-16.498,59.773L-16.43,58.864L-16.362,56.591L-16.293,57.955L-16.225,60.227L-16.156,61.364L-16.088,65L-16.019,67.045L-15.951,67.273L-15.882,66.818L-15.814,67.045L-15.745,70L-15.677,72.727L-15.609,74.545L-15.54,74.318L-15.472,77.5L-15.403,77.273L-15.335,79.545L-15.266,81.591L-15.198,82.955L-15.129,84.318L-15.061,84.545L-14.993,86.818L-14.924,83.864L-14.856,84.091L-14.787,83.636L-14.719,82.727L-14.513,82.727L-14.445,79.773L-14.377,81.591L-14.308,80.455L-14.24,82.045L-14.171,83.636L-14.103,83.864L-14.034,83.636L-13.966,82.273L-13.897,82.955L-13.829,82.5L-13.761,83.182L-13.692,84.318L-13.624,85L-13.555,82.727L-13.487,82.5L-13.418,83.864L-13.35,84.545L-13.281,85L-13.213,86.818L-13.145,85L-13.076,84.773L-13.008,84.545L-12.939,83.636L-12.871,86.136L-12.802,84.773L-12.734,87.727L-12.665,88.864L-12.597,91.818L-12.529,92.955L-12.46,92.727L-12.392,94.773L-12.323,94.773L-12.255,95.455L-12.186,96.364L-12.118,97.955L-12.049,98.182L-11.981,97.045L-11.913,96.364L-11.844,96.591L-11.776,97.727L-11.707,97.045L-11.639,95L-11.57,93.864L-11.502,95.455L-11.433,95.909L-11.365,95.455L-11.296,95.682L-11.228,95.909L-11.16,97.045L-11.091,99.545L-11.023,99.773L-10.954,98.182L-10.886,100L-10.817,98.409L-10.749,98.409L-10.68,99.091L-10.612,99.091L-10.544,98.409L-10.475,99.091L-10.407,99.773L-10.338,100.682L-10.27,100.227L-10.201,100.455L-10.133,101.136L-10.064,100.682L-9.996,100.227L-9.928,102.045L-9.859,104.773L-9.791,105.909L-9.722,105.455L-9.654,105.682L-9.585,107.727L-9.517,107.955L-9.448,107.273L-9.38,108.182L-9.312,108.636L-9.243,107.955L-9.175,107.273L-9.106,105L-9.038,105.455L-8.969,105.682L-8.901,108.636L-8.832,107.727L-8.764,109.773L-8.696,110.455L-8.627,109.773L-8.559,110.909L-8.49,112.5L-8.422,113.864L-8.353,114.545L-8.285,115.455L-8.216,116.818L-8.148,117.955L-8.08,117.5L-8.011,119.091L-7.943,120.455L-7.874,121.364L-7.806,121.364L-7.669,121.364L-7.6,121.591L-7.532,122.727L-7.463,122.955L-7.395,124.545L-7.327,125.455L-7.258,125.455L-7.19,125.682L-7.121,127.045L-7.053,128.182L-6.984,130.227L-6.916,130.227L-6.847,131.364L-6.779,131.364L-6.711,132.955L-6.642,133.182L-6.574,133.864L-6.505,135.227L-6.437,135.455L-6.368,134.773L-6.3,134.773L-6.095,135L-6.026,135.227L-5.958,135.227L-5.889,135.682L-5.821,136.818L-5.684,136.818L-5.615,137.045L-5.547,137.5L-5.479,138.182L-5.41,138.409L-5.342,139.318L-5.205,138.864L-4.999,138.864L-4.931,138.182L-4.863,137.5L-4.794,136.591L-4.726,136.591L-4.52,136.818L-4.383,136.364L-4.315,135.227L-4.247,135.455L-4.178,134.318L-4.107,132.273L-3.97,130.227L-3.901,129.318L-3.833,128.636L-3.696,127.955L-3.628,125.909L-3.217,126.591L-2.875,125.455L-2.806,122.955L-2.738,121.591L-2.122,121.364L-1.3,120.909L-0.958,118.636L-0.753,117.273L2.122,115.455L2.464,113.409L2.533,112.5L3.422,111.818L3.491,111.818L3.901,110.909L3.97,110.909L4.038,110.455L4.107,111.364L4.175,112.727L4.244,112.273L4.312,110.909L4.381,111.136L4.449,111.591L4.517,111.364L4.586,112.045L4.654,113.636L4.723,113.409L4.791,112.955L4.86,111.364L4.928,108.636L5.062,107.5L5.131,105.455L5.199,104.545L5.268,105.455L5.336,104.318L5.404,102.727L5.541,99.773L5.61,98.182L5.678,99.091L5.747,99.318L5.815,99.545L5.884,99.773L5.952,98.409L6.02,96.818L6.089,97.273L6.226,96.591L6.294,96.818L6.5,95.455L6.568,92.727L6.636,91.591L6.705,89.773L6.842,85.909L6.91,82.955L6.979,82.273L7.047,81.364L7.116,81.818L7.184,82.955L7.252,84.318L7.321,86.136L7.389,86.818L7.458,85.909L7.526,85.455L7.595,80.682L7.663,74.545L7.732,74.318L7.8,70.682L7.868,70.455L7.937,70.227L8.005,66.136L8.074,65.455L8.142,65.682L8.211,63.182L8.348,62.045L8.416,62.727L8.484,58.864L8.553,53.864L8.69,54.545L8.758,50.682L8.827,51.136L8.895,52.955L8.964,52.5L9.032,52.727L9.101,55.682L9.169,54.318L9.237,53.864L9.306,52.045L9.374,50.909L9.443,47.955L9.511,47.273L9.58,44.318L9.648,47.273L9.717,48.864L9.785,53.409L9.853,59.091L9.922,59.773L9.99,62.273L10.059,63.864L10.127,66.136L10.196,68.636L10.264,68.636L10.333,67.5L10.401,65.909L10.469,67.727L10.538,66.136L10.606,68.864L10.675,72.5L10.743,71.818L10.812,76.818L10.88,77.955L10.949,76.136L11.017,79.091L11.085,80.909L11.154,78.409L11.222,79.091L11.291,77.955L11.359,79.091L11.428,79.318L11.496,80.682L11.565,81.136L11.633,85.909L11.701,84.773L11.77,83.864L11.838,83.409L11.907,84.318L11.975,85.682L12.044,87.273L12.112,89.091L12.181,89.773L12.249,89.773L12.317,91.591L12.386,93.182L12.454,97.955L12.523,99.091L12.591,100L12.66,101.136L12.728,100.455L12.797,99.318L12.865,98.409L12.933,97.727L13.002,98.182L13.07,98.182L13.139,98.409L13.207,100L13.276,101.136L13.344,102.727L13.413,103.409L13.481,105.455L13.55,106.136L13.618,106.136L13.686,105.682L13.755,104.773L13.823,104.773L13.892,105.909L13.96,106.591L14.029,106.136L14.097,106.591L14.166,105.909L14.234,105.909L14.302,106.364L14.371,105L14.439,104.773L14.508,102.955L14.576,102.955L14.645,103.864L14.713,104.091L14.782,104.545L14.85,104.773L14.918,104.773L14.987,104.545L15.055,105.227L15.124,105.682L15.192,106.591L15.261,108.182L15.329,107.5L15.398,106.591L15.466,106.364L15.534,105.682L15.603,105.682L15.671,106.364L15.74,106.818L15.808,108.182L15.877,108.636L15.945,110.227L16.014,109.773L16.082,109.773L16.15,110L16.219,110.455L16.287,110.909L16.356,111.364L16.424,113.182L16.493,113.636L16.561,115.227L16.63,115.227L16.698,116.136L16.766,116.364L16.835,118.864L16.903,120.682L16.972,121.364L17.04,123.409L17.109,123.864L17.177,124.091L17.246,125L17.314,125.227L17.383,126.136L17.451,127.955L17.519,127.955L17.588,128.636L17.656,129.318L17.725,129.091L17.793,129.773L17.862,131.591L17.93,132.727L17.999,132.727L18.067,133.636L18.135,135L18.204,135.682L18.272,136.136L18.341,136.818L18.409,137.273L18.478,137.5L18.546,138.409L18.615,138.636L18.751,138.636L18.82,138.409L18.888,138.864L18.957,138.636L19.231,138.182L19.367,138.864L19.436,138.864L19.504,138.864L19.71,138.864L19.778,137.5L19.847,137.045L19.915,136.818L19.983,137.045L20.052,137.5L20.12,137.5L20.326,137.5L20.463,137.727L20.599,136.136L20.668,135.682L20.942,135.227L21.01,134.545L21.287,133.636L21.697,133.636L22.04,132.727L22.587,132.5L23.203,132.273L24.298,131.136L25.804,130.682L26.968,130.227L27.652,127.727L27.858,127.5L28.268,125.682L28.405,123.636L28.474,119.773L28.611,117.045L28.679,115L28.816,112.045L28.884,108.864L28.953,106.591L29.021,102.727L29.09,100.682L29.158,99.091L29.432,98.409L29.5,97.5L29.569,96.364L29.637,95.455L30.456,91.136L30.661,91.136L30.73,91.591L30.798,90.227L30.866,87.955L30.935,84.318L31.003,80L31.072,79.545L31.209,76.818L31.277,74.773L31.346,75.227L31.414,73.409L31.482,73.409L31.619,74.091L31.688,72.273L31.756,72.273L31.825,71.364L31.893,72.955L31.962,74.318L32.03,73.864L32.098,74.545L32.167,74.091L32.235,74.318L32.304,78.409L32.372,78.409L32.441,77.955L32.509,75.682L32.578,76.591L32.646,75.455L32.714,70.909L32.783,74.773L32.851,75L32.92,72.5L32.988,70.909L33.057,70.227L33.125,73.864L33.194,75.455L33.262,71.591L33.33,70.682L33.399,70L33.467,68.636L33.604,69.091L33.673,69.318L33.741,67.955L33.81,68.182L33.878,67.273L33.946,67.045L34.015,67.5L34.152,67.727L34.22,68.864L34.289,68.182L34.357,68.864L34.426,69.091L34.494,68.864L34.563,69.773L34.631,72.273L34.699,74.545L34.768,72.955L34.836,72.727L34.905,76.364L34.973,73.636L35.042,71.364L35.11,72.5L35.179,74.545L35.247,76.364L35.315,76.136L35.384,76.818L35.452,80L35.521,82.5L35.589,84.545L35.658,84.773L35.726,85L35.795,83.636L35.863,86.364L35.931,87.045L36,87.5L36.068,88.636L36.137,88.182L36.205,88.182L36.274,89.545L36.342,92.5L36.411,94.545L36.479,96.136L36.547,95.227L36.616,95L36.684,94.091L36.753,94.773L36.821,95.909L36.89,96.818L36.958,98.409L37.027,100.455L37.095,102.5L37.163,102.5L37.232,102.5L37.3,103.636L37.369,103.409L37.437,104.545L37.506,103.864L37.574,103.636L37.643,103.864L37.711,105.682L37.779,107.045L37.848,108.409L37.916,107.955L37.985,108.409L38.053,109.545L38.122,110.682L38.19,112.727L38.259,113.182L38.327,111.591L38.396,111.136L38.464,111.591L38.532,110.455L38.601,112.727L38.669,112.955L38.738,113.182L38.806,112.5L38.875,111.364L38.943,112.045L39.012,111.591L39.08,111.818L39.148,112.955L39.217,113.182L39.285,112.955L39.354,112.955L39.422,113.636L39.491,113.864L39.559,115.909L39.628,116.818L39.696,116.591L39.764,117.273L39.833,117.5L39.901,116.818L40.038,117.045L40.107,117.5L40.175,118.864L40.244,119.318L40.312,119.545L40.38,120.455L40.449,122.045L40.517,122.045L40.654,122.727L40.723,123.636L40.791,123.182L40.86,124.545L40.928,125.227L41.065,125.682L41.133,127.273L41.202,127.955L41.27,128.636L41.339,129.318L41.407,128.864L41.544,129.091L41.612,130.227L41.681,129.545L41.749,129.318L41.818,130L41.886,130L41.955,130.682L42.023,130.909L42.092,130.909L42.228,130.909L42.297,131.136L42.365,130.682L42.502,130.909L42.571,130.909L42.639,131.364L42.708,130.682L42.776,130.227L42.845,129.773L42.913,130.227L42.981,130L43.05,130.455L43.118,130.909L43.187,130.682L43.255,130.909L43.392,131.364L43.461,131.364L43.597,131.591L43.666,131.818L43.734,131.818L43.803,132.727L43.871,133.636L43.94,134.318L44.008,135.682L44.077,136.591L44.145,136.591L44.282,137.273L44.419,137.273L44.487,137.045L44.556,137.045L44.624,137.045L44.693,137.273L44.761,137.955L44.829,138.182L44.966,138.182L45.035,137.5L45.103,138.409L45.172,138.182L45.24,138.409L45.514,138.409L45.582,138.636L45.925,138.636L46.061,138.182L46.13,138.182L46.201,138.182L47.502,138.182L47.707,137.955L47.775,137.727L48.049,137.273L48.118,137.5L49.008,137.5L50.171,137.5L51.061,136.136L52.635,135.227L52.704,134.773L52.772,134.545L52.909,133.864L53.114,133.182L53.251,133.864L53.32,132.5L53.457,132.045L53.525,130.682L53.593,130.455L53.73,128.864L53.867,128.182L53.936,127.5L54.004,125.455L54.073,125L54.209,122.5L54.346,121.591L54.415,121.364L54.689,120.455L54.757,119.545L54.823,120L55.028,119.318L55.096,117.045L55.165,110.227L55.233,107.273L55.302,104.318L55.576,104.091L55.644,102.955L55.781,101.136L55.918,99.773L55.986,97.045L56.055,97.273L56.123,93.864L56.192,91.364L56.397,90.909L56.465,89.091L56.534,87.5L56.602,86.818L56.671,85.227L56.739,83.409L56.808,84.318L56.876,83.409L56.944,82.5L57.013,84.318L57.081,85.682L57.15,87.045L57.218,86.364L57.287,86.591L57.355,85.455L57.424,86.364L57.492,83.864L57.56,82.045L57.629,83.864L57.697,86.818L57.766,87.5L57.834,89.545L57.903,87.727L57.971,88.864L58.04,88.182L58.108,89.545L58.176,90.455L58.245,90.455L58.313,92.5L58.382,90.682L58.45,89.318L58.519,88.409L58.587,89.545L58.656,88.409L58.724,89.545L58.792,89.091L58.861,86.591L58.929,88.182L58.998,87.727L59.066,86.591L59.135,84.091L59.203,83.409L59.272,82.273L59.34,80.455L59.409,80.682L59.545,80.909L59.614,82.727L59.682,84.545L59.751,83.409L59.819,85.455L59.888,86.818L59.956,85.682L60.025,86.818L60.093,83.864L60.161,85.455L60.23,86.136L60.298,86.364L60.367,84.773L60.435,85.909L60.504,89.318L60.572,90.455L60.641,92.727L60.709,94.091L60.777,95.909L60.846,95.682L60.914,96.591L60.983,97.273L61.051,97.045L61.12,99.318L61.188,99.545L61.257,99.773L61.325,101.136L61.393,102.5L61.462,103.864L61.53,105.682L61.599,105.227L61.667,104.545L61.736,103.409L61.804,103.864L61.873,105.682L61.941,106.591L62.009,108.636L62.078,109.545L62.146,111.818L62.215,112.727L62.283,112.955L62.352,113.182L62.42,114.318L62.489,114.091L62.557,114.773L62.625,115.682L62.694,115.682L62.762,114.773L62.831,115.227L62.899,116.364L62.968,118.409L63.036,120.455L63.105,120.455L63.173,120.909L63.242,121.364L63.31,123.409L63.378,123.864L63.447,125L63.515,125.227L63.584,124.545L63.652,124.318L63.721,125.227L63.789,126.136L63.858,126.364L63.926,126.136L63.994,125.227L64.063,125.227L64.131,124.773L64.2,125.455L64.268,124.318L64.337,124.773L64.405,127.045L64.474,127.727L64.542,127.727L64.61,128.409L64.679,128.864L64.747,129.318L64.816,130.455L64.953,130.455L65.021,131.364L65.09,130.909L65.158,130.909L65.226,130.455L65.295,129.773L65.363,130L65.432,128.182L65.5,128.182L65.569,127.5L65.637,127.5L65.706,128.182L65.774,127.955L65.842,128.409L65.911,129.318L65.979,130.227L66.048,130.682L66.116,130.682L66.185,130.909L66.253,131.364L66.322,131.364L66.39,132.5L66.527,132.5L66.595,132.045L66.664,132.045L66.732,132.727L66.801,132.727L66.869,132.273L66.938,132.5L67.006,132.5L67.074,132.5L67.143,132.955L67.348,133.409L67.485,133.864L67.554,134.545L67.622,135.227L67.691,135.682L67.759,137.727L67.896,137.955L67.964,138.864L68.033,139.091L68.101,139.091L68.238,140.227L68.375,140.227L68.443,140.227L68.512,140.227L68.58,140.227L68.649,140.909L68.717,141.136L68.786,141.136L68.854,141.136L68.923,141.136L69.128,141.136L69.333,141.364L69.402,141.364L69.47,141.364L69.675,141.591L69.744,142.045L69.812,141.818L69.949,141.364L70.018,140.682L70.155,140.455L70.223,139.773L70.36,139.545L70.839,139.545L71.253,139.091L72.827,138.636L72.964,138.409L73.238,138.182L73.785,137.045L73.99,135.227L74.196,133.864L75.291,133.182L75.496,130.909L76.66,129.545L77.413,127.5L77.55,125.909L78.029,124.773L78.097,123.636L78.508,122.045L78.576,121.591L78.645,121.364L78.713,118.864L78.782,118.409L78.987,117.273L79.535,116.818L79.671,115L79.737,112.727L79.805,110.682L79.874,109.773L79.942,107.5L80.011,105L80.148,103.182L80.216,102.273L80.285,100.909L80.353,99.318L80.49,99.773L80.558,98.182L80.627,95.909L80.695,95L80.764,94.773L80.832,95.682L80.901,94.318L80.969,93.864L81.038,94.545L81.174,95.455L81.243,95.227L81.311,93.864L81.38,95L81.517,94.773L81.585,93.409L81.654,91.136L81.722,91.591L81.79,90L81.859,89.545L81.927,90L81.996,88.864L82.064,87.727L82.133,87.955L82.201,85L82.27,85.455L82.338,83.636L82.406,82.727L82.475,80.227L82.543,79.545L82.612,79.318L82.68,75.909L82.749,73.636L82.817,72.045L82.954,73.636L83.022,75.227L83.091,75.455L83.159,75.227L83.228,72.273L83.296,66.818L83.365,64.545L83.433,61.364L83.502,62.5L83.57,60.227L83.638,57.955L83.707,55.455L83.775,53.409L83.844,55.455L83.912,55.227L84.118,54.773L84.186,53.182L84.255,54.545L84.323,55L84.391,55.227L84.46,55.909L84.528,57.5L84.597,60.682L84.665,62.5L84.734,64.091L84.802,62.727L84.871,62.727L84.939,63.864L85.007,65.682L85.076,67.955L85.144,66.818L85.213,64.545L85.281,64.318L85.35,65.682L85.418,70.455L85.487,76.136L85.555,78.182L85.623,81.818L85.692,82.955L85.76,84.091L85.829,86.818L85.897,90.909L85.966,94.773L86.034,93.864L86.103,95.909L86.171,97.727L86.239,98.182L86.308,99.091L86.376,101.136L86.445,102.727L86.582,106.591L86.65,107.273L86.719,108.182L86.787,109.318L86.855,110.455L86.924,113.636L86.992,115.455L87.061,117.5L87.129,118.636L87.266,119.318L87.335,120L87.403,121.818L87.471,120.909L87.608,120.682L87.677,120.682L87.745,121.136L87.814,121.136L87.882,121.591L87.951,121.818L88.019,122.045L88.087,122.045L88.156,121.818L88.224,122.5L88.293,121.818L88.361,121.364L88.43,121.591L88.567,122.273L88.635,121.136L88.704,121.591L88.772,121.591L88.909,120.909L88.977,120.455L89.046,119.773L89.114,117.955L89.183,116.364L89.251,116.136L89.32,116.364L89.388,115.909L89.525,115.909L89.593,115.455L89.662,115L89.73,115.909L89.799,116.818L89.867,117.273L89.936,117.045L90.004,116.136L90.072,116.364L90.141,116.364L90.209,116.591L90.278,116.591L90.346,117.5L90.415,117.5L90.483,117.045L90.552,117.273L90.62,117.955L90.688,117.045L90.757,116.136L90.825,116.818L90.894,116.818L90.962,114.318L91.031,114.091L91.099,114.773L91.168,115.227L91.236,116.136L91.304,118.182L91.373,117.045L91.441,116.591L91.51,116.591L91.578,117.045L91.647,118.409L91.715,119.545L91.784,119.545L91.852,119.773L91.92,120.455L92.057,120.909L92.126,121.591L92.194,122.273L92.263,122.727L92.331,122.045L92.4,122.273L92.468,121.591L92.537,122.273L92.605,121.818L92.673,122.727L92.742,122.5L92.81,123.409L92.879,124.773L92.947,125L93.016,125.455L93.084,128.182L93.153,129.091L93.221,128.864L93.289,129.318L93.358,130.455L93.426,130.909L93.495,132.5L93.563,133.182L93.632,133.636L93.7,134.318L93.769,134.545L93.905,134.773L93.974,134.773L94.042,134.773L94.111,134.773L94.179,135.455L94.316,135.682L94.385,135.909L94.453,136.364L94.521,137.273L94.59,137.955L94.795,138.864L94.932,138.864L95.069,139.773L95.274,140.227L95.411,140L95.548,140L95.617,139.545L95.685,140.455L95.753,140.227L96.03,139.545L96.099,139.545L96.167,139.773L96.235,140L96.372,140L96.441,139.773L97.057,139.773L97.125,139.773L97.194,140L97.399,139.091L97.467,138.409L97.604,138.182L97.81,138.182L98.152,138.182L98.22,138.182L98.289,137.5L98.357,137.5L98.631,137.5L98.836,136.818L98.973,136.136L99.452,135L99.589,135.227L99.658,135.227L99.726,135.227L100.137,134.545L100.342,134.091L100.616,133.636L100.753,133.636L100.821,132.045L100.958,132.045L101.369,129.318L101.574,127.727L101.78,125.227L101.848,124.091L101.916,124.318L101.985,122.727L102.053,120.909L102.122,118.409L102.259,117.955L102.327,117.045L102.396,116.818L102.601,115L102.669,112.727L103.012,112.045L103.217,112.045L103.354,111.591L103.491,110.455L103.559,109.545L103.628,110L103.696,110.455L103.765,110.227L103.97,110.227L104.038,109.773L104.107,109.091L104.175,108.864L104.244,109.091L104.312,109.091L104.381,109.318L104.517,110.909L104.586,110.909L104.651,114.318L104.72,114.545L104.788,116.818L104.857,117.727L104.925,116.136L104.994,116.591L105.062,118.409L105.131,118.864L105.199,117.273L105.268,118.409L105.336,116.591L105.404,118.409L105.473,117.5L105.541,117.273L105.678,117.045L105.815,117.273L105.884,114.091L106.157,111.591L106.226,106.136L106.294,101.136L106.363,102.045L106.431,95.909L106.5,95.682L106.568,93.636L106.636,92.955L106.705,90.909L106.979,85.682L107.047,76.818L107.116,70.682L107.184,67.955L107.252,62.727L107.321,59.091L107.389,54.318L107.458,50.227L107.526,46.591L107.595,42.045L107.663,41.591L107.732,39.091L107.8,35.909L107.868,30.455L108.005,25.909L108.074,20.909L108.142,20.682L108.211,16.818L108.279,11.818L108.348,8.864L108.416,10.455L108.484,13.409L108.553,15.227L108.621,18.636L108.69,17.727L108.827,18.409L108.895,15.227L108.964,10.909L109.032,7.727L109.101,8.409L109.169,10.455L109.237,13.636L109.306,15.909L109.374,12.5L109.443,10L109.511,9.545L109.58,11.818L109.648,13.182L109.717,15.455L109.785,20.227L109.853,19.091L109.922,21.818L109.99,23.864L110.059,27.045L110.127,31.818L110.196,35.455L110.264,35.909L110.333,36.591L110.401,39.545L110.469,39.318L110.538,39.545L110.606,39.545L110.675,42.727L110.743,44.091L110.812,43.636L110.88,46.364L110.949,48.182L111.017,52.5L111.085,56.591L111.154,56.591L111.222,58.182L111.291,62.955L111.359,63.864L111.428,68.409L111.496,75.227L111.565,78.864L111.633,81.136L111.701,82.955L111.77,85.227L111.838,85.455L111.907,85.682L111.975,87.273L112.044,89.773L112.112,91.591L112.181,93.636L112.249,94.091L112.317,95.455L112.386,99.091L112.454,100.227L112.523,102.5L112.591,104.091L112.66,103.409L112.728,102.727L112.797,102.273L112.865,104.091L112.933,106.364L113.002,107.727L113.139,109.545L113.207,108.864L113.276,110.455L113.344,111.591L113.413,111.818L113.481,113.409L113.55,115.227L113.618,115.682L113.686,115.682L113.755,115.227L113.823,115.682L113.892,114.773L113.96,115L114.029,115.909L114.097,114.773L114.166,113.636L114.234,113.864L114.302,112.955L114.371,113.636L114.439,115L114.508,114.545L114.576,113.864L114.645,112.955L114.713,112.5L114.85,113.636L114.918,114.545L114.987,115.455L115.055,114.545L115.124,114.091L115.192,113.864L115.261,113.409L115.329,114.773L115.398,115L115.466,115.455L115.534,116.136L115.603,115.909L115.671,114.773L115.74,113.182L115.808,113.409L115.877,113.636L115.945,114.318L116.014,114.773L116.082,114.773L116.15,114.545L116.219,115.455L116.287,116.136L116.356,116.364L116.424,116.591L116.493,115L116.561,115L116.63,115.682L116.698,117.045L116.766,119.318L116.835,120L116.903,120L116.972,119.091L117.04,118.636L117.109,118.409L117.177,119.091L117.246,119.318L117.314,120.227L117.383,119.545L117.451,120L117.519,119.773L117.588,119.773L117.656,120L117.725,120.909L117.793,121.591L117.862,122.727L117.93,122.955L117.999,122.955L118.067,123.864L118.135,124.545L118.204,125.227L118.272,125.682L118.341,126.818L118.409,127.273L118.478,128.182L118.546,130.227L118.683,130.455L118.751,130.909L118.82,131.364L118.888,131.818L118.957,132.5L119.025,132.727L119.094,134.091L119.162,134.545L119.231,135.682L119.299,135.909L119.367,136.591L119.641,137.045L119.71,137.727L119.847,137.727L119.915,138.409L119.983,138.636L120.052,139.318L120.12,139.318L120.189,140.455L120.257,140.909L120.531,141.136L120.599,141.136L121.081,141.364L121.218,141.136L121.287,140.682L121.834,140.455L122.519,140L122.656,140L123.272,139.773L123.34,137.273L123.614,136.818L123.819,136.364L123.888,136.136L124.23,135.909L124.298,133.864L124.367,133.409L124.641,132.045L124.709,131.591L124.778,130L124.846,128.409L125.257,128.409L126.489,126.591L126.899,124.545L127.652,122.955L127.789,122.5L128.747,120.909L128.816,120.227L128.884,120L128.953,117.727L129.09,117.045L129.158,116.136L129.227,115L129.295,112.5L129.363,109.773L129.432,107.727L129.637,106.364L129.706,103.864L129.774,100.909L129.843,100.227L129.911,100.909L129.979,97.727L130.045,95.227L130.114,92.045L130.182,91.818L130.319,93.864L130.387,92.273L130.456,91.136L130.524,88.636L130.593,86.818L130.661,86.136L130.73,83.182L130.798,84.545L130.866,84.318L131.003,84.318L131.072,82.955L131.14,83.409L131.209,82.727L131.346,80.227L131.414,79.773L131.482,80.455L131.551,80.909L131.619,79.773L131.688,79.318L131.756,79.091L131.825,80.227L132.03,80.227L132.098,80L132.235,81.136L132.304,79.545L132.372,76.818L132.441,77.727L132.509,76.591L132.578,76.591L132.646,74.773L132.714,73.636L132.783,73.182L132.851,73.409L132.92,75.682L132.988,77.273L133.057,78.864L133.125,80.909L133.194,79.091L133.262,78.636L133.33,79.545L133.399,80L133.467,79.318L133.604,80.909L133.673,82.727L133.741,85.227L133.81,83.636L133.878,82.5L133.946,83.636L134.015,85.455L134.083,85.909L134.152,86.364L134.22,85.227L134.289,86.591L134.357,85.682L134.426,87.727L134.494,90.227L134.563,92.727L134.631,96.136L134.699,99.545L134.768,100.909L134.836,100.682L134.905,101.818L134.973,103.409L135.042,103.636L135.11,105L135.315,105.455L135.384,105.909L135.452,107.5L135.521,108.409L135.589,108.864L135.658,109.091L135.726,110.455L135.795,110.455L135.863,110.909L135.931,110.682L136,112.273L136.068,113.864L136.137,114.318L136.205,114.318L136.274,115.682L136.342,115.909L136.411,118.409L136.479,118.864L136.547,121.364L136.616,121.364L136.684,122.727L136.753,122.273L136.89,122.273L136.958,120.227L137.027,120.682L137.095,121.136L137.163,121.818L137.232,121.364L137.3,119.545L137.369,118.636L137.506,117.727L137.574,118.182L137.643,118.182L137.711,118.864L137.779,117.955L137.848,118.636L137.916,117.045L137.985,116.591L138.053,116.591L138.122,117.045L138.19,116.591L138.259,116.591L138.327,117.045L138.396,117.5L138.464,117.955L138.532,117.727L138.601,116.818L138.669,117.955L138.738,117.955L138.806,118.182L138.875,117.955L138.943,118.409L139.012,118.409L139.08,120.227L139.148,119.773L139.217,120.455L139.285,120.909L139.422,121.818L139.491,123.182L139.559,123.636L139.628,123.409L139.696,122.727L139.764,123.409L139.833,124.091L139.901,125.227L139.97,124.318L140.038,126.364L140.107,126.818L140.175,127.045L140.244,127.045L140.312,126.591L140.38,125.227L140.449,125L140.517,124.545L140.586,125L140.654,125.455L140.723,126.591L140.791,126.364L140.86,126.818L140.928,127.045L141.065,127.727L141.133,127.045L141.202,127.273L141.27,126.818L141.339,127.045L141.407,127.273L141.476,127.273L141.544,127.273L141.612,127.955L141.749,128.409L141.886,128.864L141.955,129.545L142.023,129.091L142.092,128.182L142.16,127.955L142.228,128.864L142.297,128.864L142.365,129.318L142.434,129.545L142.502,129.773L142.571,129.091L142.639,130.227L142.708,130L142.776,131.136L142.845,130.909L142.913,130.909L142.981,130.682L143.05,130.909L143.118,130.455L143.187,130.455L143.255,130.682L143.324,131.591L143.392,132.045L143.461,132.727L143.529,132.727L143.597,132.727L143.666,132.955L143.734,133.182L143.803,133.409L143.871,133.864L143.94,134.773L144.008,134.545L144.077,135L144.145,136.364L144.213,136.591L144.282,137.045L144.35,136.818L144.419,136.818L144.487,137.045L144.556,137.045L144.624,138.636L144.693,139.091L144.761,139.773L144.829,139.773L144.898,140.455L144.966,140.909L145.035,141.136L145.103,141.364L145.172,141.818L145.309,141.818L145.377,141.591L145.582,141.591L145.651,140L145.788,139.773L145.856,140.455L145.925,140L145.993,140L146.13,139.773L146.267,139.318L146.338,139.091L146.407,138.636L146.475,138.409L146.954,138.182L147.091,137.5L147.912,136.818L148.186,136.591L148.255,135.909L148.528,134.773L148.871,133.864L148.939,133.864L149.008,133.864L149.35,133.864L149.76,133.636L149.829,133.636L149.966,133.409L150.103,132.045L151.335,128.636L152.635,126.818L152.909,126.818L153.183,124.318L153.251,121.136L153.32,119.091L153.388,117.955L153.457,116.591L153.525,116.136L153.593,116.364L153.662,115L153.73,114.318L153.799,113.636L153.867,113.864L153.936,113.409L154.073,112.045L154.141,110.909L154.209,110.227L154.278,109.773L154.346,108.636L154.415,108.182L154.483,106.591L154.552,105.909L154.62,104.318L154.689,102.955L154.757,100.682L154.825,98.182L154.894,92.727L154.96,89.318L155.028,86.364L155.096,89.091L155.165,90.909L155.233,87.727L155.302,89.091L155.37,87.5L155.439,87.727L155.507,88.409L155.576,87.727L155.644,87.727L155.712,86.591L155.781,87.273L155.849,85.455L155.986,83.409L156.055,80.227L156.123,80.909L156.192,81.136L156.26,80.455L156.397,78.864L156.465,79.545L156.534,79.091L156.671,78.864L156.739,80.909L156.808,81.364L156.876,82.5L156.944,81.364L157.013,79.091L157.081,80.682L157.15,83.636L157.218,85.227L157.287,89.318L157.355,89.773L157.492,87.955L157.56,86.818L157.629,87.273L157.697,91.818L157.766,91.818L157.834,92.5L157.903,93.409L157.971,93.409L158.04,93.409L158.108,92.273L158.176,93.636L158.245,96.591L158.313,99.773L158.382,98.636L158.45,97.5L158.519,97.955L158.724,98.636L158.792,98.182L158.861,97.955L158.929,99.091L158.998,98.864L159.066,98.864L159.135,99.318L159.203,100.455L159.272,103.864L159.34,103.636L159.409,105L159.477,103.864L159.545,102.727L159.614,102.045L159.682,98.864L159.751,101.818L159.819,102.727L159.888,101.364L159.956,102.5L160.025,102.273L160.093,102.045L160.161,102.045L160.23,101.364L160.298,100.909L160.367,94.545L160.435,94.091L160.504,93.636L160.572,95L160.641,96.818L160.709,98.182L160.777,97.727L160.846,95L160.914,96.591L160.983,93.636L161.051,94.091L161.12,92.955L161.188,92.273L161.257,92.955L161.325,93.182L161.393,94.318L161.462,94.773L161.53,96.364L161.599,96.818L161.667,97.273L161.736,101.591L161.804,102.273L161.873,100.909L161.941,102.727L162.009,103.182L162.078,103.409L162.146,103.409L162.215,103.409L162.283,105.227L162.352,107.045L162.42,114.545L162.489,115L162.557,114.545L162.625,113.182L162.694,113.636L162.762,113.409L162.831,115.909L162.899,118.864L162.968,118.636L163.036,120.909L163.105,120L163.173,121.591L163.242,121.591L163.31,120.909L163.378,120.455L163.447,119.773L163.515,118.864L163.584,119.773L163.652,119.773L163.721,120.227L163.789,120.227L163.858,120.682L163.926,121.136L163.994,120.455L164.131,120L164.2,121.136L164.268,120.682L164.337,120.227L164.405,120L164.474,120.455L164.542,120L164.61,118.409L164.679,118.636L164.747,119.773L164.816,119.545L164.884,120L164.953,119.773L165.021,119.773L165.09,119.545L165.158,120.455L165.226,120.227L165.295,120L165.363,120.227L165.432,120.455L165.5,121.136L165.569,121.136L165.637,122.5L165.706,123.182L165.774,122.5L165.842,122.273L165.911,122.5L166.048,122.045L166.116,121.591L166.185,121.591L166.253,120.909L166.322,120.909L166.39,122.5L166.458,123.182L166.527,122.955L166.595,122.727L166.664,123.409L166.732,125.227L166.801,125.455L166.938,125L167.074,125L167.143,124.091L167.211,124.318L167.28,124.773L167.348,125.682L167.417,125.227L167.485,126.818L167.554,127.727L167.622,128.182L167.691,129.091L167.759,129.773L167.827,130L167.896,129.773L167.964,129.545L168.033,131.136L168.17,130.909L168.238,130.909L168.307,130.682L168.375,131.818L168.443,132.5L168.512,133.864L168.58,133.864L169.059,134.318L169.128,134.091L169.196,134.773L169.265,135L169.333,135L169.402,135L169.47,135.455L169.607,136.136L169.744,136.818L169.812,137.5L169.881,137.5L169.949,137.727L170.018,137.5L170.155,138.182L170.223,137.5L170.291,137.273L170.36,136.591L170.428,135.227L170.497,133.409L170.565,133.864L170.771,133.864L170.839,133.182L170.907,133.182L171.044,133.409L171.113,132.273L171.181,132.273L171.526,132.273L171.595,131.591L171.663,131.136L171.8,130.909L172.553,130.909L173.169,131.364L173.306,131.364L173.374,130.227L174.264,129.545L174.401,128.409L175.086,126.364L175.222,125L175.291,123.636L175.428,123.409L175.838,123.636L177.002,122.273L177.55,121.136L177.687,120.909L177.755,120.909L177.892,120.455L177.96,119.091L178.097,118.864L178.303,117.273L178.371,116.591L178.439,114.773L178.508,115L178.645,113.864L178.85,112.727L179.124,111.818L179.329,110.227L179.398,107.955L179.466,107.045L179.535,105.227L179.603,104.091L179.671,101.136L179.808,98.409L180.079,96.818L180.216,95.455L180.353,93.864L180.422,93.409L180.49,92.955L180.627,90.682L180.764,89.773L180.832,87.955L180.901,86.591L180.969,86.818L181.038,87.045L181.106,87.273L181.174,87.5L181.243,87.273L181.311,88.636L181.38,90.227L181.448,93.636L181.517,93.182L181.585,94.545L181.654,93.636L181.722,92.955L181.79,92.955L181.859,94.318L181.927,95.455L181.996,96.364L182.064,96.818L182.133,95.909L182.201,96.591L182.27,97.273L182.338,99.318L182.406,100.227L182.475,101.364L182.543,102.273L182.612,102.5L182.68,103.636L182.749,104.545L182.817,104.318L182.886,104.545L182.954,104.318L183.022,104.318L183.159,103.182L183.228,100.909L183.296,100.227L183.365,99.545L183.433,99.091L183.502,97.273L183.57,95.227L183.638,95.227L183.707,95.682L183.775,95.227L183.844,97.045L183.912,96.136L183.981,96.364L184.049,96.364L184.118,95.455L184.186,95.455L184.255,97.045L184.323,97.045L184.391,97.5L184.46,96.591L184.597,94.091L184.665,92.045L184.734,92.045L184.802,92.273L184.871,92.727L184.939,94.773L185.007,95L185.076,96.136L185.144,96.818L185.213,94.545L185.281,95.455L185.35,97.045L185.418,97.273L185.487,96.364L185.555,96.364L185.623,95.909L185.692,94.773L185.76,95.455L185.829,94.318L185.897,95L185.966,93.864L186.034,94.545L186.103,92.955L186.171,92.727L186.239,95L186.308,94.773L186.376,95.682L186.445,96.364L186.513,97.045L186.582,97.045L186.65,99.545L186.719,102.727L186.787,103.864L186.855,104.545L186.924,103.864L186.992,102.273L187.061,103.864L187.129,102.045L187.198,101.818L187.266,103.182L187.335,104.318L187.403,103.182L187.471,103.182L187.54,103.409L187.608,103.409L187.677,104.318L187.745,105.455L187.814,105.227L187.882,106.136L187.951,105.909L188.019,105.682L188.087,105.682L188.156,108.182L188.224,109.091L188.293,108.864L188.361,109.091L188.43,108.409L188.498,107.045L188.567,106.591L188.635,107.5L188.704,106.136L188.772,105.455L188.84,101.818L188.909,98.409L188.977,97.273L189.046,97.273L189.114,96.136L189.183,98.636L189.251,98.636L189.32,99.773L189.388,98.636L189.456,98.636L189.525,97.727L189.593,97.273L189.662,96.591L189.73,96.591L189.799,97.955L189.867,97.955L189.936,97.727L190.004,98.636L190.072,99.091L190.141,100.227L190.209,99.773L190.278,100.227L190.346,99.545L190.415,98.636L190.483,98.182L190.552,97.727L190.62,98.864L190.688,98.636L190.757,100.682L190.825,100.909L190.894,103.409L190.962,106.364L191.031,107.5L191.099,109.773L191.168,111.591L191.236,111.818L191.304,112.727L191.373,113.182L191.441,114.091L191.51,115.682L191.578,117.045L191.647,118.864L191.715,120L191.784,120.227L191.852,120.455L191.92,120.455L191.989,120.455L192.057,121.136L192.126,122.045L192.194,122.5L192.331,122.045L192.4,122.273L192.468,122.727L192.537,124.318L192.605,125.682L192.673,127.5L192.742,127.727L192.81,128.636L192.879,128.182L192.947,128.182L193.016,129.545L193.084,130.455L193.153,132.045L193.221,132.045L193.289,131.818L193.358,131.591L193.426,131.818L193.495,132.273L193.563,132.5L193.632,132.727L193.7,132.955L193.769,133.636L193.837,134.318L193.905,135.682L193.974,136.136L194.042,137.045L194.179,137.727L194.248,137.727L194.316,137.727L194.453,137.727L194.521,138.409L194.658,138.409L194.727,139.091L194.795,139.545L195.069,140L195.137,140.227L195.206,140.455L195.274,140.455L195.343,140.909L195.411,141.591L195.48,141.591L195.548,141.591L195.617,141.591L195.753,141.591L195.89,141.818L195.959,141.818L196.027,141.818L196.096,141.591L196.167,141.364L196.235,141.364L196.509,141.591L196.578,141.818L196.92,141.591L198.152,141.136L198.357,141.136L198.426,141.136L198.631,141.364L199.452,139.545" stroke="#4c78a8" stroke-width="2"/></g><g class="mark-group role-title"><g transform="translate(100,-17)"><path class="background" aria-hidden="true" d="M0,0h0v0h0Z" pointer-events="none"/><g><g class="mark-text role-title-text" role="graphics-symbol" aria-roledescription="title" aria-label="Title text 'Noise: Noise, Ice Cream Truck (NR4)'" pointer-events="none"><text text-anchor="middle" transform="translate(0,10)" font-family="sans-serif" font-size="13px" font-weight="bold" fill="#000" opacity="1">Noise: Noise, Ice Cream Truck (NR4)</text></g></g><path class="foreground" aria-hidden="true" d="" pointer-events="none" display="none"/></g></g></g><path class="foreground" aria-hidden="true" d="" display="none"/></g></g></g><defs><clipPath id="clip111"><rect x="0" y="0" width="200" height="150"/></clipPath></defs></svg>