<svg xmlns="http://www.w3.org/2000/svg" xmlns:xlink="http://www.w3.org/1999/xlink" version="1.1" class="marks" width="230" height="194" viewBox="0 0 230 194"><rect width="230" height="194" fill="white"/><g fill="none" stroke-miterlimit="10" transform="translate(24,22)"><g class="mark-group role-frame root" role="graphics-object" aria-roledescription="group mark container"><g transform="translate(0,0)"><path class="background" aria-hidden="true" d="M0,0h200v150h-200Z"/><g><g class="mark-group role-axis" aria-hidden="true"><g transform="translate(0.5,0.5)"><path class="background" aria-hidden="true" d="M0,0h0v0h0Z" pointer-events="none"/><g><g class="mark-rule role-axis-grid" pointer-events="none"><line transform="translate(0,150)" x2="200" y2="0" stroke="#ddd" stroke-width="1" opacity="1"/><line transform="translate(0,108)" x2="200" y2="0" stroke="#ddd" stroke-width="1" opacity="1"/><line transform="translate(0,67)" x2="200" y2="0" stroke="#ddd" stroke-width="1" opacity="1"/><line transform="translate(0,25)" x2="200" y2="0" stroke="#ddd" stroke-width="1" opacity="1"/></g></g><path class="foreground" aria-hidden="true" d="" pointer-events="none" display="none"/></g></g><g class="mark-group role-axis" role="graphics-symbol" aria-roledescription="axis" aria-label="X-axis for a time scale with values from Friday, 01 January 2016, 12:00:00 AM to Monday, 01 January 2024, 12:00:00 AM"><g transform="translate(0.5,150.5)"><path class="background" aria-hidden="true" d="M0,0h0v0h0Z" pointer-events="none"/><g><g class="mark-rule role-axis-tick" pointer-events="none"><line transform="translate(0,0)" x2="0" y2="5" stroke="#888" stroke-width="1" opacity="1"/><line transform="translate(50,0)" x2="0" y2="5" stroke="#888" stroke-width="1" opacity="1"/><line transform="translate(100,0)" x2="0" y2="5" stroke="#888" stroke-width="1" opacity="1"/><line transform="translate(150,0)" x2="0" y2="5" stroke="#888" stroke-width="1" opacity="1"/><line transform="translate(200,0)" x2="0" y2="5" stroke="#888" stroke-width="1" opacity="1"/></g><g class="mark-text role-axis-label" pointer-events="none"><text text-anchor="start" transform="translate(0,15)" font-family="sans-serif" font-size="10px" fill="#000" opacity="1">2016</text><text text-anchor="middle" transform="translate(50.03422313483915,15)" font-family="sans-serif" font-size="10px" fill="#000" opacity="1">2018</text><text text-anchor="middle" transform="translate(100,15)" font-family="sans-serif" font-size="10px" fill="#000" opacity="1">2020</text><text text-anchor="middle" transform="translate(150.03422313483915,15)" font-family="sans-serif" font-size="10px" fill="#000" opacity="1">2022</text><text text-anchor="end" transform="translate(200,15)" font-family="sans-serif" font-size="10px" fill="#000" opacity="1">2024</text></g><g class="mark-rule role-axis-domain" pointer-events="none"><line transform="translate(0,0)" x2="200" y2="0" stroke="#888" stroke-width="1" opacity="1"/></g></g><path class="foreground" aria-hidden="true" d="" pointer-events="none" display="none"/></g></g><g class="mark-group role-axis" role="graphics-symbol" aria-roledescription="axis" aria-label="Y-axis for a linear scale with values from 0 to 18"><g transform="translate(0.5,0.5)"><path class="background" aria-hidden="true" d="M0,0h0v0h0Z" pointer-events="none"/><g><g class="mark-rule role-axis-tick" pointer-events="none"><line transform="translate(0,150)" x2="-5" y2="0" stroke="#888" stroke-opacity="0" stroke-width="1" opacity="1"/><line transform="translate(0,108)" x2="-5" y2="0" stroke="#888" stroke-opacity="0" stroke-width="1" opacity="1"/><line transform="translate(0,67)" x2="-5" y2="0" stroke="#888" stroke-opacity="0" stroke-width="1" opacity="1"/><line transform="translate(0,25)" x2="-5" y2="0" stroke="#888" stroke-opacity="0" stroke-width="1" opacity="1"/></g><g class="mark-text role-axis-label" pointer-events="none"><text text-anchor="end" transform="translate(-7,153)" font-family="sans-serif" font-size="10px" fill="#000" opacity="1">0</text><text text-anchor="end" transform="translate(-7,111.33333333333333)" font-family="sans-serif" font-size="10px" fill="#000" opacity="1">5</text><text text-anchor="end" transform="translate(-7,69.66666666666666)" font-family="sans-serif" font-size="10px" fill="#000" opacity="1">10</text><text text-anchor="end" transform="translate(-7,27.999999999999993)" font-family="sans-serif" font-size="10px" fill="#000" opacity="1">15</text></g></g><path class="foreground" aria-hidden="true" d="" pointer-events="none" display="none"/></g></g><g class="mark-line role-mark marks" clip-path="url(#clip112)" role="graphics-object" aria-roledescription="line mark container"><path aria-label="day: Jan 03, 2010; avg: 1.96666666667" role="graphics-symbol" aria-roledescription="line mark" d="M-149.829,133.611L-149.418,133.056L-149.008,133.889L-148.871,133.333L-148.734,133.333L-148.049,133.056L-147.433,132.222L-147.365,130.833L-146.612,130.556L-146.543,130.556L-146.064,130.278L-145.791,130L-145.585,130L-145.517,130L-145.38,131.111L-144.972,131.111L-144.904,130.833L-144.835,130L-144.767,130L-144.698,130L-144.63,130.833L-144.561,131.667L-144.493,132.5L-144.356,131.111L-144.288,130.556L-144.219,128.889L-144.151,127.5L-143.877,127.778L-143.808,125.833L-143.74,125.833L-143.672,125.833L-143.603,126.111L-143.466,126.111L-143.398,126.667L-143.329,126.667L-143.192,126.944L-143.124,127.222L-142.987,128.056L-142.919,127.778L-142.85,126.944L-142.782,127.222L-142.713,125.833L-142.645,124.444L-142.508,124.167L-142.44,123.333L-142.371,123.333L-142.303,123.611L-142.234,123.611L-142.166,123.611L-142.029,123.056L-141.96,122.222L-141.892,121.111L-141.824,121.111L-141.755,121.944L-141.687,122.778L-141.618,123.889L-141.55,124.167L-141.481,122.222L-141.413,123.889L-141.344,123.889L-141.276,124.444L-141.208,124.167L-141.139,123.889L-141.002,123.056L-140.934,122.5L-140.865,121.944L-140.797,121.944L-140.728,122.5L-140.66,122.778L-140.523,122.5L-140.455,120.556L-140.386,120.556L-140.318,121.944L-140.249,121.667L-140.181,121.944L-140.112,121.667L-140.044,121.389L-139.975,121.389L-139.907,121.111L-139.839,121.111L-139.77,120.556L-139.702,120.278L-139.633,120.556L-139.565,120L-139.496,120L-139.428,120.556L-139.359,121.389L-139.291,123.333L-139.223,123.611L-139.154,123.611L-139.017,123.056L-138.949,122.5L-138.88,121.667L-138.812,122.222L-138.743,122.5L-138.675,122.222L-138.607,122.5L-138.538,119.722L-138.47,118.611L-138.401,119.444L-138.333,120.833L-138.264,121.944L-138.196,120.556L-138.127,120L-138.059,119.722L-137.991,119.722L-137.922,119.722L-137.854,120.556L-137.785,121.667L-137.717,121.389L-137.58,121.667L-137.511,122.222L-137.443,121.667L-137.375,121.389L-137.306,120.556L-137.238,119.444L-137.169,119.444L-137.101,118.333L-137.032,117.778L-136.964,115.556L-136.895,115.278L-136.827,115L-136.758,115.278L-136.69,115L-136.622,114.722L-136.553,114.444L-136.485,113.333L-136.416,115.833L-136.348,116.667L-136.279,116.389L-136.211,115.556L-136.142,115.556L-136.074,115L-136.006,115.278L-135.937,115.833L-135.869,116.111L-135.8,116.111L-135.732,115.833L-135.663,115L-135.595,114.722L-135.526,115.278L-135.458,115.556L-135.39,116.389L-135.321,117.778L-135.253,118.056L-135.184,118.333L-135.116,116.944L-135.047,116.667L-134.979,117.222L-134.91,119.444L-134.842,120L-134.774,120.833L-134.705,121.111L-134.637,120.556L-134.568,121.111L-134.5,122.222L-134.431,122.5L-134.363,122.778L-134.294,123.333L-134.226,123.611L-134.158,123.333L-134.089,123.333L-134.021,125.278L-133.952,126.111L-133.884,126.389L-133.815,126.111L-133.747,124.444L-133.678,123.889L-133.61,123.333L-133.542,124.444L-133.473,125L-133.405,124.722L-133.336,124.444L-133.199,124.444L-133.131,124.722L-133.062,124.167L-132.994,125.556L-132.926,126.667L-132.857,127.222L-132.789,127.5L-132.72,127.5L-132.652,127.778L-132.583,128.056L-132.515,128.056L-132.446,126.944L-132.378,126.667L-132.309,127.5L-132.241,127.5L-132.173,127.222L-132.104,126.667L-131.967,127.222L-131.899,127.5L-131.83,127.222L-131.762,127.222L-131.693,126.944L-131.625,127.222L-131.488,129.167L-131.42,130L-131.351,131.111L-131.283,131.389L-131.214,131.389L-131.146,131.944L-130.941,131.944L-130.872,131.944L-130.804,132.222L-130.735,133.611L-130.667,133.889L-130.598,133.611L-130.53,133.611L-130.461,133.611L-130.325,133.889L-130.256,133.889L-130.188,134.167L-130.119,135L-130.051,135.556L-129.982,135.556L-129.845,135.833L-129.777,135.833L-129.709,136.111L-129.64,136.944L-129.572,137.778L-129.503,138.056L-129.435,138.333L-129.366,138.056L-129.229,138.333L-129.024,138.333L-128.956,138.333L-128.887,138.056L-128.819,137.5L-128.474,137.5L-128.405,137.5L-128.268,137.5L-128.2,137.5L-128.063,137.222L-127.995,136.944L-127.858,136.944L-127.721,136.944L-127.652,136.944L-127.242,136.667L-127.105,136.667L-126.899,136.389L-126.557,135.833L-126.489,135.833L-126.42,136.111L-126.215,136.389L-126.01,135L-125.804,134.167L-125.12,133.889L-124.983,133.889L-124.709,133.889L-124.367,134.167L-123.546,134.167L-122.45,134.167L-122.04,134.444L-121.971,134.167L-121.834,134.167L-121.766,133.611L-121.697,133.333L-121.629,134.167L-121.287,133.889L-121.218,133.333L-121.081,133.611L-121.013,133.333L-120.945,133.611L-120.808,133.889L-120.739,133.611L-120.671,133.611L-120.465,133.611L-120.329,132.778L-120.26,132.222L-120.192,131.944L-120.123,131.667L-119.989,131.389L-119.921,130.556L-119.852,130.833L-119.784,132.5L-119.715,133.333L-119.305,133.611L-119.168,132.222L-118.894,131.944L-118.826,131.667L-118.689,131.111L-118.62,130.278L-118.552,130L-118.483,130.278L-118.415,129.444L-118.21,128.611L-118.141,129.167L-118.073,129.167L-117.936,129.444L-117.867,129.444L-117.73,128.056L-117.525,127.222L-117.457,127.222L-117.388,126.667L-117.32,125.278L-117.251,125L-117.114,123.333L-117.046,123.056L-116.978,122.222L-116.909,120L-116.841,120.556L-116.772,120.278L-116.704,121.111L-116.635,120L-116.567,118.889L-116.498,117.778L-116.43,115.833L-116.362,115.556L-116.293,115.556L-116.225,114.722L-116.156,115L-116.088,114.167L-116.019,113.889L-115.951,113.333L-115.882,112.222L-115.814,112.778L-115.677,112.222L-115.609,110.278L-115.54,109.167L-115.472,109.444L-115.403,109.444L-115.266,110.556L-115.198,109.722L-115.129,109.444L-115.061,109.444L-114.993,109.722L-114.924,110.833L-114.856,111.667L-114.787,112.5L-114.719,114.444L-114.65,114.167L-114.582,114.167L-114.513,113.889L-114.445,114.722L-114.377,115.556L-114.308,116.111L-114.24,117.5L-114.171,119.167L-114.034,118.611L-113.966,118.889L-113.897,118.611L-113.829,119.167L-113.761,119.167L-113.692,117.5L-113.624,119.444L-113.555,119.444L-113.487,119.722L-113.418,121.389L-113.35,121.667L-113.281,121.944L-113.213,121.944L-113.145,120.833L-113.076,120.833L-113.008,121.667L-112.939,122.778L-112.871,122.778L-112.802,122.222L-112.734,122.778L-112.665,121.944L-112.597,122.5L-112.529,123.056L-112.46,123.611L-112.392,123.889L-112.323,123.056L-112.255,122.222L-112.186,122.222L-112.118,122.222L-112.049,122.222L-111.981,122.5L-111.844,122.778L-111.776,122.222L-111.707,121.389L-111.639,120.833L-111.57,123.056L-111.502,122.778L-111.433,122.778L-111.365,122.778L-111.296,122.5L-111.228,122.222L-111.16,121.389L-111.091,121.944L-111.023,123.056L-110.954,123.611L-110.886,123.611L-110.817,123.889L-110.749,123.333L-110.68,124.722L-110.612,124.722L-110.544,125.833L-110.475,124.167L-110.407,123.056L-110.338,121.944L-110.27,121.944L-110.201,122.778L-110.133,122.5L-110.064,122.5L-109.996,121.944L-109.928,121.944L-109.859,121.389L-109.791,121.944L-109.722,122.778L-109.654,123.889L-109.585,124.722L-109.448,124.722L-109.38,124.444L-109.312,124.444L-109.243,124.167L-109.175,123.056L-109.106,123.056L-109.038,123.056L-108.969,123.889L-108.901,123.889L-108.832,123.611L-108.627,122.222L-108.559,122.222L-108.49,121.944L-108.422,121.944L-108.353,121.667L-108.285,121.944L-108.216,123.333L-108.148,124.167L-108.08,123.889L-107.874,122.5L-107.806,121.667L-107.737,123.056L-107.669,123.611L-107.532,124.444L-107.463,123.889L-107.395,125L-107.327,125L-107.258,125.278L-107.19,125.833L-107.121,125.278L-106.984,125.278L-106.916,125.556L-106.847,126.389L-106.779,126.944L-106.711,128.611L-106.642,129.722L-106.574,130.278L-106.505,130.278L-106.437,130.556L-106.368,131.111L-106.3,131.111L-106.231,131.389L-106.163,132.222L-106.095,132.5L-106.026,132.222L-105.958,132.222L-105.889,132.778L-105.821,133.333L-105.752,134.722L-105.684,136.111L-105.615,136.389L-105.547,135.833L-105.479,135.556L-105.41,135.833L-105.342,136.389L-105.273,136.111L-105.205,136.111L-105.068,135.833L-104.999,135.833L-104.931,136.667L-104.863,136.667L-104.589,136.944L-104.452,136.944L-104.315,136.667L-104.247,136.667L-104.041,136.667L-103.973,136.389L-103.904,136.389L-103.765,136.111L-103.696,136.111L-103.559,137.5L-103.491,137.222L-103.354,137.222L-103.285,137.222L-103.149,137.778L-103.08,137.5L-102.943,137.5L-102.875,137.5L-102.533,137.5L-102.464,137.222L-102.396,138.056L-102.327,138.333L-102.259,138.611L-102.19,138.611L-102.122,138.611L-101.916,138.889L-101.848,138.889L-101.643,139.167L-101.574,139.167L-101.506,139.167L-101.437,139.167L-101.369,139.167L-101.232,138.889L-101.027,138.611L-100.684,138.611L-100.137,137.778L-100,137.778L-99.726,137.5L-99.452,136.389L-99.316,136.389L-98.836,135.833L-98.768,135.833L-98.631,135.556L-98.563,135L-98.426,135L-98.152,134.722L-97.878,134.722L-97.741,134.722L-97.673,134.444L-97.536,134.444L-97.467,134.444L-97.194,134.444L-96.715,134.444L-96.646,134.167L-96.509,134.167L-96.304,134.167L-96.167,134.167L-96.099,133.333L-96.03,133.611L-95.825,133.611L-95.551,133.333L-95.483,132.222L-95.414,131.667L-95.143,131.944L-95.075,130.556L-95.006,131.389L-94.869,131.667L-94.801,131.389L-94.732,131.389L-94.664,131.389L-94.596,131.944L-94.527,131.389L-94.459,131.389L-94.39,131.944L-94.322,131.944L-94.253,131.944L-94.185,131.944L-94.048,131.667L-93.911,131.389L-93.843,131.111L-93.774,130.833L-93.706,130.278L-93.637,128.056L-93.569,127.778L-93.432,125.278L-93.364,124.722L-93.295,124.722L-93.09,125.278L-93.021,123.056L-92.953,121.111L-92.884,119.167L-92.816,120.278L-92.748,120.833L-92.679,120L-92.611,120.556L-92.542,119.167L-92.474,118.056L-92.405,115.833L-92.2,116.389L-92.132,114.722L-92.063,113.333L-91.995,113.056L-91.926,112.778L-91.789,112.222L-91.721,112.222L-91.584,112.5L-91.516,112.222L-91.447,111.667L-91.379,111.111L-91.31,110.278L-91.173,109.444L-91.036,110L-90.968,111.944L-90.899,112.222L-90.831,113.611L-90.763,112.778L-90.694,110L-90.557,109.722L-90.489,111.944L-90.42,113.333L-90.352,115.556L-90.283,115L-90.215,114.444L-90.078,113.611L-90.01,114.444L-89.941,115.556L-89.873,116.111L-89.804,118.611L-89.736,118.056L-89.667,119.167L-89.599,120L-89.531,121.111L-89.462,120.556L-89.394,120.556L-89.257,120.556L-89.188,117.778L-89.12,117.222L-89.051,116.389L-88.983,117.5L-88.915,118.611L-88.846,117.778L-88.778,117.222L-88.709,114.722L-88.641,113.889L-88.572,114.722L-88.504,115.833L-88.435,118.333L-88.367,118.611L-88.299,118.056L-88.23,116.944L-88.162,116.667L-88.093,116.667L-88.025,117.222L-87.956,119.167L-87.888,118.611L-87.751,118.333L-87.683,118.056L-87.614,118.056L-87.546,119.444L-87.477,119.722L-87.409,120.278L-87.34,118.889L-87.272,119.722L-87.203,119.722L-87.135,118.333L-87.067,121.389L-86.998,121.111L-86.93,122.5L-86.861,120.278L-86.793,118.056L-86.724,120L-86.656,120.833L-86.587,123.611L-86.519,124.444L-86.45,123.611L-86.382,123.056L-86.245,122.778L-86.177,121.944L-86.108,121.944L-86.04,123.611L-85.971,123.333L-85.903,123.056L-85.834,121.667L-85.766,119.444L-85.698,120L-85.629,120.278L-85.561,120.833L-85.424,120.556L-85.355,120.278L-85.287,119.167L-85.218,118.056L-85.15,118.611L-85.082,118.889L-85.013,119.444L-84.945,119.444L-84.876,119.167L-84.808,119.722L-84.739,119.444L-84.671,121.667L-84.602,123.611L-84.534,123.056L-84.466,122.778L-84.397,120.833L-84.329,118.611L-84.26,118.611L-84.192,119.444L-84.123,120L-84.055,120L-83.986,119.167L-83.918,118.056L-83.85,118.056L-83.781,118.889L-83.713,120L-83.644,122.222L-83.576,121.389L-83.507,120.278L-83.439,120.278L-83.37,120.833L-83.302,121.111L-83.234,122.5L-83.165,122.778L-83.097,123.611L-83.028,123.333L-82.96,123.333L-82.891,123.889L-82.823,123.611L-82.754,123.333L-82.617,123.889L-82.549,123.611L-82.481,124.167L-82.412,124.722L-82.344,124.444L-82.275,126.389L-82.207,128.611L-82.138,129.444L-82.001,128.889L-81.933,128.333L-81.865,129.444L-81.796,130.833L-81.728,131.944L-81.659,132.222L-81.591,132.222L-81.522,132.778L-81.454,132.5L-81.385,133.056L-81.317,134.167L-81.249,134.167L-81.18,133.611L-81.043,133.611L-80.975,133.611L-80.906,133.333L-80.701,133.333L-80.496,133.611L-80.427,133.333L-80.359,134.167L-80.29,134.722L-80.222,135.556L-80.153,135.556L-80.085,135.833L-80.017,135.833L-79.948,135.833L-79.743,136.389L-79.674,136.111L-79.606,136.389L-79.537,136.389L-79.469,136.944L-79.401,137.5L-78.576,137.5L-78.508,137.5L-78.097,137.5L-77.755,137.778L-77.618,137.778L-77.413,137.778L-77.207,138.056L-77.002,138.333L-76.934,138.611L-76.591,139.167L-76.454,139.722L-76.318,139.167L-76.112,138.889L-75.975,139.444L-75.838,139.444L-75.496,139.444L-75.222,139.167L-75.154,138.056L-75.086,138.056L-74.675,138.056L-74.606,137.5L-74.47,137.5L-74.333,137.5L-74.264,137.222L-74.127,135.556L-73.99,135.833L-73.032,135L-72.074,135.278L-71.663,135.278L-71.321,135.278L-70.842,135.278L-70.773,135.278L-70.705,134.722L-70.229,134.444L-69.955,133.889L-69.407,133.611L-69.339,133.056L-69.27,132.778L-69.134,132.778L-69.065,132.222L-68.928,131.667L-68.586,131.944L-68.518,131.667L-68.449,131.667L-68.381,130.278L-68.312,130L-68.244,130.278L-68.038,130.833L-67.97,130.278L-67.902,129.444L-67.833,128.056L-67.765,127.222L-67.696,126.944L-67.559,126.944L-67.491,128.333L-67.422,128.333L-67.354,128.056L-67.286,125L-67.217,125L-67.149,124.167L-67.08,123.056L-67.012,121.944L-66.943,121.389L-66.806,120.556L-66.738,121.111L-66.67,120.833L-66.601,120.556L-66.533,120.556L-66.464,118.889L-66.396,117.5L-66.327,117.5L-66.259,117.222L-66.19,116.389L-66.122,116.944L-66.054,117.778L-65.848,116.389L-65.78,115.278L-65.711,115.278L-65.643,113.611L-65.574,113.056L-65.437,113.611L-65.369,111.944L-65.301,109.722L-65.232,109.722L-65.164,109.167L-65.027,108.889L-64.958,109.722L-64.89,111.667L-64.821,109.167L-64.753,109.167L-64.685,109.722L-64.616,109.722L-64.548,109.444L-64.479,106.944L-64.411,106.389L-64.342,105.556L-64.274,105.556L-64.137,104.722L-64.069,106.389L-64,108.333L-63.932,107.778L-63.863,108.333L-63.795,108.333L-63.726,106.944L-63.658,106.389L-63.589,107.5L-63.453,107.5L-63.384,108.056L-63.316,109.167L-63.247,108.056L-63.179,108.333L-63.11,110.556L-63.042,111.944L-62.973,112.222L-62.905,111.389L-62.837,111.111L-62.768,108.611L-62.7,109.444L-62.631,111.667L-62.563,112.5L-62.494,113.056L-62.426,113.056L-62.357,113.333L-62.289,114.722L-62.221,114.167L-62.152,114.722L-62.084,115.278L-62.015,116.389L-61.947,116.389L-61.878,114.167L-61.81,114.167L-61.741,112.778L-61.673,113.333L-61.604,114.722L-61.536,114.444L-61.468,114.167L-61.399,114.444L-61.331,114.167L-61.262,113.611L-61.194,114.722L-61.125,115.833L-61.057,114.167L-60.92,115L-60.852,113.611L-60.783,115.278L-60.715,115.556L-60.646,117.5L-60.578,116.667L-60.509,115.556L-60.441,112.778L-60.372,112.5L-60.304,112.5L-60.236,113.611L-60.167,115.278L-60.099,113.611L-60.03,113.889L-59.962,113.611L-59.893,113.056L-59.825,111.667L-59.756,113.889L-59.688,113.611L-59.62,113.889L-59.551,113.333L-59.414,112.5L-59.346,113.333L-59.277,114.167L-59.209,114.722L-59.14,113.889L-59.072,115.556L-59.004,116.667L-58.935,116.667L-58.867,118.333L-58.798,118.611L-58.661,119.167L-58.593,118.333L-58.524,117.778L-58.456,118.333L-58.388,118.889L-58.319,119.167L-58.251,120.556L-58.114,120.556L-58.045,121.389L-57.977,121.111L-57.908,121.389L-57.84,123.889L-57.772,123.889L-57.703,124.444L-57.635,124.444L-57.566,125.556L-57.498,125.278L-57.429,126.667L-57.361,127.222L-57.292,128.056L-57.224,128.333L-57.155,128.889L-57.019,128.889L-56.95,129.167L-56.882,130.278L-56.813,130L-56.745,130.278L-56.676,130L-56.608,130.278L-56.539,130.278L-56.471,131.111L-56.334,131.389L-56.266,132.222L-56.129,132.5L-56.06,133.056L-55.992,133.333L-55.923,134.444L-55.855,134.722L-55.787,135L-55.718,135.278L-55.65,135.556L-55.581,135.833L-55.513,136.389L-55.444,136.389L-55.376,136.389L-55.307,136.389L-55.171,136.667L-55.102,136.667L-55.034,136.667L-54.965,137.222L-54.897,137.778L-54.691,137.778L-54.623,137.778L-54.486,138.056L-54.418,138.056L-54.349,138.056L-54.281,138.056L-54.075,138.333L-54.007,138.333L-53.936,137.5L-53.73,137.5L-53.593,137.778L-53.183,137.778L-53.114,137.778L-53.046,137.778L-52.977,138.611L-52.704,138.889L-52.567,138.611L-52.361,138.333L-51.882,138.333L-51.745,138.333L-51.54,138.333L-51.335,138.333L-51.198,138.056L-51.129,138.333L-51.061,138.611L-50.719,138.611L-50.65,138.333L-50.513,138.333L-50.171,138.056L-49.281,138.056L-48.118,136.667L-47.775,135.833L-47.365,135.833L-47.296,135L-47.091,135L-46.749,135L-46.407,134.722L-46.338,134.444L-46.064,135.278L-45.996,135.278L-45.927,135.278L-45.722,135.278L-45.38,135L-45.314,135L-45.04,135L-44.972,134.444L-44.835,134.722L-44.63,133.889L-44.561,133.889L-44.493,133.333L-44.424,133.333L-44.356,132.778L-44.288,130.556L-43.808,129.722L-43.672,129.722L-43.603,129.722L-43.329,130L-43.261,130.278L-43.192,129.444L-43.124,129.167L-43.056,130.278L-42.987,131.111L-42.919,131.111L-42.85,131.389L-42.782,131.667L-42.645,130.833L-42.576,128.056L-42.508,128.333L-42.371,127.778L-42.303,126.944L-42.234,126.111L-42.166,125.833L-42.029,125.833L-41.96,125.556L-41.755,124.444L-41.687,123.611L-41.618,121.944L-41.413,123.056L-41.344,122.5L-41.208,122.778L-41.139,122.222L-41.071,122.222L-41.002,123.611L-40.934,124.167L-40.865,123.889L-40.797,123.611L-40.728,122.778L-40.66,122.778L-40.591,121.944L-40.523,121.667L-40.455,121.667L-40.386,119.722L-40.318,119.167L-40.249,118.056L-40.112,116.667L-40.044,116.111L-39.975,117.5L-39.77,117.222L-39.702,117.778L-39.633,118.611L-39.565,119.444L-39.496,119.167L-39.428,117.222L-39.291,116.667L-39.223,116.389L-39.154,116.667L-39.086,117.778L-39.017,117.778L-38.949,117.5L-38.812,116.667L-38.743,116.389L-38.675,116.944L-38.607,118.056L-38.538,117.5L-38.47,116.111L-38.401,114.444L-38.333,113.056L-38.264,112.222L-38.196,113.889L-38.127,114.167L-38.059,112.778L-37.991,113.611L-37.922,112.5L-37.854,111.389L-37.785,112.778L-37.717,113.889L-37.648,115.278L-37.58,115L-37.511,114.722L-37.443,111.944L-37.375,111.389L-37.306,110.556L-37.238,111.111L-37.169,110.278L-37.101,110L-37.032,110.278L-36.964,110.556L-36.895,110L-36.827,110.556L-36.758,110.278L-36.622,110.278L-36.553,109.167L-36.485,108.333L-36.416,109.444L-36.348,111.111L-36.279,111.389L-36.211,111.667L-36.142,112.5L-36.074,112.5L-36.006,111.944L-35.937,113.611L-35.869,114.444L-35.8,114.722L-35.732,116.944L-35.663,114.444L-35.595,114.722L-35.526,113.333L-35.39,113.056L-35.321,111.389L-35.116,113.611L-35.047,114.167L-34.979,115.278L-34.91,116.944L-34.842,116.944L-34.774,116.944L-34.705,116.111L-34.637,116.389L-34.568,116.667L-34.5,116.111L-34.431,116.667L-34.363,116.389L-34.294,116.389L-34.158,116.667L-34.021,116.111L-33.952,115.556L-33.884,116.944L-33.815,118.611L-33.747,117.778L-33.678,117.778L-33.61,118.611L-33.542,118.611L-33.473,118.333L-33.405,119.167L-33.336,119.722L-33.131,122.222L-33.062,121.944L-32.994,123.333L-32.926,123.889L-32.857,125L-32.789,125.278L-32.72,125.278L-32.652,125.278L-32.583,125L-32.515,125.278L-32.446,126.667L-32.378,128.333L-32.309,128.333L-32.241,127.5L-32.173,128.333L-32.104,128.889L-32.036,130L-31.967,131.111L-31.83,131.667L-31.693,131.667L-31.625,132.222L-31.557,132.222L-31.488,132.5L-31.42,133.611L-31.351,133.333L-31.283,133.056L-31.146,133.056L-31.077,133.611L-31.009,134.167L-30.941,134.167L-30.872,133.889L-30.735,134.167L-30.667,134.444L-30.598,134.722L-30.53,135.556L-30.461,135.556L-30.256,135.833L-30.188,136.111L-30.119,136.389L-29.914,137.778L-29.777,138.056L-29.709,137.778L-29.64,137.222L-29.572,138.056L-29.503,138.056L-29.229,138.333L-29.161,138.333L-29.093,138.056L-28.884,138.056L-28.747,138.611L-28.679,138.611L-28.542,138.889L-28.405,138.611L-28.2,138.611L-28.131,138.889L-27.858,139.167L-27.652,138.889L-27.584,138.889L-27.31,138.611L-27.242,138.611L-27.105,138.889L-26.968,138.611L-26.42,138.333L-26.283,138.056L-26.215,138.056L-26.146,138.333L-26.078,138.333L-25.873,138.333L-25.804,138.333L-25.462,138.056L-25.394,138.056L-25.325,138.333L-25.257,138.889L-25.12,139.167L-25.051,139.167L-24.846,139.167L-24.709,139.167L-24.641,139.167L-24.504,138.889L-24.367,138.611L-24.298,138.333L-23.546,137.222L-23.477,137.5L-23.066,137.222L-22.998,137.222L-22.861,136.944L-22.45,137.222L-22.382,135.833L-22.04,136.111L-21.766,136.111L-21.013,135.278L-20.808,134.722L-20.602,134.167L-20.331,133.056L-20.263,133.056L-20.195,132.778L-20.058,132.778L-19.784,132.778L-19.578,132.778L-19.51,132.5L-19.373,132.5L-19.305,131.944L-19.236,131.667L-19.168,131.111L-19.099,130.833L-19.031,130L-18.757,128.333L-18.689,127.778L-18.483,124.722L-18.21,124.444L-18.073,124.722L-18.004,125.278L-17.936,124.722L-17.867,122.778L-17.799,121.111L-17.73,121.389L-17.662,121.389L-17.594,122.222L-17.457,120.278L-17.388,118.611L-17.32,117.778L-17.251,117.222L-17.183,117.778L-17.114,119.167L-17.046,117.778L-16.978,115.833L-16.909,114.444L-16.841,114.167L-16.772,113.889L-16.704,113.889L-16.635,111.944L-16.567,111.944L-16.498,110.833L-16.43,111.111L-16.362,111.389L-16.293,111.389L-16.225,112.222L-16.156,111.111L-16.088,113.056L-16.019,111.944L-15.951,111.944L-15.814,111.944L-15.745,112.222L-15.677,114.444L-15.609,116.389L-15.54,115.278L-15.403,113.611L-15.335,113.333L-15.266,114.722L-15.198,115.278L-15.129,116.111L-15.061,116.667L-14.993,116.944L-14.856,115.278L-14.787,116.667L-14.719,118.056L-14.582,118.889L-14.513,117.5L-14.445,116.111L-14.377,114.722L-14.308,114.444L-14.24,114.167L-14.171,114.722L-14.103,115L-14.034,115L-13.966,115.556L-13.897,113.889L-13.829,114.167L-13.761,115.278L-13.692,116.944L-13.624,115.833L-13.555,115.278L-13.487,114.444L-13.418,112.5L-13.35,111.389L-13.281,111.389L-13.213,112.222L-13.145,112.222L-13.076,111.944L-13.008,112.778L-12.939,111.389L-12.871,111.111L-12.802,110.278L-12.734,111.389L-12.665,110.556L-12.597,111.389L-12.529,110.278L-12.46,110.833L-12.392,110.278L-12.323,112.222L-12.255,113.889L-12.186,113.611L-12.118,113.611L-12.049,113.056L-11.981,110.278L-11.913,109.167L-11.844,110.278L-11.776,111.944L-11.707,109.722L-11.639,109.167L-11.57,109.167L-11.502,109.444L-11.433,109.444L-11.365,110.556L-11.296,110.278L-11.228,110.556L-11.16,110.556L-11.091,110L-11.023,109.444L-10.954,108.611L-10.886,110L-10.817,110L-10.749,110.278L-10.68,110L-10.612,109.444L-10.544,108.333L-10.475,108.611L-10.407,108.611L-10.338,110L-10.27,109.722L-10.201,109.444L-10.133,109.722L-10.064,108.056L-9.996,107.222L-9.928,106.667L-9.859,107.778L-9.791,109.167L-9.722,109.167L-9.654,111.389L-9.585,110.556L-9.517,110.556L-9.448,109.722L-9.38,109.722L-9.312,109.167L-9.243,110L-9.175,108.889L-9.106,108.333L-9.038,109.167L-8.969,108.611L-8.901,106.667L-8.832,106.389L-8.764,106.944L-8.696,107.222L-8.627,105.833L-8.559,106.944L-8.49,108.056L-8.422,108.333L-8.353,108.889L-8.285,108.611L-8.216,108.611L-8.148,108.889L-8.08,108.333L-8.011,110L-7.943,110.278L-7.874,112.222L-7.806,112.222L-7.737,111.667L-7.669,111.111L-7.6,110.556L-7.532,111.389L-7.463,111.389L-7.395,113.056L-7.327,113.889L-7.258,114.722L-7.19,115.278L-7.121,117.222L-7.053,118.056L-6.984,118.611L-6.916,120.556L-6.847,123.611L-6.779,124.444L-6.711,124.722L-6.642,124.444L-6.574,126.111L-6.505,126.389L-6.437,125L-6.368,125.278L-6.3,125.556L-6.231,126.667L-6.163,126.944L-6.095,126.389L-6.026,126.667L-5.958,126.944L-5.889,127.5L-5.821,127.5L-5.752,126.944L-5.684,126.389L-5.615,125.556L-5.547,126.389L-5.479,126.389L-5.41,126.944L-5.342,126.389L-5.273,126.667L-5.136,126.944L-5.068,126.667L-4.999,126.389L-4.863,126.944L-4.794,126.944L-4.726,126.944L-4.657,126.111L-4.589,125.556L-4.52,125.833L-4.452,126.389L-4.383,126.944L-4.247,126.944L-4.178,127.5L-4.107,127.222L-4.038,127.5L-3.97,127.5L-3.833,127.222L-3.765,128.056L-3.354,128.889L-3.285,129.167L-3.217,129.722L-3.149,131.111L-3.08,131.389L-3.012,132.222L-2.943,132.222L-2.875,132.222L-2.738,132.778L-2.669,133.333L-2.601,133.889L-2.533,133.889L-2.396,133.889L-2.327,134.167L-2.259,133.611L-2.122,132.778L-1.985,131.111L-1.848,130.556L-1.78,131.389L-1.711,132.222L-1.574,130.556L-1.506,130.278L-1.437,128.889L-1.369,127.5L-1.3,127.5L-1.232,128.611L-1.164,128.333L-1.027,128.333L-0.958,128.611L-0.89,128.333L-0.821,128.611L-0.753,128.889L-0.684,128.611L-0.616,128.611L-0.548,128.889L-0.479,128.333L-0.411,129.722L-0.342,129.444L-0.137,129.167L-0.068,129.167L0,128.889L0.137,128.889L0.342,129.167L0.411,128.333L0.479,128.611L0.548,128.611L0.616,130.278L0.821,130.556L0.958,130.278L1.095,130L1.164,131.667L1.232,131.944L1.3,132.222L1.369,133.056L1.437,133.611L1.916,132.5L1.985,132.222L2.053,131.944L2.122,131.944L2.19,132.222L2.327,132.222L2.396,131.667L2.464,131.667L2.533,130L2.669,130.278L2.738,131.111L2.875,131.111L2.943,131.111L3.012,131.389L3.217,130.833L3.285,130.833L3.354,130.278L3.422,129.722L3.491,130.278L3.559,130.556L3.628,130.833L3.97,129.167L4.107,129.167L4.175,129.167L4.244,129.444L4.381,128.611L4.449,128.611L4.654,129.444L4.723,129.722L4.791,130L4.86,130.556L4.928,131.111L4.994,131.389L5.062,131.111L5.131,130.833L5.199,130.833L5.268,130.278L5.336,129.444L5.404,131.111L5.473,130.278L5.541,129.167L5.61,128.056L5.678,126.667L5.747,125.556L5.815,126.111L5.884,126.111L5.952,126.111L6.02,126.667L6.089,126.389L6.157,126.667L6.226,126.667L6.294,128.333L6.363,128.056L6.431,127.5L6.636,126.944L6.705,127.222L6.773,126.667L6.842,125.833L6.91,124.444L6.979,123.889L7.047,124.444L7.116,124.167L7.184,123.333L7.252,121.944L7.321,121.944L7.389,121.667L7.458,122.222L7.526,123.056L7.595,123.056L7.663,123.333L7.732,123.889L7.8,121.944L7.868,121.111L8.074,120.833L8.142,120.278L8.211,120L8.279,120L8.348,119.444L8.416,119.722L8.621,118.333L8.69,118.889L8.758,118.333L8.827,117.778L8.895,118.333L8.964,117.778L9.032,117.5L9.101,116.111L9.169,116.111L9.237,117.222L9.306,117.778L9.374,116.944L9.443,114.444L9.511,113.056L9.58,111.944L9.648,111.667L9.717,110.556L9.785,109.722L9.853,109.722L9.922,107.222L9.99,105L10.059,103.611L10.127,106.389L10.196,108.889L10.264,109.444L10.333,109.722L10.401,109.167L10.469,109.444L10.538,107.222L10.606,106.111L10.675,106.389L10.743,105.556L10.812,104.444L10.88,105.278L10.949,102.778L11.017,101.389L11.085,101.111L11.154,101.944L11.222,101.944L11.291,100.556L11.359,99.167L11.496,98.056L11.565,100.556L11.633,101.944L11.701,103.889L11.77,103.056L11.838,103.611L11.907,103.611L11.975,101.667L12.044,102.222L12.112,104.167L12.181,105.278L12.249,104.444L12.317,103.889L12.386,103.889L12.454,103.333L12.523,102.778L12.591,102.778L12.66,104.444L12.728,104.167L12.797,104.444L12.865,103.611L12.933,104.444L13.002,102.778L13.07,103.333L13.139,105L13.207,105.833L13.276,105.833L13.344,106.667L13.413,107.222L13.481,107.778L13.55,109.722L13.618,110L13.686,110.556L13.755,111.389L13.823,112.222L13.892,110.278L13.96,110L14.029,111.944L14.097,111.667L14.166,111.667L14.234,110.556L14.302,110.833L14.371,109.722L14.439,109.167L14.508,110L14.576,110.278L14.645,110.556L14.713,110.833L14.782,110.556L14.85,110.833L14.918,111.389L14.987,112.222L15.055,112.778L15.124,114.444L15.192,114.167L15.261,111.944L15.329,111.111L15.398,111.389L15.466,111.667L15.534,112.5L15.603,112.222L15.671,110.278L15.74,106.944L15.808,105.556L15.877,105.833L15.945,108.333L16.082,109.722L16.15,109.444L16.219,110L16.287,110L16.356,111.111L16.424,111.111L16.493,112.5L16.561,113.889L16.63,113.056L16.698,113.889L16.766,113.889L16.835,114.167L16.903,116.111L16.972,116.111L17.04,116.111L17.109,115.833L17.177,116.944L17.246,117.222L17.314,117.778L17.383,119.444L17.451,120.833L17.519,119.722L17.588,120L17.656,118.889L17.725,118.889L17.793,120.556L17.862,123.611L17.93,125L17.999,125.556L18.067,125.833L18.135,125.556L18.204,125.833L18.272,127.5L18.341,128.056L18.478,128.889L18.546,129.444L18.615,129.167L18.751,129.167L18.82,130L18.888,130.556L18.957,130.556L19.025,130.278L19.094,130.278L19.162,130.833L19.231,131.944L19.299,131.667L19.367,131.111L19.573,131.389L19.71,131.944L19.778,132.5L19.847,133.056L19.915,134.167L19.983,135L20.052,135.278L20.12,135.278L20.257,135.556L20.463,135.833L20.531,135.833L20.599,135.833L20.668,135.833L20.736,136.389L20.805,136.667L20.873,136.667L20.942,136.944L21.01,136.944L21.079,137.222L21.147,137.778L21.215,137.778L21.492,137.778L21.629,137.778L21.697,137.778L21.766,138.611L21.903,138.611L21.971,138.611L22.04,138.611L22.108,138.889L22.177,139.167L22.382,139.167L22.587,138.611L22.656,138.611L22.861,138.333L22.998,138.333L23.066,138.333L23.272,139.167L23.34,139.444L23.409,138.889L23.682,139.167L23.751,138.889L23.888,138.889L24.162,138.889L24.23,138.611L24.367,138.611L24.504,138.333L24.572,138.333L24.846,138.333L24.983,138.056L25.257,138.056L25.394,138.056L25.462,138.056L25.599,137.778L25.804,137.778L25.873,137.222L26.283,136.944L26.352,136.944L26.42,136.944L26.489,136.944L26.557,137.5L26.694,137.5L26.899,138.056L26.968,138.333L27.242,138.611L27.31,138.056L27.379,137.5L27.447,136.944L27.652,136.944L27.858,137.5L28.063,137.5L28.131,137.778L28.2,137.222L28.268,136.944L28.337,136.111L28.405,136.111L28.474,135.556L28.611,134.444L28.679,134.167L28.747,133.611L28.884,133.333L28.953,133.333L29.021,133.333L29.09,133.611L29.158,133.611L29.227,133.889L29.5,134.167L29.569,133.889L29.774,133.889L30.114,131.111L30.182,130L30.25,127.778L30.319,126.667L30.387,125.278L30.456,125L30.661,125L30.73,125.278L30.866,125.833L30.935,125.556L31.003,125.556L31.209,125L31.277,123.611L31.688,123.333L31.756,123.611L31.825,124.722L31.893,123.889L31.962,124.444L32.098,125L32.167,123.889L32.235,122.778L32.304,121.944L32.372,121.111L32.509,121.111L32.578,120.833L32.646,120.278L32.714,118.889L32.783,117.222L32.851,116.389L33.057,115.556L33.125,118.333L33.194,118.611L33.262,119.722L33.33,119.722L33.399,119.722L33.467,118.611L33.536,118.333L33.604,118.611L33.673,118.611L33.741,118.333L33.878,117.5L33.946,116.389L34.015,114.722L34.083,114.167L34.152,113.889L34.22,112.778L34.289,112.778L34.357,111.389L34.426,110.556L34.494,109.444L34.563,111.111L34.631,111.389L34.699,111.944L34.768,110.833L34.836,110.556L34.973,107.5L35.042,107.5L35.11,108.056L35.179,107.778L35.247,107.5L35.315,106.944L35.384,106.667L35.452,105.278L35.521,104.722L35.589,104.722L35.658,104.444L35.726,104.444L35.795,104.167L35.863,103.611L35.931,102.778L36,101.667L36.068,102.222L36.137,105L36.205,105.278L36.274,105.556L36.342,106.667L36.411,106.111L36.479,106.111L36.547,105.278L36.616,106.667L36.684,104.167L36.753,105L36.821,103.333L36.89,102.778L36.958,102.778L37.027,106.111L37.095,106.111L37.163,106.389L37.232,107.222L37.3,107.5L37.369,108.056L37.437,106.944L37.506,108.333L37.574,109.722L37.643,110.833L37.711,111.389L37.779,108.889L37.848,107.222L37.916,106.667L37.985,107.222L38.053,108.889L38.122,108.889L38.19,108.611L38.259,108.889L38.327,107.222L38.396,106.389L38.464,106.389L38.532,108.056L38.601,109.167L38.669,108.333L38.738,110.833L38.806,109.167L38.875,109.722L38.943,109.722L39.012,109.722L39.08,109.722L39.148,110L39.217,109.722L39.285,108.056L39.354,106.944L39.422,106.111L39.491,108.333L39.559,109.167L39.628,108.611L39.696,108.056L39.764,107.778L39.833,108.889L39.901,110.278L39.97,111.111L40.038,111.111L40.107,110.278L40.175,108.889L40.244,106.389L40.312,106.944L40.38,108.056L40.449,108.611L40.517,109.722L40.586,108.611L40.654,107.222L40.723,108.056L40.791,106.944L40.86,108.333L40.928,108.333L40.996,108.056L41.065,106.111L41.133,106.111L41.202,106.667L41.27,106.667L41.339,107.5L41.407,108.889L41.476,109.722L41.612,108.889L41.681,108.889L41.749,109.722L41.818,110L41.886,110.833L41.955,111.944L42.023,109.444L42.092,108.056L42.16,108.056L42.228,108.333L42.297,110.278L42.365,112.778L42.434,112.222L42.502,111.389L42.571,110.278L42.639,110L42.708,110.833L42.776,113.056L42.845,113.889L42.981,114.167L43.118,112.222L43.187,112.222L43.255,114.167L43.324,115.833L43.392,116.111L43.461,116.667L43.529,117.5L43.597,118.333L43.666,118.611L43.734,118.611L43.803,118.889L43.871,117.5L43.94,116.944L44.008,117.5L44.077,117.778L44.145,118.611L44.213,121.667L44.282,123.333L44.35,123.056L44.419,123.056L44.487,122.5L44.556,123.056L44.624,123.611L44.693,124.722L44.761,125.833L44.829,126.389L44.898,126.389L44.966,126.111L45.035,125.833L45.103,126.944L45.172,128.611L45.24,129.167L45.309,129.167L45.377,129.444L45.445,129.444L45.514,129.444L45.582,129.722L45.651,129.444L45.788,129.722L45.856,129.722L45.925,130L45.993,131.667L46.061,132.222L46.13,132.222L46.201,132.5L46.27,132.5L46.475,132.5L46.543,132.5L46.612,133.611L46.68,134.444L46.749,135.556L46.954,135L47.023,135.278L47.091,135.556L47.296,135.833L47.433,135.278L47.502,135.278L47.57,135.556L47.639,136.111L47.707,136.111L47.775,136.667L47.844,136.111L47.912,135.556L47.981,135.833L48.049,135.833L48.118,136.111L48.255,136.111L48.323,136.944L48.392,136.111L48.665,135L49.076,135.278L49.144,135L49.213,134.722L49.418,134.444L50.103,133.889L50.445,133.333L50.513,133.333L50.65,133.333L50.787,133.333L51.198,133.056L51.266,132.5L51.403,132.778L51.54,132.222L51.745,131.389L51.814,131.389L51.882,131.667L51.951,130.833L52.225,130.833L52.361,130.833L52.43,130L52.498,129.722L52.567,130.278L52.635,130L52.704,129.444L52.772,128.611L52.841,128.333L52.909,128.056L52.977,128.056L53.046,128.056L53.114,129.444L53.251,129.444L53.32,129.167L53.388,129.444L53.457,129.444L53.525,129.444L53.593,128.889L53.662,128.056L53.73,126.111L53.867,125.278L53.936,124.722L54.004,124.167L54.073,123.333L54.209,123.056L54.278,123.611L54.346,122.5L54.415,122.222L54.552,122.5L54.62,121.944L54.689,121.111L54.757,121.944L54.823,121.389L54.891,121.944L54.96,122.222L55.028,121.111L55.096,119.722L55.165,119.167L55.233,119.444L55.302,118.889L55.37,118.889L55.439,118.056L55.507,117.5L55.576,117.778L55.644,115.278L55.712,115.556L55.781,116.111L55.849,116.944L55.918,116.667L55.986,118.056L56.055,118.889L56.123,117.222L56.192,116.111L56.26,116.389L56.328,114.722L56.397,114.722L56.465,115.278L56.534,114.722L56.602,114.167L56.671,114.167L56.739,114.722L56.808,113.056L56.876,113.333L56.944,113.056L57.013,113.333L57.081,115L57.15,115L57.218,114.722L57.287,113.889L57.355,113.611L57.424,113.889L57.492,113.333L57.56,113.056L57.629,112.778L57.697,113.889L57.766,112.778L57.903,111.667L58.04,111.667L58.108,112.778L58.176,112.778L58.245,110.833L58.313,113.056L58.382,115.278L58.45,115.278L58.519,116.944L58.587,116.944L58.656,116.667L58.724,117.222L58.792,116.944L58.861,117.5L58.929,117.222L58.998,118.611L59.135,118.056L59.272,117.222L59.34,116.111L59.409,114.722L59.545,116.667L59.614,116.944L59.682,115L59.751,114.722L59.819,114.167L59.888,114.167L59.956,114.167L60.025,114.444L60.093,115.556L60.161,116.667L60.23,117.778L60.298,117.222L60.367,114.444L60.435,113.611L60.504,113.889L60.572,113.333L60.641,112.5L60.709,112.222L60.777,113.056L60.846,112.778L60.914,111.111L60.983,110.833L61.051,111.389L61.12,111.667L61.188,111.111L61.257,110.278L61.325,110.278L61.393,110L61.462,111.389L61.53,111.944L61.599,111.111L61.667,111.111L61.736,112.5L61.804,112.222L61.873,113.333L61.941,114.167L62.009,115L62.078,114.444L62.146,114.167L62.215,113.056L62.283,110.833L62.352,111.111L62.42,112.778L62.489,113.056L62.557,113.889L62.625,113.333L62.694,112.778L62.762,111.944L62.831,111.389L62.899,111.667L62.968,112.222L63.036,112.5L63.105,113.056L63.173,111.111L63.242,111.111L63.31,111.944L63.378,110.556L63.447,111.944L63.515,111.667L63.584,111.389L63.652,111.667L63.721,111.667L63.789,112.5L63.858,113.611L63.994,113.333L64.063,110.833L64.131,110L64.2,110.556L64.268,111.111L64.337,111.389L64.405,112.778L64.474,111.389L64.542,111.389L64.61,110.833L64.679,111.667L64.747,112.5L64.816,112.5L64.884,112.5L64.953,111.944L65.09,111.944L65.158,113.333L65.226,113.889L65.295,114.444L65.363,115.833L65.432,114.722L65.5,113.333L65.569,113.611L65.637,112.778L65.706,113.056L65.774,113.056L65.842,113.889L65.979,112.222L66.048,111.944L66.116,111.111L66.185,110L66.253,112.222L66.322,111.667L66.39,110.833L66.458,109.444L66.595,108.333L66.664,109.167L66.732,111.389L66.801,111.111L66.869,111.667L66.938,110.556L67.006,110L67.074,110.556L67.143,112.222L67.211,113.333L67.28,113.611L67.348,113.889L67.417,113.889L67.485,113.611L67.554,113.889L67.622,116.111L67.691,116.667L67.759,118.889L67.827,119.444L67.896,117.778L67.964,118.611L68.033,118.611L68.101,121.111L68.17,121.944L68.238,123.056L68.375,124.444L68.443,125.278L68.512,126.667L68.58,127.5L68.649,128.333L68.717,130.278L68.786,128.333L68.854,128.333L68.923,129.722L68.991,130L69.059,131.111L69.128,132.222L69.196,132.778L69.265,133.056L69.333,133.056L69.402,133.056L69.47,133.056L69.539,131.944L69.607,130.833L69.675,130L69.812,129.722L69.881,130.278L69.949,130L70.018,129.167L70.086,130.833L70.155,131.389L70.36,131.111L70.428,130.556L70.497,130.278L70.634,129.444L70.702,128.611L70.771,128.611L70.839,128.611L70.907,128.333L70.976,128.056L71.044,126.944L71.184,128.333L71.253,127.222L71.321,127.222L71.389,128.056L71.458,128.056L71.526,127.778L71.595,127.778L71.663,127.778L71.732,127.778L71.8,127.778L72.005,127.5L72.074,128.611L72.142,130L72.211,131.111L72.279,131.389L72.416,130.833L72.485,131.111L72.621,132.5L72.69,132.5L72.758,132.5L72.827,132.5L72.895,132.778L72.964,133.056L73.032,133.889L73.101,134.722L73.169,134.722L73.238,134.167L73.374,134.722L73.443,135.556L73.511,136.667L73.58,137.222L73.717,138.333L73.785,138.333L73.854,138.333L73.99,138.056L74.059,138.333L74.196,138.333L74.264,138.333L74.333,138.333L74.401,138.333L74.47,138.889L74.538,138.889L74.606,138.889L74.743,138.889L74.812,138.889L74.88,140L74.949,139.722L75.017,139.444L75.086,139.444L75.154,139.444L75.222,139.722L75.359,140L75.428,140L75.496,140L75.702,140L75.838,139.722L75.975,139.722L76.044,139.722L76.249,139.722L76.386,139.444L76.865,138.056L77.139,138.056L77.276,138.056L77.413,138.056L77.481,137.778L77.55,137.5L77.618,136.389L78.097,135.556L78.166,135.556L78.439,135.278L78.645,134.722L78.782,134.167L79.329,133.889L79.466,133.333L79.535,133.333L79.603,133.056L79.671,132.222L79.737,131.389L79.805,130.278L79.874,130L79.942,129.722L80.011,128.611L80.079,128.056L80.148,127.222L80.285,126.389L80.353,126.389L80.49,126.111L80.627,126.111L80.695,125.556L80.969,125.833L81.038,126.944L81.106,126.944L81.243,126.667L81.311,126.111L81.38,125.556L81.517,125.556L81.654,126.111L81.79,124.722L81.927,124.722L81.996,124.722L82.064,125L82.133,123.056L82.201,121.667L82.27,120L82.338,117.222L82.406,114.444L82.475,113.333L82.543,111.944L82.612,113.056L82.68,111.667L82.749,109.722L82.817,107.778L82.954,105.556L83.022,106.111L83.091,106.667L83.159,104.722L83.228,104.167L83.296,101.389L83.365,101.944L83.433,101.389L83.502,101.667L83.57,101.389L83.638,99.722L83.707,95.556L83.775,93.889L83.844,93.056L83.912,92.5L83.981,94.722L84.118,93.611L84.186,91.667L84.255,89.444L84.323,91.111L84.391,92.5L84.46,94.722L84.528,97.222L84.597,97.778L84.665,98.611L84.734,96.944L84.802,96.389L84.871,95.833L84.939,96.944L85.007,97.778L85.144,99.722L85.213,98.333L85.281,96.667L85.35,98.056L85.418,98.611L85.487,98.611L85.555,96.944L85.623,95.833L85.692,95L85.76,93.611L85.829,95L85.897,98.611L86.034,101.111L86.103,101.389L86.171,101.944L86.239,100.556L86.308,99.444L86.376,100L86.445,101.944L86.513,101.111L86.582,100.278L86.65,98.333L86.719,96.389L86.787,97.5L86.855,98.333L86.924,102.222L86.992,101.667L87.061,101.944L87.129,101.667L87.198,101.944L87.266,100L87.335,100.833L87.403,102.222L87.471,102.222L87.54,102.778L87.608,103.889L87.677,101.944L87.745,102.222L87.814,101.389L87.882,101.111L87.951,101.111L88.019,101.389L88.087,100.556L88.156,98.611L88.224,97.5L88.293,98.056L88.361,100L88.43,101.667L88.498,101.944L88.567,101.944L88.635,100.278L88.704,100.833L88.772,101.111L88.84,100.556L88.909,99.444L88.977,98.611L89.046,97.222L89.114,96.667L89.183,96.389L89.251,97.778L89.32,100.278L89.388,100L89.456,99.722L89.525,98.056L89.593,94.722L89.662,94.167L89.73,97.778L89.799,98.056L89.867,98.056L89.936,99.722L90.004,97.5L90.072,95.278L90.141,95.556L90.209,98.333L90.278,100.278L90.346,100L90.415,98.611L90.483,96.389L90.552,95.278L90.62,95.556L90.688,98.056L90.757,98.333L90.825,98.889L90.894,99.167L90.962,100L91.031,97.5L91.099,98.611L91.168,100.833L91.236,102.222L91.373,102.222L91.441,100L91.51,97.778L91.578,95L91.647,96.944L91.715,100L91.784,100.833L91.852,100.556L91.92,99.167L91.989,100L92.057,97.222L92.126,98.889L92.194,101.389L92.263,101.944L92.331,100.556L92.4,98.056L92.468,97.222L92.537,98.889L92.605,100.833L92.673,101.667L92.742,102.222L92.81,102.5L92.879,103.611L92.947,104.167L93.016,105.556L93.084,105.833L93.153,109.444L93.221,110.833L93.289,110.833L93.358,110.556L93.426,110.833L93.495,112.778L93.563,116.111L93.632,119.722L93.7,120.278L93.769,120.833L93.837,121.111L93.905,120.833L93.974,123.333L94.042,123.889L94.111,126.944L94.179,128.056L94.316,128.333L94.385,128.611L94.453,129.722L94.521,131.944L94.59,133.611L94.727,133.611L94.864,133.889L94.932,134.444L95.001,135.278L95.069,135.278L95.137,135.278L95.206,136.111L95.343,136.111L95.411,136.667L95.548,136.667L95.617,136.667L95.685,136.389L95.753,136.667L95.822,136.111L95.89,136.667L96.099,136.667L96.167,136.389L96.235,136.389L96.372,135.833L96.578,135.833L96.646,136.389L96.715,135.556L96.783,135.556L96.851,135.556L96.988,135.556L97.057,135.833L97.331,135.556L97.467,135.278L97.536,135.278L97.604,135.556L97.673,135.556L98.084,134.722L98.152,134.722L98.22,134.722L98.289,134.167L98.357,134.167L98.426,134.167L98.494,133.889L98.7,133.611L99.11,133.611L99.179,133.611L99.247,134.167L99.316,133.611L99.384,134.444L99.452,134.444L99.521,134.444L99.658,134.444L99.726,133.889L99.795,134.167L99.932,135.278L100,135.278L100.137,136.111L100.205,135.556L100.342,135.556L100.616,135.278L100.684,135L100.753,134.722L100.89,135.278L101.027,135.556L101.095,135.556L101.164,135.556L101.232,136.389L101.369,136.389L101.506,136.389L101.643,136.667L101.711,136.667L101.78,136.667L101.848,137.222L101.916,137.5L101.985,137.222L102.122,136.389L102.19,136.111L102.259,136.944L102.327,136.111L102.464,136.111L102.533,135.278L102.601,135.556L102.806,136.111L102.875,134.722L103.08,133.056L103.217,132.5L103.354,132.222L103.422,131.944L103.491,131.667L103.559,130.833L103.628,130L103.696,130.278L103.765,130.278L103.833,130.278L103.97,129.722L104.107,129.722L104.175,128.611L104.244,128.056L104.312,126.667L104.381,126.944L104.449,126.944L104.517,126.944L104.586,126.667L104.651,125.278L104.72,125.556L104.788,125.833L104.857,126.111L104.925,125.833L104.994,126.389L105.199,125.833L105.268,126.111L105.336,125.278L105.404,125L105.473,126.389L105.541,128.056L105.61,128.611L105.678,128.889L105.747,129.444L105.815,129.444L105.884,130.278L105.952,130.833L106.02,130.556L106.226,129.444L106.294,125.278L106.363,125L106.431,124.444L106.5,124.167L106.568,124.167L106.636,124.167L106.705,124.167L106.773,123.333L106.842,122.222L106.91,122.222L106.979,123.056L107.047,121.944L107.116,121.111L107.184,115.833L107.252,113.333L107.321,112.5L107.389,112.222L107.458,110.556L107.526,109.722L107.595,107.778L107.663,103.611L107.732,101.944L107.8,98.333L107.868,94.167L108.005,90.833L108.074,88.056L108.142,86.111L108.211,79.444L108.279,73.889L108.348,71.111L108.416,75.278L108.484,74.167L108.553,71.667L108.621,68.611L108.69,67.222L108.758,64.444L108.827,61.111L108.895,57.222L108.964,54.444L109.032,51.944L109.101,50.556L109.169,43.611L109.237,36.944L109.306,35L109.374,33.333L109.443,32.778L109.511,30.833L109.58,29.722L109.648,25L109.717,17.222L109.785,16.111L109.853,14.722L109.922,14.444L109.99,14.722L110.059,14.722L110.127,13.611L110.196,11.667L110.264,14.167L110.333,17.5L110.401,18.611L110.469,16.389L110.538,14.722L110.606,15L110.675,14.444L110.743,13.889L110.812,16.389L110.88,18.611L110.949,21.667L111.017,22.5L111.085,23.056L111.154,20.833L111.222,26.111L111.291,33.333L111.359,40L111.428,40L111.496,39.167L111.565,38.611L111.633,35.556L111.701,35.556L111.77,43.333L111.838,48.056L111.907,48.611L111.975,50L112.044,48.611L112.112,44.444L112.181,41.389L112.249,41.944L112.317,44.167L112.386,45.833L112.454,46.667L112.523,45.556L112.591,41.944L112.66,37.778L112.728,40L112.797,40L112.865,40.556L112.933,39.167L113.002,39.167L113.07,38.056L113.139,34.722L113.207,36.944L113.276,37.5L113.344,36.944L113.413,35.833L113.481,32.778L113.55,29.167L113.618,28.056L113.686,31.667L113.755,35.278L113.823,35L113.892,31.389L113.96,30.556L114.029,28.333L114.097,29.444L114.166,35L114.234,40L114.302,43.333L114.371,44.444L114.439,42.222L114.508,38.333L114.576,35.278L114.645,39.167L114.713,43.889L114.782,44.444L114.85,45.556L114.918,38.889L114.987,36.667L115.055,33.333L115.124,33.056L115.192,34.722L115.261,35.278L115.329,37.222L115.398,35.278L115.466,35L115.534,37.778L115.603,41.944L115.671,45.556L115.74,47.222L115.808,48.056L115.877,48.056L115.945,48.889L116.014,50.556L116.082,53.611L116.15,56.111L116.219,57.5L116.287,57.222L116.356,53.333L116.424,50.278L116.493,49.444L116.561,52.5L116.63,58.333L116.698,60L116.766,59.167L116.835,59.444L116.903,56.111L116.972,61.667L117.04,65L117.109,68.889L117.177,71.389L117.246,75.278L117.314,74.167L117.383,71.944L117.451,71.389L117.519,72.5L117.588,76.389L117.656,77.778L117.725,78.611L117.793,79.167L117.862,79.722L117.93,80.556L117.999,82.778L118.067,84.167L118.135,85L118.204,85L118.272,83.333L118.341,85.278L118.409,88.333L118.478,92.222L118.546,95.556L118.615,98.333L118.683,97.5L118.751,99.167L118.82,101.944L118.888,102.778L118.957,106.944L119.025,107.222L119.094,107.222L119.162,106.111L119.231,106.667L119.299,104.444L119.367,106.389L119.436,108.333L119.573,110.556L119.641,110.833L119.71,111.667L119.778,112.222L119.847,112.222L119.915,111.667L119.983,112.778L120.052,114.444L120.12,115.833L120.189,115.556L120.257,116.111L120.326,117.778L120.394,120L120.463,118.889L120.531,119.167L120.599,119.167L120.668,119.444L120.805,119.444L120.873,119.722L121.013,119.444L121.081,119.167L121.15,119.444L121.218,119.167L121.287,120.556L121.355,121.944L121.424,123.333L121.492,124.167L121.561,126.389L121.697,126.111L121.766,126.667L121.834,128.056L121.903,128.056L121.971,128.056L122.108,128.056L122.177,128.056L122.245,128.889L122.313,128.889L122.382,128.611L122.45,128.611L122.519,128.611L122.587,128.889L122.656,128.889L122.724,129.167L122.793,130.556L122.861,131.389L122.93,131.944L122.998,132.222L123.066,132.222L123.135,132.778L123.203,132.5L123.34,132.5L123.409,131.944L123.546,131.667L123.614,130.833L123.682,130.278L123.751,130.833L123.888,130.556L123.956,129.722L124.093,130.278L124.162,129.722L124.23,129.444L124.298,127.778L124.435,127.778L124.504,127.778L124.709,127.778L124.778,128.056L124.846,128.333L124.914,128.056L124.983,128.056L125.051,128.611L125.12,126.944L125.188,126.944L125.257,126.944L125.394,127.222L125.462,126.389L125.53,126.111L125.599,125.278L125.667,124.722L125.736,125L125.804,125.278L125.873,125.556L125.941,126.944L126.01,127.5L126.078,127.778L126.146,128.333L126.215,128.611L126.283,128.889L126.42,129.444L126.489,129.167L126.557,129.722L126.626,129.444L126.831,130.556L126.899,130.556L127.036,129.444L127.105,128.889L127.173,128.889L127.242,126.667L127.31,126.667L127.379,124.722L127.447,123.889L127.584,123.333L127.652,121.667L127.721,121.667L127.789,121.389L127.858,122.222L127.926,122.5L127.995,123.611L128.063,122.5L128.131,121.667L128.2,121.667L128.268,121.111L128.405,118.889L128.474,118.611L128.542,117.778L128.611,116.389L128.679,115.833L128.747,116.389L128.816,116.111L128.884,116.389L128.953,116.111L129.021,114.722L129.09,114.167L129.158,113.056L129.227,112.222L129.295,111.389L129.432,110L129.569,111.389L129.637,111.111L129.706,113.056L129.774,113.611L129.843,115L129.911,115.833L129.979,114.167L130.182,111.389L130.25,110.556L130.319,108.889L130.387,108.333L130.456,109.722L130.524,109.444L130.593,108.611L130.73,108.889L130.798,110.556L130.866,109.722L130.935,111.111L131.003,109.167L131.072,108.056L131.14,106.667L131.209,103.611L131.346,103.056L131.414,101.944L131.482,104.167L131.551,104.722L131.619,102.778L131.688,104.167L131.756,103.889L131.825,103.056L131.893,103.611L131.962,103.889L132.03,102.778L132.098,101.111L132.235,98.611L132.304,97.5L132.372,98.056L132.441,99.444L132.509,97.5L132.578,97.222L132.646,94.444L132.714,90.556L132.783,87.778L132.851,88.333L132.92,87.5L132.988,87.778L133.057,87.778L133.125,88.333L133.194,91.667L133.262,92.778L133.33,92.778L133.399,95.278L133.467,95L133.536,95.278L133.604,93.333L133.673,90.833L133.741,88.889L133.81,88.333L133.878,86.944L133.946,86.944L134.015,82.5L134.083,81.389L134.152,73.889L134.22,73.889L134.289,74.722L134.357,72.5L134.426,69.722L134.494,69.444L134.563,68.056L134.631,66.944L134.699,62.5L134.768,64.722L134.836,68.333L134.905,64.444L134.973,60.556L135.042,56.111L135.11,53.333L135.179,41.667L135.247,39.722L135.315,33.333L135.384,30.556L135.452,30.278L135.521,27.222L135.589,26.944L135.658,23.056L135.726,23.611L135.795,26.667L135.863,25.556L135.931,27.222L136,27.778L136.068,29.444L136.137,28.889L136.205,35.833L136.274,36.944L136.342,37.5L136.411,39.167L136.479,38.889L136.547,33.889L136.616,34.167L136.684,36.111L136.753,41.667L136.821,42.222L136.89,42.222L136.958,35.833L137.027,36.944L137.095,38.611L137.163,40L137.232,49.722L137.3,50L137.369,55.278L137.437,54.167L137.506,51.667L137.574,46.944L137.643,44.722L137.711,47.778L137.779,50L137.848,50L137.916,50.556L137.985,45.278L138.053,46.111L138.122,48.056L138.19,49.444L138.259,49.167L138.327,46.389L138.396,43.611L138.464,42.222L138.532,43.333L138.601,48.611L138.669,50.278L138.738,49.722L138.806,48.056L138.875,46.667L138.943,39.167L139.012,49.444L139.08,53.056L139.148,54.722L139.217,54.167L139.285,53.889L139.354,53.889L139.422,52.222L139.491,53.333L139.559,55L139.628,62.222L139.696,64.722L139.764,65.833L139.833,63.056L139.901,62.222L139.97,58.889L140.038,63.333L140.107,62.5L140.175,61.111L140.244,60.556L140.312,60L140.38,57.222L140.449,60L140.517,62.222L140.586,63.333L140.654,63.611L140.723,64.722L140.791,55.556L140.86,54.444L140.928,53.333L140.996,59.722L141.065,57.778L141.133,55.833L141.202,56.667L141.27,56.667L141.339,55L141.407,47.5L141.476,49.167L141.544,50.833L141.612,49.444L141.681,50.833L141.749,49.167L141.818,47.222L141.886,48.333L141.955,50.278L142.023,54.444L142.092,54.167L142.16,53.889L142.228,46.944L142.297,46.111L142.365,46.389L142.434,50.833L142.502,51.389L142.571,52.222L142.639,51.944L142.708,50.833L142.776,48.889L142.845,58.056L142.913,62.222L142.981,65.556L143.05,67.222L143.118,68.889L143.187,70.833L143.255,70.556L143.324,73.889L143.392,76.667L143.461,84.722L143.529,84.722L143.597,86.944L143.666,89.722L143.734,87.778L143.803,89.722L143.871,92.222L143.94,94.167L144.008,94.167L144.077,94.444L144.145,95.556L144.213,96.389L144.282,104.722L144.35,106.389L144.419,107.222L144.487,108.056L144.556,109.167L144.624,107.778L144.693,109.444L144.761,110L144.829,110.833L144.898,111.944L144.966,111.389L145.035,110.278L145.103,109.722L145.172,110.556L145.24,110.556L145.309,111.111L145.377,111.111L145.445,112.222L145.514,111.944L145.582,113.056L145.651,113.333L145.719,113.889L145.788,115.278L145.856,116.111L145.925,115.833L145.993,116.389L146.061,116.944L146.13,116.389L146.198,116.944L146.267,117.778L146.407,118.889L146.475,116.944L146.543,118.333L146.612,118.889L146.68,119.167L146.749,120.556L146.954,121.389L147.023,123.333L147.091,125.556L147.159,125.278L147.228,126.389L147.296,127.778L147.365,127.222L147.433,126.667L147.502,123.333L147.707,123.611L147.844,123.889L147.912,123.611L148.049,121.944L148.118,121.667L148.186,121.111L148.255,120.833L148.323,120.556L148.392,118.333L148.46,118.056L148.528,118.056L148.597,118.333L148.665,118.611L148.802,119.167L148.939,119.167L149.008,118.611L149.076,120.833L149.144,120.556L149.213,120.556L149.281,119.444L149.487,120.278L149.555,117.222L149.624,115.833L149.76,115.556L149.829,116.389L149.897,116.667L149.966,116.667L150.034,116.944L150.103,117.222L150.308,120.278L150.445,119.722L150.513,119.167L150.582,119.167L150.65,122.222L150.719,122.222L150.787,121.944L150.856,121.944L150.924,123.056L150.992,124.722L151.061,126.389L151.129,125.833L151.198,125.833L151.266,126.667L151.403,125.556L151.472,125.278L151.608,125.833L151.677,125.278L151.745,123.889L151.882,124.167L152.156,125.278L152.225,123.056L152.293,124.722L152.43,125L152.567,122.778L152.635,121.944L152.841,119.444L152.909,118.611L153.046,119.444L153.183,118.611L153.251,119.444L153.32,118.611L153.388,118.889L153.525,119.167L153.593,118.056L153.662,118.611L153.73,117.5L153.936,117.778L154.004,117.222L154.073,117.5L154.141,116.389L154.209,116.389L154.278,114.444L154.346,112.778L154.483,113.333L154.552,112.5L154.689,110.833L154.757,109.722L154.825,108.611L154.96,106.667L155.028,103.889L155.096,105L155.165,106.389L155.233,106.389L155.302,105.556L155.37,102.778L155.439,102.5L155.507,103.333L155.576,101.667L155.644,102.778L155.712,101.389L155.781,101.389L155.986,99.444L156.055,98.611L156.192,99.722L156.26,99.444L156.328,100.833L156.397,100.556L156.465,100.556L156.534,100.278L156.602,101.111L156.671,100.278L156.739,101.389L156.808,100.278L156.876,98.333L156.944,98.333L157.013,96.389L157.081,95.833L157.15,97.5L157.218,99.444L157.287,101.667L157.492,100.833L157.56,98.611L157.629,93.333L157.697,94.722L157.766,96.389L157.834,98.333L157.903,96.111L157.971,95.556L158.04,95L158.108,92.5L158.176,89.722L158.245,89.722L158.313,89.722L158.382,88.611L158.45,87.778L158.519,84.444L158.587,79.722L158.656,76.667L158.724,75.556L158.792,75.278L158.861,76.389L158.929,75.833L158.998,73.611L159.066,67.222L159.135,65.556L159.203,66.944L159.272,63.889L159.34,64.444L159.409,63.889L159.477,61.944L159.545,60.833L159.614,55L159.682,58.056L159.751,58.889L159.819,59.444L159.888,58.333L159.956,56.667L160.025,55.278L160.093,52.5L160.161,55.833L160.23,56.667L160.298,57.778L160.367,56.389L160.435,48.889L160.504,42.222L160.572,41.389L160.641,31.111L160.709,30.556L160.777,31.111L160.846,30.278L160.914,28.333L160.983,23.889L161.051,19.167L161.12,25.556L161.188,27.222L161.257,28.333L161.325,33.056L161.393,29.722L161.462,24.167L161.53,16.944L161.599,19.444L161.667,24.722L161.736,26.111L161.804,24.444L161.873,21.111L161.941,18.889L162.009,16.667L162.078,19.444L162.146,22.222L162.215,21.944L162.283,24.722L162.352,23.611L162.42,21.944L162.489,26.667L162.557,32.222L162.625,35.278L162.694,48.611L162.762,51.389L162.831,48.056L162.899,45.833L162.968,45.278L163.036,50.278L163.105,58.889L163.173,60.278L163.242,59.444L163.31,59.444L163.378,55.833L163.447,56.944L163.515,62.5L163.584,70.556L163.652,69.167L163.721,69.444L163.789,67.778L163.858,66.667L163.926,65L163.994,68.056L164.063,73.056L164.131,72.222L164.2,70.278L164.268,66.944L164.337,63.889L164.405,60.556L164.474,61.944L164.542,65.278L164.61,65.833L164.679,65.278L164.747,63.333L164.816,58.333L164.884,54.444L164.953,54.167L165.021,56.389L165.09,55L165.158,54.444L165.226,53.333L165.295,50.556L165.363,48.333L165.432,50.556L165.5,52.5L165.569,51.111L165.637,50.833L165.706,49.167L165.774,47.222L165.842,45L165.911,47.5L165.979,52.778L166.048,53.056L166.116,53.611L166.185,54.167L166.253,55.278L166.322,58.333L166.39,60.833L166.458,65.556L166.527,68.056L166.595,68.333L166.664,70L166.732,70.278L166.801,73.611L166.869,80L166.938,87.778L167.006,91.389L167.074,90.833L167.143,91.667L167.211,90.833L167.28,90.556L167.348,94.722L167.417,96.667L167.485,98.056L167.554,98.889L167.622,98.611L167.691,97.778L167.759,98.611L167.827,101.944L167.896,107.222L167.964,108.611L168.033,109.444L168.101,107.5L168.17,105.833L168.238,106.111L168.307,106.389L168.375,106.667L168.443,106.389L168.512,106.667L168.58,104.444L168.649,103.889L168.717,101.389L168.786,102.778L168.854,101.667L168.923,100.556L168.991,100L169.059,98.889L169.128,94.167L169.196,93.333L169.265,94.167L169.333,96.944L169.402,97.5L169.47,98.056L169.539,98.333L169.607,97.5L169.675,98.611L169.744,101.389L169.812,103.889L169.881,105L169.949,105L170.018,103.889L170.086,104.167L170.155,106.667L170.223,108.889L170.291,109.722L170.36,109.722L170.428,110.556L170.497,111.667L170.565,112.222L170.634,113.056L170.702,113.611L170.771,116.111L170.839,116.389L170.907,118.333L170.976,119.444L171.044,120.556L171.113,121.944L171.181,127.5L171.253,129.444L171.321,131.111L171.389,130L171.458,130.278L171.526,130.833L171.595,131.111L171.663,131.667L171.8,133.056L171.869,132.222L171.937,132.222L172.074,129.722L172.142,129.167L172.279,129.722L172.348,129.444L172.416,129.444L172.485,129.444L172.553,128.333L172.621,129.444L172.964,129.444L173.032,129.444L173.169,129.444L173.238,130.833L173.306,129.167L173.374,129.167L173.443,129.167L173.511,129.167L173.58,128.056L173.648,128.056L173.717,127.778L173.785,126.389L173.922,126.667L173.99,126.667L174.059,127.5L174.196,127.5L174.264,127.778L174.401,126.667L174.47,126.389L174.538,125.833L174.743,125.833L174.88,126.111L174.949,128.611L175.017,128.056L175.086,128.333L175.154,128.056L175.222,128.056L175.291,128.056L175.359,127.778L175.428,127.5L175.496,126.389L175.565,126.389L175.702,126.111L175.907,126.111L175.975,128.056L176.044,126.667L176.112,126.389L176.181,126.111L176.249,127.222L176.318,126.944L176.386,126.667L176.454,127.778L176.523,127.778L176.591,127.5L176.66,127.5L176.797,127.222L176.865,125.556L176.934,126.389L177.002,126.667L177.139,127.222L177.276,128.056L177.344,128.056L177.413,128.056L177.481,128.611L177.618,127.778L177.687,127.778L177.755,127.5L177.823,127.5L177.892,128.611L177.96,128.889L178.029,129.444L178.097,129.722L178.166,128.611L178.234,128.333L178.303,127.222L178.439,127.222L178.508,126.111L178.645,126.389L178.713,126.389L178.782,126.389L178.85,126.389L178.987,124.722L179.055,123.333L179.124,123.611L179.192,123.056L179.261,122.5L179.329,122.222L179.398,122.5L179.466,120.833L179.535,120.556L179.603,120.556L179.671,119.722L179.74,116.389L179.808,115.833L179.942,113.056L180.079,110.833L180.148,110.556L180.216,108.333L180.285,107.5L180.353,106.944L180.422,107.222L180.49,105.278L180.558,105L180.627,101.111L180.764,100.278L180.832,101.111L180.901,102.5L180.969,102.5L181.038,101.944L181.106,102.222L181.174,102.5L181.243,104.722L181.311,105L181.38,104.722L181.448,105.278L181.517,103.611L181.585,103.611L181.654,101.667L181.722,101.944L181.79,101.667L181.859,100.556L181.927,100L181.996,99.444L182.064,97.778L182.133,98.611L182.201,100.278L182.27,98.611L182.338,100.278L182.406,100.833L182.475,99.167L182.543,99.167L182.612,99.722L182.68,99.444L182.749,102.5L182.817,103.333L182.886,103.611L182.954,98.333L183.022,95.556L183.091,93.611L183.159,91.389L183.228,90.833L183.296,88.889L183.365,88.611L183.433,83.889L183.502,81.111L183.57,79.167L183.638,80.278L183.707,81.667L183.775,83.056L183.844,81.667L183.912,79.444L183.981,78.056L184.049,79.167L184.118,81.111L184.186,82.5L184.255,83.333L184.323,83.889L184.391,81.667L184.46,79.444L184.528,77.778L184.597,76.111L184.665,76.389L184.734,77.5L184.802,77.778L184.871,76.944L184.939,73.889L185.007,76.944L185.076,78.056L185.144,78.889L185.213,79.444L185.281,78.889L185.35,78.611L185.418,73.333L185.487,74.167L185.555,75.278L185.623,75.556L185.692,75.833L185.76,76.389L185.829,74.167L185.897,72.5L185.966,74.444L186.034,75.556L186.103,76.389L186.171,75.278L186.239,74.167L186.308,71.667L186.376,70.278L186.445,70.278L186.513,71.111L186.582,72.778L186.65,73.611L186.719,73.611L186.787,70.556L186.855,66.667L186.924,65L186.992,65.556L187.061,67.5L187.129,67.5L187.198,67.778L187.266,65.833L187.335,62.778L187.403,60.556L187.471,66.111L187.54,69.444L187.608,68.611L187.677,71.667L187.745,68.333L187.814,64.722L187.882,62.778L187.951,64.167L188.019,64.722L188.087,66.111L188.156,66.111L188.224,63.889L188.293,62.222L188.361,61.111L188.43,63.333L188.498,63.889L188.567,65L188.635,64.444L188.704,63.056L188.772,60L188.84,60L188.909,61.389L188.977,62.778L189.046,62.778L189.114,59.167L189.183,57.5L189.251,52.222L189.32,49.167L189.388,50.833L189.456,53.333L189.525,51.944L189.593,48.611L189.662,50L189.73,46.944L189.799,45.278L189.867,46.944L189.936,50.278L190.004,50.833L190.072,48.889L190.141,44.444L190.209,40.278L190.278,41.111L190.346,44.722L190.415,46.111L190.483,45.833L190.552,46.667L190.62,43.889L190.688,41.111L190.757,38.333L190.825,39.167L190.894,41.667L190.962,42.5L191.031,40.833L191.099,42.5L191.168,44.722L191.236,46.111L191.304,52.222L191.373,57.778L191.441,59.167L191.51,57.5L191.578,57.5L191.647,59.722L191.715,59.167L191.784,62.778L191.852,66.667L191.92,67.5L191.989,65.556L192.057,65.556L192.126,66.389L192.194,71.111L192.263,76.667L192.331,77.778L192.4,76.944L192.468,77.5L192.537,77.5L192.605,76.944L192.673,79.444L192.742,84.167L192.879,88.889L192.947,91.389L193.016,91.944L193.084,91.389L193.153,91.944L193.221,92.778L193.289,93.333L193.358,94.444L193.426,92.222L193.495,90.833L193.563,91.667L193.632,94.167L193.7,94.167L193.769,95.833L193.837,97.222L193.905,96.389L193.974,91.389L194.042,91.111L194.111,93.056L194.179,94.167L194.248,95.556L194.316,94.444L194.385,94.722L194.453,95.833L194.521,95.556L194.59,96.667L194.658,98.056L194.727,99.722L194.795,98.333L194.864,96.667L194.932,95.278L195.001,95.833L195.069,96.111L195.137,98.611L195.274,100.833L195.343,99.722L195.411,100L195.48,100.556L195.548,102.778L195.617,105.278L195.685,104.722L195.753,105.833L195.822,108.056L195.89,107.778L195.959,106.944L196.027,107.222L196.096,113.611L196.167,114.167L196.235,114.444L196.304,115L196.372,113.889L196.441,110.556L196.509,109.444L196.578,110.833L196.646,111.944L196.715,112.778L196.783,112.222L196.851,112.5L196.92,113.056L196.988,115.278L197.057,117.222L197.125,117.5L197.194,117.778L197.262,117.222L197.331,117.778L197.399,118.333L197.467,116.944L197.536,116.667L197.604,116.944L197.673,116.667L197.741,117.778L197.81,116.944L197.878,115L197.947,114.444L198.015,115.278L198.084,115.278L198.152,115.556L198.22,116.667L198.289,116.667L198.357,115.833L198.426,117.222L198.494,120.833L198.563,122.222L198.631,121.944L198.7,122.222L198.768,122.222L198.836,121.944L198.905,121.944L198.973,123.889L199.042,123.889L199.11,123.611L199.179,122.778L199.247,121.667L199.316,119.722L199.384,119.722L199.452,120.833L199.521,123.333L199.589,123.611L199.658,123.889L199.726,123.889L199.795,123.056L199.863,123.889L199.932,126.111L200,126.667L200.274,126.111L200.342,124.444L200.411,122.5L200.479,121.667L200.684,122.5L200.753,123.056L200.821,122.5L200.958,123.056L201.027,122.5L201.095,122.778L201.164,122.5L201.232,121.111L201.369,121.111L201.437,120L201.506,119.167L201.574,118.889L201.643,119.167L201.711,119.722L201.78,120.556L201.848,122.222L201.916,119.444" stroke="#4c78a8" stroke-width="2"/></g><g class="mark-group role-title"><g transform="translate(100,-17)"><path class="background" aria-hidden="true" d="M0,0h0v0h0Z" pointer-events="none"/><g><g class="mark-text role-title-text" role="graphics-symbol" aria-roledescription="title" aria-label="Title text 'Drinking: In Public'" pointer-events="none"><text text-anchor="middle" transform="translate(0,10)" font-family="sans-serif" font-size="13px" font-weight="bold" fill="#000" opacity="1">Drinking: In Public</text></g></g><path class="foreground" aria-hidden="true" d="" pointer-events="none" display="none"/></g></g></g><path class="foreground" aria-hidden="true" d="" display="none"/></g></g></g><defs><clipPath id="clip112"><rect x="0" y="0" width="200" height="150"/></clipPath></defs></svg>