<svg xmlns="http://www.w3.org/2000/svg" xmlns:xlink="http://www.w3.org/1999/xlink" version="1.1" class="marks" width="244" height="199" viewBox="0 0 244 199"><rect width="244" height="199" fill="white"/><g fill="none" stroke-miterlimit="10" transform="translate(24,27)"><g class="mark-group role-frame root" role="graphics-object" aria-roledescription="group mark container"><g transform="translate(0,0)"><path class="background" aria-hidden="true" d="M0,0h200v150h-200Z"/><g><g class="mark-group role-axis" aria-hidden="true"><g transform="translate(0.5,0.5)"><path class="background" aria-hidden="true" d="M0,0h0v0h0Z" pointer-events="none"/><g><g class="mark-rule role-axis-grid" pointer-events="none"><line transform="translate(0,150)" x2="200" y2="0" stroke="#ddd" stroke-width="1" opacity="1"/><line transform="translate(0,113)" x2="200" y2="0" stroke="#ddd" stroke-width="1" opacity="1"/><line transform="translate(0,75)" x2="200" y2="0" stroke="#ddd" stroke-width="1" opacity="1"/><line transform="translate(0,38)" x2="200" y2="0" stroke="#ddd" stroke-width="1" opacity="1"/><line transform="translate(0,0)" x2="200" y2="0" stroke="#ddd" stroke-width="1" opacity="1"/></g></g><path class="foreground" aria-hidden="true" d="" pointer-events="none" display="none"/></g></g><g class="mark-group role-axis" role="graphics-symbol" aria-roledescription="axis" aria-label="X-axis for a time scale with values from Friday, 01 January 2016, 12:00:00 AM to Monday, 01 January 2024, 12:00:00 AM"><g transform="translate(0.5,150.5)"><path class="background" aria-hidden="true" d="M0,0h0v0h0Z" pointer-events="none"/><g><g class="mark-rule role-axis-tick" pointer-events="none"><line transform="translate(0,0)" x2="0" y2="5" stroke="#888" stroke-width="1" opacity="1"/><line transform="translate(50,0)" x2="0" y2="5" stroke="#888" stroke-width="1" opacity="1"/><line transform="translate(100,0)" x2="0" y2="5" stroke="#888" stroke-width="1" opacity="1"/><line transform="translate(150,0)" x2="0" y2="5" stroke="#888" stroke-width="1" opacity="1"/><line transform="translate(200,0)" x2="0" y2="5" stroke="#888" stroke-width="1" opacity="1"/></g><g class="mark-text role-axis-label" pointer-events="none"><text text-anchor="start" transform="translate(0,15)" font-family="sans-serif" font-size="10px" fill="#000" opacity="1">2016</text><text text-anchor="middle" transform="translate(50.03422313483915,15)" font-family="sans-serif" font-size="10px" fill="#000" opacity="1">2018</text><text text-anchor="middle" transform="translate(100,15)" font-family="sans-serif" font-size="10px" fill="#000" opacity="1">2020</text><text text-anchor="middle" transform="translate(150.03422313483915,15)" font-family="sans-serif" font-size="10px" fill="#000" opacity="1">2022</text><text text-anchor="end" transform="translate(200,15)" font-family="sans-serif" font-size="10px" fill="#000" opacity="1">2024</text></g><g class="mark-rule role-axis-domain" pointer-events="none"><line transform="translate(0,0)" x2="200" y2="0" stroke="#888" stroke-width="1" opacity="1"/></g></g><path class="foreground" aria-hidden="true" d="" pointer-events="none" display="none"/></g></g><g class="mark-group role-axis" role="graphics-symbol" aria-roledescription="axis" aria-label="Y-axis for a linear scale with values from 0 to 20"><g transform="translate(0.5,0.5)"><path class="background" aria-hidden="true" d="M0,0h0v0h0Z" pointer-events="none"/><g><g class="mark-rule role-axis-tick" pointer-events="none"><line transform="translate(0,150)" x2="-5" y2="0" stroke="#888" stroke-opacity="0" stroke-width="1" opacity="1"/><line transform="translate(0,113)" x2="-5" y2="0" stroke="#888" stroke-opacity="0" stroke-width="1" opacity="1"/><line transform="translate(0,75)" x2="-5" y2="0" stroke="#888" stroke-opacity="0" stroke-width="1" opacity="1"/><line transform="translate(0,38)" x2="-5" y2="0" stroke="#888" stroke-opacity="0" stroke-width="1" opacity="1"/><line transform="translate(0,0)" x2="-5" y2="0" stroke="#888" stroke-opacity="0" stroke-width="1" opacity="1"/></g><g class="mark-text role-axis-label" pointer-events="none"><text text-anchor="end" transform="translate(-7,153)" font-family="sans-serif" font-size="10px" fill="#000" opacity="1">0</text><text text-anchor="end" transform="translate(-7,115.5)" font-family="sans-serif" font-size="10px" fill="#000" opacity="1">5</text><text text-anchor="end" transform="translate(-7,78)" font-family="sans-serif" font-size="10px" fill="#000" opacity="1">10</text><text text-anchor="end" transform="translate(-7,40.5)" font-family="sans-serif" font-size="10px" fill="#000" opacity="1">15</text><text text-anchor="end" transform="translate(-7,3)" font-family="sans-serif" font-size="10px" fill="#000" opacity="1">20</text></g></g><path class="foreground" aria-hidden="true" d="" pointer-events="none" display="none"/></g></g><g class="mark-line role-mark marks" clip-path="url(#clip113)" role="graphics-object" aria-roledescription="line mark container"><path aria-label="day: Jan 01, 2010; avg: 1.76666666667" role="graphics-symbol" aria-roledescription="line mark" d="M-149.966,136.75L-149.897,136.75L-149.76,136.75L-149.692,136.5L-149.624,136.5L-149.418,135.5L-149.213,135.5L-149.144,135.25L-149.008,135L-148.939,135.5L-148.871,135.75L-148.665,136L-148.528,135.75L-148.46,135.75L-148.392,136L-148.255,136L-148.118,136L-148.049,136.25L-147.981,136.5L-147.912,137L-147.844,137.75L-147.775,138.25L-147.707,137.75L-147.639,137.5L-147.57,137.25L-147.502,137.5L-147.433,136.75L-147.365,136.75L-147.091,136.5L-147.023,136.75L-146.954,137L-146.886,136.75L-146.749,136.75L-146.612,136.75L-146.543,137L-146.407,137.75L-146.338,137.5L-146.064,137.5L-145.722,137L-145.654,137L-145.517,136.25L-145.448,136L-145.38,136L-145.175,136L-145.106,136L-144.904,135.5L-144.835,135.5L-144.698,135.5L-144.63,135.25L-144.561,135.5L-144.288,135L-144.219,135L-144.151,135.25L-144.082,135.5L-143.945,135.75L-143.808,135.5L-143.74,136.25L-143.672,136.75L-143.603,136.25L-143.535,136L-143.466,135.5L-143.398,135.5L-143.329,135L-143.261,135.25L-143.192,135L-143.124,135.25L-143.056,134.25L-142.919,134L-142.85,134.5L-142.782,134L-142.713,134.5L-142.645,135L-142.576,135L-142.44,135L-142.303,134L-142.234,134.25L-142.166,134L-141.96,133.75L-141.892,134L-141.824,134L-141.755,134L-141.55,134L-141.481,133.75L-141.413,133.75L-141.344,132.5L-141.208,132.75L-141.139,132.75L-141.071,132.5L-141.002,132.75L-140.934,133L-140.797,133.5L-140.728,133.75L-140.523,134L-140.455,134L-140.386,134L-140.318,133.75L-140.249,135L-140.181,135.5L-140.112,135.5L-140.044,135.5L-139.975,135.5L-139.907,135L-139.839,135.25L-139.77,135.25L-139.702,136.25L-139.565,136.5L-139.428,136.5L-139.223,136.5L-139.017,136.25L-138.88,136.25L-138.812,136.5L-138.743,136.25L-138.47,136.75L-138.401,136.75L-138.333,137.25L-138.127,137L-137.991,136.75L-137.922,137L-137.854,136.75L-137.785,136.75L-137.717,136.5L-137.648,136.5L-137.511,136.25L-137.443,136.25L-137.375,136.25L-137.306,136.25L-137.101,136.25L-136.964,136.25L-136.895,136.25L-136.622,136.5L-136.485,136.75L-136.416,137.25L-136.348,137L-136.279,136.75L-136.211,136L-136.074,136L-136.006,136.25L-135.937,136.5L-135.869,135.5L-135.8,135L-135.732,135.25L-135.595,135L-135.526,135L-135.458,134L-135.39,134.75L-135.321,135L-135.184,135.25L-135.116,135.25L-135.047,135.75L-134.774,136L-134.705,136L-134.637,135.75L-134.568,136.25L-134.5,135.75L-134.431,134.75L-134.363,133.75L-134.294,133.75L-134.158,133.75L-134.089,134L-133.952,133.75L-133.884,133.25L-133.815,133L-133.678,133.25L-133.61,133L-133.542,133.5L-133.473,133.25L-133.336,133L-133.131,132.75L-133.062,134L-132.994,134.5L-132.72,134L-132.652,134L-132.583,133.75L-132.515,134L-132.446,134L-132.309,134L-132.241,133.5L-132.173,132.75L-132.104,132.5L-132.036,132.25L-131.967,132L-131.899,132.25L-131.83,132L-131.693,132.25L-131.625,133L-131.557,134.25L-131.488,133.5L-131.42,133.25L-131.283,133.25L-131.214,133.5L-131.146,133.5L-131.077,133.75L-131.009,133.25L-130.872,133.75L-130.804,134L-130.735,134.25L-130.667,134.25L-130.598,133.5L-130.53,132.25L-130.393,132.25L-130.325,132.5L-130.256,133L-130.188,132.75L-130.119,133.25L-130.051,133.25L-129.982,133.25L-129.914,133.5L-129.845,133.5L-129.777,134L-129.709,133.75L-129.64,134.25L-129.572,134L-129.503,134.25L-129.435,134.5L-129.366,135L-129.298,135L-129.229,135.75L-129.161,135.75L-128.956,135.75L-128.887,135.25L-128.819,135.5L-128.75,135.5L-128.679,135.75L-128.611,135.75L-128.542,135.75L-128.474,135.75L-128.405,135.75L-128.337,136.5L-128.268,137.75L-128.2,137.25L-128.063,137.25L-127.926,137L-127.858,137.5L-127.789,137.25L-127.515,137.25L-127.379,137L-127.242,137.25L-127.036,138L-126.968,138L-126.899,138L-126.489,137.75L-126.42,137.75L-126.352,137.5L-126.215,137.25L-126.146,137L-126.078,136.75L-126.01,136.75L-125.941,136.75L-125.873,136.75L-125.736,137.25L-125.599,137.25L-124.983,137.25L-124.846,137.25L-124.709,137L-124.641,137L-124.504,136.5L-124.435,136L-124.298,136L-124.23,135.75L-124.162,136.25L-124.025,136.5L-123.682,136.5L-123.477,136.5L-123.409,137L-123.135,136.25L-123.066,136.25L-122.998,136.25L-122.724,136L-122.656,135.75L-122.587,136.25L-122.519,136.5L-122.245,136.75L-122.108,136.75L-122.04,136.75L-121.834,136.75L-121.629,136.25L-121.561,135.5L-121.424,135.5L-121.287,135.5L-121.218,135.5L-121.15,135.75L-121.081,135.75L-120.945,135.75L-120.876,135.75L-120.808,135.5L-120.739,135.75L-120.671,136.5L-120.602,136.5L-120.534,136.75L-120.465,136.5L-120.26,136L-120.123,135.75L-119.852,135L-119.715,135L-119.647,135.75L-119.51,135.75L-119.305,135.75L-119.168,136L-119.031,136.25L-118.826,135.5L-118.552,135.25L-118.483,134.75L-118.346,134.5L-118.278,134.75L-118.21,135L-118.141,135.5L-117.936,135.75L-117.799,135.75L-117.73,135.5L-117.525,135.75L-117.388,135.75L-117.183,134.25L-116.978,134.25L-116.909,134.5L-116.841,134.5L-116.704,133.75L-116.635,133.5L-116.567,133.75L-116.498,133.75L-116.43,133.25L-116.362,133.75L-116.293,133.5L-116.225,134L-115.951,134L-115.882,133.5L-115.814,133.25L-115.745,132.75L-115.472,132.75L-115.403,132.75L-115.198,133.5L-115.129,133.25L-115.061,133.5L-114.993,134L-114.924,134L-114.856,134L-114.719,134.25L-114.65,134.5L-114.582,134.5L-114.513,134.5L-114.445,134.5L-114.377,134.5L-114.308,136L-113.966,136.25L-113.692,136.25L-113.624,136.5L-113.487,137.25L-113.418,137.25L-113.35,137.25L-113.281,137.25L-113.145,138L-113.076,137.75L-113.008,138.5L-112.802,138.75L-112.734,138.75L-112.597,139.25L-112.46,139.75L-112.392,140.25L-112.255,139.75L-112.186,139.5L-112.049,139.25L-111.981,139.5L-111.913,139.75L-111.844,139.75L-111.776,139.75L-111.707,139.5L-111.639,139.25L-111.57,139.5L-111.502,139.75L-111.365,139.75L-111.16,139.75L-111.091,139.5L-111.023,139L-110.954,139L-110.817,139L-110.749,139L-110.68,139.25L-110.612,139.25L-110.544,138.75L-110.338,138L-110.201,137.25L-110.064,137.25L-109.996,137.25L-109.928,136.5L-109.859,135.5L-109.791,135.5L-109.722,135.5L-109.654,134.5L-109.585,135L-109.517,134.5L-109.448,134.75L-109.38,134.5L-109.243,134.5L-109.175,134.5L-109.038,134.5L-108.969,134.75L-108.901,135L-108.764,134.25L-108.422,134L-108.353,134L-108.285,134L-108.216,134L-108.148,134.25L-108.08,133.75L-108.011,133.5L-107.943,133.5L-107.874,133.5L-107.806,133.5L-107.737,133.75L-107.669,134.25L-107.395,135L-107.327,134.5L-107.258,134L-107.19,134.75L-107.121,135.75L-107.053,135.75L-106.984,135.75L-106.916,136.5L-106.847,136.5L-106.779,136.75L-106.711,136.75L-106.642,137L-106.574,137L-106.505,135.75L-106.437,135.25L-106.368,135L-106.3,135L-106.231,135.75L-106.095,135.5L-106.026,135.5L-105.958,135.25L-105.889,135.5L-105.821,135.5L-105.752,136L-105.615,136.25L-105.547,135.75L-105.41,135.5L-105.342,135.75L-105.273,136L-105.205,136L-105.136,135.75L-104.863,136.5L-104.794,137L-104.52,137L-104.315,136.75L-104.247,136.75L-104.11,136.5L-104.041,136L-103.973,135.75L-103.696,135.75L-103.628,135.5L-103.491,135.5L-103.422,135.5L-103.217,136.5L-102.875,137L-102.738,137.25L-102.601,137.25L-102.533,137.25L-102.464,137.75L-102.396,138L-102.259,138.25L-102.053,138.25L-101.916,138.5L-101.78,138.5L-101.643,138.5L-101.506,139L-101.369,139.25L-101.164,139.25L-101.027,139L-100.958,139.25L-100.753,139L-100.684,139L-100.548,138.5L-100.479,138.5L-100.411,138.75L-100.274,138.75L-100.137,139L-99.658,139.5L-99.589,139.75L-99.521,140L-99.452,140.25L-99.384,140.25L-99.316,140L-99.11,140.25L-99.042,140L-98.631,140L-98.426,139.5L-98.357,138.75L-98.22,138.5L-98.152,138.5L-98.084,138.5L-98.015,138.5L-97.878,138.5L-97.741,138.25L-97.467,138L-97.399,137.75L-97.331,137.75L-97.194,137.75L-97.125,138L-96.988,137.5L-96.92,138L-96.783,138L-96.646,138.5L-96.578,138.5L-96.509,138.5L-96.441,138.25L-96.372,138.25L-96.304,138.5L-96.235,138.5L-96.099,138.5L-95.962,138.25L-95.893,138.5L-95.756,138.75L-95.688,138.75L-95.414,138.75L-95.346,138.25L-95.277,138.75L-95.209,139.5L-95.143,139.75L-95.075,139.5L-95.006,139.5L-94.938,139.25L-94.869,139.25L-94.801,139.5L-94.732,139.75L-94.596,140L-94.527,140L-94.459,139.75L-94.39,139.5L-94.322,139.25L-94.253,139.25L-94.116,139.25L-94.048,138.75L-93.98,138.75L-93.843,138.75L-93.774,139L-93.637,138.75L-93.5,138.5L-93.432,138.25L-93.364,137.75L-93.295,137.25L-93.227,137.25L-93.158,137.25L-93.021,137.25L-92.953,137.25L-92.884,137L-92.816,136.75L-92.748,136.5L-92.679,136.25L-92.474,136.5L-92.405,135.75L-92.268,134.75L-91.926,133.5L-91.858,133.5L-91.789,133.5L-91.652,133.25L-91.584,133L-91.516,133.25L-91.447,133L-91.242,133.5L-91.173,133L-91.105,132.25L-91.036,131.75L-90.968,131.75L-90.899,131.5L-90.694,131L-90.626,130L-90.557,129.25L-90.489,129.25L-90.42,130L-90.283,130.5L-90.215,130.5L-90.147,130.5L-90.078,130.5L-90.01,130.75L-89.941,131.5L-89.873,131.5L-89.736,131.5L-89.667,131.75L-89.599,131.5L-89.531,132.25L-89.462,133.25L-89.394,134.25L-89.325,133.5L-89.257,133.25L-89.188,133.5L-89.12,133.5L-89.051,133.5L-88.709,134L-88.641,133.25L-88.572,133.25L-88.504,134L-88.435,135L-88.299,134.75L-88.162,135L-88.093,134.5L-88.025,135.5L-87.956,136.5L-87.751,136.75L-87.683,136.75L-87.546,136.75L-87.34,136.25L-87.272,136.25L-86.724,136.25L-86.656,136.25L-86.45,136.25L-86.314,136.5L-86.177,136.75L-85.903,136.25L-85.834,136.25L-85.766,136.25L-85.698,136L-85.629,136L-85.561,136.75L-85.424,137L-85.355,137L-85.287,137.25L-85.218,137.25L-85.15,137.25L-85.082,138.25L-85.013,138.25L-84.945,138.25L-84.876,137.25L-84.739,136.5L-84.671,136.5L-84.466,137L-84.397,137.25L-84.329,136.75L-84.192,136L-84.123,136L-84.055,135.25L-83.986,135.75L-83.918,135.25L-83.85,135.25L-83.781,134.25L-83.713,133.5L-83.644,133.5L-83.576,133.5L-83.507,133.75L-83.37,133.25L-83.302,133.25L-83.234,133.75L-83.165,133.75L-83.028,133.5L-82.96,133.25L-82.891,133L-82.823,133L-82.754,132.5L-82.617,132.25L-82.549,131.5L-82.481,131.75L-82.412,131.5L-82.344,132.5L-82.275,133L-82.07,132.5L-82.001,132.75L-81.933,132.75L-81.865,133L-81.796,133.75L-81.728,133.25L-81.659,133.75L-81.591,133.75L-81.454,134.25L-81.385,134L-81.317,135L-81.249,135.5L-80.633,135.25L-80.564,135L-80.496,135.25L-80.427,135.75L-80.29,135.75L-80.085,135.75L-80.017,136L-79.948,136.25L-79.811,136.5L-79.743,136.75L-79.606,136.75L-79.537,137L-79.469,137.25L-79.401,138L-78.99,138L-78.645,138.25L-78.576,138.25L-78.439,138.75L-78.097,139.25L-78.029,139L-77.96,139L-77.823,139.25L-77.618,139L-77.55,139L-77.481,139.5L-77.139,139.5L-77.07,139.5L-76.865,139.75L-76.797,139.5L-76.66,139.5L-76.591,139.75L-76.386,140L-76.249,140L-76.181,140L-76.112,140L-76.044,140L-75.975,140L-75.838,140L-75.565,139.75L-75.222,139.75L-75.086,139.75L-74.88,139.75L-74.743,139.5L-74.538,139.5L-74.47,139.5L-74.401,139.25L-74.333,139.25L-74.196,139L-74.127,139L-73.854,139.25L-73.785,139.25L-73.717,139.25L-73.648,139.25L-73.374,139.75L-73.169,139.75L-73.101,139.75L-73.032,139.25L-72.895,139.25L-72.827,139.5L-72.758,139.75L-72.621,139.75L-72.553,139.75L-72.416,139.25L-72.348,139.5L-72.211,139.25L-72.005,138.75L-71.937,138L-71.869,138L-71.8,138.25L-71.732,138.25L-71.663,138L-71.458,138.25L-71.389,138.25L-71.321,138.25L-71.253,138.25L-71.116,137.75L-70.979,137.5L-70.842,137.5L-70.773,137L-70.568,137.25L-70.431,137.25L-70.363,137L-70.294,137.25L-69.955,136.5L-69.886,136.5L-69.818,136.25L-69.681,136.75L-69.407,136.75L-69.339,136.25L-68.997,136.25L-68.928,136.25L-68.86,136.25L-68.791,136.75L-68.723,136.5L-68.518,136.5L-68.449,136.75L-68.381,137.5L-68.312,137.25L-68.244,137.25L-68.175,137.25L-68.107,137.5L-68.038,137.25L-67.491,137L-67.217,135.5L-67.149,135.75L-67.08,136.5L-67.012,136.75L-66.943,136.75L-66.806,136.25L-66.738,134.75L-66.67,134.25L-66.601,134.25L-66.533,134.25L-66.396,134.75L-66.327,133.75L-66.19,133.5L-66.122,133.5L-66.054,133.25L-65.985,133.75L-65.848,133.5L-65.78,133L-65.711,132.5L-65.574,132.5L-65.506,132.75L-65.437,133L-65.369,133.25L-65.301,133.25L-65.232,133.25L-65.027,133L-64.821,133L-64.753,132.75L-64.685,132.75L-64.616,133L-64.548,134.5L-64.411,134.25L-64.342,133.5L-64.274,133.5L-64.137,133.5L-64.069,134.5L-64,136L-63.863,136L-63.795,136L-63.726,136L-63.658,136L-63.589,137L-63.453,136.75L-63.384,136.5L-63.316,136.75L-63.247,136.75L-63.179,136.75L-63.11,137.25L-63.042,137.25L-62.768,137.25L-62.7,137L-62.631,135.75L-62.426,134.5L-62.357,134.25L-62.289,134.25L-62.084,134L-62.015,134L-61.947,133.5L-61.878,133.5L-61.81,133.5L-61.741,133.25L-61.673,131.75L-61.536,131.75L-61.468,129L-61.399,129.25L-61.262,129L-61.194,128.75L-61.125,128.5L-60.92,128.25L-60.715,128.25L-60.372,127.75L-60.304,127.25L-60.236,127.75L-60.167,127.75L-60.099,127.75L-59.962,127.75L-59.893,127.5L-59.756,127.25L-59.551,127.25L-59.483,127L-59.414,126.75L-59.346,128L-59.277,129.25L-59.209,129.5L-59.14,129.75L-58.935,129.75L-58.867,129.5L-58.798,130L-58.661,129.75L-58.524,130L-58.456,130L-58.388,131.25L-58.319,132L-58.251,134.75L-58.182,134.5L-57.977,134.25L-57.908,133.5L-57.84,133.5L-57.635,133.75L-57.498,133.5L-57.429,133.75L-57.361,134.25L-57.292,134.5L-57.019,134.75L-56.95,134.75L-56.882,134.75L-56.608,135L-56.539,135.25L-56.471,135.75L-56.403,136L-56.334,136.25L-56.266,136L-56.197,135.75L-56.06,135.25L-55.992,135.25L-55.923,135.75L-55.855,136L-55.787,136L-55.581,136.5L-55.513,136.5L-55.444,136.75L-55.376,137L-55.307,137L-55.239,136.75L-55.171,137L-55.102,136.75L-55.034,137.75L-54.965,138.5L-54.897,138.5L-54.623,138.5L-54.555,139L-54.486,138.75L-54.418,138.5L-54.349,138.5L-54.212,138.5L-54.144,138.25L-54.075,138.5L-54.007,138.5L-53.867,138.25L-53.73,137.5L-53.662,137.75L-53.593,138L-53.525,138.25L-53.388,138.75L-53.32,138.75L-53.183,138.75L-53.114,138.75L-53.046,139L-52.977,138.75L-52.909,138.75L-52.841,138.75L-52.772,138.5L-52.704,138.25L-52.635,137.75L-52.567,137.75L-52.361,138.5L-52.293,138.25L-52.156,138.25L-52.088,138.25L-51.951,138.5L-51.882,138.25L-51.54,138.25L-51.472,138.5L-51.198,138.5L-51.129,138L-50.992,138L-50.787,137.75L-50.719,137.5L-50.65,137.5L-50.445,138.25L-50.24,138.25L-50.103,137.25L-49.966,136.5L-49.897,136.25L-49.76,136.25L-49.555,135.75L-49.281,135.25L-49.213,135.25L-49.144,135.5L-48.939,135.5L-48.871,135.25L-48.802,135.5L-48.734,135.5L-48.597,136.25L-48.323,136L-48.049,136L-47.981,135.5L-47.844,135.5L-47.639,135.75L-47.502,135.75L-47.365,136L-47.296,135.75L-47.228,135.25L-47.091,135.25L-46.886,135.75L-46.749,136L-46.68,136L-46.612,135.5L-46.543,135.75L-46.475,135.25L-46.407,135.25L-46.338,136L-46.133,136.75L-46.064,136.25L-45.996,135.5L-45.859,136L-45.722,136.5L-45.517,136.5L-45.448,136L-45.38,135.5L-45.314,135.75L-45.246,136L-45.04,135L-44.904,134.75L-44.835,134.75L-44.767,134.75L-44.561,135.25L-44.493,135L-44.424,134L-44.151,134L-44.082,133.75L-44.014,133.75L-43.945,133.5L-43.877,133L-43.808,132.5L-43.672,132.5L-43.603,132.75L-43.535,132.75L-43.466,131.75L-43.329,131.75L-43.192,131.25L-43.124,131L-43.056,130L-42.987,130L-42.919,129.75L-42.782,129.5L-42.713,129.25L-42.576,128.75L-42.508,127.75L-42.303,127.5L-42.234,127.5L-42.097,126.5L-42.029,127.25L-41.96,127.5L-41.892,127L-41.755,126.5L-41.687,126.75L-41.618,126.5L-41.481,127.5L-41.413,126.75L-41.344,126.5L-41.208,127L-41.139,127.75L-41.071,128L-41.002,128.25L-40.728,127.25L-40.66,125.75L-40.591,126L-40.455,126.5L-40.318,127L-40.249,127L-40.181,127.25L-40.112,127.75L-40.044,128.5L-39.975,129.5L-39.839,129.75L-39.77,130L-39.633,130.25L-39.565,131.5L-39.496,132L-39.428,132L-39.359,133L-39.291,133.25L-39.223,132.5L-39.154,133L-39.086,132.75L-39.017,132.5L-38.88,132.75L-38.743,132L-38.675,132.75L-38.607,131.25L-38.538,131.25L-38.401,130.5L-38.333,130.75L-38.264,131L-38.196,132L-38.127,131.5L-38.059,131.75L-37.991,132L-37.854,131.5L-37.785,132L-37.717,132L-37.648,131.75L-37.511,131.25L-37.443,131.25L-37.375,131L-37.306,130.25L-37.238,128.25L-37.169,126L-37.101,126.25L-37.032,125.5L-36.964,125.25L-36.895,125.25L-36.827,124.5L-36.758,123.5L-36.622,122.25L-36.553,121.75L-36.485,122L-36.416,120.5L-36.348,119.75L-36.279,119L-36.211,118.75L-36.142,119.5L-36.006,119.25L-35.937,118.5L-35.869,117L-35.8,118L-35.732,118.25L-35.663,118.25L-35.595,118.75L-35.526,118.75L-35.39,118.5L-35.321,118.25L-35.116,118.5L-35.047,118.25L-34.979,118.5L-34.91,119L-34.842,120.75L-34.774,122.75L-34.637,122L-34.568,122.75L-34.5,123L-34.431,122.75L-34.363,123.5L-34.294,124.25L-34.158,125.5L-34.089,125.75L-34.021,125.5L-33.952,126L-33.884,124.75L-33.815,127.25L-33.61,127L-33.542,127L-33.473,127L-33.405,127.5L-33.336,129L-33.268,129.25L-33.199,128.75L-33.131,128.5L-33.062,127.75L-32.994,127.75L-32.926,127.75L-32.857,128.5L-32.72,128L-32.652,127.75L-32.583,127.5L-32.515,127.75L-32.446,127.5L-32.378,127.25L-32.309,127L-32.173,126.75L-32.104,126.25L-32.036,126.5L-31.967,127.25L-31.83,127.75L-31.762,128.25L-31.693,128.25L-31.625,128.5L-31.557,130L-31.488,131.75L-31.42,131.75L-31.351,131.25L-31.283,131.25L-31.214,131.5L-31.146,131.75L-31.077,131.25L-31.009,132L-30.941,131.75L-30.872,131.25L-30.735,131.75L-30.667,131.75L-30.598,131L-30.53,131L-30.461,131.25L-30.393,131.75L-30.325,132L-30.256,132L-30.188,132.75L-30.119,132.75L-30.051,133.25L-29.982,133.25L-29.914,133.5L-29.845,133.75L-29.709,133.25L-29.64,133.25L-29.572,133.25L-29.503,133.75L-29.435,133L-29.366,133.25L-29.298,133.25L-29.229,133L-29.093,133.5L-29.021,133.5L-28.816,133.5L-28.747,133.5L-28.679,133.75L-28.611,133.5L-28.542,134.25L-28.474,135.25L-28.337,135.25L-28.268,135.25L-28.2,136.25L-28.131,136.5L-28.063,136.25L-27.995,136L-27.926,136L-27.858,135.75L-27.721,135.5L-27.652,135.75L-27.584,136.25L-27.447,136.25L-27.31,136.5L-27.242,136.5L-27.105,136.75L-27.036,136.75L-26.762,137L-26.694,136.75L-26.626,137.25L-26.42,137.25L-26.352,137.5L-26.283,138L-26.078,138.25L-26.01,137.75L-25.873,137.25L-25.804,136.75L-25.736,136L-25.667,136L-25.599,136L-25.53,135.75L-25.462,136L-25.394,135.75L-25.325,135.75L-25.257,135.75L-25.188,136.5L-25.12,136.75L-25.051,136.75L-24.983,137L-24.914,136.75L-24.778,137.25L-24.709,137.25L-24.504,137.25L-24.435,137.25L-24.298,136.75L-24.093,137L-23.956,136.75L-23.888,136.5L-23.819,136.25L-23.682,136.25L-23.614,136.25L-23.546,135.75L-23.477,135.75L-23.34,135.75L-23.272,136L-22.998,136.5L-22.93,136.5L-22.861,137.5L-22.793,137.75L-22.656,137.75L-22.587,137.25L-22.519,137.25L-22.45,137.25L-22.382,137L-22.313,137L-22.245,136.75L-22.177,136L-22.108,135.5L-21.971,134.75L-21.903,135.25L-21.834,135L-21.766,134.5L-21.697,134.5L-21.561,134.5L-21.492,134.75L-21.424,134.5L-21.355,133.5L-21.15,133L-21.081,132.75L-21.013,131.25L-20.945,131L-20.876,131.25L-20.808,131.25L-20.739,130.75L-20.602,130L-20.534,129L-20.465,129L-20.4,129L-20.331,128.75L-20.195,128.75L-20.126,127.75L-20.058,126L-19.921,125.25L-19.852,125.25L-19.715,124.5L-19.647,124.5L-19.578,124.5L-19.51,124.25L-19.442,123.5L-19.373,122.5L-19.305,122.75L-19.236,123L-19.099,122.75L-19.031,122.25L-18.826,121.5L-18.757,121.75L-18.689,122.5L-18.62,122.5L-18.552,122.5L-18.483,124.25L-18.415,124L-18.278,123.25L-18.21,122L-18.141,122.25L-18.073,123L-18.004,124L-17.936,124L-17.867,123L-17.799,122.75L-17.73,121.25L-17.662,122.25L-17.594,123.5L-17.525,124.5L-17.457,123.5L-17.388,122.75L-17.32,122.75L-17.251,122.25L-17.183,120.75L-17.114,119.75L-17.046,120L-16.978,119.5L-16.909,118.25L-16.841,117.5L-16.772,117L-16.704,117.5L-16.635,117.5L-16.567,118L-16.498,118.5L-16.43,119L-16.362,117L-16.293,116.25L-16.225,116.5L-16.156,117L-16.088,116.75L-16.019,116.5L-15.951,114.25L-15.882,114L-15.814,114.25L-15.745,113.75L-15.677,115.25L-15.609,115.75L-15.54,115L-15.472,113L-15.403,113L-15.335,114.5L-15.266,114.75L-15.198,115L-15.129,116.25L-15.061,117.25L-14.993,116.25L-14.924,114L-14.856,113.75L-14.787,113.75L-14.719,114L-14.65,114.5L-14.582,114L-14.445,113.25L-14.377,113L-14.308,113.25L-14.24,115.25L-14.171,116.25L-14.103,116.5L-14.034,116.5L-13.966,116.75L-13.897,115.75L-13.829,116.5L-13.761,116.25L-13.624,116.75L-13.555,117.25L-13.487,117.25L-13.418,116.75L-13.35,118L-13.281,120L-13.213,121.25L-13.145,120.75L-13.076,120.5L-13.008,121L-12.939,121.75L-12.871,122.75L-12.802,124.25L-12.734,127L-12.665,127.25L-12.597,127.75L-12.529,128.25L-12.46,128.25L-12.392,128.5L-12.323,128.5L-12.255,128.25L-12.186,127.75L-12.118,127.5L-12.049,127.75L-11.981,128.25L-11.913,128.75L-11.844,129.25L-11.776,129.5L-11.707,130.5L-11.639,130.75L-11.57,131L-11.502,131.5L-11.433,131.5L-11.365,131.75L-11.296,131L-11.16,130.75L-11.091,129.75L-11.023,130L-10.954,129.75L-10.886,129L-10.817,129L-10.68,128.5L-10.612,128.75L-10.544,128.75L-10.475,130L-10.407,130.75L-10.27,131L-10.201,130L-10.133,129.5L-10.064,129.25L-9.996,129.75L-9.928,130.25L-9.859,129.25L-9.791,128.5L-9.722,127.25L-9.654,127.25L-9.585,126.75L-9.517,128L-9.448,127.5L-9.38,127L-9.312,125.75L-9.175,123.5L-9.106,123.5L-9.038,123.75L-8.969,123.5L-8.901,122.75L-8.832,123.5L-8.696,123.5L-8.627,122.5L-8.559,123.25L-8.49,122.75L-8.422,123.75L-8.353,123.5L-8.285,122.75L-8.216,122L-8.148,122L-8.08,121.5L-8.011,121.5L-7.943,121.5L-7.874,121.25L-7.806,119L-7.669,118.75L-7.6,120L-7.532,120L-7.463,121.25L-7.395,121.25L-7.327,121.5L-7.258,120.5L-7.19,121.5L-7.121,122L-7.053,123L-6.984,125L-6.916,124.5L-6.847,124.5L-6.779,124.25L-6.711,125L-6.642,125.5L-6.574,125.25L-6.505,126.5L-6.437,126.5L-6.231,126.25L-6.163,125.5L-6.095,125.25L-6.026,126L-5.958,126.5L-5.889,126L-5.821,125.5L-5.752,125.75L-5.684,126.25L-5.615,127.25L-5.547,129.75L-5.479,129.25L-5.41,128.5L-5.342,128.5L-5.273,128.25L-5.205,128.5L-5.136,128.5L-5.068,128.25L-4.999,128L-4.931,128.5L-4.863,128.25L-4.794,128.5L-4.726,128L-4.657,128L-4.589,128.75L-4.52,127.25L-4.452,127L-4.383,127.5L-4.315,127L-4.247,127.5L-4.178,128L-4.107,127.75L-4.038,127.75L-3.97,126.75L-3.901,127L-3.833,127L-3.765,127.5L-3.696,127.5L-3.628,127.75L-3.491,126.25L-3.422,126L-3.354,126.75L-3.285,127.5L-3.217,127.75L-3.149,127.75L-2.943,127.5L-2.875,127.75L-2.806,128.75L-2.738,128.5L-2.669,128.5L-2.601,129L-2.533,128.25L-2.464,128.25L-2.396,128L-2.327,128.5L-2.19,130.25L-2.122,130L-2.053,129.5L-1.985,130.25L-1.916,130.25L-1.848,130.5L-1.78,129.25L-1.711,129.25L-1.643,130.25L-1.574,130.5L-1.506,130.75L-1.437,130L-1.369,130.75L-1.3,130.75L-1.232,132.25L-1.164,132L-1.095,132L-1.027,131.5L-0.958,132L-0.89,132.25L-0.821,132.25L-0.684,132L-0.616,132.25L-0.548,132L-0.479,132L-0.411,132L-0.342,132.5L-0.274,133.25L-0.137,133.25L-0.068,133.25L0,133L0.068,133.5L0.137,133.75L0.342,133.75L0.548,133L0.616,132.75L0.821,135L0.89,135.25L0.958,135.25L1.027,135.25L1.095,134L1.164,134.75L1.3,134.75L1.369,134.75L1.437,134.75L1.711,135L1.78,134L1.848,134.5L1.916,134L1.985,133.75L2.053,133.25L2.122,133.5L2.19,133.5L2.259,133.75L2.327,132.5L2.396,132.5L2.464,132.75L2.533,133L2.806,132.75L2.943,131.75L3.08,131.5L3.285,131.5L3.354,131.75L3.422,131L3.491,131L3.559,130.5L3.628,128.25L3.765,128.25L3.833,128.25L3.901,128.25L3.97,129.75L4.038,130L4.175,128.5L4.244,126.75L4.312,126.75L4.381,127L4.449,128L4.517,127.5L4.586,127.25L4.654,126.5L4.723,127.25L4.791,127.25L4.86,127L4.928,127.5L5.062,125.5L5.131,122.75L5.199,122L5.268,121L5.336,120.75L5.404,121L5.473,121.25L5.541,119L5.61,117.5L5.678,117L5.747,117L5.815,117L5.884,118.75L5.952,117.75L6.02,117L6.089,116.5L6.157,116L6.226,115.25L6.294,116.75L6.363,117L6.431,116.75L6.5,116.75L6.636,116.5L6.705,116.5L6.773,116.75L6.842,117.5L6.91,115.75L7.047,115.25L7.184,115.25L7.252,115.25L7.321,116.75L7.389,116.75L7.458,116L7.526,114.75L7.595,115L7.663,115.75L7.732,115.75L7.8,117.5L7.868,116.75L8.005,117.25L8.074,116.25L8.211,117L8.279,117.25L8.348,118L8.416,118.5L8.484,116.5L8.553,116.5L8.621,116.5L8.69,115.75L8.758,117L8.827,116.75L8.895,116L8.964,113.5L9.032,112.75L9.169,111.25L9.237,111L9.306,111.75L9.374,111.5L9.443,111L9.511,110.5L9.58,109L9.648,109.25L9.717,110.25L9.785,112.5L9.853,112.5L9.922,111L9.99,109.75L10.059,108.25L10.127,108.75L10.196,109L10.264,110.25L10.333,110L10.401,109.5L10.469,109.5L10.538,109.5L10.606,112L10.675,112.25L10.743,113L10.812,113.25L10.88,112.75L10.949,113.25L11.017,113.75L11.085,116.5L11.154,117.75L11.222,119.5L11.291,119.75L11.359,120.5L11.428,118.75L11.496,119.25L11.565,119.25L11.633,122.75L11.701,125.25L11.77,125L11.838,125L11.907,125.25L11.975,126.75L12.044,128.25L12.112,130.25L12.317,131.5L12.386,132L12.454,132.5L12.523,132.5L12.591,133L12.66,133.25L12.728,133.5L12.797,132.5L12.865,131.5L12.933,131.5L13.002,132L13.07,132.75L13.139,132.5L13.207,132.75L13.276,131.75L13.344,131.25L13.413,131.5L13.481,131.75L13.55,132L13.618,134.25L13.755,133.5L13.892,132.75L13.96,132.75L14.029,132.5L14.097,132.75L14.166,132.5L14.234,132.25L14.302,131L14.371,130.25L14.439,130L14.508,130.25L14.576,130L14.645,130L14.713,129.25L14.782,128L14.85,128L14.918,126.5L14.987,126.75L15.124,127L15.192,127.25L15.261,126.25L15.329,124.25L15.398,123.75L15.466,123.25L15.534,124L15.603,123.5L15.671,123.25L15.74,120.25L15.808,118.5L15.877,118.75L15.945,118.75L16.014,119L16.082,118.75L16.15,118.25L16.219,118L16.287,114.75L16.356,114.5L16.424,115.5L16.493,115.5L16.561,115.25L16.63,114.5L16.698,112.5L16.766,112.25L16.835,113L16.903,113L16.972,111L17.04,111.75L17.109,111L17.177,111.25L17.246,111L17.314,111.25L17.383,112.5L17.451,110.75L17.519,110.5L17.656,110.25L17.725,111.25L17.793,111.5L17.862,113.25L17.93,114.75L17.999,113L18.067,113L18.135,114L18.204,113.75L18.272,114.5L18.341,115.25L18.409,118.25L18.546,117.75L18.615,116.5L18.683,116.5L18.751,116.5L18.82,117L18.888,119L19.025,119L19.094,118.5L19.162,119.75L19.231,121.75L19.299,122.5L19.367,123.75L19.436,124L19.504,123.75L19.641,124.25L19.71,124.5L19.778,127L19.847,126.5L19.915,124.5L19.983,123L20.052,122.5L20.12,123.25L20.189,123L20.257,124.75L20.326,125L20.394,124.5L20.463,123.25L20.531,123.25L20.599,123L20.668,123.5L20.736,124.75L20.805,125.5L20.873,125.5L20.942,125.5L21.01,125.75L21.079,125.75L21.147,125.75L21.215,125.75L21.287,125.75L21.355,126L21.492,125.25L21.561,125.5L21.629,125.25L21.697,125.75L21.834,125.75L21.903,125L21.971,125.25L22.04,126.5L22.108,129L22.177,129.75L22.313,129.75L22.382,129.75L22.45,129.5L22.519,129L22.587,129.75L22.656,130L22.724,131.5L22.793,131.5L22.861,131.25L22.93,130.5L22.998,130.75L23.066,131.5L23.135,131.75L23.34,132.25L23.409,131.5L23.477,131.75L23.546,132L23.682,133L23.819,132.5L23.956,132L24.025,132.5L24.093,131.75L24.298,131.75L24.435,131.75L24.504,130.25L24.572,131.25L24.641,130.75L24.709,130.5L24.778,130.25L24.846,131L24.914,131.25L24.983,131.75L25.051,132.25L25.12,132.5L25.257,132.5L25.325,131.5L25.462,131.75L25.53,131.5L25.599,132L25.667,132.75L25.736,131.5L25.804,130.5L25.873,130L26.01,129.25L26.078,130.25L26.146,130.25L26.215,129.75L26.283,129L26.352,129.5L26.42,130L26.489,130.25L26.557,130.75L26.762,131.25L26.831,131.25L26.899,132.75L26.968,132.75L27.036,133.25L27.105,132.5L27.242,131.5L27.379,131.25L27.447,131.5L27.652,131.25L27.721,130.75L27.789,130.75L27.858,130.25L27.926,130.75L27.995,130.25L28.2,130.5L28.268,130.5L28.337,130.5L28.405,131.5L28.474,132L28.611,132.25L28.679,133L28.747,132.75L28.816,132.5L28.884,132.5L28.953,133.25L29.021,132.5L29.09,132.5L29.158,132L29.227,131.25L29.295,131L29.363,131L29.5,130.5L29.637,128.5L29.774,128.25L29.843,129L29.908,130L30.114,129L30.182,128.75L30.25,127.75L30.319,127.75L30.387,127L30.73,127.25L30.866,126.75L30.935,127L31.003,126L31.072,125.5L31.209,124.75L31.277,123.5L31.346,123.25L31.414,123L31.482,121.5L31.551,121L31.619,120.75L31.688,120.75L31.756,120L31.825,121L31.893,120.75L31.962,120.75L32.03,120.5L32.098,119.5L32.167,118.25L32.235,117.5L32.304,119.25L32.372,119L32.441,117.5L32.578,117.75L32.646,118.75L32.714,118L32.783,118.75L32.92,118.75L32.988,118L33.057,116.5L33.125,116.75L33.194,115.75L33.262,116L33.33,116.25L33.399,116.75L33.467,116.75L33.536,116.25L33.604,116.5L33.673,118L33.741,118.25L33.81,117.25L33.878,115.5L33.946,115L34.015,113.75L34.083,113.75L34.152,113.5L34.289,114.75L34.357,116.25L34.426,117.25L34.494,117.5L34.563,115.75L34.631,116L34.699,117.5L34.768,116.75L34.836,116.25L34.905,117L34.973,116.75L35.042,114.75L35.11,115.5L35.179,116.25L35.247,117L35.315,117.5L35.384,118.25L35.452,118.25L35.521,117L35.589,118.5L35.658,119.5L35.726,120L35.795,119.75L35.863,118.5L35.931,119.25L36,120.75L36.068,121.5L36.137,122.25L36.205,122.25L36.274,122.5L36.342,122.25L36.411,122.25L36.479,121.5L36.547,122.5L36.616,124L36.684,124.25L36.753,124.25L36.821,124L36.89,123.5L36.958,123.25L37.027,121.75L37.095,123.5L37.163,124L37.232,124.25L37.3,123L37.369,121.75L37.437,121.5L37.506,121.75L37.574,121.75L37.711,121L37.779,120.25L37.848,119.5L37.916,119.25L37.985,121L38.053,120.75L38.122,120.5L38.19,120.25L38.259,120L38.327,119L38.396,117.75L38.464,117.25L38.532,116.75L38.601,117.25L38.669,116.75L38.738,117L38.806,115.75L38.875,115.5L38.943,116L39.012,116.75L39.08,116.75L39.148,118.25L39.217,118.25L39.285,118.5L39.354,117.5L39.422,118.25L39.491,119.25L39.559,119.25L39.628,119L39.696,120L39.764,119L39.833,119.25L39.901,119.5L39.97,120L40.038,120L40.107,120.25L40.175,121L40.244,119.75L40.312,120.25L40.38,121L40.449,121.5L40.517,122.25L40.586,121.75L40.654,121.5L40.723,120.75L40.791,121L40.86,122.25L40.928,122.5L40.996,122L41.065,121.5L41.133,121L41.202,121L41.27,121.75L41.339,122L41.407,123.5L41.476,123.25L41.544,124.25L41.612,122.75L41.681,122L41.749,121.25L41.818,123L41.886,123.5L41.955,123.75L42.023,122.5L42.092,121.25L42.16,122L42.228,121.75L42.297,123.5L42.365,123L42.434,121.75L42.502,121.75L42.571,121.25L42.639,121.75L42.708,122.5L42.776,123.5L42.913,122L42.981,119.75L43.05,119.5L43.118,119.5L43.187,120.5L43.255,121.25L43.324,121.75L43.392,120.5L43.461,120L43.529,119.5L43.597,119.75L43.666,119.25L43.734,121L43.803,122L43.871,123L44.008,122.25L44.077,122L44.145,122.5L44.213,123.5L44.282,124L44.35,123.25L44.419,123L44.556,123.25L44.624,124L44.693,125.5L44.761,126.75L44.829,127.25L44.898,127.5L44.966,127.5L45.035,127.75L45.103,129.25L45.172,130.75L45.24,131L45.309,132L45.377,132L45.445,132L45.514,131.25L45.582,132L45.651,131.5L45.788,132L45.856,132.75L45.925,133.25L45.993,133.25L46.061,133L46.13,133L46.201,133.5L46.27,133.75L46.407,133.75L46.475,134L46.543,133.75L46.612,134L46.68,134.5L46.749,134.5L46.886,134.5L47.023,133.25L47.091,133.25L47.296,133.25L47.365,133.5L47.433,133.5L47.502,133.25L47.57,133.25L47.639,133.75L47.707,134L47.775,134L47.844,133.5L47.912,133.25L47.981,134.25L48.049,134.75L48.118,135.75L48.186,135.75L48.255,134.75L48.392,134.5L48.46,134.5L48.528,133.25L48.597,131.5L48.802,131.75L48.871,131.75L48.939,131.5L49.008,130.25L49.076,130.25L49.144,130.25L49.213,130.25L49.281,130.25L49.418,130.25L49.487,131.75L49.76,131.25L49.829,131L49.897,130.5L49.966,130.25L50.034,130.75L50.103,130.75L50.171,130.75L50.308,130.5L50.376,128.5L50.65,128.25L50.719,127.25L50.787,127L50.924,126.25L50.992,125.75L51.061,124.75L51.129,125.5L51.266,125.75L51.335,125.25L51.403,125.75L51.472,127.75L51.608,127.5L51.677,127L51.745,127.25L51.814,128.25L51.882,129L51.951,129.5L52.019,129.25L52.088,128.75L52.156,128.75L52.225,128.75L52.293,129.25L52.361,129.25L52.43,129.75L52.498,129.5L52.567,128.5L52.635,128.5L52.704,128.75L52.772,128.5L52.841,130L52.909,129.75L52.977,131.25L53.046,131.5L53.183,131.75L53.251,130.75L53.32,130L53.388,130L53.457,130L53.525,130.25L53.662,130.5L53.73,129.25L53.799,128L53.936,128.5L54.004,128.5L54.073,128.5L54.141,127.5L54.209,126.75L54.278,127.25L54.346,127.25L54.415,126.75L54.483,126.5L54.552,125.75L54.62,124.5L54.689,124L54.757,124.5L54.891,125L54.96,125.25L55.028,125.25L55.096,125.25L55.233,124L55.302,124.5L55.37,124.25L55.576,123.75L55.644,122.5L55.712,122L55.781,123.5L55.918,123.5L55.986,122.75L56.055,121.25L56.123,120.5L56.192,119L56.26,119.25L56.328,118.75L56.534,118.5L56.602,118L56.671,118.75L56.739,118.25L56.808,116.75L56.876,116.75L56.944,117.25L57.013,117.25L57.081,118L57.15,118.5L57.287,117.5L57.355,116.75L57.424,115.25L57.492,113.75L57.56,113.75L57.629,112.5L57.697,114.25L57.903,112.75L57.971,111.75L58.04,111L58.108,111.75L58.176,112.5L58.245,112.25L58.313,112.25L58.382,111.75L58.45,112.25L58.519,113.25L58.587,115.5L58.656,115.75L58.724,115.5L58.792,115L58.861,114.25L58.929,112L58.998,111.75L59.066,112.75L59.135,112.75L59.203,112.75L59.272,113L59.34,111L59.409,110.25L59.477,109.25L59.545,110L59.614,111L59.682,112L59.751,111.75L59.819,113.5L59.888,113L59.956,113.25L60.025,113.75L60.093,115L60.161,116.25L60.23,116.5L60.298,117L60.367,117.25L60.435,118.5L60.504,119.75L60.572,119.75L60.641,118.75L60.709,119.5L60.777,119.5L60.846,119.75L60.914,121.25L60.983,124L61.051,125.5L61.12,125L61.188,125.5L61.257,125.25L61.325,125L61.393,126.5L61.462,127.5L61.53,129L61.599,127.75L61.667,128.5L61.736,128.75L61.804,128.75L61.873,128.5L61.941,128.75L62.078,129.75L62.215,129.25L62.283,129L62.352,129L62.42,129.5L62.489,128.5L62.557,128L62.694,128L62.762,128L62.831,128.5L62.899,130L62.968,129.75L63.036,130.5L63.105,131L63.173,130L63.242,128L63.31,127.5L63.378,128L63.447,126.75L63.515,126.75L63.584,127L63.652,127.5L63.721,128L63.789,128.25L63.858,128.25L63.994,128.25L64.131,128.5L64.2,128.25L64.268,128.5L64.337,127.75L64.405,128L64.474,128.25L64.61,128L64.679,127.75L64.747,128L64.816,128.75L64.884,127.75L64.953,127.25L65.09,126.5L65.158,126.5L65.226,126.25L65.295,126.5L65.363,126.5L65.5,125.5L65.569,124.75L65.637,126.25L65.706,126.75L65.774,127L65.842,127.75L65.911,126.5L66.048,126L66.116,122.5L66.185,121L66.253,121.75L66.322,122.5L66.39,122.75L66.458,122.75L66.527,122.5L66.595,120.5L66.664,120.25L66.732,120.5L66.801,121.5L66.869,121.25L66.938,120L67.006,120.25L67.074,118.5L67.143,119.5L67.211,119.5L67.28,120.25L67.348,119.25L67.417,118L67.485,116.75L67.554,115.75L67.622,116.25L67.691,117.25L67.759,117.75L67.827,117L67.896,116.5L67.964,116.25L68.033,117.5L68.101,117.75L68.17,120.5L68.238,122L68.307,121.75L68.375,122.25L68.443,121.25L68.512,121.25L68.58,120.5L68.649,121.25L68.717,121.25L68.786,121L68.854,120L68.991,120.5L69.059,122L69.128,121.5L69.265,123.25L69.333,123.75L69.402,123.75L69.47,123.75L69.539,124.25L69.607,125.75L69.675,127L69.744,128.25L69.812,127L69.881,127L69.949,126.5L70.018,127.25L70.086,128L70.155,128.75L70.223,128.75L70.291,129L70.36,129.75L70.428,130L70.497,130L70.565,130L70.634,131L70.771,130.5L70.839,131.75L70.907,133L70.976,133.75L71.044,133.75L71.116,134.75L71.184,134.75L71.253,134.75L71.389,135.25L71.458,135.75L71.526,135L71.595,135.25L71.663,135L71.732,135.5L71.8,135L71.869,134.75L71.937,134L72.005,135.5L72.074,135L72.142,135.5L72.279,135.25L72.348,135L72.416,135L72.485,135L72.553,133.75L72.621,133.25L72.69,133L72.758,132.25L72.827,132.25L72.895,131.75L72.964,132L73.032,132.25L73.238,132.25L73.374,132.25L73.443,132.25L73.511,132.25L73.648,132.5L73.717,132.5L73.785,132.5L73.854,132L73.922,132.5L73.99,132.75L74.059,133L74.127,132.5L74.196,132.75L74.264,133.25L74.333,133.5L74.401,133L74.538,133.75L74.606,133.75L74.675,134L74.743,134L74.812,134L74.88,134L75.086,134.75L75.222,135L75.291,135.25L75.359,136L75.428,135.75L75.496,136L75.633,135.75L75.702,135L75.77,135L75.838,135.25L75.975,135.75L76.044,135.75L76.112,135L76.181,134.5L76.318,134L76.386,134L76.454,133.75L76.523,133.25L76.66,131.25L76.797,131.75L77.002,132L77.139,131.5L77.207,132L77.276,132.5L77.344,133L77.413,132.25L77.481,131.75L77.55,131.5L77.618,130.5L77.687,130.75L77.755,131.25L77.823,131L77.892,130.75L78.029,131L78.097,130.75L78.166,130.25L78.234,130.25L78.303,130.5L78.371,130.5L78.508,130L78.576,129.75L78.645,128L78.713,127.5L78.782,128L78.85,127.75L79.055,127.25L79.124,127L79.192,124L79.261,124.5L79.329,124.25L79.398,123.75L79.466,124L79.535,123.75L79.603,124L79.737,122L79.805,121.5L79.874,122L80.011,122.5L80.079,123L80.148,121.5L80.216,119.5L80.285,119.5L80.353,119.5L80.422,118.5L80.558,117.75L80.627,118.25L80.695,118.5L80.832,117.5L80.901,116.5L80.969,116.75L81.038,117L81.106,118.25L81.174,117.25L81.311,115.25L81.38,115.75L81.448,116.25L81.517,117L81.585,120.5L81.654,119L81.722,116.5L81.79,116.75L81.859,115.25L81.927,112.5L81.996,109.75L82.064,108.75L82.201,108.5L82.27,107.5L82.338,107.25L82.406,106.5L82.475,107.5L82.543,106L82.612,105L82.68,103.75L82.749,102.25L82.817,103L82.886,103.25L82.954,103.25L83.022,101L83.159,100L83.228,97.75L83.296,96L83.365,96L83.433,97.25L83.502,97L83.638,93.5L83.707,91.5L83.775,90.25L83.844,90L83.912,91.75L83.981,94.25L84.186,93.25L84.255,93.25L84.323,92.5L84.391,93.25L84.46,95.75L84.528,97.25L84.597,98.25L84.665,98.25L84.734,97.25L84.802,94.75L84.871,96L84.939,97L85.007,98L85.076,100.5L85.144,99L85.213,98L85.281,97.75L85.35,100.5L85.418,101L85.487,103.25L85.555,104.75L85.623,105.25L85.692,105.75L85.76,107.75L85.829,111.25L85.897,113.75L85.966,115L86.034,115L86.103,115.5L86.171,115L86.239,115L86.308,116.75L86.376,120.5L86.445,122L86.513,121.75L86.582,121.25L86.65,121.25L86.719,121.5L86.787,123.75L86.855,126.5L86.924,128.75L86.992,128.5L87.061,129L87.129,128.75L87.198,130.75L87.266,131.75L87.335,131.75L87.471,132.25L87.54,133.75L87.608,133.75L87.677,132.5L87.745,131L87.814,131L87.882,131L87.951,131.25L88.019,131L88.087,131L88.156,130.5L88.224,131L88.293,131.25L88.361,132.5L88.43,132.5L88.567,132L88.635,130.75L88.704,131.25L88.772,131.75L88.909,131.75L88.977,131.25L89.114,130.5L89.183,129.75L89.251,129.5L89.32,130.25L89.388,130L89.525,129.25L89.593,129L89.662,127.25L89.73,127L89.867,127.5L90.072,127.25L90.141,127.5L90.209,129L90.278,129.5L90.346,129.75L90.415,128.5L90.483,128.25L90.552,128.25L90.62,128.25L90.688,128.25L90.757,127.5L90.825,126.5L90.894,125.75L91.031,124.25L91.099,124.25L91.168,125.75L91.236,125.5L91.304,124.25L91.51,124.25L91.578,124.5L91.647,125.25L91.715,126.25L91.784,126L91.852,125.25L91.92,125.5L91.989,126.5L92.057,126.25L92.126,128L92.194,128.75L92.263,127.5L92.331,126.75L92.4,126.75L92.468,126.75L92.537,127.75L92.605,128L92.673,129.25L92.742,129L92.879,128.75L92.947,128.75L93.016,129.5L93.084,130.5L93.153,131L93.289,130.5L93.358,130.75L93.426,131.25L93.495,131.5L93.563,131.75L93.7,132.5L93.769,132.25L93.837,132.25L93.905,131.5L93.974,131.25L94.042,131.75L94.111,132.5L94.179,132L94.248,131.75L94.316,132L94.385,131.25L94.453,130.25L94.521,131.5L94.59,132.5L94.658,132L94.727,131.25L94.795,130.25L94.932,129.75L95.001,130L95.069,130.25L95.137,130.5L95.206,130.5L95.274,130L95.343,130L95.411,130.75L95.48,132L95.548,132.75L95.617,132.75L95.685,132.5L95.753,132.25L95.822,132.75L95.89,133L95.959,133.25L96.03,132.75L96.099,133L96.167,132.75L96.235,132.75L96.304,133L96.372,132.75L96.441,132.75L96.509,133.25L96.578,134.25L96.646,133.75L96.715,133.5L96.783,134.25L96.851,134.5L96.92,135L96.988,135.5L97.057,135.25L97.125,135.25L97.262,135L97.331,134.5L97.399,135L97.467,135L97.536,135L97.604,135L97.741,135L97.81,134.75L97.878,134.75L98.084,135.25L98.152,135.25L98.22,135.25L98.289,134.25L98.357,134.5L98.426,133.75L98.494,134L98.563,134L98.631,134.25L98.7,134.75L98.768,134.25L98.836,134.5L99.042,134.25L99.11,134.5L99.179,134.25L99.247,134.25L99.384,134.25L99.452,134.5L99.589,133.75L99.658,133.5L99.726,133.5L99.795,134L99.863,134.5L99.932,134.25L100.068,134L100.137,133L100.205,132.5L100.274,132.75L100.411,132.75L100.479,132.5L100.548,131.75L100.616,131.25L100.684,131.25L100.753,132.25L100.821,133.25L100.89,133.5L100.958,133.25L101.027,133.25L101.095,133.25L101.232,133L101.437,133.5L101.574,132.75L101.643,133L101.711,133L101.848,132.75L101.916,132.5L101.985,132.25L102.053,132L102.122,131.25L102.19,131.5L102.259,131.25L102.396,130.25L102.464,129.25L102.533,129.5L102.601,129.75L102.669,130.75L102.738,130.5L102.943,130L103.012,130L103.08,130.5L103.149,131.25L103.217,131.75L103.285,131.75L103.422,130.5L103.559,130.25L103.628,130.5L103.833,130.5L103.901,130L103.97,130L104.038,129.75L104.107,129.75L104.175,130.5L104.244,130.25L104.312,130.5L104.381,131L104.449,130.25L104.586,130.75L104.651,131.25L104.788,132.5L104.925,132.5L104.994,132.5L105.062,133.5L105.199,134L105.268,132.75L105.336,132.5L105.404,132.5L105.473,132.5L105.541,132.25L105.61,132.25L105.678,131L105.747,131L105.815,130.5L105.884,129.5L105.952,130.5L106.02,128.75L106.226,125.25L106.294,125L106.363,124.75L106.431,124.5L106.5,124L106.568,122.25L106.636,122.25L106.705,122.25L106.773,120.5L106.91,119.5L106.979,119.5L107.047,119.25L107.116,114.25L107.184,110.75L107.252,108.5L107.321,107.75L107.389,105.5L107.458,105.5L107.526,106.75L107.595,105.5L107.663,104.75L107.732,103.5L107.8,102.5L107.868,100.5L107.937,99.75L108.005,97.75L108.074,96L108.142,94L108.279,89.25L108.348,88L108.416,91L108.484,90.75L108.553,91.25L108.621,90.5L108.69,91L108.758,93L108.827,90.25L108.895,89.5L108.964,90.25L109.032,90.25L109.101,90L109.169,88L109.237,88.75L109.306,89.5L109.374,89.75L109.443,88.25L109.511,88L109.58,87.25L109.648,83L109.717,77.5L109.785,76.25L109.853,77L109.922,77L109.99,78L110.059,78.5L110.127,76.5L110.196,74L110.264,73.5L110.333,77.5L110.401,78.5L110.469,78L110.538,77L110.606,74L110.675,74.5L110.743,72.25L110.812,70.25L110.88,72.75L110.949,73.25L111.017,73.25L111.085,73.5L111.154,71.5L111.222,69.5L111.291,71L111.359,72.5L111.428,72.75L111.496,73.75L111.565,71.75L111.633,61.25L111.701,60.75L111.77,66.5L111.838,67.75L111.907,67.25L111.975,68L112.044,66.25L112.112,60L112.181,62L112.249,65.5L112.317,68.75L112.386,66.75L112.454,67.25L112.523,65L112.591,62.5L112.66,61.25L112.728,61.25L112.797,64L112.865,64.5L112.933,63.75L113.002,60.75L113.07,54L113.139,52L113.207,53L113.276,57L113.344,58.5L113.413,58.75L113.481,58.25L113.55,57.25L113.618,59.75L113.686,70.5L113.755,73.75L113.823,73.75L113.892,74.75L113.96,73.5L114.029,72L114.097,72.25L114.166,78.5L114.234,79L114.302,78.75L114.371,78.25L114.439,79L114.508,76.25L114.576,74.25L114.645,76.5L114.713,78.75L114.782,78.5L114.85,78.25L114.918,77.75L114.987,73.5L115.055,73.25L115.124,79.75L115.192,81.5L115.261,82L115.329,81.25L115.398,79L115.466,76L115.534,72L115.603,73.25L115.671,74.5L115.74,72L115.808,69.25L115.877,67.75L115.945,65.5L116.014,66.25L116.082,68.5L116.15,70L116.219,69L116.287,65.5L116.356,63.5L116.424,61L116.493,60L116.561,63.25L116.63,66.5L116.698,65L116.766,66.25L116.835,64L116.903,58.25L116.972,57.25L117.04,61L117.109,64L117.177,65.25L117.246,65.5L117.314,65.5L117.383,63.75L117.451,64.25L117.519,68.25L117.588,74L117.656,73.25L117.725,72.25L117.793,75.25L117.862,77.25L117.93,78.25L117.999,79.5L118.067,79L118.135,76.75L118.204,76.25L118.272,73.5L118.341,74.75L118.409,76.75L118.478,79.75L118.546,80.5L118.615,81.5L118.683,83.25L118.751,82.75L118.82,80.75L118.888,83.75L118.957,89L119.025,89.5L119.094,89.5L119.162,89.25L119.231,86.5L119.299,84.25L119.367,84.75L119.436,86.5L119.504,88.5L119.573,87.75L119.641,87.75L119.71,89.25L119.778,88.75L119.847,89L119.915,90.25L119.983,92L120.052,92.5L120.12,90.75L120.189,90L120.257,90.5L120.326,94.25L120.394,97.75L120.463,97.5L120.531,96L120.668,97.75L120.736,95L120.805,93.75L120.873,97.25L120.945,99.75L121.013,98.25L121.081,98.5L121.15,100.25L121.218,101.25L121.287,102L121.355,104.5L121.424,107.25L121.492,103.75L121.561,99.75L121.629,99L121.697,99.75L121.766,100.5L121.834,101.25L121.903,103L121.971,103.25L122.04,103.75L122.108,103.25L122.177,103.5L122.245,107L122.313,110.25L122.382,111.5L122.45,113L122.519,113L122.587,113.75L122.656,115.5L122.724,116.25L122.793,118.75L122.861,119.75L122.998,120.25L123.135,120.75L123.203,121.5L123.272,121L123.34,121.5L123.409,121.75L123.477,120.75L123.546,119.75L123.614,119.75L123.682,122.75L123.751,126.5L123.819,127.75L123.888,127.75L123.956,125.75L124.025,125.75L124.093,125L124.162,124.5L124.23,124L124.298,124L124.367,123.5L124.435,124L124.572,124L124.709,123.75L124.778,123.75L124.846,124L124.914,124.75L124.983,124.5L125.051,123.75L125.12,122.75L125.188,123L125.257,122L125.325,121.25L125.394,121L125.462,122L125.53,122.25L125.599,122.5L125.667,123.5L125.804,124.75L125.873,125L125.941,126.5L126.01,128L126.078,128.5L126.146,128.25L126.215,129.5L126.283,128L126.352,126.75L126.42,126.25L126.489,127.25L126.557,127.75L126.626,126.5L126.694,126.5L126.762,126.5L126.831,125.75L126.899,124.25L126.968,123.25L127.036,120.75L127.105,119.25L127.242,116.5L127.31,116L127.379,115.5L127.447,114.5L127.515,114.25L127.584,114.75L127.652,114.5L127.926,113.75L128.063,112.75L128.131,109L128.2,107.75L128.268,107.25L128.405,107.5L128.474,105.75L128.747,104L128.816,97.25L128.884,95.75L128.953,96.75L129.021,97L129.09,96.75L129.158,95.75L129.227,91.25L129.295,90.25L129.363,89.25L129.432,88.5L129.5,86L129.569,85.75L129.637,85L129.706,84.25L129.774,83.5L129.843,85.75L129.911,86.25L129.979,86.25L130.045,87.5L130.182,86.5L130.25,84.25L130.319,84L130.387,80.25L130.456,81.25L130.524,83.75L130.593,83.25L130.661,81L130.73,78L130.798,76.25L130.866,76.75L130.935,81.75L131.003,82L131.072,81L131.209,79L131.277,75.25L131.346,76L131.414,77.25L131.482,80.25L131.551,79.5L131.619,76L131.688,74.75L131.756,75.25L131.825,76.5L131.893,79L132.03,79L132.098,77.25L132.167,75.25L132.235,72.5L132.304,67.5L132.372,67.5L132.441,67L132.509,63.75L132.578,65.5L132.646,59.75L132.714,54.5L132.783,50.75L132.851,53L132.92,55L132.988,56.25L133.057,53.25L133.125,53.5L133.194,54.25L133.262,53.5L133.33,55.25L133.399,57.25L133.467,54.25L133.536,53.75L133.604,50.25L133.673,47L133.741,48.5L133.81,51.25L133.878,52L133.946,51.25L134.015,48.75L134.083,48.75L134.152,43.5L134.22,39L134.289,39.5L134.357,43L134.426,40.75L134.494,40.5L134.563,38.75L134.631,36L134.699,35.25L134.768,39.75L134.836,45.25L134.905,44.25L134.973,43.75L135.042,39.5L135.11,37.5L135.179,36.25L135.247,34.5L135.315,36.25L135.384,38L135.452,40.5L135.521,41.25L135.589,40.25L135.658,37L135.726,41.25L135.795,44.25L135.863,45.25L135.931,44.25L136,43.25L136.068,43L136.137,41L136.205,48.25L136.274,56L136.342,58.5L136.411,58L136.479,61.25L136.547,61.25L136.616,64L136.684,65.75L136.753,69.25L136.821,69.5L136.89,66.25L136.958,64.75L137.027,62L137.095,63.75L137.163,68.25L137.232,69.75L137.3,72.25L137.369,70.5L137.437,67L137.506,62.25L137.574,60.25L137.643,62.25L137.711,67.5L137.779,66.75L137.848,63.75L137.916,61.25L137.985,57.75L138.053,57.25L138.122,60.5L138.19,63.5L138.259,64L138.327,61.25L138.396,57.25L138.464,54.75L138.532,53.25L138.601,55.75L138.669,57.75L138.738,59.75L138.806,58.25L138.875,56.5L138.943,58.25L139.012,59.5L139.08,61.5L139.148,64L139.217,62.75L139.285,62L139.354,55.5L139.422,52.25L139.491,55.25L139.559,59.5L139.628,63.5L139.696,64.25L139.764,61.75L139.833,56.25L139.901,54.5L139.97,49.5L140.038,54.25L140.107,55.75L140.175,55.5L140.312,55.75L140.38,49L140.449,46L140.517,50.25L140.586,54L140.654,55L140.723,55.25L140.791,53.75L140.86,50.5L140.928,51.5L140.996,53.75L141.065,55L141.133,55.25L141.202,55.5L141.27,53.25L141.339,49.25L141.407,45.25L141.476,50.5L141.544,54.75L141.612,53.5L141.681,52.5L141.749,50.5L141.818,45.75L141.886,43.5L141.955,49.75L142.023,53.25L142.092,60.75L142.16,58.75L142.228,56.75L142.297,48.75L142.365,45L142.434,50.75L142.502,52.75L142.571,52.25L142.639,50.5L142.708,47.5L142.776,44.75L142.845,46.5L142.913,51.25L142.981,54.5L143.05,52.25L143.118,51L143.187,48.5L143.255,39L143.324,40L143.392,45.5L143.461,51L143.529,51.5L143.597,52L143.666,54.5L143.734,54.5L143.803,51.5L143.871,56.5L143.94,62.5L144.008,63.5L144.077,64.75L144.145,64.75L144.213,65L144.282,67.25L144.35,76L144.419,79.75L144.487,80.25L144.556,82.25L144.624,81.25L144.693,83.25L144.761,86.75L144.829,90.25L144.898,90.5L144.966,90.5L145.035,90.75L145.103,93L145.172,94L145.24,97.5L145.309,108L145.377,110.75L145.445,111.5L145.514,111.75L145.582,113L145.651,113.25L145.719,112.25L145.788,114.25L145.856,119.25L145.925,120.5L145.993,119.5L146.061,118.25L146.13,114L146.198,111.75L146.267,113.75L146.338,114.5L146.407,114.25L146.475,115.25L146.543,114.5L146.612,115.5L146.68,115.75L146.749,115.5L146.817,116L146.886,115.5L146.954,113.5L147.023,112.5L147.091,111.75L147.159,110.75L147.228,111L147.296,111L147.365,112L147.433,112.5L147.502,111.5L147.57,112L147.639,112L147.707,112.25L147.775,112.75L147.844,111.25L147.912,111.25L147.981,110.5L148.049,111.25L148.118,112.25L148.186,116.5L148.255,119.75L148.323,119L148.392,118.75L148.46,117L148.528,117L148.597,118.75L148.665,119L148.734,120.25L148.802,121.5L148.871,121.75L148.939,122.25L149.008,124.25L149.076,125L149.144,125.5L149.213,126.75L149.281,125.75L149.35,126.25L149.418,125.5L149.487,125.25L149.555,127L149.624,127L149.692,126.75L149.76,126.5L149.829,126.75L149.897,128L149.966,128.5L150.034,127.5L150.103,127.25L150.171,126.5L150.24,126.5L150.308,125L150.513,125.75L150.582,125.75L150.65,125.5L150.719,123.25L150.787,121.25L150.856,121.5L150.924,121.75L150.992,122L151.061,121.75L151.198,121L151.335,121.25L151.403,120.75L151.472,120.5L151.54,121L151.608,121L151.677,120.25L151.745,120L151.814,118.75L151.882,117.5L151.951,117.75L152.019,118L152.088,118.25L152.156,118.5L152.225,118.5L152.293,116.5L152.361,117.25L152.43,117.25L152.498,117.25L152.567,117L152.635,117.75L152.704,117L152.772,116.5L152.841,117.25L152.909,118.25L152.977,119.25L153.114,118.5L153.183,117.5L153.251,113.5L153.32,109.25L153.388,107.75L153.457,107L153.525,106.75L153.593,107L153.662,107.25L153.73,106.5L153.799,101.5L153.867,101.75L153.936,102.75L154.004,104L154.073,103.5L154.141,103.5L154.209,103.75L154.278,100.75L154.346,99.75L154.415,97.25L154.483,95.75L154.552,95.75L154.62,95.5L154.689,92.25L154.757,84.5L154.825,84.25L154.894,84L154.96,84.25L155.028,81.25L155.096,80.25L155.165,79.5L155.233,76.5L155.302,78.25L155.37,80L155.439,77.5L155.507,78.25L155.576,77.5L155.644,69.75L155.712,62L155.781,62.75L155.849,66.75L155.918,61.5L155.986,61.75L156.055,55.25L156.123,47L156.192,43L156.26,42.5L156.328,43.25L156.397,43.5L156.465,43.75L156.534,41.5L156.602,41.25L156.671,42.25L156.739,44.75L156.808,52.5L156.876,49.75L156.944,49L157.013,43.5L157.081,43L157.15,40L157.218,40L157.287,40.5L157.355,38.5L157.492,38L157.56,36.5L157.629,30.5L157.697,28.75L157.766,34.5L157.834,41.75L157.903,43L157.971,35.75L158.04,33.5L158.108,24.5L158.176,25.75L158.245,24.75L158.313,27.75L158.382,27.75L158.45,29.25L158.519,26.75L158.587,23.75L158.656,24L158.724,15.5L158.792,15.5L158.861,15L158.929,13L158.998,13L159.066,9.75L159.135,11.5L159.203,14.75L159.272,18.75L159.34,17.75L159.409,21L159.477,23.75L159.545,21L159.614,24.25L159.682,28.5L159.751,32L159.819,34.25L159.888,34.75L159.956,34L160.025,39.75L160.093,44.75L160.161,52.25L160.23,56L160.298,64.75L160.367,65.25L160.435,62.75L160.504,61.5L160.572,62.25L160.641,64.5L160.709,68L160.777,77L160.846,75.25L160.914,75.25L160.983,69L161.051,71.75L161.12,75.75L161.188,80.25L161.257,81L161.325,80.75L161.393,81.25L161.462,79.25L161.53,76.5L161.599,82L161.667,85L161.736,86.5L161.804,85.75L161.873,83.25L161.941,82L162.009,81L162.078,84.25L162.146,87.25L162.215,88.75L162.283,90L162.352,90.25L162.42,89L162.489,88.75L162.557,90.5L162.625,92.25L162.694,96.25L162.762,96.25L162.831,95.5L162.899,93.75L162.968,93L163.036,101.25L163.105,101.25L163.173,102.25L163.242,101.75L163.31,99L163.378,94.75L163.447,96.5L163.515,98.75L163.584,102L163.652,102L163.721,98.5L163.789,95L163.858,95.25L163.926,95.25L163.994,96L164.063,96.75L164.131,96L164.2,93.5L164.268,89.75L164.337,89.25L164.405,90L164.474,91.25L164.542,92.25L164.61,91L164.679,89L164.747,87.5L164.816,86L164.884,86L164.953,89.25L165.021,90L165.158,88.75L165.226,85.25L165.295,82.25L165.363,82.25L165.432,85.75L165.5,90.25L165.637,89.5L165.706,86.75L165.774,83L165.842,81.25L165.911,83.25L165.979,84L166.048,83.5L166.116,83.5L166.185,75L166.253,72.5L166.322,72.75L166.39,73.75L166.458,77.5L166.527,76.75L166.595,73.25L166.664,70.5L166.732,72.25L166.801,73.25L166.869,76L166.938,78.25L167.006,80.25L167.074,78.75L167.143,75.75L167.211,75.75L167.28,77L167.348,80.25L167.417,82.75L167.485,83.25L167.554,80.5L167.622,78.5L167.691,77L167.759,79L167.827,83.25L167.896,85.25L168.033,86.25L168.101,86.75L168.17,83.75L168.238,84.75L168.307,93L168.375,96L168.443,96.5L168.512,97.5L168.58,95.25L168.649,93L168.717,91.25L168.786,93L168.854,91.75L168.923,91L168.991,90L169.059,88L169.128,85.75L169.196,84.5L169.265,87.5L169.333,88.5L169.402,89L169.47,89.75L169.539,88.5L169.607,87.25L169.675,88L169.744,90.5L169.812,93L169.881,93.75L169.949,94.25L170.018,94.5L170.086,93.25L170.155,95L170.223,99L170.291,100.5L170.36,101L170.428,101.5L170.497,100.75L170.565,100.75L170.634,103.5L170.702,107.25L170.771,112.5L170.839,113.75L170.907,115.25L170.976,116L171.044,115.25L171.113,116.5L171.181,119.5L171.253,123.25L171.321,123.5L171.389,123.75L171.458,122.75L171.526,121.5L171.595,122.75L171.663,124.25L171.732,126.5L171.8,126.75L171.869,126.5L171.937,125.75L172.005,125.25L172.074,125.25L172.142,126.25L172.211,127L172.279,127.25L172.348,127L172.416,127.75L172.553,127.5L172.621,128.25L172.69,128.5L172.758,127.75L172.827,126.75L172.895,126L172.964,126.25L173.032,126L173.101,125.75L173.169,126.25L173.238,125.5L173.306,124.5L173.374,124.75L173.443,125L173.511,125L173.58,125.75L173.648,126.75L173.717,127.25L173.854,126.75L173.922,126.5L173.99,126.5L174.059,127.25L174.127,128.25L174.196,127.25L174.264,126.75L174.401,127.5L174.47,127.5L174.538,127L174.606,127.25L174.675,126.75L174.743,125.75L174.812,125.75L174.88,126L174.949,125.5L175.017,126.5L175.086,127.25L175.222,127L175.291,125.75L175.359,126.25L175.428,127.75L175.496,129.5L175.565,129.75L175.633,128.75L175.77,128.5L175.838,127.75L175.907,127.75L175.975,127.5L176.044,126.75L176.112,126.25L176.181,125.75L176.249,124.5L176.318,123.25L176.386,122.75L176.454,124.25L176.523,123.75L176.591,122.25L176.66,120.75L176.728,121L176.797,119.5L176.865,119.75L176.934,118.75L177.002,118.5L177.07,118.75L177.139,119.5L177.207,119.25L177.344,118.75L177.413,118L177.481,119.75L177.55,120L177.618,120L177.687,119.25L177.755,117.25L177.823,117L177.892,117.5L177.96,118.25L178.029,118L178.097,119L178.166,118.75L178.303,117.5L178.371,118.25L178.439,119.5L178.645,119.75L178.713,119.5L178.782,118.75L178.85,118.5L178.987,118.25L179.124,118L179.192,118L179.261,119.25L179.329,117.5L179.398,117.75L179.466,116.75L179.535,114.75L179.671,114.75L179.74,114.25L179.808,113.5L179.874,111.5L179.942,106.75L180.011,104L180.148,100L180.216,100.25L180.285,103L180.353,102.75L180.422,101.25L180.49,99.75L180.558,97.75L180.695,96L180.764,96.75L180.832,98.5L180.901,98.25L180.969,97.75L181.038,98.25L181.106,98.25L181.174,98L181.243,99.25L181.311,100.25L181.38,101.5L181.448,99.75L181.517,98L181.585,95.25L181.654,94.75L181.722,95.25L181.79,96L181.859,93.5L181.927,93L181.996,92L182.064,91.25L182.133,94.25L182.201,95.5L182.27,98.75L182.338,99.25L182.406,98.5L182.475,98.5L182.543,97.5L182.612,97.5L182.68,99L182.749,99L182.817,98.5L182.886,97.75L182.954,95L183.022,93.5L183.091,90.5L183.159,90.75L183.296,91L183.365,90L183.433,90.25L183.502,89.25L183.57,88.5L183.638,90.5L183.707,95.25L183.775,97.5L183.844,96.75L183.912,95.5L183.981,95.25L184.049,96L184.118,97.75L184.186,101L184.255,102.5L184.323,102.25L184.391,99.75L184.46,93.75L184.528,92.75L184.597,93.75L184.665,95.5L184.734,96.75L184.802,97.5L184.871,97.5L184.939,95.5L185.007,94L185.076,96.75L185.144,98.75L185.213,101.75L185.281,100.5L185.35,97.75L185.418,96.5L185.487,95.5L185.555,96L185.692,97.75L185.76,97.75L185.829,97.25L185.897,95.75L185.966,95.5L186.034,97L186.103,100.25L186.171,100.25L186.239,100.5L186.308,100.75L186.376,99L186.445,99.25L186.513,102L186.582,107.75L186.65,109.5L186.719,110L186.787,110L186.855,108.5L186.924,108.25L186.992,109.5L187.061,112.5L187.129,115.25L187.198,115L187.266,115.25L187.335,114.25L187.403,113.75L187.471,116.5L187.54,119L187.608,119.75L187.677,120L187.745,120L187.814,117.75L187.882,115L187.951,116.25L188.019,118.25L188.087,119.25L188.156,119L188.224,117.75L188.293,116L188.361,116L188.43,116.75L188.498,117L188.567,117L188.635,114.5L188.704,111.25L188.772,106.25L188.84,106.5L188.909,107.75L188.977,108.5L189.046,108.5L189.114,107.25L189.183,105L189.251,100.25L189.32,97.25L189.388,97.75L189.456,98.75L189.525,98L189.593,97.25L189.662,94.25L189.73,89.5L189.799,88.75L189.867,89.75L189.936,92.75L190.004,92.75L190.141,89.5L190.209,86.75L190.278,86L190.346,87.25L190.415,87.5L190.483,86L190.552,85.75L190.62,83.5L190.688,82.5L190.757,84.25L190.825,86.5L190.894,90.5L190.962,88.25L191.031,88.25L191.099,87.25L191.168,86L191.236,87.25L191.304,89.5L191.373,94.25L191.441,96L191.51,96.25L191.578,94.75L191.647,91L191.715,90.75L191.784,93.75L191.852,97.75L191.92,97.75L192.057,97L192.126,94L192.194,92.25L192.263,95.5L192.331,97.75L192.4,98.25L192.468,98.25L192.537,99.75L192.605,101.25L192.673,100.75L192.742,103.75L192.81,104.25L192.879,105L192.947,105.75L193.016,106.5L193.084,109.25L193.153,110L193.221,110.75L193.289,112L193.358,111.25L193.426,111.25L193.495,111.75L193.563,113L193.632,113.75L193.7,116.25L193.769,121L193.837,122L193.905,122.75L193.974,124L194.042,125.75L194.111,127.5L194.179,130.75L194.248,133L194.316,133L194.385,133L194.453,133.5L194.521,133.75L194.59,134L194.658,134L194.795,136L194.864,136.5L195.001,137.5L195.137,137.5L195.206,138L195.343,138.25L195.411,138L195.48,137.75L195.548,138L195.617,138L195.685,138.25L195.822,138.5L196.027,138.5L196.096,138L196.235,138L196.509,138.25L196.715,138.75L196.783,137.75L196.851,137.5L196.92,137.75L196.988,137.5L197.057,137.75L197.125,137.75L197.194,137.75L197.331,137.75L197.399,136.25L197.467,135.25L197.878,135.5L197.947,135.25L198.084,135.5L198.22,135.5L198.289,135.5L198.357,134.75L198.563,135L198.631,134.75L198.7,134L198.836,133.5L198.905,133.75L198.973,133.5L199.11,134L199.247,133.75L199.452,133.75L199.795,133.5L199.932,134L200,134L200.068,133.5L200.274,133.5L200.342,133.75" stroke="#4c78a8" stroke-width="2"/></g><g class="mark-group role-title"><g transform="translate(100,-22)"><path class="background" aria-hidden="true" d="M0,0h0v0h0Z" pointer-events="none"/><g><g class="mark-text role-title-text" role="graphics-symbol" aria-roledescription="title" aria-label="Title text 'Noise - Commercial: Car/Truck Music'" pointer-events="none"><text text-anchor="middle" transform="translate(0,10)" font-family="sans-serif" font-size="13px" font-weight="bold" fill="#000" opacity="1">Noise - Commercial: Car/Truck Music</text></g></g><path class="foreground" aria-hidden="true" d="" pointer-events="none" display="none"/></g></g></g><path class="foreground" aria-hidden="true" d="" display="none"/></g></g></g><defs><clipPath id="clip113"><rect x="0" y="0" width="200" height="150"/></clipPath></defs></svg>