<svg xmlns="http://www.w3.org/2000/svg" xmlns:xlink="http://www.w3.org/1999/xlink" version="1.1" class="marks" width="360" height="194" viewBox="0 0 360 194"><rect width="360" height="194" fill="white"/><g fill="none" stroke-miterlimit="10" transform="translate(80,22)"><g class="mark-group role-frame root" role="graphics-object" aria-roledescription="group mark container"><g transform="translate(0,0)"><path class="background" aria-hidden="true" d="M0,0h200v150h-200Z"/><g><g class="mark-group role-axis" aria-hidden="true"><g transform="translate(0.5,0.5)"><path class="background" aria-hidden="true" d="M0,0h0v0h0Z" pointer-events="none"/><g><g class="mark-rule role-axis-grid" pointer-events="none"><line transform="translate(0,150)" x2="200" y2="0" stroke="#ddd" stroke-width="1" opacity="1"/><line transform="translate(0,123)" x2="200" y2="0" stroke="#ddd" stroke-width="1" opacity="1"/><line transform="translate(0,96)" x2="200" y2="0" stroke="#ddd" stroke-width="1" opacity="1"/><line transform="translate(0,70)" x2="200" y2="0" stroke="#ddd" stroke-width="1" opacity="1"/><line transform="translate(0,43)" x2="200" y2="0" stroke="#ddd" stroke-width="1" opacity="1"/><line transform="translate(0,16)" x2="200" y2="0" stroke="#ddd" stroke-width="1" opacity="1"/></g></g><path class="foreground" aria-hidden="true" d="" pointer-events="none" display="none"/></g></g><g class="mark-group role-axis" role="graphics-symbol" aria-roledescription="axis" aria-label="X-axis for a time scale with values from Friday, 01 January 2016, 12:00:00 AM to Monday, 01 January 2024, 12:00:00 AM"><g transform="translate(0.5,150.5)"><path class="background" aria-hidden="true" d="M0,0h0v0h0Z" pointer-events="none"/><g><g class="mark-rule role-axis-tick" pointer-events="none"><line transform="translate(0,0)" x2="0" y2="5" stroke="#888" stroke-width="1" opacity="1"/><line transform="translate(50,0)" x2="0" y2="5" stroke="#888" stroke-width="1" opacity="1"/><line transform="translate(100,0)" x2="0" y2="5" stroke="#888" stroke-width="1" opacity="1"/><line transform="translate(150,0)" x2="0" y2="5" stroke="#888" stroke-width="1" opacity="1"/><line transform="translate(200,0)" x2="0" y2="5" stroke="#888" stroke-width="1" opacity="1"/></g><g class="mark-text role-axis-label" pointer-events="none"><text text-anchor="start" transform="translate(0,15)" font-family="sans-serif" font-size="10px" fill="#000" opacity="1">2016</text><text text-anchor="middle" transform="translate(50.03422313483915,15)" font-family="sans-serif" font-size="10px" fill="#000" opacity="1">2018</text><text text-anchor="middle" transform="translate(100,15)" font-family="sans-serif" font-size="10px" fill="#000" opacity="1">2020</text><text text-anchor="middle" transform="translate(150.03422313483915,15)" font-family="sans-serif" font-size="10px" fill="#000" opacity="1">2022</text><text text-anchor="end" transform="translate(200,15)" font-family="sans-serif" font-size="10px" fill="#000" opacity="1">2024</text></g><g class="mark-rule role-axis-domain" pointer-events="none"><line transform="translate(0,0)" x2="200" y2="0" stroke="#888" stroke-width="1" opacity="1"/></g></g><path class="foreground" aria-hidden="true" d="" pointer-events="none" display="none"/></g></g><g class="mark-group role-axis" role="graphics-symbol" aria-roledescription="axis" aria-label="Y-axis for a linear scale with values from 0 to 28"><g transform="translate(0.5,0.5)"><path class="background" aria-hidden="true" d="M0,0h0v0h0Z" pointer-events="none"/><g><g class="mark-rule role-axis-tick" pointer-events="none"><line transform="translate(0,150)" x2="-5" y2="0" stroke="#888" stroke-opacity="0" stroke-width="1" opacity="1"/><line transform="translate(0,123)" x2="-5" y2="0" stroke="#888" stroke-opacity="0" stroke-width="1" opacity="1"/><line transform="translate(0,96)" x2="-5" y2="0" stroke="#888" stroke-opacity="0" stroke-width="1" opacity="1"/><line transform="translate(0,70)" x2="-5" y2="0" stroke="#888" stroke-opacity="0" stroke-width="1" opacity="1"/><line transform="translate(0,43)" x2="-5" y2="0" stroke="#888" stroke-opacity="0" stroke-width="1" opacity="1"/><line transform="translate(0,16)" x2="-5" y2="0" stroke="#888" stroke-opacity="0" stroke-width="1" opacity="1"/></g><g class="mark-text role-axis-label" pointer-events="none"><text text-anchor="end" transform="translate(-7,153)" font-family="sans-serif" font-size="10px" fill="#000" opacity="1">0</text><text text-anchor="end" transform="translate(-7,126.21428571428571)" font-family="sans-serif" font-size="10px" fill="#000" opacity="1">5</text><text text-anchor="end" transform="translate(-7,99.42857142857142)" font-family="sans-serif" font-size="10px" fill="#000" opacity="1">10</text><text text-anchor="end" transform="translate(-7,72.64285714285714)" font-family="sans-serif" font-size="10px" fill="#000" opacity="1">15</text><text text-anchor="end" transform="translate(-7,45.857142857142854)" font-family="sans-serif" font-size="10px" fill="#000" opacity="1">20</text><text text-anchor="end" transform="translate(-7,19.071428571428566)" font-family="sans-serif" font-size="10px" fill="#000" opacity="1">25</text></g></g><path class="foreground" aria-hidden="true" d="" pointer-events="none" display="none"/></g></g><g class="mark-line role-mark marks" clip-path="url(#clip114)" role="graphics-object" aria-roledescription="line mark container"><path aria-label="day: Jan 01, 2010; avg: 3.3" role="graphics-symbol" aria-roledescription="line mark" d="M-149.966,132.321L-149.76,133.036L-149.692,133.036L-149.624,133.214L-149.487,132.679L-149.418,131.429L-149.35,131.429L-149.281,130.714L-149.144,129.464L-149.076,129.286L-149.008,129.643L-148.939,128.75L-148.802,128.571L-148.734,128.929L-148.665,128.214L-148.597,127.143L-148.528,126.786L-148.46,126.25L-148.323,125.357L-148.186,125.357L-148.049,125.179L-147.912,124.464L-147.844,124.286L-147.775,124.107L-147.707,124.107L-147.639,124.464L-147.57,123.571L-147.365,123.929L-147.296,124.107L-147.159,123.929L-147.091,123.036L-147.023,121.964L-146.749,116.964L-146.68,116.071L-146.612,116.071L-146.543,117.143L-146.475,117.679L-146.407,118.036L-146.338,118.75L-146.27,119.286L-146.201,119.107L-146.064,119.464L-145.927,119.643L-145.859,119.286L-145.791,121.429L-145.722,122.857L-145.654,122.857L-145.585,124.286L-145.517,124.821L-145.448,125.179L-145.38,125L-145.311,124.821L-145.243,124.821L-145.106,123.75L-145.038,123.036L-144.972,122.5L-144.904,122.679L-144.835,122.5L-144.767,122.5L-144.698,122.679L-144.63,123.571L-144.561,123.214L-144.493,127.143L-144.424,128.571L-144.356,129.107L-144.288,130L-144.219,130.357L-144.151,130.357L-144.082,130.893L-144.014,130.536L-143.945,130.357L-143.877,130L-143.74,128.929L-143.672,129.286L-143.603,129.286L-143.535,128.929L-143.466,129.821L-143.398,129.464L-143.329,130L-143.261,129.821L-143.192,130.179L-143.124,130.893L-143.056,130.893L-142.987,131.964L-142.919,131.786L-142.85,130.714L-142.782,131.25L-142.713,131.071L-142.645,130.893L-142.576,130.179L-142.508,128.929L-142.44,129.821L-142.371,129.643L-142.303,129.286L-142.234,128.929L-142.097,127.5L-142.029,126.071L-141.96,126.071L-141.824,125.714L-141.755,125.893L-141.687,125.357L-141.618,124.464L-141.55,123.571L-141.481,122.321L-141.413,120.893L-141.344,120.714L-141.276,120L-141.208,119.107L-141.139,117.857L-141.071,117.679L-140.934,117.143L-140.865,116.071L-140.797,115.893L-140.728,114.643L-140.66,114.286L-140.591,115L-140.523,114.464L-140.455,114.286L-140.386,113.75L-140.318,114.464L-140.249,114.464L-140.181,113.214L-140.112,113.393L-140.044,113.214L-139.975,112.5L-139.907,112.857L-139.839,113.036L-139.77,111.071L-139.702,109.821L-139.633,108.571L-139.565,108.571L-139.496,107.321L-139.428,108.571L-139.359,110L-139.291,111.25L-139.223,111.071L-139.154,111.25L-139.086,112.679L-139.017,113.036L-138.949,113.036L-138.88,113.214L-138.812,113.036L-138.743,112.5L-138.675,114.107L-138.607,115.179L-138.538,115.714L-138.47,115.714L-138.401,115.714L-138.333,115.357L-138.264,115.536L-138.196,116.607L-138.127,118.214L-138.059,118.75L-137.991,119.107L-137.922,120.179L-137.854,120.179L-137.785,121.071L-137.717,122.143L-137.648,123.036L-137.58,123.571L-137.511,124.107L-137.443,126.071L-137.375,125.357L-137.306,124.821L-137.238,125.179L-137.169,125.179L-137.101,125.893L-137.032,125.893L-136.964,126.071L-136.895,125.536L-136.827,125.357L-136.758,126.429L-136.69,126.071L-136.622,125.893L-136.553,125.357L-136.485,125L-136.416,125.179L-136.348,125L-136.279,124.643L-136.211,124.107L-136.142,123.929L-136.074,123.571L-136.006,123.75L-135.937,123.75L-135.869,123.571L-135.8,124.286L-135.732,123.929L-135.663,125L-135.595,125.357L-135.526,125.536L-135.458,125.357L-135.39,125.536L-135.321,126.786L-135.253,126.607L-135.184,126.429L-135.116,126.429L-135.047,125.893L-134.91,123.929L-134.842,122.143L-134.774,121.786L-134.705,121.964L-134.637,122.143L-134.568,123.393L-134.5,123.214L-134.431,122.857L-134.363,123.036L-134.294,122.857L-134.226,123.214L-134.158,124.821L-134.089,125.179L-134.021,125L-133.952,124.643L-133.884,123.75L-133.815,123.571L-133.747,123.929L-133.678,123.571L-133.61,123.393L-133.542,123.214L-133.473,123.036L-133.405,122.679L-133.336,122.5L-133.268,123.214L-133.199,123.036L-133.131,122.857L-133.062,122.5L-132.994,122.5L-132.926,123.214L-132.857,124.464L-132.789,126.071L-132.72,127.143L-132.652,125.536L-132.583,124.464L-132.515,120.893L-132.446,120.179L-132.378,120L-132.309,120.536L-132.241,120L-132.173,120L-132.104,119.821L-132.036,120.179L-131.967,120.714L-131.899,121.071L-131.83,121.964L-131.762,121.607L-131.693,120.714L-131.625,120.893L-131.557,121.25L-131.488,120.893L-131.42,121.071L-131.351,121.786L-131.283,122.321L-131.214,122.143L-131.146,121.786L-131.077,122.143L-131.009,122.143L-130.941,122.679L-130.872,123.036L-130.804,123.214L-130.735,123.214L-130.598,122.679L-130.53,123.393L-130.461,124.464L-130.393,127.857L-130.325,128.214L-130.188,128.75L-130.119,128.571L-130.051,129.464L-129.982,129.643L-129.914,129.643L-129.845,129.643L-129.777,129.821L-129.709,130.357L-129.64,130.179L-129.572,130.893L-129.503,131.607L-129.435,132.143L-129.366,132.5L-129.298,133.214L-129.229,133.036L-129.161,133.393L-129.093,133.214L-129.024,133.571L-128.887,134.107L-128.75,134.821L-128.679,135.536L-128.611,135.714L-128.542,135.357L-128.474,136.071L-128.405,136.964L-128.337,137.679L-128.268,138.929L-128.2,139.107L-128.131,139.286L-127.995,140L-127.926,140.714L-127.721,140.893L-127.652,140.714L-127.584,140.536L-127.447,140.357L-127.31,140.536L-127.242,140.357L-127.173,140.179L-127.105,139.821L-127.036,139.107L-126.968,138.929L-126.899,138.571L-126.762,138.75L-126.694,138.75L-126.626,138.929L-126.557,138.75L-126.42,138.571L-126.283,138.214L-126.146,138.393L-126.078,138.036L-126.01,137.5L-125.941,136.071L-125.873,135.536L-125.736,134.107L-125.394,133.214L-125.257,133.036L-125.188,132.143L-125.051,130.893L-124.983,130.714L-124.846,130.714L-124.709,127.321L-124.504,125L-124.367,125.536L-124.162,125.536L-124.093,125.714L-123.888,125.357L-123.819,125.357L-123.751,125.536L-123.682,126.25L-123.614,126.964L-123.546,126.964L-123.477,127.143L-123.272,126.607L-122.93,126.607L-122.861,126.786L-122.724,126.786L-122.656,126.964L-122.587,127.143L-122.519,126.964L-122.45,127.143L-122.382,127.679L-122.313,129.107L-122.245,130L-122.177,131.429L-122.108,132.143L-122.04,132.321L-121.971,133.036L-121.903,134.107L-121.834,134.464L-121.766,134.286L-121.697,137.5L-121.629,139.821L-121.561,139.821L-121.492,140L-121.424,140.179L-121.355,140.536L-121.287,140.714L-121.218,140.536L-121.15,140.714L-121.013,140.893L-120.945,141.071L-120.876,140.893L-120.808,141.071L-120.739,140.893L-120.602,140.893L-120.534,141.071L-120.465,141.25L-120.397,141.25L-120.26,141.25L-120.192,141.429L-120.123,141.429L-120.058,141.071L-119.989,141.071L-119.921,141.071L-119.852,141.071L-119.784,140.893L-119.715,140.714L-119.647,140.714L-119.51,140.179L-119.373,139.821L-119.305,139.286L-119.236,138.571L-119.031,137.857L-118.962,137.679L-118.894,137.321L-118.757,136.786L-118.689,136.429L-118.62,135.179L-118.552,133.393L-118.483,132.857L-118.415,132.143L-118.346,131.429L-118.278,131.429L-118.21,131.429L-118.073,131.429L-118.004,131.25L-117.936,131.25L-117.662,130.536L-117.594,128.75L-117.525,127.857L-117.457,127.143L-117.32,127.321L-117.251,126.429L-117.183,125.536L-117.046,123.75L-116.978,123.393L-116.909,123.036L-116.841,123.214L-116.772,123.214L-116.704,122.5L-116.635,123.036L-116.567,123.036L-116.498,122.679L-116.43,121.964L-116.362,121.964L-116.293,119.286L-116.225,118.75L-116.156,119.286L-116.088,120.536L-116.019,119.821L-115.951,120.357L-115.882,120.536L-115.814,120.714L-115.745,118.214L-115.677,117.5L-115.609,115.893L-115.54,115.893L-115.472,115.714L-115.403,117.5L-115.335,116.786L-115.266,115.714L-115.198,114.107L-115.129,113.036L-115.061,112.679L-114.993,114.107L-114.924,114.464L-114.856,115.179L-114.787,113.393L-114.719,113.393L-114.65,112.857L-114.582,112.143L-114.513,111.786L-114.445,112.5L-114.377,113.393L-114.308,112.5L-114.24,113.571L-114.171,112.857L-114.103,111.786L-114.034,111.964L-113.966,112.5L-113.897,111.607L-113.829,111.786L-113.761,110.536L-113.692,112.857L-113.624,113.214L-113.555,113.929L-113.487,113.75L-113.418,114.286L-113.35,113.214L-113.281,114.286L-113.213,115.536L-113.145,116.607L-113.076,118.214L-113.008,118.393L-112.939,118.75L-112.871,118.214L-112.802,117.5L-112.734,118.214L-112.665,118.036L-112.597,119.643L-112.529,120.179L-112.46,119.464L-112.392,118.75L-112.323,118.036L-112.255,118.214L-112.186,117.857L-112.118,119.107L-112.049,120.536L-111.981,120.179L-111.913,120.536L-111.844,121.607L-111.776,121.429L-111.707,122.143L-111.639,122.321L-111.57,122.5L-111.502,122.321L-111.433,122.679L-111.365,122.679L-111.296,122.857L-111.228,122.679L-111.16,122.857L-111.091,122.321L-111.023,122.321L-110.954,122.679L-110.886,122.5L-110.817,122.679L-110.749,123.036L-110.68,123.75L-110.612,124.286L-110.544,123.75L-110.475,123.571L-110.407,125.357L-110.338,126.429L-110.27,127.321L-110.201,128.036L-110.133,130.179L-110.064,129.643L-109.996,129.464L-109.928,129.286L-109.859,128.75L-109.791,128.214L-109.722,127.679L-109.654,127.143L-109.517,126.25L-109.448,125.893L-109.38,126.25L-109.312,124.464L-109.243,122.143L-109.175,121.964L-109.106,121.964L-109.038,121.607L-108.969,121.25L-108.901,118.929L-108.832,119.107L-108.696,118.036L-108.559,118.214L-108.49,117.679L-108.422,118.036L-108.353,118.214L-108.285,118.571L-108.216,118.036L-108.08,117.679L-108.011,116.786L-107.943,115.714L-107.874,115.893L-107.806,116.071L-107.737,115.536L-107.669,112.5L-107.6,111.071L-107.532,111.429L-107.463,111.786L-107.395,113.214L-107.327,114.107L-107.19,114.107L-107.121,113.571L-107.053,114.107L-106.984,115.179L-106.916,117.857L-106.847,118.571L-106.779,118.571L-106.711,119.286L-106.642,120.536L-106.574,123.214L-106.505,123.75L-106.437,125L-106.368,125.536L-106.3,126.071L-106.231,125.893L-106.163,125.714L-106.095,126.071L-106.026,126.429L-105.958,125.893L-105.889,125.179L-105.821,125.714L-105.752,125.893L-105.684,125.714L-105.615,126.607L-105.547,129.821L-105.479,131.25L-105.41,131.429L-105.342,131.607L-105.273,131.607L-105.205,131.964L-105.136,133.036L-105.068,133.929L-104.931,134.107L-104.794,134.286L-104.726,134.107L-104.657,134.286L-104.52,134.464L-104.452,133.929L-104.383,134.107L-104.247,133.75L-104.178,133.393L-104.11,133.036L-104.041,133.036L-103.973,132.857L-103.836,133.036L-103.765,132.857L-103.696,132.679L-103.628,133.036L-103.559,133.929L-103.491,135.357L-103.354,135.714L-103.285,135.536L-103.217,135.536L-103.149,135.893L-103.08,136.429L-103.012,137.321L-102.943,137.679L-102.875,137.679L-102.806,137.679L-102.738,137.5L-102.669,137.321L-102.601,137.679L-102.533,137.679L-102.464,138.036L-102.327,138.214L-102.19,138.571L-102.122,138.929L-102.053,139.464L-101.985,139.643L-101.848,139.821L-101.78,139.821L-101.711,139.821L-101.574,139.821L-101.369,140.179L-100.89,140L-100.821,140.357L-100.753,140.536L-100.548,140.714L-100.411,140.536L-100.342,140.714L-100.274,140.536L-100.205,140.357L-100.137,140.357L-100.068,140.357L-100,140.357L-99.932,140.179L-99.863,140L-99.795,140L-99.726,139.464L-99.658,139.643L-99.589,139.821L-99.452,139.643L-99.384,138.75L-99.316,138.036L-99.247,137.679L-99.179,137.679L-99.11,137.679L-99.042,137.143L-98.905,136.607L-98.836,136.786L-98.768,136.964L-98.494,137.321L-98.426,137.321L-98.357,137.5L-98.289,137.679L-98.084,137.679L-98.015,137.679L-97.947,137.857L-97.878,138.036L-97.81,137.679L-97.741,137.857L-97.467,138.036L-97.399,138.036L-97.331,138.214L-97.262,138.214L-97.057,138.393L-96.988,138.036L-96.92,138.036L-96.851,138.571L-96.715,138.571L-96.578,138.571L-96.509,138.571L-96.441,139.643L-96.372,140.179L-96.304,140.714L-96.235,140.714L-96.099,140.893L-96.03,141.071L-95.825,141.25L-95.756,141.071L-95.688,140.714L-95.619,140.536L-95.483,140.536L-95.414,140.357L-95.277,139.821L-95.209,138.929L-95.075,138.393L-95.006,138.393L-94.938,137.857L-94.869,138.214L-94.732,137.857L-94.664,138.036L-94.596,137.857L-94.527,137.857L-94.459,137.679L-94.39,137.679L-94.322,138.214L-94.185,137.857L-94.116,137.679L-94.048,137.679L-93.98,137.5L-93.706,137.679L-93.637,137.679L-93.5,137.5L-93.432,137.143L-93.364,136.786L-93.295,136.786L-93.227,136.964L-93.158,136.964L-93.09,135.179L-93.021,135.179L-92.953,134.464L-92.884,133.393L-92.816,132.5L-92.748,132.321L-92.679,132.679L-92.611,132.857L-92.542,132.5L-92.474,133.036L-92.405,131.607L-92.337,130.893L-92.268,130.536L-92.132,130L-92.063,130L-91.995,130L-91.926,129.464L-91.858,129.107L-91.789,128.571L-91.721,128.036L-91.584,126.25L-91.516,125.893L-91.447,124.464L-91.379,124.107L-91.31,124.286L-91.242,124.107L-91.173,123.036L-91.105,122.679L-91.036,122.5L-90.968,121.786L-90.899,123.214L-90.831,123.214L-90.763,122.5L-90.694,122.857L-90.626,123.929L-90.557,122.143L-90.489,121.786L-90.42,121.964L-90.352,121.071L-90.283,120.357L-90.215,121.25L-90.147,121.964L-90.078,120.179L-90.01,120.893L-89.941,119.821L-89.873,118.75L-89.804,117.5L-89.736,117.321L-89.667,117.857L-89.599,118.393L-89.531,118.571L-89.394,118.214L-89.325,119.286L-89.257,118.929L-89.188,118.393L-89.12,117.5L-89.051,118.571L-88.983,117.857L-88.915,117.5L-88.846,117.143L-88.778,116.607L-88.709,116.25L-88.641,116.429L-88.572,116.071L-88.504,114.821L-88.435,116.786L-88.367,116.071L-88.299,115.714L-88.23,116.071L-88.162,116.429L-88.093,116.25L-88.025,115.536L-87.956,117.143L-87.888,117.143L-87.819,117.321L-87.751,117.857L-87.683,119.107L-87.614,118.929L-87.546,118.571L-87.477,118.393L-87.409,119.643L-87.34,119.821L-87.272,120L-87.203,120.357L-87.135,120.357L-87.067,120L-86.998,118.75L-86.93,118.036L-86.861,118.214L-86.793,119.464L-86.724,118.929L-86.656,118.036L-86.587,118.393L-86.519,118.75L-86.45,118.929L-86.382,118.214L-86.314,119.464L-86.245,119.286L-86.177,119.821L-86.04,119.464L-85.971,118.929L-85.903,118.929L-85.834,119.107L-85.766,119.464L-85.698,120L-85.629,120.357L-85.561,120.536L-85.492,120.893L-85.424,121.429L-85.355,121.786L-85.287,121.964L-85.218,121.25L-85.15,120.536L-85.082,120.179L-85.013,118.75L-84.945,118.929L-84.876,120.536L-84.808,122.143L-84.739,121.25L-84.671,119.643L-84.602,120.536L-84.534,121.607L-84.466,122.679L-84.397,123.036L-84.329,123.75L-84.26,123.75L-84.123,123.929L-84.055,124.286L-83.986,123.75L-83.918,124.286L-83.85,125.536L-83.781,125.714L-83.713,125.357L-83.644,124.821L-83.576,124.286L-83.507,124.107L-83.439,124.107L-83.37,124.464L-83.302,124.286L-83.234,123.393L-83.165,122.857L-83.097,123.393L-83.028,123.214L-82.96,123.929L-82.891,126.071L-82.823,125.536L-82.754,124.464L-82.686,123.75L-82.617,122.857L-82.549,124.464L-82.481,124.643L-82.412,125L-82.344,124.107L-82.275,124.107L-82.207,124.286L-82.138,125L-82.07,124.107L-82.001,124.464L-81.933,125L-81.865,125.179L-81.728,124.286L-81.659,125.179L-81.591,125.893L-81.522,126.25L-81.454,127.143L-81.385,127.679L-81.317,127.857L-81.249,127.143L-81.18,127.679L-81.112,128.571L-81.043,128.929L-80.975,129.464L-80.906,130.357L-80.838,130.179L-80.701,130.357L-80.633,132.321L-80.564,132.857L-80.496,133.571L-80.427,135.714L-80.29,135.536L-80.222,135.893L-80.085,136.071L-79.948,136.607L-79.811,136.964L-79.743,136.429L-79.674,136.786L-79.606,137.5L-79.537,137.143L-79.469,137.5L-79.401,137.321L-79.332,137.857L-78.713,138.036L-78.576,138.036L-78.303,138.214L-78.234,138.214L-78.166,137.679L-78.097,137.679L-78.029,138.393L-77.892,138.393L-77.823,138.036L-77.755,138.036L-77.618,138.393L-77.55,138.393L-77.344,138.214L-77.276,137.857L-77.139,137.5L-77.07,137.857L-77.002,137.679L-76.934,137.321L-76.865,137.143L-76.797,137.321L-76.728,137.5L-76.66,137.679L-76.386,137.5L-76.318,138.214L-76.249,138.393L-76.181,138.75L-76.044,138.929L-75.907,138.75L-75.838,138.929L-75.702,139.286L-75.565,139.107L-75.496,139.107L-75.291,139.107L-75.222,139.107L-75.154,139.464L-75.017,139.107L-74.88,138.214L-74.812,138.036L-74.743,138.036L-74.675,138.214L-74.47,138.214L-74.401,138.214L-74.333,138.214L-74.264,137.857L-74.196,138.393L-74.127,137.679L-74.059,137.857L-73.854,137.857L-73.785,138.214L-73.717,138.036L-73.58,138.036L-73.511,138.393L-73.443,138.214L-73.374,138.214L-73.306,138.214L-73.032,138.214L-72.964,138.214L-72.895,138.393L-72.758,138.393L-72.621,138.214L-72.553,138.393L-72.485,138.393L-72.416,138.393L-72.005,138.393L-71.937,138.393L-71.869,138.75L-71.595,139.107L-71.458,138.929L-71.389,139.107L-71.321,139.107L-71.253,138.929L-71.184,138.571L-71.116,138.929L-70.979,139.464L-70.91,139.286L-70.773,140.179L-70.705,140.179L-70.637,140.536L-70.568,140.536L-70.5,140.714L-70.363,140.357L-70.229,140.357L-70.16,140.536L-70.092,140.536L-70.023,140.357L-69.886,140L-69.818,139.821L-69.75,139.643L-69.681,139.643L-69.544,139.286L-69.476,138.571L-69.339,138.393L-69.27,138.214L-69.065,137.679L-68.997,137.679L-68.86,137.143L-68.791,137.679L-68.586,137.321L-68.518,137.143L-68.381,137.321L-68.312,136.607L-68.244,136.786L-68.175,136.607L-68.038,135.893L-67.97,135.714L-67.902,135.714L-67.765,135.714L-67.696,135.893L-67.628,135.357L-67.559,134.643L-67.422,134.286L-67.354,134.107L-67.217,134.107L-67.149,132.679L-67.08,131.964L-67.012,131.964L-66.943,131.25L-66.875,129.821L-66.806,128.929L-66.738,127.857L-66.67,127.143L-66.601,126.429L-66.533,123.571L-66.396,122.143L-66.327,121.25L-66.259,121.786L-66.19,120.357L-66.122,120.893L-66.054,120.357L-65.985,118.393L-65.917,118.929L-65.848,119.286L-65.78,119.286L-65.711,119.643L-65.643,117.679L-65.574,117.143L-65.506,116.429L-65.437,115.536L-65.369,115.536L-65.301,115.536L-65.232,116.071L-65.164,115.179L-65.095,114.821L-64.958,115L-64.89,115L-64.821,114.107L-64.753,114.643L-64.685,115.893L-64.616,115.357L-64.548,116.071L-64.479,116.071L-64.411,116.429L-64.342,119.286L-64.274,121.25L-64.205,122.143L-64.137,121.964L-64.069,122.143L-64,121.25L-63.932,121.607L-63.863,122.143L-63.795,121.429L-63.726,120.893L-63.658,120.536L-63.589,119.464L-63.521,120.179L-63.453,120L-63.384,119.643L-63.316,119.464L-63.247,119.107L-63.179,119.107L-63.11,117.143L-63.042,116.964L-62.973,116.071L-62.905,117.143L-62.837,117.143L-62.768,117.5L-62.7,117.143L-62.631,115.357L-62.563,116.071L-62.494,116.25L-62.426,117.143L-62.357,115.536L-62.289,115.714L-62.221,115.536L-62.152,114.821L-62.084,115L-62.015,115.357L-61.947,116.25L-61.878,116.25L-61.81,117.679L-61.741,118.036L-61.673,117.321L-61.604,116.964L-61.536,118.214L-61.468,118.571L-61.399,118.036L-61.331,118.929L-61.262,118.75L-61.194,119.107L-61.125,118.75L-61.057,120.536L-60.988,121.071L-60.92,122.5L-60.852,122.143L-60.783,122.679L-60.715,122.857L-60.646,123.75L-60.578,124.821L-60.509,123.75L-60.441,124.286L-60.372,124.821L-60.304,126.071L-60.236,124.464L-60.167,123.75L-60.099,122.143L-60.03,122.143L-59.962,122.857L-59.893,121.607L-59.825,121.071L-59.756,120.179L-59.688,119.464L-59.62,120.179L-59.551,120.893L-59.483,120L-59.414,119.464L-59.277,120.179L-59.209,120.179L-59.14,121.25L-59.072,121.786L-59.004,122.5L-58.935,122.857L-58.867,123.036L-58.798,122.857L-58.73,123.036L-58.661,123.214L-58.593,123.929L-58.524,123.393L-58.456,123.75L-58.388,125L-58.251,124.821L-58.182,123.929L-58.114,124.464L-58.045,125.536L-57.977,126.25L-57.908,128.036L-57.84,128.036L-57.772,128.214L-57.703,129.464L-57.635,129.464L-57.566,129.107L-57.498,129.464L-57.429,129.107L-57.361,128.571L-57.292,129.464L-57.224,130.714L-57.087,130.893L-57.019,130L-56.813,129.821L-56.745,129.464L-56.676,129.643L-56.608,129.464L-56.539,130L-56.471,129.643L-56.403,129.821L-56.334,129.107L-56.266,129.107L-56.197,129.643L-56.129,129.821L-56.06,127.321L-55.992,126.429L-55.923,125.179L-55.855,125.357L-55.787,125.893L-55.718,126.071L-55.65,124.107L-55.581,123.929L-55.444,123.571L-55.376,123.036L-55.307,123.036L-55.239,124.107L-55.171,124.821L-55.102,125L-55.034,125.357L-54.965,124.286L-54.897,124.464L-54.828,124.643L-54.76,125.893L-54.691,126.25L-54.623,126.786L-54.486,126.964L-54.418,126.607L-54.349,126.071L-54.281,126.071L-54.212,125.714L-54.144,125.714L-54.007,125.714L-53.936,125.714L-53.867,126.25L-53.799,127.679L-53.73,128.929L-53.662,131.071L-53.593,131.071L-53.525,131.071L-53.457,130.893L-53.388,133.571L-53.32,133.929L-53.251,134.107L-53.183,134.643L-53.114,135.536L-53.046,135.714L-52.977,136.071L-52.909,136.607L-52.841,136.964L-52.772,138.036L-52.498,138.393L-52.43,138.393L-52.361,138.214L-52.293,138.214L-52.088,138.036L-52.019,137.857L-51.951,138.393L-51.882,138.75L-51.814,138.214L-51.745,138.393L-51.677,138.036L-51.54,138.036L-51.403,138.036L-51.335,138.036L-51.266,139.464L-51.198,138.929L-50.992,138.214L-50.65,138.214L-50.582,137.679L-50.445,137.857L-50.376,137.857L-50.308,137.857L-50.24,137.679L-49.897,137.857L-49.692,138.036L-49.624,138.036L-49.555,138.036L-49.418,138.214L-49.35,138.214L-49.213,137.679L-49.144,137.143L-49.076,136.607L-49.008,136.607L-48.939,136.071L-48.871,135.893L-48.802,135.893L-48.734,135.893L-48.665,136.071L-48.597,136.964L-48.528,137.143L-48.392,138.214L-48.255,138.036L-48.118,138.036L-48.049,137.679L-47.981,137.679L-47.912,137.857L-47.844,138.393L-47.775,138.571L-47.707,139.107L-47.639,138.929L-47.502,138.929L-47.433,138.393L-47.365,138.75L-47.296,137.857L-47.228,137.857L-46.749,137.5L-46.68,137.5L-46.612,137.5L-46.543,137.321L-46.475,138.214L-46.407,138.75L-46.338,139.464L-46.27,139.643L-46.201,139.643L-46.133,140L-45.996,140.179L-45.927,139.821L-45.791,139.643L-45.722,139.821L-45.654,139.286L-45.585,139.286L-45.38,138.571L-45.314,137.321L-45.246,137.679L-45.177,137.679L-45.04,138.036L-44.972,138.214L-44.904,138.036L-44.767,138.036L-44.698,138.214L-44.63,138.214L-44.493,138.75L-44.424,138.214L-44.356,138.75L-44.288,138.571L-44.151,138.929L-44.082,138.75L-44.014,138.571L-43.877,138.571L-43.808,138.214L-43.74,137.679L-43.672,137.5L-43.603,137.143L-43.466,137.143L-43.398,136.964L-43.329,136.25L-43.261,136.25L-43.192,136.429L-43.124,136.25L-43.056,136.786L-42.987,136.429L-42.919,136.786L-42.85,136.607L-42.576,136.429L-42.508,135L-42.44,134.821L-42.371,134.107L-42.303,134.286L-42.234,134.286L-42.166,133.393L-42.097,132.679L-42.029,130.536L-41.96,129.821L-41.892,129.107L-41.824,128.036L-41.755,127.143L-41.687,127.321L-41.618,125.536L-41.55,124.464L-41.481,123.929L-41.413,123.75L-41.344,122.143L-41.276,122.5L-41.208,122.321L-41.139,121.429L-41.071,119.464L-41.002,118.75L-40.934,117.857L-40.865,117.679L-40.797,117.679L-40.728,117.5L-40.591,114.821L-40.523,113.929L-40.455,112.857L-40.386,113.75L-40.318,113.214L-40.249,111.25L-40.181,110.714L-40.112,108.929L-40.044,109.107L-39.975,109.286L-39.907,110.179L-39.839,108.929L-39.77,109.464L-39.702,109.464L-39.633,109.821L-39.565,108.393L-39.496,109.643L-39.428,109.821L-39.359,110.536L-39.291,111.25L-39.223,112.5L-39.154,111.607L-39.086,112.143L-39.017,112.321L-38.949,114.464L-38.88,115.357L-38.812,115.714L-38.743,115.536L-38.675,115.357L-38.607,115.357L-38.538,118.393L-38.47,119.821L-38.401,120L-38.333,120.357L-38.264,119.821L-38.196,122.143L-38.127,122.5L-38.059,122.5L-37.991,122.143L-37.922,121.964L-37.854,123.036L-37.785,125.536L-37.717,125.893L-37.648,126.25L-37.58,126.25L-37.511,127.679L-37.443,127.679L-37.375,128.571L-37.306,128.571L-37.238,127.321L-37.169,126.786L-37.101,127.143L-37.032,126.964L-36.964,127.5L-36.895,127.679L-36.827,127.5L-36.758,127.857L-36.69,128.214L-36.622,128.036L-36.553,128.75L-36.485,128.929L-36.416,128.75L-36.348,128.393L-36.279,128.75L-36.211,129.464L-36.142,129.643L-36.074,129.643L-36.006,131.25L-35.937,132.143L-35.869,132.857L-35.8,132.321L-35.732,132.143L-35.663,132.143L-35.595,133.036L-35.526,132.857L-35.458,131.964L-35.39,131.964L-35.321,130.357L-35.253,128.75L-35.184,129.821L-35.116,130.893L-34.979,131.071L-34.842,130.179L-34.774,129.821L-34.705,130.179L-34.637,130L-34.568,130.179L-34.5,130.179L-34.431,130.179L-34.363,129.464L-34.294,129.286L-34.226,129.643L-34.089,131.071L-34.021,130.893L-33.952,131.071L-33.884,130.893L-33.815,130.893L-33.747,131.071L-33.678,130.357L-33.61,128.571L-33.542,128.929L-33.473,128.571L-33.405,128.036L-33.336,128.036L-33.268,128.75L-33.199,129.643L-33.131,130L-33.062,131.607L-32.994,133.214L-32.926,133.214L-32.857,132.5L-32.789,132.5L-32.72,131.25L-32.652,131.071L-32.583,130.536L-32.515,130.179L-32.378,129.464L-32.309,128.036L-32.241,128.214L-32.036,128.036L-31.967,128.214L-31.899,128.929L-31.83,128.393L-31.762,128.393L-31.693,128.571L-31.625,127.857L-31.557,127.5L-31.488,127.5L-31.42,127.857L-31.351,129.643L-31.283,128.75L-31.214,129.107L-31.146,129.464L-31.077,129.286L-31.009,129.286L-30.941,128.393L-30.872,127.857L-30.804,127.5L-30.735,127.143L-30.598,126.964L-30.53,127.5L-30.461,127.5L-30.393,129.464L-30.325,130.179L-30.256,130.714L-30.188,131.25L-30.119,131.964L-29.982,133.393L-29.914,133.75L-29.845,134.464L-29.777,133.75L-29.709,133.571L-29.435,134.107L-29.366,134.286L-29.298,134.464L-29.229,135.536L-29.161,135.893L-29.021,135.536L-28.953,136.071L-28.884,136.071L-28.816,137.321L-28.747,137.5L-28.679,137.857L-28.611,138.036L-28.542,138.036L-28.474,138.929L-28.405,139.643L-28.337,139.821L-28.268,140.179L-28.2,140.357L-27.995,140.536L-27.926,140.893L-27.858,141.25L-27.652,141.429L-27.036,141.25L-26.968,141.607L-26.899,141.429L-26.831,141.607L-26.762,141.607L-26.557,141.071L-26.489,141.786L-26.42,141.071L-26.352,140.893L-26.283,140.714L-26.215,140.714L-26.146,140.357L-26.078,140.536L-25.941,140.893L-25.736,140L-25.599,139.464L-25.53,139.107L-25.257,139.107L-25.188,139.107L-25.12,138.929L-25.051,138.036L-24.983,137.857L-24.914,138.036L-24.846,138.393L-24.778,138.393L-24.435,138.571L-24.367,138.214L-24.23,138.214L-24.162,138.393L-24.093,138.036L-24.025,138.214L-23.956,138.214L-23.888,138.036L-23.819,138.036L-23.682,138.036L-23.614,138.571L-23.546,137.5L-23.477,138.036L-23.409,136.964L-23.272,136.429L-23.203,135.893L-22.861,135.357L-22.724,135.179L-22.656,134.643L-22.587,135.179L-22.519,135.714L-22.382,135.357L-22.245,135L-22.177,134.643L-22.108,134.821L-22.04,135.536L-21.903,135.714L-21.766,135.536L-21.697,135.536L-21.629,135.536L-21.561,135.357L-21.355,134.821L-21.218,134.464L-21.15,134.464L-21.081,134.464L-21.013,134.107L-20.945,133.571L-20.876,133.571L-20.739,132.679L-20.671,132.679L-20.465,132.679L-20.4,133.393L-20.331,133.571L-20.263,134.643L-20.195,135L-20.126,135L-20.058,134.821L-19.989,134.286L-19.852,134.107L-19.715,133.75L-19.578,133.571L-19.51,134.107L-19.442,134.464L-19.373,134.286L-19.305,133.571L-19.236,132.143L-19.168,131.786L-19.099,131.429L-18.894,131.071L-18.826,130.893L-18.757,129.643L-18.689,129.821L-18.62,127.679L-18.552,127.321L-18.483,126.071L-18.415,125.893L-18.278,126.25L-18.21,125.536L-18.141,126.071L-18.073,125L-18.004,124.821L-17.936,123.571L-17.867,121.429L-17.73,120.893L-17.662,120L-17.594,119.464L-17.525,117.857L-17.457,117.143L-17.388,117.679L-17.32,117.679L-17.251,117.857L-17.183,118.036L-17.114,116.607L-17.046,116.071L-16.978,115L-16.909,115.714L-16.841,115.714L-16.772,115.179L-16.704,114.464L-16.635,113.929L-16.567,115.179L-16.498,114.643L-16.43,116.964L-16.362,117.321L-16.293,117.857L-16.225,118.036L-16.156,117.5L-16.088,117.679L-16.019,116.429L-15.951,115.179L-15.882,114.821L-15.814,114.464L-15.745,115.179L-15.677,115.179L-15.609,115.893L-15.54,115.893L-15.472,117.143L-15.403,118.036L-15.335,118.036L-15.266,117.857L-15.129,116.786L-15.061,116.429L-14.993,116.786L-14.924,117.143L-14.856,118.214L-14.787,118.571L-14.719,117.679L-14.65,118.214L-14.582,119.107L-14.513,119.286L-14.445,119.464L-14.377,120.536L-14.308,118.75L-14.24,118.571L-14.171,118.75L-14.103,117.857L-14.034,117.321L-13.966,118.036L-13.897,118.393L-13.829,118.393L-13.761,116.607L-13.692,116.429L-13.624,117.321L-13.555,117.321L-13.487,117.5L-13.418,118.393L-13.35,119.107L-13.281,118.214L-13.213,117.679L-13.145,117.679L-13.076,118.036L-13.008,117.679L-12.939,116.607L-12.871,115.714L-12.734,116.25L-12.665,115.536L-12.597,116.429L-12.529,115.357L-12.46,114.464L-12.392,115L-12.323,113.929L-12.255,113.571L-12.186,113.393L-12.118,112.857L-12.049,113.393L-11.981,113.75L-11.913,114.286L-11.844,114.286L-11.776,114.821L-11.707,114.286L-11.639,115.893L-11.57,117.321L-11.502,116.964L-11.433,115.714L-11.365,115.536L-11.296,114.821L-11.228,112.857L-11.16,113.75L-11.091,113.929L-11.023,113.393L-10.954,113.75L-10.886,114.286L-10.817,115.179L-10.749,115.893L-10.68,114.286L-10.612,114.821L-10.544,114.643L-10.407,115L-10.338,114.464L-10.27,113.214L-10.201,112.5L-10.133,111.25L-10.064,113.393L-9.996,112.5L-9.928,112.143L-9.859,110.357L-9.791,108.929L-9.722,107.857L-9.654,107.5L-9.585,109.286L-9.517,109.286L-9.448,109.286L-9.38,110L-9.312,110.536L-9.243,110L-9.175,110L-9.106,112.321L-9.038,112.143L-8.969,111.964L-8.901,113.036L-8.832,112.679L-8.764,112.5L-8.696,112.321L-8.627,112.143L-8.559,112.857L-8.49,111.786L-8.422,112.143L-8.353,113.214L-8.285,114.286L-8.216,113.929L-8.148,115.357L-8.08,116.964L-8.011,116.429L-7.943,117.5L-7.874,118.036L-7.806,119.464L-7.737,119.286L-7.669,120L-7.6,120L-7.532,119.821L-7.463,119.107L-7.395,119.464L-7.327,119.643L-7.258,119.643L-7.19,120.357L-7.121,119.821L-7.053,119.286L-6.984,119.286L-6.916,117.857L-6.779,118.214L-6.711,118.75L-6.642,118.929L-6.574,120.357L-6.505,120.893L-6.437,121.607L-6.368,122.679L-6.3,121.786L-6.231,119.821L-6.163,119.286L-6.026,120L-5.889,118.393L-5.821,117.321L-5.752,117.857L-5.684,118.036L-5.615,118.036L-5.547,118.75L-5.479,121.071L-5.41,120.357L-5.342,121.429L-5.273,122.679L-5.205,123.214L-5.136,122.679L-5.068,122.321L-4.999,123.75L-4.931,123.75L-4.863,124.464L-4.794,125.357L-4.726,125.893L-4.657,127.857L-4.589,127.857L-4.52,128.036L-4.452,126.607L-4.383,126.607L-4.315,126.964L-4.247,127.143L-4.178,127.679L-4.107,128.036L-4.038,130L-3.97,130.714L-3.901,131.25L-3.833,132.857L-3.765,133.571L-3.696,133.393L-3.628,133.571L-3.559,133.571L-3.491,133.214L-3.422,133.214L-3.354,134.286L-3.217,134.286L-3.149,134.286L-3.012,135.357L-2.943,136.25L-2.875,136.071L-2.738,135.893L-2.669,136.071L-2.601,136.786L-2.533,136.071L-2.464,136.071L-2.396,135.357L-2.327,135L-2.259,135L-2.19,136.607L-2.122,136.607L-2.053,136.786L-1.985,136.964L-1.916,136.964L-1.848,137.679L-1.78,137.679L-1.711,137.857L-1.643,138.393L-1.574,138.75L-1.437,139.107L-1.369,139.286L-1.3,138.929L-1.232,139.107L-1.164,140L-1.095,139.821L-0.958,140L-0.89,139.464L-0.753,139.464L-0.684,139.107L-0.616,138.929L-0.548,139.643L-0.479,139.286L-0.342,139.107L-0.274,139.107L-0.205,139.821L-0.137,140L-0.068,140.893L0.068,141.071L0.137,140.714L0.205,140.714L0.274,140.714L0.479,138.75L0.548,137.679L0.684,137.321L0.753,137.321L0.89,136.607L0.958,136.786L1.027,136.25L1.095,136.25L1.164,136.429L1.232,136.25L1.3,136.071L1.369,135.893L1.643,135.893L1.78,135.893L2.19,135.714L2.259,135.893L2.327,135.179L2.396,135.179L2.464,135.357L2.533,135.179L2.601,135.714L2.669,135.893L2.738,135.714L2.806,135.714L2.875,135.714L2.943,135.536L3.217,135.714L3.285,136.071L3.422,135.714L3.491,135.357L3.559,137.321L3.628,137.857L3.696,138.214L3.765,137.857L3.833,138.214L3.97,137.679L4.038,137.857L4.107,137.679L4.244,137.5L4.312,137.679L4.381,138.214L4.449,138.214L4.517,138.036L4.586,137.679L4.654,137.679L4.723,138.036L4.791,138.75L4.86,138.929L4.994,138.929L5.062,139.107L5.131,139.107L5.199,139.107L5.268,139.107L5.336,139.107L5.473,138.75L5.541,138.75L5.61,138.393L5.678,138.393L5.747,138.75L5.815,139.107L5.952,139.107L6.02,139.643L6.089,139.643L6.157,139.821L6.226,139.643L6.294,139.821L6.5,140.179L6.568,140.179L6.636,139.286L6.705,138.929L6.773,139.107L6.842,138.929L6.91,139.107L6.979,139.464L7.047,139.464L7.184,139.464L7.252,138.571L7.321,138.571L7.458,138.571L7.526,137.679L7.595,137.143L7.663,136.786L7.732,135.357L7.868,135L7.937,134.464L8.005,133.929L8.074,134.286L8.142,133.571L8.211,133.214L8.279,130.357L8.348,129.821L8.416,129.643L8.484,129.286L8.553,128.214L8.621,127.5L8.69,126.964L8.827,125.357L8.895,124.643L8.964,125L9.101,124.821L9.169,123.393L9.237,123.393L9.306,122.679L9.374,122.857L9.443,122.5L9.511,121.964L9.58,121.786L9.648,120.179L9.785,119.821L9.853,119.286L9.99,118.393L10.059,118.75L10.127,118.929L10.196,118.571L10.264,119.107L10.333,118.75L10.401,117.5L10.469,117.5L10.538,117.5L10.606,120.357L10.675,120.357L10.743,118.571L10.812,118.214L10.88,118.393L10.949,119.464L11.017,119.286L11.085,120.536L11.222,120.714L11.291,120.536L11.359,119.821L11.428,120L11.496,118.75L11.565,118.75L11.633,117.857L11.701,117.679L11.77,118.214L11.838,119.107L11.907,120.714L11.975,120.357L12.044,121.071L12.112,121.071L12.181,120.893L12.249,121.25L12.317,120.536L12.386,120.536L12.454,121.429L12.523,122.321L12.591,121.964L12.66,121.071L12.728,120L12.797,120L12.865,121.607L12.933,121.964L13.002,122.857L13.07,121.607L13.139,120.893L13.207,120.357L13.276,120.536L13.344,120.536L13.413,121.786L13.481,122.321L13.55,123.214L13.618,123.214L13.686,123.214L13.755,123.214L13.823,121.25L13.892,121.25L13.96,121.071L14.029,121.25L14.097,121.25L14.166,121.607L14.234,121.429L14.302,121.607L14.371,123.036L14.439,122.679L14.508,121.429L14.576,120.357L14.645,119.821L14.713,119.821L14.782,119.643L14.85,119.643L14.918,119.464L14.987,119.464L15.055,119.286L15.124,119.643L15.192,120.714L15.261,121.25L15.329,119.643L15.398,119.643L15.466,118.929L15.534,119.107L15.603,119.464L15.671,119.286L15.74,119.286L15.808,120L15.877,121.786L15.945,120.714L16.014,120L16.082,120.179L16.15,119.821L16.219,120.893L16.287,120L16.356,119.821L16.424,118.75L16.493,119.107L16.561,120L16.63,121.25L16.698,122.5L16.766,123.214L16.835,124.107L16.972,124.464L17.04,124.821L17.109,125L17.177,125.357L17.246,126.429L17.314,126.607L17.383,126.607L17.451,127.679L17.519,128.571L17.588,128.393L17.656,128.75L17.725,127.857L17.793,127.5L17.862,128.036L17.93,127.857L17.999,127.857L18.067,128.929L18.135,130L18.204,129.107L18.272,130L18.341,130L18.409,131.25L18.478,132.143L18.546,133.214L18.615,133.036L18.751,133.036L18.82,132.857L18.888,133.214L19.025,133.571L19.094,133.929L19.162,133.036L19.231,133.036L19.299,133.393L19.367,133.036L19.436,132.143L19.504,132.679L19.573,132.321L19.641,133.036L19.71,133.036L19.778,133.929L19.847,133.75L19.915,134.643L19.983,135.536L20.052,135.536L20.12,135.357L20.257,135.536L20.326,135.536L20.394,135.536L20.463,135.893L20.531,135.714L20.599,135.536L20.668,135.357L20.736,135.536L20.805,135.179L20.873,135.357L20.942,135.179L21.01,135.536L21.147,135.357L21.215,135L21.287,135L21.355,136.071L21.424,136.25L21.492,136.071L21.561,136.429L21.629,137.5L21.766,137.5L21.834,138.214L21.903,138.571L21.971,138.393L22.04,138.214L22.108,138.571L22.177,138.929L22.245,138.929L22.313,139.286L22.382,139.643L22.519,139.464L22.656,139.643L22.724,139.643L22.861,138.393L22.93,138.571L22.998,138.75L23.135,138.929L23.34,136.964L23.409,137.143L23.477,137.321L23.546,137.679L23.682,136.964L23.751,136.964L23.819,134.643L23.956,134.643L24.162,134.643L24.23,134.464L24.298,134.643L24.367,134.643L24.435,133.393L24.641,133.393L24.709,133.214L24.778,133.214L24.846,133.214L24.983,133.214L25.051,133.214L25.12,133.036L25.188,133.393L25.257,132.321L25.394,132.143L25.462,132.321L25.667,132.321L25.736,132.143L25.804,134.286L25.873,134.286L25.941,134.107L26.078,133.75L26.146,135.536L26.215,135.179L26.283,135.357L26.352,135.714L26.42,136.071L26.489,136.25L26.557,138.571L26.626,138.393L26.694,138.214L26.831,138.036L26.899,137.679L26.968,137.679L27.036,138.929L27.173,138.571L27.242,138.214L27.379,138.036L27.515,138.036L27.584,138.214L27.652,138.036L27.721,138.036L28.131,138.036L28.2,138.75L28.268,138.214L28.337,138.214L28.405,138.036L28.474,137.857L28.542,136.964L28.611,136.786L28.679,136.964L28.747,137.143L28.816,136.786L28.884,137.321L29.021,136.607L29.09,136.607L29.158,136.607L29.227,136.607L29.363,136.964L29.432,136.429L29.5,135.536L29.637,135.536L29.706,135.893L29.843,135.536L29.908,135.536L30.114,135.714L30.182,136.071L30.25,135.893L30.319,135.714L30.387,135.714L30.456,135.536L30.593,135.714L30.661,135.536L30.73,135.714L30.866,135.179L30.935,135.179L31.003,134.464L31.072,134.107L31.14,134.643L31.209,134.107L31.277,133.75L31.346,133.75L31.414,133.929L31.482,133.571L31.551,132.143L31.619,131.607L31.688,131.607L31.825,131.607L31.893,131.429L31.962,131.964L32.03,132.679L32.098,132.5L32.235,132.143L32.304,132.143L32.372,131.786L32.441,131.964L32.509,131.429L32.578,131.607L32.646,131.964L32.714,131.607L32.783,131.786L32.92,130.893L32.988,130.357L33.057,130.179L33.125,131.429L33.194,131.071L33.262,131.786L33.33,132.143L33.467,131.429L33.536,132.321L33.673,132.321L33.741,131.964L33.81,131.964L33.878,132.143L33.946,133.571L34.015,133.393L34.083,133.214L34.22,132.857L34.289,133.036L34.357,133.036L34.426,133.393L34.494,133.571L34.563,133.75L34.631,132.679L34.699,132.321L34.836,131.964L34.973,132.679L35.042,132.143L35.11,131.071L35.179,130.357L35.247,129.821L35.315,129.464L35.452,129.821L35.521,130.179L35.589,129.286L35.658,129.643L35.726,129.107L35.795,127.857L35.863,128.571L35.931,128.214L36,127.857L36.068,128.036L36.137,127.321L36.205,125.893L36.274,126.25L36.342,126.964L36.411,126.964L36.479,127.321L36.547,126.429L36.616,125.179L36.684,124.464L36.753,123.571L36.821,123.036L36.89,124.107L36.958,123.929L37.027,122.857L37.095,121.786L37.163,122.321L37.232,123.036L37.3,123.929L37.369,124.286L37.437,124.643L37.506,124.464L37.574,122.321L37.643,122.143L37.711,121.964L37.779,122.321L37.848,123.75L37.916,123.036L37.985,123.214L38.053,123.036L38.122,122.321L38.19,123.214L38.259,123.929L38.327,123.929L38.396,123.929L38.532,123.929L38.601,123.571L38.669,124.464L38.738,125.357L38.806,125.714L38.875,126.607L38.943,126.964L39.012,126.25L39.08,126.25L39.148,127.5L39.217,128.571L39.285,128.393L39.422,128.75L39.491,128.929L39.559,128.75L39.628,129.286L39.696,129.643L39.764,131.071L39.833,132.143L39.97,132.321L40.038,132.321L40.107,132.143L40.175,133.214L40.244,133.214L40.312,134.107L40.38,133.571L40.449,131.25L40.517,130.536L40.586,130.714L40.654,130.357L40.723,130.357L40.791,130.179L40.86,129.643L40.928,129.821L40.996,129.821L41.065,129.821L41.133,129.107L41.202,129.643L41.27,129.821L41.339,128.929L41.407,127.679L41.476,127.679L41.544,127.679L41.612,127.679L41.681,128.214L41.749,128.214L41.886,128.036L41.955,128.571L42.023,128.036L42.092,127.679L42.16,128.036L42.297,128.036L42.365,127.679L42.434,127.857L42.502,127.5L42.571,128.571L42.639,130L42.708,131.25L42.776,130.893L42.845,130.536L42.913,130.179L42.981,130L43.05,130.714L43.118,130.536L43.187,129.464L43.255,129.464L43.324,130.536L43.392,130.893L43.461,131.071L43.529,131.786L43.597,132.679L43.666,132.679L43.734,132.143L43.803,131.607L43.871,131.071L43.94,130.536L44.008,130.714L44.077,129.464L44.145,129.464L44.213,129.821L44.35,129.821L44.419,130.179L44.487,130.357L44.556,130.179L44.624,130.357L44.693,130.357L44.761,130.357L44.829,130L44.898,130.357L44.966,130.893L45.035,131.607L45.103,132.143L45.172,132.143L45.24,132.5L45.309,133.75L45.377,133.75L45.445,132.679L45.514,131.607L45.582,130.714L45.651,131.071L45.719,131.429L45.788,131.607L45.856,131.429L45.925,130.536L45.993,130.714L46.061,131.071L46.13,131.25L46.201,132.679L46.27,133.036L46.338,132.857L46.407,132.857L46.543,132.857L46.612,132.679L46.68,132.857L46.749,132.5L46.817,132.679L46.886,133.571L46.954,134.286L47.023,134.464L47.159,134.643L47.228,134.643L47.296,134.643L47.433,134.643L47.57,134.643L47.707,134.821L47.775,135.179L47.844,136.25L47.912,137.5L47.981,138.929L48.049,138.929L48.118,138.75L48.186,138.929L48.255,139.286L48.392,140.714L48.665,140.536L48.734,140.893L48.802,140.714L48.871,140.714L49.008,140.714L49.076,140.893L49.144,140.714L49.213,140.714L49.281,140.714L49.35,140.714L49.418,141.071L49.487,141.607L49.624,141.786L49.76,141.786L49.966,141.607L50.103,141.429L50.171,141.429L50.65,141.607L50.719,140.893L50.787,141.071L50.924,140.714L51.266,140.536L51.335,140.536L51.472,140.179L51.54,140.179L51.608,140L51.814,140.179L51.951,140L52.088,140.357L52.156,140.179L52.225,140.357L52.293,140.536L52.361,140.714L52.43,140.714L52.498,140.893L52.567,140.714L52.635,140.893L52.704,139.821L52.772,139.643L52.909,139.643L52.977,139.464L53.046,138.929L53.183,138.393L53.525,137.5L53.593,137.321L53.662,137.5L53.73,137.5L53.867,137.321L53.936,137.321L54.004,137.143L54.073,137.143L54.141,137.321L54.209,137.143L54.278,137.321L54.415,137.143L55.028,137.143L55.096,136.429L55.165,136.25L55.233,136.071L55.302,136.071L55.37,136.071L55.576,135.357L55.644,135L55.712,133.929L55.781,133.929L55.849,134.107L55.918,134.107L55.986,135.179L56.055,135.714L56.123,135.179L56.192,135.536L56.26,135L56.328,135.357L56.397,135.357L56.465,135.714L56.534,135.714L56.671,135.179L56.739,134.286L56.808,133.75L56.876,133.929L56.944,133.214L57.013,132.5L57.081,132.143L57.15,131.607L57.287,131.25L57.355,131.25L57.424,131.964L57.56,131.25L57.629,131.25L57.697,131.071L57.766,130.893L57.834,131.429L57.903,131.429L57.971,132.143L58.04,131.429L58.108,131.25L58.176,131.25L58.245,131.071L58.313,130.714L58.382,130.893L58.45,130.536L58.519,129.643L58.587,129.286L58.656,130.179L58.724,130.179L58.792,128.929L58.861,129.464L58.929,129.821L59.066,131.071L59.135,130.714L59.203,131.607L59.272,131.786L59.34,131.071L59.409,131.429L59.545,131.786L59.614,131.607L59.682,131.071L59.751,131.964L59.819,131.607L59.888,131.071L59.956,131.25L60.025,131.071L60.161,131.25L60.23,131.429L60.298,131.786L60.435,130.357L60.504,129.643L60.572,129.464L60.641,128.75L60.709,128.036L60.777,128.214L60.846,128.75L60.914,127.679L60.983,126.429L61.051,125.714L61.12,125.179L61.188,123.036L61.257,123.036L61.325,122.5L61.393,121.429L61.462,120.536L61.53,119.821L61.599,120L61.667,120L61.736,119.821L61.804,120.179L61.873,119.643L61.941,119.107L62.009,119.107L62.078,119.643L62.146,119.821L62.215,119.643L62.283,119.464L62.42,118.571L62.489,118.036L62.557,118.393L62.625,118.571L62.694,117.679L62.762,118.75L62.831,119.464L62.899,118.929L62.968,120.179L63.036,121.071L63.105,121.786L63.173,121.786L63.242,123.393L63.31,125.357L63.378,126.071L63.447,126.071L63.515,127.143L63.584,128.214L63.652,129.464L63.721,130.536L63.789,130.536L63.858,130.714L63.926,130.179L63.994,131.25L64.063,131.786L64.131,132.143L64.2,131.964L64.268,131.25L64.337,130.893L64.405,131.071L64.474,131.429L64.542,131.964L64.61,132.143L64.679,131.964L64.747,132.5L64.816,131.964L64.884,132.143L64.953,132.321L65.021,132.5L65.09,132.5L65.158,132.679L65.226,133.393L65.295,133.036L65.363,132.679L65.432,132.143L65.5,131.25L65.569,130.893L65.637,130L65.774,129.821L65.842,129.107L65.979,129.107L66.116,129.107L66.253,128.929L66.322,128.929L66.39,129.107L66.458,128.929L66.527,129.464L66.595,130.357L66.664,131.071L66.732,130.536L66.801,130.893L66.869,130.536L66.938,131.25L67.006,131.786L67.074,131.786L67.143,131.964L67.211,131.786L67.28,131.786L67.348,130.893L67.417,131.25L67.485,131.25L67.554,130.714L67.622,130.714L67.691,130.536L67.759,131.071L67.827,132.5L67.896,133.214L67.964,133.571L68.033,133.75L68.101,133.929L68.17,134.107L68.238,133.571L68.307,133.571L68.375,133.214L68.443,133.036L68.512,133.393L68.58,133.214L68.717,132.857L68.786,132.857L68.854,132.857L68.923,132.857L68.991,133.571L69.059,133.75L69.128,133.393L69.196,133.929L69.265,134.107L69.333,134.286L69.402,134.821L69.539,135.179L69.675,134.821L69.744,135.179L69.812,135.714L69.881,136.25L69.949,136.25L70.018,135.714L70.291,135.536L70.36,135.179L70.565,135.536L70.634,135.179L70.702,135.714L70.771,135.357L70.839,136.071L70.907,136.429L70.976,136.786L71.044,136.786L71.116,136.607L71.184,136.607L71.253,136.429L71.321,136.607L71.389,137.143L71.526,137.5L71.595,137.5L71.663,137.5L71.732,138.036L71.869,138.214L71.937,137.857L72.005,138.036L72.074,138.036L72.142,138.571L72.211,139.286L72.279,139.286L72.348,139.286L72.416,139.286L72.621,140L72.69,140.357L72.758,140.536L72.827,140.714L72.895,140.357L72.964,140.714L73.032,140.179L73.169,140.714L73.238,140.536L73.306,140.536L73.374,140.536L73.511,140.536L73.58,140.179L73.648,140L73.717,140.357L73.785,139.821L73.854,138.571L73.922,138.571L73.99,138.214L74.059,138.393L74.127,138.214L74.196,138.214L74.264,138.75L74.47,138.393L74.606,138.393L74.675,138.393L74.743,138.393L74.812,138.036L74.88,137.321L74.949,136.786L75.017,136.964L75.086,136.964L75.154,136.429L75.222,136.429L75.291,136.607L75.428,136.429L75.496,136.964L75.565,136.964L75.633,137.143L75.702,137.5L75.77,137.321L75.838,137.5L75.975,138.036L76.044,137.857L76.181,137.857L76.249,138.036L76.318,138.393L76.523,138.214L76.591,138.571L76.934,138.571L77.002,138.75L77.07,138.571L77.139,138.571L77.207,138.929L77.276,138.929L77.344,138.929L77.413,138.571L77.481,138.75L77.55,139.286L77.618,139.643L77.687,139.107L77.823,139.107L77.96,139.286L78.029,139.464L78.097,139.643L78.166,139.643L78.234,138.929L78.439,138.75L78.508,138.75L78.576,138.214L78.645,138.036L78.713,137.857L78.782,137.321L78.85,137.143L78.919,136.25L78.987,136.071L79.055,136.964L79.124,136.607L79.192,136.429L79.261,136.429L79.398,136.25L79.535,135.893L79.603,135.714L79.671,135.357L79.805,134.821L79.942,134.464L80.011,134.464L80.079,134.464L80.216,134.643L80.285,134.643L80.353,135.179L80.422,135.357L80.49,135.536L80.558,135.179L80.627,135L80.695,134.464L80.764,134.821L80.832,135L80.901,134.821L80.969,135.179L81.038,135.536L81.174,134.286L81.243,130.357L81.311,130.714L81.38,131.429L81.448,130.179L81.517,130L81.585,130.179L81.654,130.357L81.722,130.357L81.859,130.357L81.927,130.536L81.996,130.714L82.133,130.714L82.201,130.179L82.27,129.286L82.338,129.286L82.406,129.286L82.475,128.75L82.543,128.036L82.612,127.857L82.68,127.5L82.749,126.786L82.817,126.786L82.886,126.607L82.954,126.964L83.022,126.964L83.091,126.429L83.159,126.071L83.228,126.071L83.296,125.714L83.365,126.964L83.433,130.536L83.57,130.536L83.638,130L83.707,131.429L83.775,131.429L83.844,131.607L83.912,131.071L83.981,130.179L84.049,130L84.118,130.179L84.186,129.643L84.255,129.643L84.323,130.357L84.391,131.429L84.46,131.429L84.528,131.429L84.597,131.964L84.665,132.679L84.734,132.857L84.802,133.214L84.871,134.107L84.939,133.571L85.007,132.857L85.076,132.321L85.144,131.964L85.213,131.607L85.281,132.143L85.35,132.143L85.418,131.786L85.487,130.536L85.555,130.714L85.623,131.071L85.692,131.786L85.76,131.607L85.829,131.071L85.897,130.893L85.966,131.071L86.034,131.429L86.103,131.25L86.171,130.536L86.239,130L86.308,128.929L86.376,128.214L86.445,128.214L86.513,128.393L86.582,128.393L86.65,128.393L86.719,127.857L86.787,127.5L86.855,126.429L86.924,125.536L86.992,125.893L87.061,126.964L87.129,127.679L87.198,127.5L87.266,127.5L87.335,126.964L87.403,126.786L87.471,126.786L87.54,128.036L87.677,128.571L87.814,127.857L87.882,127.5L87.951,127.857L88.019,128.393L88.087,128.214L88.156,127.321L88.224,127.679L88.293,128.036L88.361,128.393L88.43,129.286L88.498,130.357L88.567,131.071L88.635,131.071L88.704,131.25L88.772,131.25L88.84,130.714L88.909,131.071L88.977,131.071L89.046,131.429L89.114,131.964L89.183,131.786L89.251,131.607L89.32,131.607L89.388,132.5L89.456,132.143L89.525,132.5L89.593,132.857L89.662,133.036L89.73,131.964L89.799,131.607L89.867,132.321L89.936,132.857L90.004,132.857L90.072,131.607L90.141,131.071L90.209,132.321L90.278,131.607L90.346,131.429L90.415,131.786L90.483,131.071L90.552,130.714L90.62,131.071L90.688,130.714L90.757,130.536L90.825,130.536L90.894,131.071L90.962,130.893L91.031,130.357L91.099,130.179L91.236,130.179L91.304,130.536L91.373,130.357L91.441,130.536L91.51,130.536L91.578,131.786L91.784,131.786L91.852,131.786L91.92,132.143L91.989,133.214L92.057,133.75L92.126,133.75L92.194,133.75L92.263,133.393L92.331,135L92.4,135.536L92.468,134.821L92.537,135.536L92.605,135.714L92.673,135L92.742,135.357L92.81,135.179L92.879,134.464L92.947,135L93.016,134.821L93.084,134.643L93.153,134.643L93.221,135L93.289,135.536L93.358,136.071L93.426,136.25L93.495,136.607L93.563,137.143L93.632,136.607L93.769,136.071L93.905,136.071L94.042,136.25L94.111,135.714L94.179,135.714L94.248,135.893L94.316,135.714L94.385,135.536L94.453,135.357L94.521,135.714L94.658,135.179L94.727,135.179L94.795,135.893L95.069,136.071L95.137,135.714L95.206,135.179L95.274,134.821L95.343,135.357L95.411,134.464L95.548,134.286L95.617,134.464L95.685,134.821L95.753,134.464L95.822,134.643L95.89,134.643L95.959,134.643L96.03,134.643L96.099,134.464L96.235,134.464L96.304,134.821L96.578,135.357L96.646,135L96.715,134.821L96.783,135.179L96.851,135.179L96.92,134.821L96.988,134.286L97.057,134.286L97.125,134.107L97.194,134.107L97.262,134.464L97.331,134.643L97.399,134.643L97.467,134.643L97.536,135.179L97.604,136.429L97.741,137.143L97.81,136.964L97.878,138.393L98.015,138.393L98.152,138.214L98.22,138.214L98.289,138.214L98.357,137.679L98.426,138.036L98.494,138.393L98.563,138.393L98.631,138.571L98.7,138.571L98.768,138.393L98.905,138.393L98.973,138.571L99.042,138.393L99.11,138.393L99.179,138.036L99.316,137.857L99.384,137.857L99.452,137.321L99.589,137.5L99.658,137.143L99.795,137.321L99.932,137.143L100.068,136.964L100.205,136.786L100.274,135.893L100.342,135.893L100.411,135.714L100.479,136.071L100.548,135.714L100.684,135.893L100.821,135.893L100.89,135.357L100.958,135.357L101.027,135.714L101.164,135.536L101.437,135.357L101.711,135.179L101.78,135L101.916,135L101.985,135.357L102.122,135.357L102.19,135.357L102.259,135.714L102.327,135.536L102.396,136.071L102.464,136.429L102.533,137.143L102.669,137.679L102.806,137.857L102.875,138.393L103.149,138.214L103.354,138.75L103.491,138.929L103.628,139.107L103.696,140L103.765,140.179L103.833,140.357L103.901,140.536L103.97,140.893L104.107,140.893L104.175,140.893L104.244,141.429L104.312,141.607L104.381,141.786L104.449,141.964L104.651,142.143L104.72,142.321L104.788,142.5L104.857,142.321L104.925,142.321L104.994,141.964L105.062,137.5L105.131,137.321L105.268,137.679L105.404,137.5L105.473,136.429L105.541,136.25L105.678,136.429L105.747,136.429L105.815,136.25L106.02,136.071L106.089,135.714L106.157,135L106.226,134.643L106.5,134.286L106.636,133.571L106.705,133.571L106.773,133.214L106.842,132.857L107.116,132.5L107.184,131.786L107.252,131.429L107.321,131.607L107.458,131.25L107.526,130.536L107.595,129.643L107.732,129.643L107.8,129.286L107.868,128.929L108.074,128.393L108.142,128.571L108.211,132.679L108.279,132.143L108.416,131.25L108.484,131.25L108.553,132.321L108.621,131.607L108.69,131.25L108.758,130.357L108.827,129.821L108.964,129.821L109.032,130.179L109.101,130L109.169,128.929L109.237,128.75L109.306,128.571L109.374,127.857L109.443,126.964L109.58,125.714L109.717,124.464L109.785,124.643L109.853,124.107L109.99,122.857L110.059,121.607L110.127,120L110.196,120L110.264,119.643L110.333,119.286L110.401,118.214L110.469,115.714L110.538,112.5L110.606,108.929L110.675,109.464L110.743,107.857L110.812,101.429L110.88,98.393L110.949,96.429L111.017,94.643L111.085,94.286L111.154,92.321L111.222,86.964L111.291,76.964L111.359,70.893L111.428,67.5L111.496,64.286L111.565,60.357L111.633,59.464L111.701,54.464L111.77,48.75L111.838,44.643L111.907,38.75L111.975,33.75L112.044,30.536L112.112,28.393L112.181,25.179L112.249,18.929L112.317,15.893L112.386,13.75L112.454,11.964L112.523,12.143L112.591,12.857L112.66,13.571L112.728,9.286L112.797,10.714L112.865,16.964L112.933,18.929L113.002,20.179L113.07,20.536L113.139,18.929L113.207,18.75L113.276,21.071L113.344,29.821L113.413,33.929L113.481,37.5L113.55,40.179L113.618,42.143L113.686,40.536L113.755,44.821L113.823,49.643L113.892,50.714L113.96,53.75L114.029,57.321L114.097,57.321L114.166,56.964L114.234,59.821L114.302,64.107L114.371,65L114.439,66.429L114.508,67.679L114.576,68.036L114.645,66.786L114.713,67.679L114.782,68.929L114.85,67.679L114.918,65L114.987,64.643L115.055,64.643L115.124,65.893L115.192,66.429L115.261,67.5L115.329,66.964L115.398,65.536L115.466,67.143L115.534,66.786L115.603,61.071L115.671,62.321L115.74,64.286L115.808,63.571L115.877,64.107L115.945,67.321L116.014,67.321L116.082,68.214L116.15,70L116.219,72.5L116.287,72.5L116.356,73.036L116.424,74.107L116.493,73.75L116.561,72.857L116.63,73.214L116.698,75.536L116.766,75.714L116.835,78.571L116.903,75.893L116.972,76.071L117.04,75.536L117.109,71.429L117.177,70.536L117.246,72.5L117.314,74.107L117.383,77.143L117.451,74.107L117.519,73.75L117.588,71.786L117.656,77.679L117.725,75.179L117.793,76.429L117.862,76.607L117.93,77.321L117.999,73.75L118.067,75.357L118.135,75.179L118.204,76.429L118.272,76.429L118.341,78.571L118.409,79.464L118.478,77.143L118.546,78.214L118.615,80.179L118.683,81.429L118.751,82.679L118.82,85L118.888,85.179L118.957,89.643L119.025,92.321L119.094,93.929L119.162,98.571L119.231,99.286L119.299,99.464L119.367,97.143L119.436,97.321L119.504,101.607L119.573,102.321L119.641,105.357L119.71,106.071L119.778,110.179L119.847,109.821L119.915,112.321L119.983,113.036L120.052,118.036L120.12,120.179L120.189,121.25L120.257,122.5L120.326,123.929L120.394,123.929L120.463,124.464L120.531,128.214L120.599,127.321L120.668,127.857L120.736,128.393L120.805,128.75L120.873,128.75L120.945,128.75L121.013,128.214L121.081,127.679L121.15,128.036L121.218,128.75L121.287,129.107L121.355,128.393L121.424,130.714L121.492,131.071L121.629,131.964L121.697,132.5L121.766,132.857L121.834,131.964L121.903,131.964L121.971,132.321L122.04,132.143L122.108,132.5L122.177,132.321L122.245,130.893L122.313,131.25L122.382,130.536L122.45,129.643L122.519,129.643L122.587,129.821L122.656,129.286L122.793,130.536L122.861,130.893L122.93,130.536L122.998,130.536L123.066,130.179L123.135,129.643L123.203,130.536L123.272,130.179L123.34,129.107L123.409,128.929L123.477,128.75L123.546,129.464L123.614,127.321L123.682,127.5L123.751,126.607L123.819,126.429L123.888,125.893L124.23,126.786L124.298,125.714L124.367,125.536L124.709,125.714L124.778,126.071L124.846,126.25L124.914,127.679L124.983,127.857L125.12,128.571L125.188,129.107L125.257,128.571L125.325,129.286L125.394,130L125.462,129.643L125.53,129.821L125.599,129.643L125.667,129.286L125.736,128.75L125.804,129.464L125.873,127.679L125.941,128.571L126.01,129.107L126.078,129.107L126.146,128.036L126.283,128.036L126.352,130.179L126.42,128.929L126.489,128.214L126.557,127.5L126.626,127.679L126.694,127.679L126.899,128.214L126.968,126.964L127.036,125.357L127.105,124.464L127.31,123.929L127.789,123.214L127.995,123.036L128.063,122.857L128.2,122.857L128.268,122.5L128.474,121.607L128.542,120.893L128.611,121.071L128.747,120.179L128.816,119.821L128.884,119.286L128.953,120L129.021,118.75L129.09,120.179L129.158,120L129.227,120.357L129.295,120.893L129.363,121.786L129.432,120L129.5,117.321L129.569,117.679L129.637,119.643L129.706,120.179L129.774,120L129.843,117.321L129.911,117.143L129.979,117.5L130.045,118.214L130.114,118.393L130.182,118.393L130.319,117.143L130.387,116.071L130.456,116.25L130.524,115.536L130.593,116.25L130.661,116.607L130.73,116.607L130.798,115.357L130.866,114.821L130.935,115.536L131.003,115.714L131.072,115.714L131.14,115.536L131.209,115.893L131.277,116.071L131.346,114.643L131.414,114.643L131.482,115L131.551,116.25L131.619,118.75L131.688,119.643L131.756,119.107L131.825,117.679L131.893,117.857L131.962,120.357L132.03,120.893L132.098,120.536L132.167,120.536L132.235,119.821L132.372,117.857L132.441,118.75L132.509,119.464L132.578,117.5L132.646,117.5L132.714,115.714L132.783,113.571L132.851,112.321L132.92,112.143L132.988,112.857L133.057,111.786L133.125,110.893L133.194,110.179L133.262,111.607L133.33,111.786L133.399,110.357L133.467,109.643L133.536,107.679L133.604,106.429L133.673,106.25L133.741,105.536L133.81,102.857L133.878,101.071L133.946,101.429L134.015,100.893L134.083,98.393L134.152,96.786L134.22,96.25L134.289,96.071L134.357,94.821L134.426,95.714L134.494,95.179L134.563,93.571L134.631,94.821L134.699,93.214L134.768,93.036L134.836,95L134.905,95.714L134.973,96.786L135.042,95.357L135.11,96.25L135.179,96.786L135.247,97.5L135.315,96.071L135.384,94.643L135.452,94.643L135.521,95.714L135.589,97.5L135.658,97.679L135.726,97.857L135.795,96.786L135.863,98.393L135.931,100.357L136,100.714L136.068,98.571L136.137,99.643L136.205,99.107L136.274,99.464L136.342,97.5L136.411,98.036L136.479,98.214L136.547,96.607L136.616,95.714L136.684,94.821L136.753,95.179L136.821,96.071L136.89,95.893L136.958,96.25L137.027,94.286L137.095,94.464L137.163,91.964L137.232,90.179L137.3,88.75L137.369,89.107L137.437,87.143L137.506,86.071L137.574,86.607L137.779,84.643L137.848,84.107L137.916,82.143L137.985,83.214L138.053,82.857L138.122,81.964L138.19,81.25L138.259,81.964L138.327,82.679L138.396,84.286L138.464,84.107L138.532,84.464L138.601,83.214L138.669,83.571L138.738,85.357L138.806,88.214L138.875,87.5L138.943,88.75L139.012,90.536L139.08,91.071L139.148,89.107L139.217,90.536L139.285,91.25L139.354,93.393L139.422,95L139.491,95.893L139.559,94.107L139.628,95.536L139.696,97.143L139.764,97.857L139.833,99.464L139.901,100.536L139.97,103.036L140.038,103.393L140.107,103.929L140.175,105L140.244,106.429L140.312,108.214L140.38,108.036L140.449,106.964L140.517,106.964L140.586,108.036L140.654,108.929L140.723,109.286L140.791,110.179L140.86,109.643L140.928,108.929L140.996,108.393" stroke="#4c78a8" stroke-width="2"/></g><g class="mark-group role-title"><g transform="translate(100,-17)"><path class="background" aria-hidden="true" d="M0,0h0v0h0Z" pointer-events="none"/><g><g class="mark-text role-title-text" role="graphics-symbol" aria-roledescription="title" aria-label="Title text 'Overflowing Litter Baskets: 6 Overflowing Litter Baskets'" pointer-events="none"><text text-anchor="middle" transform="translate(0,10)" font-family="sans-serif" font-size="13px" font-weight="bold" fill="#000" opacity="1">Overflowing Litter Baskets: 6 Overflowing Litter Baskets</text></g></g><path class="foreground" aria-hidden="true" d="" pointer-events="none" display="none"/></g></g></g><path class="foreground" aria-hidden="true" d="" display="none"/></g></g></g><defs><clipPath id="clip114"><rect x="0" y="0" width="200" height="150"/></clipPath></defs></svg>