<svg xmlns="http://www.w3.org/2000/svg" xmlns:xlink="http://www.w3.org/1999/xlink" version="1.1" class="marks" width="230" height="194" viewBox="0 0 230 194"><rect width="230" height="194" fill="white"/><g fill="none" stroke-miterlimit="10" transform="translate(24,22)"><g class="mark-group role-frame root" role="graphics-object" aria-roledescription="group mark container"><g transform="translate(0,0)"><path class="background" aria-hidden="true" d="M0,0h200v150h-200Z"/><g><g class="mark-group role-axis" aria-hidden="true"><g transform="translate(0.5,0.5)"><path class="background" aria-hidden="true" d="M0,0h0v0h0Z" pointer-events="none"/><g><g class="mark-rule role-axis-grid" pointer-events="none"><line transform="translate(0,150)" x2="200" y2="0" stroke="#ddd" stroke-width="1" opacity="1"/><line transform="translate(0,103)" x2="200" y2="0" stroke="#ddd" stroke-width="1" opacity="1"/><line transform="translate(0,56)" x2="200" y2="0" stroke="#ddd" stroke-width="1" opacity="1"/><line transform="translate(0,9)" x2="200" y2="0" stroke="#ddd" stroke-width="1" opacity="1"/></g></g><path class="foreground" aria-hidden="true" d="" pointer-events="none" display="none"/></g></g><g class="mark-group role-axis" role="graphics-symbol" aria-roledescription="axis" aria-label="X-axis for a time scale with values from Friday, 01 January 2016, 12:00:00 AM to Monday, 01 January 2024, 12:00:00 AM"><g transform="translate(0.5,150.5)"><path class="background" aria-hidden="true" d="M0,0h0v0h0Z" pointer-events="none"/><g><g class="mark-rule role-axis-tick" pointer-events="none"><line transform="translate(0,0)" x2="0" y2="5" stroke="#888" stroke-width="1" opacity="1"/><line transform="translate(50,0)" x2="0" y2="5" stroke="#888" stroke-width="1" opacity="1"/><line transform="translate(100,0)" x2="0" y2="5" stroke="#888" stroke-width="1" opacity="1"/><line transform="translate(150,0)" x2="0" y2="5" stroke="#888" stroke-width="1" opacity="1"/><line transform="translate(200,0)" x2="0" y2="5" stroke="#888" stroke-width="1" opacity="1"/></g><g class="mark-text role-axis-label" pointer-events="none"><text text-anchor="start" transform="translate(0,15)" font-family="sans-serif" font-size="10px" fill="#000" opacity="1">2016</text><text text-anchor="middle" transform="translate(50.03422313483915,15)" font-family="sans-serif" font-size="10px" fill="#000" opacity="1">2018</text><text text-anchor="middle" transform="translate(100,15)" font-family="sans-serif" font-size="10px" fill="#000" opacity="1">2020</text><text text-anchor="middle" transform="translate(150.03422313483915,15)" font-family="sans-serif" font-size="10px" fill="#000" opacity="1">2022</text><text text-anchor="end" transform="translate(200,15)" font-family="sans-serif" font-size="10px" fill="#000" opacity="1">2024</text></g><g class="mark-rule role-axis-domain" pointer-events="none"><line transform="translate(0,0)" x2="200" y2="0" stroke="#888" stroke-width="1" opacity="1"/></g></g><path class="foreground" aria-hidden="true" d="" pointer-events="none" display="none"/></g></g><g class="mark-group role-axis" role="graphics-symbol" aria-roledescription="axis" aria-label="Y-axis for a linear scale with values from 0 to 16"><g transform="translate(0.5,0.5)"><path class="background" aria-hidden="true" d="M0,0h0v0h0Z" pointer-events="none"/><g><g class="mark-rule role-axis-tick" pointer-events="none"><line transform="translate(0,150)" x2="-5" y2="0" stroke="#888" stroke-opacity="0" stroke-width="1" opacity="1"/><line transform="translate(0,103)" x2="-5" y2="0" stroke="#888" stroke-opacity="0" stroke-width="1" opacity="1"/><line transform="translate(0,56)" x2="-5" y2="0" stroke="#888" stroke-opacity="0" stroke-width="1" opacity="1"/><line transform="translate(0,9)" x2="-5" y2="0" stroke="#888" stroke-opacity="0" stroke-width="1" opacity="1"/></g><g class="mark-text role-axis-label" pointer-events="none"><text text-anchor="end" transform="translate(-7,153)" font-family="sans-serif" font-size="10px" fill="#000" opacity="1">0</text><text text-anchor="end" transform="translate(-7,106.125)" font-family="sans-serif" font-size="10px" fill="#000" opacity="1">5</text><text text-anchor="end" transform="translate(-7,59.25)" font-family="sans-serif" font-size="10px" fill="#000" opacity="1">10</text><text text-anchor="end" transform="translate(-7,12.375)" font-family="sans-serif" font-size="10px" fill="#000" opacity="1">15</text></g></g><path class="foreground" aria-hidden="true" d="" pointer-events="none" display="none"/></g></g><g class="mark-line role-mark marks" clip-path="url(#clip115)" role="graphics-object" aria-roledescription="line mark container"><path aria-label="day: Jan 02, 2010; avg: 1.5" role="graphics-symbol" aria-roledescription="line mark" d="M-149.897,135.938L-149.76,135.313L-149.624,135.313L-149.555,135.313L-149.487,135.313L-149.418,134.375L-149.281,134.375L-149.076,134.375L-149.008,134.688L-148.802,134.063L-148.665,134.688L-148.597,134.688L-148.528,135L-148.323,134.063L-148.255,133.438L-148.118,133.125L-148.049,132.5L-147.912,132.188L-147.775,131.875L-147.57,131.563L-147.502,131.25L-147.365,130.938L-147.228,130.625L-146.954,130.313L-146.886,130.313L-146.749,130L-146.475,128.75L-146.407,128.75L-146.338,129.375L-146.201,128.438L-146.133,128.438L-146.064,129.063L-145.996,128.438L-145.927,128.438L-145.654,128.438L-145.585,129.375L-145.517,128.438L-145.448,128.438L-145.38,127.813L-145.243,128.438L-145.175,128.75L-144.972,128.125L-144.904,126.563L-144.835,126.875L-144.767,127.188L-144.698,126.563L-144.561,126.25L-144.493,126.563L-144.424,126.875L-144.356,127.188L-144.288,127.188L-144.219,127.188L-144.082,127.188L-143.877,126.875L-143.808,126.25L-143.74,126.25L-143.672,127.188L-143.603,126.25L-143.535,125.625L-143.466,126.875L-143.398,126.875L-143.329,126.563L-143.261,125.313L-143.192,125.313L-143.124,125L-143.056,125.313L-142.987,125.938L-142.919,125.625L-142.782,126.25L-142.713,125.938L-142.645,125L-142.576,125L-142.508,126.25L-142.371,126.25L-142.303,125.938L-142.234,126.563L-142.166,127.5L-142.097,127.5L-142.029,127.188L-141.96,127.188L-141.824,126.25L-141.755,126.25L-141.687,126.25L-141.618,126.875L-141.55,126.875L-141.481,125.938L-141.413,126.25L-141.344,127.188L-141.276,126.875L-141.208,126.563L-141.139,126.563L-141.071,126.563L-140.934,128.438L-140.865,128.438L-140.797,129.063L-140.728,128.75L-140.66,128.125L-140.591,128.125L-140.523,128.125L-140.455,128.125L-140.386,127.813L-140.318,127.5L-140.249,126.875L-140.181,127.5L-140.112,127.188L-140.044,127.5L-139.975,127.5L-139.907,127.5L-139.839,127.188L-139.77,127.188L-139.702,128.125L-139.633,128.438L-139.565,128.75L-139.496,128.75L-139.428,129.375L-139.359,130.625L-139.223,130L-139.154,130.313L-139.017,130.938L-138.949,130.938L-138.88,130.938L-138.812,130.938L-138.743,130.625L-138.675,130.625L-138.607,130.625L-138.47,130.625L-138.401,131.563L-138.264,131.563L-138.196,131.563L-138.127,131.563L-138.059,132.188L-137.991,133.125L-137.922,134.063L-137.854,134.063L-137.785,135L-137.717,135.313L-137.648,135.313L-137.58,134.063L-137.443,134.375L-137.238,134.063L-137.169,134.063L-137.032,133.75L-136.964,133.438L-136.895,133.438L-136.827,133.438L-136.758,133.438L-136.553,133.125L-136.485,132.5L-136.416,132.5L-136.348,132.5L-136.279,132.188L-136.211,132.188L-136.074,132.188L-135.937,132.188L-135.869,131.563L-135.8,131.563L-135.732,131.563L-135.663,131.875L-135.595,131.875L-135.526,132.188L-135.39,132.5L-135.253,132.5L-135.184,132.188L-135.116,131.563L-135.047,131.25L-134.979,130.938L-134.91,130.938L-134.842,132.188L-134.705,131.563L-134.637,131.875L-134.568,131.875L-134.5,131.25L-134.431,131.25L-134.363,130.938L-134.294,131.25L-134.226,131.25L-134.158,131.875L-134.089,132.188L-133.815,132.188L-133.747,132.188L-133.473,132.188L-133.405,131.875L-133.336,132.188L-133.268,132.188L-133.131,131.563L-132.994,131.25L-132.926,131.563L-132.72,131.25L-132.652,131.25L-132.583,131.25L-132.515,131.563L-132.446,131.563L-132.378,131.875L-132.309,132.188L-132.173,132.5L-132.104,132.813L-132.036,132.813L-131.899,132.5L-131.762,133.438L-131.625,133.438L-131.42,133.438L-131.214,134.063L-131.146,134.063L-131.009,134.063L-130.941,133.75L-130.667,133.75L-130.598,134.063L-130.461,134.063L-130.393,134.063L-130.325,133.75L-130.119,134.063L-130.051,134.688L-129.982,134.688L-129.914,134.688L-129.64,135.938L-129.572,135.625L-129.435,135.313L-129.093,135.938L-129.024,135.625L-128.956,135.625L-128.887,135.625L-128.819,135.625L-128.75,135.313L-128.679,135.625L-128.611,135.625L-128.542,135.313L-128.474,135.313L-128.405,135.625L-128.337,135.625L-128.268,135.313L-128.131,135.625L-127.858,135.625L-127.652,135.938L-127.515,136.25L-127.447,135.938L-127.31,135.938L-127.173,135.625L-126.899,135.938L-126.831,136.25L-126.762,136.563L-126.626,136.563L-126.557,136.563L-126.489,136.563L-126.283,136.563L-126.215,136.563L-126.078,137.5L-125.804,137.5L-125.736,137.5L-125.667,137.813L-125.12,137.813L-124.778,137.813L-124.641,137.813L-124.504,137.188L-124.367,137.188L-124.162,136.875L-124.093,137.188L-124.025,137.188L-123.956,136.563L-123.751,136.25L-123.682,136.25L-123.546,135.938L-123.203,135.938L-123.135,135.625L-123.066,135.625L-122.998,135.938L-122.93,135L-122.861,135L-122.793,134.688L-122.519,134.688L-122.313,134.688L-122.177,134.688L-122.108,134.375L-122.04,134.375L-121.903,134.063L-121.834,134.063L-121.766,134.063L-121.492,134.375L-121.287,133.438L-121.218,133.125L-121.081,133.125L-121.013,133.125L-120.945,133.125L-120.808,133.438L-120.739,132.813L-120.602,133.125L-120.534,132.813L-120.465,132.813L-120.397,133.125L-120.329,133.125L-120.26,132.5L-120.192,132.5L-120.123,132.5L-119.989,132.813L-119.921,132.5L-119.852,132.5L-119.647,133.438L-119.51,133.125L-119.442,133.438L-119.373,133.438L-119.236,133.438L-119.168,131.875L-119.031,131.563L-118.962,131.25L-118.826,131.563L-118.757,130.938L-118.689,130.625L-118.62,130L-118.552,130.625L-118.483,130.313L-118.415,130.313L-118.346,130L-118.278,129.375L-118.21,129.688L-118.141,130L-118.073,130L-117.867,130.313L-117.799,129.688L-117.73,129.375L-117.594,129.375L-117.525,130.313L-117.457,130.313L-117.388,130.625L-117.32,130.313L-117.251,130.625L-117.183,130.938L-117.114,130.938L-117.046,131.25L-116.978,131.25L-116.841,131.25L-116.772,131.563L-116.704,133.125L-116.635,133.75L-116.567,133.438L-116.498,133.125L-116.362,133.75L-116.293,133.438L-116.225,134.063L-116.156,134.375L-116.088,134.375L-116.019,134.063L-115.951,134.375L-115.882,134.688L-115.814,135L-115.745,135.313L-115.609,134.375L-115.472,134.375L-115.403,135L-115.335,135.625L-115.266,135.625L-115.198,135.313L-115.129,135.625L-115.061,135.313L-114.993,135.625L-114.856,135.625L-114.787,135.625L-114.719,135.313L-114.65,135.313L-114.513,135L-114.445,133.75L-114.377,133.125L-114.308,132.5L-114.24,132.5L-114.171,133.125L-114.103,133.438L-114.034,133.438L-113.897,133.438L-113.829,133.125L-113.692,133.125L-113.624,133.438L-113.418,133.75L-113.35,132.813L-113.281,133.125L-113.076,132.5L-112.939,132.188L-112.871,132.813L-112.802,132.813L-112.665,132.5L-112.597,132.188L-112.529,132.188L-112.46,131.25L-112.186,130.625L-112.049,130.938L-111.981,130.938L-111.913,130.938L-111.844,130.938L-111.776,130.625L-111.707,130.313L-111.639,130.625L-111.502,131.875L-111.365,131.875L-111.296,132.5L-111.023,132.5L-110.886,132.5L-110.817,132.5L-110.68,132.188L-110.612,132.813L-110.475,132.813L-110.407,132.188L-110.338,132.5L-110.27,131.875L-110.201,132.813L-110.133,132.813L-109.996,133.125L-109.928,133.438L-109.791,133.438L-109.722,133.438L-109.517,133.75L-109.448,133.438L-109.38,133.75L-109.312,135L-109.243,135.625L-109.175,135.625L-109.106,135.313L-109.038,135.313L-108.969,135.313L-108.901,135.625L-108.559,136.25L-108.422,135.938L-108.285,135L-108.148,135.625L-108.08,135.625L-108.011,135.313L-107.806,134.688L-107.737,134.375L-107.669,134.375L-107.6,134.375L-107.463,134.688L-107.395,135.313L-107.327,135.313L-107.19,135.938L-107.053,135.625L-106.984,135.625L-106.916,135.938L-106.847,135.938L-106.779,136.25L-106.711,136.25L-106.642,135.938L-106.505,136.25L-106.437,135.938L-106.3,135.938L-106.231,135.313L-106.163,135.313L-106.095,135.313L-106.026,135L-105.958,134.375L-105.889,134.375L-105.821,134.375L-105.752,134.063L-105.684,134.688L-105.615,134.375L-105.547,134.375L-105.479,134.688L-105.41,135.313L-105.342,135.625L-105.273,135.938L-105.205,135.938L-105.136,135.938L-104.999,135.938L-104.931,135.625L-104.863,135.625L-104.794,135.313L-104.657,135L-104.589,134.688L-104.52,134.688L-104.452,134.688L-104.178,134.688L-104.11,135L-104.041,135L-103.973,135L-103.836,134.375L-103.559,134.688L-103.422,134.688L-103.354,134.688L-103.285,134.375L-103.217,134.688L-103.149,135L-103.08,134.375L-102.875,134.375L-102.806,134.375L-102.601,134.375L-102.396,134.375L-102.327,134.375L-102.19,134.375L-101.985,134.375L-101.916,134.375L-101.848,133.438L-101.711,133.125L-101.437,132.813L-101.3,132.813L-101.164,132.813L-101.027,133.438L-100.958,133.75L-100.89,134.063L-100.821,134.063L-100.684,133.75L-100.548,133.438L-100.479,133.438L-100.342,133.75L-100.274,134.063L-100.137,134.375L-100.068,134.688L-99.932,134.688L-99.726,135L-99.658,135.625L-99.589,135.938L-99.521,135.938L-99.384,136.563L-99.316,137.188L-98.768,137.5L-98.631,137.188L-98.289,136.563L-98.22,136.25L-98.152,135.938L-97.741,135.625L-97.604,135.313L-97.467,135.938L-97.399,135.313L-97.331,135.625L-97.125,135.625L-96.988,134.688L-96.92,134.375L-96.851,134.375L-96.783,133.75L-96.715,132.813L-96.578,133.125L-96.372,133.125L-96.304,133.125L-96.167,132.813L-96.099,132.5L-96.03,131.875L-95.825,131.875L-95.756,130.938L-95.688,130L-95.619,129.688L-95.551,129.375L-95.414,129.375L-95.346,129.375L-95.209,129.375L-95.143,128.75L-95.075,129.375L-95.006,129.375L-94.938,129.688L-94.869,130L-94.801,129.375L-94.732,129.375L-94.664,129.375L-94.596,130.313L-94.527,129.688L-94.459,129.688L-94.39,130.313L-94.322,130L-94.253,129.688L-94.185,130.313L-94.116,131.25L-93.98,130.625L-93.911,130.938L-93.774,130.938L-93.706,130.938L-93.569,131.25L-93.5,131.875L-93.432,131.563L-93.364,132.5L-93.295,133.125L-93.227,133.125L-93.158,132.813L-93.09,132.5L-93.021,132.188L-92.953,132.188L-92.884,132.5L-92.816,131.563L-92.748,131.875L-92.679,130.938L-92.611,130.313L-92.542,131.25L-92.405,131.25L-92.337,131.563L-92.268,130.938L-92.2,131.563L-92.132,131.563L-91.995,131.563L-91.926,131.875L-91.858,131.875L-91.789,130.625L-91.721,130.313L-91.652,130.938L-91.584,130.625L-91.516,130.625L-91.447,130.625L-91.31,130L-91.242,130L-91.173,129.688L-91.105,129.375L-91.036,129.375L-90.968,129.063L-90.899,129.688L-90.831,130L-90.763,130L-90.694,130L-90.626,130L-90.557,130.625L-90.489,130L-90.42,130.625L-90.352,130.938L-90.283,130.938L-90.215,131.25L-90.078,131.25L-90.01,131.875L-89.941,131.563L-89.873,131.875L-89.804,131.875L-89.736,132.188L-89.667,132.5L-89.599,133.75L-89.531,134.063L-89.394,134.063L-89.325,134.063L-89.257,133.438L-89.188,133.75L-89.12,134.375L-88.983,133.75L-88.915,134.375L-88.846,134.688L-88.778,135L-88.709,135L-88.641,134.688L-88.504,134.688L-88.435,134.375L-88.299,134.375L-88.162,133.438L-88.093,133.438L-87.956,134.375L-87.888,134.375L-87.819,134.375L-87.751,133.75L-87.683,133.438L-87.614,133.438L-87.546,133.438L-87.477,132.813L-87.409,132.813L-87.34,132.813L-87.272,132.813L-87.203,132.813L-86.998,132.5L-86.93,131.563L-86.724,131.25L-86.656,130.938L-86.587,131.25L-86.519,131.25L-86.45,131.25L-86.245,131.875L-86.108,131.875L-85.971,131.25L-85.834,130.625L-85.766,130.625L-85.698,130.938L-85.561,130.625L-85.492,131.25L-85.355,130.938L-85.287,131.25L-85.218,131.25L-85.082,131.25L-85.013,131.563L-84.945,131.875L-84.876,130.938L-84.739,130.625L-84.671,130.625L-84.602,129.375L-84.534,130L-84.466,130L-84.329,130L-84.192,129.375L-83.986,128.125L-83.918,128.125L-83.644,128.75L-83.507,128.75L-83.439,129.375L-83.37,129.688L-83.234,129.688L-83.097,129.688L-83.028,130L-82.754,130L-82.686,130.313L-82.617,130.938L-82.549,131.563L-82.481,131.25L-82.344,131.25L-82.207,131.25L-82.07,131.25L-82.001,131.875L-81.933,131.875L-81.865,131.563L-81.796,131.25L-81.728,131.25L-81.659,132.5L-81.591,133.125L-81.522,133.125L-81.454,134.375L-81.385,134.063L-81.317,134.063L-81.249,134.063L-81.18,134.375L-81.112,135.625L-80.838,135.938L-80.769,136.25L-80.701,136.563L-80.633,135.938L-80.564,135.625L-80.496,135.625L-80.427,135.625L-80.359,135.625L-80.29,135.625L-80.222,135.625L-80.153,135.625L-80.085,135L-80.017,135.313L-79.948,135.625L-79.88,135.625L-79.811,135.938L-79.743,136.25L-79.606,136.563L-79.469,136.875L-79.401,137.188L-78.921,136.875L-78.645,137.188L-78.371,137.188L-78.303,137.188L-78.234,137.188L-78.166,137.5L-78.097,137.5L-78.029,137.5L-77.755,137.5L-77.618,137.188L-77.413,137.188L-77.276,137.188L-77.207,136.875L-77.139,137.5L-77.002,137.813L-76.865,137.813L-76.797,137.5L-76.591,137.5L-76.318,137.5L-76.249,137.5L-76.112,137.5L-76.044,137.813L-75.907,137.5L-75.633,137.5L-75.428,137.188L-75.291,137.188L-75.154,136.563L-75.017,136.563L-74.88,136.25L-74.812,135.938L-74.675,136.25L-74.606,136.25L-74.538,136.25L-74.47,135.625L-74.401,135.625L-74.127,135.625L-74.059,135.625L-73.922,135.938L-73.854,135.938L-73.785,135.938L-73.717,135.625L-73.58,135.625L-73.511,135.938L-73.169,135.313L-72.964,133.75L-72.895,133.438L-72.758,133.75L-72.621,132.813L-72.553,132.5L-72.485,131.875L-72.416,131.875L-72.279,132.188L-72.074,132.188L-72.005,132.188L-71.937,131.875L-71.869,131.875L-71.732,130.625L-71.663,129.688L-71.595,129.688L-71.526,129.688L-71.458,129.063L-71.389,127.813L-71.184,125.625L-71.116,126.25L-70.979,126.25L-70.91,125L-70.773,122.813L-70.637,121.875L-70.568,121.875L-70.5,121.563L-70.431,120.625L-70.363,120L-70.294,119.375L-70.229,119.687L-70.16,119.687L-70.092,120L-70.023,119.375L-69.955,120L-69.818,119.063L-69.681,119.375L-69.613,117.813L-69.544,116.563L-69.476,115.625L-69.407,114.375L-69.339,113.75L-69.27,112.5L-69.202,113.75L-69.065,114.063L-68.997,113.75L-68.928,112.5L-68.86,112.813L-68.791,113.75L-68.654,115.938L-68.586,115.313L-68.449,114.688L-68.381,115.313L-68.312,117.5L-68.244,117.188L-68.175,117.5L-68.107,117.813L-68.038,119.063L-67.97,118.75L-67.902,119.375L-67.833,119.375L-67.765,119.063L-67.696,117.5L-67.628,117.813L-67.559,117.188L-67.491,118.438L-67.422,119.063L-67.354,120.313L-67.286,121.563L-67.217,122.188L-67.149,123.438L-67.012,124.688L-66.943,125.625L-66.875,125.938L-66.806,126.25L-66.738,125.938L-66.67,127.188L-66.601,126.875L-66.533,127.188L-66.464,126.875L-66.396,127.188L-66.327,127.813L-66.259,128.75L-66.19,128.125L-66.054,129.375L-65.985,128.438L-65.917,128.438L-65.848,128.125L-65.78,128.125L-65.711,127.5L-65.643,127.188L-65.574,129.063L-65.437,130L-65.369,130.313L-65.301,131.25L-65.232,130.625L-65.164,130.313L-65.095,130.313L-64.958,130.313L-64.89,130.938L-64.753,130.625L-64.685,130.313L-64.616,130L-64.548,130.313L-64.411,130.625L-64.342,130.938L-64.274,130.938L-64.137,131.563L-64.069,131.25L-63.863,131.563L-63.795,131.25L-63.726,131.25L-63.521,130.938L-63.453,131.25L-63.384,131.25L-63.316,131.875L-63.247,132.188L-63.179,132.5L-63.11,133.438L-63.042,134.063L-62.973,134.688L-62.905,134.688L-62.837,135.313L-62.768,134.688L-62.7,134.375L-62.563,134.063L-62.494,134.375L-62.289,133.75L-62.221,133.438L-62.084,133.438L-62.015,133.438L-61.947,133.438L-61.878,133.75L-61.741,133.75L-61.673,133.75L-61.536,132.188L-61.468,132.188L-61.399,132.188L-61.262,132.5L-61.194,132.5L-61.125,133.125L-61.057,132.5L-60.988,132.188L-60.783,132.5L-60.646,131.875L-60.578,132.188L-60.372,131.875L-60.167,131.875L-60.099,131.25L-60.03,131.25L-59.962,131.25L-59.893,131.25L-59.825,130.938L-59.756,130.938L-59.688,131.25L-59.62,132.188L-59.551,131.875L-59.483,132.813L-59.414,133.125L-59.277,133.125L-59.14,133.125L-59.072,133.125L-59.004,133.438L-58.935,133.438L-58.867,133.438L-58.73,135.313L-58.524,135.625L-58.456,135.625L-58.388,135.313L-58.182,135.313L-58.114,135.313L-58.045,135.938L-57.977,136.563L-57.908,136.563L-57.84,137.188L-57.703,137.188L-57.635,137.188L-57.566,137.188L-57.429,137.813L-57.361,137.813L-57.292,137.188L-57.224,137.188L-57.155,137.188L-57.019,137.813L-56.95,137.5L-56.882,137.5L-56.813,137.813L-56.745,137.5L-56.539,137.188L-56.403,137.188L-56.334,137.5L-56.266,137.188L-56.197,136.875L-56.06,136.563L-55.992,136.25L-55.923,136.25L-55.787,135.938L-55.65,135.625L-55.513,135.938L-55.444,135.625L-55.376,135.313L-55.171,135.313L-55.034,135L-54.965,135L-54.897,135L-54.76,135L-54.691,135.313L-54.555,135.313L-54.486,135.313L-54.418,135L-54.349,135.625L-54.212,135L-54.075,135.313L-54.007,135L-53.936,134.688L-53.867,134.688L-53.799,134.688L-53.525,134.375L-53.32,134.688L-53.114,134.688L-52.977,134.688L-52.841,135L-52.772,135.313L-52.704,135.625L-52.43,135.938L-52.293,136.25L-52.156,136.563L-52.019,136.875L-51.951,136.875L-51.814,136.875L-51.335,136.875L-51.198,136.563L-50.924,136.875L-50.856,136.875L-50.787,136.875L-50.719,136.875L-50.308,136.563L-50.034,136.563L-49.966,136.25L-49.829,136.25L-49.418,136.25L-49.35,136.875L-49.144,136.875L-49.008,137.188L-48.939,137.813L-48.802,137.5L-48.734,137.5L-48.665,136.875L-47.844,136.875L-47.775,136.875L-47.707,136.875L-47.365,137.188L-47.159,136.875L-46.817,136.875L-46.749,136.875L-46.543,136.563L-46.475,136.563L-46.407,136.25L-46.064,136.25L-45.927,135.625L-45.859,135.625L-45.654,134.688L-45.585,134.375L-45.517,134.375L-45.448,134.375L-45.314,134.375L-45.246,133.438L-45.177,133.125L-45.109,132.813L-45.04,133.125L-44.972,132.5L-44.904,132.188L-44.698,132.188L-44.63,131.563L-44.561,130.938L-44.493,131.25L-44.424,130.625L-44.288,131.875L-44.151,131.563L-44.014,131.25L-43.945,131.25L-43.808,130.938L-43.74,131.25L-43.672,131.25L-43.535,130.625L-43.466,130.938L-43.398,130.313L-43.261,130L-43.192,130L-43.124,130L-43.056,129.375L-42.987,130.313L-42.919,130.313L-42.713,130L-42.645,129.688L-42.576,129.688L-42.44,130.938L-42.371,130.938L-42.303,131.25L-42.234,130.938L-42.166,131.25L-42.097,130.625L-42.029,130.625L-41.96,130.938L-41.892,131.25L-41.755,130.938L-41.687,131.563L-41.618,131.563L-41.55,131.563L-41.413,131.25L-41.344,130.625L-41.276,130.625L-41.208,130L-41.139,129.375L-41.002,130L-40.934,129.688L-40.865,129.375L-40.728,130L-40.66,129.063L-40.591,129.063L-40.523,128.438L-40.455,128.438L-40.386,128.438L-40.318,127.813L-40.181,128.125L-40.044,127.5L-39.975,126.875L-39.839,127.188L-39.77,125.313L-39.702,125.313L-39.633,125.313L-39.496,125.625L-39.428,125.313L-39.359,124.375L-39.291,124.063L-39.223,124.375L-39.154,124.375L-39.017,124.063L-38.949,124.375L-38.88,122.813L-38.812,122.5L-38.743,122.813L-38.675,123.125L-38.607,122.813L-38.538,122.813L-38.47,122.813L-38.401,123.75L-38.333,123.75L-38.264,124.063L-38.196,124.375L-38.059,125.938L-37.922,126.25L-37.785,125.938L-37.717,126.875L-37.648,126.563L-37.58,126.563L-37.511,126.875L-37.238,126.563L-37.169,128.75L-37.101,129.063L-37.032,129.375L-36.964,130L-36.895,129.688L-36.827,130.625L-36.69,128.125L-36.622,127.813L-36.553,127.813L-36.485,128.125L-36.348,127.813L-36.279,130L-36.211,130.625L-36.142,130.625L-36.074,130.625L-35.937,130.313L-35.8,130L-35.732,130.313L-35.663,130L-35.595,129.375L-35.526,129.375L-35.458,129.688L-35.116,129.375L-35.047,129.375L-34.91,129.688L-34.842,129.688L-34.568,129.375L-34.5,125.625L-34.431,125.625L-34.363,125.625L-34.294,125L-34.226,123.75L-34.158,123.75L-34.089,123.75L-33.747,124.063L-33.678,124.063L-33.61,127.188L-33.542,126.25L-33.336,126.25L-33.268,126.25L-33.199,126.25L-33.131,126.25L-32.994,126.563L-32.857,126.25L-32.789,125.625L-32.72,126.875L-32.583,126.875L-32.446,126.25L-32.378,126.563L-32.309,126.563L-32.173,126.875L-32.104,126.875L-31.899,126.563L-31.83,126.563L-31.625,126.875L-31.488,126.563L-31.42,127.188L-31.351,131.25L-31.283,131.563L-31.146,131.875L-31.009,132.188L-30.941,133.125L-30.872,133.125L-30.804,133.125L-30.667,133.438L-30.53,133.75L-30.461,133.75L-30.393,134.375L-30.325,134.375L-30.188,134.375L-30.119,129.063L-30.051,129.063L-29.709,129.063L-29.64,129.375L-29.503,130L-29.435,130L-29.366,130L-29.298,130.625L-29.229,130.625L-29.093,131.25L-29.021,131.563L-28.884,131.875L-28.816,132.5L-28.679,132.5L-28.611,132.5L-28.474,132.5L-28.337,132.188L-28.268,132.5L-28.131,132.5L-27.858,132.5L-27.721,132.188L-27.584,132.5L-27.242,132.188L-27.105,132.188L-26.968,131.875L-26.899,131.875L-26.694,126.875L-26.557,125L-26.489,125L-26.215,125L-26.146,130.313L-26.078,130L-26.01,129.375L-25.941,129.063L-25.873,128.75L-25.325,128.438L-25.257,128.438L-25.188,128.125L-24.846,128.125L-24.709,127.813L-24.641,127.5L-24.572,126.875L-23.956,126.875L-23.888,126.875L-23.682,126.25L-23.546,126.25L-23.203,126.25L-23.135,126.25L-23.066,125.938L-22.861,125.938L-22.108,126.563L-21.766,126.25L-21.697,126.563L-21.629,126.563L-21.424,126.875L-21.355,126.875L-21.287,128.75L-21.081,130.938L-21.013,130L-20.945,130L-20.876,129.688L-20.808,128.125L-20.671,127.188L-20.602,127.188L-20.465,126.25L-20.4,125.938L-20.263,124.688L-20.195,125L-19.989,123.75L-19.921,123.75L-19.852,124.063L-19.784,124.688L-19.715,124.375L-19.647,124.063L-19.578,123.125L-19.51,122.5L-19.373,122.813L-19.305,122.813L-19.236,119.687L-19.099,118.75L-19.031,116.25L-18.894,116.25L-18.826,116.25L-18.689,116.25L-18.62,114.688L-18.552,114.375L-18.483,117.188L-18.346,117.5L-18.278,117.813L-18.141,117.5L-18.073,117.5L-18.004,118.75L-17.867,120.313L-17.799,120.625L-17.73,122.188L-17.662,121.875L-17.594,121.875L-17.525,121.875L-17.457,122.813L-17.388,123.125L-17.32,122.813L-17.251,121.563L-17.183,121.563L-17.114,113.75L-17.046,114.688L-16.978,115.625L-16.909,114.688L-16.772,114.688L-16.704,117.5L-16.635,118.438L-16.567,120L-16.498,120.313L-16.43,119.063L-16.362,119.063L-16.293,120L-16.156,117.5L-16.088,115.938L-16.019,115L-15.951,115L-15.882,114.375L-15.814,114.688L-15.745,115.313L-15.677,114.375L-15.609,113.75L-15.54,113.438L-15.472,113.438L-15.403,115L-15.335,114.375L-15.266,113.438L-15.198,113.438L-15.129,112.5L-15.061,113.75L-14.993,113.75L-14.924,120.938L-14.856,121.25L-14.787,121.25L-14.719,122.188L-14.65,120.625L-14.513,120.625L-14.445,120.625L-14.377,120L-14.308,119.687L-14.24,120.313L-14.171,119.687L-14.103,120.313L-14.034,123.125L-13.966,125L-13.897,125.313L-13.829,121.25L-13.761,120.625L-13.692,120.625L-13.624,119.687L-13.555,120.625L-13.487,120.625L-13.418,119.375L-13.35,120.313L-13.213,119.687L-13.145,120.313L-13.076,120.938L-13.008,120.938L-12.939,121.563L-12.871,121.563L-12.734,120.625L-12.665,120.938L-12.597,120.938L-12.529,118.75L-12.46,118.125L-12.392,119.063L-12.323,119.375L-12.255,118.75L-12.186,119.375L-12.118,118.125L-12.049,118.438L-11.981,119.063L-11.913,118.75L-11.844,118.75L-11.776,118.75L-11.707,119.375L-11.639,121.563L-11.57,123.125L-11.502,123.125L-11.433,123.438L-11.365,122.5L-11.228,123.125L-11.16,124.063L-11.091,124.063L-11.023,122.813L-10.954,122.188L-10.886,120.625L-10.817,120L-10.749,119.375L-10.68,119.375L-10.612,120.625L-10.544,121.25L-10.475,121.25L-10.407,119.375L-10.338,119.687L-10.27,120.313L-10.201,120.625L-10.133,120L-10.064,120.938L-9.996,121.563L-9.928,121.25L-9.859,120.625L-9.791,120.938L-9.654,120.938L-9.585,117.813L-9.38,117.5L-9.312,120L-9.243,119.375L-9.106,119.063L-9.038,118.438L-8.969,119.375L-8.901,119.375L-8.832,119.375L-8.764,119.375L-8.696,121.25L-8.627,121.563L-8.49,123.125L-8.422,122.5L-8.285,123.438L-8.216,123.438L-8.148,123.438L-8.011,123.125L-7.943,123.438L-7.806,127.5L-7.669,127.813L-7.6,126.875L-7.532,126.875L-7.463,121.875L-7.395,121.875L-7.258,122.813L-7.053,121.875L-6.984,122.188L-6.916,122.188L-6.847,121.25L-6.779,121.563L-6.711,119.375L-6.574,119.375L-6.505,119.063L-6.437,119.063L-6.3,117.5L-6.095,117.5L-5.958,117.5L-5.821,118.125L-5.752,115.313L-5.684,115.313L-5.547,115.313L-5.479,114.063L-5.342,115L-5.273,113.75L-5.205,113.75L-5.136,113.125L-5.068,113.125L-4.999,113.125L-4.931,113.125L-4.863,112.813L-4.794,113.125L-4.589,113.125L-4.52,119.375L-4.452,119.375L-4.383,119.063L-4.315,120.313L-4.178,119.687L-4.107,119.687L-4.038,120.625L-3.901,123.125L-3.833,125.625L-3.765,125.625L-3.696,126.563L-3.628,126.875L-3.285,129.375L-3.217,128.75L-3.149,128.75L-3.08,128.438L-3.012,131.25L-2.738,131.25L-2.669,131.563L-2.601,133.125L-2.533,133.438L-2.464,135L-2.327,135L-2.19,135L-2.122,135.313L-1.916,135L-1.848,135L-1.78,135.313L-1.643,135L-1.574,132.188L-1.369,132.188L-1.3,131.875L-1.164,131.875L-1.095,131.875L-1.027,132.813L-0.958,130.938L-0.89,122.813L-0.753,123.125L-0.684,122.5L-0.616,120.625L-0.548,120.313L-0.479,118.438L-0.342,118.75L-0.274,119.375L-0.205,119.375L-0.068,119.687L0,119.687L0.068,119.687L0.137,119.687L0.205,120L0.274,119.063L0.342,117.5L0.411,117.188L0.479,117.813L0.548,117.5L0.616,116.875L0.684,116.25L0.821,116.25L0.89,117.188L0.958,120L1.027,119.063L1.095,119.063L1.437,116.563L1.643,115.625L1.711,115.313L1.78,117.188L1.916,124.688L2.053,124.688L2.122,125.313L2.327,126.875L2.533,126.875L2.601,128.75L2.669,128.75L2.738,128.75L2.875,128.75L3.012,128.75L3.149,128.75L3.285,128.75L3.354,127.813L3.422,127.813L3.491,128.438L3.559,130L3.765,129.375L3.901,129.375L3.97,129.688L4.107,130.313L4.175,130.938L4.244,130.938L4.312,130L4.381,129.375L4.449,130L4.517,130L4.654,132.5L4.723,133.125L4.791,133.125L4.86,133.125L4.928,133.75L4.994,133.438L5.131,132.5L5.199,131.875L5.268,130.938L5.404,131.25L5.473,129.688L5.541,126.563L5.61,118.438L5.678,116.563L5.747,116.563L5.815,116.25L5.884,116.563L5.952,116.25L6.02,115.938L6.089,115.625L6.157,116.563L6.226,116.563L6.294,115.938L6.431,115.625L6.5,115.313L6.568,114.688L6.773,115.313L6.842,115.938L6.91,116.25L6.979,116.25L7.047,116.25L7.116,115.938L7.184,113.438L7.252,113.438L7.321,113.125L7.389,112.813L7.458,113.438L7.526,114.063L7.595,114.063L7.663,113.125L7.732,114.375L7.8,116.563L7.868,123.75L7.937,125.313L8.074,124.688L8.142,124.688L8.211,125L8.279,125L8.348,124.375L8.416,124.063L8.484,123.438L8.553,120.313L8.69,120.313L8.827,120.313L8.895,119.687L8.964,120.313L9.032,120.625L9.101,119.063L9.169,118.125L9.237,118.125L9.306,115.938L9.374,115.313L9.443,117.5L9.511,116.563L9.58,116.25L9.648,116.25L9.717,116.25L9.785,115.938L9.853,116.25L9.922,116.25L9.99,116.25L10.059,116.563L10.127,116.563L10.196,116.563L10.264,116.563L10.333,116.563L10.401,116.25L10.469,115L10.538,115.313L10.606,115.313L10.743,114.063L10.812,116.563L10.949,117.188L11.085,116.25L11.154,116.875L11.222,116.25L11.291,115L11.359,114.375L11.428,115L11.496,115L11.565,116.563L11.633,117.813L11.701,118.125L11.77,118.438L11.838,118.75L11.907,119.375L11.975,119.687L12.044,120.313L12.112,121.25L12.181,122.188L12.249,122.5L12.317,122.5L12.386,123.125L12.454,123.125L12.591,123.125L12.66,122.813L12.728,122.813L12.797,124.063L12.933,125L13.002,125.313L13.07,127.188L13.139,127.188L13.207,126.875L13.276,127.813L13.344,127.813L13.413,127.813L13.481,128.438L13.55,130.625L13.618,130L13.755,130L13.823,130L13.892,130.313L13.96,129.688L14.029,129.688L14.097,129.375L14.166,129.375L14.234,128.438L14.302,127.813L14.439,127.813L14.508,126.25L14.576,126.25L14.713,125.625L14.85,125.625L14.918,125.625L14.987,126.25L15.055,126.875L15.124,127.188L15.192,126.563L15.261,125.938L15.329,125L15.398,125L15.466,125L15.534,125.313L15.603,125.625L15.671,125.625L15.74,125.625L15.877,125.938L15.945,125.313L16.014,125.938L16.082,125.313L16.15,125.625L16.219,125.625L16.287,126.25L16.356,125.938L16.424,126.25L16.493,125.938L16.561,126.875L16.63,127.5L16.698,127.188L16.835,128.75L16.903,128.75L17.04,130L17.109,129.688L17.177,130L17.246,130L17.314,129.688L17.383,129.688L17.451,130L17.519,130L17.588,130L17.656,130L17.725,130.625L17.793,130.625L17.862,130.938L17.999,130.625L18.067,130.938L18.135,130.938L18.204,131.25L18.272,131.563L18.341,131.875L18.409,132.5L18.478,132.5L18.546,132.5L18.683,133.438L18.751,133.75L18.82,134.063L18.888,134.063L18.957,134.063L19.094,134.375L19.162,132.813L19.231,132.813L19.299,132.813L19.436,133.125L19.504,133.125L19.641,132.5L19.71,132.813L19.778,133.125L19.847,133.75L19.915,134.063L19.983,135L20.052,135L20.257,135L20.326,135L20.394,134.688L20.736,135.313L20.942,135L21.01,135.313L21.147,135.625L21.287,135.625L21.355,135.938L21.424,135.625L21.561,135.313L21.629,135.313L21.697,135.313L21.766,135.313L21.834,134.688L21.903,134.688L21.971,134.375L22.04,134.063L22.108,135.313L22.245,135.313L22.382,135L22.45,135.313L22.587,135.313L22.656,135.938L22.724,135.313L22.793,134.688L22.861,134.688L22.93,135L23.066,135L23.203,135L23.34,134.688L23.477,134.688L23.546,135L23.614,134.688L23.751,134.688L23.956,134.688L24.025,134.688L24.162,134.375L24.298,134.688L24.367,134.688L24.435,134.688L24.641,135L24.709,134.688L25.051,133.75L25.257,134.375L25.325,134.375L25.394,133.75L25.462,134.063L25.53,134.063L25.667,134.063L25.736,133.75L25.804,132.5L25.873,131.563L25.941,131.563L26.01,131.875L26.078,132.5L26.146,131.875L26.42,131.875L26.489,132.188L26.557,131.875L26.694,132.188L26.762,132.188L26.831,131.875L26.968,131.563L27.036,132.188L27.173,131.875L27.242,131.563L27.31,131.875L27.379,131.563L27.447,131.875L27.515,132.188L27.584,131.875L27.652,132.188L27.721,132.5L27.995,132.188L28.063,131.563L28.131,132.188L28.2,132.188L28.268,131.563L28.337,131.563L28.405,131.875L28.542,132.5L28.611,132.5L28.679,131.875L28.747,131.563L28.816,130.938L28.884,130L28.953,130L29.021,127.188L29.09,126.25L29.158,125.625L29.227,125L29.363,124.375L29.5,124.688L29.637,122.813L29.706,121.563L29.774,120.938L30.045,120.938L30.25,120.938L30.319,118.438L30.387,118.125L30.456,118.125L30.524,118.125L30.593,118.125L30.661,117.813L30.73,118.438L30.866,117.813L31.003,117.813L31.072,118.75L31.209,117.5L31.277,116.875L31.346,116.25L31.414,117.188L31.482,117.813L31.619,117.813L31.688,118.438L31.756,119.687L31.825,119.063L31.893,121.25L31.962,121.875L32.03,122.188L32.167,122.5L32.235,123.125L32.304,122.5L32.372,124.063L32.441,125L32.578,125.938L32.714,125.625L32.783,125.938L32.851,127.813L32.988,128.125L33.057,128.125L33.125,127.188L33.194,127.813L33.33,128.438L33.467,128.125L33.536,129.063L33.604,128.438L33.673,128.438L33.741,129.063L33.81,129.688L33.878,130.938L33.946,130.625L34.015,130.313L34.083,130.313L34.152,130.313L34.22,130.313L34.289,130.938L34.357,131.563L34.426,131.875L34.494,131.563L34.563,131.875L34.768,132.188L34.836,133.125L34.905,133.438L34.973,133.438L35.11,132.813L35.179,132.813L35.247,132.5L35.315,133.125L35.384,133.125L35.452,133.438L35.521,134.375L35.589,134.375L35.658,134.375L35.726,134.375L35.795,133.438L35.863,133.438L35.931,133.125L36,132.5L36.068,132.813L36.137,132.813L36.205,132.813L36.274,132.5L36.342,132.5L36.479,132.5L36.547,132.813L36.684,132.5L36.753,131.875L36.821,131.563L36.89,132.188L36.958,130.938L37.095,130.625L37.163,130.625L37.232,130.313L37.3,130.938L37.369,131.25L37.437,131.563L37.506,131.25L37.574,130.625L37.643,130L37.711,130L37.779,130L37.848,129.688L37.916,129.688L37.985,129.063L38.122,129.375L38.19,130L38.259,130.313L38.327,131.563L38.396,131.563L38.464,131.563L38.532,131.875L38.669,131.563L38.738,132.188L38.806,131.875L38.875,131.875L38.943,131.875L39.012,131.875L39.08,132.188L39.148,131.563L39.217,132.188L39.285,132.5L39.491,132.188L39.559,132.188L39.628,132.188L39.833,132.188L39.901,132.188L40.038,132.5L40.175,133.125L40.244,133.75L40.312,132.188L40.38,132.188L40.449,132.5L40.517,131.875L40.586,131.563L40.723,131.563L40.791,130.938L40.86,130.625L40.928,130L40.996,129.688L41.202,128.75L41.27,128.438L41.339,129.063L41.407,129.063L41.476,129.375L41.544,129.375L41.612,129.063L41.681,129.375L41.749,129.063L41.886,129.688L42.023,130.313L42.092,129.688L42.16,130L42.228,130L42.297,130L42.365,130.313L42.434,130L42.502,130.313L42.571,130L42.639,128.75L42.708,130.313L42.845,129.688L42.913,129.688L42.981,129.688L43.05,130.625L43.187,131.25L43.255,131.875L43.324,132.188L43.392,132.188L43.461,131.25L43.529,131.25L43.597,131.563L43.666,131.25L43.734,130.313L43.94,130.313L44.008,129.688L44.077,130.313L44.145,130.625L44.35,130.313L44.419,130L44.487,130L44.556,130.625L44.624,130.625L44.761,130.938L44.829,130.938L44.898,130.625L44.966,130.625L45.035,130.625L45.103,130.625L45.172,131.875L45.24,131.25L45.309,131.875L45.377,131.563L45.445,131.563L45.514,131.875L45.582,131.875L45.788,131.875L45.925,131.25L45.993,131.875L46.061,132.813L46.407,132.5L46.612,132.5L46.68,133.125L46.749,133.75L46.817,133.75L46.954,134.375L47.023,134.375L47.091,134.375L47.159,135.313L47.296,135.625L47.365,135.625L47.57,135.625L47.639,135.625L47.707,135.625L47.775,135L47.844,135L47.912,135.313L47.981,135.313L48.049,135.625L48.118,135.313L48.186,135.938L48.255,135.938L48.323,136.25L48.392,136.875L48.46,136.563L48.528,135.313L48.597,134.688L48.665,135L48.802,134.688L49.008,134.375L49.076,135L49.213,134.688L49.281,134.063L49.35,134.063L49.418,133.75L49.692,133.438L49.897,133.438L50.103,133.438L50.376,133.438L50.582,133.438L50.65,132.813L50.787,131.25L50.856,131.25L50.924,131.25L50.992,130.938L51.061,129.688L51.129,128.438L51.472,127.813L51.608,126.875L51.677,126.563L51.745,125.313L51.814,125.313L51.882,125.313L52.088,125.313L52.156,125L52.293,125.625L52.361,125.625L52.43,125.313L52.498,125.313L52.567,125.938L52.704,126.25L52.772,126.25L52.977,126.25L53.046,125L53.114,124.063L53.183,122.813L53.251,122.813L53.32,122.813L53.388,121.25L53.457,120L53.525,120.625L53.593,121.875L53.662,120.938L53.73,118.75L53.867,118.75L53.936,119.687L54.004,119.687L54.073,119.375L54.209,120L54.278,119.375L54.346,120L54.62,120L54.689,119.375L54.757,118.438L54.823,119.063L55.028,118.75L55.096,118.75L55.165,118.438L55.233,117.813L55.302,117.188L55.439,115.625L55.576,115L55.644,114.063L55.712,113.438L55.781,112.188L55.849,112.188L55.918,110.937L55.986,109.375L56.123,108.438L56.192,109.375L56.397,107.813L56.465,107.5L56.602,107.813L56.671,108.438L56.739,107.5L56.808,108.125L56.876,108.438L56.944,108.438L57.013,108.438L57.081,109.688L57.15,109.688L57.287,109.375L57.355,108.75L57.424,109.375L57.492,109.063L57.56,109.688L57.629,110L57.697,110.937L57.834,110.312L57.903,110.937L57.971,112.188L58.04,112.5L58.108,113.75L58.245,115.938L58.313,118.125L58.382,119.375L58.45,120.313L58.519,121.875L58.587,123.125L58.656,123.438L58.724,124.688L58.792,125.313L58.861,125.625L58.929,127.188L58.998,128.438L59.066,128.438L59.135,129.375L59.203,129.688L59.272,129.688L59.409,128.75L59.545,129.375L59.614,129.063L59.682,130L59.751,130L59.819,130L59.888,130.313L60.025,130L60.093,129.688L60.161,130.938L60.23,130.938L60.435,131.563L60.504,132.188L60.572,132.188L60.641,131.563L60.709,131.563L60.777,131.563L60.846,131.25L60.914,131.25L60.983,132.5L61.051,131.563L61.12,131.25L61.257,130.313L61.325,130.625L61.393,130.625L61.462,130.625L61.53,129.375L61.667,129.375L61.736,129.375L61.804,129.375L61.873,130.313L61.941,129.375L62.009,129.688L62.078,130L62.352,129.688L62.42,130L62.489,130L62.625,130.625L62.694,130.938L62.831,131.25L62.899,131.25L62.968,131.25L63.036,130.313L63.105,130.625L63.173,131.25L63.242,131.25L63.31,131.25L63.378,131.563L63.447,131.563L63.584,131.25L63.652,131.875L63.721,132.188L63.789,132.813L63.858,132.5L63.926,130.938L63.994,130.313L64.063,131.563L64.131,131.25L64.268,131.875L64.405,131.563L64.474,131.563L64.542,131.875L64.679,132.188L64.747,131.875L64.816,132.188L64.953,131.875L65.021,130.625L65.09,130.313L65.226,130.313L65.295,130.313L65.363,130.313L65.569,130L65.637,130.313L65.706,130L65.842,129.688L65.911,128.75L65.979,129.063L66.048,128.75L66.116,128.75L66.253,129.063L66.322,129.375L66.458,129.688L66.595,130L66.732,129.688L66.801,130.938L66.869,132.188L66.938,132.188L67.006,132.188L67.143,132.188L67.28,132.813L67.348,132.188L67.417,132.813L67.485,131.875L67.554,132.188L67.622,131.563L67.691,131.25L67.896,132.5L67.964,132.188L68.033,131.25L68.17,131.25L68.307,130.313L68.375,130L68.443,129.375L68.512,129.688L68.58,130L68.649,129.688L68.786,129.688L68.854,130L69.059,129.063L69.128,128.75L69.196,128.75L69.265,128.438L69.402,128.125L69.539,128.125L69.607,128.438L69.675,128.125L69.744,127.813L69.812,127.5L69.881,127.188L69.949,126.563L70.018,127.188L70.086,126.563L70.155,127.5L70.223,127.5L70.36,128.438L70.428,129.063L70.565,129.063L70.634,128.438L70.702,129.063L70.771,128.438L70.839,128.75L70.976,129.375L71.044,130L71.184,129.375L71.253,129.375L71.321,130.938L71.389,130.625L71.526,130.938L71.595,131.875L71.732,132.188L71.8,131.875L71.937,131.875L72.005,132.188L72.142,132.5L72.348,132.5L72.416,132.813L72.485,132.5L72.621,132.813L72.827,132.5L72.895,133.125L73.238,133.125L73.306,133.75L73.374,133.438L73.443,133.438L73.58,133.438L73.717,133.438L73.854,133.438L73.99,134.688L74.127,134.063L74.196,133.438L74.538,133.125L74.606,132.813L74.675,132.813L74.812,132.188L74.88,132.188L75.154,131.875L75.291,131.875L75.359,131.563L75.565,131.563L75.633,130.938L75.702,130.938L75.77,131.25L75.838,130.313L75.907,130L76.044,130L76.249,129.375L76.318,129.688L76.523,129.688L76.591,130.313L76.66,130.313L76.728,130L76.797,129.688L76.865,129.375L76.934,128.75L77.002,128.438L77.139,128.125L77.207,127.813L77.276,127.5L77.344,127.813L77.413,128.438L77.481,129.063L77.55,129.375L77.687,130L77.755,130.938L77.823,129.688L78.029,129.688L78.097,129.688L78.166,129.375L78.234,128.125L78.371,127.813L78.439,127.5L78.508,126.875L78.645,127.813L78.713,128.125L78.782,127.5L78.85,127.5L78.919,127.5L78.987,127.813L79.055,126.875L79.124,124.375L79.192,124.063L79.329,123.75L79.535,123.125L79.603,122.813L79.671,123.125L79.737,123.125L79.874,122.188L79.942,121.563L80.011,120L80.079,118.125L80.148,117.5L80.216,115.313L80.285,114.688L80.353,115L80.558,115.625L80.627,115.313L80.695,115.313L80.764,115L80.832,116.25L80.901,116.25L80.969,115.938L81.038,115.938L81.106,113.75L81.174,113.75L81.243,114.375L81.311,114.063L81.38,114.375L81.517,113.438L81.585,113.125L81.654,113.75L81.722,113.75L81.79,113.75L81.859,114.688L81.927,115L81.996,114.688L82.064,113.438L82.133,113.125L82.201,111.563L82.27,113.125L82.338,114.375L82.406,115.313L82.475,115.625L82.543,116.25L82.612,116.25L82.68,115.625L82.749,114.375L82.817,114.063L82.886,114.688L82.954,114.688L83.022,115.313L83.091,115.313L83.159,115.313L83.228,117.5L83.296,116.563L83.365,115L83.433,115.625L83.57,114.688L83.638,114.375L83.707,114.063L83.775,115.625L83.844,114.375L83.912,114.063L84.049,114.375L84.118,112.5L84.255,111.875L84.323,112.5L84.391,113.438L84.46,115.938L84.528,115.313L84.597,115.313L84.665,113.75L84.734,114.688L84.802,114.063L84.871,114.063L84.939,114.375L85.076,115.625L85.144,115.938L85.213,115.625L85.281,115.313L85.35,115.313L85.418,114.688L85.487,115L85.555,114.063L85.623,115L85.692,115.938L85.76,115.938L85.829,116.563L85.897,117.5L85.966,118.438L86.034,117.813L86.103,119.063L86.171,120L86.239,119.687L86.308,121.563L86.445,122.5L86.582,123.125L86.65,123.75L86.719,123.75L86.787,124.063L86.855,124.375L86.924,125.625L86.992,126.25L87.061,126.25L87.129,126.25L87.198,126.875L87.266,126.563L87.335,125.625L87.403,126.25L87.608,125.625L87.745,125.313L87.814,126.25L87.882,125.938L87.951,126.875L88.019,126.875L88.087,127.188L88.156,126.563L88.224,126.563L88.293,125.625L88.43,126.25L88.498,126.25L88.567,125.938L88.635,125.938L88.704,125.625L88.772,126.25L88.84,126.25L88.909,125.938L88.977,125L89.046,123.438L89.114,124.063L89.183,124.688L89.251,125L89.32,125.313L89.456,125.625L89.525,125.625L89.593,125.625L89.662,126.25L89.73,126.563L89.799,125.938L89.867,125.938L89.936,125.625L90.004,125.938L90.072,125.938L90.141,125.938L90.209,125.938L90.278,125.938L90.346,126.563L90.415,126.563L90.483,126.875L90.552,125.625L90.62,126.563L90.688,126.563L90.825,126.25L90.894,125.938L90.962,123.125L91.099,123.125L91.168,123.438L91.236,123.125L91.304,123.75L91.373,124.063L91.441,123.125L91.51,122.5L91.578,121.563L91.647,121.25L91.715,120.313L91.784,119.687L91.92,119.687L91.989,119.375L92.057,120L92.126,120.313L92.194,120.625L92.263,120.313L92.331,120.313L92.468,119.687L92.537,120L92.605,119.687L92.673,119.687L92.742,119.687L92.81,119.375L92.879,119.375L93.016,119.375L93.084,120L93.153,119.375L93.221,120.313L93.289,121.875L93.358,121.25L93.426,121.563L93.495,122.5L93.563,123.438L93.632,123.438L93.7,124.688L93.769,125.313L93.905,126.25L93.974,126.875L94.042,127.813L94.111,128.75L94.179,127.813L94.248,128.125L94.316,127.813L94.385,128.438L94.453,128.438L94.521,129.063L94.59,129.688L94.658,130L94.727,129.688L94.795,130.313L94.864,130.313L94.932,130.625L95.001,131.563L95.069,132.5L95.137,129.063L95.206,129.375L95.274,129.063L95.343,128.438L95.411,129.375L95.548,129.688L95.617,129.688L95.753,129.688L95.822,128.75L95.959,128.75L96.03,128.75L96.099,128.125L96.167,128.125L96.235,126.25L96.304,125.625L96.372,125.625L96.441,126.563L96.509,126.25L96.578,126.25L96.646,125.938L96.715,126.25L96.783,126.25L96.851,126.25L96.92,125.313L96.988,125.313L97.057,124.063L97.125,124.375L97.194,124.375L97.262,124.375L97.331,122.813L97.399,125L97.467,123.75L97.536,125L97.604,125.313L97.673,125.313L97.741,123.438L97.81,121.875L97.878,120.938L97.947,120.625L98.015,116.563L98.152,112.813L98.22,113.125L98.289,113.125L98.357,113.438L98.494,113.438L98.7,112.5L98.768,111.875L98.836,112.188L98.905,111.563L98.973,110.625L99.042,109.688L99.179,109.375L99.247,107.188L99.316,107.813L99.384,106.25L99.452,106.563L99.521,105.625L99.658,104.688L99.726,104.375L99.795,103.125L99.932,104.375L100,105.625L100.068,104.688L100.137,104.375L100.205,104.688L100.274,106.25L100.548,107.813L100.616,108.75L100.684,109.688L100.753,113.438L100.821,116.563L100.89,115.938L100.958,114.688L101.027,114.063L101.164,114.063L101.3,113.75L101.369,113.75L101.437,112.813L101.506,113.438L101.574,112.813L101.643,114.063L101.711,113.438L101.78,114.375L101.848,114.375L101.916,116.25L101.985,117.188L102.053,117.188L102.122,117.813L102.19,117.813L102.259,120.313L102.327,120L102.396,119.063L102.464,118.75L102.533,118.438L102.601,117.813L102.669,117.5L102.806,114.063L102.875,114.063L102.943,112.813L103.012,111.563L103.08,111.563L103.149,112.188L103.217,112.188L103.285,113.75L103.354,112.813L103.422,113.438L103.491,114.375L103.559,116.25L103.628,115.313L103.696,117.188L103.765,116.563L103.833,116.25L103.901,116.563L103.97,116.563L104.107,116.25L104.175,116.25L104.244,115.625L104.312,115.313L104.381,114.688L104.449,114.063L104.517,112.188L104.586,113.125L104.651,112.813L104.72,113.438L104.788,113.75L104.857,114.063L104.925,116.563L104.994,115.313L105.062,116.563L105.131,117.5L105.199,117.5L105.268,116.875L105.336,117.5L105.404,117.813L105.473,118.438L105.541,118.438L105.61,117.5L105.678,117.188L105.747,117.188L105.815,115L105.884,114.688L105.952,114.688L106.02,113.125L106.089,112.188L106.157,112.5L106.226,110.312L106.294,109.063L106.363,105.625L106.431,105.938L106.5,105.938L106.568,106.563L106.636,105L106.705,105.313L106.773,101.562L106.842,100.625L106.91,100.625L106.979,101.562L107.047,102.5L107.116,102.188L107.184,101.25L107.252,100.625L107.321,99.375L107.389,98.125L107.458,96.25L107.595,95.625L107.663,94.375L107.732,94.063L107.8,94.063L107.868,94.375L107.937,95.313L108.005,94.688L108.074,94.375L108.142,94.063L108.211,94.063L108.279,90.938L108.348,91.875L108.416,93.125L108.484,96.875L108.553,96.875L108.621,95.625L108.69,96.875L108.758,97.5L108.827,97.5L108.895,100.625L108.964,100.937L109.032,101.25L109.101,100.625L109.169,100.937L109.237,100.937L109.306,100.625L109.374,100.313L109.443,101.25L109.511,101.562L109.58,102.5L109.648,103.125L109.717,103.75L109.785,104.375L109.853,104.688L109.922,105.625L109.99,106.25L110.059,106.25L110.127,107.813L110.196,110L110.264,110.625L110.333,113.438L110.401,114.375L110.469,115L110.538,115L110.606,115.938L110.675,117.5L110.743,117.5L110.812,118.125L110.88,119.063L110.949,120L111.017,120L111.085,120L111.154,120.313L111.222,120.625L111.291,120.313L111.359,119.687L111.428,121.25L111.496,122.188L111.565,123.438L111.633,124.375L111.701,125L111.77,125.313L111.838,125.313L111.907,124.375L111.975,124.375L112.044,124.688L112.112,125L112.181,124.375L112.249,124.375L112.317,125.313L112.386,125.625L112.454,125.313L112.523,125.625L112.591,125.625L112.66,125.625L112.728,126.25L112.797,125.625L112.865,125.313L112.933,123.75L113.002,122.813L113.139,123.438L113.207,122.813L113.276,121.875L113.344,121.875L113.413,122.188L113.481,124.375L113.55,122.813L113.618,122.188L113.686,121.875L113.823,120.313L113.892,119.687L114.029,120.625L114.097,120.625L114.166,120L114.234,119.687L114.371,119.375L114.439,119.687L114.508,120.313L114.576,120.938L114.713,120L114.782,120L114.918,120.313L115.055,120.938L115.124,121.25L115.192,120.313L115.261,119.687L115.329,119.687L115.398,120L115.534,121.25L115.603,121.563L115.671,120.938L115.74,121.875L115.808,122.813L115.877,122.188L115.945,122.5L116.014,122.188L116.082,122.813L116.15,122.813L116.219,122.188L116.287,123.125L116.356,124.063L116.493,123.438L116.561,122.813L116.63,124.375L116.698,123.125L116.835,123.438L116.903,124.375L116.972,122.813L117.04,122.5L117.109,121.563L117.177,119.063L117.246,118.75L117.314,118.125L117.383,117.188L117.451,118.125L117.519,118.125L117.588,118.75L117.656,118.75L117.725,119.063L117.793,118.75L117.862,119.375L117.93,119.375L117.999,119.375L118.067,119.687L118.135,118.438L118.204,115.938L118.272,115.625L118.341,116.25L118.409,116.875L118.478,117.188L118.546,117.188L118.615,117.188L118.683,118.438L118.751,117.5L118.82,117.5L118.888,117.5L118.957,116.875L119.025,118.438L119.094,117.5L119.162,119.375L119.231,121.875L119.299,122.188L119.367,121.25L119.504,121.875L119.641,121.25L119.71,120.938L119.778,120.938L119.847,120.938L119.915,119.375L119.983,120.313L120.052,120.625L120.12,120.313L120.189,119.063L120.257,119.063L120.326,120.625L120.394,123.125L120.463,124.375L120.531,124.688L120.805,125L120.945,125.625L121.013,125.625L121.081,126.25L121.15,125.938L121.218,126.25L121.287,127.5L121.355,127.5L121.424,127.188L121.492,126.563L121.561,126.875L121.629,126.25L121.697,126.25L121.766,126.563L121.834,127.5L121.903,127.813L121.971,128.438L122.04,129.375L122.108,128.75L122.177,128.75L122.245,130.625L122.313,130.313L122.382,129.688L122.45,129.375L122.519,130.313L122.587,130.625L122.656,129.688L122.724,130.313L122.793,129.688L122.93,129.063L122.998,128.438L123.135,126.25L123.203,125.938L123.272,125L123.409,125.313L123.477,125.625L123.546,123.75L123.614,121.25L123.682,120.313L123.751,120L123.888,120.313L123.956,120.313L124.025,119.687L124.162,118.125L124.23,118.125L124.298,115L124.367,114.375L124.435,114.063L124.504,114.063L124.572,113.438L124.709,111.25L124.778,111.25L124.846,111.875L125.051,112.5L125.12,112.5L125.188,111.25L125.257,111.25L125.325,110.312L125.394,110.625L125.462,110.312L125.53,109.688L125.599,111.563L125.667,110L125.736,110L125.804,109.375L125.873,108.75L125.941,109.375L126.01,110L126.078,111.563L126.146,111.875L126.215,111.25L126.283,110.312L126.352,110.312L126.42,110.625L126.489,110.625L126.557,112.813L126.626,110.937L126.694,110.625L126.762,110.312L126.831,110.312L126.899,111.875L127.036,111.25L127.105,110L127.173,109.063L127.242,108.125L127.31,108.125L127.379,108.75L127.447,108.75L127.515,108.125L127.584,107.813L127.652,108.125L127.721,105L127.789,104.375L127.858,104.375L127.926,104.688L127.995,104.688L128.063,105L128.131,106.875L128.2,105L128.268,104.688L128.337,102.5L128.405,101.562L128.474,100L128.542,99.688L128.611,100L128.679,100.313L128.747,102.188L128.816,100L128.884,100.625L128.953,101.25L129.021,100.937L129.09,100.313L129.158,101.25L129.227,99.375L129.295,100.313L129.363,99.688L129.432,97.5L129.5,95.938L129.569,94.375L129.637,92.187L129.706,91.562L129.774,92.813L129.843,93.75L129.911,94.375L129.979,92.813L130.045,91.562L130.114,92.187L130.182,91.875L130.319,93.75L130.387,93.438L130.456,95.938L130.524,95L130.593,96.25L130.661,95.938L130.73,92.5L130.798,90L130.866,89.688L130.935,91.25L131.003,90.313L131.072,88.75L131.14,87.813L131.209,87.813L131.277,85.938L131.346,87.813L131.414,87.5L131.482,86.875L131.551,85.938L131.619,87.813L131.688,90L131.756,93.125L131.825,94.688L131.893,92.5L131.962,93.438L132.03,91.562L132.098,91.875L132.167,91.875L132.235,91.562L132.304,89.688L132.372,89.063L132.441,88.125L132.509,87.5L132.578,86.875L132.646,86.563L132.714,86.875L132.783,89.063L132.851,89.688L132.92,90.313L132.988,90.313L133.057,90.313L133.125,92.187L133.194,94.063L133.262,95L133.33,95.938L133.399,95.313L133.467,92.187L133.604,93.125L133.673,96.25L133.741,94.375L133.81,92.813L133.878,91.25L133.946,90.313L134.015,92.813L134.083,91.875L134.152,91.875L134.22,91.875L134.289,91.562L134.357,90L134.426,90.313L134.494,90.313L134.563,91.562L134.631,93.125L134.699,95.313L134.768,93.75L134.836,93.438L134.905,94.375L134.973,95.625L135.042,94.375L135.11,94.063L135.247,94.063L135.315,93.438L135.384,91.562L135.452,89.688L135.521,89.063L135.589,88.75L135.658,92.5L135.726,92.813L135.795,92.813L135.863,94.375L135.931,95.938L136,96.875L136.068,96.875L136.137,98.438L136.274,99.688L136.342,100.313L136.411,101.875L136.479,104.375L136.547,106.875L136.616,108.438L136.684,107.813L136.753,108.125L136.821,106.563L136.89,107.188L136.958,109.375L137.027,110.937L137.095,110.937L137.163,110.625L137.232,111.875L137.3,109.688L137.369,111.25L137.437,109.688L137.506,110.937L137.574,111.875L137.643,113.438L137.711,115L137.779,113.75L137.848,114.375L137.916,113.75L137.985,114.375L138.053,114.688L138.122,115L138.19,116.25L138.259,115.313L138.327,113.75L138.396,114.375L138.464,113.125L138.532,112.5L138.601,111.875L138.669,111.25L138.738,112.188L138.806,111.25L138.875,110.625L138.943,111.563L139.012,110.625L139.08,109.063L139.148,108.125L139.217,109.375L139.285,108.438L139.354,112.5L139.422,112.188L139.491,113.75L139.559,112.5L139.628,113.75L139.696,113.438L139.764,111.875L139.833,112.188L139.901,111.875L139.97,112.813L140.038,109.688L140.107,109.063L140.175,108.75L140.244,106.25L140.312,105.938L140.38,105.625L140.449,105.625L140.517,105L140.586,103.75L140.654,102.813L140.723,103.438L140.791,101.25L140.86,101.562L140.928,102.5L141.065,101.875L141.133,102.188L141.202,101.562L141.27,100.625L141.339,97.813L141.407,97.5L141.476,95.625L141.544,93.438L141.612,92.813L141.681,91.875L141.749,90.625L141.818,90L141.886,91.875L142.023,91.562L142.092,90L142.16,88.125L142.228,90.938L142.297,90.938L142.365,91.875L142.434,93.438L142.502,93.125L142.571,94.688L142.639,91.562L142.708,90.625L142.776,90.938L142.845,92.5L142.913,92.187L142.981,93.438L143.05,93.125L143.118,93.125L143.187,92.187L143.255,92.5L143.324,92.5L143.392,94.063L143.461,95.625L143.529,95L143.597,95.625L143.666,97.5L143.734,97.5L143.803,98.438L143.871,97.813L143.94,96.563L144.008,94.688L144.077,95.313L144.145,95.625L144.213,94.375L144.282,92.5L144.35,90L144.419,88.125L144.487,87.188L144.556,87.5L144.624,87.188L144.693,89.063L144.761,90L144.829,90L144.898,89.375L144.966,89.375L145.035,88.75L145.103,88.75L145.172,88.75L145.24,90.313L145.309,90.625L145.377,92.813L145.514,93.75L145.582,95L145.651,97.188L145.719,97.188L145.788,96.563L145.856,95.625L145.925,94.375L145.993,94.063L146.061,95.625L146.13,96.563L146.198,95.938L146.267,95.938L146.338,97.5L146.407,97.5L146.475,99.063L146.543,99.375L146.612,99.063L146.68,99.688L146.749,99.375L146.817,100L146.886,100L146.954,99.063L147.023,97.5L147.091,97.5L147.159,98.75L147.228,98.438L147.296,98.438L147.365,98.438L147.433,98.438L147.502,97.188L147.57,97.188L147.639,95.313L147.707,94.375L147.775,94.375L147.844,94.063L147.912,95L147.981,97.188L148.049,99.063L148.118,97.188L148.186,96.25L148.255,96.25L148.323,97.5L148.392,96.25L148.46,95.313L148.528,95L148.597,96.25L148.665,97.188L148.734,95.938L148.802,96.25L148.871,95.625L148.939,96.25L149.008,98.125L149.076,100.313L149.144,101.25L149.213,100.937L149.281,102.188L149.35,102.5L149.418,102.813L149.487,102.5L149.555,102.5L149.624,101.562L149.692,100.937L149.76,101.562L149.829,101.875L149.897,101.25L149.966,97.188L150.034,95.938L150.103,94.688L150.171,97.188L150.24,96.875L150.308,98.438L150.376,98.75L150.445,100L150.513,102.5L150.582,103.438L150.65,100.625L150.719,99.688L150.787,98.438L150.856,98.125L150.924,99.375L150.992,100.313L151.061,98.75L151.129,95.938L151.198,93.125L151.266,92.813L151.335,92.813L151.403,93.125L151.472,91.25L151.54,91.562L151.608,91.875L151.677,91.562L151.745,94.063L151.814,92.5L151.882,91.875L151.951,91.875L152.019,92.813L152.088,92.187L152.156,92.5L152.225,90.938L152.293,91.562L152.43,90.625L152.498,89.688L152.567,89.375L152.635,90.313L152.704,86.563L152.772,86.25L152.841,86.875L152.909,88.75L152.977,86.25L153.046,85L153.114,84.375L153.183,84.688L153.251,86.25L153.32,85.938L153.388,85L153.457,81.875L153.525,80.625L153.593,82.187L153.662,80.625L153.73,80.625L153.799,80.313L153.867,80.313L153.936,80.938L154.004,79.375L154.073,78.75L154.141,81.25L154.209,81.563L154.278,82.187L154.346,81.563L154.415,77.5L154.483,76.875L154.552,77.188L154.62,74.063L154.689,70.625L154.757,71.25L154.894,68.438L154.96,68.438L155.028,66.875L155.096,66.875L155.165,63.75L155.233,60.938L155.302,58.437L155.37,58.437L155.439,59.375L155.507,59.375L155.576,61.25L155.644,60L155.712,58.75L155.781,58.75L155.849,56.563L155.918,55.625L155.986,54.375L156.055,50.625L156.123,50.625L156.192,51.25L156.26,49.688L156.328,51.25L156.397,48.437L156.465,47.5L156.534,50L156.602,50L156.671,50.938L156.739,53.437L156.808,53.437L156.876,51.875L156.944,54.688L157.013,52.5L157.081,50.938L157.15,52.812L157.218,55.625L157.287,55.625L157.355,55.313L157.424,54.063L157.492,52.5L157.56,50.313L157.629,49.688L157.697,52.5L157.766,53.125L157.834,52.188L157.903,50L157.971,48.437L158.04,48.437L158.108,51.563L158.176,53.125L158.245,53.437L158.313,56.25L158.382,55.938L158.45,57.188L158.519,57.5L158.587,59.688L158.656,57.188L158.724,55L158.792,56.563L158.861,56.563L158.929,58.75L158.998,59.688L159.066,61.563L159.135,64.375L159.203,61.875L159.272,61.563L159.34,62.5L159.409,64.375L159.477,62.5L159.545,65L159.614,68.75L159.682,69.063L159.751,67.5L159.819,65L159.888,63.438L159.956,64.375L160.025,66.875L160.093,66.563L160.161,66.563L160.23,66.875L160.298,67.812L160.367,66.563L160.435,66.875L160.504,68.75L160.572,71.25L160.641,70.938L160.709,75L160.777,75.625L160.846,74.688L160.914,76.563L160.983,78.75L161.051,79.688L161.12,80.625L161.188,81.875L161.257,85L161.325,85.938L161.393,88.75L161.462,90.313L161.53,94.688L161.599,95.625L161.667,96.25L161.736,98.125L161.804,98.75L161.873,102.188L161.941,106.563L162.009,111.25L162.078,112.813L162.146,114.063L162.215,114.688L162.283,115L162.352,114.688L162.42,116.25L162.489,116.25L162.557,116.875L162.625,115.625L162.694,115.938L162.762,115.313L162.831,116.875L162.899,117.188L162.968,118.438L163.036,118.75L163.105,119.375L163.173,119.375L163.242,119.375L163.31,120L163.378,120.938L163.447,120.625L163.515,120.625L163.584,119.375L163.652,119.687L163.721,120L163.789,119.063L163.858,120L163.926,119.687L163.994,119.687L164.063,117.813L164.131,116.563L164.2,116.563L164.268,116.875L164.337,117.5L164.405,117.813L164.474,115.625L164.542,115.313L164.61,113.125L164.679,113.125L164.747,113.125L164.816,112.188L164.884,110.937L164.953,110.312L165.021,107.188L165.09,106.25L165.158,106.25L165.295,105L165.363,104.375L165.432,103.125L165.5,102.188L165.569,98.75L165.637,98.75L165.706,98.438L165.774,98.438L165.842,96.25L165.911,95L165.979,94.688L166.048,92.187L166.116,91.562L166.185,92.5L166.253,92.5L166.39,90.938L166.458,90L166.527,88.75L166.595,88.438L166.664,90.625L166.732,90.938L166.801,92.5L166.869,94.375L166.938,94.063L167.074,94.688L167.143,95.938L167.211,97.5L167.28,100.937L167.348,102.188L167.417,102.813L167.485,102.5L167.554,102.5L167.622,102.813L167.691,102.813L167.759,106.25L167.827,105.625L167.896,105.625L167.964,104.375L168.033,106.25L168.101,106.563L168.17,105.938L168.238,107.5L168.307,107.813L168.375,108.125L168.443,107.5L168.512,107.813L168.58,108.125L168.649,108.125L168.717,107.813L168.786,106.563L168.854,106.25L168.923,103.438L168.991,101.875L169.059,101.25L169.128,101.562L169.196,99.375L169.265,98.438L169.333,94.688L169.402,94.063L169.47,94.063L169.539,93.75L169.607,93.125L169.675,93.75L169.744,94.375L169.812,93.75L169.881,94.063L169.949,94.375L170.018,95.313L170.086,94.063L170.155,95.313L170.223,95.938L170.291,95.625L170.36,95.938L170.428,96.563L170.497,97.188L170.565,97.813L170.634,98.438L170.702,97.813L170.771,98.75L170.839,99.063L170.907,96.875L170.976,100L171.044,99.688L171.113,99.375L171.181,98.75L171.253,100.625L171.321,100L171.389,101.875L171.458,100.625L171.526,99.688L171.595,101.875L171.663,102.188L171.732,103.125L171.8,103.75L171.869,104.688L171.937,104.063L172.074,101.562L172.142,99.375L172.211,99.375L172.279,99.375L172.348,98.75L172.416,99.688L172.485,100L172.553,99.063L172.621,99.688L172.69,99.375L172.758,99.375L172.827,101.562L172.895,102.188L172.964,102.5L173.032,105.625L173.101,104.688L173.169,105.625L173.238,107.5L173.306,108.125L173.374,106.875L173.443,108.438L173.511,107.5L173.58,108.438L173.648,109.375L173.717,108.75L173.785,109.375L173.854,107.188L173.922,105L173.99,103.75L174.059,105L174.127,108.125L174.196,109.375L174.264,107.188L174.333,105.313L174.401,105.938L174.538,104.688L174.675,102.813L174.743,102.813L174.812,100.937L174.88,98.75L174.949,95.938L175.017,94.688L175.086,92.5L175.154,90.625L175.222,86.875L175.291,86.563L175.359,86.875L175.428,85.313L175.496,83.438L175.565,82.5L175.633,80.313L175.702,80.625L175.77,79.688L175.838,77.5L175.907,74.688L175.975,73.75L176.044,73.125L176.112,74.688L176.181,75L176.249,75.938L176.318,75.313L176.386,74.375L176.454,75.938L176.523,77.5L176.591,76.563L176.66,76.563L176.728,77.5L176.797,76.875L176.865,77.5L176.934,78.438L177.002,80L177.07,80.313L177.139,79.375L177.207,79.688L177.276,81.563L177.344,80L177.413,75.938L177.481,75L177.55,74.375L177.618,76.25L177.687,77.188L177.755,77.813L177.823,75.625L177.892,77.188L177.96,80L178.029,78.438L178.097,77.5L178.166,75.313L178.234,73.438L178.303,70.313L178.371,70L178.439,65.938L178.508,65.938L178.576,64.063L178.645,62.812L178.713,62.812L178.782,58.75L178.85,56.563L178.919,56.875L178.987,57.5L179.055,58.125L179.124,54.063L179.192,55.313L179.261,52.812L179.329,51.25L179.398,50L179.466,53.75L179.535,50.625L179.603,53.125L179.671,51.875L179.74,51.563L179.808,49.062L179.874,48.125L179.942,45L180.011,43.437L180.079,42.188L180.148,44.375L180.216,43.437L180.285,42.813L180.353,39.687L180.422,36.25L180.49,36.875L180.558,35.313L180.627,35.938L180.695,35.938L180.764,33.438L180.832,34.375L180.901,32.5L180.969,30.625L181.038,26.25L181.106,25.625L181.174,25.312L181.243,23.438L181.311,23.125L181.38,24.062L181.448,24.062L181.517,22.813L181.585,23.75L181.654,20.312L181.722,17.188L181.79,14.375L181.859,15.625L181.927,18.438L181.996,21.563L182.064,21.563L182.133,23.125L182.201,21.563L182.27,24.062L182.338,25.938L182.406,29.687L182.475,34.062L182.543,34.062L182.612,33.438L182.68,33.125L182.749,33.125L182.817,33.75L182.886,33.75L182.954,36.875L183.022,38.75L183.159,44.375L183.228,43.75L183.296,47.188L183.365,48.125L183.433,48.125L183.502,48.437L183.57,50L183.638,48.437L183.707,51.25L183.775,55L183.844,58.437L183.912,61.875L183.981,64.063L184.049,65.938L184.118,63.75L184.186,63.75L184.255,64.688L184.323,63.75L184.391,63.438L184.46,62.187L184.528,60.938L184.597,57.188L184.665,59.063L184.734,60.625L184.802,61.875L184.871,62.187L184.939,64.375L185.007,66.875L185.076,67.188L185.144,66.563L185.213,64.688L185.281,65.938L185.35,64.688L185.418,66.563L185.487,70.313L185.555,72.5L185.623,74.375L185.692,77.188L185.76,78.438L185.829,77.813L185.897,79.688L185.966,80L186.034,80L186.103,78.75L186.171,79.063L186.239,80.938L186.308,81.875L186.376,84.688L186.445,86.563L186.513,86.875L186.582,89.063L186.65,91.25L186.719,94.375L186.787,96.563L186.855,96.563L186.924,98.75L186.992,98.125L187.061,98.438L187.129,98.75L187.198,99.688L187.266,101.562L187.335,102.188L187.403,104.688L187.471,103.438L187.54,103.125L187.608,101.875L187.677,100.625L187.745,100L187.814,99.688L187.882,98.438L187.951,98.125L188.019,97.5L188.087,96.875L188.156,95.938L188.224,98.125L188.293,97.813L188.361,95.313L188.43,94.063L188.498,89.063L188.567,89.063L188.635,88.75L188.704,90.625L188.772,88.125L188.84,86.875L188.909,86.875L188.977,85.625L189.046,85L189.114,84.688L189.183,85.938L189.251,85.625L189.32,83.438L189.388,82.5L189.456,80L189.525,80.625L189.593,78.438L189.662,78.438L189.73,79.063L189.799,79.063L189.867,78.75L189.936,78.75L190.004,78.438L190.072,78.438L190.141,78.438L190.209,79.688L190.278,80.313L190.346,80.313L190.415,79.688L190.483,80.313L190.552,83.125L190.62,83.125L190.688,83.125L190.757,81.875L190.825,82.5L190.894,80.938L190.962,80.313L191.031,80.625L191.099,83.438L191.168,85L191.236,85.625L191.304,86.25L191.373,86.25L191.441,85.625L191.51,88.438L191.578,87.813L191.647,90L191.715,89.688L191.784,88.125L191.852,87.813L191.92,88.125L191.989,87.813L192.057,85.938L192.126,86.563L192.194,84.063L192.263,82.5L192.331,79.063L192.4,76.875L192.468,78.75L192.537,79.375L192.605,78.75L192.673,76.25L192.742,72.5L192.879,71.563L192.947,72.188L193.016,74.063L193.084,72.5L193.153,70L193.221,65.313L193.289,61.563L193.358,59.063L193.426,55.938L193.495,57.5L193.632,59.375L193.7,55.938L193.769,54.688L193.837,54.688L193.905,54.375L193.974,54.688L194.042,54.063L194.111,52.5L194.179,52.812L194.248,54.063L194.316,51.563L194.385,52.188L194.453,54.063L194.521,56.25L194.59,57.188L194.658,57.812L194.727,55.313L194.795,56.563L194.864,59.375L194.932,62.812L195.001,62.187L195.069,61.25L195.137,60.938L195.206,62.5L195.274,64.063L195.343,67.812L195.411,71.563L195.48,74.063L195.548,77.813L195.617,76.875L195.685,75L195.753,76.25L195.822,76.563L195.89,75.625L195.959,75.625L196.027,78.438L196.096,80L196.167,80L196.235,79.688L196.304,78.125L196.372,80.625L196.441,82.5L196.509,81.875L196.578,83.125L196.646,84.375L196.715,82.812L196.783,85.313L196.851,85L196.92,84.688L196.988,86.25L197.057,89.375L197.125,91.25L197.194,92.5L197.262,94.375L197.331,95L197.399,94.375L197.467,93.125L197.536,92.813L197.604,92.5L197.673,92.813L197.741,94.688L197.81,96.25L197.878,98.125L197.947,99.375L198.015,99.063L198.084,98.75L198.152,99.375L198.22,100L198.289,102.5L198.357,104.063L198.426,104.063L198.494,102.813L198.563,103.438L198.631,101.875L198.7,100.937L198.768,102.813L198.836,101.25L198.905,100L198.973,101.562L199.042,100L199.11,98.75L199.179,98.438L199.247,96.875L199.316,94.688L199.384,95.625L199.452,95L199.521,94.688L199.589,93.438L199.658,92.5L199.726,94.375L199.795,93.125L199.863,93.125L199.932,90.938L200,90.625L200.068,92.813L200.137,91.25L200.205,88.75L200.274,85.938L200.342,83.75L200.411,82.187L200.479,79.688L200.548,80.625L200.616,79.063L200.684,78.438L200.753,75.625L200.821,72.813L200.89,72.813L200.958,72.5L201.027,71.563L201.095,71.25L201.164,70.313L201.232,69.063L201.3,70L201.369,70.625L201.437,68.125L201.506,68.125L201.574,68.438L201.643,66.563L201.711,66.563L201.78,65.625L201.848,62.5L201.916,61.25L201.985,63.125L202.053,60L202.122,57.188L202.19,57.5L202.259,57.188" stroke="#4c78a8" stroke-width="2"/></g><g class="mark-group role-title"><g transform="translate(100,-17)"><path class="background" aria-hidden="true" d="M0,0h0v0h0Z" pointer-events="none"/><g><g class="mark-text role-title-text" role="graphics-symbol" aria-roledescription="title" aria-label="Title text 'Animal in a Park: Dog Off Leash'" pointer-events="none"><text text-anchor="middle" transform="translate(0,10)" font-family="sans-serif" font-size="13px" font-weight="bold" fill="#000" opacity="1">Animal in a Park: Dog Off Leash</text></g></g><path class="foreground" aria-hidden="true" d="" pointer-events="none" display="none"/></g></g></g><path class="foreground" aria-hidden="true" d="" display="none"/></g></g></g><defs><clipPath id="clip115"><rect x="0" y="0" width="200" height="150"/></clipPath></defs></svg>