<svg xmlns="http://www.w3.org/2000/svg" xmlns:xlink="http://www.w3.org/1999/xlink" version="1.1" class="marks" width="232" height="194" viewBox="0 0 232 194"><rect width="232" height="194" fill="white"/><g fill="none" stroke-miterlimit="10" transform="translate(24,22)"><g class="mark-group role-frame root" role="graphics-object" aria-roledescription="group mark container"><g transform="translate(0,0)"><path class="background" aria-hidden="true" d="M0,0h200v150h-200Z"/><g><g class="mark-group role-axis" aria-hidden="true"><g transform="translate(0.5,0.5)"><path class="background" aria-hidden="true" d="M0,0h0v0h0Z" pointer-events="none"/><g><g class="mark-rule role-axis-grid" pointer-events="none"><line transform="translate(0,150)" x2="200" y2="0" stroke="#ddd" stroke-width="1" opacity="1"/><line transform="translate(0,117)" x2="200" y2="0" stroke="#ddd" stroke-width="1" opacity="1"/><line transform="translate(0,83)" x2="200" y2="0" stroke="#ddd" stroke-width="1" opacity="1"/><line transform="translate(0,50)" x2="200" y2="0" stroke="#ddd" stroke-width="1" opacity="1"/><line transform="translate(0,17)" x2="200" y2="0" stroke="#ddd" stroke-width="1" opacity="1"/></g></g><path class="foreground" aria-hidden="true" d="" pointer-events="none" display="none"/></g></g><g class="mark-group role-axis" role="graphics-symbol" aria-roledescription="axis" aria-label="X-axis for a time scale with values from Friday, 01 January 2016, 12:00:00 AM to Monday, 01 January 2024, 12:00:00 AM"><g transform="translate(0.5,150.5)"><path class="background" aria-hidden="true" d="M0,0h0v0h0Z" pointer-events="none"/><g><g class="mark-rule role-axis-tick" pointer-events="none"><line transform="translate(0,0)" x2="0" y2="5" stroke="#888" stroke-width="1" opacity="1"/><line transform="translate(50,0)" x2="0" y2="5" stroke="#888" stroke-width="1" opacity="1"/><line transform="translate(100,0)" x2="0" y2="5" stroke="#888" stroke-width="1" opacity="1"/><line transform="translate(150,0)" x2="0" y2="5" stroke="#888" stroke-width="1" opacity="1"/><line transform="translate(200,0)" x2="0" y2="5" stroke="#888" stroke-width="1" opacity="1"/></g><g class="mark-text role-axis-label" pointer-events="none"><text text-anchor="start" transform="translate(0,15)" font-family="sans-serif" font-size="10px" fill="#000" opacity="1">2016</text><text text-anchor="middle" transform="translate(50.03422313483915,15)" font-family="sans-serif" font-size="10px" fill="#000" opacity="1">2018</text><text text-anchor="middle" transform="translate(100,15)" font-family="sans-serif" font-size="10px" fill="#000" opacity="1">2020</text><text text-anchor="middle" transform="translate(150.03422313483915,15)" font-family="sans-serif" font-size="10px" fill="#000" opacity="1">2022</text><text text-anchor="end" transform="translate(200,15)" font-family="sans-serif" font-size="10px" fill="#000" opacity="1">2024</text></g><g class="mark-rule role-axis-domain" pointer-events="none"><line transform="translate(0,0)" x2="200" y2="0" stroke="#888" stroke-width="1" opacity="1"/></g></g><path class="foreground" aria-hidden="true" d="" pointer-events="none" display="none"/></g></g><g class="mark-group role-axis" role="graphics-symbol" aria-roledescription="axis" aria-label="Y-axis for a linear scale with values from 0 to 90"><g transform="translate(0.5,0.5)"><path class="background" aria-hidden="true" d="M0,0h0v0h0Z" pointer-events="none"/><g><g class="mark-rule role-axis-tick" pointer-events="none"><line transform="translate(0,150)" x2="-5" y2="0" stroke="#888" stroke-opacity="0" stroke-width="1" opacity="1"/><line transform="translate(0,117)" x2="-5" y2="0" stroke="#888" stroke-opacity="0" stroke-width="1" opacity="1"/><line transform="translate(0,83)" x2="-5" y2="0" stroke="#888" stroke-opacity="0" stroke-width="1" opacity="1"/><line transform="translate(0,50)" x2="-5" y2="0" stroke="#888" stroke-opacity="0" stroke-width="1" opacity="1"/><line transform="translate(0,17)" x2="-5" y2="0" stroke="#888" stroke-opacity="0" stroke-width="1" opacity="1"/></g><g class="mark-text role-axis-label" pointer-events="none"><text text-anchor="end" transform="translate(-7,153)" font-family="sans-serif" font-size="10px" fill="#000" opacity="1">0</text><text text-anchor="end" transform="translate(-7,119.66666666666667)" font-family="sans-serif" font-size="10px" fill="#000" opacity="1">20</text><text text-anchor="end" transform="translate(-7,86.33333333333334)" font-family="sans-serif" font-size="10px" fill="#000" opacity="1">40</text><text text-anchor="end" transform="translate(-7,53.00000000000001)" font-family="sans-serif" font-size="10px" fill="#000" opacity="1">60</text><text text-anchor="end" transform="translate(-7,19.666666666666675)" font-family="sans-serif" font-size="10px" fill="#000" opacity="1">80</text></g></g><path class="foreground" aria-hidden="true" d="" pointer-events="none" display="none"/></g></g><g class="mark-line role-mark marks" clip-path="url(#clip102)" role="graphics-object" aria-roledescription="line mark container"><path aria-label="day: Jan 01, 2010; avg: 14.3666666667" role="graphics-symbol" aria-roledescription="line mark" d="M-149.966,126.056L-149.897,126.111L-149.829,126.056L-149.76,125.389L-149.692,125.5L-149.624,125.389L-149.555,125L-149.487,124.333L-149.418,123.722L-149.35,124.111L-149.281,124.056L-149.213,124.111L-149.144,124.333L-149.076,124.444L-149.008,123.944L-148.939,124.778L-148.871,125.056L-148.802,125.167L-148.734,125.056L-148.665,125.389L-148.597,125.389L-148.528,124.278L-148.46,124.111L-148.392,125.222L-148.323,125.389L-148.255,125.222L-148.186,126L-148.118,126.556L-148.049,126.333L-147.981,125.944L-147.912,126.556L-147.844,126.278L-147.775,126.056L-147.707,126.611L-147.639,126.389L-147.57,126.111L-147.502,126.222L-147.433,126.722L-147.365,126.944L-147.296,126.778L-147.228,126.833L-147.159,126.722L-147.091,126.333L-147.023,126.667L-146.954,127.278L-146.886,126.833L-146.817,126.778L-146.749,126.889L-146.68,126.333L-146.612,125.111L-146.543,124.111L-146.475,125.111L-146.407,125.333L-146.338,125.111L-146.27,125.167L-146.201,124.944L-146.133,124.444L-146.064,124.111L-145.996,124.5L-145.927,125.167L-145.859,125.5L-145.791,125.5L-145.722,124.833L-145.654,124.167L-145.585,123.556L-145.517,122.833L-145.448,122.556L-145.38,122.389L-145.311,122.333L-145.243,121.833L-145.175,120.722L-145.106,120.056L-145.038,119.722L-144.972,119.5L-144.904,118.667L-144.835,118.667L-144.767,118.778L-144.698,117.833L-144.63,117.722L-144.561,118.389L-144.493,119.111L-144.424,118.389L-144.356,118.444L-144.288,117.889L-144.219,116.833L-144.151,116.556L-144.082,117.056L-144.014,116.667L-143.945,116.778L-143.877,116.5L-143.808,116L-143.74,115.111L-143.672,115.222L-143.603,115.444L-143.535,115.722L-143.466,115.944L-143.398,115.889L-143.329,115.722L-143.261,115.5L-143.192,116.056L-143.124,117.056L-143.056,117.389L-142.987,117.611L-142.919,117.5L-142.85,117.944L-142.782,117.833L-142.713,117.833L-142.645,118.333L-142.576,119.111L-142.508,119.444L-142.44,118.722L-142.371,118.833L-142.303,117.556L-142.234,117.556L-142.166,118.167L-142.097,118L-142.029,117.556L-141.96,117.556L-141.892,116.833L-141.824,116.222L-141.755,116.278L-141.687,116.278L-141.618,117.167L-141.55,117.278L-141.481,117.333L-141.413,117.667L-141.344,117.556L-141.276,117.222L-141.208,117.333L-141.139,116.778L-141.071,116.889L-141.002,117.111L-140.934,116.778L-140.865,115.778L-140.797,115.167L-140.728,115.389L-140.66,115.278L-140.591,115.222L-140.523,115.333L-140.455,114.5L-140.386,114.833L-140.318,115.444L-140.249,116.556L-140.181,116.833L-140.112,117.111L-140.044,117.389L-139.975,117.111L-139.907,117.333L-139.839,117.889L-139.77,118.889L-139.702,118.722L-139.633,119.833L-139.565,118.944L-139.496,118.611L-139.428,118.444L-139.359,119L-139.291,119.833L-139.223,120.778L-139.154,121.444L-139.086,122.444L-139.017,122.167L-138.949,121.944L-138.88,122.167L-138.812,122.944L-138.743,123.778L-138.675,123.833L-138.607,124.222L-138.538,125L-138.47,124.778L-138.401,125.222L-138.333,126L-138.264,125.889L-138.196,126L-138.127,126L-138.059,125.944L-137.991,125.833L-137.922,125.667L-137.854,125.833L-137.785,125.667L-137.717,124.944L-137.648,125.722L-137.58,125.944L-137.511,126.611L-137.443,126.944L-137.375,127.111L-137.306,126.5L-137.238,125.833L-137.169,125.833L-137.101,125.667L-137.032,124.667L-136.964,124.444L-136.895,124.333L-136.827,124.778L-136.758,124.611L-136.69,124.611L-136.622,124.389L-136.553,123.556L-136.485,122.944L-136.416,122.722L-136.348,122.833L-136.279,122.667L-136.211,122.333L-136.142,122L-136.074,122.222L-136.006,122.5L-135.937,122.833L-135.869,123L-135.8,122.611L-135.732,122.333L-135.663,122.444L-135.595,121.889L-135.526,121.222L-135.458,121.333L-135.39,121.5L-135.321,121.556L-135.253,122L-135.184,122.278L-135.116,121.778L-135.047,121.167L-134.979,121.444L-134.91,121.944L-134.842,122.278L-134.774,121.944L-134.705,121.611L-134.637,120.833L-134.568,120.611L-134.5,121.5L-134.431,121.222L-134.363,121.667L-134.294,122.056L-134.226,121.722L-134.158,121.556L-134.089,121.611L-134.021,121.333L-133.952,121L-133.884,120.889L-133.815,121.222L-133.747,120.833L-133.678,120.444L-133.61,120.278L-133.542,120.722L-133.473,121.556L-133.405,121.167L-133.336,120.833L-133.268,120.389L-133.199,119.5L-133.131,119.278L-133.062,119.5L-132.994,120.167L-132.926,120.389L-132.857,120.5L-132.789,120.278L-132.72,118.778L-132.652,118.889L-132.583,119.278L-132.515,119.722L-132.446,119.333L-132.378,120.111L-132.309,119.556L-132.241,118.667L-132.173,118.278L-132.104,118.667L-132.036,119.278L-131.967,119.167L-131.899,118.833L-131.83,118.889L-131.762,118.5L-131.693,118.611L-131.625,119.667L-131.557,119.667L-131.488,119.333L-131.42,119.111L-131.351,119L-131.283,118.833L-131.214,119.167L-131.146,120.167L-131.077,120.667L-131.009,120.889L-130.941,121.167L-130.872,121L-130.804,120L-130.735,120.056L-130.667,121.722L-130.598,122.167L-130.53,122.444L-130.461,122.667L-130.393,122.611L-130.325,121.944L-130.256,121.944L-130.188,122.556L-130.119,123.111L-130.051,123.222L-129.982,123L-129.914,123.611L-129.845,123.611L-129.777,123.611L-129.709,124.056L-129.64,124.611L-129.572,124.333L-129.503,125.056L-129.435,125.444L-129.366,125.611L-129.298,125.611L-129.229,126.111L-129.161,126.389L-129.093,126.611L-129.024,126.5L-128.956,126.167L-128.887,125.444L-128.819,125.611L-128.75,126.611L-128.679,126.944L-128.611,127.444L-128.542,127.333L-128.474,127.889L-128.405,127.389L-128.337,127.833L-128.268,128.5L-128.2,128.944L-128.131,129.167L-128.063,129.278L-127.995,129.556L-127.926,129.5L-127.858,129.389L-127.789,129.833L-127.721,129.778L-127.652,130.167L-127.584,130.444L-127.515,130.556L-127.447,130.389L-127.379,130.444L-127.31,130.944L-127.242,132L-127.173,132.111L-127.105,132.222L-127.036,132.222L-126.968,132.167L-126.899,132.333L-126.831,132.833L-126.762,132.667L-126.694,132.444L-126.626,132.5L-126.557,132L-126.489,131.5L-126.42,131L-126.352,131.333L-126.283,131.444L-126.215,131.667L-126.146,132L-126.078,131.944L-126.01,131.889L-125.941,131.778L-125.873,131.722L-125.804,131.944L-125.736,132.167L-125.667,132.444L-125.599,132.333L-125.53,131.944L-125.462,132.056L-125.394,132.389L-125.325,132.278L-125.257,131.667L-125.188,131.167L-125.12,130.667L-125.051,130.556L-124.983,130L-124.914,130.222L-124.846,130.389L-124.778,130.556L-124.709,131.167L-124.641,131.167L-124.572,130.5L-124.504,130.5L-124.435,131.5L-124.367,131.778L-124.298,132.056L-124.23,131.833L-124.162,131.389L-124.093,130.889L-124.025,130.944L-123.956,131.111L-123.888,130.944L-123.819,130.889L-123.751,130.5L-123.682,129.833L-123.614,129.278L-123.546,128.722L-123.477,128.389L-123.409,128L-123.34,127.833L-123.272,127.667L-123.203,127.611L-123.135,127.722L-123.066,127.667L-122.998,127.833L-122.93,127.833L-122.861,127.556L-122.793,127.222L-122.724,127.056L-122.656,125.944L-122.587,126.167L-122.519,126.778L-122.45,126.722L-122.382,126.556L-122.313,126.556L-122.245,125.944L-122.177,125.722L-122.108,125.778L-122.04,126L-121.971,125.556L-121.903,125.444L-121.834,125.167L-121.766,125.167L-121.697,124.833L-121.629,125.389L-121.561,125.833L-121.492,126.389L-121.424,126.667L-121.355,127.222L-121.287,127.556L-121.218,127.444L-121.15,127.611L-121.081,127.833L-121.013,128L-120.945,128L-120.876,128.167L-120.808,128.333L-120.739,128.556L-120.671,128.167L-120.602,128.722L-120.534,128.722L-120.465,128.278L-120.397,128.444L-120.329,128.222L-120.26,127.833L-120.192,127.889L-120.123,128.056L-120.058,128.222L-119.989,128.5L-119.921,128.611L-119.852,128.444L-119.784,128.944L-119.715,129.222L-119.647,130.056L-119.578,130L-119.51,129.722L-119.442,129.778L-119.373,130.111L-119.305,129.333L-119.236,128.778L-119.168,128.667L-119.099,127.944L-119.031,127.5L-118.962,127.444L-118.894,126.778L-118.826,126.611L-118.757,126.778L-118.689,126.667L-118.62,127L-118.552,127.056L-118.483,127L-118.415,126.611L-118.346,125.833L-118.278,125.833L-118.21,126.111L-118.141,126.389L-118.073,126.389L-118.004,125.5L-117.936,124.556L-117.867,124.556L-117.799,124.222L-117.73,124.222L-117.662,124.167L-117.594,123.389L-117.525,123.222L-117.457,122.722L-117.388,121.833L-117.32,121.278L-117.251,121.667L-117.183,121.278L-117.114,120.889L-117.046,121.222L-116.978,120.222L-116.909,120.278L-116.841,120.278L-116.772,120L-116.704,119.278L-116.635,119.389L-116.567,119.167L-116.498,118.944L-116.43,118.333L-116.362,118.889L-116.293,118.833L-116.225,118.889L-116.156,118.833L-116.088,118.833L-116.019,118.833L-115.951,119.278L-115.882,119.667L-115.814,119.556L-115.745,119.611L-115.677,118.944L-115.609,118.167L-115.54,118.111L-115.472,117.778L-115.403,118.278L-115.335,118.722L-115.266,118.667L-115.198,118.667L-115.129,119.056L-115.061,119.611L-114.993,119.389L-114.924,120.167L-114.856,120.056L-114.787,120.389L-114.719,120.333L-114.65,120.167L-114.582,119.556L-114.513,119.278L-114.445,119.5L-114.377,119.722L-114.308,119.722L-114.24,120.5L-114.171,120.5L-114.103,120.389L-114.034,120.278L-113.966,119.611L-113.897,120.278L-113.829,120.556L-113.761,120.611L-113.692,120.611L-113.624,120.556L-113.555,121.222L-113.487,121.611L-113.418,122.222L-113.35,122.667L-113.281,122.667L-113.213,123.222L-113.145,123.5L-113.076,124L-113.008,124.333L-112.939,125L-112.871,125.222L-112.802,125.5L-112.734,125.889L-112.665,126.389L-112.597,127.389L-112.529,127.611L-112.46,127.944L-112.392,128.389L-112.323,128.667L-112.255,128.722L-112.186,128.389L-112.118,127.722L-112.049,127.611L-111.981,127.444L-111.913,128.556L-111.844,128.222L-111.776,128.111L-111.707,128L-111.639,128.111L-111.57,129L-111.502,129.111L-111.433,128.833L-111.365,128.222L-111.296,127.667L-111.228,127.5L-111.16,127L-111.091,126.333L-111.023,126L-110.954,125.611L-110.886,124.889L-110.817,125.167L-110.749,125.611L-110.68,125.944L-110.612,126.556L-110.544,126.056L-110.475,126.5L-110.407,126.111L-110.338,125.667L-110.27,125L-110.201,124.611L-110.133,124.778L-110.064,125L-109.996,125.167L-109.928,125.444L-109.859,125.389L-109.791,125.056L-109.722,124.611L-109.654,124.611L-109.585,124.667L-109.517,124.5L-109.448,124.5L-109.38,124.778L-109.312,125.278L-109.243,125.056L-109.175,125.278L-109.106,125.444L-109.038,126L-108.969,125.556L-108.901,125.778L-108.832,125.833L-108.764,124.722L-108.696,123.944L-108.627,123.722L-108.559,123.111L-108.49,123.056L-108.422,122.944L-108.353,123L-108.285,122.5L-108.216,123.056L-108.148,123.056L-108.08,123.056L-108.011,123.556L-107.943,123.778L-107.874,123.611L-107.806,122.944L-107.737,122.333L-107.669,122.278L-107.6,122.556L-107.532,122.889L-107.463,122.722L-107.395,122.278L-107.327,121.222L-107.258,121.167L-107.19,121.833L-107.121,121.833L-107.053,122.111L-106.984,121.889L-106.916,122.056L-106.847,121.333L-106.779,121.389L-106.711,122.167L-106.642,122.722L-106.574,122.389L-106.505,122.5L-106.437,122.667L-106.368,123L-106.3,123.667L-106.231,124.5L-106.163,124.667L-106.095,124.944L-106.026,125.167L-105.958,125.167L-105.889,125.056L-105.821,125.167L-105.752,125.722L-105.684,126.833L-105.615,127.556L-105.547,127.278L-105.479,127.278L-105.41,127.222L-105.342,127.056L-105.273,128.556L-105.205,128.611L-105.136,128.556L-105.068,128.944L-104.999,128.889L-104.931,129.056L-104.863,129.389L-104.794,129.778L-104.726,130.389L-104.657,130.667L-104.589,130.056L-104.52,129.944L-104.452,130L-104.383,129.222L-104.315,129.278L-104.247,129.278L-104.178,128.944L-104.11,128.833L-104.041,128.778L-103.973,128.278L-103.904,128.056L-103.836,128L-103.765,127.833L-103.696,127.444L-103.628,127.5L-103.559,126.889L-103.491,126.722L-103.422,126.444L-103.354,126.556L-103.285,127.444L-103.217,127.278L-103.149,127.222L-103.08,126.333L-103.012,126.056L-102.943,126.278L-102.875,126.444L-102.806,126.5L-102.738,126.667L-102.669,126.278L-102.601,125.833L-102.533,126.056L-102.464,125.833L-102.396,125.611L-102.327,126.667L-102.259,126.389L-102.19,126L-102.122,126.111L-102.053,125.722L-101.985,125.889L-101.916,126.222L-101.848,126.389L-101.78,126.611L-101.711,126.5L-101.643,126.778L-101.574,126.167L-101.506,126.167L-101.437,126.889L-101.369,127.389L-101.3,127.389L-101.232,126.889L-101.164,126.611L-101.095,126.222L-101.027,127L-100.958,127.333L-100.89,127.222L-100.821,127.556L-100.753,127.778L-100.684,127.944L-100.616,127.611L-100.548,127.889L-100.479,128.389L-100.411,128.778L-100.342,128.833L-100.274,128.833L-100.205,128.5L-100.137,128.444L-100.068,128.167L-100,128.944L-99.932,129.111L-99.863,129.333L-99.795,129.444L-99.726,128.444L-99.658,128L-99.589,127.5L-99.521,128.111L-99.452,128.889L-99.384,128.556L-99.316,128.333L-99.247,128.556L-99.179,128.444L-99.11,128.333L-99.042,129.056L-98.973,129.222L-98.905,129.056L-98.836,129.111L-98.768,128.278L-98.7,127.389L-98.631,127L-98.563,127.333L-98.494,127.444L-98.426,127L-98.357,127.111L-98.289,127L-98.22,126.944L-98.152,127.111L-98.084,127.278L-98.015,127.389L-97.947,127.278L-97.878,127.222L-97.81,126.944L-97.741,126.5L-97.673,126.944L-97.604,127.667L-97.536,128.278L-97.467,128.278L-97.399,127.833L-97.331,128.222L-97.262,127.444L-97.194,126.5L-97.125,126.556L-97.057,126.111L-96.988,125.167L-96.92,125.278L-96.851,124.833L-96.783,123.944L-96.715,124.056L-96.646,124.278L-96.578,124.556L-96.509,124.333L-96.441,123.889L-96.372,123.389L-96.304,122.722L-96.235,122.611L-96.167,122.611L-96.099,122.556L-96.03,122.778L-95.962,122.611L-95.893,122.056L-95.825,121.389L-95.756,121.333L-95.688,121.889L-95.619,122.333L-95.551,122.333L-95.483,122.444L-95.414,122.444L-95.346,122.222L-95.277,121.944L-95.209,122.111L-95.143,122.5L-95.075,122.611L-95.006,123.333L-94.938,123.556L-94.869,122.944L-94.801,122.833L-94.732,122.833L-94.664,122.444L-94.596,122.444L-94.527,122.556L-94.459,122.611L-94.39,121.389L-94.322,121.667L-94.253,122.444L-94.185,122.556L-94.116,122.389L-94.048,122.333L-93.98,122.056L-93.911,122.056L-93.843,122.167L-93.774,122.944L-93.706,123L-93.637,122.778L-93.569,122.444L-93.5,122.222L-93.432,121L-93.364,119.611L-93.295,119.722L-93.227,119.722L-93.158,120.222L-93.09,119.944L-93.021,119.722L-92.953,118.778L-92.884,118.556L-92.816,118.556L-92.748,118.667L-92.679,118.778L-92.611,119.222L-92.542,118.833L-92.474,118.389L-92.405,118.056L-92.337,119.333L-92.268,119.556L-92.2,118.611L-92.132,118.556L-92.063,118.278L-91.995,117.667L-91.926,116.944L-91.858,115.722L-91.789,116.056L-91.721,116.167L-91.652,116.333L-91.584,115.944L-91.516,115.889L-91.447,115.333L-91.379,116.167L-91.31,117.056L-91.242,117.167L-91.173,116.833L-91.105,116.444L-91.036,116.167L-90.968,116.278L-90.899,116.722L-90.831,117.556L-90.763,117.889L-90.694,117.944L-90.626,118.111L-90.557,117.444L-90.489,117.444L-90.42,117.333L-90.352,117.722L-90.283,117.556L-90.215,117.833L-90.147,118.444L-90.078,117.944L-90.01,117.778L-89.941,118.444L-89.873,118.944L-89.804,120.833L-89.736,120.278L-89.667,120.167L-89.599,119.944L-89.531,120.389L-89.462,120.833L-89.394,121.778L-89.325,121.889L-89.257,122.333L-89.188,122.778L-89.12,122.556L-89.051,122.5L-88.983,123.278L-88.915,123.611L-88.846,123.611L-88.778,123.444L-88.709,123.611L-88.641,123.444L-88.572,123.611L-88.504,124.667L-88.435,125.5L-88.367,126.389L-88.299,126.778L-88.23,126.778L-88.162,126.278L-88.093,125.944L-88.025,126.889L-87.956,127.278L-87.888,127.222L-87.819,127.722L-87.751,127.556L-87.683,126.889L-87.614,125.667L-87.546,124.5L-87.477,124.222L-87.409,123.722L-87.34,123.444L-87.272,123.611L-87.203,123.333L-87.135,123L-87.067,123.611L-86.998,124.056L-86.93,124L-86.861,123.5L-86.793,123.944L-86.724,123.611L-86.656,122.556L-86.587,122.444L-86.519,122.444L-86.45,121.944L-86.382,122.111L-86.314,121.167L-86.245,119.833L-86.177,119.444L-86.108,119.222L-86.04,118.944L-85.971,118.333L-85.903,118.278L-85.834,118.167L-85.766,117.333L-85.698,116.278L-85.629,116.833L-85.561,117.611L-85.492,118.611L-85.424,117.722L-85.355,117.278L-85.287,116.333L-85.218,115.722L-85.15,115.556L-85.082,115.5L-85.013,115.556L-84.945,115.389L-84.876,115.111L-84.808,114.833L-84.739,114.111L-84.671,114.167L-84.602,114.611L-84.534,114.889L-84.466,115.111L-84.397,114.556L-84.329,113.278L-84.26,112.056L-84.192,112.611L-84.123,112.944L-84.055,113.167L-83.986,114L-83.918,112.722L-83.85,111.944L-83.781,110.778L-83.713,110.833L-83.644,111.5L-83.576,111.333L-83.507,110.889L-83.439,110.778L-83.37,110.167L-83.302,108.944L-83.234,109.389L-83.165,109.833L-83.097,109.722L-83.028,109.389L-82.96,108.722L-82.891,106.889L-82.823,106.111L-82.754,105.833L-82.686,106.278L-82.617,106.222L-82.549,106.667L-82.481,106.222L-82.412,105.722L-82.344,105.5L-82.275,106.333L-82.207,108L-82.138,108.278L-82.07,108.944L-82.001,108.833L-81.933,107.556L-81.865,108.389L-81.796,108.889L-81.728,109.778L-81.659,110.389L-81.591,109.833L-81.522,109.833L-81.454,109.444L-81.385,109.444L-81.317,111.556L-81.249,113.889L-81.18,114.889L-81.112,114.667L-81.043,115.556L-80.975,115.722L-80.906,116.333L-80.838,118.5L-80.769,119.722L-80.701,120.556L-80.633,121L-80.564,120.833L-80.496,120.944L-80.427,121.5L-80.359,122.333L-80.29,123.611L-80.222,123.778L-80.153,123.833L-80.085,124.333L-80.017,123.556L-79.948,123.222L-79.88,124.333L-79.811,125.222L-79.743,125.611L-79.674,126.167L-79.606,125.667L-79.537,126.167L-79.469,126.556L-79.401,127.556L-79.332,128.111L-79.264,127.556L-79.195,127.167L-79.127,126.722L-79.058,126.167L-78.99,124.556L-78.921,124.778L-78.85,124.222L-78.782,124.167L-78.713,123.778L-78.645,123.833L-78.576,122.833L-78.508,122.667L-78.439,122.722L-78.371,122.889L-78.303,122.389L-78.234,121.889L-78.166,121.889L-78.097,121.444L-78.029,120.389L-77.96,121.167L-77.892,121.778L-77.823,122.167L-77.755,122.222L-77.687,122.222L-77.618,121.556L-77.55,122L-77.481,122.111L-77.413,122.5L-77.344,122.667L-77.276,122.611L-77.207,122.556L-77.139,122.611L-77.07,122.5L-77.002,123.167L-76.934,124.611L-76.865,124.889L-76.797,125.389L-76.728,124.944L-76.66,124.667L-76.591,124.778L-76.523,125.5L-76.454,125.5L-76.386,125.333L-76.318,124.722L-76.249,124.556L-76.181,123.667L-76.112,122.778L-76.044,123L-75.975,123.722L-75.907,123.611L-75.838,123.667L-75.77,123.222L-75.702,122.667L-75.633,121.944L-75.565,122.444L-75.496,122.389L-75.428,122.722L-75.359,122.444L-75.291,122.056L-75.222,121.444L-75.154,120.889L-75.086,120.5L-75.017,120.611L-74.949,120.5L-74.88,120.5L-74.812,120.222L-74.743,119.667L-74.675,119.278L-74.606,119.611L-74.538,119.611L-74.47,119.056L-74.401,119.667L-74.333,119.889L-74.264,120.167L-74.196,120.278L-74.127,121.389L-74.059,122.278L-73.99,122.389L-73.922,122.778L-73.854,122.667L-73.785,122.056L-73.717,121.278L-73.648,121.556L-73.58,122.222L-73.511,122.444L-73.443,122.333L-73.374,121.778L-73.306,121.389L-73.238,120.833L-73.169,121.389L-73.101,122.222L-73.032,122.611L-72.964,122.556L-72.895,122.556L-72.827,122.056L-72.758,121.778L-72.69,122.444L-72.621,122.667L-72.553,122.667L-72.485,122.667L-72.416,123L-72.348,122.5L-72.279,121.444L-72.211,121.833L-72.142,122.5L-72.074,122.167L-72.005,122.111L-71.937,121.833L-71.869,121.222L-71.8,120.5L-71.732,121.056L-71.663,122.111L-71.595,122.167L-71.526,121.889L-71.458,121.611L-71.389,120.5L-71.321,120.056L-71.253,120.5L-71.184,121.111L-71.116,120.556L-71.047,119.833L-70.979,119L-70.91,118.556L-70.842,117.944L-70.773,118.556L-70.705,118.833L-70.637,118.556L-70.568,118.889L-70.5,118.833L-70.431,118L-70.363,117.611L-70.294,117.556L-70.229,118.111L-70.16,117.5L-70.092,117L-70.023,117L-69.955,116.167L-69.886,115.833L-69.818,116.333L-69.75,116.444L-69.681,115.611L-69.613,114.722L-69.544,114.5L-69.476,113.778L-69.407,113.333L-69.339,114.167L-69.27,114.5L-69.202,114.167L-69.134,114.111L-69.065,113.667L-68.997,113.389L-68.928,112.5L-68.86,112.5L-68.791,112.333L-68.723,111.5L-68.654,111.111L-68.586,110.667L-68.518,110.222L-68.449,109.778L-68.381,109.944L-68.312,110.056L-68.244,110.056L-68.175,109.722L-68.107,109.889L-68.038,108.222L-67.97,107.167L-67.902,107.889L-67.833,107.778L-67.765,106.944L-67.696,106.444L-67.628,105.5L-67.559,103.778L-67.491,103.056L-67.422,102.722L-67.354,103.056L-67.286,102.333L-67.217,102L-67.149,102.222L-67.08,101.944L-67.012,101.389L-66.943,100.5L-66.875,101.556L-66.806,101.111L-66.738,100.5L-66.67,100.611L-66.601,99.889L-66.533,98.778L-66.464,98.889L-66.396,99.167L-66.327,98.778L-66.259,98.667L-66.19,99.444L-66.122,98.833L-66.054,98.167L-65.985,99.556L-65.917,100.111L-65.848,98.722L-65.78,98.889L-65.711,99.056L-65.643,98.556L-65.574,99.056L-65.506,101.056L-65.437,101.444L-65.369,101.778L-65.301,101.222L-65.232,101.556L-65.164,100.444L-65.095,98.667L-65.027,99L-64.958,100.389L-64.89,101.778L-64.821,102.111L-64.753,102.889L-64.685,102.722L-64.616,102.333L-64.548,103L-64.479,104.111L-64.411,104.556L-64.342,104.556L-64.274,105.389L-64.205,105.5L-64.137,104.889L-64.069,105.944L-64,106.5L-63.932,106.389L-63.863,106.333L-63.795,107.611L-63.726,107.833L-63.658,107.5L-63.589,108.889L-63.521,109.778L-63.453,110.222L-63.384,110.722L-63.316,111.444L-63.247,112.167L-63.179,112.667L-63.11,114L-63.042,116L-62.973,115.167L-62.905,114.944L-62.837,114.833L-62.768,113.833L-62.7,112.722L-62.631,114.667L-62.563,115.056L-62.494,114.833L-62.426,115.167L-62.357,114.667L-62.289,113.667L-62.221,111.389L-62.152,111.167L-62.084,111.111L-62.015,110.278L-61.947,110.389L-61.878,110.889L-61.81,110.444L-61.741,109.389L-61.673,108.889L-61.604,109.222L-61.536,108.611L-61.468,108.167L-61.399,106.944L-61.331,104.944L-61.262,103.667L-61.194,103.389L-61.125,102.889L-61.057,103.111L-60.988,102.5L-60.92,102.667L-60.852,101.611L-60.783,100.722L-60.715,101.833L-60.646,102.611L-60.578,102.111L-60.509,101.833L-60.441,101.889L-60.372,101.333L-60.304,100.833L-60.236,101.722L-60.167,104.333L-60.099,103.889L-60.03,103.222L-59.962,102.889L-59.893,101.111L-59.825,99.167L-59.756,99.556L-59.688,100.611L-59.62,101.167L-59.551,101.333L-59.483,101.278L-59.414,100.667L-59.346,100.167L-59.277,101.611L-59.209,103L-59.14,102.556L-59.072,103.167L-59.004,102.667L-58.935,100.5L-58.867,100.5L-58.798,101.889L-58.73,102.722L-58.661,101.556L-58.593,101.167L-58.524,99.833L-58.456,98.333L-58.388,96.611L-58.319,97.056L-58.251,97.667L-58.182,97.444L-58.114,96L-58.045,96.333L-57.977,96.167L-57.908,95.722L-57.84,97.611L-57.772,99.111L-57.703,99.5L-57.635,99.667L-57.566,99.056L-57.498,98.167L-57.429,97.833L-57.361,98.778L-57.292,100L-57.224,100.333L-57.155,100.333L-57.087,99.833L-57.019,98.278L-56.95,97.556L-56.882,100.444L-56.813,101.389L-56.745,100.889L-56.676,101.5L-56.608,102L-56.539,101.444L-56.471,102.056L-56.403,103.611L-56.334,105.611L-56.266,105.722L-56.197,106L-56.129,106.389L-56.06,105.722L-55.992,105.444L-55.923,106.611L-55.855,108.111L-55.787,107.889L-55.718,107.833L-55.65,107.889L-55.581,106.833L-55.513,106.722L-55.444,108L-55.376,109.167L-55.307,109.333L-55.239,109.5L-55.171,109.222L-55.102,108.111L-55.034,108.222L-54.965,109.778L-54.897,111.056L-54.828,111.111L-54.76,110.889L-54.691,110.833L-54.623,109.833L-54.555,110.167L-54.486,111.833L-54.418,112.889L-54.349,113.667L-54.281,114.167L-54.212,113.889L-54.144,113.667L-54.075,113.333L-54.007,114.833L-53.936,115.278L-53.867,115.056L-53.799,114.833L-53.73,115.278L-53.662,115L-53.593,114.722L-53.525,115.722L-53.457,116.611L-53.388,116.5L-53.32,116.556L-53.251,116.778L-53.183,116.222L-53.114,117.278L-53.046,118.611L-52.977,119.667L-52.909,119.778L-52.841,120.333L-52.772,119.944L-52.704,119.111L-52.635,118.444L-52.567,119.222L-52.498,119.611L-52.43,119.222L-52.361,119.333L-52.293,118.833L-52.225,118.5L-52.156,118.778L-52.088,118.722L-52.019,119.556L-51.951,119.333L-51.882,120.167L-51.814,120.444L-51.745,120.556L-51.677,120.222L-51.608,121.111L-51.54,121.944L-51.472,121.722L-51.403,122.167L-51.335,122L-51.266,121.333L-51.198,120.389L-51.129,120.778L-51.061,120.167L-50.992,119.944L-50.924,118.944L-50.856,118.611L-50.787,117.333L-50.719,116.444L-50.65,117.056L-50.582,118.333L-50.513,118.722L-50.445,118.778L-50.376,118.611L-50.308,117.5L-50.24,117.667L-50.171,117.722L-50.103,117.833L-50.034,117.889L-49.966,117.556L-49.897,117.722L-49.829,116.556L-49.76,115.556L-49.692,115.333L-49.624,115.5L-49.555,115.333L-49.487,115.389L-49.418,115.167L-49.35,114.389L-49.281,114.556L-49.213,115.111L-49.144,116L-49.076,115.611L-49.008,115.444L-48.939,115.5L-48.871,115.889L-48.802,115.833L-48.734,116L-48.665,116.444L-48.597,116.222L-48.528,115.722L-48.46,114.944L-48.392,114.111L-48.323,113.333L-48.255,113.944L-48.186,114.167L-48.118,113.889L-48.049,113.722L-47.981,113.667L-47.912,113.111L-47.844,112.333L-47.775,113.333L-47.707,114.111L-47.639,114.389L-47.57,114.278L-47.502,113.778L-47.433,112.389L-47.365,111.556L-47.296,111.944L-47.228,111.389L-47.159,111.111L-47.091,110.889L-47.023,111L-46.954,110.333L-46.886,109.889L-46.817,110.5L-46.749,111L-46.68,111.333L-46.612,111.556L-46.543,111.222L-46.475,110.222L-46.407,109.667L-46.338,110.167L-46.27,111.111L-46.201,111.278L-46.133,110.389L-46.064,110.333L-45.996,110.056L-45.927,110.5L-45.859,110.667L-45.791,111.444L-45.722,111.278L-45.654,111L-45.585,110.944L-45.517,110.333L-45.448,109.444L-45.38,110.444L-45.314,111.556L-45.246,111L-45.177,111.778L-45.109,110.889L-45.04,109.444L-44.972,107.444L-44.904,107.556L-44.835,107.611L-44.767,107.111L-44.698,106.444L-44.63,105.833L-44.561,104.389L-44.493,103.333L-44.424,104L-44.356,104.833L-44.288,104.111L-44.219,103.833L-44.151,102.944L-44.082,101.889L-44.014,101.111L-43.945,100.889L-43.877,100.667L-43.808,101.5L-43.74,101.444L-43.672,100.056L-43.603,98.111L-43.535,95.833L-43.466,95.278L-43.398,95L-43.329,94.556L-43.261,93.278L-43.192,93.056L-43.124,90.944L-43.056,89L-42.987,89.333L-42.919,91.056L-42.85,91L-42.782,90.889L-42.713,90.056L-42.645,88.778L-42.576,87.167L-42.508,87.611L-42.44,89.056L-42.371,88.444L-42.303,88L-42.234,88.222L-42.166,86.833L-42.097,85.333L-42.029,84.056L-41.96,83.167L-41.892,83.389L-41.824,82.667L-41.755,81.889L-41.687,79.778L-41.618,78.278L-41.55,78.944L-41.481,80.667L-41.413,80.667L-41.344,80.556L-41.276,79.056L-41.208,77.111L-41.139,74L-41.071,74L-41.002,75.722L-40.934,75.833L-40.865,75.667L-40.797,75.778L-40.728,73.556L-40.66,70.944L-40.591,70.333L-40.523,71.667L-40.455,71.778L-40.386,70.778L-40.318,70.556L-40.249,67.5L-40.181,64.944L-40.112,64.722L-40.044,65.222L-39.975,67.389L-39.907,68.667L-39.839,66.778L-39.77,63.722L-39.702,61.556L-39.633,61.833L-39.565,62.722L-39.496,64L-39.428,64.056L-39.359,64.056L-39.291,63.722L-39.223,64.278L-39.154,67.222L-39.086,71L-39.017,72.056L-38.949,72.5L-38.88,72.5L-38.812,70.833L-38.743,69.722L-38.675,71.889L-38.607,76.056L-38.538,77.722L-38.47,77.667L-38.401,76.611L-38.333,75.278L-38.264,73.722L-38.196,76.278L-38.127,78.5L-38.059,79.667L-37.991,80.389L-37.922,79.222L-37.854,77.833L-37.785,77.444L-37.717,80.667L-37.648,81.667L-37.58,81.944L-37.511,81.889L-37.443,80.167L-37.375,78.556L-37.306,77.944L-37.238,79.5L-37.169,79.611L-37.101,78.722L-37.032,76.889L-36.964,75.611L-36.895,73.944L-36.827,73.389L-36.758,74.889L-36.69,76.056L-36.622,76.167L-36.553,74.389L-36.485,73.444L-36.416,70.944L-36.348,70.778L-36.279,72.444L-36.211,74.5L-36.142,73.833L-36.074,73.556L-36.006,73.722L-35.937,71.5L-35.869,70.722L-35.8,71.278L-35.732,73L-35.663,72.278L-35.595,72.667L-35.526,73.389L-35.458,73.5L-35.39,74.111L-35.321,76.167L-35.253,77.444L-35.184,77.111L-35.116,77.5L-35.047,77.5L-34.979,77.833L-34.91,77.667L-34.842,79.278L-34.774,80.333L-34.705,81L-34.637,80.278L-34.568,79.056L-34.5,77.611L-34.431,76.889L-34.363,79.833L-34.294,81.111L-34.226,80.5L-34.158,79.944L-34.089,79.5L-34.021,76.889L-33.952,74L-33.884,76.833L-33.815,79.056L-33.747,78.944L-33.678,78.611L-33.61,77.889L-33.542,75.278L-33.473,73.389L-33.405,73.889L-33.336,75.222L-33.268,74.222L-33.199,73.333L-33.131,71.611L-33.062,69.222L-32.994,68.444L-32.926,69.167L-32.857,70.222L-32.789,70.333L-32.72,70L-32.652,68.611L-32.583,67.5L-32.515,67.056L-32.446,68.611L-32.378,69.889L-32.309,69.611L-32.241,69.333L-32.173,69.944L-32.104,68.611L-32.036,68.778L-31.967,72.167L-31.899,74.5L-31.83,74.944L-31.762,74.778L-31.693,75.556L-31.625,74.111L-31.557,73.944L-31.488,77L-31.42,79.167L-31.351,79.5L-31.283,78.833L-31.214,78.944L-31.146,79.333L-31.077,80.778L-31.009,83.444L-30.941,84.833L-30.872,84.556L-30.804,85.278L-30.735,85.778L-30.667,86.167L-30.598,86.611L-30.53,88.389L-30.461,89.944L-30.393,90.722L-30.325,91.556L-30.256,91.778L-30.188,91.389L-30.119,91.667L-30.051,94.111L-29.982,95.778L-29.914,95.889L-29.845,96.611L-29.777,96.111L-29.709,96L-29.64,95.722L-29.572,98.333L-29.503,98.944L-29.435,99.444L-29.366,99.944L-29.298,100.778L-29.229,101.167L-29.161,101.222L-29.093,102L-29.021,102.667L-28.953,103.111L-28.884,103.778L-28.816,104.833L-28.747,103.889L-28.679,103.333L-28.611,103.556L-28.542,104.667L-28.474,104.611L-28.405,104.667L-28.337,105.111L-28.268,104.222L-28.2,104L-28.131,105.333L-28.063,106.167L-27.995,105.889L-27.926,105.889L-27.858,105.056L-27.789,104L-27.721,103.5L-27.652,103.778L-27.584,104.389L-27.515,104.278L-27.447,105.556L-27.379,105.5L-27.31,105.111L-27.242,103.722L-27.173,102.5L-27.105,102.889L-27.036,103.111L-26.968,102.667L-26.899,102.722L-26.831,101.833L-26.762,100.444L-26.694,100.833L-26.626,101.611L-26.557,101.444L-26.489,101.556L-26.42,101.722L-26.352,101.222L-26.283,100.278L-26.215,101.111L-26.146,101.889L-26.078,101.722L-26.01,101.833L-25.941,102.333L-25.873,102.167L-25.804,102.778L-25.736,103.667L-25.667,104.389L-25.599,104.5L-25.53,104.778L-25.462,104.444L-25.394,103.667L-25.325,102.944L-25.257,103.5L-25.188,104.556L-25.12,105.333L-25.051,105.111L-24.983,104.778L-24.914,104.778L-24.846,103.5L-24.778,103.944L-24.709,105.333L-24.641,106.111L-24.572,106.111L-24.504,106.389L-24.435,105.444L-24.367,104.889L-24.298,105.556L-24.23,106.278L-24.162,106.222L-24.093,105.889L-24.025,106.222L-23.956,105.056L-23.888,104.611L-23.819,104.833L-23.751,105.056L-23.682,105.333L-23.614,105.333L-23.546,105.611L-23.477,105.444L-23.409,104.722L-23.34,105.889L-23.272,106.111L-23.203,105.667L-23.135,106L-23.066,106.667L-22.998,106.722L-22.93,106.278L-22.861,107.056L-22.793,108.611L-22.724,109L-22.656,108.833L-22.587,109L-22.519,108.167L-22.45,107.667L-22.382,108.056L-22.313,108.722L-22.245,108.333L-22.177,107.778L-22.108,107.389L-22.04,106.333L-21.971,106.056L-21.903,106.389L-21.834,106.833L-21.766,106.556L-21.697,106.333L-21.629,106.167L-21.561,105.833L-21.492,105.167L-21.424,104.944L-21.355,105.833L-21.287,104.889L-21.218,105.111L-21.15,104.667L-21.081,103.444L-21.013,102.778L-20.945,103.278L-20.876,104.222L-20.808,103.556L-20.739,102.722L-20.671,102.389L-20.602,101.278L-20.534,99.722L-20.465,99.5L-20.4,99.278L-20.331,99.722L-20.263,99.056L-20.195,97.444L-20.126,95.722L-20.058,94.944L-19.989,95.722L-19.921,95.722L-19.852,95.167L-19.784,94.278L-19.715,92.944L-19.647,91.111L-19.578,89.444L-19.51,88.833L-19.442,87.833L-19.373,87.389L-19.305,87.056L-19.236,86.611L-19.168,85.222L-19.099,84L-19.031,84.667L-18.962,84.222L-18.894,83.778L-18.826,82.278L-18.757,82.222L-18.689,80.056L-18.62,76.222L-18.552,76.111L-18.483,76L-18.415,75.722L-18.346,75.167L-18.278,73.278L-18.21,71.444L-18.141,70.556L-18.073,70.722L-18.004,69.944L-17.936,69L-17.867,67.889L-17.799,66.722L-17.73,65.389L-17.662,65.222L-17.594,65.833L-17.525,66.667L-17.457,66.611L-17.388,67.333L-17.32,66.611L-17.251,63.833L-17.183,62.944L-17.114,62.444L-17.046,63.111L-16.978,62.056L-16.909,62.333L-16.841,61L-16.772,59.722L-16.704,58.111L-16.635,60.778L-16.567,64.389L-16.498,64.5L-16.43,65.5L-16.362,65.389L-16.293,63.722L-16.225,62.611L-16.156,64.667L-16.088,66.444L-16.019,67.556L-15.951,68.722L-15.882,69.389L-15.814,69L-15.745,69.389L-15.677,70.778L-15.609,72.444L-15.54,72.833L-15.472,72.556L-15.403,72.889L-15.335,72.278L-15.266,72.278L-15.198,74.833L-15.129,76.056L-15.061,77.278L-14.993,77.667L-14.924,77.611L-14.856,76.833L-14.787,77.722L-14.719,79.167L-14.65,79.556L-14.582,77.833L-14.513,77.833L-14.445,77.056L-14.377,75.611L-14.308,75.389L-14.24,78L-14.171,80.5L-14.103,81.222L-14.034,82.222L-13.966,82.056L-13.897,80.111L-13.829,78.944L-13.761,80.833L-13.692,82.167L-13.624,82.444L-13.555,81.667L-13.487,81.333L-13.418,81.167L-13.35,81.278L-13.281,82.667L-13.213,83.667L-13.145,83.778L-13.076,83.333L-13.008,83.278L-12.939,82.389L-12.871,82.167L-12.802,83L-12.734,84L-12.665,84.222L-12.597,86.444L-12.529,87.722L-12.46,86.889L-12.392,87.389L-12.323,89.333L-12.255,90.778L-12.186,91.389L-12.118,91.444L-12.049,90.5L-11.981,88.278L-11.913,86.722L-11.844,88.333L-11.776,90.389L-11.707,89.111L-11.639,88.389L-11.57,87.944L-11.502,87.333L-11.433,88.111L-11.365,89.444L-11.296,89.222L-11.228,88.556L-11.16,88.222L-11.091,87.5L-11.023,87L-10.954,85.833L-10.886,87.611L-10.817,88.722L-10.749,89.333L-10.68,88.889L-10.612,88.444L-10.544,85.778L-10.475,83.889L-10.407,85L-10.338,85.444L-10.27,84.778L-10.201,84.889L-10.133,83.056L-10.064,81.944L-9.996,78.833L-9.928,79.444L-9.859,81.278L-9.791,81.333L-9.722,81.611L-9.654,81.5L-9.585,79.556L-9.517,78L-9.448,78.444L-9.38,78.167L-9.312,76.944L-9.243,76.611L-9.175,76.278L-9.106,73.667L-9.038,73.167L-8.969,73.278L-8.901,74.556L-8.832,73.333L-8.764,71.889L-8.696,70.056L-8.627,66.278L-8.559,64.556L-8.49,65.278L-8.422,66.444L-8.353,65.944L-8.285,66.278L-8.216,66.667L-8.148,65.278L-8.08,65.667L-8.011,66.667L-7.943,69.778L-7.874,70.5L-7.806,70.444L-7.737,70.056L-7.669,68.167L-7.6,66.444L-7.532,68L-7.463,69.5L-7.395,69.667L-7.327,69.833L-7.258,70.278L-7.19,70.056L-7.121,70.167L-7.053,73.444L-6.984,75.056L-6.916,76.111L-6.847,76L-6.779,76.444L-6.711,77.389L-6.642,76.944L-6.574,79.833L-6.505,82L-6.437,83.333L-6.368,83.167L-6.3,83.111L-6.231,82.111L-6.163,79.833L-6.095,80.444L-6.026,81.056L-5.958,81.222L-5.889,80.833L-5.821,81L-5.752,80.111L-5.684,80.278L-5.615,81.722L-5.547,84.167L-5.479,85.333L-5.41,85.333L-5.342,85.722L-5.273,84.556L-5.205,83.722L-5.136,84.278L-5.068,85.167L-4.999,84.056L-4.931,83.444L-4.863,83.111L-4.794,82.167L-4.726,80.889L-4.657,82L-4.589,84.278L-4.52,85.167L-4.452,85.278L-4.383,84.778L-4.315,85.333L-4.247,84.833L-4.178,85.944L-4.107,88.5L-4.038,89.444L-3.97,89.833L-3.901,88.889L-3.833,88.667L-3.765,88.056L-3.696,89.722L-3.628,90.667L-3.559,90.444L-3.491,90.056L-3.422,89.667L-3.354,87.556L-3.285,85.556L-3.217,86.611L-3.149,88.167L-3.08,88.222L-3.012,88.111L-2.943,88.944L-2.875,88.667L-2.806,88.278L-2.738,89.778L-2.669,91.278L-2.601,91.056L-2.533,89.833L-2.464,88.278L-2.396,87.889L-2.327,87.5L-2.259,87.722L-2.19,88.389L-2.122,88.444L-2.053,87.722L-1.985,86.556L-1.916,86.333L-1.848,87.5L-1.78,89.222L-1.711,90.833L-1.643,90.944L-1.574,90.889L-1.506,90.778L-1.437,90.444L-1.369,90.111L-1.3,92.889L-1.232,95.5L-1.164,96.333L-1.095,96.389L-1.027,96.667L-0.958,96.611L-0.89,94.611L-0.821,94.944L-0.753,95.778L-0.684,96.111L-0.616,96.444L-0.548,95.944L-0.479,96.722L-0.411,99L-0.342,99.778L-0.274,100.333L-0.205,100L-0.137,100.278L-0.068,100.111L0,99.5L0.068,99.833L0.137,99.833L0.205,99.722L0.274,99L0.342,99.167L0.411,99L0.479,98.556L0.548,98L0.616,98.556L0.684,99.389L0.753,99.556L0.821,99.667L0.89,99.389L0.958,99L1.027,99.333L1.095,99.056L1.164,101.222L1.232,101.556L1.3,101.389L1.369,101.167L1.437,100.889L1.506,100.611L1.574,100.722L1.643,100.611L1.711,100.889L1.78,101.167L1.848,101.722L1.916,101.556L1.985,101.333L2.053,102.278L2.122,102.389L2.19,102.222L2.259,102.556L2.327,102.556L2.396,101L2.464,100.222L2.533,101.167L2.601,101.5L2.669,101.278L2.738,100L2.806,98.444L2.875,96.167L2.943,94.444L3.012,94.889L3.08,94.444L3.149,93.778L3.217,93.556L3.285,93.167L3.354,91.944L3.422,90.833L3.491,91.222L3.559,92.444L3.628,91.611L3.696,90.778L3.765,89.278L3.833,87.389L3.901,86.333L3.97,86.111L4.038,86.5L4.107,86.056L4.175,85.444L4.244,84.056L4.312,80.111L4.381,79.111L4.449,80.222L4.517,80.667L4.586,79.722L4.654,79.389L4.723,79.611L4.791,78.944L4.86,78.778L4.928,80.222L4.994,81.444L5.062,80.556L5.131,80.278L5.199,80.056L5.268,79.111L5.336,73L5.404,73.111L5.473,73.5L5.541,73.111L5.61,72.222L5.678,71.333L5.747,69.556L5.815,67.667L5.884,67.944L5.952,68L6.02,67.722L6.089,65.167L6.157,62.222L6.226,57.444L6.294,57.889L6.363,60.944L6.431,39.889L6.5,38.889L6.568,38.889L6.636,39.111L6.705,36.833L6.773,36L6.842,36.944L6.91,37L6.979,33.333L7.047,31.944L7.116,32.056L7.184,30.278L7.252,27.056L7.321,28.056L7.389,32.944L7.458,34L7.526,32.5L7.595,30.833L7.663,28.167L7.732,26.444L7.8,27L7.868,28.722L7.937,28.056L8.005,27.667L8.074,26.667L8.142,27.389L8.211,28.889L8.279,34.056L8.348,34.444L8.416,34.111L8.484,56.056L8.553,55.056L8.621,52.778L8.69,52L8.758,54.444L8.827,55.333L8.895,55.5L8.964,56.056L9.032,58.222L9.101,56.389L9.169,54.667L9.237,53.778L9.306,39.667L9.374,38.389L9.443,38.444L9.511,36.778L9.58,36.278L9.648,36.167L9.717,38.444L9.785,41.389L9.853,42.333L9.922,43.056L9.99,43.611L10.059,40.556L10.127,39.333L10.196,40.778L10.264,42.889L10.333,42.444L10.401,43.056L10.469,43.611L10.538,42.222L10.606,42.222L10.675,43.389L10.743,44.111L10.812,43.556L10.88,42.5L10.949,42.889L11.017,42.722L11.085,42L11.154,44.778L11.222,46.111L11.291,48.667L11.359,67.389L11.428,67.444L11.496,68.722L11.565,69.778L11.633,73.278L11.701,74.778L11.77,74.778L11.838,74.556L11.907,74.889L11.975,74.889L12.044,76.111L12.112,81.222L12.181,84.389L12.249,84.778L12.317,84.889L12.386,85.5L12.454,85.278L12.523,84.889L12.591,86.444L12.66,88.278L12.728,88.111L12.797,88.444L12.865,89.167L12.933,89.556L13.002,88.889L13.07,88.889L13.139,91.278L13.207,92.556L13.276,93.556L13.344,94.111L13.413,93.167L13.481,94.889L13.55,95.278L13.618,96.722L13.686,95.611L13.755,96.278L13.823,96.944L13.892,97.111L13.96,96.5L14.029,96.389L14.097,95.722L14.166,94.278L14.234,93.944L14.302,93.944L14.371,92.667L14.439,92.611L14.508,92.444L14.576,92.278L14.645,92.278L14.713,92.389L14.782,93.222L14.85,91.667L14.918,90.111L14.987,89.222L15.055,88.833L15.124,88.444L15.192,88.667L15.261,88.444L15.329,87.611L15.398,86.889L15.466,87.056L15.534,86L15.603,85.889L15.671,84L15.74,83.278L15.808,79.889L15.877,78.167L15.945,79.167L16.014,79.5L16.082,80L16.15,80.444L16.219,80L16.287,77.556L16.356,75.833L16.424,76.389L16.493,75.667L16.561,76L16.63,77L16.698,76.833L16.766,74.444L16.835,73.5L16.903,74.222L16.972,75.111L17.04,76.389L17.109,76.722L17.177,76.778L17.246,73.389L17.314,71.611L17.383,70.944L17.451,71.056L17.519,69.833L17.588,69.667L17.656,69.222L17.725,68.556L17.793,66.889L17.862,68.944L17.93,70L17.999,69L18.067,68.944L18.135,68.167L18.204,68.278L18.272,68.333L18.341,70.278L18.409,72L18.478,72.944L18.546,74.389L18.615,73.944L18.683,71.611L18.751,68.778L18.82,71L18.888,72.333L18.957,72.611L19.025,72.889L19.094,72.611L19.162,70.889L19.231,71.667L19.299,73.111L19.367,74.222L19.436,75.389L19.504,75.722L19.573,75.889L19.641,75.444L19.71,74.833L19.778,75.389L19.847,77.667L19.915,78.333L19.983,79.333L20.052,79.389L20.12,77.944L20.189,78.889L20.257,79.167L20.326,80.278L20.394,80.333L20.463,79.722L20.531,77.778L20.599,75.833L20.668,74.889L20.736,76.778L20.805,79.389L20.873,79.444L20.942,79.444L21.01,78.889L21.079,77.722L21.147,77.722L21.215,81L21.287,81.667L21.355,83.944L21.424,84.278L21.492,83.111L21.561,82.389L21.629,83L21.697,84.056L21.766,85.333L21.834,87.056L21.903,87.889L21.971,88.333L22.04,87.389L22.108,87.278L22.177,89.611L22.245,89.944L22.313,90.056L22.382,90L22.45,90.167L22.519,90.778L22.587,91.889L22.656,92.778L22.724,94.944L22.793,95.389L22.861,95.722L22.93,95.167L22.998,95.222L23.066,96.333L23.135,98.333L23.203,99.5L23.272,98.611L23.34,98.722L23.409,97.389L23.477,96.5L23.546,97.389L23.614,99.056L23.682,100.333L23.751,100.667L23.819,100.111L23.888,100.167L23.956,98.778L24.025,97.667L24.093,98.333L24.162,99.167L24.23,98.833L24.298,98.444L24.367,97.778L24.435,96.722L24.504,95.278L24.572,95.722L24.641,96.278L24.709,97.278L24.778,96.667L24.846,96.167L24.914,94.722L24.983,93.556L25.051,93.167L25.12,93.611L25.188,92.944L25.257,92.778L25.325,92.389L25.394,91.833L25.462,91.778L25.53,93L25.599,93.722L25.667,93.333L25.736,93.056L25.804,92.944L25.873,92.889L25.941,91.778L26.01,93.556L26.078,94.889L26.146,94.833L26.215,94.222L26.283,94.5L26.352,92.944L26.42,91.778L26.489,91.333L26.557,93.056L26.626,92.611L26.694,92.056L26.762,89.889L26.831,88.444L26.899,87.556L26.968,89.111L27.036,90.167L27.105,91L27.173,90.167L27.242,90.5L27.31,89.778L27.379,90.611L27.447,90.889L27.515,91.667L27.584,91.222L27.652,91.278L27.721,91.556L27.789,91L27.858,89.778L27.926,90.389L27.995,90.444L28.063,89.444L28.131,89.167L28.2,88.778L28.268,87.944L28.337,86.278L28.405,87.833L28.474,88.389L28.542,89.5L28.611,89.333L28.679,88.944L28.747,87.889L28.816,88.333L28.884,89.333L28.953,89.944L29.021,88.889L29.09,89.056L29.158,89.111L29.227,88.167L29.295,85.778L29.363,86L29.432,85.778L29.5,84.556L29.569,84.556L29.637,84.944L29.706,84.111L29.774,82.611L29.843,82L29.908,81.056L29.977,79.222L30.045,78.833L30.114,77L30.182,75.056L30.25,72.556L30.319,71.833L30.387,73L30.456,72.833L30.524,72.167L30.593,70.778L30.661,68.667L30.73,67.389L30.798,68.056L30.866,69.944L30.935,70.611L31.003,70.222L31.072,69.556L31.14,67.389L31.209,63.389L31.277,64.056L31.346,66.167L31.414,65.556L31.482,64.5L31.551,64.944L31.619,62.722L31.688,60.111L31.756,59.944L31.825,60.111L31.893,60.167L31.962,62L32.03,63.111L32.098,63L32.167,64.444L32.235,66.5L32.304,68.056L32.372,68.778L32.441,67.611L32.509,67.167L32.578,67.944L32.646,67.778L32.714,69.889L32.783,70.667L32.851,69.889L32.92,69L32.988,66.944L33.057,65.167L33.125,64.667L33.194,65.5L33.262,68.833L33.33,69.056L33.399,68.222L33.467,67.889L33.536,64.722L33.604,61.056L33.673,63.167L33.741,64.833L33.81,64.333L33.878,63.833L33.946,62.833L34.015,60.389L34.083,58.444L34.152,58.389L34.22,58.444L34.289,58.278L34.357,58.944L34.426,58.889L34.494,58.167L34.563,56.944L34.631,58.333L34.699,59.944L34.768,59.833L34.836,59.611L34.905,59.944L34.973,59.389L35.042,59.444L35.11,61.556L35.179,62.444L35.247,62.722L35.315,62.222L35.384,62.444L35.452,62.944L35.521,63.556L35.589,66.889L35.658,70.556L35.726,71.167L35.795,71.444L35.863,72.667L35.931,73.5L36,73.444L36.068,75.944L36.137,78.444L36.205,79.556L36.274,80.333L36.342,80.5L36.411,79.667L36.479,80.611L36.547,82.722L36.616,85.5L36.684,85.778L36.753,86.667L36.821,87.056L36.89,87.944L36.958,88.5L37.027,89L37.095,90.278L37.163,89.833L37.232,90.111L37.3,91.111L37.369,90.5L37.437,88.389L37.506,89L37.574,89.5L37.643,90.889L37.711,91.333L37.779,90.111L37.848,88.611L37.916,86.833L37.985,86.889L38.053,88.889L38.122,88.778L38.19,88.278L38.259,87.611L38.327,86.944L38.396,85.722L38.464,86.722L38.532,86.278L38.601,86L38.669,84.056L38.738,83.5L38.806,82.444L38.875,80.444L38.943,79.167L39.012,79.833L39.08,78.833L39.148,78.556L39.217,79L39.285,77.889L39.354,74.5L39.422,75.333L39.491,77.444L39.559,77.222L39.628,76.111L39.696,74.389L39.764,73.611L39.833,73.222L39.901,72.778L39.97,73.833L40.038,74.556L40.107,73.056L40.175,72.667L40.244,71.167L40.312,68.5L40.38,68.056L40.449,68.556L40.517,68.944L40.586,69L40.654,68.667L40.723,67.667L40.791,65.889L40.86,65.778L40.928,67.333L40.996,68.833L41.065,67.722L41.133,67L41.202,65.833L41.27,64.778L41.339,66.5L41.407,70.278L41.476,71.111L41.544,71.333L41.612,70.722L41.681,70.111L41.749,69.444L41.818,69.778L41.886,70.611L41.955,72.5L42.023,72.667L42.092,70.944L42.16,70.778L42.228,69.222L42.297,71.167L42.365,73.778L42.434,73.944L42.502,74.389L42.571,73L42.639,71.333L42.708,70.056L42.776,71.556L42.845,73.5L42.913,74.167L42.981,73.944L43.05,72.611L43.118,70.778L43.187,70.556L43.255,72.556L43.324,74L43.392,74.389L43.461,74.222L43.529,73.667L43.597,70.833L43.666,70.444L43.734,72L43.803,74.167L43.871,74.444L43.94,73.944L44.008,74.222L44.077,73L44.145,73L44.213,74.333L44.282,76.444L44.35,76.611L44.419,76.556L44.487,76.333L44.556,75.333L44.624,75.833L44.693,78.222L44.761,79.889L44.829,80.167L44.898,79.667L44.966,79.5L45.035,79L45.103,79.444L45.172,82.333L45.24,85.056L45.309,85.056L45.377,84.5L45.445,83.667L45.514,83.222L45.582,82.778L45.651,86.389L45.719,87.333L45.788,87.611L45.856,87.556L45.925,87.667L45.993,87.278L46.061,86.5L46.13,88.278L46.201,89.944L46.27,90.556L46.338,90.833L46.407,90.278L46.475,90.222L46.543,90.444L46.612,91.667L46.68,92.5L46.749,92.556L46.817,93.389L46.886,93.667L46.954,93.722L47.023,92.556L47.091,93.944L47.159,94.667L47.228,95.056L47.296,94.444L47.365,94.556L47.433,94.556L47.502,95.389L47.57,95.222L47.639,96.278L47.707,95.833L47.775,96.611L47.844,96.444L47.912,96.556L47.981,97.389L48.049,98.389L48.118,99.444L48.186,100.056L48.255,100.444L48.323,100.056L48.392,99.667L48.46,99.444L48.528,100.167L48.597,100.667L48.665,100.778L48.734,101.167L48.802,101.444L48.871,100.778L48.939,99.333L49.008,99.611L49.076,100.944L49.144,100.722L49.213,100.778L49.281,99.5L49.35,99.111L49.418,97.889L49.487,98.556L49.555,98.667L49.624,99.222L49.692,98.889L49.76,98.056L49.829,96.667L49.897,96L49.966,95.833L50.034,94.889L50.103,95.278L50.171,95.722L50.24,95.111L50.308,94.111L50.376,93.5L50.445,93.667L50.513,94.278L50.582,94.556L50.65,95.167L50.719,95.5L50.787,94.944L50.856,93.833L50.924,93.833L50.992,95.833L51.061,96.167L51.129,95.667L51.198,95.167L51.266,94.833L51.335,94.056L51.403,94.556L51.472,95.167L51.54,94.278L51.608,93.444L51.677,93.556L51.745,92.333L51.814,90.556L51.882,91.944L51.951,93L52.019,92.556L52.088,93.5L52.156,93.5L52.225,92.389L52.293,91.889L52.361,92.556L52.43,93.056L52.498,93.667L52.567,93.833L52.635,93.222L52.704,92.444L52.772,91.611L52.841,91.833L52.909,92.556L52.977,93.333L53.046,92.611L53.114,91.889L53.183,91.833L53.251,91.167L53.32,90.889L53.388,92.278L53.457,92.111L53.525,92.278L53.593,92.667L53.662,92.222L53.73,91.222L53.799,92.389L53.867,94.278L53.936,93.278L54.004,93L54.073,93.167L54.141,91.611L54.209,91.056L54.278,91.611L54.346,91.722L54.415,91.389L54.483,91.722L54.552,90.222L54.62,88.833L54.689,88.5L54.757,88.222L54.823,88.222L54.891,87.889L54.96,87.222L55.028,85L55.096,83.278L55.165,82.444L55.233,82.889L55.302,82.944L55.37,83L55.439,82.333L55.507,82.222L55.576,80.778L55.644,80.167L55.712,80.889L55.781,82.111L55.849,81.833L55.918,81.5L55.986,81.389L56.055,79L56.123,78.5L56.192,78.556L56.26,78.167L56.328,77.278L56.397,76.667L56.465,76.056L56.534,73.778L56.602,72.111L56.671,72.889L56.739,73L56.808,72.5L56.876,72.556L56.944,71.889L57.013,71.444L57.081,71.556L57.15,73.444L57.218,74.5L57.287,74.722L57.355,74.389L57.424,74.278L57.492,73.333L57.56,71.778L57.629,72.833L57.697,73.722L57.766,72.944L57.834,71.833L57.903,70.667L57.971,70.278L58.04,70.5L58.108,70.833L58.176,70.222L58.245,71.389L58.313,72.222L58.382,72.389L58.45,72.611L58.519,71.833L58.587,73.667L58.656,76.111L58.724,75.667L58.792,75.222L58.861,75.222L58.929,74.111L58.998,72.167L59.066,73.278L59.135,73.111L59.203,72.722L59.272,72.444L59.34,71.389L59.409,71.222L59.477,70.889L59.545,73.056L59.614,75.222L59.682,75.611L59.751,75.5L59.819,76.056L59.888,75.667L59.956,75.111L60.025,75.167L60.093,74.389L60.161,75.944L60.23,77.389L60.298,77.111L60.367,76.5L60.435,77.444L60.504,78.722L60.572,80.333L60.641,80.556L60.709,81L60.777,81.889L60.846,82.056L60.914,81.944L60.983,83.056L61.051,86.278L61.12,86.278L61.188,87.5L61.257,86.444L61.325,85.722L61.393,86.111L61.462,87.5L61.53,89L61.599,88.667L61.667,87.722L61.736,87.5L61.804,87.444L61.873,88.167L61.941,88.667L62.009,91L62.078,92.056L62.146,92.944L62.215,93.611L62.283,93.333L62.352,93L62.42,93.944L62.489,93.722L62.557,93.556L62.625,93.556L62.694,93.667L62.762,92.944L62.831,92.222L62.899,94.056L62.968,94.722L63.036,95.556L63.105,94.833L63.173,94.889L63.242,95.278L63.31,96.056L63.378,97.222L63.447,98.278L63.515,98.333L63.584,98.056L63.652,98.5L63.721,98.444L63.789,98L63.858,97.889L63.926,98.056L63.994,99.278L64.063,98.389L64.131,97.667L64.2,97.389L64.268,97.167L64.337,96.667L64.405,97.222L64.474,97.167L64.542,97.722L64.61,96.778L64.679,96.056L64.747,94.889L64.816,95.111L64.884,96.222L64.953,95.722L65.021,96.611L65.09,95.833L65.158,94.611L65.226,93.5L65.295,93.389L65.363,93.5L65.432,92.556L65.5,91.056L65.569,89.944L65.637,86.611L65.706,84.556L65.774,84.667L65.842,86.444L65.911,86.833L65.979,86L66.048,85.278L66.116,83.167L66.185,82.056L66.253,82.222L66.322,82.444L66.39,83.056L66.458,82.722L66.527,80.444L66.595,77.667L66.664,75.222L66.732,75.056L66.801,75.278L66.869,75.5L66.938,74L67.006,72.722L67.074,70.056L67.143,67.111L67.211,67.222L67.28,67.556L67.348,66.944L67.417,67.611L67.485,67.5L67.554,66.833L67.622,66.167L67.691,69.222L67.759,69.944L67.827,70.167L67.896,69.167L67.964,69.222L68.033,68.333L68.101,67.556L68.17,70.167L68.238,71.611L68.307,71.667L68.375,71.389L68.443,71.5L68.512,71.278L68.58,72.333L68.649,74.278L68.717,77.333L68.786,77.778L68.854,77.333L68.923,76.5L68.991,76.556L69.059,74.833L69.128,76.5L69.196,79.389L69.265,80.222L69.333,79.944L69.402,80.667L69.47,79.556L69.539,78.944L69.607,80.333L69.675,82.111L69.744,82.056L69.812,83L69.881,83.833L69.949,82.944L70.018,82.944L70.086,83.833L70.155,84.556L70.223,84.722L70.291,85.333L70.36,85.833L70.428,86.333L70.497,85.389L70.565,85.222L70.634,86.5L70.702,86.889L70.771,87L70.839,86.778L70.907,86.556L70.976,86.278L71.044,87.278L71.116,89.611L71.184,90L71.253,89.667L71.321,90.333L71.389,90.222L71.458,88.944L71.526,89.611L71.595,91.444L71.663,91.833L71.732,92.167L71.8,92.667L71.869,91.889L71.937,91.056L72.005,92.444L72.074,92.556L72.142,92.611L72.211,93.278L72.279,93.444L72.348,92.556L72.416,91.667L72.485,91.5L72.553,91.833L72.621,92.833L72.69,92.056L72.758,92.056L72.827,91.333L72.895,91.5L72.964,93.278L73.032,93.889L73.101,93.556L73.169,93.611L73.238,93.944L73.306,94.389L73.374,94.167L73.443,95.111L73.511,96.833L73.58,96.056L73.648,95.833L73.717,94.611L73.785,93.167L73.854,91.944L73.922,92.333L73.99,92.389L74.059,92.444L74.127,92.444L74.196,93.389L74.264,92L74.333,90.889L74.401,91.722L74.47,92.167L74.538,92L74.606,92.444L74.675,92.056L74.743,92L74.812,91.389L74.88,91.944L74.949,92.5L75.017,92.556L75.086,92.333L75.154,92.5L75.222,92.333L75.291,90.389L75.359,89.889L75.428,89.611L75.496,89.611L75.565,89L75.633,90L75.702,89.722L75.77,90.111L75.838,91.667L75.907,92.556L75.975,93.278L76.044,93.5L76.112,93.056L76.181,91.889L76.249,90.833L76.318,91.778L76.386,92.611L76.454,92.722L76.523,93.222L76.591,92.111L76.66,91.056L76.728,90L76.797,90.5L76.865,91.167L76.934,91.5L77.002,91.111L77.07,90.167L77.139,90.722L77.207,89.833L77.276,90.444L77.344,91.222L77.413,90.778L77.481,92.167L77.55,91.889L77.618,91.111L77.687,90.167L77.755,89.389L77.823,89.778L77.892,88.5L77.96,87.611L78.029,86.5L78.097,85.222L78.166,84.667L78.234,85.444L78.303,86.167L78.371,87L78.439,87.611L78.508,86.667L78.576,86.167L78.645,85.833L78.713,86.611L78.782,86.944L78.85,86.722L78.919,86L78.987,85L79.055,83.111L79.124,83L79.192,82.333L79.261,83.389L79.329,82.389L79.398,82L79.466,83L79.535,80.889L79.603,79.389L79.671,78.944L79.737,79.056L79.805,79.611L79.874,79.278L79.942,79.056L80.011,77.722L80.079,74.833L80.148,75.889L80.216,75.778L80.285,75.889L80.353,75.444L80.422,74.222L80.49,71.833L80.558,71.056L80.627,70.611L80.695,71.389L80.764,71.389L80.832,72.056L80.901,71.556L80.969,71.444L81.038,70.278L81.106,71.611L81.174,71.667L81.243,71.944L81.311,71.556L81.38,71.778L81.448,71.5L81.517,70L81.585,70.556L81.654,71.556L81.722,71.611L81.79,71.389L81.859,70.222L81.927,68.333L81.996,67.889L82.064,70.778L82.133,73.944L82.201,73.389L82.27,73.556L82.338,72.778L82.406,70.222L82.475,68L82.543,68.778L82.612,69.222L82.68,68.833L82.749,67.833L82.817,66.889L82.886,64.611L82.954,62.222L83.022,61.389L83.091,61.667L83.159,62.056L83.228,62.056L83.296,61.333L83.365,59.278L83.433,57.667L83.502,58.333L83.57,58.611L83.638,58.389L83.707,58.222L83.775,57.5L83.844,57.111L83.912,56.889L83.981,58.944L84.049,59.889L84.118,58.667L84.186,58.611L84.255,57.889L84.323,56.389L84.391,56.5L84.46,58.278L84.528,61.056L84.597,62.056L84.665,63L84.734,63.889L84.802,62.944L84.871,61.5L84.939,63.667L85.007,66.389L85.076,67.556L85.144,69.222L85.213,70.556L85.281,71.333L85.35,71.056L85.418,73L85.487,74.833L85.555,76.111L85.623,77.333L85.692,78.167L85.76,79.278L85.829,80.222L85.897,81.944L85.966,84.222L86.034,84.889L86.103,86.056L86.171,86.611L86.239,86.5L86.308,87.111L86.376,89.111L86.445,90.389L86.513,91.222L86.582,91.5L86.65,91.667L86.719,91.778L86.787,93L86.855,95.944L86.924,98.222L86.992,98.556L87.061,99.611L87.129,100.667L87.198,99.833L87.266,98.722L87.335,99L87.403,101.056L87.471,102L87.54,102.778L87.608,102.167L87.677,101.889L87.745,101.778L87.814,101.778L87.882,103.278L87.951,102.944L88.019,102.944L88.087,103L88.156,101.222L88.224,100L88.293,99.889L88.361,100.833L88.43,100.833L88.498,100.333L88.567,98.833L88.635,98.222L88.704,97L88.772,97.167L88.84,97.111L88.909,97.056L88.977,97.722L89.046,97L89.114,95.333L89.183,94.278L89.251,94.5L89.32,94.389L89.388,94.333L89.456,93.444L89.525,92.444L89.593,91.444L89.662,90.944L89.73,91.278L89.799,91.944L89.867,92.389L89.936,90.5L90.004,89.889L90.072,88.5L90.141,85L90.209,84.5L90.278,85.389L90.346,84.833L90.415,84.722L90.483,83.611L90.552,82.333L90.62,81.667L90.688,81.667L90.757,82.278L90.825,81.278L90.894,79.5L90.962,77.333L91.031,74.889L91.099,72.167L91.168,73.278L91.236,73.611L91.304,72.5L91.373,71.944L91.441,69.833L91.51,68.5L91.578,68.056L91.647,67.944L91.715,68.278L91.784,68.389L91.852,66.889L91.92,65.556L91.989,65.278L92.057,63.722L92.126,64.444L92.194,67.222L92.263,69.111L92.331,68.944L92.4,68.944L92.468,65.944L92.537,63.778L92.605,64.056L92.673,65L92.742,64.944L92.81,64.333L92.879,63.944L92.947,63.278L93.016,63.444L93.084,64.778L93.153,67.167L93.221,66.333L93.289,65.556L93.358,65.444L93.426,63.889L93.495,63.056L93.563,63.556L93.632,63.333L93.7,62.889L93.769,62.611L93.837,61.667L93.905,62.444L93.974,62L94.042,63.5L94.111,64.833L94.179,64.556L94.248,64.778L94.316,64.333L94.385,64.167L94.453,64.167L94.521,67.056L94.59,69.722L94.658,70.833L94.727,71.667L94.795,71.5L94.864,71.389L94.932,72.167L95.001,73.056L95.069,74.611L95.137,75.333L95.206,75.889L95.274,76.278L95.343,76.889L95.411,78L95.48,79.944L95.548,82.611L95.617,83.278L95.685,84.333L95.753,85.222L95.822,84.889L95.89,84.556L95.959,84.778L96.03,86.167L96.099,86.056L96.167,86.833L96.235,87.5L96.304,86.944L96.372,86.833L96.441,87.667L96.509,88.667L96.578,88.667L96.646,89.111L96.715,88.944L96.783,88.778L96.851,88.056L96.92,88.778L96.988,89.333L97.057,89.722L97.125,89.389L97.194,89.833L97.262,89.611L97.331,88.389L97.399,88.889L97.467,89.278L97.536,88.944L97.604,88.222L97.673,88.611L97.741,88L97.81,86.833L97.878,87.111L97.947,88.278L98.015,86L98.084,85.222L98.152,84.889L98.22,84.111L98.289,83.111L98.357,82.944L98.426,82.833L98.494,82.944L98.563,82.556L98.631,82.5L98.7,81L98.768,79.111L98.836,79.5L98.905,80.222L98.973,78.611L99.042,78.167L99.11,78.5L99.179,78.611L99.247,77.889L99.316,78.5L99.384,80.222L99.452,80.111L99.521,80.278L99.589,80.889L99.658,80.611L99.726,78.444L99.795,79.5L99.863,80.889L99.932,81.833L100,81.667L100.068,83.611L100.137,83.611L100.205,82.667L100.274,83.389L100.342,84.389L100.411,84.944L100.479,85.111L100.548,85.222L100.616,84.5L100.684,83.333L100.753,84.833L100.821,86.5L100.89,87.222L100.958,87.611L101.027,90.278L101.095,89.722L101.164,87.889L101.232,87.444L101.3,87.444L101.369,86.611L101.437,86.556L101.506,86.556L101.574,84.278L101.643,82.722L101.711,82.944L101.78,83.833L101.848,83.222L101.916,82.944L101.985,82.056L102.053,80.278L102.122,80.222L102.19,80.556L102.259,81.556L102.327,80.944L102.396,80L102.464,79.833L102.533,79.111L102.601,77.167L102.669,77.5L102.738,78.167L102.806,77.389L102.875,77.111L102.943,75.444L103.012,72.5L103.08,70.556L103.149,70.278L103.217,71.278L103.285,71.889L103.354,71.389L103.422,69.833L103.491,67.889L103.559,67L103.628,69.056L103.696,70.056L103.765,69.5L103.833,70.5L103.901,68.278L103.97,65.278L104.038,63.278L104.107,64.056L104.175,63.556L104.244,62.5L104.312,61.889L104.381,61.278L104.449,60.667L104.517,59.278L104.586,58.778L104.651,58.667L104.72,56.833L104.788,57.611L104.857,57.5L104.925,56L104.994,55.222L105.062,57.056L105.131,57L105.199,57.111L105.268,56.778L105.336,55.278L105.404,55.611L105.473,56.833L105.541,57.5L105.61,57.889L105.678,57.833L105.747,57.222L105.815,57.444L105.884,55.722L105.952,56.944L106.02,59.167L106.089,60.556L106.157,60.722L106.226,61.556L106.294,61.611L106.363,59.111L106.431,53.833L106.5,52.778L106.568,52.944L106.636,52.333L106.705,52.278L106.773,53.222L106.842,52.111L106.91,51L106.979,50.556L107.047,51.222L107.116,49.556L107.184,47.833L107.252,44.611L107.321,40.5L107.389,37L107.458,34.278L107.526,32.722L107.595,31.778L107.663,29.667L107.732,26.556L107.8,24.333L107.868,21.778L107.937,18.833L108.005,15.833L108.074,13.556L108.142,12.556L108.211,10.444L108.279,5.722L108.348,3.278L108.416,4.778L108.484,8.556L108.553,10.278L108.621,10.5L108.69,10.833L108.758,10.667L108.827,9.611L108.895,8.389L108.964,8.389L109.032,9.944L109.101,10.111L109.169,11.444L109.237,10.111L109.306,10.611L109.374,12.333L109.443,16.167L109.511,17.778L109.58,18.667L109.648,17.944L109.717,17.333L109.785,18L109.853,20.722L109.922,23.333L109.99,27.222L110.059,30.389L110.127,31.833L110.196,32.444L110.264,33.833L110.333,37.611L110.401,40.667L110.469,41.889L110.538,43.889L110.606,43.944L110.675,45L110.743,45.667L110.812,47.167L110.88,49.111L110.949,51.222L111.017,53.222L111.085,54.333L111.154,55.111L111.222,55.056L111.291,59.167L111.359,61.778L111.428,65.056L111.496,64.778L111.565,65.667L111.633,65.333L111.701,67.167L111.77,70.722L111.838,73.222L111.907,74.5L111.975,75.444L112.044,75.278L112.112,75.389L112.181,75.667L112.249,77.278L112.317,79.111L112.386,80.056L112.454,80.611L112.523,80.944L112.591,80.556L112.66,79.389L112.728,79.389L112.797,80.111L112.865,79.667L112.933,78.444L113.002,77.333L113.07,76L113.139,74.167L113.207,74.389L113.276,75.667L113.344,76.111L113.413,77L113.481,76.944L113.55,77L113.618,76.167L113.686,75.222L113.755,75.222L113.823,73.889L113.892,71.167L113.96,68.944L114.029,66.722L114.097,66.111L114.166,66.556L114.234,68.333L114.302,67.278L114.371,66.556L114.439,65.167L114.508,63.222L114.576,61.889L114.645,61.222L114.713,61.722L114.782,60.556L114.85,60.722L114.918,60.944L114.987,60.444L115.055,60.056L115.124,60.278L115.192,60.833L115.261,59.278L115.329,59.667L115.398,58.778L115.466,55.833L115.534,52.944L115.603,53.5L115.671,52.833L115.74,53.944L115.808,53.389L115.877,51.944L115.945,51.833L116.014,50.056L116.082,50.667L116.15,51.222L116.219,50.278L116.287,47.611L116.356,45.333L116.424,42.667L116.493,41.167L116.561,41.889L116.63,42.556L116.698,43.722L116.766,44.278L116.835,43.778L116.903,40L116.972,36.111L117.04,37.056L117.109,36.167L117.177,36.167L117.246,35.278L117.314,33.278L117.383,27.778L117.451,24.444L117.519,25.833L117.588,27.889L117.656,26.722L117.725,27.167L117.793,27.333L117.862,24.167L117.93,23.167L117.999,23.833L118.067,24.778L118.135,24.222L118.204,22.778L118.272,21.667L118.341,21.556L118.409,22.667L118.478,24.611L118.546,26.167L118.615,26.444L118.683,26.833L118.751,25.722L118.82,23.5L118.888,23.222L118.957,26.833L119.025,30L119.094,31.278L119.162,33.056L119.231,33.389L119.299,32.556L119.367,33.889L119.436,38L119.504,41.222L119.573,41.556L119.641,41.722L119.71,43.056L119.778,42.778L119.847,43L119.915,46.944L119.983,50L120.052,51.056L120.12,53.278L120.189,53.944L120.257,55.111L120.326,55L120.394,56.611L120.463,57.944L120.531,58.444L120.599,59.278L120.668,58.833L120.736,57.722L120.805,58.222L120.873,60.944L120.945,63.333L121.013,63L121.081,63.667L121.15,63.111L121.218,62.444L121.287,61.278L121.355,63.5L121.424,65.278L121.492,65.111L121.561,65.167L121.629,64.556L121.697,62.944L121.766,61.5L121.834,63.222L121.903,64L121.971,63.333L122.04,62.611L122.108,62.278L122.177,59.444L122.245,58.611L122.313,59.667L122.382,61.389L122.45,61.778L122.519,61.944L122.587,62.667L122.656,62.667L122.724,63.056L122.793,64.667L122.861,64.778L122.93,63.889L122.998,63.111L123.066,62.556L123.135,62.444L123.203,62.667L123.272,63.556L123.34,65.722L123.409,66L123.477,66.444L123.546,67.056L123.614,67.111L123.682,67.667L123.751,70.167L123.819,72L123.888,72.222L123.956,72.278L124.025,72.944L124.093,72.278L124.162,71.889L124.23,73.889L124.298,75.5L124.367,74.556L124.435,75.611L124.504,75.944L124.572,75.333L124.641,74.667L124.709,74.444L124.778,75.167L124.846,75.278L124.914,76.611L124.983,77.056L125.051,75.611L125.12,74.5L125.188,75.222L125.257,75.778L125.325,75.333L125.394,74.611L125.462,73.944L125.53,71.611L125.599,71.222L125.667,71.333L125.736,71.722L125.804,71.333L125.873,71.667L125.941,70.667L126.01,68.778L126.078,68.944L126.146,70.556L126.215,71.889L126.283,71.833L126.352,71.667L126.42,72.833L126.489,71.444L126.557,69.722L126.626,69.889L126.694,69.667L126.762,69.667L126.831,69L126.899,67.5L126.968,63.833L127.036,62.833L127.105,64.111L127.173,65.944L127.242,64.5L127.31,64.667L127.379,65.222L127.447,64.667L127.515,64.667L127.584,66.444L127.652,66.889L127.721,67L127.789,66.111L127.858,65.111L127.926,63.556L127.995,62.389L128.063,64.444L128.131,63.111L128.2,61.722L128.268,61.111L128.337,61.5L128.405,59L128.474,57.167L128.542,57.056L128.611,57.667L128.679,57.889L128.747,57.889L128.816,57.167L128.884,55.167L128.953,54.167L129.021,56.889L129.09,57.611L129.158,57.778L129.227,57.556L129.295,58.222L129.363,56.944L129.432,54.944L129.5,55.222L129.569,54.944L129.637,54.111L129.706,53.611L129.774,52.167L129.843,49.722L129.911,48.833L129.979,49.944L130.045,51.389L130.114,49.444L130.182,49.389L130.25,50.111L130.319,48.667L130.387,46L130.456,46.833L130.524,47.444L130.593,48.222L130.661,48.833L130.73,47.333L130.798,44.278L130.866,42.722L130.935,46L131.003,46.778L131.072,45.389L131.14,44.722L131.209,43.722L131.277,41.778L131.346,39.333L131.414,39.111L131.482,40.722L131.551,40.667L131.619,40.667L131.688,40.333L131.756,39L131.825,38.778L131.893,42.889L131.962,44.611L132.03,42.778L132.098,41.611L132.167,41.389L132.235,39.944L132.304,36.056L132.372,36.778L132.441,38.333L132.509,37.611L132.578,36.333L132.646,34.111L132.714,31.167L132.783,31.278L132.851,33.889L132.92,34.778L132.988,33.111L133.057,33.667L133.125,35.111L133.194,35.944L133.262,36.056L133.33,36.167L133.399,38.389L133.467,36.944L133.536,35.222L133.604,34.556L133.673,33.778L133.741,33.333L133.81,35.111L133.878,36.611L133.946,36.167L134.015,35.278L134.083,34.778L134.152,32.944L134.22,32.111L134.289,33.778L134.357,36.278L134.426,36.222L134.494,35.556L134.563,36.278L134.631,38.222L134.699,39.833L134.768,43.5L134.836,46.056L134.905,46L134.973,46.5L135.042,45.722L135.11,45.056L135.179,43.778L135.247,44.444L135.315,45.667L135.384,48.222L135.452,49.333L135.521,51.667L135.589,53.056L135.658,52.444L135.726,53.333L135.795,54.833L135.863,54.889L135.931,55.611L136,56.611L136.068,57.111L136.137,58.222L136.205,61.667L136.274,64.833L136.342,66.389L136.411,67.167L136.479,68.222L136.547,70.111L136.616,72.056L136.684,71L136.753,70.222L136.821,69.611L136.89,66.889L136.958,67.278L137.027,66L137.095,66.5L137.163,67.722L137.232,69L137.3,68.722L137.369,67.833L137.437,66.333L137.506,64.111L137.574,61.278L137.643,61.056L137.711,62.778L137.779,62.667L137.848,61.778L137.916,61.389L137.985,60.389L138.053,59.167L138.122,59.389L138.19,60.222L138.259,60.333L138.327,60.722L138.396,60.389L138.464,61.167L138.532,60.889L138.601,61L138.669,61.167L138.738,62.889L138.806,64.556L138.875,64.778L138.943,65.889L139.012,67.167L139.08,69.722L139.148,70.056L139.217,69.722L139.285,69.778L139.354,70.278L139.422,70.222L139.491,69.5L139.559,69.778L139.628,72.611L139.696,73.278L139.764,73.056L139.833,72.667L139.901,72.556L139.97,71.333L140.038,69.667L140.107,70L140.175,70.056L140.244,70.389L140.312,69.389L140.38,66.222L140.449,64.444L140.517,63.556L140.586,63.833L140.654,63.056L140.723,62L140.791,60.056L140.86,57.611L140.928,56.056L140.996,55.611L141.065,54.667L141.133,54.167L141.202,54.778L141.27,54.889L141.339,52.556L141.407,49.444L141.476,49.278L141.544,49.611L141.612,50.167L141.681,49L141.749,46.944L141.818,44.111L141.886,42.278L141.955,43.333L142.023,43.944L142.092,45.111L142.16,43.333L142.228,42.222L142.297,40.222L142.365,38.5L142.434,39.611L142.502,39.944L142.571,39.833L142.639,39.056L142.708,37.111L142.776,34.889L142.845,34.5L142.913,35.889L142.981,36.056L143.05,36.5L143.118,35.333L143.187,34.833L143.255,32.556L143.324,29.889L143.392,30.833L143.461,33.278L143.529,33.667L143.597,33.611L143.666,33.056L143.734,32.444L143.803,31.333L143.871,33.778L143.94,35.722L144.008,35.5L144.077,36.667L144.145,37.222L144.213,37.944L144.282,38.333L144.35,39.556L144.419,40.556L144.487,41L144.556,41.111L144.624,41.611L144.693,41.056L144.761,43L144.829,45.778L144.898,47.611L144.966,48.111L145.035,48.167L145.103,48.722L145.172,49.167L145.24,47.611L145.309,50L145.377,52.389L145.445,54.056L145.514,52.5L145.582,52.278L145.651,51.889L145.719,51.222L145.788,51.611L145.856,54.5L145.925,54.389L145.993,54.722L146.061,54.056L146.13,52.667L146.198,51L146.267,52.222L146.338,52.667L146.407,52.778L146.475,54L146.543,53.5L146.612,52L146.68,51.556L146.749,52.389L146.817,52.722L146.886,52.944L146.954,52.167L147.023,51.333L147.091,50.944L147.159,49.111L147.228,49.778L147.296,52.167L147.365,52L147.433,52.833L147.502,52.111L147.57,54.222L147.639,53.944L147.707,54.5L147.775,56.111L147.844,57.167L147.912,57.5L147.981,57.222L148.049,57.667L148.118,58.444L148.186,59.611L148.255,61.611L148.323,61.5L148.392,61.889L148.46,62.5L148.528,62.5L148.597,62.556L148.665,64.444L148.734,65.222L148.802,65.444L148.871,65.222L148.939,65.111L149.008,65.056L149.076,65.556L149.144,66.944L149.213,68.833L149.281,68.5L149.35,68.389L149.418,67.778L149.487,66.667L149.555,66.5L149.624,65.833L149.692,66.611L149.76,67.056L149.829,66.444L149.897,66.556L149.966,66.5L150.034,66.556L150.103,66L150.171,65.833L150.24,64.722L150.308,64.667L150.376,63.944L150.445,62.389L150.513,61.333L150.582,60.778L150.65,62.278L150.719,63.278L150.787,62.5L150.856,62.389L150.924,62L150.992,61.667L151.061,62.278L151.129,61.889L151.198,61.167L151.266,61.5L151.335,61.389L151.403,61.667L151.472,60.889L151.54,61.944L151.608,61.389L151.677,60.444L151.745,59.833L151.814,60.333L151.882,60.444L151.951,60.556L152.019,60.833L152.088,61L152.156,61.278L152.225,61.722L152.293,62.444L152.361,61.167L152.43,60.944L152.498,61.778L152.567,62.111L152.635,63L152.704,62.5L152.772,61.944L152.841,61.778L152.909,61.889L152.977,62.444L153.046,62.111L153.114,61L153.183,60.611L153.251,58.722L153.32,56.333L153.388,54.778L153.457,53.444L153.525,53.889L153.593,53.778L153.662,55.389L153.73,56.167L153.799,56.278L153.867,55.389L153.936,55.889L154.004,55.722L154.073,55.111L154.141,54.667L154.209,54.611L154.278,53.278L154.346,52.167L154.415,52.333L154.483,52.111L154.552,52.611L154.62,53.556L154.689,52.556L154.757,51.278L154.825,51L154.894,51.389L154.96,50.167L155.028,49.5L155.096,48.944L155.165,49.278L155.233,48.667L155.302,51L155.37,52.778L155.439,54.889L155.507,55.278L155.576,55.778L155.644,55.111L155.712,52.222L155.781,51.333L155.849,51L155.918,50.944L155.986,50.667L156.055,50.278L156.123,50.111L156.192,49.444L156.26,49.278L156.328,49.333L156.397,49.556L156.465,49.556L156.534,48.722L156.602,49.444L156.671,49.056L156.739,49.556L156.808,50.944L156.876,50.556L156.944,49.889L157.013,50.222L157.081,49.444L157.15,48.889L157.218,47.333L157.287,48.889L157.355,48.833L157.424,48.556L157.492,48.111L157.56,46.944L157.629,45.944L157.697,45.111L157.766,46.111L157.834,47.167L157.903,47.056L157.971,47.222L158.04,47.167L158.108,46.167L158.176,43.944L158.245,44.556L158.313,45.222L158.382,44.444L158.45,45.667L158.519,45.222L158.587,45.167L158.656,41.778L158.724,39.778L158.792,39.167L158.861,38.778L158.929,38.333L158.998,38.222L159.066,37.556L159.135,37.222L159.203,38.944L159.272,41.111L159.34,41.833L159.409,41.333L159.477,42.333L159.545,40.944L159.614,40.944L159.682,41.111L159.751,42L159.819,42.889L159.888,42.111L159.956,41.667L160.025,41L160.093,38.778L160.161,40.778L160.23,43.056L160.298,42.833L160.367,42.722L160.435,44.389L160.504,45.167L160.572,46.889L160.641,48.556L160.709,51.611L160.777,53.944L160.846,54.889L160.914,54.722L160.983,54.444L161.051,53.778L161.12,56L161.188,58.167L161.257,57.722L161.325,57.889L161.393,56.333L161.462,55.778L161.53,54.889L161.599,56.722L161.667,59L161.736,60.278L161.804,60.278L161.873,60.556L161.941,60.611L162.009,61.5L162.078,63.056L162.146,65.944L162.215,64.222L162.283,65L162.352,66.111L162.42,64.944L162.489,64.444L162.557,64.389L162.625,64.389L162.694,64.444L162.762,63.944L162.831,63.556L162.899,63L162.968,62.444L163.036,64.889L163.105,67.333L163.173,67.444L163.242,66.722L163.31,66.444L163.378,64.722L163.447,63.667L163.515,63.056L163.584,62.944L163.652,62.667L163.721,62L163.789,61.667L163.858,61.556L163.926,61.389L163.994,62L164.063,62.944L164.131,62.944L164.2,62.944L164.268,63.889L164.337,62.778L164.405,62.167L164.474,63.333L164.542,63.889L164.61,62.889L164.679,62.556L164.747,61.944L164.816,61.222L164.884,60.278L164.953,60.389L165.021,61.667L165.09,60.111L165.158,58.5L165.226,56.389L165.295,55.389L165.363,55.056L165.432,56.611L165.5,58.722L165.569,59.111L165.637,59.944L165.706,58.389L165.774,55.778L165.842,55.944L165.911,57.111L165.979,56.944L166.048,55.389L166.116,55.111L166.185,53.778L166.253,50.833L166.322,49.889L166.39,49.667L166.458,50.278L166.527,49.278L166.595,49.056L166.664,47.944L166.732,47.333L166.801,46.167L166.869,48L166.938,49.556L167.006,49.944L167.074,49.167L167.143,48.833L167.211,48.056L167.28,48.389L167.348,48.722L167.417,48.833L167.485,48.167L167.554,47.167L167.622,47.278L167.691,45.278L167.759,43.833L167.827,45.778L167.896,45.222L167.964,43.889L168.033,44.111L168.101,44.611L168.17,42.944L168.238,42.111L168.307,44.556L168.375,46.056L168.443,46.111L168.512,46.111L168.58,45.889L168.649,42.833L168.717,41.556L168.786,41.722L168.854,42.778L168.923,41.056L168.991,39.5L169.059,37.556L169.128,35.667L169.196,34.722L169.265,35.5L169.333,37.278L169.402,38.444L169.47,38.556L169.539,39.667L169.607,38.944L169.675,38.333L169.744,40.389L169.812,44.278L169.881,45.333L169.949,45.778L170.018,45.5L170.086,44.667L170.155,44.833L170.223,46.167L170.291,48.611L170.36,48.5L170.428,48.278L170.497,47.722L170.565,46.722L170.634,46.889L170.702,50L170.771,52.444L170.839,52.444L170.907,53.056L170.976,52.278L171.044,53L171.113,53.611L171.181,55.556L171.253,57.833L171.321,59L171.389,57.889L171.458,57.889L171.526,58.778L171.595,57.944L171.663,60.5L171.732,62.556L171.8,62.167L171.869,61.556L171.937,61.278L172.005,61.389L172.074,60.667L172.142,61.167L172.211,61.778L172.279,60.889L172.348,60.667L172.416,60.833L172.485,61.444L172.553,63.333L172.621,64.333L172.69,63.889L172.758,64.056L172.827,64.667L172.895,64.778L172.964,63.944L173.032,64.111L173.101,63.667L173.169,64.722L173.238,65.389L173.306,63.556L173.374,63.056L173.443,62.833L173.511,62.222L173.58,62.222L173.648,62.722L173.717,61.944L173.785,62.111L173.854,61.278L173.922,59.667L173.99,58.222L174.059,58.056L174.127,58.556L174.196,58.389L174.264,58.667L174.333,58.556L174.401,57.667L174.47,56.778L174.538,56.944L174.606,56.222L174.675,57.056L174.743,58.889L174.812,58.556L174.88,56.944L174.949,56.5L175.017,56.944L175.086,57.056L175.154,56.611L175.222,55.556L175.291,54.889L175.359,55.278L175.428,55.056L175.496,56.389L175.565,56.111L175.633,55.611L175.702,55.389L175.77,55.111L175.838,53.722L175.907,52.056L175.975,52.944L176.044,54.056L176.112,53.5L176.181,54.056L176.249,54.722L176.318,53.722L176.386,54.556L176.454,54.722L176.523,55.5L176.591,55.056L176.66,54.667L176.728,52.944L176.797,51.389L176.865,50.333L176.934,51.167L177.002,51.778L177.07,52.222L177.139,52.944L177.207,54L177.276,53.667L177.344,52.722L177.413,52.778L177.481,53.222L177.55,53.056L177.618,53.778L177.687,53.333L177.755,53.556L177.823,53.333L177.892,54.056L177.96,56.222L178.029,56.5L178.097,56.389L178.166,55.944L178.234,54.5L178.303,53.5L178.371,52.889L178.439,51.333L178.508,50.111L178.576,49.667L178.645,47.667L178.713,47.5L178.782,45.333L178.85,45.611L178.919,46.833L178.987,46.778L179.055,45.611L179.124,45.667L179.192,44.833L179.261,44L179.329,45.667L179.398,46.611L179.466,46.444L179.535,44.611L179.603,43.667L179.671,41.833L179.74,41.611L179.808,41.556L179.874,41.444L179.942,40.611L180.011,36.833L180.079,34.111L180.148,31.333L180.216,30.444L180.285,31.5L180.353,31.111L180.422,32.333L180.49,33.722L180.558,34.722L180.627,35.056L180.695,36.333L180.764,36.556L180.832,39.667L180.901,40.5L180.969,39.944L181.038,40.389L181.106,41.944L181.174,41.667L181.243,42.833L181.311,42.278L181.38,41.389L181.448,42.222L181.517,41.833L181.585,41.611L181.654,40.5L181.722,40.278L181.79,40.444L181.859,39.5L181.927,40.278L181.996,40.611L182.064,43.778L182.133,45.111L182.201,47.389L182.27,49.556L182.338,50.222L182.406,51.333L182.475,50.611L182.543,50.556L182.612,49.889L182.68,48.833L182.749,48.222L182.817,48.389L182.886,48.222L182.954,46.889L183.022,47.222L183.091,45.444L183.159,43.333L183.228,43.056L183.296,43.111L183.365,43.778L183.433,43.333L183.502,41.833L183.57,41.167L183.638,42.944L183.707,44.5L183.775,46.833L183.844,47.778L183.912,47.889L183.981,45.722L184.049,45L184.118,45.5L184.186,46.556L184.255,46.222L184.323,45.111L184.391,44.389L184.46,42.611L184.528,40.389L184.597,39.222L184.665,39.611L184.734,40.444L184.802,40.111L184.871,39.889L184.939,38.222L185.007,37.778L185.076,37.611L185.144,38.778L185.213,40.222L185.281,40.333L185.35,40.056L185.418,40.222L185.487,39.944L185.555,41.722L185.623,44.5L185.692,45L185.76,45.556L185.829,45.611L185.897,44.944L185.966,45.611L186.034,47.778L186.103,49.444L186.171,50.556L186.239,51.611L186.308,53.167L186.376,53.167L186.445,54.056L186.513,55.944L186.582,59.833L186.65,61.833L186.719,62.889L186.787,62.889L186.855,63.944L186.924,64.611L186.992,67L187.061,69.722L187.129,70.667L187.198,71.778L187.266,72.944L187.335,73.5L187.403,72.667L187.471,72.611L187.54,74.556L187.608,74L187.677,73.722L187.745,72.944L187.814,71.944L187.882,70.944L187.951,71.944L188.019,71.611L188.087,70.389L188.156,70.556L188.224,69.556L188.293,69.444L188.361,68.944L188.43,69.778L188.498,69.389L188.567,69.278L188.635,68.722L188.704,68.389L188.772,67.111L188.84,66L188.909,66.5L188.977,66.722L189.046,65.944L189.114,65.222L189.183,65.278L189.251,63.389L189.32,61.167L189.388,60.222L189.456,60.778L189.525,61.333L189.593,60.833L189.662,59.889L189.73,57.944L189.799,56.944L189.867,57.167L189.936,57.5L190.004,57.5L190.072,59.167L190.141,60.111L190.209,59.278L190.278,59.278L190.346,59.111L190.415,59.5L190.483,59.778L190.552,58.889L190.62,58.278L190.688,56.222L190.757,54.389L190.825,55.278L190.894,56.556L190.962,54.5L191.031,53.111L191.099,51.889L191.168,51L191.236,49.778L191.304,51.056L191.373,52.333L191.441,51.611L191.51,52.222L191.578,52.222L191.647,50.5L191.715,48.389L191.784,49.222L191.852,49L191.92,48.667L191.989,48.111L192.057,46.222L192.126,41.944L192.194,40.778L192.263,40.278L192.331,39.944L192.4,38.444L192.468,37.556L192.537,36.444L192.605,37.056L192.673,35.944L192.742,38.222L192.81,39.722L192.879,39.333L192.947,39.389L193.016,40.222L193.084,39.167L193.153,39.833L193.221,40.111L193.289,40.667L193.358,40.222L193.426,39.111L193.495,38.556L193.563,35.556L193.632,32.5L193.7,33.722L193.769,36.222L193.837,35.944L193.905,37.556L193.974,37.389L194.042,36.722L194.111,37.056L194.179,40.667L194.248,40.833L194.316,41.889L194.385,41.556L194.453,41.944L194.521,41.5L194.59,41.722L194.658,41.889L194.727,43.111L194.795,41.944L194.864,41.333L194.932,41.167L195.001,39.222L195.069,38.778L195.137,40.222L195.206,40.833L195.274,41.667L195.343,41.722L195.411,41.111L195.48,42.222L195.548,44.667L195.617,47.611L195.685,50.556L195.753,51.222L195.822,51.5L195.89,51.611L195.959,50.056L196.027,49.667L196.096,51.111L196.167,51.333L196.235,50.5L196.304,50.556L196.372,49.167L196.441,48.611L196.509,48.611L196.578,49.889L196.646,51.111L196.715,50.944L196.783,51.167L196.851,50.722L196.92,50.778L196.988,51.889L197.057,54.556L197.125,55.333L197.194,55.556L197.262,56L197.331,55.333L197.399,54.833L197.467,55.556L197.536,55.611L197.604,54.611L197.673,55.222L197.741,55.667L197.81,55.444L197.878,54.889L197.947,54.722L198.015,55.333L198.084,56.5L198.152,56.056L198.22,57.444L198.289,58.333L198.357,59.611L198.426,60.222L198.494,61.278L198.563,62.278L198.631,61.778L198.7,61.278L198.768,62.111L198.836,62.611L198.905,63.5L198.973,64.5L199.042,64.222L199.11,63.667L199.179,63.167L199.247,62.833L199.316,62.389L199.384,62.722L199.452,62.889L199.521,62.444L199.589,61.333L199.658,61.278L199.726,59.5L199.795,56.556L199.863,55.167L199.932,54.556L200,55.111L200.068,55.889L200.137,56.111L200.205,56.278L200.274,54.167L200.342,51.667L200.411,51L200.479,52.222L200.548,52.5L200.616,52.111L200.684,52.111L200.753,51.389L200.821,49.944L200.89,49.833L200.958,50.611L201.027,50.722L201.095,49.833L201.164,49.889L201.232,49.222L201.3,49.444L201.369,48.778L201.437,48.278L201.506,48.611L201.574,48.667L201.643,49.222L201.711,47.667L201.78,48.222L201.848,50.333L201.916,50.444L201.985,50.944L202.053,50.889L202.122,48.611L202.19,46.333L202.259,44.778L202.327,48.556" stroke="#4c78a8" stroke-width="2"/></g><g class="mark-group role-title"><g transform="translate(100,-17)"><path class="background" aria-hidden="true" d="M0,0h0v0h0Z" pointer-events="none"/><g><g class="mark-text role-title-text" role="graphics-symbol" aria-roledescription="title" aria-label="Title text 'Noise - Residential: Loud Talking'" pointer-events="none"><text text-anchor="middle" transform="translate(0,10)" font-family="sans-serif" font-size="13px" font-weight="bold" fill="#000" opacity="1">Noise - Residential: Loud Talking</text></g></g><path class="foreground" aria-hidden="true" d="" pointer-events="none" display="none"/></g></g></g><path class="foreground" aria-hidden="true" d="" display="none"/></g></g></g><defs><clipPath id="clip102"><rect x="0" y="0" width="200" height="150"/></clipPath></defs></svg>