<svg xmlns="http://www.w3.org/2000/svg" xmlns:xlink="http://www.w3.org/1999/xlink" version="1.1" class="marks" width="278" height="194" viewBox="0 0 278 194"><rect width="278" height="194" fill="white"/><g fill="none" stroke-miterlimit="10" transform="translate(39,22)"><g class="mark-group role-frame root" role="graphics-object" aria-roledescription="group mark container"><g transform="translate(0,0)"><path class="background" aria-hidden="true" d="M0,0h200v150h-200Z"/><g><g class="mark-group role-axis" aria-hidden="true"><g transform="translate(0.5,0.5)"><path class="background" aria-hidden="true" d="M0,0h0v0h0Z" pointer-events="none"/><g><g class="mark-rule role-axis-grid" pointer-events="none"><line transform="translate(0,150)" x2="200" y2="0" stroke="#ddd" stroke-width="1" opacity="1"/><line transform="translate(0,117)" x2="200" y2="0" stroke="#ddd" stroke-width="1" opacity="1"/><line transform="translate(0,83)" x2="200" y2="0" stroke="#ddd" stroke-width="1" opacity="1"/><line transform="translate(0,50)" x2="200" y2="0" stroke="#ddd" stroke-width="1" opacity="1"/><line transform="translate(0,17)" x2="200" y2="0" stroke="#ddd" stroke-width="1" opacity="1"/></g></g><path class="foreground" aria-hidden="true" d="" pointer-events="none" display="none"/></g></g><g class="mark-group role-axis" role="graphics-symbol" aria-roledescription="axis" aria-label="X-axis for a time scale with values from Friday, 01 January 2016, 12:00:00 AM to Monday, 01 January 2024, 12:00:00 AM"><g transform="translate(0.5,150.5)"><path class="background" aria-hidden="true" d="M0,0h0v0h0Z" pointer-events="none"/><g><g class="mark-rule role-axis-tick" pointer-events="none"><line transform="translate(0,0)" x2="0" y2="5" stroke="#888" stroke-width="1" opacity="1"/><line transform="translate(50,0)" x2="0" y2="5" stroke="#888" stroke-width="1" opacity="1"/><line transform="translate(100,0)" x2="0" y2="5" stroke="#888" stroke-width="1" opacity="1"/><line transform="translate(150,0)" x2="0" y2="5" stroke="#888" stroke-width="1" opacity="1"/><line transform="translate(200,0)" x2="0" y2="5" stroke="#888" stroke-width="1" opacity="1"/></g><g class="mark-text role-axis-label" pointer-events="none"><text text-anchor="start" transform="translate(0,15)" font-family="sans-serif" font-size="10px" fill="#000" opacity="1">2016</text><text text-anchor="middle" transform="translate(50.03422313483915,15)" font-family="sans-serif" font-size="10px" fill="#000" opacity="1">2018</text><text text-anchor="middle" transform="translate(100,15)" font-family="sans-serif" font-size="10px" fill="#000" opacity="1">2020</text><text text-anchor="middle" transform="translate(150.03422313483915,15)" font-family="sans-serif" font-size="10px" fill="#000" opacity="1">2022</text><text text-anchor="end" transform="translate(200,15)" font-family="sans-serif" font-size="10px" fill="#000" opacity="1">2024</text></g><g class="mark-rule role-axis-domain" pointer-events="none"><line transform="translate(0,0)" x2="200" y2="0" stroke="#888" stroke-width="1" opacity="1"/></g></g><path class="foreground" aria-hidden="true" d="" pointer-events="none" display="none"/></g></g><g class="mark-group role-axis" role="graphics-symbol" aria-roledescription="axis" aria-label="Y-axis for a linear scale with values from 0 to 9"><g transform="translate(0.5,0.5)"><path class="background" aria-hidden="true" d="M0,0h0v0h0Z" pointer-events="none"/><g><g class="mark-rule role-axis-tick" pointer-events="none"><line transform="translate(0,150)" x2="-5" y2="0" stroke="#888" stroke-opacity="0" stroke-width="1" opacity="1"/><line transform="translate(0,117)" x2="-5" y2="0" stroke="#888" stroke-opacity="0" stroke-width="1" opacity="1"/><line transform="translate(0,83)" x2="-5" y2="0" stroke="#888" stroke-opacity="0" stroke-width="1" opacity="1"/><line transform="translate(0,50)" x2="-5" y2="0" stroke="#888" stroke-opacity="0" stroke-width="1" opacity="1"/><line transform="translate(0,17)" x2="-5" y2="0" stroke="#888" stroke-opacity="0" stroke-width="1" opacity="1"/></g><g class="mark-text role-axis-label" pointer-events="none"><text text-anchor="end" transform="translate(-7,153)" font-family="sans-serif" font-size="10px" fill="#000" opacity="1">0</text><text text-anchor="end" transform="translate(-7,119.66666666666667)" font-family="sans-serif" font-size="10px" fill="#000" opacity="1">2</text><text text-anchor="end" transform="translate(-7,86.33333333333334)" font-family="sans-serif" font-size="10px" fill="#000" opacity="1">4</text><text text-anchor="end" transform="translate(-7,53.00000000000001)" font-family="sans-serif" font-size="10px" fill="#000" opacity="1">6</text><text text-anchor="end" transform="translate(-7,19.666666666666675)" font-family="sans-serif" font-size="10px" fill="#000" opacity="1">8</text></g></g><path class="foreground" aria-hidden="true" d="" pointer-events="none" display="none"/></g></g><g class="mark-line role-mark marks" clip-path="url(#clip118)" role="graphics-object" aria-roledescription="line mark container"><path aria-label="day: Jan 01, 2010; avg: 1.63333333333" role="graphics-symbol" aria-roledescription="line mark" d="M-149.966,122.778L-149.829,123.333L-149.692,123.333L-149.624,123.889L-149.555,124.444L-149.487,123.889L-149.418,123.889L-149.35,123.333L-149.213,123.333L-149.144,124.444L-149.008,121.111L-148.734,121.111L-148.392,121.111L-148.186,121.111L-148.118,121.667L-148.049,120L-147.912,117.778L-147.844,117.778L-147.707,115.556L-147.57,114.444L-147.502,114.444L-147.433,114.444L-147.296,114.444L-147.091,115.556L-146.954,116.111L-146.886,117.222L-146.817,117.778L-146.543,116.111L-146.475,114.444L-146.407,114.444L-146.27,113.889L-146.201,114.444L-146.064,112.222L-145.996,111.667L-145.927,110.556L-145.859,109.444L-145.722,108.889L-145.654,108.333L-145.517,107.778L-145.38,106.667L-145.311,110L-145.243,109.444L-145.038,108.889L-144.972,108.333L-144.835,106.667L-144.767,108.889L-144.698,110.556L-144.63,111.111L-144.561,111.667L-144.493,111.667L-144.424,110.556L-144.356,110.556L-144.288,110.556L-144.151,110L-144.082,109.444L-144.014,106.111L-143.877,106.111L-143.808,106.667L-143.74,107.222L-143.672,105L-143.603,105.556L-143.535,104.444L-143.466,105.556L-143.398,105L-143.329,105L-143.261,106.667L-143.192,106.667L-143.124,107.222L-143.056,108.333L-142.987,108.889L-142.919,108.889L-142.85,107.778L-142.576,107.222L-142.508,104.444L-142.44,104.444L-142.371,103.333L-142.303,103.889L-142.234,102.778L-142.097,104.444L-141.96,105L-141.892,105.556L-141.824,104.444L-141.755,103.889L-141.687,103.333L-141.618,101.111L-141.55,103.333L-141.481,102.778L-141.413,102.778L-141.344,101.667L-141.276,103.889L-141.208,103.889L-141.139,105L-141.071,106.111L-140.934,106.667L-140.865,105L-140.797,104.444L-140.728,103.333L-140.591,103.889L-140.455,103.333L-140.386,102.222L-140.318,102.222L-140.249,103.333L-140.181,103.333L-140.112,103.889L-140.044,105.556L-139.975,105L-139.907,103.889L-139.839,102.222L-139.77,101.667L-139.702,98.889L-139.633,99.444L-139.565,97.778L-139.496,95.556L-139.428,94.444L-139.359,96.111L-139.291,94.444L-139.223,95.556L-139.154,95.556L-139.086,95.556L-138.949,94.444L-138.88,93.333L-138.812,91.111L-138.743,90L-138.675,88.333L-138.607,90.556L-138.538,90.556L-138.47,91.111L-138.333,90L-138.264,89.444L-138.127,91.111L-138.059,91.111L-137.991,90L-137.854,90L-137.785,91.111L-137.717,91.111L-137.648,92.222L-137.58,92.778L-137.511,94.444L-137.443,92.778L-137.375,95L-137.306,93.333L-137.238,93.889L-137.169,95L-137.101,96.111L-137.032,97.778L-136.964,100L-136.895,99.444L-136.827,100.556L-136.758,102.222L-136.69,103.333L-136.622,102.778L-136.553,105L-136.485,105L-136.416,106.667L-136.348,106.111L-136.279,106.667L-136.211,106.667L-136.142,105L-136.074,104.444L-136.006,102.778L-135.937,101.667L-135.869,102.222L-135.8,102.778L-135.732,104.444L-135.663,104.444L-135.595,103.889L-135.458,104.444L-135.39,105.556L-135.321,107.222L-135.253,108.333L-135.184,110L-135.116,110.556L-135.047,111.111L-134.979,112.222L-134.91,112.222L-134.705,112.778L-134.637,112.778L-134.568,112.222L-134.5,111.667L-134.363,109.444L-134.294,111.111L-134.226,110L-134.158,110.556L-134.089,110L-133.952,110.556L-133.61,108.333L-133.542,109.444L-133.473,111.111L-133.405,112.222L-133.336,113.889L-133.268,115L-133.131,115.556L-133.062,116.111L-132.994,114.444L-132.926,113.333L-132.857,114.444L-132.789,113.889L-132.72,113.333L-132.652,113.333L-132.583,113.333L-132.515,110L-132.446,111.111L-132.378,112.222L-132.309,112.222L-132.241,112.222L-132.173,111.667L-132.104,111.667L-132.036,110.556L-131.967,111.667L-131.83,113.889L-131.762,114.444L-131.693,115L-131.625,115.556L-131.557,116.667L-131.42,116.667L-131.214,117.778L-131.146,117.222L-131.077,118.333L-130.941,118.889L-130.872,118.333L-130.804,118.333L-130.735,118.333L-130.667,117.778L-130.598,119.444L-130.53,120.556L-130.461,118.333L-130.325,118.889L-130.188,118.889L-130.119,119.444L-130.051,118.889L-129.982,122.222L-129.914,122.778L-129.709,122.778L-129.64,122.778L-129.572,122.778L-129.298,122.778L-129.024,123.333L-128.956,125L-128.887,125L-128.819,124.444L-128.679,124.444L-128.611,125L-128.542,124.444L-128.474,123.333L-128.405,123.889L-128.337,125L-128.268,125.556L-128.2,125.556L-128.131,125.556L-128.063,126.111L-127.995,126.111L-127.926,126.111L-127.858,126.667L-127.721,126.667L-127.652,126.111L-127.584,128.333L-127.447,128.333L-127.379,128.889L-127.31,128.333L-127.173,128.889L-127.036,128.333L-126.899,128.333L-126.626,128.333L-126.557,128.333L-126.489,128.333L-126.352,128.889L-126.146,128.889L-126.078,128.889L-126.01,128.889L-125.941,129.444L-125.804,129.444L-125.736,128.333L-125.667,128.889L-125.599,128.889L-125.462,126.667L-125.394,125L-125.325,124.444L-125.257,123.889L-124.983,123.889L-124.914,123.889L-124.846,123.889L-124.778,123.333L-124.641,122.778L-124.367,122.778L-124.162,123.333L-124.093,122.778L-124.025,122.222L-123.956,122.222L-123.477,122.778L-123.34,122.778L-123.272,123.333L-123.203,123.333L-123.135,122.778L-123.066,122.778L-122.998,121.667L-122.861,120.556L-122.656,119.444L-122.587,117.778L-122.45,116.111L-122.313,114.444L-122.177,113.889L-122.108,115L-122.04,113.889L-121.766,113.889L-121.697,116.111L-121.629,117.778L-121.561,117.222L-121.424,117.778L-121.355,117.222L-121.287,116.667L-121.218,116.111L-121.15,116.667L-121.081,117.222L-121.013,116.667L-120.945,116.111L-120.876,116.667L-120.739,117.222L-120.671,116.667L-120.602,116.667L-120.465,116.667L-120.397,116.667L-120.329,116.667L-120.26,115.556L-120.192,115.556L-119.989,116.111L-119.921,117.222L-119.852,118.333L-119.784,117.778L-119.715,118.889L-119.578,120.556L-119.51,120.556L-119.442,120L-119.305,121.111L-119.099,120.556L-119.031,120.556L-118.962,119.444L-118.894,120.556L-118.757,118.889L-118.689,119.444L-118.552,118.333L-118.483,118.333L-118.415,118.889L-118.346,118.333L-118.278,118.889L-118.21,118.889L-118.141,118.333L-118.004,117.222L-117.867,117.778L-117.799,116.111L-117.73,115L-117.525,112.778L-117.457,111.667L-117.388,110.556L-117.114,109.444L-117.046,109.444L-116.978,108.889L-116.909,108.889L-116.841,110.556L-116.772,110L-116.704,110L-116.635,107.778L-116.567,105.556L-116.498,104.444L-116.43,106.111L-116.362,105.556L-116.293,104.444L-116.225,101.111L-116.156,101.667L-116.088,100.556L-115.951,102.222L-115.882,102.778L-115.814,102.222L-115.745,102.778L-115.609,102.222L-115.472,102.778L-115.403,101.111L-115.335,101.111L-115.266,100L-115.198,100.556L-115.129,100L-115.061,101.667L-114.993,100L-114.924,102.222L-114.856,102.222L-114.719,101.667L-114.65,102.222L-114.513,101.111L-114.445,98.889L-114.377,99.444L-114.308,98.333L-114.24,100L-114.171,101.111L-114.103,100.556L-113.966,97.778L-113.897,95.556L-113.829,96.111L-113.761,98.333L-113.692,99.444L-113.624,100.556L-113.487,99.444L-113.418,98.889L-113.35,99.444L-113.145,98.889L-113.076,99.444L-113.008,98.889L-112.939,100L-112.871,101.111L-112.802,100L-112.734,100.556L-112.597,101.667L-112.529,101.111L-112.46,103.889L-112.392,103.889L-112.323,104.444L-112.255,105L-112.118,104.444L-112.049,105L-111.981,106.667L-111.913,106.667L-111.844,106.111L-111.776,106.111L-111.707,105L-111.639,106.111L-111.57,108.333L-111.502,110.556L-111.433,110.556L-111.365,111.111L-111.296,111.111L-111.228,110.556L-111.16,110.556L-111.091,110L-111.023,110L-110.954,110.556L-110.886,110.556L-110.817,110L-110.749,111.111L-110.68,111.111L-110.612,113.333L-110.544,113.333L-110.475,112.778L-110.407,113.889L-110.338,113.333L-110.27,113.333L-110.201,112.778L-110.133,113.333L-110.064,113.333L-109.996,113.333L-109.859,113.333L-109.791,113.889L-109.722,115.556L-109.654,116.111L-109.585,117.778L-109.517,118.333L-109.448,118.333L-109.38,117.778L-109.312,118.333L-109.243,118.889L-109.175,118.889L-109.106,119.444L-109.038,120.556L-108.901,121.111L-108.696,121.111L-108.627,121.111L-108.559,120.556L-108.49,120.556L-108.422,119.444L-108.353,119.444L-108.285,119.444L-108.216,119.444L-108.011,118.889L-107.943,118.889L-107.806,118.333L-107.737,118.889L-107.6,120L-107.532,118.333L-107.463,118.889L-107.327,119.444L-107.258,120.556L-107.19,120L-107.121,120L-107.053,120L-106.916,121.111L-106.847,120L-106.779,120L-106.642,121.111L-106.574,122.222L-106.505,122.222L-106.3,122.222L-106.231,122.222L-106.163,122.222L-105.958,122.222L-105.889,122.222L-105.821,122.222L-105.752,122.778L-105.615,123.889L-105.41,125L-105.342,125L-105.273,123.889L-105.205,124.444L-105.136,125.556L-105.068,125.556L-104.999,126.111L-104.931,126.111L-104.863,126.111L-104.794,127.222L-104.726,127.222L-104.657,127.222L-104.589,127.222L-104.52,127.778L-104.452,127.778L-104.178,127.222L-104.041,126.667L-103.836,127.778L-103.765,128.333L-103.696,127.778L-103.285,127.778L-103.217,127.778L-103.012,127.778L-102.943,127.778L-102.875,127.778L-102.806,128.333L-102.738,128.333L-102.601,128.333L-102.533,128.333L-102.464,128.333L-102.259,128.333L-102.19,128.333L-101.985,129.444L-101.916,129.444L-101.848,129.444L-101.506,129.444L-101.3,130L-101.095,130L-100.821,130L-100.616,130.556L-100.479,130L-100.411,130L-100.205,129.444L-100.137,128.889L-100.068,127.778L-100,126.667L-99.932,126.667L-99.863,126.111L-99.658,126.111L-99.589,126.667L-99.521,126.667L-99.316,126.667L-99.247,126.111L-99.042,126.111L-98.289,125L-98.22,124.444L-98.084,124.444L-97.878,124.444L-97.81,123.333L-97.741,123.333L-97.604,123.333L-97.262,123.333L-96.988,123.333L-96.715,122.222L-96.509,122.778L-96.441,122.778L-96.372,122.222L-96.304,121.667L-96.235,121.667L-96.167,121.667L-95.893,122.222L-95.414,121.667L-95.346,121.111L-95.209,119.444L-95.143,120.556L-95.075,121.667L-94.938,121.111L-94.869,120.556L-94.801,120L-94.664,119.444L-94.596,117.778L-94.527,116.667L-94.459,116.111L-94.39,116.111L-94.322,116.111L-94.253,116.667L-94.116,116.667L-94.048,116.111L-93.911,116.667L-93.843,115L-93.774,113.889L-93.706,113.333L-93.637,112.778L-93.5,113.333L-93.432,112.778L-93.295,112.778L-93.227,113.333L-93.021,113.333L-92.884,111.111L-92.816,110.556L-92.748,109.444L-92.679,110L-92.611,109.444L-92.542,111.111L-92.474,111.111L-92.268,110.556L-91.926,110L-91.858,110.556L-91.789,111.111L-91.721,111.667L-91.652,112.222L-91.584,112.222L-91.516,111.667L-91.379,111.667L-91.31,112.222L-91.242,111.667L-91.173,108.889L-91.036,109.444L-90.968,108.889L-90.899,110L-90.831,110.556L-90.694,111.111L-90.626,111.111L-90.557,108.333L-90.489,107.778L-90.42,105.556L-90.352,103.889L-90.283,104.444L-90.215,106.667L-90.078,106.111L-90.01,106.667L-89.941,105.556L-89.873,106.667L-89.804,107.222L-89.736,103.889L-89.667,104.444L-89.599,106.111L-89.531,106.111L-89.394,105L-89.325,104.444L-89.257,104.444L-89.188,104.444L-89.12,105.556L-89.051,104.444L-88.983,103.889L-88.915,102.778L-88.846,105L-88.778,103.889L-88.709,104.444L-88.641,103.333L-88.435,103.333L-88.367,102.778L-88.299,103.333L-88.23,106.667L-88.162,107.222L-88.093,108.889L-88.025,108.889L-87.956,107.778L-87.888,107.778L-87.819,108.889L-87.751,108.889L-87.683,109.444L-87.614,107.778L-87.546,107.778L-87.477,111.111L-87.409,111.667L-87.34,111.111L-87.272,111.111L-87.203,110.556L-87.135,108.889L-87.067,109.444L-86.998,110L-86.93,109.444L-86.861,109.444L-86.793,109.444L-86.724,111.111L-86.656,110.556L-86.519,111.111L-86.45,111.667L-86.382,112.778L-86.314,111.111L-86.245,111.111L-86.177,109.444L-86.108,107.222L-86.04,106.111L-85.971,104.444L-85.903,103.889L-85.834,103.889L-85.766,103.333L-85.698,101.667L-85.629,102.222L-85.561,102.222L-85.492,103.889L-85.424,103.333L-85.355,100.556L-85.287,100L-85.218,100L-85.15,100L-85.082,99.444L-85.013,100.556L-84.945,101.111L-84.876,100L-84.808,99.444L-84.739,100L-84.671,100L-84.602,98.889L-84.534,99.444L-84.466,98.333L-84.397,97.778L-84.329,98.333L-84.26,99.444L-84.192,100L-84.123,100.556L-84.055,102.222L-83.986,103.333L-83.918,105L-83.85,106.111L-83.781,107.222L-83.713,107.778L-83.644,109.444L-83.576,106.667L-83.507,105.556L-83.37,106.111L-83.234,106.667L-83.165,108.333L-83.028,109.444L-82.96,110L-82.891,110.556L-82.823,112.778L-82.754,113.889L-82.686,113.889L-82.617,115.556L-82.549,117.222L-82.481,117.222L-82.412,118.333L-82.344,118.889L-82.207,117.778L-82.138,119.444L-82.07,120L-82.001,120L-81.933,121.111L-81.865,121.111L-81.796,122.222L-81.728,122.222L-81.659,122.222L-81.591,122.778L-81.522,123.333L-81.385,122.222L-81.317,122.222L-81.249,122.222L-81.18,125L-80.975,126.667L-80.906,126.111L-80.838,126.111L-80.427,127.222L-80.359,126.667L-80.222,125.556L-80.017,125L-79.948,125L-79.88,125L-79.811,124.444L-79.743,124.444L-79.674,124.444L-79.606,125L-79.537,125L-79.469,125.556L-79.401,126.667L-79.264,126.667L-79.058,126.667L-78.921,126.111L-78.85,126.111L-78.782,126.111L-78.645,125L-78.576,125.556L-78.508,126.111L-78.439,126.111L-78.371,126.667L-78.303,127.778L-78.234,127.778L-78.166,127.778L-78.097,127.778L-77.618,127.778L-77.413,128.333L-77.139,127.778L-76.934,127.778L-76.797,128.333L-76.66,129.444L-76.523,130L-76.318,130L-76.112,130L-75.565,130.556L-75.291,130L-75.222,130L-75.017,130L-74.949,130L-74.743,129.444L-74.606,129.444L-74.401,129.444L-74.196,129.444L-73.99,130L-73.922,130L-73.854,130L-73.648,131.111L-73.374,131.111L-73.101,131.111L-73.032,131.111L-72.895,131.111L-72.69,131.111L-72.621,130.556L-72.485,130.556L-72.005,130.556L-71.869,130L-71.8,130L-71.595,130.556L-71.321,130.556L-71.253,130L-71.184,129.444L-70.773,129.444L-70.705,128.889L-70.294,128.333L-70.229,127.778L-70.16,126.667L-70.023,126.667L-69.955,126.111L-69.681,126.111L-69.613,125L-69.134,125L-68.928,124.444L-68.86,123.333L-68.791,121.667L-68.723,121.667L-68.449,120.556L-68.244,120L-68.175,118.889L-68.038,118.889L-67.902,118.889L-67.833,117.222L-67.765,117.222L-67.696,117.778L-67.628,115.556L-67.559,113.889L-67.491,112.778L-67.422,112.778L-67.217,111.667L-67.149,110.556L-67.012,110.556L-66.943,111.111L-66.875,110.556L-66.738,111.111L-66.67,111.111L-66.601,110.556L-66.533,111.111L-66.396,110L-66.19,110L-66.122,108.889L-65.985,110.556L-65.917,111.111L-65.848,111.667L-65.643,112.222L-65.574,113.889L-65.437,112.778L-65.369,113.889L-65.301,113.889L-65.232,115L-65.027,113.889L-64.958,113.333L-64.89,115L-64.821,113.333L-64.685,110.556L-64.616,112.778L-64.548,114.444L-64.479,115L-64.411,114.444L-64.342,115L-64.274,116.111L-64.137,116.111L-64.069,116.111L-64,116.111L-63.932,116.111L-63.795,115.556L-63.726,116.111L-63.658,117.222L-63.589,117.778L-63.521,116.667L-63.384,117.222L-63.316,116.667L-63.247,116.111L-63.179,115.556L-63.11,116.111L-63.042,115.556L-62.905,116.667L-62.837,116.667L-62.768,116.111L-62.631,115L-62.494,116.111L-62.426,116.111L-62.357,113.889L-62.289,114.444L-62.221,117.222L-62.152,117.222L-62.084,116.667L-61.947,116.111L-61.741,116.667L-61.604,117.222L-61.468,117.222L-61.399,117.222L-61.331,116.667L-61.194,117.222L-60.988,116.667L-60.92,117.778L-60.646,118.333L-60.578,118.333L-60.372,118.333L-60.304,118.889L-60.236,118.333L-60.167,117.778L-60.099,116.667L-60.03,116.667L-59.962,116.667L-59.825,116.111L-59.756,116.111L-59.688,115L-59.551,116.111L-59.483,117.222L-59.414,117.222L-59.277,117.778L-59.209,120L-59.14,120.556L-59.004,120L-58.935,119.444L-58.867,119.444L-58.798,121.111L-58.73,120.556L-58.661,120L-58.593,120L-58.524,119.444L-58.456,118.889L-58.388,118.889L-58.251,119.444L-58.182,119.444L-58.114,118.889L-58.045,118.889L-57.977,119.444L-57.908,120.556L-57.772,120L-57.703,120L-57.635,120.556L-57.566,120.556L-57.498,120L-57.429,120L-57.361,118.889L-57.292,120L-57.224,120L-57.019,118.889L-56.95,117.222L-56.882,117.222L-56.813,117.222L-56.745,116.667L-56.539,117.222L-56.403,117.778L-56.334,117.778L-56.266,117.778L-56.197,117.778L-55.992,118.333L-55.855,118.333L-55.787,119.444L-55.718,120.556L-55.581,118.889L-55.513,117.778L-55.444,117.222L-55.376,117.222L-55.307,117.222L-55.102,117.222L-54.965,116.667L-54.897,118.333L-54.691,119.444L-54.486,119.444L-54.418,120L-54.349,120.556L-54.281,121.667L-54.212,122.778L-54.075,121.667L-54.007,121.667L-53.936,122.222L-53.867,123.889L-53.73,122.778L-53.662,121.667L-53.593,122.778L-53.525,122.778L-53.457,122.222L-53.251,122.778L-53.046,122.778L-52.977,123.333L-52.909,122.778L-52.841,122.778L-52.772,122.778L-52.635,122.778L-52.567,122.778L-52.498,123.333L-52.225,123.889L-52.156,124.444L-51.951,123.889L-51.814,123.889L-51.608,123.889L-51.54,123.889L-51.472,123.889L-51.129,125L-51.061,125L-50.924,124.444L-50.856,124.444L-50.787,124.444L-50.65,125.556L-50.582,125.556L-50.445,125.556L-50.308,125.556L-49.624,126.667L-49.555,127.222L-49.144,126.667L-48.939,126.667L-48.871,127.222L-48.665,126.111L-48.597,125L-48.528,125L-48.323,125L-48.186,125L-47.912,125L-47.775,123.889L-47.639,124.444L-47.57,125L-47.365,125L-47.296,125L-47.159,125.556L-47.091,125L-46.817,124.444L-46.749,123.889L-46.543,122.778L-46.338,122.778L-46.27,122.778L-45.585,121.667L-45.448,121.667L-45.38,121.667L-45.314,121.111L-45.246,120L-45.177,118.889L-44.972,118.889L-44.904,118.889L-44.835,119.444L-44.767,120L-44.63,120L-44.561,119.444L-44.493,120L-44.424,121.111L-44.356,121.111L-44.288,121.111L-44.219,119.444L-43.808,118.889L-43.466,119.444L-43.398,120.556L-43.329,120.556L-43.261,120L-43.192,119.444L-43.124,118.333L-43.056,118.889L-42.987,118.889L-42.919,119.444L-42.713,120.556L-42.508,118.889L-42.44,118.889L-42.303,120.556L-42.166,120.556L-42.097,120.556L-42.029,120L-41.96,120.556L-41.892,120.556L-41.755,119.444L-41.687,117.778L-41.618,117.222L-41.481,117.222L-41.413,116.667L-41.276,116.111L-41.208,115.556L-41.139,113.889L-41.002,112.222L-40.934,111.667L-40.865,112.778L-40.797,112.222L-40.728,112.222L-40.66,112.222L-40.591,110L-40.455,108.333L-40.249,108.889L-40.181,109.444L-40.112,107.222L-40.044,107.222L-39.975,105.556L-39.907,105.556L-39.839,106.111L-39.77,106.111L-39.633,104.444L-39.496,104.444L-39.428,101.111L-39.359,102.222L-39.291,102.222L-39.223,103.889L-39.154,105L-39.017,106.111L-38.949,106.111L-38.88,106.111L-38.812,106.667L-38.743,107.222L-38.675,108.333L-38.607,110L-38.538,111.667L-38.401,110.556L-38.333,110.556L-38.264,111.667L-38.196,111.667L-38.127,110.556L-38.059,112.778L-37.991,112.778L-37.922,111.111L-37.854,111.667L-37.785,113.333L-37.648,114.444L-37.58,114.444L-37.511,112.222L-37.443,112.778L-37.375,111.667L-37.306,110.556L-37.238,110L-37.169,113.333L-37.101,110.556L-37.032,110.556L-36.964,110L-36.895,109.444L-36.758,110L-36.69,110L-36.553,109.444L-36.485,108.333L-36.416,108.889L-36.348,107.778L-36.279,107.778L-36.211,107.778L-36.142,110L-36.074,109.444L-36.006,108.333L-35.937,108.889L-35.732,110L-35.663,110L-35.595,112.222L-35.526,112.222L-35.458,112.222L-35.39,112.222L-35.321,112.222L-35.184,113.333L-35.047,115L-34.979,115.556L-34.91,116.111L-34.842,118.889L-34.774,118.333L-34.705,117.778L-34.637,120.556L-34.568,120L-34.5,120.556L-34.431,120L-34.226,119.444L-34.158,119.444L-34.089,120L-34.021,120L-33.952,120L-33.884,121.111L-33.815,121.111L-33.747,120.556L-33.678,120.556L-33.61,121.667L-33.542,122.222L-33.405,122.222L-33.336,121.111L-33.268,121.111L-33.199,121.111L-33.062,122.778L-32.994,122.778L-32.926,123.333L-32.652,122.778L-32.583,123.333L-32.446,123.889L-32.378,123.889L-32.309,124.444L-32.173,123.333L-32.036,123.889L-31.967,123.333L-31.83,123.333L-31.625,124.444L-31.557,124.444L-31.488,125.556L-31.42,126.111L-31.214,126.667L-31.146,126.667L-31.077,127.778L-31.009,127.222L-30.941,127.222L-30.872,127.222L-30.735,127.222L-30.667,127.222L-30.53,127.222L-30.256,127.778L-30.188,127.778L-30.119,128.889L-30.051,128.889L-29.914,128.333L-29.845,127.778L-29.777,127.778L-29.709,127.778L-29.64,128.333L-29.503,128.333L-29.366,128.333L-29.298,128.333L-28.679,128.333L-28.611,129.444L-28.474,130L-28.337,131.111L-28.268,131.111L-27.995,131.111L-27.926,131.111L-27.789,131.111L-27.721,131.111L-27.584,131.111L-27.515,131.111L-27.447,131.111L-27.379,131.111L-27.105,131.111L-26.968,131.111L-26.899,131.667L-26.489,131.111L-26.215,131.111L-25.873,131.111L-25.736,131.111L-25.257,131.111L-24.983,131.111L-24.435,131.667L-24.367,132.222L-24.298,132.222L-24.23,132.222L-24.162,131.111L-24.025,130.556L-23.751,130.556L-23.546,130.556L-23.477,128.333L-23.135,128.333L-22.93,128.333L-22.724,127.222L-22.04,126.111L-21.561,124.444L-21.492,123.333L-21.218,122.778L-21.15,122.778L-21.081,121.667L-20.808,120L-20.739,120L-20.465,120L-20.263,119.444L-20.195,118.333L-19.852,118.333L-19.51,118.333L-19.442,117.778L-19.305,117.778L-19.168,117.222L-19.031,116.667L-18.894,115.556L-18.826,115.556L-18.552,115.556L-18.141,114.444L-18.073,114.444L-18.004,114.444L-17.936,114.444L-17.73,113.333L-17.662,111.667L-17.594,113.889L-17.457,113.889L-17.388,113.889L-17.32,115L-17.183,116.111L-17.114,117.778L-17.046,118.333L-16.909,118.333L-16.635,118.333L-16.567,119.444L-16.498,121.111L-16.43,120L-16.362,119.444L-16.293,118.889L-16.156,119.444L-16.088,118.889L-15.951,118.889L-15.882,118.889L-15.814,118.889L-15.745,119.444L-15.609,119.444L-15.472,120L-15.403,118.889L-15.198,118.333L-15.129,118.333L-15.061,118.333L-14.993,118.889L-14.856,117.778L-14.787,118.889L-14.719,120L-14.65,120L-14.582,118.889L-14.513,117.222L-14.445,116.667L-14.377,116.111L-14.308,116.111L-14.24,116.667L-14.171,117.222L-14.103,116.667L-14.034,116.667L-13.966,116.111L-13.897,117.222L-13.761,116.667L-13.692,117.778L-13.555,117.778L-13.487,117.222L-13.418,115L-13.35,113.889L-13.281,112.778L-13.213,111.667L-13.145,110.556L-13.076,111.111L-13.008,111.111L-12.939,111.111L-12.871,110L-12.734,110L-12.665,110.556L-12.597,109.444L-12.529,108.889L-12.392,107.778L-12.323,107.778L-12.255,108.333L-12.186,109.444L-12.118,108.889L-12.049,108.333L-11.981,107.222L-11.913,107.222L-11.844,107.222L-11.776,107.222L-11.707,106.111L-11.639,106.111L-11.57,105L-11.502,106.667L-11.433,105L-11.365,105.556L-11.296,106.667L-11.228,109.444L-11.16,110.556L-11.091,111.667L-11.023,112.222L-10.954,111.667L-10.817,111.111L-10.749,110.556L-10.68,109.444L-10.612,111.111L-10.544,109.444L-10.475,107.778L-10.407,110L-10.338,110.556L-10.27,112.222L-10.133,112.222L-10.064,112.778L-9.996,113.333L-9.928,113.889L-9.859,115L-9.791,116.111L-9.722,116.111L-9.654,116.111L-9.585,115.556L-9.448,116.667L-9.38,117.222L-9.312,118.333L-9.175,117.222L-9.038,118.889L-8.969,118.333L-8.901,117.222L-8.832,116.667L-8.764,116.111L-8.696,116.111L-8.627,116.667L-8.353,118.333L-8.285,118.889L-8.216,120.556L-8.148,122.222L-7.943,122.778L-7.874,124.444L-7.806,125.556L-7.669,125L-7.6,125L-7.463,125L-7.395,122.222L-7.327,122.222L-7.258,122.222L-7.19,122.222L-7.121,122.222L-7.053,122.222L-6.984,122.222L-6.916,121.667L-6.847,121.111L-6.505,121.111L-6.3,120L-6.163,119.444L-6.026,120.556L-5.958,120L-5.889,120.556L-5.684,121.667L-5.615,122.222L-5.547,122.222L-5.479,121.667L-5.342,121.111L-5.205,121.111L-4.931,121.111L-4.726,121.111L-4.657,121.111L-4.52,120.556L-4.315,120.556L-4.178,121.111L-4.107,122.222L-4.038,122.222L-3.97,121.667L-3.901,124.444L-3.833,124.444L-3.765,124.444L-3.696,124.444L-3.217,124.444L-3.149,124.444L-3.08,124.444L-3.012,125L-2.875,126.667L-2.806,126.667L-2.738,127.778L-2.601,128.333L-2.533,128.333L-2.396,128.889L-2.19,128.889L-2.122,127.778L-1.985,127.778L-1.643,128.889L-1.437,129.444L-1.3,130L-1.232,130L-1.027,130L-0.753,130L-0.684,130L-0.411,130.556L-0.274,130L0.068,130L0.205,130L0.274,130L0.684,130.556L0.753,130.556L0.89,130.556L0.958,130.556L1.095,130.556L1.164,130.556L1.3,130.556L1.643,129.444L1.985,129.444L2.19,129.444L2.259,129.444L2.327,129.444L2.533,129.444L2.806,128.889L2.943,127.222L3.012,126.667L3.217,126.667L3.491,126.667L3.628,126.667L3.901,123.889L3.97,123.889L4.038,124.444L4.107,124.444L4.175,124.444L4.244,124.444L4.381,122.778L4.586,122.778L4.723,120L4.791,119.444L4.86,118.889L4.928,116.667L4.994,116.667L5.199,116.111L5.404,116.111L5.473,116.111L5.541,116.111L5.61,116.111L5.678,116.667L5.747,116.667L5.815,116.667L5.884,115L5.952,115L6.02,115L6.089,115L6.157,116.111L6.226,116.667L6.363,117.222L6.568,116.667L6.636,116.111L6.705,117.778L6.773,116.111L6.842,115L6.91,115L7.184,113.889L7.252,112.222L7.389,113.333L7.458,113.889L7.526,116.667L7.595,116.111L7.868,115.556L7.937,116.111L8.005,115.556L8.074,116.111L8.142,115L8.279,115.556L8.348,115.556L8.416,115.556L8.484,115L8.553,112.778L8.621,112.222L8.69,112.778L8.758,111.111L8.827,109.444L8.895,108.333L8.964,106.667L9.032,106.111L9.169,106.111L9.237,106.667L9.306,106.111L9.374,106.667L9.443,107.222L9.58,108.333L9.648,107.222L9.717,107.778L9.785,108.333L9.853,108.333L9.922,107.222L9.99,106.111L10.059,106.111L10.127,105L10.196,106.111L10.264,106.667L10.333,105.556L10.401,106.111L10.469,104.444L10.606,103.889L10.675,102.222L10.743,102.778L10.812,104.444L10.88,104.444L10.949,103.333L11.017,102.222L11.085,103.333L11.154,104.444L11.222,104.444L11.291,105L11.359,105L11.428,103.889L11.496,102.778L11.565,103.333L11.633,104.444L11.701,103.889L11.77,103.889L11.838,101.667L11.907,101.111L11.975,101.111L12.112,102.222L12.181,101.667L12.317,102.778L12.386,104.444L12.454,103.889L12.523,102.222L12.591,103.333L12.66,102.222L12.728,102.778L12.797,103.333L12.933,104.444L13.002,103.889L13.07,102.778L13.139,103.333L13.207,104.444L13.276,106.667L13.344,106.667L13.413,107.222L13.481,107.778L13.618,107.222L13.686,107.778L13.755,107.222L13.892,108.889L13.96,108.889L14.029,108.333L14.097,108.333L14.166,108.333L14.234,110.556L14.302,112.222L14.439,111.667L14.508,111.667L14.576,113.333L14.645,112.778L14.782,113.333L14.85,112.222L14.918,112.222L14.987,111.667L15.055,113.333L15.124,113.889L15.192,111.667L15.261,111.667L15.329,112.222L15.398,113.889L15.534,113.889L15.603,113.889L15.671,114.444L15.74,115L15.877,115L15.945,116.111L16.014,116.111L16.082,116.111L16.219,117.222L16.287,117.778L16.356,116.111L16.424,116.111L16.493,116.111L16.63,117.222L16.698,117.778L16.766,117.222L16.835,118.333L16.903,118.333L16.972,118.333L17.04,118.333L17.109,117.778L17.177,119.444L17.246,120.556L17.314,121.111L17.383,121.111L17.451,121.667L17.519,123.889L17.588,124.444L17.656,125L17.725,123.333L17.793,123.333L17.862,124.444L17.999,123.333L18.067,123.333L18.272,123.333L18.341,123.889L18.409,123.889L18.478,123.889L18.546,124.444L18.615,124.444L18.683,125L18.82,125.556L18.888,125.556L18.957,125L19.025,125L19.231,125.556L19.436,125L19.504,125L19.641,123.889L19.71,124.444L19.778,125L19.847,125L19.915,125L19.983,124.444L20.052,123.889L20.257,123.333L20.599,123.333L20.736,122.778L20.805,122.778L20.873,124.444L20.942,124.444L21.079,124.444L21.147,125.556L21.215,125L21.287,123.889L21.355,123.333L21.424,123.333L21.561,122.778L21.697,122.222L21.766,121.667L21.834,122.778L21.903,122.222L22.108,122.778L22.177,123.333L22.245,122.222L22.519,122.222L22.587,122.778L22.793,122.778L23.066,123.889L23.135,123.889L23.272,123.333L23.546,123.889L23.751,124.444L23.819,124.444L24.093,124.444L24.435,125L24.709,125L25.257,125.556L25.325,123.889L25.394,123.333L25.53,123.333L25.599,123.333L25.736,123.333L25.941,123.333L26.078,124.444L26.283,125L26.489,125.556L26.694,126.111L27.036,125L27.105,125.556L27.31,125L27.379,124.444L27.447,124.444L27.652,123.333L27.858,123.889L27.926,123.889L27.995,123.333L28.063,121.111L28.131,121.111L28.405,121.111L28.474,120L28.542,120L28.679,119.444L28.747,120L28.884,120.556L29.021,118.333L29.158,118.333L29.227,118.333L29.295,118.889L29.706,119.444L29.774,118.889L30.045,118.333L30.319,117.222L30.387,116.667L30.456,116.111L30.524,114.444L30.661,114.444L30.73,114.444L30.798,116.111L30.935,115L31.003,115.556L31.072,116.667L31.277,115L31.346,116.111L31.414,116.667L31.482,114.444L31.551,113.889L31.688,115L31.756,113.889L31.825,113.889L31.893,115L31.962,115L32.03,114.444L32.167,113.889L32.304,113.889L32.372,115.556L32.578,113.889L32.714,113.889L32.783,114.444L32.988,113.889L33.057,113.333L33.125,112.778L33.33,113.333L33.399,113.333L33.467,113.333L33.536,113.889L33.604,112.778L33.673,111.667L33.81,110.556L33.878,111.111L33.946,111.111L34.22,111.111L34.289,112.778L34.357,112.778L34.426,112.222L34.494,113.889L34.563,115L34.631,114.444L34.699,115.556L34.836,115L34.973,114.444L35.042,112.778L35.11,111.667L35.179,111.111L35.247,111.111L35.315,110L35.384,110.556L35.452,108.889L35.521,108.333L35.589,108.333L35.726,108.889L35.795,109.444L35.863,107.222L35.931,108.333L36,108.889L36.068,107.778L36.137,108.889L36.205,110L36.274,110.556L36.342,110L36.411,108.889L36.479,107.222L36.547,106.667L36.684,105.556L36.753,105.556L36.821,104.444L36.958,104.444L37.027,105L37.095,102.222L37.163,101.667L37.232,101.111L37.3,102.778L37.369,103.889L37.437,105L37.506,104.444L37.574,105L37.711,104.444L37.779,103.889L37.848,105L37.916,105.556L37.985,105L38.053,105.556L38.122,108.333L38.19,107.222L38.259,107.222L38.327,108.333L38.396,107.778L38.464,107.222L38.532,106.111L38.601,106.111L38.669,106.111L38.738,106.667L38.875,107.222L38.943,108.333L39.012,107.778L39.08,108.889L39.148,107.778L39.217,108.889L39.285,111.667L39.354,111.111L39.422,112.778L39.491,112.778L39.559,113.889L39.628,113.889L39.696,111.667L39.833,110L39.901,111.111L39.97,112.222L40.038,112.222L40.107,111.111L40.175,110.556L40.244,110.556L40.312,110.556L40.38,110.556L40.449,110L40.517,111.111L40.586,110.556L40.654,110L40.791,111.667L40.86,111.111L40.928,112.222L41.065,112.778L41.202,112.222L41.27,111.111L41.339,112.222L41.407,112.778L41.476,113.333L41.544,108.333L41.681,106.667L41.818,107.222L41.886,106.111L41.955,106.111L42.023,105.556L42.092,104.444L42.16,106.667L42.228,109.444L42.297,110L42.434,111.111L42.502,111.111L42.571,111.111L42.639,112.778L42.708,112.778L42.776,112.778L42.845,112.778L42.913,113.333L42.981,112.778L43.187,113.889L43.324,115L43.392,114.444L43.461,115.556L43.529,115.556L43.597,116.111L43.666,116.667L43.734,117.778L43.803,117.778L43.871,117.778L43.94,118.333L44.008,123.333L44.145,125L44.213,126.111L44.35,127.222L44.419,125.556L44.556,125.556L44.624,126.667L44.693,127.222L44.898,126.667L44.966,126.667L45.035,126.667L45.103,126.111L45.24,127.222L45.377,127.222L45.514,127.222L45.582,127.222L45.651,128.333L45.993,127.778L46.27,128.333L46.338,127.222L46.543,127.222L46.612,127.778L46.886,128.333L46.954,128.333L47.091,128.333L47.159,127.778L47.228,127.778L47.502,127.222L47.57,127.222L47.639,127.222L47.775,126.667L47.912,126.667L47.981,126.111L48.049,126.111L48.186,126.667L48.665,127.222L49.076,127.222L49.144,127.222L49.281,127.222L49.487,127.222L49.624,127.222L49.897,127.778L49.966,127.778L50.034,127.778L50.856,127.222L51.061,126.667L51.403,124.444L51.54,125L51.608,125L51.677,126.111L51.745,126.111L51.882,125L52.43,124.444L52.498,124.444L52.635,123.889L52.772,124.444L53.046,124.444L53.114,125L53.457,125L53.525,123.889L53.593,123.889L53.799,123.333L53.867,123.889L53.936,123.889L54.004,124.444L54.073,123.333L54.209,123.333L54.346,122.222L54.415,122.222L54.483,121.667L54.552,121.667L54.62,121.667L54.689,121.111L54.823,120.556L54.96,121.111L55.028,121.111L55.165,122.778L55.302,122.222L55.507,121.667L55.644,119.444L55.712,119.444L55.781,120.556L55.849,121.111L55.986,120.556L56.055,121.111L56.123,120.556L56.192,120L56.26,118.889L56.465,117.778L56.534,118.889L56.739,119.444L56.876,120L56.944,120L57.081,120L57.15,119.444L57.218,118.889L57.287,118.889L57.355,118.333L57.629,116.111L57.766,115.556L57.834,115L57.903,114.444L57.971,113.889L58.108,113.889L58.176,112.778L58.245,112.222L58.313,112.778L58.382,112.222L58.45,111.667L58.519,113.889L58.656,113.889L58.724,113.333L58.792,112.222L58.861,112.778L58.929,112.222L58.998,112.778L59.135,113.333L59.34,113.889L59.409,114.444L59.477,113.889L59.545,113.889L59.614,113.889L59.682,113.333L59.751,112.778L59.819,113.889L59.888,113.889L59.956,113.333L60.025,114.444L60.093,116.667L60.161,117.222L60.23,116.667L60.298,116.667L60.367,114.444L60.641,114.444L60.709,115L60.777,115.556L60.846,115.556L60.914,115.556L60.983,116.667L61.051,116.111L61.12,116.111L61.325,116.667L61.393,117.778L61.462,117.778L61.53,117.222L61.599,116.111L61.667,115L61.736,115.556L61.804,114.444L61.941,113.889L62.078,113.333L62.146,111.667L62.215,110.556L62.283,110.556L62.352,110.556L62.42,112.222L62.489,112.778L62.557,113.333L62.625,113.333L62.694,113.333L62.762,113.889L62.831,114.444L62.899,117.778L62.968,118.333L63.036,118.333L63.242,118.889L63.31,118.889L63.447,120L63.515,118.333L63.584,118.333L63.652,117.222L63.721,116.667L63.789,116.111L63.858,116.111L63.926,116.667L63.994,117.778L64.063,118.889L64.131,117.778L64.2,118.333L64.268,116.111L64.405,116.667L64.474,117.222L64.542,117.222L64.61,117.222L64.747,115.556L64.816,115.556L64.953,115.556L65.09,115.556L65.226,115.556L65.295,116.111L65.363,116.667L65.432,116.111L65.5,116.111L65.569,115.556L65.637,116.111L65.706,115L65.774,114.444L65.979,112.778L66.048,113.889L66.116,114.444L66.185,115.556L66.253,116.111L66.322,116.667L66.39,115.556L66.458,115L66.527,115L66.595,112.778L66.664,112.222L66.732,112.778L66.801,115L66.869,115L66.938,116.111L67.006,117.778L67.074,117.778L67.143,119.444L67.211,119.444L67.348,118.889L67.417,118.889L67.485,119.444L67.554,119.444L67.622,119.444L67.691,120L67.759,119.444L67.827,120L67.896,118.889L67.964,120L68.033,118.889L68.101,120L68.238,120.556L68.375,120.556L68.512,120.556L68.649,120L68.717,120L68.786,121.111L68.991,121.667L69.128,121.111L69.196,123.333L69.265,124.444L69.333,125L69.402,125.556L69.47,125.556L69.539,125.556L69.744,125.556L69.812,126.111L69.881,125L69.949,123.889L70.018,124.444L70.086,123.889L70.155,123.889L70.223,123.333L70.428,122.222L70.565,122.222L70.634,122.778L70.702,121.667L70.771,122.778L70.839,122.222L70.976,123.889L71.116,124.444L71.184,124.444L71.253,124.444L71.321,123.889L71.389,123.889L71.458,123.889L71.595,123.889L71.663,123.889L71.732,124.444L71.869,124.444L72.142,125L72.211,125L72.485,125L72.553,125L72.621,125L72.69,125L72.827,125L72.895,125.556L73.374,126.111L73.443,126.111L73.511,126.111L73.58,125.556L73.717,126.111L73.785,127.222L73.922,127.222L73.99,127.222L74.059,127.778L74.127,127.778L74.196,128.333L74.47,127.778L74.675,127.778L75.017,127.222L75.154,127.222L75.428,126.667L75.565,127.222L75.633,126.111L75.702,126.111L75.77,126.667L76.112,126.667L76.454,125.556L76.66,125L76.797,124.444L76.865,124.444L77.002,123.333L77.207,123.333L77.344,122.778L77.481,121.667L77.55,122.222L77.618,122.778L77.823,122.778L78.029,122.778L78.166,123.333L78.371,122.778L78.439,121.667L78.508,120L78.576,120L78.713,120.556L78.85,120.556L79.055,120.556L79.124,121.111L79.805,120L79.874,120L79.942,119.444L80.148,119.444L80.285,119.444L80.353,120.556L80.422,120.556L80.558,119.444L80.695,119.444L80.764,118.889L80.832,118.889L80.901,118.889L81.038,119.444L81.174,120.556L81.243,120.556L81.311,120.556L81.38,121.667L81.448,120L81.517,120L81.585,120L81.654,118.889L81.79,117.778L81.996,117.778L82.201,118.889L82.27,120.556L82.338,118.889L82.475,118.889L82.612,118.889L82.68,116.667L82.749,116.111L82.886,116.667L82.954,116.111L83.022,116.667L83.091,116.667L83.159,116.111L83.365,115.556L83.57,115L83.638,115.556L83.707,115.556L83.775,117.222L83.844,117.778L83.981,117.778L84.049,117.778L84.118,117.222L84.255,116.667L84.323,117.222L84.391,115.556L84.46,116.667L84.597,115L84.665,113.333L84.734,113.889L84.802,113.333L84.871,112.778L84.939,111.667L85.144,111.111L85.213,111.667L85.35,110.556L85.487,108.333L85.555,110.556L85.623,110L85.692,110L85.829,110.556L85.897,109.444L85.966,108.333L86.034,108.333L86.171,106.667L86.239,104.444L86.308,105L86.376,105L86.445,105L86.513,103.333L86.582,101.667L86.65,101.667L86.719,102.222L86.787,102.222L86.855,102.222L86.992,103.333L87.061,102.222L87.129,101.111L87.198,101.667L87.335,102.222L87.403,102.222L87.471,102.778L87.54,102.778L87.608,101.111L87.677,100L87.745,98.889L87.814,99.444L87.882,99.444L87.951,99.444L88.019,99.444L88.087,99.444L88.156,99.444L88.224,101.111L88.293,99.444L88.361,100L88.43,100.556L88.498,98.333L88.567,97.222L88.635,95.556L88.704,96.111L88.772,96.667L88.84,95.556L88.909,95.556L88.977,95L89.046,93.333L89.114,92.222L89.183,93.333L89.251,95L89.32,95L89.388,94.444L89.456,93.889L89.525,94.444L89.593,95L89.662,97.222L89.73,97.778L89.799,98.333L89.867,99.444L89.936,97.222L90.004,96.111L90.072,95.556L90.141,96.111L90.209,94.444L90.278,92.778L90.346,93.889L90.415,93.889L90.483,92.778L90.552,95L90.688,94.444L90.757,94.444L90.825,93.333L90.894,93.333L90.962,91.667L91.099,90L91.168,88.889L91.236,90L91.304,90.556L91.373,90L91.441,90L91.51,90.556L91.578,90.556L91.647,90.556L91.715,90.556L91.784,87.222L91.852,87.222L91.92,87.778L91.989,89.444L92.057,90L92.126,91.111L92.263,92.222L92.331,93.333L92.4,93.333L92.537,96.111L92.605,97.778L92.673,98.889L92.742,100L92.81,103.333L92.879,103.333L92.947,103.889L93.016,105.556L93.084,107.222L93.153,108.333L93.221,110.556L93.358,112.222L93.426,113.333L93.495,111.667L93.563,111.667L93.632,112.778L93.769,113.889L93.837,113.333L93.974,114.444L94.042,116.667L94.111,116.667L94.179,120.556L94.248,120L94.316,120.556L94.385,120L94.453,120L94.521,121.111L94.59,121.667L94.658,121.667L94.864,120.556L95.001,120.556L95.137,120.556L95.206,120.556L95.274,120.556L95.343,120.556L95.411,120.556L95.48,121.111L95.617,120.556L95.685,121.111L95.822,121.111L95.89,121.667L95.959,121.667L96.099,122.778L96.167,123.889L96.304,124.444L96.441,123.333L96.509,122.222L96.578,123.333L96.715,122.778L96.851,122.778L96.92,121.667L96.988,121.667L97.057,121.111L97.194,121.111L97.331,121.111L97.467,119.444L97.604,118.333L98.015,118.333L98.084,118.333L98.426,119.444L98.563,118.889L98.631,119.444L98.768,119.444L99.042,120L99.11,119.444L99.179,117.778L99.658,117.778L99.726,117.778L100.068,117.222L100.205,117.222L100.274,117.222L100.616,116.667L100.684,115L100.753,115L100.958,115L101.232,116.111L101.437,117.222L101.506,117.222L101.574,117.222L101.711,116.667L101.848,117.778L101.916,117.222L101.985,117.778L102.327,117.778L102.396,118.333L102.464,118.889L102.533,118.889L102.738,119.444L102.806,117.222L103.08,116.111L103.217,116.111L103.285,114.444L103.422,114.444L103.559,113.333L103.628,113.333L103.696,115L103.765,113.889L103.833,112.778L103.901,112.778L103.97,109.444L104.038,102.222L104.107,101.111L104.175,98.333L104.244,97.778L104.312,98.333L104.381,97.222L104.517,95L104.586,93.889L104.72,94.444L104.788,94.444L104.857,93.333L104.925,93.333L105.062,92.778L105.131,93.333L105.336,92.222L105.404,93.333L105.473,93.889L105.541,93.889L105.678,95L105.747,96.111L105.815,96.111L105.884,97.222L105.952,97.222L106.02,96.667L106.157,95.556L106.226,93.889L106.294,95.556L106.363,97.222L106.431,93.889L106.5,97.778L106.568,105L106.636,105.556L106.705,110L106.773,111.111L106.842,110.556L106.91,110.556L106.979,111.667L107.047,109.444L107.116,108.333L107.184,108.333L107.252,107.778L107.321,107.222L107.389,108.333L107.458,107.222L107.526,106.667L107.663,104.444L107.732,104.444L107.868,102.222L107.937,103.333L108.005,102.778L108.074,103.333L108.211,101.111L108.348,98.333L108.416,99.444L108.484,98.333L108.553,98.333L108.621,96.667L108.69,96.111L108.758,96.667L108.827,93.889L108.895,91.667L108.964,88.889L109.032,86.667L109.101,84.444L109.237,82.222L109.306,81.667L109.374,78.333L109.443,73.333L109.511,71.667L109.58,70L109.648,65.556L109.717,61.667L109.785,59.444L109.853,51.667L109.922,40L109.99,40L110.059,37.778L110.127,37.778L110.196,35.556L110.264,34.444L110.333,31.667L110.401,32.222L110.469,35L110.538,34.444L110.606,35.556L110.675,33.889L110.743,35L110.812,33.333L110.88,35L110.949,36.111L111.017,37.778L111.085,41.111L111.154,42.222L111.222,40.556L111.291,41.111L111.359,40.556L111.428,44.444L111.496,51.667L111.565,52.778L111.633,52.222L111.701,55L111.77,56.667L111.838,56.111L111.907,64.444L111.975,77.778L112.044,77.778L112.112,77.778L112.181,75L112.249,77.222L112.317,77.778L112.386,76.667L112.454,77.222L112.523,74.444L112.591,73.889L112.66,74.444L112.728,76.111L112.797,75L112.865,75L112.933,73.333L113.002,74.444L113.07,73.889L113.139,71.667L113.207,70.556L113.276,73.889L113.344,74.444L113.413,75L113.481,75.556L113.55,73.889L113.618,73.889L113.686,75L113.755,76.667L113.823,78.889L113.892,80.556L113.96,79.444L114.029,78.889L114.097,79.444L114.166,81.111L114.302,83.889L114.371,82.222L114.439,81.111L114.508,82.222L114.576,82.778L114.645,84.444L114.713,86.111L114.782,87.222L114.85,88.333L114.918,87.778L115.055,88.889L115.124,90L115.192,89.444L115.261,90.556L115.329,93.333L115.398,95L115.466,95.556L115.534,97.222L115.603,98.889L115.671,98.333L115.74,100.556L115.808,101.667L115.877,102.778L115.945,104.444L116.014,103.889L116.082,100L116.15,101.667L116.219,102.222L116.287,100L116.356,98.889L116.424,100L116.493,101.111L116.561,98.333L116.63,100.556L116.698,101.667L116.766,99.444L116.835,98.333L116.903,95L116.972,95.556L117.04,97.222L117.109,97.222L117.177,99.444L117.246,99.444L117.314,96.111L117.383,96.111L117.451,96.111L117.519,94.444L117.588,87.778L117.656,85L117.725,81.667L117.862,80.556L118.067,80L118.204,80L118.272,80L118.341,81.111L118.409,83.889L118.478,83.889L118.546,83.889L118.615,86.111L118.683,87.778L118.751,86.667L118.82,86.111L118.957,88.333L119.025,88.889L119.094,87.222L119.162,88.333L119.231,89.444L119.367,92.778L119.436,92.778L119.573,92.222L119.641,92.222L119.71,91.667L119.778,92.222L119.847,93.889L119.915,91.667L119.983,91.667L120.052,93.333L120.12,100L120.189,102.222L120.257,105.556L120.326,107.222L120.463,108.333L120.531,108.889L120.599,108.889L120.736,109.444L120.805,111.667L120.873,111.667L120.945,111.667L121.081,113.333L121.15,113.889L121.218,116.111L121.287,117.222L121.355,120L121.424,119.444L121.492,120.556L121.561,122.222L121.629,121.111L121.697,121.111L121.903,118.333L121.971,119.444L122.108,118.889L122.177,117.778L122.245,118.333L122.313,120L122.382,120.556L122.45,120.556L122.656,121.111L122.724,121.111L122.793,120.556L122.861,121.111L122.998,121.111L123.066,121.111L123.135,120.556L123.203,120.556L123.272,120.556L123.614,118.889L123.682,116.667L123.751,116.667L123.819,116.667L123.956,115.556L124.025,115L124.093,114.444L124.23,112.778L124.298,113.333L124.435,113.333L124.504,113.889L124.572,115L124.641,115L124.709,117.778L124.778,117.222L124.846,118.889L124.914,120.556L125.257,120.556L125.325,120.556L125.394,122.222L125.462,122.778L125.53,122.222L125.599,122.222L125.736,122.778L125.804,122.778L125.873,121.667L125.941,121.111L126.01,121.111L126.078,120.556L126.146,120L126.215,120.556L126.283,120.556L126.352,119.444L126.42,116.667L126.489,117.222L126.557,117.222L126.694,117.222L126.831,117.778L127.036,116.667L127.105,117.222L127.242,116.111L127.515,115L127.652,113.333L127.721,112.778L127.858,113.333L128.063,111.111L128.131,108.889L128.268,107.222L128.337,106.667L128.474,105L128.816,103.889L128.884,103.889L128.953,103.889L129.021,104.444L129.227,103.889L129.295,105L129.363,103.333L129.432,97.778L129.5,98.333L129.569,98.333L129.637,96.667L129.706,98.889L129.774,100L129.843,101.111L129.911,100L129.979,100.556L130.114,100L130.182,98.333L130.25,98.333L130.387,96.667L130.456,95L130.593,93.333L130.661,94.444L130.73,95L130.798,95L130.866,97.222L130.935,98.889L131.003,97.778L131.072,97.222L131.14,98.333L131.209,97.222L131.277,96.111L131.346,95L131.414,95L131.482,95.556L131.551,95.556L131.619,96.667L131.688,102.222L131.756,102.222L131.825,102.222L131.893,104.444L131.962,104.444L132.03,103.889L132.098,103.889L132.167,105.556L132.235,104.444L132.304,102.778L132.372,102.778L132.441,101.667L132.509,100.556L132.578,101.667L132.646,99.444L132.714,97.222L132.783,95.556L132.851,95.556L132.92,94.444L132.988,90.556L133.057,93.333L133.125,94.444L133.194,95L133.262,93.333L133.33,95L133.399,93.889L133.467,91.667L133.536,90L133.604,88.889L133.673,88.333L133.81,88.333L133.878,86.111L133.946,85L134.015,83.333L134.083,81.111L134.152,78.889L134.22,80L134.289,78.333L134.357,78.889L134.426,77.222L134.494,78.333L134.563,80L134.631,81.111L134.699,81.667L134.768,82.778L134.836,85.556L134.905,86.111L134.973,85L135.042,83.889L135.11,87.778L135.179,86.111L135.247,85.556L135.315,84.444L135.384,85.556L135.452,84.444L135.521,85.556L135.589,87.222L135.658,87.778L135.726,88.889L135.795,87.222L135.863,87.778L135.931,90L136,90.556L136.068,90.556L136.137,91.111L136.205,92.778L136.274,91.111L136.342,92.222L136.411,92.222L136.479,96.111L136.547,97.778L136.616,96.667L136.684,93.889L136.753,90.556L136.821,92.222L136.89,91.667L136.958,91.111L137.027,89.444L137.095,90L137.163,89.444L137.232,88.333L137.3,87.222L137.369,86.667L137.437,89.444L137.574,88.333L137.643,87.222L137.711,86.667L137.779,87.222L137.848,86.111L137.916,88.333L137.985,88.333L138.053,88.333L138.122,89.444L138.19,91.111L138.259,89.444L138.327,88.333L138.396,89.444L138.464,90L138.601,86.111L138.669,83.889L138.738,76.667L138.806,75L138.875,78.889L138.943,83.333L139.012,85L139.08,82.222L139.148,82.222L139.217,83.889L139.285,84.444L139.354,85.556L139.422,88.333L139.491,89.444L139.559,91.111L139.628,91.111L139.696,72.778L139.764,70.556L139.833,68.333L139.901,68.333L139.97,68.889L140.038,68.889L140.107,68.333L140.175,66.667L140.244,64.444L140.312,65L140.38,68.333L140.517,68.889L140.586,69.444L140.654,61.111L140.723,65L140.791,66.667L140.86,72.778L140.928,75L140.996,73.333L141.065,73.333L141.133,73.889L141.202,76.111L141.27,75.556L141.339,73.889L141.407,75L141.476,74.444L141.544,69.444L141.612,70L141.681,69.444L141.749,68.889L141.818,87.222L141.886,91.667L141.955,90.556L142.023,87.778L142.092,85.556L142.16,86.667L142.228,86.111L142.297,87.222L142.365,89.444L142.434,85.556L142.502,85L142.571,86.111L142.639,86.667L142.708,93.889L142.776,93.333L142.845,94.444L142.913,91.667L142.981,88.889L143.05,90L143.118,88.333L143.187,87.778L143.255,87.778L143.324,89.444L143.392,91.667L143.461,91.111L143.597,91.667L143.734,96.667L143.803,93.889L143.871,94.444L143.94,95L144.008,97.222L144.077,97.222L144.145,101.111L144.213,102.222L144.282,102.778L144.35,101.111L144.419,100.556L144.487,99.444L144.556,98.333L144.624,100.556L144.693,100.556L144.761,99.444L144.829,99.444L144.898,100L144.966,100L145.035,99.444L145.103,102.778L145.172,105L145.24,105.556L145.309,106.667L145.377,106.667L145.445,107.778L145.514,106.667L145.582,107.222L145.719,107.778L145.788,106.667L145.856,106.667L145.993,109.444L146.061,108.889L146.13,108.889L146.198,108.333L146.267,107.778L146.338,108.333L146.407,110.556L146.475,112.778L146.543,114.444L146.68,116.111L146.749,117.778L146.817,118.333L146.886,120L146.954,119.444L147.023,120.556L147.091,118.889L147.159,118.889L147.296,119.444L147.365,120L147.502,120.556L147.57,121.667L147.639,122.222L147.844,122.222L147.981,122.222L148.049,121.667L148.118,123.333L148.255,123.333L148.323,122.778L148.46,123.889L148.528,122.778L148.734,122.222L148.871,122.222L148.939,121.667L149.076,121.667L149.281,118.333L149.35,117.778L149.418,117.778L149.487,115L149.76,115L149.897,113.889L149.966,113.333L150.034,112.222L150.24,111.111L150.308,112.222L150.445,111.667L150.787,113.333L151.403,112.778L151.472,112.222L151.54,112.222L151.608,112.222L151.745,112.778L151.814,112.778L152.088,113.333L152.156,113.333L152.361,112.222L152.43,98.333L152.498,98.333L152.567,96.667L152.704,92.222L152.772,90.556L152.841,87.778L153.114,87.222L153.251,87.222L153.32,86.667L153.388,89.444L153.593,88.889L153.662,88.333L153.73,90L153.799,88.333L153.936,89.444L154.073,90L154.141,90.556L154.209,90.556L154.278,90.556L154.346,91.111L154.415,90.556L154.483,90.556L154.552,91.667L154.689,80L154.757,79.444L154.825,78.889L154.894,78.333L154.96,75.556L155.028,75.556L155.096,76.111L155.165,90L155.233,89.444L155.302,90L155.37,92.778L155.439,95L155.507,95L155.576,95L155.644,94.444L155.712,95.556L155.781,95.556L155.849,95L155.918,94.444L156.123,92.778L156.192,91.111L156.26,87.778L156.397,86.667L156.465,87.778L156.534,85.556L156.671,85.556L156.739,83.889L156.808,84.444L156.876,82.778L156.944,81.667L157.013,91.667L157.081,90L157.15,89.444L157.218,87.778L157.287,88.333L157.355,87.222L157.424,84.444L157.492,79.444L157.56,75.556L157.629,76.111L157.697,74.444L157.766,73.889L157.834,75.556L157.903,74.444L157.971,75L158.04,75L158.176,73.333L158.245,72.778L158.382,72.222L158.45,75L158.519,77.222L158.587,80L158.656,76.111L158.724,72.778L158.792,75.556L158.861,73.889L158.929,76.111L158.998,73.889L159.066,72.778L159.135,72.222L159.203,70.556L159.272,70.556L159.34,69.444L159.409,70.556L159.477,71.111L159.545,71.111L159.614,71.111L159.682,74.444L159.751,78.889L159.819,80L159.888,81.111L159.956,80L160.025,76.111L160.093,75.556L160.161,75L160.23,69.444L160.298,70L160.367,72.222L160.435,71.667L160.504,68.333L160.572,67.222L160.641,66.667L160.709,67.778L160.777,67.778L160.846,65.556L160.914,66.667L160.983,65L161.051,66.111L161.12,67.778L161.188,66.111L161.257,67.222L161.325,67.778L161.393,69.444L161.462,70.556L161.53,70.556L161.599,68.889L161.667,72.778L161.736,69.444L161.804,69.444L161.873,69.444L161.941,71.111L162.009,71.111L162.078,73.333L162.146,75L162.215,75L162.283,78.889L162.352,80.556L162.42,77.778L162.489,77.778L162.557,78.889L162.625,78.333L162.762,75L162.831,78.889L162.899,79.444L162.968,80L163.036,78.889L163.105,80L163.173,81.111L163.242,79.444L163.31,78.333L163.378,78.333L163.447,78.889L163.515,75.556L163.584,73.889L163.652,75.556L163.721,77.778L163.789,75L163.858,76.111L163.926,73.889L163.994,71.667L164.063,70L164.131,71.667L164.2,72.222L164.268,71.111L164.337,70L164.405,70L164.474,67.222L164.542,67.778L164.61,66.667L164.679,68.333L164.747,65L164.816,65.556L164.884,61.111L164.953,61.111L165.021,63.333L165.09,63.333L165.158,55.556L165.226,54.444L165.295,53.889L165.363,57.778L165.432,57.222L165.5,57.778L165.569,60.556L165.637,60.556L165.706,58.889L165.774,59.444L165.842,62.222L165.911,61.111L165.979,60L166.048,58.889L166.116,61.111L166.185,61.111L166.253,59.444L166.322,59.444L166.39,61.667L166.458,62.778L166.527,65.556L166.595,65L166.664,67.778L166.732,67.222L166.801,72.778L166.869,75.556L166.938,79.444L167.006,80.556L167.074,79.444L167.143,79.444L167.211,87.222L167.28,88.333L167.348,91.667L167.417,91.111L167.485,93.889L167.554,92.222L167.622,80L167.691,81.111L167.759,81.667L167.827,81.111L167.896,80L167.964,83.333L168.033,85.556L168.101,88.333L168.17,87.778L168.238,87.222L168.307,78.889L168.375,80L168.443,78.889L168.512,78.889L168.58,78.889L168.649,79.444L168.717,76.667L168.854,69.444L168.923,70L168.991,71.111L169.059,69.444L169.128,70.556L169.196,71.111L169.265,71.111L169.333,70.556L169.402,66.667L169.47,66.111L169.539,66.111L169.607,66.111L169.675,66.111L169.744,79.444L169.812,80L169.881,80.556L169.949,81.111L170.086,82.222L170.155,82.778L170.223,83.889L170.291,83.889L170.36,83.889L170.428,84.444L170.497,96.111L170.565,96.667L170.634,97.222L170.702,97.222L170.771,97.778L170.839,99.444L170.907,102.222L170.976,109.444L171.044,108.889L171.113,108.889L171.181,111.111L171.253,109.444L171.321,109.444L171.389,109.444L171.458,110L171.595,113.889L171.663,115.556L171.732,116.111L171.8,115L171.937,117.222L172.005,117.222L172.074,116.667L172.142,117.222L172.211,107.778L172.279,97.778L172.348,93.333L172.485,93.333L172.621,93.333L172.69,93.889L172.758,92.778L172.827,92.778L172.895,93.333L173.032,93.333L173.101,93.889L173.169,93.889L173.238,93.333L173.374,93.889L173.511,93.889L173.648,93.889L173.717,92.778L173.854,92.222L173.922,94.444L173.99,95L174.059,96.111L174.127,95L174.196,94.444L174.264,94.444L174.333,93.333L174.675,93.889L174.743,93.889L174.812,93.889L174.88,94.444L175.086,93.889L175.154,101.111L175.222,100L175.291,105.556L175.428,102.222L175.496,101.667L175.565,101.111L175.633,100.556L175.77,101.111L175.838,101.111L175.907,90.556L175.975,90.556L176.044,89.444L176.112,90L176.181,89.444L176.249,90.556L176.318,91.111L176.386,90.556L176.454,91.111L176.523,90.556L176.591,90L176.66,88.889L176.728,90.556L176.797,90L176.934,90L177.002,91.111L177.07,91.111L177.207,87.778L177.276,86.667L177.413,86.111L177.481,85.556L177.55,87.778L177.618,96.667L177.687,96.111L177.755,99.444L177.823,98.889L177.96,97.778L178.029,95L178.097,93.889L178.166,93.889L178.234,103.889L178.303,103.889L178.371,102.778L178.439,103.333L178.508,101.667L178.576,101.667L178.645,100L178.713,100.556L178.782,97.778L178.85,96.111L178.919,95.556L178.987,96.111L179.124,94.444L179.192,93.889L179.261,93.889L179.329,93.333L179.398,93.333L179.535,96.667L179.603,95L179.671,93.889L179.74,93.889L179.808,91.667L179.874,84.444L179.942,80.556L180.011,77.222L180.079,77.222L180.148,78.333L180.216,82.778L180.285,82.778L180.353,80.556L180.422,81.111L180.49,80.556L180.558,82.222L180.627,80L180.695,81.111L180.764,79.444L180.832,81.111L180.969,81.667L181.038,83.889L181.106,86.111L181.174,85L181.311,85L181.38,86.111L181.448,87.222L181.517,84.444L181.585,82.222L181.654,78.889L181.722,77.222L181.79,78.333L181.859,78.333L181.927,78.889L181.996,78.333L182.064,83.889L182.133,83.889L182.201,82.222L182.27,80.556L182.338,77.222L182.406,76.111L182.475,74.444L182.543,76.667L182.612,73.333L182.68,71.111L182.749,67.778L182.817,69.444L182.886,67.222L182.954,66.667L183.022,64.444L183.091,64.444L183.159,61.667L183.228,58.889L183.296,60L183.365,58.889L183.433,58.333L183.502,55L183.57,56.111L183.638,57.222L183.707,60.556L183.775,61.111L183.844,61.667L183.912,61.667L183.981,59.444L184.049,61.111L184.118,63.889L184.186,65.556L184.255,66.667L184.323,67.778L184.391,69.444L184.46,69.444L184.528,72.222L184.597,70.556L184.665,74.444L184.734,76.111L184.802,78.889L184.871,78.889L184.939,78.889L185.007,78.333L185.076,77.222L185.144,69.444L185.213,71.111L185.281,72.222L185.35,69.444L185.418,70L185.555,67.778L185.623,66.111L185.692,66.667L185.76,67.222L185.829,65L185.897,60.556L185.966,59.444L186.034,57.778L186.103,54.444L186.171,53.889L186.239,51.667L186.308,52.222L186.376,53.333L186.445,53.889L186.513,49.444L186.582,48.889L186.65,45L186.719,43.889L186.787,42.222L186.855,36.111L186.924,32.778L186.992,28.333L187.061,31.111L187.129,27.222L187.198,27.222L187.266,30L187.335,25.556L187.403,23.333L187.471,22.778L187.54,18.889L187.608,17.222L187.677,20.556L187.745,14.444L187.814,11.667L187.882,12.222L187.951,16.667L188.019,14.444L188.087,14.444L188.156,16.667L188.224,14.444L188.293,12.222L188.361,12.778L188.43,12.778L188.498,12.778L188.567,14.444L188.635,15L188.704,16.667L188.772,15L188.84,16.667L188.909,22.222L188.977,23.889L189.046,27.222L189.114,26.111L189.183,32.222L189.251,33.889L189.32,37.222L189.388,42.222L189.456,46.111L189.525,47.222L189.593,50.556L189.662,54.444L189.73,54.444L189.799,58.333L189.867,58.889L189.936,56.667L190.004,56.667L190.072,58.889L190.141,62.222L190.209,65L190.278,68.889L190.346,73.333L190.415,70.556L190.483,70.556L190.552,67.222L190.62,70.556L190.688,68.333L190.757,68.889L190.825,71.667L190.894,66.667L190.962,64.444L191.031,65L191.099,64.444L191.168,65.556L191.236,63.889L191.304,65L191.373,66.667L191.441,67.778L191.51,67.778L191.578,69.444L191.647,70.556L191.715,68.889L191.784,67.778L191.852,68.889L191.92,70L191.989,73.333L192.057,73.333L192.126,74.444L192.194,73.333L192.263,71.111L192.331,71.111L192.4,71.667L192.468,75L192.537,77.778L192.605,78.333L192.673,77.778L192.742,80.556L192.81,79.444L192.879,80.556L192.947,83.889L193.016,86.667L193.084,85L193.221,87.222L193.289,83.333L193.426,83.333L193.495,82.222L193.563,81.111L193.632,78.889L193.7,78.333L193.769,79.444L193.837,78.333L193.905,79.444L193.974,82.222L194.042,82.778L194.111,85.556L194.179,85L194.248,83.889L194.316,84.444L194.385,84.444L194.453,86.111L194.521,83.889L194.59,83.889L194.658,84.444L194.727,83.333L194.795,86.111L194.864,87.222L194.932,87.222L195.001,89.444L195.069,86.667L195.137,88.333L195.206,88.889L195.274,91.667L195.343,91.667L195.411,96.111L195.48,97.778L195.548,98.333L195.617,99.444L195.685,101.667L195.753,101.667L195.822,102.222L195.89,103.333L195.959,103.889L196.027,104.444L196.096,105L196.167,104.444L196.235,106.111L196.304,106.111L196.372,106.111L196.441,106.111L196.509,106.111L196.578,107.222L196.646,107.778L196.715,108.333L196.783,109.444L196.851,108.889L196.92,110L196.988,110L197.057,110L197.125,112.222L197.262,112.222L197.331,111.667L197.399,112.778L197.467,112.778L197.536,112.778L197.604,112.778L197.673,113.889L197.741,113.889L197.947,113.889L198.084,111.667L198.152,110L198.22,110.556L198.289,110.556L198.426,110.556L198.494,111.667L198.563,111.667L198.631,111.667L198.7,113.333L198.768,113.889L198.836,113.889L198.905,115.556L198.973,116.111L199.042,115L199.11,114.444L199.179,114.444L199.247,116.111L199.316,115.556L199.384,116.111L199.521,116.667L199.589,117.222L199.795,117.222L199.863,114.444L199.932,114.444L200,113.333L200.068,113.333L200.137,112.222L200.205,111.111L200.274,110.556L200.342,110L200.411,111.111L200.479,112.222L200.548,112.778L200.616,113.333L200.684,113.333L200.753,112.778L200.821,111.667L200.89,110.556L201.027,108.333L201.095,108.333L201.164,105.556" stroke="#4c78a8" stroke-width="2"/></g><g class="mark-group role-title"><g transform="translate(100,-17)"><path class="background" aria-hidden="true" d="M0,0h0v0h0Z" pointer-events="none"/><g><g class="mark-text role-title-text" role="graphics-symbol" aria-roledescription="title" aria-label="Title text 'Maintenance or Facility: Unsecured Facility'" pointer-events="none"><text text-anchor="middle" transform="translate(0,10)" font-family="sans-serif" font-size="13px" font-weight="bold" fill="#000" opacity="1">Maintenance or Facility: Unsecured Facility</text></g></g><path class="foreground" aria-hidden="true" d="" pointer-events="none" display="none"/></g></g></g><path class="foreground" aria-hidden="true" d="" display="none"/></g></g></g><defs><clipPath id="clip118"><rect x="0" y="0" width="200" height="150"/></clipPath></defs></svg>