<svg xmlns="http://www.w3.org/2000/svg" xmlns:xlink="http://www.w3.org/1999/xlink" version="1.1" class="marks" width="230" height="194" viewBox="0 0 230 194"><rect width="230" height="194" fill="white"/><g fill="none" stroke-miterlimit="10" transform="translate(24,22)"><g class="mark-group role-frame root" role="graphics-object" aria-roledescription="group mark container"><g transform="translate(0,0)"><path class="background" aria-hidden="true" d="M0,0h200v150h-200Z"/><g><g class="mark-group role-axis" aria-hidden="true"><g transform="translate(0.5,0.5)"><path class="background" aria-hidden="true" d="M0,0h0v0h0Z" pointer-events="none"/><g><g class="mark-rule role-axis-grid" pointer-events="none"><line transform="translate(0,150)" x2="200" y2="0" stroke="#ddd" stroke-width="1" opacity="1"/><line transform="translate(0,103)" x2="200" y2="0" stroke="#ddd" stroke-width="1" opacity="1"/><line transform="translate(0,56)" x2="200" y2="0" stroke="#ddd" stroke-width="1" opacity="1"/><line transform="translate(0,9)" x2="200" y2="0" stroke="#ddd" stroke-width="1" opacity="1"/></g></g><path class="foreground" aria-hidden="true" d="" pointer-events="none" display="none"/></g></g><g class="mark-group role-axis" role="graphics-symbol" aria-roledescription="axis" aria-label="X-axis for a time scale with values from Friday, 01 January 2016, 12:00:00 AM to Monday, 01 January 2024, 12:00:00 AM"><g transform="translate(0.5,150.5)"><path class="background" aria-hidden="true" d="M0,0h0v0h0Z" pointer-events="none"/><g><g class="mark-rule role-axis-tick" pointer-events="none"><line transform="translate(0,0)" x2="0" y2="5" stroke="#888" stroke-width="1" opacity="1"/><line transform="translate(50,0)" x2="0" y2="5" stroke="#888" stroke-width="1" opacity="1"/><line transform="translate(100,0)" x2="0" y2="5" stroke="#888" stroke-width="1" opacity="1"/><line transform="translate(150,0)" x2="0" y2="5" stroke="#888" stroke-width="1" opacity="1"/><line transform="translate(200,0)" x2="0" y2="5" stroke="#888" stroke-width="1" opacity="1"/></g><g class="mark-text role-axis-label" pointer-events="none"><text text-anchor="start" transform="translate(0,15)" font-family="sans-serif" font-size="10px" fill="#000" opacity="1">2016</text><text text-anchor="middle" transform="translate(50.03422313483915,15)" font-family="sans-serif" font-size="10px" fill="#000" opacity="1">2018</text><text text-anchor="middle" transform="translate(100,15)" font-family="sans-serif" font-size="10px" fill="#000" opacity="1">2020</text><text text-anchor="middle" transform="translate(150.03422313483915,15)" font-family="sans-serif" font-size="10px" fill="#000" opacity="1">2022</text><text text-anchor="end" transform="translate(200,15)" font-family="sans-serif" font-size="10px" fill="#000" opacity="1">2024</text></g><g class="mark-rule role-axis-domain" pointer-events="none"><line transform="translate(0,0)" x2="200" y2="0" stroke="#888" stroke-width="1" opacity="1"/></g></g><path class="foreground" aria-hidden="true" d="" pointer-events="none" display="none"/></g></g><g class="mark-group role-axis" role="graphics-symbol" aria-roledescription="axis" aria-label="Y-axis for a linear scale with values from 0 to 16"><g transform="translate(0.5,0.5)"><path class="background" aria-hidden="true" d="M0,0h0v0h0Z" pointer-events="none"/><g><g class="mark-rule role-axis-tick" pointer-events="none"><line transform="translate(0,150)" x2="-5" y2="0" stroke="#888" stroke-opacity="0" stroke-width="1" opacity="1"/><line transform="translate(0,103)" x2="-5" y2="0" stroke="#888" stroke-opacity="0" stroke-width="1" opacity="1"/><line transform="translate(0,56)" x2="-5" y2="0" stroke="#888" stroke-opacity="0" stroke-width="1" opacity="1"/><line transform="translate(0,9)" x2="-5" y2="0" stroke="#888" stroke-opacity="0" stroke-width="1" opacity="1"/></g><g class="mark-text role-axis-label" pointer-events="none"><text text-anchor="end" transform="translate(-7,153)" font-family="sans-serif" font-size="10px" fill="#000" opacity="1">0</text><text text-anchor="end" transform="translate(-7,106.125)" font-family="sans-serif" font-size="10px" fill="#000" opacity="1">5</text><text text-anchor="end" transform="translate(-7,59.25)" font-family="sans-serif" font-size="10px" fill="#000" opacity="1">10</text><text text-anchor="end" transform="translate(-7,12.375)" font-family="sans-serif" font-size="10px" fill="#000" opacity="1">15</text></g></g><path class="foreground" aria-hidden="true" d="" pointer-events="none" display="none"/></g></g><g class="mark-line role-mark marks" clip-path="url(#clip119)" role="graphics-object" aria-roledescription="line mark container"><path aria-label="day: Jun 25, 2010; avg: 1.36666666667" role="graphics-symbol" aria-roledescription="line mark" d="M-137.991,137.188L-137.922,137.188L-137.717,137.188L-137.648,137.188L-137.375,137.188L-137.306,136.875L-136.964,136.875L-136.758,137.188L-136.485,137.188L-136.211,137.188L-136.142,137.188L-135.937,137.188L-135.869,137.5L-135.8,137.5L-135.595,137.5L-135.526,137.813L-135.39,137.813L-135.253,138.125L-135.116,138.125L-134.91,138.125L-134.842,138.75L-134.637,138.75L-134.568,138.75L-134.158,138.75L-133.952,138.75L-133.884,138.75L-133.815,138.75L-133.61,138.75L-133.542,139.375L-132.994,139.688L-132.926,139.688L-132.857,139.688L-132.72,139.688L-132.583,139.688L-132.378,139.375L-132.173,139.688L-132.104,140L-131.967,139.063L-131.351,139.063L-131.009,138.75L-130.872,138.75L-130.667,138.75L-130.051,138.75L-129.709,138.75L-129.572,138.75L-128.887,138.75L-128.474,138.75L-127.926,138.75L-127.584,138.75L-126.557,138.125L-125.394,138.125L-121.561,138.125L-121.15,138.125L-120.26,137.5L-120.058,137.188L-119.921,137.188L-119.578,137.188L-119.442,137.188L-118.689,137.188L-118.62,137.188L-117.867,137.188L-117.457,137.188L-117.251,137.188L-117.114,136.563L-116.978,136.875L-116.704,136.875L-116.635,136.875L-116.567,137.813L-116.498,137.813L-116.362,137.813L-116.293,137.813L-116.156,137.813L-116.088,137.813L-116.019,137.813L-115.951,137.813L-115.814,137.813L-115.403,137.5L-115.198,137.5L-114.993,137.188L-114.924,137.813L-114.856,137.813L-114.787,137.813L-114.582,137.813L-114.513,138.438L-114.445,138.125L-114.24,138.125L-114.171,138.125L-114.103,138.125L-113.829,138.125L-113.761,138.125L-113.624,138.125L-113.487,137.813L-113.418,137.5L-113.35,138.125L-113.076,137.813L-113.008,137.5L-112.939,137.188L-112.871,136.875L-112.802,136.875L-112.734,137.188L-112.597,136.563L-112.529,136.875L-112.255,136.25L-111.981,135.938L-111.913,135.625L-111.707,135.313L-111.639,135.625L-111.365,135.625L-111.16,135.938L-111.023,135.625L-110.954,135.625L-110.886,135.625L-110.612,135.625L-110.544,135.313L-110.133,135L-109.996,134.375L-109.859,134.375L-109.791,134.375L-109.722,134.375L-109.654,134.063L-109.517,133.75L-109.448,134.063L-109.312,134.063L-109.175,133.75L-109.038,134.063L-108.901,134.375L-108.49,134.688L-108.353,135L-108.216,135L-108.148,135L-108.08,135.625L-107.737,135.625L-107.395,136.25L-107.258,136.563L-107.19,136.875L-106.779,137.188L-106.711,137.188L-106.574,137.188L-106.231,137.188L-106.163,136.563L-106.026,136.563L-105.889,136.25L-105.752,136.25L-105.684,136.563L-105.342,137.5L-105.273,138.125L-104.931,138.125L-104.247,138.125L-104.041,137.813L-103.765,137.813L-103.696,138.125L-103.217,138.125L-103.149,138.438L-102.464,138.75L-102.19,138.75L-102.053,138.75L-101.916,138.438L-101.848,138.125L-101.027,138.125L-100.274,138.125L-99.795,138.125L-99.316,138.125L-98.973,138.125L-98.631,138.125L-97.331,138.125L-96.509,138.125L-95.414,138.125L-95.277,137.813L-95.075,137.5L-94.801,138.438L-94.664,138.438L-94.596,138.125L-94.459,137.813L-94.322,137.5L-93.637,137.188L-93.295,137.188L-93.09,137.188L-92.816,137.188L-92.679,137.188L-92.611,137.5L-92.474,137.5L-92.2,137.5L-91.858,137.5L-91.789,137.188L-91.584,136.875L-91.379,136.875L-91.31,137.188L-91.173,137.5L-91.105,137.5L-90.899,137.5L-90.831,137.5L-90.626,137.188L-90.557,136.875L-90.489,136.875L-90.42,136.875L-90.352,136.875L-90.283,136.875L-90.215,137.188L-90.147,137.5L-90.01,137.5L-89.941,137.5L-89.804,137.813L-89.667,137.813L-89.599,138.125L-89.531,138.438L-89.462,138.438L-89.257,138.438L-89.051,138.438L-88.915,138.75L-88.778,138.75L-88.709,138.438L-88.641,137.813L-88.504,136.875L-88.093,137.188L-88.025,137.5L-87.888,137.188L-87.751,137.188L-87.546,137.188L-87.135,137.188L-86.998,137.188L-86.93,137.188L-86.793,137.188L-86.45,137.5L-86.382,137.5L-86.314,136.563L-86.108,136.563L-86.04,136.563L-85.903,136.25L-85.766,135.938L-85.698,135.625L-85.629,135.625L-85.561,135.625L-85.492,135.938L-85.424,135.938L-85.287,135.938L-85.218,135.625L-85.082,135.625L-84.945,135.625L-84.671,135.625L-84.602,135.625L-84.466,135.938L-84.192,136.563L-83.986,137.5L-83.918,137.5L-83.85,137.5L-83.781,137.813L-83.713,137.813L-83.644,137.5L-83.439,137.5L-83.37,137.5L-82.96,137.5L-82.823,137.813L-82.549,137.813L-82.275,137.5L-82.207,138.438L-82.001,138.438L-81.933,138.438L-81.865,138.438L-81.728,138.75L-81.591,139.063L-81.522,138.125L-81.454,138.438L-81.317,138.125L-80.975,137.813L-80.906,137.813L-80.769,138.125L-80.496,137.813L-79.948,137.5L-79.88,137.188L-79.811,137.188L-77.687,135.625L-77.55,135.313L-76.112,135.313L-74.264,135.313L-73.99,135L-71.047,135L-70.773,135L-69.75,134.688L-69.613,134.688L-68.928,134.688L-68.449,134.375L-68.312,133.75L-68.244,133.438L-68.175,133.125L-68.107,133.125L-67.833,133.125L-67.765,133.125L-67.422,133.438L-67.217,133.438L-66.943,133.438L-66.738,134.375L-66.464,133.75L-66.122,133.438L-65.78,133.75L-65.711,133.438L-65.643,133.438L-65.369,133.75L-65.301,133.438L-64.89,133.438L-64.753,133.438L-64.685,134.688L-64.616,135L-64.548,134.688L-64.274,134.688L-64.137,135L-64.069,135L-63.863,135L-63.658,135.625L-63.521,135.625L-63.316,135.625L-63.247,135.938L-63.179,136.25L-63.11,136.563L-62.837,137.188L-62.7,136.875L-62.631,136.875L-62.357,136.563L-61.878,136.563L-61.741,136.563L-61.673,136.563L-61.604,136.563L-61.399,137.188L-61.057,137.813L-60.92,137.813L-60.852,138.125L-60.578,138.125L-60.372,138.125L-60.236,138.75L-60.167,138.438L-60.099,138.438L-59.825,138.75L-59.756,137.813L-59.688,138.125L-59.483,138.125L-59.414,138.125L-59.346,138.125L-59.277,138.125L-59.004,138.125L-58.798,137.813L-58.593,137.813L-58.319,137.813L-58.114,138.125L-57.908,138.125L-57.772,138.125L-57.703,138.438L-57.635,138.438L-57.566,138.75L-57.429,138.75L-57.361,138.75L-57.292,138.75L-57.155,138.75L-57.019,138.75L-56.95,138.75L-56.813,138.75L-56.676,138.75L-56.539,138.75L-56.471,138.75L-56.403,138.75L-56.334,139.375L-56.266,139.375L-56.129,139.375L-55.787,140.313L-55.444,140.313L-55.239,140.313L-54.897,140.313L-54.76,140.313L-54.555,140.313L-54.075,140.313L-53.799,140.625L-53.73,140.625L-52.977,140.625L-52.088,140.625L-50.992,140.625L-50.582,140.625L-49.213,140.625L-48.665,140.625L-48.118,140.625L-47.981,140.313L-46.954,140.313L-46.201,140.313L-45.859,140.313L-45.654,140.313L-45.585,140.313L-45.448,140.313L-45.38,140.313L-45.177,140.313L-45.109,140L-44.972,139.688L-44.835,139.688L-44.767,139.688L-44.424,139.688L-43.945,139.688L-43.877,139.688L-43.672,139.688L-43.535,139.375L-43.192,139.063L-42.919,139.063L-42.782,139.063L-42.576,138.75L-42.508,138.75L-42.44,138.125L-42.371,137.813L-42.166,137.813L-42.029,137.5L-41.824,137.5L-41.687,137.5L-41.071,137.5L-41.002,137.813L-40.797,137.5L-40.386,136.563L-40.249,135.938L-40.181,135.938L-40.112,135.938L-39.975,135.938L-39.633,135.938L-39.291,135.938L-39.223,136.25L-38.743,136.563L-38.675,136.563L-38.607,136.563L-38.538,136.25L-38.47,136.25L-38.401,136.25L-38.333,136.25L-38.264,136.563L-38.127,136.875L-38.059,136.875L-37.922,136.563L-37.785,136.875L-37.648,136.875L-37.58,137.188L-37.306,137.188L-37.238,136.25L-36.895,136.563L-36.827,136.563L-36.758,136.563L-36.69,136.563L-36.485,135.938L-36.416,136.25L-36.211,137.188L-36.074,137.5L-36.006,137.5L-35.869,137.188L-35.8,137.188L-35.663,137.188L-35.595,137.188L-35.458,137.188L-35.39,137.188L-35.116,137.188L-34.979,136.875L-34.91,137.188L-34.842,137.188L-34.774,137.188L-34.5,137.188L-34.363,137.188L-34.294,137.188L-34.158,137.188L-34.089,137.188L-34.021,137.188L-33.884,137.188L-33.747,137.5L-33.473,137.813L-33.199,138.75L-33.131,138.75L-32.926,138.438L-32.857,138.438L-32.378,138.438L-32.309,139.063L-31.83,139.063L-31.625,139.063L-31.42,139.375L-31.009,139.063L-30.53,139.375L-30.461,139.375L-30.393,139.375L-30.325,139.375L-30.188,139.375L-30.051,139.375L-29.914,139.375L-29.709,139.688L-29.435,139.688L-29.366,139.375L-29.229,139.063L-29.093,139.063L-28.953,139.063L-28.816,139.063L-28.679,138.75L-28.542,139.063L-28.474,139.063L-28.2,138.75L-28.131,138.125L-27.105,138.125L-26.42,137.813L-26.146,137.813L-25.941,138.125L-25.188,138.125L-25.051,137.813L-23.614,137.813L-23.546,137.813L-23.272,137.813L-22.587,137.5L-22.382,137.5L-22.04,137.5L-21.697,137.5L-21.355,137.5L-21.218,137.5L-20.263,137.5L-20.195,137.188L-19.784,137.188L-19.578,136.875L-19.51,136.563L-19.031,136.875L-18.757,137.188L-18.552,136.875L-18.483,136.563L-18.141,136.563L-18.073,136.25L-17.936,136.25L-17.662,136.25L-17.594,136.25L-17.388,136.875L-17.32,136.563L-16.772,136.875L-16.704,136.875L-16.567,136.563L-16.362,136.563L-16.156,136.875L-16.019,136.875L-15.951,136.875L-15.814,136.875L-15.677,136.875L-15.609,137.188L-15.54,136.875L-15.472,136.875L-15.266,136.563L-15.129,136.25L-14.993,135.313L-14.924,135.625L-14.787,135L-14.719,135.313L-14.513,135.625L-14.308,135.625L-14.103,135.625L-13.897,135.625L-13.829,135.625L-13.761,135L-13.692,134.688L-13.624,134.375L-13.418,134.063L-13.281,134.375L-13.008,134.375L-12.939,134.688L-12.802,134.688L-12.734,134.688L-12.665,134.688L-12.597,134.375L-12.529,134.063L-12.46,134.063L-12.392,133.75L-12.323,133.125L-12.255,133.438L-12.049,133.438L-11.981,133.438L-11.57,132.813L-11.228,133.125L-11.16,133.438L-10.954,134.375L-10.886,134.375L-10.817,135L-10.612,135L-10.544,135L-10.475,135L-10.201,135L-10.064,135.313L-9.996,135.625L-9.928,136.25L-9.791,137.188L-9.722,137.5L-9.654,137.813L-9.585,137.813L-9.38,137.813L-9.312,137.813L-9.175,137.813L-9.038,137.813L-8.969,138.125L-8.901,138.125L-8.832,138.438L-8.764,137.813L-8.696,138.125L-8.627,138.75L-8.559,138.438L-8.422,138.438L-8.216,138.75L-8.08,139.375L-7.806,139.375L-7.6,139.375L-7.532,139.063L-7.463,138.75L-7.395,138.75L-7.327,138.75L-7.258,138.438L-7.19,138.438L-7.121,138.438L-7.053,138.438L-6.984,138.438L-6.916,138.438L-6.779,138.438L-6.711,138.438L-6.642,138.125L-6.505,138.125L-6.437,138.125L-6.368,138.125L-6.095,138.125L-5.889,138.125L-5.684,138.125L-5.615,138.438L-5.547,138.438L-5.479,139.063L-5.068,139.063L-4.931,138.75L-4.52,139.063L-4.315,139.063L-4.107,139.063L-3.833,139.063L-3.696,139.063L-3.628,139.063L-3.08,139.375L-2.464,139.688L-1.78,139.688L-1.643,139.688L-1.506,140L-1.437,140L-1.232,140L0.068,140L0.137,140L0.411,140L0.616,140L1.027,139.375L1.643,139.375L2.053,139.063L2.533,139.063L2.669,139.063L2.738,139.063L3.08,138.75L3.97,138.75L4.244,138.125L4.517,138.125L4.586,138.125L4.654,138.125L4.723,138.438L4.928,138.438L5.062,138.438L5.131,138.438L5.61,138.438L6.842,138.438L7.252,138.438L7.526,138.125L7.595,138.125L7.663,137.813L7.732,137.813L7.8,137.813L8.211,137.188L8.348,137.188L8.484,137.188L8.553,137.188L8.69,137.188L9.169,137.188L9.374,137.813L9.717,138.125L9.922,138.438L9.99,138.438L10.059,138.438L10.196,138.438L10.401,138.125L10.469,137.5L10.538,138.125L10.606,137.813L10.675,137.813L10.743,137.813L11.085,137.813L11.154,137.5L11.359,137.5L11.428,137.5L11.565,137.5L11.633,137.5L11.701,137.5L11.77,137.813L11.975,137.813L12.112,137.813L12.181,137.813L12.386,137.5L12.523,138.125L12.591,138.125L12.933,137.5L13.276,137.5L13.413,137.5L13.481,137.188L13.755,137.188L13.96,137.188L14.439,136.875L14.782,136.875L14.918,136.875L14.987,136.25L15.055,136.875L15.192,137.5L15.261,137.188L15.329,137.5L15.671,137.5L15.808,137.5L15.877,137.5L15.945,137.813L16.15,137.813L16.219,137.813L16.356,137.813L16.424,137.813L16.63,137.813L16.766,137.813L16.972,137.5L17.04,137.813L17.314,137.813L17.383,138.125L17.656,138.125L17.725,138.125L17.793,138.75L17.862,138.75L18.067,138.75L18.135,139.063L18.615,139.063L18.82,139.063L18.888,139.063L18.957,138.75L19.025,138.125L19.094,138.438L19.162,138.438L19.778,138.438L19.847,138.438L19.915,138.125L20.12,138.125L20.326,138.125L20.463,137.5L20.736,137.5L21.215,137.5L21.629,137.5L22.177,137.5L22.45,137.5L22.587,137.5L23.066,137.5L23.34,137.5L23.819,137.188L24.367,136.875L24.846,136.563L25.257,136.25L25.325,135.938L25.462,135.938L25.599,135.625L26.146,135.625L26.694,135.625L26.968,135.625L27.652,135.625L28.611,134.688L28.747,135L29.843,135.313L29.908,135.625L31.209,135.625L31.277,135.625L31.414,135.625L31.482,135.625L31.825,135.625L32.304,135.313L32.441,135.938L32.509,135.938L32.578,135.625L32.714,135.625L32.851,135L32.92,135L33.057,134.688L33.125,134.375L33.33,134.688L33.467,135L33.741,135.313L33.946,135.313L34.015,135.625L34.22,135.938L34.357,135.938L34.426,136.25L34.494,135.938L34.905,135.938L35.042,135.938L35.11,135.625L35.452,136.563L35.521,136.563L35.658,136.875L35.726,136.875L36,136.875L36.068,136.875L36.137,137.188L36.411,137.188L36.547,137.188L36.684,137.188L36.753,137.188L36.821,136.563L36.89,136.875L37.027,136.875L37.163,137.5L37.232,137.5L37.3,137.813L37.506,138.125L37.574,138.125L37.711,138.125L37.779,138.125L37.848,138.438L37.985,138.125L38.19,137.813L38.396,137.813L38.464,137.813L38.601,138.125L38.806,137.5L39.285,137.5L39.422,137.813L39.491,138.125L39.628,137.813L39.696,137.813L39.764,137.813L39.833,137.813L40.586,137.813L40.928,137.5L40.996,137.813L41.202,137.813L41.27,137.5L41.339,137.5L41.407,137.813L41.681,137.813L41.886,137.5L41.955,137.5L42.228,137.5L42.365,137.5L42.434,137.5L42.571,137.5L42.708,137.5L42.776,137.5L42.845,137.188L42.981,137.5L43.05,137.813L43.118,137.813L43.324,137.813L43.461,137.5L43.734,138.125L43.803,138.125L43.871,138.125L43.94,137.813L44.008,138.125L44.077,138.125L44.145,138.125L44.213,138.125L44.35,138.125L44.419,138.438L44.624,138.438L44.693,138.438L44.761,139.063L44.829,138.75L44.966,139.063L45.103,139.063L45.309,139.063L45.582,138.75L45.993,138.75L46.13,138.75L46.68,138.75L46.749,138.75L46.817,138.75L46.954,138.438L47.228,138.438L47.433,138.438L47.57,138.438L47.707,138.438L47.775,138.438L47.844,138.75L47.981,138.75L48.049,138.438L48.118,138.438L48.46,138.75L48.665,138.125L49.281,138.125L50.103,138.125L50.719,138.125L50.787,138.125L51.608,138.125L51.745,137.813L51.882,137.813L52.704,137.813L52.772,138.125L53.046,138.125L53.525,137.813L54.073,138.125L54.823,138.438L54.891,138.438L55.233,137.813L55.302,137.813L56.123,137.5L56.328,137.188L56.465,137.5L56.876,137.5L56.944,137.5L57.013,137.5L57.081,137.188L57.287,136.875L57.355,136.875L57.492,136.875L57.629,136.875L57.766,136.563L57.971,136.563L58.04,137.188L58.108,137.188L58.176,137.188L58.245,137.188L58.313,137.188L58.382,137.188L58.45,137.188L58.587,136.875L58.656,136.875L58.998,136.875L59.135,136.563L59.203,136.875L59.272,136.875L59.34,136.875L59.409,136.875L59.545,137.5L59.682,137.5L59.819,137.813L59.956,138.125L60.161,138.125L60.298,138.438L60.435,138.438L60.572,138.125L60.777,138.438L60.846,138.75L60.914,138.75L60.983,138.438L61.051,138.438L61.257,138.75L61.393,138.438L61.462,138.438L61.53,138.125L61.599,137.813L61.667,137.813L61.804,137.813L61.941,137.813L62.009,138.125L62.078,138.438L62.215,138.438L62.283,138.125L62.42,138.438L62.762,138.438L63.105,138.438L63.173,138.438L63.31,138.438L63.378,138.438L63.447,138.438L63.652,138.438L63.858,138.125L64.063,137.813L64.131,137.813L64.268,137.813L64.405,138.125L64.679,137.813L64.816,137.5L65.295,137.5L65.569,137.813L65.637,138.125L65.774,137.813L66.048,137.813L66.116,137.813L66.185,138.125L66.801,138.438L66.869,138.438L67.006,138.125L67.074,138.125L67.348,138.125L67.554,138.125L67.622,138.125L67.691,138.438L67.896,138.438L67.964,138.438L68.101,138.438L68.17,138.438L68.307,138.438L68.443,138.438L68.58,138.438L68.649,138.438L68.717,138.438L68.786,138.75L68.923,138.75L68.991,138.438L69.265,138.125L69.402,138.438L69.675,138.75L70.223,138.438L70.291,138.125L70.428,138.125L70.702,138.125L70.771,138.438L70.839,138.438L70.907,138.438L71.253,138.438L71.526,138.438L72.074,138.75L72.621,138.75L72.895,138.75L73.101,138.438L73.306,138.438L73.374,138.125L73.443,138.125L73.785,138.125L73.99,137.813L74.127,137.813L74.401,137.813L74.88,137.5L75.017,137.5L75.222,137.5L76.112,137.813L76.249,137.813L76.66,137.813L76.797,137.813L76.865,138.125L77.07,137.813L77.276,137.813L77.344,138.125L77.413,138.438L77.55,138.125L78.097,138.125L78.166,137.813L78.782,137.5L78.85,137.188L79.398,136.875L79.603,136.875L79.805,136.25L79.874,135.938L79.942,135.938L80.353,135L80.422,135L80.627,135.313L80.764,135.313L81.038,135L81.311,135L81.38,135L81.722,134.688L81.859,135L82.064,135L82.133,134.688L82.201,134.375L82.27,134.063L82.338,133.438L82.406,133.438L82.543,132.813L82.612,132.813L82.68,132.813L82.749,132.188L82.817,131.875L82.886,131.875L82.954,131.875L83.228,132.188L83.296,132.5L83.365,132.813L83.433,132.188L83.502,131.25L83.57,131.875L83.638,131.875L83.707,131.875L84.049,132.813L84.186,132.5L84.255,132.5L84.323,132.188L84.391,132.188L84.46,132.5L84.528,131.875L84.597,131.875L84.665,131.875L84.734,131.875L84.802,132.188L84.939,132.188L85.007,132.188L85.076,132.5L85.35,132.188L85.487,132.813L85.555,133.125L85.623,133.125L85.76,133.75L85.829,134.063L85.897,134.063L85.966,134.063L86.103,134.063L86.239,133.75L86.308,133.75L86.376,134.688L86.582,135.625L86.65,134.688L86.719,134.063L86.787,134.063L86.855,134.063L86.924,132.5L86.992,130.313L87.129,130L87.266,129.688L87.335,129.688L87.814,129.375L87.882,129.688L87.951,129.688L88.087,128.125L88.156,128.125L88.224,127.5L88.43,126.875L88.498,125.625L88.567,126.25L88.635,125.313L88.84,124.688L88.909,124.063L89.046,123.438L89.183,122.813L89.251,122.813L89.32,123.125L89.388,123.125L89.456,122.188L89.525,121.875L89.593,120.313L89.662,120L89.799,120.938L90.004,121.875L90.072,121.25L90.209,119.687L90.278,121.25L90.483,123.438L90.552,123.75L90.62,124.375L90.688,123.75L90.825,124.063L90.894,122.813L90.962,121.875L91.031,123.125L91.099,123.125L91.168,123.75L91.304,124.375L91.373,125.625L91.441,123.125L91.51,123.75L91.578,124.375L91.647,125L91.715,125L91.784,125.313L91.92,125.625L91.989,124.688L92.057,124.375L92.126,125.625L92.194,125.938L92.263,127.5L92.331,127.813L92.4,127.813L92.468,127.5L92.537,127.813L92.605,129.688L92.673,130L92.742,129.375L92.81,129.688L92.879,129.688L92.947,130L93.016,130L93.084,130.625L93.153,130.938L93.221,130.938L93.289,130.625L93.358,130.625L93.426,130.938L93.495,130.938L93.563,133.438L93.632,133.75L93.7,133.438L93.769,133.438L93.837,133.75L93.905,133.75L93.974,133.75L94.042,134.375L94.111,134.688L94.179,134.688L94.248,134.688L94.316,134.688L94.453,134.688L94.521,134.688L94.59,134.688L94.727,135L94.864,135L94.932,135L95.137,135.313L95.274,134.688L95.343,134.375L95.411,134.688L95.48,135L95.548,135.625L95.89,135.938L95.959,135.938L96.167,135.938L96.509,135.938L96.578,135.313L96.646,135.313L96.715,135.313L96.851,135.313L96.988,135.625L97.331,135.625L97.536,135.938L97.604,136.25L97.741,136.25L97.878,136.25L98.152,136.25L98.22,135.938L98.426,135.313L98.768,135.313L99.179,135.313L99.316,135L99.726,134.688L99.932,134.688L100,133.75L100.068,133.125L100.548,133.438L100.684,133.438L100.753,133.438L101.506,133.438L101.574,132.813L101.711,132.813L101.916,132.188L102.053,132.5L102.19,132.813L102.259,132.5L102.327,133.125L102.396,133.125L102.601,132.188L102.669,131.875L102.738,129.688L102.875,128.125L102.943,127.188L103.149,126.563L103.217,126.25L103.285,124.375L103.354,124.375L103.628,123.75L103.696,123.75L104.312,123.75L104.586,123.438L104.651,122.5L104.788,122.813L104.925,121.875L105.062,122.5L105.199,121.25L105.268,120.938L105.336,120L105.404,119.687L105.473,119.375L105.61,119.375L105.678,115L105.884,112.188L106.157,110.937L106.226,110.312L106.294,110L106.363,107.5L106.431,107.813L106.5,108.75L106.568,108.125L106.636,110L106.705,110.937L106.842,110.625L106.91,108.125L106.979,105.938L107.047,105L107.116,101.562L107.184,97.813L107.321,96.25L107.389,94.375L107.458,93.75L107.526,94.063L107.663,91.875L107.8,89.063L107.868,86.875L108.005,84.375L108.074,83.75L108.142,83.125L108.211,82.187L108.279,78.438L108.348,73.438L108.416,75.313L108.484,77.813L108.553,79.063L108.621,78.75L108.69,79.688L108.758,80L108.827,76.875L108.895,75.938L108.964,75.625L109.032,74.063L109.101,72.813L109.169,72.5L109.237,70.938L109.306,69.688L109.374,70.313L109.443,71.25L109.511,72.188L109.58,71.25L109.648,71.563L109.717,69.063L109.785,65.938L109.853,66.25L109.922,67.5L109.99,65L110.059,67.188L110.127,65.625L110.196,66.875L110.264,64.375L110.333,67.188L110.401,72.188L110.469,73.125L110.538,72.813L110.606,71.25L110.675,71.563L110.743,69.375L110.812,70.938L110.88,72.813L110.949,72.188L111.017,72.188L111.085,73.438L111.154,74.688L111.222,73.125L111.291,76.25L111.359,78.125L111.428,79.375L111.496,79.375L111.565,81.563L111.633,82.5L111.701,82.5L111.77,84.375L111.838,88.125L111.907,90L111.975,92.187L112.044,95L112.112,94.688L112.181,95.938L112.249,95.938L112.317,99.375L112.386,99.375L112.454,97.813L112.523,98.125L112.591,96.875L112.66,97.813L112.728,97.813L112.797,99.063L112.865,99.375L112.933,99.688L113.002,97.813L113.07,95.938L113.139,95.625L113.207,95.625L113.276,97.5L113.344,98.75L113.413,97.813L113.481,95.938L113.55,96.25L113.618,95.938L113.686,96.25L113.755,95L113.823,94.375L113.892,91.562L114.029,89.063L114.097,88.125L114.166,88.125L114.234,90.313L114.302,88.438L114.371,88.75L114.439,88.125L114.508,86.25L114.576,86.563L114.645,84.688L114.713,85.313L114.782,85.313L114.85,85L114.918,83.438L114.987,79.375L115.055,77.5L115.124,77.5L115.192,75.938L115.261,75.938L115.329,75.938L115.398,74.063L115.466,67.5L115.534,65.625L115.603,65L115.671,63.125L115.74,59.063L115.808,56.25L115.877,55L115.945,50.938L116.014,51.563L116.082,51.875L116.15,51.25L116.219,49.375L116.287,46.25L116.356,46.563L116.424,41.25L116.493,37.188L116.561,37.188L116.63,37.5L116.698,38.75L116.766,37.5L116.835,36.563L116.903,28.438L116.972,24.375L117.04,25.625L117.109,24.687L117.177,26.25L117.246,27.813L117.314,26.25L117.383,22.5L117.451,20.937L117.519,26.25L117.588,28.125L117.656,29.375L117.725,29.062L117.793,34.062L117.862,36.25L117.93,37.188L117.999,40.938L118.067,40.313L118.135,41.875L118.204,40.938L118.272,43.125L118.341,44.375L118.409,45L118.478,50.938L118.546,52.812L118.615,55L118.683,56.875L118.751,58.125L118.82,60L118.888,60L118.957,67.188L119.025,73.125L119.094,74.688L119.162,77.188L119.231,76.563L119.299,77.813L119.367,75.625L119.436,76.563L119.504,79.375L119.573,80.313L119.641,82.5L119.71,84.063L119.778,85.938L119.847,85.625L119.915,86.563L119.983,88.125L120.052,90.625L120.12,92.187L120.189,91.875L120.257,93.438L120.326,92.5L120.394,94.688L120.463,95.625L120.531,94.688L120.599,98.125L120.668,96.875L120.736,92.187L120.805,91.875L120.873,92.187L120.945,93.125L121.013,94.063L121.081,93.438L121.15,91.562L121.218,90L121.287,91.25L121.355,91.875L121.424,96.563L121.492,100L121.561,99.375L121.629,96.875L121.697,93.75L121.766,91.875L121.834,93.125L121.903,92.813L121.971,93.438L122.04,95L122.108,95L122.177,96.25L122.245,97.188L122.313,98.438L122.382,101.25L122.45,100.625L122.519,101.562L122.587,102.5L122.656,101.25L122.724,102.813L122.793,107.5L122.861,108.125L122.93,108.438L122.998,106.875L123.066,107.813L123.135,109.063L123.203,111.563L123.272,114.375L123.34,114.375L123.409,114.063L123.477,109.375L123.546,107.188L123.614,109.688L123.682,112.188L123.751,115L123.819,117.5L123.888,115L123.956,111.563L124.025,111.25L124.162,110.312L124.298,108.438L124.367,108.125L124.435,107.188L124.504,105L124.572,104.375L124.641,104.063L124.709,104.375L124.778,104.063L124.846,104.375L124.914,104.688L125.051,104.375L125.12,103.75L125.188,104.688L125.257,106.875L125.325,106.875L125.394,106.563L125.462,107.188L125.53,106.563L125.599,107.813L125.667,108.125L125.736,112.5L125.804,114.375L125.873,114.375L125.941,114.688L126.01,114.063L126.078,113.438L126.146,117.188L126.215,121.563L126.283,122.813L126.352,123.438L126.42,124.375L126.489,123.438L126.557,122.813L126.626,123.125L126.694,122.813L126.762,123.125L126.831,121.25L126.899,121.563L126.968,121.875L127.036,121.563L127.105,121.25L127.173,122.188L127.31,121.25L127.379,119.063L127.447,115.938L127.515,113.125L127.584,111.875L127.789,110L127.858,109.688L127.926,110.625L127.995,110.625L128.063,109.375L128.131,106.875L128.2,104.063L128.268,103.438L128.405,101.875L128.474,100.625L128.542,98.438L128.679,93.75L128.747,89.375L128.816,87.813L128.884,88.438L128.953,86.875L129.021,88.75L129.09,89.375L129.227,89.063L129.295,88.125L129.363,84.688L129.432,83.75L129.5,80.625L129.569,78.75L129.637,77.188L129.706,77.188L129.774,76.875L129.843,78.75L129.911,79.375L129.979,78.438L130.045,80.313L130.114,80.625L130.182,79.375L130.319,76.563L130.387,75.313L130.456,74.375L130.524,75.313L130.593,77.188L130.661,75L130.73,72.5L130.798,74.688L130.866,78.125L130.935,79.688L131.003,76.875L131.072,76.875L131.14,78.75L131.209,76.875L131.277,68.438L131.346,66.875L131.414,65.938L131.482,68.438L131.551,65.938L131.619,67.5L131.688,69.063L131.756,69.375L131.825,67.812L131.893,67.812L132.03,65L132.098,61.563L132.167,61.563L132.235,57.5L132.304,51.563L132.372,51.563L132.441,49.688L132.509,45L132.578,42.813L132.646,40L132.714,32.188L132.783,31.875L132.851,29.687L132.92,25L132.988,22.813L133.057,20.312L133.125,23.75L133.194,22.813L133.262,23.438L133.33,18.75L133.399,21.563L133.467,19.063L133.536,20.312L133.604,20.937L133.673,19.375L133.741,17.813L133.81,14.063L133.878,12.813L133.946,12.188L134.015,11.875L134.083,13.438L134.152,16.25L134.22,11.25L134.289,12.188L134.357,13.75L134.426,9.375L134.494,8.125L134.563,9.375L134.631,11.875L134.699,14.687L134.768,21.25L134.836,24.687L134.905,28.125L134.973,30.625L135.042,29.375L135.11,31.25L135.179,29.375L135.247,28.438L135.315,28.125L135.384,34.687L135.452,40.313L135.521,44.062L135.589,44.375L135.658,43.75L135.726,47.5L135.795,48.75L135.863,49.375L135.931,50.625L136,52.5L136.068,53.125L136.137,53.437L136.205,56.563L136.274,62.5L136.342,63.75L136.411,66.563L136.479,70.313L136.547,75.313L136.616,78.75L136.684,77.813L136.753,76.25L136.821,75.313L136.89,73.438L136.958,72.813L137.027,70.625L137.095,71.875L137.163,74.375L137.232,76.25L137.3,78.125L137.369,78.125L137.437,73.125L137.506,70.313L137.574,68.75L137.643,67.188L137.711,65L137.779,63.125L137.848,64.688L137.916,64.063L137.985,61.875L138.053,62.812L138.122,63.75L138.19,62.5L138.259,60.313L138.327,60L138.396,59.375L138.464,57.188L138.532,56.875L138.601,54.688L138.669,56.563L138.738,58.437L138.806,58.437L138.875,57.188L138.943,59.063L139.012,60.313L139.08,64.063L139.148,65L139.217,63.438L139.285,63.125L139.354,63.438L139.422,62.187L139.491,61.875L139.559,61.875L139.628,63.125L139.696,65.625L139.764,65.938L139.833,68.125L139.901,65.938L139.97,66.25L140.038,67.5L140.107,65L140.175,64.063L140.244,66.875L140.312,67.812L140.38,65.938L140.449,61.875L140.517,64.688L140.586,65L140.654,66.25L140.723,65.625L140.791,66.875L140.86,66.875L140.928,65L140.996,65L141.065,64.063L141.133,61.875L141.202,61.25L141.27,59.375L141.339,58.437L141.407,51.563L141.476,53.437L141.544,57.188L141.612,59.063L141.681,57.188L141.749,55.938L141.818,52.5L141.886,49.062L141.955,50L142.023,51.875L142.092,48.437L142.16,47.813L142.228,48.437L142.297,46.563L142.365,44.062L142.434,43.125L142.502,47.813L142.571,45.313L142.639,45.625L142.708,44.062L142.776,40.938L142.845,39.375L142.913,40L142.981,42.813L143.05,42.188L143.118,41.25L143.187,41.563L143.255,44.062L143.324,46.875L143.392,48.437L143.461,54.375L143.529,51.563L143.597,51.563L143.666,51.25L143.734,54.063L143.803,52.812L143.871,55L143.94,54.688L144.008,55.313L144.077,55.938L144.145,60.625L144.213,60L144.282,59.375L144.35,56.875L144.419,54.375L144.487,52.812L144.556,53.75L144.624,54.688L144.693,54.375L144.761,58.125L144.829,62.187L144.898,64.688L144.966,65.313L145.035,64.688L145.103,65.625L145.172,65.313L145.24,65.938L145.309,66.563L145.377,65.938L145.445,65.938L145.514,67.188L145.582,70.313L145.651,70.938L145.719,71.875L145.788,71.25L145.856,74.688L145.925,77.813L145.993,82.187L146.061,82.812L146.13,81.875L146.198,80.313L146.267,84.063L146.338,85.625L146.407,90L146.475,95.313L146.543,100.937L146.612,100.625L146.68,101.562L146.749,103.125L146.817,101.562L146.886,100.625L146.954,97.188L147.023,95.625L147.091,98.438L147.159,99.063L147.228,102.813L147.296,104.063L147.365,103.75L147.433,105.313L147.502,106.563L147.57,106.563L147.639,100.937L147.707,100L147.775,99.688L147.844,100.625L147.912,100.625L147.981,101.562L148.049,101.875L148.118,100.937L148.186,102.188L148.255,104.375L148.323,104.688L148.392,103.438L148.46,103.75L148.528,104.688L148.597,104.375L148.665,105.938L148.734,107.188L148.802,107.188L148.871,108.75L148.939,109.375L149.008,112.813L149.076,116.875L149.144,117.5L149.213,117.188L149.281,116.563L149.35,117.5L149.418,116.875L149.487,117.813L149.555,116.875L149.624,115.938L149.692,121.25L149.76,122.5L149.829,122.5L149.897,122.813L149.966,123.125L150.034,122.813L150.103,122.5L150.171,124.063L150.24,125.625L150.308,125.313L150.376,125L150.445,125L150.513,124.375L150.582,123.438L150.65,123.125L150.719,122.188L150.787,120.938L150.856,117.813L150.924,117.5L150.992,118.125L151.061,118.125L151.129,117.813L151.198,117.5L151.266,117.188L151.335,118.125L151.403,117.813L151.472,117.813L151.608,116.563L151.677,115L151.745,115.938L151.814,116.563L151.882,116.25L151.951,117.188L152.019,117.188L152.088,115.938L152.156,115.625L152.225,116.25L152.293,116.25L152.361,112.813L152.43,111.875L152.498,110.937L152.567,112.188L152.635,111.875L152.704,108.75L152.772,109.063L152.841,106.563L152.909,105.313L152.977,107.188L153.046,106.875L153.114,104.375L153.183,102.188L153.251,101.25L153.32,100L153.388,100L153.457,99.063L153.525,99.063L153.593,97.188L153.662,97.5L153.73,99.688L153.799,100L153.867,99.375L153.936,100.313L154.073,100.313L154.141,99.688L154.209,98.125L154.278,96.563L154.346,95.625L154.415,95.625L154.483,98.438L154.552,94.688L154.62,93.125L154.689,91.875L154.757,91.25L154.825,93.125L154.96,90.625L155.028,89.375L155.096,89.375L155.165,88.125L155.233,84.375L155.302,86.563L155.37,87.5L155.439,85.313L155.507,84.688L155.576,84.375L155.644,82.5L155.712,81.563L155.781,84.063L155.849,84.688L155.918,84.688L155.986,83.75L156.055,83.438L156.123,81.875L156.192,77.188L156.26,76.875L156.328,78.438L156.397,78.438L156.465,75.625L156.534,74.375L156.602,74.375L156.671,79.063L156.739,79.063L156.808,78.75L156.876,80L156.944,81.25L157.013,81.563L157.081,84.063L157.15,81.563L157.218,83.75L157.287,85.938L157.424,83.75L157.492,84.688L157.56,86.25L157.629,81.875L157.697,75.938L157.766,76.563L157.834,76.875L157.903,72.5L157.971,69.375L158.04,69.063L158.108,68.75L158.176,63.125L158.245,61.563L158.313,64.375L158.382,64.375L158.45,65.625L158.519,65.938L158.587,65.938L158.656,65L158.724,61.563L158.792,61.25L158.861,63.125L158.929,63.75L158.998,63.438L159.066,61.875L159.135,62.187L159.203,64.063L159.272,68.125L159.34,67.812L159.409,68.125L159.477,67.812L159.545,65.625L159.614,63.438L159.682,65.313L159.751,71.25L159.819,71.563L159.888,70.938L159.956,73.75L160.025,73.438L160.093,70.625L160.161,69.688L160.23,71.875L160.298,72.188L160.367,72.813L160.435,72.813L160.504,71.563L160.572,70.938L160.641,74.063L160.709,75.938L160.777,79.375L160.846,80L160.914,80.313L160.983,79.688L161.051,78.438L161.12,79.063L161.188,80.625L161.257,80.625L161.325,81.563L161.393,82.5L161.462,83.75L161.53,85.938L161.599,87.188L161.667,90.313L161.736,94.688L161.804,95.625L161.873,96.875L161.941,97.813L162.009,98.125L162.078,101.25L162.146,103.125L162.215,105.313L162.283,109.375L162.352,110.937L162.42,110.625L162.489,110.937L162.557,111.25L162.625,113.125L162.694,113.125L162.762,113.75L162.831,112.813L162.899,112.5L162.968,112.5L163.036,113.75L163.105,115.938L163.173,116.563L163.242,115.313L163.31,113.125L163.378,111.875L163.447,111.875L163.515,112.188L163.652,112.188L163.721,113.125L163.789,112.813L163.858,111.875L163.926,112.188L163.994,111.875L164.063,112.813L164.131,114.063L164.2,113.438L164.268,114.063L164.337,113.438L164.405,113.125L164.474,113.438L164.542,115L164.61,114.375L164.679,114.063L164.747,112.813L164.816,113.75L164.884,113.75L164.953,114.375L165.09,114.063L165.158,112.5L165.226,112.188L165.295,111.563L165.363,111.875L165.432,114.375L165.5,116.25L165.569,115L165.637,114.063L165.774,113.75L165.842,113.125L165.911,112.5L165.979,113.125L166.048,113.438L166.116,113.125L166.185,114.063L166.253,113.125L166.322,112.5L166.39,113.125L166.458,113.438L166.527,114.063L166.595,113.75L166.664,113.125L166.732,112.188L166.801,110.312L166.869,111.25L167.006,111.563L167.074,110.937L167.143,110.625L167.211,111.25L167.28,111.563L167.348,112.188L167.485,113.125L167.554,113.438L167.691,113.75L167.759,113.125L167.827,112.813L167.896,115.313L167.964,115.313L168.033,115.313L168.101,116.563L168.238,116.25L168.307,115.625L168.375,116.563L168.512,115L168.58,113.75L168.649,114.063L168.717,112.813L168.786,112.188L168.854,111.875L169.059,110.937L169.128,111.563L169.196,111.563L169.265,112.188L169.333,114.375L169.402,112.813L169.47,114.375L169.539,113.125L169.607,113.438L169.675,113.438L169.744,114.063L169.812,115.625L169.881,115.313L170.018,115L170.086,115.625L170.155,116.25L170.223,117.5L170.291,116.563L170.36,117.5L170.428,118.125L170.497,118.438L170.565,119.687L170.634,120.625L170.702,120.313L170.771,122.5L170.839,123.438L170.907,124.063L170.976,125.625L171.044,125.625L171.113,125.938L171.181,126.875L171.253,126.875L171.321,127.5L171.389,127.188L171.458,127.188L171.526,128.438L171.595,128.438L171.663,129.375L171.732,129.375L171.8,129.688L171.869,129.375L171.937,129.375L172.005,129.375L172.074,130L172.142,129.688L172.211,129.688L172.279,128.438L172.348,127.188L172.416,125.625L172.485,125L172.553,124.375L172.621,123.438L172.69,122.813L172.758,121.25L172.895,120.938L172.964,120.938L173.032,120.625L173.101,120.938L173.169,122.188L173.238,123.125L173.306,122.813L173.374,122.813L173.443,123.438L173.511,122.813L173.648,123.75L173.717,123.75L173.785,123.438L173.854,123.75L173.99,123.438L174.127,120.938L174.264,121.25L174.333,120.938L174.401,120.938L174.47,120.625L174.538,120.938L174.675,120.625L174.743,119.063L174.812,120.938L174.88,122.5L174.949,122.813L175.017,123.125L175.086,122.5L175.154,123.125L175.222,124.688L175.291,123.75L175.428,122.5L175.496,120.938L175.565,120.625L175.633,120L175.702,119.687L175.77,119.687L175.838,119.063L175.907,118.125L175.975,119.375L176.044,119.375L176.181,119.687L176.249,119.375L176.318,119.687L176.386,119.687L176.454,121.563L176.523,121.25L176.591,121.25L176.66,120.938L176.728,120.938L176.797,120.938L176.865,119.687L176.934,122.5L177.207,123.125L177.276,122.188L177.344,121.563L177.413,121.875L177.481,123.125L177.55,122.813L177.618,123.125L177.687,124.375L177.755,125.313L177.823,127.188L177.892,126.875L177.96,126.875L178.029,126.563L178.097,126.25L178.166,124.688L178.234,125L178.303,125L178.371,122.813L178.439,121.25L178.508,121.25L178.576,120.938L178.645,119.063L178.713,118.75L178.85,117.188L178.919,115.938L178.987,116.25L179.055,114.688L179.124,112.813L179.192,114.063L179.261,112.188L179.329,111.875L179.398,111.563L179.466,111.875L179.535,111.563L179.671,110L179.74,109.688L179.808,107.813L179.874,106.875L179.942,105.625L180.011,104.063L180.079,101.562L180.148,100.625L180.216,98.75L180.285,99.063L180.353,98.75L180.422,97.188L180.49,94.688L180.558,95.313L180.627,96.25L180.695,94.688L180.764,94.688L180.832,96.563L180.901,97.5L180.969,98.75L181.038,100L181.106,100.625L181.174,102.188L181.243,102.813L181.311,101.562L181.38,102.188L181.448,101.875L181.517,101.562L181.585,101.25L181.654,100.937L181.722,101.562L181.79,101.25L181.859,102.188L181.927,102.5L181.996,103.438L182.064,103.438L182.133,106.25L182.201,106.875L182.27,107.5L182.338,104.688L182.406,105.938L182.475,106.563L182.543,106.875L182.612,105.938L182.68,102.5L182.749,100L182.817,98.75L182.886,98.438L182.954,97.188L183.228,95.625L183.296,95.313L183.365,93.75L183.57,94.063L183.638,94.063L183.707,93.75L183.775,95L183.844,93.75L183.912,93.438L183.981,88.75L184.049,88.125L184.118,87.813L184.186,87.813L184.255,87.813L184.323,87.188L184.391,86.25L184.46,87.188L184.528,86.875L184.597,86.875L184.665,87.188L184.734,88.75L184.802,89.063L184.871,90L184.939,90.313L185.007,90L185.076,93.438L185.144,96.25L185.281,97.188L185.35,96.25L185.418,94.688L185.487,96.563L185.555,96.563L185.623,96.563L185.692,96.563L185.76,97.813L185.829,99.375L185.897,97.813L185.966,99.063L186.034,100L186.103,104.688L186.171,105.313L186.239,106.875L186.308,107.188L186.376,106.875L186.445,108.125L186.513,109.063L186.582,109.063L186.65,108.438L186.719,106.875L186.787,107.5L186.855,109.063L186.924,110.312L186.992,109.375L187.061,109.375L187.129,109.375L187.198,109.063L187.266,109.688L187.335,109.688L187.403,110.937L187.471,113.75L187.54,113.125L187.608,112.813L187.677,113.75L187.745,113.438L187.814,111.563L187.882,110L187.951,110.625L188.019,110L188.156,110L188.224,110.937L188.361,110.937L188.43,110.625L188.498,110L188.635,109.375L188.704,109.375L188.772,109.688L188.84,109.375L188.909,110.312L188.977,111.563L189.046,111.25L189.183,110L189.251,109.063L189.32,110L189.388,110.625L189.456,112.813L189.525,111.875L189.593,112.813L189.662,111.563L189.73,110.937L189.799,109.375L189.867,108.438L189.936,109.063L190.004,109.375L190.072,109.375L190.209,111.25L190.278,113.125L190.346,112.813L190.415,113.438L190.483,114.375L190.62,112.188L190.688,112.188L190.757,110.625L190.825,110.937L190.894,111.25L190.962,111.25L191.031,111.875L191.099,112.5L191.168,112.5L191.236,112.813L191.304,113.438L191.373,114.375L191.441,115L191.51,114.375L191.578,113.438L191.647,112.813L191.715,113.438L191.784,113.438L191.852,114.375L191.92,115L191.989,116.563L192.057,117.813L192.126,118.125L192.263,117.813L192.331,116.563L192.4,115.625L192.468,115.313L192.537,116.563L192.605,116.563L192.673,116.25L192.879,117.5L192.947,117.188L193.016,118.75L193.084,119.063L193.153,120.313L193.221,119.375L193.289,118.438L193.358,118.75L193.426,118.438L193.495,118.125L193.563,118.438L193.7,118.125L193.769,118.125L193.837,119.375L193.905,121.563L193.974,122.188L194.042,123.75L194.111,123.438L194.179,124.063L194.248,123.125L194.316,122.188L194.385,122.188L194.453,122.188L194.521,122.5L194.59,123.75L194.658,124.375L194.727,124.688L194.795,122.813L194.864,122.813L194.932,123.125L195.001,124.063L195.069,124.375L195.137,124.688L195.206,125L195.274,124.375L195.343,124.688L195.411,125.313L195.48,125.313L195.548,126.25L195.617,125.313L195.685,124.688L195.753,125.313L195.822,125.625L195.89,125.938L195.959,125.313L196.027,125.938L196.096,125.938L196.167,126.25L196.235,126.875L196.304,127.5L196.372,128.438L196.441,128.75L196.578,128.75L196.646,129.063L196.783,129.375L196.851,129.375L196.92,129.375L196.988,130.938L197.057,130.625L197.125,130L197.262,129.375L197.331,129.375L197.399,128.75L197.467,129.375L197.673,130.313L197.741,130.938L197.81,130.938L197.878,130.625L197.947,130L198.015,132.188L198.084,132.5L198.152,132.5L198.289,132.5L198.426,131.25L198.494,131.563L198.563,131.25L198.631,131.25L198.768,131.25L198.836,131.25L198.905,131.25L199.042,130.938L199.11,130.625L199.179,130.625L199.247,130.625L199.316,130.313L199.384,130.625L199.452,130L199.521,130.313L199.795,131.25L199.863,131.563L199.932,131.875L200,131.25L200.068,131.25L200.205,130.938L200.274,130L200.342,129.688L200.479,129.375L200.548,129.688L200.616,129.688L200.684,129.688L200.753,130.313L200.821,130.313L200.958,130.313L201.232,131.563L201.369,131.875L201.437,131.25L201.506,130.313L201.643,129.688L201.711,129.375L201.78,129.063L201.916,129.063L201.985,128.75" stroke="#4c78a8" stroke-width="2"/></g><g class="mark-group role-title"><g transform="translate(100,-17)"><path class="background" aria-hidden="true" d="M0,0h0v0h0Z" pointer-events="none"/><g><g class="mark-text role-title-text" role="graphics-symbol" aria-roledescription="title" aria-label="Title text 'Traffic: Drag Racing'" pointer-events="none"><text text-anchor="middle" transform="translate(0,10)" font-family="sans-serif" font-size="13px" font-weight="bold" fill="#000" opacity="1">Traffic: Drag Racing</text></g></g><path class="foreground" aria-hidden="true" d="" pointer-events="none" display="none"/></g></g></g><path class="foreground" aria-hidden="true" d="" display="none"/></g></g></g><defs><clipPath id="clip119"><rect x="0" y="0" width="200" height="150"/></clipPath></defs></svg>