<svg xmlns="http://www.w3.org/2000/svg" xmlns:xlink="http://www.w3.org/1999/xlink" version="1.1" class="marks" width="336" height="194" viewBox="0 0 336 194"><rect width="336" height="194" fill="white"/><g fill="none" stroke-miterlimit="10" transform="translate(68,22)"><g class="mark-group role-frame root" role="graphics-object" aria-roledescription="group mark container"><g transform="translate(0,0)"><path class="background" aria-hidden="true" d="M0,0h200v150h-200Z"/><g><g class="mark-group role-axis" aria-hidden="true"><g transform="translate(0.5,0.5)"><path class="background" aria-hidden="true" d="M0,0h0v0h0Z" pointer-events="none"/><g><g class="mark-rule role-axis-grid" pointer-events="none"><line transform="translate(0,150)" x2="200" y2="0" stroke="#ddd" stroke-width="1" opacity="1"/><line transform="translate(0,117)" x2="200" y2="0" stroke="#ddd" stroke-width="1" opacity="1"/><line transform="translate(0,83)" x2="200" y2="0" stroke="#ddd" stroke-width="1" opacity="1"/><line transform="translate(0,50)" x2="200" y2="0" stroke="#ddd" stroke-width="1" opacity="1"/><line transform="translate(0,17)" x2="200" y2="0" stroke="#ddd" stroke-width="1" opacity="1"/></g></g><path class="foreground" aria-hidden="true" d="" pointer-events="none" display="none"/></g></g><g class="mark-group role-axis" role="graphics-symbol" aria-roledescription="axis" aria-label="X-axis for a time scale with values from Friday, 01 January 2016, 12:00:00 AM to Monday, 01 January 2024, 12:00:00 AM"><g transform="translate(0.5,150.5)"><path class="background" aria-hidden="true" d="M0,0h0v0h0Z" pointer-events="none"/><g><g class="mark-rule role-axis-tick" pointer-events="none"><line transform="translate(0,0)" x2="0" y2="5" stroke="#888" stroke-width="1" opacity="1"/><line transform="translate(50,0)" x2="0" y2="5" stroke="#888" stroke-width="1" opacity="1"/><line transform="translate(100,0)" x2="0" y2="5" stroke="#888" stroke-width="1" opacity="1"/><line transform="translate(150,0)" x2="0" y2="5" stroke="#888" stroke-width="1" opacity="1"/><line transform="translate(200,0)" x2="0" y2="5" stroke="#888" stroke-width="1" opacity="1"/></g><g class="mark-text role-axis-label" pointer-events="none"><text text-anchor="start" transform="translate(0,15)" font-family="sans-serif" font-size="10px" fill="#000" opacity="1">2016</text><text text-anchor="middle" transform="translate(50.03422313483915,15)" font-family="sans-serif" font-size="10px" fill="#000" opacity="1">2018</text><text text-anchor="middle" transform="translate(100,15)" font-family="sans-serif" font-size="10px" fill="#000" opacity="1">2020</text><text text-anchor="middle" transform="translate(150.03422313483915,15)" font-family="sans-serif" font-size="10px" fill="#000" opacity="1">2022</text><text text-anchor="end" transform="translate(200,15)" font-family="sans-serif" font-size="10px" fill="#000" opacity="1">2024</text></g><g class="mark-rule role-axis-domain" pointer-events="none"><line transform="translate(0,0)" x2="200" y2="0" stroke="#888" stroke-width="1" opacity="1"/></g></g><path class="foreground" aria-hidden="true" d="" pointer-events="none" display="none"/></g></g><g class="mark-group role-axis" role="graphics-symbol" aria-roledescription="axis" aria-label="Y-axis for a linear scale with values from 0 to 9"><g transform="translate(0.5,0.5)"><path class="background" aria-hidden="true" d="M0,0h0v0h0Z" pointer-events="none"/><g><g class="mark-rule role-axis-tick" pointer-events="none"><line transform="translate(0,150)" x2="-5" y2="0" stroke="#888" stroke-opacity="0" stroke-width="1" opacity="1"/><line transform="translate(0,117)" x2="-5" y2="0" stroke="#888" stroke-opacity="0" stroke-width="1" opacity="1"/><line transform="translate(0,83)" x2="-5" y2="0" stroke="#888" stroke-opacity="0" stroke-width="1" opacity="1"/><line transform="translate(0,50)" x2="-5" y2="0" stroke="#888" stroke-opacity="0" stroke-width="1" opacity="1"/><line transform="translate(0,17)" x2="-5" y2="0" stroke="#888" stroke-opacity="0" stroke-width="1" opacity="1"/></g><g class="mark-text role-axis-label" pointer-events="none"><text text-anchor="end" transform="translate(-7,153)" font-family="sans-serif" font-size="10px" fill="#000" opacity="1">0</text><text text-anchor="end" transform="translate(-7,119.66666666666667)" font-family="sans-serif" font-size="10px" fill="#000" opacity="1">2</text><text text-anchor="end" transform="translate(-7,86.33333333333334)" font-family="sans-serif" font-size="10px" fill="#000" opacity="1">4</text><text text-anchor="end" transform="translate(-7,53.00000000000001)" font-family="sans-serif" font-size="10px" fill="#000" opacity="1">6</text><text text-anchor="end" transform="translate(-7,19.666666666666675)" font-family="sans-serif" font-size="10px" fill="#000" opacity="1">8</text></g></g><path class="foreground" aria-hidden="true" d="" pointer-events="none" display="none"/></g></g><g class="mark-line role-mark marks" clip-path="url(#clip120)" role="graphics-object" aria-roledescription="line mark container"><path aria-label="day: Jan 01, 2010; avg: 1.73333333333" role="graphics-symbol" aria-roledescription="line mark" d="M-149.966,121.111L-149.76,121.111L-149.555,120.556L-149.418,120.556L-149.281,120.556L-149.213,120L-149.008,120L-148.802,120L-148.734,119.444L-148.392,120.556L-148.255,120.556L-148.118,121.111L-148.049,121.667L-147.912,121.111L-147.844,120.556L-147.775,120L-147.707,121.111L-147.502,121.111L-147.365,121.667L-147.296,121.111L-147.228,121.111L-147.159,120L-147.091,120L-146.886,120.556L-146.817,121.111L-146.749,121.111L-146.68,120L-146.612,121.111L-146.475,122.222L-146.338,122.222L-146.27,122.222L-146.201,122.222L-145.927,122.222L-145.859,121.667L-145.791,121.667L-145.722,121.667L-145.654,121.667L-145.448,122.222L-145.38,122.222L-145.243,122.778L-145.175,121.111L-144.972,121.111L-144.904,121.111L-144.63,120.556L-144.493,120.556L-144.424,120.556L-144.356,121.111L-144.219,120.556L-144.082,120.556L-144.014,120.556L-143.945,120.556L-143.877,120.556L-143.808,120.556L-143.672,120.556L-143.603,120L-143.535,120.556L-143.466,118.889L-143.398,118.889L-143.329,118.333L-143.261,117.778L-143.192,117.778L-143.056,117.778L-142.987,117.778L-142.919,117.778L-142.85,116.667L-142.782,117.222L-142.645,117.222L-142.576,117.222L-142.508,117.778L-142.44,117.778L-142.371,117.778L-142.303,118.889L-142.097,117.778L-142.029,118.889L-141.96,119.444L-141.892,118.889L-141.824,118.333L-141.687,118.889L-141.618,118.333L-141.55,118.889L-141.481,118.889L-141.276,120L-141.208,120L-141.139,120L-141.071,119.444L-141.002,118.889L-140.934,121.667L-140.865,122.222L-140.591,122.778L-140.386,121.667L-140.318,121.111L-140.249,120L-140.181,120L-140.112,120.556L-140.044,121.667L-139.975,121.111L-139.839,121.111L-139.702,119.444L-139.633,119.444L-139.565,118.889L-139.496,120.556L-139.428,120L-139.359,120L-139.291,119.444L-139.223,118.889L-139.154,119.444L-139.086,118.889L-139.017,118.333L-138.949,118.889L-138.88,118.889L-138.743,118.889L-138.675,118.333L-138.607,117.778L-138.47,117.778L-138.401,117.222L-138.196,115.556L-138.059,115.556L-137.991,113.889L-137.785,113.333L-137.648,114.444L-137.511,115L-137.238,113.333L-137.169,113.889L-137.101,113.889L-137.032,112.778L-136.895,113.333L-136.827,113.333L-136.69,115L-136.485,115L-136.348,115.556L-136.279,115L-136.211,115L-136.074,115L-136.006,115L-135.937,115.556L-135.869,113.889L-135.8,113.889L-135.663,115L-135.39,115L-135.321,115L-135.253,115.556L-135.184,116.111L-135.116,116.667L-134.91,115.556L-134.842,116.667L-134.774,118.889L-134.705,118.333L-134.637,119.444L-134.568,118.889L-134.5,118.889L-134.431,118.889L-134.363,121.667L-134.294,121.667L-134.226,121.111L-134.158,120.556L-134.089,120.556L-133.884,120.556L-133.815,120.556L-133.747,118.889L-133.678,117.222L-133.473,117.778L-133.405,118.333L-133.336,118.333L-133.268,118.889L-133.199,116.667L-133.131,118.889L-133.062,120L-132.994,120L-132.926,120L-132.857,120L-132.789,120L-132.72,120L-132.652,119.444L-132.378,120.556L-132.241,121.111L-132.173,121.111L-132.104,121.667L-132.036,122.222L-131.693,123.333L-131.625,122.778L-131.557,121.111L-131.42,121.111L-131.283,120.556L-131.214,120L-131.077,121.667L-131.009,121.667L-130.941,121.667L-130.872,121.667L-130.804,122.778L-130.735,124.444L-130.667,123.889L-130.461,123.889L-130.393,123.889L-130.325,123.333L-130.119,125L-129.845,124.444L-129.777,123.889L-129.64,123.333L-129.572,122.222L-129.503,122.222L-129.435,120.556L-129.298,119.444L-129.161,119.444L-129.093,119.444L-129.024,119.444L-128.956,117.222L-128.75,117.222L-128.679,116.667L-128.611,116.111L-128.542,116.111L-128.474,117.778L-128.268,117.778L-128.2,118.333L-128.063,119.444L-127.995,119.444L-127.926,119.444L-127.858,118.333L-127.789,118.333L-127.721,118.889L-127.584,118.333L-127.515,118.889L-127.447,118.333L-127.242,118.889L-127.173,118.333L-127.105,118.333L-127.036,118.333L-126.968,117.778L-126.899,116.667L-126.831,117.222L-126.762,116.667L-126.694,117.778L-126.557,118.889L-126.489,119.444L-126.352,119.444L-126.283,118.333L-126.215,120.556L-126.146,120L-126.078,120L-126.01,118.889L-125.941,118.889L-125.873,118.333L-125.804,118.333L-125.736,118.333L-125.599,117.778L-125.257,117.778L-125.12,117.222L-124.846,118.333L-124.641,118.333L-124.504,117.778L-124.435,117.222L-124.367,116.111L-124.298,115.556L-124.23,115.556L-124.093,116.667L-123.614,117.222L-123.34,117.222L-123.272,117.778L-123.203,119.444L-122.998,120L-122.93,120.556L-122.861,121.111L-122.793,121.111L-122.656,120.556L-122.45,120.556L-122.382,121.667L-122.313,121.667L-122.245,120.556L-121.903,121.111L-121.834,122.778L-121.766,123.889L-121.629,124.444L-121.561,123.333L-121.492,123.333L-121.424,122.778L-121.355,122.222L-121.287,122.778L-121.218,122.222L-121.15,121.111L-121.081,121.111L-121.013,122.222L-120.945,123.333L-120.876,123.889L-120.808,124.444L-120.739,124.444L-120.602,123.889L-120.534,123.333L-120.397,123.889L-120.329,123.333L-120.192,122.222L-120.123,121.111L-119.852,120L-119.784,120L-119.578,120.556L-119.51,120.556L-119.442,119.444L-119.373,118.889L-119.099,120L-118.962,120L-118.826,119.444L-118.757,119.444L-118.62,117.222L-118.552,116.667L-118.483,116.111L-118.415,116.667L-118.141,117.222L-118.073,116.667L-118.004,116.667L-117.662,117.778L-117.457,117.778L-117.32,117.778L-117.183,117.222L-116.909,117.778L-116.841,116.667L-116.704,116.111L-116.498,116.667L-116.43,117.778L-116.225,117.222L-116.156,117.222L-116.019,117.222L-115.951,117.778L-115.882,118.889L-115.814,118.333L-115.54,118.333L-115.266,117.778L-115.198,118.889L-115.129,119.444L-115.061,120L-114.993,119.444L-114.924,120L-114.787,119.444L-114.719,120.556L-114.65,121.667L-114.582,120.556L-114.445,120.556L-114.308,120.556L-114.24,121.111L-114.171,120.556L-114.103,117.778L-113.897,116.667L-113.761,115L-113.692,115L-113.624,113.889L-113.487,115L-113.418,114.444L-113.35,114.444L-113.213,114.444L-113.145,112.778L-113.008,112.778L-112.939,113.889L-112.871,113.889L-112.802,112.778L-112.734,113.333L-112.665,112.778L-112.46,112.778L-112.392,112.778L-112.323,112.778L-112.186,112.222L-112.118,112.778L-111.844,112.778L-111.776,113.333L-111.707,113.889L-111.639,114.444L-111.57,115L-111.502,115.556L-111.296,115L-110.886,115L-110.817,116.111L-110.749,118.333L-110.68,120L-110.544,121.667L-110.407,122.222L-110.338,123.333L-110.27,123.333L-109.996,124.444L-109.928,123.333L-109.791,123.333L-109.722,125L-109.654,123.889L-109.448,122.778L-109.38,123.333L-109.312,124.444L-109.243,123.889L-109.175,124.444L-108.832,123.889L-108.764,123.889L-108.49,122.778L-108.285,122.778L-108.148,122.778L-108.011,122.778L-107.943,121.667L-107.874,122.222L-107.806,122.222L-107.532,123.333L-107.463,122.222L-107.395,122.778L-107.327,122.222L-107.258,121.667L-107.121,122.222L-106.984,122.222L-106.916,122.222L-106.779,121.667L-106.642,121.111L-106.574,120.556L-106.437,119.444L-106.231,120.556L-106.163,120L-106.026,120.556L-105.958,122.222L-105.889,122.222L-105.752,122.222L-105.615,122.222L-105.547,122.778L-105.41,122.778L-105.342,123.889L-105.205,122.778L-105.136,123.889L-105.068,124.444L-104.999,124.444L-104.657,123.889L-104.589,123.889L-104.452,123.889L-104.247,123.889L-104.178,123.889L-104.041,124.444L-103.973,123.333L-103.904,121.667L-103.696,121.667L-103.559,121.667L-103.491,121.667L-103.422,121.111L-103.354,121.667L-103.08,122.222L-103.012,122.222L-102.943,122.778L-102.875,121.667L-102.806,122.222L-102.738,121.111L-102.669,121.111L-102.601,121.667L-102.533,120.556L-102.327,120L-102.259,118.889L-102.19,118.889L-102.122,118.889L-101.985,119.444L-101.574,119.444L-101.506,118.889L-101.437,118.333L-101.3,118.889L-101.164,119.444L-101.095,117.222L-101.027,116.111L-100.958,116.111L-100.821,116.111L-100.753,116.111L-100.684,117.222L-100.548,117.222L-100.479,116.667L-100.274,116.111L-100.205,116.111L-100,115.556L-99.658,115L-99.521,115.556L-99.384,116.111L-99.247,117.222L-99.11,117.222L-98.973,117.778L-98.905,117.778L-98.836,117.778L-98.7,118.333L-98.426,117.778L-98.357,118.333L-98.22,118.333L-98.152,118.333L-98.084,118.889L-97.947,118.333L-97.81,118.889L-97.741,119.444L-97.673,118.333L-97.536,118.889L-97.467,120.556L-97.262,121.667L-97.194,121.667L-96.988,122.222L-96.92,123.333L-96.851,124.444L-96.783,125L-96.715,123.889L-96.578,124.444L-96.304,124.444L-96.099,125L-96.03,123.889L-95.962,123.889L-95.893,123.889L-95.825,123.889L-95.756,123.889L-95.688,124.444L-95.619,123.889L-95.551,124.444L-95.483,125L-95.346,125L-95.143,125.556L-95.075,125.556L-94.938,125L-94.869,124.444L-94.732,125L-94.664,123.889L-94.596,123.333L-94.527,124.444L-94.459,123.889L-94.39,124.444L-94.322,124.444L-94.253,123.889L-94.116,122.778L-94.048,122.778L-93.98,121.667L-93.843,121.667L-93.774,122.778L-93.706,122.222L-93.637,122.778L-93.569,122.778L-93.432,124.444L-93.295,123.889L-93.227,123.889L-93.158,122.222L-93.09,122.222L-93.021,120.556L-92.953,120.556L-92.884,119.444L-92.611,119.444L-92.2,120.556L-92.132,120.556L-92.063,120.556L-91.995,121.111L-91.926,118.889L-91.721,118.889L-91.652,119.444L-91.584,118.889L-91.516,118.889L-91.447,119.444L-91.379,118.889L-91.31,118.889L-91.242,119.444L-91.173,120.556L-91.105,120L-91.036,121.111L-90.831,120.556L-90.763,121.111L-90.694,121.667L-90.626,121.667L-90.557,121.111L-90.352,119.444L-90.283,119.444L-90.147,119.444L-90.078,120.556L-89.736,120.556L-89.667,121.667L-89.599,121.667L-89.531,120.556L-89.462,119.444L-89.394,117.778L-89.325,117.778L-89.257,117.778L-89.188,117.778L-89.12,120L-89.051,120L-88.983,118.889L-88.915,119.444L-88.846,118.889L-88.778,118.333L-88.709,118.889L-88.641,118.889L-88.572,118.333L-88.435,118.333L-88.299,118.333L-88.093,118.333L-88.025,117.778L-87.956,116.111L-87.888,115.556L-87.819,115.556L-87.751,116.111L-87.614,117.778L-87.477,117.222L-87.409,117.222L-87.34,117.778L-87.272,117.222L-86.998,117.778L-86.93,117.778L-86.861,119.444L-86.724,120.556L-86.656,122.222L-86.519,122.222L-86.45,122.222L-86.382,121.111L-86.04,121.667L-85.971,121.111L-85.903,122.778L-85.834,122.778L-85.766,123.333L-85.698,123.889L-85.629,123.333L-85.492,123.333L-85.424,123.889L-85.287,123.889L-85.082,123.333L-85.013,123.333L-84.945,124.444L-84.876,126.111L-84.739,126.111L-84.671,125.556L-84.602,125L-84.534,125L-84.329,126.111L-84.26,126.111L-84.192,125.556L-84.123,125.556L-84.055,125L-83.986,125.556L-83.85,126.111L-83.781,125L-83.713,125L-83.644,125L-83.576,123.333L-83.439,123.333L-83.37,123.333L-83.165,123.889L-83.097,123.333L-83.028,123.889L-82.96,123.889L-82.754,123.889L-82.617,123.333L-82.549,123.333L-82.481,122.222L-82.412,121.667L-82.344,122.222L-82.275,121.111L-82.207,121.111L-82.138,121.111L-82.001,121.667L-81.796,122.222L-81.728,122.778L-81.591,122.222L-81.522,122.222L-81.454,120.556L-81.317,121.111L-81.249,121.667L-81.18,122.222L-81.112,121.111L-81.043,120.556L-80.975,121.667L-80.906,121.667L-80.769,121.667L-80.633,123.333L-80.496,124.444L-80.359,124.444L-80.222,124.444L-80.153,124.444L-80.085,124.444L-79.948,124.444L-79.88,123.889L-79.811,123.889L-79.743,121.111L-79.674,122.222L-79.606,122.778L-79.537,123.333L-79.469,124.444L-79.195,123.889L-79.127,123.889L-78.921,123.889L-78.85,123.889L-78.782,123.889L-78.645,123.889L-78.576,123.889L-78.508,125L-78.371,124.444L-78.234,124.444L-78.166,124.444L-78.097,124.444L-78.029,125L-77.892,124.444L-77.823,123.333L-77.755,122.778L-77.618,122.222L-77.344,122.222L-77.276,121.667L-77.207,120.556L-77.139,120.556L-77.07,120.556L-77.002,120.556L-76.865,120.556L-76.797,121.111L-76.591,123.889L-76.523,123.333L-76.454,122.222L-76.386,122.222L-76.318,121.667L-76.249,122.222L-76.112,122.222L-75.975,122.222L-75.907,121.667L-75.702,121.667L-75.565,122.222L-75.359,122.222L-74.949,121.667L-74.88,122.222L-74.812,121.667L-74.675,121.111L-74.606,121.667L-74.538,121.667L-74.401,122.222L-74.333,123.333L-74.059,123.889L-73.99,124.444L-73.922,122.778L-73.854,123.333L-73.785,123.333L-73.717,123.889L-73.648,123.889L-73.511,123.889L-73.443,124.444L-73.374,124.444L-73.306,124.444L-73.238,124.444L-73.169,125.556L-73.101,122.778L-73.032,122.778L-72.895,122.778L-72.827,121.111L-72.758,121.111L-72.621,121.111L-72.553,121.111L-72.485,121.111L-72.416,121.111L-72.279,122.222L-72.142,122.222L-72.074,121.111L-71.869,121.667L-71.732,122.222L-71.663,122.222L-71.595,122.222L-71.526,121.667L-71.253,121.111L-71.184,121.111L-71.116,122.778L-71.047,122.778L-70.979,123.889L-70.91,123.333L-70.842,123.333L-70.705,123.333L-70.637,122.778L-70.568,122.778L-70.5,121.667L-70.431,121.111L-70.229,121.111L-70.16,123.889L-70.092,124.444L-69.886,123.889L-69.75,123.333L-69.613,121.667L-69.476,121.111L-69.407,121.111L-69.27,118.889L-69.202,118.889L-69.134,118.889L-68.723,118.333L-68.654,119.444L-68.586,119.444L-68.518,118.889L-68.381,118.889L-68.312,116.667L-68.244,116.667L-68.175,116.111L-68.107,115.556L-68.038,115.556L-67.902,115.556L-67.696,114.444L-67.628,115L-67.559,115L-67.491,114.444L-67.422,114.444L-67.217,115L-66.875,116.111L-66.806,117.222L-66.738,116.111L-66.601,115.556L-66.533,115.556L-66.396,116.111L-66.327,117.778L-66.259,118.333L-66.19,119.444L-66.122,118.889L-65.917,120.556L-65.848,120L-65.78,120L-65.711,120L-65.643,120.556L-65.574,120L-65.506,120L-65.437,120L-65.369,121.111L-65.301,121.667L-65.164,122.778L-65.095,123.333L-64.958,122.778L-64.89,121.667L-64.753,122.222L-64.411,122.222L-64.342,120.556L-64.274,120.556L-64.205,118.889L-64,118.333L-63.932,118.333L-63.863,118.333L-63.795,119.444L-63.726,119.444L-63.658,119.444L-63.521,119.444L-63.453,119.444L-63.316,120L-63.247,120L-63.179,119.444L-63.042,120L-62.973,120L-62.905,119.444L-62.837,119.444L-62.631,119.444L-62.494,120L-62.426,119.444L-62.221,117.778L-62.084,118.333L-62.015,118.333L-61.947,118.333L-61.878,118.333L-61.81,118.889L-61.741,118.889L-61.673,119.444L-61.604,119.444L-61.468,121.111L-61.331,120L-61.125,120L-61.057,118.889L-60.988,117.778L-60.92,117.222L-60.852,117.222L-60.715,117.222L-60.646,116.667L-60.578,116.667L-60.372,116.667L-60.167,117.222L-60.099,117.222L-60.03,118.333L-59.962,118.333L-59.893,118.889L-59.825,118.889L-59.756,118.889L-59.688,118.889L-59.62,117.778L-59.551,118.889L-59.483,120.556L-59.414,121.111L-59.346,121.111L-59.277,121.111L-59.209,120L-59.14,118.889L-59.072,120L-58.935,120L-58.798,120L-58.73,119.444L-58.661,120.556L-58.593,122.778L-58.524,123.333L-58.456,124.444L-58.388,123.889L-58.319,123.889L-58.251,123.333L-58.182,123.889L-57.977,122.222L-57.84,122.778L-57.703,119.444L-57.635,118.889L-57.566,118.889L-57.498,118.889L-57.429,118.333L-57.292,118.889L-57.224,118.889L-57.155,118.889L-56.95,120L-56.882,120L-56.813,119.444L-56.745,118.889L-56.676,118.333L-56.608,117.778L-56.539,117.778L-56.471,118.333L-56.266,117.222L-56.197,116.667L-56.129,116.111L-55.992,115.556L-55.923,115.556L-55.855,115.556L-55.718,115.556L-55.65,115.556L-55.581,116.667L-55.444,116.667L-55.376,117.778L-55.307,117.222L-55.171,118.889L-55.102,118.889L-55.034,121.667L-54.965,121.667L-54.897,121.667L-54.828,121.667L-54.76,121.667L-54.691,120.556L-54.623,118.889L-54.555,118.333L-54.486,117.222L-54.418,117.222L-54.349,117.222L-54.281,117.778L-54.212,116.667L-54.144,117.222L-54.075,117.778L-53.936,118.333L-53.799,119.444L-53.73,118.889L-53.662,119.444L-53.593,120L-53.457,120.556L-53.388,120.556L-53.32,121.667L-53.046,121.111L-52.841,120.556L-52.772,118.889L-52.704,118.333L-52.498,118.333L-52.156,118.333L-52.019,118.333L-51.951,118.889L-51.814,119.444L-51.745,119.444L-51.677,118.333L-51.54,118.889L-51.472,120L-51.403,121.111L-51.266,121.667L-51.061,121.667L-50.992,121.111L-50.924,121.111L-50.856,120.556L-50.787,121.111L-50.582,121.111L-50.513,121.111L-50.445,121.111L-50.103,121.111L-49.966,121.667L-49.897,121.667L-49.829,122.222L-49.76,121.667L-49.692,121.667L-49.624,121.667L-49.555,121.667L-49.487,122.222L-49.418,123.333L-49.35,123.889L-49.281,124.444L-49.213,123.889L-49.144,123.333L-49.076,123.333L-49.008,122.778L-48.939,122.222L-48.802,123.333L-48.665,123.333L-48.528,121.111L-48.392,121.667L-48.186,121.111L-48.118,122.222L-48.049,121.667L-47.844,122.222L-47.433,121.111L-47.296,121.667L-47.228,121.667L-47.159,122.222L-47.091,121.667L-47.023,121.111L-46.749,121.667L-46.68,121.667L-46.407,121.667L-46.27,122.222L-46.201,121.667L-46.133,121.667L-46.064,121.667L-45.996,121.667L-45.927,121.111L-45.791,120.556L-45.654,120.556L-45.585,121.111L-45.448,121.667L-45.314,121.667L-45.246,122.222L-45.04,121.667L-44.904,121.667L-44.835,120.556L-44.698,122.778L-44.63,122.222L-44.561,122.222L-44.424,121.111L-44.219,120.556L-44.151,120.556L-43.945,121.667L-43.877,121.111L-43.74,120L-43.672,120L-43.603,120.556L-43.466,120.556L-43.329,120.556L-43.261,120.556L-43.192,120L-43.056,120L-42.987,120L-42.919,119.444L-42.85,119.444L-42.782,118.333L-42.713,118.889L-42.645,118.333L-42.576,118.333L-42.508,118.333L-42.44,117.778L-42.371,116.667L-42.303,116.111L-42.234,116.111L-42.166,116.111L-42.097,116.667L-42.029,116.667L-41.96,117.778L-41.892,117.222L-41.824,117.778L-41.618,118.889L-41.55,117.778L-41.481,117.222L-41.413,116.667L-41.344,117.222L-41.276,117.222L-41.208,116.667L-41.071,116.667L-41.002,116.667L-40.934,113.333L-40.865,113.333L-40.797,112.778L-40.728,112.778L-40.591,112.778L-40.523,112.778L-40.318,112.778L-40.249,113.333L-40.181,112.778L-39.975,112.222L-39.907,110.556L-39.839,110.556L-39.77,111.667L-39.633,111.111L-39.565,111.111L-39.496,111.111L-39.428,111.667L-39.359,111.667L-39.291,111.111L-39.223,111.667L-39.154,112.222L-39.086,112.778L-39.017,113.889L-38.949,115L-38.88,116.111L-38.812,116.667L-38.743,116.667L-38.607,117.222L-38.538,117.778L-38.47,116.667L-38.401,119.444L-38.333,118.889L-38.196,117.778L-38.127,117.778L-38.059,118.333L-37.991,118.333L-37.922,117.778L-37.648,116.667L-37.58,117.222L-37.443,117.778L-37.306,119.444L-37.238,120L-37.169,120L-37.101,121.111L-37.032,121.667L-36.895,121.667L-36.69,119.444L-36.622,119.444L-36.553,118.889L-36.485,119.444L-36.416,119.444L-36.279,119.444L-36.211,118.889L-36.142,117.222L-36.074,116.667L-36.006,116.667L-35.8,115L-35.732,115L-35.595,115L-35.458,115.556L-35.253,115.556L-35.184,116.667L-35.116,117.222L-35.047,115.556L-34.979,115.556L-34.91,115.556L-34.842,116.667L-34.774,116.667L-34.705,117.778L-34.637,117.778L-34.568,117.222L-34.5,115.556L-34.431,115.556L-34.363,115L-34.226,113.889L-34.158,111.667L-34.089,112.778L-34.021,112.778L-33.884,112.778L-33.747,112.778L-33.678,111.667L-33.61,109.444L-33.542,109.444L-33.405,111.111L-33.336,112.222L-33.268,111.111L-33.199,112.222L-33.062,112.222L-32.994,111.667L-32.926,112.222L-32.789,112.222L-32.652,111.111L-32.515,111.667L-32.446,113.889L-32.378,113.333L-32.173,113.333L-32.104,113.889L-32.036,115L-31.967,114.444L-31.899,114.444L-31.762,115L-31.625,115L-31.488,115L-31.42,115.556L-31.351,116.111L-31.283,118.333L-31.214,118.889L-31.146,118.889L-31.077,120L-30.941,118.333L-30.872,118.333L-30.804,120.556L-30.735,119.444L-30.667,118.889L-30.598,118.889L-30.53,119.444L-30.461,119.444L-30.393,119.444L-30.325,118.889L-30.188,118.889L-30.119,118.333L-29.982,119.444L-29.914,119.444L-29.845,118.333L-29.777,118.889L-29.709,118.333L-29.64,117.778L-29.503,117.778L-29.435,117.778L-29.366,115.556L-29.298,115.556L-29.229,117.222L-29.161,117.222L-29.093,116.111L-29.021,115L-28.953,115L-28.884,115.556L-28.816,114.444L-28.679,114.444L-28.474,113.889L-28.337,113.889L-28.268,113.889L-28.2,114.444L-28.131,113.889L-28.063,113.889L-27.995,114.444L-27.926,115L-27.858,115L-27.789,115.556L-27.652,115.556L-27.584,116.111L-27.515,115.556L-27.447,114.444L-27.173,115.556L-27.105,115L-27.036,115.556L-26.968,116.111L-26.899,116.111L-26.831,116.667L-26.762,118.333L-26.626,117.778L-26.42,117.222L-26.352,116.111L-26.283,117.222L-26.215,119.444L-26.078,118.889L-26.01,118.333L-25.941,118.333L-25.873,117.778L-25.804,120L-25.736,121.111L-25.599,120L-25.53,121.111L-25.462,122.222L-25.257,121.111L-25.188,117.222L-25.12,116.667L-25.051,116.667L-24.983,116.667L-24.914,115.556L-24.641,116.111L-24.504,116.667L-24.435,118.333L-24.298,118.333L-24.093,117.778L-23.956,117.222L-23.888,117.222L-23.819,117.222L-23.751,116.111L-23.614,116.111L-23.477,115L-23.135,115.556L-22.998,116.667L-22.793,115L-22.724,113.889L-22.656,113.889L-22.587,114.444L-22.519,115.556L-22.382,115.556L-22.313,115L-22.177,114.444L-22.108,113.889L-21.903,113.889L-21.834,113.333L-21.697,113.333L-21.629,116.667L-21.424,117.222L-21.287,116.667L-21.218,116.667L-21.013,116.667L-20.945,115L-20.876,115L-20.808,113.889L-20.739,112.778L-20.671,112.778L-20.602,112.778L-20.534,112.778L-20.465,112.222L-20.4,112.778L-20.331,112.778L-20.195,114.444L-20.126,113.889L-19.921,112.222L-19.852,113.333L-19.715,113.889L-19.647,114.444L-19.51,110.556L-19.442,109.444L-19.373,108.889L-19.305,108.889L-19.168,108.889L-19.099,110.556L-18.962,110.556L-18.894,110.556L-18.757,109.444L-18.689,108.889L-18.62,107.222L-18.552,107.778L-18.415,106.667L-18.346,107.778L-18.278,108.333L-18.141,107.778L-18.073,107.222L-18.004,107.778L-17.936,108.333L-17.73,108.333L-17.662,108.333L-17.594,108.889L-17.457,107.778L-17.388,106.667L-17.32,106.111L-17.251,106.111L-17.183,107.778L-17.046,108.333L-16.978,107.222L-16.909,106.667L-16.841,110.556L-16.772,111.111L-16.635,111.111L-16.567,111.111L-16.498,111.111L-16.43,109.444L-16.293,109.444L-16.225,107.778L-16.088,109.444L-15.951,108.889L-15.882,110.556L-15.814,110L-15.745,110.556L-15.677,109.444L-15.609,110.556L-15.54,110.556L-15.472,111.667L-15.403,111.111L-15.335,111.111L-15.266,112.222L-15.198,111.667L-15.061,111.667L-14.993,113.333L-14.856,115L-14.787,114.444L-14.719,112.222L-14.65,112.222L-14.582,112.222L-14.513,112.778L-14.445,112.222L-14.24,111.667L-14.171,112.222L-14.103,113.333L-14.034,111.667L-13.897,111.667L-13.761,111.667L-13.624,111.667L-13.555,112.222L-13.487,112.222L-13.418,113.333L-13.35,112.222L-13.213,112.778L-13.076,113.333L-13.008,113.889L-12.871,113.333L-12.802,113.889L-12.665,114.444L-12.597,115L-12.529,115.556L-12.46,115.556L-12.392,116.111L-12.255,115.556L-12.186,115.556L-12.118,113.889L-12.049,115L-11.981,117.222L-11.913,116.667L-11.776,116.667L-11.639,117.222L-11.502,117.222L-11.433,117.778L-11.365,116.667L-11.296,115.556L-11.228,113.333L-11.091,112.778L-10.886,114.444L-10.817,114.444L-10.749,115L-10.68,115L-10.544,115.556L-10.475,116.667L-10.407,115.556L-10.201,115L-10.133,115L-9.996,113.333L-9.859,111.667L-9.791,110.556L-9.722,109.444L-9.654,108.889L-9.585,107.222L-9.448,107.222L-9.38,107.778L-9.312,107.778L-9.243,108.333L-9.175,107.778L-8.969,107.778L-8.901,107.778L-8.764,107.222L-8.696,107.778L-8.627,108.333L-8.559,108.333L-8.49,108.889L-8.422,108.889L-8.353,113.333L-8.285,113.889L-8.216,113.333L-8.148,112.778L-8.08,113.333L-8.011,112.778L-7.943,112.778L-7.874,112.778L-7.806,113.333L-7.737,113.333L-7.669,112.222L-7.6,114.444L-7.532,113.889L-7.463,112.778L-7.395,113.333L-7.258,113.889L-7.19,115L-7.121,114.444L-7.053,114.444L-6.984,114.444L-6.916,115.556L-6.847,114.444L-6.779,113.889L-6.711,114.444L-6.642,113.889L-6.505,112.778L-6.437,113.333L-6.368,111.667L-6.3,112.222L-6.231,112.222L-6.163,109.444L-6.026,106.667L-5.958,106.111L-5.889,106.111L-5.821,106.667L-5.752,106.667L-5.684,106.111L-5.615,105L-5.547,105.556L-5.41,106.111L-5.342,106.667L-5.273,106.111L-5.205,107.222L-5.068,108.889L-4.999,108.889L-4.863,108.889L-4.794,109.444L-4.726,110L-4.657,107.778L-4.589,107.778L-4.52,107.222L-4.452,107.778L-4.383,107.778L-4.315,107.778L-4.247,107.222L-4.178,107.778L-4.107,107.222L-4.038,107.222L-3.97,107.222L-3.901,108.333L-3.833,110.556L-3.765,111.667L-3.628,112.778L-3.559,113.333L-3.491,113.333L-3.422,113.889L-3.354,113.333L-3.285,112.778L-3.217,111.111L-3.149,111.111L-3.08,111.111L-3.012,111.111L-2.875,112.222L-2.806,112.778L-2.738,113.333L-2.669,113.333L-2.601,112.778L-2.533,112.778L-2.464,113.889L-2.396,113.889L-2.259,111.667L-2.19,112.778L-2.122,113.333L-1.985,112.778L-1.848,113.333L-1.78,112.778L-1.711,113.333L-1.643,113.333L-1.574,113.333L-1.506,111.111L-1.437,111.111L-1.369,112.778L-1.3,112.222L-1.232,111.667L-1.164,110.556L-1.095,111.111L-1.027,110L-0.821,110.556L-0.753,112.222L-0.684,112.778L-0.616,113.333L-0.548,112.222L-0.479,110L-0.411,108.889L-0.342,107.222L-0.274,107.222L-0.205,106.667L-0.137,105.556L0,105.556L0.068,103.889L0.137,106.111L0.205,104.444L0.274,103.333L0.411,100.556L0.479,101.667L0.548,102.778L0.616,102.222L0.684,103.889L0.821,103.333L0.89,105.556L0.958,103.889L1.027,103.889L1.095,103.889L1.164,103.889L1.232,105L1.3,103.889L1.369,105.556L1.437,106.667L1.506,106.667L1.574,106.667L1.643,106.667L1.78,106.111L1.848,107.222L1.916,107.222L1.985,107.222L2.053,106.667L2.122,107.778L2.19,107.778L2.259,106.667L2.327,107.778L2.396,105.556L2.464,106.667L2.533,107.778L2.601,110L2.669,110L2.806,108.889L2.875,108.889L2.943,107.778L3.012,108.333L3.08,105.556L3.149,107.222L3.217,107.222L3.285,107.222L3.354,107.778L3.422,107.222L3.491,107.222L3.559,107.222L3.628,106.667L3.765,105.556L3.833,105L3.901,104.444L3.97,105.556L4.038,103.889L4.107,104.444L4.175,105L4.244,105.556L4.312,104.444L4.381,104.444L4.449,106.667L4.517,106.667L4.586,106.667L4.654,106.111L4.723,106.111L4.791,107.222L4.86,106.667L4.928,106.667L4.994,106.667L5.062,107.778L5.131,107.222L5.199,109.444L5.268,108.333L5.336,107.222L5.404,106.111L5.473,104.444L5.541,102.778L5.61,103.333L5.678,103.889L5.747,104.444L5.815,105L5.884,102.222L5.952,102.222L6.02,103.333L6.089,105L6.157,105.556L6.226,106.667L6.363,106.667L6.431,107.778L6.5,108.333L6.568,106.667L6.636,107.222L6.705,110L6.773,111.111L6.842,111.667L6.91,111.111L6.979,111.111L7.047,110.556L7.116,110.556L7.184,109.444L7.389,109.444L7.526,109.444L7.595,110.556L7.663,111.667L7.732,112.778L7.868,113.889L7.937,115L8.005,115L8.074,115L8.142,113.333L8.211,113.333L8.279,115.556L8.348,116.111L8.416,115.556L8.484,115.556L8.621,113.889L8.69,113.889L8.758,112.778L8.895,110.556L8.964,110.556L9.032,111.667L9.101,110.556L9.169,108.889L9.237,108.333L9.306,105.556L9.374,103.889L9.443,102.778L9.511,103.889L9.58,104.444L9.648,104.444L9.717,104.444L9.785,105L9.853,105L9.922,103.333L9.99,103.333L10.059,103.889L10.196,102.778L10.264,101.667L10.333,101.111L10.401,102.778L10.469,101.111L10.538,101.667L10.606,102.222L10.675,102.778L10.812,103.333L10.88,103.889L10.949,102.778L11.017,102.778L11.085,104.444L11.154,104.444L11.222,103.333L11.291,104.444L11.359,105.556L11.428,106.111L11.496,107.222L11.565,108.333L11.633,110L11.701,108.333L11.838,107.222L11.907,106.111L11.975,106.111L12.044,103.889L12.112,103.889L12.249,105.556L12.386,105.556L12.454,105.556L12.523,106.667L12.591,107.222L12.66,106.111L12.728,105.556L12.797,107.222L12.865,107.778L12.933,105.556L13.002,105.556L13.07,105.556L13.139,106.667L13.207,105.556L13.344,105.556L13.413,105.556L13.481,103.333L13.55,104.444L13.686,104.444L13.755,104.444L13.823,102.222L13.892,103.333L13.96,102.222L14.097,101.111L14.166,102.778L14.234,103.889L14.302,106.111L14.439,104.444L14.508,106.667L14.576,106.667L14.645,106.667L14.713,106.667L14.782,106.111L14.85,106.667L14.918,107.778L14.987,107.778L15.055,107.778L15.124,107.222L15.192,107.222L15.261,108.889L15.329,108.333L15.466,108.333L15.534,108.333L15.603,110.556L15.671,111.667L15.74,112.222L15.808,115L15.877,112.778L16.014,110.556L16.082,110L16.15,111.111L16.219,111.667L16.287,112.222L16.356,112.778L16.424,113.333L16.493,113.333L16.561,112.778L16.63,113.889L16.698,112.778L16.766,113.333L16.835,113.333L16.903,113.333L16.972,112.778L17.04,112.778L17.109,112.778L17.177,113.333L17.246,113.333L17.383,114.444L17.451,114.444L17.519,115L17.588,115.556L17.656,115L17.725,113.333L17.793,113.333L17.862,113.333L17.93,113.333L17.999,113.333L18.067,116.111L18.135,117.778L18.204,118.333L18.272,119.444L18.409,119.444L18.478,120L18.546,120L18.615,119.444L18.683,117.222L18.82,117.222L18.888,115.556L18.957,116.111L19.025,114.444L19.094,114.444L19.162,115L19.231,116.111L19.299,115.556L19.367,115.556L19.436,115.556L19.504,115.556L19.573,114.444L19.641,112.778L19.71,112.222L19.778,111.667L19.915,112.222L20.052,113.889L20.189,114.444L20.257,114.444L20.326,113.889L20.394,112.778L20.463,111.111L20.531,111.111L20.599,110.556L20.668,110.556L20.736,110.556L20.805,110.556L20.942,110.556L21.01,110L21.079,111.667L21.147,112.222L21.215,113.333L21.287,113.889L21.355,114.444L21.424,114.444L21.561,113.333L21.629,113.333L21.697,113.333L21.834,113.333L21.903,113.889L21.971,113.333L22.04,114.444L22.108,115L22.177,115L22.313,115.556L22.382,114.444L22.45,112.778L22.519,111.667L22.656,111.667L22.724,112.222L22.793,113.333L22.93,114.444L22.998,113.889L23.066,115L23.135,114.444L23.203,113.333L23.34,113.889L23.409,114.444L23.477,114.444L23.546,113.889L23.614,112.778L23.682,113.333L23.751,113.333L23.819,113.889L23.888,113.333L24.025,113.333L24.093,113.333L24.162,113.889L24.23,113.333L24.298,112.222L24.367,111.667L24.435,110L24.572,110.556L24.641,110.556L24.709,107.222L24.778,108.333L24.846,107.778L24.914,108.889L25.051,107.222L25.12,107.222L25.188,105.556L25.257,105.556L25.325,104.444L25.394,103.889L25.462,103.889L25.53,103.889L25.599,103.889L25.667,102.222L25.736,101.667L25.804,102.778L25.873,103.333L25.941,104.444L26.01,103.889L26.078,102.778L26.146,102.778L26.352,102.778L26.42,102.778L26.489,103.333L26.557,103.889L26.626,103.889L26.694,103.333L26.762,104.444L26.968,103.889L27.036,103.333L27.173,106.667L27.31,107.222L27.379,109.444L27.515,109.444L27.584,110L27.652,110L27.789,111.667L27.858,111.667L27.926,113.889L27.995,114.444L28.063,113.333L28.131,114.444L28.2,115L28.268,115L28.337,116.667L28.405,116.667L28.474,117.222L28.542,117.222L28.611,117.222L28.679,118.889L28.747,119.444L28.884,119.444L29.021,117.222L29.09,116.667L29.158,116.111L29.227,117.222L29.363,119.444L29.432,120L29.5,121.111L29.569,121.667L29.637,121.111L29.706,121.111L29.774,120L29.843,120L29.977,119.444L30.114,119.444L30.182,118.333L30.25,118.333L30.319,117.222L30.387,116.667L30.456,118.333L30.524,117.222L30.593,115.556L30.661,115.556L30.73,115L30.798,113.889L30.866,113.333L31.072,112.222L31.14,110.556L31.277,110L31.346,110L31.414,111.111L31.482,111.667L31.551,111.667L31.619,111.111L31.688,110L31.756,109.444L31.893,109.444L31.962,109.444L32.03,109.444L32.167,110L32.441,109.444L32.578,110.556L32.783,109.444L32.851,110.556L32.988,110.556L33.125,111.667L33.194,110.556L33.262,111.667L33.33,112.222L33.399,112.222L33.467,113.333L33.536,113.889L33.604,115L33.673,114.444L33.741,115.556L33.81,116.111L33.878,116.667L33.946,118.889L34.015,118.889L34.152,118.333L34.22,117.778L34.289,117.778L34.357,117.222L34.426,117.778L34.494,118.889L34.563,118.333L34.631,117.222L34.699,115.556L34.768,116.111L34.836,116.111L34.973,116.667L35.042,116.667L35.11,117.222L35.179,117.222L35.247,117.222L35.315,117.222L35.384,118.333L35.452,118.333L35.521,117.778L35.589,117.778L35.658,115L35.726,115.556L35.863,116.111L35.931,116.111L36,115.556L36.068,114.444L36.137,113.889L36.205,113.889L36.274,114.444L36.342,114.444L36.411,113.889L36.479,115L36.547,115L36.616,115.556L36.684,115.556L36.753,116.111L36.821,116.111L36.89,117.222L36.958,116.667L37.027,116.111L37.095,116.111L37.163,116.111L37.232,116.667L37.3,116.667L37.369,116.111L37.574,113.889L37.643,113.333L37.711,113.333L37.779,112.778L37.848,111.667L37.916,113.333L37.985,112.778L38.053,111.667L38.122,112.222L38.19,112.222L38.327,112.222L38.396,112.778L38.464,112.778L38.532,112.222L38.601,113.333L38.669,113.889L38.738,113.889L38.806,114.444L38.875,112.778L38.943,109.444L39.012,108.889L39.08,109.444L39.148,108.889L39.217,109.444L39.285,108.889L39.354,107.778L39.422,107.222L39.491,107.222L39.628,107.222L39.696,107.222L39.764,108.889L39.833,110L39.901,108.889L39.97,109.444L40.107,110.556L40.175,110.556L40.244,110.556L40.312,110.556L40.38,110.556L40.449,111.111L40.517,111.111L40.586,110L40.723,109.444L40.791,109.444L40.86,109.444L40.928,109.444L40.996,109.444L41.065,110L41.133,111.111L41.202,115L41.27,113.889L41.339,114.444L41.407,115L41.544,113.889L41.612,113.333L41.681,113.889L41.749,114.444L41.818,114.444L41.955,115L42.023,114.444L42.092,114.444L42.16,113.889L42.297,115L42.365,115.556L42.434,115.556L42.502,115L42.571,115.556L42.639,115.556L42.708,115.556L42.913,115.556L42.981,115.556L43.05,117.222L43.118,116.667L43.187,115L43.255,114.444L43.392,115L43.461,115.556L43.529,115.556L43.597,116.111L43.666,115.556L43.734,117.222L43.803,116.111L43.871,116.111L44.008,116.667L44.145,117.222L44.213,117.222L44.282,116.667L44.419,115L44.487,112.778L44.556,112.778L44.624,113.333L44.693,112.778L44.761,112.222L44.966,112.222L45.035,111.667L45.103,112.778L45.24,112.222L45.445,113.333L45.514,113.333L45.582,112.222L45.651,112.778L45.719,112.222L45.788,112.222L45.856,113.889L45.925,113.333L45.993,112.222L46.061,111.667L46.13,110.556L46.201,110L46.27,110.556L46.338,111.111L46.407,111.667L46.475,111.667L46.543,110.556L46.68,110.556L46.749,110.556L46.817,111.111L46.886,112.222L46.954,113.333L47.091,113.889L47.159,113.889L47.228,114.444L47.365,114.444L47.433,114.444L47.502,114.444L47.57,113.889L47.639,115L47.775,115L47.912,114.444L47.981,114.444L48.049,113.889L48.118,114.444L48.255,114.444L48.323,114.444L48.392,115.556L48.46,113.889L48.597,112.778L48.665,113.333L48.734,112.778L48.802,112.222L48.871,112.222L49.076,111.111L49.281,110L49.35,111.667L49.418,112.778L49.624,112.778L49.692,112.222L49.76,112.778L49.897,111.111L50.034,111.667L50.103,110.556L50.171,110L50.24,110L50.308,110L50.376,110L50.582,111.111L50.65,108.889L50.719,107.222L50.787,108.333L50.856,109.444L50.924,110L50.992,110L51.061,110.556L51.129,110.556L51.198,110.556L51.266,112.778L51.335,112.778L51.403,112.778L51.54,112.778L51.608,113.333L51.677,112.222L51.745,112.222L51.814,112.222L51.882,111.111L52.019,111.111L52.088,110L52.156,107.222L52.225,105.556L52.361,108.333L52.43,106.111L52.498,106.667L52.567,107.222L52.635,107.222L52.704,107.222L52.772,107.778L52.841,107.778L52.909,108.333L52.977,109.444L53.046,107.778L53.114,107.222L53.183,107.222L53.251,106.111L53.388,105.556L53.525,105.556L53.593,105.556L53.662,103.889L53.73,103.333L53.799,103.333L53.867,103.333L53.936,102.778L54.004,103.889L54.141,105L54.209,105L54.278,106.111L54.346,106.111L54.415,107.222L54.483,110.556L54.552,110.556L54.62,108.333L54.689,107.778L54.757,108.333L54.823,108.889L54.891,108.889L54.96,108.889L55.096,106.111L55.165,104.444L55.233,105L55.302,103.889L55.37,103.889L55.439,104.444L55.507,105L55.576,106.111L55.644,105L55.712,105L55.781,104.444L55.849,106.667L55.918,108.333L55.986,108.333L56.055,108.889L56.123,108.889L56.192,108.889L56.328,109.444L56.397,110.556L56.465,110.556L56.534,109.444L56.602,109.444L56.671,108.333L56.739,108.889L56.808,111.111L56.876,112.778L56.944,112.222L57.013,111.667L57.081,111.667L57.218,111.667L57.287,113.889L57.355,114.444L57.424,112.778L57.492,113.889L57.56,115.556L57.629,115.556L57.697,115L57.766,114.444L57.834,116.667L57.971,117.222L58.04,117.778L58.108,117.222L58.176,117.222L58.245,116.667L58.313,116.667L58.382,117.222L58.519,115.556L58.587,112.778L58.656,113.333L58.792,111.667L58.861,112.778L58.929,112.222L58.998,113.333L59.135,113.889L59.203,112.778L59.272,113.889L59.34,113.889L59.409,113.889L59.477,114.444L59.545,111.667L59.614,112.222L59.682,113.333L59.751,116.111L59.819,115L59.888,113.333L59.956,113.333L60.025,112.222L60.093,112.778L60.161,112.778L60.23,112.778L60.298,111.667L60.367,112.222L60.435,112.222L60.504,112.778L60.641,112.778L60.709,112.778L60.777,113.333L60.846,115.556L60.914,115L60.983,116.111L61.051,114.444L61.12,115.556L61.188,115L61.257,115.556L61.325,115L61.393,115L61.462,113.333L61.53,113.889L61.667,113.333L61.804,115.556L61.873,113.889L61.941,113.333L62.009,110L62.078,111.111L62.146,111.111L62.215,108.889L62.283,110L62.352,110L62.42,107.778L62.489,105.556L62.557,106.111L62.625,106.111L62.694,106.111L62.762,106.111L62.831,106.667L62.899,105.556L62.968,106.111L63.036,103.333L63.105,103.333L63.173,103.333L63.242,103.889L63.31,103.889L63.378,102.222L63.447,100.556L63.515,101.667L63.584,100L63.652,100.556L63.721,100L63.789,100.556L63.858,101.111L63.926,102.222L63.994,101.111L64.063,101.667L64.131,101.667L64.2,102.222L64.268,104.444L64.337,105L64.405,105L64.474,106.667L64.542,107.778L64.61,106.111L64.747,106.111L64.816,106.111L64.884,106.667L64.953,105L65.021,105.556L65.09,104.444L65.158,107.778L65.295,107.778L65.432,107.222L65.5,106.111L65.569,105.556L65.637,107.222L65.706,107.778L65.842,108.333L65.911,109.444L65.979,109.444L66.048,110L66.116,108.889L66.185,106.111L66.253,106.667L66.322,106.667L66.39,109.444L66.458,109.444L66.664,110L66.732,108.333L66.869,108.333L67.006,107.222L67.074,107.778L67.143,107.778L67.211,110L67.28,109.444L67.348,109.444L67.417,109.444L67.485,110L67.554,110.556L67.622,111.111L67.691,111.111L67.759,111.667L67.827,112.222L67.896,113.889L67.964,114.444L68.033,112.778L68.101,112.222L68.307,110.556L68.375,110.556L68.443,111.667L68.58,110.556L68.717,107.778L68.786,109.444L68.923,109.444L68.991,111.111L69.059,110.556L69.128,111.111L69.196,111.111L69.265,112.222L69.47,112.222L69.539,112.222L69.607,111.111L69.675,108.889L69.744,108.333L69.881,108.333L69.949,108.333L70.018,108.333L70.086,109.444L70.155,109.444L70.223,110L70.291,110L70.36,108.889L70.428,108.889L70.565,107.778L70.634,106.111L70.771,107.222L70.839,108.889L70.907,108.889L71.044,109.444L71.116,109.444L71.184,110.556L71.253,114.444L71.321,115.556L71.389,115.556L71.458,115.556L71.526,115L71.595,114.444L71.663,115L71.8,113.889L71.937,113.889L72.005,114.444L72.142,113.889L72.211,116.667L72.348,116.111L72.416,116.667L72.485,117.222L72.553,115.556L72.621,113.333L72.69,112.778L72.758,112.222L72.827,112.222L72.895,112.222L73.032,111.667L73.101,113.333L73.169,115L73.238,116.111L73.374,115L73.443,116.111L73.58,116.111L73.648,116.667L73.717,116.667L73.785,115L73.854,113.889L73.922,113.889L73.99,113.333L74.059,114.444L74.127,113.889L74.196,113.889L74.401,115.556L74.606,114.444L74.675,115L74.743,114.444L74.949,114.444L75.017,115.556L75.086,113.333L75.154,113.333L75.291,113.333L75.428,114.444L75.496,113.889L75.565,114.444L75.633,113.889L75.702,115L75.838,115.556L75.907,115L75.975,115L76.044,115L76.112,115.556L76.181,114.444L76.249,113.333L76.386,112.222L76.454,111.667L76.523,112.778L76.591,112.778L76.66,111.667L76.865,112.222L76.934,111.111L77.002,110.556L77.07,110L77.276,109.444L77.344,109.444L77.481,108.333L77.55,110L77.618,110L77.687,108.889L77.755,110.556L77.823,110.556L77.892,111.667L77.96,112.778L78.029,112.778L78.097,112.778L78.166,112.778L78.234,111.667L78.371,112.222L78.508,112.778L78.576,112.778L78.645,112.778L78.713,112.778L78.782,111.111L78.85,112.222L78.919,112.222L78.987,112.778L79.055,112.222L79.124,113.333L79.192,113.333L79.261,112.778L79.329,113.333L79.398,114.444L79.466,115L79.535,115L79.671,115.556L79.805,115L79.874,115L79.942,115L80.011,116.111L80.079,115L80.148,115L80.216,115.556L80.285,115L80.422,115L80.49,115L80.558,115.556L80.627,114.444L80.695,114.444L80.764,112.778L80.901,111.667L80.969,111.111L81.106,111.667L81.174,113.889L81.243,113.333L81.311,114.444L81.38,113.889L81.517,114.444L81.585,112.778L81.722,113.889L81.79,113.333L81.859,113.333L81.996,113.889L82.064,112.778L82.133,112.778L82.201,110L82.27,110.556L82.338,110.556L82.406,110.556L82.475,109.444L82.543,110.556L82.612,110.556L82.749,110.556L82.817,111.111L82.954,111.111L83.022,111.111L83.091,111.111L83.159,113.333L83.228,113.333L83.296,114.444L83.365,113.333L83.433,113.889L83.502,113.333L83.57,113.889L83.638,114.444L83.707,112.778L83.775,113.333L83.912,112.778L84.049,114.444L84.118,114.444L84.186,115.556L84.255,116.111L84.323,115.556L84.391,116.111L84.528,115.556L84.597,118.333L84.665,119.444L84.734,120L84.802,120.556L84.939,120L85.007,120.556L85.076,119.444L85.281,118.333L85.35,116.667L85.418,117.778L85.487,117.778L85.555,117.222L85.623,115L85.692,115L85.76,113.889L85.829,115.556L85.897,115.556L85.966,115L86.034,113.889L86.103,113.333L86.239,115L86.308,113.333L86.376,112.222L86.445,112.222L86.582,112.222L86.787,111.667L86.855,111.111L86.992,109.444L87.061,108.889L87.129,109.444L87.198,108.333L87.266,106.111L87.335,103.889L87.403,103.333L87.471,104.444L87.54,103.889L87.608,105L87.677,103.889L87.745,105.556L87.814,105.556L87.882,106.111L87.951,105L88.019,106.111L88.087,105L88.156,106.111L88.224,106.111L88.293,106.111L88.361,107.222L88.43,107.778L88.498,107.778L88.567,106.667L88.635,105.556L88.704,105.556L88.772,105L88.84,105L88.909,105L89.046,104.444L89.114,106.111L89.183,106.111L89.388,105L89.456,106.111L89.525,108.333L89.593,110.556L89.662,111.111L89.73,110.556L89.799,108.889L89.867,108.889L89.936,111.111L90.004,110.556L90.072,110L90.141,110L90.278,110L90.346,109.444L90.415,110L90.483,108.889L90.552,108.889L90.62,108.333L90.688,108.333L90.757,108.889L90.825,108.333L90.894,108.333L90.962,110L91.031,111.111L91.099,110L91.168,109.444L91.236,108.889L91.304,107.778L91.373,106.111L91.441,105.556L91.51,107.222L91.578,107.778L91.647,107.778L91.715,107.222L91.784,106.111L91.852,107.222L91.92,107.222L91.989,106.667L92.057,106.111L92.126,105.556L92.194,106.111L92.263,105.556L92.331,106.667L92.4,106.111L92.468,106.111L92.537,105.556L92.605,105.556L92.673,105L92.742,103.889L92.81,103.889L92.879,103.333L92.947,102.778L93.016,102.778L93.153,102.222L93.221,103.333L93.289,103.333L93.358,103.889L93.426,106.111L93.495,108.333L93.632,109.444L93.7,109.444L93.769,108.889L93.837,108.333L93.905,108.889L93.974,109.444L94.111,108.889L94.179,110.556L94.248,111.111L94.316,110L94.385,111.111L94.453,111.111L94.521,110.556L94.59,111.111L94.658,112.222L94.727,111.667L94.864,113.889L94.932,114.444L95.001,115L95.069,113.889L95.206,113.889L95.274,115.556L95.343,116.111L95.411,117.222L95.48,116.667L95.548,115.556L95.617,116.111L95.753,116.111L95.822,115L95.89,113.889L96.03,113.889L96.099,112.778L96.167,111.667L96.235,112.222L96.304,111.111L96.372,110.556L96.441,110.556L96.509,110L96.646,110L96.715,111.667L96.783,109.444L96.851,109.444L96.92,110.556L96.988,109.444L97.057,110L97.194,111.111L97.262,111.111L97.399,110.556L97.536,108.889L97.604,111.111L97.673,110.556L97.81,110.556L97.878,110.556L97.947,110L98.015,110.556L98.084,112.222L98.152,110L98.22,110.556L98.289,111.667L98.357,112.222L98.426,112.778L98.494,112.222L98.563,112.222L98.631,111.111L98.7,111.667L98.768,112.778L98.905,112.778L98.973,113.889L99.042,113.333L99.11,113.333L99.179,115L99.247,115L99.316,113.889L99.589,113.889L99.658,113.333L99.726,112.222L99.795,109.444L99.863,108.333L99.932,110L100.068,109.444L100.137,107.778L100.205,104.444L100.274,103.333L100.342,102.222L100.411,103.333L100.479,102.778L100.548,103.333L100.616,101.111L100.684,98.333L100.753,97.778L100.821,97.222L100.89,98.333L100.958,100L101.027,99.444L101.095,97.778L101.164,96.667L101.232,95.556L101.369,95.556L101.437,94.444L101.574,93.889L101.643,93.889L101.78,92.222L101.848,93.333L101.916,93.333L101.985,91.667L102.053,92.222L102.122,94.444L102.19,93.333L102.259,93.333L102.327,90.556L102.396,88.333L102.464,91.667L102.533,93.889L102.601,92.222L102.669,87.778L102.738,82.222L102.806,80L102.875,77.222L102.943,73.889L103.012,71.111L103.08,68.889L103.149,65.556L103.217,60.556L103.285,56.667L103.422,57.222L103.491,54.444L103.559,54.444L103.628,50.556L103.696,48.889L103.765,43.889L103.833,38.333L103.901,34.444L103.97,32.778L104.038,31.667L104.107,25L104.175,21.667L104.244,17.222L104.312,13.889L104.381,9.444L104.449,10L104.517,8.889L104.586,7.778L104.651,2.778L104.72,3.889L104.788,3.889L104.857,7.778L104.925,9.444L104.994,8.889L105.062,12.778L105.131,15.556L105.199,14.444L105.268,13.889L105.336,15L105.404,17.222L105.473,17.778L105.541,19.444L105.61,19.444L105.678,21.667L105.747,22.778L105.815,23.889L105.884,26.667L105.952,29.444L106.02,30L106.089,31.111L106.157,36.667L106.226,38.333L106.294,41.111L106.363,46.667L106.431,49.444L106.5,48.889L106.568,53.333L106.636,52.778L106.705,56.111L106.773,56.667L106.842,61.111L106.91,60.556L106.979,59.444L107.047,61.667L107.116,61.111L107.184,60L107.252,62.222L107.321,63.333L107.389,67.222L107.458,68.889L107.526,67.222L107.595,69.444L107.663,68.333L107.732,66.111L107.8,66.667L107.868,70L107.937,70.556L108.005,71.111L108.074,72.222L108.142,66.667L108.211,67.778L108.279,68.889L108.348,70.556L108.416,68.889L108.484,69.444L108.553,71.111L108.621,70.556L108.69,70.556L108.758,71.667L108.827,71.667L108.895,72.222L108.964,75L109.032,74.444L109.101,73.889L109.169,76.111L109.237,78.333L109.306,80L109.374,81.111L109.443,80L109.511,79.444L109.58,79.444L109.648,77.222L109.717,78.889L109.785,80.556L109.853,79.444L109.922,79.444L109.99,79.444L110.059,81.111L110.127,80.556L110.196,86.111L110.264,88.333L110.333,88.333L110.401,88.333L110.469,86.667L110.538,83.889L110.606,85.556L110.675,86.111L110.812,84.444L110.88,83.333L110.949,82.778L111.017,80L111.085,77.222L111.154,78.889L111.222,79.444L111.291,79.444L111.428,77.778L111.496,76.111L111.565,75L111.633,75L111.701,75L111.77,77.222L111.838,77.778L111.907,77.222L111.975,75L112.044,75.556L112.112,76.111L112.181,76.667L112.249,75L112.317,73.333L112.386,70.556L112.454,67.778L112.523,67.222L112.591,65L112.66,66.111L112.728,69.444L112.797,68.333L112.865,66.111L112.933,67.778L113.07,68.333L113.139,70.556L113.207,72.222L113.276,73.889L113.344,76.111L113.413,77.778L113.481,77.222L113.55,77.222L113.618,78.333L113.686,79.444L113.755,79.444L113.823,80L113.892,78.889L113.96,78.889L114.029,78.889L114.097,82.778L114.166,83.333L114.234,80L114.302,80L114.371,82.222L114.439,83.333L114.508,83.889L114.645,86.667L114.713,86.667L114.782,87.778L114.85,90.556L114.918,91.111L114.987,91.111L115.055,92.778L115.124,93.889L115.192,92.778L115.261,92.778L115.329,92.778L115.398,92.778L115.466,92.778L115.534,93.333L115.671,94.444L115.74,96.111L115.808,96.667L115.877,96.111L115.945,95L116.014,96.111L116.082,97.222L116.15,97.222L116.219,98.889L116.287,98.333L116.356,97.778L116.424,99.444L116.493,98.333L116.561,98.333L116.63,99.444L116.698,100L116.766,98.889L116.835,98.889L116.903,100.556L117.04,99.444L117.177,99.444L117.246,97.778L117.314,98.333L117.383,98.889L117.451,100.556L117.519,100L117.588,101.111L117.656,100.556L117.725,98.333L117.793,96.667L117.862,95.556L117.93,95.556L118.067,95.556L118.135,97.222L118.204,98.333L118.272,98.889L118.409,97.778L118.478,97.778L118.546,96.111L118.615,97.222L118.683,98.889L118.751,100.556L118.82,103.333L118.957,103.333L119.025,101.111L119.094,101.111L119.162,102.222L119.231,102.778L119.299,102.778L119.436,102.778L119.641,102.222L119.71,103.333L119.778,103.333L119.915,102.778L119.983,102.778L120.052,103.333L120.12,102.778L120.257,103.333L120.326,103.889L120.394,106.111L120.463,107.222L120.531,107.222L120.599,105.556L120.668,105.556L120.736,106.667L120.805,106.111L120.873,106.667L120.945,107.778L121.013,108.333L121.081,107.222L121.218,106.111L121.287,106.111L121.355,106.667L121.561,106.111L121.629,108.333L121.697,111.111L121.766,111.111L121.834,112.222L121.903,110.556L121.971,110.556L122.04,108.889L122.177,110L122.245,110.556L122.313,109.444L122.519,108.889L122.656,107.222L122.724,106.667L122.793,107.222L122.861,107.222L122.93,106.667L122.998,106.111L123.066,105.556L123.135,103.889L123.203,104.444L123.272,103.333L123.409,103.333L123.477,103.333L123.546,103.889L123.614,103.333L123.682,102.778L123.751,104.444L123.819,103.333L123.888,102.778L123.956,100.556L124.025,99.444L124.093,99.444L124.162,98.333L124.23,97.222L124.298,97.778L124.367,98.889L124.435,101.667L124.504,102.222L124.572,103.333L124.709,104.444L124.846,104.444L124.914,106.111L124.983,106.667L125.257,106.667L125.325,106.667L125.394,106.111L125.462,106.667L125.53,107.222L125.667,110.556L125.736,110.556L125.804,111.667L125.873,112.222L125.941,112.222L126.01,112.222L126.078,113.333L126.146,112.778L126.215,111.111L126.283,111.111L126.352,111.111L126.557,113.333L126.626,113.889L126.694,113.889L126.831,114.444L126.899,115.556L126.968,116.111L127.036,116.111L127.105,116.111L127.242,115L127.31,115L127.379,114.444L127.447,113.889L127.515,111.111L127.721,111.667L127.789,111.111L127.858,111.667L127.926,112.778L127.995,110.556L128.131,108.889L128.2,108.333L128.337,107.778L128.405,107.222L128.474,106.667L128.542,106.111L128.611,103.333L128.679,102.222L128.747,101.667L128.816,103.333L128.884,102.778L128.953,102.222L129.021,101.667L129.09,102.222L129.158,101.111L129.227,102.222L129.295,101.667L129.363,102.222L129.432,101.111L129.5,98.889L129.569,98.889L129.637,97.778L129.706,98.333L129.774,100L129.843,102.778L129.911,102.222L130.045,102.778L130.114,102.222L130.182,102.222L130.25,103.333L130.387,105L130.456,105.556L130.524,106.111L130.593,106.667L130.661,106.667L130.73,107.778L130.935,110.556L131.072,112.222L131.14,115L131.209,114.444L131.277,115.556L131.346,116.667L131.482,117.222L131.551,115.556L131.619,116.111L131.756,115.556L131.893,116.111L131.962,115L132.03,115.556L132.098,117.778L132.167,117.222L132.235,116.667L132.304,116.111L132.372,116.111L132.441,116.111L132.509,116.667L132.578,116.111L132.646,117.778L132.714,118.333L132.783,119.444L132.851,118.889L132.92,117.222L133.057,117.222L133.125,116.667L133.194,116.111L133.33,116.111L133.467,115.556L133.536,114.444L133.604,114.444L133.673,115L133.741,114.444L133.878,114.444L133.946,113.889L134.015,114.444L134.083,112.778L134.152,113.333L134.22,113.333L134.426,113.889L134.494,113.333L134.563,112.778L134.631,113.889L134.699,115L134.768,116.111L134.836,116.111L134.905,116.111L134.973,114.444L135.042,115.556L135.11,115.556L135.179,115L135.247,113.333L135.315,111.667L135.384,113.333L135.452,112.778L135.521,112.778L135.589,112.778L135.795,112.778L135.863,112.222L135.931,113.333L136,111.667L136.137,110.556L136.205,112.222L136.274,110.556L136.342,110.556L136.411,111.667L136.479,112.222L136.547,112.222L136.616,111.667L136.753,112.222L136.821,112.778L136.89,113.333L136.958,113.333L137.027,113.333L137.095,112.778L137.163,112.222L137.232,111.667L137.3,112.222L137.369,112.222L137.437,111.111L137.506,111.111L137.574,111.667L137.643,113.333L137.711,112.778L137.779,113.333L137.848,110.556L137.985,111.667L138.053,111.111L138.122,111.111L138.19,109.444L138.259,110.556L138.396,108.889L138.532,108.333L138.601,110L138.669,110L138.738,108.889L138.806,107.778L138.875,106.111L138.943,105L139.08,104.444L139.148,103.889L139.217,102.222L139.285,102.778L139.354,103.333L139.422,102.222L139.559,99.444L139.628,99.444L139.696,100.556L139.764,100L139.833,101.111L139.901,98.333L139.97,99.444L140.038,100L140.107,100.556L140.175,100.556L140.244,102.778L140.312,102.778L140.38,103.333L140.449,102.778L140.517,103.333L140.586,103.333L140.654,103.889L140.723,103.889L140.791,103.889L140.86,104.444L141.065,103.889L141.133,105.556L141.202,106.667L141.27,106.667L141.339,106.111L141.407,105L141.476,105.556L141.544,105.556L141.612,105L141.681,106.111L141.749,109.444L141.818,108.889L141.886,106.111L141.955,106.111L142.023,104.444L142.092,106.111L142.16,104.444L142.228,103.333L142.297,102.222L142.365,101.111L142.502,100.556L142.571,98.889L142.639,98.333L142.708,98.333L142.776,97.778L142.913,96.667L142.981,98.333L143.05,98.333L143.118,97.778L143.187,97.778L143.255,98.889L143.324,98.333L143.392,97.222L143.461,97.778L143.529,98.889L143.597,99.444L143.666,99.444L143.734,98.889L143.803,96.667L143.871,96.667L143.94,96.667L144.008,96.667L144.077,99.444L144.145,100L144.213,101.111L144.282,102.778L144.419,104.444L144.487,105L144.556,106.111L144.624,106.667L144.761,107.222L144.829,106.111L144.898,106.667L145.035,105.556L145.103,106.667L145.172,107.222L145.24,107.222L145.309,107.778L145.377,107.778L145.445,107.222L145.514,107.778L145.582,108.889L145.651,109.444L145.719,108.889L145.788,108.333L145.856,108.889L145.925,110L145.993,108.889L146.061,110L146.13,109.444L146.198,108.889L146.267,109.444L146.407,107.778L146.543,105.556L146.612,105L146.68,103.889L146.749,102.778L146.817,102.222L146.886,101.111L146.954,100L147.023,101.111L147.091,103.889L147.159,102.778L147.228,105.556L147.296,105.556L147.433,105.556L147.639,106.111L147.844,105.556L147.981,105L148.049,105.556L148.118,104.444L148.186,105L148.255,105.556L148.323,106.667L148.392,107.222L148.528,107.778L148.597,107.222L148.734,108.889L148.802,110.556L148.871,111.667L148.939,111.667L149.008,111.667L149.076,112.222L149.144,112.222L149.213,112.222L149.281,112.778L149.35,113.333L149.418,113.333L149.487,114.444L149.555,116.667L149.624,116.111L149.692,114.444L149.76,116.111L149.829,116.111L149.897,115.556L149.966,115.556L150.034,114.444L150.103,114.444L150.171,115.556L150.24,115L150.308,116.111L150.376,115.556L150.445,115.556L150.513,115.556L150.582,115.556L150.65,115L150.787,115L150.992,115L151.061,113.333L151.198,111.667L151.266,111.111L151.335,111.111L151.403,111.667L151.472,113.333L151.608,114.444L151.677,115L151.745,115L151.814,116.111L151.882,116.111L152.019,115L152.088,115.556L152.156,117.222L152.225,116.667L152.293,115.556L152.43,115.556L152.567,116.111L152.635,116.667L152.704,116.111L152.841,114.444L153.046,113.889L153.114,112.222L153.183,110L153.251,108.889L153.32,108.333L153.388,108.333L153.525,109.444L153.593,110L153.662,109.444L153.73,110L153.867,110.556L153.936,110.556L154.004,110.556L154.073,110L154.209,110.556L154.278,110L154.346,108.333L154.415,108.889L154.483,108.889L154.552,108.889L154.62,108.889L154.757,108.889L154.894,108.889L154.96,107.778L155.096,108.333L155.233,109.444L155.37,110L155.439,110L155.507,107.778L155.576,108.889L155.644,110.556L155.712,111.111L155.781,112.778L155.849,114.444L155.918,115L155.986,115L156.055,115L156.123,115L156.192,113.889L156.26,113.889L156.328,114.444L156.465,113.889L156.534,113.889L156.602,114.444L156.671,113.889L156.739,112.778L156.808,114.444L156.876,114.444L157.013,113.889L157.081,113.889L157.287,113.889L157.355,110L157.492,110L157.56,110L157.697,110.556L157.766,110.556L157.903,110.556L158.108,110.556L158.176,113.889L158.245,114.444L158.313,113.889L158.382,113.889L158.519,112.778L158.587,111.667L158.656,111.111L158.724,110.556L158.792,110.556L158.861,110L158.929,110.556L158.998,111.667L159.066,112.222L159.135,112.778L159.203,110.556L159.272,110.556L159.34,111.111L159.409,111.111L159.477,110L159.545,110L159.614,108.889L159.682,108.333L159.751,109.444L159.819,112.778L159.888,112.778L160.093,114.444L160.23,113.889L160.298,113.333L160.367,111.667L160.435,111.667L160.504,111.667L160.572,111.111L160.641,110.556L160.709,111.111L160.777,110L160.846,110.556L160.914,111.667L161.051,110L161.12,110L161.188,109.444L161.257,110.556L161.53,109.444L161.667,108.889L161.736,108.889L161.804,111.111L161.873,110L161.941,108.889L162.009,110L162.078,109.444L162.146,109.444L162.215,110.556L162.283,110.556L162.352,108.889L162.42,108.333L162.489,107.778L162.557,105.556L162.694,104.444L162.762,105L162.831,106.667L162.968,105.556L163.036,105.556L163.105,105.556L163.242,106.667L163.31,106.667L163.378,110L163.515,107.222L163.584,106.111L163.652,107.778L163.721,107.222L163.789,107.222L163.858,106.667L163.926,106.667L163.994,105.556L164.063,106.111L164.131,106.667L164.2,107.778L164.268,107.222L164.337,106.667L164.405,107.222L164.474,106.111L164.542,106.111L164.61,106.111L164.679,107.222L164.747,107.778L164.816,107.222L164.884,108.889L164.953,109.444L165.021,109.444L165.09,106.667L165.158,107.778L165.226,106.111L165.295,106.667L165.363,106.111L165.432,105.556L165.5,105.556L165.569,108.889L165.637,108.889L165.706,108.333L165.774,108.333L165.911,108.333L165.979,106.111L166.048,107.222L166.322,108.333L166.39,108.333L166.458,107.222L166.527,107.778L166.595,108.889L166.664,109.444L166.732,110L166.801,111.111L166.869,111.111L166.938,111.667L167.074,111.667L167.143,111.667L167.211,112.222L167.28,112.222L167.417,113.333L167.554,112.222L167.622,113.889L167.691,114.444L167.827,116.111L167.896,116.111L167.964,116.111L168.033,116.111L168.101,115.556L168.17,114.444L168.307,112.778L168.375,113.333L168.443,112.222L168.512,111.111L168.58,109.444L168.649,108.333L168.717,107.778L168.786,107.778L168.854,108.333L168.923,107.778L168.991,108.333L169.059,108.889L169.128,108.889L169.196,108.333L169.333,108.889L169.402,108.889L169.47,108.889L169.539,108.889L169.607,108.889L169.675,108.889L169.744,108.333L169.812,109.444L169.881,109.444L169.949,108.889L170.018,107.778L170.086,107.778L170.223,108.333L170.291,109.444L170.36,110L170.428,110.556L170.497,113.333L170.565,113.889L170.634,115.556L170.771,117.778L170.839,122.222L170.907,123.333L170.976,124.444L171.044,125L171.113,125L171.181,123.889L171.253,123.889L171.321,122.778L171.458,123.333L171.526,123.333L171.595,123.333L171.663,121.667L171.732,122.222L171.869,122.778L171.937,123.333L172.005,123.889L172.074,124.444L172.211,124.444L172.279,125.556L172.348,125L172.485,125.556L172.621,125.556L172.758,125.556L172.895,125L173.101,125L173.169,125.556L173.238,125L173.443,124.444L173.511,123.889L173.58,122.778L173.648,122.778L173.922,122.778L173.99,120L174.127,120L174.196,118.333L174.264,120L174.401,118.889L174.47,119.444L174.675,119.444L174.743,120L174.812,119.444L174.88,120.556L174.949,120.556L175.017,119.444L175.086,117.222L175.291,116.111L175.565,115L175.633,113.889L175.702,113.889L175.77,113.889L175.907,114.444L175.975,112.778L176.044,112.778L176.112,112.778L176.181,112.778L176.318,112.778L176.386,113.333L176.523,112.778L176.591,111.667L176.728,112.778L176.797,112.778L176.865,112.778L176.934,115L177.07,114.444L177.139,116.667L177.207,116.667L177.276,117.222L177.344,117.778L177.413,117.778L177.481,117.778L177.55,118.333L177.618,116.667L177.687,113.889L177.755,114.444L178.029,116.111L178.097,117.222L178.234,118.333L178.303,118.889L178.439,118.333L178.508,118.889L178.576,118.333L178.645,120L178.713,119.444L178.85,119.444L178.919,118.333L178.987,118.333L179.124,118.333L179.329,118.889L179.398,117.778L179.603,115.556L179.74,115.556L179.808,115.556L179.874,116.111L179.942,116.667L180.011,115.556L180.079,115.556L180.285,115.556L180.49,115.556L180.558,114.444L180.695,114.444L180.764,113.889L180.832,116.111L180.901,118.889L180.969,118.889L181.038,119.444L181.106,119.444L181.243,119.444L181.311,120L181.448,120.556L181.517,120L181.585,120L181.654,120L181.722,120.556L181.79,120L181.859,120.556L181.927,118.889L182.064,116.667L182.133,116.667L182.27,118.889L182.338,120.556L182.406,118.889L182.475,118.333L182.543,117.778L182.612,116.667L182.749,117.778L182.886,116.667L182.954,117.222L183.091,116.667L183.159,117.778L183.228,116.667L183.365,116.111L183.433,115.556L183.502,115.556L183.57,116.111L183.638,115.556L183.707,115.556L183.844,115.556L183.912,113.889L183.981,113.333L184.049,114.444L184.118,114.444L184.186,114.444L184.255,112.778L184.323,113.333L184.391,113.333L184.46,115L184.597,117.222L184.665,117.778L184.802,117.222L184.871,117.778L184.939,118.889L185.144,118.889L185.213,118.333L185.281,118.333L185.35,117.222L185.418,118.333L185.829,118.333L186.034,118.889L186.103,118.333L186.171,119.444L186.239,120L186.308,120.556L186.376,120.556L186.445,119.444L186.513,118.889L186.582,118.333L186.719,117.778L186.787,119.444L186.855,120L186.924,119.444L187.061,120L187.129,119.444L187.198,120L187.335,120L187.403,118.889L187.54,118.333L187.608,117.778L187.677,116.111L187.745,117.222L187.882,117.222L187.951,117.778L188.019,116.667L188.087,116.667L188.156,116.667L188.224,115.556L188.293,115L188.361,114.444L188.43,113.889L188.498,114.444L188.704,114.444L188.909,114.444L188.977,112.222L189.046,111.667L189.114,112.222L189.183,112.778L189.251,111.667L189.32,110.556L189.388,109.444L189.525,108.333L189.593,108.889L189.662,108.333L189.73,107.778L189.799,108.333L189.936,107.222L190.004,107.778L190.072,108.333L190.209,106.667L190.278,106.667L190.346,106.667L190.415,106.667L190.483,106.667L190.552,106.667L190.62,107.778L190.688,108.333L190.757,108.889L190.962,109.444L191.099,108.889L191.236,108.889L191.304,108.333L191.373,108.333L191.578,107.778L191.647,109.444L191.852,110L191.92,110.556L191.989,111.111L192.057,112.222L192.126,113.333L192.194,114.444L192.331,113.889L192.4,113.889L192.537,112.778L192.605,113.889L192.673,113.889L192.742,115.556L192.81,116.667L192.879,116.111L192.947,118.333L193.084,119.444L193.153,118.333L193.221,118.333L193.289,117.778L193.358,117.778L193.495,117.778L193.563,117.222L193.7,118.889L193.769,117.222L193.837,117.222L193.905,115.556L193.974,113.889L194.042,113.333L194.111,113.889L194.179,113.889L194.248,113.333L194.316,112.222L194.453,112.222L194.59,112.778L194.658,112.222L194.727,112.222L194.864,113.889L194.932,113.889L195.001,115.556L195.069,115L195.274,114.444L195.343,114.444L195.411,112.778L195.548,111.667L195.685,111.667L195.822,112.222L195.89,112.778L196.027,112.778L196.167,112.778L196.235,114.444L196.304,112.778L196.372,113.333L196.441,111.111L196.509,111.667L196.646,112.222L196.783,113.889L196.851,115L196.92,112.778L196.988,111.667L197.057,111.111L197.125,111.111L197.194,112.222L197.262,112.222L197.331,112.222L197.399,110.556L197.467,110L197.604,110L197.741,109.444L197.81,109.444L197.947,108.889L198.015,107.778L198.084,107.222L198.152,108.333L198.22,109.444L198.289,108.333L198.357,108.333L198.426,108.889L198.494,107.222L198.563,106.667L198.631,106.111L198.7,104.444L198.768,103.333L198.836,105L198.905,106.111L198.973,103.889L199.042,103.889L199.11,104.444L199.179,107.222L199.247,107.778L199.384,106.667L199.452,105.556L199.521,105L199.658,104.444L199.726,104.444L199.795,107.222L199.863,105.556L199.932,105.556L200.068,105.556L200.137,104.444L200.205,105.556L200.274,106.111L200.342,106.111L200.411,104.444L200.479,104.444L200.548,105.556L200.616,105.556L200.684,103.889L200.753,105L200.89,105.556L200.958,105L201.027,108.333L201.095,108.889L201.164,108.889L201.232,107.778L201.3,109.444L201.369,110L201.437,109.444L201.506,109.444L201.574,109.444L201.643,111.111L201.711,111.667L201.78,111.111L201.848,110L201.916,109.444" stroke="#4c78a8" stroke-width="2"/></g><g class="mark-group role-title"><g transform="translate(100,-17)"><path class="background" aria-hidden="true" d="M0,0h0v0h0Z" pointer-events="none"/><g><g class="mark-text role-title-text" role="graphics-symbol" aria-roledescription="title" aria-label="Title text 'Food Establishment: Bare Hands in Contact w/ Food'" pointer-events="none"><text text-anchor="middle" transform="translate(0,10)" font-family="sans-serif" font-size="13px" font-weight="bold" fill="#000" opacity="1">Food Establishment: Bare Hands in Contact w/ Food</text></g></g><path class="foreground" aria-hidden="true" d="" pointer-events="none" display="none"/></g></g></g><path class="foreground" aria-hidden="true" d="" display="none"/></g></g></g><defs><clipPath id="clip120"><rect x="0" y="0" width="200" height="150"/></clipPath></defs></svg>