<svg xmlns="http://www.w3.org/2000/svg" xmlns:xlink="http://www.w3.org/1999/xlink" version="1.1" class="marks" width="266" height="194" viewBox="0 0 266 194"><rect width="266" height="194" fill="white"/><g fill="none" stroke-miterlimit="10" transform="translate(33,22)"><g class="mark-group role-frame root" role="graphics-object" aria-roledescription="group mark container"><g transform="translate(0,0)"><path class="background" aria-hidden="true" d="M0,0h200v150h-200Z"/><g><g class="mark-group role-axis" aria-hidden="true"><g transform="translate(0.5,0.5)"><path class="background" aria-hidden="true" d="M0,0h0v0h0Z" pointer-events="none"/><g><g class="mark-rule role-axis-grid" pointer-events="none"><line transform="translate(0,150)" x2="200" y2="0" stroke="#ddd" stroke-width="1" opacity="1"/><line transform="translate(0,117)" x2="200" y2="0" stroke="#ddd" stroke-width="1" opacity="1"/><line transform="translate(0,83)" x2="200" y2="0" stroke="#ddd" stroke-width="1" opacity="1"/><line transform="translate(0,50)" x2="200" y2="0" stroke="#ddd" stroke-width="1" opacity="1"/><line transform="translate(0,17)" x2="200" y2="0" stroke="#ddd" stroke-width="1" opacity="1"/></g></g><path class="foreground" aria-hidden="true" d="" pointer-events="none" display="none"/></g></g><g class="mark-group role-axis" role="graphics-symbol" aria-roledescription="axis" aria-label="X-axis for a time scale with values from Friday, 01 January 2016, 12:00:00 AM to Monday, 01 January 2024, 12:00:00 AM"><g transform="translate(0.5,150.5)"><path class="background" aria-hidden="true" d="M0,0h0v0h0Z" pointer-events="none"/><g><g class="mark-rule role-axis-tick" pointer-events="none"><line transform="translate(0,0)" x2="0" y2="5" stroke="#888" stroke-width="1" opacity="1"/><line transform="translate(50,0)" x2="0" y2="5" stroke="#888" stroke-width="1" opacity="1"/><line transform="translate(100,0)" x2="0" y2="5" stroke="#888" stroke-width="1" opacity="1"/><line transform="translate(150,0)" x2="0" y2="5" stroke="#888" stroke-width="1" opacity="1"/><line transform="translate(200,0)" x2="0" y2="5" stroke="#888" stroke-width="1" opacity="1"/></g><g class="mark-text role-axis-label" pointer-events="none"><text text-anchor="start" transform="translate(0,15)" font-family="sans-serif" font-size="10px" fill="#000" opacity="1">2016</text><text text-anchor="middle" transform="translate(50.03422313483915,15)" font-family="sans-serif" font-size="10px" fill="#000" opacity="1">2018</text><text text-anchor="middle" transform="translate(100,15)" font-family="sans-serif" font-size="10px" fill="#000" opacity="1">2020</text><text text-anchor="middle" transform="translate(150.03422313483915,15)" font-family="sans-serif" font-size="10px" fill="#000" opacity="1">2022</text><text text-anchor="end" transform="translate(200,15)" font-family="sans-serif" font-size="10px" fill="#000" opacity="1">2024</text></g><g class="mark-rule role-axis-domain" pointer-events="none"><line transform="translate(0,0)" x2="200" y2="0" stroke="#888" stroke-width="1" opacity="1"/></g></g><path class="foreground" aria-hidden="true" d="" pointer-events="none" display="none"/></g></g><g class="mark-group role-axis" role="graphics-symbol" aria-roledescription="axis" aria-label="Y-axis for a linear scale with values from 0 to 9"><g transform="translate(0.5,0.5)"><path class="background" aria-hidden="true" d="M0,0h0v0h0Z" pointer-events="none"/><g><g class="mark-rule role-axis-tick" pointer-events="none"><line transform="translate(0,150)" x2="-5" y2="0" stroke="#888" stroke-opacity="0" stroke-width="1" opacity="1"/><line transform="translate(0,117)" x2="-5" y2="0" stroke="#888" stroke-opacity="0" stroke-width="1" opacity="1"/><line transform="translate(0,83)" x2="-5" y2="0" stroke="#888" stroke-opacity="0" stroke-width="1" opacity="1"/><line transform="translate(0,50)" x2="-5" y2="0" stroke="#888" stroke-opacity="0" stroke-width="1" opacity="1"/><line transform="translate(0,17)" x2="-5" y2="0" stroke="#888" stroke-opacity="0" stroke-width="1" opacity="1"/></g><g class="mark-text role-axis-label" pointer-events="none"><text text-anchor="end" transform="translate(-7,153)" font-family="sans-serif" font-size="10px" fill="#000" opacity="1">0</text><text text-anchor="end" transform="translate(-7,119.66666666666667)" font-family="sans-serif" font-size="10px" fill="#000" opacity="1">2</text><text text-anchor="end" transform="translate(-7,86.33333333333334)" font-family="sans-serif" font-size="10px" fill="#000" opacity="1">4</text><text text-anchor="end" transform="translate(-7,53.00000000000001)" font-family="sans-serif" font-size="10px" fill="#000" opacity="1">6</text><text text-anchor="end" transform="translate(-7,19.666666666666675)" font-family="sans-serif" font-size="10px" fill="#000" opacity="1">8</text></g></g><path class="foreground" aria-hidden="true" d="" pointer-events="none" display="none"/></g></g><g class="mark-line role-mark marks" clip-path="url(#clip121)" role="graphics-object" aria-roledescription="line mark container"><path aria-label="day: Feb 17, 2012; avg: 1.46666666667" role="graphics-symbol" aria-roledescription="line mark" d="M-96.783,125.556L-96.715,125.556L-96.304,125L-96.167,125L-96.03,124.444L-95.619,124.444L-95.277,124.444L-95.075,124.444L-95.006,125L-94.938,125L-94.801,125L-94.732,125L-94.664,126.111L-94.596,126.111L-94.39,125.556L-94.322,125.556L-94.116,126.667L-94.048,126.667L-93.98,126.667L-93.569,125L-93.432,126.111L-93.364,126.111L-93.158,126.111L-93.09,126.111L-93.021,127.222L-92.816,125.556L-92.748,125.556L-92.679,125L-92.611,124.444L-92.542,123.333L-92.474,122.222L-92.405,122.222L-92.268,122.778L-92.2,122.778L-92.132,123.333L-91.995,122.778L-91.652,122.222L-91.584,120.556L-91.516,120.556L-91.447,120.556L-91.379,120L-91.31,119.444L-91.242,117.778L-91.105,117.222L-91.036,117.778L-90.968,117.778L-90.831,117.222L-90.694,117.778L-90.626,117.222L-90.557,117.222L-90.489,116.111L-90.352,116.111L-90.147,116.111L-90.078,116.111L-90.01,113.889L-89.941,115L-89.873,115L-89.804,115L-89.736,116.111L-89.667,117.222L-89.599,118.333L-89.531,117.778L-89.462,117.778L-89.394,117.222L-89.257,117.222L-89.051,117.222L-88.846,118.333L-88.641,120L-88.572,120L-88.504,119.444L-88.435,118.889L-88.367,118.333L-88.299,120L-88.162,120.556L-88.093,120.556L-88.025,121.111L-87.888,121.667L-87.819,121.667L-87.614,121.111L-87.409,122.778L-87.34,123.889L-87.272,123.889L-86.998,123.333L-86.93,123.333L-86.861,125.556L-86.793,125.556L-86.587,125.556L-86.519,124.444L-86.45,123.889L-86.382,121.111L-86.314,121.111L-86.245,121.667L-86.177,121.111L-86.108,121.111L-86.04,120.556L-85.971,121.111L-85.834,121.111L-85.766,120L-85.561,118.889L-85.492,118.333L-85.424,118.333L-85.355,119.444L-85.287,118.333L-85.218,118.333L-85.15,117.222L-85.013,117.222L-84.876,117.222L-84.739,116.111L-84.602,116.667L-84.466,116.111L-84.397,115.556L-84.055,115.556L-83.986,115L-83.781,115L-83.644,111.667L-83.507,112.222L-83.439,111.667L-83.37,112.778L-83.302,111.111L-83.234,113.889L-83.165,113.889L-83.097,113.333L-83.028,113.889L-82.96,114.444L-82.891,115L-82.686,114.444L-82.617,113.333L-82.549,113.889L-82.481,113.889L-82.412,112.778L-82.344,112.778L-82.275,112.222L-82.207,112.222L-82.138,112.222L-82.07,113.333L-82.001,113.333L-81.933,112.778L-81.865,113.889L-81.454,115L-81.385,114.444L-81.317,111.111L-81.249,111.111L-81.112,111.111L-81.043,110.556L-80.975,113.889L-80.906,113.889L-80.838,114.444L-80.769,113.889L-80.701,116.111L-80.564,114.444L-80.496,113.889L-80.359,113.333L-80.153,113.333L-80.085,113.333L-79.948,112.778L-79.88,112.778L-79.811,113.889L-79.743,113.333L-79.674,114.444L-79.606,116.667L-79.537,117.778L-79.469,118.333L-79.401,119.444L-79.332,118.889L-79.127,117.778L-78.85,117.778L-78.645,117.778L-78.508,117.778L-78.371,117.778L-78.303,118.889L-78.166,122.778L-78.029,122.778L-77.823,123.889L-77.755,124.444L-77.687,123.889L-77.618,123.333L-77.55,122.778L-77.481,123.889L-77.413,123.889L-77.344,125.556L-77.276,126.111L-77.139,126.667L-77.07,126.111L-77.002,126.111L-76.797,126.667L-76.728,127.222L-76.591,127.222L-76.386,128.333L-76.181,128.333L-75.633,128.333L-74.127,128.333L-72.69,128.333L-72.348,128.333L-72.279,128.889L-71.663,128.889L-71.526,128.889L-71.458,129.444L-71.184,128.333L-70.568,126.667L-70.229,126.111L-70.023,126.111L-69.886,124.444L-69.476,123.333L-69.202,122.222L-68.928,122.778L-68.449,122.778L-68.107,123.333L-68.038,122.778L-67.902,121.111L-67.833,119.444L-67.765,119.444L-67.696,118.889L-67.559,119.444L-67.422,119.444L-67.354,119.444L-67.286,118.889L-67.149,118.889L-67.08,118.333L-67.012,118.333L-66.67,117.222L-66.601,117.222L-66.533,117.222L-66.396,115.556L-66.327,115L-66.19,116.111L-65.985,115.556L-65.917,115L-65.848,116.111L-65.78,117.778L-65.711,117.222L-65.574,117.222L-65.437,118.889L-65.369,118.889L-65.232,119.444L-65.027,119.444L-64.958,118.889L-64.89,118.333L-64.821,118.333L-64.753,120L-64.685,121.111L-64.616,120.556L-64.548,121.667L-64.411,120.556L-64.342,120.556L-64.069,120.556L-64,121.111L-63.932,121.111L-63.863,121.667L-63.795,121.667L-63.658,121.667L-63.521,121.667L-63.453,120L-63.384,120.556L-63.316,121.111L-63.247,120.556L-63.179,121.111L-63.11,121.111L-63.042,120.556L-62.973,120.556L-62.905,121.667L-62.837,121.667L-62.7,121.667L-62.563,122.222L-62.494,122.778L-62.426,122.222L-62.084,123.333L-61.947,123.333L-61.81,123.889L-61.741,122.778L-61.673,123.333L-61.604,123.889L-61.536,123.889L-61.468,125L-61.331,125L-61.125,123.889L-61.057,123.889L-60.988,122.778L-60.852,122.778L-60.783,122.778L-60.646,123.333L-60.372,123.333L-60.304,123.889L-60.236,124.444L-60.03,124.444L-59.962,123.889L-59.756,122.778L-59.551,123.333L-59.483,123.889L-59.346,122.778L-59.277,122.778L-59.209,122.222L-59.14,122.222L-59.072,122.778L-59.004,122.778L-58.867,123.333L-58.73,123.333L-58.593,123.889L-58.524,123.333L-58.319,123.889L-58.251,122.778L-58.114,122.778L-58.045,122.222L-57.703,122.222L-57.635,122.222L-57.498,122.778L-57.292,122.222L-57.155,123.333L-57.087,123.333L-57.019,123.333L-56.95,123.333L-56.676,122.222L-56.608,122.222L-56.539,122.778L-56.129,120.556L-55.992,121.111L-55.923,121.667L-55.787,121.667L-55.718,120.556L-55.65,121.111L-55.581,120.556L-55.513,120.556L-55.444,120.556L-55.239,119.444L-55.171,118.889L-55.034,117.778L-54.965,117.778L-54.897,117.778L-54.828,118.333L-54.76,118.889L-54.623,119.444L-54.555,119.444L-54.486,120L-54.418,120L-54.349,119.444L-54.281,120L-54.075,120.556L-54.007,120L-53.936,120L-53.867,120L-53.799,120.556L-53.73,121.667L-53.662,122.778L-53.593,122.778L-53.525,125L-53.457,125L-53.388,125.556L-53.32,125.556L-53.183,126.667L-52.977,127.222L-52.909,127.778L-52.841,128.333L-52.772,128.333L-52.704,129.444L-52.635,129.444L-52.567,130.556L-52.498,129.444L-52.43,129.444L-52.225,129.444L-52.156,128.889L-52.088,129.444L-51.951,129.444L-51.814,128.889L-51.677,128.889L-51.608,129.444L-51.403,129.444L-50.65,129.444L-49.829,130L-49.555,128.333L-48.734,128.333L-48.665,127.778L-48.597,127.778L-48.528,127.778L-48.255,127.778L-47.57,127.778L-47.228,127.778L-46.954,126.111L-46.338,126.111L-45.314,126.111L-44.972,125.556L-44.835,125.556L-44.767,125L-44.63,123.889L-44.561,123.333L-44.493,123.889L-44.014,123.889L-43.808,125L-43.74,124.444L-43.672,124.444L-43.535,124.444L-43.261,124.444L-43.192,123.333L-43.124,123.889L-42.919,123.889L-42.85,123.889L-42.713,123.889L-42.645,123.889L-42.576,123.889L-42.508,125.556L-42.371,125L-42.303,125L-42.166,125L-42.097,124.444L-41.892,124.444L-41.687,123.889L-41.618,122.778L-41.55,121.667L-41.413,120.556L-41.344,120L-41.276,120.556L-41.139,119.444L-41.071,119.444L-40.865,120L-40.728,120.556L-40.66,119.444L-40.591,118.889L-40.523,118.333L-40.455,117.778L-40.386,116.667L-40.318,117.222L-40.181,116.111L-40.044,115.556L-39.907,115L-39.839,113.333L-39.633,112.222L-39.496,110.556L-39.428,110L-39.359,109.444L-39.223,109.444L-39.154,108.333L-39.086,108.889L-39.017,108.333L-38.949,108.333L-38.88,108.333L-38.607,108.889L-38.538,110L-38.47,112.778L-38.401,112.778L-38.333,112.778L-38.264,112.778L-38.059,113.333L-37.991,112.222L-37.785,110L-37.717,110L-37.648,110.556L-37.58,110L-37.306,110L-37.238,110.556L-37.101,111.667L-37.032,111.667L-36.964,111.111L-36.895,112.778L-36.827,112.222L-36.758,112.778L-36.69,113.333L-36.553,114.444L-36.485,115L-36.416,115.556L-36.348,113.333L-36.279,113.889L-36.211,112.778L-36.006,113.333L-35.937,113.889L-35.869,113.889L-35.732,112.778L-35.663,112.778L-35.458,112.222L-35.253,113.333L-35.184,113.333L-35.116,112.222L-35.047,112.222L-34.979,112.778L-34.91,115.556L-34.774,115.556L-34.705,115.556L-34.637,115.556L-34.568,115L-34.363,113.333L-34.294,112.778L-34.226,111.667L-34.158,112.778L-34.089,112.778L-33.815,111.111L-33.747,111.667L-33.678,111.111L-33.542,111.667L-33.473,111.111L-33.405,111.111L-33.199,113.333L-33.131,114.444L-33.062,114.444L-32.994,113.889L-32.789,112.222L-32.652,111.667L-32.583,112.222L-32.446,112.778L-32.378,113.333L-32.309,112.222L-32.241,112.222L-32.104,112.778L-32.036,112.778L-31.899,113.333L-31.762,112.778L-31.625,111.667L-31.557,111.111L-31.42,112.222L-31.351,112.222L-31.214,113.889L-31.146,113.333L-31.077,113.889L-31.009,114.444L-30.941,112.778L-30.872,115L-30.804,113.889L-30.735,113.889L-30.667,112.222L-30.598,111.667L-30.53,110.556L-30.461,110.556L-30.393,110.556L-30.325,111.667L-30.256,110.556L-30.188,111.667L-30.119,111.667L-30.051,112.222L-29.982,111.111L-29.914,110.556L-29.777,111.667L-29.709,111.111L-29.572,111.111L-29.503,111.111L-29.435,111.111L-29.366,111.667L-29.298,112.222L-29.021,113.333L-28.953,112.778L-28.884,113.333L-28.679,113.889L-28.611,115L-28.474,115.556L-28.405,115.556L-28.337,117.222L-28.268,117.778L-28.2,119.444L-28.131,119.444L-27.995,121.111L-27.926,122.222L-27.858,122.778L-27.721,122.778L-27.652,122.778L-27.584,122.778L-27.515,124.444L-27.379,124.444L-27.173,125L-27.105,125L-27.036,126.111L-26.968,126.667L-26.899,125.556L-26.831,126.111L-26.762,125.556L-26.694,125.556L-26.352,125.556L-26.283,125.556L-26.215,125.556L-26.146,125.556L-26.01,125.556L-25.941,125.556L-25.736,125.556L-25.667,125L-25.188,123.333L-24.778,123.333L-24.709,122.778L-24.641,122.778L-24.093,122.222L-24.025,122.222L-22.998,121.111L-22.793,121.111L-21.561,121.111L-20.876,120.556L-20.331,120.556L-20.195,118.889L-20.126,117.222L-19.852,117.778L-19.784,115L-19.168,113.889L-19.099,113.889L-18.826,112.222L-18.757,112.778L-18.552,113.333L-18.278,114.444L-18.141,112.778L-18.004,113.333L-17.867,112.778L-17.662,112.222L-17.594,111.111L-17.525,110.556L-17.388,111.111L-17.251,111.111L-17.183,111.111L-17.114,112.222L-17.046,111.667L-16.978,112.222L-16.909,112.222L-16.841,112.778L-16.704,112.778L-16.567,113.889L-16.498,113.889L-16.43,113.333L-16.362,113.889L-16.225,113.333L-16.156,112.778L-16.019,112.222L-15.951,112.222L-15.882,114.444L-15.745,115L-15.677,114.444L-15.609,116.111L-15.54,116.667L-15.472,116.667L-15.266,116.111L-15.129,117.222L-15.061,116.111L-14.924,116.111L-14.787,117.222L-14.719,118.333L-14.65,119.444L-14.582,119.444L-14.513,119.444L-14.377,120L-14.308,118.889L-14.24,118.333L-14.171,116.667L-14.103,116.111L-14.034,116.111L-13.966,117.222L-13.897,116.667L-13.829,115.556L-13.761,116.111L-13.555,115L-13.418,114.444L-13.35,116.667L-13.008,118.889L-12.871,118.333L-12.734,118.333L-12.665,118.333L-12.392,118.889L-12.186,118.889L-11.981,118.889L-11.844,118.889L-11.776,118.889L-11.639,120L-11.57,121.111L-11.502,121.667L-11.433,121.667L-11.365,121.667L-11.296,121.111L-11.16,121.111L-11.091,121.111L-11.023,121.111L-10.954,122.222L-10.886,123.333L-10.817,123.333L-10.749,123.889L-10.68,123.889L-10.544,123.889L-10.407,122.778L-10.338,123.889L-10.27,123.333L-10.133,124.444L-9.996,125.556L-9.722,125L-9.654,123.889L-9.585,122.778L-9.517,122.778L-9.448,123.333L-9.38,122.778L-9.106,122.222L-9.038,122.222L-8.969,122.222L-8.901,122.222L-8.832,121.667L-8.696,121.111L-8.559,121.111L-8.49,120.556L-8.422,118.889L-8.285,118.889L-8.216,118.889L-8.08,116.111L-8.011,115.556L-7.874,116.111L-7.806,116.111L-7.6,116.667L-7.532,116.667L-7.463,115L-7.395,115L-7.327,113.889L-7.121,113.333L-7.053,113.333L-6.984,108.889L-6.916,108.333L-6.847,107.222L-6.779,105.556L-6.711,104.444L-6.642,102.222L-6.574,97.778L-6.368,95.556L-6.3,94.444L-6.095,91.667L-5.958,90.556L-5.821,88.333L-5.684,86.111L-5.615,85L-5.547,85L-5.479,84.444L-5.41,85L-5.342,83.333L-5.273,83.333L-5.136,84.444L-5.068,83.889L-4.999,81.667L-4.931,80L-4.863,79.444L-4.794,79.444L-4.726,81.111L-4.589,80.556L-4.52,82.778L-4.452,83.333L-4.383,83.333L-4.315,87.778L-4.247,86.667L-4.038,88.333L-3.97,90L-3.901,92.778L-3.833,95L-3.765,98.333L-3.696,100L-3.628,101.111L-3.559,103.333L-3.491,104.444L-3.422,106.667L-3.354,107.778L-3.285,109.444L-3.217,108.889L-3.149,110L-3.08,110L-2.943,112.222L-2.875,112.222L-2.806,113.333L-2.738,114.444L-2.669,116.667L-2.601,118.333L-2.533,120L-2.396,120L-2.327,120L-2.259,120.556L-2.19,120L-2.122,120L-2.053,121.111L-1.985,121.111L-1.916,122.778L-1.848,122.778L-1.78,123.889L-1.711,122.778L-1.643,123.333L-1.574,124.444L-1.506,125.556L-1.437,126.111L-1.369,126.111L-1.3,124.444L-1.232,124.444L-1.164,126.111L-1.027,126.111L-0.753,126.667L-0.684,125L-0.616,126.111L-0.548,125L-0.137,125L0,125L0.137,125L0.411,123.889L0.684,123.889L0.821,123.889L0.958,123.333L1.506,123.333L1.574,123.333L2.327,123.889L2.464,123.889L2.943,123.333L3.559,121.667L3.833,121.667L4.244,121.667L4.586,121.667L4.654,122.222L4.723,122.222L4.791,122.222L4.86,121.667L5.131,120.556L5.199,120L5.268,121.667L5.336,122.222L5.541,121.667L5.61,121.667L5.678,121.667L5.747,122.222L5.815,120.556L6.02,121.667L6.089,121.111L6.157,121.667L6.294,120.556L6.363,120.556L6.431,120.556L6.636,120L6.705,119.444L6.773,119.444L7.047,119.444L7.116,118.889L7.184,117.778L7.252,117.778L7.389,118.889L7.458,118.889L7.526,118.889L7.732,118.889L7.8,118.889L7.868,118.333L7.937,116.667L8.142,116.111L8.211,116.111L8.348,115.556L8.416,115L8.484,114.444L8.553,113.333L8.621,112.778L8.69,111.667L8.758,112.222L8.827,113.889L8.895,113.333L8.964,112.778L9.032,112.222L9.169,111.667L9.374,111.667L9.58,111.667L9.648,112.222L9.717,112.778L9.785,112.222L9.853,112.222L9.922,113.333L9.99,114.444L10.059,114.444L10.127,114.444L10.196,114.444L10.264,114.444L10.333,114.444L10.401,115L10.469,115.556L10.606,116.667L10.675,117.778L10.743,118.333L10.812,119.444L10.949,120L11.085,120.556L11.154,122.222L11.291,122.778L11.359,123.889L11.428,123.889L11.496,123.889L11.565,123.889L11.633,123.889L11.701,124.444L11.77,126.111L11.838,127.222L11.907,127.222L11.975,127.222L12.181,127.778L12.317,127.778L12.523,127.778L12.591,127.778L12.66,127.222L12.933,127.778L13.002,126.667L13.07,126.111L13.139,126.111L13.207,126.111L13.276,126.111L13.344,126.111L13.413,125L13.55,125L13.686,125.556L13.755,124.444L13.823,124.444L14.097,124.444L14.234,123.333L14.302,123.333L14.439,121.667L14.508,122.222L14.645,122.222L14.713,122.778L14.782,122.778L14.987,122.778L15.055,121.111L15.124,121.111L15.329,120.556L15.398,120L15.534,120L15.808,120.556L15.945,120.556L16.014,120.556L16.082,120.556L16.15,120.556L16.219,121.111L16.287,121.667L16.356,121.667L16.493,120.556L16.561,120L16.835,118.889L16.903,120.556L16.972,120L17.109,118.889L17.177,118.889L17.246,118.889L17.314,118.889L17.383,118.889L17.725,116.667L17.793,116.111L17.862,115L17.93,115L18.135,115L18.204,115.556L18.272,114.444L18.341,113.333L18.409,113.333L18.546,111.667L18.683,111.111L18.751,111.111L18.888,110L18.957,109.444L19.025,108.889L19.094,107.778L19.162,106.667L19.231,102.222L19.367,101.111L19.436,98.333L19.573,98.889L19.641,97.778L19.71,98.889L19.778,95.556L19.847,93.333L19.983,93.333L20.052,92.778L20.12,92.222L20.189,90.556L20.257,91.111L20.326,93.333L20.394,95.556L20.531,95L20.599,93.889L20.668,93.889L20.736,93.889L20.805,95L20.873,97.778L20.942,95.556L21.01,97.778L21.079,97.778L21.147,96.667L21.215,97.222L21.287,96.667L21.355,96.111L21.424,97.222L21.492,98.333L21.561,103.889L21.629,104.444L21.697,106.667L21.766,107.222L21.834,108.889L21.903,107.778L21.971,111.111L22.04,113.889L22.108,115L22.177,117.222L22.245,117.778L22.313,118.889L22.45,119.444L22.587,118.889L22.656,118.889L22.724,120.556L22.793,121.667L22.861,121.667L22.93,121.667L22.998,121.111L23.066,120.556L23.135,122.778L23.272,122.778L23.34,123.333L23.409,124.444L23.477,125L23.546,125L23.614,126.111L23.751,126.667L23.888,125.556L24.162,124.444L24.846,123.889L25.257,123.889L25.325,122.778L25.394,122.778L25.462,123.889L25.53,123.333L25.941,122.778L26.626,122.778L27.036,122.222L27.379,121.667L28.337,122.222L28.611,122.222L28.747,122.222L28.816,122.222L28.884,121.667L29.021,121.667L29.363,120.556L29.569,119.444L29.977,118.889L30.319,118.889L30.798,118.889L30.935,118.889L31.072,119.444L31.209,119.444L31.277,118.333L31.346,119.444L31.414,119.444L31.688,119.444L31.756,120.556L31.825,121.667L31.893,119.444L31.962,119.444L32.03,120.556L32.098,118.889L32.167,118.333L32.372,117.778L32.441,117.222L32.646,116.667L32.714,115.556L32.851,115L32.92,114.444L32.988,111.667L33.057,111.111L33.125,109.444L33.194,110L33.262,107.778L33.33,107.778L33.467,106.667L33.604,107.222L33.673,107.222L33.741,106.111L33.81,104.444L33.878,104.444L33.946,103.333L34.015,103.889L34.152,101.667L34.22,101.111L34.357,100.556L34.494,100.556L34.563,100.556L34.631,103.889L34.699,103.889L34.768,103.889L34.973,103.889L35.042,104.444L35.11,105L35.247,103.889L35.315,103.889L35.384,105L35.452,105.556L35.521,105L35.589,107.778L35.658,108.333L35.726,109.444L35.795,109.444L35.863,110L36,110L36.068,112.222L36.205,112.778L36.274,112.778L36.342,112.778L36.411,113.333L36.479,113.333L36.616,113.889L36.684,113.333L36.753,114.444L36.821,113.889L36.89,113.333L36.958,112.222L37.163,112.222L37.232,110.556L37.3,108.889L37.369,106.667L37.643,107.778L37.779,107.222L37.916,107.778L37.985,109.444L38.053,110L38.122,110.556L38.396,110L38.464,111.111L38.532,110.556L38.669,108.333L38.806,108.889L38.875,107.778L39.012,108.889L39.08,110L39.148,110L39.354,110L39.422,109.444L39.491,110.556L39.559,111.111L39.696,111.111L39.833,111.111L39.901,112.222L39.97,112.778L40.038,113.889L40.107,113.333L40.175,113.333L40.244,112.778L40.312,112.778L40.449,113.889L40.517,115.556L40.586,116.111L40.654,116.111L40.723,115.556L40.86,115L40.928,115L40.996,114.444L41.133,115.556L41.202,115.556L41.27,115L41.407,116.111L41.476,115.556L41.544,116.667L41.612,117.222L41.749,117.222L41.818,116.667L41.886,116.667L41.955,117.778L42.092,117.222L42.16,116.111L42.228,112.778L42.297,111.667L42.365,110L42.434,109.444L42.502,108.333L42.571,107.222L42.639,106.667L42.708,106.111L42.845,107.778L42.981,108.889L43.05,109.444L43.118,107.778L43.187,106.667L43.255,106.111L43.324,105.556L43.392,104.444L43.461,104.444L43.529,102.778L43.597,102.222L43.666,102.222L43.734,103.889L43.803,102.778L43.871,101.667L43.94,99.444L44.008,97.222L44.077,97.222L44.145,94.444L44.213,92.778L44.282,91.667L44.35,92.222L44.419,93.889L44.487,95.556L44.556,97.222L44.624,98.333L44.761,98.889L44.829,97.778L44.898,97.778L44.966,97.222L45.035,96.111L45.172,96.111L45.24,95.556L45.309,97.222L45.377,97.222L45.445,98.333L45.514,98.333L45.582,98.889L45.719,97.778L45.788,99.444L45.856,99.444L45.925,99.444L45.993,98.333L46.061,97.778L46.13,98.333L46.201,96.667L46.27,97.222L46.338,98.333L46.407,100.556L46.543,102.222L46.612,103.333L46.68,101.667L46.749,102.222L46.817,102.222L46.886,102.222L46.954,102.222L47.023,102.778L47.091,106.667L47.159,108.333L47.228,110L47.296,111.111L47.365,111.111L47.433,111.667L47.502,111.111L47.57,112.778L47.639,112.778L47.707,114.444L47.775,115L47.844,116.111L47.912,116.111L47.981,116.111L48.049,116.111L48.118,117.222L48.186,117.778L48.255,117.778L48.323,121.667L48.392,123.333L48.46,122.778L48.528,123.333L48.597,122.778L48.802,123.333L49.144,126.111L50.24,127.222L50.308,126.667L51.061,126.111L51.266,126.111L51.54,126.111L52.156,126.111L52.225,126.111L52.361,125.556L52.498,125L52.909,124.444L53.32,123.889L53.593,123.333L54.073,122.222L54.209,121.111L54.483,120.556L54.552,120.556L55.096,120.556L55.165,118.889L55.37,118.889L55.439,118.889L55.507,117.778L55.781,118.889L55.918,119.444L55.986,119.444L56.123,118.333L56.192,117.778L56.328,117.778L56.397,116.667L56.602,115L56.739,115L56.876,115L57.081,113.889L57.287,113.889L57.492,113.333L57.903,112.778L57.971,112.222L58.04,111.667L58.176,112.222L58.313,112.778L58.382,113.333L58.45,113.889L58.519,114.444L58.656,114.444L58.724,115L58.861,115.556L59.135,115.556L59.203,116.111L59.272,117.778L59.409,118.333L59.614,118.333L59.682,119.444L59.751,118.889L59.819,117.778L59.888,117.778L59.956,118.333L60.025,119.444L60.093,118.889L60.161,120L60.23,121.111L60.298,121.111L60.367,121.111L60.435,122.778L60.504,122.222L60.572,121.667L60.641,122.222L60.709,122.778L60.846,122.778L60.914,122.778L60.983,122.222L61.051,120.556L61.12,120L61.188,120.556L61.325,119.444L61.462,118.333L61.599,118.333L61.736,118.333L61.804,118.333L61.873,118.333L61.941,118.333L62.009,118.889L62.078,118.889L62.146,119.444L62.215,120L62.352,118.889L62.42,118.889L62.489,118.889L62.557,119.444L62.625,120L62.694,120.556L62.831,120L62.899,120L62.968,120L63.036,120.556L63.173,121.111L63.242,120L63.31,120L63.378,120.556L63.447,120L63.515,119.444L63.584,121.111L63.652,121.111L63.789,121.111L63.858,122.778L63.926,123.889L63.994,123.889L64.131,122.778L64.2,121.667L64.337,120.556L64.405,120.556L64.474,121.111L64.61,120.556L64.679,120.556L64.747,120L65.021,120.556L65.158,120L65.295,118.889L65.363,118.333L65.5,118.333L65.706,117.778L65.774,117.778L65.842,115.556L65.911,114.444L66.048,113.889L66.185,113.889L66.322,114.444L66.527,113.889L66.595,113.333L66.664,113.889L66.801,112.778L66.869,111.667L67.074,112.222L67.143,111.667L67.28,112.222L67.348,112.778L67.417,111.111L67.554,112.222L67.622,113.333L67.691,113.889L67.759,113.889L67.827,113.889L67.896,114.444L67.964,115L68.101,115.556L68.375,115.556L68.443,116.667L68.58,114.444L68.649,114.444L68.717,112.222L68.786,112.222L68.854,111.667L68.923,111.111L68.991,110.556L69.059,106.667L69.196,105L69.265,103.333L69.333,101.667L69.402,100.556L69.47,99.444L69.607,98.333L69.675,97.222L69.812,96.667L69.881,96.111L69.949,95.556L70.018,95.556L70.086,96.111L70.155,95L70.223,93.889L70.291,93.333L70.428,93.333L70.565,93.333L70.702,89.444L70.771,88.889L70.839,88.333L70.907,87.778L70.976,87.778L71.044,91.111L71.116,91.667L71.184,93.333L71.253,93.333L71.321,93.889L71.389,96.667L71.458,98.333L71.526,103.333L71.595,105.556L71.732,107.222L71.8,109.444L71.869,110.556L72.005,111.667L72.074,114.444L72.142,116.667L72.211,117.222L72.279,118.333L72.348,118.889L72.416,118.333L72.485,119.444L72.553,120.556L72.621,121.111L72.69,122.222L72.758,122.222L72.827,122.222L72.895,126.111L73.032,126.667L73.101,127.778L73.169,128.889L73.238,128.333L73.306,128.333L73.511,128.333L73.58,128.889L73.648,128.889L73.717,129.444L73.785,129.444L73.99,129.444L74.127,128.333L74.333,127.778L74.675,128.333L74.88,127.778L74.949,127.778L75.086,127.778L75.154,128.333L75.428,128.333L75.77,127.778L75.907,127.778L76.181,127.778L76.454,127.222L76.728,127.222L76.865,126.667L77.481,127.222L77.823,127.222L77.892,126.111L78.234,125.556L78.85,123.333L78.987,122.778L79.055,122.778L79.124,122.778L79.671,123.333L79.805,122.778L80.011,122.778L80.216,122.222L80.285,122.778L80.353,120.556L80.422,120L80.558,119.444L80.627,120.556L80.764,120.556L80.832,120.556L80.969,119.444L81.243,118.333L81.311,117.778L81.38,117.222L81.517,116.111L81.585,116.667L81.654,116.111L81.79,115.556L82.064,116.667L82.27,116.667L82.406,116.667L82.475,116.667L82.68,116.667L82.749,117.222L82.954,117.222L83.022,119.444L83.159,118.333L83.228,116.667L83.365,116.667L83.57,116.111L83.638,116.667L83.707,116.111L83.775,116.667L83.912,114.444L84.118,116.667L84.186,116.667L84.323,116.111L84.391,115.556L84.46,115.556L84.528,115.556L84.597,115.556L84.665,116.667L84.802,115L84.871,115L84.939,115.556L85.007,114.444L85.076,115L85.144,115.556L85.281,115L85.35,115L85.418,114.444L85.487,114.444L85.555,113.333L85.623,113.333L85.692,113.889L85.76,113.889L85.829,115.556L85.897,117.222L86.034,116.667L86.103,116.667L86.171,116.111L86.239,116.667L86.308,116.667L86.445,118.333L86.582,118.333L86.787,116.667L86.855,117.222L86.924,117.222L87.061,117.778L87.266,117.778L87.335,119.444L87.403,120L87.471,122.222L87.608,122.778L87.745,122.778L87.882,122.222L88.019,122.222L88.087,122.222L88.156,122.222L88.224,121.111L88.43,122.222L88.498,122.222L88.567,121.667L88.704,120.556L88.84,120L88.909,118.889L88.977,118.889L89.046,118.889L89.114,117.222L89.183,117.222L89.32,116.111L89.388,116.111L89.456,115.556L89.593,115.556L89.662,115L89.867,115.556L89.936,115.556L90.004,116.111L90.072,113.889L90.141,113.333L90.278,112.778L90.346,112.778L90.415,111.111L90.483,110.556L90.552,111.111L90.62,112.778L90.825,111.667L90.894,111.111L91.031,110.556L91.099,111.667L91.168,111.667L91.236,110.556L91.304,111.667L91.373,111.667L91.441,111.111L91.51,111.667L91.578,109.444L91.647,109.444L91.852,111.111L91.92,111.111L91.989,112.222L92.057,110L92.194,109.444L92.263,108.889L92.331,109.444L92.4,111.111L92.468,108.333L92.537,107.222L92.605,107.222L92.673,107.778L92.742,107.222L92.81,105.556L92.879,103.889L92.947,102.222L93.016,100.556L93.153,100L93.221,96.667L93.289,95L93.358,94.444L93.426,90L93.495,85.556L93.563,85L93.632,83.889L93.7,81.667L93.769,80.556L93.974,80L94.042,79.444L94.111,75L94.179,74.444L94.316,73.333L94.385,71.667L94.453,72.222L94.59,71.111L94.658,72.222L94.727,69.444L94.795,68.889L94.864,71.111L94.932,71.111L95.001,71.111L95.069,69.444L95.137,65L95.206,63.889L95.274,63.889L95.343,65.556L95.48,66.667L95.548,66.667L95.617,69.444L95.685,70.556L95.822,72.222L95.89,76.111L95.959,80L96.03,81.111L96.099,82.778L96.167,83.889L96.235,85.556L96.304,86.111L96.372,88.889L96.441,92.778L96.509,93.889L96.578,94.444L96.646,96.667L96.715,98.333L96.783,100.556L96.851,100.556L96.92,103.333L96.988,103.889L97.057,105L97.125,105.556L97.194,107.778L97.262,109.444L97.331,113.889L97.467,116.111L97.536,119.444L97.604,119.444L97.673,120L97.741,120L97.81,121.667L97.878,122.778L98.015,122.222L98.084,122.778L98.152,122.778L98.22,123.333L98.289,123.333L98.357,126.111L98.494,126.667L98.563,127.222L98.631,127.222L98.7,126.667L98.836,126.667L98.905,127.778L99.042,127.222L99.179,127.222L99.247,126.667L99.316,125.556L99.452,125.556L99.521,125L99.589,123.889L99.726,123.889L99.795,122.778L100.068,121.667L100.342,121.667L100.411,122.222L100.684,120.556L100.753,120L100.821,119.444L101.027,120L101.369,119.444L101.711,119.444L101.78,118.333L102.327,116.111L102.464,116.667L102.669,116.111L102.738,115.556L103.354,115.556L103.628,115.556L103.833,114.444L104.381,113.333L104.449,113.889L104.517,113.333L104.586,112.222L104.651,112.778L104.72,112.222L104.788,111.111L104.925,111.111L104.994,111.111L105.062,111.667L105.199,111.667L105.268,111.111L105.404,110.556L105.473,111.111L105.541,110.556L105.747,110.556L105.815,112.222L105.952,112.222L106.089,112.222L106.157,110.556L106.226,110.556L106.431,110.556L106.568,111.667L106.636,112.222L106.705,112.222L106.842,111.111L106.91,109.444L106.979,107.222L107.116,106.667L107.184,107.778L107.252,108.333L107.321,108.889L107.389,107.778L107.663,106.667L107.868,104.444L108.074,102.222L108.142,103.889L108.211,102.778L108.279,101.111L108.348,100L108.416,98.889L108.484,99.444L108.553,100L108.621,96.667L108.69,98.333L108.758,97.222L108.827,95.556L108.964,96.667L109.032,96.667L109.101,97.222L109.169,96.667L109.237,94.444L109.306,93.333L109.374,94.444L109.443,93.333L109.511,93.333L109.58,93.889L109.648,95.556L109.717,95L109.785,95L109.853,94.444L109.922,94.444L109.99,95L110.059,96.111L110.127,97.222L110.196,98.889L110.264,98.889L110.333,100.556L110.401,101.667L110.469,102.778L110.606,103.889L110.675,104.444L110.743,105.556L110.812,107.778L110.88,107.222L110.949,108.333L111.017,108.889L111.085,108.889L111.222,106.667L111.291,107.778L111.359,107.778L111.496,109.444L111.565,110L111.633,109.444L111.701,110L111.77,111.111L111.907,110.556L111.975,110L112.044,110L112.112,110L112.181,110L112.249,109.444L112.317,107.778L112.386,108.889L112.454,107.778L112.523,108.889L112.66,108.333L112.728,106.667L112.797,105.556L112.865,103.333L112.933,103.333L113.07,103.333L113.139,102.778L113.207,102.778L113.276,102.222L113.344,100.556L113.413,101.111L113.481,99.444L113.55,101.667L113.618,99.444L113.686,95.556L113.823,94.444L113.892,94.444L113.96,93.889L114.029,93.333L114.097,92.222L114.166,92.222L114.234,91.667L114.371,92.778L114.439,92.222L114.508,93.333L114.576,92.778L114.713,95L114.85,93.889L114.918,95.556L114.987,95L115.055,92.778L115.124,93.889L115.192,95.556L115.261,96.111L115.329,95.556L115.398,95L115.466,95L115.534,96.111L115.671,97.222L115.74,96.111L115.808,96.111L115.877,97.222L115.945,97.222L116.014,99.444L116.15,103.333L116.219,103.333L116.287,103.889L116.356,103.889L116.424,104.444L116.561,103.333L116.63,102.222L116.698,103.333L116.766,102.222L116.835,102.222L116.903,100L116.972,98.889L117.04,95.556L117.109,95.556L117.177,96.111L117.246,96.111L117.314,97.222L117.383,96.667L117.451,96.111L117.519,93.889L117.588,92.778L117.656,91.667L117.725,91.111L117.793,90.556L117.862,88.889L117.93,89.444L117.999,86.111L118.067,81.667L118.204,75.556L118.272,73.333L118.409,73.333L118.478,70L118.546,65.556L118.615,66.111L118.683,64.444L118.751,66.111L118.82,66.111L118.888,64.444L118.957,63.889L119.025,60L119.094,60L119.162,58.889L119.231,58.889L119.299,56.111L119.367,53.333L119.436,48.889L119.504,43.333L119.573,38.889L119.641,37.778L119.71,39.444L119.778,37.778L119.847,32.222L119.915,25L119.983,24.444L120.052,20.556L120.12,18.889L120.189,22.222L120.257,21.111L120.326,27.778L120.394,29.444L120.463,30L120.531,32.222L120.599,37.222L120.668,34.444L120.736,35.556L120.805,34.444L120.873,36.111L120.945,33.333L121.013,32.778L121.081,36.111L121.15,37.778L121.218,40L121.287,42.778L121.355,44.444L121.424,47.222L121.492,51.111L121.561,58.333L121.629,63.889L121.697,63.889L121.766,64.444L121.834,67.778L121.903,74.444L121.971,81.111L122.04,73.333L122.108,78.889L122.177,82.778L122.245,81.667L122.313,87.778L122.382,87.222L122.45,87.778L122.519,87.222L122.587,90L122.656,90L122.724,93.889L122.793,93.333L122.861,95L122.93,96.667L122.998,101.667L123.066,103.333L123.135,104.444L123.203,105L123.272,106.111L123.34,107.222L123.409,109.444L123.477,104.444L123.546,100.556L123.614,100L123.682,100L123.751,101.667L123.819,103.333L123.888,104.444L123.956,103.889L124.025,105.556L124.504,115L124.572,115L124.709,115L124.846,116.667L124.914,115L124.983,115.556L125.257,115.556L125.394,115.556L125.462,115.556L125.53,115.556L125.599,115.556L125.667,116.667L125.736,117.222L126.078,117.222L126.215,117.222L126.42,117.222L126.489,116.667L126.762,116.667L126.831,116.111L127.105,115L127.173,113.333L127.242,118.333L127.31,121.667L127.379,121.667L127.652,121.667L127.721,121.667L127.789,121.111L127.858,121.111L128.131,122.222L128.337,121.111L128.405,118.333L128.542,118.333L128.611,117.778L128.679,117.222L128.816,118.889L128.884,118.889L128.953,117.778L129.021,118.333L129.158,118.333L129.227,117.222L129.295,116.667L129.363,117.222L129.432,117.222L129.569,116.111L129.637,115.556L129.706,115.556L129.843,114.444L129.911,113.333L129.979,113.333L130.045,114.444L130.114,112.222L130.182,110L130.319,111.111L130.387,111.667L130.456,112.222L130.524,110.556L130.593,110.556L130.661,109.444L130.73,109.444L130.798,109.444L130.866,111.667L131.003,111.667L131.072,111.111L131.209,110.556L131.346,108.889L131.414,107.222L131.482,107.778L131.551,108.333L131.619,107.222L131.688,107.222L131.756,106.667L131.893,105.556L131.962,105.556L132.03,106.111L132.098,105.556L132.167,104.444L132.235,105.556L132.304,105L132.372,104.444L132.441,103.333L132.509,106.667L132.578,107.778L132.646,106.667L132.714,103.889L132.783,103.889L132.92,105L133.057,105.556L133.125,106.667L133.194,103.333L133.262,101.667L133.33,100L133.399,98.333L133.467,99.444L133.536,100L133.604,101.667L133.741,101.667L133.81,101.667L133.946,100.556L134.015,100L134.083,98.889L134.152,99.444L134.22,98.889L134.289,98.333L134.357,97.222L134.426,98.333L134.494,98.889L134.563,98.333L134.631,98.889L134.699,97.222L134.768,96.667L134.836,96.667L134.905,97.222L134.973,97.778L135.042,97.778L135.11,97.222L135.315,95.556L135.384,94.444L135.452,94.444L135.521,97.222L135.589,96.111L135.658,97.778L135.726,99.444L135.795,99.444L135.863,98.889L135.931,98.889L136,100L136.068,98.889L136.137,98.333L136.205,99.444L136.342,98.889L136.411,98.333L136.479,100L136.616,100L136.684,101.667L136.753,101.111L136.821,101.667L136.89,102.778L136.958,103.889L137.095,105.556L137.163,107.222L137.232,105L137.3,104.444L137.369,103.889L137.437,106.111L137.574,106.111L137.643,107.778L137.711,107.778L137.779,107.222L137.848,107.222L137.916,111.111L138.122,111.111L138.259,110.556L138.327,110.556L138.396,110.556L138.464,110L138.532,110L138.601,111.111L138.669,112.778L138.738,112.778L138.806,115L138.875,116.111L138.943,115L139.012,114.444L139.148,113.889L139.217,114.444L139.354,114.444L139.422,114.444L139.491,113.333L139.628,113.333L139.696,113.333L139.764,115.556L139.833,113.889L139.901,115L140.107,113.333L140.175,112.778L140.244,112.778L140.449,113.889L140.517,113.889L140.586,113.333L140.654,112.778L140.723,111.111L140.791,110L140.86,110L140.928,110L141.133,108.889L141.202,107.778L141.339,106.667L141.407,105.556L141.476,105L141.544,102.778L141.612,101.667L141.681,101.111L141.749,101.111L141.818,100.556L141.886,100L141.955,99.444L142.023,97.778L142.092,98.333L142.16,97.222L142.228,95.556L142.365,95L142.434,95.556L142.502,94.444L142.571,94.444L142.639,95.556L142.708,95L142.776,91.111L142.913,89.444L142.981,89.444L143.05,89.444L143.118,88.889L143.187,86.667L143.255,84.444L143.324,84.444L143.392,86.111L143.461,87.222L143.529,88.889L143.597,88.889L143.666,87.222L143.803,87.222L143.871,83.889L143.94,83.333L144.008,83.333L144.077,83.889L144.145,80.556L144.213,77.222L144.282,77.222L144.35,73.333L144.419,72.778L144.487,66.111L144.556,62.222L144.624,61.667L144.693,57.778L144.761,59.444L144.829,54.444L144.898,51.111L144.966,53.333L145.035,54.444L145.103,53.889L145.172,51.111L145.24,51.667L145.309,55L145.377,57.222L145.445,56.111L145.514,54.444L145.582,51.111L145.651,47.222L145.719,45L145.856,46.111L145.925,46.111L145.993,48.889L146.061,47.222L146.198,45.556L146.338,42.778L146.407,43.333L146.475,46.111L146.543,45L146.612,49.444L146.68,47.222L146.749,52.778L146.817,54.444L146.886,55L146.954,58.889L147.023,59.444L147.091,64.444L147.159,67.778L147.228,68.889L147.296,70L147.365,70.556L147.433,72.778L147.502,75L147.57,75L147.639,75L147.707,77.222L147.775,78.889L147.844,82.222L147.912,86.111L147.981,89.444L148.049,91.111L148.118,93.889L148.186,95.556L148.255,99.444L148.323,102.222L148.392,105.556L148.46,108.889L148.528,110L148.597,112.778L148.665,111.667L148.734,116.667L148.802,119.444L148.871,122.778L149.008,125L149.076,126.111L149.144,126.111L149.213,126.111L149.281,127.222L149.624,127.778L149.76,127.778L149.829,128.889L149.897,130L149.966,130L150.171,130.556L150.24,130L150.308,130L150.376,128.333L150.445,127.778L150.65,127.778L150.719,127.778L150.787,127.222L150.924,126.667L151.129,126.667L151.198,125.556L151.608,124.444L151.745,124.444L151.814,123.333L151.882,123.889L151.951,123.889L152.019,123.333L152.156,122.778L152.635,122.222L152.704,122.222L152.772,121.667L153.183,121.667L153.388,121.111L153.525,121.111L153.73,121.111L153.867,121.111L153.936,118.889L154.004,118.889L154.209,118.333L154.278,117.222L154.346,117.222L154.415,115.556L154.483,114.444L154.757,115L154.825,116.111L154.96,116.111L155.028,115.556L155.096,115L155.165,114.444L155.233,112.222L155.302,112.222L155.439,112.222L155.576,111.111L155.644,111.111L155.712,110L155.781,108.333L155.849,110L155.986,109.444L156.055,108.333L156.123,107.222L156.26,107.222L156.328,107.778L156.397,107.778L156.465,106.667L156.671,106.667L156.739,104.444L156.876,106.667L156.944,105L157.081,103.333L157.15,103.889L157.218,102.778L157.287,103.333L157.355,102.778L157.424,103.889L157.492,101.667L157.56,100L157.629,98.333L157.697,98.889L157.766,97.778L157.834,98.333L157.903,96.667L157.971,97.778L158.04,97.778L158.108,98.889L158.176,99.444L158.245,100.556L158.313,99.444L158.382,99.444L158.45,100.556L158.519,98.333L158.587,98.333L158.724,97.222L158.792,95.556L158.861,95.556L158.929,95.556L158.998,94.444L159.066,93.889L159.135,95L159.203,95.556L159.272,94.444L159.34,94.444L159.409,95.556L159.477,95L159.545,94.444L159.614,96.667L159.682,98.333L159.751,98.889L159.819,99.444L159.888,100.556L159.956,101.111L160.025,103.889L160.093,103.889L160.161,104.444L160.23,103.889L160.298,104.444L160.367,105L160.435,106.111L160.504,106.667L160.572,107.222L160.641,110L160.709,110.556L160.777,111.111L160.846,113.333L160.914,112.778L160.983,112.778L161.051,115.556L161.12,115.556L161.188,115L161.257,115.556L161.325,115.556L161.393,114.444L161.53,112.778L161.599,115L161.667,115L161.736,113.889L161.804,113.333L161.873,114.444L161.941,114.444L162.009,115.556L162.078,115.556L162.146,113.889L162.215,113.889L162.42,114.444L162.489,115L162.557,115L162.625,114.444L162.694,113.889L162.762,114.444L162.831,112.778L162.899,112.222L162.968,111.111L163.036,110L163.105,109.444L163.173,110.556L163.242,110L163.31,110L163.447,110L163.515,111.111L163.584,112.222L163.652,113.333L163.721,115L163.789,117.222L163.858,117.222L164.063,115.556L164.131,115.556L164.2,115.556L164.268,114.444L164.405,114.444L164.474,111.667L164.61,112.222L164.679,112.222L164.747,109.444L164.816,108.889L164.884,107.778L165.09,106.111L165.158,105L165.226,105L165.363,105L165.5,106.111L165.569,106.667L165.637,107.222L165.706,108.333L165.774,106.667L165.842,107.222L165.911,107.222L165.979,107.778L166.048,105.556L166.116,105L166.185,104.444L166.253,101.111L166.322,98.889L166.39,97.222L166.458,97.222L166.527,99.444L166.595,100L166.664,100L166.732,101.111L166.801,98.333L167.006,100.556L167.074,100L167.143,100L167.211,101.111L167.28,101.667L167.417,102.222L167.485,102.222L167.554,102.778L167.622,99.444L167.691,99.444L167.759,99.444L167.827,97.778L167.896,92.222L167.964,88.889L168.033,88.333L168.101,87.778L168.17,86.667L168.238,86.667L168.307,86.667L168.375,83.889L168.443,80L168.512,76.667L168.58,76.667L168.649,74.444L168.717,74.444L168.786,70.556L168.854,66.667L168.923,61.667L168.991,61.111L169.059,61.111L169.128,57.222L169.196,49.444L169.265,41.111L169.333,35L169.402,31.111L169.47,28.889L169.539,27.222L169.607,21.111L169.675,22.778L169.744,21.111L169.812,16.667L169.881,16.667L169.949,18.889L170.018,22.778L170.086,23.333L170.155,22.778L170.223,23.333L170.291,22.222L170.36,22.778L170.428,24.444L170.497,28.889L170.565,35.556L170.634,32.222L170.702,32.222L170.771,31.111L170.839,33.889L170.907,36.111L170.976,40.556L171.044,40L171.113,40.556L171.181,43.333L171.253,50L171.321,56.667L171.389,58.889L171.458,57.778L171.526,60L171.595,63.333L171.663,67.222L171.732,66.111L171.8,67.778L171.869,72.778L171.937,73.889L172.005,77.778L172.074,77.222L172.142,78.889L172.211,78.333L172.279,78.889L172.348,80L172.485,82.222L172.553,83.333L172.621,83.333L172.69,83.333L172.758,89.444L172.827,93.333L172.895,94.444L172.964,95L173.032,95.556L173.101,96.667L173.169,98.333L173.238,100L173.306,101.111L173.374,102.778L173.443,103.889L173.511,108.889L173.58,112.778L173.648,112.778L173.717,112.778L173.785,115.556L173.854,117.222L173.922,117.222L173.99,116.111L174.059,117.222L174.127,116.111L174.196,115L174.264,115L174.333,116.111L174.401,116.667L174.538,116.667L174.606,116.111L174.675,116.667L174.743,116.667L174.88,116.667L175.222,116.667L175.428,116.667L175.565,116.667L175.633,116.667L175.77,118.333L175.907,118.333L175.975,118.333L176.044,118.333L176.112,118.889L176.181,118.333L176.249,119.444L176.318,119.444L176.386,120L176.454,118.333L176.523,118.333L176.591,118.889L176.66,120.556L176.797,119.444L176.865,120L176.934,120L177.002,121.111L177.07,122.778L177.207,122.778L177.276,122.778L177.344,122.778L177.618,122.778L177.687,122.778L177.755,122.778L177.892,121.667L177.96,122.222L178.029,122.222L178.097,120L178.166,118.889L178.234,118.889L178.645,118.889L178.782,118.333L178.85,117.778L178.987,117.778L179.124,116.667L179.261,117.222L179.398,116.667L179.466,115L179.603,115.556L179.808,117.778L179.942,115.556L180.011,113.333L180.079,112.222L180.216,112.778L180.353,111.667L180.49,110L180.558,110L180.627,107.778L180.695,108.333L180.832,108.889L180.901,107.778L180.969,105L181.038,103.333L181.106,101.667L181.174,102.222L181.311,102.222L181.38,100.556L181.448,101.667L181.517,102.222L181.585,102.222L181.654,100L181.79,100L181.859,98.889L181.927,99.444L181.996,100L182.064,99.444L182.133,98.889L182.201,101.111L182.27,100.556L182.338,100L182.475,101.111L182.543,101.111L182.612,101.667L182.68,102.222L182.749,103.333L182.817,103.889L182.886,103.333L182.954,105.556L183.022,104.444L183.159,103.889L183.228,103.333L183.296,104.444L183.365,103.889L183.433,103.889L183.502,101.667L183.57,100L183.638,100L183.707,98.889L183.775,99.444L183.912,98.889L183.981,100.556L184.049,100L184.118,97.778L184.186,94.444L184.255,91.667L184.323,91.667L184.391,92.778L184.46,92.778L184.597,91.111L184.665,91.667L184.734,91.667L184.802,93.333L184.871,92.222L184.939,91.111L185.007,91.667L185.076,91.667L185.144,92.222L185.213,90L185.281,91.111L185.35,91.667L185.418,92.222L185.487,92.778L185.555,95L185.623,96.667L185.829,98.889L185.966,100.556L186.103,102.222L186.171,103.889L186.239,102.778L186.308,103.333L186.376,103.889L186.445,105L186.582,107.778L186.65,109.444L186.719,111.111L186.787,111.111L186.855,109.444L186.924,109.444L186.992,111.111L187.061,109.444L187.129,109.444L187.198,109.444L187.266,110.556L187.335,109.444L187.403,108.889L187.471,107.778L187.54,107.778L187.608,108.333L187.677,107.222L187.882,105.556L187.951,105.556L188.019,106.111L188.156,106.111L188.224,106.111L188.293,106.111L188.361,104.444L188.43,103.333L188.567,101.667L188.635,102.778L188.772,101.667L188.84,101.111L188.909,100.556L188.977,101.111L189.046,101.667L189.114,102.778L189.183,101.111L189.251,103.889L189.32,103.333L189.388,103.333L189.456,105L189.525,105.556L189.593,105L189.662,105.556L189.73,107.778L189.799,105.556L189.867,106.111L189.936,105L190.004,105L190.141,106.111L190.278,107.222L190.346,107.778L190.415,108.333L190.483,108.889L190.62,108.889L190.757,108.889L190.825,108.889L190.894,107.778L190.962,110L191.031,108.333L191.168,107.222L191.304,107.222L191.441,105L191.51,103.889L191.578,103.889L191.647,103.333L191.715,100.556L191.92,98.333L191.989,96.111L192.126,93.333L192.194,92.222L192.331,91.667L192.4,90.556L192.468,86.667L192.537,86.667L192.605,88.333L192.673,87.778L192.742,87.778L192.81,86.667L192.879,84.444L192.947,81.111L193.153,76.111L193.289,72.222L193.358,67.222L193.426,64.444L193.495,63.889L193.632,62.222L193.7,58.333L193.769,52.778L193.837,47.778L193.905,47.222L193.974,43.889L194.042,46.111L194.111,44.444L194.179,41.111L194.248,39.444L194.316,40.556L194.385,36.667L194.453,37.778L194.521,41.111L194.59,40.556L194.658,34.444L194.727,31.667L194.795,32.222L194.864,28.333L194.932,24.444L195.069,24.444L195.137,22.778L195.206,20L195.274,20L195.343,20.556L195.411,23.333L195.48,23.889L195.548,26.111L195.617,17.778L195.685,12.778L195.753,8.889L195.822,11.667L195.89,12.222L195.959,15L196.027,16.111L196.096,13.889L196.167,10.556L196.235,10.556L196.304,11.111L196.372,11.667L196.441,10.556L196.509,15.556L196.578,16.667L196.646,12.778L196.715,10L196.783,11.667L196.851,15.556L196.92,17.222L196.988,21.111L197.057,25.556L197.125,26.111L197.194,27.778L197.262,31.667L197.331,33.889L197.399,37.222L197.467,39.444L197.536,42.778L197.604,45.556L197.673,56.667L197.741,61.667L197.81,68.333L197.878,71.111L197.947,75.556L198.015,79.444L198.084,80.556L198.152,86.667L198.22,89.444L198.289,92.778L198.357,96.667L198.426,98.889L198.494,103.889L198.563,105L198.631,105.556L198.7,109.444L198.768,113.333L198.836,118.889L198.905,120L198.973,121.667L199.042,121.667L199.11,122.222L199.179,122.778L199.247,123.333L199.316,124.444L199.521,123.333L199.589,123.333L199.658,123.333L199.863,122.778L200.068,122.778" stroke="#4c78a8" stroke-width="2"/></g><g class="mark-group role-title"><g transform="translate(100,-17)"><path class="background" aria-hidden="true" d="M0,0h0v0h0Z" pointer-events="none"/><g><g class="mark-text role-title-text" role="graphics-symbol" aria-roledescription="title" aria-label="Title text 'Noise: Noise:  lawn care equipment (NCL)'" pointer-events="none"><text text-anchor="middle" transform="translate(0,10)" font-family="sans-serif" font-size="13px" font-weight="bold" fill="#000" opacity="1">Noise: Noise:  lawn care equipment (NCL)</text></g></g><path class="foreground" aria-hidden="true" d="" pointer-events="none" display="none"/></g></g></g><path class="foreground" aria-hidden="true" d="" display="none"/></g></g></g><defs><clipPath id="clip121"><rect x="0" y="0" width="200" height="150"/></clipPath></defs></svg>