<svg xmlns="http://www.w3.org/2000/svg" xmlns:xlink="http://www.w3.org/1999/xlink" version="1.1" class="marks" width="340" height="194" viewBox="0 0 340 194"><rect width="340" height="194" fill="white"/><g fill="none" stroke-miterlimit="10" transform="translate(70,22)"><g class="mark-group role-frame root" role="graphics-object" aria-roledescription="group mark container"><g transform="translate(0,0)"><path class="background" aria-hidden="true" d="M0,0h200v150h-200Z"/><g><g class="mark-group role-axis" aria-hidden="true"><g transform="translate(0.5,0.5)"><path class="background" aria-hidden="true" d="M0,0h0v0h0Z" pointer-events="none"/><g><g class="mark-rule role-axis-grid" pointer-events="none"><line transform="translate(0,150)" x2="200" y2="0" stroke="#ddd" stroke-width="1" opacity="1"/><line transform="translate(0,108)" x2="200" y2="0" stroke="#ddd" stroke-width="1" opacity="1"/><line transform="translate(0,67)" x2="200" y2="0" stroke="#ddd" stroke-width="1" opacity="1"/><line transform="translate(0,25)" x2="200" y2="0" stroke="#ddd" stroke-width="1" opacity="1"/></g></g><path class="foreground" aria-hidden="true" d="" pointer-events="none" display="none"/></g></g><g class="mark-group role-axis" role="graphics-symbol" aria-roledescription="axis" aria-label="X-axis for a time scale with values from Friday, 01 January 2016, 12:00:00 AM to Monday, 01 January 2024, 12:00:00 AM"><g transform="translate(0.5,150.5)"><path class="background" aria-hidden="true" d="M0,0h0v0h0Z" pointer-events="none"/><g><g class="mark-rule role-axis-tick" pointer-events="none"><line transform="translate(0,0)" x2="0" y2="5" stroke="#888" stroke-width="1" opacity="1"/><line transform="translate(50,0)" x2="0" y2="5" stroke="#888" stroke-width="1" opacity="1"/><line transform="translate(100,0)" x2="0" y2="5" stroke="#888" stroke-width="1" opacity="1"/><line transform="translate(150,0)" x2="0" y2="5" stroke="#888" stroke-width="1" opacity="1"/><line transform="translate(200,0)" x2="0" y2="5" stroke="#888" stroke-width="1" opacity="1"/></g><g class="mark-text role-axis-label" pointer-events="none"><text text-anchor="start" transform="translate(0,15)" font-family="sans-serif" font-size="10px" fill="#000" opacity="1">2016</text><text text-anchor="middle" transform="translate(50.03422313483915,15)" font-family="sans-serif" font-size="10px" fill="#000" opacity="1">2018</text><text text-anchor="middle" transform="translate(100,15)" font-family="sans-serif" font-size="10px" fill="#000" opacity="1">2020</text><text text-anchor="middle" transform="translate(150.03422313483915,15)" font-family="sans-serif" font-size="10px" fill="#000" opacity="1">2022</text><text text-anchor="end" transform="translate(200,15)" font-family="sans-serif" font-size="10px" fill="#000" opacity="1">2024</text></g><g class="mark-rule role-axis-domain" pointer-events="none"><line transform="translate(0,0)" x2="200" y2="0" stroke="#888" stroke-width="1" opacity="1"/></g></g><path class="foreground" aria-hidden="true" d="" pointer-events="none" display="none"/></g></g><g class="mark-group role-axis" role="graphics-symbol" aria-roledescription="axis" aria-label="Y-axis for a linear scale with values from 0 to 180"><g transform="translate(0.5,0.5)"><path class="background" aria-hidden="true" d="M0,0h0v0h0Z" pointer-events="none"/><g><g class="mark-rule role-axis-tick" pointer-events="none"><line transform="translate(0,150)" x2="-5" y2="0" stroke="#888" stroke-opacity="0" stroke-width="1" opacity="1"/><line transform="translate(0,108)" x2="-5" y2="0" stroke="#888" stroke-opacity="0" stroke-width="1" opacity="1"/><line transform="translate(0,67)" x2="-5" y2="0" stroke="#888" stroke-opacity="0" stroke-width="1" opacity="1"/><line transform="translate(0,25)" x2="-5" y2="0" stroke="#888" stroke-opacity="0" stroke-width="1" opacity="1"/></g><g class="mark-text role-axis-label" pointer-events="none"><text text-anchor="end" transform="translate(-7,153)" font-family="sans-serif" font-size="10px" fill="#000" opacity="1">0</text><text text-anchor="end" transform="translate(-7,111.33333333333333)" font-family="sans-serif" font-size="10px" fill="#000" opacity="1">50</text><text text-anchor="end" transform="translate(-7,69.66666666666666)" font-family="sans-serif" font-size="10px" fill="#000" opacity="1">100</text><text text-anchor="end" transform="translate(-7,27.999999999999993)" font-family="sans-serif" font-size="10px" fill="#000" opacity="1">150</text></g></g><path class="foreground" aria-hidden="true" d="" pointer-events="none" display="none"/></g></g><g class="mark-line role-mark marks" clip-path="url(#clip103)" role="graphics-object" aria-roledescription="line mark container"><path aria-label="day: Jan 01, 2010; avg: 26.6666666667" role="graphics-symbol" aria-roledescription="line mark" d="M-149.966,127.778L-149.897,127.583L-149.829,127.472L-149.76,127.556L-149.692,127.722L-149.624,128.417L-149.555,128.861L-149.487,129.889L-149.418,130.417L-149.35,131L-149.281,130.611L-149.213,130.889L-149.144,131.694L-149.076,131.972L-149.008,132.417L-148.939,133.222L-148.871,133.889L-148.802,132.944L-148.734,131.083L-148.665,125.167L-148.597,124.139L-148.528,123.861L-148.46,123.889L-148.392,123.361L-148.323,122.611L-148.255,122.111L-148.186,123.028L-148.118,123.944L-148.049,124.472L-147.981,124.667L-147.912,125.167L-147.844,125.417L-147.775,125.694L-147.707,126.111L-147.639,126.278L-147.57,126L-147.502,126.139L-147.433,125.528L-147.365,124.639L-147.296,124.583L-147.228,125.194L-147.091,124.944L-147.023,124.139L-146.954,123.722L-146.886,122.861L-146.817,121.972L-146.749,121.194L-146.68,121.611L-146.612,123.222L-146.543,128.389L-146.475,129.056L-146.407,129.361L-146.338,129.389L-146.27,129.444L-146.201,129.778L-146.133,129.861L-145.927,128.75L-145.859,127.444L-145.791,126.833L-145.722,126.25L-145.654,125.611L-145.585,124.944L-145.517,124.806L-145.448,124.972L-145.38,124.528L-145.311,124.778L-145.243,124.472L-145.175,124.5L-145.106,125.028L-145.038,125.222L-144.972,125.278L-144.904,125.139L-144.835,125.361L-144.767,125.361L-144.698,125.917L-144.63,126.667L-144.561,127.583L-144.493,128.25L-144.424,128.083L-144.356,128.194L-144.288,128.611L-144.219,128.806L-144.151,129.333L-144.082,129.972L-144.014,130.306L-143.945,130.139L-143.877,130.806L-143.808,131.639L-143.74,131.972L-143.672,132.25L-143.603,132.861L-143.535,132.778L-143.466,132.306L-143.398,132.056L-143.329,132L-143.261,132.056L-143.192,132.278L-143.124,132.639L-143.056,132.639L-142.987,132.222L-142.919,132.167L-142.85,131.917L-142.782,131.944L-142.713,131.972L-142.645,132.5L-142.576,132.417L-142.508,131.972L-142.44,132L-142.371,131.861L-142.303,131.861L-142.234,131.944L-142.166,132.222L-142.097,131.944L-142.029,131.139L-141.96,131.083L-141.892,130.611L-141.824,130.194L-141.755,130.417L-141.687,131L-141.618,131.639L-141.55,130.611L-141.481,130.389L-141.413,129.306L-141.344,129.306L-141.276,129.417L-141.208,129.806L-141.139,129.583L-141.071,129.028L-141.002,128.833L-140.934,129.222L-140.865,129.361L-140.797,129.639L-140.728,129.972L-140.66,129.972L-140.591,129.472L-140.523,129.028L-140.455,128.778L-140.386,128.667L-140.318,128.861L-140.249,129.472L-140.181,129.389L-140.112,128.861L-140.044,128.806L-139.975,129L-139.907,128.972L-139.839,129.611L-139.77,130.222L-139.702,129.806L-139.633,128.972L-139.565,128.333L-139.496,129.056L-139.428,129.722L-139.359,131.083L-139.291,131.75L-139.223,132.417L-139.154,131.556L-139.086,131.583L-139.017,130.944L-138.949,131.056L-138.88,131.056L-138.812,131.222L-138.743,131.056L-138.675,130.556L-138.607,130.694L-138.538,130.5L-138.47,130.889L-138.401,131.167L-138.333,131.417L-138.264,131.333L-138.196,130.667L-138.127,130.75L-138.059,130.861L-137.991,130.917L-137.922,131.306L-137.854,131.667L-137.785,131.583L-137.717,131.139L-137.648,131.25L-137.58,131.028L-137.511,131.306L-137.443,131.472L-137.375,131.667L-137.306,131.444L-137.238,131.083L-137.169,130.472L-137.101,130.694L-137.032,131.167L-136.964,132.278L-136.895,132.444L-136.827,132.278L-136.758,131.944L-136.69,131.889L-136.622,131.944L-136.553,131.944L-136.485,132.139L-136.416,132.389L-136.348,132.306L-136.279,132L-136.211,132.194L-136.142,132.472L-136.074,132.472L-136.006,132.417L-135.937,132.889L-135.869,132.806L-135.8,132.583L-135.732,132.333L-135.663,132.389L-135.595,132.694L-135.526,133.333L-135.458,133.333L-135.39,133.167L-135.321,132.806L-135.253,132.806L-135.184,132.556L-135.116,132.333L-135.047,132.667L-134.979,133.056L-134.91,133.361L-134.842,132.194L-134.774,131.917L-134.705,131.5L-134.637,131.75L-134.568,131.944L-134.5,132.389L-134.431,132.333L-134.363,132.028L-134.294,132.222L-134.226,132.222L-134.158,132.222L-134.089,132.028L-134.021,132.333L-133.952,132.472L-133.884,132.139L-133.815,131.889L-133.747,131.639L-133.678,131.528L-133.61,131.639L-133.542,131.75L-133.473,130.917L-133.405,130.444L-133.336,130.361L-133.268,130.083L-133.199,129.722L-133.131,129.944L-133.062,130.639L-132.994,130.389L-132.926,129.889L-132.857,129.583L-132.789,130L-132.72,130.25L-132.652,130.583L-132.583,130.972L-132.515,131.25L-132.446,130.528L-132.378,130.528L-132.309,129.028L-132.241,129.417L-132.173,129.667L-132.104,129.972L-132.036,130.167L-131.967,129.861L-131.899,129.861L-131.83,129.944L-131.762,130.361L-131.693,130.667L-131.625,131.417L-131.557,131.583L-131.488,131.139L-131.42,132.028L-131.351,132.333L-131.283,132.694L-131.214,133.139L-131.146,133.889L-131.077,133.722L-131.009,133.917L-130.941,134.25L-130.872,133.833L-130.804,133.556L-130.735,133.889L-130.667,134.25L-130.598,134.25L-130.53,133.861L-130.461,133.667L-130.393,134.389L-130.325,134.25L-130.256,135.472L-130.188,135.083L-130.119,134.639L-130.051,134.111L-129.982,133.833L-129.914,133.194L-129.845,132.889L-129.777,132.306L-129.709,132.389L-129.64,131.861L-129.572,131.083L-129.503,131.167L-129.435,131.75L-129.366,131.333L-129.298,131.333L-129.229,131.25L-129.161,129.972L-129.093,128.944L-129.024,128.75L-128.956,127.806L-128.887,127.556L-128.819,127.861L-128.75,128.417L-128.679,128.5L-128.611,128.167L-128.542,128.222L-128.474,128.083L-128.405,127.694L-128.337,127.25L-128.268,127.944L-128.2,128.167L-128.131,127.944L-128.063,128.444L-127.995,128.556L-127.926,128.944L-127.858,129.778L-127.789,130.556L-127.721,130.972L-127.652,130.806L-127.584,131.139L-127.515,131.333L-127.447,131.528L-127.379,131.5L-127.31,132.278L-127.242,132.833L-127.173,133.222L-127.105,134.944L-127.036,136.139L-126.968,136.972L-126.899,137.861L-126.831,136.528L-126.762,136.75L-126.694,136.917L-126.626,137.444L-126.557,137.889L-126.489,138.444L-126.42,136.417L-126.352,132.944L-126.283,129.972L-126.215,128.528L-126.146,127.306L-126.078,126.333L-126.01,124.972L-125.941,124.139L-125.873,122.778L-125.804,121.389L-125.736,119.5L-125.667,118.889L-125.599,118.444L-125.53,118.806L-125.462,119.472L-125.394,118.528L-124.778,117.111L-124.435,115.833L-124.367,114.75L-124.298,113.889L-124.23,113.389L-123.682,112.083L-123.409,111.194L-123.34,110.278L-123.272,111.444L-122.793,111.194L-122.587,110.556L-122.519,110.472L-122.45,109.5L-122.382,108.722L-122.313,110.639L-122.245,113.833L-122.177,116.472L-122.108,117.083L-122.04,118.639L-121.971,119.417L-121.903,120.306L-121.834,120.667L-121.766,121.472L-121.697,122.389L-121.629,123.917L-121.561,124.472L-121.492,124.361L-121.424,123.778L-121.355,123.111L-121.287,122.694L-121.218,123.639L-121.15,124.361L-121.081,125.139L-121.013,125.111L-120.945,124.944L-120.876,125.083L-120.808,125L-120.739,125.306L-120.671,125.611L-120.602,126.056L-120.534,126.028L-120.465,125.472L-120.397,126.056L-120.329,125.972L-120.26,126.111L-120.192,126.722L-120.123,127.306L-120.058,127.639L-119.989,127.194L-119.921,127.25L-119.852,127.333L-119.784,127.889L-119.715,128.194L-119.647,128.833L-119.578,128.194L-119.51,128.333L-119.442,128.583L-119.373,128.556L-119.305,128.583L-119.236,129.611L-119.168,130.028L-119.099,129.806L-119.031,129.167L-118.962,129.25L-118.894,128.639L-118.826,129L-118.757,129.389L-118.689,129.833L-118.62,129.444L-118.552,128.806L-118.483,128.278L-118.415,128.167L-118.346,128.028L-118.278,128.222L-118.21,128.5L-118.141,128.056L-118.073,127.472L-118.004,127.167L-117.936,127.028L-117.867,127.361L-117.799,127.333L-117.73,127.472L-117.662,127.222L-117.594,126.333L-117.525,126.583L-117.457,126.194L-117.388,126.417L-117.32,127L-117.251,127.5L-117.183,126.972L-117.114,126.111L-117.046,126.111L-116.978,126.167L-116.909,126.111L-116.841,126.75L-116.772,127.444L-116.704,127.861L-116.635,127.167L-116.567,126.417L-116.498,124.556L-116.43,124.556L-116.362,124.611L-116.293,124.722L-116.225,124.139L-116.156,123.556L-116.088,123.639L-116.019,123.639L-115.951,123.944L-115.882,124.222L-115.814,124.5L-115.745,124.278L-115.677,123.917L-115.609,124L-115.54,124.222L-115.472,124.5L-115.403,124.556L-115.335,124.972L-115.266,124.472L-115.198,123.861L-115.129,124.083L-115.061,124.083L-114.993,124.361L-114.924,124.806L-114.856,125.361L-114.787,125.056L-114.719,123.833L-114.65,123.083L-114.582,123.139L-114.513,123.972L-114.445,126.306L-114.377,127.556L-114.308,128.25L-114.24,127.75L-114.171,128.222L-114.103,126.833L-114.034,126.694L-113.966,126.833L-113.897,127.083L-113.829,125.694L-113.761,124.861L-113.692,125.028L-113.624,124.611L-113.555,124.639L-113.487,124.694L-113.418,125L-113.35,125.083L-113.281,124.194L-113.213,124.056L-113.145,124.278L-113.076,124.5L-113.008,124.944L-112.939,125.194L-112.871,124.889L-112.802,124.139L-112.734,123.889L-112.665,124.333L-112.597,124.444L-112.529,124.806L-112.46,125.389L-112.392,124.639L-112.323,123.444L-112.255,122.972L-112.186,123.139L-112.118,123.278L-112.049,124.667L-111.981,125.278L-111.913,125.139L-111.844,124.639L-111.776,125.611L-111.707,126.361L-111.639,126.333L-111.57,126.972L-111.502,127.611L-111.433,127.583L-111.365,126.639L-111.296,126.667L-111.228,126.833L-111.16,126.917L-111.091,126.806L-111.023,126.889L-110.954,126.667L-110.886,126.167L-110.817,125.889L-110.749,126.333L-110.68,127.389L-110.612,128.111L-110.544,128.861L-110.475,129.389L-110.407,129.611L-110.338,130.278L-110.27,130.111L-110.201,127.75L-110.133,128.5L-110.064,129.083L-109.996,129.528L-109.928,128.972L-109.859,128.278L-109.791,127.75L-109.722,127.861L-109.654,127.722L-109.585,127.861L-109.517,128.028L-109.448,127.5L-109.38,127.361L-109.312,127.917L-109.243,127.833L-109.175,128.333L-109.106,128.639L-109.038,129.056L-108.969,128.75L-108.901,128.694L-108.832,128.611L-108.764,128.639L-108.696,128.5L-108.627,127.972L-108.559,127.917L-108.49,127.222L-108.353,126.361L-107.943,125.639L-107.874,125.194L-107.806,125.75L-107.737,128.389L-107.669,128.278L-107.6,128.194L-107.532,127.75L-107.463,127.611L-107.395,127.722L-107.327,128.361L-107.258,128.75L-107.19,129L-107.121,128.667L-107.053,128.139L-106.984,128.139L-106.916,128.5L-106.847,128.806L-106.779,129.222L-106.711,129.472L-106.642,128.944L-106.574,128.583L-106.505,128.694L-106.437,128.75L-106.368,129.333L-106.3,130.056L-106.231,130.583L-106.163,130.5L-106.095,129.917L-106.026,130.028L-105.958,130.139L-105.889,130.25L-105.821,130.778L-105.752,131.389L-105.684,131.028L-105.615,131L-105.547,129.917L-105.479,129.861L-105.41,130.167L-105.342,131.111L-105.273,131.333L-105.205,130.444L-105.136,129.333L-105.068,129.361L-104.999,128.972L-104.931,128.667L-104.863,128.667L-104.794,128.556L-104.726,127.083L-104.657,125.972L-104.589,126.611L-104.52,127.167L-104.452,127.167L-104.383,127.333L-104.315,127.222L-104.247,126.056L-104.178,124.722L-104.11,124.361L-104.041,124.25L-103.973,123.778L-103.904,123.917L-103.836,124.056L-103.765,123.667L-103.696,123.028L-103.628,122.833L-103.559,121.944L-103.491,122.444L-103.422,122.639L-103.354,123.194L-103.285,123L-103.217,122.639L-103.149,123.389L-103.08,124.083L-103.012,124.528L-102.943,125.278L-102.875,125.972L-102.806,125.972L-102.738,125.806L-102.669,126.917L-102.601,127.639L-102.533,127.417L-102.464,127.194L-102.396,127.778L-102.327,128.25L-102.259,127.778L-102.19,128.083L-102.122,127.917L-102.053,128.278L-101.985,128.861L-101.916,129.861L-101.848,130.389L-101.78,130.028L-101.711,129.556L-101.643,129.417L-101.574,129.472L-101.506,130.139L-101.437,130.694L-101.369,130.639L-101.3,129.972L-101.232,130.167L-101.164,129.472L-101.095,129.694L-101.027,129.917L-100.958,130.194L-100.89,130.417L-100.821,130.056L-100.753,129.694L-100.684,128.306L-100.616,128.528L-100.548,129.056L-100.479,129.667L-100.411,128.75L-100.342,127.944L-100.274,127.444L-100.205,127.444L-100.137,127.889L-100.068,129.111L-100,129.694L-99.932,129.389L-99.863,128.917L-99.795,128.139L-99.726,128.222L-99.658,128.944L-99.589,129.278L-99.521,130L-99.452,129.833L-99.384,129.472L-99.316,129.833L-99.247,130.25L-99.179,130.25L-99.11,131.333L-99.042,131.444L-98.973,131.611L-98.905,131.139L-98.836,130.139L-98.768,129.444L-98.7,130.278L-98.631,131.667L-98.563,132.111L-98.494,132.111L-98.426,131.667L-98.357,132.222L-98.289,132.111L-98.22,132.083L-98.152,132.278L-98.084,132.722L-98.015,132.389L-97.947,132L-97.878,132.167L-97.81,132.139L-97.741,132.417L-97.673,132.583L-97.604,133.056L-97.536,133L-97.467,132.75L-97.399,132.889L-97.331,133L-97.262,133.083L-97.194,132.889L-97.125,133.139L-97.057,133.083L-96.988,132.694L-96.92,132.5L-96.851,132.444L-96.783,133.028L-96.715,133.806L-96.646,133.833L-96.578,133.556L-96.509,133.028L-96.441,132.611L-96.372,132.194L-96.304,132.333L-96.235,132.806L-96.167,133.25L-96.099,133.417L-96.03,133.111L-95.962,133.528L-95.893,133.583L-95.825,133.444L-95.756,133.444L-95.688,133.778L-95.619,133.528L-95.551,133.111L-95.483,133.306L-95.414,133.306L-95.346,133.361L-95.277,133.361L-95.209,133.556L-95.143,133.611L-95.075,133.194L-95.006,132.889L-94.938,133L-94.869,132.889L-94.801,133.306L-94.732,133.722L-94.664,133.528L-94.596,132.944L-94.527,133.278L-94.459,133.5L-94.39,133.222L-94.322,133.806L-94.253,134.167L-94.185,134.278L-94.116,133.778L-94.048,133.861L-93.98,133.722L-93.911,133.778L-93.843,133.944L-93.774,134.5L-93.706,134.583L-93.637,134.083L-93.569,134.5L-93.5,134.361L-93.432,134.528L-93.364,134.583L-93.295,134.806L-93.227,134.861L-93.158,134.25L-93.09,134.194L-93.021,134.417L-92.953,134.556L-92.884,134.639L-92.816,134.806L-92.748,134.556L-92.679,133.639L-92.611,133.917L-92.542,134.5L-92.474,134.444L-92.405,134.444L-92.337,134.917L-92.268,134.444L-92.2,133.806L-92.132,133.611L-92.063,133.417L-91.995,133.278L-91.926,133.528L-91.858,133.861L-91.789,134.139L-91.721,133.472L-91.652,133.167L-91.584,132.222L-91.516,131.861L-91.447,131.917L-91.379,131.972L-91.31,131.583L-91.242,131.083L-91.173,130.861L-91.105,131L-91.036,130.75L-90.968,130.694L-90.899,131.056L-90.831,130.972L-90.763,130.639L-90.694,130.583L-90.626,131.167L-90.557,130.944L-90.489,130.556L-90.42,130.889L-90.352,130.583L-90.283,130.083L-90.215,130.333L-90.147,130.389L-90.078,130.389L-90.01,130.556L-89.941,130.833L-89.873,130.472L-89.804,129.583L-89.736,128.972L-89.667,129.111L-89.599,129.194L-89.531,129.944L-89.462,130.389L-89.394,130.083L-89.325,130.083L-89.257,130.75L-89.188,130.583L-89.12,130.472L-89.051,130.139L-88.983,130.75L-88.915,130.361L-88.846,130.111L-88.778,129.833L-88.709,129.944L-88.641,129.917L-88.572,130.083L-88.504,130.5L-88.435,130.139L-88.367,129.944L-88.299,129.556L-88.23,129.917L-88.162,129.833L-88.093,130.139L-88.025,130.556L-87.956,130.611L-87.888,130.139L-87.819,130.222L-87.751,130.278L-87.683,130.278L-87.614,130.25L-87.546,130.806L-87.477,131.083L-87.409,130.667L-87.34,130.806L-87.272,129.972L-87.203,129.361L-87.135,129.667L-87.067,130.139L-86.998,130.417L-86.93,130.028L-86.861,130.139L-86.793,129.944L-86.724,130.167L-86.656,130.139L-86.587,130.583L-86.519,130.667L-86.45,130.333L-86.382,130.528L-86.314,130.25L-86.245,130.889L-86.177,130.861L-86.108,131.361L-86.04,131.222L-85.971,130.5L-85.903,130.694L-85.834,130.694L-85.766,130.778L-85.698,131.222L-85.629,131.75L-85.561,131.778L-85.492,131.389L-85.424,131.389L-85.355,131.361L-85.287,131.667L-85.218,132.417L-85.15,132.889L-85.082,133.444L-85.013,133.056L-84.945,132.75L-84.876,131.444L-84.808,131.417L-84.739,131.667L-84.671,132.111L-84.602,131.861L-84.534,131.222L-84.466,130.972L-84.397,131.056L-84.329,131.361L-84.26,131.889L-84.192,132.056L-84.123,132.25L-84.055,131.833L-83.986,131.722L-83.918,132.056L-83.85,132.056L-83.781,132.278L-83.713,132.778L-83.644,132.361L-83.576,132.028L-83.507,131.917L-83.439,131.778L-83.37,131.917L-83.302,131.806L-83.234,132.083L-83.165,132.056L-83.097,131.417L-83.028,130.75L-82.96,130.556L-82.891,131.194L-82.823,132.556L-82.754,133.194L-82.686,133.167L-82.617,131.778L-82.549,131.5L-82.481,131.861L-82.412,131.972L-82.344,132.389L-82.275,132.222L-82.207,131.861L-82.138,131.583L-82.07,131.333L-82.001,131.5L-81.933,131.861L-81.865,132.083L-81.796,132.056L-81.728,132L-81.659,131.722L-81.591,132.083L-81.522,131.972L-81.454,132.333L-81.385,133.028L-81.317,133.556L-81.249,134.444L-81.18,134.528L-81.112,134.833L-81.043,135.5L-80.975,136.167L-80.906,136.917L-80.838,137.306L-80.769,137.833L-80.633,138L-80.564,138.528L-80.496,140.083L-80.427,141.278L-80.359,141.75L-80.29,142.222L-80.222,142.361L-80.153,143L-80.085,143.611L-80.017,144.194L-79.948,144.667L-79.88,145.083L-79.811,145.333L-79.743,145.639L-79.674,145.583L-79.606,144.917L-79.537,145.056L-79.469,144.639L-79.401,144.972L-79.332,144.444L-79.264,143.556L-79.195,142.889L-79.127,142.139L-79.058,141.778L-78.99,141.278L-78.921,141.167L-78.85,140.639L-78.782,140.056L-78.645,139.167L-78.508,138.222L-78.303,137.722L-77.96,137.333L-77.892,137.194L-77.823,136.778L-77.755,135.972L-77.618,135.528L-77.002,134.75L-76.249,134.306L-75.428,134.139L-75.359,133.361L-75.222,132.472L-74.949,132L-74.88,131.361L-74.812,130.806L-74.743,130.972L-74.675,132L-74.606,131.556L-74.538,131.333L-74.47,130.833L-74.401,131.139L-74.333,132.056L-74.264,132.639L-74.196,132.083L-74.127,130.667L-74.059,130.889L-73.99,130L-73.922,130.361L-73.854,130.972L-73.785,131.167L-73.717,131.833L-73.648,132.194L-73.58,131.778L-73.443,130.944L-73.374,131.028L-73.306,130.5L-73.238,129.972L-73.169,129.833L-73.101,129.833L-73.032,129.444L-72.964,130.028L-72.895,130.75L-72.827,130.389L-72.758,130.75L-72.69,130.583L-72.621,130.556L-72.553,130.167L-72.485,130.222L-72.416,131.056L-72.348,131.333L-72.074,131.139L-72.005,130.667L-71.937,130L-71.869,130.778L-71.8,132.056L-71.732,132.222L-71.663,132.861L-71.595,132.694L-71.526,132.444L-71.458,131.361L-71.389,131.167L-71.321,130.889L-71.253,131.444L-71.184,130.861L-71.116,129.944L-71.047,130.389L-70.979,130.083L-70.91,130.389L-70.842,130.278L-70.773,130.639L-70.705,130.083L-70.637,129.278L-70.568,129.389L-70.5,129.139L-70.431,129.25L-70.363,129.111L-70.294,129.611L-70.229,129.639L-70.16,129.111L-70.092,128.833L-70.023,129.139L-69.955,129.056L-69.886,129.167L-69.818,129.472L-69.75,129L-69.681,128.778L-69.613,128.806L-69.544,128.194L-69.476,127.861L-69.407,129.139L-69.339,129.444L-69.27,129.167L-69.202,129L-69.134,129.722L-69.065,130.556L-68.997,130.667L-68.928,131.111L-68.86,131.444L-68.791,131.194L-68.723,130.528L-68.654,130.583L-68.586,130.75L-68.518,130.75L-68.449,131.111L-68.381,131.528L-68.312,131.333L-68.244,130.694L-68.175,130.361L-68.107,130.389L-68.038,130.667L-67.97,130.444L-67.902,130.75L-67.833,130.556L-67.765,130.278L-67.696,130.694L-67.628,130.333L-67.559,130.222L-67.491,130.667L-67.422,131.194L-67.354,130.861L-67.286,130.361L-67.217,130.361L-67.149,130.083L-67.08,130.194L-67.012,129.861L-66.943,130.611L-66.875,131.389L-66.806,131.056L-66.738,131.75L-66.67,132.583L-66.601,132.639L-66.533,132.667L-66.464,133.083L-66.396,132.528L-66.327,131.833L-66.259,131.972L-66.19,132.083L-66.122,132.25L-66.054,132.472L-65.985,132.694L-65.917,132.444L-65.848,131.778L-65.78,131.833L-65.711,131.75L-65.643,131.611L-65.574,131.833L-65.506,132.194L-65.437,132.028L-65.369,131.306L-65.301,131.472L-65.232,131.722L-65.164,131.917L-65.095,131.889L-65.027,132.278L-64.958,132.222L-64.89,131.361L-64.821,130.861L-64.753,130.944L-64.685,130.5L-64.616,129.917L-64.548,130.25L-64.479,130.083L-64.411,129.306L-64.342,129.778L-64.274,130.694L-64.205,130.917L-64.137,131.222L-64.069,131.833L-64,131.639L-63.932,130.861L-63.863,130.833L-63.795,130.639L-63.726,131.028L-63.658,130.806L-63.589,131.278L-63.521,130.944L-63.453,130.417L-63.384,130.278L-63.316,130.417L-63.247,130.583L-63.179,130.528L-63.11,130.889L-63.042,130.944L-62.973,130.417L-62.905,130.583L-62.837,130.861L-62.768,130.917L-62.7,131.083L-62.631,131.417L-62.563,131.556L-62.494,131.111L-62.426,131.639L-62.357,132.139L-62.289,131.944L-62.221,131.333L-62.152,131.5L-62.084,130.889L-62.015,130.389L-61.947,130.444L-61.878,131L-61.81,131.444L-61.741,131.972L-61.673,132.139L-61.604,132.194L-61.536,131.75L-61.468,132.139L-61.399,132.333L-61.331,132.806L-61.262,132.833L-61.194,133L-61.125,132.806L-61.057,132.556L-60.988,132.722L-60.92,133.028L-60.852,133.333L-60.783,133.639L-60.715,133.917L-60.646,133.806L-60.578,133.083L-60.509,132.944L-60.441,133.222L-60.372,133.278L-60.304,133.25L-60.236,133.639L-60.167,134.194L-60.099,134.028L-60.03,134.389L-59.962,134.75L-59.893,134.667L-59.825,134.694L-59.756,135.111L-59.688,134.917L-59.62,134.444L-59.551,134.639L-59.483,134.917L-59.414,135.028L-59.346,135.222L-59.277,135.333L-59.209,135.417L-59.14,135.083L-59.072,135.278L-59.004,134.944L-58.935,134.972L-58.867,135.028L-58.798,135.278L-58.73,135.056L-58.661,134.639L-58.593,134.611L-58.524,135.083L-58.456,135.194L-58.388,135.111L-58.319,135.222L-58.251,135.333L-58.182,134.861L-58.114,134.444L-58.045,134.306L-57.977,134.417L-57.908,134.389L-57.84,134.917L-57.772,135.056L-57.703,134.75L-57.635,135.056L-57.566,135.111L-57.498,135.361L-57.429,135.639L-57.361,136L-57.292,136.25L-57.224,135.694L-57.155,135.639L-57.087,135.25L-57.019,135.333L-56.95,135.556L-56.882,135.889L-56.813,135.778L-56.745,135.333L-56.676,135.472L-56.608,135.639L-56.539,135.833L-56.471,135.917L-56.403,136.194L-56.334,136.194L-56.266,135.806L-56.197,135.861L-56.129,135.972L-56.06,136.056L-55.992,136.111L-55.923,136.472L-55.855,136.5L-55.787,136.722L-55.718,136.417L-55.65,136.139L-55.581,136.472L-55.513,136.528L-55.444,136.778L-55.376,136.972L-55.307,136.167L-55.239,135.722L-55.171,136.333L-55.102,135.972L-55.034,136.167L-54.965,136.194L-54.897,135.722L-54.828,135.361L-54.76,135.222L-54.691,135L-54.623,134.806L-54.555,134.833L-54.486,135.056L-54.418,134.333L-54.349,133.778L-54.281,134L-54.212,134.611L-54.144,134.361L-54.075,134.667L-54.007,134.528L-53.936,133.5L-53.867,132.694L-53.799,131.889L-53.73,130.944L-53.662,131.139L-53.593,131.028L-53.525,130.972L-53.457,130.944L-53.388,131.028L-53.32,130L-53.251,130.333L-53.183,130.806L-53.114,130.972L-53.046,131.528L-52.977,131.917L-52.909,131.389L-52.841,131.111L-52.772,131L-52.704,131.083L-52.635,131.528L-52.567,131.306L-52.498,131.667L-52.43,131.722L-52.361,132.222L-52.293,132.167L-52.225,131.917L-52.156,131.417L-52.088,131.194L-52.019,131.167L-51.951,131.556L-51.882,131.5L-51.814,128.222L-51.745,122.5L-51.677,116.861L-51.608,112.194L-51.54,107.667L-51.472,107.389L-51.335,107.028L-51.266,105.833L-51.198,106.028L-51.129,105.444L-51.061,104.694L-50.992,103.917L-50.924,104.194L-50.856,104.639L-50.787,105.583L-50.719,106.833L-50.65,107.139L-50.582,107.806L-50.513,106.361L-50.445,105.917L-50.376,104.556L-50.308,103.111L-50.24,103.333L-50.171,103.056L-50.103,103.639L-50.034,104.167L-49.966,105.083L-49.897,105.333L-49.555,105.472L-49.487,106.472L-49.418,109.639L-49.35,115.611L-49.281,121.333L-49.213,125.583L-49.144,130.222L-49.076,130.639L-49.008,130.833L-48.939,131.083L-48.871,131.278L-48.802,131.639L-48.734,132.028L-48.665,131.917L-48.597,131.861L-48.528,131.167L-48.46,130.528L-48.392,129.806L-48.186,128.833L-48.118,128.389L-48.049,129.667L-47.981,130.778L-47.912,131.111L-47.844,131.639L-47.775,131.194L-47.707,131.25L-47.433,130.611L-47.159,129.972L-47.023,129.75L-46.27,128.833L-46.201,128.222L-46.133,128.028L-46.064,128.444L-45.996,128.917L-45.927,129.333L-45.859,130.056L-45.791,130.028L-45.722,129.556L-45.654,129.528L-45.585,129.639L-45.517,129.528L-45.448,129.75L-45.38,130.083L-45.314,130.306L-45.246,129.667L-45.177,129.472L-45.109,129.167L-45.04,129.056L-44.972,128.167L-44.904,128.389L-44.835,127.667L-44.767,126.833L-44.698,127.083L-44.63,127.25L-44.561,127.528L-44.493,128L-44.424,128.361L-44.356,128.389L-44.288,128.056L-44.219,128.333L-44.151,128.278L-44.082,128.5L-44.014,128.667L-43.945,128.694L-43.877,128.444L-43.808,127.944L-43.74,127.694L-43.672,127.194L-43.603,127.611L-43.535,127.944L-43.466,128.528L-43.398,128.25L-43.329,127.556L-43.261,127.917L-43.192,128.194L-43.124,128.806L-43.056,129.444L-42.987,130.167L-42.919,131.694L-42.85,131.111L-42.782,131.722L-42.713,131.778L-42.645,131.833L-42.576,131.944L-42.508,132.111L-42.44,131.972L-42.371,131.444L-42.303,131.306L-42.234,130.833L-42.166,130.75L-42.097,130.889L-42.029,131.25L-41.96,131.667L-41.892,131.194L-41.824,131.056L-41.755,130.444L-41.687,130.778L-41.618,130.778L-41.55,130.861L-41.481,130.25L-41.413,129.639L-41.344,129.639L-41.276,129.583L-41.208,128.972L-41.139,129.056L-41.071,129.111L-41.002,128.278L-40.934,127.583L-40.865,127.528L-40.797,127L-40.728,126.944L-40.66,127.278L-40.591,127.833L-40.523,127.861L-40.455,127.167L-40.386,127L-40.318,126.75L-40.249,126.639L-40.181,127.139L-40.112,127.528L-40.044,127.417L-39.975,126.861L-39.907,126.056L-39.839,125.889L-39.77,125.389L-39.702,125.75L-39.633,125.667L-39.565,125.917L-39.496,125.25L-39.428,125.111L-39.359,125.611L-39.291,126.361L-39.223,126.472L-39.154,127.083L-39.086,126.528L-39.017,125L-38.949,125.111L-38.88,125.111L-38.812,124.861L-38.743,125.528L-38.675,126L-38.607,125.806L-38.538,124.667L-38.47,124.472L-38.401,124.667L-38.333,124.917L-38.264,125.306L-38.196,125.861L-38.127,125.75L-38.059,125.444L-37.991,125.278L-37.922,124.861L-37.854,124.944L-37.785,125.306L-37.717,126.333L-37.648,126.389L-37.58,126.25L-37.511,126.25L-37.443,126.306L-37.375,126.722L-37.306,126.389L-37.238,126.056L-37.169,126L-37.101,125.5L-37.032,125.611L-36.964,126.611L-36.895,126.944L-36.827,126.75L-36.758,127.417L-36.69,127.417L-36.622,126.833L-36.553,126.639L-36.485,127.361L-36.416,127.667L-36.348,128.028L-36.279,128.528L-36.211,128.444L-36.142,128.028L-36.074,127.778L-36.006,127.861L-35.937,127.694L-35.869,128.222L-35.8,128.806L-35.732,128.833L-35.663,128.556L-35.595,128.361L-35.526,128.472L-35.458,128.639L-35.39,129.111L-35.321,129.833L-35.253,130.389L-35.184,129.917L-35.116,129.5L-35.047,128.556L-34.979,128.667L-34.91,128.833L-34.842,129.278L-34.774,129.556L-34.705,129.083L-34.637,129.056L-34.568,128.639L-34.5,128.833L-34.431,128.889L-34.363,129.167L-34.294,128.889L-34.226,128.222L-34.158,128.306L-34.089,128.306L-34.021,128.667L-33.952,128.583L-33.884,129.444L-33.815,129.25L-33.747,128.75L-33.678,128.694L-33.61,128.639L-33.542,129L-33.473,129.056L-33.405,129.111L-33.336,128.75L-33.268,128.167L-33.199,127.361L-33.131,127.167L-33.062,127.917L-32.994,128.944L-32.926,129.472L-32.857,129.222L-32.789,128.694L-32.72,128.611L-32.652,128.722L-32.583,128.639L-32.515,129.389L-32.446,129.861L-32.378,130.389L-32.309,129.972L-32.241,129.472L-32.173,128.444L-32.104,127.944L-32.036,128.028L-31.967,128.306L-31.899,127.861L-31.83,127.083L-31.762,127.194L-31.693,127.028L-31.625,127.111L-31.557,127.167L-31.488,127.639L-31.42,127.639L-31.351,127.639L-31.283,127.611L-31.214,127.528L-31.146,127.944L-31.077,128.111L-31.009,128.333L-30.941,128.389L-30.872,128.694L-30.804,128.583L-30.735,127.111L-30.667,126.944L-30.598,126.861L-30.53,127.194L-30.461,127.139L-30.393,127.389L-30.325,126.083L-30.256,125.139L-30.188,125.25L-30.119,125.722L-30.051,126.5L-29.982,126.306L-29.914,125.528L-29.845,125.556L-29.777,125.389L-29.709,125.194L-29.64,125.25L-29.572,125.583L-29.503,124.417L-29.435,123.306L-29.366,123.222L-29.298,123.667L-29.229,123.694L-29.161,123.222L-29.093,123.306L-29.021,122.75L-28.953,121.639L-28.884,121.056L-28.816,120.361L-28.747,120.778L-28.679,122.278L-28.611,122.833L-28.542,122.833L-28.474,122.361L-28.405,121.833L-28.337,120.75L-28.268,121.611L-28.2,122.389L-28.131,123.306L-28.063,123.944L-27.995,123.694L-27.926,123.806L-27.858,124.222L-27.789,124.528L-27.721,125.139L-27.652,125.833L-27.584,125.944L-27.515,125.333L-27.447,127.028L-27.379,128.25L-27.31,128.25L-27.242,127.611L-27.173,128.333L-27.105,128.889L-27.036,128.556L-26.968,129.722L-26.899,130.306L-26.831,130.861L-26.762,131.361L-26.694,131.194L-26.626,130.972L-26.557,130.639L-26.489,130.583L-26.42,130.5L-26.352,130.583L-26.283,131.417L-26.215,131.139L-26.146,131.333L-26.078,130.833L-26.01,130.778L-25.941,130.917L-25.873,130.694L-25.804,131.111L-25.736,131.139L-25.667,128.806L-25.599,126.861L-25.53,127.056L-25.462,127.944L-25.394,128.028L-25.325,128.083L-25.257,126.944L-25.188,125.528L-25.12,123.222L-25.051,121.917L-24.983,120.833L-24.846,120.583L-24.778,121.333L-24.709,122.056L-24.641,120.5L-24.572,119.083L-24.504,118.556L-24.435,118.111L-24.367,117.611L-24.298,117.861L-24.23,118.389L-24.162,117.306L-24.093,117.889L-24.025,118.528L-23.956,115.139L-23.888,113.528L-23.819,112.222L-23.751,111.139L-23.614,110.444L-23.546,110.111L-23.477,112.194L-23.409,113.111L-22.793,112.583L-22.724,111.639L-22.245,110.722L-22.177,109.167L-22.108,110L-22.04,111.639L-21.971,112.861L-21.903,113.528L-21.834,114.194L-21.766,113.833L-21.355,112.556L-21.287,111.944L-21.218,113.444L-21.15,114.639L-21.081,114.833L-21.013,114.667L-20.945,114.222L-20.876,113.889L-20.808,113.417L-20.739,114.361L-20.4,113.694L-20.331,112.694L-20.263,116.083L-20.195,117.667L-20.126,118.722L-20.058,120.194L-19.989,120.722L-19.921,121.083L-19.852,121.028L-19.784,121.5L-19.715,121.667L-19.647,122.083L-19.578,122.167L-19.51,123.5L-19.442,123.611L-19.373,122.972L-19.305,123.25L-19.236,123.778L-19.168,124.278L-19.099,124.556L-19.031,125.639L-18.962,125.722L-18.894,125.222L-18.826,125.583L-18.757,126.028L-18.689,126.583L-18.62,127.417L-18.552,128.083L-18.483,127.944L-18.415,127.25L-18.346,127.25L-18.278,127.278L-18.21,127.361L-18.141,127.722L-18.073,128.306L-18.004,128.222L-17.936,127.722L-17.867,127.639L-17.799,127.5L-17.73,127.694L-17.662,127.611L-17.594,127.722L-17.525,127.75L-17.457,127.028L-17.388,127.167L-17.32,127.25L-17.251,127.444L-17.183,127.639L-17.114,128.111L-17.046,128.639L-16.978,127.833L-16.909,126.917L-16.841,125.778L-16.772,125.833L-16.704,126.139L-16.635,126.861L-16.567,126.611L-16.498,126.167L-16.43,126.361L-16.362,126.639L-16.293,126.583L-16.225,126.806L-16.156,127.194L-16.088,126.722L-16.019,125.75L-15.951,125.472L-15.882,125.389L-15.814,125.056L-15.745,124.917L-15.677,124.861L-15.609,124.389L-15.54,123.861L-15.472,123.972L-15.403,123.639L-15.335,123.722L-15.266,124.139L-15.198,124.472L-15.129,124L-15.061,123.111L-14.993,122.139L-14.924,122.222L-14.856,122.889L-14.787,124.056L-14.719,124.278L-14.65,124L-14.582,123.333L-14.513,123.25L-14.445,123.194L-14.377,123.639L-14.308,124.444L-14.24,125.389L-14.171,124.861L-14.103,123.583L-14.034,122.306L-13.966,122.111L-13.897,122.167L-13.829,122.222L-13.761,122.972L-13.692,123.111L-13.624,122.667L-13.555,122.861L-13.487,122.833L-13.418,122.944L-13.35,123.361L-13.281,123.806L-13.213,123.583L-13.145,122.917L-13.076,122.75L-13.008,122.444L-12.939,122.639L-12.871,122.667L-12.802,122.972L-12.734,122.722L-12.665,122.167L-12.597,122.111L-12.529,122.056L-12.46,122.583L-12.392,122.806L-12.323,123.028L-12.255,122.056L-12.186,120.917L-12.118,121.333L-12.049,121.861L-11.981,123.139L-11.913,123.778L-11.844,124.389L-11.776,124.139L-11.707,123.194L-11.639,123.139L-11.57,122.944L-11.502,123.222L-11.433,123.361L-11.365,123.472L-11.296,123.306L-11.228,122.444L-11.16,122.389L-11.091,122.278L-11.023,122.5L-10.954,122.917L-10.886,123.389L-10.817,123.583L-10.749,123.028L-10.68,123.278L-10.612,123.194L-10.544,123.417L-10.475,123.528L-10.407,123.944L-10.338,123.75L-10.27,122.639L-10.201,122.722L-10.133,122.722L-10.064,122.917L-9.996,123.167L-9.928,123.917L-9.859,124.556L-9.791,123.833L-9.722,123.806L-9.654,123.083L-9.585,123.139L-9.517,123.306L-9.448,123.917L-9.38,124.056L-9.312,123.667L-9.243,123.694L-9.175,124.028L-9.106,124.306L-9.038,124.472L-8.969,125.25L-8.901,125.472L-8.832,125.139L-8.764,125.333L-8.696,125.528L-8.627,125.667L-8.559,125.639L-8.49,126L-8.422,125.667L-8.353,125.417L-8.285,125.361L-8.216,125.833L-8.148,126.389L-8.08,126.972L-8.011,127.444L-7.943,127.278L-7.874,126.639L-7.806,125.944L-7.737,125.667L-7.669,126.056L-7.6,127.194L-7.532,127.917L-7.463,127.944L-7.395,126.639L-7.327,125.722L-7.258,125.861L-7.19,126.278L-7.121,126.889L-7.053,126.889L-6.984,127.056L-6.916,126.194L-6.847,125.694L-6.779,125.389L-6.711,124.972L-6.642,125.472L-6.574,125.167L-6.505,125.306L-6.437,124.972L-6.368,124.806L-6.3,124.889L-6.231,125.083L-6.163,125.694L-6.095,125.278L-6.026,125.778L-5.958,124.806L-5.889,124.056L-5.821,123.5L-5.752,123.389L-5.684,123.722L-5.615,123.389L-5.547,122.917L-5.41,122.889L-5.342,122.75L-5.273,122.639L-5.205,123.111L-5.136,123.472L-5.068,122.722L-4.999,121.75L-4.931,120.917L-4.863,119.139L-4.794,118.444L-4.726,116.944L-4.657,117.389L-4.589,117L-4.52,115.25L-4.452,115.528L-4.383,116.278L-4.315,116.111L-4.247,116.333L-4.178,116.333L-4.107,115.583L-4.038,114.306L-3.97,113.917L-3.901,112.889L-3.833,112.944L-3.765,113.917L-3.696,114.806L-3.628,114.556L-3.559,114.861L-3.491,115.083L-3.422,115.472L-3.354,115L-3.285,115.25L-3.217,116.722L-3.149,117.028L-3.08,116.306L-3.012,116.889L-2.943,117.083L-2.875,117.972L-2.806,119.694L-2.738,120.917L-2.669,123L-2.601,122.75L-2.533,122.944L-2.464,124.722L-2.396,125.194L-2.327,124.778L-2.259,125.417L-2.19,125.028L-2.122,122.667L-2.053,123.278L-1.985,124.472L-1.916,125.611L-1.848,126.111L-1.78,127.139L-1.711,126.694L-1.643,125.444L-1.574,125.694L-1.506,125.278L-1.437,124.944L-1.369,125.333L-1.3,125.75L-1.232,125.583L-1.164,124.694L-1.095,124.667L-1.027,124.528L-0.958,124.528L-0.89,124.361L-0.821,124.833L-0.753,125.667L-0.684,125.111L-0.616,124.389L-0.548,123.639L-0.479,124.75L-0.411,125.056L-0.342,125.194L-0.274,125.694L-0.205,124.833L-0.137,123.778L-0.068,125.667L0,126.306L0.068,126.556L0.137,126.611L0.205,127.167L0.274,126.806L0.342,127.833L0.411,129.556L0.479,129.722L0.548,129.722L0.616,128.944L0.684,128.278L0.753,127.639L0.821,128.333L0.89,128.278L0.958,127.972L1.027,128.361L1.095,127.944L1.164,128.25L1.232,127.722L1.3,127.472L1.369,127.889L1.437,128.083L1.506,128.722L1.985,128.111L2.122,127.472L2.19,126.444L2.259,126.278L2.327,126.75L2.396,128.306L2.464,128.333L2.533,127.528L2.601,126.806L2.875,126L3.012,125.75L3.08,124.861L3.149,124.167L3.217,123.333L3.285,122.833L3.354,122.917L3.422,124.278L3.491,125.25L3.559,124.806L3.628,124.444L3.696,124.972L3.765,125.417L3.833,125.417L3.901,126.083L3.97,126.694L4.038,126.083L4.107,125.278L4.175,125.167L4.244,125.25L4.312,125.306L4.381,125.278L4.449,125.778L4.517,125.5L4.586,125.028L4.654,124.667L4.723,124.389L4.791,124.806L4.86,124.75L4.928,125L4.994,124.833L5.062,124.083L5.131,124.806L5.199,124.333L5.268,124.472L5.336,124.861L5.404,125.361L5.473,124.75L5.541,124.167L5.61,124.667L5.678,124.167L5.747,124.056L5.815,124.028L5.884,124.556L5.952,124.028L6.02,123L6.089,123.556L6.157,123.833L6.226,123.833L6.294,124.278L6.363,124.917L6.431,124.639L6.5,123.694L6.568,124.333L6.636,124.194L6.705,124.5L6.773,125.083L6.842,125.083L6.91,125.5L6.979,125.361L7.047,125.639L7.116,125.639L7.184,125.389L7.252,126.167L7.321,126.722L7.389,126.694L7.458,126.333L7.526,126.639L7.595,126.444L7.663,126.5L7.732,127.056L7.8,127.361L7.868,127.25L7.937,126.389L8.005,126.472L8.074,126.861L8.142,126.833L8.211,126.861L8.279,127.528L8.348,128.056L8.416,127.028L8.484,125.972L8.553,124.778L8.621,124.25L8.69,124.167L8.758,124.5L8.827,123.778L8.895,123.083L8.964,122.611L9.032,122.528L9.101,122.167L9.169,122.611L9.237,123L9.306,122.333L9.374,121.528L9.443,121.639L9.511,121.222L9.58,121.417L9.648,121.556L9.717,121.944L9.785,121.583L9.853,120.75L9.922,120.5L9.99,120.556L10.059,120.528L10.127,120.556L10.196,120.833L10.264,120.639L10.333,119.75L10.401,118.694L10.469,118.417L10.538,119.417L10.606,121.028L10.675,122.194L10.743,122.944L10.812,122.194L10.88,121.917L10.949,120.528L11.017,120.5L11.085,120.139L11.154,120.75L11.222,119.889L11.291,119.639L11.359,119.861L11.428,119.694L11.496,119.472L11.565,119.528L11.633,119.833L11.701,119.472L11.77,118.806L11.838,119.083L11.907,119.222L11.975,119.25L12.044,119.306L12.112,119.889L12.181,119.639L12.249,118.806L12.317,118.75L12.386,118.472L12.454,118.667L12.523,119.111L12.591,119.75L12.66,119.5L12.728,118.361L12.797,117.333L12.865,117.75L12.933,118.556L13.002,120.361L13.07,121.111L13.139,121.361L13.207,120.694L13.276,121.222L13.344,120.778L13.413,121L13.481,121.139L13.55,121.75L13.618,121.611L13.686,121.222L13.755,121.778L13.823,121.333L13.892,121.222L13.96,121.556L14.029,122.25L14.097,122.306L14.166,121.722L14.234,122.278L14.302,122.611L14.371,122.917L14.439,123.583L14.508,124.056L14.576,124.639L14.645,124.5L14.713,124.528L14.782,124.778L14.85,125.167L14.918,125.194L14.987,125.889L15.055,126.611L15.124,126.056L15.192,124.972L15.261,123.778L15.329,123.528L15.398,124L15.466,124.361L15.534,124.778L15.603,124.333L15.671,124.694L15.74,124.611L15.808,124.583L15.877,125.306L15.945,126L16.014,126.083L16.082,125.639L16.15,125.889L16.219,126.139L16.287,126.028L16.356,126.278L16.424,126.611L16.493,126.417L16.561,126.25L16.63,125.972L16.698,125.611L16.766,125.556L16.835,126.083L16.903,126.694L16.972,126.583L17.04,126.028L17.109,125.111L17.177,125.056L17.246,126.389L17.314,127.972L17.383,128.972L17.451,128.833L17.519,128.722L17.588,128.25L17.656,128.083L17.725,128.389L17.793,127.972L17.862,128.5L17.93,128.889L17.999,128.528L18.067,128.944L18.135,129.056L18.204,128.944L18.272,128.556L18.341,128.667L18.409,128.389L18.478,127.694L18.546,127.472L18.615,127.056L18.683,126.722L18.751,126.194L18.82,126.806L18.888,124.944L18.957,123.472L19.025,122.222L19.094,121.083L19.162,120.611L19.231,120.611L19.299,120.583L19.367,120.361L19.436,120.333L19.504,119.389L19.573,118.694L19.641,118.75L19.71,118.528L19.778,118.444L19.847,118.667L19.915,116.583L19.983,115.611L20.052,115.25L20.12,114.389L20.189,114.111L20.257,114.722L20.326,114.083L20.394,113.111L20.463,113.583L20.531,114.528L20.599,114.333L20.668,115.361L20.736,116.167L20.805,115.861L20.873,114.5L20.942,115.528L21.01,115.222L21.079,115.806L21.147,116.222L21.215,117.167L21.287,116.472L21.355,116.111L21.424,115.222L21.492,114.778L21.561,115.583L21.629,116.083L21.697,116.472L21.766,116.583L21.834,116.222L21.903,116.222L21.971,117.472L22.04,118.278L22.108,117.722L22.177,118.278L22.245,118.083L22.313,117.472L22.382,117.833L22.45,118.056L22.519,117.972L22.587,117.694L22.656,118.778L22.724,118.694L22.793,118.083L22.861,118.639L22.93,118.611L22.998,119.25L23.066,120.722L23.135,122.028L23.203,123.306L23.272,122.5L23.34,123L23.409,122.806L23.477,124.25L23.546,124.722L23.614,125.694L23.682,125.306L23.751,124.583L23.819,124.194L23.888,124.333L23.956,124.667L24.025,125L24.093,125.389L24.162,126.75L24.23,126L24.298,125.778L24.367,125L24.435,125.417L24.504,125.861L24.572,125.944L24.641,125.5L24.709,124.111L24.778,123.278L24.846,123.222L24.914,123.75L24.983,124.917L25.051,125.167L25.12,124.806L25.188,124.722L25.257,123.694L25.325,123.778L25.394,124.472L25.462,124.972L25.53,124.861L25.599,123.944L25.667,122.694L25.736,123L25.804,124.25L25.873,125.694L25.941,126.639L26.01,126.028L26.078,124.833L26.146,123.417L26.215,122.361L26.283,123.556L26.352,124.889L26.42,125.139L26.489,124.806L26.557,124.278L26.626,123.972L26.694,123.806L26.762,124.75L26.831,124.528L26.899,124.417L26.968,124.111L27.036,123.778L27.105,123.222L27.173,122.833L27.242,122.194L27.31,122.75L27.379,123.306L27.447,123.333L27.515,123.833L27.584,124.306L27.652,125.389L27.721,126.611L27.789,125.667L27.995,125.722L28.063,125.639L28.2,125.25L28.268,126.278L28.337,127L28.405,127.778L28.474,128.083L28.542,127.111L28.611,126.167L28.679,126.167L28.747,127.111L28.816,127.444L28.884,126.861L28.953,126.694L29.021,125.861L29.09,126.111L29.158,126.389L29.227,126.694L29.295,126.222L29.363,126.25L29.432,126.75L29.5,126.556L29.569,126.194L29.637,126.306L29.706,126.444L29.908,126L30.319,125.389L30.387,124.556L30.456,123.278L30.593,124.111L30.661,123.306L30.798,122.972L30.866,122.528L30.935,121.889L31.003,122.333L31.072,122.167L31.14,122.194L31.209,122.778L31.277,123.278L31.346,123.583L31.414,122.806L31.482,123.056L31.551,123.639L31.619,124.167L31.688,124.75L31.756,125.222L31.825,125.333L31.893,125.111L31.962,125.722L32.03,125.694L32.098,125.639L32.167,125.75L32.235,126.139L32.304,125.639L32.372,125.167L32.441,124.833L32.509,124.361L32.578,124.556L32.646,124.861L32.714,125.444L32.783,125.361L32.851,124.75L32.92,124.778L32.988,124.861L33.057,124.389L33.125,124.778L33.194,125.583L33.262,125.194L33.33,124.194L33.399,124L33.467,124L33.536,123.778L33.604,124.194L33.673,123.778L33.741,123.806L33.81,122.889L33.878,122.583L33.946,122.75L34.015,122.5L34.083,122.861L34.152,122.25L34.22,122.111L34.289,121.444L34.357,121.75L34.426,121.861L34.494,121.75L34.563,122.361L34.631,121.972L34.699,121.833L34.768,120.75L34.836,120.389L34.905,120.528L34.973,120.361L35.042,120.722L35.11,120.944L35.247,120.444L35.315,119.083L35.384,118.889L35.452,119.5L35.521,119.722L35.589,120.5L35.658,120.972L35.726,121.25L35.795,121L35.863,120.222L35.931,119.056L36,118.444L36.068,118.444L36.137,117.528L36.205,116.25L36.274,116.222L36.342,115.361L36.411,114.972L36.479,114.472L36.547,114.556L36.616,114.194L36.684,112.611L36.753,112.083L36.821,111.667L36.89,111.861L36.958,112L37.027,112.417L37.095,111.583L37.163,110.472L37.232,110.417L37.3,110.222L37.369,110.833L37.437,110.722L37.506,111.194L37.574,110.583L37.643,109.694L37.711,109.167L37.779,108.083L37.848,108.306L37.916,108.611L37.985,110.694L38.053,110.972L38.122,110.472L38.19,111.222L38.259,111.611L38.327,111.944L38.396,112.75L38.464,113.917L38.532,114.389L38.601,113.778L38.669,113.722L38.738,114.861L38.806,114.889L38.875,115.611L38.943,116.5L39.012,116.694L39.08,116.278L39.148,116.75L39.217,117.306L39.285,117.667L39.354,118.028L39.422,118.361L39.491,118.722L39.559,118.167L39.628,119.028L39.696,119.528L39.764,119.611L39.833,120.472L39.901,121.583L39.97,122.833L40.038,122.472L40.107,122.333L40.175,121.639L40.244,121.722L40.312,122.083L40.38,122.639L40.449,122.194L40.517,121.694L40.586,121.528L40.654,120.528L40.723,120.722L40.791,120.528L40.86,121.639L40.928,121.389L40.996,120.639L41.065,120.639L41.133,120.444L41.202,121L41.27,121.222L41.339,121.5L41.407,121.194L41.476,120.611L41.544,120.472L41.612,120.444L41.681,120.25L41.749,120L41.818,120.667L41.886,119.833L41.955,118.806L42.023,117.556L42.092,117.194L42.16,117.722L42.228,118.333L42.297,119.111L42.365,120.083L42.434,119.694L42.502,119.611L42.571,119.361L42.639,119.5L42.708,120.667L42.776,121.639L42.845,121.778L42.913,120.889L42.981,121.083L43.05,120.889L43.118,120.667L43.187,121.5L43.255,121.194L43.324,120.139L43.392,119.306L43.461,119.222L43.529,118.944L43.597,118.75L43.666,119.194L43.734,119.694L43.803,118.889L43.871,117.556L43.94,117.444L44.008,116.361L44.077,116L44.145,115.639L44.213,116.083L44.282,116.056L44.35,116.083L44.419,114.139L44.487,113L44.556,113.139L44.624,113L44.693,113.028L44.761,112.333L44.829,110.694L44.898,109.528L44.966,108.75L45.035,108.111L45.103,107.417L45.172,107.583L45.24,105.75L45.309,104.75L45.377,105.806L45.445,107L45.514,106.917L45.582,106.222L45.651,106.583L45.719,104.611L45.788,102.667L45.856,102.694L45.925,101.694L45.993,101.167L46.061,101.639L46.13,102.75L46.201,102.556L46.27,101.25L46.338,101.444L46.407,100.167L46.475,101.389L46.543,103.25L46.612,104.611L46.68,104.917L46.749,104.972L46.817,106.167L46.886,106.75L46.954,108.25L47.023,108.833L47.091,109.917L47.159,110.722L47.228,110.806L47.296,111.861L47.365,112.833L47.433,112.389L47.502,111.639L47.57,113.028L47.639,114.861L47.707,115.722L47.775,117.222L47.844,118.806L47.912,120.556L47.981,123.139L48.049,124.861L48.118,126.139L48.186,126.583L48.255,127.556L48.323,128.528L48.392,127.528L48.46,126.75L48.528,126.306L48.597,124.778L48.665,124.056L48.734,123.694L48.802,122.861L48.871,122.583L48.939,122.639L49.008,121.889L49.076,122.472L49.144,122.361L49.213,122.889L49.281,123.639L49.35,123.5L49.418,123.806L49.487,124.556L49.555,124.333L49.624,123.972L49.692,123.111L49.897,122.306L49.966,121.833L50.034,121.389L50.103,120.611L50.171,119.5L50.924,119.25L50.992,119.583L51.061,118.833L51.129,118.278L51.198,117.028L51.266,117.972L51.335,119.556L51.403,120.583L51.472,122.139L51.54,121.889L51.608,121.722L51.677,120.75L51.745,120.556L51.814,120.917L51.882,121.972L51.951,121.944L52.019,121.417L52.088,121.167L52.156,120.5L52.225,120.222L52.293,119.278L52.361,119.111L52.43,118.889L52.498,118.944L52.567,120L52.635,120.75L52.704,122.083L52.772,123.389L52.841,122.833L52.909,122.972L52.977,122.167L53.046,121.583L53.114,121.139L53.183,122.333L53.251,124.417L53.32,124.417L53.388,124.417L53.457,123.889L53.525,123.25L53.593,122.889L53.662,123.083L53.73,124.972L53.799,124.528L53.867,125.333L53.936,124.75L54.004,124.556L54.073,123.472L54.141,122.833L54.209,123.056L54.278,123.194L54.346,123.806L54.415,123.417L54.483,123.694L54.62,123.167L54.823,122.139L54.891,121.889L55.028,120.611L55.096,119.75L55.165,120.028L55.233,119.75L55.302,120.167L55.37,120.167L55.439,120.917L55.644,119.722L55.849,118.694L55.918,118.306L55.986,118.028L56.055,117.917L56.123,117.667L56.192,118.833L56.26,118.806L56.328,118.25L56.397,118.778L56.465,117.25L56.534,117.333L56.602,117.056L56.671,118.75L56.739,119.222L56.808,117.972L56.876,118.167L56.944,118.083L57.013,118.472L57.081,118.361L57.15,118.833L57.218,119.194L57.287,118.556L57.355,119.028L57.424,118.417L57.492,118.75L57.56,119.028L57.629,119.139L57.697,118.194L57.766,117.556L57.834,117.25L57.903,116.417L57.971,116.889L58.04,116.972L58.108,117.667L58.176,118.5L58.245,117.583L58.313,116.889L58.382,115.139L58.45,114.833L58.519,115.417L58.587,115.806L58.656,115.694L58.724,114.611L58.792,114.583L58.861,115L58.929,115.25L58.998,115.583L59.066,115.75L59.135,115L59.203,114L59.272,113.472L59.34,112.75L59.409,112.5L59.477,113.25L59.545,113.583L59.614,113.083L59.682,112.556L59.751,112.778L59.819,112.389L59.888,113L59.956,113.611L60.025,114.167L60.093,113.333L60.161,112.194L60.23,111.611L60.298,111.083L60.367,111.694L60.435,112.806L60.504,113.583L60.572,112.361L60.641,112.111L60.709,113.556L60.777,113.611L60.846,112.361L60.914,110.611L60.983,110.611L61.051,109.583L61.12,108.583L61.188,108.5L61.257,108.083L61.325,108.028L61.393,108.611L61.462,109.389L61.53,108.333L61.599,107.667L61.667,107.889L61.736,107.444L61.804,107.556L61.873,108.528L61.941,109.028L62.009,108.833L62.078,108L62.146,108.278L62.215,107.972L62.283,107.528L62.352,108.222L62.42,108.889L62.489,109.222L62.557,108.167L62.625,109L62.694,108.139L62.762,107.139L62.831,107.583L62.899,109.528L62.968,111.167L63.036,110.528L63.105,110.889L63.173,110.806L63.242,111.889L63.31,112.139L63.378,112.972L63.447,112.528L63.515,111.75L63.584,112.333L63.652,112.083L63.721,112.444L63.789,112.75L63.858,113.306L63.926,113.083L63.994,112.5L64.063,112.167L64.131,112.333L64.2,112.75L64.268,113.222L64.337,113.861L64.405,113.194L64.474,112.056L64.542,111.917L64.61,111.528L64.679,111.861L64.747,112.083L64.816,112.944L64.884,113.972L64.953,112.917L65.021,112.083L65.09,109.472L65.158,108.75L65.226,109.167L65.295,109.667L65.363,109.556L65.432,108.806L65.5,108.889L65.569,108.583L65.637,108.722L65.706,109L65.774,109.528L65.842,108.583L65.911,107.806L65.979,107.278L66.048,106.917L66.116,107.75L66.185,107.778L66.253,108.472L66.322,108.111L66.39,106.972L66.458,107L66.527,107.694L66.595,107.75L66.664,108.167L66.732,108.556L66.801,108.25L66.869,107.167L66.938,105.167L67.006,105.333L67.074,106.194L67.143,109.111L67.211,111.167L67.28,112.194L67.348,110.972L67.417,110.472L67.485,109.056L67.554,109.5L67.622,109.917L67.691,110.583L67.759,109.861L67.827,108.778L67.896,110.139L67.964,110L68.033,110.278L68.101,110.583L68.17,111.139L68.238,110.861L68.307,109.694L68.375,109.833L68.443,110.139L68.512,110.917L68.58,110.722L68.649,111.5L68.717,111.639L68.786,110L68.854,109.972L68.923,109.833L68.991,110.833L69.059,110.722L69.128,111.833L69.196,111.417L69.265,111.361L69.333,108.611L69.402,107.083L69.47,106.806L69.539,107.222L69.607,107.194L69.675,108.278L69.744,104.944L69.812,103.5L69.881,104.028L69.949,104.556L70.018,105.528L70.086,103.583L70.155,101.833L70.223,101.611L70.291,102.778L70.36,102.5L70.428,101.417L70.497,102.056L70.565,98.333L70.634,96.25L70.702,94.361L70.771,93.306L70.839,93.417L70.907,92.833L70.976,93.361L71.044,92.222L71.116,92L71.184,90.778L71.253,90.556L71.321,89.556L71.389,91.278L71.458,92.833L71.526,93.778L71.595,94.667L71.663,94.194L71.732,92.861L71.8,95.556L71.869,97.917L72.005,98.611L72.074,97.361L72.142,96.556L72.211,98.611L72.279,100.306L72.348,99.694L72.416,98.778L72.485,100.306L72.553,102.333L72.621,102.972L72.69,106.472L72.758,108.222L72.827,106.806L72.895,107.472L72.964,108.722L73.032,110.306L73.101,111L73.169,111.806L73.238,110.889L73.306,110.806L73.374,111.25L73.443,111.833L73.511,111.583L73.58,110.861L73.648,111.167L73.717,111.25L73.785,111.889L73.854,112.167L73.922,112.861L73.99,112.278L74.059,111.083L74.127,110.778L74.196,110.75L74.264,110.444L74.333,108.611L74.401,109.611L74.47,110.722L74.538,109.667L74.606,108.472L74.675,106.778L74.743,107.194L74.812,107.528L74.88,111.167L74.949,111.417L75.017,111.722L75.086,111.361L75.154,110.5L75.222,110.917L75.291,112.028L75.359,113.333L75.428,113.194L75.496,112.667L75.565,112.472L75.633,113.139L75.702,112.972L75.77,113.222L75.838,113.75L75.907,112.889L75.975,113.139L76.044,113.25L76.112,112.25L76.181,112.806L76.249,112.917L76.318,113.972L76.386,116.917L76.454,115.75L76.523,115.472L76.591,116.806L76.66,117.611L76.728,119.25L76.797,118.889L76.865,119.056L76.934,118.667L77.002,119.167L77.07,119.861L77.139,120.917L77.207,121.222L77.276,120.556L77.344,121.389L77.413,120.639L77.481,121.083L77.55,120.861L77.618,121.333L77.687,122.028L77.755,121.833L77.823,122.306L77.892,121.111L77.96,122.028L78.029,120.972L78.097,120.861L78.166,122.222L78.234,122.139L78.303,123L78.371,122.083L78.439,120.889L78.508,121.139L78.576,120.139L78.713,119.222L78.782,118.528L78.85,118.361L78.919,117.972L78.987,117.833L79.055,117.444L79.124,117.028L79.535,115.75L79.603,114.25L79.671,114.583L79.737,114.861L79.805,114.028L79.874,113.917L79.942,113.389L80.011,113.361L80.079,112.694L80.148,112.944L80.216,112.556L80.285,111.444L80.353,111.111L80.422,111.111L80.49,111.194L80.558,111.167L80.627,111.806L80.695,111.972L80.764,111.222L80.832,111.194L80.901,111.444L80.969,111.389L81.038,111.361L81.106,111.889L81.174,112.111L81.243,111.333L81.311,111.278L81.38,111.139L81.448,111.472L81.517,111.917L81.585,112.778L81.654,112.917L81.722,112.056L81.79,112.111L81.859,112.25L81.927,112.472L81.996,113.194L82.064,114.139L82.133,114.444L82.201,113.833L82.27,114.333L82.338,114.25L82.406,114.861L82.475,114.806L82.543,115.194L82.612,115.083L82.68,113.778L82.749,113.444L82.817,112.944L82.886,112.972L82.954,113.472L83.022,114.5L83.091,115.611L83.159,114L83.228,113.083L83.296,111.194L83.365,110.833L83.433,110.889L83.502,111.306L83.57,108.722L83.638,107.028L83.707,105.889L83.775,104.611L83.844,104.611L83.912,105L83.981,105.5L84.049,105.111L84.118,104.028L84.186,103.944L84.255,102.889L84.323,103.361L84.391,103.833L84.46,104.556L84.528,104.278L84.597,103.222L84.665,102.833L84.734,102.833L84.802,103.139L84.871,103.694L84.939,104.5L85.007,103.25L85.076,100.722L85.144,99.639L85.213,99.556L85.281,100.667L85.35,102.472L85.418,103.778L85.487,103.222L85.555,101.472L85.623,104.528L85.692,106.556L85.76,107.722L85.829,108.556L85.897,109.111L85.966,108.361L86.034,107.806L86.103,107.25L86.171,107.083L86.239,107.861L86.308,109.111L86.376,109.528L86.445,108.472L86.513,107.611L86.582,107.778L86.65,107.694L86.719,108.694L86.787,109.167L86.855,109.889L86.924,109.639L86.992,108.139L87.061,108.472L87.129,109.583L87.198,109.583L87.266,110.778L87.335,111.306L87.403,110.944L87.471,109.778L87.54,110.528L87.608,111.25L87.677,110.472L87.745,109.333L87.814,110.194L87.882,110.389L87.951,109.833L88.019,109.806L88.087,109.139L88.156,109.778L88.224,109.889L88.293,110.083L88.361,109.75L88.43,108.417L88.498,109.278L88.567,109.111L88.635,109.278L88.704,109.972L88.772,110.389L88.84,109.667L88.909,108.472L88.977,108.444L89.046,108.944L89.114,108.861L89.183,109.083L89.251,109.722L89.32,108.861L89.388,108.083L89.456,108.556L89.525,108.889L89.593,108.972L89.662,109.444L89.73,110.667L89.799,111.694L89.867,110.583L89.936,109.917L90.004,108.694L90.072,109.333L90.141,110L90.209,110.833L90.278,110.583L90.346,109.611L90.415,109.722L90.483,109.889L90.552,110L90.62,110.472L90.688,111.194L90.757,110.667L90.825,109.778L90.894,110.833L90.962,111.583L91.031,112.056L91.099,112.139L91.168,113.222L91.236,112.694L91.304,112.333L91.373,113.083L91.441,113.306L91.51,113.667L91.578,114.083L91.647,114.917L91.715,115.111L91.784,113.333L91.852,112.472L91.92,112.333L91.989,113.722L92.057,115.139L92.126,115.889L92.194,115.861L92.263,115.056L92.331,115.806L92.4,116.333L92.468,116.611L92.537,117.139L92.605,118.278L92.673,118.083L92.742,116.694L92.81,117.139L92.879,117.5L92.947,117.583L93.016,118.139L93.084,117.722L93.153,117.722L93.221,116.972L93.289,116.306L93.358,116.361L93.426,116.167L93.495,116.694L93.563,115.583L93.632,114.583L93.7,112.833L93.769,112.389L93.837,112.722L93.905,112.083L93.974,113.111L94.042,111.611L94.111,112.056L94.179,109.611L94.248,107.083L94.316,106.417L94.385,105.694L94.453,106.361L94.521,107.222L94.59,104.806L94.727,101.667L94.795,100.444L94.864,100.5L94.932,99.889L95.001,100.278L95.069,98.472L95.137,97.222L95.206,97.528L95.274,97.139L95.343,96.694L95.411,98.194L95.48,98.694L95.548,97.333L95.617,96.333L95.685,97.611L95.753,99.306L95.822,99.472L95.89,99.222L95.959,100.639L96.03,101.139L96.099,100.139L96.167,101.083L96.235,101.028L96.304,102.028L96.372,105.639L96.441,106.583L96.509,107.361L96.578,106.694L96.646,105.5L96.715,108.472L96.783,111.694L96.851,114.167L96.92,115.194L96.988,116.306L97.057,115.306L97.125,117.667L97.194,119.333L97.262,118.75L97.331,118.472L97.399,116.778L97.467,116.528L97.536,114.306L97.604,116.472L97.673,118.028L97.741,115.444L97.81,113.583L97.878,113.667L97.947,114.583L98.22,113.333L98.289,113.278L98.357,113.417L98.426,113.389L98.494,112.75L98.563,113.417L98.631,113.056L98.7,112.528L98.768,112.139L98.836,111.889L98.905,111.972L98.973,111.722L99.042,111.778L99.316,110.167L99.384,109.194L99.452,108.75L99.521,109.611L99.589,108.917L99.658,108.5L99.726,109.028L99.795,109.917L99.863,112.083L99.932,112.417L100,114.333L100.068,113.722L100.137,113.333L100.205,115.306L100.274,116.139L100.342,116.972L100.411,115.75L100.479,116.083L100.548,116L100.616,117.25L100.684,117.667L100.753,117.722L100.821,118.667L100.89,116.833L100.958,116.139L101.027,116.194L101.095,117.25L101.164,118.278L101.369,117.972L101.437,116.556L101.506,116.5L101.574,117.139L101.643,117.361L101.711,117.889L101.78,117.833L101.848,117L101.916,117.194L101.985,117.083L102.053,117.25L102.122,117.278L102.19,117.944L102.259,117.75L102.327,116.833L102.396,116.889L102.464,117L102.533,116.833L102.601,117.417L102.669,118.028L102.738,118.444L102.806,116.972L102.875,117.278L102.943,116.861L103.012,115.833L103.08,117L103.149,118.722L103.217,118.972L103.285,116.778L103.354,114.917L103.422,113.583L103.491,112.694L103.559,112.389L103.628,112.861L103.696,113.667L103.765,113.972L103.833,115.056L103.901,116.333L103.97,117.278L104.038,118.444L104.107,119.444L104.175,120.389L104.244,120.528L104.312,121.75L104.381,123.083L104.449,124.222L104.517,125.389L104.586,126.556L104.651,127.806L104.72,128.25L104.788,129.167L104.857,130.944L104.925,131.611L104.994,133.278L105.062,134.389L105.131,135.444L105.199,134.389L105.268,133.361L105.336,133.444L105.404,133.389L105.473,132.472L105.541,130.222L105.61,129.917L105.678,129.75L105.747,128L105.884,126.222L106.089,124.333L106.226,122.944L106.294,121.528L106.842,119.889L107.047,119.25L107.252,117.222L107.663,115.333L107.732,113.25L107.8,110.639L108.005,109.028L108.074,107.5L108.348,107.056L109.032,105.5L109.101,103.528L109.443,102.083L109.58,99.917L109.717,98.25L110.127,96.528L110.196,95.806L110.401,93.861L110.469,93.306L110.538,92.528L110.606,90.639L110.675,91.028L110.743,94.222L110.812,98.611L110.88,98.056L110.949,93.861L111.017,88.917L111.085,87.861L111.154,87.361L111.222,86.139L111.291,86.333L111.359,85.194L111.428,83.556L111.496,83.139L111.565,82.944L111.633,83.083L111.701,83.444L111.77,84.361L111.838,83.25L111.907,81.444L111.975,80.75L112.044,80.333L112.112,79.583L112.181,79.889L112.249,80.889L112.317,80.167L112.386,78.806L112.454,78.556L112.523,78.417L112.591,79.139L112.66,80.833L112.728,81.722L112.797,79.806L112.865,78.611L112.933,78.917L113.002,81.167L113.07,84L113.139,83.444L113.207,84.167L113.276,84.417L113.344,83.194L113.413,83.389L113.481,83.083L113.55,83.111L113.618,83.444L113.686,83.861L113.755,84.028L113.823,82.361L113.892,82.611L113.96,82.833L114.029,83.139L114.097,83.639L114.166,84.889L114.234,84.611L114.302,82.861L114.371,83.25L114.439,82.861L114.508,83.028L114.576,83.278L114.645,84.722L114.713,85.194L114.782,83.667L114.85,83.639L114.918,82.333L114.987,82.889L115.055,83.861L115.124,87.472L115.192,90.611L115.261,90.528L115.329,89.944L115.398,87.583L115.466,87.889L115.534,88.472L115.603,89.833L115.671,89.028L115.74,88.556L115.808,89L115.877,88.972L115.945,89.917L116.014,90.472L116.082,91.528L116.15,92L116.219,90.944L116.287,91.444L116.356,91.944L116.424,92.444L116.493,93.222L116.561,94.694L116.63,94.667L116.698,93.806L116.766,94.417L116.835,95.056L116.903,95.167L116.972,96.5L117.04,97.722L117.109,97.194L117.177,95.75L117.246,94.083L117.314,93.917L117.383,95.333L117.451,98.5L117.519,100.083L117.588,101.944L117.656,101.528L117.725,102.111L117.793,101.556L117.862,101.667L117.93,102.083L117.999,102.806L118.067,102.528L118.135,101.861L118.204,101.333L118.272,101.139L118.341,100.944L118.409,101.444L118.478,102.444L118.546,102.056L118.615,100.694L118.683,101.139L118.751,100.778L118.82,100.806L118.888,101.111L118.957,102.417L119.025,102.861L119.094,103.5L119.162,104.222L119.231,103.667L119.299,103.25L119.367,101.861L119.436,102.25L119.504,102.222L119.573,101.167L119.641,101.278L119.71,100.833L119.778,100.139L119.847,100.417L119.915,101.222L119.983,100.778L120.052,99.806L120.12,100.194L120.189,99.278L120.257,99.639L120.326,100.056L120.394,100.833L120.463,99.306L120.531,98.528L120.599,100.056L120.668,101.889L120.736,102.083L120.805,102.611L120.873,103.639L120.945,102.444L121.013,98.833L121.081,93.889L121.15,89.889L121.218,89.333L121.287,89.306L121.355,90.75L121.424,92.444L121.492,92.583L121.561,93.111L121.629,93.694L121.697,92.556L121.766,92.667L121.834,94.694L121.903,95.056L121.971,95.778L122.04,98.194L122.108,99.889L122.177,101.25L122.245,102.194L122.313,101.722L122.382,102.139L122.45,102.694L122.519,105.472L122.587,105.25L122.656,105.306L122.724,102.472L122.793,101.25L122.861,100.639L122.93,99.472L122.998,100.722L123.066,103.278L123.135,108.583L123.203,110.778L123.272,110.778L123.34,111.611L123.409,111.25L123.477,111.583L123.546,111.167L123.614,111.917L123.682,113L123.751,113.222L123.819,113.306L123.888,111.694L123.956,111.722L124.093,110.417L124.298,109.75L124.641,109.75L124.846,109.722L124.914,111.25L124.983,111.389L125.051,110.556L125.12,109.972L125.188,110.167L125.257,111.75L125.325,110.028L125.394,111.278L125.462,111.639L125.53,112.972L125.599,109.611L125.667,102.917L125.736,87.583L125.804,56.722L125.873,35.278L125.941,24.944L126.01,24.778L126.078,23.806L126.146,23.25L126.215,23.056L126.283,21.306L126.352,20.222L126.42,19.694L126.489,20.472L126.557,20.75L126.626,20.806L126.694,20.583L126.762,19.444L126.831,17.833L126.899,16.111L126.968,15.25L127.036,15.028L127.105,15.194L127.721,14.25L127.858,11.833L128.884,9.722L128.953,10.667L129.021,11.417L129.09,12L129.158,10.917L129.227,14.389L129.295,20.667L129.363,36.167L129.432,66.361L129.5,88.972L129.569,99.306L129.637,99.194L129.706,99.667L129.774,99.667L129.843,99.667L129.911,100.278L129.979,100.639L130.045,100.389L130.114,99.306L130.182,99.722L130.25,100.139L130.319,100.472L130.387,101.056L130.456,101.972L130.524,101.722L130.593,100.833L130.661,101.472L130.73,101.778L130.798,102.583L130.866,103.306L130.935,104.583L131.003,103.944L131.072,103.222L131.14,103.278L131.209,103.5L131.277,103.861L131.346,103.972L131.414,104.889L131.482,104L131.551,103.056L131.619,103.528L131.688,103.667L131.756,104.222L131.825,104.639L131.893,105.611L131.962,105.417L132.03,104.694L132.098,104.583L132.167,105L132.235,105.389L132.304,105.139L132.372,105.722L132.441,104.917L132.509,103.167L132.578,103.194L132.646,102.611L132.714,102.694L132.783,102.75L132.851,103.139L132.92,102.472L132.988,101.556L133.057,101.194L133.125,100.611L133.194,100.556L133.262,100.583L133.33,101.472L133.399,103.028L133.467,101L133.536,101.528L133.604,98.5L133.673,97.444L133.741,96.861L133.81,97.167L133.878,95.333L133.946,93.528L134.015,93.278L134.083,92.694L134.152,92.75L134.22,92.667L134.289,92.972L134.357,92.472L134.426,90.806L134.494,90.806L134.563,91.389L134.631,91.667L134.699,92.528L134.768,93.111L134.836,92.667L134.905,91.5L134.973,92.111L135.042,92.25L135.11,92.944L135.179,93.111L135.247,93.972L135.315,93.333L135.384,91.694L135.452,89.639L135.521,90.167L135.589,90.333L135.658,94.083L135.726,96.444L135.795,98.472L135.863,97.639L135.931,96.917L136,90.861L136.068,88.917L136.137,88.278L136.205,88.889L136.274,86.889L136.342,85.5L136.411,85.639L136.479,85.139L136.547,85.306L136.616,84.722L136.684,85.472L136.753,84.667L136.821,83.333L136.89,83.278L136.958,83.056L137.027,82.833L137.095,83.056L137.163,83.889L137.232,83.861L137.3,82.361L137.369,82.611L137.437,82.333L137.506,82.444L137.574,82.556L137.643,83.333L137.711,81.583L137.779,79.694L137.848,77.472L137.916,77.5L137.985,80.056L138.053,86.806L138.122,90.222L138.19,90.667L138.259,90.111L138.327,91.75L138.396,92L138.464,91.944L138.532,92.778L138.601,93.833L138.669,93.389L138.738,92.75L138.806,93.194L138.875,93.139L138.943,93.278L139.012,94.528L139.08,95.806L139.148,94.361L139.217,92.528L139.285,92.75L139.354,92.083L139.422,92.444L139.491,92.222L139.559,93.083L139.628,92.556L139.696,91.25L139.764,92.333L139.833,91.25L139.901,91.75L139.97,91.028L140.038,91.944L140.107,89.611L140.175,85.556L140.244,84.889L140.312,81.111L140.38,80.75L140.449,79.917L140.517,80.722L140.586,80.111L140.654,77.583L140.723,79L140.791,78.222L140.86,77.917L140.928,77.667L140.996,79.083L141.065,78.472" stroke="#4c78a8" stroke-width="2"/></g><g class="mark-group role-title"><g transform="translate(100,-17)"><path class="background" aria-hidden="true" d="M0,0h0v0h0Z" pointer-events="none"/><g><g class="mark-text role-title-text" role="graphics-symbol" aria-roledescription="title" aria-label="Title text 'Missed Collection (All Materials): 1 Missed Collection'" pointer-events="none"><text text-anchor="middle" transform="translate(0,10)" font-family="sans-serif" font-size="13px" font-weight="bold" fill="#000" opacity="1">Missed Collection (All Materials): 1 Missed Collection</text></g></g><path class="foreground" aria-hidden="true" d="" pointer-events="none" display="none"/></g></g></g><path class="foreground" aria-hidden="true" d="" display="none"/></g></g></g><defs><clipPath id="clip103"><rect x="0" y="0" width="200" height="150"/></clipPath></defs></svg>