<svg xmlns="http://www.w3.org/2000/svg" xmlns:xlink="http://www.w3.org/1999/xlink" version="1.1" class="marks" width="235" height="199" viewBox="0 0 235 199"><rect width="235" height="199" fill="white"/><g fill="none" stroke-miterlimit="10" transform="translate(29,27)"><g class="mark-group role-frame root" role="graphics-object" aria-roledescription="group mark container"><g transform="translate(0,0)"><path class="background" aria-hidden="true" d="M0,0h200v150h-200Z"/><g><g class="mark-group role-axis" aria-hidden="true"><g transform="translate(0.5,0.5)"><path class="background" aria-hidden="true" d="M0,0h0v0h0Z" pointer-events="none"/><g><g class="mark-rule role-axis-grid" pointer-events="none"><line transform="translate(0,150)" x2="200" y2="0" stroke="#ddd" stroke-width="1" opacity="1"/><line transform="translate(0,113)" x2="200" y2="0" stroke="#ddd" stroke-width="1" opacity="1"/><line transform="translate(0,75)" x2="200" y2="0" stroke="#ddd" stroke-width="1" opacity="1"/><line transform="translate(0,38)" x2="200" y2="0" stroke="#ddd" stroke-width="1" opacity="1"/><line transform="translate(0,0)" x2="200" y2="0" stroke="#ddd" stroke-width="1" opacity="1"/></g></g><path class="foreground" aria-hidden="true" d="" pointer-events="none" display="none"/></g></g><g class="mark-group role-axis" role="graphics-symbol" aria-roledescription="axis" aria-label="X-axis for a time scale with values from Friday, 01 January 2016, 12:00:00 AM to Monday, 01 January 2024, 12:00:00 AM"><g transform="translate(0.5,150.5)"><path class="background" aria-hidden="true" d="M0,0h0v0h0Z" pointer-events="none"/><g><g class="mark-rule role-axis-tick" pointer-events="none"><line transform="translate(0,0)" x2="0" y2="5" stroke="#888" stroke-width="1" opacity="1"/><line transform="translate(50,0)" x2="0" y2="5" stroke="#888" stroke-width="1" opacity="1"/><line transform="translate(100,0)" x2="0" y2="5" stroke="#888" stroke-width="1" opacity="1"/><line transform="translate(150,0)" x2="0" y2="5" stroke="#888" stroke-width="1" opacity="1"/><line transform="translate(200,0)" x2="0" y2="5" stroke="#888" stroke-width="1" opacity="1"/></g><g class="mark-text role-axis-label" pointer-events="none"><text text-anchor="start" transform="translate(0,15)" font-family="sans-serif" font-size="10px" fill="#000" opacity="1">2016</text><text text-anchor="middle" transform="translate(50.03422313483915,15)" font-family="sans-serif" font-size="10px" fill="#000" opacity="1">2018</text><text text-anchor="middle" transform="translate(100,15)" font-family="sans-serif" font-size="10px" fill="#000" opacity="1">2020</text><text text-anchor="middle" transform="translate(150.03422313483915,15)" font-family="sans-serif" font-size="10px" fill="#000" opacity="1">2022</text><text text-anchor="end" transform="translate(200,15)" font-family="sans-serif" font-size="10px" fill="#000" opacity="1">2024</text></g><g class="mark-rule role-axis-domain" pointer-events="none"><line transform="translate(0,0)" x2="200" y2="0" stroke="#888" stroke-width="1" opacity="1"/></g></g><path class="foreground" aria-hidden="true" d="" pointer-events="none" display="none"/></g></g><g class="mark-group role-axis" role="graphics-symbol" aria-roledescription="axis" aria-label="Y-axis for a linear scale with values from 0 to 400"><g transform="translate(0.5,0.5)"><path class="background" aria-hidden="true" d="M0,0h0v0h0Z" pointer-events="none"/><g><g class="mark-rule role-axis-tick" pointer-events="none"><line transform="translate(0,150)" x2="-5" y2="0" stroke="#888" stroke-opacity="0" stroke-width="1" opacity="1"/><line transform="translate(0,113)" x2="-5" y2="0" stroke="#888" stroke-opacity="0" stroke-width="1" opacity="1"/><line transform="translate(0,75)" x2="-5" y2="0" stroke="#888" stroke-opacity="0" stroke-width="1" opacity="1"/><line transform="translate(0,38)" x2="-5" y2="0" stroke="#888" stroke-opacity="0" stroke-width="1" opacity="1"/><line transform="translate(0,0)" x2="-5" y2="0" stroke="#888" stroke-opacity="0" stroke-width="1" opacity="1"/></g><g class="mark-text role-axis-label" pointer-events="none"><text text-anchor="end" transform="translate(-7,153)" font-family="sans-serif" font-size="10px" fill="#000" opacity="1">0</text><text text-anchor="end" transform="translate(-7,115.5)" font-family="sans-serif" font-size="10px" fill="#000" opacity="1">100</text><text text-anchor="end" transform="translate(-7,78)" font-family="sans-serif" font-size="10px" fill="#000" opacity="1">200</text><text text-anchor="end" transform="translate(-7,40.5)" font-family="sans-serif" font-size="10px" fill="#000" opacity="1">300</text><text text-anchor="end" transform="translate(-7,3)" font-family="sans-serif" font-size="10px" fill="#000" opacity="1">400</text></g></g><path class="foreground" aria-hidden="true" d="" pointer-events="none" display="none"/></g></g><g class="mark-line role-mark marks" clip-path="url(#clip104)" role="graphics-object" aria-roledescription="line mark container"><path aria-label="day: Mar 31, 2011; avg: 6.13333333333" role="graphics-symbol" aria-roledescription="line mark" d="M-118.894,147.7L-118.826,147.725L-118.757,147.725L-118.689,147.825L-118.62,147.863L-118.552,147.875L-118.483,147.863L-118.415,147.85L-118.346,147.788L-118.278,147.775L-118.21,147.888L-118.141,147.838L-118.073,147.838L-118.004,147.85L-117.936,147.75L-117.867,147.813L-117.73,147.875L-117.662,147.888L-117.594,147.875L-117.457,147.863L-117.388,147.85L-117.251,147.875L-117.183,148.075L-117.114,148.038L-117.046,148.113L-116.909,148.113L-116.841,148.138L-116.772,148.15L-116.704,148.138L-116.635,148.25L-116.567,148.25L-116.498,148.225L-116.43,148.213L-116.362,148.225L-116.293,148.263L-116.225,148.25L-116.156,148.15L-116.088,148.15L-116.019,148.2L-115.951,148.188L-115.882,148.2L-115.745,148.237L-115.54,148.237L-115.472,148.2L-115.403,147.775L-115.266,147.825L-115.198,147.8L-115.129,147.913L-115.061,147.963L-114.993,147.963L-114.924,147.988L-114.856,147.913L-114.787,147.925L-114.719,147.888L-114.65,147.9L-114.582,147.913L-114.513,147.963L-114.445,147.988L-114.377,148L-114.308,148.175L-114.24,148.213L-114.171,148.263L-114.034,148.275L-113.829,148.288L-113.692,148.3L-113.624,148.338L-113.555,148.463L-113.487,148.475L-113.418,148.463L-113.35,148.475L-113.281,148.425L-113.213,148.438L-113.145,148.425L-113.008,148.475L-112.939,149L-112.871,148.95L-112.802,148.95L-112.734,148.963L-112.665,148.938L-112.597,148.913L-112.392,148.862L-112.323,148.963L-112.255,148.987L-112.186,149.088L-112.118,149.1L-111.913,149.063L-111.844,149.038L-111.776,149.063L-111.707,149.1L-111.639,149.088L-111.57,149.075L-111.433,149.075L-111.365,149.088L-111.228,149.1L-111.16,149.1L-111.023,149.088L-110.886,149.088L-110.817,149.075L-110.749,149.125L-110.68,149.113L-110.612,149.188L-110.544,149.175L-110.407,149.188L-110.338,149.163L-110.27,149.163L-110.201,149.2L-110.133,149.225L-109.996,149.188L-109.928,149.213L-109.859,149.25L-109.791,149.288L-109.722,149.263L-109.654,149.275L-109.517,149.275L-109.448,149.225L-109.38,149.263L-109.312,149.288L-109.243,149.25L-109.106,149.25L-109.038,149.263L-108.969,149.25L-108.901,149.263L-108.832,149.238L-108.49,149.238L-108.422,149.213L-108.353,149.2L-108.216,149.2L-108.148,149.175L-108.08,149.138L-107.874,149.163L-107.806,149.15L-107.737,149.138L-107.6,149.113L-107.532,149.138L-107.463,148.813L-107.395,148.775L-107.327,148.763L-107.258,148.788L-107.19,148.738L-107.121,148.55L-107.053,148.538L-106.984,148.5L-106.847,148.5L-106.779,148.463L-106.711,148.475L-106.642,148.463L-106.368,148.438L-106.3,148.463L-106.231,148.475L-106.163,148.45L-106.095,148.45L-106.026,148.438L-105.958,148.45L-105.889,148.413L-105.821,148.438L-105.752,148.45L-105.684,148.45L-105.615,148.475L-105.342,148.475L-105.273,147.913L-105.205,147.925L-105.136,147.612L-104.999,147.638L-104.931,147.6L-104.863,147.9L-104.794,147.925L-104.726,147.775L-104.657,147.75L-104.589,147.763L-104.52,147.963L-104.452,147.913L-104.383,147.963L-104.315,147.95L-104.247,147.95L-104.178,147.95L-104.11,147.925L-104.041,147.95L-103.973,147.963L-103.904,147.963L-103.836,147.963L-103.765,147.938L-103.696,147.788L-103.628,147.8L-103.559,147.838L-103.491,147.838L-103.422,147.863L-103.354,147.813L-103.285,147.813L-103.217,147.85L-103.149,148.363L-103.08,148.338L-103.012,148.675L-102.943,148.65L-102.875,148.688L-102.806,148.625L-102.601,148.65L-102.533,148.775L-102.464,148.775L-102.396,148.775L-102.327,148.75L-102.19,148.825L-102.122,148.825L-102.053,148.8L-101.985,148.825L-101.916,148.85L-101.848,148.888L-101.643,148.875L-101.506,148.875L-101.437,148.838L-101.3,148.862L-101.232,148.888L-101.164,149.038L-101.095,148.987L-101.027,148.987L-100.958,148.963L-100.89,148.862L-100.684,148.9L-100.479,148.813L-100.342,148.813L-100.274,148.85L-100.205,148.862L-100.137,148.862L-100.068,148.888L-100,148.875L-99.932,148.963L-99.863,148.963L-99.795,148.963L-99.726,148.975L-99.658,149.013L-99.589,149.038L-99.452,149.025L-99.384,149.063L-99.316,149.1L-99.179,149.113L-98.973,149.125L-98.905,149.125L-98.836,149.138L-98.768,149.125L-98.7,149.125L-98.563,149.125L-98.426,149.138L-98.357,148.975L-98.015,148.938L-97.947,148.925L-97.81,148.938L-97.741,149.038L-97.604,148.938L-97.536,149.038L-97.467,149.013L-97.331,149.025L-97.262,149.025L-97.125,149.025L-96.988,149.013L-96.851,148.987L-96.783,148.95L-96.646,148.95L-96.578,148.987L-96.509,149L-96.304,149L-96.167,148.987L-96.099,149L-96.03,149L-95.962,148.925L-95.893,148.925L-95.825,148.888L-95.756,148.875L-95.551,148.838L-95.483,148.825L-95.346,148.862L-95.277,148.862L-95.143,148.875L-95.075,149.05L-95.006,149.138L-94.801,149.15L-94.664,149.025L-94.596,149.025L-94.527,149.138L-94.459,149.125L-94.39,149.138L-94.322,149.088L-94.253,149.088L-94.048,149.088L-93.911,149.1L-93.774,149.138L-93.706,149.175L-93.569,148.688L-93.5,148.688L-93.432,148.7L-93.364,148.7L-93.295,148.713L-93.021,148.688L-92.953,148.663L-92.884,148.725L-92.816,148.688L-92.748,148.538L-92.679,148.538L-92.611,148.575L-92.474,148.563L-92.337,148.563L-92.2,148.563L-92.132,148.488L-91.995,148.463L-91.789,148.463L-91.721,148.463L-91.652,148.6L-91.584,148.6L-91.516,148.588L-91.447,148.55L-91.31,148.538L-91.105,148.525L-90.899,148.538L-90.831,148.525L-90.557,148.513L-90.489,148.513L-90.215,148.488L-90.078,148.963L-89.941,148.963L-89.873,148.963L-89.736,148.963L-89.667,148.963L-89.599,148.987L-89.325,149L-89.257,149L-89.188,149.025L-89.051,149.213L-88.983,149.225L-88.846,149.225L-88.709,149.263L-88.641,149.263L-88.572,149.263L-88.504,149.325L-88.367,149.313L-88.299,149.3L-88.23,149.3L-88.162,149.263L-88.025,149.263L-87.956,149.275L-87.888,149.3L-87.819,149.325L-87.683,149.375L-87.477,149.375L-87.409,149.338L-87.34,149.35L-87.272,149.35L-86.998,149.338L-86.861,149.35L-86.587,149.35L-86.108,149.35L-86.04,149.288L-85.903,149.288L-85.492,149.263L-85.424,149.263L-85.355,149.275L-84.945,149.288L-84.876,149.263L-84.808,149.263L-84.671,149.225L-84.329,149.225L-84.192,149.225L-84.123,149.225L-84.055,149.213L-83.986,149.25L-83.918,149.263L-83.85,149.25L-83.781,149.25L-83.576,149.238L-83.165,149.225L-82.96,149.238L-82.891,149.213L-82.754,148.963L-82.549,148.963L-82.481,149L-82.275,148.975L-82.207,148.913L-82.138,148.938L-82.07,148.875L-82.001,148.875L-81.933,148.875L-81.865,148.938L-81.796,148.938L-81.728,148.963L-81.591,148.963L-81.522,148.963L-81.454,148.963L-81.385,148.975L-81.317,148.963L-81.249,149L-81.18,149L-81.043,148.95L-80.975,148.938L-80.906,148.95L-80.769,148.95L-80.701,148.938L-80.633,148.95L-80.564,148.963L-80.359,148.925L-80.29,148.925L-80.153,148.938L-80.085,148.975L-80.017,149.2L-79.948,149.188L-79.88,149.175L-79.743,149.188L-79.674,149.238L-79.606,149.225L-79.537,149.288L-79.469,149.288L-79.127,149.288L-79.058,149.288L-78.99,149.288L-78.782,149.263L-78.508,149.238L-78.234,149.2L-78.166,149.188L-78.097,149.2L-78.029,149.2L-77.892,149.2L-77.823,149.2L-77.687,149.238L-77.618,149.25L-77.481,149.25L-77.413,149.238L-77.344,149.25L-77.276,149.2L-77.207,149.225L-77.139,149.263L-77.07,149.275L-77.002,149.275L-76.934,149.275L-76.728,149.313L-76.318,149.325L-76.249,149.35L-76.181,149.363L-76.112,149.375L-75.77,149.388L-75.633,149.388L-75.565,149.388L-75.428,149.363L-75.291,149.363L-75.086,149.363L-75.017,149.388L-74.949,149.425L-74.88,149.425L-74.812,149.438L-74.675,149.438L-74.606,149.425L-74.538,149.425L-74.401,149.375L-74.264,149.375L-74.196,149.35L-73.854,149.288L-73.785,149.275L-73.306,149.275L-73.238,149.288L-73.169,149.238L-73.101,149.2L-72.758,149.175L-72.621,149.175L-72.553,149.15L-72.348,149.15L-72.005,149.15L-71.937,149.15L-71.869,149.138L-71.8,149.138L-71.732,149.138L-71.253,149.113L-71.184,149.1L-71.116,149.125L-71.047,149.088L-70.705,149.075L-70.637,149.063L-70.363,148.963L-70.294,148.987L-70.092,148.975L-70.023,148.913L-69.955,148.938L-69.886,148.838L-69.818,148.862L-69.681,148.875L-69.476,148.862L-69.407,148.875L-69.339,148.85L-69.134,148.788L-69.065,148.775L-68.997,148.813L-68.928,148.838L-68.86,148.838L-68.791,148.8L-68.723,148.825L-68.654,148.738L-68.381,148.738L-68.244,148.725L-68.175,148.675L-68.107,148.675L-67.97,148.6L-67.902,148.575L-67.833,148.588L-67.765,148.588L-67.491,148.5L-67.422,148.475L-67.217,148.45L-67.08,148.513L-67.012,148.525L-66.875,148.538L-66.806,148.6L-66.738,148.575L-66.67,148.65L-66.601,148.663L-66.533,148.65L-66.464,148.688L-66.396,148.75L-66.327,148.8L-66.122,148.85L-65.985,148.9L-65.917,148.913L-65.78,148.938L-65.711,148.95L-65.643,148.987L-65.574,148.987L-65.232,149.063L-65.027,149.05L-64.958,149.063L-64.685,149.1L-64.548,149.1L-64.411,149.188L-64.342,149.238L-64.274,149.238L-64.069,149.2L-64,149.325L-63.932,149.363L-63.863,149.388L-63.726,149.388L-63.658,149.363L-63.453,149.363L-63.384,149.35L-63.316,149.363L-63.247,149.375L-63.179,149.388L-63.11,149.4L-63.042,149.35L-62.905,149.313L-62.837,149.313L-62.768,149.288L-62.631,149.275L-62.426,149.275L-62.357,149.263L-62.289,149.275L-62.084,149.25L-62.015,149.238L-61.947,149.2L-61.673,149.15L-61.604,149.075L-61.399,149.088L-61.262,149.075L-61.194,149.075L-61.125,149.075L-60.852,149.063L-60.783,149.075L-60.646,149.063L-60.509,149.063L-60.441,149.063L-60.372,149.013L-60.304,149.025L-60.236,149.013L-60.167,149.013L-60.099,148.987L-60.03,148.975L-59.825,148.975L-59.756,148.95L-59.688,149L-59.551,149.025L-59.483,149L-59.414,148.987L-59.346,148.913L-59.277,148.888L-59.209,148.888L-59.072,148.838L-59.004,148.85L-58.935,148.862L-58.867,148.888L-58.798,148.925L-58.593,149L-58.524,149L-58.456,148.825L-58.388,148.788L-58.251,148.775L-58.182,148.775L-58.114,148.788L-58.045,148.8L-57.977,148.788L-57.84,148.725L-57.772,148.775L-57.429,148.763L-57.361,148.75L-57.292,148.738L-57.224,148.738L-57.155,148.738L-57.087,148.725L-56.95,148.713L-56.813,148.688L-56.745,148.675L-56.676,148.7L-56.608,148.75L-56.539,148.8L-56.471,148.763L-56.403,148.775L-56.334,148.788L-56.266,148.775L-56.197,148.775L-56.129,148.8L-56.06,148.825L-55.992,148.825L-55.787,148.813L-55.718,148.987L-55.65,149.013L-55.581,149.025L-55.513,149.025L-55.444,149.013L-55.376,148.987L-55.307,148.938L-55.239,148.987L-55.102,149.025L-55.034,148.938L-54.965,148.95L-54.897,148.975L-54.828,149L-54.76,149.025L-54.691,149.025L-54.623,149.063L-54.555,149.05L-54.486,149.025L-54.418,149.013L-54.349,149L-54.281,149.013L-54.212,149.075L-54.075,149.075L-54.007,149.113L-53.936,149.138L-53.867,149.125L-53.799,149.1L-53.73,149.1L-53.662,149.1L-53.593,149.125L-53.525,149.1L-53.388,149.113L-53.32,149.113L-53.251,149.088L-53.183,149.1L-53.114,149.1L-52.977,149.113L-52.909,149.113L-52.841,149.113L-52.772,149.213L-52.635,149.225L-52.567,149.225L-52.498,149.238L-52.43,149.225L-52.293,149.238L-52.088,149.225L-52.019,149.238L-51.951,149.263L-51.882,149.163L-51.745,149.1L-51.677,148.963L-51.608,148.838L-51.472,148.838L-51.403,148.788L-51.335,148.788L-51.129,148.763L-51.061,148.7L-50.65,148.7L-50.582,148.7L-50.513,148.7L-50.445,148.738L-50.308,148.738L-50.24,148.738L-50.171,148.763L-50.103,148.775L-50.034,148.8L-49.966,148.85L-49.76,148.862L-49.418,148.862L-49.144,148.862L-49.076,148.862L-48.871,148.862L-48.734,148.85L-48.46,148.825L-48.323,148.775L-48.186,148.775L-48.049,148.75L-47.981,148.688L-47.912,148.788L-47.844,148.75L-47.775,148.813L-47.502,148.925L-47.433,148.925L-47.365,148.963L-47.159,148.95L-47.091,148.963L-46.954,149.05L-46.817,149.05L-46.749,149.038L-46.68,149.038L-46.543,149.038L-46.407,149.025L-46.064,148.9L-45.996,148.888L-45.927,148.888L-45.722,148.85L-45.654,148.813L-45.585,148.825L-45.517,148.813L-45.448,148.775L-45.38,148.738L-45.314,148.738L-45.246,148.663L-45.177,148.675L-45.109,148.713L-45.04,148.65L-44.904,148.663L-44.835,148.75L-44.767,148.6L-44.698,148.7L-44.63,148.775L-44.561,148.763L-44.424,148.763L-44.356,148.713L-44.288,148.7L-44.219,148.713L-44.151,148.675L-44.082,148.638L-43.945,148.638L-43.877,148.638L-43.808,148.6L-43.74,148.613L-43.672,148.6L-43.535,148.6L-43.466,148.6L-43.398,148.625L-43.329,148.663L-43.261,148.625L-43.192,148.638L-43.124,148.675L-43.056,148.713L-42.987,148.675L-42.782,148.75L-42.713,148.775L-42.645,148.788L-42.576,148.862L-42.508,148.862L-42.44,148.813L-42.303,148.938L-42.234,148.888L-42.166,148.788L-42.097,148.738L-41.96,148.725L-41.892,148.675L-41.755,148.675L-41.687,148.688L-41.55,148.725L-41.481,148.75L-41.413,148.738L-41.344,148.638L-41.139,148.625L-41.071,148.588L-41.002,148.663L-40.934,148.65L-40.728,148.65L-40.66,148.638L-40.591,148.638L-40.523,148.613L-40.455,148.575L-40.386,148.538L-40.249,148.488L-40.112,148.513L-40.044,148.45L-39.975,148.45L-39.907,148.425L-39.77,148.425L-39.633,148.438L-39.565,148.463L-39.496,148.488L-39.428,148.55L-39.291,148.675L-39.223,148.75L-39.154,148.738L-39.086,148.85L-38.949,148.875L-38.812,148.85L-38.743,148.825L-38.675,148.838L-38.607,148.825L-38.538,148.925L-38.401,148.95L-38.333,148.95L-38.196,148.963L-38.127,148.987L-38.059,148.688L-37.922,148.713L-37.854,148.713L-37.717,148.713L-37.648,148.738L-37.58,148.725L-37.511,148.75L-37.375,148.763L-37.306,148.838L-37.238,148.813L-37.101,148.838L-37.032,148.813L-36.964,148.838L-36.895,148.862L-36.827,148.85L-36.553,148.85L-36.485,148.775L-36.416,148.75L-36.348,148.763L-36.279,148.713L-36.211,148.65L-36.142,148.65L-36.006,148.663L-35.937,148.65L-35.8,148.675L-35.732,148.675L-35.663,148.675L-35.595,148.7L-35.526,148.725L-35.458,148.713L-35.321,149L-35.253,149L-35.184,148.913L-35.116,148.95L-35.047,148.963L-34.979,148.987L-34.91,148.975L-34.842,148.963L-34.774,148.938L-34.705,148.825L-34.568,148.75L-34.5,148.763L-34.363,148.738L-34.294,148.675L-34.226,148.638L-34.158,148.6L-34.089,148.638L-34.021,148.65L-33.952,148.625L-33.884,148.675L-33.815,148.738L-33.61,148.763L-33.542,148.75L-33.473,148.7L-33.405,148.688L-33.336,148.663L-33.131,148.688L-33.062,148.688L-32.857,148.65L-32.789,148.675L-32.72,148.663L-32.652,148.663L-32.583,148.75L-32.515,148.775L-32.446,148.763L-32.378,148.8L-32.309,148.825L-32.241,148.838L-32.173,148.825L-32.104,148.963L-32.036,149.025L-31.967,149.025L-31.899,149.025L-31.83,149.05L-31.625,149.05L-31.557,149.088L-31.488,149.125L-31.42,149.138L-31.351,149.175L-31.214,149.163L-31.146,149.163L-31.077,149.15L-31.009,149.15L-30.941,149.163L-30.872,149.175L-30.804,149.188L-30.735,149.188L-30.667,149.175L-30.53,149.075L-30.461,148.938L-30.393,148.938L-30.325,148.825L-30.256,148.688L-30.188,148.438L-30.119,148.438L-30.051,148.35L-29.982,148.363L-29.914,148.35L-29.709,148.375L-29.64,148.375L-29.572,148.15L-29.503,147.9L-29.435,147.638L-29.366,147.487L-29.298,147.25L-29.229,147.063L-29.021,147.063L-28.884,147.063L-28.747,147L-28.679,146.813L-28.542,146.788L-28.474,146.725L-28.337,146.713L-28.268,146.75L-28.131,146.737L-27.995,146.725L-27.926,146.688L-27.858,146.713L-27.789,146.875L-27.721,147L-27.652,146.975L-27.584,147.013L-27.515,147.063L-27.447,147.275L-27.31,147.238L-27.242,147.288L-27.173,147.225L-27.105,147.163L-27.036,147.163L-26.968,147.163L-26.899,147.388L-26.831,147.65L-26.694,147.888L-26.626,148.075L-26.557,148.375L-26.489,148.563L-26.42,148.513L-26.352,148.513L-26.283,148.563L-26.215,148.738L-26.146,148.738L-26.078,148.625L-25.941,148.638L-25.873,148.638L-25.804,148.663L-25.736,148.688L-25.667,148.713L-25.599,148.688L-25.462,148.663L-25.394,148.663L-25.325,148.713L-25.257,148.788L-25.188,148.862L-25.12,148.9L-25.051,148.95L-24.983,148.987L-24.914,149.05L-24.846,149.113L-24.709,149.113L-24.641,149.113L-24.572,149.113L-24.504,149.113L-24.435,149.163L-24.367,149.163L-24.298,149.163L-24.162,149.163L-24.093,149.213L-24.025,149.2L-23.751,149.213L-23.682,149.225L-23.614,149.25L-23.546,149.413L-23.477,149.438L-23.066,149.438L-22.861,149.438L-22.724,149.425L-22.656,149.438L-22.519,149.45L-22.45,149.475L-22.245,149.475L-22.108,149.438L-22.04,149.425L-21.971,149.425L-21.903,149.413L-21.834,149.388L-21.629,149.338L-21.492,149.325L-21.424,149.263L-21.355,149.175L-21.287,149.125L-21.218,149.1L-21.15,149L-21.081,149L-20.808,148.913L-20.602,148.85L-20.4,148.825L-20.331,148.7L-20.263,148.55L-20.195,148.488L-20.126,148.438L-19.989,148.388L-19.921,148.375L-19.852,148.3L-19.784,148.25L-19.715,148.213L-19.51,148.163L-19.442,148.138L-19.373,148.138L-19.305,147.6L-19.168,147.475L-19.099,146.95L-19.031,146.925L-18.962,146.737L-18.757,146.663L-18.689,146.688L-18.62,146.675L-18.552,146.675L-18.483,146.75L-18.415,146.8L-18.346,146.825L-18.278,146.85L-18.21,146.925L-18.141,146.913L-18.073,146.988L-18.004,147.025L-17.936,147L-17.867,147.1L-17.799,147.163L-17.662,147.213L-17.594,147.275L-17.457,147.325L-17.388,147.35L-17.32,147.425L-17.251,147.487L-17.183,147.525L-17.114,147.575L-16.978,147.525L-16.909,147.525L-16.841,147.988L-16.772,148.05L-16.704,148.538L-16.635,148.563L-16.567,148.725L-16.498,148.763L-16.43,148.725L-16.362,148.75L-16.225,148.763L-16.156,148.713L-16.019,148.75L-15.882,148.775L-15.745,148.738L-15.677,148.763L-15.609,148.75L-15.54,148.738L-15.472,148.75L-15.403,148.675L-15.335,148.7L-15.266,148.738L-15.129,148.65L-14.993,148.625L-14.924,148.525L-14.856,148.525L-14.65,148.413L-14.582,148.163L-14.513,148.15L-14.445,148.125L-14.377,148.175L-14.308,148.138L-14.24,148.213L-14.171,148.25L-14.103,148.325L-14.034,148.325L-13.966,148.325L-13.897,148.263L-13.761,148.263L-13.624,148.3L-13.555,148.275L-13.487,148.325L-13.418,148.3L-13.213,148.263L-13.145,148.213L-13.076,148.213L-13.008,148.237L-12.939,148.225L-12.871,148.2L-12.802,148.288L-12.734,148.25L-12.665,148.288L-12.597,148.375L-12.529,148.35L-12.46,148.425L-12.323,148.425L-12.255,148.338L-12.186,148.388L-12.118,148.338L-12.049,148.225L-11.981,148.163L-11.913,148.125L-11.844,148.013L-11.776,148L-11.707,147.85L-11.639,147.525L-11.57,147.563L-11.502,147.663L-11.433,147.7L-11.365,147.688L-11.296,147.588L-11.16,147.55L-11.091,147.563L-11.023,147.487L-10.954,147.575L-10.886,147.538L-10.817,147.45L-10.749,147.45L-10.68,147.413L-10.612,147.45L-10.544,147.487L-10.475,147.5L-10.407,147.475L-10.338,147.487L-10.27,147.475L-10.201,147.463L-10.133,147.6L-10.064,147.788L-9.996,147.85L-9.928,147.988L-9.859,148.063L-9.791,148.138L-9.722,148.188L-9.654,148.175L-9.585,148.325L-9.517,148.6L-9.38,148.6L-9.243,148.6L-9.175,148.588L-9.106,148.538L-9.038,148.65L-8.969,148.675L-8.901,148.7L-8.764,148.775L-8.696,148.738L-8.627,148.763L-8.559,148.838L-8.49,148.862L-8.422,148.938L-8.353,148.938L-8.285,148.938L-8.216,148.938L-8.148,148.862L-8.08,148.862L-8.011,148.9L-7.943,148.825L-7.806,148.85L-7.737,148.788L-7.669,148.788L-7.6,148.788L-7.532,148.725L-7.463,148.713L-7.395,148.713L-7.327,148.7L-7.258,148.375L-7.19,148.4L-7.121,148.363L-7.053,148.363L-6.984,148.375L-6.916,148.4L-6.847,148.35L-6.779,148.338L-6.711,148.338L-6.642,148.275L-6.574,148.25L-6.505,148.237L-6.437,148.2L-6.163,148.213L-6.095,148.188L-6.026,148.175L-5.958,148.175L-5.889,148.188L-5.821,148.288L-5.752,148.288L-5.684,148.275L-5.615,148.313L-5.547,148.35L-5.479,148.425L-5.41,148.425L-5.342,148.388L-5.273,148.45L-5.136,148.425L-5.068,148.45L-4.999,148.525L-4.931,148.838L-4.863,148.862L-4.794,148.875L-4.726,148.875L-4.657,148.8L-4.589,148.813L-4.52,148.875L-4.383,148.888L-4.315,148.85L-4.247,148.9L-4.178,148.925L-4.107,148.888L-4.038,148.938L-3.97,148.875L-3.901,148.888L-3.833,148.838L-3.765,148.8L-3.696,148.763L-3.628,148.738L-3.559,148.775L-3.491,148.775L-3.422,148.813L-3.354,148.813L-3.285,148.813L-3.217,148.813L-3.149,148.85L-3.08,148.838L-3.012,148.875L-2.943,148.9L-2.875,148.85L-2.806,148.85L-2.601,148.838L-2.533,148.85L-2.464,148.8L-2.396,148.875L-2.327,148.862L-2.259,148.862L-1.985,148.875L-1.916,148.888L-1.848,148.925L-1.78,148.963L-1.711,148.975L-1.643,148.95L-1.574,149L-1.506,149L-1.437,149.038L-1.369,149.075L-1.3,149.063L-1.232,149.088L-1.164,149.075L-1.095,149.088L-0.89,149.1L-0.821,149.088L-0.753,149.038L-0.411,149.013L-0.274,149.025L-0.137,149L-0.068,149L0,148.987L0.068,149.025L0.137,149.013L0.205,149.038L0.479,149.05L0.821,149.05L0.89,149.025L1.095,148.975L1.369,148.938L1.711,148.85L1.848,148.862L1.916,148.788L1.985,148.775L2.053,148.788L2.122,148.788L2.19,148.788L2.259,148.775L2.327,148.763L2.464,148.7L2.533,148.688L2.601,148.7L2.806,148.7L2.943,148.675L3.012,148.675L3.08,148.65L3.217,148.613L3.285,148.638L3.422,148.638L3.491,148.675L3.559,148.663L3.628,148.688L3.833,148.663L3.97,148.675L4.107,148.663L4.175,148.588L4.244,148.638L4.381,148.638L4.517,148.7L4.586,148.738L4.654,148.775L4.723,148.775L4.791,148.813L4.86,148.775L5.062,148.8L5.131,148.825L5.199,148.8L5.268,148.738L5.336,148.775L5.404,148.775L5.473,148.8L5.541,148.75L5.61,148.675L5.678,148.638L5.815,148.6L5.884,148.463L5.952,148.55L6.02,148.513L6.089,148.488L6.157,148.5L6.226,148.525L6.294,148.525L6.431,148.563L6.5,148.575L6.568,148.588L6.636,148.638L6.705,148.65L6.773,148.613L6.842,148.6L6.91,148.5L6.979,148.538L7.047,148.513L7.116,148.5L7.184,148.488L7.252,148.475L7.321,148.425L7.458,148.438L7.526,148.5L7.595,148.388L7.663,148.338L7.732,148.325L7.8,148.338L7.868,148.338L7.937,148.4L8.005,148.45L8.074,148.588L8.142,148.575L8.211,148.613L8.348,148.613L8.416,148.613L8.484,148.613L8.553,148.538L8.621,148.513L8.69,148.463L8.827,148.425L8.895,148.425L8.964,148.413L9.032,148.475L9.169,148.488L9.237,148.55L9.306,148.525L9.374,148.55L9.443,148.55L9.511,148.6L9.58,148.6L9.648,148.613L9.717,148.638L9.785,148.625L9.853,148.725L9.922,148.813L9.99,148.85L10.059,148.85L10.127,148.925L10.196,148.825L10.264,148.8L10.333,148.788L10.401,148.788L10.469,148.763L10.538,148.75L10.606,148.738L10.743,148.725L10.812,148.775L10.88,148.763L10.949,148.813L11.017,148.85L11.085,148.862L11.154,148.775L11.222,148.775L11.291,148.8L11.359,148.838L11.428,148.875L11.496,148.875L11.633,148.925L11.701,148.9L11.77,148.85L11.838,148.875L11.907,148.862L11.975,148.9L12.112,148.9L12.181,148.913L12.386,148.925L12.523,148.963L12.591,148.975L12.66,149.075L12.797,149.05L12.865,149.05L12.933,149L13.002,149.025L13.07,149.05L13.139,149.063L13.207,149.075L13.413,149.1L13.55,149.113L13.618,149.088L13.755,149.05L13.823,149.013L13.96,149.1L14.166,149.025L14.234,149.013L14.302,148.987L14.371,148.95L14.576,148.95L14.645,148.925L14.713,148.875L14.782,148.888L14.85,148.825L14.918,148.763L15.055,148.588L15.124,148.563L15.261,148.513L15.329,148.488L15.74,148.475L15.877,148.45L16.082,148.45L16.15,148.425L16.219,148.4L16.287,148.4L16.493,148.4L16.561,148.375L16.835,148.35L16.903,148.338L17.109,148.338L17.177,148.338L17.246,148.363L17.383,148.388L17.451,148.363L17.519,148.363L17.588,148.425L17.656,148.413L17.725,148.388L17.793,148.338L17.999,148.35L18.067,148.388L18.135,148.488L18.204,148.55L18.272,148.563L18.341,148.563L18.409,148.675L18.478,148.713L18.546,148.725L18.751,148.75L18.888,148.713L18.957,148.725L19.025,148.7L19.094,148.763L19.162,148.838L19.231,148.9L19.367,148.9L19.436,148.9L19.504,148.913L19.573,148.925L19.641,148.913L19.778,148.938L19.847,148.913L19.915,148.925L19.983,149L20.326,149L20.394,149L20.463,149.025L20.531,149.063L20.599,149.138L20.668,149.113L20.736,149.113L20.805,149.05L20.873,149.05L20.942,149.113L21.079,149.175L21.215,149.238L21.287,149.2L21.355,149.25L21.424,149.238L21.492,149.275L21.629,149.25L21.697,149.275L21.834,149.263L21.903,149.263L21.971,149.25L22.382,149.213L22.45,149.238L22.519,149.238L22.656,149.238L22.724,149.213L22.793,149.213L22.998,149.175L23.066,149.163L23.135,149.15L23.203,149.163L23.272,149.1L23.34,149.05L23.409,149.038L23.546,149.05L23.614,149.063L23.751,149.025L23.888,149.05L24.093,149.05L24.162,149.05L24.23,149.063L24.298,149.063L24.435,149.075L24.709,149.075L24.778,149.088L24.846,149.1L25.051,149.113L25.257,149.1L25.325,149.05L25.667,148.975L25.736,148.95L25.873,148.975L26.01,148.987L26.078,149L26.283,149L26.489,149.025L26.694,149.025L26.762,149.063L26.831,149.013L26.899,149.013L26.968,149L27.036,149.075L27.105,149.113L27.173,149.138L27.242,149.138L27.31,149.075L27.379,149.1L27.447,149.1L27.515,149.088L27.584,149.088L27.995,149.088L28.063,149.063L28.131,149.063L28.2,149.05L28.268,149.025L28.337,148.987L28.405,149.013L28.474,149L28.542,149.05L28.679,149.113L28.884,149.1L28.953,149.113L29.021,149.1L29.09,149.088L29.158,149.025L29.295,148.975L29.363,148.975L29.432,148.975L29.5,149.038L29.637,149.05L29.706,149.063L29.843,149.05L29.908,149.063L30.114,149.013L30.182,149.013L30.319,149.05L30.456,149.025L30.593,149.05L30.73,149.05L30.798,149.038L31.003,149.038L31.072,149.063L31.346,149.075L31.619,149.038L31.688,149.063L31.756,149.075L31.825,149.038L31.893,149.063L31.962,148.987L32.098,149L32.167,149.038L32.304,149.025L32.372,149.013L32.441,149L32.509,149.063L32.578,149.125L32.646,149.113L32.783,149.138L32.851,149.113L32.92,149.113L32.988,149.1L33.057,149.013L33.125,148.95L33.194,149L33.262,148.938L33.33,148.963L33.399,149L33.467,149.013L33.536,149.013L33.673,148.987L33.741,148.975L33.81,148.925L33.878,148.938L33.946,148.987L34.015,148.987L34.152,148.975L34.22,149L34.289,148.975L34.357,149.075L34.426,149.013L34.563,149.013L34.768,149L34.836,148.975L34.905,148.95L34.973,148.938L35.042,148.938L35.11,148.925L35.179,148.9L35.315,148.888L35.384,148.838L35.452,148.85L35.589,148.938L35.726,149L35.795,148.925L35.863,148.95L35.931,148.95L36,148.888L36.068,148.838L36.137,148.838L36.274,148.862L36.342,148.862L36.547,148.9L36.616,148.875L36.684,148.763L36.753,148.688L36.821,148.725L36.89,148.738L36.958,148.688L37.027,148.675L37.095,148.713L37.163,148.725L37.232,148.738L37.3,148.788L37.369,148.838L37.437,148.85L37.643,148.813L37.711,148.838L37.779,148.838L37.985,148.862L38.053,148.888L38.122,148.813L38.19,148.825L38.464,148.713L38.532,148.775L38.601,148.788L38.669,148.788L38.738,148.8L38.806,148.838L38.875,148.825L38.943,148.763L39.08,148.775L39.148,148.763L39.217,148.763L39.285,148.838L39.354,148.875L39.422,148.875L39.491,148.8L39.559,148.788L39.628,148.8L39.696,148.775L39.764,148.6L39.833,148.55L39.901,148.488L39.97,148.425L40.107,148.4L40.175,148.263L40.244,148.25L40.312,148.275L40.38,148.263L40.449,148.263L40.517,148.313L40.654,148.263L40.791,148.338L40.928,148.338L41.065,148.313L41.133,148.263L41.202,148.275L41.27,148.288L41.339,148.3L41.407,148.25L41.476,148.163L41.544,147.888L41.612,147.85L41.681,147.888L41.749,147.875L41.886,147.875L41.955,147.925L42.023,147.9L42.092,147.9L42.16,147.95L42.228,148.1L42.297,148.163L42.365,148.113L42.434,148.113L42.502,148.1L42.571,148.237L42.708,148.25L42.776,148.2L42.845,148.213L42.913,148.213L42.981,148.213L43.05,148.25L43.118,148.25L43.187,148.163L43.255,148.15L43.324,148.163L43.461,148.188L43.529,148.188L43.597,148.175L43.666,148.25L43.734,148.338L43.803,148.625L43.871,148.688L43.94,148.675L44.008,148.713L44.077,148.7L44.145,148.688L44.213,148.788L44.282,148.788L44.35,148.775L44.487,148.8L44.556,148.8L44.624,148.913L44.693,148.95L44.761,148.987L44.829,149L44.898,149L44.966,149.05L45.035,149.05L45.103,149.075L45.172,149.063L45.24,149.063L45.377,149.088L45.445,149.138L45.514,149.2L45.582,149.25L45.719,149.238L45.788,149.238L45.856,149.188L45.925,149.213L45.993,149.188L46.061,149.175L46.13,149.175L46.27,149.175L46.338,149.188L46.407,149.2L46.612,149.238L46.68,149.225L46.749,149.225L46.817,149.225L46.954,149.225L47.091,149.225L47.159,149.213L47.228,149.213L47.296,149.213L47.365,149.238L47.502,149.225L47.57,149.175L47.639,149.163L47.707,149.1L47.775,149.125L47.981,149.088L48.118,149.088L48.186,149.1L48.323,149.1L48.392,149.088L48.528,149.113L48.597,149.113L48.802,149.188L48.939,149.2L49.144,149.2L49.213,149.213L49.281,149.213L49.35,149.225L49.487,149.2L49.624,149.2L49.692,149.163L49.829,149.175L50.103,149.175L50.171,149.188L50.376,149.138L50.513,149.075L50.582,149.088L50.856,149.075L50.924,149.075L50.992,149.025L51.061,149.038L51.198,149.075L51.266,149.038L51.335,149.038L51.403,149.05L51.472,149.1L51.745,149.113L51.882,149.063L52.088,149.063L52.225,148.975L52.43,148.9L52.498,148.9L52.567,148.838L52.635,148.85L52.704,148.862L52.841,148.875L52.909,148.862L53.046,148.862L53.114,148.888L53.183,148.888L53.525,148.913L53.593,148.913L53.799,148.838L53.867,148.788L53.936,148.825L54.004,148.888L54.073,148.888L54.346,148.8L54.415,148.75L54.483,148.763L54.552,148.725L54.757,148.7L54.823,148.738L55.165,148.788L55.233,148.75L55.302,148.725L55.37,148.675L55.507,148.688L55.576,148.663L55.644,148.763L55.712,148.838L55.849,148.813L55.918,148.862L55.986,148.862L56.123,148.85L56.465,148.838L56.534,148.838L56.602,148.825L56.671,148.7L56.739,148.7L56.808,148.675L56.876,148.688L56.944,148.65L57.013,148.675L57.081,148.688L57.218,148.688L57.287,148.625L57.355,148.725L57.424,148.763L57.492,148.688L57.697,148.688L57.766,148.588L57.903,148.575L57.971,148.538L58.245,148.563L58.313,148.588L58.382,148.625L58.45,148.638L58.519,148.638L58.656,148.638L58.724,148.613L58.792,148.6L58.861,148.6L58.929,148.588L59.272,148.538L59.545,148.513L59.614,148.513L59.682,148.513L59.819,148.638L59.888,148.613L59.956,148.638L60.093,148.613L60.161,148.713L60.367,148.713L60.435,148.7L60.504,148.688L60.572,148.75L60.641,148.763L60.777,148.775L60.846,148.888L60.914,148.725L60.983,148.688L61.051,148.725L61.12,148.738L61.188,148.738L61.257,148.7L61.325,148.65L61.462,148.713L61.599,148.713L61.667,148.713L61.736,148.713L61.804,148.738L61.941,148.738L62.078,148.588L62.146,148.638L62.215,148.65L62.283,148.613L62.557,148.575L62.625,148.538L62.899,148.538L62.968,148.513L63.036,148.413L63.105,148.425L63.173,148.45L63.242,148.438L63.31,148.425L63.447,148.4L63.515,148.388L63.584,148.363L63.652,148.363L63.721,148.563L63.858,148.713L64.2,148.713L64.337,148.713L64.405,148.713L64.474,148.725L64.542,148.788L64.679,148.788L64.747,148.813L64.816,148.8L64.884,148.825L65.021,148.838L65.09,148.85L65.158,149.013L65.295,148.925L65.432,148.925L65.5,148.938L65.569,148.938L65.637,148.95L65.774,148.788L65.842,148.788L65.911,148.838L65.979,148.813L66.048,148.813L66.116,148.825L66.185,148.85L66.253,148.875L66.322,148.775L66.39,148.713L66.458,148.675L66.527,148.538L66.595,148.55L66.664,148.525L66.732,148.563L66.801,148.413L66.869,148.413L66.938,148.375L67.006,148.375L67.074,148.375L67.143,148.388L67.211,148.338L67.348,148.338L67.554,148.288L67.691,148.275L67.759,148.388L67.827,148.35L67.896,148.388L67.964,148.3L68.033,148.3L68.101,148.475L68.17,148.488L68.238,148.475L68.307,148.438L68.375,148.425L68.443,148.425L68.512,148.413L68.58,148.363L68.649,148.488L68.717,148.55L68.854,148.538L68.923,148.663L68.991,148.675L69.059,148.688L69.128,148.675L69.333,148.738L69.47,148.713L69.607,148.75L69.675,148.75L69.744,148.75L69.812,148.738L69.949,148.738L70.018,148.738L70.086,148.775L70.223,148.763L70.291,148.738L70.36,148.8L70.428,148.75L70.565,148.838L70.634,148.862L70.702,148.862L70.771,148.875L70.839,148.875L71.044,148.888L71.116,148.9L71.253,148.913L71.321,148.925L71.389,148.975L71.458,148.975L71.526,149L71.595,149L71.732,149.013L71.869,149.013L71.937,149.013L72.005,148.975L72.074,149.013L72.142,148.963L72.211,148.9L72.348,148.838L72.485,148.775L72.553,148.788L72.621,148.813L72.69,148.763L72.758,148.725L72.895,148.725L73.032,148.75L73.101,148.75L73.169,148.8L73.238,148.838L73.306,148.838L73.374,148.813L73.511,148.8L73.58,148.888L73.648,148.9L73.717,148.888L73.854,148.875L73.922,148.862L73.99,148.85L74.127,148.788L74.333,148.763L74.401,148.788L74.47,148.775L74.538,148.775L74.606,148.788L74.675,148.813L74.812,148.875L74.88,148.95L74.949,149.013L75.017,149.075L75.086,149.138L75.154,149.138L75.222,149.163L75.359,149.213L75.428,149.263L75.633,149.288L75.702,149.288L75.77,149.275L75.907,149.275L75.975,149.25L76.044,149.25L76.523,149.25L76.591,149.25L76.865,149.25L77.002,149.275L77.07,149.125L77.139,149.138L77.207,149.125L77.344,149.138L77.413,149.188L77.481,149.213L77.687,149.238L77.755,149.213L77.96,149.213L78.029,149.188L78.097,149.188L78.166,149.113L78.234,149.125L78.303,149.113L78.371,149.013L78.439,148.987L78.508,148.963L78.645,148.925L78.713,148.862L78.85,148.825L78.987,148.8L79.124,148.763L79.192,148.75L79.329,148.713L79.466,148.725L79.535,148.713L79.603,148.738L79.874,148.763L79.942,148.738L80.011,148.738L80.079,148.862L80.148,148.862L80.285,148.85L80.353,148.85L80.422,148.7L80.49,148.663L80.558,148.525L80.627,148.488L80.695,148.325L80.764,148.275L80.832,148.275L80.901,148.338L80.969,148.213L81.038,148.05L81.106,147.975L81.174,147.875L81.243,147.888L81.311,147.788L81.38,147.85L81.517,147.875L81.585,147.838L81.654,147.8L81.79,147.775L81.859,147.575L81.927,147.463L81.996,147.425L82.133,147.388L82.201,147.263L82.27,147.275L82.338,147.175L82.406,146.737L82.543,146.688L82.612,146.4L82.68,146.375L82.749,146.438L82.817,146.363L82.954,146.475L83.022,146.475L83.091,146.488L83.296,146.513L83.433,146.488L83.57,146.425L83.638,146.338L83.707,146.238L83.775,146.35L83.844,146.388L83.912,146.163L84.049,146.263L84.118,146.138L84.186,146.038L84.255,145.987L84.323,145.913L84.391,145.925L84.46,145.975L84.528,146L84.597,145.825L84.665,145.875L84.734,145.963L84.802,145.925L84.871,146L84.939,146.325L85.007,146.338L85.076,146.65L85.281,146.613L85.35,146.7L85.418,146.7L85.487,146.663L85.555,146.713L85.623,146.838L85.692,146.838L85.76,146.888L85.829,146.925L85.897,147.088L85.966,147.325L86.034,147.375L86.103,147.463L86.171,147.663L86.239,147.675L86.308,147.775L86.376,147.738L86.445,147.788L86.719,147.888L86.787,147.838L86.855,147.988L86.924,148.088L86.992,148.288L87.061,148.288L87.129,148.2L87.198,148.163L87.335,148.175L87.403,148.263L87.471,148.213L87.54,148.15L87.814,148.213L87.882,148.2L87.951,148.213L88.019,148.175L88.087,148.063L88.156,148.038L88.224,148.088L88.293,148.063L88.361,148.088L88.43,147.913L88.567,147.763L88.635,147.7L88.772,147.612L88.84,147.65L88.909,147.65L88.977,147.638L89.046,147.688L89.114,147.612L89.183,147.513L89.251,147.487L89.32,147.425L89.388,147.225L89.456,147.088L89.525,147.063L89.593,147.113L89.662,147.138L89.73,147.063L89.799,146.975L89.867,147L89.936,146.862L90.004,146.475L90.072,146.1L90.141,146.038L90.209,145.838L90.278,145.738L90.346,145.663L90.415,145.525L90.483,145.325L90.552,145.15L90.62,145.263L90.688,145.375L90.757,145.325L90.825,145.3L90.894,145.15L90.962,145L91.031,144.95L91.099,145.038L91.168,145.113L91.236,145.188L91.304,145.15L91.441,145.175L91.51,145.338L91.578,145.175L91.647,144.963L91.715,144.988L91.784,144.875L91.92,144.675L91.989,144.675L92.057,144.588L92.126,144.612L92.194,144.95L92.263,145.275L92.331,145.213L92.4,145.213L92.468,145.05L92.537,144.588L92.605,144.525L92.673,144.3L92.742,144.225L92.81,144.188L92.879,143.975L92.947,144.075L93.016,144L93.084,143.963L93.153,143.688L93.221,143.3L93.289,143.275L93.358,142.963L93.426,143.038L93.495,143.188L93.563,143.175L93.632,142.813L93.7,142.638L93.769,142.7L93.905,142.7L93.974,142.763L94.042,142.988L94.111,142.963L94.179,142.938L94.316,143.1L94.385,143.038L94.453,143.05L94.521,143.15L94.59,143.288L94.658,143.388L94.727,143.963L94.864,144.138L94.932,144.463L95.001,144.475L95.069,144.338L95.137,144.625L95.206,144.425L95.274,144.338L95.343,144.175L95.411,144.55L95.48,144.763L95.548,144.138L95.617,144.45L95.753,144.45L95.822,144.288L95.89,144.238L95.959,144.363L96.03,144.575L96.099,144.288L96.167,143.663L96.235,143.763L96.304,143.738L96.372,143.588L96.578,143.438L96.646,143.388L96.715,143.5L96.783,143.325L96.851,143.288L96.92,143.438L97.057,143.513L97.125,143.237L97.194,142.888L97.262,142.763L97.331,142.613L97.399,142.6L97.467,142.15L97.536,142.088L97.604,142.15L97.673,142.113L97.741,141.638L97.81,141.6L97.878,141.7L97.947,140.888L98.015,140.063L98.084,140.2L98.152,140.325L98.22,139.988L98.289,140.2L98.357,140.463L98.426,140.838L98.494,140.35L98.563,140.075L98.631,140.175L98.7,140.163L98.768,140.125L98.836,140.025L98.905,139.975L98.973,140.075L99.042,139.713L99.11,139.888L99.179,139.975L99.247,139.963L99.316,140.013L99.384,140.025L99.452,139.938L99.521,139.95L99.589,140.063L99.658,139.738L99.726,140.013L99.795,140.463L99.932,140.463L100,140.863L100.068,141.2L100.137,142.013L100.205,141.713L100.274,141.363L100.342,141.85L100.411,141.688L100.479,141.888L100.548,141.688L100.616,141.8L100.684,142.138L100.753,142.325L100.821,142.013L100.89,142.125L100.958,141.713L101.027,141.525L101.095,141.163L101.164,141.15L101.232,141.15L101.3,140.85L101.369,140.875L101.437,140.813L101.506,140.963L101.574,141.15L101.643,141.375L101.711,141.413L101.78,141.95L101.848,142.063L101.916,142.038L101.985,142.013L102.053,141.675L102.122,142.063L102.19,141.975L102.259,142.05L102.327,142.063L102.396,142.013L102.533,141.988L102.601,141.763L102.669,142.038L102.738,142.275L102.806,142.188L102.875,142.113L102.943,142.588L103.012,142.25L103.08,142.588L103.149,142.888L103.217,143.288L103.285,143.55L103.354,143.6L103.422,144.088L103.491,144.363L103.559,144.588L103.628,144.813L103.696,144.975L103.765,145.163L103.833,145.25L103.901,145.15L103.97,145.125L104.038,145.05L104.107,145.35L104.175,145.775L104.244,145.888L104.312,145.463L104.381,145.563L104.449,145.8L104.517,145.888L104.586,146.025L104.651,146.163L104.72,146.3L104.788,146.388L104.857,146.25L104.925,146.288L104.994,146.438L105.062,146.763L105.131,146.763L105.199,146.862L105.268,146.825L105.336,146.65L105.404,146.638L105.473,146.525L105.541,146.575L105.61,146.6L105.678,146.325L105.747,146.363L105.815,146.388L105.884,146.438L106.157,146.5L106.226,146.513L106.294,146.513L106.431,146.475L106.5,146.45L106.568,146.438L106.636,146.813L106.705,146.725L106.773,146.737L106.842,146.6L106.91,146.525L106.979,146.488L107.116,146.488L107.184,146.525L107.252,146.675L107.321,146.7L107.458,146.65L107.526,146.475L107.595,146.475L107.663,146.213L107.732,146.163L107.8,146.288L107.868,146.025L107.937,146.088L108.005,145.987L108.074,145.65L108.142,145.425L108.211,144.788L108.279,144.513L108.348,144.338L108.416,144.138L108.484,144.063L108.553,144.25L108.621,144.225L108.69,143.888L108.758,143.738L108.827,143.688L108.964,143.913L109.032,143.888L109.101,144.013L109.169,144L109.237,143.987L109.306,143.825L109.374,143.713L109.443,143.75L109.511,143.425L109.58,143.438L109.648,143.513L109.717,143.575L109.853,143.75L109.922,143.625L109.99,143.425L110.059,143.525L110.196,143.513L110.264,143.35L110.333,143.288L110.401,143.55L110.469,143.963L110.538,143.8L110.606,143.963L110.675,144.113L110.743,144.175L110.812,144.05L110.88,143.963L110.949,144.363L111.017,144.438L111.085,144.638L111.154,144.638L111.222,144.538L111.291,144.6L111.359,144.55L111.428,144.375L111.496,143.763L111.565,143.713L111.633,143.725L111.701,143.987L111.77,143.9L111.838,143.913L111.907,143.85L111.975,143.938L112.044,144.013L112.112,144.25L112.181,144.413L112.249,144.375L112.317,144.6L112.386,144.9L112.454,145.113L112.523,145.288L112.591,145.7L112.66,145.625L112.728,145.638L112.797,145.663L112.865,145.65L112.933,145.688L113.002,145.7L113.07,145.713L113.139,145.525L113.207,145.413L113.276,145.338L113.344,145.25L113.413,145.413L113.481,145.675L113.55,146.413L113.618,146.575L113.686,146.375L113.755,146.163L113.823,146.1L113.892,145.7L113.96,145.538L114.029,145.55L114.097,145.575L114.166,145.463L114.234,145.325L114.302,144.638L114.371,144.6L114.439,144.538L114.508,144.55L114.576,144.275L114.645,144.038L114.713,143.825L114.782,143.875L114.85,143.7L114.918,143.6L114.987,143.663L115.055,143.5L115.124,143.213L115.192,143.3L115.261,143.1L115.329,143.388L115.398,142.888L115.466,142.362L115.534,141.8L115.603,141.463L115.671,141.013L115.74,141.05L115.808,140.738L115.877,140.25L115.945,139.963L116.014,139.525L116.082,138.975L116.15,138.775L116.219,138.338L116.287,137.988L116.356,138.375L116.424,138.138L116.493,137.638L116.561,137.413L116.63,137.738L116.698,137.775L116.766,137.913L116.835,137.475L116.903,136.725L116.972,136.138L117.04,135.538L117.109,135.05L117.177,135.05L117.246,134.45L117.314,133.563L117.383,132.738L117.451,132.463L117.519,133.088L117.588,133.638L117.656,133.475L117.725,133.288L117.793,132.688L117.862,132.038L117.93,132.163L117.999,132.487L118.067,133.175L118.135,133.688L118.204,133.888L118.272,133.725L118.341,133.25L118.409,133.663L118.478,133.313L118.546,133.813L118.615,134.05L118.683,133.9L118.751,133.413L118.82,133.175L118.888,133.563L118.957,134.063L119.025,134.025L119.094,133.6L119.162,133.263L119.231,132.788L119.299,132.513L119.367,132.925L119.436,133.275L119.504,134.063L119.573,133.913L119.641,132.763L119.71,133.088L119.847,133.288L119.915,133.513L119.983,134.313L120.052,133.963L120.12,134.013L120.189,133.063L120.257,132.713L120.326,132.7L120.394,133.05L120.463,133.238L120.531,133.163L120.599,133.263L120.668,132.675L120.736,131.463L120.805,131.613L120.873,131.9L120.945,131.725L121.013,131.275L121.081,131.35L121.15,131.963L121.218,131.75L121.287,132.1L121.355,132.163L121.424,133L121.492,133.2L121.629,132.925L121.697,132.987L121.766,131.737L121.834,132.863L121.903,132.25L121.971,132.613L122.04,133.025L122.108,132.688L122.177,131.988L122.245,132.35L122.313,132.963L122.382,132.425L122.45,131.938L122.519,132.275L122.587,132.95L122.656,131.775L122.724,131.113L122.793,130.987L122.861,131.3L122.93,130.063L122.998,129.35L123.066,129.262L123.135,128.85L123.203,129.163L123.272,128.775L123.34,129.288L123.409,129.038L123.477,128.95L123.546,128.375L123.614,127.1L123.682,126.188L123.751,125.013L123.819,125.613L123.888,124.65L123.956,124.9L124.025,124.963L124.093,123.663L124.162,122.363L124.23,122.1L124.298,120.488L124.367,120.488L124.435,120.325L124.504,119.95L124.572,117.338L124.641,115.8L124.709,115.925L124.778,117.013L124.846,117.2L124.914,117.7L124.983,118.55L125.051,118.413L125.12,118.613L125.188,119.463L125.257,118.688L125.325,118.813L125.394,118.913L125.462,119.363L125.53,119.85L125.599,120.375L125.667,121.55L125.736,122.313L125.804,122L125.873,122.5L125.941,123.137L126.01,121.913L126.078,119.725L126.146,121.163L126.215,122.488L126.283,123.263L126.352,123.3L126.42,121.3L126.489,121.863L126.557,122.75L126.626,124.512L126.694,125.188L126.762,125.025L126.831,123.875L126.899,122.95L126.968,120.625L127.036,118.15L127.105,118.163L127.31,117.55L127.379,116.738L127.447,116.775L127.515,115.825L127.652,114.188L127.789,113.863L127.858,112.825L127.926,112.225L127.995,112.3L128.063,112.175L128.2,111.413L128.268,109.188L128.474,108.325L128.542,108.762L128.611,110.263L128.679,110.213L128.747,108.375L128.816,109.488L128.884,109.588L128.953,109.087L129.021,109.313L129.09,109.35L129.158,109.9L129.227,109.275L129.295,109.4L129.363,110.288L129.432,111.5L129.5,113.525L129.569,115.95L129.637,116.738L129.706,117.163L129.774,118.025L129.843,118.375L129.911,119.638L129.979,121.975L130.045,122.263L130.114,122.2L130.182,122L130.319,122.1L130.387,122.638L130.456,124.9L130.524,127.325L130.593,128.137L130.73,128.788L130.798,129.262L130.866,129L130.935,131.063L131.003,130.525L131.072,131.638L131.14,134.463L131.209,133.588L131.277,131.713L131.346,131.663L131.414,132.613L131.482,133.75L131.551,133.425L131.619,133.163L131.688,133.313L131.756,133.013L131.825,132.775L131.962,132.525L132.03,131.675L132.098,130.588L132.167,129.963L132.235,129.238L132.304,128.525L132.372,129.663L132.441,130.088L132.509,130.15L132.578,129.788L132.646,129.038L132.714,128.588L132.783,128.325L132.851,128.488L132.92,127.413L132.988,127.562L133.057,127.413L133.125,127.263L133.194,127.663L133.262,123.913L133.33,123.825L133.399,124.7L133.467,125.188L133.536,125.375L133.604,123.913L133.673,123.9L133.741,123.875L133.81,124.263L133.878,124.813L133.946,124.25L134.015,123.525L134.083,123.05L134.152,123.075L134.22,123.563L134.289,123.312L134.357,123.312L134.426,121.762L134.494,121L134.563,120.375L134.631,119.95L134.699,120.288L134.768,120.375L134.836,119.725L134.905,118.575L134.973,118.575L135.042,117.813L135.11,117.125L135.179,117.463L135.315,116.888L135.384,120.55L135.452,121.688L135.521,122.6L135.589,122.625L135.658,122.6L135.726,123.3L135.795,123.625L135.863,123.925L135.931,123.988L136,123.85L136.068,124.738L136.137,126.075L136.205,127.288L136.274,128.75L136.342,128.75L136.411,128.762L136.479,129.425L136.547,131.05L136.616,131.675L136.684,132.05L136.753,133.175L136.821,133.313L136.89,132.663L136.958,133.25L137.027,134.2L137.095,134.95L137.163,135.413L137.232,136.3L137.3,136.35L137.369,136.838L137.437,136.338L137.506,135.9L137.574,135.625L137.643,134.388L137.711,134.2L137.779,134.188L137.848,134.25L137.916,134.1L137.985,133.913L138.053,134.063L138.122,133.813L138.19,133.763L138.259,133.525L138.327,132.975L138.396,132.963L138.464,133.713L138.532,133.738L138.601,133.25L138.669,133.463L138.738,133.988L138.806,133.238L138.875,133L138.943,133.1L139.012,133.888L139.08,134.575L139.148,134.063L139.217,134.038L139.285,133.775L139.354,133.825L139.422,133.125L139.491,133.5L139.559,133.525L139.628,132.95L139.696,134.088L139.764,134.263L139.833,133.538L139.901,133.35L139.97,133.425L140.038,132.713L140.107,132.325L140.175,132.613L140.244,132.825L140.312,132.313L140.38,131.487L140.449,130.825L140.517,130.387L140.586,129.95L140.654,130.188L140.723,130.387L140.791,130.475L140.86,130.387L140.928,129.975L140.996,130.363L141.065,129.988L141.133,129.5L141.202,130.313L141.27,129.7L141.339,128.4L141.407,126.863L141.476,126.35L141.544,126.35L141.612,126.05L141.681,126.875L141.749,125.963L141.818,125.013L141.886,125.538L141.955,126.113L142.023,126.337L142.092,126.475L142.16,125.85L142.228,124.563L142.297,123.063L142.365,123.875L142.434,124.55L142.502,125.05L142.571,125.3L142.639,125.388L142.708,124.925L142.776,124.275L142.845,121.85L142.913,121.138L142.981,120.538L143.05,119L143.118,117.775L143.187,116.35L143.255,114.713L143.324,114.375L143.392,116.138L143.461,117.863L143.529,118.113L143.597,116.225L143.666,116.313L143.734,116.125L143.803,115.65L143.871,116.488L143.94,116.488L144.008,115.712L144.077,114.713L144.145,114.825L144.213,115.55L144.282,116.163L144.35,117.3L144.419,116.588L144.487,116.1L144.556,115.338L144.624,115.238L144.693,115.563L144.761,115.5L144.829,114.925L144.898,116.062L144.966,116.663L145.035,117.05L145.103,117.613L145.172,116.513L145.24,116.588L145.309,117.425L145.377,117.625L145.445,116.163L145.514,115.338L145.582,114.687L145.651,114.113L145.719,112.05L145.788,110.55L145.856,109.675L145.925,108.775L145.993,108.863L146.061,108.9L146.13,109L146.198,108.475L146.267,108.538L146.338,109.15L146.407,109.05L146.475,108.812L146.543,108.75L146.612,110.038L146.68,109.263L146.749,108.863L146.817,109.387L146.886,110.325L146.954,111.1L147.023,111.238L147.091,112.4L147.159,112.6L147.228,114.075L147.296,115.15L147.365,115.5L147.433,116.225L147.502,117.925L147.57,118.65L147.639,119.525L147.707,121.075L147.775,122.138L147.844,123.463L147.912,124.6L147.981,125.188L148.049,125.313L148.118,124.738L148.186,125.663L148.255,126.088L148.323,126.25L148.392,125.325L148.46,125.9L148.528,126.3L148.597,126.937L148.665,126.275L148.734,126.937L148.802,127.288L148.871,126.988L148.939,127.15L149.008,127.25L149.076,127.075L149.144,126.337L149.213,127.363L149.281,127.837L149.35,127.65L149.418,127.738L149.487,127.588L149.555,126.075L149.624,125.488L149.692,125.65L149.76,126.663L149.897,127.85L149.966,128.025L150.103,128.275L150.171,128.775L150.24,129.563L150.308,129.925L150.376,129.163L150.445,128.975L150.513,128.5L150.582,129.025L150.65,128.112L150.719,127.2L150.787,127.825L150.856,127.538L150.924,126.825L150.992,126.438L151.061,126.762L151.129,126.988L151.198,126.813L151.266,126.525L151.335,126.1L151.403,126.438L151.472,126.438L151.54,126.613L151.608,127.175L151.677,126.575L151.745,127.2L151.814,126.65L151.882,126.713L152.019,125.925L152.088,125.738L152.156,125.087L152.225,124.65L152.293,124.888L152.43,124.625L152.498,124.963L152.635,125.475L152.704,125.425L152.772,125.663L152.841,125.388L152.909,125.625L152.977,126.625L153.046,126.637L153.114,126.5L153.183,127.575L153.251,127.438L153.32,127.125L153.388,126.35L153.457,126.3L153.525,126.95L153.593,127.512L153.662,126.825L153.73,126.713L153.799,125.938L153.867,125.075L153.936,126.113L154.004,126.438L154.073,125.563L154.141,126.063L154.209,125.688L154.278,125.363L154.346,125.038L154.415,125.025L154.483,123.788L154.552,122.738L154.689,122.238L154.757,121.163L154.894,121.812L154.96,120.85L155.028,120.863L155.096,120.463L155.165,120.025L155.233,119.513L155.302,119.8L155.37,119.175L155.439,118.875L155.507,118.65L155.576,118.488L155.712,118.475L155.781,119.075L155.849,118.963L155.918,118.663L155.986,118.288L156.055,118.95L156.123,119.113L156.192,119.363L156.26,118.875L156.328,120.85L156.397,120.25L156.465,121.15L156.671,122.288L156.739,122.688L156.808,123.063L156.876,123.55L156.944,123.625L157.013,124.275L157.081,125.5L157.15,125.813L157.218,126.3L157.287,127.212L157.355,127.588L157.424,127.063L157.492,126.95L157.56,127.125L157.629,127.038L157.697,127.488L157.766,127.188L157.834,127.188L157.903,126.288L157.971,124.337L158.04,124.663L158.108,125.05L158.176,124.938L158.245,124.813L158.313,124.85L158.382,124.225L158.45,124.775L158.519,124.288L158.587,124.637L158.656,124.775L158.724,124.325L158.792,124.688L158.861,125.425L158.929,125.813L158.998,125.488L159.066,124.75L159.135,124.675L159.203,123.388L159.272,123.513L159.34,122.813L159.409,122.738L159.477,123.325L159.545,123.163L159.614,122.763L159.682,121.65L159.751,121.55L159.819,122.638L159.888,122.962L159.956,123.425L160.025,124.413L160.093,124.062L160.161,124L160.23,124.563L160.298,124.838L160.367,124.538L160.435,125.038L160.504,125.588L160.572,126.213L160.641,126.263L160.709,126.375L160.777,126.2L160.846,126.175L160.914,125.788L160.983,126.175L161.051,126.788L161.12,127.35L161.188,127.288L161.257,127.975L161.325,128.275L161.393,128.262L161.462,128.65L161.53,129.163L161.599,129.887L161.667,130.675L161.736,132.475L161.804,133.138L161.873,133.263L161.941,133.988L162.009,134.675L162.078,135.575L162.146,135.075L162.215,135L162.283,134.563L162.352,134.013L162.42,133.862L162.489,133.288L162.557,132.825L162.625,131.675L162.694,131.213L162.762,130.538L162.831,130.613L162.899,130.325L162.968,130.225L163.036,130.225L163.105,130.262L163.173,130.175L163.242,130.05L163.31,130.325L163.378,130.75L163.447,131.388L163.515,130.512L163.584,129.6L163.652,128.963L163.721,128.6L163.789,128.163L163.858,127.988L163.926,126.663L163.994,126.4L164.063,125.963L164.131,123.6L164.2,123.263L164.268,123.075L164.337,123.813L164.405,124.275L164.474,124.575L164.542,124.388L164.61,124.088L164.679,123.275L164.747,122.712L164.816,122.538L164.884,122.087L164.953,121.5L165.021,122.225L165.09,121.063L165.158,119.125L165.226,118.75L165.295,117.95L165.363,116.513L165.432,115.725L165.5,115.638L165.569,115.188L165.637,114.95L165.706,114.425L165.774,113.838L165.842,114.138L165.911,114.512L165.979,115.825L166.048,116.113L166.116,117.013L166.185,119.1L166.253,119.625L166.322,119.725L166.39,118.913L166.458,118.825L166.527,118.975L166.595,118.913L166.664,118.238L166.732,120.262L166.801,121.475L166.869,121.788L166.938,122.775L167.006,123.475L167.074,121.75L167.143,121.738L167.211,123.375L167.28,123.613L167.348,123.763L167.417,125.238L167.485,126.075L167.554,125.063L167.622,125.275L167.691,125.9L167.759,126.488L167.827,126.1L167.896,124.9L167.964,123.925L168.033,123.475L168.101,123.263L168.17,122.85L168.238,123.375L168.307,124.313L168.375,124.062L168.443,123.85L168.512,123.887L168.58,123.725L168.649,123.863L168.717,124.788L168.786,123.513L168.854,122.913L168.991,122.538L169.059,121.313L169.128,121.15L169.196,121.688L169.265,121.975L169.333,122.313L169.402,121.138L169.47,122.138L169.539,121.875L169.607,121.388L169.675,121.175L169.744,121.587L169.812,121.587L169.881,120.713L169.949,121.2L170.018,121.425L170.086,122.05L170.155,120.8L170.223,118.838L170.291,116.313L170.428,114.7L170.497,113.863L170.565,112.413L170.634,113.538L170.702,112.837L170.771,112.575L170.839,113.063L170.907,111.988L170.976,111.225L171.044,111.8L171.113,109.9L171.181,108.238L171.253,108.587L171.321,106.638L171.389,105.4L171.458,105.462L171.526,107.463L171.595,105.538L171.663,104.338L171.732,102.762L171.8,103.85L171.869,103.575L171.937,103.2L172.005,102.525L172.074,101.95L172.142,101.7L172.211,101.688L172.279,103.325L172.348,105.238L172.416,107.325L172.485,106.738L172.553,105.338L172.621,106.1L172.69,104.875L172.758,104.837L172.827,102.663L172.895,102.963L172.964,103.275L173.032,104.963L173.101,103.763L173.169,105.212L173.238,106.263L173.374,105.2L173.443,106.65L173.511,107.388L173.58,107.65L173.648,106.788L173.717,108.462L173.785,109L173.854,109.175L173.99,108.263L174.059,107.913L174.127,109.112L174.196,109.263L174.264,109.588L174.333,110.213L174.47,110.788L174.538,108.413L174.606,108.512L174.675,108L174.743,106.875L174.812,107.663L174.88,107.887L175.017,107.275L175.086,108.85L175.154,110.45L175.222,108.488L175.291,109.087L175.359,108.063L175.428,108.138L175.496,107.85L175.565,108.35L175.633,107.05L175.702,107.513L175.77,106.513L175.838,105.15L175.907,103.9L175.975,102.275L176.044,100.513L176.112,100.875L176.181,100.75L176.249,101.788L176.318,99.475L176.386,99.575L176.454,96.9L176.523,95.925L176.591,94.113L176.66,96.538L176.728,93.425L176.797,92.175L176.865,93.863L176.934,93.525L177.002,95.063L177.07,95.8L177.139,95.413L177.207,92.538L177.276,92.15L177.344,90.838L177.413,87.975L177.481,87.087L177.55,85.175L177.618,82.7L177.687,82.688L177.755,82.713L177.823,82.875L177.892,84.775L177.96,84.65L178.029,83.1L178.097,82.762L178.166,82.575L178.234,81.738L178.303,78.875L178.371,76.063L178.439,75.075L178.508,76.788L178.576,73.538L178.645,75.275L178.713,73.863L178.782,74.438L178.85,74.438L178.919,72.675L178.987,72.788L179.055,72.05L179.124,73.338L179.192,71.025L179.261,73.288L179.329,73.613L179.398,71.312L179.466,70.925L179.535,67.938L179.603,68.238L179.671,68.463L179.74,69.738L179.808,68.588L179.874,68.913L180.011,65.988L180.079,66.75L180.148,68.225L180.216,71.363L180.285,72.163L180.353,71.688L180.422,72.087L180.49,74.875L180.558,75.6L180.627,72L180.695,73L180.764,69.663L180.832,66.637L180.901,64.888L180.969,65.063L181.038,65.763L181.106,65.238L181.174,62.85L181.243,58.675L181.311,60.675L181.38,59.7L181.448,60.463L181.517,60.412L181.585,59.625L181.654,60.625L181.722,61.25L181.79,63.638L181.859,63.475L181.927,62.75L181.996,61.937L182.064,59.988L182.133,56.925L182.201,55.75L182.27,53.137L182.338,49.938L182.406,48.925L182.475,50.375L182.543,51.5L182.612,52.1L182.68,57.212L182.749,56.375L182.817,57.663L182.886,60.175L182.954,61.95L183.022,62.113L183.091,60.113L183.159,60.075L183.228,60.063L183.296,63.688L183.365,63.888L183.433,61.025L183.502,61.6L183.57,64.15L183.638,68.188L183.707,71.9L183.775,74.65L183.844,75.363L183.912,76.55L183.981,79.513L184.049,82.15L184.118,82.65L184.186,86.363L184.255,88.913L184.323,90.387L184.391,93.462L184.46,96.538L184.528,97.475L184.597,95.725L184.665,93.138L184.734,90.1L184.802,92.525L184.871,92.125L184.939,90.825L185.007,90.113L185.076,88.05L185.144,90.038L185.213,88.538L185.281,88.125L185.35,86.488L185.418,86.137L185.487,91.55L185.555,91.363L185.623,91.9L185.692,91.012L185.76,90.337L185.829,88.75L185.897,88.2L185.966,88.65L186.034,87.313L186.103,86.75L186.171,89L186.239,89.113L186.308,88.488L186.376,89.225L186.445,90.113L186.513,89.388L186.582,89.725L186.65,91.837L186.719,91.925L186.787,95.088L186.855,97.7L186.924,99.663L186.992,101.813L187.061,104.538L187.129,108.4L187.198,109.25L187.266,112.9L187.335,116.025L187.403,118.137L187.471,118.55L187.54,117.55L187.608,117.713L187.677,118.288L187.745,118.35L187.814,115.925L187.882,115.825L187.951,116.05L188.019,115.875L188.087,115.8L188.156,116.15L188.224,116.275L188.293,111.3L188.361,109.7L188.43,107.988L188.498,104.963L188.567,104.638L188.635,104.075L188.704,101.188L188.772,101.638L188.84,99.925L188.909,98.088L188.977,97.625L189.046,97.85L189.114,98.163L189.183,98.237L189.251,98.337L189.32,97.275L189.388,97.263L189.456,97.213L189.525,97.238L189.593,98.013L189.662,98.237L189.73,98.837L189.799,100.888L189.867,104.025L189.936,105.338L190.004,105.538L190.072,104.3L190.141,103.062L190.209,102.513L190.278,104.05L190.346,105.5L190.415,106.55L190.483,108.263L190.552,110.587L190.62,111.3L190.688,112.087L190.757,115.85L190.825,119.475L190.894,121.663L190.962,123.513L191.031,124.388L191.099,125.3L191.168,125.688L191.236,126.125L191.304,127.438L191.373,128.512L191.441,128.825L191.51,129.1L191.578,129.288L191.647,129.963L191.715,130.225L191.784,129.513L191.852,129.175L191.92,129.563L191.989,129.613L192.057,124.375L192.126,122.837L192.194,124.25L192.263,124.462L192.331,124.45L192.4,127.025L192.468,129.012L192.537,128.188L192.605,126.688L192.673,126.963L192.742,126.525L192.81,125.138L192.879,124.875L192.947,124.875L193.016,123.85L193.084,123.125L193.153,122.788L193.289,121.9L193.358,121.438L193.426,120.25L193.495,119.675L193.632,119.825L193.7,119.463L193.769,119.025L193.837,118.663L193.905,118.088L193.974,117.75L194.042,117.338L194.111,116.6L194.179,116.525L194.248,121.55L194.316,123.513L194.385,122.85L194.453,122.638L194.521,122.525L194.59,121.812L194.658,121.263L194.727,121.6L194.795,122.85L194.864,122.225L194.932,121.538L195.001,122.375L195.069,121.95L195.137,120.638L195.206,121.425L195.274,121.075L195.343,120.163L195.411,118.938L195.48,115.15L195.548,111.375L195.617,105.462L195.685,100.775L195.753,95.375L195.822,91.088L195.89,84.813L195.959,81.9L196.027,79.438L196.096,73.338L196.167,68.238L196.235,61.475L196.304,55.687L196.372,49.3L196.441,44.738L196.509,41.2L196.578,37.538L196.646,33.15L196.715,27.638L196.783,21.763L196.851,20.575L196.92,19.65L196.988,19.65L197.057,19.087L197.125,18.8L197.194,17.675L197.262,15.95L197.331,15.413L197.399,15.6L197.467,17.275L197.536,21.463L197.604,26.675L197.673,33.375L197.741,36.525L197.81,40.538L197.878,44.2L197.947,49.375L198.015,50.612L198.084,52.913L198.152,58.688L198.22,63.038L198.289,70.113L198.357,76.613L198.426,82.7L198.494,89.1L198.563,92.688L198.631,96.2L198.7,101.613L198.768,107.488L198.836,114.413L198.905,115.325L198.973,117.625L199.042,118.338L199.11,119.087L199.179,120.075L199.247,122.45L199.316,123.175L199.384,123.575L199.452,124.125L199.521,124.45L199.589,124.462L199.658,123.563L199.795,122.588L199.863,123.613L199.932,124.563L200,125.15L200.068,126.263L200.137,127.675L200.205,127.575L200.274,127.738L200.342,128.275L200.411,128.213L200.479,127.475L200.548,128.163L200.616,126.988L200.684,126.963L200.753,126.488L200.821,127.688L200.89,126.8L200.958,126.113L201.027,125.963L201.095,124.738L201.164,124.388L201.232,122.288L201.3,122.013L201.369,121.413L201.437,121.963L201.506,122.788L201.574,122.338L201.643,120.9L201.78,120.125L201.916,121.025L201.985,121.713L202.053,121.263L202.122,120.213L202.19,121.063L202.259,119.25" stroke="#4c78a8" stroke-width="2"/></g><g class="mark-group role-title"><g transform="translate(100,-22)"><path class="background" aria-hidden="true" d="M0,0h0v0h0Z" pointer-events="none"/><g><g class="mark-text role-title-text" role="graphics-symbol" aria-roledescription="title" aria-label="Title text 'Noise - Helicopter: Other'" pointer-events="none"><text text-anchor="middle" transform="translate(0,10)" font-family="sans-serif" font-size="13px" font-weight="bold" fill="#000" opacity="1">Noise - Helicopter: Other</text></g></g><path class="foreground" aria-hidden="true" d="" pointer-events="none" display="none"/></g></g></g><path class="foreground" aria-hidden="true" d="" display="none"/></g></g></g><defs><clipPath id="clip104"><rect x="0" y="0" width="200" height="150"/></clipPath></defs></svg>