<svg xmlns="http://www.w3.org/2000/svg" xmlns:xlink="http://www.w3.org/1999/xlink" version="1.1" class="marks" width="254" height="194" viewBox="0 0 254 194"><rect width="254" height="194" fill="white"/><g fill="none" stroke-miterlimit="10" transform="translate(29,22)"><g class="mark-group role-frame root" role="graphics-object" aria-roledescription="group mark container"><g transform="translate(0,0)"><path class="background" aria-hidden="true" d="M0,0h200v150h-200Z"/><g><g class="mark-group role-axis" aria-hidden="true"><g transform="translate(0.5,0.5)"><path class="background" aria-hidden="true" d="M0,0h0v0h0Z" pointer-events="none"/><g><g class="mark-rule role-axis-grid" pointer-events="none"><line transform="translate(0,150)" x2="200" y2="0" stroke="#ddd" stroke-width="1" opacity="1"/><line transform="translate(0,107)" x2="200" y2="0" stroke="#ddd" stroke-width="1" opacity="1"/><line transform="translate(0,64)" x2="200" y2="0" stroke="#ddd" stroke-width="1" opacity="1"/><line transform="translate(0,21)" x2="200" y2="0" stroke="#ddd" stroke-width="1" opacity="1"/></g></g><path class="foreground" aria-hidden="true" d="" pointer-events="none" display="none"/></g></g><g class="mark-group role-axis" role="graphics-symbol" aria-roledescription="axis" aria-label="X-axis for a time scale with values from Friday, 01 January 2016, 12:00:00 AM to Monday, 01 January 2024, 12:00:00 AM"><g transform="translate(0.5,150.5)"><path class="background" aria-hidden="true" d="M0,0h0v0h0Z" pointer-events="none"/><g><g class="mark-rule role-axis-tick" pointer-events="none"><line transform="translate(0,0)" x2="0" y2="5" stroke="#888" stroke-width="1" opacity="1"/><line transform="translate(50,0)" x2="0" y2="5" stroke="#888" stroke-width="1" opacity="1"/><line transform="translate(100,0)" x2="0" y2="5" stroke="#888" stroke-width="1" opacity="1"/><line transform="translate(150,0)" x2="0" y2="5" stroke="#888" stroke-width="1" opacity="1"/><line transform="translate(200,0)" x2="0" y2="5" stroke="#888" stroke-width="1" opacity="1"/></g><g class="mark-text role-axis-label" pointer-events="none"><text text-anchor="start" transform="translate(0,15)" font-family="sans-serif" font-size="10px" fill="#000" opacity="1">2016</text><text text-anchor="middle" transform="translate(50.03422313483915,15)" font-family="sans-serif" font-size="10px" fill="#000" opacity="1">2018</text><text text-anchor="middle" transform="translate(100,15)" font-family="sans-serif" font-size="10px" fill="#000" opacity="1">2020</text><text text-anchor="middle" transform="translate(150.03422313483915,15)" font-family="sans-serif" font-size="10px" fill="#000" opacity="1">2022</text><text text-anchor="end" transform="translate(200,15)" font-family="sans-serif" font-size="10px" fill="#000" opacity="1">2024</text></g><g class="mark-rule role-axis-domain" pointer-events="none"><line transform="translate(0,0)" x2="200" y2="0" stroke="#888" stroke-width="1" opacity="1"/></g></g><path class="foreground" aria-hidden="true" d="" pointer-events="none" display="none"/></g></g><g class="mark-group role-axis" role="graphics-symbol" aria-roledescription="axis" aria-label="Y-axis for a linear scale with values from 0 to 350"><g transform="translate(0.5,0.5)"><path class="background" aria-hidden="true" d="M0,0h0v0h0Z" pointer-events="none"/><g><g class="mark-rule role-axis-tick" pointer-events="none"><line transform="translate(0,150)" x2="-5" y2="0" stroke="#888" stroke-opacity="0" stroke-width="1" opacity="1"/><line transform="translate(0,107)" x2="-5" y2="0" stroke="#888" stroke-opacity="0" stroke-width="1" opacity="1"/><line transform="translate(0,64)" x2="-5" y2="0" stroke="#888" stroke-opacity="0" stroke-width="1" opacity="1"/><line transform="translate(0,21)" x2="-5" y2="0" stroke="#888" stroke-opacity="0" stroke-width="1" opacity="1"/></g><g class="mark-text role-axis-label" pointer-events="none"><text text-anchor="end" transform="translate(-7,153)" font-family="sans-serif" font-size="10px" fill="#000" opacity="1">0</text><text text-anchor="end" transform="translate(-7,110.14285714285714)" font-family="sans-serif" font-size="10px" fill="#000" opacity="1">100</text><text text-anchor="end" transform="translate(-7,67.28571428571429)" font-family="sans-serif" font-size="10px" fill="#000" opacity="1">200</text><text text-anchor="end" transform="translate(-7,24.428571428571434)" font-family="sans-serif" font-size="10px" fill="#000" opacity="1">300</text></g></g><path class="foreground" aria-hidden="true" d="" pointer-events="none" display="none"/></g></g><g class="mark-line role-mark marks" clip-path="url(#clip99)" role="graphics-object" aria-roledescription="line mark container"><path aria-label="day: Jan 01, 2010; avg: 103.3" role="graphics-symbol" aria-roledescription="line mark" d="M-149.966,105.729L-149.897,105.429L-149.829,105.129L-149.76,104.9L-149.692,104.914L-149.624,104.971L-149.555,105.014L-149.487,104.429L-149.418,104.214L-149.35,104.186L-149.281,104.7L-149.213,104.743L-149.144,104.871L-149.076,104.8L-149.008,104.043L-148.939,104L-148.871,103.586L-148.802,103.586L-148.734,103.129L-148.665,102.786L-148.597,102.686L-148.528,101.943L-148.46,101.6L-148.392,101.957L-148.323,102.329L-148.255,102.1L-148.186,102.457L-148.118,102.386L-148.049,102.043L-147.981,101.771L-147.912,102.486L-147.844,103.2L-147.775,103.443L-147.707,103.6L-147.639,103.671L-147.57,103.457L-147.502,103.343L-147.433,103.914L-147.365,104.714L-147.296,105.086L-147.228,105.214L-147.159,105.457L-147.091,105.4L-147.023,105.757L-146.954,105.9L-146.886,106.329L-146.817,107.143L-146.749,107.686L-146.68,108.786L-146.612,109.357L-146.543,109.614L-146.475,110.429L-146.407,110.629L-146.338,110.886L-146.27,111.1L-146.201,111.3L-146.133,111L-146.064,110.6L-145.996,110.429L-145.927,110.2L-145.859,109.729L-145.791,109.529L-145.722,109.386L-145.654,109.6L-145.585,109.5L-145.517,109.514L-145.448,109.829L-145.38,110.3L-145.311,110.429L-145.243,110.171L-145.175,109.614L-145.106,108.957L-145.038,108.371L-144.972,108.843L-144.904,108.471L-144.835,108.6L-144.767,108.5L-144.698,108.1L-144.63,107.243L-144.561,107.086L-144.493,107.414L-144.424,107.271L-144.356,107.843L-144.288,107.9L-144.219,107.557L-144.151,106.957L-144.082,106.771L-144.014,107.3L-143.945,107.486L-143.877,108.129L-143.808,108.8L-143.74,109.029L-143.672,109.457L-143.603,109.514L-143.535,109.857L-143.466,110.329L-143.398,110.714L-143.329,110.2L-143.261,110.157L-143.192,110.1L-143.124,110.743L-143.056,111.043L-142.987,111.157L-142.919,110.629L-142.85,111.357L-142.782,111.271L-142.713,111.043L-142.645,111.471L-142.576,111.771L-142.508,111.729L-142.44,111.271L-142.371,111.571L-142.303,111.414L-142.234,111.257L-142.166,111.443L-142.097,112.443L-142.029,112.929L-141.96,113.171L-141.892,113.871L-141.824,114.057L-141.755,114.486L-141.687,114.729L-141.618,114.929L-141.55,115.171L-141.481,115.514L-141.413,115.657L-141.344,115.486L-141.276,116L-141.208,115.986L-141.139,116.557L-141.071,116.857L-141.002,116.986L-140.934,117.514L-140.865,118.057L-140.797,118.286L-140.728,118.4L-140.66,118.8L-140.591,118.986L-140.523,119.343L-140.455,120.114L-140.386,120.843L-140.318,121.214L-140.249,121.6L-140.181,121.771L-140.112,122.4L-140.044,122.614L-139.975,123.114L-139.907,123.686L-139.839,123.757L-139.77,123.957L-139.702,123.943L-139.633,124.014L-139.565,124.014L-139.496,123.971L-139.428,124L-139.359,124.171L-139.291,124.3L-139.223,124.371L-139.154,124.643L-139.086,124.886L-139.017,124.657L-138.949,125.271L-138.88,125.257L-138.812,125.114L-138.743,125.071L-138.675,125.186L-138.607,125.457L-138.538,125.7L-138.47,125.971L-138.401,126.029L-138.333,125.971L-138.264,125.771L-138.196,125.829L-138.127,126.271L-138.059,126.071L-137.991,126.086L-137.922,125.843L-137.854,125.714L-137.785,125.543L-137.717,125.557L-137.648,125.286L-137.58,125.157L-137.511,125.343L-137.443,125.271L-137.375,124.629L-137.306,124.157L-137.238,123.929L-137.169,123.629L-137.101,123.571L-137.032,123.471L-136.964,123.814L-136.895,123.757L-136.827,123.686L-136.758,123.943L-136.69,124L-136.622,123.9L-136.553,123.643L-136.485,123.314L-136.416,123.014L-136.348,122.643L-136.279,122.414L-136.211,122.386L-136.142,122.314L-136.074,122.143L-136.006,121.986L-135.937,121.386L-135.869,120.8L-135.8,120.229L-135.732,119.657L-135.663,119.229L-135.595,119.229L-135.526,119.3L-135.458,118.843L-135.39,119.071L-135.321,119.1L-135.253,119.229L-135.184,119.314L-135.116,119.5L-135.047,119.286L-134.979,118.671L-134.91,118.371L-134.842,118.343L-134.774,118.186L-134.705,117.671L-134.637,117.214L-134.568,116.414L-134.5,116.229L-134.431,116.229L-134.363,116.257L-134.294,116.529L-134.226,116.486L-134.158,115.757L-134.089,115.3L-134.021,114.971L-133.952,115.171L-133.884,115.614L-133.815,116.157L-133.747,116.329L-133.678,117L-133.61,116.914L-133.542,116.786L-133.473,116.843L-133.405,117.086L-133.336,116.6L-133.268,116.686L-133.199,116.171L-133.131,115.429L-133.062,114.743L-132.994,114.171L-132.926,114.1L-132.857,113.714L-132.789,113.314L-132.72,112.986L-132.652,112.729L-132.583,112.6L-132.515,113.314L-132.446,112.986L-132.378,112.957L-132.309,112.829L-132.241,112.057L-132.173,111.243L-132.104,111.329L-132.036,111.143L-131.967,110.971L-131.899,110.714L-131.83,110.643L-131.762,110.229L-131.693,110.086L-131.625,109.471L-131.557,109.357L-131.488,109.186L-131.42,108.929L-131.351,108.443L-131.283,107.986L-131.214,107.629L-131.146,107.643L-131.077,107.643L-131.009,107.486L-130.941,107.714L-130.872,107.9L-130.804,107.471L-130.735,106.486L-130.667,106.843L-130.598,107.171L-130.53,107.629L-130.461,107.414L-130.393,107.771L-130.325,107.543L-130.256,107.143L-130.188,107.129L-130.119,107.371L-130.051,107.514L-129.982,107.543L-129.914,107.429L-129.845,106.8L-129.777,106.014L-129.709,106.057L-129.64,105.857L-129.572,106.114L-129.503,105.971L-129.435,105.686L-129.366,105.114L-129.298,104.829L-129.229,104.686L-129.161,104.586L-129.093,104.943L-129.024,105.443L-128.956,105.714L-128.887,105.571L-128.819,105.029L-128.75,105.314L-128.679,106.2L-128.611,106.114L-128.542,105.871L-128.474,105.314L-128.405,104.986L-128.337,104.414L-128.268,104.314L-128.2,104.257L-128.131,104.3L-128.063,104.486L-127.995,104.629L-127.926,104.543L-127.858,104.3L-127.789,104.471L-127.721,104.643L-127.652,104.443L-127.584,104.529L-127.515,104.329L-127.447,104.771L-127.379,105.257L-127.31,106.486L-127.242,107.443L-127.173,107.871L-127.105,107.986L-127.036,107.843L-126.968,107.814L-126.899,107.571L-126.831,107.314L-126.762,107.7L-126.694,107.829L-126.626,107.743L-126.557,107.643L-126.489,107.271L-126.42,107.286L-126.352,107.714L-126.283,108.286L-126.215,108.271L-126.146,108.614L-126.078,108.729L-126.01,108.614L-125.941,107.729L-125.873,107.686L-125.804,107.843L-125.736,107.771L-125.667,108.057L-125.599,108.014L-125.53,107.643L-125.462,107.271L-125.394,107.086L-125.325,106.514L-125.257,105.629L-125.188,104.714L-125.12,104.343L-125.051,104.129L-124.983,103.657L-124.914,103.214L-124.846,103.229L-124.778,103.486L-124.709,103.414L-124.641,103.457L-124.572,103.114L-124.504,102.586L-124.435,103.029L-124.367,103.443L-124.298,103.329L-124.23,103.186L-124.162,103.343L-124.093,103.386L-124.025,103.129L-123.956,103.229L-123.888,104.029L-123.819,104.271L-123.751,104.529L-123.682,104.643L-123.614,104.3L-123.546,103.786L-123.477,103.786L-123.409,103.914L-123.34,103.357L-123.272,103.314L-123.203,103.014L-123.135,102.971L-123.066,102.971L-122.998,102.957L-122.93,103.443L-122.861,103.643L-122.793,103.786L-122.724,103.629L-122.656,103.486L-122.587,103.114L-122.519,103.471L-122.45,103.843L-122.382,103.7L-122.313,103.657L-122.245,103.7L-122.177,103.486L-122.108,103.157L-122.04,102.5L-121.971,102.671L-121.903,102.614L-121.834,102.457L-121.766,102.9L-121.697,102.771L-121.629,102.529L-121.561,102.757L-121.492,103.629L-121.424,104.114L-121.355,104.614L-121.287,105.271L-121.218,105.086L-121.15,105.029L-121.081,105.229L-121.013,105.557L-120.945,106L-120.876,105.9L-120.808,105.957L-120.739,105.957L-120.671,106.029L-120.602,106.314L-120.534,106.686L-120.465,106.743L-120.397,106.786L-120.329,106.929L-120.26,106.757L-120.192,106.643L-120.123,107.114L-120.058,107.629L-119.989,108.329L-119.921,108.843L-119.852,109.043L-119.784,109.214L-119.715,108.629L-119.647,108.2L-119.578,107.843L-119.51,107.843L-119.442,107.443L-119.373,107.043L-119.305,106.714L-119.236,106.643L-119.168,106.729L-119.099,107.443L-119.031,107.7L-118.962,107.871L-118.894,107.9L-118.826,108.029L-118.757,108.043L-118.689,107.957L-118.62,108.514L-118.552,108.586L-118.483,108.571L-118.415,109.114L-118.346,109.371L-118.278,109.971L-118.21,110L-118.141,110.257L-118.073,110.243L-118.004,110.271L-117.936,110.543L-117.867,110.429L-117.799,110.2L-117.73,109.8L-117.662,110.029L-117.594,110.6L-117.525,111.714L-117.457,111.114L-117.388,111.429L-117.32,111.543L-117.251,111.486L-117.183,111.543L-117.114,112.486L-117.046,112.671L-116.978,113.071L-116.909,113.3L-116.841,113.771L-116.772,114.129L-116.704,114.8L-116.635,115.429L-116.567,115.429L-116.498,115.9L-116.43,116.329L-116.362,116.086L-116.293,116.086L-116.225,115.871L-116.156,116.571L-116.088,117.014L-116.019,117.514L-115.951,117.757L-115.882,117.671L-115.814,117.6L-115.745,117.829L-115.677,118.629L-115.609,118.971L-115.54,119.343L-115.472,119.329L-115.403,120.314L-115.335,120.814L-115.266,121.514L-115.198,122.157L-115.129,122.357L-115.061,122.186L-114.993,122.014L-114.924,121.986L-114.856,122.043L-114.787,121.814L-114.719,121.771L-114.65,121.671L-114.582,121.671L-114.513,122.043L-114.445,122.057L-114.377,122.386L-114.308,122.757L-114.24,123.286L-114.171,123.271L-114.103,123.057L-114.034,123.014L-113.966,122.814L-113.897,122.814L-113.829,123.071L-113.761,123.429L-113.692,123.986L-113.624,124.014L-113.555,124.271L-113.487,124.243L-113.418,124.6L-113.35,124.829L-113.281,124.943L-113.213,125.129L-113.145,125.443L-113.076,126.129L-113.008,126.4L-112.939,126.557L-112.871,126.371L-112.802,126.486L-112.734,126.743L-112.665,126.6L-112.597,126.857L-112.529,126.929L-112.46,126.757L-112.392,126.7L-112.323,126.343L-112.255,126.343L-112.186,125.971L-112.118,126.2L-112.049,126.243L-111.981,126.129L-111.913,125.8L-111.844,125.771L-111.776,125.571L-111.707,125.586L-111.639,125.7L-111.57,125.614L-111.502,125.186L-111.433,124.986L-111.365,124.786L-111.296,124.629L-111.228,124.486L-111.16,124.3L-111.091,123.786L-111.023,123.1L-110.954,123.129L-110.886,123L-110.817,123.171L-110.749,123.657L-110.68,123.943L-110.612,124.643L-110.544,124.357L-110.475,123.943L-110.407,123.9L-110.338,123.643L-110.27,123.571L-110.201,123.414L-110.133,123.471L-110.064,123.229L-109.996,123.057L-109.928,122.871L-109.859,122.986L-109.791,123.071L-109.722,123.114L-109.654,122.8L-109.585,122.471L-109.517,122.671L-109.448,123L-109.38,123.071L-109.312,122.986L-109.243,122.643L-109.175,122.271L-109.106,121.943L-109.038,121.957L-108.969,122.214L-108.901,121.857L-108.832,121.886L-108.764,121.529L-108.696,120.629L-108.627,120.1L-108.559,119.629L-108.49,119.571L-108.422,119.471L-108.353,119.143L-108.285,119.043L-108.216,118.386L-108.148,117.943L-108.08,117.571L-108.011,117.429L-107.943,117.157L-107.874,117.186L-107.806,117L-107.737,116.9L-107.669,116.514L-107.6,116.4L-107.532,116.1L-107.463,116L-107.395,115.543L-107.327,115.386L-107.258,114.843L-107.19,115.3L-107.121,115L-107.053,115.043L-106.984,115.029L-106.916,114.671L-106.847,114.271L-106.779,113.443L-106.711,113.357L-106.642,113.443L-106.574,113.329L-106.505,112.971L-106.437,112.929L-106.368,113.029L-106.3,113.014L-106.231,112.843L-106.163,113.214L-106.095,113.529L-106.026,113.6L-105.958,113.714L-105.889,113.5L-105.821,112.886L-105.752,112.929L-105.684,112.157L-105.615,112.329L-105.547,112.343L-105.479,112.271L-105.41,111.614L-105.342,111.229L-105.273,111.114L-105.205,111.571L-105.136,111.114L-105.068,111.629L-104.999,111.643L-104.931,111.257L-104.863,110.757L-104.794,110.814L-104.726,111.643L-104.657,111.7L-104.589,111.243L-104.52,110.686L-104.452,110.286L-104.383,109.886L-104.315,109.729L-104.247,109.543L-104.178,109.614L-104.11,109.486L-104.041,109.343L-103.973,109.014L-103.904,108.271L-103.836,108.314L-103.765,108.829L-103.696,108.357L-103.628,108.643L-103.559,108.457L-103.491,107.857L-103.422,107.271L-103.354,107.2L-103.285,107.771L-103.217,107.857L-103.149,107.714L-103.08,107.643L-103.012,106.957L-102.943,106.214L-102.875,106.643L-102.806,106.714L-102.738,106.786L-102.669,106.486L-102.601,106.471L-102.533,106.714L-102.464,106.986L-102.396,106.829L-102.327,106.471L-102.259,106.357L-102.19,105.671L-102.122,105.343L-102.053,105.343L-101.985,105.057L-101.916,104.886L-101.848,105.329L-101.78,105.443L-101.711,105.257L-101.643,105.486L-101.574,105.357L-101.506,104.9L-101.437,105.186L-101.369,105.471L-101.3,105.543L-101.232,105.057L-101.164,104.829L-101.095,104.343L-101.027,103.943L-100.958,104.014L-100.89,104.486L-100.821,104.286L-100.753,104.657L-100.684,104.457L-100.616,103.971L-100.548,103.171L-100.479,102.714L-100.411,102.571L-100.342,102.671L-100.274,103.486L-100.205,103.229L-100.137,103.5L-100.068,103.214L-100,103.129L-99.932,103.343L-99.863,103.986L-99.795,104.114L-99.726,103.929L-99.658,103.6L-99.589,103.043L-99.521,103.629L-99.452,104.129L-99.384,103.929L-99.316,104.186L-99.247,104.471L-99.179,104.086L-99.11,103.5L-99.042,103.543L-98.973,103.771L-98.905,104.214L-98.836,104.086L-98.768,104.143L-98.7,103.971L-98.631,103.557L-98.563,103.314L-98.494,103.643L-98.426,103.829L-98.357,103.757L-98.289,103.771L-98.22,102.943L-98.152,102.586L-98.084,102.657L-98.015,103.114L-97.947,103.329L-97.878,103.357L-97.81,102.957L-97.741,102.6L-97.673,102.386L-97.604,102.914L-97.536,103.486L-97.467,103.386L-97.399,103.614L-97.331,104.129L-97.262,104.014L-97.194,103.786L-97.125,104.286L-97.057,105.171L-96.988,105.457L-96.92,105.643L-96.851,105.7L-96.783,105.914L-96.715,105.586L-96.646,105.714L-96.578,106.957L-96.509,107.457L-96.441,108.029L-96.372,108.786L-96.304,108.771L-96.235,108.586L-96.167,109.143L-96.099,110.157L-96.03,110.571L-95.962,110.6L-95.893,110.4L-95.825,110.186L-95.756,109.929L-95.688,110.243L-95.619,110.557L-95.551,110.614L-95.483,111.214L-95.414,110.743L-95.346,110.371L-95.277,110.157L-95.209,110.214L-95.143,110.043L-95.075,109.829L-95.006,109.486L-94.938,109.486L-94.869,109.771L-94.801,109.7L-94.732,109.986L-94.664,110.414L-94.596,110.886L-94.527,110.543L-94.459,111.014L-94.39,111.043L-94.322,110.457L-94.253,110.586L-94.185,111.243L-94.116,111.171L-94.048,110.857L-93.98,111.071L-93.911,111.186L-93.843,111.086L-93.774,111.386L-93.706,112.014L-93.637,112L-93.569,112.386L-93.5,112.443L-93.432,111.843L-93.364,112.029L-93.295,112.357L-93.227,112.557L-93.158,112.986L-93.09,113.786L-93.021,114.514L-92.953,114.9L-92.884,115.314L-92.816,115.271L-92.748,115.386L-92.679,115.443L-92.611,115.943L-92.542,115.743L-92.474,115.814L-92.405,116.057L-92.337,116.129L-92.268,116.414L-92.2,116.7L-92.132,116.786L-92.063,117.086L-91.995,117.443L-91.926,117.629L-91.858,118.014L-91.789,118.814L-91.721,119.229L-91.652,119.529L-91.584,120L-91.516,120.114L-91.447,120.229L-91.379,120.571L-91.31,120.671L-91.242,120.414L-91.173,120.529L-91.105,120.5L-91.036,120.386L-90.968,120.357L-90.899,120.457L-90.831,120.329L-90.763,120.671L-90.694,120.771L-90.626,120.957L-90.557,120.486L-90.489,120.757L-90.42,120.571L-90.352,120.343L-90.283,120.614L-90.215,121.243L-90.147,121.786L-90.078,122.086L-90.01,122.414L-89.941,122.757L-89.873,122.871L-89.804,123.3L-89.736,123.171L-89.667,123.243L-89.599,123.271L-89.531,123.286L-89.462,123.229L-89.394,123.386L-89.325,124L-89.257,124.657L-89.188,125.329L-89.12,125.586L-89.051,125.786L-88.983,126.1L-88.915,126.257L-88.846,126.629L-88.778,126.829L-88.709,126.957L-88.641,127.271L-88.572,127.271L-88.504,127.643L-88.435,127.643L-88.367,127.986L-88.299,128.314L-88.23,128.029L-88.162,127.386L-88.093,127.086L-88.025,126.914L-87.956,126.6L-87.888,126.286L-87.819,126.086L-87.751,125.729L-87.683,125.671L-87.614,125.229L-87.546,124.929L-87.477,124.486L-87.409,124.286L-87.34,124.143L-87.272,123.414L-87.203,123.043L-87.135,122.714L-87.067,122.414L-86.998,122.129L-86.93,121.814L-86.861,121.657L-86.793,121.457L-86.724,121.586L-86.656,121.157L-86.587,120.857L-86.519,120.4L-86.45,119.9L-86.382,120L-86.314,119.371L-86.245,118.943L-86.177,118.657L-86.108,118.914L-86.04,118.643L-85.971,118.586L-85.903,118.557L-85.834,118.486L-85.766,118.571L-85.698,118.343L-85.629,118.157L-85.561,118.114L-85.492,118.143L-85.424,118.157L-85.355,118.271L-85.287,118.3L-85.218,118.443L-85.15,118.243L-85.082,118.086L-85.013,118.229L-84.945,118.4L-84.876,118.514L-84.808,118.271L-84.739,118.029L-84.671,117.8L-84.602,117.829L-84.534,117.6L-84.466,118L-84.397,118.286L-84.329,117.6L-84.26,117.371L-84.192,117.086L-84.123,117.057L-84.055,116.857L-83.986,117.143L-83.918,116.871L-83.85,116.443L-83.781,116.043L-83.713,115.457L-83.644,115.214L-83.576,114.671L-83.507,114.457L-83.439,114.086L-83.37,113.529L-83.302,112.729L-83.234,112.171L-83.165,112L-83.097,111.9L-83.028,111.971L-82.96,111.814L-82.891,111.271L-82.823,110.143L-82.754,109.2L-82.686,108.857L-82.617,108.071L-82.549,107.729L-82.481,107.657L-82.412,106.486L-82.344,105.357L-82.275,105.014L-82.207,105.286L-82.138,105.2L-82.07,105.357L-82.001,105.129L-81.933,104L-81.865,103.286L-81.796,103.114L-81.728,103.257L-81.659,103.386L-81.591,103.129L-81.522,103.2L-81.454,102.629L-81.385,102.714L-81.317,104.043L-81.249,105.414L-81.18,106.1L-81.112,106.314L-81.043,106.043L-80.975,105.886L-80.906,105.843L-80.838,106.243L-80.769,106.829L-80.701,107.843L-80.633,108.1L-80.564,108.586L-80.496,108.529L-80.427,108.3L-80.359,108.671L-80.29,109.486L-80.222,109.857L-80.153,110.129L-80.085,110.757L-80.017,110.629L-79.948,110.029L-79.88,110.657L-79.811,111.3L-79.743,111.657L-79.674,111.771L-79.606,111.871L-79.537,111.629L-79.469,111.186L-79.401,111.671L-79.332,111.729L-79.264,110.657L-79.195,109.914L-79.127,109.086L-79.058,108.271L-78.99,108.114L-78.921,108.086L-78.85,108L-78.782,107.557L-78.713,107.657L-78.645,107.329L-78.576,106.629L-78.508,105.814L-78.439,105.843L-78.371,105.943L-78.303,105.971L-78.234,105.929L-78.166,105.843L-78.097,105.314L-78.029,104.2L-77.96,104.2L-77.892,104.814L-77.823,104.771L-77.755,104.7L-77.687,104.643L-77.618,104.171L-77.55,103.286L-77.481,103.557L-77.413,104.357L-77.344,104.4L-77.276,103.957L-77.207,103.443L-77.139,102.571L-77.07,102.071L-77.002,102.357L-76.934,102.186L-76.865,102.014L-76.797,101.786L-76.728,101.671L-76.66,101.029L-76.591,100.014L-76.523,100.471L-76.454,101.1L-76.386,101L-76.318,100.671L-76.249,100.914L-76.181,100.3L-76.112,99.671L-76.044,99.629L-75.975,100.1L-75.907,99.914L-75.838,99.8L-75.77,99.514L-75.702,98.886L-75.633,98L-75.565,97.343L-75.496,97.671L-75.428,97.5L-75.359,97.157L-75.291,97.029L-75.222,96.657L-75.154,96.429L-75.086,96.586L-75.017,97.171L-74.949,97.243L-74.88,97.614L-74.812,97.8L-74.743,97.271L-74.675,96.571L-74.606,96.729L-74.538,97.4L-74.47,96.914L-74.401,97.043L-74.333,96.986L-74.264,96.543L-74.196,95.9L-74.127,96.029L-74.059,96.586L-73.99,96.843L-73.922,96.729L-73.854,96.814L-73.785,96.214L-73.717,95.943L-73.648,95.814L-73.58,96.214L-73.511,97.129L-73.443,97.229L-73.374,97.2L-73.306,96.543L-73.238,95.714L-73.169,96.071L-73.101,96.671L-73.032,97.129L-72.964,97.014L-72.895,97.114L-72.827,97.043L-72.758,96.429L-72.69,96.886L-72.621,97.914L-72.553,98.057L-72.485,98.386L-72.416,98.471L-72.348,98.129L-72.279,97.586L-72.211,98.271L-72.142,98.514L-72.074,98.457L-72.005,98.829L-71.937,98.386L-71.869,98.057L-71.8,97.529L-71.732,97.614L-71.663,97.886L-71.595,98.414L-71.526,98.543L-71.458,98.343L-71.389,98.114L-71.321,97.386L-71.253,97.529L-71.184,98.143L-71.116,98L-71.047,97.957L-70.979,97.414L-70.91,97.057L-70.842,96.571L-70.773,96.157L-70.705,96.129L-70.637,96.414L-70.568,96.314L-70.5,97L-70.431,96.843L-70.363,96.486L-70.294,96.757L-70.229,97.9L-70.16,98.229L-70.092,98.729L-70.023,99.057L-69.955,98.257L-69.886,98.2L-69.818,98.671L-69.75,99.114L-69.681,99.8L-69.613,100.243L-69.544,100.357L-69.476,100.2L-69.407,100.029L-69.339,100.457L-69.27,101.529L-69.202,102.114L-69.134,102.529L-69.065,103.157L-68.997,103.271L-68.928,103.414L-68.86,103.8L-68.791,104.143L-68.723,104.786L-68.654,105.671L-68.586,105.786L-68.518,105.471L-68.449,104.4L-68.381,104.271L-68.312,105.014L-68.244,105.086L-68.175,104.529L-68.107,104.586L-68.038,104.071L-67.97,103.771L-67.902,104.029L-67.833,104.314L-67.765,104.371L-67.696,104.557L-67.628,104.5L-67.559,103.971L-67.491,103.6L-67.422,103.6L-67.354,104.186L-67.286,104.6L-67.217,105.071L-67.149,105.329L-67.08,104.671L-67.012,103.857L-66.943,104.014L-66.875,104.3L-66.806,104.7L-66.738,104.929L-66.67,105.3L-66.601,105.414L-66.533,105.743L-66.464,106.643L-66.396,107.886L-66.327,108.643L-66.259,108.614L-66.19,108.886L-66.122,108.786L-66.054,108.7L-65.985,109.286L-65.917,109.729L-65.848,110.214L-65.78,110.557L-65.711,110.986L-65.643,111.1L-65.574,111.186L-65.506,112.086L-65.437,113.057L-65.369,113.714L-65.301,113.771L-65.232,113.829L-65.164,113.814L-65.095,113.929L-65.027,115.043L-64.958,116.414L-64.89,116.957L-64.821,117.557L-64.753,117.714L-64.685,118.071L-64.616,117.871L-64.548,117.386L-64.479,117.071L-64.411,116.7L-64.342,116.571L-64.274,116.714L-64.205,117.329L-64.137,117.629L-64.069,118.543L-64,118.686L-63.932,119.014L-63.863,119.629L-63.795,119.943L-63.726,120.171L-63.658,120.214L-63.589,120.714L-63.521,121.157L-63.453,121.229L-63.384,121.5L-63.316,121.929L-63.247,122.457L-63.179,122.7L-63.11,122.643L-63.042,122.886L-62.973,123.014L-62.905,122.471L-62.837,122.243L-62.768,122L-62.7,121.771L-62.631,121.671L-62.563,121.543L-62.494,121.8L-62.426,121.8L-62.357,121.829L-62.289,121.543L-62.221,121.071L-62.152,120.743L-62.084,120.629L-62.015,119.657L-61.947,119.529L-61.878,119.243L-61.81,118.629L-61.741,118.471L-61.673,118.071L-61.604,117.529L-61.536,117.029L-61.468,116.643L-61.399,116.214L-61.331,115.686L-61.262,114.714L-61.194,113.986L-61.125,113.586L-61.057,113.586L-60.988,113.429L-60.92,112.957L-60.852,113.286L-60.783,113.114L-60.715,113.157L-60.646,113.157L-60.578,112.871L-60.509,112.886L-60.441,113.071L-60.372,113.3L-60.304,113.471L-60.236,113.5L-60.167,113.486L-60.099,113.686L-60.03,113.143L-59.962,113.714L-59.893,113.529L-59.825,113.057L-59.756,113.1L-59.688,113.086L-59.62,113.514L-59.551,114.2L-59.483,114.686L-59.414,114.643L-59.346,114.014L-59.277,113.957L-59.209,113.857L-59.14,113.814L-59.072,114.3L-59.004,114.129L-58.935,113.457L-58.867,112.986L-58.798,112.643L-58.73,112.4L-58.661,112.157L-58.593,112L-58.524,112.157L-58.456,111.914L-58.388,110.943L-58.319,110.643L-58.251,110.443L-58.182,110.543L-58.114,110.714L-58.045,110.514L-57.977,110.386L-57.908,109.986L-57.84,110.314L-57.772,110.7L-57.703,110.743L-57.635,110.3L-57.566,109.857L-57.498,108.886L-57.429,107.8L-57.361,107.386L-57.292,107.871L-57.224,107.386L-57.155,107.7L-57.087,107.743L-57.019,106.2L-56.95,105.457L-56.882,105.571L-56.813,105.986L-56.745,105.957L-56.676,106.129L-56.608,106.171L-56.539,105.871L-56.471,104.7L-56.403,104.543L-56.334,105.114L-56.266,104.986L-56.197,104.714L-56.129,104.743L-56.06,103.7L-55.992,102.171L-55.923,102.257L-55.855,102.2L-55.787,101.786L-55.718,101.7L-55.65,101.457L-55.581,101.1L-55.513,100.5L-55.444,100.057L-55.376,100.6L-55.307,100.771L-55.239,100.714L-55.171,100.786L-55.102,100.529L-55.034,99.629L-54.965,100.486L-54.897,100.514L-54.828,100.586L-54.76,100.386L-54.691,100.186L-54.623,99.457L-54.555,98.686L-54.486,98.829L-54.418,99.443L-54.349,99.214L-54.281,98.743L-54.212,98.157L-54.144,97.314L-54.075,95.971L-54.007,96.571L-53.936,97.743L-53.867,97.929L-53.799,97.957L-53.73,97.971L-53.662,97.371L-53.593,96.714L-53.525,96.786L-53.457,97.143L-53.388,97.914L-53.32,97.943L-53.251,98.1L-53.183,97.643L-53.114,97.214L-53.046,97.243L-52.977,98.086L-52.909,98.414L-52.841,98.886L-52.772,99.043L-52.704,98.914L-52.635,98.529L-52.567,98.829L-52.498,99.143L-52.43,99L-52.361,98.7L-52.293,99.257L-52.225,99.257L-52.156,99.229L-52.088,99.571L-52.019,100.2L-51.951,99.643L-51.882,99.8L-51.814,99.043L-51.745,98.386L-51.677,97.486L-51.608,97.943L-51.54,98.5L-51.472,98.586L-51.403,98.829L-51.335,99L-51.266,98.129L-51.198,97.343L-51.129,97.757L-51.061,98.314L-50.992,98.557L-50.924,98.329L-50.856,97.8L-50.787,96.743L-50.719,95.771L-50.65,95.314L-50.582,95.386L-50.513,95.2L-50.445,95.314L-50.376,95.3L-50.308,95.086L-50.24,93.671L-50.171,93.786L-50.103,94.186L-50.034,93.957L-49.966,93.957L-49.897,94.357L-49.829,93.557L-49.76,93.4L-49.692,93.671L-49.624,94.057L-49.555,93.7L-49.487,93.6L-49.418,93.671L-49.35,92.929L-49.281,91.743L-49.213,92.471L-49.144,92.943L-49.076,92.9L-49.008,92.457L-48.939,92.429L-48.871,91.471L-48.802,90.629L-48.734,90.371L-48.665,90.257L-48.597,89.9L-48.528,90.057L-48.46,89.457L-48.392,89.029L-48.323,88.414L-48.255,88.871L-48.186,90.014L-48.118,90.471L-48.049,90.543L-47.981,91.214L-47.912,90.614L-47.844,89.757L-47.775,90.257L-47.707,90.671L-47.639,91.229L-47.57,91.671L-47.502,92.014L-47.433,91.429L-47.365,90.957L-47.296,91.5L-47.228,92.543L-47.159,92.614L-47.091,92.757L-47.023,92.686L-46.954,92.571L-46.886,92.043L-46.817,92.729L-46.749,93.3L-46.68,94.143L-46.612,94.986L-46.543,95.871L-46.475,95.543L-46.407,95.743L-46.338,96.029L-46.27,96.957L-46.201,96.814L-46.133,96.771L-46.064,96.286L-45.996,95.729L-45.927,95.057L-45.859,95.743L-45.791,96.714L-45.722,96.8L-45.654,97.057L-45.585,96.686L-45.517,96.186L-45.448,95.514L-45.38,96.143L-45.314,96.814L-45.246,96.771L-45.177,96.729L-45.109,96.643L-45.04,96.486L-44.972,95.986L-44.904,96.143L-44.835,96.414L-44.767,96.429L-44.698,96.386L-44.63,96.443L-44.561,95.943L-44.493,95.257L-44.424,94.714L-44.356,95.386L-44.288,95.557L-44.219,95L-44.151,95.114L-44.082,94.4L-44.014,94.1L-43.945,94.429L-43.877,95.029L-43.808,95.5L-43.74,95.857L-43.672,96.029L-43.603,95.714L-43.535,95.371L-43.466,95.643L-43.398,96.329L-43.329,96.5L-43.261,96.257L-43.192,96.343L-43.124,95.614L-43.056,95.129L-42.987,95.229L-42.919,95.986L-42.85,96.457L-42.782,97.171L-42.713,97.257L-42.645,97.229L-42.576,96.486L-42.508,97L-42.44,97.814L-42.371,99.014L-42.303,99.129L-42.234,98.971L-42.166,99.2L-42.097,99.229L-42.029,99.914L-41.96,100.643L-41.892,100.729L-41.824,101.1L-41.755,101.157L-41.687,100.471L-41.618,99.743L-41.55,100.014L-41.481,100.786L-41.413,101L-41.344,101L-41.276,101.086L-41.208,101.386L-41.139,101.671L-41.071,102.143L-41.002,102.529L-40.934,102.629L-40.865,102.5L-40.797,102.486L-40.728,102.157L-40.66,102.143L-40.591,102.386L-40.523,103.786L-40.455,104.257L-40.386,104.529L-40.318,104.686L-40.249,104.657L-40.181,104.643L-40.112,105.057L-40.044,105.529L-39.975,105.986L-39.907,106.029L-39.839,106.257L-39.77,106.286L-39.702,105.629L-39.633,106.071L-39.565,106.914L-39.496,107.429L-39.428,107.786L-39.359,107.5L-39.291,107.271L-39.223,107.071L-39.154,107.257L-39.086,107.757L-39.017,108.229L-38.949,108.557L-38.88,108.871L-38.812,109.214L-38.743,109.186L-38.675,109.257L-38.607,109.829L-38.538,110.271L-38.47,110.357L-38.401,110.2L-38.333,110.186L-38.264,109.614L-38.196,109.971L-38.127,110.543L-38.059,110.714L-37.991,110.771L-37.922,110.5L-37.854,110.214L-37.785,110.057L-37.717,109.629L-37.648,109.743L-37.58,109.686L-37.511,109.671L-37.443,109.3L-37.375,108.357L-37.306,108.257L-37.238,109.114L-37.169,109.086L-37.101,108.9L-37.032,108.543L-36.964,108.529L-36.895,108.6L-36.827,108.114L-36.758,107.657L-36.69,107.614L-36.622,107.457L-36.553,107.229L-36.485,106.843L-36.416,106.643L-36.348,106.171L-36.279,105.514L-36.211,105.571L-36.142,105.529L-36.074,105.443L-36.006,105.386L-35.937,104.886L-35.869,104.443L-35.8,104.471L-35.732,104.386L-35.663,104.757L-35.595,104.743L-35.526,104.957L-35.458,104.8L-35.39,104.614L-35.321,105.057L-35.253,105.657L-35.184,105.029L-35.116,105.114L-35.047,105.271L-34.979,104.571L-34.91,103.914L-34.842,103.743L-34.774,103.957L-34.705,104.357L-34.637,104.714L-34.568,104.929L-34.5,104.429L-34.431,104.043L-34.363,103.614L-34.294,103.871L-34.226,104.271L-34.158,104.486L-34.089,104.343L-34.021,103.371L-33.952,102.357L-33.884,102.6L-33.815,103L-33.747,103.014L-33.678,102.3L-33.61,101.814L-33.542,101.343L-33.473,100.671L-33.405,100.5L-33.336,100.729L-33.268,100.057L-33.199,99.643L-33.131,99.414L-33.062,98.357L-32.994,96.714L-32.926,96.6L-32.857,96.971L-32.789,96.571L-32.72,96.143L-32.652,95.514L-32.583,94.271L-32.515,92.786L-32.446,92.171L-32.378,92.429L-32.309,92.271L-32.241,92.186L-32.173,91.757L-32.104,91L-32.036,89.543L-31.967,89.757L-31.899,89.714L-31.83,89.2L-31.762,88.443L-31.693,87.929L-31.625,87.843L-31.557,86.514L-31.488,86.829L-31.42,86.886L-31.351,86.743L-31.283,86.057L-31.214,86.6L-31.146,85.643L-31.077,84.4L-31.009,85.014L-30.941,85.829L-30.872,86.1L-30.804,85.729L-30.735,85.6L-30.667,84.386L-30.598,82.843L-30.53,83.271L-30.461,83.271L-30.393,83.943L-30.325,83.529L-30.256,83.129L-30.188,81.786L-30.119,80.5L-30.051,80.471L-29.982,81.314L-29.914,81.329L-29.845,81.829L-29.777,81.671L-29.709,81.143L-29.64,80.214L-29.572,80.9L-29.503,82.2L-29.435,82.057L-29.366,81.657L-29.298,81.071L-29.229,80.243L-29.161,78.971L-29.093,80.071L-29.021,81.214L-28.953,81L-28.884,81.057L-28.816,80.729L-28.747,80.143L-28.679,79.329L-28.611,80.429L-28.542,81.843L-28.474,82.014L-28.405,82.957L-28.337,83L-28.268,82.557L-28.2,82.114L-28.131,82.543L-28.063,83.643L-27.995,83.729L-27.926,83.829L-27.858,83.757L-27.789,83.071L-27.721,82.329L-27.652,82.871L-27.584,83.729L-27.515,83.443L-27.447,83.329L-27.379,83.329L-27.31,83.057L-27.242,82.414L-27.173,82.486L-27.105,82.486L-27.036,82.257L-26.968,81.614L-26.899,81.6L-26.831,80.686L-26.762,79.714L-26.694,80.414L-26.626,80.857L-26.557,81.057L-26.489,80.886L-26.42,80.557L-26.352,79.4L-26.283,78.329L-26.215,79.014L-26.146,79.786L-26.078,80.629L-26.01,80.714L-25.941,80.771L-25.873,79.757L-25.804,78.9L-25.736,78.529L-25.667,79.471L-25.599,79.671L-25.53,79.786L-25.462,80.4L-25.394,79.429L-25.325,78.643L-25.257,79.271L-25.188,79.743L-25.12,80.714L-25.051,81.929L-24.983,81.629L-24.914,81.457L-24.846,80.6L-24.778,81.657L-24.709,82.3L-24.641,82.343L-24.572,82.757L-24.504,82.657L-24.435,82.171L-24.367,81.4L-24.298,82.286L-24.23,83.314L-24.162,83.171L-24.093,83.343L-24.025,83.043L-23.956,82.3L-23.888,81.714L-23.819,81.357L-23.751,81.529L-23.682,81.871L-23.614,81.114L-23.546,80.357L-23.477,79.429L-23.409,77.957L-23.34,78.529L-23.272,79.329L-23.203,78.857L-23.135,79.386L-23.066,79.186L-22.998,78.071L-22.93,77.214L-22.861,77.829L-22.793,78.871L-22.724,78.671L-22.656,78.443L-22.587,78.071L-22.519,77.157L-22.45,76.271L-22.382,76.714L-22.313,77.514L-22.245,77.314L-22.177,77.257L-22.108,77.514L-22.04,76.271L-21.971,75.6L-21.903,76.371L-21.834,77.286L-21.766,78.857L-21.697,79.757L-21.629,80.171L-21.561,80.114L-21.492,80.029L-21.424,80.843L-21.355,82.157L-21.287,82.314L-21.218,82.514L-21.15,83.229L-21.081,82.286L-21.013,81L-20.945,81.557L-20.876,82.571L-20.808,82.814L-20.739,83.1L-20.671,83.171L-20.602,83.457L-20.534,82.543L-20.465,83.1L-20.4,83.643L-20.331,83.157L-20.263,82.929L-20.195,82.757L-20.126,82.157L-20.058,81.714L-19.989,83.143L-19.921,83.814L-19.852,83.729L-19.784,83.771L-19.715,83.843L-19.647,84.214L-19.578,83.929L-19.51,84.357L-19.442,85.557L-19.373,85.571L-19.305,85.343L-19.236,85.171L-19.168,84.743L-19.099,83.971L-19.031,84.614L-18.962,85.957L-18.894,86.214L-18.826,86.557L-18.757,86.329L-18.689,85.971L-18.62,85.3L-18.552,85.886L-18.483,86.929L-18.415,87.529L-18.346,88L-18.278,89.186L-18.21,89.557L-18.141,90.186L-18.073,91.257L-18.004,92.029L-17.936,92.343L-17.867,92.457L-17.799,92.729L-17.73,92.271L-17.662,91.4L-17.594,90.629L-17.525,90.829L-17.457,91.371L-17.388,90.829L-17.32,91.114L-17.251,90.843L-17.183,90.986L-17.114,91.057L-17.046,91.786L-16.978,92.743L-16.909,93.457L-16.841,93.857L-16.772,93.871L-16.704,94.329L-16.635,94.8L-16.567,95.286L-16.498,95.5L-16.43,95.529L-16.362,95.143L-16.293,94.671L-16.225,93.514L-16.156,93.614L-16.088,93.471L-16.019,93.229L-15.951,93.557L-15.882,93.6L-15.814,93.914L-15.745,93.971L-15.677,94.429L-15.609,95.014L-15.54,95.914L-15.472,96.386L-15.403,96.571L-15.335,96.657L-15.266,96.229L-15.198,96.7L-15.129,97.157L-15.061,97.5L-14.993,97.686L-14.924,97.557L-14.856,96.814L-14.787,95.529L-14.719,95.157L-14.65,94.871L-14.582,94.586L-14.513,95.086L-14.445,94.614L-14.377,94.229L-14.308,94.243L-14.24,94.914L-14.171,96.186L-14.103,96.343L-14.034,96.814L-13.966,97.257L-13.897,97.029L-13.829,96.643L-13.761,96.657L-13.692,96.686L-13.624,96.657L-13.555,97.071L-13.487,97.171L-13.418,97.286L-13.35,97.514L-13.281,98.729L-13.213,99.857L-13.145,100.071L-13.076,100.271L-13.008,100.7L-12.939,100.857L-12.871,100.9L-12.802,101.3L-12.734,102.7L-12.665,103.6L-12.597,103.986L-12.529,104.786L-12.46,105.057L-12.392,105.5L-12.323,106.714L-12.255,107.129L-12.186,107.243L-12.118,107.114L-12.049,107L-11.981,106.614L-11.913,106.443L-11.844,106.214L-11.776,106.257L-11.707,106.043L-11.639,106.029L-11.57,106.014L-11.502,105.671L-11.433,105.343L-11.365,105.4L-11.296,105.329L-11.228,104.986L-11.16,104.586L-11.091,104.714L-11.023,104.714L-10.954,104L-10.886,104.086L-10.817,103.957L-10.749,103.929L-10.68,103.586L-10.612,103.171L-10.544,102.843L-10.475,102.4L-10.407,102.386L-10.338,102.714L-10.27,102.786L-10.201,103.071L-10.133,103.2L-10.064,103.086L-9.996,103.114L-9.928,103.2L-9.859,103.7L-9.791,104L-9.722,104.357L-9.654,104.729L-9.585,104.529L-9.517,104.2L-9.448,104.057L-9.38,103.886L-9.312,103.957L-9.243,103.843L-9.175,103.9L-9.106,103.557L-9.038,102.257L-8.969,101.9L-8.901,102.157L-8.832,101.357L-8.764,100.757L-8.696,100.929L-8.627,100.257L-8.559,98.871L-8.49,98.843L-8.422,98.786L-8.353,98.614L-8.285,97.957L-8.216,97.2L-8.148,95.171L-8.08,93.029L-8.011,92.271L-7.943,92.186L-7.874,92.286L-7.806,91.329L-7.737,90.771L-7.669,89.4L-7.6,87.714L-7.532,87.014L-7.463,87.114L-7.395,87.271L-7.327,87.7L-7.258,86.943L-7.19,85.571L-7.121,83.743L-7.053,83.2L-6.984,84L-6.916,83.686L-6.847,83.886L-6.779,84.086L-6.711,83.486L-6.642,82.043L-6.574,82.129L-6.505,83.043L-6.437,83.143L-6.368,83.071L-6.3,82.6L-6.231,82.029L-6.163,80.543L-6.095,81.857L-6.026,83.257L-5.958,83.943L-5.889,83.714L-5.821,83.543L-5.752,82.6L-5.684,81.371L-5.615,81.986L-5.547,83.071L-5.479,83.314L-5.41,83.157L-5.342,82.786L-5.273,81.186L-5.205,79.729L-5.136,80.514L-5.068,81.443L-4.999,82.057L-4.931,81.871L-4.863,82.571L-4.794,81.714L-4.726,80.886L-4.657,81.4L-4.589,82.214L-4.52,82.586L-4.452,81.986L-4.383,81.471L-4.315,80.271L-4.247,79.329L-4.178,79.529L-4.107,80.8L-4.038,80.486L-3.97,80.829L-3.901,80.314L-3.833,79.843L-3.765,78.443L-3.696,78.843L-3.628,79.957L-3.559,79.786L-3.491,80.071L-3.422,80.629L-3.354,80.4L-3.285,80.257L-3.217,81.371L-3.149,83.257L-3.08,83.257L-3.012,83.443L-2.943,83.3L-2.875,82.4L-2.806,80.8L-2.738,81.143L-2.669,82.057L-2.601,82.314L-2.533,82.5L-2.464,82.429L-2.396,82.014L-2.327,81.257L-2.259,80.7L-2.19,80.586L-2.122,79.9L-2.053,79.5L-1.985,78.929L-1.916,77.586L-1.848,76.714L-1.78,76.8L-1.711,77.771L-1.643,78.086L-1.574,78.057L-1.506,78.4L-1.437,77.4L-1.369,76.386L-1.3,76.586L-1.232,76.986L-1.164,76.514L-1.095,76.271L-1.027,76.571L-0.958,76.057L-0.89,74.9L-0.821,75.057L-0.753,76L-0.684,75.871L-0.616,75.657L-0.548,75.686L-0.479,75.514L-0.411,74.557L-0.342,75.171L-0.274,75.986L-0.205,76.843L-0.137,78.057L-0.068,78.786L0,78.643L0.068,78.371L0.137,79.314L0.205,80.143L0.274,80.729L0.342,81.3L0.411,81.343L0.479,80.629L0.548,79.529L0.616,79.5L0.684,80.271L0.753,80.671L0.821,81.114L0.89,81.043L0.958,80.629L1.027,79.386L1.095,78.486L1.164,78.957L1.232,78.871L1.3,77.814L1.369,77.457L1.437,76.571L1.506,75.371L1.574,75.457L1.643,76.343L1.711,76.629L1.78,76.971L1.848,77.514L1.916,76.7L1.985,75.743L2.053,76.243L2.122,77.686L2.19,77.9L2.259,78.071L2.327,78.214L2.396,76.943L2.464,75.786L2.533,76.5L2.601,77.5L2.669,78.371L2.738,78.557L2.806,78.729L2.875,77.5L2.943,77.257L3.012,77.329L3.08,77.986L3.149,79.1L3.217,79.571L3.285,80.343L3.354,80.714L3.422,79.929L3.491,80.9L3.559,81.643L3.628,81.6L3.696,81.843L3.765,82.2L3.833,81.143L3.901,80.229L3.97,80.914L4.038,81.886L4.107,81.8L4.175,81.657L4.244,81.443L4.312,80.471L4.381,79.229L4.449,79.857L4.517,81.271L4.586,80.843L4.654,81L4.723,80.529L4.791,79.386L4.86,78.071L4.928,78.857L4.994,79.614L5.062,79.757L5.131,79.986L5.199,80.2L5.268,79.6L5.336,79.043L5.404,79.814L5.473,81.5L5.541,81.529L5.61,82.286L5.678,82.586L5.747,82.114L5.815,80.671L5.884,81.357L5.952,81.714L6.02,81.457L6.089,80.986L6.157,80.743L6.226,79.786L6.294,78.786L6.363,79.514L6.431,79.957L6.5,79.9L6.568,79.771L6.636,80.243L6.705,79.171L6.773,79.129L6.842,79.857L6.91,80.6L6.979,80.614L7.047,80.686L7.116,80.971L7.184,80.643L7.252,79.543L7.321,80.314L7.389,80.986L7.458,80.7L7.526,80.071L7.595,80.157L7.663,79.2L7.732,78.286L7.8,78.529L7.868,79.4L7.937,80L8.005,81.157L8.074,81.9L8.142,82.8L8.211,83.629L8.279,84.829L8.348,86.557L8.416,87.586L8.484,88.829L8.553,89.714L8.621,89.914L8.69,89.7L8.758,90.786L8.827,91.6L8.895,92.029L8.964,92.257L9.032,92.729L9.101,92.586L9.169,92.471L9.237,93.043L9.306,94.686L9.374,94.914L9.443,95.314L9.511,96.057L9.58,96.371L9.648,96.214L9.717,97.157L9.785,98.114L9.853,98.557L9.922,99.086L9.99,99.129L10.059,98.629L10.127,98.2L10.196,98.257L10.264,97.771L10.333,97.4L10.401,97.043L10.469,96.557L10.538,95.3L10.606,90.243L10.675,83.586L10.743,80.643L10.812,80.586L10.88,80.814L10.949,81.329L11.017,80.714L11.085,80.171L11.154,80.443L11.222,80.814L11.291,81.214L11.359,81.143L11.428,81.4L11.496,81.1L11.565,80.814L11.633,81.157L11.701,81.771L11.77,81.857L11.838,81.829L11.907,82.214L11.975,82.614L12.044,82.514L12.112,82.957L12.181,83.457L12.249,83.829L12.317,84.243L12.386,84.914L12.454,84.9L12.523,85L12.591,85.743L12.66,90.829L12.728,97.443L12.797,100.843L12.865,101.114L12.933,100.629L13.002,100.114L13.07,101.071L13.139,101.571L13.207,101.9L13.276,102.057L13.344,102.314L13.413,102.457L13.481,102.186L13.55,102.571L13.618,103.129L13.686,103.414L13.755,103.486L13.823,103.457L13.892,103.514L13.96,102.786L14.029,102.443L14.097,102.186L14.166,102.043L14.234,101.671L14.302,101.543L14.371,101.471L14.439,101.243L14.508,101.5L14.576,101.6L14.645,101.857L14.713,101.714L14.782,102.243L14.85,101.886L14.918,101.1L14.987,100.671L15.055,100.543L15.124,100.243L15.192,100.257L15.261,100.429L15.329,99.871L15.398,98.814L15.466,98.6L15.534,98.886L15.603,98.914L15.671,98.571L15.74,98.114L15.808,97.2L15.877,96.486L15.945,96.371L16.014,96.886L16.082,97.014L16.15,97.486L16.219,97.629L16.287,97.543L16.356,96.057L16.424,96.157L16.493,96.129L16.561,95.843L16.63,95.643L16.698,95.214L16.766,93.971L16.835,91.757L16.903,91.414L16.972,91.014L17.04,91.357L17.109,91.2L17.177,91.171L17.246,90.086L17.314,88.3L17.383,88.043L17.451,87.886L17.519,86.971L17.588,86.543L17.656,85.6L17.725,84.029L17.793,83.043L17.862,83.771L17.93,84.514L17.999,84.786L18.067,84.643L18.135,84.371L18.204,83.257L18.272,81.843L18.341,81.757L18.409,82.257L18.478,81.771L18.546,81.129L18.615,80.8L18.683,79.729L18.751,78.914L18.82,79.371L18.888,80.586L18.957,81.143L19.025,81.871L19.094,82L19.162,81.129L19.231,81.343L19.299,80.9L19.367,81.671L19.436,82.2L19.504,82.686L19.573,82.386L19.641,81.071L19.71,80.057L19.778,81.2L19.847,81.771L19.915,81.186L19.983,80.5L20.052,79.7L20.12,78.443L20.189,77.129L20.257,77.657L20.326,78.529L20.394,78.557L20.463,78.143L20.531,77.114L20.599,76.486L20.668,75.2L20.736,75.557L20.805,75.714L20.873,75.943L20.942,76.086L21.01,75.614L21.079,74.586L21.147,73.014L21.215,73.4L21.287,72.9L21.355,74.043L21.424,74.614L21.492,74.271L21.561,73.3L21.629,72.7L21.697,73.757L21.766,74.614L21.834,74.757L21.903,74.757L21.971,74.4L22.04,73.6L22.108,72.557L22.177,73.257L22.245,74.043L22.313,73.714L22.382,73.243L22.45,72.943L22.519,73.4L22.587,73.786L22.656,73.543L22.724,74.129L22.793,73.4L22.861,72.714L22.93,72.143L22.998,71.814L23.066,70.957L23.135,70.486L23.203,71.457L23.272,71.914L23.34,71.757L23.409,71.271L23.477,69.443L23.546,67.9L23.614,68.329L23.682,68.886L23.751,68.643L23.819,69.086L23.888,68.814L23.956,67.4L24.025,66.729L24.093,66.257L24.162,67.1L24.23,66.886L24.298,66.986L24.367,67.057L24.435,66.271L24.504,64.871L24.572,64.371L24.641,64.443L24.709,64.7L24.778,64.971L24.846,65.657L24.914,64.871L24.983,64.257L25.051,64.043L25.12,64.914L25.188,66.229L25.257,66.214L25.325,65.786L25.394,65.029L25.462,63.743L25.53,64.529L25.599,65.886L25.667,66.629L25.736,66.829L25.804,66.686L25.873,64.971L25.941,62.971L26.01,63.871L26.078,64.914L26.146,66.414L26.215,67.029L26.283,67.271L26.352,66.429L26.42,65.857L26.489,66.029L26.557,66.871L26.626,67.329L26.694,67.629L26.762,68.5L26.831,68.029L26.899,67.271L26.968,68.714L27.036,69.914L27.105,70.857L27.173,71.286L27.242,71.286L27.31,70.5L27.379,69.786L27.447,70.671L27.515,72.714L27.584,73.414L27.652,74.057L27.721,73.457L27.789,72.986L27.858,71.971L27.926,73.214L27.995,73.943L28.063,73.829L28.131,73.2L28.2,72.571L28.268,70.914L28.337,69.571L28.405,70.043L28.474,70.414L28.542,71.114L28.611,72.814L28.679,72.8L28.747,72.029L28.816,70.657L28.884,71.229L28.953,71.914L29.021,72.329L29.09,72.2L29.158,71.586L29.227,70.243L29.295,69.271L29.363,69.729L29.432,70.514L29.5,70.514L29.569,69.814L29.637,69.857L29.706,69.057L29.774,68.457L29.843,68.943L29.908,70.243L29.977,70.243L30.045,71.571L30.114,71.886L30.182,71.557L30.25,71.829L30.319,72.543L30.387,73.314L30.456,73.557L30.524,73.557L30.593,73.429L30.661,71.486L30.73,70.6L30.798,71.071L30.866,72.214L30.935,72.486L31.003,73.143L31.072,73.386L31.14,73.443L31.209,72.771L31.277,73.843L31.346,75.414L31.414,76.086L31.482,76.471L31.551,76.7L31.619,76.214L31.688,75.143L31.756,75.186L31.825,75.643L31.893,76.143L31.962,76.371L32.03,76.914L32.098,75.929L32.167,75.7L32.235,76.957L32.304,77.314L32.372,77.843L32.441,79.2L32.509,80.214L32.578,80.529L32.646,80.486L32.714,81.086L32.783,82.171L32.851,83.014L32.92,82.929L32.988,83.686L33.057,83.029L33.125,82.471L33.194,81.114L33.262,81.614L33.33,81.386L33.399,81.114L33.467,81.357L33.536,81.171L33.604,80.343L33.673,81.271L33.741,81.914L33.81,82.186L33.878,82.614L33.946,82.957L34.015,82.629L34.083,82.4L34.152,83.614L34.22,84.9L34.289,85.114L34.357,85.3L34.426,85.743L34.494,84.871L34.563,84.2L34.631,84.943L34.699,86.1L34.768,87.057L34.836,87.786L34.905,87.814L34.973,88.471L35.042,87.414L35.11,87.929L35.179,88.514L35.247,90.2L35.315,91.186L35.384,91.971L35.452,91.7L35.521,91.157L35.589,91.586L35.658,91.271L35.726,91.014L35.795,91.843L35.863,92.357L35.931,92.729L36,92.514L36.068,93.3L36.137,94.271L36.205,94.829L36.274,94.929L36.342,94.757L36.411,94.6L36.479,94.6L36.547,95.443L36.616,96.771L36.684,96.543L36.753,96.586L36.821,96.743L36.89,96.686L36.958,96.8L37.027,96.286L37.095,96.771L37.163,96.929L37.232,97.057L37.3,97.514L37.369,97.229L37.437,96.857L37.506,97.257L37.574,98.2L37.643,98.514L37.711,100.114L37.779,100.957L37.848,100.929L37.916,100.329L37.985,100.014L38.053,101.014L38.122,100.314L38.19,99.957L38.259,99.686L38.327,99.171L38.396,99.2L38.464,99.6L38.532,99.757L38.601,99.271L38.669,98.357L38.738,98.314L38.806,98.143L38.875,97.557L38.943,97.343L39.012,97.571L39.08,97.971L39.148,98.271L39.217,98.3L39.285,98.314L39.354,97.414L39.422,97.171L39.491,97.086L39.559,96.771L39.628,96.529L39.696,96.043L39.764,95.3L39.833,93.886L39.901,93L39.97,93.257L40.038,93.3L40.107,92.343L40.175,92.486L40.244,91.086L40.312,89.957L40.38,89.514L40.449,89.286L40.517,88.943L40.586,89.243L40.654,89.5L40.723,89.086L40.791,88.757L40.86,88.543L40.928,88.757L40.996,88.8L41.065,88.386L41.133,88.1L41.202,87.429L41.27,87.043L41.339,87.129L41.407,87.957L41.476,88.386L41.544,88.8L41.612,88.543L41.681,86.943L41.749,85.757L41.818,85.914L41.886,86.257L41.955,86.686L42.023,86.843L42.092,87.043L42.16,86.771L42.228,85.914L42.297,86.357L42.365,87L42.434,87.114L42.502,86.771L42.571,86.243L42.639,84.686L42.708,83.229L42.776,82.614L42.845,81.957L42.913,81.343L42.981,80.786L43.05,80.4L43.118,79.343L43.187,78.314L43.255,78.157L43.324,77.757L43.392,77.043L43.461,76.243L43.529,75.186L43.597,73.529L43.666,72.4L43.734,73.5L43.803,74.329L43.871,74.071L43.94,74.243L44.008,73.814L44.077,72.057L44.145,70.143L44.213,69.557L44.282,69.343L44.35,69.5L44.419,69.514L44.487,69.157L44.556,67.771L44.624,66.529L44.693,66.971L44.761,67.871L44.829,68.529L44.898,68.757L44.966,68.786L45.035,67.829L45.103,66.443L45.172,66.8L45.24,67.457L45.309,67.529L45.377,67.343L45.445,66.957L45.514,66.614L45.582,65.6L45.651,66.7L45.719,67.943L45.788,67.914L45.856,67.9L45.925,68.029L45.993,67.257L46.061,66.6L46.13,67.757L46.201,69.586L46.27,70.143L46.338,71.186L46.407,71.6L46.475,70.714L46.543,69.9L46.612,70.957L46.68,72.757L46.749,72.729L46.817,72.571L46.886,72.357L46.954,71.871L47.023,70.729L47.091,71.457L47.159,72.643L47.228,72.843L47.296,72.771L47.365,72.9L47.433,72.786L47.502,72.486L47.57,72.143L47.639,73.3L47.707,72.5L47.775,71.443L47.844,70.614L47.912,69.886L47.981,69.657L48.049,69.314L48.118,69.8L48.186,69.757L48.255,68.786L48.323,67.943L48.392,66.786L48.46,65.371L48.528,65.4L48.597,66.486L48.665,66.743L48.734,66.286L48.802,66.543L48.871,66.314L48.939,64.571L49.008,64.3L49.076,64.957L49.144,65.014L49.213,64.986L49.281,64.586L49.35,64.129L49.418,63.171L49.487,63.429L49.555,64.457L49.624,65.1L49.692,65.243L49.76,65.7L49.829,65.386L49.897,65.143L49.966,65.743L50.034,65.643L50.103,66.714L50.171,67.057L50.24,67.543L50.308,67.386L50.376,67.214L50.445,68.057L50.513,69.229L50.582,69.829L50.65,70.057L50.719,69.9L50.787,68.871L50.856,67.786L50.924,68.043L50.992,69.471L51.061,70.486L51.129,71.086L51.198,70.8L51.266,69.829L51.335,68.471L51.403,67.929L51.472,68.2L51.54,68.343L51.608,67.214L51.677,66.286L51.745,65.029L51.814,63.714L51.882,64.743L51.951,65.386L52.019,65.486L52.088,65.6L52.156,65.586L52.225,64.986L52.293,63.214L52.361,63.571L52.43,64.514L52.498,64.414L52.567,64.357L52.635,64.271L52.704,62.629L52.772,61.771L52.841,62.429L52.909,62.857L52.977,62.9L53.046,63.414L53.114,63.2L53.183,62.614L53.251,61.429L53.32,62.1L53.388,63.514L53.457,63.557L53.525,63.986L53.593,64.129L53.662,63.986L53.73,63.571L53.799,64.386L53.867,65.614L53.936,65.886L54.004,65.914L54.073,65.429L54.141,64.743L54.209,63.571L54.278,63.357L54.346,63.657L54.415,63.4L54.483,62.829L54.552,62.486L54.62,61.514L54.689,60.4L54.757,61.2L54.823,61.743L54.891,62.014L54.96,62.843L55.028,62.786L55.096,61.871L55.165,61.029L55.233,61.371L55.302,62.943L55.37,63.386L55.439,63.486L55.507,64.9L55.576,64.357L55.644,64.229L55.712,65.457L55.781,66.929L55.849,67.843L55.918,68.5L55.986,68.343L56.055,67.9L56.123,67.614L56.192,68.571L56.26,69.929L56.328,71.486L56.397,73.114L56.465,74.543L56.534,75.186L56.602,75.714L56.671,77.029L56.739,78.443L56.808,79.443L56.876,80.471L56.944,81.243L57.013,80.186L57.081,79.086L57.15,79.543L57.218,80.6L57.287,80.686L57.355,80.7L57.424,80.171L57.492,79.757L57.56,78.829L57.629,79.614L57.697,79.843L57.766,80.314L57.834,80.586L57.903,81L57.971,81.114L58.04,81.271L58.108,81.643L58.176,82.943L58.245,83.229L58.313,83L58.382,83L58.45,82.671L58.519,81.429L58.587,81.471L58.656,81.814L58.724,81.814L58.792,81.186L58.861,81.129L58.929,80.914L58.998,79.9L59.066,81L59.135,82.171L59.203,82.486L59.272,82.371L59.34,82.986L59.409,82.9L59.477,83.5L59.545,84.857L59.614,86.443L59.682,87.057L59.751,87.7L59.819,87.443L59.888,86.643L59.956,85.271L60.025,85.129L60.093,85.257L60.161,85.729L60.23,85.457L60.298,85.8L60.367,86.086L60.435,86.071L60.504,86.529L60.572,87.286L60.641,86.729L60.709,86.843L60.777,87.029L60.846,87.657L60.914,87.486L60.983,87.529L61.051,88.229L61.12,88.629L61.188,89.2L61.257,89.971L61.325,90.443L61.393,90.143L61.462,90.929L61.53,91.286L61.599,91.186L61.667,90.457L61.736,90.229L61.804,89.671L61.873,89.314L61.941,89.971L62.009,90.686L62.078,90.9L62.146,91.3L62.215,91.757L62.283,92.286L62.352,91.871L62.42,92.1L62.489,91.729L62.557,91.386L62.625,92.071L62.694,93.414L62.762,93.4L62.831,93.229L62.899,93.8L62.968,94.329L63.036,94.786L63.105,95.357L63.173,95.371L63.242,95.271L63.31,94.557L63.378,94.3L63.447,94.143L63.515,93.8L63.584,94.086L63.652,94.143L63.721,94.3L63.789,93.529L63.858,93.786L63.926,93.914L63.994,94.157L64.063,94.114L64.131,94.071L64.2,93.743L64.268,93.243L64.337,93.229L64.405,93.671L64.474,94.114L64.542,94.643L64.61,95.2L64.679,94.557L64.747,94.157L64.816,94.357L64.884,94.886L64.953,94.957L65.021,95.171L65.09,95.429L65.158,94.143L65.226,92.857L65.295,91.829L65.363,91.471L65.432,91.414L65.5,91.6L65.569,91.571L65.637,90.714L65.706,90.271L65.774,90.529L65.842,91.571L65.911,91.443L65.979,91.557L66.048,91.443L66.116,91.1L66.185,89.771L66.253,89.614L66.322,89.729L66.39,89.4L66.458,88.986L66.527,88.143L66.595,87.271L66.664,85.971L66.732,85.914L66.801,85.829L66.869,85.9L66.938,85.4L67.006,85.071L67.074,83.114L67.143,81.4L67.211,81.457L67.28,82.1L67.348,83.157L67.417,83.714L67.485,83.986L67.554,82.986L67.622,81.286L67.691,80.986L67.759,80.6L67.827,79.929L67.896,79.1L67.964,78.886L68.033,77.857L68.101,76.829L68.17,76.857L68.238,77.586L68.307,77.071L68.375,77L68.443,76.657L68.512,75.314L68.58,74.014L68.649,73.657L68.717,74.371L68.786,74.486L68.854,74.314L68.923,73.943L68.991,72.486L69.059,70.514L69.128,71.271L69.196,71.971L69.265,72.371L69.333,72.471L69.402,72.243L69.47,70.886L69.539,69.3L69.607,69.329L69.675,70.671L69.744,70.886L69.812,71.171L69.881,71.271L69.949,70.371L70.018,69.129L70.086,70.043L70.155,70.471L70.223,70.543L70.291,70.271L70.36,69.586L70.428,68.2L70.497,67.5L70.565,68.2L70.634,69.014L70.702,68.971L70.771,68.571L70.839,67.9L70.907,66.8L70.976,65.557L71.044,66.557L71.116,67.886L71.184,68.257L71.253,68.4L71.321,68.557L71.389,67.629L71.458,66.314L71.526,67.2L71.595,67.857L71.663,68.486L71.732,68.857L71.8,68.957L71.869,68.4L71.937,67.643L72.005,68.414L72.074,69.371L72.142,69.014L72.211,69.157L72.279,69.6L72.348,69.886L72.416,70.457L72.485,71.357L72.553,71.714L72.621,71.757L72.69,71.671L72.758,71.586L72.827,71.2L72.895,70.143L72.964,71.071L73.032,71.471L73.101,71.1L73.169,71.257L73.238,71.1L73.306,70.2L73.374,69.3L73.443,69.386L73.511,70.2L73.58,70.5L73.648,71.7L73.717,71.357L73.785,70.414L73.854,69.243L73.922,69.6L73.99,69.971L74.059,70.4L74.127,70.343L74.196,70.629L74.264,69.929L74.333,68.757L74.401,67.914L74.47,68.029L74.538,68.557L74.606,69.643L74.675,70.029L74.743,69.329L74.812,68.757L74.88,68.257L74.949,69.486L75.017,69.471L75.086,69.357L75.154,69.557L75.222,68.729L75.291,67.257L75.359,67.829L75.428,68L75.496,68.986L75.565,69.257L75.633,69.2L75.702,67.771L75.77,67.229L75.838,67.6L75.907,68.671L75.975,68.5L76.044,67.914L76.112,67.757L76.181,67.4L76.249,66.429L76.318,66.571L76.386,67.129L76.454,67.229L76.523,67.3L76.591,66.8L76.66,64.943L76.728,63.5L76.797,64.743L76.865,65.571L76.934,66.743L77.002,66.943L77.07,66.686L77.139,66.643L77.207,65.771L77.276,66L77.344,67.286L77.413,67.771L77.481,68.571L77.55,68.043L77.618,67.229L77.687,66.129L77.755,66.757L77.823,67.471L77.892,67.614L77.96,68.143L78.029,68.714L78.097,68.357L78.166,66.971L78.234,67.343L78.303,68.471L78.371,68.971L78.439,69.2L78.508,70.214L78.576,69.386L78.645,68.771L78.713,69.6L78.782,70.843L78.85,70.843L78.919,70.814L78.987,70.543L79.055,69.371L79.124,68.514L79.192,68.114L79.261,67.7L79.329,68.114L79.398,68.114L79.466,67.643L79.535,66.643L79.603,66.514L79.671,67.329L79.737,68.257L79.805,68.3L79.874,68.529L79.942,68.429L80.011,67.771L80.079,66.471L80.148,67.814L80.216,69.129L80.285,69.3L80.353,69.157L80.422,69.014L80.49,68.014L80.558,67.014L80.627,67.6L80.695,67.743L80.764,68.4L80.832,68.114L80.901,67.557L80.969,66.957L81.038,65.814L81.106,66.657L81.174,67.471L81.243,68.371L81.311,68.986L81.38,68.857L81.448,68.686L81.517,68.043L81.585,68.286L81.654,68.4L81.722,67.9L81.79,67.771L81.859,68.071L81.927,67.357L81.996,66.486L82.064,66.2L82.133,66.829L82.201,66.729L82.27,66.943L82.338,67.3L82.406,66.757L82.475,66.643L82.543,68.1L82.612,69.057L82.68,69.643L82.749,70.486L82.817,70.229L82.886,70.371L82.954,70.829L83.022,71.543L83.091,72.714L83.159,73.214L83.228,73.914L83.296,74.414L83.365,75.286L83.433,75.071L83.502,75.771L83.57,76.543L83.638,77.386L83.707,78.357L83.775,79.5L83.844,79.3L83.912,79.1L83.981,79.786L84.049,81.129L84.118,81.714L84.186,82.157L84.255,82.414L84.323,82.171L84.391,81.729L84.46,82.443L84.528,83.171L84.597,82.686L84.665,82.9L84.734,83.171L84.802,82.614L84.871,82.343L84.939,82.957L85.007,83.3L85.076,83.629L85.144,84.557L85.213,85.557L85.281,86.1L85.35,86.157L85.418,86.271L85.487,87.2L85.555,87.343L85.623,86.571L85.692,86.257L85.76,85.771L85.829,85.229L85.897,86.214L85.966,86.857L86.034,87.871L86.103,88.457L86.171,89.171L86.239,89.4L86.308,89.6L86.376,90.414L86.445,91.243L86.513,91.743L86.582,91.929L86.65,92.971L86.719,93.471L86.787,93.729L86.855,94.714L86.924,95.243L86.992,95.086L87.061,95.543L87.129,96L87.198,95.614L87.266,94.786L87.335,94.543L87.403,95.029L87.471,95.671L87.54,96.029L87.608,96.229L87.677,97.314L87.745,97.929L87.814,98.5L87.882,98.686L87.951,98.586L88.019,98.357L88.087,98.071L88.156,97.814L88.224,97.157L88.293,97.314L88.361,97.214L88.43,96.671L88.498,96.629L88.567,96.471L88.635,95.943L88.704,95.471L88.772,94.957L88.84,95.029L88.909,95.1L88.977,94.943L89.046,94.843L89.114,93.914L89.183,93.1L89.251,92.414L89.32,91.886L89.388,91.086L89.456,90.286L89.525,89.929L89.593,89.457L89.662,88.857L89.73,88.043L89.799,87.557L89.867,87.057L89.936,87.129L90.004,86.629L90.072,85.557L90.141,83.971L90.209,83.157L90.278,83.186L90.346,82.8L90.415,82.329L90.483,82.229L90.552,80.957L90.62,79.886L90.688,79.9L90.757,79.386L90.825,79.171L90.894,78.271L90.962,77.9L91.031,77.257L91.099,76.771L91.168,77.557L91.236,77.929L91.304,78.686L91.373,78.957L91.441,79.271L91.51,78.843L91.578,78.3L91.647,77.243L91.715,77.329L91.784,78.257L91.852,78.071L91.92,77.671L91.989,76.329L92.057,75L92.126,75.1L92.194,75.743L92.263,75.2L92.331,75.086L92.4,75.186L92.468,74.471L92.537,72.914L92.605,72.943L92.673,73.057L92.742,73.029L92.81,72.929L92.879,72.571L92.947,71.914L93.016,70.171L93.084,70.086L93.153,69.986L93.221,69.014L93.289,68.343L93.358,67.171L93.426,65.814L93.495,64.7L93.563,64.4L93.632,63.886L93.7,64.671L93.769,64.486L93.837,64.2L93.905,63.186L93.974,61.814L94.042,62.543L94.111,63.286L94.179,63.486L94.248,63.771L94.316,64.371L94.385,63.471L94.453,61.9L94.521,61.986L94.59,63.571L94.658,63.957L94.727,63.757L94.795,63.771L94.864,63.129L94.932,62.429L95.001,62.843L95.069,64.514L95.137,65.214L95.206,65.657L95.274,65.743L95.343,65.286L95.411,64.571L95.48,65.529L95.548,66.114L95.617,66.643L95.685,66.629L95.753,66.243L95.822,65.586L95.89,64.043L95.959,64.2L96.03,65.686L96.099,65.671L96.167,65.914L96.235,65.929L96.304,64.529L96.372,63.214L96.441,63.686L96.509,64.986L96.578,65.186L96.646,64.586L96.715,64.586L96.783,64.214L96.851,63.471L96.92,63.571L96.988,63.571L97.057,63.7L97.125,63.1L97.194,62.314L97.262,60.443L97.331,58.986L97.399,58.914L97.467,59.514L97.536,58.7L97.604,58.243L97.673,57.586L97.741,57L97.81,55.571L97.878,54.557L97.947,55.229L98.015,54.929L98.084,54.257L98.152,54.014L98.22,53.071L98.289,51.114L98.357,51.557L98.426,52.443L98.494,52.857L98.563,52.343L98.631,52.686L98.7,52.071L98.768,50.643L98.836,50.686L98.905,51.086L98.973,51.657L99.042,52.543L99.11,52.771L99.179,50.957L99.247,50.314L99.316,50.886L99.384,51.814L99.452,52.086L99.521,52.429L99.589,53.1L99.658,52.614L99.726,51.729L99.795,52.557L99.863,53.443L99.932,55.029L100,55.471L100.068,56.186L100.137,54.871L100.205,54.1L100.274,55.057L100.342,57.2L100.411,57.871L100.479,58.243L100.548,58.243L100.616,57.614L100.684,55.886L100.753,56.157L100.821,57.771L100.89,58.129L100.958,58.186L101.027,57.657L101.095,56.214L101.164,54.671L101.232,55.771L101.3,56.043L101.369,56.286L101.437,55.943L101.506,56.014L101.574,55.129L101.643,53.829L101.711,54.414L101.78,55.414L101.848,54.971L101.916,55.843L101.985,55.157L102.053,53.457L102.122,52.329L102.19,54L102.259,55.114L102.327,55.543L102.396,55.143L102.464,54.7L102.533,53.529L102.601,51.971L102.669,51.943L102.738,53.129L102.806,53.2L102.875,52.671L102.943,52.557L103.012,51.671L103.08,51.357L103.149,51.386L103.217,51.657L103.285,51.514L103.354,51.229L103.422,51.971L103.491,51.386L103.559,50.2L103.628,50.471L103.696,51.171L103.765,50.443L103.833,49.871L103.901,49.743L103.97,48.043L104.038,47.9L104.107,48.229L104.175,47.786L104.244,47.129L104.312,45.6L104.381,44.314L104.449,44.014L104.517,43.243L104.586,42.771L104.651,42.7L104.72,42.586L104.788,42.071L104.857,41.086L104.925,40.229L104.994,38.086L105.062,37.7L105.131,37.171L105.199,36.986L105.268,36.357L105.336,36.257L105.404,36.271L105.473,34.929L105.541,34.6L105.61,34.986L105.678,34.457L105.747,33.371L105.815,33.114L105.884,32.686L105.952,31.843L106.02,31.386L106.089,31.271L106.157,31.114L106.226,31.6L106.294,30.6L106.363,31.143L106.431,31.2L106.5,30.629L106.568,30.129L106.636,30.043L106.705,30.1L106.773,30.171L106.842,30.257L106.91,30.529L106.979,30.186L107.047,30.986L107.116,30.514L107.184,29.571L107.252,30.086L107.321,30.786L107.389,30.586L107.458,29.686L107.526,29.614L107.595,29.529L107.663,28.986L107.732,28.571L107.8,28.643L107.868,27.871L107.937,27.729L108.005,28.1L108.074,28.771L108.142,28.986L108.211,29.457L108.279,29.929L108.348,30.529L108.416,30.171L108.484,30.5L108.553,30.714L108.621,32.1L108.69,33.6L108.758,34.529L108.827,35L108.895,35.3L108.964,36.329L109.032,37.557L109.101,38.743L109.169,39.7L109.237,40.614L109.306,39.557L109.374,38.686L109.443,37.543L109.511,36.371L109.58,35.3L109.648,34.343L109.717,32.071L109.785,28.4L109.853,27.843L109.922,28.8L109.99,29.529L110.059,30.014L110.127,30.029L110.196,28.257L110.264,27.457L110.333,27.386L110.401,27.643L110.469,28.9L110.538,28.986L110.606,29.186L110.675,26.729L110.743,25.157L110.812,26.014L110.88,27.243L110.949,28.114L111.017,28.943L111.085,29.814L111.154,30.2L111.222,31.2L111.291,33.171L111.359,35.329L111.428,37.657L111.496,40L111.565,43.129L111.633,45.571L111.701,48.786L111.77,52.929L111.838,58.686L111.907,61.314L111.975,63.043L112.044,64.343L112.112,65.086L112.181,66.557L112.249,69.286L112.317,71.529L112.386,73.029L112.454,74.3L112.523,74.614L112.591,74.943L112.66,76.2L112.728,79.429L112.797,81.257L112.865,81.143L112.933,80.243L113.002,79.957L113.07,79.114L113.139,78.271L113.207,78.514L113.276,78.429L113.344,77.771L113.413,77.371L113.481,77.314L113.55,77.129L113.618,76.943L113.686,76.386L113.755,75.557L113.823,75.014L113.892,74.271L113.96,73.757L114.029,73.386L114.097,73.1L114.166,73.2L114.234,73.186L114.302,73.057L114.371,72.814L114.439,72.514L114.508,71.614L114.576,71.214L114.645,70.786L114.713,69.671L114.782,68.957L114.85,69.129L114.918,69.129L114.987,69.514L115.055,69.114L115.124,68.971L115.192,69.214L115.261,68.9L115.329,68.9L115.398,68.786L115.466,68.5L115.534,67.157L115.603,66.914L115.671,66.314L115.74,66.186L115.808,65.857L115.877,65.643L115.945,65.5L116.014,64.743L116.082,63.529L116.15,62.6L116.219,61.771L116.287,60.914L116.356,60.257L116.424,59.414L116.493,58.229L116.561,58.457L116.63,58.171L116.698,58.086L116.766,58.271L116.835,57.971L116.903,56.729L116.972,55.571L117.04,54.729L117.109,54.329L117.177,54.071L117.246,53.029L117.314,52.029L117.383,50.7L117.451,49.486L117.519,48.714L117.588,48.557L117.656,48.414L117.725,48.5L117.793,48.471L117.862,47.914L117.93,46.871L117.999,46.343L118.067,46.014L118.135,46.057L118.204,45.943L118.272,45.329L118.341,44.686L118.409,43.371L118.478,42.914L118.546,42.871L118.615,42L118.683,41.171L118.751,41.1L118.82,40.443L118.888,39.571L118.957,40L119.025,40.3L119.094,40.414L119.162,40.957L119.231,40.986L119.299,41.429L119.367,41.329L119.436,41.743L119.504,42.614L119.573,43.071L119.641,43.143L119.71,42.986L119.778,42.057L119.847,41.243L119.915,41.971L119.983,42.886L120.052,43.257L120.12,43.786L120.189,44L120.257,44.457L120.326,44.2L120.394,44.7L120.463,45.3L120.531,46.186L120.599,46.571L120.668,47.457L120.736,47.229L120.805,46.614L120.873,46.714L120.945,47.371L121.013,47.586L121.081,47.343L121.15,47.357L121.218,46.529L121.287,45.371L121.355,44.643L121.424,45.314L121.492,45.386L121.561,44.214L121.629,44.186L121.697,43.971L121.766,43.943L121.834,44.5L121.903,45.686L121.971,45.2L122.04,44.9L122.108,44.586L122.177,43.643L122.245,42.786L122.313,41.971L122.382,42.529L122.45,42.443L122.519,43.357L122.587,43.329L122.656,42.557L122.724,41.286L122.793,41.843L122.861,41.771L122.93,41.357L122.998,41.6L123.066,40.743L123.135,40.571L123.203,39.829L123.272,39.671L123.34,40.357L123.409,40.171L123.477,39.914L123.546,39.729L123.614,40.014L123.682,39.343L123.751,39.429L123.819,39.157L123.888,39.171L123.956,38.143L124.025,37.886L124.093,37.957L124.162,37.786L124.23,38.471L124.298,38.886L124.367,39.243L124.435,39.371L124.504,38.886L124.572,37.729L124.641,36.243L124.709,36.1L124.778,36.414L124.846,36.3L124.914,36.771L124.983,36.771L125.051,35.3L125.12,34.471L125.188,34.5L125.257,34.271L125.325,33.957L125.394,33.786L125.462,34.143L125.53,33.371L125.599,32.714L125.667,32.386L125.736,32.5L125.804,32.857L125.873,33L125.941,32.514L126.01,32.157L126.078,31.543L126.146,30.986L126.215,30.571L126.283,30.043L126.352,29.929L126.42,29.414L126.489,29.071L126.557,28.686L126.626,29.286L126.694,30.186L126.762,31.114L126.831,31.486L126.899,31.386L126.968,30.729L127.036,30.143L127.105,30.886L127.173,31.929L127.242,31.943L127.31,32.671L127.379,33.086L127.447,32.786L127.515,32.814L127.584,33.214L127.652,34.129L127.721,35.171L127.789,35.971L127.858,36.014L127.926,35.943L127.995,36.2L128.063,36.371L128.131,36.929L128.2,37.243L128.268,38.071L128.337,38.529L128.405,38.586L128.474,38.729L128.542,39.029L128.611,39.886L128.679,39.486L128.747,39.543L128.816,39.257L128.884,38.786L128.953,38.471L129.021,38.943L129.09,40.057L129.158,40.8L129.227,40.786L129.295,40.843L129.363,40.743L129.432,41.3L129.5,42.529L129.569,42.7L129.637,43.471L129.706,43.9L129.774,43.9L129.843,43.857L129.911,42.871L129.979,42.4L130.045,42.457L130.114,42.814L130.182,43.657L130.25,44L130.319,43.786L130.387,43.457L130.456,43.971L130.524,45.014L130.593,45.314L130.661,45.257L130.73,45.814L130.798,45.5L130.866,44.971L130.935,45.129L131.003,45.471L131.072,46L131.14,46.514L131.209,46.6L131.277,46.714L131.346,46.529L131.414,46.829L131.482,47.014L131.551,46.271L131.619,46.9L131.688,46.714L131.756,45.7L131.825,45.143L131.893,44.914L131.962,45.229L132.03,45.414L132.098,45.714L132.167,46.729L132.235,46.914L132.304,47.071L132.372,47.6L132.441,48.129L132.509,48.271L132.578,48.529L132.646,48.829L132.714,49.657L132.783,50.1L132.851,50.814L132.92,51.671L132.988,52.871L133.057,53.686L133.125,53.886L133.194,52.857L133.262,51.686L133.33,50.957L133.399,51.343L133.467,51.343L133.536,51.114L133.604,51.343L133.673,51.071L133.741,51.2L133.81,52.214L133.878,53.014L133.946,54.386L134.015,55.914L134.083,56.586L134.152,56.5L134.22,55.286L134.289,55.329L134.357,55.929L134.426,55.271L134.494,54.929L134.563,54.714L134.631,54.314L134.699,53.771L134.768,53.971L134.836,53.743L134.905,53.557L134.973,53.114L135.042,52.557L135.11,51.786L135.179,51.029L135.247,52.414L135.315,54.143L135.384,55.886L135.452,56.529L135.521,57.071L135.589,56.243L135.658,53.514L135.726,52.386L135.795,53L135.863,53.329L135.931,54.314L136,53.843L136.068,53.3L136.137,53.5L136.205,54.029L136.274,55.3L136.342,55.657L136.411,56.143L136.479,57.871L136.547,59.3L136.616,60.171L136.684,60.671L136.753,61.757L136.821,61.843L136.89,62.229L136.958,62.914L137.027,63.471L137.095,63.943L137.163,64.986L137.232,66.629L137.3,66.929L137.369,66.814L137.437,66.786L137.506,66.929L137.574,66.214L137.643,67.471L137.711,70.743L137.779,72.557L137.848,72L137.916,72.143L137.985,71.8L138.053,71.571L138.122,71.486L138.19,72.043L138.259,73.043L138.327,73.671L138.396,74.157L138.464,73.929L138.532,72.929L138.601,72.643L138.669,73.171L138.738,73.714L138.806,73.957L138.875,74L138.943,74.229L139.012,73.814L139.08,73.657L139.148,73.529L139.217,73.371L139.285,73.029L139.354,72.914L139.422,73.1L139.491,73.243L139.559,73.186L139.628,73.8L139.696,73.757L139.764,73.814L139.833,73.786L139.901,73.657L139.97,72.529L140.038,71.457L140.107,70.914L140.175,71.386L140.244,70.914L140.312,70.129L140.38,69L140.449,68.029L140.517,68.457L140.586,68.729L140.654,68.871L140.723,68.2L140.791,67.429L140.86,66.4L140.928,65.714L140.996,65.114L141.065,65.6L141.133,65.714L141.202,65.829L141.27,65.729L141.339,64.7L141.407,63.029L141.476,62.486L141.544,61.786L141.612,61.071L141.681,60.743L141.749,60.343L141.818,59.614L141.886,58.414L141.955,58.357L142.023,58.714L142.092,58.614L142.16,58.943L142.228,58.871L142.297,58.486L142.365,56.814L142.434,56.643L142.502,56.329L142.571,55.071L142.639,54.8L142.708,54.286L142.776,53.543L142.845,52.014L142.913,52L142.981,52.014L143.05,51.714L143.118,51.286L143.187,51L143.255,49.571L143.324,47.829L143.392,47.7L143.461,47.829L143.529,47.3L143.597,47.186L143.666,46.943L143.734,45.986L143.803,45.114L143.871,45.2L143.94,45.257L144.008,44.757L144.077,44.229L144.145,44.514L144.213,43.743L144.282,42.371L144.35,42.3L144.419,43.657L144.487,43.943L144.556,43.743L144.624,44.057L144.693,43.057L144.761,42.014L144.829,42.057L144.898,42.486L144.966,42.286L145.035,42.129L145.103,42.286L145.172,40.943L145.24,39.814L145.309,40.114L145.377,41.4L145.445,41.671L145.514,42.271L145.582,42.343L145.651,41.5L145.719,40.7L145.788,40.814L145.856,41.5L145.925,41.314L145.993,41.957L146.061,42.5L146.13,42.3L146.198,41.114L146.267,41.357L146.338,41.543L146.407,41.657L146.475,41.229L146.543,41.014L146.612,39.986L146.68,38.686L146.749,38.714L146.817,39.086L146.886,38.929L146.954,39.229L147.023,39.471L147.091,38.114L147.159,36.886L147.228,37.057L147.296,37.857L147.365,38.057L147.433,37.643L147.502,36.771L147.57,36.386L147.639,36.129L147.707,36.257L147.775,36.2L147.844,35.6L147.912,35.114L147.981,35.129L148.049,34.514L148.118,33.3L148.186,32.971L148.255,33.714L148.323,33.471L148.392,34.3L148.46,34.071L148.528,32.971L148.597,31.614L148.665,32.543L148.734,32.8L148.802,32.971L148.871,33.043L148.939,32.671L149.008,31.043L149.076,29.571L149.144,29.443L149.213,29.643L149.281,30.1L149.35,29.457L149.418,28.757L149.487,27.171L149.555,26.729L149.624,26L149.692,25.757L149.76,25.729L149.829,26.371L149.897,26.986L149.966,27.7L150.034,26.086L150.103,25.657L150.171,25.714L150.24,26.171L150.308,26.186L150.376,26.071L150.445,24.5L150.513,23.629L150.582,24.214L150.65,24.986L150.719,25.4L150.787,25.829L150.856,26.186L150.924,25.771L150.992,25L151.061,26.257L151.129,26.957L151.198,27.757L151.266,28.643L151.335,28.786L151.403,29.043L151.472,28.857L151.54,29.729L151.608,30.443L151.677,30.957L151.745,30.786L151.814,30.857L151.882,29.714L151.951,28.914L152.019,28.186L152.088,29.929L152.156,30.657L152.225,31.486L152.293,31.986L152.361,31L152.43,31.114L152.498,32.457L152.567,33.414L152.635,33.657L152.704,34.186L152.772,34.443L152.841,33.614L152.909,32.3L152.977,32.343L153.046,33.543L153.114,33.943L153.183,33.843L153.251,34.757L153.32,34.171L153.388,33.429L153.457,33.9L153.525,34.971L153.593,35.571L153.662,36.357L153.73,36.214L153.799,36.229L153.867,36.157L153.936,37.157L154.004,38.143L154.073,38.471L154.141,38.543L154.209,38.429L154.278,38.186L154.346,37.429L154.415,38.314L154.483,38.657L154.552,38.657L154.62,38.271L154.689,38.5L154.757,37.157L154.825,36.2L154.894,36.886L154.96,38.257L155.028,39.329L155.096,39.971L155.165,39.957L155.233,40.543L155.302,39.843L155.37,40L155.439,40.186L155.507,39.9L155.576,39.5L155.644,39.986L155.712,39.271L155.781,39.086L155.849,39.8L155.918,40.1L155.986,40.329L156.055,40.671L156.123,41.1L156.192,40.657L156.26,40.186L156.328,39.4L156.397,39.586L156.465,39.743L156.534,39.629L156.602,39.571L156.671,39.4L156.739,38.9L156.808,40.1L156.876,40.671L156.944,40.786L157.013,40.871L157.081,40.143L157.15,38.629L157.218,37.186L157.287,37.086L157.355,36.943L157.424,37L157.492,36.814L157.56,36.743L157.629,35.2L157.697,35.071L157.766,35.786L157.834,35.986L157.903,35.886L157.971,35.586L158.04,36L158.108,36.086L158.176,35.771L158.245,36.029L158.313,37.514L158.382,39.543L158.45,40.671L158.519,40.786L158.587,40.743L158.656,40.814L158.724,41.871L158.792,42.914L158.861,43.171L158.929,43.7L158.998,44.786L159.066,45.1L159.135,45.529L159.203,47.357L159.272,49.586L159.34,50.686L159.409,52.014L159.477,53.057L159.545,54.657L159.614,55.057L159.682,57.043L159.751,57.743L159.819,57.829L159.888,58.671L159.956,59.629L160.025,60.414L160.093,60.529L160.161,61.414L160.23,61.943L160.298,62.671L160.367,62.486L160.435,62.4L160.504,62.443L160.572,62.357L160.641,61.329L160.709,61.657L160.777,62.343L160.846,62.514L160.914,63.029L160.983,62.6L161.051,61.643L161.12,61.614L161.188,62.029L161.257,62.129L161.325,62.314L161.393,62.029L161.462,61.743L161.53,61.371L161.599,61.5L161.667,62.414L161.736,63.6L161.804,63.629L161.873,63.914L161.941,64.3L162.009,64.129L162.078,64.614L162.146,65.043L162.215,64.714L162.283,64.943L162.352,64.814L162.42,64.557L162.489,64.329L162.557,63.9L162.625,64.786L162.694,66.557L162.762,66.886L162.831,66.443L162.899,66.771L162.968,66.857L163.036,67.743L163.105,68.671L163.173,68.657L163.242,68.757L163.31,68.471L163.378,67.786L163.447,67.471L163.515,66.871L163.584,66.643L163.652,66.386L163.721,66.271L163.789,65.614L163.858,65.514L163.926,65.357L163.994,65.214L164.063,64.843L164.131,64.114L164.2,63.871L164.268,63.814L164.337,63.557L164.405,63L164.474,63.1L164.542,63L164.61,63.329L164.679,62.657L164.747,62.514L164.816,62.514L164.884,62.571L164.953,62.357L165.021,61.914L165.09,61.157L165.158,60.771L165.226,61.014L165.295,60.057L165.363,59.5L165.432,59.857L165.5,60.286L165.569,61.243L165.637,61.6L165.706,61.143L165.774,60.529L165.842,60.329L165.911,60.086L165.979,60.443L166.048,60.657L166.116,61.271L166.185,61.229L166.253,60.3L166.322,59.243L166.39,58.757L166.458,58.857L166.527,58.114L166.595,58.029L166.664,57.743L166.732,57.329L166.801,55.8L166.869,55.514L166.938,54.871L167.006,53.871L167.074,53.114L167.143,53.071L167.211,51.9L167.28,50.114L167.348,49.6L167.417,49.529L167.485,49.171L167.554,49.071L167.622,48.343L167.691,47.286L167.759,46.371L167.827,46.171L167.896,45.657L167.964,45.443L168.033,44.814L168.101,43.743L168.17,41.471L168.238,40.729L168.307,40.729L168.375,41.6L168.443,41.157L168.512,40.957L168.58,40.414L168.649,39.757L168.717,38.643L168.786,39.2L168.854,40.386L168.923,40.329L168.991,39.871L169.059,40.1L169.128,39.857L169.196,38.7L169.265,39.757L169.333,40.657L169.402,41.5L169.47,41.671L169.539,41.786L169.607,41.286L169.675,40.014L169.744,40.629L169.812,41.7L169.881,42.143L169.949,42.629L170.018,42.857L170.086,41.357L170.155,41.057L170.223,42.2L170.291,43.243L170.36,43.8L170.428,43.643L170.497,44.357L170.565,44.329L170.634,45.057L170.702,45.557L170.771,46.129L170.839,46.114L170.907,46.157L170.976,45.843L171.044,45.057L171.113,43.886L171.181,44.157L171.253,45.129L171.321,44.571L171.389,44.629L171.458,44.586L171.526,43.429L171.595,42L171.663,41.629L171.732,42.357L171.8,42.557L171.869,41.971L171.937,41.343L172.005,39.286L172.074,36.943L172.142,37.4L172.211,37.7L172.279,37.514L172.348,36.929L172.416,37.157L172.485,36.686L172.553,36.471L172.621,36L172.69,34.9L172.758,34.057L172.827,33.129L172.895,32.614L172.964,31.671L173.032,31.057L173.101,31.6L173.169,32.4L173.238,33.3L173.306,32.757L173.374,32.743L173.443,32.114L173.511,30.257L173.58,30.929L173.648,31.5L173.717,31.1L173.785,31.157L173.854,30.957L173.922,30.171L173.99,29.271L174.059,30.757L174.127,32.586L174.196,33.314L174.264,33.514L174.333,33.643L174.401,32.8L174.47,31.286L174.538,31.257L174.606,30.229L174.675,30.171L174.743,30.829L174.812,30.771L174.88,30.757L174.949,29.429L175.017,29.886L175.086,30.429L175.154,30.886L175.222,31.357L175.291,30.714L175.359,30.414L175.428,28.943L175.496,29.514L175.565,31.229L175.633,30.886L175.702,31.114L175.77,31.8L175.838,30.9L175.907,29.386L175.975,30.543L176.044,31.443L176.112,31.9L176.181,31.614L176.249,31.586L176.318,30.557L176.386,28.829L176.454,28.5L176.523,28.671L176.591,27.771L176.66,27.886L176.728,27.629L176.797,26.186L176.865,25.1L176.934,25.9L177.002,27.257L177.07,27.414L177.139,26.871L177.207,26.786L177.276,25.729L177.344,24.729L177.413,24.971L177.481,26.314L177.55,26.529L177.618,26.129L177.687,26.686L177.755,26.286L177.823,25.157L177.892,25.543L177.96,26.743L178.029,26.586L178.097,26.729L178.166,26.114L178.234,25.614L178.303,24.6L178.371,25.157L178.439,26.643L178.508,27.543L178.576,28.186L178.645,29.071L178.713,28.586L178.782,28.314L178.85,29.243L178.919,30.943L178.987,30.786L179.055,30.286L179.124,30.214L179.192,30.043L179.261,29.329L179.329,30.514L179.398,31.757L179.466,31.757L179.535,31.986L179.603,30.8L179.671,30.3L179.74,29.486L179.808,29.1L179.874,29.529L179.942,30.571L180.011,30.9L180.079,30.8L180.148,30.886L180.216,30.486L180.285,31.114L180.353,31.829L180.422,31.829L180.49,32.129L180.558,32.186L180.627,31.471L180.695,30.9L180.764,32.271L180.832,32.6L180.901,32.629L180.969,32.9L181.038,33.271L181.106,32.986L181.174,31.829L181.243,32.714L181.311,33.271L181.38,32.671L181.448,32.686L181.517,33.271L181.585,32.657L181.654,33.4L181.722,34.114L181.79,34.914L181.859,36.1L181.927,36.714L181.996,36.343L182.064,36.157L182.133,36.386L182.201,36.571L182.27,37.314L182.338,37.471L182.406,37.943L182.475,38.443L182.543,37.557L182.612,37.414L182.68,37.8L182.749,38.186L182.817,38.2L182.886,39.357L182.954,40.6L183.022,40.014L183.091,39.357L183.159,40.414L183.228,41.957L183.296,42.071L183.365,43.029L183.433,43.914L183.502,44.071L183.57,43.871L183.638,44.671L183.707,45.286L183.775,45.643L183.844,45.5L183.912,45.414L183.981,45.357L184.049,45.286L184.118,45.9L184.186,46.286L184.255,46.257L184.323,46.371L184.391,46.429L184.46,46.443L184.528,46.243L184.597,47.757L184.665,48.714L184.734,49.071L184.802,48.7L184.871,48.443L184.939,47.8L185.007,47.029L185.076,47.343L185.144,47.786L185.213,47.871L185.281,47.843L185.35,47.657L185.418,47.4L185.487,46.843L185.555,47.343L185.623,46.157L185.692,46.2L185.76,47.314L185.829,48.2L185.897,49.057L185.966,49L186.034,50.043L186.103,51.286L186.171,51.6L186.239,51.643L186.308,52.514L186.376,52.986L186.445,53.486L186.513,54.143L186.582,55.329L186.65,55.029L186.719,55.371L186.787,55.786L186.855,57.286L186.924,57.657L186.992,58.743L187.061,59.471L187.129,60.529L187.198,61.743L187.266,62.3L187.335,62.971L187.403,63.229L187.471,63.3L187.54,63.657L187.608,63.214L187.677,64.629L187.745,64.6L187.814,63.486L187.882,62.529L187.951,62.243L188.019,62.5L188.087,61.4L188.156,59.957L188.224,59.286L188.293,58.143L188.361,56.414L188.43,56.129L188.498,55.7L188.567,54.9L188.635,54.057L188.704,54.371L188.772,53.529L188.84,53.129L188.909,52.2L188.977,52.343L189.046,51.386L189.114,50.843L189.183,49.571L189.251,48.343L189.32,47.229L189.388,46.7L189.456,45.871L189.525,45.286L189.593,44.5L189.662,44.371L189.73,43.986L189.799,43.943L189.867,44.071L189.936,44.186L190.004,43.9L190.072,44.157L190.141,44.071L190.209,43.557L190.278,42.486L190.346,43.171L190.415,44.1L190.483,44.371L190.552,44.243L190.62,44.457L190.688,43.371L190.757,42.1L190.825,42.043L190.894,42.357L190.962,42.386L191.031,42.471L191.099,43.186L191.168,42.229L191.236,41.329L191.304,40.114L191.373,39.671L191.441,38.586L191.51,38.686L191.578,38.329L191.647,37.8L191.715,36.471L191.784,36.843L191.852,37.171L191.92,36.771L191.989,36.886L192.057,37.3L192.126,35.729L192.194,34.9L192.263,34.286L192.331,34.757L192.4,34.214L192.468,33.957L192.537,32.8L192.605,31.529L192.673,29.214L192.742,29.329L192.81,30.129L192.879,29.986L192.947,29.871L193.016,29.143L193.084,26.9L193.153,24.986L193.221,25.586L193.289,26.171L193.358,26.9L193.426,27.657L193.495,28.386L193.563,27.829L193.632,26.5L193.7,26.643L193.769,27.329L193.837,26.243L193.905,25L193.974,24.171L194.042,22.186L194.111,20.686L194.179,21.029L194.248,20.943L194.316,22.286L194.385,22.329L194.453,22.143L194.521,20.914L194.59,19.171L194.658,19.886L194.727,21.186L194.795,21.386L194.864,20.757L194.932,20.843L195.001,20.286L195.069,19.943L195.137,20.714L195.206,21.743L195.274,22L195.343,22.386L195.411,22.429L195.48,21.186L195.548,20.186L195.617,20.671L195.685,21.671L195.753,21.586L195.822,21.6L195.89,22.014L195.959,21.5L196.027,21.157L196.096,22.057L196.167,21.686L196.235,21.529L196.304,21.3L196.372,21.371L196.441,21.043L196.509,19.971L196.578,20.714L196.646,22.271L196.715,22.557L196.783,22.771L196.851,23.357L196.92,22.786L196.988,21.6L197.057,21.843L197.125,22.471L197.194,23.114L197.262,23.414L197.331,23.457L197.399,23.2L197.467,23.1L197.536,23.371L197.604,23.343L197.673,22.129L197.741,21.5L197.81,21.429L197.878,20.457L197.947,19.986L198.015,19.314L198.084,19.671L198.152,18.714L198.22,19.4L198.289,19.829L198.357,19.586L198.426,17.814L198.494,17.5L198.563,19.057L198.631,19.129L198.7,19.443L198.768,19.214L198.836,18.586L198.905,17.414L198.973,16.714L199.042,17.086L199.11,17.1L199.179,17.271L199.247,16.9L199.316,15.7L199.384,14.143L199.452,13.243L199.521,12.914L199.589,12.843L199.658,13.043L199.726,13.614L199.795,13.157L199.863,12.029L199.932,12.457L200,11.957L200.068,12.886L200.137,13.286L200.205,14.743L200.274,14.029L200.342,12.643L200.411,13.671L200.479,14.829L200.548,15.3L200.616,15.014L200.684,14.614L200.753,14.457L200.821,13.1L200.89,13.743L200.958,13.857L201.027,15.443L201.095,15.443L201.164,15.471L201.232,14.3L201.3,13.057L201.369,12.014L201.437,12.386L201.506,11.986L201.574,11.314L201.643,11.2L201.711,10.171L201.78,8.771L201.848,9.386L201.916,10.286L201.985,10.329L202.053,10.743L202.122,10.443L202.19,9.386L202.259,8L202.327,12.529" stroke="#4c78a8" stroke-width="2"/></g><g class="mark-group role-title"><g transform="translate(100,-17)"><path class="background" aria-hidden="true" d="M0,0h0v0h0Z" pointer-events="none"/><g><g class="mark-text role-title-text" role="graphics-symbol" aria-roledescription="title" aria-label="Title text 'Noise - Residential: Banging/Pounding'" pointer-events="none"><text text-anchor="middle" transform="translate(0,10)" font-family="sans-serif" font-size="13px" font-weight="bold" fill="#000" opacity="1">Noise - Residential: Banging/Pounding</text></g></g><path class="foreground" aria-hidden="true" d="" pointer-events="none" display="none"/></g></g></g><path class="foreground" aria-hidden="true" d="" display="none"/></g></g></g><defs><clipPath id="clip99"><rect x="0" y="0" width="200" height="150"/></clipPath></defs></svg>