<svg xmlns="http://www.w3.org/2000/svg" xmlns:xlink="http://www.w3.org/1999/xlink" version="1.1" class="marks" width="230" height="194" viewBox="0 0 230 194"><rect width="230" height="194" fill="white"/><g fill="none" stroke-miterlimit="10" transform="translate(24,22)"><g class="mark-group role-frame root" role="graphics-object" aria-roledescription="group mark container"><g transform="translate(0,0)"><path class="background" aria-hidden="true" d="M0,0h200v150h-200Z"/><g><g class="mark-group role-axis" aria-hidden="true"><g transform="translate(0.5,0.5)"><path class="background" aria-hidden="true" d="M0,0h0v0h0Z" pointer-events="none"/><g><g class="mark-rule role-axis-grid" pointer-events="none"><line transform="translate(0,150)" x2="200" y2="0" stroke="#ddd" stroke-width="1" opacity="1"/><line transform="translate(0,104)" x2="200" y2="0" stroke="#ddd" stroke-width="1" opacity="1"/><line transform="translate(0,58)" x2="200" y2="0" stroke="#ddd" stroke-width="1" opacity="1"/><line transform="translate(0,12)" x2="200" y2="0" stroke="#ddd" stroke-width="1" opacity="1"/></g></g><path class="foreground" aria-hidden="true" d="" pointer-events="none" display="none"/></g></g><g class="mark-group role-axis" role="graphics-symbol" aria-roledescription="axis" aria-label="X-axis for a time scale with values from Friday, 01 January 2016, 12:00:00 AM to Monday, 01 January 2024, 12:00:00 AM"><g transform="translate(0.5,150.5)"><path class="background" aria-hidden="true" d="M0,0h0v0h0Z" pointer-events="none"/><g><g class="mark-rule role-axis-tick" pointer-events="none"><line transform="translate(0,0)" x2="0" y2="5" stroke="#888" stroke-width="1" opacity="1"/><line transform="translate(50,0)" x2="0" y2="5" stroke="#888" stroke-width="1" opacity="1"/><line transform="translate(100,0)" x2="0" y2="5" stroke="#888" stroke-width="1" opacity="1"/><line transform="translate(150,0)" x2="0" y2="5" stroke="#888" stroke-width="1" opacity="1"/><line transform="translate(200,0)" x2="0" y2="5" stroke="#888" stroke-width="1" opacity="1"/></g><g class="mark-text role-axis-label" pointer-events="none"><text text-anchor="start" transform="translate(0,15)" font-family="sans-serif" font-size="10px" fill="#000" opacity="1">2016</text><text text-anchor="middle" transform="translate(50.03422313483915,15)" font-family="sans-serif" font-size="10px" fill="#000" opacity="1">2018</text><text text-anchor="middle" transform="translate(100,15)" font-family="sans-serif" font-size="10px" fill="#000" opacity="1">2020</text><text text-anchor="middle" transform="translate(150.03422313483915,15)" font-family="sans-serif" font-size="10px" fill="#000" opacity="1">2022</text><text text-anchor="end" transform="translate(200,15)" font-family="sans-serif" font-size="10px" fill="#000" opacity="1">2024</text></g><g class="mark-rule role-axis-domain" pointer-events="none"><line transform="translate(0,0)" x2="200" y2="0" stroke="#888" stroke-width="1" opacity="1"/></g></g><path class="foreground" aria-hidden="true" d="" pointer-events="none" display="none"/></g></g><g class="mark-group role-axis" role="graphics-symbol" aria-roledescription="axis" aria-label="Y-axis for a linear scale with values from 0 to 65"><g transform="translate(0.5,0.5)"><path class="background" aria-hidden="true" d="M0,0h0v0h0Z" pointer-events="none"/><g><g class="mark-rule role-axis-tick" pointer-events="none"><line transform="translate(0,150)" x2="-5" y2="0" stroke="#888" stroke-opacity="0" stroke-width="1" opacity="1"/><line transform="translate(0,104)" x2="-5" y2="0" stroke="#888" stroke-opacity="0" stroke-width="1" opacity="1"/><line transform="translate(0,58)" x2="-5" y2="0" stroke="#888" stroke-opacity="0" stroke-width="1" opacity="1"/><line transform="translate(0,12)" x2="-5" y2="0" stroke="#888" stroke-opacity="0" stroke-width="1" opacity="1"/></g><g class="mark-text role-axis-label" pointer-events="none"><text text-anchor="end" transform="translate(-7,153)" font-family="sans-serif" font-size="10px" fill="#000" opacity="1">0</text><text text-anchor="end" transform="translate(-7,106.84615384615384)" font-family="sans-serif" font-size="10px" fill="#000" opacity="1">20</text><text text-anchor="end" transform="translate(-7,60.692307692307686)" font-family="sans-serif" font-size="10px" fill="#000" opacity="1">40</text><text text-anchor="end" transform="translate(-7,14.538461538461531)" font-family="sans-serif" font-size="10px" fill="#000" opacity="1">60</text></g></g><path class="foreground" aria-hidden="true" d="" pointer-events="none" display="none"/></g></g><g class="mark-line role-mark marks" clip-path="url(#clip105)" role="graphics-object" aria-roledescription="line mark container"><path aria-label="day: Jan 02, 2010; avg: 7.16666666667" role="graphics-symbol" aria-roledescription="line mark" d="M-149.897,133.462L-149.829,133L-149.76,132.308L-149.692,132L-149.624,131.923L-149.555,132.077L-149.487,132.462L-149.418,132.769L-149.35,132.231L-149.281,131.846L-149.213,131.385L-149.144,131.462L-149.076,131.923L-149.008,131.692L-148.939,130.769L-148.871,130.077L-148.802,129.538L-148.734,129.769L-148.665,129.769L-148.597,130L-148.528,130.385L-148.46,130.308L-148.392,129.923L-148.323,129.462L-148.255,129.769L-148.186,130.231L-148.118,130.538L-148.049,131.231L-147.981,131.462L-147.912,131L-147.844,131.385L-147.775,131.154L-147.707,131.615L-147.639,131.538L-147.57,131.538L-147.502,131.462L-147.433,131.462L-147.365,131.462L-147.296,131.462L-147.228,131.846L-147.091,132.308L-147.023,132.308L-146.954,132.154L-146.886,132.154L-146.817,133L-146.749,133.462L-146.68,133.692L-146.612,133L-146.543,133L-146.475,132.923L-146.407,132.846L-146.338,133.154L-146.27,132.846L-146.201,132.923L-146.133,132.923L-146.064,133.231L-145.996,133.385L-145.927,132.769L-145.859,132.462L-145.791,132.692L-145.722,132.231L-145.654,132.846L-145.585,132.462L-145.517,132.692L-145.448,132.385L-145.38,132.462L-145.311,132.231L-145.243,131.538L-145.175,132.385L-145.106,132.077L-145.038,131.538L-144.972,131.462L-144.904,131.231L-144.835,130.923L-144.767,130.846L-144.698,130.923L-144.63,130.846L-144.561,130.846L-144.493,130.769L-144.424,130.385L-144.356,130L-144.288,129.692L-144.219,129.615L-144.151,129.615L-144.082,129.462L-144.014,128.692L-143.945,128.385L-143.877,128.769L-143.808,128.538L-143.74,128.077L-143.672,127.769L-143.603,127.308L-143.535,126.846L-143.466,126.769L-143.398,126.615L-143.329,126.154L-143.261,126L-143.192,126.538L-143.124,126L-143.056,126.231L-142.987,126L-142.919,125.308L-142.85,125.077L-142.782,124.615L-142.713,124.154L-142.645,123.769L-142.576,124.154L-142.508,124.308L-142.44,122.692L-142.371,122.077L-142.303,121.769L-142.234,121.615L-142.166,121.154L-142.097,120.538L-142.029,119.923L-141.96,120.154L-141.892,119.846L-141.824,119.385L-141.755,119.231L-141.687,119.385L-141.618,119.385L-141.55,118.846L-141.481,118.923L-141.413,118.385L-141.344,117.923L-141.276,118.154L-141.208,117.769L-141.139,116.923L-141.071,117.154L-141.002,116.692L-140.934,116.308L-140.865,116.462L-140.797,116.385L-140.728,116.154L-140.66,115.692L-140.591,115.692L-140.523,115.077L-140.455,114.077L-140.386,115L-140.318,115.846L-140.249,116.231L-140.181,115L-140.112,115.308L-140.044,115.154L-139.975,115.385L-139.907,115.308L-139.839,115.385L-139.77,115.692L-139.702,115.923L-139.633,115.077L-139.565,115.308L-139.496,115.462L-139.428,114.846L-139.359,115.538L-139.291,116.308L-139.223,116L-139.154,116.538L-139.086,116.462L-139.017,115.615L-138.949,115.154L-138.88,115.615L-138.812,114.846L-138.743,114.538L-138.675,114.923L-138.607,115.385L-138.538,114.692L-138.47,114.462L-138.401,115.538L-138.333,115.615L-138.264,115.769L-138.196,115.769L-138.127,117.154L-138.059,117.077L-137.991,117.615L-137.922,118.231L-137.854,118.154L-137.785,117.154L-137.717,116.923L-137.648,116.846L-137.58,117.615L-137.511,117.538L-137.443,117.846L-137.375,118.231L-137.306,117.231L-137.238,116.846L-137.169,116.692L-137.101,116.231L-137.032,116.308L-136.964,116.692L-136.895,116.846L-136.827,116.846L-136.758,117.385L-136.69,117.385L-136.622,117.077L-136.553,116.923L-136.485,117.846L-136.416,118.231L-136.348,118L-136.279,118.231L-136.211,118.308L-136.142,118.385L-136.074,118.462L-136.006,118.385L-135.937,118.538L-135.869,118.231L-135.8,118L-135.732,119.231L-135.663,119.462L-135.595,119L-135.526,118.846L-135.458,119L-135.39,119.154L-135.321,119.692L-135.253,120.308L-135.184,120.538L-135.116,121.077L-135.047,121.308L-134.979,122L-134.91,122.154L-134.842,122.692L-134.774,122.692L-134.705,122.231L-134.637,122.538L-134.568,123L-134.5,123.308L-134.431,123.462L-134.363,123.615L-134.294,123.923L-134.226,124L-134.158,123.692L-134.089,123.846L-134.021,122.846L-133.952,123.154L-133.884,122.769L-133.815,122.308L-133.747,122.538L-133.678,122.538L-133.61,122.538L-133.542,122.692L-133.473,123L-133.405,122.231L-133.336,122L-133.268,122.385L-133.199,122.538L-133.131,122.846L-133.062,122.692L-132.994,123.077L-132.926,123.385L-132.857,123.615L-132.789,123.308L-132.72,123.769L-132.652,125.077L-132.583,125.462L-132.515,125.308L-132.446,125.077L-132.378,125L-132.309,125.308L-132.241,124.692L-132.173,124.385L-132.104,124.538L-132.036,124.462L-131.967,125.462L-131.899,126.077L-131.83,126.154L-131.762,127L-131.693,126.615L-131.625,126.538L-131.557,126.231L-131.488,126.538L-131.42,126.538L-131.351,127.615L-131.283,127.923L-131.214,127.923L-131.146,128.077L-131.077,128L-131.009,128.231L-130.941,128.308L-130.872,127.846L-130.804,127.692L-130.735,127.923L-130.667,127.846L-130.598,127.769L-130.53,127.692L-130.461,128L-130.393,128.462L-130.325,127.615L-130.256,126.846L-130.188,127.231L-130.119,128L-130.051,127.846L-129.982,127.462L-129.914,127.538L-129.845,127.231L-129.777,127.538L-129.709,127.462L-129.64,127.231L-129.572,127.538L-129.503,128.385L-129.435,128.615L-129.366,128.923L-129.298,128.538L-129.229,128.462L-129.161,128.385L-129.093,128.385L-129.024,128L-128.956,128.308L-128.887,128.385L-128.819,128.692L-128.75,128.846L-128.679,129.385L-128.611,129.077L-128.542,129.308L-128.474,129.231L-128.405,129.462L-128.337,129.846L-128.268,130.308L-128.2,130.462L-128.131,130.769L-128.063,130.846L-127.995,131.231L-127.926,131.692L-127.858,131.615L-127.789,131.231L-127.721,131.154L-127.652,131.385L-127.584,132.308L-127.515,132.615L-127.447,132.615L-127.379,133.154L-127.31,133.385L-127.242,133.923L-127.173,133.846L-127.105,134.231L-127.036,134.538L-126.968,135.154L-126.899,134.846L-126.831,134.846L-126.762,134.923L-126.694,135L-126.626,134.692L-126.557,135.077L-126.489,134.538L-126.42,134.692L-126.352,134.462L-126.283,134.308L-126.215,134.538L-126.146,135.308L-126.078,135.385L-126.01,135.462L-125.941,135.462L-125.873,134.692L-125.804,134.769L-125.736,134.923L-125.667,135.538L-125.599,135.154L-125.53,135.462L-125.462,134.846L-125.394,133.923L-125.257,133.615L-125.188,133.231L-125.12,133.077L-125.051,133.154L-124.983,133.077L-124.914,132.462L-124.846,132.077L-124.778,132.385L-124.709,132.231L-124.641,132.231L-124.572,132.231L-124.504,132.538L-124.435,131.769L-124.367,132L-124.298,131.692L-124.23,131.538L-124.162,130.769L-124.093,131.385L-124.025,130.615L-123.956,129.923L-123.888,129.538L-123.819,129L-123.751,129.846L-123.682,129.231L-123.614,129.846L-123.546,129.308L-123.477,129.615L-123.409,129.231L-123.34,129.615L-123.272,130.385L-123.203,130.385L-123.135,130.462L-123.066,129.769L-122.998,129.769L-122.93,129.308L-122.861,129.769L-122.793,129.615L-122.724,129.308L-122.656,129.385L-122.587,129.692L-122.519,129.692L-122.45,129.077L-122.382,129.615L-122.313,129.385L-122.245,129.385L-122.177,129.154L-122.108,129.769L-122.04,129.231L-121.971,129.538L-121.903,129.615L-121.834,129.462L-121.766,129.692L-121.697,129.692L-121.629,130.308L-121.561,129.846L-121.492,129.692L-121.424,129.231L-121.355,129.308L-121.287,129.231L-121.218,128.538L-121.15,128.308L-121.081,128.385L-121.013,128.538L-120.945,128.077L-120.876,128.154L-120.808,127.538L-120.739,127.846L-120.671,127.846L-120.602,127.538L-120.534,127.077L-120.465,126.692L-120.397,126.769L-120.329,126.538L-120.26,126.846L-120.192,127L-120.123,127.308L-120.058,127.538L-119.989,127.308L-119.921,127L-119.852,126.692L-119.784,127L-119.715,127.154L-119.647,126.462L-119.578,126.462L-119.51,126.692L-119.442,126.923L-119.373,126.923L-119.305,126.923L-119.236,126.846L-119.168,126.615L-119.099,125.769L-119.031,125.538L-118.962,125.692L-118.894,125.692L-118.826,125.846L-118.757,126.385L-118.689,126.231L-118.62,126.077L-118.552,125.769L-118.483,125.923L-118.415,125.923L-118.346,126.154L-118.278,126.538L-118.21,125.846L-118.141,125.231L-118.073,124.077L-118.004,123.077L-117.936,123.154L-117.867,122.923L-117.799,123.769L-117.73,123.154L-117.662,123L-117.594,123.077L-117.525,122.923L-117.457,122L-117.388,120.923L-117.32,120.462L-117.251,120.462L-117.183,120.308L-117.114,120.308L-117.046,119.923L-116.978,119L-116.909,118.769L-116.841,119.077L-116.772,118.769L-116.704,117.385L-116.635,117.231L-116.567,116.462L-116.498,115.462L-116.43,114.385L-116.362,114L-116.293,113.231L-116.225,111.462L-116.156,111.077L-116.088,111.462L-116.019,111.692L-115.951,112.154L-115.882,111.308L-115.814,111.385L-115.745,110.692L-115.677,110.769L-115.609,110.615L-115.54,110.846L-115.472,110.615L-115.403,110.923L-115.335,111.462L-115.266,111.538L-115.198,111.308L-115.129,111.154L-115.061,111.308L-114.993,111.846L-114.924,112.231L-114.856,111.692L-114.787,110.923L-114.719,111.077L-114.65,111.615L-114.582,111.308L-114.513,111.462L-114.445,112.538L-114.377,113.385L-114.308,113.462L-114.24,114.385L-114.171,115.385L-114.103,115.923L-114.034,115.846L-113.966,116.923L-113.897,116.385L-113.829,117.231L-113.761,117.308L-113.692,116.923L-113.624,116.769L-113.555,116.615L-113.487,116.154L-113.418,116.308L-113.35,116.769L-113.281,117L-113.213,117.538L-113.145,117.308L-113.076,118L-113.008,118.846L-112.939,119.538L-112.871,120L-112.802,121L-112.734,121.769L-112.665,121.615L-112.597,122.154L-112.529,122.923L-112.46,123.462L-112.392,123.385L-112.323,123.385L-112.255,123.231L-112.186,123.077L-112.118,123.385L-112.049,124L-111.981,124.154L-111.913,124L-111.844,124.308L-111.776,123.846L-111.707,123.462L-111.639,124L-111.57,124L-111.502,124.308L-111.433,124.692L-111.365,124.154L-111.296,123.692L-111.228,123.692L-111.16,124L-111.091,124.538L-111.023,124.308L-110.954,123.615L-110.886,122.923L-110.817,123.615L-110.749,124.077L-110.68,124.769L-110.612,125.385L-110.544,125.462L-110.475,125.154L-110.407,124.846L-110.338,124.923L-110.27,124.923L-110.201,125.462L-110.133,125.385L-110.064,125.846L-109.996,125.692L-109.928,126.154L-109.859,125.692L-109.791,125.308L-109.722,125.923L-109.654,126L-109.517,125.846L-109.448,126.231L-109.38,126.385L-109.312,126.385L-109.243,126.923L-109.175,127.538L-109.106,127.538L-109.038,127.077L-108.969,126.462L-108.901,126.538L-108.832,126.615L-108.764,127.231L-108.696,126.462L-108.627,125.538L-108.559,125.077L-108.49,124.538L-108.422,124.538L-108.353,124.692L-108.285,125.385L-108.216,126L-108.148,125.923L-108.08,126.077L-108.011,126.077L-107.943,125.692L-107.874,125.385L-107.806,125.077L-107.737,125.385L-107.669,125.692L-107.6,125.462L-107.532,125.846L-107.463,126.231L-107.395,126.154L-107.327,126.385L-107.258,126.769L-107.19,127.154L-107.121,126.692L-107.053,127L-106.984,126.769L-106.916,127.385L-106.847,126.923L-106.779,126.692L-106.711,126.615L-106.642,126.769L-106.574,127.538L-106.505,127.154L-106.437,127.231L-106.368,127.538L-106.3,127.923L-106.231,127.462L-106.163,127.308L-106.095,127.077L-106.026,126.692L-105.958,126.154L-105.889,126.077L-105.821,126.769L-105.752,126.846L-105.684,127.077L-105.615,127.308L-105.547,127.538L-105.479,127.615L-105.41,127.769L-105.342,128.077L-105.273,128.231L-105.205,127.923L-105.136,127.154L-105.068,127.462L-104.999,127.385L-104.931,128L-104.863,127.923L-104.794,128.385L-104.726,128.692L-104.657,128.923L-104.589,129.462L-104.52,129.154L-104.452,129.538L-104.383,129.769L-104.315,129.077L-104.247,128.462L-104.178,128.615L-104.11,128.077L-104.041,128.615L-103.973,128.846L-103.904,129.231L-103.836,129.231L-103.765,128.769L-103.696,128.846L-103.628,129L-103.559,129.231L-103.491,128.769L-103.422,129.308L-103.354,128.769L-103.285,128.308L-103.217,128L-103.149,127.769L-103.08,128.385L-103.012,128.462L-102.943,128.769L-102.875,128.462L-102.806,128.769L-102.738,128.769L-102.669,128.769L-102.601,128.923L-102.533,128.615L-102.464,129L-102.396,129.308L-102.327,129.769L-102.259,130.462L-102.19,131L-102.122,131.615L-102.053,132.154L-101.985,132.308L-101.916,132.692L-101.848,132.692L-101.78,132.923L-101.711,132.692L-101.643,132.846L-101.574,132.538L-101.506,133L-101.437,133.769L-101.369,133.308L-101.3,133.923L-101.232,134.692L-101.164,134.231L-101.095,135.077L-101.027,135.308L-100.958,135.231L-100.89,135.308L-100.821,135.077L-100.753,134.923L-100.684,135L-100.616,135.154L-100.548,135.308L-100.479,134.769L-100.411,134.538L-100.342,133.538L-100.274,133.154L-100.205,132.462L-100.137,132.462L-100.068,132L-100,131.769L-99.932,131.231L-99.863,130.769L-99.795,130.846L-99.726,130.846L-99.658,130.923L-99.589,131.077L-99.521,130.923L-99.452,130.385L-99.384,129.692L-99.316,129.692L-99.247,129.692L-99.179,129.538L-99.11,130.077L-99.042,129.923L-98.973,129.923L-98.905,129.923L-98.836,129.462L-98.768,130.077L-98.7,129.769L-98.631,129.308L-98.563,129.538L-98.494,128.769L-98.426,129.231L-98.357,128.923L-98.289,129.308L-98.22,128.923L-98.152,129.385L-98.084,128.846L-98.015,128.077L-97.947,128.154L-97.878,128.308L-97.81,128.769L-97.741,129.077L-97.673,129.385L-97.604,129.462L-97.536,128.846L-97.467,129.154L-97.399,129L-97.331,129.231L-97.262,129.308L-97.194,129.308L-97.125,128.615L-97.057,127.923L-96.988,127.462L-96.92,127L-96.851,127L-96.783,127L-96.715,127.077L-96.646,126.538L-96.578,126.308L-96.509,125.308L-96.441,124.769L-96.372,124.615L-96.304,124.846L-96.235,125.154L-96.167,125.462L-96.099,125.385L-96.03,125.846L-95.962,126.846L-95.893,127.077L-95.825,127.077L-95.756,127.077L-95.688,127.077L-95.619,126.923L-95.551,126.615L-95.483,127.077L-95.414,127.308L-95.346,127.846L-95.277,128.077L-95.209,128.308L-95.143,128.231L-95.075,128.538L-95.006,128.923L-94.938,129.077L-94.869,129.462L-94.801,128.769L-94.732,128.231L-94.664,127.846L-94.596,128.615L-94.527,128.846L-94.459,129.231L-94.39,130.154L-94.322,130.692L-94.253,130.692L-94.185,130.692L-94.116,130.615L-94.048,130.615L-93.98,130.462L-93.911,130.308L-93.843,130.385L-93.774,130.538L-93.706,130L-93.637,130.077L-93.569,129.846L-93.5,129.923L-93.432,129.385L-93.364,128.923L-93.295,128.692L-93.227,128.462L-93.158,127.923L-93.09,127.692L-93.021,127.462L-92.953,127.462L-92.884,127.308L-92.816,126.923L-92.748,127.615L-92.679,128.308L-92.611,127.615L-92.542,126.538L-92.474,126.462L-92.405,126.462L-92.337,126.538L-92.268,125.846L-92.2,125.308L-92.132,124.846L-92.063,124L-91.995,123.769L-91.926,123.308L-91.858,122.538L-91.789,121.923L-91.721,121.154L-91.652,120.462L-91.584,119.538L-91.516,119.154L-91.447,119.385L-91.379,119.538L-91.31,119.692L-91.242,119.154L-91.173,119.231L-91.105,118.615L-91.036,118.615L-90.968,118.538L-90.899,118.077L-90.831,118L-90.763,118.385L-90.694,117.615L-90.626,116.923L-90.557,116.154L-90.489,117.077L-90.42,117.077L-90.352,116.846L-90.283,116.231L-90.215,116.538L-90.147,116.231L-90.078,116L-90.01,116.692L-89.941,116.154L-89.873,115.923L-89.804,116.538L-89.736,116.385L-89.667,116.308L-89.599,116.846L-89.531,117.308L-89.462,117.846L-89.394,117.154L-89.325,117.231L-89.257,117.231L-89.188,117.308L-89.12,117.692L-89.051,118.692L-88.983,118.923L-88.915,119.538L-88.846,119.846L-88.778,120L-88.709,119.769L-88.641,120.231L-88.572,120.769L-88.504,121.769L-88.435,122L-88.367,122.462L-88.299,122.769L-88.23,123.615L-88.162,122.846L-88.093,123.231L-88.025,123.462L-87.956,123.462L-87.888,123.462L-87.819,124.077L-87.751,124.077L-87.683,123.923L-87.614,124.462L-87.546,124.231L-87.477,123.846L-87.409,123.923L-87.34,124.615L-87.272,123.692L-87.203,123.692L-87.135,124.154L-87.067,123.769L-86.998,123.846L-86.93,123.923L-86.861,123.769L-86.793,123.923L-86.724,123.385L-86.656,123.538L-86.587,123.154L-86.519,122.923L-86.45,123.385L-86.382,123.308L-86.314,122.923L-86.245,122.923L-86.177,122.231L-86.108,122.769L-86.04,122.692L-85.971,122.692L-85.903,122.308L-85.834,122.615L-85.766,122.538L-85.698,122.154L-85.629,122.769L-85.561,122.923L-85.492,123.538L-85.424,123.923L-85.355,123.615L-85.287,123.538L-85.218,124.154L-85.15,124.308L-85.082,124L-85.013,124.385L-84.945,123.769L-84.876,123.462L-84.808,123.692L-84.739,124L-84.671,123.846L-84.602,122.692L-84.534,123L-84.466,122.462L-84.397,122L-84.329,121.615L-84.26,122.154L-84.192,121.692L-84.123,122.077L-84.055,122.692L-83.986,122.615L-83.918,122.385L-83.85,122.231L-83.781,122.615L-83.713,122.538L-83.644,122.385L-83.576,122.077L-83.507,121.615L-83.439,121.615L-83.37,121.538L-83.302,121L-83.234,120.462L-83.165,121L-83.097,120.692L-83.028,120.615L-82.96,119.615L-82.891,120.231L-82.823,120.923L-82.754,120.692L-82.686,120.385L-82.617,121.385L-82.549,122.615L-82.481,123.231L-82.412,124.385L-82.344,124.462L-82.275,124.846L-82.207,124.231L-82.138,124.231L-82.07,123.846L-82.001,123.923L-81.933,124.231L-81.865,125.077L-81.796,125.692L-81.728,125.846L-81.659,126.154L-81.591,126.615L-81.522,126.538L-81.454,126.923L-81.385,127.385L-81.317,128.231L-81.249,129.462L-81.18,130.615L-81.112,130.846L-81.043,131.462L-80.975,132.077L-80.906,133.385L-80.838,133.769L-80.769,133.846L-80.701,134.462L-80.633,134.385L-80.564,134.462L-80.496,134.615L-80.427,134.615L-80.359,134.077L-80.29,134.692L-80.222,134.769L-80.153,135.154L-80.085,135.846L-80.017,136.077L-79.948,135.692L-79.88,136L-79.811,135.769L-79.743,136L-79.674,136.308L-79.606,136.308L-79.537,136.538L-79.469,136.769L-79.401,136.615L-79.332,135.769L-79.195,135.308L-79.058,135.154L-78.921,134.769L-78.85,134.692L-78.782,134.154L-78.713,133.923L-78.645,133.385L-78.576,133.308L-78.508,133L-78.439,132.462L-78.371,132.538L-78.303,132.308L-78.234,132.308L-78.166,132.077L-78.097,132.538L-78.029,132.769L-77.96,132.462L-77.892,132.769L-77.823,132.462L-77.755,132.385L-77.687,132.538L-77.618,132.923L-77.55,133.154L-77.481,133.462L-77.413,133.462L-77.344,133.462L-77.276,133.385L-77.207,133.923L-77.139,134.769L-77.07,135.538L-77.002,135.769L-76.934,135.538L-76.865,135.077L-76.797,134.769L-76.728,134.846L-76.66,134.538L-76.591,134.769L-76.523,134.308L-76.454,134.077L-76.386,134.077L-76.318,134.385L-76.249,134.692L-76.181,134.308L-76.112,134.385L-76.044,134.077L-75.975,133.692L-75.907,133.923L-75.838,133.692L-75.77,134.231L-75.702,134.462L-75.633,134.538L-75.565,133.923L-75.496,133.769L-75.359,133.154L-75.291,132.846L-75.222,133L-75.154,133L-75.086,132.769L-75.017,132.385L-74.949,132.385L-74.88,132.231L-74.812,132.154L-74.743,132.385L-74.675,132.615L-74.606,132.692L-74.538,133.154L-74.47,132.846L-74.401,132.846L-74.333,133L-74.264,132.846L-74.196,132.615L-74.127,132.385L-74.059,132.769L-73.99,132.846L-73.922,133.308L-73.854,133.538L-73.785,133.846L-73.717,134.077L-73.648,134.077L-73.58,134.308L-73.511,134.231L-73.443,134.385L-73.374,134.462L-73.306,134.769L-73.238,134.923L-73.169,134.385L-73.101,134.615L-73.032,134.769L-72.964,134.385L-72.895,134.462L-72.827,134.538L-72.758,134.692L-72.69,134.846L-72.621,134.615L-72.553,134.769L-72.485,134.538L-72.416,134.692L-72.348,135.154L-72.279,135.077L-72.211,135L-72.142,135.385L-72.074,135L-72.005,134.692L-71.937,134.462L-71.869,134.231L-71.8,134.077L-71.732,133.923L-71.663,133.615L-71.595,133.615L-71.526,133.385L-71.458,133.462L-71.389,133.462L-71.321,133L-71.253,133.077L-71.184,133.308L-71.116,133.769L-71.047,133.462L-70.979,133.462L-70.91,133.692L-70.842,133.538L-70.773,132.846L-70.705,132.923L-70.637,133.154L-70.568,133.077L-70.5,133.077L-70.431,133.077L-70.363,133.154L-70.294,132.538L-70.229,131.308L-70.16,131.385L-70.092,130.692L-70.023,130.692L-69.955,130.846L-69.886,130.769L-69.818,130.231L-69.75,129.615L-69.681,128.692L-69.613,128.846L-69.544,128.538L-69.476,128.462L-69.407,128.385L-69.339,128.154L-69.27,128.308L-69.202,128.154L-69.134,127.462L-69.065,126.923L-68.997,126.231L-68.928,125.154L-68.86,125.231L-68.791,124.692L-68.723,124.769L-68.654,124.308L-68.586,123.308L-68.518,123.077L-68.449,122.846L-68.381,122.615L-68.312,121.846L-68.244,122.308L-68.175,123.077L-68.107,122.615L-68.038,122.615L-67.97,122.692L-67.902,122.385L-67.833,122.692L-67.765,122.846L-67.696,122.846L-67.628,123.385L-67.559,122.462L-67.491,122.385L-67.422,122.077L-67.354,120.538L-67.286,120.308L-67.217,120.231L-67.149,120.154L-67.08,120.846L-67.012,121.538L-66.943,122.385L-66.875,123.538L-66.806,122.231L-66.738,121.231L-66.67,121.154L-66.601,120.923L-66.533,121.769L-66.464,122.538L-66.396,122L-66.327,121.308L-66.259,121.692L-66.19,121.385L-66.122,121.615L-66.054,121.769L-65.985,121.769L-65.917,121.538L-65.848,121.077L-65.78,120.769L-65.711,120.846L-65.643,121.077L-65.574,120.692L-65.506,120.692L-65.437,120.846L-65.369,120.769L-65.301,121.462L-65.232,121.769L-65.164,121.923L-65.095,121.538L-65.027,120.846L-64.958,120.077L-64.89,119.692L-64.821,119.538L-64.753,120.538L-64.685,121.769L-64.616,121.692L-64.548,122.154L-64.479,121.538L-64.411,121.154L-64.342,121.308L-64.274,122.154L-64.205,122L-64.137,122.385L-64.069,123.077L-64,123.231L-63.932,123.923L-63.863,124.385L-63.795,124.769L-63.726,124.462L-63.658,124.692L-63.589,124.923L-63.521,125.231L-63.453,125.846L-63.384,125.846L-63.316,126.231L-63.247,127.308L-63.179,127.077L-63.11,126.538L-63.042,126.692L-62.973,126.923L-62.905,126.769L-62.837,126.769L-62.768,126.231L-62.7,126.692L-62.631,126.077L-62.563,126.231L-62.494,125.923L-62.426,126.538L-62.357,126.154L-62.289,126.308L-62.221,126.154L-62.152,126.231L-62.084,125.308L-62.015,124.154L-61.947,124.538L-61.878,124.231L-61.81,124.308L-61.741,124.231L-61.673,124.846L-61.604,125.077L-61.536,124.462L-61.468,124.308L-61.399,123.769L-61.331,123L-61.262,122.923L-61.194,122.077L-61.125,121.462L-61.057,121.615L-60.988,121.385L-60.92,120.846L-60.852,121.385L-60.783,120.769L-60.715,120.846L-60.646,120.154L-60.578,120.692L-60.509,120.846L-60.441,121.077L-60.372,120.769L-60.304,120.846L-60.236,121.231L-60.167,121.538L-60.099,121.769L-60.03,121.692L-59.962,121.538L-59.893,121.077L-59.825,121L-59.756,119.692L-59.688,118.769L-59.62,118.385L-59.551,117.462L-59.483,118.077L-59.414,118.846L-59.346,119.077L-59.277,120.077L-59.209,119.692L-59.14,119.923L-59.072,121L-59.004,121L-58.935,120.615L-58.867,120.615L-58.798,120.769L-58.73,121.231L-58.661,121.308L-58.593,121.538L-58.524,121L-58.456,120.923L-58.388,120.538L-58.319,120L-58.251,119.846L-58.182,118.615L-58.114,117.923L-58.045,117.385L-57.977,118.462L-57.908,118.846L-57.84,119L-57.772,118.692L-57.703,119.462L-57.635,121L-57.566,121.308L-57.498,122L-57.429,122.077L-57.361,121.769L-57.292,121.923L-57.224,121.462L-57.155,121.692L-57.087,122L-57.019,121.769L-56.95,122L-56.882,122.769L-56.813,123.769L-56.745,122.923L-56.676,122.923L-56.608,123.462L-56.539,124.077L-56.471,125.231L-56.403,125.615L-56.334,125.692L-56.266,126.231L-56.197,126.769L-56.129,127.538L-56.06,128.385L-55.992,128.923L-55.923,129L-55.855,129.154L-55.787,129.308L-55.718,129.692L-55.65,130.231L-55.581,129.923L-55.513,130.308L-55.444,130.308L-55.376,130.231L-55.307,130L-55.239,130.538L-55.171,130.923L-55.102,131.462L-55.034,131.615L-54.965,132L-54.897,132.462L-54.828,132.615L-54.76,132.308L-54.691,133.462L-54.623,134.154L-54.555,134.308L-54.486,134.308L-54.418,134.077L-54.349,133.769L-54.281,134.538L-54.212,135.077L-54.144,134.769L-54.075,135.462L-54.007,135.462L-53.936,135.538L-53.867,134.769L-53.799,135.308L-53.73,135.385L-53.662,135.154L-53.593,135.538L-53.525,135.692L-53.457,135.462L-53.388,135L-53.32,135L-53.251,134.923L-53.183,134.538L-53.114,134.538L-53.046,134.231L-52.977,134.077L-52.909,133.462L-52.841,133.462L-52.772,133.385L-52.704,133.462L-52.635,133.077L-52.567,133.308L-52.498,132.769L-52.43,132.846L-52.361,132.923L-52.293,133.615L-52.225,133.385L-52.156,133.538L-52.088,133.923L-52.019,133.846L-51.951,134.077L-51.882,134.308L-51.814,135L-51.745,134.923L-51.677,135.231L-51.608,135.538L-51.54,135L-51.472,134.923L-51.403,135.077L-51.335,135.923L-51.266,136.308L-51.198,136.692L-51.129,136.923L-51.061,137.077L-50.992,137.231L-50.924,137.308L-50.856,137.769L-50.787,137.462L-50.719,137.692L-50.65,137.923L-50.582,138.077L-50.513,137.385L-50.445,137.769L-50.376,137.077L-50.308,137.077L-50.24,136.692L-50.171,135.846L-50.103,135.077L-50.034,134.846L-49.897,134.692L-49.829,134.538L-49.76,134.308L-49.692,134.462L-49.624,134.538L-49.555,134.154L-49.487,134.308L-49.418,134.769L-49.35,134.385L-49.213,134.231L-49.144,134.077L-49.076,134.154L-49.008,134.308L-48.939,134.462L-48.871,134.615L-48.802,134.692L-48.734,133.769L-48.665,133.538L-48.597,133.692L-48.528,133.769L-48.46,133.462L-48.392,133.385L-48.323,133.692L-48.255,133.154L-48.186,133.231L-48.118,132.231L-48.049,132.154L-47.981,132.462L-47.912,132.846L-47.844,133.077L-47.775,132.692L-47.707,132.077L-47.639,132L-47.57,131.308L-47.502,130.231L-47.433,129.923L-47.365,129.769L-47.296,129.231L-47.228,129.308L-47.159,129.077L-47.091,128.846L-47.023,128.154L-46.954,127.769L-46.886,127.615L-46.817,126.846L-46.749,126L-46.68,126.538L-46.612,126.615L-46.543,126.154L-46.475,125.538L-46.407,125.385L-46.338,125.308L-46.27,124.538L-46.201,124.692L-46.133,124.692L-46.064,125.308L-45.996,125.692L-45.927,126.462L-45.859,126.692L-45.791,126.077L-45.722,125.846L-45.654,125.462L-45.585,125.154L-45.517,125.385L-45.448,125.692L-45.38,125.923L-45.314,125.462L-45.246,125.308L-45.177,125L-45.109,125.231L-45.04,125.154L-44.972,125.154L-44.904,124.846L-44.835,124.769L-44.767,124.692L-44.698,125.385L-44.63,125.462L-44.561,125.231L-44.493,125.462L-44.424,125.615L-44.356,125.154L-44.288,124.538L-44.219,124.769L-44.151,124.231L-44.082,124.308L-44.014,123.923L-43.945,123L-43.877,122.538L-43.808,122.231L-43.74,122L-43.672,122.154L-43.603,122.538L-43.535,123L-43.466,122.846L-43.398,122.538L-43.329,122.231L-43.261,121.923L-43.192,122.308L-43.124,122.154L-43.056,121.538L-42.987,120.846L-42.919,120.923L-42.85,120.923L-42.782,120.923L-42.713,121.231L-42.645,120.385L-42.576,119.769L-42.508,119.692L-42.44,119.308L-42.371,118.462L-42.303,118.538L-42.234,119.154L-42.166,119.231L-42.097,119.385L-42.029,119.154L-41.96,119.846L-41.892,120.462L-41.824,120.231L-41.755,119.923L-41.687,120.154L-41.618,120.154L-41.55,119.846L-41.481,119.462L-41.413,118.923L-41.344,119.538L-41.276,119.385L-41.208,119.154L-41.139,118.692L-41.071,118.923L-41.002,118.308L-40.934,118.231L-40.865,118.615L-40.797,119.077L-40.728,119L-40.66,118.615L-40.591,118.538L-40.523,118.846L-40.455,118.615L-40.386,118.692L-40.318,119.077L-40.249,119L-40.181,118.077L-40.112,118.077L-40.044,118L-39.975,117.846L-39.907,117.385L-39.839,116.538L-39.77,116.538L-39.702,116.462L-39.633,116.308L-39.565,116.154L-39.496,116.846L-39.428,116.538L-39.359,117L-39.291,117.385L-39.223,117.462L-39.154,117.923L-39.086,118.385L-39.017,118.923L-38.949,119.846L-38.88,119.846L-38.812,119.077L-38.743,118.308L-38.675,118.231L-38.607,118.692L-38.538,119.385L-38.47,119L-38.401,118.923L-38.333,119.231L-38.264,119.385L-38.196,119.769L-38.127,120.077L-38.059,120.385L-37.991,120.769L-37.922,120.154L-37.854,120L-37.785,120.308L-37.717,120.692L-37.648,120.538L-37.58,120.769L-37.511,121L-37.443,120.846L-37.375,121.077L-37.306,121.385L-37.238,121.077L-37.169,121.462L-37.101,121.615L-37.032,121.077L-36.964,120.077L-36.895,119.538L-36.827,120L-36.758,120.385L-36.69,121.308L-36.622,120.923L-36.553,120.923L-36.485,121.077L-36.416,121.923L-36.348,121.923L-36.279,121.846L-36.211,122.154L-36.142,121.923L-36.074,122.308L-36.006,122.077L-35.937,122.154L-35.869,122.538L-35.8,122.308L-35.732,122.308L-35.663,122.077L-35.595,122.385L-35.526,122.769L-35.458,123L-35.39,123.385L-35.321,123.308L-35.253,123.077L-35.184,123.154L-35.116,123.154L-35.047,122.692L-34.979,123.154L-34.91,123.462L-34.842,124L-34.774,123.846L-34.705,123.385L-34.637,122.538L-34.568,122.846L-34.5,122.846L-34.431,122.385L-34.363,121.846L-34.294,121.692L-34.226,121.846L-34.158,121.231L-34.089,121.385L-34.021,120.692L-33.952,120.385L-33.884,120.231L-33.815,120.231L-33.747,120.462L-33.678,120.538L-33.61,120.154L-33.542,119.615L-33.473,119.308L-33.405,118.462L-33.336,117.692L-33.268,117.385L-33.199,117.231L-33.131,116.769L-33.062,116.615L-32.994,117.385L-32.926,117.538L-32.857,118.154L-32.789,118.154L-32.72,118.231L-32.652,118.462L-32.583,119.308L-32.515,119.538L-32.446,119.538L-32.378,119.769L-32.309,120.231L-32.241,120.692L-32.173,120.846L-32.104,121.385L-32.036,121.538L-31.967,121.923L-31.899,122.154L-31.83,122.692L-31.762,123.308L-31.693,123.154L-31.625,123.385L-31.557,124L-31.488,124.615L-31.42,124.462L-31.351,125.308L-31.283,125.769L-31.214,126.154L-31.146,126.615L-31.077,127.462L-31.009,128.077L-30.941,127.923L-30.872,126.769L-30.804,126.923L-30.735,127.154L-30.667,127.385L-30.598,127.846L-30.53,127L-30.461,127.077L-30.393,126.846L-30.325,126.769L-30.256,126.769L-30.188,127.308L-30.119,127.154L-30.051,127.538L-29.982,126.923L-29.914,126.692L-29.845,126.385L-29.777,124.462L-29.709,124.615L-29.64,125.308L-29.572,124.769L-29.503,124.462L-29.435,124.154L-29.366,124.923L-29.298,124.692L-29.229,124.769L-29.161,124.769L-29.093,124.692L-29.021,124.077L-28.953,123.077L-28.884,123.231L-28.816,123.769L-28.747,124L-28.679,124.077L-28.611,124.385L-28.542,123.923L-28.474,124.385L-28.405,123.769L-28.337,123.308L-28.268,123.923L-28.2,123.538L-28.131,123.077L-28.063,122.923L-27.995,122.462L-27.926,122.615L-27.858,122.615L-27.789,122.846L-27.721,124.538L-27.652,124L-27.584,124L-27.515,124.769L-27.447,125L-27.379,125.769L-27.31,125.538L-27.242,125.462L-27.173,125.308L-27.105,125.231L-27.036,125L-26.968,125.538L-26.899,126.154L-26.831,126.231L-26.762,127.154L-26.694,126.692L-26.626,125.308L-26.557,124.923L-26.489,125.462L-26.42,125.231L-26.352,125.308L-26.283,125.385L-26.215,124.692L-26.146,124.538L-26.078,124.538L-26.01,124.385L-25.941,123.462L-25.873,124.231L-25.804,125.154L-25.736,125.077L-25.667,124.385L-25.599,124.615L-25.53,123.846L-25.462,123.154L-25.394,123.385L-25.325,123.231L-25.257,122.692L-25.188,123L-25.12,122.308L-25.051,122.462L-24.983,121.385L-24.914,121.154L-24.846,121.385L-24.778,121.231L-24.709,120.769L-24.641,120.231L-24.572,121.308L-24.504,121L-24.435,120.769L-24.367,121.231L-24.298,121.077L-24.23,121.308L-24.162,121.077L-24.093,121.231L-24.025,120.846L-23.956,121L-23.888,122.154L-23.819,121.538L-23.751,121.692L-23.682,121.769L-23.614,122.231L-23.546,122.077L-23.477,122.231L-23.409,122.923L-23.34,121.846L-23.272,121.308L-23.203,121L-23.135,120.923L-23.066,121.538L-22.998,121.692L-22.93,122.308L-22.861,122.154L-22.793,121.462L-22.724,121.231L-22.656,121L-22.587,121.231L-22.519,121.538L-22.45,121.846L-22.382,121.154L-22.313,119.308L-22.245,119.385L-22.177,119.462L-22.108,119.538L-22.04,119.615L-21.971,120.308L-21.903,120.231L-21.834,119.538L-21.766,119.077L-21.697,118.231L-21.629,117.769L-21.561,117.385L-21.492,117.538L-21.424,117.154L-21.355,116.154L-21.287,116.692L-21.218,116.846L-21.15,116.385L-21.081,116.231L-21.013,116.538L-20.945,115.923L-20.876,115.846L-20.808,114.538L-20.739,114.077L-20.671,114.077L-20.602,113.615L-20.534,113.308L-20.465,112.846L-20.4,112.769L-20.331,113.462L-20.263,115.231L-20.195,114.923L-20.126,114.692L-20.058,114.462L-19.989,114.231L-19.921,113.385L-19.852,113L-19.784,113.231L-19.715,112.923L-19.647,112.615L-19.578,113.308L-19.51,113.615L-19.442,113.769L-19.373,113.615L-19.305,114.385L-19.236,114.154L-19.168,114.231L-19.099,115.385L-19.031,115L-18.962,113.769L-18.894,113.615L-18.826,114L-18.757,114.923L-18.689,115.462L-18.62,115.154L-18.552,114.385L-18.483,114.077L-18.415,113.308L-18.346,111.615L-18.278,110.769L-18.21,110.308L-18.141,109.154L-18.073,108.615L-18.004,107.923L-17.936,108.154L-17.867,108.538L-17.799,108.462L-17.73,108.538L-17.662,109.154L-17.594,109.231L-17.525,108.385L-17.457,108.462L-17.388,108.154L-17.32,109.385L-17.251,109.538L-17.183,109.846L-17.114,109.462L-17.046,108.923L-16.978,108.769L-16.909,109.462L-16.841,110L-16.772,109.615L-16.704,110.231L-16.635,110.615L-16.567,110.692L-16.498,112.077L-16.43,112.615L-16.362,112.769L-16.293,114.538L-16.225,114.846L-16.156,114.385L-16.088,115.308L-16.019,115.308L-15.951,115.692L-15.882,115.538L-15.814,115.154L-15.745,115.154L-15.677,115.231L-15.609,115.615L-15.54,115.615L-15.472,116.462L-15.403,115.077L-15.335,115.462L-15.266,114.846L-15.198,113.692L-15.129,113.077L-15.061,112.769L-14.993,113.077L-14.924,112.462L-14.856,112.462L-14.787,112.692L-14.719,112.462L-14.65,110.538L-14.582,110.077L-14.513,110.154L-14.445,110L-14.377,110.462L-14.308,111.615L-14.24,111.692L-14.171,112.308L-14.103,112.692L-14.034,113.615L-13.966,114L-13.897,114.769L-13.829,114.846L-13.761,115.154L-13.692,115.231L-13.624,115.538L-13.555,114.846L-13.487,115.538L-13.418,115.308L-13.35,116.615L-13.281,115.923L-13.213,116.154L-13.145,116.077L-13.076,115.462L-13.008,115.846L-12.939,115.462L-12.871,116.846L-12.802,116.308L-12.734,115.923L-12.665,116.538L-12.597,117.846L-12.529,117.923L-12.46,118.385L-12.392,118L-12.323,118.154L-12.255,117.923L-12.186,117.923L-12.118,117L-12.049,117.231L-11.981,117.154L-11.913,117.692L-11.844,117.769L-11.776,117.462L-11.707,117.308L-11.639,117L-11.57,116.308L-11.502,116.462L-11.433,115.692L-11.365,115.769L-11.296,115.846L-11.228,116L-11.16,116L-11.091,116.769L-11.023,117.462L-10.954,117.615L-10.886,117.385L-10.817,116.769L-10.749,117.615L-10.68,117.538L-10.612,117.615L-10.544,117.154L-10.475,117.692L-10.407,117.154L-10.338,117.538L-10.27,116.923L-10.201,116.846L-10.133,116.846L-10.064,117.692L-9.996,117.615L-9.928,117L-9.859,116.846L-9.791,117L-9.722,117.923L-9.654,117.692L-9.585,118.154L-9.517,118.385L-9.448,118.385L-9.38,118.462L-9.312,117.846L-9.243,116.846L-9.175,116.308L-9.106,116.077L-9.038,116.308L-8.969,116.692L-8.901,116.077L-8.832,116L-8.764,115.154L-8.696,114.231L-8.627,114.769L-8.559,113.692L-8.49,113.923L-8.422,113.154L-8.353,113L-8.285,112.769L-8.216,112.692L-8.148,112.769L-8.08,112.692L-8.011,112.923L-7.943,112.923L-7.874,113L-7.806,112.923L-7.737,112.462L-7.669,112.154L-7.6,112.462L-7.532,112.846L-7.463,112.769L-7.395,112.231L-7.327,112.615L-7.258,112.923L-7.19,113.615L-7.121,114.462L-7.053,114.385L-6.984,113.615L-6.916,112.692L-6.847,112.769L-6.779,112.385L-6.711,113.308L-6.642,113.923L-6.574,113.308L-6.505,114.231L-6.437,114.385L-6.368,114.154L-6.3,114.231L-6.231,114.615L-6.163,114.923L-6.095,114.077L-6.026,113.692L-5.958,113.077L-5.889,113.385L-5.821,113.154L-5.752,113.308L-5.684,113.846L-5.615,113.615L-5.547,114.231L-5.479,113.923L-5.41,114.308L-5.342,115.077L-5.273,114.846L-5.205,115.077L-5.136,115L-5.068,115.154L-4.999,114.692L-4.931,114.846L-4.863,115.846L-4.794,116.077L-4.726,117L-4.657,117.462L-4.589,117.538L-4.52,118.077L-4.452,118.385L-4.383,118.923L-4.315,119.692L-4.247,120.154L-4.178,119.692L-4.107,120.154L-4.038,120.385L-3.97,120.154L-3.901,120.077L-3.833,120.077L-3.765,120.308L-3.696,119.923L-3.628,119L-3.559,118.692L-3.491,117.769L-3.422,117.692L-3.354,117.077L-3.285,117.615L-3.217,117.538L-3.149,116.923L-3.08,117.077L-3.012,116.846L-2.943,117.462L-2.875,118.077L-2.806,117.615L-2.738,118.154L-2.669,117.769L-2.601,118.077L-2.533,118.308L-2.464,118.692L-2.396,118.846L-2.327,118.846L-2.259,118.615L-2.19,118.154L-2.122,118.538L-2.053,118.308L-1.985,119.154L-1.916,119.769L-1.848,119.692L-1.78,119.538L-1.711,119.462L-1.643,120L-1.574,120.769L-1.506,121.538L-1.437,122L-1.369,122.615L-1.3,123.154L-1.232,123L-1.164,123.615L-1.095,124.231L-1.027,124.615L-0.958,124.923L-0.89,125.692L-0.821,125.308L-0.753,126.077L-0.684,126.308L-0.616,126.615L-0.548,126L-0.479,126.231L-0.411,126L-0.342,126L-0.274,125.923L-0.205,126.385L-0.137,127L-0.068,126.769L0,127L0.068,126L0.137,126L0.205,126.615L0.274,126.923L0.342,127.308L0.411,127.538L0.479,127.692L0.548,128L0.616,127.923L0.684,127.231L0.753,127.385L0.821,127L0.89,126.077L0.958,126.385L1.027,126.615L1.095,125.923L1.164,125.385L1.232,125.692L1.3,125.154L1.369,124L1.437,124L1.506,124.077L1.574,123.462L1.643,123.231L1.711,122.769L1.78,122.692L1.848,122.769L1.916,122.692L1.985,122.615L2.053,122.154L2.122,122.692L2.19,122.923L2.259,121.923L2.327,121.538L2.396,121.385L2.464,121L2.533,120.385L2.601,119.385L2.669,118.692L2.738,118.692L2.806,118.077L2.875,118L2.943,118.538L3.012,117.692L3.08,116.923L3.149,116.923L3.217,116.923L3.285,116.077L3.354,115.923L3.422,116.462L3.491,116.385L3.559,116.154L3.628,115.846L3.696,115.538L3.765,115.538L3.833,115L3.901,115L3.97,115.308L4.038,115.538L4.107,115.231L4.175,114.385L4.244,113.615L4.312,114.308L4.381,114.538L4.449,114.385L4.517,114.154L4.586,114.462L4.654,114.769L4.723,115.385L4.791,115.385L4.86,115.923L4.928,116.385L4.994,116.692L5.062,116.154L5.131,115.923L5.199,115.923L5.268,115.462L5.336,116L5.404,116.077L5.473,115L5.541,113.615L5.61,113.538L5.678,113.308L5.747,113.231L5.815,112.846L5.884,112.462L5.952,111.769L6.02,110.692L6.089,110.846L6.157,111L6.226,111.538L6.294,111.846L6.363,111.769L6.431,111.692L6.5,112.308L6.568,112.077L6.636,112.692L6.705,111.769L6.773,112.154L6.842,111.692L6.91,111.615L6.979,110.538L7.047,109.769L7.116,110.692L7.184,110.538L7.252,111.231L7.321,111.077L7.389,111.462L7.458,111.615L7.526,112.231L7.595,112.692L7.663,112.769L7.732,112.462L7.8,111.538L7.868,111.077L7.937,110.769L8.005,110.538L8.074,110.692L8.142,110.077L8.211,109.692L8.279,109.538L8.348,109.077L8.416,109.154L8.484,108.769L8.553,108.077L8.621,107.615L8.69,106.846L8.758,107.462L8.827,106.846L8.895,107.385L8.964,106.769L9.032,106.692L9.101,106.615L9.169,106.615L9.237,107.154L9.306,105.615L9.374,105.308L9.443,104.231L9.511,102.308L9.58,101.923L9.648,102L9.717,100.846L9.785,101.231L9.853,101.462L9.922,102.077L9.99,102.154L10.059,101.538L10.127,100.231L10.196,100.154L10.264,100.077L10.333,99.538L10.401,99.538L10.469,99.385L10.538,98.615L10.606,98L10.675,98.308L10.743,97.923L10.812,96.769L10.88,96.846L10.949,96.692L11.017,97L11.085,97.385L11.154,97L11.222,96.154L11.291,95.077L11.359,96L11.428,95.308L11.496,95.846L11.565,97.462L11.633,98.077L11.701,97.538L11.77,98.154L11.838,98.692L11.907,99.923L11.975,100.231L12.044,100.769L12.112,101.692L12.181,102.538L12.249,102.538L12.317,102.846L12.386,103.769L12.454,104.923L12.523,105L12.591,105.846L12.66,106.538L12.728,106.462L12.797,106.615L12.865,107.615L12.933,107.769L13.002,108.231L13.07,107.923L13.139,108.077L13.207,108.846L13.276,108.615L13.344,109.385L13.413,109.538L13.481,111L13.55,110.923L13.618,110.923L13.686,111.308L13.755,112.154L13.823,112.692L13.892,111.846L13.96,111.615L14.029,111.154L14.097,111.308L14.166,110.769L14.234,111.231L14.302,111.769L14.371,112L14.439,111.923L14.508,110.846L14.576,110.077L14.645,109.923L14.713,110L14.782,109.385L14.85,109.231L14.918,109.692L14.987,110.077L15.055,109.692L15.124,109.385L15.192,109.154L15.261,108.923L15.329,109.615L15.398,109.154L15.466,109.077L15.534,107.923L15.603,108.231L15.671,107.385L15.74,107.077L15.808,106.538L15.877,107L15.945,107.923L16.014,107.231L16.082,107.154L16.15,107.154L16.219,107.308L16.287,106.846L16.356,106.231L16.424,105.462L16.493,105.308L16.561,105.615L16.63,106.538L16.698,106.462L16.766,106.846L16.835,107.923L16.903,107.769L16.972,107.231L17.04,105.385L17.109,104.308L17.177,103.923L17.246,103.923L17.314,104.923L17.383,105L17.451,105.692L17.519,105.538L17.588,106.462L17.656,106.154L17.725,106.615L17.793,106.231L17.862,106L17.93,104.385L17.999,103.231L18.067,102.769L18.135,102.538L18.204,102.769L18.272,103.692L18.341,103.846L18.409,104.077L18.478,104.385L18.546,104.077L18.615,104.308L18.683,103.846L18.751,104.769L18.82,103.692L18.888,103.769L18.957,104.231L19.025,104.692L19.094,106.231L19.162,107L19.231,108.462L19.299,108.231L19.367,107.538L19.436,108.077L19.504,108.231L19.573,108.692L19.641,108.462L19.71,108.769L19.778,109.077L19.847,108.846L19.915,109.769L19.983,109.923L20.052,110.923L20.12,111.769L20.189,112.846L20.257,112.692L20.326,111.462L20.394,112.077L20.463,113.231L20.531,114.154L20.599,114.385L20.668,114.538L20.736,114.615L20.805,113.923L20.873,114.385L20.942,114.077L21.01,114.077L21.079,114.231L21.147,114.385L21.215,114.385L21.287,113.846L21.355,114.692L21.424,115L21.492,114.923L21.561,114.769L21.629,114.154L21.697,114.077L21.766,113.615L21.834,113.923L21.903,114.154L21.971,114.538L22.04,115.538L22.108,115.846L22.177,116L22.245,115.462L22.313,115.154L22.382,116.154L22.45,116.538L22.519,116.077L22.587,116.385L22.656,117.231L22.724,117.154L22.793,117.385L22.861,117.385L22.93,117.923L22.998,118.538L23.066,119.385L23.135,119.385L23.203,119.077L23.272,119.231L23.34,119.385L23.409,118.923L23.477,118.846L23.546,118.769L23.614,118.692L23.682,118.923L23.751,118.462L23.819,118.462L23.888,118L23.956,118.077L24.025,118.462L24.093,117.692L24.162,117.308L24.23,116.769L24.298,117.077L24.367,117.231L24.435,116.154L24.504,116.154L24.572,115.615L24.641,115.154L24.709,113.692L24.778,112.846L24.846,112.923L24.914,113.231L24.983,113.615L25.051,112.385L25.12,110.692L25.188,110.231L25.257,110.615L25.325,109.846L25.394,109.769L25.462,110.769L25.53,110L25.599,109.615L25.667,109.462L25.736,109.923L25.804,111.077L25.873,111.385L25.941,112.308L26.01,112.154L26.078,111.615L26.146,112.538L26.215,112.077L26.283,112.769L26.352,111.769L26.42,112.077L26.489,113L26.557,112.615L26.626,112.308L26.694,111.462L26.762,111.538L26.831,112.385L26.899,112.231L26.968,111.154L27.036,110.154L27.105,111.231L27.173,111.923L27.242,112L27.31,111.615L27.379,112.308L27.447,111.538L27.515,110.769L27.584,110.385L27.652,110.923L27.721,109.923L27.789,109.769L27.858,109.154L27.926,109L27.995,109L28.063,110L28.131,110.538L28.2,110.385L28.268,111.308L28.337,110.846L28.405,110.846L28.474,110.462L28.542,109.692L28.611,109.308L28.679,109.231L28.747,109.077L28.816,109.462L28.884,109L28.953,108.923L29.021,109.077L29.09,108.769L29.158,108.538L29.227,108.692L29.295,108.077L29.363,107.846L29.432,107.846L29.5,108.231L29.569,108.077L29.637,109L29.706,108.538L29.774,109.769L29.843,108.231L29.908,107.154L29.977,106.385L30.045,105.615L30.114,104.692L30.182,104.231L30.25,104.308L30.319,102.385L30.387,102.077L30.456,102.462L30.524,102.538L30.593,102.462L30.661,102.769L30.73,102.846L30.798,102.846L30.866,102.538L30.935,103L31.003,101.769L31.072,100.692L31.14,99.692L31.209,99.154L31.277,98.692L31.346,98.308L31.414,97.769L31.482,97.231L31.551,97L31.619,97.231L31.688,97.538L31.756,96.923L31.825,95.385L31.893,96.769L31.962,97.538L32.03,97.385L32.098,97.462L32.167,97.923L32.235,97.538L32.304,95.692L32.372,95.231L32.441,94.308L32.509,93.154L32.578,93.385L32.646,92.846L32.714,91.846L32.783,90.538L32.851,89.923L32.92,89.769L32.988,88.692L33.057,89.462L33.125,90.692L33.194,92.154L33.262,92.077L33.33,91.231L33.399,90.615L33.467,90.538L33.536,90L33.604,90L33.673,88.462L33.741,87.769L33.81,87.923L33.878,87.308L33.946,85.385L34.015,84.385L34.083,84.462L34.152,83.462L34.22,82.231L34.289,81.846L34.357,81.231L34.426,82.692L34.494,83.846L34.563,84.231L34.631,83.923L34.699,83.538L34.768,83.538L34.836,84.077L34.905,84.692L34.973,84.769L35.042,84.846L35.11,84.692L35.179,84.538L35.247,83.308L35.315,82.462L35.384,84L35.452,85.231L35.521,85.923L35.589,87L35.658,87.077L35.726,88.615L35.795,89.308L35.863,90L35.931,91.923L36,93.923L36.068,94.923L36.137,95.615L36.205,97L36.274,98.308L36.342,99.462L36.411,101.385L36.479,102L36.547,102.308L36.616,103.154L36.684,102.692L36.753,104.385L36.821,105.231L36.89,105.769L36.958,106.308L37.027,106.538L37.095,107.231L37.163,107L37.232,106.692L37.3,107.231L37.369,108.077L37.437,106.923L37.506,107.154L37.574,106.846L37.643,106.769L37.711,107.385L37.779,107.154L37.848,106.692L37.916,106.462L37.985,106.231L38.053,106.077L38.122,105.846L38.19,105.462L38.259,104.846L38.327,104.846L38.396,104.154L38.464,104.308L38.532,104.231L38.601,103.923L38.669,103.538L38.738,104.231L38.806,104L38.875,104.385L38.943,105.154L39.012,104.615L39.08,104.769L39.148,104.308L39.217,104.538L39.285,105.538L39.354,106.308L39.422,106.692L39.491,107.692L39.559,107.769L39.628,106.615L39.696,106.692L39.764,106.615L39.833,107L39.901,105.923L39.97,106.231L40.038,106.538L40.107,106.385L40.175,104.385L40.244,103.923L40.312,102.462L40.38,101.538L40.449,100.923L40.517,100.846L40.586,100.308L40.654,100.154L40.723,100.231L40.791,99.385L40.86,98.923L40.928,98.769L40.996,98.308L41.065,98.692L41.133,98.154L41.202,98.154L41.27,98.692L41.339,97.385L41.407,96.769L41.476,96.615L41.544,96.692L41.612,96.462L41.681,97.538L41.749,97.692L41.818,96.923L41.886,95.923L41.955,95.154L42.023,94.769L42.092,94.385L42.16,93.462L42.228,96.154L42.297,97.769L42.365,99.077L42.434,99.154L42.502,99.769L42.571,100L42.639,100.615L42.708,100.308L42.776,100L42.845,99.846L42.913,99.846L42.981,98.692L43.05,99.077L43.118,98.538L43.187,98.077L43.255,98.231L43.324,98.385L43.392,98.462L43.461,98.462L43.529,98.308L43.597,97.385L43.666,98L43.734,98.615L43.803,98.231L43.871,99.692L43.94,99.923L44.008,100.462L44.077,100.923L44.145,101.692L44.213,102.385L44.282,101.692L44.35,101.769L44.419,102.077L44.487,102.923L44.556,101.462L44.624,101.385L44.693,101.462L44.761,102.231L44.829,103.077L44.898,104.308L44.966,105.077L45.035,106.846L45.103,107.154L45.172,107.923L45.24,109.231L45.309,110.231L45.377,110.385L45.445,111.923L45.514,112.846L45.582,113.462L45.651,114L45.719,112.692L45.788,112.846L45.856,112.615L45.925,111.846L45.993,112.154L46.061,113.538L46.13,112.846L46.201,111.692L46.27,111.692L46.338,112.615L46.407,112.385L46.475,112.846L46.543,113.385L46.612,115.077L46.68,115.923L46.749,115.385L46.817,115.769L46.886,115.231L46.954,115.154L47.023,115L47.091,114.077L47.159,113.538L47.228,113.077L47.296,112.692L47.365,111.462L47.433,111.615L47.502,111.462L47.57,111.923L47.639,111.846L47.707,112.308L47.775,113.462L47.844,112.846L47.912,113.923L47.981,114.308L48.049,114.615L48.118,114.308L48.186,115.154L48.255,116.615L48.323,117.692L48.392,117.615L48.46,117.846L48.528,117.846L48.597,117.462L48.665,117.692L48.734,117.538L48.802,117.615L48.871,117.692L48.939,118.769L49.008,118.462L49.076,118.538L49.144,117.462L49.213,117.538L49.281,116.231L49.35,115.846L49.418,115.692L49.487,115.308L49.555,115.308L49.624,114.692L49.692,114.308L49.76,113.077L49.829,112.462L49.897,113L49.966,112.308L50.034,110.923L50.103,110.692L50.171,110.231L50.24,109.385L50.308,108.615L50.376,108.154L50.445,106.923L50.513,106.538L50.582,106.154L50.65,104.846L50.719,104.692L50.787,104.615L50.856,105.077L50.924,104.846L50.992,103.692L51.061,103.538L51.129,102.769L51.198,103L51.266,103.538L51.335,105.692L51.403,106.385L51.472,106.692L51.54,105.923L51.608,105.231L51.677,104.769L51.745,104.769L51.814,105.769L51.882,106L51.951,105.308L52.019,104.692L52.088,105.538L52.156,105.692L52.225,106.231L52.293,106.692L52.361,106.692L52.43,105.077L52.498,105.615L52.567,105.615L52.635,105.077L52.704,105.923L52.772,105.923L52.841,104.538L52.909,103.462L52.977,103L53.046,102.846L53.114,101.769L53.183,102.462L53.251,102.923L53.32,101.231L53.388,99.846L53.457,99.692L53.525,99.846L53.593,100L53.662,99.231L53.73,100.231L53.799,99.692L53.867,99.154L53.936,99.462L54.004,99.154L54.073,99.385L54.141,99.385L54.209,99.231L54.278,98.846L54.346,98.308L54.415,98.615L54.483,99.077L54.552,98.923L54.62,99.154L54.689,99.615L54.757,99L54.823,98.462L54.891,98.385L54.96,99.154L55.028,98.077L55.096,97.462L55.165,98.846L55.233,97.923L55.302,97.846L55.37,98.846L55.439,99.769L55.507,99.923L55.576,98.846L55.644,99.077L55.712,99.692L55.781,98.385L55.849,98.538L55.918,98.231L55.986,98.231L56.055,98.538L56.123,99L56.192,98.538L56.26,97.462L56.328,96.077L56.397,95.769L56.465,94.231L56.534,94.308L56.602,94.692L56.671,94L56.739,93.231L56.808,93.538L56.876,93.615L56.944,94.308L57.013,94.692L57.081,96.615L57.15,96.615L57.218,96.538L57.287,97.077L57.355,96.692L57.424,96.308L57.492,96.769L57.56,96.231L57.629,96.462L57.697,96L57.766,96.077L57.834,95.462L57.903,95.538L57.971,95.769L58.04,95.846L58.108,96.615L58.176,95.385L58.245,95L58.313,95.385L58.382,96.538L58.45,97.385L58.519,98.846L58.587,98.692L58.656,97.385L58.724,96.923L58.792,96.462L58.861,95.846L58.929,95.923L58.998,95.846L59.066,94.538L59.135,91.923L59.203,92.308L59.272,91.154L59.34,90.538L59.409,90.231L59.477,89.923L59.545,88.846L59.614,88.615L59.682,88.615L59.751,89.846L59.819,89.769L59.888,90.462L59.956,91.077L60.025,91.769L60.093,90.692L60.161,90.077L60.23,91L60.298,91.692L60.367,92L60.435,93.231L60.504,92.538L60.572,92.846L60.641,94.154L60.709,95.769L60.777,96.846L60.846,97.308L60.914,97.615L60.983,97.385L61.051,97.462L61.12,97.308L61.188,98.538L61.257,99.769L61.325,99.615L61.393,100.231L61.462,101L61.53,102.154L61.599,101.846L61.667,101.385L61.736,102.231L61.804,101.692L61.873,102.769L61.941,103.154L62.009,102.769L62.078,102.923L62.146,103.308L62.215,103.462L62.283,103.231L62.352,102.846L62.42,102.846L62.489,100.923L62.557,101L62.625,100.385L62.694,99.769L62.762,99.692L62.831,99.846L62.899,101.154L62.968,101.692L63.036,101.769L63.105,101.385L63.173,102.462L63.242,102.923L63.31,102.692L63.378,103.769L63.447,103.308L63.515,103.769L63.584,102.769L63.652,103.692L63.721,104.615L63.789,105.385L63.858,105.308L63.926,103.846L63.994,103.769L64.063,103.923L64.131,102.846L64.2,102.846L64.268,102.308L64.337,102.462L64.405,102.615L64.474,103L64.542,104.692L64.61,105.462L64.679,105.462L64.747,105.231L64.816,105.231L64.884,105.154L64.953,103.385L65.021,102.769L65.09,102.769L65.158,103.231L65.226,104L65.295,104L65.363,103.308L65.432,102.538L65.5,102.769L65.569,101.308L65.637,100.923L65.706,100.692L65.774,98.923L65.842,98.231L65.911,97.846L65.979,98.231L66.048,98L66.116,98.231L66.185,98.923L66.253,99.154L66.322,100.462L66.39,100.538L66.458,100.538L66.527,99.538L66.595,99L66.664,97.692L66.732,97.462L66.801,97.615L66.869,96.846L66.938,95.538L67.006,95.769L67.074,95.846L67.143,96.308L67.211,96.231L67.28,94.615L67.348,92.846L67.417,92.923L67.485,93.077L67.554,93.538L67.622,95L67.691,95.308L67.759,95.231L67.827,96.385L67.896,96.154L67.964,96.154L68.033,96.923L68.101,97.385L68.17,96.154L68.238,95.538L68.307,95.231L68.375,94.154L68.443,94.308L68.512,95.308L68.58,96.692L68.649,96.077L68.717,96.769L68.786,95.923L68.854,95.462L68.923,96.154L68.991,97.385L69.059,98.846L69.128,99.154L69.196,98.538L69.265,98.154L69.333,98.769L69.402,100.923L69.47,101.615L69.539,102.385L69.607,102.231L69.675,101.538L69.744,102.077L69.812,102.538L69.881,103.308L69.949,102.692L70.018,103.385L70.086,102.385L70.155,101.692L70.223,103.231L70.291,104.538L70.36,105.154L70.428,106.077L70.497,106.308L70.565,106.462L70.634,105.462L70.702,106L70.771,106.154L70.839,107L70.907,107.846L70.976,108.308L71.044,107.923L71.116,107.231L71.184,107.615L71.253,107.923L71.321,108.538L71.389,108.231L71.458,107.385L71.526,106.923L71.595,106.538L71.663,106.308L71.732,106.615L71.8,106.462L71.869,106.154L71.937,105.846L72.005,105.385L72.074,105.077L72.142,105.154L72.211,106L72.279,106.308L72.348,105.769L72.416,105.923L72.485,106.231L72.553,107.077L72.621,106.769L72.69,107.385L72.758,108.077L72.827,107.769L72.895,108.231L72.964,108.615L73.032,108.923L73.101,108.769L73.169,108.846L73.238,108.846L73.306,109.231L73.374,108.308L73.443,108.231L73.511,108.923L73.58,108.846L73.648,109.615L73.717,109.923L73.785,109.769L73.854,110.308L73.922,109.462L73.99,109.692L74.059,110L74.127,109.231L74.196,109.077L74.264,108.769L74.333,108.769L74.401,108.077L74.47,106.846L74.538,106.154L74.606,105.308L74.675,104.846L74.743,104.462L74.812,104L74.88,104.385L74.949,104.077L75.017,103L75.086,102.154L75.154,102L75.222,102.308L75.291,100.692L75.359,99.769L75.428,100.462L75.496,100.692L75.565,100.615L75.633,100.692L75.702,100.231L75.77,99.615L75.838,99.923L75.907,99.308L75.975,100.385L76.044,100L76.112,100.538L76.181,101.769L76.249,102.538L76.318,102.692L76.386,101.538L76.454,100.923L76.523,101.154L76.591,101.385L76.66,101.385L76.728,101.538L76.797,101.615L76.865,100.846L76.934,100.231L77.002,99.923L77.07,100.154L77.139,100.692L77.207,101.077L77.276,99.538L77.344,100.769L77.413,101.538L77.481,101.231L77.55,101.462L77.618,101L77.687,101.231L77.755,99.846L77.823,100.231L77.892,99.615L77.96,99.154L78.029,98.615L78.097,99.308L78.166,99.462L78.234,98L78.303,97.615L78.371,96.462L78.439,96.538L78.508,97.923L78.576,98.769L78.645,97.846L78.713,97.308L78.782,96.538L78.85,96.077L78.919,96.846L78.987,96.769L79.055,96.462L79.124,97.077L79.192,96.615L79.261,96L79.329,97.385L79.398,96.308L79.466,96.846L79.535,96.538L79.603,95.692L79.671,94.385L79.737,93.769L79.805,94.692L79.874,94.077L79.942,94.462L80.011,93.538L80.079,93.385L80.148,93L80.216,92.769L80.285,93L80.353,93.308L80.422,94.538L80.49,95L80.558,94.846L80.627,94.692L80.695,94.615L80.764,94.154L80.832,95.154L80.901,96.462L80.969,96.769L81.038,97L81.106,97L81.174,95.923L81.243,95.231L81.311,95.077L81.38,95L81.448,95.308L81.517,95.308L81.585,95.846L81.654,95.154L81.722,96.154L81.79,96.615L81.859,96.462L81.927,96.462L81.996,97.462L82.064,99.769L82.133,99.846L82.201,99.231L82.27,98.846L82.338,99.154L82.406,97.231L82.475,96.077L82.543,94.769L82.612,93.846L82.68,92.615L82.749,92.385L82.817,92.154L82.886,90.615L82.954,89.538L83.022,88.308L83.091,88.923L83.159,89.385L83.228,90.154L83.296,89.692L83.365,88.385L83.433,88.385L83.502,88.692L83.57,86.462L83.638,85.308L83.707,85.923L83.775,85.846L83.844,84.846L83.912,84.154L83.981,84.692L84.049,83.231L84.118,81.923L84.186,81.385L84.255,81.692L84.323,81.462L84.391,82.077L84.46,82.692L84.528,83.385L84.597,83.923L84.665,84.077L84.734,84.846L84.802,84.231L84.871,84.769L84.939,85.769L85.007,85.308L85.076,85.231L85.144,84.769L85.213,85.538L85.281,86.077L85.35,86.538L85.418,88.846L85.487,89.385L85.555,90.692L85.623,93.154L85.692,95.538L85.76,97.154L85.829,97.923L85.897,98.692L85.966,99.308L86.034,99.385L86.103,100.692L86.171,101.385L86.239,103L86.308,103.462L86.376,104.462L86.445,103.846L86.513,105.615L86.582,106.538L86.65,107.692L86.719,108.846L86.787,110L86.855,111.923L86.924,112.385L86.992,113.231L87.061,114.077L87.129,115.462L87.198,116.154L87.266,115.923L87.335,115.846L87.403,116.692L87.471,117.077L87.54,116.692L87.608,116.538L87.677,116.154L87.745,115.231L87.814,114.231L87.882,114.385L87.951,115.231L88.019,115.692L88.087,115.769L88.156,115L88.224,115L88.293,114.692L88.361,114.077L88.43,113.692L88.498,114.308L88.567,112.923L88.635,112.077L88.704,111.923L88.772,111.385L88.84,110.308L88.909,109.769L88.977,110.154L89.046,109.462L89.114,109.385L89.183,107.462L89.251,106.615L89.32,105.538L89.388,105.385L89.456,105.538L89.525,105.308L89.593,104.923L89.662,104.385L89.73,104.462L89.799,103.615L89.867,103.385L89.936,103.231L90.004,102.692L90.072,102.462L90.141,101.615L90.209,100.769L90.278,99.308L90.346,98L90.415,98.154L90.483,98.385L90.552,98.231L90.62,98.462L90.688,98.077L90.757,96.692L90.825,95.692L90.894,94.385L90.962,93.154L91.031,91.231L91.099,91.077L91.168,90.231L91.236,90.615L91.304,89.846L91.373,90.077L91.441,88.154L91.51,86.462L91.578,85.615L91.647,85.462L91.715,84.462L91.784,83.077L91.852,83.462L91.92,83.769L91.989,83.692L92.057,82.846L92.126,82.769L92.194,83.154L92.263,83.231L92.331,83.692L92.4,84.308L92.468,83.923L92.537,84.231L92.605,83.692L92.673,83.769L92.742,84.692L92.81,86.154L92.879,87L92.947,88L93.016,89.077L93.084,90.538L93.153,90.846L93.221,91.308L93.289,91.846L93.358,91.154L93.426,88.154L93.495,90.231L93.563,91.231L93.632,91.231L93.7,91.615L93.769,92.923L93.837,93.615L93.905,94.462L93.974,94.769L94.042,94.923L94.111,94.385L94.179,94.077L94.248,94.538L94.316,94.769L94.385,95.769L94.453,95.538L94.521,95.462L94.59,94.923L94.658,95.077L94.727,95.692L94.795,94.846L94.864,94.538L94.932,94.462L95.001,94.615L95.069,94.385L95.137,93.769L95.206,93.154L95.274,93.692L95.343,94.154L95.411,96.154L95.48,98.692L95.548,97.692L95.617,97.846L95.685,98.462L95.753,99.154L95.822,99.308L95.89,100.462L95.959,100.231L96.03,100.077L96.099,100.077L96.167,101.231L96.235,101.923L96.304,100.692L96.372,100.923L96.441,100.154L96.509,99.923L96.578,100.846L96.646,100.692L96.715,100.615L96.783,99.923L96.851,100.385L96.92,99.923L96.988,99.923L97.057,100.385L97.125,100.462L97.194,100.846L97.262,100.154L97.331,100.308L97.399,100.538L97.467,100.462L97.536,101.769L97.604,101.846L97.673,102.077L97.741,101.231L97.81,101.154L97.878,100.385L97.947,98.538L98.015,98.769L98.084,98.077L98.152,98L98.22,98.231L98.289,98L98.357,99L98.426,99.154L98.494,99.385L98.563,99.846L98.631,98.692L98.7,98.692L98.768,98.846L98.836,98.231L98.905,97.462L98.973,96.923L99.042,96.923L99.11,97.077L99.179,96.846L99.247,97.769L99.316,98.308L99.384,97.077L99.452,96.692L99.521,96.385L99.589,96.077L99.658,96.769L99.726,95.923L99.795,96.385L99.863,95.615L99.932,96.077L100,96.846L100.068,95.615L100.137,96.538L100.205,96.923L100.274,96.154L100.342,95.692L100.411,95.692L100.479,95.923L100.548,95.692L100.616,96.538L100.684,97.846L100.753,97.692L100.821,97.692L100.89,99.308L100.958,100.231L101.027,101.077L101.095,101.769L101.164,102.231L101.232,102.077L101.3,101.538L101.369,101.692L101.437,102.077L101.506,102.231L101.574,102.308L101.643,101.846L101.711,100.538L101.78,101.077L101.848,100.692L101.916,101.231L101.985,101.077L102.053,101.231L102.122,102.154L102.19,102.077L102.259,101.462L102.327,101.615L102.396,101.769L102.464,101.154L102.533,100.923L102.601,99.538L102.669,98L102.738,97.308L102.806,97L102.875,97L102.943,95L103.012,94.538L103.08,93.538L103.149,93.308L103.217,92.308L103.285,92.154L103.354,92.538L103.422,92.231L103.491,92.615L103.559,93.077L103.628,94L103.696,94.462L103.765,95.462L103.833,95.231L103.901,93.923L103.97,94.308L104.038,94.692L104.107,95.154L104.175,94.923L104.244,94.231L104.312,94L104.381,95.231L104.449,95.077L104.517,95.154L104.586,94.154L104.651,95.308L104.72,94.462L104.788,94.769L104.857,96.308L104.925,95.923L104.994,96L105.062,96.923L105.131,98.308L105.199,98.308L105.268,98.846L105.336,99.077L105.404,99.231L105.473,98.692L105.541,98.154L105.61,96.231L105.678,95.385L105.747,95L105.815,95.154L105.884,93.077L105.952,95.231L106.02,93.846L106.089,91.846L106.157,90.538L106.226,90.154L106.294,90.308L106.363,87.692L106.431,81.769L106.5,81.308L106.568,80.308L106.636,81.615L106.705,80.308L106.773,81.308L106.842,80.769L106.91,79.462L106.979,79.769L107.047,79.846L107.116,77.769L107.184,74.923L107.252,70.846L107.321,66.615L107.389,63.308L107.458,60.769L107.526,61.154L107.595,60.923L107.663,60.923L107.732,57.846L107.8,56.923L107.868,54.154L107.937,53.462L108.005,47.615L108.074,45.846L108.142,45.615L108.211,44.769L108.279,42.769L108.348,41.692L108.416,43.077L108.484,47.308L108.553,48.846L108.621,47.846L108.69,47.077L108.758,47.769L108.827,47.077L108.895,43.462L108.964,42.692L109.032,41.385L109.101,42L109.169,41.769L109.237,41.923L109.306,44.308L109.374,47.846L109.443,49L109.511,49.231L109.58,48.077L109.648,47.846L109.717,47.923L109.785,51L109.853,51.308L109.922,52.385L109.99,53.923L110.059,58.154L110.127,59.462L110.196,60.538L110.264,61.231L110.333,63.154L110.401,63.846L110.469,65.385L110.538,66.385L110.606,66.615L110.675,70.538L110.743,71.846L110.812,73.077L110.88,73.846L110.949,77.615L111.017,78.692L111.085,80.769L111.154,82.077L111.222,83.692L111.291,86.077L111.359,86.538L111.428,85.846L111.496,87.846L111.565,88.846L111.633,89.692L111.701,90.077L111.77,91.308L111.838,90.769L111.907,92.308L111.975,93.308L112.044,93.385L112.112,93.308L112.181,94.154L112.249,94.538L112.317,95.692L112.386,95.462L112.454,96.231L112.523,96.385L112.591,95.692L112.66,94.692L112.728,92.923L112.797,92.385L112.865,91.923L112.933,91.077L113.002,91.385L113.07,90.923L113.139,89.077L113.207,88.692L113.276,88.077L113.344,87.231L113.413,87.308L113.481,87.154L113.55,84.846L113.618,85.462L113.686,85.846L113.755,85.077L113.823,84L113.892,83L113.96,78.769L114.029,77.154L114.097,77.154L114.166,77.923L114.234,77L114.302,76L114.371,75.308L114.439,76L114.508,75.385L114.576,73.923L114.645,73.231L114.713,73L114.782,73L114.85,73.231L114.918,72.615L114.987,72.462L115.055,71.692L115.124,70.462L115.192,69.923L115.261,68.308L115.329,68.846L115.398,68.231L115.466,66.615L115.534,65.615L115.603,67.308L115.671,64.769L115.74,62.538L115.808,61.538L115.877,60.615L115.945,60.385L116.014,62.923L116.082,63.769L116.15,64.231L116.219,62.923L116.287,61.538L116.356,60.308L116.424,59.077L116.493,57.231L116.561,56L116.63,57.615L116.698,57.923L116.766,57.231L116.835,56.308L116.903,52.154L116.972,51.615L117.04,51.308L117.109,50.615L117.177,51.385L117.246,53.154L117.314,53.692L117.383,51.769L117.451,51.308L117.519,54.308L117.588,57L117.656,57.769L117.725,58.692L117.793,61.154L117.862,62.769L117.93,64L117.999,64.462L118.067,64.769L118.135,63.538L118.204,63.231L118.272,63.769L118.341,64.923L118.409,67L118.478,67.538L118.546,69.077L118.615,70L118.683,69.231L118.751,69.923L118.82,70.615L118.888,72.154L118.957,75.769L119.025,76.615L119.094,76.692L119.162,76.769L119.231,75.231L119.299,73.615L119.367,73.385L119.436,73.692L119.504,72.923L119.573,72.077L119.641,72.154L119.71,70.538L119.778,72.769L119.847,72.846L119.915,72.462L119.983,73.077L120.052,74.769L120.12,74.615L120.189,76.385L120.257,74.154L120.326,74.231L120.394,74.615L120.463,75.077L120.531,74.846L120.599,74.769L120.668,74.077L120.736,74.077L120.805,74.538L120.873,74.769L120.945,74.154L121.013,74.077L121.081,74.308L121.15,75.615L121.218,76.846L121.287,79.308L121.355,80L121.424,81.154L121.492,82.692L121.561,84.308L121.629,83.385L121.697,82.385L121.766,84.077L121.834,83.846L121.903,84.385L121.971,86.308L122.04,86.769L122.108,86.846L122.177,88.308L122.245,89.462L122.313,93.538L122.382,94.692L122.45,95.692L122.519,95.923L122.587,97.692L122.656,98L122.724,98.846L122.793,97.385L122.861,96.769L122.93,97.308L122.998,98.154L123.066,99.462L123.135,99.308L123.203,99.615L123.272,99.462L123.34,100.154L123.409,99.538L123.477,98.308L123.546,98.846L123.614,98.308L123.682,97.615L123.751,97.385L123.819,96.923L123.888,96.231L123.956,95.231L124.025,95L124.093,92.846L124.162,90.692L124.23,89.923L124.298,89.385L124.367,88.538L124.435,88.385L124.504,88.077L124.572,87.615L124.641,87L124.709,86.769L124.778,86.692L124.846,88.385L124.914,88.692L124.983,88.154L125.051,86.308L125.12,85.231L125.188,87.077L125.257,87.538L125.325,88.538L125.394,88.692L125.462,91L125.53,92.769L125.599,93.077L125.667,94.231L125.736,96.615L125.804,97.385L125.873,98.615L125.941,99.308L126.01,100.615L126.078,100.692L126.146,103.231L126.215,104.923L126.283,105L126.352,105.231L126.42,105.923L126.489,106.615L126.557,107.462L126.626,108.462L126.694,108.692L126.762,108L126.831,108.077L126.899,105.923L126.968,105.692L127.036,106.154L127.105,107.538L127.173,107.692L127.242,105.308L127.31,104.538L127.379,103.385L127.447,103.077L127.515,102.077L127.584,101.154L127.652,97.231L127.721,96.769L127.789,91.615L127.858,88.769L127.926,87.923L127.995,87.692L128.063,86.231L128.131,85.692L128.2,83.846L128.268,83.615L128.337,82.923L128.405,80.538L128.474,77.538L128.542,74.385L128.611,71.538L128.679,70.769L128.747,67.538L128.816,66.308L128.884,64.308L128.953,65.923L129.021,66.154L129.09,64.154L129.158,64.154L129.227,64.308L129.295,65.538L129.363,64.538L129.432,62.231L129.5,59.769L129.569,56.077L129.637,52L129.706,52.769L129.774,51.308L129.843,52L129.911,54.385L129.979,54.308L130.045,51.308L130.114,47.846L130.182,47.615L130.25,48.308L130.319,46.385L130.387,43.385L130.456,43.231L130.524,41.462L130.593,42.462L130.661,44.231L130.73,42.154L130.798,39.538L130.866,39.231L130.935,39.769L131.003,38.538L131.072,33.846L131.14,34.615L131.209,32.538L131.277,30.846L131.346,26.923L131.414,27L131.482,26.308L131.551,28.077L131.619,29.077L131.688,31.154L131.756,32.231L131.825,34.308L131.893,36.846L131.962,34.231L132.03,30.692L132.098,28.077L132.167,28.231L132.235,23.538L132.304,18L132.372,15.308L132.441,12.769L132.509,9.154L132.578,9.615L132.646,6.538L132.714,3.462L132.783,1.231L132.851,4.154L132.92,3.154L132.988,2.692L133.057,0.154L133.125,4.154L133.194,5.231L133.262,7.615L133.33,5.385L133.399,5L133.467,3.154L133.536,5.769L133.604,4.462L133.673,4.692L133.741,3.769L133.81,2.462L133.878,1.462L133.946,0.385L134.015,1L134.083,3.231L134.152,5.077L134.22,4.385L134.289,6L134.357,8.231L134.426,9.692L134.494,12.231L134.563,15.846L134.631,17.462L134.699,20L134.768,21.538L134.836,25.231L134.905,25.462L134.973,25.308L135.042,22.923L135.11,25.231L135.179,23.154L135.247,21.923L135.315,20.692L135.384,23.154L135.452,28.077L135.521,31.462L135.589,31.462L135.658,32.308L135.726,33.769L135.795,37L135.863,38.769L135.931,39.923L136,42.077L136.068,43.538L136.137,44.154L136.205,47.615L136.274,50.538L136.342,53.308L136.411,56.154L136.479,59.077L136.547,63.154L136.616,64.231L136.684,64.385L136.753,64.692L136.821,65L136.89,63.538L136.958,63.923L137.027,64.077L137.095,67.692L137.163,68.615L137.232,71.077L137.3,70.462L137.369,71.692L137.437,72L137.506,70.385L137.574,68.923L137.643,68.308L137.711,67.385L137.779,66.615L137.848,64.923L137.916,64.615L137.985,63.769L138.053,63.462L138.122,62.923L138.19,63.385L138.259,63.077L138.327,64.846L138.396,64.769L138.464,65.462L138.532,64.923L138.601,63.692L138.669,63.308L138.738,65L138.806,66.154L138.875,67.538L138.943,68.769L139.012,71.538L139.08,74.538L139.148,75.538L139.217,75.923L139.285,76L139.354,78L139.422,76.846L139.491,75L139.559,75.154L139.628,76L139.696,78L139.764,79.154L139.833,79.538L139.901,79.077L139.97,78.538L140.038,77.692L140.107,77.385L140.175,77.923L140.244,78.923L140.312,77.923L140.38,75.923L140.449,72.923L140.517,73.154L140.586,73.615L140.654,73.462L140.723,74.615L140.791,74.615L140.86,73.923L140.928,72.538L140.996,72.462L141.065,70.846L141.133,71L141.202,70.538L141.27,70.769L141.339,68.615L141.407,67.231L141.476,67.231L141.544,69.385L141.612,68.846L141.681,68L141.749,67L141.818,65.538L141.886,65.154L141.955,66.385L142.023,67.769L142.092,68.077L142.16,67.462L142.228,65.308L142.297,62.923L142.365,62.846L142.434,62.692L142.502,64.231L142.571,62.385L142.639,60.769L142.708,59.308L142.776,58.462L142.845,58.077L142.913,59.615L142.981,60.923L143.05,59.846L143.118,58.769L143.187,56.308L143.255,56L143.324,55.077L143.392,56.615L143.461,58L143.529,58.462L143.597,58.615L143.666,59.615L143.734,60.923L143.803,58.538L143.871,60.308L143.94,62.154L144.008,62.615L144.077,62.769L144.145,63.385L144.213,65.308L144.282,67.692L144.35,67.846L144.419,66.923L144.487,67.923L144.556,69.462L144.624,71.538L144.693,73.615L144.761,75.923L144.829,76.615L144.898,77L144.966,76.462L145.035,75.308L145.103,77.692L145.172,78.615L145.24,80.308L145.309,81.385L145.377,82.923L145.445,83.692L145.514,84.308L145.582,85.769L145.651,86.615L145.719,86.462L145.788,86.615L145.856,90.154L145.925,90.462L145.993,90.615L146.061,91.077L146.13,91L146.198,90.538L146.267,89.923L146.338,90L146.407,92.077L146.475,95.077L146.543,95.462L146.612,95.846L146.68,95.923L146.749,95.308L146.817,94.231L146.886,93.154L146.954,92.154L147.023,91.538L147.091,93.231L147.159,92.615L147.228,93.385L147.296,94.692L147.365,95.154L147.433,95.462L147.502,95.846L147.57,94.385L147.639,91.923L147.707,91.538L147.775,92.308L147.844,92.385L147.912,91.308L147.981,91L148.049,91.769L148.118,90.846L148.186,91.615L148.255,92.462L148.323,92.692L148.392,93.308L148.46,93.615L148.528,93.692L148.597,94.385L148.665,94.231L148.734,93.769L148.802,93.308L148.871,92.923L148.939,93.692L149.008,95.462L149.076,97.154L149.144,96.538L149.213,95.923L149.281,96.154L149.35,96.077L149.418,94.923L149.487,94.077L149.555,93.923L149.624,93.769L149.692,93.846L149.76,92.846L149.829,91.462L149.897,91.231L149.966,92L150.034,93.231L150.103,93.154L150.171,93.308L150.24,92.615L150.308,93.385L150.376,93.385L150.445,92.692L150.513,91.923L150.582,90.692L150.65,90.462L150.719,89.769L150.787,89.538L150.856,90.231L150.924,89.769L150.992,91L151.061,91.462L151.129,90.385L151.198,91L151.266,91L151.335,90.538L151.403,90.923L151.472,92.077L151.54,91.615L151.608,91.769L151.677,92.462L151.745,92.846L151.814,93.923L151.882,94.538L151.951,94.538L152.019,94.769L152.088,93L152.156,90.923L152.225,90.692L152.293,90.308L152.361,89.077L152.43,86.385L152.498,85.692L152.567,85.462L152.635,85.462L152.704,84.846L152.772,85.154L152.841,85.769L152.909,86.385L152.977,88.077L153.046,84.692L153.114,79.769L153.183,78.538L153.251,75.154L153.32,73.308L153.388,72.154L153.457,70.385L153.525,69.385L153.593,70.462L153.662,70.385L153.73,68.846L153.799,69.308L153.867,69.308L153.936,70.231L154.004,69.538L154.073,69.385L154.141,69.231L154.209,69.462L154.278,68.923L154.346,68.231L154.415,67.923L154.483,68.846L154.552,70.077L154.62,71L154.689,69.615L154.757,69.769L154.825,69.846L154.894,67.923L154.96,64.077L155.028,62.462L155.096,63.077L155.165,64.615L155.233,65.538L155.302,67.923L155.37,70.769L155.439,71.385L155.507,70.923L155.576,69.154L155.644,66.615L155.712,64.077L155.781,64.538L155.849,64.231L155.918,62.692L155.986,62.231L156.055,61.692L156.123,60.385L156.192,59.462L156.26,58L156.328,59.154L156.397,58.769L156.465,57.692L156.534,58.231L156.602,58.308L156.671,58.538L156.739,60.077L156.808,59.077L156.876,57.385L156.944,57.308L157.013,58.923L157.081,59.077L157.15,61.231L157.218,60.231L157.287,59.692L157.355,58.385L157.424,57.615L157.492,56.308L157.56,56.538L157.629,57L157.697,57.154L157.766,56.462L157.834,56.077L157.903,55.308L157.971,55.385L158.04,54.538L158.108,53.692L158.176,52L158.245,52.692L158.313,52L158.382,52.385L158.45,53.615L158.519,54L158.587,52.769L158.656,50.154L158.724,47.923L158.792,48.308L158.861,49.769L158.929,51.769L158.998,53L159.066,52.923L159.135,54.462L159.203,54.077L159.272,57.385L159.34,57.154L159.409,57.769L159.477,56.692L159.545,57.769L159.614,58.615L159.682,58L159.751,59.077L159.819,61.769L159.888,61.154L159.956,61.538L160.025,62L160.093,60.538L160.161,62.308L160.23,63.231L160.298,63.769L160.367,66.231L160.435,65.615L160.504,65.769L160.572,67.538L160.641,70.077L160.709,73.308L160.777,74.692L160.846,74.538L160.914,74.769L160.983,74.231L161.051,74.538L161.12,76.154L161.188,75.615L161.257,76L161.325,75.769L161.393,76.769L161.462,78.154L161.53,79.231L161.599,80.462L161.667,79.615L161.736,82L161.804,83.154L161.873,83.077L161.941,84.077L162.009,85.077L162.078,86.154L162.146,88L162.215,86.692L162.283,88.154L162.352,89L162.42,89.538L162.489,90.231L162.557,90L162.625,90.077L162.694,89.308L162.762,87.846L162.831,88.231L162.899,87.308L162.968,86L163.036,87L163.105,86.692L163.173,86.538L163.242,85.538L163.31,84.385L163.378,82.846L163.447,81.615L163.515,81.308L163.584,80.769L163.652,80.615L163.721,81.538L163.789,81.231L163.858,80.692L163.926,80.692L163.994,81.846L164.063,81.308L164.131,80.462L164.2,80.923L164.268,81.769L164.337,82.077L164.405,80.462L164.474,79.154L164.542,79L164.61,79.462L164.679,79.154L164.747,79L164.816,79.462L164.884,77.462L164.953,79.462L165.021,81.308L165.09,80.462L165.158,81.077L165.226,80.846L165.295,80.846L165.363,81.769L165.432,83.308L165.5,84.154L165.569,83.769L165.637,83.231L165.706,82.385L165.774,81.231L165.842,80.231L165.911,81.308L165.979,81.615L166.048,80.769L166.116,80.769L166.185,81.538L166.253,80.769L166.322,80.692L166.39,79.462L166.458,79.923L166.527,80.923L166.595,80.615L166.664,80.923L166.732,81.615L166.801,82.769L166.869,83L166.938,85.385L167.006,84.462L167.074,83.385L167.143,82.308L167.211,82.077L167.28,83.077L167.348,84.462L167.417,84.077L167.485,84.154L167.554,84.923L167.622,84.846L167.691,85.923L167.759,85L167.827,86.538L167.896,87.846L167.964,87.462L168.033,87.077L168.101,87.154L168.17,87.615L168.238,87.462L168.307,88.538L168.375,88.077L168.443,88.231L168.512,87.769L168.58,87.462L168.649,87.923L168.717,86.846L168.786,84.846L168.854,84.308L168.923,83.231L168.991,81.308L169.059,80.538L169.128,79.538L169.196,79.308L169.265,77.154L169.333,75.769L169.402,74.615L169.47,74.615L169.539,74.154L169.607,74.462L169.675,75L169.744,73.231L169.812,74.231L169.881,72.385L169.949,72.154L170.018,71.769L170.086,72.308L170.155,71.923L170.223,72.154L170.291,71.385L170.36,70.308L170.428,71.462L170.497,71.615L170.565,72.154L170.634,72.385L170.702,72.308L170.771,71.308L170.839,70.923L170.907,70.385L170.976,70.846L171.044,71.154L171.113,70.923L171.181,71.692L171.253,73.462L171.321,75.462L171.389,76.923L171.458,77.385L171.526,78.154L171.595,79.308L171.663,78.923L171.732,78.231L171.8,80.231L171.869,81.154L171.937,83.538L172.005,83.692L172.074,83.846L172.142,82.923L172.211,84L172.279,83.692L172.348,84.308L172.416,85.308L172.485,85.615L172.553,87L172.621,87.308L172.69,87.846L172.758,87.538L172.827,88.692L172.895,89.769L172.964,90.692L173.032,90.692L173.101,92.231L173.169,93.385L173.238,94L173.306,94.692L173.374,94.615L173.443,94.308L173.511,95.231L173.58,95L173.648,94.692L173.717,94.692L173.785,96.692L173.854,97.692L173.922,98.385L173.99,98.308L174.059,98.846L174.127,98.769L174.196,99.462L174.264,99.154L174.333,99.385L174.401,99.538L174.47,99.538L174.538,99.385L174.606,98.231L174.675,99.077L174.743,99.615L174.812,99.308L174.88,99.077L174.949,99.231L175.017,98.692L175.086,98.462L175.154,97.615L175.222,97.615L175.291,97.231L175.359,97.154L175.428,97.538L175.496,97.154L175.565,95.538L175.633,95.308L175.702,94.385L175.77,93.308L175.838,91.846L175.907,91.077L175.975,90.308L176.044,89.769L176.112,89.077L176.181,89.077L176.249,90.077L176.318,90.538L176.386,89.846L176.454,89.538L176.523,89L176.591,87.923L176.66,87.846L176.728,86.923L176.797,86.538L176.865,86.538L176.934,87.231L177.002,87.692L177.07,88L177.139,88.692L177.207,89.308L177.276,89.692L177.344,89.538L177.413,89.231L177.481,89.462L177.55,89.846L177.618,91.385L177.687,92.077L177.755,93.385L177.823,93.385L177.892,93.385L177.96,92.231L178.029,91.615L178.097,89.846L178.166,88.692L178.234,88.615L178.303,87.615L178.371,86.923L178.439,86.385L178.508,85.846L178.576,85.077L178.645,84.692L178.713,85.462L178.782,85.769L178.85,84.615L178.919,84.154L178.987,83.231L179.055,82.923L179.124,81.923L179.192,80.615L179.261,80.231L179.329,79.308L179.398,77.077L179.466,76.308L179.535,74.154L179.603,74.385L179.671,73.692L179.74,72.538L179.808,71.308L179.874,70.769L179.942,67L180.011,65.385L180.079,65.154L180.148,65.769L180.216,65.231L180.285,64L180.353,63.538L180.422,63.692L180.49,63.769L180.558,64.308L180.627,64.615L180.695,64.385L180.764,63.846L180.832,63.615L180.901,64.385L180.969,64.538L181.038,66.154L181.106,67.308L181.174,68.769L181.243,69.769L181.311,69.538L181.38,70.462L181.448,73.231L181.517,73.077L181.585,73.538L181.654,71.846L181.722,72.231L181.79,72.615L181.859,71.769L181.927,72.615L181.996,75L182.064,76.154L182.133,76.077L182.201,76.385L182.27,77.077L182.338,78.154L182.406,77.692L182.475,77.385L182.543,79L182.612,78.462L182.68,79.077L182.749,78.769L182.817,79.462L182.886,79.846L182.954,78.538L183.022,78.538L183.091,75.923L183.159,74.462L183.228,74.462L183.296,74.308L183.365,73.615L183.433,72.462L183.502,73.077L183.57,73.615L183.638,74.538L183.707,75.462L183.775,76.231L183.844,76.846L183.912,77.538L183.981,76.769L184.049,76.231L184.118,77.308L184.186,78.308L184.255,78.692L184.323,79.923L184.391,78.615L184.46,79.385L184.528,79.154L184.597,78.308L184.665,78.385L184.734,78L184.802,79.692L184.871,78.692L184.939,78.308L185.007,78.615L185.076,78.923L185.144,81.154L185.213,81.538L185.281,80L185.35,80.538L185.418,81.077L185.487,81.462L185.555,81L185.623,81.615L185.692,82.538L185.76,83.692L185.829,82.615L185.897,82L185.966,83.462L186.034,84.846L186.103,87L186.171,87L186.239,87L186.308,88.154L186.376,87.846L186.445,89.615L186.513,89.462L186.582,90.154L186.65,90.615L186.719,90.769L186.787,91.462L186.855,90.769L186.924,90.538L186.992,91.462L187.061,92.538L187.129,92.615L187.198,92.462L187.266,93L187.335,93.538L187.403,93.077L187.471,93.077L187.54,92.923L187.608,92L187.677,90.462L187.745,90.077L187.814,88.615L187.882,89.308L187.951,90.231L188.019,88.308L188.087,88.077L188.156,88.769L188.224,88.846L188.293,88.769L188.361,88.615L188.43,88.615L188.498,88L188.567,87.923L188.635,87L188.704,85.385L188.772,84.923L188.84,83.385L188.909,84.231L188.977,84.462L189.046,83.462L189.114,83.769L189.183,83L189.251,81.231L189.32,79.769L189.388,79.615L189.456,79.692L189.525,79.231L189.593,79.231L189.662,79.077L189.73,78.385L189.799,77.769L189.867,78.692L189.936,79.231L190.004,78.692L190.072,79.923L190.141,80.462L190.209,79.154L190.278,79.692L190.346,79.769L190.415,78.923L190.483,78.769L190.552,79L190.62,78.769L190.688,77.692L190.757,78.692L190.825,79L190.894,80L190.962,79.231L191.031,77.846L191.099,77.692L191.168,77.769L191.236,79.846L191.304,81.692L191.373,81.846L191.441,81.231L191.51,81.077L191.578,82.615L191.647,82.154L191.715,82.462L191.784,83L191.852,82.077L191.92,80.462L191.989,79L192.057,79L192.126,78.692L192.194,77.538L192.263,78.385L192.331,76.769L192.4,76.231L192.468,75.769L192.537,75.538L192.605,75.846L192.673,77L192.742,79.231L192.81,79.154L192.879,78.615L192.947,77.923L193.016,78.692L193.084,80.077L193.153,80.692L193.221,79.154L193.289,77.154L193.358,76.615L193.426,76.692L193.495,77.077L193.563,75.154L193.632,74.923L193.7,75.615L193.769,76.154L193.837,77.308L193.905,77.923L193.974,79.769L194.042,80.769L194.111,79.385L194.179,79.385L194.248,79.923L194.316,80.231L194.385,80.308L194.453,79.769L194.521,80.308L194.59,81.538L194.658,81.615L194.727,81.769L194.795,80.769L194.864,80.846L194.932,80.923L195.001,81.692L195.069,81.462L195.137,82.462L195.206,83L195.274,84.769L195.343,86.308L195.411,87L195.48,88.385L195.548,89.692L195.617,92.769L195.685,92.923L195.753,92.769L195.822,93L195.89,93.308L195.959,94.615L196.027,94.308L196.096,93.692L196.167,95L196.235,95.077L196.304,95.231L196.372,94.538L196.441,95.615L196.509,97.385L196.578,97.769L196.646,97.077L196.715,96.308L196.783,94.846L196.851,95.769L196.92,96.462L196.988,98.692L197.057,99.462L197.125,99.385L197.194,99.385L197.262,99.154L197.331,98.615L197.399,98.538L197.467,98.308L197.536,98.231L197.604,98.385L197.673,98.538L197.741,97.462L197.81,98.077L197.878,98.538L197.947,99.154L198.015,99.077L198.084,99.308L198.152,100.308L198.22,99L198.289,99.923L198.357,100.385L198.426,100.923L198.494,101.308L198.563,101.077L198.631,101.308L198.7,101.923L198.768,101.923L198.836,103.462L198.905,103.385L198.973,103.154L199.042,102.154L199.11,102L199.179,102.231L199.247,102.308L199.316,102.385L199.384,103L199.452,102.923L199.521,102.615L199.589,102.231L199.658,101.385L199.726,100.308L199.795,100.615L199.863,100.231L199.932,100.923L200,99L200.068,98.615L200.137,98.077L200.205,98L200.274,99.308L200.342,98.077L200.411,97.923L200.479,97.154L200.548,96.231L200.616,95.846L200.684,94.769L200.753,94L200.821,93.308L200.89,92.692L200.958,93.846L201.027,93.769L201.095,94.615L201.164,94.692L201.232,94.846L201.3,94.692L201.369,95L201.437,93.462L201.506,93.692L201.574,93.154L201.643,92.769L201.711,92.154L201.78,92L201.848,91.769L201.916,91L201.985,90.538L202.053,91.385L202.122,90.692L202.19,91.692L202.259,89.308L202.327,91.154" stroke="#4c78a8" stroke-width="2"/></g><g class="mark-group role-title"><g transform="translate(100,-17)"><path class="background" aria-hidden="true" d="M0,0h0v0h0Z" pointer-events="none"/><g><g class="mark-text role-title-text" role="graphics-symbol" aria-roledescription="title" aria-label="Title text 'Noise - Vehicle: Engine Idling'" pointer-events="none"><text text-anchor="middle" transform="translate(0,10)" font-family="sans-serif" font-size="13px" font-weight="bold" fill="#000" opacity="1">Noise - Vehicle: Engine Idling</text></g></g><path class="foreground" aria-hidden="true" d="" pointer-events="none" display="none"/></g></g></g><path class="foreground" aria-hidden="true" d="" display="none"/></g></g></g><defs><clipPath id="clip105"><rect x="0" y="0" width="200" height="150"/></clipPath></defs></svg>